0
SECTION
2
ENTITIES
0
POLYLINE
62
224
66
1
70
1
3
mitochondrion
0
VERTEX
10
7.14542
20
10.7911
30
10.08
0
VERTEX
10
7.14681
20
10.78
30
10.08
0
VERTEX
10
7.14681
20
10.7772
30
10.08
0
VERTEX
10
7.14959
20
10.7744
30
10.08
0
VERTEX
10
7.14959
20
10.7689
30
10.08
0
VERTEX
10
7.15793
20
10.7578
30
10.08
0
VERTEX
10
7.15793
20
10.755
30
10.08
0
VERTEX
10
7.16906
20
10.7494
30
10.08
0
VERTEX
10
7.17462
20
10.7466
30
10.08
0
VERTEX
10
7.21911
20
10.7466
30
10.08
0
VERTEX
10
7.24136
20
10.7466
30
10.08
0
VERTEX
10
7.25248
20
10.748
30
10.08
0
VERTEX
10
7.26361
20
10.7522
30
10.08
0
VERTEX
10
7.26917
20
10.7564
30
10.08
0
VERTEX
10
7.28029
20
10.7591
30
10.08
0
VERTEX
10
7.28724
20
10.7689
30
10.08
0
VERTEX
10
7.29837
20
10.7786
30
10.08
0
VERTEX
10
7.30532
20
10.7883
30
10.08
0
VERTEX
10
7.30949
20
10.7995
30
10.08
0
VERTEX
10
7.31088
20
10.8217
30
10.08
0
VERTEX
10
7.30949
20
10.8273
30
10.08
0
VERTEX
10
7.30949
20
10.8301
30
10.08
0
VERTEX
10
7.30671
20
10.8314
30
10.08
0
VERTEX
10
7.30671
20
10.8342
30
10.08
0
VERTEX
10
7.30393
20
10.8356
30
10.08
0
VERTEX
10
7.30254
20
10.8412
30
10.08
0
VERTEX
10
7.30254
20
10.844
30
10.08
0
VERTEX
10
7.29698
20
10.8481
30
10.08
0
VERTEX
10
7.29698
20
10.8509
30
10.08
0
VERTEX
10
7.28585
20
10.8579
30
10.08
0
VERTEX
10
7.28029
20
10.8593
30
10.08
0
VERTEX
10
7.2789
20
10.862
30
10.08
0
VERTEX
10
7.28168
20
10.8676
30
10.08
0
VERTEX
10
7.25943
20
10.8759
30
10.08
0
VERTEX
10
7.23719
20
10.8759
30
10.08
0
VERTEX
10
7.21494
20
10.8732
30
10.08
0
VERTEX
10
7.19269
20
10.8634
30
10.08
0
VERTEX
10
7.18713
20
10.862
30
10.08
0
VERTEX
10
7.18157
20
10.8579
30
10.08
0
VERTEX
10
7.17601
20
10.8565
30
10.08
0
VERTEX
10
7.16906
20
10.8481
30
10.08
0
VERTEX
10
7.15793
20
10.8384
30
10.08
0
VERTEX
10
7.14959
20
10.8273
30
10.08
0
VERTEX
10
7.14542
20
10.805
30
10.08
0
VERTEX
10
7.14542
20
10.7939
30
10.08
0
VERTEX
10
7.14542
20
10.7925
30
10.08
0
SEQEND
0
POLYLINE
62
227
66
1
70
1
3
endoplasmic_reticulum
0
VERTEX
10
7.46644
20
10.6671
30
10.08
0
VERTEX
10
7.47361
20
10.6626
30
10.08
0
VERTEX
10
7.47719
20
10.6617
30
10.08
0
VERTEX
10
7.48078
20
10.659
30
10.08
0
VERTEX
10
7.49513
20
10.6563
30
10.08
0
VERTEX
10
7.50947
20
10.6572
30
10.08
0
VERTEX
10
7.51126
20
10.659
30
10.08
0
VERTEX
10
7.51844
20
10.6617
30
10.08
0
VERTEX
10
7.52202
20
10.6626
30
10.08
0
VERTEX
10
7.52381
20
10.6644
30
10.08
0
VERTEX
10
7.52561
20
10.6644
30
10.08
0
VERTEX
10
7.5274
20
10.6662
30
10.08
0
VERTEX
10
7.54175
20
10.6725
30
10.08
0
VERTEX
10
7.54892
20
10.6761
30
10.08
0
VERTEX
10
7.5534
20
10.6823
30
10.08
0
VERTEX
10
7.55968
20
10.6886
30
10.08
0
VERTEX
10
7.55968
20
10.703
30
10.08
0
VERTEX
10
7.55878
20
10.7101
30
10.08
0
VERTEX
10
7.5543
20
10.7164
30
10.08
0
VERTEX
10
7.53995
20
10.7254
30
10.08
0
VERTEX
10
7.53278
20
10.7254
30
10.08
0
VERTEX
10
7.53009
20
10.7227
30
10.08
0
VERTEX
10
7.5265
20
10.7218
30
10.08
0
VERTEX
10
7.52292
20
10.7191
30
10.08
0
VERTEX
10
7.51575
20
10.7173
30
10.08
0
VERTEX
10
7.50947
20
10.7119
30
10.08
0
VERTEX
10
7.50588
20
10.711
30
10.08
0
VERTEX
10
7.49961
20
10.7048
30
10.08
0
VERTEX
10
7.49244
20
10.7003
30
10.08
0
VERTEX
10
7.48885
20
10.6976
30
10.08
0
VERTEX
10
7.48706
20
10.6976
30
10.08
0
VERTEX
10
7.47361
20
10.6841
30
10.08
0
VERTEX
10
7.47182
20
10.677
30
10.08
0
VERTEX
10
7.47182
20
10.6698
30
10.08
0
VERTEX
10
7.47182
20
10.668
30
10.08
0
VERTEX
10
7.46823
20
10.6698
30
10.08
0
VERTEX
10
7.46733
20
10.6707
30
10.08
0
VERTEX
10
7.46644
20
10.668
30
10.08
0
SEQEND
0
POLYLINE
62
227
66
1
70
1
3
endoplasmic_reticulum
0
VERTEX
10
7.11678
20
10.6859
30
10.08
0
VERTEX
10
7.12037
20
10.6832
30
10.08
0
VERTEX
10
7.12754
20
10.6823
30
10.08
0
VERTEX
10
7.14189
20
10.6841
30
10.08
0
VERTEX
10
7.14547
20
10.6859
30
10.08
0
VERTEX
10
7.14816
20
10.6895
30
10.08
0
VERTEX
10
7.14906
20
10.6931
30
10.08
0
VERTEX
10
7.14816
20
10.6967
30
10.08
0
VERTEX
10
7.14637
20
10.6985
30
10.08
0
VERTEX
10
7.14637
20
10.7003
30
10.08
0
VERTEX
10
7.14458
20
10.7021
30
10.08
0
VERTEX
10
7.14278
20
10.7021
30
10.08
0
VERTEX
10
7.1374
20
10.7092
30
10.08
0
VERTEX
10
7.13561
20
10.7101
30
10.08
0
VERTEX
10
7.12127
20
10.7039
30
10.08
0
VERTEX
10
7.11678
20
10.6976
30
10.08
0
VERTEX
10
7.11678
20
10.6904
30
10.08
0
VERTEX
10
7.11678
20
10.6868
30
10.08
0
SEQEND
0
POLYLINE
62
227
66
1
70
1
3
endoplasmic_reticulum
0
VERTEX
10
7.09975
20
10.8213
30
10.08
0
VERTEX
10
7.10154
20
10.8177
30
10.08
0
VERTEX
10
7.10513
20
10.8141
30
10.08
0
VERTEX
10
7.1123
20
10.8123
30
10.08
0
VERTEX
10
7.11589
20
10.8106
30
10.08
0
VERTEX
10
7.12306
20
10.8106
30
10.08
0
VERTEX
10
7.12665
20
10.8106
30
10.08
0
VERTEX
10
7.12844
20
10.8123
30
10.08
0
VERTEX
10
7.13202
20
10.8123
30
10.08
0
VERTEX
10
7.1374
20
10.8186
30
10.08
0
VERTEX
10
7.13651
20
10.8258
30
10.08
0
VERTEX
10
7.13471
20
10.8294
30
10.08
0
VERTEX
10
7.13471
20
10.833
30
10.08
0
VERTEX
10
7.13023
20
10.8374
30
10.08
0
VERTEX
10
7.12306
20
10.8392
30
10.08
0
VERTEX
10
7.12037
20
10.8419
30
10.08
0
VERTEX
10
7.1132
20
10.8437
30
10.08
0
VERTEX
10
7.10602
20
10.8419
30
10.08
0
VERTEX
10
7.10244
20
10.8401
30
10.08
0
VERTEX
10
7.10154
20
10.833
30
10.08
0
VERTEX
10
7.09975
20
10.8294
30
10.08
0
VERTEX
10
7.09975
20
10.8222
30
10.08
0
SEQEND
0
POLYLINE
62
227
66
1
70
1
3
endoplasmic_reticulum
0
VERTEX
10
7.28085
20
10.9361
30
10.08
0
VERTEX
10
7.28175
20
10.9289
30
10.08
0
VERTEX
10
7.28533
20
10.9271
30
10.08
0
VERTEX
10
7.31402
20
10.928
30
10.08
0
VERTEX
10
7.3212
20
10.9289
30
10.08
0
VERTEX
10
7.32837
20
10.9316
30
10.08
0
VERTEX
10
7.33554
20
10.937
30
10.08
0
VERTEX
10
7.33644
20
10.9406
30
10.08
0
VERTEX
10
7.34271
20
10.9459
30
10.08
0
VERTEX
10
7.34271
20
10.9477
30
10.08
0
VERTEX
10
7.35347
20
10.9594
30
10.08
0
VERTEX
10
7.36064
20
10.9657
30
10.08
0
VERTEX
10
7.36154
20
10.9692
30
10.08
0
VERTEX
10
7.36423
20
10.9728
30
10.08
0
VERTEX
10
7.36602
20
10.98
30
10.08
0
VERTEX
10
7.36602
20
10.9818
30
10.08
0
VERTEX
10
7.35885
20
10.9872
30
10.08
0
VERTEX
10
7.35616
20
10.9899
30
10.08
0
VERTEX
10
7.35257
20
10.9908
30
10.08
0
VERTEX
10
7.34899
20
10.9934
30
10.08
0
VERTEX
10
7.3472
20
10.9943
30
10.08
0
VERTEX
10
7.34092
20
10.9881
30
10.08
0
VERTEX
10
7.33913
20
10.9872
30
10.08
0
VERTEX
10
7.33195
20
10.9908
30
10.08
0
VERTEX
10
7.32478
20
10.9917
30
10.08
0
VERTEX
10
7.3212
20
10.9934
30
10.08
0
VERTEX
10
7.3194
20
10.9934
30
10.08
0
VERTEX
10
7.31582
20
10.9908
30
10.08
0
VERTEX
10
7.31582
20
10.989
30
10.08
0
VERTEX
10
7.31223
20
10.9872
30
10.08
0
VERTEX
10
7.30954
20
10.98
30
10.08
0
VERTEX
10
7.29968
20
10.9666
30
10.08
0
VERTEX
10
7.2934
20
10.9612
30
10.08
0
VERTEX
10
7.28982
20
10.954
30
10.08
0
VERTEX
10
7.28444
20
10.9468
30
10.08
0
VERTEX
10
7.28085
20
10.9423
30
10.08
0
VERTEX
10
7.28085
20
10.9388
30
10.08
0
VERTEX
10
7.28085
20
10.937
30
10.08
0
SEQEND
0
POLYLINE
62
227
66
1
70
1
3
endoplasmic_reticulum
0
VERTEX
10
7.42251
20
10.789
30
10.08
0
VERTEX
10
7.42519
20
10.7863
30
10.08
0
VERTEX
10
7.42519
20
10.7846
30
10.08
0
VERTEX
10
7.42878
20
10.781
30
10.08
0
VERTEX
10
7.43595
20
10.7783
30
10.08
0
VERTEX
10
7.4503
20
10.7783
30
10.08
0
VERTEX
10
7.45747
20
10.7792
30
10.08
0
VERTEX
10
7.46464
20
10.7819
30
10.08
0
VERTEX
10
7.47182
20
10.7819
30
10.08
0
VERTEX
10
7.4754
20
10.7819
30
10.08
0
VERTEX
10
7.47899
20
10.7837
30
10.08
0
VERTEX
10
7.48257
20
10.7837
30
10.08
0
VERTEX
10
7.48616
20
10.7854
30
10.08
0
VERTEX
10
7.48795
20
10.7872
30
10.08
0
VERTEX
10
7.48975
20
10.7872
30
10.08
0
VERTEX
10
7.49513
20
10.7935
30
10.08
0
VERTEX
10
7.49692
20
10.8007
30
10.08
0
VERTEX
10
7.49602
20
10.815
30
10.08
0
VERTEX
10
7.49333
20
10.8222
30
10.08
0
VERTEX
10
7.49154
20
10.8231
30
10.08
0
VERTEX
10
7.49154
20
10.8249
30
10.08
0
VERTEX
10
7.47809
20
10.8348
30
10.08
0
VERTEX
10
7.4745
20
10.8357
30
10.08
0
VERTEX
10
7.46016
20
10.8303
30
10.08
0
VERTEX
10
7.45299
20
10.8285
30
10.08
0
VERTEX
10
7.44582
20
10.8285
30
10.08
0
VERTEX
10
7.43864
20
10.8267
30
10.08
0
VERTEX
10
7.43685
20
10.8249
30
10.08
0
VERTEX
10
7.43326
20
10.824
30
10.08
0
VERTEX
10
7.42788
20
10.8186
30
10.08
0
VERTEX
10
7.42609
20
10.8168
30
10.08
0
VERTEX
10
7.42609
20
10.815
30
10.08
0
VERTEX
10
7.4243
20
10.8132
30
10.08
0
VERTEX
10
7.4243
20
10.8097
30
10.08
0
VERTEX
10
7.42251
20
10.8061
30
10.08
0
VERTEX
10
7.42251
20
10.7917
30
10.08
0
VERTEX
10
7.42251
20
10.7899
30
10.08
0
SEQEND
0
POLYLINE
62
227
66
1
70
1
3
endoplasmic_reticulum
0
VERTEX
10
7.47271
20
10.7317
30
10.08
0
VERTEX
10
7.4763
20
10.729
30
10.08
0
VERTEX
10
7.48347
20
10.729
30
10.08
0
VERTEX
10
7.48526
20
10.729
30
10.08
0
VERTEX
10
7.48885
20
10.7317
30
10.08
0
VERTEX
10
7.49244
20
10.7326
30
10.08
0
VERTEX
10
7.49871
20
10.7379
30
10.08
0
VERTEX
10
7.50678
20
10.7514
30
10.08
0
VERTEX
10
7.50678
20
10.7657
30
10.08
0
VERTEX
10
7.50409
20
10.7693
30
10.08
0
VERTEX
10
7.48975
20
10.7684
30
10.08
0
VERTEX
10
7.48795
20
10.7666
30
10.08
0
VERTEX
10
7.48616
20
10.7666
30
10.08
0
VERTEX
10
7.48078
20
10.7594
30
10.08
0
VERTEX
10
7.47719
20
10.7568
30
10.08
0
VERTEX
10
7.47271
20
10.7505
30
10.08
0
VERTEX
10
7.47271
20
10.7361
30
10.08
0
VERTEX
10
7.47271
20
10.7326
30
10.08
0
SEQEND
0
POLYLINE
62
227
66
1
70
1
3
endoplasmic_reticulum
0
VERTEX
10
7.40995
20
10.7281
30
10.08
0
VERTEX
10
7.41175
20
10.7263
30
10.08
0
VERTEX
10
7.41175
20
10.7245
30
10.08
0
VERTEX
10
7.41444
20
10.7209
30
10.08
0
VERTEX
10
7.42878
20
10.72
30
10.08
0
VERTEX
10
7.43595
20
10.7209
30
10.08
0
VERTEX
10
7.44313
20
10.7254
30
10.08
0
VERTEX
10
7.44761
20
10.729
30
10.08
0
VERTEX
10
7.44761
20
10.7361
30
10.08
0
VERTEX
10
7.44671
20
10.7397
30
10.08
0
VERTEX
10
7.44402
20
10.7424
30
10.08
0
VERTEX
10
7.44044
20
10.7433
30
10.08
0
VERTEX
10
7.43775
20
10.746
30
10.08
0
VERTEX
10
7.43057
20
10.746
30
10.08
0
VERTEX
10
7.42699
20
10.7469
30
10.08
0
VERTEX
10
7.42519
20
10.7469
30
10.08
0
VERTEX
10
7.42788
20
10.7505
30
10.08
0
VERTEX
10
7.42609
20
10.7514
30
10.08
0
VERTEX
10
7.41982
20
10.7451
30
10.08
0
VERTEX
10
7.41354
20
10.7415
30
10.08
0
VERTEX
10
7.40995
20
10.7343
30
10.08
0
VERTEX
10
7.40995
20
10.7308
30
10.08
0
VERTEX
10
7.40995
20
10.729
30
10.08
0
SEQEND
0
POLYLINE
62
31
66
1
70
1
3
contour
0
VERTEX
10
6.25885
20
10.2863
30
10.08
0
VERTEX
10
6.26323
20
10.2819
30
10.08
0
VERTEX
10
6.33323
20
10.2819
30
10.08
0
VERTEX
10
6.36823
20
10.2819
30
10.08
0
VERTEX
10
6.3748
20
10.2907
30
10.08
0
VERTEX
10
6.37917
20
10.2951
30
10.08
0
VERTEX
10
6.3923
20
10.3301
30
10.08
0
VERTEX
10
6.40105
20
10.3476
30
10.08
0
VERTEX
10
6.41418
20
10.3651
30
10.08
0
VERTEX
10
6.42074
20
10.3694
30
10.08
0
VERTEX
10
6.42074
20
10.3782
30
10.08
0
VERTEX
10
6.41418
20
10.3848
30
10.08
0
VERTEX
10
6.41199
20
10.4023
30
10.08
0
VERTEX
10
6.39667
20
10.4373
30
10.08
0
VERTEX
10
6.38136
20
10.4526
30
10.08
0
VERTEX
10
6.3748
20
10.4591
30
10.08
0
VERTEX
10
6.3573
20
10.4504
30
10.08
0
VERTEX
10
6.34855
20
10.446
30
10.08
0
VERTEX
10
6.34636
20
10.4373
30
10.08
0
VERTEX
10
6.33323
20
10.4219
30
10.08
0
VERTEX
10
6.32667
20
10.4132
30
10.08
0
VERTEX
10
6.32448
20
10.4088
30
10.08
0
VERTEX
10
6.32011
20
10.4088
30
10.08
0
VERTEX
10
6.31792
20
10.4001
30
10.08
0
VERTEX
10
6.31136
20
10.3935
30
10.08
0
VERTEX
10
6.30917
20
10.3848
30
10.08
0
VERTEX
10
6.29604
20
10.3672
30
10.08
0
VERTEX
10
6.29167
20
10.3585
30
10.08
0
VERTEX
10
6.29167
20
10.3541
30
10.08
0
VERTEX
10
6.28073
20
10.3366
30
10.08
0
VERTEX
10
6.27635
20
10.3344
30
10.08
0
VERTEX
10
6.27635
20
10.3301
30
10.08
0
VERTEX
10
6.26979
20
10.3213
30
10.08
0
VERTEX
10
6.26542
20
10.3169
30
10.08
0
VERTEX
10
6.26542
20
10.3082
30
10.08
0
VERTEX
10
6.25885
20
10.2994
30
10.08
0
VERTEX
10
6.25885
20
10.2907
30
10.08
0
VERTEX
10
6.25885
20
10.2885
30
10.08
0
SEQEND
0
POLYLINE
62
31
66
1
70
1
3
contour
0
VERTEX
10
6.67013
20
10.5182
30
10.08
0
VERTEX
10
6.67232
20
10.5094
30
10.08
0
VERTEX
10
6.67888
20
10.5007
30
10.08
0
VERTEX
10
6.69419
20
10.4657
30
10.08
0
VERTEX
10
6.69638
20
10.4569
30
10.08
0
VERTEX
10
6.7117
20
10.4416
30
10.08
0
VERTEX
10
6.72701
20
10.4307
30
10.08
0
VERTEX
10
6.74451
20
10.4307
30
10.08
0
VERTEX
10
6.75326
20
10.4307
30
10.08
0
VERTEX
10
6.75764
20
10.4329
30
10.08
0
VERTEX
10
6.76201
20
10.4285
30
10.08
0
VERTEX
10
6.76857
20
10.4373
30
10.08
0
VERTEX
10
6.77732
20
10.4394
30
10.08
0
VERTEX
10
6.7817
20
10.4416
30
10.08
0
VERTEX
10
6.78389
20
10.4504
30
10.08
0
VERTEX
10
6.79045
20
10.4591
30
10.08
0
VERTEX
10
6.79045
20
10.4635
30
10.08
0
VERTEX
10
6.7992
20
10.4723
30
10.08
0
VERTEX
10
6.7992
20
10.4766
30
10.08
0
VERTEX
10
6.80795
20
10.4854
30
10.08
0
VERTEX
10
6.8167
20
10.4876
30
10.08
0
VERTEX
10
6.82108
20
10.4898
30
10.08
0
VERTEX
10
6.82108
20
10.4941
30
10.08
0
VERTEX
10
6.82545
20
10.4941
30
10.08
0
VERTEX
10
6.8342
20
10.5007
30
10.08
0
VERTEX
10
6.83858
20
10.5094
30
10.08
0
VERTEX
10
6.84295
20
10.5116
30
10.08
0
VERTEX
10
6.84733
20
10.5094
30
10.08
0
VERTEX
10
6.87577
20
10.5379
30
10.08
0
VERTEX
10
6.88014
20
10.5466
30
10.08
0
VERTEX
10
6.88014
20
10.5554
30
10.08
0
VERTEX
10
6.88452
20
10.562
30
10.08
0
VERTEX
10
6.88452
20
10.5707
30
10.08
0
VERTEX
10
6.89327
20
10.5882
30
10.08
0
VERTEX
10
6.90202
20
10.5926
30
10.08
0
VERTEX
10
6.91077
20
10.5926
30
10.08
0
VERTEX
10
6.91952
20
10.5991
30
10.08
0
VERTEX
10
6.93702
20
10.6013
30
10.08
0
VERTEX
10
6.97202
20
10.6166
30
10.08
0
VERTEX
10
6.98953
20
10.621
30
10.08
0
VERTEX
10
7.05953
20
10.621
30
10.08
0
VERTEX
10
7.07703
20
10.6166
30
10.08
0
VERTEX
10
7.14704
20
10.6166
30
10.08
0
VERTEX
10
7.18204
20
10.6101
30
10.08
0
VERTEX
10
7.19954
20
10.6057
30
10.08
0
VERTEX
10
7.20392
20
10.6057
30
10.08
0
VERTEX
10
7.2061
20
10.6013
30
10.08
0
VERTEX
10
7.2236
20
10.597
30
10.08
0
VERTEX
10
7.24111
20
10.597
30
10.08
0
VERTEX
10
7.24986
20
10.5926
30
10.08
0
VERTEX
10
7.26736
20
10.5904
30
10.08
0
VERTEX
10
7.30236
20
10.5795
30
10.08
0
VERTEX
10
7.33736
20
10.5773
30
10.08
0
VERTEX
10
7.40737
20
10.5816
30
10.08
0
VERTEX
10
7.42487
20
10.5816
30
10.08
0
VERTEX
10
7.44237
20
10.586
30
10.08
0
VERTEX
10
7.45112
20
10.5904
30
10.08
0
VERTEX
10
7.45768
20
10.5991
30
10.08
0
VERTEX
10
7.47518
20
10.6101
30
10.08
0
VERTEX
10
7.48393
20
10.6123
30
10.08
0
VERTEX
10
7.48612
20
10.6166
30
10.08
0
VERTEX
10
7.4905
20
10.6166
30
10.08
0
VERTEX
10
7.51894
20
10.6451
30
10.08
0
VERTEX
10
7.53425
20
10.6604
30
10.08
0
VERTEX
10
7.53862
20
10.6691
30
10.08
0
VERTEX
10
7.55613
20
10.6779
30
10.08
0
VERTEX
10
7.56925
20
10.6932
30
10.08
0
VERTEX
10
7.57581
20
10.702
30
10.08
0
VERTEX
10
7.58238
20
10.7195
30
10.08
0
VERTEX
10
7.59332
20
10.737
30
10.08
0
VERTEX
10
7.59769
20
10.7545
30
10.08
0
VERTEX
10
7.60425
20
10.761
30
10.08
0
VERTEX
10
7.60863
20
10.7785
30
10.08
0
VERTEX
10
7.60644
20
10.8135
30
10.08
0
VERTEX
10
7.5955
20
10.8485
30
10.08
0
VERTEX
10
7.59113
20
10.866
30
10.08
0
VERTEX
10
7.58675
20
10.8704
30
10.08
0
VERTEX
10
7.58675
20
10.8748
30
10.08
0
VERTEX
10
7.56488
20
10.9098
30
10.08
0
VERTEX
10
7.55394
20
10.9273
30
10.08
0
VERTEX
10
7.54738
20
10.936
30
10.08
0
VERTEX
10
7.54738
20
10.9448
30
10.08
0
VERTEX
10
7.53862
20
10.9535
30
10.08
0
VERTEX
10
7.53862
20
10.9623
30
10.08
0
VERTEX
10
7.52987
20
10.9667
30
10.08
0
VERTEX
10
7.52331
20
10.9842
30
10.08
0
VERTEX
10
7.52112
20
10.9929
30
10.08
0
VERTEX
10
7.51237
20
10.9995
30
10.08
0
VERTEX
10
7.508
20
11.0039
30
10.08
0
VERTEX
10
7.50362
20
11.0039
30
10.08
0
VERTEX
10
7.48612
20
11.0148
30
10.08
0
VERTEX
10
7.46862
20
11.0192
30
10.08
0
VERTEX
10
7.45987
20
11.0257
30
10.08
0
VERTEX
10
7.42487
20
11.0279
30
10.08
0
VERTEX
10
7.35486
20
11.0235
30
10.08
0
VERTEX
10
7.31986
20
11.0214
30
10.08
0
VERTEX
10
7.30236
20
11.017
30
10.08
0
VERTEX
10
7.29798
20
11.0126
30
10.08
0
VERTEX
10
7.28048
20
11.0082
30
10.08
0
VERTEX
10
7.27173
20
11.0082
30
10.08
0
VERTEX
10
7.26954
20
11.0039
30
10.08
0
VERTEX
10
7.23454
20
10.9929
30
10.08
0
VERTEX
10
7.2061
20
10.9667
30
10.08
0
VERTEX
10
7.1711
20
10.9579
30
10.08
0
VERTEX
10
7.16235
20
10.9579
30
10.08
0
VERTEX
10
7.14704
20
10.947
30
10.08
0
VERTEX
10
7.14485
20
10.9382
30
10.08
0
VERTEX
10
7.14485
20
10.9339
30
10.08
0
VERTEX
10
7.1361
20
10.9251
30
10.08
0
VERTEX
10
7.12954
20
10.9076
30
10.08
0
VERTEX
10
7.12516
20
10.8988
30
10.08
0
VERTEX
10
7.11641
20
10.8923
30
10.08
0
VERTEX
10
7.10766
20
10.8901
30
10.08
0
VERTEX
10
7.1011
20
10.8835
30
10.08
0
VERTEX
10
7.1011
20
10.8792
30
10.08
0
VERTEX
10
7.09672
20
10.8792
30
10.08
0
VERTEX
10
7.08797
20
10.8704
30
10.08
0
VERTEX
10
7.08359
20
10.8617
30
10.08
0
VERTEX
10
7.08141
20
10.8573
30
10.08
0
VERTEX
10
7.07703
20
10.8573
30
10.08
0
VERTEX
10
7.06172
20
10.8442
30
10.08
0
VERTEX
10
7.05297
20
10.8398
30
10.08
0
VERTEX
10
7.04859
20
10.8398
30
10.08
0
VERTEX
10
7.03109
20
10.8245
30
10.08
0
VERTEX
10
7.02672
20
10.8157
30
10.08
0
VERTEX
10
7.0114
20
10.8004
30
10.08
0
VERTEX
10
7.00046
20
10.7829
30
10.08
0
VERTEX
10
7.00046
20
10.7742
30
10.08
0
VERTEX
10
7.00046
20
10.7698
30
10.08
0
VERTEX
10
6.98515
20
10.7567
30
10.08
0
VERTEX
10
6.96984
20
10.7501
30
10.08
0
VERTEX
10
6.95234
20
10.7391
30
10.08
0
VERTEX
10
6.94359
20
10.7326
30
10.08
0
VERTEX
10
6.93483
20
10.7304
30
10.08
0
VERTEX
10
6.93046
20
10.7304
30
10.08
0
VERTEX
10
6.91733
20
10.7173
30
10.08
0
VERTEX
10
6.89983
20
10.702
30
10.08
0
VERTEX
10
6.89108
20
10.6976
30
10.08
0
VERTEX
10
6.87577
20
10.6823
30
10.08
0
VERTEX
10
6.87358
20
10.6735
30
10.08
0
VERTEX
10
6.86702
20
10.6648
30
10.08
0
VERTEX
10
6.86483
20
10.6582
30
10.08
0
VERTEX
10
6.85827
20
10.6495
30
10.08
0
VERTEX
10
6.85827
20
10.6451
30
10.08
0
VERTEX
10
6.82983
20
10.6145
30
10.08
0
VERTEX
10
6.82545
20
10.6145
30
10.08
0
VERTEX
10
6.80795
20
10.6035
30
10.08
0
VERTEX
10
6.80139
20
10.597
30
10.08
0
VERTEX
10
6.79264
20
10.597
30
10.08
0
VERTEX
10
6.77514
20
10.5904
30
10.08
0
VERTEX
10
6.76639
20
10.5816
30
10.08
0
VERTEX
10
6.73138
20
10.5751
30
10.08
0
VERTEX
10
6.72701
20
10.5751
30
10.08
0
VERTEX
10
6.69857
20
10.551
30
10.08
0
VERTEX
10
6.68107
20
10.5379
30
10.08
0
VERTEX
10
6.67669
20
10.5335
30
10.08
0
VERTEX
10
6.67232
20
10.5335
30
10.08
0
VERTEX
10
6.67013
20
10.5248
30
10.08
0
VERTEX
10
6.67013
20
10.5204
30
10.08
0
SEQEND
0
ENDSEC
0
EOF
