0
SECTION
2
ENTITIES
0
POLYLINE
62
31
66
1
70
1
3
contour
0
VERTEX
10
8.70763
20
9.19545
30
5.64
0
VERTEX
10
8.71206
20
9.18658
30
5.64
0
VERTEX
10
8.71206
20
9.16884
30
5.64
0
VERTEX
10
8.71872
20
9.1511
30
5.64
0
VERTEX
10
8.73202
20
9.13336
30
5.64
0
VERTEX
10
8.73645
20
9.12449
30
5.64
0
VERTEX
10
8.74532
20
9.12228
30
5.64
0
VERTEX
10
8.75419
20
9.11563
30
5.64
0
VERTEX
10
8.76971
20
9.10897
30
5.64
0
VERTEX
10
8.78745
20
9.09345
30
5.64
0
VERTEX
10
8.80519
20
9.08236
30
5.64
0
VERTEX
10
8.81406
20
9.08015
30
5.64
0
VERTEX
10
8.8318
20
9.06906
30
5.64
0
VERTEX
10
8.84067
20
9.06241
30
5.64
0
VERTEX
10
8.84511
20
9.05797
30
5.64
0
VERTEX
10
8.91606
20
9.05354
30
5.64
0
VERTEX
10
8.92493
20
9.05132
30
5.64
0
VERTEX
10
8.92937
20
9.04689
30
5.64
0
VERTEX
10
9.00032
20
9.03358
30
5.64
0
VERTEX
10
9.07128
20
9.03137
30
5.64
0
VERTEX
10
9.10676
20
9.03358
30
5.64
0
VERTEX
10
9.14002
20
9.0491
30
5.64
0
VERTEX
10
9.15554
20
9.06463
30
5.64
0
VERTEX
10
9.16219
20
9.0735
30
5.64
0
VERTEX
10
9.17106
20
9.07793
30
5.64
0
VERTEX
10
9.19545
20
9.11119
30
5.64
0
VERTEX
10
9.21097
20
9.12449
30
5.64
0
VERTEX
10
9.22206
20
9.14002
30
5.64
0
VERTEX
10
9.23758
20
9.15554
30
5.64
0
VERTEX
10
9.2531
20
9.16662
30
5.64
0
VERTEX
10
9.26641
20
9.18215
30
5.64
0
VERTEX
10
9.27306
20
9.19102
30
5.64
0
VERTEX
10
9.27528
20
9.19989
30
5.64
0
VERTEX
10
9.28415
20
9.20432
30
5.64
0
VERTEX
10
9.29302
20
9.21319
30
5.64
0
VERTEX
10
9.29302
20
9.24867
30
5.64
0
VERTEX
10
9.29302
20
9.26641
30
5.64
0
VERTEX
10
9.28858
20
9.28415
30
5.64
0
VERTEX
10
9.28858
20
9.29302
30
5.64
0
VERTEX
10
9.28193
20
9.31075
30
5.64
0
VERTEX
10
9.28193
20
9.31962
30
5.64
0
VERTEX
10
9.28193
20
9.32406
30
5.64
0
VERTEX
10
9.25754
20
9.35732
30
5.64
0
VERTEX
10
9.24645
20
9.37284
30
5.64
0
VERTEX
10
9.21319
20
9.4061
30
5.64
0
VERTEX
10
9.19767
20
9.41941
30
5.64
0
VERTEX
10
9.1888
20
9.42606
30
5.64
0
VERTEX
10
9.15332
20
9.43049
30
5.64
0
VERTEX
10
9.08236
20
9.43049
30
5.64
0
VERTEX
10
9.0735
20
9.42828
30
5.64
0
VERTEX
10
9.06906
20
9.42828
30
5.64
0
VERTEX
10
9.06684
20
9.42384
30
5.64
0
VERTEX
10
9.0491
20
9.42162
30
5.64
0
VERTEX
10
9.03137
20
9.41275
30
5.64
0
VERTEX
10
9.01584
20
9.39945
30
5.64
0
VERTEX
10
9.01584
20
9.39501
30
5.64
0
VERTEX
10
9.01141
20
9.39058
30
5.64
0
VERTEX
10
9.00697
20
9.39058
30
5.64
0
VERTEX
10
9.00254
20
9.38615
30
5.64
0
VERTEX
10
8.99367
20
9.38393
30
5.64
0
VERTEX
10
8.95819
20
9.39058
30
5.64
0
VERTEX
10
8.88724
20
9.38836
30
5.64
0
VERTEX
10
8.87837
20
9.38836
30
5.64
0
VERTEX
10
8.84289
20
9.37284
30
5.64
0
VERTEX
10
8.83402
20
9.37284
30
5.64
0
VERTEX
10
8.82958
20
9.36841
30
5.64
0
VERTEX
10
8.82515
20
9.36841
30
5.64
0
VERTEX
10
8.8185
20
9.36175
30
5.64
0
VERTEX
10
8.80963
20
9.36175
30
5.64
0
VERTEX
10
8.80298
20
9.35288
30
5.64
0
VERTEX
10
8.79411
20
9.34845
30
5.64
0
VERTEX
10
8.78967
20
9.34845
30
5.64
0
VERTEX
10
8.7808
20
9.3418
30
5.64
0
VERTEX
10
8.77193
20
9.33958
30
5.64
0
VERTEX
10
8.75419
20
9.32406
30
5.64
0
VERTEX
10
8.74976
20
9.31962
30
5.64
0
VERTEX
10
8.74532
20
9.30188
30
5.64
0
VERTEX
10
8.73645
20
9.28415
30
5.64
0
VERTEX
10
8.73645
20
9.27971
30
5.64
0
VERTEX
10
8.7298
20
9.27084
30
5.64
0
VERTEX
10
8.72758
20
9.26197
30
5.64
0
VERTEX
10
8.72093
20
9.2531
30
5.64
0
VERTEX
10
8.71872
20
9.24423
30
5.64
0
VERTEX
10
8.71428
20
9.24202
30
5.64
0
VERTEX
10
8.71428
20
9.23758
30
5.64
0
VERTEX
10
8.70763
20
9.22871
30
5.64
0
VERTEX
10
8.70763
20
9.21097
30
5.64
0
VERTEX
10
8.70763
20
9.2021
30
5.64
0
VERTEX
10
8.70763
20
9.19767
30
5.64
0
SEQEND
0
POLYLINE
62
224
66
1
70
1
3
mitochondrion
0
VERTEX
10
9.06838
20
9.20882
30
5.64
0
VERTEX
10
9.07116
20
9.20604
30
5.64
0
VERTEX
10
9.07673
20
9.18379
30
5.64
0
VERTEX
10
9.07951
20
9.1824
30
5.64
0
VERTEX
10
9.07951
20
9.17962
30
5.64
0
VERTEX
10
9.08924
20
9.17406
30
5.64
0
VERTEX
10
9.0948
20
9.16849
30
5.64
0
VERTEX
10
9.10036
20
9.1671
30
5.64
0
VERTEX
10
9.10593
20
9.16293
30
5.64
0
VERTEX
10
9.12817
20
9.15459
30
5.64
0
VERTEX
10
9.15042
20
9.14903
30
5.64
0
VERTEX
10
9.17267
20
9.14764
30
5.64
0
VERTEX
10
9.17545
20
9.14764
30
5.64
0
VERTEX
10
9.17823
20
9.15181
30
5.64
0
VERTEX
10
9.18379
20
9.1532
30
5.64
0
VERTEX
10
9.19352
20
9.16015
30
5.64
0
VERTEX
10
9.19769
20
9.16293
30
5.64
0
VERTEX
10
9.20047
20
9.16293
30
5.64
0
VERTEX
10
9.2116
20
9.17128
30
5.64
0
VERTEX
10
9.22828
20
9.19074
30
5.64
0
VERTEX
10
9.23245
20
9.20187
30
5.64
0
VERTEX
10
9.23524
20
9.20465
30
5.64
0
VERTEX
10
9.23802
20
9.22689
30
5.64
0
VERTEX
10
9.23802
20
9.24914
30
5.64
0
VERTEX
10
9.23802
20
9.26026
30
5.64
0
VERTEX
10
9.23524
20
9.26582
30
5.64
0
VERTEX
10
9.23524
20
9.27139
30
5.64
0
VERTEX
10
9.23524
20
9.27417
30
5.64
0
VERTEX
10
9.22133
20
9.29641
30
5.64
0
VERTEX
10
9.21994
20
9.30198
30
5.64
0
VERTEX
10
9.21994
20
9.30476
30
5.64
0
VERTEX
10
9.20465
20
9.327
30
5.64
0
VERTEX
10
9.19491
20
9.33674
30
5.64
0
VERTEX
10
9.19352
20
9.3423
30
5.64
0
VERTEX
10
9.18935
20
9.34786
30
5.64
0
VERTEX
10
9.1671
20
9.36037
30
5.64
0
VERTEX
10
9.12261
20
9.36455
30
5.64
0
VERTEX
10
9.10036
20
9.36037
30
5.64
0
VERTEX
10
9.09758
20
9.35759
30
5.64
0
VERTEX
10
9.09758
20
9.35481
30
5.64
0
VERTEX
10
9.09063
20
9.34647
30
5.64
0
VERTEX
10
9.08646
20
9.33535
30
5.64
0
VERTEX
10
9.08507
20
9.32978
30
5.64
0
VERTEX
10
9.07673
20
9.32144
30
5.64
0
VERTEX
10
9.07116
20
9.2992
30
5.64
0
VERTEX
10
9.07116
20
9.2547
30
5.64
0
VERTEX
10
9.07116
20
9.23245
30
5.64
0
VERTEX
10
9.06838
20
9.22133
30
5.64
0
VERTEX
10
9.06838
20
9.21021
30
5.64
0
SEQEND
0
POLYLINE
62
227
66
1
70
1
3
endoplasmic_reticulum
0
VERTEX
10
8.92332
20
9.1878
30
5.64
0
VERTEX
10
8.92601
20
9.17346
30
5.64
0
VERTEX
10
8.92691
20
9.16629
30
5.64
0
VERTEX
10
8.92691
20
9.1627
30
5.64
0
VERTEX
10
8.9305
20
9.15643
30
5.64
0
VERTEX
10
8.93229
20
9.15553
30
5.64
0
VERTEX
10
8.93319
20
9.15194
30
5.64
0
VERTEX
10
8.93588
20
9.14925
30
5.64
0
VERTEX
10
8.96456
20
9.15194
30
5.64
0
VERTEX
10
8.96815
20
9.15284
30
5.64
0
VERTEX
10
8.96905
20
9.15194
30
5.64
0
VERTEX
10
8.97084
20
9.15553
30
5.64
0
VERTEX
10
8.97443
20
9.15732
30
5.64
0
VERTEX
10
8.97981
20
9.16449
30
5.64
0
VERTEX
10
8.9816
20
9.16808
30
5.64
0
VERTEX
10
8.9807
20
9.18243
30
5.64
0
VERTEX
10
8.97981
20
9.1896
30
5.64
0
VERTEX
10
8.97891
20
9.19318
30
5.64
0
VERTEX
10
8.97263
20
9.19856
30
5.64
0
VERTEX
10
8.96994
20
9.20125
30
5.64
0
VERTEX
10
8.96277
20
9.20215
30
5.64
0
VERTEX
10
8.9565
20
9.20843
30
5.64
0
VERTEX
10
8.94215
20
9.20394
30
5.64
0
VERTEX
10
8.93498
20
9.20125
30
5.64
0
VERTEX
10
8.93139
20
9.19946
30
5.64
0
VERTEX
10
8.92781
20
9.19946
30
5.64
0
VERTEX
10
8.92601
20
9.19856
30
5.64
0
VERTEX
10
8.92601
20
9.19677
30
5.64
0
VERTEX
10
8.92422
20
9.19498
30
5.64
0
VERTEX
10
8.92332
20
9.1887
30
5.64
0
SEQEND
0
POLYLINE
62
227
66
1
70
1
3
endoplasmic_reticulum
0
VERTEX
10
8.86325
20
9.33842
30
5.64
0
VERTEX
10
8.86505
20
9.33484
30
5.64
0
VERTEX
10
8.86594
20
9.33305
30
5.64
0
VERTEX
10
8.87312
20
9.33125
30
5.64
0
VERTEX
10
8.87581
20
9.32856
30
5.64
0
VERTEX
10
8.8776
20
9.32856
30
5.64
0
VERTEX
10
8.88119
20
9.32587
30
5.64
0
VERTEX
10
8.88298
20
9.32408
30
5.64
0
VERTEX
10
8.89015
20
9.32408
30
5.64
0
VERTEX
10
8.89732
20
9.32139
30
5.64
0
VERTEX
10
8.91167
20
9.32139
30
5.64
0
VERTEX
10
8.91884
20
9.32139
30
5.64
0
VERTEX
10
8.92063
20
9.32139
30
5.64
0
VERTEX
10
8.92691
20
9.32677
30
5.64
0
VERTEX
10
8.9287
20
9.32677
30
5.64
0
VERTEX
10
8.93139
20
9.33036
30
5.64
0
VERTEX
10
8.93588
20
9.3438
30
5.64
0
VERTEX
10
8.93677
20
9.3456
30
5.64
0
VERTEX
10
8.93588
20
9.34739
30
5.64
0
VERTEX
10
8.94036
20
9.35994
30
5.64
0
VERTEX
10
8.94305
20
9.36353
30
5.64
0
VERTEX
10
8.94215
20
9.36442
30
5.64
0
VERTEX
10
8.93498
20
9.36084
30
5.64
0
VERTEX
10
8.92781
20
9.35994
30
5.64
0
VERTEX
10
8.92063
20
9.36263
30
5.64
0
VERTEX
10
8.91346
20
9.36173
30
5.64
0
VERTEX
10
8.90988
20
9.36173
30
5.64
0
VERTEX
10
8.90629
20
9.35994
30
5.64
0
VERTEX
10
8.89912
20
9.35994
30
5.64
0
VERTEX
10
8.89194
20
9.35725
30
5.64
0
VERTEX
10
8.89015
20
9.35546
30
5.64
0
VERTEX
10
8.88298
20
9.35277
30
5.64
0
VERTEX
10
8.87939
20
9.35008
30
5.64
0
VERTEX
10
8.8776
20
9.34829
30
5.64
0
VERTEX
10
8.87401
20
9.34829
30
5.64
0
VERTEX
10
8.87043
20
9.34649
30
5.64
0
VERTEX
10
8.86863
20
9.34649
30
5.64
0
VERTEX
10
8.86505
20
9.34291
30
5.64
0
VERTEX
10
8.86325
20
9.34111
30
5.64
0
VERTEX
10
8.86325
20
9.33932
30
5.64
0
SEQEND
0
ENDSEC
0
EOF
