0
SECTION
2
ENTITIES
0
POLYLINE
62
31
66
1
70
1
3
contour
0
VERTEX
10
8.85398
20
9.29302
30
5.8
0
VERTEX
10
8.86063
20
9.27528
30
5.8
0
VERTEX
10
8.86284
20
9.26641
30
5.8
0
VERTEX
10
8.86284
20
9.26197
30
5.8
0
VERTEX
10
8.86728
20
9.25754
30
5.8
0
VERTEX
10
8.87837
20
9.22206
30
5.8
0
VERTEX
10
8.88058
20
9.20432
30
5.8
0
VERTEX
10
8.88502
20
9.19989
30
5.8
0
VERTEX
10
8.88724
20
9.12893
30
5.8
0
VERTEX
10
8.88724
20
9.11119
30
5.8
0
VERTEX
10
8.88724
20
9.10232
30
5.8
0
VERTEX
10
8.89832
20
9.09567
30
5.8
0
VERTEX
10
8.9338
20
9.08902
30
5.8
0
VERTEX
10
8.93824
20
9.08902
30
5.8
0
VERTEX
10
8.9471
20
9.08236
30
5.8
0
VERTEX
10
9.01806
20
9.07793
30
5.8
0
VERTEX
10
9.0358
20
9.08015
30
5.8
0
VERTEX
10
9.04467
20
9.08015
30
5.8
0
VERTEX
10
9.05132
20
9.08902
30
5.8
0
VERTEX
10
9.06019
20
9.09123
30
5.8
0
VERTEX
10
9.08902
20
9.11784
30
5.8
0
VERTEX
10
9.10676
20
9.12671
30
5.8
0
VERTEX
10
9.11119
20
9.12671
30
5.8
0
VERTEX
10
9.12006
20
9.13336
30
5.8
0
VERTEX
10
9.15554
20
9.1378
30
5.8
0
VERTEX
10
9.1888
20
9.15332
30
5.8
0
VERTEX
10
9.19767
20
9.15332
30
5.8
0
VERTEX
10
9.23315
20
9.16441
30
5.8
0
VERTEX
10
9.24202
20
9.16441
30
5.8
0
VERTEX
10
9.24645
20
9.16441
30
5.8
0
VERTEX
10
9.24867
20
9.16884
30
5.8
0
VERTEX
10
9.26641
20
9.17549
30
5.8
0
VERTEX
10
9.27528
20
9.17993
30
5.8
0
VERTEX
10
9.28415
20
9.1888
30
5.8
0
VERTEX
10
9.30188
20
9.19989
30
5.8
0
VERTEX
10
9.30854
20
9.20876
30
5.8
0
VERTEX
10
9.31519
20
9.22649
30
5.8
0
VERTEX
10
9.32184
20
9.23315
30
5.8
0
VERTEX
10
9.32849
20
9.24867
30
5.8
0
VERTEX
10
9.33515
20
9.25754
30
5.8
0
VERTEX
10
9.33293
20
9.32849
30
5.8
0
VERTEX
10
9.33293
20
9.34623
30
5.8
0
VERTEX
10
9.33071
20
9.3551
30
5.8
0
VERTEX
10
9.31519
20
9.36841
30
5.8
0
VERTEX
10
9.30854
20
9.38393
30
5.8
0
VERTEX
10
9.29302
20
9.39723
30
5.8
0
VERTEX
10
9.28415
20
9.40388
30
5.8
0
VERTEX
10
9.27528
20
9.4061
30
5.8
0
VERTEX
10
9.26641
20
9.41275
30
5.8
0
VERTEX
10
9.24867
20
9.41719
30
5.8
0
VERTEX
10
9.18436
20
9.4571
30
5.8
0
VERTEX
10
9.18215
20
9.46154
30
5.8
0
VERTEX
10
9.17771
20
9.46154
30
5.8
0
VERTEX
10
9.17328
20
9.46597
30
5.8
0
VERTEX
10
9.16441
20
9.46819
30
5.8
0
VERTEX
10
9.15554
20
9.47484
30
5.8
0
VERTEX
10
9.14667
20
9.47706
30
5.8
0
VERTEX
10
9.13115
20
9.48814
30
5.8
0
VERTEX
10
9.09567
20
9.49258
30
5.8
0
VERTEX
10
9.07793
20
9.49701
30
5.8
0
VERTEX
10
9.06906
20
9.4948
30
5.8
0
VERTEX
10
9.06463
20
9.49036
30
5.8
0
VERTEX
10
9.04689
20
9.48593
30
5.8
0
VERTEX
10
9.02915
20
9.47706
30
5.8
0
VERTEX
10
9.02028
20
9.47262
30
5.8
0
VERTEX
10
8.9848
20
9.46597
30
5.8
0
VERTEX
10
8.96706
20
9.45932
30
5.8
0
VERTEX
10
8.96263
20
9.45488
30
5.8
0
VERTEX
10
8.95376
20
9.45488
30
5.8
0
VERTEX
10
8.94932
20
9.45045
30
5.8
0
VERTEX
10
8.94489
20
9.45045
30
5.8
0
VERTEX
10
8.93602
20
9.44158
30
5.8
0
VERTEX
10
8.93158
20
9.44158
30
5.8
0
VERTEX
10
8.89832
20
9.41719
30
5.8
0
VERTEX
10
8.89167
20
9.40832
30
5.8
0
VERTEX
10
8.87615
20
9.39723
30
5.8
0
VERTEX
10
8.87615
20
9.37949
30
5.8
0
VERTEX
10
8.87171
20
9.36175
30
5.8
0
VERTEX
10
8.86063
20
9.34401
30
5.8
0
VERTEX
10
8.85398
20
9.30854
30
5.8
0
VERTEX
10
8.85398
20
9.29967
30
5.8
0
VERTEX
10
8.85398
20
9.29523
30
5.8
0
SEQEND
0
POLYLINE
62
31
66
1
70
1
3
contour
0
VERTEX
10
8.2247
20
9.44903
30
5.8
0
VERTEX
10
8.22799
20
9.43586
30
5.8
0
VERTEX
10
8.22799
20
9.42928
30
5.8
0
VERTEX
10
8.27078
20
9.38649
30
5.8
0
VERTEX
10
8.29711
20
9.37004
30
5.8
0
VERTEX
10
8.31027
20
9.36675
30
5.8
0
VERTEX
10
8.32344
20
9.35687
30
5.8
0
VERTEX
10
8.33002
20
9.35687
30
5.8
0
VERTEX
10
8.34319
20
9.34371
30
5.8
0
VERTEX
10
8.35635
20
9.33713
30
5.8
0
VERTEX
10
8.36951
20
9.32396
30
5.8
0
VERTEX
10
8.3761
20
9.31409
30
5.8
0
VERTEX
10
8.38926
20
9.30092
30
5.8
0
VERTEX
10
8.39584
20
9.29434
30
5.8
0
VERTEX
10
8.39584
20
9.28776
30
5.8
0
VERTEX
10
8.40901
20
9.27459
30
5.8
0
VERTEX
10
8.45509
20
9.24168
30
5.8
0
VERTEX
10
8.46825
20
9.23181
30
5.8
0
VERTEX
10
8.47483
20
9.23181
30
5.8
0
VERTEX
10
8.49787
20
9.21535
30
5.8
0
VERTEX
10
8.51104
20
9.21206
30
5.8
0
VERTEX
10
8.51762
20
9.21206
30
5.8
0
VERTEX
10
8.52749
20
9.22193
30
5.8
0
VERTEX
10
8.54066
20
9.22523
30
5.8
0
VERTEX
10
8.55382
20
9.23839
30
5.8
0
VERTEX
10
8.55053
20
9.29105
30
5.8
0
VERTEX
10
8.54724
20
9.31738
30
5.8
0
VERTEX
10
8.53737
20
9.34371
30
5.8
0
VERTEX
10
8.53078
20
9.39637
30
5.8
0
VERTEX
10
8.51104
20
9.44903
30
5.8
0
VERTEX
10
8.47154
20
9.4951
30
5.8
0
VERTEX
10
8.46167
20
9.51814
30
5.8
0
VERTEX
10
8.4485
20
9.53131
30
5.8
0
VERTEX
10
8.4485
20
9.53789
30
5.8
0
VERTEX
10
8.43534
20
9.54447
30
5.8
0
VERTEX
10
8.42876
20
9.55105
30
5.8
0
VERTEX
10
8.43534
20
9.55435
30
5.8
0
VERTEX
10
8.38597
20
9.59055
30
5.8
0
VERTEX
10
8.33331
20
9.59055
30
5.8
0
VERTEX
10
8.30698
20
9.58726
30
5.8
0
VERTEX
10
8.28394
20
9.5708
30
5.8
0
VERTEX
10
8.27407
20
9.54447
30
5.8
0
VERTEX
10
8.25761
20
9.52143
30
5.8
0
VERTEX
10
8.25761
20
9.51485
30
5.8
0
VERTEX
10
8.23128
20
9.4951
30
5.8
0
VERTEX
10
8.2247
20
9.49181
30
5.8
0
VERTEX
10
8.2247
20
9.46548
30
5.8
0
VERTEX
10
8.2247
20
9.45232
30
5.8
0
SEQEND
0
POLYLINE
62
31
66
1
70
1
3
contour
0
VERTEX
10
7.69146
20
9.26332
30
5.8
0
VERTEX
10
7.70212
20
9.24201
30
5.8
0
VERTEX
10
7.71011
20
9.23135
30
5.8
0
VERTEX
10
7.71278
20
9.2207
30
5.8
0
VERTEX
10
7.72876
20
9.20471
30
5.8
0
VERTEX
10
7.73409
20
9.19406
30
5.8
0
VERTEX
10
7.74475
20
9.18606
30
5.8
0
VERTEX
10
7.75007
20
9.18606
30
5.8
0
VERTEX
10
7.77139
20
9.16741
30
5.8
0
VERTEX
10
7.81402
20
9.16209
30
5.8
0
VERTEX
10
7.83533
20
9.16209
30
5.8
0
VERTEX
10
7.85664
20
9.17008
30
5.8
0
VERTEX
10
7.8673
20
9.17274
30
5.8
0
VERTEX
10
7.87796
20
9.18074
30
5.8
0
VERTEX
10
7.87796
20
9.18606
30
5.8
0
VERTEX
10
7.88861
20
9.19406
30
5.8
0
VERTEX
10
7.89394
20
9.20471
30
5.8
0
VERTEX
10
7.89394
20
9.21537
30
5.8
0
VERTEX
10
7.90193
20
9.23668
30
5.8
0
VERTEX
10
7.90193
20
9.258
30
5.8
0
VERTEX
10
7.88861
20
9.30062
30
5.8
0
VERTEX
10
7.84599
20
9.30062
30
5.8
0
VERTEX
10
7.82467
20
9.30062
30
5.8
0
VERTEX
10
7.78205
20
9.31128
30
5.8
0
VERTEX
10
7.73942
20
9.31394
30
5.8
0
VERTEX
10
7.7181
20
9.30595
30
5.8
0
VERTEX
10
7.69679
20
9.29263
30
5.8
0
VERTEX
10
7.69146
20
9.27132
30
5.8
0
VERTEX
10
7.69146
20
9.26599
30
5.8
0
SEQEND
0
POLYLINE
62
224
66
1
70
1
3
mitochondrion
0
VERTEX
10
9.08646
20
9.34786
30
5.8
0
VERTEX
10
9.08785
20
9.3423
30
5.8
0
VERTEX
10
9.08785
20
9.33952
30
5.8
0
VERTEX
10
9.09063
20
9.33813
30
5.8
0
VERTEX
10
9.09063
20
9.33535
30
5.8
0
VERTEX
10
9.0948
20
9.32978
30
5.8
0
VERTEX
10
9.09897
20
9.31866
30
5.8
0
VERTEX
10
9.10036
20
9.3131
30
5.8
0
VERTEX
10
9.10314
20
9.31032
30
5.8
0
VERTEX
10
9.10314
20
9.30754
30
5.8
0
VERTEX
10
9.10871
20
9.30198
30
5.8
0
VERTEX
10
9.1101
20
9.29641
30
5.8
0
VERTEX
10
9.11427
20
9.29085
30
5.8
0
VERTEX
10
9.11566
20
9.28529
30
5.8
0
VERTEX
10
9.11983
20
9.27973
30
5.8
0
VERTEX
10
9.12678
20
9.25887
30
5.8
0
VERTEX
10
9.13651
20
9.25053
30
5.8
0
VERTEX
10
9.1393
20
9.25053
30
5.8
0
VERTEX
10
9.14486
20
9.24497
30
5.8
0
VERTEX
10
9.15598
20
9.23802
30
5.8
0
VERTEX
10
9.16154
20
9.23385
30
5.8
0
VERTEX
10
9.16432
20
9.23385
30
5.8
0
VERTEX
10
9.1671
20
9.23106
30
5.8
0
VERTEX
10
9.18935
20
9.23106
30
5.8
0
VERTEX
10
9.20047
20
9.23245
30
5.8
0
VERTEX
10
9.2116
20
9.23663
30
5.8
0
VERTEX
10
9.21716
20
9.23941
30
5.8
0
VERTEX
10
9.22272
20
9.24497
30
5.8
0
VERTEX
10
9.22828
20
9.24775
30
5.8
0
VERTEX
10
9.24497
20
9.27
30
5.8
0
VERTEX
10
9.24914
20
9.27278
30
5.8
0
VERTEX
10
9.25609
20
9.2839
30
5.8
0
VERTEX
10
9.26026
20
9.30615
30
5.8
0
VERTEX
10
9.26026
20
9.31727
30
5.8
0
VERTEX
10
9.25609
20
9.32839
30
5.8
0
VERTEX
10
9.25609
20
9.33118
30
5.8
0
VERTEX
10
9.23941
20
9.34925
30
5.8
0
VERTEX
10
9.23802
20
9.35481
30
5.8
0
VERTEX
10
9.22967
20
9.36594
30
5.8
0
VERTEX
10
9.2116
20
9.38123
30
5.8
0
VERTEX
10
9.20187
20
9.39235
30
5.8
0
VERTEX
10
9.19908
20
9.39792
30
5.8
0
VERTEX
10
9.18796
20
9.40487
30
5.8
0
VERTEX
10
9.1824
20
9.40626
30
5.8
0
VERTEX
10
9.18101
20
9.41182
30
5.8
0
VERTEX
10
9.15876
20
9.4146
30
5.8
0
VERTEX
10
9.13651
20
9.4146
30
5.8
0
VERTEX
10
9.12678
20
9.41043
30
5.8
0
VERTEX
10
9.12122
20
9.40904
30
5.8
0
VERTEX
10
9.11566
20
9.40487
30
5.8
0
VERTEX
10
9.1101
20
9.40348
30
5.8
0
VERTEX
10
9.10454
20
9.39792
30
5.8
0
VERTEX
10
9.09897
20
9.39653
30
5.8
0
VERTEX
10
9.09341
20
9.39235
30
5.8
0
VERTEX
10
9.08785
20
9.3854
30
5.8
0
VERTEX
10
9.08646
20
9.36316
30
5.8
0
VERTEX
10
9.08646
20
9.35203
30
5.8
0
VERTEX
10
9.08646
20
9.34925
30
5.8
0
SEQEND
0
POLYLINE
62
227
66
1
70
1
3
endoplasmic_reticulum
0
VERTEX
10
8.97981
20
9.28911
30
5.8
0
VERTEX
10
8.9816
20
9.28194
30
5.8
0
VERTEX
10
8.9825
20
9.27836
30
5.8
0
VERTEX
10
8.98877
20
9.27298
30
5.8
0
VERTEX
10
8.99146
20
9.27029
30
5.8
0
VERTEX
10
8.99505
20
9.26939
30
5.8
0
VERTEX
10
8.99684
20
9.26939
30
5.8
0
VERTEX
10
9.00222
20
9.26401
30
5.8
0
VERTEX
10
9.00401
20
9.26222
30
5.8
0
VERTEX
10
9.00491
20
9.25505
30
5.8
0
VERTEX
10
9.0076
20
9.24787
30
5.8
0
VERTEX
10
9.0076
20
9.24608
30
5.8
0
VERTEX
10
9.02194
20
9.23711
30
5.8
0
VERTEX
10
9.03629
20
9.23622
30
5.8
0
VERTEX
10
9.05063
20
9.23711
30
5.8
0
VERTEX
10
9.05422
20
9.23711
30
5.8
0
VERTEX
10
9.06049
20
9.24339
30
5.8
0
VERTEX
10
9.06229
20
9.25056
30
5.8
0
VERTEX
10
9.06049
20
9.25415
30
5.8
0
VERTEX
10
9.0596
20
9.26849
30
5.8
0
VERTEX
10
9.05153
20
9.27387
30
5.8
0
VERTEX
10
9.04974
20
9.27567
30
5.8
0
VERTEX
10
9.04256
20
9.27836
30
5.8
0
VERTEX
10
9.03629
20
9.28284
30
5.8
0
VERTEX
10
9.0345
20
9.28373
30
5.8
0
VERTEX
10
9.0336
20
9.29091
30
5.8
0
VERTEX
10
9.03629
20
9.2936
30
5.8
0
VERTEX
10
9.03629
20
9.30794
30
5.8
0
VERTEX
10
9.03181
20
9.31422
30
5.8
0
VERTEX
10
9.03001
20
9.31422
30
5.8
0
VERTEX
10
9.03001
20
9.31601
30
5.8
0
VERTEX
10
9.02822
20
9.3178
30
5.8
0
VERTEX
10
9.01387
20
9.3196
30
5.8
0
VERTEX
10
8.99953
20
9.3178
30
5.8
0
VERTEX
10
8.99236
20
9.31601
30
5.8
0
VERTEX
10
8.98967
20
9.31242
30
5.8
0
VERTEX
10
8.98787
20
9.31153
30
5.8
0
VERTEX
10
8.98787
20
9.30973
30
5.8
0
VERTEX
10
8.98429
20
9.30615
30
5.8
0
VERTEX
10
8.9825
20
9.30256
30
5.8
0
VERTEX
10
8.9825
20
9.30077
30
5.8
0
VERTEX
10
8.97981
20
9.29718
30
5.8
0
VERTEX
10
8.97981
20
9.29001
30
5.8
0
SEQEND
0
POLYLINE
62
227
66
1
70
1
3
endoplasmic_reticulum
0
VERTEX
10
9.00939
20
9.39132
30
5.8
0
VERTEX
10
9.01298
20
9.38863
30
5.8
0
VERTEX
10
9.01298
20
9.38684
30
5.8
0
VERTEX
10
9.01925
20
9.38056
30
5.8
0
VERTEX
10
9.0336
20
9.37787
30
5.8
0
VERTEX
10
9.04794
20
9.37787
30
5.8
0
VERTEX
10
9.04974
20
9.38056
30
5.8
0
VERTEX
10
9.05332
20
9.38056
30
5.8
0
VERTEX
10
9.05601
20
9.38773
30
5.8
0
VERTEX
10
9.0587
20
9.41642
30
5.8
0
VERTEX
10
9.0587
20
9.41822
30
5.8
0
VERTEX
10
9.04436
20
9.42718
30
5.8
0
VERTEX
10
9.04256
20
9.42808
30
5.8
0
VERTEX
10
9.03898
20
9.42629
30
5.8
0
VERTEX
10
9.03181
20
9.42718
30
5.8
0
VERTEX
10
9.02822
20
9.42629
30
5.8
0
VERTEX
10
9.02284
20
9.4218
30
5.8
0
VERTEX
10
9.02015
20
9.41911
30
5.8
0
VERTEX
10
9.01836
20
9.41194
30
5.8
0
VERTEX
10
9.01477
20
9.40925
30
5.8
0
VERTEX
10
9.01298
20
9.40567
30
5.8
0
VERTEX
10
9.00939
20
9.40208
30
5.8
0
VERTEX
10
9.00939
20
9.39491
30
5.8
0
VERTEX
10
9.00939
20
9.39222
30
5.8
0
SEQEND
0
ENDSEC
0
EOF
