0
SECTION
2
ENTITIES
0
POLYLINE
62
31
66
1
70
1
3
contour
0
VERTEX
10
9.78749
20
8.21759
30
3.56
0
VERTEX
10
9.79414
20
8.18211
30
3.56
0
VERTEX
10
9.79414
20
8.14663
30
3.56
0
VERTEX
10
9.79636
20
8.12889
30
3.56
0
VERTEX
10
9.80301
20
8.11337
30
3.56
0
VERTEX
10
9.80523
20
8.09563
30
3.56
0
VERTEX
10
9.80523
20
8.0912
30
3.56
0
VERTEX
10
9.81188
20
8.08233
30
3.56
0
VERTEX
10
9.81853
20
8.06459
30
3.56
0
VERTEX
10
9.83627
20
8.0535
30
3.56
0
VERTEX
10
9.85401
20
8.04685
30
3.56
0
VERTEX
10
9.87175
20
8.03133
30
3.56
0
VERTEX
10
9.90723
20
8.01359
30
3.56
0
VERTEX
10
9.92497
20
8.0025
30
3.56
0
VERTEX
10
9.9294
20
8.0025
30
3.56
0
VERTEX
10
9.94714
20
7.9892
30
3.56
0
VERTEX
10
9.95158
20
7.98476
30
3.56
0
VERTEX
10
9.96044
20
7.98255
30
3.56
0
VERTEX
10
9.97818
20
7.96924
30
3.56
0
VERTEX
10
9.98705
20
7.96481
30
3.56
0
VERTEX
10
9.99149
20
7.96481
30
3.56
0
VERTEX
10
9.99592
20
7.96037
30
3.56
0
VERTEX
10
10.0004
20
7.96037
30
3.56
0
VERTEX
10
10.0181
20
7.94929
30
3.56
0
VERTEX
10
10.027
20
7.94263
30
3.56
0
VERTEX
10
10.0624
20
7.92933
30
3.56
0
VERTEX
10
10.0669
20
7.92933
30
3.56
0
VERTEX
10
10.0713
20
7.9249
30
3.56
0
VERTEX
10
10.1068
20
7.92046
30
3.56
0
VERTEX
10
10.1423
20
7.92268
30
3.56
0
VERTEX
10
10.16
20
7.92933
30
3.56
0
VERTEX
10
10.1667
20
7.9382
30
3.56
0
VERTEX
10
10.1844
20
7.94263
30
3.56
0
VERTEX
10
10.2177
20
7.96703
30
3.56
0
VERTEX
10
10.2265
20
7.96703
30
3.56
0
VERTEX
10
10.231
20
7.97146
30
3.56
0
VERTEX
10
10.2354
20
7.97146
30
3.56
0
VERTEX
10
10.2421
20
7.98033
30
3.56
0
VERTEX
10
10.2443
20
7.98476
30
3.56
0
VERTEX
10
10.2531
20
7.98698
30
3.56
0
VERTEX
10
10.2842
20
8.01137
30
3.56
0
VERTEX
10
10.3041
20
8.04242
30
3.56
0
VERTEX
10
10.3086
20
8.07789
30
3.56
0
VERTEX
10
10.3086
20
8.11337
30
3.56
0
VERTEX
10
10.3064
20
8.13111
30
3.56
0
VERTEX
10
10.3064
20
8.13998
30
3.56
0
VERTEX
10
10.2864
20
8.17546
30
3.56
0
VERTEX
10
10.2709
20
8.1932
30
3.56
0
VERTEX
10
10.2642
20
8.20207
30
3.56
0
VERTEX
10
10.2598
20
8.2065
30
3.56
0
VERTEX
10
10.2554
20
8.24198
30
3.56
0
VERTEX
10
10.2531
20
8.25972
30
3.56
0
VERTEX
10
10.2465
20
8.27746
30
3.56
0
VERTEX
10
10.2443
20
8.2952
30
3.56
0
VERTEX
10
10.2443
20
8.30407
30
3.56
0
VERTEX
10
10.2465
20
8.3085
30
3.56
0
VERTEX
10
10.2443
20
8.32624
30
3.56
0
VERTEX
10
10.2376
20
8.33289
30
3.56
0
VERTEX
10
10.2332
20
8.35063
30
3.56
0
VERTEX
10
10.2265
20
8.35728
30
3.56
0
VERTEX
10
10.2221
20
8.37502
30
3.56
0
VERTEX
10
10.2088
20
8.39054
30
3.56
0
VERTEX
10
10.2044
20
8.39941
30
3.56
0
VERTEX
10
10.1955
20
8.40607
30
3.56
0
VERTEX
10
10.1911
20
8.40607
30
3.56
0
VERTEX
10
10.1777
20
8.4238
30
3.56
0
VERTEX
10
10.1423
20
8.4482
30
3.56
0
VERTEX
10
10.1334
20
8.45263
30
3.56
0
VERTEX
10
10.129
20
8.45263
30
3.56
0
VERTEX
10
10.1201
20
8.45928
30
3.56
0
VERTEX
10
10.0846
20
8.4615
30
3.56
0
VERTEX
10
10.0137
20
8.44376
30
3.56
0
VERTEX
10
9.97818
20
8.43711
30
3.56
0
VERTEX
10
9.96044
20
8.43711
30
3.56
0
VERTEX
10
9.95158
20
8.43711
30
3.56
0
VERTEX
10
9.93384
20
8.43046
30
3.56
0
VERTEX
10
9.9161
20
8.42824
30
3.56
0
VERTEX
10
9.89836
20
8.41715
30
3.56
0
VERTEX
10
9.88062
20
8.41494
30
3.56
0
VERTEX
10
9.87175
20
8.41272
30
3.56
0
VERTEX
10
9.86953
20
8.4105
30
3.56
0
VERTEX
10
9.86732
20
8.41272
30
3.56
0
VERTEX
10
9.85623
20
8.39498
30
3.56
0
VERTEX
10
9.84958
20
8.37724
30
3.56
0
VERTEX
10
9.83627
20
8.3595
30
3.56
0
VERTEX
10
9.82962
20
8.35063
30
3.56
0
VERTEX
10
9.82519
20
8.33289
30
3.56
0
VERTEX
10
9.81188
20
8.31737
30
3.56
0
VERTEX
10
9.79414
20
8.28189
30
3.56
0
VERTEX
10
9.78749
20
8.24641
30
3.56
0
VERTEX
10
9.78749
20
8.22868
30
3.56
0
VERTEX
10
9.78749
20
8.21981
30
3.56
0
SEQEND
0
POLYLINE
62
31
66
1
70
1
3
contour
0
VERTEX
10
10.2349
20
8.73594
30
3.56
0
VERTEX
10
10.2431
20
8.72508
30
3.56
0
VERTEX
10
10.2431
20
8.71422
30
3.56
0
VERTEX
10
10.2757
20
8.67348
30
3.56
0
VERTEX
10
10.2811
20
8.66262
30
3.56
0
VERTEX
10
10.2865
20
8.66262
30
3.56
0
VERTEX
10
10.3055
20
8.64361
30
3.56
0
VERTEX
10
10.3164
20
8.63546
30
3.56
0
VERTEX
10
10.3218
20
8.63546
30
3.56
0
VERTEX
10
10.3327
20
8.62732
30
3.56
0
VERTEX
10
10.3761
20
8.61646
30
3.56
0
VERTEX
10
10.463
20
8.61646
30
3.56
0
VERTEX
10
10.5065
20
8.61917
30
3.56
0
VERTEX
10
10.5499
20
8.63003
30
3.56
0
VERTEX
10
10.5717
20
8.63003
30
3.56
0
VERTEX
10
10.5825
20
8.63546
30
3.56
0
VERTEX
10
10.5879
20
8.63546
30
3.56
0
VERTEX
10
10.5934
20
8.6409
30
3.56
0
VERTEX
10
10.6042
20
8.64361
30
3.56
0
VERTEX
10
10.6097
20
8.64904
30
3.56
0
VERTEX
10
10.6205
20
8.65176
30
3.56
0
VERTEX
10
10.6314
20
8.6599
30
3.56
0
VERTEX
10
10.6531
20
8.66262
30
3.56
0
VERTEX
10
10.664
20
8.67077
30
3.56
0
VERTEX
10
10.6857
20
8.67891
30
3.56
0
VERTEX
10
10.7047
20
8.69521
30
3.56
0
VERTEX
10
10.7183
20
8.71422
30
3.56
0
VERTEX
10
10.7536
20
8.74952
30
3.56
0
VERTEX
10
10.7617
20
8.76038
30
3.56
0
VERTEX
10
10.7672
20
8.76581
30
3.56
0
VERTEX
10
10.7726
20
8.80926
30
3.56
0
VERTEX
10
10.7699
20
8.83098
30
3.56
0
VERTEX
10
10.7617
20
8.85271
30
3.56
0
VERTEX
10
10.7427
20
8.869
30
3.56
0
VERTEX
10
10.6558
20
8.869
30
3.56
0
VERTEX
10
10.6124
20
8.869
30
3.56
0
VERTEX
10
10.5255
20
8.8853
30
3.56
0
VERTEX
10
10.5038
20
8.89887
30
3.56
0
VERTEX
10
10.4169
20
8.90702
30
3.56
0
VERTEX
10
10.3734
20
8.90974
30
3.56
0
VERTEX
10
10.3517
20
8.91517
30
3.56
0
VERTEX
10
10.3435
20
8.92331
30
3.56
0
VERTEX
10
10.3001
20
8.92331
30
3.56
0
VERTEX
10
10.2892
20
8.9206
30
3.56
0
VERTEX
10
10.2838
20
8.91517
30
3.56
0
VERTEX
10
10.2784
20
8.91517
30
3.56
0
VERTEX
10
10.2675
20
8.9043
30
3.56
0
VERTEX
10
10.2539
20
8.8853
30
3.56
0
VERTEX
10
10.2512
20
8.87443
30
3.56
0
VERTEX
10
10.2458
20
8.869
30
3.56
0
VERTEX
10
10.2404
20
8.84728
30
3.56
0
VERTEX
10
10.2349
20
8.84185
30
3.56
0
VERTEX
10
10.2349
20
8.75495
30
3.56
0
VERTEX
10
10.2349
20
8.74409
30
3.56
0
VERTEX
10
10.2349
20
8.73866
30
3.56
0
SEQEND
0
POLYLINE
62
31
66
1
70
1
3
contour
0
VERTEX
10
10.6754
20
7.83058
30
3.56
0
VERTEX
10
10.6884
20
7.80452
30
3.56
0
VERTEX
10
10.6917
20
7.79148
30
3.56
0
VERTEX
10
10.7341
20
7.74912
30
3.56
0
VERTEX
10
10.7438
20
7.73934
30
3.56
0
VERTEX
10
10.7438
20
7.73282
30
3.56
0
VERTEX
10
10.7862
20
7.6872
30
3.56
0
VERTEX
10
10.8123
20
7.67743
30
3.56
0
VERTEX
10
10.8383
20
7.67417
30
3.56
0
VERTEX
10
10.8905
20
7.67743
30
3.56
0
VERTEX
10
10.9035
20
7.68069
30
3.56
0
VERTEX
10
10.9263
20
7.70024
30
3.56
0
VERTEX
10
10.9524
20
7.71001
30
3.56
0
VERTEX
10
10.9654
20
7.71979
30
3.56
0
VERTEX
10
10.9719
20
7.72631
30
3.56
0
VERTEX
10
10.9817
20
7.77845
30
3.56
0
VERTEX
10
10.985
20
7.83058
30
3.56
0
VERTEX
10
10.9882
20
7.85665
30
3.56
0
VERTEX
10
10.9948
20
7.86969
30
3.56
0
VERTEX
10
10.9948
20
7.92183
30
3.56
0
VERTEX
10
10.9915
20
7.9479
30
3.56
0
VERTEX
10
10.9622
20
7.99678
30
3.56
0
VERTEX
10
10.9491
20
8.00329
30
3.56
0
VERTEX
10
10.897
20
8.00329
30
3.56
0
VERTEX
10
10.8905
20
8.00329
30
3.56
0
VERTEX
10
10.8774
20
8.01633
30
3.56
0
VERTEX
10
10.7732
20
7.99678
30
3.56
0
VERTEX
10
10.7471
20
7.987
30
3.56
0
VERTEX
10
10.7275
20
7.96745
30
3.56
0
VERTEX
10
10.7178
20
7.94138
30
3.56
0
VERTEX
10
10.7145
20
7.92834
30
3.56
0
VERTEX
10
10.7015
20
7.91857
30
3.56
0
VERTEX
10
10.695
20
7.8925
30
3.56
0
VERTEX
10
10.6884
20
7.87946
30
3.56
0
VERTEX
10
10.6884
20
7.87295
30
3.56
0
VERTEX
10
10.6787
20
7.85991
30
3.56
0
VERTEX
10
10.6754
20
7.83384
30
3.56
0
SEQEND
0
POLYLINE
62
224
66
1
70
1
3
mitochondrion
0
VERTEX
10
9.95905
20
8.15668
30
3.56
0
VERTEX
10
9.9716
20
8.12531
30
3.56
0
VERTEX
10
9.97578
20
8.11695
30
3.56
0
VERTEX
10
9.98414
20
8.10859
30
3.56
0
VERTEX
10
9.9946
20
8.09186
30
3.56
0
VERTEX
10
10.0009
20
8.0835
30
3.56
0
VERTEX
10
10.003
20
8.07513
30
3.56
0
VERTEX
10
10.0176
20
8.0584
30
3.56
0
VERTEX
10
10.0322
20
8.04586
30
3.56
0
VERTEX
10
10.0406
20
8.04168
30
3.56
0
VERTEX
10
10.0448
20
8.04168
30
3.56
0
VERTEX
10
10.0511
20
8.0354
30
3.56
0
VERTEX
10
10.0552
20
8.0354
30
3.56
0
VERTEX
10
10.0699
20
8.02077
30
3.56
0
VERTEX
10
10.0741
20
8.01659
30
3.56
0
VERTEX
10
10.0824
20
8.01449
30
3.56
0
VERTEX
10
10.0866
20
8.01031
30
3.56
0
VERTEX
10
10.1033
20
8.00613
30
3.56
0
VERTEX
10
10.1117
20
8.00195
30
3.56
0
VERTEX
10
10.1451
20
7.99986
30
3.56
0
VERTEX
10
10.1786
20
8.00195
30
3.56
0
VERTEX
10
10.1953
20
8.01031
30
3.56
0
VERTEX
10
10.2016
20
8.01868
30
3.56
0
VERTEX
10
10.2058
20
8.02286
30
3.56
0
VERTEX
10
10.2121
20
8.0375
30
3.56
0
VERTEX
10
10.2204
20
8.04168
30
3.56
0
VERTEX
10
10.2351
20
8.10859
30
3.56
0
VERTEX
10
10.233
20
8.14204
30
3.56
0
VERTEX
10
10.2309
20
8.15877
30
3.56
0
VERTEX
10
10.2309
20
8.16713
30
3.56
0
VERTEX
10
10.2267
20
8.1755
30
3.56
0
VERTEX
10
10.2267
20
8.19222
30
3.56
0
VERTEX
10
10.2225
20
8.20059
30
3.56
0
VERTEX
10
10.2225
20
8.20895
30
3.56
0
VERTEX
10
10.2183
20
8.21731
30
3.56
0
VERTEX
10
10.2183
20
8.23404
30
3.56
0
VERTEX
10
10.2121
20
8.24241
30
3.56
0
VERTEX
10
10.2037
20
8.2445
30
3.56
0
VERTEX
10
10.1744
20
8.27168
30
3.56
0
VERTEX
10
10.1661
20
8.27168
30
3.56
0
VERTEX
10
10.1347
20
8.2905
30
3.56
0
VERTEX
10
10.118
20
8.29677
30
3.56
0
VERTEX
10
10.1012
20
8.29468
30
3.56
0
VERTEX
10
10.0929
20
8.29468
30
3.56
0
VERTEX
10
10.0887
20
8.29886
30
3.56
0
VERTEX
10
10.072
20
8.30095
30
3.56
0
VERTEX
10
10.0678
20
8.30513
30
3.56
0
VERTEX
10
10.0636
20
8.29677
30
3.56
0
VERTEX
10
10.0552
20
8.29468
30
3.56
0
VERTEX
10
10.0406
20
8.28213
30
3.56
0
VERTEX
10
10.0385
20
8.27795
30
3.56
0
VERTEX
10
10.0301
20
8.28004
30
3.56
0
VERTEX
10
10.0218
20
8.28631
30
3.56
0
VERTEX
10
10.0176
20
8.2905
30
3.56
0
VERTEX
10
10.0009
20
8.28841
30
3.56
0
VERTEX
10
9.98623
20
8.27586
30
3.56
0
VERTEX
10
9.97578
20
8.25913
30
3.56
0
VERTEX
10
9.9695
20
8.25077
30
3.56
0
VERTEX
10
9.96741
20
8.21731
30
3.56
0
VERTEX
10
9.96532
20
8.20059
30
3.56
0
VERTEX
10
9.95905
20
8.18386
30
3.56
0
VERTEX
10
9.95905
20
8.16713
30
3.56
0
VERTEX
10
9.95905
20
8.15877
30
3.56
0
SEQEND
0
POLYLINE
62
227
66
1
70
1
3
endoplasmic_reticulum
0
VERTEX
10
10.1312
20
8.29541
30
3.56
0
VERTEX
10
10.1373
20
8.29084
30
3.56
0
VERTEX
10
10.1617
20
8.28932
30
3.56
0
VERTEX
10
10.1739
20
8.29084
30
3.56
0
VERTEX
10
10.18
20
8.29389
30
3.56
0
VERTEX
10
10.1861
20
8.30151
30
3.56
0
VERTEX
10
10.1845
20
8.32588
30
3.56
0
VERTEX
10
10.1845
20
8.32893
30
3.56
0
VERTEX
10
10.1815
20
8.33197
30
3.56
0
VERTEX
10
10.1571
20
8.33197
30
3.56
0
VERTEX
10
10.1465
20
8.3274
30
3.56
0
VERTEX
10
10.1343
20
8.31979
30
3.56
0
VERTEX
10
10.1343
20
8.31369
30
3.56
0
VERTEX
10
10.1312
20
8.3076
30
3.56
0
VERTEX
10
10.1312
20
8.29693
30
3.56
0
SEQEND
0
POLYLINE
62
227
66
1
70
1
3
endoplasmic_reticulum
0
VERTEX
10
9.93316
20
8.29236
30
3.56
0
VERTEX
10
9.93926
20
8.28779
30
3.56
0
VERTEX
10
9.95145
20
8.28627
30
3.56
0
VERTEX
10
9.96363
20
8.29236
30
3.56
0
VERTEX
10
9.9682
20
8.29846
30
3.56
0
VERTEX
10
9.96973
20
8.31065
30
3.56
0
VERTEX
10
9.96668
20
8.32283
30
3.56
0
VERTEX
10
9.96363
20
8.32588
30
3.56
0
VERTEX
10
9.95145
20
8.32588
30
3.56
0
VERTEX
10
9.94535
20
8.32588
30
3.56
0
VERTEX
10
9.93926
20
8.32283
30
3.56
0
VERTEX
10
9.93621
20
8.32131
30
3.56
0
VERTEX
10
9.93316
20
8.30912
30
3.56
0
VERTEX
10
9.93316
20
8.29693
30
3.56
0
VERTEX
10
9.93316
20
8.29389
30
3.56
0
SEQEND
0
POLYLINE
62
236
66
1
70
1
3
postsynaptic_density
0
VERTEX
10
10.3473
20
8.89541
30
3.56
0
VERTEX
10
10.3539
20
8.84285
30
3.56
0
VERTEX
10
10.3654
20
8.83135
30
3.56
0
VERTEX
10
10.372
20
8.82807
30
3.56
0
VERTEX
10
10.3752
20
8.8215
30
3.56
0
VERTEX
10
10.4015
20
8.80508
30
3.56
0
VERTEX
10
10.4278
20
8.79851
30
3.56
0
VERTEX
10
10.4344
20
8.79686
30
3.56
0
VERTEX
10
10.4377
20
8.79686
30
3.56
0
VERTEX
10
10.4409
20
8.79358
30
3.56
0
VERTEX
10
10.4475
20
8.79358
30
3.56
0
VERTEX
10
10.4541
20
8.79029
30
3.56
0
VERTEX
10
10.4804
20
8.78701
30
3.56
0
VERTEX
10
10.4869
20
8.78701
30
3.56
0
VERTEX
10
10.4935
20
8.78372
30
3.56
0
VERTEX
10
10.5001
20
8.78372
30
3.56
0
VERTEX
10
10.5263
20
8.77223
30
3.56
0
VERTEX
10
10.5526
20
8.7673
30
3.56
0
VERTEX
10
10.5592
20
8.76401
30
3.56
0
VERTEX
10
10.6118
20
8.76401
30
3.56
0
VERTEX
10
10.638
20
8.76566
30
3.56
0
VERTEX
10
10.6413
20
8.7673
30
3.56
0
VERTEX
10
10.6413
20
8.77058
30
3.56
0
VERTEX
10
10.6594
20
8.79522
30
3.56
0
VERTEX
10
10.6676
20
8.80672
30
3.56
0
VERTEX
10
10.6725
20
8.81329
30
3.56
0
VERTEX
10
10.6758
20
8.81493
30
3.56
0
VERTEX
10
10.6758
20
8.81821
30
3.56
0
VERTEX
10
10.6857
20
8.83135
30
3.56
0
VERTEX
10
10.6873
20
8.84449
30
3.56
0
VERTEX
10
10.6889
20
8.85106
30
3.56
0
VERTEX
10
10.6939
20
8.85763
30
3.56
0
VERTEX
10
10.7037
20
8.91019
30
3.56
0
VERTEX
10
10.7087
20
8.92333
30
3.56
0
VERTEX
10
10.7087
20
8.9299
30
3.56
0
VERTEX
10
10.7136
20
8.94304
30
3.56
0
VERTEX
10
10.7136
20
8.94961
30
3.56
0
VERTEX
10
10.7185
20
8.95618
30
3.56
0
VERTEX
10
10.7202
20
8.98246
30
3.56
0
VERTEX
10
10.7185
20
8.98903
30
3.56
0
VERTEX
10
10.6134
20
9.04487
30
3.56
0
VERTEX
10
10.5608
20
9.07115
30
3.56
0
VERTEX
10
10.5346
20
9.08593
30
3.56
0
VERTEX
10
10.5083
20
9.08593
30
3.56
0
VERTEX
10
10.4951
20
9.08757
30
3.56
0
VERTEX
10
10.4689
20
9.08593
30
3.56
0
VERTEX
10
10.4623
20
9.081
30
3.56
0
VERTEX
10
10.4557
20
9.07936
30
3.56
0
VERTEX
10
10.4524
20
9.07936
30
3.56
0
VERTEX
10
10.4491
20
9.07608
30
3.56
0
VERTEX
10
10.4459
20
9.07608
30
3.56
0
VERTEX
10
10.4426
20
9.07279
30
3.56
0
VERTEX
10
10.4393
20
9.07279
30
3.56
0
VERTEX
10
10.4147
20
9.05308
30
3.56
0
VERTEX
10
10.4114
20
9.05308
30
3.56
0
VERTEX
10
10.4081
20
9.0498
30
3.56
0
VERTEX
10
10.3949
20
9.04487
30
3.56
0
VERTEX
10
10.3835
20
9.03502
30
3.56
0
VERTEX
10
10.3835
20
9.03173
30
3.56
0
VERTEX
10
10.367
20
9.00545
30
3.56
0
VERTEX
10
10.3605
20
8.99231
30
3.56
0
VERTEX
10
10.3588
20
8.98574
30
3.56
0
VERTEX
10
10.3539
20
8.97917
30
3.56
0
VERTEX
10
10.3506
20
8.95289
30
3.56
0
VERTEX
10
10.3506
20
8.92662
30
3.56
0
VERTEX
10
10.3473
20
8.90034
30
3.56
0
VERTEX
10
10.3473
20
8.89705
30
3.56
0
SEQEND
0
ENDSEC
0
EOF
