0
SECTION
2
ENTITIES
0
POLYLINE
62
31
66
1
70
1
3
contour
0
VERTEX
10
7.9382
20
7.73198
30
4
0
VERTEX
10
7.94042
20
7.72311
30
4
0
VERTEX
10
7.94929
20
7.7209
30
4
0
VERTEX
10
7.95816
20
7.72311
30
4
0
VERTEX
10
7.96481
20
7.72977
30
4
0
VERTEX
10
7.97368
20
7.72977
30
4
0
VERTEX
10
7.99142
20
7.74085
30
4
0
VERTEX
10
8.00029
20
7.74307
30
4
0
VERTEX
10
8.03355
20
7.76746
30
4
0
VERTEX
10
8.04242
20
7.76968
30
4
0
VERTEX
10
8.05129
20
7.77633
30
4
0
VERTEX
10
8.06016
20
7.77855
30
4
0
VERTEX
10
8.09342
20
7.79851
30
4
0
VERTEX
10
8.09785
20
7.79851
30
4
0
VERTEX
10
8.10007
20
7.80294
30
4
0
VERTEX
10
8.10894
20
7.80516
30
4
0
VERTEX
10
8.11559
20
7.81403
30
4
0
VERTEX
10
8.12446
20
7.81624
30
4
0
VERTEX
10
8.13333
20
7.8229
30
4
0
VERTEX
10
8.13776
20
7.82733
30
4
0
VERTEX
10
8.1422
20
7.84507
30
4
0
VERTEX
10
8.1422
20
7.86281
30
4
0
VERTEX
10
8.13333
20
7.88055
30
4
0
VERTEX
10
8.12002
20
7.89607
30
4
0
VERTEX
10
8.10229
20
7.90272
30
4
0
VERTEX
10
8.09785
20
7.90716
30
4
0
VERTEX
10
8.08898
20
7.90937
30
4
0
VERTEX
10
8.08233
20
7.91603
30
4
0
VERTEX
10
8.06459
20
7.92268
30
4
0
VERTEX
10
8.05794
20
7.92933
30
4
0
VERTEX
10
8.0402
20
7.93376
30
4
0
VERTEX
10
8.02246
20
7.93155
30
4
0
VERTEX
10
8.01137
20
7.92268
30
4
0
VERTEX
10
8.00694
20
7.92268
30
4
0
VERTEX
10
7.97368
20
7.89385
30
4
0
VERTEX
10
7.96259
20
7.87833
30
4
0
VERTEX
10
7.95816
20
7.87611
30
4
0
VERTEX
10
7.95594
20
7.86724
30
4
0
VERTEX
10
7.94929
20
7.85837
30
4
0
VERTEX
10
7.94707
20
7.8229
30
4
0
VERTEX
10
7.94042
20
7.80516
30
4
0
VERTEX
10
7.9382
20
7.7342
30
4
0
SEQEND
0
POLYLINE
62
31
66
1
70
1
3
contour
0
VERTEX
10
9.26197
20
8.41272
30
4
0
VERTEX
10
9.27084
20
8.37724
30
4
0
VERTEX
10
9.27306
20
8.36837
30
4
0
VERTEX
10
9.30188
20
8.33954
30
4
0
VERTEX
10
9.36841
20
8.29298
30
4
0
VERTEX
10
9.38615
20
8.27524
30
4
0
VERTEX
10
9.39501
20
8.27081
30
4
0
VERTEX
10
9.41275
20
8.25528
30
4
0
VERTEX
10
9.41719
20
8.25085
30
4
0
VERTEX
10
9.43493
20
8.24641
30
4
0
VERTEX
10
9.45267
20
8.23311
30
4
0
VERTEX
10
9.46154
20
8.22868
30
4
0
VERTEX
10
9.46597
20
8.22424
30
4
0
VERTEX
10
9.47041
20
8.22424
30
4
0
VERTEX
10
9.47927
20
8.21759
30
4
0
VERTEX
10
9.49701
20
8.21315
30
4
0
VERTEX
10
9.51475
20
8.20428
30
4
0
VERTEX
10
9.53249
20
8.19985
30
4
0
VERTEX
10
9.54136
20
8.19985
30
4
0
VERTEX
10
9.55023
20
8.1932
30
4
0
VERTEX
10
9.5591
20
8.1932
30
4
0
VERTEX
10
9.57684
20
8.18433
30
4
0
VERTEX
10
9.59458
20
8.17989
30
4
0
VERTEX
10
9.60345
20
8.17546
30
4
0
VERTEX
10
9.61232
20
8.17546
30
4
0
VERTEX
10
9.61897
20
8.16659
30
4
0
VERTEX
10
9.63671
20
8.15994
30
4
0
VERTEX
10
9.65445
20
8.14885
30
4
0
VERTEX
10
9.66332
20
8.1422
30
4
0
VERTEX
10
9.68106
20
8.13776
30
4
0
VERTEX
10
9.68549
20
8.13333
30
4
0
VERTEX
10
9.70323
20
8.12668
30
4
0
VERTEX
10
9.7121
20
8.12002
30
4
0
VERTEX
10
9.71653
20
8.12002
30
4
0
VERTEX
10
9.75201
20
8.10007
30
4
0
VERTEX
10
9.75423
20
8.09563
30
4
0
VERTEX
10
9.77197
20
8.0912
30
4
0
VERTEX
10
9.78971
20
8.07789
30
4
0
VERTEX
10
9.79858
20
8.07346
30
4
0
VERTEX
10
9.80079
20
8.06902
30
4
0
VERTEX
10
9.81853
20
8.06459
30
4
0
VERTEX
10
9.8274
20
8.06016
30
4
0
VERTEX
10
9.84514
20
8.05794
30
4
0
VERTEX
10
9.86288
20
8.05129
30
4
0
VERTEX
10
9.93384
20
8.05129
30
4
0
VERTEX
10
9.94271
20
8.05129
30
4
0
VERTEX
10
9.96044
20
8.05794
30
4
0
VERTEX
10
9.98484
20
8.08676
30
4
0
VERTEX
10
9.99814
20
8.1045
30
4
0
VERTEX
10
10.0336
20
8.12889
30
4
0
VERTEX
10
10.0381
20
8.13333
30
4
0
VERTEX
10
10.0469
20
8.13555
30
4
0
VERTEX
10
10.0514
20
8.13998
30
4
0
VERTEX
10
10.0514
20
8.14442
30
4
0
VERTEX
10
10.0846
20
8.17989
30
4
0
VERTEX
10
10.1068
20
8.21537
30
4
0
VERTEX
10
10.1134
20
8.22424
30
4
0
VERTEX
10
10.1201
20
8.25972
30
4
0
VERTEX
10
10.1223
20
8.33067
30
4
0
VERTEX
10
10.1179
20
8.40163
30
4
0
VERTEX
10
10.1134
20
8.41937
30
4
0
VERTEX
10
10.1134
20
8.42824
30
4
0
VERTEX
10
10.1068
20
8.44598
30
4
0
VERTEX
10
10.1068
20
8.45485
30
4
0
VERTEX
10
10.1001
20
8.47259
30
4
0
VERTEX
10
10.0979
20
8.48146
30
4
0
VERTEX
10
10.0979
20
8.48589
30
4
0
VERTEX
10
10.1068
20
8.48811
30
4
0
VERTEX
10
10.0913
20
8.52359
30
4
0
VERTEX
10
10.0757
20
8.53467
30
4
0
VERTEX
10
10.0469
20
8.56572
30
4
0
VERTEX
10
10.0292
20
8.5768
30
4
0
VERTEX
10
10.0048
20
8.60563
30
4
0
VERTEX
10
9.94049
20
8.6655
30
4
0
VERTEX
10
9.92275
20
8.68102
30
4
0
VERTEX
10
9.88727
20
8.70319
30
4
0
VERTEX
10
9.85401
20
8.73202
30
4
0
VERTEX
10
9.81853
20
8.74976
30
4
0
VERTEX
10
9.74758
20
8.77858
30
4
0
VERTEX
10
9.67662
20
8.78967
30
4
0
VERTEX
10
9.64114
20
8.79411
30
4
0
VERTEX
10
9.60567
20
8.79411
30
4
0
VERTEX
10
9.57019
20
8.7808
30
4
0
VERTEX
10
9.56132
20
8.7808
30
4
0
VERTEX
10
9.52584
20
8.76528
30
4
0
VERTEX
10
9.51697
20
8.76528
30
4
0
VERTEX
10
9.48149
20
8.74532
30
4
0
VERTEX
10
9.46375
20
8.73645
30
4
0
VERTEX
10
9.45488
20
8.73424
30
4
0
VERTEX
10
9.43714
20
8.72315
30
4
0
VERTEX
10
9.42828
20
8.7165
30
4
0
VERTEX
10
9.41719
20
8.70098
30
4
0
VERTEX
10
9.39945
20
8.68324
30
4
0
VERTEX
10
9.3928
20
8.6655
30
4
0
VERTEX
10
9.38393
20
8.66328
30
4
0
VERTEX
10
9.35288
20
8.63667
30
4
0
VERTEX
10
9.3418
20
8.61893
30
4
0
VERTEX
10
9.33515
20
8.61006
30
4
0
VERTEX
10
9.31962
20
8.59898
30
4
0
VERTEX
10
9.30632
20
8.58124
30
4
0
VERTEX
10
9.30188
20
8.5768
30
4
0
VERTEX
10
9.30188
20
8.57237
30
4
0
VERTEX
10
9.29745
20
8.56793
30
4
0
VERTEX
10
9.2908
20
8.55019
30
4
0
VERTEX
10
9.28415
20
8.54133
30
4
0
VERTEX
10
9.27306
20
8.47037
30
4
0
VERTEX
10
9.26419
20
8.4615
30
4
0
VERTEX
10
9.26197
20
8.42602
30
4
0
VERTEX
10
9.26197
20
8.41715
30
4
0
VERTEX
10
9.26197
20
8.41494
30
4
0
SEQEND
0
POLYLINE
62
31
66
1
70
1
3
contour
0
VERTEX
10
7.76106
20
8.69521
30
4
0
VERTEX
10
7.76377
20
8.67348
30
4
0
VERTEX
10
7.76377
20
8.66262
30
4
0
VERTEX
10
7.77735
20
8.64633
30
4
0
VERTEX
10
7.79907
20
8.63275
30
4
0
VERTEX
10
7.80994
20
8.62732
30
4
0
VERTEX
10
7.85338
20
8.6246
30
4
0
VERTEX
10
7.87511
20
8.6246
30
4
0
VERTEX
10
7.88597
20
8.61917
30
4
0
VERTEX
10
7.97287
20
8.62189
30
4
0
VERTEX
10
7.98645
20
8.63818
30
4
0
VERTEX
10
8.01089
20
8.68163
30
4
0
VERTEX
10
8.01632
20
8.70335
30
4
0
VERTEX
10
8.02175
20
8.71422
30
4
0
VERTEX
10
8.01903
20
8.80111
30
4
0
VERTEX
10
8.01632
20
8.81198
30
4
0
VERTEX
10
8.01089
20
8.81741
30
4
0
VERTEX
10
7.98916
20
8.82284
30
4
0
VERTEX
10
7.90226
20
8.82012
30
4
0
VERTEX
10
7.8914
20
8.82012
30
4
0
VERTEX
10
7.88597
20
8.82012
30
4
0
VERTEX
10
7.88054
20
8.81469
30
4
0
VERTEX
10
7.85882
20
8.80926
30
4
0
VERTEX
10
7.83709
20
8.7984
30
4
0
VERTEX
10
7.82623
20
8.79297
30
4
0
VERTEX
10
7.8208
20
8.79297
30
4
0
VERTEX
10
7.80722
20
8.77124
30
4
0
VERTEX
10
7.78821
20
8.75766
30
4
0
VERTEX
10
7.77463
20
8.73594
30
4
0
VERTEX
10
7.7692
20
8.73051
30
4
0
VERTEX
10
7.7692
20
8.71965
30
4
0
VERTEX
10
7.76106
20
8.69792
30
4
0
SEQEND
0
POLYLINE
62
224
66
1
70
1
3
mitochondrion
0
VERTEX
10
9.6913
20
8.52612
30
4
0
VERTEX
10
9.69408
20
8.51499
30
4
0
VERTEX
10
9.69408
20
8.4705
30
4
0
VERTEX
10
9.69547
20
8.44825
30
4
0
VERTEX
10
9.70103
20
8.42601
30
4
0
VERTEX
10
9.70103
20
8.42322
30
4
0
VERTEX
10
9.70381
20
8.42044
30
4
0
VERTEX
10
9.70659
20
8.40932
30
4
0
VERTEX
10
9.70937
20
8.40654
30
4
0
VERTEX
10
9.70937
20
8.40376
30
4
0
VERTEX
10
9.71354
20
8.3982
30
4
0
VERTEX
10
9.71354
20
8.39542
30
4
0
VERTEX
10
9.71632
20
8.39263
30
4
0
VERTEX
10
9.71632
20
8.38985
30
4
0
VERTEX
10
9.72606
20
8.38012
30
4
0
VERTEX
10
9.73023
20
8.37456
30
4
0
VERTEX
10
9.73023
20
8.37178
30
4
0
VERTEX
10
9.7344
20
8.36622
30
4
0
VERTEX
10
9.73857
20
8.35509
30
4
0
VERTEX
10
9.74413
20
8.35231
30
4
0
VERTEX
10
9.75248
20
8.34119
30
4
0
VERTEX
10
9.75248
20
8.33841
30
4
0
VERTEX
10
9.77333
20
8.32033
30
4
0
VERTEX
10
9.78167
20
8.30921
30
4
0
VERTEX
10
9.78724
20
8.30365
30
4
0
VERTEX
10
9.7928
20
8.30087
30
4
0
VERTEX
10
9.79836
20
8.30087
30
4
0
VERTEX
10
9.80253
20
8.2967
30
4
0
VERTEX
10
9.80392
20
8.29113
30
4
0
VERTEX
10
9.82339
20
8.27167
30
4
0
VERTEX
10
9.83312
20
8.26193
30
4
0
VERTEX
10
9.83729
20
8.25637
30
4
0
VERTEX
10
9.84842
20
8.25498
30
4
0
VERTEX
10
9.85954
20
8.24942
30
4
0
VERTEX
10
9.86371
20
8.24803
30
4
0
VERTEX
10
9.87344
20
8.23969
30
4
0
VERTEX
10
9.89569
20
8.22717
30
4
0
VERTEX
10
9.90542
20
8.21883
30
4
0
VERTEX
10
9.92767
20
8.21744
30
4
0
VERTEX
10
9.94992
20
8.21883
30
4
0
VERTEX
10
9.95548
20
8.223
30
4
0
VERTEX
10
9.9666
20
8.22439
30
4
0
VERTEX
10
9.97773
20
8.22856
30
4
0
VERTEX
10
9.98885
20
8.2383
30
4
0
VERTEX
10
9.99719
20
8.24525
30
4
0
VERTEX
10
10.0125
20
8.26472
30
4
0
VERTEX
10
10.0167
20
8.26889
30
4
0
VERTEX
10
10.018
20
8.27445
30
4
0
VERTEX
10
10.025
20
8.2814
30
4
0
VERTEX
10
10.0264
20
8.29252
30
4
0
VERTEX
10
10.0347
20
8.31477
30
4
0
VERTEX
10
10.0459
20
8.33702
30
4
0
VERTEX
10
10.0514
20
8.35926
30
4
0
VERTEX
10
10.0514
20
8.38151
30
4
0
VERTEX
10
10.0486
20
8.40376
30
4
0
VERTEX
10
10.0486
20
8.41488
30
4
0
VERTEX
10
10.0486
20
8.42044
30
4
0
VERTEX
10
10.0431
20
8.43157
30
4
0
VERTEX
10
10.0361
20
8.47606
30
4
0
VERTEX
10
10.032
20
8.48718
30
4
0
VERTEX
10
10.0292
20
8.48997
30
4
0
VERTEX
10
10.0292
20
8.49275
30
4
0
VERTEX
10
10.0264
20
8.49553
30
4
0
VERTEX
10
10.0264
20
8.49831
30
4
0
VERTEX
10
10.0222
20
8.50248
30
4
0
VERTEX
10
10.0222
20
8.50526
30
4
0
VERTEX
10
10.0167
20
8.51082
30
4
0
VERTEX
10
10.0111
20
8.52055
30
4
0
VERTEX
10
10.0083
20
8.52334
30
4
0
VERTEX
10
10.0055
20
8.52334
30
4
0
VERTEX
10
10.0028
20
8.5289
30
4
0
VERTEX
10
9.99163
20
8.54002
30
4
0
VERTEX
10
9.97633
20
8.56088
30
4
0
VERTEX
10
9.9666
20
8.56922
30
4
0
VERTEX
10
9.96382
20
8.56922
30
4
0
VERTEX
10
9.95409
20
8.57617
30
4
0
VERTEX
10
9.94853
20
8.57756
30
4
0
VERTEX
10
9.94296
20
8.58173
30
4
0
VERTEX
10
9.93184
20
8.58312
30
4
0
VERTEX
10
9.92906
20
8.5859
30
4
0
VERTEX
10
9.91794
20
8.5873
30
4
0
VERTEX
10
9.90681
20
8.59147
30
4
0
VERTEX
10
9.86232
20
8.59703
30
4
0
VERTEX
10
9.8512
20
8.59842
30
4
0
VERTEX
10
9.84007
20
8.60259
30
4
0
VERTEX
10
9.83451
20
8.60537
30
4
0
VERTEX
10
9.83173
20
8.60537
30
4
0
VERTEX
10
9.83034
20
8.60815
30
4
0
VERTEX
10
9.80809
20
8.61093
30
4
0
VERTEX
10
9.80531
20
8.61371
30
4
0
VERTEX
10
9.79419
20
8.61649
30
4
0
VERTEX
10
9.77194
20
8.61649
30
4
0
VERTEX
10
9.76082
20
8.6151
30
4
0
VERTEX
10
9.74969
20
8.61093
30
4
0
VERTEX
10
9.72745
20
8.60815
30
4
0
VERTEX
10
9.72189
20
8.60537
30
4
0
VERTEX
10
9.72189
20
8.59981
30
4
0
VERTEX
10
9.71354
20
8.58869
30
4
0
VERTEX
10
9.71076
20
8.58312
30
4
0
VERTEX
10
9.70103
20
8.57339
30
4
0
VERTEX
10
9.6913
20
8.55114
30
4
0
VERTEX
10
9.6913
20
8.5289
30
4
0
VERTEX
10
9.6913
20
8.52751
30
4
0
SEQEND
0
POLYLINE
62
236
66
1
70
1
3
postsynaptic_density
0
VERTEX
10
8.01733
20
7.76352
30
4
0
VERTEX
10
8.03039
20
7.75045
30
4
0
VERTEX
10
8.04532
20
7.75045
30
4
0
VERTEX
10
8.07518
20
7.75605
30
4
0
VERTEX
10
8.08264
20
7.75605
30
4
0
VERTEX
10
8.08638
20
7.75979
30
4
0
VERTEX
10
8.09384
20
7.75979
30
4
0
VERTEX
10
8.09757
20
7.75979
30
4
0
VERTEX
10
8.10131
20
7.76352
30
4
0
VERTEX
10
8.10131
20
7.76725
30
4
0
VERTEX
10
8.1125
20
7.78031
30
4
0
VERTEX
10
8.10877
20
7.81017
30
4
0
VERTEX
10
8.10504
20
7.81764
30
4
0
VERTEX
10
8.10317
20
7.82137
30
4
0
VERTEX
10
8.09571
20
7.82137
30
4
0
VERTEX
10
8.03599
20
7.79524
30
4
0
VERTEX
10
8.02106
20
7.78778
30
4
0
VERTEX
10
8.01733
20
7.78031
30
4
0
VERTEX
10
8.01733
20
7.76538
30
4
0
SEQEND
0
POLYLINE
62
227
66
1
70
1
3
endoplasmic_reticulum
0
VERTEX
10
9.91184
20
8.15373
30
4
0
VERTEX
10
9.91336
20
8.14154
30
4
0
VERTEX
10
9.91336
20
8.13849
30
4
0
VERTEX
10
9.91641
20
8.13544
30
4
0
VERTEX
10
9.92859
20
8.13544
30
4
0
VERTEX
10
9.94078
20
8.13849
30
4
0
VERTEX
10
9.95297
20
8.13697
30
4
0
VERTEX
10
9.95906
20
8.13849
30
4
0
VERTEX
10
9.96211
20
8.14459
30
4
0
VERTEX
10
9.9682
20
8.14459
30
4
0
VERTEX
10
9.96973
20
8.15677
30
4
0
VERTEX
10
9.96973
20
8.16287
30
4
0
VERTEX
10
9.96973
20
8.16591
30
4
0
VERTEX
10
9.96668
20
8.16896
30
4
0
VERTEX
10
9.96668
20
8.17201
30
4
0
VERTEX
10
9.95449
20
8.18115
30
4
0
VERTEX
10
9.9484
20
8.18267
30
4
0
VERTEX
10
9.94383
20
8.18724
30
4
0
VERTEX
10
9.93164
20
8.18877
30
4
0
VERTEX
10
9.91945
20
8.18724
30
4
0
VERTEX
10
9.91793
20
8.18115
30
4
0
VERTEX
10
9.91184
20
8.17506
30
4
0
VERTEX
10
9.91184
20
8.16287
30
4
0
VERTEX
10
9.91184
20
8.15677
30
4
0
VERTEX
10
9.91184
20
8.15525
30
4
0
SEQEND
0
POLYLINE
62
227
66
1
70
1
3
endoplasmic_reticulum
0
VERTEX
10
9.5401
20
8.50261
30
4
0
VERTEX
10
9.54163
20
8.49651
30
4
0
VERTEX
10
9.54467
20
8.49499
30
4
0
VERTEX
10
9.5462
20
8.48889
30
4
0
VERTEX
10
9.54772
20
8.48737
30
4
0
VERTEX
10
9.54924
20
8.49347
30
4
0
VERTEX
10
9.55382
20
8.48889
30
4
0
VERTEX
10
9.55991
20
8.48737
30
4
0
VERTEX
10
9.5721
20
8.49651
30
4
0
VERTEX
10
9.57819
20
8.49804
30
4
0
VERTEX
10
9.58581
20
8.50565
30
4
0
VERTEX
10
9.58581
20
8.5087
30
4
0
VERTEX
10
9.59647
20
8.52089
30
4
0
VERTEX
10
9.60104
20
8.52698
30
4
0
VERTEX
10
9.60257
20
8.53155
30
4
0
VERTEX
10
9.61323
20
8.54222
30
4
0
VERTEX
10
9.61933
20
8.54526
30
4
0
VERTEX
10
9.62694
20
8.55745
30
4
0
VERTEX
10
9.62999
20
8.5605
30
4
0
VERTEX
10
9.64218
20
8.56507
30
4
0
VERTEX
10
9.64522
20
8.56812
30
4
0
VERTEX
10
9.64675
20
8.5803
30
4
0
VERTEX
10
9.64675
20
8.5864
30
4
0
VERTEX
10
9.64065
20
8.59859
30
4
0
VERTEX
10
9.63151
20
8.61077
30
4
0
VERTEX
10
9.61933
20
8.61382
30
4
0
VERTEX
10
9.60714
20
8.61382
30
4
0
VERTEX
10
9.59647
20
8.60316
30
4
0
VERTEX
10
9.59343
20
8.59706
30
4
0
VERTEX
10
9.59038
20
8.59554
30
4
0
VERTEX
10
9.58733
20
8.58335
30
4
0
VERTEX
10
9.57819
20
8.57269
30
4
0
VERTEX
10
9.57362
20
8.56659
30
4
0
VERTEX
10
9.5721
20
8.54222
30
4
0
VERTEX
10
9.56143
20
8.53308
30
4
0
VERTEX
10
9.55534
20
8.53308
30
4
0
VERTEX
10
9.55229
20
8.53308
30
4
0
VERTEX
10
9.54467
20
8.52241
30
4
0
VERTEX
10
9.5401
20
8.51632
30
4
0
VERTEX
10
9.5401
20
8.50413
30
4
0
SEQEND
0
POLYLINE
62
227
66
1
70
1
3
endoplasmic_reticulum
0
VERTEX
10
9.70921
20
8.2817
30
4
0
VERTEX
10
9.71683
20
8.27104
30
4
0
VERTEX
10
9.71988
20
8.26646
30
4
0
VERTEX
10
9.72597
20
8.26494
30
4
0
VERTEX
10
9.73206
20
8.26646
30
4
0
VERTEX
10
9.7412
20
8.27713
30
4
0
VERTEX
10
9.74578
20
8.28932
30
4
0
VERTEX
10
9.7473
20
8.30151
30
4
0
VERTEX
10
9.74273
20
8.31369
30
4
0
VERTEX
10
9.73206
20
8.32131
30
4
0
VERTEX
10
9.71988
20
8.32588
30
4
0
VERTEX
10
9.71378
20
8.32436
30
4
0
VERTEX
10
9.70921
20
8.29998
30
4
0
VERTEX
10
9.70921
20
8.28779
30
4
0
VERTEX
10
9.70921
20
8.28322
30
4
0
SEQEND
0
POLYLINE
62
227
66
1
70
1
3
endoplasmic_reticulum
0
VERTEX
10
9.53553
20
8.33197
30
4
0
VERTEX
10
9.53858
20
8.32588
30
4
0
VERTEX
10
9.54163
20
8.32283
30
4
0
VERTEX
10
9.54772
20
8.32283
30
4
0
VERTEX
10
9.55077
20
8.32283
30
4
0
VERTEX
10
9.55382
20
8.32588
30
4
0
VERTEX
10
9.566
20
8.32893
30
4
0
VERTEX
10
9.5721
20
8.33197
30
4
0
VERTEX
10
9.57667
20
8.33807
30
4
0
VERTEX
10
9.57819
20
8.34416
30
4
0
VERTEX
10
9.57819
20
8.34721
30
4
0
VERTEX
10
9.598
20
8.36854
30
4
0
VERTEX
10
9.60257
20
8.37463
30
4
0
VERTEX
10
9.59952
20
8.38682
30
4
0
VERTEX
10
9.59495
20
8.39139
30
4
0
VERTEX
10
9.59343
20
8.39444
30
4
0
VERTEX
10
9.58124
20
8.39444
30
4
0
VERTEX
10
9.57819
20
8.39291
30
4
0
VERTEX
10
9.58276
20
8.38987
30
4
0
VERTEX
10
9.57514
20
8.38073
30
4
0
VERTEX
10
9.5721
20
8.37768
30
4
0
VERTEX
10
9.56143
20
8.37311
30
4
0
VERTEX
10
9.55686
20
8.36702
30
4
0
VERTEX
10
9.54467
20
8.3594
30
4
0
VERTEX
10
9.54163
20
8.3533
30
4
0
VERTEX
10
9.53553
20
8.34873
30
4
0
VERTEX
10
9.53553
20
8.33655
30
4
0
VERTEX
10
9.53553
20
8.3335
30
4
0
SEQEND
0
POLYLINE
62
236
66
1
70
1
3
postsynaptic_density
0
VERTEX
10
9.07896
20
8.5027
30
4
0
VERTEX
10
9.12329
20
8.47499
30
4
0
VERTEX
10
9.14546
20
8.45837
30
4
0
VERTEX
10
9.15654
20
8.45006
30
4
0
VERTEX
10
9.16762
20
8.44729
30
4
0
VERTEX
10
9.18701
20
8.42789
30
4
0
VERTEX
10
9.19533
20
8.41681
30
4
0
VERTEX
10
9.20641
20
8.41127
30
4
0
VERTEX
10
9.21195
20
8.41127
30
4
0
VERTEX
10
9.21472
20
8.40573
30
4
0
VERTEX
10
9.23688
20
8.40019
30
4
0
VERTEX
10
9.28121
20
8.39742
30
4
0
VERTEX
10
9.30337
20
8.39742
30
4
0
VERTEX
10
9.31446
20
8.39188
30
4
0
VERTEX
10
9.32
20
8.39188
30
4
0
VERTEX
10
9.33939
20
8.4085
30
4
0
VERTEX
10
9.35047
20
8.41404
30
4
0
VERTEX
10
9.37541
20
8.45837
30
4
0
VERTEX
10
9.37818
20
8.46945
30
4
0
VERTEX
10
9.38649
20
8.47776
30
4
0
VERTEX
10
9.38926
20
8.49993
30
4
0
VERTEX
10
9.40034
20
8.52209
30
4
0
VERTEX
10
9.41697
20
8.54426
30
4
0
VERTEX
10
9.42251
20
8.5498
30
4
0
VERTEX
10
9.42251
20
8.57196
30
4
0
VERTEX
10
9.42251
20
8.5775
30
4
0
VERTEX
10
9.41142
20
8.58858
30
4
0
VERTEX
10
9.40588
20
8.59412
30
4
0
VERTEX
10
9.40034
20
8.59412
30
4
0
VERTEX
10
9.37818
20
8.61075
30
4
0
VERTEX
10
9.36156
20
8.62737
30
4
0
VERTEX
10
9.35601
20
8.62737
30
4
0
VERTEX
10
9.34493
20
8.63845
30
4
0
VERTEX
10
9.33939
20
8.64953
30
4
0
VERTEX
10
9.33385
20
8.65508
30
4
0
VERTEX
10
9.33385
20
8.66062
30
4
0
VERTEX
10
9.29783
20
8.69386
30
4
0
VERTEX
10
9.29506
20
8.69663
30
4
0
VERTEX
10
9.11775
20
8.53871
30
4
0
VERTEX
10
9.09559
20
8.51932
30
4
0
VERTEX
10
9.0845
20
8.50824
30
4
0
VERTEX
10
9.07896
20
8.50547
30
4
0
SEQEND
0
ENDSEC
0
EOF
