0
SECTION
2
ENTITIES
0
POLYLINE
62
31
66
1
70
1
3
contour
0
VERTEX
10
8.55241
20
8.46372
30
4.44
0
VERTEX
10
8.55906
20
8.42824
30
4.44
0
VERTEX
10
8.56793
20
8.4105
30
4.44
0
VERTEX
10
8.57237
20
8.39276
30
4.44
0
VERTEX
10
8.58346
20
8.37502
30
4.44
0
VERTEX
10
8.59011
20
8.36837
30
4.44
0
VERTEX
10
8.59011
20
8.36394
30
4.44
0
VERTEX
10
8.60785
20
8.35063
30
4.44
0
VERTEX
10
8.61228
20
8.3462
30
4.44
0
VERTEX
10
8.61672
20
8.3462
30
4.44
0
VERTEX
10
8.62115
20
8.34176
30
4.44
0
VERTEX
10
8.62559
20
8.34176
30
4.44
0
VERTEX
10
8.63002
20
8.33733
30
4.44
0
VERTEX
10
8.63446
20
8.33733
30
4.44
0
VERTEX
10
8.64332
20
8.32846
30
4.44
0
VERTEX
10
8.64776
20
8.32402
30
4.44
0
VERTEX
10
8.65663
20
8.32402
30
4.44
0
VERTEX
10
8.65885
20
8.31959
30
4.44
0
VERTEX
10
8.69211
20
8.3085
30
4.44
0
VERTEX
10
8.72758
20
8.30185
30
4.44
0
VERTEX
10
8.73202
20
8.29741
30
4.44
0
VERTEX
10
8.7675
20
8.29741
30
4.44
0
VERTEX
10
8.77637
20
8.30185
30
4.44
0
VERTEX
10
8.81185
20
8.30185
30
4.44
0
VERTEX
10
8.84732
20
8.3085
30
4.44
0
VERTEX
10
8.86506
20
8.31294
30
4.44
0
VERTEX
10
8.8828
20
8.31294
30
4.44
0
VERTEX
10
8.89167
20
8.31294
30
4.44
0
VERTEX
10
8.90054
20
8.31737
30
4.44
0
VERTEX
10
8.9715
20
8.31959
30
4.44
0
VERTEX
10
9.00697
20
8.33067
30
4.44
0
VERTEX
10
9.01141
20
8.33067
30
4.44
0
VERTEX
10
9.01584
20
8.33511
30
4.44
0
VERTEX
10
9.03358
20
8.33511
30
4.44
0
VERTEX
10
9.05132
20
8.34176
30
4.44
0
VERTEX
10
9.06019
20
8.34176
30
4.44
0
VERTEX
10
9.07793
20
8.34841
30
4.44
0
VERTEX
10
9.09567
20
8.34841
30
4.44
0
VERTEX
10
9.13115
20
8.35728
30
4.44
0
VERTEX
10
9.16662
20
8.36172
30
4.44
0
VERTEX
10
9.18436
20
8.36394
30
4.44
0
VERTEX
10
9.21984
20
8.37502
30
4.44
0
VERTEX
10
9.2908
20
8.37281
30
4.44
0
VERTEX
10
9.32628
20
8.37946
30
4.44
0
VERTEX
10
9.36175
20
8.38167
30
4.44
0
VERTEX
10
9.39723
20
8.38833
30
4.44
0
VERTEX
10
9.53914
20
8.39276
30
4.44
0
VERTEX
10
9.6101
20
8.39054
30
4.44
0
VERTEX
10
9.61897
20
8.39276
30
4.44
0
VERTEX
10
9.6234
20
8.39276
30
4.44
0
VERTEX
10
9.62784
20
8.3972
30
4.44
0
VERTEX
10
9.66332
20
8.4105
30
4.44
0
VERTEX
10
9.67219
20
8.41494
30
4.44
0
VERTEX
10
9.67662
20
8.41494
30
4.44
0
VERTEX
10
9.68549
20
8.4238
30
4.44
0
VERTEX
10
9.70323
20
8.43267
30
4.44
0
VERTEX
10
9.73427
20
8.4615
30
4.44
0
VERTEX
10
9.74758
20
8.47924
30
4.44
0
VERTEX
10
9.74758
20
8.48367
30
4.44
0
VERTEX
10
9.75645
20
8.49254
30
4.44
0
VERTEX
10
9.76753
20
8.50806
30
4.44
0
VERTEX
10
9.79858
20
8.53689
30
4.44
0
VERTEX
10
9.8274
20
8.57015
30
4.44
0
VERTEX
10
9.84292
20
8.58567
30
4.44
0
VERTEX
10
9.84958
20
8.59454
30
4.44
0
VERTEX
10
9.84958
20
8.59898
30
4.44
0
VERTEX
10
9.85623
20
8.60785
30
4.44
0
VERTEX
10
9.85845
20
8.61672
30
4.44
0
VERTEX
10
9.86288
20
8.62115
30
4.44
0
VERTEX
10
9.86288
20
8.63002
30
4.44
0
VERTEX
10
9.86732
20
8.63889
30
4.44
0
VERTEX
10
9.86732
20
8.64332
30
4.44
0
VERTEX
10
9.87175
20
8.64554
30
4.44
0
VERTEX
10
9.88284
20
8.7165
30
4.44
0
VERTEX
10
9.88284
20
8.78745
30
4.44
0
VERTEX
10
9.88062
20
8.80519
30
4.44
0
VERTEX
10
9.88062
20
8.81406
30
4.44
0
VERTEX
10
9.87618
20
8.8185
30
4.44
0
VERTEX
10
9.87175
20
8.83624
30
4.44
0
VERTEX
10
9.84736
20
8.87171
30
4.44
0
VERTEX
10
9.81632
20
8.89389
30
4.44
0
VERTEX
10
9.80301
20
8.90719
30
4.44
0
VERTEX
10
9.78527
20
8.91384
30
4.44
0
VERTEX
10
9.76975
20
8.92715
30
4.44
0
VERTEX
10
9.75866
20
8.94267
30
4.44
0
VERTEX
10
9.75423
20
8.94267
30
4.44
0
VERTEX
10
9.74092
20
8.96041
30
4.44
0
VERTEX
10
9.73206
20
8.96484
30
4.44
0
VERTEX
10
9.72984
20
8.96928
30
4.44
0
VERTEX
10
9.69658
20
8.98037
30
4.44
0
VERTEX
10
9.62562
20
8.98258
30
4.44
0
VERTEX
10
9.61675
20
8.98702
30
4.44
0
VERTEX
10
9.58127
20
8.98702
30
4.44
0
VERTEX
10
9.5724
20
8.98702
30
4.44
0
VERTEX
10
9.56797
20
8.98702
30
4.44
0
VERTEX
10
9.55245
20
9.00254
30
4.44
0
VERTEX
10
9.51697
20
8.9981
30
4.44
0
VERTEX
10
9.37506
20
9.00032
30
4.44
0
VERTEX
10
9.33958
20
8.9981
30
4.44
0
VERTEX
10
9.32184
20
8.9981
30
4.44
0
VERTEX
10
9.25089
20
8.98702
30
4.44
0
VERTEX
10
9.23315
20
8.98702
30
4.44
0
VERTEX
10
9.21541
20
8.98037
30
4.44
0
VERTEX
10
9.14445
20
8.96706
30
4.44
0
VERTEX
10
9.10897
20
8.95819
30
4.44
0
VERTEX
10
9.09123
20
8.95154
30
4.44
0
VERTEX
10
9.0735
20
8.95154
30
4.44
0
VERTEX
10
9.03802
20
8.94045
30
4.44
0
VERTEX
10
9.0358
20
8.93602
30
4.44
0
VERTEX
10
9.01806
20
8.92937
30
4.44
0
VERTEX
10
9.00919
20
8.92715
30
4.44
0
VERTEX
10
8.97371
20
8.90497
30
4.44
0
VERTEX
10
8.96484
20
8.89832
30
4.44
0
VERTEX
10
8.95597
20
8.89611
30
4.44
0
VERTEX
10
8.9471
20
8.88945
30
4.44
0
VERTEX
10
8.93824
20
8.88724
30
4.44
0
VERTEX
10
8.90719
20
8.86284
30
4.44
0
VERTEX
10
8.88945
20
8.85176
30
4.44
0
VERTEX
10
8.88058
20
8.84954
30
4.44
0
VERTEX
10
8.87393
20
8.84289
30
4.44
0
VERTEX
10
8.86506
20
8.84067
30
4.44
0
VERTEX
10
8.84954
20
8.82737
30
4.44
0
VERTEX
10
8.8318
20
8.80741
30
4.44
0
VERTEX
10
8.82293
20
8.80519
30
4.44
0
VERTEX
10
8.76306
20
8.74311
30
4.44
0
VERTEX
10
8.75419
20
8.74089
30
4.44
0
VERTEX
10
8.74532
20
8.73424
30
4.44
0
VERTEX
10
8.74089
20
8.73424
30
4.44
0
VERTEX
10
8.7298
20
8.72093
30
4.44
0
VERTEX
10
8.69432
20
8.69876
30
4.44
0
VERTEX
10
8.68545
20
8.69432
30
4.44
0
VERTEX
10
8.68102
20
8.69432
30
4.44
0
VERTEX
10
8.6788
20
8.68989
30
4.44
0
VERTEX
10
8.66993
20
8.68767
30
4.44
0
VERTEX
10
8.60785
20
8.63002
30
4.44
0
VERTEX
10
8.59454
20
8.6145
30
4.44
0
VERTEX
10
8.59011
20
8.61228
30
4.44
0
VERTEX
10
8.59011
20
8.60785
30
4.44
0
VERTEX
10
8.57459
20
8.59676
30
4.44
0
VERTEX
10
8.56793
20
8.59011
30
4.44
0
VERTEX
10
8.56128
20
8.55463
30
4.44
0
VERTEX
10
8.55463
20
8.53689
30
4.44
0
VERTEX
10
8.55241
20
8.46593
30
4.44
0
SEQEND
0
POLYLINE
62
31
66
1
70
1
3
contour
0
VERTEX
10
7.87511
20
7.79364
30
4.44
0
VERTEX
10
7.87782
20
7.75019
30
4.44
0
VERTEX
10
7.87782
20
7.72847
30
4.44
0
VERTEX
10
7.88326
20
7.71761
30
4.44
0
VERTEX
10
7.88326
20
7.70674
30
4.44
0
VERTEX
10
7.89683
20
7.6633
30
4.44
0
VERTEX
10
7.89955
20
7.65243
30
4.44
0
VERTEX
10
7.9077
20
7.64157
30
4.44
0
VERTEX
10
7.91041
20
7.63071
30
4.44
0
VERTEX
10
7.91584
20
7.62799
30
4.44
0
VERTEX
10
7.92127
20
7.60627
30
4.44
0
VERTEX
10
7.95658
20
7.57097
30
4.44
0
VERTEX
10
8.04347
20
7.5764
30
4.44
0
VERTEX
10
8.05434
20
7.57911
30
4.44
0
VERTEX
10
8.05977
20
7.57911
30
4.44
0
VERTEX
10
8.06248
20
7.58454
30
4.44
0
VERTEX
10
8.03804
20
7.67144
30
4.44
0
VERTEX
10
8.02446
20
7.75834
30
4.44
0
VERTEX
10
8.02718
20
7.7692
30
4.44
0
VERTEX
10
8.04076
20
7.79093
30
4.44
0
VERTEX
10
8.0489
20
7.80994
30
4.44
0
VERTEX
10
8.05162
20
7.83166
30
4.44
0
VERTEX
10
8.05977
20
7.84524
30
4.44
0
VERTEX
10
8.0652
20
7.84524
30
4.44
0
VERTEX
10
8.08421
20
7.86696
30
4.44
0
VERTEX
10
8.08692
20
7.88869
30
4.44
0
VERTEX
10
8.08421
20
7.89955
30
4.44
0
VERTEX
10
8.07606
20
7.91041
30
4.44
0
VERTEX
10
8.07606
20
7.91584
30
4.44
0
VERTEX
10
8.05705
20
7.92942
30
4.44
0
VERTEX
10
8.05162
20
7.93485
30
4.44
0
VERTEX
10
8.00817
20
7.95386
30
4.44
0
VERTEX
10
7.99731
20
7.96201
30
4.44
0
VERTEX
10
7.95386
20
7.97015
30
4.44
0
VERTEX
10
7.93214
20
7.97287
30
4.44
0
VERTEX
10
7.9267
20
7.98373
30
4.44
0
VERTEX
10
7.91584
20
7.98102
30
4.44
0
VERTEX
10
7.9077
20
7.97287
30
4.44
0
VERTEX
10
7.88869
20
7.88597
30
4.44
0
VERTEX
10
7.88597
20
7.86425
30
4.44
0
VERTEX
10
7.88054
20
7.85338
30
4.44
0
VERTEX
10
7.88054
20
7.83166
30
4.44
0
VERTEX
10
7.88054
20
7.8208
30
4.44
0
VERTEX
10
7.87511
20
7.81537
30
4.44
0
VERTEX
10
7.87511
20
7.79636
30
4.44
0
SEQEND
0
POLYLINE
62
31
66
1
70
1
3
contour
0
VERTEX
10
9.63065
20
9.5098
30
4.44
0
VERTEX
10
9.63679
20
9.50161
30
4.44
0
VERTEX
10
9.63679
20
9.49751
30
4.44
0
VERTEX
10
9.64498
20
9.49137
30
4.44
0
VERTEX
10
9.64908
20
9.48727
30
4.44
0
VERTEX
10
9.66547
20
9.48727
30
4.44
0
VERTEX
10
9.67366
20
9.48727
30
4.44
0
VERTEX
10
9.67776
20
9.49137
30
4.44
0
VERTEX
10
9.68595
20
9.49342
30
4.44
0
VERTEX
10
9.70848
20
9.52209
30
4.44
0
VERTEX
10
9.71258
20
9.53643
30
4.44
0
VERTEX
10
9.72486
20
9.55077
30
4.44
0
VERTEX
10
9.72486
20
9.55486
30
4.44
0
VERTEX
10
9.73306
20
9.56101
30
4.44
0
VERTEX
10
9.73511
20
9.57739
30
4.44
0
VERTEX
10
9.73511
20
9.58559
30
4.44
0
VERTEX
10
9.72486
20
9.59992
30
4.44
0
VERTEX
10
9.71872
20
9.60812
30
4.44
0
VERTEX
10
9.68595
20
9.62655
30
4.44
0
VERTEX
10
9.67776
20
9.6245
30
4.44
0
VERTEX
10
9.67161
20
9.61631
30
4.44
0
VERTEX
10
9.67161
20
9.61221
30
4.44
0
VERTEX
10
9.64703
20
9.58149
30
4.44
0
VERTEX
10
9.64089
20
9.57535
30
4.44
0
VERTEX
10
9.64089
20
9.56715
30
4.44
0
VERTEX
10
9.63474
20
9.56101
30
4.44
0
VERTEX
10
9.63065
20
9.52824
30
4.44
0
VERTEX
10
9.63065
20
9.51185
30
4.44
0
SEQEND
0
POLYLINE
62
31
66
1
70
1
3
contour
0
VERTEX
10
9.71667
20
9.74125
30
4.44
0
VERTEX
10
9.71872
20
9.73306
30
4.44
0
VERTEX
10
9.71872
20
9.72896
30
4.44
0
VERTEX
10
9.75149
20
9.72691
30
4.44
0
VERTEX
10
9.78426
20
9.73101
30
4.44
0
VERTEX
10
9.79246
20
9.73101
30
4.44
0
VERTEX
10
9.82318
20
9.74125
30
4.44
0
VERTEX
10
9.83956
20
9.74535
30
4.44
0
VERTEX
10
9.85595
20
9.75354
30
4.44
0
VERTEX
10
9.86414
20
9.75559
30
4.44
0
VERTEX
10
9.87234
20
9.76173
30
4.44
0
VERTEX
10
9.88053
20
9.76378
30
4.44
0
VERTEX
10
9.89487
20
9.77812
30
4.44
0
VERTEX
10
9.89896
20
9.78631
30
4.44
0
VERTEX
10
9.89896
20
9.79041
30
4.44
0
VERTEX
10
9.90306
20
9.79041
30
4.44
0
VERTEX
10
9.90715
20
9.7945
30
4.44
0
VERTEX
10
9.91125
20
9.7945
30
4.44
0
VERTEX
10
9.94197
20
9.81908
30
4.44
0
VERTEX
10
9.94607
20
9.82318
30
4.44
0
VERTEX
10
9.94607
20
9.82727
30
4.44
0
VERTEX
10
9.95222
20
9.83137
30
4.44
0
VERTEX
10
9.95836
20
9.83956
30
4.44
0
VERTEX
10
9.96041
20
9.84366
30
4.44
0
VERTEX
10
9.9645
20
9.84366
30
4.44
0
VERTEX
10
9.9686
20
9.85185
30
4.44
0
VERTEX
10
9.97679
20
9.858
30
4.44
0
VERTEX
10
9.98499
20
9.87438
30
4.44
0
VERTEX
10
9.98499
20
9.87848
30
4.44
0
VERTEX
10
9.99728
20
9.89487
30
4.44
0
VERTEX
10
10.0034
20
9.91125
30
4.44
0
VERTEX
10
10.026
20
9.93993
30
4.44
0
VERTEX
10
10.028
20
9.9727
30
4.44
0
VERTEX
10
10.028
20
9.98908
30
4.44
0
VERTEX
10
10.028
20
9.99728
30
4.44
0
VERTEX
10
10.0157
20
10.03
30
4.44
0
VERTEX
10
10.0137
20
10.0382
30
4.44
0
VERTEX
10
10.0137
20
10.0423
30
4.44
0
VERTEX
10
10.0055
20
10.0505
30
4.44
0
VERTEX
10
9.99523
20
10.0669
30
4.44
0
VERTEX
10
9.99523
20
10.071
30
4.44
0
VERTEX
10
9.98908
20
10.0792
30
4.44
0
VERTEX
10
9.9727
20
10.0894
30
4.44
0
VERTEX
10
9.96655
20
10.0935
30
4.44
0
VERTEX
10
9.96041
20
10.1017
30
4.44
0
VERTEX
10
9.95631
20
10.1038
30
4.44
0
VERTEX
10
9.95631
20
10.1079
30
4.44
0
VERTEX
10
9.94812
20
10.112
30
4.44
0
VERTEX
10
9.94402
20
10.112
30
4.44
0
VERTEX
10
9.94197
20
10.1161
30
4.44
0
VERTEX
10
9.92559
20
10.1181
30
4.44
0
VERTEX
10
9.89282
20
10.114
30
4.44
0
VERTEX
10
9.87643
20
10.112
30
4.44
0
VERTEX
10
9.86824
20
10.1099
30
4.44
0
VERTEX
10
9.85185
20
10.0976
30
4.44
0
VERTEX
10
9.84366
20
10.0935
30
4.44
0
VERTEX
10
9.83956
20
10.0874
30
4.44
0
VERTEX
10
9.82523
20
10.0772
30
4.44
0
VERTEX
10
9.81703
20
10.0731
30
4.44
0
VERTEX
10
9.81294
20
10.069
30
4.44
0
VERTEX
10
9.80884
20
10.069
30
4.44
0
VERTEX
10
9.7945
20
10.0546
30
4.44
0
VERTEX
10
9.77607
20
10.0219
30
4.44
0
VERTEX
10
9.76788
20
9.98908
30
4.44
0
VERTEX
10
9.76378
20
9.9727
30
4.44
0
VERTEX
10
9.76173
20
9.9645
30
4.44
0
VERTEX
10
9.76173
20
9.96041
30
4.44
0
VERTEX
10
9.75764
20
9.95631
30
4.44
0
VERTEX
10
9.75764
20
9.93993
30
4.44
0
VERTEX
10
9.74944
20
9.90715
30
4.44
0
VERTEX
10
9.74535
20
9.87438
30
4.44
0
VERTEX
10
9.74535
20
9.87029
30
4.44
0
VERTEX
10
9.74125
20
9.86619
30
4.44
0
VERTEX
10
9.73715
20
9.84981
30
4.44
0
VERTEX
10
9.73715
20
9.83342
30
4.44
0
VERTEX
10
9.73306
20
9.82932
30
4.44
0
VERTEX
10
9.73306
20
9.81294
30
4.44
0
VERTEX
10
9.72077
20
9.78017
30
4.44
0
VERTEX
10
9.71667
20
9.74739
30
4.44
0
VERTEX
10
9.71667
20
9.7433
30
4.44
0
SEQEND
0
POLYLINE
62
224
66
1
70
1
3
mitochondrion
0
VERTEX
10
9.39653
20
8.72495
30
4.44
0
VERTEX
10
9.39931
20
8.72356
30
4.44
0
VERTEX
10
9.39792
20
8.67906
30
4.44
0
VERTEX
10
9.40209
20
8.63457
30
4.44
0
VERTEX
10
9.40209
20
8.62345
30
4.44
0
VERTEX
10
9.40209
20
8.61788
30
4.44
0
VERTEX
10
9.40765
20
8.60676
30
4.44
0
VERTEX
10
9.40765
20
8.60398
30
4.44
0
VERTEX
10
9.41182
20
8.59842
30
4.44
0
VERTEX
10
9.41321
20
8.5873
30
4.44
0
VERTEX
10
9.41738
20
8.57617
30
4.44
0
VERTEX
10
9.42572
20
8.56505
30
4.44
0
VERTEX
10
9.43407
20
8.55671
30
4.44
0
VERTEX
10
9.43546
20
8.55114
30
4.44
0
VERTEX
10
9.44519
20
8.54141
30
4.44
0
VERTEX
10
9.45075
20
8.54002
30
4.44
0
VERTEX
10
9.46188
20
8.53029
30
4.44
0
VERTEX
10
9.46883
20
8.52194
30
4.44
0
VERTEX
10
9.48551
20
8.50109
30
4.44
0
VERTEX
10
9.50637
20
8.48301
30
4.44
0
VERTEX
10
9.51749
20
8.47606
30
4.44
0
VERTEX
10
9.52027
20
8.47606
30
4.44
0
VERTEX
10
9.52584
20
8.4705
30
4.44
0
VERTEX
10
9.5314
20
8.46772
30
4.44
0
VERTEX
10
9.53418
20
8.46494
30
4.44
0
VERTEX
10
9.53974
20
8.46355
30
4.44
0
VERTEX
10
9.54252
20
8.46355
30
4.44
0
VERTEX
10
9.54808
20
8.45938
30
4.44
0
VERTEX
10
9.55921
20
8.4552
30
4.44
0
VERTEX
10
9.58145
20
8.45242
30
4.44
0
VERTEX
10
9.62595
20
8.45381
30
4.44
0
VERTEX
10
9.63707
20
8.4552
30
4.44
0
VERTEX
10
9.63985
20
8.4552
30
4.44
0
VERTEX
10
9.65097
20
8.46216
30
4.44
0
VERTEX
10
9.67183
20
8.46633
30
4.44
0
VERTEX
10
9.67322
20
8.46911
30
4.44
0
VERTEX
10
9.68434
20
8.47189
30
4.44
0
VERTEX
10
9.69547
20
8.47745
30
4.44
0
VERTEX
10
9.7052
20
8.48579
30
4.44
0
VERTEX
10
9.70937
20
8.48997
30
4.44
0
VERTEX
10
9.71215
20
8.48997
30
4.44
0
VERTEX
10
9.73023
20
8.50804
30
4.44
0
VERTEX
10
9.73301
20
8.51916
30
4.44
0
VERTEX
10
9.7344
20
8.52473
30
4.44
0
VERTEX
10
9.73857
20
8.53029
30
4.44
0
VERTEX
10
9.73857
20
8.53307
30
4.44
0
VERTEX
10
9.74135
20
8.53585
30
4.44
0
VERTEX
10
9.74135
20
8.53863
30
4.44
0
VERTEX
10
9.74691
20
8.54002
30
4.44
0
VERTEX
10
9.74969
20
8.54558
30
4.44
0
VERTEX
10
9.75108
20
8.59008
30
4.44
0
VERTEX
10
9.75108
20
8.61232
30
4.44
0
VERTEX
10
9.74691
20
8.63457
30
4.44
0
VERTEX
10
9.74691
20
8.65682
30
4.44
0
VERTEX
10
9.74413
20
8.67906
30
4.44
0
VERTEX
10
9.74691
20
8.68184
30
4.44
0
VERTEX
10
9.74552
20
8.69297
30
4.44
0
VERTEX
10
9.74552
20
8.69853
30
4.44
0
VERTEX
10
9.74135
20
8.70409
30
4.44
0
VERTEX
10
9.74135
20
8.71521
30
4.44
0
VERTEX
10
9.73301
20
8.73746
30
4.44
0
VERTEX
10
9.72884
20
8.74858
30
4.44
0
VERTEX
10
9.7205
20
8.75693
30
4.44
0
VERTEX
10
9.71771
20
8.75693
30
4.44
0
VERTEX
10
9.71493
20
8.75971
30
4.44
0
VERTEX
10
9.70798
20
8.78196
30
4.44
0
VERTEX
10
9.70659
20
8.79308
30
4.44
0
VERTEX
10
9.70242
20
8.80281
30
4.44
0
VERTEX
10
9.68991
20
8.82506
30
4.44
0
VERTEX
10
9.68156
20
8.83479
30
4.44
0
VERTEX
10
9.67878
20
8.84035
30
4.44
0
VERTEX
10
9.66766
20
8.85009
30
4.44
0
VERTEX
10
9.6468
20
8.86399
30
4.44
0
VERTEX
10
9.64402
20
8.86677
30
4.44
0
VERTEX
10
9.63846
20
8.86816
30
4.44
0
VERTEX
10
9.63568
20
8.86816
30
4.44
0
VERTEX
10
9.62456
20
8.87789
30
4.44
0
VERTEX
10
9.61343
20
8.88207
30
4.44
0
VERTEX
10
9.56894
20
8.88485
30
4.44
0
VERTEX
10
9.52444
20
8.88346
30
4.44
0
VERTEX
10
9.51332
20
8.88207
30
4.44
0
VERTEX
10
9.50776
20
8.88068
30
4.44
0
VERTEX
10
9.50498
20
8.87789
30
4.44
0
VERTEX
10
9.49386
20
8.8765
30
4.44
0
VERTEX
10
9.48273
20
8.87094
30
4.44
0
VERTEX
10
9.47717
20
8.87094
30
4.44
0
VERTEX
10
9.46605
20
8.86399
30
4.44
0
VERTEX
10
9.46049
20
8.86121
30
4.44
0
VERTEX
10
9.4577
20
8.85704
30
4.44
0
VERTEX
10
9.45214
20
8.85287
30
4.44
0
VERTEX
10
9.44102
20
8.8487
30
4.44
0
VERTEX
10
9.43407
20
8.83896
30
4.44
0
VERTEX
10
9.43268
20
8.8334
30
4.44
0
VERTEX
10
9.4299
20
8.83201
30
4.44
0
VERTEX
10
9.4299
20
8.82923
30
4.44
0
VERTEX
10
9.42433
20
8.82367
30
4.44
0
VERTEX
10
9.42294
20
8.81811
30
4.44
0
VERTEX
10
9.41877
20
8.81254
30
4.44
0
VERTEX
10
9.4146
20
8.80142
30
4.44
0
VERTEX
10
9.40765
20
8.7903
30
4.44
0
VERTEX
10
9.40348
20
8.77917
30
4.44
0
VERTEX
10
9.40348
20
8.77361
30
4.44
0
VERTEX
10
9.39931
20
8.76249
30
4.44
0
VERTEX
10
9.39653
20
8.74024
30
4.44
0
VERTEX
10
9.39653
20
8.72912
30
4.44
0
VERTEX
10
9.39653
20
8.72634
30
4.44
0
SEQEND
0
POLYLINE
62
236
66
1
70
1
3
postsynaptic_density
0
VERTEX
10
9.91528
20
10.072
30
4.44
0
VERTEX
10
9.93581
20
10.0459
30
4.44
0
VERTEX
10
9.94887
20
10.0347
30
4.44
0
VERTEX
10
9.96194
20
10.0273
30
4.44
0
VERTEX
10
9.9918
20
10.0273
30
4.44
0
VERTEX
10
10.0067
20
10.0273
30
4.44
0
VERTEX
10
10.0217
20
10.031
30
4.44
0
VERTEX
10
10.031
20
10.0441
30
4.44
0
VERTEX
10
10.0441
20
10.0571
30
4.44
0
VERTEX
10
10.0497
20
10.0646
30
4.44
0
VERTEX
10
10.0534
20
10.0664
30
4.44
0
VERTEX
10
10.0534
20
10.0814
30
4.44
0
VERTEX
10
10.0497
20
10.087
30
4.44
0
VERTEX
10
10.0478
20
10.1019
30
4.44
0
VERTEX
10
10.0067
20
10.1598
30
4.44
0
VERTEX
10
10.003
20
10.1635
30
4.44
0
VERTEX
10
9.97314
20
10.1635
30
4.44
0
VERTEX
10
9.95821
20
10.1579
30
4.44
0
VERTEX
10
9.94514
20
10.1448
30
4.44
0
VERTEX
10
9.94141
20
10.1374
30
4.44
0
VERTEX
10
9.93768
20
10.1336
30
4.44
0
VERTEX
10
9.93768
20
10.1299
30
4.44
0
VERTEX
10
9.93394
20
10.1262
30
4.44
0
VERTEX
10
9.92275
20
10.0963
30
4.44
0
VERTEX
10
9.92088
20
10.0888
30
4.44
0
VERTEX
10
9.91528
20
10.0832
30
4.44
0
VERTEX
10
9.91528
20
10.0758
30
4.44
0
VERTEX
10
9.91528
20
10.0739
30
4.44
0
SEQEND
0
POLYLINE
62
227
66
1
70
1
3
endoplasmic_reticulum
0
VERTEX
10
9.16685
20
8.47366
30
4.44
0
VERTEX
10
9.1699
20
8.46757
30
4.44
0
VERTEX
10
9.17599
20
8.463
30
4.44
0
VERTEX
10
9.20037
20
8.46452
30
4.44
0
VERTEX
10
9.21255
20
8.47061
30
4.44
0
VERTEX
10
9.22169
20
8.47975
30
4.44
0
VERTEX
10
9.22779
20
8.49042
30
4.44
0
VERTEX
10
9.23083
20
8.49499
30
4.44
0
VERTEX
10
9.23541
20
8.49651
30
4.44
0
VERTEX
10
9.2415
20
8.50108
30
4.44
0
VERTEX
10
9.24455
20
8.50718
30
4.44
0
VERTEX
10
9.24455
20
8.51327
30
4.44
0
VERTEX
10
9.2415
20
8.51936
30
4.44
0
VERTEX
10
9.2415
20
8.52241
30
4.44
0
VERTEX
10
9.23083
20
8.53308
30
4.44
0
VERTEX
10
9.22474
20
8.53612
30
4.44
0
VERTEX
10
9.22322
20
8.53917
30
4.44
0
VERTEX
10
9.21103
20
8.54069
30
4.44
0
VERTEX
10
9.20494
20
8.53917
30
4.44
0
VERTEX
10
9.19884
20
8.53308
30
4.44
0
VERTEX
10
9.19275
20
8.53308
30
4.44
0
VERTEX
10
9.18361
20
8.52241
30
4.44
0
VERTEX
10
9.18208
20
8.51632
30
4.44
0
VERTEX
10
9.16837
20
8.49347
30
4.44
0
VERTEX
10
9.16685
20
8.48128
30
4.44
0
VERTEX
10
9.16685
20
8.47518
30
4.44
0
SEQEND
0
POLYLINE
62
227
66
1
70
1
3
endoplasmic_reticulum
0
VERTEX
10
9.06173
20
8.53003
30
4.44
0
VERTEX
10
9.07239
20
8.50718
30
4.44
0
VERTEX
10
9.08001
20
8.49651
30
4.44
0
VERTEX
10
9.10439
20
8.49804
30
4.44
0
VERTEX
10
9.10743
20
8.49804
30
4.44
0
VERTEX
10
9.112
20
8.50261
30
4.44
0
VERTEX
10
9.1181
20
8.50261
30
4.44
0
VERTEX
10
9.12419
20
8.50565
30
4.44
0
VERTEX
10
9.12724
20
8.50565
30
4.44
0
VERTEX
10
9.13333
20
8.51022
30
4.44
0
VERTEX
10
9.13638
20
8.51327
30
4.44
0
VERTEX
10
9.1379
20
8.51936
30
4.44
0
VERTEX
10
9.15161
20
8.54222
30
4.44
0
VERTEX
10
9.16837
20
8.56507
30
4.44
0
VERTEX
10
9.17447
20
8.56964
30
4.44
0
VERTEX
10
9.17751
20
8.57421
30
4.44
0
VERTEX
10
9.18818
20
8.58487
30
4.44
0
VERTEX
10
9.19884
20
8.5864
30
4.44
0
VERTEX
10
9.21103
20
8.58487
30
4.44
0
VERTEX
10
9.21712
20
8.58487
30
4.44
0
VERTEX
10
9.22017
20
8.58487
30
4.44
0
VERTEX
10
9.22322
20
8.58183
30
4.44
0
VERTEX
10
9.24759
20
8.5803
30
4.44
0
VERTEX
10
9.27197
20
8.58945
30
4.44
0
VERTEX
10
9.28873
20
8.61077
30
4.44
0
VERTEX
10
9.29177
20
8.62296
30
4.44
0
VERTEX
10
9.29025
20
8.64734
30
4.44
0
VERTEX
10
9.28873
20
8.65953
30
4.44
0
VERTEX
10
9.29025
20
8.67171
30
4.44
0
VERTEX
10
9.29177
20
8.67781
30
4.44
0
VERTEX
10
9.29025
20
8.6839
30
4.44
0
VERTEX
10
9.27806
20
8.68543
30
4.44
0
VERTEX
10
9.27197
20
8.68543
30
4.44
0
VERTEX
10
9.26892
20
8.68543
30
4.44
0
VERTEX
10
9.26435
20
8.67933
30
4.44
0
VERTEX
10
9.26435
20
8.67324
30
4.44
0
VERTEX
10
9.25521
20
8.6641
30
4.44
0
VERTEX
10
9.25216
20
8.658
30
4.44
0
VERTEX
10
9.25216
20
8.65191
30
4.44
0
VERTEX
10
9.24912
20
8.65191
30
4.44
0
VERTEX
10
9.22779
20
8.63515
30
4.44
0
VERTEX
10
9.21712
20
8.62906
30
4.44
0
VERTEX
10
9.20494
20
8.62601
30
4.44
0
VERTEX
10
9.19884
20
8.62449
30
4.44
0
VERTEX
10
9.19732
20
8.62144
30
4.44
0
VERTEX
10
9.19122
20
8.61991
30
4.44
0
VERTEX
10
9.18361
20
8.6123
30
4.44
0
VERTEX
10
9.17142
20
8.60773
30
4.44
0
VERTEX
10
9.16532
20
8.60468
30
4.44
0
VERTEX
10
9.15923
20
8.59859
30
4.44
0
VERTEX
10
9.14857
20
8.59402
30
4.44
0
VERTEX
10
9.12419
20
8.59097
30
4.44
0
VERTEX
10
9.1181
20
8.59097
30
4.44
0
VERTEX
10
9.112
20
8.5864
30
4.44
0
VERTEX
10
9.08763
20
8.58183
30
4.44
0
VERTEX
10
9.07544
20
8.57878
30
4.44
0
VERTEX
10
9.06477
20
8.57269
30
4.44
0
VERTEX
10
9.06477
20
8.5605
30
4.44
0
VERTEX
10
9.06173
20
8.54831
30
4.44
0
VERTEX
10
9.06173
20
8.53612
30
4.44
0
VERTEX
10
9.06173
20
8.53155
30
4.44
0
SEQEND
0
POLYLINE
62
227
66
1
70
1
3
endoplasmic_reticulum
0
VERTEX
10
9.14857
20
8.62753
30
4.44
0
VERTEX
10
9.15161
20
8.62449
30
4.44
0
VERTEX
10
9.17599
20
8.62601
30
4.44
0
VERTEX
10
9.17751
20
8.63058
30
4.44
0
VERTEX
10
9.1897
20
8.63972
30
4.44
0
VERTEX
10
9.19427
20
8.65191
30
4.44
0
VERTEX
10
9.19427
20
8.658
30
4.44
0
VERTEX
10
9.20341
20
8.66714
30
4.44
0
VERTEX
10
9.22779
20
8.67476
30
4.44
0
VERTEX
10
9.23388
20
8.67781
30
4.44
0
VERTEX
10
9.23693
20
8.68085
30
4.44
0
VERTEX
10
9.24302
20
8.68085
30
4.44
0
VERTEX
10
9.25064
20
8.69152
30
4.44
0
VERTEX
10
9.25064
20
8.69457
30
4.44
0
VERTEX
10
9.25978
20
8.70371
30
4.44
0
VERTEX
10
9.26588
20
8.70523
30
4.44
0
VERTEX
10
9.27654
20
8.71437
30
4.44
0
VERTEX
10
9.27806
20
8.72656
30
4.44
0
VERTEX
10
9.27806
20
8.73265
30
4.44
0
VERTEX
10
9.27806
20
8.7357
30
4.44
0
VERTEX
10
9.25369
20
8.73722
30
4.44
0
VERTEX
10
9.24912
20
8.73113
30
4.44
0
VERTEX
10
9.24302
20
8.72961
30
4.44
0
VERTEX
10
9.22779
20
8.70828
30
4.44
0
VERTEX
10
9.22322
20
8.70523
30
4.44
0
VERTEX
10
9.22017
20
8.69914
30
4.44
0
VERTEX
10
9.22017
20
8.69609
30
4.44
0
VERTEX
10
9.20798
20
8.69
30
4.44
0
VERTEX
10
9.20189
20
8.68695
30
4.44
0
VERTEX
10
9.19884
20
8.68543
30
4.44
0
VERTEX
10
9.19884
20
8.68238
30
4.44
0
VERTEX
10
9.18818
20
8.67324
30
4.44
0
VERTEX
10
9.18513
20
8.67324
30
4.44
0
VERTEX
10
9.17294
20
8.6641
30
4.44
0
VERTEX
10
9.16685
20
8.66105
30
4.44
0
VERTEX
10
9.1638
20
8.66105
30
4.44
0
VERTEX
10
9.15923
20
8.65496
30
4.44
0
VERTEX
10
9.15618
20
8.65496
30
4.44
0
VERTEX
10
9.15161
20
8.64886
30
4.44
0
VERTEX
10
9.14857
20
8.64581
30
4.44
0
VERTEX
10
9.14857
20
8.63363
30
4.44
0
VERTEX
10
9.14857
20
8.62906
30
4.44
0
SEQEND
0
POLYLINE
62
227
66
1
70
1
3
endoplasmic_reticulum
0
VERTEX
10
8.95204
20
8.80273
30
4.44
0
VERTEX
10
8.95508
20
8.77836
30
4.44
0
VERTEX
10
8.9627
20
8.76769
30
4.44
0
VERTEX
10
8.97489
20
8.76769
30
4.44
0
VERTEX
10
8.98708
20
8.77074
30
4.44
0
VERTEX
10
8.99317
20
8.77226
30
4.44
0
VERTEX
10
8.99774
20
8.77836
30
4.44
0
VERTEX
10
9.00079
20
8.7814
30
4.44
0
VERTEX
10
9.00383
20
8.7814
30
4.44
0
VERTEX
10
9.00993
20
8.7875
30
4.44
0
VERTEX
10
9.01755
20
8.79816
30
4.44
0
VERTEX
10
9.02059
20
8.80426
30
4.44
0
VERTEX
10
9.02364
20
8.8073
30
4.44
0
VERTEX
10
9.02973
20
8.80883
30
4.44
0
VERTEX
10
9.03888
20
8.81645
30
4.44
0
VERTEX
10
9.04345
20
8.82254
30
4.44
0
VERTEX
10
9.04649
20
8.83473
30
4.44
0
VERTEX
10
9.04497
20
8.84692
30
4.44
0
VERTEX
10
9.0404
20
8.85301
30
4.44
0
VERTEX
10
9.02821
20
8.85149
30
4.44
0
VERTEX
10
9.02212
20
8.84996
30
4.44
0
VERTEX
10
9.01145
20
8.84082
30
4.44
0
VERTEX
10
9.00688
20
8.83625
30
4.44
0
VERTEX
10
9.00536
20
8.8332
30
4.44
0
VERTEX
10
8.99622
20
8.8393
30
4.44
0
VERTEX
10
8.99317
20
8.86367
30
4.44
0
VERTEX
10
8.98555
20
8.87129
30
4.44
0
VERTEX
10
8.97336
20
8.87129
30
4.44
0
VERTEX
10
8.96879
20
8.86672
30
4.44
0
VERTEX
10
8.96727
20
8.86063
30
4.44
0
VERTEX
10
8.95661
20
8.85301
30
4.44
0
VERTEX
10
8.95508
20
8.84082
30
4.44
0
VERTEX
10
8.95204
20
8.83777
30
4.44
0
VERTEX
10
8.95204
20
8.8134
30
4.44
0
VERTEX
10
8.95204
20
8.8073
30
4.44
0
VERTEX
10
8.95204
20
8.80426
30
4.44
0
SEQEND
0
POLYLINE
62
227
66
1
70
1
3
endoplasmic_reticulum
0
VERTEX
10
8.82863
20
8.67476
30
4.44
0
VERTEX
10
8.83473
20
8.66257
30
4.44
0
VERTEX
10
8.83625
20
8.65953
30
4.44
0
VERTEX
10
8.84844
20
8.658
30
4.44
0
VERTEX
10
8.86063
20
8.66257
30
4.44
0
VERTEX
10
8.87129
20
8.67019
30
4.44
0
VERTEX
10
8.87738
20
8.67324
30
4.44
0
VERTEX
10
8.87891
20
8.67933
30
4.44
0
VERTEX
10
8.87738
20
8.69152
30
4.44
0
VERTEX
10
8.87129
20
8.70371
30
4.44
0
VERTEX
10
8.86672
20
8.70675
30
4.44
0
VERTEX
10
8.85453
20
8.70675
30
4.44
0
VERTEX
10
8.83016
20
8.68695
30
4.44
0
VERTEX
10
8.82863
20
8.67628
30
4.44
0
SEQEND
0
POLYLINE
62
227
66
1
70
1
3
endoplasmic_reticulum
0
VERTEX
10
8.59097
20
8.4371
30
4.44
0
VERTEX
10
8.60011
20
8.42643
30
4.44
0
VERTEX
10
8.60925
20
8.41881
30
4.44
0
VERTEX
10
8.63363
20
8.41881
30
4.44
0
VERTEX
10
8.64581
20
8.42338
30
4.44
0
VERTEX
10
8.67019
20
8.44014
30
4.44
0
VERTEX
10
8.67933
20
8.45233
30
4.44
0
VERTEX
10
8.68085
20
8.46452
30
4.44
0
VERTEX
10
8.68085
20
8.47061
30
4.44
0
VERTEX
10
8.6839
20
8.47671
30
4.44
0
VERTEX
10
8.6839
20
8.4828
30
4.44
0
VERTEX
10
8.6839
20
8.48585
30
4.44
0
VERTEX
10
8.69304
20
8.49651
30
4.44
0
VERTEX
10
8.69914
20
8.50261
30
4.44
0
VERTEX
10
8.70218
20
8.50413
30
4.44
0
VERTEX
10
8.70218
20
8.50718
30
4.44
0
VERTEX
10
8.71132
20
8.51784
30
4.44
0
VERTEX
10
8.71742
20
8.51784
30
4.44
0
VERTEX
10
8.74027
20
8.5346
30
4.44
0
VERTEX
10
8.74484
20
8.54679
30
4.44
0
VERTEX
10
8.74789
20
8.57116
30
4.44
0
VERTEX
10
8.74789
20
8.57421
30
4.44
0
VERTEX
10
8.74484
20
8.57726
30
4.44
0
VERTEX
10
8.73875
20
8.57726
30
4.44
0
VERTEX
10
8.72808
20
8.58487
30
4.44
0
VERTEX
10
8.72199
20
8.58945
30
4.44
0
VERTEX
10
8.71589
20
8.58792
30
4.44
0
VERTEX
10
8.71285
20
8.58335
30
4.44
0
VERTEX
10
8.70675
20
8.5803
30
4.44
0
VERTEX
10
8.70371
20
8.57726
30
4.44
0
VERTEX
10
8.69761
20
8.57573
30
4.44
0
VERTEX
10
8.67324
20
8.55898
30
4.44
0
VERTEX
10
8.66714
20
8.5544
30
4.44
0
VERTEX
10
8.65496
20
8.55136
30
4.44
0
VERTEX
10
8.64886
20
8.54831
30
4.44
0
VERTEX
10
8.62449
20
8.54831
30
4.44
0
VERTEX
10
8.61839
20
8.55136
30
4.44
0
VERTEX
10
8.6123
20
8.55136
30
4.44
0
VERTEX
10
8.60925
20
8.55136
30
4.44
0
VERTEX
10
8.60468
20
8.53917
30
4.44
0
VERTEX
10
8.60011
20
8.5346
30
4.44
0
VERTEX
10
8.59402
20
8.51022
30
4.44
0
VERTEX
10
8.59249
20
8.46147
30
4.44
0
VERTEX
10
8.59097
20
8.43862
30
4.44
0
SEQEND
0
ENDSEC
0
EOF
