0
SECTION
2
ENTITIES
0
POLYLINE
62
31
66
1
70
1
3
contour
0
VERTEX
10
7.7883
20
10.0431
30
7.64
0
VERTEX
10
7.79814
20
10.0332
30
7.64
0
VERTEX
10
7.79814
20
10.0234
30
7.64
0
VERTEX
10
7.82276
20
9.98398
30
7.64
0
VERTEX
10
7.83753
20
9.9446
30
7.64
0
VERTEX
10
7.8326
20
9.90521
30
7.64
0
VERTEX
10
7.82276
20
9.89045
30
7.64
0
VERTEX
10
7.83753
20
9.81168
30
7.64
0
VERTEX
10
7.84245
20
9.73291
30
7.64
0
VERTEX
10
7.86214
20
9.69845
30
7.64
0
VERTEX
10
7.87691
20
9.67875
30
7.64
0
VERTEX
10
7.91137
20
9.65906
30
7.64
0
VERTEX
10
7.94583
20
9.62952
30
7.64
0
VERTEX
10
8.0246
20
9.6246
30
7.64
0
VERTEX
10
8.06399
20
9.6246
30
7.64
0
VERTEX
10
8.10337
20
9.63445
30
7.64
0
VERTEX
10
8.26091
20
9.62952
30
7.64
0
VERTEX
10
8.33968
20
9.62952
30
7.64
0
VERTEX
10
8.41845
20
9.61475
30
7.64
0
VERTEX
10
8.42829
20
9.60491
30
7.64
0
VERTEX
10
8.44799
20
9.60491
30
7.64
0
VERTEX
10
8.45783
20
9.61475
30
7.64
0
VERTEX
10
8.47752
20
9.61968
30
7.64
0
VERTEX
10
8.49722
20
9.63445
30
7.64
0
VERTEX
10
8.50706
20
9.67383
30
7.64
0
VERTEX
10
8.50214
20
9.71322
30
7.64
0
VERTEX
10
8.4726
20
9.74768
30
7.64
0
VERTEX
10
8.43322
20
9.77722
30
7.64
0
VERTEX
10
8.4086
20
9.79691
30
7.64
0
VERTEX
10
8.33476
20
9.83137
30
7.64
0
VERTEX
10
8.30029
20
9.85598
30
7.64
0
VERTEX
10
8.28553
20
9.87568
30
7.64
0
VERTEX
10
8.27076
20
9.88552
30
7.64
0
VERTEX
10
8.25106
20
9.90521
30
7.64
0
VERTEX
10
8.24122
20
9.91506
30
7.64
0
VERTEX
10
8.22645
20
9.99383
30
7.64
0
VERTEX
10
8.22645
20
10.0332
30
7.64
0
VERTEX
10
8.22645
20
10.0529
30
7.64
0
VERTEX
10
8.23629
20
10.0628
30
7.64
0
VERTEX
10
8.24614
20
10.1021
30
7.64
0
VERTEX
10
8.25599
20
10.1071
30
7.64
0
VERTEX
10
8.25599
20
10.1268
30
7.64
0
VERTEX
10
8.27568
20
10.1661
30
7.64
0
VERTEX
10
8.28553
20
10.1858
30
7.64
0
VERTEX
10
8.29045
20
10.2252
30
7.64
0
VERTEX
10
8.30029
20
10.2351
30
7.64
0
VERTEX
10
8.30522
20
10.2744
30
7.64
0
VERTEX
10
8.29537
20
10.2941
30
7.64
0
VERTEX
10
8.26091
20
10.3089
30
7.64
0
VERTEX
10
8.24122
20
10.3188
30
7.64
0
VERTEX
10
8.16245
20
10.3188
30
7.64
0
VERTEX
10
8.14276
20
10.3188
30
7.64
0
VERTEX
10
8.12306
20
10.3286
30
7.64
0
VERTEX
10
8.11322
20
10.3335
30
7.64
0
VERTEX
10
8.10829
20
10.3532
30
7.64
0
VERTEX
10
8.07383
20
10.3778
30
7.64
0
VERTEX
10
8.05906
20
10.4172
30
7.64
0
VERTEX
10
8.05414
20
10.4369
30
7.64
0
VERTEX
10
8.02953
20
10.4615
30
7.64
0
VERTEX
10
7.95076
20
10.4615
30
7.64
0
VERTEX
10
7.91137
20
10.4517
30
7.64
0
VERTEX
10
7.90153
20
10.4517
30
7.64
0
VERTEX
10
7.87691
20
10.4123
30
7.64
0
VERTEX
10
7.86706
20
10.3926
30
7.64
0
VERTEX
10
7.85722
20
10.3877
30
7.64
0
VERTEX
10
7.85722
20
10.3778
30
7.64
0
VERTEX
10
7.83753
20
10.3729
30
7.64
0
VERTEX
10
7.8326
20
10.3532
30
7.64
0
VERTEX
10
7.82276
20
10.3483
30
7.64
0
VERTEX
10
7.82276
20
10.3384
30
7.64
0
VERTEX
10
7.81291
20
10.3286
30
7.64
0
VERTEX
10
7.80799
20
10.2892
30
7.64
0
VERTEX
10
7.81291
20
10.2498
30
7.64
0
VERTEX
10
7.79814
20
10.2104
30
7.64
0
VERTEX
10
7.7883
20
10.1317
30
7.64
0
VERTEX
10
7.7883
20
10.0529
30
7.64
0
VERTEX
10
7.7883
20
10.048
30
7.64
0
SEQEND
0
POLYLINE
62
224
66
1
70
1
3
mitochondrion
0
VERTEX
10
8.0047
20
9.86649
30
7.64
0
VERTEX
10
8.0061
20
9.85537
30
7.64
0
VERTEX
10
8.01305
20
9.83312
30
7.64
0
VERTEX
10
8.01583
20
9.83034
30
7.64
0
VERTEX
10
8.01722
20
9.82478
30
7.64
0
VERTEX
10
8.02139
20
9.81922
30
7.64
0
VERTEX
10
8.02278
20
9.81365
30
7.64
0
VERTEX
10
8.02556
20
9.81087
30
7.64
0
VERTEX
10
8.02556
20
9.80809
30
7.64
0
VERTEX
10
8.02834
20
9.80531
30
7.64
0
VERTEX
10
8.02834
20
9.80253
30
7.64
0
VERTEX
10
8.03112
20
9.79975
30
7.64
0
VERTEX
10
8.03112
20
9.79419
30
7.64
0
VERTEX
10
8.04642
20
9.77333
30
7.64
0
VERTEX
10
8.06866
20
9.75943
30
7.64
0
VERTEX
10
8.07979
20
9.75248
30
7.64
0
VERTEX
10
8.09091
20
9.74969
30
7.64
0
VERTEX
10
8.10204
20
9.74413
30
7.64
0
VERTEX
10
8.1076
20
9.73996
30
7.64
0
VERTEX
10
8.12984
20
9.73301
30
7.64
0
VERTEX
10
8.14097
20
9.73301
30
7.64
0
VERTEX
10
8.16321
20
9.73857
30
7.64
0
VERTEX
10
8.17434
20
9.73996
30
7.64
0
VERTEX
10
8.19658
20
9.7483
30
7.64
0
VERTEX
10
8.20632
20
9.75526
30
7.64
0
VERTEX
10
8.21049
20
9.75943
30
7.64
0
VERTEX
10
8.21188
20
9.76221
30
7.64
0
VERTEX
10
8.21744
20
9.7636
30
7.64
0
VERTEX
10
8.23274
20
9.78585
30
7.64
0
VERTEX
10
8.23969
20
9.79697
30
7.64
0
VERTEX
10
8.24108
20
9.80253
30
7.64
0
VERTEX
10
8.24386
20
9.80531
30
7.64
0
VERTEX
10
8.24525
20
9.82756
30
7.64
0
VERTEX
10
8.24525
20
9.83868
30
7.64
0
VERTEX
10
8.24247
20
9.84424
30
7.64
0
VERTEX
10
8.24386
20
9.84842
30
7.64
0
VERTEX
10
8.24803
20
9.84563
30
7.64
0
VERTEX
10
8.24942
20
9.84842
30
7.64
0
VERTEX
10
8.24247
20
9.85954
30
7.64
0
VERTEX
10
8.2383
20
9.86371
30
7.64
0
VERTEX
10
8.23691
20
9.86927
30
7.64
0
VERTEX
10
8.23691
20
9.87205
30
7.64
0
VERTEX
10
8.21744
20
9.89152
30
7.64
0
VERTEX
10
8.20771
20
9.90264
30
7.64
0
VERTEX
10
8.20493
20
9.90542
30
7.64
0
VERTEX
10
8.20493
20
9.9082
30
7.64
0
VERTEX
10
8.18546
20
9.92906
30
7.64
0
VERTEX
10
8.18268
20
9.93462
30
7.64
0
VERTEX
10
8.1799
20
9.9374
30
7.64
0
VERTEX
10
8.1799
20
9.94018
30
7.64
0
VERTEX
10
8.17017
20
9.94853
30
7.64
0
VERTEX
10
8.1646
20
9.94992
30
7.64
0
VERTEX
10
8.15487
20
9.95826
30
7.64
0
VERTEX
10
8.14792
20
9.96521
30
7.64
0
VERTEX
10
8.12567
20
9.97355
30
7.64
0
VERTEX
10
8.12011
20
9.97773
30
7.64
0
VERTEX
10
8.11455
20
9.97912
30
7.64
0
VERTEX
10
8.10343
20
9.98885
30
7.64
0
VERTEX
10
8.09786
20
9.99302
30
7.64
0
VERTEX
10
8.08813
20
9.99719
30
7.64
0
VERTEX
10
8.07701
20
9.99858
30
7.64
0
VERTEX
10
8.06588
20
9.99719
30
7.64
0
VERTEX
10
8.06032
20
9.99719
30
7.64
0
VERTEX
10
8.05337
20
10.0041
30
7.64
0
VERTEX
10
8.0492
20
9.99997
30
7.64
0
VERTEX
10
8.04364
20
9.99858
30
7.64
0
VERTEX
10
8.01444
20
9.95687
30
7.64
0
VERTEX
10
8.01027
20
9.95131
30
7.64
0
VERTEX
10
8.0061
20
9.94018
30
7.64
0
VERTEX
10
8.0047
20
9.89569
30
7.64
0
VERTEX
10
8.0047
20
9.87344
30
7.64
0
VERTEX
10
8.0047
20
9.86788
30
7.64
0
SEQEND
0
POLYLINE
62
236
66
1
70
1
3
postsynaptic_density
0
VERTEX
10
7.17192
20
8.77688
30
7.64
0
VERTEX
10
7.17566
20
8.77315
30
7.64
0
VERTEX
10
7.17939
20
8.75822
30
7.64
0
VERTEX
10
7.17939
20
8.75075
30
7.64
0
VERTEX
10
7.19432
20
8.74142
30
7.64
0
VERTEX
10
7.22418
20
8.74142
30
7.64
0
VERTEX
10
7.23911
20
8.74329
30
7.64
0
VERTEX
10
7.24284
20
8.74516
30
7.64
0
VERTEX
10
7.24284
20
8.74889
30
7.64
0
VERTEX
10
7.24844
20
8.75635
30
7.64
0
VERTEX
10
7.25031
20
8.76382
30
7.64
0
VERTEX
10
7.25031
20
8.76755
30
7.64
0
VERTEX
10
7.2559
20
8.77502
30
7.64
0
VERTEX
10
7.25964
20
8.80488
30
7.64
0
VERTEX
10
7.26897
20
8.83287
30
7.64
0
VERTEX
10
7.2727
20
8.8366
30
7.64
0
VERTEX
10
7.27083
20
8.86646
30
7.64
0
VERTEX
10
7.27083
20
8.87393
30
7.64
0
VERTEX
10
7.27083
20
8.87766
30
7.64
0
VERTEX
10
7.26524
20
8.88512
30
7.64
0
VERTEX
10
7.2615
20
8.90005
30
7.64
0
VERTEX
10
7.2559
20
8.90565
30
7.64
0
VERTEX
10
7.24844
20
8.90752
30
7.64
0
VERTEX
10
7.24284
20
8.91312
30
7.64
0
VERTEX
10
7.21298
20
8.91872
30
7.64
0
VERTEX
10
7.18312
20
8.92058
30
7.64
0
VERTEX
10
7.17939
20
8.91872
30
7.64
0
VERTEX
10
7.17379
20
8.79928
30
7.64
0
VERTEX
10
7.17192
20
8.78435
30
7.64
0
VERTEX
10
7.17192
20
8.77875
30
7.64
0
SEQEND
0
POLYLINE
62
227
66
1
70
1
3
endoplasmic_reticulum
0
VERTEX
10
8.18188
20
10.2108
30
7.64
0
VERTEX
10
8.18636
20
10.2036
30
7.64
0
VERTEX
10
8.19353
20
10.1991
30
7.64
0
VERTEX
10
8.19712
20
10.1973
30
7.64
0
VERTEX
10
8.20071
20
10.1973
30
7.64
0
VERTEX
10
8.20788
20
10.1946
30
7.64
0
VERTEX
10
8.22222
20
10.1937
30
7.64
0
VERTEX
10
8.2294
20
10.1946
30
7.64
0
VERTEX
10
8.23209
20
10.1973
30
7.64
0
VERTEX
10
8.23657
20
10.2117
30
7.64
0
VERTEX
10
8.23567
20
10.2152
30
7.64
0
VERTEX
10
8.23567
20
10.217
30
7.64
0
VERTEX
10
8.23388
20
10.2179
30
7.64
0
VERTEX
10
8.23388
20
10.2251
30
7.64
0
VERTEX
10
8.2294
20
10.2323
30
7.64
0
VERTEX
10
8.22581
20
10.2341
30
7.64
0
VERTEX
10
8.19712
20
10.2323
30
7.64
0
VERTEX
10
8.18995
20
10.2278
30
7.64
0
VERTEX
10
8.18726
20
10.2242
30
7.64
0
VERTEX
10
8.18547
20
10.2224
30
7.64
0
VERTEX
10
8.18547
20
10.2206
30
7.64
0
VERTEX
10
8.18278
20
10.2179
30
7.64
0
VERTEX
10
8.18188
20
10.2117
30
7.64
0
SEQEND
0
POLYLINE
62
227
66
1
70
1
3
endoplasmic_reticulum
0
VERTEX
10
8.17022
20
10.1471
30
7.64
0
VERTEX
10
8.17202
20
10.1399
30
7.64
0
VERTEX
10
8.18188
20
10.1283
30
7.64
0
VERTEX
10
8.18905
20
10.1256
30
7.64
0
VERTEX
10
8.19622
20
10.1265
30
7.64
0
VERTEX
10
8.19981
20
10.1274
30
7.64
0
VERTEX
10
8.20609
20
10.1319
30
7.64
0
VERTEX
10
8.20967
20
10.1328
30
7.64
0
VERTEX
10
8.21326
20
10.1364
30
7.64
0
VERTEX
10
8.21416
20
10.1507
30
7.64
0
VERTEX
10
8.21416
20
10.1579
30
7.64
0
VERTEX
10
8.21416
20
10.1615
30
7.64
0
VERTEX
10
8.21236
20
10.165
30
7.64
0
VERTEX
10
8.21326
20
10.1659
30
7.64
0
VERTEX
10
8.20698
20
10.1704
30
7.64
0
VERTEX
10
8.19981
20
10.1713
30
7.64
0
VERTEX
10
8.19622
20
10.174
30
7.64
0
VERTEX
10
8.19264
20
10.174
30
7.64
0
VERTEX
10
8.18547
20
10.1713
30
7.64
0
VERTEX
10
8.18188
20
10.1704
30
7.64
0
VERTEX
10
8.18009
20
10.1668
30
7.64
0
VERTEX
10
8.17829
20
10.1668
30
7.64
0
VERTEX
10
8.17471
20
10.1641
30
7.64
0
VERTEX
10
8.17291
20
10.1615
30
7.64
0
VERTEX
10
8.17112
20
10.1606
30
7.64
0
VERTEX
10
8.17022
20
10.1534
30
7.64
0
VERTEX
10
8.17022
20
10.1498
30
7.64
0
VERTEX
10
8.17022
20
10.148
30
7.64
0
SEQEND
0
POLYLINE
62
227
66
1
70
1
3
endoplasmic_reticulum
0
VERTEX
10
8.09491
20
10.2188
30
7.64
0
VERTEX
10
8.09671
20
10.2117
30
7.64
0
VERTEX
10
8.0976
20
10.2081
30
7.64
0
VERTEX
10
8.10298
20
10.2018
30
7.64
0
VERTEX
10
8.11733
20
10.1955
30
7.64
0
VERTEX
10
8.13167
20
10.1964
30
7.64
0
VERTEX
10
8.13885
20
10.1982
30
7.64
0
VERTEX
10
8.14602
20
10.2018
30
7.64
0
VERTEX
10
8.1505
20
10.2081
30
7.64
0
VERTEX
10
8.15229
20
10.2117
30
7.64
0
VERTEX
10
8.14691
20
10.226
30
7.64
0
VERTEX
10
8.14243
20
10.2332
30
7.64
0
VERTEX
10
8.11374
20
10.2386
30
7.64
0
VERTEX
10
8.0994
20
10.235
30
7.64
0
VERTEX
10
8.0976
20
10.2332
30
7.64
0
VERTEX
10
8.0976
20
10.2296
30
7.64
0
VERTEX
10
8.09581
20
10.2278
30
7.64
0
VERTEX
10
8.09491
20
10.2206
30
7.64
0
VERTEX
10
8.09491
20
10.2197
30
7.64
0
SEQEND
0
POLYLINE
62
227
66
1
70
1
3
endoplasmic_reticulum
0
VERTEX
10
7.91202
20
10.3148
30
7.64
0
VERTEX
10
7.9183
20
10.3094
30
7.64
0
VERTEX
10
7.93264
20
10.3085
30
7.64
0
VERTEX
10
7.94519
20
10.3175
30
7.64
0
VERTEX
10
7.94788
20
10.321
30
7.64
0
VERTEX
10
7.94967
20
10.3282
30
7.64
0
VERTEX
10
7.95057
20
10.3318
30
7.64
0
VERTEX
10
7.95057
20
10.3336
30
7.64
0
VERTEX
10
7.94609
20
10.3408
30
7.64
0
VERTEX
10
7.9443
20
10.3435
30
7.64
0
VERTEX
10
7.94071
20
10.3443
30
7.64
0
VERTEX
10
7.93443
20
10.3497
30
7.64
0
VERTEX
10
7.93264
20
10.3506
30
7.64
0
VERTEX
10
7.9183
20
10.3443
30
7.64
0
VERTEX
10
7.9165
20
10.3443
30
7.64
0
VERTEX
10
7.91381
20
10.3408
30
7.64
0
VERTEX
10
7.91381
20
10.3264
30
7.64
0
VERTEX
10
7.91381
20
10.3192
30
7.64
0
VERTEX
10
7.91292
20
10.3166
30
7.64
0
VERTEX
10
7.91202
20
10.3157
30
7.64
0
SEQEND
0
POLYLINE
62
227
66
1
70
1
3
endoplasmic_reticulum
0
VERTEX
10
8.18636
20
10.0117
30
7.64
0
VERTEX
10
8.18816
20
10.0099
30
7.64
0
VERTEX
10
8.18905
20
10.0064
30
7.64
0
VERTEX
10
8.19891
20
9.99201
30
7.64
0
VERTEX
10
8.19981
20
9.99021
30
7.64
0
VERTEX
10
8.20698
20
9.98752
30
7.64
0
VERTEX
10
8.20878
20
9.98573
30
7.64
0
VERTEX
10
8.20967
20
9.98214
30
7.64
0
VERTEX
10
8.21416
20
9.97497
30
7.64
0
VERTEX
10
8.21774
20
9.97318
30
7.64
0
VERTEX
10
8.2276
20
9.95973
30
7.64
0
VERTEX
10
8.23567
20
9.94718
30
7.64
0
VERTEX
10
8.23567
20
9.94539
30
7.64
0
VERTEX
10
8.24195
20
9.9409
30
7.64
0
VERTEX
10
8.24464
20
9.93732
30
7.64
0
VERTEX
10
8.24643
20
9.93732
30
7.64
0
VERTEX
10
8.25181
20
9.93104
30
7.64
0
VERTEX
10
8.2554
20
9.92925
30
7.64
0
VERTEX
10
8.25988
20
9.92297
30
7.64
0
VERTEX
10
8.26257
20
9.9158
30
7.64
0
VERTEX
10
8.26884
20
9.90863
30
7.64
0
VERTEX
10
8.27064
20
9.90504
30
7.64
0
VERTEX
10
8.27243
20
9.90504
30
7.64
0
VERTEX
10
8.27871
20
9.89966
30
7.64
0
VERTEX
10
8.2796
20
9.89787
30
7.64
0
VERTEX
10
8.29395
20
9.89608
30
7.64
0
VERTEX
10
8.30829
20
9.89877
30
7.64
0
VERTEX
10
8.31009
20
9.89877
30
7.64
0
VERTEX
10
8.31188
20
9.90235
30
7.64
0
VERTEX
10
8.31188
20
9.90952
30
7.64
0
VERTEX
10
8.31009
20
9.9167
30
7.64
0
VERTEX
10
8.30919
20
9.92028
30
7.64
0
VERTEX
10
8.30022
20
9.93283
30
7.64
0
VERTEX
10
8.29574
20
9.94001
30
7.64
0
VERTEX
10
8.29395
20
9.94359
30
7.64
0
VERTEX
10
8.29036
20
9.94449
30
7.64
0
VERTEX
10
8.28767
20
9.94808
30
7.64
0
VERTEX
10
8.28498
20
9.95525
30
7.64
0
VERTEX
10
8.27871
20
9.96242
30
7.64
0
VERTEX
10
8.27512
20
9.96242
30
7.64
0
VERTEX
10
8.27064
20
9.9669
30
7.64
0
VERTEX
10
8.26884
20
9.97408
30
7.64
0
VERTEX
10
8.26705
20
9.97677
30
7.64
0
VERTEX
10
8.2554
20
9.99111
30
7.64
0
VERTEX
10
8.2545
20
9.9947
30
7.64
0
VERTEX
10
8.23478
20
10.0225
30
7.64
0
VERTEX
10
8.2294
20
10.0288
30
7.64
0
VERTEX
10
8.22491
20
10.0431
30
7.64
0
VERTEX
10
8.22222
20
10.0494
30
7.64
0
VERTEX
10
8.21774
20
10.0557
30
7.64
0
VERTEX
10
8.21326
20
10.07
30
7.64
0
VERTEX
10
8.21326
20
10.0718
30
7.64
0
VERTEX
10
8.21147
20
10.0727
30
7.64
0
VERTEX
10
8.20609
20
10.0655
30
7.64
0
VERTEX
10
8.2025
20
10.0619
30
7.64
0
VERTEX
10
8.20071
20
10.0476
30
7.64
0
VERTEX
10
8.19533
20
10.0332
30
7.64
0
VERTEX
10
8.19264
20
10.0261
30
7.64
0
VERTEX
10
8.18816
20
10.0189
30
7.64
0
VERTEX
10
8.18636
20
10.0153
30
7.64
0
VERTEX
10
8.18636
20
10.0126
30
7.64
0
SEQEND
0
POLYLINE
62
227
66
1
70
1
3
endoplasmic_reticulum
0
VERTEX
10
8.3056
20
9.83421
30
7.64
0
VERTEX
10
8.30829
20
9.82704
30
7.64
0
VERTEX
10
8.30919
20
9.82346
30
7.64
0
VERTEX
10
8.30919
20
9.82166
30
7.64
0
VERTEX
10
8.31278
20
9.81897
30
7.64
0
VERTEX
10
8.32712
20
9.81449
30
7.64
0
VERTEX
10
8.32891
20
9.8127
30
7.64
0
VERTEX
10
8.34326
20
9.80911
30
7.64
0
VERTEX
10
8.35043
20
9.80911
30
7.64
0
VERTEX
10
8.3576
20
9.8127
30
7.64
0
VERTEX
10
8.3594
20
9.8127
30
7.64
0
VERTEX
10
8.36209
20
9.81628
30
7.64
0
VERTEX
10
8.36029
20
9.83063
30
7.64
0
VERTEX
10
8.3594
20
9.83421
30
7.64
0
VERTEX
10
8.35671
20
9.8369
30
7.64
0
VERTEX
10
8.35581
20
9.84049
30
7.64
0
VERTEX
10
8.35133
20
9.84677
30
7.64
0
VERTEX
10
8.34684
20
9.85125
30
7.64
0
VERTEX
10
8.34236
20
9.85752
30
7.64
0
VERTEX
10
8.33519
20
9.86201
30
7.64
0
VERTEX
10
8.32802
20
9.8647
30
7.64
0
VERTEX
10
8.31367
20
9.85932
30
7.64
0
VERTEX
10
8.31009
20
9.85663
30
7.64
0
VERTEX
10
8.30919
20
9.84946
30
7.64
0
VERTEX
10
8.3074
20
9.84587
30
7.64
0
VERTEX
10
8.3074
20
9.8387
30
7.64
0
VERTEX
10
8.3056
20
9.83601
30
7.64
0
VERTEX
10
8.3056
20
9.83511
30
7.64
0
SEQEND
0
POLYLINE
62
227
66
1
70
1
3
endoplasmic_reticulum
0
VERTEX
10
8.15588
20
9.66477
30
7.64
0
VERTEX
10
8.15767
20
9.66297
30
7.64
0
VERTEX
10
8.16485
20
9.66028
30
7.64
0
VERTEX
10
8.17112
20
9.66387
30
7.64
0
VERTEX
10
8.17291
20
9.66387
30
7.64
0
VERTEX
10
8.17919
20
9.67104
30
7.64
0
VERTEX
10
8.18098
20
9.67463
30
7.64
0
VERTEX
10
8.18457
20
9.67732
30
7.64
0
VERTEX
10
8.18636
20
9.67732
30
7.64
0
VERTEX
10
8.19981
20
9.68718
30
7.64
0
VERTEX
10
8.20609
20
9.69256
30
7.64
0
VERTEX
10
8.20967
20
9.7069
30
7.64
0
VERTEX
10
8.21416
20
9.71408
30
7.64
0
VERTEX
10
8.21685
20
9.72125
30
7.64
0
VERTEX
10
8.22581
20
9.7347
30
7.64
0
VERTEX
10
8.23209
20
9.74008
30
7.64
0
VERTEX
10
8.23388
20
9.74187
30
7.64
0
VERTEX
10
8.23747
20
9.74277
30
7.64
0
VERTEX
10
8.24105
20
9.74994
30
7.64
0
VERTEX
10
8.24374
20
9.75173
30
7.64
0
VERTEX
10
8.24912
20
9.7589
30
7.64
0
VERTEX
10
8.25271
20
9.76249
30
7.64
0
VERTEX
10
8.2545
20
9.76428
30
7.64
0
VERTEX
10
8.2554
20
9.76787
30
7.64
0
VERTEX
10
8.25809
20
9.76966
30
7.64
0
VERTEX
10
8.26526
20
9.77594
30
7.64
0
VERTEX
10
8.27064
20
9.78132
30
7.64
0
VERTEX
10
8.27422
20
9.78311
30
7.64
0
VERTEX
10
8.27602
20
9.7867
30
7.64
0
VERTEX
10
8.28767
20
9.79477
30
7.64
0
VERTEX
10
8.29036
20
9.79656
30
7.64
0
VERTEX
10
8.29395
20
9.79656
30
7.64
0
VERTEX
10
8.30112
20
9.79925
30
7.64
0
VERTEX
10
8.30471
20
9.80015
30
7.64
0
VERTEX
10
8.3065
20
9.80194
30
7.64
0
VERTEX
10
8.31367
20
9.80194
30
7.64
0
VERTEX
10
8.31636
20
9.80463
30
7.64
0
VERTEX
10
8.30919
20
9.8109
30
7.64
0
VERTEX
10
8.3074
20
9.8127
30
7.64
0
VERTEX
10
8.30112
20
9.81539
30
7.64
0
VERTEX
10
8.29395
20
9.81628
30
7.64
0
VERTEX
10
8.29036
20
9.81539
30
7.64
0
VERTEX
10
8.28857
20
9.81359
30
7.64
0
VERTEX
10
8.2814
20
9.8118
30
7.64
0
VERTEX
10
8.27781
20
9.81001
30
7.64
0
VERTEX
10
8.27153
20
9.80284
30
7.64
0
VERTEX
10
8.25809
20
9.79297
30
7.64
0
VERTEX
10
8.24374
20
9.7849
30
7.64
0
VERTEX
10
8.23657
20
9.77863
30
7.64
0
VERTEX
10
8.23388
20
9.77504
30
7.64
0
VERTEX
10
8.22222
20
9.76518
30
7.64
0
VERTEX
10
8.22222
20
9.76339
30
7.64
0
VERTEX
10
8.21774
20
9.75621
30
7.64
0
VERTEX
10
8.21416
20
9.75532
30
7.64
0
VERTEX
10
8.21236
20
9.75532
30
7.64
0
VERTEX
10
8.20967
20
9.75173
30
7.64
0
VERTEX
10
8.20967
20
9.74994
30
7.64
0
VERTEX
10
8.20788
20
9.74994
30
7.64
0
VERTEX
10
8.20429
20
9.74725
30
7.64
0
VERTEX
10
8.2025
20
9.74366
30
7.64
0
VERTEX
10
8.2025
20
9.74008
30
7.64
0
VERTEX
10
8.19802
20
9.7338
30
7.64
0
VERTEX
10
8.19533
20
9.72663
30
7.64
0
VERTEX
10
8.19174
20
9.72394
30
7.64
0
VERTEX
10
8.18995
20
9.72215
30
7.64
0
VERTEX
10
8.18995
20
9.72035
30
7.64
0
VERTEX
10
8.18816
20
9.71856
30
7.64
0
VERTEX
10
8.18816
20
9.71677
30
7.64
0
VERTEX
10
8.18278
20
9.70959
30
7.64
0
VERTEX
10
8.1765
20
9.70511
30
7.64
0
VERTEX
10
8.17471
20
9.70511
30
7.64
0
VERTEX
10
8.16933
20
9.69794
30
7.64
0
VERTEX
10
8.16754
20
9.69525
30
7.64
0
VERTEX
10
8.16126
20
9.68897
30
7.64
0
VERTEX
10
8.15857
20
9.6818
30
7.64
0
VERTEX
10
8.15857
20
9.68001
30
7.64
0
VERTEX
10
8.15678
20
9.67822
30
7.64
0
VERTEX
10
8.15588
20
9.67104
30
7.64
0
VERTEX
10
8.15588
20
9.66746
30
7.64
0
VERTEX
10
8.15588
20
9.66566
30
7.64
0
SEQEND
0
POLYLINE
62
31
66
1
70
1
3
contour
0
VERTEX
10
7.21708
20
8.81578
30
7.64
0
VERTEX
10
7.22152
20
8.79212
30
7.64
0
VERTEX
10
7.22152
20
8.78029
30
7.64
0
VERTEX
10
7.23187
20
8.75663
30
7.64
0
VERTEX
10
7.24814
20
8.73296
30
7.64
0
VERTEX
10
7.25701
20
8.72409
30
7.64
0
VERTEX
10
7.27919
20
8.70782
30
7.64
0
VERTEX
10
7.28511
20
8.70486
30
7.64
0
VERTEX
10
7.30877
20
8.70486
30
7.64
0
VERTEX
10
7.3206
20
8.70486
30
7.64
0
VERTEX
10
7.33096
20
8.71078
30
7.64
0
VERTEX
10
7.34279
20
8.71226
30
7.64
0
VERTEX
10
7.3487
20
8.71226
30
7.64
0
VERTEX
10
7.35166
20
8.71226
30
7.64
0
VERTEX
10
7.36201
20
8.72113
30
7.64
0
VERTEX
10
7.36497
20
8.72113
30
7.64
0
VERTEX
10
7.37384
20
8.73001
30
7.64
0
VERTEX
10
7.39603
20
8.74923
30
7.64
0
VERTEX
10
7.40047
20
8.75367
30
7.64
0
VERTEX
10
7.4049
20
8.7655
30
7.64
0
VERTEX
10
7.43448
20
8.80839
30
7.64
0
VERTEX
10
7.44335
20
8.81874
30
7.64
0
VERTEX
10
7.44483
20
8.83057
30
7.64
0
VERTEX
10
7.44335
20
8.8424
30
7.64
0
VERTEX
10
7.44483
20
8.85423
30
7.64
0
VERTEX
10
7.44927
20
8.85867
30
7.64
0
VERTEX
10
7.45371
20
8.8705
30
7.64
0
VERTEX
10
7.46258
20
8.87938
30
7.64
0
VERTEX
10
7.46258
20
8.88233
30
7.64
0
VERTEX
10
7.46997
20
8.89269
30
7.64
0
VERTEX
10
7.47293
20
8.8986
30
7.64
0
VERTEX
10
7.47589
20
8.90156
30
7.64
0
VERTEX
10
7.47737
20
8.90747
30
7.64
0
VERTEX
10
7.48624
20
8.91635
30
7.64
0
VERTEX
10
7.49216
20
8.92818
30
7.64
0
VERTEX
10
7.49364
20
8.94001
30
7.64
0
VERTEX
10
7.49807
20
8.94445
30
7.64
0
VERTEX
10
7.50251
20
8.95628
30
7.64
0
VERTEX
10
7.50695
20
8.96219
30
7.64
0
VERTEX
10
7.50695
20
8.96811
30
7.64
0
VERTEX
10
7.5099
20
8.97403
30
7.64
0
VERTEX
10
7.5099
20
8.97994
30
7.64
0
VERTEX
10
7.50251
20
8.99029
30
7.64
0
VERTEX
10
7.47885
20
8.99325
30
7.64
0
VERTEX
10
7.45519
20
8.99177
30
7.64
0
VERTEX
10
7.44335
20
8.98881
30
7.64
0
VERTEX
10
7.3487
20
8.98734
30
7.64
0
VERTEX
10
7.30138
20
8.99177
30
7.64
0
VERTEX
10
7.28955
20
8.99177
30
7.64
0
VERTEX
10
7.26588
20
8.98734
30
7.64
0
VERTEX
10
7.25405
20
8.97994
30
7.64
0
VERTEX
10
7.24962
20
8.97698
30
7.64
0
VERTEX
10
7.24518
20
8.97107
30
7.64
0
VERTEX
10
7.2437
20
8.96515
30
7.64
0
VERTEX
10
7.23631
20
8.95332
30
7.64
0
VERTEX
10
7.23631
20
8.95036
30
7.64
0
VERTEX
10
7.23335
20
8.94741
30
7.64
0
VERTEX
10
7.22743
20
8.92374
30
7.64
0
VERTEX
10
7.22448
20
8.90008
30
7.64
0
VERTEX
10
7.22448
20
8.87642
30
7.64
0
VERTEX
10
7.223
20
8.86459
30
7.64
0
VERTEX
10
7.21856
20
8.85275
30
7.64
0
VERTEX
10
7.21708
20
8.82909
30
7.64
0
VERTEX
10
7.21708
20
8.81726
30
7.64
0
SEQEND
0
ENDSEC
0
EOF
