0
SECTION
2
ENTITIES
0
POLYLINE
62
31
66
1
70
1
3
contour
0
VERTEX
10
8.4615
20
8.36615
30
4.36
0
VERTEX
10
8.46593
20
8.34841
30
4.36
0
VERTEX
10
8.46815
20
8.34398
30
4.36
0
VERTEX
10
8.48589
20
8.33733
30
4.36
0
VERTEX
10
8.49476
20
8.33067
30
4.36
0
VERTEX
10
8.4992
20
8.33067
30
4.36
0
VERTEX
10
8.50806
20
8.32402
30
4.36
0
VERTEX
10
8.54354
20
8.31072
30
4.36
0
VERTEX
10
8.55906
20
8.29963
30
4.36
0
VERTEX
10
8.5768
20
8.29298
30
4.36
0
VERTEX
10
8.58567
20
8.28854
30
4.36
0
VERTEX
10
8.60341
20
8.28633
30
4.36
0
VERTEX
10
8.60785
20
8.28633
30
4.36
0
VERTEX
10
8.6145
20
8.27968
30
4.36
0
VERTEX
10
8.63224
20
8.27524
30
4.36
0
VERTEX
10
8.64111
20
8.26637
30
4.36
0
VERTEX
10
8.65885
20
8.2575
30
4.36
0
VERTEX
10
8.67659
20
8.25528
30
4.36
0
VERTEX
10
8.68545
20
8.24863
30
4.36
0
VERTEX
10
8.72093
20
8.24641
30
4.36
0
VERTEX
10
8.75641
20
8.24863
30
4.36
0
VERTEX
10
8.77415
20
8.25307
30
4.36
0
VERTEX
10
8.80963
20
8.25307
30
4.36
0
VERTEX
10
8.82737
20
8.25972
30
4.36
0
VERTEX
10
8.84511
20
8.25972
30
4.36
0
VERTEX
10
8.85398
20
8.2575
30
4.36
0
VERTEX
10
8.87171
20
8.26194
30
4.36
0
VERTEX
10
8.88945
20
8.26194
30
4.36
0
VERTEX
10
8.96041
20
8.27302
30
4.36
0
VERTEX
10
8.97815
20
8.27746
30
4.36
0
VERTEX
10
9.12006
20
8.27746
30
4.36
0
VERTEX
10
9.15554
20
8.27968
30
4.36
0
VERTEX
10
9.17328
20
8.27968
30
4.36
0
VERTEX
10
9.18215
20
8.27968
30
4.36
0
VERTEX
10
9.18658
20
8.27968
30
4.36
0
VERTEX
10
9.19102
20
8.28411
30
4.36
0
VERTEX
10
9.20876
20
8.28411
30
4.36
0
VERTEX
10
9.27971
20
8.30407
30
4.36
0
VERTEX
10
9.35067
20
8.31737
30
4.36
0
VERTEX
10
9.38615
20
8.32624
30
4.36
0
VERTEX
10
9.41941
20
8.34176
30
4.36
0
VERTEX
10
9.43714
20
8.3462
30
4.36
0
VERTEX
10
9.44601
20
8.35063
30
4.36
0
VERTEX
10
9.48149
20
8.35507
30
4.36
0
VERTEX
10
9.49036
20
8.35507
30
4.36
0
VERTEX
10
9.49923
20
8.35063
30
4.36
0
VERTEX
10
9.53471
20
8.3462
30
4.36
0
VERTEX
10
9.55245
20
8.3462
30
4.36
0
VERTEX
10
9.58793
20
8.33954
30
4.36
0
VERTEX
10
9.65888
20
8.33733
30
4.36
0
VERTEX
10
9.69436
20
8.33954
30
4.36
0
VERTEX
10
9.7121
20
8.34176
30
4.36
0
VERTEX
10
9.72097
20
8.34398
30
4.36
0
VERTEX
10
9.7254
20
8.34398
30
4.36
0
VERTEX
10
9.72762
20
8.34841
30
4.36
0
VERTEX
10
9.73649
20
8.35063
30
4.36
0
VERTEX
10
9.75423
20
8.36394
30
4.36
0
VERTEX
10
9.7631
20
8.37281
30
4.36
0
VERTEX
10
9.7764
20
8.38389
30
4.36
0
VERTEX
10
9.81188
20
8.4105
30
4.36
0
VERTEX
10
9.8274
20
8.42159
30
4.36
0
VERTEX
10
9.84514
20
8.42824
30
4.36
0
VERTEX
10
9.85845
20
8.44598
30
4.36
0
VERTEX
10
9.87397
20
8.45485
30
4.36
0
VERTEX
10
9.88284
20
8.4615
30
4.36
0
VERTEX
10
9.88505
20
8.47037
30
4.36
0
VERTEX
10
9.89392
20
8.4748
30
4.36
0
VERTEX
10
9.90945
20
8.49254
30
4.36
0
VERTEX
10
9.9161
20
8.4992
30
4.36
0
VERTEX
10
9.92275
20
8.51693
30
4.36
0
VERTEX
10
9.92275
20
8.58789
30
4.36
0
VERTEX
10
9.92053
20
8.62337
30
4.36
0
VERTEX
10
9.92275
20
8.65885
30
4.36
0
VERTEX
10
9.92053
20
8.69432
30
4.36
0
VERTEX
10
9.91388
20
8.72758
30
4.36
0
VERTEX
10
9.90723
20
8.73645
30
4.36
0
VERTEX
10
9.90501
20
8.75419
30
4.36
0
VERTEX
10
9.90501
20
8.76306
30
4.36
0
VERTEX
10
9.89836
20
8.77193
30
4.36
0
VERTEX
10
9.89836
20
8.7808
30
4.36
0
VERTEX
10
9.88284
20
8.79411
30
4.36
0
VERTEX
10
9.88284
20
8.79854
30
4.36
0
VERTEX
10
9.85179
20
8.82958
30
4.36
0
VERTEX
10
9.83849
20
8.84067
30
4.36
0
VERTEX
10
9.82297
20
8.84732
30
4.36
0
VERTEX
10
9.80745
20
8.85841
30
4.36
0
VERTEX
10
9.79858
20
8.86063
30
4.36
0
VERTEX
10
9.78084
20
8.87171
30
4.36
0
VERTEX
10
9.7764
20
8.87615
30
4.36
0
VERTEX
10
9.76753
20
8.87837
30
4.36
0
VERTEX
10
9.76088
20
8.88502
30
4.36
0
VERTEX
10
9.74314
20
8.88724
30
4.36
0
VERTEX
10
9.7254
20
8.89389
30
4.36
0
VERTEX
10
9.70766
20
8.89611
30
4.36
0
VERTEX
10
9.67219
20
8.90719
30
4.36
0
VERTEX
10
9.66332
20
8.90719
30
4.36
0
VERTEX
10
9.64558
20
8.91384
30
4.36
0
VERTEX
10
9.63671
20
8.91606
30
4.36
0
VERTEX
10
9.63227
20
8.91606
30
4.36
0
VERTEX
10
9.62784
20
8.9205
30
4.36
0
VERTEX
10
9.6101
20
8.92493
30
4.36
0
VERTEX
10
9.59236
20
8.93602
30
4.36
0
VERTEX
10
9.58349
20
8.93602
30
4.36
0
VERTEX
10
9.57462
20
8.94045
30
4.36
0
VERTEX
10
9.55688
20
8.94267
30
4.36
0
VERTEX
10
9.5214
20
8.95376
30
4.36
0
VERTEX
10
9.51697
20
8.95376
30
4.36
0
VERTEX
10
9.51254
20
8.95819
30
4.36
0
VERTEX
10
9.47706
20
8.96484
30
4.36
0
VERTEX
10
9.44158
20
8.96263
30
4.36
0
VERTEX
10
9.42384
20
8.96484
30
4.36
0
VERTEX
10
9.35288
20
8.96263
30
4.36
0
VERTEX
10
9.34401
20
8.96484
30
4.36
0
VERTEX
10
9.33958
20
8.96263
30
4.36
0
VERTEX
10
9.33958
20
8.95819
30
4.36
0
VERTEX
10
9.3041
20
8.9471
30
4.36
0
VERTEX
10
9.26862
20
8.94267
30
4.36
0
VERTEX
10
9.25089
20
8.93824
30
4.36
0
VERTEX
10
9.24645
20
8.93824
30
4.36
0
VERTEX
10
9.24202
20
8.9338
30
4.36
0
VERTEX
10
9.20654
20
8.93158
30
4.36
0
VERTEX
10
9.13558
20
8.9205
30
4.36
0
VERTEX
10
9.11784
20
8.91828
30
4.36
0
VERTEX
10
9.10897
20
8.91384
30
4.36
0
VERTEX
10
9.0735
20
8.90719
30
4.36
0
VERTEX
10
9.03802
20
8.89389
30
4.36
0
VERTEX
10
9.02028
20
8.89167
30
4.36
0
VERTEX
10
9.00476
20
8.8828
30
4.36
0
VERTEX
10
8.99589
20
8.87615
30
4.36
0
VERTEX
10
8.98702
20
8.87393
30
4.36
0
VERTEX
10
8.97815
20
8.86728
30
4.36
0
VERTEX
10
8.97371
20
8.86728
30
4.36
0
VERTEX
10
8.93824
20
8.83624
30
4.36
0
VERTEX
10
8.9205
20
8.82515
30
4.36
0
VERTEX
10
8.91606
20
8.8185
30
4.36
0
VERTEX
10
8.90719
20
8.81185
30
4.36
0
VERTEX
10
8.90276
20
8.81185
30
4.36
0
VERTEX
10
8.89389
20
8.80519
30
4.36
0
VERTEX
10
8.82293
20
8.7808
30
4.36
0
VERTEX
10
8.78745
20
8.77415
30
4.36
0
VERTEX
10
8.76971
20
8.7675
30
4.36
0
VERTEX
10
8.75198
20
8.7675
30
4.36
0
VERTEX
10
8.7165
20
8.75641
30
4.36
0
VERTEX
10
8.69876
20
8.75641
30
4.36
0
VERTEX
10
8.66328
20
8.74311
30
4.36
0
VERTEX
10
8.64554
20
8.74089
30
4.36
0
VERTEX
10
8.61006
20
8.72537
30
4.36
0
VERTEX
10
8.60119
20
8.72315
30
4.36
0
VERTEX
10
8.58346
20
8.70985
30
4.36
0
VERTEX
10
8.55463
20
8.68102
30
4.36
0
VERTEX
10
8.54354
20
8.66328
30
4.36
0
VERTEX
10
8.52802
20
8.64998
30
4.36
0
VERTEX
10
8.50585
20
8.61672
30
4.36
0
VERTEX
10
8.4992
20
8.59898
30
4.36
0
VERTEX
10
8.49698
20
8.52802
30
4.36
0
VERTEX
10
8.49698
20
8.49254
30
4.36
0
VERTEX
10
8.49476
20
8.4748
30
4.36
0
VERTEX
10
8.49476
20
8.46593
30
4.36
0
VERTEX
10
8.48811
20
8.45928
30
4.36
0
VERTEX
10
8.48589
20
8.45041
30
4.36
0
VERTEX
10
8.48589
20
8.44598
30
4.36
0
VERTEX
10
8.48146
20
8.44154
30
4.36
0
VERTEX
10
8.48146
20
8.43711
30
4.36
0
VERTEX
10
8.4748
20
8.42824
30
4.36
0
VERTEX
10
8.47037
20
8.4238
30
4.36
0
VERTEX
10
8.47037
20
8.40607
30
4.36
0
VERTEX
10
8.4615
20
8.38833
30
4.36
0
VERTEX
10
8.4615
20
8.37059
30
4.36
0
VERTEX
10
8.4615
20
8.36837
30
4.36
0
SEQEND
0
POLYLINE
62
31
66
1
70
1
3
contour
0
VERTEX
10
7.84252
20
7.82894
30
4.36
0
VERTEX
10
7.84795
20
7.74205
30
4.36
0
VERTEX
10
7.85338
20
7.6986
30
4.36
0
VERTEX
10
7.85338
20
7.68774
30
4.36
0
VERTEX
10
7.88054
20
7.647
30
4.36
0
VERTEX
10
7.88054
20
7.64157
30
4.36
0
VERTEX
10
7.88869
20
7.63071
30
4.36
0
VERTEX
10
7.89683
20
7.60898
30
4.36
0
VERTEX
10
7.91584
20
7.58998
30
4.36
0
VERTEX
10
7.95929
20
7.58998
30
4.36
0
VERTEX
10
7.98102
20
7.58998
30
4.36
0
VERTEX
10
7.99188
20
7.58998
30
4.36
0
VERTEX
10
8.00274
20
7.59812
30
4.36
0
VERTEX
10
8.02446
20
7.60355
30
4.36
0
VERTEX
10
8.03533
20
7.6117
30
4.36
0
VERTEX
10
8.04619
20
7.6117
30
4.36
0
VERTEX
10
8.05162
20
7.6117
30
4.36
0
VERTEX
10
8.05705
20
7.61713
30
4.36
0
VERTEX
10
8.06791
20
7.61985
30
4.36
0
VERTEX
10
8.10865
20
7.647
30
4.36
0
VERTEX
10
8.12766
20
7.66058
30
4.36
0
VERTEX
10
8.14666
20
7.67959
30
4.36
0
VERTEX
10
8.15481
20
7.69045
30
4.36
0
VERTEX
10
8.15753
20
7.70131
30
4.36
0
VERTEX
10
8.1874
20
7.74205
30
4.36
0
VERTEX
10
8.20098
20
7.76377
30
4.36
0
VERTEX
10
8.20641
20
7.77463
30
4.36
0
VERTEX
10
8.21184
20
7.78006
30
4.36
0
VERTEX
10
8.21455
20
7.80179
30
4.36
0
VERTEX
10
8.23085
20
7.84524
30
4.36
0
VERTEX
10
8.23356
20
7.88869
30
4.36
0
VERTEX
10
8.21998
20
7.93214
30
4.36
0
VERTEX
10
8.21727
20
7.943
30
4.36
0
VERTEX
10
8.21184
20
7.94843
30
4.36
0
VERTEX
10
8.19283
20
7.99188
30
4.36
0
VERTEX
10
8.1874
20
7.99188
30
4.36
0
VERTEX
10
8.17925
20
8.00274
30
4.36
0
VERTEX
10
8.13852
20
8.03261
30
4.36
0
VERTEX
10
8.11679
20
8.04619
30
4.36
0
VERTEX
10
8.07334
20
8.05977
30
4.36
0
VERTEX
10
8.0299
20
8.06248
30
4.36
0
VERTEX
10
8.01903
20
8.06248
30
4.36
0
VERTEX
10
8.0136
20
8.06248
30
4.36
0
VERTEX
10
8.0136
20
8.07334
30
4.36
0
VERTEX
10
8.01089
20
8.07878
30
4.36
0
VERTEX
10
7.98916
20
8.07063
30
4.36
0
VERTEX
10
7.96744
20
8.06791
30
4.36
0
VERTEX
10
7.95658
20
8.06248
30
4.36
0
VERTEX
10
7.95114
20
8.06248
30
4.36
0
VERTEX
10
7.94571
20
8.05705
30
4.36
0
VERTEX
10
7.94028
20
8.05705
30
4.36
0
VERTEX
10
7.92942
20
8.04619
30
4.36
0
VERTEX
10
7.92399
20
8.04619
30
4.36
0
VERTEX
10
7.89683
20
8.01089
30
4.36
0
VERTEX
10
7.8914
20
8.00002
30
4.36
0
VERTEX
10
7.87782
20
7.98916
30
4.36
0
VERTEX
10
7.87239
20
7.98916
30
4.36
0
VERTEX
10
7.85882
20
7.96744
30
4.36
0
VERTEX
10
7.85067
20
7.94571
30
4.36
0
VERTEX
10
7.84524
20
7.93757
30
4.36
0
VERTEX
10
7.84252
20
7.85067
30
4.36
0
VERTEX
10
7.84252
20
7.83166
30
4.36
0
SEQEND
0
POLYLINE
62
31
66
1
70
1
3
contour
0
VERTEX
10
9.64498
20
9.61426
30
4.36
0
VERTEX
10
9.64908
20
9.59788
30
4.36
0
VERTEX
10
9.65113
20
9.58968
30
4.36
0
VERTEX
10
9.65727
20
9.58354
30
4.36
0
VERTEX
10
9.66547
20
9.58559
30
4.36
0
VERTEX
10
9.67366
20
9.59173
30
4.36
0
VERTEX
10
9.68185
20
9.59173
30
4.36
0
VERTEX
10
9.69824
20
9.59788
30
4.36
0
VERTEX
10
9.71462
20
9.60812
30
4.36
0
VERTEX
10
9.71462
20
9.61221
30
4.36
0
VERTEX
10
9.73101
20
9.61836
30
4.36
0
VERTEX
10
9.74125
20
9.63065
30
4.36
0
VERTEX
10
9.74944
20
9.63679
30
4.36
0
VERTEX
10
9.75149
20
9.64089
30
4.36
0
VERTEX
10
9.74944
20
9.64498
30
4.36
0
VERTEX
10
9.77607
20
9.67571
30
4.36
0
VERTEX
10
9.78836
20
9.70848
30
4.36
0
VERTEX
10
9.79246
20
9.72486
30
4.36
0
VERTEX
10
9.79655
20
9.73306
30
4.36
0
VERTEX
10
9.81294
20
9.74739
30
4.36
0
VERTEX
10
9.81703
20
9.75559
30
4.36
0
VERTEX
10
9.83137
20
9.76993
30
4.36
0
VERTEX
10
9.83956
20
9.77812
30
4.36
0
VERTEX
10
9.8539
20
9.78836
30
4.36
0
VERTEX
10
9.858
20
9.79246
30
4.36
0
VERTEX
10
9.89077
20
9.80474
30
4.36
0
VERTEX
10
9.89077
20
9.80884
30
4.36
0
VERTEX
10
9.89896
20
9.81089
30
4.36
0
VERTEX
10
9.90306
20
9.81294
30
4.36
0
VERTEX
10
9.9092
20
9.82727
30
4.36
0
VERTEX
10
9.92354
20
9.83342
30
4.36
0
VERTEX
10
9.93583
20
9.84776
30
4.36
0
VERTEX
10
9.94197
20
9.8539
30
4.36
0
VERTEX
10
9.94402
20
9.87029
30
4.36
0
VERTEX
10
9.95426
20
9.88667
30
4.36
0
VERTEX
10
9.95836
20
9.91944
30
4.36
0
VERTEX
10
9.97065
20
9.95017
30
4.36
0
VERTEX
10
9.9727
20
9.98294
30
4.36
0
VERTEX
10
9.97679
20
9.99113
30
4.36
0
VERTEX
10
9.97884
20
10.0239
30
4.36
0
VERTEX
10
9.98089
20
10.0321
30
4.36
0
VERTEX
10
9.98703
20
10.0403
30
4.36
0
VERTEX
10
9.98703
20
10.0567
30
4.36
0
VERTEX
10
9.98703
20
10.0649
30
4.36
0
VERTEX
10
9.9727
20
10.0772
30
4.36
0
VERTEX
10
9.96246
20
10.0894
30
4.36
0
VERTEX
10
9.94607
20
10.0976
30
4.36
0
VERTEX
10
9.93788
20
10.0976
30
4.36
0
VERTEX
10
9.90511
20
10.1099
30
4.36
0
VERTEX
10
9.88872
20
10.1079
30
4.36
0
VERTEX
10
9.87234
20
10.0976
30
4.36
0
VERTEX
10
9.86209
20
10.0833
30
4.36
0
VERTEX
10
9.83547
20
10.0567
30
4.36
0
VERTEX
10
9.82318
20
10.0423
30
4.36
0
VERTEX
10
9.81703
20
10.0341
30
4.36
0
VERTEX
10
9.81294
20
10.03
30
4.36
0
VERTEX
10
9.81294
20
10.026
30
4.36
0
VERTEX
10
9.80065
20
10.0096
30
4.36
0
VERTEX
10
9.7945
20
10.0014
30
4.36
0
VERTEX
10
9.79041
20
9.98499
30
4.36
0
VERTEX
10
9.78426
20
9.97679
30
4.36
0
VERTEX
10
9.78426
20
9.9727
30
4.36
0
VERTEX
10
9.78017
20
9.9686
30
4.36
0
VERTEX
10
9.78017
20
9.9645
30
4.36
0
VERTEX
10
9.76583
20
9.95426
30
4.36
0
VERTEX
10
9.76583
20
9.94607
30
4.36
0
VERTEX
10
9.75968
20
9.93788
30
4.36
0
VERTEX
10
9.75559
20
9.92149
30
4.36
0
VERTEX
10
9.75149
20
9.9133
30
4.36
0
VERTEX
10
9.75149
20
9.9092
30
4.36
0
VERTEX
10
9.7433
20
9.90101
30
4.36
0
VERTEX
10
9.7433
20
9.89691
30
4.36
0
VERTEX
10
9.7392
20
9.89282
30
4.36
0
VERTEX
10
9.7392
20
9.88872
30
4.36
0
VERTEX
10
9.73511
20
9.88462
30
4.36
0
VERTEX
10
9.72282
20
9.85185
30
4.36
0
VERTEX
10
9.71872
20
9.84366
30
4.36
0
VERTEX
10
9.71872
20
9.82727
30
4.36
0
VERTEX
10
9.71872
20
9.82318
30
4.36
0
VERTEX
10
9.70438
20
9.81294
30
4.36
0
VERTEX
10
9.69209
20
9.78221
30
4.36
0
VERTEX
10
9.688
20
9.76583
30
4.36
0
VERTEX
10
9.688
20
9.73306
30
4.36
0
VERTEX
10
9.688
20
9.72486
30
4.36
0
VERTEX
10
9.688
20
9.72077
30
4.36
0
VERTEX
10
9.6839
20
9.71667
30
4.36
0
VERTEX
10
9.6798
20
9.70029
30
4.36
0
VERTEX
10
9.67366
20
9.69209
30
4.36
0
VERTEX
10
9.67366
20
9.6839
30
4.36
0
VERTEX
10
9.66342
20
9.66752
30
4.36
0
VERTEX
10
9.65523
20
9.65932
30
4.36
0
VERTEX
10
9.65318
20
9.65113
30
4.36
0
VERTEX
10
9.65318
20
9.64703
30
4.36
0
VERTEX
10
9.64703
20
9.63884
30
4.36
0
VERTEX
10
9.64498
20
9.62245
30
4.36
0
VERTEX
10
9.64498
20
9.61631
30
4.36
0
SEQEND
0
POLYLINE
62
224
66
1
70
1
3
mitochondrion
0
VERTEX
10
9.43268
20
8.61371
30
4.36
0
VERTEX
10
9.43546
20
8.59147
30
4.36
0
VERTEX
10
9.43685
20
8.58034
30
4.36
0
VERTEX
10
9.44102
20
8.57478
30
4.36
0
VERTEX
10
9.4438
20
8.572
30
4.36
0
VERTEX
10
9.44658
20
8.56088
30
4.36
0
VERTEX
10
9.44658
20
8.55532
30
4.36
0
VERTEX
10
9.45909
20
8.53446
30
4.36
0
VERTEX
10
9.45909
20
8.53168
30
4.36
0
VERTEX
10
9.46327
20
8.52612
30
4.36
0
VERTEX
10
9.46466
20
8.52055
30
4.36
0
VERTEX
10
9.47161
20
8.50943
30
4.36
0
VERTEX
10
9.47995
20
8.50248
30
4.36
0
VERTEX
10
9.4869
20
8.49275
30
4.36
0
VERTEX
10
9.50498
20
8.47189
30
4.36
0
VERTEX
10
9.51193
20
8.46216
30
4.36
0
VERTEX
10
9.51471
20
8.45659
30
4.36
0
VERTEX
10
9.51749
20
8.45381
30
4.36
0
VERTEX
10
9.52862
20
8.44964
30
4.36
0
VERTEX
10
9.53418
20
8.44686
30
4.36
0
VERTEX
10
9.53974
20
8.44686
30
4.36
0
VERTEX
10
9.55086
20
8.43991
30
4.36
0
VERTEX
10
9.55364
20
8.43991
30
4.36
0
VERTEX
10
9.55921
20
8.43574
30
4.36
0
VERTEX
10
9.57033
20
8.43296
30
4.36
0
VERTEX
10
9.57589
20
8.42879
30
4.36
0
VERTEX
10
9.59675
20
8.42183
30
4.36
0
VERTEX
10
9.60787
20
8.42044
30
4.36
0
VERTEX
10
9.61899
20
8.41627
30
4.36
0
VERTEX
10
9.63012
20
8.41488
30
4.36
0
VERTEX
10
9.63429
20
8.41627
30
4.36
0
VERTEX
10
9.63568
20
8.41071
30
4.36
0
VERTEX
10
9.64124
20
8.41071
30
4.36
0
VERTEX
10
9.6468
20
8.40793
30
4.36
0
VERTEX
10
9.6913
20
8.40932
30
4.36
0
VERTEX
10
9.70103
20
8.41349
30
4.36
0
VERTEX
10
9.7205
20
8.42601
30
4.36
0
VERTEX
10
9.72606
20
8.4274
30
4.36
0
VERTEX
10
9.72884
20
8.43157
30
4.36
0
VERTEX
10
9.73996
20
8.43713
30
4.36
0
VERTEX
10
9.75804
20
8.4552
30
4.36
0
VERTEX
10
9.75943
20
8.46077
30
4.36
0
VERTEX
10
9.76916
20
8.46911
30
4.36
0
VERTEX
10
9.77472
20
8.47328
30
4.36
0
VERTEX
10
9.77472
20
8.47606
30
4.36
0
VERTEX
10
9.78028
20
8.48162
30
4.36
0
VERTEX
10
9.78585
20
8.48301
30
4.36
0
VERTEX
10
9.79558
20
8.49275
30
4.36
0
VERTEX
10
9.80253
20
8.50248
30
4.36
0
VERTEX
10
9.8067
20
8.5136
30
4.36
0
VERTEX
10
9.80948
20
8.51916
30
4.36
0
VERTEX
10
9.81644
20
8.56366
30
4.36
0
VERTEX
10
9.81783
20
8.57478
30
4.36
0
VERTEX
10
9.81783
20
8.57756
30
4.36
0
VERTEX
10
9.822
20
8.58312
30
4.36
0
VERTEX
10
9.82061
20
8.62762
30
4.36
0
VERTEX
10
9.82061
20
8.63874
30
4.36
0
VERTEX
10
9.81644
20
8.64986
30
4.36
0
VERTEX
10
9.81644
20
8.66099
30
4.36
0
VERTEX
10
9.80809
20
8.68323
30
4.36
0
VERTEX
10
9.80531
20
8.69436
30
4.36
0
VERTEX
10
9.78167
20
8.73746
30
4.36
0
VERTEX
10
9.7775
20
8.74858
30
4.36
0
VERTEX
10
9.77611
20
8.75971
30
4.36
0
VERTEX
10
9.77055
20
8.77083
30
4.36
0
VERTEX
10
9.76221
20
8.78196
30
4.36
0
VERTEX
10
9.74135
20
8.79725
30
4.36
0
VERTEX
10
9.72328
20
8.81254
30
4.36
0
VERTEX
10
9.7205
20
8.81533
30
4.36
0
VERTEX
10
9.71771
20
8.81533
30
4.36
0
VERTEX
10
9.70798
20
8.82228
30
4.36
0
VERTEX
10
9.70242
20
8.82506
30
4.36
0
VERTEX
10
9.70103
20
8.82784
30
4.36
0
VERTEX
10
9.68991
20
8.83201
30
4.36
0
VERTEX
10
9.68713
20
8.83479
30
4.36
0
VERTEX
10
9.66488
20
8.84035
30
4.36
0
VERTEX
10
9.64263
20
8.84035
30
4.36
0
VERTEX
10
9.62038
20
8.84452
30
4.36
0
VERTEX
10
9.59814
20
8.84313
30
4.36
0
VERTEX
10
9.55364
20
8.84452
30
4.36
0
VERTEX
10
9.55225
20
8.8487
30
4.36
0
VERTEX
10
9.54947
20
8.85009
30
4.36
0
VERTEX
10
9.52723
20
8.83479
30
4.36
0
VERTEX
10
9.52166
20
8.8334
30
4.36
0
VERTEX
10
9.51193
20
8.82367
30
4.36
0
VERTEX
10
9.50637
20
8.82367
30
4.36
0
VERTEX
10
9.50359
20
8.82367
30
4.36
0
VERTEX
10
9.49942
20
8.81254
30
4.36
0
VERTEX
10
9.48968
20
8.80281
30
4.36
0
VERTEX
10
9.48273
20
8.80142
30
4.36
0
VERTEX
10
9.46744
20
8.78056
30
4.36
0
VERTEX
10
9.46466
20
8.775
30
4.36
0
VERTEX
10
9.46188
20
8.77222
30
4.36
0
VERTEX
10
9.46049
20
8.76666
30
4.36
0
VERTEX
10
9.45631
20
8.76249
30
4.36
0
VERTEX
10
9.45492
20
8.75693
30
4.36
0
VERTEX
10
9.45492
20
8.75415
30
4.36
0
VERTEX
10
9.45075
20
8.74858
30
4.36
0
VERTEX
10
9.44936
20
8.74302
30
4.36
0
VERTEX
10
9.44658
20
8.74024
30
4.36
0
VERTEX
10
9.4438
20
8.718
30
4.36
0
VERTEX
10
9.44102
20
8.70687
30
4.36
0
VERTEX
10
9.43824
20
8.70131
30
4.36
0
VERTEX
10
9.43824
20
8.69019
30
4.36
0
VERTEX
10
9.43824
20
8.68463
30
4.36
0
VERTEX
10
9.43546
20
8.68323
30
4.36
0
VERTEX
10
9.43407
20
8.63874
30
4.36
0
VERTEX
10
9.43268
20
8.61649
30
4.36
0
VERTEX
10
9.43268
20
8.6151
30
4.36
0
SEQEND
0
POLYLINE
62
227
66
1
70
1
3
endoplasmic_reticulum
0
VERTEX
10
9.13638
20
8.54374
30
4.36
0
VERTEX
10
9.13943
20
8.53765
30
4.36
0
VERTEX
10
9.13943
20
8.53155
30
4.36
0
VERTEX
10
9.14247
20
8.52546
30
4.36
0
VERTEX
10
9.144
20
8.50108
30
4.36
0
VERTEX
10
9.14704
20
8.48889
30
4.36
0
VERTEX
10
9.14857
20
8.4828
30
4.36
0
VERTEX
10
9.14857
20
8.47975
30
4.36
0
VERTEX
10
9.16837
20
8.4569
30
4.36
0
VERTEX
10
9.17599
20
8.44624
30
4.36
0
VERTEX
10
9.18208
20
8.44167
30
4.36
0
VERTEX
10
9.20646
20
8.4371
30
4.36
0
VERTEX
10
9.21255
20
8.4371
30
4.36
0
VERTEX
10
9.21865
20
8.43405
30
4.36
0
VERTEX
10
9.24302
20
8.43405
30
4.36
0
VERTEX
10
9.25521
20
8.43405
30
4.36
0
VERTEX
10
9.2613
20
8.4371
30
4.36
0
VERTEX
10
9.2674
20
8.4371
30
4.36
0
VERTEX
10
9.27045
20
8.4371
30
4.36
0
VERTEX
10
9.27197
20
8.44014
30
4.36
0
VERTEX
10
9.27806
20
8.44014
30
4.36
0
VERTEX
10
9.29025
20
8.44471
30
4.36
0
VERTEX
10
9.30244
20
8.45233
30
4.36
0
VERTEX
10
9.30244
20
8.45538
30
4.36
0
VERTEX
10
9.30853
20
8.45842
30
4.36
0
VERTEX
10
9.31615
20
8.47061
30
4.36
0
VERTEX
10
9.31615
20
8.4828
30
4.36
0
VERTEX
10
9.31615
20
8.48889
30
4.36
0
VERTEX
10
9.31615
20
8.49194
30
4.36
0
VERTEX
10
9.3131
20
8.49347
30
4.36
0
VERTEX
10
9.30853
20
8.50565
30
4.36
0
VERTEX
10
9.30396
20
8.51022
30
4.36
0
VERTEX
10
9.29177
20
8.51479
30
4.36
0
VERTEX
10
9.27959
20
8.51327
30
4.36
0
VERTEX
10
9.26892
20
8.50565
30
4.36
0
VERTEX
10
9.26892
20
8.49956
30
4.36
0
VERTEX
10
9.26435
20
8.49499
30
4.36
0
VERTEX
10
9.23998
20
8.49042
30
4.36
0
VERTEX
10
9.2156
20
8.48889
30
4.36
0
VERTEX
10
9.20341
20
8.48737
30
4.36
0
VERTEX
10
9.19732
20
8.48889
30
4.36
0
VERTEX
10
9.19122
20
8.49347
30
4.36
0
VERTEX
10
9.18513
20
8.50565
30
4.36
0
VERTEX
10
9.18208
20
8.51175
30
4.36
0
VERTEX
10
9.18513
20
8.5346
30
4.36
0
VERTEX
10
9.18665
20
8.53308
30
4.36
0
VERTEX
10
9.19732
20
8.54222
30
4.36
0
VERTEX
10
9.19884
20
8.54831
30
4.36
0
VERTEX
10
9.22322
20
8.55288
30
4.36
0
VERTEX
10
9.23541
20
8.5544
30
4.36
0
VERTEX
10
9.24759
20
8.55288
30
4.36
0
VERTEX
10
9.25064
20
8.55136
30
4.36
0
VERTEX
10
9.25673
20
8.55288
30
4.36
0
VERTEX
10
9.2613
20
8.54831
30
4.36
0
VERTEX
10
9.26435
20
8.53612
30
4.36
0
VERTEX
10
9.2674
20
8.53308
30
4.36
0
VERTEX
10
9.2674
20
8.53003
30
4.36
0
VERTEX
10
9.27349
20
8.52698
30
4.36
0
VERTEX
10
9.27502
20
8.52393
30
4.36
0
VERTEX
10
9.28111
20
8.52393
30
4.36
0
VERTEX
10
9.2872
20
8.52089
30
4.36
0
VERTEX
10
9.29939
20
8.52241
30
4.36
0
VERTEX
10
9.31006
20
8.52698
30
4.36
0
VERTEX
10
9.31463
20
8.53308
30
4.36
0
VERTEX
10
9.31463
20
8.54526
30
4.36
0
VERTEX
10
9.31158
20
8.55745
30
4.36
0
VERTEX
10
9.30396
20
8.56964
30
4.36
0
VERTEX
10
9.29482
20
8.57878
30
4.36
0
VERTEX
10
9.28263
20
8.5864
30
4.36
0
VERTEX
10
9.27654
20
8.59097
30
4.36
0
VERTEX
10
9.26435
20
8.59249
30
4.36
0
VERTEX
10
9.25369
20
8.59706
30
4.36
0
VERTEX
10
9.22931
20
8.59706
30
4.36
0
VERTEX
10
9.20494
20
8.60011
30
4.36
0
VERTEX
10
9.19275
20
8.60011
30
4.36
0
VERTEX
10
9.18818
20
8.59554
30
4.36
0
VERTEX
10
9.17599
20
8.59249
30
4.36
0
VERTEX
10
9.17294
20
8.59097
30
4.36
0
VERTEX
10
9.17142
20
8.5864
30
4.36
0
VERTEX
10
9.15923
20
8.57878
30
4.36
0
VERTEX
10
9.14704
20
8.57573
30
4.36
0
VERTEX
10
9.14095
20
8.57116
30
4.36
0
VERTEX
10
9.13638
20
8.55898
30
4.36
0
VERTEX
10
9.13638
20
8.54679
30
4.36
0
VERTEX
10
9.13638
20
8.54526
30
4.36
0
SEQEND
0
POLYLINE
62
227
66
1
70
1
3
endoplasmic_reticulum
0
VERTEX
10
9.1638
20
8.63363
30
4.36
0
VERTEX
10
9.16837
20
8.62753
30
4.36
0
VERTEX
10
9.1699
20
8.61534
30
4.36
0
VERTEX
10
9.17599
20
8.61382
30
4.36
0
VERTEX
10
9.19884
20
8.63058
30
4.36
0
VERTEX
10
9.20189
20
8.63058
30
4.36
0
VERTEX
10
9.21103
20
8.64124
30
4.36
0
VERTEX
10
9.22169
20
8.64886
30
4.36
0
VERTEX
10
9.22474
20
8.65343
30
4.36
0
VERTEX
10
9.23083
20
8.65496
30
4.36
0
VERTEX
10
9.23083
20
8.658
30
4.36
0
VERTEX
10
9.24759
20
8.67933
30
4.36
0
VERTEX
10
9.25064
20
8.68543
30
4.36
0
VERTEX
10
9.26283
20
8.69152
30
4.36
0
VERTEX
10
9.27349
20
8.70066
30
4.36
0
VERTEX
10
9.27959
20
8.70218
30
4.36
0
VERTEX
10
9.28568
20
8.70675
30
4.36
0
VERTEX
10
9.29177
20
8.70828
30
4.36
0
VERTEX
10
9.29939
20
8.71894
30
4.36
0
VERTEX
10
9.30549
20
8.72199
30
4.36
0
VERTEX
10
9.30853
20
8.72504
30
4.36
0
VERTEX
10
9.32072
20
8.72656
30
4.36
0
VERTEX
10
9.32529
20
8.73113
30
4.36
0
VERTEX
10
9.32681
20
8.74332
30
4.36
0
VERTEX
10
9.32377
20
8.74941
30
4.36
0
VERTEX
10
9.32224
20
8.75246
30
4.36
0
VERTEX
10
9.31006
20
8.75551
30
4.36
0
VERTEX
10
9.28568
20
8.75094
30
4.36
0
VERTEX
10
9.23845
20
8.72504
30
4.36
0
VERTEX
10
9.22779
20
8.71894
30
4.36
0
VERTEX
10
9.22322
20
8.71437
30
4.36
0
VERTEX
10
9.22017
20
8.71437
30
4.36
0
VERTEX
10
9.21712
20
8.71132
30
4.36
0
VERTEX
10
9.21712
20
8.70828
30
4.36
0
VERTEX
10
9.21103
20
8.70675
30
4.36
0
VERTEX
10
9.19427
20
8.68695
30
4.36
0
VERTEX
10
9.18361
20
8.67933
30
4.36
0
VERTEX
10
9.17904
20
8.67324
30
4.36
0
VERTEX
10
9.17447
20
8.67019
30
4.36
0
VERTEX
10
9.17142
20
8.67019
30
4.36
0
VERTEX
10
9.16685
20
8.6641
30
4.36
0
VERTEX
10
9.16685
20
8.658
30
4.36
0
VERTEX
10
9.16685
20
8.65496
30
4.36
0
VERTEX
10
9.1638
20
8.65343
30
4.36
0
VERTEX
10
9.1638
20
8.64124
30
4.36
0
VERTEX
10
9.1638
20
8.63515
30
4.36
0
SEQEND
0
POLYLINE
62
227
66
1
70
1
3
endoplasmic_reticulum
0
VERTEX
10
9.26435
20
8.62753
30
4.36
0
VERTEX
10
9.27502
20
8.61687
30
4.36
0
VERTEX
10
9.27959
20
8.61077
30
4.36
0
VERTEX
10
9.28111
20
8.60468
30
4.36
0
VERTEX
10
9.2872
20
8.60011
30
4.36
0
VERTEX
10
9.2933
20
8.60011
30
4.36
0
VERTEX
10
9.29787
20
8.60316
30
4.36
0
VERTEX
10
9.30396
20
8.61534
30
4.36
0
VERTEX
10
9.30549
20
8.62144
30
4.36
0
VERTEX
10
9.31006
20
8.62601
30
4.36
0
VERTEX
10
9.31463
20
8.6382
30
4.36
0
VERTEX
10
9.3192
20
8.64277
30
4.36
0
VERTEX
10
9.32224
20
8.64429
30
4.36
0
VERTEX
10
9.32377
20
8.65038
30
4.36
0
VERTEX
10
9.32834
20
8.65648
30
4.36
0
VERTEX
10
9.33139
20
8.66867
30
4.36
0
VERTEX
10
9.33596
20
8.67324
30
4.36
0
VERTEX
10
9.33596
20
8.67933
30
4.36
0
VERTEX
10
9.34053
20
8.6839
30
4.36
0
VERTEX
10
9.34053
20
8.68695
30
4.36
0
VERTEX
10
9.3451
20
8.69304
30
4.36
0
VERTEX
10
9.3451
20
8.70523
30
4.36
0
VERTEX
10
9.34053
20
8.7098
30
4.36
0
VERTEX
10
9.32834
20
8.70828
30
4.36
0
VERTEX
10
9.31767
20
8.69914
30
4.36
0
VERTEX
10
9.31158
20
8.69457
30
4.36
0
VERTEX
10
9.30853
20
8.69457
30
4.36
0
VERTEX
10
9.29939
20
8.68238
30
4.36
0
VERTEX
10
9.29787
20
8.67933
30
4.36
0
VERTEX
10
9.29939
20
8.67324
30
4.36
0
VERTEX
10
9.28873
20
8.66867
30
4.36
0
VERTEX
10
9.27806
20
8.65648
30
4.36
0
VERTEX
10
9.27654
20
8.65038
30
4.36
0
VERTEX
10
9.2674
20
8.63972
30
4.36
0
VERTEX
10
9.26435
20
8.6382
30
4.36
0
VERTEX
10
9.26435
20
8.6321
30
4.36
0
VERTEX
10
9.26435
20
8.62906
30
4.36
0
SEQEND
0
POLYLINE
62
227
66
1
70
1
3
endoplasmic_reticulum
0
VERTEX
10
8.92157
20
8.79055
30
4.36
0
VERTEX
10
8.92309
20
8.78445
30
4.36
0
VERTEX
10
8.93375
20
8.77379
30
4.36
0
VERTEX
10
8.93832
20
8.76922
30
4.36
0
VERTEX
10
8.9627
20
8.76922
30
4.36
0
VERTEX
10
8.97489
20
8.77226
30
4.36
0
VERTEX
10
8.98098
20
8.77379
30
4.36
0
VERTEX
10
8.9886
20
8.7814
30
4.36
0
VERTEX
10
8.9886
20
8.78445
30
4.36
0
VERTEX
10
8.99165
20
8.7875
30
4.36
0
VERTEX
10
8.99165
20
8.79969
30
4.36
0
VERTEX
10
8.9886
20
8.81187
30
4.36
0
VERTEX
10
8.97946
20
8.82102
30
4.36
0
VERTEX
10
8.97489
20
8.82711
30
4.36
0
VERTEX
10
8.97184
20
8.83016
30
4.36
0
VERTEX
10
8.94747
20
8.82254
30
4.36
0
VERTEX
10
8.93528
20
8.81187
30
4.36
0
VERTEX
10
8.92918
20
8.8073
30
4.36
0
VERTEX
10
8.92157
20
8.79664
30
4.36
0
VERTEX
10
8.92157
20
8.79207
30
4.36
0
SEQEND
0
POLYLINE
62
227
66
1
70
1
3
endoplasmic_reticulum
0
VERTEX
10
8.65953
20
8.6062
30
4.36
0
VERTEX
10
8.6641
20
8.59402
30
4.36
0
VERTEX
10
8.67628
20
8.58487
30
4.36
0
VERTEX
10
8.67781
20
8.58183
30
4.36
0
VERTEX
10
8.70218
20
8.58335
30
4.36
0
VERTEX
10
8.70828
20
8.58335
30
4.36
0
VERTEX
10
8.71285
20
8.58792
30
4.36
0
VERTEX
10
8.71894
20
8.58945
30
4.36
0
VERTEX
10
8.72961
20
8.59859
30
4.36
0
VERTEX
10
8.73418
20
8.62296
30
4.36
0
VERTEX
10
8.72961
20
8.64734
30
4.36
0
VERTEX
10
8.72961
20
8.65343
30
4.36
0
VERTEX
10
8.71742
20
8.65496
30
4.36
0
VERTEX
10
8.69304
20
8.65191
30
4.36
0
VERTEX
10
8.67019
20
8.63058
30
4.36
0
VERTEX
10
8.66257
20
8.61991
30
4.36
0
VERTEX
10
8.66257
20
8.61687
30
4.36
0
VERTEX
10
8.65953
20
8.61382
30
4.36
0
VERTEX
10
8.65953
20
8.60773
30
4.36
0
SEQEND
0
POLYLINE
62
227
66
1
70
1
3
endoplasmic_reticulum
0
VERTEX
10
7.93564
20
7.88457
30
4.36
0
VERTEX
10
7.94725
20
7.86831
30
4.36
0
VERTEX
10
7.9519
20
7.86831
30
4.36
0
VERTEX
10
7.95422
20
7.85903
30
4.36
0
VERTEX
10
7.96118
20
7.85206
30
4.36
0
VERTEX
10
7.97976
20
7.84974
30
4.36
0
VERTEX
10
7.99833
20
7.85206
30
4.36
0
VERTEX
10
8.00297
20
7.85206
30
4.36
0
VERTEX
10
8.0169
20
7.86831
30
4.36
0
VERTEX
10
8.02155
20
7.87296
30
4.36
0
VERTEX
10
8.02155
20
7.9101
30
4.36
0
VERTEX
10
8.01923
20
7.92868
30
4.36
0
VERTEX
10
8.01458
20
7.93797
30
4.36
0
VERTEX
10
7.98208
20
7.94957
30
4.36
0
VERTEX
10
7.97976
20
7.95886
30
4.36
0
VERTEX
10
7.97511
20
7.96118
30
4.36
0
VERTEX
10
7.96583
20
7.95654
30
4.36
0
VERTEX
10
7.95886
20
7.94725
30
4.36
0
VERTEX
10
7.95886
20
7.93797
30
4.36
0
VERTEX
10
7.95886
20
7.93332
30
4.36
0
VERTEX
10
7.94957
20
7.92868
30
4.36
0
VERTEX
10
7.94261
20
7.91939
30
4.36
0
VERTEX
10
7.94029
20
7.9101
30
4.36
0
VERTEX
10
7.93564
20
7.90546
30
4.36
0
VERTEX
10
7.93564
20
7.88689
30
4.36
0
SEQEND
0
ENDSEC
0
EOF
