0
SECTION
2
ENTITIES
0
POLYLINE
62
31
66
1
70
1
3
contour
0
VERTEX
10
6.35012
20
11.0543
30
9.36
0
VERTEX
10
6.35342
20
11.028
30
9.36
0
VERTEX
10
6.36988
20
11.0115
30
9.36
0
VERTEX
10
6.36988
20
11.0049
30
9.36
0
VERTEX
10
6.38963
20
10.9852
30
9.36
0
VERTEX
10
6.40609
20
10.9588
30
9.36
0
VERTEX
10
6.42913
20
10.9358
30
9.36
0
VERTEX
10
6.4423
20
10.9226
30
9.36
0
VERTEX
10
6.44888
20
10.9226
30
9.36
0
VERTEX
10
6.46534
20
10.8963
30
9.36
0
VERTEX
10
6.48839
20
10.8765
30
9.36
0
VERTEX
10
6.49826
20
10.8535
30
9.36
0
VERTEX
10
6.51143
20
10.8469
30
9.36
0
VERTEX
10
6.51801
20
10.8469
30
9.36
0
VERTEX
10
6.53118
20
10.837
30
9.36
0
VERTEX
10
6.54435
20
10.8337
30
9.36
0
VERTEX
10
6.54435
20
10.8271
30
9.36
0
VERTEX
10
6.55422
20
10.8173
30
9.36
0
VERTEX
10
6.55752
20
10.8041
30
9.36
0
VERTEX
10
6.55752
20
10.7975
30
9.36
0
VERTEX
10
6.57068
20
10.7843
30
9.36
0
VERTEX
10
6.62335
20
10.7811
30
9.36
0
VERTEX
10
6.67603
20
10.7843
30
9.36
0
VERTEX
10
6.70236
20
10.7942
30
9.36
0
VERTEX
10
6.70894
20
10.7942
30
9.36
0
VERTEX
10
6.7254
20
10.8173
30
9.36
0
VERTEX
10
6.72211
20
10.8699
30
9.36
0
VERTEX
10
6.71224
20
10.8963
30
9.36
0
VERTEX
10
6.70565
20
10.9489
30
9.36
0
VERTEX
10
6.70565
20
10.9753
30
9.36
0
VERTEX
10
6.70565
20
10.9819
30
9.36
0
VERTEX
10
6.69907
20
10.9884
30
9.36
0
VERTEX
10
6.69907
20
11.0016
30
9.36
0
VERTEX
10
6.65627
20
11.051
30
9.36
0
VERTEX
10
6.60689
20
11.0872
30
9.36
0
VERTEX
10
6.60031
20
11.0872
30
9.36
0
VERTEX
10
6.59373
20
11.0938
30
9.36
0
VERTEX
10
6.58714
20
11.0938
30
9.36
0
VERTEX
10
6.54106
20
11.1399
30
9.36
0
VERTEX
10
6.49168
20
11.1596
30
9.36
0
VERTEX
10
6.43901
20
11.1498
30
9.36
0
VERTEX
10
6.42584
20
11.1465
30
9.36
0
VERTEX
10
6.4028
20
11.1267
30
9.36
0
VERTEX
10
6.39621
20
11.1168
30
9.36
0
VERTEX
10
6.37317
20
11.1004
30
9.36
0
VERTEX
10
6.36
20
11.0938
30
9.36
0
VERTEX
10
6.35012
20
11.0675
30
9.36
0
VERTEX
10
6.35012
20
11.0576
30
9.36
0
SEQEND
0
POLYLINE
62
224
66
1
70
1
3
mitochondrion
0
VERTEX
10
7.46661
20
10.6312
30
9.36
0
VERTEX
10
7.46939
20
10.6298
30
9.36
0
VERTEX
10
7.46939
20
10.5853
30
9.36
0
VERTEX
10
7.47495
20
10.5631
30
9.36
0
VERTEX
10
7.47495
20
10.5408
30
9.36
0
VERTEX
10
7.47912
20
10.5297
30
9.36
0
VERTEX
10
7.48051
20
10.5186
30
9.36
0
VERTEX
10
7.49442
20
10.4977
30
9.36
0
VERTEX
10
7.51388
20
10.4769
30
9.36
0
VERTEX
10
7.52501
20
10.4685
30
9.36
0
VERTEX
10
7.53196
20
10.4574
30
9.36
0
VERTEX
10
7.55421
20
10.4533
30
9.36
0
VERTEX
10
7.56533
20
10.4477
30
9.36
0
VERTEX
10
7.57645
20
10.4449
30
9.36
0
VERTEX
10
7.62095
20
10.4435
30
9.36
0
VERTEX
10
7.64319
20
10.4421
30
9.36
0
VERTEX
10
7.66544
20
10.4449
30
9.36
0
VERTEX
10
7.67656
20
10.4477
30
9.36
0
VERTEX
10
7.67934
20
10.4477
30
9.36
0
VERTEX
10
7.69047
20
10.4574
30
9.36
0
VERTEX
10
7.69603
20
10.4616
30
9.36
0
VERTEX
10
7.69881
20
10.4644
30
9.36
0
VERTEX
10
7.70159
20
10.4644
30
9.36
0
VERTEX
10
7.70715
20
10.4699
30
9.36
0
VERTEX
10
7.72801
20
10.4811
30
9.36
0
VERTEX
10
7.73496
20
10.4922
30
9.36
0
VERTEX
10
7.74052
20
10.4977
30
9.36
0
VERTEX
10
7.74748
20
10.5089
30
9.36
0
VERTEX
10
7.75026
20
10.5117
30
9.36
0
VERTEX
10
7.75721
20
10.5339
30
9.36
0
VERTEX
10
7.76138
20
10.5561
30
9.36
0
VERTEX
10
7.76416
20
10.5673
30
9.36
0
VERTEX
10
7.75999
20
10.6118
30
9.36
0
VERTEX
10
7.75582
20
10.6229
30
9.36
0
VERTEX
10
7.75165
20
10.6271
30
9.36
0
VERTEX
10
7.74748
20
10.6382
30
9.36
0
VERTEX
10
7.72662
20
10.659
30
9.36
0
VERTEX
10
7.70993
20
10.6799
30
9.36
0
VERTEX
10
7.69881
20
10.6896
30
9.36
0
VERTEX
10
7.69464
20
10.6924
30
9.36
0
VERTEX
10
7.69186
20
10.698
30
9.36
0
VERTEX
10
7.68073
20
10.7007
30
9.36
0
VERTEX
10
7.67517
20
10.7021
30
9.36
0
VERTEX
10
7.66405
20
10.7105
30
9.36
0
VERTEX
10
7.65849
20
10.7133
30
9.36
0
VERTEX
10
7.61399
20
10.7174
30
9.36
0
VERTEX
10
7.60287
20
10.7174
30
9.36
0
VERTEX
10
7.60009
20
10.7174
30
9.36
0
VERTEX
10
7.59731
20
10.7147
30
9.36
0
VERTEX
10
7.57506
20
10.7133
30
9.36
0
VERTEX
10
7.5695
20
10.7119
30
9.36
0
VERTEX
10
7.56672
20
10.7119
30
9.36
0
VERTEX
10
7.56394
20
10.7091
30
9.36
0
VERTEX
10
7.55282
20
10.7049
30
9.36
0
VERTEX
10
7.54169
20
10.698
30
9.36
0
VERTEX
10
7.53891
20
10.6924
30
9.36
0
VERTEX
10
7.52918
20
10.6855
30
9.36
0
VERTEX
10
7.51944
20
10.6757
30
9.36
0
VERTEX
10
7.50971
20
10.6715
30
9.36
0
VERTEX
10
7.49998
20
10.6618
30
9.36
0
VERTEX
10
7.48886
20
10.6604
30
9.36
0
VERTEX
10
7.48329
20
10.659
30
9.36
0
VERTEX
10
7.47217
20
10.6493
30
9.36
0
VERTEX
10
7.46661
20
10.6396
30
9.36
0
VERTEX
10
7.46661
20
10.634
30
9.36
0
VERTEX
10
7.46661
20
10.6326
30
9.36
0
SEQEND
0
POLYLINE
62
227
66
1
70
1
3
endoplasmic_reticulum
0
VERTEX
10
7.67085
20
10.2995
30
9.36
0
VERTEX
10
7.67354
20
10.2923
30
9.36
0
VERTEX
10
7.67354
20
10.2888
30
9.36
0
VERTEX
10
7.67802
20
10.2843
30
9.36
0
VERTEX
10
7.6843
20
10.2816
30
9.36
0
VERTEX
10
7.69147
20
10.2771
30
9.36
0
VERTEX
10
7.69506
20
10.2753
30
9.36
0
VERTEX
10
7.69685
20
10.2717
30
9.36
0
VERTEX
10
7.70312
20
10.2646
30
9.36
0
VERTEX
10
7.70671
20
10.2574
30
9.36
0
VERTEX
10
7.7085
20
10.2538
30
9.36
0
VERTEX
10
7.7085
20
10.252
30
9.36
0
VERTEX
10
7.7103
20
10.2502
30
9.36
0
VERTEX
10
7.71119
20
10.243
30
9.36
0
VERTEX
10
7.71388
20
10.2368
30
9.36
0
VERTEX
10
7.71837
20
10.2296
30
9.36
0
VERTEX
10
7.72464
20
10.2233
30
9.36
0
VERTEX
10
7.73092
20
10.2197
30
9.36
0
VERTEX
10
7.7345
20
10.2188
30
9.36
0
VERTEX
10
7.74168
20
10.2143
30
9.36
0
VERTEX
10
7.75602
20
10.217
30
9.36
0
VERTEX
10
7.75961
20
10.2179
30
9.36
0
VERTEX
10
7.7605
20
10.2215
30
9.36
0
VERTEX
10
7.76319
20
10.2242
30
9.36
0
VERTEX
10
7.76409
20
10.2278
30
9.36
0
VERTEX
10
7.76678
20
10.2314
30
9.36
0
VERTEX
10
7.76678
20
10.235
30
9.36
0
VERTEX
10
7.77126
20
10.2403
30
9.36
0
VERTEX
10
7.77216
20
10.2547
30
9.36
0
VERTEX
10
7.77126
20
10.2619
30
9.36
0
VERTEX
10
7.77037
20
10.2655
30
9.36
0
VERTEX
10
7.77037
20
10.2672
30
9.36
0
VERTEX
10
7.76857
20
10.2681
30
9.36
0
VERTEX
10
7.76768
20
10.2753
30
9.36
0
VERTEX
10
7.76588
20
10.2789
30
9.36
0
VERTEX
10
7.76409
20
10.2798
30
9.36
0
VERTEX
10
7.76409
20
10.2816
30
9.36
0
VERTEX
10
7.75781
20
10.2879
30
9.36
0
VERTEX
10
7.75154
20
10.2923
30
9.36
0
VERTEX
10
7.73719
20
10.2977
30
9.36
0
VERTEX
10
7.73002
20
10.2986
30
9.36
0
VERTEX
10
7.72285
20
10.3022
30
9.36
0
VERTEX
10
7.71568
20
10.3076
30
9.36
0
VERTEX
10
7.71209
20
10.3103
30
9.36
0
VERTEX
10
7.7085
20
10.3103
30
9.36
0
VERTEX
10
7.70223
20
10.3148
30
9.36
0
VERTEX
10
7.69864
20
10.3166
30
9.36
0
VERTEX
10
7.69685
20
10.3183
30
9.36
0
VERTEX
10
7.68968
20
10.3201
30
9.36
0
VERTEX
10
7.6843
20
10.3273
30
9.36
0
VERTEX
10
7.67802
20
10.3417
30
9.36
0
VERTEX
10
7.67712
20
10.3426
30
9.36
0
VERTEX
10
7.67175
20
10.3282
30
9.36
0
VERTEX
10
7.67085
20
10.3004
30
9.36
0
SEQEND
0
POLYLINE
62
227
66
1
70
1
3
endoplasmic_reticulum
0
VERTEX
10
7.34361
20
10.6017
30
9.36
0
VERTEX
10
7.3454
20
10.5945
30
9.36
0
VERTEX
10
7.3454
20
10.5873
30
9.36
0
VERTEX
10
7.3472
20
10.5801
30
9.36
0
VERTEX
10
7.34809
20
10.5775
30
9.36
0
VERTEX
10
7.35347
20
10.5712
30
9.36
0
VERTEX
10
7.35616
20
10.5649
30
9.36
0
VERTEX
10
7.35795
20
10.5613
30
9.36
0
VERTEX
10
7.36513
20
10.5559
30
9.36
0
VERTEX
10
7.37051
20
10.5497
30
9.36
0
VERTEX
10
7.3732
20
10.5353
30
9.36
0
VERTEX
10
7.37409
20
10.5281
30
9.36
0
VERTEX
10
7.37499
20
10.5246
30
9.36
0
VERTEX
10
7.38485
20
10.5111
30
9.36
0
VERTEX
10
7.39202
20
10.5057
30
9.36
0
VERTEX
10
7.39651
20
10.4995
30
9.36
0
VERTEX
10
7.40278
20
10.4923
30
9.36
0
VERTEX
10
7.40547
20
10.4851
30
9.36
0
VERTEX
10
7.40816
20
10.4815
30
9.36
0
VERTEX
10
7.40906
20
10.4779
30
9.36
0
VERTEX
10
7.41802
20
10.4645
30
9.36
0
VERTEX
10
7.41982
20
10.4627
30
9.36
0
VERTEX
10
7.42161
20
10.4555
30
9.36
0
VERTEX
10
7.42161
20
10.4268
30
9.36
0
VERTEX
10
7.42251
20
10.4125
30
9.36
0
VERTEX
10
7.42609
20
10.3981
30
9.36
0
VERTEX
10
7.42788
20
10.3963
30
9.36
0
VERTEX
10
7.42878
20
10.3928
30
9.36
0
VERTEX
10
7.42878
20
10.391
30
9.36
0
VERTEX
10
7.43954
20
10.3793
30
9.36
0
VERTEX
10
7.44582
20
10.373
30
9.36
0
VERTEX
10
7.45299
20
10.373
30
9.36
0
VERTEX
10
7.45657
20
10.373
30
9.36
0
VERTEX
10
7.45837
20
10.373
30
9.36
0
VERTEX
10
7.45926
20
10.3748
30
9.36
0
VERTEX
10
7.46285
20
10.3757
30
9.36
0
VERTEX
10
7.46464
20
10.3766
30
9.36
0
VERTEX
10
7.46464
20
10.3838
30
9.36
0
VERTEX
10
7.46644
20
10.3874
30
9.36
0
VERTEX
10
7.46644
20
10.3892
30
9.36
0
VERTEX
10
7.46913
20
10.3928
30
9.36
0
VERTEX
10
7.47002
20
10.3963
30
9.36
0
VERTEX
10
7.4763
20
10.4008
30
9.36
0
VERTEX
10
7.48257
20
10.4071
30
9.36
0
VERTEX
10
7.48616
20
10.4134
30
9.36
0
VERTEX
10
7.48706
20
10.4143
30
9.36
0
VERTEX
10
7.5005
20
10.4026
30
9.36
0
VERTEX
10
7.50768
20
10.3981
30
9.36
0
VERTEX
10
7.50857
20
10.3963
30
9.36
0
VERTEX
10
7.51037
20
10.3963
30
9.36
0
VERTEX
10
7.51216
20
10.3946
30
9.36
0
VERTEX
10
7.51395
20
10.3946
30
9.36
0
VERTEX
10
7.5274
20
10.3856
30
9.36
0
VERTEX
10
7.54175
20
10.3865
30
9.36
0
VERTEX
10
7.54533
20
10.3865
30
9.36
0
VERTEX
10
7.54623
20
10.3883
30
9.36
0
VERTEX
10
7.5534
20
10.3892
30
9.36
0
VERTEX
10
7.55699
20
10.3892
30
9.36
0
VERTEX
10
7.56057
20
10.391
30
9.36
0
VERTEX
10
7.56326
20
10.3946
30
9.36
0
VERTEX
10
7.56416
20
10.4017
30
9.36
0
VERTEX
10
7.56326
20
10.4053
30
9.36
0
VERTEX
10
7.56147
20
10.4062
30
9.36
0
VERTEX
10
7.55878
20
10.4134
30
9.36
0
VERTEX
10
7.55699
20
10.4134
30
9.36
0
VERTEX
10
7.55699
20
10.4152
30
9.36
0
VERTEX
10
7.5534
20
10.4179
30
9.36
0
VERTEX
10
7.5525
20
10.4215
30
9.36
0
VERTEX
10
7.54713
20
10.4277
30
9.36
0
VERTEX
10
7.54354
20
10.4286
30
9.36
0
VERTEX
10
7.53995
20
10.4313
30
9.36
0
VERTEX
10
7.53278
20
10.434
30
9.36
0
VERTEX
10
7.52919
20
10.4349
30
9.36
0
VERTEX
10
7.5265
20
10.4376
30
9.36
0
VERTEX
10
7.52292
20
10.4376
30
9.36
0
VERTEX
10
7.51933
20
10.4403
30
9.36
0
VERTEX
10
7.51754
20
10.4403
30
9.36
0
VERTEX
10
7.51395
20
10.4439
30
9.36
0
VERTEX
10
7.49961
20
10.451
30
9.36
0
VERTEX
10
7.49244
20
10.4555
30
9.36
0
VERTEX
10
7.48975
20
10.4591
30
9.36
0
VERTEX
10
7.48706
20
10.4609
30
9.36
0
VERTEX
10
7.48706
20
10.4627
30
9.36
0
VERTEX
10
7.48526
20
10.4645
30
9.36
0
VERTEX
10
7.48347
20
10.4645
30
9.36
0
VERTEX
10
7.48347
20
10.4663
30
9.36
0
VERTEX
10
7.47988
20
10.4699
30
9.36
0
VERTEX
10
7.4763
20
10.477
30
9.36
0
VERTEX
10
7.47361
20
10.4806
30
9.36
0
VERTEX
10
7.47361
20
10.4824
30
9.36
0
VERTEX
10
7.46644
20
10.4887
30
9.36
0
VERTEX
10
7.46285
20
10.4905
30
9.36
0
VERTEX
10
7.45837
20
10.4968
30
9.36
0
VERTEX
10
7.45568
20
10.503
30
9.36
0
VERTEX
10
7.45119
20
10.5102
30
9.36
0
VERTEX
10
7.43775
20
10.5192
30
9.36
0
VERTEX
10
7.4234
20
10.5255
30
9.36
0
VERTEX
10
7.41623
20
10.5255
30
9.36
0
VERTEX
10
7.40995
20
10.5317
30
9.36
0
VERTEX
10
7.40995
20
10.5335
30
9.36
0
VERTEX
10
7.40278
20
10.5407
30
9.36
0
VERTEX
10
7.40278
20
10.5479
30
9.36
0
VERTEX
10
7.40457
20
10.5497
30
9.36
0
VERTEX
10
7.40637
20
10.564
30
9.36
0
VERTEX
10
7.40637
20
10.5658
30
9.36
0
VERTEX
10
7.40816
20
10.5676
30
9.36
0
VERTEX
10
7.40726
20
10.5748
30
9.36
0
VERTEX
10
7.40637
20
10.5783
30
9.36
0
VERTEX
10
7.40637
20
10.5801
30
9.36
0
VERTEX
10
7.40906
20
10.5837
30
9.36
0
VERTEX
10
7.40995
20
10.5909
30
9.36
0
VERTEX
10
7.41175
20
10.5945
30
9.36
0
VERTEX
10
7.41175
20
10.6088
30
9.36
0
VERTEX
10
7.41175
20
10.6124
30
9.36
0
VERTEX
10
7.40995
20
10.616
30
9.36
0
VERTEX
10
7.40995
20
10.6232
30
9.36
0
VERTEX
10
7.40906
20
10.6268
30
9.36
0
VERTEX
10
7.40188
20
10.633
30
9.36
0
VERTEX
10
7.40009
20
10.6348
30
9.36
0
VERTEX
10
7.39292
20
10.6375
30
9.36
0
VERTEX
10
7.38933
20
10.6384
30
9.36
0
VERTEX
10
7.38216
20
10.6348
30
9.36
0
VERTEX
10
7.37857
20
10.633
30
9.36
0
VERTEX
10
7.36423
20
10.6339
30
9.36
0
VERTEX
10
7.35706
20
10.6321
30
9.36
0
VERTEX
10
7.35347
20
10.6312
30
9.36
0
VERTEX
10
7.3472
20
10.6259
30
9.36
0
VERTEX
10
7.34361
20
10.6187
30
9.36
0
VERTEX
10
7.34361
20
10.6043
30
9.36
0
VERTEX
10
7.34361
20
10.6026
30
9.36
0
SEQEND
0
POLYLINE
62
227
66
1
70
1
3
endoplasmic_reticulum
0
VERTEX
10
7.69685
20
10.4295
30
9.36
0
VERTEX
10
7.69954
20
10.4259
30
9.36
0
VERTEX
10
7.70133
20
10.4188
30
9.36
0
VERTEX
10
7.70312
20
10.4152
30
9.36
0
VERTEX
10
7.70312
20
10.4116
30
9.36
0
VERTEX
10
7.71657
20
10.3999
30
9.36
0
VERTEX
10
7.74526
20
10.3999
30
9.36
0
VERTEX
10
7.74795
20
10.3963
30
9.36
0
VERTEX
10
7.74885
20
10.3928
30
9.36
0
VERTEX
10
7.75512
20
10.3865
30
9.36
0
VERTEX
10
7.75871
20
10.3883
30
9.36
0
VERTEX
10
7.76588
20
10.3892
30
9.36
0
VERTEX
10
7.77216
20
10.3919
30
9.36
0
VERTEX
10
7.77574
20
10.3919
30
9.36
0
VERTEX
10
7.77754
20
10.3919
30
9.36
0
VERTEX
10
7.78292
20
10.399
30
9.36
0
VERTEX
10
7.78381
20
10.4062
30
9.36
0
VERTEX
10
7.78292
20
10.4098
30
9.36
0
VERTEX
10
7.78023
20
10.4134
30
9.36
0
VERTEX
10
7.77843
20
10.4143
30
9.36
0
VERTEX
10
7.77395
20
10.4286
30
9.36
0
VERTEX
10
7.77395
20
10.4358
30
9.36
0
VERTEX
10
7.77216
20
10.443
30
9.36
0
VERTEX
10
7.76857
20
10.4501
30
9.36
0
VERTEX
10
7.76678
20
10.4573
30
9.36
0
VERTEX
10
7.75961
20
10.4618
30
9.36
0
VERTEX
10
7.75243
20
10.4636
30
9.36
0
VERTEX
10
7.73809
20
10.4636
30
9.36
0
VERTEX
10
7.7345
20
10.4636
30
9.36
0
VERTEX
10
7.72733
20
10.4609
30
9.36
0
VERTEX
10
7.72374
20
10.46
30
9.36
0
VERTEX
10
7.72195
20
10.46
30
9.36
0
VERTEX
10
7.72106
20
10.4582
30
9.36
0
VERTEX
10
7.71926
20
10.4582
30
9.36
0
VERTEX
10
7.71299
20
10.451
30
9.36
0
VERTEX
10
7.70043
20
10.4412
30
9.36
0
VERTEX
10
7.69774
20
10.434
30
9.36
0
VERTEX
10
7.69685
20
10.4304
30
9.36
0
SEQEND
0
POLYLINE
62
227
66
1
70
1
3
endoplasmic_reticulum
0
VERTEX
10
7.44761
20
10.7361
30
9.36
0
VERTEX
10
7.45209
20
10.7299
30
9.36
0
VERTEX
10
7.45388
20
10.7308
30
9.36
0
VERTEX
10
7.45747
20
10.7236
30
9.36
0
VERTEX
10
7.46106
20
10.7218
30
9.36
0
VERTEX
10
7.46285
20
10.7182
30
9.36
0
VERTEX
10
7.46285
20
10.7146
30
9.36
0
VERTEX
10
7.46913
20
10.7083
30
9.36
0
VERTEX
10
7.4763
20
10.7066
30
9.36
0
VERTEX
10
7.48347
20
10.7083
30
9.36
0
VERTEX
10
7.48616
20
10.7101
30
9.36
0
VERTEX
10
7.48795
20
10.7101
30
9.36
0
VERTEX
10
7.5005
20
10.72
30
9.36
0
VERTEX
10
7.50768
20
10.7236
30
9.36
0
VERTEX
10
7.51126
20
10.7254
30
9.36
0
VERTEX
10
7.51844
20
10.7263
30
9.36
0
VERTEX
10
7.52023
20
10.7281
30
9.36
0
VERTEX
10
7.5274
20
10.729
30
9.36
0
VERTEX
10
7.53368
20
10.7335
30
9.36
0
VERTEX
10
7.54713
20
10.7451
30
9.36
0
VERTEX
10
7.55161
20
10.7523
30
9.36
0
VERTEX
10
7.55161
20
10.7594
30
9.36
0
VERTEX
10
7.54981
20
10.763
30
9.36
0
VERTEX
10
7.54354
20
10.7702
30
9.36
0
VERTEX
10
7.54085
20
10.7738
30
9.36
0
VERTEX
10
7.53368
20
10.7783
30
9.36
0
VERTEX
10
7.53009
20
10.7801
30
9.36
0
VERTEX
10
7.5265
20
10.7837
30
9.36
0
VERTEX
10
7.52292
20
10.7854
30
9.36
0
VERTEX
10
7.50857
20
10.7801
30
9.36
0
VERTEX
10
7.5014
20
10.7774
30
9.36
0
VERTEX
10
7.49692
20
10.7738
30
9.36
0
VERTEX
10
7.49513
20
10.7738
30
9.36
0
VERTEX
10
7.48795
20
10.7693
30
9.36
0
VERTEX
10
7.48078
20
10.7675
30
9.36
0
VERTEX
10
7.46644
20
10.7666
30
9.36
0
VERTEX
10
7.46375
20
10.7639
30
9.36
0
VERTEX
10
7.45657
20
10.7621
30
9.36
0
VERTEX
10
7.45119
20
10.7568
30
9.36
0
VERTEX
10
7.45119
20
10.7496
30
9.36
0
VERTEX
10
7.44761
20
10.7424
30
9.36
0
VERTEX
10
7.44761
20
10.7388
30
9.36
0
VERTEX
10
7.44761
20
10.737
30
9.36
0
SEQEND
0
POLYLINE
62
236
66
1
70
1
3
postsynaptic_density
0
VERTEX
10
7.81159
20
10.7453
30
9.36
0
VERTEX
10
7.82146
20
10.7255
30
9.36
0
VERTEX
10
7.8264
20
10.6466
30
9.36
0
VERTEX
10
7.8264
20
10.6071
30
9.36
0
VERTEX
10
7.82886
20
10.5873
30
9.36
0
VERTEX
10
7.8338
20
10.5775
30
9.36
0
VERTEX
10
7.83627
20
10.538
30
9.36
0
VERTEX
10
7.8412
20
10.5183
30
9.36
0
VERTEX
10
7.84614
20
10.5084
30
9.36
0
VERTEX
10
7.8486
20
10.4689
30
9.36
0
VERTEX
10
7.88808
20
10.4689
30
9.36
0
VERTEX
10
7.90782
20
10.4664
30
9.36
0
VERTEX
10
7.92756
20
10.4714
30
9.36
0
VERTEX
10
7.93743
20
10.4763
30
9.36
0
VERTEX
10
8.01638
20
10.4763
30
9.36
0
VERTEX
10
8.05586
20
10.4763
30
9.36
0
VERTEX
10
8.0756
20
10.4714
30
9.36
0
VERTEX
10
8.11508
20
10.4714
30
9.36
0
VERTEX
10
8.12494
20
10.4714
30
9.36
0
VERTEX
10
8.12741
20
10.4615
30
9.36
0
VERTEX
10
8.13235
20
10.4615
30
9.36
0
VERTEX
10
8.14468
20
10.4813
30
9.36
0
VERTEX
10
8.15209
20
10.501
30
9.36
0
VERTEX
10
8.15949
20
10.5084
30
9.36
0
VERTEX
10
8.15949
20
10.5479
30
9.36
0
VERTEX
10
8.14715
20
10.6268
30
9.36
0
VERTEX
10
8.14715
20
10.6466
30
9.36
0
VERTEX
10
8.14222
20
10.6663
30
9.36
0
VERTEX
10
8.14222
20
10.7058
30
9.36
0
VERTEX
10
8.14222
20
10.7255
30
9.36
0
VERTEX
10
8.13235
20
10.765
30
9.36
0
VERTEX
10
8.05339
20
10.7675
30
9.36
0
VERTEX
10
8.01391
20
10.7675
30
9.36
0
VERTEX
10
7.97444
20
10.7601
30
9.36
0
VERTEX
10
7.89548
20
10.7527
30
9.36
0
VERTEX
10
7.88561
20
10.7477
30
9.36
0
VERTEX
10
7.84614
20
10.7477
30
9.36
0
VERTEX
10
7.8264
20
10.7477
30
9.36
0
VERTEX
10
7.81653
20
10.7477
30
9.36
0
VERTEX
10
7.81406
20
10.7477
30
9.36
0
SEQEND
0
POLYLINE
62
31
66
1
70
1
3
contour
0
VERTEX
10
7.20178
20
10.6786
30
9.36
0
VERTEX
10
7.20551
20
10.6636
30
9.36
0
VERTEX
10
7.20738
20
10.6338
30
9.36
0
VERTEX
10
7.21298
20
10.6188
30
9.36
0
VERTEX
10
7.22604
20
10.5591
30
9.36
0
VERTEX
10
7.23164
20
10.5311
30
9.36
0
VERTEX
10
7.25217
20
10.4714
30
9.36
0
VERTEX
10
7.2727
20
10.4453
30
9.36
0
VERTEX
10
7.30069
20
10.4266
30
9.36
0
VERTEX
10
7.32495
20
10.4024
30
9.36
0
VERTEX
10
7.33242
20
10.3949
30
9.36
0
VERTEX
10
7.33615
20
10.3874
30
9.36
0
VERTEX
10
7.33988
20
10.3837
30
9.36
0
VERTEX
10
7.33988
20
10.38
30
9.36
0
VERTEX
10
7.35295
20
10.3669
30
9.36
0
VERTEX
10
7.35854
20
10.3613
30
9.36
0
VERTEX
10
7.36601
20
10.3613
30
9.36
0
VERTEX
10
7.37907
20
10.3464
30
9.36
0
VERTEX
10
7.4052
20
10.3259
30
9.36
0
VERTEX
10
7.42013
20
10.3165
30
9.36
0
VERTEX
10
7.43133
20
10.3091
30
9.36
0
VERTEX
10
7.43879
20
10.3016
30
9.36
0
VERTEX
10
7.45372
20
10.2923
30
9.36
0
VERTEX
10
7.46865
20
10.2923
30
9.36
0
VERTEX
10
7.49851
20
10.2979
30
9.36
0
VERTEX
10
7.51344
20
10.3109
30
9.36
0
VERTEX
10
7.51717
20
10.3109
30
9.36
0
VERTEX
10
7.51904
20
10.3147
30
9.36
0
VERTEX
10
7.5489
20
10.3203
30
9.36
0
VERTEX
10
7.57876
20
10.3184
30
9.36
0
VERTEX
10
7.59369
20
10.3184
30
9.36
0
VERTEX
10
7.60115
20
10.3184
30
9.36
0
VERTEX
10
7.60489
20
10.3184
30
9.36
0
VERTEX
10
7.61049
20
10.3109
30
9.36
0
VERTEX
10
7.62542
20
10.3091
30
9.36
0
VERTEX
10
7.62915
20
10.3053
30
9.36
0
VERTEX
10
7.63661
20
10.3035
30
9.36
0
VERTEX
10
7.66087
20
10.2773
30
9.36
0
VERTEX
10
7.70006
20
10.2195
30
9.36
0
VERTEX
10
7.72619
20
10.1971
30
9.36
0
VERTEX
10
7.74112
20
10.1877
30
9.36
0
VERTEX
10
7.74485
20
10.1859
30
9.36
0
VERTEX
10
7.75978
20
10.1933
30
9.36
0
VERTEX
10
7.76352
20
10.1933
30
9.36
0
VERTEX
10
7.76725
20
10.1971
30
9.36
0
VERTEX
10
7.76725
20
10.2008
30
9.36
0
VERTEX
10
7.77471
20
10.2064
30
9.36
0
VERTEX
10
7.79338
20
10.2344
30
9.36
0
VERTEX
10
7.79524
20
10.2419
30
9.36
0
VERTEX
10
7.79898
20
10.2419
30
9.36
0
VERTEX
10
7.81204
20
10.2549
30
9.36
0
VERTEX
10
7.82697
20
10.2605
30
9.36
0
VERTEX
10
7.83443
20
10.2661
30
9.36
0
VERTEX
10
7.8419
20
10.268
30
9.36
0
VERTEX
10
7.84936
20
10.2736
30
9.36
0
VERTEX
10
7.85683
20
10.2755
30
9.36
0
VERTEX
10
7.86056
20
10.2811
30
9.36
0
VERTEX
10
7.87549
20
10.2904
30
9.36
0
VERTEX
10
7.87922
20
10.2941
30
9.36
0
VERTEX
10
7.89415
20
10.296
30
9.36
0
VERTEX
10
7.89789
20
10.2997
30
9.36
0
VERTEX
10
7.91282
20
10.3035
30
9.36
0
VERTEX
10
7.92028
20
10.3072
30
9.36
0
VERTEX
10
7.92588
20
10.3147
30
9.36
0
VERTEX
10
7.94081
20
10.324
30
9.36
0
VERTEX
10
7.94267
20
10.3277
30
9.36
0
VERTEX
10
7.94641
20
10.3277
30
9.36
0
VERTEX
10
7.9576
20
10.3389
30
9.36
0
VERTEX
10
7.9632
20
10.3464
30
9.36
0
VERTEX
10
7.96694
20
10.3501
30
9.36
0
VERTEX
10
7.96694
20
10.3538
30
9.36
0
VERTEX
10
7.97627
20
10.365
30
9.36
0
VERTEX
10
7.9856
20
10.3949
30
9.36
0
VERTEX
10
7.9912
20
10.4248
30
9.36
0
VERTEX
10
7.99306
20
10.4845
30
9.36
0
VERTEX
10
7.98746
20
10.5442
30
9.36
0
VERTEX
10
7.9856
20
10.6039
30
9.36
0
VERTEX
10
7.98187
20
10.6338
30
9.36
0
VERTEX
10
7.97627
20
10.6487
30
9.36
0
VERTEX
10
7.97253
20
10.6562
30
9.36
0
VERTEX
10
7.97067
20
10.6711
30
9.36
0
VERTEX
10
7.9632
20
10.686
30
9.36
0
VERTEX
10
7.96134
20
10.701
30
9.36
0
VERTEX
10
7.95574
20
10.7159
30
9.36
0
VERTEX
10
7.95201
20
10.7234
30
9.36
0
VERTEX
10
7.94827
20
10.7271
30
9.36
0
VERTEX
10
7.94641
20
10.742
30
9.36
0
VERTEX
10
7.94454
20
10.7495
30
9.36
0
VERTEX
10
7.93894
20
10.7569
30
9.36
0
VERTEX
10
7.93521
20
10.7719
30
9.36
0
VERTEX
10
7.93148
20
10.7793
30
9.36
0
VERTEX
10
7.92401
20
10.7849
30
9.36
0
VERTEX
10
7.91655
20
10.7868
30
9.36
0
VERTEX
10
7.91282
20
10.7849
30
9.36
0
VERTEX
10
7.90722
20
10.7924
30
9.36
0
VERTEX
10
7.89975
20
10.7943
30
9.36
0
VERTEX
10
7.89415
20
10.7999
30
9.36
0
VERTEX
10
7.86429
20
10.8129
30
9.36
0
VERTEX
10
7.86056
20
10.8129
30
9.36
0
VERTEX
10
7.85496
20
10.8204
30
9.36
0
VERTEX
10
7.85123
20
10.8241
30
9.36
0
VERTEX
10
7.8475
20
10.8241
30
9.36
0
VERTEX
10
7.84563
20
10.8279
30
9.36
0
VERTEX
10
7.83817
20
10.8297
30
9.36
0
VERTEX
10
7.8251
20
10.8428
30
9.36
0
VERTEX
10
7.81764
20
10.8465
30
9.36
0
VERTEX
10
7.81577
20
10.8503
30
9.36
0
VERTEX
10
7.81204
20
10.8503
30
9.36
0
VERTEX
10
7.80831
20
10.8577
30
9.36
0
VERTEX
10
7.80457
20
10.8615
30
9.36
0
VERTEX
10
7.80084
20
10.8764
30
9.36
0
VERTEX
10
7.79151
20
10.8913
30
9.36
0
VERTEX
10
7.79151
20
10.8951
30
9.36
0
VERTEX
10
7.78778
20
10.8988
30
9.36
0
VERTEX
10
7.78778
20
10.9025
30
9.36
0
VERTEX
10
7.78031
20
10.9081
30
9.36
0
VERTEX
10
7.77845
20
10.9118
30
9.36
0
VERTEX
10
7.77471
20
10.9118
30
9.36
0
VERTEX
10
7.76725
20
10.9174
30
9.36
0
VERTEX
10
7.70753
20
10.9193
30
9.36
0
VERTEX
10
7.6926
20
10.9174
30
9.36
0
VERTEX
10
7.68514
20
10.9174
30
9.36
0
VERTEX
10
7.67021
20
10.91
30
9.36
0
VERTEX
10
7.65528
20
10.9081
30
9.36
0
VERTEX
10
7.65154
20
10.9081
30
9.36
0
VERTEX
10
7.63661
20
10.8988
30
9.36
0
VERTEX
10
7.62168
20
10.8969
30
9.36
0
VERTEX
10
7.61422
20
10.8951
30
9.36
0
VERTEX
10
7.61049
20
10.8951
30
9.36
0
VERTEX
10
7.60489
20
10.8895
30
9.36
0
VERTEX
10
7.58996
20
10.8839
30
9.36
0
VERTEX
10
7.57503
20
10.882
30
9.36
0
VERTEX
10
7.5601
20
10.8764
30
9.36
0
VERTEX
10
7.50038
20
10.8783
30
9.36
0
VERTEX
10
7.47052
20
10.8764
30
9.36
0
VERTEX
10
7.46305
20
10.8764
30
9.36
0
VERTEX
10
7.45559
20
10.8727
30
9.36
0
VERTEX
10
7.44999
20
10.8652
30
9.36
0
VERTEX
10
7.44626
20
10.8615
30
9.36
0
VERTEX
10
7.43879
20
10.8615
30
9.36
0
VERTEX
10
7.42946
20
10.8484
30
9.36
0
VERTEX
10
7.422
20
10.8428
30
9.36
0
VERTEX
10
7.42013
20
10.8353
30
9.36
0
VERTEX
10
7.42013
20
10.8316
30
9.36
0
VERTEX
10
7.41453
20
10.8241
30
9.36
0
VERTEX
10
7.41453
20
10.8167
30
9.36
0
VERTEX
10
7.40707
20
10.8017
30
9.36
0
VERTEX
10
7.40147
20
10.7943
30
9.36
0
VERTEX
10
7.39587
20
10.7793
30
9.36
0
VERTEX
10
7.39587
20
10.7756
30
9.36
0
VERTEX
10
7.38094
20
10.7681
30
9.36
0
VERTEX
10
7.36974
20
10.7569
30
9.36
0
VERTEX
10
7.35481
20
10.7569
30
9.36
0
VERTEX
10
7.35108
20
10.7569
30
9.36
0
VERTEX
10
7.34362
20
10.7514
30
9.36
0
VERTEX
10
7.33615
20
10.7514
30
9.36
0
VERTEX
10
7.32309
20
10.7439
30
9.36
0
VERTEX
10
7.26337
20
10.7327
30
9.36
0
VERTEX
10
7.23351
20
10.7308
30
9.36
0
VERTEX
10
7.23537
20
10.7364
30
9.36
0
VERTEX
10
7.23164
20
10.7383
30
9.36
0
VERTEX
10
7.20551
20
10.7103
30
9.36
0
VERTEX
10
7.20178
20
10.6954
30
9.36
0
VERTEX
10
7.20178
20
10.6804
30
9.36
0
SEQEND
0
ENDSEC
0
EOF
