0
SECTION
2
ENTITIES
0
POLYLINE
62
31
66
1
70
1
3
contour
0
VERTEX
10
6.93485
20
10.6914
30
9.88
0
VERTEX
10
6.93858
20
10.6765
30
9.88
0
VERTEX
10
6.96096
20
10.6541
30
9.88
0
VERTEX
10
6.96842
20
10.6541
30
9.88
0
VERTEX
10
6.99826
20
10.628
30
9.88
0
VERTEX
10
7.05049
20
10.5869
30
9.88
0
VERTEX
10
7.10645
20
10.531
30
9.88
0
VERTEX
10
7.11391
20
10.5235
30
9.88
0
VERTEX
10
7.14375
20
10.5235
30
9.88
0
VERTEX
10
7.15867
20
10.5235
30
9.88
0
VERTEX
10
7.18851
20
10.5422
30
9.88
0
VERTEX
10
7.2482
20
10.5496
30
9.88
0
VERTEX
10
7.36757
20
10.5534
30
9.88
0
VERTEX
10
7.42726
20
10.5534
30
9.88
0
VERTEX
10
7.4571
20
10.5571
30
9.88
0
VERTEX
10
7.47203
20
10.5608
30
9.88
0
VERTEX
10
7.52798
20
10.6056
30
9.88
0
VERTEX
10
7.52798
20
10.613
30
9.88
0
VERTEX
10
7.5429
20
10.628
30
9.88
0
VERTEX
10
7.57275
20
10.6466
30
9.88
0
VERTEX
10
7.59513
20
10.6765
30
9.88
0
VERTEX
10
7.60632
20
10.6914
30
9.88
0
VERTEX
10
7.62497
20
10.7511
30
9.88
0
VERTEX
10
7.62124
20
10.8107
30
9.88
0
VERTEX
10
7.61751
20
10.8406
30
9.88
0
VERTEX
10
7.60632
20
10.8704
30
9.88
0
VERTEX
10
7.58021
20
10.8891
30
9.88
0
VERTEX
10
7.57275
20
10.8891
30
9.88
0
VERTEX
10
7.53171
20
10.9488
30
9.88
0
VERTEX
10
7.5056
20
10.9786
30
9.88
0
VERTEX
10
7.48695
20
11.0047
30
9.88
0
VERTEX
10
7.47203
20
11.0085
30
9.88
0
VERTEX
10
7.46457
20
11.0234
30
9.88
0
VERTEX
10
7.45337
20
11.0308
30
9.88
0
VERTEX
10
7.43845
20
11.057
30
9.88
0
VERTEX
10
7.41607
20
11.0831
30
9.88
0
VERTEX
10
7.40861
20
11.098
30
9.88
0
VERTEX
10
7.34892
20
11.1055
30
9.88
0
VERTEX
10
7.22955
20
11.1017
30
9.88
0
VERTEX
10
7.19971
20
11.098
30
9.88
0
VERTEX
10
7.18478
20
11.0943
30
9.88
0
VERTEX
10
7.12883
20
11.0383
30
9.88
0
VERTEX
10
7.12137
20
11.0383
30
9.88
0
VERTEX
10
7.09525
20
11.0085
30
9.88
0
VERTEX
10
7.08406
20
10.9935
30
9.88
0
VERTEX
10
7.08033
20
10.9786
30
9.88
0
VERTEX
10
7.07287
20
10.9712
30
9.88
0
VERTEX
10
7.07287
20
10.9637
30
9.88
0
VERTEX
10
7.05422
20
10.9339
30
9.88
0
VERTEX
10
7.05049
20
10.9189
30
9.88
0
VERTEX
10
7.00572
20
10.8667
30
9.88
0
VERTEX
10
6.99826
20
10.8592
30
9.88
0
VERTEX
10
6.99453
20
10.8443
30
9.88
0
VERTEX
10
6.97215
20
10.8145
30
9.88
0
VERTEX
10
6.96096
20
10.7884
30
9.88
0
VERTEX
10
6.94977
20
10.7734
30
9.88
0
VERTEX
10
6.94231
20
10.7697
30
9.88
0
VERTEX
10
6.93485
20
10.7399
30
9.88
0
VERTEX
10
6.93485
20
10.71
30
9.88
0
VERTEX
10
6.93485
20
10.6951
30
9.88
0
SEQEND
0
POLYLINE
62
224
66
1
70
1
3
mitochondrion
0
VERTEX
10
7.16489
20
10.7299
30
9.88
0
VERTEX
10
7.16767
20
10.7188
30
9.88
0
VERTEX
10
7.16906
20
10.7133
30
9.88
0
VERTEX
10
7.16906
20
10.7105
30
9.88
0
VERTEX
10
7.1774
20
10.6994
30
9.88
0
VERTEX
10
7.18157
20
10.6938
30
9.88
0
VERTEX
10
7.20243
20
10.6813
30
9.88
0
VERTEX
10
7.20521
20
10.6785
30
9.88
0
VERTEX
10
7.21633
20
10.6757
30
9.88
0
VERTEX
10
7.22189
20
10.6715
30
9.88
0
VERTEX
10
7.24414
20
10.6646
30
9.88
0
VERTEX
10
7.25526
20
10.659
30
9.88
0
VERTEX
10
7.26082
20
10.6549
30
9.88
0
VERTEX
10
7.27195
20
10.6521
30
9.88
0
VERTEX
10
7.2942
20
10.6424
30
9.88
0
VERTEX
10
7.30532
20
10.6382
30
9.88
0
VERTEX
10
7.32757
20
10.6368
30
9.88
0
VERTEX
10
7.34981
20
10.6382
30
9.88
0
VERTEX
10
7.35537
20
10.6396
30
9.88
0
VERTEX
10
7.35816
20
10.6424
30
9.88
0
VERTEX
10
7.36372
20
10.6437
30
9.88
0
VERTEX
10
7.37206
20
10.6507
30
9.88
0
VERTEX
10
7.38179
20
10.6604
30
9.88
0
VERTEX
10
7.39153
20
10.6674
30
9.88
0
VERTEX
10
7.39431
20
10.6729
30
9.88
0
VERTEX
10
7.40543
20
10.6827
30
9.88
0
VERTEX
10
7.41099
20
10.6868
30
9.88
0
VERTEX
10
7.41377
20
10.6924
30
9.88
0
VERTEX
10
7.41377
20
10.6952
30
9.88
0
VERTEX
10
7.41933
20
10.6994
30
9.88
0
VERTEX
10
7.42211
20
10.7216
30
9.88
0
VERTEX
10
7.42211
20
10.7327
30
9.88
0
VERTEX
10
7.41794
20
10.755
30
9.88
0
VERTEX
10
7.41655
20
10.7661
30
9.88
0
VERTEX
10
7.41238
20
10.7717
30
9.88
0
VERTEX
10
7.40682
20
10.7939
30
9.88
0
VERTEX
10
7.40404
20
10.7995
30
9.88
0
VERTEX
10
7.40126
20
10.8009
30
9.88
0
VERTEX
10
7.39987
20
10.8064
30
9.88
0
VERTEX
10
7.3957
20
10.8078
30
9.88
0
VERTEX
10
7.38874
20
10.8175
30
9.88
0
VERTEX
10
7.38457
20
10.8231
30
9.88
0
VERTEX
10
7.38179
20
10.8259
30
9.88
0
VERTEX
10
7.37762
20
10.837
30
9.88
0
VERTEX
10
7.36233
20
10.8579
30
9.88
0
VERTEX
10
7.3512
20
10.8648
30
9.88
0
VERTEX
10
7.34564
20
10.8662
30
9.88
0
VERTEX
10
7.33452
20
10.8732
30
9.88
0
VERTEX
10
7.31227
20
10.8801
30
9.88
0
VERTEX
10
7.26778
20
10.8801
30
9.88
0
VERTEX
10
7.25665
20
10.8801
30
9.88
0
VERTEX
10
7.25109
20
10.8801
30
9.88
0
VERTEX
10
7.24553
20
10.8773
30
9.88
0
VERTEX
10
7.23441
20
10.8773
30
9.88
0
VERTEX
10
7.22328
20
10.8746
30
9.88
0
VERTEX
10
7.21772
20
10.8704
30
9.88
0
VERTEX
10
7.21494
20
10.8704
30
9.88
0
VERTEX
10
7.19687
20
10.8495
30
9.88
0
VERTEX
10
7.19269
20
10.844
30
9.88
0
VERTEX
10
7.19269
20
10.8412
30
9.88
0
VERTEX
10
7.18991
20
10.8384
30
9.88
0
VERTEX
10
7.18852
20
10.8328
30
9.88
0
VERTEX
10
7.18157
20
10.8231
30
9.88
0
VERTEX
10
7.1774
20
10.812
30
9.88
0
VERTEX
10
7.17601
20
10.8064
30
9.88
0
VERTEX
10
7.17184
20
10.8009
30
9.88
0
VERTEX
10
7.16906
20
10.7897
30
9.88
0
VERTEX
10
7.16628
20
10.787
30
9.88
0
VERTEX
10
7.16489
20
10.7425
30
9.88
0
VERTEX
10
7.16489
20
10.7313
30
9.88
0
SEQEND
0
POLYLINE
62
227
66
1
70
1
3
endoplasmic_reticulum
0
VERTEX
10
7.45388
20
10.6312
30
9.88
0
VERTEX
10
7.45568
20
10.6277
30
9.88
0
VERTEX
10
7.45568
20
10.6205
30
9.88
0
VERTEX
10
7.45926
20
10.6133
30
9.88
0
VERTEX
10
7.46285
20
10.6124
30
9.88
0
VERTEX
10
7.46644
20
10.6097
30
9.88
0
VERTEX
10
7.46644
20
10.6079
30
9.88
0
VERTEX
10
7.47002
20
10.6052
30
9.88
0
VERTEX
10
7.48437
20
10.6061
30
9.88
0
VERTEX
10
7.48795
20
10.6079
30
9.88
0
VERTEX
10
7.49064
20
10.6115
30
9.88
0
VERTEX
10
7.49154
20
10.6151
30
9.88
0
VERTEX
10
7.49333
20
10.6169
30
9.88
0
VERTEX
10
7.49513
20
10.6241
30
9.88
0
VERTEX
10
7.49423
20
10.6384
30
9.88
0
VERTEX
10
7.49423
20
10.642
30
9.88
0
VERTEX
10
7.49154
20
10.6456
30
9.88
0
VERTEX
10
7.48526
20
10.6501
30
9.88
0
VERTEX
10
7.48168
20
10.651
30
9.88
0
VERTEX
10
7.4763
20
10.6581
30
9.88
0
VERTEX
10
7.46913
20
10.6644
30
9.88
0
VERTEX
10
7.46195
20
10.6635
30
9.88
0
VERTEX
10
7.45837
20
10.6617
30
9.88
0
VERTEX
10
7.45657
20
10.6599
30
9.88
0
VERTEX
10
7.45388
20
10.6528
30
9.88
0
VERTEX
10
7.45388
20
10.6384
30
9.88
0
VERTEX
10
7.45388
20
10.6321
30
9.88
0
SEQEND
0
POLYLINE
62
227
66
1
70
1
3
endoplasmic_reticulum
0
VERTEX
10
7.13561
20
10.6339
30
9.88
0
VERTEX
10
7.1374
20
10.6303
30
9.88
0
VERTEX
10
7.1374
20
10.6268
30
9.88
0
VERTEX
10
7.14189
20
10.6196
30
9.88
0
VERTEX
10
7.14816
20
10.616
30
9.88
0
VERTEX
10
7.15175
20
10.6151
30
9.88
0
VERTEX
10
7.15354
20
10.6151
30
9.88
0
VERTEX
10
7.15533
20
10.6133
30
9.88
0
VERTEX
10
7.16251
20
10.6124
30
9.88
0
VERTEX
10
7.17596
20
10.6151
30
9.88
0
VERTEX
10
7.17685
20
10.6133
30
9.88
0
VERTEX
10
7.17864
20
10.6142
30
9.88
0
VERTEX
10
7.17954
20
10.6178
30
9.88
0
VERTEX
10
7.18223
20
10.6205
30
9.88
0
VERTEX
10
7.18223
20
10.6348
30
9.88
0
VERTEX
10
7.18133
20
10.642
30
9.88
0
VERTEX
10
7.18044
20
10.6456
30
9.88
0
VERTEX
10
7.17685
20
10.6492
30
9.88
0
VERTEX
10
7.16968
20
10.6519
30
9.88
0
VERTEX
10
7.16251
20
10.6519
30
9.88
0
VERTEX
10
7.15533
20
10.6581
30
9.88
0
VERTEX
10
7.15175
20
10.659
30
9.88
0
VERTEX
10
7.14996
20
10.6572
30
9.88
0
VERTEX
10
7.14637
20
10.6563
30
9.88
0
VERTEX
10
7.14099
20
10.6501
30
9.88
0
VERTEX
10
7.1374
20
10.6429
30
9.88
0
VERTEX
10
7.13561
20
10.6393
30
9.88
0
VERTEX
10
7.13561
20
10.6357
30
9.88
0
VERTEX
10
7.13561
20
10.6348
30
9.88
0
SEQEND
0
POLYLINE
62
227
66
1
70
1
3
endoplasmic_reticulum
0
VERTEX
10
7.02265
20
10.7765
30
9.88
0
VERTEX
10
7.02534
20
10.7702
30
9.88
0
VERTEX
10
7.02802
20
10.7675
30
9.88
0
VERTEX
10
7.04237
20
10.7675
30
9.88
0
VERTEX
10
7.04954
20
10.7684
30
9.88
0
VERTEX
10
7.05134
20
10.7684
30
9.88
0
VERTEX
10
7.05402
20
10.772
30
9.88
0
VERTEX
10
7.06837
20
10.772
30
9.88
0
VERTEX
10
7.07554
20
10.7693
30
9.88
0
VERTEX
10
7.07823
20
10.7675
30
9.88
0
VERTEX
10
7.07913
20
10.7639
30
9.88
0
VERTEX
10
7.08899
20
10.7496
30
9.88
0
VERTEX
10
7.09078
20
10.7352
30
9.88
0
VERTEX
10
7.09437
20
10.7281
30
9.88
0
VERTEX
10
7.10065
20
10.7218
30
9.88
0
VERTEX
10
7.10782
20
10.7209
30
9.88
0
VERTEX
10
7.10961
20
10.7209
30
9.88
0
VERTEX
10
7.1123
20
10.7245
30
9.88
0
VERTEX
10
7.11589
20
10.7263
30
9.88
0
VERTEX
10
7.11768
20
10.7281
30
9.88
0
VERTEX
10
7.11947
20
10.7352
30
9.88
0
VERTEX
10
7.12127
20
10.737
30
9.88
0
VERTEX
10
7.12216
20
10.7442
30
9.88
0
VERTEX
10
7.12216
20
10.7478
30
9.88
0
VERTEX
10
7.12216
20
10.7496
30
9.88
0
VERTEX
10
7.12037
20
10.7514
30
9.88
0
VERTEX
10
7.11947
20
10.7586
30
9.88
0
VERTEX
10
7.11409
20
10.772
30
9.88
0
VERTEX
10
7.10065
20
10.7801
30
9.88
0
VERTEX
10
7.09527
20
10.7854
30
9.88
0
VERTEX
10
7.09347
20
10.789
30
9.88
0
VERTEX
10
7.09347
20
10.8177
30
9.88
0
VERTEX
10
7.09258
20
10.8321
30
9.88
0
VERTEX
10
7.0863
20
10.8366
30
9.88
0
VERTEX
10
7.08361
20
10.8401
30
9.88
0
VERTEX
10
7.08092
20
10.8419
30
9.88
0
VERTEX
10
7.07375
20
10.8366
30
9.88
0
VERTEX
10
7.06658
20
10.8357
30
9.88
0
VERTEX
10
7.06299
20
10.8348
30
9.88
0
VERTEX
10
7.0594
20
10.8321
30
9.88
0
VERTEX
10
7.05134
20
10.8177
30
9.88
0
VERTEX
10
7.04596
20
10.8106
30
9.88
0
VERTEX
10
7.04506
20
10.807
30
9.88
0
VERTEX
10
7.04237
20
10.8034
30
9.88
0
VERTEX
10
7.03878
20
10.8025
30
9.88
0
VERTEX
10
7.03699
20
10.8025
30
9.88
0
VERTEX
10
7.0334
20
10.7998
30
9.88
0
VERTEX
10
7.02982
20
10.7989
30
9.88
0
VERTEX
10
7.02534
20
10.7926
30
9.88
0
VERTEX
10
7.02265
20
10.7854
30
9.88
0
VERTEX
10
7.02265
20
10.7783
30
9.88
0
VERTEX
10
7.02265
20
10.7774
30
9.88
0
SEQEND
0
ENDSEC
0
EOF
