0
SECTION
2
ENTITIES
0
POLYLINE
62
31
66
1
70
1
3
contour
0
VERTEX
10
6.76162
20
10.8996
30
9.56
0
VERTEX
10
6.7682
20
10.8469
30
9.56
0
VERTEX
10
6.77149
20
10.8337
30
9.56
0
VERTEX
10
6.77807
20
10.8271
30
9.56
0
VERTEX
10
6.77807
20
10.8206
30
9.56
0
VERTEX
10
6.79124
20
10.8074
30
9.56
0
VERTEX
10
6.79453
20
10.7811
30
9.56
0
VERTEX
10
6.79783
20
10.7679
30
9.56
0
VERTEX
10
6.80441
20
10.7646
30
9.56
0
VERTEX
10
6.80441
20
10.758
30
9.56
0
VERTEX
10
6.82745
20
10.7317
30
9.56
0
VERTEX
10
6.83733
20
10.7218
30
9.56
0
VERTEX
10
6.86037
20
10.7119
30
9.56
0
VERTEX
10
6.87354
20
10.7119
30
9.56
0
VERTEX
10
6.88671
20
10.7053
30
9.56
0
VERTEX
10
6.93938
20
10.6988
30
9.56
0
VERTEX
10
6.95255
20
10.6955
30
9.56
0
VERTEX
10
6.95913
20
10.6955
30
9.56
0
VERTEX
10
6.96901
20
10.6823
30
9.56
0
VERTEX
10
6.99534
20
10.6691
30
9.56
0
VERTEX
10
7.00851
20
10.656
30
9.56
0
VERTEX
10
7.02168
20
10.6527
30
9.56
0
VERTEX
10
7.02497
20
10.6461
30
9.56
0
VERTEX
10
7.03814
20
10.6428
30
9.56
0
VERTEX
10
7.08752
20
10.6066
30
9.56
0
VERTEX
10
7.10068
20
10.6033
30
9.56
0
VERTEX
10
7.14348
20
10.5605
30
9.56
0
VERTEX
10
7.15006
20
10.5572
30
9.56
0
VERTEX
10
7.15006
20
10.5506
30
9.56
0
VERTEX
10
7.16323
20
10.5407
30
9.56
0
VERTEX
10
7.16652
20
10.5276
30
9.56
0
VERTEX
10
7.20603
20
10.4782
30
9.56
0
VERTEX
10
7.2587
20
10.4584
30
9.56
0
VERTEX
10
7.28503
20
10.4519
30
9.56
0
VERTEX
10
7.3377
20
10.4519
30
9.56
0
VERTEX
10
7.39037
20
10.4321
30
9.56
0
VERTEX
10
7.44304
20
10.4058
30
9.56
0
VERTEX
10
7.46938
20
10.3926
30
9.56
0
VERTEX
10
7.48255
20
10.3827
30
9.56
0
VERTEX
10
7.48913
20
10.3827
30
9.56
0
VERTEX
10
7.5023
20
10.3729
30
9.56
0
VERTEX
10
7.50888
20
10.3663
30
9.56
0
VERTEX
10
7.51547
20
10.3663
30
9.56
0
VERTEX
10
7.52205
20
10.3597
30
9.56
0
VERTEX
10
7.54839
20
10.3531
30
9.56
0
VERTEX
10
7.57472
20
10.3399
30
9.56
0
VERTEX
10
7.58789
20
10.3301
30
9.56
0
VERTEX
10
7.61422
20
10.3268
30
9.56
0
VERTEX
10
7.66689
20
10.3037
30
9.56
0
VERTEX
10
7.69323
20
10.2939
30
9.56
0
VERTEX
10
7.69981
20
10.2873
30
9.56
0
VERTEX
10
7.71298
20
10.2906
30
9.56
0
VERTEX
10
7.71957
20
10.2971
30
9.56
0
VERTEX
10
7.7459
20
10.3004
30
9.56
0
VERTEX
10
7.75907
20
10.307
30
9.56
0
VERTEX
10
7.76565
20
10.3136
30
9.56
0
VERTEX
10
7.76565
20
10.3202
30
9.56
0
VERTEX
10
7.81503
20
10.3564
30
9.56
0
VERTEX
10
7.82491
20
10.363
30
9.56
0
VERTEX
10
7.85453
20
10.4157
30
9.56
0
VERTEX
10
7.86112
20
10.4288
30
9.56
0
VERTEX
10
7.86112
20
10.4815
30
9.56
0
VERTEX
10
7.85453
20
10.4947
30
9.56
0
VERTEX
10
7.85453
20
10.5473
30
9.56
0
VERTEX
10
7.84795
20
10.6
30
9.56
0
VERTEX
10
7.84795
20
10.7053
30
9.56
0
VERTEX
10
7.83149
20
10.758
30
9.56
0
VERTEX
10
7.81832
20
10.7843
30
9.56
0
VERTEX
10
7.81503
20
10.7975
30
9.56
0
VERTEX
10
7.80845
20
10.8041
30
9.56
0
VERTEX
10
7.80186
20
10.8041
30
9.56
0
VERTEX
10
7.77882
20
10.8304
30
9.56
0
VERTEX
10
7.75248
20
10.8469
30
9.56
0
VERTEX
10
7.7459
20
10.8469
30
9.56
0
VERTEX
10
7.73603
20
10.8601
30
9.56
0
VERTEX
10
7.68335
20
10.8864
30
9.56
0
VERTEX
10
7.68335
20
10.893
30
9.56
0
VERTEX
10
7.63068
20
10.9029
30
9.56
0
VERTEX
10
7.57801
20
10.9029
30
9.56
0
VERTEX
10
7.56485
20
10.8996
30
9.56
0
VERTEX
10
7.53851
20
10.9061
30
9.56
0
VERTEX
10
7.48584
20
10.9029
30
9.56
0
VERTEX
10
7.47267
20
10.8963
30
9.56
0
VERTEX
10
7.42
20
10.8897
30
9.56
0
VERTEX
10
7.36733
20
10.8765
30
9.56
0
VERTEX
10
7.31466
20
10.8568
30
9.56
0
VERTEX
10
7.28832
20
10.837
30
9.56
0
VERTEX
10
7.23565
20
10.8271
30
9.56
0
VERTEX
10
7.18298
20
10.8239
30
9.56
0
VERTEX
10
7.13031
20
10.8271
30
9.56
0
VERTEX
10
7.11714
20
10.837
30
9.56
0
VERTEX
10
7.09081
20
10.8436
30
9.56
0
VERTEX
10
7.07764
20
10.8469
30
9.56
0
VERTEX
10
7.07106
20
10.8469
30
9.56
0
VERTEX
10
7.06776
20
10.8535
30
9.56
0
VERTEX
10
7.01839
20
10.8666
30
9.56
0
VERTEX
10
6.99205
20
10.8798
30
9.56
0
VERTEX
10
6.97888
20
10.8831
30
9.56
0
VERTEX
10
6.95255
20
10.8996
30
9.56
0
VERTEX
10
6.93938
20
10.8996
30
9.56
0
VERTEX
10
6.88671
20
10.9193
30
9.56
0
VERTEX
10
6.86037
20
10.9226
30
9.56
0
VERTEX
10
6.83404
20
10.9193
30
9.56
0
VERTEX
10
6.83075
20
10.9226
30
9.56
0
VERTEX
10
6.83404
20
10.9358
30
9.56
0
VERTEX
10
6.83733
20
10.9424
30
9.56
0
VERTEX
10
6.82416
20
10.9457
30
9.56
0
VERTEX
10
6.81099
20
10.9424
30
9.56
0
VERTEX
10
6.80441
20
10.9424
30
9.56
0
VERTEX
10
6.79124
20
10.9325
30
9.56
0
VERTEX
10
6.77807
20
10.9292
30
9.56
0
VERTEX
10
6.76491
20
10.9193
30
9.56
0
VERTEX
10
6.76162
20
10.9061
30
9.56
0
VERTEX
10
6.76162
20
10.9029
30
9.56
0
SEQEND
0
POLYLINE
62
224
66
1
70
1
3
mitochondrion
0
VERTEX
10
7.33452
20
10.6757
30
9.56
0
VERTEX
10
7.33591
20
10.6646
30
9.56
0
VERTEX
10
7.33591
20
10.659
30
9.56
0
VERTEX
10
7.33869
20
10.6535
30
9.56
0
VERTEX
10
7.33869
20
10.6507
30
9.56
0
VERTEX
10
7.34147
20
10.6493
30
9.56
0
VERTEX
10
7.34286
20
10.6437
30
9.56
0
VERTEX
10
7.34564
20
10.6437
30
9.56
0
VERTEX
10
7.34564
20
10.6382
30
9.56
0
VERTEX
10
7.35816
20
10.6173
30
9.56
0
VERTEX
10
7.35816
20
10.6145
30
9.56
0
VERTEX
10
7.36372
20
10.6104
30
9.56
0
VERTEX
10
7.36372
20
10.6076
30
9.56
0
VERTEX
10
7.37067
20
10.5965
30
9.56
0
VERTEX
10
7.37345
20
10.5937
30
9.56
0
VERTEX
10
7.37484
20
10.5881
30
9.56
0
VERTEX
10
7.39292
20
10.5687
30
9.56
0
VERTEX
10
7.3957
20
10.5645
30
9.56
0
VERTEX
10
7.40682
20
10.5548
30
9.56
0
VERTEX
10
7.41794
20
10.5492
30
9.56
0
VERTEX
10
7.42351
20
10.5464
30
9.56
0
VERTEX
10
7.42629
20
10.5464
30
9.56
0
VERTEX
10
7.42907
20
10.5436
30
9.56
0
VERTEX
10
7.45131
20
10.5395
30
9.56
0
VERTEX
10
7.49581
20
10.5367
30
9.56
0
VERTEX
10
7.51805
20
10.5367
30
9.56
0
VERTEX
10
7.52918
20
10.5367
30
9.56
0
VERTEX
10
7.53196
20
10.5353
30
9.56
0
VERTEX
10
7.55421
20
10.5408
30
9.56
0
VERTEX
10
7.56533
20
10.545
30
9.56
0
VERTEX
10
7.56672
20
10.5478
30
9.56
0
VERTEX
10
7.57228
20
10.5492
30
9.56
0
VERTEX
10
7.58201
20
10.5589
30
9.56
0
VERTEX
10
7.58758
20
10.5617
30
9.56
0
VERTEX
10
7.59731
20
10.5728
30
9.56
0
VERTEX
10
7.60287
20
10.5826
30
9.56
0
VERTEX
10
7.60704
20
10.5867
30
9.56
0
VERTEX
10
7.60843
20
10.5923
30
9.56
0
VERTEX
10
7.60843
20
10.5951
30
9.56
0
VERTEX
10
7.61121
20
10.5979
30
9.56
0
VERTEX
10
7.61678
20
10.6201
30
9.56
0
VERTEX
10
7.62234
20
10.6312
30
9.56
0
VERTEX
10
7.62373
20
10.6424
30
9.56
0
VERTEX
10
7.6279
20
10.6535
30
9.56
0
VERTEX
10
7.62651
20
10.6757
30
9.56
0
VERTEX
10
7.62651
20
10.6813
30
9.56
0
VERTEX
10
7.62512
20
10.6841
30
9.56
0
VERTEX
10
7.61956
20
10.6841
30
9.56
0
VERTEX
10
7.61678
20
10.6841
30
9.56
0
VERTEX
10
7.61538
20
10.6952
30
9.56
0
VERTEX
10
7.6126
20
10.7007
30
9.56
0
VERTEX
10
7.6126
20
10.723
30
9.56
0
VERTEX
10
7.61121
20
10.7341
30
9.56
0
VERTEX
10
7.60704
20
10.7383
30
9.56
0
VERTEX
10
7.60565
20
10.7439
30
9.56
0
VERTEX
10
7.59036
20
10.7619
30
9.56
0
VERTEX
10
7.58758
20
10.7675
30
9.56
0
VERTEX
10
7.55003
20
10.805
30
9.56
0
VERTEX
10
7.54447
20
10.8064
30
9.56
0
VERTEX
10
7.53613
20
10.8134
30
9.56
0
VERTEX
10
7.51527
20
10.8259
30
9.56
0
VERTEX
10
7.49303
20
10.8356
30
9.56
0
VERTEX
10
7.4819
20
10.8398
30
9.56
0
VERTEX
10
7.47078
20
10.8398
30
9.56
0
VERTEX
10
7.46522
20
10.8398
30
9.56
0
VERTEX
10
7.45409
20
10.8328
30
9.56
0
VERTEX
10
7.44297
20
10.8287
30
9.56
0
VERTEX
10
7.43741
20
10.8259
30
9.56
0
VERTEX
10
7.43185
20
10.8259
30
9.56
0
VERTEX
10
7.42072
20
10.8217
30
9.56
0
VERTEX
10
7.41794
20
10.8189
30
9.56
0
VERTEX
10
7.41516
20
10.8189
30
9.56
0
VERTEX
10
7.40404
20
10.8106
30
9.56
0
VERTEX
10
7.38318
20
10.7995
30
9.56
0
VERTEX
10
7.37206
20
10.7911
30
9.56
0
VERTEX
10
7.3665
20
10.787
30
9.56
0
VERTEX
10
7.3665
20
10.7842
30
9.56
0
VERTEX
10
7.35955
20
10.7731
30
9.56
0
VERTEX
10
7.35676
20
10.7717
30
9.56
0
VERTEX
10
7.35676
20
10.7689
30
9.56
0
VERTEX
10
7.34425
20
10.7466
30
9.56
0
VERTEX
10
7.34286
20
10.7411
30
9.56
0
VERTEX
10
7.34008
20
10.7383
30
9.56
0
VERTEX
10
7.3373
20
10.7272
30
9.56
0
VERTEX
10
7.3373
20
10.716
30
9.56
0
VERTEX
10
7.33452
20
10.7105
30
9.56
0
VERTEX
10
7.33452
20
10.6882
30
9.56
0
VERTEX
10
7.33452
20
10.6771
30
9.56
0
SEQEND
0
POLYLINE
62
227
66
1
70
1
3
endoplasmic_reticulum
0
VERTEX
10
7.52381
20
10.4699
30
9.56
0
VERTEX
10
7.52471
20
10.4627
30
9.56
0
VERTEX
10
7.5265
20
10.4591
30
9.56
0
VERTEX
10
7.5265
20
10.4573
30
9.56
0
VERTEX
10
7.5283
20
10.4555
30
9.56
0
VERTEX
10
7.5283
20
10.4483
30
9.56
0
VERTEX
10
7.53457
20
10.443
30
9.56
0
VERTEX
10
7.53726
20
10.4403
30
9.56
0
VERTEX
10
7.54085
20
10.4394
30
9.56
0
VERTEX
10
7.54354
20
10.4367
30
9.56
0
VERTEX
10
7.55788
20
10.4313
30
9.56
0
VERTEX
10
7.57223
20
10.4304
30
9.56
0
VERTEX
10
7.58657
20
10.4331
30
9.56
0
VERTEX
10
7.59016
20
10.434
30
9.56
0
VERTEX
10
7.59644
20
10.4394
30
9.56
0
VERTEX
10
7.60002
20
10.4421
30
9.56
0
VERTEX
10
7.60002
20
10.4439
30
9.56
0
VERTEX
10
7.60361
20
10.4448
30
9.56
0
VERTEX
10
7.6054
20
10.4457
30
9.56
0
VERTEX
10
7.6063
20
10.4492
30
9.56
0
VERTEX
10
7.6063
20
10.451
30
9.56
0
VERTEX
10
7.61795
20
10.4636
30
9.56
0
VERTEX
10
7.61795
20
10.4654
30
9.56
0
VERTEX
10
7.62244
20
10.4726
30
9.56
0
VERTEX
10
7.62512
20
10.4752
30
9.56
0
VERTEX
10
7.62602
20
10.4788
30
9.56
0
VERTEX
10
7.62512
20
10.486
30
9.56
0
VERTEX
10
7.62244
20
10.4932
30
9.56
0
VERTEX
10
7.61616
20
10.4986
30
9.56
0
VERTEX
10
7.61257
20
10.5021
30
9.56
0
VERTEX
10
7.59823
20
10.5084
30
9.56
0
VERTEX
10
7.56954
20
10.5093
30
9.56
0
VERTEX
10
7.55519
20
10.5084
30
9.56
0
VERTEX
10
7.55161
20
10.5075
30
9.56
0
VERTEX
10
7.54981
20
10.5075
30
9.56
0
VERTEX
10
7.54354
20
10.5021
30
9.56
0
VERTEX
10
7.54175
20
10.5003
30
9.56
0
VERTEX
10
7.53995
20
10.5003
30
9.56
0
VERTEX
10
7.53368
20
10.4941
30
9.56
0
VERTEX
10
7.52919
20
10.4869
30
9.56
0
VERTEX
10
7.52381
20
10.4726
30
9.56
0
VERTEX
10
7.52381
20
10.4708
30
9.56
0
SEQEND
0
POLYLINE
62
227
66
1
70
1
3
endoplasmic_reticulum
0
VERTEX
10
7.14906
20
10.7048
30
9.56
0
VERTEX
10
7.15175
20
10.6976
30
9.56
0
VERTEX
10
7.15354
20
10.694
30
9.56
0
VERTEX
10
7.15713
20
10.6922
30
9.56
0
VERTEX
10
7.16071
20
10.6949
30
9.56
0
VERTEX
10
7.16161
20
10.6958
30
9.56
0
VERTEX
10
7.17596
20
10.6904
30
9.56
0
VERTEX
10
7.1903
20
10.6886
30
9.56
0
VERTEX
10
7.21899
20
10.6895
30
9.56
0
VERTEX
10
7.22616
20
10.6904
30
9.56
0
VERTEX
10
7.22975
20
10.6904
30
9.56
0
VERTEX
10
7.23244
20
10.6931
30
9.56
0
VERTEX
10
7.23602
20
10.6931
30
9.56
0
VERTEX
10
7.2432
20
10.6976
30
9.56
0
VERTEX
10
7.24499
20
10.6976
30
9.56
0
VERTEX
10
7.25037
20
10.7039
30
9.56
0
VERTEX
10
7.25306
20
10.7075
30
9.56
0
VERTEX
10
7.26651
20
10.7155
30
9.56
0
VERTEX
10
7.27368
20
10.7191
30
9.56
0
VERTEX
10
7.27726
20
10.72
30
9.56
0
VERTEX
10
7.28444
20
10.7245
30
9.56
0
VERTEX
10
7.29251
20
10.737
30
9.56
0
VERTEX
10
7.29699
20
10.7442
30
9.56
0
VERTEX
10
7.29968
20
10.7505
30
9.56
0
VERTEX
10
7.30057
20
10.7648
30
9.56
0
VERTEX
10
7.29878
20
10.7684
30
9.56
0
VERTEX
10
7.29878
20
10.7702
30
9.56
0
VERTEX
10
7.29609
20
10.7738
30
9.56
0
VERTEX
10
7.2952
20
10.7756
30
9.56
0
VERTEX
10
7.28802
20
10.7774
30
9.56
0
VERTEX
10
7.28444
20
10.7792
30
9.56
0
VERTEX
10
7.27726
20
10.7792
30
9.56
0
VERTEX
10
7.26292
20
10.7729
30
9.56
0
VERTEX
10
7.25575
20
10.7693
30
9.56
0
VERTEX
10
7.25216
20
10.7693
30
9.56
0
VERTEX
10
7.24499
20
10.7657
30
9.56
0
VERTEX
10
7.23871
20
10.7603
30
9.56
0
VERTEX
10
7.23602
20
10.7577
30
9.56
0
VERTEX
10
7.23244
20
10.7568
30
9.56
0
VERTEX
10
7.22168
20
10.746
30
9.56
0
VERTEX
10
7.2154
20
10.7415
30
9.56
0
VERTEX
10
7.20823
20
10.7343
30
9.56
0
VERTEX
10
7.20733
20
10.7326
30
9.56
0
VERTEX
10
7.20016
20
10.7299
30
9.56
0
VERTEX
10
7.19658
20
10.7281
30
9.56
0
VERTEX
10
7.18223
20
10.7272
30
9.56
0
VERTEX
10
7.17506
20
10.7272
30
9.56
0
VERTEX
10
7.17147
20
10.7272
30
9.56
0
VERTEX
10
7.16968
20
10.7254
30
9.56
0
VERTEX
10
7.16609
20
10.7245
30
9.56
0
VERTEX
10
7.1643
20
10.7245
30
9.56
0
VERTEX
10
7.15713
20
10.7191
30
9.56
0
VERTEX
10
7.15354
20
10.7182
30
9.56
0
VERTEX
10
7.15175
20
10.7164
30
9.56
0
VERTEX
10
7.14996
20
10.7164
30
9.56
0
VERTEX
10
7.14906
20
10.7092
30
9.56
0
VERTEX
10
7.14906
20
10.7057
30
9.56
0
SEQEND
0
POLYLINE
62
227
66
1
70
1
3
endoplasmic_reticulum
0
VERTEX
10
7.1132
20
10.6357
30
9.56
0
VERTEX
10
7.11409
20
10.6321
30
9.56
0
VERTEX
10
7.11409
20
10.6303
30
9.56
0
VERTEX
10
7.11589
20
10.6286
30
9.56
0
VERTEX
10
7.11678
20
10.625
30
9.56
0
VERTEX
10
7.12844
20
10.6124
30
9.56
0
VERTEX
10
7.13561
20
10.6088
30
9.56
0
VERTEX
10
7.1392
20
10.6061
30
9.56
0
VERTEX
10
7.15354
20
10.6061
30
9.56
0
VERTEX
10
7.16071
20
10.607
30
9.56
0
VERTEX
10
7.16789
20
10.6106
30
9.56
0
VERTEX
10
7.16968
20
10.6124
30
9.56
0
VERTEX
10
7.16699
20
10.6411
30
9.56
0
VERTEX
10
7.16071
20
10.6465
30
9.56
0
VERTEX
10
7.15354
20
10.6492
30
9.56
0
VERTEX
10
7.15175
20
10.651
30
9.56
0
VERTEX
10
7.14816
20
10.6519
30
9.56
0
VERTEX
10
7.14637
20
10.6519
30
9.56
0
VERTEX
10
7.14458
20
10.6537
30
9.56
0
VERTEX
10
7.13023
20
10.6528
30
9.56
0
VERTEX
10
7.12306
20
10.6519
30
9.56
0
VERTEX
10
7.11947
20
10.6447
30
9.56
0
VERTEX
10
7.11409
20
10.6393
30
9.56
0
VERTEX
10
7.1132
20
10.6366
30
9.56
0
SEQEND
0
ENDSEC
0
EOF
