0
SECTION
2
ENTITIES
0
POLYLINE
62
31
66
1
70
1
3
contour
0
VERTEX
10
6.26207
20
11.1012
30
9.28
0
VERTEX
10
6.2675
20
11.0577
30
9.28
0
VERTEX
10
6.2675
20
11.036
30
9.28
0
VERTEX
10
6.27836
20
10.9926
30
9.28
0
VERTEX
10
6.28108
20
10.9708
30
9.28
0
VERTEX
10
6.28651
20
10.96
30
9.28
0
VERTEX
10
6.28651
20
10.9491
30
9.28
0
VERTEX
10
6.29194
20
10.9437
30
9.28
0
VERTEX
10
6.29466
20
10.9328
30
9.28
0
VERTEX
10
6.3028
20
10.922
30
9.28
0
VERTEX
10
6.3191
20
10.8785
30
9.28
0
VERTEX
10
6.32453
20
10.8758
30
9.28
0
VERTEX
10
6.32453
20
10.8704
30
9.28
0
VERTEX
10
6.33811
20
10.8514
30
9.28
0
VERTEX
10
6.37341
20
10.8133
30
9.28
0
VERTEX
10
6.39242
20
10.797
30
9.28
0
VERTEX
10
6.39513
20
10.7916
30
9.28
0
VERTEX
10
6.40056
20
10.7916
30
9.28
0
VERTEX
10
6.41957
20
10.7753
30
9.28
0
VERTEX
10
6.42772
20
10.7672
30
9.28
0
VERTEX
10
6.43858
20
10.7645
30
9.28
0
VERTEX
10
6.46031
20
10.7509
30
9.28
0
VERTEX
10
6.47117
20
10.7455
30
9.28
0
VERTEX
10
6.51462
20
10.7427
30
9.28
0
VERTEX
10
6.53634
20
10.7427
30
9.28
0
VERTEX
10
6.5472
20
10.7482
30
9.28
0
VERTEX
10
6.5635
20
10.7672
30
9.28
0
VERTEX
10
6.57436
20
10.7726
30
9.28
0
VERTEX
10
6.57707
20
10.778
30
9.28
0
VERTEX
10
6.58794
20
10.7808
30
9.28
0
VERTEX
10
6.59608
20
10.7916
30
9.28
0
VERTEX
10
6.60151
20
10.797
30
9.28
0
VERTEX
10
6.60151
20
10.8025
30
9.28
0
VERTEX
10
6.63139
20
10.8405
30
9.28
0
VERTEX
10
6.64225
20
10.8595
30
9.28
0
VERTEX
10
6.65039
20
10.8677
30
9.28
0
VERTEX
10
6.65583
20
10.8704
30
9.28
0
VERTEX
10
6.65583
20
10.8758
30
9.28
0
VERTEX
10
6.66397
20
10.8867
30
9.28
0
VERTEX
10
6.66669
20
10.8975
30
9.28
0
VERTEX
10
6.66669
20
10.903
30
9.28
0
VERTEX
10
6.67212
20
10.9084
30
9.28
0
VERTEX
10
6.6694
20
10.9518
30
9.28
0
VERTEX
10
6.66397
20
10.9736
30
9.28
0
VERTEX
10
6.66126
20
10.9844
30
9.28
0
VERTEX
10
6.66126
20
10.9899
30
9.28
0
VERTEX
10
6.65311
20
11.0007
30
9.28
0
VERTEX
10
6.65039
20
11.0116
30
9.28
0
VERTEX
10
6.63139
20
11.0333
30
9.28
0
VERTEX
10
6.62052
20
11.0442
30
9.28
0
VERTEX
10
6.62052
20
11.0496
30
9.28
0
VERTEX
10
6.60966
20
11.055
30
9.28
0
VERTEX
10
6.60423
20
11.0577
30
9.28
0
VERTEX
10
6.60423
20
11.0632
30
9.28
0
VERTEX
10
6.59337
20
11.0686
30
9.28
0
VERTEX
10
6.57707
20
11.0903
30
9.28
0
VERTEX
10
6.56621
20
11.1012
30
9.28
0
VERTEX
10
6.55535
20
11.1039
30
9.28
0
VERTEX
10
6.53363
20
11.1202
30
9.28
0
VERTEX
10
6.52819
20
11.1202
30
9.28
0
VERTEX
10
6.50647
20
11.1338
30
9.28
0
VERTEX
10
6.50104
20
11.1392
30
9.28
0
VERTEX
10
6.47931
20
11.1474
30
9.28
0
VERTEX
10
6.47388
20
11.1474
30
9.28
0
VERTEX
10
6.46302
20
11.1555
30
9.28
0
VERTEX
10
6.45216
20
11.1582
30
9.28
0
VERTEX
10
6.44673
20
11.1636
30
9.28
0
VERTEX
10
6.40328
20
11.1636
30
9.28
0
VERTEX
10
6.39242
20
11.1636
30
9.28
0
VERTEX
10
6.37069
20
11.1718
30
9.28
0
VERTEX
10
6.34897
20
11.1691
30
9.28
0
VERTEX
10
6.32724
20
11.1609
30
9.28
0
VERTEX
10
6.28379
20
11.1338
30
9.28
0
VERTEX
10
6.26207
20
11.1148
30
9.28
0
VERTEX
10
6.26207
20
11.1039
30
9.28
0
SEQEND
0
POLYLINE
62
224
66
1
70
1
3
mitochondrion
0
VERTEX
10
7.52362
20
10.5408
30
9.28
0
VERTEX
10
7.53196
20
10.5186
30
9.28
0
VERTEX
10
7.53613
20
10.5075
30
9.28
0
VERTEX
10
7.54169
20
10.5033
30
9.28
0
VERTEX
10
7.54864
20
10.4936
30
9.28
0
VERTEX
10
7.55282
20
10.4825
30
9.28
0
VERTEX
10
7.56255
20
10.4727
30
9.28
0
VERTEX
10
7.5695
20
10.463
30
9.28
0
VERTEX
10
7.57923
20
10.4546
30
9.28
0
VERTEX
10
7.57923
20
10.4491
30
9.28
0
VERTEX
10
7.58897
20
10.4393
30
9.28
0
VERTEX
10
7.59592
20
10.4296
30
9.28
0
VERTEX
10
7.5987
20
10.4241
30
9.28
0
VERTEX
10
7.60148
20
10.4213
30
9.28
0
VERTEX
10
7.60148
20
10.4185
30
9.28
0
VERTEX
10
7.6126
20
10.4129
30
9.28
0
VERTEX
10
7.62373
20
10.4115
30
9.28
0
VERTEX
10
7.63485
20
10.4074
30
9.28
0
VERTEX
10
7.6571
20
10.4074
30
9.28
0
VERTEX
10
7.66822
20
10.4088
30
9.28
0
VERTEX
10
7.67378
20
10.4088
30
9.28
0
VERTEX
10
7.67656
20
10.4088
30
9.28
0
VERTEX
10
7.67934
20
10.4115
30
9.28
0
VERTEX
10
7.72384
20
10.4143
30
9.28
0
VERTEX
10
7.73496
20
10.4171
30
9.28
0
VERTEX
10
7.74052
20
10.4199
30
9.28
0
VERTEX
10
7.7433
20
10.4213
30
9.28
0
VERTEX
10
7.74469
20
10.4324
30
9.28
0
VERTEX
10
7.75721
20
10.4533
30
9.28
0
VERTEX
10
7.75999
20
10.4546
30
9.28
0
VERTEX
10
7.76416
20
10.4658
30
9.28
0
VERTEX
10
7.7725
20
10.4755
30
9.28
0
VERTEX
10
7.77667
20
10.4811
30
9.28
0
VERTEX
10
7.77667
20
10.4922
30
9.28
0
VERTEX
10
7.78224
20
10.4964
30
9.28
0
VERTEX
10
7.7878
20
10.5075
30
9.28
0
VERTEX
10
7.78919
20
10.5186
30
9.28
0
VERTEX
10
7.79336
20
10.5297
30
9.28
0
VERTEX
10
7.79475
20
10.5742
30
9.28
0
VERTEX
10
7.79197
20
10.5853
30
9.28
0
VERTEX
10
7.78641
20
10.5965
30
9.28
0
VERTEX
10
7.78224
20
10.6187
30
9.28
0
VERTEX
10
7.77946
20
10.6243
30
9.28
0
VERTEX
10
7.77667
20
10.6271
30
9.28
0
VERTEX
10
7.77667
20
10.6298
30
9.28
0
VERTEX
10
7.76138
20
10.6507
30
9.28
0
VERTEX
10
7.75582
20
10.6535
30
9.28
0
VERTEX
10
7.74609
20
10.6646
30
9.28
0
VERTEX
10
7.74052
20
10.6688
30
9.28
0
VERTEX
10
7.74052
20
10.6715
30
9.28
0
VERTEX
10
7.71967
20
10.6896
30
9.28
0
VERTEX
10
7.70854
20
10.6924
30
9.28
0
VERTEX
10
7.70437
20
10.6966
30
9.28
0
VERTEX
10
7.69325
20
10.6966
30
9.28
0
VERTEX
10
7.68213
20
10.6994
30
9.28
0
VERTEX
10
7.65988
20
10.7007
30
9.28
0
VERTEX
10
7.63763
20
10.6994
30
9.28
0
VERTEX
10
7.62651
20
10.6994
30
9.28
0
VERTEX
10
7.61538
20
10.6952
30
9.28
0
VERTEX
10
7.61399
20
10.6938
30
9.28
0
VERTEX
10
7.60843
20
10.698
30
9.28
0
VERTEX
10
7.59731
20
10.6994
30
9.28
0
VERTEX
10
7.58619
20
10.6938
30
9.28
0
VERTEX
10
7.5834
20
10.691
30
9.28
0
VERTEX
10
7.57228
20
10.6868
30
9.28
0
VERTEX
10
7.56255
20
10.6799
30
9.28
0
VERTEX
10
7.55699
20
10.6785
30
9.28
0
VERTEX
10
7.54169
20
10.6576
30
9.28
0
VERTEX
10
7.53752
20
10.6465
30
9.28
0
VERTEX
10
7.53752
20
10.6437
30
9.28
0
VERTEX
10
7.53057
20
10.6326
30
9.28
0
VERTEX
10
7.5264
20
10.6215
30
9.28
0
VERTEX
10
7.52362
20
10.577
30
9.28
0
VERTEX
10
7.52362
20
10.5548
30
9.28
0
VERTEX
10
7.52362
20
10.5436
30
9.28
0
VERTEX
10
7.52362
20
10.5422
30
9.28
0
SEQEND
0
POLYLINE
62
31
66
1
70
1
3
contour
0
VERTEX
10
7.31376
20
10.6039
30
9.28
0
VERTEX
10
7.31935
20
10.5741
30
9.28
0
VERTEX
10
7.32309
20
10.5591
30
9.28
0
VERTEX
10
7.32495
20
10.5293
30
9.28
0
VERTEX
10
7.34175
20
10.4696
30
9.28
0
VERTEX
10
7.34362
20
10.4397
30
9.28
0
VERTEX
10
7.34921
20
10.4098
30
9.28
0
VERTEX
10
7.35481
20
10.3949
30
9.28
0
VERTEX
10
7.36041
20
10.3874
30
9.28
0
VERTEX
10
7.36228
20
10.3837
30
9.28
0
VERTEX
10
7.36601
20
10.3837
30
9.28
0
VERTEX
10
7.37907
20
10.3744
30
9.28
0
VERTEX
10
7.38654
20
10.3725
30
9.28
0
VERTEX
10
7.39027
20
10.3725
30
9.28
0
VERTEX
10
7.41826
20
10.3464
30
9.28
0
VERTEX
10
7.43133
20
10.3314
30
9.28
0
VERTEX
10
7.43506
20
10.324
30
9.28
0
VERTEX
10
7.44812
20
10.3109
30
9.28
0
VERTEX
10
7.45559
20
10.3072
30
9.28
0
VERTEX
10
7.46865
20
10.2923
30
9.28
0
VERTEX
10
7.48172
20
10.2829
30
9.28
0
VERTEX
10
7.48358
20
10.2755
30
9.28
0
VERTEX
10
7.50784
20
10.2549
30
9.28
0
VERTEX
10
7.52277
20
10.2475
30
9.28
0
VERTEX
10
7.52651
20
10.2437
30
9.28
0
VERTEX
10
7.54144
20
10.2381
30
9.28
0
VERTEX
10
7.60115
20
10.2363
30
9.28
0
VERTEX
10
7.63101
20
10.2307
30
9.28
0
VERTEX
10
7.66087
20
10.2288
30
9.28
0
VERTEX
10
7.66834
20
10.2251
30
9.28
0
VERTEX
10
7.68327
20
10.2232
30
9.28
0
VERTEX
10
7.6982
20
10.2176
30
9.28
0
VERTEX
10
7.70193
20
10.2176
30
9.28
0
VERTEX
10
7.71499
20
10.2083
30
9.28
0
VERTEX
10
7.74485
20
10.2064
30
9.28
0
VERTEX
10
7.75978
20
10.212
30
9.28
0
VERTEX
10
7.78778
20
10.2307
30
9.28
0
VERTEX
10
7.79524
20
10.2325
30
9.28
0
VERTEX
10
7.81017
20
10.2437
30
9.28
0
VERTEX
10
7.83817
20
10.2587
30
9.28
0
VERTEX
10
7.84376
20
10.2643
30
9.28
0
VERTEX
10
7.85869
20
10.2699
30
9.28
0
VERTEX
10
7.86056
20
10.2736
30
9.28
0
VERTEX
10
7.86429
20
10.2736
30
9.28
0
VERTEX
10
7.87176
20
10.2811
30
9.28
0
VERTEX
10
7.90162
20
10.2979
30
9.28
0
VERTEX
10
7.90908
20
10.3016
30
9.28
0
VERTEX
10
7.91282
20
10.3053
30
9.28
0
VERTEX
10
7.94267
20
10.3147
30
9.28
0
VERTEX
10
7.95574
20
10.324
30
9.28
0
VERTEX
10
7.9576
20
10.3314
30
9.28
0
VERTEX
10
7.95947
20
10.3352
30
9.28
0
VERTEX
10
7.9632
20
10.3352
30
9.28
0
VERTEX
10
7.96694
20
10.3389
30
9.28
0
VERTEX
10
7.98187
20
10.3445
30
9.28
0
VERTEX
10
8.01173
20
10.3464
30
9.28
0
VERTEX
10
8.01546
20
10.3501
30
9.28
0
VERTEX
10
8.02292
20
10.352
30
9.28
0
VERTEX
10
8.02479
20
10.3594
30
9.28
0
VERTEX
10
8.03225
20
10.3613
30
9.28
0
VERTEX
10
8.04345
20
10.3912
30
9.28
0
VERTEX
10
8.04345
20
10.4509
30
9.28
0
VERTEX
10
8.04345
20
10.4807
30
9.28
0
VERTEX
10
8.03785
20
10.5106
30
9.28
0
VERTEX
10
8.03599
20
10.5405
30
9.28
0
VERTEX
10
8.03039
20
10.5554
30
9.28
0
VERTEX
10
8.02852
20
10.5853
30
9.28
0
VERTEX
10
8.02479
20
10.5927
30
9.28
0
VERTEX
10
8.02479
20
10.6002
30
9.28
0
VERTEX
10
8.02106
20
10.6077
30
9.28
0
VERTEX
10
8.01732
20
10.6375
30
9.28
0
VERTEX
10
8.01359
20
10.6524
30
9.28
0
VERTEX
10
8.01359
20
10.6674
30
9.28
0
VERTEX
10
8.00986
20
10.6823
30
9.28
0
VERTEX
10
8.00986
20
10.6898
30
9.28
0
VERTEX
10
8.00986
20
10.6935
30
9.28
0
VERTEX
10
8.00053
20
10.7084
30
9.28
0
VERTEX
10
8.00053
20
10.7122
30
9.28
0
VERTEX
10
7.99493
20
10.7196
30
9.28
0
VERTEX
10
7.9856
20
10.7495
30
9.28
0
VERTEX
10
7.97253
20
10.7793
30
9.28
0
VERTEX
10
7.96694
20
10.7849
30
9.28
0
VERTEX
10
7.96694
20
10.7924
30
9.28
0
VERTEX
10
7.95947
20
10.8073
30
9.28
0
VERTEX
10
7.95574
20
10.8148
30
9.28
0
VERTEX
10
7.93148
20
10.8447
30
9.28
0
VERTEX
10
7.90722
20
10.8689
30
9.28
0
VERTEX
10
7.87736
20
10.8895
30
9.28
0
VERTEX
10
7.86989
20
10.8969
30
9.28
0
VERTEX
10
7.86429
20
10.9006
30
9.28
0
VERTEX
10
7.85683
20
10.9081
30
9.28
0
VERTEX
10
7.84936
20
10.9081
30
9.28
0
VERTEX
10
7.83443
20
10.9193
30
9.28
0
VERTEX
10
7.82697
20
10.923
30
9.28
0
VERTEX
10
7.82324
20
10.923
30
9.28
0
VERTEX
10
7.81577
20
10.9286
30
9.28
0
VERTEX
10
7.80831
20
10.9305
30
9.28
0
VERTEX
10
7.77845
20
10.9268
30
9.28
0
VERTEX
10
7.76352
20
10.9174
30
9.28
0
VERTEX
10
7.75605
20
10.9156
30
9.28
0
VERTEX
10
7.74112
20
10.9044
30
9.28
0
VERTEX
10
7.73739
20
10.9006
30
9.28
0
VERTEX
10
7.73366
20
10.9006
30
9.28
0
VERTEX
10
7.72619
20
10.8951
30
9.28
0
VERTEX
10
7.71126
20
10.8895
30
9.28
0
VERTEX
10
7.69633
20
10.8876
30
9.28
0
VERTEX
10
7.68887
20
10.8857
30
9.28
0
VERTEX
10
7.6814
20
10.8801
30
9.28
0
VERTEX
10
7.65154
20
10.8727
30
9.28
0
VERTEX
10
7.5321
20
10.8671
30
9.28
0
VERTEX
10
7.52464
20
10.8633
30
9.28
0
VERTEX
10
7.50971
20
10.8615
30
9.28
0
VERTEX
10
7.47985
20
10.8521
30
9.28
0
VERTEX
10
7.46492
20
10.8447
30
9.28
0
VERTEX
10
7.43879
20
10.8167
30
9.28
0
VERTEX
10
7.4276
20
10.8017
30
9.28
0
VERTEX
10
7.42573
20
10.7943
30
9.28
0
VERTEX
10
7.4052
20
10.7663
30
9.28
0
VERTEX
10
7.4052
20
10.7625
30
9.28
0
VERTEX
10
7.39214
20
10.7476
30
9.28
0
VERTEX
10
7.38467
20
10.7402
30
9.28
0
VERTEX
10
7.38281
20
10.7327
30
9.28
0
VERTEX
10
7.36974
20
10.7215
30
9.28
0
VERTEX
10
7.36601
20
10.714
30
9.28
0
VERTEX
10
7.36601
20
10.7066
30
9.28
0
VERTEX
10
7.36041
20
10.701
30
9.28
0
VERTEX
10
7.36041
20
10.6972
30
9.28
0
VERTEX
10
7.35108
20
10.6842
30
9.28
0
VERTEX
10
7.35108
20
10.6767
30
9.28
0
VERTEX
10
7.33802
20
10.6655
30
9.28
0
VERTEX
10
7.32869
20
10.6524
30
9.28
0
VERTEX
10
7.32309
20
10.6468
30
9.28
0
VERTEX
10
7.31749
20
10.6319
30
9.28
0
VERTEX
10
7.31376
20
10.6282
30
9.28
0
VERTEX
10
7.31376
20
10.6133
30
9.28
0
VERTEX
10
7.31376
20
10.6058
30
9.28
0
SEQEND
0
POLYLINE
62
227
66
1
70
1
3
endoplasmic_reticulum
0
VERTEX
10
7.49244
20
10.7594
30
9.28
0
VERTEX
10
7.49423
20
10.7559
30
9.28
0
VERTEX
10
7.49513
20
10.7487
30
9.28
0
VERTEX
10
7.49602
20
10.7451
30
9.28
0
VERTEX
10
7.5023
20
10.7388
30
9.28
0
VERTEX
10
7.5023
20
10.737
30
9.28
0
VERTEX
10
7.50499
20
10.7335
30
9.28
0
VERTEX
10
7.50857
20
10.7317
30
9.28
0
VERTEX
10
7.51485
20
10.7245
30
9.28
0
VERTEX
10
7.51754
20
10.7218
30
9.28
0
VERTEX
10
7.51844
20
10.72
30
9.28
0
VERTEX
10
7.53278
20
10.7173
30
9.28
0
VERTEX
10
7.54713
20
10.7173
30
9.28
0
VERTEX
10
7.5543
20
10.7182
30
9.28
0
VERTEX
10
7.55788
20
10.7182
30
9.28
0
VERTEX
10
7.56416
20
10.7227
30
9.28
0
VERTEX
10
7.56864
20
10.729
30
9.28
0
VERTEX
10
7.57044
20
10.7361
30
9.28
0
VERTEX
10
7.56954
20
10.7505
30
9.28
0
VERTEX
10
7.56954
20
10.7577
30
9.28
0
VERTEX
10
7.56954
20
10.7612
30
9.28
0
VERTEX
10
7.56685
20
10.7648
30
9.28
0
VERTEX
10
7.56416
20
10.772
30
9.28
0
VERTEX
10
7.56057
20
10.7738
30
9.28
0
VERTEX
10
7.55788
20
10.7774
30
9.28
0
VERTEX
10
7.55071
20
10.7819
30
9.28
0
VERTEX
10
7.53637
20
10.7854
30
9.28
0
VERTEX
10
7.52202
20
10.7863
30
9.28
0
VERTEX
10
7.51485
20
10.7863
30
9.28
0
VERTEX
10
7.51126
20
10.7863
30
9.28
0
VERTEX
10
7.50409
20
10.7837
30
9.28
0
VERTEX
10
7.5005
20
10.781
30
9.28
0
VERTEX
10
7.49692
20
10.7801
30
9.28
0
VERTEX
10
7.49244
20
10.7729
30
9.28
0
VERTEX
10
7.49244
20
10.7657
30
9.28
0
VERTEX
10
7.49244
20
10.7621
30
9.28
0
VERTEX
10
7.49244
20
10.7603
30
9.28
0
SEQEND
0
POLYLINE
62
227
66
1
70
1
3
endoplasmic_reticulum
0
VERTEX
10
7.67623
20
10.269
30
9.28
0
VERTEX
10
7.68161
20
10.2547
30
9.28
0
VERTEX
10
7.68788
20
10.2484
30
9.28
0
VERTEX
10
7.68968
20
10.2484
30
9.28
0
VERTEX
10
7.69057
20
10.2466
30
9.28
0
VERTEX
10
7.69237
20
10.2466
30
9.28
0
VERTEX
10
7.69864
20
10.2421
30
9.28
0
VERTEX
10
7.71299
20
10.2395
30
9.28
0
VERTEX
10
7.72733
20
10.2403
30
9.28
0
VERTEX
10
7.73092
20
10.243
30
9.28
0
VERTEX
10
7.7345
20
10.2439
30
9.28
0
VERTEX
10
7.74168
20
10.2493
30
9.28
0
VERTEX
10
7.74257
20
10.2529
30
9.28
0
VERTEX
10
7.74437
20
10.2547
30
9.28
0
VERTEX
10
7.74437
20
10.269
30
9.28
0
VERTEX
10
7.74437
20
10.2762
30
9.28
0
VERTEX
10
7.74257
20
10.2834
30
9.28
0
VERTEX
10
7.73719
20
10.2906
30
9.28
0
VERTEX
10
7.73271
20
10.295
30
9.28
0
VERTEX
10
7.71837
20
10.2959
30
9.28
0
VERTEX
10
7.71119
20
10.2959
30
9.28
0
VERTEX
10
7.70492
20
10.2986
30
9.28
0
VERTEX
10
7.69057
20
10.2977
30
9.28
0
VERTEX
10
7.6834
20
10.295
30
9.28
0
VERTEX
10
7.67712
20
10.2888
30
9.28
0
VERTEX
10
7.67623
20
10.2744
30
9.28
0
VERTEX
10
7.67623
20
10.2708
30
9.28
0
VERTEX
10
7.67623
20
10.2699
30
9.28
0
SEQEND
0
POLYLINE
62
227
66
1
70
1
3
endoplasmic_reticulum
0
VERTEX
10
7.47002
20
10.3542
30
9.28
0
VERTEX
10
7.47182
20
10.3524
30
9.28
0
VERTEX
10
7.4745
20
10.3452
30
9.28
0
VERTEX
10
7.47988
20
10.3399
30
9.28
0
VERTEX
10
7.48706
20
10.3363
30
9.28
0
VERTEX
10
7.48885
20
10.3345
30
9.28
0
VERTEX
10
7.49602
20
10.3327
30
9.28
0
VERTEX
10
7.51037
20
10.3327
30
9.28
0
VERTEX
10
7.51216
20
10.3345
30
9.28
0
VERTEX
10
7.51933
20
10.3354
30
9.28
0
VERTEX
10
7.52471
20
10.3417
30
9.28
0
VERTEX
10
7.5274
20
10.3452
30
9.28
0
VERTEX
10
7.54175
20
10.3542
30
9.28
0
VERTEX
10
7.54354
20
10.3542
30
9.28
0
VERTEX
10
7.54623
20
10.3578
30
9.28
0
VERTEX
10
7.54802
20
10.3578
30
9.28
0
VERTEX
10
7.55161
20
10.3614
30
9.28
0
VERTEX
10
7.5534
20
10.3632
30
9.28
0
VERTEX
10
7.5534
20
10.365
30
9.28
0
VERTEX
10
7.55699
20
10.3677
30
9.28
0
VERTEX
10
7.55878
20
10.3686
30
9.28
0
VERTEX
10
7.55968
20
10.3829
30
9.28
0
VERTEX
10
7.55788
20
10.3972
30
9.28
0
VERTEX
10
7.54444
20
10.4107
30
9.28
0
VERTEX
10
7.54085
20
10.4125
30
9.28
0
VERTEX
10
7.53906
20
10.4143
30
9.28
0
VERTEX
10
7.53188
20
10.4152
30
9.28
0
VERTEX
10
7.51754
20
10.4134
30
9.28
0
VERTEX
10
7.51037
20
10.4107
30
9.28
0
VERTEX
10
7.50678
20
10.408
30
9.28
0
VERTEX
10
7.50319
20
10.4071
30
9.28
0
VERTEX
10
7.5005
20
10.4044
30
9.28
0
VERTEX
10
7.49692
20
10.4035
30
9.28
0
VERTEX
10
7.49692
20
10.4017
30
9.28
0
VERTEX
10
7.49333
20
10.399
30
9.28
0
VERTEX
10
7.49154
20
10.399
30
9.28
0
VERTEX
10
7.48706
20
10.3928
30
9.28
0
VERTEX
10
7.48078
20
10.3865
30
9.28
0
VERTEX
10
7.48078
20
10.3847
30
9.28
0
VERTEX
10
7.4754
20
10.3784
30
9.28
0
VERTEX
10
7.47361
20
10.3748
30
9.28
0
VERTEX
10
7.47002
20
10.3721
30
9.28
0
VERTEX
10
7.47002
20
10.3578
30
9.28
0
VERTEX
10
7.47002
20
10.3551
30
9.28
0
SEQEND
0
POLYLINE
62
227
66
1
70
1
3
endoplasmic_reticulum
0
VERTEX
10
7.78471
20
10.8088
30
9.28
0
VERTEX
10
7.7865
20
10.807
30
9.28
0
VERTEX
10
7.7874
20
10.7926
30
9.28
0
VERTEX
10
7.7874
20
10.7854
30
9.28
0
VERTEX
10
7.79099
20
10.7783
30
9.28
0
VERTEX
10
7.79726
20
10.7738
30
9.28
0
VERTEX
10
7.82595
20
10.7738
30
9.28
0
VERTEX
10
7.82954
20
10.7747
30
9.28
0
VERTEX
10
7.83581
20
10.7801
30
9.28
0
VERTEX
10
7.8403
20
10.7863
30
9.28
0
VERTEX
10
7.84209
20
10.7899
30
9.28
0
VERTEX
10
7.84119
20
10.7971
30
9.28
0
VERTEX
10
7.84119
20
10.8007
30
9.28
0
VERTEX
10
7.8394
20
10.8043
30
9.28
0
VERTEX
10
7.8394
20
10.8061
30
9.28
0
VERTEX
10
7.83671
20
10.8097
30
9.28
0
VERTEX
10
7.83133
20
10.824
30
9.28
0
VERTEX
10
7.82505
20
10.8285
30
9.28
0
VERTEX
10
7.82236
20
10.8321
30
9.28
0
VERTEX
10
7.82236
20
10.8339
30
9.28
0
VERTEX
10
7.81519
20
10.8348
30
9.28
0
VERTEX
10
7.80085
20
10.833
30
9.28
0
VERTEX
10
7.79368
20
10.833
30
9.28
0
VERTEX
10
7.7874
20
10.8276
30
9.28
0
VERTEX
10
7.78561
20
10.8267
30
9.28
0
VERTEX
10
7.78471
20
10.8123
30
9.28
0
VERTEX
10
7.78471
20
10.8097
30
9.28
0
SEQEND
0
POLYLINE
62
227
66
1
70
1
3
endoplasmic_reticulum
0
VERTEX
10
7.82595
20
10.4358
30
9.28
0
VERTEX
10
7.82774
20
10.4286
30
9.28
0
VERTEX
10
7.82774
20
10.4268
30
9.28
0
VERTEX
10
7.83402
20
10.4197
30
9.28
0
VERTEX
10
7.83581
20
10.4161
30
9.28
0
VERTEX
10
7.84299
20
10.4125
30
9.28
0
VERTEX
10
7.85016
20
10.4116
30
9.28
0
VERTEX
10
7.85733
20
10.4125
30
9.28
0
VERTEX
10
7.8645
20
10.4161
30
9.28
0
VERTEX
10
7.86988
20
10.4206
30
9.28
0
VERTEX
10
7.87257
20
10.4232
30
9.28
0
VERTEX
10
7.87705
20
10.4376
30
9.28
0
VERTEX
10
7.87705
20
10.4448
30
9.28
0
VERTEX
10
7.87705
20
10.4483
30
9.28
0
VERTEX
10
7.87705
20
10.4501
30
9.28
0
VERTEX
10
7.87257
20
10.4573
30
9.28
0
VERTEX
10
7.86988
20
10.4636
30
9.28
0
VERTEX
10
7.86719
20
10.4663
30
9.28
0
VERTEX
10
7.85285
20
10.4681
30
9.28
0
VERTEX
10
7.84926
20
10.469
30
9.28
0
VERTEX
10
7.84209
20
10.4672
30
9.28
0
VERTEX
10
7.83492
20
10.4627
30
9.28
0
VERTEX
10
7.82685
20
10.4492
30
9.28
0
VERTEX
10
7.82595
20
10.4421
30
9.28
0
VERTEX
10
7.82595
20
10.4385
30
9.28
0
VERTEX
10
7.82595
20
10.4367
30
9.28
0
SEQEND
0
POLYLINE
62
227
66
1
70
1
3
endoplasmic_reticulum
0
VERTEX
10
7.75602
20
10.3874
30
9.28
0
VERTEX
10
7.7614
20
10.3802
30
9.28
0
VERTEX
10
7.76409
20
10.3766
30
9.28
0
VERTEX
10
7.77126
20
10.373
30
9.28
0
VERTEX
10
7.78561
20
10.3721
30
9.28
0
VERTEX
10
7.79278
20
10.3721
30
9.28
0
VERTEX
10
7.79995
20
10.3748
30
9.28
0
VERTEX
10
7.80174
20
10.3757
30
9.28
0
VERTEX
10
7.80174
20
10.3775
30
9.28
0
VERTEX
10
7.80354
20
10.3775
30
9.28
0
VERTEX
10
7.80533
20
10.3811
30
9.28
0
VERTEX
10
7.80533
20
10.3829
30
9.28
0
VERTEX
10
7.80802
20
10.3865
30
9.28
0
VERTEX
10
7.80802
20
10.3937
30
9.28
0
VERTEX
10
7.80802
20
10.3955
30
9.28
0
VERTEX
10
7.80264
20
10.4008
30
9.28
0
VERTEX
10
7.80264
20
10.4026
30
9.28
0
VERTEX
10
7.79547
20
10.4071
30
9.28
0
VERTEX
10
7.79188
20
10.4098
30
9.28
0
VERTEX
10
7.79099
20
10.4116
30
9.28
0
VERTEX
10
7.78919
20
10.4116
30
9.28
0
VERTEX
10
7.7874
20
10.4134
30
9.28
0
VERTEX
10
7.78112
20
10.4152
30
9.28
0
VERTEX
10
7.78112
20
10.417
30
9.28
0
VERTEX
10
7.77395
20
10.4179
30
9.28
0
VERTEX
10
7.76678
20
10.417
30
9.28
0
VERTEX
10
7.76499
20
10.417
30
9.28
0
VERTEX
10
7.7623
20
10.4143
30
9.28
0
VERTEX
10
7.7605
20
10.4071
30
9.28
0
VERTEX
10
7.75781
20
10.4044
30
9.28
0
VERTEX
10
7.75602
20
10.3901
30
9.28
0
VERTEX
10
7.75602
20
10.3883
30
9.28
0
SEQEND
0
POLYLINE
62
227
66
1
70
1
3
endoplasmic_reticulum
0
VERTEX
10
6.50283
20
10.9707
30
9.28
0
VERTEX
10
6.50898
20
10.9584
30
9.28
0
VERTEX
10
6.50898
20
10.9554
30
9.28
0
VERTEX
10
6.51974
20
10.9461
30
9.28
0
VERTEX
10
6.52588
20
10.9446
30
9.28
0
VERTEX
10
6.55048
20
10.9554
30
9.28
0
VERTEX
10
6.55201
20
10.98
30
9.28
0
VERTEX
10
6.55509
20
10.9846
30
9.28
0
VERTEX
10
6.54894
20
10.9876
30
9.28
0
VERTEX
10
6.54125
20
10.9969
30
9.28
0
VERTEX
10
6.52896
20
10.9984
30
9.28
0
VERTEX
10
6.51666
20
10.9969
30
9.28
0
VERTEX
10
6.5059
20
10.9892
30
9.28
0
VERTEX
10
6.50283
20
10.9876
30
9.28
0
VERTEX
10
6.50283
20
10.9754
30
9.28
0
VERTEX
10
6.50283
20
10.9723
30
9.28
0
SEQEND
0
POLYLINE
62
236
66
1
70
1
3
postsynaptic_density
0
VERTEX
10
7.82146
20
10.7724
30
9.28
0
VERTEX
10
7.92509
20
10.4566
30
9.28
0
VERTEX
10
7.93249
20
10.4368
30
9.28
0
VERTEX
10
7.93496
20
10.427
30
9.28
0
VERTEX
10
7.93743
20
10.422
30
9.28
0
VERTEX
10
7.93249
20
10.4196
30
9.28
0
VERTEX
10
7.93249
20
10.4146
30
9.28
0
VERTEX
10
7.95223
20
10.4122
30
9.28
0
VERTEX
10
7.99171
20
10.4196
30
9.28
0
VERTEX
10
8.01145
20
10.422
30
9.28
0
VERTEX
10
8.02132
20
10.422
30
9.28
0
VERTEX
10
8.02625
20
10.4319
30
9.28
0
VERTEX
10
8.04352
20
10.4492
30
9.28
0
VERTEX
10
8.05339
20
10.4566
30
9.28
0
VERTEX
10
8.07313
20
10.459
30
9.28
0
VERTEX
10
8.083
20
10.459
30
9.28
0
VERTEX
10
8.10274
20
10.4664
30
9.28
0
VERTEX
10
8.11261
20
10.4763
30
9.28
0
VERTEX
10
8.12248
20
10.4763
30
9.28
0
VERTEX
10
8.12741
20
10.4813
30
9.28
0
VERTEX
10
8.16689
20
10.4837
30
9.28
0
VERTEX
10
8.17676
20
10.4862
30
9.28
0
VERTEX
10
8.18169
20
10.4862
30
9.28
0
VERTEX
10
8.18663
20
10.4911
30
9.28
0
VERTEX
10
8.1891
20
10.501
30
9.28
0
VERTEX
10
8.22611
20
10.5183
30
9.28
0
VERTEX
10
8.23598
20
10.5207
30
9.28
0
VERTEX
10
8.24584
20
10.5306
30
9.28
0
VERTEX
10
8.24831
20
10.6096
30
9.28
0
VERTEX
10
8.24338
20
10.649
30
9.28
0
VERTEX
10
8.23844
20
10.6688
30
9.28
0
VERTEX
10
8.23351
20
10.6786
30
9.28
0
VERTEX
10
8.23351
20
10.6885
30
9.28
0
VERTEX
10
8.22857
20
10.6934
30
9.28
0
VERTEX
10
8.22857
20
10.6984
30
9.28
0
VERTEX
10
8.18169
20
10.7749
30
9.28
0
VERTEX
10
8.16442
20
10.7921
30
9.28
0
VERTEX
10
8.15209
20
10.8119
30
9.28
0
VERTEX
10
8.14222
20
10.8217
30
9.28
0
VERTEX
10
8.12494
20
10.8341
30
9.28
0
VERTEX
10
8.12494
20
10.839
30
9.28
0
VERTEX
10
8.12001
20
10.844
30
9.28
0
VERTEX
10
8.12001
20
10.8489
30
9.28
0
VERTEX
10
8.09534
20
10.8884
30
9.28
0
VERTEX
10
8.0756
20
10.8884
30
9.28
0
VERTEX
10
8.05586
20
10.881
30
9.28
0
VERTEX
10
7.9769
20
10.8686
30
9.28
0
VERTEX
10
7.96704
20
10.8637
30
9.28
0
VERTEX
10
7.9473
20
10.8637
30
9.28
0
VERTEX
10
7.91029
20
10.8365
30
9.28
0
VERTEX
10
7.89548
20
10.8168
30
9.28
0
VERTEX
10
7.856
20
10.7823
30
9.28
0
VERTEX
10
7.84614
20
10.7773
30
9.28
0
VERTEX
10
7.8264
20
10.7773
30
9.28
0
VERTEX
10
7.82146
20
10.7749
30
9.28
0
SEQEND
0
ENDSEC
0
EOF
