0
SECTION
2
ENTITIES
0
POLYLINE
62
31
66
1
70
1
3
contour
0
VERTEX
10
6.18603
20
10.9573
30
9.04
0
VERTEX
10
6.19147
20
10.8704
30
9.04
0
VERTEX
10
6.19418
20
10.8595
30
9.04
0
VERTEX
10
6.19418
20
10.8541
30
9.04
0
VERTEX
10
6.20233
20
10.8432
30
9.04
0
VERTEX
10
6.20233
20
10.8378
30
9.04
0
VERTEX
10
6.21047
20
10.8269
30
9.04
0
VERTEX
10
6.20776
20
10.8052
30
9.04
0
VERTEX
10
6.21319
20
10.7835
30
9.04
0
VERTEX
10
6.22405
20
10.7617
30
9.04
0
VERTEX
10
6.22677
20
10.7509
30
9.04
0
VERTEX
10
6.2322
20
10.7455
30
9.04
0
VERTEX
10
6.2322
20
10.74
30
9.04
0
VERTEX
10
6.24578
20
10.721
30
9.04
0
VERTEX
10
6.28108
20
10.683
30
9.04
0
VERTEX
10
6.29194
20
10.6721
30
9.04
0
VERTEX
10
6.3028
20
10.6531
30
9.04
0
VERTEX
10
6.32181
20
10.6341
30
9.04
0
VERTEX
10
6.32724
20
10.6287
30
9.04
0
VERTEX
10
6.33267
20
10.6287
30
9.04
0
VERTEX
10
6.33811
20
10.6233
30
9.04
0
VERTEX
10
6.38155
20
10.6233
30
9.04
0
VERTEX
10
6.425
20
10.6395
30
9.04
0
VERTEX
10
6.43587
20
10.6504
30
9.04
0
VERTEX
10
6.4413
20
10.6558
30
9.04
0
VERTEX
10
6.45216
20
10.6586
30
9.04
0
VERTEX
10
6.45759
20
10.6586
30
9.04
0
VERTEX
10
6.4766
20
10.6748
30
9.04
0
VERTEX
10
6.4766
20
10.6803
30
9.04
0
VERTEX
10
6.48203
20
10.6857
30
9.04
0
VERTEX
10
6.48203
20
10.6911
30
9.04
0
VERTEX
10
6.51733
20
10.7292
30
9.04
0
VERTEX
10
6.53363
20
10.7482
30
9.04
0
VERTEX
10
6.53906
20
10.7536
30
9.04
0
VERTEX
10
6.54449
20
10.7753
30
9.04
0
VERTEX
10
6.54449
20
10.8188
30
9.04
0
VERTEX
10
6.53906
20
10.8405
30
9.04
0
VERTEX
10
6.53634
20
10.8514
30
9.04
0
VERTEX
10
6.52005
20
10.8731
30
9.04
0
VERTEX
10
6.49832
20
10.8867
30
9.04
0
VERTEX
10
6.49289
20
10.8921
30
9.04
0
VERTEX
10
6.49289
20
10.8975
30
9.04
0
VERTEX
10
6.48203
20
10.9057
30
9.04
0
VERTEX
10
6.4766
20
10.9138
30
9.04
0
VERTEX
10
6.45487
20
10.9301
30
9.04
0
VERTEX
10
6.44401
20
10.9355
30
9.04
0
VERTEX
10
6.43043
20
10.9573
30
9.04
0
VERTEX
10
6.425
20
10.9681
30
9.04
0
VERTEX
10
6.425
20
10.9736
30
9.04
0
VERTEX
10
6.40328
20
10.9871
30
9.04
0
VERTEX
10
6.39513
20
10.998
30
9.04
0
VERTEX
10
6.37612
20
11.0116
30
9.04
0
VERTEX
10
6.33539
20
11.0523
30
9.04
0
VERTEX
10
6.29194
20
11.0659
30
9.04
0
VERTEX
10
6.28108
20
11.0659
30
9.04
0
VERTEX
10
6.24035
20
11.0469
30
9.04
0
VERTEX
10
6.24035
20
11.0414
30
9.04
0
VERTEX
10
6.22405
20
11.0252
30
9.04
0
VERTEX
10
6.21591
20
11.0034
30
9.04
0
VERTEX
10
6.21591
20
10.998
30
9.04
0
VERTEX
10
6.21047
20
10.9953
30
9.04
0
VERTEX
10
6.21047
20
10.9844
30
9.04
0
VERTEX
10
6.18875
20
10.9681
30
9.04
0
VERTEX
10
6.18603
20
10.96
30
9.04
0
SEQEND
0
POLYLINE
62
224
66
1
70
1
3
mitochondrion
0
VERTEX
10
7.58897
20
10.4046
30
9.04
0
VERTEX
10
7.59592
20
10.3823
30
9.04
0
VERTEX
10
7.60009
20
10.3712
30
9.04
0
VERTEX
10
7.60287
20
10.3684
30
9.04
0
VERTEX
10
7.60982
20
10.3462
30
9.04
0
VERTEX
10
7.62234
20
10.3253
30
9.04
0
VERTEX
10
7.63763
20
10.3031
30
9.04
0
VERTEX
10
7.64041
20
10.2975
30
9.04
0
VERTEX
10
7.65154
20
10.2892
30
9.04
0
VERTEX
10
7.6571
20
10.285
30
9.04
0
VERTEX
10
7.65988
20
10.285
30
9.04
0
VERTEX
10
7.66544
20
10.2794
30
9.04
0
VERTEX
10
7.671
20
10.2781
30
9.04
0
VERTEX
10
7.67517
20
10.2739
30
9.04
0
VERTEX
10
7.68073
20
10.2725
30
9.04
0
VERTEX
10
7.68352
20
10.2725
30
9.04
0
VERTEX
10
7.6863
20
10.2697
30
9.04
0
VERTEX
10
7.69742
20
10.2683
30
9.04
0
VERTEX
10
7.70298
20
10.2683
30
9.04
0
VERTEX
10
7.70854
20
10.2655
30
9.04
0
VERTEX
10
7.75304
20
10.2655
30
9.04
0
VERTEX
10
7.77528
20
10.2697
30
9.04
0
VERTEX
10
7.78641
20
10.2725
30
9.04
0
VERTEX
10
7.79753
20
10.2794
30
9.04
0
VERTEX
10
7.80309
20
10.285
30
9.04
0
VERTEX
10
7.80865
20
10.2864
30
9.04
0
VERTEX
10
7.81561
20
10.2961
30
9.04
0
VERTEX
10
7.83785
20
10.3114
30
9.04
0
VERTEX
10
7.85593
20
10.3295
30
9.04
0
VERTEX
10
7.86566
20
10.3378
30
9.04
0
VERTEX
10
7.86983
20
10.3434
30
9.04
0
VERTEX
10
7.86983
20
10.3462
30
9.04
0
VERTEX
10
7.88513
20
10.367
30
9.04
0
VERTEX
10
7.89208
20
10.3893
30
9.04
0
VERTEX
10
7.9032
20
10.4115
30
9.04
0
VERTEX
10
7.90459
20
10.456
30
9.04
0
VERTEX
10
7.9032
20
10.4783
30
9.04
0
VERTEX
10
7.90181
20
10.4894
30
9.04
0
VERTEX
10
7.89486
20
10.5117
30
9.04
0
VERTEX
10
7.89347
20
10.5172
30
9.04
0
VERTEX
10
7.8893
20
10.5228
30
9.04
0
VERTEX
10
7.88652
20
10.5339
30
9.04
0
VERTEX
10
7.86844
20
10.5534
30
9.04
0
VERTEX
10
7.86844
20
10.5561
30
9.04
0
VERTEX
10
7.85732
20
10.5659
30
9.04
0
VERTEX
10
7.84759
20
10.5728
30
9.04
0
VERTEX
10
7.84481
20
10.5728
30
9.04
0
VERTEX
10
7.83924
20
10.5784
30
9.04
0
VERTEX
10
7.83368
20
10.5798
30
9.04
0
VERTEX
10
7.82812
20
10.584
30
9.04
0
VERTEX
10
7.817
20
10.5853
30
9.04
0
VERTEX
10
7.81144
20
10.5881
30
9.04
0
VERTEX
10
7.78919
20
10.584
30
9.04
0
VERTEX
10
7.78363
20
10.584
30
9.04
0
VERTEX
10
7.78085
20
10.5826
30
9.04
0
VERTEX
10
7.77667
20
10.5867
30
9.04
0
VERTEX
10
7.75443
20
10.5867
30
9.04
0
VERTEX
10
7.73218
20
10.584
30
9.04
0
VERTEX
10
7.72106
20
10.5826
30
9.04
0
VERTEX
10
7.7155
20
10.5826
30
9.04
0
VERTEX
10
7.71411
20
10.5798
30
9.04
0
VERTEX
10
7.70298
20
10.5784
30
9.04
0
VERTEX
10
7.69742
20
10.5784
30
9.04
0
VERTEX
10
7.6863
20
10.5728
30
9.04
0
VERTEX
10
7.68073
20
10.5714
30
9.04
0
VERTEX
10
7.67795
20
10.5687
30
9.04
0
VERTEX
10
7.66683
20
10.5659
30
9.04
0
VERTEX
10
7.66544
20
10.5631
30
9.04
0
VERTEX
10
7.65988
20
10.5617
30
9.04
0
VERTEX
10
7.65293
20
10.552
30
9.04
0
VERTEX
10
7.64736
20
10.5464
30
9.04
0
VERTEX
10
7.6279
20
10.5311
30
9.04
0
VERTEX
10
7.62373
20
10.5283
30
9.04
0
VERTEX
10
7.61678
20
10.5172
30
9.04
0
VERTEX
10
7.61399
20
10.5144
30
9.04
0
VERTEX
10
7.6126
20
10.5089
30
9.04
0
VERTEX
10
7.60982
20
10.5061
30
9.04
0
VERTEX
10
7.60982
20
10.5033
30
9.04
0
VERTEX
10
7.60287
20
10.4922
30
9.04
0
VERTEX
10
7.59036
20
10.4477
30
9.04
0
VERTEX
10
7.59036
20
10.4254
30
9.04
0
VERTEX
10
7.58897
20
10.4143
30
9.04
0
VERTEX
10
7.58897
20
10.4088
30
9.04
0
VERTEX
10
7.58897
20
10.406
30
9.04
0
SEQEND
0
POLYLINE
62
31
66
1
70
1
3
contour
0
VERTEX
10
7.48172
20
10.3613
30
9.04
0
VERTEX
10
7.48358
20
10.3314
30
9.04
0
VERTEX
10
7.48358
20
10.3165
30
9.04
0
VERTEX
10
7.48731
20
10.3091
30
9.04
0
VERTEX
10
7.48731
20
10.3053
30
9.04
0
VERTEX
10
7.49105
20
10.3035
30
9.04
0
VERTEX
10
7.49105
20
10.2997
30
9.04
0
VERTEX
10
7.50038
20
10.2867
30
9.04
0
VERTEX
10
7.50411
20
10.2717
30
9.04
0
VERTEX
10
7.50971
20
10.2643
30
9.04
0
VERTEX
10
7.51344
20
10.2605
30
9.04
0
VERTEX
10
7.51717
20
10.2456
30
9.04
0
VERTEX
10
7.52091
20
10.2381
30
9.04
0
VERTEX
10
7.52464
20
10.2344
30
9.04
0
VERTEX
10
7.52651
20
10.2269
30
9.04
0
VERTEX
10
7.53024
20
10.2251
30
9.04
0
VERTEX
10
7.53024
20
10.2213
30
9.04
0
VERTEX
10
7.5489
20
10.1933
30
9.04
0
VERTEX
10
7.56943
20
10.1691
30
9.04
0
VERTEX
10
7.57689
20
10.1635
30
9.04
0
VERTEX
10
7.58063
20
10.1635
30
9.04
0
VERTEX
10
7.58622
20
10.1579
30
9.04
0
VERTEX
10
7.58996
20
10.1579
30
9.04
0
VERTEX
10
7.59742
20
10.1523
30
9.04
0
VERTEX
10
7.60115
20
10.1486
30
9.04
0
VERTEX
10
7.61608
20
10.1448
30
9.04
0
VERTEX
10
7.63101
20
10.1336
30
9.04
0
VERTEX
10
7.64594
20
10.1299
30
9.04
0
VERTEX
10
7.64968
20
10.1262
30
9.04
0
VERTEX
10
7.65714
20
10.1262
30
9.04
0
VERTEX
10
7.66461
20
10.1224
30
9.04
0
VERTEX
10
7.66834
20
10.1224
30
9.04
0
VERTEX
10
7.67021
20
10.1187
30
9.04
0
VERTEX
10
7.67394
20
10.1187
30
9.04
0
VERTEX
10
7.7038
20
10.1019
30
9.04
0
VERTEX
10
7.71873
20
10.1
30
9.04
0
VERTEX
10
7.72619
20
10.1
30
9.04
0
VERTEX
10
7.73366
20
10.0963
30
9.04
0
VERTEX
10
7.76352
20
10.0963
30
9.04
0
VERTEX
10
7.77098
20
10.0963
30
9.04
0
VERTEX
10
7.80084
20
10.1056
30
9.04
0
VERTEX
10
7.8307
20
10.1075
30
9.04
0
VERTEX
10
7.84563
20
10.1112
30
9.04
0
VERTEX
10
7.8531
20
10.1112
30
9.04
0
VERTEX
10
7.86803
20
10.1168
30
9.04
0
VERTEX
10
7.88296
20
10.1187
30
9.04
0
VERTEX
10
7.89042
20
10.1187
30
9.04
0
VERTEX
10
7.89602
20
10.1243
30
9.04
0
VERTEX
10
7.92588
20
10.1336
30
9.04
0
VERTEX
10
7.94081
20
10.1374
30
9.04
0
VERTEX
10
7.94827
20
10.143
30
9.04
0
VERTEX
10
7.95574
20
10.1448
30
9.04
0
VERTEX
10
7.9576
20
10.1486
30
9.04
0
VERTEX
10
7.98746
20
10.1579
30
9.04
0
VERTEX
10
8.00053
20
10.1635
30
9.04
0
VERTEX
10
8.00799
20
10.1672
30
9.04
0
VERTEX
10
8.00986
20
10.171
30
9.04
0
VERTEX
10
8.01732
20
10.1728
30
9.04
0
VERTEX
10
8.02666
20
10.1877
30
9.04
0
VERTEX
10
8.03785
20
10.1971
30
9.04
0
VERTEX
10
8.04532
20
10.2027
30
9.04
0
VERTEX
10
8.04718
20
10.2064
30
9.04
0
VERTEX
10
8.05092
20
10.2064
30
9.04
0
VERTEX
10
8.05465
20
10.2139
30
9.04
0
VERTEX
10
8.08451
20
10.2363
30
9.04
0
VERTEX
10
8.08824
20
10.2363
30
9.04
0
VERTEX
10
8.1013
20
10.2475
30
9.04
0
VERTEX
10
8.10877
20
10.2493
30
9.04
0
VERTEX
10
8.1349
20
10.2717
30
9.04
0
VERTEX
10
8.14983
20
10.2811
30
9.04
0
VERTEX
10
8.15729
20
10.2829
30
9.04
0
VERTEX
10
8.17035
20
10.2941
30
9.04
0
VERTEX
10
8.17035
20
10.3016
30
9.04
0
VERTEX
10
8.18155
20
10.3165
30
9.04
0
VERTEX
10
8.18155
20
10.3203
30
9.04
0
VERTEX
10
8.18528
20
10.324
30
9.04
0
VERTEX
10
8.18528
20
10.3277
30
9.04
0
VERTEX
10
8.19462
20
10.3426
30
9.04
0
VERTEX
10
8.19648
20
10.3501
30
9.04
0
VERTEX
10
8.19648
20
10.3538
30
9.04
0
VERTEX
10
8.20021
20
10.3557
30
9.04
0
VERTEX
10
8.20395
20
10.3706
30
9.04
0
VERTEX
10
8.20021
20
10.4304
30
9.04
0
VERTEX
10
8.19835
20
10.4602
30
9.04
0
VERTEX
10
8.19835
20
10.4677
30
9.04
0
VERTEX
10
8.19835
20
10.4714
30
9.04
0
VERTEX
10
8.20395
20
10.4789
30
9.04
0
VERTEX
10
8.20581
20
10.4938
30
9.04
0
VERTEX
10
8.21328
20
10.4994
30
9.04
0
VERTEX
10
8.21701
20
10.5143
30
9.04
0
VERTEX
10
8.21701
20
10.5181
30
9.04
0
VERTEX
10
8.22074
20
10.5181
30
9.04
0
VERTEX
10
8.22448
20
10.5218
30
9.04
0
VERTEX
10
8.23194
20
10.5237
30
9.04
0
VERTEX
10
8.245
20
10.5386
30
9.04
0
VERTEX
10
8.2506
20
10.5535
30
9.04
0
VERTEX
10
8.2674
20
10.5815
30
9.04
0
VERTEX
10
8.273
20
10.5871
30
9.04
0
VERTEX
10
8.27673
20
10.589
30
9.04
0
VERTEX
10
8.28233
20
10.6021
30
9.04
0
VERTEX
10
8.30286
20
10.6282
30
9.04
0
VERTEX
10
8.30846
20
10.6356
30
9.04
0
VERTEX
10
8.31032
20
10.6506
30
9.04
0
VERTEX
10
8.30659
20
10.6804
30
9.04
0
VERTEX
10
8.30099
20
10.6954
30
9.04
0
VERTEX
10
8.29912
20
10.7028
30
9.04
0
VERTEX
10
8.30286
20
10.7047
30
9.04
0
VERTEX
10
8.30099
20
10.7196
30
9.04
0
VERTEX
10
8.29726
20
10.7271
30
9.04
0
VERTEX
10
8.28979
20
10.7346
30
9.04
0
VERTEX
10
8.28606
20
10.7346
30
9.04
0
VERTEX
10
8.27673
20
10.7476
30
9.04
0
VERTEX
10
8.27113
20
10.7551
30
9.04
0
VERTEX
10
8.26367
20
10.7588
30
9.04
0
VERTEX
10
8.2506
20
10.7719
30
9.04
0
VERTEX
10
8.22074
20
10.7849
30
9.04
0
VERTEX
10
8.20581
20
10.7849
30
9.04
0
VERTEX
10
8.17595
20
10.7924
30
9.04
0
VERTEX
10
8.14609
20
10.7943
30
9.04
0
VERTEX
10
8.13116
20
10.7924
30
9.04
0
VERTEX
10
8.1013
20
10.798
30
9.04
0
VERTEX
10
8.07144
20
10.798
30
9.04
0
VERTEX
10
8.05651
20
10.798
30
9.04
0
VERTEX
10
8.04159
20
10.8017
30
9.04
0
VERTEX
10
8.03412
20
10.8055
30
9.04
0
VERTEX
10
8.03039
20
10.8055
30
9.04
0
VERTEX
10
8.02666
20
10.8092
30
9.04
0
VERTEX
10
8.01173
20
10.8111
30
9.04
0
VERTEX
10
8.00426
20
10.8111
30
9.04
0
VERTEX
10
7.98933
20
10.8185
30
9.04
0
VERTEX
10
7.9856
20
10.8185
30
9.04
0
VERTEX
10
7.98373
20
10.8223
30
9.04
0
VERTEX
10
7.95387
20
10.8335
30
9.04
0
VERTEX
10
7.94641
20
10.8335
30
9.04
0
VERTEX
10
7.93894
20
10.8372
30
9.04
0
VERTEX
10
7.8195
20
10.8372
30
9.04
0
VERTEX
10
7.80457
20
10.8372
30
9.04
0
VERTEX
10
7.77471
20
10.8297
30
9.04
0
VERTEX
10
7.76725
20
10.8279
30
9.04
0
VERTEX
10
7.76352
20
10.8241
30
9.04
0
VERTEX
10
7.7038
20
10.8129
30
9.04
0
VERTEX
10
7.67394
20
10.7943
30
9.04
0
VERTEX
10
7.66647
20
10.7887
30
9.04
0
VERTEX
10
7.65714
20
10.7737
30
9.04
0
VERTEX
10
7.64968
20
10.7663
30
9.04
0
VERTEX
10
7.64594
20
10.7663
30
9.04
0
VERTEX
10
7.64221
20
10.7625
30
9.04
0
VERTEX
10
7.62728
20
10.7569
30
9.04
0
VERTEX
10
7.62168
20
10.7532
30
9.04
0
VERTEX
10
7.61982
20
10.7458
30
9.04
0
VERTEX
10
7.57689
20
10.6898
30
9.04
0
VERTEX
10
7.5713
20
10.6823
30
9.04
0
VERTEX
10
7.56943
20
10.6748
30
9.04
0
VERTEX
10
7.5489
20
10.6468
30
9.04
0
VERTEX
10
7.5433
20
10.6394
30
9.04
0
VERTEX
10
7.53957
20
10.6244
30
9.04
0
VERTEX
10
7.53584
20
10.6226
30
9.04
0
VERTEX
10
7.5321
20
10.6077
30
9.04
0
VERTEX
10
7.52651
20
10.6002
30
9.04
0
VERTEX
10
7.50971
20
10.5405
30
9.04
0
VERTEX
10
7.50598
20
10.5255
30
9.04
0
VERTEX
10
7.50411
20
10.5181
30
9.04
0
VERTEX
10
7.50038
20
10.5143
30
9.04
0
VERTEX
10
7.50038
20
10.5106
30
9.04
0
VERTEX
10
7.49478
20
10.5031
30
9.04
0
VERTEX
10
7.48172
20
10.4434
30
9.04
0
VERTEX
10
7.48172
20
10.3837
30
9.04
0
VERTEX
10
7.48172
20
10.3688
30
9.04
0
VERTEX
10
7.48172
20
10.3632
30
9.04
0
SEQEND
0
POLYLINE
62
227
66
1
70
1
3
endoplasmic_reticulum
0
VERTEX
10
7.91561
20
10.3246
30
9.04
0
VERTEX
10
7.9165
20
10.3175
30
9.04
0
VERTEX
10
7.9174
20
10.3139
30
9.04
0
VERTEX
10
7.92098
20
10.3103
30
9.04
0
VERTEX
10
7.92367
20
10.3031
30
9.04
0
VERTEX
10
7.92547
20
10.2995
30
9.04
0
VERTEX
10
7.92547
20
10.2977
30
9.04
0
VERTEX
10
7.92726
20
10.2959
30
9.04
0
VERTEX
10
7.92905
20
10.2888
30
9.04
0
VERTEX
10
7.93085
20
10.287
30
9.04
0
VERTEX
10
7.93085
20
10.2852
30
9.04
0
VERTEX
10
7.93443
20
10.2825
30
9.04
0
VERTEX
10
7.94161
20
10.2825
30
9.04
0
VERTEX
10
7.9434
20
10.2834
30
9.04
0
VERTEX
10
7.9434
20
10.2852
30
9.04
0
VERTEX
10
7.94519
20
10.287
30
9.04
0
VERTEX
10
7.94519
20
10.2888
30
9.04
0
VERTEX
10
7.94967
20
10.295
30
9.04
0
VERTEX
10
7.95057
20
10.3022
30
9.04
0
VERTEX
10
7.95057
20
10.304
30
9.04
0
VERTEX
10
7.95236
20
10.3058
30
9.04
0
VERTEX
10
7.95416
20
10.313
30
9.04
0
VERTEX
10
7.95416
20
10.3201
30
9.04
0
VERTEX
10
7.95416
20
10.3219
30
9.04
0
VERTEX
10
7.95864
20
10.3291
30
9.04
0
VERTEX
10
7.96492
20
10.3426
30
9.04
0
VERTEX
10
7.95864
20
10.3569
30
9.04
0
VERTEX
10
7.95774
20
10.3641
30
9.04
0
VERTEX
10
7.95595
20
10.365
30
9.04
0
VERTEX
10
7.95595
20
10.3668
30
9.04
0
VERTEX
10
7.95326
20
10.3695
30
9.04
0
VERTEX
10
7.95236
20
10.3712
30
9.04
0
VERTEX
10
7.94519
20
10.3721
30
9.04
0
VERTEX
10
7.93085
20
10.3677
30
9.04
0
VERTEX
10
7.92726
20
10.365
30
9.04
0
VERTEX
10
7.91561
20
10.3363
30
9.04
0
VERTEX
10
7.91561
20
10.3291
30
9.04
0
VERTEX
10
7.91561
20
10.3255
30
9.04
0
SEQEND
0
POLYLINE
62
227
66
1
70
1
3
endoplasmic_reticulum
0
VERTEX
10
7.93802
20
10.4815
30
9.04
0
VERTEX
10
7.93981
20
10.4743
30
9.04
0
VERTEX
10
7.9434
20
10.4672
30
9.04
0
VERTEX
10
7.94967
20
10.4609
30
9.04
0
VERTEX
10
7.95685
20
10.4573
30
9.04
0
VERTEX
10
7.97119
20
10.4546
30
9.04
0
VERTEX
10
7.98554
20
10.4555
30
9.04
0
VERTEX
10
7.99898
20
10.4609
30
9.04
0
VERTEX
10
8.00436
20
10.4681
30
9.04
0
VERTEX
10
8.00705
20
10.4752
30
9.04
0
VERTEX
10
8.00436
20
10.4896
30
9.04
0
VERTEX
10
7.99988
20
10.4959
30
9.04
0
VERTEX
10
7.99361
20
10.5003
30
9.04
0
VERTEX
10
7.99002
20
10.5039
30
9.04
0
VERTEX
10
7.97836
20
10.5138
30
9.04
0
VERTEX
10
7.97478
20
10.5165
30
9.04
0
VERTEX
10
7.96043
20
10.5129
30
9.04
0
VERTEX
10
7.95326
20
10.5111
30
9.04
0
VERTEX
10
7.94609
20
10.5066
30
9.04
0
VERTEX
10
7.94071
20
10.5003
30
9.04
0
VERTEX
10
7.93802
20
10.4932
30
9.04
0
VERTEX
10
7.93802
20
10.486
30
9.04
0
VERTEX
10
7.93802
20
10.4824
30
9.04
0
SEQEND
0
POLYLINE
62
227
66
1
70
1
3
endoplasmic_reticulum
0
VERTEX
10
7.87526
20
10.6079
30
9.04
0
VERTEX
10
7.87974
20
10.6017
30
9.04
0
VERTEX
10
7.8923
20
10.5936
30
9.04
0
VERTEX
10
7.89409
20
10.5918
30
9.04
0
VERTEX
10
7.89767
20
10.5927
30
9.04
0
VERTEX
10
7.90036
20
10.5855
30
9.04
0
VERTEX
10
7.9174
20
10.5595
30
9.04
0
VERTEX
10
7.92278
20
10.5532
30
9.04
0
VERTEX
10
7.92636
20
10.5506
30
9.04
0
VERTEX
10
7.92995
20
10.5497
30
9.04
0
VERTEX
10
7.93712
20
10.5515
30
9.04
0
VERTEX
10
7.94071
20
10.5532
30
9.04
0
VERTEX
10
7.94698
20
10.5604
30
9.04
0
VERTEX
10
7.94878
20
10.5748
30
9.04
0
VERTEX
10
7.94878
20
10.5783
30
9.04
0
VERTEX
10
7.95057
20
10.5801
30
9.04
0
VERTEX
10
7.95147
20
10.5873
30
9.04
0
VERTEX
10
7.95236
20
10.5909
30
9.04
0
VERTEX
10
7.94967
20
10.5981
30
9.04
0
VERTEX
10
7.93981
20
10.6079
30
9.04
0
VERTEX
10
7.93264
20
10.6106
30
9.04
0
VERTEX
10
7.9183
20
10.6115
30
9.04
0
VERTEX
10
7.91112
20
10.616
30
9.04
0
VERTEX
10
7.89947
20
10.6277
30
9.04
0
VERTEX
10
7.8923
20
10.6286
30
9.04
0
VERTEX
10
7.88512
20
10.6268
30
9.04
0
VERTEX
10
7.88154
20
10.6268
30
9.04
0
VERTEX
10
7.87795
20
10.625
30
9.04
0
VERTEX
10
7.87705
20
10.6178
30
9.04
0
VERTEX
10
7.87526
20
10.616
30
9.04
0
VERTEX
10
7.87526
20
10.6088
30
9.04
0
SEQEND
0
POLYLINE
62
236
66
1
70
1
3
postsynaptic_density
0
VERTEX
10
6.09577
20
10.7989
30
9.04
0
VERTEX
10
6.17011
20
10.6403
30
9.04
0
VERTEX
10
6.2048
20
10.5611
30
9.04
0
VERTEX
10
6.21472
20
10.5412
30
9.04
0
VERTEX
10
6.24445
20
10.566
30
9.04
0
VERTEX
10
6.25436
20
10.5611
30
9.04
0
VERTEX
10
6.26923
20
10.6007
30
9.04
0
VERTEX
10
6.28905
20
10.6057
30
9.04
0
VERTEX
10
6.32375
20
10.6403
30
9.04
0
VERTEX
10
6.34357
20
10.6552
30
9.04
0
VERTEX
10
6.35348
20
10.6552
30
9.04
0
VERTEX
10
6.41791
20
10.7147
30
9.04
0
VERTEX
10
6.43773
20
10.7296
30
9.04
0
VERTEX
10
6.43773
20
10.7494
30
9.04
0
VERTEX
10
6.42782
20
10.7692
30
9.04
0
VERTEX
10
6.408
20
10.7742
30
9.04
0
VERTEX
10
6.38817
20
10.8138
30
9.04
0
VERTEX
10
6.35348
20
10.8386
30
9.04
0
VERTEX
10
6.33366
20
10.8485
30
9.04
0
VERTEX
10
6.31879
20
10.8683
30
9.04
0
VERTEX
10
6.30888
20
10.8683
30
9.04
0
VERTEX
10
6.30392
20
10.8782
30
9.04
0
VERTEX
10
6.29401
20
10.8782
30
9.04
0
VERTEX
10
6.28905
20
10.8981
30
9.04
0
VERTEX
10
6.24941
20
10.908
30
9.04
0
VERTEX
10
6.2395
20
10.908
30
9.04
0
VERTEX
10
6.17507
20
10.8535
30
9.04
0
VERTEX
10
6.13542
20
10.8287
30
9.04
0
VERTEX
10
6.1156
20
10.8237
30
9.04
0
VERTEX
10
6.11064
20
10.8138
30
9.04
0
VERTEX
10
6.10073
20
10.8138
30
9.04
0
VERTEX
10
6.09577
20
10.8039
30
9.04
0
SEQEND
0
ENDSEC
0
EOF
