0
SECTION
2
ENTITIES
0
POLYLINE
62
31
66
1
70
1
3
contour
0
VERTEX
10
7.16799
20
8.92043
30
7.76
0
VERTEX
10
7.18777
20
8.86109
30
7.76
0
VERTEX
10
7.19172
20
8.79779
30
7.76
0
VERTEX
10
7.19172
20
8.78988
30
7.76
0
VERTEX
10
7.21941
20
8.7701
30
7.76
0
VERTEX
10
7.2471
20
8.73846
30
7.76
0
VERTEX
10
7.2748
20
8.71868
30
7.76
0
VERTEX
10
7.30644
20
8.71868
30
7.76
0
VERTEX
10
7.36578
20
8.76615
30
7.76
0
VERTEX
10
7.3816
20
8.77802
30
7.76
0
VERTEX
10
7.3816
20
8.80966
30
7.76
0
VERTEX
10
7.36974
20
8.84131
30
7.76
0
VERTEX
10
7.36578
20
8.84526
30
7.76
0
VERTEX
10
7.37369
20
8.84922
30
7.76
0
VERTEX
10
7.37369
20
8.85713
30
7.76
0
VERTEX
10
7.36578
20
8.86504
30
7.76
0
VERTEX
10
7.36974
20
8.92834
30
7.76
0
VERTEX
10
7.36974
20
8.95998
30
7.76
0
VERTEX
10
7.36182
20
8.9679
30
7.76
0
VERTEX
10
7.36182
20
8.98372
30
7.76
0
VERTEX
10
7.33413
20
9.01141
30
7.76
0
VERTEX
10
7.30249
20
9.01932
30
7.76
0
VERTEX
10
7.23919
20
9.02328
30
7.76
0
VERTEX
10
7.20755
20
9.01932
30
7.76
0
VERTEX
10
7.16799
20
8.96394
30
7.76
0
VERTEX
10
7.16799
20
8.93229
30
7.76
0
VERTEX
10
7.16799
20
8.92438
30
7.76
0
SEQEND
0
POLYLINE
62
31
66
1
70
1
3
contour
0
VERTEX
10
7.74625
20
10.2849
30
7.76
0
VERTEX
10
7.74812
20
10.27
30
7.76
0
VERTEX
10
7.76673
20
10.2105
30
7.76
0
VERTEX
10
7.76859
20
10.1956
30
7.76
0
VERTEX
10
7.76859
20
10.1919
30
7.76
0
VERTEX
10
7.77417
20
10.1844
30
7.76
0
VERTEX
10
7.77789
20
10.1807
30
7.76
0
VERTEX
10
7.78162
20
10.1509
30
7.76
0
VERTEX
10
7.78348
20
10.0913
30
7.76
0
VERTEX
10
7.79278
20
9.97223
30
7.76
0
VERTEX
10
7.79278
20
9.96479
30
7.76
0
VERTEX
10
7.79278
20
9.96106
30
7.76
0
VERTEX
10
7.79651
20
9.95734
30
7.76
0
VERTEX
10
7.80023
20
9.92756
30
7.76
0
VERTEX
10
7.80023
20
9.92384
30
7.76
0
VERTEX
10
7.80395
20
9.92012
30
7.76
0
VERTEX
10
7.81326
20
9.89034
30
7.76
0
VERTEX
10
7.81512
20
9.88289
30
7.76
0
VERTEX
10
7.81884
20
9.87917
30
7.76
0
VERTEX
10
7.8207
20
9.87173
30
7.76
0
VERTEX
10
7.83187
20
9.85684
30
7.76
0
VERTEX
10
7.84862
20
9.82892
30
7.76
0
VERTEX
10
7.85979
20
9.81589
30
7.76
0
VERTEX
10
7.86537
20
9.80845
30
7.76
0
VERTEX
10
7.85979
20
9.80286
30
7.76
0
VERTEX
10
7.86165
20
9.79914
30
7.76
0
VERTEX
10
7.86537
20
9.79914
30
7.76
0
VERTEX
10
7.87095
20
9.78425
30
7.76
0
VERTEX
10
7.88398
20
9.76936
30
7.76
0
VERTEX
10
7.90259
20
9.74331
30
7.76
0
VERTEX
10
7.91004
20
9.73958
30
7.76
0
VERTEX
10
7.93237
20
9.71167
30
7.76
0
VERTEX
10
7.9454
20
9.7005
30
7.76
0
VERTEX
10
7.97518
20
9.69119
30
7.76
0
VERTEX
10
8.03474
20
9.68747
30
7.76
0
VERTEX
10
8.04218
20
9.68747
30
7.76
0
VERTEX
10
8.04404
20
9.68375
30
7.76
0
VERTEX
10
8.1036
20
9.68933
30
7.76
0
VERTEX
10
8.11849
20
9.69305
30
7.76
0
VERTEX
10
8.12035
20
9.69678
30
7.76
0
VERTEX
10
8.15013
20
9.7005
30
7.76
0
VERTEX
10
8.16502
20
9.70236
30
7.76
0
VERTEX
10
8.17247
20
9.70236
30
7.76
0
VERTEX
10
8.18735
20
9.71167
30
7.76
0
VERTEX
10
8.19294
20
9.74144
30
7.76
0
VERTEX
10
8.1948
20
9.77122
30
7.76
0
VERTEX
10
8.20038
20
9.801
30
7.76
0
VERTEX
10
8.20038
20
9.81589
30
7.76
0
VERTEX
10
8.20969
20
9.87545
30
7.76
0
VERTEX
10
8.20969
20
9.90523
30
7.76
0
VERTEX
10
8.21341
20
9.93501
30
7.76
0
VERTEX
10
8.21527
20
9.99457
30
7.76
0
VERTEX
10
8.21713
20
10.0243
30
7.76
0
VERTEX
10
8.21713
20
10.0392
30
7.76
0
VERTEX
10
8.22644
20
10.069
30
7.76
0
VERTEX
10
8.2283
20
10.0839
30
7.76
0
VERTEX
10
8.2283
20
10.0876
30
7.76
0
VERTEX
10
8.23575
20
10.0951
30
7.76
0
VERTEX
10
8.24877
20
10.1248
30
7.76
0
VERTEX
10
8.25622
20
10.1267
30
7.76
0
VERTEX
10
8.25994
20
10.1416
30
7.76
0
VERTEX
10
8.26366
20
10.149
30
7.76
0
VERTEX
10
8.26366
20
10.1528
30
7.76
0
VERTEX
10
8.26925
20
10.1602
30
7.76
0
VERTEX
10
8.27297
20
10.1751
30
7.76
0
VERTEX
10
8.27855
20
10.1825
30
7.76
0
VERTEX
10
8.28041
20
10.2123
30
7.76
0
VERTEX
10
8.28414
20
10.2142
30
7.76
0
VERTEX
10
8.28414
20
10.2291
30
7.76
0
VERTEX
10
8.28228
20
10.2365
30
7.76
0
VERTEX
10
8.27855
20
10.2384
30
7.76
0
VERTEX
10
8.27483
20
10.2682
30
7.76
0
VERTEX
10
8.27483
20
10.2719
30
7.76
0
VERTEX
10
8.27111
20
10.2756
30
7.76
0
VERTEX
10
8.26925
20
10.2905
30
7.76
0
VERTEX
10
8.25994
20
10.3054
30
7.76
0
VERTEX
10
8.25622
20
10.3128
30
7.76
0
VERTEX
10
8.25622
20
10.3166
30
7.76
0
VERTEX
10
8.2525
20
10.3203
30
7.76
0
VERTEX
10
8.25064
20
10.3277
30
7.76
0
VERTEX
10
8.24505
20
10.3352
30
7.76
0
VERTEX
10
8.24319
20
10.3426
30
7.76
0
VERTEX
10
8.23761
20
10.3501
30
7.76
0
VERTEX
10
8.2283
20
10.3798
30
7.76
0
VERTEX
10
8.20969
20
10.4096
30
7.76
0
VERTEX
10
8.19852
20
10.4245
30
7.76
0
VERTEX
10
8.18549
20
10.4338
30
7.76
0
VERTEX
10
8.17433
20
10.4468
30
7.76
0
VERTEX
10
8.16874
20
10.4543
30
7.76
0
VERTEX
10
8.15385
20
10.4617
30
7.76
0
VERTEX
10
8.13896
20
10.4654
30
7.76
0
VERTEX
10
8.13524
20
10.4654
30
7.76
0
VERTEX
10
8.13338
20
10.4692
30
7.76
0
VERTEX
10
8.1036
20
10.4785
30
7.76
0
VERTEX
10
8.07382
20
10.4822
30
7.76
0
VERTEX
10
8.04404
20
10.4822
30
7.76
0
VERTEX
10
7.98449
20
10.4878
30
7.76
0
VERTEX
10
7.92493
20
10.4859
30
7.76
0
VERTEX
10
7.89515
20
10.4766
30
7.76
0
VERTEX
10
7.8877
20
10.471
30
7.76
0
VERTEX
10
7.83001
20
10.445
30
7.76
0
VERTEX
10
7.82256
20
10.4431
30
7.76
0
VERTEX
10
7.81698
20
10.4375
30
7.76
0
VERTEX
10
7.80209
20
10.4338
30
7.76
0
VERTEX
10
7.77603
20
10.4077
30
7.76
0
VERTEX
10
7.76487
20
10.3947
30
7.76
0
VERTEX
10
7.75928
20
10.3873
30
7.76
0
VERTEX
10
7.75184
20
10.3575
30
7.76
0
VERTEX
10
7.74625
20
10.3426
30
7.76
0
VERTEX
10
7.74625
20
10.3128
30
7.76
0
VERTEX
10
7.74625
20
10.2979
30
7.76
0
VERTEX
10
7.74625
20
10.2905
30
7.76
0
VERTEX
10
7.74625
20
10.2868
30
7.76
0
SEQEND
0
POLYLINE
62
224
66
1
70
1
3
mitochondrion
0
VERTEX
10
7.94909
20
9.96521
30
7.76
0
VERTEX
10
7.95326
20
9.92072
30
7.76
0
VERTEX
10
7.95465
20
9.90959
30
7.76
0
VERTEX
10
7.95465
20
9.90403
30
7.76
0
VERTEX
10
7.95743
20
9.90125
30
7.76
0
VERTEX
10
7.9616
20
9.879
30
7.76
0
VERTEX
10
7.9616
20
9.87344
30
7.76
0
VERTEX
10
7.96855
20
9.86232
30
7.76
0
VERTEX
10
7.97133
20
9.85676
30
7.76
0
VERTEX
10
7.97412
20
9.85398
30
7.76
0
VERTEX
10
7.97551
20
9.84842
30
7.76
0
VERTEX
10
7.98385
20
9.83729
30
7.76
0
VERTEX
10
8.0047
20
9.822
30
7.76
0
VERTEX
10
8.01444
20
9.81365
30
7.76
0
VERTEX
10
8.05893
20
9.81783
30
7.76
0
VERTEX
10
8.07979
20
9.82756
30
7.76
0
VERTEX
10
8.09091
20
9.83173
30
7.76
0
VERTEX
10
8.10899
20
9.84981
30
7.76
0
VERTEX
10
8.12289
20
9.87205
30
7.76
0
VERTEX
10
8.12984
20
9.88318
30
7.76
0
VERTEX
10
8.12984
20
9.90542
30
7.76
0
VERTEX
10
8.12428
20
9.94992
30
7.76
0
VERTEX
10
8.12011
20
9.97216
30
7.76
0
VERTEX
10
8.11733
20
9.98329
30
7.76
0
VERTEX
10
8.11594
20
9.98885
30
7.76
0
VERTEX
10
8.11316
20
9.99163
30
7.76
0
VERTEX
10
8.11316
20
9.99441
30
7.76
0
VERTEX
10
8.10482
20
10.0055
30
7.76
0
VERTEX
10
8.10204
20
10.0083
30
7.76
0
VERTEX
10
8.10204
20
10.0111
30
7.76
0
VERTEX
10
8.09091
20
10.0194
30
7.76
0
VERTEX
10
8.08535
20
10.0236
30
7.76
0
VERTEX
10
8.0784
20
10.0333
30
7.76
0
VERTEX
10
8.07284
20
10.0375
30
7.76
0
VERTEX
10
8.06171
20
10.0403
30
7.76
0
VERTEX
10
8.05893
20
10.0403
30
7.76
0
VERTEX
10
8.06588
20
10.0459
30
7.76
0
VERTEX
10
8.05476
20
10.05
30
7.76
0
VERTEX
10
8.0492
20
10.05
30
7.76
0
VERTEX
10
8.04364
20
10.0528
30
7.76
0
VERTEX
10
7.99914
20
10.0514
30
7.76
0
VERTEX
10
7.99636
20
10.0486
30
7.76
0
VERTEX
10
7.9908
20
10.0472
30
7.76
0
VERTEX
10
7.97968
20
10.0403
30
7.76
0
VERTEX
10
7.96577
20
10.0208
30
7.76
0
VERTEX
10
7.95743
20
10.0111
30
7.76
0
VERTEX
10
7.95604
20
10.0055
30
7.76
0
VERTEX
10
7.95187
20
9.99997
30
7.76
0
VERTEX
10
7.94909
20
9.98885
30
7.76
0
VERTEX
10
7.94909
20
9.9666
30
7.76
0
SEQEND
0
POLYLINE
62
227
66
1
70
1
3
endoplasmic_reticulum
0
VERTEX
10
8.03664
20
10.2834
30
7.76
0
VERTEX
10
8.03843
20
10.2762
30
7.76
0
VERTEX
10
8.03933
20
10.2726
30
7.76
0
VERTEX
10
8.04471
20
10.2672
30
7.76
0
VERTEX
10
8.0465
20
10.2655
30
7.76
0
VERTEX
10
8.05009
20
10.2646
30
7.76
0
VERTEX
10
8.05457
20
10.2592
30
7.76
0
VERTEX
10
8.05636
20
10.2583
30
7.76
0
VERTEX
10
8.06174
20
10.2439
30
7.76
0
VERTEX
10
8.06264
20
10.2368
30
7.76
0
VERTEX
10
8.06354
20
10.2332
30
7.76
0
VERTEX
10
8.06533
20
10.2314
30
7.76
0
VERTEX
10
8.06533
20
10.2278
30
7.76
0
VERTEX
10
8.06891
20
10.2206
30
7.76
0
VERTEX
10
8.07071
20
10.2135
30
7.76
0
VERTEX
10
8.08236
20
10.2
30
7.76
0
VERTEX
10
8.09671
20
10.1946
30
7.76
0
VERTEX
10
8.10029
20
10.1928
30
7.76
0
VERTEX
10
8.10209
20
10.1928
30
7.76
0
VERTEX
10
8.10388
20
10.1892
30
7.76
0
VERTEX
10
8.10567
20
10.1875
30
7.76
0
VERTEX
10
8.10567
20
10.1731
30
7.76
0
VERTEX
10
8.10747
20
10.1659
30
7.76
0
VERTEX
10
8.10926
20
10.1632
30
7.76
0
VERTEX
10
8.11554
20
10.1579
30
7.76
0
VERTEX
10
8.11912
20
10.1579
30
7.76
0
VERTEX
10
8.12091
20
10.1579
30
7.76
0
VERTEX
10
8.1254
20
10.165
30
7.76
0
VERTEX
10
8.12719
20
10.1677
30
7.76
0
VERTEX
10
8.13078
20
10.1677
30
7.76
0
VERTEX
10
8.13795
20
10.1704
30
7.76
0
VERTEX
10
8.14512
20
10.1713
30
7.76
0
VERTEX
10
8.1496
20
10.1659
30
7.76
0
VERTEX
10
8.1505
20
10.1516
30
7.76
0
VERTEX
10
8.1505
20
10.148
30
7.76
0
VERTEX
10
8.15498
20
10.1417
30
7.76
0
VERTEX
10
8.16843
20
10.131
30
7.76
0
VERTEX
10
8.1756
20
10.1283
30
7.76
0
VERTEX
10
8.18278
20
10.1274
30
7.76
0
VERTEX
10
8.18726
20
10.1337
30
7.76
0
VERTEX
10
8.18905
20
10.1355
30
7.76
0
VERTEX
10
8.18905
20
10.1498
30
7.76
0
VERTEX
10
8.18816
20
10.1534
30
7.76
0
VERTEX
10
8.18816
20
10.1552
30
7.76
0
VERTEX
10
8.18636
20
10.157
30
7.76
0
VERTEX
10
8.18636
20
10.1606
30
7.76
0
VERTEX
10
8.18636
20
10.1624
30
7.76
0
VERTEX
10
8.18457
20
10.1641
30
7.76
0
VERTEX
10
8.18367
20
10.1677
30
7.76
0
VERTEX
10
8.17829
20
10.174
30
7.76
0
VERTEX
10
8.1765
20
10.1812
30
7.76
0
VERTEX
10
8.17471
20
10.183
30
7.76
0
VERTEX
10
8.17381
20
10.1973
30
7.76
0
VERTEX
10
8.17381
20
10.2045
30
7.76
0
VERTEX
10
8.17919
20
10.2188
30
7.76
0
VERTEX
10
8.18188
20
10.2224
30
7.76
0
VERTEX
10
8.18278
20
10.2296
30
7.76
0
VERTEX
10
8.18009
20
10.2368
30
7.76
0
VERTEX
10
8.17829
20
10.2377
30
7.76
0
VERTEX
10
8.1756
20
10.252
30
7.76
0
VERTEX
10
8.1756
20
10.2592
30
7.76
0
VERTEX
10
8.1774
20
10.2663
30
7.76
0
VERTEX
10
8.17919
20
10.2699
30
7.76
0
VERTEX
10
8.17919
20
10.2717
30
7.76
0
VERTEX
10
8.18098
20
10.2735
30
7.76
0
VERTEX
10
8.18367
20
10.2879
30
7.76
0
VERTEX
10
8.18367
20
10.3022
30
7.76
0
VERTEX
10
8.18098
20
10.3166
30
7.76
0
VERTEX
10
8.1774
20
10.3237
30
7.76
0
VERTEX
10
8.1756
20
10.3273
30
7.76
0
VERTEX
10
8.16843
20
10.33
30
7.76
0
VERTEX
10
8.16664
20
10.33
30
7.76
0
VERTEX
10
8.16305
20
10.3327
30
7.76
0
VERTEX
10
8.1496
20
10.3381
30
7.76
0
VERTEX
10
8.14243
20
10.3408
30
7.76
0
VERTEX
10
8.14154
20
10.3426
30
7.76
0
VERTEX
10
8.11285
20
10.3426
30
7.76
0
VERTEX
10
8.0985
20
10.3435
30
7.76
0
VERTEX
10
8.09133
20
10.3435
30
7.76
0
VERTEX
10
8.08774
20
10.3435
30
7.76
0
VERTEX
10
8.08416
20
10.3408
30
7.76
0
VERTEX
10
8.07698
20
10.3381
30
7.76
0
VERTEX
10
8.07429
20
10.3354
30
7.76
0
VERTEX
10
8.07429
20
10.3336
30
7.76
0
VERTEX
10
8.06891
20
10.3273
30
7.76
0
VERTEX
10
8.06264
20
10.3228
30
7.76
0
VERTEX
10
8.05636
20
10.3166
30
7.76
0
VERTEX
10
8.05636
20
10.3148
30
7.76
0
VERTEX
10
8.04292
20
10.3031
30
7.76
0
VERTEX
10
8.04023
20
10.2995
30
7.76
0
VERTEX
10
8.04023
20
10.2959
30
7.76
0
VERTEX
10
8.03754
20
10.2923
30
7.76
0
VERTEX
10
8.03664
20
10.2852
30
7.76
0
VERTEX
10
8.03664
20
10.2843
30
7.76
0
SEQEND
0
POLYLINE
62
227
66
1
70
1
3
endoplasmic_reticulum
0
VERTEX
10
7.82416
20
10.3569
30
7.76
0
VERTEX
10
7.82685
20
10.3497
30
7.76
0
VERTEX
10
7.82774
20
10.3461
30
7.76
0
VERTEX
10
7.83043
20
10.3435
30
7.76
0
VERTEX
10
7.83043
20
10.3417
30
7.76
0
VERTEX
10
7.83223
20
10.3399
30
7.76
0
VERTEX
10
7.83223
20
10.3381
30
7.76
0
VERTEX
10
7.8394
20
10.3336
30
7.76
0
VERTEX
10
7.85285
20
10.3219
30
7.76
0
VERTEX
10
7.86002
20
10.3228
30
7.76
0
VERTEX
10
7.8663
20
10.3255
30
7.76
0
VERTEX
10
7.86988
20
10.3273
30
7.76
0
VERTEX
10
7.87167
20
10.3273
30
7.76
0
VERTEX
10
7.87526
20
10.33
30
7.76
0
VERTEX
10
7.87705
20
10.33
30
7.76
0
VERTEX
10
7.87795
20
10.3372
30
7.76
0
VERTEX
10
7.87705
20
10.3443
30
7.76
0
VERTEX
10
7.87795
20
10.3479
30
7.76
0
VERTEX
10
7.88064
20
10.3515
30
7.76
0
VERTEX
10
7.88333
20
10.3533
30
7.76
0
VERTEX
10
7.88602
20
10.3569
30
7.76
0
VERTEX
10
7.88781
20
10.3569
30
7.76
0
VERTEX
10
7.89767
20
10.3703
30
7.76
0
VERTEX
10
7.90933
20
10.3829
30
7.76
0
VERTEX
10
7.92278
20
10.3946
30
7.76
0
VERTEX
10
7.92636
20
10.3963
30
7.76
0
VERTEX
10
7.92995
20
10.3999
30
7.76
0
VERTEX
10
7.93354
20
10.4008
30
7.76
0
VERTEX
10
7.94071
20
10.4053
30
7.76
0
VERTEX
10
7.94161
20
10.4089
30
7.76
0
VERTEX
10
7.94161
20
10.4107
30
7.76
0
VERTEX
10
7.9443
20
10.4134
30
7.76
0
VERTEX
10
7.94519
20
10.4277
30
7.76
0
VERTEX
10
7.9443
20
10.4421
30
7.76
0
VERTEX
10
7.92995
20
10.443
30
7.76
0
VERTEX
10
7.92278
20
10.4403
30
7.76
0
VERTEX
10
7.91919
20
10.4385
30
7.76
0
VERTEX
10
7.9174
20
10.4385
30
7.76
0
VERTEX
10
7.9165
20
10.4367
30
7.76
0
VERTEX
10
7.90933
20
10.434
30
7.76
0
VERTEX
10
7.90664
20
10.4331
30
7.76
0
VERTEX
10
7.90305
20
10.4304
30
7.76
0
VERTEX
10
7.89588
20
10.4277
30
7.76
0
VERTEX
10
7.8923
20
10.4268
30
7.76
0
VERTEX
10
7.8905
20
10.4268
30
7.76
0
VERTEX
10
7.88781
20
10.4241
30
7.76
0
VERTEX
10
7.88781
20
10.4223
30
7.76
0
VERTEX
10
7.88423
20
10.4215
30
7.76
0
VERTEX
10
7.87705
20
10.4152
30
7.76
0
VERTEX
10
7.87167
20
10.4107
30
7.76
0
VERTEX
10
7.86809
20
10.4071
30
7.76
0
VERTEX
10
7.8663
20
10.4035
30
7.76
0
VERTEX
10
7.85464
20
10.3919
30
7.76
0
VERTEX
10
7.84747
20
10.3856
30
7.76
0
VERTEX
10
7.8403
20
10.3847
30
7.76
0
VERTEX
10
7.83312
20
10.3802
30
7.76
0
VERTEX
10
7.83043
20
10.3766
30
7.76
0
VERTEX
10
7.82685
20
10.3748
30
7.76
0
VERTEX
10
7.82595
20
10.3712
30
7.76
0
VERTEX
10
7.82416
20
10.3695
30
7.76
0
VERTEX
10
7.82416
20
10.3623
30
7.76
0
VERTEX
10
7.82416
20
10.3587
30
7.76
0
VERTEX
10
7.82416
20
10.3578
30
7.76
0
SEQEND
0
POLYLINE
62
227
66
1
70
1
3
endoplasmic_reticulum
0
VERTEX
10
8.10567
20
9.75173
30
7.76
0
VERTEX
10
8.10657
20
9.74815
30
7.76
0
VERTEX
10
8.10657
20
9.74635
30
7.76
0
VERTEX
10
8.10836
20
9.74456
30
7.76
0
VERTEX
10
8.11016
20
9.74456
30
7.76
0
VERTEX
10
8.11285
20
9.74097
30
7.76
0
VERTEX
10
8.12002
20
9.74097
30
7.76
0
VERTEX
10
8.12719
20
9.74366
30
7.76
0
VERTEX
10
8.13257
20
9.74815
30
7.76
0
VERTEX
10
8.13974
20
9.75263
30
7.76
0
VERTEX
10
8.15409
20
9.75532
30
7.76
0
VERTEX
10
8.16126
20
9.7598
30
7.76
0
VERTEX
10
8.16574
20
9.76518
30
7.76
0
VERTEX
10
8.16664
20
9.77235
30
7.76
0
VERTEX
10
8.16574
20
9.77952
30
7.76
0
VERTEX
10
8.16485
20
9.78311
30
7.76
0
VERTEX
10
8.16126
20
9.7867
30
7.76
0
VERTEX
10
8.15498
20
9.79118
30
7.76
0
VERTEX
10
8.14781
20
9.79118
30
7.76
0
VERTEX
10
8.14064
20
9.78849
30
7.76
0
VERTEX
10
8.13347
20
9.78401
30
7.76
0
VERTEX
10
8.12988
20
9.78221
30
7.76
0
VERTEX
10
8.12898
20
9.78042
30
7.76
0
VERTEX
10
8.1254
20
9.77952
30
7.76
0
VERTEX
10
8.1236
20
9.77952
30
7.76
0
VERTEX
10
8.12002
20
9.77594
30
7.76
0
VERTEX
10
8.11285
20
9.77146
30
7.76
0
VERTEX
10
8.11285
20
9.76966
30
7.76
0
VERTEX
10
8.10926
20
9.76608
30
7.76
0
VERTEX
10
8.10567
20
9.7589
30
7.76
0
VERTEX
10
8.10567
20
9.75263
30
7.76
0
SEQEND
0
ENDSEC
0
EOF
