0
SECTION
2
ENTITIES
0
POLYLINE
62
224
66
1
70
1
3
mitochondrion
0
VERTEX
10
8.46772
20
9.65793
30
6.96
0
VERTEX
10
8.47189
20
9.6468
30
6.96
0
VERTEX
10
8.47328
20
9.64124
30
6.96
0
VERTEX
10
8.47606
20
9.63846
30
6.96
0
VERTEX
10
8.47745
20
9.6329
30
6.96
0
VERTEX
10
8.50943
20
9.59119
30
6.96
0
VERTEX
10
8.52473
20
9.57172
30
6.96
0
VERTEX
10
8.54419
20
9.55782
30
6.96
0
VERTEX
10
8.54697
20
9.55782
30
6.96
0
VERTEX
10
8.55114
20
9.55364
30
6.96
0
VERTEX
10
8.55392
20
9.55364
30
6.96
0
VERTEX
10
8.55949
20
9.54947
30
6.96
0
VERTEX
10
8.57061
20
9.54947
30
6.96
0
VERTEX
10
8.57617
20
9.54669
30
6.96
0
VERTEX
10
8.62067
20
9.54252
30
6.96
0
VERTEX
10
8.66516
20
9.53557
30
6.96
0
VERTEX
10
8.70965
20
9.53557
30
6.96
0
VERTEX
10
8.7319
20
9.53557
30
6.96
0
VERTEX
10
8.74302
20
9.53557
30
6.96
0
VERTEX
10
8.75415
20
9.53835
30
6.96
0
VERTEX
10
8.75554
20
9.54113
30
6.96
0
VERTEX
10
8.77778
20
9.54808
30
6.96
0
VERTEX
10
8.78056
20
9.55086
30
6.96
0
VERTEX
10
8.78335
20
9.55086
30
6.96
0
VERTEX
10
8.78891
20
9.55503
30
6.96
0
VERTEX
10
8.80003
20
9.55642
30
6.96
0
VERTEX
10
8.80281
20
9.55921
30
6.96
0
VERTEX
10
8.80837
20
9.5606
30
6.96
0
VERTEX
10
8.81394
20
9.56616
30
6.96
0
VERTEX
10
8.81672
20
9.57033
30
6.96
0
VERTEX
10
8.82784
20
9.57867
30
6.96
0
VERTEX
10
8.83201
20
9.58423
30
6.96
0
VERTEX
10
8.8334
20
9.5898
30
6.96
0
VERTEX
10
8.83618
20
9.59258
30
6.96
0
VERTEX
10
8.83618
20
9.59536
30
6.96
0
VERTEX
10
8.83896
20
9.59814
30
6.96
0
VERTEX
10
8.84174
20
9.60926
30
6.96
0
VERTEX
10
8.84731
20
9.61899
30
6.96
0
VERTEX
10
8.85148
20
9.62456
30
6.96
0
VERTEX
10
8.85148
20
9.62734
30
6.96
0
VERTEX
10
8.85426
20
9.63012
30
6.96
0
VERTEX
10
8.85426
20
9.6329
30
6.96
0
VERTEX
10
8.86121
20
9.64402
30
6.96
0
VERTEX
10
8.86538
20
9.65515
30
6.96
0
VERTEX
10
8.86538
20
9.65793
30
6.96
0
VERTEX
10
8.88346
20
9.67739
30
6.96
0
VERTEX
10
8.88763
20
9.68295
30
6.96
0
VERTEX
10
8.88763
20
9.68852
30
6.96
0
VERTEX
10
8.89458
20
9.69964
30
6.96
0
VERTEX
10
8.89736
20
9.7052
30
6.96
0
VERTEX
10
8.89736
20
9.72745
30
6.96
0
VERTEX
10
8.89597
20
9.73857
30
6.96
0
VERTEX
10
8.89597
20
9.74413
30
6.96
0
VERTEX
10
8.8918
20
9.75526
30
6.96
0
VERTEX
10
8.89041
20
9.76638
30
6.96
0
VERTEX
10
8.89041
20
9.77194
30
6.96
0
VERTEX
10
8.88763
20
9.77472
30
6.96
0
VERTEX
10
8.88763
20
9.78028
30
6.96
0
VERTEX
10
8.88068
20
9.79141
30
6.96
0
VERTEX
10
8.87094
20
9.79836
30
6.96
0
VERTEX
10
8.86538
20
9.79975
30
6.96
0
VERTEX
10
8.86121
20
9.80392
30
6.96
0
VERTEX
10
8.85565
20
9.80531
30
6.96
0
VERTEX
10
8.85426
20
9.80809
30
6.96
0
VERTEX
10
8.8487
20
9.80948
30
6.96
0
VERTEX
10
8.83896
20
9.81783
30
6.96
0
VERTEX
10
8.82784
20
9.822
30
6.96
0
VERTEX
10
8.82228
20
9.82617
30
6.96
0
VERTEX
10
8.80003
20
9.83312
30
6.96
0
VERTEX
10
8.79725
20
9.8359
30
6.96
0
VERTEX
10
8.775
20
9.8359
30
6.96
0
VERTEX
10
8.75276
20
9.84007
30
6.96
0
VERTEX
10
8.74719
20
9.84007
30
6.96
0
VERTEX
10
8.74163
20
9.84285
30
6.96
0
VERTEX
10
8.69714
20
9.84702
30
6.96
0
VERTEX
10
8.65265
20
9.84702
30
6.96
0
VERTEX
10
8.64152
20
9.84702
30
6.96
0
VERTEX
10
8.6304
20
9.84285
30
6.96
0
VERTEX
10
8.60815
20
9.84285
30
6.96
0
VERTEX
10
8.5859
20
9.83729
30
6.96
0
VERTEX
10
8.58034
20
9.8359
30
6.96
0
VERTEX
10
8.57756
20
9.8359
30
6.96
0
VERTEX
10
8.57339
20
9.83173
30
6.96
0
VERTEX
10
8.56227
20
9.82895
30
6.96
0
VERTEX
10
8.55949
20
9.82617
30
6.96
0
VERTEX
10
8.54836
20
9.82478
30
6.96
0
VERTEX
10
8.52612
20
9.81226
30
6.96
0
VERTEX
10
8.52055
20
9.81226
30
6.96
0
VERTEX
10
8.50248
20
9.79419
30
6.96
0
VERTEX
10
8.4997
20
9.78863
30
6.96
0
VERTEX
10
8.4997
20
9.78306
30
6.96
0
VERTEX
10
8.49692
20
9.78028
30
6.96
0
VERTEX
10
8.49553
20
9.76916
30
6.96
0
VERTEX
10
8.49414
20
9.76777
30
6.96
0
VERTEX
10
8.48301
20
9.77472
30
6.96
0
VERTEX
10
8.47606
20
9.76499
30
6.96
0
VERTEX
10
8.4705
20
9.74274
30
6.96
0
VERTEX
10
8.46911
20
9.7205
30
6.96
0
VERTEX
10
8.4705
20
9.69825
30
6.96
0
VERTEX
10
8.47189
20
9.69269
30
6.96
0
VERTEX
10
8.46772
20
9.68156
30
6.96
0
VERTEX
10
8.46772
20
9.65932
30
6.96
0
SEQEND
0
POLYLINE
62
227
66
1
70
1
3
endoplasmic_reticulum
0
VERTEX
10
8.45443
20
9.84946
30
6.96
0
VERTEX
10
8.45891
20
9.84318
30
6.96
0
VERTEX
10
8.47326
20
9.84497
30
6.96
0
VERTEX
10
8.48671
20
9.84946
30
6.96
0
VERTEX
10
8.49029
20
9.84946
30
6.96
0
VERTEX
10
8.49208
20
9.84946
30
6.96
0
VERTEX
10
8.49477
20
9.85304
30
6.96
0
VERTEX
10
8.49657
20
9.85304
30
6.96
0
VERTEX
10
8.49926
20
9.85663
30
6.96
0
VERTEX
10
8.50284
20
9.85752
30
6.96
0
VERTEX
10
8.50464
20
9.85752
30
6.96
0
VERTEX
10
8.50643
20
9.85932
30
6.96
0
VERTEX
10
8.50822
20
9.85932
30
6.96
0
VERTEX
10
8.51002
20
9.86111
30
6.96
0
VERTEX
10
8.5136
20
9.86201
30
6.96
0
VERTEX
10
8.5145
20
9.86559
30
6.96
0
VERTEX
10
8.52077
20
9.86649
30
6.96
0
VERTEX
10
8.53422
20
9.87456
30
6.96
0
VERTEX
10
8.5396
20
9.88083
30
6.96
0
VERTEX
10
8.53871
20
9.89518
30
6.96
0
VERTEX
10
8.53781
20
9.89877
30
6.96
0
VERTEX
10
8.53602
20
9.90056
30
6.96
0
VERTEX
10
8.53512
20
9.90414
30
6.96
0
VERTEX
10
8.53243
20
9.90773
30
6.96
0
VERTEX
10
8.52974
20
9.91401
30
6.96
0
VERTEX
10
8.52705
20
9.9167
30
6.96
0
VERTEX
10
8.52346
20
9.91759
30
6.96
0
VERTEX
10
8.50912
20
9.9149
30
6.96
0
VERTEX
10
8.50643
20
9.91132
30
6.96
0
VERTEX
10
8.49926
20
9.90683
30
6.96
0
VERTEX
10
8.49208
20
9.90414
30
6.96
0
VERTEX
10
8.4894
20
9.90235
30
6.96
0
VERTEX
10
8.48581
20
9.90235
30
6.96
0
VERTEX
10
8.47864
20
9.89877
30
6.96
0
VERTEX
10
8.47146
20
9.89787
30
6.96
0
VERTEX
10
8.46519
20
9.89339
30
6.96
0
VERTEX
10
8.4634
20
9.8898
30
6.96
0
VERTEX
10
8.4616
20
9.8889
30
6.96
0
VERTEX
10
8.46071
20
9.87456
30
6.96
0
VERTEX
10
8.45891
20
9.87097
30
6.96
0
VERTEX
10
8.45891
20
9.86739
30
6.96
0
VERTEX
10
8.45443
20
9.86021
30
6.96
0
VERTEX
10
8.45443
20
9.85304
30
6.96
0
VERTEX
10
8.45443
20
9.85035
30
6.96
0
SEQEND
0
POLYLINE
62
227
66
1
70
1
3
endoplasmic_reticulum
0
VERTEX
10
8.96815
20
9.97766
30
6.96
0
VERTEX
10
8.97174
20
9.96332
30
6.96
0
VERTEX
10
8.97263
20
9.95973
30
6.96
0
VERTEX
10
8.97622
20
9.95794
30
6.96
0
VERTEX
10
8.97891
20
9.95435
30
6.96
0
VERTEX
10
8.99236
20
9.94987
30
6.96
0
VERTEX
10
8.99594
20
9.94718
30
6.96
0
VERTEX
10
9.00312
20
9.94718
30
6.96
0
VERTEX
10
9.0067
20
9.94718
30
6.96
0
VERTEX
10
9.00939
20
9.94987
30
6.96
0
VERTEX
10
9.01029
20
9.95345
30
6.96
0
VERTEX
10
9.01208
20
9.95345
30
6.96
0
VERTEX
10
9.01656
20
9.95794
30
6.96
0
VERTEX
10
9.01656
20
9.95973
30
6.96
0
VERTEX
10
9.01836
20
9.96063
30
6.96
0
VERTEX
10
9.01836
20
9.96242
30
6.96
0
VERTEX
10
9.02284
20
9.96959
30
6.96
0
VERTEX
10
9.02194
20
9.98394
30
6.96
0
VERTEX
10
9.02194
20
9.98573
30
6.96
0
VERTEX
10
9.01567
20
9.99201
30
6.96
0
VERTEX
10
9.01298
20
9.99828
30
6.96
0
VERTEX
10
9.01298
20
10.0019
30
6.96
0
VERTEX
10
9.00939
20
10.0055
30
6.96
0
VERTEX
10
8.99505
20
10.0055
30
6.96
0
VERTEX
10
8.98787
20
10.0046
30
6.96
0
VERTEX
10
8.98608
20
10.0028
30
6.96
0
VERTEX
10
8.9825
20
10.0019
30
6.96
0
VERTEX
10
8.96994
20
9.98932
30
6.96
0
VERTEX
10
8.96815
20
9.98752
30
6.96
0
VERTEX
10
8.96815
20
9.98035
30
6.96
0
VERTEX
10
8.96815
20
9.97856
30
6.96
0
SEQEND
0
POLYLINE
62
227
66
1
70
1
3
endoplasmic_reticulum
0
VERTEX
10
8.88208
20
9.89518
30
6.96
0
VERTEX
10
8.88657
20
9.88801
30
6.96
0
VERTEX
10
8.88657
20
9.88621
30
6.96
0
VERTEX
10
8.89374
20
9.88442
30
6.96
0
VERTEX
10
8.90808
20
9.88442
30
6.96
0
VERTEX
10
8.91167
20
9.88352
30
6.96
0
VERTEX
10
8.91346
20
9.88263
30
6.96
0
VERTEX
10
8.92781
20
9.88532
30
6.96
0
VERTEX
10
8.93498
20
9.88532
30
6.96
0
VERTEX
10
8.94215
20
9.88711
30
6.96
0
VERTEX
10
8.94394
20
9.88711
30
6.96
0
VERTEX
10
8.94574
20
9.8889
30
6.96
0
VERTEX
10
8.95291
20
9.8907
30
6.96
0
VERTEX
10
8.9565
20
9.89159
30
6.96
0
VERTEX
10
8.95829
20
9.89339
30
6.96
0
VERTEX
10
8.96187
20
9.89339
30
6.96
0
VERTEX
10
8.96725
20
9.90056
30
6.96
0
VERTEX
10
8.96815
20
9.90414
30
6.96
0
VERTEX
10
8.96546
20
9.91849
30
6.96
0
VERTEX
10
8.96367
20
9.92566
30
6.96
0
VERTEX
10
8.95739
20
9.93104
30
6.96
0
VERTEX
10
8.9287
20
9.93104
30
6.96
0
VERTEX
10
8.91436
20
9.93014
30
6.96
0
VERTEX
10
8.90719
20
9.92835
30
6.96
0
VERTEX
10
8.9036
20
9.92746
30
6.96
0
VERTEX
10
8.89643
20
9.92297
30
6.96
0
VERTEX
10
8.89194
20
9.91759
30
6.96
0
VERTEX
10
8.88388
20
9.90325
30
6.96
0
VERTEX
10
8.88208
20
9.89608
30
6.96
0
SEQEND
0
POLYLINE
62
227
66
1
70
1
3
endoplasmic_reticulum
0
VERTEX
10
8.67229
20
9.98214
30
6.96
0
VERTEX
10
8.67319
20
9.97856
30
6.96
0
VERTEX
10
8.67857
20
9.97228
30
6.96
0
VERTEX
10
8.68215
20
9.97139
30
6.96
0
VERTEX
10
8.68395
20
9.96959
30
6.96
0
VERTEX
10
8.69829
20
9.9687
30
6.96
0
VERTEX
10
8.70188
20
9.9687
30
6.96
0
VERTEX
10
8.70457
20
9.96601
30
6.96
0
VERTEX
10
8.71174
20
9.96421
30
6.96
0
VERTEX
10
8.71532
20
9.96152
30
6.96
0
VERTEX
10
8.72967
20
9.95614
30
6.96
0
VERTEX
10
8.73326
20
9.95614
30
6.96
0
VERTEX
10
8.73684
20
9.95345
30
6.96
0
VERTEX
10
8.74043
20
9.95345
30
6.96
0
VERTEX
10
8.74401
20
9.95077
30
6.96
0
VERTEX
10
8.74581
20
9.95077
30
6.96
0
VERTEX
10
8.75298
20
9.94628
30
6.96
0
VERTEX
10
8.76015
20
9.94539
30
6.96
0
VERTEX
10
8.76732
20
9.9427
30
6.96
0
VERTEX
10
8.77091
20
9.9427
30
6.96
0
VERTEX
10
8.77808
20
9.94001
30
6.96
0
VERTEX
10
8.79243
20
9.9418
30
6.96
0
VERTEX
10
8.80677
20
9.94987
30
6.96
0
VERTEX
10
8.81036
20
9.95166
30
6.96
0
VERTEX
10
8.81663
20
9.95794
30
6.96
0
VERTEX
10
8.81843
20
9.95973
30
6.96
0
VERTEX
10
8.82022
20
9.9669
30
6.96
0
VERTEX
10
8.82022
20
9.98125
30
6.96
0
VERTEX
10
8.81663
20
9.98842
30
6.96
0
VERTEX
10
8.81394
20
9.99201
30
6.96
0
VERTEX
10
8.81305
20
9.99559
30
6.96
0
VERTEX
10
8.80857
20
10.0028
30
6.96
0
VERTEX
10
8.80229
20
10.0081
30
6.96
0
VERTEX
10
8.78794
20
10.0144
30
6.96
0
VERTEX
10
8.78077
20
10.018
30
6.96
0
VERTEX
10
8.7736
20
10.0198
30
6.96
0
VERTEX
10
8.76015
20
10.0279
30
6.96
0
VERTEX
10
8.75836
20
10.0279
30
6.96
0
VERTEX
10
8.75477
20
10.0306
30
6.96
0
VERTEX
10
8.75298
20
10.0324
30
6.96
0
VERTEX
10
8.74939
20
10.0324
30
6.96
0
VERTEX
10
8.7476
20
10.0324
30
6.96
0
VERTEX
10
8.74132
20
10.027
30
6.96
0
VERTEX
10
8.73774
20
10.0252
30
6.96
0
VERTEX
10
8.73595
20
10.0234
30
6.96
0
VERTEX
10
8.73415
20
10.0234
30
6.96
0
VERTEX
10
8.73236
20
10.0216
30
6.96
0
VERTEX
10
8.73057
20
10.0216
30
6.96
0
VERTEX
10
8.72967
20
10.0198
30
6.96
0
VERTEX
10
8.72608
20
10.0198
30
6.96
0
VERTEX
10
8.7225
20
10.018
30
6.96
0
VERTEX
10
8.70815
20
10.0153
30
6.96
0
VERTEX
10
8.70098
20
10.0144
30
6.96
0
VERTEX
10
8.69381
20
10.0117
30
6.96
0
VERTEX
10
8.69022
20
10.0099
30
6.96
0
VERTEX
10
8.68843
20
10.0081
30
6.96
0
VERTEX
10
8.68664
20
10.0081
30
6.96
0
VERTEX
10
8.68305
20
10.0055
30
6.96
0
VERTEX
10
8.68215
20
10.0037
30
6.96
0
VERTEX
10
8.68036
20
10.0037
30
6.96
0
VERTEX
10
8.67498
20
9.99739
30
6.96
0
VERTEX
10
8.67229
20
9.99021
30
6.96
0
VERTEX
10
8.67229
20
9.98304
30
6.96
0
SEQEND
0
POLYLINE
62
227
66
1
70
1
3
endoplasmic_reticulum
0
VERTEX
10
8.39615
20
9.85035
30
6.96
0
VERTEX
10
8.39884
20
9.84318
30
6.96
0
VERTEX
10
8.40512
20
9.8378
30
6.96
0
VERTEX
10
8.40871
20
9.83601
30
6.96
0
VERTEX
10
8.41588
20
9.83601
30
6.96
0
VERTEX
10
8.42305
20
9.8378
30
6.96
0
VERTEX
10
8.42664
20
9.8387
30
6.96
0
VERTEX
10
8.43291
20
9.84408
30
6.96
0
VERTEX
10
8.43471
20
9.85125
30
6.96
0
VERTEX
10
8.43471
20
9.86559
30
6.96
0
VERTEX
10
8.43202
20
9.87277
30
6.96
0
VERTEX
10
8.43022
20
9.87456
30
6.96
0
VERTEX
10
8.43022
20
9.87635
30
6.96
0
VERTEX
10
8.42753
20
9.87904
30
6.96
0
VERTEX
10
8.42036
20
9.88083
30
6.96
0
VERTEX
10
8.41677
20
9.88263
30
6.96
0
VERTEX
10
8.40243
20
9.88263
30
6.96
0
VERTEX
10
8.40064
20
9.88263
30
6.96
0
VERTEX
10
8.39795
20
9.87546
30
6.96
0
VERTEX
10
8.39705
20
9.86111
30
6.96
0
VERTEX
10
8.39615
20
9.85394
30
6.96
0
VERTEX
10
8.39615
20
9.85125
30
6.96
0
SEQEND
0
POLYLINE
62
31
66
1
70
1
3
contour
0
VERTEX
10
7.37828
20
9.85546
30
6.96
0
VERTEX
10
7.38124
20
9.83179
30
6.96
0
VERTEX
10
7.38124
20
9.73714
30
6.96
0
VERTEX
10
7.38124
20
9.71348
30
6.96
0
VERTEX
10
7.38124
20
9.70756
30
6.96
0
VERTEX
10
7.39899
20
9.68834
30
6.96
0
VERTEX
10
7.40934
20
9.67799
30
6.96
0
VERTEX
10
7.433
20
9.67799
30
6.96
0
VERTEX
10
7.44483
20
9.67799
30
6.96
0
VERTEX
10
7.44779
20
9.67799
30
6.96
0
VERTEX
10
7.45075
20
9.67503
30
6.96
0
VERTEX
10
7.47441
20
9.67503
30
6.96
0
VERTEX
10
7.48624
20
9.67651
30
6.96
0
VERTEX
10
7.49216
20
9.67651
30
6.96
0
VERTEX
10
7.49512
20
9.67651
30
6.96
0
VERTEX
10
7.49807
20
9.67947
30
6.96
0
VERTEX
10
7.50103
20
9.67947
30
6.96
0
VERTEX
10
7.50547
20
9.6839
30
6.96
0
VERTEX
10
7.50547
20
9.68686
30
6.96
0
VERTEX
10
7.52321
20
9.70609
30
6.96
0
VERTEX
10
7.52469
20
9.712
30
6.96
0
VERTEX
10
7.53209
20
9.72383
30
6.96
0
VERTEX
10
7.53209
20
9.72975
30
6.96
0
VERTEX
10
7.53653
20
9.74158
30
6.96
0
VERTEX
10
7.53948
20
9.74454
30
6.96
0
VERTEX
10
7.54392
20
9.7682
30
6.96
0
VERTEX
10
7.54244
20
9.81553
30
6.96
0
VERTEX
10
7.54096
20
9.82736
30
6.96
0
VERTEX
10
7.54096
20
9.83327
30
6.96
0
VERTEX
10
7.538
20
9.83919
30
6.96
0
VERTEX
10
7.53653
20
9.86285
30
6.96
0
VERTEX
10
7.53209
20
9.88651
30
6.96
0
VERTEX
10
7.52174
20
9.9087
30
6.96
0
VERTEX
10
7.5099
20
9.91609
30
6.96
0
VERTEX
10
7.50547
20
9.92201
30
6.96
0
VERTEX
10
7.49512
20
9.9294
30
6.96
0
VERTEX
10
7.49364
20
9.93236
30
6.96
0
VERTEX
10
7.44631
20
9.9368
30
6.96
0
VERTEX
10
7.43448
20
9.93827
30
6.96
0
VERTEX
10
7.42856
20
9.93827
30
6.96
0
VERTEX
10
7.42561
20
9.93827
30
6.96
0
VERTEX
10
7.41969
20
9.93384
30
6.96
0
VERTEX
10
7.41378
20
9.93236
30
6.96
0
VERTEX
10
7.41082
20
9.9294
30
6.96
0
VERTEX
10
7.41082
20
9.92644
30
6.96
0
VERTEX
10
7.39899
20
9.91905
30
6.96
0
VERTEX
10
7.38272
20
9.89687
30
6.96
0
VERTEX
10
7.37828
20
9.8732
30
6.96
0
VERTEX
10
7.37828
20
9.86137
30
6.96
0
VERTEX
10
7.37828
20
9.85693
30
6.96
0
SEQEND
0
POLYLINE
62
31
66
1
70
1
3
contour
0
VERTEX
10
8.34193
20
9.77164
30
6.96
0
VERTEX
10
8.34628
20
9.74844
30
6.96
0
VERTEX
10
8.35063
20
9.73684
30
6.96
0
VERTEX
10
8.35208
20
9.72524
30
6.96
0
VERTEX
10
8.35643
20
9.71944
30
6.96
0
VERTEX
10
8.35643
20
9.71364
30
6.96
0
VERTEX
10
8.36078
20
9.70784
30
6.96
0
VERTEX
10
8.36513
20
9.69624
30
6.96
0
VERTEX
10
8.36513
20
9.69334
30
6.96
0
VERTEX
10
8.36948
20
9.68899
30
6.96
0
VERTEX
10
8.37093
20
9.68319
30
6.96
0
VERTEX
10
8.37528
20
9.67739
30
6.96
0
VERTEX
10
8.37673
20
9.67159
30
6.96
0
VERTEX
10
8.38108
20
9.66724
30
6.96
0
VERTEX
10
8.38253
20
9.66144
30
6.96
0
VERTEX
10
8.38688
20
9.65564
30
6.96
0
VERTEX
10
8.38833
20
9.64984
30
6.96
0
VERTEX
10
8.39268
20
9.64404
30
6.96
0
VERTEX
10
8.39703
20
9.63244
30
6.96
0
VERTEX
10
8.40138
20
9.62664
30
6.96
0
VERTEX
10
8.40138
20
9.62374
30
6.96
0
VERTEX
10
8.41443
20
9.60054
30
6.96
0
VERTEX
10
8.41878
20
9.58894
30
6.96
0
VERTEX
10
8.41878
20
9.58314
30
6.96
0
VERTEX
10
8.42168
20
9.57734
30
6.96
0
VERTEX
10
8.42458
20
9.57444
30
6.96
0
VERTEX
10
8.42458
20
9.56284
30
6.96
0
VERTEX
10
8.43183
20
9.53964
30
6.96
0
VERTEX
10
8.43763
20
9.52949
30
6.96
0
VERTEX
10
8.43908
20
9.51789
30
6.96
0
VERTEX
10
8.44198
20
9.51209
30
6.96
0
VERTEX
10
8.44053
20
9.48889
30
6.96
0
VERTEX
10
8.44053
20
9.47729
30
6.96
0
VERTEX
10
8.44343
20
9.46569
30
6.96
0
VERTEX
10
8.44633
20
9.45989
30
6.96
0
VERTEX
10
8.44633
20
9.44829
30
6.96
0
VERTEX
10
8.45503
20
9.40189
30
6.96
0
VERTEX
10
8.45938
20
9.39609
30
6.96
0
VERTEX
10
8.46083
20
9.39029
30
6.96
0
VERTEX
10
8.47098
20
9.38159
30
6.96
0
VERTEX
10
8.48258
20
9.38014
30
6.96
0
VERTEX
10
8.48838
20
9.38014
30
6.96
0
VERTEX
10
8.49418
20
9.38304
30
6.96
0
VERTEX
10
8.54058
20
9.38594
30
6.96
0
VERTEX
10
8.54638
20
9.38594
30
6.96
0
VERTEX
10
8.55798
20
9.39174
30
6.96
0
VERTEX
10
8.56378
20
9.39464
30
6.96
0
VERTEX
10
8.58698
20
9.39609
30
6.96
0
VERTEX
10
8.59858
20
9.39754
30
6.96
0
VERTEX
10
8.60438
20
9.40189
30
6.96
0
VERTEX
10
8.62758
20
9.40769
30
6.96
0
VERTEX
10
8.63918
20
9.40769
30
6.96
0
VERTEX
10
8.66238
20
9.41204
30
6.96
0
VERTEX
10
8.66818
20
9.41494
30
6.96
0
VERTEX
10
8.67108
20
9.41494
30
6.96
0
VERTEX
10
8.69283
20
9.42799
30
6.96
0
VERTEX
10
8.70298
20
9.43669
30
6.96
0
VERTEX
10
8.70878
20
9.43814
30
6.96
0
VERTEX
10
8.72038
20
9.44539
30
6.96
0
VERTEX
10
8.72618
20
9.44974
30
6.96
0
VERTEX
10
8.73778
20
9.45264
30
6.96
0
VERTEX
10
8.74938
20
9.45844
30
6.96
0
VERTEX
10
8.75228
20
9.46134
30
6.96
0
VERTEX
10
8.77548
20
9.46569
30
6.96
0
VERTEX
10
8.78708
20
9.46424
30
6.96
0
VERTEX
10
8.81028
20
9.46859
30
6.96
0
VERTEX
10
8.81608
20
9.46859
30
6.96
0
VERTEX
10
8.82768
20
9.47729
30
6.96
0
VERTEX
10
8.83348
20
9.47729
30
6.96
0
VERTEX
10
8.83928
20
9.48019
30
6.96
0
VERTEX
10
8.84073
20
9.48309
30
6.96
0
VERTEX
10
8.84653
20
9.48454
30
6.96
0
VERTEX
10
8.84943
20
9.48744
30
6.96
0
VERTEX
10
8.86103
20
9.49034
30
6.96
0
VERTEX
10
8.86393
20
9.49034
30
6.96
0
VERTEX
10
8.86538
20
9.49324
30
6.96
0
VERTEX
10
8.87118
20
9.49469
30
6.96
0
VERTEX
10
8.88278
20
9.50194
30
6.96
0
VERTEX
10
8.88568
20
9.50194
30
6.96
0
VERTEX
10
8.88858
20
9.50484
30
6.96
0
VERTEX
10
8.88858
20
9.51064
30
6.96
0
VERTEX
10
8.89438
20
9.51209
30
6.96
0
VERTEX
10
8.89584
20
9.51499
30
6.96
0
VERTEX
10
8.89874
20
9.51499
30
6.96
0
VERTEX
10
8.90454
20
9.51934
30
6.96
0
VERTEX
10
8.91034
20
9.52079
30
6.96
0
VERTEX
10
8.91324
20
9.52369
30
6.96
0
VERTEX
10
8.91614
20
9.52369
30
6.96
0
VERTEX
10
8.92629
20
9.53384
30
6.96
0
VERTEX
10
8.93354
20
9.54544
30
6.96
0
VERTEX
10
8.94224
20
9.56864
30
6.96
0
VERTEX
10
8.94224
20
9.58024
30
6.96
0
VERTEX
10
8.94804
20
9.60344
30
6.96
0
VERTEX
10
8.94949
20
9.61504
30
6.96
0
VERTEX
10
8.95384
20
9.62664
30
6.96
0
VERTEX
10
8.95384
20
9.62954
30
6.96
0
VERTEX
10
8.95819
20
9.63534
30
6.96
0
VERTEX
10
8.96109
20
9.64694
30
6.96
0
VERTEX
10
8.96399
20
9.64984
30
6.96
0
VERTEX
10
8.97269
20
9.67304
30
6.96
0
VERTEX
10
8.97269
20
9.67884
30
6.96
0
VERTEX
10
8.97994
20
9.69044
30
6.96
0
VERTEX
10
8.98284
20
9.70204
30
6.96
0
VERTEX
10
8.98429
20
9.70784
30
6.96
0
VERTEX
10
8.98719
20
9.71074
30
6.96
0
VERTEX
10
8.98719
20
9.71654
30
6.96
0
VERTEX
10
8.99009
20
9.71944
30
6.96
0
VERTEX
10
8.99299
20
9.71944
30
6.96
0
VERTEX
10
8.99734
20
9.74264
30
6.96
0
VERTEX
10
8.99879
20
9.74844
30
6.96
0
VERTEX
10
8.99589
20
9.76004
30
6.96
0
VERTEX
10
8.99299
20
9.80644
30
6.96
0
VERTEX
10
8.99299
20
9.81224
30
6.96
0
VERTEX
10
8.99299
20
9.81514
30
6.96
0
VERTEX
10
8.99009
20
9.81804
30
6.96
0
VERTEX
10
8.99009
20
9.86444
30
6.96
0
VERTEX
10
8.99154
20
9.87604
30
6.96
0
VERTEX
10
8.99009
20
9.89924
30
6.96
0
VERTEX
10
9.00314
20
9.92244
30
6.96
0
VERTEX
10
9.01329
20
9.93259
30
6.96
0
VERTEX
10
9.01909
20
9.93549
30
6.96
0
VERTEX
10
9.02489
20
9.93549
30
6.96
0
VERTEX
10
9.03649
20
9.93984
30
6.96
0
VERTEX
10
9.08289
20
9.93549
30
6.96
0
VERTEX
10
9.12929
20
9.93404
30
6.96
0
VERTEX
10
9.15249
20
9.93404
30
6.96
0
VERTEX
10
9.16409
20
9.93549
30
6.96
0
VERTEX
10
9.18584
20
9.95435
30
6.96
0
VERTEX
10
9.18874
20
9.96015
30
6.96
0
VERTEX
10
9.20179
20
9.96885
30
6.96
0
VERTEX
10
9.20469
20
9.98045
30
6.96
0
VERTEX
10
9.20904
20
9.98625
30
6.96
0
VERTEX
10
9.21629
20
10.0094
30
6.96
0
VERTEX
10
9.21774
20
10.0152
30
6.96
0
VERTEX
10
9.21629
20
10.0268
30
6.96
0
VERTEX
10
9.22209
20
10.0384
30
6.96
0
VERTEX
10
9.22644
20
10.0428
30
6.96
0
VERTEX
10
9.22934
20
10.0428
30
6.96
0
VERTEX
10
9.23659
20
10.0529
30
6.96
0
VERTEX
10
9.23659
20
10.0558
30
6.96
0
VERTEX
10
9.24674
20
10.066
30
6.96
0
VERTEX
10
9.25254
20
10.0776
30
6.96
0
VERTEX
10
9.25254
20
10.0892
30
6.96
0
VERTEX
10
9.24964
20
10.1008
30
6.96
0
VERTEX
10
9.24964
20
10.1066
30
6.96
0
VERTEX
10
9.24674
20
10.1124
30
6.96
0
VERTEX
10
9.24529
20
10.1356
30
6.96
0
VERTEX
10
9.24094
20
10.1588
30
6.96
0
VERTEX
10
9.23804
20
10.1704
30
6.96
0
VERTEX
10
9.23804
20
10.1733
30
6.96
0
VERTEX
10
9.23514
20
10.1762
30
6.96
0
VERTEX
10
9.23224
20
10.1994
30
6.96
0
VERTEX
10
9.22934
20
10.2023
30
6.96
0
VERTEX
10
9.22789
20
10.2255
30
6.96
0
VERTEX
10
9.22644
20
10.2371
30
6.96
0
VERTEX
10
9.22644
20
10.2429
30
6.96
0
VERTEX
10
9.22644
20
10.2458
30
6.96
0
VERTEX
10
9.22354
20
10.2487
30
6.96
0
VERTEX
10
9.21919
20
10.2719
30
6.96
0
VERTEX
10
9.21194
20
10.2951
30
6.96
0
VERTEX
10
9.20904
20
10.3009
30
6.96
0
VERTEX
10
9.20904
20
10.3038
30
6.96
0
VERTEX
10
9.18874
20
10.3241
30
6.96
0
VERTEX
10
9.17859
20
10.3342
30
6.96
0
VERTEX
10
9.17279
20
10.34
30
6.96
0
VERTEX
10
9.16989
20
10.3458
30
6.96
0
VERTEX
10
9.16409
20
10.3487
30
6.96
0
VERTEX
10
9.16119
20
10.3502
30
6.96
0
VERTEX
10
9.16119
20
10.356
30
6.96
0
VERTEX
10
9.15104
20
10.3647
30
6.96
0
VERTEX
10
9.14379
20
10.3763
30
6.96
0
VERTEX
10
9.13944
20
10.3821
30
6.96
0
VERTEX
10
9.13799
20
10.3937
30
6.96
0
VERTEX
10
9.13364
20
10.4053
30
6.96
0
VERTEX
10
9.13219
20
10.4169
30
6.96
0
VERTEX
10
9.13074
20
10.4227
30
6.96
0
VERTEX
10
9.12349
20
10.4343
30
6.96
0
VERTEX
10
9.11189
20
10.4444
30
6.96
0
VERTEX
10
9.10609
20
10.4459
30
6.96
0
VERTEX
10
9.09594
20
10.4546
30
6.96
0
VERTEX
10
9.09159
20
10.4604
30
6.96
0
VERTEX
10
9.08724
20
10.4633
30
6.96
0
VERTEX
10
9.08289
20
10.4749
30
6.96
0
VERTEX
10
9.05969
20
10.4691
30
6.96
0
VERTEX
10
9.05389
20
10.4691
30
6.96
0
VERTEX
10
9.04229
20
10.4648
30
6.96
0
VERTEX
10
9.03649
20
10.4618
30
6.96
0
VERTEX
10
9.03069
20
10.456
30
6.96
0
VERTEX
10
9.01909
20
10.4488
30
6.96
0
VERTEX
10
9.01039
20
10.4415
30
6.96
0
VERTEX
10
8.99879
20
10.4314
30
6.96
0
VERTEX
10
8.97994
20
10.4125
30
6.96
0
VERTEX
10
8.97704
20
10.4096
30
6.96
0
VERTEX
10
8.97414
20
10.4096
30
6.96
0
VERTEX
10
8.95094
20
10.3966
30
6.96
0
VERTEX
10
8.94514
20
10.3951
30
6.96
0
VERTEX
10
8.94224
20
10.3922
30
6.96
0
VERTEX
10
8.93644
20
10.3908
30
6.96
0
VERTEX
10
8.93064
20
10.3864
30
6.96
0
VERTEX
10
8.90744
20
10.385
30
6.96
0
VERTEX
10
8.89584
20
10.3835
30
6.96
0
VERTEX
10
8.88423
20
10.3792
30
6.96
0
VERTEX
10
8.87843
20
10.3777
30
6.96
0
VERTEX
10
8.85813
20
10.3589
30
6.96
0
VERTEX
10
8.85523
20
10.3531
30
6.96
0
VERTEX
10
8.85523
20
10.3502
30
6.96
0
VERTEX
10
8.84943
20
10.3458
30
6.96
0
VERTEX
10
8.84653
20
10.34
30
6.96
0
VERTEX
10
8.84363
20
10.3371
30
6.96
0
VERTEX
10
8.84073
20
10.3371
30
6.96
0
VERTEX
10
8.83058
20
10.327
30
6.96
0
VERTEX
10
8.81898
20
10.3197
30
6.96
0
VERTEX
10
8.80883
20
10.3096
30
6.96
0
VERTEX
10
8.80303
20
10.3067
30
6.96
0
VERTEX
10
8.79433
20
10.2965
30
6.96
0
VERTEX
10
8.77258
20
10.2791
30
6.96
0
VERTEX
10
8.77403
20
10.2762
30
6.96
0
VERTEX
10
8.76968
20
10.2719
30
6.96
0
VERTEX
10
8.76823
20
10.2603
30
6.96
0
VERTEX
10
8.76388
20
10.2487
30
6.96
0
VERTEX
10
8.76098
20
10.2255
30
6.96
0
VERTEX
10
8.75663
20
10.2139
30
6.96
0
VERTEX
10
8.75083
20
10.2095
30
6.96
0
VERTEX
10
8.75083
20
10.2066
30
6.96
0
VERTEX
10
8.74068
20
10.1979
30
6.96
0
VERTEX
10
8.73923
20
10.1921
30
6.96
0
VERTEX
10
8.73198
20
10.1805
30
6.96
0
VERTEX
10
8.72908
20
10.1805
30
6.96
0
VERTEX
10
8.71748
20
10.1689
30
6.96
0
VERTEX
10
8.71168
20
10.166
30
6.96
0
VERTEX
10
8.70878
20
10.1602
30
6.96
0
VERTEX
10
8.69718
20
10.1501
30
6.96
0
VERTEX
10
8.68268
20
10.1298
30
6.96
0
VERTEX
10
8.68123
20
10.124
30
6.96
0
VERTEX
10
8.67253
20
10.1124
30
6.96
0
VERTEX
10
8.67253
20
10.1095
30
6.96
0
VERTEX
10
8.66818
20
10.1051
30
6.96
0
VERTEX
10
8.66673
20
10.0935
30
6.96
0
VERTEX
10
8.65948
20
10.0877
30
6.96
0
VERTEX
10
8.65658
20
10.0877
30
6.96
0
VERTEX
10
8.65368
20
10.0819
30
6.96
0
VERTEX
10
8.64788
20
10.0776
30
6.96
0
VERTEX
10
8.63628
20
10.0732
30
6.96
0
VERTEX
10
8.63193
20
10.0674
30
6.96
0
VERTEX
10
8.62033
20
10.0616
30
6.96
0
VERTEX
10
8.61018
20
10.0529
30
6.96
0
VERTEX
10
8.60583
20
10.0486
30
6.96
0
VERTEX
10
8.60003
20
10.0486
30
6.96
0
VERTEX
10
8.58988
20
10.037
30
6.96
0
VERTEX
10
8.58553
20
10.0326
30
6.96
0
VERTEX
10
8.57538
20
10.0283
30
6.96
0
VERTEX
10
8.56958
20
10.0239
30
6.96
0
VERTEX
10
8.56668
20
10.0239
30
6.96
0
VERTEX
10
8.55798
20
10.0152
30
6.96
0
VERTEX
10
8.55218
20
10.0138
30
6.96
0
VERTEX
10
8.54783
20
10.0094
30
6.96
0
VERTEX
10
8.54493
20
10.0094
30
6.96
0
VERTEX
10
8.54203
20
10.0036
30
6.96
0
VERTEX
10
8.53188
20
9.9964
30
6.96
0
VERTEX
10
8.52463
20
9.98915
30
6.96
0
VERTEX
10
8.52173
20
9.98915
30
6.96
0
VERTEX
10
8.49853
20
9.9761
30
6.96
0
VERTEX
10
8.49273
20
9.9761
30
6.96
0
VERTEX
10
8.48838
20
9.9732
30
6.96
0
VERTEX
10
8.47678
20
9.97175
30
6.96
0
VERTEX
10
8.47098
20
9.9732
30
6.96
0
VERTEX
10
8.44778
20
9.9703
30
6.96
0
VERTEX
10
8.44343
20
9.9674
30
6.96
0
VERTEX
10
8.43763
20
9.9674
30
6.96
0
VERTEX
10
8.42168
20
9.94565
30
6.96
0
VERTEX
10
8.41733
20
9.93404
30
6.96
0
VERTEX
10
8.41443
20
9.91084
30
6.96
0
VERTEX
10
8.41443
20
9.90794
30
6.96
0
VERTEX
10
8.41153
20
9.90504
30
6.96
0
VERTEX
10
8.41008
20
9.89924
30
6.96
0
VERTEX
10
8.39123
20
9.87894
30
6.96
0
VERTEX
10
8.37963
20
9.86879
30
6.96
0
VERTEX
10
8.36223
20
9.84994
30
6.96
0
VERTEX
10
8.35353
20
9.83834
30
6.96
0
VERTEX
10
8.35063
20
9.83254
30
6.96
0
VERTEX
10
8.35208
20
9.82094
30
6.96
0
VERTEX
10
8.34483
20
9.79774
30
6.96
0
VERTEX
10
8.34193
20
9.77454
30
6.96
0
VERTEX
10
8.34193
20
9.77309
30
6.96
0
SEQEND
0
ENDSEC
0
EOF
