0
SECTION
2
ENTITIES
0
POLYLINE
62
31
66
1
70
1
3
contour
0
VERTEX
10
8.64963
20
9.26779
30
4.8
0
VERTEX
10
8.67805
20
9.192
30
4.8
0
VERTEX
10
8.68515
20
9.18253
30
4.8
0
VERTEX
10
8.69226
20
9.16358
30
4.8
0
VERTEX
10
8.7041
20
9.14937
30
4.8
0
VERTEX
10
8.72068
20
9.13279
30
4.8
0
VERTEX
10
8.73963
20
9.12332
30
4.8
0
VERTEX
10
8.89121
20
9.12806
30
4.8
0
VERTEX
10
8.91016
20
9.12806
30
4.8
0
VERTEX
10
8.9291
20
9.13279
30
4.8
0
VERTEX
10
8.93147
20
9.1399
30
4.8
0
VERTEX
10
8.95042
20
9.147
30
4.8
0
VERTEX
10
8.95989
20
9.14937
30
4.8
0
VERTEX
10
8.967
20
9.15648
30
4.8
0
VERTEX
10
8.98595
20
9.16358
30
4.8
0
VERTEX
10
8.99542
20
9.16595
30
4.8
0
VERTEX
10
9.00253
20
9.17306
30
4.8
0
VERTEX
10
9.012
20
9.17542
30
4.8
0
VERTEX
10
9.01674
20
9.18016
30
4.8
0
VERTEX
10
9.02147
20
9.18016
30
4.8
0
VERTEX
10
9.02858
20
9.18727
30
4.8
0
VERTEX
10
9.03805
20
9.18964
30
4.8
0
VERTEX
10
9.057
20
9.20148
30
4.8
0
VERTEX
10
9.06411
20
9.21095
30
4.8
0
VERTEX
10
9.06411
20
9.22043
30
4.8
0
VERTEX
10
9.06884
20
9.22043
30
4.8
0
VERTEX
10
9.10437
20
9.25358
30
4.8
0
VERTEX
10
9.11148
20
9.29148
30
4.8
0
VERTEX
10
9.11148
20
9.31043
30
4.8
0
VERTEX
10
9.10674
20
9.3199
30
4.8
0
VERTEX
10
9.10674
20
9.32464
30
4.8
0
VERTEX
10
9.102
20
9.32937
30
4.8
0
VERTEX
10
9.102
20
9.33411
30
4.8
0
VERTEX
10
9.09016
20
9.35306
30
4.8
0
VERTEX
10
9.07358
20
9.36727
30
4.8
0
VERTEX
10
9.06648
20
9.37674
30
4.8
0
VERTEX
10
9.03095
20
9.39806
30
4.8
0
VERTEX
10
9.01437
20
9.4099
30
4.8
0
VERTEX
10
9.0049
20
9.41701
30
4.8
0
VERTEX
10
8.99542
20
9.41938
30
4.8
0
VERTEX
10
8.97884
20
9.43122
30
4.8
0
VERTEX
10
8.96937
20
9.43832
30
4.8
0
VERTEX
10
8.95989
20
9.44069
30
4.8
0
VERTEX
10
8.94568
20
9.4549
30
4.8
0
VERTEX
10
8.93621
20
9.46201
30
4.8
0
VERTEX
10
8.92674
20
9.46438
30
4.8
0
VERTEX
10
8.91726
20
9.47148
30
4.8
0
VERTEX
10
8.89831
20
9.47859
30
4.8
0
VERTEX
10
8.89358
20
9.48333
30
4.8
0
VERTEX
10
8.87463
20
9.49043
30
4.8
0
VERTEX
10
8.8391
20
9.51175
30
4.8
0
VERTEX
10
8.80121
20
9.50938
30
4.8
0
VERTEX
10
8.76331
20
9.50227
30
4.8
0
VERTEX
10
8.74436
20
9.4999
30
4.8
0
VERTEX
10
8.70647
20
9.48096
30
4.8
0
VERTEX
10
8.68989
20
9.47148
30
4.8
0
VERTEX
10
8.68042
20
9.46911
30
4.8
0
VERTEX
10
8.67331
20
9.46201
30
4.8
0
VERTEX
10
8.67331
20
9.45727
30
4.8
0
VERTEX
10
8.66147
20
9.43832
30
4.8
0
VERTEX
10
8.66384
20
9.41938
30
4.8
0
VERTEX
10
8.6591
20
9.4099
30
4.8
0
VERTEX
10
8.65436
20
9.33411
30
4.8
0
VERTEX
10
8.64963
20
9.29622
30
4.8
0
VERTEX
10
8.64963
20
9.27727
30
4.8
0
VERTEX
10
8.64963
20
9.27016
30
4.8
0
SEQEND
0
POLYLINE
62
31
66
1
70
1
3
contour
0
VERTEX
10
9.83574
20
8.84728
30
4.8
0
VERTEX
10
9.84389
20
8.82555
30
4.8
0
VERTEX
10
9.84389
20
8.82012
30
4.8
0
VERTEX
10
9.84932
20
8.81469
30
4.8
0
VERTEX
10
9.85203
20
8.80383
30
4.8
0
VERTEX
10
9.88462
20
8.76853
30
4.8
0
VERTEX
10
9.92264
20
8.72508
30
4.8
0
VERTEX
10
9.94165
20
8.70335
30
4.8
0
VERTEX
10
9.95522
20
8.68978
30
4.8
0
VERTEX
10
9.96066
20
8.68978
30
4.8
0
VERTEX
10
9.97152
20
8.68163
30
4.8
0
VERTEX
10
10.0584
20
8.66805
30
4.8
0
VERTEX
10
10.1453
20
8.67077
30
4.8
0
VERTEX
10
10.167
20
8.67077
30
4.8
0
VERTEX
10
10.1779
20
8.67077
30
4.8
0
VERTEX
10
10.2213
20
8.68434
30
4.8
0
VERTEX
10
10.2322
20
8.68434
30
4.8
0
VERTEX
10
10.2376
20
8.68978
30
4.8
0
VERTEX
10
10.2811
20
8.69249
30
4.8
0
VERTEX
10
10.3028
20
8.69792
30
4.8
0
VERTEX
10
10.311
20
8.70064
30
4.8
0
VERTEX
10
10.3218
20
8.70878
30
4.8
0
VERTEX
10
10.3435
20
8.70607
30
4.8
0
VERTEX
10
10.3544
20
8.70878
30
4.8
0
VERTEX
10
10.3653
20
8.71693
30
4.8
0
VERTEX
10
10.3707
20
8.71693
30
4.8
0
VERTEX
10
10.3761
20
8.72236
30
4.8
0
VERTEX
10
10.3761
20
8.72779
30
4.8
0
VERTEX
10
10.3816
20
8.72779
30
4.8
0
VERTEX
10
10.3897
20
8.73866
30
4.8
0
VERTEX
10
10.4006
20
8.74137
30
4.8
0
VERTEX
10
10.406
20
8.74952
30
4.8
0
VERTEX
10
10.4495
20
8.77667
30
4.8
0
VERTEX
10
10.4657
20
8.79297
30
4.8
0
VERTEX
10
10.4739
20
8.7984
30
4.8
0
VERTEX
10
10.4848
20
8.80926
30
4.8
0
VERTEX
10
10.5065
20
8.82284
30
4.8
0
VERTEX
10
10.5201
20
8.84456
30
4.8
0
VERTEX
10
10.5282
20
8.85542
30
4.8
0
VERTEX
10
10.5309
20
8.86629
30
4.8
0
VERTEX
10
10.5445
20
8.88801
30
4.8
0
VERTEX
10
10.5499
20
8.89073
30
4.8
0
VERTEX
10
10.5499
20
8.93418
30
4.8
0
VERTEX
10
10.5472
20
8.94504
30
4.8
0
VERTEX
10
10.5418
20
8.95047
30
4.8
0
VERTEX
10
10.5336
20
8.97219
30
4.8
0
VERTEX
10
10.5364
20
8.99392
30
4.8
0
VERTEX
10
10.5282
20
9.00478
30
4.8
0
VERTEX
10
10.5173
20
9.01021
30
4.8
0
VERTEX
10
10.5092
20
9.02107
30
4.8
0
VERTEX
10
10.4983
20
9.0265
30
4.8
0
VERTEX
10
10.4929
20
9.03194
30
4.8
0
VERTEX
10
10.4495
20
9.04551
30
4.8
0
VERTEX
10
10.406
20
9.04823
30
4.8
0
VERTEX
10
10.3843
20
9.04823
30
4.8
0
VERTEX
10
10.3626
20
9.05366
30
4.8
0
VERTEX
10
10.3191
20
9.05094
30
4.8
0
VERTEX
10
10.2322
20
9.05638
30
4.8
0
VERTEX
10
10.1888
20
9.05909
30
4.8
0
VERTEX
10
10.148
20
9.08082
30
4.8
0
VERTEX
10
10.1046
20
9.09439
30
4.8
0
VERTEX
10
10.0991
20
9.09982
30
4.8
0
VERTEX
10
10.0557
20
9.09711
30
4.8
0
VERTEX
10
10.034
20
9.09982
30
4.8
0
VERTEX
10
10.0231
20
9.09982
30
4.8
0
VERTEX
10
10.0041
20
9.08353
30
4.8
0
VERTEX
10
9.98238
20
9.06181
30
4.8
0
VERTEX
10
9.96066
20
9.04551
30
4.8
0
VERTEX
10
9.93893
20
9.03465
30
4.8
0
VERTEX
10
9.92807
20
9.02922
30
4.8
0
VERTEX
10
9.92264
20
9.02379
30
4.8
0
VERTEX
10
9.90091
20
9.01564
30
4.8
0
VERTEX
10
9.89005
20
9.0075
30
4.8
0
VERTEX
10
9.88462
20
9.0075
30
4.8
0
VERTEX
10
9.87919
20
9.00206
30
4.8
0
VERTEX
10
9.8819
20
8.9912
30
4.8
0
VERTEX
10
9.8819
20
8.98577
30
4.8
0
VERTEX
10
9.87376
20
8.97762
30
4.8
0
VERTEX
10
9.86833
20
8.9559
30
4.8
0
VERTEX
10
9.8629
20
8.94504
30
4.8
0
VERTEX
10
9.8629
20
8.92331
30
4.8
0
VERTEX
10
9.85203
20
8.91517
30
4.8
0
VERTEX
10
9.8466
20
8.87172
30
4.8
0
VERTEX
10
9.84117
20
8.87172
30
4.8
0
VERTEX
10
9.83574
20
8.84999
30
4.8
0
SEQEND
0
POLYLINE
62
224
66
1
70
1
3
mitochondrion
0
VERTEX
10
9.20187
20
8.85565
30
4.8
0
VERTEX
10
9.20604
20
8.84452
30
4.8
0
VERTEX
10
9.20882
20
8.83896
30
4.8
0
VERTEX
10
9.21021
20
8.81672
30
4.8
0
VERTEX
10
9.21855
20
8.80698
30
4.8
0
VERTEX
10
9.22967
20
8.79864
30
4.8
0
VERTEX
10
9.25192
20
8.78891
30
4.8
0
VERTEX
10
9.26304
20
8.78752
30
4.8
0
VERTEX
10
9.27417
20
8.78196
30
4.8
0
VERTEX
10
9.29641
20
8.77917
30
4.8
0
VERTEX
10
9.30754
20
8.77639
30
4.8
0
VERTEX
10
9.32978
20
8.77639
30
4.8
0
VERTEX
10
9.35203
20
8.77917
30
4.8
0
VERTEX
10
9.36316
20
8.78335
30
4.8
0
VERTEX
10
9.36872
20
8.78613
30
4.8
0
VERTEX
10
9.37428
20
8.78613
30
4.8
0
VERTEX
10
9.3854
20
8.79169
30
4.8
0
VERTEX
10
9.40348
20
8.80698
30
4.8
0
VERTEX
10
9.41321
20
8.82784
30
4.8
0
VERTEX
10
9.41738
20
8.85009
30
4.8
0
VERTEX
10
9.42155
20
8.86121
30
4.8
0
VERTEX
10
9.42294
20
8.88346
30
4.8
0
VERTEX
10
9.42155
20
8.9057
30
4.8
0
VERTEX
10
9.4146
20
8.92795
30
4.8
0
VERTEX
10
9.4146
20
8.93351
30
4.8
0
VERTEX
10
9.4146
20
8.93629
30
4.8
0
VERTEX
10
9.39931
20
8.95854
30
4.8
0
VERTEX
10
9.39653
20
8.9641
30
4.8
0
VERTEX
10
9.3854
20
8.97244
30
4.8
0
VERTEX
10
9.38262
20
8.97523
30
4.8
0
VERTEX
10
9.37706
20
8.97523
30
4.8
0
VERTEX
10
9.37289
20
8.98079
30
4.8
0
VERTEX
10
9.36733
20
8.98218
30
4.8
0
VERTEX
10
9.34508
20
8.99469
30
4.8
0
VERTEX
10
9.33952
20
8.99608
30
4.8
0
VERTEX
10
9.29502
20
8.98913
30
4.8
0
VERTEX
10
9.28946
20
8.98774
30
4.8
0
VERTEX
10
9.28668
20
8.98496
30
4.8
0
VERTEX
10
9.28112
20
8.98357
30
4.8
0
VERTEX
10
9.27834
20
8.98357
30
4.8
0
VERTEX
10
9.26722
20
8.97662
30
4.8
0
VERTEX
10
9.26304
20
8.97244
30
4.8
0
VERTEX
10
9.25748
20
8.97105
30
4.8
0
VERTEX
10
9.2547
20
8.97105
30
4.8
0
VERTEX
10
9.25192
20
8.96827
30
4.8
0
VERTEX
10
9.2408
20
8.96688
30
4.8
0
VERTEX
10
9.23524
20
8.96271
30
4.8
0
VERTEX
10
9.23245
20
8.96271
30
4.8
0
VERTEX
10
9.22967
20
8.95993
30
4.8
0
VERTEX
10
9.22967
20
8.95715
30
4.8
0
VERTEX
10
9.2255
20
8.95159
30
4.8
0
VERTEX
10
9.2255
20
8.94881
30
4.8
0
VERTEX
10
9.21716
20
8.94046
30
4.8
0
VERTEX
10
9.2116
20
8.93073
30
4.8
0
VERTEX
10
9.21021
20
8.91961
30
4.8
0
VERTEX
10
9.20604
20
8.90848
30
4.8
0
VERTEX
10
9.20326
20
8.90709
30
4.8
0
VERTEX
10
9.20187
20
8.8626
30
4.8
0
VERTEX
10
9.20187
20
8.85704
30
4.8
0
SEQEND
0
POLYLINE
62
236
66
1
70
1
3
postsynaptic_density
0
VERTEX
10
8.8478
20
9.47858
30
4.8
0
VERTEX
10
8.85153
20
9.47112
30
4.8
0
VERTEX
10
8.8534
20
9.45619
30
4.8
0
VERTEX
10
8.86459
20
9.44126
30
4.8
0
VERTEX
10
8.87206
20
9.43566
30
4.8
0
VERTEX
10
8.88139
20
9.4226
30
4.8
0
VERTEX
10
8.89632
20
9.4114
30
4.8
0
VERTEX
10
8.90192
20
9.4058
30
4.8
0
VERTEX
10
8.90938
20
9.40394
30
4.8
0
VERTEX
10
8.91685
20
9.39834
30
4.8
0
VERTEX
10
8.92431
20
9.39647
30
4.8
0
VERTEX
10
8.93178
20
9.39087
30
4.8
0
VERTEX
10
8.93924
20
9.38901
30
4.8
0
VERTEX
10
8.95231
20
9.37781
30
4.8
0
VERTEX
10
8.98217
20
9.36848
30
4.8
0
VERTEX
10
8.9859
20
9.36474
30
4.8
0
VERTEX
10
9.04562
20
9.36288
30
4.8
0
VERTEX
10
9.05308
20
9.36288
30
4.8
0
VERTEX
10
9.06801
20
9.37221
30
4.8
0
VERTEX
10
9.07175
20
9.37967
30
4.8
0
VERTEX
10
9.06988
20
9.3946
30
4.8
0
VERTEX
10
9.05682
20
9.42446
30
4.8
0
VERTEX
10
9.04749
20
9.43753
30
4.8
0
VERTEX
10
9.04375
20
9.44499
30
4.8
0
VERTEX
10
9.03069
20
9.45619
30
4.8
0
VERTEX
10
9.00456
20
9.48418
30
4.8
0
VERTEX
10
8.9971
20
9.48792
30
4.8
0
VERTEX
10
8.98217
20
9.50285
30
4.8
0
VERTEX
10
8.96724
20
9.51031
30
4.8
0
VERTEX
10
8.90752
20
9.51964
30
4.8
0
VERTEX
10
8.87766
20
9.51964
30
4.8
0
VERTEX
10
8.86273
20
9.51404
30
4.8
0
VERTEX
10
8.85526
20
9.51031
30
4.8
0
VERTEX
10
8.84966
20
9.50285
30
4.8
0
VERTEX
10
8.8478
20
9.48792
30
4.8
0
VERTEX
10
8.8478
20
9.48045
30
4.8
0
SEQEND
0
POLYLINE
62
227
66
1
70
1
3
endoplasmic_reticulum
0
VERTEX
10
8.94899
20
8.70066
30
4.8
0
VERTEX
10
8.95204
20
8.69914
30
4.8
0
VERTEX
10
8.96422
20
8.70218
30
4.8
0
VERTEX
10
8.97032
20
8.70371
30
4.8
0
VERTEX
10
8.97641
20
8.70828
30
4.8
0
VERTEX
10
8.97946
20
8.70828
30
4.8
0
VERTEX
10
8.98251
20
8.71132
30
4.8
0
VERTEX
10
8.98403
20
8.71742
30
4.8
0
VERTEX
10
8.98403
20
8.72047
30
4.8
0
VERTEX
10
8.99469
20
8.72808
30
4.8
0
VERTEX
10
8.99926
20
8.73265
30
4.8
0
VERTEX
10
9.00231
20
8.73265
30
4.8
0
VERTEX
10
9.00383
20
8.74484
30
4.8
0
VERTEX
10
8.99926
20
8.75094
30
4.8
0
VERTEX
10
8.99622
20
8.75094
30
4.8
0
VERTEX
10
8.98555
20
8.7616
30
4.8
0
VERTEX
10
8.98098
20
8.76617
30
4.8
0
VERTEX
10
8.97489
20
8.76769
30
4.8
0
VERTEX
10
8.96879
20
8.77226
30
4.8
0
VERTEX
10
8.9627
20
8.76769
30
4.8
0
VERTEX
10
8.9627
20
8.7616
30
4.8
0
VERTEX
10
8.95965
20
8.75855
30
4.8
0
VERTEX
10
8.95661
20
8.73418
30
4.8
0
VERTEX
10
8.95204
20
8.72808
30
4.8
0
VERTEX
10
8.94899
20
8.70371
30
4.8
0
VERTEX
10
8.94899
20
8.70218
30
4.8
0
SEQEND
0
POLYLINE
62
227
66
1
70
1
3
endoplasmic_reticulum
0
VERTEX
10
9.88441
20
8.87281
30
4.8
0
VERTEX
10
9.89051
20
8.86063
30
4.8
0
VERTEX
10
9.89508
20
8.85453
30
4.8
0
VERTEX
10
9.90117
20
8.85149
30
4.8
0
VERTEX
10
9.90422
20
8.84844
30
4.8
0
VERTEX
10
9.90727
20
8.84844
30
4.8
0
VERTEX
10
9.91945
20
8.84082
30
4.8
0
VERTEX
10
9.93164
20
8.83625
30
4.8
0
VERTEX
10
9.95602
20
8.83625
30
4.8
0
VERTEX
10
9.98039
20
8.8332
30
4.8
0
VERTEX
10
10.0048
20
8.8332
30
4.8
0
VERTEX
10
10.0093
20
8.82863
30
4.8
0
VERTEX
10
10.0215
20
8.82863
30
4.8
0
VERTEX
10
10.0337
20
8.82406
30
4.8
0
VERTEX
10
10.0581
20
8.82559
30
4.8
0
VERTEX
10
10.0703
20
8.82863
30
4.8
0
VERTEX
10
10.0764
20
8.8332
30
4.8
0
VERTEX
10
10.0764
20
8.85758
30
4.8
0
VERTEX
10
10.0748
20
8.86977
30
4.8
0
VERTEX
10
10.0748
20
8.87281
30
4.8
0
VERTEX
10
10.0718
20
8.87586
30
4.8
0
VERTEX
10
10.0688
20
8.87586
30
4.8
0
VERTEX
10
10.0657
20
8.87891
30
4.8
0
VERTEX
10
9.9682
20
8.88043
30
4.8
0
VERTEX
10
9.95602
20
8.88348
30
4.8
0
VERTEX
10
9.94383
20
8.88348
30
4.8
0
VERTEX
10
9.91945
20
8.88957
30
4.8
0
VERTEX
10
9.90727
20
8.88957
30
4.8
0
VERTEX
10
9.90117
20
8.88957
30
4.8
0
VERTEX
10
9.88898
20
8.885
30
4.8
0
VERTEX
10
9.88441
20
8.88043
30
4.8
0
VERTEX
10
9.88441
20
8.87434
30
4.8
0
SEQEND
0
POLYLINE
62
227
66
1
70
1
3
endoplasmic_reticulum
0
VERTEX
10
8.85606
20
8.70828
30
4.8
0
VERTEX
10
8.86215
20
8.70371
30
4.8
0
VERTEX
10
8.86824
20
8.70218
30
4.8
0
VERTEX
10
8.87129
20
8.69914
30
4.8
0
VERTEX
10
8.87434
20
8.69914
30
4.8
0
VERTEX
10
8.87738
20
8.69609
30
4.8
0
VERTEX
10
8.88348
20
8.69609
30
4.8
0
VERTEX
10
8.88957
20
8.69914
30
4.8
0
VERTEX
10
8.8911
20
8.71132
30
4.8
0
VERTEX
10
8.88957
20
8.72351
30
4.8
0
VERTEX
10
8.88957
20
8.72961
30
4.8
0
VERTEX
10
8.88957
20
8.73265
30
4.8
0
VERTEX
10
8.88653
20
8.7357
30
4.8
0
VERTEX
10
8.87434
20
8.73875
30
4.8
0
VERTEX
10
8.86824
20
8.74027
30
4.8
0
VERTEX
10
8.86063
20
8.72961
30
4.8
0
VERTEX
10
8.8591
20
8.72351
30
4.8
0
VERTEX
10
8.85606
20
8.72047
30
4.8
0
VERTEX
10
8.85606
20
8.7098
30
4.8
0
SEQEND
0
POLYLINE
62
227
66
1
70
1
3
endoplasmic_reticulum
0
VERTEX
10
8.96575
20
8.82559
30
4.8
0
VERTEX
10
8.96879
20
8.82254
30
4.8
0
VERTEX
10
8.96879
20
8.81645
30
4.8
0
VERTEX
10
8.97184
20
8.81035
30
4.8
0
VERTEX
10
8.97489
20
8.8073
30
4.8
0
VERTEX
10
8.97641
20
8.80121
30
4.8
0
VERTEX
10
8.98098
20
8.79664
30
4.8
0
VERTEX
10
8.99317
20
8.79664
30
4.8
0
VERTEX
10
8.99926
20
8.79816
30
4.8
0
VERTEX
10
9.00536
20
8.80273
30
4.8
0
VERTEX
10
9.00688
20
8.80578
30
4.8
0
VERTEX
10
9.01298
20
8.8073
30
4.8
0
VERTEX
10
9.02364
20
8.81949
30
4.8
0
VERTEX
10
9.02669
20
8.82559
30
4.8
0
VERTEX
10
9.02669
20
8.82863
30
4.8
0
VERTEX
10
9.03735
20
8.83777
30
4.8
0
VERTEX
10
9.0404
20
8.84082
30
4.8
0
VERTEX
10
9.0404
20
8.8652
30
4.8
0
VERTEX
10
9.04345
20
8.87738
30
4.8
0
VERTEX
10
9.04345
20
8.88043
30
4.8
0
VERTEX
10
9.05563
20
8.885
30
4.8
0
VERTEX
10
9.06782
20
8.88653
30
4.8
0
VERTEX
10
9.08001
20
8.8911
30
4.8
0
VERTEX
10
9.0861
20
8.89262
30
4.8
0
VERTEX
10
9.0922
20
8.89719
30
4.8
0
VERTEX
10
9.10896
20
8.94594
30
4.8
0
VERTEX
10
9.10896
20
8.94899
30
4.8
0
VERTEX
10
9.1181
20
8.95965
30
4.8
0
VERTEX
10
9.12876
20
8.96118
30
4.8
0
VERTEX
10
9.14095
20
8.95204
30
4.8
0
VERTEX
10
9.16532
20
8.95051
30
4.8
0
VERTEX
10
9.17751
20
8.95508
30
4.8
0
VERTEX
10
9.18361
20
8.95661
30
4.8
0
VERTEX
10
9.18818
20
8.96879
30
4.8
0
VERTEX
10
9.18818
20
8.98098
30
4.8
0
VERTEX
10
9.18513
20
8.99317
30
4.8
0
VERTEX
10
9.18513
20
8.99622
30
4.8
0
VERTEX
10
9.17294
20
9.00079
30
4.8
0
VERTEX
10
9.14857
20
9.00231
30
4.8
0
VERTEX
10
9.13638
20
9.00231
30
4.8
0
VERTEX
10
9.12419
20
9.00688
30
4.8
0
VERTEX
10
9.112
20
9.0145
30
4.8
0
VERTEX
10
9.10591
20
9.01602
30
4.8
0
VERTEX
10
9.09677
20
9.02821
30
4.8
0
VERTEX
10
9.07239
20
9.02669
30
4.8
0
VERTEX
10
9.06173
20
9.01907
30
4.8
0
VERTEX
10
9.05868
20
9.01907
30
4.8
0
VERTEX
10
9.05563
20
9.01602
30
4.8
0
VERTEX
10
9.04345
20
9.0145
30
4.8
0
VERTEX
10
9.03126
20
9.00841
30
4.8
0
VERTEX
10
9.02516
20
9.00688
30
4.8
0
VERTEX
10
9.02212
20
9.00383
30
4.8
0
VERTEX
10
9.00993
20
9.00383
30
4.8
0
VERTEX
10
9.00536
20
9.00231
30
4.8
0
VERTEX
10
9.00993
20
8.99622
30
4.8
0
VERTEX
10
9.01298
20
8.99317
30
4.8
0
VERTEX
10
9.00993
20
8.99012
30
4.8
0
VERTEX
10
9.01145
20
8.94137
30
4.8
0
VERTEX
10
9.01145
20
8.92918
30
4.8
0
VERTEX
10
9.0145
20
8.92309
30
4.8
0
VERTEX
10
9.01145
20
8.89871
30
4.8
0
VERTEX
10
9.00231
20
8.88805
30
4.8
0
VERTEX
10
9.00079
20
8.88196
30
4.8
0
VERTEX
10
8.99317
20
8.87738
30
4.8
0
VERTEX
10
8.99165
20
8.87129
30
4.8
0
VERTEX
10
8.98708
20
8.8652
30
4.8
0
VERTEX
10
8.98708
20
8.86215
30
4.8
0
VERTEX
10
8.98251
20
8.85606
30
4.8
0
VERTEX
10
8.97794
20
8.84387
30
4.8
0
VERTEX
10
8.96879
20
8.83168
30
4.8
0
VERTEX
10
8.96575
20
8.83016
30
4.8
0
VERTEX
10
8.96575
20
8.82711
30
4.8
0
SEQEND
0
POLYLINE
62
31
66
1
70
1
3
contour
0
VERTEX
10
8.76527
20
8.66343
30
4.8
0
VERTEX
10
8.76822
20
8.65162
30
4.8
0
VERTEX
10
8.77412
20
8.64129
30
4.8
0
VERTEX
10
8.79331
20
8.61915
30
4.8
0
VERTEX
10
8.80364
20
8.61178
30
4.8
0
VERTEX
10
8.82725
20
8.61178
30
4.8
0
VERTEX
10
8.83906
20
8.61473
30
4.8
0
VERTEX
10
8.88629
20
8.6162
30
4.8
0
VERTEX
10
8.8981
20
8.61473
30
4.8
0
VERTEX
10
8.904
20
8.61473
30
4.8
0
VERTEX
10
8.90843
20
8.6103
30
4.8
0
VERTEX
10
8.91286
20
8.60882
30
4.8
0
VERTEX
10
8.92466
20
8.60144
30
4.8
0
VERTEX
10
8.92761
20
8.60144
30
4.8
0
VERTEX
10
8.94828
20
8.58521
30
4.8
0
VERTEX
10
8.96894
20
8.56602
30
4.8
0
VERTEX
10
8.97484
20
8.56455
30
4.8
0
VERTEX
10
8.98075
20
8.56012
30
4.8
0
VERTEX
10
8.99255
20
8.55717
30
4.8
0
VERTEX
10
9.03978
20
8.56307
30
4.8
0
VERTEX
10
9.04273
20
8.56307
30
4.8
0
VERTEX
10
9.04421
20
8.56602
30
4.8
0
VERTEX
10
9.09144
20
8.5734
30
4.8
0
VERTEX
10
9.10324
20
8.57783
30
4.8
0
VERTEX
10
9.12686
20
8.58078
30
4.8
0
VERTEX
10
9.13867
20
8.58521
30
4.8
0
VERTEX
10
9.14457
20
8.58669
30
4.8
0
VERTEX
10
9.15047
20
8.59111
30
4.8
0
VERTEX
10
9.15342
20
8.59259
30
4.8
0
VERTEX
10
9.1549
20
8.59702
30
4.8
0
VERTEX
10
9.1608
20
8.59997
30
4.8
0
VERTEX
10
9.16376
20
8.60292
30
4.8
0
VERTEX
10
9.17556
20
8.60735
30
4.8
0
VERTEX
10
9.17851
20
8.6103
30
4.8
0
VERTEX
10
9.18147
20
8.6103
30
4.8
0
VERTEX
10
9.1918
20
8.62063
30
4.8
0
VERTEX
10
9.20213
20
8.62801
30
4.8
0
VERTEX
10
9.20656
20
8.63244
30
4.8
0
VERTEX
10
9.20803
20
8.63539
30
4.8
0
VERTEX
10
9.21098
20
8.63539
30
4.8
0
VERTEX
10
9.22132
20
8.64277
30
4.8
0
VERTEX
10
9.24493
20
8.65162
30
4.8
0
VERTEX
10
9.25083
20
8.65458
30
4.8
0
VERTEX
10
9.25378
20
8.65458
30
4.8
0
VERTEX
10
9.25674
20
8.65753
30
4.8
0
VERTEX
10
9.28035
20
8.66491
30
4.8
0
VERTEX
10
9.29216
20
8.66638
30
4.8
0
VERTEX
10
9.29806
20
8.66638
30
4.8
0
VERTEX
10
9.30396
20
8.66933
30
4.8
0
VERTEX
10
9.32758
20
8.67229
30
4.8
0
VERTEX
10
9.35119
20
8.67229
30
4.8
0
VERTEX
10
9.363
20
8.67671
30
4.8
0
VERTEX
10
9.45746
20
8.68114
30
4.8
0
VERTEX
10
9.48107
20
8.68852
30
4.8
0
VERTEX
10
9.48697
20
8.68852
30
4.8
0
VERTEX
10
9.49288
20
8.69295
30
4.8
0
VERTEX
10
9.49583
20
8.6959
30
4.8
0
VERTEX
10
9.49583
20
8.69885
30
4.8
0
VERTEX
10
9.50764
20
8.70328
30
4.8
0
VERTEX
10
9.51059
20
8.70328
30
4.8
0
VERTEX
10
9.53273
20
8.71951
30
4.8
0
VERTEX
10
9.54453
20
8.72542
30
4.8
0
VERTEX
10
9.55486
20
8.73427
30
4.8
0
VERTEX
10
9.56667
20
8.74018
30
4.8
0
VERTEX
10
9.58291
20
8.75936
30
4.8
0
VERTEX
10
9.58586
20
8.77117
30
4.8
0
VERTEX
10
9.59176
20
8.78298
30
4.8
0
VERTEX
10
9.59471
20
8.80659
30
4.8
0
VERTEX
10
9.58733
20
8.83021
30
4.8
0
VERTEX
10
9.58438
20
8.83611
30
4.8
0
VERTEX
10
9.57848
20
8.83906
30
4.8
0
VERTEX
10
9.57848
20
8.84201
30
4.8
0
VERTEX
10
9.56815
20
8.85087
30
4.8
0
VERTEX
10
9.5652
20
8.85677
30
4.8
0
VERTEX
10
9.55929
20
8.86268
30
4.8
0
VERTEX
10
9.55634
20
8.87448
30
4.8
0
VERTEX
10
9.55782
20
8.8981
30
4.8
0
VERTEX
10
9.56077
20
8.9099
30
4.8
0
VERTEX
10
9.56667
20
8.92171
30
4.8
0
VERTEX
10
9.58881
20
8.9409
30
4.8
0
VERTEX
10
9.59767
20
8.95123
30
4.8
0
VERTEX
10
9.60209
20
8.95713
30
4.8
0
VERTEX
10
9.60357
20
8.96304
30
4.8
0
VERTEX
10
9.60504
20
8.96599
30
4.8
0
VERTEX
10
9.60209
20
8.9896
30
4.8
0
VERTEX
10
9.59619
20
8.99993
30
4.8
0
VERTEX
10
9.59176
20
9.00436
30
4.8
0
VERTEX
10
9.59029
20
9.01617
30
4.8
0
VERTEX
10
9.56962
20
9.03831
30
4.8
0
VERTEX
10
9.56667
20
9.04273
30
4.8
0
VERTEX
10
9.55486
20
9.05306
30
4.8
0
VERTEX
10
9.54601
20
9.06192
30
4.8
0
VERTEX
10
9.52387
20
9.07373
30
4.8
0
VERTEX
10
9.50026
20
9.07963
30
4.8
0
VERTEX
10
9.49731
20
9.08258
30
4.8
0
VERTEX
10
9.4855
20
9.08406
30
4.8
0
VERTEX
10
9.47812
20
9.08996
30
4.8
0
VERTEX
10
9.47222
20
9.08996
30
4.8
0
VERTEX
10
9.46631
20
9.09291
30
4.8
0
VERTEX
10
9.4545
20
9.09439
30
4.8
0
VERTEX
10
9.4486
20
9.09587
30
4.8
0
VERTEX
10
9.43679
20
9.09439
30
4.8
0
VERTEX
10
9.41318
20
9.09587
30
4.8
0
VERTEX
10
9.40137
20
9.09587
30
4.8
0
VERTEX
10
9.37776
20
9.10029
30
4.8
0
VERTEX
10
9.36595
20
9.10029
30
4.8
0
VERTEX
10
9.363
20
9.10029
30
4.8
0
VERTEX
10
9.36152
20
9.1062
30
4.8
0
VERTEX
10
9.35562
20
9.11062
30
4.8
0
VERTEX
10
9.30839
20
9.10915
30
4.8
0
VERTEX
10
9.29659
20
9.10767
30
4.8
0
VERTEX
10
9.29068
20
9.1062
30
4.8
0
VERTEX
10
9.28773
20
9.10324
30
4.8
0
VERTEX
10
9.26412
20
9.10029
30
4.8
0
VERTEX
10
9.25231
20
9.09734
30
4.8
0
VERTEX
10
9.22869
20
9.09734
30
4.8
0
VERTEX
10
9.22574
20
9.09439
30
4.8
0
VERTEX
10
9.20213
20
9.08849
30
4.8
0
VERTEX
10
9.19623
20
9.08553
30
4.8
0
VERTEX
10
9.19327
20
9.08258
30
4.8
0
VERTEX
10
9.18737
20
9.08258
30
4.8
0
VERTEX
10
9.17556
20
9.07815
30
4.8
0
VERTEX
10
9.16966
20
9.07668
30
4.8
0
VERTEX
10
9.16671
20
9.07373
30
4.8
0
VERTEX
10
9.1549
20
9.07373
30
4.8
0
VERTEX
10
9.15195
20
9.07078
30
4.8
0
VERTEX
10
9.12833
20
9.07078
30
4.8
0
VERTEX
10
9.11653
20
9.0693
30
4.8
0
VERTEX
10
9.11062
20
9.0693
30
4.8
0
VERTEX
10
9.09882
20
9.06044
30
4.8
0
VERTEX
10
9.09587
20
9.06044
30
4.8
0
VERTEX
10
9.09291
20
9.05749
30
4.8
0
VERTEX
10
9.08996
20
9.05749
30
4.8
0
VERTEX
10
9.08701
20
9.05454
30
4.8
0
VERTEX
10
9.0752
20
9.05306
30
4.8
0
VERTEX
10
9.05159
20
9.04569
30
4.8
0
VERTEX
10
9.02797
20
9.04273
30
4.8
0
VERTEX
10
9.01617
20
9.04273
30
4.8
0
VERTEX
10
9.01322
20
9.04273
30
4.8
0
VERTEX
10
9.00141
20
9.03535
30
4.8
0
VERTEX
10
8.99846
20
9.03535
30
4.8
0
VERTEX
10
8.98813
20
9.02355
30
4.8
0
VERTEX
10
8.98222
20
9.01174
30
4.8
0
VERTEX
10
8.97927
20
9.00584
30
4.8
0
VERTEX
10
8.97632
20
8.91138
30
4.8
0
VERTEX
10
8.97189
20
8.89957
30
4.8
0
VERTEX
10
8.96451
20
8.88777
30
4.8
0
VERTEX
10
8.96008
20
8.87596
30
4.8
0
VERTEX
10
8.95713
20
8.87005
30
4.8
0
VERTEX
10
8.95713
20
8.8671
30
4.8
0
VERTEX
10
8.95418
20
8.86563
30
4.8
0
VERTEX
10
8.95418
20
8.86268
30
4.8
0
VERTEX
10
8.93499
20
8.84054
30
4.8
0
VERTEX
10
8.93057
20
8.83759
30
4.8
0
VERTEX
10
8.91876
20
8.82578
30
4.8
0
VERTEX
10
8.91581
20
8.82283
30
4.8
0
VERTEX
10
8.91286
20
8.82283
30
4.8
0
VERTEX
10
8.90695
20
8.8184
30
4.8
0
VERTEX
10
8.90105
20
8.81692
30
4.8
0
VERTEX
10
8.89514
20
8.8125
30
4.8
0
VERTEX
10
8.89219
20
8.80954
30
4.8
0
VERTEX
10
8.88629
20
8.80807
30
4.8
0
VERTEX
10
8.87448
20
8.79774
30
4.8
0
VERTEX
10
8.86563
20
8.78593
30
4.8
0
VERTEX
10
8.86563
20
8.78298
30
4.8
0
VERTEX
10
8.85972
20
8.78003
30
4.8
0
VERTEX
10
8.8553
20
8.77412
30
4.8
0
VERTEX
10
8.85382
20
8.76822
30
4.8
0
VERTEX
10
8.84644
20
8.75936
30
4.8
0
VERTEX
10
8.83611
20
8.74903
30
4.8
0
VERTEX
10
8.81692
20
8.7328
30
4.8
0
VERTEX
10
8.80512
20
8.72837
30
4.8
0
VERTEX
10
8.79331
20
8.72099
30
4.8
0
VERTEX
10
8.78741
20
8.71951
30
4.8
0
VERTEX
10
8.77707
20
8.70771
30
4.8
0
VERTEX
10
8.77707
20
8.70476
30
4.8
0
VERTEX
10
8.77117
20
8.70033
30
4.8
0
VERTEX
10
8.76822
20
8.69442
30
4.8
0
VERTEX
10
8.76822
20
8.69147
30
4.8
0
VERTEX
10
8.76527
20
8.69
30
4.8
0
VERTEX
10
8.76527
20
8.66638
30
4.8
0
VERTEX
10
8.76527
20
8.66491
30
4.8
0
SEQEND
0
ENDSEC
0
EOF
