0
SECTION
2
ENTITIES
0
POLYLINE
62
31
66
1
70
1
3
contour
0
VERTEX
10
7.16403
20
8.93229
30
7.84
0
VERTEX
10
7.1759
20
8.90065
30
7.84
0
VERTEX
10
7.18381
20
8.83735
30
7.84
0
VERTEX
10
7.18777
20
8.82153
30
7.84
0
VERTEX
10
7.18777
20
8.81362
30
7.84
0
VERTEX
10
7.19963
20
8.79779
30
7.84
0
VERTEX
10
7.23128
20
8.79779
30
7.84
0
VERTEX
10
7.2471
20
8.80966
30
7.84
0
VERTEX
10
7.25502
20
8.80966
30
7.84
0
VERTEX
10
7.26293
20
8.81757
30
7.84
0
VERTEX
10
7.27875
20
8.82153
30
7.84
0
VERTEX
10
7.30644
20
8.84526
30
7.84
0
VERTEX
10
7.32622
20
8.87296
30
7.84
0
VERTEX
10
7.31831
20
8.9046
30
7.84
0
VERTEX
10
7.31435
20
8.92043
30
7.84
0
VERTEX
10
7.31435
20
8.92834
30
7.84
0
VERTEX
10
7.28271
20
8.95603
30
7.84
0
VERTEX
10
7.27084
20
8.9679
30
7.84
0
VERTEX
10
7.27084
20
8.97581
30
7.84
0
VERTEX
10
7.23919
20
8.99559
30
7.84
0
VERTEX
10
7.22337
20
8.99163
30
7.84
0
VERTEX
10
7.19172
20
8.97185
30
7.84
0
VERTEX
10
7.18777
20
8.9679
30
7.84
0
VERTEX
10
7.18381
20
8.97185
30
7.84
0
VERTEX
10
7.16799
20
8.95998
30
7.84
0
VERTEX
10
7.16403
20
8.94416
30
7.84
0
VERTEX
10
7.16403
20
8.93625
30
7.84
0
SEQEND
0
POLYLINE
62
31
66
1
70
1
3
contour
0
VERTEX
10
7.70717
20
10.3035
30
7.84
0
VERTEX
10
7.71089
20
10.2961
30
7.84
0
VERTEX
10
7.71089
20
10.2663
30
7.84
0
VERTEX
10
7.71461
20
10.2589
30
7.84
0
VERTEX
10
7.71834
20
10.2551
30
7.84
0
VERTEX
10
7.72206
20
10.2402
30
7.84
0
VERTEX
10
7.73695
20
10.2105
30
7.84
0
VERTEX
10
7.74439
20
10.1956
30
7.84
0
VERTEX
10
7.74812
20
10.1919
30
7.84
0
VERTEX
10
7.74998
20
10.1844
30
7.84
0
VERTEX
10
7.74998
20
10.1807
30
7.84
0
VERTEX
10
7.7537
20
10.177
30
7.84
0
VERTEX
10
7.7537
20
10.1732
30
7.84
0
VERTEX
10
7.75742
20
10.1695
30
7.84
0
VERTEX
10
7.763
20
10.1397
30
7.84
0
VERTEX
10
7.763
20
10.1248
30
7.84
0
VERTEX
10
7.77231
20
10.0653
30
7.84
0
VERTEX
10
7.77603
20
9.94618
30
7.84
0
VERTEX
10
7.77603
20
9.9164
30
7.84
0
VERTEX
10
7.7872
20
9.88662
30
7.84
0
VERTEX
10
7.79464
20
9.87173
30
7.84
0
VERTEX
10
7.80581
20
9.85684
30
7.84
0
VERTEX
10
7.8114
20
9.84195
30
7.84
0
VERTEX
10
7.8207
20
9.82706
30
7.84
0
VERTEX
10
7.82256
20
9.81961
30
7.84
0
VERTEX
10
7.82628
20
9.81775
30
7.84
0
VERTEX
10
7.82815
20
9.81031
30
7.84
0
VERTEX
10
7.85234
20
9.78239
30
7.84
0
VERTEX
10
7.88026
20
9.76192
30
7.84
0
VERTEX
10
7.88212
20
9.75447
30
7.84
0
VERTEX
10
7.88957
20
9.74889
30
7.84
0
VERTEX
10
7.89701
20
9.74889
30
7.84
0
VERTEX
10
7.90073
20
9.74517
30
7.84
0
VERTEX
10
7.91562
20
9.74144
30
7.84
0
VERTEX
10
7.9454
20
9.74331
30
7.84
0
VERTEX
10
7.96029
20
9.74331
30
7.84
0
VERTEX
10
7.97518
20
9.74889
30
7.84
0
VERTEX
10
8.00496
20
9.75075
30
7.84
0
VERTEX
10
8.03474
20
9.7582
30
7.84
0
VERTEX
10
8.0943
20
9.7675
30
7.84
0
VERTEX
10
8.10732
20
9.77495
30
7.84
0
VERTEX
10
8.12594
20
9.80286
30
7.84
0
VERTEX
10
8.13896
20
9.81589
30
7.84
0
VERTEX
10
8.14641
20
9.82892
30
7.84
0
VERTEX
10
8.15199
20
9.83637
30
7.84
0
VERTEX
10
8.15758
20
9.84939
30
7.84
0
VERTEX
10
8.16688
20
9.86242
30
7.84
0
VERTEX
10
8.16688
20
9.86614
30
7.84
0
VERTEX
10
8.17805
20
9.87917
30
7.84
0
VERTEX
10
8.18549
20
9.88476
30
7.84
0
VERTEX
10
8.19108
20
9.89965
30
7.84
0
VERTEX
10
8.1948
20
9.92942
30
7.84
0
VERTEX
10
8.20597
20
9.94245
30
7.84
0
VERTEX
10
8.21527
20
9.97223
30
7.84
0
VERTEX
10
8.23202
20
10.0001
30
7.84
0
VERTEX
10
8.23761
20
10.015
30
7.84
0
VERTEX
10
8.24691
20
10.0299
30
7.84
0
VERTEX
10
8.25994
20
10.043
30
7.84
0
VERTEX
10
8.2618
20
10.0467
30
7.84
0
VERTEX
10
8.26552
20
10.0467
30
7.84
0
VERTEX
10
8.27669
20
10.0765
30
7.84
0
VERTEX
10
8.27855
20
10.0839
30
7.84
0
VERTEX
10
8.27855
20
10.0876
30
7.84
0
VERTEX
10
8.28414
20
10.0951
30
7.84
0
VERTEX
10
8.28972
20
10.1546
30
7.84
0
VERTEX
10
8.28972
20
10.2142
30
7.84
0
VERTEX
10
8.28972
20
10.2216
30
7.84
0
VERTEX
10
8.28228
20
10.2272
30
7.84
0
VERTEX
10
8.28228
20
10.2421
30
7.84
0
VERTEX
10
8.28228
20
10.2495
30
7.84
0
VERTEX
10
8.27669
20
10.257
30
7.84
0
VERTEX
10
8.26925
20
10.2868
30
7.84
0
VERTEX
10
8.26739
20
10.3017
30
7.84
0
VERTEX
10
8.25808
20
10.3296
30
7.84
0
VERTEX
10
8.25622
20
10.3445
30
7.84
0
VERTEX
10
8.25808
20
10.3594
30
7.84
0
VERTEX
10
8.2525
20
10.3668
30
7.84
0
VERTEX
10
8.25064
20
10.3742
30
7.84
0
VERTEX
10
8.25064
20
10.378
30
7.84
0
VERTEX
10
8.24505
20
10.3854
30
7.84
0
VERTEX
10
8.23947
20
10.4003
30
7.84
0
VERTEX
10
8.23016
20
10.4152
30
7.84
0
VERTEX
10
8.23016
20
10.4189
30
7.84
0
VERTEX
10
8.21713
20
10.4282
30
7.84
0
VERTEX
10
8.21713
20
10.4319
30
7.84
0
VERTEX
10
8.20969
20
10.4394
30
7.84
0
VERTEX
10
8.20597
20
10.4468
30
7.84
0
VERTEX
10
8.19108
20
10.4599
30
7.84
0
VERTEX
10
8.19108
20
10.4636
30
7.84
0
VERTEX
10
8.17805
20
10.4748
30
7.84
0
VERTEX
10
8.16874
20
10.4878
30
7.84
0
VERTEX
10
8.1613
20
10.4896
30
7.84
0
VERTEX
10
8.15385
20
10.4952
30
7.84
0
VERTEX
10
8.15013
20
10.5008
30
7.84
0
VERTEX
10
8.12035
20
10.5194
30
7.84
0
VERTEX
10
8.06079
20
10.5213
30
7.84
0
VERTEX
10
8.03102
20
10.5213
30
7.84
0
VERTEX
10
8.01613
20
10.5231
30
7.84
0
VERTEX
10
8.00124
20
10.5287
30
7.84
0
VERTEX
10
7.99751
20
10.5287
30
7.84
0
VERTEX
10
7.99379
20
10.5324
30
7.84
0
VERTEX
10
7.98635
20
10.5324
30
7.84
0
VERTEX
10
7.98262
20
10.5362
30
7.84
0
VERTEX
10
7.97518
20
10.5362
30
7.84
0
VERTEX
10
7.96587
20
10.5455
30
7.84
0
VERTEX
10
7.96215
20
10.5455
30
7.84
0
VERTEX
10
7.94912
20
10.5566
30
7.84
0
VERTEX
10
7.94726
20
10.5585
30
7.84
0
VERTEX
10
7.96215
20
10.5585
30
7.84
0
VERTEX
10
7.96587
20
10.5604
30
7.84
0
VERTEX
10
7.95098
20
10.5641
30
7.84
0
VERTEX
10
7.92121
20
10.5604
30
7.84
0
VERTEX
10
7.91376
20
10.5604
30
7.84
0
VERTEX
10
7.8542
20
10.525
30
7.84
0
VERTEX
10
7.83931
20
10.512
30
7.84
0
VERTEX
10
7.83373
20
10.5064
30
7.84
0
VERTEX
10
7.83001
20
10.5064
30
7.84
0
VERTEX
10
7.81884
20
10.4934
30
7.84
0
VERTEX
10
7.8114
20
10.4859
30
7.84
0
VERTEX
10
7.80581
20
10.471
30
7.84
0
VERTEX
10
7.79651
20
10.4561
30
7.84
0
VERTEX
10
7.79278
20
10.4487
30
7.84
0
VERTEX
10
7.79278
20
10.445
30
7.84
0
VERTEX
10
7.77976
20
10.4301
30
7.84
0
VERTEX
10
7.77231
20
10.4245
30
7.84
0
VERTEX
10
7.76859
20
10.4171
30
7.84
0
VERTEX
10
7.7537
20
10.4077
30
7.84
0
VERTEX
10
7.73323
20
10.3798
30
7.84
0
VERTEX
10
7.73136
20
10.3761
30
7.84
0
VERTEX
10
7.72392
20
10.3742
30
7.84
0
VERTEX
10
7.71275
20
10.3445
30
7.84
0
VERTEX
10
7.70717
20
10.3296
30
7.84
0
VERTEX
10
7.70717
20
10.3147
30
7.84
0
VERTEX
10
7.70717
20
10.3072
30
7.84
0
VERTEX
10
7.70717
20
10.3054
30
7.84
0
SEQEND
0
POLYLINE
62
224
66
1
70
1
3
mitochondrion
0
VERTEX
10
7.91433
20
9.95131
30
7.84
0
VERTEX
10
7.91989
20
9.92906
30
7.84
0
VERTEX
10
7.92962
20
9.90681
30
7.84
0
VERTEX
10
7.93657
20
9.89569
30
7.84
0
VERTEX
10
7.94492
20
9.88735
30
7.84
0
VERTEX
10
7.95048
20
9.88457
30
7.84
0
VERTEX
10
7.96855
20
9.8651
30
7.84
0
VERTEX
10
7.98941
20
9.85259
30
7.84
0
VERTEX
10
7.99497
20
9.84842
30
7.84
0
VERTEX
10
8.0061
20
9.84842
30
7.84
0
VERTEX
10
8.01166
20
9.84842
30
7.84
0
VERTEX
10
8.02278
20
9.84424
30
7.84
0
VERTEX
10
8.04503
20
9.84563
30
7.84
0
VERTEX
10
8.05615
20
9.84702
30
7.84
0
VERTEX
10
8.06727
20
9.8512
30
7.84
0
VERTEX
10
8.0784
20
9.86093
30
7.84
0
VERTEX
10
8.08396
20
9.86649
30
7.84
0
VERTEX
10
8.08674
20
9.86788
30
7.84
0
VERTEX
10
8.08674
20
9.87066
30
7.84
0
VERTEX
10
8.09508
20
9.87761
30
7.84
0
VERTEX
10
8.10204
20
9.88874
30
7.84
0
VERTEX
10
8.10621
20
9.89986
30
7.84
0
VERTEX
10
8.10899
20
9.90542
30
7.84
0
VERTEX
10
8.11177
20
9.94992
30
7.84
0
VERTEX
10
8.1076
20
9.99441
30
7.84
0
VERTEX
10
8.1076
20
9.99997
30
7.84
0
VERTEX
10
8.10482
20
10.0055
30
7.84
0
VERTEX
10
8.10204
20
10.0083
30
7.84
0
VERTEX
10
8.10204
20
10.0111
30
7.84
0
VERTEX
10
8.09925
20
10.0139
30
7.84
0
VERTEX
10
8.09786
20
10.0194
30
7.84
0
VERTEX
10
8.09091
20
10.0306
30
7.84
0
VERTEX
10
8.08813
20
10.0347
30
7.84
0
VERTEX
10
8.08257
20
10.0403
30
7.84
0
VERTEX
10
8.06727
20
10.0598
30
7.84
0
VERTEX
10
8.05615
20
10.0695
30
7.84
0
VERTEX
10
8.04503
20
10.0737
30
7.84
0
VERTEX
10
8.04364
20
10.0764
30
7.84
0
VERTEX
10
8.02139
20
10.0806
30
7.84
0
VERTEX
10
7.9769
20
10.082
30
7.84
0
VERTEX
10
7.97133
20
10.0792
30
7.84
0
VERTEX
10
7.96855
20
10.0778
30
7.84
0
VERTEX
10
7.96577
20
10.0667
30
7.84
0
VERTEX
10
7.96716
20
10.0612
30
7.84
0
VERTEX
10
7.96577
20
10.057
30
7.84
0
VERTEX
10
7.96021
20
10.0542
30
7.84
0
VERTEX
10
7.95604
20
10.0486
30
7.84
0
VERTEX
10
7.95604
20
10.0459
30
7.84
0
VERTEX
10
7.95326
20
10.0445
30
7.84
0
VERTEX
10
7.95326
20
10.0417
30
7.84
0
VERTEX
10
7.9477
20
10.0361
30
7.84
0
VERTEX
10
7.9477
20
10.0333
30
7.84
0
VERTEX
10
7.93379
20
10.0111
30
7.84
0
VERTEX
10
7.92823
20
10.0041
30
7.84
0
VERTEX
10
7.92823
20
10.0014
30
7.84
0
VERTEX
10
7.92406
20
9.9958
30
7.84
0
VERTEX
10
7.92128
20
9.99302
30
7.84
0
VERTEX
10
7.92128
20
9.99024
30
7.84
0
VERTEX
10
7.91433
20
9.97912
30
7.84
0
VERTEX
10
7.91433
20
9.95687
30
7.84
0
VERTEX
10
7.91433
20
9.9527
30
7.84
0
SEQEND
0
POLYLINE
62
227
66
1
70
1
3
endoplasmic_reticulum
0
VERTEX
10
8.12898
20
10.1955
30
7.84
0
VERTEX
10
8.13078
20
10.1919
30
7.84
0
VERTEX
10
8.13795
20
10.1875
30
7.84
0
VERTEX
10
8.14243
20
10.183
30
7.84
0
VERTEX
10
8.1496
20
10.1812
30
7.84
0
VERTEX
10
8.15678
20
10.1812
30
7.84
0
VERTEX
10
8.16305
20
10.1848
30
7.84
0
VERTEX
10
8.16664
20
10.1848
30
7.84
0
VERTEX
10
8.1765
20
10.1973
30
7.84
0
VERTEX
10
8.1765
20
10.2045
30
7.84
0
VERTEX
10
8.17471
20
10.2117
30
7.84
0
VERTEX
10
8.17291
20
10.2152
30
7.84
0
VERTEX
10
8.17202
20
10.2296
30
7.84
0
VERTEX
10
8.17202
20
10.2332
30
7.84
0
VERTEX
10
8.15767
20
10.2341
30
7.84
0
VERTEX
10
8.1505
20
10.2314
30
7.84
0
VERTEX
10
8.14691
20
10.2296
30
7.84
0
VERTEX
10
8.14512
20
10.226
30
7.84
0
VERTEX
10
8.14154
20
10.2242
30
7.84
0
VERTEX
10
8.14154
20
10.2224
30
7.84
0
VERTEX
10
8.13795
20
10.2197
30
7.84
0
VERTEX
10
8.13616
20
10.2161
30
7.84
0
VERTEX
10
8.13436
20
10.2161
30
7.84
0
VERTEX
10
8.13078
20
10.2135
30
7.84
0
VERTEX
10
8.12898
20
10.2126
30
7.84
0
VERTEX
10
8.12898
20
10.1982
30
7.84
0
VERTEX
10
8.12898
20
10.1964
30
7.84
0
SEQEND
0
POLYLINE
62
227
66
1
70
1
3
endoplasmic_reticulum
0
VERTEX
10
8.1505
20
10.1372
30
7.84
0
VERTEX
10
8.15498
20
10.131
30
7.84
0
VERTEX
10
8.16933
20
10.1301
30
7.84
0
VERTEX
10
8.18367
20
10.131
30
7.84
0
VERTEX
10
8.19802
20
10.1355
30
7.84
0
VERTEX
10
8.20071
20
10.139
30
7.84
0
VERTEX
10
8.2025
20
10.139
30
7.84
0
VERTEX
10
8.20878
20
10.1453
30
7.84
0
VERTEX
10
8.21236
20
10.148
30
7.84
0
VERTEX
10
8.21147
20
10.1552
30
7.84
0
VERTEX
10
8.20698
20
10.1624
30
7.84
0
VERTEX
10
8.20609
20
10.1659
30
7.84
0
VERTEX
10
8.2034
20
10.1695
30
7.84
0
VERTEX
10
8.2025
20
10.1731
30
7.84
0
VERTEX
10
8.19891
20
10.174
30
7.84
0
VERTEX
10
8.19174
20
10.1731
30
7.84
0
VERTEX
10
8.1774
20
10.1668
30
7.84
0
VERTEX
10
8.17022
20
10.1641
30
7.84
0
VERTEX
10
8.16754
20
10.1606
30
7.84
0
VERTEX
10
8.16574
20
10.1606
30
7.84
0
VERTEX
10
8.15947
20
10.1552
30
7.84
0
VERTEX
10
8.15588
20
10.1534
30
7.84
0
VERTEX
10
8.15319
20
10.1498
30
7.84
0
VERTEX
10
8.1514
20
10.1498
30
7.84
0
VERTEX
10
8.1505
20
10.1426
30
7.84
0
VERTEX
10
8.1505
20
10.139
30
7.84
0
VERTEX
10
8.1505
20
10.1381
30
7.84
0
SEQEND
0
POLYLINE
62
227
66
1
70
1
3
endoplasmic_reticulum
0
VERTEX
10
8.04919
20
10.2771
30
7.84
0
VERTEX
10
8.05009
20
10.2735
30
7.84
0
VERTEX
10
8.05367
20
10.2708
30
7.84
0
VERTEX
10
8.05547
20
10.2646
30
7.84
0
VERTEX
10
8.06174
20
10.2583
30
7.84
0
VERTEX
10
8.06533
20
10.2565
30
7.84
0
VERTEX
10
8.07071
20
10.2502
30
7.84
0
VERTEX
10
8.07429
20
10.2493
30
7.84
0
VERTEX
10
8.07788
20
10.2457
30
7.84
0
VERTEX
10
8.07967
20
10.2421
30
7.84
0
VERTEX
10
8.08685
20
10.2412
30
7.84
0
VERTEX
10
8.09402
20
10.2439
30
7.84
0
VERTEX
10
8.10567
20
10.2529
30
7.84
0
VERTEX
10
8.10926
20
10.2556
30
7.84
0
VERTEX
10
8.11105
20
10.2565
30
7.84
0
VERTEX
10
8.11105
20
10.2583
30
7.84
0
VERTEX
10
8.12271
20
10.2717
30
7.84
0
VERTEX
10
8.1245
20
10.2735
30
7.84
0
VERTEX
10
8.12271
20
10.2807
30
7.84
0
VERTEX
10
8.1245
20
10.2843
30
7.84
0
VERTEX
10
8.12719
20
10.2861
30
7.84
0
VERTEX
10
8.13078
20
10.2852
30
7.84
0
VERTEX
10
8.14422
20
10.2932
30
7.84
0
VERTEX
10
8.1496
20
10.3076
30
7.84
0
VERTEX
10
8.14871
20
10.3148
30
7.84
0
VERTEX
10
8.14691
20
10.3183
30
7.84
0
VERTEX
10
8.14512
20
10.3201
30
7.84
0
VERTEX
10
8.14333
20
10.3201
30
7.84
0
VERTEX
10
8.14064
20
10.3228
30
7.84
0
VERTEX
10
8.12629
20
10.3237
30
7.84
0
VERTEX
10
8.11195
20
10.3219
30
7.84
0
VERTEX
10
8.0976
20
10.3219
30
7.84
0
VERTEX
10
8.09133
20
10.3273
30
7.84
0
VERTEX
10
8.08864
20
10.3291
30
7.84
0
VERTEX
10
8.08505
20
10.3291
30
7.84
0
VERTEX
10
8.08147
20
10.3309
30
7.84
0
VERTEX
10
8.07429
20
10.3309
30
7.84
0
VERTEX
10
8.06712
20
10.3282
30
7.84
0
VERTEX
10
8.06443
20
10.3255
30
7.84
0
VERTEX
10
8.06443
20
10.3237
30
7.84
0
VERTEX
10
8.05905
20
10.3183
30
7.84
0
VERTEX
10
8.05547
20
10.3157
30
7.84
0
VERTEX
10
8.05367
20
10.3085
30
7.84
0
VERTEX
10
8.05367
20
10.3013
30
7.84
0
VERTEX
10
8.05098
20
10.2941
30
7.84
0
VERTEX
10
8.04919
20
10.2798
30
7.84
0
VERTEX
10
8.04919
20
10.278
30
7.84
0
SEQEND
0
POLYLINE
62
227
66
1
70
1
3
endoplasmic_reticulum
0
VERTEX
10
7.81519
20
10.2
30
7.84
0
VERTEX
10
7.81699
20
10.1928
30
7.84
0
VERTEX
10
7.81699
20
10.191
30
7.84
0
VERTEX
10
7.81878
20
10.1892
30
7.84
0
VERTEX
10
7.81968
20
10.1857
30
7.84
0
VERTEX
10
7.82236
20
10.183
30
7.84
0
VERTEX
10
7.82236
20
10.1794
30
7.84
0
VERTEX
10
7.82505
20
10.1758
30
7.84
0
VERTEX
10
7.82685
20
10.174
30
7.84
0
VERTEX
10
7.82685
20
10.1668
30
7.84
0
VERTEX
10
7.82954
20
10.1597
30
7.84
0
VERTEX
10
7.83133
20
10.1561
30
7.84
0
VERTEX
10
7.83043
20
10.1525
30
7.84
0
VERTEX
10
7.83671
20
10.1381
30
7.84
0
VERTEX
10
7.8394
20
10.131
30
7.84
0
VERTEX
10
7.8394
20
10.1238
30
7.84
0
VERTEX
10
7.84209
20
10.1166
30
7.84
0
VERTEX
10
7.84299
20
10.113
30
7.84
0
VERTEX
10
7.85016
20
10.1077
30
7.84
0
VERTEX
10
7.85374
20
10.1059
30
7.84
0
VERTEX
10
7.86809
20
10.1068
30
7.84
0
VERTEX
10
7.87167
20
10.1077
30
7.84
0
VERTEX
10
7.87436
20
10.1104
30
7.84
0
VERTEX
10
7.87526
20
10.1175
30
7.84
0
VERTEX
10
7.87526
20
10.1193
30
7.84
0
VERTEX
10
7.87885
20
10.1211
30
7.84
0
VERTEX
10
7.87885
20
10.1229
30
7.84
0
VERTEX
10
7.88243
20
10.1265
30
7.84
0
VERTEX
10
7.88692
20
10.1328
30
7.84
0
VERTEX
10
7.88781
20
10.1364
30
7.84
0
VERTEX
10
7.8914
20
10.139
30
7.84
0
VERTEX
10
7.89319
20
10.1462
30
7.84
0
VERTEX
10
7.8923
20
10.1749
30
7.84
0
VERTEX
10
7.88064
20
10.2036
30
7.84
0
VERTEX
10
7.87705
20
10.2108
30
7.84
0
VERTEX
10
7.87526
20
10.2179
30
7.84
0
VERTEX
10
7.87078
20
10.2242
30
7.84
0
VERTEX
10
7.8663
20
10.2287
30
7.84
0
VERTEX
10
7.85912
20
10.2314
30
7.84
0
VERTEX
10
7.85554
20
10.2332
30
7.84
0
VERTEX
10
7.85554
20
10.235
30
7.84
0
VERTEX
10
7.84836
20
10.2377
30
7.84
0
VERTEX
10
7.84119
20
10.2368
30
7.84
0
VERTEX
10
7.82774
20
10.2287
30
7.84
0
VERTEX
10
7.81788
20
10.2161
30
7.84
0
VERTEX
10
7.81519
20
10.2126
30
7.84
0
VERTEX
10
7.81519
20
10.2054
30
7.84
0
VERTEX
10
7.81519
20
10.2018
30
7.84
0
VERTEX
10
7.81519
20
10.2009
30
7.84
0
SEQEND
0
POLYLINE
62
227
66
1
70
1
3
endoplasmic_reticulum
0
VERTEX
10
7.83492
20
10.0072
30
7.84
0
VERTEX
10
7.83761
20
10.0001
30
7.84
0
VERTEX
10
7.8385
20
9.99649
30
7.84
0
VERTEX
10
7.84119
20
9.9938
30
7.84
0
VERTEX
10
7.84836
20
9.9929
30
7.84
0
VERTEX
10
7.85554
20
9.9938
30
7.84
0
VERTEX
10
7.86271
20
9.99649
30
7.84
0
VERTEX
10
7.8663
20
9.99739
30
7.84
0
VERTEX
10
7.86809
20
9.99739
30
7.84
0
VERTEX
10
7.87078
20
10.001
30
7.84
0
VERTEX
10
7.87257
20
10.001
30
7.84
0
VERTEX
10
7.87526
20
10.0046
30
7.84
0
VERTEX
10
7.87526
20
10.0117
30
7.84
0
VERTEX
10
7.87257
20
10.0189
30
7.84
0
VERTEX
10
7.87257
20
10.0332
30
7.84
0
VERTEX
10
7.87257
20
10.0404
30
7.84
0
VERTEX
10
7.87167
20
10.044
30
7.84
0
VERTEX
10
7.8663
20
10.0503
30
7.84
0
VERTEX
10
7.86361
20
10.053
30
7.84
0
VERTEX
10
7.84926
20
10.0404
30
7.84
0
VERTEX
10
7.84657
20
10.0386
30
7.84
0
VERTEX
10
7.84388
20
10.0315
30
7.84
0
VERTEX
10
7.84119
20
10.027
30
7.84
0
VERTEX
10
7.83671
20
10.0207
30
7.84
0
VERTEX
10
7.83492
20
10.0135
30
7.84
0
VERTEX
10
7.83492
20
10.0099
30
7.84
0
VERTEX
10
7.83492
20
10.0081
30
7.84
0
SEQEND
0
POLYLINE
62
227
66
1
70
1
3
endoplasmic_reticulum
0
VERTEX
10
7.82147
20
10.3542
30
7.84
0
VERTEX
10
7.82505
20
10.3515
30
7.84
0
VERTEX
10
7.82954
20
10.3461
30
7.84
0
VERTEX
10
7.84388
20
10.3461
30
7.84
0
VERTEX
10
7.85016
20
10.3488
30
7.84
0
VERTEX
10
7.85285
20
10.3515
30
7.84
0
VERTEX
10
7.85464
20
10.3515
30
7.84
0
VERTEX
10
7.86809
20
10.3641
30
7.84
0
VERTEX
10
7.87436
20
10.3703
30
7.84
0
VERTEX
10
7.87885
20
10.3766
30
7.84
0
VERTEX
10
7.87974
20
10.3802
30
7.84
0
VERTEX
10
7.88602
20
10.3865
30
7.84
0
VERTEX
10
7.88871
20
10.4008
30
7.84
0
VERTEX
10
7.8905
20
10.408
30
7.84
0
VERTEX
10
7.8905
20
10.4116
30
7.84
0
VERTEX
10
7.89767
20
10.417
30
7.84
0
VERTEX
10
7.90485
20
10.4179
30
7.84
0
VERTEX
10
7.91202
20
10.4215
30
7.84
0
VERTEX
10
7.91561
20
10.4223
30
7.84
0
VERTEX
10
7.9174
20
10.4223
30
7.84
0
VERTEX
10
7.92457
20
10.4268
30
7.84
0
VERTEX
10
7.92726
20
10.4295
30
7.84
0
VERTEX
10
7.92726
20
10.4331
30
7.84
0
VERTEX
10
7.93085
20
10.4403
30
7.84
0
VERTEX
10
7.93174
20
10.4475
30
7.84
0
VERTEX
10
7.93085
20
10.451
30
7.84
0
VERTEX
10
7.92547
20
10.4573
30
7.84
0
VERTEX
10
7.9183
20
10.4618
30
7.84
0
VERTEX
10
7.91202
20
10.4636
30
7.84
0
VERTEX
10
7.88333
20
10.4609
30
7.84
0
VERTEX
10
7.86899
20
10.4582
30
7.84
0
VERTEX
10
7.8654
20
10.4555
30
7.84
0
VERTEX
10
7.85823
20
10.4528
30
7.84
0
VERTEX
10
7.85554
20
10.4492
30
7.84
0
VERTEX
10
7.85464
20
10.4457
30
7.84
0
VERTEX
10
7.84836
20
10.4403
30
7.84
0
VERTEX
10
7.84478
20
10.4331
30
7.84
0
VERTEX
10
7.84388
20
10.4295
30
7.84
0
VERTEX
10
7.84119
20
10.4259
30
7.84
0
VERTEX
10
7.83492
20
10.4134
30
7.84
0
VERTEX
10
7.83223
20
10.4098
30
7.84
0
VERTEX
10
7.82774
20
10.3955
30
7.84
0
VERTEX
10
7.82595
20
10.3946
30
7.84
0
VERTEX
10
7.82416
20
10.3874
30
7.84
0
VERTEX
10
7.82416
20
10.3802
30
7.84
0
VERTEX
10
7.82147
20
10.373
30
7.84
0
VERTEX
10
7.82147
20
10.3587
30
7.84
0
VERTEX
10
7.82147
20
10.3551
30
7.84
0
SEQEND
0
ENDSEC
0
EOF
