0
SECTION
2
ENTITIES
0
POLYLINE
62
31
66
1
70
1
3
contour
0
VERTEX
10
7.79814
20
9.98398
30
7.52
0
VERTEX
10
7.80306
20
9.9446
30
7.52
0
VERTEX
10
7.81783
20
9.90521
30
7.52
0
VERTEX
10
7.82276
20
9.88552
30
7.52
0
VERTEX
10
7.83753
20
9.86583
30
7.52
0
VERTEX
10
7.85722
20
9.78706
30
7.52
0
VERTEX
10
7.86214
20
9.74768
30
7.52
0
VERTEX
10
7.87691
20
9.70829
30
7.52
0
VERTEX
10
7.88183
20
9.62952
30
7.52
0
VERTEX
10
7.88183
20
9.60983
30
7.52
0
VERTEX
10
7.92614
20
9.53106
30
7.52
0
VERTEX
10
7.94583
20
9.52614
30
7.52
0
VERTEX
10
7.95568
20
9.52614
30
7.52
0
VERTEX
10
7.97537
20
9.51137
30
7.52
0
VERTEX
10
8.05414
20
9.51137
30
7.52
0
VERTEX
10
8.09353
20
9.51629
30
7.52
0
VERTEX
10
8.13291
20
9.53106
30
7.52
0
VERTEX
10
8.1526
20
9.53598
30
7.52
0
VERTEX
10
8.17229
20
9.55075
30
7.52
0
VERTEX
10
8.25106
20
9.55568
30
7.52
0
VERTEX
10
8.29045
20
9.56552
30
7.52
0
VERTEX
10
8.36922
20
9.57045
30
7.52
0
VERTEX
10
8.44799
20
9.58522
30
7.52
0
VERTEX
10
8.46768
20
9.59014
30
7.52
0
VERTEX
10
8.48737
20
9.60983
30
7.52
0
VERTEX
10
8.56614
20
9.63937
30
7.52
0
VERTEX
10
8.6006
20
9.67875
30
7.52
0
VERTEX
10
8.60552
20
9.71814
30
7.52
0
VERTEX
10
8.62029
20
9.75752
30
7.52
0
VERTEX
10
8.62522
20
9.77722
30
7.52
0
VERTEX
10
8.64491
20
9.78214
30
7.52
0
VERTEX
10
8.65476
20
9.78706
30
7.52
0
VERTEX
10
8.65476
20
9.79691
30
7.52
0
VERTEX
10
8.69414
20
9.81168
30
7.52
0
VERTEX
10
8.67937
20
9.84614
30
7.52
0
VERTEX
10
8.6646
20
9.86583
30
7.52
0
VERTEX
10
8.64491
20
9.87075
30
7.52
0
VERTEX
10
8.63014
20
9.88552
30
7.52
0
VERTEX
10
8.62029
20
9.88552
30
7.52
0
VERTEX
10
8.6006
20
9.90521
30
7.52
0
VERTEX
10
8.5366
20
9.95937
30
7.52
0
VERTEX
10
8.48737
20
10.0381
30
7.52
0
VERTEX
10
8.47752
20
10.0381
30
7.52
0
VERTEX
10
8.47752
20
10.048
30
7.52
0
VERTEX
10
8.46768
20
10.0578
30
7.52
0
VERTEX
10
8.45783
20
10.0578
30
7.52
0
VERTEX
10
8.43322
20
10.0972
30
7.52
0
VERTEX
10
8.4086
20
10.112
30
7.52
0
VERTEX
10
8.37414
20
10.1464
30
7.52
0
VERTEX
10
8.35937
20
10.1612
30
7.52
0
VERTEX
10
8.34953
20
10.2006
30
7.52
0
VERTEX
10
8.33968
20
10.2104
30
7.52
0
VERTEX
10
8.32983
20
10.2104
30
7.52
0
VERTEX
10
8.26091
20
10.2794
30
7.52
0
VERTEX
10
8.18214
20
10.3237
30
7.52
0
VERTEX
10
8.18214
20
10.3335
30
7.52
0
VERTEX
10
8.10337
20
10.3778
30
7.52
0
VERTEX
10
8.08368
20
10.3778
30
7.52
0
VERTEX
10
8.07383
20
10.3729
30
7.52
0
VERTEX
10
8.06891
20
10.3828
30
7.52
0
VERTEX
10
8.02953
20
10.3729
30
7.52
0
VERTEX
10
8.01476
20
10.3581
30
7.52
0
VERTEX
10
7.99506
20
10.3532
30
7.52
0
VERTEX
10
7.95568
20
10.3188
30
7.52
0
VERTEX
10
7.95076
20
10.2991
30
7.52
0
VERTEX
10
7.93599
20
10.2892
30
7.52
0
VERTEX
10
7.92122
20
10.2695
30
7.52
0
VERTEX
10
7.91629
20
10.2498
30
7.52
0
VERTEX
10
7.85722
20
10.1908
30
7.52
0
VERTEX
10
7.80799
20
10.112
30
7.52
0
VERTEX
10
7.79814
20
10.0726
30
7.52
0
VERTEX
10
7.79814
20
9.99383
30
7.52
0
VERTEX
10
7.79814
20
9.98891
30
7.52
0
SEQEND
0
POLYLINE
62
224
66
1
70
1
3
mitochondrion
0
VERTEX
10
8.04642
20
9.76916
30
7.52
0
VERTEX
10
8.05754
20
9.74691
30
7.52
0
VERTEX
10
8.06588
20
9.73718
30
7.52
0
VERTEX
10
8.07006
20
9.73301
30
7.52
0
VERTEX
10
8.07006
20
9.73023
30
7.52
0
VERTEX
10
8.07562
20
9.72606
30
7.52
0
VERTEX
10
8.08257
20
9.71771
30
7.52
0
VERTEX
10
8.0923
20
9.71076
30
7.52
0
VERTEX
10
8.09508
20
9.7052
30
7.52
0
VERTEX
10
8.11455
20
9.68852
30
7.52
0
VERTEX
10
8.13541
20
9.66766
30
7.52
0
VERTEX
10
8.14653
20
9.66349
30
7.52
0
VERTEX
10
8.15209
20
9.65932
30
7.52
0
VERTEX
10
8.16321
20
9.65515
30
7.52
0
VERTEX
10
8.16878
20
9.65236
30
7.52
0
VERTEX
10
8.1799
20
9.65236
30
7.52
0
VERTEX
10
8.19102
20
9.64958
30
7.52
0
VERTEX
10
8.19658
20
9.6468
30
7.52
0
VERTEX
10
8.20215
20
9.6468
30
7.52
0
VERTEX
10
8.20493
20
9.6468
30
7.52
0
VERTEX
10
8.20771
20
9.64402
30
7.52
0
VERTEX
10
8.21883
20
9.64402
30
7.52
0
VERTEX
10
8.24108
20
9.63985
30
7.52
0
VERTEX
10
8.33007
20
9.64819
30
7.52
0
VERTEX
10
8.33563
20
9.65097
30
7.52
0
VERTEX
10
8.34675
20
9.65097
30
7.52
0
VERTEX
10
8.35787
20
9.65515
30
7.52
0
VERTEX
10
8.36344
20
9.65654
30
7.52
0
VERTEX
10
8.36761
20
9.66071
30
7.52
0
VERTEX
10
8.37873
20
9.6621
30
7.52
0
VERTEX
10
8.38846
20
9.67183
30
7.52
0
VERTEX
10
8.39124
20
9.67739
30
7.52
0
VERTEX
10
8.39403
20
9.68017
30
7.52
0
VERTEX
10
8.39403
20
9.68295
30
7.52
0
VERTEX
10
8.40098
20
9.69269
30
7.52
0
VERTEX
10
8.40098
20
9.69547
30
7.52
0
VERTEX
10
8.40793
20
9.70659
30
7.52
0
VERTEX
10
8.41627
20
9.72884
30
7.52
0
VERTEX
10
8.41766
20
9.7344
30
7.52
0
VERTEX
10
8.42183
20
9.73996
30
7.52
0
VERTEX
10
8.42322
20
9.78446
30
7.52
0
VERTEX
10
8.42183
20
9.8067
30
7.52
0
VERTEX
10
8.42183
20
9.81783
30
7.52
0
VERTEX
10
8.41488
20
9.84007
30
7.52
0
VERTEX
10
8.40932
20
9.8512
30
7.52
0
VERTEX
10
8.40376
20
9.85676
30
7.52
0
VERTEX
10
8.39959
20
9.85954
30
7.52
0
VERTEX
10
8.38846
20
9.87066
30
7.52
0
VERTEX
10
8.37039
20
9.89152
30
7.52
0
VERTEX
10
8.36622
20
9.89708
30
7.52
0
VERTEX
10
8.36483
20
9.90264
30
7.52
0
VERTEX
10
8.36483
20
9.90542
30
7.52
0
VERTEX
10
8.35509
20
9.91516
30
7.52
0
VERTEX
10
8.34953
20
9.91794
30
7.52
0
VERTEX
10
8.34536
20
9.9235
30
7.52
0
VERTEX
10
8.3398
20
9.92489
30
7.52
0
VERTEX
10
8.33146
20
9.93601
30
7.52
0
VERTEX
10
8.32172
20
9.94296
30
7.52
0
VERTEX
10
8.31616
20
9.94435
30
7.52
0
VERTEX
10
8.31338
20
9.94714
30
7.52
0
VERTEX
10
8.26889
20
9.95409
30
7.52
0
VERTEX
10
8.24664
20
9.95548
30
7.52
0
VERTEX
10
8.22439
20
9.96104
30
7.52
0
VERTEX
10
8.21327
20
9.96243
30
7.52
0
VERTEX
10
8.20771
20
9.96243
30
7.52
0
VERTEX
10
8.20493
20
9.96521
30
7.52
0
VERTEX
10
8.18268
20
9.96521
30
7.52
0
VERTEX
10
8.16043
20
9.95965
30
7.52
0
VERTEX
10
8.14931
20
9.95687
30
7.52
0
VERTEX
10
8.14375
20
9.95687
30
7.52
0
VERTEX
10
8.13262
20
9.9527
30
7.52
0
VERTEX
10
8.12706
20
9.9527
30
7.52
0
VERTEX
10
8.11594
20
9.94714
30
7.52
0
VERTEX
10
8.11038
20
9.94296
30
7.52
0
VERTEX
10
8.10899
20
9.94018
30
7.52
0
VERTEX
10
8.10621
20
9.94018
30
7.52
0
VERTEX
10
8.10482
20
9.9374
30
7.52
0
VERTEX
10
8.09925
20
9.93601
30
7.52
0
VERTEX
10
8.08813
20
9.92628
30
7.52
0
VERTEX
10
8.08257
20
9.92072
30
7.52
0
VERTEX
10
8.07701
20
9.91794
30
7.52
0
VERTEX
10
8.07423
20
9.91655
30
7.52
0
VERTEX
10
8.07562
20
9.91098
30
7.52
0
VERTEX
10
8.08118
20
9.9082
30
7.52
0
VERTEX
10
8.08257
20
9.90542
30
7.52
0
VERTEX
10
8.07979
20
9.90264
30
7.52
0
VERTEX
10
8.07979
20
9.89986
30
7.52
0
VERTEX
10
8.06866
20
9.89013
30
7.52
0
VERTEX
10
8.06727
20
9.88735
30
7.52
0
VERTEX
10
8.06171
20
9.88596
30
7.52
0
VERTEX
10
8.05337
20
9.86371
30
7.52
0
VERTEX
10
8.05337
20
9.85259
30
7.52
0
VERTEX
10
8.05059
20
9.84146
30
7.52
0
VERTEX
10
8.05059
20
9.83034
30
7.52
0
VERTEX
10
8.05059
20
9.82756
30
7.52
0
VERTEX
10
8.04781
20
9.82478
30
7.52
0
VERTEX
10
8.04642
20
9.78028
30
7.52
0
VERTEX
10
8.04642
20
9.77055
30
7.52
0
SEQEND
0
POLYLINE
62
227
66
1
70
1
3
endoplasmic_reticulum
0
VERTEX
10
8.20788
20
10.1229
30
7.52
0
VERTEX
10
8.20967
20
10.1193
30
7.52
0
VERTEX
10
8.20967
20
10.1157
30
7.52
0
VERTEX
10
8.21147
20
10.1121
30
7.52
0
VERTEX
10
8.21326
20
10.1104
30
7.52
0
VERTEX
10
8.22043
20
10.1104
30
7.52
0
VERTEX
10
8.2276
20
10.1086
30
7.52
0
VERTEX
10
8.23478
20
10.1086
30
7.52
0
VERTEX
10
8.23836
20
10.1068
30
7.52
0
VERTEX
10
8.25271
20
10.1068
30
7.52
0
VERTEX
10
8.25988
20
10.1086
30
7.52
0
VERTEX
10
8.27422
20
10.1086
30
7.52
0
VERTEX
10
8.28857
20
10.1112
30
7.52
0
VERTEX
10
8.30291
20
10.1121
30
7.52
0
VERTEX
10
8.31009
20
10.1139
30
7.52
0
VERTEX
10
8.31188
20
10.1202
30
7.52
0
VERTEX
10
8.31367
20
10.1211
30
7.52
0
VERTEX
10
8.31457
20
10.1355
30
7.52
0
VERTEX
10
8.31367
20
10.1498
30
7.52
0
VERTEX
10
8.3065
20
10.1534
30
7.52
0
VERTEX
10
8.24912
20
10.1543
30
7.52
0
VERTEX
10
8.23478
20
10.1552
30
7.52
0
VERTEX
10
8.2276
20
10.1552
30
7.52
0
VERTEX
10
8.22402
20
10.157
30
7.52
0
VERTEX
10
8.21685
20
10.157
30
7.52
0
VERTEX
10
8.21326
20
10.1552
30
7.52
0
VERTEX
10
8.21057
20
10.1516
30
7.52
0
VERTEX
10
8.20788
20
10.1498
30
7.52
0
VERTEX
10
8.20788
20
10.1355
30
7.52
0
VERTEX
10
8.20788
20
10.1283
30
7.52
0
VERTEX
10
8.20788
20
10.1247
30
7.52
0
VERTEX
10
8.20788
20
10.1238
30
7.52
0
SEQEND
0
POLYLINE
62
227
66
1
70
1
3
endoplasmic_reticulum
0
VERTEX
10
8.21595
20
10.0431
30
7.52
0
VERTEX
10
8.21774
20
10.0395
30
7.52
0
VERTEX
10
8.22133
20
10.0359
30
7.52
0
VERTEX
10
8.22491
20
10.0341
30
7.52
0
VERTEX
10
8.22671
20
10.0341
30
7.52
0
VERTEX
10
8.2285
20
10.0324
30
7.52
0
VERTEX
10
8.23567
20
10.0315
30
7.52
0
VERTEX
10
8.25002
20
10.0252
30
7.52
0
VERTEX
10
8.2554
20
10.018
30
7.52
0
VERTEX
10
8.26884
20
10.0064
30
7.52
0
VERTEX
10
8.2805
20
9.9929
30
7.52
0
VERTEX
10
8.28319
20
9.98932
30
7.52
0
VERTEX
10
8.28678
20
9.98842
30
7.52
0
VERTEX
10
8.29126
20
9.98394
30
7.52
0
VERTEX
10
8.29484
20
9.98394
30
7.52
0
VERTEX
10
8.29574
20
9.98214
30
7.52
0
VERTEX
10
8.29753
20
9.98214
30
7.52
0
VERTEX
10
8.29933
20
9.98035
30
7.52
0
VERTEX
10
8.32802
20
9.97945
30
7.52
0
VERTEX
10
8.34236
20
9.97856
30
7.52
0
VERTEX
10
8.34595
20
9.97856
30
7.52
0
VERTEX
10
8.35222
20
9.97497
30
7.52
0
VERTEX
10
8.35581
20
9.97139
30
7.52
0
VERTEX
10
8.37643
20
9.94539
30
7.52
0
VERTEX
10
8.38181
20
9.93911
30
7.52
0
VERTEX
10
8.38181
20
9.93732
30
7.52
0
VERTEX
10
8.38898
20
9.93283
30
7.52
0
VERTEX
10
8.40333
20
9.93463
30
7.52
0
VERTEX
10
8.40691
20
9.93732
30
7.52
0
VERTEX
10
8.4096
20
9.94449
30
7.52
0
VERTEX
10
8.4105
20
9.95166
30
7.52
0
VERTEX
10
8.4096
20
9.95883
30
7.52
0
VERTEX
10
8.40871
20
9.96242
30
7.52
0
VERTEX
10
8.40333
20
9.9687
30
7.52
0
VERTEX
10
8.40064
20
9.97228
30
7.52
0
VERTEX
10
8.40064
20
9.97587
30
7.52
0
VERTEX
10
8.39795
20
9.97945
30
7.52
0
VERTEX
10
8.39795
20
9.98125
30
7.52
0
VERTEX
10
8.39615
20
9.98304
30
7.52
0
VERTEX
10
8.39615
20
9.98483
30
7.52
0
VERTEX
10
8.38988
20
9.99201
30
7.52
0
VERTEX
10
8.38629
20
9.99828
30
7.52
0
VERTEX
10
8.38629
20
10.0001
30
7.52
0
VERTEX
10
8.3836
20
10.0028
30
7.52
0
VERTEX
10
8.3845
20
10.0037
30
7.52
0
VERTEX
10
8.37733
20
10.0055
30
7.52
0
VERTEX
10
8.37374
20
10.0081
30
7.52
0
VERTEX
10
8.37015
20
10.009
30
7.52
0
VERTEX
10
8.36746
20
10.0117
30
7.52
0
VERTEX
10
8.36029
20
10.0117
30
7.52
0
VERTEX
10
8.3585
20
10.0126
30
7.52
0
VERTEX
10
8.35491
20
10.0099
30
7.52
0
VERTEX
10
8.35491
20
10.0081
30
7.52
0
VERTEX
10
8.34774
20
10.0055
30
7.52
0
VERTEX
10
8.3334
20
10.0072
30
7.52
0
VERTEX
10
8.32712
20
10.0117
30
7.52
0
VERTEX
10
8.31995
20
10.0144
30
7.52
0
VERTEX
10
8.31278
20
10.0189
30
7.52
0
VERTEX
10
8.3065
20
10.0252
30
7.52
0
VERTEX
10
8.29215
20
10.0332
30
7.52
0
VERTEX
10
8.28857
20
10.0332
30
7.52
0
VERTEX
10
8.27422
20
10.0422
30
7.52
0
VERTEX
10
8.27333
20
10.0458
30
7.52
0
VERTEX
10
8.27064
20
10.0494
30
7.52
0
VERTEX
10
8.27064
20
10.053
30
7.52
0
VERTEX
10
8.26795
20
10.0601
30
7.52
0
VERTEX
10
8.25809
20
10.0745
30
7.52
0
VERTEX
10
8.25809
20
10.0763
30
7.52
0
VERTEX
10
8.24464
20
10.0888
30
7.52
0
VERTEX
10
8.23029
20
10.0879
30
7.52
0
VERTEX
10
8.22671
20
10.0879
30
7.52
0
VERTEX
10
8.21953
20
10.0844
30
7.52
0
VERTEX
10
8.21685
20
10.0781
30
7.52
0
VERTEX
10
8.21774
20
10.0637
30
7.52
0
VERTEX
10
8.21685
20
10.0503
30
7.52
0
VERTEX
10
8.21595
20
10.044
30
7.52
0
SEQEND
0
POLYLINE
62
227
66
1
70
1
3
endoplasmic_reticulum
0
VERTEX
10
7.90305
20
10.07
30
7.52
0
VERTEX
10
7.90485
20
10.0557
30
7.52
0
VERTEX
10
7.90754
20
10.0485
30
7.52
0
VERTEX
10
7.90933
20
10.0449
30
7.52
0
VERTEX
10
7.91292
20
10.0422
30
7.52
0
VERTEX
10
7.91471
20
10.0422
30
7.52
0
VERTEX
10
7.92188
20
10.0368
30
7.52
0
VERTEX
10
7.93623
20
10.0359
30
7.52
0
VERTEX
10
7.93981
20
10.035
30
7.52
0
VERTEX
10
7.9434
20
10.0368
30
7.52
0
VERTEX
10
7.94788
20
10.0431
30
7.52
0
VERTEX
10
7.95147
20
10.0449
30
7.52
0
VERTEX
10
7.95416
20
10.0521
30
7.52
0
VERTEX
10
7.95416
20
10.0557
30
7.52
0
VERTEX
10
7.95416
20
10.0575
30
7.52
0
VERTEX
10
7.95595
20
10.0592
30
7.52
0
VERTEX
10
7.95595
20
10.061
30
7.52
0
VERTEX
10
7.96312
20
10.0682
30
7.52
0
VERTEX
10
7.9694
20
10.0826
30
7.52
0
VERTEX
10
7.9694
20
10.0897
30
7.52
0
VERTEX
10
7.9694
20
10.0915
30
7.52
0
VERTEX
10
7.96761
20
10.0924
30
7.52
0
VERTEX
10
7.96492
20
10.0996
30
7.52
0
VERTEX
10
7.95864
20
10.1059
30
7.52
0
VERTEX
10
7.95505
20
10.1086
30
7.52
0
VERTEX
10
7.94788
20
10.1095
30
7.52
0
VERTEX
10
7.94071
20
10.1148
30
7.52
0
VERTEX
10
7.93354
20
10.1157
30
7.52
0
VERTEX
10
7.91919
20
10.1077
30
7.52
0
VERTEX
10
7.91292
20
10.1041
30
7.52
0
VERTEX
10
7.90933
20
10.1032
30
7.52
0
VERTEX
10
7.90664
20
10.0996
30
7.52
0
VERTEX
10
7.90395
20
10.0852
30
7.52
0
VERTEX
10
7.90305
20
10.0709
30
7.52
0
SEQEND
0
POLYLINE
62
31
66
1
70
1
3
contour
0
VERTEX
10
7.26293
20
8.89564
30
7.52
0
VERTEX
10
7.26441
20
8.88973
30
7.52
0
VERTEX
10
7.26736
20
8.88677
30
7.52
0
VERTEX
10
7.26441
20
8.87494
30
7.52
0
VERTEX
10
7.26588
20
8.86902
30
7.52
0
VERTEX
10
7.26588
20
8.86607
30
7.52
0
VERTEX
10
7.26884
20
8.86311
30
7.52
0
VERTEX
10
7.27032
20
8.85128
30
7.52
0
VERTEX
10
7.27032
20
8.84832
30
7.52
0
VERTEX
10
7.27476
20
8.8424
30
7.52
0
VERTEX
10
7.27772
20
8.83944
30
7.52
0
VERTEX
10
7.27772
20
8.83353
30
7.52
0
VERTEX
10
7.28215
20
8.8217
30
7.52
0
VERTEX
10
7.28955
20
8.80987
30
7.52
0
VERTEX
10
7.2925
20
8.80839
30
7.52
0
VERTEX
10
7.29398
20
8.79656
30
7.52
0
VERTEX
10
7.2999
20
8.78473
30
7.52
0
VERTEX
10
7.30138
20
8.77881
30
7.52
0
VERTEX
10
7.30138
20
8.77585
30
7.52
0
VERTEX
10
7.31173
20
8.7655
30
7.52
0
VERTEX
10
7.31469
20
8.75958
30
7.52
0
VERTEX
10
7.32504
20
8.75367
30
7.52
0
VERTEX
10
7.3487
20
8.75515
30
7.52
0
VERTEX
10
7.36053
20
8.75515
30
7.52
0
VERTEX
10
7.37237
20
8.7581
30
7.52
0
VERTEX
10
7.37828
20
8.76106
30
7.52
0
VERTEX
10
7.38124
20
8.76106
30
7.52
0
VERTEX
10
7.38568
20
8.7655
30
7.52
0
VERTEX
10
7.39159
20
8.76698
30
7.52
0
VERTEX
10
7.40342
20
8.77733
30
7.52
0
VERTEX
10
7.40786
20
8.78177
30
7.52
0
VERTEX
10
7.40786
20
8.78768
30
7.52
0
VERTEX
10
7.41378
20
8.79804
30
7.52
0
VERTEX
10
7.41525
20
8.80247
30
7.52
0
VERTEX
10
7.42709
20
8.81135
30
7.52
0
VERTEX
10
7.433
20
8.81282
30
7.52
0
VERTEX
10
7.44335
20
8.82022
30
7.52
0
VERTEX
10
7.44483
20
8.81874
30
7.52
0
VERTEX
10
7.45223
20
8.83057
30
7.52
0
VERTEX
10
7.45519
20
8.83353
30
7.52
0
VERTEX
10
7.4611
20
8.83501
30
7.52
0
VERTEX
10
7.4685
20
8.84832
30
7.52
0
VERTEX
10
7.46997
20
8.85128
30
7.52
0
VERTEX
10
7.47589
20
8.85275
30
7.52
0
VERTEX
10
7.48181
20
8.85719
30
7.52
0
VERTEX
10
7.48772
20
8.85719
30
7.52
0
VERTEX
10
7.49068
20
8.86015
30
7.52
0
VERTEX
10
7.49364
20
8.87198
30
7.52
0
VERTEX
10
7.51286
20
8.88973
30
7.52
0
VERTEX
10
7.51878
20
8.89564
30
7.52
0
VERTEX
10
7.51878
20
8.8986
30
7.52
0
VERTEX
10
7.52913
20
8.91043
30
7.52
0
VERTEX
10
7.53209
20
8.91635
30
7.52
0
VERTEX
10
7.54244
20
8.92818
30
7.52
0
VERTEX
10
7.54688
20
8.93409
30
7.52
0
VERTEX
10
7.54984
20
8.93705
30
7.52
0
VERTEX
10
7.55279
20
8.93705
30
7.52
0
VERTEX
10
7.56462
20
8.94593
30
7.52
0
VERTEX
10
7.57498
20
8.95776
30
7.52
0
VERTEX
10
7.58237
20
8.96959
30
7.52
0
VERTEX
10
7.58533
20
8.9755
30
7.52
0
VERTEX
10
7.58533
20
8.97846
30
7.52
0
VERTEX
10
7.60455
20
8.99917
30
7.52
0
VERTEX
10
7.60603
20
9.0036
30
7.52
0
VERTEX
10
7.62674
20
9.01544
30
7.52
0
VERTEX
10
7.64892
20
9.03022
30
7.52
0
VERTEX
10
7.67258
20
9.04058
30
7.52
0
VERTEX
10
7.6785
20
9.04353
30
7.52
0
VERTEX
10
7.68146
20
9.04649
30
7.52
0
VERTEX
10
7.68442
20
9.04649
30
7.52
0
VERTEX
10
7.69329
20
9.05684
30
7.52
0
VERTEX
10
7.70364
20
9.06424
30
7.52
0
VERTEX
10
7.70956
20
9.0672
30
7.52
0
VERTEX
10
7.71252
20
9.07015
30
7.52
0
VERTEX
10
7.71252
20
9.07311
30
7.52
0
VERTEX
10
7.75392
20
9.10713
30
7.52
0
VERTEX
10
7.77315
20
9.1234
30
7.52
0
VERTEX
10
7.81012
20
9.16185
30
7.52
0
VERTEX
10
7.81308
20
9.1648
30
7.52
0
VERTEX
10
7.81604
20
9.1648
30
7.52
0
VERTEX
10
7.819
20
9.16924
30
7.52
0
VERTEX
10
7.82491
20
9.17368
30
7.52
0
VERTEX
10
7.82787
20
9.17664
30
7.52
0
VERTEX
10
7.8397
20
9.17664
30
7.52
0
VERTEX
10
7.84562
20
9.17664
30
7.52
0
VERTEX
10
7.85153
20
9.17959
30
7.52
0
VERTEX
10
7.86336
20
9.18995
30
7.52
0
VERTEX
10
7.86632
20
9.21361
30
7.52
0
VERTEX
10
7.8678
20
9.22544
30
7.52
0
VERTEX
10
7.86632
20
9.2284
30
7.52
0
VERTEX
10
7.86041
20
9.2284
30
7.52
0
VERTEX
10
7.85745
20
9.22988
30
7.52
0
VERTEX
10
7.85745
20
9.23579
30
7.52
0
VERTEX
10
7.85153
20
9.24762
30
7.52
0
VERTEX
10
7.85449
20
9.25354
30
7.52
0
VERTEX
10
7.85301
20
9.2565
30
7.52
0
VERTEX
10
7.82935
20
9.25502
30
7.52
0
VERTEX
10
7.80569
20
9.24467
30
7.52
0
VERTEX
10
7.79829
20
9.23431
30
7.52
0
VERTEX
10
7.77611
20
9.22396
30
7.52
0
VERTEX
10
7.76428
20
9.21657
30
7.52
0
VERTEX
10
7.75836
20
9.21509
30
7.52
0
VERTEX
10
7.7347
20
9.19882
30
7.52
0
VERTEX
10
7.73026
20
9.19438
30
7.52
0
VERTEX
10
7.7066
20
9.18699
30
7.52
0
VERTEX
10
7.69477
20
9.17959
30
7.52
0
VERTEX
10
7.68885
20
9.17959
30
7.52
0
VERTEX
10
7.67702
20
9.17368
30
7.52
0
VERTEX
10
7.67111
20
9.1722
30
7.52
0
VERTEX
10
7.66075
20
9.1648
30
7.52
0
VERTEX
10
7.65484
20
9.15889
30
7.52
0
VERTEX
10
7.65484
20
9.15593
30
7.52
0
VERTEX
10
7.64301
20
9.15002
30
7.52
0
VERTEX
10
7.64153
20
9.1441
30
7.52
0
VERTEX
10
7.62082
20
9.12783
30
7.52
0
VERTEX
10
7.60899
20
9.11748
30
7.52
0
VERTEX
10
7.56315
20
9.08938
30
7.52
0
VERTEX
10
7.55575
20
9.08199
30
7.52
0
VERTEX
10
7.54984
20
9.07903
30
7.52
0
VERTEX
10
7.54688
20
9.07311
30
7.52
0
VERTEX
10
7.53505
20
9.06424
30
7.52
0
VERTEX
10
7.53061
20
9.0598
30
7.52
0
VERTEX
10
7.53061
20
9.05389
30
7.52
0
VERTEX
10
7.52026
20
9.04501
30
7.52
0
VERTEX
10
7.51434
20
9.0391
30
7.52
0
VERTEX
10
7.51138
20
9.03318
30
7.52
0
VERTEX
10
7.49955
20
9.02579
30
7.52
0
VERTEX
10
7.48772
20
9.02135
30
7.52
0
VERTEX
10
7.48181
20
9.01691
30
7.52
0
VERTEX
10
7.47885
20
9.01691
30
7.52
0
VERTEX
10
7.47589
20
9.01396
30
7.52
0
VERTEX
10
7.46406
20
9.011
30
7.52
0
VERTEX
10
7.45814
20
9.011
30
7.52
0
VERTEX
10
7.45519
20
9.011
30
7.52
0
VERTEX
10
7.44927
20
9.00508
30
7.52
0
VERTEX
10
7.44631
20
9.00212
30
7.52
0
VERTEX
10
7.42265
20
8.99473
30
7.52
0
VERTEX
10
7.41082
20
8.99325
30
7.52
0
VERTEX
10
7.40786
20
8.99029
30
7.52
0
VERTEX
10
7.39603
20
8.99029
30
7.52
0
VERTEX
10
7.3842
20
8.98734
30
7.52
0
VERTEX
10
7.38124
20
8.98438
30
7.52
0
VERTEX
10
7.36941
20
8.98142
30
7.52
0
VERTEX
10
7.36645
20
8.97846
30
7.52
0
VERTEX
10
7.36349
20
8.97846
30
7.52
0
VERTEX
10
7.36053
20
8.9755
30
7.52
0
VERTEX
10
7.33687
20
8.97403
30
7.52
0
VERTEX
10
7.33391
20
8.97107
30
7.52
0
VERTEX
10
7.32208
20
8.97107
30
7.52
0
VERTEX
10
7.31025
20
8.96811
30
7.52
0
VERTEX
10
7.28659
20
8.96811
30
7.52
0
VERTEX
10
7.28067
20
8.96811
30
7.52
0
VERTEX
10
7.27032
20
8.95776
30
7.52
0
VERTEX
10
7.26588
20
8.95184
30
7.52
0
VERTEX
10
7.26293
20
8.92818
30
7.52
0
VERTEX
10
7.26293
20
8.90452
30
7.52
0
VERTEX
10
7.26293
20
8.8986
30
7.52
0
VERTEX
10
7.26293
20
8.89712
30
7.52
0
SEQEND
0
ENDSEC
0
EOF
