0
SECTION
2
ENTITIES
0
POLYLINE
62
224
66
1
70
1
3
mitochondrion
0
VERTEX
10
7.4249
20
10.6479
30
9.44
0
VERTEX
10
7.42768
20
10.6368
30
9.44
0
VERTEX
10
7.42768
20
10.6312
30
9.44
0
VERTEX
10
7.43046
20
10.6257
30
9.44
0
VERTEX
10
7.43185
20
10.6145
30
9.44
0
VERTEX
10
7.4388
20
10.5923
30
9.44
0
VERTEX
10
7.44714
20
10.5826
30
9.44
0
VERTEX
10
7.44853
20
10.5714
30
9.44
0
VERTEX
10
7.44992
20
10.5659
30
9.44
0
VERTEX
10
7.44992
20
10.5631
30
9.44
0
VERTEX
10
7.48747
20
10.5228
30
9.44
0
VERTEX
10
7.49303
20
10.52
30
9.44
0
VERTEX
10
7.49859
20
10.5144
30
9.44
0
VERTEX
10
7.50415
20
10.513
30
9.44
0
VERTEX
10
7.51527
20
10.5061
30
9.44
0
VERTEX
10
7.51805
20
10.5061
30
9.44
0
VERTEX
10
7.52084
20
10.5033
30
9.44
0
VERTEX
10
7.52362
20
10.5033
30
9.44
0
VERTEX
10
7.53474
20
10.4964
30
9.44
0
VERTEX
10
7.55699
20
10.488
30
9.44
0
VERTEX
10
7.60148
20
10.4838
30
9.44
0
VERTEX
10
7.62373
20
10.4866
30
9.44
0
VERTEX
10
7.63485
20
10.4922
30
9.44
0
VERTEX
10
7.64597
20
10.495
30
9.44
0
VERTEX
10
7.65154
20
10.4964
30
9.44
0
VERTEX
10
7.66266
20
10.5047
30
9.44
0
VERTEX
10
7.66683
20
10.5089
30
9.44
0
VERTEX
10
7.67239
20
10.5103
30
9.44
0
VERTEX
10
7.67656
20
10.5158
30
9.44
0
VERTEX
10
7.68213
20
10.5172
30
9.44
0
VERTEX
10
7.69186
20
10.5269
30
9.44
0
VERTEX
10
7.69603
20
10.5325
30
9.44
0
VERTEX
10
7.69742
20
10.5381
30
9.44
0
VERTEX
10
7.70298
20
10.5408
30
9.44
0
VERTEX
10
7.70715
20
10.552
30
9.44
0
VERTEX
10
7.70854
20
10.5631
30
9.44
0
VERTEX
10
7.70715
20
10.5853
30
9.44
0
VERTEX
10
7.70715
20
10.5909
30
9.44
0
VERTEX
10
7.70437
20
10.5965
30
9.44
0
VERTEX
10
7.70437
20
10.6076
30
9.44
0
VERTEX
10
7.7002
20
10.6187
30
9.44
0
VERTEX
10
7.69742
20
10.6243
30
9.44
0
VERTEX
10
7.69742
20
10.6298
30
9.44
0
VERTEX
10
7.69186
20
10.641
30
9.44
0
VERTEX
10
7.6863
20
10.6451
30
9.44
0
VERTEX
10
7.6863
20
10.6479
30
9.44
0
VERTEX
10
7.67656
20
10.6576
30
9.44
0
VERTEX
10
7.671
20
10.6799
30
9.44
0
VERTEX
10
7.66683
20
10.6896
30
9.44
0
VERTEX
10
7.66405
20
10.6924
30
9.44
0
VERTEX
10
7.66266
20
10.698
30
9.44
0
VERTEX
10
7.65432
20
10.7091
30
9.44
0
VERTEX
10
7.65015
20
10.7133
30
9.44
0
VERTEX
10
7.64736
20
10.7147
30
9.44
0
VERTEX
10
7.64736
20
10.7174
30
9.44
0
VERTEX
10
7.63346
20
10.7369
30
9.44
0
VERTEX
10
7.63068
20
10.7369
30
9.44
0
VERTEX
10
7.6279
20
10.7425
30
9.44
0
VERTEX
10
7.60704
20
10.755
30
9.44
0
VERTEX
10
7.60426
20
10.7578
30
9.44
0
VERTEX
10
7.55977
20
10.7619
30
9.44
0
VERTEX
10
7.53752
20
10.7591
30
9.44
0
VERTEX
10
7.5264
20
10.7591
30
9.44
0
VERTEX
10
7.52084
20
10.7591
30
9.44
0
VERTEX
10
7.50971
20
10.755
30
9.44
0
VERTEX
10
7.48747
20
10.7522
30
9.44
0
VERTEX
10
7.47634
20
10.7494
30
9.44
0
VERTEX
10
7.47078
20
10.7494
30
9.44
0
VERTEX
10
7.46522
20
10.7466
30
9.44
0
VERTEX
10
7.45966
20
10.748
30
9.44
0
VERTEX
10
7.44158
20
10.7286
30
9.44
0
VERTEX
10
7.44019
20
10.723
30
9.44
0
VERTEX
10
7.43324
20
10.7119
30
9.44
0
VERTEX
10
7.4249
20
10.6896
30
9.44
0
VERTEX
10
7.4249
20
10.6674
30
9.44
0
VERTEX
10
7.4249
20
10.6563
30
9.44
0
VERTEX
10
7.4249
20
10.6507
30
9.44
0
VERTEX
10
7.4249
20
10.6493
30
9.44
0
SEQEND
0
POLYLINE
62
227
66
1
70
1
3
endoplasmic_reticulum
0
VERTEX
10
7.64216
20
10.347
30
9.44
0
VERTEX
10
7.64485
20
10.3399
30
9.44
0
VERTEX
10
7.64575
20
10.3363
30
9.44
0
VERTEX
10
7.65023
20
10.3291
30
9.44
0
VERTEX
10
7.65023
20
10.3273
30
9.44
0
VERTEX
10
7.65561
20
10.321
30
9.44
0
VERTEX
10
7.6574
20
10.3192
30
9.44
0
VERTEX
10
7.6574
20
10.3175
30
9.44
0
VERTEX
10
7.66009
20
10.3148
30
9.44
0
VERTEX
10
7.66009
20
10.313
30
9.44
0
VERTEX
10
7.66547
20
10.3076
30
9.44
0
VERTEX
10
7.66726
20
10.3058
30
9.44
0
VERTEX
10
7.67085
20
10.3058
30
9.44
0
VERTEX
10
7.67264
20
10.304
30
9.44
0
VERTEX
10
7.67443
20
10.304
30
9.44
0
VERTEX
10
7.68878
20
10.295
30
9.44
0
VERTEX
10
7.69057
20
10.2932
30
9.44
0
VERTEX
10
7.69237
20
10.2932
30
9.44
0
VERTEX
10
7.69595
20
10.2906
30
9.44
0
VERTEX
10
7.70312
20
10.2888
30
9.44
0
VERTEX
10
7.70492
20
10.2888
30
9.44
0
VERTEX
10
7.70671
20
10.287
30
9.44
0
VERTEX
10
7.72106
20
10.2861
30
9.44
0
VERTEX
10
7.7354
20
10.2879
30
9.44
0
VERTEX
10
7.74974
20
10.2932
30
9.44
0
VERTEX
10
7.75333
20
10.295
30
9.44
0
VERTEX
10
7.75512
20
10.2968
30
9.44
0
VERTEX
10
7.75423
20
10.3112
30
9.44
0
VERTEX
10
7.75423
20
10.3183
30
9.44
0
VERTEX
10
7.75243
20
10.3219
30
9.44
0
VERTEX
10
7.75064
20
10.3237
30
9.44
0
VERTEX
10
7.74974
20
10.3273
30
9.44
0
VERTEX
10
7.74437
20
10.3345
30
9.44
0
VERTEX
10
7.73719
20
10.3417
30
9.44
0
VERTEX
10
7.73002
20
10.3443
30
9.44
0
VERTEX
10
7.72285
20
10.3452
30
9.44
0
VERTEX
10
7.71926
20
10.3461
30
9.44
0
VERTEX
10
7.71747
20
10.3461
30
9.44
0
VERTEX
10
7.71568
20
10.3479
30
9.44
0
VERTEX
10
7.68699
20
10.3596
30
9.44
0
VERTEX
10
7.67264
20
10.3623
30
9.44
0
VERTEX
10
7.66547
20
10.3623
30
9.44
0
VERTEX
10
7.66188
20
10.3641
30
9.44
0
VERTEX
10
7.65471
20
10.3641
30
9.44
0
VERTEX
10
7.65112
20
10.3632
30
9.44
0
VERTEX
10
7.64754
20
10.3605
30
9.44
0
VERTEX
10
7.64306
20
10.3533
30
9.44
0
VERTEX
10
7.64216
20
10.3497
30
9.44
0
VERTEX
10
7.64216
20
10.3479
30
9.44
0
SEQEND
0
POLYLINE
62
227
66
1
70
1
3
endoplasmic_reticulum
0
VERTEX
10
7.3472
20
10.4331
30
9.44
0
VERTEX
10
7.35078
20
10.4268
30
9.44
0
VERTEX
10
7.35168
20
10.4232
30
9.44
0
VERTEX
10
7.35706
20
10.4179
30
9.44
0
VERTEX
10
7.35975
20
10.4143
30
9.44
0
VERTEX
10
7.36154
20
10.4134
30
9.44
0
VERTEX
10
7.36154
20
10.4116
30
9.44
0
VERTEX
10
7.36871
20
10.4062
30
9.44
0
VERTEX
10
7.37588
20
10.4026
30
9.44
0
VERTEX
10
7.38306
20
10.3972
30
9.44
0
VERTEX
10
7.39023
20
10.3963
30
9.44
0
VERTEX
10
7.3974
20
10.3937
30
9.44
0
VERTEX
10
7.41175
20
10.3928
30
9.44
0
VERTEX
10
7.41892
20
10.391
30
9.44
0
VERTEX
10
7.43326
20
10.391
30
9.44
0
VERTEX
10
7.44044
20
10.3919
30
9.44
0
VERTEX
10
7.44761
20
10.3946
30
9.44
0
VERTEX
10
7.4494
20
10.3963
30
9.44
0
VERTEX
10
7.45119
20
10.3963
30
9.44
0
VERTEX
10
7.45657
20
10.4026
30
9.44
0
VERTEX
10
7.45837
20
10.4062
30
9.44
0
VERTEX
10
7.46195
20
10.408
30
9.44
0
VERTEX
10
7.46464
20
10.4116
30
9.44
0
VERTEX
10
7.46644
20
10.4125
30
9.44
0
VERTEX
10
7.46733
20
10.4161
30
9.44
0
VERTEX
10
7.47182
20
10.4223
30
9.44
0
VERTEX
10
7.47361
20
10.4259
30
9.44
0
VERTEX
10
7.4745
20
10.4331
30
9.44
0
VERTEX
10
7.47809
20
10.4358
30
9.44
0
VERTEX
10
7.48078
20
10.443
30
9.44
0
VERTEX
10
7.48078
20
10.4501
30
9.44
0
VERTEX
10
7.47899
20
10.4573
30
9.44
0
VERTEX
10
7.47899
20
10.4609
30
9.44
0
VERTEX
10
7.47719
20
10.4645
30
9.44
0
VERTEX
10
7.47719
20
10.4681
30
9.44
0
VERTEX
10
7.47361
20
10.4752
30
9.44
0
VERTEX
10
7.46823
20
10.4824
30
9.44
0
VERTEX
10
7.46464
20
10.4851
30
9.44
0
VERTEX
10
7.45478
20
10.4977
30
9.44
0
VERTEX
10
7.44761
20
10.495
30
9.44
0
VERTEX
10
7.44402
20
10.4986
30
9.44
0
VERTEX
10
7.43685
20
10.5012
30
9.44
0
VERTEX
10
7.42251
20
10.4986
30
9.44
0
VERTEX
10
7.40816
20
10.4977
30
9.44
0
VERTEX
10
7.40099
20
10.495
30
9.44
0
VERTEX
10
7.3992
20
10.4941
30
9.44
0
VERTEX
10
7.3983
20
10.4905
30
9.44
0
VERTEX
10
7.39471
20
10.4896
30
9.44
0
VERTEX
10
7.39292
20
10.4896
30
9.44
0
VERTEX
10
7.39113
20
10.4878
30
9.44
0
VERTEX
10
7.38395
20
10.486
30
9.44
0
VERTEX
10
7.38216
20
10.4842
30
9.44
0
VERTEX
10
7.37499
20
10.4824
30
9.44
0
VERTEX
10
7.3714
20
10.4797
30
9.44
0
VERTEX
10
7.36423
20
10.4779
30
9.44
0
VERTEX
10
7.35706
20
10.4726
30
9.44
0
VERTEX
10
7.35257
20
10.4663
30
9.44
0
VERTEX
10
7.34809
20
10.4519
30
9.44
0
VERTEX
10
7.3472
20
10.4376
30
9.44
0
VERTEX
10
7.3472
20
10.434
30
9.44
0
SEQEND
0
POLYLINE
62
227
66
1
70
1
3
endoplasmic_reticulum
0
VERTEX
10
7.22168
20
10.6286
30
9.44
0
VERTEX
10
7.22347
20
10.6268
30
9.44
0
VERTEX
10
7.22347
20
10.6232
30
9.44
0
VERTEX
10
7.22527
20
10.6196
30
9.44
0
VERTEX
10
7.22616
20
10.6178
30
9.44
0
VERTEX
10
7.24051
20
10.6214
30
9.44
0
VERTEX
10
7.24768
20
10.6214
30
9.44
0
VERTEX
10
7.25126
20
10.6205
30
9.44
0
VERTEX
10
7.25306
20
10.6205
30
9.44
0
VERTEX
10
7.25664
20
10.6133
30
9.44
0
VERTEX
10
7.25844
20
10.6115
30
9.44
0
VERTEX
10
7.26113
20
10.6043
30
9.44
0
VERTEX
10
7.2683
20
10.599
30
9.44
0
VERTEX
10
7.27099
20
10.5954
30
9.44
0
VERTEX
10
7.27458
20
10.5945
30
9.44
0
VERTEX
10
7.28085
20
10.59
30
9.44
0
VERTEX
10
7.28264
20
10.5882
30
9.44
0
VERTEX
10
7.28444
20
10.5882
30
9.44
0
VERTEX
10
7.2952
20
10.5748
30
9.44
0
VERTEX
10
7.2952
20
10.573
30
9.44
0
VERTEX
10
7.29968
20
10.5658
30
9.44
0
VERTEX
10
7.30237
20
10.5586
30
9.44
0
VERTEX
10
7.30506
20
10.555
30
9.44
0
VERTEX
10
7.30864
20
10.5532
30
9.44
0
VERTEX
10
7.31223
20
10.5497
30
9.44
0
VERTEX
10
7.31313
20
10.5461
30
9.44
0
VERTEX
10
7.31671
20
10.5434
30
9.44
0
VERTEX
10
7.33106
20
10.5434
30
9.44
0
VERTEX
10
7.33464
20
10.5443
30
9.44
0
VERTEX
10
7.34092
20
10.5497
30
9.44
0
VERTEX
10
7.34271
20
10.5532
30
9.44
0
VERTEX
10
7.34271
20
10.5819
30
9.44
0
VERTEX
10
7.34092
20
10.5855
30
9.44
0
VERTEX
10
7.34092
20
10.5873
30
9.44
0
VERTEX
10
7.33644
20
10.5945
30
9.44
0
VERTEX
10
7.33554
20
10.5981
30
9.44
0
VERTEX
10
7.33285
20
10.6008
30
9.44
0
VERTEX
10
7.33106
20
10.6017
30
9.44
0
VERTEX
10
7.33016
20
10.6052
30
9.44
0
VERTEX
10
7.33016
20
10.607
30
9.44
0
VERTEX
10
7.32478
20
10.6124
30
9.44
0
VERTEX
10
7.32209
20
10.6187
30
9.44
0
VERTEX
10
7.31671
20
10.625
30
9.44
0
VERTEX
10
7.30237
20
10.6277
30
9.44
0
VERTEX
10
7.2952
20
10.6277
30
9.44
0
VERTEX
10
7.29161
20
10.6277
30
9.44
0
VERTEX
10
7.28982
20
10.6277
30
9.44
0
VERTEX
10
7.28623
20
10.6303
30
9.44
0
VERTEX
10
7.27906
20
10.633
30
9.44
0
VERTEX
10
7.27547
20
10.6348
30
9.44
0
VERTEX
10
7.27458
20
10.642
30
9.44
0
VERTEX
10
7.27278
20
10.6456
30
9.44
0
VERTEX
10
7.27278
20
10.6528
30
9.44
0
VERTEX
10
7.27099
20
10.6563
30
9.44
0
VERTEX
10
7.2674
20
10.6599
30
9.44
0
VERTEX
10
7.26382
20
10.6617
30
9.44
0
VERTEX
10
7.24947
20
10.6608
30
9.44
0
VERTEX
10
7.2423
20
10.6581
30
9.44
0
VERTEX
10
7.2414
20
10.6563
30
9.44
0
VERTEX
10
7.23423
20
10.6555
30
9.44
0
VERTEX
10
7.23064
20
10.6546
30
9.44
0
VERTEX
10
7.22527
20
10.6483
30
9.44
0
VERTEX
10
7.22258
20
10.6411
30
9.44
0
VERTEX
10
7.22168
20
10.6339
30
9.44
0
VERTEX
10
7.22168
20
10.6303
30
9.44
0
VERTEX
10
7.22168
20
10.6295
30
9.44
0
SEQEND
0
POLYLINE
62
227
66
1
70
1
3
endoplasmic_reticulum
0
VERTEX
10
7.50499
20
10.4331
30
9.44
0
VERTEX
10
7.50678
20
10.4188
30
9.44
0
VERTEX
10
7.51037
20
10.4152
30
9.44
0
VERTEX
10
7.51216
20
10.4134
30
9.44
0
VERTEX
10
7.51395
20
10.4134
30
9.44
0
VERTEX
10
7.51933
20
10.408
30
9.44
0
VERTEX
10
7.52292
20
10.4053
30
9.44
0
VERTEX
10
7.52471
20
10.4053
30
9.44
0
VERTEX
10
7.5283
20
10.4026
30
9.44
0
VERTEX
10
7.53547
20
10.4017
30
9.44
0
VERTEX
10
7.53637
20
10.3999
30
9.44
0
VERTEX
10
7.55071
20
10.3999
30
9.44
0
VERTEX
10
7.55788
20
10.4008
30
9.44
0
VERTEX
10
7.56416
20
10.4062
30
9.44
0
VERTEX
10
7.56685
20
10.4098
30
9.44
0
VERTEX
10
7.57044
20
10.4107
30
9.44
0
VERTEX
10
7.57492
20
10.417
30
9.44
0
VERTEX
10
7.57223
20
10.4313
30
9.44
0
VERTEX
10
7.57044
20
10.4331
30
9.44
0
VERTEX
10
7.56954
20
10.4367
30
9.44
0
VERTEX
10
7.55968
20
10.4483
30
9.44
0
VERTEX
10
7.55519
20
10.4528
30
9.44
0
VERTEX
10
7.5265
20
10.4501
30
9.44
0
VERTEX
10
7.51933
20
10.4492
30
9.44
0
VERTEX
10
7.51575
20
10.4492
30
9.44
0
VERTEX
10
7.50857
20
10.4448
30
9.44
0
VERTEX
10
7.50499
20
10.4412
30
9.44
0
VERTEX
10
7.50499
20
10.434
30
9.44
0
SEQEND
0
POLYLINE
62
227
66
1
70
1
3
endoplasmic_reticulum
0
VERTEX
10
7.64575
20
10.4475
30
9.44
0
VERTEX
10
7.64664
20
10.4439
30
9.44
0
VERTEX
10
7.66099
20
10.434
30
9.44
0
VERTEX
10
7.66816
20
10.4295
30
9.44
0
VERTEX
10
7.66995
20
10.4295
30
9.44
0
VERTEX
10
7.67175
20
10.4277
30
9.44
0
VERTEX
10
7.67354
20
10.4277
30
9.44
0
VERTEX
10
7.67712
20
10.425
30
9.44
0
VERTEX
10
7.68071
20
10.4241
30
9.44
0
VERTEX
10
7.6825
20
10.4223
30
9.44
0
VERTEX
10
7.69685
20
10.4232
30
9.44
0
VERTEX
10
7.70402
20
10.425
30
9.44
0
VERTEX
10
7.70761
20
10.425
30
9.44
0
VERTEX
10
7.71119
20
10.4268
30
9.44
0
VERTEX
10
7.71478
20
10.4268
30
9.44
0
VERTEX
10
7.72016
20
10.4331
30
9.44
0
VERTEX
10
7.72374
20
10.4394
30
9.44
0
VERTEX
10
7.72374
20
10.4466
30
9.44
0
VERTEX
10
7.72195
20
10.4537
30
9.44
0
VERTEX
10
7.72195
20
10.4555
30
9.44
0
VERTEX
10
7.72016
20
10.4573
30
9.44
0
VERTEX
10
7.71926
20
10.4609
30
9.44
0
VERTEX
10
7.71388
20
10.4672
30
9.44
0
VERTEX
10
7.70671
20
10.4743
30
9.44
0
VERTEX
10
7.70671
20
10.4779
30
9.44
0
VERTEX
10
7.69237
20
10.4797
30
9.44
0
VERTEX
10
7.68878
20
10.477
30
9.44
0
VERTEX
10
7.68788
20
10.4735
30
9.44
0
VERTEX
10
7.6834
20
10.4663
30
9.44
0
VERTEX
10
7.68071
20
10.4627
30
9.44
0
VERTEX
10
7.67354
20
10.46
30
9.44
0
VERTEX
10
7.65919
20
10.4591
30
9.44
0
VERTEX
10
7.6574
20
10.4573
30
9.44
0
VERTEX
10
7.65023
20
10.4573
30
9.44
0
VERTEX
10
7.64575
20
10.451
30
9.44
0
VERTEX
10
7.64575
20
10.4483
30
9.44
0
SEQEND
0
POLYLINE
62
227
66
1
70
1
3
endoplasmic_reticulum
0
VERTEX
10
7.29161
20
10.6859
30
9.44
0
VERTEX
10
7.2952
20
10.6841
30
9.44
0
VERTEX
10
7.30954
20
10.685
30
9.44
0
VERTEX
10
7.31133
20
10.685
30
9.44
0
VERTEX
10
7.31492
20
10.6877
30
9.44
0
VERTEX
10
7.31671
20
10.6895
30
9.44
0
VERTEX
10
7.31851
20
10.6895
30
9.44
0
VERTEX
10
7.33195
20
10.6994
30
9.44
0
VERTEX
10
7.3463
20
10.7048
30
9.44
0
VERTEX
10
7.35347
20
10.7075
30
9.44
0
VERTEX
10
7.35706
20
10.7101
30
9.44
0
VERTEX
10
7.36064
20
10.711
30
9.44
0
VERTEX
10
7.36782
20
10.7155
30
9.44
0
VERTEX
10
7.3714
20
10.7182
30
9.44
0
VERTEX
10
7.38575
20
10.7227
30
9.44
0
VERTEX
10
7.38933
20
10.7245
30
9.44
0
VERTEX
10
7.39113
20
10.7263
30
9.44
0
VERTEX
10
7.39471
20
10.7272
30
9.44
0
VERTEX
10
7.39651
20
10.7272
30
9.44
0
VERTEX
10
7.3983
20
10.7308
30
9.44
0
VERTEX
10
7.40188
20
10.7335
30
9.44
0
VERTEX
10
7.40368
20
10.7335
30
9.44
0
VERTEX
10
7.40637
20
10.737
30
9.44
0
VERTEX
10
7.41354
20
10.7406
30
9.44
0
VERTEX
10
7.41713
20
10.7415
30
9.44
0
VERTEX
10
7.42071
20
10.7442
30
9.44
0
VERTEX
10
7.4243
20
10.7514
30
9.44
0
VERTEX
10
7.4234
20
10.7586
30
9.44
0
VERTEX
10
7.4234
20
10.7621
30
9.44
0
VERTEX
10
7.42071
20
10.7657
30
9.44
0
VERTEX
10
7.40637
20
10.7693
30
9.44
0
VERTEX
10
7.3992
20
10.7675
30
9.44
0
VERTEX
10
7.39561
20
10.7666
30
9.44
0
VERTEX
10
7.39382
20
10.7666
30
9.44
0
VERTEX
10
7.39202
20
10.7648
30
9.44
0
VERTEX
10
7.38485
20
10.7639
30
9.44
0
VERTEX
10
7.37857
20
10.7594
30
9.44
0
VERTEX
10
7.3723
20
10.7532
30
9.44
0
VERTEX
10
7.36961
20
10.7496
30
9.44
0
VERTEX
10
7.36871
20
10.746
30
9.44
0
VERTEX
10
7.36154
20
10.7406
30
9.44
0
VERTEX
10
7.35526
20
10.7335
30
9.44
0
VERTEX
10
7.35347
20
10.7335
30
9.44
0
VERTEX
10
7.33913
20
10.7245
30
9.44
0
VERTEX
10
7.33733
20
10.7245
30
9.44
0
VERTEX
10
7.33375
20
10.7218
30
9.44
0
VERTEX
10
7.33195
20
10.72
30
9.44
0
VERTEX
10
7.32478
20
10.7173
30
9.44
0
VERTEX
10
7.3212
20
10.7164
30
9.44
0
VERTEX
10
7.31761
20
10.7137
30
9.44
0
VERTEX
10
7.31402
20
10.7128
30
9.44
0
VERTEX
10
7.31044
20
10.7101
30
9.44
0
VERTEX
10
7.29609
20
10.7039
30
9.44
0
VERTEX
10
7.2952
20
10.7003
30
9.44
0
VERTEX
10
7.2952
20
10.6985
30
9.44
0
VERTEX
10
7.2934
20
10.6967
30
9.44
0
VERTEX
10
7.2934
20
10.6895
30
9.44
0
VERTEX
10
7.29251
20
10.6868
30
9.44
0
SEQEND
0
POLYLINE
62
31
66
1
70
1
3
contour
0
VERTEX
10
6.54559
20
10.9843
30
9.44
0
VERTEX
10
6.55363
20
10.9586
30
9.44
0
VERTEX
10
6.56006
20
10.9457
30
9.44
0
VERTEX
10
6.57773
20
10.9216
30
9.44
0
VERTEX
10
6.58416
20
10.9088
30
9.44
0
VERTEX
10
6.60345
20
10.8863
30
9.44
0
VERTEX
10
6.61309
20
10.8734
30
9.44
0
VERTEX
10
6.61309
20
10.8702
30
9.44
0
VERTEX
10
6.6163
20
10.8686
30
9.44
0
VERTEX
10
6.61952
20
10.8558
30
9.44
0
VERTEX
10
6.62434
20
10.8493
30
9.44
0
VERTEX
10
6.62595
20
10.8429
30
9.44
0
VERTEX
10
6.62595
20
10.8397
30
9.44
0
VERTEX
10
6.63559
20
10.83
30
9.44
0
VERTEX
10
6.64202
20
10.8252
30
9.44
0
VERTEX
10
6.64523
20
10.822
30
9.44
0
VERTEX
10
6.65166
20
10.8204
30
9.44
0
VERTEX
10
6.65327
20
10.8172
30
9.44
0
VERTEX
10
6.65969
20
10.8156
30
9.44
0
VERTEX
10
6.66291
20
10.8156
30
9.44
0
VERTEX
10
6.66612
20
10.8124
30
9.44
0
VERTEX
10
6.69184
20
10.8091
30
9.44
0
VERTEX
10
6.71755
20
10.8027
30
9.44
0
VERTEX
10
6.73041
20
10.8011
30
9.44
0
VERTEX
10
6.73683
20
10.8011
30
9.44
0
VERTEX
10
6.74969
20
10.7963
30
9.44
0
VERTEX
10
6.75612
20
10.7947
30
9.44
0
VERTEX
10
6.75933
20
10.7947
30
9.44
0
VERTEX
10
6.76576
20
10.7899
30
9.44
0
VERTEX
10
6.77219
20
10.7899
30
9.44
0
VERTEX
10
6.77862
20
10.7866
30
9.44
0
VERTEX
10
6.80433
20
10.7883
30
9.44
0
VERTEX
10
6.81719
20
10.7915
30
9.44
0
VERTEX
10
6.82201
20
10.7979
30
9.44
0
VERTEX
10
6.82522
20
10.8091
30
9.44
0
VERTEX
10
6.82362
20
10.8349
30
9.44
0
VERTEX
10
6.81879
20
10.8477
30
9.44
0
VERTEX
10
6.81558
20
10.8509
30
9.44
0
VERTEX
10
6.81558
20
10.8574
30
9.44
0
VERTEX
10
6.80755
20
10.8702
30
9.44
0
VERTEX
10
6.80433
20
10.8734
30
9.44
0
VERTEX
10
6.80272
20
10.8799
30
9.44
0
VERTEX
10
6.78505
20
10.9008
30
9.44
0
VERTEX
10
6.78023
20
10.9072
30
9.44
0
VERTEX
10
6.7754
20
10.9329
30
9.44
0
VERTEX
10
6.77058
20
10.9457
30
9.44
0
VERTEX
10
6.77058
20
10.9522
30
9.44
0
VERTEX
10
6.76415
20
10.965
30
9.44
0
VERTEX
10
6.76415
20
10.9682
30
9.44
0
VERTEX
10
6.75612
20
10.9795
30
9.44
0
VERTEX
10
6.7529
20
10.9843
30
9.44
0
VERTEX
10
6.74648
20
10.9859
30
9.44
0
VERTEX
10
6.74326
20
10.9891
30
9.44
0
VERTEX
10
6.74005
20
10.9891
30
9.44
0
VERTEX
10
6.73041
20
10.9988
30
9.44
0
VERTEX
10
6.67898
20
11.0036
30
9.44
0
VERTEX
10
6.67577
20
11.0068
30
9.44
0
VERTEX
10
6.65005
20
11.0052
30
9.44
0
VERTEX
10
6.62434
20
11.0068
30
9.44
0
VERTEX
10
6.61148
20
11.0084
30
9.44
0
VERTEX
10
6.60827
20
11.0084
30
9.44
0
VERTEX
10
6.60505
20
11.0116
30
9.44
0
VERTEX
10
6.57934
20
11.0165
30
9.44
0
VERTEX
10
6.56648
20
11.0197
30
9.44
0
VERTEX
10
6.55363
20
11.0197
30
9.44
0
VERTEX
10
6.54559
20
11.0084
30
9.44
0
VERTEX
10
6.54559
20
10.9956
30
9.44
0
VERTEX
10
6.54559
20
10.9891
30
9.44
0
VERTEX
10
6.54559
20
10.9859
30
9.44
0
SEQEND
0
POLYLINE
62
236
66
1
70
1
3
postsynaptic_density
0
VERTEX
10
7.79432
20
10.6688
30
9.44
0
VERTEX
10
7.81406
20
10.6564
30
9.44
0
VERTEX
10
7.82393
20
10.6515
30
9.44
0
VERTEX
10
7.8264
20
10.6466
30
9.44
0
VERTEX
10
7.82146
20
10.6367
30
9.44
0
VERTEX
10
7.81653
20
10.6342
30
9.44
0
VERTEX
10
7.81899
20
10.5553
30
9.44
0
VERTEX
10
7.82393
20
10.5454
30
9.44
0
VERTEX
10
7.82393
20
10.5257
30
9.44
0
VERTEX
10
7.82886
20
10.5059
30
9.44
0
VERTEX
10
7.83627
20
10.4961
30
9.44
0
VERTEX
10
7.856
20
10.4936
30
9.44
0
VERTEX
10
7.86587
20
10.4862
30
9.44
0
VERTEX
10
7.88561
20
10.4813
30
9.44
0
VERTEX
10
7.88808
20
10.4763
30
9.44
0
VERTEX
10
7.92756
20
10.4714
30
9.44
0
VERTEX
10
7.9473
20
10.4714
30
9.44
0
VERTEX
10
7.96704
20
10.464
30
9.44
0
VERTEX
10
7.97197
20
10.464
30
9.44
0
VERTEX
10
7.99171
20
10.4516
30
9.44
0
VERTEX
10
8.03119
20
10.4418
30
9.44
0
VERTEX
10
8.03859
20
10.4442
30
9.44
0
VERTEX
10
8.03859
20
10.4393
30
9.44
0
VERTEX
10
8.04846
20
10.4368
30
9.44
0
VERTEX
10
8.05833
20
10.4442
30
9.44
0
VERTEX
10
8.06079
20
10.4541
30
9.44
0
VERTEX
10
8.05833
20
10.464
30
9.44
0
VERTEX
10
8.06573
20
10.4837
30
9.44
0
VERTEX
10
8.083
20
10.5627
30
9.44
0
VERTEX
10
8.083
20
10.5824
30
9.44
0
VERTEX
10
8.083
20
10.5873
30
9.44
0
VERTEX
10
8.08793
20
10.5898
30
9.44
0
VERTEX
10
8.08547
20
10.6096
30
9.44
0
VERTEX
10
8.04599
20
10.6194
30
9.44
0
VERTEX
10
8.02625
20
10.6268
30
9.44
0
VERTEX
10
8.00898
20
10.6392
30
9.44
0
VERTEX
10
7.9695
20
10.6466
30
9.44
0
VERTEX
10
7.95963
20
10.6441
30
9.44
0
VERTEX
10
7.94976
20
10.649
30
9.44
0
VERTEX
10
7.94483
20
10.649
30
9.44
0
VERTEX
10
7.93496
20
10.6564
30
9.44
0
VERTEX
10
7.91522
20
10.6614
30
9.44
0
VERTEX
10
7.89548
20
10.6614
30
9.44
0
VERTEX
10
7.87574
20
10.6663
30
9.44
0
VERTEX
10
7.79679
20
10.6712
30
9.44
0
SEQEND
0
POLYLINE
62
31
66
1
70
1
3
contour
0
VERTEX
10
7.09214
20
10.7117
30
9.44
0
VERTEX
10
7.09765
20
10.6823
30
9.44
0
VERTEX
10
7.1105
20
10.6529
30
9.44
0
VERTEX
10
7.11969
20
10.6235
30
9.44
0
VERTEX
10
7.12519
20
10.6162
30
9.44
0
VERTEX
10
7.12887
20
10.6015
30
9.44
0
VERTEX
10
7.13254
20
10.5941
30
9.44
0
VERTEX
10
7.13254
20
10.5905
30
9.44
0
VERTEX
10
7.13621
20
10.5868
30
9.44
0
VERTEX
10
7.13805
20
10.5794
30
9.44
0
VERTEX
10
7.1454
20
10.5739
30
9.44
0
VERTEX
10
7.15274
20
10.5592
30
9.44
0
VERTEX
10
7.16376
20
10.5482
30
9.44
0
VERTEX
10
7.16927
20
10.5335
30
9.44
0
VERTEX
10
7.17294
20
10.5262
30
9.44
0
VERTEX
10
7.18029
20
10.5207
30
9.44
0
VERTEX
10
7.20049
20
10.495
30
9.44
0
VERTEX
10
7.20232
20
10.4876
30
9.44
0
VERTEX
10
7.21151
20
10.4748
30
9.44
0
VERTEX
10
7.21701
20
10.4674
30
9.44
0
VERTEX
10
7.21885
20
10.4601
30
9.44
0
VERTEX
10
7.2464
20
10.4325
30
9.44
0
VERTEX
10
7.25007
20
10.4325
30
9.44
0
VERTEX
10
7.27945
20
10.4123
30
9.44
0
VERTEX
10
7.29414
20
10.4013
30
9.44
0
VERTEX
10
7.30149
20
10.3976
30
9.44
0
VERTEX
10
7.32903
20
10.3738
30
9.44
0
VERTEX
10
7.34005
20
10.3628
30
9.44
0
VERTEX
10
7.35291
20
10.3554
30
9.44
0
VERTEX
10
7.36025
20
10.3536
30
9.44
0
VERTEX
10
7.3878
20
10.3334
30
9.44
0
VERTEX
10
7.40065
20
10.3224
30
9.44
0
VERTEX
10
7.45942
20
10.3242
30
9.44
0
VERTEX
10
7.46676
20
10.3242
30
9.44
0
VERTEX
10
7.48145
20
10.3297
30
9.44
0
VERTEX
10
7.54022
20
10.3315
30
9.44
0
VERTEX
10
7.55491
20
10.3279
30
9.44
0
VERTEX
10
7.5696
20
10.3205
30
9.44
0
VERTEX
10
7.57695
20
10.3205
30
9.44
0
VERTEX
10
7.5898
20
10.3113
30
9.44
0
VERTEX
10
7.60449
20
10.3077
30
9.44
0
VERTEX
10
7.60633
20
10.304
30
9.44
0
VERTEX
10
7.61367
20
10.3022
30
9.44
0
VERTEX
10
7.62286
20
10.2966
30
9.44
0
VERTEX
10
7.62469
20
10.293
30
9.44
0
VERTEX
10
7.63204
20
10.2911
30
9.44
0
VERTEX
10
7.63938
20
10.2856
30
9.44
0
VERTEX
10
7.64306
20
10.2856
30
9.44
0
VERTEX
10
7.6504
20
10.2783
30
9.44
0
VERTEX
10
7.66509
20
10.2764
30
9.44
0
VERTEX
10
7.67244
20
10.2746
30
9.44
0
VERTEX
10
7.67611
20
10.2709
30
9.44
0
VERTEX
10
7.6908
20
10.2691
30
9.44
0
VERTEX
10
7.71835
20
10.2581
30
9.44
0
VERTEX
10
7.7312
20
10.2452
30
9.44
0
VERTEX
10
7.74406
20
10.2415
30
9.44
0
VERTEX
10
7.75875
20
10.2342
30
9.44
0
VERTEX
10
7.78813
20
10.236
30
9.44
0
VERTEX
10
7.78997
20
10.2397
30
9.44
0
VERTEX
10
7.79364
20
10.2397
30
9.44
0
VERTEX
10
7.80099
20
10.2452
30
9.44
0
VERTEX
10
7.80833
20
10.2471
30
9.44
0
VERTEX
10
7.812
20
10.2471
30
9.44
0
VERTEX
10
7.81935
20
10.2526
30
9.44
0
VERTEX
10
7.83404
20
10.2562
30
9.44
0
VERTEX
10
7.83771
20
10.2599
30
9.44
0
VERTEX
10
7.85241
20
10.2636
30
9.44
0
VERTEX
10
7.85791
20
10.2691
30
9.44
0
VERTEX
10
7.88546
20
10.2764
30
9.44
0
VERTEX
10
7.89281
20
10.2764
30
9.44
0
VERTEX
10
7.90015
20
10.2838
30
9.44
0
VERTEX
10
7.90015
20
10.3426
30
9.44
0
VERTEX
10
7.89832
20
10.3719
30
9.44
0
VERTEX
10
7.89832
20
10.3866
30
9.44
0
VERTEX
10
7.90199
20
10.394
30
9.44
0
VERTEX
10
7.90382
20
10.4087
30
9.44
0
VERTEX
10
7.91117
20
10.4178
30
9.44
0
VERTEX
10
7.91117
20
10.4215
30
9.44
0
VERTEX
10
7.92035
20
10.4344
30
9.44
0
VERTEX
10
7.92586
20
10.4491
30
9.44
0
VERTEX
10
7.93137
20
10.5078
30
9.44
0
VERTEX
10
7.93137
20
10.5372
30
9.44
0
VERTEX
10
7.93504
20
10.5519
30
9.44
0
VERTEX
10
7.93321
20
10.6694
30
9.44
0
VERTEX
10
7.90933
20
10.697
30
9.44
0
VERTEX
10
7.89648
20
10.7062
30
9.44
0
VERTEX
10
7.8873
20
10.7208
30
9.44
0
VERTEX
10
7.8873
20
10.7245
30
9.44
0
VERTEX
10
7.87077
20
10.7521
30
9.44
0
VERTEX
10
7.86159
20
10.7649
30
9.44
0
VERTEX
10
7.85608
20
10.7778
30
9.44
0
VERTEX
10
7.85057
20
10.7833
30
9.44
0
VERTEX
10
7.84506
20
10.798
30
9.44
0
VERTEX
10
7.83404
20
10.8127
30
9.44
0
VERTEX
10
7.83404
20
10.8163
30
9.44
0
VERTEX
10
7.83037
20
10.82
30
9.44
0
VERTEX
10
7.82302
20
10.82
30
9.44
0
VERTEX
10
7.79731
20
10.8476
30
9.44
0
VERTEX
10
7.78262
20
10.8531
30
9.44
0
VERTEX
10
7.77528
20
10.8531
30
9.44
0
VERTEX
10
7.76793
20
10.8586
30
9.44
0
VERTEX
10
7.76793
20
10.8622
30
9.44
0
VERTEX
10
7.76059
20
10.8659
30
9.44
0
VERTEX
10
7.75691
20
10.8733
30
9.44
0
VERTEX
10
7.74222
20
10.8824
30
9.44
0
VERTEX
10
7.74039
20
10.8861
30
9.44
0
VERTEX
10
7.73304
20
10.8861
30
9.44
0
VERTEX
10
7.72019
20
10.8953
30
9.44
0
VERTEX
10
7.71284
20
10.9026
30
9.44
0
VERTEX
10
7.70733
20
10.9063
30
9.44
0
VERTEX
10
7.70549
20
10.9082
30
9.44
0
VERTEX
10
7.70733
20
10.91
30
9.44
0
VERTEX
10
7.69264
20
10.9155
30
9.44
0
VERTEX
10
7.63387
20
10.9173
30
9.44
0
VERTEX
10
7.61918
20
10.921
30
9.44
0
VERTEX
10
7.61184
20
10.9229
30
9.44
0
VERTEX
10
7.59715
20
10.9192
30
9.44
0
VERTEX
10
7.58246
20
10.9192
30
9.44
0
VERTEX
10
7.56776
20
10.9155
30
9.44
0
VERTEX
10
7.56042
20
10.9155
30
9.44
0
VERTEX
10
7.55307
20
10.91
30
9.44
0
VERTEX
10
7.53838
20
10.9082
30
9.44
0
VERTEX
10
7.53104
20
10.9063
30
9.44
0
VERTEX
10
7.52736
20
10.9063
30
9.44
0
VERTEX
10
7.52369
20
10.9026
30
9.44
0
VERTEX
10
7.509
20
10.9008
30
9.44
0
VERTEX
10
7.50165
20
10.9008
30
9.44
0
VERTEX
10
7.49798
20
10.9008
30
9.44
0
VERTEX
10
7.49431
20
10.8953
30
9.44
0
VERTEX
10
7.47962
20
10.8953
30
9.44
0
VERTEX
10
7.45024
20
10.8788
30
9.44
0
VERTEX
10
7.42085
20
10.8586
30
9.44
0
VERTEX
10
7.40616
20
10.8457
30
9.44
0
VERTEX
10
7.40249
20
10.8457
30
9.44
0
VERTEX
10
7.39147
20
10.8347
30
9.44
0
VERTEX
10
7.38413
20
10.8274
30
9.44
0
VERTEX
10
7.36393
20
10.8035
30
9.44
0
VERTEX
10
7.35107
20
10.7943
30
9.44
0
VERTEX
10
7.34373
20
10.7943
30
9.44
0
VERTEX
10
7.31434
20
10.7833
30
9.44
0
VERTEX
10
7.30149
20
10.7723
30
9.44
0
VERTEX
10
7.2868
20
10.7649
30
9.44
0
VERTEX
10
7.27945
20
10.7594
30
9.44
0
VERTEX
10
7.26476
20
10.7539
30
9.44
0
VERTEX
10
7.206
20
10.7594
30
9.44
0
VERTEX
10
7.1913
20
10.7594
30
9.44
0
VERTEX
10
7.17661
20
10.7631
30
9.44
0
VERTEX
10
7.14723
20
10.7612
30
9.44
0
VERTEX
10
7.13254
20
10.7557
30
9.44
0
VERTEX
10
7.11785
20
10.7466
30
9.44
0
VERTEX
10
7.11234
20
10.741
30
9.44
0
VERTEX
10
7.10499
20
10.7392
30
9.44
0
VERTEX
10
7.09765
20
10.7337
30
9.44
0
VERTEX
10
7.09398
20
10.7319
30
9.44
0
VERTEX
10
7.09214
20
10.7172
30
9.44
0
VERTEX
10
7.09214
20
10.7135
30
9.44
0
SEQEND
0
ENDSEC
0
EOF
