0
SECTION
2
ENTITIES
0
POLYLINE
62
31
66
1
70
1
3
contour
0
VERTEX
10
7.57472
20
10.2708
30
8.56
0
VERTEX
10
7.5813
20
10.2642
30
8.56
0
VERTEX
10
7.5813
20
10.2511
30
8.56
0
VERTEX
10
7.59447
20
10.2412
30
8.56
0
VERTEX
10
7.60106
20
10.228
30
8.56
0
VERTEX
10
7.61422
20
10.2214
30
8.56
0
VERTEX
10
7.63068
20
10.1951
30
8.56
0
VERTEX
10
7.64056
20
10.1688
30
8.56
0
VERTEX
10
7.64714
20
10.1622
30
8.56
0
VERTEX
10
7.66689
20
10.1095
30
8.56
0
VERTEX
10
7.67019
20
10.0963
30
8.56
0
VERTEX
10
7.68994
20
10.07
30
8.56
0
VERTEX
10
7.69981
20
10.0568
30
8.56
0
VERTEX
10
7.71298
20
10.0535
30
8.56
0
VERTEX
10
7.71957
20
10.0535
30
8.56
0
VERTEX
10
7.72944
20
10.0437
30
8.56
0
VERTEX
10
7.74261
20
10.0404
30
8.56
0
VERTEX
10
7.76565
20
10.0173
30
8.56
0
VERTEX
10
7.77882
20
10.014
30
8.56
0
VERTEX
10
7.7887
20
10.0042
30
8.56
0
VERTEX
10
7.81503
20
9.99758
30
8.56
0
VERTEX
10
7.82491
20
9.99099
30
8.56
0
VERTEX
10
7.82491
20
9.98441
30
8.56
0
VERTEX
10
7.84795
20
9.96137
30
8.56
0
VERTEX
10
7.8677
20
9.94491
30
8.56
0
VERTEX
10
7.89404
20
9.93174
30
8.56
0
VERTEX
10
7.90062
20
9.93174
30
8.56
0
VERTEX
10
7.90721
20
9.92516
30
8.56
0
VERTEX
10
7.93354
20
9.91857
30
8.56
0
VERTEX
10
7.94671
20
9.91857
30
8.56
0
VERTEX
10
7.95988
20
9.91199
30
8.56
0
VERTEX
10
8.06522
20
9.9054
30
8.56
0
VERTEX
10
8.09155
20
9.9054
30
8.56
0
VERTEX
10
8.10472
20
9.9054
30
8.56
0
VERTEX
10
8.11789
20
9.89882
30
8.56
0
VERTEX
10
8.17056
20
9.89553
30
8.56
0
VERTEX
10
8.19689
20
9.89553
30
8.56
0
VERTEX
10
8.21994
20
9.9087
30
8.56
0
VERTEX
10
8.22652
20
9.9087
30
8.56
0
VERTEX
10
8.23969
20
9.91857
30
8.56
0
VERTEX
10
8.23969
20
9.92516
30
8.56
0
VERTEX
10
8.24627
20
9.92845
30
8.56
0
VERTEX
10
8.24627
20
9.93503
30
8.56
0
VERTEX
10
8.25944
20
9.93832
30
8.56
0
VERTEX
10
8.26603
20
9.94162
30
8.56
0
VERTEX
10
8.26932
20
9.96795
30
8.56
0
VERTEX
10
8.28578
20
9.99429
30
8.56
0
VERTEX
10
8.29236
20
10.0173
30
8.56
0
VERTEX
10
8.30553
20
10.0305
30
8.56
0
VERTEX
10
8.31211
20
10.0371
30
8.56
0
VERTEX
10
8.32199
20
10.0634
30
8.56
0
VERTEX
10
8.32857
20
10.0766
30
8.56
0
VERTEX
10
8.32857
20
10.0832
30
8.56
0
VERTEX
10
8.33516
20
10.0898
30
8.56
0
VERTEX
10
8.33516
20
10.0963
30
8.56
0
VERTEX
10
8.34174
20
10.1029
30
8.56
0
VERTEX
10
8.36149
20
10.1556
30
8.56
0
VERTEX
10
8.37137
20
10.2609
30
8.56
0
VERTEX
10
8.37795
20
10.2873
30
8.56
0
VERTEX
10
8.38453
20
10.2939
30
8.56
0
VERTEX
10
8.38453
20
10.3004
30
8.56
0
VERTEX
10
8.39112
20
10.307
30
8.56
0
VERTEX
10
8.40099
20
10.3597
30
8.56
0
VERTEX
10
8.39441
20
10.4124
30
8.56
0
VERTEX
10
8.38783
20
10.4387
30
8.56
0
VERTEX
10
8.36807
20
10.4617
30
8.56
0
VERTEX
10
8.3187
20
10.4947
30
8.56
0
VERTEX
10
8.30553
20
10.5012
30
8.56
0
VERTEX
10
8.28248
20
10.5243
30
8.56
0
VERTEX
10
8.27261
20
10.5375
30
8.56
0
VERTEX
10
8.25944
20
10.544
30
8.56
0
VERTEX
10
8.24627
20
10.5572
30
8.56
0
VERTEX
10
8.23969
20
10.5605
30
8.56
0
VERTEX
10
8.2364
20
10.5737
30
8.56
0
VERTEX
10
8.22323
20
10.5704
30
8.56
0
VERTEX
10
8.19689
20
10.5737
30
8.56
0
VERTEX
10
8.14422
20
10.5605
30
8.56
0
VERTEX
10
8.09485
20
10.5407
30
8.56
0
VERTEX
10
7.88416
20
10.5375
30
8.56
0
VERTEX
10
7.83149
20
10.5342
30
8.56
0
VERTEX
10
7.81832
20
10.5276
30
8.56
0
VERTEX
10
7.79199
20
10.5276
30
8.56
0
VERTEX
10
7.73932
20
10.5078
30
8.56
0
VERTEX
10
7.72286
20
10.4848
30
8.56
0
VERTEX
10
7.71957
20
10.4716
30
8.56
0
VERTEX
10
7.7064
20
10.4683
30
8.56
0
VERTEX
10
7.67348
20
10.4189
30
8.56
0
VERTEX
10
7.65702
20
10.3926
30
8.56
0
VERTEX
10
7.61093
20
10.3498
30
8.56
0
VERTEX
10
7.60435
20
10.3366
30
8.56
0
VERTEX
10
7.59776
20
10.3301
30
8.56
0
VERTEX
10
7.58789
20
10.3037
30
8.56
0
VERTEX
10
7.57801
20
10.2939
30
8.56
0
VERTEX
10
7.57472
20
10.2807
30
8.56
0
VERTEX
10
7.57472
20
10.2741
30
8.56
0
SEQEND
0
POLYLINE
62
31
66
1
70
1
3
contour
0
VERTEX
10
7.24219
20
9.60392
30
8.56
0
VERTEX
10
7.25413
20
9.57661
30
8.56
0
VERTEX
10
7.26266
20
9.56467
30
8.56
0
VERTEX
10
7.27461
20
9.55272
30
8.56
0
VERTEX
10
7.28485
20
9.54419
30
8.56
0
VERTEX
10
7.31044
20
9.52542
30
8.56
0
VERTEX
10
7.31386
20
9.52542
30
8.56
0
VERTEX
10
7.31727
20
9.52201
30
8.56
0
VERTEX
10
7.32409
20
9.5203
30
8.56
0
VERTEX
10
7.33775
20
9.51006
30
8.56
0
VERTEX
10
7.33945
20
9.50665
30
8.56
0
VERTEX
10
7.34287
20
9.50665
30
8.56
0
VERTEX
10
7.34969
20
9.50153
30
8.56
0
VERTEX
10
7.3531
20
9.49812
30
8.56
0
VERTEX
10
7.38041
20
9.48958
30
8.56
0
VERTEX
10
7.43501
20
9.48276
30
8.56
0
VERTEX
10
7.44184
20
9.48276
30
8.56
0
VERTEX
10
7.44355
20
9.47934
30
8.56
0
VERTEX
10
7.47085
20
9.47934
30
8.56
0
VERTEX
10
7.47768
20
9.47934
30
8.56
0
VERTEX
10
7.48962
20
9.48617
30
8.56
0
VERTEX
10
7.50327
20
9.48958
30
8.56
0
VERTEX
10
7.53058
20
9.50153
30
8.56
0
VERTEX
10
7.53399
20
9.50494
30
8.56
0
VERTEX
10
7.54764
20
9.50835
30
8.56
0
VERTEX
10
7.55447
20
9.50835
30
8.56
0
VERTEX
10
7.55959
20
9.51347
30
8.56
0
VERTEX
10
7.57324
20
9.51689
30
8.56
0
VERTEX
10
7.58348
20
9.52883
30
8.56
0
VERTEX
10
7.58859
20
9.54248
30
8.56
0
VERTEX
10
7.60054
20
9.55613
30
8.56
0
VERTEX
10
7.60737
20
9.56296
30
8.56
0
VERTEX
10
7.61078
20
9.56808
30
8.56
0
VERTEX
10
7.6176
20
9.56979
30
8.56
0
VERTEX
10
7.62443
20
9.57491
30
8.56
0
VERTEX
10
7.6415
20
9.6005
30
8.56
0
VERTEX
10
7.64661
20
9.60733
30
8.56
0
VERTEX
10
7.65173
20
9.62098
30
8.56
0
VERTEX
10
7.65515
20
9.64828
30
8.56
0
VERTEX
10
7.65856
20
9.66193
30
8.56
0
VERTEX
10
7.65856
20
9.68924
30
8.56
0
VERTEX
10
7.65685
20
9.70289
30
8.56
0
VERTEX
10
7.64832
20
9.71483
30
8.56
0
VERTEX
10
7.64491
20
9.72166
30
8.56
0
VERTEX
10
7.64491
20
9.72849
30
8.56
0
VERTEX
10
7.64491
20
9.7319
30
8.56
0
VERTEX
10
7.63979
20
9.73873
30
8.56
0
VERTEX
10
7.63808
20
9.74555
30
8.56
0
VERTEX
10
7.63296
20
9.75238
30
8.56
0
VERTEX
10
7.60737
20
9.76944
30
8.56
0
VERTEX
10
7.59371
20
9.77627
30
8.56
0
VERTEX
10
7.58006
20
9.77968
30
8.56
0
VERTEX
10
7.57665
20
9.78309
30
8.56
0
VERTEX
10
7.563
20
9.78651
30
8.56
0
VERTEX
10
7.55617
20
9.78992
30
8.56
0
VERTEX
10
7.54252
20
9.78992
30
8.56
0
VERTEX
10
7.53569
20
9.78821
30
8.56
0
VERTEX
10
7.53228
20
9.78821
30
8.56
0
VERTEX
10
7.52887
20
9.79163
30
8.56
0
VERTEX
10
7.52546
20
9.79163
30
8.56
0
VERTEX
10
7.52204
20
9.79504
30
8.56
0
VERTEX
10
7.51522
20
9.79504
30
8.56
0
VERTEX
10
7.50157
20
9.80357
30
8.56
0
VERTEX
10
7.49474
20
9.80869
30
8.56
0
VERTEX
10
7.46744
20
9.81722
30
8.56
0
VERTEX
10
7.44013
20
9.82234
30
8.56
0
VERTEX
10
7.41283
20
9.82234
30
8.56
0
VERTEX
10
7.39918
20
9.82575
30
8.56
0
VERTEX
10
7.37188
20
9.82575
30
8.56
0
VERTEX
10
7.35822
20
9.82405
30
8.56
0
VERTEX
10
7.3514
20
9.82405
30
8.56
0
VERTEX
10
7.33945
20
9.81381
30
8.56
0
VERTEX
10
7.33604
20
9.81381
30
8.56
0
VERTEX
10
7.33263
20
9.8104
30
8.56
0
VERTEX
10
7.32921
20
9.8104
30
8.56
0
VERTEX
10
7.31556
20
9.80186
30
8.56
0
VERTEX
10
7.30874
20
9.79845
30
8.56
0
VERTEX
10
7.30191
20
9.79163
30
8.56
0
VERTEX
10
7.29509
20
9.78992
30
8.56
0
VERTEX
10
7.28314
20
9.77968
30
8.56
0
VERTEX
10
7.27802
20
9.76774
30
8.56
0
VERTEX
10
7.25925
20
9.74043
30
8.56
0
VERTEX
10
7.24901
20
9.72849
30
8.56
0
VERTEX
10
7.24389
20
9.71483
30
8.56
0
VERTEX
10
7.24219
20
9.60562
30
8.56
0
SEQEND
0
POLYLINE
62
224
66
1
70
1
3
mitochondrion
0
VERTEX
10
7.76972
20
10.2822
30
8.56
0
VERTEX
10
7.77111
20
10.26
30
8.56
0
VERTEX
10
7.77111
20
10.2544
30
8.56
0
VERTEX
10
7.77389
20
10.2516
30
8.56
0
VERTEX
10
7.77806
20
10.2294
30
8.56
0
VERTEX
10
7.78502
20
10.2071
30
8.56
0
VERTEX
10
7.7878
20
10.2016
30
8.56
0
VERTEX
10
7.7878
20
10.1988
30
8.56
0
VERTEX
10
7.80309
20
10.1779
30
8.56
0
VERTEX
10
7.81004
20
10.1668
30
8.56
0
VERTEX
10
7.81004
20
10.164
30
8.56
0
VERTEX
10
7.81978
20
10.1571
30
8.56
0
VERTEX
10
7.84063
20
10.1376
30
8.56
0
VERTEX
10
7.85176
20
10.1335
30
8.56
0
VERTEX
10
7.85732
20
10.1321
30
8.56
0
VERTEX
10
7.86288
20
10.1279
30
8.56
0
VERTEX
10
7.88513
20
10.1209
30
8.56
0
VERTEX
10
7.90737
20
10.1209
30
8.56
0
VERTEX
10
7.9185
20
10.1209
30
8.56
0
VERTEX
10
7.94075
20
10.1251
30
8.56
0
VERTEX
10
7.94353
20
10.1251
30
8.56
0
VERTEX
10
7.94631
20
10.1279
30
8.56
0
VERTEX
10
7.95743
20
10.1293
30
8.56
0
VERTEX
10
7.96855
20
10.1348
30
8.56
0
VERTEX
10
7.97412
20
10.1362
30
8.56
0
VERTEX
10
7.99636
20
10.1487
30
8.56
0
VERTEX
10
8.03808
20
10.1793
30
8.56
0
VERTEX
10
8.04781
20
10.1863
30
8.56
0
VERTEX
10
8.05198
20
10.1919
30
8.56
0
VERTEX
10
8.06449
20
10.235
30
8.56
0
VERTEX
10
8.06866
20
10.2572
30
8.56
0
VERTEX
10
8.07145
20
10.3017
30
8.56
0
VERTEX
10
8.06866
20
10.3462
30
8.56
0
VERTEX
10
8.06588
20
10.3573
30
8.56
0
VERTEX
10
8.0631
20
10.3601
30
8.56
0
VERTEX
10
8.06171
20
10.3712
30
8.56
0
VERTEX
10
8.0492
20
10.3935
30
8.56
0
VERTEX
10
8.04225
20
10.4004
30
8.56
0
VERTEX
10
8.02
20
10.4074
30
8.56
0
VERTEX
10
8.00888
20
10.4115
30
8.56
0
VERTEX
10
8.00331
20
10.4143
30
8.56
0
VERTEX
10
7.99219
20
10.4129
30
8.56
0
VERTEX
10
7.98663
20
10.4115
30
8.56
0
VERTEX
10
7.97551
20
10.4143
30
8.56
0
VERTEX
10
7.93101
20
10.4115
30
8.56
0
VERTEX
10
7.91989
20
10.4101
30
8.56
0
VERTEX
10
7.91433
20
10.4101
30
8.56
0
VERTEX
10
7.91155
20
10.4101
30
8.56
0
VERTEX
10
7.90598
20
10.406
30
8.56
0
VERTEX
10
7.89486
20
10.4046
30
8.56
0
VERTEX
10
7.8893
20
10.4046
30
8.56
0
VERTEX
10
7.86705
20
10.3962
30
8.56
0
VERTEX
10
7.85593
20
10.3935
30
8.56
0
VERTEX
10
7.84481
20
10.3935
30
8.56
0
VERTEX
10
7.84063
20
10.3893
30
8.56
0
VERTEX
10
7.83507
20
10.3879
30
8.56
0
VERTEX
10
7.81561
20
10.3698
30
8.56
0
VERTEX
10
7.81283
20
10.3643
30
8.56
0
VERTEX
10
7.80309
20
10.3545
30
8.56
0
VERTEX
10
7.79614
20
10.3434
30
8.56
0
VERTEX
10
7.79197
20
10.3378
30
8.56
0
VERTEX
10
7.79197
20
10.3323
30
8.56
0
VERTEX
10
7.78085
20
10.3281
30
8.56
0
VERTEX
10
7.77389
20
10.3059
30
8.56
0
VERTEX
10
7.76972
20
10.2947
30
8.56
0
VERTEX
10
7.76972
20
10.2836
30
8.56
0
SEQEND
0
POLYLINE
62
227
66
1
70
1
3
endoplasmic_reticulum
0
VERTEX
10
7.65112
20
10.261
30
8.56
0
VERTEX
10
7.65561
20
10.2547
30
8.56
0
VERTEX
10
7.66278
20
10.2502
30
8.56
0
VERTEX
10
7.66637
20
10.2475
30
8.56
0
VERTEX
10
7.67354
20
10.2466
30
8.56
0
VERTEX
10
7.68071
20
10.2475
30
8.56
0
VERTEX
10
7.68071
20
10.2493
30
8.56
0
VERTEX
10
7.6843
20
10.2511
30
8.56
0
VERTEX
10
7.69147
20
10.2511
30
8.56
0
VERTEX
10
7.69506
20
10.2511
30
8.56
0
VERTEX
10
7.69774
20
10.2538
30
8.56
0
VERTEX
10
7.70133
20
10.2547
30
8.56
0
VERTEX
10
7.7085
20
10.261
30
8.56
0
VERTEX
10
7.71209
20
10.2619
30
8.56
0
VERTEX
10
7.71388
20
10.2619
30
8.56
0
VERTEX
10
7.71657
20
10.2663
30
8.56
0
VERTEX
10
7.72285
20
10.2735
30
8.56
0
VERTEX
10
7.72733
20
10.2807
30
8.56
0
VERTEX
10
7.73361
20
10.287
30
8.56
0
VERTEX
10
7.73719
20
10.2897
30
8.56
0
VERTEX
10
7.74168
20
10.2959
30
8.56
0
VERTEX
10
7.74257
20
10.2995
30
8.56
0
VERTEX
10
7.74437
20
10.3013
30
8.56
0
VERTEX
10
7.74437
20
10.3157
30
8.56
0
VERTEX
10
7.74347
20
10.3228
30
8.56
0
VERTEX
10
7.74257
20
10.3264
30
8.56
0
VERTEX
10
7.73809
20
10.3309
30
8.56
0
VERTEX
10
7.73092
20
10.3309
30
8.56
0
VERTEX
10
7.72733
20
10.3309
30
8.56
0
VERTEX
10
7.72016
20
10.3336
30
8.56
0
VERTEX
10
7.71657
20
10.3345
30
8.56
0
VERTEX
10
7.68788
20
10.321
30
8.56
0
VERTEX
10
7.67354
20
10.3148
30
8.56
0
VERTEX
10
7.67085
20
10.3121
30
8.56
0
VERTEX
10
7.67085
20
10.3085
30
8.56
0
VERTEX
10
7.66726
20
10.3067
30
8.56
0
VERTEX
10
7.66547
20
10.3067
30
8.56
0
VERTEX
10
7.66009
20
10.3013
30
8.56
0
VERTEX
10
7.6583
20
10.2995
30
8.56
0
VERTEX
10
7.6574
20
10.2959
30
8.56
0
VERTEX
10
7.65561
20
10.2941
30
8.56
0
VERTEX
10
7.65471
20
10.287
30
8.56
0
VERTEX
10
7.65202
20
10.2798
30
8.56
0
VERTEX
10
7.65112
20
10.2655
30
8.56
0
VERTEX
10
7.65112
20
10.2619
30
8.56
0
SEQEND
0
POLYLINE
62
227
66
1
70
1
3
endoplasmic_reticulum
0
VERTEX
10
8.14243
20
10.4179
30
8.56
0
VERTEX
10
8.14512
20
10.4107
30
8.56
0
VERTEX
10
8.14871
20
10.382
30
8.56
0
VERTEX
10
8.1505
20
10.3677
30
8.56
0
VERTEX
10
8.15229
20
10.3659
30
8.56
0
VERTEX
10
8.15319
20
10.3515
30
8.56
0
VERTEX
10
8.15409
20
10.3479
30
8.56
0
VERTEX
10
8.15678
20
10.3452
30
8.56
0
VERTEX
10
8.16126
20
10.3309
30
8.56
0
VERTEX
10
8.16305
20
10.3237
30
8.56
0
VERTEX
10
8.16305
20
10.3201
30
8.56
0
VERTEX
10
8.16574
20
10.313
30
8.56
0
VERTEX
10
8.16574
20
10.2986
30
8.56
0
VERTEX
10
8.16574
20
10.2915
30
8.56
0
VERTEX
10
8.16395
20
10.2897
30
8.56
0
VERTEX
10
8.16216
20
10.2825
30
8.56
0
VERTEX
10
8.16036
20
10.2789
30
8.56
0
VERTEX
10
8.16036
20
10.2717
30
8.56
0
VERTEX
10
8.15498
20
10.2574
30
8.56
0
VERTEX
10
8.15409
20
10.2502
30
8.56
0
VERTEX
10
8.15588
20
10.243
30
8.56
0
VERTEX
10
8.15767
20
10.2395
30
8.56
0
VERTEX
10
8.15767
20
10.2359
30
8.56
0
VERTEX
10
8.16305
20
10.2224
30
8.56
0
VERTEX
10
8.16664
20
10.2206
30
8.56
0
VERTEX
10
8.17381
20
10.2215
30
8.56
0
VERTEX
10
8.18278
20
10.235
30
8.56
0
VERTEX
10
8.18547
20
10.2421
30
8.56
0
VERTEX
10
8.18726
20
10.243
30
8.56
0
VERTEX
10
8.18816
20
10.2502
30
8.56
0
VERTEX
10
8.19174
20
10.2574
30
8.56
0
VERTEX
10
8.19264
20
10.2646
30
8.56
0
VERTEX
10
8.19443
20
10.2663
30
8.56
0
VERTEX
10
8.19533
20
10.295
30
8.56
0
VERTEX
10
8.19622
20
10.2986
30
8.56
0
VERTEX
10
8.19622
20
10.3004
30
8.56
0
VERTEX
10
8.19802
20
10.3013
30
8.56
0
VERTEX
10
8.20071
20
10.3076
30
8.56
0
VERTEX
10
8.20698
20
10.3121
30
8.56
0
VERTEX
10
8.23567
20
10.313
30
8.56
0
VERTEX
10
8.23926
20
10.313
30
8.56
0
VERTEX
10
8.24105
20
10.3148
30
8.56
0
VERTEX
10
8.24822
20
10.3175
30
8.56
0
VERTEX
10
8.26078
20
10.3264
30
8.56
0
VERTEX
10
8.26257
20
10.3282
30
8.56
0
VERTEX
10
8.26436
20
10.3354
30
8.56
0
VERTEX
10
8.26436
20
10.339
30
8.56
0
VERTEX
10
8.26167
20
10.3426
30
8.56
0
VERTEX
10
8.25898
20
10.3497
30
8.56
0
VERTEX
10
8.2545
20
10.356
30
8.56
0
VERTEX
10
8.2545
20
10.3596
30
8.56
0
VERTEX
10
8.24464
20
10.3739
30
8.56
0
VERTEX
10
8.24284
20
10.3757
30
8.56
0
VERTEX
10
8.24284
20
10.3775
30
8.56
0
VERTEX
10
8.23836
20
10.382
30
8.56
0
VERTEX
10
8.23657
20
10.382
30
8.56
0
VERTEX
10
8.23119
20
10.3874
30
8.56
0
VERTEX
10
8.2294
20
10.3892
30
8.56
0
VERTEX
10
8.21505
20
10.3883
30
8.56
0
VERTEX
10
8.21147
20
10.3874
30
8.56
0
VERTEX
10
8.20878
20
10.3838
30
8.56
0
VERTEX
10
8.20698
20
10.382
30
8.56
0
VERTEX
10
8.20698
20
10.3677
30
8.56
0
VERTEX
10
8.20429
20
10.3605
30
8.56
0
VERTEX
10
8.2034
20
10.3569
30
8.56
0
VERTEX
10
8.20071
20
10.3542
30
8.56
0
VERTEX
10
8.19981
20
10.347
30
8.56
0
VERTEX
10
8.19353
20
10.3426
30
8.56
0
VERTEX
10
8.19174
20
10.3417
30
8.56
0
VERTEX
10
8.18726
20
10.3479
30
8.56
0
VERTEX
10
8.18457
20
10.3515
30
8.56
0
VERTEX
10
8.18367
20
10.3659
30
8.56
0
VERTEX
10
8.18367
20
10.373
30
8.56
0
VERTEX
10
8.18009
20
10.3874
30
8.56
0
VERTEX
10
8.1774
20
10.3892
30
8.56
0
VERTEX
10
8.1765
20
10.4035
30
8.56
0
VERTEX
10
8.17471
20
10.4107
30
8.56
0
VERTEX
10
8.17471
20
10.425
30
8.56
0
VERTEX
10
8.17291
20
10.4322
30
8.56
0
VERTEX
10
8.15857
20
10.4331
30
8.56
0
VERTEX
10
8.14422
20
10.4277
30
8.56
0
VERTEX
10
8.14243
20
10.4268
30
8.56
0
VERTEX
10
8.14243
20
10.4197
30
8.56
0
VERTEX
10
8.14243
20
10.4188
30
8.56
0
SEQEND
0
POLYLINE
62
227
66
1
70
1
3
endoplasmic_reticulum
0
VERTEX
10
8.07609
20
10.434
30
8.56
0
VERTEX
10
8.07788
20
10.4268
30
8.56
0
VERTEX
10
8.07788
20
10.4125
30
8.56
0
VERTEX
10
8.08057
20
10.4053
30
8.56
0
VERTEX
10
8.08147
20
10.391
30
8.56
0
VERTEX
10
8.08236
20
10.3838
30
8.56
0
VERTEX
10
8.08685
20
10.3766
30
8.56
0
VERTEX
10
8.08685
20
10.3695
30
8.56
0
VERTEX
10
8.09223
20
10.3551
30
8.56
0
VERTEX
10
8.09043
20
10.3264
30
8.56
0
VERTEX
10
8.09043
20
10.2977
30
8.56
0
VERTEX
10
8.09043
20
10.2834
30
8.56
0
VERTEX
10
8.09491
20
10.2547
30
8.56
0
VERTEX
10
8.09581
20
10.2475
30
8.56
0
VERTEX
10
8.0985
20
10.2403
30
8.56
0
VERTEX
10
8.0994
20
10.226
30
8.56
0
VERTEX
10
8.0994
20
10.2188
30
8.56
0
VERTEX
10
8.10209
20
10.2045
30
8.56
0
VERTEX
10
8.10209
20
10.1758
30
8.56
0
VERTEX
10
8.10209
20
10.1722
30
8.56
0
VERTEX
10
8.10657
20
10.1659
30
8.56
0
VERTEX
10
8.11016
20
10.1641
30
8.56
0
VERTEX
10
8.1245
20
10.165
30
8.56
0
VERTEX
10
8.13167
20
10.1686
30
8.56
0
VERTEX
10
8.13436
20
10.1722
30
8.56
0
VERTEX
10
8.13436
20
10.174
30
8.56
0
VERTEX
10
8.13885
20
10.1812
30
8.56
0
VERTEX
10
8.14064
20
10.1848
30
8.56
0
VERTEX
10
8.13974
20
10.1991
30
8.56
0
VERTEX
10
8.12988
20
10.2269
30
8.56
0
VERTEX
10
8.12898
20
10.2305
30
8.56
0
VERTEX
10
8.12629
20
10.2341
30
8.56
0
VERTEX
10
8.12181
20
10.2484
30
8.56
0
VERTEX
10
8.12181
20
10.252
30
8.56
0
VERTEX
10
8.12002
20
10.2556
30
8.56
0
VERTEX
10
8.12002
20
10.2699
30
8.56
0
VERTEX
10
8.12181
20
10.2843
30
8.56
0
VERTEX
10
8.12181
20
10.313
30
8.56
0
VERTEX
10
8.1245
20
10.3417
30
8.56
0
VERTEX
10
8.1254
20
10.356
30
8.56
0
VERTEX
10
8.1254
20
10.3632
30
8.56
0
VERTEX
10
8.1245
20
10.3668
30
8.56
0
VERTEX
10
8.1245
20
10.3686
30
8.56
0
VERTEX
10
8.12181
20
10.3712
30
8.56
0
VERTEX
10
8.12002
20
10.3784
30
8.56
0
VERTEX
10
8.11823
20
10.382
30
8.56
0
VERTEX
10
8.11733
20
10.3963
30
8.56
0
VERTEX
10
8.11554
20
10.3999
30
8.56
0
VERTEX
10
8.11464
20
10.4071
30
8.56
0
VERTEX
10
8.11374
20
10.4107
30
8.56
0
VERTEX
10
8.11374
20
10.4125
30
8.56
0
VERTEX
10
8.10926
20
10.4188
30
8.56
0
VERTEX
10
8.10926
20
10.4206
30
8.56
0
VERTEX
10
8.10747
20
10.4223
30
8.56
0
VERTEX
10
8.10747
20
10.4241
30
8.56
0
VERTEX
10
8.10388
20
10.4268
30
8.56
0
VERTEX
10
8.10388
20
10.4286
30
8.56
0
VERTEX
10
8.10209
20
10.4304
30
8.56
0
VERTEX
10
8.10209
20
10.4322
30
8.56
0
VERTEX
10
8.09671
20
10.4385
30
8.56
0
VERTEX
10
8.09223
20
10.443
30
8.56
0
VERTEX
10
8.08505
20
10.4439
30
8.56
0
VERTEX
10
8.07788
20
10.4412
30
8.56
0
VERTEX
10
8.07609
20
10.4376
30
8.56
0
VERTEX
10
8.07609
20
10.4349
30
8.56
0
SEQEND
0
POLYLINE
62
227
66
1
70
1
3
endoplasmic_reticulum
0
VERTEX
10
8.23209
20
10.1632
30
8.56
0
VERTEX
10
8.23567
20
10.1606
30
8.56
0
VERTEX
10
8.23657
20
10.157
30
8.56
0
VERTEX
10
8.24912
20
10.1435
30
8.56
0
VERTEX
10
8.25271
20
10.1408
30
8.56
0
VERTEX
10
8.25719
20
10.1337
30
8.56
0
VERTEX
10
8.26347
20
10.1274
30
8.56
0
VERTEX
10
8.26526
20
10.1238
30
8.56
0
VERTEX
10
8.26347
20
10.1166
30
8.56
0
VERTEX
10
8.26078
20
10.1139
30
8.56
0
VERTEX
10
8.25988
20
10.1121
30
8.56
0
VERTEX
10
8.25809
20
10.1121
30
8.56
0
VERTEX
10
8.25629
20
10.1104
30
8.56
0
VERTEX
10
8.2545
20
10.1104
30
8.56
0
VERTEX
10
8.25091
20
10.1077
30
8.56
0
VERTEX
10
8.24733
20
10.1068
30
8.56
0
VERTEX
10
8.24553
20
10.1059
30
8.56
0
VERTEX
10
8.24284
20
10.0987
30
8.56
0
VERTEX
10
8.23836
20
10.0915
30
8.56
0
VERTEX
10
8.23657
20
10.0844
30
8.56
0
VERTEX
10
8.23747
20
10.0557
30
8.56
0
VERTEX
10
8.23836
20
10.0485
30
8.56
0
VERTEX
10
8.23836
20
10.0449
30
8.56
0
VERTEX
10
8.24464
20
10.0386
30
8.56
0
VERTEX
10
8.24733
20
10.035
30
8.56
0
VERTEX
10
8.24822
20
10.0315
30
8.56
0
VERTEX
10
8.2536
20
10.0261
30
8.56
0
VERTEX
10
8.25719
20
10.0243
30
8.56
0
VERTEX
10
8.26436
20
10.0252
30
8.56
0
VERTEX
10
8.26616
20
10.0252
30
8.56
0
VERTEX
10
8.26974
20
10.0324
30
8.56
0
VERTEX
10
8.27153
20
10.0332
30
8.56
0
VERTEX
10
8.27153
20
10.035
30
8.56
0
VERTEX
10
8.27422
20
10.0386
30
8.56
0
VERTEX
10
8.27512
20
10.0422
30
8.56
0
VERTEX
10
8.2796
20
10.0494
30
8.56
0
VERTEX
10
8.2796
20
10.0512
30
8.56
0
VERTEX
10
8.2814
20
10.053
30
8.56
0
VERTEX
10
8.2814
20
10.0548
30
8.56
0
VERTEX
10
8.28678
20
10.0619
30
8.56
0
VERTEX
10
8.29036
20
10.0655
30
8.56
0
VERTEX
10
8.29395
20
10.0727
30
8.56
0
VERTEX
10
8.29484
20
10.1014
30
8.56
0
VERTEX
10
8.29305
20
10.105
30
8.56
0
VERTEX
10
8.29305
20
10.1193
30
8.56
0
VERTEX
10
8.29484
20
10.1337
30
8.56
0
VERTEX
10
8.29753
20
10.1372
30
8.56
0
VERTEX
10
8.29843
20
10.1516
30
8.56
0
VERTEX
10
8.29574
20
10.1588
30
8.56
0
VERTEX
10
8.29574
20
10.1624
30
8.56
0
VERTEX
10
8.28498
20
10.1767
30
8.56
0
VERTEX
10
8.27781
20
10.183
30
8.56
0
VERTEX
10
8.27064
20
10.1857
30
8.56
0
VERTEX
10
8.26705
20
10.1875
30
8.56
0
VERTEX
10
8.25271
20
10.1866
30
8.56
0
VERTEX
10
8.24553
20
10.1857
30
8.56
0
VERTEX
10
8.23836
20
10.183
30
8.56
0
VERTEX
10
8.23209
20
10.1758
30
8.56
0
VERTEX
10
8.23209
20
10.1686
30
8.56
0
VERTEX
10
8.23209
20
10.165
30
8.56
0
VERTEX
10
8.23209
20
10.1641
30
8.56
0
SEQEND
0
POLYLINE
62
227
66
1
70
1
3
endoplasmic_reticulum
0
VERTEX
10
8.01692
20
10.0763
30
8.56
0
VERTEX
10
8.01871
20
10.0745
30
8.56
0
VERTEX
10
8.01871
20
10.0709
30
8.56
0
VERTEX
10
8.02767
20
10.0575
30
8.56
0
VERTEX
10
8.03933
20
10.0449
30
8.56
0
VERTEX
10
8.0456
20
10.0404
30
8.56
0
VERTEX
10
8.04919
20
10.0386
30
8.56
0
VERTEX
10
8.05098
20
10.0368
30
8.56
0
VERTEX
10
8.05278
20
10.0368
30
8.56
0
VERTEX
10
8.05636
20
10.0341
30
8.56
0
VERTEX
10
8.07071
20
10.0332
30
8.56
0
VERTEX
10
8.07788
20
10.0341
30
8.56
0
VERTEX
10
8.08147
20
10.0341
30
8.56
0
VERTEX
10
8.08505
20
10.0359
30
8.56
0
VERTEX
10
8.08864
20
10.0359
30
8.56
0
VERTEX
10
8.09581
20
10.0404
30
8.56
0
VERTEX
10
8.0994
20
10.0422
30
8.56
0
VERTEX
10
8.10119
20
10.0458
30
8.56
0
VERTEX
10
8.11374
20
10.0557
30
8.56
0
VERTEX
10
8.11643
20
10.0584
30
8.56
0
VERTEX
10
8.12002
20
10.0592
30
8.56
0
VERTEX
10
8.12181
20
10.0592
30
8.56
0
VERTEX
10
8.1245
20
10.0628
30
8.56
0
VERTEX
10
8.13078
20
10.0673
30
8.56
0
VERTEX
10
8.14333
20
10.0808
30
8.56
0
VERTEX
10
8.1514
20
10.0861
30
8.56
0
VERTEX
10
8.15498
20
10.0861
30
8.56
0
VERTEX
10
8.15678
20
10.0879
30
8.56
0
VERTEX
10
8.16395
20
10.0906
30
8.56
0
VERTEX
10
8.17829
20
10.0996
30
8.56
0
VERTEX
10
8.18188
20
10.1005
30
8.56
0
VERTEX
10
8.19353
20
10.1121
30
8.56
0
VERTEX
10
8.19443
20
10.1193
30
8.56
0
VERTEX
10
8.19264
20
10.1337
30
8.56
0
VERTEX
10
8.19085
20
10.1372
30
8.56
0
VERTEX
10
8.18457
20
10.1408
30
8.56
0
VERTEX
10
8.18188
20
10.1444
30
8.56
0
VERTEX
10
8.17471
20
10.1453
30
8.56
0
VERTEX
10
8.16843
20
10.1426
30
8.56
0
VERTEX
10
8.16485
20
10.1408
30
8.56
0
VERTEX
10
8.16305
20
10.1408
30
8.56
0
VERTEX
10
8.15588
20
10.1364
30
8.56
0
VERTEX
10
8.15409
20
10.1346
30
8.56
0
VERTEX
10
8.1505
20
10.1337
30
8.56
0
VERTEX
10
8.14691
20
10.1301
30
8.56
0
VERTEX
10
8.13974
20
10.1265
30
8.56
0
VERTEX
10
8.11374
20
10.105
30
8.56
0
VERTEX
10
8.10836
20
10.0987
30
8.56
0
VERTEX
10
8.10298
20
10.0942
30
8.56
0
VERTEX
10
8.09581
20
10.0933
30
8.56
0
VERTEX
10
8.09223
20
10.0933
30
8.56
0
VERTEX
10
8.09043
20
10.0942
30
8.56
0
VERTEX
10
8.09043
20
10.1014
30
8.56
0
VERTEX
10
8.09223
20
10.1086
30
8.56
0
VERTEX
10
8.0976
20
10.1157
30
8.56
0
VERTEX
10
8.10119
20
10.1202
30
8.56
0
VERTEX
10
8.10119
20
10.1274
30
8.56
0
VERTEX
10
8.0985
20
10.1346
30
8.56
0
VERTEX
10
8.09491
20
10.1372
30
8.56
0
VERTEX
10
8.08057
20
10.139
30
8.56
0
VERTEX
10
8.0734
20
10.1372
30
8.56
0
VERTEX
10
8.06712
20
10.1319
30
8.56
0
VERTEX
10
8.06443
20
10.1283
30
8.56
0
VERTEX
10
8.06085
20
10.1274
30
8.56
0
VERTEX
10
8.05816
20
10.1238
30
8.56
0
VERTEX
10
8.05188
20
10.1193
30
8.56
0
VERTEX
10
8.04023
20
10.1059
30
8.56
0
VERTEX
10
8.03305
20
10.1014
30
8.56
0
VERTEX
10
8.02678
20
10.0951
30
8.56
0
VERTEX
10
8.02229
20
10.0879
30
8.56
0
VERTEX
10
8.0214
20
10.0844
30
8.56
0
VERTEX
10
8.01781
20
10.0808
30
8.56
0
VERTEX
10
8.01692
20
10.0772
30
8.56
0
SEQEND
0
POLYLINE
62
227
66
1
70
1
3
endoplasmic_reticulum
0
VERTEX
10
7.73002
20
10.1193
30
8.56
0
VERTEX
10
7.73092
20
10.1121
30
8.56
0
VERTEX
10
7.7345
20
10.105
30
8.56
0
VERTEX
10
7.74795
20
10.0951
30
8.56
0
VERTEX
10
7.75423
20
10.0924
30
8.56
0
VERTEX
10
7.7614
20
10.0879
30
8.56
0
VERTEX
10
7.76857
20
10.0852
30
8.56
0
VERTEX
10
7.77216
20
10.0835
30
8.56
0
VERTEX
10
7.77395
20
10.0817
30
8.56
0
VERTEX
10
7.7883
20
10.0808
30
8.56
0
VERTEX
10
7.80264
20
10.0781
30
8.56
0
VERTEX
10
7.83133
20
10.0772
30
8.56
0
VERTEX
10
7.8385
20
10.0745
30
8.56
0
VERTEX
10
7.84568
20
10.0745
30
8.56
0
VERTEX
10
7.85195
20
10.07
30
8.56
0
VERTEX
10
7.85912
20
10.0682
30
8.56
0
VERTEX
10
7.8663
20
10.0637
30
8.56
0
VERTEX
10
7.87347
20
10.0619
30
8.56
0
VERTEX
10
7.87974
20
10.0584
30
8.56
0
VERTEX
10
7.88512
20
10.053
30
8.56
0
VERTEX
10
7.8923
20
10.0485
30
8.56
0
VERTEX
10
7.90485
20
10.0359
30
8.56
0
VERTEX
10
7.91023
20
10.0297
30
8.56
0
VERTEX
10
7.91023
20
10.0279
30
8.56
0
VERTEX
10
7.91561
20
10.0225
30
8.56
0
VERTEX
10
7.9183
20
10.0189
30
8.56
0
VERTEX
10
7.92009
20
10.018
30
8.56
0
VERTEX
10
7.92009
20
10.0108
30
8.56
0
VERTEX
10
7.92009
20
10.0072
30
8.56
0
VERTEX
10
7.92278
20
10.0001
30
8.56
0
VERTEX
10
7.92367
20
9.9929
30
8.56
0
VERTEX
10
7.92905
20
9.97856
30
8.56
0
VERTEX
10
7.93085
20
9.97587
30
8.56
0
VERTEX
10
7.93085
20
9.97408
30
8.56
0
VERTEX
10
7.93802
20
9.96959
30
8.56
0
VERTEX
10
7.95236
20
9.96959
30
8.56
0
VERTEX
10
7.96671
20
9.97408
30
8.56
0
VERTEX
10
7.97388
20
9.97587
30
8.56
0
VERTEX
10
7.97478
20
9.97766
30
8.56
0
VERTEX
10
7.97836
20
9.97856
30
8.56
0
VERTEX
10
7.98195
20
9.98125
30
8.56
0
VERTEX
10
7.98912
20
9.98304
30
8.56
0
VERTEX
10
7.99092
20
9.98304
30
8.56
0
VERTEX
10
7.99271
20
9.98483
30
8.56
0
VERTEX
10
7.99988
20
9.98663
30
8.56
0
VERTEX
10
8.01423
20
9.99649
30
8.56
0
VERTEX
10
8.01781
20
9.99649
30
8.56
0
VERTEX
10
8.03216
20
10.0019
30
8.56
0
VERTEX
10
8.03395
20
10.0037
30
8.56
0
VERTEX
10
8.04829
20
10.0055
30
8.56
0
VERTEX
10
8.05009
20
10.0055
30
8.56
0
VERTEX
10
8.05188
20
10.0072
30
8.56
0
VERTEX
10
8.06623
20
10.0099
30
8.56
0
VERTEX
10
8.07967
20
10.0081
30
8.56
0
VERTEX
10
8.08685
20
10.0072
30
8.56
0
VERTEX
10
8.09402
20
10.0028
30
8.56
0
VERTEX
10
8.09581
20
10.0028
30
8.56
0
VERTEX
10
8.0976
20
10.001
30
8.56
0
VERTEX
10
8.10478
20
9.99918
30
8.56
0
VERTEX
10
8.10836
20
9.99649
30
8.56
0
VERTEX
10
8.11554
20
9.99559
30
8.56
0
VERTEX
10
8.11733
20
9.99559
30
8.56
0
VERTEX
10
8.11912
20
9.9938
30
8.56
0
VERTEX
10
8.13347
20
9.9938
30
8.56
0
VERTEX
10
8.14781
20
9.99559
30
8.56
0
VERTEX
10
8.15498
20
9.99649
30
8.56
0
VERTEX
10
8.15857
20
9.99918
30
8.56
0
VERTEX
10
8.16574
20
10.0019
30
8.56
0
VERTEX
10
8.16754
20
10.0019
30
8.56
0
VERTEX
10
8.17471
20
10.0072
30
8.56
0
VERTEX
10
8.17829
20
10.0099
30
8.56
0
VERTEX
10
8.18188
20
10.0171
30
8.56
0
VERTEX
10
8.18188
20
10.0189
30
8.56
0
VERTEX
10
8.18367
20
10.0198
30
8.56
0
VERTEX
10
8.18367
20
10.0216
30
8.56
0
VERTEX
10
8.18726
20
10.0234
30
8.56
0
VERTEX
10
8.19085
20
10.027
30
8.56
0
VERTEX
10
8.18905
20
10.0341
30
8.56
0
VERTEX
10
8.18278
20
10.0395
30
8.56
0
VERTEX
10
8.18009
20
10.0431
30
8.56
0
VERTEX
10
8.1765
20
10.044
30
8.56
0
VERTEX
10
8.17291
20
10.0467
30
8.56
0
VERTEX
10
8.14422
20
10.0476
30
8.56
0
VERTEX
10
8.13705
20
10.0485
30
8.56
0
VERTEX
10
8.12271
20
10.0458
30
8.56
0
VERTEX
10
8.06533
20
10.0601
30
8.56
0
VERTEX
10
8.03664
20
10.0673
30
8.56
0
VERTEX
10
8.02229
20
10.0709
30
8.56
0
VERTEX
10
8.01512
20
10.0736
30
8.56
0
VERTEX
10
8.01154
20
10.0745
30
8.56
0
VERTEX
10
8.00436
20
10.0799
30
8.56
0
VERTEX
10
7.99002
20
10.0852
30
8.56
0
VERTEX
10
7.98643
20
10.087
30
8.56
0
VERTEX
10
7.92905
20
10.0888
30
8.56
0
VERTEX
10
7.92726
20
10.0888
30
8.56
0
VERTEX
10
7.92547
20
10.0906
30
8.56
0
VERTEX
10
7.89678
20
10.0951
30
8.56
0
VERTEX
10
7.86809
20
10.0969
30
8.56
0
VERTEX
10
7.85374
20
10.096
30
8.56
0
VERTEX
10
7.8394
20
10.0978
30
8.56
0
VERTEX
10
7.83223
20
10.1005
30
8.56
0
VERTEX
10
7.82864
20
10.1005
30
8.56
0
VERTEX
10
7.82147
20
10.1041
30
8.56
0
VERTEX
10
7.80712
20
10.1148
30
8.56
0
VERTEX
10
7.80533
20
10.1166
30
8.56
0
VERTEX
10
7.79816
20
10.1193
30
8.56
0
VERTEX
10
7.78381
20
10.131
30
8.56
0
VERTEX
10
7.77664
20
10.1372
30
8.56
0
VERTEX
10
7.76947
20
10.1399
30
8.56
0
VERTEX
10
7.76588
20
10.1417
30
8.56
0
VERTEX
10
7.75871
20
10.1417
30
8.56
0
VERTEX
10
7.75512
20
10.1417
30
8.56
0
VERTEX
10
7.74795
20
10.139
30
8.56
0
VERTEX
10
7.74616
20
10.139
30
8.56
0
VERTEX
10
7.73271
20
10.1292
30
8.56
0
VERTEX
10
7.73002
20
10.122
30
8.56
0
VERTEX
10
7.73002
20
10.1202
30
8.56
0
SEQEND
0
ENDSEC
0
EOF
