0
SECTION
2
ENTITIES
0
POLYLINE
62
31
66
1
70
1
3
contour
0
VERTEX
10
10.2265
20
9.55245
30
6.48
0
VERTEX
10
10.231
20
9.53471
30
6.48
0
VERTEX
10
10.2332
20
9.52584
30
6.48
0
VERTEX
10
10.2443
20
9.5081
30
6.48
0
VERTEX
10
10.2487
20
9.47262
30
6.48
0
VERTEX
10
10.2554
20
9.45488
30
6.48
0
VERTEX
10
10.2576
20
9.43714
30
6.48
0
VERTEX
10
10.2687
20
9.42384
30
6.48
0
VERTEX
10
10.2709
20
9.41497
30
6.48
0
VERTEX
10
10.2864
20
9.39723
30
6.48
0
VERTEX
10
10.2975
20
9.38615
30
6.48
0
VERTEX
10
10.3064
20
9.38393
30
6.48
0
VERTEX
10
10.3241
20
9.37062
30
6.48
0
VERTEX
10
10.3596
20
9.3551
30
6.48
0
VERTEX
10
10.3618
20
9.35067
30
6.48
0
VERTEX
10
10.3973
20
9.34623
30
6.48
0
VERTEX
10
10.4682
20
9.34623
30
6.48
0
VERTEX
10
10.5037
20
9.34401
30
6.48
0
VERTEX
10
10.5126
20
9.34401
30
6.48
0
VERTEX
10
10.517
20
9.34401
30
6.48
0
VERTEX
10
10.5192
20
9.34845
30
6.48
0
VERTEX
10
10.5281
20
9.35067
30
6.48
0
VERTEX
10
10.5325
20
9.35288
30
6.48
0
VERTEX
10
10.5347
20
9.36175
30
6.48
0
VERTEX
10
10.5458
20
9.37728
30
6.48
0
VERTEX
10
10.5769
20
9.40388
30
6.48
0
VERTEX
10
10.6013
20
9.43714
30
6.48
0
VERTEX
10
10.6079
20
9.44601
30
6.48
0
VERTEX
10
10.6124
20
9.45045
30
6.48
0
VERTEX
10
10.6124
20
9.48593
30
6.48
0
VERTEX
10
10.6101
20
9.50367
30
6.48
0
VERTEX
10
10.599
20
9.51919
30
6.48
0
VERTEX
10
10.5924
20
9.52806
30
6.48
0
VERTEX
10
10.588
20
9.52806
30
6.48
0
VERTEX
10
10.5747
20
9.54136
30
6.48
0
VERTEX
10
10.5658
20
9.55023
30
6.48
0
VERTEX
10
10.548
20
9.55688
30
6.48
0
VERTEX
10
10.537
20
9.5724
30
6.48
0
VERTEX
10
10.5192
20
9.57906
30
6.48
0
VERTEX
10
10.5104
20
9.58571
30
6.48
0
VERTEX
10
10.4926
20
9.58793
30
6.48
0
VERTEX
10
10.4837
20
9.59458
30
6.48
0
VERTEX
10
10.4749
20
9.5968
30
6.48
0
VERTEX
10
10.4704
20
9.5968
30
6.48
0
VERTEX
10
10.4682
20
9.60123
30
6.48
0
VERTEX
10
10.4505
20
9.60345
30
6.48
0
VERTEX
10
10.4327
20
9.61232
30
6.48
0
VERTEX
10
10.415
20
9.61453
30
6.48
0
VERTEX
10
10.3795
20
9.62784
30
6.48
0
VERTEX
10
10.3441
20
9.63449
30
6.48
0
VERTEX
10
10.3352
20
9.63671
30
6.48
0
VERTEX
10
10.3285
20
9.64558
30
6.48
0
VERTEX
10
10.3197
20
9.6478
30
6.48
0
VERTEX
10
10.2842
20
9.64114
30
6.48
0
VERTEX
10
10.2753
20
9.63893
30
6.48
0
VERTEX
10
10.2598
20
9.6234
30
6.48
0
VERTEX
10
10.2487
20
9.60567
30
6.48
0
VERTEX
10
10.2332
20
9.59014
30
6.48
0
VERTEX
10
10.2265
20
9.57462
30
6.48
0
VERTEX
10
10.2265
20
9.55688
30
6.48
0
VERTEX
10
10.2265
20
9.55467
30
6.48
0
SEQEND
0
POLYLINE
62
31
66
1
70
1
3
contour
0
VERTEX
10
8.35305
20
9.0781
30
6.48
0
VERTEX
10
8.36119
20
9.05638
30
6.48
0
VERTEX
10
8.36119
20
9.04551
30
6.48
0
VERTEX
10
8.36934
20
9.03737
30
6.48
0
VERTEX
10
8.37749
20
9.01564
30
6.48
0
VERTEX
10
8.38835
20
9.0075
30
6.48
0
VERTEX
10
8.39106
20
9.00206
30
6.48
0
VERTEX
10
8.3965
20
9.00206
30
6.48
0
VERTEX
10
8.40193
20
8.9912
30
6.48
0
VERTEX
10
8.41279
20
8.98306
30
6.48
0
VERTEX
10
8.4155
20
8.97762
30
6.48
0
VERTEX
10
8.43723
20
8.98034
30
6.48
0
VERTEX
10
8.47796
20
8.99935
30
6.48
0
VERTEX
10
8.49697
20
9.01836
30
6.48
0
VERTEX
10
8.5377
20
9.0428
30
6.48
0
VERTEX
10
8.58115
20
9.07267
30
6.48
0
VERTEX
10
8.58658
20
9.08082
30
6.48
0
VERTEX
10
8.59745
20
9.08896
30
6.48
0
VERTEX
10
8.59745
20
9.09439
30
6.48
0
VERTEX
10
8.60288
20
9.09982
30
6.48
0
VERTEX
10
8.60559
20
9.11069
30
6.48
0
VERTEX
10
8.64904
20
9.13784
30
6.48
0
VERTEX
10
8.66805
20
9.1487
30
6.48
0
VERTEX
10
8.67348
20
9.1487
30
6.48
0
VERTEX
10
8.68706
20
9.17043
30
6.48
0
VERTEX
10
8.69249
20
9.17858
30
6.48
0
VERTEX
10
8.69792
20
9.18129
30
6.48
0
VERTEX
10
8.70064
20
9.19215
30
6.48
0
VERTEX
10
8.70878
20
9.20302
30
6.48
0
VERTEX
10
8.70335
20
9.21388
30
6.48
0
VERTEX
10
8.68163
20
9.21931
30
6.48
0
VERTEX
10
8.67077
20
9.22202
30
6.48
0
VERTEX
10
8.66534
20
9.23289
30
6.48
0
VERTEX
10
8.62189
20
9.24646
30
6.48
0
VERTEX
10
8.60016
20
9.2519
30
6.48
0
VERTEX
10
8.42637
20
9.26547
30
6.48
0
VERTEX
10
8.40464
20
9.25733
30
6.48
0
VERTEX
10
8.3965
20
9.24918
30
6.48
0
VERTEX
10
8.39106
20
9.24646
30
6.48
0
VERTEX
10
8.39106
20
9.24103
30
6.48
0
VERTEX
10
8.36934
20
9.22202
30
6.48
0
VERTEX
10
8.35576
20
9.20302
30
6.48
0
VERTEX
10
8.35305
20
9.11612
30
6.48
0
VERTEX
10
8.35305
20
9.09439
30
6.48
0
VERTEX
10
8.35305
20
9.08353
30
6.48
0
VERTEX
10
8.35305
20
9.08082
30
6.48
0
SEQEND
0
POLYLINE
62
31
66
1
70
1
3
contour
0
VERTEX
10
7.82734
20
9.1834
30
6.48
0
VERTEX
10
7.83
20
9.17274
30
6.48
0
VERTEX
10
7.84599
20
9.15676
30
6.48
0
VERTEX
10
7.8673
20
9.14876
30
6.48
0
VERTEX
10
7.88861
20
9.1461
30
6.48
0
VERTEX
10
7.89927
20
9.1461
30
6.48
0
VERTEX
10
7.9046
20
9.14344
30
6.48
0
VERTEX
10
7.90993
20
9.14876
30
6.48
0
VERTEX
10
7.90993
20
9.15409
30
6.48
0
VERTEX
10
7.92058
20
9.15676
30
6.48
0
VERTEX
10
7.93923
20
9.17008
30
6.48
0
VERTEX
10
7.9419
20
9.17541
30
6.48
0
VERTEX
10
7.95255
20
9.17807
30
6.48
0
VERTEX
10
7.95788
20
9.1834
30
6.48
0
VERTEX
10
7.95788
20
9.19406
30
6.48
0
VERTEX
10
7.96054
20
9.19938
30
6.48
0
VERTEX
10
7.95522
20
9.21004
30
6.48
0
VERTEX
10
7.95522
20
9.2207
30
6.48
0
VERTEX
10
7.9339
20
9.23935
30
6.48
0
VERTEX
10
7.92058
20
9.258
30
6.48
0
VERTEX
10
7.87796
20
9.25533
30
6.48
0
VERTEX
10
7.85664
20
9.25533
30
6.48
0
VERTEX
10
7.84599
20
9.25
30
6.48
0
VERTEX
10
7.84599
20
9.23935
30
6.48
0
VERTEX
10
7.83799
20
9.22869
30
6.48
0
VERTEX
10
7.83533
20
9.21803
30
6.48
0
VERTEX
10
7.82734
20
9.20738
30
6.48
0
VERTEX
10
7.82734
20
9.18606
30
6.48
0
SEQEND
0
POLYLINE
62
224
66
1
70
1
3
mitochondrion
0
VERTEX
10
9.0364
20
9.55921
30
6.48
0
VERTEX
10
9.04475
20
9.51471
30
6.48
0
VERTEX
10
9.05309
20
9.50498
30
6.48
0
VERTEX
10
9.06421
20
9.49664
30
6.48
0
VERTEX
10
9.07395
20
9.49246
30
6.48
0
VERTEX
10
9.08368
20
9.48412
30
6.48
0
VERTEX
10
9.08924
20
9.47995
30
6.48
0
VERTEX
10
9.0948
20
9.47856
30
6.48
0
VERTEX
10
9.10036
20
9.47439
30
6.48
0
VERTEX
10
9.10593
20
9.473
30
6.48
0
VERTEX
10
9.10871
20
9.47022
30
6.48
0
VERTEX
10
9.11983
20
9.46883
30
6.48
0
VERTEX
10
9.13095
20
9.46466
30
6.48
0
VERTEX
10
9.1532
20
9.46466
30
6.48
0
VERTEX
10
9.17545
20
9.46188
30
6.48
0
VERTEX
10
9.19769
20
9.46466
30
6.48
0
VERTEX
10
9.20882
20
9.46605
30
6.48
0
VERTEX
10
9.21438
20
9.46605
30
6.48
0
VERTEX
10
9.21716
20
9.46605
30
6.48
0
VERTEX
10
9.22133
20
9.47161
30
6.48
0
VERTEX
10
9.23245
20
9.47578
30
6.48
0
VERTEX
10
9.24358
20
9.48273
30
6.48
0
VERTEX
10
9.24358
20
9.48551
30
6.48
0
VERTEX
10
9.24636
20
9.4869
30
6.48
0
VERTEX
10
9.25053
20
9.49664
30
6.48
0
VERTEX
10
9.25331
20
9.49803
30
6.48
0
VERTEX
10
9.25748
20
9.50915
30
6.48
0
VERTEX
10
9.25609
20
9.55364
30
6.48
0
VERTEX
10
9.25609
20
9.55921
30
6.48
0
VERTEX
10
9.25192
20
9.56477
30
6.48
0
VERTEX
10
9.24914
20
9.57589
30
6.48
0
VERTEX
10
9.23663
20
9.59814
30
6.48
0
VERTEX
10
9.23385
20
9.6037
30
6.48
0
VERTEX
10
9.22411
20
9.61343
30
6.48
0
VERTEX
10
9.22133
20
9.61621
30
6.48
0
VERTEX
10
9.21855
20
9.61621
30
6.48
0
VERTEX
10
9.19908
20
9.63012
30
6.48
0
VERTEX
10
9.17684
20
9.63429
30
6.48
0
VERTEX
10
9.17128
20
9.63707
30
6.48
0
VERTEX
10
9.12678
20
9.63846
30
6.48
0
VERTEX
10
9.10454
20
9.6329
30
6.48
0
VERTEX
10
9.09897
20
9.63151
30
6.48
0
VERTEX
10
9.07812
20
9.61621
30
6.48
0
VERTEX
10
9.07256
20
9.61204
30
6.48
0
VERTEX
10
9.05865
20
9.59119
30
6.48
0
VERTEX
10
9.05865
20
9.5884
30
6.48
0
VERTEX
10
9.05448
20
9.58423
30
6.48
0
VERTEX
10
9.05309
20
9.57867
30
6.48
0
VERTEX
10
9.04614
20
9.57311
30
6.48
0
VERTEX
10
9.04475
20
9.56755
30
6.48
0
VERTEX
10
9.04336
20
9.56477
30
6.48
0
VERTEX
10
9.03779
20
9.56338
30
6.48
0
VERTEX
10
9.0364
20
9.5606
30
6.48
0
SEQEND
0
POLYLINE
62
236
66
1
70
1
3
postsynaptic_density
0
VERTEX
10
8.30659
20
9.07175
30
6.48
0
VERTEX
10
8.31032
20
9.06428
30
6.48
0
VERTEX
10
8.31406
20
9.06055
30
6.48
0
VERTEX
10
8.31406
20
9.05682
30
6.48
0
VERTEX
10
8.32152
20
9.04935
30
6.48
0
VERTEX
10
8.32899
20
9.03629
30
6.48
0
VERTEX
10
8.33645
20
9.02882
30
6.48
0
VERTEX
10
8.34392
20
9.02882
30
6.48
0
VERTEX
10
8.35138
20
9.03256
30
6.48
0
VERTEX
10
8.35511
20
9.03629
30
6.48
0
VERTEX
10
8.36258
20
9.03815
30
6.48
0
VERTEX
10
8.37751
20
9.04749
30
6.48
0
VERTEX
10
8.37937
20
9.05495
30
6.48
0
VERTEX
10
8.38497
20
9.06241
30
6.48
0
VERTEX
10
8.38497
20
9.06615
30
6.48
0
VERTEX
10
8.39244
20
9.06988
30
6.48
0
VERTEX
10
8.40177
20
9.08294
30
6.48
0
VERTEX
10
8.40177
20
9.1128
30
6.48
0
VERTEX
10
8.39244
20
9.12773
30
6.48
0
VERTEX
10
8.39057
20
9.1352
30
6.48
0
VERTEX
10
8.38497
20
9.14266
30
6.48
0
VERTEX
10
8.37751
20
9.14453
30
6.48
0
VERTEX
10
8.37378
20
9.14826
30
6.48
0
VERTEX
10
8.37004
20
9.14826
30
6.48
0
VERTEX
10
8.36444
20
9.15386
30
6.48
0
VERTEX
10
8.34951
20
9.15946
30
6.48
0
VERTEX
10
8.34205
20
9.16319
30
6.48
0
VERTEX
10
8.32712
20
9.16319
30
6.48
0
VERTEX
10
8.31966
20
9.16319
30
6.48
0
VERTEX
10
8.31592
20
9.16133
30
6.48
0
VERTEX
10
8.31032
20
9.13147
30
6.48
0
VERTEX
10
8.30659
20
9.07361
30
6.48
0
SEQEND
0
POLYLINE
62
227
66
1
70
1
3
endoplasmic_reticulum
0
VERTEX
10
9.23801
20
9.62801
30
6.48
0
VERTEX
10
9.2398
20
9.62442
30
6.48
0
VERTEX
10
9.24339
20
9.62173
30
6.48
0
VERTEX
10
9.24518
20
9.61904
30
6.48
0
VERTEX
10
9.25236
20
9.61456
30
6.48
0
VERTEX
10
9.25953
20
9.61187
30
6.48
0
VERTEX
10
9.27387
20
9.61187
30
6.48
0
VERTEX
10
9.27746
20
9.61277
30
6.48
0
VERTEX
10
9.27836
20
9.61456
30
6.48
0
VERTEX
10
9.28194
20
9.61546
30
6.48
0
VERTEX
10
9.28911
20
9.62173
30
6.48
0
VERTEX
10
9.29001
20
9.62353
30
6.48
0
VERTEX
10
9.2918
20
9.62263
30
6.48
0
VERTEX
10
9.2936
20
9.62353
30
6.48
0
VERTEX
10
9.2927
20
9.63787
30
6.48
0
VERTEX
10
9.2927
20
9.64146
30
6.48
0
VERTEX
10
9.29091
20
9.64325
30
6.48
0
VERTEX
10
9.29091
20
9.64504
30
6.48
0
VERTEX
10
9.28463
20
9.65132
30
6.48
0
VERTEX
10
9.27746
20
9.65491
30
6.48
0
VERTEX
10
9.27477
20
9.65759
30
6.48
0
VERTEX
10
9.24608
20
9.65311
30
6.48
0
VERTEX
10
9.23891
20
9.64863
30
6.48
0
VERTEX
10
9.23801
20
9.63428
30
6.48
0
VERTEX
10
9.23801
20
9.6307
30
6.48
0
VERTEX
10
9.23801
20
9.62891
30
6.48
0
SEQEND
0
POLYLINE
62
227
66
1
70
1
3
endoplasmic_reticulum
0
VERTEX
10
9.07215
20
9.70959
30
6.48
0
VERTEX
10
9.07574
20
9.70332
30
6.48
0
VERTEX
10
9.07574
20
9.69973
30
6.48
0
VERTEX
10
9.08022
20
9.69256
30
6.48
0
VERTEX
10
9.08739
20
9.68897
30
6.48
0
VERTEX
10
9.10174
20
9.68808
30
6.48
0
VERTEX
10
9.10891
20
9.69166
30
6.48
0
VERTEX
10
9.1116
20
9.69884
30
6.48
0
VERTEX
10
9.1116
20
9.71318
30
6.48
0
VERTEX
10
9.10981
20
9.72035
30
6.48
0
VERTEX
10
9.10532
20
9.72663
30
6.48
0
VERTEX
10
9.09815
20
9.72753
30
6.48
0
VERTEX
10
9.08381
20
9.72663
30
6.48
0
VERTEX
10
9.07663
20
9.72573
30
6.48
0
VERTEX
10
9.07484
20
9.72573
30
6.48
0
VERTEX
10
9.07305
20
9.72215
30
6.48
0
VERTEX
10
9.07215
20
9.71497
30
6.48
0
VERTEX
10
9.07215
20
9.71139
30
6.48
0
VERTEX
10
9.07215
20
9.71049
30
6.48
0
SEQEND
0
POLYLINE
62
227
66
1
70
1
3
endoplasmic_reticulum
0
VERTEX
10
8.88388
20
9.5267
30
6.48
0
VERTEX
10
8.88657
20
9.51953
30
6.48
0
VERTEX
10
8.89732
20
9.50787
30
6.48
0
VERTEX
10
8.9045
20
9.50249
30
6.48
0
VERTEX
10
8.90808
20
9.5007
30
6.48
0
VERTEX
10
8.90898
20
9.49891
30
6.48
0
VERTEX
10
8.91077
20
9.49891
30
6.48
0
VERTEX
10
8.91167
20
9.49711
30
6.48
0
VERTEX
10
8.91525
20
9.49711
30
6.48
0
VERTEX
10
8.92153
20
9.49173
30
6.48
0
VERTEX
10
8.92512
20
9.48994
30
6.48
0
VERTEX
10
8.92691
20
9.48994
30
6.48
0
VERTEX
10
8.92781
20
9.48815
30
6.48
0
VERTEX
10
8.93498
20
9.48635
30
6.48
0
VERTEX
10
8.93856
20
9.48635
30
6.48
0
VERTEX
10
8.94574
20
9.48904
30
6.48
0
VERTEX
10
8.96008
20
9.48994
30
6.48
0
VERTEX
10
8.96725
20
9.49084
30
6.48
0
VERTEX
10
8.97084
20
9.49084
30
6.48
0
VERTEX
10
8.97801
20
9.49532
30
6.48
0
VERTEX
10
8.98339
20
9.5007
30
6.48
0
VERTEX
10
8.98429
20
9.50429
30
6.48
0
VERTEX
10
8.98877
20
9.51146
30
6.48
0
VERTEX
10
8.98967
20
9.51863
30
6.48
0
VERTEX
10
8.98967
20
9.52222
30
6.48
0
VERTEX
10
8.98698
20
9.52939
30
6.48
0
VERTEX
10
8.98608
20
9.53656
30
6.48
0
VERTEX
10
8.98608
20
9.54015
30
6.48
0
VERTEX
10
8.98877
20
9.54732
30
6.48
0
VERTEX
10
8.98698
20
9.55449
30
6.48
0
VERTEX
10
8.98608
20
9.55808
30
6.48
0
VERTEX
10
8.98608
20
9.55987
30
6.48
0
VERTEX
10
8.97174
20
9.57153
30
6.48
0
VERTEX
10
8.96815
20
9.57242
30
6.48
0
VERTEX
10
8.96636
20
9.57422
30
6.48
0
VERTEX
10
8.95919
20
9.57511
30
6.48
0
VERTEX
10
8.95201
20
9.57422
30
6.48
0
VERTEX
10
8.93767
20
9.5787
30
6.48
0
VERTEX
10
8.92332
20
9.57691
30
6.48
0
VERTEX
10
8.91615
20
9.57422
30
6.48
0
VERTEX
10
8.91256
20
9.57332
30
6.48
0
VERTEX
10
8.91077
20
9.57153
30
6.48
0
VERTEX
10
8.89643
20
9.56704
30
6.48
0
VERTEX
10
8.89015
20
9.56077
30
6.48
0
VERTEX
10
8.88567
20
9.55449
30
6.48
0
VERTEX
10
8.88388
20
9.54015
30
6.48
0
VERTEX
10
8.88388
20
9.53297
30
6.48
0
VERTEX
10
8.88388
20
9.52939
30
6.48
0
VERTEX
10
8.88388
20
9.5276
30
6.48
0
SEQEND
0
POLYLINE
62
227
66
1
70
1
3
endoplasmic_reticulum
0
VERTEX
10
10.3064
20
9.53969
30
6.48
0
VERTEX
10
10.3092
20
9.53224
30
6.48
0
VERTEX
10
10.3102
20
9.5248
30
6.48
0
VERTEX
10
10.312
20
9.52294
30
6.48
0
VERTEX
10
10.3129
20
9.51922
30
6.48
0
VERTEX
10
10.3176
20
9.51549
30
6.48
0
VERTEX
10
10.325
20
9.51549
30
6.48
0
VERTEX
10
10.3325
20
9.51735
30
6.48
0
VERTEX
10
10.3353
20
9.5248
30
6.48
0
VERTEX
10
10.3362
20
9.53876
30
6.48
0
VERTEX
10
10.3427
20
9.54341
30
6.48
0
VERTEX
10
10.3576
20
9.54434
30
6.48
0
VERTEX
10
10.3623
20
9.55085
30
6.48
0
VERTEX
10
10.3632
20
9.5583
30
6.48
0
VERTEX
10
10.3585
20
9.56574
30
6.48
0
VERTEX
10
10.3558
20
9.57319
30
6.48
0
VERTEX
10
10.353
20
9.57691
30
6.48
0
VERTEX
10
10.3455
20
9.5797
30
6.48
0
VERTEX
10
10.3381
20
9.58063
30
6.48
0
VERTEX
10
10.3306
20
9.5797
30
6.48
0
VERTEX
10
10.3232
20
9.57598
30
6.48
0
VERTEX
10
10.3204
20
9.57319
30
6.48
0
VERTEX
10
10.3195
20
9.56946
30
6.48
0
VERTEX
10
10.3139
20
9.56388
30
6.48
0
VERTEX
10
10.3074
20
9.55644
30
6.48
0
VERTEX
10
10.3064
20
9.54155
30
6.48
0
VERTEX
10
10.3064
20
9.54062
30
6.48
0
SEQEND
0
POLYLINE
62
31
66
1
70
1
3
contour
0
VERTEX
10
8.72518
20
9.42467
30
6.48
0
VERTEX
10
8.7369
20
9.41463
30
6.48
0
VERTEX
10
8.74025
20
9.40961
30
6.48
0
VERTEX
10
8.76702
20
9.41296
30
6.48
0
VERTEX
10
8.77371
20
9.4163
30
6.48
0
VERTEX
10
8.82726
20
9.42133
30
6.48
0
VERTEX
10
8.83061
20
9.42133
30
6.48
0
VERTEX
10
8.83396
20
9.41798
30
6.48
0
VERTEX
10
8.88751
20
9.41798
30
6.48
0
VERTEX
10
8.94106
20
9.423
30
6.48
0
VERTEX
10
8.96783
20
9.42467
30
6.48
0
VERTEX
10
8.98122
20
9.42969
30
6.48
0
VERTEX
10
9.00799
20
9.43137
30
6.48
0
VERTEX
10
9.03477
20
9.423
30
6.48
0
VERTEX
10
9.04815
20
9.42133
30
6.48
0
VERTEX
10
9.0515
20
9.41965
30
6.48
0
VERTEX
10
9.0515
20
9.4163
30
6.48
0
VERTEX
10
9.05819
20
9.41128
30
6.48
0
VERTEX
10
9.08497
20
9.40961
30
6.48
0
VERTEX
10
9.11174
20
9.39957
30
6.48
0
VERTEX
10
9.11844
20
9.39622
30
6.48
0
VERTEX
10
9.13182
20
9.39455
30
6.48
0
VERTEX
10
9.13852
20
9.39455
30
6.48
0
VERTEX
10
9.14186
20
9.39455
30
6.48
0
VERTEX
10
9.14521
20
9.3912
30
6.48
0
VERTEX
10
9.19876
20
9.3912
30
6.48
0
VERTEX
10
9.22554
20
9.3912
30
6.48
0
VERTEX
10
9.23892
20
9.3912
30
6.48
0
VERTEX
10
9.24562
20
9.39455
30
6.48
0
VERTEX
10
9.35272
20
9.3979
30
6.48
0
VERTEX
10
9.40626
20
9.40292
30
6.48
0
VERTEX
10
9.45981
20
9.40459
30
6.48
0
VERTEX
10
9.4732
20
9.40626
30
6.48
0
VERTEX
10
9.47989
20
9.40626
30
6.48
0
VERTEX
10
9.49161
20
9.4163
30
6.48
0
VERTEX
10
9.4983
20
9.41965
30
6.48
0
VERTEX
10
9.49998
20
9.42635
30
6.48
0
VERTEX
10
9.505
20
9.43304
30
6.48
0
VERTEX
10
9.50667
20
9.44643
30
6.48
0
VERTEX
10
9.51504
20
9.45647
30
6.48
0
VERTEX
10
9.51838
20
9.46985
30
6.48
0
VERTEX
10
9.52675
20
9.48324
30
6.48
0
VERTEX
10
9.52675
20
9.48994
30
6.48
0
VERTEX
10
9.53177
20
9.50332
30
6.48
0
VERTEX
10
9.53344
20
9.51671
30
6.48
0
VERTEX
10
9.53679
20
9.5234
30
6.48
0
VERTEX
10
9.53679
20
9.5301
30
6.48
0
VERTEX
10
9.54181
20
9.53679
30
6.48
0
VERTEX
10
9.54683
20
9.56357
30
6.48
0
VERTEX
10
9.55185
20
9.56859
30
6.48
0
VERTEX
10
9.56524
20
9.57361
30
6.48
0
VERTEX
10
9.57528
20
9.58699
30
6.48
0
VERTEX
10
9.58867
20
9.59871
30
6.48
0
VERTEX
10
9.59201
20
9.59871
30
6.48
0
VERTEX
10
9.6054
20
9.62381
30
6.48
0
VERTEX
10
9.61544
20
9.6372
30
6.48
0
VERTEX
10
9.61544
20
9.64054
30
6.48
0
VERTEX
10
9.62883
20
9.64891
30
6.48
0
VERTEX
10
9.63218
20
9.65226
30
6.48
0
VERTEX
10
9.63552
20
9.65226
30
6.48
0
VERTEX
10
9.63887
20
9.65728
30
6.48
0
VERTEX
10
9.66397
20
9.67234
30
6.48
0
VERTEX
10
9.67066
20
9.67568
30
6.48
0
VERTEX
10
9.67401
20
9.67568
30
6.48
0
VERTEX
10
9.6807
20
9.6807
30
6.48
0
VERTEX
10
9.6874
20
9.68238
30
6.48
0
VERTEX
10
9.69074
20
9.68238
30
6.48
0
VERTEX
10
9.70246
20
9.69409
30
6.48
0
VERTEX
10
9.70413
20
9.69911
30
6.48
0
VERTEX
10
9.71752
20
9.70413
30
6.48
0
VERTEX
10
9.72087
20
9.70748
30
6.48
0
VERTEX
10
9.73425
20
9.71083
30
6.48
0
VERTEX
10
9.74764
20
9.71083
30
6.48
0
VERTEX
10
9.75433
20
9.71417
30
6.48
0
VERTEX
10
9.80788
20
9.71417
30
6.48
0
VERTEX
10
9.82127
20
9.71417
30
6.48
0
VERTEX
10
9.83466
20
9.71083
30
6.48
0
VERTEX
10
9.88821
20
9.70581
30
6.48
0
VERTEX
10
9.9016
20
9.70413
30
6.48
0
VERTEX
10
9.90829
20
9.70413
30
6.48
0
VERTEX
10
9.91164
20
9.70079
30
6.48
0
VERTEX
10
9.92502
20
9.69744
30
6.48
0
VERTEX
10
9.93674
20
9.68907
30
6.48
0
VERTEX
10
9.95012
20
9.68405
30
6.48
0
VERTEX
10
9.96184
20
9.67568
30
6.48
0
VERTEX
10
9.97523
20
9.67066
30
6.48
0
VERTEX
10
9.98192
20
9.66899
30
6.48
0
VERTEX
10
9.99196
20
9.65895
30
6.48
0
VERTEX
10
10.0053
20
9.65226
30
6.48
0
VERTEX
10
10.0321
20
9.64724
30
6.48
0
VERTEX
10
10.0355
20
9.64724
30
6.48
0
VERTEX
10
10.0388
20
9.65058
30
6.48
0
VERTEX
10
10.0522
20
9.65393
30
6.48
0
VERTEX
10
10.0589
20
9.65393
30
6.48
0
VERTEX
10
10.0622
20
9.65393
30
6.48
0
VERTEX
10
10.0639
20
9.65728
30
6.48
0
VERTEX
10
10.0706
20
9.65895
30
6.48
0
VERTEX
10
10.0756
20
9.66564
30
6.48
0
VERTEX
10
10.079
20
9.67903
30
6.48
0
VERTEX
10
10.0773
20
9.68572
30
6.48
0
VERTEX
10
10.079
20
9.7125
30
6.48
0
VERTEX
10
10.0773
20
9.72589
30
6.48
0
VERTEX
10
10.0773
20
9.73258
30
6.48
0
VERTEX
10
10.074
20
9.73425
30
6.48
0
VERTEX
10
10.074
20
9.7376
30
6.48
0
VERTEX
10
10.0706
20
9.73927
30
6.48
0
VERTEX
10
10.0706
20
9.74262
30
6.48
0
VERTEX
10
10.0589
20
9.75433
30
6.48
0
VERTEX
10
10.0539
20
9.75768
30
6.48
0
VERTEX
10
10.0472
20
9.75768
30
6.48
0
VERTEX
10
10.0438
20
9.75935
30
6.48
0
VERTEX
10
10.0438
20
9.7627
30
6.48
0
VERTEX
10
10.0321
20
9.77274
30
6.48
0
VERTEX
10
10.0254
20
9.77776
30
6.48
0
VERTEX
10
9.99865
20
9.78111
30
6.48
0
VERTEX
10
9.99196
20
9.78278
30
6.48
0
VERTEX
10
9.98861
20
9.78613
30
6.48
0
VERTEX
10
9.97523
20
9.79115
30
6.48
0
VERTEX
10
9.92168
20
9.79617
30
6.48
0
VERTEX
10
9.8949
20
9.80454
30
6.48
0
VERTEX
10
9.88151
20
9.80956
30
6.48
0
VERTEX
10
9.87482
20
9.81123
30
6.48
0
VERTEX
10
9.86813
20
9.81625
30
6.48
0
VERTEX
10
9.84135
20
9.82127
30
6.48
0
VERTEX
10
9.82796
20
9.82462
30
6.48
0
VERTEX
10
9.81458
20
9.83299
30
6.48
0
VERTEX
10
9.7878
20
9.83466
30
6.48
0
VERTEX
10
9.73425
20
9.82964
30
6.48
0
VERTEX
10
9.72087
20
9.82294
30
6.48
0
VERTEX
10
9.71417
20
9.8196
30
6.48
0
VERTEX
10
9.70079
20
9.81792
30
6.48
0
VERTEX
10
9.68907
20
9.8129
30
6.48
0
VERTEX
10
9.67568
20
9.8129
30
6.48
0
VERTEX
10
9.64891
20
9.80621
30
6.48
0
VERTEX
10
9.64222
20
9.80621
30
6.48
0
VERTEX
10
9.62883
20
9.8129
30
6.48
0
VERTEX
10
9.62213
20
9.8129
30
6.48
0
VERTEX
10
9.60875
20
9.82127
30
6.48
0
VERTEX
10
9.58197
20
9.82294
30
6.48
0
VERTEX
10
9.56859
20
9.82462
30
6.48
0
VERTEX
10
9.54181
20
9.83466
30
6.48
0
VERTEX
10
9.52842
20
9.83801
30
6.48
0
VERTEX
10
9.52508
20
9.83801
30
6.48
0
VERTEX
10
9.51838
20
9.84303
30
6.48
0
VERTEX
10
9.51169
20
9.8447
30
6.48
0
VERTEX
10
9.49998
20
9.85474
30
6.48
0
VERTEX
10
9.49328
20
9.85474
30
6.48
0
VERTEX
10
9.47989
20
9.85976
30
6.48
0
VERTEX
10
9.48157
20
9.86143
30
6.48
0
VERTEX
10
9.46818
20
9.86813
30
6.48
0
VERTEX
10
9.46149
20
9.87147
30
6.48
0
VERTEX
10
9.46149
20
9.87482
30
6.48
0
VERTEX
10
9.45814
20
9.87817
30
6.48
0
VERTEX
10
9.45479
20
9.87817
30
6.48
0
VERTEX
10
9.44475
20
9.88988
30
6.48
0
VERTEX
10
9.43806
20
9.89323
30
6.48
0
VERTEX
10
9.43137
20
9.89323
30
6.48
0
VERTEX
10
9.42467
20
9.89825
30
6.48
0
VERTEX
10
9.41798
20
9.89992
30
6.48
0
VERTEX
10
9.41463
20
9.89992
30
6.48
0
VERTEX
10
9.41128
20
9.90327
30
6.48
0
VERTEX
10
9.40794
20
9.90327
30
6.48
0
VERTEX
10
9.40459
20
9.90662
30
6.48
0
VERTEX
10
9.40124
20
9.90662
30
6.48
0
VERTEX
10
9.39622
20
9.91164
30
6.48
0
VERTEX
10
9.39288
20
9.91164
30
6.48
0
VERTEX
10
9.38618
20
9.91666
30
6.48
0
VERTEX
10
9.35941
20
9.91498
30
6.48
0
VERTEX
10
9.34602
20
9.91498
30
6.48
0
VERTEX
10
9.34267
20
9.91164
30
6.48
0
VERTEX
10
9.3159
20
9.89992
30
6.48
0
VERTEX
10
9.31255
20
9.89657
30
6.48
0
VERTEX
10
9.30586
20
9.8949
30
6.48
0
VERTEX
10
9.30419
20
9.89155
30
6.48
0
VERTEX
10
9.30084
20
9.89155
30
6.48
0
VERTEX
10
9.27406
20
9.87315
30
6.48
0
VERTEX
10
9.26235
20
9.86645
30
6.48
0
VERTEX
10
9.259
20
9.86311
30
6.48
0
VERTEX
10
9.23223
20
9.85307
30
6.48
0
VERTEX
10
9.22554
20
9.84805
30
6.48
0
VERTEX
10
9.19876
20
9.83968
30
6.48
0
VERTEX
10
9.19207
20
9.83968
30
6.48
0
VERTEX
10
9.17868
20
9.83299
30
6.48
0
VERTEX
10
9.17366
20
9.82796
30
6.48
0
VERTEX
10
9.16697
20
9.82629
30
6.48
0
VERTEX
10
9.16027
20
9.82127
30
6.48
0
VERTEX
10
9.14689
20
9.81792
30
6.48
0
VERTEX
10
9.14019
20
9.8129
30
6.48
0
VERTEX
10
9.11342
20
9.80286
30
6.48
0
VERTEX
10
9.10003
20
9.79952
30
6.48
0
VERTEX
10
9.08664
20
9.79282
30
6.48
0
VERTEX
10
9.07995
20
9.7878
30
6.48
0
VERTEX
10
9.0766
20
9.78446
30
6.48
0
VERTEX
10
9.06991
20
9.78446
30
6.48
0
VERTEX
10
9.06656
20
9.78446
30
6.48
0
VERTEX
10
9.05987
20
9.77944
30
6.48
0
VERTEX
10
9.05652
20
9.77944
30
6.48
0
VERTEX
10
9.05317
20
9.77609
30
6.48
0
VERTEX
10
9.04648
20
9.77442
30
6.48
0
VERTEX
10
9.04313
20
9.7694
30
6.48
0
VERTEX
10
9.02975
20
9.75935
30
6.48
0
VERTEX
10
9.02305
20
9.75601
30
6.48
0
VERTEX
10
9.01971
20
9.75601
30
6.48
0
VERTEX
10
9.00632
20
9.74764
30
6.48
0
VERTEX
10
8.98122
20
9.7376
30
6.48
0
VERTEX
10
8.97452
20
9.73593
30
6.48
0
VERTEX
10
8.95277
20
9.71752
30
6.48
0
VERTEX
10
8.92599
20
9.70748
30
6.48
0
VERTEX
10
8.91428
20
9.70246
30
6.48
0
VERTEX
10
8.91093
20
9.69911
30
6.48
0
VERTEX
10
8.91093
20
9.69577
30
6.48
0
VERTEX
10
8.89085
20
9.67401
30
6.48
0
VERTEX
10
8.88081
20
9.6623
30
6.48
0
VERTEX
10
8.87579
20
9.6556
30
6.48
0
VERTEX
10
8.8691
20
9.62883
30
6.48
0
VERTEX
10
8.8691
20
9.62548
30
6.48
0
VERTEX
10
8.85906
20
9.61377
30
6.48
0
VERTEX
10
8.85236
20
9.60875
30
6.48
0
VERTEX
10
8.85069
20
9.60205
30
6.48
0
VERTEX
10
8.84567
20
9.59536
30
6.48
0
VERTEX
10
8.8373
20
9.59034
30
6.48
0
VERTEX
10
8.83563
20
9.58365
30
6.48
0
VERTEX
10
8.82726
20
9.57026
30
6.48
0
VERTEX
10
8.81555
20
9.56524
30
6.48
0
VERTEX
10
8.80886
20
9.56022
30
6.48
0
VERTEX
10
8.80718
20
9.55687
30
6.48
0
VERTEX
10
8.80049
20
9.55687
30
6.48
0
VERTEX
10
8.7871
20
9.5485
30
6.48
0
VERTEX
10
8.78375
20
9.5485
30
6.48
0
VERTEX
10
8.76702
20
9.52508
30
6.48
0
VERTEX
10
8.75531
20
9.51336
30
6.48
0
VERTEX
10
8.75029
20
9.50834
30
6.48
0
VERTEX
10
8.75029
20
9.505
30
6.48
0
VERTEX
10
8.74359
20
9.50165
30
6.48
0
VERTEX
10
8.73355
20
9.48994
30
6.48
0
VERTEX
10
8.72686
20
9.48491
30
6.48
0
VERTEX
10
8.72518
20
9.43137
30
6.48
0
VERTEX
10
8.72518
20
9.42635
30
6.48
0
SEQEND
0
ENDSEC
0
EOF
