0
SECTION
2
ENTITIES
0
POLYLINE
62
31
66
1
70
1
3
contour
0
VERTEX
10
8.71831
20
9.10437
30
4.52
0
VERTEX
10
8.72779
20
9.08542
30
4.52
0
VERTEX
10
8.73489
20
9.07832
30
4.52
0
VERTEX
10
8.75384
20
9.07358
30
4.52
0
VERTEX
10
8.79173
20
9.07358
30
4.52
0
VERTEX
10
8.81068
20
9.07595
30
4.52
0
VERTEX
10
8.82963
20
9.08305
30
4.52
0
VERTEX
10
8.84621
20
9.09963
30
4.52
0
VERTEX
10
8.85568
20
9.10674
30
4.52
0
VERTEX
10
8.86042
20
9.10674
30
4.52
0
VERTEX
10
8.86752
20
9.11384
30
4.52
0
VERTEX
10
8.86752
20
9.11858
30
4.52
0
VERTEX
10
8.8841
20
9.13279
30
4.52
0
VERTEX
10
8.89121
20
9.1399
30
4.52
0
VERTEX
10
8.89831
20
9.13516
30
4.52
0
VERTEX
10
8.90305
20
9.13516
30
4.52
0
VERTEX
10
8.91726
20
9.15174
30
4.52
0
VERTEX
10
8.92437
20
9.17069
30
4.52
0
VERTEX
10
8.9291
20
9.18016
30
4.52
0
VERTEX
10
8.93384
20
9.21806
30
4.52
0
VERTEX
10
8.93147
20
9.25595
30
4.52
0
VERTEX
10
8.9291
20
9.2749
30
4.52
0
VERTEX
10
8.92437
20
9.28437
30
4.52
0
VERTEX
10
8.92437
20
9.29385
30
4.52
0
VERTEX
10
8.92437
20
9.29858
30
4.52
0
VERTEX
10
8.91963
20
9.30332
30
4.52
0
VERTEX
10
8.91963
20
9.32227
30
4.52
0
VERTEX
10
8.91963
20
9.32701
30
4.52
0
VERTEX
10
8.90542
20
9.34359
30
4.52
0
VERTEX
10
8.89595
20
9.34832
30
4.52
0
VERTEX
10
8.88647
20
9.34595
30
4.52
0
VERTEX
10
8.86989
20
9.33174
30
4.52
0
VERTEX
10
8.86042
20
9.32464
30
4.52
0
VERTEX
10
8.85568
20
9.32464
30
4.52
0
VERTEX
10
8.84147
20
9.31043
30
4.52
0
VERTEX
10
8.832
20
9.31043
30
4.52
0
VERTEX
10
8.79647
20
9.27964
30
4.52
0
VERTEX
10
8.77042
20
9.24174
30
4.52
0
VERTEX
10
8.75858
20
9.22516
30
4.52
0
VERTEX
10
8.75621
20
9.21569
30
4.52
0
VERTEX
10
8.73252
20
9.18253
30
4.52
0
VERTEX
10
8.72305
20
9.16358
30
4.52
0
VERTEX
10
8.71831
20
9.15411
30
4.52
0
VERTEX
10
8.71831
20
9.11621
30
4.52
0
VERTEX
10
8.71831
20
9.10674
30
4.52
0
SEQEND
0
POLYLINE
62
31
66
1
70
1
3
contour
0
VERTEX
10
7.8914
20
7.69317
30
4.52
0
VERTEX
10
7.89955
20
7.67144
30
4.52
0
VERTEX
10
7.90226
20
7.64972
30
4.52
0
VERTEX
10
7.90498
20
7.63886
30
4.52
0
VERTEX
10
7.9077
20
7.63342
30
4.52
0
VERTEX
10
7.91313
20
7.63342
30
4.52
0
VERTEX
10
7.9267
20
7.62528
30
4.52
0
VERTEX
10
7.94843
20
7.62256
30
4.52
0
VERTEX
10
7.95929
20
7.62528
30
4.52
0
VERTEX
10
7.97015
20
7.63342
30
4.52
0
VERTEX
10
7.97287
20
7.65515
30
4.52
0
VERTEX
10
7.98102
20
7.67687
30
4.52
0
VERTEX
10
7.98373
20
7.72032
30
4.52
0
VERTEX
10
7.99188
20
7.76377
30
4.52
0
VERTEX
10
8.00002
20
7.77463
30
4.52
0
VERTEX
10
8.00817
20
7.79636
30
4.52
0
VERTEX
10
8.01089
20
7.83981
30
4.52
0
VERTEX
10
8.02446
20
7.88326
30
4.52
0
VERTEX
10
8.02175
20
7.90498
30
4.52
0
VERTEX
10
8.01632
20
7.91584
30
4.52
0
VERTEX
10
8.00546
20
7.92399
30
4.52
0
VERTEX
10
7.99459
20
7.91856
30
4.52
0
VERTEX
10
7.98916
20
7.91856
30
4.52
0
VERTEX
10
7.9783
20
7.9077
30
4.52
0
VERTEX
10
7.96744
20
7.90226
30
4.52
0
VERTEX
10
7.95386
20
7.88054
30
4.52
0
VERTEX
10
7.95386
20
7.87511
30
4.52
0
VERTEX
10
7.94571
20
7.86425
30
4.52
0
VERTEX
10
7.93757
20
7.84252
30
4.52
0
VERTEX
10
7.93485
20
7.8208
30
4.52
0
VERTEX
10
7.92942
20
7.80994
30
4.52
0
VERTEX
10
7.92942
20
7.8045
30
4.52
0
VERTEX
10
7.92399
20
7.80179
30
4.52
0
VERTEX
10
7.91856
20
7.78006
30
4.52
0
VERTEX
10
7.9077
20
7.75834
30
4.52
0
VERTEX
10
7.90226
20
7.75562
30
4.52
0
VERTEX
10
7.90226
20
7.75019
30
4.52
0
VERTEX
10
7.89412
20
7.73933
30
4.52
0
VERTEX
10
7.8914
20
7.69588
30
4.52
0
SEQEND
0
POLYLINE
62
31
66
1
70
1
3
contour
0
VERTEX
10
8.67823
20
8.55124
30
4.52
0
VERTEX
10
8.68233
20
8.53486
30
4.52
0
VERTEX
10
8.69462
20
8.52052
30
4.52
0
VERTEX
10
8.70076
20
8.51233
30
4.52
0
VERTEX
10
8.70076
20
8.50414
30
4.52
0
VERTEX
10
8.70486
20
8.50004
30
4.52
0
VERTEX
10
8.711
20
8.46727
30
4.52
0
VERTEX
10
8.70896
20
8.4345
30
4.52
0
VERTEX
10
8.70486
20
8.41811
30
4.52
0
VERTEX
10
8.70486
20
8.35257
30
4.52
0
VERTEX
10
8.70896
20
8.28703
30
4.52
0
VERTEX
10
8.711
20
8.27883
30
4.52
0
VERTEX
10
8.7192
20
8.27474
30
4.52
0
VERTEX
10
8.73558
20
8.27474
30
4.52
0
VERTEX
10
8.76835
20
8.28088
30
4.52
0
VERTEX
10
8.78474
20
8.28088
30
4.52
0
VERTEX
10
8.80113
20
8.28498
30
4.52
0
VERTEX
10
8.83185
20
8.31161
30
4.52
0
VERTEX
10
8.85233
20
8.34233
30
4.52
0
VERTEX
10
8.86667
20
8.35257
30
4.52
0
VERTEX
10
8.87486
20
8.35462
30
4.52
0
VERTEX
10
8.8892
20
8.371
30
4.52
0
VERTEX
10
8.90558
20
8.38124
30
4.52
0
VERTEX
10
8.92197
20
8.38739
30
4.52
0
VERTEX
10
8.95474
20
8.38944
30
4.52
0
VERTEX
10
8.98751
20
8.38739
30
4.52
0
VERTEX
10
9.0039
20
8.38739
30
4.52
0
VERTEX
10
9.02028
20
8.39148
30
4.52
0
VERTEX
10
9.08583
20
8.39148
30
4.52
0
VERTEX
10
9.1186
20
8.39353
30
4.52
0
VERTEX
10
9.13498
20
8.39558
30
4.52
0
VERTEX
10
9.14318
20
8.39558
30
4.52
0
VERTEX
10
9.15137
20
8.39968
30
4.52
0
VERTEX
10
9.15956
20
8.39968
30
4.52
0
VERTEX
10
9.16775
20
8.40377
30
4.52
0
VERTEX
10
9.17595
20
8.40377
30
4.52
0
VERTEX
10
9.17799
20
8.40787
30
4.52
0
VERTEX
10
9.21077
20
8.41811
30
4.52
0
VERTEX
10
9.22715
20
8.41811
30
4.52
0
VERTEX
10
9.23534
20
8.42221
30
4.52
0
VERTEX
10
9.23944
20
8.42221
30
4.52
0
VERTEX
10
9.24354
20
8.4263
30
4.52
0
VERTEX
10
9.25173
20
8.42835
30
4.52
0
VERTEX
10
9.25787
20
8.4345
30
4.52
0
VERTEX
10
9.29065
20
8.44064
30
4.52
0
VERTEX
10
9.35619
20
8.44064
30
4.52
0
VERTEX
10
9.37257
20
8.43859
30
4.52
0
VERTEX
10
9.40535
20
8.44474
30
4.52
0
VERTEX
10
9.40739
20
8.44883
30
4.52
0
VERTEX
10
9.47294
20
8.45088
30
4.52
0
VERTEX
10
9.53848
20
8.44679
30
4.52
0
VERTEX
10
9.57125
20
8.44474
30
4.52
0
VERTEX
10
9.57944
20
8.44474
30
4.52
0
VERTEX
10
9.58559
20
8.44883
30
4.52
0
VERTEX
10
9.61836
20
8.44883
30
4.52
0
VERTEX
10
9.65113
20
8.45293
30
4.52
0
VERTEX
10
9.65727
20
8.46112
30
4.52
0
VERTEX
10
9.66547
20
8.46317
30
4.52
0
VERTEX
10
9.72691
20
8.50823
30
4.52
0
VERTEX
10
9.7433
20
8.52052
30
4.52
0
VERTEX
10
9.75149
20
8.52257
30
4.52
0
VERTEX
10
9.78221
20
8.5451
30
4.52
0
VERTEX
10
9.7986
20
8.55124
30
4.52
0
VERTEX
10
9.80679
20
8.55124
30
4.52
0
VERTEX
10
9.82113
20
8.56149
30
4.52
0
VERTEX
10
9.82523
20
8.56149
30
4.52
0
VERTEX
10
9.83752
20
8.59426
30
4.52
0
VERTEX
10
9.84161
20
8.59426
30
4.52
0
VERTEX
10
9.84366
20
8.59835
30
4.52
0
VERTEX
10
9.85185
20
8.6004
30
4.52
0
VERTEX
10
9.85595
20
8.6045
30
4.52
0
VERTEX
10
9.86209
20
8.63727
30
4.52
0
VERTEX
10
9.86619
20
8.65365
30
4.52
0
VERTEX
10
9.87438
20
8.67004
30
4.52
0
VERTEX
10
9.88053
20
8.70281
30
4.52
0
VERTEX
10
9.88258
20
8.7192
30
4.52
0
VERTEX
10
9.89077
20
8.72125
30
4.52
0
VERTEX
10
9.89487
20
8.73763
30
4.52
0
VERTEX
10
9.89691
20
8.7704
30
4.52
0
VERTEX
10
9.90101
20
8.78679
30
4.52
0
VERTEX
10
9.90306
20
8.81956
30
4.52
0
VERTEX
10
9.90306
20
8.82775
30
4.52
0
VERTEX
10
9.90715
20
8.83185
30
4.52
0
VERTEX
10
9.9133
20
8.86257
30
4.52
0
VERTEX
10
9.91535
20
8.87896
30
4.52
0
VERTEX
10
9.89487
20
8.90968
30
4.52
0
VERTEX
10
9.88667
20
8.91582
30
4.52
0
VERTEX
10
9.87029
20
8.92197
30
4.52
0
VERTEX
10
9.86619
20
8.92197
30
4.52
0
VERTEX
10
9.84981
20
8.93426
30
4.52
0
VERTEX
10
9.83752
20
8.9445
30
4.52
0
VERTEX
10
9.80884
20
8.97317
30
4.52
0
VERTEX
10
9.80065
20
8.98137
30
4.52
0
VERTEX
10
9.79655
20
8.98137
30
4.52
0
VERTEX
10
9.76993
20
9.00799
30
4.52
0
VERTEX
10
9.75354
20
9.01823
30
4.52
0
VERTEX
10
9.73715
20
9.02028
30
4.52
0
VERTEX
10
9.72896
20
9.02233
30
4.52
0
VERTEX
10
9.72486
20
9.02643
30
4.52
0
VERTEX
10
9.65932
20
9.03257
30
4.52
0
VERTEX
10
9.65113
20
9.03257
30
4.52
0
VERTEX
10
9.64294
20
9.03872
30
4.52
0
VERTEX
10
9.63474
20
9.04077
30
4.52
0
VERTEX
10
9.62655
20
9.04691
30
4.52
0
VERTEX
10
9.56101
20
9.05715
30
4.52
0
VERTEX
10
9.52824
20
9.0633
30
4.52
0
VERTEX
10
9.52004
20
9.0633
30
4.52
0
VERTEX
10
9.51185
20
9.0592
30
4.52
0
VERTEX
10
9.44631
20
9.06534
30
4.52
0
VERTEX
10
9.38077
20
9.06739
30
4.52
0
VERTEX
10
9.24968
20
9.08173
30
4.52
0
VERTEX
10
9.18414
20
9.07968
30
4.52
0
VERTEX
10
9.1698
20
9.07149
30
4.52
0
VERTEX
10
9.13703
20
9.06125
30
4.52
0
VERTEX
10
9.12065
20
9.05305
30
4.52
0
VERTEX
10
9.11655
20
9.05305
30
4.52
0
VERTEX
10
9.11245
20
9.04896
30
4.52
0
VERTEX
10
9.04691
20
9.03872
30
4.52
0
VERTEX
10
9.03052
20
9.03872
30
4.52
0
VERTEX
10
9.01414
20
9.03462
30
4.52
0
VERTEX
10
9.00595
20
9.03462
30
4.52
0
VERTEX
10
8.99775
20
9.03052
30
4.52
0
VERTEX
10
8.98137
20
9.03052
30
4.52
0
VERTEX
10
8.97727
20
9.03257
30
4.52
0
VERTEX
10
8.96908
20
9.03052
30
4.52
0
VERTEX
10
8.96498
20
9.02233
30
4.52
0
VERTEX
10
8.9486
20
9.01209
30
4.52
0
VERTEX
10
8.94245
20
8.9957
30
4.52
0
VERTEX
10
8.94245
20
8.98751
30
4.52
0
VERTEX
10
8.93221
20
8.97113
30
4.52
0
VERTEX
10
8.93016
20
8.96293
30
4.52
0
VERTEX
10
8.92402
20
8.95474
30
4.52
0
VERTEX
10
8.91787
20
8.93836
30
4.52
0
VERTEX
10
8.91173
20
8.93016
30
4.52
0
VERTEX
10
8.90763
20
8.92607
30
4.52
0
VERTEX
10
8.90763
20
8.92197
30
4.52
0
VERTEX
10
8.89534
20
8.90968
30
4.52
0
VERTEX
10
8.88715
20
8.90763
30
4.52
0
VERTEX
10
8.87486
20
8.89534
30
4.52
0
VERTEX
10
8.85848
20
8.88715
30
4.52
0
VERTEX
10
8.84414
20
8.87486
30
4.52
0
VERTEX
10
8.84004
20
8.87076
30
4.52
0
VERTEX
10
8.83594
20
8.87076
30
4.52
0
VERTEX
10
8.8298
20
8.86257
30
4.52
0
VERTEX
10
8.8257
20
8.86257
30
4.52
0
VERTEX
10
8.81341
20
8.84619
30
4.52
0
VERTEX
10
8.80522
20
8.8298
30
4.52
0
VERTEX
10
8.80317
20
8.82161
30
4.52
0
VERTEX
10
8.80317
20
8.81751
30
4.52
0
VERTEX
10
8.79908
20
8.81341
30
4.52
0
VERTEX
10
8.79703
20
8.80522
30
4.52
0
VERTEX
10
8.79703
20
8.80113
30
4.52
0
VERTEX
10
8.78679
20
8.78474
30
4.52
0
VERTEX
10
8.7745
20
8.77245
30
4.52
0
VERTEX
10
8.76221
20
8.73968
30
4.52
0
VERTEX
10
8.75197
20
8.72329
30
4.52
0
VERTEX
10
8.74787
20
8.70691
30
4.52
0
VERTEX
10
8.72739
20
8.67619
30
4.52
0
VERTEX
10
8.72329
20
8.66799
30
4.52
0
VERTEX
10
8.72329
20
8.6598
30
4.52
0
VERTEX
10
8.7151
20
8.64341
30
4.52
0
VERTEX
10
8.711
20
8.63522
30
4.52
0
VERTEX
10
8.70281
20
8.62703
30
4.52
0
VERTEX
10
8.69667
20
8.61269
30
4.52
0
VERTEX
10
8.69462
20
8.6045
30
4.52
0
VERTEX
10
8.68847
20
8.59631
30
4.52
0
VERTEX
10
8.68643
20
8.58811
30
4.52
0
VERTEX
10
8.68028
20
8.57992
30
4.52
0
VERTEX
10
8.67823
20
8.56353
30
4.52
0
VERTEX
10
8.67823
20
8.55534
30
4.52
0
VERTEX
10
8.67823
20
8.55329
30
4.52
0
SEQEND
0
POLYLINE
62
31
66
1
70
1
3
contour
0
VERTEX
10
9.59378
20
9.39715
30
4.52
0
VERTEX
10
9.59583
20
9.38896
30
4.52
0
VERTEX
10
9.59583
20
9.38486
30
4.52
0
VERTEX
10
9.59992
20
9.38281
30
4.52
0
VERTEX
10
9.59992
20
9.37872
30
4.52
0
VERTEX
10
9.60607
20
9.37053
30
4.52
0
VERTEX
10
9.62041
20
9.36233
30
4.52
0
VERTEX
10
9.63679
20
9.36233
30
4.52
0
VERTEX
10
9.64089
20
9.36233
30
4.52
0
VERTEX
10
9.64294
20
9.36643
30
4.52
0
VERTEX
10
9.65932
20
9.37053
30
4.52
0
VERTEX
10
9.66547
20
9.37667
30
4.52
0
VERTEX
10
9.68185
20
9.38281
30
4.52
0
VERTEX
10
9.69005
20
9.38896
30
4.52
0
VERTEX
10
9.69619
20
9.40535
30
4.52
0
VERTEX
10
9.69824
20
9.41354
30
4.52
0
VERTEX
10
9.69619
20
9.44631
30
4.52
0
VERTEX
10
9.69209
20
9.46269
30
4.52
0
VERTEX
10
9.6798
20
9.47908
30
4.52
0
VERTEX
10
9.68185
20
9.48727
30
4.52
0
VERTEX
10
9.6798
20
9.49547
30
4.52
0
VERTEX
10
9.66342
20
9.49751
30
4.52
0
VERTEX
10
9.64703
20
9.49342
30
4.52
0
VERTEX
10
9.63065
20
9.49342
30
4.52
0
VERTEX
10
9.62245
20
9.48727
30
4.52
0
VERTEX
10
9.6245
20
9.48318
30
4.52
0
VERTEX
10
9.61836
20
9.46679
30
4.52
0
VERTEX
10
9.61836
20
9.46269
30
4.52
0
VERTEX
10
9.60402
20
9.45245
30
4.52
0
VERTEX
10
9.60402
20
9.44836
30
4.52
0
VERTEX
10
9.59583
20
9.44016
30
4.52
0
VERTEX
10
9.59378
20
9.40739
30
4.52
0
VERTEX
10
9.59378
20
9.3992
30
4.52
0
SEQEND
0
POLYLINE
62
31
66
1
70
1
3
contour
0
VERTEX
10
9.75968
20
9.95631
30
4.52
0
VERTEX
10
9.76583
20
9.95017
30
4.52
0
VERTEX
10
9.76583
20
9.9174
30
4.52
0
VERTEX
10
9.77197
20
9.88462
30
4.52
0
VERTEX
10
9.77197
20
9.86824
30
4.52
0
VERTEX
10
9.77197
20
9.86414
30
4.52
0
VERTEX
10
9.78017
20
9.85595
30
4.52
0
VERTEX
10
9.79655
20
9.84571
30
4.52
0
VERTEX
10
9.82932
20
9.83752
30
4.52
0
VERTEX
10
9.86209
20
9.83752
30
4.52
0
VERTEX
10
9.87029
20
9.83956
30
4.52
0
VERTEX
10
9.87438
20
9.83956
30
4.52
0
VERTEX
10
9.87848
20
9.84366
30
4.52
0
VERTEX
10
9.89487
20
9.84571
30
4.52
0
VERTEX
10
9.90101
20
9.8539
30
4.52
0
VERTEX
10
9.9174
20
9.85595
30
4.52
0
VERTEX
10
9.92559
20
9.858
30
4.52
0
VERTEX
10
9.93788
20
9.87029
30
4.52
0
VERTEX
10
9.94607
20
9.87643
30
4.52
0
VERTEX
10
9.94607
20
9.88053
30
4.52
0
VERTEX
10
9.95836
20
9.89487
30
4.52
0
VERTEX
10
9.9645
20
9.90101
30
4.52
0
VERTEX
10
9.96655
20
9.9092
30
4.52
0
VERTEX
10
9.9727
20
9.91535
30
4.52
0
VERTEX
10
9.97679
20
9.9174
30
4.52
0
VERTEX
10
9.97679
20
9.92149
30
4.52
0
VERTEX
10
9.98294
20
9.92968
30
4.52
0
VERTEX
10
9.99113
20
9.93378
30
4.52
0
VERTEX
10
9.99113
20
9.93788
30
4.52
0
VERTEX
10
10.0116
20
9.9686
30
4.52
0
VERTEX
10
10.0178
20
9.97679
30
4.52
0
VERTEX
10
10.0178
20
9.98089
30
4.52
0
VERTEX
10
10.0239
20
9.98499
30
4.52
0
VERTEX
10
10.03
20
10.0178
30
4.52
0
VERTEX
10
10.028
20
10.0505
30
4.52
0
VERTEX
10
10.0219
20
10.0669
30
4.52
0
VERTEX
10
10.0157
20
10.0731
30
4.52
0
VERTEX
10
10.0116
20
10.0894
30
4.52
0
VERTEX
10
10.0116
20
10.0935
30
4.52
0
VERTEX
10
10.0034
20
10.0997
30
4.52
0
VERTEX
10
9.99932
20
10.1058
30
4.52
0
VERTEX
10
9.99113
20
10.112
30
4.52
0
VERTEX
10
9.95836
20
10.1161
30
4.52
0
VERTEX
10
9.95222
20
10.1222
30
4.52
0
VERTEX
10
9.91944
20
10.1222
30
4.52
0
VERTEX
10
9.88667
20
10.1161
30
4.52
0
VERTEX
10
9.88462
20
10.112
30
4.52
0
VERTEX
10
9.85185
20
10.1017
30
4.52
0
VERTEX
10
9.83547
20
10.0956
30
4.52
0
VERTEX
10
9.82727
20
10.0915
30
4.52
0
VERTEX
10
9.82318
20
10.0915
30
4.52
0
VERTEX
10
9.80679
20
10.0792
30
4.52
0
VERTEX
10
9.80065
20
10.0731
30
4.52
0
VERTEX
10
9.80065
20
10.069
30
4.52
0
VERTEX
10
9.7945
20
10.0608
30
4.52
0
VERTEX
10
9.79041
20
10.0567
30
4.52
0
VERTEX
10
9.78836
20
10.0485
30
4.52
0
VERTEX
10
9.76993
20
10.0178
30
4.52
0
VERTEX
10
9.76583
20
10.0137
30
4.52
0
VERTEX
10
9.76583
20
9.98089
30
4.52
0
VERTEX
10
9.75968
20
9.9645
30
4.52
0
VERTEX
10
9.75968
20
9.95836
30
4.52
0
SEQEND
0
POLYLINE
62
224
66
1
70
1
3
mitochondrion
0
VERTEX
10
9.35203
20
8.75971
30
4.52
0
VERTEX
10
9.3562
20
8.74858
30
4.52
0
VERTEX
10
9.3562
20
8.74302
30
4.52
0
VERTEX
10
9.36176
20
8.7319
30
4.52
0
VERTEX
10
9.36176
20
8.72634
30
4.52
0
VERTEX
10
9.36594
20
8.71661
30
4.52
0
VERTEX
10
9.36733
20
8.71104
30
4.52
0
VERTEX
10
9.3715
20
8.70548
30
4.52
0
VERTEX
10
9.37845
20
8.68323
30
4.52
0
VERTEX
10
9.37984
20
8.67767
30
4.52
0
VERTEX
10
9.39513
20
8.65682
30
4.52
0
VERTEX
10
9.39653
20
8.65125
30
4.52
0
VERTEX
10
9.43268
20
8.61093
30
4.52
0
VERTEX
10
9.45353
20
8.59286
30
4.52
0
VERTEX
10
9.46466
20
8.5873
30
4.52
0
VERTEX
10
9.47578
20
8.57895
30
4.52
0
VERTEX
10
9.48134
20
8.57339
30
4.52
0
VERTEX
10
9.49246
20
8.56783
30
4.52
0
VERTEX
10
9.49803
20
8.56366
30
4.52
0
VERTEX
10
9.50081
20
8.56088
30
4.52
0
VERTEX
10
9.51193
20
8.5581
30
4.52
0
VERTEX
10
9.52305
20
8.5581
30
4.52
0
VERTEX
10
9.52584
20
8.55532
30
4.52
0
VERTEX
10
9.54808
20
8.55253
30
4.52
0
VERTEX
10
9.59258
20
8.55392
30
4.52
0
VERTEX
10
9.6037
20
8.55532
30
4.52
0
VERTEX
10
9.60926
20
8.55532
30
4.52
0
VERTEX
10
9.62038
20
8.55949
30
4.52
0
VERTEX
10
9.63151
20
8.56644
30
4.52
0
VERTEX
10
9.64124
20
8.57756
30
4.52
0
VERTEX
10
9.64958
20
8.5859
30
4.52
0
VERTEX
10
9.65236
20
8.59147
30
4.52
0
VERTEX
10
9.67183
20
8.61371
30
4.52
0
VERTEX
10
9.67461
20
8.62484
30
4.52
0
VERTEX
10
9.67461
20
8.62762
30
4.52
0
VERTEX
10
9.67878
20
8.63318
30
4.52
0
VERTEX
10
9.68434
20
8.65404
30
4.52
0
VERTEX
10
9.68573
20
8.67628
30
4.52
0
VERTEX
10
9.68852
20
8.67906
30
4.52
0
VERTEX
10
9.68852
20
8.72356
30
4.52
0
VERTEX
10
9.68852
20
8.72912
30
4.52
0
VERTEX
10
9.68434
20
8.73885
30
4.52
0
VERTEX
10
9.68295
20
8.74998
30
4.52
0
VERTEX
10
9.68295
20
8.75554
30
4.52
0
VERTEX
10
9.68017
20
8.7611
30
4.52
0
VERTEX
10
9.67878
20
8.77222
30
4.52
0
VERTEX
10
9.67739
20
8.77778
30
4.52
0
VERTEX
10
9.67183
20
8.77917
30
4.52
0
VERTEX
10
9.66627
20
8.78335
30
4.52
0
VERTEX
10
9.65932
20
8.8042
30
4.52
0
VERTEX
10
9.6468
20
8.82645
30
4.52
0
VERTEX
10
9.63707
20
8.83618
30
4.52
0
VERTEX
10
9.63429
20
8.83896
30
4.52
0
VERTEX
10
9.63151
20
8.83896
30
4.52
0
VERTEX
10
9.62177
20
8.8487
30
4.52
0
VERTEX
10
9.60092
20
8.8626
30
4.52
0
VERTEX
10
9.59536
20
8.86677
30
4.52
0
VERTEX
10
9.58423
20
8.87094
30
4.52
0
VERTEX
10
9.58145
20
8.87372
30
4.52
0
VERTEX
10
9.57589
20
8.87372
30
4.52
0
VERTEX
10
9.56477
20
8.87789
30
4.52
0
VERTEX
10
9.55503
20
8.88485
30
4.52
0
VERTEX
10
9.54947
20
8.88624
30
4.52
0
VERTEX
10
9.53974
20
8.89319
30
4.52
0
VERTEX
10
9.51888
20
8.90014
30
4.52
0
VERTEX
10
9.47439
20
8.89875
30
4.52
0
VERTEX
10
9.46327
20
8.89736
30
4.52
0
VERTEX
10
9.45214
20
8.89041
30
4.52
0
VERTEX
10
9.44102
20
8.88902
30
4.52
0
VERTEX
10
9.43546
20
8.88902
30
4.52
0
VERTEX
10
9.42572
20
8.88485
30
4.52
0
VERTEX
10
9.42016
20
8.88346
30
4.52
0
VERTEX
10
9.4146
20
8.87929
30
4.52
0
VERTEX
10
9.40904
20
8.87789
30
4.52
0
VERTEX
10
9.38818
20
8.86121
30
4.52
0
VERTEX
10
9.37845
20
8.85426
30
4.52
0
VERTEX
10
9.37567
20
8.85148
30
4.52
0
VERTEX
10
9.37567
20
8.8487
30
4.52
0
VERTEX
10
9.3715
20
8.84313
30
4.52
0
VERTEX
10
9.37011
20
8.83757
30
4.52
0
VERTEX
10
9.36733
20
8.83618
30
4.52
0
VERTEX
10
9.35481
20
8.79169
30
4.52
0
VERTEX
10
9.35203
20
8.78056
30
4.52
0
VERTEX
10
9.35203
20
8.76944
30
4.52
0
VERTEX
10
9.35203
20
8.76388
30
4.52
0
VERTEX
10
9.35203
20
8.7611
30
4.52
0
SEQEND
0
POLYLINE
62
236
66
1
70
1
3
postsynaptic_density
0
VERTEX
10
9.9694
20
10.1112
30
4.52
0
VERTEX
10
9.97314
20
10.0963
30
4.52
0
VERTEX
10
9.97314
20
10.0814
30
4.52
0
VERTEX
10
9.975
20
10.0739
30
4.52
0
VERTEX
10
9.975
20
10.0702
30
4.52
0
VERTEX
10
9.97873
20
10.0683
30
4.52
0
VERTEX
10
10.0086
20
10.0739
30
4.52
0
VERTEX
10
10.0217
20
10.0814
30
4.52
0
VERTEX
10
10.0273
20
10.0888
30
4.52
0
VERTEX
10
10.0291
20
10.1038
30
4.52
0
VERTEX
10
10.0254
20
10.1075
30
4.52
0
VERTEX
10
10.0123
20
10.1374
30
4.52
0
VERTEX
10
10.0105
20
10.1448
30
4.52
0
VERTEX
10
10.003
20
10.1504
30
4.52
0
VERTEX
10
9.98807
20
10.1504
30
4.52
0
VERTEX
10
9.9806
20
10.1486
30
4.52
0
VERTEX
10
9.97314
20
10.1355
30
4.52
0
VERTEX
10
9.9694
20
10.128
30
4.52
0
VERTEX
10
9.9694
20
10.1131
30
4.52
0
SEQEND
0
POLYLINE
62
227
66
1
70
1
3
endoplasmic_reticulum
0
VERTEX
10
9.15161
20
8.6062
30
4.52
0
VERTEX
10
9.15771
20
8.60163
30
4.52
0
VERTEX
10
9.1699
20
8.60011
30
4.52
0
VERTEX
10
9.18208
20
8.60163
30
4.52
0
VERTEX
10
9.18818
20
8.6062
30
4.52
0
VERTEX
10
9.18818
20
8.60925
30
4.52
0
VERTEX
10
9.20037
20
8.61687
30
4.52
0
VERTEX
10
9.20494
20
8.62296
30
4.52
0
VERTEX
10
9.21712
20
8.63058
30
4.52
0
VERTEX
10
9.22017
20
8.63058
30
4.52
0
VERTEX
10
9.22626
20
8.63515
30
4.52
0
VERTEX
10
9.23236
20
8.63667
30
4.52
0
VERTEX
10
9.23845
20
8.64124
30
4.52
0
VERTEX
10
9.23998
20
8.65343
30
4.52
0
VERTEX
10
9.23693
20
8.658
30
4.52
0
VERTEX
10
9.21255
20
8.65038
30
4.52
0
VERTEX
10
9.20037
20
8.64886
30
4.52
0
VERTEX
10
9.18818
20
8.64277
30
4.52
0
VERTEX
10
9.18361
20
8.63667
30
4.52
0
VERTEX
10
9.17447
20
8.62906
30
4.52
0
VERTEX
10
9.16228
20
8.61991
30
4.52
0
VERTEX
10
9.15314
20
8.61077
30
4.52
0
VERTEX
10
9.15161
20
8.60773
30
4.52
0
SEQEND
0
POLYLINE
62
227
66
1
70
1
3
endoplasmic_reticulum
0
VERTEX
10
9.07544
20
8.66257
30
4.52
0
VERTEX
10
9.08001
20
8.65648
30
4.52
0
VERTEX
10
9.12876
20
8.65496
30
4.52
0
VERTEX
10
9.15314
20
8.65496
30
4.52
0
VERTEX
10
9.16532
20
8.65496
30
4.52
0
VERTEX
10
9.17599
20
8.66562
30
4.52
0
VERTEX
10
9.18818
20
8.67019
30
4.52
0
VERTEX
10
9.19122
20
8.67019
30
4.52
0
VERTEX
10
9.19427
20
8.67324
30
4.52
0
VERTEX
10
9.20037
20
8.67324
30
4.52
0
VERTEX
10
9.20341
20
8.67476
30
4.52
0
VERTEX
10
9.20494
20
8.68085
30
4.52
0
VERTEX
10
9.20951
20
8.68695
30
4.52
0
VERTEX
10
9.21103
20
8.69304
30
4.52
0
VERTEX
10
9.2156
20
8.69761
30
4.52
0
VERTEX
10
9.21712
20
8.70371
30
4.52
0
VERTEX
10
9.22169
20
8.7098
30
4.52
0
VERTEX
10
9.22169
20
8.71589
30
4.52
0
VERTEX
10
9.21712
20
8.72047
30
4.52
0
VERTEX
10
9.21103
20
8.72199
30
4.52
0
VERTEX
10
9.19884
20
8.72047
30
4.52
0
VERTEX
10
9.19579
20
8.71742
30
4.52
0
VERTEX
10
9.19579
20
8.71437
30
4.52
0
VERTEX
10
9.1897
20
8.7098
30
4.52
0
VERTEX
10
9.18361
20
8.70828
30
4.52
0
VERTEX
10
9.18056
20
8.70828
30
4.52
0
VERTEX
10
9.17904
20
8.70523
30
4.52
0
VERTEX
10
9.16685
20
8.70371
30
4.52
0
VERTEX
10
9.16685
20
8.70066
30
4.52
0
VERTEX
10
9.1638
20
8.70066
30
4.52
0
VERTEX
10
9.15314
20
8.69152
30
4.52
0
VERTEX
10
9.14095
20
8.68847
30
4.52
0
VERTEX
10
9.13485
20
8.68847
30
4.52
0
VERTEX
10
9.13028
20
8.68543
30
4.52
0
VERTEX
10
9.10591
20
8.68543
30
4.52
0
VERTEX
10
9.09372
20
8.6839
30
4.52
0
VERTEX
10
9.08763
20
8.6839
30
4.52
0
VERTEX
10
9.07696
20
8.67628
30
4.52
0
VERTEX
10
9.07544
20
8.6641
30
4.52
0
SEQEND
0
POLYLINE
62
227
66
1
70
1
3
endoplasmic_reticulum
0
VERTEX
10
9.04802
20
8.63058
30
4.52
0
VERTEX
10
9.05259
20
8.62449
30
4.52
0
VERTEX
10
9.05259
20
8.61839
30
4.52
0
VERTEX
10
9.05716
20
8.61382
30
4.52
0
VERTEX
10
9.05716
20
8.60773
30
4.52
0
VERTEX
10
9.0602
20
8.6062
30
4.52
0
VERTEX
10
9.07239
20
8.6123
30
4.52
0
VERTEX
10
9.07544
20
8.6123
30
4.52
0
VERTEX
10
9.08001
20
8.61839
30
4.52
0
VERTEX
10
9.07849
20
8.63058
30
4.52
0
VERTEX
10
9.07849
20
8.63363
30
4.52
0
VERTEX
10
9.07544
20
8.63515
30
4.52
0
VERTEX
10
9.07392
20
8.64124
30
4.52
0
VERTEX
10
9.07239
20
8.64429
30
4.52
0
VERTEX
10
9.0602
20
8.64277
30
4.52
0
VERTEX
10
9.05411
20
8.64124
30
4.52
0
VERTEX
10
9.05106
20
8.63667
30
4.52
0
VERTEX
10
9.04802
20
8.63515
30
4.52
0
VERTEX
10
9.04802
20
8.6321
30
4.52
0
SEQEND
0
POLYLINE
62
227
66
1
70
1
3
endoplasmic_reticulum
0
VERTEX
10
9.32072
20
8.56355
30
4.52
0
VERTEX
10
9.32529
20
8.55136
30
4.52
0
VERTEX
10
9.32834
20
8.54679
30
4.52
0
VERTEX
10
9.34053
20
8.54374
30
4.52
0
VERTEX
10
9.34662
20
8.54374
30
4.52
0
VERTEX
10
9.35271
20
8.54679
30
4.52
0
VERTEX
10
9.3649
20
8.54526
30
4.52
0
VERTEX
10
9.36795
20
8.54526
30
4.52
0
VERTEX
10
9.37252
20
8.54983
30
4.52
0
VERTEX
10
9.37557
20
8.55136
30
4.52
0
VERTEX
10
9.37557
20
8.57573
30
4.52
0
VERTEX
10
9.37557
20
8.58792
30
4.52
0
VERTEX
10
9.37404
20
8.59402
30
4.52
0
VERTEX
10
9.36795
20
8.60011
30
4.52
0
VERTEX
10
9.3649
20
8.60316
30
4.52
0
VERTEX
10
9.35271
20
8.60468
30
4.52
0
VERTEX
10
9.34967
20
8.6062
30
4.52
0
VERTEX
10
9.33748
20
8.59859
30
4.52
0
VERTEX
10
9.33139
20
8.59554
30
4.52
0
VERTEX
10
9.32377
20
8.58335
30
4.52
0
VERTEX
10
9.32072
20
8.57726
30
4.52
0
VERTEX
10
9.32072
20
8.56507
30
4.52
0
SEQEND
0
POLYLINE
62
227
66
1
70
1
3
endoplasmic_reticulum
0
VERTEX
10
9.73359
20
8.73265
30
4.52
0
VERTEX
10
9.73511
20
8.72047
30
4.52
0
VERTEX
10
9.73816
20
8.71437
30
4.52
0
VERTEX
10
9.73816
20
8.71132
30
4.52
0
VERTEX
10
9.74273
20
8.70523
30
4.52
0
VERTEX
10
9.7473
20
8.70218
30
4.52
0
VERTEX
10
9.7473
20
8.69914
30
4.52
0
VERTEX
10
9.75339
20
8.69457
30
4.52
0
VERTEX
10
9.76558
20
8.69457
30
4.52
0
VERTEX
10
9.78996
20
8.69914
30
4.52
0
VERTEX
10
9.79605
20
8.70218
30
4.52
0
VERTEX
10
9.7991
20
8.70523
30
4.52
0
VERTEX
10
9.7991
20
8.71742
30
4.52
0
VERTEX
10
9.793
20
8.72504
30
4.52
0
VERTEX
10
9.78843
20
8.73722
30
4.52
0
VERTEX
10
9.78691
20
8.74332
30
4.52
0
VERTEX
10
9.78691
20
8.74636
30
4.52
0
VERTEX
10
9.77472
20
8.75551
30
4.52
0
VERTEX
10
9.75035
20
8.75703
30
4.52
0
VERTEX
10
9.7473
20
8.75703
30
4.52
0
VERTEX
10
9.73968
20
8.74484
30
4.52
0
VERTEX
10
9.73511
20
8.73875
30
4.52
0
VERTEX
10
9.73359
20
8.73418
30
4.52
0
SEQEND
0
POLYLINE
62
227
66
1
70
1
3
endoplasmic_reticulum
0
VERTEX
10
8.81645
20
8.65953
30
4.52
0
VERTEX
10
8.81949
20
8.65648
30
4.52
0
VERTEX
10
8.82102
20
8.65038
30
4.52
0
VERTEX
10
8.82102
20
8.64734
30
4.52
0
VERTEX
10
8.82711
20
8.64124
30
4.52
0
VERTEX
10
8.85149
20
8.64581
30
4.52
0
VERTEX
10
8.85758
20
8.64581
30
4.52
0
VERTEX
10
8.86063
20
8.64886
30
4.52
0
VERTEX
10
8.86367
20
8.64886
30
4.52
0
VERTEX
10
8.86824
20
8.65496
30
4.52
0
VERTEX
10
8.87738
20
8.66257
30
4.52
0
VERTEX
10
8.88348
20
8.66562
30
4.52
0
VERTEX
10
8.89567
20
8.67628
30
4.52
0
VERTEX
10
8.89719
20
8.68847
30
4.52
0
VERTEX
10
8.89567
20
8.70066
30
4.52
0
VERTEX
10
8.89567
20
8.70371
30
4.52
0
VERTEX
10
8.88957
20
8.7098
30
4.52
0
VERTEX
10
8.88348
20
8.71285
30
4.52
0
VERTEX
10
8.87129
20
8.71285
30
4.52
0
VERTEX
10
8.8652
20
8.71285
30
4.52
0
VERTEX
10
8.86215
20
8.71132
30
4.52
0
VERTEX
10
8.86367
20
8.70828
30
4.52
0
VERTEX
10
8.85606
20
8.69761
30
4.52
0
VERTEX
10
8.85149
20
8.69152
30
4.52
0
VERTEX
10
8.8393
20
8.68543
30
4.52
0
VERTEX
10
8.8332
20
8.6839
30
4.52
0
VERTEX
10
8.82254
20
8.67171
30
4.52
0
VERTEX
10
8.81645
20
8.66562
30
4.52
0
VERTEX
10
8.81645
20
8.66105
30
4.52
0
SEQEND
0
POLYLINE
62
227
66
1
70
1
3
endoplasmic_reticulum
0
VERTEX
10
8.90024
20
8.76312
30
4.52
0
VERTEX
10
8.90633
20
8.75094
30
4.52
0
VERTEX
10
8.917
20
8.74179
30
4.52
0
VERTEX
10
8.92004
20
8.73875
30
4.52
0
VERTEX
10
8.93223
20
8.74027
30
4.52
0
VERTEX
10
8.93832
20
8.74027
30
4.52
0
VERTEX
10
8.94137
20
8.74027
30
4.52
0
VERTEX
10
8.94442
20
8.74332
30
4.52
0
VERTEX
10
8.96879
20
8.74332
30
4.52
0
VERTEX
10
8.97946
20
8.75398
30
4.52
0
VERTEX
10
8.98403
20
8.75855
30
4.52
0
VERTEX
10
8.98403
20
8.7616
30
4.52
0
VERTEX
10
8.99012
20
8.76465
30
4.52
0
VERTEX
10
8.99012
20
8.76769
30
4.52
0
VERTEX
10
8.99469
20
8.77379
30
4.52
0
VERTEX
10
8.99622
20
8.77683
30
4.52
0
VERTEX
10
8.99926
20
8.77683
30
4.52
0
VERTEX
10
9.00231
20
8.77988
30
4.52
0
VERTEX
10
9.00231
20
8.78293
30
4.52
0
VERTEX
10
9.00841
20
8.7875
30
4.52
0
VERTEX
10
9.02059
20
8.83625
30
4.52
0
VERTEX
10
9.02821
20
8.84539
30
4.52
0
VERTEX
10
9.0404
20
8.84844
30
4.52
0
VERTEX
10
9.04497
20
8.85149
30
4.52
0
VERTEX
10
9.05259
20
8.86215
30
4.52
0
VERTEX
10
9.05563
20
8.86215
30
4.52
0
VERTEX
10
9.05868
20
8.86824
30
4.52
0
VERTEX
10
9.06477
20
8.87281
30
4.52
0
VERTEX
10
9.06782
20
8.87891
30
4.52
0
VERTEX
10
9.07392
20
8.88348
30
4.52
0
VERTEX
10
9.08001
20
8.885
30
4.52
0
VERTEX
10
9.0861
20
8.88957
30
4.52
0
VERTEX
10
9.0922
20
8.8911
30
4.52
0
VERTEX
10
9.09677
20
8.89719
30
4.52
0
VERTEX
10
9.09981
20
8.89719
30
4.52
0
VERTEX
10
9.10439
20
8.90938
30
4.52
0
VERTEX
10
9.10896
20
8.91395
30
4.52
0
VERTEX
10
9.10896
20
8.92004
30
4.52
0
VERTEX
10
9.112
20
8.92614
30
4.52
0
VERTEX
10
9.1181
20
8.93223
30
4.52
0
VERTEX
10
9.12419
20
8.93528
30
4.52
0
VERTEX
10
9.12724
20
8.93832
30
4.52
0
VERTEX
10
9.13028
20
8.93832
30
4.52
0
VERTEX
10
9.13638
20
8.95051
30
4.52
0
VERTEX
10
9.14247
20
8.95356
30
4.52
0
VERTEX
10
9.15161
20
8.96422
30
4.52
0
VERTEX
10
9.15771
20
8.96727
30
4.52
0
VERTEX
10
9.16228
20
8.97336
30
4.52
0
VERTEX
10
9.16228
20
8.98555
30
4.52
0
VERTEX
10
9.16228
20
8.99165
30
4.52
0
VERTEX
10
9.15923
20
8.99469
30
4.52
0
VERTEX
10
9.15923
20
8.99774
30
4.52
0
VERTEX
10
9.15009
20
9.00841
30
4.52
0
VERTEX
10
9.1379
20
9.00993
30
4.52
0
VERTEX
10
9.13181
20
9.00841
30
4.52
0
VERTEX
10
9.112
20
8.9886
30
4.52
0
VERTEX
10
9.10896
20
8.98403
30
4.52
0
VERTEX
10
9.09829
20
8.97336
30
4.52
0
VERTEX
10
9.09067
20
8.9627
30
4.52
0
VERTEX
10
9.0861
20
8.95813
30
4.52
0
VERTEX
10
9.0861
20
8.95508
30
4.52
0
VERTEX
10
9.08306
20
8.95356
30
4.52
0
VERTEX
10
9.08306
20
8.95051
30
4.52
0
VERTEX
10
9.08001
20
8.94747
30
4.52
0
VERTEX
10
9.07849
20
8.93528
30
4.52
0
VERTEX
10
9.07087
20
8.92309
30
4.52
0
VERTEX
10
9.05868
20
8.92004
30
4.52
0
VERTEX
10
9.05259
20
8.92157
30
4.52
0
VERTEX
10
9.05259
20
8.92461
30
4.52
0
VERTEX
10
9.04954
20
8.92766
30
4.52
0
VERTEX
10
9.02516
20
8.92918
30
4.52
0
VERTEX
10
9.01298
20
8.93071
30
4.52
0
VERTEX
10
8.9886
20
8.94137
30
4.52
0
VERTEX
10
8.97641
20
8.94747
30
4.52
0
VERTEX
10
8.96727
20
8.95965
30
4.52
0
VERTEX
10
8.9627
20
8.97032
30
4.52
0
VERTEX
10
8.95813
20
8.97336
30
4.52
0
VERTEX
10
8.94594
20
8.97032
30
4.52
0
VERTEX
10
8.94137
20
8.96422
30
4.52
0
VERTEX
10
8.9368
20
8.95204
30
4.52
0
VERTEX
10
8.92614
20
8.94137
30
4.52
0
VERTEX
10
8.92461
20
8.92918
30
4.52
0
VERTEX
10
8.93071
20
8.917
30
4.52
0
VERTEX
10
8.93223
20
8.91395
30
4.52
0
VERTEX
10
8.93832
20
8.91243
30
4.52
0
VERTEX
10
8.94899
20
8.90176
30
4.52
0
VERTEX
10
8.95508
20
8.89871
30
4.52
0
VERTEX
10
8.95813
20
8.89719
30
4.52
0
VERTEX
10
8.97032
20
8.89871
30
4.52
0
VERTEX
10
8.97641
20
8.89871
30
4.52
0
VERTEX
10
8.98251
20
8.89414
30
4.52
0
VERTEX
10
8.9886
20
8.89262
30
4.52
0
VERTEX
10
8.99012
20
8.88805
30
4.52
0
VERTEX
10
8.99622
20
8.88196
30
4.52
0
VERTEX
10
8.99926
20
8.87586
30
4.52
0
VERTEX
10
8.99774
20
8.85149
30
4.52
0
VERTEX
10
8.99774
20
8.8393
30
4.52
0
VERTEX
10
8.99622
20
8.8332
30
4.52
0
VERTEX
10
8.97336
20
8.81645
30
4.52
0
VERTEX
10
8.97032
20
8.81492
30
4.52
0
VERTEX
10
8.96879
20
8.80883
30
4.52
0
VERTEX
10
8.96422
20
8.80273
30
4.52
0
VERTEX
10
8.94137
20
8.79816
30
4.52
0
VERTEX
10
8.92918
20
8.79816
30
4.52
0
VERTEX
10
8.917
20
8.79512
30
4.52
0
VERTEX
10
8.90633
20
8.78445
30
4.52
0
VERTEX
10
8.90328
20
8.77836
30
4.52
0
VERTEX
10
8.90024
20
8.77531
30
4.52
0
VERTEX
10
8.90024
20
8.76465
30
4.52
0
SEQEND
0
ENDSEC
0
EOF
