0
SECTION
2
ENTITIES
0
POLYLINE
62
31
66
1
70
1
3
contour
0
VERTEX
10
8.76528
20
9.03358
30
5.48
0
VERTEX
10
8.76971
20
9.03137
30
5.48
0
VERTEX
10
8.76971
20
9.02693
30
5.48
0
VERTEX
10
8.77637
20
9.02028
30
5.48
0
VERTEX
10
8.78524
20
9.01806
30
5.48
0
VERTEX
10
8.79632
20
9.00254
30
5.48
0
VERTEX
10
8.82737
20
8.9715
30
5.48
0
VERTEX
10
8.84289
20
8.95597
30
5.48
0
VERTEX
10
8.84732
20
8.9471
30
5.48
0
VERTEX
10
8.86506
20
8.93824
30
5.48
0
VERTEX
10
8.87393
20
8.93602
30
5.48
0
VERTEX
10
8.87837
20
8.93158
30
5.48
0
VERTEX
10
8.88724
20
8.93158
30
5.48
0
VERTEX
10
8.90497
20
8.92271
30
5.48
0
VERTEX
10
8.90941
20
8.92271
30
5.48
0
VERTEX
10
8.91828
20
8.91606
30
5.48
0
VERTEX
10
8.92715
20
8.91384
30
5.48
0
VERTEX
10
8.9338
20
8.90719
30
5.48
0
VERTEX
10
8.96928
20
8.89832
30
5.48
0
VERTEX
10
9.00476
20
8.89832
30
5.48
0
VERTEX
10
9.0225
20
8.90054
30
5.48
0
VERTEX
10
9.04023
20
8.90719
30
5.48
0
VERTEX
10
9.07571
20
8.90941
30
5.48
0
VERTEX
10
9.09345
20
8.91163
30
5.48
0
VERTEX
10
9.09789
20
8.91606
30
5.48
0
VERTEX
10
9.10676
20
8.91606
30
5.48
0
VERTEX
10
9.11119
20
8.91606
30
5.48
0
VERTEX
10
9.11563
20
8.9205
30
5.48
0
VERTEX
10
9.12449
20
8.92271
30
5.48
0
VERTEX
10
9.14223
20
8.9338
30
5.48
0
VERTEX
10
9.1511
20
8.93602
30
5.48
0
VERTEX
10
9.16219
20
8.95154
30
5.48
0
VERTEX
10
9.16441
20
8.96041
30
5.48
0
VERTEX
10
9.17106
20
8.96928
30
5.48
0
VERTEX
10
9.17106
20
8.97371
30
5.48
0
VERTEX
10
9.18215
20
8.9848
30
5.48
0
VERTEX
10
9.19102
20
8.98702
30
5.48
0
VERTEX
10
9.20654
20
9.00254
30
5.48
0
VERTEX
10
9.21097
20
9.01141
30
5.48
0
VERTEX
10
9.21097
20
9.01584
30
5.48
0
VERTEX
10
9.24202
20
9.0491
30
5.48
0
VERTEX
10
9.24645
20
9.05797
30
5.48
0
VERTEX
10
9.25532
20
9.06684
30
5.48
0
VERTEX
10
9.25975
20
9.07128
30
5.48
0
VERTEX
10
9.26197
20
9.08015
30
5.48
0
VERTEX
10
9.26862
20
9.08902
30
5.48
0
VERTEX
10
9.27306
20
9.10676
30
5.48
0
VERTEX
10
9.27306
20
9.14223
30
5.48
0
VERTEX
10
9.27306
20
9.15997
30
5.48
0
VERTEX
10
9.27306
20
9.16884
30
5.48
0
VERTEX
10
9.27749
20
9.17771
30
5.48
0
VERTEX
10
9.28193
20
9.24867
30
5.48
0
VERTEX
10
9.27971
20
9.28415
30
5.48
0
VERTEX
10
9.27749
20
9.30188
30
5.48
0
VERTEX
10
9.27749
20
9.31075
30
5.48
0
VERTEX
10
9.23093
20
9.37728
30
5.48
0
VERTEX
10
9.22428
20
9.38393
30
5.48
0
VERTEX
10
9.21984
20
9.38393
30
5.48
0
VERTEX
10
9.21097
20
9.3928
30
5.48
0
VERTEX
10
9.20654
20
9.40167
30
5.48
0
VERTEX
10
9.2021
20
9.4061
30
5.48
0
VERTEX
10
9.19323
20
9.4061
30
5.48
0
VERTEX
10
9.18215
20
9.39058
30
5.48
0
VERTEX
10
9.17771
20
9.39945
30
5.48
0
VERTEX
10
9.17549
20
9.40388
30
5.48
0
VERTEX
10
9.15776
20
9.41054
30
5.48
0
VERTEX
10
9.01584
20
9.41719
30
5.48
0
VERTEX
10
8.98037
20
9.42384
30
5.48
0
VERTEX
10
8.9715
20
9.42384
30
5.48
0
VERTEX
10
8.96706
20
9.42384
30
5.48
0
VERTEX
10
8.96263
20
9.42828
30
5.48
0
VERTEX
10
8.89167
20
9.42606
30
5.48
0
VERTEX
10
8.87393
20
9.42384
30
5.48
0
VERTEX
10
8.86506
20
9.42384
30
5.48
0
VERTEX
10
8.86063
20
9.42384
30
5.48
0
VERTEX
10
8.85398
20
9.41719
30
5.48
0
VERTEX
10
8.84954
20
9.41497
30
5.48
0
VERTEX
10
8.84954
20
9.4061
30
5.48
0
VERTEX
10
8.84511
20
9.39723
30
5.48
0
VERTEX
10
8.84067
20
9.36175
30
5.48
0
VERTEX
10
8.84067
20
9.34401
30
5.48
0
VERTEX
10
8.83402
20
9.33736
30
5.48
0
VERTEX
10
8.83624
20
9.30188
30
5.48
0
VERTEX
10
8.8318
20
9.26641
30
5.48
0
VERTEX
10
8.8318
20
9.24867
30
5.48
0
VERTEX
10
8.8185
20
9.21319
30
5.48
0
VERTEX
10
8.81185
20
9.19767
30
5.48
0
VERTEX
10
8.80963
20
9.17993
30
5.48
0
VERTEX
10
8.80741
20
9.17106
30
5.48
0
VERTEX
10
8.80076
20
9.16219
30
5.48
0
VERTEX
10
8.79854
20
9.15332
30
5.48
0
VERTEX
10
8.77858
20
9.12006
30
5.48
0
VERTEX
10
8.77193
20
9.10454
30
5.48
0
VERTEX
10
8.77193
20
9.09567
30
5.48
0
VERTEX
10
8.7675
20
9.0868
30
5.48
0
VERTEX
10
8.76528
20
9.05132
30
5.48
0
VERTEX
10
8.76528
20
9.0358
30
5.48
0
SEQEND
0
POLYLINE
62
224
66
1
70
1
3
mitochondrion
0
VERTEX
10
9.0517
20
9.14903
30
5.48
0
VERTEX
10
9.05448
20
9.14347
30
5.48
0
VERTEX
10
9.05587
20
9.12122
30
5.48
0
VERTEX
10
9.06282
20
9.09897
30
5.48
0
VERTEX
10
9.06421
20
9.09341
30
5.48
0
VERTEX
10
9.07395
20
9.08229
30
5.48
0
VERTEX
10
9.07812
20
9.07673
30
5.48
0
VERTEX
10
9.10036
20
9.07256
30
5.48
0
VERTEX
10
9.14486
20
9.07673
30
5.48
0
VERTEX
10
9.1671
20
9.0809
30
5.48
0
VERTEX
10
9.17823
20
9.08229
30
5.48
0
VERTEX
10
9.18796
20
9.09063
30
5.48
0
VERTEX
10
9.19352
20
9.10175
30
5.48
0
VERTEX
10
9.19769
20
9.10732
30
5.48
0
VERTEX
10
9.20047
20
9.10871
30
5.48
0
VERTEX
10
9.20882
20
9.13095
30
5.48
0
VERTEX
10
9.2116
20
9.13651
30
5.48
0
VERTEX
10
9.21438
20
9.1393
30
5.48
0
VERTEX
10
9.21577
20
9.14486
30
5.48
0
VERTEX
10
9.21855
20
9.14764
30
5.48
0
VERTEX
10
9.21855
20
9.1532
30
5.48
0
VERTEX
10
9.21855
20
9.15598
30
5.48
0
VERTEX
10
9.22133
20
9.15876
30
5.48
0
VERTEX
10
9.22133
20
9.18101
30
5.48
0
VERTEX
10
9.21855
20
9.19213
30
5.48
0
VERTEX
10
9.21855
20
9.21438
30
5.48
0
VERTEX
10
9.21577
20
9.23663
30
5.48
0
VERTEX
10
9.21577
20
9.24219
30
5.48
0
VERTEX
10
9.21716
20
9.24497
30
5.48
0
VERTEX
10
9.2116
20
9.25609
30
5.48
0
VERTEX
10
9.20187
20
9.26722
30
5.48
0
VERTEX
10
9.20326
20
9.27278
30
5.48
0
VERTEX
10
9.20326
20
9.27556
30
5.48
0
VERTEX
10
9.19213
20
9.28529
30
5.48
0
VERTEX
10
9.18796
20
9.28946
30
5.48
0
VERTEX
10
9.14347
20
9.29085
30
5.48
0
VERTEX
10
9.13234
20
9.28946
30
5.48
0
VERTEX
10
9.12956
20
9.28946
30
5.48
0
VERTEX
10
9.10871
20
9.27556
30
5.48
0
VERTEX
10
9.09897
20
9.26861
30
5.48
0
VERTEX
10
9.08924
20
9.25748
30
5.48
0
VERTEX
10
9.08507
20
9.24636
30
5.48
0
VERTEX
10
9.07812
20
9.23524
30
5.48
0
VERTEX
10
9.07395
20
9.22967
30
5.48
0
VERTEX
10
9.06977
20
9.20743
30
5.48
0
VERTEX
10
9.06838
20
9.18518
30
5.48
0
VERTEX
10
9.06838
20
9.17406
30
5.48
0
VERTEX
10
9.06838
20
9.16849
30
5.48
0
VERTEX
10
9.05865
20
9.15876
30
5.48
0
VERTEX
10
9.05309
20
9.15459
30
5.48
0
VERTEX
10
9.0517
20
9.15042
30
5.48
0
SEQEND
0
POLYLINE
62
227
66
1
70
1
3
endoplasmic_reticulum
0
VERTEX
10
8.90721
20
9.18991
30
5.48
0
VERTEX
10
8.90945
20
9.18878
30
5.48
0
VERTEX
10
8.91394
20
9.18991
30
5.48
0
VERTEX
10
8.9173
20
9.18093
30
5.48
0
VERTEX
10
8.92179
20
9.17869
30
5.48
0
VERTEX
10
8.92404
20
9.17644
30
5.48
0
VERTEX
10
8.93301
20
9.17644
30
5.48
0
VERTEX
10
8.95096
20
9.18205
30
5.48
0
VERTEX
10
8.95993
20
9.18542
30
5.48
0
VERTEX
10
8.96218
20
9.18654
30
5.48
0
VERTEX
10
8.9633
20
9.19103
30
5.48
0
VERTEX
10
8.97003
20
9.2
30
5.48
0
VERTEX
10
8.97227
20
9.20112
30
5.48
0
VERTEX
10
8.97227
20
9.20337
30
5.48
0
VERTEX
10
8.97452
20
9.20561
30
5.48
0
VERTEX
10
8.97452
20
9.20785
30
5.48
0
VERTEX
10
8.97676
20
9.20785
30
5.48
0
VERTEX
10
8.98125
20
9.21122
30
5.48
0
VERTEX
10
8.98574
20
9.21234
30
5.48
0
VERTEX
10
9.00032
20
9.22693
30
5.48
0
VERTEX
10
9.00705
20
9.23366
30
5.48
0
VERTEX
10
9.01266
20
9.24263
30
5.48
0
VERTEX
10
9.0149
20
9.24712
30
5.48
0
VERTEX
10
9.0149
20
9.25609
30
5.48
0
VERTEX
10
9.0149
20
9.26058
30
5.48
0
VERTEX
10
9.01378
20
9.26282
30
5.48
0
VERTEX
10
9.00481
20
9.26619
30
5.48
0
VERTEX
10
8.99583
20
9.26619
30
5.48
0
VERTEX
10
8.97788
20
9.26058
30
5.48
0
VERTEX
10
8.96891
20
9.25834
30
5.48
0
VERTEX
10
8.96666
20
9.25609
30
5.48
0
VERTEX
10
8.94872
20
9.25273
30
5.48
0
VERTEX
10
8.94423
20
9.25385
30
5.48
0
VERTEX
10
8.93525
20
9.24712
30
5.48
0
VERTEX
10
8.93301
20
9.24712
30
5.48
0
VERTEX
10
8.92628
20
9.23927
30
5.48
0
VERTEX
10
8.92404
20
9.23478
30
5.48
0
VERTEX
10
8.92404
20
9.23253
30
5.48
0
VERTEX
10
8.92179
20
9.23141
30
5.48
0
VERTEX
10
8.92179
20
9.22917
30
5.48
0
VERTEX
10
8.91955
20
9.22917
30
5.48
0
VERTEX
10
8.90833
20
9.21122
30
5.48
0
VERTEX
10
8.90833
20
9.19327
30
5.48
0
VERTEX
10
8.90833
20
9.19103
30
5.48
0
SEQEND
0
POLYLINE
62
227
66
1
70
1
3
endoplasmic_reticulum
0
VERTEX
10
8.92291
20
9.09119
30
5.48
0
VERTEX
10
8.92516
20
9.0867
30
5.48
0
VERTEX
10
8.9274
20
9.08445
30
5.48
0
VERTEX
10
8.93189
20
9.08333
30
5.48
0
VERTEX
10
8.93413
20
9.08109
30
5.48
0
VERTEX
10
8.95208
20
9.07997
30
5.48
0
VERTEX
10
8.96106
20
9.07997
30
5.48
0
VERTEX
10
8.96554
20
9.08109
30
5.48
0
VERTEX
10
8.96779
20
9.08333
30
5.48
0
VERTEX
10
8.97003
20
9.09231
30
5.48
0
VERTEX
10
8.9734
20
9.09679
30
5.48
0
VERTEX
10
8.97227
20
9.11474
30
5.48
0
VERTEX
10
8.9734
20
9.13269
30
5.48
0
VERTEX
10
8.97003
20
9.14055
30
5.48
0
VERTEX
10
8.96442
20
9.1484
30
5.48
0
VERTEX
10
8.95545
20
9.15401
30
5.48
0
VERTEX
10
8.95096
20
9.15401
30
5.48
0
VERTEX
10
8.93301
20
9.14615
30
5.48
0
VERTEX
10
8.92852
20
9.14615
30
5.48
0
VERTEX
10
8.92516
20
9.14167
30
5.48
0
VERTEX
10
8.92291
20
9.12372
30
5.48
0
VERTEX
10
8.92291
20
9.10577
30
5.48
0
VERTEX
10
8.92291
20
9.09679
30
5.48
0
VERTEX
10
8.92291
20
9.09231
30
5.48
0
SEQEND
0
ENDSEC
0
EOF
