0
SECTION
2
ENTITIES
0
POLYLINE
62
224
66
1
70
1
3
mitochondrion
0
VERTEX
10
7.85315
20
10.1529
30
8.2
0
VERTEX
10
7.87261
20
10.1112
30
8.2
0
VERTEX
10
7.88096
20
10.1043
30
8.2
0
VERTEX
10
7.88652
20
10.1001
30
8.2
0
VERTEX
10
7.8893
20
10.1001
30
8.2
0
VERTEX
10
7.89625
20
10.0931
30
8.2
0
VERTEX
10
7.89903
20
10.0931
30
8.2
0
VERTEX
10
7.90042
20
10.0903
30
8.2
0
VERTEX
10
7.9032
20
10.0903
30
8.2
0
VERTEX
10
7.90598
20
10.0862
30
8.2
0
VERTEX
10
7.91711
20
10.0764
30
8.2
0
VERTEX
10
7.93518
20
10.0584
30
8.2
0
VERTEX
10
7.95465
20
10.0431
30
8.2
0
VERTEX
10
7.96021
20
10.0389
30
8.2
0
VERTEX
10
7.96577
20
10.0375
30
8.2
0
VERTEX
10
7.97133
20
10.0333
30
8.2
0
VERTEX
10
7.98246
20
10.0306
30
8.2
0
VERTEX
10
7.98524
20
10.0306
30
8.2
0
VERTEX
10
7.98802
20
10.0278
30
8.2
0
VERTEX
10
8.01027
20
10.0208
30
8.2
0
VERTEX
10
8.01583
20
10.0167
30
8.2
0
VERTEX
10
8.02695
20
10.0153
30
8.2
0
VERTEX
10
8.0492
20
10.018
30
8.2
0
VERTEX
10
8.05476
20
10.018
30
8.2
0
VERTEX
10
8.06588
20
10.0236
30
8.2
0
VERTEX
10
8.06866
20
10.0278
30
8.2
0
VERTEX
10
8.07423
20
10.0292
30
8.2
0
VERTEX
10
8.08257
20
10.0375
30
8.2
0
VERTEX
10
8.08813
20
10.0431
30
8.2
0
VERTEX
10
8.09369
20
10.0459
30
8.2
0
VERTEX
10
8.09925
20
10.057
30
8.2
0
VERTEX
10
8.10204
20
10.0681
30
8.2
0
VERTEX
10
8.10482
20
10.0737
30
8.2
0
VERTEX
10
8.10899
20
10.0959
30
8.2
0
VERTEX
10
8.1076
20
10.1404
30
8.2
0
VERTEX
10
8.10482
20
10.1627
30
8.2
0
VERTEX
10
8.10204
20
10.1738
30
8.2
0
VERTEX
10
8.09647
20
10.1849
30
8.2
0
VERTEX
10
8.09508
20
10.1905
30
8.2
0
VERTEX
10
8.09091
20
10.196
30
8.2
0
VERTEX
10
8.08813
20
10.1974
30
8.2
0
VERTEX
10
8.08813
20
10.2002
30
8.2
0
VERTEX
10
8.08535
20
10.2016
30
8.2
0
VERTEX
10
8.08535
20
10.2044
30
8.2
0
VERTEX
10
8.07006
20
10.2238
30
8.2
0
VERTEX
10
8.05198
20
10.2447
30
8.2
0
VERTEX
10
8.04642
20
10.2489
30
8.2
0
VERTEX
10
8.03529
20
10.253
30
8.2
0
VERTEX
10
8.02556
20
10.2614
30
8.2
0
VERTEX
10
8.02278
20
10.2614
30
8.2
0
VERTEX
10
8.02
20
10.2642
30
8.2
0
VERTEX
10
7.99775
20
10.2642
30
8.2
0
VERTEX
10
7.98663
20
10.2642
30
8.2
0
VERTEX
10
7.97551
20
10.2614
30
8.2
0
VERTEX
10
7.97273
20
10.2586
30
8.2
0
VERTEX
10
7.95048
20
10.2572
30
8.2
0
VERTEX
10
7.93935
20
10.2572
30
8.2
0
VERTEX
10
7.93657
20
10.2544
30
8.2
0
VERTEX
10
7.92545
20
10.253
30
8.2
0
VERTEX
10
7.91989
20
10.2489
30
8.2
0
VERTEX
10
7.91711
20
10.2489
30
8.2
0
VERTEX
10
7.89625
20
10.2322
30
8.2
0
VERTEX
10
7.8893
20
10.2224
30
8.2
0
VERTEX
10
7.88652
20
10.2169
30
8.2
0
VERTEX
10
7.88096
20
10.2113
30
8.2
0
VERTEX
10
7.8754
20
10.2016
30
8.2
0
VERTEX
10
7.874
20
10.1988
30
8.2
0
VERTEX
10
7.87122
20
10.1988
30
8.2
0
VERTEX
10
7.86705
20
10.1932
30
8.2
0
VERTEX
10
7.86705
20
10.1905
30
8.2
0
VERTEX
10
7.86427
20
10.1877
30
8.2
0
VERTEX
10
7.8601
20
10.1766
30
8.2
0
VERTEX
10
7.85315
20
10.1654
30
8.2
0
VERTEX
10
7.85315
20
10.1543
30
8.2
0
SEQEND
0
POLYLINE
62
236
66
1
70
1
3
postsynaptic_density
0
VERTEX
10
7.28576
20
10.9921
30
8.2
0
VERTEX
10
7.29696
20
10.9772
30
8.2
0
VERTEX
10
7.32682
20
10.9716
30
8.2
0
VERTEX
10
7.33429
20
10.9753
30
8.2
0
VERTEX
10
7.34922
20
10.9753
30
8.2
0
VERTEX
10
7.37908
20
10.9865
30
8.2
0
VERTEX
10
7.38281
20
10.9865
30
8.2
0
VERTEX
10
7.39774
20
10.9977
30
8.2
0
VERTEX
10
7.4052
20
10.9996
30
8.2
0
VERTEX
10
7.41827
20
11.0126
30
8.2
0
VERTEX
10
7.42013
20
11.0201
30
8.2
0
VERTEX
10
7.42573
20
11.0276
30
8.2
0
VERTEX
10
7.42386
20
11.0574
30
8.2
0
VERTEX
10
7.42386
20
11.0723
30
8.2
0
VERTEX
10
7.42386
20
11.0798
30
8.2
0
VERTEX
10
7.42013
20
11.0873
30
8.2
0
VERTEX
10
7.42013
20
11.091
30
8.2
0
VERTEX
10
7.4164
20
11.0947
30
8.2
0
VERTEX
10
7.4164
20
11.0985
30
8.2
0
VERTEX
10
7.4052
20
11.1097
30
8.2
0
VERTEX
10
7.39027
20
11.1209
30
8.2
0
VERTEX
10
7.38281
20
11.1246
30
8.2
0
VERTEX
10
7.35295
20
11.1302
30
8.2
0
VERTEX
10
7.34922
20
11.1302
30
8.2
0
VERTEX
10
7.31189
20
11.0705
30
8.2
0
VERTEX
10
7.29509
20
11.0406
30
8.2
0
VERTEX
10
7.2895
20
11.035
30
8.2
0
VERTEX
10
7.28576
20
11.0332
30
8.2
0
VERTEX
10
7.28576
20
11.0033
30
8.2
0
VERTEX
10
7.28576
20
10.9958
30
8.2
0
VERTEX
10
7.28576
20
10.994
30
8.2
0
SEQEND
0
POLYLINE
62
227
66
1
70
1
3
endoplasmic_reticulum
0
VERTEX
10
7.71209
20
9.92208
30
8.2
0
VERTEX
10
7.71568
20
9.90773
30
8.2
0
VERTEX
10
7.71837
20
9.87904
30
8.2
0
VERTEX
10
7.71926
20
9.87546
30
8.2
0
VERTEX
10
7.72554
20
9.86918
30
8.2
0
VERTEX
10
7.73271
20
9.86739
30
8.2
0
VERTEX
10
7.73988
20
9.86739
30
8.2
0
VERTEX
10
7.74705
20
9.86918
30
8.2
0
VERTEX
10
7.7614
20
9.87725
30
8.2
0
VERTEX
10
7.76857
20
9.88173
30
8.2
0
VERTEX
10
7.78292
20
9.88621
30
8.2
0
VERTEX
10
7.7865
20
9.88711
30
8.2
0
VERTEX
10
7.79009
20
9.88621
30
8.2
0
VERTEX
10
7.79188
20
9.88621
30
8.2
0
VERTEX
10
7.79368
20
9.8898
30
8.2
0
VERTEX
10
7.79278
20
9.90414
30
8.2
0
VERTEX
10
7.79188
20
9.90773
30
8.2
0
VERTEX
10
7.7865
20
9.9149
30
8.2
0
VERTEX
10
7.78292
20
9.91849
30
8.2
0
VERTEX
10
7.78381
20
9.92566
30
8.2
0
VERTEX
10
7.78381
20
9.92925
30
8.2
0
VERTEX
10
7.7865
20
9.93552
30
8.2
0
VERTEX
10
7.79188
20
9.9409
30
8.2
0
VERTEX
10
7.79368
20
9.9427
30
8.2
0
VERTEX
10
7.79547
20
9.9427
30
8.2
0
VERTEX
10
7.80174
20
9.94808
30
8.2
0
VERTEX
10
7.80623
20
9.95435
30
8.2
0
VERTEX
10
7.80892
20
9.96152
30
8.2
0
VERTEX
10
7.80892
20
9.97587
30
8.2
0
VERTEX
10
7.80264
20
9.99021
30
8.2
0
VERTEX
10
7.79905
20
9.99739
30
8.2
0
VERTEX
10
7.79905
20
10.0261
30
8.2
0
VERTEX
10
7.79636
20
10.0332
30
8.2
0
VERTEX
10
7.79547
20
10.0368
30
8.2
0
VERTEX
10
7.78561
20
10.0494
30
8.2
0
VERTEX
10
7.78561
20
10.0637
30
8.2
0
VERTEX
10
7.78561
20
10.0709
30
8.2
0
VERTEX
10
7.7874
20
10.0727
30
8.2
0
VERTEX
10
7.7874
20
10.0745
30
8.2
0
VERTEX
10
7.78919
20
10.0763
30
8.2
0
VERTEX
10
7.79009
20
10.0799
30
8.2
0
VERTEX
10
7.79009
20
10.0817
30
8.2
0
VERTEX
10
7.79278
20
10.0852
30
8.2
0
VERTEX
10
7.79368
20
10.0888
30
8.2
0
VERTEX
10
7.79816
20
10.096
30
8.2
0
VERTEX
10
7.79816
20
10.0996
30
8.2
0
VERTEX
10
7.80085
20
10.1032
30
8.2
0
VERTEX
10
7.80264
20
10.1175
30
8.2
0
VERTEX
10
7.80085
20
10.1247
30
8.2
0
VERTEX
10
7.79547
20
10.131
30
8.2
0
VERTEX
10
7.79368
20
10.131
30
8.2
0
VERTEX
10
7.7865
20
10.1381
30
8.2
0
VERTEX
10
7.78381
20
10.1417
30
8.2
0
VERTEX
10
7.77664
20
10.1444
30
8.2
0
VERTEX
10
7.77395
20
10.148
30
8.2
0
VERTEX
10
7.77216
20
10.1489
30
8.2
0
VERTEX
10
7.76499
20
10.1453
30
8.2
0
VERTEX
10
7.76319
20
10.1453
30
8.2
0
VERTEX
10
7.7614
20
10.1435
30
8.2
0
VERTEX
10
7.7605
20
10.1399
30
8.2
0
VERTEX
10
7.75512
20
10.1328
30
8.2
0
VERTEX
10
7.75333
20
10.1256
30
8.2
0
VERTEX
10
7.75333
20
10.1184
30
8.2
0
VERTEX
10
7.75333
20
10.1148
30
8.2
0
VERTEX
10
7.74795
20
10.1005
30
8.2
0
VERTEX
10
7.75064
20
10.0718
30
8.2
0
VERTEX
10
7.75243
20
10.0575
30
8.2
0
VERTEX
10
7.75423
20
10.0539
30
8.2
0
VERTEX
10
7.75423
20
10.0521
30
8.2
0
VERTEX
10
7.75602
20
10.0512
30
8.2
0
VERTEX
10
7.75423
20
10.0225
30
8.2
0
VERTEX
10
7.75423
20
10.0189
30
8.2
0
VERTEX
10
7.75154
20
10.0162
30
8.2
0
VERTEX
10
7.75064
20
10.0019
30
8.2
0
VERTEX
10
7.75154
20
9.98752
30
8.2
0
VERTEX
10
7.75512
20
9.97318
30
8.2
0
VERTEX
10
7.75602
20
9.96959
30
8.2
0
VERTEX
10
7.7614
20
9.96421
30
8.2
0
VERTEX
10
7.76499
20
9.96063
30
8.2
0
VERTEX
10
7.76588
20
9.95345
30
8.2
0
VERTEX
10
7.76409
20
9.94628
30
8.2
0
VERTEX
10
7.75961
20
9.94001
30
8.2
0
VERTEX
10
7.75333
20
9.93463
30
8.2
0
VERTEX
10
7.74616
20
9.93552
30
8.2
0
VERTEX
10
7.74257
20
9.93642
30
8.2
0
VERTEX
10
7.73988
20
9.94001
30
8.2
0
VERTEX
10
7.73809
20
9.94001
30
8.2
0
VERTEX
10
7.7345
20
9.9427
30
8.2
0
VERTEX
10
7.72016
20
9.9418
30
8.2
0
VERTEX
10
7.71837
20
9.9418
30
8.2
0
VERTEX
10
7.71478
20
9.93911
30
8.2
0
VERTEX
10
7.71209
20
9.93194
30
8.2
0
VERTEX
10
7.71209
20
9.92477
30
8.2
0
VERTEX
10
7.71209
20
9.92297
30
8.2
0
SEQEND
0
POLYLINE
62
227
66
1
70
1
3
endoplasmic_reticulum
0
VERTEX
10
7.85733
20
9.93014
30
8.2
0
VERTEX
10
7.85912
20
9.92835
30
8.2
0
VERTEX
10
7.86002
20
9.92118
30
8.2
0
VERTEX
10
7.86002
20
9.91759
30
8.2
0
VERTEX
10
7.86719
20
9.9167
30
8.2
0
VERTEX
10
7.89588
20
9.91939
30
8.2
0
VERTEX
10
7.91023
20
9.91849
30
8.2
0
VERTEX
10
7.9174
20
9.9167
30
8.2
0
VERTEX
10
7.92098
20
9.9149
30
8.2
0
VERTEX
10
7.93533
20
9.9149
30
8.2
0
VERTEX
10
7.9425
20
9.9149
30
8.2
0
VERTEX
10
7.95685
20
9.91939
30
8.2
0
VERTEX
10
7.96133
20
9.92566
30
8.2
0
VERTEX
10
7.96223
20
9.93283
30
8.2
0
VERTEX
10
7.95954
20
9.96152
30
8.2
0
VERTEX
10
7.95954
20
9.96511
30
8.2
0
VERTEX
10
7.95954
20
9.9669
30
8.2
0
VERTEX
10
7.95685
20
9.97049
30
8.2
0
VERTEX
10
7.95685
20
9.97408
30
8.2
0
VERTEX
10
7.95326
20
9.97766
30
8.2
0
VERTEX
10
7.94698
20
9.98214
30
8.2
0
VERTEX
10
7.93264
20
9.98035
30
8.2
0
VERTEX
10
7.92547
20
9.97945
30
8.2
0
VERTEX
10
7.91919
20
9.97677
30
8.2
0
VERTEX
10
7.91202
20
9.97228
30
8.2
0
VERTEX
10
7.90843
20
9.96959
30
8.2
0
VERTEX
10
7.90485
20
9.9687
30
8.2
0
VERTEX
10
7.89857
20
9.96332
30
8.2
0
VERTEX
10
7.89588
20
9.96063
30
8.2
0
VERTEX
10
7.8923
20
9.95973
30
8.2
0
VERTEX
10
7.88602
20
9.95525
30
8.2
0
VERTEX
10
7.88243
20
9.95435
30
8.2
0
VERTEX
10
7.88064
20
9.95256
30
8.2
0
VERTEX
10
7.87705
20
9.95166
30
8.2
0
VERTEX
10
7.87526
20
9.95166
30
8.2
0
VERTEX
10
7.87347
20
9.94987
30
8.2
0
VERTEX
10
7.8663
20
9.94718
30
8.2
0
VERTEX
10
7.86271
20
9.94449
30
8.2
0
VERTEX
10
7.86002
20
9.93732
30
8.2
0
VERTEX
10
7.85733
20
9.93373
30
8.2
0
VERTEX
10
7.85733
20
9.93104
30
8.2
0
SEQEND
0
POLYLINE
62
227
66
1
70
1
3
endoplasmic_reticulum
0
VERTEX
10
8.04829
20
9.9687
30
8.2
0
VERTEX
10
8.05188
20
9.96152
30
8.2
0
VERTEX
10
8.05547
20
9.95973
30
8.2
0
VERTEX
10
8.05726
20
9.95794
30
8.2
0
VERTEX
10
8.06443
20
9.95614
30
8.2
0
VERTEX
10
8.07878
20
9.95525
30
8.2
0
VERTEX
10
8.08595
20
9.95345
30
8.2
0
VERTEX
10
8.10029
20
9.95345
30
8.2
0
VERTEX
10
8.10747
20
9.95704
30
8.2
0
VERTEX
10
8.11374
20
9.96332
30
8.2
0
VERTEX
10
8.11823
20
9.9687
30
8.2
0
VERTEX
10
8.11912
20
9.97228
30
8.2
0
VERTEX
10
8.12181
20
9.97587
30
8.2
0
VERTEX
10
8.12181
20
9.97766
30
8.2
0
VERTEX
10
8.1245
20
9.98125
30
8.2
0
VERTEX
10
8.1254
20
9.98483
30
8.2
0
VERTEX
10
8.13616
20
9.99828
30
8.2
0
VERTEX
10
8.13795
20
10.0055
30
8.2
0
VERTEX
10
8.13795
20
10.0072
30
8.2
0
VERTEX
10
8.13616
20
10.0081
30
8.2
0
VERTEX
10
8.13526
20
10.0072
30
8.2
0
VERTEX
10
8.13526
20
10.0144
30
8.2
0
VERTEX
10
8.13257
20
10.0216
30
8.2
0
VERTEX
10
8.1254
20
10.0225
30
8.2
0
VERTEX
10
8.12181
20
10.0234
30
8.2
0
VERTEX
10
8.12002
20
10.0234
30
8.2
0
VERTEX
10
8.11374
20
10.018
30
8.2
0
VERTEX
10
8.0994
20
10.0126
30
8.2
0
VERTEX
10
8.0985
20
10.0108
30
8.2
0
VERTEX
10
8.09491
20
10.0099
30
8.2
0
VERTEX
10
8.09133
20
10.0072
30
8.2
0
VERTEX
10
8.08774
20
10.0072
30
8.2
0
VERTEX
10
8.0734
20
10.0028
30
8.2
0
VERTEX
10
8.06623
20
10.0001
30
8.2
0
VERTEX
10
8.06264
20
9.99828
30
8.2
0
VERTEX
10
8.05905
20
9.9947
30
8.2
0
VERTEX
10
8.05816
20
9.99111
30
8.2
0
VERTEX
10
8.05278
20
9.98483
30
8.2
0
VERTEX
10
8.05098
20
9.98304
30
8.2
0
VERTEX
10
8.05009
20
9.97945
30
8.2
0
VERTEX
10
8.04829
20
9.97766
30
8.2
0
VERTEX
10
8.04829
20
9.97049
30
8.2
0
VERTEX
10
8.04829
20
9.96959
30
8.2
0
SEQEND
0
POLYLINE
62
227
66
1
70
1
3
endoplasmic_reticulum
0
VERTEX
10
7.68968
20
10.2941
30
8.2
0
VERTEX
10
7.69416
20
10.2655
30
8.2
0
VERTEX
10
7.69864
20
10.2511
30
8.2
0
VERTEX
10
7.70581
20
10.2466
30
8.2
0
VERTEX
10
7.7094
20
10.2448
30
8.2
0
VERTEX
10
7.71657
20
10.2448
30
8.2
0
VERTEX
10
7.71837
20
10.2448
30
8.2
0
VERTEX
10
7.72016
20
10.243
30
8.2
0
VERTEX
10
7.72733
20
10.2421
30
8.2
0
VERTEX
10
7.7345
20
10.2448
30
8.2
0
VERTEX
10
7.73809
20
10.2475
30
8.2
0
VERTEX
10
7.73899
20
10.2511
30
8.2
0
VERTEX
10
7.73719
20
10.2538
30
8.2
0
VERTEX
10
7.73899
20
10.2547
30
8.2
0
VERTEX
10
7.73988
20
10.269
30
8.2
0
VERTEX
10
7.73719
20
10.2834
30
8.2
0
VERTEX
10
7.73719
20
10.2977
30
8.2
0
VERTEX
10
7.73719
20
10.2995
30
8.2
0
VERTEX
10
7.74437
20
10.3058
30
8.2
0
VERTEX
10
7.74795
20
10.3094
30
8.2
0
VERTEX
10
7.74885
20
10.313
30
8.2
0
VERTEX
10
7.74795
20
10.3148
30
8.2
0
VERTEX
10
7.75064
20
10.3183
30
8.2
0
VERTEX
10
7.74974
20
10.3327
30
8.2
0
VERTEX
10
7.74437
20
10.3461
30
8.2
0
VERTEX
10
7.74257
20
10.3497
30
8.2
0
VERTEX
10
7.73899
20
10.3533
30
8.2
0
VERTEX
10
7.73809
20
10.3551
30
8.2
0
VERTEX
10
7.73092
20
10.3533
30
8.2
0
VERTEX
10
7.71657
20
10.347
30
8.2
0
VERTEX
10
7.71299
20
10.347
30
8.2
0
VERTEX
10
7.7103
20
10.3435
30
8.2
0
VERTEX
10
7.7103
20
10.3417
30
8.2
0
VERTEX
10
7.70402
20
10.3372
30
8.2
0
VERTEX
10
7.70133
20
10.3336
30
8.2
0
VERTEX
10
7.69864
20
10.3318
30
8.2
0
VERTEX
10
7.69595
20
10.3246
30
8.2
0
VERTEX
10
7.69326
20
10.321
30
8.2
0
VERTEX
10
7.68968
20
10.3067
30
8.2
0
VERTEX
10
7.68968
20
10.2995
30
8.2
0
VERTEX
10
7.68968
20
10.2959
30
8.2
0
VERTEX
10
7.68968
20
10.295
30
8.2
0
SEQEND
0
POLYLINE
62
227
66
1
70
1
3
endoplasmic_reticulum
0
VERTEX
10
8.14781
20
10.1525
30
8.2
0
VERTEX
10
8.15229
20
10.1381
30
8.2
0
VERTEX
10
8.15588
20
10.1364
30
8.2
0
VERTEX
10
8.15767
20
10.1364
30
8.2
0
VERTEX
10
8.15857
20
10.1346
30
8.2
0
VERTEX
10
8.17291
20
10.1328
30
8.2
0
VERTEX
10
8.18726
20
10.1337
30
8.2
0
VERTEX
10
8.19085
20
10.1337
30
8.2
0
VERTEX
10
8.19712
20
10.1381
30
8.2
0
VERTEX
10
8.2016
20
10.1444
30
8.2
0
VERTEX
10
8.20429
20
10.1453
30
8.2
0
VERTEX
10
8.20698
20
10.1489
30
8.2
0
VERTEX
10
8.20878
20
10.1561
30
8.2
0
VERTEX
10
8.20878
20
10.1579
30
8.2
0
VERTEX
10
8.21057
20
10.1597
30
8.2
0
VERTEX
10
8.21147
20
10.174
30
8.2
0
VERTEX
10
8.21147
20
10.1812
30
8.2
0
VERTEX
10
8.21416
20
10.1875
30
8.2
0
VERTEX
10
8.21685
20
10.2018
30
8.2
0
VERTEX
10
8.21685
20
10.2161
30
8.2
0
VERTEX
10
8.21595
20
10.2197
30
8.2
0
VERTEX
10
8.20429
20
10.2332
30
8.2
0
VERTEX
10
8.2034
20
10.2359
30
8.2
0
VERTEX
10
8.2016
20
10.2368
30
8.2
0
VERTEX
10
8.18726
20
10.2323
30
8.2
0
VERTEX
10
8.18098
20
10.2296
30
8.2
0
VERTEX
10
8.17919
20
10.2278
30
8.2
0
VERTEX
10
8.17919
20
10.226
30
8.2
0
VERTEX
10
8.17471
20
10.2197
30
8.2
0
VERTEX
10
8.16126
20
10.1919
30
8.2
0
VERTEX
10
8.15767
20
10.1848
30
8.2
0
VERTEX
10
8.15588
20
10.1776
30
8.2
0
VERTEX
10
8.15319
20
10.174
30
8.2
0
VERTEX
10
8.14781
20
10.1597
30
8.2
0
VERTEX
10
8.14781
20
10.1534
30
8.2
0
SEQEND
0
POLYLINE
62
227
66
1
70
1
3
endoplasmic_reticulum
0
VERTEX
10
8.12091
20
10.2448
30
8.2
0
VERTEX
10
8.1236
20
10.2377
30
8.2
0
VERTEX
10
8.1245
20
10.2341
30
8.2
0
VERTEX
10
8.12629
20
10.2323
30
8.2
0
VERTEX
10
8.12629
20
10.2305
30
8.2
0
VERTEX
10
8.12898
20
10.2278
30
8.2
0
VERTEX
10
8.13078
20
10.2278
30
8.2
0
VERTEX
10
8.13347
20
10.2305
30
8.2
0
VERTEX
10
8.13705
20
10.2314
30
8.2
0
VERTEX
10
8.13885
20
10.2332
30
8.2
0
VERTEX
10
8.15229
20
10.2395
30
8.2
0
VERTEX
10
8.15588
20
10.2412
30
8.2
0
VERTEX
10
8.15767
20
10.2412
30
8.2
0
VERTEX
10
8.16126
20
10.2448
30
8.2
0
VERTEX
10
8.16395
20
10.2466
30
8.2
0
VERTEX
10
8.16754
20
10.2502
30
8.2
0
VERTEX
10
8.16843
20
10.2574
30
8.2
0
VERTEX
10
8.16754
20
10.2717
30
8.2
0
VERTEX
10
8.16395
20
10.2744
30
8.2
0
VERTEX
10
8.1496
20
10.2789
30
8.2
0
VERTEX
10
8.14602
20
10.2798
30
8.2
0
VERTEX
10
8.13885
20
10.2771
30
8.2
0
VERTEX
10
8.13526
20
10.2771
30
8.2
0
VERTEX
10
8.13167
20
10.2753
30
8.2
0
VERTEX
10
8.12809
20
10.2753
30
8.2
0
VERTEX
10
8.1245
20
10.2735
30
8.2
0
VERTEX
10
8.12271
20
10.2726
30
8.2
0
VERTEX
10
8.12091
20
10.2583
30
8.2
0
VERTEX
10
8.12091
20
10.2511
30
8.2
0
VERTEX
10
8.12091
20
10.2475
30
8.2
0
VERTEX
10
8.12091
20
10.2457
30
8.2
0
SEQEND
0
POLYLINE
62
31
66
1
70
1
3
contour
0
VERTEX
10
7.31618
20
10.9798
30
8.2
0
VERTEX
10
7.31985
20
10.9724
30
8.2
0
VERTEX
10
7.32169
20
10.9577
30
8.2
0
VERTEX
10
7.33454
20
10.9302
30
8.2
0
VERTEX
10
7.33638
20
10.9229
30
8.2
0
VERTEX
10
7.34923
20
10.91
30
8.2
0
VERTEX
10
7.35291
20
10.91
30
8.2
0
VERTEX
10
7.35842
20
10.9045
30
8.2
0
VERTEX
10
7.37127
20
10.899
30
8.2
0
VERTEX
10
7.38229
20
10.8898
30
8.2
0
VERTEX
10
7.39698
20
10.8788
30
8.2
0
VERTEX
10
7.41167
20
10.8733
30
8.2
0
VERTEX
10
7.41902
20
10.8586
30
8.2
0
VERTEX
10
7.43187
20
10.8494
30
8.2
0
VERTEX
10
7.43554
20
10.8494
30
8.2
0
VERTEX
10
7.43922
20
10.8457
30
8.2
0
VERTEX
10
7.4686
20
10.8476
30
8.2
0
VERTEX
10
7.48329
20
10.8384
30
8.2
0
VERTEX
10
7.51267
20
10.8365
30
8.2
0
VERTEX
10
7.52736
20
10.8347
30
8.2
0
VERTEX
10
7.54206
20
10.8292
30
8.2
0
VERTEX
10
7.57144
20
10.8255
30
8.2
0
VERTEX
10
7.59531
20
10.8053
30
8.2
0
VERTEX
10
7.61
20
10.7943
30
8.2
0
VERTEX
10
7.62286
20
10.787
30
8.2
0
VERTEX
10
7.65224
20
10.7668
30
8.2
0
VERTEX
10
7.68162
20
10.7521
30
8.2
0
VERTEX
10
7.68713
20
10.7466
30
8.2
0
VERTEX
10
7.68897
20
10.7392
30
8.2
0
VERTEX
10
7.69631
20
10.7374
30
8.2
0
VERTEX
10
7.69998
20
10.7374
30
8.2
0
VERTEX
10
7.72202
20
10.7135
30
8.2
0
VERTEX
10
7.74222
20
10.686
30
8.2
0
VERTEX
10
7.75324
20
10.6713
30
8.2
0
VERTEX
10
7.75691
20
10.6694
30
8.2
0
VERTEX
10
7.75691
20
10.6658
30
8.2
0
VERTEX
10
7.76793
20
10.6529
30
8.2
0
VERTEX
10
7.77528
20
10.6474
30
8.2
0
VERTEX
10
7.77895
20
10.6437
30
8.2
0
VERTEX
10
7.77711
20
10.6143
30
8.2
0
VERTEX
10
7.77711
20
10.6107
30
8.2
0
VERTEX
10
7.77344
20
10.607
30
8.2
0
VERTEX
10
7.76977
20
10.5923
30
8.2
0
VERTEX
10
7.76977
20
10.585
30
8.2
0
VERTEX
10
7.76242
20
10.5703
30
8.2
0
VERTEX
10
7.75875
20
10.5666
30
8.2
0
VERTEX
10
7.7514
20
10.5648
30
8.2
0
VERTEX
10
7.74589
20
10.5592
30
8.2
0
VERTEX
10
7.74406
20
10.5005
30
8.2
0
VERTEX
10
7.74222
20
10.4858
30
8.2
0
VERTEX
10
7.73671
20
10.4784
30
8.2
0
VERTEX
10
7.73488
20
10.4711
30
8.2
0
VERTEX
10
7.7312
20
10.4674
30
8.2
0
VERTEX
10
7.7312
20
10.4638
30
8.2
0
VERTEX
10
7.72569
20
10.4564
30
8.2
0
VERTEX
10
7.72386
20
10.4491
30
8.2
0
VERTEX
10
7.71284
20
10.4362
30
8.2
0
VERTEX
10
7.70549
20
10.4307
30
8.2
0
VERTEX
10
7.68897
20
10.4032
30
8.2
0
VERTEX
10
7.68346
20
10.3958
30
8.2
0
VERTEX
10
7.68162
20
10.3885
30
8.2
0
VERTEX
10
7.68162
20
10.3848
30
8.2
0
VERTEX
10
7.67611
20
10.3774
30
8.2
0
VERTEX
10
7.6706
20
10.3646
30
8.2
0
VERTEX
10
7.6706
20
10.3609
30
8.2
0
VERTEX
10
7.66693
20
10.3572
30
8.2
0
VERTEX
10
7.66693
20
10.3536
30
8.2
0
VERTEX
10
7.66326
20
10.3499
30
8.2
0
VERTEX
10
7.66326
20
10.3462
30
8.2
0
VERTEX
10
7.65591
20
10.3407
30
8.2
0
VERTEX
10
7.65408
20
10.3334
30
8.2
0
VERTEX
10
7.64857
20
10.326
30
8.2
0
VERTEX
10
7.64489
20
10.3113
30
8.2
0
VERTEX
10
7.64122
20
10.304
30
8.2
0
VERTEX
10
7.64122
20
10.2746
30
8.2
0
VERTEX
10
7.64489
20
10.2599
30
8.2
0
VERTEX
10
7.64673
20
10.2526
30
8.2
0
VERTEX
10
7.65958
20
10.2379
30
8.2
0
VERTEX
10
7.66693
20
10.2324
30
8.2
0
VERTEX
10
7.67244
20
10.2177
30
8.2
0
VERTEX
10
7.67611
20
10.214
30
8.2
0
VERTEX
10
7.67244
20
10.0965
30
8.2
0
VERTEX
10
7.67244
20
10.0671
30
8.2
0
VERTEX
10
7.67611
20
10.0524
30
8.2
0
VERTEX
10
7.67978
20
10.0451
30
8.2
0
VERTEX
10
7.67795
20
10.0157
30
8.2
0
VERTEX
10
7.67428
20
10.001
30
8.2
0
VERTEX
10
7.67428
20
9.99364
30
8.2
0
VERTEX
10
7.6706
20
9.98996
30
8.2
0
VERTEX
10
7.66877
20
9.9312
30
8.2
0
VERTEX
10
7.67244
20
9.90182
30
8.2
0
VERTEX
10
7.67244
20
9.88713
30
8.2
0
VERTEX
10
7.67244
20
9.87978
30
8.2
0
VERTEX
10
7.67611
20
9.87611
30
8.2
0
VERTEX
10
7.67795
20
9.86142
30
8.2
0
VERTEX
10
7.67978
20
9.85774
30
8.2
0
VERTEX
10
7.67611
20
9.84305
30
8.2
0
VERTEX
10
7.67611
20
9.81367
30
8.2
0
VERTEX
10
7.6706
20
9.79898
30
8.2
0
VERTEX
10
7.66877
20
9.79163
30
8.2
0
VERTEX
10
7.66326
20
9.78612
30
8.2
0
VERTEX
10
7.66142
20
9.77878
30
8.2
0
VERTEX
10
7.63571
20
9.75491
30
8.2
0
VERTEX
10
7.62837
20
9.7494
30
8.2
0
VERTEX
10
7.62653
20
9.73471
30
8.2
0
VERTEX
10
7.64122
20
9.72185
30
8.2
0
VERTEX
10
7.65591
20
9.71267
30
8.2
0
VERTEX
10
7.68529
20
9.70716
30
8.2
0
VERTEX
10
7.69998
20
9.70349
30
8.2
0
VERTEX
10
7.72937
20
9.69063
30
8.2
0
VERTEX
10
7.73671
20
9.6888
30
8.2
0
VERTEX
10
7.74039
20
9.6888
30
8.2
0
VERTEX
10
7.74222
20
9.68512
30
8.2
0
VERTEX
10
7.75691
20
9.68512
30
8.2
0
VERTEX
10
7.76242
20
9.69063
30
8.2
0
VERTEX
10
7.77711
20
9.68696
30
8.2
0
VERTEX
10
7.77895
20
9.68329
30
8.2
0
VERTEX
10
7.80833
20
9.68329
30
8.2
0
VERTEX
10
7.82302
20
9.68512
30
8.2
0
VERTEX
10
7.83037
20
9.68696
30
8.2
0
VERTEX
10
7.83404
20
9.69063
30
8.2
0
VERTEX
10
7.83404
20
9.69798
30
8.2
0
VERTEX
10
7.86342
20
9.70165
30
8.2
0
VERTEX
10
7.86893
20
9.709
30
8.2
0
VERTEX
10
7.87628
20
9.71267
30
8.2
0
VERTEX
10
7.88179
20
9.72001
30
8.2
0
VERTEX
10
7.88546
20
9.72001
30
8.2
0
VERTEX
10
7.89281
20
9.72552
30
8.2
0
VERTEX
10
7.89648
20
9.7292
30
8.2
0
VERTEX
10
7.90015
20
9.7292
30
8.2
0
VERTEX
10
7.9075
20
9.73471
30
8.2
0
VERTEX
10
7.90933
20
9.73838
30
8.2
0
VERTEX
10
7.91301
20
9.73838
30
8.2
0
VERTEX
10
7.91852
20
9.74572
30
8.2
0
VERTEX
10
7.92219
20
9.74572
30
8.2
0
VERTEX
10
7.93504
20
9.75674
30
8.2
0
VERTEX
10
7.94239
20
9.76041
30
8.2
0
VERTEX
10
7.94606
20
9.76041
30
8.2
0
VERTEX
10
7.95892
20
9.77143
30
8.2
0
VERTEX
10
7.97361
20
9.77878
30
8.2
0
VERTEX
10
7.99748
20
9.80265
30
8.2
0
VERTEX
10
8.0085
20
9.81367
30
8.2
0
VERTEX
10
8.01584
20
9.81918
30
8.2
0
VERTEX
10
8.01768
20
9.82653
30
8.2
0
VERTEX
10
8.03237
20
9.83754
30
8.2
0
VERTEX
10
8.03972
20
9.84305
30
8.2
0
VERTEX
10
8.04339
20
9.84305
30
8.2
0
VERTEX
10
8.05808
20
9.85407
30
8.2
0
VERTEX
10
8.06543
20
9.85958
30
8.2
0
VERTEX
10
8.0691
20
9.86693
30
8.2
0
VERTEX
10
8.09848
20
9.88529
30
8.2
0
VERTEX
10
8.10399
20
9.89264
30
8.2
0
VERTEX
10
8.11868
20
9.89998
30
8.2
0
VERTEX
10
8.12603
20
9.90365
30
8.2
0
VERTEX
10
8.1297
20
9.90365
30
8.2
0
VERTEX
10
8.14256
20
9.91284
30
8.2
0
VERTEX
10
8.17194
20
9.91834
30
8.2
0
VERTEX
10
8.18663
20
9.91834
30
8.2
0
VERTEX
10
8.21601
20
9.92385
30
8.2
0
VERTEX
10
8.2307
20
9.92753
30
8.2
0
VERTEX
10
8.23805
20
9.92936
30
8.2
0
VERTEX
10
8.2509
20
9.94222
30
8.2
0
VERTEX
10
8.26008
20
9.95507
30
8.2
0
VERTEX
10
8.28579
20
9.97895
30
8.2
0
VERTEX
10
8.30232
20
10.0065
30
8.2
0
VERTEX
10
8.30783
20
10.0212
30
8.2
0
VERTEX
10
8.3115
20
10.0506
30
8.2
0
VERTEX
10
8.32068
20
10.0799
30
8.2
0
VERTEX
10
8.32436
20
10.0946
30
8.2
0
VERTEX
10
8.32436
20
10.1534
30
8.2
0
VERTEX
10
8.32252
20
10.1828
30
8.2
0
VERTEX
10
8.31885
20
10.1975
30
8.2
0
VERTEX
10
8.31701
20
10.2048
30
8.2
0
VERTEX
10
8.31701
20
10.2085
30
8.2
0
VERTEX
10
8.30783
20
10.2213
30
8.2
0
VERTEX
10
8.29498
20
10.2342
30
8.2
0
VERTEX
10
8.29314
20
10.2415
30
8.2
0
VERTEX
10
8.28579
20
10.2452
30
8.2
0
VERTEX
10
8.28212
20
10.2526
30
8.2
0
VERTEX
10
8.27294
20
10.2599
30
8.2
0
VERTEX
10
8.2711
20
10.2673
30
8.2
0
VERTEX
10
8.2711
20
10.2709
30
8.2
0
VERTEX
10
8.26008
20
10.2838
30
8.2
0
VERTEX
10
8.24539
20
10.2948
30
8.2
0
VERTEX
10
8.2307
20
10.3022
30
8.2
0
VERTEX
10
8.22519
20
10.3077
30
8.2
0
VERTEX
10
8.21785
20
10.3095
30
8.2
0
VERTEX
10
8.2105
20
10.315
30
8.2
0
VERTEX
10
8.20683
20
10.3205
30
8.2
0
VERTEX
10
8.20683
20
10.3279
30
8.2
0
VERTEX
10
8.19397
20
10.3407
30
8.2
0
VERTEX
10
8.1903
20
10.3407
30
8.2
0
VERTEX
10
8.18296
20
10.3462
30
8.2
0
VERTEX
10
8.17745
20
10.3609
30
8.2
0
VERTEX
10
8.16459
20
10.3738
30
8.2
0
VERTEX
10
8.16092
20
10.3774
30
8.2
0
VERTEX
10
8.15725
20
10.3774
30
8.2
0
VERTEX
10
8.13337
20
10.405
30
8.2
0
VERTEX
10
8.12052
20
10.416
30
8.2
0
VERTEX
10
8.11317
20
10.4215
30
8.2
0
VERTEX
10
8.1095
20
10.427
30
8.2
0
VERTEX
10
8.09481
20
10.4344
30
8.2
0
VERTEX
10
8.08195
20
10.4454
30
8.2
0
VERTEX
10
8.07828
20
10.4491
30
8.2
0
VERTEX
10
8.07461
20
10.4491
30
8.2
0
VERTEX
10
8.07277
20
10.4527
30
8.2
0
VERTEX
10
8.0691
20
10.4527
30
8.2
0
VERTEX
10
8.05992
20
10.4582
30
8.2
0
VERTEX
10
8.04523
20
10.4601
30
8.2
0
VERTEX
10
8.01584
20
10.4564
30
8.2
0
VERTEX
10
8.00115
20
10.4546
30
8.2
0
VERTEX
10
7.99381
20
10.4564
30
8.2
0
VERTEX
10
7.99013
20
10.4601
30
8.2
0
VERTEX
10
7.97544
20
10.4601
30
8.2
0
VERTEX
10
7.9479
20
10.4711
30
8.2
0
VERTEX
10
7.94239
20
10.4766
30
8.2
0
VERTEX
10
7.9277
20
10.4803
30
8.2
0
VERTEX
10
7.92035
20
10.4858
30
8.2
0
VERTEX
10
7.91484
20
10.5005
30
8.2
0
VERTEX
10
7.90566
20
10.5133
30
8.2
0
VERTEX
10
7.90382
20
10.5207
30
8.2
0
VERTEX
10
7.89832
20
10.528
30
8.2
0
VERTEX
10
7.89464
20
10.5427
30
8.2
0
VERTEX
10
7.89097
20
10.5501
30
8.2
0
VERTEX
10
7.89097
20
10.5537
30
8.2
0
VERTEX
10
7.88546
20
10.5611
30
8.2
0
VERTEX
10
7.88362
20
10.5758
30
8.2
0
VERTEX
10
7.88362
20
10.5794
30
8.2
0
VERTEX
10
7.87995
20
10.5813
30
8.2
0
VERTEX
10
7.87444
20
10.596
30
8.2
0
VERTEX
10
7.87077
20
10.5996
30
8.2
0
VERTEX
10
7.87077
20
10.6033
30
8.2
0
VERTEX
10
7.8671
20
10.607
30
8.2
0
VERTEX
10
7.8671
20
10.6107
30
8.2
0
VERTEX
10
7.85608
20
10.6217
30
8.2
0
VERTEX
10
7.82853
20
10.6456
30
8.2
0
VERTEX
10
7.82302
20
10.6529
30
8.2
0
VERTEX
10
7.80833
20
10.6621
30
8.2
0
VERTEX
10
7.8065
20
10.6694
30
8.2
0
VERTEX
10
7.8065
20
10.6731
30
8.2
0
VERTEX
10
7.80099
20
10.6804
30
8.2
0
VERTEX
10
7.79915
20
10.6878
30
8.2
0
VERTEX
10
7.79548
20
10.6915
30
8.2
0
VERTEX
10
7.79548
20
10.6988
30
8.2
0
VERTEX
10
7.78813
20
10.7062
30
8.2
0
VERTEX
10
7.78262
20
10.7208
30
8.2
0
VERTEX
10
7.77711
20
10.7282
30
8.2
0
VERTEX
10
7.77344
20
10.7319
30
8.2
0
VERTEX
10
7.77344
20
10.7355
30
8.2
0
VERTEX
10
7.76609
20
10.741
30
8.2
0
VERTEX
10
7.75875
20
10.7557
30
8.2
0
VERTEX
10
7.75324
20
10.7851
30
8.2
0
VERTEX
10
7.75324
20
10.7888
30
8.2
0
VERTEX
10
7.74957
20
10.7925
30
8.2
0
VERTEX
10
7.74957
20
10.7961
30
8.2
0
VERTEX
10
7.73671
20
10.8108
30
8.2
0
VERTEX
10
7.71835
20
10.8365
30
8.2
0
VERTEX
10
7.71651
20
10.8439
30
8.2
0
VERTEX
10
7.711
20
10.8512
30
8.2
0
VERTEX
10
7.70917
20
10.8659
30
8.2
0
VERTEX
10
7.70917
20
10.8733
30
8.2
0
VERTEX
10
7.70549
20
10.8806
30
8.2
0
VERTEX
10
7.70549
20
10.91
30
8.2
0
VERTEX
10
7.69998
20
10.9394
30
8.2
0
VERTEX
10
7.69264
20
10.9541
30
8.2
0
VERTEX
10
7.68897
20
10.9559
30
8.2
0
VERTEX
10
7.68897
20
10.9596
30
8.2
0
VERTEX
10
7.68529
20
10.9633
30
8.2
0
VERTEX
10
7.68529
20
10.9669
30
8.2
0
VERTEX
10
7.68162
20
10.9688
30
8.2
0
VERTEX
10
7.67978
20
10.9761
30
8.2
0
VERTEX
10
7.65958
20
11.0037
30
8.2
0
VERTEX
10
7.65224
20
11.0092
30
8.2
0
VERTEX
10
7.64857
20
11.0165
30
8.2
0
VERTEX
10
7.64857
20
11.0202
30
8.2
0
VERTEX
10
7.64122
20
11.0257
30
8.2
0
VERTEX
10
7.64122
20
11.0294
30
8.2
0
VERTEX
10
7.63755
20
11.033
30
8.2
0
VERTEX
10
7.63387
20
11.033
30
8.2
0
VERTEX
10
7.62469
20
11.0477
30
8.2
0
VERTEX
10
7.61
20
11.0569
30
8.2
0
VERTEX
10
7.61
20
11.0606
30
8.2
0
VERTEX
10
7.60633
20
11.0643
30
8.2
0
VERTEX
10
7.59898
20
11.0624
30
8.2
0
VERTEX
10
7.59164
20
11.0679
30
8.2
0
VERTEX
10
7.59164
20
11.0716
30
8.2
0
VERTEX
10
7.58429
20
11.0771
30
8.2
0
VERTEX
10
7.57695
20
11.0918
30
8.2
0
VERTEX
10
7.57327
20
11.0918
30
8.2
0
VERTEX
10
7.56226
20
11.1065
30
8.2
0
VERTEX
10
7.55124
20
11.1175
30
8.2
0
VERTEX
10
7.54756
20
11.1175
30
8.2
0
VERTEX
10
7.52369
20
11.1451
30
8.2
0
VERTEX
10
7.51084
20
11.1579
30
8.2
0
VERTEX
10
7.49615
20
11.1634
30
8.2
0
VERTEX
10
7.48329
20
11.1726
30
8.2
0
VERTEX
10
7.47595
20
11.1726
30
8.2
0
VERTEX
10
7.4686
20
11.1579
30
8.2
0
VERTEX
10
7.46125
20
11.1524
30
8.2
0
VERTEX
10
7.45758
20
11.1524
30
8.2
0
VERTEX
10
7.44473
20
11.1414
30
8.2
0
VERTEX
10
7.44473
20
11.1377
30
8.2
0
VERTEX
10
7.43004
20
11.1304
30
8.2
0
VERTEX
10
7.42453
20
11.123
30
8.2
0
VERTEX
10
7.41902
20
11.1193
30
8.2
0
VERTEX
10
7.41534
20
11.1065
30
8.2
0
VERTEX
10
7.41167
20
11.0991
30
8.2
0
VERTEX
10
7.40065
20
11.09
30
8.2
0
VERTEX
10
7.39514
20
11.0845
30
8.2
0
VERTEX
10
7.3878
20
11.0826
30
8.2
0
VERTEX
10
7.37494
20
11.0679
30
8.2
0
VERTEX
10
7.3676
20
11.0624
30
8.2
0
VERTEX
10
7.36025
20
11.0606
30
8.2
0
VERTEX
10
7.35291
20
11.0551
30
8.2
0
VERTEX
10
7.34923
20
11.0477
30
8.2
0
VERTEX
10
7.34189
20
11.0441
30
8.2
0
VERTEX
10
7.33822
20
11.0441
30
8.2
0
VERTEX
10
7.33454
20
11.0404
30
8.2
0
VERTEX
10
7.32903
20
11.0257
30
8.2
0
VERTEX
10
7.31802
20
11.0128
30
8.2
0
VERTEX
10
7.31618
20
10.9835
30
8.2
0
VERTEX
10
7.31618
20
10.9816
30
8.2
0
SEQEND
0
ENDSEC
0
EOF
