0
SECTION
2
ENTITIES
0
POLYLINE
62
31
66
1
70
1
3
contour
0
VERTEX
10
6.84062
20
10.7811
30
9.6
0
VERTEX
10
6.85379
20
10.7284
30
9.6
0
VERTEX
10
6.86366
20
10.7021
30
9.6
0
VERTEX
10
6.88342
20
10.6823
30
9.6
0
VERTEX
10
6.89658
20
10.6757
30
9.6
0
VERTEX
10
6.89988
20
10.6625
30
9.6
0
VERTEX
10
6.92621
20
10.6428
30
9.6
0
VERTEX
10
6.97888
20
10.6165
30
9.6
0
VERTEX
10
7.00522
20
10.6033
30
9.6
0
VERTEX
10
7.01839
20
10.6
30
9.6
0
VERTEX
10
7.06776
20
10.5704
30
9.6
0
VERTEX
10
7.08093
20
10.5605
30
9.6
0
VERTEX
10
7.10727
20
10.5506
30
9.6
0
VERTEX
10
7.12044
20
10.5407
30
9.6
0
VERTEX
10
7.1336
20
10.5407
30
9.6
0
VERTEX
10
7.15335
20
10.521
30
9.6
0
VERTEX
10
7.16652
20
10.5144
30
9.6
0
VERTEX
10
7.17969
20
10.5012
30
9.6
0
VERTEX
10
7.18627
20
10.5012
30
9.6
0
VERTEX
10
7.20932
20
10.4782
30
9.6
0
VERTEX
10
7.22248
20
10.4683
30
9.6
0
VERTEX
10
7.23565
20
10.465
30
9.6
0
VERTEX
10
7.2554
20
10.442
30
9.6
0
VERTEX
10
7.28174
20
10.4255
30
9.6
0
VERTEX
10
7.29491
20
10.4157
30
9.6
0
VERTEX
10
7.40025
20
10.4124
30
9.6
0
VERTEX
10
7.42658
20
10.4091
30
9.6
0
VERTEX
10
7.45292
20
10.3992
30
9.6
0
VERTEX
10
7.47925
20
10.3959
30
9.6
0
VERTEX
10
7.50559
20
10.386
30
9.6
0
VERTEX
10
7.55826
20
10.386
30
9.6
0
VERTEX
10
7.61093
20
10.3992
30
9.6
0
VERTEX
10
7.6241
20
10.4025
30
9.6
0
VERTEX
10
7.63068
20
10.4025
30
9.6
0
VERTEX
10
7.63727
20
10.4091
30
9.6
0
VERTEX
10
7.68994
20
10.4222
30
9.6
0
VERTEX
10
7.71627
20
10.4321
30
9.6
0
VERTEX
10
7.72944
20
10.4321
30
9.6
0
VERTEX
10
7.73603
20
10.4321
30
9.6
0
VERTEX
10
7.7459
20
10.442
30
9.6
0
VERTEX
10
7.74919
20
10.4552
30
9.6
0
VERTEX
10
7.76565
20
10.4815
30
9.6
0
VERTEX
10
7.77224
20
10.5078
30
9.6
0
VERTEX
10
7.77553
20
10.521
30
9.6
0
VERTEX
10
7.77553
20
10.5276
30
9.6
0
VERTEX
10
7.78211
20
10.5342
30
9.6
0
VERTEX
10
7.78211
20
10.5473
30
9.6
0
VERTEX
10
7.7887
20
10.5605
30
9.6
0
VERTEX
10
7.7887
20
10.6132
30
9.6
0
VERTEX
10
7.7887
20
10.6263
30
9.6
0
VERTEX
10
7.78211
20
10.6395
30
9.6
0
VERTEX
10
7.77224
20
10.7448
30
9.6
0
VERTEX
10
7.75578
20
10.7975
30
9.6
0
VERTEX
10
7.75578
20
10.8107
30
9.6
0
VERTEX
10
7.74261
20
10.8239
30
9.6
0
VERTEX
10
7.72615
20
10.8502
30
9.6
0
VERTEX
10
7.70311
20
10.8732
30
9.6
0
VERTEX
10
7.68994
20
10.8798
30
9.6
0
VERTEX
10
7.68335
20
10.8798
30
9.6
0
VERTEX
10
7.66031
20
10.8963
30
9.6
0
VERTEX
10
7.63398
20
10.8963
30
9.6
0
VERTEX
10
7.62081
20
10.8996
30
9.6
0
VERTEX
10
7.61422
20
10.8996
30
9.6
0
VERTEX
10
7.60764
20
10.9061
30
9.6
0
VERTEX
10
7.55497
20
10.9061
30
9.6
0
VERTEX
10
7.52863
20
10.9061
30
9.6
0
VERTEX
10
7.5023
20
10.9127
30
9.6
0
VERTEX
10
7.44963
20
10.916
30
9.6
0
VERTEX
10
7.39696
20
10.9292
30
9.6
0
VERTEX
10
7.34429
20
10.9292
30
9.6
0
VERTEX
10
7.31795
20
10.9127
30
9.6
0
VERTEX
10
7.31795
20
10.8996
30
9.6
0
VERTEX
10
7.26857
20
10.8666
30
9.6
0
VERTEX
10
7.2159
20
10.8502
30
9.6
0
VERTEX
10
7.18957
20
10.8403
30
9.6
0
VERTEX
10
7.16323
20
10.8239
30
9.6
0
VERTEX
10
7.13689
20
10.8206
30
9.6
0
VERTEX
10
7.11056
20
10.8271
30
9.6
0
VERTEX
10
7.05789
20
10.8271
30
9.6
0
VERTEX
10
7.00522
20
10.8403
30
9.6
0
VERTEX
10
6.97888
20
10.8436
30
9.6
0
VERTEX
10
6.96571
20
10.8502
30
9.6
0
VERTEX
10
6.91304
20
10.8568
30
9.6
0
VERTEX
10
6.88671
20
10.8601
30
9.6
0
VERTEX
10
6.88012
20
10.8568
30
9.6
0
VERTEX
10
6.89
20
10.8502
30
9.6
0
VERTEX
10
6.86696
20
10.8337
30
9.6
0
VERTEX
10
6.8505
20
10.814
30
9.6
0
VERTEX
10
6.84062
20
10.8041
30
9.6
0
VERTEX
10
6.84062
20
10.7909
30
9.6
0
VERTEX
10
6.84062
20
10.7843
30
9.6
0
SEQEND
0
POLYLINE
62
224
66
1
70
1
3
mitochondrion
0
VERTEX
10
7.33591
20
10.7355
30
9.6
0
VERTEX
10
7.33869
20
10.691
30
9.6
0
VERTEX
10
7.33869
20
10.6688
30
9.6
0
VERTEX
10
7.34147
20
10.6465
30
9.6
0
VERTEX
10
7.34425
20
10.6354
30
9.6
0
VERTEX
10
7.34703
20
10.6298
30
9.6
0
VERTEX
10
7.34703
20
10.6271
30
9.6
0
VERTEX
10
7.35537
20
10.6173
30
9.6
0
VERTEX
10
7.35816
20
10.6118
30
9.6
0
VERTEX
10
7.36372
20
10.6062
30
9.6
0
VERTEX
10
7.3665
20
10.602
30
9.6
0
VERTEX
10
7.37623
20
10.5923
30
9.6
0
VERTEX
10
7.38179
20
10.5867
30
9.6
0
VERTEX
10
7.39153
20
10.5798
30
9.6
0
VERTEX
10
7.41377
20
10.5728
30
9.6
0
VERTEX
10
7.4249
20
10.5673
30
9.6
0
VERTEX
10
7.43602
20
10.5659
30
9.6
0
VERTEX
10
7.44158
20
10.5631
30
9.6
0
VERTEX
10
7.46383
20
10.5617
30
9.6
0
VERTEX
10
7.48607
20
10.5575
30
9.6
0
VERTEX
10
7.4972
20
10.5575
30
9.6
0
VERTEX
10
7.50832
20
10.5603
30
9.6
0
VERTEX
10
7.51527
20
10.5673
30
9.6
0
VERTEX
10
7.5264
20
10.57
30
9.6
0
VERTEX
10
7.53613
20
10.577
30
9.6
0
VERTEX
10
7.54169
20
10.5812
30
9.6
0
VERTEX
10
7.55282
20
10.5853
30
9.6
0
VERTEX
10
7.55838
20
10.5867
30
9.6
0
VERTEX
10
7.56116
20
10.5867
30
9.6
0
VERTEX
10
7.56533
20
10.5909
30
9.6
0
VERTEX
10
7.56811
20
10.5909
30
9.6
0
VERTEX
10
7.57228
20
10.5965
30
9.6
0
VERTEX
10
7.5834
20
10.6006
30
9.6
0
VERTEX
10
7.59314
20
10.609
30
9.6
0
VERTEX
10
7.59453
20
10.6201
30
9.6
0
VERTEX
10
7.5987
20
10.6257
30
9.6
0
VERTEX
10
7.60009
20
10.6479
30
9.6
0
VERTEX
10
7.59731
20
10.6924
30
9.6
0
VERTEX
10
7.59592
20
10.7035
30
9.6
0
VERTEX
10
7.59314
20
10.7091
30
9.6
0
VERTEX
10
7.59175
20
10.7313
30
9.6
0
VERTEX
10
7.58619
20
10.7411
30
9.6
0
VERTEX
10
7.5834
20
10.7466
30
9.6
0
VERTEX
10
7.58201
20
10.7578
30
9.6
0
VERTEX
10
7.57923
20
10.7633
30
9.6
0
VERTEX
10
7.57645
20
10.7661
30
9.6
0
VERTEX
10
7.57645
20
10.7717
30
9.6
0
VERTEX
10
7.57367
20
10.7772
30
9.6
0
VERTEX
10
7.57367
20
10.78
30
9.6
0
VERTEX
10
7.57089
20
10.7828
30
9.6
0
VERTEX
10
7.56255
20
10.805
30
9.6
0
VERTEX
10
7.55282
20
10.8162
30
9.6
0
VERTEX
10
7.54169
20
10.8231
30
9.6
0
VERTEX
10
7.53613
20
10.8259
30
9.6
0
VERTEX
10
7.53474
20
10.8287
30
9.6
0
VERTEX
10
7.52918
20
10.8301
30
9.6
0
VERTEX
10
7.51805
20
10.837
30
9.6
0
VERTEX
10
7.51527
20
10.8398
30
9.6
0
VERTEX
10
7.50971
20
10.8412
30
9.6
0
VERTEX
10
7.50415
20
10.8454
30
9.6
0
VERTEX
10
7.49303
20
10.8495
30
9.6
0
VERTEX
10
7.44853
20
10.8537
30
9.6
0
VERTEX
10
7.40404
20
10.8523
30
9.6
0
VERTEX
10
7.38179
20
10.8454
30
9.6
0
VERTEX
10
7.37623
20
10.8412
30
9.6
0
VERTEX
10
7.37345
20
10.8398
30
9.6
0
VERTEX
10
7.36928
20
10.8301
30
9.6
0
VERTEX
10
7.36094
20
10.8231
30
9.6
0
VERTEX
10
7.35398
20
10.812
30
9.6
0
VERTEX
10
7.34703
20
10.8036
30
9.6
0
VERTEX
10
7.3373
20
10.7814
30
9.6
0
VERTEX
10
7.33591
20
10.7369
30
9.6
0
SEQEND
0
POLYLINE
62
227
66
1
70
1
3
endoplasmic_reticulum
0
VERTEX
10
7.53637
20
10.5075
30
9.6
0
VERTEX
10
7.53906
20
10.5003
30
9.6
0
VERTEX
10
7.53906
20
10.4932
30
9.6
0
VERTEX
10
7.53995
20
10.4896
30
9.6
0
VERTEX
10
7.53995
20
10.4878
30
9.6
0
VERTEX
10
7.54444
20
10.4815
30
9.6
0
VERTEX
10
7.54713
20
10.4743
30
9.6
0
VERTEX
10
7.5525
20
10.4681
30
9.6
0
VERTEX
10
7.55968
20
10.4636
30
9.6
0
VERTEX
10
7.57402
20
10.4636
30
9.6
0
VERTEX
10
7.58747
20
10.4726
30
9.6
0
VERTEX
10
7.59106
20
10.4752
30
9.6
0
VERTEX
10
7.59285
20
10.477
30
9.6
0
VERTEX
10
7.59464
20
10.477
30
9.6
0
VERTEX
10
7.60809
20
10.4896
30
9.6
0
VERTEX
10
7.61526
20
10.495
30
9.6
0
VERTEX
10
7.61526
20
10.4968
30
9.6
0
VERTEX
10
7.61706
20
10.4968
30
9.6
0
VERTEX
10
7.62154
20
10.5021
30
9.6
0
VERTEX
10
7.62244
20
10.5039
30
9.6
0
VERTEX
10
7.62423
20
10.5039
30
9.6
0
VERTEX
10
7.62602
20
10.5075
30
9.6
0
VERTEX
10
7.62961
20
10.5102
30
9.6
0
VERTEX
10
7.62961
20
10.512
30
9.6
0
VERTEX
10
7.63499
20
10.5192
30
9.6
0
VERTEX
10
7.63499
20
10.5263
30
9.6
0
VERTEX
10
7.63319
20
10.5335
30
9.6
0
VERTEX
10
7.6305
20
10.5362
30
9.6
0
VERTEX
10
7.61706
20
10.5425
30
9.6
0
VERTEX
10
7.61347
20
10.5434
30
9.6
0
VERTEX
10
7.58478
20
10.5362
30
9.6
0
VERTEX
10
7.57761
20
10.5362
30
9.6
0
VERTEX
10
7.57044
20
10.5326
30
9.6
0
VERTEX
10
7.55609
20
10.5281
30
9.6
0
VERTEX
10
7.5543
20
10.5281
30
9.6
0
VERTEX
10
7.54713
20
10.5237
30
9.6
0
VERTEX
10
7.53726
20
10.512
30
9.6
0
VERTEX
10
7.53637
20
10.5084
30
9.6
0
SEQEND
0
POLYLINE
62
227
66
1
70
1
3
endoplasmic_reticulum
0
VERTEX
10
7.09527
20
10.6429
30
9.6
0
VERTEX
10
7.09616
20
10.6357
30
9.6
0
VERTEX
10
7.09616
20
10.6321
30
9.6
0
VERTEX
10
7.09975
20
10.625
30
9.6
0
VERTEX
10
7.11409
20
10.6232
30
9.6
0
VERTEX
10
7.12127
20
10.6223
30
9.6
0
VERTEX
10
7.12844
20
10.6232
30
9.6
0
VERTEX
10
7.13023
20
10.6232
30
9.6
0
VERTEX
10
7.13202
20
10.6268
30
9.6
0
VERTEX
10
7.13202
20
10.6286
30
9.6
0
VERTEX
10
7.13382
20
10.6295
30
9.6
0
VERTEX
10
7.13382
20
10.6366
30
9.6
0
VERTEX
10
7.13113
20
10.6438
30
9.6
0
VERTEX
10
7.12665
20
10.6501
30
9.6
0
VERTEX
10
7.12037
20
10.6555
30
9.6
0
VERTEX
10
7.11678
20
10.6572
30
9.6
0
VERTEX
10
7.11499
20
10.6572
30
9.6
0
VERTEX
10
7.1132
20
10.659
30
9.6
0
VERTEX
10
7.1114
20
10.659
30
9.6
0
VERTEX
10
7.10782
20
10.6617
30
9.6
0
VERTEX
10
7.10602
20
10.6626
30
9.6
0
VERTEX
10
7.10065
20
10.6555
30
9.6
0
VERTEX
10
7.09706
20
10.6519
30
9.6
0
VERTEX
10
7.09527
20
10.6483
30
9.6
0
VERTEX
10
7.09527
20
10.6447
30
9.6
0
VERTEX
10
7.09527
20
10.6438
30
9.6
0
SEQEND
0
POLYLINE
62
227
66
1
70
1
3
endoplasmic_reticulum
0
VERTEX
10
7.10602
20
10.7155
30
9.6
0
VERTEX
10
7.10782
20
10.7083
30
9.6
0
VERTEX
10
7.1123
20
10.7012
30
9.6
0
VERTEX
10
7.11947
20
10.6949
30
9.6
0
VERTEX
10
7.12396
20
10.6886
30
9.6
0
VERTEX
10
7.12575
20
10.685
30
9.6
0
VERTEX
10
7.12754
20
10.6841
30
9.6
0
VERTEX
10
7.12754
20
10.6823
30
9.6
0
VERTEX
10
7.13113
20
10.6788
30
9.6
0
VERTEX
10
7.14458
20
10.6707
30
9.6
0
VERTEX
10
7.14637
20
10.6689
30
9.6
0
VERTEX
10
7.14816
20
10.6689
30
9.6
0
VERTEX
10
7.15085
20
10.6653
30
9.6
0
VERTEX
10
7.15444
20
10.6644
30
9.6
0
VERTEX
10
7.16161
20
10.6599
30
9.6
0
VERTEX
10
7.17596
20
10.6581
30
9.6
0
VERTEX
10
7.17954
20
10.6581
30
9.6
0
VERTEX
10
7.18133
20
10.659
30
9.6
0
VERTEX
10
7.18223
20
10.6626
30
9.6
0
VERTEX
10
7.18492
20
10.6662
30
9.6
0
VERTEX
10
7.18671
20
10.6734
30
9.6
0
VERTEX
10
7.18761
20
10.677
30
9.6
0
VERTEX
10
7.19299
20
10.6841
30
9.6
0
VERTEX
10
7.19837
20
10.6895
30
9.6
0
VERTEX
10
7.20195
20
10.6904
30
9.6
0
VERTEX
10
7.20375
20
10.6976
30
9.6
0
VERTEX
10
7.20733
20
10.7048
30
9.6
0
VERTEX
10
7.21002
20
10.7066
30
9.6
0
VERTEX
10
7.2154
20
10.7128
30
9.6
0
VERTEX
10
7.22258
20
10.7191
30
9.6
0
VERTEX
10
7.22616
20
10.7209
30
9.6
0
VERTEX
10
7.22795
20
10.7209
30
9.6
0
VERTEX
10
7.23513
20
10.7272
30
9.6
0
VERTEX
10
7.2423
20
10.7317
30
9.6
0
VERTEX
10
7.24409
20
10.7352
30
9.6
0
VERTEX
10
7.24768
20
10.7379
30
9.6
0
VERTEX
10
7.26113
20
10.7442
30
9.6
0
VERTEX
10
7.26471
20
10.746
30
9.6
0
VERTEX
10
7.2683
20
10.746
30
9.6
0
VERTEX
10
7.27099
20
10.7487
30
9.6
0
VERTEX
10
7.27458
20
10.7496
30
9.6
0
VERTEX
10
7.27637
20
10.7496
30
9.6
0
VERTEX
10
7.28085
20
10.7559
30
9.6
0
VERTEX
10
7.28264
20
10.7559
30
9.6
0
VERTEX
10
7.28892
20
10.7621
30
9.6
0
VERTEX
10
7.29251
20
10.763
30
9.6
0
VERTEX
10
7.29878
20
10.7693
30
9.6
0
VERTEX
10
7.30595
20
10.7729
30
9.6
0
VERTEX
10
7.31044
20
10.7801
30
9.6
0
VERTEX
10
7.31133
20
10.7837
30
9.6
0
VERTEX
10
7.31402
20
10.7863
30
9.6
0
VERTEX
10
7.31313
20
10.7935
30
9.6
0
VERTEX
10
7.28444
20
10.7935
30
9.6
0
VERTEX
10
7.27726
20
10.7926
30
9.6
0
VERTEX
10
7.27368
20
10.7899
30
9.6
0
VERTEX
10
7.26651
20
10.7881
30
9.6
0
VERTEX
10
7.26292
20
10.789
30
9.6
0
VERTEX
10
7.25933
20
10.7881
30
9.6
0
VERTEX
10
7.25844
20
10.7846
30
9.6
0
VERTEX
10
7.25126
20
10.7792
30
9.6
0
VERTEX
10
7.24768
20
10.7783
30
9.6
0
VERTEX
10
7.2414
20
10.7738
30
9.6
0
VERTEX
10
7.23961
20
10.772
30
9.6
0
VERTEX
10
7.23782
20
10.772
30
9.6
0
VERTEX
10
7.23423
20
10.7693
30
9.6
0
VERTEX
10
7.22706
20
10.7675
30
9.6
0
VERTEX
10
7.22347
20
10.7648
30
9.6
0
VERTEX
10
7.2163
20
10.7621
30
9.6
0
VERTEX
10
7.21451
20
10.7621
30
9.6
0
VERTEX
10
7.20106
20
10.7505
30
9.6
0
VERTEX
10
7.19658
20
10.746
30
9.6
0
VERTEX
10
7.1894
20
10.7415
30
9.6
0
VERTEX
10
7.17506
20
10.7352
30
9.6
0
VERTEX
10
7.16161
20
10.7317
30
9.6
0
VERTEX
10
7.13292
20
10.729
30
9.6
0
VERTEX
10
7.12575
20
10.729
30
9.6
0
VERTEX
10
7.11858
20
10.7272
30
9.6
0
VERTEX
10
7.11499
20
10.7263
30
9.6
0
VERTEX
10
7.1114
20
10.7236
30
9.6
0
VERTEX
10
7.10961
20
10.7227
30
9.6
0
VERTEX
10
7.10961
20
10.7209
30
9.6
0
VERTEX
10
7.10602
20
10.7182
30
9.6
0
VERTEX
10
7.10602
20
10.7164
30
9.6
0
SEQEND
0
ENDSEC
0
EOF
