0
SECTION
2
ENTITIES
0
POLYLINE
62
31
66
1
70
1
3
contour
0
VERTEX
10
8.69432
20
8.67215
30
4.72
0
VERTEX
10
8.70763
20
8.63667
30
4.72
0
VERTEX
10
8.73645
20
8.60119
30
4.72
0
VERTEX
10
8.74089
20
8.59233
30
4.72
0
VERTEX
10
8.75641
20
8.5768
30
4.72
0
VERTEX
10
8.76085
20
8.57015
30
4.72
0
VERTEX
10
8.76971
20
8.56128
30
4.72
0
VERTEX
10
8.77858
20
8.54354
30
4.72
0
VERTEX
10
8.78745
20
8.53689
30
4.72
0
VERTEX
10
8.79632
20
8.5258
30
4.72
0
VERTEX
10
8.8318
20
8.5125
30
4.72
0
VERTEX
10
8.84067
20
8.5125
30
4.72
0
VERTEX
10
8.84511
20
8.50806
30
4.72
0
VERTEX
10
8.86284
20
8.50363
30
4.72
0
VERTEX
10
8.9338
20
8.50806
30
4.72
0
VERTEX
10
8.96928
20
8.51028
30
4.72
0
VERTEX
10
8.98702
20
8.51028
30
4.72
0
VERTEX
10
8.99145
20
8.51028
30
4.72
0
VERTEX
10
8.99589
20
8.51472
30
4.72
0
VERTEX
10
9.03137
20
8.51693
30
4.72
0
VERTEX
10
9.0491
20
8.51693
30
4.72
0
VERTEX
10
9.05797
20
8.51472
30
4.72
0
VERTEX
10
9.07571
20
8.52137
30
4.72
0
VERTEX
10
9.07571
20
8.5258
30
4.72
0
VERTEX
10
9.11119
20
8.55019
30
4.72
0
VERTEX
10
9.12671
20
8.56572
30
4.72
0
VERTEX
10
9.14445
20
8.57459
30
4.72
0
VERTEX
10
9.17549
20
8.60341
30
4.72
0
VERTEX
10
9.19323
20
8.61893
30
4.72
0
VERTEX
10
9.2021
20
8.62559
30
4.72
0
VERTEX
10
9.20654
20
8.62559
30
4.72
0
VERTEX
10
9.22428
20
8.63667
30
4.72
0
VERTEX
10
9.23315
20
8.63889
30
4.72
0
VERTEX
10
9.24645
20
8.65219
30
4.72
0
VERTEX
10
9.25532
20
8.65441
30
4.72
0
VERTEX
10
9.26862
20
8.66993
30
4.72
0
VERTEX
10
9.27749
20
8.67659
30
4.72
0
VERTEX
10
9.27749
20
8.68102
30
4.72
0
VERTEX
10
9.34845
20
8.67437
30
4.72
0
VERTEX
10
9.41941
20
8.66328
30
4.72
0
VERTEX
10
9.45488
20
8.66328
30
4.72
0
VERTEX
10
9.47262
20
8.66106
30
4.72
0
VERTEX
10
9.48149
20
8.66106
30
4.72
0
VERTEX
10
9.49036
20
8.65663
30
4.72
0
VERTEX
10
9.56132
20
8.66106
30
4.72
0
VERTEX
10
9.57906
20
8.6655
30
4.72
0
VERTEX
10
9.58793
20
8.66993
30
4.72
0
VERTEX
10
9.59236
20
8.67437
30
4.72
0
VERTEX
10
9.60123
20
8.67659
30
4.72
0
VERTEX
10
9.61675
20
8.69211
30
4.72
0
VERTEX
10
9.61897
20
8.76306
30
4.72
0
VERTEX
10
9.61897
20
8.7808
30
4.72
0
VERTEX
10
9.6234
20
8.79854
30
4.72
0
VERTEX
10
9.62784
20
8.80298
30
4.72
0
VERTEX
10
9.62784
20
8.81185
30
4.72
0
VERTEX
10
9.63227
20
8.81406
30
4.72
0
VERTEX
10
9.63227
20
8.82293
30
4.72
0
VERTEX
10
9.63893
20
8.8318
30
4.72
0
VERTEX
10
9.64336
20
8.8318
30
4.72
0
VERTEX
10
9.65888
20
8.84732
30
4.72
0
VERTEX
10
9.66775
20
8.85398
30
4.72
0
VERTEX
10
9.67219
20
8.85841
30
4.72
0
VERTEX
10
9.68106
20
8.86063
30
4.72
0
VERTEX
10
9.68549
20
8.86063
30
4.72
0
VERTEX
10
9.69214
20
8.86728
30
4.72
0
VERTEX
10
9.72762
20
8.86728
30
4.72
0
VERTEX
10
9.74536
20
8.86728
30
4.72
0
VERTEX
10
9.75423
20
8.86506
30
4.72
0
VERTEX
10
9.7631
20
8.85841
30
4.72
0
VERTEX
10
9.78084
20
8.85398
30
4.72
0
VERTEX
10
9.78971
20
8.85176
30
4.72
0
VERTEX
10
9.79414
20
8.84732
30
4.72
0
VERTEX
10
9.81188
20
8.84289
30
4.72
0
VERTEX
10
9.82075
20
8.84067
30
4.72
0
VERTEX
10
9.83627
20
8.82958
30
4.72
0
VERTEX
10
9.87175
20
8.8185
30
4.72
0
VERTEX
10
9.87618
20
8.8185
30
4.72
0
VERTEX
10
9.89392
20
8.80519
30
4.72
0
VERTEX
10
9.91166
20
8.79632
30
4.72
0
VERTEX
10
9.92053
20
8.78967
30
4.72
0
VERTEX
10
9.92497
20
8.78967
30
4.72
0
VERTEX
10
9.93384
20
8.78302
30
4.72
0
VERTEX
10
9.95158
20
8.77858
30
4.72
0
VERTEX
10
9.95601
20
8.77415
30
4.72
0
VERTEX
10
9.96488
20
8.77415
30
4.72
0
VERTEX
10
9.97375
20
8.76971
30
4.72
0
VERTEX
10
9.98262
20
8.76085
30
4.72
0
VERTEX
10
9.98705
20
8.76085
30
4.72
0
VERTEX
10
9.98927
20
8.75641
30
4.72
0
VERTEX
10
9.99814
20
8.75419
30
4.72
0
VERTEX
10
10.0026
20
8.75419
30
4.72
0
VERTEX
10
10.0114
20
8.74754
30
4.72
0
VERTEX
10
10.0469
20
8.73867
30
4.72
0
VERTEX
10
10.0824
20
8.74089
30
4.72
0
VERTEX
10
10.1179
20
8.74754
30
4.72
0
VERTEX
10
10.1356
20
8.74976
30
4.72
0
VERTEX
10
10.1445
20
8.75419
30
4.72
0
VERTEX
10
10.2154
20
8.76528
30
4.72
0
VERTEX
10
10.2199
20
8.76528
30
4.72
0
VERTEX
10
10.2287
20
8.77193
30
4.72
0
VERTEX
10
10.2465
20
8.77193
30
4.72
0
VERTEX
10
10.2509
20
8.77193
30
4.72
0
VERTEX
10
10.2576
20
8.77858
30
4.72
0
VERTEX
10
10.2931
20
8.78524
30
4.72
0
VERTEX
10
10.3019
20
8.78967
30
4.72
0
VERTEX
10
10.3064
20
8.79411
30
4.72
0
VERTEX
10
10.3152
20
8.79632
30
4.72
0
VERTEX
10
10.3307
20
8.81185
30
4.72
0
VERTEX
10
10.3352
20
8.81185
30
4.72
0
VERTEX
10
10.3507
20
8.82293
30
4.72
0
VERTEX
10
10.3596
20
8.82515
30
4.72
0
VERTEX
10
10.3596
20
8.82958
30
4.72
0
VERTEX
10
10.3751
20
8.84511
30
4.72
0
VERTEX
10
10.3862
20
8.86284
30
4.72
0
VERTEX
10
10.4017
20
8.89832
30
4.72
0
VERTEX
10
10.3995
20
8.9338
30
4.72
0
VERTEX
10
10.3951
20
8.95154
30
4.72
0
VERTEX
10
10.3928
20
8.96041
30
4.72
0
VERTEX
10
10.3684
20
8.99367
30
4.72
0
VERTEX
10
10.3507
20
9.01141
30
4.72
0
VERTEX
10
10.333
20
9.02471
30
4.72
0
VERTEX
10
10.3152
20
9.02915
30
4.72
0
VERTEX
10
10.2797
20
9.02915
30
4.72
0
VERTEX
10
10.2709
20
9.02915
30
4.72
0
VERTEX
10
10.2664
20
9.02915
30
4.72
0
VERTEX
10
10.2598
20
9.0358
30
4.72
0
VERTEX
10
10.2421
20
9.03802
30
4.72
0
VERTEX
10
10.2243
20
9.04467
30
4.72
0
VERTEX
10
10.1888
20
9.05132
30
4.72
0
VERTEX
10
10.18
20
9.05576
30
4.72
0
VERTEX
10
10.1711
20
9.06463
30
4.72
0
VERTEX
10
10.1667
20
9.06463
30
4.72
0
VERTEX
10
10.1489
20
9.07793
30
4.72
0
VERTEX
10
10.1134
20
9.0868
30
4.72
0
VERTEX
10
10.078
20
9.08902
30
4.72
0
VERTEX
10
10.0602
20
9.08236
30
4.72
0
VERTEX
10
10.0514
20
9.08236
30
4.72
0
VERTEX
10
10.0181
20
9.06684
30
4.72
0
VERTEX
10
10.0159
20
9.06241
30
4.72
0
VERTEX
10
10.007
20
9.06019
30
4.72
0
VERTEX
10
9.99814
20
9.05132
30
4.72
0
VERTEX
10
9.96488
20
9.02693
30
4.72
0
VERTEX
10
9.93162
20
9.00697
30
4.72
0
VERTEX
10
9.9161
20
8.99589
30
4.72
0
VERTEX
10
9.91388
20
8.99145
30
4.72
0
VERTEX
10
9.90501
20
8.98924
30
4.72
0
VERTEX
10
9.89836
20
8.98258
30
4.72
0
VERTEX
10
9.89392
20
8.98258
30
4.72
0
VERTEX
10
9.88949
20
8.97815
30
4.72
0
VERTEX
10
9.88505
20
8.97815
30
4.72
0
VERTEX
10
9.88062
20
8.97371
30
4.72
0
VERTEX
10
9.87618
20
8.97371
30
4.72
0
VERTEX
10
9.86732
20
8.96706
30
4.72
0
VERTEX
10
9.86288
20
8.96706
30
4.72
0
VERTEX
10
9.85845
20
8.96263
30
4.72
0
VERTEX
10
9.85401
20
8.96263
30
4.72
0
VERTEX
10
9.83849
20
8.95154
30
4.72
0
VERTEX
10
9.80301
20
8.93824
30
4.72
0
VERTEX
10
9.79414
20
8.93824
30
4.72
0
VERTEX
10
9.78527
20
8.94267
30
4.72
0
VERTEX
10
9.76753
20
8.94267
30
4.72
0
VERTEX
10
9.74979
20
8.9471
30
4.72
0
VERTEX
10
9.74536
20
8.9471
30
4.72
0
VERTEX
10
9.74092
20
8.95154
30
4.72
0
VERTEX
10
9.73206
20
8.95376
30
4.72
0
VERTEX
10
9.71432
20
8.96706
30
4.72
0
VERTEX
10
9.69658
20
8.97593
30
4.72
0
VERTEX
10
9.68993
20
8.98258
30
4.72
0
VERTEX
10
9.68549
20
8.98258
30
4.72
0
VERTEX
10
9.65445
20
9.00476
30
4.72
0
VERTEX
10
9.65001
20
9.00919
30
4.72
0
VERTEX
10
9.64114
20
9.01141
30
4.72
0
VERTEX
10
9.63671
20
9.01806
30
4.72
0
VERTEX
10
9.61897
20
9.03358
30
4.72
0
VERTEX
10
9.6101
20
9.03802
30
4.72
0
VERTEX
10
9.57906
20
9.06906
30
4.72
0
VERTEX
10
9.56132
20
9.08458
30
4.72
0
VERTEX
10
9.54801
20
9.1001
30
4.72
0
VERTEX
10
9.54136
20
9.10897
30
4.72
0
VERTEX
10
9.52362
20
9.12006
30
4.72
0
VERTEX
10
9.48814
20
9.12228
30
4.72
0
VERTEX
10
9.47927
20
9.11784
30
4.72
0
VERTEX
10
9.4438
20
9.11341
30
4.72
0
VERTEX
10
9.40832
20
9.11341
30
4.72
0
VERTEX
10
9.39058
20
9.11119
30
4.72
0
VERTEX
10
9.38171
20
9.11119
30
4.72
0
VERTEX
10
9.36397
20
9.10454
30
4.72
0
VERTEX
10
9.34623
20
9.10454
30
4.72
0
VERTEX
10
9.3418
20
9.10454
30
4.72
0
VERTEX
10
9.33736
20
9.1001
30
4.72
0
VERTEX
10
9.31962
20
9.09789
30
4.72
0
VERTEX
10
9.28415
20
9.08458
30
4.72
0
VERTEX
10
9.26641
20
9.08015
30
4.72
0
VERTEX
10
9.24867
20
9.07128
30
4.72
0
VERTEX
10
9.17771
20
9.06019
30
4.72
0
VERTEX
10
9.10676
20
9.06019
30
4.72
0
VERTEX
10
9.08902
20
9.06019
30
4.72
0
VERTEX
10
9.07128
20
9.05576
30
4.72
0
VERTEX
10
9.06241
20
9.05132
30
4.72
0
VERTEX
10
9.02693
20
9.0491
30
4.72
0
VERTEX
10
9.0225
20
9.04467
30
4.72
0
VERTEX
10
8.98702
20
9.04245
30
4.72
0
VERTEX
10
8.96928
20
9.03137
30
4.72
0
VERTEX
10
8.96484
20
9.02693
30
4.72
0
VERTEX
10
8.96041
20
9.02693
30
4.72
0
VERTEX
10
8.94932
20
9.00919
30
4.72
0
VERTEX
10
8.93824
20
8.97371
30
4.72
0
VERTEX
10
8.93824
20
8.90276
30
4.72
0
VERTEX
10
8.93602
20
8.88502
30
4.72
0
VERTEX
10
8.93602
20
8.88058
30
4.72
0
VERTEX
10
8.93158
20
8.87615
30
4.72
0
VERTEX
10
8.93158
20
8.86728
30
4.72
0
VERTEX
10
8.90941
20
8.83624
30
4.72
0
VERTEX
10
8.90941
20
8.8318
30
4.72
0
VERTEX
10
8.88058
20
8.80298
30
4.72
0
VERTEX
10
8.87171
20
8.79632
30
4.72
0
VERTEX
10
8.87171
20
8.79189
30
4.72
0
VERTEX
10
8.85619
20
8.77637
30
4.72
0
VERTEX
10
8.82071
20
8.75419
30
4.72
0
VERTEX
10
8.80519
20
8.74311
30
4.72
0
VERTEX
10
8.78745
20
8.73645
30
4.72
0
VERTEX
10
8.7165
20
8.7298
30
4.72
0
VERTEX
10
8.70763
20
8.7298
30
4.72
0
VERTEX
10
8.70098
20
8.72315
30
4.72
0
VERTEX
10
8.69876
20
8.71428
30
4.72
0
VERTEX
10
8.69876
20
8.70985
30
4.72
0
VERTEX
10
8.69432
20
8.70541
30
4.72
0
VERTEX
10
8.69432
20
8.68767
30
4.72
0
VERTEX
10
8.69432
20
8.6788
30
4.72
0
VERTEX
10
8.69432
20
8.67437
30
4.72
0
SEQEND
0
POLYLINE
62
31
66
1
70
1
3
contour
0
VERTEX
10
8.60226
20
9.21095
30
4.72
0
VERTEX
10
8.60463
20
9.13516
30
4.72
0
VERTEX
10
8.60699
20
9.09727
30
4.72
0
VERTEX
10
8.6141
20
9.07832
30
4.72
0
VERTEX
10
8.61647
20
9.06884
30
4.72
0
VERTEX
10
8.63068
20
9.0499
30
4.72
0
VERTEX
10
8.64963
20
9.04279
30
4.72
0
VERTEX
10
8.65673
20
9.03805
30
4.72
0
VERTEX
10
8.69463
20
9.03805
30
4.72
0
VERTEX
10
8.73252
20
9.04279
30
4.72
0
VERTEX
10
8.742
20
9.04753
30
4.72
0
VERTEX
10
8.77989
20
9.0499
30
4.72
0
VERTEX
10
8.79884
20
9.0499
30
4.72
0
VERTEX
10
8.80831
20
9.05463
30
4.72
0
VERTEX
10
8.82726
20
9.057
30
4.72
0
VERTEX
10
8.84621
20
9.06411
30
4.72
0
VERTEX
10
8.85568
20
9.06648
30
4.72
0
VERTEX
10
8.89358
20
9.08779
30
4.72
0
VERTEX
10
8.91016
20
9.0949
30
4.72
0
VERTEX
10
8.94805
20
9.102
30
4.72
0
VERTEX
10
8.95516
20
9.10911
30
4.72
0
VERTEX
10
8.95753
20
9.11384
30
4.72
0
VERTEX
10
8.967
20
9.11621
30
4.72
0
VERTEX
10
8.98358
20
9.13279
30
4.72
0
VERTEX
10
8.99305
20
9.13753
30
4.72
0
VERTEX
10
8.99542
20
9.14227
30
4.72
0
VERTEX
10
9.00016
20
9.14227
30
4.72
0
VERTEX
10
9.0049
20
9.147
30
4.72
0
VERTEX
10
9.00963
20
9.147
30
4.72
0
VERTEX
10
9.02621
20
9.15885
30
4.72
0
VERTEX
10
9.03569
20
9.16358
30
4.72
0
VERTEX
10
9.05226
20
9.18016
30
4.72
0
VERTEX
10
9.05463
20
9.1849
30
4.72
0
VERTEX
10
9.05937
20
9.1849
30
4.72
0
VERTEX
10
9.08069
20
9.21806
30
4.72
0
VERTEX
10
9.0949
20
9.237
30
4.72
0
VERTEX
10
9.09963
20
9.24411
30
4.72
0
VERTEX
10
9.10437
20
9.24648
30
4.72
0
VERTEX
10
9.10437
20
9.25122
30
4.72
0
VERTEX
10
9.10911
20
9.25595
30
4.72
0
VERTEX
10
9.10911
20
9.26069
30
4.72
0
VERTEX
10
9.11384
20
9.26306
30
4.72
0
VERTEX
10
9.11621
20
9.28201
30
4.72
0
VERTEX
10
9.11384
20
9.30095
30
4.72
0
VERTEX
10
9.11148
20
9.31043
30
4.72
0
VERTEX
10
9.09963
20
9.32937
30
4.72
0
VERTEX
10
9.0949
20
9.33885
30
4.72
0
VERTEX
10
9.07832
20
9.35069
30
4.72
0
VERTEX
10
9.07358
20
9.35543
30
4.72
0
VERTEX
10
9.06411
20
9.3578
30
4.72
0
VERTEX
10
9.04516
20
9.37201
30
4.72
0
VERTEX
10
9.03569
20
9.37201
30
4.72
0
VERTEX
10
8.99779
20
9.39806
30
4.72
0
VERTEX
10
8.99305
20
9.4028
30
4.72
0
VERTEX
10
8.97411
20
9.40753
30
4.72
0
VERTEX
10
8.96463
20
9.4099
30
4.72
0
VERTEX
10
8.95989
20
9.41464
30
4.72
0
VERTEX
10
8.95042
20
9.41701
30
4.72
0
VERTEX
10
8.94332
20
9.42411
30
4.72
0
VERTEX
10
8.93384
20
9.42411
30
4.72
0
VERTEX
10
8.91489
20
9.43359
30
4.72
0
VERTEX
10
8.89595
20
9.43596
30
4.72
0
VERTEX
10
8.88647
20
9.43596
30
4.72
0
VERTEX
10
8.877
20
9.44069
30
4.72
0
VERTEX
10
8.87226
20
9.44069
30
4.72
0
VERTEX
10
8.86279
20
9.4478
30
4.72
0
VERTEX
10
8.84384
20
9.45017
30
4.72
0
VERTEX
10
8.8391
20
9.45017
30
4.72
0
VERTEX
10
8.83673
20
9.44069
30
4.72
0
VERTEX
10
8.76094
20
9.44306
30
4.72
0
VERTEX
10
8.742
20
9.44069
30
4.72
0
VERTEX
10
8.73252
20
9.43832
30
4.72
0
VERTEX
10
8.72779
20
9.43359
30
4.72
0
VERTEX
10
8.68989
20
9.42175
30
4.72
0
VERTEX
10
8.67094
20
9.41464
30
4.72
0
VERTEX
10
8.65673
20
9.39569
30
4.72
0
VERTEX
10
8.65436
20
9.38859
30
4.72
0
VERTEX
10
8.64963
20
9.38622
30
4.72
0
VERTEX
10
8.63542
20
9.34832
30
4.72
0
VERTEX
10
8.62831
20
9.32937
30
4.72
0
VERTEX
10
8.62594
20
9.3199
30
4.72
0
VERTEX
10
8.62831
20
9.31043
30
4.72
0
VERTEX
10
8.62831
20
9.30569
30
4.72
0
VERTEX
10
8.6212
20
9.29858
30
4.72
0
VERTEX
10
8.61884
20
9.28911
30
4.72
0
VERTEX
10
8.61884
20
9.28437
30
4.72
0
VERTEX
10
8.6141
20
9.28201
30
4.72
0
VERTEX
10
8.61173
20
9.26306
30
4.72
0
VERTEX
10
8.60936
20
9.25358
30
4.72
0
VERTEX
10
8.60936
20
9.24885
30
4.72
0
VERTEX
10
8.60463
20
9.24411
30
4.72
0
VERTEX
10
8.60226
20
9.22516
30
4.72
0
VERTEX
10
8.60226
20
9.21569
30
4.72
0
VERTEX
10
8.60226
20
9.21332
30
4.72
0
SEQEND
0
POLYLINE
62
224
66
1
70
1
3
mitochondrion
0
VERTEX
10
9.25192
20
8.85426
30
4.72
0
VERTEX
10
9.25609
20
8.83201
30
4.72
0
VERTEX
10
9.25609
20
8.82645
30
4.72
0
VERTEX
10
9.26304
20
8.8042
30
4.72
0
VERTEX
10
9.26722
20
8.79308
30
4.72
0
VERTEX
10
9.27139
20
8.78752
30
4.72
0
VERTEX
10
9.27556
20
8.77639
30
4.72
0
VERTEX
10
9.29363
20
8.75971
30
4.72
0
VERTEX
10
9.30476
20
8.75137
30
4.72
0
VERTEX
10
9.31032
20
8.7458
30
4.72
0
VERTEX
10
9.32978
20
8.7319
30
4.72
0
VERTEX
10
9.35203
20
8.72912
30
4.72
0
VERTEX
10
9.36316
20
8.72634
30
4.72
0
VERTEX
10
9.40765
20
8.72634
30
4.72
0
VERTEX
10
9.41321
20
8.72634
30
4.72
0
VERTEX
10
9.41877
20
8.72912
30
4.72
0
VERTEX
10
9.44102
20
8.7319
30
4.72
0
VERTEX
10
9.44241
20
8.73468
30
4.72
0
VERTEX
10
9.46466
20
8.74024
30
4.72
0
VERTEX
10
9.47022
20
8.74024
30
4.72
0
VERTEX
10
9.49246
20
8.75415
30
4.72
0
VERTEX
10
9.49386
20
8.75693
30
4.72
0
VERTEX
10
9.49942
20
8.75832
30
4.72
0
VERTEX
10
9.50359
20
8.76388
30
4.72
0
VERTEX
10
9.50498
20
8.76944
30
4.72
0
VERTEX
10
9.50915
20
8.775
30
4.72
0
VERTEX
10
9.51193
20
8.78613
30
4.72
0
VERTEX
10
9.51471
20
8.79169
30
4.72
0
VERTEX
10
9.51888
20
8.81394
30
4.72
0
VERTEX
10
9.51888
20
8.82506
30
4.72
0
VERTEX
10
9.5161
20
8.83618
30
4.72
0
VERTEX
10
9.5161
20
8.84731
30
4.72
0
VERTEX
10
9.51332
20
8.85843
30
4.72
0
VERTEX
10
9.51193
20
8.86399
30
4.72
0
VERTEX
10
9.50776
20
8.86816
30
4.72
0
VERTEX
10
9.50776
20
8.87094
30
4.72
0
VERTEX
10
9.50498
20
8.87372
30
4.72
0
VERTEX
10
9.50359
20
8.87929
30
4.72
0
VERTEX
10
9.49942
20
8.88346
30
4.72
0
VERTEX
10
9.49525
20
8.89458
30
4.72
0
VERTEX
10
9.47717
20
8.91544
30
4.72
0
VERTEX
10
9.47439
20
8.91544
30
4.72
0
VERTEX
10
9.46466
20
8.92378
30
4.72
0
VERTEX
10
9.45353
20
8.92795
30
4.72
0
VERTEX
10
9.44797
20
8.92934
30
4.72
0
VERTEX
10
9.44519
20
8.92934
30
4.72
0
VERTEX
10
9.43685
20
8.93768
30
4.72
0
VERTEX
10
9.42572
20
8.93907
30
4.72
0
VERTEX
10
9.4146
20
8.94325
30
4.72
0
VERTEX
10
9.37011
20
8.94742
30
4.72
0
VERTEX
10
9.35898
20
8.94881
30
4.72
0
VERTEX
10
9.34786
20
8.94603
30
4.72
0
VERTEX
10
9.32561
20
8.94464
30
4.72
0
VERTEX
10
9.31449
20
8.94046
30
4.72
0
VERTEX
10
9.29224
20
8.92656
30
4.72
0
VERTEX
10
9.28807
20
8.92239
30
4.72
0
VERTEX
10
9.28251
20
8.921
30
4.72
0
VERTEX
10
9.27139
20
8.91405
30
4.72
0
VERTEX
10
9.26861
20
8.91405
30
4.72
0
VERTEX
10
9.26165
20
8.90292
30
4.72
0
VERTEX
10
9.25748
20
8.89736
30
4.72
0
VERTEX
10
9.25609
20
8.88624
30
4.72
0
VERTEX
10
9.25748
20
8.88068
30
4.72
0
VERTEX
10
9.25192
20
8.87511
30
4.72
0
VERTEX
10
9.25192
20
8.86399
30
4.72
0
VERTEX
10
9.25192
20
8.85843
30
4.72
0
VERTEX
10
9.25192
20
8.85565
30
4.72
0
SEQEND
0
POLYLINE
62
236
66
1
70
1
3
postsynaptic_density
0
VERTEX
10
8.81047
20
9.38901
30
4.72
0
VERTEX
10
8.87019
20
9.36661
30
4.72
0
VERTEX
10
8.92991
20
9.34795
30
4.72
0
VERTEX
10
8.95977
20
9.33675
30
4.72
0
VERTEX
10
8.96724
20
9.33488
30
4.72
0
VERTEX
10
8.9747
20
9.32742
30
4.72
0
VERTEX
10
8.97843
20
9.32555
30
4.72
0
VERTEX
10
8.99336
20
9.32742
30
4.72
0
VERTEX
10
9.00083
20
9.32742
30
4.72
0
VERTEX
10
9.00456
20
9.32742
30
4.72
0
VERTEX
10
9.01016
20
9.33302
30
4.72
0
VERTEX
10
9.02509
20
9.33488
30
4.72
0
VERTEX
10
9.02882
20
9.33862
30
4.72
0
VERTEX
10
9.04375
20
9.34422
30
4.72
0
VERTEX
10
9.04935
20
9.35168
30
4.72
0
VERTEX
10
9.05122
20
9.36661
30
4.72
0
VERTEX
10
9.04935
20
9.38154
30
4.72
0
VERTEX
10
9.04935
20
9.38527
30
4.72
0
VERTEX
10
9.04375
20
9.39274
30
4.72
0
VERTEX
10
9.04189
20
9.4002
30
4.72
0
VERTEX
10
9.03256
20
9.41327
30
4.72
0
VERTEX
10
9.01949
20
9.4226
30
4.72
0
VERTEX
10
9.01203
20
9.42633
30
4.72
0
VERTEX
10
8.9971
20
9.44126
30
4.72
0
VERTEX
10
8.98963
20
9.44686
30
4.72
0
VERTEX
10
8.98777
20
9.45059
30
4.72
0
VERTEX
10
8.97284
20
9.45432
30
4.72
0
VERTEX
10
8.9691
20
9.45806
30
4.72
0
VERTEX
10
8.93924
20
9.45992
30
4.72
0
VERTEX
10
8.93178
20
9.46365
30
4.72
0
VERTEX
10
8.90192
20
9.46739
30
4.72
0
VERTEX
10
8.88699
20
9.46925
30
4.72
0
VERTEX
10
8.85713
20
9.46739
30
4.72
0
VERTEX
10
8.84966
20
9.46739
30
4.72
0
VERTEX
10
8.84593
20
9.47112
30
4.72
0
VERTEX
10
8.8422
20
9.47112
30
4.72
0
VERTEX
10
8.83847
20
9.46739
30
4.72
0
VERTEX
10
8.831
20
9.46739
30
4.72
0
VERTEX
10
8.82354
20
9.45246
30
4.72
0
VERTEX
10
8.82354
20
9.44872
30
4.72
0
VERTEX
10
8.8198
20
9.44499
30
4.72
0
VERTEX
10
8.8198
20
9.44126
30
4.72
0
VERTEX
10
8.81607
20
9.43753
30
4.72
0
VERTEX
10
8.81421
20
9.4226
30
4.72
0
VERTEX
10
8.81047
20
9.41886
30
4.72
0
VERTEX
10
8.81047
20
9.39087
30
4.72
0
SEQEND
0
POLYLINE
62
227
66
1
70
1
3
endoplasmic_reticulum
0
VERTEX
10
8.95661
20
8.71894
30
4.72
0
VERTEX
10
8.96118
20
8.70675
30
4.72
0
VERTEX
10
8.96879
20
8.69609
30
4.72
0
VERTEX
10
8.99317
20
8.69457
30
4.72
0
VERTEX
10
9.00536
20
8.69761
30
4.72
0
VERTEX
10
9.01145
20
8.70218
30
4.72
0
VERTEX
10
9.0145
20
8.70828
30
4.72
0
VERTEX
10
9.02516
20
8.71589
30
4.72
0
VERTEX
10
9.03278
20
8.72656
30
4.72
0
VERTEX
10
9.0404
20
8.73265
30
4.72
0
VERTEX
10
9.03888
20
8.73875
30
4.72
0
VERTEX
10
9.02821
20
8.74636
30
4.72
0
VERTEX
10
9.00383
20
8.74789
30
4.72
0
VERTEX
10
8.97946
20
8.75246
30
4.72
0
VERTEX
10
8.97336
20
8.75551
30
4.72
0
VERTEX
10
8.97032
20
8.75703
30
4.72
0
VERTEX
10
8.95965
20
8.74636
30
4.72
0
VERTEX
10
8.95661
20
8.74484
30
4.72
0
VERTEX
10
8.95661
20
8.72047
30
4.72
0
SEQEND
0
POLYLINE
62
227
66
1
70
1
3
endoplasmic_reticulum
0
VERTEX
10
9.87375
20
8.87738
30
4.72
0
VERTEX
10
9.87832
20
8.87129
30
4.72
0
VERTEX
10
9.90269
20
8.86977
30
4.72
0
VERTEX
10
9.91488
20
8.86977
30
4.72
0
VERTEX
10
9.93926
20
8.86063
30
4.72
0
VERTEX
10
9.94535
20
8.8591
30
4.72
0
VERTEX
10
9.9484
20
8.8591
30
4.72
0
VERTEX
10
9.95906
20
8.84844
30
4.72
0
VERTEX
10
9.97125
20
8.84539
30
4.72
0
VERTEX
10
9.9743
20
8.84234
30
4.72
0
VERTEX
10
9.99867
20
8.83777
30
4.72
0
VERTEX
10
10.0474
20
8.84082
30
4.72
0
VERTEX
10
10.0596
20
8.84234
30
4.72
0
VERTEX
10
10.0627
20
8.84234
30
4.72
0
VERTEX
10
10.0672
20
8.84692
30
4.72
0
VERTEX
10
10.0703
20
8.84692
30
4.72
0
VERTEX
10
10.0825
20
8.85453
30
4.72
0
VERTEX
10
10.084
20
8.86063
30
4.72
0
VERTEX
10
10.0916
20
8.86977
30
4.72
0
VERTEX
10
10.0947
20
8.88196
30
4.72
0
VERTEX
10
10.0947
20
8.88805
30
4.72
0
VERTEX
10
10.0825
20
8.89262
30
4.72
0
VERTEX
10
10.0581
20
8.88957
30
4.72
0
VERTEX
10
10.0459
20
8.885
30
4.72
0
VERTEX
10
10.0398
20
8.88196
30
4.72
0
VERTEX
10
10.0276
20
8.88196
30
4.72
0
VERTEX
10
9.97887
20
8.8911
30
4.72
0
VERTEX
10
9.97582
20
8.8911
30
4.72
0
VERTEX
10
9.97278
20
8.89414
30
4.72
0
VERTEX
10
9.96973
20
8.89414
30
4.72
0
VERTEX
10
9.96363
20
8.89871
30
4.72
0
VERTEX
10
9.95754
20
8.90024
30
4.72
0
VERTEX
10
9.95297
20
8.90481
30
4.72
0
VERTEX
10
9.92859
20
8.9109
30
4.72
0
VERTEX
10
9.91641
20
8.91395
30
4.72
0
VERTEX
10
9.89203
20
8.9109
30
4.72
0
VERTEX
10
9.88594
20
8.9109
30
4.72
0
VERTEX
10
9.88289
20
8.9109
30
4.72
0
VERTEX
10
9.87375
20
8.88805
30
4.72
0
VERTEX
10
9.87375
20
8.88196
30
4.72
0
VERTEX
10
9.87375
20
8.87891
30
4.72
0
SEQEND
0
POLYLINE
62
227
66
1
70
1
3
endoplasmic_reticulum
0
VERTEX
10
9.92859
20
8.93528
30
4.72
0
VERTEX
10
9.94078
20
8.92766
30
4.72
0
VERTEX
10
9.95297
20
8.92614
30
4.72
0
VERTEX
10
9.95906
20
8.92766
30
4.72
0
VERTEX
10
9.96973
20
8.93832
30
4.72
0
VERTEX
10
9.97125
20
8.95051
30
4.72
0
VERTEX
10
9.96973
20
8.9627
30
4.72
0
VERTEX
10
9.96668
20
8.96879
30
4.72
0
VERTEX
10
9.96059
20
8.97336
30
4.72
0
VERTEX
10
9.95754
20
8.97641
30
4.72
0
VERTEX
10
9.95145
20
8.97641
30
4.72
0
VERTEX
10
9.93012
20
8.95356
30
4.72
0
VERTEX
10
9.92859
20
8.94137
30
4.72
0
VERTEX
10
9.92859
20
8.9368
30
4.72
0
SEQEND
0
POLYLINE
62
227
66
1
70
1
3
endoplasmic_reticulum
0
VERTEX
10
8.83777
20
8.68543
30
4.72
0
VERTEX
10
8.8393
20
8.67933
30
4.72
0
VERTEX
10
8.8393
20
8.67628
30
4.72
0
VERTEX
10
8.84844
20
8.6641
30
4.72
0
VERTEX
10
8.85149
20
8.658
30
4.72
0
VERTEX
10
8.85758
20
8.65648
30
4.72
0
VERTEX
10
8.86063
20
8.65343
30
4.72
0
VERTEX
10
8.86367
20
8.65343
30
4.72
0
VERTEX
10
8.86977
20
8.64734
30
4.72
0
VERTEX
10
8.88196
20
8.64886
30
4.72
0
VERTEX
10
8.88805
20
8.65191
30
4.72
0
VERTEX
10
8.89414
20
8.66257
30
4.72
0
VERTEX
10
8.89567
20
8.67476
30
4.72
0
VERTEX
10
8.89414
20
8.68695
30
4.72
0
VERTEX
10
8.89262
20
8.69304
30
4.72
0
VERTEX
10
8.88805
20
8.69761
30
4.72
0
VERTEX
10
8.88805
20
8.70066
30
4.72
0
VERTEX
10
8.87738
20
8.7098
30
4.72
0
VERTEX
10
8.8652
20
8.71437
30
4.72
0
VERTEX
10
8.8591
20
8.71589
30
4.72
0
VERTEX
10
8.85606
20
8.71742
30
4.72
0
VERTEX
10
8.84539
20
8.7098
30
4.72
0
VERTEX
10
8.84082
20
8.69761
30
4.72
0
VERTEX
10
8.83777
20
8.69152
30
4.72
0
VERTEX
10
8.83777
20
8.68695
30
4.72
0
SEQEND
0
POLYLINE
62
227
66
1
70
1
3
endoplasmic_reticulum
0
VERTEX
10
8.76617
20
8.64886
30
4.72
0
VERTEX
10
8.77683
20
8.6382
30
4.72
0
VERTEX
10
8.7875
20
8.63363
30
4.72
0
VERTEX
10
8.81187
20
8.6382
30
4.72
0
VERTEX
10
8.81949
20
8.64581
30
4.72
0
VERTEX
10
8.81797
20
8.67019
30
4.72
0
VERTEX
10
8.81035
20
8.68238
30
4.72
0
VERTEX
10
8.8073
20
8.68543
30
4.72
0
VERTEX
10
8.80121
20
8.68695
30
4.72
0
VERTEX
10
8.80273
20
8.68847
30
4.72
0
VERTEX
10
8.79055
20
8.69
30
4.72
0
VERTEX
10
8.78445
20
8.68847
30
4.72
0
VERTEX
10
8.79055
20
8.68695
30
4.72
0
VERTEX
10
8.78598
20
8.68543
30
4.72
0
VERTEX
10
8.77379
20
8.67781
30
4.72
0
VERTEX
10
8.76769
20
8.67476
30
4.72
0
VERTEX
10
8.76617
20
8.65038
30
4.72
0
SEQEND
0
POLYLINE
62
227
66
1
70
1
3
endoplasmic_reticulum
0
VERTEX
10
8.93832
20
8.80578
30
4.72
0
VERTEX
10
8.93985
20
8.79969
30
4.72
0
VERTEX
10
8.94594
20
8.79512
30
4.72
0
VERTEX
10
8.97032
20
8.79664
30
4.72
0
VERTEX
10
8.98251
20
8.79664
30
4.72
0
VERTEX
10
8.9886
20
8.79664
30
4.72
0
VERTEX
10
8.99165
20
8.79664
30
4.72
0
VERTEX
10
8.99926
20
8.8073
30
4.72
0
VERTEX
10
9.00079
20
8.8134
30
4.72
0
VERTEX
10
9.00841
20
8.82406
30
4.72
0
VERTEX
10
9.02821
20
8.84692
30
4.72
0
VERTEX
10
9.03126
20
8.85301
30
4.72
0
VERTEX
10
9.03126
20
8.87738
30
4.72
0
VERTEX
10
9.03583
20
8.88957
30
4.72
0
VERTEX
10
9.03888
20
8.91395
30
4.72
0
VERTEX
10
9.03888
20
8.917
30
4.72
0
VERTEX
10
9.04192
20
8.92004
30
4.72
0
VERTEX
10
9.04192
20
8.93223
30
4.72
0
VERTEX
10
9.04345
20
8.93832
30
4.72
0
VERTEX
10
9.04802
20
8.9429
30
4.72
0
VERTEX
10
9.09677
20
8.94594
30
4.72
0
VERTEX
10
9.10896
20
8.94899
30
4.72
0
VERTEX
10
9.1181
20
8.95965
30
4.72
0
VERTEX
10
9.11962
20
8.96575
30
4.72
0
VERTEX
10
9.13028
20
8.97641
30
4.72
0
VERTEX
10
9.1379
20
8.98403
30
4.72
0
VERTEX
10
9.14247
20
8.9886
30
4.72
0
VERTEX
10
9.13943
20
9.00079
30
4.72
0
VERTEX
10
9.11505
20
9.00383
30
4.72
0
VERTEX
10
9.112
20
9.00383
30
4.72
0
VERTEX
10
9.10591
20
9.00841
30
4.72
0
VERTEX
10
9.09981
20
9.00993
30
4.72
0
VERTEX
10
9.09829
20
9.01298
30
4.72
0
VERTEX
10
9.0861
20
9.01298
30
4.72
0
VERTEX
10
9.08001
20
9.01145
30
4.72
0
VERTEX
10
9.07696
20
9.00841
30
4.72
0
VERTEX
10
9.06477
20
9.00536
30
4.72
0
VERTEX
10
9.0404
20
8.99317
30
4.72
0
VERTEX
10
9.02821
20
8.99012
30
4.72
0
VERTEX
10
9.02364
20
8.98708
30
4.72
0
VERTEX
10
8.99926
20
8.99165
30
4.72
0
VERTEX
10
8.99469
20
8.99622
30
4.72
0
VERTEX
10
8.9886
20
8.99774
30
4.72
0
VERTEX
10
8.98251
20
9.00231
30
4.72
0
VERTEX
10
8.97032
20
9.00383
30
4.72
0
VERTEX
10
8.96422
20
9.00383
30
4.72
0
VERTEX
10
8.95965
20
8.99774
30
4.72
0
VERTEX
10
8.95661
20
8.99469
30
4.72
0
VERTEX
10
8.95508
20
8.98251
30
4.72
0
VERTEX
10
8.95508
20
8.97641
30
4.72
0
VERTEX
10
8.95661
20
8.97489
30
4.72
0
VERTEX
10
8.95813
20
8.97641
30
4.72
0
VERTEX
10
8.95813
20
8.95204
30
4.72
0
VERTEX
10
8.96727
20
8.92766
30
4.72
0
VERTEX
10
8.97336
20
8.91547
30
4.72
0
VERTEX
10
8.97336
20
8.90938
30
4.72
0
VERTEX
10
8.97794
20
8.89719
30
4.72
0
VERTEX
10
8.98098
20
8.87281
30
4.72
0
VERTEX
10
8.98098
20
8.86672
30
4.72
0
VERTEX
10
8.96422
20
8.84387
30
4.72
0
VERTEX
10
8.95813
20
8.8332
30
4.72
0
VERTEX
10
8.95661
20
8.83016
30
4.72
0
VERTEX
10
8.95356
20
8.83016
30
4.72
0
VERTEX
10
8.95051
20
8.82406
30
4.72
0
VERTEX
10
8.93832
20
8.81645
30
4.72
0
VERTEX
10
8.93832
20
8.81035
30
4.72
0
VERTEX
10
8.93832
20
8.8073
30
4.72
0
SEQEND
0
ENDSEC
0
EOF
