0
SECTION
2
ENTITIES
0
POLYLINE
62
224
66
1
70
1
3
mitochondrion
0
VERTEX
10
7.39987
20
10.6535
30
9.48
0
VERTEX
10
7.40682
20
10.6312
30
9.48
0
VERTEX
10
7.41794
20
10.609
30
9.48
0
VERTEX
10
7.42211
20
10.6034
30
9.48
0
VERTEX
10
7.4249
20
10.5923
30
9.48
0
VERTEX
10
7.42629
20
10.5867
30
9.48
0
VERTEX
10
7.43463
20
10.5756
30
9.48
0
VERTEX
10
7.4388
20
10.57
30
9.48
0
VERTEX
10
7.44158
20
10.5673
30
9.48
0
VERTEX
10
7.44297
20
10.5617
30
9.48
0
VERTEX
10
7.44853
20
10.5603
30
9.48
0
VERTEX
10
7.47078
20
10.5395
30
9.48
0
VERTEX
10
7.48051
20
10.5325
30
9.48
0
VERTEX
10
7.48468
20
10.5269
30
9.48
0
VERTEX
10
7.48747
20
10.5269
30
9.48
0
VERTEX
10
7.49164
20
10.5228
30
9.48
0
VERTEX
10
7.53613
20
10.5061
30
9.48
0
VERTEX
10
7.58062
20
10.5047
30
9.48
0
VERTEX
10
7.60287
20
10.5075
30
9.48
0
VERTEX
10
7.61399
20
10.5075
30
9.48
0
VERTEX
10
7.61678
20
10.5103
30
9.48
0
VERTEX
10
7.61956
20
10.5103
30
9.48
0
VERTEX
10
7.62512
20
10.5144
30
9.48
0
VERTEX
10
7.63068
20
10.5144
30
9.48
0
VERTEX
10
7.63624
20
10.5172
30
9.48
0
VERTEX
10
7.64458
20
10.5283
30
9.48
0
VERTEX
10
7.64875
20
10.5325
30
9.48
0
VERTEX
10
7.65432
20
10.5339
30
9.48
0
VERTEX
10
7.66544
20
10.5436
30
9.48
0
VERTEX
10
7.66683
20
10.5548
30
9.48
0
VERTEX
10
7.67934
20
10.5756
30
9.48
0
VERTEX
10
7.68352
20
10.5812
30
9.48
0
VERTEX
10
7.68769
20
10.5923
30
9.48
0
VERTEX
10
7.68908
20
10.6145
30
9.48
0
VERTEX
10
7.68908
20
10.6257
30
9.48
0
VERTEX
10
7.68213
20
10.6479
30
9.48
0
VERTEX
10
7.67795
20
10.6535
30
9.48
0
VERTEX
10
7.67656
20
10.659
30
9.48
0
VERTEX
10
7.66961
20
10.6688
30
9.48
0
VERTEX
10
7.66683
20
10.6799
30
9.48
0
VERTEX
10
7.66266
20
10.6841
30
9.48
0
VERTEX
10
7.65849
20
10.6952
30
9.48
0
VERTEX
10
7.65432
20
10.7007
30
9.48
0
VERTEX
10
7.65293
20
10.7063
30
9.48
0
VERTEX
10
7.65015
20
10.7091
30
9.48
0
VERTEX
10
7.64875
20
10.7202
30
9.48
0
VERTEX
10
7.63763
20
10.7425
30
9.48
0
VERTEX
10
7.63068
20
10.7536
30
9.48
0
VERTEX
10
7.62651
20
10.7591
30
9.48
0
VERTEX
10
7.62373
20
10.7619
30
9.48
0
VERTEX
10
7.62095
20
10.7619
30
9.48
0
VERTEX
10
7.60287
20
10.7814
30
9.48
0
VERTEX
10
7.55838
20
10.7842
30
9.48
0
VERTEX
10
7.51388
20
10.7828
30
9.48
0
VERTEX
10
7.50276
20
10.7814
30
9.48
0
VERTEX
10
7.49164
20
10.7772
30
9.48
0
VERTEX
10
7.48051
20
10.7758
30
9.48
0
VERTEX
10
7.47495
20
10.7758
30
9.48
0
VERTEX
10
7.46383
20
10.7717
30
9.48
0
VERTEX
10
7.45827
20
10.7717
30
9.48
0
VERTEX
10
7.43741
20
10.7591
30
9.48
0
VERTEX
10
7.42768
20
10.7522
30
9.48
0
VERTEX
10
7.41099
20
10.7313
30
9.48
0
VERTEX
10
7.40265
20
10.7091
30
9.48
0
VERTEX
10
7.39987
20
10.698
30
9.48
0
VERTEX
10
7.39987
20
10.6549
30
9.48
0
SEQEND
0
POLYLINE
62
227
66
1
70
1
3
endoplasmic_reticulum
0
VERTEX
10
7.6583
20
10.3237
30
9.48
0
VERTEX
10
7.66099
20
10.3201
30
9.48
0
VERTEX
10
7.66188
20
10.3166
30
9.48
0
VERTEX
10
7.66726
20
10.3112
30
9.48
0
VERTEX
10
7.68161
20
10.3031
30
9.48
0
VERTEX
10
7.68878
20
10.3022
30
9.48
0
VERTEX
10
7.70312
20
10.3049
30
9.48
0
VERTEX
10
7.7103
20
10.3049
30
9.48
0
VERTEX
10
7.71209
20
10.3067
30
9.48
0
VERTEX
10
7.71926
20
10.3076
30
9.48
0
VERTEX
10
7.72554
20
10.3121
30
9.48
0
VERTEX
10
7.72823
20
10.3157
30
9.48
0
VERTEX
10
7.72912
20
10.3228
30
9.48
0
VERTEX
10
7.72823
20
10.33
30
9.48
0
VERTEX
10
7.72285
20
10.3363
30
9.48
0
VERTEX
10
7.71568
20
10.3381
30
9.48
0
VERTEX
10
7.70133
20
10.3443
30
9.48
0
VERTEX
10
7.67264
20
10.3452
30
9.48
0
VERTEX
10
7.66547
20
10.3452
30
9.48
0
VERTEX
10
7.66188
20
10.3452
30
9.48
0
VERTEX
10
7.65919
20
10.3417
30
9.48
0
VERTEX
10
7.6583
20
10.3273
30
9.48
0
VERTEX
10
7.6583
20
10.3246
30
9.48
0
SEQEND
0
POLYLINE
62
227
66
1
70
1
3
endoplasmic_reticulum
0
VERTEX
10
7.3463
20
10.4528
30
9.48
0
VERTEX
10
7.34809
20
10.4492
30
9.48
0
VERTEX
10
7.34899
20
10.4421
30
9.48
0
VERTEX
10
7.34899
20
10.4385
30
9.48
0
VERTEX
10
7.34809
20
10.4367
30
9.48
0
VERTEX
10
7.35347
20
10.4295
30
9.48
0
VERTEX
10
7.35616
20
10.4223
30
9.48
0
VERTEX
10
7.36244
20
10.417
30
9.48
0
VERTEX
10
7.37678
20
10.4161
30
9.48
0
VERTEX
10
7.38037
20
10.417
30
9.48
0
VERTEX
10
7.39382
20
10.425
30
9.48
0
VERTEX
10
7.3974
20
10.4313
30
9.48
0
VERTEX
10
7.40099
20
10.434
30
9.48
0
VERTEX
10
7.40457
20
10.4349
30
9.48
0
VERTEX
10
7.41175
20
10.4394
30
9.48
0
VERTEX
10
7.41892
20
10.4403
30
9.48
0
VERTEX
10
7.43326
20
10.4385
30
9.48
0
VERTEX
10
7.44761
20
10.434
30
9.48
0
VERTEX
10
7.45119
20
10.4331
30
9.48
0
VERTEX
10
7.45209
20
10.4313
30
9.48
0
VERTEX
10
7.46644
20
10.4286
30
9.48
0
VERTEX
10
7.47361
20
10.4304
30
9.48
0
VERTEX
10
7.4745
20
10.4322
30
9.48
0
VERTEX
10
7.4763
20
10.4322
30
9.48
0
VERTEX
10
7.48257
20
10.4385
30
9.48
0
VERTEX
10
7.48975
20
10.4412
30
9.48
0
VERTEX
10
7.49692
20
10.4421
30
9.48
0
VERTEX
10
7.5005
20
10.4439
30
9.48
0
VERTEX
10
7.50409
20
10.443
30
9.48
0
VERTEX
10
7.50588
20
10.4412
30
9.48
0
VERTEX
10
7.51216
20
10.4385
30
9.48
0
VERTEX
10
7.51933
20
10.434
30
9.48
0
VERTEX
10
7.52471
20
10.4277
30
9.48
0
VERTEX
10
7.53906
20
10.4179
30
9.48
0
VERTEX
10
7.54623
20
10.4152
30
9.48
0
VERTEX
10
7.5534
20
10.4143
30
9.48
0
VERTEX
10
7.56057
20
10.4152
30
9.48
0
VERTEX
10
7.57402
20
10.4206
30
9.48
0
VERTEX
10
7.58837
20
10.4295
30
9.48
0
VERTEX
10
7.59554
20
10.4313
30
9.48
0
VERTEX
10
7.59912
20
10.4322
30
9.48
0
VERTEX
10
7.6063
20
10.4367
30
9.48
0
VERTEX
10
7.60988
20
10.4403
30
9.48
0
VERTEX
10
7.61168
20
10.4439
30
9.48
0
VERTEX
10
7.61168
20
10.451
30
9.48
0
VERTEX
10
7.61168
20
10.4528
30
9.48
0
VERTEX
10
7.60899
20
10.4564
30
9.48
0
VERTEX
10
7.5803
20
10.4564
30
9.48
0
VERTEX
10
7.56595
20
10.4591
30
9.48
0
VERTEX
10
7.56237
20
10.46
30
9.48
0
VERTEX
10
7.55878
20
10.4627
30
9.48
0
VERTEX
10
7.55519
20
10.4627
30
9.48
0
VERTEX
10
7.5525
20
10.4654
30
9.48
0
VERTEX
10
7.53816
20
10.469
30
9.48
0
VERTEX
10
7.53099
20
10.4699
30
9.48
0
VERTEX
10
7.5274
20
10.4708
30
9.48
0
VERTEX
10
7.52561
20
10.4726
30
9.48
0
VERTEX
10
7.51126
20
10.4752
30
9.48
0
VERTEX
10
7.50947
20
10.477
30
9.48
0
VERTEX
10
7.5023
20
10.477
30
9.48
0
VERTEX
10
7.5014
20
10.4761
30
9.48
0
VERTEX
10
7.50499
20
10.4726
30
9.48
0
VERTEX
10
7.49782
20
10.4726
30
9.48
0
VERTEX
10
7.49423
20
10.4735
30
9.48
0
VERTEX
10
7.48975
20
10.4797
30
9.48
0
VERTEX
10
7.48347
20
10.486
30
9.48
0
VERTEX
10
7.48168
20
10.4887
30
9.48
0
VERTEX
10
7.47809
20
10.4923
30
9.48
0
VERTEX
10
7.4745
20
10.4932
30
9.48
0
VERTEX
10
7.47002
20
10.4986
30
9.48
0
VERTEX
10
7.46644
20
10.4995
30
9.48
0
VERTEX
10
7.45926
20
10.5039
30
9.48
0
VERTEX
10
7.44492
20
10.5102
30
9.48
0
VERTEX
10
7.43057
20
10.5129
30
9.48
0
VERTEX
10
7.41623
20
10.5129
30
9.48
0
VERTEX
10
7.40188
20
10.5111
30
9.48
0
VERTEX
10
7.38754
20
10.5111
30
9.48
0
VERTEX
10
7.38037
20
10.5111
30
9.48
0
VERTEX
10
7.37857
20
10.5111
30
9.48
0
VERTEX
10
7.37588
20
10.5084
30
9.48
0
VERTEX
10
7.3723
20
10.5084
30
9.48
0
VERTEX
10
7.36513
20
10.5039
30
9.48
0
VERTEX
10
7.35885
20
10.5012
30
9.48
0
VERTEX
10
7.35257
20
10.4941
30
9.48
0
VERTEX
10
7.34809
20
10.4878
30
9.48
0
VERTEX
10
7.3463
20
10.4842
30
9.48
0
VERTEX
10
7.3463
20
10.4555
30
9.48
0
VERTEX
10
7.3463
20
10.4537
30
9.48
0
SEQEND
0
POLYLINE
62
227
66
1
70
1
3
endoplasmic_reticulum
0
VERTEX
10
7.2683
20
10.6716
30
9.48
0
VERTEX
10
7.27278
20
10.6671
30
9.48
0
VERTEX
10
7.27995
20
10.6662
30
9.48
0
VERTEX
10
7.28713
20
10.6671
30
9.48
0
VERTEX
10
7.29071
20
10.668
30
9.48
0
VERTEX
10
7.2943
20
10.6716
30
9.48
0
VERTEX
10
7.30147
20
10.6752
30
9.48
0
VERTEX
10
7.31492
20
10.6868
30
9.48
0
VERTEX
10
7.31761
20
10.6904
30
9.48
0
VERTEX
10
7.31851
20
10.694
30
9.48
0
VERTEX
10
7.32209
20
10.6967
30
9.48
0
VERTEX
10
7.32389
20
10.6994
30
9.48
0
VERTEX
10
7.32478
20
10.7066
30
9.48
0
VERTEX
10
7.32389
20
10.7137
30
9.48
0
VERTEX
10
7.32209
20
10.7173
30
9.48
0
VERTEX
10
7.31851
20
10.72
30
9.48
0
VERTEX
10
7.31133
20
10.7209
30
9.48
0
VERTEX
10
7.30416
20
10.7182
30
9.48
0
VERTEX
10
7.29699
20
10.7173
30
9.48
0
VERTEX
10
7.28982
20
10.7146
30
9.48
0
VERTEX
10
7.28623
20
10.7137
30
9.48
0
VERTEX
10
7.28354
20
10.7101
30
9.48
0
VERTEX
10
7.27637
20
10.7066
30
9.48
0
VERTEX
10
7.27278
20
10.7039
30
9.48
0
VERTEX
10
7.27189
20
10.6967
30
9.48
0
VERTEX
10
7.2683
20
10.6895
30
9.48
0
VERTEX
10
7.2683
20
10.6752
30
9.48
0
VERTEX
10
7.2683
20
10.6725
30
9.48
0
SEQEND
0
POLYLINE
62
227
66
1
70
1
3
endoplasmic_reticulum
0
VERTEX
10
7.19299
20
10.625
30
9.48
0
VERTEX
10
7.19478
20
10.6178
30
9.48
0
VERTEX
10
7.19478
20
10.6142
30
9.48
0
VERTEX
10
7.20195
20
10.6088
30
9.48
0
VERTEX
10
7.2163
20
10.6043
30
9.48
0
VERTEX
10
7.23064
20
10.6035
30
9.48
0
VERTEX
10
7.23782
20
10.6017
30
9.48
0
VERTEX
10
7.2414
20
10.6008
30
9.48
0
VERTEX
10
7.24858
20
10.5963
30
9.48
0
VERTEX
10
7.25126
20
10.5936
30
9.48
0
VERTEX
10
7.25306
20
10.5936
30
9.48
0
VERTEX
10
7.25575
20
10.59
30
9.48
0
VERTEX
10
7.25754
20
10.59
30
9.48
0
VERTEX
10
7.26471
20
10.5855
30
9.48
0
VERTEX
10
7.27189
20
10.5828
30
9.48
0
VERTEX
10
7.27906
20
10.5837
30
9.48
0
VERTEX
10
7.28264
20
10.5837
30
9.48
0
VERTEX
10
7.28713
20
10.5909
30
9.48
0
VERTEX
10
7.28982
20
10.6052
30
9.48
0
VERTEX
10
7.28892
20
10.6339
30
9.48
0
VERTEX
10
7.28892
20
10.6411
30
9.48
0
VERTEX
10
7.28892
20
10.6447
30
9.48
0
VERTEX
10
7.28444
20
10.651
30
9.48
0
VERTEX
10
7.27009
20
10.6519
30
9.48
0
VERTEX
10
7.26292
20
10.651
30
9.48
0
VERTEX
10
7.26023
20
10.6483
30
9.48
0
VERTEX
10
7.25664
20
10.6339
30
9.48
0
VERTEX
10
7.25575
20
10.6303
30
9.48
0
VERTEX
10
7.25216
20
10.6295
30
9.48
0
VERTEX
10
7.24589
20
10.6348
30
9.48
0
VERTEX
10
7.23871
20
10.6375
30
9.48
0
VERTEX
10
7.23513
20
10.6384
30
9.48
0
VERTEX
10
7.22168
20
10.6483
30
9.48
0
VERTEX
10
7.21451
20
10.6483
30
9.48
0
VERTEX
10
7.21092
20
10.6474
30
9.48
0
VERTEX
10
7.20464
20
10.6429
30
9.48
0
VERTEX
10
7.20285
20
10.6411
30
9.48
0
VERTEX
10
7.19927
20
10.6411
30
9.48
0
VERTEX
10
7.19389
20
10.6348
30
9.48
0
VERTEX
10
7.19299
20
10.6277
30
9.48
0
VERTEX
10
7.19299
20
10.6259
30
9.48
0
SEQEND
0
POLYLINE
62
31
66
1
70
1
3
contour
0
VERTEX
10
6.65005
20
10.9088
30
9.48
0
VERTEX
10
6.65327
20
10.8959
30
9.48
0
VERTEX
10
6.65648
20
10.8927
30
9.48
0
VERTEX
10
6.65969
20
10.8799
30
9.48
0
VERTEX
10
6.65969
20
10.8766
30
9.48
0
VERTEX
10
6.66291
20
10.875
30
9.48
0
VERTEX
10
6.66773
20
10.8622
30
9.48
0
VERTEX
10
6.68702
20
10.8397
30
9.48
0
VERTEX
10
6.71273
20
10.822
30
9.48
0
VERTEX
10
6.71916
20
10.8188
30
9.48
0
VERTEX
10
6.72237
20
10.8156
30
9.48
0
VERTEX
10
6.72558
20
10.8156
30
9.48
0
VERTEX
10
6.73844
20
10.8059
30
9.48
0
VERTEX
10
6.7513
20
10.7995
30
9.48
0
VERTEX
10
6.75451
20
10.7963
30
9.48
0
VERTEX
10
6.76094
20
10.7947
30
9.48
0
VERTEX
10
6.76415
20
10.7947
30
9.48
0
VERTEX
10
6.77058
20
10.7899
30
9.48
0
VERTEX
10
6.82201
20
10.7818
30
9.48
0
VERTEX
10
6.82844
20
10.7818
30
9.48
0
VERTEX
10
6.83326
20
10.777
30
9.48
0
VERTEX
10
6.84611
20
10.777
30
9.48
0
VERTEX
10
6.85254
20
10.7802
30
9.48
0
VERTEX
10
6.86058
20
10.8059
30
9.48
0
VERTEX
10
6.86058
20
10.8188
30
9.48
0
VERTEX
10
6.85736
20
10.8316
30
9.48
0
VERTEX
10
6.85736
20
10.8381
30
9.48
0
VERTEX
10
6.85415
20
10.8413
30
9.48
0
VERTEX
10
6.85415
20
10.8541
30
9.48
0
VERTEX
10
6.8429
20
10.8783
30
9.48
0
VERTEX
10
6.83808
20
10.8847
30
9.48
0
VERTEX
10
6.83808
20
10.8879
30
9.48
0
VERTEX
10
6.82844
20
10.8991
30
9.48
0
VERTEX
10
6.82522
20
10.912
30
9.48
0
VERTEX
10
6.82201
20
10.9184
30
9.48
0
VERTEX
10
6.81879
20
10.92
30
9.48
0
VERTEX
10
6.81719
20
10.9265
30
9.48
0
VERTEX
10
6.81076
20
10.9313
30
9.48
0
VERTEX
10
6.80272
20
10.9409
30
9.48
0
VERTEX
10
6.78023
20
10.9586
30
9.48
0
VERTEX
10
6.76737
20
10.9634
30
9.48
0
VERTEX
10
6.76094
20
10.9682
30
9.48
0
VERTEX
10
6.75773
20
10.9715
30
9.48
0
VERTEX
10
6.74487
20
10.9731
30
9.48
0
VERTEX
10
6.74166
20
10.9731
30
9.48
0
VERTEX
10
6.7288
20
10.9859
30
9.48
0
VERTEX
10
6.72398
20
10.9907
30
9.48
0
VERTEX
10
6.69826
20
10.9907
30
9.48
0
VERTEX
10
6.67255
20
10.9795
30
9.48
0
VERTEX
10
6.66612
20
10.9763
30
9.48
0
VERTEX
10
6.65809
20
10.9666
30
9.48
0
VERTEX
10
6.65487
20
10.9602
30
9.48
0
VERTEX
10
6.65166
20
10.957
30
9.48
0
VERTEX
10
6.65005
20
10.9313
30
9.48
0
VERTEX
10
6.65005
20
10.9184
30
9.48
0
VERTEX
10
6.65005
20
10.912
30
9.48
0
VERTEX
10
6.65005
20
10.9104
30
9.48
0
SEQEND
0
POLYLINE
62
31
66
1
70
1
3
contour
0
VERTEX
10
7.00879
20
10.7688
30
9.48
0
VERTEX
10
7.01874
20
10.7549
30
9.48
0
VERTEX
10
7.0267
20
10.7489
30
9.48
0
VERTEX
10
7.03466
20
10.733
30
9.48
0
VERTEX
10
7.04659
20
10.7191
30
9.48
0
VERTEX
10
7.04858
20
10.7111
30
9.48
0
VERTEX
10
7.07046
20
10.6793
30
9.48
0
VERTEX
10
7.07444
20
10.6713
30
9.48
0
VERTEX
10
7.07444
20
10.6674
30
9.48
0
VERTEX
10
7.09434
20
10.6415
30
9.48
0
VERTEX
10
7.09434
20
10.6335
30
9.48
0
VERTEX
10
7.09832
20
10.6256
30
9.48
0
VERTEX
10
7.09832
20
10.6216
30
9.48
0
VERTEX
10
7.12418
20
10.5918
30
9.48
0
VERTEX
10
7.12418
20
10.5878
30
9.48
0
VERTEX
10
7.12816
20
10.5838
30
9.48
0
VERTEX
10
7.12816
20
10.5798
30
9.48
0
VERTEX
10
7.1401
20
10.5639
30
9.48
0
VERTEX
10
7.14805
20
10.548
30
9.48
0
VERTEX
10
7.15999
20
10.5361
30
9.48
0
VERTEX
10
7.18187
20
10.5062
30
9.48
0
VERTEX
10
7.19779
20
10.4943
30
9.48
0
VERTEX
10
7.19779
20
10.4903
30
9.48
0
VERTEX
10
7.20973
20
10.4764
30
9.48
0
VERTEX
10
7.21768
20
10.4704
30
9.48
0
VERTEX
10
7.22564
20
10.4605
30
9.48
0
VERTEX
10
7.22763
20
10.4525
30
9.48
0
VERTEX
10
7.24355
20
10.4366
30
9.48
0
VERTEX
10
7.2515
20
10.4286
30
9.48
0
VERTEX
10
7.25946
20
10.4286
30
9.48
0
VERTEX
10
7.26742
20
10.4247
30
9.48
0
VERTEX
10
7.2714
20
10.4207
30
9.48
0
VERTEX
10
7.27538
20
10.4207
30
9.48
0
VERTEX
10
7.28731
20
10.4068
30
9.48
0
VERTEX
10
7.29527
20
10.3908
30
9.48
0
VERTEX
10
7.31119
20
10.3769
30
9.48
0
VERTEX
10
7.31716
20
10.369
30
9.48
0
VERTEX
10
7.32113
20
10.365
30
9.48
0
VERTEX
10
7.35297
20
10.355
30
9.48
0
VERTEX
10
7.36888
20
10.3491
30
9.48
0
VERTEX
10
7.43254
20
10.3391
30
9.48
0
VERTEX
10
7.46437
20
10.3371
30
9.48
0
VERTEX
10
7.47233
20
10.3331
30
9.48
0
VERTEX
10
7.48825
20
10.3331
30
9.48
0
VERTEX
10
7.50416
20
10.3292
30
9.48
0
VERTEX
10
7.50814
20
10.3252
30
9.48
0
VERTEX
10
7.53798
20
10.3152
30
9.48
0
VERTEX
10
7.54594
20
10.3132
30
9.48
0
VERTEX
10
7.5539
20
10.3073
30
9.48
0
VERTEX
10
7.56981
20
10.3053
30
9.48
0
VERTEX
10
7.57777
20
10.3033
30
9.48
0
VERTEX
10
7.58175
20
10.3033
30
9.48
0
VERTEX
10
7.58573
20
10.2993
30
9.48
0
VERTEX
10
7.59369
20
10.2993
30
9.48
0
VERTEX
10
7.60761
20
10.2934
30
9.48
0
VERTEX
10
7.61358
20
10.2874
30
9.48
0
VERTEX
10
7.62154
20
10.2874
30
9.48
0
VERTEX
10
7.6295
20
10.2834
30
9.48
0
VERTEX
10
7.66133
20
10.2774
30
9.48
0
VERTEX
10
7.67724
20
10.2715
30
9.48
0
VERTEX
10
7.68122
20
10.2715
30
9.48
0
VERTEX
10
7.6852
20
10.2675
30
9.48
0
VERTEX
10
7.74886
20
10.2675
30
9.48
0
VERTEX
10
7.78069
20
10.2695
30
9.48
0
VERTEX
10
7.79661
20
10.2735
30
9.48
0
VERTEX
10
7.82844
20
10.2675
30
9.48
0
VERTEX
10
7.84436
20
10.2675
30
9.48
0
VERTEX
10
7.86027
20
10.2735
30
9.48
0
VERTEX
10
7.86823
20
10.2774
30
9.48
0
VERTEX
10
7.87022
20
10.3411
30
9.48
0
VERTEX
10
7.87221
20
10.3729
30
9.48
0
VERTEX
10
7.87221
20
10.3888
30
9.48
0
VERTEX
10
7.87818
20
10.4048
30
9.48
0
VERTEX
10
7.88216
20
10.4127
30
9.48
0
VERTEX
10
7.88216
20
10.4207
30
9.48
0
VERTEX
10
7.88812
20
10.4286
30
9.48
0
VERTEX
10
7.89409
20
10.4605
30
9.48
0
VERTEX
10
7.90006
20
10.4664
30
9.48
0
VERTEX
10
7.90006
20
10.4704
30
9.48
0
VERTEX
10
7.90404
20
10.4744
30
9.48
0
VERTEX
10
7.90603
20
10.4903
30
9.48
0
VERTEX
10
7.90404
20
10.5221
30
9.48
0
VERTEX
10
7.90404
20
10.5381
30
9.48
0
VERTEX
10
7.90802
20
10.554
30
9.48
0
VERTEX
10
7.90802
20
10.5699
30
9.48
0
VERTEX
10
7.90802
20
10.5778
30
9.48
0
VERTEX
10
7.90205
20
10.5858
30
9.48
0
VERTEX
10
7.89608
20
10.6176
30
9.48
0
VERTEX
10
7.89409
20
10.6495
30
9.48
0
VERTEX
10
7.88415
20
10.7131
30
9.48
0
VERTEX
10
7.88216
20
10.729
30
9.48
0
VERTEX
10
7.87619
20
10.737
30
9.48
0
VERTEX
10
7.8742
20
10.7529
30
9.48
0
VERTEX
10
7.8742
20
10.7569
30
9.48
0
VERTEX
10
7.86624
20
10.7629
30
9.48
0
VERTEX
10
7.86226
20
10.7629
30
9.48
0
VERTEX
10
7.86226
20
10.7668
30
9.48
0
VERTEX
10
7.85231
20
10.7828
30
9.48
0
VERTEX
10
7.83043
20
10.8086
30
9.48
0
VERTEX
10
7.82048
20
10.8245
30
9.48
0
VERTEX
10
7.8165
20
10.8285
30
9.48
0
VERTEX
10
7.81253
20
10.8444
30
9.48
0
VERTEX
10
7.78865
20
10.8703
30
9.48
0
VERTEX
10
7.75682
20
10.8822
30
9.48
0
VERTEX
10
7.74091
20
10.8862
30
9.48
0
VERTEX
10
7.73295
20
10.8902
30
9.48
0
VERTEX
10
7.70112
20
10.8942
30
9.48
0
VERTEX
10
7.69316
20
10.8962
30
9.48
0
VERTEX
10
7.6852
20
10.9021
30
9.48
0
VERTEX
10
7.67724
20
10.9041
30
9.48
0
VERTEX
10
7.67525
20
10.9081
30
9.48
0
VERTEX
10
7.64342
20
10.9121
30
9.48
0
VERTEX
10
7.57976
20
10.9081
30
9.48
0
VERTEX
10
7.54793
20
10.9041
30
9.48
0
VERTEX
10
7.5161
20
10.9041
30
9.48
0
VERTEX
10
7.50018
20
10.9061
30
9.48
0
VERTEX
10
7.48427
20
10.9001
30
9.48
0
VERTEX
10
7.48029
20
10.8962
30
9.48
0
VERTEX
10
7.47631
20
10.8962
30
9.48
0
VERTEX
10
7.47233
20
10.8922
30
9.48
0
VERTEX
10
7.4405
20
10.8822
30
9.48
0
VERTEX
10
7.41066
20
10.8683
30
9.48
0
VERTEX
10
7.4027
20
10.8643
30
9.48
0
VERTEX
10
7.39872
20
10.8603
30
9.48
0
VERTEX
10
7.38281
20
10.8564
30
9.48
0
VERTEX
10
7.36888
20
10.8444
30
9.48
0
VERTEX
10
7.36291
20
10.8385
30
9.48
0
VERTEX
10
7.36092
20
10.8424
30
9.48
0
VERTEX
10
7.35297
20
10.8405
30
9.48
0
VERTEX
10
7.33705
20
10.8285
30
9.48
0
VERTEX
10
7.33506
20
10.8206
30
9.48
0
VERTEX
10
7.33506
20
10.8166
30
9.48
0
VERTEX
10
7.31914
20
10.8146
30
9.48
0
VERTEX
10
7.30522
20
10.8046
30
9.48
0
VERTEX
10
7.29129
20
10.7987
30
9.48
0
VERTEX
10
7.28333
20
10.7947
30
9.48
0
VERTEX
10
7.26742
20
10.7947
30
9.48
0
VERTEX
10
7.2515
20
10.7907
30
9.48
0
VERTEX
10
7.24752
20
10.7867
30
9.48
0
VERTEX
10
7.23161
20
10.7867
30
9.48
0
VERTEX
10
7.22763
20
10.7828
30
9.48
0
VERTEX
10
7.21172
20
10.7768
30
9.48
0
VERTEX
10
7.17988
20
10.7748
30
9.48
0
VERTEX
10
7.17591
20
10.7728
30
9.48
0
VERTEX
10
7.15999
20
10.7748
30
9.48
0
VERTEX
10
7.15203
20
10.7748
30
9.48
0
VERTEX
10
7.14407
20
10.7708
30
9.48
0
VERTEX
10
7.11224
20
10.7728
30
9.48
0
VERTEX
10
7.09633
20
10.7788
30
9.48
0
VERTEX
10
7.0645
20
10.7788
30
9.48
0
VERTEX
10
7.04858
20
10.7788
30
9.48
0
VERTEX
10
7.01675
20
10.7847
30
9.48
0
VERTEX
10
7.01277
20
10.8007
30
9.48
0
VERTEX
10
7.01078
20
10.8027
30
9.48
0
VERTEX
10
7.00879
20
10.7708
30
9.48
0
SEQEND
0
POLYLINE
62
236
66
1
70
1
3
postsynaptic_density
0
VERTEX
10
7.79185
20
10.6293
30
9.48
0
VERTEX
10
7.79926
20
10.6096
30
9.48
0
VERTEX
10
7.80172
20
10.5306
30
9.48
0
VERTEX
10
7.80913
20
10.4911
30
9.48
0
VERTEX
10
7.81899
20
10.4837
30
9.48
0
VERTEX
10
7.82393
20
10.4837
30
9.48
0
VERTEX
10
7.82886
20
10.4788
30
9.48
0
VERTEX
10
7.90782
20
10.4664
30
9.48
0
VERTEX
10
7.9473
20
10.4664
30
9.48
0
VERTEX
10
7.98677
20
10.4615
30
9.48
0
VERTEX
10
8.00651
20
10.464
30
9.48
0
VERTEX
10
8.01638
20
10.464
30
9.48
0
VERTEX
10
8.02625
20
10.4689
30
9.48
0
VERTEX
10
8.03119
20
10.4714
30
9.48
0
VERTEX
10
8.03365
20
10.5109
30
9.48
0
VERTEX
10
8.03859
20
10.5306
30
9.48
0
VERTEX
10
8.03859
20
10.5503
30
9.48
0
VERTEX
10
8.04106
20
10.5602
30
9.48
0
VERTEX
10
8.04106
20
10.5651
30
9.48
0
VERTEX
10
8.04599
20
10.5701
30
9.48
0
VERTEX
10
8.04846
20
10.5799
30
9.48
0
VERTEX
10
8.04599
20
10.5849
30
9.48
0
VERTEX
10
8.02625
20
10.5873
30
9.48
0
VERTEX
10
8.00651
20
10.5972
30
9.48
0
VERTEX
10
7.98677
20
10.5997
30
9.48
0
VERTEX
10
7.90782
20
10.6219
30
9.48
0
VERTEX
10
7.88808
20
10.6268
30
9.48
0
VERTEX
10
7.86834
20
10.6367
30
9.48
0
VERTEX
10
7.82886
20
10.6466
30
9.48
0
VERTEX
10
7.80913
20
10.649
30
9.48
0
VERTEX
10
7.79926
20
10.6466
30
9.48
0
VERTEX
10
7.79432
20
10.6466
30
9.48
0
VERTEX
10
7.79185
20
10.6367
30
9.48
0
VERTEX
10
7.79185
20
10.6318
30
9.48
0
SEQEND
0
ENDSEC
0
EOF
