0
SECTION
2
ENTITIES
0
POLYLINE
62
31
66
1
70
1
3
contour
0
VERTEX
10
7.53193
20
10.2741
30
8.64
0
VERTEX
10
7.57143
20
10.228
30
8.64
0
VERTEX
10
7.59447
20
10.2116
30
8.64
0
VERTEX
10
7.61752
20
10.1852
30
8.64
0
VERTEX
10
7.63727
20
10.1655
30
8.64
0
VERTEX
10
7.65044
20
10.1556
30
8.64
0
VERTEX
10
7.66689
20
10.1325
30
8.64
0
VERTEX
10
7.69323
20
10.1161
30
8.64
0
VERTEX
10
7.70311
20
10.1029
30
8.64
0
VERTEX
10
7.70969
20
10.0996
30
8.64
0
VERTEX
10
7.70969
20
10.093
30
8.64
0
VERTEX
10
7.73273
20
10.0733
30
8.64
0
VERTEX
10
7.7459
20
10.0601
30
8.64
0
VERTEX
10
7.75248
20
10.047
30
8.64
0
VERTEX
10
7.79857
20
10.0042
30
8.64
0
VERTEX
10
7.82491
20
9.99429
30
8.64
0
VERTEX
10
7.83807
20
9.99099
30
8.64
0
VERTEX
10
7.84466
20
9.98441
30
8.64
0
VERTEX
10
7.89733
20
9.98441
30
8.64
0
VERTEX
10
7.95
20
9.99099
30
8.64
0
VERTEX
10
8.00267
20
9.99099
30
8.64
0
VERTEX
10
8.05534
20
9.98112
30
8.64
0
VERTEX
10
8.06851
20
9.97783
30
8.64
0
VERTEX
10
8.09485
20
9.95807
30
8.64
0
VERTEX
10
8.12118
20
9.9482
30
8.64
0
VERTEX
10
8.14752
20
9.9482
30
8.64
0
VERTEX
10
8.16068
20
9.9482
30
8.64
0
VERTEX
10
8.21335
20
9.96466
30
8.64
0
VERTEX
10
8.21665
20
9.97124
30
8.64
0
VERTEX
10
8.22323
20
9.97124
30
8.64
0
VERTEX
10
8.2364
20
9.98112
30
8.64
0
VERTEX
10
8.24298
20
9.9877
30
8.64
0
VERTEX
10
8.24627
20
10.0009
30
8.64
0
VERTEX
10
8.24627
20
10.0075
30
8.64
0
VERTEX
10
8.26932
20
10.0305
30
8.64
0
VERTEX
10
8.2759
20
10.0437
30
8.64
0
VERTEX
10
8.30224
20
10.07
30
8.64
0
VERTEX
10
8.32199
20
10.0963
30
8.64
0
VERTEX
10
8.32528
20
10.1095
30
8.64
0
VERTEX
10
8.33186
20
10.1128
30
8.64
0
VERTEX
10
8.33186
20
10.126
30
8.64
0
VERTEX
10
8.34174
20
10.1523
30
8.64
0
VERTEX
10
8.35162
20
10.1655
30
8.64
0
VERTEX
10
8.36149
20
10.1918
30
8.64
0
VERTEX
10
8.37137
20
10.205
30
8.64
0
VERTEX
10
8.37137
20
10.2181
30
8.64
0
VERTEX
10
8.37137
20
10.2247
30
8.64
0
VERTEX
10
8.39112
20
10.2478
30
8.64
0
VERTEX
10
8.39441
20
10.2609
30
8.64
0
VERTEX
10
8.39441
20
10.2675
30
8.64
0
VERTEX
10
8.40429
20
10.2807
30
8.64
0
VERTEX
10
8.41087
20
10.307
30
8.64
0
VERTEX
10
8.41745
20
10.3103
30
8.64
0
VERTEX
10
8.42733
20
10.3366
30
8.64
0
VERTEX
10
8.43062
20
10.3893
30
8.64
0
VERTEX
10
8.42733
20
10.442
30
8.64
0
VERTEX
10
8.42075
20
10.4683
30
8.64
0
VERTEX
10
8.41416
20
10.4749
30
8.64
0
VERTEX
10
8.41416
20
10.4815
30
8.64
0
VERTEX
10
8.38783
20
10.5045
30
8.64
0
VERTEX
10
8.33845
20
10.5342
30
8.64
0
VERTEX
10
8.32528
20
10.5375
30
8.64
0
VERTEX
10
8.3187
20
10.544
30
8.64
0
VERTEX
10
8.29236
20
10.5473
30
8.64
0
VERTEX
10
8.27919
20
10.5539
30
8.64
0
VERTEX
10
8.06851
20
10.5605
30
8.64
0
VERTEX
10
8.01584
20
10.5671
30
8.64
0
VERTEX
10
7.96317
20
10.5802
30
8.64
0
VERTEX
10
7.93683
20
10.5868
30
8.64
0
VERTEX
10
7.88416
20
10.5901
30
8.64
0
VERTEX
10
7.83149
20
10.5835
30
8.64
0
VERTEX
10
7.80845
20
10.5671
30
8.64
0
VERTEX
10
7.80186
20
10.5671
30
8.64
0
VERTEX
10
7.75248
20
10.5342
30
8.64
0
VERTEX
10
7.7459
20
10.5276
30
8.64
0
VERTEX
10
7.7459
20
10.521
30
8.64
0
VERTEX
10
7.73273
20
10.5111
30
8.64
0
VERTEX
10
7.73273
20
10.498
30
8.64
0
VERTEX
10
7.73273
20
10.4914
30
8.64
0
VERTEX
10
7.72615
20
10.4848
30
8.64
0
VERTEX
10
7.72615
20
10.4782
30
8.64
0
VERTEX
10
7.67677
20
10.442
30
8.64
0
VERTEX
10
7.65044
20
10.4321
30
8.64
0
VERTEX
10
7.63727
20
10.4288
30
8.64
0
VERTEX
10
7.61422
20
10.4091
30
8.64
0
VERTEX
10
7.60106
20
10.4058
30
8.64
0
VERTEX
10
7.57801
20
10.3827
30
8.64
0
VERTEX
10
7.57472
20
10.3696
30
8.64
0
VERTEX
10
7.55168
20
10.3498
30
8.64
0
VERTEX
10
7.54509
20
10.3465
30
8.64
0
VERTEX
10
7.53522
20
10.3235
30
8.64
0
VERTEX
10
7.53193
20
10.2971
30
8.64
0
VERTEX
10
7.53193
20
10.284
30
8.64
0
VERTEX
10
7.53193
20
10.2774
30
8.64
0
SEQEND
0
POLYLINE
62
31
66
1
70
1
3
contour
0
VERTEX
10
7.19782
20
9.63975
30
8.64
0
VERTEX
10
7.20123
20
9.63804
30
8.64
0
VERTEX
10
7.20123
20
9.62439
30
8.64
0
VERTEX
10
7.21318
20
9.59709
30
8.64
0
VERTEX
10
7.21488
20
9.59026
30
8.64
0
VERTEX
10
7.21829
20
9.58856
30
8.64
0
VERTEX
10
7.21829
20
9.58514
30
8.64
0
VERTEX
10
7.23024
20
9.57491
30
8.64
0
VERTEX
10
7.23536
20
9.56808
30
8.64
0
VERTEX
10
7.24219
20
9.56637
30
8.64
0
VERTEX
10
7.24901
20
9.56125
30
8.64
0
VERTEX
10
7.26266
20
9.55613
30
8.64
0
VERTEX
10
7.26949
20
9.55102
30
8.64
0
VERTEX
10
7.2729
20
9.55102
30
8.64
0
VERTEX
10
7.27973
20
9.5459
30
8.64
0
VERTEX
10
7.30703
20
9.54248
30
8.64
0
VERTEX
10
7.33433
20
9.53395
30
8.64
0
VERTEX
10
7.34628
20
9.52713
30
8.64
0
VERTEX
10
7.35481
20
9.5203
30
8.64
0
VERTEX
10
7.38211
20
9.51347
30
8.64
0
VERTEX
10
7.39577
20
9.50665
30
8.64
0
VERTEX
10
7.40259
20
9.50323
30
8.64
0
VERTEX
10
7.4572
20
9.50153
30
8.64
0
VERTEX
10
7.4845
20
9.50153
30
8.64
0
VERTEX
10
7.48791
20
9.50153
30
8.64
0
VERTEX
10
7.49303
20
9.50665
30
8.64
0
VERTEX
10
7.49986
20
9.50665
30
8.64
0
VERTEX
10
7.50157
20
9.50494
30
8.64
0
VERTEX
10
7.52716
20
9.52713
30
8.64
0
VERTEX
10
7.53911
20
9.53736
30
8.64
0
VERTEX
10
7.55105
20
9.54419
30
8.64
0
VERTEX
10
7.56982
20
9.56979
30
8.64
0
VERTEX
10
7.57324
20
9.5732
30
8.64
0
VERTEX
10
7.57494
20
9.58003
30
8.64
0
VERTEX
10
7.58006
20
9.58685
30
8.64
0
VERTEX
10
7.58006
20
9.59368
30
8.64
0
VERTEX
10
7.58859
20
9.60562
30
8.64
0
VERTEX
10
7.60054
20
9.63293
30
8.64
0
VERTEX
10
7.60225
20
9.66023
30
8.64
0
VERTEX
10
7.60054
20
9.67388
30
8.64
0
VERTEX
10
7.60054
20
9.67729
30
8.64
0
VERTEX
10
7.59542
20
9.68241
30
8.64
0
VERTEX
10
7.59371
20
9.69606
30
8.64
0
VERTEX
10
7.58859
20
9.70972
30
8.64
0
VERTEX
10
7.58859
20
9.71654
30
8.64
0
VERTEX
10
7.57665
20
9.72849
30
8.64
0
VERTEX
10
7.57153
20
9.74214
30
8.64
0
VERTEX
10
7.54593
20
9.76603
30
8.64
0
VERTEX
10
7.54081
20
9.77115
30
8.64
0
VERTEX
10
7.5374
20
9.77115
30
8.64
0
VERTEX
10
7.52546
20
9.77968
30
8.64
0
VERTEX
10
7.52204
20
9.77968
30
8.64
0
VERTEX
10
7.5118
20
9.79163
30
8.64
0
VERTEX
10
7.49815
20
9.80016
30
8.64
0
VERTEX
10
7.49133
20
9.80698
30
8.64
0
VERTEX
10
7.4845
20
9.8104
30
8.64
0
VERTEX
10
7.42989
20
9.81893
30
8.64
0
VERTEX
10
7.37529
20
9.82064
30
8.64
0
VERTEX
10
7.36164
20
9.82064
30
8.64
0
VERTEX
10
7.34799
20
9.81722
30
8.64
0
VERTEX
10
7.34116
20
9.81552
30
8.64
0
VERTEX
10
7.33433
20
9.8104
30
8.64
0
VERTEX
10
7.30703
20
9.80528
30
8.64
0
VERTEX
10
7.29338
20
9.80357
30
8.64
0
VERTEX
10
7.28655
20
9.80016
30
8.64
0
VERTEX
10
7.28485
20
9.79333
30
8.64
0
VERTEX
10
7.2729
20
9.7848
30
8.64
0
VERTEX
10
7.26096
20
9.77115
30
8.64
0
VERTEX
10
7.2456
20
9.74384
30
8.64
0
VERTEX
10
7.23877
20
9.73702
30
8.64
0
VERTEX
10
7.23536
20
9.73019
30
8.64
0
VERTEX
10
7.23536
20
9.72678
30
8.64
0
VERTEX
10
7.22853
20
9.71995
30
8.64
0
VERTEX
10
7.22341
20
9.7063
30
8.64
0
VERTEX
10
7.21147
20
9.69436
30
8.64
0
VERTEX
10
7.21147
20
9.69094
30
8.64
0
VERTEX
10
7.20294
20
9.67729
30
8.64
0
VERTEX
10
7.19782
20
9.64999
30
8.64
0
VERTEX
10
7.19782
20
9.64316
30
8.64
0
VERTEX
10
7.19782
20
9.64146
30
8.64
0
SEQEND
0
POLYLINE
62
224
66
1
70
1
3
mitochondrion
0
VERTEX
10
7.7433
20
10.253
30
8.64
0
VERTEX
10
7.74609
20
10.2475
30
8.64
0
VERTEX
10
7.74609
20
10.2419
30
8.64
0
VERTEX
10
7.74609
20
10.2391
30
8.64
0
VERTEX
10
7.75304
20
10.228
30
8.64
0
VERTEX
10
7.75721
20
10.2169
30
8.64
0
VERTEX
10
7.76416
20
10.2058
30
8.64
0
VERTEX
10
7.76694
20
10.2002
30
8.64
0
VERTEX
10
7.77806
20
10.1919
30
8.64
0
VERTEX
10
7.78363
20
10.1905
30
8.64
0
VERTEX
10
7.79197
20
10.1807
30
8.64
0
VERTEX
10
7.80309
20
10.1738
30
8.64
0
VERTEX
10
7.80726
20
10.1696
30
8.64
0
VERTEX
10
7.81283
20
10.1696
30
8.64
0
VERTEX
10
7.82395
20
10.1613
30
8.64
0
VERTEX
10
7.83368
20
10.1585
30
8.64
0
VERTEX
10
7.83924
20
10.1557
30
8.64
0
VERTEX
10
7.84481
20
10.1557
30
8.64
0
VERTEX
10
7.84759
20
10.1529
30
8.64
0
VERTEX
10
7.85871
20
10.1487
30
8.64
0
VERTEX
10
7.86983
20
10.1418
30
8.64
0
VERTEX
10
7.88096
20
10.1376
30
8.64
0
VERTEX
10
7.9032
20
10.1362
30
8.64
0
VERTEX
10
7.92545
20
10.1376
30
8.64
0
VERTEX
10
7.9477
20
10.1418
30
8.64
0
VERTEX
10
7.95882
20
10.1432
30
8.64
0
VERTEX
10
7.95882
20
10.146
30
8.64
0
VERTEX
10
7.96994
20
10.1529
30
8.64
0
VERTEX
10
7.97551
20
10.1585
30
8.64
0
VERTEX
10
7.98663
20
10.164
30
8.64
0
VERTEX
10
8.0047
20
10.1807
30
8.64
0
VERTEX
10
8.01444
20
10.1877
30
8.64
0
VERTEX
10
8.01444
20
10.1905
30
8.64
0
VERTEX
10
8.01861
20
10.196
30
8.64
0
VERTEX
10
8.02417
20
10.1974
30
8.64
0
VERTEX
10
8.03251
20
10.2085
30
8.64
0
VERTEX
10
8.03251
20
10.2141
30
8.64
0
VERTEX
10
8.04364
20
10.2363
30
8.64
0
VERTEX
10
8.04503
20
10.2475
30
8.64
0
VERTEX
10
8.04642
20
10.253
30
8.64
0
VERTEX
10
8.04642
20
10.2558
30
8.64
0
VERTEX
10
8.0492
20
10.2586
30
8.64
0
VERTEX
10
8.05059
20
10.3031
30
8.64
0
VERTEX
10
8.04781
20
10.3142
30
8.64
0
VERTEX
10
8.04781
20
10.317
30
8.64
0
VERTEX
10
8.04364
20
10.3212
30
8.64
0
VERTEX
10
8.04364
20
10.3323
30
8.64
0
VERTEX
10
8.03947
20
10.3545
30
8.64
0
VERTEX
10
8.03251
20
10.3754
30
8.64
0
VERTEX
10
8.02973
20
10.3782
30
8.64
0
VERTEX
10
8.02973
20
10.3809
30
8.64
0
VERTEX
10
8.02556
20
10.3851
30
8.64
0
VERTEX
10
8.02417
20
10.3907
30
8.64
0
VERTEX
10
8.00888
20
10.4088
30
8.64
0
VERTEX
10
7.99775
20
10.4171
30
8.64
0
VERTEX
10
7.97968
20
10.4366
30
8.64
0
VERTEX
10
7.97412
20
10.4407
30
8.64
0
VERTEX
10
7.97133
20
10.4435
30
8.64
0
VERTEX
10
7.92684
20
10.4435
30
8.64
0
VERTEX
10
7.88235
20
10.4393
30
8.64
0
VERTEX
10
7.87122
20
10.438
30
8.64
0
VERTEX
10
7.86566
20
10.438
30
8.64
0
VERTEX
10
7.8601
20
10.4352
30
8.64
0
VERTEX
10
7.83785
20
10.431
30
8.64
0
VERTEX
10
7.83229
20
10.431
30
8.64
0
VERTEX
10
7.82673
20
10.4282
30
8.64
0
VERTEX
10
7.82395
20
10.4268
30
8.64
0
VERTEX
10
7.82395
20
10.4213
30
8.64
0
VERTEX
10
7.80865
20
10.4018
30
8.64
0
VERTEX
10
7.80031
20
10.3921
30
8.64
0
VERTEX
10
7.80031
20
10.3893
30
8.64
0
VERTEX
10
7.79197
20
10.3782
30
8.64
0
VERTEX
10
7.78085
20
10.3698
30
8.64
0
VERTEX
10
7.77806
20
10.3643
30
8.64
0
VERTEX
10
7.77667
20
10.3615
30
8.64
0
VERTEX
10
7.77389
20
10.3615
30
8.64
0
VERTEX
10
7.76416
20
10.3504
30
8.64
0
VERTEX
10
7.7586
20
10.3406
30
8.64
0
VERTEX
10
7.7586
20
10.3378
30
8.64
0
VERTEX
10
7.75582
20
10.3351
30
8.64
0
VERTEX
10
7.75443
20
10.3295
30
8.64
0
VERTEX
10
7.74748
20
10.3184
30
8.64
0
VERTEX
10
7.7433
20
10.2961
30
8.64
0
VERTEX
10
7.7433
20
10.2739
30
8.64
0
VERTEX
10
7.7433
20
10.2628
30
8.64
0
VERTEX
10
7.7433
20
10.2572
30
8.64
0
VERTEX
10
7.7433
20
10.2544
30
8.64
0
SEQEND
0
POLYLINE
62
236
66
1
70
1
3
postsynaptic_density
0
VERTEX
10
7.22231
20
9.54017
30
8.64
0
VERTEX
10
7.23164
20
9.52524
30
8.64
0
VERTEX
10
7.25777
20
9.50658
30
8.64
0
VERTEX
10
7.2727
20
9.50471
30
8.64
0
VERTEX
10
7.27643
20
9.50471
30
8.64
0
VERTEX
10
7.29136
20
9.49351
30
8.64
0
VERTEX
10
7.35108
20
9.48978
30
8.64
0
VERTEX
10
7.38094
20
9.48418
30
8.64
0
VERTEX
10
7.38467
20
9.48418
30
8.64
0
VERTEX
10
7.38654
20
9.48045
30
8.64
0
VERTEX
10
7.4164
20
9.48232
30
8.64
0
VERTEX
10
7.42386
20
9.48792
30
8.64
0
VERTEX
10
7.4276
20
9.48792
30
8.64
0
VERTEX
10
7.42946
20
9.49165
30
8.64
0
VERTEX
10
7.44439
20
9.49725
30
8.64
0
VERTEX
10
7.45559
20
9.50844
30
8.64
0
VERTEX
10
7.46119
20
9.52337
30
8.64
0
VERTEX
10
7.46119
20
9.52711
30
8.64
0
VERTEX
10
7.46492
20
9.53084
30
8.64
0
VERTEX
10
7.46679
20
9.54577
30
8.64
0
VERTEX
10
7.46679
20
9.5495
30
8.64
0
VERTEX
10
7.45186
20
9.55697
30
8.64
0
VERTEX
10
7.33242
20
9.59802
30
8.64
0
VERTEX
10
7.30256
20
9.61109
30
8.64
0
VERTEX
10
7.2727
20
9.61295
30
8.64
0
VERTEX
10
7.26524
20
9.61109
30
8.64
0
VERTEX
10
7.23911
20
9.59242
30
8.64
0
VERTEX
10
7.23538
20
9.58496
30
8.64
0
VERTEX
10
7.23164
20
9.58123
30
8.64
0
VERTEX
10
7.22791
20
9.58123
30
8.64
0
VERTEX
10
7.22418
20
9.57376
30
8.64
0
VERTEX
10
7.22231
20
9.5439
30
8.64
0
VERTEX
10
7.22231
20
9.54204
30
8.64
0
SEQEND
0
POLYLINE
62
227
66
1
70
1
3
endoplasmic_reticulum
0
VERTEX
10
7.61795
20
10.2529
30
8.64
0
VERTEX
10
7.61975
20
10.2511
30
8.64
0
VERTEX
10
7.62064
20
10.2439
30
8.64
0
VERTEX
10
7.62154
20
10.2421
30
8.64
0
VERTEX
10
7.62333
20
10.2421
30
8.64
0
VERTEX
10
7.62692
20
10.235
30
8.64
0
VERTEX
10
7.62692
20
10.2314
30
8.64
0
VERTEX
10
7.62692
20
10.2296
30
8.64
0
VERTEX
10
7.63409
20
10.2224
30
8.64
0
VERTEX
10
7.64754
20
10.2126
30
8.64
0
VERTEX
10
7.65112
20
10.2117
30
8.64
0
VERTEX
10
7.65292
20
10.2099
30
8.64
0
VERTEX
10
7.66726
20
10.2072
30
8.64
0
VERTEX
10
7.67443
20
10.2099
30
8.64
0
VERTEX
10
7.67533
20
10.2135
30
8.64
0
VERTEX
10
7.68161
20
10.2188
30
8.64
0
VERTEX
10
7.68699
20
10.2332
30
8.64
0
VERTEX
10
7.68699
20
10.2619
30
8.64
0
VERTEX
10
7.69147
20
10.269
30
8.64
0
VERTEX
10
7.69506
20
10.2708
30
8.64
0
VERTEX
10
7.69685
20
10.2735
30
8.64
0
VERTEX
10
7.70043
20
10.2771
30
8.64
0
VERTEX
10
7.70761
20
10.2807
30
8.64
0
VERTEX
10
7.71119
20
10.2816
30
8.64
0
VERTEX
10
7.71747
20
10.2888
30
8.64
0
VERTEX
10
7.71657
20
10.3031
30
8.64
0
VERTEX
10
7.71568
20
10.3067
30
8.64
0
VERTEX
10
7.7103
20
10.313
30
8.64
0
VERTEX
10
7.7094
20
10.3166
30
8.64
0
VERTEX
10
7.69954
20
10.33
30
8.64
0
VERTEX
10
7.69685
20
10.3336
30
8.64
0
VERTEX
10
7.69595
20
10.3372
30
8.64
0
VERTEX
10
7.69416
20
10.3381
30
8.64
0
VERTEX
10
7.69326
20
10.3363
30
8.64
0
VERTEX
10
7.67892
20
10.3372
30
8.64
0
VERTEX
10
7.67175
20
10.3372
30
8.64
0
VERTEX
10
7.66816
20
10.3345
30
8.64
0
VERTEX
10
7.66099
20
10.3318
30
8.64
0
VERTEX
10
7.65561
20
10.3255
30
8.64
0
VERTEX
10
7.65381
20
10.3228
30
8.64
0
VERTEX
10
7.65023
20
10.3201
30
8.64
0
VERTEX
10
7.64843
20
10.3183
30
8.64
0
VERTEX
10
7.64843
20
10.3166
30
8.64
0
VERTEX
10
7.64216
20
10.3103
30
8.64
0
VERTEX
10
7.64126
20
10.3085
30
8.64
0
VERTEX
10
7.63947
20
10.3085
30
8.64
0
VERTEX
10
7.63499
20
10.3013
30
8.64
0
VERTEX
10
7.6314
20
10.2977
30
8.64
0
VERTEX
10
7.62692
20
10.2915
30
8.64
0
VERTEX
10
7.62602
20
10.2879
30
8.64
0
VERTEX
10
7.62423
20
10.2861
30
8.64
0
VERTEX
10
7.62244
20
10.2789
30
8.64
0
VERTEX
10
7.62154
20
10.2753
30
8.64
0
VERTEX
10
7.61885
20
10.2717
30
8.64
0
VERTEX
10
7.61795
20
10.2574
30
8.64
0
VERTEX
10
7.61795
20
10.2538
30
8.64
0
SEQEND
0
POLYLINE
62
227
66
1
70
1
3
endoplasmic_reticulum
0
VERTEX
10
8.1245
20
10.2126
30
8.64
0
VERTEX
10
8.12629
20
10.2108
30
8.64
0
VERTEX
10
8.12809
20
10.2036
30
8.64
0
VERTEX
10
8.13078
20
10.2009
30
8.64
0
VERTEX
10
8.13257
20
10.2
30
8.64
0
VERTEX
10
8.13616
20
10.2018
30
8.64
0
VERTEX
10
8.13974
20
10.2018
30
8.64
0
VERTEX
10
8.14602
20
10.2054
30
8.64
0
VERTEX
10
8.15588
20
10.2197
30
8.64
0
VERTEX
10
8.15767
20
10.2215
30
8.64
0
VERTEX
10
8.15767
20
10.2233
30
8.64
0
VERTEX
10
8.16036
20
10.226
30
8.64
0
VERTEX
10
8.16305
20
10.2332
30
8.64
0
VERTEX
10
8.16574
20
10.2368
30
8.64
0
VERTEX
10
8.16664
20
10.2403
30
8.64
0
VERTEX
10
8.16664
20
10.2421
30
8.64
0
VERTEX
10
8.16843
20
10.2439
30
8.64
0
VERTEX
10
8.17112
20
10.2583
30
8.64
0
VERTEX
10
8.17112
20
10.2619
30
8.64
0
VERTEX
10
8.17291
20
10.2655
30
8.64
0
VERTEX
10
8.17381
20
10.2798
30
8.64
0
VERTEX
10
8.17919
20
10.2941
30
8.64
0
VERTEX
10
8.18367
20
10.3013
30
8.64
0
VERTEX
10
8.18547
20
10.3049
30
8.64
0
VERTEX
10
8.19981
20
10.3139
30
8.64
0
VERTEX
10
8.2016
20
10.3139
30
8.64
0
VERTEX
10
8.21505
20
10.3237
30
8.64
0
VERTEX
10
8.2285
20
10.3318
30
8.64
0
VERTEX
10
8.23478
20
10.339
30
8.64
0
VERTEX
10
8.23478
20
10.3461
30
8.64
0
VERTEX
10
8.23478
20
10.3497
30
8.64
0
VERTEX
10
8.23298
20
10.3533
30
8.64
0
VERTEX
10
8.23298
20
10.3569
30
8.64
0
VERTEX
10
8.2276
20
10.3641
30
8.64
0
VERTEX
10
8.22581
20
10.3641
30
8.64
0
VERTEX
10
8.22312
20
10.3668
30
8.64
0
VERTEX
10
8.22312
20
10.3686
30
8.64
0
VERTEX
10
8.22043
20
10.3721
30
8.64
0
VERTEX
10
8.21326
20
10.3766
30
8.64
0
VERTEX
10
8.20967
20
10.3775
30
8.64
0
VERTEX
10
8.19622
20
10.3865
30
8.64
0
VERTEX
10
8.19443
20
10.3883
30
8.64
0
VERTEX
10
8.18726
20
10.391
30
8.64
0
VERTEX
10
8.18367
20
10.3919
30
8.64
0
VERTEX
10
8.18188
20
10.3919
30
8.64
0
VERTEX
10
8.17471
20
10.3981
30
8.64
0
VERTEX
10
8.17291
20
10.4053
30
8.64
0
VERTEX
10
8.17022
20
10.4089
30
8.64
0
VERTEX
10
8.16933
20
10.4161
30
8.64
0
VERTEX
10
8.16843
20
10.4197
30
8.64
0
VERTEX
10
8.16664
20
10.4215
30
8.64
0
VERTEX
10
8.16574
20
10.4501
30
8.64
0
VERTEX
10
8.16485
20
10.4573
30
8.64
0
VERTEX
10
8.15947
20
10.4627
30
8.64
0
VERTEX
10
8.15857
20
10.4663
30
8.64
0
VERTEX
10
8.15319
20
10.4726
30
8.64
0
VERTEX
10
8.1514
20
10.4726
30
8.64
0
VERTEX
10
8.14781
20
10.4752
30
8.64
0
VERTEX
10
8.14064
20
10.4743
30
8.64
0
VERTEX
10
8.13885
20
10.4708
30
8.64
0
VERTEX
10
8.13347
20
10.4663
30
8.64
0
VERTEX
10
8.13257
20
10.4627
30
8.64
0
VERTEX
10
8.13078
20
10.4609
30
8.64
0
VERTEX
10
8.12809
20
10.4537
30
8.64
0
VERTEX
10
8.13078
20
10.3963
30
8.64
0
VERTEX
10
8.13257
20
10.382
30
8.64
0
VERTEX
10
8.13167
20
10.3533
30
8.64
0
VERTEX
10
8.13347
20
10.339
30
8.64
0
VERTEX
10
8.13436
20
10.3318
30
8.64
0
VERTEX
10
8.13436
20
10.3282
30
8.64
0
VERTEX
10
8.13616
20
10.3246
30
8.64
0
VERTEX
10
8.13616
20
10.3103
30
8.64
0
VERTEX
10
8.14064
20
10.2816
30
8.64
0
VERTEX
10
8.14064
20
10.2672
30
8.64
0
VERTEX
10
8.13885
20
10.2637
30
8.64
0
VERTEX
10
8.13885
20
10.2601
30
8.64
0
VERTEX
10
8.13436
20
10.2529
30
8.64
0
VERTEX
10
8.13436
20
10.2511
30
8.64
0
VERTEX
10
8.13257
20
10.2493
30
8.64
0
VERTEX
10
8.13257
20
10.2457
30
8.64
0
VERTEX
10
8.12988
20
10.2386
30
8.64
0
VERTEX
10
8.12988
20
10.2368
30
8.64
0
VERTEX
10
8.1254
20
10.2296
30
8.64
0
VERTEX
10
8.1245
20
10.2152
30
8.64
0
VERTEX
10
8.1245
20
10.2135
30
8.64
0
SEQEND
0
POLYLINE
62
227
66
1
70
1
3
endoplasmic_reticulum
0
VERTEX
10
8.0456
20
10.4188
30
8.64
0
VERTEX
10
8.0474
20
10.4116
30
8.64
0
VERTEX
10
8.05278
20
10.4044
30
8.64
0
VERTEX
10
8.05457
20
10.4026
30
8.64
0
VERTEX
10
8.05457
20
10.4008
30
8.64
0
VERTEX
10
8.05816
20
10.3981
30
8.64
0
VERTEX
10
8.05816
20
10.3963
30
8.64
0
VERTEX
10
8.05995
20
10.3946
30
8.64
0
VERTEX
10
8.05995
20
10.3928
30
8.64
0
VERTEX
10
8.06174
20
10.391
30
8.64
0
VERTEX
10
8.06712
20
10.3766
30
8.64
0
VERTEX
10
8.06981
20
10.3695
30
8.64
0
VERTEX
10
8.0725
20
10.3121
30
8.64
0
VERTEX
10
8.0716
20
10.2547
30
8.64
0
VERTEX
10
8.06981
20
10.2511
30
8.64
0
VERTEX
10
8.06981
20
10.2368
30
8.64
0
VERTEX
10
8.07071
20
10.2296
30
8.64
0
VERTEX
10
8.06981
20
10.2009
30
8.64
0
VERTEX
10
8.06981
20
10.1937
30
8.64
0
VERTEX
10
8.06802
20
10.1866
30
8.64
0
VERTEX
10
8.06623
20
10.183
30
8.64
0
VERTEX
10
8.06712
20
10.1543
30
8.64
0
VERTEX
10
8.06981
20
10.1399
30
8.64
0
VERTEX
10
8.0716
20
10.1328
30
8.64
0
VERTEX
10
8.07519
20
10.1256
30
8.64
0
VERTEX
10
8.07519
20
10.1238
30
8.64
0
VERTEX
10
8.07788
20
10.1202
30
8.64
0
VERTEX
10
8.07788
20
10.1184
30
8.64
0
VERTEX
10
8.08416
20
10.1139
30
8.64
0
VERTEX
10
8.09133
20
10.1148
30
8.64
0
VERTEX
10
8.09312
20
10.1148
30
8.64
0
VERTEX
10
8.09671
20
10.1175
30
8.64
0
VERTEX
10
8.10388
20
10.1184
30
8.64
0
VERTEX
10
8.10747
20
10.122
30
8.64
0
VERTEX
10
8.10926
20
10.1292
30
8.64
0
VERTEX
10
8.10926
20
10.1435
30
8.64
0
VERTEX
10
8.10836
20
10.1507
30
8.64
0
VERTEX
10
8.10478
20
10.1579
30
8.64
0
VERTEX
10
8.10119
20
10.1588
30
8.64
0
VERTEX
10
8.10209
20
10.1875
30
8.64
0
VERTEX
10
8.10029
20
10.2018
30
8.64
0
VERTEX
10
8.10029
20
10.2305
30
8.64
0
VERTEX
10
8.10029
20
10.2448
30
8.64
0
VERTEX
10
8.10209
20
10.2592
30
8.64
0
VERTEX
10
8.10298
20
10.2663
30
8.64
0
VERTEX
10
8.10298
20
10.2699
30
8.64
0
VERTEX
10
8.10298
20
10.2717
30
8.64
0
VERTEX
10
8.10478
20
10.2735
30
8.64
0
VERTEX
10
8.10567
20
10.3022
30
8.64
0
VERTEX
10
8.10478
20
10.3309
30
8.64
0
VERTEX
10
8.10119
20
10.3596
30
8.64
0
VERTEX
10
8.10029
20
10.3739
30
8.64
0
VERTEX
10
8.0994
20
10.3811
30
8.64
0
VERTEX
10
8.09312
20
10.3955
30
8.64
0
VERTEX
10
8.09133
20
10.4026
30
8.64
0
VERTEX
10
8.08774
20
10.4098
30
8.64
0
VERTEX
10
8.08595
20
10.4098
30
8.64
0
VERTEX
10
8.08595
20
10.4134
30
8.64
0
VERTEX
10
8.08505
20
10.4152
30
8.64
0
VERTEX
10
8.08326
20
10.4152
30
8.64
0
VERTEX
10
8.07519
20
10.4295
30
8.64
0
VERTEX
10
8.07071
20
10.4367
30
8.64
0
VERTEX
10
8.06891
20
10.4385
30
8.64
0
VERTEX
10
8.05457
20
10.4403
30
8.64
0
VERTEX
10
8.05098
20
10.4394
30
8.64
0
VERTEX
10
8.0456
20
10.425
30
8.64
0
VERTEX
10
8.0456
20
10.4215
30
8.64
0
VERTEX
10
8.0456
20
10.4197
30
8.64
0
SEQEND
0
POLYLINE
62
227
66
1
70
1
3
endoplasmic_reticulum
0
VERTEX
10
8.19353
20
9.99739
30
8.64
0
VERTEX
10
8.19533
20
9.99021
30
8.64
0
VERTEX
10
8.19622
20
9.98663
30
8.64
0
VERTEX
10
8.19981
20
9.98304
30
8.64
0
VERTEX
10
8.20698
20
9.98035
30
8.64
0
VERTEX
10
8.21416
20
9.97945
30
8.64
0
VERTEX
10
8.22133
20
9.98125
30
8.64
0
VERTEX
10
8.22491
20
9.98125
30
8.64
0
VERTEX
10
8.2285
20
9.98304
30
8.64
0
VERTEX
10
8.23209
20
9.98663
30
8.64
0
VERTEX
10
8.23567
20
9.9938
30
8.64
0
VERTEX
10
8.23657
20
9.99739
30
8.64
0
VERTEX
10
8.23926
20
10.001
30
8.64
0
VERTEX
10
8.23926
20
10.0028
30
8.64
0
VERTEX
10
8.24374
20
10.0099
30
8.64
0
VERTEX
10
8.24643
20
10.0171
30
8.64
0
VERTEX
10
8.24643
20
10.0207
30
8.64
0
VERTEX
10
8.24912
20
10.0279
30
8.64
0
VERTEX
10
8.25002
20
10.0566
30
8.64
0
VERTEX
10
8.25091
20
10.0709
30
8.64
0
VERTEX
10
8.2536
20
10.0781
30
8.64
0
VERTEX
10
8.25898
20
10.0852
30
8.64
0
VERTEX
10
8.26347
20
10.0888
30
8.64
0
VERTEX
10
8.27064
20
10.0915
30
8.64
0
VERTEX
10
8.27422
20
10.0924
30
8.64
0
VERTEX
10
8.28678
20
10.1032
30
8.64
0
VERTEX
10
8.28947
20
10.1104
30
8.64
0
VERTEX
10
8.29484
20
10.1157
30
8.64
0
VERTEX
10
8.29664
20
10.1193
30
8.64
0
VERTEX
10
8.29843
20
10.1202
30
8.64
0
VERTEX
10
8.29933
20
10.1489
30
8.64
0
VERTEX
10
8.29843
20
10.1776
30
8.64
0
VERTEX
10
8.29753
20
10.1848
30
8.64
0
VERTEX
10
8.29484
20
10.1919
30
8.64
0
VERTEX
10
8.29484
20
10.1955
30
8.64
0
VERTEX
10
8.29036
20
10.2027
30
8.64
0
VERTEX
10
8.28409
20
10.2081
30
8.64
0
VERTEX
10
8.2805
20
10.2099
30
8.64
0
VERTEX
10
8.26616
20
10.2117
30
8.64
0
VERTEX
10
8.25988
20
10.2063
30
8.64
0
VERTEX
10
8.25091
20
10.1928
30
8.64
0
VERTEX
10
8.24912
20
10.191
30
8.64
0
VERTEX
10
8.24912
20
10.1892
30
8.64
0
VERTEX
10
8.24733
20
10.1875
30
8.64
0
VERTEX
10
8.24733
20
10.1839
30
8.64
0
VERTEX
10
8.24733
20
10.1821
30
8.64
0
VERTEX
10
8.24553
20
10.1812
30
8.64
0
VERTEX
10
8.24284
20
10.1525
30
8.64
0
VERTEX
10
8.24374
20
10.1238
30
8.64
0
VERTEX
10
8.24374
20
10.1166
30
8.64
0
VERTEX
10
8.24374
20
10.113
30
8.64
0
VERTEX
10
8.24195
20
10.1095
30
8.64
0
VERTEX
10
8.24195
20
10.1077
30
8.64
0
VERTEX
10
8.23747
20
10.1005
30
8.64
0
VERTEX
10
8.23567
20
10.0969
30
8.64
0
VERTEX
10
8.23388
20
10.096
30
8.64
0
VERTEX
10
8.23388
20
10.0942
30
8.64
0
VERTEX
10
8.2285
20
10.087
30
8.64
0
VERTEX
10
8.2285
20
10.0835
30
8.64
0
VERTEX
10
8.22491
20
10.0817
30
8.64
0
VERTEX
10
8.22491
20
10.0799
30
8.64
0
VERTEX
10
8.22222
20
10.0763
30
8.64
0
VERTEX
10
8.22043
20
10.0691
30
8.64
0
VERTEX
10
8.22133
20
10.0655
30
8.64
0
VERTEX
10
8.21774
20
10.0512
30
8.64
0
VERTEX
10
8.21774
20
10.044
30
8.64
0
VERTEX
10
8.21774
20
10.0422
30
8.64
0
VERTEX
10
8.21595
20
10.0404
30
8.64
0
VERTEX
10
8.21505
20
10.0368
30
8.64
0
VERTEX
10
8.20967
20
10.0306
30
8.64
0
VERTEX
10
8.20698
20
10.027
30
8.64
0
VERTEX
10
8.20519
20
10.0252
30
8.64
0
VERTEX
10
8.20429
20
10.0216
30
8.64
0
VERTEX
10
8.19802
20
10.0153
30
8.64
0
VERTEX
10
8.19353
20
10.0108
30
8.64
0
VERTEX
10
8.19353
20
10.0037
30
8.64
0
VERTEX
10
8.19353
20
10.0001
30
8.64
0
VERTEX
10
8.19353
20
9.99828
30
8.64
0
SEQEND
0
POLYLINE
62
227
66
1
70
1
3
endoplasmic_reticulum
0
VERTEX
10
7.7103
20
10.1301
30
8.64
0
VERTEX
10
7.71388
20
10.1157
30
8.64
0
VERTEX
10
7.71568
20
10.1139
30
8.64
0
VERTEX
10
7.71568
20
10.1121
30
8.64
0
VERTEX
10
7.71747
20
10.1112
30
8.64
0
VERTEX
10
7.71657
20
10.1077
30
8.64
0
VERTEX
10
7.71837
20
10.1041
30
8.64
0
VERTEX
10
7.72195
20
10.1014
30
8.64
0
VERTEX
10
7.72285
20
10.0996
30
8.64
0
VERTEX
10
7.75154
20
10.0942
30
8.64
0
VERTEX
10
7.76588
20
10.0933
30
8.64
0
VERTEX
10
7.77305
20
10.0924
30
8.64
0
VERTEX
10
7.77664
20
10.0906
30
8.64
0
VERTEX
10
7.78023
20
10.0906
30
8.64
0
VERTEX
10
7.7865
20
10.087
30
8.64
0
VERTEX
10
7.79368
20
10.0852
30
8.64
0
VERTEX
10
7.79726
20
10.0835
30
8.64
0
VERTEX
10
7.81161
20
10.0808
30
8.64
0
VERTEX
10
7.82595
20
10.0763
30
8.64
0
VERTEX
10
7.8403
20
10.0736
30
8.64
0
VERTEX
10
7.85464
20
10.0682
30
8.64
0
VERTEX
10
7.86181
20
10.0682
30
8.64
0
VERTEX
10
7.87616
20
10.0637
30
8.64
0
VERTEX
10
7.87974
20
10.0619
30
8.64
0
VERTEX
10
7.88333
20
10.0619
30
8.64
0
VERTEX
10
7.8905
20
10.0592
30
8.64
0
VERTEX
10
7.89678
20
10.0548
30
8.64
0
VERTEX
10
7.90395
20
10.0539
30
8.64
0
VERTEX
10
7.90754
20
10.053
30
8.64
0
VERTEX
10
7.91112
20
10.0503
30
8.64
0
VERTEX
10
7.91471
20
10.0494
30
8.64
0
VERTEX
10
7.92188
20
10.0449
30
8.64
0
VERTEX
10
7.92905
20
10.0431
30
8.64
0
VERTEX
10
7.93085
20
10.0422
30
8.64
0
VERTEX
10
7.93085
20
10.0404
30
8.64
0
VERTEX
10
7.93802
20
10.0377
30
8.64
0
VERTEX
10
7.94161
20
10.0368
30
8.64
0
VERTEX
10
7.9443
20
10.0341
30
8.64
0
VERTEX
10
7.95147
20
10.0324
30
8.64
0
VERTEX
10
7.95505
20
10.0315
30
8.64
0
VERTEX
10
7.95685
20
10.0306
30
8.64
0
VERTEX
10
7.95685
20
10.0288
30
8.64
0
VERTEX
10
7.96043
20
10.0261
30
8.64
0
VERTEX
10
7.96761
20
10.0234
30
8.64
0
VERTEX
10
7.9694
20
10.0216
30
8.64
0
VERTEX
10
7.98374
20
10.0189
30
8.64
0
VERTEX
10
7.99809
20
10.0189
30
8.64
0
VERTEX
10
8.00526
20
10.0189
30
8.64
0
VERTEX
10
8.01871
20
10.0252
30
8.64
0
VERTEX
10
8.02588
20
10.0279
30
8.64
0
VERTEX
10
8.03305
20
10.0324
30
8.64
0
VERTEX
10
8.03664
20
10.0341
30
8.64
0
VERTEX
10
8.03843
20
10.0341
30
8.64
0
VERTEX
10
8.05098
20
10.044
30
8.64
0
VERTEX
10
8.05457
20
10.0467
30
8.64
0
VERTEX
10
8.06891
20
10.0494
30
8.64
0
VERTEX
10
8.0976
20
10.0476
30
8.64
0
VERTEX
10
8.12629
20
10.0476
30
8.64
0
VERTEX
10
8.13347
20
10.0467
30
8.64
0
VERTEX
10
8.13705
20
10.0458
30
8.64
0
VERTEX
10
8.13885
20
10.0458
30
8.64
0
VERTEX
10
8.14064
20
10.044
30
8.64
0
VERTEX
10
8.15498
20
10.0422
30
8.64
0
VERTEX
10
8.16216
20
10.0422
30
8.64
0
VERTEX
10
8.16574
20
10.0422
30
8.64
0
VERTEX
10
8.16843
20
10.044
30
8.64
0
VERTEX
10
8.17381
20
10.0512
30
8.64
0
VERTEX
10
8.17829
20
10.0655
30
8.64
0
VERTEX
10
8.17829
20
10.0942
30
8.64
0
VERTEX
10
8.17829
20
10.1014
30
8.64
0
VERTEX
10
8.1765
20
10.105
30
8.64
0
VERTEX
10
8.1756
20
10.1193
30
8.64
0
VERTEX
10
8.1756
20
10.1265
30
8.64
0
VERTEX
10
8.1774
20
10.1337
30
8.64
0
VERTEX
10
8.1774
20
10.148
30
8.64
0
VERTEX
10
8.1774
20
10.1552
30
8.64
0
VERTEX
10
8.1774
20
10.1588
30
8.64
0
VERTEX
10
8.17829
20
10.1606
30
8.64
0
VERTEX
10
8.1756
20
10.1641
30
8.64
0
VERTEX
10
8.16843
20
10.165
30
8.64
0
VERTEX
10
8.16126
20
10.1624
30
8.64
0
VERTEX
10
8.15498
20
10.1561
30
8.64
0
VERTEX
10
8.1514
20
10.1525
30
8.64
0
VERTEX
10
8.1496
20
10.1507
30
8.64
0
VERTEX
10
8.14871
20
10.1471
30
8.64
0
VERTEX
10
8.14512
20
10.1435
30
8.64
0
VERTEX
10
8.14422
20
10.1399
30
8.64
0
VERTEX
10
8.14154
20
10.1372
30
8.64
0
VERTEX
10
8.14064
20
10.1301
30
8.64
0
VERTEX
10
8.13436
20
10.1157
30
8.64
0
VERTEX
10
8.13167
20
10.1086
30
8.64
0
VERTEX
10
8.12629
20
10.1023
30
8.64
0
VERTEX
10
8.12271
20
10.1005
30
8.64
0
VERTEX
10
8.11912
20
10.0969
30
8.64
0
VERTEX
10
8.11554
20
10.096
30
8.64
0
VERTEX
10
8.11374
20
10.0942
30
8.64
0
VERTEX
10
8.10657
20
10.0942
30
8.64
0
VERTEX
10
8.10388
20
10.0969
30
8.64
0
VERTEX
10
8.08954
20
10.0978
30
8.64
0
VERTEX
10
8.07519
20
10.1005
30
8.64
0
VERTEX
10
8.0716
20
10.1023
30
8.64
0
VERTEX
10
8.06802
20
10.1023
30
8.64
0
VERTEX
10
8.06085
20
10.1077
30
8.64
0
VERTEX
10
8.05726
20
10.1086
30
8.64
0
VERTEX
10
8.05188
20
10.1157
30
8.64
0
VERTEX
10
8.05188
20
10.1175
30
8.64
0
VERTEX
10
8.04919
20
10.1202
30
8.64
0
VERTEX
10
8.04919
20
10.122
30
8.64
0
VERTEX
10
8.04381
20
10.1283
30
8.64
0
VERTEX
10
8.04023
20
10.1319
30
8.64
0
VERTEX
10
8.03933
20
10.1337
30
8.64
0
VERTEX
10
8.02498
20
10.1337
30
8.64
0
VERTEX
10
8.01781
20
10.1328
30
8.64
0
VERTEX
10
8.00526
20
10.1247
30
8.64
0
VERTEX
10
7.99898
20
10.1202
30
8.64
0
VERTEX
10
7.9954
20
10.1166
30
8.64
0
VERTEX
10
7.99361
20
10.1166
30
8.64
0
VERTEX
10
7.99181
20
10.1148
30
8.64
0
VERTEX
10
7.98464
20
10.1121
30
8.64
0
VERTEX
10
7.97747
20
10.1112
30
8.64
0
VERTEX
10
7.96312
20
10.1121
30
8.64
0
VERTEX
10
7.93443
20
10.1104
30
8.64
0
VERTEX
10
7.92009
20
10.1086
30
8.64
0
VERTEX
10
7.86271
20
10.1095
30
8.64
0
VERTEX
10
7.85912
20
10.1095
30
8.64
0
VERTEX
10
7.85554
20
10.1112
30
8.64
0
VERTEX
10
7.84836
20
10.1112
30
8.64
0
VERTEX
10
7.84478
20
10.113
30
8.64
0
VERTEX
10
7.83043
20
10.1148
30
8.64
0
VERTEX
10
7.81609
20
10.1148
30
8.64
0
VERTEX
10
7.80892
20
10.1166
30
8.64
0
VERTEX
10
7.80533
20
10.1166
30
8.64
0
VERTEX
10
7.79905
20
10.1211
30
8.64
0
VERTEX
10
7.79726
20
10.1211
30
8.64
0
VERTEX
10
7.78292
20
10.1292
30
8.64
0
VERTEX
10
7.77574
20
10.1337
30
8.64
0
VERTEX
10
7.77216
20
10.1346
30
8.64
0
VERTEX
10
7.76499
20
10.139
30
8.64
0
VERTEX
10
7.75064
20
10.1417
30
8.64
0
VERTEX
10
7.74437
20
10.1462
30
8.64
0
VERTEX
10
7.73719
20
10.148
30
8.64
0
VERTEX
10
7.72285
20
10.1471
30
8.64
0
VERTEX
10
7.71926
20
10.1462
30
8.64
0
VERTEX
10
7.71209
20
10.1399
30
8.64
0
VERTEX
10
7.7103
20
10.1364
30
8.64
0
VERTEX
10
7.7103
20
10.1328
30
8.64
0
VERTEX
10
7.7103
20
10.131
30
8.64
0
SEQEND
0
POLYLINE
62
236
66
1
70
1
3
postsynaptic_density
0
VERTEX
10
7.2123
20
9.51989
30
8.64
0
VERTEX
10
7.21298
20
9.51717
30
8.64
0
VERTEX
10
7.21434
20
9.51581
30
8.64
0
VERTEX
10
7.21502
20
9.50493
30
8.64
0
VERTEX
10
7.21502
20
9.50357
30
8.64
0
VERTEX
10
7.22454
20
9.49338
30
8.64
0
VERTEX
10
7.22658
20
9.49066
30
8.64
0
VERTEX
10
7.2293
20
9.49066
30
8.64
0
VERTEX
10
7.24017
20
9.48318
30
8.64
0
VERTEX
10
7.25105
20
9.47775
30
8.64
0
VERTEX
10
7.26192
20
9.47435
30
8.64
0
VERTEX
10
7.26736
20
9.47367
30
8.64
0
VERTEX
10
7.27823
20
9.47027
30
8.64
0
VERTEX
10
7.28911
20
9.46551
30
8.64
0
VERTEX
10
7.29455
20
9.46279
30
8.64
0
VERTEX
10
7.29727
20
9.46279
30
8.64
0
VERTEX
10
7.3027
20
9.46075
30
8.64
0
VERTEX
10
7.31358
20
9.46007
30
8.64
0
VERTEX
10
7.3163
20
9.45939
30
8.64
0
VERTEX
10
7.31766
20
9.45803
30
8.64
0
VERTEX
10
7.32853
20
9.45532
30
8.64
0
VERTEX
10
7.33397
20
9.45396
30
8.64
0
VERTEX
10
7.33669
20
9.45396
30
8.64
0
VERTEX
10
7.33805
20
9.45396
30
8.64
0
VERTEX
10
7.33941
20
9.4526
30
8.64
0
VERTEX
10
7.34077
20
9.4526
30
8.64
0
VERTEX
10
7.34213
20
9.45124
30
8.64
0
VERTEX
10
7.353
20
9.44852
30
8.64
0
VERTEX
10
7.35572
20
9.44784
30
8.64
0
VERTEX
10
7.35844
20
9.44512
30
8.64
0
VERTEX
10
7.36116
20
9.44512
30
8.64
0
VERTEX
10
7.37203
20
9.43968
30
8.64
0
VERTEX
10
7.37747
20
9.43696
30
8.64
0
VERTEX
10
7.39922
20
9.4356
30
8.64
0
VERTEX
10
7.4101
20
9.43424
30
8.64
0
VERTEX
10
7.41282
20
9.43424
30
8.64
0
VERTEX
10
7.41417
20
9.43492
30
8.64
0
VERTEX
10
7.41485
20
9.43764
30
8.64
0
VERTEX
10
7.42029
20
9.44104
30
8.64
0
VERTEX
10
7.42369
20
9.44444
30
8.64
0
VERTEX
10
7.43185
20
9.45396
30
8.64
0
VERTEX
10
7.43728
20
9.45871
30
8.64
0
VERTEX
10
7.44136
20
9.46279
30
8.64
0
VERTEX
10
7.44544
20
9.46823
30
8.64
0
VERTEX
10
7.44816
20
9.47367
30
8.64
0
VERTEX
10
7.44952
20
9.47503
30
8.64
0
VERTEX
10
7.44952
20
9.4859
30
8.64
0
VERTEX
10
7.45292
20
9.49134
30
8.64
0
VERTEX
10
7.45496
20
9.49678
30
8.64
0
VERTEX
10
7.457
20
9.49882
30
8.64
0
VERTEX
10
7.45903
20
9.50969
30
8.64
0
VERTEX
10
7.45971
20
9.51513
30
8.64
0
VERTEX
10
7.46039
20
9.51785
30
8.64
0
VERTEX
10
7.46039
20
9.51921
30
8.64
0
VERTEX
10
7.46311
20
9.52125
30
8.64
0
VERTEX
10
7.46447
20
9.52261
30
8.64
0
VERTEX
10
7.46515
20
9.53348
30
8.64
0
VERTEX
10
7.46515
20
9.53892
30
8.64
0
VERTEX
10
7.46651
20
9.54436
30
8.64
0
VERTEX
10
7.46719
20
9.55523
30
8.64
0
VERTEX
10
7.46923
20
9.56611
30
8.64
0
VERTEX
10
7.46923
20
9.56883
30
8.64
0
VERTEX
10
7.47467
20
9.5797
30
8.64
0
VERTEX
10
7.47603
20
9.58106
30
8.64
0
VERTEX
10
7.47603
20
9.58242
30
8.64
0
VERTEX
10
7.48011
20
9.58718
30
8.64
0
VERTEX
10
7.48486
20
9.59805
30
8.64
0
VERTEX
10
7.48622
20
9.60893
30
8.64
0
VERTEX
10
7.48826
20
9.61097
30
8.64
0
VERTEX
10
7.4903
20
9.6164
30
8.64
0
VERTEX
10
7.48826
20
9.61844
30
8.64
0
VERTEX
10
7.31426
20
9.68913
30
8.64
0
VERTEX
10
7.29251
20
9.69797
30
8.64
0
VERTEX
10
7.28979
20
9.69933
30
8.64
0
VERTEX
10
7.28843
20
9.70001
30
8.64
0
VERTEX
10
7.28163
20
9.69049
30
8.64
0
VERTEX
10
7.27891
20
9.68505
30
8.64
0
VERTEX
10
7.27755
20
9.68234
30
8.64
0
VERTEX
10
7.27484
20
9.67962
30
8.64
0
VERTEX
10
7.27416
20
9.6769
30
8.64
0
VERTEX
10
7.27008
20
9.67146
30
8.64
0
VERTEX
10
7.26804
20
9.66942
30
8.64
0
VERTEX
10
7.266
20
9.66466
30
8.64
0
VERTEX
10
7.2626
20
9.65923
30
8.64
0
VERTEX
10
7.26056
20
9.65651
30
8.64
0
VERTEX
10
7.2592
20
9.65107
30
8.64
0
VERTEX
10
7.25716
20
9.64835
30
8.64
0
VERTEX
10
7.2558
20
9.64291
30
8.64
0
VERTEX
10
7.25377
20
9.64019
30
8.64
0
VERTEX
10
7.25377
20
9.63883
30
8.64
0
VERTEX
10
7.25037
20
9.6334
30
8.64
0
VERTEX
10
7.24833
20
9.62796
30
8.64
0
VERTEX
10
7.24629
20
9.62524
30
8.64
0
VERTEX
10
7.24221
20
9.61437
30
8.64
0
VERTEX
10
7.23881
20
9.60961
30
8.64
0
VERTEX
10
7.23405
20
9.60417
30
8.64
0
VERTEX
10
7.22726
20
9.59329
30
8.64
0
VERTEX
10
7.22454
20
9.58786
30
8.64
0
VERTEX
10
7.22114
20
9.57698
30
8.64
0
VERTEX
10
7.22114
20
9.57562
30
8.64
0
VERTEX
10
7.21978
20
9.57426
30
8.64
0
VERTEX
10
7.2191
20
9.56883
30
8.64
0
VERTEX
10
7.21706
20
9.56611
30
8.64
0
VERTEX
10
7.21638
20
9.56339
30
8.64
0
VERTEX
10
7.21638
20
9.56203
30
8.64
0
VERTEX
10
7.21434
20
9.55931
30
8.64
0
VERTEX
10
7.21502
20
9.53756
30
8.64
0
VERTEX
10
7.21366
20
9.53212
30
8.64
0
VERTEX
10
7.21366
20
9.5294
30
8.64
0
VERTEX
10
7.2123
20
9.52668
30
8.64
0
VERTEX
10
7.2123
20
9.52125
30
8.64
0
VERTEX
10
7.2123
20
9.52057
30
8.64
0
SEQEND
0
ENDSEC
0
EOF
