0
SECTION
2
ENTITIES
0
POLYLINE
62
31
66
1
70
1
3
contour
0
VERTEX
10
9.83405
20
8.22424
30
3.44
0
VERTEX
10
9.84071
20
8.21981
30
3.44
0
VERTEX
10
9.84736
20
8.14885
30
3.44
0
VERTEX
10
9.84958
20
8.13111
30
3.44
0
VERTEX
10
9.84958
20
8.12224
30
3.44
0
VERTEX
10
9.85623
20
8.11781
30
3.44
0
VERTEX
10
9.85845
20
8.10007
30
3.44
0
VERTEX
10
9.86953
20
8.06681
30
3.44
0
VERTEX
10
9.86953
20
8.06237
30
3.44
0
VERTEX
10
9.87618
20
8.0535
30
3.44
0
VERTEX
10
9.87618
20
8.04463
30
3.44
0
VERTEX
10
9.88949
20
8.00916
30
3.44
0
VERTEX
10
9.89171
20
8.00029
30
3.44
0
VERTEX
10
9.89836
20
7.99142
30
3.44
0
VERTEX
10
9.90501
20
7.97368
30
3.44
0
VERTEX
10
9.9161
20
7.95816
30
3.44
0
VERTEX
10
9.92275
20
7.9515
30
3.44
0
VERTEX
10
9.93162
20
7.94929
30
3.44
0
VERTEX
10
9.94936
20
7.93155
30
3.44
0
VERTEX
10
9.95823
20
7.92711
30
3.44
0
VERTEX
10
9.9671
20
7.92711
30
3.44
0
VERTEX
10
9.98484
20
7.91824
30
3.44
0
VERTEX
10
9.98705
20
7.91381
30
3.44
0
VERTEX
10
9.99592
20
7.91381
30
3.44
0
VERTEX
10
10.0137
20
7.90716
30
3.44
0
VERTEX
10
10.0203
20
7.9005
30
3.44
0
VERTEX
10
10.0891
20
7.88498
30
3.44
0
VERTEX
10
10.16
20
7.87833
30
3.44
0
VERTEX
10
10.1955
20
7.87833
30
3.44
0
VERTEX
10
10.2132
20
7.88277
30
3.44
0
VERTEX
10
10.2221
20
7.88277
30
3.44
0
VERTEX
10
10.231
20
7.88942
30
3.44
0
VERTEX
10
10.2332
20
7.89385
30
3.44
0
VERTEX
10
10.2421
20
7.89607
30
3.44
0
VERTEX
10
10.2509
20
7.90272
30
3.44
0
VERTEX
10
10.2554
20
7.90272
30
3.44
0
VERTEX
10
10.282
20
7.93376
30
3.44
0
VERTEX
10
10.2842
20
7.94263
30
3.44
0
VERTEX
10
10.2953
20
7.95372
30
3.44
0
VERTEX
10
10.3086
20
7.9892
30
3.44
0
VERTEX
10
10.3152
20
8.06016
30
3.44
0
VERTEX
10
10.313
20
8.09563
30
3.44
0
VERTEX
10
10.3174
20
8.16659
30
3.44
0
VERTEX
10
10.3174
20
8.18433
30
3.44
0
VERTEX
10
10.3086
20
8.21981
30
3.44
0
VERTEX
10
10.3019
20
8.23755
30
3.44
0
VERTEX
10
10.2908
20
8.25307
30
3.44
0
VERTEX
10
10.2842
20
8.27081
30
3.44
0
VERTEX
10
10.2753
20
8.27968
30
3.44
0
VERTEX
10
10.2709
20
8.29741
30
3.44
0
VERTEX
10
10.2709
20
8.30185
30
3.44
0
VERTEX
10
10.2554
20
8.31737
30
3.44
0
VERTEX
10
10.2487
20
8.33511
30
3.44
0
VERTEX
10
10.2465
20
8.34398
30
3.44
0
VERTEX
10
10.2398
20
8.35063
30
3.44
0
VERTEX
10
10.2354
20
8.36837
30
3.44
0
VERTEX
10
10.2243
20
8.38389
30
3.44
0
VERTEX
10
10.2199
20
8.38611
30
3.44
0
VERTEX
10
10.2199
20
8.39054
30
3.44
0
VERTEX
10
10.2154
20
8.39498
30
3.44
0
VERTEX
10
10.2154
20
8.39941
30
3.44
0
VERTEX
10
10.1911
20
8.43046
30
3.44
0
VERTEX
10
10.16
20
8.45928
30
3.44
0
VERTEX
10
10.1534
20
8.46815
30
3.44
0
VERTEX
10
10.1511
20
8.47702
30
3.44
0
VERTEX
10
10.1378
20
8.49254
30
3.44
0
VERTEX
10
10.1378
20
8.52802
30
3.44
0
VERTEX
10
10.1378
20
8.53689
30
3.44
0
VERTEX
10
10.1467
20
8.55463
30
3.44
0
VERTEX
10
10.1556
20
8.5635
30
3.44
0
VERTEX
10
10.16
20
8.5635
30
3.44
0
VERTEX
10
10.1755
20
8.5768
30
3.44
0
VERTEX
10
10.1844
20
8.58124
30
3.44
0
VERTEX
10
10.1866
20
8.58567
30
3.44
0
VERTEX
10
10.1955
20
8.58789
30
3.44
0
VERTEX
10
10.1999
20
8.58789
30
3.44
0
VERTEX
10
10.2044
20
8.59233
30
3.44
0
VERTEX
10
10.2088
20
8.59233
30
3.44
0
VERTEX
10
10.2154
20
8.59898
30
3.44
0
VERTEX
10
10.2243
20
8.59898
30
3.44
0
VERTEX
10
10.2332
20
8.60563
30
3.44
0
VERTEX
10
10.3041
20
8.60785
30
3.44
0
VERTEX
10
10.313
20
8.60785
30
3.44
0
VERTEX
10
10.3174
20
8.60785
30
3.44
0
VERTEX
10
10.3219
20
8.60341
30
3.44
0
VERTEX
10
10.3574
20
8.60563
30
3.44
0
VERTEX
10
10.3662
20
8.60563
30
3.44
0
VERTEX
10
10.3751
20
8.60119
30
3.44
0
VERTEX
10
10.3928
20
8.60119
30
3.44
0
VERTEX
10
10.4017
20
8.60119
30
3.44
0
VERTEX
10
10.4061
20
8.60563
30
3.44
0
VERTEX
10
10.4771
20
8.60563
30
3.44
0
VERTEX
10
10.4948
20
8.61006
30
3.44
0
VERTEX
10
10.5037
20
8.6145
30
3.44
0
VERTEX
10
10.5126
20
8.6145
30
3.44
0
VERTEX
10
10.5813
20
8.65219
30
3.44
0
VERTEX
10
10.599
20
8.66106
30
3.44
0
VERTEX
10
10.6345
20
8.66993
30
3.44
0
VERTEX
10
10.67
20
8.68324
30
3.44
0
VERTEX
10
10.67
20
8.68767
30
3.44
0
VERTEX
10
10.6789
20
8.69432
30
3.44
0
VERTEX
10
10.6833
20
8.69432
30
3.44
0
VERTEX
10
10.7121
20
8.72537
30
3.44
0
VERTEX
10
10.7166
20
8.7298
30
3.44
0
VERTEX
10
10.7166
20
8.73424
30
3.44
0
VERTEX
10
10.7321
20
8.74976
30
3.44
0
VERTEX
10
10.7321
20
8.75419
30
3.44
0
VERTEX
10
10.7476
20
8.76971
30
3.44
0
VERTEX
10
10.7565
20
8.77858
30
3.44
0
VERTEX
10
10.7609
20
8.78302
30
3.44
0
VERTEX
10
10.7609
20
8.78745
30
3.44
0
VERTEX
10
10.7853
20
8.82071
30
3.44
0
VERTEX
10
10.7875
20
8.82958
30
3.44
0
VERTEX
10
10.7875
20
8.83402
30
3.44
0
VERTEX
10
10.7942
20
8.84289
30
3.44
0
VERTEX
10
10.8075
20
8.87837
30
3.44
0
VERTEX
10
10.8053
20
8.91384
30
3.44
0
VERTEX
10
10.7986
20
8.93158
30
3.44
0
VERTEX
10
10.7831
20
8.94489
30
3.44
0
VERTEX
10
10.7764
20
8.95376
30
3.44
0
VERTEX
10
10.7609
20
8.96263
30
3.44
0
VERTEX
10
10.7365
20
8.99367
30
3.44
0
VERTEX
10
10.7232
20
9.00919
30
3.44
0
VERTEX
10
10.7144
20
9.01363
30
3.44
0
VERTEX
10
10.7099
20
9.01806
30
3.44
0
VERTEX
10
10.7077
20
9.02693
30
3.44
0
VERTEX
10
10.6922
20
9.04245
30
3.44
0
VERTEX
10
10.6567
20
9.06241
30
3.44
0
VERTEX
10
10.6212
20
9.07793
30
3.44
0
VERTEX
10
10.588
20
9.1001
30
3.44
0
VERTEX
10
10.5857
20
9.10454
30
3.44
0
VERTEX
10
10.5769
20
9.10676
30
3.44
0
VERTEX
10
10.5591
20
9.11784
30
3.44
0
VERTEX
10
10.5569
20
9.12228
30
3.44
0
VERTEX
10
10.5392
20
9.12893
30
3.44
0
VERTEX
10
10.5303
20
9.13336
30
3.44
0
VERTEX
10
10.5259
20
9.14223
30
3.44
0
VERTEX
10
10.497
20
9.16662
30
3.44
0
VERTEX
10
10.4793
20
9.17328
30
3.44
0
VERTEX
10
10.4704
20
9.17106
30
3.44
0
VERTEX
10
10.4682
20
9.16884
30
3.44
0
VERTEX
10
10.4505
20
9.18436
30
3.44
0
VERTEX
10
10.415
20
9.19102
30
3.44
0
VERTEX
10
10.3795
20
9.18436
30
3.44
0
VERTEX
10
10.3441
20
9.17106
30
3.44
0
VERTEX
10
10.3352
20
9.17106
30
3.44
0
VERTEX
10
10.3307
20
9.16662
30
3.44
0
VERTEX
10
10.313
20
9.16219
30
3.44
0
VERTEX
10
10.2953
20
9.15332
30
3.44
0
VERTEX
10
10.2775
20
9.15332
30
3.44
0
VERTEX
10
10.2731
20
9.15332
30
3.44
0
VERTEX
10
10.2642
20
9.14667
30
3.44
0
VERTEX
10
10.2598
20
9.14223
30
3.44
0
VERTEX
10
10.2554
20
9.14223
30
3.44
0
VERTEX
10
10.2487
20
9.13558
30
3.44
0
VERTEX
10
10.2443
20
9.13558
30
3.44
0
VERTEX
10
10.2354
20
9.12893
30
3.44
0
VERTEX
10
10.2243
20
9.11341
30
3.44
0
VERTEX
10
10.2243
20
9.10897
30
3.44
0
VERTEX
10
10.2154
20
9.1001
30
3.44
0
VERTEX
10
10.2154
20
9.09123
30
3.44
0
VERTEX
10
10.2154
20
9.0868
30
3.44
0
VERTEX
10
10.211
20
9.08236
30
3.44
0
VERTEX
10
10.211
20
9.06463
30
3.44
0
VERTEX
10
10.211
20
9.05576
30
3.44
0
VERTEX
10
10.2066
20
9.04689
30
3.44
0
VERTEX
10
10.2066
20
9.01141
30
3.44
0
VERTEX
10
10.2066
20
8.99367
30
3.44
0
VERTEX
10
10.1933
20
8.92271
30
3.44
0
VERTEX
10
10.1977
20
8.88724
30
3.44
0
VERTEX
10
10.1999
20
8.8695
30
3.44
0
VERTEX
10
10.2066
20
8.85398
30
3.44
0
VERTEX
10
10.2177
20
8.83624
30
3.44
0
VERTEX
10
10.2221
20
8.80076
30
3.44
0
VERTEX
10
10.2199
20
8.76528
30
3.44
0
VERTEX
10
10.2154
20
8.74754
30
3.44
0
VERTEX
10
10.1999
20
8.73424
30
3.44
0
VERTEX
10
10.1955
20
8.7298
30
3.44
0
VERTEX
10
10.1911
20
8.7298
30
3.44
0
VERTEX
10
10.1578
20
8.70098
30
3.44
0
VERTEX
10
10.1489
20
8.69432
30
3.44
0
VERTEX
10
10.1445
20
8.68989
30
3.44
0
VERTEX
10
10.1401
20
8.68989
30
3.44
0
VERTEX
10
10.1179
20
8.65441
30
3.44
0
VERTEX
10
10.0913
20
8.62337
30
3.44
0
VERTEX
10
10.058
20
8.59898
30
3.44
0
VERTEX
10
10.0536
20
8.59454
30
3.44
0
VERTEX
10
10.0447
20
8.59233
30
3.44
0
VERTEX
10
10.0314
20
8.57902
30
3.44
0
VERTEX
10
10.0137
20
8.5635
30
3.44
0
VERTEX
10
9.98705
20
8.52802
30
3.44
0
VERTEX
10
9.97375
20
8.5125
30
3.44
0
VERTEX
10
9.95601
20
8.49698
30
3.44
0
VERTEX
10
9.94271
20
8.47924
30
3.44
0
VERTEX
10
9.93605
20
8.47037
30
3.44
0
VERTEX
10
9.93162
20
8.46815
30
3.44
0
VERTEX
10
9.92718
20
8.45041
30
3.44
0
VERTEX
10
9.92053
20
8.44154
30
3.44
0
VERTEX
10
9.91831
20
8.43267
30
3.44
0
VERTEX
10
9.91166
20
8.4238
30
3.44
0
VERTEX
10
9.90723
20
8.40828
30
3.44
0
VERTEX
10
9.89614
20
8.39054
30
3.44
0
VERTEX
10
9.89171
20
8.37281
30
3.44
0
VERTEX
10
9.87397
20
8.33954
30
3.44
0
VERTEX
10
9.87175
20
8.33067
30
3.44
0
VERTEX
10
9.8651
20
8.32181
30
3.44
0
VERTEX
10
9.86288
20
8.31294
30
3.44
0
VERTEX
10
9.86288
20
8.3085
30
3.44
0
VERTEX
10
9.85623
20
8.30185
30
3.44
0
VERTEX
10
9.85623
20
8.29298
30
3.44
0
VERTEX
10
9.84514
20
8.27524
30
3.44
0
VERTEX
10
9.84071
20
8.27081
30
3.44
0
VERTEX
10
9.83405
20
8.23533
30
3.44
0
VERTEX
10
9.83405
20
8.22646
30
3.44
0
SEQEND
0
POLYLINE
62
31
66
1
70
1
3
contour
0
VERTEX
10
10.6167
20
7.81755
30
3.44
0
VERTEX
10
10.6265
20
7.76541
30
3.44
0
VERTEX
10
10.6265
20
7.75238
30
3.44
0
VERTEX
10
10.6624
20
7.70024
30
3.44
0
VERTEX
10
10.6852
20
7.68394
30
3.44
0
VERTEX
10
10.7112
20
7.68069
30
3.44
0
VERTEX
10
10.7634
20
7.68394
30
3.44
0
VERTEX
10
10.7895
20
7.68394
30
3.44
0
VERTEX
10
10.8155
20
7.69046
30
3.44
0
VERTEX
10
10.8286
20
7.69698
30
3.44
0
VERTEX
10
10.8546
20
7.70024
30
3.44
0
VERTEX
10
10.8709
20
7.72305
30
3.44
0
VERTEX
10
10.8807
20
7.73608
30
3.44
0
VERTEX
10
10.8905
20
7.76215
30
3.44
0
VERTEX
10
10.897
20
7.77519
30
3.44
0
VERTEX
10
10.9198
20
7.798
30
3.44
0
VERTEX
10
10.9296
20
7.82407
30
3.44
0
VERTEX
10
10.9296
20
7.85014
30
3.44
0
VERTEX
10
10.9198
20
7.87621
30
3.44
0
VERTEX
10
10.9198
20
7.90228
30
3.44
0
VERTEX
10
10.9133
20
7.92834
30
3.44
0
VERTEX
10
10.9133
20
7.93486
30
3.44
0
VERTEX
10
10.9068
20
7.94138
30
3.44
0
VERTEX
10
10.9003
20
7.94138
30
3.44
0
VERTEX
10
10.9003
20
7.95441
30
3.44
0
VERTEX
10
10.9003
20
7.96093
30
3.44
0
VERTEX
10
10.8937
20
7.96745
30
3.44
0
VERTEX
10
10.8937
20
7.98048
30
3.44
0
VERTEX
10
10.8579
20
8.0261
30
3.44
0
VERTEX
10
10.8546
20
8.03262
30
3.44
0
VERTEX
10
10.8025
20
8.02936
30
3.44
0
VERTEX
10
10.7764
20
8.0261
30
3.44
0
VERTEX
10
10.7536
20
8.01633
30
3.44
0
VERTEX
10
10.7406
20
8.01307
30
3.44
0
VERTEX
10
10.721
20
7.99026
30
3.44
0
VERTEX
10
10.7145
20
7.97722
30
3.44
0
VERTEX
10
10.7015
20
7.96745
30
3.44
0
VERTEX
10
10.7015
20
7.96093
30
3.44
0
VERTEX
10
10.6819
20
7.94138
30
3.44
0
VERTEX
10
10.6721
20
7.91531
30
3.44
0
VERTEX
10
10.6624
20
7.90879
30
3.44
0
VERTEX
10
10.6396
20
7.88272
30
3.44
0
VERTEX
10
10.633
20
7.86969
30
3.44
0
VERTEX
10
10.633
20
7.86317
30
3.44
0
VERTEX
10
10.62
20
7.85014
30
3.44
0
VERTEX
10
10.6167
20
7.82407
30
3.44
0
VERTEX
10
10.6167
20
7.82081
30
3.44
0
SEQEND
0
POLYLINE
62
224
66
1
70
1
3
mitochondrion
0
VERTEX
10
10.0281
20
8.09604
30
3.44
0
VERTEX
10
10.0301
20
8.07931
30
3.44
0
VERTEX
10
10.0322
20
8.07095
30
3.44
0
VERTEX
10
10.0511
20
8.0375
30
3.44
0
VERTEX
10
10.0741
20
8.00404
30
3.44
0
VERTEX
10
10.0782
20
7.99777
30
3.44
0
VERTEX
10
10.0929
20
7.98522
30
3.44
0
VERTEX
10
10.1012
20
7.98313
30
3.44
0
VERTEX
10
10.118
20
7.97268
30
3.44
0
VERTEX
10
10.1263
20
7.9664
30
3.44
0
VERTEX
10
10.1347
20
7.96431
30
3.44
0
VERTEX
10
10.1389
20
7.96013
30
3.44
0
VERTEX
10
10.1556
20
7.95595
30
3.44
0
VERTEX
10
10.1891
20
7.95804
30
3.44
0
VERTEX
10
10.2058
20
7.96222
30
3.44
0
VERTEX
10
10.2141
20
7.9664
30
3.44
0
VERTEX
10
10.2183
20
7.97268
30
3.44
0
VERTEX
10
10.2351
20
7.98104
30
3.44
0
VERTEX
10
10.2497
20
7.99359
30
3.44
0
VERTEX
10
10.2601
20
8.00822
30
3.44
0
VERTEX
10
10.2643
20
8.04168
30
3.44
0
VERTEX
10
10.2622
20
8.07513
30
3.44
0
VERTEX
10
10.256
20
8.09186
30
3.44
0
VERTEX
10
10.2539
20
8.10859
30
3.44
0
VERTEX
10
10.2476
20
8.12531
30
3.44
0
VERTEX
10
10.2455
20
8.14204
30
3.44
0
VERTEX
10
10.2225
20
8.1755
30
3.44
0
VERTEX
10
10.2079
20
8.19013
30
3.44
0
VERTEX
10
10.1995
20
8.1985
30
3.44
0
VERTEX
10
10.1786
20
8.2215
30
3.44
0
VERTEX
10
10.1702
20
8.2215
30
3.44
0
VERTEX
10
10.1535
20
8.22986
30
3.44
0
VERTEX
10
10.1201
20
8.23613
30
3.44
0
VERTEX
10
10.1033
20
8.23822
30
3.44
0
VERTEX
10
10.0866
20
8.23613
30
3.44
0
VERTEX
10
10.0699
20
8.22986
30
3.44
0
VERTEX
10
10.0615
20
8.22986
30
3.44
0
VERTEX
10
10.0531
20
8.22359
30
3.44
0
VERTEX
10
10.049
20
8.22359
30
3.44
0
VERTEX
10
10.0469
20
8.21522
30
3.44
0
VERTEX
10
10.049
20
8.20686
30
3.44
0
VERTEX
10
10.0406
20
8.20477
30
3.44
0
VERTEX
10
10.0322
20
8.1964
30
3.44
0
VERTEX
10
10.0281
20
8.19222
30
3.44
0
VERTEX
10
10.0281
20
8.12531
30
3.44
0
VERTEX
10
10.0281
20
8.10859
30
3.44
0
VERTEX
10
10.0281
20
8.10022
30
3.44
0
VERTEX
10
10.0281
20
8.09813
30
3.44
0
SEQEND
0
POLYLINE
62
227
66
1
70
1
3
endoplasmic_reticulum
0
VERTEX
10
10.0627
20
8.45775
30
3.44
0
VERTEX
10
10.0776
20
8.44656
30
3.44
0
VERTEX
10
10.0926
20
8.45216
30
3.44
0
VERTEX
10
10.0963
20
8.45962
30
3.44
0
VERTEX
10
10.0963
20
8.47455
30
3.44
0
VERTEX
10
10.0814
20
8.48388
30
3.44
0
VERTEX
10
10.0739
20
8.48761
30
3.44
0
VERTEX
10
10.0664
20
8.48575
30
3.44
0
VERTEX
10
10.0627
20
8.47828
30
3.44
0
VERTEX
10
10.0627
20
8.46335
30
3.44
0
VERTEX
10
10.0627
20
8.45962
30
3.44
0
SEQEND
0
POLYLINE
62
227
66
1
70
1
3
endoplasmic_reticulum
0
VERTEX
10
10.0832
20
8.41483
30
3.44
0
VERTEX
10
10.087
20
8.3999
30
3.44
0
VERTEX
10
10.087
20
8.39617
30
3.44
0
VERTEX
10
10.0926
20
8.3887
30
3.44
0
VERTEX
10
10.0926
20
8.38124
30
3.44
0
VERTEX
10
10.1056
20
8.37004
30
3.44
0
VERTEX
10
10.1206
20
8.36444
30
3.44
0
VERTEX
10
10.128
20
8.36444
30
3.44
0
VERTEX
10
10.1318
20
8.37191
30
3.44
0
VERTEX
10
10.1318
20
8.37937
30
3.44
0
VERTEX
10
10.128
20
8.38124
30
3.44
0
VERTEX
10
10.1224
20
8.39617
30
3.44
0
VERTEX
10
10.1168
20
8.40363
30
3.44
0
VERTEX
10
10.115
20
8.41856
30
3.44
0
VERTEX
10
10.1112
20
8.42603
30
3.44
0
VERTEX
10
10.1075
20
8.42976
30
3.44
0
VERTEX
10
10.0926
20
8.42976
30
3.44
0
VERTEX
10
10.087
20
8.43349
30
3.44
0
VERTEX
10
10.0832
20
8.43163
30
3.44
0
VERTEX
10
10.0832
20
8.4167
30
3.44
0
SEQEND
0
POLYLINE
62
227
66
1
70
1
3
endoplasmic_reticulum
0
VERTEX
10
10.1728
20
8.27486
30
3.44
0
VERTEX
10
10.1747
20
8.2674
30
3.44
0
VERTEX
10
10.1822
20
8.26553
30
3.44
0
VERTEX
10
10.1971
20
8.27113
30
3.44
0
VERTEX
10
10.2064
20
8.28419
30
3.44
0
VERTEX
10
10.2045
20
8.29912
30
3.44
0
VERTEX
10
10.2027
20
8.30659
30
3.44
0
VERTEX
10
10.1896
20
8.31592
30
3.44
0
VERTEX
10
10.1822
20
8.31779
30
3.44
0
VERTEX
10
10.1766
20
8.30286
30
3.44
0
VERTEX
10
10.1766
20
8.29539
30
3.44
0
VERTEX
10
10.1728
20
8.29166
30
3.44
0
VERTEX
10
10.1728
20
8.27673
30
3.44
0
SEQEND
0
POLYLINE
62
227
66
1
70
1
3
endoplasmic_reticulum
0
VERTEX
10
9.96211
20
8.236
30
3.44
0
VERTEX
10
9.9743
20
8.23142
30
3.44
0
VERTEX
10
9.99867
20
8.23447
30
3.44
0
VERTEX
10
10.0048
20
8.236
30
3.44
0
VERTEX
10
10.0109
20
8.24057
30
3.44
0
VERTEX
10
10.0215
20
8.24514
30
3.44
0
VERTEX
10
10.0261
20
8.24971
30
3.44
0
VERTEX
10
10.0322
20
8.25123
30
3.44
0
VERTEX
10
10.0429
20
8.25885
30
3.44
0
VERTEX
10
10.0474
20
8.26342
30
3.44
0
VERTEX
10
10.0505
20
8.26342
30
3.44
0
VERTEX
10
10.0611
20
8.27104
30
3.44
0
VERTEX
10
10.0627
20
8.27408
30
3.44
0
VERTEX
10
10.0657
20
8.27408
30
3.44
0
VERTEX
10
10.0672
20
8.27713
30
3.44
0
VERTEX
10
10.0794
20
8.27713
30
3.44
0
VERTEX
10
10.0855
20
8.27865
30
3.44
0
VERTEX
10
10.0931
20
8.29084
30
3.44
0
VERTEX
10
10.0931
20
8.29389
30
3.44
0
VERTEX
10
10.0962
20
8.29693
30
3.44
0
VERTEX
10
10.0947
20
8.30912
30
3.44
0
VERTEX
10
10.0901
20
8.32131
30
3.44
0
VERTEX
10
10.0825
20
8.32893
30
3.44
0
VERTEX
10
10.0703
20
8.32588
30
3.44
0
VERTEX
10
10.0642
20
8.32588
30
3.44
0
VERTEX
10
10.0611
20
8.32283
30
3.44
0
VERTEX
10
10.055
20
8.32131
30
3.44
0
VERTEX
10
10.0444
20
8.31065
30
3.44
0
VERTEX
10
10.0398
20
8.3076
30
3.44
0
VERTEX
10
10.0231
20
8.28627
30
3.44
0
VERTEX
10
10.0124
20
8.27865
30
3.44
0
VERTEX
10
10.0093
20
8.27561
30
3.44
0
VERTEX
10
10.0032
20
8.27408
30
3.44
0
VERTEX
10
9.99715
20
8.26951
30
3.44
0
VERTEX
10
9.99106
20
8.26799
30
3.44
0
VERTEX
10
9.98801
20
8.26646
30
3.44
0
VERTEX
10
9.98496
20
8.26799
30
3.44
0
VERTEX
10
9.97278
20
8.26189
30
3.44
0
VERTEX
10
9.96363
20
8.24971
30
3.44
0
VERTEX
10
9.96211
20
8.23752
30
3.44
0
SEQEND
0
POLYLINE
62
236
66
1
70
1
3
postsynaptic_density
0
VERTEX
10
10.4377
20
9.03173
30
3.44
0
VERTEX
10
10.4409
20
9.02845
30
3.44
0
VERTEX
10
10.4442
20
9.01531
30
3.44
0
VERTEX
10
10.4442
20
9.00874
30
3.44
0
VERTEX
10
10.4475
20
9.00381
30
3.44
0
VERTEX
10
10.4738
20
8.98246
30
3.44
0
VERTEX
10
10.4771
20
8.97917
30
3.44
0
VERTEX
10
10.4804
20
8.97917
30
3.44
0
VERTEX
10
10.4836
20
8.97589
30
3.44
0
VERTEX
10
10.4836
20
8.9726
30
3.44
0
VERTEX
10
10.4968
20
8.96439
30
3.44
0
VERTEX
10
10.5033
20
8.96275
30
3.44
0
VERTEX
10
10.5148
20
8.95454
30
3.44
0
VERTEX
10
10.5214
20
8.95125
30
3.44
0
VERTEX
10
10.528
20
8.94468
30
3.44
0
VERTEX
10
10.5411
20
8.9414
30
3.44
0
VERTEX
10
10.5477
20
8.93811
30
3.44
0
VERTEX
10
10.574
20
8.93647
30
3.44
0
VERTEX
10
10.5871
20
8.93811
30
3.44
0
VERTEX
10
10.5937
20
8.93811
30
3.44
0
VERTEX
10
10.6052
20
8.94632
30
3.44
0
VERTEX
10
10.6101
20
8.95289
30
3.44
0
VERTEX
10
10.6232
20
8.95782
30
3.44
0
VERTEX
10
10.6282
20
8.96275
30
3.44
0
VERTEX
10
10.6347
20
8.96439
30
3.44
0
VERTEX
10
10.6364
20
8.96768
30
3.44
0
VERTEX
10
10.643
20
8.96932
30
3.44
0
VERTEX
10
10.6545
20
8.97753
30
3.44
0
VERTEX
10
10.6742
20
9.00052
30
3.44
0
VERTEX
10
10.684
20
9.01202
30
3.44
0
VERTEX
10
10.6906
20
9.01695
30
3.44
0
VERTEX
10
10.6939
20
9.01695
30
3.44
0
VERTEX
10
10.7004
20
9.02352
30
3.44
0
VERTEX
10
10.7037
20
9.02516
30
3.44
0
VERTEX
10
10.7054
20
9.03173
30
3.44
0
VERTEX
10
10.7152
20
9.04487
30
3.44
0
VERTEX
10
10.7251
20
9.07115
30
3.44
0
VERTEX
10
10.7316
20
9.08429
30
3.44
0
VERTEX
10
10.7431
20
9.0925
30
3.44
0
VERTEX
10
10.7481
20
9.09743
30
3.44
0
VERTEX
10
10.7497
20
9.11057
30
3.44
0
VERTEX
10
10.7431
20
9.16313
30
3.44
0
VERTEX
10
10.7399
20
9.1894
30
3.44
0
VERTEX
10
10.7382
20
9.20254
30
3.44
0
VERTEX
10
10.7366
20
9.20911
30
3.44
0
VERTEX
10
10.7234
20
9.2124
30
3.44
0
VERTEX
10
10.7202
20
9.21568
30
3.44
0
VERTEX
10
10.7169
20
9.21568
30
3.44
0
VERTEX
10
10.7119
20
9.22061
30
3.44
0
VERTEX
10
10.7054
20
9.22225
30
3.44
0
VERTEX
10
10.6939
20
9.23375
30
3.44
0
VERTEX
10
10.6873
20
9.23868
30
3.44
0
VERTEX
10
10.661
20
9.24525
30
3.44
0
VERTEX
10
10.6545
20
9.24525
30
3.44
0
VERTEX
10
10.6479
20
9.25017
30
3.44
0
VERTEX
10
10.6347
20
9.25182
30
3.44
0
VERTEX
10
10.6315
20
9.2551
30
3.44
0
VERTEX
10
10.6249
20
9.2551
30
3.44
0
VERTEX
10
10.6183
20
9.25839
30
3.44
0
VERTEX
10
10.6052
20
9.25839
30
3.44
0
VERTEX
10
10.5937
20
9.25017
30
3.44
0
VERTEX
10
10.5871
20
9.24853
30
3.44
0
VERTEX
10
10.5756
20
9.23703
30
3.44
0
VERTEX
10
10.569
20
9.23375
30
3.44
0
VERTEX
10
10.5608
20
9.22061
30
3.44
0
VERTEX
10
10.5493
20
9.20911
30
3.44
0
VERTEX
10
10.5444
20
9.20254
30
3.44
0
VERTEX
10
10.5378
20
9.19926
30
3.44
0
VERTEX
10
10.5346
20
9.19597
30
3.44
0
VERTEX
10
10.528
20
9.19433
30
3.44
0
VERTEX
10
10.505
20
9.17462
30
3.44
0
VERTEX
10
10.5001
20
9.16805
30
3.44
0
VERTEX
10
10.5001
20
9.16477
30
3.44
0
VERTEX
10
10.4886
20
9.15491
30
3.44
0
VERTEX
10
10.4853
20
9.15163
30
3.44
0
VERTEX
10
10.482
20
9.15163
30
3.44
0
VERTEX
10
10.4787
20
9.14506
30
3.44
0
VERTEX
10
10.4672
20
9.13356
30
3.44
0
VERTEX
10
10.4656
20
9.12699
30
3.44
0
VERTEX
10
10.4541
20
9.11714
30
3.44
0
VERTEX
10
10.4524
20
9.11057
30
3.44
0
VERTEX
10
10.4475
20
9.104
30
3.44
0
VERTEX
10
10.4409
20
9.07772
30
3.44
0
VERTEX
10
10.4377
20
9.06458
30
3.44
0
VERTEX
10
10.4377
20
9.0383
30
3.44
0
VERTEX
10
10.4377
20
9.03337
30
3.44
0
SEQEND
0
ENDSEC
0
EOF
