0
SECTION
2
ENTITIES
0
POLYLINE
62
31
66
1
70
1
3
contour
0
VERTEX
10
6.2322
20
10.9681
30
9.24
0
VERTEX
10
6.24306
20
10.9247
30
9.24
0
VERTEX
10
6.24578
20
10.9138
30
9.24
0
VERTEX
10
6.25121
20
10.9111
30
9.24
0
VERTEX
10
6.25392
20
10.8894
30
9.24
0
VERTEX
10
6.25664
20
10.8785
30
9.24
0
VERTEX
10
6.26207
20
10.8731
30
9.24
0
VERTEX
10
6.2675
20
10.8514
30
9.24
0
VERTEX
10
6.28108
20
10.8296
30
9.24
0
VERTEX
10
6.28923
20
10.8215
30
9.24
0
VERTEX
10
6.29194
20
10.8106
30
9.24
0
VERTEX
10
6.31095
20
10.7889
30
9.24
0
VERTEX
10
6.35168
20
10.7563
30
9.24
0
VERTEX
10
6.39513
20
10.7346
30
9.24
0
VERTEX
10
6.41686
20
10.7319
30
9.24
0
VERTEX
10
6.42229
20
10.7319
30
9.24
0
VERTEX
10
6.425
20
10.7264
30
9.24
0
VERTEX
10
6.44673
20
10.721
30
9.24
0
VERTEX
10
6.49018
20
10.7183
30
9.24
0
VERTEX
10
6.5119
20
10.721
30
9.24
0
VERTEX
10
6.51733
20
10.7264
30
9.24
0
VERTEX
10
6.52276
20
10.7264
30
9.24
0
VERTEX
10
6.54177
20
10.7427
30
9.24
0
VERTEX
10
6.55263
20
10.7482
30
9.24
0
VERTEX
10
6.55535
20
10.759
30
9.24
0
VERTEX
10
6.57436
20
10.778
30
9.24
0
VERTEX
10
6.60423
20
10.8188
30
9.24
0
VERTEX
10
6.60423
20
10.8296
30
9.24
0
VERTEX
10
6.60423
20
10.8351
30
9.24
0
VERTEX
10
6.61238
20
10.8432
30
9.24
0
VERTEX
10
6.62052
20
10.8867
30
9.24
0
VERTEX
10
6.61781
20
10.9301
30
9.24
0
VERTEX
10
6.61238
20
10.9518
30
9.24
0
VERTEX
10
6.61238
20
10.9627
30
9.24
0
VERTEX
10
6.61238
20
10.9681
30
9.24
0
VERTEX
10
6.60423
20
10.979
30
9.24
0
VERTEX
10
6.60423
20
10.9899
30
9.24
0
VERTEX
10
6.59065
20
11.0116
30
9.24
0
VERTEX
10
6.58251
20
11.0224
30
9.24
0
VERTEX
10
6.58251
20
11.0279
30
9.24
0
VERTEX
10
6.56893
20
11.0496
30
9.24
0
VERTEX
10
6.54992
20
11.0713
30
9.24
0
VERTEX
10
6.53091
20
11.0876
30
9.24
0
VERTEX
10
6.52005
20
11.093
30
9.24
0
VERTEX
10
6.50919
20
11.1039
30
9.24
0
VERTEX
10
6.50375
20
11.1039
30
9.24
0
VERTEX
10
6.46031
20
11.1311
30
9.24
0
VERTEX
10
6.43858
20
11.1446
30
9.24
0
VERTEX
10
6.41686
20
11.1474
30
9.24
0
VERTEX
10
6.39785
20
11.1555
30
9.24
0
VERTEX
10
6.38699
20
11.1609
30
9.24
0
VERTEX
10
6.37612
20
11.1718
30
9.24
0
VERTEX
10
6.3544
20
11.1745
30
9.24
0
VERTEX
10
6.34897
20
11.1745
30
9.24
0
VERTEX
10
6.34354
20
11.1854
30
9.24
0
VERTEX
10
6.32181
20
11.1745
30
9.24
0
VERTEX
10
6.31367
20
11.1664
30
9.24
0
VERTEX
10
6.3028
20
11.1636
30
9.24
0
VERTEX
10
6.28379
20
11.1446
30
9.24
0
VERTEX
10
6.27022
20
11.1256
30
9.24
0
VERTEX
10
6.26207
20
11.1148
30
9.24
0
VERTEX
10
6.25935
20
11.093
30
9.24
0
VERTEX
10
6.25392
20
11.0822
30
9.24
0
VERTEX
10
6.25392
20
11.0713
30
9.24
0
VERTEX
10
6.24578
20
11.0496
30
9.24
0
VERTEX
10
6.2322
20
11.0279
30
9.24
0
VERTEX
10
6.2322
20
10.9844
30
9.24
0
VERTEX
10
6.2322
20
10.9736
30
9.24
0
VERTEX
10
6.2322
20
10.9708
30
9.24
0
SEQEND
0
POLYLINE
62
224
66
1
70
1
3
mitochondrion
0
VERTEX
10
7.52918
20
10.5269
30
9.24
0
VERTEX
10
7.53057
20
10.5047
30
9.24
0
VERTEX
10
7.53613
20
10.4825
30
9.24
0
VERTEX
10
7.5403
20
10.4713
30
9.24
0
VERTEX
10
7.54169
20
10.4658
30
9.24
0
VERTEX
10
7.56116
20
10.4449
30
9.24
0
VERTEX
10
7.56116
20
10.4421
30
9.24
0
VERTEX
10
7.56672
20
10.438
30
9.24
0
VERTEX
10
7.57367
20
10.4268
30
9.24
0
VERTEX
10
7.5848
20
10.4199
30
9.24
0
VERTEX
10
7.58758
20
10.4171
30
9.24
0
VERTEX
10
7.58897
20
10.4115
30
9.24
0
VERTEX
10
7.5987
20
10.4018
30
9.24
0
VERTEX
10
7.60982
20
10.3976
30
9.24
0
VERTEX
10
7.61399
20
10.3935
30
9.24
0
VERTEX
10
7.61956
20
10.3921
30
9.24
0
VERTEX
10
7.62512
20
10.3879
30
9.24
0
VERTEX
10
7.71411
20
10.3851
30
9.24
0
VERTEX
10
7.71967
20
10.3851
30
9.24
0
VERTEX
10
7.72245
20
10.3851
30
9.24
0
VERTEX
10
7.72523
20
10.3879
30
9.24
0
VERTEX
10
7.73635
20
10.3907
30
9.24
0
VERTEX
10
7.74609
20
10.399
30
9.24
0
VERTEX
10
7.75026
20
10.4046
30
9.24
0
VERTEX
10
7.77111
20
10.4199
30
9.24
0
VERTEX
10
7.78085
20
10.4282
30
9.24
0
VERTEX
10
7.78919
20
10.4393
30
9.24
0
VERTEX
10
7.79475
20
10.4435
30
9.24
0
VERTEX
10
7.81422
20
10.4852
30
9.24
0
VERTEX
10
7.81978
20
10.4964
30
9.24
0
VERTEX
10
7.82534
20
10.5186
30
9.24
0
VERTEX
10
7.82395
20
10.5408
30
9.24
0
VERTEX
10
7.82117
20
10.552
30
9.24
0
VERTEX
10
7.82117
20
10.5575
30
9.24
0
VERTEX
10
7.81839
20
10.5631
30
9.24
0
VERTEX
10
7.817
20
10.5742
30
9.24
0
VERTEX
10
7.80309
20
10.5965
30
9.24
0
VERTEX
10
7.78641
20
10.6159
30
9.24
0
VERTEX
10
7.77806
20
10.6257
30
9.24
0
VERTEX
10
7.75582
20
10.6465
30
9.24
0
VERTEX
10
7.73357
20
10.6632
30
9.24
0
VERTEX
10
7.72801
20
10.6646
30
9.24
0
VERTEX
10
7.72523
20
10.6646
30
9.24
0
VERTEX
10
7.72245
20
10.6674
30
9.24
0
VERTEX
10
7.71132
20
10.6688
30
9.24
0
VERTEX
10
7.70576
20
10.6688
30
9.24
0
VERTEX
10
7.69603
20
10.6757
30
9.24
0
VERTEX
10
7.68491
20
10.6785
30
9.24
0
VERTEX
10
7.64041
20
10.6799
30
9.24
0
VERTEX
10
7.62929
20
10.6785
30
9.24
0
VERTEX
10
7.62373
20
10.6771
30
9.24
0
VERTEX
10
7.62095
20
10.6757
30
9.24
0
VERTEX
10
7.61817
20
10.6868
30
9.24
0
VERTEX
10
7.61678
20
10.6896
30
9.24
0
VERTEX
10
7.60565
20
10.6841
30
9.24
0
VERTEX
10
7.59453
20
10.6813
30
9.24
0
VERTEX
10
7.5834
20
10.6757
30
9.24
0
VERTEX
10
7.56255
20
10.6576
30
9.24
0
VERTEX
10
7.55282
20
10.6493
30
9.24
0
VERTEX
10
7.54447
20
10.6271
30
9.24
0
VERTEX
10
7.54169
20
10.6243
30
9.24
0
VERTEX
10
7.54169
20
10.6215
30
9.24
0
VERTEX
10
7.53752
20
10.6159
30
9.24
0
VERTEX
10
7.53335
20
10.6048
30
9.24
0
VERTEX
10
7.52918
20
10.5603
30
9.24
0
VERTEX
10
7.52918
20
10.5381
30
9.24
0
VERTEX
10
7.52918
20
10.5283
30
9.24
0
SEQEND
0
POLYLINE
62
31
66
1
70
1
3
contour
0
VERTEX
10
7.35854
20
10.5031
30
9.24
0
VERTEX
10
7.36228
20
10.4733
30
9.24
0
VERTEX
10
7.37161
20
10.4434
30
9.24
0
VERTEX
10
7.37161
20
10.436
30
9.24
0
VERTEX
10
7.37721
20
10.421
30
9.24
0
VERTEX
10
7.37721
20
10.4136
30
9.24
0
VERTEX
10
7.38654
20
10.3986
30
9.24
0
VERTEX
10
7.39214
20
10.3912
30
9.24
0
VERTEX
10
7.394
20
10.3837
30
9.24
0
VERTEX
10
7.3996
20
10.3762
30
9.24
0
VERTEX
10
7.4052
20
10.3613
30
9.24
0
VERTEX
10
7.40893
20
10.3576
30
9.24
0
VERTEX
10
7.4108
20
10.3501
30
9.24
0
VERTEX
10
7.422
20
10.3352
30
9.24
0
VERTEX
10
7.42386
20
10.3277
30
9.24
0
VERTEX
10
7.43506
20
10.3147
30
9.24
0
VERTEX
10
7.43879
20
10.3109
30
9.24
0
VERTEX
10
7.44066
20
10.3035
30
9.24
0
VERTEX
10
7.46492
20
10.2773
30
9.24
0
VERTEX
10
7.47052
20
10.2717
30
9.24
0
VERTEX
10
7.49851
20
10.2587
30
9.24
0
VERTEX
10
7.52837
20
10.2512
30
9.24
0
VERTEX
10
7.53584
20
10.2475
30
9.24
0
VERTEX
10
7.53957
20
10.2475
30
9.24
0
VERTEX
10
7.5433
20
10.2437
30
9.24
0
VERTEX
10
7.57316
20
10.2344
30
9.24
0
VERTEX
10
7.58063
20
10.2325
30
9.24
0
VERTEX
10
7.58436
20
10.2325
30
9.24
0
VERTEX
10
7.58809
20
10.2288
30
9.24
0
VERTEX
10
7.70753
20
10.2288
30
9.24
0
VERTEX
10
7.73739
20
10.2307
30
9.24
0
VERTEX
10
7.75232
20
10.2307
30
9.24
0
VERTEX
10
7.78218
20
10.2363
30
9.24
0
VERTEX
10
7.81204
20
10.2456
30
9.24
0
VERTEX
10
7.84003
20
10.2624
30
9.24
0
VERTEX
10
7.86429
20
10.2867
30
9.24
0
VERTEX
10
7.89229
20
10.3128
30
9.24
0
VERTEX
10
7.89975
20
10.3165
30
9.24
0
VERTEX
10
7.90722
20
10.324
30
9.24
0
VERTEX
10
7.91095
20
10.324
30
9.24
0
VERTEX
10
7.91282
20
10.3277
30
9.24
0
VERTEX
10
7.92028
20
10.3296
30
9.24
0
VERTEX
10
7.93521
20
10.3389
30
9.24
0
VERTEX
10
7.93708
20
10.3426
30
9.24
0
VERTEX
10
7.94454
20
10.3445
30
9.24
0
VERTEX
10
7.95201
20
10.3501
30
9.24
0
VERTEX
10
7.95574
20
10.3501
30
9.24
0
VERTEX
10
7.95947
20
10.3538
30
9.24
0
VERTEX
10
7.9632
20
10.3538
30
9.24
0
VERTEX
10
7.96694
20
10.3576
30
9.24
0
VERTEX
10
7.9968
20
10.3576
30
9.24
0
VERTEX
10
8.00426
20
10.3613
30
9.24
0
VERTEX
10
8.01173
20
10.3613
30
9.24
0
VERTEX
10
8.01919
20
10.3669
30
9.24
0
VERTEX
10
8.03412
20
10.3669
30
9.24
0
VERTEX
10
8.03972
20
10.3725
30
9.24
0
VERTEX
10
8.05465
20
10.3762
30
9.24
0
VERTEX
10
8.08264
20
10.3912
30
9.24
0
VERTEX
10
8.08824
20
10.3968
30
9.24
0
VERTEX
10
8.09384
20
10.4098
30
9.24
0
VERTEX
10
8.09757
20
10.4397
30
9.24
0
VERTEX
10
8.09571
20
10.5591
30
9.24
0
VERTEX
10
8.09011
20
10.6188
30
9.24
0
VERTEX
10
8.08637
20
10.6338
30
9.24
0
VERTEX
10
8.08637
20
10.6412
30
9.24
0
VERTEX
10
8.08078
20
10.6562
30
9.24
0
VERTEX
10
8.08264
20
10.686
30
9.24
0
VERTEX
10
8.08078
20
10.701
30
9.24
0
VERTEX
10
8.08078
20
10.7084
30
9.24
0
VERTEX
10
8.07144
20
10.7234
30
9.24
0
VERTEX
10
8.06585
20
10.7308
30
9.24
0
VERTEX
10
8.06025
20
10.7458
30
9.24
0
VERTEX
10
8.02479
20
10.8036
30
9.24
0
VERTEX
10
8.01173
20
10.8167
30
9.24
0
VERTEX
10
8.00239
20
10.8297
30
9.24
0
VERTEX
10
7.99866
20
10.8353
30
9.24
0
VERTEX
10
7.9912
20
10.8391
30
9.24
0
VERTEX
10
7.9632
20
10.8633
30
9.24
0
VERTEX
10
7.93708
20
10.882
30
9.24
0
VERTEX
10
7.92215
20
10.8913
30
9.24
0
VERTEX
10
7.86243
20
10.91
30
9.24
0
VERTEX
10
7.85496
20
10.9137
30
9.24
0
VERTEX
10
7.79524
20
10.9118
30
9.24
0
VERTEX
10
7.78031
20
10.91
30
9.24
0
VERTEX
10
7.77285
20
10.91
30
9.24
0
VERTEX
10
7.75978
20
10.8969
30
9.24
0
VERTEX
10
7.75419
20
10.8913
30
9.24
0
VERTEX
10
7.74112
20
10.8857
30
9.24
0
VERTEX
10
7.72619
20
10.8764
30
9.24
0
VERTEX
10
7.69633
20
10.8745
30
9.24
0
VERTEX
10
7.63661
20
10.8801
30
9.24
0
VERTEX
10
7.60675
20
10.8801
30
9.24
0
VERTEX
10
7.57689
20
10.8708
30
9.24
0
VERTEX
10
7.56196
20
10.8652
30
9.24
0
VERTEX
10
7.54703
20
10.8652
30
9.24
0
VERTEX
10
7.5321
20
10.8615
30
9.24
0
VERTEX
10
7.52837
20
10.8577
30
9.24
0
VERTEX
10
7.51344
20
10.854
30
9.24
0
VERTEX
10
7.48358
20
10.8391
30
9.24
0
VERTEX
10
7.45559
20
10.8204
30
9.24
0
VERTEX
10
7.43506
20
10.7943
30
9.24
0
VERTEX
10
7.42946
20
10.7868
30
9.24
0
VERTEX
10
7.42573
20
10.7719
30
9.24
0
VERTEX
10
7.41453
20
10.7588
30
9.24
0
VERTEX
10
7.40893
20
10.7514
30
9.24
0
VERTEX
10
7.4052
20
10.7364
30
9.24
0
VERTEX
10
7.4052
20
10.7327
30
9.24
0
VERTEX
10
7.40147
20
10.729
30
9.24
0
VERTEX
10
7.39027
20
10.6991
30
9.24
0
VERTEX
10
7.39027
20
10.6842
30
9.24
0
VERTEX
10
7.38281
20
10.6543
30
9.24
0
VERTEX
10
7.38094
20
10.6394
30
9.24
0
VERTEX
10
7.37721
20
10.6319
30
9.24
0
VERTEX
10
7.37721
20
10.617
30
9.24
0
VERTEX
10
7.36414
20
10.5573
30
9.24
0
VERTEX
10
7.35854
20
10.5498
30
9.24
0
VERTEX
10
7.35854
20
10.5199
30
9.24
0
VERTEX
10
7.35854
20
10.505
30
9.24
0
SEQEND
0
POLYLINE
62
227
66
1
70
1
3
endoplasmic_reticulum
0
VERTEX
10
7.52919
20
10.7496
30
9.24
0
VERTEX
10
7.53009
20
10.7424
30
9.24
0
VERTEX
10
7.53188
20
10.7388
30
9.24
0
VERTEX
10
7.53547
20
10.737
30
9.24
0
VERTEX
10
7.53726
20
10.737
30
9.24
0
VERTEX
10
7.54444
20
10.7326
30
9.24
0
VERTEX
10
7.54802
20
10.7317
30
9.24
0
VERTEX
10
7.54981
20
10.7299
30
9.24
0
VERTEX
10
7.55699
20
10.729
30
9.24
0
VERTEX
10
7.56057
20
10.7263
30
9.24
0
VERTEX
10
7.58926
20
10.7272
30
9.24
0
VERTEX
10
7.59106
20
10.729
30
9.24
0
VERTEX
10
7.59823
20
10.7299
30
9.24
0
VERTEX
10
7.60181
20
10.7326
30
9.24
0
VERTEX
10
7.60361
20
10.7361
30
9.24
0
VERTEX
10
7.6054
20
10.7379
30
9.24
0
VERTEX
10
7.6054
20
10.7415
30
9.24
0
VERTEX
10
7.60181
20
10.7487
30
9.24
0
VERTEX
10
7.60092
20
10.7523
30
9.24
0
VERTEX
10
7.59823
20
10.755
30
9.24
0
VERTEX
10
7.59823
20
10.7568
30
9.24
0
VERTEX
10
7.58657
20
10.7693
30
9.24
0
VERTEX
10
7.58299
20
10.772
30
9.24
0
VERTEX
10
7.58119
20
10.7756
30
9.24
0
VERTEX
10
7.5803
20
10.7774
30
9.24
0
VERTEX
10
7.5785
20
10.7774
30
9.24
0
VERTEX
10
7.57312
20
10.7828
30
9.24
0
VERTEX
10
7.56954
20
10.7837
30
9.24
0
VERTEX
10
7.55519
20
10.781
30
9.24
0
VERTEX
10
7.54802
20
10.7801
30
9.24
0
VERTEX
10
7.54444
20
10.7792
30
9.24
0
VERTEX
10
7.53995
20
10.7729
30
9.24
0
VERTEX
10
7.53995
20
10.7711
30
9.24
0
VERTEX
10
7.53547
20
10.7639
30
9.24
0
VERTEX
10
7.53278
20
10.7612
30
9.24
0
VERTEX
10
7.53278
20
10.7594
30
9.24
0
VERTEX
10
7.53009
20
10.7559
30
9.24
0
VERTEX
10
7.52919
20
10.7523
30
9.24
0
VERTEX
10
7.52919
20
10.7505
30
9.24
0
SEQEND
0
POLYLINE
62
227
66
1
70
1
3
endoplasmic_reticulum
0
VERTEX
10
7.7363
20
10.3273
30
9.24
0
VERTEX
10
7.74078
20
10.3201
30
9.24
0
VERTEX
10
7.74437
20
10.3175
30
9.24
0
VERTEX
10
7.75154
20
10.3157
30
9.24
0
VERTEX
10
7.76588
20
10.3157
30
9.24
0
VERTEX
10
7.77933
20
10.3237
30
9.24
0
VERTEX
10
7.78292
20
10.3255
30
9.24
0
VERTEX
10
7.7865
20
10.3255
30
9.24
0
VERTEX
10
7.79188
20
10.3318
30
9.24
0
VERTEX
10
7.79905
20
10.3461
30
9.24
0
VERTEX
10
7.80354
20
10.3605
30
9.24
0
VERTEX
10
7.80623
20
10.3632
30
9.24
0
VERTEX
10
7.80802
20
10.3632
30
9.24
0
VERTEX
10
7.81071
20
10.3659
30
9.24
0
VERTEX
10
7.82505
20
10.3695
30
9.24
0
VERTEX
10
7.83223
20
10.3721
30
9.24
0
VERTEX
10
7.83761
20
10.3775
30
9.24
0
VERTEX
10
7.8385
20
10.3847
30
9.24
0
VERTEX
10
7.84119
20
10.3874
30
9.24
0
VERTEX
10
7.84478
20
10.3874
30
9.24
0
VERTEX
10
7.84747
20
10.3901
30
9.24
0
VERTEX
10
7.84926
20
10.391
30
9.24
0
VERTEX
10
7.85016
20
10.3981
30
9.24
0
VERTEX
10
7.85105
20
10.4017
30
9.24
0
VERTEX
10
7.85105
20
10.4035
30
9.24
0
VERTEX
10
7.85285
20
10.4053
30
9.24
0
VERTEX
10
7.85554
20
10.4125
30
9.24
0
VERTEX
10
7.85733
20
10.4161
30
9.24
0
VERTEX
10
7.8645
20
10.4206
30
9.24
0
VERTEX
10
7.8663
20
10.4206
30
9.24
0
VERTEX
10
7.89409
20
10.4367
30
9.24
0
VERTEX
10
7.89767
20
10.4439
30
9.24
0
VERTEX
10
7.89767
20
10.451
30
9.24
0
VERTEX
10
7.89588
20
10.4546
30
9.24
0
VERTEX
10
7.89499
20
10.4564
30
9.24
0
VERTEX
10
7.88781
20
10.4582
30
9.24
0
VERTEX
10
7.88423
20
10.4609
30
9.24
0
VERTEX
10
7.88064
20
10.4618
30
9.24
0
VERTEX
10
7.87347
20
10.4681
30
9.24
0
VERTEX
10
7.86988
20
10.4699
30
9.24
0
VERTEX
10
7.86271
20
10.4636
30
9.24
0
VERTEX
10
7.85554
20
10.4609
30
9.24
0
VERTEX
10
7.85195
20
10.4591
30
9.24
0
VERTEX
10
7.84747
20
10.4537
30
9.24
0
VERTEX
10
7.84119
20
10.4394
30
9.24
0
VERTEX
10
7.8385
20
10.4322
30
9.24
0
VERTEX
10
7.83312
20
10.4277
30
9.24
0
VERTEX
10
7.81878
20
10.4232
30
9.24
0
VERTEX
10
7.80443
20
10.4143
30
9.24
0
VERTEX
10
7.79905
20
10.4098
30
9.24
0
VERTEX
10
7.79457
20
10.4026
30
9.24
0
VERTEX
10
7.79188
20
10.3999
30
9.24
0
VERTEX
10
7.79188
20
10.3963
30
9.24
0
VERTEX
10
7.78381
20
10.382
30
9.24
0
VERTEX
10
7.77037
20
10.373
30
9.24
0
VERTEX
10
7.76319
20
10.3668
30
9.24
0
VERTEX
10
7.75781
20
10.3596
30
9.24
0
VERTEX
10
7.75154
20
10.356
30
9.24
0
VERTEX
10
7.75154
20
10.3542
30
9.24
0
VERTEX
10
7.74974
20
10.3542
30
9.24
0
VERTEX
10
7.74437
20
10.347
30
9.24
0
VERTEX
10
7.74257
20
10.3452
30
9.24
0
VERTEX
10
7.74078
20
10.3452
30
9.24
0
VERTEX
10
7.73809
20
10.3417
30
9.24
0
VERTEX
10
7.7363
20
10.3345
30
9.24
0
VERTEX
10
7.7363
20
10.3282
30
9.24
0
SEQEND
0
POLYLINE
62
227
66
1
70
1
3
endoplasmic_reticulum
0
VERTEX
10
7.66637
20
10.2583
30
9.24
0
VERTEX
10
7.67085
20
10.2439
30
9.24
0
VERTEX
10
7.67802
20
10.2395
30
9.24
0
VERTEX
10
7.68519
20
10.2368
30
9.24
0
VERTEX
10
7.71388
20
10.2359
30
9.24
0
VERTEX
10
7.71568
20
10.2359
30
9.24
0
VERTEX
10
7.71837
20
10.2395
30
9.24
0
VERTEX
10
7.72195
20
10.2412
30
9.24
0
VERTEX
10
7.72554
20
10.2412
30
9.24
0
VERTEX
10
7.73809
20
10.2529
30
9.24
0
VERTEX
10
7.73899
20
10.2672
30
9.24
0
VERTEX
10
7.73899
20
10.2744
30
9.24
0
VERTEX
10
7.73271
20
10.2816
30
9.24
0
VERTEX
10
7.72643
20
10.2861
30
9.24
0
VERTEX
10
7.72643
20
10.2879
30
9.24
0
VERTEX
10
7.72374
20
10.2906
30
9.24
0
VERTEX
10
7.72374
20
10.2923
30
9.24
0
VERTEX
10
7.7103
20
10.3022
30
9.24
0
VERTEX
10
7.69595
20
10.3022
30
9.24
0
VERTEX
10
7.68878
20
10.3013
30
9.24
0
VERTEX
10
7.68519
20
10.3004
30
9.24
0
VERTEX
10
7.68161
20
10.2977
30
9.24
0
VERTEX
10
7.67712
20
10.2834
30
9.24
0
VERTEX
10
7.67443
20
10.2771
30
9.24
0
VERTEX
10
7.67085
20
10.2789
30
9.24
0
VERTEX
10
7.66906
20
10.2789
30
9.24
0
VERTEX
10
7.66637
20
10.2717
30
9.24
0
VERTEX
10
7.66637
20
10.2646
30
9.24
0
VERTEX
10
7.66637
20
10.261
30
9.24
0
VERTEX
10
7.66637
20
10.2592
30
9.24
0
SEQEND
0
POLYLINE
62
227
66
1
70
1
3
endoplasmic_reticulum
0
VERTEX
10
7.49154
20
10.3497
30
9.24
0
VERTEX
10
7.49602
20
10.3426
30
9.24
0
VERTEX
10
7.5023
20
10.339
30
9.24
0
VERTEX
10
7.51664
20
10.3408
30
9.24
0
VERTEX
10
7.53099
20
10.3443
30
9.24
0
VERTEX
10
7.53457
20
10.3435
30
9.24
0
VERTEX
10
7.53637
20
10.3435
30
9.24
0
VERTEX
10
7.53816
20
10.347
30
9.24
0
VERTEX
10
7.53995
20
10.3488
30
9.24
0
VERTEX
10
7.53906
20
10.3632
30
9.24
0
VERTEX
10
7.53726
20
10.365
30
9.24
0
VERTEX
10
7.53726
20
10.3668
30
9.24
0
VERTEX
10
7.53099
20
10.373
30
9.24
0
VERTEX
10
7.5274
20
10.3766
30
9.24
0
VERTEX
10
7.52113
20
10.3811
30
9.24
0
VERTEX
10
7.51844
20
10.3838
30
9.24
0
VERTEX
10
7.51754
20
10.3865
30
9.24
0
VERTEX
10
7.50319
20
10.3739
30
9.24
0
VERTEX
10
7.49602
20
10.3677
30
9.24
0
VERTEX
10
7.49244
20
10.365
30
9.24
0
VERTEX
10
7.49154
20
10.3506
30
9.24
0
SEQEND
0
POLYLINE
62
227
66
1
70
1
3
endoplasmic_reticulum
0
VERTEX
10
6.51051
20
10.9554
30
9.24
0
VERTEX
10
6.51359
20
10.9492
30
9.24
0
VERTEX
10
6.51359
20
10.9431
30
9.24
0
VERTEX
10
6.51974
20
10.9385
30
9.24
0
VERTEX
10
6.54433
20
10.94
30
9.24
0
VERTEX
10
6.55048
20
10.9523
30
9.24
0
VERTEX
10
6.55048
20
10.9584
30
9.24
0
VERTEX
10
6.54586
20
10.9631
30
9.24
0
VERTEX
10
6.54433
20
10.9661
30
9.24
0
VERTEX
10
6.54125
20
10.9661
30
9.24
0
VERTEX
10
6.53664
20
10.9723
30
9.24
0
VERTEX
10
6.53049
20
10.9738
30
9.24
0
VERTEX
10
6.52281
20
10.9815
30
9.24
0
VERTEX
10
6.51051
20
10.9723
30
9.24
0
VERTEX
10
6.51051
20
10.96
30
9.24
0
VERTEX
10
6.51051
20
10.9569
30
9.24
0
SEQEND
0
POLYLINE
62
236
66
1
70
1
3
postsynaptic_density
0
VERTEX
10
7.87328
20
10.7971
30
9.24
0
VERTEX
10
7.98431
20
10.4813
30
9.24
0
VERTEX
10
7.99171
20
10.4615
30
9.24
0
VERTEX
10
7.99171
20
10.4566
30
9.24
0
VERTEX
10
8.01145
20
10.4516
30
9.24
0
VERTEX
10
8.05092
20
10.4516
30
9.24
0
VERTEX
10
8.06079
20
10.4516
30
9.24
0
VERTEX
10
8.06573
20
10.4516
30
9.24
0
VERTEX
10
8.07066
20
10.4566
30
9.24
0
VERTEX
10
8.08053
20
10.459
30
9.24
0
VERTEX
10
8.08793
20
10.4664
30
9.24
0
VERTEX
10
8.09287
20
10.4664
30
9.24
0
VERTEX
10
8.11261
20
10.4813
30
9.24
0
VERTEX
10
8.12248
20
10.4887
30
9.24
0
VERTEX
10
8.14222
20
10.4961
30
9.24
0
VERTEX
10
8.16195
20
10.5084
30
9.24
0
VERTEX
10
8.20143
20
10.5133
30
9.24
0
VERTEX
10
8.22117
20
10.5207
30
9.24
0
VERTEX
10
8.23104
20
10.5232
30
9.24
0
VERTEX
10
8.23598
20
10.5232
30
9.24
0
VERTEX
10
8.24584
20
10.5306
30
9.24
0
VERTEX
10
8.25078
20
10.5306
30
9.24
0
VERTEX
10
8.25571
20
10.5355
30
9.24
0
VERTEX
10
8.25571
20
10.5405
30
9.24
0
VERTEX
10
8.26805
20
10.5577
30
9.24
0
VERTEX
10
8.27299
20
10.5577
30
9.24
0
VERTEX
10
8.27545
20
10.5676
30
9.24
0
VERTEX
10
8.27052
20
10.6071
30
9.24
0
VERTEX
10
8.27299
20
10.6466
30
9.24
0
VERTEX
10
8.27052
20
10.686
30
9.24
0
VERTEX
10
8.26312
20
10.7058
30
9.24
0
VERTEX
10
8.25078
20
10.7231
30
9.24
0
VERTEX
10
8.24338
20
10.7329
30
9.24
0
VERTEX
10
8.22611
20
10.7724
30
9.24
0
VERTEX
10
8.22117
20
10.7921
30
9.24
0
VERTEX
10
8.21624
20
10.7971
30
9.24
0
VERTEX
10
8.21377
20
10.8069
30
9.24
0
VERTEX
10
8.18416
20
10.8415
30
9.24
0
VERTEX
10
8.16689
20
10.8538
30
9.24
0
VERTEX
10
8.15702
20
10.8588
30
9.24
0
VERTEX
10
8.14715
20
10.8686
30
9.24
0
VERTEX
10
8.10767
20
10.881
30
9.24
0
VERTEX
10
8.0978
20
10.8884
30
9.24
0
VERTEX
10
8.08053
20
10.8958
30
9.24
0
VERTEX
10
8.0756
20
10.8958
30
9.24
0
VERTEX
10
8.07066
20
10.8908
30
9.24
0
VERTEX
10
8.05092
20
10.8884
30
9.24
0
VERTEX
10
8.04106
20
10.8834
30
9.24
0
VERTEX
10
8.03612
20
10.8834
30
9.24
0
VERTEX
10
8.01885
20
10.8662
30
9.24
0
VERTEX
10
7.97937
20
10.844
30
9.24
0
VERTEX
10
7.93989
20
10.8267
30
9.24
0
VERTEX
10
7.93496
20
10.8267
30
9.24
0
VERTEX
10
7.93003
20
10.8168
30
9.24
0
VERTEX
10
7.91029
20
10.8119
30
9.24
0
VERTEX
10
7.90535
20
10.8119
30
9.24
0
VERTEX
10
7.90288
20
10.8069
30
9.24
0
VERTEX
10
7.88315
20
10.802
30
9.24
0
VERTEX
10
7.87821
20
10.7995
30
9.24
0
VERTEX
10
7.87574
20
10.802
30
9.24
0
VERTEX
10
7.87328
20
10.7995
30
9.24
0
SEQEND
0
ENDSEC
0
EOF
