0
SECTION
2
ENTITIES
0
POLYLINE
62
31
66
1
70
1
3
contour
0
VERTEX
10
8.8318
20
8.82958
30
5.16
0
VERTEX
10
8.84289
20
8.81185
30
5.16
0
VERTEX
10
8.84954
20
8.80298
30
5.16
0
VERTEX
10
8.88502
20
8.78745
30
5.16
0
VERTEX
10
8.9205
20
8.78524
30
5.16
0
VERTEX
10
9.06241
20
8.78745
30
5.16
0
VERTEX
10
9.09789
20
8.78745
30
5.16
0
VERTEX
10
9.16884
20
8.79411
30
5.16
0
VERTEX
10
9.20432
20
8.79411
30
5.16
0
VERTEX
10
9.2398
20
8.80076
30
5.16
0
VERTEX
10
9.25754
20
8.80741
30
5.16
0
VERTEX
10
9.26641
20
8.81406
30
5.16
0
VERTEX
10
9.27528
20
8.82737
30
5.16
0
VERTEX
10
9.27971
20
8.8318
30
5.16
0
VERTEX
10
9.28636
20
8.84954
30
5.16
0
VERTEX
10
9.2908
20
8.85841
30
5.16
0
VERTEX
10
9.2908
20
8.86284
30
5.16
0
VERTEX
10
9.29523
20
8.86728
30
5.16
0
VERTEX
10
9.29523
20
8.87615
30
5.16
0
VERTEX
10
9.30632
20
8.89167
30
5.16
0
VERTEX
10
9.30854
20
8.90054
30
5.16
0
VERTEX
10
9.31297
20
8.90497
30
5.16
0
VERTEX
10
9.32628
20
8.93824
30
5.16
0
VERTEX
10
9.32628
20
8.9471
30
5.16
0
VERTEX
10
9.33293
20
8.96263
30
5.16
0
VERTEX
10
9.33071
20
8.9981
30
5.16
0
VERTEX
10
9.33071
20
9.01584
30
5.16
0
VERTEX
10
9.32628
20
9.02028
30
5.16
0
VERTEX
10
9.32628
20
9.03802
30
5.16
0
VERTEX
10
9.31741
20
9.0735
30
5.16
0
VERTEX
10
9.31075
20
9.08236
30
5.16
0
VERTEX
10
9.30632
20
9.0868
30
5.16
0
VERTEX
10
9.3041
20
9.09567
30
5.16
0
VERTEX
10
9.29523
20
9.1001
30
5.16
0
VERTEX
10
9.2908
20
9.10454
30
5.16
0
VERTEX
10
9.28636
20
9.10454
30
5.16
0
VERTEX
10
9.27084
20
9.11563
30
5.16
0
VERTEX
10
9.2531
20
9.12228
30
5.16
0
VERTEX
10
9.24423
20
9.12671
30
5.16
0
VERTEX
10
9.2398
20
9.12671
30
5.16
0
VERTEX
10
9.23536
20
9.13115
30
5.16
0
VERTEX
10
9.19989
20
9.14223
30
5.16
0
VERTEX
10
9.12893
20
9.1378
30
5.16
0
VERTEX
10
9.11119
20
9.1378
30
5.16
0
VERTEX
10
9.09567
20
9.13115
30
5.16
0
VERTEX
10
9.09123
20
9.13115
30
5.16
0
VERTEX
10
9.08902
20
9.12671
30
5.16
0
VERTEX
10
9.08458
20
9.12671
30
5.16
0
VERTEX
10
9.08236
20
9.12228
30
5.16
0
VERTEX
10
9.06463
20
9.12228
30
5.16
0
VERTEX
10
9.0491
20
9.11119
30
5.16
0
VERTEX
10
9.0358
20
9.09567
30
5.16
0
VERTEX
10
9.02028
20
9.08458
30
5.16
0
VERTEX
10
9.00476
20
9.06906
30
5.16
0
VERTEX
10
8.98924
20
9.05797
30
5.16
0
VERTEX
10
8.98037
20
9.05576
30
5.16
0
VERTEX
10
8.97371
20
9.0491
30
5.16
0
VERTEX
10
8.96928
20
9.0491
30
5.16
0
VERTEX
10
8.95597
20
9.03358
30
5.16
0
VERTEX
10
8.9471
20
9.02915
30
5.16
0
VERTEX
10
8.93824
20
9.02915
30
5.16
0
VERTEX
10
8.90719
20
9.00919
30
5.16
0
VERTEX
10
8.90054
20
9.00032
30
5.16
0
VERTEX
10
8.8828
20
8.99145
30
5.16
0
VERTEX
10
8.87837
20
8.99145
30
5.16
0
VERTEX
10
8.86284
20
8.97815
30
5.16
0
VERTEX
10
8.85619
20
8.96928
30
5.16
0
VERTEX
10
8.84732
20
8.96484
30
5.16
0
VERTEX
10
8.84067
20
8.9471
30
5.16
0
VERTEX
10
8.83845
20
8.92937
30
5.16
0
VERTEX
10
8.83845
20
8.92493
30
5.16
0
VERTEX
10
8.8318
20
8.91606
30
5.16
0
VERTEX
10
8.8318
20
8.84511
30
5.16
0
VERTEX
10
8.8318
20
8.83624
30
5.16
0
VERTEX
10
8.8318
20
8.8318
30
5.16
0
SEQEND
0
POLYLINE
62
31
66
1
70
1
3
contour
0
VERTEX
10
8.8994
20
9.35029
30
5.16
0
VERTEX
10
8.90598
20
9.34371
30
5.16
0
VERTEX
10
8.90927
20
9.33054
30
5.16
0
VERTEX
10
8.91585
20
9.32396
30
5.16
0
VERTEX
10
8.92244
20
9.32396
30
5.16
0
VERTEX
10
8.94547
20
9.30092
30
5.16
0
VERTEX
10
8.95206
20
9.29434
30
5.16
0
VERTEX
10
9.00472
20
9.29434
30
5.16
0
VERTEX
10
9.03105
20
9.29763
30
5.16
0
VERTEX
10
9.04421
20
9.30751
30
5.16
0
VERTEX
10
9.07054
20
9.31409
30
5.16
0
VERTEX
10
9.07383
20
9.34042
30
5.16
0
VERTEX
10
9.07054
20
9.35358
30
5.16
0
VERTEX
10
9.03434
20
9.39637
30
5.16
0
VERTEX
10
9.03105
20
9.40295
30
5.16
0
VERTEX
10
9.01788
20
9.40295
30
5.16
0
VERTEX
10
9.01459
20
9.40953
30
5.16
0
VERTEX
10
9.00142
20
9.40953
30
5.16
0
VERTEX
10
8.97509
20
9.41941
30
5.16
0
VERTEX
10
8.92244
20
9.41612
30
5.16
0
VERTEX
10
8.90927
20
9.41282
30
5.16
0
VERTEX
10
8.8994
20
9.36017
30
5.16
0
VERTEX
10
8.8994
20
9.35358
30
5.16
0
SEQEND
0
POLYLINE
62
31
66
1
70
1
3
contour
0
VERTEX
10
10.0258
20
8.76853
30
5.16
0
VERTEX
10
10.034
20
8.72508
30
5.16
0
VERTEX
10
10.0421
20
8.70335
30
5.16
0
VERTEX
10
10.0476
20
8.69792
30
5.16
0
VERTEX
10
10.0476
20
8.69249
30
5.16
0
VERTEX
10
10.053
20
8.68706
30
5.16
0
VERTEX
10
10.0584
20
8.68706
30
5.16
0
VERTEX
10
10.072
20
8.67348
30
5.16
0
VERTEX
10
10.0937
20
8.66534
30
5.16
0
VERTEX
10
10.1154
20
8.65176
30
5.16
0
VERTEX
10
10.1236
20
8.64361
30
5.16
0
VERTEX
10
10.1263
20
8.63818
30
5.16
0
VERTEX
10
10.148
20
8.63275
30
5.16
0
VERTEX
10
10.1698
20
8.61102
30
5.16
0
VERTEX
10
10.1806
20
8.60559
30
5.16
0
VERTEX
10
10.1915
20
8.60559
30
5.16
0
VERTEX
10
10.1969
20
8.60016
30
5.16
0
VERTEX
10
10.2186
20
8.59473
30
5.16
0
VERTEX
10
10.2404
20
8.58115
30
5.16
0
VERTEX
10
10.2621
20
8.58115
30
5.16
0
VERTEX
10
10.2784
20
8.59745
30
5.16
0
VERTEX
10
10.2811
20
8.60831
30
5.16
0
VERTEX
10
10.292
20
8.61646
30
5.16
0
VERTEX
10
10.2892
20
8.63818
30
5.16
0
VERTEX
10
10.2892
20
8.64904
30
5.16
0
VERTEX
10
10.2729
20
8.69249
30
5.16
0
VERTEX
10
10.2675
20
8.69792
30
5.16
0
VERTEX
10
10.2594
20
8.71693
30
5.16
0
VERTEX
10
10.2431
20
8.73322
30
5.16
0
VERTEX
10
10.2431
20
8.73866
30
5.16
0
VERTEX
10
10.2241
20
8.75223
30
5.16
0
VERTEX
10
10.2105
20
8.76853
30
5.16
0
VERTEX
10
10.1915
20
8.78754
30
5.16
0
VERTEX
10
10.1833
20
8.7984
30
5.16
0
VERTEX
10
10.1725
20
8.80383
30
5.16
0
VERTEX
10
10.167
20
8.80926
30
5.16
0
VERTEX
10
10.1562
20
8.81198
30
5.16
0
VERTEX
10
10.1453
20
8.83098
30
5.16
0
VERTEX
10
10.11
20
8.86629
30
5.16
0
VERTEX
10
10.1046
20
8.87715
30
5.16
0
VERTEX
10
10.0856
20
8.89344
30
5.16
0
VERTEX
10
10.0747
20
8.90159
30
5.16
0
VERTEX
10
10.0693
20
8.9043
30
5.16
0
VERTEX
10
10.0666
20
8.90159
30
5.16
0
VERTEX
10
10.0774
20
8.88258
30
5.16
0
VERTEX
10
10.0666
20
8.88258
30
5.16
0
VERTEX
10
10.0584
20
8.87443
30
5.16
0
VERTEX
10
10.0557
20
8.86357
30
5.16
0
VERTEX
10
10.0285
20
8.82284
30
5.16
0
VERTEX
10
10.0258
20
8.77939
30
5.16
0
VERTEX
10
10.0258
20
8.77124
30
5.16
0
SEQEND
0
POLYLINE
62
224
66
1
70
1
3
mitochondrion
0
VERTEX
10
9.07673
20
8.95854
30
5.16
0
VERTEX
10
9.0809
20
8.93629
30
5.16
0
VERTEX
10
9.09063
20
8.91405
30
5.16
0
VERTEX
10
9.0948
20
8.90848
30
5.16
0
VERTEX
10
9.09619
20
8.90292
30
5.16
0
VERTEX
10
9.10593
20
8.8918
30
5.16
0
VERTEX
10
9.11705
20
8.88346
30
5.16
0
VERTEX
10
9.12261
20
8.87929
30
5.16
0
VERTEX
10
9.14486
20
8.87789
30
5.16
0
VERTEX
10
9.1671
20
8.88485
30
5.16
0
VERTEX
10
9.17684
20
8.8918
30
5.16
0
VERTEX
10
9.1824
20
8.89319
30
5.16
0
VERTEX
10
9.18796
20
8.89875
30
5.16
0
VERTEX
10
9.19074
20
8.90153
30
5.16
0
VERTEX
10
9.19352
20
8.90153
30
5.16
0
VERTEX
10
9.20882
20
8.92239
30
5.16
0
VERTEX
10
9.21716
20
8.93351
30
5.16
0
VERTEX
10
9.22133
20
8.94464
30
5.16
0
VERTEX
10
9.22828
20
8.95437
30
5.16
0
VERTEX
10
9.23106
20
8.95715
30
5.16
0
VERTEX
10
9.23106
20
8.96271
30
5.16
0
VERTEX
10
9.23524
20
8.96827
30
5.16
0
VERTEX
10
9.23663
20
8.99052
30
5.16
0
VERTEX
10
9.23663
20
9.00164
30
5.16
0
VERTEX
10
9.23385
20
9.01277
30
5.16
0
VERTEX
10
9.22828
20
9.01694
30
5.16
0
VERTEX
10
9.2255
20
9.0225
30
5.16
0
VERTEX
10
9.21994
20
9.02389
30
5.16
0
VERTEX
10
9.21855
20
9.02945
30
5.16
0
VERTEX
10
9.20743
20
9.03779
30
5.16
0
VERTEX
10
9.1963
20
9.04058
30
5.16
0
VERTEX
10
9.17406
20
9.03918
30
5.16
0
VERTEX
10
9.15181
20
9.03501
30
5.16
0
VERTEX
10
9.12956
20
9.02806
30
5.16
0
VERTEX
10
9.11983
20
9.0225
30
5.16
0
VERTEX
10
9.11288
20
9.01555
30
5.16
0
VERTEX
10
9.10732
20
9.01555
30
5.16
0
VERTEX
10
9.09619
20
9.0086
30
5.16
0
VERTEX
10
9.08924
20
8.99747
30
5.16
0
VERTEX
10
9.08507
20
8.99191
30
5.16
0
VERTEX
10
9.0809
20
8.98913
30
5.16
0
VERTEX
10
9.07673
20
8.97801
30
5.16
0
VERTEX
10
9.07673
20
8.96688
30
5.16
0
VERTEX
10
9.07673
20
8.96132
30
5.16
0
VERTEX
10
9.07673
20
8.95993
30
5.16
0
SEQEND
0
POLYLINE
62
236
66
1
70
1
3
postsynaptic_density
0
VERTEX
10
10.1038
20
8.78995
30
5.16
0
VERTEX
10
10.1579
20
8.73023
30
5.16
0
VERTEX
10
10.171
20
8.7153
30
5.16
0
VERTEX
10
10.2008
20
8.71343
30
5.16
0
VERTEX
10
10.2083
20
8.71343
30
5.16
0
VERTEX
10
10.2157
20
8.71716
30
5.16
0
VERTEX
10
10.2195
20
8.71716
30
5.16
0
VERTEX
10
10.2251
20
8.72463
30
5.16
0
VERTEX
10
10.2512
20
8.74516
30
5.16
0
VERTEX
10
10.2512
20
8.77502
30
5.16
0
VERTEX
10
10.2493
20
8.78995
30
5.16
0
VERTEX
10
10.2437
20
8.80488
30
5.16
0
VERTEX
10
10.2419
20
8.81234
30
5.16
0
VERTEX
10
10.2176
20
8.83847
30
5.16
0
VERTEX
10
10.212
20
8.84407
30
5.16
0
VERTEX
10
10.2045
20
8.84593
30
5.16
0
VERTEX
10
10.1971
20
8.85153
30
5.16
0
VERTEX
10
10.1672
20
8.8534
30
5.16
0
VERTEX
10
10.1523
20
8.8534
30
5.16
0
VERTEX
10
10.1448
20
8.84966
30
5.16
0
VERTEX
10
10.1392
20
8.8422
30
5.16
0
VERTEX
10
10.1355
20
8.8422
30
5.16
0
VERTEX
10
10.1243
20
8.82914
30
5.16
0
VERTEX
10
10.1206
20
8.82727
30
5.16
0
VERTEX
10
10.1206
20
8.82354
30
5.16
0
VERTEX
10
10.1075
20
8.80861
30
5.16
0
VERTEX
10
10.1038
20
8.80114
30
5.16
0
VERTEX
10
10.1038
20
8.79368
30
5.16
0
VERTEX
10
10.1038
20
8.79181
30
5.16
0
SEQEND
0
POLYLINE
62
227
66
1
70
1
3
endoplasmic_reticulum
0
VERTEX
10
9.22805
20
9.05978
30
5.16
0
VERTEX
10
9.23029
20
9.05529
30
5.16
0
VERTEX
10
9.23927
20
9.04968
30
5.16
0
VERTEX
10
9.24263
20
9.04519
30
5.16
0
VERTEX
10
9.24712
20
9.04295
30
5.16
0
VERTEX
10
9.24936
20
9.03958
30
5.16
0
VERTEX
10
9.25721
20
9.03397
30
5.16
0
VERTEX
10
9.26058
20
9.03061
30
5.16
0
VERTEX
10
9.26058
20
9.02836
30
5.16
0
VERTEX
10
9.26282
20
9.02612
30
5.16
0
VERTEX
10
9.26507
20
9.02612
30
5.16
0
VERTEX
10
9.26843
20
9.02276
30
5.16
0
VERTEX
10
9.27741
20
9.02163
30
5.16
0
VERTEX
10
9.28189
20
9.02163
30
5.16
0
VERTEX
10
9.28414
20
9.02163
30
5.16
0
VERTEX
10
9.28526
20
9.02388
30
5.16
0
VERTEX
10
9.2875
20
9.02388
30
5.16
0
VERTEX
10
9.29087
20
9.02836
30
5.16
0
VERTEX
10
9.28975
20
9.04631
30
5.16
0
VERTEX
10
9.28414
20
9.05529
30
5.16
0
VERTEX
10
9.28077
20
9.05978
30
5.16
0
VERTEX
10
9.27741
20
9.06202
30
5.16
0
VERTEX
10
9.27292
20
9.06651
30
5.16
0
VERTEX
10
9.26843
20
9.06875
30
5.16
0
VERTEX
10
9.26507
20
9.07324
30
5.16
0
VERTEX
10
9.25609
20
9.0766
30
5.16
0
VERTEX
10
9.25609
20
9.07885
30
5.16
0
VERTEX
10
9.24712
20
9.08333
30
5.16
0
VERTEX
10
9.23814
20
9.08221
30
5.16
0
VERTEX
10
9.22917
20
9.07772
30
5.16
0
VERTEX
10
9.22805
20
9.0609
30
5.16
0
SEQEND
0
POLYLINE
62
227
66
1
70
1
3
endoplasmic_reticulum
0
VERTEX
10
8.9992
20
8.88589
30
5.16
0
VERTEX
10
9.00032
20
8.87692
30
5.16
0
VERTEX
10
9.00256
20
8.87243
30
5.16
0
VERTEX
10
9.02051
20
8.87131
30
5.16
0
VERTEX
10
9.02949
20
8.87131
30
5.16
0
VERTEX
10
9.03846
20
8.86907
30
5.16
0
VERTEX
10
9.04744
20
8.87019
30
5.16
0
VERTEX
10
9.05192
20
8.87355
30
5.16
0
VERTEX
10
9.05417
20
8.8758
30
5.16
0
VERTEX
10
9.05529
20
8.88477
30
5.16
0
VERTEX
10
9.05529
20
8.88926
30
5.16
0
VERTEX
10
9.05192
20
8.89711
30
5.16
0
VERTEX
10
9.04519
20
8.90496
30
5.16
0
VERTEX
10
9.04183
20
8.91282
30
5.16
0
VERTEX
10
9.03622
20
8.92067
30
5.16
0
VERTEX
10
9.03173
20
8.92404
30
5.16
0
VERTEX
10
9.01378
20
8.91843
30
5.16
0
VERTEX
10
9.00481
20
8.91057
30
5.16
0
VERTEX
10
9.00256
20
8.90609
30
5.16
0
VERTEX
10
9.00256
20
8.90384
30
5.16
0
VERTEX
10
8.9992
20
8.89936
30
5.16
0
VERTEX
10
8.9992
20
8.89038
30
5.16
0
VERTEX
10
8.9992
20
8.88702
30
5.16
0
SEQEND
0
ENDSEC
0
EOF
