0
SECTION
2
ENTITIES
0
POLYLINE
62
31
66
1
70
1
3
contour
0
VERTEX
10
7.65373
20
10.0733
30
8
0
VERTEX
10
7.66031
20
10.047
30
8
0
VERTEX
10
7.6636
20
9.99429
30
8
0
VERTEX
10
7.66689
20
9.98112
30
8
0
VERTEX
10
7.67019
20
9.97453
30
8
0
VERTEX
10
7.66689
20
9.92186
30
8
0
VERTEX
10
7.66689
20
9.9087
30
8
0
VERTEX
10
7.68994
20
9.85603
30
8
0
VERTEX
10
7.7064
20
9.82969
30
8
0
VERTEX
10
7.72944
20
9.78031
30
8
0
VERTEX
10
7.72944
20
9.77373
30
8
0
VERTEX
10
7.74261
20
9.76385
30
8
0
VERTEX
10
7.7459
20
9.75068
30
8
0
VERTEX
10
7.7459
20
9.7441
30
8
0
VERTEX
10
7.77224
20
9.71776
30
8
0
VERTEX
10
7.82491
20
9.72106
30
8
0
VERTEX
10
7.83807
20
9.72106
30
8
0
VERTEX
10
7.85124
20
9.73093
30
8
0
VERTEX
10
7.86441
20
9.73422
30
8
0
VERTEX
10
7.87758
20
9.7441
30
8
0
VERTEX
10
7.89075
20
9.74739
30
8
0
VERTEX
10
7.91708
20
9.76714
30
8
0
VERTEX
10
7.96646
20
9.78689
30
8
0
VERTEX
10
7.9928
20
9.79019
30
8
0
VERTEX
10
8.00596
20
9.80006
30
8
0
VERTEX
10
8.0323
20
9.80665
30
8
0
VERTEX
10
8.08168
20
9.83298
30
8
0
VERTEX
10
8.10801
20
9.84286
30
8
0
VERTEX
10
8.1146
20
9.84286
30
8
0
VERTEX
10
8.12118
20
9.84944
30
8
0
VERTEX
10
8.12776
20
9.84944
30
8
0
VERTEX
10
8.14093
20
9.85932
30
8
0
VERTEX
10
8.14752
20
9.8659
30
8
0
VERTEX
10
8.16068
20
9.86919
30
8
0
VERTEX
10
8.16727
20
9.86919
30
8
0
VERTEX
10
8.18044
20
9.88236
30
8
0
VERTEX
10
8.18702
20
9.88236
30
8
0
VERTEX
10
8.19031
20
9.88894
30
8
0
VERTEX
10
8.19689
20
9.88894
30
8
0
VERTEX
10
8.23969
20
9.93174
30
8
0
VERTEX
10
8.25944
20
9.95807
30
8
0
VERTEX
10
8.27261
20
9.98441
30
8
0
VERTEX
10
8.28248
20
9.99429
30
8
0
VERTEX
10
8.28248
20
10.0009
30
8
0
VERTEX
10
8.29894
20
10.0239
30
8
0
VERTEX
10
8.30553
20
10.0272
30
8
0
VERTEX
10
8.30553
20
10.0799
30
8
0
VERTEX
10
8.29894
20
10.1062
30
8
0
VERTEX
10
8.29236
20
10.2116
30
8
0
VERTEX
10
8.28907
20
10.2642
30
8
0
VERTEX
10
8.27919
20
10.2906
30
8
0
VERTEX
10
8.2759
20
10.3037
30
8
0
VERTEX
10
8.26932
20
10.307
30
8
0
VERTEX
10
8.25944
20
10.3334
30
8
0
VERTEX
10
8.23969
20
10.3564
30
8
0
VERTEX
10
8.21335
20
10.3729
30
8
0
VERTEX
10
8.18702
20
10.3761
30
8
0
VERTEX
10
8.17385
20
10.3761
30
8
0
VERTEX
10
8.16727
20
10.3761
30
8
0
VERTEX
10
8.11789
20
10.4157
30
8
0
VERTEX
10
8.10472
20
10.4255
30
8
0
VERTEX
10
8.09155
20
10.4288
30
8
0
VERTEX
10
8.07839
20
10.4387
30
8
0
VERTEX
10
8.0718
20
10.4453
30
8
0
VERTEX
10
8.04547
20
10.4519
30
8
0
VERTEX
10
8.03888
20
10.4519
30
8
0
VERTEX
10
8.01255
20
10.4716
30
8
0
VERTEX
10
8.00596
20
10.4848
30
8
0
VERTEX
10
7.99938
20
10.4848
30
8
0
VERTEX
10
7.97963
20
10.5111
30
8
0
VERTEX
10
7.97963
20
10.5177
30
8
0
VERTEX
10
7.95658
20
10.544
30
8
0
VERTEX
10
7.94342
20
10.5572
30
8
0
VERTEX
10
7.91708
20
10.5506
30
8
0
VERTEX
10
7.89075
20
10.5375
30
8
0
VERTEX
10
7.87758
20
10.5309
30
8
0
VERTEX
10
7.87099
20
10.5309
30
8
0
VERTEX
10
7.86441
20
10.5243
30
8
0
VERTEX
10
7.75907
20
10.4914
30
8
0
VERTEX
10
7.7459
20
10.4914
30
8
0
VERTEX
10
7.69652
20
10.442
30
8
0
VERTEX
10
7.68665
20
10.4157
30
8
0
VERTEX
10
7.67677
20
10.363
30
8
0
VERTEX
10
7.67019
20
10.3366
30
8
0
VERTEX
10
7.6636
20
10.3235
30
8
0
VERTEX
10
7.65373
20
10.2181
30
8
0
VERTEX
10
7.65373
20
10.1128
30
8
0
VERTEX
10
7.65373
20
10.0865
30
8
0
VERTEX
10
7.65373
20
10.0766
30
8
0
SEQEND
0
POLYLINE
62
224
66
1
70
1
3
mitochondrion
0
VERTEX
10
7.90877
20
10.0111
30
8
0
VERTEX
10
7.91294
20
9.98885
30
8
0
VERTEX
10
7.91572
20
9.97773
30
8
0
VERTEX
10
7.91572
20
9.97494
30
8
0
VERTEX
10
7.91989
20
9.97077
30
8
0
VERTEX
10
7.92128
20
9.96521
30
8
0
VERTEX
10
7.92823
20
9.95548
30
8
0
VERTEX
10
7.93518
20
9.94853
30
8
0
VERTEX
10
7.94214
20
9.9374
30
8
0
VERTEX
10
7.96438
20
9.92767
30
8
0
VERTEX
10
7.96994
20
9.92489
30
8
0
VERTEX
10
7.97133
20
9.92211
30
8
0
VERTEX
10
7.98246
20
9.92072
30
8
0
VERTEX
10
8.0047
20
9.92211
30
8
0
VERTEX
10
8.01583
20
9.92211
30
8
0
VERTEX
10
8.02695
20
9.92489
30
8
0
VERTEX
10
8.0492
20
9.92628
30
8
0
VERTEX
10
8.07145
20
9.93879
30
8
0
VERTEX
10
8.07979
20
9.94714
30
8
0
VERTEX
10
8.08396
20
9.95826
30
8
0
VERTEX
10
8.08396
20
9.96104
30
8
0
VERTEX
10
8.08674
20
9.96382
30
8
0
VERTEX
10
8.09369
20
9.98607
30
8
0
VERTEX
10
8.09786
20
9.99163
30
8
0
VERTEX
10
8.09925
20
10.0139
30
8
0
VERTEX
10
8.09647
20
10.0361
30
8
0
VERTEX
10
8.0923
20
10.0472
30
8
0
VERTEX
10
8.09091
20
10.0584
30
8
0
VERTEX
10
8.08813
20
10.0639
30
8
0
VERTEX
10
8.08535
20
10.0862
30
8
0
VERTEX
10
8.0784
20
10.0959
30
8
0
VERTEX
10
8.07562
20
10.0987
30
8
0
VERTEX
10
8.07423
20
10.1043
30
8
0
VERTEX
10
8.07423
20
10.107
30
8
0
VERTEX
10
8.06449
20
10.1168
30
8
0
VERTEX
10
8.05893
20
10.1209
30
8
0
VERTEX
10
8.05754
20
10.1237
30
8
0
VERTEX
10
8.05198
20
10.1251
30
8
0
VERTEX
10
8.0339
20
10.1432
30
8
0
VERTEX
10
8.02417
20
10.1501
30
8
0
VERTEX
10
8.01305
20
10.1543
30
8
0
VERTEX
10
7.9908
20
10.1543
30
8
0
VERTEX
10
7.97968
20
10.1515
30
8
0
VERTEX
10
7.96855
20
10.1515
30
8
0
VERTEX
10
7.96299
20
10.1487
30
8
0
VERTEX
10
7.95743
20
10.1487
30
8
0
VERTEX
10
7.95187
20
10.146
30
8
0
VERTEX
10
7.94909
20
10.146
30
8
0
VERTEX
10
7.9477
20
10.1432
30
8
0
VERTEX
10
7.95048
20
10.1376
30
8
0
VERTEX
10
7.94075
20
10.1348
30
8
0
VERTEX
10
7.93796
20
10.1321
30
8
0
VERTEX
10
7.93518
20
10.1321
30
8
0
VERTEX
10
7.92545
20
10.1223
30
8
0
VERTEX
10
7.9185
20
10.1126
30
8
0
VERTEX
10
7.91572
20
10.107
30
8
0
VERTEX
10
7.91016
20
10.0625
30
8
0
VERTEX
10
7.90877
20
10.018
30
8
0
VERTEX
10
7.90877
20
10.0125
30
8
0
SEQEND
0
POLYLINE
62
227
66
1
70
1
3
endoplasmic_reticulum
0
VERTEX
10
7.81161
20
9.96332
30
8
0
VERTEX
10
7.8125
20
9.95614
30
8
0
VERTEX
10
7.8134
20
9.95256
30
8
0
VERTEX
10
7.81968
20
9.94718
30
8
0
VERTEX
10
7.82326
20
9.94718
30
8
0
VERTEX
10
7.82685
20
9.94539
30
8
0
VERTEX
10
7.82864
20
9.9418
30
8
0
VERTEX
10
7.83043
20
9.9418
30
8
0
VERTEX
10
7.83581
20
9.93463
30
8
0
VERTEX
10
7.83761
20
9.93104
30
8
0
VERTEX
10
7.84388
20
9.92387
30
8
0
VERTEX
10
7.84747
20
9.91939
30
8
0
VERTEX
10
7.86181
20
9.9167
30
8
0
VERTEX
10
7.86899
20
9.9158
30
8
0
VERTEX
10
7.87616
20
9.92028
30
8
0
VERTEX
10
7.87974
20
9.92118
30
8
0
VERTEX
10
7.88243
20
9.92477
30
8
0
VERTEX
10
7.88243
20
9.93194
30
8
0
VERTEX
10
7.88243
20
9.93552
30
8
0
VERTEX
10
7.87436
20
9.94897
30
8
0
VERTEX
10
7.87257
20
9.95077
30
8
0
VERTEX
10
7.87078
20
9.96511
30
8
0
VERTEX
10
7.86809
20
9.97228
30
8
0
VERTEX
10
7.86271
20
9.97945
30
8
0
VERTEX
10
7.85912
20
9.98214
30
8
0
VERTEX
10
7.85733
20
9.98214
30
8
0
VERTEX
10
7.85464
20
9.98483
30
8
0
VERTEX
10
7.85105
20
9.98573
30
8
0
VERTEX
10
7.84836
20
9.98483
30
8
0
VERTEX
10
7.83402
20
9.98932
30
8
0
VERTEX
10
7.83043
20
9.98842
30
8
0
VERTEX
10
7.82864
20
9.98842
30
8
0
VERTEX
10
7.82505
20
9.98573
30
8
0
VERTEX
10
7.82147
20
9.98483
30
8
0
VERTEX
10
7.81878
20
9.98214
30
8
0
VERTEX
10
7.81788
20
9.97497
30
8
0
VERTEX
10
7.81519
20
9.97139
30
8
0
VERTEX
10
7.8143
20
9.9678
30
8
0
VERTEX
10
7.81161
20
9.96511
30
8
0
VERTEX
10
7.81161
20
9.96421
30
8
0
SEQEND
0
POLYLINE
62
227
66
1
70
1
3
endoplasmic_reticulum
0
VERTEX
10
7.75333
20
10.2
30
8
0
VERTEX
10
7.75512
20
10.1982
30
8
0
VERTEX
10
7.75512
20
10.1964
30
8
0
VERTEX
10
7.7614
20
10.1892
30
8
0
VERTEX
10
7.76499
20
10.1875
30
8
0
VERTEX
10
7.77216
20
10.1875
30
8
0
VERTEX
10
7.7865
20
10.1928
30
8
0
VERTEX
10
7.79099
20
10.1964
30
8
0
VERTEX
10
7.79099
20
10.2
30
8
0
VERTEX
10
7.79636
20
10.2063
30
8
0
VERTEX
10
7.79995
20
10.2135
30
8
0
VERTEX
10
7.80174
20
10.2143
30
8
0
VERTEX
10
7.80264
20
10.2179
30
8
0
VERTEX
10
7.80981
20
10.2206
30
8
0
VERTEX
10
7.8134
20
10.2215
30
8
0
VERTEX
10
7.81699
20
10.2251
30
8
0
VERTEX
10
7.82416
20
10.226
30
8
0
VERTEX
10
7.82774
20
10.226
30
8
0
VERTEX
10
7.83312
20
10.2323
30
8
0
VERTEX
10
7.83581
20
10.2395
30
8
0
VERTEX
10
7.84119
20
10.2457
30
8
0
VERTEX
10
7.84478
20
10.2484
30
8
0
VERTEX
10
7.84926
20
10.2547
30
8
0
VERTEX
10
7.85464
20
10.269
30
8
0
VERTEX
10
7.85733
20
10.2834
30
8
0
VERTEX
10
7.85912
20
10.287
30
8
0
VERTEX
10
7.86092
20
10.2888
30
8
0
VERTEX
10
7.86361
20
10.3031
30
8
0
VERTEX
10
7.86361
20
10.3103
30
8
0
VERTEX
10
7.86361
20
10.3121
30
8
0
VERTEX
10
7.86181
20
10.313
30
8
0
VERTEX
10
7.86181
20
10.3148
30
8
0
VERTEX
10
7.86002
20
10.3166
30
8
0
VERTEX
10
7.85912
20
10.3309
30
8
0
VERTEX
10
7.85643
20
10.3452
30
8
0
VERTEX
10
7.85016
20
10.3596
30
8
0
VERTEX
10
7.85016
20
10.3668
30
8
0
VERTEX
10
7.84299
20
10.3677
30
8
0
VERTEX
10
7.82864
20
10.3668
30
8
0
VERTEX
10
7.82147
20
10.3659
30
8
0
VERTEX
10
7.82057
20
10.3641
30
8
0
VERTEX
10
7.81699
20
10.3632
30
8
0
VERTEX
10
7.8143
20
10.3596
30
8
0
VERTEX
10
7.80802
20
10.3551
30
8
0
VERTEX
10
7.80443
20
10.3479
30
8
0
VERTEX
10
7.80354
20
10.3408
30
8
0
VERTEX
10
7.80533
20
10.3336
30
8
0
VERTEX
10
7.80892
20
10.3264
30
8
0
VERTEX
10
7.81161
20
10.313
30
8
0
VERTEX
10
7.8125
20
10.3094
30
8
0
VERTEX
10
7.8125
20
10.3076
30
8
0
VERTEX
10
7.8143
20
10.3058
30
8
0
VERTEX
10
7.81699
20
10.2771
30
8
0
VERTEX
10
7.8143
20
10.2628
30
8
0
VERTEX
10
7.8143
20
10.2592
30
8
0
VERTEX
10
7.78919
20
10.2368
30
8
0
VERTEX
10
7.7865
20
10.2359
30
8
0
VERTEX
10
7.78023
20
10.2305
30
8
0
VERTEX
10
7.77664
20
10.2287
30
8
0
VERTEX
10
7.77485
20
10.2269
30
8
0
VERTEX
10
7.77126
20
10.2269
30
8
0
VERTEX
10
7.76499
20
10.2215
30
8
0
VERTEX
10
7.75781
20
10.2188
30
8
0
VERTEX
10
7.75333
20
10.2143
30
8
0
VERTEX
10
7.75333
20
10.2009
30
8
0
SEQEND
0
POLYLINE
62
227
66
1
70
1
3
endoplasmic_reticulum
0
VERTEX
10
8.03305
20
10.2466
30
8
0
VERTEX
10
8.03395
20
10.2395
30
8
0
VERTEX
10
8.03395
20
10.2377
30
8
0
VERTEX
10
8.03754
20
10.2341
30
8
0
VERTEX
10
8.04202
20
10.2278
30
8
0
VERTEX
10
8.04919
20
10.2251
30
8
0
VERTEX
10
8.07788
20
10.226
30
8
0
VERTEX
10
8.09223
20
10.2269
30
8
0
VERTEX
10
8.10657
20
10.226
30
8
0
VERTEX
10
8.11016
20
10.226
30
8
0
VERTEX
10
8.11733
20
10.2233
30
8
0
VERTEX
10
8.12091
20
10.2233
30
8
0
VERTEX
10
8.12271
20
10.2215
30
8
0
VERTEX
10
8.12988
20
10.2197
30
8
0
VERTEX
10
8.13167
20
10.2179
30
8
0
VERTEX
10
8.13257
20
10.2143
30
8
0
VERTEX
10
8.13436
20
10.2126
30
8
0
VERTEX
10
8.13347
20
10.1982
30
8
0
VERTEX
10
8.13257
20
10.1946
30
8
0
VERTEX
10
8.12719
20
10.1875
30
8
0
VERTEX
10
8.1254
20
10.1857
30
8
0
VERTEX
10
8.1254
20
10.1839
30
8
0
VERTEX
10
8.1236
20
10.1821
30
8
0
VERTEX
10
8.12271
20
10.1749
30
8
0
VERTEX
10
8.1236
20
10.1713
30
8
0
VERTEX
10
8.12629
20
10.1677
30
8
0
VERTEX
10
8.12809
20
10.1659
30
8
0
VERTEX
10
8.12809
20
10.1641
30
8
0
VERTEX
10
8.13167
20
10.1606
30
8
0
VERTEX
10
8.13526
20
10.1588
30
8
0
VERTEX
10
8.13705
20
10.1588
30
8
0
VERTEX
10
8.14871
20
10.1453
30
8
0
VERTEX
10
8.15319
20
10.1381
30
8
0
VERTEX
10
8.15409
20
10.1346
30
8
0
VERTEX
10
8.15588
20
10.1328
30
8
0
VERTEX
10
8.15678
20
10.1292
30
8
0
VERTEX
10
8.16216
20
10.1229
30
8
0
VERTEX
10
8.16485
20
10.1157
30
8
0
VERTEX
10
8.16664
20
10.1139
30
8
0
VERTEX
10
8.16664
20
10.1068
30
8
0
VERTEX
10
8.17112
20
10.0924
30
8
0
VERTEX
10
8.17202
20
10.0852
30
8
0
VERTEX
10
8.1756
20
10.0808
30
8
0
VERTEX
10
8.1756
20
10.079
30
8
0
VERTEX
10
8.17829
20
10.0763
30
8
0
VERTEX
10
8.17919
20
10.0745
30
8
0
VERTEX
10
8.18278
20
10.0745
30
8
0
VERTEX
10
8.18816
20
10.0799
30
8
0
VERTEX
10
8.19353
20
10.0942
30
8
0
VERTEX
10
8.19443
20
10.1086
30
8
0
VERTEX
10
8.2025
20
10.122
30
8
0
VERTEX
10
8.20698
20
10.1292
30
8
0
VERTEX
10
8.20878
20
10.1328
30
8
0
VERTEX
10
8.20967
20
10.1399
30
8
0
VERTEX
10
8.21326
20
10.1471
30
8
0
VERTEX
10
8.21595
20
10.1507
30
8
0
VERTEX
10
8.21953
20
10.1525
30
8
0
VERTEX
10
8.22491
20
10.1588
30
8
0
VERTEX
10
8.2276
20
10.1615
30
8
0
VERTEX
10
8.23478
20
10.1624
30
8
0
VERTEX
10
8.23836
20
10.165
30
8
0
VERTEX
10
8.24016
20
10.1722
30
8
0
VERTEX
10
8.24195
20
10.174
30
8
0
VERTEX
10
8.24284
20
10.1812
30
8
0
VERTEX
10
8.24284
20
10.1848
30
8
0
VERTEX
10
8.23747
20
10.191
30
8
0
VERTEX
10
8.23478
20
10.1937
30
8
0
VERTEX
10
8.23119
20
10.1946
30
8
0
VERTEX
10
8.23029
20
10.1964
30
8
0
VERTEX
10
8.2285
20
10.1964
30
8
0
VERTEX
10
8.22671
20
10.2
30
8
0
VERTEX
10
8.21236
20
10.2063
30
8
0
VERTEX
10
8.20519
20
10.2072
30
8
0
VERTEX
10
8.2016
20
10.2072
30
8
0
VERTEX
10
8.19533
20
10.2108
30
8
0
VERTEX
10
8.18905
20
10.2161
30
8
0
VERTEX
10
8.17471
20
10.2161
30
8
0
VERTEX
10
8.16754
20
10.2161
30
8
0
VERTEX
10
8.16574
20
10.217
30
8
0
VERTEX
10
8.16574
20
10.2188
30
8
0
VERTEX
10
8.15947
20
10.226
30
8
0
VERTEX
10
8.1496
20
10.2395
30
8
0
VERTEX
10
8.14512
20
10.2457
30
8
0
VERTEX
10
8.13795
20
10.252
30
8
0
VERTEX
10
8.13436
20
10.2538
30
8
0
VERTEX
10
8.13257
20
10.2556
30
8
0
VERTEX
10
8.10388
20
10.2538
30
8
0
VERTEX
10
8.09671
20
10.2547
30
8
0
VERTEX
10
8.09312
20
10.2556
30
8
0
VERTEX
10
8.09133
20
10.2556
30
8
0
VERTEX
10
8.09223
20
10.2628
30
8
0
VERTEX
10
8.09402
20
10.2646
30
8
0
VERTEX
10
8.09491
20
10.2681
30
8
0
VERTEX
10
8.0994
20
10.2708
30
8
0
VERTEX
10
8.0994
20
10.278
30
8
0
VERTEX
10
8.0994
20
10.2816
30
8
0
VERTEX
10
8.09312
20
10.287
30
8
0
VERTEX
10
8.08595
20
10.2888
30
8
0
VERTEX
10
8.08416
20
10.2888
30
8
0
VERTEX
10
8.08236
20
10.2906
30
8
0
VERTEX
10
8.07519
20
10.2906
30
8
0
VERTEX
10
8.06085
20
10.2843
30
8
0
VERTEX
10
8.05367
20
10.2807
30
8
0
VERTEX
10
8.0465
20
10.2798
30
8
0
VERTEX
10
8.04292
20
10.2789
30
8
0
VERTEX
10
8.03574
20
10.2726
30
8
0
VERTEX
10
8.03305
20
10.2583
30
8
0
VERTEX
10
8.03305
20
10.2511
30
8
0
VERTEX
10
8.03305
20
10.2475
30
8
0
SEQEND
0
ENDSEC
0
EOF
