0
SECTION
2
ENTITIES
0
POLYLINE
62
31
66
1
70
1
3
contour
0
VERTEX
10
7.15216
20
8.88878
30
7.88
0
VERTEX
10
7.17194
20
8.82549
30
7.88
0
VERTEX
10
7.17985
20
8.81757
30
7.88
0
VERTEX
10
7.24315
20
8.83735
30
7.88
0
VERTEX
10
7.2748
20
8.86109
30
7.88
0
VERTEX
10
7.27875
20
8.89273
30
7.88
0
VERTEX
10
7.2748
20
8.90856
30
7.88
0
VERTEX
10
7.26688
20
8.91647
30
7.88
0
VERTEX
10
7.25106
20
8.92043
30
7.88
0
VERTEX
10
7.23524
20
8.93229
30
7.88
0
VERTEX
10
7.20755
20
8.94416
30
7.88
0
VERTEX
10
7.19172
20
8.94812
30
7.88
0
VERTEX
10
7.16008
20
8.94021
30
7.88
0
VERTEX
10
7.15216
20
8.92834
30
7.88
0
VERTEX
10
7.15216
20
8.89669
30
7.88
0
VERTEX
10
7.15216
20
8.89273
30
7.88
0
SEQEND
0
POLYLINE
62
31
66
1
70
1
3
contour
0
VERTEX
10
7.71461
20
10.3352
30
7.88
0
VERTEX
10
7.71647
20
10.3203
30
7.88
0
VERTEX
10
7.72206
20
10.3054
30
7.88
0
VERTEX
10
7.72206
20
10.2458
30
7.88
0
VERTEX
10
7.72392
20
10.216
30
7.88
0
VERTEX
10
7.72392
20
10.2086
30
7.88
0
VERTEX
10
7.72764
20
10.2012
30
7.88
0
VERTEX
10
7.7295
20
10.1863
30
7.88
0
VERTEX
10
7.73881
20
10.1565
30
7.88
0
VERTEX
10
7.73881
20
10.1528
30
7.88
0
VERTEX
10
7.74253
20
10.149
30
7.88
0
VERTEX
10
7.74439
20
10.0299
30
7.88
0
VERTEX
10
7.74439
20
10.015
30
7.88
0
VERTEX
10
7.74812
20
10.0001
30
7.88
0
VERTEX
10
7.74812
20
9.97037
30
7.88
0
VERTEX
10
7.75556
20
9.91081
30
7.88
0
VERTEX
10
7.75928
20
9.90337
30
7.88
0
VERTEX
10
7.75928
20
9.89965
30
7.88
0
VERTEX
10
7.763
20
9.89592
30
7.88
0
VERTEX
10
7.763
20
9.8922
30
7.88
0
VERTEX
10
7.76673
20
9.88848
30
7.88
0
VERTEX
10
7.76673
20
9.88476
30
7.88
0
VERTEX
10
7.77976
20
9.86987
30
7.88
0
VERTEX
10
7.78348
20
9.86242
30
7.88
0
VERTEX
10
7.8114
20
9.83823
30
7.88
0
VERTEX
10
7.82628
20
9.82334
30
7.88
0
VERTEX
10
7.83001
20
9.81961
30
7.88
0
VERTEX
10
7.83187
20
9.81217
30
7.88
0
VERTEX
10
7.8449
20
9.79914
30
7.88
0
VERTEX
10
7.84676
20
9.79542
30
7.88
0
VERTEX
10
7.8542
20
9.79356
30
7.88
0
VERTEX
10
7.85606
20
9.78984
30
7.88
0
VERTEX
10
7.85979
20
9.78984
30
7.88
0
VERTEX
10
7.86723
20
9.78425
30
7.88
0
VERTEX
10
7.87095
20
9.78053
30
7.88
0
VERTEX
10
7.8784
20
9.77867
30
7.88
0
VERTEX
10
7.88212
20
9.77867
30
7.88
0
VERTEX
10
7.8877
20
9.77308
30
7.88
0
VERTEX
10
7.89515
20
9.77122
30
7.88
0
VERTEX
10
7.90259
20
9.76564
30
7.88
0
VERTEX
10
7.90632
20
9.76564
30
7.88
0
VERTEX
10
7.91934
20
9.75633
30
7.88
0
VERTEX
10
7.94912
20
9.74889
30
7.88
0
VERTEX
10
8.00868
20
9.75261
30
7.88
0
VERTEX
10
8.01613
20
9.75261
30
7.88
0
VERTEX
10
8.01985
20
9.76006
30
7.88
0
VERTEX
10
8.03474
20
9.76192
30
7.88
0
VERTEX
10
8.03846
20
9.76192
30
7.88
0
VERTEX
10
8.04032
20
9.76564
30
7.88
0
VERTEX
10
8.0701
20
9.77122
30
7.88
0
VERTEX
10
8.07754
20
9.77495
30
7.88
0
VERTEX
10
8.09243
20
9.77495
30
7.88
0
VERTEX
10
8.10732
20
9.78053
30
7.88
0
VERTEX
10
8.12221
20
9.78239
30
7.88
0
VERTEX
10
8.13524
20
9.79356
30
7.88
0
VERTEX
10
8.13524
20
9.79728
30
7.88
0
VERTEX
10
8.15944
20
9.82334
30
7.88
0
VERTEX
10
8.16874
20
9.83823
30
7.88
0
VERTEX
10
8.17247
20
9.86801
30
7.88
0
VERTEX
10
8.17247
20
9.87545
30
7.88
0
VERTEX
10
8.17805
20
9.89034
30
7.88
0
VERTEX
10
8.17991
20
9.90523
30
7.88
0
VERTEX
10
8.17991
20
9.91267
30
7.88
0
VERTEX
10
8.18735
20
9.92756
30
7.88
0
VERTEX
10
8.18735
20
9.93501
30
7.88
0
VERTEX
10
8.19294
20
9.9499
30
7.88
0
VERTEX
10
8.1948
20
9.95734
30
7.88
0
VERTEX
10
8.20038
20
9.96479
30
7.88
0
VERTEX
10
8.20224
20
9.97968
30
7.88
0
VERTEX
10
8.20597
20
9.98712
30
7.88
0
VERTEX
10
8.20969
20
9.99084
30
7.88
0
VERTEX
10
8.20969
20
9.99457
30
7.88
0
VERTEX
10
8.22086
20
10.0095
30
7.88
0
VERTEX
10
8.23202
20
10.0206
30
7.88
0
VERTEX
10
8.23388
20
10.0281
30
7.88
0
VERTEX
10
8.2525
20
10.0578
30
7.88
0
VERTEX
10
8.25622
20
10.0653
30
7.88
0
VERTEX
10
8.26366
20
10.0727
30
7.88
0
VERTEX
10
8.27297
20
10.0876
30
7.88
0
VERTEX
10
8.28228
20
10.0988
30
7.88
0
VERTEX
10
8.28972
20
10.1286
30
7.88
0
VERTEX
10
8.2953
20
10.1435
30
7.88
0
VERTEX
10
8.29344
20
10.1584
30
7.88
0
VERTEX
10
8.286
20
10.1714
30
7.88
0
VERTEX
10
8.28228
20
10.1863
30
7.88
0
VERTEX
10
8.28228
20
10.2012
30
7.88
0
VERTEX
10
8.26925
20
10.2309
30
7.88
0
VERTEX
10
8.26366
20
10.2458
30
7.88
0
VERTEX
10
8.26366
20
10.2533
30
7.88
0
VERTEX
10
8.25994
20
10.257
30
7.88
0
VERTEX
10
8.25994
20
10.2607
30
7.88
0
VERTEX
10
8.25622
20
10.2644
30
7.88
0
VERTEX
10
8.2525
20
10.2793
30
7.88
0
VERTEX
10
8.24877
20
10.283
30
7.88
0
VERTEX
10
8.23761
20
10.3128
30
7.88
0
VERTEX
10
8.23761
20
10.3203
30
7.88
0
VERTEX
10
8.23388
20
10.324
30
7.88
0
VERTEX
10
8.22272
20
10.3519
30
7.88
0
VERTEX
10
8.21713
20
10.3594
30
7.88
0
VERTEX
10
8.21527
20
10.3668
30
7.88
0
VERTEX
10
8.1948
20
10.3947
30
7.88
0
VERTEX
10
8.18735
20
10.4077
30
7.88
0
VERTEX
10
8.16316
20
10.4375
30
7.88
0
VERTEX
10
8.15758
20
10.445
30
7.88
0
VERTEX
10
8.15013
20
10.4487
30
7.88
0
VERTEX
10
8.14641
20
10.4543
30
7.88
0
VERTEX
10
8.13896
20
10.4617
30
7.88
0
VERTEX
10
8.13896
20
10.4654
30
7.88
0
VERTEX
10
8.12594
20
10.4766
30
7.88
0
VERTEX
10
8.11105
20
10.4915
30
7.88
0
VERTEX
10
8.1036
20
10.4952
30
7.88
0
VERTEX
10
8.07754
20
10.5213
30
7.88
0
VERTEX
10
8.04963
20
10.538
30
7.88
0
VERTEX
10
8.03474
20
10.5473
30
7.88
0
VERTEX
10
8.00496
20
10.5566
30
7.88
0
VERTEX
10
7.97518
20
10.5697
30
7.88
0
VERTEX
10
7.9454
20
10.5753
30
7.88
0
VERTEX
10
7.94354
20
10.5734
30
7.88
0
VERTEX
10
7.9454
20
10.5697
30
7.88
0
VERTEX
10
7.93051
20
10.5678
30
7.88
0
VERTEX
10
7.92307
20
10.5678
30
7.88
0
VERTEX
10
7.90818
20
10.5622
30
7.88
0
VERTEX
10
7.90445
20
10.5585
30
7.88
0
VERTEX
10
7.90073
20
10.5585
30
7.88
0
VERTEX
10
7.89701
20
10.5548
30
7.88
0
VERTEX
10
7.88957
20
10.5529
30
7.88
0
VERTEX
10
7.87654
20
10.5436
30
7.88
0
VERTEX
10
7.87468
20
10.5399
30
7.88
0
VERTEX
10
7.87095
20
10.5399
30
7.88
0
VERTEX
10
7.85979
20
10.5287
30
7.88
0
VERTEX
10
7.83187
20
10.5027
30
7.88
0
VERTEX
10
7.82628
20
10.4952
30
7.88
0
VERTEX
10
7.81884
20
10.4915
30
7.88
0
VERTEX
10
7.80767
20
10.4785
30
7.88
0
VERTEX
10
7.80395
20
10.471
30
7.88
0
VERTEX
10
7.79651
20
10.4636
30
7.88
0
VERTEX
10
7.7872
20
10.4524
30
7.88
0
VERTEX
10
7.75742
20
10.4282
30
7.88
0
VERTEX
10
7.74253
20
10.4189
30
7.88
0
VERTEX
10
7.71834
20
10.3984
30
7.88
0
VERTEX
10
7.71834
20
10.391
30
7.88
0
VERTEX
10
7.71461
20
10.3873
30
7.88
0
VERTEX
10
7.71461
20
10.3575
30
7.88
0
VERTEX
10
7.71461
20
10.3426
30
7.88
0
VERTEX
10
7.71461
20
10.337
30
7.88
0
SEQEND
0
POLYLINE
62
224
66
1
70
1
3
mitochondrion
0
VERTEX
10
7.9032
20
9.97077
30
7.88
0
VERTEX
10
7.90598
20
9.95965
30
7.88
0
VERTEX
10
7.90877
20
9.95409
30
7.88
0
VERTEX
10
7.91155
20
9.95131
30
7.88
0
VERTEX
10
7.91433
20
9.94018
30
7.88
0
VERTEX
10
7.91711
20
9.93879
30
7.88
0
VERTEX
10
7.9185
20
9.93323
30
7.88
0
VERTEX
10
7.95465
20
9.89569
30
7.88
0
VERTEX
10
7.99636
20
9.86788
30
7.88
0
VERTEX
10
8.00749
20
9.86093
30
7.88
0
VERTEX
10
8.02973
20
9.85954
30
7.88
0
VERTEX
10
8.04086
20
9.86093
30
7.88
0
VERTEX
10
8.04642
20
9.86371
30
7.88
0
VERTEX
10
8.0492
20
9.86649
30
7.88
0
VERTEX
10
8.05476
20
9.86788
30
7.88
0
VERTEX
10
8.06588
20
9.87622
30
7.88
0
VERTEX
10
8.07145
20
9.88179
30
7.88
0
VERTEX
10
8.07979
20
9.88874
30
7.88
0
VERTEX
10
8.09369
20
9.90959
30
7.88
0
VERTEX
10
8.10204
20
9.93184
30
7.88
0
VERTEX
10
8.10482
20
9.9374
30
7.88
0
VERTEX
10
8.10343
20
9.9819
30
7.88
0
VERTEX
10
8.10204
20
9.99302
30
7.88
0
VERTEX
10
8.10204
20
9.99858
30
7.88
0
VERTEX
10
8.10204
20
10.0014
30
7.88
0
VERTEX
10
8.08952
20
10.0236
30
7.88
0
VERTEX
10
8.08118
20
10.0333
30
7.88
0
VERTEX
10
8.07701
20
10.0431
30
7.88
0
VERTEX
10
8.06727
20
10.0542
30
7.88
0
VERTEX
10
8.0631
20
10.0584
30
7.88
0
VERTEX
10
8.05754
20
10.0598
30
7.88
0
VERTEX
10
8.05476
20
10.0653
30
7.88
0
VERTEX
10
8.04364
20
10.0764
30
7.88
0
VERTEX
10
8.03808
20
10.082
30
7.88
0
VERTEX
10
8.02695
20
10.0862
30
7.88
0
VERTEX
10
8.02139
20
10.0876
30
7.88
0
VERTEX
10
8.01583
20
10.0917
30
7.88
0
VERTEX
10
8.01027
20
10.0917
30
7.88
0
VERTEX
10
8.0047
20
10.0945
30
7.88
0
VERTEX
10
7.98246
20
10.0945
30
7.88
0
VERTEX
10
7.96021
20
10.0917
30
7.88
0
VERTEX
10
7.94909
20
10.0903
30
7.88
0
VERTEX
10
7.94631
20
10.089
30
7.88
0
VERTEX
10
7.95187
20
10.0862
30
7.88
0
VERTEX
10
7.95048
20
10.082
30
7.88
0
VERTEX
10
7.94492
20
10.0764
30
7.88
0
VERTEX
10
7.93935
20
10.0653
30
7.88
0
VERTEX
10
7.93101
20
10.0556
30
7.88
0
VERTEX
10
7.92823
20
10.0542
30
7.88
0
VERTEX
10
7.92823
20
10.0486
30
7.88
0
VERTEX
10
7.9185
20
10.0375
30
7.88
0
VERTEX
10
7.91433
20
10.0264
30
7.88
0
VERTEX
10
7.91572
20
10.0208
30
7.88
0
VERTEX
10
7.91155
20
10.0153
30
7.88
0
VERTEX
10
7.91016
20
10.0097
30
7.88
0
VERTEX
10
7.91016
20
10.0069
30
7.88
0
VERTEX
10
7.90737
20
10.0041
30
7.88
0
VERTEX
10
7.9032
20
9.9819
30
7.88
0
VERTEX
10
7.9032
20
9.97216
30
7.88
0
SEQEND
0
POLYLINE
62
227
66
1
70
1
3
endoplasmic_reticulum
0
VERTEX
10
8.14422
20
10.2188
30
7.88
0
VERTEX
10
8.14691
20
10.2117
30
7.88
0
VERTEX
10
8.14871
20
10.2099
30
7.88
0
VERTEX
10
8.16305
20
10.2072
30
7.88
0
VERTEX
10
8.17022
20
10.2081
30
7.88
0
VERTEX
10
8.17202
20
10.2099
30
7.88
0
VERTEX
10
8.17381
20
10.2099
30
7.88
0
VERTEX
10
8.18009
20
10.2143
30
7.88
0
VERTEX
10
8.18547
20
10.2206
30
7.88
0
VERTEX
10
8.18726
20
10.2224
30
7.88
0
VERTEX
10
8.18726
20
10.2242
30
7.88
0
VERTEX
10
8.18995
20
10.2269
30
7.88
0
VERTEX
10
8.18905
20
10.2412
30
7.88
0
VERTEX
10
8.18816
20
10.2484
30
7.88
0
VERTEX
10
8.18726
20
10.252
30
7.88
0
VERTEX
10
8.18457
20
10.2556
30
7.88
0
VERTEX
10
8.17022
20
10.2583
30
7.88
0
VERTEX
10
8.16305
20
10.2601
30
7.88
0
VERTEX
10
8.15588
20
10.2583
30
7.88
0
VERTEX
10
8.15229
20
10.2565
30
7.88
0
VERTEX
10
8.1505
20
10.2547
30
7.88
0
VERTEX
10
8.1505
20
10.2529
30
7.88
0
VERTEX
10
8.14602
20
10.2457
30
7.88
0
VERTEX
10
8.14602
20
10.2386
30
7.88
0
VERTEX
10
8.14602
20
10.235
30
7.88
0
VERTEX
10
8.14422
20
10.2314
30
7.88
0
VERTEX
10
8.14422
20
10.2242
30
7.88
0
VERTEX
10
8.14422
20
10.2206
30
7.88
0
VERTEX
10
8.14422
20
10.2197
30
7.88
0
SEQEND
0
POLYLINE
62
227
66
1
70
1
3
endoplasmic_reticulum
0
VERTEX
10
8.16126
20
10.1444
30
7.88
0
VERTEX
10
8.16485
20
10.1435
30
7.88
0
VERTEX
10
8.16664
20
10.1417
30
7.88
0
VERTEX
10
8.17022
20
10.1417
30
7.88
0
VERTEX
10
8.1765
20
10.1372
30
7.88
0
VERTEX
10
8.18367
20
10.1364
30
7.88
0
VERTEX
10
8.18726
20
10.1355
30
7.88
0
VERTEX
10
8.21595
20
10.1381
30
7.88
0
VERTEX
10
8.21953
20
10.1408
30
7.88
0
VERTEX
10
8.22312
20
10.1417
30
7.88
0
VERTEX
10
8.2294
20
10.1471
30
7.88
0
VERTEX
10
8.23209
20
10.1498
30
7.88
0
VERTEX
10
8.23298
20
10.1534
30
7.88
0
VERTEX
10
8.23567
20
10.157
30
7.88
0
VERTEX
10
8.23478
20
10.1713
30
7.88
0
VERTEX
10
8.23388
20
10.1749
30
7.88
0
VERTEX
10
8.22312
20
10.1866
30
7.88
0
VERTEX
10
8.21595
20
10.1883
30
7.88
0
VERTEX
10
8.2016
20
10.1875
30
7.88
0
VERTEX
10
8.19802
20
10.1857
30
7.88
0
VERTEX
10
8.19085
20
10.1857
30
7.88
0
VERTEX
10
8.18726
20
10.1857
30
7.88
0
VERTEX
10
8.17381
20
10.1758
30
7.88
0
VERTEX
10
8.16754
20
10.1713
30
7.88
0
VERTEX
10
8.16305
20
10.157
30
7.88
0
VERTEX
10
8.16126
20
10.1498
30
7.88
0
VERTEX
10
8.16126
20
10.1462
30
7.88
0
VERTEX
10
8.16126
20
10.1453
30
7.88
0
SEQEND
0
POLYLINE
62
227
66
1
70
1
3
endoplasmic_reticulum
0
VERTEX
10
8.00974
20
10.2995
30
7.88
0
VERTEX
10
8.01154
20
10.2986
30
7.88
0
VERTEX
10
8.01243
20
10.2915
30
7.88
0
VERTEX
10
8.01512
20
10.2843
30
7.88
0
VERTEX
10
8.01602
20
10.2807
30
7.88
0
VERTEX
10
8.01871
20
10.278
30
7.88
0
VERTEX
10
8.03305
20
10.278
30
7.88
0
VERTEX
10
8.04023
20
10.2789
30
7.88
0
VERTEX
10
8.04381
20
10.2807
30
7.88
0
VERTEX
10
8.04471
20
10.2825
30
7.88
0
VERTEX
10
8.04829
20
10.2834
30
7.88
0
VERTEX
10
8.05098
20
10.2861
30
7.88
0
VERTEX
10
8.05457
20
10.287
30
7.88
0
VERTEX
10
8.05905
20
10.2941
30
7.88
0
VERTEX
10
8.05905
20
10.2959
30
7.88
0
VERTEX
10
8.0734
20
10.2968
30
7.88
0
VERTEX
10
8.08057
20
10.2977
30
7.88
0
VERTEX
10
8.09491
20
10.2959
30
7.88
0
VERTEX
10
8.10926
20
10.2968
30
7.88
0
VERTEX
10
8.11285
20
10.2977
30
7.88
0
VERTEX
10
8.11643
20
10.3004
30
7.88
0
VERTEX
10
8.12002
20
10.3013
30
7.88
0
VERTEX
10
8.12271
20
10.3049
30
7.88
0
VERTEX
10
8.12271
20
10.3121
30
7.88
0
VERTEX
10
8.12002
20
10.3192
30
7.88
0
VERTEX
10
8.12002
20
10.3228
30
7.88
0
VERTEX
10
8.11554
20
10.3273
30
7.88
0
VERTEX
10
8.10119
20
10.33
30
7.88
0
VERTEX
10
8.08685
20
10.33
30
7.88
0
VERTEX
10
8.07967
20
10.3291
30
7.88
0
VERTEX
10
8.07609
20
10.3264
30
7.88
0
VERTEX
10
8.06891
20
10.3255
30
7.88
0
VERTEX
10
8.06533
20
10.3246
30
7.88
0
VERTEX
10
8.06354
20
10.3228
30
7.88
0
VERTEX
10
8.05995
20
10.3228
30
7.88
0
VERTEX
10
8.05816
20
10.321
30
7.88
0
VERTEX
10
8.05636
20
10.321
30
7.88
0
VERTEX
10
8.05457
20
10.3192
30
7.88
0
VERTEX
10
8.05278
20
10.3192
30
7.88
0
VERTEX
10
8.05098
20
10.3175
30
7.88
0
VERTEX
10
8.03664
20
10.3166
30
7.88
0
VERTEX
10
8.02947
20
10.3139
30
7.88
0
VERTEX
10
8.02588
20
10.3139
30
7.88
0
VERTEX
10
8.01243
20
10.304
30
7.88
0
VERTEX
10
8.00974
20
10.3013
30
7.88
0
VERTEX
10
8.00974
20
10.3004
30
7.88
0
SEQEND
0
POLYLINE
62
227
66
1
70
1
3
endoplasmic_reticulum
0
VERTEX
10
7.81161
20
10.2341
30
7.88
0
VERTEX
10
7.8143
20
10.2197
30
7.88
0
VERTEX
10
7.81609
20
10.2188
30
7.88
0
VERTEX
10
7.81609
20
10.2152
30
7.88
0
VERTEX
10
7.81878
20
10.2126
30
7.88
0
VERTEX
10
7.81968
20
10.2117
30
7.88
0
VERTEX
10
7.81878
20
10.2108
30
7.88
0
VERTEX
10
7.82147
20
10.2072
30
7.88
0
VERTEX
10
7.82326
20
10.2063
30
7.88
0
VERTEX
10
7.82326
20
10.2045
30
7.88
0
VERTEX
10
7.82595
20
10.2009
30
7.88
0
VERTEX
10
7.82685
20
10.1973
30
7.88
0
VERTEX
10
7.82954
20
10.1946
30
7.88
0
VERTEX
10
7.83133
20
10.1946
30
7.88
0
VERTEX
10
7.83492
20
10.1919
30
7.88
0
VERTEX
10
7.83761
20
10.1848
30
7.88
0
VERTEX
10
7.8385
20
10.1704
30
7.88
0
VERTEX
10
7.8394
20
10.1632
30
7.88
0
VERTEX
10
7.84657
20
10.1588
30
7.88
0
VERTEX
10
7.85374
20
10.1597
30
7.88
0
VERTEX
10
7.85464
20
10.1615
30
7.88
0
VERTEX
10
7.86181
20
10.1624
30
7.88
0
VERTEX
10
7.86809
20
10.1686
30
7.88
0
VERTEX
10
7.86899
20
10.1722
30
7.88
0
VERTEX
10
7.87257
20
10.1749
30
7.88
0
VERTEX
10
7.87436
20
10.1892
30
7.88
0
VERTEX
10
7.87436
20
10.1928
30
7.88
0
VERTEX
10
7.87705
20
10.2
30
7.88
0
VERTEX
10
7.87885
20
10.2143
30
7.88
0
VERTEX
10
7.87885
20
10.2179
30
7.88
0
VERTEX
10
7.87885
20
10.2197
30
7.88
0
VERTEX
10
7.8905
20
10.2314
30
7.88
0
VERTEX
10
7.8923
20
10.2332
30
7.88
0
VERTEX
10
7.8923
20
10.235
30
7.88
0
VERTEX
10
7.89588
20
10.2377
30
7.88
0
VERTEX
10
7.89767
20
10.2395
30
7.88
0
VERTEX
10
7.90126
20
10.2403
30
7.88
0
VERTEX
10
7.90395
20
10.2439
30
7.88
0
VERTEX
10
7.90574
20
10.2511
30
7.88
0
VERTEX
10
7.90664
20
10.2529
30
7.88
0
VERTEX
10
7.90574
20
10.2547
30
7.88
0
VERTEX
10
7.8914
20
10.2547
30
7.88
0
VERTEX
10
7.88781
20
10.2547
30
7.88
0
VERTEX
10
7.88154
20
10.2493
30
7.88
0
VERTEX
10
7.87795
20
10.2484
30
7.88
0
VERTEX
10
7.87616
20
10.2475
30
7.88
0
VERTEX
10
7.87616
20
10.2457
30
7.88
0
VERTEX
10
7.87436
20
10.2439
30
7.88
0
VERTEX
10
7.86002
20
10.243
30
7.88
0
VERTEX
10
7.85285
20
10.243
30
7.88
0
VERTEX
10
7.84926
20
10.243
30
7.88
0
VERTEX
10
7.84568
20
10.2412
30
7.88
0
VERTEX
10
7.81699
20
10.2421
30
7.88
0
VERTEX
10
7.8134
20
10.2421
30
7.88
0
VERTEX
10
7.81161
20
10.2412
30
7.88
0
VERTEX
10
7.81161
20
10.235
30
7.88
0
SEQEND
0
POLYLINE
62
227
66
1
70
1
3
endoplasmic_reticulum
0
VERTEX
10
7.82416
20
9.99649
30
7.88
0
VERTEX
10
7.82505
20
9.98214
30
7.88
0
VERTEX
10
7.82595
20
9.97856
30
7.88
0
VERTEX
10
7.83671
20
9.9678
30
7.88
0
VERTEX
10
7.84388
20
9.96421
30
7.88
0
VERTEX
10
7.85105
20
9.96332
30
7.88
0
VERTEX
10
7.85823
20
9.96601
30
7.88
0
VERTEX
10
7.8654
20
9.9669
30
7.88
0
VERTEX
10
7.86899
20
9.9687
30
7.88
0
VERTEX
10
7.86899
20
9.97049
30
7.88
0
VERTEX
10
7.87167
20
9.97408
30
7.88
0
VERTEX
10
7.87167
20
9.98125
30
7.88
0
VERTEX
10
7.87167
20
9.98483
30
7.88
0
VERTEX
10
7.87167
20
9.98663
30
7.88
0
VERTEX
10
7.86988
20
9.98842
30
7.88
0
VERTEX
10
7.86988
20
9.99201
30
7.88
0
VERTEX
10
7.8654
20
9.99828
30
7.88
0
VERTEX
10
7.86271
20
10.0019
30
7.88
0
VERTEX
10
7.86002
20
10.0162
30
7.88
0
VERTEX
10
7.85643
20
10.0225
30
7.88
0
VERTEX
10
7.85733
20
10.0234
30
7.88
0
VERTEX
10
7.85554
20
10.0243
30
7.88
0
VERTEX
10
7.84119
20
10.0207
30
7.88
0
VERTEX
10
7.83402
20
10.018
30
7.88
0
VERTEX
10
7.82774
20
10.0126
30
7.88
0
VERTEX
10
7.82416
20
10.0055
30
7.88
0
VERTEX
10
7.82416
20
9.99828
30
7.88
0
VERTEX
10
7.82416
20
9.99739
30
7.88
0
SEQEND
0
ENDSEC
0
EOF
