0
SECTION
2
ENTITIES
0
POLYLINE
62
31
66
1
70
1
3
contour
0
VERTEX
10
6.97588
20
10.7026
30
10.16
0
VERTEX
10
6.98334
20
10.6876
30
10.16
0
VERTEX
10
6.99826
20
10.6839
30
10.16
0
VERTEX
10
7.00572
20
10.6839
30
10.16
0
VERTEX
10
7.00945
20
10.669
30
10.16
0
VERTEX
10
7.01318
20
10.6615
30
10.16
0
VERTEX
10
7.04303
20
10.6503
30
10.16
0
VERTEX
10
7.05795
20
10.6466
30
10.16
0
VERTEX
10
7.07287
20
10.6354
30
10.16
0
VERTEX
10
7.08779
20
10.6354
30
10.16
0
VERTEX
10
7.10271
20
10.628
30
10.16
0
VERTEX
10
7.11018
20
10.628
30
10.16
0
VERTEX
10
7.11764
20
10.6205
30
10.16
0
VERTEX
10
7.14748
20
10.613
30
10.16
0
VERTEX
10
7.15494
20
10.6056
30
10.16
0
VERTEX
10
7.21463
20
10.5869
30
10.16
0
VERTEX
10
7.27431
20
10.5869
30
10.16
0
VERTEX
10
7.28924
20
10.5795
30
10.16
0
VERTEX
10
7.31908
20
10.5795
30
10.16
0
VERTEX
10
7.34892
20
10.572
30
10.16
0
VERTEX
10
7.40861
20
10.572
30
10.16
0
VERTEX
10
7.42353
20
10.5795
30
10.16
0
VERTEX
10
7.48322
20
10.5832
30
10.16
0
VERTEX
10
7.51306
20
10.5944
30
10.16
0
VERTEX
10
7.53917
20
10.6168
30
10.16
0
VERTEX
10
7.56156
20
10.6466
30
10.16
0
VERTEX
10
7.57275
20
10.6765
30
10.16
0
VERTEX
10
7.5914
20
10.7026
30
10.16
0
VERTEX
10
7.60259
20
10.7623
30
10.16
0
VERTEX
10
7.59886
20
10.8219
30
10.16
0
VERTEX
10
7.58021
20
10.8816
30
10.16
0
VERTEX
10
7.57648
20
10.8965
30
10.16
0
VERTEX
10
7.50187
20
11.0085
30
10.16
0
VERTEX
10
7.47576
20
11.0346
30
10.16
0
VERTEX
10
7.46083
20
11.0234
30
10.16
0
VERTEX
10
7.43099
20
11.0197
30
10.16
0
VERTEX
10
7.40115
20
11.0085
30
10.16
0
VERTEX
10
7.39369
20
11.0085
30
10.16
0
VERTEX
10
7.37877
20
10.9973
30
10.16
0
VERTEX
10
7.34892
20
10.9861
30
10.16
0
VERTEX
10
7.32281
20
10.9674
30
10.16
0
VERTEX
10
7.30789
20
10.9637
30
10.16
0
VERTEX
10
7.29297
20
10.9525
30
10.16
0
VERTEX
10
7.28551
20
10.9525
30
10.16
0
VERTEX
10
7.27804
20
10.945
30
10.16
0
VERTEX
10
7.27058
20
10.945
30
10.16
0
VERTEX
10
7.26312
20
10.9376
30
10.16
0
VERTEX
10
7.2482
20
10.9376
30
10.16
0
VERTEX
10
7.21836
20
10.9264
30
10.16
0
VERTEX
10
7.20717
20
10.9152
30
10.16
0
VERTEX
10
7.14748
20
10.8965
30
10.16
0
VERTEX
10
7.13256
20
10.8965
30
10.16
0
VERTEX
10
7.1251
20
10.8891
30
10.16
0
VERTEX
10
7.06541
20
10.8854
30
10.16
0
VERTEX
10
7.0393
20
10.8704
30
10.16
0
VERTEX
10
7.01318
20
10.8406
30
10.16
0
VERTEX
10
6.9908
20
10.8182
30
10.16
0
VERTEX
10
6.97588
20
10.7884
30
10.16
0
VERTEX
10
6.97588
20
10.7287
30
10.16
0
VERTEX
10
6.97588
20
10.7138
30
10.16
0
VERTEX
10
6.97588
20
10.7063
30
10.16
0
SEQEND
0
POLYLINE
62
224
66
1
70
1
3
mitochondrion
0
VERTEX
10
7.19269
20
10.7897
30
10.16
0
VERTEX
10
7.19408
20
10.7842
30
10.16
0
VERTEX
10
7.19826
20
10.7786
30
10.16
0
VERTEX
10
7.20243
20
10.7675
30
10.16
0
VERTEX
10
7.21216
20
10.7578
30
10.16
0
VERTEX
10
7.22328
20
10.7508
30
10.16
0
VERTEX
10
7.24553
20
10.7522
30
10.16
0
VERTEX
10
7.25109
20
10.7536
30
10.16
0
VERTEX
10
7.25387
20
10.7564
30
10.16
0
VERTEX
10
7.25248
20
10.7786
30
10.16
0
VERTEX
10
7.25248
20
10.7842
30
10.16
0
VERTEX
10
7.25248
20
10.787
30
10.16
0
VERTEX
10
7.24831
20
10.7925
30
10.16
0
VERTEX
10
7.23858
20
10.7995
30
10.16
0
VERTEX
10
7.2358
20
10.7995
30
10.16
0
VERTEX
10
7.23024
20
10.8036
30
10.16
0
VERTEX
10
7.21911
20
10.805
30
10.16
0
VERTEX
10
7.19687
20
10.7953
30
10.16
0
VERTEX
10
7.19269
20
10.7911
30
10.16
0
SEQEND
0
POLYLINE
62
227
66
1
70
1
3
endoplasmic_reticulum
0
VERTEX
10
7.48168
20
10.6734
30
10.16
0
VERTEX
10
7.48257
20
10.6698
30
10.16
0
VERTEX
10
7.48526
20
10.6662
30
10.16
0
VERTEX
10
7.48616
20
10.6626
30
10.16
0
VERTEX
10
7.48885
20
10.6599
30
10.16
0
VERTEX
10
7.49602
20
10.659
30
10.16
0
VERTEX
10
7.49602
20
10.6572
30
10.16
0
VERTEX
10
7.49782
20
10.6555
30
10.16
0
VERTEX
10
7.49961
20
10.6555
30
10.16
0
VERTEX
10
7.5014
20
10.6537
30
10.16
0
VERTEX
10
7.50857
20
10.6537
30
10.16
0
VERTEX
10
7.51216
20
10.6537
30
10.16
0
VERTEX
10
7.51933
20
10.6563
30
10.16
0
VERTEX
10
7.5265
20
10.6572
30
10.16
0
VERTEX
10
7.53009
20
10.6572
30
10.16
0
VERTEX
10
7.53368
20
10.6599
30
10.16
0
VERTEX
10
7.53547
20
10.6617
30
10.16
0
VERTEX
10
7.53547
20
10.6635
30
10.16
0
VERTEX
10
7.53906
20
10.6653
30
10.16
0
VERTEX
10
7.53995
20
10.6671
30
10.16
0
VERTEX
10
7.54354
20
10.668
30
10.16
0
VERTEX
10
7.54713
20
10.6707
30
10.16
0
VERTEX
10
7.54892
20
10.6725
30
10.16
0
VERTEX
10
7.55519
20
10.6868
30
10.16
0
VERTEX
10
7.55609
20
10.694
30
10.16
0
VERTEX
10
7.55609
20
10.6976
30
10.16
0
VERTEX
10
7.5543
20
10.6994
30
10.16
0
VERTEX
10
7.5525
20
10.7137
30
10.16
0
VERTEX
10
7.55071
20
10.7146
30
10.16
0
VERTEX
10
7.55071
20
10.729
30
10.16
0
VERTEX
10
7.55071
20
10.7361
30
10.16
0
VERTEX
10
7.54892
20
10.7433
30
10.16
0
VERTEX
10
7.54892
20
10.7469
30
10.16
0
VERTEX
10
7.54713
20
10.7478
30
10.16
0
VERTEX
10
7.53995
20
10.7442
30
10.16
0
VERTEX
10
7.53637
20
10.7424
30
10.16
0
VERTEX
10
7.52919
20
10.7415
30
10.16
0
VERTEX
10
7.52561
20
10.7415
30
10.16
0
VERTEX
10
7.52381
20
10.7397
30
10.16
0
VERTEX
10
7.52202
20
10.7254
30
10.16
0
VERTEX
10
7.52023
20
10.7236
30
10.16
0
VERTEX
10
7.51306
20
10.7218
30
10.16
0
VERTEX
10
7.51126
20
10.7218
30
10.16
0
VERTEX
10
7.50409
20
10.7173
30
10.16
0
VERTEX
10
7.49961
20
10.7128
30
10.16
0
VERTEX
10
7.49602
20
10.7119
30
10.16
0
VERTEX
10
7.49513
20
10.7083
30
10.16
0
VERTEX
10
7.49333
20
10.7066
30
10.16
0
VERTEX
10
7.49244
20
10.703
30
10.16
0
VERTEX
10
7.48706
20
10.6967
30
10.16
0
VERTEX
10
7.48526
20
10.6949
30
10.16
0
VERTEX
10
7.48526
20
10.6913
30
10.16
0
VERTEX
10
7.48257
20
10.6877
30
10.16
0
VERTEX
10
7.48168
20
10.6743
30
10.16
0
SEQEND
0
POLYLINE
62
227
66
1
70
1
3
endoplasmic_reticulum
0
VERTEX
10
7.10961
20
10.6931
30
10.16
0
VERTEX
10
7.1132
20
10.6922
30
10.16
0
VERTEX
10
7.11678
20
10.6931
30
10.16
0
VERTEX
10
7.12396
20
10.6976
30
10.16
0
VERTEX
10
7.13113
20
10.6985
30
10.16
0
VERTEX
10
7.13471
20
10.7003
30
10.16
0
VERTEX
10
7.14189
20
10.7012
30
10.16
0
VERTEX
10
7.14458
20
10.7039
30
10.16
0
VERTEX
10
7.14816
20
10.7048
30
10.16
0
VERTEX
10
7.15444
20
10.7101
30
10.16
0
VERTEX
10
7.15623
20
10.7173
30
10.16
0
VERTEX
10
7.15533
20
10.7317
30
10.16
0
VERTEX
10
7.15264
20
10.7352
30
10.16
0
VERTEX
10
7.15264
20
10.7388
30
10.16
0
VERTEX
10
7.14996
20
10.7424
30
10.16
0
VERTEX
10
7.13561
20
10.7415
30
10.16
0
VERTEX
10
7.12216
20
10.7343
30
10.16
0
VERTEX
10
7.11589
20
10.7299
30
10.16
0
VERTEX
10
7.11589
20
10.7263
30
10.16
0
VERTEX
10
7.11409
20
10.7245
30
10.16
0
VERTEX
10
7.11409
20
10.7209
30
10.16
0
VERTEX
10
7.11051
20
10.7146
30
10.16
0
VERTEX
10
7.10961
20
10.7003
30
10.16
0
VERTEX
10
7.10961
20
10.694
30
10.16
0
SEQEND
0
POLYLINE
62
227
66
1
70
1
3
endoplasmic_reticulum
0
VERTEX
10
7.12037
20
10.8007
30
10.16
0
VERTEX
10
7.12754
20
10.7953
30
10.16
0
VERTEX
10
7.13471
20
10.7935
30
10.16
0
VERTEX
10
7.14189
20
10.7935
30
10.16
0
VERTEX
10
7.14906
20
10.7953
30
10.16
0
VERTEX
10
7.15264
20
10.7971
30
10.16
0
VERTEX
10
7.15623
20
10.8016
30
10.16
0
VERTEX
10
7.15802
20
10.8088
30
10.16
0
VERTEX
10
7.16251
20
10.8159
30
10.16
0
VERTEX
10
7.1643
20
10.8177
30
10.16
0
VERTEX
10
7.1643
20
10.8195
30
10.16
0
VERTEX
10
7.16699
20
10.8213
30
10.16
0
VERTEX
10
7.17864
20
10.8339
30
10.16
0
VERTEX
10
7.18044
20
10.8366
30
10.16
0
VERTEX
10
7.18671
20
10.8437
30
10.16
0
VERTEX
10
7.19389
20
10.8482
30
10.16
0
VERTEX
10
7.20823
20
10.8491
30
10.16
0
VERTEX
10
7.2154
20
10.8509
30
10.16
0
VERTEX
10
7.21899
20
10.8518
30
10.16
0
VERTEX
10
7.22078
20
10.8518
30
10.16
0
VERTEX
10
7.22437
20
10.8545
30
10.16
0
VERTEX
10
7.23871
20
10.8563
30
10.16
0
VERTEX
10
7.2423
20
10.8572
30
10.16
0
VERTEX
10
7.24409
20
10.8572
30
10.16
0
VERTEX
10
7.24499
20
10.859
30
10.16
0
VERTEX
10
7.25216
20
10.8599
30
10.16
0
VERTEX
10
7.25575
20
10.8626
30
10.16
0
VERTEX
10
7.27009
20
10.8634
30
10.16
0
VERTEX
10
7.27637
20
10.8679
30
10.16
0
VERTEX
10
7.27995
20
10.8697
30
10.16
0
VERTEX
10
7.2943
20
10.8688
30
10.16
0
VERTEX
10
7.30864
20
10.8643
30
10.16
0
VERTEX
10
7.31223
20
10.8626
30
10.16
0
VERTEX
10
7.3194
20
10.8482
30
10.16
0
VERTEX
10
7.3203
20
10.8446
30
10.16
0
VERTEX
10
7.32657
20
10.8383
30
10.16
0
VERTEX
10
7.32837
20
10.8348
30
10.16
0
VERTEX
10
7.33464
20
10.8294
30
10.16
0
VERTEX
10
7.34182
20
10.8276
30
10.16
0
VERTEX
10
7.34899
20
10.8276
30
10.16
0
VERTEX
10
7.35078
20
10.8276
30
10.16
0
VERTEX
10
7.35437
20
10.8312
30
10.16
0
VERTEX
10
7.35885
20
10.8455
30
10.16
0
VERTEX
10
7.36154
20
10.8599
30
10.16
0
VERTEX
10
7.36154
20
10.867
30
10.16
0
VERTEX
10
7.36154
20
10.8706
30
10.16
0
VERTEX
10
7.36333
20
10.8742
30
10.16
0
VERTEX
10
7.36333
20
10.8778
30
10.16
0
VERTEX
10
7.36513
20
10.8796
30
10.16
0
VERTEX
10
7.36602
20
10.8868
30
10.16
0
VERTEX
10
7.36692
20
10.8903
30
10.16
0
VERTEX
10
7.3714
20
10.8966
30
10.16
0
VERTEX
10
7.37409
20
10.911
30
10.16
0
VERTEX
10
7.3732
20
10.9253
30
10.16
0
VERTEX
10
7.3732
20
10.9289
30
10.16
0
VERTEX
10
7.3714
20
10.9325
30
10.16
0
VERTEX
10
7.36782
20
10.9334
30
10.16
0
VERTEX
10
7.36244
20
10.9397
30
10.16
0
VERTEX
10
7.34809
20
10.9388
30
10.16
0
VERTEX
10
7.34092
20
10.9388
30
10.16
0
VERTEX
10
7.32657
20
10.9352
30
10.16
0
VERTEX
10
7.3194
20
10.9316
30
10.16
0
VERTEX
10
7.30775
20
10.9199
30
10.16
0
VERTEX
10
7.27906
20
10.9154
30
10.16
0
VERTEX
10
7.27189
20
10.9154
30
10.16
0
VERTEX
10
7.26471
20
10.9128
30
10.16
0
VERTEX
10
7.26113
20
10.9119
30
10.16
0
VERTEX
10
7.26023
20
10.9101
30
10.16
0
VERTEX
10
7.24589
20
10.9056
30
10.16
0
VERTEX
10
7.23871
20
10.9038
30
10.16
0
VERTEX
10
7.23513
20
10.9038
30
10.16
0
VERTEX
10
7.22795
20
10.8993
30
10.16
0
VERTEX
10
7.22437
20
10.8975
30
10.16
0
VERTEX
10
7.22347
20
10.8948
30
10.16
0
VERTEX
10
7.20913
20
10.8894
30
10.16
0
VERTEX
10
7.19478
20
10.8859
30
10.16
0
VERTEX
10
7.1912
20
10.8859
30
10.16
0
VERTEX
10
7.18402
20
10.8814
30
10.16
0
VERTEX
10
7.18044
20
10.8796
30
10.16
0
VERTEX
10
7.16878
20
10.8652
30
10.16
0
VERTEX
10
7.14458
20
10.8401
30
10.16
0
VERTEX
10
7.1383
20
10.8339
30
10.16
0
VERTEX
10
7.13471
20
10.8267
30
10.16
0
VERTEX
10
7.13471
20
10.8249
30
10.16
0
VERTEX
10
7.13202
20
10.8213
30
10.16
0
VERTEX
10
7.13023
20
10.8195
30
10.16
0
VERTEX
10
7.12844
20
10.8195
30
10.16
0
VERTEX
10
7.12575
20
10.8132
30
10.16
0
VERTEX
10
7.12216
20
10.8132
30
10.16
0
VERTEX
10
7.12037
20
10.8123
30
10.16
0
VERTEX
10
7.12037
20
10.8052
30
10.16
0
VERTEX
10
7.12037
20
10.8016
30
10.16
0
SEQEND
0
POLYLINE
62
227
66
1
70
1
3
endoplasmic_reticulum
0
VERTEX
10
7.27009
20
10.7711
30
10.16
0
VERTEX
10
7.27099
20
10.7639
30
10.16
0
VERTEX
10
7.27099
20
10.7603
30
10.16
0
VERTEX
10
7.27458
20
10.7532
30
10.16
0
VERTEX
10
7.27547
20
10.7496
30
10.16
0
VERTEX
10
7.28264
20
10.7433
30
10.16
0
VERTEX
10
7.28623
20
10.7406
30
10.16
0
VERTEX
10
7.2934
20
10.7379
30
10.16
0
VERTEX
10
7.30057
20
10.7335
30
10.16
0
VERTEX
10
7.30775
20
10.7317
30
10.16
0
VERTEX
10
7.32209
20
10.7317
30
10.16
0
VERTEX
10
7.32926
20
10.7326
30
10.16
0
VERTEX
10
7.33285
20
10.7335
30
10.16
0
VERTEX
10
7.3472
20
10.7433
30
10.16
0
VERTEX
10
7.35257
20
10.7496
30
10.16
0
VERTEX
10
7.35437
20
10.7532
30
10.16
0
VERTEX
10
7.35347
20
10.7819
30
10.16
0
VERTEX
10
7.35257
20
10.7854
30
10.16
0
VERTEX
10
7.3472
20
10.7926
30
10.16
0
VERTEX
10
7.34092
20
10.798
30
10.16
0
VERTEX
10
7.32657
20
10.7989
30
10.16
0
VERTEX
10
7.31223
20
10.798
30
10.16
0
VERTEX
10
7.30506
20
10.7971
30
10.16
0
VERTEX
10
7.30147
20
10.7971
30
10.16
0
VERTEX
10
7.29968
20
10.7971
30
10.16
0
VERTEX
10
7.29878
20
10.7953
30
10.16
0
VERTEX
10
7.28444
20
10.7908
30
10.16
0
VERTEX
10
7.27816
20
10.7854
30
10.16
0
VERTEX
10
7.27547
20
10.7819
30
10.16
0
VERTEX
10
7.27368
20
10.7819
30
10.16
0
VERTEX
10
7.27189
20
10.7801
30
10.16
0
VERTEX
10
7.27189
20
10.7765
30
10.16
0
VERTEX
10
7.27009
20
10.7756
30
10.16
0
VERTEX
10
7.27009
20
10.772
30
10.16
0
SEQEND
0
POLYLINE
62
227
66
1
70
1
3
endoplasmic_reticulum
0
VERTEX
10
7.35078
20
10.7128
30
10.16
0
VERTEX
10
7.35347
20
10.7057
30
10.16
0
VERTEX
10
7.35526
20
10.6913
30
10.16
0
VERTEX
10
7.35975
20
10.6841
30
10.16
0
VERTEX
10
7.36602
20
10.6797
30
10.16
0
VERTEX
10
7.36961
20
10.6797
30
10.16
0
VERTEX
10
7.37588
20
10.6823
30
10.16
0
VERTEX
10
7.38216
20
10.6868
30
10.16
0
VERTEX
10
7.38485
20
10.685
30
10.16
0
VERTEX
10
7.38844
20
10.6868
30
10.16
0
VERTEX
10
7.39023
20
10.6868
30
10.16
0
VERTEX
10
7.39292
20
10.6904
30
10.16
0
VERTEX
10
7.39382
20
10.7048
30
10.16
0
VERTEX
10
7.39292
20
10.7083
30
10.16
0
VERTEX
10
7.38754
20
10.7146
30
10.16
0
VERTEX
10
7.38395
20
10.7173
30
10.16
0
VERTEX
10
7.38037
20
10.7182
30
10.16
0
VERTEX
10
7.37857
20
10.7182
30
10.16
0
VERTEX
10
7.37768
20
10.7254
30
10.16
0
VERTEX
10
7.37588
20
10.729
30
10.16
0
VERTEX
10
7.36154
20
10.7281
30
10.16
0
VERTEX
10
7.35795
20
10.7263
30
10.16
0
VERTEX
10
7.35437
20
10.7272
30
10.16
0
VERTEX
10
7.35257
20
10.7272
30
10.16
0
VERTEX
10
7.35078
20
10.7254
30
10.16
0
VERTEX
10
7.35078
20
10.7182
30
10.16
0
VERTEX
10
7.35078
20
10.7146
30
10.16
0
VERTEX
10
7.35078
20
10.7137
30
10.16
0
SEQEND
0
POLYLINE
62
227
66
1
70
1
3
endoplasmic_reticulum
0
VERTEX
10
7.40099
20
10.7648
30
10.16
0
VERTEX
10
7.40368
20
10.7505
30
10.16
0
VERTEX
10
7.40457
20
10.7433
30
10.16
0
VERTEX
10
7.40547
20
10.7397
30
10.16
0
VERTEX
10
7.40816
20
10.7361
30
10.16
0
VERTEX
10
7.41175
20
10.7343
30
10.16
0
VERTEX
10
7.41354
20
10.7326
30
10.16
0
VERTEX
10
7.42071
20
10.7308
30
10.16
0
VERTEX
10
7.42788
20
10.7308
30
10.16
0
VERTEX
10
7.42968
20
10.729
30
10.16
0
VERTEX
10
7.44402
20
10.7299
30
10.16
0
VERTEX
10
7.44761
20
10.7317
30
10.16
0
VERTEX
10
7.45478
20
10.7326
30
10.16
0
VERTEX
10
7.45837
20
10.7352
30
10.16
0
VERTEX
10
7.47271
20
10.7379
30
10.16
0
VERTEX
10
7.4763
20
10.7379
30
10.16
0
VERTEX
10
7.47809
20
10.7379
30
10.16
0
VERTEX
10
7.47899
20
10.7397
30
10.16
0
VERTEX
10
7.48616
20
10.7415
30
10.16
0
VERTEX
10
7.49961
20
10.7523
30
10.16
0
VERTEX
10
7.50588
20
10.7577
30
10.16
0
VERTEX
10
7.50857
20
10.7612
30
10.16
0
VERTEX
10
7.51037
20
10.763
30
10.16
0
VERTEX
10
7.51216
20
10.763
30
10.16
0
VERTEX
10
7.51754
20
10.7702
30
10.16
0
VERTEX
10
7.51933
20
10.7711
30
10.16
0
VERTEX
10
7.51933
20
10.7729
30
10.16
0
VERTEX
10
7.52113
20
10.7747
30
10.16
0
VERTEX
10
7.52202
20
10.7819
30
10.16
0
VERTEX
10
7.52202
20
10.7854
30
10.16
0
VERTEX
10
7.52202
20
10.7872
30
10.16
0
VERTEX
10
7.52381
20
10.789
30
10.16
0
VERTEX
10
7.52292
20
10.8034
30
10.16
0
VERTEX
10
7.52202
20
10.8106
30
10.16
0
VERTEX
10
7.51754
20
10.8177
30
10.16
0
VERTEX
10
7.51485
20
10.8249
30
10.16
0
VERTEX
10
7.50947
20
10.8312
30
10.16
0
VERTEX
10
7.50678
20
10.8348
30
10.16
0
VERTEX
10
7.50409
20
10.8366
30
10.16
0
VERTEX
10
7.49692
20
10.8339
30
10.16
0
VERTEX
10
7.48975
20
10.8339
30
10.16
0
VERTEX
10
7.48257
20
10.8321
30
10.16
0
VERTEX
10
7.47899
20
10.8321
30
10.16
0
VERTEX
10
7.46554
20
10.824
30
10.16
0
VERTEX
10
7.46464
20
10.8168
30
10.16
0
VERTEX
10
7.46375
20
10.8141
30
10.16
0
VERTEX
10
7.46016
20
10.815
30
10.16
0
VERTEX
10
7.45657
20
10.8123
30
10.16
0
VERTEX
10
7.45478
20
10.8088
30
10.16
0
VERTEX
10
7.45119
20
10.8079
30
10.16
0
VERTEX
10
7.44492
20
10.8123
30
10.16
0
VERTEX
10
7.44133
20
10.8132
30
10.16
0
VERTEX
10
7.43416
20
10.8195
30
10.16
0
VERTEX
10
7.43057
20
10.8222
30
10.16
0
VERTEX
10
7.4234
20
10.8222
30
10.16
0
VERTEX
10
7.41982
20
10.8222
30
10.16
0
VERTEX
10
7.41264
20
10.8186
30
10.16
0
VERTEX
10
7.40726
20
10.8132
30
10.16
0
VERTEX
10
7.40457
20
10.8097
30
10.16
0
VERTEX
10
7.40188
20
10.7953
30
10.16
0
VERTEX
10
7.40099
20
10.7666
30
10.16
0
VERTEX
10
7.40099
20
10.7657
30
10.16
0
SEQEND
0
POLYLINE
62
31
66
1
70
1
3
contour
0
VERTEX
10
6.23041
20
10.4832
30
10.16
0
VERTEX
10
6.23916
20
10.4482
30
10.16
0
VERTEX
10
6.24354
20
10.4132
30
10.16
0
VERTEX
10
6.24573
20
10.3957
30
10.16
0
VERTEX
10
6.24791
20
10.3869
30
10.16
0
VERTEX
10
6.24791
20
10.3826
30
10.16
0
VERTEX
10
6.25229
20
10.3782
30
10.16
0
VERTEX
10
6.25229
20
10.3738
30
10.16
0
VERTEX
10
6.26323
20
10.3563
30
10.16
0
VERTEX
10
6.26979
20
10.3476
30
10.16
0
VERTEX
10
6.27417
20
10.3301
30
10.16
0
VERTEX
10
6.27417
20
10.3213
30
10.16
0
VERTEX
10
6.27854
20
10.3169
30
10.16
0
VERTEX
10
6.28073
20
10.2994
30
10.16
0
VERTEX
10
6.28292
20
10.2907
30
10.16
0
VERTEX
10
6.28292
20
10.2863
30
10.16
0
VERTEX
10
6.29167
20
10.2797
30
10.16
0
VERTEX
10
6.30917
20
10.2776
30
10.16
0
VERTEX
10
6.34417
20
10.2841
30
10.16
0
VERTEX
10
6.36167
20
10.2907
30
10.16
0
VERTEX
10
6.37042
20
10.2907
30
10.16
0
VERTEX
10
6.38792
20
10.2994
30
10.16
0
VERTEX
10
6.39667
20
10.3016
30
10.16
0
VERTEX
10
6.41199
20
10.3147
30
10.16
0
VERTEX
10
6.42074
20
10.3169
30
10.16
0
VERTEX
10
6.43824
20
10.3301
30
10.16
0
VERTEX
10
6.44261
20
10.3301
30
10.16
0
VERTEX
10
6.45574
20
10.3454
30
10.16
0
VERTEX
10
6.45793
20
10.3541
30
10.16
0
VERTEX
10
6.47324
20
10.3672
30
10.16
0
VERTEX
10
6.48418
20
10.3826
30
10.16
0
VERTEX
10
6.49949
20
10.3979
30
10.16
0
VERTEX
10
6.50168
20
10.4066
30
10.16
0
VERTEX
10
6.53231
20
10.4351
30
10.16
0
VERTEX
10
6.53668
20
10.4438
30
10.16
0
VERTEX
10
6.552
20
10.4548
30
10.16
0
VERTEX
10
6.55856
20
10.4613
30
10.16
0
VERTEX
10
6.55856
20
10.4701
30
10.16
0
VERTEX
10
6.56075
20
10.4744
30
10.16
0
VERTEX
10
6.55856
20
10.4788
30
10.16
0
VERTEX
10
6.56294
20
10.4832
30
10.16
0
VERTEX
10
6.56294
20
10.4919
30
10.16
0
VERTEX
10
6.56731
20
10.5007
30
10.16
0
VERTEX
10
6.56731
20
10.5051
30
10.16
0
VERTEX
10
6.57387
20
10.5138
30
10.16
0
VERTEX
10
6.57606
20
10.5313
30
10.16
0
VERTEX
10
6.58262
20
10.5401
30
10.16
0
VERTEX
10
6.58919
20
10.5751
30
10.16
0
VERTEX
10
6.587
20
10.5838
30
10.16
0
VERTEX
10
6.55856
20
10.6123
30
10.16
0
VERTEX
10
6.54762
20
10.6276
30
10.16
0
VERTEX
10
6.54325
20
10.6276
30
10.16
0
VERTEX
10
6.54106
20
10.632
30
10.16
0
VERTEX
10
6.53668
20
10.632
30
10.16
0
VERTEX
10
6.53012
20
10.6385
30
10.16
0
VERTEX
10
6.52137
20
10.6407
30
10.16
0
VERTEX
10
6.50387
20
10.6538
30
10.16
0
VERTEX
10
6.48856
20
10.6626
30
10.16
0
VERTEX
10
6.47105
20
10.667
30
10.16
0
VERTEX
10
6.45574
20
10.6779
30
10.16
0
VERTEX
10
6.42074
20
10.6888
30
10.16
0
VERTEX
10
6.35073
20
10.691
30
10.16
0
VERTEX
10
6.34198
20
10.691
30
10.16
0
VERTEX
10
6.32448
20
10.6823
30
10.16
0
VERTEX
10
6.30698
20
10.6779
30
10.16
0
VERTEX
10
6.27417
20
10.6538
30
10.16
0
VERTEX
10
6.26104
20
10.6363
30
10.16
0
VERTEX
10
6.26104
20
10.632
30
10.16
0
VERTEX
10
6.23916
20
10.6013
30
10.16
0
VERTEX
10
6.2326
20
10.5663
30
10.16
0
VERTEX
10
6.23041
20
10.4963
30
10.16
0
VERTEX
10
6.23041
20
10.4876
30
10.16
0
VERTEX
10
6.23041
20
10.4854
30
10.16
0
SEQEND
0
POLYLINE
62
31
66
1
70
1
3
contour
0
VERTEX
10
6.66452
20
10.4411
30
10.16
0
VERTEX
10
6.66612
20
10.4154
30
10.16
0
VERTEX
10
6.66934
20
10.4122
30
10.16
0
VERTEX
10
6.66934
20
10.3865
30
10.16
0
VERTEX
10
6.67737
20
10.3752
30
10.16
0
VERTEX
10
6.6838
20
10.3688
30
10.16
0
VERTEX
10
6.68702
20
10.3688
30
10.16
0
VERTEX
10
6.69184
20
10.3624
30
10.16
0
VERTEX
10
6.70469
20
10.3576
30
10.16
0
VERTEX
10
6.73041
20
10.356
30
10.16
0
VERTEX
10
6.78183
20
10.3608
30
10.16
0
VERTEX
10
6.78826
20
10.364
30
10.16
0
VERTEX
10
6.79469
20
10.364
30
10.16
0
VERTEX
10
6.80112
20
10.3704
30
10.16
0
VERTEX
10
6.80755
20
10.372
30
10.16
0
VERTEX
10
6.81397
20
10.3768
30
10.16
0
VERTEX
10
6.82683
20
10.3817
30
10.16
0
VERTEX
10
6.83004
20
10.3849
30
10.16
0
VERTEX
10
6.8429
20
10.3881
30
10.16
0
VERTEX
10
6.84611
20
10.3881
30
10.16
0
VERTEX
10
6.85094
20
10.3929
30
10.16
0
VERTEX
10
6.85254
20
10.3961
30
10.16
0
VERTEX
10
6.85897
20
10.3961
30
10.16
0
VERTEX
10
6.87022
20
10.4058
30
10.16
0
VERTEX
10
6.87344
20
10.4122
30
10.16
0
VERTEX
10
6.87344
20
10.4251
30
10.16
0
VERTEX
10
6.87504
20
10.4299
30
10.16
0
VERTEX
10
6.87986
20
10.4363
30
10.16
0
VERTEX
10
6.88147
20
10.4427
30
10.16
0
VERTEX
10
6.88468
20
10.4459
30
10.16
0
VERTEX
10
6.88468
20
10.4717
30
10.16
0
VERTEX
10
6.88468
20
10.4781
30
10.16
0
VERTEX
10
6.88147
20
10.4845
30
10.16
0
VERTEX
10
6.88147
20
10.4974
30
10.16
0
VERTEX
10
6.87665
20
10.5102
30
10.16
0
VERTEX
10
6.87504
20
10.5231
30
10.16
0
VERTEX
10
6.87022
20
10.5359
30
10.16
0
VERTEX
10
6.86701
20
10.5376
30
10.16
0
VERTEX
10
6.86701
20
10.5504
30
10.16
0
VERTEX
10
6.8654
20
10.5568
30
10.16
0
VERTEX
10
6.86219
20
10.5601
30
10.16
0
VERTEX
10
6.86219
20
10.5665
30
10.16
0
VERTEX
10
6.86379
20
10.5697
30
10.16
0
VERTEX
10
6.85897
20
10.5761
30
10.16
0
VERTEX
10
6.85736
20
10.5826
30
10.16
0
VERTEX
10
6.84611
20
10.5922
30
10.16
0
VERTEX
10
6.84129
20
10.5954
30
10.16
0
VERTEX
10
6.84129
20
10.5986
30
10.16
0
VERTEX
10
6.83165
20
10.6099
30
10.16
0
VERTEX
10
6.80594
20
10.6259
30
10.16
0
VERTEX
10
6.79308
20
10.6275
30
10.16
0
VERTEX
10
6.78023
20
10.6324
30
10.16
0
VERTEX
10
6.7738
20
10.6356
30
10.16
0
VERTEX
10
6.76094
20
10.6308
30
10.16
0
VERTEX
10
6.75451
20
10.6292
30
10.16
0
VERTEX
10
6.74808
20
10.6179
30
10.16
0
VERTEX
10
6.74808
20
10.6115
30
10.16
0
VERTEX
10
6.74487
20
10.605
30
10.16
0
VERTEX
10
6.74166
20
10.6018
30
10.16
0
VERTEX
10
6.74005
20
10.589
30
10.16
0
VERTEX
10
6.72719
20
10.5777
30
10.16
0
VERTEX
10
6.72237
20
10.5713
30
10.16
0
VERTEX
10
6.72076
20
10.5649
30
10.16
0
VERTEX
10
6.71594
20
10.5584
30
10.16
0
VERTEX
10
6.71434
20
10.552
30
10.16
0
VERTEX
10
6.70309
20
10.5408
30
10.16
0
VERTEX
10
6.69505
20
10.5279
30
10.16
0
VERTEX
10
6.69344
20
10.5215
30
10.16
0
VERTEX
10
6.68862
20
10.5167
30
10.16
0
VERTEX
10
6.68862
20
10.5134
30
10.16
0
VERTEX
10
6.68541
20
10.5134
30
10.16
0
VERTEX
10
6.67737
20
10.5022
30
10.16
0
VERTEX
10
6.67255
20
10.4958
30
10.16
0
VERTEX
10
6.67255
20
10.4926
30
10.16
0
VERTEX
10
6.66612
20
10.4877
30
10.16
0
VERTEX
10
6.66452
20
10.462
30
10.16
0
VERTEX
10
6.66452
20
10.4492
30
10.16
0
VERTEX
10
6.66452
20
10.4427
30
10.16
0
SEQEND
0
POLYLINE
62
227
66
1
70
1
3
endoplasmic_reticulum
0
VERTEX
10
6.39849
20
10.5199
30
10.16
0
VERTEX
10
6.40796
20
10.4947
30
10.16
0
VERTEX
10
6.41112
20
10.482
30
10.16
0
VERTEX
10
6.42376
20
10.4694
30
10.16
0
VERTEX
10
6.43639
20
10.4694
30
10.16
0
VERTEX
10
6.44902
20
10.4757
30
10.16
0
VERTEX
10
6.45534
20
10.4757
30
10.16
0
VERTEX
10
6.47113
20
10.4915
30
10.16
0
VERTEX
10
6.47429
20
10.5168
30
10.16
0
VERTEX
10
6.46481
20
10.5389
30
10.16
0
VERTEX
10
6.4585
20
10.5515
30
10.16
0
VERTEX
10
6.46165
20
10.5547
30
10.16
0
VERTEX
10
6.44902
20
10.561
30
10.16
0
VERTEX
10
6.42376
20
10.5641
30
10.16
0
VERTEX
10
6.41112
20
10.561
30
10.16
0
VERTEX
10
6.40165
20
10.5515
30
10.16
0
VERTEX
10
6.39849
20
10.5262
30
10.16
0
VERTEX
10
6.39849
20
10.5231
30
10.16
0
SEQEND
0
ENDSEC
0
EOF
