0
SECTION
2
ENTITIES
0
POLYLINE
62
31
66
1
70
1
3
contour
0
VERTEX
10
7.73906
20
9.95937
30
7.36
0
VERTEX
10
7.75383
20
9.93968
30
7.36
0
VERTEX
10
7.77353
20
9.93475
30
7.36
0
VERTEX
10
7.80799
20
9.91014
30
7.36
0
VERTEX
10
7.88183
20
9.8806
30
7.36
0
VERTEX
10
7.92122
20
9.86091
30
7.36
0
VERTEX
10
7.93106
20
9.84121
30
7.36
0
VERTEX
10
7.95076
20
9.83137
30
7.36
0
VERTEX
10
7.96553
20
9.79198
30
7.36
0
VERTEX
10
7.95568
20
9.71322
30
7.36
0
VERTEX
10
7.95076
20
9.67383
30
7.36
0
VERTEX
10
7.95076
20
9.66398
30
7.36
0
VERTEX
10
7.94091
20
9.65414
30
7.36
0
VERTEX
10
7.93106
20
9.57537
30
7.36
0
VERTEX
10
7.93599
20
9.53598
30
7.36
0
VERTEX
10
7.97045
20
9.51137
30
7.36
0
VERTEX
10
7.98029
20
9.4966
30
7.36
0
VERTEX
10
7.99999
20
9.48183
30
7.36
0
VERTEX
10
8.00491
20
9.46214
30
7.36
0
VERTEX
10
7.99999
20
9.44245
30
7.36
0
VERTEX
10
8.00491
20
9.42275
30
7.36
0
VERTEX
10
8.00491
20
9.41291
30
7.36
0
VERTEX
10
8.0246
20
9.39814
30
7.36
0
VERTEX
10
8.10337
20
9.39814
30
7.36
0
VERTEX
10
8.12306
20
9.40798
30
7.36
0
VERTEX
10
8.16245
20
9.40798
30
7.36
0
VERTEX
10
8.18214
20
9.41783
30
7.36
0
VERTEX
10
8.22153
20
9.42275
30
7.36
0
VERTEX
10
8.25599
20
9.41783
30
7.36
0
VERTEX
10
8.27568
20
9.42768
30
7.36
0
VERTEX
10
8.31506
20
9.4326
30
7.36
0
VERTEX
10
8.33476
20
9.44737
30
7.36
0
VERTEX
10
8.37414
20
9.45722
30
7.36
0
VERTEX
10
8.44799
20
9.4966
30
7.36
0
VERTEX
10
8.48737
20
9.52614
30
7.36
0
VERTEX
10
8.49722
20
9.53598
30
7.36
0
VERTEX
10
8.51691
20
9.53598
30
7.36
0
VERTEX
10
8.55629
20
9.56552
30
7.36
0
VERTEX
10
8.58091
20
9.59014
30
7.36
0
VERTEX
10
8.58091
20
9.59998
30
7.36
0
VERTEX
10
8.6006
20
9.60983
30
7.36
0
VERTEX
10
8.61045
20
9.60983
30
7.36
0
VERTEX
10
8.62029
20
9.62952
30
7.36
0
VERTEX
10
8.65476
20
9.65414
30
7.36
0
VERTEX
10
8.66952
20
9.67383
30
7.36
0
VERTEX
10
8.67937
20
9.68368
30
7.36
0
VERTEX
10
8.69414
20
9.71814
30
7.36
0
VERTEX
10
8.70891
20
9.73783
30
7.36
0
VERTEX
10
8.77291
20
9.78214
30
7.36
0
VERTEX
10
8.80737
20
9.82152
30
7.36
0
VERTEX
10
8.82214
20
9.85598
30
7.36
0
VERTEX
10
8.82214
20
9.87568
30
7.36
0
VERTEX
10
8.80737
20
9.89537
30
7.36
0
VERTEX
10
8.79752
20
9.90029
30
7.36
0
VERTEX
10
8.7926
20
9.91998
30
7.36
0
VERTEX
10
8.77291
20
9.93475
30
7.36
0
VERTEX
10
8.76799
20
9.9446
30
7.36
0
VERTEX
10
8.68922
20
9.95445
30
7.36
0
VERTEX
10
8.61045
20
9.97414
30
7.36
0
VERTEX
10
8.6006
20
9.97414
30
7.36
0
VERTEX
10
8.56614
20
10.0086
30
7.36
0
VERTEX
10
8.41352
20
10.0824
30
7.36
0
VERTEX
10
8.39383
20
10.0923
30
7.36
0
VERTEX
10
8.38399
20
10.1021
30
7.36
0
VERTEX
10
8.37414
20
10.1021
30
7.36
0
VERTEX
10
8.35937
20
10.1169
30
7.36
0
VERTEX
10
8.34953
20
10.1169
30
7.36
0
VERTEX
10
8.31014
20
10.1415
30
7.36
0
VERTEX
10
8.27568
20
10.1809
30
7.36
0
VERTEX
10
8.25599
20
10.1711
30
7.36
0
VERTEX
10
8.23629
20
10.1711
30
7.36
0
VERTEX
10
8.22153
20
10.1563
30
7.36
0
VERTEX
10
8.20183
20
10.1514
30
7.36
0
VERTEX
10
8.19199
20
10.1415
30
7.36
0
VERTEX
10
8.11322
20
10.1218
30
7.36
0
VERTEX
10
8.07383
20
10.1268
30
7.36
0
VERTEX
10
8.06399
20
10.1268
30
7.36
0
VERTEX
10
8.05906
20
10.1169
30
7.36
0
VERTEX
10
8.03937
20
10.1169
30
7.36
0
VERTEX
10
8.01968
20
10.1071
30
7.36
0
VERTEX
10
7.99999
20
10.1071
30
7.36
0
VERTEX
10
7.99506
20
10.0972
30
7.36
0
VERTEX
10
7.97537
20
10.0972
30
7.36
0
VERTEX
10
7.93599
20
10.0824
30
7.36
0
VERTEX
10
7.92614
20
10.0824
30
7.36
0
VERTEX
10
7.91629
20
10.0726
30
7.36
0
VERTEX
10
7.8966
20
10.0726
30
7.36
0
VERTEX
10
7.82276
20
10.0431
30
7.36
0
VERTEX
10
7.74891
20
9.99383
30
7.36
0
VERTEX
10
7.73906
20
9.97906
30
7.36
0
VERTEX
10
7.73906
20
9.96429
30
7.36
0
SEQEND
0
POLYLINE
62
224
66
1
70
1
3
mitochondrion
0
VERTEX
10
8.1076
20
9.76499
30
7.36
0
VERTEX
10
8.11455
20
9.74274
30
7.36
0
VERTEX
10
8.11872
20
9.73162
30
7.36
0
VERTEX
10
8.12289
20
9.70937
30
7.36
0
VERTEX
10
8.13401
20
9.68713
30
7.36
0
VERTEX
10
8.14097
20
9.67739
30
7.36
0
VERTEX
10
8.14375
20
9.67461
30
7.36
0
VERTEX
10
8.14375
20
9.67183
30
7.36
0
VERTEX
10
8.1507
20
9.6621
30
7.36
0
VERTEX
10
8.15487
20
9.65654
30
7.36
0
VERTEX
10
8.15765
20
9.65515
30
7.36
0
VERTEX
10
8.15765
20
9.65236
30
7.36
0
VERTEX
10
8.19241
20
9.61482
30
7.36
0
VERTEX
10
8.19658
20
9.60926
30
7.36
0
VERTEX
10
8.20493
20
9.60231
30
7.36
0
VERTEX
10
8.22578
20
9.58562
30
7.36
0
VERTEX
10
8.24525
20
9.57172
30
7.36
0
VERTEX
10
8.25637
20
9.56755
30
7.36
0
VERTEX
10
8.26193
20
9.56477
30
7.36
0
VERTEX
10
8.27306
20
9.56338
30
7.36
0
VERTEX
10
8.28418
20
9.55921
30
7.36
0
VERTEX
10
8.32868
20
9.55642
30
7.36
0
VERTEX
10
8.37317
20
9.56199
30
7.36
0
VERTEX
10
8.38429
20
9.56199
30
7.36
0
VERTEX
10
8.39542
20
9.56616
30
7.36
0
VERTEX
10
8.40098
20
9.56755
30
7.36
0
VERTEX
10
8.41071
20
9.5745
30
7.36
0
VERTEX
10
8.41349
20
9.5745
30
7.36
0
VERTEX
10
8.41905
20
9.57867
30
7.36
0
VERTEX
10
8.4413
20
9.58562
30
7.36
0
VERTEX
10
8.44686
20
9.5898
30
7.36
0
VERTEX
10
8.45242
20
9.59119
30
7.36
0
VERTEX
10
8.4552
20
9.59397
30
7.36
0
VERTEX
10
8.45799
20
9.59397
30
7.36
0
VERTEX
10
8.46911
20
9.60231
30
7.36
0
VERTEX
10
8.47328
20
9.60509
30
7.36
0
VERTEX
10
8.47606
20
9.60509
30
7.36
0
VERTEX
10
8.47884
20
9.60787
30
7.36
0
VERTEX
10
8.4844
20
9.60787
30
7.36
0
VERTEX
10
8.48997
20
9.61343
30
7.36
0
VERTEX
10
8.49553
20
9.61621
30
7.36
0
VERTEX
10
8.49831
20
9.61621
30
7.36
0
VERTEX
10
8.50943
20
9.62456
30
7.36
0
VERTEX
10
8.5136
20
9.62873
30
7.36
0
VERTEX
10
8.51638
20
9.62873
30
7.36
0
VERTEX
10
8.51916
20
9.63151
30
7.36
0
VERTEX
10
8.52194
20
9.63151
30
7.36
0
VERTEX
10
8.52473
20
9.63707
30
7.36
0
VERTEX
10
8.53585
20
9.63846
30
7.36
0
VERTEX
10
8.54141
20
9.64124
30
7.36
0
VERTEX
10
8.54419
20
9.64124
30
7.36
0
VERTEX
10
8.54836
20
9.6468
30
7.36
0
VERTEX
10
8.56783
20
9.65932
30
7.36
0
VERTEX
10
8.58173
20
9.67878
30
7.36
0
VERTEX
10
8.59703
20
9.70103
30
7.36
0
VERTEX
10
8.60398
20
9.71076
30
7.36
0
VERTEX
10
8.60815
20
9.71632
30
7.36
0
VERTEX
10
8.62623
20
9.76082
30
7.36
0
VERTEX
10
8.62345
20
9.80531
30
7.36
0
VERTEX
10
8.61928
20
9.80948
30
7.36
0
VERTEX
10
8.6151
20
9.83173
30
7.36
0
VERTEX
10
8.60537
20
9.84146
30
7.36
0
VERTEX
10
8.59842
20
9.85259
30
7.36
0
VERTEX
10
8.59703
20
9.85815
30
7.36
0
VERTEX
10
8.59286
20
9.86232
30
7.36
0
VERTEX
10
8.59147
20
9.86788
30
7.36
0
VERTEX
10
8.58312
20
9.87761
30
7.36
0
VERTEX
10
8.58034
20
9.88318
30
7.36
0
VERTEX
10
8.57478
20
9.88735
30
7.36
0
VERTEX
10
8.572
20
9.89013
30
7.36
0
VERTEX
10
8.56922
20
9.89013
30
7.36
0
VERTEX
10
8.5581
20
9.89986
30
7.36
0
VERTEX
10
8.55253
20
9.90403
30
7.36
0
VERTEX
10
8.54975
20
9.90681
30
7.36
0
VERTEX
10
8.54419
20
9.9082
30
7.36
0
VERTEX
10
8.54002
20
9.91377
30
7.36
0
VERTEX
10
8.53446
20
9.91516
30
7.36
0
VERTEX
10
8.53168
20
9.91794
30
7.36
0
VERTEX
10
8.50943
20
9.92489
30
7.36
0
VERTEX
10
8.49831
20
9.93045
30
7.36
0
VERTEX
10
8.49553
20
9.93323
30
7.36
0
VERTEX
10
8.48997
20
9.93323
30
7.36
0
VERTEX
10
8.48718
20
9.93601
30
7.36
0
VERTEX
10
8.44269
20
9.94296
30
7.36
0
VERTEX
10
8.42044
20
9.94296
30
7.36
0
VERTEX
10
8.3982
20
9.94575
30
7.36
0
VERTEX
10
8.38707
20
9.94853
30
7.36
0
VERTEX
10
8.36483
20
9.94992
30
7.36
0
VERTEX
10
8.3537
20
9.94992
30
7.36
0
VERTEX
10
8.34814
20
9.94853
30
7.36
0
VERTEX
10
8.32589
20
9.9527
30
7.36
0
VERTEX
10
8.2814
20
9.95409
30
7.36
0
VERTEX
10
8.25915
20
9.95131
30
7.36
0
VERTEX
10
8.24803
20
9.95131
30
7.36
0
VERTEX
10
8.24525
20
9.95131
30
7.36
0
VERTEX
10
8.24247
20
9.94853
30
7.36
0
VERTEX
10
8.23135
20
9.94853
30
7.36
0
VERTEX
10
8.2091
20
9.94157
30
7.36
0
VERTEX
10
8.19797
20
9.93879
30
7.36
0
VERTEX
10
8.18824
20
9.93045
30
7.36
0
VERTEX
10
8.18268
20
9.92767
30
7.36
0
VERTEX
10
8.17712
20
9.91794
30
7.36
0
VERTEX
10
8.16878
20
9.9082
30
7.36
0
VERTEX
10
8.1646
20
9.89708
30
7.36
0
VERTEX
10
8.16321
20
9.88596
30
7.36
0
VERTEX
10
8.15487
20
9.87622
30
7.36
0
VERTEX
10
8.15209
20
9.87344
30
7.36
0
VERTEX
10
8.14931
20
9.87344
30
7.36
0
VERTEX
10
8.14653
20
9.86788
30
7.36
0
VERTEX
10
8.14375
20
9.86788
30
7.36
0
VERTEX
10
8.12845
20
9.84563
30
7.36
0
VERTEX
10
8.12567
20
9.84007
30
7.36
0
VERTEX
10
8.12567
20
9.83451
30
7.36
0
VERTEX
10
8.12845
20
9.83312
30
7.36
0
VERTEX
10
8.12845
20
9.82756
30
7.36
0
VERTEX
10
8.11872
20
9.82061
30
7.36
0
VERTEX
10
8.11316
20
9.81644
30
7.36
0
VERTEX
10
8.10899
20
9.80531
30
7.36
0
VERTEX
10
8.1076
20
9.78306
30
7.36
0
VERTEX
10
8.1076
20
9.77194
30
7.36
0
VERTEX
10
8.1076
20
9.76638
30
7.36
0
SEQEND
0
POLYLINE
62
227
66
1
70
1
3
endoplasmic_reticulum
0
VERTEX
10
8.37912
20
10.0126
30
7.36
0
VERTEX
10
8.38091
20
10.0055
30
7.36
0
VERTEX
10
8.38091
20
10.0019
30
7.36
0
VERTEX
10
8.38271
20
9.99828
30
7.36
0
VERTEX
10
8.38629
20
9.99559
30
7.36
0
VERTEX
10
8.38629
20
9.9938
30
7.36
0
VERTEX
10
8.39346
20
9.98932
30
7.36
0
VERTEX
10
8.39705
20
9.98842
30
7.36
0
VERTEX
10
8.40064
20
9.98573
30
7.36
0
VERTEX
10
8.41498
20
9.98214
30
7.36
0
VERTEX
10
8.42933
20
9.98125
30
7.36
0
VERTEX
10
8.43291
20
9.98125
30
7.36
0
VERTEX
10
8.43471
20
9.98304
30
7.36
0
VERTEX
10
8.44188
20
9.98394
30
7.36
0
VERTEX
10
8.44546
20
9.98663
30
7.36
0
VERTEX
10
8.44636
20
9.99021
30
7.36
0
VERTEX
10
8.45084
20
9.99559
30
7.36
0
VERTEX
10
8.45264
20
9.99739
30
7.36
0
VERTEX
10
8.45264
20
10.0046
30
7.36
0
VERTEX
10
8.44995
20
10.0117
30
7.36
0
VERTEX
10
8.44815
20
10.0153
30
7.36
0
VERTEX
10
8.44815
20
10.0171
30
7.36
0
VERTEX
10
8.44457
20
10.0198
30
7.36
0
VERTEX
10
8.44098
20
10.0207
30
7.36
0
VERTEX
10
8.4374
20
10.0234
30
7.36
0
VERTEX
10
8.43381
20
10.0243
30
7.36
0
VERTEX
10
8.43022
20
10.0279
30
7.36
0
VERTEX
10
8.42664
20
10.0288
30
7.36
0
VERTEX
10
8.42484
20
10.0306
30
7.36
0
VERTEX
10
8.4105
20
10.0315
30
7.36
0
VERTEX
10
8.40333
20
10.0315
30
7.36
0
VERTEX
10
8.39974
20
10.0315
30
7.36
0
VERTEX
10
8.3854
20
10.0261
30
7.36
0
VERTEX
10
8.38002
20
10.0189
30
7.36
0
VERTEX
10
8.37912
20
10.0153
30
7.36
0
VERTEX
10
8.37912
20
10.0135
30
7.36
0
SEQEND
0
POLYLINE
62
227
66
1
70
1
3
endoplasmic_reticulum
0
VERTEX
10
8.03305
20
9.75263
30
7.36
0
VERTEX
10
8.03574
20
9.74546
30
7.36
0
VERTEX
10
8.03664
20
9.74187
30
7.36
0
VERTEX
10
8.0474
20
9.72932
30
7.36
0
VERTEX
10
8.05098
20
9.72753
30
7.36
0
VERTEX
10
8.05457
20
9.72753
30
7.36
0
VERTEX
10
8.06174
20
9.73021
30
7.36
0
VERTEX
10
8.06533
20
9.7329
30
7.36
0
VERTEX
10
8.06533
20
9.73649
30
7.36
0
VERTEX
10
8.06802
20
9.74008
30
7.36
0
VERTEX
10
8.06891
20
9.74725
30
7.36
0
VERTEX
10
8.0716
20
9.74994
30
7.36
0
VERTEX
10
8.0725
20
9.75353
30
7.36
0
VERTEX
10
8.0725
20
9.75532
30
7.36
0
VERTEX
10
8.07429
20
9.75711
30
7.36
0
VERTEX
10
8.07609
20
9.76428
30
7.36
0
VERTEX
10
8.07519
20
9.77863
30
7.36
0
VERTEX
10
8.07429
20
9.7858
30
7.36
0
VERTEX
10
8.0716
20
9.79297
30
7.36
0
VERTEX
10
8.0716
20
9.80015
30
7.36
0
VERTEX
10
8.07071
20
9.80194
30
7.36
0
VERTEX
10
8.05636
20
9.79387
30
7.36
0
VERTEX
10
8.05278
20
9.79208
30
7.36
0
VERTEX
10
8.05098
20
9.78849
30
7.36
0
VERTEX
10
8.0474
20
9.7858
30
7.36
0
VERTEX
10
8.03843
20
9.77415
30
7.36
0
VERTEX
10
8.03843
20
9.77235
30
7.36
0
VERTEX
10
8.03485
20
9.76966
30
7.36
0
VERTEX
10
8.03305
20
9.76608
30
7.36
0
VERTEX
10
8.03305
20
9.7589
30
7.36
0
VERTEX
10
8.03305
20
9.75532
30
7.36
0
VERTEX
10
8.03305
20
9.75353
30
7.36
0
SEQEND
0
POLYLINE
62
227
66
1
70
1
3
endoplasmic_reticulum
0
VERTEX
10
7.98374
20
9.5796
30
7.36
0
VERTEX
10
7.98464
20
9.57601
30
7.36
0
VERTEX
10
7.98823
20
9.57332
30
7.36
0
VERTEX
10
7.98912
20
9.57153
30
7.36
0
VERTEX
10
8.00347
20
9.57063
30
7.36
0
VERTEX
10
8.01781
20
9.57511
30
7.36
0
VERTEX
10
8.02498
20
9.5796
30
7.36
0
VERTEX
10
8.03843
20
9.58497
30
7.36
0
VERTEX
10
8.04202
20
9.58497
30
7.36
0
VERTEX
10
8.04381
20
9.58497
30
7.36
0
VERTEX
10
8.0474
20
9.58766
30
7.36
0
VERTEX
10
8.04919
20
9.58946
30
7.36
0
VERTEX
10
8.05278
20
9.58946
30
7.36
0
VERTEX
10
8.06623
20
9.59842
30
7.36
0
VERTEX
10
8.06712
20
9.60022
30
7.36
0
VERTEX
10
8.07071
20
9.60111
30
7.36
0
VERTEX
10
8.07698
20
9.60739
30
7.36
0
VERTEX
10
8.08147
20
9.61456
30
7.36
0
VERTEX
10
8.08416
20
9.61725
30
7.36
0
VERTEX
10
8.08416
20
9.62084
30
7.36
0
VERTEX
10
8.08416
20
9.62263
30
7.36
0
VERTEX
10
8.08595
20
9.62442
30
7.36
0
VERTEX
10
8.08685
20
9.63159
30
7.36
0
VERTEX
10
8.08595
20
9.63877
30
7.36
0
VERTEX
10
8.08505
20
9.64235
30
7.36
0
VERTEX
10
8.0734
20
9.65401
30
7.36
0
VERTEX
10
8.06802
20
9.66118
30
7.36
0
VERTEX
10
8.06443
20
9.66297
30
7.36
0
VERTEX
10
8.06354
20
9.66477
30
7.36
0
VERTEX
10
8.05995
20
9.66566
30
7.36
0
VERTEX
10
8.05636
20
9.66835
30
7.36
0
VERTEX
10
8.05457
20
9.66835
30
7.36
0
VERTEX
10
8.04829
20
9.67463
30
7.36
0
VERTEX
10
8.04471
20
9.67642
30
7.36
0
VERTEX
10
8.04292
20
9.67822
30
7.36
0
VERTEX
10
8.04112
20
9.67822
30
7.36
0
VERTEX
10
8.02767
20
9.68808
30
7.36
0
VERTEX
10
8.0205
20
9.69077
30
7.36
0
VERTEX
10
8.00616
20
9.69077
30
7.36
0
VERTEX
10
7.99988
20
9.68628
30
7.36
0
VERTEX
10
7.99719
20
9.68359
30
7.36
0
VERTEX
10
7.9954
20
9.67642
30
7.36
0
VERTEX
10
7.9954
20
9.66208
30
7.36
0
VERTEX
10
7.9954
20
9.65849
30
7.36
0
VERTEX
10
7.99809
20
9.65491
30
7.36
0
VERTEX
10
7.99809
20
9.62622
30
7.36
0
VERTEX
10
7.99809
20
9.62263
30
7.36
0
VERTEX
10
7.99361
20
9.61546
30
7.36
0
VERTEX
10
7.99092
20
9.60918
30
7.36
0
VERTEX
10
7.98912
20
9.6056
30
7.36
0
VERTEX
10
7.98733
20
9.6038
30
7.36
0
VERTEX
10
7.98554
20
9.58946
30
7.36
0
VERTEX
10
7.98374
20
9.58766
30
7.36
0
VERTEX
10
7.98374
20
9.58049
30
7.36
0
SEQEND
0
POLYLINE
62
227
66
1
70
1
3
endoplasmic_reticulum
0
VERTEX
10
7.9945
20
9.85842
30
7.36
0
VERTEX
10
8.00436
20
9.84408
30
7.36
0
VERTEX
10
8.01064
20
9.8369
30
7.36
0
VERTEX
10
8.02498
20
9.83421
30
7.36
0
VERTEX
10
8.03933
20
9.8369
30
7.36
0
VERTEX
10
8.04292
20
9.8378
30
7.36
0
VERTEX
10
8.05636
20
9.84766
30
7.36
0
VERTEX
10
8.05905
20
9.85035
30
7.36
0
VERTEX
10
8.06264
20
9.85125
30
7.36
0
VERTEX
10
8.06443
20
9.85304
30
7.36
0
VERTEX
10
8.06533
20
9.85663
30
7.36
0
VERTEX
10
8.06533
20
9.85842
30
7.36
0
VERTEX
10
8.06712
20
9.86021
30
7.36
0
VERTEX
10
8.0716
20
9.87456
30
7.36
0
VERTEX
10
8.0725
20
9.8889
30
7.36
0
VERTEX
10
8.07071
20
9.90325
30
7.36
0
VERTEX
10
8.06981
20
9.91042
30
7.36
0
VERTEX
10
8.06981
20
9.91401
30
7.36
0
VERTEX
10
8.06802
20
9.9158
30
7.36
0
VERTEX
10
8.06712
20
9.91939
30
7.36
0
VERTEX
10
8.05636
20
9.93283
30
7.36
0
VERTEX
10
8.04919
20
9.93732
30
7.36
0
VERTEX
10
8.0214
20
9.92297
30
7.36
0
VERTEX
10
8.00974
20
9.91221
30
7.36
0
VERTEX
10
8.00347
20
9.90594
30
7.36
0
VERTEX
10
8.00167
20
9.89877
30
7.36
0
VERTEX
10
7.99898
20
9.89608
30
7.36
0
VERTEX
10
7.99809
20
9.8889
30
7.36
0
VERTEX
10
7.9945
20
9.88173
30
7.36
0
VERTEX
10
7.9945
20
9.86739
30
7.36
0
VERTEX
10
7.9945
20
9.86021
30
7.36
0
VERTEX
10
7.9945
20
9.85932
30
7.36
0
SEQEND
0
POLYLINE
62
227
66
1
70
1
3
endoplasmic_reticulum
0
VERTEX
10
8.64808
20
9.80463
30
7.36
0
VERTEX
10
8.65346
20
9.79028
30
7.36
0
VERTEX
10
8.65615
20
9.78311
30
7.36
0
VERTEX
10
8.66333
20
9.77773
30
7.36
0
VERTEX
10
8.6705
20
9.77504
30
7.36
0
VERTEX
10
8.67767
20
9.77415
30
7.36
0
VERTEX
10
8.69201
20
9.77594
30
7.36
0
VERTEX
10
8.69919
20
9.77863
30
7.36
0
VERTEX
10
8.70188
20
9.78221
30
7.36
0
VERTEX
10
8.70367
20
9.78939
30
7.36
0
VERTEX
10
8.70367
20
9.80373
30
7.36
0
VERTEX
10
8.70457
20
9.80732
30
7.36
0
VERTEX
10
8.70188
20
9.8109
30
7.36
0
VERTEX
10
8.70188
20
9.81449
30
7.36
0
VERTEX
10
8.70188
20
9.81628
30
7.36
0
VERTEX
10
8.69919
20
9.81987
30
7.36
0
VERTEX
10
8.6956
20
9.82166
30
7.36
0
VERTEX
10
8.69112
20
9.82704
30
7.36
0
VERTEX
10
8.67677
20
9.82704
30
7.36
0
VERTEX
10
8.6696
20
9.82704
30
7.36
0
VERTEX
10
8.66601
20
9.82615
30
7.36
0
VERTEX
10
8.66512
20
9.82435
30
7.36
0
VERTEX
10
8.65795
20
9.82346
30
7.36
0
VERTEX
10
8.65077
20
9.81897
30
7.36
0
VERTEX
10
8.64808
20
9.81539
30
7.36
0
VERTEX
10
8.64808
20
9.80821
30
7.36
0
VERTEX
10
8.64808
20
9.80552
30
7.36
0
SEQEND
0
POLYLINE
62
227
66
1
70
1
3
endoplasmic_reticulum
0
VERTEX
10
8.11105
20
9.50429
30
7.36
0
VERTEX
10
8.11285
20
9.49711
30
7.36
0
VERTEX
10
8.11285
20
9.48994
30
7.36
0
VERTEX
10
8.11374
20
9.48635
30
7.36
0
VERTEX
10
8.11733
20
9.48366
30
7.36
0
VERTEX
10
8.13167
20
9.48277
30
7.36
0
VERTEX
10
8.13526
20
9.48277
30
7.36
0
VERTEX
10
8.13974
20
9.48904
30
7.36
0
VERTEX
10
8.14243
20
9.49263
30
7.36
0
VERTEX
10
8.14243
20
9.4998
30
7.36
0
VERTEX
10
8.14064
20
9.50697
30
7.36
0
VERTEX
10
8.13974
20
9.51056
30
7.36
0
VERTEX
10
8.13347
20
9.51684
30
7.36
0
VERTEX
10
8.13167
20
9.51863
30
7.36
0
VERTEX
10
8.1245
20
9.51773
30
7.36
0
VERTEX
10
8.12091
20
9.51684
30
7.36
0
VERTEX
10
8.11823
20
9.51325
30
7.36
0
VERTEX
10
8.11105
20
9.50966
30
7.36
0
VERTEX
10
8.11105
20
9.50608
30
7.36
0
VERTEX
10
8.11105
20
9.50518
30
7.36
0
SEQEND
0
POLYLINE
62
31
66
1
70
1
3
contour
0
VERTEX
10
7.45223
20
10.1527
30
7.36
0
VERTEX
10
7.45519
20
10.1498
30
7.36
0
VERTEX
10
7.45519
20
10.1468
30
7.36
0
VERTEX
10
7.46554
20
10.1364
30
7.36
0
VERTEX
10
7.46997
20
10.132
30
7.36
0
VERTEX
10
7.47145
20
10.1261
30
7.36
0
VERTEX
10
7.47589
20
10.1202
30
7.36
0
VERTEX
10
7.47737
20
10.1083
30
7.36
0
VERTEX
10
7.48181
20
10.0965
30
7.36
0
VERTEX
10
7.49364
20
10.0876
30
7.36
0
VERTEX
10
7.50547
20
10.0832
30
7.36
0
VERTEX
10
7.50843
20
10.0803
30
7.36
0
VERTEX
10
7.51138
20
10.0803
30
7.36
0
VERTEX
10
7.51434
20
10.0773
30
7.36
0
VERTEX
10
7.52026
20
10.0758
30
7.36
0
VERTEX
10
7.52321
20
10.0758
30
7.36
0
VERTEX
10
7.52765
20
10.0699
30
7.36
0
VERTEX
10
7.53948
20
10.0714
30
7.36
0
VERTEX
10
7.56315
20
10.0803
30
7.36
0
VERTEX
10
7.58385
20
10.101
30
7.36
0
VERTEX
10
7.58977
20
10.1039
30
7.36
0
VERTEX
10
7.59716
20
10.1143
30
7.36
0
VERTEX
10
7.6016
20
10.1202
30
7.36
0
VERTEX
10
7.60455
20
10.132
30
7.36
0
VERTEX
10
7.6297
20
10.1793
30
7.36
0
VERTEX
10
7.62822
20
10.2267
30
7.36
0
VERTEX
10
7.62674
20
10.2385
30
7.36
0
VERTEX
10
7.62674
20
10.2444
30
7.36
0
VERTEX
10
7.6223
20
10.2562
30
7.36
0
VERTEX
10
7.61343
20
10.2666
30
7.36
0
VERTEX
10
7.6016
20
10.274
30
7.36
0
VERTEX
10
7.59716
20
10.2799
30
7.36
0
VERTEX
10
7.5735
20
10.2814
30
7.36
0
VERTEX
10
7.56167
20
10.2799
30
7.36
0
VERTEX
10
7.55131
20
10.2755
30
7.36
0
VERTEX
10
7.54836
20
10.2755
30
7.36
0
VERTEX
10
7.53653
20
10.2666
30
7.36
0
VERTEX
10
7.53061
20
10.2636
30
7.36
0
VERTEX
10
7.52765
20
10.2607
30
7.36
0
VERTEX
10
7.52765
20
10.2577
30
7.36
0
VERTEX
10
7.52469
20
10.2577
30
7.36
0
VERTEX
10
7.51138
20
10.2488
30
7.36
0
VERTEX
10
7.50547
20
10.2474
30
7.36
0
VERTEX
10
7.50251
20
10.2488
30
7.36
0
VERTEX
10
7.49216
20
10.2385
30
7.36
0
VERTEX
10
7.48772
20
10.2341
30
7.36
0
VERTEX
10
7.48624
20
10.2311
30
7.36
0
VERTEX
10
7.48328
20
10.2311
30
7.36
0
VERTEX
10
7.47293
20
10.2193
30
7.36
0
VERTEX
10
7.46258
20
10.2119
30
7.36
0
VERTEX
10
7.45371
20
10.1882
30
7.36
0
VERTEX
10
7.45223
20
10.1645
30
7.36
0
VERTEX
10
7.45223
20
10.1542
30
7.36
0
SEQEND
0
POLYLINE
62
31
66
1
70
1
3
contour
0
VERTEX
10
7.21264
20
9.58629
30
7.36
0
VERTEX
10
7.2156
20
9.58334
30
7.36
0
VERTEX
10
7.23187
20
9.53601
30
7.36
0
VERTEX
10
7.24074
20
9.51235
30
7.36
0
VERTEX
10
7.24222
20
9.50643
30
7.36
0
VERTEX
10
7.24962
20
9.4946
30
7.36
0
VERTEX
10
7.25405
20
9.48425
30
7.36
0
VERTEX
10
7.26441
20
9.4739
30
7.36
0
VERTEX
10
7.27476
20
9.4665
30
7.36
0
VERTEX
10
7.27919
20
9.45467
30
7.36
0
VERTEX
10
7.27919
20
9.45171
30
7.36
0
VERTEX
10
7.28215
20
9.45023
30
7.36
0
VERTEX
10
7.28215
20
9.4384
30
7.36
0
VERTEX
10
7.28511
20
9.42657
30
7.36
0
VERTEX
10
7.29398
20
9.41622
30
7.36
0
VERTEX
10
7.2999
20
9.41622
30
7.36
0
VERTEX
10
7.30877
20
9.42509
30
7.36
0
VERTEX
10
7.32208
20
9.44876
30
7.36
0
VERTEX
10
7.32208
20
9.45171
30
7.36
0
VERTEX
10
7.33244
20
9.45911
30
7.36
0
VERTEX
10
7.33539
20
9.46059
30
7.36
0
VERTEX
10
7.33539
20
9.46354
30
7.36
0
VERTEX
10
7.33983
20
9.46946
30
7.36
0
VERTEX
10
7.34279
20
9.47242
30
7.36
0
VERTEX
10
7.34131
20
9.51974
30
7.36
0
VERTEX
10
7.33539
20
9.52566
30
7.36
0
VERTEX
10
7.328
20
9.53601
30
7.36
0
VERTEX
10
7.32356
20
9.54193
30
7.36
0
VERTEX
10
7.31765
20
9.54488
30
7.36
0
VERTEX
10
7.31469
20
9.55672
30
7.36
0
VERTEX
10
7.31321
20
9.60404
30
7.36
0
VERTEX
10
7.31173
20
9.6277
30
7.36
0
VERTEX
10
7.31913
20
9.67503
30
7.36
0
VERTEX
10
7.32208
20
9.68686
30
7.36
0
VERTEX
10
7.32356
20
9.69278
30
7.36
0
VERTEX
10
7.328
20
9.69869
30
7.36
0
VERTEX
10
7.33096
20
9.71052
30
7.36
0
VERTEX
10
7.33096
20
9.71644
30
7.36
0
VERTEX
10
7.33539
20
9.72235
30
7.36
0
VERTEX
10
7.33539
20
9.73419
30
7.36
0
VERTEX
10
7.33835
20
9.7401
30
7.36
0
VERTEX
10
7.33835
20
9.74602
30
7.36
0
VERTEX
10
7.34279
20
9.75785
30
7.36
0
VERTEX
10
7.34427
20
9.76376
30
7.36
0
VERTEX
10
7.35314
20
9.77264
30
7.36
0
VERTEX
10
7.35462
20
9.77559
30
7.36
0
VERTEX
10
7.35758
20
9.77559
30
7.36
0
VERTEX
10
7.36201
20
9.78151
30
7.36
0
VERTEX
10
7.37237
20
9.7889
30
7.36
0
VERTEX
10
7.37976
20
9.80074
30
7.36
0
VERTEX
10
7.38272
20
9.80665
30
7.36
0
VERTEX
10
7.38272
20
9.81848
30
7.36
0
VERTEX
10
7.37828
20
9.82292
30
7.36
0
VERTEX
10
7.33096
20
9.82144
30
7.36
0
VERTEX
10
7.31913
20
9.82144
30
7.36
0
VERTEX
10
7.30729
20
9.81848
30
7.36
0
VERTEX
10
7.28363
20
9.81848
30
7.36
0
VERTEX
10
7.25997
20
9.81405
30
7.36
0
VERTEX
10
7.25701
20
9.80813
30
7.36
0
VERTEX
10
7.25701
20
9.80517
30
7.36
0
VERTEX
10
7.25405
20
9.80369
30
7.36
0
VERTEX
10
7.24962
20
9.78003
30
7.36
0
VERTEX
10
7.24666
20
9.77412
30
7.36
0
VERTEX
10
7.24518
20
9.76228
30
7.36
0
VERTEX
10
7.23926
20
9.75045
30
7.36
0
VERTEX
10
7.23483
20
9.74602
30
7.36
0
VERTEX
10
7.23187
20
9.73419
30
7.36
0
VERTEX
10
7.22891
20
9.72827
30
7.36
0
VERTEX
10
7.22891
20
9.72235
30
7.36
0
VERTEX
10
7.22891
20
9.7194
30
7.36
0
VERTEX
10
7.223
20
9.71496
30
7.36
0
VERTEX
10
7.2156
20
9.6913
30
7.36
0
VERTEX
10
7.21264
20
9.59665
30
7.36
0
VERTEX
10
7.21264
20
9.59073
30
7.36
0
VERTEX
10
7.21264
20
9.58777
30
7.36
0
SEQEND
0
ENDSEC
0
EOF
