0
SECTION
2
ENTITIES
0
POLYLINE
62
31
66
1
70
1
3
contour
0
VERTEX
10
8.7286
20
9.44737
30
6.52
0
VERTEX
10
8.76799
20
9.4326
30
6.52
0
VERTEX
10
8.77783
20
9.42275
30
6.52
0
VERTEX
10
8.93537
20
9.42275
30
6.52
0
VERTEX
10
9.01414
20
9.41783
30
6.52
0
VERTEX
10
9.05352
20
9.39814
30
6.52
0
VERTEX
10
9.09291
20
9.38829
30
6.52
0
VERTEX
10
9.17168
20
9.38829
30
6.52
0
VERTEX
10
9.19137
20
9.38829
30
6.52
0
VERTEX
10
9.20122
20
9.38829
30
6.52
0
VERTEX
10
9.21106
20
9.39814
30
6.52
0
VERTEX
10
9.25045
20
9.40798
30
6.52
0
VERTEX
10
9.32922
20
9.40798
30
6.52
0
VERTEX
10
9.3686
20
9.40798
30
6.52
0
VERTEX
10
9.44737
20
9.43752
30
6.52
0
VERTEX
10
9.48183
20
9.46214
30
6.52
0
VERTEX
10
9.49168
20
9.46214
30
6.52
0
VERTEX
10
9.50152
20
9.47198
30
6.52
0
VERTEX
10
9.50645
20
9.55075
30
6.52
0
VERTEX
10
9.51137
20
9.59014
30
6.52
0
VERTEX
10
9.51629
20
9.60983
30
6.52
0
VERTEX
10
9.51629
20
9.61968
30
6.52
0
VERTEX
10
9.54091
20
9.65906
30
6.52
0
VERTEX
10
9.58029
20
9.67383
30
6.52
0
VERTEX
10
9.61475
20
9.70337
30
6.52
0
VERTEX
10
9.62952
20
9.71814
30
6.52
0
VERTEX
10
9.63445
20
9.75752
30
6.52
0
VERTEX
10
9.63445
20
9.76737
30
6.52
0
VERTEX
10
9.48183
20
9.86583
30
6.52
0
VERTEX
10
9.44245
20
9.89537
30
6.52
0
VERTEX
10
9.41783
20
9.91998
30
6.52
0
VERTEX
10
9.39814
20
9.92491
30
6.52
0
VERTEX
10
9.38829
20
9.93475
30
6.52
0
VERTEX
10
9.3686
20
9.93475
30
6.52
0
VERTEX
10
9.34891
20
9.9446
30
6.52
0
VERTEX
10
9.34399
20
9.95445
30
6.52
0
VERTEX
10
9.32429
20
9.95937
30
6.52
0
VERTEX
10
9.30952
20
9.97414
30
6.52
0
VERTEX
10
9.23075
20
9.96429
30
6.52
0
VERTEX
10
9.19137
20
9.96921
30
6.52
0
VERTEX
10
9.15199
20
9.94952
30
6.52
0
VERTEX
10
9.13229
20
9.92491
30
6.52
0
VERTEX
10
9.13229
20
9.91506
30
6.52
0
VERTEX
10
9.10275
20
9.87568
30
6.52
0
VERTEX
10
9.09291
20
9.85598
30
6.52
0
VERTEX
10
9.01906
20
9.81168
30
6.52
0
VERTEX
10
8.99937
20
9.79691
30
6.52
0
VERTEX
10
8.95999
20
9.78214
30
6.52
0
VERTEX
10
8.9206
20
9.7526
30
6.52
0
VERTEX
10
8.89106
20
9.71814
30
6.52
0
VERTEX
10
8.87137
20
9.67875
30
6.52
0
VERTEX
10
8.8566
20
9.65906
30
6.52
0
VERTEX
10
8.85168
20
9.63937
30
6.52
0
VERTEX
10
8.83691
20
9.61475
30
6.52
0
VERTEX
10
8.83199
20
9.59506
30
6.52
0
VERTEX
10
8.82214
20
9.58522
30
6.52
0
VERTEX
10
8.82214
20
9.57537
30
6.52
0
VERTEX
10
8.81229
20
9.56552
30
6.52
0
VERTEX
10
8.80737
20
9.54583
30
6.52
0
VERTEX
10
8.80737
20
9.53598
30
6.52
0
VERTEX
10
8.78768
20
9.52122
30
6.52
0
VERTEX
10
8.76799
20
9.4966
30
6.52
0
VERTEX
10
8.76799
20
9.48675
30
6.52
0
VERTEX
10
8.74829
20
9.46706
30
6.52
0
VERTEX
10
8.73845
20
9.46706
30
6.52
0
VERTEX
10
8.7286
20
9.45722
30
6.52
0
VERTEX
10
8.7286
20
9.45229
30
6.52
0
SEQEND
0
POLYLINE
62
31
66
1
70
1
3
contour
0
VERTEX
10
9.8274
20
9.76975
30
6.52
0
VERTEX
10
9.86066
20
9.74092
30
6.52
0
VERTEX
10
9.86953
20
9.74092
30
6.52
0
VERTEX
10
9.8784
20
9.73649
30
6.52
0
VERTEX
10
9.88284
20
9.73206
30
6.52
0
VERTEX
10
9.88505
20
9.72319
30
6.52
0
VERTEX
10
9.89392
20
9.71653
30
6.52
0
VERTEX
10
9.90279
20
9.71432
30
6.52
0
VERTEX
10
9.91166
20
9.70766
30
6.52
0
VERTEX
10
9.92053
20
9.70545
30
6.52
0
VERTEX
10
9.92497
20
9.70101
30
6.52
0
VERTEX
10
9.94271
20
9.69879
30
6.52
0
VERTEX
10
9.96044
20
9.68771
30
6.52
0
VERTEX
10
9.96931
20
9.68549
30
6.52
0
VERTEX
10
10.0026
20
9.65888
30
6.52
0
VERTEX
10
10.0381
20
9.63671
30
6.52
0
VERTEX
10
10.0735
20
9.61897
30
6.52
0
VERTEX
10
10.0824
20
9.61453
30
6.52
0
VERTEX
10
10.0868
20
9.6101
30
6.52
0
VERTEX
10
10.0913
20
9.6101
30
6.52
0
VERTEX
10
10.109
20
9.59901
30
6.52
0
VERTEX
10
10.1179
20
9.59236
30
6.52
0
VERTEX
10
10.1267
20
9.59014
30
6.52
0
VERTEX
10
10.1401
20
9.57684
30
6.52
0
VERTEX
10
10.1467
20
9.5724
30
6.52
0
VERTEX
10
10.16
20
9.55467
30
6.52
0
VERTEX
10
10.1689
20
9.5458
30
6.52
0
VERTEX
10
10.1733
20
9.5458
30
6.52
0
VERTEX
10
10.1733
20
9.54136
30
6.52
0
VERTEX
10
10.18
20
9.53249
30
6.52
0
VERTEX
10
10.1844
20
9.49701
30
6.52
0
VERTEX
10
10.1955
20
9.46154
30
6.52
0
VERTEX
10
10.2044
20
9.4438
30
6.52
0
VERTEX
10
10.2287
20
9.41275
30
6.52
0
VERTEX
10
10.2598
20
9.38171
30
6.52
0
VERTEX
10
10.2753
20
9.37284
30
6.52
0
VERTEX
10
10.2931
20
9.35732
30
6.52
0
VERTEX
10
10.3285
20
9.34623
30
6.52
0
VERTEX
10
10.3618
20
9.33071
30
6.52
0
VERTEX
10
10.3707
20
9.32628
30
6.52
0
VERTEX
10
10.4416
20
9.32406
30
6.52
0
VERTEX
10
10.4771
20
9.32184
30
6.52
0
VERTEX
10
10.5126
20
9.32406
30
6.52
0
VERTEX
10
10.5303
20
9.32628
30
6.52
0
VERTEX
10
10.537
20
9.33071
30
6.52
0
VERTEX
10
10.5458
20
9.33958
30
6.52
0
VERTEX
10
10.5503
20
9.33958
30
6.52
0
VERTEX
10
10.5547
20
9.34401
30
6.52
0
VERTEX
10
10.5569
20
9.35288
30
6.52
0
VERTEX
10
10.5636
20
9.35954
30
6.52
0
VERTEX
10
10.5658
20
9.36841
30
6.52
0
VERTEX
10
10.5658
20
9.37284
30
6.52
0
VERTEX
10
10.5702
20
9.37728
30
6.52
0
VERTEX
10
10.5702
20
9.38171
30
6.52
0
VERTEX
10
10.5747
20
9.38615
30
6.52
0
VERTEX
10
10.5747
20
9.40388
30
6.52
0
VERTEX
10
10.5724
20
9.40832
30
6.52
0
VERTEX
10
10.5813
20
9.4438
30
6.52
0
VERTEX
10
10.5813
20
9.47927
30
6.52
0
VERTEX
10
10.5813
20
9.49701
30
6.52
0
VERTEX
10
10.5813
20
9.50588
30
6.52
0
VERTEX
10
10.568
20
9.54136
30
6.52
0
VERTEX
10
10.5614
20
9.55023
30
6.52
0
VERTEX
10
10.5591
20
9.5591
30
6.52
0
VERTEX
10
10.5525
20
9.56797
30
6.52
0
VERTEX
10
10.537
20
9.57462
30
6.52
0
VERTEX
10
10.5281
20
9.58127
30
6.52
0
VERTEX
10
10.5192
20
9.58349
30
6.52
0
VERTEX
10
10.5059
20
9.59458
30
6.52
0
VERTEX
10
10.497
20
9.60123
30
6.52
0
VERTEX
10
10.4948
20
9.60567
30
6.52
0
VERTEX
10
10.4904
20
9.60567
30
6.52
0
VERTEX
10
10.486
20
9.6101
30
6.52
0
VERTEX
10
10.4815
20
9.6101
30
6.52
0
VERTEX
10
10.4638
20
9.62119
30
6.52
0
VERTEX
10
10.446
20
9.62562
30
6.52
0
VERTEX
10
10.4372
20
9.62784
30
6.52
0
VERTEX
10
10.4327
20
9.62784
30
6.52
0
VERTEX
10
10.4305
20
9.63227
30
6.52
0
VERTEX
10
10.4128
20
9.63893
30
6.52
0
VERTEX
10
10.4039
20
9.64336
30
6.52
0
VERTEX
10
10.3995
20
9.64336
30
6.52
0
VERTEX
10
10.3906
20
9.65223
30
6.52
0
VERTEX
10
10.3551
20
9.6611
30
6.52
0
VERTEX
10
10.2842
20
9.66332
30
6.52
0
VERTEX
10
10.2487
20
9.66332
30
6.52
0
VERTEX
10
10.2398
20
9.66332
30
6.52
0
VERTEX
10
10.2221
20
9.66997
30
6.52
0
VERTEX
10
10.2177
20
9.6744
30
6.52
0
VERTEX
10
10.2132
20
9.6744
30
6.52
0
VERTEX
10
10.1955
20
9.68771
30
6.52
0
VERTEX
10
10.1777
20
9.68993
30
6.52
0
VERTEX
10
10.1733
20
9.68993
30
6.52
0
VERTEX
10
10.1644
20
9.69658
30
6.52
0
VERTEX
10
10.1556
20
9.69879
30
6.52
0
VERTEX
10
10.1467
20
9.70545
30
6.52
0
VERTEX
10
10.1134
20
9.71875
30
6.52
0
VERTEX
10
10.1046
20
9.7254
30
6.52
0
VERTEX
10
10.0957
20
9.72762
30
6.52
0
VERTEX
10
10.0602
20
9.74758
30
6.52
0
VERTEX
10
10.0536
20
9.75423
30
6.52
0
VERTEX
10
10.0358
20
9.76088
30
6.52
0
VERTEX
10
10.027
20
9.76532
30
6.52
0
VERTEX
10
10.0092
20
9.76532
30
6.52
0
VERTEX
10
10.0048
20
9.76532
30
6.52
0
VERTEX
10
10.0004
20
9.76975
30
6.52
0
VERTEX
10
9.98262
20
9.76975
30
6.52
0
VERTEX
10
9.96488
20
9.77419
30
6.52
0
VERTEX
10
9.96044
20
9.77862
30
6.52
0
VERTEX
10
9.94271
20
9.78305
30
6.52
0
VERTEX
10
9.87175
20
9.78305
30
6.52
0
VERTEX
10
9.83627
20
9.77862
30
6.52
0
VERTEX
10
9.83184
20
9.77862
30
6.52
0
VERTEX
10
9.8274
20
9.77419
30
6.52
0
VERTEX
10
9.8274
20
9.77197
30
6.52
0
SEQEND
0
POLYLINE
62
31
66
1
70
1
3
contour
0
VERTEX
10
8.31231
20
9.12426
30
6.52
0
VERTEX
10
8.32046
20
9.10254
30
6.52
0
VERTEX
10
8.32318
20
9.08082
30
6.52
0
VERTEX
10
8.32861
20
9.07538
30
6.52
0
VERTEX
10
8.33675
20
9.05366
30
6.52
0
VERTEX
10
8.35305
20
9.03465
30
6.52
0
VERTEX
10
8.35576
20
9.02379
30
6.52
0
VERTEX
10
8.37206
20
9.00206
30
6.52
0
VERTEX
10
8.37749
20
8.9912
30
6.52
0
VERTEX
10
8.38835
20
8.98306
30
6.52
0
VERTEX
10
8.39106
20
8.97762
30
6.52
0
VERTEX
10
8.41279
20
8.97762
30
6.52
0
VERTEX
10
8.43451
20
8.98306
30
6.52
0
VERTEX
10
8.44538
20
8.9912
30
6.52
0
VERTEX
10
8.4671
20
8.99392
30
6.52
0
VERTEX
10
8.47253
20
8.99392
30
6.52
0
VERTEX
10
8.48611
20
9.0075
30
6.52
0
VERTEX
10
8.49154
20
9.0075
30
6.52
0
VERTEX
10
8.49697
20
9.01293
30
6.52
0
VERTEX
10
8.5187
20
9.01836
30
6.52
0
VERTEX
10
8.55671
20
9.04823
30
6.52
0
VERTEX
10
8.56758
20
9.05366
30
6.52
0
VERTEX
10
8.57301
20
9.05909
30
6.52
0
VERTEX
10
8.58387
20
9.06181
30
6.52
0
VERTEX
10
8.60016
20
9.0781
30
6.52
0
VERTEX
10
8.60831
20
9.08353
30
6.52
0
VERTEX
10
8.62189
20
9.10526
30
6.52
0
VERTEX
10
8.63003
20
9.1134
30
6.52
0
VERTEX
10
8.63003
20
9.11883
30
6.52
0
VERTEX
10
8.64904
20
9.14056
30
6.52
0
VERTEX
10
8.65719
20
9.18401
30
6.52
0
VERTEX
10
8.65447
20
9.19487
30
6.52
0
VERTEX
10
8.64633
20
9.20573
30
6.52
0
VERTEX
10
8.6246
20
9.21931
30
6.52
0
VERTEX
10
8.58115
20
9.2356
30
6.52
0
VERTEX
10
8.49426
20
9.25461
30
6.52
0
VERTEX
10
8.45081
20
9.25461
30
6.52
0
VERTEX
10
8.40736
20
9.24646
30
6.52
0
VERTEX
10
8.3965
20
9.24646
30
6.52
0
VERTEX
10
8.40464
20
9.25461
30
6.52
0
VERTEX
10
8.40736
20
9.25733
30
6.52
0
VERTEX
10
8.40464
20
9.26004
30
6.52
0
VERTEX
10
8.38292
20
9.2519
30
6.52
0
VERTEX
10
8.36119
20
9.23832
30
6.52
0
VERTEX
10
8.34218
20
9.21659
30
6.52
0
VERTEX
10
8.32861
20
9.19487
30
6.52
0
VERTEX
10
8.31503
20
9.15142
30
6.52
0
VERTEX
10
8.31231
20
9.1297
30
6.52
0
VERTEX
10
8.31231
20
9.12698
30
6.52
0
SEQEND
0
POLYLINE
62
31
66
1
70
1
3
contour
0
VERTEX
10
7.86463
20
9.17807
30
6.52
0
VERTEX
10
7.87529
20
9.17008
30
6.52
0
VERTEX
10
7.87529
20
9.16475
30
6.52
0
VERTEX
10
7.88595
20
9.15676
30
6.52
0
VERTEX
10
7.92857
20
9.15676
30
6.52
0
VERTEX
10
7.93923
20
9.16209
30
6.52
0
VERTEX
10
7.94456
20
9.16209
30
6.52
0
VERTEX
10
7.96321
20
9.17807
30
6.52
0
VERTEX
10
7.9712
20
9.18873
30
6.52
0
VERTEX
10
7.9712
20
9.21004
30
6.52
0
VERTEX
10
7.9712
20
9.2207
30
6.52
0
VERTEX
10
7.95522
20
9.23935
30
6.52
0
VERTEX
10
7.94456
20
9.24734
30
6.52
0
VERTEX
10
7.90193
20
9.23402
30
6.52
0
VERTEX
10
7.88062
20
9.22869
30
6.52
0
VERTEX
10
7.87263
20
9.2207
30
6.52
0
VERTEX
10
7.86463
20
9.19938
30
6.52
0
VERTEX
10
7.86463
20
9.18074
30
6.52
0
SEQEND
0
POLYLINE
62
224
66
1
70
1
3
mitochondrion
0
VERTEX
10
9.01277
20
9.56199
30
6.52
0
VERTEX
10
9.01694
20
9.53974
30
6.52
0
VERTEX
10
9.02111
20
9.53418
30
6.52
0
VERTEX
10
9.0225
20
9.52862
30
6.52
0
VERTEX
10
9.02667
20
9.52444
30
6.52
0
VERTEX
10
9.02806
20
9.51888
30
6.52
0
VERTEX
10
9.03362
20
9.51332
30
6.52
0
VERTEX
10
9.04058
20
9.5022
30
6.52
0
VERTEX
10
9.06143
20
9.48134
30
6.52
0
VERTEX
10
9.08368
20
9.46744
30
6.52
0
VERTEX
10
9.10593
20
9.45909
30
6.52
0
VERTEX
10
9.15042
20
9.46049
30
6.52
0
VERTEX
10
9.16154
20
9.46188
30
6.52
0
VERTEX
10
9.17267
20
9.46605
30
6.52
0
VERTEX
10
9.18379
20
9.473
30
6.52
0
VERTEX
10
9.18935
20
9.47578
30
6.52
0
VERTEX
10
9.19908
20
9.48551
30
6.52
0
VERTEX
10
9.20326
20
9.49107
30
6.52
0
VERTEX
10
9.20604
20
9.49107
30
6.52
0
VERTEX
10
9.20882
20
9.49386
30
6.52
0
VERTEX
10
9.20882
20
9.49664
30
6.52
0
VERTEX
10
9.21994
20
9.50359
30
6.52
0
VERTEX
10
9.22828
20
9.51332
30
6.52
0
VERTEX
10
9.23385
20
9.51888
30
6.52
0
VERTEX
10
9.23385
20
9.52166
30
6.52
0
VERTEX
10
9.23802
20
9.52723
30
6.52
0
VERTEX
10
9.23941
20
9.57172
30
6.52
0
VERTEX
10
9.23663
20
9.59397
30
6.52
0
VERTEX
10
9.23385
20
9.60509
30
6.52
0
VERTEX
10
9.23385
20
9.60787
30
6.52
0
VERTEX
10
9.22828
20
9.61343
30
6.52
0
VERTEX
10
9.21716
20
9.62038
30
6.52
0
VERTEX
10
9.21299
20
9.62595
30
6.52
0
VERTEX
10
9.20326
20
9.6329
30
6.52
0
VERTEX
10
9.19769
20
9.63846
30
6.52
0
VERTEX
10
9.17545
20
9.64958
30
6.52
0
VERTEX
10
9.16432
20
9.65654
30
6.52
0
VERTEX
10
9.11983
20
9.65654
30
6.52
0
VERTEX
10
9.09758
20
9.65515
30
6.52
0
VERTEX
10
9.07534
20
9.64819
30
6.52
0
VERTEX
10
9.07256
20
9.64819
30
6.52
0
VERTEX
10
9.07116
20
9.64541
30
6.52
0
VERTEX
10
9.06838
20
9.64541
30
6.52
0
VERTEX
10
9.0656
20
9.63985
30
6.52
0
VERTEX
10
9.05448
20
9.63568
30
6.52
0
VERTEX
10
9.04892
20
9.63568
30
6.52
0
VERTEX
10
9.04614
20
9.63568
30
6.52
0
VERTEX
10
9.02806
20
9.6176
30
6.52
0
VERTEX
10
9.0225
20
9.59536
30
6.52
0
VERTEX
10
9.02111
20
9.5898
30
6.52
0
VERTEX
10
9.01833
20
9.58701
30
6.52
0
VERTEX
10
9.01833
20
9.58423
30
6.52
0
VERTEX
10
9.01416
20
9.57867
30
6.52
0
VERTEX
10
9.01277
20
9.56755
30
6.52
0
VERTEX
10
9.01277
20
9.56338
30
6.52
0
SEQEND
0
POLYLINE
62
236
66
1
70
1
3
postsynaptic_density
0
VERTEX
10
8.27673
20
9.16319
30
6.52
0
VERTEX
10
8.28046
20
9.10347
30
6.52
0
VERTEX
10
8.28046
20
9.07361
30
6.52
0
VERTEX
10
8.29353
20
9.04375
30
6.52
0
VERTEX
10
8.29726
20
9.03629
30
6.52
0
VERTEX
10
8.29726
20
9.03256
30
6.52
0
VERTEX
10
8.31032
20
9.01949
30
6.52
0
VERTEX
10
8.34018
20
9.02136
30
6.52
0
VERTEX
10
8.35511
20
9.02322
30
6.52
0
VERTEX
10
8.37004
20
9.02136
30
6.52
0
VERTEX
10
8.38311
20
9.03069
30
6.52
0
VERTEX
10
8.38684
20
9.03815
30
6.52
0
VERTEX
10
8.39057
20
9.04002
30
6.52
0
VERTEX
10
8.39057
20
9.04375
30
6.52
0
VERTEX
10
8.3999
20
9.05868
30
6.52
0
VERTEX
10
8.3999
20
9.08854
30
6.52
0
VERTEX
10
8.39617
20
9.10347
30
6.52
0
VERTEX
10
8.39244
20
9.11094
30
6.52
0
VERTEX
10
8.39057
20
9.1408
30
6.52
0
VERTEX
10
8.38497
20
9.15573
30
6.52
0
VERTEX
10
8.37378
20
9.16879
30
6.52
0
VERTEX
10
8.37004
20
9.17252
30
6.52
0
VERTEX
10
8.37004
20
9.17626
30
6.52
0
VERTEX
10
8.35698
20
9.18745
30
6.52
0
VERTEX
10
8.34392
20
9.19305
30
6.52
0
VERTEX
10
8.33645
20
9.19678
30
6.52
0
VERTEX
10
8.30659
20
9.19678
30
6.52
0
VERTEX
10
8.29166
20
9.19492
30
6.52
0
VERTEX
10
8.27673
20
9.18932
30
6.52
0
VERTEX
10
8.27673
20
9.17439
30
6.52
0
VERTEX
10
8.27673
20
9.16692
30
6.52
0
VERTEX
10
8.27673
20
9.16506
30
6.52
0
SEQEND
0
POLYLINE
62
227
66
1
70
1
3
endoplasmic_reticulum
0
VERTEX
10
9.2398
20
9.64504
30
6.52
0
VERTEX
10
9.2416
20
9.63787
30
6.52
0
VERTEX
10
9.24429
20
9.63428
30
6.52
0
VERTEX
10
9.24518
20
9.63249
30
6.52
0
VERTEX
10
9.24698
20
9.63249
30
6.52
0
VERTEX
10
9.25415
20
9.62711
30
6.52
0
VERTEX
10
9.25774
20
9.62532
30
6.52
0
VERTEX
10
9.27208
20
9.62532
30
6.52
0
VERTEX
10
9.27925
20
9.62622
30
6.52
0
VERTEX
10
9.28373
20
9.63249
30
6.52
0
VERTEX
10
9.28642
20
9.63877
30
6.52
0
VERTEX
10
9.28642
20
9.64594
30
6.52
0
VERTEX
10
9.28463
20
9.65311
30
6.52
0
VERTEX
10
9.28105
20
9.65401
30
6.52
0
VERTEX
10
9.27836
20
9.65759
30
6.52
0
VERTEX
10
9.27477
20
9.65939
30
6.52
0
VERTEX
10
9.26042
20
9.66208
30
6.52
0
VERTEX
10
9.25684
20
9.66477
30
6.52
0
VERTEX
10
9.24249
20
9.65939
30
6.52
0
VERTEX
10
9.2398
20
9.6567
30
6.52
0
VERTEX
10
9.2398
20
9.64953
30
6.52
0
VERTEX
10
9.2398
20
9.64594
30
6.52
0
SEQEND
0
POLYLINE
62
227
66
1
70
1
3
endoplasmic_reticulum
0
VERTEX
10
9.0587
20
9.71946
30
6.52
0
VERTEX
10
9.06049
20
9.71228
30
6.52
0
VERTEX
10
9.06139
20
9.7087
30
6.52
0
VERTEX
10
9.07394
20
9.69704
30
6.52
0
VERTEX
10
9.08829
20
9.69615
30
6.52
0
VERTEX
10
9.09008
20
9.69615
30
6.52
0
VERTEX
10
9.09367
20
9.69884
30
6.52
0
VERTEX
10
9.10084
20
9.70063
30
6.52
0
VERTEX
10
9.10712
20
9.70511
30
6.52
0
VERTEX
10
9.1107
20
9.7078
30
6.52
0
VERTEX
10
9.10981
20
9.72215
30
6.52
0
VERTEX
10
9.10622
20
9.72932
30
6.52
0
VERTEX
10
9.09994
20
9.73559
30
6.52
0
VERTEX
10
9.09815
20
9.74187
30
6.52
0
VERTEX
10
9.09456
20
9.74456
30
6.52
0
VERTEX
10
9.06587
20
9.74008
30
6.52
0
VERTEX
10
9.0596
20
9.73559
30
6.52
0
VERTEX
10
9.0587
20
9.72125
30
6.52
0
VERTEX
10
9.0587
20
9.72035
30
6.52
0
SEQEND
0
POLYLINE
62
227
66
1
70
1
3
endoplasmic_reticulum
0
VERTEX
10
8.86594
20
9.54642
30
6.52
0
VERTEX
10
8.86774
20
9.53925
30
6.52
0
VERTEX
10
8.86863
20
9.53566
30
6.52
0
VERTEX
10
8.87491
20
9.52939
30
6.52
0
VERTEX
10
8.88925
20
9.53029
30
6.52
0
VERTEX
10
8.9036
20
9.52939
30
6.52
0
VERTEX
10
8.91077
20
9.5267
30
6.52
0
VERTEX
10
8.91436
20
9.52491
30
6.52
0
VERTEX
10
8.91794
20
9.52132
30
6.52
0
VERTEX
10
8.92512
20
9.51953
30
6.52
0
VERTEX
10
8.93946
20
9.52042
30
6.52
0
VERTEX
10
8.94305
20
9.52222
30
6.52
0
VERTEX
10
8.95022
20
9.52222
30
6.52
0
VERTEX
10
8.95201
20
9.52401
30
6.52
0
VERTEX
10
8.95919
20
9.5258
30
6.52
0
VERTEX
10
8.96098
20
9.5258
30
6.52
0
VERTEX
10
8.96815
20
9.53029
30
6.52
0
VERTEX
10
8.97891
20
9.54284
30
6.52
0
VERTEX
10
8.9816
20
9.54642
30
6.52
0
VERTEX
10
8.98339
20
9.54822
30
6.52
0
VERTEX
10
8.98339
20
9.56256
30
6.52
0
VERTEX
10
8.9825
20
9.56615
30
6.52
0
VERTEX
10
8.97981
20
9.56884
30
6.52
0
VERTEX
10
8.97981
20
9.57242
30
6.52
0
VERTEX
10
8.97622
20
9.5796
30
6.52
0
VERTEX
10
8.97443
20
9.58318
30
6.52
0
VERTEX
10
8.97263
20
9.58318
30
6.52
0
VERTEX
10
8.96994
20
9.58677
30
6.52
0
VERTEX
10
8.96636
20
9.58856
30
6.52
0
VERTEX
10
8.96456
20
9.59035
30
6.52
0
VERTEX
10
8.96456
20
9.59215
30
6.52
0
VERTEX
10
8.95739
20
9.59663
30
6.52
0
VERTEX
10
8.95381
20
9.59842
30
6.52
0
VERTEX
10
8.95201
20
9.60022
30
6.52
0
VERTEX
10
8.94843
20
9.60111
30
6.52
0
VERTEX
10
8.94125
20
9.60649
30
6.52
0
VERTEX
10
8.93408
20
9.60918
30
6.52
0
VERTEX
10
8.93229
20
9.60918
30
6.52
0
VERTEX
10
8.9305
20
9.61097
30
6.52
0
VERTEX
10
8.92332
20
9.61366
30
6.52
0
VERTEX
10
8.89463
20
9.61008
30
6.52
0
VERTEX
10
8.88925
20
9.6047
30
6.52
0
VERTEX
10
8.88836
20
9.59035
30
6.52
0
VERTEX
10
8.88746
20
9.58318
30
6.52
0
VERTEX
10
8.88657
20
9.5796
30
6.52
0
VERTEX
10
8.88388
20
9.57691
30
6.52
0
VERTEX
10
8.88208
20
9.57601
30
6.52
0
VERTEX
10
8.88208
20
9.57422
30
6.52
0
VERTEX
10
8.87491
20
9.56794
30
6.52
0
VERTEX
10
8.86594
20
9.55449
30
6.52
0
VERTEX
10
8.86594
20
9.54732
30
6.52
0
SEQEND
0
POLYLINE
62
227
66
1
70
1
3
endoplasmic_reticulum
0
VERTEX
10
9.36353
20
9.48098
30
6.52
0
VERTEX
10
9.36622
20
9.4738
30
6.52
0
VERTEX
10
9.36622
20
9.47022
30
6.52
0
VERTEX
10
9.3707
20
9.46394
30
6.52
0
VERTEX
10
9.37339
20
9.46035
30
6.52
0
VERTEX
10
9.37967
20
9.45587
30
6.52
0
VERTEX
10
9.39401
20
9.45318
30
6.52
0
VERTEX
10
9.40118
20
9.45408
30
6.52
0
VERTEX
10
9.40477
20
9.45587
30
6.52
0
VERTEX
10
9.41015
20
9.46215
30
6.52
0
VERTEX
10
9.41642
20
9.46663
30
6.52
0
VERTEX
10
9.41911
20
9.47111
30
6.52
0
VERTEX
10
9.4218
20
9.47829
30
6.52
0
VERTEX
10
9.4218
20
9.48187
30
6.52
0
VERTEX
10
9.42449
20
9.48904
30
6.52
0
VERTEX
10
9.42539
20
9.49622
30
6.52
0
VERTEX
10
9.42987
20
9.51056
30
6.52
0
VERTEX
10
9.42987
20
9.51773
30
6.52
0
VERTEX
10
9.42718
20
9.52401
30
6.52
0
VERTEX
10
9.4227
20
9.53118
30
6.52
0
VERTEX
10
9.42001
20
9.53477
30
6.52
0
VERTEX
10
9.39132
20
9.53387
30
6.52
0
VERTEX
10
9.38415
20
9.53029
30
6.52
0
VERTEX
10
9.37698
20
9.52491
30
6.52
0
VERTEX
10
9.37429
20
9.52401
30
6.52
0
VERTEX
10
9.3698
20
9.51773
30
6.52
0
VERTEX
10
9.36442
20
9.50339
30
6.52
0
VERTEX
10
9.36353
20
9.48904
30
6.52
0
VERTEX
10
9.36353
20
9.48187
30
6.52
0
SEQEND
0
POLYLINE
62
227
66
1
70
1
3
endoplasmic_reticulum
0
VERTEX
10
10.3283
20
9.56028
30
6.52
0
VERTEX
10
10.3336
20
9.55629
30
6.52
0
VERTEX
10
10.3349
20
9.55363
30
6.52
0
VERTEX
10
10.3456
20
9.55762
30
6.52
0
VERTEX
10
10.3482
20
9.56028
30
6.52
0
VERTEX
10
10.3482
20
9.57091
30
6.52
0
VERTEX
10
10.3482
20
9.57357
30
6.52
0
VERTEX
10
10.3456
20
9.57622
30
6.52
0
VERTEX
10
10.3349
20
9.57224
30
6.52
0
VERTEX
10
10.3296
20
9.57091
30
6.52
0
VERTEX
10
10.3283
20
9.56161
30
6.52
0
SEQEND
0
ENDSEC
0
EOF
