0
SECTION
2
ENTITIES
0
POLYLINE
62
31
66
1
70
1
3
contour
0
VERTEX
10
7.52534
20
10.2478
30
8.6
0
VERTEX
10
7.52863
20
10.2346
30
8.6
0
VERTEX
10
7.52863
20
10.228
30
8.6
0
VERTEX
10
7.5418
20
10.2214
30
8.6
0
VERTEX
10
7.5418
20
10.2148
30
8.6
0
VERTEX
10
7.56155
20
10.1951
30
8.6
0
VERTEX
10
7.58789
20
10.1753
30
8.6
0
VERTEX
10
7.6241
20
10.126
30
8.6
0
VERTEX
10
7.64385
20
10.1062
30
8.6
0
VERTEX
10
7.65373
20
10.0799
30
8.6
0
VERTEX
10
7.67019
20
10.0568
30
8.6
0
VERTEX
10
7.68335
20
10.047
30
8.6
0
VERTEX
10
7.68994
20
10.0338
30
8.6
0
VERTEX
10
7.71627
20
10.0173
30
8.6
0
VERTEX
10
7.72944
20
10.0107
30
8.6
0
VERTEX
10
7.75248
20
9.9877
30
8.6
0
VERTEX
10
7.80516
20
9.99099
30
8.6
0
VERTEX
10
7.81832
20
9.98112
30
8.6
0
VERTEX
10
7.82491
20
9.97783
30
8.6
0
VERTEX
10
7.82491
20
9.97124
30
8.6
0
VERTEX
10
7.83807
20
9.96137
30
8.6
0
VERTEX
10
7.86441
20
9.95807
30
8.6
0
VERTEX
10
7.87758
20
9.95149
30
8.6
0
VERTEX
10
7.88416
20
9.94491
30
8.6
0
VERTEX
10
7.9895
20
9.94491
30
8.6
0
VERTEX
10
8.04217
20
9.93832
30
8.6
0
VERTEX
10
8.14752
20
9.94162
30
8.6
0
VERTEX
10
8.16068
20
9.94162
30
8.6
0
VERTEX
10
8.17385
20
9.9482
30
8.6
0
VERTEX
10
8.18702
20
9.9482
30
8.6
0
VERTEX
10
8.21335
20
9.96466
30
8.6
0
VERTEX
10
8.2364
20
9.99099
30
8.6
0
VERTEX
10
8.24627
20
10.0042
30
8.6
0
VERTEX
10
8.24957
20
10.0305
30
8.6
0
VERTEX
10
8.25286
20
10.0437
30
8.6
0
VERTEX
10
8.25944
20
10.0502
30
8.6
0
VERTEX
10
8.26273
20
10.0634
30
8.6
0
VERTEX
10
8.26273
20
10.07
30
8.6
0
VERTEX
10
8.2759
20
10.0832
30
8.6
0
VERTEX
10
8.2759
20
10.0898
30
8.6
0
VERTEX
10
8.29565
20
10.1128
30
8.6
0
VERTEX
10
8.29565
20
10.1194
30
8.6
0
VERTEX
10
8.30553
20
10.1293
30
8.6
0
VERTEX
10
8.30553
20
10.1358
30
8.6
0
VERTEX
10
8.31211
20
10.1358
30
8.6
0
VERTEX
10
8.3187
20
10.1424
30
8.6
0
VERTEX
10
8.3187
20
10.1556
30
8.6
0
VERTEX
10
8.32857
20
10.1688
30
8.6
0
VERTEX
10
8.33516
20
10.1951
30
8.6
0
VERTEX
10
8.33516
20
10.2017
30
8.6
0
VERTEX
10
8.34174
20
10.205
30
8.6
0
VERTEX
10
8.34174
20
10.2116
30
8.6
0
VERTEX
10
8.3582
20
10.2379
30
8.6
0
VERTEX
10
8.3582
20
10.2445
30
8.6
0
VERTEX
10
8.39441
20
10.2906
30
8.6
0
VERTEX
10
8.42404
20
10.3432
30
8.6
0
VERTEX
10
8.42404
20
10.3696
30
8.6
0
VERTEX
10
8.43062
20
10.3959
30
8.6
0
VERTEX
10
8.43062
20
10.4091
30
8.6
0
VERTEX
10
8.42404
20
10.4222
30
8.6
0
VERTEX
10
8.42075
20
10.4486
30
8.6
0
VERTEX
10
8.40429
20
10.4749
30
8.6
0
VERTEX
10
8.3977
20
10.4815
30
8.6
0
VERTEX
10
8.39441
20
10.4947
30
8.6
0
VERTEX
10
8.38124
20
10.498
30
8.6
0
VERTEX
10
8.3582
20
10.5177
30
8.6
0
VERTEX
10
8.34832
20
10.5309
30
8.6
0
VERTEX
10
8.32199
20
10.5375
30
8.6
0
VERTEX
10
8.30882
20
10.5473
30
8.6
0
VERTEX
10
8.28248
20
10.5539
30
8.6
0
VERTEX
10
8.26932
20
10.5638
30
8.6
0
VERTEX
10
8.21665
20
10.5572
30
8.6
0
VERTEX
10
8.19031
20
10.5539
30
8.6
0
VERTEX
10
8.16398
20
10.5572
30
8.6
0
VERTEX
10
8.1146
20
10.5473
30
8.6
0
VERTEX
10
8.00925
20
10.5506
30
8.6
0
VERTEX
10
7.90391
20
10.5473
30
8.6
0
VERTEX
10
7.85124
20
10.5473
30
8.6
0
VERTEX
10
7.82491
20
10.5473
30
8.6
0
VERTEX
10
7.77224
20
10.5309
30
8.6
0
VERTEX
10
7.7459
20
10.5045
30
8.6
0
VERTEX
10
7.71957
20
10.4947
30
8.6
0
VERTEX
10
7.70311
20
10.4716
30
8.6
0
VERTEX
10
7.65702
20
10.4222
30
8.6
0
VERTEX
10
7.61422
20
10.3794
30
8.6
0
VERTEX
10
7.59447
20
10.3564
30
8.6
0
VERTEX
10
7.56814
20
10.3465
30
8.6
0
VERTEX
10
7.55497
20
10.3366
30
8.6
0
VERTEX
10
7.54839
20
10.3366
30
8.6
0
VERTEX
10
7.53522
20
10.3268
30
8.6
0
VERTEX
10
7.52863
20
10.3202
30
8.6
0
VERTEX
10
7.52534
20
10.2675
30
8.6
0
VERTEX
10
7.52534
20
10.2543
30
8.6
0
VERTEX
10
7.52534
20
10.2511
30
8.6
0
SEQEND
0
POLYLINE
62
31
66
1
70
1
3
contour
0
VERTEX
10
7.21318
20
9.61757
30
8.6
0
VERTEX
10
7.22171
20
9.59026
30
8.6
0
VERTEX
10
7.24219
20
9.56808
30
8.6
0
VERTEX
10
7.25584
20
9.55613
30
8.6
0
VERTEX
10
7.30703
20
9.51689
30
8.6
0
VERTEX
10
7.32068
20
9.50835
30
8.6
0
VERTEX
10
7.32751
20
9.50494
30
8.6
0
VERTEX
10
7.33092
20
9.50494
30
8.6
0
VERTEX
10
7.33775
20
9.49982
30
8.6
0
VERTEX
10
7.34457
20
9.49812
30
8.6
0
VERTEX
10
7.34799
20
9.49812
30
8.6
0
VERTEX
10
7.35481
20
9.493
30
8.6
0
VERTEX
10
7.36846
20
9.48958
30
8.6
0
VERTEX
10
7.37529
20
9.48617
30
8.6
0
VERTEX
10
7.38211
20
9.48617
30
8.6
0
VERTEX
10
7.39577
20
9.48105
30
8.6
0
VERTEX
10
7.40259
20
9.47764
30
8.6
0
VERTEX
10
7.4572
20
9.47934
30
8.6
0
VERTEX
10
7.4845
20
9.48446
30
8.6
0
VERTEX
10
7.49815
20
9.48958
30
8.6
0
VERTEX
10
7.50157
20
9.48958
30
8.6
0
VERTEX
10
7.50839
20
9.4947
30
8.6
0
VERTEX
10
7.51522
20
9.49641
30
8.6
0
VERTEX
10
7.51863
20
9.49982
30
8.6
0
VERTEX
10
7.54423
20
9.51006
30
8.6
0
VERTEX
10
7.55105
20
9.51177
30
8.6
0
VERTEX
10
7.5647
20
9.52201
30
8.6
0
VERTEX
10
7.57153
20
9.52371
30
8.6
0
VERTEX
10
7.58006
20
9.53566
30
8.6
0
VERTEX
10
7.58518
20
9.53907
30
8.6
0
VERTEX
10
7.60225
20
9.56637
30
8.6
0
VERTEX
10
7.60737
20
9.5732
30
8.6
0
VERTEX
10
7.6176
20
9.6005
30
8.6
0
VERTEX
10
7.61931
20
9.65511
30
8.6
0
VERTEX
10
7.61419
20
9.66876
30
8.6
0
VERTEX
10
7.61249
20
9.68241
30
8.6
0
VERTEX
10
7.60566
20
9.69606
30
8.6
0
VERTEX
10
7.60054
20
9.70118
30
8.6
0
VERTEX
10
7.59713
20
9.71483
30
8.6
0
VERTEX
10
7.58177
20
9.74043
30
8.6
0
VERTEX
10
7.57665
20
9.74555
30
8.6
0
VERTEX
10
7.57494
20
9.74896
30
8.6
0
VERTEX
10
7.56812
20
9.74896
30
8.6
0
VERTEX
10
7.5647
20
9.75238
30
8.6
0
VERTEX
10
7.5647
20
9.75579
30
8.6
0
VERTEX
10
7.55276
20
9.76432
30
8.6
0
VERTEX
10
7.54935
20
9.76774
30
8.6
0
VERTEX
10
7.54593
20
9.76774
30
8.6
0
VERTEX
10
7.53399
20
9.77627
30
8.6
0
VERTEX
10
7.52887
20
9.78139
30
8.6
0
VERTEX
10
7.51522
20
9.7848
30
8.6
0
VERTEX
10
7.50157
20
9.79163
30
8.6
0
VERTEX
10
7.49474
20
9.79333
30
8.6
0
VERTEX
10
7.48791
20
9.79845
30
8.6
0
VERTEX
10
7.48109
20
9.80016
30
8.6
0
VERTEX
10
7.46744
20
9.80869
30
8.6
0
VERTEX
10
7.46061
20
9.8121
30
8.6
0
VERTEX
10
7.4572
20
9.81552
30
8.6
0
VERTEX
10
7.40259
20
9.82746
30
8.6
0
VERTEX
10
7.34799
20
9.82575
30
8.6
0
VERTEX
10
7.32068
20
9.81722
30
8.6
0
VERTEX
10
7.31727
20
9.81722
30
8.6
0
VERTEX
10
7.31044
20
9.8104
30
8.6
0
VERTEX
10
7.30703
20
9.80698
30
8.6
0
VERTEX
10
7.3002
20
9.80528
30
8.6
0
VERTEX
10
7.29679
20
9.80186
30
8.6
0
VERTEX
10
7.29338
20
9.80186
30
8.6
0
VERTEX
10
7.28485
20
9.78992
30
8.6
0
VERTEX
10
7.2729
20
9.77968
30
8.6
0
VERTEX
10
7.26608
20
9.77285
30
8.6
0
VERTEX
10
7.25242
20
9.76432
30
8.6
0
VERTEX
10
7.23877
20
9.75067
30
8.6
0
VERTEX
10
7.23024
20
9.73873
30
8.6
0
VERTEX
10
7.22853
20
9.7319
30
8.6
0
VERTEX
10
7.22853
20
9.72849
30
8.6
0
VERTEX
10
7.22512
20
9.72507
30
8.6
0
VERTEX
10
7.22512
20
9.71825
30
8.6
0
VERTEX
10
7.22
20
9.7046
30
8.6
0
VERTEX
10
7.21318
20
9.64999
30
8.6
0
VERTEX
10
7.21318
20
9.62269
30
8.6
0
VERTEX
10
7.21318
20
9.61927
30
8.6
0
SEQEND
0
POLYLINE
62
224
66
1
70
1
3
mitochondrion
0
VERTEX
10
7.76694
20
10.2502
30
8.6
0
VERTEX
10
7.76972
20
10.2475
30
8.6
0
VERTEX
10
7.7725
20
10.2363
30
8.6
0
VERTEX
10
7.7725
20
10.2308
30
8.6
0
VERTEX
10
7.77667
20
10.2252
30
8.6
0
VERTEX
10
7.77946
20
10.2141
30
8.6
0
VERTEX
10
7.77946
20
10.2113
30
8.6
0
VERTEX
10
7.78224
20
10.2085
30
8.6
0
VERTEX
10
7.78363
20
10.203
30
8.6
0
VERTEX
10
7.78363
20
10.2002
30
8.6
0
VERTEX
10
7.8017
20
10.1807
30
8.6
0
VERTEX
10
7.80726
20
10.1793
30
8.6
0
VERTEX
10
7.81004
20
10.1793
30
8.6
0
VERTEX
10
7.81283
20
10.1766
30
8.6
0
VERTEX
10
7.81839
20
10.1752
30
8.6
0
VERTEX
10
7.82951
20
10.1682
30
8.6
0
VERTEX
10
7.83229
20
10.1682
30
8.6
0
VERTEX
10
7.83646
20
10.164
30
8.6
0
VERTEX
10
7.85871
20
10.1543
30
8.6
0
VERTEX
10
7.86983
20
10.1474
30
8.6
0
VERTEX
10
7.89208
20
10.1404
30
8.6
0
VERTEX
10
7.91433
20
10.1404
30
8.6
0
VERTEX
10
7.92545
20
10.1404
30
8.6
0
VERTEX
10
7.93657
20
10.1432
30
8.6
0
VERTEX
10
7.93935
20
10.146
30
8.6
0
VERTEX
10
7.95048
20
10.146
30
8.6
0
VERTEX
10
7.95604
20
10.1487
30
8.6
0
VERTEX
10
7.95882
20
10.1515
30
8.6
0
VERTEX
10
7.96438
20
10.1515
30
8.6
0
VERTEX
10
7.97551
20
10.1557
30
8.6
0
VERTEX
10
7.98107
20
10.1557
30
8.6
0
VERTEX
10
7.99219
20
10.1599
30
8.6
0
VERTEX
10
7.99775
20
10.1627
30
8.6
0
VERTEX
10
8.00053
20
10.1627
30
8.6
0
VERTEX
10
8.0061
20
10.1668
30
8.6
0
VERTEX
10
8.00888
20
10.1696
30
8.6
0
VERTEX
10
8.01444
20
10.171
30
8.6
0
VERTEX
10
8.03529
20
10.1905
30
8.6
0
VERTEX
10
8.03668
20
10.196
30
8.6
0
VERTEX
10
8.05059
20
10.2183
30
8.6
0
VERTEX
10
8.05059
20
10.2211
30
8.6
0
VERTEX
10
8.05754
20
10.2308
30
8.6
0
VERTEX
10
8.06032
20
10.253
30
8.6
0
VERTEX
10
8.06032
20
10.2975
30
8.6
0
VERTEX
10
8.05754
20
10.3198
30
8.6
0
VERTEX
10
8.05615
20
10.3309
30
8.6
0
VERTEX
10
8.04503
20
10.3531
30
8.6
0
VERTEX
10
8.04086
20
10.3587
30
8.6
0
VERTEX
10
8.03808
20
10.3615
30
8.6
0
VERTEX
10
8.03529
20
10.3615
30
8.6
0
VERTEX
10
8.03251
20
10.367
30
8.6
0
VERTEX
10
8.02973
20
10.3698
30
8.6
0
VERTEX
10
8.02556
20
10.3809
30
8.6
0
VERTEX
10
8.02
20
10.3851
30
8.6
0
VERTEX
10
8.02
20
10.3879
30
8.6
0
VERTEX
10
8.01583
20
10.3935
30
8.6
0
VERTEX
10
8.01444
20
10.399
30
8.6
0
VERTEX
10
8.0047
20
10.4101
30
8.6
0
VERTEX
10
7.98246
20
10.4213
30
8.6
0
VERTEX
10
7.97133
20
10.4254
30
8.6
0
VERTEX
10
7.96577
20
10.4268
30
8.6
0
VERTEX
10
7.96299
20
10.4268
30
8.6
0
VERTEX
10
7.96021
20
10.4296
30
8.6
0
VERTEX
10
7.93796
20
10.4324
30
8.6
0
VERTEX
10
7.92684
20
10.4352
30
8.6
0
VERTEX
10
7.90459
20
10.4352
30
8.6
0
VERTEX
10
7.88235
20
10.4324
30
8.6
0
VERTEX
10
7.87818
20
10.4282
30
8.6
0
VERTEX
10
7.8754
20
10.4268
30
8.6
0
VERTEX
10
7.8754
20
10.4241
30
8.6
0
VERTEX
10
7.86427
20
10.4213
30
8.6
0
VERTEX
10
7.85871
20
10.4171
30
8.6
0
VERTEX
10
7.85315
20
10.4157
30
8.6
0
VERTEX
10
7.84759
20
10.4115
30
8.6
0
VERTEX
10
7.82534
20
10.4032
30
8.6
0
VERTEX
10
7.80587
20
10.3851
30
8.6
0
VERTEX
10
7.79753
20
10.3754
30
8.6
0
VERTEX
10
7.79475
20
10.3726
30
8.6
0
VERTEX
10
7.79336
20
10.367
30
8.6
0
VERTEX
10
7.78502
20
10.3587
30
8.6
0
VERTEX
10
7.77667
20
10.3365
30
8.6
0
VERTEX
10
7.77111
20
10.3253
30
8.6
0
VERTEX
10
7.76694
20
10.3031
30
8.6
0
VERTEX
10
7.76694
20
10.2586
30
8.6
0
VERTEX
10
7.76694
20
10.253
30
8.6
0
VERTEX
10
7.76694
20
10.2516
30
8.6
0
SEQEND
0
POLYLINE
62
236
66
1
70
1
3
postsynaptic_density
0
VERTEX
10
7.25777
20
9.5439
30
8.6
0
VERTEX
10
7.2615
20
9.54017
30
8.6
0
VERTEX
10
7.26524
20
9.54017
30
8.6
0
VERTEX
10
7.26524
20
9.53644
30
8.6
0
VERTEX
10
7.2783
20
9.52151
30
8.6
0
VERTEX
10
7.2839
20
9.51778
30
8.6
0
VERTEX
10
7.2895
20
9.51031
30
8.6
0
VERTEX
10
7.31749
20
9.49165
30
8.6
0
VERTEX
10
7.32495
20
9.48792
30
8.6
0
VERTEX
10
7.33802
20
9.47299
30
8.6
0
VERTEX
10
7.35108
20
9.46739
30
8.6
0
VERTEX
10
7.36601
20
9.45806
30
8.6
0
VERTEX
10
7.39587
20
9.45246
30
8.6
0
VERTEX
10
7.42573
20
9.45059
30
8.6
0
VERTEX
10
7.44066
20
9.45059
30
8.6
0
VERTEX
10
7.45559
20
9.45619
30
8.6
0
VERTEX
10
7.46306
20
9.45806
30
8.6
0
VERTEX
10
7.47052
20
9.46365
30
8.6
0
VERTEX
10
7.47425
20
9.47112
30
8.6
0
VERTEX
10
7.47799
20
9.47485
30
8.6
0
VERTEX
10
7.47612
20
9.48978
30
8.6
0
VERTEX
10
7.47425
20
9.49725
30
8.6
0
VERTEX
10
7.47052
20
9.49725
30
8.6
0
VERTEX
10
7.47052
20
9.50471
30
8.6
0
VERTEX
10
7.46119
20
9.53457
30
8.6
0
VERTEX
10
7.34175
20
9.5663
30
8.6
0
VERTEX
10
7.31189
20
9.57563
30
8.6
0
VERTEX
10
7.28203
20
9.58123
30
8.6
0
VERTEX
10
7.27457
20
9.58123
30
8.6
0
VERTEX
10
7.2727
20
9.57749
30
8.6
0
VERTEX
10
7.26524
20
9.57749
30
8.6
0
VERTEX
10
7.25777
20
9.5719
30
8.6
0
VERTEX
10
7.25777
20
9.55697
30
8.6
0
VERTEX
10
7.25777
20
9.5495
30
8.6
0
VERTEX
10
7.25777
20
9.54577
30
8.6
0
SEQEND
0
POLYLINE
62
227
66
1
70
1
3
endoplasmic_reticulum
0
VERTEX
10
7.64306
20
10.269
30
8.6
0
VERTEX
10
7.64395
20
10.2619
30
8.6
0
VERTEX
10
7.64754
20
10.2547
30
8.6
0
VERTEX
10
7.64933
20
10.2475
30
8.6
0
VERTEX
10
7.65023
20
10.2332
30
8.6
0
VERTEX
10
7.65561
20
10.226
30
8.6
0
VERTEX
10
7.65919
20
10.2242
30
8.6
0
VERTEX
10
7.66099
20
10.2224
30
8.6
0
VERTEX
10
7.66457
20
10.2224
30
8.6
0
VERTEX
10
7.66637
20
10.2224
30
8.6
0
VERTEX
10
7.68161
20
10.2377
30
8.6
0
VERTEX
10
7.68788
20
10.2421
30
8.6
0
VERTEX
10
7.68788
20
10.2457
30
8.6
0
VERTEX
10
7.68788
20
10.2475
30
8.6
0
VERTEX
10
7.69416
20
10.252
30
8.6
0
VERTEX
10
7.69685
20
10.2556
30
8.6
0
VERTEX
10
7.69864
20
10.2556
30
8.6
0
VERTEX
10
7.70133
20
10.2592
30
8.6
0
VERTEX
10
7.70312
20
10.2592
30
8.6
0
VERTEX
10
7.70671
20
10.2628
30
8.6
0
VERTEX
10
7.72016
20
10.2708
30
8.6
0
VERTEX
10
7.72374
20
10.2735
30
8.6
0
VERTEX
10
7.72733
20
10.2744
30
8.6
0
VERTEX
10
7.73002
20
10.2771
30
8.6
0
VERTEX
10
7.72912
20
10.2843
30
8.6
0
VERTEX
10
7.72464
20
10.2915
30
8.6
0
VERTEX
10
7.71837
20
10.2986
30
8.6
0
VERTEX
10
7.71388
20
10.3058
30
8.6
0
VERTEX
10
7.70223
20
10.3175
30
8.6
0
VERTEX
10
7.70223
20
10.3192
30
8.6
0
VERTEX
10
7.69685
20
10.3264
30
8.6
0
VERTEX
10
7.69506
20
10.3291
30
8.6
0
VERTEX
10
7.68161
20
10.339
30
8.6
0
VERTEX
10
7.67981
20
10.3408
30
8.6
0
VERTEX
10
7.67175
20
10.3273
30
8.6
0
VERTEX
10
7.66995
20
10.3201
30
8.6
0
VERTEX
10
7.66637
20
10.3175
30
8.6
0
VERTEX
10
7.66637
20
10.3139
30
8.6
0
VERTEX
10
7.65381
20
10.3022
30
8.6
0
VERTEX
10
7.64664
20
10.2995
30
8.6
0
VERTEX
10
7.64664
20
10.2977
30
8.6
0
VERTEX
10
7.64485
20
10.2959
30
8.6
0
VERTEX
10
7.64306
20
10.2888
30
8.6
0
VERTEX
10
7.64306
20
10.2744
30
8.6
0
VERTEX
10
7.64306
20
10.2708
30
8.6
0
VERTEX
10
7.64306
20
10.2699
30
8.6
0
SEQEND
0
POLYLINE
62
227
66
1
70
1
3
endoplasmic_reticulum
0
VERTEX
10
8.12809
20
10.4358
30
8.6
0
VERTEX
10
8.12988
20
10.4071
30
8.6
0
VERTEX
10
8.13078
20
10.3999
30
8.6
0
VERTEX
10
8.13347
20
10.3928
30
8.6
0
VERTEX
10
8.13526
20
10.391
30
8.6
0
VERTEX
10
8.13526
20
10.3874
30
8.6
0
VERTEX
10
8.13885
20
10.3802
30
8.6
0
VERTEX
10
8.14064
20
10.3659
30
8.6
0
VERTEX
10
8.14064
20
10.3587
30
8.6
0
VERTEX
10
8.14333
20
10.3515
30
8.6
0
VERTEX
10
8.14602
20
10.3228
30
8.6
0
VERTEX
10
8.14422
20
10.3085
30
8.6
0
VERTEX
10
8.14422
20
10.2511
30
8.6
0
VERTEX
10
8.14422
20
10.2439
30
8.6
0
VERTEX
10
8.14154
20
10.2377
30
8.6
0
VERTEX
10
8.13795
20
10.2341
30
8.6
0
VERTEX
10
8.13795
20
10.2197
30
8.6
0
VERTEX
10
8.14691
20
10.2072
30
8.6
0
VERTEX
10
8.1496
20
10.2045
30
8.6
0
VERTEX
10
8.15319
20
10.2045
30
8.6
0
VERTEX
10
8.15857
20
10.2117
30
8.6
0
VERTEX
10
8.16036
20
10.2152
30
8.6
0
VERTEX
10
8.16216
20
10.217
30
8.6
0
VERTEX
10
8.16216
20
10.2188
30
8.6
0
VERTEX
10
8.16485
20
10.2215
30
8.6
0
VERTEX
10
8.16485
20
10.2233
30
8.6
0
VERTEX
10
8.16754
20
10.2269
30
8.6
0
VERTEX
10
8.16843
20
10.2305
30
8.6
0
VERTEX
10
8.17291
20
10.2377
30
8.6
0
VERTEX
10
8.1756
20
10.2412
30
8.6
0
VERTEX
10
8.17829
20
10.2484
30
8.6
0
VERTEX
10
8.18009
20
10.2502
30
8.6
0
VERTEX
10
8.18457
20
10.2646
30
8.6
0
VERTEX
10
8.18636
20
10.2681
30
8.6
0
VERTEX
10
8.18816
20
10.2825
30
8.6
0
VERTEX
10
8.18726
20
10.2968
30
8.6
0
VERTEX
10
8.18995
20
10.304
30
8.6
0
VERTEX
10
8.19085
20
10.3112
30
8.6
0
VERTEX
10
8.21953
20
10.3157
30
8.6
0
VERTEX
10
8.23388
20
10.3201
30
8.6
0
VERTEX
10
8.23567
20
10.3201
30
8.6
0
VERTEX
10
8.24284
20
10.3246
30
8.6
0
VERTEX
10
8.24553
20
10.3255
30
8.6
0
VERTEX
10
8.25091
20
10.3318
30
8.6
0
VERTEX
10
8.25271
20
10.3354
30
8.6
0
VERTEX
10
8.25271
20
10.3497
30
8.6
0
VERTEX
10
8.25271
20
10.3569
30
8.6
0
VERTEX
10
8.25181
20
10.3605
30
8.6
0
VERTEX
10
8.24374
20
10.373
30
8.6
0
VERTEX
10
8.24105
20
10.3802
30
8.6
0
VERTEX
10
8.2276
20
10.3919
30
8.6
0
VERTEX
10
8.21326
20
10.3919
30
8.6
0
VERTEX
10
8.19891
20
10.3874
30
8.6
0
VERTEX
10
8.19533
20
10.3865
30
8.6
0
VERTEX
10
8.18816
20
10.382
30
8.6
0
VERTEX
10
8.18636
20
10.3811
30
8.6
0
VERTEX
10
8.18457
20
10.3829
30
8.6
0
VERTEX
10
8.1774
20
10.3838
30
8.6
0
VERTEX
10
8.1756
20
10.3838
30
8.6
0
VERTEX
10
8.17381
20
10.391
30
8.6
0
VERTEX
10
8.17291
20
10.3946
30
8.6
0
VERTEX
10
8.17291
20
10.3963
30
8.6
0
VERTEX
10
8.17471
20
10.3972
30
8.6
0
VERTEX
10
8.1756
20
10.4116
30
8.6
0
VERTEX
10
8.17829
20
10.4188
30
8.6
0
VERTEX
10
8.17919
20
10.4223
30
8.6
0
VERTEX
10
8.18188
20
10.4259
30
8.6
0
VERTEX
10
8.18278
20
10.4403
30
8.6
0
VERTEX
10
8.18098
20
10.4475
30
8.6
0
VERTEX
10
8.18009
20
10.4492
30
8.6
0
VERTEX
10
8.17829
20
10.4492
30
8.6
0
VERTEX
10
8.17471
20
10.4528
30
8.6
0
VERTEX
10
8.16754
20
10.4555
30
8.6
0
VERTEX
10
8.15319
20
10.4564
30
8.6
0
VERTEX
10
8.14602
20
10.4582
30
8.6
0
VERTEX
10
8.14243
20
10.4582
30
8.6
0
VERTEX
10
8.14064
20
10.4582
30
8.6
0
VERTEX
10
8.13616
20
10.451
30
8.6
0
VERTEX
10
8.13167
20
10.4466
30
8.6
0
VERTEX
10
8.13167
20
10.4448
30
8.6
0
VERTEX
10
8.12809
20
10.4421
30
8.6
0
VERTEX
10
8.12809
20
10.4385
30
8.6
0
VERTEX
10
8.12809
20
10.4367
30
8.6
0
SEQEND
0
POLYLINE
62
227
66
1
70
1
3
endoplasmic_reticulum
0
VERTEX
10
8.05278
20
10.425
30
8.6
0
VERTEX
10
8.05367
20
10.4107
30
8.6
0
VERTEX
10
8.05367
20
10.4071
30
8.6
0
VERTEX
10
8.05636
20
10.3999
30
8.6
0
VERTEX
10
8.05726
20
10.3928
30
8.6
0
VERTEX
10
8.06174
20
10.3856
30
8.6
0
VERTEX
10
8.06174
20
10.3838
30
8.6
0
VERTEX
10
8.06533
20
10.3811
30
8.6
0
VERTEX
10
8.06712
20
10.3793
30
8.6
0
VERTEX
10
8.06891
20
10.3793
30
8.6
0
VERTEX
10
8.06891
20
10.3775
30
8.6
0
VERTEX
10
8.07429
20
10.3721
30
8.6
0
VERTEX
10
8.08057
20
10.3578
30
8.6
0
VERTEX
10
8.08326
20
10.3506
30
8.6
0
VERTEX
10
8.08416
20
10.347
30
8.6
0
VERTEX
10
8.08416
20
10.3452
30
8.6
0
VERTEX
10
8.08595
20
10.3435
30
8.6
0
VERTEX
10
8.08685
20
10.3363
30
8.6
0
VERTEX
10
8.09133
20
10.3219
30
8.6
0
VERTEX
10
8.09312
20
10.3183
30
8.6
0
VERTEX
10
8.09491
20
10.304
30
8.6
0
VERTEX
10
8.09671
20
10.3004
30
8.6
0
VERTEX
10
8.0976
20
10.2861
30
8.6
0
VERTEX
10
8.0976
20
10.2789
30
8.6
0
VERTEX
10
8.10029
20
10.2762
30
8.6
0
VERTEX
10
8.0994
20
10.2475
30
8.6
0
VERTEX
10
8.09581
20
10.2332
30
8.6
0
VERTEX
10
8.09043
20
10.2197
30
8.6
0
VERTEX
10
8.08954
20
10.2126
30
8.6
0
VERTEX
10
8.08954
20
10.209
30
8.6
0
VERTEX
10
8.08774
20
10.2054
30
8.6
0
VERTEX
10
8.08595
20
10.2045
30
8.6
0
VERTEX
10
8.08685
20
10.1901
30
8.6
0
VERTEX
10
8.08685
20
10.183
30
8.6
0
VERTEX
10
8.09223
20
10.1767
30
8.6
0
VERTEX
10
8.0994
20
10.1749
30
8.6
0
VERTEX
10
8.10657
20
10.1713
30
8.6
0
VERTEX
10
8.11374
20
10.1695
30
8.6
0
VERTEX
10
8.11733
20
10.1686
30
8.6
0
VERTEX
10
8.12091
20
10.1695
30
8.6
0
VERTEX
10
8.1236
20
10.1767
30
8.6
0
VERTEX
10
8.12271
20
10.2054
30
8.6
0
VERTEX
10
8.11733
20
10.2197
30
8.6
0
VERTEX
10
8.11554
20
10.2233
30
8.6
0
VERTEX
10
8.11643
20
10.252
30
8.6
0
VERTEX
10
8.11823
20
10.2663
30
8.6
0
VERTEX
10
8.11823
20
10.2681
30
8.6
0
VERTEX
10
8.12002
20
10.2699
30
8.6
0
VERTEX
10
8.11912
20
10.2843
30
8.6
0
VERTEX
10
8.12002
20
10.2915
30
8.6
0
VERTEX
10
8.11554
20
10.3058
30
8.6
0
VERTEX
10
8.11285
20
10.3201
30
8.6
0
VERTEX
10
8.11285
20
10.3219
30
8.6
0
VERTEX
10
8.11105
20
10.3237
30
8.6
0
VERTEX
10
8.10836
20
10.3524
30
8.6
0
VERTEX
10
8.10747
20
10.3668
30
8.6
0
VERTEX
10
8.10388
20
10.3811
30
8.6
0
VERTEX
10
8.0985
20
10.3955
30
8.6
0
VERTEX
10
8.0985
20
10.399
30
8.6
0
VERTEX
10
8.09402
20
10.4134
30
8.6
0
VERTEX
10
8.08774
20
10.4277
30
8.6
0
VERTEX
10
8.08326
20
10.4349
30
8.6
0
VERTEX
10
8.07698
20
10.4412
30
8.6
0
VERTEX
10
8.07609
20
10.443
30
8.6
0
VERTEX
10
8.06174
20
10.4394
30
8.6
0
VERTEX
10
8.05995
20
10.4394
30
8.6
0
VERTEX
10
8.05367
20
10.434
30
8.6
0
VERTEX
10
8.05278
20
10.4268
30
8.6
0
VERTEX
10
8.05278
20
10.4259
30
8.6
0
SEQEND
0
POLYLINE
62
227
66
1
70
1
3
endoplasmic_reticulum
0
VERTEX
10
8.21416
20
10.0234
30
8.6
0
VERTEX
10
8.21595
20
10.0198
30
8.6
0
VERTEX
10
8.21685
20
10.0126
30
8.6
0
VERTEX
10
8.22312
20
10.0064
30
8.6
0
VERTEX
10
8.22671
20
10.0064
30
8.6
0
VERTEX
10
8.2285
20
10.0064
30
8.6
0
VERTEX
10
8.23119
20
10.009
30
8.6
0
VERTEX
10
8.23119
20
10.0108
30
8.6
0
VERTEX
10
8.23657
20
10.0153
30
8.6
0
VERTEX
10
8.24195
20
10.0225
30
8.6
0
VERTEX
10
8.24553
20
10.0252
30
8.6
0
VERTEX
10
8.24822
20
10.0324
30
8.6
0
VERTEX
10
8.24822
20
10.0467
30
8.6
0
VERTEX
10
8.24822
20
10.0539
30
8.6
0
VERTEX
10
8.25091
20
10.0566
30
8.6
0
VERTEX
10
8.2554
20
10.07
30
8.6
0
VERTEX
10
8.25809
20
10.0772
30
8.6
0
VERTEX
10
8.25898
20
10.0844
30
8.6
0
VERTEX
10
8.25898
20
10.0879
30
8.6
0
VERTEX
10
8.26078
20
10.0915
30
8.6
0
VERTEX
10
8.26078
20
10.0933
30
8.6
0
VERTEX
10
8.26257
20
10.0951
30
8.6
0
VERTEX
10
8.26347
20
10.0987
30
8.6
0
VERTEX
10
8.26884
20
10.1059
30
8.6
0
VERTEX
10
8.27064
20
10.1095
30
8.6
0
VERTEX
10
8.27422
20
10.113
30
8.6
0
VERTEX
10
8.27512
20
10.1148
30
8.6
0
VERTEX
10
8.27691
20
10.1148
30
8.6
0
VERTEX
10
8.28229
20
10.1292
30
8.6
0
VERTEX
10
8.28498
20
10.1328
30
8.6
0
VERTEX
10
8.28947
20
10.1471
30
8.6
0
VERTEX
10
8.29036
20
10.1615
30
8.6
0
VERTEX
10
8.28947
20
10.1686
30
8.6
0
VERTEX
10
8.28767
20
10.1722
30
8.6
0
VERTEX
10
8.28767
20
10.174
30
8.6
0
VERTEX
10
8.27512
20
10.1866
30
8.6
0
VERTEX
10
8.27153
20
10.1883
30
8.6
0
VERTEX
10
8.26436
20
10.1892
30
8.6
0
VERTEX
10
8.25271
20
10.1767
30
8.6
0
VERTEX
10
8.24643
20
10.1695
30
8.6
0
VERTEX
10
8.24374
20
10.1677
30
8.6
0
VERTEX
10
8.24105
20
10.1606
30
8.6
0
VERTEX
10
8.24105
20
10.157
30
8.6
0
VERTEX
10
8.23836
20
10.1498
30
8.6
0
VERTEX
10
8.23567
20
10.1462
30
8.6
0
VERTEX
10
8.23478
20
10.1319
30
8.6
0
VERTEX
10
8.23478
20
10.1247
30
8.6
0
VERTEX
10
8.23478
20
10.1211
30
8.6
0
VERTEX
10
8.23298
20
10.1175
30
8.6
0
VERTEX
10
8.23119
20
10.1032
30
8.6
0
VERTEX
10
8.22581
20
10.0888
30
8.6
0
VERTEX
10
8.22402
20
10.0852
30
8.6
0
VERTEX
10
8.22312
20
10.0781
30
8.6
0
VERTEX
10
8.22222
20
10.0745
30
8.6
0
VERTEX
10
8.22043
20
10.0727
30
8.6
0
VERTEX
10
8.21864
20
10.0584
30
8.6
0
VERTEX
10
8.21864
20
10.0566
30
8.6
0
VERTEX
10
8.21685
20
10.0548
30
8.6
0
VERTEX
10
8.21595
20
10.0404
30
8.6
0
VERTEX
10
8.21416
20
10.0368
30
8.6
0
VERTEX
10
8.21416
20
10.0297
30
8.6
0
VERTEX
10
8.21416
20
10.0261
30
8.6
0
VERTEX
10
8.21416
20
10.0243
30
8.6
0
SEQEND
0
POLYLINE
62
227
66
1
70
1
3
endoplasmic_reticulum
0
VERTEX
10
8.03216
20
10.0852
30
8.6
0
VERTEX
10
8.03664
20
10.0709
30
8.6
0
VERTEX
10
8.03933
20
10.0637
30
8.6
0
VERTEX
10
8.04202
20
10.0601
30
8.6
0
VERTEX
10
8.04829
20
10.0557
30
8.6
0
VERTEX
10
8.05188
20
10.053
30
8.6
0
VERTEX
10
8.05367
20
10.0512
30
8.6
0
VERTEX
10
8.06802
20
10.0503
30
8.6
0
VERTEX
10
8.08236
20
10.0512
30
8.6
0
VERTEX
10
8.08954
20
10.0512
30
8.6
0
VERTEX
10
8.09312
20
10.0521
30
8.6
0
VERTEX
10
8.10029
20
10.0584
30
8.6
0
VERTEX
10
8.10388
20
10.0601
30
8.6
0
VERTEX
10
8.11195
20
10.0682
30
8.6
0
VERTEX
10
8.11823
20
10.0745
30
8.6
0
VERTEX
10
8.12002
20
10.0745
30
8.6
0
VERTEX
10
8.12091
20
10.0781
30
8.6
0
VERTEX
10
8.1236
20
10.0808
30
8.6
0
VERTEX
10
8.13078
20
10.0808
30
8.6
0
VERTEX
10
8.13705
20
10.0763
30
8.6
0
VERTEX
10
8.14422
20
10.0763
30
8.6
0
VERTEX
10
8.1505
20
10.0826
30
8.6
0
VERTEX
10
8.15767
20
10.087
30
8.6
0
VERTEX
10
8.16126
20
10.0888
30
8.6
0
VERTEX
10
8.16843
20
10.0951
30
8.6
0
VERTEX
10
8.18278
20
10.1032
30
8.6
0
VERTEX
10
8.18636
20
10.1041
30
8.6
0
VERTEX
10
8.19085
20
10.1104
30
8.6
0
VERTEX
10
8.19353
20
10.1175
30
8.6
0
VERTEX
10
8.19353
20
10.1211
30
8.6
0
VERTEX
10
8.19174
20
10.1247
30
8.6
0
VERTEX
10
8.19174
20
10.1265
30
8.6
0
VERTEX
10
8.18636
20
10.1337
30
8.6
0
VERTEX
10
8.18457
20
10.1372
30
8.6
0
VERTEX
10
8.18278
20
10.139
30
8.6
0
VERTEX
10
8.18098
20
10.1462
30
8.6
0
VERTEX
10
8.17112
20
10.1588
30
8.6
0
VERTEX
10
8.16574
20
10.165
30
8.6
0
VERTEX
10
8.16216
20
10.1686
30
8.6
0
VERTEX
10
8.16216
20
10.1704
30
8.6
0
VERTEX
10
8.14781
20
10.1722
30
8.6
0
VERTEX
10
8.14064
20
10.1731
30
8.6
0
VERTEX
10
8.13705
20
10.1704
30
8.6
0
VERTEX
10
8.13347
20
10.1695
30
8.6
0
VERTEX
10
8.12719
20
10.1632
30
8.6
0
VERTEX
10
8.11912
20
10.1346
30
8.6
0
VERTEX
10
8.11643
20
10.131
30
8.6
0
VERTEX
10
8.11554
20
10.1274
30
8.6
0
VERTEX
10
8.10926
20
10.1229
30
8.6
0
VERTEX
10
8.10567
20
10.1247
30
8.6
0
VERTEX
10
8.0994
20
10.1319
30
8.6
0
VERTEX
10
8.09581
20
10.1346
30
8.6
0
VERTEX
10
8.08147
20
10.1337
30
8.6
0
VERTEX
10
8.07788
20
10.131
30
8.6
0
VERTEX
10
8.07429
20
10.1301
30
8.6
0
VERTEX
10
8.0734
20
10.1283
30
8.6
0
VERTEX
10
8.06981
20
10.1274
30
8.6
0
VERTEX
10
8.06802
20
10.1274
30
8.6
0
VERTEX
10
8.06533
20
10.1247
30
8.6
0
VERTEX
10
8.05816
20
10.1229
30
8.6
0
VERTEX
10
8.05457
20
10.1211
30
8.6
0
VERTEX
10
8.05278
20
10.1211
30
8.6
0
VERTEX
10
8.0456
20
10.1166
30
8.6
0
VERTEX
10
8.04292
20
10.113
30
8.6
0
VERTEX
10
8.03664
20
10.1086
30
8.6
0
VERTEX
10
8.03485
20
10.105
30
8.6
0
VERTEX
10
8.03485
20
10.1032
30
8.6
0
VERTEX
10
8.03305
20
10.1014
30
8.6
0
VERTEX
10
8.03216
20
10.087
30
8.6
0
VERTEX
10
8.03216
20
10.0861
30
8.6
0
SEQEND
0
POLYLINE
62
227
66
1
70
1
3
endoplasmic_reticulum
0
VERTEX
10
7.71299
20
10.1301
30
8.6
0
VERTEX
10
7.71657
20
10.1229
30
8.6
0
VERTEX
10
7.72195
20
10.1175
30
8.6
0
VERTEX
10
7.72195
20
10.1139
30
8.6
0
VERTEX
10
7.72374
20
10.1112
30
8.6
0
VERTEX
10
7.73092
20
10.1059
30
8.6
0
VERTEX
10
7.73361
20
10.1032
30
8.6
0
VERTEX
10
7.74078
20
10.1005
30
8.6
0
VERTEX
10
7.75512
20
10.1005
30
8.6
0
VERTEX
10
7.76947
20
10.0978
30
8.6
0
VERTEX
10
7.77664
20
10.0942
30
8.6
0
VERTEX
10
7.79009
20
10.0826
30
8.6
0
VERTEX
10
7.79726
20
10.0781
30
8.6
0
VERTEX
10
7.80085
20
10.0745
30
8.6
0
VERTEX
10
7.81519
20
10.0664
30
8.6
0
VERTEX
10
7.82236
20
10.0646
30
8.6
0
VERTEX
10
7.82416
20
10.0646
30
8.6
0
VERTEX
10
7.82595
20
10.0628
30
8.6
0
VERTEX
10
7.83312
20
10.0601
30
8.6
0
VERTEX
10
7.84747
20
10.0592
30
8.6
0
VERTEX
10
7.85464
20
10.0584
30
8.6
0
VERTEX
10
7.85643
20
10.0584
30
8.6
0
VERTEX
10
7.86002
20
10.0557
30
8.6
0
VERTEX
10
7.86361
20
10.0557
30
8.6
0
VERTEX
10
7.86988
20
10.053
30
8.6
0
VERTEX
10
7.87705
20
10.0467
30
8.6
0
VERTEX
10
7.88064
20
10.0431
30
8.6
0
VERTEX
10
7.88692
20
10.0404
30
8.6
0
VERTEX
10
7.88961
20
10.0386
30
8.6
0
VERTEX
10
7.90754
20
10.0108
30
8.6
0
VERTEX
10
7.90843
20
9.99649
30
8.6
0
VERTEX
10
7.90933
20
9.98932
30
8.6
0
VERTEX
10
7.91202
20
9.98214
30
8.6
0
VERTEX
10
7.91471
20
9.97856
30
8.6
0
VERTEX
10
7.92188
20
9.97766
30
8.6
0
VERTEX
10
7.92816
20
9.97497
30
8.6
0
VERTEX
10
7.93174
20
9.97766
30
8.6
0
VERTEX
10
7.93533
20
9.97856
30
8.6
0
VERTEX
10
7.93892
20
9.98214
30
8.6
0
VERTEX
10
7.94071
20
9.98483
30
8.6
0
VERTEX
10
7.95416
20
9.9938
30
8.6
0
VERTEX
10
7.96043
20
9.99828
30
8.6
0
VERTEX
10
7.96402
20
10.001
30
8.6
0
VERTEX
10
7.97119
20
10.0028
30
8.6
0
VERTEX
10
7.97478
20
10.0046
30
8.6
0
VERTEX
10
7.97836
20
10.0046
30
8.6
0
VERTEX
10
7.98554
20
10.0072
30
8.6
0
VERTEX
10
7.98912
20
10.0081
30
8.6
0
VERTEX
10
7.99271
20
10.0117
30
8.6
0
VERTEX
10
7.99988
20
10.0126
30
8.6
0
VERTEX
10
8.01423
20
10.0108
30
8.6
0
VERTEX
10
8.02857
20
10.0108
30
8.6
0
VERTEX
10
8.04292
20
10.0126
30
8.6
0
VERTEX
10
8.05009
20
10.0135
30
8.6
0
VERTEX
10
8.05726
20
10.0162
30
8.6
0
VERTEX
10
8.06443
20
10.0162
30
8.6
0
VERTEX
10
8.06623
20
10.018
30
8.6
0
VERTEX
10
8.08057
20
10.0189
30
8.6
0
VERTEX
10
8.10926
20
10.0171
30
8.6
0
VERTEX
10
8.1236
20
10.0144
30
8.6
0
VERTEX
10
8.13795
20
10.0144
30
8.6
0
VERTEX
10
8.14512
20
10.0153
30
8.6
0
VERTEX
10
8.15229
20
10.018
30
8.6
0
VERTEX
10
8.15588
20
10.018
30
8.6
0
VERTEX
10
8.16305
20
10.0225
30
8.6
0
VERTEX
10
8.17022
20
10.0252
30
8.6
0
VERTEX
10
8.17202
20
10.0252
30
8.6
0
VERTEX
10
8.1756
20
10.0279
30
8.6
0
VERTEX
10
8.1774
20
10.0297
30
8.6
0
VERTEX
10
8.1774
20
10.0315
30
8.6
0
VERTEX
10
8.18098
20
10.035
30
8.6
0
VERTEX
10
8.18278
20
10.0386
30
8.6
0
VERTEX
10
8.18457
20
10.0404
30
8.6
0
VERTEX
10
8.18636
20
10.0476
30
8.6
0
VERTEX
10
8.18726
20
10.0619
30
8.6
0
VERTEX
10
8.18726
20
10.0655
30
8.6
0
VERTEX
10
8.18367
20
10.0727
30
8.6
0
VERTEX
10
8.18098
20
10.0754
30
8.6
0
VERTEX
10
8.18098
20
10.0772
30
8.6
0
VERTEX
10
8.17919
20
10.079
30
8.6
0
VERTEX
10
8.1774
20
10.079
30
8.6
0
VERTEX
10
8.1756
20
10.0808
30
8.6
0
VERTEX
10
8.16843
20
10.0817
30
8.6
0
VERTEX
10
8.16485
20
10.0835
30
8.6
0
VERTEX
10
8.15767
20
10.0844
30
8.6
0
VERTEX
10
8.15409
20
10.0852
30
8.6
0
VERTEX
10
8.13974
20
10.0844
30
8.6
0
VERTEX
10
8.13257
20
10.0835
30
8.6
0
VERTEX
10
8.1254
20
10.0799
30
8.6
0
VERTEX
10
8.12002
20
10.0754
30
8.6
0
VERTEX
10
8.11285
20
10.0709
30
8.6
0
VERTEX
10
8.10926
20
10.0682
30
8.6
0
VERTEX
10
8.10747
20
10.0682
30
8.6
0
VERTEX
10
8.10388
20
10.0655
30
8.6
0
VERTEX
10
8.10029
20
10.0646
30
8.6
0
VERTEX
10
8.0985
20
10.0646
30
8.6
0
VERTEX
10
8.09671
20
10.0628
30
8.6
0
VERTEX
10
8.08236
20
10.061
30
8.6
0
VERTEX
10
8.07519
20
10.0584
30
8.6
0
VERTEX
10
8.0716
20
10.0575
30
8.6
0
VERTEX
10
8.06533
20
10.053
30
8.6
0
VERTEX
10
8.05098
20
10.0521
30
8.6
0
VERTEX
10
8.0474
20
10.0521
30
8.6
0
VERTEX
10
8.04381
20
10.0539
30
8.6
0
VERTEX
10
8.03754
20
10.061
30
8.6
0
VERTEX
10
8.02947
20
10.0745
30
8.6
0
VERTEX
10
8.02857
20
10.0781
30
8.6
0
VERTEX
10
8.01781
20
10.0897
30
8.6
0
VERTEX
10
8.00526
20
10.0996
30
8.6
0
VERTEX
10
7.99809
20
10.0996
30
8.6
0
VERTEX
10
7.99629
20
10.1014
30
8.6
0
VERTEX
10
7.98195
20
10.1032
30
8.6
0
VERTEX
10
7.96761
20
10.1023
30
8.6
0
VERTEX
10
7.96043
20
10.0978
30
8.6
0
VERTEX
10
7.95326
20
10.0978
30
8.6
0
VERTEX
10
7.94967
20
10.0969
30
8.6
0
VERTEX
10
7.94878
20
10.0951
30
8.6
0
VERTEX
10
7.94161
20
10.0933
30
8.6
0
VERTEX
10
7.91292
20
10.0933
30
8.6
0
VERTEX
10
7.89857
20
10.0951
30
8.6
0
VERTEX
10
7.8914
20
10.0978
30
8.6
0
VERTEX
10
7.88423
20
10.0987
30
8.6
0
VERTEX
10
7.87705
20
10.1014
30
8.6
0
VERTEX
10
7.87436
20
10.1041
30
8.6
0
VERTEX
10
7.86719
20
10.1059
30
8.6
0
VERTEX
10
7.8654
20
10.1077
30
8.6
0
VERTEX
10
7.85823
20
10.1095
30
8.6
0
VERTEX
10
7.85195
20
10.113
30
8.6
0
VERTEX
10
7.84478
20
10.1148
30
8.6
0
VERTEX
10
7.83761
20
10.1148
30
8.6
0
VERTEX
10
7.83043
20
10.1166
30
8.6
0
VERTEX
10
7.81609
20
10.1157
30
8.6
0
VERTEX
10
7.80892
20
10.1166
30
8.6
0
VERTEX
10
7.80174
20
10.1193
30
8.6
0
VERTEX
10
7.79547
20
10.1238
30
8.6
0
VERTEX
10
7.79188
20
10.1256
30
8.6
0
VERTEX
10
7.79099
20
10.1274
30
8.6
0
VERTEX
10
7.78919
20
10.1274
30
8.6
0
VERTEX
10
7.77485
20
10.1364
30
8.6
0
VERTEX
10
7.77216
20
10.139
30
8.6
0
VERTEX
10
7.76857
20
10.1399
30
8.6
0
VERTEX
10
7.7623
20
10.1462
30
8.6
0
VERTEX
10
7.7605
20
10.1462
30
8.6
0
VERTEX
10
7.75871
20
10.1489
30
8.6
0
VERTEX
10
7.75154
20
10.1498
30
8.6
0
VERTEX
10
7.74795
20
10.1489
30
8.6
0
VERTEX
10
7.74705
20
10.1471
30
8.6
0
VERTEX
10
7.73271
20
10.1462
30
8.6
0
VERTEX
10
7.72554
20
10.1453
30
8.6
0
VERTEX
10
7.71837
20
10.1408
30
8.6
0
VERTEX
10
7.71568
20
10.139
30
8.6
0
VERTEX
10
7.71299
20
10.1355
30
8.6
0
VERTEX
10
7.71299
20
10.1319
30
8.6
0
VERTEX
10
7.71299
20
10.131
30
8.6
0
SEQEND
0
POLYLINE
62
236
66
1
70
1
3
postsynaptic_density
0
VERTEX
10
7.25716
20
9.44036
30
8.6
0
VERTEX
10
7.25852
20
9.43492
30
8.6
0
VERTEX
10
7.2626
20
9.42949
30
8.6
0
VERTEX
10
7.26804
20
9.42745
30
8.6
0
VERTEX
10
7.27348
20
9.42677
30
8.6
0
VERTEX
10
7.27891
20
9.42473
30
8.6
0
VERTEX
10
7.28163
20
9.42473
30
8.6
0
VERTEX
10
7.28707
20
9.42269
30
8.6
0
VERTEX
10
7.30882
20
9.42065
30
8.6
0
VERTEX
10
7.31426
20
9.41997
30
8.6
0
VERTEX
10
7.3197
20
9.41793
30
8.6
0
VERTEX
10
7.32174
20
9.41589
30
8.6
0
VERTEX
10
7.32717
20
9.41385
30
8.6
0
VERTEX
10
7.32989
20
9.41385
30
8.6
0
VERTEX
10
7.33533
20
9.41114
30
8.6
0
VERTEX
10
7.33805
20
9.41114
30
8.6
0
VERTEX
10
7.34349
20
9.40774
30
8.6
0
VERTEX
10
7.34892
20
9.4057
30
8.6
0
VERTEX
10
7.35436
20
9.4023
30
8.6
0
VERTEX
10
7.37611
20
9.39346
30
8.6
0
VERTEX
10
7.37747
20
9.39346
30
8.6
0
VERTEX
10
7.37883
20
9.3921
30
8.6
0
VERTEX
10
7.38155
20
9.3921
30
8.6
0
VERTEX
10
7.38427
20
9.39074
30
8.6
0
VERTEX
10
7.38699
20
9.39074
30
8.6
0
VERTEX
10
7.39786
20
9.38735
30
8.6
0
VERTEX
10
7.40874
20
9.38599
30
8.6
0
VERTEX
10
7.43049
20
9.38531
30
8.6
0
VERTEX
10
7.43321
20
9.38531
30
8.6
0
VERTEX
10
7.43864
20
9.38259
30
8.6
0
VERTEX
10
7.44952
20
9.38259
30
8.6
0
VERTEX
10
7.45496
20
9.38327
30
8.6
0
VERTEX
10
7.46039
20
9.38531
30
8.6
0
VERTEX
10
7.46311
20
9.38599
30
8.6
0
VERTEX
10
7.46583
20
9.38803
30
8.6
0
VERTEX
10
7.46583
20
9.3989
30
8.6
0
VERTEX
10
7.46651
20
9.40434
30
8.6
0
VERTEX
10
7.46651
20
9.4057
30
8.6
0
VERTEX
10
7.46787
20
9.40638
30
8.6
0
VERTEX
10
7.46855
20
9.41181
30
8.6
0
VERTEX
10
7.47059
20
9.41453
30
8.6
0
VERTEX
10
7.47127
20
9.42541
30
8.6
0
VERTEX
10
7.47127
20
9.43085
30
8.6
0
VERTEX
10
7.47399
20
9.44172
30
8.6
0
VERTEX
10
7.47467
20
9.46347
30
8.6
0
VERTEX
10
7.47467
20
9.47435
30
8.6
0
VERTEX
10
7.47671
20
9.4961
30
8.6
0
VERTEX
10
7.48079
20
9.51785
30
8.6
0
VERTEX
10
7.48486
20
9.52872
30
8.6
0
VERTEX
10
7.48554
20
9.5396
30
8.6
0
VERTEX
10
7.48418
20
9.54504
30
8.6
0
VERTEX
10
7.48418
20
9.56679
30
8.6
0
VERTEX
10
7.48418
20
9.57766
30
8.6
0
VERTEX
10
7.48418
20
9.58038
30
8.6
0
VERTEX
10
7.48146
20
9.58242
30
8.6
0
VERTEX
10
7.30746
20
9.6368
30
8.6
0
VERTEX
10
7.29659
20
9.64019
30
8.6
0
VERTEX
10
7.29523
20
9.64019
30
8.6
0
VERTEX
10
7.28775
20
9.61912
30
8.6
0
VERTEX
10
7.28707
20
9.6164
30
8.6
0
VERTEX
10
7.28707
20
9.61505
30
8.6
0
VERTEX
10
7.28571
20
9.61369
30
8.6
0
VERTEX
10
7.28367
20
9.60281
30
8.6
0
VERTEX
10
7.28231
20
9.60009
30
8.6
0
VERTEX
10
7.28095
20
9.58922
30
8.6
0
VERTEX
10
7.27823
20
9.57834
30
8.6
0
VERTEX
10
7.27688
20
9.57562
30
8.6
0
VERTEX
10
7.27144
20
9.57154
30
8.6
0
VERTEX
10
7.266
20
9.56067
30
8.6
0
VERTEX
10
7.26464
20
9.51717
30
8.6
0
VERTEX
10
7.26328
20
9.50629
30
8.6
0
VERTEX
10
7.2626
20
9.50086
30
8.6
0
VERTEX
10
7.25852
20
9.4961
30
8.6
0
VERTEX
10
7.25716
20
9.49338
30
8.6
0
VERTEX
10
7.25716
20
9.44988
30
8.6
0
VERTEX
10
7.25716
20
9.44444
30
8.6
0
VERTEX
10
7.25716
20
9.44172
30
8.6
0
VERTEX
10
7.25716
20
9.44104
30
8.6
0
SEQEND
0
ENDSEC
0
EOF
