0
SECTION
2
ENTITIES
0
POLYLINE
62
31
66
1
70
1
3
contour
0
VERTEX
10
7.23894
20
11.0082
30
8.4
0
VERTEX
10
7.24882
20
10.9983
30
8.4
0
VERTEX
10
7.2554
20
10.995
30
8.4
0
VERTEX
10
7.2554
20
10.9884
30
8.4
0
VERTEX
10
7.28174
20
10.972
30
8.4
0
VERTEX
10
7.30807
20
10.9621
30
8.4
0
VERTEX
10
7.31466
20
10.9621
30
8.4
0
VERTEX
10
7.32783
20
10.9522
30
8.4
0
VERTEX
10
7.34099
20
10.9489
30
8.4
0
VERTEX
10
7.38708
20
10.9061
30
8.4
0
VERTEX
10
7.39037
20
10.8996
30
8.4
0
VERTEX
10
7.39696
20
10.8996
30
8.4
0
VERTEX
10
7.41012
20
10.8864
30
8.4
0
VERTEX
10
7.4628
20
10.8732
30
8.4
0
VERTEX
10
7.51547
20
10.8699
30
8.4
0
VERTEX
10
7.52863
20
10.8699
30
8.4
0
VERTEX
10
7.53522
20
10.8765
30
8.4
0
VERTEX
10
7.5418
20
10.8765
30
8.4
0
VERTEX
10
7.55497
20
10.8864
30
8.4
0
VERTEX
10
7.56814
20
10.8864
30
8.4
0
VERTEX
10
7.57801
20
10.8996
30
8.4
0
VERTEX
10
7.58789
20
10.9259
30
8.4
0
VERTEX
10
7.60764
20
10.9457
30
8.4
0
VERTEX
10
7.61752
20
10.972
30
8.4
0
VERTEX
10
7.62081
20
10.9852
30
8.4
0
VERTEX
10
7.61093
20
11.0115
30
8.4
0
VERTEX
10
7.60764
20
11.0247
30
8.4
0
VERTEX
10
7.59447
20
11.0345
30
8.4
0
VERTEX
10
7.59447
20
11.0411
30
8.4
0
VERTEX
10
7.56814
20
11.0675
30
8.4
0
VERTEX
10
7.55497
20
11.0905
30
8.4
0
VERTEX
10
7.5418
20
11.1432
30
8.4
0
VERTEX
10
7.51876
20
11.1662
30
8.4
0
VERTEX
10
7.49571
20
11.1827
30
8.4
0
VERTEX
10
7.46938
20
11.1893
30
8.4
0
VERTEX
10
7.36404
20
11.1925
30
8.4
0
VERTEX
10
7.35087
20
11.1925
30
8.4
0
VERTEX
10
7.32453
20
11.1794
30
8.4
0
VERTEX
10
7.2982
20
11.1761
30
8.4
0
VERTEX
10
7.26199
20
11.1267
30
8.4
0
VERTEX
10
7.24882
20
11.074
30
8.4
0
VERTEX
10
7.24553
20
11.0609
30
8.4
0
VERTEX
10
7.24553
20
11.0543
30
8.4
0
VERTEX
10
7.23894
20
11.0477
30
8.4
0
VERTEX
10
7.23894
20
11.0214
30
8.4
0
VERTEX
10
7.23894
20
11.0115
30
8.4
0
SEQEND
0
POLYLINE
62
31
66
1
70
1
3
contour
0
VERTEX
10
7.2985
20
9.56296
30
8.4
0
VERTEX
10
7.3002
20
9.54931
30
8.4
0
VERTEX
10
7.3002
20
9.54248
30
8.4
0
VERTEX
10
7.30874
20
9.53054
30
8.4
0
VERTEX
10
7.31215
20
9.52713
30
8.4
0
VERTEX
10
7.31386
20
9.5203
30
8.4
0
VERTEX
10
7.31727
20
9.51859
30
8.4
0
VERTEX
10
7.31727
20
9.51518
30
8.4
0
VERTEX
10
7.33092
20
9.50665
30
8.4
0
VERTEX
10
7.33433
20
9.50323
30
8.4
0
VERTEX
10
7.34116
20
9.50323
30
8.4
0
VERTEX
10
7.34799
20
9.50665
30
8.4
0
VERTEX
10
7.36164
20
9.50665
30
8.4
0
VERTEX
10
7.37529
20
9.51006
30
8.4
0
VERTEX
10
7.38211
20
9.51518
30
8.4
0
VERTEX
10
7.38894
20
9.51518
30
8.4
0
VERTEX
10
7.39235
20
9.51859
30
8.4
0
VERTEX
10
7.39577
20
9.51859
30
8.4
0
VERTEX
10
7.39918
20
9.52201
30
8.4
0
VERTEX
10
7.40259
20
9.52201
30
8.4
0
VERTEX
10
7.40942
20
9.52713
30
8.4
0
VERTEX
10
7.42307
20
9.52883
30
8.4
0
VERTEX
10
7.42989
20
9.52883
30
8.4
0
VERTEX
10
7.43672
20
9.53224
30
8.4
0
VERTEX
10
7.45037
20
9.53224
30
8.4
0
VERTEX
10
7.46402
20
9.53566
30
8.4
0
VERTEX
10
7.47768
20
9.53566
30
8.4
0
VERTEX
10
7.49133
20
9.53907
30
8.4
0
VERTEX
10
7.60054
20
9.54078
30
8.4
0
VERTEX
10
7.65515
20
9.54248
30
8.4
0
VERTEX
10
7.68245
20
9.54248
30
8.4
0
VERTEX
10
7.6961
20
9.5476
30
8.4
0
VERTEX
10
7.70293
20
9.55102
30
8.4
0
VERTEX
10
7.70805
20
9.55784
30
8.4
0
VERTEX
10
7.72852
20
9.61245
30
8.4
0
VERTEX
10
7.73364
20
9.63975
30
8.4
0
VERTEX
10
7.73364
20
9.66705
30
8.4
0
VERTEX
10
7.73023
20
9.69436
30
8.4
0
VERTEX
10
7.7217
20
9.72166
30
8.4
0
VERTEX
10
7.71658
20
9.72849
30
8.4
0
VERTEX
10
7.71658
20
9.7319
30
8.4
0
VERTEX
10
7.70634
20
9.74384
30
8.4
0
VERTEX
10
7.69951
20
9.75579
30
8.4
0
VERTEX
10
7.6944
20
9.76262
30
8.4
0
VERTEX
10
7.6944
20
9.76603
30
8.4
0
VERTEX
10
7.68928
20
9.77285
30
8.4
0
VERTEX
10
7.68586
20
9.78651
30
8.4
0
VERTEX
10
7.67904
20
9.79333
30
8.4
0
VERTEX
10
7.67562
20
9.79674
30
8.4
0
VERTEX
10
7.66197
20
9.79845
30
8.4
0
VERTEX
10
7.64832
20
9.80357
30
8.4
0
VERTEX
10
7.62102
20
9.80698
30
8.4
0
VERTEX
10
7.56641
20
9.80528
30
8.4
0
VERTEX
10
7.55276
20
9.80357
30
8.4
0
VERTEX
10
7.49815
20
9.80869
30
8.4
0
VERTEX
10
7.47085
20
9.8104
30
8.4
0
VERTEX
10
7.46402
20
9.8104
30
8.4
0
VERTEX
10
7.46061
20
9.8104
30
8.4
0
VERTEX
10
7.4572
20
9.80698
30
8.4
0
VERTEX
10
7.42989
20
9.80698
30
8.4
0
VERTEX
10
7.42307
20
9.80698
30
8.4
0
VERTEX
10
7.41624
20
9.80357
30
8.4
0
VERTEX
10
7.40259
20
9.80186
30
8.4
0
VERTEX
10
7.39747
20
9.79674
30
8.4
0
VERTEX
10
7.38382
20
9.79333
30
8.4
0
VERTEX
10
7.37017
20
9.78309
30
8.4
0
VERTEX
10
7.36505
20
9.77797
30
8.4
0
VERTEX
10
7.36505
20
9.77456
30
8.4
0
VERTEX
10
7.35993
20
9.76944
30
8.4
0
VERTEX
10
7.3514
20
9.74384
30
8.4
0
VERTEX
10
7.33604
20
9.71654
30
8.4
0
VERTEX
10
7.3258
20
9.70289
30
8.4
0
VERTEX
10
7.32239
20
9.69606
30
8.4
0
VERTEX
10
7.32239
20
9.69265
30
8.4
0
VERTEX
10
7.31898
20
9.69094
30
8.4
0
VERTEX
10
7.31727
20
9.68412
30
8.4
0
VERTEX
10
7.30874
20
9.67047
30
8.4
0
VERTEX
10
7.30532
20
9.66364
30
8.4
0
VERTEX
10
7.30362
20
9.64999
30
8.4
0
VERTEX
10
7.30191
20
9.64316
30
8.4
0
VERTEX
10
7.2985
20
9.63975
30
8.4
0
VERTEX
10
7.2985
20
9.58514
30
8.4
0
VERTEX
10
7.2985
20
9.57149
30
8.4
0
VERTEX
10
7.2985
20
9.56467
30
8.4
0
SEQEND
0
POLYLINE
62
224
66
1
70
1
3
mitochondrion
0
VERTEX
10
7.82673
20
10.1654
30
8.4
0
VERTEX
10
7.8309
20
10.1557
30
8.4
0
VERTEX
10
7.83785
20
10.1446
30
8.4
0
VERTEX
10
7.84342
20
10.139
30
8.4
0
VERTEX
10
7.8462
20
10.1335
30
8.4
0
VERTEX
10
7.89069
20
10.1043
30
8.4
0
VERTEX
10
7.89625
20
10.1015
30
8.4
0
VERTEX
10
7.90737
20
10.0917
30
8.4
0
VERTEX
10
7.91294
20
10.0903
30
8.4
0
VERTEX
10
7.9185
20
10.0862
30
8.4
0
VERTEX
10
7.94075
20
10.0792
30
8.4
0
VERTEX
10
7.98524
20
10.0778
30
8.4
0
VERTEX
10
8.02973
20
10.0792
30
8.4
0
VERTEX
10
8.05198
20
10.0862
30
8.4
0
VERTEX
10
8.0631
20
10.0931
30
8.4
0
VERTEX
10
8.06866
20
10.0959
30
8.4
0
VERTEX
10
8.07145
20
10.0987
30
8.4
0
VERTEX
10
8.07145
20
10.1015
30
8.4
0
VERTEX
10
8.07701
20
10.1043
30
8.4
0
VERTEX
10
8.09508
20
10.1237
30
8.4
0
VERTEX
10
8.1076
20
10.1335
30
8.4
0
VERTEX
10
8.1076
20
10.1362
30
8.4
0
VERTEX
10
8.11177
20
10.1404
30
8.4
0
VERTEX
10
8.11316
20
10.146
30
8.4
0
VERTEX
10
8.11316
20
10.1487
30
8.4
0
VERTEX
10
8.11594
20
10.1515
30
8.4
0
VERTEX
10
8.11594
20
10.1543
30
8.4
0
VERTEX
10
8.12011
20
10.1585
30
8.4
0
VERTEX
10
8.12289
20
10.1599
30
8.4
0
VERTEX
10
8.12289
20
10.1821
30
8.4
0
VERTEX
10
8.12289
20
10.1932
30
8.4
0
VERTEX
10
8.12011
20
10.2044
30
8.4
0
VERTEX
10
8.12011
20
10.2099
30
8.4
0
VERTEX
10
8.12011
20
10.2127
30
8.4
0
VERTEX
10
8.11733
20
10.2155
30
8.4
0
VERTEX
10
8.11594
20
10.2266
30
8.4
0
VERTEX
10
8.11594
20
10.2322
30
8.4
0
VERTEX
10
8.11177
20
10.2433
30
8.4
0
VERTEX
10
8.09786
20
10.2655
30
8.4
0
VERTEX
10
8.08813
20
10.2753
30
8.4
0
VERTEX
10
8.08118
20
10.285
30
8.4
0
VERTEX
10
8.07562
20
10.2906
30
8.4
0
VERTEX
10
8.07145
20
10.2934
30
8.4
0
VERTEX
10
8.06866
20
10.2989
30
8.4
0
VERTEX
10
8.05893
20
10.3059
30
8.4
0
VERTEX
10
8.05059
20
10.3156
30
8.4
0
VERTEX
10
8.03251
20
10.3281
30
8.4
0
VERTEX
10
8.02139
20
10.3337
30
8.4
0
VERTEX
10
7.99914
20
10.3392
30
8.4
0
VERTEX
10
7.98802
20
10.3406
30
8.4
0
VERTEX
10
7.98246
20
10.3434
30
8.4
0
VERTEX
10
7.96021
20
10.3434
30
8.4
0
VERTEX
10
7.95465
20
10.3406
30
8.4
0
VERTEX
10
7.9324
20
10.3406
30
8.4
0
VERTEX
10
7.91016
20
10.3337
30
8.4
0
VERTEX
10
7.88791
20
10.3295
30
8.4
0
VERTEX
10
7.87679
20
10.3281
30
8.4
0
VERTEX
10
7.86705
20
10.3212
30
8.4
0
VERTEX
10
7.8601
20
10.31
30
8.4
0
VERTEX
10
7.85454
20
10.3045
30
8.4
0
VERTEX
10
7.85037
20
10.2947
30
8.4
0
VERTEX
10
7.83785
20
10.2739
30
8.4
0
VERTEX
10
7.83646
20
10.2683
30
8.4
0
VERTEX
10
7.83229
20
10.2642
30
8.4
0
VERTEX
10
7.8309
20
10.253
30
8.4
0
VERTEX
10
7.83229
20
10.2475
30
8.4
0
VERTEX
10
7.82812
20
10.2405
30
8.4
0
VERTEX
10
7.82673
20
10.196
30
8.4
0
VERTEX
10
7.82673
20
10.1738
30
8.4
0
VERTEX
10
7.82673
20
10.1682
30
8.4
0
VERTEX
10
7.82673
20
10.1668
30
8.4
0
SEQEND
0
POLYLINE
62
236
66
1
70
1
3
postsynaptic_density
0
VERTEX
10
7.21485
20
11.0929
30
8.4
0
VERTEX
10
7.22418
20
11.0779
30
8.4
0
VERTEX
10
7.23164
20
11.0761
30
8.4
0
VERTEX
10
7.24471
20
11.0667
30
8.4
0
VERTEX
10
7.25217
20
11.0667
30
8.4
0
VERTEX
10
7.2559
20
11.0667
30
8.4
0
VERTEX
10
7.2615
20
11.0742
30
8.4
0
VERTEX
10
7.26524
20
11.0761
30
8.4
0
VERTEX
10
7.27457
20
11.1041
30
8.4
0
VERTEX
10
7.27643
20
11.1115
30
8.4
0
VERTEX
10
7.27457
20
11.119
30
8.4
0
VERTEX
10
7.2615
20
11.1283
30
8.4
0
VERTEX
10
7.25404
20
11.1283
30
8.4
0
VERTEX
10
7.25031
20
11.1283
30
8.4
0
VERTEX
10
7.22231
20
11.1059
30
8.4
0
VERTEX
10
7.21485
20
11.1041
30
8.4
0
VERTEX
10
7.21485
20
11.0966
30
8.4
0
VERTEX
10
7.21485
20
11.0947
30
8.4
0
SEQEND
0
POLYLINE
62
227
66
1
70
1
3
endoplasmic_reticulum
0
VERTEX
10
7.66368
20
10.2502
30
8.4
0
VERTEX
10
7.66457
20
10.243
30
8.4
0
VERTEX
10
7.66637
20
10.2412
30
8.4
0
VERTEX
10
7.66906
20
10.2341
30
8.4
0
VERTEX
10
7.67892
20
10.2215
30
8.4
0
VERTEX
10
7.6834
20
10.2152
30
8.4
0
VERTEX
10
7.68519
20
10.2143
30
8.4
0
VERTEX
10
7.68609
20
10.2072
30
8.4
0
VERTEX
10
7.69237
20
10.1928
30
8.4
0
VERTEX
10
7.69416
20
10.1857
30
8.4
0
VERTEX
10
7.69506
20
10.1821
30
8.4
0
VERTEX
10
7.69326
20
10.1776
30
8.4
0
VERTEX
10
7.69416
20
10.174
30
8.4
0
VERTEX
10
7.69416
20
10.1722
30
8.4
0
VERTEX
10
7.69595
20
10.1704
30
8.4
0
VERTEX
10
7.69685
20
10.1668
30
8.4
0
VERTEX
10
7.70223
20
10.1624
30
8.4
0
VERTEX
10
7.70581
20
10.1597
30
8.4
0
VERTEX
10
7.71299
20
10.1597
30
8.4
0
VERTEX
10
7.71926
20
10.1624
30
8.4
0
VERTEX
10
7.72464
20
10.1686
30
8.4
0
VERTEX
10
7.72823
20
10.1704
30
8.4
0
VERTEX
10
7.73002
20
10.1776
30
8.4
0
VERTEX
10
7.73002
20
10.1919
30
8.4
0
VERTEX
10
7.73002
20
10.1991
30
8.4
0
VERTEX
10
7.72733
20
10.2135
30
8.4
0
VERTEX
10
7.72823
20
10.217
30
8.4
0
VERTEX
10
7.73092
20
10.2206
30
8.4
0
VERTEX
10
7.73181
20
10.2278
30
8.4
0
VERTEX
10
7.74078
20
10.2412
30
8.4
0
VERTEX
10
7.74705
20
10.2475
30
8.4
0
VERTEX
10
7.75064
20
10.2538
30
8.4
0
VERTEX
10
7.75423
20
10.2556
30
8.4
0
VERTEX
10
7.75512
20
10.2574
30
8.4
0
VERTEX
10
7.75692
20
10.2574
30
8.4
0
VERTEX
10
7.75871
20
10.261
30
8.4
0
VERTEX
10
7.76588
20
10.2663
30
8.4
0
VERTEX
10
7.76947
20
10.2699
30
8.4
0
VERTEX
10
7.76947
20
10.2717
30
8.4
0
VERTEX
10
7.77574
20
10.2789
30
8.4
0
VERTEX
10
7.77843
20
10.2932
30
8.4
0
VERTEX
10
7.77754
20
10.3076
30
8.4
0
VERTEX
10
7.76947
20
10.3219
30
8.4
0
VERTEX
10
7.76319
20
10.3273
30
8.4
0
VERTEX
10
7.75602
20
10.3273
30
8.4
0
VERTEX
10
7.74257
20
10.321
30
8.4
0
VERTEX
10
7.74078
20
10.3192
30
8.4
0
VERTEX
10
7.74078
20
10.3175
30
8.4
0
VERTEX
10
7.73181
20
10.304
30
8.4
0
VERTEX
10
7.72554
20
10.2968
30
8.4
0
VERTEX
10
7.72195
20
10.2906
30
8.4
0
VERTEX
10
7.72106
20
10.287
30
8.4
0
VERTEX
10
7.71837
20
10.2834
30
8.4
0
VERTEX
10
7.71837
20
10.2816
30
8.4
0
VERTEX
10
7.71568
20
10.278
30
8.4
0
VERTEX
10
7.71478
20
10.2744
30
8.4
0
VERTEX
10
7.7094
20
10.2672
30
8.4
0
VERTEX
10
7.70671
20
10.2637
30
8.4
0
VERTEX
10
7.70043
20
10.261
30
8.4
0
VERTEX
10
7.69864
20
10.261
30
8.4
0
VERTEX
10
7.69595
20
10.2637
30
8.4
0
VERTEX
10
7.68161
20
10.2672
30
8.4
0
VERTEX
10
7.67443
20
10.269
30
8.4
0
VERTEX
10
7.67085
20
10.2699
30
8.4
0
VERTEX
10
7.66726
20
10.2681
30
8.4
0
VERTEX
10
7.66368
20
10.261
30
8.4
0
VERTEX
10
7.66368
20
10.2538
30
8.4
0
VERTEX
10
7.66368
20
10.2511
30
8.4
0
SEQEND
0
POLYLINE
62
227
66
1
70
1
3
endoplasmic_reticulum
0
VERTEX
10
7.76319
20
10.044
30
8.4
0
VERTEX
10
7.76768
20
10.0377
30
8.4
0
VERTEX
10
7.77395
20
10.0315
30
8.4
0
VERTEX
10
7.77485
20
10.0297
30
8.4
0
VERTEX
10
7.78202
20
10.0288
30
8.4
0
VERTEX
10
7.78561
20
10.0288
30
8.4
0
VERTEX
10
7.79278
20
10.0252
30
8.4
0
VERTEX
10
7.79636
20
10.0225
30
8.4
0
VERTEX
10
7.80354
20
10.0207
30
8.4
0
VERTEX
10
7.81071
20
10.0207
30
8.4
0
VERTEX
10
7.8125
20
10.0189
30
8.4
0
VERTEX
10
7.82685
20
10.0198
30
8.4
0
VERTEX
10
7.83402
20
10.0216
30
8.4
0
VERTEX
10
7.84836
20
10.0225
30
8.4
0
VERTEX
10
7.86181
20
10.0162
30
8.4
0
VERTEX
10
7.86899
20
10.0117
30
8.4
0
VERTEX
10
7.87616
20
10.009
30
8.4
0
VERTEX
10
7.87974
20
10.0081
30
8.4
0
VERTEX
10
7.88692
20
10.0037
30
8.4
0
VERTEX
10
7.89409
20
10.001
30
8.4
0
VERTEX
10
7.89767
20
10.0001
30
8.4
0
VERTEX
10
7.89947
20
10.0001
30
8.4
0
VERTEX
10
7.90126
20
9.99828
30
8.4
0
VERTEX
10
7.90843
20
9.99649
30
8.4
0
VERTEX
10
7.92278
20
9.99828
30
8.4
0
VERTEX
10
7.95147
20
9.99828
30
8.4
0
VERTEX
10
7.96581
20
10.0001
30
8.4
0
VERTEX
10
7.9694
20
10.0001
30
8.4
0
VERTEX
10
7.97567
20
9.99739
30
8.4
0
VERTEX
10
7.97926
20
9.99559
30
8.4
0
VERTEX
10
7.98105
20
9.9938
30
8.4
0
VERTEX
10
7.98195
20
9.99021
30
8.4
0
VERTEX
10
7.98733
20
9.98394
30
8.4
0
VERTEX
10
7.99002
20
9.97766
30
8.4
0
VERTEX
10
7.99002
20
9.97587
30
8.4
0
VERTEX
10
7.99271
20
9.97318
30
8.4
0
VERTEX
10
7.99361
20
9.95883
30
8.4
0
VERTEX
10
7.9945
20
9.95525
30
8.4
0
VERTEX
10
7.99629
20
9.95435
30
8.4
0
VERTEX
10
7.99719
20
9.95077
30
8.4
0
VERTEX
10
8.00078
20
9.94808
30
8.4
0
VERTEX
10
8.01512
20
9.94628
30
8.4
0
VERTEX
10
8.02767
20
9.95794
30
8.4
0
VERTEX
10
8.03485
20
9.96332
30
8.4
0
VERTEX
10
8.03664
20
9.97049
30
8.4
0
VERTEX
10
8.03574
20
9.97766
30
8.4
0
VERTEX
10
8.03216
20
9.97945
30
8.4
0
VERTEX
10
8.02857
20
9.98663
30
8.4
0
VERTEX
10
8.02678
20
9.98932
30
8.4
0
VERTEX
10
8.0205
20
9.99649
30
8.4
0
VERTEX
10
8.01333
20
10.001
30
8.4
0
VERTEX
10
8.00616
20
10.0072
30
8.4
0
VERTEX
10
8.00257
20
10.0081
30
8.4
0
VERTEX
10
7.9954
20
10.0126
30
8.4
0
VERTEX
10
7.99361
20
10.0126
30
8.4
0
VERTEX
10
7.98643
20
10.018
30
8.4
0
VERTEX
10
7.97926
20
10.0216
30
8.4
0
VERTEX
10
7.97567
20
10.0252
30
8.4
0
VERTEX
10
7.97388
20
10.0261
30
8.4
0
VERTEX
10
7.97388
20
10.0297
30
8.4
0
VERTEX
10
7.96671
20
10.035
30
8.4
0
VERTEX
10
7.95236
20
10.0422
30
8.4
0
VERTEX
10
7.95057
20
10.044
30
8.4
0
VERTEX
10
7.93623
20
10.0485
30
8.4
0
VERTEX
10
7.92905
20
10.0494
30
8.4
0
VERTEX
10
7.91471
20
10.0548
30
8.4
0
VERTEX
10
7.90754
20
10.0575
30
8.4
0
VERTEX
10
7.90036
20
10.0566
30
8.4
0
VERTEX
10
7.89678
20
10.0557
30
8.4
0
VERTEX
10
7.88243
20
10.0601
30
8.4
0
VERTEX
10
7.87616
20
10.0646
30
8.4
0
VERTEX
10
7.87257
20
10.0664
30
8.4
0
VERTEX
10
7.87078
20
10.0664
30
8.4
0
VERTEX
10
7.86899
20
10.0682
30
8.4
0
VERTEX
10
7.8654
20
10.0691
30
8.4
0
VERTEX
10
7.86181
20
10.0718
30
8.4
0
VERTEX
10
7.85823
20
10.0718
30
8.4
0
VERTEX
10
7.85105
20
10.0754
30
8.4
0
VERTEX
10
7.84747
20
10.0763
30
8.4
0
VERTEX
10
7.8403
20
10.0808
30
8.4
0
VERTEX
10
7.83671
20
10.0826
30
8.4
0
VERTEX
10
7.83312
20
10.0826
30
8.4
0
VERTEX
10
7.83133
20
10.0826
30
8.4
0
VERTEX
10
7.82774
20
10.0861
30
8.4
0
VERTEX
10
7.8143
20
10.0924
30
8.4
0
VERTEX
10
7.80712
20
10.0951
30
8.4
0
VERTEX
10
7.79278
20
10.096
30
8.4
0
VERTEX
10
7.77843
20
10.0951
30
8.4
0
VERTEX
10
7.77126
20
10.0924
30
8.4
0
VERTEX
10
7.76947
20
10.0888
30
8.4
0
VERTEX
10
7.76947
20
10.087
30
8.4
0
VERTEX
10
7.76768
20
10.0852
30
8.4
0
VERTEX
10
7.76409
20
10.0709
30
8.4
0
VERTEX
10
7.76319
20
10.0566
30
8.4
0
VERTEX
10
7.76319
20
10.0494
30
8.4
0
VERTEX
10
7.76319
20
10.0458
30
8.4
0
VERTEX
10
7.76319
20
10.0449
30
8.4
0
SEQEND
0
POLYLINE
62
227
66
1
70
1
3
endoplasmic_reticulum
0
VERTEX
10
8.1765
20
10.2556
30
8.4
0
VERTEX
10
8.17919
20
10.2484
30
8.4
0
VERTEX
10
8.18098
20
10.2197
30
8.4
0
VERTEX
10
8.18367
20
10.2126
30
8.4
0
VERTEX
10
8.18816
20
10.2054
30
8.4
0
VERTEX
10
8.19443
20
10.1991
30
8.4
0
VERTEX
10
8.19802
20
10.1991
30
8.4
0
VERTEX
10
8.2016
20
10.2027
30
8.4
0
VERTEX
10
8.20519
20
10.2036
30
8.4
0
VERTEX
10
8.20698
20
10.2036
30
8.4
0
VERTEX
10
8.21326
20
10.2081
30
8.4
0
VERTEX
10
8.21505
20
10.2152
30
8.4
0
VERTEX
10
8.21505
20
10.217
30
8.4
0
VERTEX
10
8.21953
20
10.2224
30
8.4
0
VERTEX
10
8.21953
20
10.2242
30
8.4
0
VERTEX
10
8.22133
20
10.226
30
8.4
0
VERTEX
10
8.22133
20
10.2296
30
8.4
0
VERTEX
10
8.22402
20
10.2368
30
8.4
0
VERTEX
10
8.22402
20
10.2386
30
8.4
0
VERTEX
10
8.22581
20
10.2403
30
8.4
0
VERTEX
10
8.2285
20
10.269
30
8.4
0
VERTEX
10
8.2285
20
10.2762
30
8.4
0
VERTEX
10
8.2285
20
10.2798
30
8.4
0
VERTEX
10
8.22671
20
10.2834
30
8.4
0
VERTEX
10
8.22581
20
10.2977
30
8.4
0
VERTEX
10
8.22581
20
10.3049
30
8.4
0
VERTEX
10
8.22133
20
10.3192
30
8.4
0
VERTEX
10
8.21864
20
10.3264
30
8.4
0
VERTEX
10
8.21774
20
10.3408
30
8.4
0
VERTEX
10
8.21505
20
10.3443
30
8.4
0
VERTEX
10
8.20788
20
10.347
30
8.4
0
VERTEX
10
8.20071
20
10.3443
30
8.4
0
VERTEX
10
8.19712
20
10.3435
30
8.4
0
VERTEX
10
8.19533
20
10.3435
30
8.4
0
VERTEX
10
8.19085
20
10.3363
30
8.4
0
VERTEX
10
8.18905
20
10.3291
30
8.4
0
VERTEX
10
8.18995
20
10.3219
30
8.4
0
VERTEX
10
8.19174
20
10.321
30
8.4
0
VERTEX
10
8.19174
20
10.2923
30
8.4
0
VERTEX
10
8.18905
20
10.278
30
8.4
0
VERTEX
10
8.18278
20
10.2717
30
8.4
0
VERTEX
10
8.18278
20
10.2699
30
8.4
0
VERTEX
10
8.18098
20
10.2699
30
8.4
0
VERTEX
10
8.17829
20
10.2663
30
8.4
0
VERTEX
10
8.1765
20
10.2592
30
8.4
0
VERTEX
10
8.1765
20
10.2565
30
8.4
0
SEQEND
0
POLYLINE
62
227
66
1
70
1
3
endoplasmic_reticulum
0
VERTEX
10
8.10029
20
10.3614
30
8.4
0
VERTEX
10
8.10388
20
10.347
30
8.4
0
VERTEX
10
8.10388
20
10.3452
30
8.4
0
VERTEX
10
8.10657
20
10.3417
30
8.4
0
VERTEX
10
8.10836
20
10.3345
30
8.4
0
VERTEX
10
8.11016
20
10.3327
30
8.4
0
VERTEX
10
8.11016
20
10.3309
30
8.4
0
VERTEX
10
8.11195
20
10.3291
30
8.4
0
VERTEX
10
8.11195
20
10.3219
30
8.4
0
VERTEX
10
8.11643
20
10.3076
30
8.4
0
VERTEX
10
8.11823
20
10.3004
30
8.4
0
VERTEX
10
8.11823
20
10.2861
30
8.4
0
VERTEX
10
8.11643
20
10.2789
30
8.4
0
VERTEX
10
8.11912
20
10.2646
30
8.4
0
VERTEX
10
8.11912
20
10.2574
30
8.4
0
VERTEX
10
8.12091
20
10.2502
30
8.4
0
VERTEX
10
8.12091
20
10.2466
30
8.4
0
VERTEX
10
8.11912
20
10.2448
30
8.4
0
VERTEX
10
8.11912
20
10.2305
30
8.4
0
VERTEX
10
8.12002
20
10.2233
30
8.4
0
VERTEX
10
8.12271
20
10.2161
30
8.4
0
VERTEX
10
8.1236
20
10.2126
30
8.4
0
VERTEX
10
8.1254
20
10.2108
30
8.4
0
VERTEX
10
8.12719
20
10.1964
30
8.4
0
VERTEX
10
8.12719
20
10.1892
30
8.4
0
VERTEX
10
8.12988
20
10.1749
30
8.4
0
VERTEX
10
8.13078
20
10.1677
30
8.4
0
VERTEX
10
8.13347
20
10.1641
30
8.4
0
VERTEX
10
8.13436
20
10.157
30
8.4
0
VERTEX
10
8.13795
20
10.1498
30
8.4
0
VERTEX
10
8.14154
20
10.1471
30
8.4
0
VERTEX
10
8.14871
20
10.1462
30
8.4
0
VERTEX
10
8.15588
20
10.148
30
8.4
0
VERTEX
10
8.15947
20
10.1489
30
8.4
0
VERTEX
10
8.17022
20
10.1606
30
8.4
0
VERTEX
10
8.17112
20
10.1749
30
8.4
0
VERTEX
10
8.17022
20
10.1821
30
8.4
0
VERTEX
10
8.16754
20
10.1883
30
8.4
0
VERTEX
10
8.16305
20
10.1946
30
8.4
0
VERTEX
10
8.16126
20
10.1946
30
8.4
0
VERTEX
10
8.15498
20
10.2
30
8.4
0
VERTEX
10
8.1514
20
10.2027
30
8.4
0
VERTEX
10
8.1514
20
10.217
30
8.4
0
VERTEX
10
8.15319
20
10.2242
30
8.4
0
VERTEX
10
8.15319
20
10.226
30
8.4
0
VERTEX
10
8.15588
20
10.2296
30
8.4
0
VERTEX
10
8.15857
20
10.2439
30
8.4
0
VERTEX
10
8.15857
20
10.2457
30
8.4
0
VERTEX
10
8.16036
20
10.2475
30
8.4
0
VERTEX
10
8.16126
20
10.2619
30
8.4
0
VERTEX
10
8.16485
20
10.2762
30
8.4
0
VERTEX
10
8.16664
20
10.2834
30
8.4
0
VERTEX
10
8.16664
20
10.2977
30
8.4
0
VERTEX
10
8.16664
20
10.3013
30
8.4
0
VERTEX
10
8.16395
20
10.3085
30
8.4
0
VERTEX
10
8.15857
20
10.3372
30
8.4
0
VERTEX
10
8.15767
20
10.3443
30
8.4
0
VERTEX
10
8.15588
20
10.3479
30
8.4
0
VERTEX
10
8.15588
20
10.3515
30
8.4
0
VERTEX
10
8.15588
20
10.3533
30
8.4
0
VERTEX
10
8.15409
20
10.3551
30
8.4
0
VERTEX
10
8.1514
20
10.3695
30
8.4
0
VERTEX
10
8.14691
20
10.3838
30
8.4
0
VERTEX
10
8.14602
20
10.3874
30
8.4
0
VERTEX
10
8.14243
20
10.3901
30
8.4
0
VERTEX
10
8.13885
20
10.391
30
8.4
0
VERTEX
10
8.13526
20
10.3937
30
8.4
0
VERTEX
10
8.13167
20
10.3946
30
8.4
0
VERTEX
10
8.1245
20
10.399
30
8.4
0
VERTEX
10
8.11733
20
10.4008
30
8.4
0
VERTEX
10
8.11016
20
10.399
30
8.4
0
VERTEX
10
8.10657
20
10.3972
30
8.4
0
VERTEX
10
8.10298
20
10.3937
30
8.4
0
VERTEX
10
8.10298
20
10.3919
30
8.4
0
VERTEX
10
8.10119
20
10.3901
30
8.4
0
VERTEX
10
8.10029
20
10.3623
30
8.4
0
SEQEND
0
POLYLINE
62
227
66
1
70
1
3
endoplasmic_reticulum
0
VERTEX
10
8.09402
20
10.0601
30
8.4
0
VERTEX
10
8.0985
20
10.053
30
8.4
0
VERTEX
10
8.10567
20
10.053
30
8.4
0
VERTEX
10
8.10747
20
10.053
30
8.4
0
VERTEX
10
8.10926
20
10.0548
30
8.4
0
VERTEX
10
8.11643
20
10.0566
30
8.4
0
VERTEX
10
8.11823
20
10.0566
30
8.4
0
VERTEX
10
8.11912
20
10.0584
30
8.4
0
VERTEX
10
8.12629
20
10.061
30
8.4
0
VERTEX
10
8.12988
20
10.0637
30
8.4
0
VERTEX
10
8.12988
20
10.0655
30
8.4
0
VERTEX
10
8.13347
20
10.0691
30
8.4
0
VERTEX
10
8.13705
20
10.0763
30
8.4
0
VERTEX
10
8.14602
20
10.0879
30
8.4
0
VERTEX
10
8.15678
20
10.0987
30
8.4
0
VERTEX
10
8.15947
20
10.1014
30
8.4
0
VERTEX
10
8.15857
20
10.1086
30
8.4
0
VERTEX
10
8.15678
20
10.1121
30
8.4
0
VERTEX
10
8.15319
20
10.1139
30
8.4
0
VERTEX
10
8.1514
20
10.1139
30
8.4
0
VERTEX
10
8.1496
20
10.1157
30
8.4
0
VERTEX
10
8.14243
20
10.1166
30
8.4
0
VERTEX
10
8.14064
20
10.1166
30
8.4
0
VERTEX
10
8.13885
20
10.1184
30
8.4
0
VERTEX
10
8.1245
20
10.1175
30
8.4
0
VERTEX
10
8.11823
20
10.1104
30
8.4
0
VERTEX
10
8.11554
20
10.1068
30
8.4
0
VERTEX
10
8.11554
20
10.105
30
8.4
0
VERTEX
10
8.11285
20
10.1014
30
8.4
0
VERTEX
10
8.11195
20
10.0942
30
8.4
0
VERTEX
10
8.11195
20
10.0906
30
8.4
0
VERTEX
10
8.10926
20
10.087
30
8.4
0
VERTEX
10
8.10747
20
10.087
30
8.4
0
VERTEX
10
8.10298
20
10.0799
30
8.4
0
VERTEX
10
8.0994
20
10.0763
30
8.4
0
VERTEX
10
8.09581
20
10.0745
30
8.4
0
VERTEX
10
8.09402
20
10.0736
30
8.4
0
VERTEX
10
8.09402
20
10.0664
30
8.4
0
VERTEX
10
8.09402
20
10.0628
30
8.4
0
VERTEX
10
8.09402
20
10.061
30
8.4
0
SEQEND
0
POLYLINE
62
227
66
1
70
1
3
endoplasmic_reticulum
0
VERTEX
10
8.02857
20
10.0108
30
8.4
0
VERTEX
10
8.03395
20
10.0046
30
8.4
0
VERTEX
10
8.03664
20
10.001
30
8.4
0
VERTEX
10
8.04381
20
10.0001
30
8.4
0
VERTEX
10
8.05816
20
10.0019
30
8.4
0
VERTEX
10
8.07071
20
10.009
30
8.4
0
VERTEX
10
8.07429
20
10.0108
30
8.4
0
VERTEX
10
8.07788
20
10.0108
30
8.4
0
VERTEX
10
8.08505
20
10.0144
30
8.4
0
VERTEX
10
8.09043
20
10.0198
30
8.4
0
VERTEX
10
8.09491
20
10.027
30
8.4
0
VERTEX
10
8.09402
20
10.0341
30
8.4
0
VERTEX
10
8.09133
20
10.0404
30
8.4
0
VERTEX
10
8.08505
20
10.0449
30
8.4
0
VERTEX
10
8.07071
20
10.0476
30
8.4
0
VERTEX
10
8.04202
20
10.0431
30
8.4
0
VERTEX
10
8.03843
20
10.0431
30
8.4
0
VERTEX
10
8.03216
20
10.0359
30
8.4
0
VERTEX
10
8.02947
20
10.0332
30
8.4
0
VERTEX
10
8.02947
20
10.0189
30
8.4
0
VERTEX
10
8.02857
20
10.0117
30
8.4
0
SEQEND
0
POLYLINE
62
31
66
1
70
1
3
contour
0
VERTEX
10
7.60817
20
10.2324
30
8.4
0
VERTEX
10
7.61367
20
10.2269
30
8.4
0
VERTEX
10
7.61367
20
10.2195
30
8.4
0
VERTEX
10
7.63755
20
10.1607
30
8.4
0
VERTEX
10
7.65591
20
10.1332
30
8.4
0
VERTEX
10
7.66693
20
10.1185
30
8.4
0
VERTEX
10
7.6706
20
10.1038
30
8.4
0
VERTEX
10
7.67978
20
10.0891
30
8.4
0
VERTEX
10
7.68529
20
10.0616
30
8.4
0
VERTEX
10
7.68897
20
10.0579
30
8.4
0
VERTEX
10
7.69815
20
9.99915
30
8.4
0
VERTEX
10
7.70182
20
9.98445
30
8.4
0
VERTEX
10
7.70917
20
9.96976
30
8.4
0
VERTEX
10
7.71284
20
9.96242
30
8.4
0
VERTEX
10
7.72019
20
9.95875
30
8.4
0
VERTEX
10
7.72937
20
9.94405
30
8.4
0
VERTEX
10
7.73304
20
9.94038
30
8.4
0
VERTEX
10
7.73304
20
9.93671
30
8.4
0
VERTEX
10
7.72937
20
9.93304
30
8.4
0
VERTEX
10
7.73304
20
9.91834
30
8.4
0
VERTEX
10
7.74406
20
9.90365
30
8.4
0
VERTEX
10
7.74773
20
9.89631
30
8.4
0
VERTEX
10
7.75508
20
9.89264
30
8.4
0
VERTEX
10
7.76059
20
9.88529
30
8.4
0
VERTEX
10
7.76242
20
9.88162
30
8.4
0
VERTEX
10
7.76609
20
9.88162
30
8.4
0
VERTEX
10
7.78997
20
9.85407
30
8.4
0
VERTEX
10
7.81935
20
9.83754
30
8.4
0
VERTEX
10
7.83404
20
9.83203
30
8.4
0
VERTEX
10
7.83771
20
9.83203
30
8.4
0
VERTEX
10
7.84506
20
9.82469
30
8.4
0
VERTEX
10
7.85057
20
9.82102
30
8.4
0
VERTEX
10
7.90933
20
9.81551
30
8.4
0
VERTEX
10
7.92402
20
9.81551
30
8.4
0
VERTEX
10
7.93137
20
9.81918
30
8.4
0
VERTEX
10
7.93872
20
9.81918
30
8.4
0
VERTEX
10
7.94606
20
9.82285
30
8.4
0
VERTEX
10
7.97544
20
9.82836
30
8.4
0
VERTEX
10
7.99013
20
9.83387
30
8.4
0
VERTEX
10
8.00483
20
9.83571
30
8.4
0
VERTEX
10
8.0085
20
9.83571
30
8.4
0
VERTEX
10
8.02319
20
9.84673
30
8.4
0
VERTEX
10
8.03788
20
9.85407
30
8.4
0
VERTEX
10
8.04523
20
9.85958
30
8.4
0
VERTEX
10
8.04706
20
9.86693
30
8.4
0
VERTEX
10
8.05074
20
9.8706
30
8.4
0
VERTEX
10
8.05074
20
9.87794
30
8.4
0
VERTEX
10
8.05624
20
9.88529
30
8.4
0
VERTEX
10
8.05624
20
9.88896
30
8.4
0
VERTEX
10
8.06543
20
9.89814
30
8.4
0
VERTEX
10
8.06543
20
9.90182
30
8.4
0
VERTEX
10
8.07277
20
9.90916
30
8.4
0
VERTEX
10
8.08012
20
9.91284
30
8.4
0
VERTEX
10
8.08563
20
9.92018
30
8.4
0
VERTEX
10
8.09848
20
9.92936
30
8.4
0
VERTEX
10
8.10399
20
9.93487
30
8.4
0
VERTEX
10
8.10583
20
9.94222
30
8.4
0
VERTEX
10
8.12235
20
9.96976
30
8.4
0
VERTEX
10
8.14256
20
9.99731
30
8.4
0
VERTEX
10
8.14806
20
10.0047
30
8.4
0
VERTEX
10
8.1499
20
10.012
30
8.4
0
VERTEX
10
8.15541
20
10.0193
30
8.4
0
VERTEX
10
8.15908
20
10.034
30
8.4
0
VERTEX
10
8.16092
20
10.0414
30
8.4
0
VERTEX
10
8.16643
20
10.0487
30
8.4
0
VERTEX
10
8.17377
20
10.0524
30
8.4
0
VERTEX
10
8.18112
20
10.0524
30
8.4
0
VERTEX
10
8.18846
20
10.0561
30
8.4
0
VERTEX
10
8.19581
20
10.0634
30
8.4
0
VERTEX
10
8.2105
20
10.0689
30
8.4
0
VERTEX
10
8.21234
20
10.0726
30
8.4
0
VERTEX
10
8.21968
20
10.0744
30
8.4
0
VERTEX
10
8.23805
20
10.0983
30
8.4
0
VERTEX
10
8.23988
20
10.1112
30
8.4
0
VERTEX
10
8.24539
20
10.1185
30
8.4
0
VERTEX
10
8.24723
20
10.1222
30
8.4
0
VERTEX
10
8.2509
20
10.1222
30
8.4
0
VERTEX
10
8.25641
20
10.1295
30
8.4
0
VERTEX
10
8.26008
20
10.1295
30
8.4
0
VERTEX
10
8.26743
20
10.135
30
8.4
0
VERTEX
10
8.26743
20
10.1387
30
8.4
0
VERTEX
10
8.27478
20
10.1424
30
8.4
0
VERTEX
10
8.28028
20
10.1497
30
8.4
0
VERTEX
10
8.2913
20
10.1589
30
8.4
0
VERTEX
10
8.30416
20
10.1644
30
8.4
0
VERTEX
10
8.30783
20
10.1718
30
8.4
0
VERTEX
10
8.3115
20
10.1718
30
8.4
0
VERTEX
10
8.32252
20
10.2011
30
8.4
0
VERTEX
10
8.33538
20
10.2158
30
8.4
0
VERTEX
10
8.34456
20
10.225
30
8.4
0
VERTEX
10
8.34823
20
10.2397
30
8.4
0
VERTEX
10
8.3519
20
10.2415
30
8.4
0
VERTEX
10
8.3519
20
10.2452
30
8.4
0
VERTEX
10
8.36109
20
10.2581
30
8.4
0
VERTEX
10
8.36659
20
10.2636
30
8.4
0
VERTEX
10
8.36659
20
10.293
30
8.4
0
VERTEX
10
8.36659
20
10.3077
30
8.4
0
VERTEX
10
8.35007
20
10.337
30
8.4
0
VERTEX
10
8.33538
20
10.3462
30
8.4
0
VERTEX
10
8.3317
20
10.3462
30
8.4
0
VERTEX
10
8.32436
20
10.3517
30
8.4
0
VERTEX
10
8.29681
20
10.3572
30
8.4
0
VERTEX
10
8.29681
20
10.3609
30
8.4
0
VERTEX
10
8.28947
20
10.3646
30
8.4
0
VERTEX
10
8.28579
20
10.3646
30
8.4
0
VERTEX
10
8.27845
20
10.3701
30
8.4
0
VERTEX
10
8.27478
20
10.3756
30
8.4
0
VERTEX
10
8.26192
20
10.3903
30
8.4
0
VERTEX
10
8.25641
20
10.3976
30
8.4
0
VERTEX
10
8.24356
20
10.4068
30
8.4
0
VERTEX
10
8.23621
20
10.4123
30
8.4
0
VERTEX
10
8.21601
20
10.438
30
8.4
0
VERTEX
10
8.21417
20
10.4472
30
8.4
0
VERTEX
10
8.20683
20
10.4546
30
8.4
0
VERTEX
10
8.20316
20
10.4619
30
8.4
0
VERTEX
10
8.19765
20
10.4638
30
8.4
0
VERTEX
10
8.17194
20
10.4876
30
8.4
0
VERTEX
10
8.16459
20
10.495
30
8.4
0
VERTEX
10
8.13521
20
10.506
30
8.4
0
VERTEX
10
8.10583
20
10.5115
30
8.4
0
VERTEX
10
8.04706
20
10.5152
30
8.4
0
VERTEX
10
8.03972
20
10.5152
30
8.4
0
VERTEX
10
8.03604
20
10.5152
30
8.4
0
VERTEX
10
8.03237
20
10.5188
30
8.4
0
VERTEX
10
8.00299
20
10.517
30
8.4
0
VERTEX
10
7.97361
20
10.506
30
8.4
0
VERTEX
10
7.96626
20
10.506
30
8.4
0
VERTEX
10
7.9075
20
10.4858
30
8.4
0
VERTEX
10
7.87811
20
10.4766
30
8.4
0
VERTEX
10
7.86342
20
10.4748
30
8.4
0
VERTEX
10
7.85975
20
10.4748
30
8.4
0
VERTEX
10
7.85608
20
10.4674
30
8.4
0
VERTEX
10
7.84322
20
10.4619
30
8.4
0
VERTEX
10
7.81384
20
10.4582
30
8.4
0
VERTEX
10
7.79915
20
10.4546
30
8.4
0
VERTEX
10
7.7918
20
10.4509
30
8.4
0
VERTEX
10
7.78446
20
10.4509
30
8.4
0
VERTEX
10
7.77895
20
10.4472
30
8.4
0
VERTEX
10
7.7716
20
10.4472
30
8.4
0
VERTEX
10
7.76426
20
10.4417
30
8.4
0
VERTEX
10
7.75691
20
10.4399
30
8.4
0
VERTEX
10
7.74957
20
10.4344
30
8.4
0
VERTEX
10
7.74222
20
10.4344
30
8.4
0
VERTEX
10
7.71284
20
10.4178
30
8.4
0
VERTEX
10
7.70549
20
10.4123
30
8.4
0
VERTEX
10
7.70182
20
10.4123
30
8.4
0
VERTEX
10
7.69631
20
10.405
30
8.4
0
VERTEX
10
7.69448
20
10.3976
30
8.4
0
VERTEX
10
7.6908
20
10.3958
30
8.4
0
VERTEX
10
7.6908
20
10.3921
30
8.4
0
VERTEX
10
7.67978
20
10.3774
30
8.4
0
VERTEX
10
7.67244
20
10.3701
30
8.4
0
VERTEX
10
7.66693
20
10.3554
30
8.4
0
VERTEX
10
7.65408
20
10.3426
30
8.4
0
VERTEX
10
7.63755
20
10.3132
30
8.4
0
VERTEX
10
7.63571
20
10.3058
30
8.4
0
VERTEX
10
7.62286
20
10.293
30
8.4
0
VERTEX
10
7.62286
20
10.2893
30
8.4
0
VERTEX
10
7.61551
20
10.2838
30
8.4
0
VERTEX
10
7.61184
20
10.2764
30
8.4
0
VERTEX
10
7.61184
20
10.2617
30
8.4
0
VERTEX
10
7.60817
20
10.2471
30
8.4
0
VERTEX
10
7.60817
20
10.2342
30
8.4
0
SEQEND
0
ENDSEC
0
EOF
