0
SECTION
2
ENTITIES
0
POLYLINE
62
31
66
1
70
1
3
contour
0
VERTEX
10
7.79803
20
9.17807
30
6.44
0
VERTEX
10
7.80336
20
9.16741
30
6.44
0
VERTEX
10
7.80336
20
9.16209
30
6.44
0
VERTEX
10
7.82201
20
9.1461
30
6.44
0
VERTEX
10
7.83266
20
9.13811
30
6.44
0
VERTEX
10
7.85398
20
9.13811
30
6.44
0
VERTEX
10
7.87529
20
9.14344
30
6.44
0
VERTEX
10
7.8966
20
9.14344
30
6.44
0
VERTEX
10
7.90726
20
9.14344
30
6.44
0
VERTEX
10
7.91792
20
9.15143
30
6.44
0
VERTEX
10
7.92325
20
9.16209
30
6.44
0
VERTEX
10
7.93923
20
9.17541
30
6.44
0
VERTEX
10
7.94989
20
9.21803
30
6.44
0
VERTEX
10
7.93657
20
9.23935
30
6.44
0
VERTEX
10
7.93124
20
9.24734
30
6.44
0
VERTEX
10
7.92058
20
9.25267
30
6.44
0
VERTEX
10
7.89927
20
9.25267
30
6.44
0
VERTEX
10
7.88861
20
9.25267
30
6.44
0
VERTEX
10
7.8673
20
9.24201
30
6.44
0
VERTEX
10
7.85664
20
9.23935
30
6.44
0
VERTEX
10
7.83533
20
9.22336
30
6.44
0
VERTEX
10
7.81402
20
9.21271
30
6.44
0
VERTEX
10
7.79803
20
9.19406
30
6.44
0
VERTEX
10
7.79803
20
9.1834
30
6.44
0
VERTEX
10
7.79803
20
9.18074
30
6.44
0
SEQEND
0
POLYLINE
62
31
66
1
70
1
3
contour
0
VERTEX
10
10.2732
20
9.46142
30
6.44
0
VERTEX
10
10.2804
20
9.44699
30
6.44
0
VERTEX
10
10.2822
20
9.43978
30
6.44
0
VERTEX
10
10.2822
20
9.43617
30
6.44
0
VERTEX
10
10.2858
20
9.43256
30
6.44
0
VERTEX
10
10.2858
20
9.42895
30
6.44
0
VERTEX
10
10.3056
20
9.4019
30
6.44
0
VERTEX
10
10.3165
20
9.38927
30
6.44
0
VERTEX
10
10.3309
20
9.38025
30
6.44
0
VERTEX
10
10.3381
20
9.37664
30
6.44
0
VERTEX
10
10.367
20
9.37484
30
6.44
0
VERTEX
10
10.3814
20
9.37303
30
6.44
0
VERTEX
10
10.3886
20
9.36762
30
6.44
0
VERTEX
10
10.4175
20
9.3586
30
6.44
0
VERTEX
10
10.4247
20
9.3586
30
6.44
0
VERTEX
10
10.4283
20
9.35499
30
6.44
0
VERTEX
10
10.5438
20
9.35319
30
6.44
0
VERTEX
10
10.5582
20
9.3568
30
6.44
0
VERTEX
10
10.5618
20
9.3568
30
6.44
0
VERTEX
10
10.5762
20
9.36762
30
6.44
0
VERTEX
10
10.5816
20
9.38205
30
6.44
0
VERTEX
10
10.5816
20
9.41092
30
6.44
0
VERTEX
10
10.5798
20
9.41813
30
6.44
0
VERTEX
10
10.5816
20
9.43256
30
6.44
0
VERTEX
10
10.5762
20
9.46142
30
6.44
0
VERTEX
10
10.5726
20
9.47586
30
6.44
0
VERTEX
10
10.569
20
9.48307
30
6.44
0
VERTEX
10
10.5654
20
9.48668
30
6.44
0
VERTEX
10
10.5546
20
9.51554
30
6.44
0
VERTEX
10
10.5456
20
9.52997
30
6.44
0
VERTEX
10
10.5329
20
9.5408
30
6.44
0
VERTEX
10
10.5275
20
9.54801
30
6.44
0
VERTEX
10
10.4987
20
9.56605
30
6.44
0
VERTEX
10
10.4933
20
9.57327
30
6.44
0
VERTEX
10
10.4896
20
9.57327
30
6.44
0
VERTEX
10
10.4752
20
9.58229
30
6.44
0
VERTEX
10
10.4608
20
9.5877
30
6.44
0
VERTEX
10
10.4536
20
9.5895
30
6.44
0
VERTEX
10
10.4391
20
9.59852
30
6.44
0
VERTEX
10
10.4103
20
9.60032
30
6.44
0
VERTEX
10
10.3958
20
9.60032
30
6.44
0
VERTEX
10
10.3814
20
9.59491
30
6.44
0
VERTEX
10
10.3742
20
9.59311
30
6.44
0
VERTEX
10
10.3706
20
9.59311
30
6.44
0
VERTEX
10
10.3652
20
9.5877
30
6.44
0
VERTEX
10
10.3616
20
9.5877
30
6.44
0
VERTEX
10
10.358
20
9.58409
30
6.44
0
VERTEX
10
10.3507
20
9.58229
30
6.44
0
VERTEX
10
10.3435
20
9.56785
30
6.44
0
VERTEX
10
10.3399
20
9.56425
30
6.44
0
VERTEX
10
10.3399
20
9.56064
30
6.44
0
VERTEX
10
10.3327
20
9.55523
30
6.44
0
VERTEX
10
10.3237
20
9.5426
30
6.44
0
VERTEX
10
10.3111
20
9.52997
30
6.44
0
VERTEX
10
10.3038
20
9.52276
30
6.44
0
VERTEX
10
10.3002
20
9.51915
30
6.44
0
VERTEX
10
10.2984
20
9.50472
30
6.44
0
VERTEX
10
10.2948
20
9.50111
30
6.44
0
VERTEX
10
10.293
20
9.49389
30
6.44
0
VERTEX
10
10.293
20
9.49029
30
6.44
0
VERTEX
10
10.2822
20
9.47946
30
6.44
0
VERTEX
10
10.2822
20
9.47586
30
6.44
0
VERTEX
10
10.2768
20
9.46864
30
6.44
0
VERTEX
10
10.2732
20
9.46503
30
6.44
0
VERTEX
10
10.2732
20
9.46323
30
6.44
0
SEQEND
0
POLYLINE
62
31
66
1
70
1
3
contour
0
VERTEX
10
8.38991
20
9.06276
30
6.44
0
VERTEX
10
8.39352
20
9.0339
30
6.44
0
VERTEX
10
8.39352
20
9.01947
30
6.44
0
VERTEX
10
8.39352
20
9.01226
30
6.44
0
VERTEX
10
8.40073
20
9.00684
30
6.44
0
VERTEX
10
8.40434
20
9.00504
30
6.44
0
VERTEX
10
8.40615
20
8.99782
30
6.44
0
VERTEX
10
8.42058
20
8.99241
30
6.44
0
VERTEX
10
8.43501
20
8.99422
30
6.44
0
VERTEX
10
8.44222
20
8.99422
30
6.44
0
VERTEX
10
8.44583
20
8.99422
30
6.44
0
VERTEX
10
8.45124
20
8.99963
30
6.44
0
VERTEX
10
8.46568
20
9.00324
30
6.44
0
VERTEX
10
8.49454
20
9.00504
30
6.44
0
VERTEX
10
8.50716
20
9.01045
30
6.44
0
VERTEX
10
8.51258
20
9.01586
30
6.44
0
VERTEX
10
8.52701
20
9.02127
30
6.44
0
VERTEX
10
8.53062
20
9.02488
30
6.44
0
VERTEX
10
8.53062
20
9.02849
30
6.44
0
VERTEX
10
8.53783
20
9.03029
30
6.44
0
VERTEX
10
8.56128
20
9.05555
30
6.44
0
VERTEX
10
8.5703
20
9.06637
30
6.44
0
VERTEX
10
8.58293
20
9.079
30
6.44
0
VERTEX
10
8.59014
20
9.08441
30
6.44
0
VERTEX
10
8.60458
20
9.08802
30
6.44
0
VERTEX
10
8.61179
20
9.08982
30
6.44
0
VERTEX
10
8.61901
20
9.09523
30
6.44
0
VERTEX
10
8.62622
20
9.09704
30
6.44
0
VERTEX
10
8.65328
20
9.11508
30
6.44
0
VERTEX
10
8.6605
20
9.12229
30
6.44
0
VERTEX
10
8.67853
20
9.14935
30
6.44
0
VERTEX
10
8.67853
20
9.15296
30
6.44
0
VERTEX
10
8.69116
20
9.16739
30
6.44
0
VERTEX
10
8.7092
20
9.19625
30
6.44
0
VERTEX
10
8.72002
20
9.21068
30
6.44
0
VERTEX
10
8.72363
20
9.22511
30
6.44
0
VERTEX
10
8.72904
20
9.23233
30
6.44
0
VERTEX
10
8.72904
20
9.24676
30
6.44
0
VERTEX
10
8.73446
20
9.26119
30
6.44
0
VERTEX
10
8.73806
20
9.263
30
6.44
0
VERTEX
10
8.73806
20
9.2666
30
6.44
0
VERTEX
10
8.76332
20
9.28645
30
6.44
0
VERTEX
10
8.77775
20
9.29907
30
6.44
0
VERTEX
10
8.78496
20
9.30449
30
6.44
0
VERTEX
10
8.78857
20
9.30809
30
6.44
0
VERTEX
10
8.803
20
9.3099
30
6.44
0
VERTEX
10
8.81022
20
9.3099
30
6.44
0
VERTEX
10
8.81383
20
9.31351
30
6.44
0
VERTEX
10
8.82645
20
9.31892
30
6.44
0
VERTEX
10
8.83367
20
9.32252
30
6.44
0
VERTEX
10
8.83728
20
9.32613
30
6.44
0
VERTEX
10
8.85171
20
9.32974
30
6.44
0
VERTEX
10
8.85892
20
9.33335
30
6.44
0
VERTEX
10
8.91665
20
9.33515
30
6.44
0
VERTEX
10
8.94551
20
9.33876
30
6.44
0
VERTEX
10
8.97257
20
9.34778
30
6.44
0
VERTEX
10
8.987
20
9.34958
30
6.44
0
VERTEX
10
8.99422
20
9.34958
30
6.44
0
VERTEX
10
8.99782
20
9.35319
30
6.44
0
VERTEX
10
9.11327
20
9.35319
30
6.44
0
VERTEX
10
9.1277
20
9.34958
30
6.44
0
VERTEX
10
9.18543
20
9.34958
30
6.44
0
VERTEX
10
9.19986
20
9.34958
30
6.44
0
VERTEX
10
9.21429
20
9.35499
30
6.44
0
VERTEX
10
9.22151
20
9.3568
30
6.44
0
VERTEX
10
9.22511
20
9.36041
30
6.44
0
VERTEX
10
9.23955
20
9.36582
30
6.44
0
VERTEX
10
9.25398
20
9.37484
30
6.44
0
VERTEX
10
9.28104
20
9.38386
30
6.44
0
VERTEX
10
9.33876
20
9.38566
30
6.44
0
VERTEX
10
9.36762
20
9.38386
30
6.44
0
VERTEX
10
9.39648
20
9.37845
30
6.44
0
VERTEX
10
9.45421
20
9.37845
30
6.44
0
VERTEX
10
9.48307
20
9.38025
30
6.44
0
VERTEX
10
9.4975
20
9.38205
30
6.44
0
VERTEX
10
9.51193
20
9.38747
30
6.44
0
VERTEX
10
9.53358
20
9.41092
30
6.44
0
VERTEX
10
9.53358
20
9.43978
30
6.44
0
VERTEX
10
9.53358
20
9.45421
30
6.44
0
VERTEX
10
9.53719
20
9.46864
30
6.44
0
VERTEX
10
9.5408
20
9.47586
30
6.44
0
VERTEX
10
9.5408
20
9.48307
30
6.44
0
VERTEX
10
9.5444
20
9.48668
30
6.44
0
VERTEX
10
9.54801
20
9.50111
30
6.44
0
VERTEX
10
9.55884
20
9.51193
30
6.44
0
VERTEX
10
9.55884
20
9.51554
30
6.44
0
VERTEX
10
9.56244
20
9.51915
30
6.44
0
VERTEX
10
9.56425
20
9.52636
30
6.44
0
VERTEX
10
9.56785
20
9.52997
30
6.44
0
VERTEX
10
9.57146
20
9.5444
30
6.44
0
VERTEX
10
9.57687
20
9.55162
30
6.44
0
VERTEX
10
9.57687
20
9.55523
30
6.44
0
VERTEX
10
9.58409
20
9.56244
30
6.44
0
VERTEX
10
9.59131
20
9.57687
30
6.44
0
VERTEX
10
9.59491
20
9.58048
30
6.44
0
VERTEX
10
9.59491
20
9.58409
30
6.44
0
VERTEX
10
9.61115
20
9.61295
30
6.44
0
VERTEX
10
9.62197
20
9.62558
30
6.44
0
VERTEX
10
9.62738
20
9.63279
30
6.44
0
VERTEX
10
9.65444
20
9.65264
30
6.44
0
VERTEX
10
9.66887
20
9.66166
30
6.44
0
VERTEX
10
9.6833
20
9.66707
30
6.44
0
VERTEX
10
9.69773
20
9.66887
30
6.44
0
VERTEX
10
9.70495
20
9.67248
30
6.44
0
VERTEX
10
9.70856
20
9.67609
30
6.44
0
VERTEX
10
9.72299
20
9.6797
30
6.44
0
VERTEX
10
9.7302
20
9.6833
30
6.44
0
VERTEX
10
9.73742
20
9.6833
30
6.44
0
VERTEX
10
9.76628
20
9.69232
30
6.44
0
VERTEX
10
9.76989
20
9.69232
30
6.44
0
VERTEX
10
9.7753
20
9.69773
30
6.44
0
VERTEX
10
9.80416
20
9.70315
30
6.44
0
VERTEX
10
9.86189
20
9.70495
30
6.44
0
VERTEX
10
9.91961
20
9.70134
30
6.44
0
VERTEX
10
9.94848
20
9.69954
30
6.44
0
VERTEX
10
9.96291
20
9.70315
30
6.44
0
VERTEX
10
9.97012
20
9.70315
30
6.44
0
VERTEX
10
9.97373
20
9.70675
30
6.44
0
VERTEX
10
9.97914
20
9.72119
30
6.44
0
VERTEX
10
9.97734
20
9.7284
30
6.44
0
VERTEX
10
9.97012
20
9.73562
30
6.44
0
VERTEX
10
9.96652
20
9.75005
30
6.44
0
VERTEX
10
9.96471
20
9.75726
30
6.44
0
VERTEX
10
9.93946
20
9.77891
30
6.44
0
VERTEX
10
9.93405
20
9.78432
30
6.44
0
VERTEX
10
9.92683
20
9.78613
30
6.44
0
VERTEX
10
9.92503
20
9.78973
30
6.44
0
VERTEX
10
9.92142
20
9.78973
30
6.44
0
VERTEX
10
9.91781
20
9.79334
30
6.44
0
VERTEX
10
9.9142
20
9.79334
30
6.44
0
VERTEX
10
9.91059
20
9.79695
30
6.44
0
VERTEX
10
9.90338
20
9.79695
30
6.44
0
VERTEX
10
9.88895
20
9.80236
30
6.44
0
VERTEX
10
9.88173
20
9.80416
30
6.44
0
VERTEX
10
9.8673
20
9.81318
30
6.44
0
VERTEX
10
9.83844
20
9.81499
30
6.44
0
VERTEX
10
9.82581
20
9.8204
30
6.44
0
VERTEX
10
9.81138
20
9.8222
30
6.44
0
VERTEX
10
9.80777
20
9.8222
30
6.44
0
VERTEX
10
9.80416
20
9.82581
30
6.44
0
VERTEX
10
9.7753
20
9.82942
30
6.44
0
VERTEX
10
9.71758
20
9.82762
30
6.44
0
VERTEX
10
9.65985
20
9.82942
30
6.44
0
VERTEX
10
9.65264
20
9.83122
30
6.44
0
VERTEX
10
9.64903
20
9.83483
30
6.44
0
VERTEX
10
9.59131
20
9.83844
30
6.44
0
VERTEX
10
9.5877
20
9.84205
30
6.44
0
VERTEX
10
9.58409
20
9.84205
30
6.44
0
VERTEX
10
9.57687
20
9.84746
30
6.44
0
VERTEX
10
9.54801
20
9.85828
30
6.44
0
VERTEX
10
9.53538
20
9.86369
30
6.44
0
VERTEX
10
9.50652
20
9.8673
30
6.44
0
VERTEX
10
9.49209
20
9.87452
30
6.44
0
VERTEX
10
9.46323
20
9.88173
30
6.44
0
VERTEX
10
9.45601
20
9.88534
30
6.44
0
VERTEX
10
9.39829
20
9.88714
30
6.44
0
VERTEX
10
9.36943
20
9.88714
30
6.44
0
VERTEX
10
9.35499
20
9.88534
30
6.44
0
VERTEX
10
9.34958
20
9.87993
30
6.44
0
VERTEX
10
9.33515
20
9.87993
30
6.44
0
VERTEX
10
9.32072
20
9.87632
30
6.44
0
VERTEX
10
9.31531
20
9.87091
30
6.44
0
VERTEX
10
9.30809
20
9.8691
30
6.44
0
VERTEX
10
9.30268
20
9.86369
30
6.44
0
VERTEX
10
9.29547
20
9.86189
30
6.44
0
VERTEX
10
9.2666
20
9.84024
30
6.44
0
VERTEX
10
9.25398
20
9.83122
30
6.44
0
VERTEX
10
9.24496
20
9.8222
30
6.44
0
VERTEX
10
9.23053
20
9.81318
30
6.44
0
VERTEX
10
9.22331
20
9.81138
30
6.44
0
VERTEX
10
9.20888
20
9.80236
30
6.44
0
VERTEX
10
9.18002
20
9.79154
30
6.44
0
VERTEX
10
9.16559
20
9.78793
30
6.44
0
VERTEX
10
9.15837
20
9.78252
30
6.44
0
VERTEX
10
9.12951
20
9.7735
30
6.44
0
VERTEX
10
9.11508
20
9.77169
30
6.44
0
VERTEX
10
9.11327
20
9.76809
30
6.44
0
VERTEX
10
9.09884
20
9.76448
30
6.44
0
VERTEX
10
9.09523
20
9.76087
30
6.44
0
VERTEX
10
9.0808
20
9.75726
30
6.44
0
VERTEX
10
9.0772
20
9.75726
30
6.44
0
VERTEX
10
9.06276
20
9.74644
30
6.44
0
VERTEX
10
9.05916
20
9.74283
30
6.44
0
VERTEX
10
9.04473
20
9.73742
30
6.44
0
VERTEX
10
9.01947
20
9.72119
30
6.44
0
VERTEX
10
9.01586
20
9.71758
30
6.44
0
VERTEX
10
9.00865
20
9.71577
30
6.44
0
VERTEX
10
8.99422
20
9.70495
30
6.44
0
VERTEX
10
8.97979
20
9.69773
30
6.44
0
VERTEX
10
8.95273
20
9.67789
30
6.44
0
VERTEX
10
8.94551
20
9.67609
30
6.44
0
VERTEX
10
8.91845
20
9.65985
30
6.44
0
VERTEX
10
8.90402
20
9.65264
30
6.44
0
VERTEX
10
8.90041
20
9.65264
30
6.44
0
VERTEX
10
8.87516
20
9.63279
30
6.44
0
VERTEX
10
8.86794
20
9.63099
30
6.44
0
VERTEX
10
8.85712
20
9.62017
30
6.44
0
VERTEX
10
8.84269
20
9.61476
30
6.44
0
VERTEX
10
8.83547
20
9.60934
30
6.44
0
VERTEX
10
8.83187
20
9.60934
30
6.44
0
VERTEX
10
8.82104
20
9.59672
30
6.44
0
VERTEX
10
8.81383
20
9.5895
30
6.44
0
VERTEX
10
8.7994
20
9.58048
30
6.44
0
VERTEX
10
8.78677
20
9.56605
30
6.44
0
VERTEX
10
8.78316
20
9.55884
30
6.44
0
VERTEX
10
8.77955
20
9.55884
30
6.44
0
VERTEX
10
8.77594
20
9.55523
30
6.44
0
VERTEX
10
8.77053
20
9.5408
30
6.44
0
VERTEX
10
8.76693
20
9.53358
30
6.44
0
VERTEX
10
8.76693
20
9.52636
30
6.44
0
VERTEX
10
8.76151
20
9.52095
30
6.44
0
VERTEX
10
8.75791
20
9.49209
30
6.44
0
VERTEX
10
8.75971
20
9.43437
30
6.44
0
VERTEX
10
8.75971
20
9.4055
30
6.44
0
VERTEX
10
8.7561
20
9.39829
30
6.44
0
VERTEX
10
8.7561
20
9.38386
30
6.44
0
VERTEX
10
8.7543
20
9.37664
30
6.44
0
VERTEX
10
8.74889
20
9.37484
30
6.44
0
VERTEX
10
8.73987
20
9.36041
30
6.44
0
VERTEX
10
8.73806
20
9.35319
30
6.44
0
VERTEX
10
8.73265
20
9.34598
30
6.44
0
VERTEX
10
8.72363
20
9.31711
30
6.44
0
VERTEX
10
8.72363
20
9.31351
30
6.44
0
VERTEX
10
8.72002
20
9.3117
30
6.44
0
VERTEX
10
8.71642
20
9.29727
30
6.44
0
VERTEX
10
8.7092
20
9.29547
30
6.44
0
VERTEX
10
8.69838
20
9.28464
30
6.44
0
VERTEX
10
8.68575
20
9.27021
30
6.44
0
VERTEX
10
8.67132
20
9.26119
30
6.44
0
VERTEX
10
8.64246
20
9.25037
30
6.44
0
VERTEX
10
8.63885
20
9.25037
30
6.44
0
VERTEX
10
8.63524
20
9.24676
30
6.44
0
VERTEX
10
8.60638
20
9.24496
30
6.44
0
VERTEX
10
8.60277
20
9.24496
30
6.44
0
VERTEX
10
8.59916
20
9.24135
30
6.44
0
VERTEX
10
8.5703
20
9.23774
30
6.44
0
VERTEX
10
8.54144
20
9.23774
30
6.44
0
VERTEX
10
8.52701
20
9.23594
30
6.44
0
VERTEX
10
8.51979
20
9.23594
30
6.44
0
VERTEX
10
8.51618
20
9.23594
30
6.44
0
VERTEX
10
8.51258
20
9.23233
30
6.44
0
VERTEX
10
8.45485
20
9.23053
30
6.44
0
VERTEX
10
8.44764
20
9.22872
30
6.44
0
VERTEX
10
8.44403
20
9.22872
30
6.44
0
VERTEX
10
8.43681
20
9.22331
30
6.44
0
VERTEX
10
8.4296
20
9.22151
30
6.44
0
VERTEX
10
8.42419
20
9.21429
30
6.44
0
VERTEX
10
8.41877
20
9.21068
30
6.44
0
VERTEX
10
8.40975
20
9.19625
30
6.44
0
VERTEX
10
8.40615
20
9.18904
30
6.44
0
VERTEX
10
8.40434
20
9.16017
30
6.44
0
VERTEX
10
8.40254
20
9.14574
30
6.44
0
VERTEX
10
8.40254
20
9.13853
30
6.44
0
VERTEX
10
8.39893
20
9.13131
30
6.44
0
VERTEX
10
8.39713
20
9.11688
30
6.44
0
VERTEX
10
8.39532
20
9.10967
30
6.44
0
VERTEX
10
8.39532
20
9.10606
30
6.44
0
VERTEX
10
8.39172
20
9.10245
30
6.44
0
VERTEX
10
8.38991
20
9.07359
30
6.44
0
VERTEX
10
8.38991
20
9.06637
30
6.44
0
VERTEX
10
8.38991
20
9.06457
30
6.44
0
SEQEND
0
POLYLINE
62
224
66
1
70
1
3
mitochondrion
0
VERTEX
10
9.06282
20
9.5314
30
6.44
0
VERTEX
10
9.06421
20
9.52027
30
6.44
0
VERTEX
10
9.06699
20
9.51471
30
6.44
0
VERTEX
10
9.06699
20
9.50915
30
6.44
0
VERTEX
10
9.06838
20
9.50637
30
6.44
0
VERTEX
10
9.06699
20
9.50081
30
6.44
0
VERTEX
10
9.06699
20
9.49803
30
6.44
0
VERTEX
10
9.06977
20
9.49664
30
6.44
0
VERTEX
10
9.07395
20
9.47439
30
6.44
0
VERTEX
10
9.07812
20
9.46327
30
6.44
0
VERTEX
10
9.08785
20
9.45353
30
6.44
0
VERTEX
10
9.09341
20
9.44797
30
6.44
0
VERTEX
10
9.09341
20
9.44519
30
6.44
0
VERTEX
10
9.11288
20
9.43129
30
6.44
0
VERTEX
10
9.11705
20
9.42572
30
6.44
0
VERTEX
10
9.12261
20
9.42294
30
6.44
0
VERTEX
10
9.13373
20
9.42294
30
6.44
0
VERTEX
10
9.14486
20
9.42016
30
6.44
0
VERTEX
10
9.18935
20
9.42155
30
6.44
0
VERTEX
10
9.19491
20
9.42155
30
6.44
0
VERTEX
10
9.21577
20
9.43268
30
6.44
0
VERTEX
10
9.2255
20
9.43963
30
6.44
0
VERTEX
10
9.23524
20
9.44936
30
6.44
0
VERTEX
10
9.2408
20
9.45214
30
6.44
0
VERTEX
10
9.24914
20
9.46327
30
6.44
0
VERTEX
10
9.25192
20
9.46883
30
6.44
0
VERTEX
10
9.2547
20
9.47022
30
6.44
0
VERTEX
10
9.2547
20
9.473
30
6.44
0
VERTEX
10
9.25748
20
9.47578
30
6.44
0
VERTEX
10
9.25748
20
9.47856
30
6.44
0
VERTEX
10
9.26026
20
9.48134
30
6.44
0
VERTEX
10
9.26304
20
9.49246
30
6.44
0
VERTEX
10
9.27139
20
9.50081
30
6.44
0
VERTEX
10
9.27278
20
9.51193
30
6.44
0
VERTEX
10
9.27556
20
9.51749
30
6.44
0
VERTEX
10
9.27139
20
9.56199
30
6.44
0
VERTEX
10
9.26722
20
9.58423
30
6.44
0
VERTEX
10
9.2547
20
9.60509
30
6.44
0
VERTEX
10
9.24358
20
9.61343
30
6.44
0
VERTEX
10
9.23663
20
9.62038
30
6.44
0
VERTEX
10
9.2255
20
9.62177
30
6.44
0
VERTEX
10
9.20326
20
9.62873
30
6.44
0
VERTEX
10
9.19213
20
9.6329
30
6.44
0
VERTEX
10
9.16989
20
9.63429
30
6.44
0
VERTEX
10
9.16432
20
9.6329
30
6.44
0
VERTEX
10
9.16154
20
9.6329
30
6.44
0
VERTEX
10
9.15876
20
9.63012
30
6.44
0
VERTEX
10
9.1532
20
9.63012
30
6.44
0
VERTEX
10
9.13095
20
9.62038
30
6.44
0
VERTEX
10
9.12539
20
9.62038
30
6.44
0
VERTEX
10
9.11983
20
9.6176
30
6.44
0
VERTEX
10
9.11705
20
9.6176
30
6.44
0
VERTEX
10
9.11427
20
9.61482
30
6.44
0
VERTEX
10
9.10314
20
9.61065
30
6.44
0
VERTEX
10
9.10036
20
9.60787
30
6.44
0
VERTEX
10
9.09758
20
9.60787
30
6.44
0
VERTEX
10
9.08646
20
9.59953
30
6.44
0
VERTEX
10
9.08229
20
9.59675
30
6.44
0
VERTEX
10
9.06699
20
9.5745
30
6.44
0
VERTEX
10
9.0656
20
9.56894
30
6.44
0
VERTEX
10
9.0656
20
9.56616
30
6.44
0
VERTEX
10
9.06282
20
9.56477
30
6.44
0
VERTEX
10
9.06282
20
9.54252
30
6.44
0
VERTEX
10
9.06282
20
9.53279
30
6.44
0
SEQEND
0
POLYLINE
62
236
66
1
70
1
3
postsynaptic_density
0
VERTEX
10
8.34951
20
9.08854
30
6.44
0
VERTEX
10
8.35138
20
9.05868
30
6.44
0
VERTEX
10
8.36071
20
9.04375
30
6.44
0
VERTEX
10
8.37564
20
9.03442
30
6.44
0
VERTEX
10
8.4055
20
9.04002
30
6.44
0
VERTEX
10
8.40923
20
9.04375
30
6.44
0
VERTEX
10
8.40923
20
9.04749
30
6.44
0
VERTEX
10
8.4167
20
9.05308
30
6.44
0
VERTEX
10
8.4167
20
9.05682
30
6.44
0
VERTEX
10
8.43723
20
9.08108
30
6.44
0
VERTEX
10
8.44469
20
9.08294
30
6.44
0
VERTEX
10
8.44656
20
9.08668
30
6.44
0
VERTEX
10
8.44469
20
9.10161
30
6.44
0
VERTEX
10
8.4223
20
9.12773
30
6.44
0
VERTEX
10
8.4111
20
9.13706
30
6.44
0
VERTEX
10
8.39617
20
9.13893
30
6.44
0
VERTEX
10
8.38871
20
9.14266
30
6.44
0
VERTEX
10
8.37378
20
9.14266
30
6.44
0
VERTEX
10
8.36818
20
9.13706
30
6.44
0
VERTEX
10
8.35698
20
9.1072
30
6.44
0
VERTEX
10
8.34951
20
9.09227
30
6.44
0
VERTEX
10
8.34951
20
9.09041
30
6.44
0
SEQEND
0
POLYLINE
62
227
66
1
70
1
3
endoplasmic_reticulum
0
VERTEX
10
9.24877
20
9.63787
30
6.44
0
VERTEX
10
9.25236
20
9.6307
30
6.44
0
VERTEX
10
9.25953
20
9.62442
30
6.44
0
VERTEX
10
9.26491
20
9.61904
30
6.44
0
VERTEX
10
9.27208
20
9.61456
30
6.44
0
VERTEX
10
9.27925
20
9.61277
30
6.44
0
VERTEX
10
9.2936
20
9.61366
30
6.44
0
VERTEX
10
9.29808
20
9.61904
30
6.44
0
VERTEX
10
9.30167
20
9.62173
30
6.44
0
VERTEX
10
9.30346
20
9.62532
30
6.44
0
VERTEX
10
9.30346
20
9.63249
30
6.44
0
VERTEX
10
9.30346
20
9.63428
30
6.44
0
VERTEX
10
9.30167
20
9.63608
30
6.44
0
VERTEX
10
9.30167
20
9.63787
30
6.44
0
VERTEX
10
9.29898
20
9.64146
30
6.44
0
VERTEX
10
9.29718
20
9.64235
30
6.44
0
VERTEX
10
9.29718
20
9.64415
30
6.44
0
VERTEX
10
9.2936
20
9.64684
30
6.44
0
VERTEX
10
9.28911
20
9.65401
30
6.44
0
VERTEX
10
9.28284
20
9.65849
30
6.44
0
VERTEX
10
9.27567
20
9.66118
30
6.44
0
VERTEX
10
9.26132
20
9.65849
30
6.44
0
VERTEX
10
9.25774
20
9.65759
30
6.44
0
VERTEX
10
9.25146
20
9.65132
30
6.44
0
VERTEX
10
9.24877
20
9.64415
30
6.44
0
VERTEX
10
9.24877
20
9.64056
30
6.44
0
VERTEX
10
9.24877
20
9.63877
30
6.44
0
SEQEND
0
POLYLINE
62
227
66
1
70
1
3
endoplasmic_reticulum
0
VERTEX
10
9.10174
20
9.67015
30
6.44
0
VERTEX
10
9.10622
20
9.66387
30
6.44
0
VERTEX
10
9.10891
20
9.66118
30
6.44
0
VERTEX
10
9.1376
20
9.65849
30
6.44
0
VERTEX
10
9.15194
20
9.65401
30
6.44
0
VERTEX
10
9.15553
20
9.65311
30
6.44
0
VERTEX
10
9.1627
20
9.65401
30
6.44
0
VERTEX
10
9.16449
20
9.65311
30
6.44
0
VERTEX
10
9.16629
20
9.65401
30
6.44
0
VERTEX
10
9.16629
20
9.66118
30
6.44
0
VERTEX
10
9.1618
20
9.66746
30
6.44
0
VERTEX
10
9.15822
20
9.67015
30
6.44
0
VERTEX
10
9.15553
20
9.67104
30
6.44
0
VERTEX
10
9.15284
20
9.67373
30
6.44
0
VERTEX
10
9.15105
20
9.67373
30
6.44
0
VERTEX
10
9.14477
20
9.67822
30
6.44
0
VERTEX
10
9.13849
20
9.68539
30
6.44
0
VERTEX
10
9.13222
20
9.68987
30
6.44
0
VERTEX
10
9.11787
20
9.69166
30
6.44
0
VERTEX
10
9.1107
20
9.69166
30
6.44
0
VERTEX
10
9.10712
20
9.69256
30
6.44
0
VERTEX
10
9.10532
20
9.69256
30
6.44
0
VERTEX
10
9.10263
20
9.68897
30
6.44
0
VERTEX
10
9.10174
20
9.67463
30
6.44
0
VERTEX
10
9.10174
20
9.67104
30
6.44
0
SEQEND
0
POLYLINE
62
227
66
1
70
1
3
endoplasmic_reticulum
0
VERTEX
10
8.91974
20
9.51415
30
6.44
0
VERTEX
10
8.92153
20
9.51056
30
6.44
0
VERTEX
10
8.93408
20
9.49891
30
6.44
0
VERTEX
10
8.94036
20
9.49353
30
6.44
0
VERTEX
10
8.94394
20
9.48994
30
6.44
0
VERTEX
10
8.95829
20
9.48815
30
6.44
0
VERTEX
10
8.96546
20
9.48366
30
6.44
0
VERTEX
10
8.96905
20
9.48277
30
6.44
0
VERTEX
10
8.97084
20
9.48098
30
6.44
0
VERTEX
10
8.97443
20
9.48098
30
6.44
0
VERTEX
10
8.98787
20
9.47111
30
6.44
0
VERTEX
10
9.01208
20
9.44242
30
6.44
0
VERTEX
10
9.01925
20
9.43794
30
6.44
0
VERTEX
10
9.02284
20
9.43525
30
6.44
0
VERTEX
10
9.02463
20
9.43525
30
6.44
0
VERTEX
10
9.03181
20
9.43077
30
6.44
0
VERTEX
10
9.03539
20
9.42987
30
6.44
0
VERTEX
10
9.04974
20
9.43167
30
6.44
0
VERTEX
10
9.05691
20
9.43346
30
6.44
0
VERTEX
10
9.05781
20
9.44063
30
6.44
0
VERTEX
10
9.05691
20
9.4478
30
6.44
0
VERTEX
10
9.05063
20
9.46215
30
6.44
0
VERTEX
10
9.04705
20
9.47649
30
6.44
0
VERTEX
10
9.04615
20
9.48366
30
6.44
0
VERTEX
10
9.04167
20
9.49084
30
6.44
0
VERTEX
10
9.03718
20
9.49622
30
6.44
0
VERTEX
10
9.0345
20
9.4998
30
6.44
0
VERTEX
10
9.0345
20
9.5016
30
6.44
0
VERTEX
10
9.02105
20
9.51146
30
6.44
0
VERTEX
10
9.0076
20
9.52311
30
6.44
0
VERTEX
10
9.00491
20
9.5267
30
6.44
0
VERTEX
10
9.00132
20
9.5276
30
6.44
0
VERTEX
10
8.99953
20
9.52939
30
6.44
0
VERTEX
10
8.99863
20
9.53297
30
6.44
0
VERTEX
10
8.98519
20
9.54553
30
6.44
0
VERTEX
10
8.98519
20
9.54732
30
6.44
0
VERTEX
10
8.97801
20
9.5518
30
6.44
0
VERTEX
10
8.97622
20
9.5536
30
6.44
0
VERTEX
10
8.96187
20
9.55897
30
6.44
0
VERTEX
10
8.95829
20
9.56077
30
6.44
0
VERTEX
10
8.95291
20
9.56704
30
6.44
0
VERTEX
10
8.94574
20
9.57063
30
6.44
0
VERTEX
10
8.94215
20
9.57242
30
6.44
0
VERTEX
10
8.92781
20
9.56704
30
6.44
0
VERTEX
10
8.92422
20
9.56704
30
6.44
0
VERTEX
10
8.92063
20
9.56525
30
6.44
0
VERTEX
10
8.91974
20
9.53656
30
6.44
0
VERTEX
10
8.91974
20
9.52222
30
6.44
0
VERTEX
10
8.91974
20
9.51504
30
6.44
0
SEQEND
0
POLYLINE
62
227
66
1
70
1
3
endoplasmic_reticulum
0
VERTEX
10
10.3371
20
9.52015
30
6.44
0
VERTEX
10
10.3381
20
9.5127
30
6.44
0
VERTEX
10
10.3381
20
9.50898
30
6.44
0
VERTEX
10
10.3409
20
9.50154
30
6.44
0
VERTEX
10
10.3464
20
9.49688
30
6.44
0
VERTEX
10
10.3502
20
9.49409
30
6.44
0
VERTEX
10
10.3576
20
9.49223
30
6.44
0
VERTEX
10
10.3651
20
9.48851
30
6.44
0
VERTEX
10
10.3688
20
9.48572
30
6.44
0
VERTEX
10
10.3725
20
9.48479
30
6.44
0
VERTEX
10
10.3799
20
9.48758
30
6.44
0
VERTEX
10
10.3837
20
9.48851
30
6.44
0
VERTEX
10
10.3846
20
9.49037
30
6.44
0
VERTEX
10
10.3865
20
9.49037
30
6.44
0
VERTEX
10
10.3874
20
9.49781
30
6.44
0
VERTEX
10
10.3865
20
9.50154
30
6.44
0
VERTEX
10
10.3865
20
9.5034
30
6.44
0
VERTEX
10
10.3837
20
9.50712
30
6.44
0
VERTEX
10
10.3827
20
9.51456
30
6.44
0
VERTEX
10
10.3809
20
9.51642
30
6.44
0
VERTEX
10
10.3809
20
9.52015
30
6.44
0
VERTEX
10
10.3781
20
9.52387
30
6.44
0
VERTEX
10
10.3706
20
9.52666
30
6.44
0
VERTEX
10
10.3669
20
9.52852
30
6.44
0
VERTEX
10
10.3632
20
9.52852
30
6.44
0
VERTEX
10
10.3613
20
9.52852
30
6.44
0
VERTEX
10
10.3595
20
9.53038
30
6.44
0
VERTEX
10
10.352
20
9.53224
30
6.44
0
VERTEX
10
10.3483
20
9.53317
30
6.44
0
VERTEX
10
10.3464
20
9.53317
30
6.44
0
VERTEX
10
10.3437
20
9.53038
30
6.44
0
VERTEX
10
10.3399
20
9.52945
30
6.44
0
VERTEX
10
10.3371
20
9.52573
30
6.44
0
VERTEX
10
10.3371
20
9.52201
30
6.44
0
VERTEX
10
10.3371
20
9.52108
30
6.44
0
SEQEND
0
ENDSEC
0
EOF
