0
SECTION
2
ENTITIES
0
POLYLINE
62
31
66
1
70
1
3
contour
0
VERTEX
10
8.80298
20
8.67437
30
4.84
0
VERTEX
10
8.80963
20
8.66772
30
4.84
0
VERTEX
10
8.8185
20
8.6655
30
4.84
0
VERTEX
10
8.82737
20
8.65663
30
4.84
0
VERTEX
10
8.84511
20
8.64776
30
4.84
0
VERTEX
10
8.86284
20
8.64332
30
4.84
0
VERTEX
10
8.87171
20
8.64332
30
4.84
0
VERTEX
10
8.87615
20
8.64332
30
4.84
0
VERTEX
10
8.88058
20
8.63889
30
4.84
0
VERTEX
10
8.88058
20
8.63446
30
4.84
0
VERTEX
10
8.88502
20
8.63002
30
4.84
0
VERTEX
10
8.89389
20
8.63002
30
4.84
0
VERTEX
10
8.90054
20
8.62115
30
4.84
0
VERTEX
10
8.9715
20
8.59011
30
4.84
0
VERTEX
10
8.98924
20
8.5768
30
4.84
0
VERTEX
10
9.02471
20
8.5768
30
4.84
0
VERTEX
10
9.03358
20
8.58346
30
4.84
0
VERTEX
10
9.05132
20
8.58789
30
4.84
0
VERTEX
10
9.05354
20
8.59233
30
4.84
0
VERTEX
10
9.07128
20
8.59898
30
4.84
0
VERTEX
10
9.08902
20
8.61006
30
4.84
0
VERTEX
10
9.09567
20
8.61893
30
4.84
0
VERTEX
10
9.1001
20
8.62337
30
4.84
0
VERTEX
10
9.1001
20
8.6278
30
4.84
0
VERTEX
10
9.10897
20
8.63224
30
4.84
0
VERTEX
10
9.12671
20
8.64776
30
4.84
0
VERTEX
10
9.15997
20
8.66993
30
4.84
0
VERTEX
10
9.17771
20
8.67437
30
4.84
0
VERTEX
10
9.18215
20
8.6788
30
4.84
0
VERTEX
10
9.18658
20
8.6788
30
4.84
0
VERTEX
10
9.19102
20
8.68324
30
4.84
0
VERTEX
10
9.19545
20
8.68324
30
4.84
0
VERTEX
10
9.20432
20
8.68989
30
4.84
0
VERTEX
10
9.20876
20
8.69432
30
4.84
0
VERTEX
10
9.21762
20
8.69654
30
4.84
0
VERTEX
10
9.22206
20
8.69654
30
4.84
0
VERTEX
10
9.22649
20
8.70098
30
4.84
0
VERTEX
10
9.29745
20
8.69654
30
4.84
0
VERTEX
10
9.33293
20
8.69654
30
4.84
0
VERTEX
10
9.35067
20
8.70319
30
4.84
0
VERTEX
10
9.38393
20
8.7298
30
4.84
0
VERTEX
10
9.39945
20
8.74532
30
4.84
0
VERTEX
10
9.40167
20
8.75419
30
4.84
0
VERTEX
10
9.41719
20
8.77193
30
4.84
0
VERTEX
10
9.44158
20
8.80298
30
4.84
0
VERTEX
10
9.45488
20
8.82071
30
4.84
0
VERTEX
10
9.4571
20
8.82515
30
4.84
0
VERTEX
10
9.46154
20
8.82515
30
4.84
0
VERTEX
10
9.46819
20
8.8318
30
4.84
0
VERTEX
10
9.47262
20
8.8318
30
4.84
0
VERTEX
10
9.48814
20
8.84732
30
4.84
0
VERTEX
10
9.4948
20
8.85619
30
4.84
0
VERTEX
10
9.51254
20
8.86063
30
4.84
0
VERTEX
10
9.51697
20
8.86506
30
4.84
0
VERTEX
10
9.55245
20
8.88058
30
4.84
0
VERTEX
10
9.56132
20
8.88945
30
4.84
0
VERTEX
10
9.56575
20
8.90719
30
4.84
0
VERTEX
10
9.56353
20
8.97815
30
4.84
0
VERTEX
10
9.55467
20
8.9848
30
4.84
0
VERTEX
10
9.55245
20
9.00254
30
4.84
0
VERTEX
10
9.55245
20
9.00697
30
4.84
0
VERTEX
10
9.54136
20
9.02471
30
4.84
0
VERTEX
10
9.53249
20
9.03358
30
4.84
0
VERTEX
10
9.53249
20
9.03802
30
4.84
0
VERTEX
10
9.52584
20
9.04689
30
4.84
0
VERTEX
10
9.5081
20
9.05576
30
4.84
0
VERTEX
10
9.49923
20
9.05797
30
4.84
0
VERTEX
10
9.4948
20
9.05797
30
4.84
0
VERTEX
10
9.48593
20
9.06463
30
4.84
0
VERTEX
10
9.45045
20
9.07571
30
4.84
0
VERTEX
10
9.43271
20
9.08458
30
4.84
0
VERTEX
10
9.42384
20
9.08458
30
4.84
0
VERTEX
10
9.38836
20
9.09789
30
4.84
0
VERTEX
10
9.35288
20
9.09789
30
4.84
0
VERTEX
10
9.31741
20
9.10232
30
4.84
0
VERTEX
10
9.24645
20
9.09567
30
4.84
0
VERTEX
10
9.24202
20
9.09567
30
4.84
0
VERTEX
10
9.2398
20
9.09123
30
4.84
0
VERTEX
10
9.20432
20
9.08458
30
4.84
0
VERTEX
10
9.18658
20
9.08458
30
4.84
0
VERTEX
10
9.1511
20
9.0735
30
4.84
0
VERTEX
10
9.13336
20
9.06684
30
4.84
0
VERTEX
10
9.11563
20
9.05576
30
4.84
0
VERTEX
10
9.08015
20
9.04245
30
4.84
0
VERTEX
10
9.04467
20
9.04245
30
4.84
0
VERTEX
10
9.0358
20
9.04245
30
4.84
0
VERTEX
10
9.01806
20
9.03358
30
4.84
0
VERTEX
10
9.00254
20
9.02915
30
4.84
0
VERTEX
10
8.99367
20
9.02471
30
4.84
0
VERTEX
10
8.95819
20
9.02028
30
4.84
0
VERTEX
10
8.95376
20
9.01806
30
4.84
0
VERTEX
10
8.95819
20
9.01584
30
4.84
0
VERTEX
10
8.96706
20
9.01806
30
4.84
0
VERTEX
10
8.96928
20
9.00032
30
4.84
0
VERTEX
10
8.97593
20
8.98258
30
4.84
0
VERTEX
10
8.98924
20
8.96706
30
4.84
0
VERTEX
10
8.99367
20
8.95154
30
4.84
0
VERTEX
10
8.99145
20
8.91606
30
4.84
0
VERTEX
10
8.9848
20
8.89832
30
4.84
0
VERTEX
10
8.9848
20
8.88945
30
4.84
0
VERTEX
10
8.97815
20
8.87171
30
4.84
0
VERTEX
10
8.97593
20
8.86284
30
4.84
0
VERTEX
10
8.96041
20
8.84732
30
4.84
0
VERTEX
10
8.96041
20
8.84289
30
4.84
0
VERTEX
10
8.95154
20
8.84067
30
4.84
0
VERTEX
10
8.93602
20
8.82737
30
4.84
0
VERTEX
10
8.92715
20
8.82515
30
4.84
0
VERTEX
10
8.92271
20
8.82515
30
4.84
0
VERTEX
10
8.91384
20
8.8185
30
4.84
0
VERTEX
10
8.90497
20
8.81628
30
4.84
0
VERTEX
10
8.89832
20
8.80963
30
4.84
0
VERTEX
10
8.88945
20
8.80741
30
4.84
0
VERTEX
10
8.87615
20
8.79411
30
4.84
0
VERTEX
10
8.85841
20
8.78302
30
4.84
0
VERTEX
10
8.84954
20
8.77415
30
4.84
0
VERTEX
10
8.8318
20
8.7675
30
4.84
0
VERTEX
10
8.81628
20
8.75198
30
4.84
0
VERTEX
10
8.80519
20
8.73424
30
4.84
0
VERTEX
10
8.80298
20
8.69876
30
4.84
0
VERTEX
10
8.80298
20
8.68102
30
4.84
0
VERTEX
10
8.80298
20
8.67659
30
4.84
0
SEQEND
0
POLYLINE
62
31
66
1
70
1
3
contour
0
VERTEX
10
8.64015
20
9.32464
30
4.84
0
VERTEX
10
8.64489
20
9.31516
30
4.84
0
VERTEX
10
8.64489
20
9.30569
30
4.84
0
VERTEX
10
8.65436
20
9.28674
30
4.84
0
VERTEX
10
8.65436
20
9.28201
30
4.84
0
VERTEX
10
8.66147
20
9.27253
30
4.84
0
VERTEX
10
8.66621
20
9.25358
30
4.84
0
VERTEX
10
8.67331
20
9.24411
30
4.84
0
VERTEX
10
8.67568
20
9.23464
30
4.84
0
VERTEX
10
8.69226
20
9.21806
30
4.84
0
VERTEX
10
8.697
20
9.21332
30
4.84
0
VERTEX
10
8.70647
20
9.21095
30
4.84
0
VERTEX
10
8.72542
20
9.19674
30
4.84
0
VERTEX
10
8.73015
20
9.192
30
4.84
0
VERTEX
10
8.73489
20
9.192
30
4.84
0
VERTEX
10
8.73963
20
9.18727
30
4.84
0
VERTEX
10
8.77752
20
9.18016
30
4.84
0
VERTEX
10
8.85331
20
9.18253
30
4.84
0
VERTEX
10
8.89121
20
9.18253
30
4.84
0
VERTEX
10
8.90068
20
9.18253
30
4.84
0
VERTEX
10
8.90542
20
9.17779
30
4.84
0
VERTEX
10
8.94332
20
9.18253
30
4.84
0
VERTEX
10
8.96226
20
9.1849
30
4.84
0
VERTEX
10
8.97174
20
9.192
30
4.84
0
VERTEX
10
8.98121
20
9.19437
30
4.84
0
VERTEX
10
8.98832
20
9.20148
30
4.84
0
VERTEX
10
8.99779
20
9.20385
30
4.84
0
VERTEX
10
9.01674
20
9.21806
30
4.84
0
VERTEX
10
9.02384
20
9.22279
30
4.84
0
VERTEX
10
9.02858
20
9.22279
30
4.84
0
VERTEX
10
9.03805
20
9.2299
30
4.84
0
VERTEX
10
9.04279
20
9.23464
30
4.84
0
VERTEX
10
9.04753
20
9.23464
30
4.84
0
VERTEX
10
9.06411
20
9.24648
30
4.84
0
VERTEX
10
9.06884
20
9.25595
30
4.84
0
VERTEX
10
9.07832
20
9.26543
30
4.84
0
VERTEX
10
9.08779
20
9.28437
30
4.84
0
VERTEX
10
9.09253
20
9.30332
30
4.84
0
VERTEX
10
9.09253
20
9.34122
30
4.84
0
VERTEX
10
9.09253
20
9.36017
30
4.84
0
VERTEX
10
9.08542
20
9.37911
30
4.84
0
VERTEX
10
9.07832
20
9.38622
30
4.84
0
VERTEX
10
9.07832
20
9.39096
30
4.84
0
VERTEX
10
9.05937
20
9.4099
30
4.84
0
VERTEX
10
9.05937
20
9.41464
30
4.84
0
VERTEX
10
9.04516
20
9.42885
30
4.84
0
VERTEX
10
9.03569
20
9.43596
30
4.84
0
VERTEX
10
9.03095
20
9.44543
30
4.84
0
VERTEX
10
9.012
20
9.45727
30
4.84
0
VERTEX
10
8.97647
20
9.48806
30
4.84
0
VERTEX
10
8.96937
20
9.49517
30
4.84
0
VERTEX
10
8.95989
20
9.49754
30
4.84
0
VERTEX
10
8.95042
20
9.50701
30
4.84
0
VERTEX
10
8.93147
20
9.51885
30
4.84
0
VERTEX
10
8.92437
20
9.52833
30
4.84
0
VERTEX
10
8.90542
20
9.53543
30
4.84
0
VERTEX
10
8.86752
20
9.5378
30
4.84
0
VERTEX
10
8.84858
20
9.53306
30
4.84
0
VERTEX
10
8.8391
20
9.53069
30
4.84
0
VERTEX
10
8.82016
20
9.53543
30
4.84
0
VERTEX
10
8.78226
20
9.53306
30
4.84
0
VERTEX
10
8.76331
20
9.52833
30
4.84
0
VERTEX
10
8.75384
20
9.52833
30
4.84
0
VERTEX
10
8.74436
20
9.52359
30
4.84
0
VERTEX
10
8.73963
20
9.51885
30
4.84
0
VERTEX
10
8.73489
20
9.51885
30
4.84
0
VERTEX
10
8.71594
20
9.50464
30
4.84
0
VERTEX
10
8.68989
20
9.47148
30
4.84
0
VERTEX
10
8.68278
20
9.46438
30
4.84
0
VERTEX
10
8.68042
20
9.4549
30
4.84
0
VERTEX
10
8.68042
20
9.45017
30
4.84
0
VERTEX
10
8.67331
20
9.44069
30
4.84
0
VERTEX
10
8.67094
20
9.43122
30
4.84
0
VERTEX
10
8.66621
20
9.42648
30
4.84
0
VERTEX
10
8.66147
20
9.40753
30
4.84
0
VERTEX
10
8.66147
20
9.4028
30
4.84
0
VERTEX
10
8.65673
20
9.39806
30
4.84
0
VERTEX
10
8.65673
20
9.38859
30
4.84
0
VERTEX
10
8.64252
20
9.37201
30
4.84
0
VERTEX
10
8.64015
20
9.33411
30
4.84
0
VERTEX
10
8.64015
20
9.32701
30
4.84
0
SEQEND
0
POLYLINE
62
31
66
1
70
1
3
contour
0
VERTEX
10
9.8466
20
8.84728
30
4.84
0
VERTEX
10
9.85203
20
8.84185
30
4.84
0
VERTEX
10
9.85203
20
8.83098
30
4.84
0
VERTEX
10
9.8629
20
8.80926
30
4.84
0
VERTEX
10
9.86561
20
8.7984
30
4.84
0
VERTEX
10
9.87104
20
8.79297
30
4.84
0
VERTEX
10
9.88734
20
8.74952
30
4.84
0
VERTEX
10
9.90091
20
8.73051
30
4.84
0
VERTEX
10
9.90363
20
8.71965
30
4.84
0
VERTEX
10
9.91178
20
8.71693
30
4.84
0
VERTEX
10
9.92264
20
8.70607
30
4.84
0
VERTEX
10
9.92535
20
8.70064
30
4.84
0
VERTEX
10
9.93078
20
8.70064
30
4.84
0
VERTEX
10
9.94165
20
8.69249
30
4.84
0
VERTEX
10
9.95251
20
8.68978
30
4.84
0
VERTEX
10
9.97423
20
8.6762
30
4.84
0
VERTEX
10
9.97966
20
8.6762
30
4.84
0
VERTEX
10
9.99053
20
8.66534
30
4.84
0
VERTEX
10
10.034
20
8.65447
30
4.84
0
VERTEX
10
10.0448
20
8.65176
30
4.84
0
VERTEX
10
10.0503
20
8.64633
30
4.84
0
VERTEX
10
10.1372
20
8.6409
30
4.84
0
VERTEX
10
10.1806
20
8.6409
30
4.84
0
VERTEX
10
10.2023
20
8.6409
30
4.84
0
VERTEX
10
10.2132
20
8.63818
30
4.84
0
VERTEX
10
10.2567
20
8.64633
30
4.84
0
VERTEX
10
10.3435
20
8.64361
30
4.84
0
VERTEX
10
10.349
20
8.64361
30
4.84
0
VERTEX
10
10.3544
20
8.64904
30
4.84
0
VERTEX
10
10.3653
20
8.64904
30
4.84
0
VERTEX
10
10.4087
20
8.66805
30
4.84
0
VERTEX
10
10.4522
20
8.69249
30
4.84
0
VERTEX
10
10.4712
20
8.7115
30
4.84
0
VERTEX
10
10.4793
20
8.72236
30
4.84
0
VERTEX
10
10.4848
20
8.72236
30
4.84
0
VERTEX
10
10.5038
20
8.73594
30
4.84
0
VERTEX
10
10.5255
20
8.74409
30
4.84
0
VERTEX
10
10.5472
20
8.76038
30
4.84
0
VERTEX
10
10.5662
20
8.7821
30
4.84
0
VERTEX
10
10.5798
20
8.80111
30
4.84
0
VERTEX
10
10.5879
20
8.81198
30
4.84
0
VERTEX
10
10.5907
20
8.81741
30
4.84
0
VERTEX
10
10.5961
20
8.81741
30
4.84
0
VERTEX
10
10.6097
20
8.83642
30
4.84
0
VERTEX
10
10.6151
20
8.83642
30
4.84
0
VERTEX
10
10.6314
20
8.85542
30
4.84
0
VERTEX
10
10.6341
20
8.87715
30
4.84
0
VERTEX
10
10.6287
20
8.9206
30
4.84
0
VERTEX
10
10.6287
20
8.93146
30
4.84
0
VERTEX
10
10.6205
20
8.94232
30
4.84
0
VERTEX
10
10.6205
20
8.94775
30
4.84
0
VERTEX
10
10.6151
20
8.95318
30
4.84
0
VERTEX
10
10.6042
20
8.9559
30
4.84
0
VERTEX
10
10.5961
20
8.96405
30
4.84
0
VERTEX
10
10.5526
20
8.97491
30
4.84
0
VERTEX
10
10.5146
20
9.00478
30
4.84
0
VERTEX
10
10.5038
20
9.01293
30
4.84
0
VERTEX
10
10.4983
20
9.01836
30
4.84
0
VERTEX
10
10.4929
20
9.01836
30
4.84
0
VERTEX
10
10.4875
20
9.02379
30
4.84
0
VERTEX
10
10.4006
20
9.03465
30
4.84
0
VERTEX
10
10.3789
20
9.03465
30
4.84
0
VERTEX
10
10.368
20
9.03465
30
4.84
0
VERTEX
10
10.3626
20
9.04008
30
4.84
0
VERTEX
10
10.2757
20
9.0428
30
4.84
0
VERTEX
10
10.2322
20
9.05638
30
4.84
0
VERTEX
10
10.2268
20
9.05638
30
4.84
0
VERTEX
10
10.2213
20
9.06181
30
4.84
0
VERTEX
10
10.1996
20
9.06452
30
4.84
0
VERTEX
10
10.1562
20
9.0781
30
4.84
0
VERTEX
10
10.1453
20
9.08353
30
4.84
0
VERTEX
10
10.1019
20
9.08896
30
4.84
0
VERTEX
10
10.0584
20
9.08896
30
4.84
0
VERTEX
10
10.0367
20
9.08625
30
4.84
0
VERTEX
10
10.0313
20
9.08353
30
4.84
0
VERTEX
10
10.0231
20
9.09168
30
4.84
0
VERTEX
10
10.0014
20
9.09439
30
4.84
0
VERTEX
10
9.97966
20
9.09168
30
4.84
0
VERTEX
10
9.95794
20
9.08353
30
4.84
0
VERTEX
10
9.93893
20
9.04008
30
4.84
0
VERTEX
10
9.92264
20
9.01836
30
4.84
0
VERTEX
10
9.91449
20
9.0075
30
4.84
0
VERTEX
10
9.90906
20
9.00478
30
4.84
0
VERTEX
10
9.90091
20
8.98306
30
4.84
0
VERTEX
10
9.89548
20
8.97219
30
4.84
0
VERTEX
10
9.89548
20
8.92874
30
4.84
0
VERTEX
10
9.89005
20
8.90702
30
4.84
0
VERTEX
10
9.87919
20
8.88801
30
4.84
0
VERTEX
10
9.86018
20
8.87443
30
4.84
0
VERTEX
10
9.84932
20
8.86357
30
4.84
0
VERTEX
10
9.8466
20
8.85271
30
4.84
0
VERTEX
10
9.8466
20
8.84999
30
4.84
0
SEQEND
0
POLYLINE
62
224
66
1
70
1
3
mitochondrion
0
VERTEX
10
9.17267
20
8.91266
30
4.84
0
VERTEX
10
9.17823
20
8.89041
30
4.84
0
VERTEX
10
9.17962
20
8.87929
30
4.84
0
VERTEX
10
9.18101
20
8.87372
30
4.84
0
VERTEX
10
9.18657
20
8.86816
30
4.84
0
VERTEX
10
9.20047
20
8.84731
30
4.84
0
VERTEX
10
9.20326
20
8.84174
30
4.84
0
VERTEX
10
9.20604
20
8.83896
30
4.84
0
VERTEX
10
9.20882
20
8.83896
30
4.84
0
VERTEX
10
9.22967
20
8.82089
30
4.84
0
VERTEX
10
9.2408
20
8.81394
30
4.84
0
VERTEX
10
9.26304
20
8.80559
30
4.84
0
VERTEX
10
9.27417
20
8.80142
30
4.84
0
VERTEX
10
9.28529
20
8.80003
30
4.84
0
VERTEX
10
9.32978
20
8.80837
30
4.84
0
VERTEX
10
9.35064
20
8.82089
30
4.84
0
VERTEX
10
9.35342
20
8.82089
30
4.84
0
VERTEX
10
9.3562
20
8.82367
30
4.84
0
VERTEX
10
9.35898
20
8.82367
30
4.84
0
VERTEX
10
9.36176
20
8.82645
30
4.84
0
VERTEX
10
9.37289
20
8.82923
30
4.84
0
VERTEX
10
9.37845
20
8.8334
30
4.84
0
VERTEX
10
9.37845
20
8.83618
30
4.84
0
VERTEX
10
9.38401
20
8.84035
30
4.84
0
VERTEX
10
9.38401
20
8.84313
30
4.84
0
VERTEX
10
9.38818
20
8.8487
30
4.84
0
VERTEX
10
9.39096
20
8.85982
30
4.84
0
VERTEX
10
9.39374
20
8.86538
30
4.84
0
VERTEX
10
9.39792
20
8.90987
30
4.84
0
VERTEX
10
9.39653
20
8.93212
30
4.84
0
VERTEX
10
9.39653
20
8.9349
30
4.84
0
VERTEX
10
9.39374
20
8.93768
30
4.84
0
VERTEX
10
9.39235
20
8.94325
30
4.84
0
VERTEX
10
9.3854
20
8.95298
30
4.84
0
VERTEX
10
9.38262
20
8.95298
30
4.84
0
VERTEX
10
9.36733
20
8.97383
30
4.84
0
VERTEX
10
9.35759
20
8.98218
30
4.84
0
VERTEX
10
9.33535
20
8.99052
30
4.84
0
VERTEX
10
9.32422
20
8.99469
30
4.84
0
VERTEX
10
9.31866
20
8.99608
30
4.84
0
VERTEX
10
9.31588
20
8.99886
30
4.84
0
VERTEX
10
9.27139
20
8.99886
30
4.84
0
VERTEX
10
9.26026
20
8.99886
30
4.84
0
VERTEX
10
9.2547
20
8.99886
30
4.84
0
VERTEX
10
9.25192
20
8.99608
30
4.84
0
VERTEX
10
9.2408
20
8.99469
30
4.84
0
VERTEX
10
9.23802
20
8.99469
30
4.84
0
VERTEX
10
9.23385
20
8.98913
30
4.84
0
VERTEX
10
9.22828
20
8.98635
30
4.84
0
VERTEX
10
9.2255
20
8.98635
30
4.84
0
VERTEX
10
9.22272
20
8.98357
30
4.84
0
VERTEX
10
9.21716
20
8.98357
30
4.84
0
VERTEX
10
9.20743
20
8.97662
30
4.84
0
VERTEX
10
9.18935
20
8.95576
30
4.84
0
VERTEX
10
9.18518
20
8.9502
30
4.84
0
VERTEX
10
9.18518
20
8.94742
30
4.84
0
VERTEX
10
9.17684
20
8.93629
30
4.84
0
VERTEX
10
9.17267
20
8.93073
30
4.84
0
VERTEX
10
9.17267
20
8.91961
30
4.84
0
VERTEX
10
9.17267
20
8.91405
30
4.84
0
SEQEND
0
POLYLINE
62
227
66
1
70
1
3
endoplasmic_reticulum
0
VERTEX
10
8.97184
20
8.74636
30
4.84
0
VERTEX
10
8.97946
20
8.7357
30
4.84
0
VERTEX
10
9.00383
20
8.7357
30
4.84
0
VERTEX
10
9.01602
20
8.73722
30
4.84
0
VERTEX
10
9.02212
20
8.74179
30
4.84
0
VERTEX
10
9.02516
20
8.74332
30
4.84
0
VERTEX
10
9.02516
20
8.74636
30
4.84
0
VERTEX
10
9.02973
20
8.75094
30
4.84
0
VERTEX
10
9.02973
20
8.76312
30
4.84
0
VERTEX
10
9.02821
20
8.76922
30
4.84
0
VERTEX
10
9.02212
20
8.77531
30
4.84
0
VERTEX
10
9.02059
20
8.7814
30
4.84
0
VERTEX
10
9.0145
20
8.78598
30
4.84
0
VERTEX
10
9.00231
20
8.7875
30
4.84
0
VERTEX
10
8.99622
20
8.7875
30
4.84
0
VERTEX
10
8.97641
20
8.76769
30
4.84
0
VERTEX
10
8.97184
20
8.76312
30
4.84
0
VERTEX
10
8.97184
20
8.75094
30
4.84
0
VERTEX
10
8.97184
20
8.74789
30
4.84
0
SEQEND
0
POLYLINE
62
227
66
1
70
1
3
endoplasmic_reticulum
0
VERTEX
10
9.93164
20
8.85758
30
4.84
0
VERTEX
10
9.93316
20
8.85606
30
4.84
0
VERTEX
10
9.93621
20
8.85758
30
4.84
0
VERTEX
10
9.93774
20
8.85453
30
4.84
0
VERTEX
10
9.93621
20
8.84234
30
4.84
0
VERTEX
10
9.93926
20
8.83625
30
4.84
0
VERTEX
10
9.96363
20
8.83168
30
4.84
0
VERTEX
10
9.97582
20
8.83016
30
4.84
0
VERTEX
10
10.0002
20
8.82102
30
4.84
0
VERTEX
10
10.0124
20
8.81645
30
4.84
0
VERTEX
10
10.0368
20
8.81797
30
4.84
0
VERTEX
10
10.0429
20
8.81949
30
4.84
0
VERTEX
10
10.0489
20
8.82406
30
4.84
0
VERTEX
10
10.055
20
8.83625
30
4.84
0
VERTEX
10
10.0596
20
8.84082
30
4.84
0
VERTEX
10
10.0596
20
8.84387
30
4.84
0
VERTEX
10
10.0429
20
8.8652
30
4.84
0
VERTEX
10
10.0368
20
8.8652
30
4.84
0
VERTEX
10
10.0246
20
8.86977
30
4.84
0
VERTEX
10
9.97582
20
8.86977
30
4.84
0
VERTEX
10
9.95145
20
8.8652
30
4.84
0
VERTEX
10
9.93926
20
8.86367
30
4.84
0
VERTEX
10
9.93316
20
8.86215
30
4.84
0
VERTEX
10
9.93164
20
8.8591
30
4.84
0
SEQEND
0
POLYLINE
62
227
66
1
70
1
3
endoplasmic_reticulum
0
VERTEX
10
9.00231
20
8.88653
30
4.84
0
VERTEX
10
9.00536
20
8.88043
30
4.84
0
VERTEX
10
9.01755
20
8.87891
30
4.84
0
VERTEX
10
9.02973
20
8.88043
30
4.84
0
VERTEX
10
9.03583
20
8.88043
30
4.84
0
VERTEX
10
9.0404
20
8.88653
30
4.84
0
VERTEX
10
9.04649
20
8.88653
30
4.84
0
VERTEX
10
9.05259
20
8.88957
30
4.84
0
VERTEX
10
9.05563
20
8.88957
30
4.84
0
VERTEX
10
9.06782
20
8.89871
30
4.84
0
VERTEX
10
9.08001
20
8.90024
30
4.84
0
VERTEX
10
9.0861
20
8.90328
30
4.84
0
VERTEX
10
9.08915
20
8.90481
30
4.84
0
VERTEX
10
9.08915
20
8.9109
30
4.84
0
VERTEX
10
9.09677
20
8.92157
30
4.84
0
VERTEX
10
9.09981
20
8.92461
30
4.84
0
VERTEX
10
9.10134
20
8.93071
30
4.84
0
VERTEX
10
9.10134
20
8.93375
30
4.84
0
VERTEX
10
9.10439
20
8.93375
30
4.84
0
VERTEX
10
9.10896
20
8.93985
30
4.84
0
VERTEX
10
9.112
20
8.93985
30
4.84
0
VERTEX
10
9.11505
20
8.94594
30
4.84
0
VERTEX
10
9.12571
20
8.95356
30
4.84
0
VERTEX
10
9.13485
20
8.96422
30
4.84
0
VERTEX
10
9.14857
20
8.98403
30
4.84
0
VERTEX
10
9.15161
20
8.99012
30
4.84
0
VERTEX
10
9.17599
20
8.99622
30
4.84
0
VERTEX
10
9.20037
20
8.99774
30
4.84
0
VERTEX
10
9.20646
20
9.00079
30
4.84
0
VERTEX
10
9.20646
20
9.02516
30
4.84
0
VERTEX
10
9.20189
20
9.03583
30
4.84
0
VERTEX
10
9.19579
20
9.0404
30
4.84
0
VERTEX
10
9.18361
20
9.0404
30
4.84
0
VERTEX
10
9.17751
20
9.03888
30
4.84
0
VERTEX
10
9.16685
20
9.02973
30
4.84
0
VERTEX
10
9.14247
20
9.01907
30
4.84
0
VERTEX
10
9.13028
20
9.01602
30
4.84
0
VERTEX
10
9.12419
20
9.0145
30
4.84
0
VERTEX
10
9.12267
20
9.01145
30
4.84
0
VERTEX
10
9.11048
20
9.00841
30
4.84
0
VERTEX
10
9.10743
20
9.00536
30
4.84
0
VERTEX
10
9.05868
20
9.00383
30
4.84
0
VERTEX
10
9.04649
20
9.00688
30
4.84
0
VERTEX
10
9.04192
20
9.01145
30
4.84
0
VERTEX
10
9.02973
20
9.00993
30
4.84
0
VERTEX
10
9.02669
20
8.99774
30
4.84
0
VERTEX
10
9.01602
20
8.99012
30
4.84
0
VERTEX
10
9.01602
20
8.94137
30
4.84
0
VERTEX
10
9.01602
20
8.92918
30
4.84
0
VERTEX
10
9.0145
20
8.92614
30
4.84
0
VERTEX
10
9.00841
20
8.92461
30
4.84
0
VERTEX
10
9.00383
20
8.91852
30
4.84
0
VERTEX
10
9.00231
20
8.89414
30
4.84
0
VERTEX
10
9.00231
20
8.88805
30
4.84
0
SEQEND
0
POLYLINE
62
227
66
1
70
1
3
endoplasmic_reticulum
0
VERTEX
10
9.16837
20
8.77074
30
4.84
0
VERTEX
10
9.17142
20
8.76922
30
4.84
0
VERTEX
10
9.17142
20
8.76617
30
4.84
0
VERTEX
10
9.17599
20
8.76008
30
4.84
0
VERTEX
10
9.17751
20
8.75398
30
4.84
0
VERTEX
10
9.18361
20
8.74789
30
4.84
0
VERTEX
10
9.1897
20
8.74789
30
4.84
0
VERTEX
10
9.19275
20
8.74789
30
4.84
0
VERTEX
10
9.19579
20
8.75094
30
4.84
0
VERTEX
10
9.19732
20
8.75703
30
4.84
0
VERTEX
10
9.20037
20
8.75855
30
4.84
0
VERTEX
10
9.20189
20
8.77074
30
4.84
0
VERTEX
10
9.20189
20
8.77683
30
4.84
0
VERTEX
10
9.19884
20
8.78293
30
4.84
0
VERTEX
10
9.19275
20
8.7875
30
4.84
0
VERTEX
10
9.1897
20
8.7875
30
4.84
0
VERTEX
10
9.18513
20
8.79207
30
4.84
0
VERTEX
10
9.17294
20
8.7875
30
4.84
0
VERTEX
10
9.16837
20
8.78293
30
4.84
0
VERTEX
10
9.16837
20
8.77226
30
4.84
0
SEQEND
0
ENDSEC
0
EOF
