0
SECTION
2
ENTITIES
0
POLYLINE
62
31
66
1
70
1
3
contour
0
VERTEX
10
6.68491
20
10.5086
30
10.04
0
VERTEX
10
6.68864
20
10.4937
30
10.04
0
VERTEX
10
6.69983
20
10.4825
30
10.04
0
VERTEX
10
6.69983
20
10.475
30
10.04
0
VERTEX
10
6.71102
20
10.4601
30
10.04
0
VERTEX
10
6.74086
20
10.4564
30
10.04
0
VERTEX
10
6.77071
20
10.4601
30
10.04
0
VERTEX
10
6.78563
20
10.4638
30
10.04
0
VERTEX
10
6.79682
20
10.4787
30
10.04
0
VERTEX
10
6.80055
20
10.4899
30
10.04
0
VERTEX
10
6.81547
20
10.5049
30
10.04
0
VERTEX
10
6.86397
20
10.5459
30
10.04
0
VERTEX
10
6.89008
20
10.5683
30
10.04
0
VERTEX
10
6.89754
20
10.572
30
10.04
0
VERTEX
10
6.89754
20
10.5795
30
10.04
0
VERTEX
10
6.92365
20
10.6018
30
10.04
0
VERTEX
10
6.9535
20
10.613
30
10.04
0
VERTEX
10
7.01318
20
10.613
30
10.04
0
VERTEX
10
7.06914
20
10.6018
30
10.04
0
VERTEX
10
7.09898
20
10.5981
30
10.04
0
VERTEX
10
7.12883
20
10.5869
30
10.04
0
VERTEX
10
7.18851
20
10.5869
30
10.04
0
VERTEX
10
7.30789
20
10.5981
30
10.04
0
VERTEX
10
7.33773
20
10.5981
30
10.04
0
VERTEX
10
7.39369
20
10.5795
30
10.04
0
VERTEX
10
7.42353
20
10.5832
30
10.04
0
VERTEX
10
7.43845
20
10.5832
30
10.04
0
VERTEX
10
7.44591
20
10.5832
30
10.04
0
VERTEX
10
7.4571
20
10.5944
30
10.04
0
VERTEX
10
7.4571
20
10.6018
30
10.04
0
VERTEX
10
7.48695
20
10.628
30
10.04
0
VERTEX
10
7.51306
20
10.6466
30
10.04
0
VERTEX
10
7.5429
20
10.6727
30
10.04
0
VERTEX
10
7.55036
20
10.6802
30
10.04
0
VERTEX
10
7.55036
20
10.6876
30
10.04
0
VERTEX
10
7.57648
20
10.7138
30
10.04
0
VERTEX
10
7.5914
20
10.7138
30
10.04
0
VERTEX
10
7.63243
20
10.7623
30
10.04
0
VERTEX
10
7.6287
20
10.7921
30
10.04
0
VERTEX
10
7.6287
20
10.807
30
10.04
0
VERTEX
10
7.5914
20
10.9264
30
10.04
0
VERTEX
10
7.58021
20
10.9525
30
10.04
0
VERTEX
10
7.55783
20
10.9823
30
10.04
0
VERTEX
10
7.53544
20
11.0047
30
10.04
0
VERTEX
10
7.5056
20
11.0197
30
10.04
0
VERTEX
10
7.38623
20
11.0271
30
10.04
0
VERTEX
10
7.3713
20
11.0346
30
10.04
0
VERTEX
10
7.31162
20
11.0346
30
10.04
0
VERTEX
10
7.2967
20
11.0383
30
10.04
0
VERTEX
10
7.26685
20
11.0159
30
10.04
0
VERTEX
10
7.24447
20
10.9935
30
10.04
0
VERTEX
10
7.23328
20
10.9786
30
10.04
0
VERTEX
10
7.17732
20
10.9376
30
10.04
0
VERTEX
10
7.12137
20
10.9077
30
10.04
0
VERTEX
10
7.06914
20
10.8592
30
10.04
0
VERTEX
10
7.05795
20
10.8481
30
10.04
0
VERTEX
10
7.05049
20
10.8443
30
10.04
0
VERTEX
10
7.05049
20
10.8369
30
10.04
0
VERTEX
10
7.02438
20
10.8107
30
10.04
0
VERTEX
10
6.98334
20
10.7585
30
10.04
0
VERTEX
10
6.92739
20
10.71
30
10.04
0
VERTEX
10
6.90873
20
10.6839
30
10.04
0
VERTEX
10
6.87889
20
10.6578
30
10.04
0
VERTEX
10
6.8677
20
10.6429
30
10.04
0
VERTEX
10
6.86024
20
10.6354
30
10.04
0
VERTEX
10
6.85278
20
10.6354
30
10.04
0
VERTEX
10
6.82293
20
10.613
30
10.04
0
VERTEX
10
6.80801
20
10.6018
30
10.04
0
VERTEX
10
6.80428
20
10.5944
30
10.04
0
VERTEX
10
6.77444
20
10.5832
30
10.04
0
VERTEX
10
6.75952
20
10.5757
30
10.04
0
VERTEX
10
6.74459
20
10.5608
30
10.04
0
VERTEX
10
6.73713
20
10.5534
30
10.04
0
VERTEX
10
6.72967
20
10.5534
30
10.04
0
VERTEX
10
6.70356
20
10.531
30
10.04
0
VERTEX
10
6.68864
20
10.5272
30
10.04
0
VERTEX
10
6.68491
20
10.5123
30
10.04
0
SEQEND
0
POLYLINE
62
224
66
1
70
1
3
mitochondrion
0
VERTEX
10
7.14403
20
10.7939
30
10.04
0
VERTEX
10
7.1482
20
10.7828
30
10.04
0
VERTEX
10
7.15098
20
10.78
30
10.04
0
VERTEX
10
7.15237
20
10.7744
30
10.04
0
VERTEX
10
7.15515
20
10.7717
30
10.04
0
VERTEX
10
7.15515
20
10.7689
30
10.04
0
VERTEX
10
7.16071
20
10.7633
30
10.04
0
VERTEX
10
7.16349
20
10.7578
30
10.04
0
VERTEX
10
7.17323
20
10.7508
30
10.04
0
VERTEX
10
7.18157
20
10.7397
30
10.04
0
VERTEX
10
7.19269
20
10.7341
30
10.04
0
VERTEX
10
7.20382
20
10.7258
30
10.04
0
VERTEX
10
7.22606
20
10.7244
30
10.04
0
VERTEX
10
7.24831
20
10.7258
30
10.04
0
VERTEX
10
7.25387
20
10.7258
30
10.04
0
VERTEX
10
7.25943
20
10.7286
30
10.04
0
VERTEX
10
7.265
20
10.7286
30
10.04
0
VERTEX
10
7.26917
20
10.7327
30
10.04
0
VERTEX
10
7.31366
20
10.7466
30
10.04
0
VERTEX
10
7.31922
20
10.748
30
10.04
0
VERTEX
10
7.32061
20
10.7508
30
10.04
0
VERTEX
10
7.33174
20
10.755
30
10.04
0
VERTEX
10
7.3373
20
10.7578
30
10.04
0
VERTEX
10
7.34286
20
10.7633
30
10.04
0
VERTEX
10
7.35398
20
10.7842
30
10.04
0
VERTEX
10
7.35398
20
10.8064
30
10.04
0
VERTEX
10
7.35398
20
10.8175
30
10.04
0
VERTEX
10
7.3512
20
10.8287
30
10.04
0
VERTEX
10
7.34842
20
10.8342
30
10.04
0
VERTEX
10
7.34286
20
10.8398
30
10.04
0
VERTEX
10
7.34147
20
10.8454
30
10.04
0
VERTEX
10
7.3373
20
10.8509
30
10.04
0
VERTEX
10
7.33174
20
10.8523
30
10.04
0
VERTEX
10
7.32618
20
10.8565
30
10.04
0
VERTEX
10
7.32339
20
10.8565
30
10.04
0
VERTEX
10
7.31227
20
10.8676
30
10.04
0
VERTEX
10
7.30671
20
10.8718
30
10.04
0
VERTEX
10
7.29559
20
10.8759
30
10.04
0
VERTEX
10
7.2928
20
10.8759
30
10.04
0
VERTEX
10
7.29002
20
10.8787
30
10.04
0
VERTEX
10
7.2789
20
10.8801
30
10.04
0
VERTEX
10
7.25665
20
10.8871
30
10.04
0
VERTEX
10
7.25109
20
10.8885
30
10.04
0
VERTEX
10
7.22885
20
10.8843
30
10.04
0
VERTEX
10
7.21772
20
10.8843
30
10.04
0
VERTEX
10
7.21494
20
10.8843
30
10.04
0
VERTEX
10
7.20938
20
10.8801
30
10.04
0
VERTEX
10
7.19826
20
10.8787
30
10.04
0
VERTEX
10
7.19269
20
10.8773
30
10.04
0
VERTEX
10
7.18991
20
10.8773
30
10.04
0
VERTEX
10
7.18713
20
10.8746
30
10.04
0
VERTEX
10
7.18157
20
10.8746
30
10.04
0
VERTEX
10
7.1621
20
10.8593
30
10.04
0
VERTEX
10
7.15932
20
10.8537
30
10.04
0
VERTEX
10
7.15932
20
10.8509
30
10.04
0
VERTEX
10
7.15376
20
10.8454
30
10.04
0
VERTEX
10
7.1482
20
10.8342
30
10.04
0
VERTEX
10
7.14681
20
10.8231
30
10.04
0
VERTEX
10
7.14681
20
10.8203
30
10.04
0
VERTEX
10
7.14403
20
10.8175
30
10.04
0
VERTEX
10
7.14403
20
10.7953
30
10.04
0
SEQEND
0
POLYLINE
62
227
66
1
70
1
3
endoplasmic_reticulum
0
VERTEX
10
7.41892
20
10.642
30
10.04
0
VERTEX
10
7.4243
20
10.6357
30
10.04
0
VERTEX
10
7.42699
20
10.633
30
10.04
0
VERTEX
10
7.43057
20
10.6321
30
10.04
0
VERTEX
10
7.43416
20
10.6295
30
10.04
0
VERTEX
10
7.44851
20
10.6286
30
10.04
0
VERTEX
10
7.46285
20
10.6312
30
10.04
0
VERTEX
10
7.46464
20
10.633
30
10.04
0
VERTEX
10
7.46644
20
10.633
30
10.04
0
VERTEX
10
7.46823
20
10.6348
30
10.04
0
VERTEX
10
7.47002
20
10.6348
30
10.04
0
VERTEX
10
7.47361
20
10.6375
30
10.04
0
VERTEX
10
7.48078
20
10.6384
30
10.04
0
VERTEX
10
7.48257
20
10.6402
30
10.04
0
VERTEX
10
7.48975
20
10.6411
30
10.04
0
VERTEX
10
7.49692
20
10.6456
30
10.04
0
VERTEX
10
7.50409
20
10.6519
30
10.04
0
VERTEX
10
7.50499
20
10.6555
30
10.04
0
VERTEX
10
7.51395
20
10.6689
30
10.04
0
VERTEX
10
7.51664
20
10.6752
30
10.04
0
VERTEX
10
7.51575
20
10.6895
30
10.04
0
VERTEX
10
7.51037
20
10.6967
30
10.04
0
VERTEX
10
7.50678
20
10.6976
30
10.04
0
VERTEX
10
7.47809
20
10.694
30
10.04
0
VERTEX
10
7.4745
20
10.6931
30
10.04
0
VERTEX
10
7.47271
20
10.6913
30
10.04
0
VERTEX
10
7.44402
20
10.6886
30
10.04
0
VERTEX
10
7.44133
20
10.6868
30
10.04
0
VERTEX
10
7.43775
20
10.6832
30
10.04
0
VERTEX
10
7.43416
20
10.6815
30
10.04
0
VERTEX
10
7.43147
20
10.6779
30
10.04
0
VERTEX
10
7.43147
20
10.6761
30
10.04
0
VERTEX
10
7.42519
20
10.6689
30
10.04
0
VERTEX
10
7.4234
20
10.6653
30
10.04
0
VERTEX
10
7.4234
20
10.6635
30
10.04
0
VERTEX
10
7.42161
20
10.6617
30
10.04
0
VERTEX
10
7.41892
20
10.6474
30
10.04
0
VERTEX
10
7.41892
20
10.6438
30
10.04
0
VERTEX
10
7.41892
20
10.6429
30
10.04
0
SEQEND
0
POLYLINE
62
227
66
1
70
1
3
endoplasmic_reticulum
0
VERTEX
10
7.12127
20
10.6716
30
10.04
0
VERTEX
10
7.12575
20
10.6644
30
10.04
0
VERTEX
10
7.13292
20
10.6617
30
10.04
0
VERTEX
10
7.14009
20
10.6608
30
10.04
0
VERTEX
10
7.14368
20
10.6635
30
10.04
0
VERTEX
10
7.14547
20
10.6653
30
10.04
0
VERTEX
10
7.14906
20
10.6662
30
10.04
0
VERTEX
10
7.15264
20
10.6689
30
10.04
0
VERTEX
10
7.15444
20
10.6689
30
10.04
0
VERTEX
10
7.15713
20
10.6725
30
10.04
0
VERTEX
10
7.15623
20
10.6761
30
10.04
0
VERTEX
10
7.15085
20
10.6823
30
10.04
0
VERTEX
10
7.14816
20
10.685
30
10.04
0
VERTEX
10
7.14099
20
10.6877
30
10.04
0
VERTEX
10
7.13382
20
10.6886
30
10.04
0
VERTEX
10
7.13023
20
10.6886
30
10.04
0
VERTEX
10
7.12665
20
10.685
30
10.04
0
VERTEX
10
7.12216
20
10.6788
30
10.04
0
VERTEX
10
7.12127
20
10.6725
30
10.04
0
SEQEND
0
POLYLINE
62
227
66
1
70
1
3
endoplasmic_reticulum
0
VERTEX
10
7.10154
20
10.8285
30
10.04
0
VERTEX
10
7.10871
20
10.8231
30
10.04
0
VERTEX
10
7.11589
20
10.8195
30
10.04
0
VERTEX
10
7.11947
20
10.8195
30
10.04
0
VERTEX
10
7.12485
20
10.8267
30
10.04
0
VERTEX
10
7.12575
20
10.8303
30
10.04
0
VERTEX
10
7.13023
20
10.8366
30
10.04
0
VERTEX
10
7.13292
20
10.8428
30
10.04
0
VERTEX
10
7.13382
20
10.85
30
10.04
0
VERTEX
10
7.13561
20
10.8509
30
10.04
0
VERTEX
10
7.13471
20
10.8545
30
10.04
0
VERTEX
10
7.12754
20
10.8527
30
10.04
0
VERTEX
10
7.1132
20
10.8518
30
10.04
0
VERTEX
10
7.11051
20
10.8509
30
10.04
0
VERTEX
10
7.10333
20
10.8455
30
10.04
0
VERTEX
10
7.10154
20
10.8428
30
10.04
0
VERTEX
10
7.10154
20
10.8294
30
10.04
0
SEQEND
0
POLYLINE
62
227
66
1
70
1
3
endoplasmic_reticulum
0
VERTEX
10
7.30595
20
10.963
30
10.04
0
VERTEX
10
7.30685
20
10.9594
30
10.04
0
VERTEX
10
7.30954
20
10.9558
30
10.04
0
VERTEX
10
7.31133
20
10.954
30
10.04
0
VERTEX
10
7.31492
20
10.9531
30
10.04
0
VERTEX
10
7.32209
20
10.9459
30
10.04
0
VERTEX
10
7.32568
20
10.945
30
10.04
0
VERTEX
10
7.32837
20
10.9477
30
10.04
0
VERTEX
10
7.33464
20
10.9504
30
10.04
0
VERTEX
10
7.33823
20
10.9513
30
10.04
0
VERTEX
10
7.34182
20
10.954
30
10.04
0
VERTEX
10
7.3454
20
10.9549
30
10.04
0
VERTEX
10
7.35168
20
10.9603
30
10.04
0
VERTEX
10
7.35526
20
10.9666
30
10.04
0
VERTEX
10
7.35706
20
10.9701
30
10.04
0
VERTEX
10
7.36064
20
10.9737
30
10.04
0
VERTEX
10
7.36244
20
10.9773
30
10.04
0
VERTEX
10
7.36244
20
10.9845
30
10.04
0
VERTEX
10
7.36244
20
10.9881
30
10.04
0
VERTEX
10
7.36244
20
10.9899
30
10.04
0
VERTEX
10
7.35526
20
10.9943
30
10.04
0
VERTEX
10
7.34809
20
10.997
30
10.04
0
VERTEX
10
7.33375
20
10.9979
30
10.04
0
VERTEX
10
7.33195
20
10.9979
30
10.04
0
VERTEX
10
7.31761
20
10.9881
30
10.04
0
VERTEX
10
7.31492
20
10.9854
30
10.04
0
VERTEX
10
7.31313
20
10.9845
30
10.04
0
VERTEX
10
7.31313
20
10.9827
30
10.04
0
VERTEX
10
7.30954
20
10.9818
30
10.04
0
VERTEX
10
7.30685
20
10.9782
30
10.04
0
VERTEX
10
7.30685
20
10.9764
30
10.04
0
VERTEX
10
7.30864
20
10.9746
30
10.04
0
VERTEX
10
7.30595
20
10.9674
30
10.04
0
VERTEX
10
7.30595
20
10.9639
30
10.04
0
SEQEND
0
POLYLINE
62
227
66
1
70
1
3
endoplasmic_reticulum
0
VERTEX
10
7.44313
20
10.7783
30
10.04
0
VERTEX
10
7.4494
20
10.7729
30
10.04
0
VERTEX
10
7.45209
20
10.7702
30
10.04
0
VERTEX
10
7.45926
20
10.7675
30
10.04
0
VERTEX
10
7.47361
20
10.7684
30
10.04
0
VERTEX
10
7.48706
20
10.7756
30
10.04
0
VERTEX
10
7.49333
20
10.7819
30
10.04
0
VERTEX
10
7.49513
20
10.7819
30
10.04
0
VERTEX
10
7.5014
20
10.7881
30
10.04
0
VERTEX
10
7.50588
20
10.7953
30
10.04
0
VERTEX
10
7.50768
20
10.7989
30
10.04
0
VERTEX
10
7.50678
20
10.8132
30
10.04
0
VERTEX
10
7.50409
20
10.8168
30
10.04
0
VERTEX
10
7.49064
20
10.8258
30
10.04
0
VERTEX
10
7.48706
20
10.8267
30
10.04
0
VERTEX
10
7.48526
20
10.8267
30
10.04
0
VERTEX
10
7.48168
20
10.8339
30
10.04
0
VERTEX
10
7.48078
20
10.8357
30
10.04
0
VERTEX
10
7.47361
20
10.8348
30
10.04
0
VERTEX
10
7.45926
20
10.8294
30
10.04
0
VERTEX
10
7.45299
20
10.8231
30
10.04
0
VERTEX
10
7.45299
20
10.8213
30
10.04
0
VERTEX
10
7.4503
20
10.8177
30
10.04
0
VERTEX
10
7.4494
20
10.8141
30
10.04
0
VERTEX
10
7.44313
20
10.8079
30
10.04
0
VERTEX
10
7.44313
20
10.7792
30
10.04
0
SEQEND
0
ENDSEC
0
EOF
