0
SECTION
2
ENTITIES
0
POLYLINE
62
224
66
1
70
1
3
mitochondrion
0
VERTEX
10
8.07006
20
9.79002
30
7.44
0
VERTEX
10
8.07284
20
9.77889
30
7.44
0
VERTEX
10
8.07562
20
9.77333
30
7.44
0
VERTEX
10
8.07562
20
9.77055
30
7.44
0
VERTEX
10
8.0784
20
9.76777
30
7.44
0
VERTEX
10
8.0784
20
9.75665
30
7.44
0
VERTEX
10
8.08118
20
9.75108
30
7.44
0
VERTEX
10
8.08257
20
9.73996
30
7.44
0
VERTEX
10
8.08674
20
9.72884
30
7.44
0
VERTEX
10
8.08952
20
9.72606
30
7.44
0
VERTEX
10
8.09091
20
9.7205
30
7.44
0
VERTEX
10
8.09925
20
9.70937
30
7.44
0
VERTEX
10
8.10204
20
9.70381
30
7.44
0
VERTEX
10
8.10204
20
9.70103
30
7.44
0
VERTEX
10
8.10621
20
9.69547
30
7.44
0
VERTEX
10
8.1076
20
9.68991
30
7.44
0
VERTEX
10
8.1076
20
9.68713
30
7.44
0
VERTEX
10
8.12428
20
9.66905
30
7.44
0
VERTEX
10
8.12845
20
9.66488
30
7.44
0
VERTEX
10
8.12984
20
9.6621
30
7.44
0
VERTEX
10
8.13541
20
9.66071
30
7.44
0
VERTEX
10
8.14653
20
9.65375
30
7.44
0
VERTEX
10
8.1507
20
9.64958
30
7.44
0
VERTEX
10
8.15626
20
9.64819
30
7.44
0
VERTEX
10
8.16739
20
9.63985
30
7.44
0
VERTEX
10
8.17851
20
9.63707
30
7.44
0
VERTEX
10
8.18407
20
9.6329
30
7.44
0
VERTEX
10
8.20632
20
9.62595
30
7.44
0
VERTEX
10
8.21188
20
9.62456
30
7.44
0
VERTEX
10
8.21605
20
9.62038
30
7.44
0
VERTEX
10
8.22717
20
9.62038
30
7.44
0
VERTEX
10
8.23274
20
9.62038
30
7.44
0
VERTEX
10
8.24386
20
9.61621
30
7.44
0
VERTEX
10
8.25498
20
9.61482
30
7.44
0
VERTEX
10
8.26054
20
9.61204
30
7.44
0
VERTEX
10
8.27167
20
9.61204
30
7.44
0
VERTEX
10
8.28279
20
9.60926
30
7.44
0
VERTEX
10
8.30504
20
9.61065
30
7.44
0
VERTEX
10
8.32728
20
9.61482
30
7.44
0
VERTEX
10
8.37178
20
9.6176
30
7.44
0
VERTEX
10
8.37734
20
9.62038
30
7.44
0
VERTEX
10
8.38846
20
9.62177
30
7.44
0
VERTEX
10
8.41071
20
9.63568
30
7.44
0
VERTEX
10
8.41488
20
9.63985
30
7.44
0
VERTEX
10
8.41766
20
9.63985
30
7.44
0
VERTEX
10
8.42879
20
9.64819
30
7.44
0
VERTEX
10
8.43157
20
9.65097
30
7.44
0
VERTEX
10
8.43435
20
9.65097
30
7.44
0
VERTEX
10
8.43713
20
9.65375
30
7.44
0
VERTEX
10
8.45938
20
9.66071
30
7.44
0
VERTEX
10
8.4705
20
9.6621
30
7.44
0
VERTEX
10
8.47328
20
9.6621
30
7.44
0
VERTEX
10
8.49275
20
9.68017
30
7.44
0
VERTEX
10
8.49692
20
9.68573
30
7.44
0
VERTEX
10
8.50109
20
9.69686
30
7.44
0
VERTEX
10
8.50109
20
9.70242
30
7.44
0
VERTEX
10
8.50526
20
9.70798
30
7.44
0
VERTEX
10
8.51221
20
9.72884
30
7.44
0
VERTEX
10
8.51499
20
9.73162
30
7.44
0
VERTEX
10
8.51638
20
9.75387
30
7.44
0
VERTEX
10
8.51638
20
9.75665
30
7.44
0
VERTEX
10
8.51916
20
9.75943
30
7.44
0
VERTEX
10
8.51916
20
9.78167
30
7.44
0
VERTEX
10
8.5136
20
9.82617
30
7.44
0
VERTEX
10
8.51082
20
9.83173
30
7.44
0
VERTEX
10
8.50943
20
9.84285
30
7.44
0
VERTEX
10
8.49831
20
9.85259
30
7.44
0
VERTEX
10
8.49275
20
9.86371
30
7.44
0
VERTEX
10
8.47745
20
9.88318
30
7.44
0
VERTEX
10
8.47745
20
9.88596
30
7.44
0
VERTEX
10
8.46633
20
9.89708
30
7.44
0
VERTEX
10
8.46355
20
9.89708
30
7.44
0
VERTEX
10
8.46077
20
9.89986
30
7.44
0
VERTEX
10
8.44964
20
9.90125
30
7.44
0
VERTEX
10
8.43852
20
9.9082
30
7.44
0
VERTEX
10
8.4274
20
9.90959
30
7.44
0
VERTEX
10
8.41627
20
9.91377
30
7.44
0
VERTEX
10
8.40515
20
9.91377
30
7.44
0
VERTEX
10
8.39403
20
9.91655
30
7.44
0
VERTEX
10
8.38429
20
9.92211
30
7.44
0
VERTEX
10
8.36344
20
9.9374
30
7.44
0
VERTEX
10
8.35787
20
9.9374
30
7.44
0
VERTEX
10
8.35509
20
9.9374
30
7.44
0
VERTEX
10
8.3537
20
9.94018
30
7.44
0
VERTEX
10
8.34258
20
9.94296
30
7.44
0
VERTEX
10
8.34119
20
9.94575
30
7.44
0
VERTEX
10
8.31894
20
9.94714
30
7.44
0
VERTEX
10
8.31338
20
9.94853
30
7.44
0
VERTEX
10
8.3106
20
9.94853
30
7.44
0
VERTEX
10
8.30782
20
9.95131
30
7.44
0
VERTEX
10
8.28557
20
9.95687
30
7.44
0
VERTEX
10
8.24108
20
9.96104
30
7.44
0
VERTEX
10
8.21883
20
9.96104
30
7.44
0
VERTEX
10
8.19658
20
9.95826
30
7.44
0
VERTEX
10
8.18546
20
9.95826
30
7.44
0
VERTEX
10
8.1799
20
9.95826
30
7.44
0
VERTEX
10
8.16878
20
9.95131
30
7.44
0
VERTEX
10
8.12845
20
9.91377
30
7.44
0
VERTEX
10
8.10621
20
9.89986
30
7.44
0
VERTEX
10
8.09647
20
9.88874
30
7.44
0
VERTEX
10
8.09369
20
9.88596
30
7.44
0
VERTEX
10
8.09369
20
9.88039
30
7.44
0
VERTEX
10
8.08952
20
9.88457
30
7.44
0
VERTEX
10
8.08813
20
9.88596
30
7.44
0
VERTEX
10
8.08396
20
9.88039
30
7.44
0
VERTEX
10
8.08257
20
9.86927
30
7.44
0
VERTEX
10
8.08118
20
9.86371
30
7.44
0
VERTEX
10
8.07701
20
9.85815
30
7.44
0
VERTEX
10
8.07284
20
9.8359
30
7.44
0
VERTEX
10
8.07284
20
9.83312
30
7.44
0
VERTEX
10
8.07006
20
9.83034
30
7.44
0
VERTEX
10
8.07006
20
9.80809
30
7.44
0
VERTEX
10
8.07006
20
9.79697
30
7.44
0
VERTEX
10
8.07006
20
9.79141
30
7.44
0
SEQEND
0
POLYLINE
62
227
66
1
70
1
3
endoplasmic_reticulum
0
VERTEX
10
8.29753
20
10.053
30
7.44
0
VERTEX
10
8.29933
20
10.0458
30
7.44
0
VERTEX
10
8.30112
20
10.0422
30
7.44
0
VERTEX
10
8.30381
20
10.0404
30
7.44
0
VERTEX
10
8.3056
20
10.0368
30
7.44
0
VERTEX
10
8.3074
20
10.035
30
7.44
0
VERTEX
10
8.31098
20
10.0341
30
7.44
0
VERTEX
10
8.31367
20
10.0315
30
7.44
0
VERTEX
10
8.31726
20
10.0306
30
7.44
0
VERTEX
10
8.32084
20
10.0279
30
7.44
0
VERTEX
10
8.32802
20
10.0252
30
7.44
0
VERTEX
10
8.33519
20
10.0207
30
7.44
0
VERTEX
10
8.33878
20
10.0171
30
7.44
0
VERTEX
10
8.34505
20
10.0126
30
7.44
0
VERTEX
10
8.34864
20
10.0099
30
7.44
0
VERTEX
10
8.35222
20
10.009
30
7.44
0
VERTEX
10
8.35581
20
10.0055
30
7.44
0
VERTEX
10
8.3576
20
10.0037
30
7.44
0
VERTEX
10
8.3594
20
9.99649
30
7.44
0
VERTEX
10
8.36029
20
9.9929
30
7.44
0
VERTEX
10
8.37195
20
9.97856
30
7.44
0
VERTEX
10
8.37822
20
9.97139
30
7.44
0
VERTEX
10
8.38809
20
9.95973
30
7.44
0
VERTEX
10
8.40153
20
9.94987
30
7.44
0
VERTEX
10
8.40871
20
9.94718
30
7.44
0
VERTEX
10
8.41229
20
9.94718
30
7.44
0
VERTEX
10
8.41409
20
9.94718
30
7.44
0
VERTEX
10
8.41588
20
9.94539
30
7.44
0
VERTEX
10
8.44457
20
9.94628
30
7.44
0
VERTEX
10
8.45174
20
9.94808
30
7.44
0
VERTEX
10
8.45891
20
9.95345
30
7.44
0
VERTEX
10
8.4616
20
9.95704
30
7.44
0
VERTEX
10
8.4616
20
9.95883
30
7.44
0
VERTEX
10
8.46429
20
9.96242
30
7.44
0
VERTEX
10
8.46519
20
9.97677
30
7.44
0
VERTEX
10
8.46519
20
9.98394
30
7.44
0
VERTEX
10
8.4634
20
9.99111
30
7.44
0
VERTEX
10
8.4634
20
9.9947
30
7.44
0
VERTEX
10
8.45353
20
10.009
30
7.44
0
VERTEX
10
8.45264
20
10.0108
30
7.44
0
VERTEX
10
8.45084
20
10.0108
30
7.44
0
VERTEX
10
8.44457
20
10.0153
30
7.44
0
VERTEX
10
8.4374
20
10.0171
30
7.44
0
VERTEX
10
8.43022
20
10.0207
30
7.44
0
VERTEX
10
8.42843
20
10.0207
30
7.44
0
VERTEX
10
8.42574
20
10.0243
30
7.44
0
VERTEX
10
8.4114
20
10.0288
30
7.44
0
VERTEX
10
8.40422
20
10.0332
30
7.44
0
VERTEX
10
8.40064
20
10.035
30
7.44
0
VERTEX
10
8.39346
20
10.035
30
7.44
0
VERTEX
10
8.38629
20
10.0395
30
7.44
0
VERTEX
10
8.38271
20
10.0422
30
7.44
0
VERTEX
10
8.36836
20
10.0476
30
7.44
0
VERTEX
10
8.36478
20
10.0494
30
7.44
0
VERTEX
10
8.36388
20
10.0512
30
7.44
0
VERTEX
10
8.36029
20
10.0521
30
7.44
0
VERTEX
10
8.35671
20
10.0548
30
7.44
0
VERTEX
10
8.32802
20
10.0566
30
7.44
0
VERTEX
10
8.32174
20
10.0584
30
7.44
0
VERTEX
10
8.3074
20
10.0566
30
7.44
0
VERTEX
10
8.3065
20
10.0557
30
7.44
0
VERTEX
10
8.30471
20
10.0575
30
7.44
0
VERTEX
10
8.29753
20
10.0548
30
7.44
0
VERTEX
10
8.29753
20
10.0539
30
7.44
0
SEQEND
0
POLYLINE
62
227
66
1
70
1
3
endoplasmic_reticulum
0
VERTEX
10
7.97298
20
9.68808
30
7.44
0
VERTEX
10
7.97478
20
9.68449
30
7.44
0
VERTEX
10
7.97478
20
9.67015
30
7.44
0
VERTEX
10
7.97747
20
9.64146
30
7.44
0
VERTEX
10
7.97836
20
9.63428
30
7.44
0
VERTEX
10
7.97836
20
9.6307
30
7.44
0
VERTEX
10
7.98105
20
9.62353
30
7.44
0
VERTEX
10
7.98195
20
9.61635
30
7.44
0
VERTEX
10
7.98643
20
9.60201
30
7.44
0
VERTEX
10
7.99361
20
9.59663
30
7.44
0
VERTEX
10
8.00078
20
9.59573
30
7.44
0
VERTEX
10
8.00436
20
9.59663
30
7.44
0
VERTEX
10
8.00974
20
9.60291
30
7.44
0
VERTEX
10
8.01243
20
9.61008
30
7.44
0
VERTEX
10
8.01423
20
9.61366
30
7.44
0
VERTEX
10
8.01423
20
9.61546
30
7.44
0
VERTEX
10
8.01602
20
9.61725
30
7.44
0
VERTEX
10
8.01781
20
9.63159
30
7.44
0
VERTEX
10
8.01781
20
9.63877
30
7.44
0
VERTEX
10
8.01781
20
9.64235
30
7.44
0
VERTEX
10
8.0196
20
9.64325
30
7.44
0
VERTEX
10
8.0196
20
9.64504
30
7.44
0
VERTEX
10
8.02588
20
9.65132
30
7.44
0
VERTEX
10
8.02767
20
9.65132
30
7.44
0
VERTEX
10
8.02947
20
9.65491
30
7.44
0
VERTEX
10
8.02947
20
9.6567
30
7.44
0
VERTEX
10
8.03216
20
9.66028
30
7.44
0
VERTEX
10
8.03395
20
9.66746
30
7.44
0
VERTEX
10
8.03216
20
9.67463
30
7.44
0
VERTEX
10
8.03126
20
9.67822
30
7.44
0
VERTEX
10
8.02857
20
9.6818
30
7.44
0
VERTEX
10
8.02678
20
9.68897
30
7.44
0
VERTEX
10
8.02409
20
9.69256
30
7.44
0
VERTEX
10
8.02409
20
9.69435
30
7.44
0
VERTEX
10
8.0205
20
9.69615
30
7.44
0
VERTEX
10
8.01871
20
9.69794
30
7.44
0
VERTEX
10
8.01512
20
9.69884
30
7.44
0
VERTEX
10
8.01333
20
9.69884
30
7.44
0
VERTEX
10
8.00974
20
9.70242
30
7.44
0
VERTEX
10
8.00616
20
9.70332
30
7.44
0
VERTEX
10
7.99181
20
9.71318
30
7.44
0
VERTEX
10
7.98912
20
9.71587
30
7.44
0
VERTEX
10
7.98733
20
9.71587
30
7.44
0
VERTEX
10
7.98374
20
9.7087
30
7.44
0
VERTEX
10
7.98105
20
9.70601
30
7.44
0
VERTEX
10
7.97388
20
9.70332
30
7.44
0
VERTEX
10
7.97298
20
9.68897
30
7.44
0
SEQEND
0
POLYLINE
62
227
66
1
70
1
3
endoplasmic_reticulum
0
VERTEX
10
7.96671
20
9.88352
30
7.44
0
VERTEX
10
7.96761
20
9.87994
30
7.44
0
VERTEX
10
7.96761
20
9.87815
30
7.44
0
VERTEX
10
7.97298
20
9.87097
30
7.44
0
VERTEX
10
7.98016
20
9.86918
30
7.44
0
VERTEX
10
7.9945
20
9.87187
30
7.44
0
VERTEX
10
8.00167
20
9.87187
30
7.44
0
VERTEX
10
8.00526
20
9.87187
30
7.44
0
VERTEX
10
8.0196
20
9.87725
30
7.44
0
VERTEX
10
8.03395
20
9.87994
30
7.44
0
VERTEX
10
8.04112
20
9.88352
30
7.44
0
VERTEX
10
8.04471
20
9.8907
30
7.44
0
VERTEX
10
8.0456
20
9.90504
30
7.44
0
VERTEX
10
8.04381
20
9.91221
30
7.44
0
VERTEX
10
8.02947
20
9.92118
30
7.44
0
VERTEX
10
8.01512
20
9.92746
30
7.44
0
VERTEX
10
8.01333
20
9.92746
30
7.44
0
VERTEX
10
8.01154
20
9.92566
30
7.44
0
VERTEX
10
8.01154
20
9.92387
30
7.44
0
VERTEX
10
8.00885
20
9.92208
30
7.44
0
VERTEX
10
8.00616
20
9.91849
30
7.44
0
VERTEX
10
7.99181
20
9.91759
30
7.44
0
VERTEX
10
7.98464
20
9.91759
30
7.44
0
VERTEX
10
7.98105
20
9.9167
30
7.44
0
VERTEX
10
7.97747
20
9.91401
30
7.44
0
VERTEX
10
7.97388
20
9.91311
30
7.44
0
VERTEX
10
7.9694
20
9.90863
30
7.44
0
VERTEX
10
7.96671
20
9.89428
30
7.44
0
VERTEX
10
7.96671
20
9.88711
30
7.44
0
VERTEX
10
7.96671
20
9.88442
30
7.44
0
SEQEND
0
POLYLINE
62
227
66
1
70
1
3
endoplasmic_reticulum
0
VERTEX
10
8.61312
20
9.78311
30
7.44
0
VERTEX
10
8.61491
20
9.77594
30
7.44
0
VERTEX
10
8.61491
20
9.77235
30
7.44
0
VERTEX
10
8.62388
20
9.7607
30
7.44
0
VERTEX
10
8.62746
20
9.75711
30
7.44
0
VERTEX
10
8.64181
20
9.75711
30
7.44
0
VERTEX
10
8.65615
20
9.7589
30
7.44
0
VERTEX
10
8.65974
20
9.7598
30
7.44
0
VERTEX
10
8.66064
20
9.76159
30
7.44
0
VERTEX
10
8.66243
20
9.76159
30
7.44
0
VERTEX
10
8.66781
20
9.76877
30
7.44
0
VERTEX
10
8.67229
20
9.77325
30
7.44
0
VERTEX
10
8.67408
20
9.78042
30
7.44
0
VERTEX
10
8.67408
20
9.78759
30
7.44
0
VERTEX
10
8.67319
20
9.79118
30
7.44
0
VERTEX
10
8.6705
20
9.79387
30
7.44
0
VERTEX
10
8.6705
20
9.79746
30
7.44
0
VERTEX
10
8.66512
20
9.80373
30
7.44
0
VERTEX
10
8.65795
20
9.80911
30
7.44
0
VERTEX
10
8.65436
20
9.80911
30
7.44
0
VERTEX
10
8.65077
20
9.8109
30
7.44
0
VERTEX
10
8.6436
20
9.8109
30
7.44
0
VERTEX
10
8.64001
20
9.8118
30
7.44
0
VERTEX
10
8.63284
20
9.8109
30
7.44
0
VERTEX
10
8.62567
20
9.80821
30
7.44
0
VERTEX
10
8.62208
20
9.80732
30
7.44
0
VERTEX
10
8.61939
20
9.80373
30
7.44
0
VERTEX
10
8.61939
20
9.79656
30
7.44
0
VERTEX
10
8.61581
20
9.79028
30
7.44
0
VERTEX
10
8.61312
20
9.7867
30
7.44
0
VERTEX
10
8.61312
20
9.78401
30
7.44
0
SEQEND
0
POLYLINE
62
227
66
1
70
1
3
endoplasmic_reticulum
0
VERTEX
10
8.10567
20
9.48546
30
7.44
0
VERTEX
10
8.11285
20
9.48008
30
7.44
0
VERTEX
10
8.12719
20
9.48187
30
7.44
0
VERTEX
10
8.13078
20
9.48277
30
7.44
0
VERTEX
10
8.13526
20
9.48994
30
7.44
0
VERTEX
10
8.13795
20
9.49353
30
7.44
0
VERTEX
10
8.13795
20
9.49532
30
7.44
0
VERTEX
10
8.14154
20
9.49891
30
7.44
0
VERTEX
10
8.14422
20
9.50518
30
7.44
0
VERTEX
10
8.14512
20
9.51235
30
7.44
0
VERTEX
10
8.14512
20
9.51594
30
7.44
0
VERTEX
10
8.14333
20
9.51953
30
7.44
0
VERTEX
10
8.14154
20
9.52042
30
7.44
0
VERTEX
10
8.14064
20
9.52401
30
7.44
0
VERTEX
10
8.13526
20
9.52939
30
7.44
0
VERTEX
10
8.13347
20
9.53118
30
7.44
0
VERTEX
10
8.12629
20
9.53208
30
7.44
0
VERTEX
10
8.12271
20
9.53208
30
7.44
0
VERTEX
10
8.11912
20
9.52939
30
7.44
0
VERTEX
10
8.11374
20
9.52132
30
7.44
0
VERTEX
10
8.11195
20
9.51415
30
7.44
0
VERTEX
10
8.10926
20
9.51056
30
7.44
0
VERTEX
10
8.10836
20
9.50697
30
7.44
0
VERTEX
10
8.10657
20
9.50518
30
7.44
0
VERTEX
10
8.10567
20
9.49084
30
7.44
0
VERTEX
10
8.10567
20
9.48725
30
7.44
0
VERTEX
10
8.10567
20
9.48635
30
7.44
0
SEQEND
0
POLYLINE
62
31
66
1
70
1
3
contour
0
VERTEX
10
7.30094
20
8.95369
30
7.44
0
VERTEX
10
7.30771
20
8.93565
30
7.44
0
VERTEX
10
7.31898
20
8.91761
30
7.44
0
VERTEX
10
7.32574
20
8.90859
30
7.44
0
VERTEX
10
7.34378
20
8.91085
30
7.44
0
VERTEX
10
7.36182
20
8.91761
30
7.44
0
VERTEX
10
7.37986
20
8.92888
30
7.44
0
VERTEX
10
7.38888
20
8.93114
30
7.44
0
VERTEX
10
7.40466
20
8.94467
30
7.44
0
VERTEX
10
7.41368
20
8.94918
30
7.44
0
VERTEX
10
7.41819
20
8.95369
30
7.44
0
VERTEX
10
7.43623
20
8.95594
30
7.44
0
VERTEX
10
7.44525
20
8.9582
30
7.44
0
VERTEX
10
7.45201
20
8.96496
30
7.44
0
VERTEX
10
7.46103
20
8.96722
30
7.44
0
VERTEX
10
7.46779
20
8.97398
30
7.44
0
VERTEX
10
7.47005
20
8.97849
30
7.44
0
VERTEX
10
7.47456
20
8.97849
30
7.44
0
VERTEX
10
7.48358
20
8.98751
30
7.44
0
VERTEX
10
7.48809
20
8.99653
30
7.44
0
VERTEX
10
7.48809
20
9.00555
30
7.44
0
VERTEX
10
7.48809
20
9.01006
30
7.44
0
VERTEX
10
7.4926
20
9.01457
30
7.44
0
VERTEX
10
7.49034
20
9.08672
30
7.44
0
VERTEX
10
7.48809
20
9.09574
30
7.44
0
VERTEX
10
7.48583
20
9.10025
30
7.44
0
VERTEX
10
7.46779
20
9.10025
30
7.44
0
VERTEX
10
7.44976
20
9.08446
30
7.44
0
VERTEX
10
7.44976
20
9.07995
30
7.44
0
VERTEX
10
7.44299
20
9.07319
30
7.44
0
VERTEX
10
7.44074
20
9.05515
30
7.44
0
VERTEX
10
7.43397
20
9.03937
30
7.44
0
VERTEX
10
7.4227
20
9.02358
30
7.44
0
VERTEX
10
7.40466
20
9.01908
30
7.44
0
VERTEX
10
7.36858
20
9.00329
30
7.44
0
VERTEX
10
7.35957
20
8.99878
30
7.44
0
VERTEX
10
7.34153
20
8.99878
30
7.44
0
VERTEX
10
7.32349
20
8.99202
30
7.44
0
VERTEX
10
7.30545
20
8.97849
30
7.44
0
VERTEX
10
7.30545
20
8.96947
30
7.44
0
VERTEX
10
7.30094
20
8.96496
30
7.44
0
VERTEX
10
7.30094
20
8.95594
30
7.44
0
SEQEND
0
POLYLINE
62
31
66
1
70
1
3
contour
0
VERTEX
10
7.7554
20
9.92792
30
7.44
0
VERTEX
10
7.7628
20
9.91609
30
7.44
0
VERTEX
10
7.76724
20
9.91165
30
7.44
0
VERTEX
10
7.76724
20
9.9087
30
7.44
0
VERTEX
10
7.7835
20
9.88651
30
7.44
0
VERTEX
10
7.80273
20
9.86729
30
7.44
0
VERTEX
10
7.81308
20
9.85989
30
7.44
0
VERTEX
10
7.81604
20
9.85693
30
7.44
0
VERTEX
10
7.83822
20
9.84954
30
7.44
0
VERTEX
10
7.84858
20
9.84067
30
7.44
0
VERTEX
10
7.85597
20
9.83179
30
7.44
0
VERTEX
10
7.86632
20
9.82144
30
7.44
0
VERTEX
10
7.86632
20
9.81848
30
7.44
0
VERTEX
10
7.87667
20
9.80665
30
7.44
0
VERTEX
10
7.89738
20
9.79038
30
7.44
0
VERTEX
10
7.91808
20
9.76968
30
7.44
0
VERTEX
10
7.924
20
9.76524
30
7.44
0
VERTEX
10
7.92696
20
9.75933
30
7.44
0
VERTEX
10
7.92844
20
9.7475
30
7.44
0
VERTEX
10
7.93287
20
9.74158
30
7.44
0
VERTEX
10
7.93583
20
9.72975
30
7.44
0
VERTEX
10
7.93879
20
9.72679
30
7.44
0
VERTEX
10
7.94027
20
9.71496
30
7.44
0
VERTEX
10
7.93583
20
9.6913
30
7.44
0
VERTEX
10
7.93435
20
9.66763
30
7.44
0
VERTEX
10
7.93583
20
9.6558
30
7.44
0
VERTEX
10
7.93731
20
9.65285
30
7.44
0
VERTEX
10
7.93583
20
9.64693
30
7.44
0
VERTEX
10
7.93583
20
9.64397
30
7.44
0
VERTEX
10
7.93879
20
9.64101
30
7.44
0
VERTEX
10
7.94027
20
9.62918
30
7.44
0
VERTEX
10
7.94914
20
9.62031
30
7.44
0
VERTEX
10
7.95654
20
9.60848
30
7.44
0
VERTEX
10
7.95949
20
9.60256
30
7.44
0
VERTEX
10
7.95949
20
9.5789
30
7.44
0
VERTEX
10
7.95949
20
9.56707
30
7.44
0
VERTEX
10
7.95801
20
9.56115
30
7.44
0
VERTEX
10
7.95801
20
9.55819
30
7.44
0
VERTEX
10
7.9521
20
9.55376
30
7.44
0
VERTEX
10
7.92844
20
9.55228
30
7.44
0
VERTEX
10
7.9166
20
9.54341
30
7.44
0
VERTEX
10
7.91365
20
9.53749
30
7.44
0
VERTEX
10
7.90182
20
9.52714
30
7.44
0
VERTEX
10
7.89886
20
9.52714
30
7.44
0
VERTEX
10
7.89442
20
9.51974
30
7.44
0
VERTEX
10
7.89146
20
9.51826
30
7.44
0
VERTEX
10
7.89294
20
9.4946
30
7.44
0
VERTEX
10
7.8959
20
9.48277
30
7.44
0
VERTEX
10
7.90329
20
9.47094
30
7.44
0
VERTEX
10
7.90625
20
9.45911
30
7.44
0
VERTEX
10
7.90773
20
9.41178
30
7.44
0
VERTEX
10
7.89294
20
9.39256
30
7.44
0
VERTEX
10
7.88407
20
9.3822
30
7.44
0
VERTEX
10
7.87815
20
9.38073
30
7.44
0
VERTEX
10
7.87076
20
9.37037
30
7.44
0
VERTEX
10
7.87076
20
9.34671
30
7.44
0
VERTEX
10
7.87372
20
9.34375
30
7.44
0
VERTEX
10
7.87372
20
9.33192
30
7.44
0
VERTEX
10
7.87815
20
9.32601
30
7.44
0
VERTEX
10
7.9728
20
9.32896
30
7.44
0
VERTEX
10
7.99647
20
9.33636
30
7.44
0
VERTEX
10
7.99942
20
9.33932
30
7.44
0
VERTEX
10
8.02309
20
9.34671
30
7.44
0
VERTEX
10
8.03492
20
9.34819
30
7.44
0
VERTEX
10
8.04083
20
9.35115
30
7.44
0
VERTEX
10
8.04379
20
9.35115
30
7.44
0
VERTEX
10
8.04823
20
9.35558
30
7.44
0
VERTEX
10
8.05119
20
9.35706
30
7.44
0
VERTEX
10
8.05119
20
9.36002
30
7.44
0
VERTEX
10
8.0571
20
9.36446
30
7.44
0
VERTEX
10
8.06006
20
9.36742
30
7.44
0
VERTEX
10
8.06154
20
9.37333
30
7.44
0
VERTEX
10
8.07337
20
9.38073
30
7.44
0
VERTEX
10
8.08372
20
9.39108
30
7.44
0
VERTEX
10
8.08668
20
9.39404
30
7.44
0
VERTEX
10
8.0926
20
9.39404
30
7.44
0
VERTEX
10
8.09555
20
9.39699
30
7.44
0
VERTEX
10
8.10147
20
9.39699
30
7.44
0
VERTEX
10
8.1133
20
9.40587
30
7.44
0
VERTEX
10
8.11626
20
9.40883
30
7.44
0
VERTEX
10
8.13992
20
9.4103
30
7.44
0
VERTEX
10
8.15027
20
9.41918
30
7.44
0
VERTEX
10
8.15323
20
9.41918
30
7.44
0
VERTEX
10
8.15619
20
9.42214
30
7.44
0
VERTEX
10
8.15915
20
9.42214
30
7.44
0
VERTEX
10
8.17541
20
9.44284
30
7.44
0
VERTEX
10
8.18577
20
9.45467
30
7.44
0
VERTEX
10
8.20943
20
9.47094
30
7.44
0
VERTEX
10
8.21534
20
9.4739
30
7.44
0
VERTEX
10
8.2183
20
9.47685
30
7.44
0
VERTEX
10
8.22422
20
9.47685
30
7.44
0
VERTEX
10
8.22865
20
9.48129
30
7.44
0
VERTEX
10
8.25232
20
9.49017
30
7.44
0
VERTEX
10
8.2745
20
9.50643
30
7.44
0
VERTEX
10
8.28633
20
9.51087
30
7.44
0
VERTEX
10
8.29225
20
9.51531
30
7.44
0
VERTEX
10
8.30408
20
9.51974
30
7.44
0
VERTEX
10
8.30852
20
9.52418
30
7.44
0
VERTEX
10
8.33218
20
9.53157
30
7.44
0
VERTEX
10
8.3795
20
9.53897
30
7.44
0
VERTEX
10
8.42683
20
9.53897
30
7.44
0
VERTEX
10
8.45049
20
9.54341
30
7.44
0
VERTEX
10
8.47415
20
9.5508
30
7.44
0
VERTEX
10
8.47711
20
9.55376
30
7.44
0
VERTEX
10
8.48303
20
9.55376
30
7.44
0
VERTEX
10
8.49486
20
9.55967
30
7.44
0
VERTEX
10
8.49782
20
9.56263
30
7.44
0
VERTEX
10
8.50077
20
9.56263
30
7.44
0
VERTEX
10
8.51113
20
9.57003
30
7.44
0
VERTEX
10
8.52148
20
9.57446
30
7.44
0
VERTEX
10
8.54366
20
9.58777
30
7.44
0
VERTEX
10
8.55549
20
9.59369
30
7.44
0
VERTEX
10
8.55993
20
9.5996
30
7.44
0
VERTEX
10
8.57028
20
9.60552
30
7.44
0
VERTEX
10
8.59247
20
9.6277
30
7.44
0
VERTEX
10
8.59838
20
9.62918
30
7.44
0
VERTEX
10
8.60578
20
9.63953
30
7.44
0
VERTEX
10
8.61169
20
9.64249
30
7.44
0
VERTEX
10
8.61465
20
9.64841
30
7.44
0
VERTEX
10
8.63388
20
9.67059
30
7.44
0
VERTEX
10
8.65458
20
9.68982
30
7.44
0
VERTEX
10
8.6605
20
9.69425
30
7.44
0
VERTEX
10
8.6605
20
9.69721
30
7.44
0
VERTEX
10
8.66789
20
9.70756
30
7.44
0
VERTEX
10
8.67085
20
9.70756
30
7.44
0
VERTEX
10
8.6812
20
9.71644
30
7.44
0
VERTEX
10
8.68416
20
9.72088
30
7.44
0
VERTEX
10
8.70782
20
9.73419
30
7.44
0
VERTEX
10
8.71965
20
9.73714
30
7.44
0
VERTEX
10
8.72409
20
9.74158
30
7.44
0
VERTEX
10
8.72853
20
9.75341
30
7.44
0
VERTEX
10
8.7374
20
9.76228
30
7.44
0
VERTEX
10
8.75958
20
9.77559
30
7.44
0
VERTEX
10
8.77141
20
9.78299
30
7.44
0
VERTEX
10
8.77585
20
9.7889
30
7.44
0
VERTEX
10
8.77585
20
9.79186
30
7.44
0
VERTEX
10
8.79508
20
9.81109
30
7.44
0
VERTEX
10
8.79508
20
9.82292
30
7.44
0
VERTEX
10
8.79064
20
9.82884
30
7.44
0
VERTEX
10
8.7862
20
9.84067
30
7.44
0
VERTEX
10
8.78473
20
9.84658
30
7.44
0
VERTEX
10
8.77289
20
9.85102
30
7.44
0
VERTEX
10
8.76994
20
9.85102
30
7.44
0
VERTEX
10
8.76402
20
9.85546
30
7.44
0
VERTEX
10
8.75219
20
9.85841
30
7.44
0
VERTEX
10
8.72853
20
9.87468
30
7.44
0
VERTEX
10
8.72557
20
9.87764
30
7.44
0
VERTEX
10
8.72261
20
9.87764
30
7.44
0
VERTEX
10
8.71817
20
9.88356
30
7.44
0
VERTEX
10
8.71078
20
9.89095
30
7.44
0
VERTEX
10
8.70339
20
9.90278
30
7.44
0
VERTEX
10
8.69155
20
9.91461
30
7.44
0
VERTEX
10
8.6812
20
9.92349
30
7.44
0
VERTEX
10
8.67529
20
9.92349
30
7.44
0
VERTEX
10
8.6324
20
9.9575
30
7.44
0
VERTEX
10
8.62648
20
9.96046
30
7.44
0
VERTEX
10
8.61761
20
9.97081
30
7.44
0
VERTEX
10
8.61169
20
9.97525
30
7.44
0
VERTEX
10
8.60578
20
9.97525
30
7.44
0
VERTEX
10
8.59542
20
9.9856
30
7.44
0
VERTEX
10
8.59099
20
9.99004
30
7.44
0
VERTEX
10
8.58507
20
9.99004
30
7.44
0
VERTEX
10
8.56289
20
10.0004
30
7.44
0
VERTEX
10
8.55106
20
10.0033
30
7.44
0
VERTEX
10
8.52887
20
10.0196
30
7.44
0
VERTEX
10
8.52296
20
10.0226
30
7.44
0
VERTEX
10
8.51113
20
10.0329
30
7.44
0
VERTEX
10
8.50521
20
10.0359
30
7.44
0
VERTEX
10
8.4993
20
10.0418
30
7.44
0
VERTEX
10
8.48894
20
10.0477
30
7.44
0
VERTEX
10
8.48303
20
10.0507
30
7.44
0
VERTEX
10
8.47711
20
10.0566
30
7.44
0
VERTEX
10
8.47563
20
10.0625
30
7.44
0
VERTEX
10
8.45345
20
10.0788
30
7.44
0
VERTEX
10
8.44162
20
10.0862
30
7.44
0
VERTEX
10
8.42979
20
10.0876
30
7.44
0
VERTEX
10
8.41943
20
10.0965
30
7.44
0
VERTEX
10
8.41796
20
10.1069
30
7.44
0
VERTEX
10
8.4076
20
10.1187
30
7.44
0
VERTEX
10
8.40169
20
10.1231
30
7.44
0
VERTEX
10
8.39577
20
10.1246
30
7.44
0
VERTEX
10
8.3869
20
10.1364
30
7.44
0
VERTEX
10
8.37507
20
10.1468
30
7.44
0
VERTEX
10
8.36324
20
10.1512
30
7.44
0
VERTEX
10
8.35732
20
10.1557
30
7.44
0
VERTEX
10
8.35436
20
10.1586
30
7.44
0
VERTEX
10
8.35436
20
10.1616
30
7.44
0
VERTEX
10
8.3307
20
10.1793
30
7.44
0
VERTEX
10
8.31147
20
10.2015
30
7.44
0
VERTEX
10
8.29521
20
10.2207
30
7.44
0
VERTEX
10
8.29225
20
10.2237
30
7.44
0
VERTEX
10
8.28042
20
10.2267
30
7.44
0
VERTEX
10
8.2745
20
10.2252
30
7.44
0
VERTEX
10
8.27154
20
10.2252
30
7.44
0
VERTEX
10
8.27006
20
10.2281
30
7.44
0
VERTEX
10
8.2464
20
10.2326
30
7.44
0
VERTEX
10
8.22274
20
10.2296
30
7.44
0
VERTEX
10
8.21091
20
10.2222
30
7.44
0
VERTEX
10
8.20499
20
10.2178
30
7.44
0
VERTEX
10
8.20203
20
10.2148
30
7.44
0
VERTEX
10
8.19612
20
10.2134
30
7.44
0
VERTEX
10
8.18577
20
10.2045
30
7.44
0
VERTEX
10
8.17985
20
10.203
30
7.44
0
VERTEX
10
8.17394
20
10.1986
30
7.44
0
VERTEX
10
8.1621
20
10.1956
30
7.44
0
VERTEX
10
8.15027
20
10.1897
30
7.44
0
VERTEX
10
8.14436
20
10.1853
30
7.44
0
VERTEX
10
8.13844
20
10.1838
30
7.44
0
VERTEX
10
8.134
20
10.1793
30
7.44
0
VERTEX
10
8.12217
20
10.1779
30
7.44
0
VERTEX
10
8.11774
20
10.1719
30
7.44
0
VERTEX
10
8.09407
20
10.1601
30
7.44
0
VERTEX
10
8.08224
20
10.1557
30
7.44
0
VERTEX
10
8.07633
20
10.1512
30
7.44
0
VERTEX
10
8.0645
20
10.1468
30
7.44
0
VERTEX
10
8.04231
20
10.132
30
7.44
0
VERTEX
10
8.03048
20
10.1276
30
7.44
0
VERTEX
10
8.029
20
10.1217
30
7.44
0
VERTEX
10
8.01717
20
10.1202
30
7.44
0
VERTEX
10
8.00682
20
10.1128
30
7.44
0
VERTEX
10
8.0009
20
10.1098
30
7.44
0
VERTEX
10
7.99942
20
10.1069
30
7.44
0
VERTEX
10
7.98759
20
10.1024
30
7.44
0
VERTEX
10
7.98168
20
10.098
30
7.44
0
VERTEX
10
7.97872
20
10.0921
30
7.44
0
VERTEX
10
7.9728
20
10.0876
30
7.44
0
VERTEX
10
7.9728
20
10.0847
30
7.44
0
VERTEX
10
7.96837
20
10.0788
30
7.44
0
VERTEX
10
7.96245
20
10.0758
30
7.44
0
VERTEX
10
7.95949
20
10.0758
30
7.44
0
VERTEX
10
7.95358
20
10.0699
30
7.44
0
VERTEX
10
7.93139
20
10.0566
30
7.44
0
VERTEX
10
7.91956
20
10.0536
30
7.44
0
VERTEX
10
7.8959
20
10.0536
30
7.44
0
VERTEX
10
7.87224
20
10.0418
30
7.44
0
VERTEX
10
7.86041
20
10.0374
30
7.44
0
VERTEX
10
7.85449
20
10.0344
30
7.44
0
VERTEX
10
7.84858
20
10.0285
30
7.44
0
VERTEX
10
7.84266
20
10.027
30
7.44
0
VERTEX
10
7.83822
20
10.0211
30
7.44
0
VERTEX
10
7.83231
20
10.0196
30
7.44
0
VERTEX
10
7.82639
20
10.0152
30
7.44
0
VERTEX
10
7.82048
20
10.0137
30
7.44
0
VERTEX
10
7.81752
20
10.0137
30
7.44
0
VERTEX
10
7.80717
20
10.0048
30
7.44
0
VERTEX
10
7.80125
20
10.0033
30
7.44
0
VERTEX
10
7.79238
20
9.99152
30
7.44
0
VERTEX
10
7.78646
20
9.98708
30
7.44
0
VERTEX
10
7.77907
20
9.97821
30
7.44
0
VERTEX
10
7.76871
20
9.96933
30
7.44
0
VERTEX
10
7.7628
20
9.9649
30
7.44
0
VERTEX
10
7.7554
20
9.95454
30
7.44
0
VERTEX
10
7.7554
20
9.93088
30
7.44
0
VERTEX
10
7.7554
20
9.9294
30
7.44
0
SEQEND
0
POLYLINE
62
31
66
1
70
1
3
contour
0
VERTEX
10
7.50843
20
10.2207
30
7.44
0
VERTEX
10
7.5099
20
10.2148
30
7.44
0
VERTEX
10
7.51286
20
10.2119
30
7.44
0
VERTEX
10
7.51878
20
10.2119
30
7.44
0
VERTEX
10
7.52765
20
10.2015
30
7.44
0
VERTEX
10
7.53061
20
10.1986
30
7.44
0
VERTEX
10
7.53357
20
10.1986
30
7.44
0
VERTEX
10
7.54244
20
10.1897
30
7.44
0
VERTEX
10
7.54392
20
10.1853
30
7.44
0
VERTEX
10
7.54984
20
10.1823
30
7.44
0
VERTEX
10
7.56167
20
10.1808
30
7.44
0
VERTEX
10
7.56758
20
10.1808
30
7.44
0
VERTEX
10
7.5735
20
10.1779
30
7.44
0
VERTEX
10
7.59716
20
10.1793
30
7.44
0
VERTEX
10
7.60012
20
10.1793
30
7.44
0
VERTEX
10
7.6016
20
10.1823
30
7.44
0
VERTEX
10
7.61343
20
10.1823
30
7.44
0
VERTEX
10
7.61639
20
10.1853
30
7.44
0
VERTEX
10
7.61934
20
10.1853
30
7.44
0
VERTEX
10
7.6297
20
10.1956
30
7.44
0
VERTEX
10
7.63561
20
10.2
30
7.44
0
VERTEX
10
7.63857
20
10.203
30
7.44
0
VERTEX
10
7.63857
20
10.206
30
7.44
0
VERTEX
10
7.64449
20
10.2089
30
7.44
0
VERTEX
10
7.65188
20
10.2207
30
7.44
0
VERTEX
10
7.6578
20
10.2267
30
7.44
0
VERTEX
10
7.65632
20
10.2385
30
7.44
0
VERTEX
10
7.65336
20
10.24
30
7.44
0
VERTEX
10
7.65188
20
10.2459
30
7.44
0
VERTEX
10
7.64449
20
10.2577
30
7.44
0
VERTEX
10
7.63413
20
10.2696
30
7.44
0
VERTEX
10
7.63265
20
10.2755
30
7.44
0
VERTEX
10
7.6223
20
10.2843
30
7.44
0
VERTEX
10
7.61639
20
10.2888
30
7.44
0
VERTEX
10
7.61047
20
10.2903
30
7.44
0
VERTEX
10
7.60308
20
10.3006
30
7.44
0
VERTEX
10
7.60012
20
10.3065
30
7.44
0
VERTEX
10
7.58829
20
10.308
30
7.44
0
VERTEX
10
7.56462
20
10.305
30
7.44
0
VERTEX
10
7.55871
20
10.3036
30
7.44
0
VERTEX
10
7.55131
20
10.2917
30
7.44
0
VERTEX
10
7.54836
20
10.2873
30
7.44
0
VERTEX
10
7.54244
20
10.2858
30
7.44
0
VERTEX
10
7.52174
20
10.2651
30
7.44
0
VERTEX
10
7.51582
20
10.2592
30
7.44
0
VERTEX
10
7.5099
20
10.2474
30
7.44
0
VERTEX
10
7.50843
20
10.2237
30
7.44
0
VERTEX
10
7.50843
20
10.2222
30
7.44
0
SEQEND
0
ENDSEC
0
EOF
