0
SECTION
2
ENTITIES
0
POLYLINE
62
31
66
1
70
1
3
contour
0
VERTEX
10
8.83402
20
8.93824
30
5.24
0
VERTEX
10
8.83845
20
8.92937
30
5.24
0
VERTEX
10
8.84067
20
8.91163
30
5.24
0
VERTEX
10
8.84511
20
8.90941
30
5.24
0
VERTEX
10
8.84732
20
8.90054
30
5.24
0
VERTEX
10
8.86063
20
8.8828
30
5.24
0
VERTEX
10
8.86728
20
8.86506
30
5.24
0
VERTEX
10
8.87837
20
8.84732
30
5.24
0
VERTEX
10
8.89167
20
8.83402
30
5.24
0
VERTEX
10
8.89611
20
8.82958
30
5.24
0
VERTEX
10
8.90054
20
8.81185
30
5.24
0
VERTEX
10
8.91828
20
8.80519
30
5.24
0
VERTEX
10
8.92271
20
8.80076
30
5.24
0
VERTEX
10
8.92715
20
8.80076
30
5.24
0
VERTEX
10
8.93158
20
8.79189
30
5.24
0
VERTEX
10
8.94932
20
8.78967
30
5.24
0
VERTEX
10
8.96706
20
8.78302
30
5.24
0
VERTEX
10
9.03802
20
8.7808
30
5.24
0
VERTEX
10
9.10897
20
8.78745
30
5.24
0
VERTEX
10
9.12671
20
8.79411
30
5.24
0
VERTEX
10
9.13558
20
8.79411
30
5.24
0
VERTEX
10
9.14223
20
8.80076
30
5.24
0
VERTEX
10
9.1511
20
8.80298
30
5.24
0
VERTEX
10
9.15554
20
8.80298
30
5.24
0
VERTEX
10
9.19102
20
8.82515
30
5.24
0
VERTEX
10
9.22206
20
8.85176
30
5.24
0
VERTEX
10
9.22871
20
8.85841
30
5.24
0
VERTEX
10
9.22871
20
8.86284
30
5.24
0
VERTEX
10
9.2531
20
8.89389
30
5.24
0
VERTEX
10
9.26197
20
8.91163
30
5.24
0
VERTEX
10
9.26419
20
8.9205
30
5.24
0
VERTEX
10
9.26419
20
8.92493
30
5.24
0
VERTEX
10
9.27528
20
8.94045
30
5.24
0
VERTEX
10
9.28636
20
8.97593
30
5.24
0
VERTEX
10
9.2908
20
8.99367
30
5.24
0
VERTEX
10
9.28636
20
9.06463
30
5.24
0
VERTEX
10
9.27971
20
9.1001
30
5.24
0
VERTEX
10
9.26862
20
9.13558
30
5.24
0
VERTEX
10
9.26197
20
9.14445
30
5.24
0
VERTEX
10
9.25975
20
9.1511
30
5.24
0
VERTEX
10
9.24867
20
9.16884
30
5.24
0
VERTEX
10
9.23315
20
9.18658
30
5.24
0
VERTEX
10
9.22428
20
9.19323
30
5.24
0
VERTEX
10
9.21984
20
9.19323
30
5.24
0
VERTEX
10
9.21541
20
9.19767
30
5.24
0
VERTEX
10
9.19767
20
9.19989
30
5.24
0
VERTEX
10
9.19323
20
9.20432
30
5.24
0
VERTEX
10
9.1888
20
9.20432
30
5.24
0
VERTEX
10
9.18436
20
9.20876
30
5.24
0
VERTEX
10
9.17993
20
9.20876
30
5.24
0
VERTEX
10
9.16219
20
9.22428
30
5.24
0
VERTEX
10
9.14667
20
9.23315
30
5.24
0
VERTEX
10
9.14002
20
9.24202
30
5.24
0
VERTEX
10
9.13558
20
9.24645
30
5.24
0
VERTEX
10
9.13115
20
9.26419
30
5.24
0
VERTEX
10
9.13115
20
9.28193
30
5.24
0
VERTEX
10
9.14223
20
9.31741
30
5.24
0
VERTEX
10
9.14445
20
9.33515
30
5.24
0
VERTEX
10
9.14445
20
9.34401
30
5.24
0
VERTEX
10
9.13336
20
9.35954
30
5.24
0
VERTEX
10
9.12671
20
9.36619
30
5.24
0
VERTEX
10
9.12449
20
9.37062
30
5.24
0
VERTEX
10
9.10676
20
9.37728
30
5.24
0
VERTEX
10
9.07128
20
9.37949
30
5.24
0
VERTEX
10
9.06241
20
9.38171
30
5.24
0
VERTEX
10
9.05797
20
9.38171
30
5.24
0
VERTEX
10
9.05354
20
9.38615
30
5.24
0
VERTEX
10
9.0358
20
9.39058
30
5.24
0
VERTEX
10
9.02693
20
9.39723
30
5.24
0
VERTEX
10
8.99145
20
9.41054
30
5.24
0
VERTEX
10
8.97593
20
9.41719
30
5.24
0
VERTEX
10
8.96706
20
9.41719
30
5.24
0
VERTEX
10
8.93158
20
9.40167
30
5.24
0
VERTEX
10
8.92715
20
9.39945
30
5.24
0
VERTEX
10
8.91606
20
9.36397
30
5.24
0
VERTEX
10
8.91828
20
9.32849
30
5.24
0
VERTEX
10
8.92937
20
9.31075
30
5.24
0
VERTEX
10
8.92937
20
9.30632
30
5.24
0
VERTEX
10
8.93824
20
9.29745
30
5.24
0
VERTEX
10
8.97371
20
9.28193
30
5.24
0
VERTEX
10
8.99145
20
9.27749
30
5.24
0
VERTEX
10
9.02693
20
9.27749
30
5.24
0
VERTEX
10
9.04467
20
9.27528
30
5.24
0
VERTEX
10
9.07793
20
9.26197
30
5.24
0
VERTEX
10
9.0868
20
9.25754
30
5.24
0
VERTEX
10
9.09567
20
9.24867
30
5.24
0
VERTEX
10
9.10232
20
9.23093
30
5.24
0
VERTEX
10
9.10232
20
9.21319
30
5.24
0
VERTEX
10
9.09567
20
9.20432
30
5.24
0
VERTEX
10
9.09123
20
9.18658
30
5.24
0
VERTEX
10
9.08902
20
9.17993
30
5.24
0
VERTEX
10
9.07128
20
9.17106
30
5.24
0
VERTEX
10
9.06684
20
9.17106
30
5.24
0
VERTEX
10
9.06241
20
9.16662
30
5.24
0
VERTEX
10
9.05797
20
9.16662
30
5.24
0
VERTEX
10
9.04245
20
9.15554
30
5.24
0
VERTEX
10
9.02471
20
9.1511
30
5.24
0
VERTEX
10
9.01584
20
9.14889
30
5.24
0
VERTEX
10
8.9981
20
9.1378
30
5.24
0
VERTEX
10
8.98924
20
9.13336
30
5.24
0
VERTEX
10
8.97593
20
9.11563
30
5.24
0
VERTEX
10
8.97371
20
9.10676
30
5.24
0
VERTEX
10
8.96928
20
9.10676
30
5.24
0
VERTEX
10
8.96263
20
9.09789
30
5.24
0
VERTEX
10
8.96263
20
9.09345
30
5.24
0
VERTEX
10
8.93824
20
9.06241
30
5.24
0
VERTEX
10
8.92937
20
9.06019
30
5.24
0
VERTEX
10
8.92493
20
9.05132
30
5.24
0
VERTEX
10
8.90719
20
9.04023
30
5.24
0
VERTEX
10
8.88945
20
9.02471
30
5.24
0
VERTEX
10
8.87393
20
9.01363
30
5.24
0
VERTEX
10
8.86063
20
8.99589
30
5.24
0
VERTEX
10
8.84289
20
8.98037
30
5.24
0
VERTEX
10
8.83624
20
8.97371
30
5.24
0
VERTEX
10
8.83402
20
8.94045
30
5.24
0
SEQEND
0
POLYLINE
62
31
66
1
70
1
3
contour
0
VERTEX
10
10.1942
20
8.61102
30
5.24
0
VERTEX
10
10.2023
20
8.60016
30
5.24
0
VERTEX
10
10.2051
20
8.5893
30
5.24
0
VERTEX
10
10.2105
20
8.58658
30
5.24
0
VERTEX
10
10.2105
20
8.58115
30
5.24
0
VERTEX
10
10.2322
20
8.57029
30
5.24
0
VERTEX
10
10.2757
20
8.56486
30
5.24
0
VERTEX
10
10.2865
20
8.56486
30
5.24
0
VERTEX
10
10.2947
20
8.55943
30
5.24
0
VERTEX
10
10.3055
20
8.55943
30
5.24
0
VERTEX
10
10.3137
20
8.56758
30
5.24
0
VERTEX
10
10.3137
20
8.61102
30
5.24
0
VERTEX
10
10.3082
20
8.62189
30
5.24
0
VERTEX
10
10.3082
20
8.64361
30
5.24
0
VERTEX
10
10.3001
20
8.65447
30
5.24
0
VERTEX
10
10.3001
20
8.66534
30
5.24
0
VERTEX
10
10.2811
20
8.68434
30
5.24
0
VERTEX
10
10.2757
20
8.68706
30
5.24
0
VERTEX
10
10.2539
20
8.68163
30
5.24
0
VERTEX
10
10.2431
20
8.68163
30
5.24
0
VERTEX
10
10.2241
20
8.66805
30
5.24
0
VERTEX
10
10.2132
20
8.6599
30
5.24
0
VERTEX
10
10.1996
20
8.6409
30
5.24
0
VERTEX
10
10.1942
20
8.63546
30
5.24
0
VERTEX
10
10.1942
20
8.61374
30
5.24
0
SEQEND
0
POLYLINE
62
224
66
1
70
1
3
mitochondrion
0
VERTEX
10
9.05587
20
8.97801
30
5.24
0
VERTEX
10
9.05865
20
8.96688
30
5.24
0
VERTEX
10
9.05865
20
8.96132
30
5.24
0
VERTEX
10
9.0656
20
8.9502
30
5.24
0
VERTEX
10
9.06838
20
8.94881
30
5.24
0
VERTEX
10
9.06838
20
8.94603
30
5.24
0
VERTEX
10
9.07673
20
8.9349
30
5.24
0
VERTEX
10
9.08229
20
8.93073
30
5.24
0
VERTEX
10
9.08368
20
8.92795
30
5.24
0
VERTEX
10
9.12817
20
8.92795
30
5.24
0
VERTEX
10
9.1393
20
8.93351
30
5.24
0
VERTEX
10
9.14347
20
8.93768
30
5.24
0
VERTEX
10
9.15459
20
8.93907
30
5.24
0
VERTEX
10
9.16015
20
8.94325
30
5.24
0
VERTEX
10
9.16571
20
8.94464
30
5.24
0
VERTEX
10
9.17545
20
8.95159
30
5.24
0
VERTEX
10
9.18518
20
8.96271
30
5.24
0
VERTEX
10
9.19213
20
8.97383
30
5.24
0
VERTEX
10
9.19491
20
8.97662
30
5.24
0
VERTEX
10
9.19769
20
8.97662
30
5.24
0
VERTEX
10
9.20465
20
8.98774
30
5.24
0
VERTEX
10
9.21299
20
9.0086
30
5.24
0
VERTEX
10
9.21299
20
9.03084
30
5.24
0
VERTEX
10
9.20882
20
9.04197
30
5.24
0
VERTEX
10
9.19908
20
9.05309
30
5.24
0
VERTEX
10
9.19491
20
9.05726
30
5.24
0
VERTEX
10
9.18935
20
9.05865
30
5.24
0
VERTEX
10
9.17962
20
9.06699
30
5.24
0
VERTEX
10
9.17406
20
9.06977
30
5.24
0
VERTEX
10
9.16989
20
9.07951
30
5.24
0
VERTEX
10
9.16571
20
9.08507
30
5.24
0
VERTEX
10
9.12122
20
9.08368
30
5.24
0
VERTEX
10
9.1101
20
9.08229
30
5.24
0
VERTEX
10
9.10454
20
9.08229
30
5.24
0
VERTEX
10
9.09897
20
9.07812
30
5.24
0
VERTEX
10
9.09341
20
9.07673
30
5.24
0
VERTEX
10
9.09063
20
9.07395
30
5.24
0
VERTEX
10
9.08785
20
9.07395
30
5.24
0
VERTEX
10
9.07395
20
9.05309
30
5.24
0
VERTEX
10
9.07395
20
9.05031
30
5.24
0
VERTEX
10
9.06977
20
9.04614
30
5.24
0
VERTEX
10
9.06977
20
9.04058
30
5.24
0
VERTEX
10
9.06699
20
9.03501
30
5.24
0
VERTEX
10
9.06699
20
9.03223
30
5.24
0
VERTEX
10
9.06421
20
9.02945
30
5.24
0
VERTEX
10
9.06421
20
9.02389
30
5.24
0
VERTEX
10
9.06143
20
9.01833
30
5.24
0
VERTEX
10
9.05865
20
9.01555
30
5.24
0
VERTEX
10
9.05865
20
9.00442
30
5.24
0
VERTEX
10
9.05587
20
8.9933
30
5.24
0
VERTEX
10
9.05587
20
8.98218
30
5.24
0
VERTEX
10
9.05587
20
8.9794
30
5.24
0
SEQEND
0
POLYLINE
62
227
66
1
70
1
3
endoplasmic_reticulum
0
VERTEX
10
9.16859
20
9.12035
30
5.24
0
VERTEX
10
9.17083
20
9.11587
30
5.24
0
VERTEX
10
9.17196
20
9.10689
30
5.24
0
VERTEX
10
9.1742
20
9.1024
30
5.24
0
VERTEX
10
9.17644
20
9.10016
30
5.24
0
VERTEX
10
9.17757
20
9.09567
30
5.24
0
VERTEX
10
9.18654
20
9.09231
30
5.24
0
VERTEX
10
9.18991
20
9.09006
30
5.24
0
VERTEX
10
9.20785
20
9.09119
30
5.24
0
VERTEX
10
9.21683
20
9.09119
30
5.24
0
VERTEX
10
9.2258
20
9.09343
30
5.24
0
VERTEX
10
9.23141
20
9.10016
30
5.24
0
VERTEX
10
9.2359
20
9.10353
30
5.24
0
VERTEX
10
9.23814
20
9.10689
30
5.24
0
VERTEX
10
9.23478
20
9.12484
30
5.24
0
VERTEX
10
9.2258
20
9.13269
30
5.24
0
VERTEX
10
9.22468
20
9.13718
30
5.24
0
VERTEX
10
9.22468
20
9.13942
30
5.24
0
VERTEX
10
9.21907
20
9.1484
30
5.24
0
VERTEX
10
9.21122
20
9.15401
30
5.24
0
VERTEX
10
9.20225
20
9.15737
30
5.24
0
VERTEX
10
9.1843
20
9.1484
30
5.24
0
VERTEX
10
9.17532
20
9.14167
30
5.24
0
VERTEX
10
9.16971
20
9.13381
30
5.24
0
VERTEX
10
9.16859
20
9.12484
30
5.24
0
VERTEX
10
9.16859
20
9.12147
30
5.24
0
SEQEND
0
POLYLINE
62
227
66
1
70
1
3
endoplasmic_reticulum
0
VERTEX
10
8.97227
20
8.96442
30
5.24
0
VERTEX
10
8.97788
20
8.95545
30
5.24
0
VERTEX
10
8.98574
20
8.94872
30
5.24
0
VERTEX
10
8.99471
20
8.94647
30
5.24
0
VERTEX
10
8.9992
20
8.94535
30
5.24
0
VERTEX
10
9.00817
20
8.94759
30
5.24
0
VERTEX
10
9.01715
20
8.95432
30
5.24
0
VERTEX
10
9.01827
20
8.9633
30
5.24
0
VERTEX
10
9.01715
20
8.97227
30
5.24
0
VERTEX
10
9.01266
20
8.98125
30
5.24
0
VERTEX
10
9.01042
20
8.98237
30
5.24
0
VERTEX
10
9.00817
20
8.98125
30
5.24
0
VERTEX
10
8.9992
20
8.98237
30
5.24
0
VERTEX
10
8.99471
20
8.98349
30
5.24
0
VERTEX
10
8.97676
20
8.97564
30
5.24
0
VERTEX
10
8.9734
20
8.97227
30
5.24
0
VERTEX
10
8.97227
20
8.96779
30
5.24
0
VERTEX
10
8.97227
20
8.96554
30
5.24
0
SEQEND
0
ENDSEC
0
EOF
