0
SECTION
2
ENTITIES
0
POLYLINE
62
31
66
1
70
1
3
contour
0
VERTEX
10
8.75863
20
9.26862
30
5.6
0
VERTEX
10
8.76971
20
9.19767
30
5.6
0
VERTEX
10
8.76971
20
9.12671
30
5.6
0
VERTEX
10
8.77415
20
9.11784
30
5.6
0
VERTEX
10
8.77637
20
9.1001
30
5.6
0
VERTEX
10
8.78302
20
9.09123
30
5.6
0
VERTEX
10
8.78524
20
9.08236
30
5.6
0
VERTEX
10
8.79189
20
9.0735
30
5.6
0
VERTEX
10
8.79411
20
9.06463
30
5.6
0
VERTEX
10
8.79411
20
9.06019
30
5.6
0
VERTEX
10
8.82293
20
9.0358
30
5.6
0
VERTEX
10
8.8318
20
9.02915
30
5.6
0
VERTEX
10
8.84954
20
9.0225
30
5.6
0
VERTEX
10
8.85841
20
9.01584
30
5.6
0
VERTEX
10
8.89389
20
9.00919
30
5.6
0
VERTEX
10
8.96484
20
9.00476
30
5.6
0
VERTEX
10
9.00032
20
9.00476
30
5.6
0
VERTEX
10
9.07128
20
9.01363
30
5.6
0
VERTEX
10
9.08902
20
9.01584
30
5.6
0
VERTEX
10
9.10676
20
9.0225
30
5.6
0
VERTEX
10
9.12449
20
9.02471
30
5.6
0
VERTEX
10
9.14223
20
9.03137
30
5.6
0
VERTEX
10
9.15997
20
9.03137
30
5.6
0
VERTEX
10
9.19545
20
9.04245
30
5.6
0
VERTEX
10
9.20432
20
9.0491
30
5.6
0
VERTEX
10
9.21319
20
9.05132
30
5.6
0
VERTEX
10
9.2398
20
9.08015
30
5.6
0
VERTEX
10
9.24645
20
9.0868
30
5.6
0
VERTEX
10
9.2531
20
9.10232
30
5.6
0
VERTEX
10
9.25532
20
9.11119
30
5.6
0
VERTEX
10
9.26862
20
9.12671
30
5.6
0
VERTEX
10
9.28415
20
9.1378
30
5.6
0
VERTEX
10
9.28636
20
9.14667
30
5.6
0
VERTEX
10
9.30188
20
9.16219
30
5.6
0
VERTEX
10
9.30854
20
9.17993
30
5.6
0
VERTEX
10
9.30854
20
9.1888
30
5.6
0
VERTEX
10
9.31297
20
9.19102
30
5.6
0
VERTEX
10
9.30632
20
9.26197
30
5.6
0
VERTEX
10
9.29967
20
9.27084
30
5.6
0
VERTEX
10
9.29745
20
9.27971
30
5.6
0
VERTEX
10
9.29302
20
9.28415
30
5.6
0
VERTEX
10
9.28858
20
9.30188
30
5.6
0
VERTEX
10
9.28193
20
9.30854
30
5.6
0
VERTEX
10
9.27971
20
9.31741
30
5.6
0
VERTEX
10
9.2531
20
9.34845
30
5.6
0
VERTEX
10
9.2398
20
9.36397
30
5.6
0
VERTEX
10
9.23093
20
9.36619
30
5.6
0
VERTEX
10
9.21984
20
9.38393
30
5.6
0
VERTEX
10
9.18658
20
9.41054
30
5.6
0
VERTEX
10
9.1511
20
9.41719
30
5.6
0
VERTEX
10
9.13336
20
9.41719
30
5.6
0
VERTEX
10
9.12449
20
9.41275
30
5.6
0
VERTEX
10
9.05354
20
9.41941
30
5.6
0
VERTEX
10
9.01806
20
9.42162
30
5.6
0
VERTEX
10
8.9471
20
9.41941
30
5.6
0
VERTEX
10
8.92937
20
9.41941
30
5.6
0
VERTEX
10
8.91163
20
9.41497
30
5.6
0
VERTEX
10
8.90276
20
9.41054
30
5.6
0
VERTEX
10
8.86728
20
9.41054
30
5.6
0
VERTEX
10
8.84954
20
9.4061
30
5.6
0
VERTEX
10
8.8318
20
9.4061
30
5.6
0
VERTEX
10
8.82071
20
9.39058
30
5.6
0
VERTEX
10
8.8185
20
9.38615
30
5.6
0
VERTEX
10
8.81406
20
9.38615
30
5.6
0
VERTEX
10
8.80298
20
9.35067
30
5.6
0
VERTEX
10
8.77193
20
9.32184
30
5.6
0
VERTEX
10
8.76306
20
9.3041
30
5.6
0
VERTEX
10
8.75863
20
9.29523
30
5.6
0
VERTEX
10
8.75863
20
9.27749
30
5.6
0
VERTEX
10
8.75863
20
9.27084
30
5.6
0
SEQEND
0
POLYLINE
62
224
66
1
70
1
3
mitochondrion
0
VERTEX
10
9.06004
20
9.22967
30
5.6
0
VERTEX
10
9.06699
20
9.20743
30
5.6
0
VERTEX
10
9.06838
20
9.1963
30
5.6
0
VERTEX
10
9.08646
20
9.1532
30
5.6
0
VERTEX
10
9.08924
20
9.14208
30
5.6
0
VERTEX
10
9.09341
20
9.13651
30
5.6
0
VERTEX
10
9.09619
20
9.13651
30
5.6
0
VERTEX
10
9.10454
20
9.12817
30
5.6
0
VERTEX
10
9.12678
20
9.12261
30
5.6
0
VERTEX
10
9.14903
20
9.12122
30
5.6
0
VERTEX
10
9.16015
20
9.12539
30
5.6
0
VERTEX
10
9.17962
20
9.14347
30
5.6
0
VERTEX
10
9.20187
20
9.15876
30
5.6
0
VERTEX
10
9.20187
20
9.16154
30
5.6
0
VERTEX
10
9.2116
20
9.16849
30
5.6
0
VERTEX
10
9.22133
20
9.17962
30
5.6
0
VERTEX
10
9.22689
20
9.19074
30
5.6
0
VERTEX
10
9.22828
20
9.21299
30
5.6
0
VERTEX
10
9.22411
20
9.25748
30
5.6
0
VERTEX
10
9.22272
20
9.26861
30
5.6
0
VERTEX
10
9.21577
20
9.27973
30
5.6
0
VERTEX
10
9.2116
20
9.2839
30
5.6
0
VERTEX
10
9.21021
20
9.29502
30
5.6
0
VERTEX
10
9.20604
20
9.30059
30
5.6
0
VERTEX
10
9.20465
20
9.30615
30
5.6
0
VERTEX
10
9.20465
20
9.30893
30
5.6
0
VERTEX
10
9.19491
20
9.31727
30
5.6
0
VERTEX
10
9.19352
20
9.32839
30
5.6
0
VERTEX
10
9.18657
20
9.33674
30
5.6
0
VERTEX
10
9.17684
20
9.34091
30
5.6
0
VERTEX
10
9.17128
20
9.3423
30
5.6
0
VERTEX
10
9.16571
20
9.34647
30
5.6
0
VERTEX
10
9.14347
20
9.34508
30
5.6
0
VERTEX
10
9.13234
20
9.34369
30
5.6
0
VERTEX
10
9.12678
20
9.3423
30
5.6
0
VERTEX
10
9.11705
20
9.33535
30
5.6
0
VERTEX
10
9.10593
20
9.33118
30
5.6
0
VERTEX
10
9.10036
20
9.327
30
5.6
0
VERTEX
10
9.09897
20
9.32422
30
5.6
0
VERTEX
10
9.09619
20
9.32422
30
5.6
0
VERTEX
10
9.09063
20
9.31866
30
5.6
0
VERTEX
10
9.08368
20
9.30893
30
5.6
0
VERTEX
10
9.08229
20
9.30337
30
5.6
0
VERTEX
10
9.07534
20
9.29363
30
5.6
0
VERTEX
10
9.07116
20
9.28946
30
5.6
0
VERTEX
10
9.06977
20
9.2839
30
5.6
0
VERTEX
10
9.06143
20
9.27278
30
5.6
0
VERTEX
10
9.06143
20
9.25053
30
5.6
0
VERTEX
10
9.06004
20
9.23941
30
5.6
0
VERTEX
10
9.06004
20
9.23385
30
5.6
0
VERTEX
10
9.06004
20
9.23106
30
5.6
0
SEQEND
0
POLYLINE
62
227
66
1
70
1
3
endoplasmic_reticulum
0
VERTEX
10
8.89732
20
9.23084
30
5.6
0
VERTEX
10
8.90001
20
9.22815
30
5.6
0
VERTEX
10
8.90001
20
9.22636
30
5.6
0
VERTEX
10
8.9045
20
9.22187
30
5.6
0
VERTEX
10
8.9045
20
9.22008
30
5.6
0
VERTEX
10
8.90629
20
9.21829
30
5.6
0
VERTEX
10
8.91346
20
9.2156
30
5.6
0
VERTEX
10
8.91705
20
9.21291
30
5.6
0
VERTEX
10
8.91884
20
9.21291
30
5.6
0
VERTEX
10
8.92332
20
9.20574
30
5.6
0
VERTEX
10
8.92422
20
9.20215
30
5.6
0
VERTEX
10
8.92332
20
9.19946
30
5.6
0
VERTEX
10
8.91615
20
9.19408
30
5.6
0
VERTEX
10
8.91436
20
9.17974
30
5.6
0
VERTEX
10
8.91256
20
9.17794
30
5.6
0
VERTEX
10
8.91077
20
9.1636
30
5.6
0
VERTEX
10
8.91077
20
9.13491
30
5.6
0
VERTEX
10
8.91167
20
9.12774
30
5.6
0
VERTEX
10
8.91794
20
9.11339
30
5.6
0
VERTEX
10
8.91974
20
9.10981
30
5.6
0
VERTEX
10
8.91974
20
9.10801
30
5.6
0
VERTEX
10
8.92332
20
9.10532
30
5.6
0
VERTEX
10
8.93767
20
9.10801
30
5.6
0
VERTEX
10
8.94484
20
9.1107
30
5.6
0
VERTEX
10
8.94843
20
9.11249
30
5.6
0
VERTEX
10
8.95112
20
9.11608
30
5.6
0
VERTEX
10
8.95381
20
9.12325
30
5.6
0
VERTEX
10
8.9565
20
9.12684
30
5.6
0
VERTEX
10
8.95829
20
9.12863
30
5.6
0
VERTEX
10
8.95829
20
9.13043
30
5.6
0
VERTEX
10
8.96098
20
9.13312
30
5.6
0
VERTEX
10
8.96277
20
9.14029
30
5.6
0
VERTEX
10
8.96546
20
9.14387
30
5.6
0
VERTEX
10
8.96725
20
9.15105
30
5.6
0
VERTEX
10
8.96636
20
9.15822
30
5.6
0
VERTEX
10
8.96636
20
9.1618
30
5.6
0
VERTEX
10
8.96367
20
9.16898
30
5.6
0
VERTEX
10
8.96367
20
9.17077
30
5.6
0
VERTEX
10
8.96098
20
9.17256
30
5.6
0
VERTEX
10
8.95919
20
9.17615
30
5.6
0
VERTEX
10
8.95919
20
9.17794
30
5.6
0
VERTEX
10
8.95291
20
9.18422
30
5.6
0
VERTEX
10
8.94574
20
9.1878
30
5.6
0
VERTEX
10
8.94574
20
9.1896
30
5.6
0
VERTEX
10
8.93856
20
9.19408
30
5.6
0
VERTEX
10
8.93408
20
9.20036
30
5.6
0
VERTEX
10
8.93588
20
9.20305
30
5.6
0
VERTEX
10
8.93767
20
9.20394
30
5.6
0
VERTEX
10
8.94036
20
9.21829
30
5.6
0
VERTEX
10
8.94036
20
9.22187
30
5.6
0
VERTEX
10
8.94305
20
9.22815
30
5.6
0
VERTEX
10
8.94394
20
9.23174
30
5.6
0
VERTEX
10
8.94215
20
9.23891
30
5.6
0
VERTEX
10
8.94036
20
9.24249
30
5.6
0
VERTEX
10
8.93408
20
9.24967
30
5.6
0
VERTEX
10
8.92781
20
9.25505
30
5.6
0
VERTEX
10
8.91346
20
9.25594
30
5.6
0
VERTEX
10
8.90629
20
9.25236
30
5.6
0
VERTEX
10
8.90091
20
9.24698
30
5.6
0
VERTEX
10
8.89822
20
9.24339
30
5.6
0
VERTEX
10
8.89732
20
9.23622
30
5.6
0
VERTEX
10
8.89732
20
9.23263
30
5.6
0
VERTEX
10
8.89732
20
9.23174
30
5.6
0
SEQEND
0
POLYLINE
62
227
66
1
70
1
3
endoplasmic_reticulum
0
VERTEX
10
8.8507
20
9.33036
30
5.6
0
VERTEX
10
8.8525
20
9.32856
30
5.6
0
VERTEX
10
8.8525
20
9.32677
30
5.6
0
VERTEX
10
8.85519
20
9.32318
30
5.6
0
VERTEX
10
8.86236
20
9.32049
30
5.6
0
VERTEX
10
8.86953
20
9.32049
30
5.6
0
VERTEX
10
8.88298
20
9.31601
30
5.6
0
VERTEX
10
8.88477
20
9.31242
30
5.6
0
VERTEX
10
8.88477
20
9.30525
30
5.6
0
VERTEX
10
8.88657
20
9.29808
30
5.6
0
VERTEX
10
8.88746
20
9.29449
30
5.6
0
VERTEX
10
8.90001
20
9.28642
30
5.6
0
VERTEX
10
8.9036
20
9.28463
30
5.6
0
VERTEX
10
8.90719
20
9.28463
30
5.6
0
VERTEX
10
8.91077
20
9.28642
30
5.6
0
VERTEX
10
8.91167
20
9.28822
30
5.6
0
VERTEX
10
8.91346
20
9.28822
30
5.6
0
VERTEX
10
8.91974
20
9.2927
30
5.6
0
VERTEX
10
8.92243
20
9.29629
30
5.6
0
VERTEX
10
8.92243
20
9.29808
30
5.6
0
VERTEX
10
8.92601
20
9.30077
30
5.6
0
VERTEX
10
8.92781
20
9.30256
30
5.6
0
VERTEX
10
8.92781
20
9.30973
30
5.6
0
VERTEX
10
8.92512
20
9.31691
30
5.6
0
VERTEX
10
8.92512
20
9.32408
30
5.6
0
VERTEX
10
8.92781
20
9.33842
30
5.6
0
VERTEX
10
8.92781
20
9.35277
30
5.6
0
VERTEX
10
8.92512
20
9.35994
30
5.6
0
VERTEX
10
8.92422
20
9.36353
30
5.6
0
VERTEX
10
8.91705
20
9.36532
30
5.6
0
VERTEX
10
8.88836
20
9.36711
30
5.6
0
VERTEX
10
8.88119
20
9.36532
30
5.6
0
VERTEX
10
8.8776
20
9.36353
30
5.6
0
VERTEX
10
8.87581
20
9.36353
30
5.6
0
VERTEX
10
8.87401
20
9.36173
30
5.6
0
VERTEX
10
8.86774
20
9.35904
30
5.6
0
VERTEX
10
8.86415
20
9.35636
30
5.6
0
VERTEX
10
8.86057
20
9.35636
30
5.6
0
VERTEX
10
8.85429
20
9.35098
30
5.6
0
VERTEX
10
8.8516
20
9.34739
30
5.6
0
VERTEX
10
8.8507
20
9.33305
30
5.6
0
VERTEX
10
8.8507
20
9.33125
30
5.6
0
SEQEND
0
ENDSEC
0
EOF
