0
SECTION
2
ENTITIES
0
POLYLINE
62
31
66
1
70
1
3
contour
0
VERTEX
10
7.52863
20
10.2478
30
8.68
0
VERTEX
10
7.54509
20
10.2214
30
8.68
0
VERTEX
10
7.57143
20
10.2017
30
8.68
0
VERTEX
10
7.59118
20
10.1819
30
8.68
0
VERTEX
10
7.61752
20
10.1655
30
8.68
0
VERTEX
10
7.63727
20
10.1424
30
8.68
0
VERTEX
10
7.65702
20
10.126
30
8.68
0
VERTEX
10
7.67677
20
10.1029
30
8.68
0
VERTEX
10
7.69981
20
10.0865
30
8.68
0
VERTEX
10
7.73603
20
10.0371
30
8.68
0
VERTEX
10
7.74261
20
10.0305
30
8.68
0
VERTEX
10
7.7459
20
10.0173
30
8.68
0
VERTEX
10
7.7459
20
10.0107
30
8.68
0
VERTEX
10
7.76894
20
9.99099
30
8.68
0
VERTEX
10
7.87429
20
9.99758
30
8.68
0
VERTEX
10
7.90062
20
10.0009
30
8.68
0
VERTEX
10
7.90721
20
9.99429
30
8.68
0
VERTEX
10
7.95988
20
9.99099
30
8.68
0
VERTEX
10
7.98621
20
9.9877
30
8.68
0
VERTEX
10
8.03888
20
9.97124
30
8.68
0
VERTEX
10
8.06522
20
9.96137
30
8.68
0
VERTEX
10
8.11789
20
9.95149
30
8.68
0
VERTEX
10
8.14422
20
9.94491
30
8.68
0
VERTEX
10
8.19689
20
9.9482
30
8.68
0
VERTEX
10
8.22323
20
9.95807
30
8.68
0
VERTEX
10
8.2364
20
9.98112
30
8.68
0
VERTEX
10
8.23311
20
10.0075
30
8.68
0
VERTEX
10
8.23969
20
10.0601
30
8.68
0
VERTEX
10
8.24957
20
10.0832
30
8.68
0
VERTEX
10
8.26273
20
10.0963
30
8.68
0
VERTEX
10
8.26273
20
10.1029
30
8.68
0
VERTEX
10
8.27919
20
10.126
30
8.68
0
VERTEX
10
8.28907
20
10.1523
30
8.68
0
VERTEX
10
8.29236
20
10.1655
30
8.68
0
VERTEX
10
8.29894
20
10.1721
30
8.68
0
VERTEX
10
8.29894
20
10.1852
30
8.68
0
VERTEX
10
8.32199
20
10.205
30
8.68
0
VERTEX
10
8.33516
20
10.2116
30
8.68
0
VERTEX
10
8.34174
20
10.2116
30
8.68
0
VERTEX
10
8.35162
20
10.2214
30
8.68
0
VERTEX
10
8.3582
20
10.2214
30
8.68
0
VERTEX
10
8.37795
20
10.2445
30
8.68
0
VERTEX
10
8.39112
20
10.2708
30
8.68
0
VERTEX
10
8.3977
20
10.2774
30
8.68
0
VERTEX
10
8.40429
20
10.3037
30
8.68
0
VERTEX
10
8.41087
20
10.3103
30
8.68
0
VERTEX
10
8.41745
20
10.3366
30
8.68
0
VERTEX
10
8.41745
20
10.3498
30
8.68
0
VERTEX
10
8.42404
20
10.363
30
8.68
0
VERTEX
10
8.42075
20
10.4157
30
8.68
0
VERTEX
10
8.42075
20
10.4288
30
8.68
0
VERTEX
10
8.41416
20
10.4321
30
8.68
0
VERTEX
10
8.40758
20
10.4584
30
8.68
0
VERTEX
10
8.40099
20
10.4617
30
8.68
0
VERTEX
10
8.40099
20
10.4683
30
8.68
0
VERTEX
10
8.38453
20
10.4947
30
8.68
0
VERTEX
10
8.36149
20
10.5177
30
8.68
0
VERTEX
10
8.35491
20
10.5243
30
8.68
0
VERTEX
10
8.34832
20
10.5243
30
8.68
0
VERTEX
10
8.32199
20
10.5473
30
8.68
0
VERTEX
10
8.30882
20
10.5572
30
8.68
0
VERTEX
10
8.28578
20
10.5638
30
8.68
0
VERTEX
10
8.27261
20
10.5737
30
8.68
0
VERTEX
10
8.16727
20
10.5901
30
8.68
0
VERTEX
10
8.06193
20
10.5934
30
8.68
0
VERTEX
10
8.00925
20
10.5967
30
8.68
0
VERTEX
10
7.98292
20
10.6
30
8.68
0
VERTEX
10
7.96975
20
10.6
30
8.68
0
VERTEX
10
7.95658
20
10.6066
30
8.68
0
VERTEX
10
7.93025
20
10.6099
30
8.68
0
VERTEX
10
7.91708
20
10.6132
30
8.68
0
VERTEX
10
7.90721
20
10.6099
30
8.68
0
VERTEX
10
7.89404
20
10.6198
30
8.68
0
VERTEX
10
7.8677
20
10.6165
30
8.68
0
VERTEX
10
7.76565
20
10.5835
30
8.68
0
VERTEX
10
7.75248
20
10.5737
30
8.68
0
VERTEX
10
7.75248
20
10.5671
30
8.68
0
VERTEX
10
7.7459
20
10.5671
30
8.68
0
VERTEX
10
7.73932
20
10.5605
30
8.68
0
VERTEX
10
7.73932
20
10.5539
30
8.68
0
VERTEX
10
7.73273
20
10.5539
30
8.68
0
VERTEX
10
7.72286
20
10.5407
30
8.68
0
VERTEX
10
7.69981
20
10.5243
30
8.68
0
VERTEX
10
7.69323
20
10.5177
30
8.68
0
VERTEX
10
7.69323
20
10.5111
30
8.68
0
VERTEX
10
7.67348
20
10.4848
30
8.68
0
VERTEX
10
7.66689
20
10.4782
30
8.68
0
VERTEX
10
7.66689
20
10.4716
30
8.68
0
VERTEX
10
7.63068
20
10.4255
30
8.68
0
VERTEX
10
7.62081
20
10.4124
30
8.68
0
VERTEX
10
7.62081
20
10.4058
30
8.68
0
VERTEX
10
7.57143
20
10.363
30
8.68
0
VERTEX
10
7.55168
20
10.3399
30
8.68
0
VERTEX
10
7.5418
20
10.3268
30
8.68
0
VERTEX
10
7.53522
20
10.3202
30
8.68
0
VERTEX
10
7.53522
20
10.2939
30
8.68
0
VERTEX
10
7.52863
20
10.2807
30
8.68
0
VERTEX
10
7.52863
20
10.2543
30
8.68
0
VERTEX
10
7.52863
20
10.2511
30
8.68
0
SEQEND
0
POLYLINE
62
31
66
1
70
1
3
contour
0
VERTEX
10
7.18758
20
9.62269
30
8.68
0
VERTEX
10
7.19099
20
9.61927
30
8.68
0
VERTEX
10
7.1927
20
9.60562
30
8.68
0
VERTEX
10
7.1944
20
9.5988
30
8.68
0
VERTEX
10
7.19952
20
9.59368
30
8.68
0
VERTEX
10
7.20123
20
9.58685
30
8.68
0
VERTEX
10
7.21318
20
9.57832
30
8.68
0
VERTEX
10
7.21829
20
9.5732
30
8.68
0
VERTEX
10
7.2729
20
9.57149
30
8.68
0
VERTEX
10
7.3002
20
9.56467
30
8.68
0
VERTEX
10
7.31386
20
9.56296
30
8.68
0
VERTEX
10
7.32751
20
9.55784
30
8.68
0
VERTEX
10
7.34116
20
9.55613
30
8.68
0
VERTEX
10
7.34799
20
9.55613
30
8.68
0
VERTEX
10
7.37188
20
9.53907
30
8.68
0
VERTEX
10
7.38553
20
9.53224
30
8.68
0
VERTEX
10
7.44013
20
9.52201
30
8.68
0
VERTEX
10
7.45379
20
9.5203
30
8.68
0
VERTEX
10
7.46061
20
9.5203
30
8.68
0
VERTEX
10
7.47426
20
9.52542
30
8.68
0
VERTEX
10
7.48791
20
9.52542
30
8.68
0
VERTEX
10
7.49474
20
9.52542
30
8.68
0
VERTEX
10
7.49815
20
9.53224
30
8.68
0
VERTEX
10
7.5118
20
9.54248
30
8.68
0
VERTEX
10
7.52034
20
9.55443
30
8.68
0
VERTEX
10
7.53058
20
9.56296
30
8.68
0
VERTEX
10
7.54081
20
9.57661
30
8.68
0
VERTEX
10
7.563
20
9.59709
30
8.68
0
VERTEX
10
7.5647
20
9.6005
30
8.68
0
VERTEX
10
7.563
20
9.60221
30
8.68
0
VERTEX
10
7.57494
20
9.61245
30
8.68
0
VERTEX
10
7.58006
20
9.61757
30
8.68
0
VERTEX
10
7.58177
20
9.63122
30
8.68
0
VERTEX
10
7.58689
20
9.64487
30
8.68
0
VERTEX
10
7.58689
20
9.67217
30
8.68
0
VERTEX
10
7.58177
20
9.69948
30
8.68
0
VERTEX
10
7.57324
20
9.71142
30
8.68
0
VERTEX
10
7.57153
20
9.71825
30
8.68
0
VERTEX
10
7.55105
20
9.74384
30
8.68
0
VERTEX
10
7.54081
20
9.75408
30
8.68
0
VERTEX
10
7.53399
20
9.7592
30
8.68
0
VERTEX
10
7.52546
20
9.77285
30
8.68
0
VERTEX
10
7.51863
20
9.77627
30
8.68
0
VERTEX
10
7.49986
20
9.80186
30
8.68
0
VERTEX
10
7.47256
20
9.80869
30
8.68
0
VERTEX
10
7.46573
20
9.8104
30
8.68
0
VERTEX
10
7.35652
20
9.80528
30
8.68
0
VERTEX
10
7.34287
20
9.79845
30
8.68
0
VERTEX
10
7.33945
20
9.79845
30
8.68
0
VERTEX
10
7.33433
20
9.79333
30
8.68
0
VERTEX
10
7.32751
20
9.79163
30
8.68
0
VERTEX
10
7.32409
20
9.78821
30
8.68
0
VERTEX
10
7.31044
20
9.78651
30
8.68
0
VERTEX
10
7.28485
20
9.77115
30
8.68
0
VERTEX
10
7.27802
20
9.76944
30
8.68
0
VERTEX
10
7.27119
20
9.76262
30
8.68
0
VERTEX
10
7.26778
20
9.75579
30
8.68
0
VERTEX
10
7.25584
20
9.74555
30
8.68
0
VERTEX
10
7.25242
20
9.73873
30
8.68
0
VERTEX
10
7.25242
20
9.73531
30
8.68
0
VERTEX
10
7.23024
20
9.71483
30
8.68
0
VERTEX
10
7.21829
20
9.70289
30
8.68
0
VERTEX
10
7.21147
20
9.69948
30
8.68
0
VERTEX
10
7.1927
20
9.67559
30
8.68
0
VERTEX
10
7.18758
20
9.66193
30
8.68
0
VERTEX
10
7.18758
20
9.63463
30
8.68
0
VERTEX
10
7.18758
20
9.62781
30
8.68
0
VERTEX
10
7.18758
20
9.62439
30
8.68
0
SEQEND
0
POLYLINE
62
224
66
1
70
1
3
mitochondrion
0
VERTEX
10
7.73357
20
10.2683
30
8.68
0
VERTEX
10
7.73913
20
10.2572
30
8.68
0
VERTEX
10
7.73913
20
10.2544
30
8.68
0
VERTEX
10
7.74191
20
10.2516
30
8.68
0
VERTEX
10
7.74609
20
10.2405
30
8.68
0
VERTEX
10
7.74609
20
10.2377
30
8.68
0
VERTEX
10
7.75026
20
10.235
30
8.68
0
VERTEX
10
7.76555
20
10.2127
30
8.68
0
VERTEX
10
7.77528
20
10.203
30
8.68
0
VERTEX
10
7.78224
20
10.196
30
8.68
0
VERTEX
10
7.78641
20
10.1849
30
8.68
0
VERTEX
10
7.80448
20
10.1668
30
8.68
0
VERTEX
10
7.81004
20
10.1627
30
8.68
0
VERTEX
10
7.82117
20
10.1585
30
8.68
0
VERTEX
10
7.82395
20
10.1585
30
8.68
0
VERTEX
10
7.82673
20
10.1557
30
8.68
0
VERTEX
10
7.83785
20
10.1515
30
8.68
0
VERTEX
10
7.84898
20
10.1446
30
8.68
0
VERTEX
10
7.87122
20
10.1404
30
8.68
0
VERTEX
10
7.91572
20
10.1404
30
8.68
0
VERTEX
10
7.92128
20
10.1432
30
8.68
0
VERTEX
10
7.9324
20
10.1446
30
8.68
0
VERTEX
10
7.94214
20
10.1487
30
8.68
0
VERTEX
10
7.96299
20
10.1627
30
8.68
0
VERTEX
10
7.97133
20
10.1724
30
8.68
0
VERTEX
10
7.9769
20
10.1766
30
8.68
0
VERTEX
10
7.98941
20
10.1974
30
8.68
0
VERTEX
10
7.99358
20
10.203
30
8.68
0
VERTEX
10
7.99358
20
10.2058
30
8.68
0
VERTEX
10
8.00331
20
10.2155
30
8.68
0
VERTEX
10
8.00749
20
10.2266
30
8.68
0
VERTEX
10
8.01027
20
10.2294
30
8.68
0
VERTEX
10
8.01166
20
10.235
30
8.68
0
VERTEX
10
8.01444
20
10.2377
30
8.68
0
VERTEX
10
8.01444
20
10.2433
30
8.68
0
VERTEX
10
8.01722
20
10.2489
30
8.68
0
VERTEX
10
8.01861
20
10.2711
30
8.68
0
VERTEX
10
8.01722
20
10.3156
30
8.68
0
VERTEX
10
8.01722
20
10.3378
30
8.68
0
VERTEX
10
8.01444
20
10.349
30
8.68
0
VERTEX
10
8.01027
20
10.3935
30
8.68
0
VERTEX
10
8.00888
20
10.4046
30
8.68
0
VERTEX
10
8.00888
20
10.4074
30
8.68
0
VERTEX
10
8.0047
20
10.4129
30
8.68
0
VERTEX
10
8.00053
20
10.4241
30
8.68
0
VERTEX
10
7.99636
20
10.4296
30
8.68
0
VERTEX
10
7.99358
20
10.4296
30
8.68
0
VERTEX
10
7.98524
20
10.4393
30
8.68
0
VERTEX
10
7.98246
20
10.4393
30
8.68
0
VERTEX
10
7.97829
20
10.4449
30
8.68
0
VERTEX
10
7.97551
20
10.4449
30
8.68
0
VERTEX
10
7.96438
20
10.4533
30
8.68
0
VERTEX
10
7.95882
20
10.4574
30
8.68
0
VERTEX
10
7.95326
20
10.4574
30
8.68
0
VERTEX
10
7.94214
20
10.4644
30
8.68
0
VERTEX
10
7.93935
20
10.4672
30
8.68
0
VERTEX
10
7.91711
20
10.4644
30
8.68
0
VERTEX
10
7.90598
20
10.4616
30
8.68
0
VERTEX
10
7.88374
20
10.463
30
8.68
0
VERTEX
10
7.86149
20
10.4588
30
8.68
0
VERTEX
10
7.85871
20
10.4588
30
8.68
0
VERTEX
10
7.85593
20
10.456
30
8.68
0
VERTEX
10
7.83368
20
10.4477
30
8.68
0
VERTEX
10
7.82951
20
10.4435
30
8.68
0
VERTEX
10
7.82395
20
10.4421
30
8.68
0
VERTEX
10
7.82117
20
10.4393
30
8.68
0
VERTEX
10
7.81839
20
10.4393
30
8.68
0
VERTEX
10
7.81283
20
10.4338
30
8.68
0
VERTEX
10
7.81144
20
10.4282
30
8.68
0
VERTEX
10
7.8017
20
10.4199
30
8.68
0
VERTEX
10
7.79614
20
10.4171
30
8.68
0
VERTEX
10
7.78502
20
10.4074
30
8.68
0
VERTEX
10
7.76833
20
10.3879
30
8.68
0
VERTEX
10
7.75443
20
10.367
30
8.68
0
VERTEX
10
7.74609
20
10.3448
30
8.68
0
VERTEX
10
7.74052
20
10.3337
30
8.68
0
VERTEX
10
7.73774
20
10.3239
30
8.68
0
VERTEX
10
7.73496
20
10.3184
30
8.68
0
VERTEX
10
7.73357
20
10.2739
30
8.68
0
VERTEX
10
7.73357
20
10.2697
30
8.68
0
SEQEND
0
POLYLINE
62
236
66
1
70
1
3
postsynaptic_density
0
VERTEX
10
7.23351
20
9.57936
30
8.68
0
VERTEX
10
7.23538
20
9.56443
30
8.68
0
VERTEX
10
7.24097
20
9.5495
30
8.68
0
VERTEX
10
7.25404
20
9.5383
30
8.68
0
VERTEX
10
7.2839
20
9.53084
30
8.68
0
VERTEX
10
7.29883
20
9.52711
30
8.68
0
VERTEX
10
7.31376
20
9.51964
30
8.68
0
VERTEX
10
7.32122
20
9.51964
30
8.68
0
VERTEX
10
7.33615
20
9.51404
30
8.68
0
VERTEX
10
7.33988
20
9.51031
30
8.68
0
VERTEX
10
7.35481
20
9.50844
30
8.68
0
VERTEX
10
7.36228
20
9.50844
30
8.68
0
VERTEX
10
7.36974
20
9.50471
30
8.68
0
VERTEX
10
7.42946
20
9.51031
30
8.68
0
VERTEX
10
7.44439
20
9.52151
30
8.68
0
VERTEX
10
7.44999
20
9.53457
30
8.68
0
VERTEX
10
7.45372
20
9.54204
30
8.68
0
VERTEX
10
7.45186
20
9.55697
30
8.68
0
VERTEX
10
7.44626
20
9.56443
30
8.68
0
VERTEX
10
7.43879
20
9.56443
30
8.68
0
VERTEX
10
7.31936
20
9.61295
30
8.68
0
VERTEX
10
7.2895
20
9.62415
30
8.68
0
VERTEX
10
7.28203
20
9.62788
30
8.68
0
VERTEX
10
7.2671
20
9.62788
30
8.68
0
VERTEX
10
7.25964
20
9.62602
30
8.68
0
VERTEX
10
7.24471
20
9.61482
30
8.68
0
VERTEX
10
7.23911
20
9.60176
30
8.68
0
VERTEX
10
7.23351
20
9.59616
30
8.68
0
VERTEX
10
7.23351
20
9.58123
30
8.68
0
SEQEND
0
POLYLINE
62
227
66
1
70
1
3
endoplasmic_reticulum
0
VERTEX
10
7.59823
20
10.2699
30
8.68
0
VERTEX
10
7.60002
20
10.2628
30
8.68
0
VERTEX
10
7.60092
20
10.2484
30
8.68
0
VERTEX
10
7.60361
20
10.2421
30
8.68
0
VERTEX
10
7.6054
20
10.2386
30
8.68
0
VERTEX
10
7.6054
20
10.235
30
8.68
0
VERTEX
10
7.60719
20
10.2341
30
8.68
0
VERTEX
10
7.60899
20
10.2269
30
8.68
0
VERTEX
10
7.61168
20
10.2233
30
8.68
0
VERTEX
10
7.61257
20
10.2197
30
8.68
0
VERTEX
10
7.62333
20
10.2054
30
8.68
0
VERTEX
10
7.63678
20
10.1937
30
8.68
0
VERTEX
10
7.64395
20
10.1892
30
8.68
0
VERTEX
10
7.65112
20
10.1883
30
8.68
0
VERTEX
10
7.65471
20
10.1883
30
8.68
0
VERTEX
10
7.6583
20
10.1901
30
8.68
0
VERTEX
10
7.66188
20
10.1901
30
8.68
0
VERTEX
10
7.66906
20
10.1937
30
8.68
0
VERTEX
10
7.67264
20
10.1964
30
8.68
0
VERTEX
10
7.67712
20
10.2027
30
8.68
0
VERTEX
10
7.67981
20
10.2063
30
8.68
0
VERTEX
10
7.68071
20
10.2099
30
8.68
0
VERTEX
10
7.68071
20
10.2117
30
8.68
0
VERTEX
10
7.6825
20
10.2135
30
8.68
0
VERTEX
10
7.6834
20
10.2278
30
8.68
0
VERTEX
10
7.6834
20
10.2314
30
8.68
0
VERTEX
10
7.6834
20
10.2332
30
8.68
0
VERTEX
10
7.68519
20
10.235
30
8.68
0
VERTEX
10
7.68609
20
10.2493
30
8.68
0
VERTEX
10
7.68968
20
10.2637
30
8.68
0
VERTEX
10
7.68968
20
10.2655
30
8.68
0
VERTEX
10
7.69147
20
10.2672
30
8.68
0
VERTEX
10
7.69237
20
10.2708
30
8.68
0
VERTEX
10
7.69237
20
10.2726
30
8.68
0
VERTEX
10
7.69506
20
10.2762
30
8.68
0
VERTEX
10
7.69774
20
10.2834
30
8.68
0
VERTEX
10
7.69864
20
10.287
30
8.68
0
VERTEX
10
7.70492
20
10.2932
30
8.68
0
VERTEX
10
7.70761
20
10.2968
30
8.68
0
VERTEX
10
7.70581
20
10.304
30
8.68
0
VERTEX
10
7.70492
20
10.3076
30
8.68
0
VERTEX
10
7.70492
20
10.3094
30
8.68
0
VERTEX
10
7.70312
20
10.3112
30
8.68
0
VERTEX
10
7.70312
20
10.313
30
8.68
0
VERTEX
10
7.69685
20
10.3201
30
8.68
0
VERTEX
10
7.6834
20
10.33
30
8.68
0
VERTEX
10
7.68161
20
10.33
30
8.68
0
VERTEX
10
7.67533
20
10.3354
30
8.68
0
VERTEX
10
7.67175
20
10.3381
30
8.68
0
VERTEX
10
7.66906
20
10.3426
30
8.68
0
VERTEX
10
7.66188
20
10.3435
30
8.68
0
VERTEX
10
7.64754
20
10.3417
30
8.68
0
VERTEX
10
7.64037
20
10.339
30
8.68
0
VERTEX
10
7.63678
20
10.3363
30
8.68
0
VERTEX
10
7.63319
20
10.3354
30
8.68
0
VERTEX
10
7.6314
20
10.3354
30
8.68
0
VERTEX
10
7.62961
20
10.3336
30
8.68
0
VERTEX
10
7.62781
20
10.3336
30
8.68
0
VERTEX
10
7.62423
20
10.33
30
8.68
0
VERTEX
10
7.62064
20
10.3291
30
8.68
0
VERTEX
10
7.61526
20
10.3237
30
8.68
0
VERTEX
10
7.61078
20
10.3166
30
8.68
0
VERTEX
10
7.61078
20
10.3148
30
8.68
0
VERTEX
10
7.60809
20
10.3112
30
8.68
0
VERTEX
10
7.6054
20
10.304
30
8.68
0
VERTEX
10
7.60271
20
10.3004
30
8.68
0
VERTEX
10
7.60092
20
10.2986
30
8.68
0
VERTEX
10
7.59823
20
10.2915
30
8.68
0
VERTEX
10
7.59823
20
10.2771
30
8.68
0
VERTEX
10
7.59823
20
10.2708
30
8.68
0
SEQEND
0
POLYLINE
62
227
66
1
70
1
3
endoplasmic_reticulum
0
VERTEX
10
8.09402
20
10.1883
30
8.68
0
VERTEX
10
8.0994
20
10.1821
30
8.68
0
VERTEX
10
8.10298
20
10.1812
30
8.68
0
VERTEX
10
8.10657
20
10.1839
30
8.68
0
VERTEX
10
8.11016
20
10.1848
30
8.68
0
VERTEX
10
8.13347
20
10.2081
30
8.68
0
VERTEX
10
8.13885
20
10.2152
30
8.68
0
VERTEX
10
8.14602
20
10.2206
30
8.68
0
VERTEX
10
8.14781
20
10.2224
30
8.68
0
VERTEX
10
8.14781
20
10.2242
30
8.68
0
VERTEX
10
8.15409
20
10.2305
30
8.68
0
VERTEX
10
8.15767
20
10.2341
30
8.68
0
VERTEX
10
8.16216
20
10.2484
30
8.68
0
VERTEX
10
8.17202
20
10.2628
30
8.68
0
VERTEX
10
8.17471
20
10.2699
30
8.68
0
VERTEX
10
8.1756
20
10.2735
30
8.68
0
VERTEX
10
8.18188
20
10.2798
30
8.68
0
VERTEX
10
8.18547
20
10.2861
30
8.68
0
VERTEX
10
8.18816
20
10.2897
30
8.68
0
VERTEX
10
8.18816
20
10.2915
30
8.68
0
VERTEX
10
8.19443
20
10.2968
30
8.68
0
VERTEX
10
8.20788
20
10.3049
30
8.68
0
VERTEX
10
8.21147
20
10.3049
30
8.68
0
VERTEX
10
8.21864
20
10.3103
30
8.68
0
VERTEX
10
8.22581
20
10.3139
30
8.68
0
VERTEX
10
8.2294
20
10.3166
30
8.68
0
VERTEX
10
8.23119
20
10.3201
30
8.68
0
VERTEX
10
8.23209
20
10.3273
30
8.68
0
VERTEX
10
8.23119
20
10.3345
30
8.68
0
VERTEX
10
8.2294
20
10.3381
30
8.68
0
VERTEX
10
8.2276
20
10.339
30
8.68
0
VERTEX
10
8.2276
20
10.3408
30
8.68
0
VERTEX
10
8.21864
20
10.3551
30
8.68
0
VERTEX
10
8.21326
20
10.3623
30
8.68
0
VERTEX
10
8.21326
20
10.3641
30
8.68
0
VERTEX
10
8.20698
20
10.3703
30
8.68
0
VERTEX
10
8.19981
20
10.3748
30
8.68
0
VERTEX
10
8.19264
20
10.3775
30
8.68
0
VERTEX
10
8.19085
20
10.3847
30
8.68
0
VERTEX
10
8.19085
20
10.3883
30
8.68
0
VERTEX
10
8.18636
20
10.4026
30
8.68
0
VERTEX
10
8.18547
20
10.4062
30
8.68
0
VERTEX
10
8.17202
20
10.4188
30
8.68
0
VERTEX
10
8.16485
20
10.4259
30
8.68
0
VERTEX
10
8.15767
20
10.4286
30
8.68
0
VERTEX
10
8.15588
20
10.4286
30
8.68
0
VERTEX
10
8.15319
20
10.4313
30
8.68
0
VERTEX
10
8.13885
20
10.4313
30
8.68
0
VERTEX
10
8.13167
20
10.4313
30
8.68
0
VERTEX
10
8.12988
20
10.4295
30
8.68
0
VERTEX
10
8.12898
20
10.4259
30
8.68
0
VERTEX
10
8.1245
20
10.4188
30
8.68
0
VERTEX
10
8.12002
20
10.4143
30
8.68
0
VERTEX
10
8.12002
20
10.4107
30
8.68
0
VERTEX
10
8.11464
20
10.4035
30
8.68
0
VERTEX
10
8.11285
20
10.3999
30
8.68
0
VERTEX
10
8.11285
20
10.3928
30
8.68
0
VERTEX
10
8.11464
20
10.3856
30
8.68
0
VERTEX
10
8.11464
20
10.3838
30
8.68
0
VERTEX
10
8.11823
20
10.382
30
8.68
0
VERTEX
10
8.11912
20
10.3677
30
8.68
0
VERTEX
10
8.11912
20
10.3605
30
8.68
0
VERTEX
10
8.12181
20
10.3533
30
8.68
0
VERTEX
10
8.12271
20
10.3461
30
8.68
0
VERTEX
10
8.1236
20
10.3426
30
8.68
0
VERTEX
10
8.1236
20
10.3408
30
8.68
0
VERTEX
10
8.1254
20
10.339
30
8.68
0
VERTEX
10
8.12629
20
10.3354
30
8.68
0
VERTEX
10
8.12629
20
10.3336
30
8.68
0
VERTEX
10
8.12898
20
10.3309
30
8.68
0
VERTEX
10
8.13436
20
10.3166
30
8.68
0
VERTEX
10
8.13616
20
10.3094
30
8.68
0
VERTEX
10
8.13616
20
10.295
30
8.68
0
VERTEX
10
8.13257
20
10.2807
30
8.68
0
VERTEX
10
8.13257
20
10.2771
30
8.68
0
VERTEX
10
8.12988
20
10.2735
30
8.68
0
VERTEX
10
8.1254
20
10.2448
30
8.68
0
VERTEX
10
8.1245
20
10.2377
30
8.68
0
VERTEX
10
8.11643
20
10.2233
30
8.68
0
VERTEX
10
8.10747
20
10.2108
30
8.68
0
VERTEX
10
8.10029
20
10.2045
30
8.68
0
VERTEX
10
8.09581
20
10.1973
30
8.68
0
VERTEX
10
8.09402
20
10.1937
30
8.68
0
VERTEX
10
8.09402
20
10.1901
30
8.68
0
VERTEX
10
8.09402
20
10.1892
30
8.68
0
SEQEND
0
POLYLINE
62
227
66
1
70
1
3
endoplasmic_reticulum
0
VERTEX
10
8.04202
20
10.4017
30
8.68
0
VERTEX
10
8.04471
20
10.3874
30
8.68
0
VERTEX
10
8.0465
20
10.3865
30
8.68
0
VERTEX
10
8.0474
20
10.3793
30
8.68
0
VERTEX
10
8.05098
20
10.3721
30
8.68
0
VERTEX
10
8.05188
20
10.3686
30
8.68
0
VERTEX
10
8.05457
20
10.365
30
8.68
0
VERTEX
10
8.05457
20
10.3632
30
8.68
0
VERTEX
10
8.05636
20
10.3614
30
8.68
0
VERTEX
10
8.06264
20
10.347
30
8.68
0
VERTEX
10
8.06533
20
10.3399
30
8.68
0
VERTEX
10
8.06533
20
10.3112
30
8.68
0
VERTEX
10
8.06443
20
10.2968
30
8.68
0
VERTEX
10
8.06264
20
10.2897
30
8.68
0
VERTEX
10
8.05995
20
10.261
30
8.68
0
VERTEX
10
8.05816
20
10.2466
30
8.68
0
VERTEX
10
8.05905
20
10.2179
30
8.68
0
VERTEX
10
8.05995
20
10.2036
30
8.68
0
VERTEX
10
8.05995
20
10.2
30
8.68
0
VERTEX
10
8.05816
20
10.1964
30
8.68
0
VERTEX
10
8.05547
20
10.1821
30
8.68
0
VERTEX
10
8.05457
20
10.1677
30
8.68
0
VERTEX
10
8.05457
20
10.1606
30
8.68
0
VERTEX
10
8.05726
20
10.1534
30
8.68
0
VERTEX
10
8.05995
20
10.1507
30
8.68
0
VERTEX
10
8.06712
20
10.1498
30
8.68
0
VERTEX
10
8.08147
20
10.1507
30
8.68
0
VERTEX
10
8.08416
20
10.1543
30
8.68
0
VERTEX
10
8.08236
20
10.1615
30
8.68
0
VERTEX
10
8.08147
20
10.1758
30
8.68
0
VERTEX
10
8.08147
20
10.1776
30
8.68
0
VERTEX
10
8.07609
20
10.1848
30
8.68
0
VERTEX
10
8.07519
20
10.2135
30
8.68
0
VERTEX
10
8.07788
20
10.2278
30
8.68
0
VERTEX
10
8.07878
20
10.235
30
8.68
0
VERTEX
10
8.08147
20
10.2421
30
8.68
0
VERTEX
10
8.08326
20
10.2439
30
8.68
0
VERTEX
10
8.08416
20
10.2475
30
8.68
0
VERTEX
10
8.08685
20
10.2511
30
8.68
0
VERTEX
10
8.08774
20
10.2583
30
8.68
0
VERTEX
10
8.09043
20
10.2655
30
8.68
0
VERTEX
10
8.09133
20
10.269
30
8.68
0
VERTEX
10
8.09312
20
10.2708
30
8.68
0
VERTEX
10
8.09671
20
10.2852
30
8.68
0
VERTEX
10
8.0976
20
10.2915
30
8.68
0
VERTEX
10
8.0994
20
10.295
30
8.68
0
VERTEX
10
8.10119
20
10.2968
30
8.68
0
VERTEX
10
8.10298
20
10.3255
30
8.68
0
VERTEX
10
8.10119
20
10.3542
30
8.68
0
VERTEX
10
8.0994
20
10.3614
30
8.68
0
VERTEX
10
8.0994
20
10.3632
30
8.68
0
VERTEX
10
8.0976
20
10.3641
30
8.68
0
VERTEX
10
8.09671
20
10.3677
30
8.68
0
VERTEX
10
8.09671
20
10.3695
30
8.68
0
VERTEX
10
8.09223
20
10.3757
30
8.68
0
VERTEX
10
8.09223
20
10.3775
30
8.68
0
VERTEX
10
8.09043
20
10.3784
30
8.68
0
VERTEX
10
8.08864
20
10.3856
30
8.68
0
VERTEX
10
8.08326
20
10.391
30
8.68
0
VERTEX
10
8.08236
20
10.3946
30
8.68
0
VERTEX
10
8.07071
20
10.408
30
8.68
0
VERTEX
10
8.05905
20
10.4197
30
8.68
0
VERTEX
10
8.05547
20
10.4197
30
8.68
0
VERTEX
10
8.04202
20
10.408
30
8.68
0
VERTEX
10
8.04202
20
10.4044
30
8.68
0
VERTEX
10
8.04202
20
10.4026
30
8.68
0
SEQEND
0
POLYLINE
62
227
66
1
70
1
3
endoplasmic_reticulum
0
VERTEX
10
8.19443
20
10.0126
30
8.68
0
VERTEX
10
8.19712
20
10.0099
30
8.68
0
VERTEX
10
8.20429
20
10.0108
30
8.68
0
VERTEX
10
8.20788
20
10.0117
30
8.68
0
VERTEX
10
8.21057
20
10.0144
30
8.68
0
VERTEX
10
8.22491
20
10.0189
30
8.68
0
VERTEX
10
8.2294
20
10.0252
30
8.68
0
VERTEX
10
8.23478
20
10.0395
30
8.68
0
VERTEX
10
8.23747
20
10.0467
30
8.68
0
VERTEX
10
8.23836
20
10.0754
30
8.68
0
VERTEX
10
8.24016
20
10.0826
30
8.68
0
VERTEX
10
8.24016
20
10.0861
30
8.68
0
VERTEX
10
8.24195
20
10.0879
30
8.68
0
VERTEX
10
8.24374
20
10.0951
30
8.68
0
VERTEX
10
8.26257
20
10.1238
30
8.68
0
VERTEX
10
8.26974
20
10.1301
30
8.68
0
VERTEX
10
8.27512
20
10.1355
30
8.68
0
VERTEX
10
8.2814
20
10.1426
30
8.68
0
VERTEX
10
8.28767
20
10.1462
30
8.68
0
VERTEX
10
8.29036
20
10.1498
30
8.68
0
VERTEX
10
8.29126
20
10.157
30
8.68
0
VERTEX
10
8.29036
20
10.1606
30
8.68
0
VERTEX
10
8.28767
20
10.1641
30
8.68
0
VERTEX
10
8.28678
20
10.1677
30
8.68
0
VERTEX
10
8.27333
20
10.1812
30
8.68
0
VERTEX
10
8.26974
20
10.183
30
8.68
0
VERTEX
10
8.26616
20
10.183
30
8.68
0
VERTEX
10
8.25181
20
10.1767
30
8.68
0
VERTEX
10
8.24464
20
10.1722
30
8.68
0
VERTEX
10
8.24105
20
10.1704
30
8.68
0
VERTEX
10
8.2294
20
10.1561
30
8.68
0
VERTEX
10
8.2285
20
10.1525
30
8.68
0
VERTEX
10
8.21864
20
10.1399
30
8.68
0
VERTEX
10
8.21326
20
10.1265
30
8.68
0
VERTEX
10
8.21236
20
10.1193
30
8.68
0
VERTEX
10
8.21057
20
10.1184
30
8.68
0
VERTEX
10
8.20967
20
10.1041
30
8.68
0
VERTEX
10
8.21057
20
10.0897
30
8.68
0
VERTEX
10
8.20967
20
10.0754
30
8.68
0
VERTEX
10
8.20698
20
10.0682
30
8.68
0
VERTEX
10
8.20698
20
10.0646
30
8.68
0
VERTEX
10
8.2016
20
10.0512
30
8.68
0
VERTEX
10
8.19891
20
10.044
30
8.68
0
VERTEX
10
8.19443
20
10.0377
30
8.68
0
VERTEX
10
8.19443
20
10.0234
30
8.68
0
VERTEX
10
8.19443
20
10.0162
30
8.68
0
VERTEX
10
8.19443
20
10.0135
30
8.68
0
SEQEND
0
POLYLINE
62
227
66
1
70
1
3
endoplasmic_reticulum
0
VERTEX
10
7.7085
20
10.1202
30
8.68
0
VERTEX
10
7.7103
20
10.113
30
8.68
0
VERTEX
10
7.71119
20
10.1095
30
8.68
0
VERTEX
10
7.71119
20
10.1077
30
8.68
0
VERTEX
10
7.71657
20
10.1014
30
8.68
0
VERTEX
10
7.71747
20
10.0978
30
8.68
0
VERTEX
10
7.72464
20
10.0933
30
8.68
0
VERTEX
10
7.72643
20
10.0933
30
8.68
0
VERTEX
10
7.72912
20
10.0906
30
8.68
0
VERTEX
10
7.73271
20
10.0897
30
8.68
0
VERTEX
10
7.7345
20
10.0879
30
8.68
0
VERTEX
10
7.74168
20
10.0861
30
8.68
0
VERTEX
10
7.75602
20
10.0799
30
8.68
0
VERTEX
10
7.76319
20
10.079
30
8.68
0
VERTEX
10
7.76678
20
10.0772
30
8.68
0
VERTEX
10
7.79547
20
10.0772
30
8.68
0
VERTEX
10
7.80981
20
10.0754
30
8.68
0
VERTEX
10
7.82416
20
10.0754
30
8.68
0
VERTEX
10
7.82595
20
10.0736
30
8.68
0
VERTEX
10
7.88333
20
10.0673
30
8.68
0
VERTEX
10
7.88512
20
10.0655
30
8.68
0
VERTEX
10
7.8923
20
10.0646
30
8.68
0
VERTEX
10
7.90664
20
10.0601
30
8.68
0
VERTEX
10
7.90843
20
10.0601
30
8.68
0
VERTEX
10
7.91023
20
10.0584
30
8.68
0
VERTEX
10
7.92457
20
10.0557
30
8.68
0
VERTEX
10
7.93174
20
10.053
30
8.68
0
VERTEX
10
7.94609
20
10.0503
30
8.68
0
VERTEX
10
7.95954
20
10.0458
30
8.68
0
VERTEX
10
7.96312
20
10.044
30
8.68
0
VERTEX
10
7.96492
20
10.044
30
8.68
0
VERTEX
10
7.96671
20
10.0422
30
8.68
0
VERTEX
10
7.98105
20
10.0386
30
8.68
0
VERTEX
10
7.98823
20
10.035
30
8.68
0
VERTEX
10
7.9954
20
10.0332
30
8.68
0
VERTEX
10
8.00257
20
10.0332
30
8.68
0
VERTEX
10
8.00436
20
10.035
30
8.68
0
VERTEX
10
8.01154
20
10.0359
30
8.68
0
VERTEX
10
8.01871
20
10.0386
30
8.68
0
VERTEX
10
8.02588
20
10.0386
30
8.68
0
VERTEX
10
8.04023
20
10.0413
30
8.68
0
VERTEX
10
8.04202
20
10.0431
30
8.68
0
VERTEX
10
8.05636
20
10.0458
30
8.68
0
VERTEX
10
8.08505
20
10.0467
30
8.68
0
VERTEX
10
8.11374
20
10.0458
30
8.68
0
VERTEX
10
8.12809
20
10.0467
30
8.68
0
VERTEX
10
8.13526
20
10.0467
30
8.68
0
VERTEX
10
8.1496
20
10.0512
30
8.68
0
VERTEX
10
8.1514
20
10.0512
30
8.68
0
VERTEX
10
8.15857
20
10.0557
30
8.68
0
VERTEX
10
8.16574
20
10.0584
30
8.68
0
VERTEX
10
8.16843
20
10.0619
30
8.68
0
VERTEX
10
8.16754
20
10.0763
30
8.68
0
VERTEX
10
8.16664
20
10.0835
30
8.68
0
VERTEX
10
8.16395
20
10.0906
30
8.68
0
VERTEX
10
8.16126
20
10.0933
30
8.68
0
VERTEX
10
8.15947
20
10.0942
30
8.68
0
VERTEX
10
8.15947
20
10.096
30
8.68
0
VERTEX
10
8.15678
20
10.0996
30
8.68
0
VERTEX
10
8.14333
20
10.1068
30
8.68
0
VERTEX
10
8.13974
20
10.1077
30
8.68
0
VERTEX
10
8.13795
20
10.1095
30
8.68
0
VERTEX
10
8.13078
20
10.1112
30
8.68
0
VERTEX
10
8.12719
20
10.113
30
8.68
0
VERTEX
10
8.11285
20
10.113
30
8.68
0
VERTEX
10
8.10567
20
10.1121
30
8.68
0
VERTEX
10
8.10209
20
10.1112
30
8.68
0
VERTEX
10
8.0994
20
10.1086
30
8.68
0
VERTEX
10
8.09581
20
10.1077
30
8.68
0
VERTEX
10
8.09312
20
10.105
30
8.68
0
VERTEX
10
8.07878
20
10.1014
30
8.68
0
VERTEX
10
8.06443
20
10.1005
30
8.68
0
VERTEX
10
8.05726
20
10.1005
30
8.68
0
VERTEX
10
8.04292
20
10.105
30
8.68
0
VERTEX
10
8.03574
20
10.1059
30
8.68
0
VERTEX
10
8.02857
20
10.1086
30
8.68
0
VERTEX
10
8.02498
20
10.1112
30
8.68
0
VERTEX
10
8.01064
20
10.113
30
8.68
0
VERTEX
10
8.00705
20
10.113
30
8.68
0
VERTEX
10
8.00526
20
10.1148
30
8.68
0
VERTEX
10
7.97657
20
10.1175
30
8.68
0
VERTEX
10
7.96223
20
10.1166
30
8.68
0
VERTEX
10
7.94788
20
10.1139
30
8.68
0
VERTEX
10
7.94071
20
10.1139
30
8.68
0
VERTEX
10
7.92636
20
10.1112
30
8.68
0
VERTEX
10
7.89767
20
10.1095
30
8.68
0
VERTEX
10
7.88333
20
10.1095
30
8.68
0
VERTEX
10
7.85464
20
10.1121
30
8.68
0
VERTEX
10
7.8403
20
10.1139
30
8.68
0
VERTEX
10
7.83312
20
10.1148
30
8.68
0
VERTEX
10
7.82595
20
10.1175
30
8.68
0
VERTEX
10
7.81161
20
10.1193
30
8.68
0
VERTEX
10
7.80443
20
10.1238
30
8.68
0
VERTEX
10
7.80085
20
10.1256
30
8.68
0
VERTEX
10
7.79726
20
10.1256
30
8.68
0
VERTEX
10
7.79009
20
10.1283
30
8.68
0
VERTEX
10
7.7865
20
10.1292
30
8.68
0
VERTEX
10
7.77305
20
10.139
30
8.68
0
VERTEX
10
7.76588
20
10.1408
30
8.68
0
VERTEX
10
7.7623
20
10.1417
30
8.68
0
VERTEX
10
7.75871
20
10.1444
30
8.68
0
VERTEX
10
7.74437
20
10.1453
30
8.68
0
VERTEX
10
7.73002
20
10.1444
30
8.68
0
VERTEX
10
7.72643
20
10.1444
30
8.68
0
VERTEX
10
7.72374
20
10.1417
30
8.68
0
VERTEX
10
7.72195
20
10.1417
30
8.68
0
VERTEX
10
7.71837
20
10.1381
30
8.68
0
VERTEX
10
7.71837
20
10.1364
30
8.68
0
VERTEX
10
7.71209
20
10.1328
30
8.68
0
VERTEX
10
7.7094
20
10.1292
30
8.68
0
VERTEX
10
7.7085
20
10.122
30
8.68
0
VERTEX
10
7.7085
20
10.1211
30
8.68
0
SEQEND
0
POLYLINE
62
236
66
1
70
1
3
postsynaptic_density
0
VERTEX
10
7.22522
20
9.52668
30
8.68
0
VERTEX
10
7.2293
20
9.52193
30
8.68
0
VERTEX
10
7.23066
20
9.52057
30
8.68
0
VERTEX
10
7.23134
20
9.51785
30
8.68
0
VERTEX
10
7.23134
20
9.51649
30
8.68
0
VERTEX
10
7.23269
20
9.51581
30
8.68
0
VERTEX
10
7.23269
20
9.51445
30
8.68
0
VERTEX
10
7.23813
20
9.51105
30
8.68
0
VERTEX
10
7.24901
20
9.50765
30
8.68
0
VERTEX
10
7.25173
20
9.50561
30
8.68
0
VERTEX
10
7.2626
20
9.50222
30
8.68
0
VERTEX
10
7.26804
20
9.50222
30
8.68
0
VERTEX
10
7.27348
20
9.50018
30
8.68
0
VERTEX
10
7.2762
20
9.4995
30
8.68
0
VERTEX
10
7.27755
20
9.49814
30
8.68
0
VERTEX
10
7.28843
20
9.49814
30
8.68
0
VERTEX
10
7.29115
20
9.49746
30
8.68
0
VERTEX
10
7.29387
20
9.49542
30
8.68
0
VERTEX
10
7.29523
20
9.49406
30
8.68
0
VERTEX
10
7.29659
20
9.49406
30
8.68
0
VERTEX
10
7.30746
20
9.48454
30
8.68
0
VERTEX
10
7.3129
20
9.48182
30
8.68
0
VERTEX
10
7.31562
20
9.47978
30
8.68
0
VERTEX
10
7.32649
20
9.47503
30
8.68
0
VERTEX
10
7.33193
20
9.47231
30
8.68
0
VERTEX
10
7.33737
20
9.47163
30
8.68
0
VERTEX
10
7.34009
20
9.47163
30
8.68
0
VERTEX
10
7.34145
20
9.47163
30
8.68
0
VERTEX
10
7.35164
20
9.46551
30
8.68
0
VERTEX
10
7.35436
20
9.46415
30
8.68
0
VERTEX
10
7.35844
20
9.45939
30
8.68
0
VERTEX
10
7.3632
20
9.456
30
8.68
0
VERTEX
10
7.37407
20
9.45396
30
8.68
0
VERTEX
10
7.37951
20
9.45464
30
8.68
0
VERTEX
10
7.38223
20
9.45464
30
8.68
0
VERTEX
10
7.38495
20
9.45668
30
8.68
0
VERTEX
10
7.38631
20
9.45668
30
8.68
0
VERTEX
10
7.39514
20
9.46619
30
8.68
0
VERTEX
10
7.40534
20
9.47503
30
8.68
0
VERTEX
10
7.41078
20
9.47775
30
8.68
0
VERTEX
10
7.41485
20
9.4825
30
8.68
0
VERTEX
10
7.41689
20
9.48522
30
8.68
0
VERTEX
10
7.41961
20
9.48658
30
8.68
0
VERTEX
10
7.42369
20
9.49202
30
8.68
0
VERTEX
10
7.42709
20
9.4961
30
8.68
0
VERTEX
10
7.43117
20
9.50154
30
8.68
0
VERTEX
10
7.43389
20
9.50425
30
8.68
0
VERTEX
10
7.43593
20
9.50561
30
8.68
0
VERTEX
10
7.44544
20
9.51649
30
8.68
0
VERTEX
10
7.44816
20
9.51853
30
8.68
0
VERTEX
10
7.45156
20
9.52397
30
8.68
0
VERTEX
10
7.45292
20
9.52668
30
8.68
0
VERTEX
10
7.4536
20
9.52804
30
8.68
0
VERTEX
10
7.45496
20
9.52804
30
8.68
0
VERTEX
10
7.45903
20
9.53212
30
8.68
0
VERTEX
10
7.46039
20
9.53348
30
8.68
0
VERTEX
10
7.46039
20
9.53484
30
8.68
0
VERTEX
10
7.46515
20
9.5396
30
8.68
0
VERTEX
10
7.46787
20
9.5396
30
8.68
0
VERTEX
10
7.46991
20
9.54232
30
8.68
0
VERTEX
10
7.46991
20
9.54775
30
8.68
0
VERTEX
10
7.46991
20
9.55047
30
8.68
0
VERTEX
10
7.47195
20
9.55591
30
8.68
0
VERTEX
10
7.47127
20
9.57766
30
8.68
0
VERTEX
10
7.46923
20
9.5831
30
8.68
0
VERTEX
10
7.46719
20
9.58582
30
8.68
0
VERTEX
10
7.46651
20
9.59126
30
8.68
0
VERTEX
10
7.46855
20
9.59669
30
8.68
0
VERTEX
10
7.46855
20
9.59941
30
8.68
0
VERTEX
10
7.47195
20
9.61029
30
8.68
0
VERTEX
10
7.47263
20
9.62116
30
8.68
0
VERTEX
10
7.47331
20
9.6266
30
8.68
0
VERTEX
10
7.47331
20
9.62932
30
8.68
0
VERTEX
10
7.46855
20
9.63272
30
8.68
0
VERTEX
10
7.42505
20
9.65107
30
8.68
0
VERTEX
10
7.41417
20
9.65583
30
8.68
0
VERTEX
10
7.40874
20
9.65787
30
8.68
0
VERTEX
10
7.40602
20
9.65787
30
8.68
0
VERTEX
10
7.40534
20
9.65923
30
8.68
0
VERTEX
10
7.3999
20
9.66126
30
8.68
0
VERTEX
10
7.39718
20
9.66194
30
8.68
0
VERTEX
10
7.38699
20
9.66942
30
8.68
0
VERTEX
10
7.38155
20
9.67146
30
8.68
0
VERTEX
10
7.37883
20
9.67214
30
8.68
0
VERTEX
10
7.37747
20
9.67214
30
8.68
0
VERTEX
10
7.37475
20
9.67486
30
8.68
0
VERTEX
10
7.36999
20
9.67758
30
8.68
0
VERTEX
10
7.36728
20
9.67894
30
8.68
0
VERTEX
10
7.36456
20
9.68166
30
8.68
0
VERTEX
10
7.35912
20
9.68302
30
8.68
0
VERTEX
10
7.33737
20
9.69457
30
8.68
0
VERTEX
10
7.32649
20
9.69797
30
8.68
0
VERTEX
10
7.32513
20
9.69933
30
8.68
0
VERTEX
10
7.3197
20
9.70069
30
8.68
0
VERTEX
10
7.31766
20
9.70273
30
8.68
0
VERTEX
10
7.31494
20
9.70341
30
8.68
0
VERTEX
10
7.3129
20
9.69797
30
8.68
0
VERTEX
10
7.3129
20
9.69661
30
8.68
0
VERTEX
10
7.3095
20
9.69117
30
8.68
0
VERTEX
10
7.30678
20
9.68845
30
8.68
0
VERTEX
10
7.30542
20
9.68573
30
8.68
0
VERTEX
10
7.30338
20
9.68437
30
8.68
0
VERTEX
10
7.29795
20
9.67894
30
8.68
0
VERTEX
10
7.29047
20
9.66942
30
8.68
0
VERTEX
10
7.28503
20
9.65923
30
8.68
0
VERTEX
10
7.27755
20
9.64903
30
8.68
0
VERTEX
10
7.2728
20
9.64359
30
8.68
0
VERTEX
10
7.27008
20
9.64223
30
8.68
0
VERTEX
10
7.26736
20
9.63951
30
8.68
0
VERTEX
10
7.26396
20
9.63476
30
8.68
0
VERTEX
10
7.26124
20
9.63272
30
8.68
0
VERTEX
10
7.2592
20
9.62728
30
8.68
0
VERTEX
10
7.25037
20
9.61776
30
8.68
0
VERTEX
10
7.24425
20
9.60757
30
8.68
0
VERTEX
10
7.24357
20
9.60485
30
8.68
0
VERTEX
10
7.24017
20
9.59941
30
8.68
0
VERTEX
10
7.24017
20
9.59805
30
8.68
0
VERTEX
10
7.23881
20
9.59669
30
8.68
0
VERTEX
10
7.23677
20
9.58582
30
8.68
0
VERTEX
10
7.23609
20
9.58038
30
8.68
0
VERTEX
10
7.23609
20
9.57766
30
8.68
0
VERTEX
10
7.23473
20
9.57494
30
8.68
0
VERTEX
10
7.23541
20
9.56407
30
8.68
0
VERTEX
10
7.23201
20
9.55319
30
8.68
0
VERTEX
10
7.23066
20
9.54775
30
8.68
0
VERTEX
10
7.22794
20
9.54232
30
8.68
0
VERTEX
10
7.22726
20
9.53688
30
8.68
0
VERTEX
10
7.22522
20
9.53416
30
8.68
0
VERTEX
10
7.22522
20
9.52872
30
8.68
0
VERTEX
10
7.22522
20
9.52736
30
8.68
0
SEQEND
0
ENDSEC
0
EOF
