0
SECTION
2
ENTITIES
0
POLYLINE
62
224
66
1
70
1
3
mitochondrion
0
VERTEX
10
9.0364
20
9.03779
30
5.32
0
VERTEX
10
9.03918
20
9.02667
30
5.32
0
VERTEX
10
9.04197
20
9.02389
30
5.32
0
VERTEX
10
9.04475
20
9.01277
30
5.32
0
VERTEX
10
9.04475
20
9.0072
30
5.32
0
VERTEX
10
9.06282
20
8.98635
30
5.32
0
VERTEX
10
9.06699
20
8.98218
30
5.32
0
VERTEX
10
9.06699
20
8.9794
30
5.32
0
VERTEX
10
9.07673
20
8.97105
30
5.32
0
VERTEX
10
9.08785
20
8.96688
30
5.32
0
VERTEX
10
9.1101
20
8.96827
30
5.32
0
VERTEX
10
9.13095
20
8.98357
30
5.32
0
VERTEX
10
9.14208
20
8.98635
30
5.32
0
VERTEX
10
9.14486
20
8.98913
30
5.32
0
VERTEX
10
9.14764
20
8.98913
30
5.32
0
VERTEX
10
9.15459
20
8.99747
30
5.32
0
VERTEX
10
9.16571
20
9.00303
30
5.32
0
VERTEX
10
9.17406
20
9.01416
30
5.32
0
VERTEX
10
9.17823
20
9.01833
30
5.32
0
VERTEX
10
9.18657
20
9.04058
30
5.32
0
VERTEX
10
9.18935
20
9.06282
30
5.32
0
VERTEX
10
9.19213
20
9.07395
30
5.32
0
VERTEX
10
9.19074
20
9.09619
30
5.32
0
VERTEX
10
9.18935
20
9.10732
30
5.32
0
VERTEX
10
9.18935
20
9.11288
30
5.32
0
VERTEX
10
9.18379
20
9.124
30
5.32
0
VERTEX
10
9.18379
20
9.12678
30
5.32
0
VERTEX
10
9.17267
20
9.13512
30
5.32
0
VERTEX
10
9.16432
20
9.14208
30
5.32
0
VERTEX
10
9.15459
20
9.15181
30
5.32
0
VERTEX
10
9.15181
20
9.15459
30
5.32
0
VERTEX
10
9.10732
20
9.15181
30
5.32
0
VERTEX
10
9.08507
20
9.15042
30
5.32
0
VERTEX
10
9.07951
20
9.15042
30
5.32
0
VERTEX
10
9.06838
20
9.14486
30
5.32
0
VERTEX
10
9.06004
20
9.13512
30
5.32
0
VERTEX
10
9.05448
20
9.13095
30
5.32
0
VERTEX
10
9.04753
20
9.11983
30
5.32
0
VERTEX
10
9.04058
20
9.09758
30
5.32
0
VERTEX
10
9.0364
20
9.07534
30
5.32
0
VERTEX
10
9.0364
20
9.05309
30
5.32
0
VERTEX
10
9.0364
20
9.04197
30
5.32
0
VERTEX
10
9.0364
20
9.03918
30
5.32
0
SEQEND
0
POLYLINE
62
227
66
1
70
1
3
endoplasmic_reticulum
0
VERTEX
10
9.0867
20
9.23029
30
5.32
0
VERTEX
10
9.09231
20
9.21346
30
5.32
0
VERTEX
10
9.10016
20
9.20561
30
5.32
0
VERTEX
10
9.10801
20
9.2
30
5.32
0
VERTEX
10
9.1125
20
9.19888
30
5.32
0
VERTEX
10
9.11474
20
9.19888
30
5.32
0
VERTEX
10
9.11699
20
9.19664
30
5.32
0
VERTEX
10
9.13494
20
9.19327
30
5.32
0
VERTEX
10
9.14391
20
9.19327
30
5.32
0
VERTEX
10
9.15064
20
9.20112
30
5.32
0
VERTEX
10
9.15513
20
9.20225
30
5.32
0
VERTEX
10
9.16186
20
9.2101
30
5.32
0
VERTEX
10
9.16298
20
9.21907
30
5.32
0
VERTEX
10
9.16074
20
9.23702
30
5.32
0
VERTEX
10
9.16074
20
9.24151
30
5.32
0
VERTEX
10
9.15737
20
9.24936
30
5.32
0
VERTEX
10
9.14167
20
9.26282
30
5.32
0
VERTEX
10
9.1383
20
9.26619
30
5.32
0
VERTEX
10
9.13381
20
9.26619
30
5.32
0
VERTEX
10
9.12484
20
9.2718
30
5.32
0
VERTEX
10
9.11587
20
9.27292
30
5.32
0
VERTEX
10
9.11138
20
9.27292
30
5.32
0
VERTEX
10
9.09567
20
9.25834
30
5.32
0
VERTEX
10
9.09119
20
9.25385
30
5.32
0
VERTEX
10
9.0867
20
9.25161
30
5.32
0
VERTEX
10
9.0867
20
9.23366
30
5.32
0
VERTEX
10
9.0867
20
9.23141
30
5.32
0
SEQEND
0
POLYLINE
62
227
66
1
70
1
3
endoplasmic_reticulum
0
VERTEX
10
8.92404
20
9.06538
30
5.32
0
VERTEX
10
8.9274
20
9.0609
30
5.32
0
VERTEX
10
8.92852
20
9.05192
30
5.32
0
VERTEX
10
8.93189
20
9.04295
30
5.32
0
VERTEX
10
8.93301
20
9.03846
30
5.32
0
VERTEX
10
8.93638
20
9.03397
30
5.32
0
VERTEX
10
8.93862
20
9.03173
30
5.32
0
VERTEX
10
8.93862
20
9.02949
30
5.32
0
VERTEX
10
8.94198
20
9.025
30
5.32
0
VERTEX
10
8.94647
20
9.02276
30
5.32
0
VERTEX
10
8.94759
20
9.01827
30
5.32
0
VERTEX
10
8.94759
20
9.01602
30
5.32
0
VERTEX
10
8.95096
20
9.01154
30
5.32
0
VERTEX
10
8.95096
20
9.00705
30
5.32
0
VERTEX
10
8.95432
20
9.00368
30
5.32
0
VERTEX
10
8.9633
20
9.00593
30
5.32
0
VERTEX
10
8.96554
20
9.00817
30
5.32
0
VERTEX
10
8.96779
20
9.00817
30
5.32
0
VERTEX
10
8.97676
20
9.01378
30
5.32
0
VERTEX
10
8.979
20
9.02276
30
5.32
0
VERTEX
10
8.97788
20
9.02724
30
5.32
0
VERTEX
10
8.97452
20
9.03173
30
5.32
0
VERTEX
10
8.95769
20
9.03958
30
5.32
0
VERTEX
10
8.9532
20
9.04183
30
5.32
0
VERTEX
10
8.94423
20
9.05865
30
5.32
0
VERTEX
10
8.94647
20
9.06763
30
5.32
0
VERTEX
10
8.94647
20
9.07211
30
5.32
0
VERTEX
10
8.94872
20
9.07548
30
5.32
0
VERTEX
10
8.94872
20
9.07997
30
5.32
0
VERTEX
10
8.95208
20
9.08894
30
5.32
0
VERTEX
10
8.95208
20
9.09119
30
5.32
0
VERTEX
10
8.94984
20
9.09343
30
5.32
0
VERTEX
10
8.94872
20
9.09792
30
5.32
0
VERTEX
10
8.94423
20
9.10128
30
5.32
0
VERTEX
10
8.93974
20
9.10128
30
5.32
0
VERTEX
10
8.93301
20
9.09567
30
5.32
0
VERTEX
10
8.92964
20
9.09231
30
5.32
0
VERTEX
10
8.9274
20
9.08333
30
5.32
0
VERTEX
10
8.9274
20
9.07885
30
5.32
0
VERTEX
10
8.92404
20
9.07548
30
5.32
0
VERTEX
10
8.92404
20
9.06651
30
5.32
0
SEQEND
0
POLYLINE
62
31
66
1
70
1
3
contour
0
VERTEX
10
8.83563
20
8.96114
30
5.32
0
VERTEX
10
8.8373
20
8.93436
30
5.32
0
VERTEX
10
8.8373
20
8.92097
30
5.32
0
VERTEX
10
8.8373
20
8.91428
30
5.32
0
VERTEX
10
8.84065
20
8.90759
30
5.32
0
VERTEX
10
8.844
20
8.90591
30
5.32
0
VERTEX
10
8.84567
20
8.89253
30
5.32
0
VERTEX
10
8.85069
20
8.88081
30
5.32
0
VERTEX
10
8.87245
20
8.85571
30
5.32
0
VERTEX
10
8.87914
20
8.84902
30
5.32
0
VERTEX
10
8.88249
20
8.844
30
5.32
0
VERTEX
10
8.88918
20
8.83898
30
5.32
0
VERTEX
10
8.89253
20
8.83563
30
5.32
0
VERTEX
10
8.89922
20
8.83396
30
5.32
0
VERTEX
10
8.90257
20
8.83396
30
5.32
0
VERTEX
10
8.90759
20
8.82894
30
5.32
0
VERTEX
10
8.91428
20
8.82726
30
5.32
0
VERTEX
10
8.92097
20
8.82224
30
5.32
0
VERTEX
10
8.94608
20
8.81388
30
5.32
0
VERTEX
10
8.95277
20
8.8122
30
5.32
0
VERTEX
10
8.97954
20
8.81555
30
5.32
0
VERTEX
10
8.98456
20
8.82224
30
5.32
0
VERTEX
10
9.01134
20
8.82559
30
5.32
0
VERTEX
10
9.02473
20
8.82559
30
5.32
0
VERTEX
10
9.03811
20
8.82894
30
5.32
0
VERTEX
10
9.09166
20
8.83228
30
5.32
0
VERTEX
10
9.14521
20
8.83061
30
5.32
0
VERTEX
10
9.1586
20
8.83228
30
5.32
0
VERTEX
10
9.16529
20
8.83396
30
5.32
0
VERTEX
10
9.17533
20
8.844
30
5.32
0
VERTEX
10
9.17701
20
8.85069
30
5.32
0
VERTEX
10
9.18537
20
8.86408
30
5.32
0
VERTEX
10
9.19039
20
8.87077
30
5.32
0
VERTEX
10
9.20378
20
8.87914
30
5.32
0
VERTEX
10
9.20713
20
8.88416
30
5.32
0
VERTEX
10
9.21884
20
8.89253
30
5.32
0
VERTEX
10
9.22219
20
8.89587
30
5.32
0
VERTEX
10
9.22386
20
8.90257
30
5.32
0
VERTEX
10
9.22888
20
8.90926
30
5.32
0
VERTEX
10
9.23056
20
8.92265
30
5.32
0
VERTEX
10
9.2406
20
8.94942
30
5.32
0
VERTEX
10
9.2406
20
8.95612
30
5.32
0
VERTEX
10
9.25566
20
9.00799
30
5.32
0
VERTEX
10
9.26068
20
9.02138
30
5.32
0
VERTEX
10
9.26402
20
9.04815
30
5.32
0
VERTEX
10
9.26402
20
9.06154
30
5.32
0
VERTEX
10
9.26068
20
9.07493
30
5.32
0
VERTEX
10
9.26068
20
9.12848
30
5.32
0
VERTEX
10
9.26068
20
9.15525
30
5.32
0
VERTEX
10
9.25733
20
9.1586
30
5.32
0
VERTEX
10
9.25566
20
9.17199
30
5.32
0
VERTEX
10
9.24729
20
9.19876
30
5.32
0
VERTEX
10
9.24227
20
9.22554
30
5.32
0
VERTEX
10
9.23892
20
9.22888
30
5.32
0
VERTEX
10
9.22888
20
9.25566
30
5.32
0
VERTEX
10
9.22219
20
9.28243
30
5.32
0
VERTEX
10
9.21047
20
9.30921
30
5.32
0
VERTEX
10
9.2088
20
9.3159
30
5.32
0
VERTEX
10
9.19039
20
9.34267
30
5.32
0
VERTEX
10
9.18705
20
9.35606
30
5.32
0
VERTEX
10
9.1837
20
9.35774
30
5.32
0
VERTEX
10
9.1837
20
9.36443
30
5.32
0
VERTEX
10
9.18035
20
9.36778
30
5.32
0
VERTEX
10
9.18035
20
9.37112
30
5.32
0
VERTEX
10
9.16697
20
9.38284
30
5.32
0
VERTEX
10
9.16027
20
9.38618
30
5.32
0
VERTEX
10
9.10672
20
9.38786
30
5.32
0
VERTEX
10
9.07995
20
9.39288
30
5.32
0
VERTEX
10
9.06656
20
9.39622
30
5.32
0
VERTEX
10
9.05317
20
9.39622
30
5.32
0
VERTEX
10
9.04648
20
9.39957
30
5.32
0
VERTEX
10
9.01971
20
9.40459
30
5.32
0
VERTEX
10
9.01301
20
9.40794
30
5.32
0
VERTEX
10
8.98624
20
9.40961
30
5.32
0
VERTEX
10
8.97285
20
9.40961
30
5.32
0
VERTEX
10
8.96616
20
9.40961
30
5.32
0
VERTEX
10
8.95277
20
9.41463
30
5.32
0
VERTEX
10
8.94608
20
9.41463
30
5.32
0
VERTEX
10
8.94273
20
9.41128
30
5.32
0
VERTEX
10
8.93938
20
9.41128
30
5.32
0
VERTEX
10
8.93603
20
9.40794
30
5.32
0
VERTEX
10
8.93269
20
9.40794
30
5.32
0
VERTEX
10
8.9193
20
9.38116
30
5.32
0
VERTEX
10
8.91595
20
9.36778
30
5.32
0
VERTEX
10
8.91428
20
9.36108
30
5.32
0
VERTEX
10
8.91428
20
9.35774
30
5.32
0
VERTEX
10
8.91093
20
9.35606
30
5.32
0
VERTEX
10
8.90926
20
9.32929
30
5.32
0
VERTEX
10
8.91261
20
9.32259
30
5.32
0
VERTEX
10
8.91261
20
9.3159
30
5.32
0
VERTEX
10
8.91595
20
9.31423
30
5.32
0
VERTEX
10
8.91763
20
9.30753
30
5.32
0
VERTEX
10
8.94106
20
9.28745
30
5.32
0
VERTEX
10
8.94775
20
9.28411
30
5.32
0
VERTEX
10
8.9511
20
9.28411
30
5.32
0
VERTEX
10
8.95612
20
9.27741
30
5.32
0
VERTEX
10
8.96281
20
9.27741
30
5.32
0
VERTEX
10
8.96448
20
9.27072
30
5.32
0
VERTEX
10
8.98958
20
9.24896
30
5.32
0
VERTEX
10
8.99795
20
9.23892
30
5.32
0
VERTEX
10
9.00297
20
9.22554
30
5.32
0
VERTEX
10
9.00632
20
9.22052
30
5.32
0
VERTEX
10
9.00464
20
9.19374
30
5.32
0
VERTEX
10
9.0013
20
9.19039
30
5.32
0
VERTEX
10
9.0013
20
9.1837
30
5.32
0
VERTEX
10
8.99293
20
9.17031
30
5.32
0
VERTEX
10
8.99293
20
9.16697
30
5.32
0
VERTEX
10
8.98624
20
9.16195
30
5.32
0
VERTEX
10
8.98456
20
9.1586
30
5.32
0
VERTEX
10
8.95779
20
9.14856
30
5.32
0
VERTEX
10
8.9444
20
9.14856
30
5.32
0
VERTEX
10
8.93771
20
9.14856
30
5.32
0
VERTEX
10
8.92599
20
9.14354
30
5.32
0
VERTEX
10
8.91595
20
9.1335
30
5.32
0
VERTEX
10
8.91595
20
9.13015
30
5.32
0
VERTEX
10
8.90591
20
9.11844
30
5.32
0
VERTEX
10
8.89922
20
9.11676
30
5.32
0
VERTEX
10
8.88918
20
9.10672
30
5.32
0
VERTEX
10
8.88751
20
9.10338
30
5.32
0
VERTEX
10
8.87579
20
9.09836
30
5.32
0
VERTEX
10
8.87245
20
9.09166
30
5.32
0
VERTEX
10
8.8691
20
9.06489
30
5.32
0
VERTEX
10
8.8691
20
9.05819
30
5.32
0
VERTEX
10
8.86408
20
9.04481
30
5.32
0
VERTEX
10
8.85571
20
9.03142
30
5.32
0
VERTEX
10
8.85571
20
9.02473
30
5.32
0
VERTEX
10
8.84567
20
9.01134
30
5.32
0
VERTEX
10
8.84065
20
9.00632
30
5.32
0
VERTEX
10
8.83898
20
8.99962
30
5.32
0
VERTEX
10
8.83563
20
8.99628
30
5.32
0
VERTEX
10
8.83563
20
8.9695
30
5.32
0
VERTEX
10
8.83563
20
8.96281
30
5.32
0
SEQEND
0
ENDSEC
0
EOF
