0
SECTION
2
ENTITIES
0
POLYLINE
62
31
66
1
70
1
3
contour
0
VERTEX
10
7.23894
20
11.0082
30
8.36
0
VERTEX
10
7.24553
20
11.0016
30
8.36
0
VERTEX
10
7.24882
20
10.9884
30
8.36
0
VERTEX
10
7.24882
20
10.9819
30
8.36
0
VERTEX
10
7.28832
20
10.9391
30
8.36
0
VERTEX
10
7.29491
20
10.9325
30
8.36
0
VERTEX
10
7.32124
20
10.9226
30
8.36
0
VERTEX
10
7.33441
20
10.9193
30
8.36
0
VERTEX
10
7.34758
20
10.9226
30
8.36
0
VERTEX
10
7.37391
20
10.9127
30
8.36
0
VERTEX
10
7.38708
20
10.9061
30
8.36
0
VERTEX
10
7.41342
20
10.9029
30
8.36
0
VERTEX
10
7.42
20
10.9029
30
8.36
0
VERTEX
10
7.44963
20
10.8798
30
8.36
0
VERTEX
10
7.44963
20
10.8732
30
8.36
0
VERTEX
10
7.47596
20
10.8568
30
8.36
0
VERTEX
10
7.5023
20
10.8469
30
8.36
0
VERTEX
10
7.52863
20
10.8502
30
8.36
0
VERTEX
10
7.55168
20
10.8601
30
8.36
0
VERTEX
10
7.55497
20
10.8732
30
8.36
0
VERTEX
10
7.5813
20
10.8897
30
8.36
0
VERTEX
10
7.5813
20
10.9029
30
8.36
0
VERTEX
10
7.59776
20
10.9259
30
8.36
0
VERTEX
10
7.60435
20
10.9259
30
8.36
0
VERTEX
10
7.61752
20
10.9358
30
8.36
0
VERTEX
10
7.6241
20
10.9489
30
8.36
0
VERTEX
10
7.6241
20
11.0016
30
8.36
0
VERTEX
10
7.62081
20
11.028
30
8.36
0
VERTEX
10
7.60435
20
11.051
30
8.36
0
VERTEX
10
7.59447
20
11.0642
30
8.36
0
VERTEX
10
7.58789
20
11.0905
30
8.36
0
VERTEX
10
7.5813
20
11.0938
30
8.36
0
VERTEX
10
7.57143
20
11.1201
30
8.36
0
VERTEX
10
7.53522
20
11.1662
30
8.36
0
VERTEX
10
7.51217
20
11.1893
30
8.36
0
VERTEX
10
7.5023
20
11.1991
30
8.36
0
VERTEX
10
7.44963
20
11.1893
30
8.36
0
VERTEX
10
7.39696
20
11.1893
30
8.36
0
VERTEX
10
7.37062
20
11.186
30
8.36
0
VERTEX
10
7.34429
20
11.1761
30
8.36
0
VERTEX
10
7.33112
20
11.1728
30
8.36
0
VERTEX
10
7.32453
20
11.1728
30
8.36
0
VERTEX
10
7.31137
20
11.1629
30
8.36
0
VERTEX
10
7.28503
20
11.153
30
8.36
0
VERTEX
10
7.27516
20
11.1432
30
8.36
0
VERTEX
10
7.27845
20
11.1366
30
8.36
0
VERTEX
10
7.24882
20
11.0872
30
8.36
0
VERTEX
10
7.24224
20
11.0806
30
8.36
0
VERTEX
10
7.23894
20
11.028
30
8.36
0
VERTEX
10
7.23894
20
11.0148
30
8.36
0
VERTEX
10
7.23894
20
11.0115
30
8.36
0
SEQEND
0
POLYLINE
62
224
66
1
70
1
3
mitochondrion
0
VERTEX
10
7.83229
20
10.1891
30
8.36
0
VERTEX
10
7.83646
20
10.1849
30
8.36
0
VERTEX
10
7.83785
20
10.1738
30
8.36
0
VERTEX
10
7.84202
20
10.1627
30
8.36
0
VERTEX
10
7.84481
20
10.1585
30
8.36
0
VERTEX
10
7.84481
20
10.1557
30
8.36
0
VERTEX
10
7.85871
20
10.1348
30
8.36
0
VERTEX
10
7.86844
20
10.1251
30
8.36
0
VERTEX
10
7.874
20
10.1195
30
8.36
0
VERTEX
10
7.87957
20
10.1168
30
8.36
0
VERTEX
10
7.88235
20
10.1168
30
8.36
0
VERTEX
10
7.88513
20
10.114
30
8.36
0
VERTEX
10
7.90737
20
10.107
30
8.36
0
VERTEX
10
7.9185
20
10.1001
30
8.36
0
VERTEX
10
7.92406
20
10.0987
30
8.36
0
VERTEX
10
7.92684
20
10.0959
30
8.36
0
VERTEX
10
7.9324
20
10.0945
30
8.36
0
VERTEX
10
7.94353
20
10.0862
30
8.36
0
VERTEX
10
7.95465
20
10.0806
30
8.36
0
VERTEX
10
7.96021
20
10.0792
30
8.36
0
VERTEX
10
7.98246
20
10.0667
30
8.36
0
VERTEX
10
8.02695
20
10.0681
30
8.36
0
VERTEX
10
8.03808
20
10.0695
30
8.36
0
VERTEX
10
8.03947
20
10.0723
30
8.36
0
VERTEX
10
8.04503
20
10.0723
30
8.36
0
VERTEX
10
8.05615
20
10.0764
30
8.36
0
VERTEX
10
8.06032
20
10.0723
30
8.36
0
VERTEX
10
8.08257
20
10.082
30
8.36
0
VERTEX
10
8.09369
20
10.0917
30
8.36
0
VERTEX
10
8.10064
20
10.1029
30
8.36
0
VERTEX
10
8.10621
20
10.1098
30
8.36
0
VERTEX
10
8.10621
20
10.1154
30
8.36
0
VERTEX
10
8.10899
20
10.1182
30
8.36
0
VERTEX
10
8.11038
20
10.1293
30
8.36
0
VERTEX
10
8.1076
20
10.1738
30
8.36
0
VERTEX
10
8.10064
20
10.196
30
8.36
0
VERTEX
10
8.09508
20
10.2058
30
8.36
0
VERTEX
10
8.0923
20
10.2085
30
8.36
0
VERTEX
10
8.0923
20
10.2141
30
8.36
0
VERTEX
10
8.08535
20
10.2363
30
8.36
0
VERTEX
10
8.08118
20
10.2419
30
8.36
0
VERTEX
10
8.07701
20
10.253
30
8.36
0
VERTEX
10
8.07006
20
10.2614
30
8.36
0
VERTEX
10
8.06866
20
10.2669
30
8.36
0
VERTEX
10
8.06449
20
10.2725
30
8.36
0
VERTEX
10
8.0631
20
10.2781
30
8.36
0
VERTEX
10
8.05337
20
10.2892
30
8.36
0
VERTEX
10
8.05198
20
10.2947
30
8.36
0
VERTEX
10
8.02973
20
10.31
30
8.36
0
VERTEX
10
8.01861
20
10.317
30
8.36
0
VERTEX
10
8.00749
20
10.3198
30
8.36
0
VERTEX
10
8.00192
20
10.3239
30
8.36
0
VERTEX
10
7.97968
20
10.3309
30
8.36
0
VERTEX
10
7.95743
20
10.3323
30
8.36
0
VERTEX
10
7.94631
20
10.3323
30
8.36
0
VERTEX
10
7.93518
20
10.3281
30
8.36
0
VERTEX
10
7.92962
20
10.3281
30
8.36
0
VERTEX
10
7.92406
20
10.3239
30
8.36
0
VERTEX
10
7.91294
20
10.3198
30
8.36
0
VERTEX
10
7.90737
20
10.3156
30
8.36
0
VERTEX
10
7.90181
20
10.3142
30
8.36
0
VERTEX
10
7.89903
20
10.3114
30
8.36
0
VERTEX
10
7.89625
20
10.3114
30
8.36
0
VERTEX
10
7.87818
20
10.2934
30
8.36
0
VERTEX
10
7.86983
20
10.2836
30
8.36
0
VERTEX
10
7.8601
20
10.2767
30
8.36
0
VERTEX
10
7.85037
20
10.2669
30
8.36
0
VERTEX
10
7.84481
20
10.2655
30
8.36
0
VERTEX
10
7.83924
20
10.2544
30
8.36
0
VERTEX
10
7.83785
20
10.2433
30
8.36
0
VERTEX
10
7.83785
20
10.2377
30
8.36
0
VERTEX
10
7.83507
20
10.235
30
8.36
0
VERTEX
10
7.83229
20
10.1905
30
8.36
0
SEQEND
0
POLYLINE
62
236
66
1
70
1
3
postsynaptic_density
0
VERTEX
10
7.20925
20
11.063
30
8.36
0
VERTEX
10
7.21298
20
11.0611
30
8.36
0
VERTEX
10
7.21298
20
11.0537
30
8.36
0
VERTEX
10
7.21671
20
11.0462
30
8.36
0
VERTEX
10
7.21671
20
11.0425
30
8.36
0
VERTEX
10
7.23164
20
11.0294
30
8.36
0
VERTEX
10
7.24657
20
11.0294
30
8.36
0
VERTEX
10
7.25404
20
11.0294
30
8.36
0
VERTEX
10
7.2615
20
11.0332
30
8.36
0
VERTEX
10
7.26524
20
11.0332
30
8.36
0
VERTEX
10
7.28016
20
11.0444
30
8.36
0
VERTEX
10
7.29509
20
11.0518
30
8.36
0
VERTEX
10
7.30069
20
11.0555
30
8.36
0
VERTEX
10
7.30629
20
11.1153
30
8.36
0
VERTEX
10
7.28576
20
11.1414
30
8.36
0
VERTEX
10
7.28203
20
11.1451
30
8.36
0
VERTEX
10
7.2671
20
11.1489
30
8.36
0
VERTEX
10
7.25964
20
11.1507
30
8.36
0
VERTEX
10
7.2559
20
11.1526
30
8.36
0
VERTEX
10
7.21485
20
11.0929
30
8.36
0
VERTEX
10
7.20925
20
11.0854
30
8.36
0
VERTEX
10
7.20925
20
11.0705
30
8.36
0
VERTEX
10
7.20925
20
11.0649
30
8.36
0
SEQEND
0
POLYLINE
62
227
66
1
70
1
3
endoplasmic_reticulum
0
VERTEX
10
7.69416
20
10.1964
30
8.36
0
VERTEX
10
7.69595
20
10.1892
30
8.36
0
VERTEX
10
7.69595
20
10.1821
30
8.36
0
VERTEX
10
7.69774
20
10.1749
30
8.36
0
VERTEX
10
7.69864
20
10.1713
30
8.36
0
VERTEX
10
7.70402
20
10.1641
30
8.36
0
VERTEX
10
7.70671
20
10.1615
30
8.36
0
VERTEX
10
7.71388
20
10.1588
30
8.36
0
VERTEX
10
7.72106
20
10.1588
30
8.36
0
VERTEX
10
7.72464
20
10.1588
30
8.36
0
VERTEX
10
7.73092
20
10.1632
30
8.36
0
VERTEX
10
7.73181
20
10.1704
30
8.36
0
VERTEX
10
7.73181
20
10.1722
30
8.36
0
VERTEX
10
7.73002
20
10.174
30
8.36
0
VERTEX
10
7.72912
20
10.1812
30
8.36
0
VERTEX
10
7.72643
20
10.1848
30
8.36
0
VERTEX
10
7.72554
20
10.1991
30
8.36
0
VERTEX
10
7.72554
20
10.2063
30
8.36
0
VERTEX
10
7.72733
20
10.2099
30
8.36
0
VERTEX
10
7.72733
20
10.2135
30
8.36
0
VERTEX
10
7.73002
20
10.2206
30
8.36
0
VERTEX
10
7.73002
20
10.2224
30
8.36
0
VERTEX
10
7.73988
20
10.2359
30
8.36
0
VERTEX
10
7.74705
20
10.2403
30
8.36
0
VERTEX
10
7.75154
20
10.2475
30
8.36
0
VERTEX
10
7.75154
20
10.2493
30
8.36
0
VERTEX
10
7.75333
20
10.2511
30
8.36
0
VERTEX
10
7.75423
20
10.2655
30
8.36
0
VERTEX
10
7.75423
20
10.2726
30
8.36
0
VERTEX
10
7.75423
20
10.2762
30
8.36
0
VERTEX
10
7.75064
20
10.2834
30
8.36
0
VERTEX
10
7.74705
20
10.2852
30
8.36
0
VERTEX
10
7.73988
20
10.2861
30
8.36
0
VERTEX
10
7.7363
20
10.287
30
8.36
0
VERTEX
10
7.7345
20
10.2852
30
8.36
0
VERTEX
10
7.73092
20
10.2843
30
8.36
0
VERTEX
10
7.72464
20
10.2789
30
8.36
0
VERTEX
10
7.72374
20
10.2771
30
8.36
0
VERTEX
10
7.72016
20
10.2762
30
8.36
0
VERTEX
10
7.71568
20
10.2699
30
8.36
0
VERTEX
10
7.71209
20
10.2681
30
8.36
0
VERTEX
10
7.70581
20
10.261
30
8.36
0
VERTEX
10
7.70312
20
10.2538
30
8.36
0
VERTEX
10
7.70133
20
10.252
30
8.36
0
VERTEX
10
7.70043
20
10.2448
30
8.36
0
VERTEX
10
7.70043
20
10.2412
30
8.36
0
VERTEX
10
7.70043
20
10.2395
30
8.36
0
VERTEX
10
7.69774
20
10.2359
30
8.36
0
VERTEX
10
7.69774
20
10.2287
30
8.36
0
VERTEX
10
7.69506
20
10.2143
30
8.36
0
VERTEX
10
7.69416
20
10.2
30
8.36
0
VERTEX
10
7.69416
20
10.1973
30
8.36
0
SEQEND
0
POLYLINE
62
227
66
1
70
1
3
endoplasmic_reticulum
0
VERTEX
10
7.7345
20
10.0745
30
8.36
0
VERTEX
10
7.73809
20
10.0458
30
8.36
0
VERTEX
10
7.74347
20
10.0315
30
8.36
0
VERTEX
10
7.74526
20
10.0279
30
8.36
0
VERTEX
10
7.74526
20
10.0243
30
8.36
0
VERTEX
10
7.75154
20
10.0099
30
8.36
0
VERTEX
10
7.75243
20
10.0064
30
8.36
0
VERTEX
10
7.75602
20
10.0028
30
8.36
0
VERTEX
10
7.7623
20
9.99828
30
8.36
0
VERTEX
10
7.77664
20
9.99739
30
8.36
0
VERTEX
10
7.78381
20
10.0028
30
8.36
0
VERTEX
10
7.78471
20
10.0099
30
8.36
0
VERTEX
10
7.78471
20
10.0135
30
8.36
0
VERTEX
10
7.78471
20
10.0153
30
8.36
0
VERTEX
10
7.78292
20
10.0171
30
8.36
0
VERTEX
10
7.78023
20
10.0458
30
8.36
0
VERTEX
10
7.78112
20
10.0601
30
8.36
0
VERTEX
10
7.78292
20
10.0673
30
8.36
0
VERTEX
10
7.78292
20
10.0709
30
8.36
0
VERTEX
10
7.78471
20
10.0727
30
8.36
0
VERTEX
10
7.78471
20
10.087
30
8.36
0
VERTEX
10
7.78112
20
10.1014
30
8.36
0
VERTEX
10
7.77933
20
10.1032
30
8.36
0
VERTEX
10
7.77664
20
10.1104
30
8.36
0
VERTEX
10
7.77126
20
10.1175
30
8.36
0
VERTEX
10
7.76409
20
10.1184
30
8.36
0
VERTEX
10
7.75692
20
10.1175
30
8.36
0
VERTEX
10
7.75333
20
10.1175
30
8.36
0
VERTEX
10
7.74974
20
10.1157
30
8.36
0
VERTEX
10
7.74705
20
10.1121
30
8.36
0
VERTEX
10
7.74616
20
10.1086
30
8.36
0
VERTEX
10
7.74168
20
10.1023
30
8.36
0
VERTEX
10
7.7363
20
10.0879
30
8.36
0
VERTEX
10
7.7345
20
10.0844
30
8.36
0
VERTEX
10
7.7345
20
10.0772
30
8.36
0
VERTEX
10
7.7345
20
10.0754
30
8.36
0
SEQEND
0
POLYLINE
62
227
66
1
70
1
3
endoplasmic_reticulum
0
VERTEX
10
7.79457
20
10.0279
30
8.36
0
VERTEX
10
7.79636
20
10.0135
30
8.36
0
VERTEX
10
7.79726
20
10.0064
30
8.36
0
VERTEX
10
7.80264
20
9.99918
30
8.36
0
VERTEX
10
7.80533
20
9.99559
30
8.36
0
VERTEX
10
7.80533
20
9.9938
30
8.36
0
VERTEX
10
7.81968
20
9.9929
30
8.36
0
VERTEX
10
7.82326
20
9.9938
30
8.36
0
VERTEX
10
7.82595
20
9.99739
30
8.36
0
VERTEX
10
7.82774
20
9.99918
30
8.36
0
VERTEX
10
7.82864
20
10.0028
30
8.36
0
VERTEX
10
7.82864
20
10.0046
30
8.36
0
VERTEX
10
7.83492
20
10.009
30
8.36
0
VERTEX
10
7.83581
20
10.0108
30
8.36
0
VERTEX
10
7.85016
20
10.0126
30
8.36
0
VERTEX
10
7.85374
20
10.0126
30
8.36
0
VERTEX
10
7.86092
20
10.0153
30
8.36
0
VERTEX
10
7.86271
20
10.0153
30
8.36
0
VERTEX
10
7.87705
20
10.0064
30
8.36
0
VERTEX
10
7.88064
20
10.0028
30
8.36
0
VERTEX
10
7.89409
20
9.9938
30
8.36
0
VERTEX
10
7.90036
20
9.98932
30
8.36
0
VERTEX
10
7.90395
20
9.98752
30
8.36
0
VERTEX
10
7.9183
20
9.98663
30
8.36
0
VERTEX
10
7.93264
20
9.98214
30
8.36
0
VERTEX
10
7.94698
20
9.98125
30
8.36
0
VERTEX
10
7.97567
20
9.98304
30
8.36
0
VERTEX
10
7.98285
20
9.98304
30
8.36
0
VERTEX
10
7.98464
20
9.98304
30
8.36
0
VERTEX
10
7.98643
20
9.98483
30
8.36
0
VERTEX
10
8.00078
20
9.98752
30
8.36
0
VERTEX
10
8.00436
20
9.99021
30
8.36
0
VERTEX
10
8.03305
20
9.98932
30
8.36
0
VERTEX
10
8.0474
20
9.98842
30
8.36
0
VERTEX
10
8.05457
20
9.98842
30
8.36
0
VERTEX
10
8.05636
20
9.98842
30
8.36
0
VERTEX
10
8.05726
20
9.99201
30
8.36
0
VERTEX
10
8.05816
20
9.9938
30
8.36
0
VERTEX
10
8.05995
20
9.9938
30
8.36
0
VERTEX
10
8.06174
20
10.0081
30
8.36
0
VERTEX
10
8.06354
20
10.0117
30
8.36
0
VERTEX
10
8.06354
20
10.0189
30
8.36
0
VERTEX
10
8.06264
20
10.0225
30
8.36
0
VERTEX
10
8.05726
20
10.0297
30
8.36
0
VERTEX
10
8.04292
20
10.0341
30
8.36
0
VERTEX
10
8.03036
20
10.0422
30
8.36
0
VERTEX
10
8.02678
20
10.0431
30
8.36
0
VERTEX
10
8.02319
20
10.0458
30
8.36
0
VERTEX
10
8.01602
20
10.0467
30
8.36
0
VERTEX
10
8.00257
20
10.0512
30
8.36
0
VERTEX
10
7.98823
20
10.0512
30
8.36
0
VERTEX
10
7.98464
20
10.0512
30
8.36
0
VERTEX
10
7.98105
20
10.053
30
8.36
0
VERTEX
10
7.96671
20
10.0548
30
8.36
0
VERTEX
10
7.96312
20
10.0548
30
8.36
0
VERTEX
10
7.95954
20
10.0566
30
8.36
0
VERTEX
10
7.95595
20
10.0566
30
8.36
0
VERTEX
10
7.94878
20
10.0592
30
8.36
0
VERTEX
10
7.94519
20
10.061
30
8.36
0
VERTEX
10
7.93085
20
10.0628
30
8.36
0
VERTEX
10
7.90216
20
10.0736
30
8.36
0
VERTEX
10
7.88781
20
10.0781
30
8.36
0
VERTEX
10
7.88064
20
10.079
30
8.36
0
VERTEX
10
7.87705
20
10.0808
30
8.36
0
VERTEX
10
7.86988
20
10.0817
30
8.36
0
VERTEX
10
7.85554
20
10.087
30
8.36
0
VERTEX
10
7.84119
20
10.0888
30
8.36
0
VERTEX
10
7.83761
20
10.0861
30
8.36
0
VERTEX
10
7.82326
20
10.0861
30
8.36
0
VERTEX
10
7.81968
20
10.0835
30
8.36
0
VERTEX
10
7.8125
20
10.0826
30
8.36
0
VERTEX
10
7.81071
20
10.0826
30
8.36
0
VERTEX
10
7.79636
20
10.07
30
8.36
0
VERTEX
10
7.79457
20
10.0557
30
8.36
0
VERTEX
10
7.79457
20
10.0413
30
8.36
0
VERTEX
10
7.79457
20
10.0341
30
8.36
0
VERTEX
10
7.79457
20
10.0306
30
8.36
0
VERTEX
10
7.79457
20
10.0288
30
8.36
0
SEQEND
0
POLYLINE
62
227
66
1
70
1
3
endoplasmic_reticulum
0
VERTEX
10
8.18457
20
10.2036
30
8.36
0
VERTEX
10
8.18726
20
10.1892
30
8.36
0
VERTEX
10
8.18726
20
10.1875
30
8.36
0
VERTEX
10
8.19085
20
10.1848
30
8.36
0
VERTEX
10
8.19264
20
10.1866
30
8.36
0
VERTEX
10
8.19443
20
10.1866
30
8.36
0
VERTEX
10
8.19622
20
10.1883
30
8.36
0
VERTEX
10
8.19802
20
10.1883
30
8.36
0
VERTEX
10
8.19891
20
10.1901
30
8.36
0
VERTEX
10
8.20071
20
10.1901
30
8.36
0
VERTEX
10
8.20698
20
10.1955
30
8.36
0
VERTEX
10
8.21505
20
10.2242
30
8.36
0
VERTEX
10
8.21774
20
10.2305
30
8.36
0
VERTEX
10
8.22222
20
10.2368
30
8.36
0
VERTEX
10
8.2285
20
10.243
30
8.36
0
VERTEX
10
8.23119
20
10.2502
30
8.36
0
VERTEX
10
8.23567
20
10.2574
30
8.36
0
VERTEX
10
8.23747
20
10.261
30
8.36
0
VERTEX
10
8.24195
20
10.2897
30
8.36
0
VERTEX
10
8.24284
20
10.2932
30
8.36
0
VERTEX
10
8.24105
20
10.3076
30
8.36
0
VERTEX
10
8.23836
20
10.3148
30
8.36
0
VERTEX
10
8.23388
20
10.3219
30
8.36
0
VERTEX
10
8.23209
20
10.3237
30
8.36
0
VERTEX
10
8.22491
20
10.3228
30
8.36
0
VERTEX
10
8.22133
20
10.3219
30
8.36
0
VERTEX
10
8.21953
20
10.3219
30
8.36
0
VERTEX
10
8.21505
20
10.3148
30
8.36
0
VERTEX
10
8.21326
20
10.3121
30
8.36
0
VERTEX
10
8.20967
20
10.3085
30
8.36
0
VERTEX
10
8.20071
20
10.2941
30
8.36
0
VERTEX
10
8.18995
20
10.2807
30
8.36
0
VERTEX
10
8.18726
20
10.2771
30
8.36
0
VERTEX
10
8.18816
20
10.2484
30
8.36
0
VERTEX
10
8.18726
20
10.2341
30
8.36
0
VERTEX
10
8.18636
20
10.2269
30
8.36
0
VERTEX
10
8.18457
20
10.2233
30
8.36
0
VERTEX
10
8.18457
20
10.209
30
8.36
0
VERTEX
10
8.18457
20
10.2054
30
8.36
0
VERTEX
10
8.18457
20
10.2045
30
8.36
0
SEQEND
0
POLYLINE
62
227
66
1
70
1
3
endoplasmic_reticulum
0
VERTEX
10
8.11195
20
10.2403
30
8.36
0
VERTEX
10
8.11464
20
10.2332
30
8.36
0
VERTEX
10
8.11643
20
10.2323
30
8.36
0
VERTEX
10
8.11823
20
10.2251
30
8.36
0
VERTEX
10
8.12091
20
10.2215
30
8.36
0
VERTEX
10
8.1236
20
10.2072
30
8.36
0
VERTEX
10
8.1254
20
10.2
30
8.36
0
VERTEX
10
8.1254
20
10.1964
30
8.36
0
VERTEX
10
8.12719
20
10.1928
30
8.36
0
VERTEX
10
8.12809
20
10.1857
30
8.36
0
VERTEX
10
8.13616
20
10.1713
30
8.36
0
VERTEX
10
8.13974
20
10.1686
30
8.36
0
VERTEX
10
8.14154
20
10.1686
30
8.36
0
VERTEX
10
8.14154
20
10.1668
30
8.36
0
VERTEX
10
8.14512
20
10.1659
30
8.36
0
VERTEX
10
8.14871
20
10.1668
30
8.36
0
VERTEX
10
8.1496
20
10.1812
30
8.36
0
VERTEX
10
8.14871
20
10.1955
30
8.36
0
VERTEX
10
8.14602
20
10.2099
30
8.36
0
VERTEX
10
8.14512
20
10.2242
30
8.36
0
VERTEX
10
8.14602
20
10.2386
30
8.36
0
VERTEX
10
8.14781
20
10.2457
30
8.36
0
VERTEX
10
8.1505
20
10.2493
30
8.36
0
VERTEX
10
8.15229
20
10.2565
30
8.36
0
VERTEX
10
8.15588
20
10.2628
30
8.36
0
VERTEX
10
8.15678
20
10.2699
30
8.36
0
VERTEX
10
8.15857
20
10.2717
30
8.36
0
VERTEX
10
8.16216
20
10.2861
30
8.36
0
VERTEX
10
8.16485
20
10.3148
30
8.36
0
VERTEX
10
8.16216
20
10.3291
30
8.36
0
VERTEX
10
8.15767
20
10.3435
30
8.36
0
VERTEX
10
8.15409
20
10.3506
30
8.36
0
VERTEX
10
8.1514
20
10.3542
30
8.36
0
VERTEX
10
8.1505
20
10.3578
30
8.36
0
VERTEX
10
8.14691
20
10.3614
30
8.36
0
VERTEX
10
8.13347
20
10.3695
30
8.36
0
VERTEX
10
8.12629
20
10.3686
30
8.36
0
VERTEX
10
8.12271
20
10.3677
30
8.36
0
VERTEX
10
8.12091
20
10.3641
30
8.36
0
VERTEX
10
8.12271
20
10.3497
30
8.36
0
VERTEX
10
8.12271
20
10.3426
30
8.36
0
VERTEX
10
8.12091
20
10.3354
30
8.36
0
VERTEX
10
8.11912
20
10.3318
30
8.36
0
VERTEX
10
8.11912
20
10.3246
30
8.36
0
VERTEX
10
8.11733
20
10.3219
30
8.36
0
VERTEX
10
8.11643
20
10.2932
30
8.36
0
VERTEX
10
8.11643
20
10.2789
30
8.36
0
VERTEX
10
8.11464
20
10.2717
30
8.36
0
VERTEX
10
8.11464
20
10.2646
30
8.36
0
VERTEX
10
8.11285
20
10.2628
30
8.36
0
VERTEX
10
8.11195
20
10.2484
30
8.36
0
VERTEX
10
8.11195
20
10.2412
30
8.36
0
SEQEND
0
POLYLINE
62
227
66
1
70
1
3
endoplasmic_reticulum
0
VERTEX
10
8.12629
20
10.0852
30
8.36
0
VERTEX
10
8.12809
20
10.0709
30
8.36
0
VERTEX
10
8.12988
20
10.0673
30
8.36
0
VERTEX
10
8.13616
20
10.0619
30
8.36
0
VERTEX
10
8.1505
20
10.0646
30
8.36
0
VERTEX
10
8.15767
20
10.0682
30
8.36
0
VERTEX
10
8.16395
20
10.0736
30
8.36
0
VERTEX
10
8.16664
20
10.0763
30
8.36
0
VERTEX
10
8.16664
20
10.0906
30
8.36
0
VERTEX
10
8.16574
20
10.0978
30
8.36
0
VERTEX
10
8.16574
20
10.1014
30
8.36
0
VERTEX
10
8.16395
20
10.1032
30
8.36
0
VERTEX
10
8.16395
20
10.105
30
8.36
0
VERTEX
10
8.16216
20
10.1068
30
8.36
0
VERTEX
10
8.16036
20
10.1068
30
8.36
0
VERTEX
10
8.16036
20
10.1086
30
8.36
0
VERTEX
10
8.15319
20
10.1139
30
8.36
0
VERTEX
10
8.1496
20
10.1166
30
8.36
0
VERTEX
10
8.14781
20
10.1184
30
8.36
0
VERTEX
10
8.13347
20
10.1068
30
8.36
0
VERTEX
10
8.12898
20
10.0996
30
8.36
0
VERTEX
10
8.12809
20
10.096
30
8.36
0
VERTEX
10
8.12809
20
10.0942
30
8.36
0
VERTEX
10
8.12629
20
10.0924
30
8.36
0
VERTEX
10
8.12629
20
10.0861
30
8.36
0
SEQEND
0
POLYLINE
62
31
66
1
70
1
3
contour
0
VERTEX
10
7.3474
20
9.5933
30
8.36
0
VERTEX
10
7.36025
20
9.58412
30
8.36
0
VERTEX
10
7.38963
20
9.57494
30
8.36
0
VERTEX
10
7.41902
20
9.57494
30
8.36
0
VERTEX
10
7.42269
20
9.5731
30
8.36
0
VERTEX
10
7.43738
20
9.57494
30
8.36
0
VERTEX
10
7.45207
20
9.58045
30
8.36
0
VERTEX
10
7.48145
20
9.58412
30
8.36
0
VERTEX
10
7.48696
20
9.58779
30
8.36
0
VERTEX
10
7.50165
20
9.58412
30
8.36
0
VERTEX
10
7.61918
20
9.58229
30
8.36
0
VERTEX
10
7.63387
20
9.58412
30
8.36
0
VERTEX
10
7.64857
20
9.58963
30
8.36
0
VERTEX
10
7.67795
20
9.59514
30
8.36
0
VERTEX
10
7.68346
20
9.59881
30
8.36
0
VERTEX
10
7.69815
20
9.59881
30
8.36
0
VERTEX
10
7.70366
20
9.60432
30
8.36
0
VERTEX
10
7.711
20
9.60616
30
8.36
0
VERTEX
10
7.72202
20
9.61901
30
8.36
0
VERTEX
10
7.72569
20
9.61901
30
8.36
0
VERTEX
10
7.72753
20
9.62269
30
8.36
0
VERTEX
10
7.73488
20
9.62452
30
8.36
0
VERTEX
10
7.74039
20
9.63921
30
8.36
0
VERTEX
10
7.74589
20
9.64656
30
8.36
0
VERTEX
10
7.74773
20
9.66125
30
8.36
0
VERTEX
10
7.7514
20
9.66492
30
8.36
0
VERTEX
10
7.7514
20
9.67227
30
8.36
0
VERTEX
10
7.75691
20
9.67961
30
8.36
0
VERTEX
10
7.75508
20
9.68696
30
8.36
0
VERTEX
10
7.76609
20
9.69798
30
8.36
0
VERTEX
10
7.7863
20
9.72552
30
8.36
0
VERTEX
10
7.79364
20
9.72736
30
8.36
0
VERTEX
10
7.8065
20
9.73838
30
8.36
0
VERTEX
10
7.81017
20
9.73838
30
8.36
0
VERTEX
10
7.81568
20
9.74572
30
8.36
0
VERTEX
10
7.81935
20
9.74572
30
8.36
0
VERTEX
10
7.82119
20
9.75307
30
8.36
0
VERTEX
10
7.8267
20
9.76041
30
8.36
0
VERTEX
10
7.84139
20
9.76592
30
8.36
0
VERTEX
10
7.85608
20
9.76592
30
8.36
0
VERTEX
10
7.86342
20
9.76776
30
8.36
0
VERTEX
10
7.8671
20
9.76776
30
8.36
0
VERTEX
10
7.87077
20
9.77143
30
8.36
0
VERTEX
10
7.88546
20
9.77511
30
8.36
0
VERTEX
10
7.90015
20
9.77511
30
8.36
0
VERTEX
10
7.91484
20
9.77878
30
8.36
0
VERTEX
10
7.92219
20
9.78245
30
8.36
0
VERTEX
10
7.92219
20
9.78612
30
8.36
0
VERTEX
10
7.95157
20
9.79347
30
8.36
0
VERTEX
10
7.96626
20
9.79898
30
8.36
0
VERTEX
10
7.96993
20
9.79898
30
8.36
0
VERTEX
10
7.97361
20
9.80265
30
8.36
0
VERTEX
10
7.97361
20
9.81
30
8.36
0
VERTEX
10
7.99564
20
9.83203
30
8.36
0
VERTEX
10
8.00299
20
9.83938
30
8.36
0
VERTEX
10
8.00666
20
9.83938
30
8.36
0
VERTEX
10
8.01952
20
9.85223
30
8.36
0
VERTEX
10
8.02686
20
9.86509
30
8.36
0
VERTEX
10
8.03972
20
9.87794
30
8.36
0
VERTEX
10
8.0489
20
9.8908
30
8.36
0
VERTEX
10
8.05257
20
9.89814
30
8.36
0
VERTEX
10
8.07828
20
9.92569
30
8.36
0
VERTEX
10
8.08746
20
9.93854
30
8.36
0
VERTEX
10
8.08746
20
9.94222
30
8.36
0
VERTEX
10
8.09297
20
9.94773
30
8.36
0
VERTEX
10
8.10399
20
9.97711
30
8.36
0
VERTEX
10
8.10399
20
9.98078
30
8.36
0
VERTEX
10
8.1095
20
9.98813
30
8.36
0
VERTEX
10
8.11134
20
9.9918
30
8.36
0
VERTEX
10
8.12603
20
9.99547
30
8.36
0
VERTEX
10
8.13888
20
10.0083
30
8.36
0
VERTEX
10
8.14623
20
10.0138
30
8.36
0
VERTEX
10
8.1499
20
10.0175
30
8.36
0
VERTEX
10
8.15357
20
10.0175
30
8.36
0
VERTEX
10
8.18296
20
10.0377
30
8.36
0
VERTEX
10
8.1903
20
10.0432
30
8.36
0
VERTEX
10
8.19397
20
10.0506
30
8.36
0
VERTEX
10
8.19765
20
10.0524
30
8.36
0
VERTEX
10
8.19765
20
10.0561
30
8.36
0
VERTEX
10
8.20867
20
10.0689
30
8.36
0
VERTEX
10
8.2105
20
10.0763
30
8.36
0
VERTEX
10
8.21968
20
10.0891
30
8.36
0
VERTEX
10
8.22336
20
10.0928
30
8.36
0
VERTEX
10
8.2307
20
10.091
30
8.36
0
VERTEX
10
8.23805
20
10.0928
30
8.36
0
VERTEX
10
8.23988
20
10.0983
30
8.36
0
VERTEX
10
8.24356
20
10.0983
30
8.36
0
VERTEX
10
8.2509
20
10.113
30
8.36
0
VERTEX
10
8.27845
20
10.1332
30
8.36
0
VERTEX
10
8.28947
20
10.1424
30
8.36
0
VERTEX
10
8.31701
20
10.1607
30
8.36
0
VERTEX
10
8.32436
20
10.1681
30
8.36
0
VERTEX
10
8.3317
20
10.1718
30
8.36
0
VERTEX
10
8.3519
20
10.1975
30
8.36
0
VERTEX
10
8.35741
20
10.2122
30
8.36
0
VERTEX
10
8.35925
20
10.2269
30
8.36
0
VERTEX
10
8.36292
20
10.2342
30
8.36
0
VERTEX
10
8.35925
20
10.2636
30
8.36
0
VERTEX
10
8.34823
20
10.2783
30
8.36
0
VERTEX
10
8.34456
20
10.2856
30
8.36
0
VERTEX
10
8.3317
20
10.2985
30
8.36
0
VERTEX
10
8.32803
20
10.3022
30
8.36
0
VERTEX
10
8.32803
20
10.3058
30
8.36
0
VERTEX
10
8.32252
20
10.3095
30
8.36
0
VERTEX
10
8.32252
20
10.3132
30
8.36
0
VERTEX
10
8.30967
20
10.3279
30
8.36
0
VERTEX
10
8.30416
20
10.3352
30
8.36
0
VERTEX
10
8.29865
20
10.3389
30
8.36
0
VERTEX
10
8.29865
20
10.3462
30
8.36
0
VERTEX
10
8.28763
20
10.3591
30
8.36
0
VERTEX
10
8.27478
20
10.3683
30
8.36
0
VERTEX
10
8.26008
20
10.3811
30
8.36
0
VERTEX
10
8.2307
20
10.394
30
8.36
0
VERTEX
10
8.21785
20
10.4068
30
8.36
0
VERTEX
10
8.21417
20
10.4068
30
8.36
0
VERTEX
10
8.20867
20
10.4123
30
8.36
0
VERTEX
10
8.20683
20
10.416
30
8.36
0
VERTEX
10
8.20316
20
10.416
30
8.36
0
VERTEX
10
8.1903
20
10.4307
30
8.36
0
VERTEX
10
8.18296
20
10.4362
30
8.36
0
VERTEX
10
8.17928
20
10.438
30
8.36
0
VERTEX
10
8.17928
20
10.4417
30
8.36
0
VERTEX
10
8.17561
20
10.4454
30
8.36
0
VERTEX
10
8.16826
20
10.4472
30
8.36
0
VERTEX
10
8.14256
20
10.4711
30
8.36
0
VERTEX
10
8.13888
20
10.4748
30
8.36
0
VERTEX
10
8.13888
20
10.4784
30
8.36
0
VERTEX
10
8.12603
20
10.4913
30
8.36
0
VERTEX
10
8.09665
20
10.5023
30
8.36
0
VERTEX
10
8.08195
20
10.5115
30
8.36
0
VERTEX
10
8.02319
20
10.5133
30
8.36
0
VERTEX
10
7.99381
20
10.5078
30
8.36
0
VERTEX
10
7.97912
20
10.5023
30
8.36
0
VERTEX
10
7.97177
20
10.4986
30
8.36
0
VERTEX
10
7.96443
20
10.4986
30
8.36
0
VERTEX
10
7.94973
20
10.4913
30
8.36
0
VERTEX
10
7.94606
20
10.4913
30
8.36
0
VERTEX
10
7.94239
20
10.4876
30
8.36
0
VERTEX
10
7.91301
20
10.4821
30
8.36
0
VERTEX
10
7.89832
20
10.4784
30
8.36
0
VERTEX
10
7.89097
20
10.4748
30
8.36
0
VERTEX
10
7.87628
20
10.4729
30
8.36
0
VERTEX
10
7.86893
20
10.4711
30
8.36
0
VERTEX
10
7.86526
20
10.4711
30
8.36
0
VERTEX
10
7.86159
20
10.4674
30
8.36
0
VERTEX
10
7.8469
20
10.4638
30
8.36
0
VERTEX
10
7.83955
20
10.4619
30
8.36
0
VERTEX
10
7.83955
20
10.4582
30
8.36
0
VERTEX
10
7.83221
20
10.4582
30
8.36
0
VERTEX
10
7.82853
20
10.4582
30
8.36
0
VERTEX
10
7.82302
20
10.4527
30
8.36
0
VERTEX
10
7.79364
20
10.4454
30
8.36
0
VERTEX
10
7.76426
20
10.4454
30
8.36
0
VERTEX
10
7.74957
20
10.4454
30
8.36
0
VERTEX
10
7.74406
20
10.438
30
8.36
0
VERTEX
10
7.72937
20
10.4289
30
8.36
0
VERTEX
10
7.71835
20
10.4178
30
8.36
0
VERTEX
10
7.71835
20
10.4142
30
8.36
0
VERTEX
10
7.70917
20
10.3995
30
8.36
0
VERTEX
10
7.70733
20
10.3921
30
8.36
0
VERTEX
10
7.70366
20
10.3885
30
8.36
0
VERTEX
10
7.70366
20
10.3848
30
8.36
0
VERTEX
10
7.6908
20
10.3719
30
8.36
0
VERTEX
10
7.68346
20
10.3572
30
8.36
0
VERTEX
10
7.67795
20
10.3517
30
8.36
0
VERTEX
10
7.67428
20
10.3517
30
8.36
0
VERTEX
10
7.6706
20
10.3462
30
8.36
0
VERTEX
10
7.65775
20
10.337
30
8.36
0
VERTEX
10
7.65408
20
10.3297
30
8.36
0
VERTEX
10
7.64306
20
10.3205
30
8.36
0
VERTEX
10
7.64306
20
10.3168
30
8.36
0
VERTEX
10
7.63204
20
10.3022
30
8.36
0
VERTEX
10
7.62653
20
10.2985
30
8.36
0
VERTEX
10
7.62469
20
10.2838
30
8.36
0
VERTEX
10
7.61918
20
10.2691
30
8.36
0
VERTEX
10
7.62102
20
10.2397
30
8.36
0
VERTEX
10
7.62653
20
10.2103
30
8.36
0
VERTEX
10
7.62837
20
10.203
30
8.36
0
VERTEX
10
7.63387
20
10.1956
30
8.36
0
VERTEX
10
7.63571
20
10.1883
30
8.36
0
VERTEX
10
7.64489
20
10.1754
30
8.36
0
VERTEX
10
7.64857
20
10.1718
30
8.36
0
VERTEX
10
7.64857
20
10.1681
30
8.36
0
VERTEX
10
7.65224
20
10.1644
30
8.36
0
VERTEX
10
7.65775
20
10.1516
30
8.36
0
VERTEX
10
7.66693
20
10.1369
30
8.36
0
VERTEX
10
7.6706
20
10.1332
30
8.36
0
VERTEX
10
7.6706
20
10.1259
30
8.36
0
VERTEX
10
7.67978
20
10.113
30
8.36
0
VERTEX
10
7.67978
20
10.1093
30
8.36
0
VERTEX
10
7.68346
20
10.1057
30
8.36
0
VERTEX
10
7.68346
20
10.102
30
8.36
0
VERTEX
10
7.68897
20
10.0965
30
8.36
0
VERTEX
10
7.68897
20
10.0891
30
8.36
0
VERTEX
10
7.69815
20
10.0763
30
8.36
0
VERTEX
10
7.69815
20
10.0616
30
8.36
0
VERTEX
10
7.70182
20
10.0542
30
8.36
0
VERTEX
10
7.70549
20
10.0506
30
8.36
0
VERTEX
10
7.70549
20
10.0469
30
8.36
0
VERTEX
10
7.711
20
10.0395
30
8.36
0
VERTEX
10
7.72019
20
9.98078
30
8.36
0
VERTEX
10
7.72019
20
9.96609
30
8.36
0
VERTEX
10
7.72386
20
9.96242
30
8.36
0
VERTEX
10
7.72569
20
9.90365
30
8.36
0
VERTEX
10
7.73304
20
9.87427
30
8.36
0
VERTEX
10
7.73304
20
9.86693
30
8.36
0
VERTEX
10
7.74039
20
9.85407
30
8.36
0
VERTEX
10
7.74222
20
9.83938
30
8.36
0
VERTEX
10
7.74039
20
9.82469
30
8.36
0
VERTEX
10
7.73855
20
9.81734
30
8.36
0
VERTEX
10
7.73304
20
9.81
30
8.36
0
VERTEX
10
7.7312
20
9.80265
30
8.36
0
VERTEX
10
7.72569
20
9.79531
30
8.36
0
VERTEX
10
7.72202
20
9.78062
30
8.36
0
VERTEX
10
7.70917
20
9.7696
30
8.36
0
VERTEX
10
7.70182
20
9.76776
30
8.36
0
VERTEX
10
7.69448
20
9.76225
30
8.36
0
VERTEX
10
7.67978
20
9.76225
30
8.36
0
VERTEX
10
7.67611
20
9.76592
30
8.36
0
VERTEX
10
7.66142
20
9.76592
30
8.36
0
VERTEX
10
7.65775
20
9.77143
30
8.36
0
VERTEX
10
7.64489
20
9.77694
30
8.36
0
VERTEX
10
7.63755
20
9.78245
30
8.36
0
VERTEX
10
7.62286
20
9.78429
30
8.36
0
VERTEX
10
7.61
20
9.79347
30
8.36
0
VERTEX
10
7.60633
20
9.79347
30
8.36
0
VERTEX
10
7.60266
20
9.79714
30
8.36
0
VERTEX
10
7.57327
20
9.79714
30
8.36
0
VERTEX
10
7.55858
20
9.79714
30
8.36
0
VERTEX
10
7.55124
20
9.79347
30
8.36
0
VERTEX
10
7.49247
20
9.7898
30
8.36
0
VERTEX
10
7.46309
20
9.78796
30
8.36
0
VERTEX
10
7.4484
20
9.7898
30
8.36
0
VERTEX
10
7.41902
20
9.78245
30
8.36
0
VERTEX
10
7.38963
20
9.77878
30
8.36
0
VERTEX
10
7.38229
20
9.77511
30
8.36
0
VERTEX
10
7.37862
20
9.77511
30
8.36
0
VERTEX
10
7.37127
20
9.7696
30
8.36
0
VERTEX
10
7.37494
20
9.75491
30
8.36
0
VERTEX
10
7.37311
20
9.74021
30
8.36
0
VERTEX
10
7.3676
20
9.72552
30
8.36
0
VERTEX
10
7.36393
20
9.72185
30
8.36
0
VERTEX
10
7.36393
20
9.69247
30
8.36
0
VERTEX
10
7.35658
20
9.66309
30
8.36
0
VERTEX
10
7.34923
20
9.6484
30
8.36
0
VERTEX
10
7.3474
20
9.61901
30
8.36
0
VERTEX
10
7.3474
20
9.60432
30
8.36
0
VERTEX
10
7.3474
20
9.59698
30
8.36
0
VERTEX
10
7.3474
20
9.59514
30
8.36
0
SEQEND
0
ENDSEC
0
EOF
