0
SECTION
2
ENTITIES
0
POLYLINE
62
31
66
1
70
1
3
contour
0
VERTEX
10
7.52205
20
10.2675
30
8.72
0
VERTEX
10
7.52863
20
10.2148
30
8.72
0
VERTEX
10
7.52863
20
10.2017
30
8.72
0
VERTEX
10
7.53522
20
10.1951
30
8.72
0
VERTEX
10
7.53851
20
10.1819
30
8.72
0
VERTEX
10
7.54839
20
10.1753
30
8.72
0
VERTEX
10
7.57472
20
10.1523
30
8.72
0
VERTEX
10
7.5813
20
10.1457
30
8.72
0
VERTEX
10
7.5813
20
10.1391
30
8.72
0
VERTEX
10
7.63398
20
10.0963
30
8.72
0
VERTEX
10
7.68665
20
10.0634
30
8.72
0
VERTEX
10
7.69981
20
10.0568
30
8.72
0
VERTEX
10
7.7064
20
10.0568
30
8.72
0
VERTEX
10
7.70969
20
10.0502
30
8.72
0
VERTEX
10
7.71627
20
10.0502
30
8.72
0
VERTEX
10
7.72286
20
10.0437
30
8.72
0
VERTEX
10
7.72944
20
10.0437
30
8.72
0
VERTEX
10
7.74919
20
10.0239
30
8.72
0
VERTEX
10
7.85453
20
10.0239
30
8.72
0
VERTEX
10
7.90721
20
10.0206
30
8.72
0
VERTEX
10
7.93354
20
10.0206
30
8.72
0
VERTEX
10
7.94012
20
10.014
30
8.72
0
VERTEX
10
8.04547
20
9.98112
30
8.72
0
VERTEX
10
8.0718
20
9.96466
30
8.72
0
VERTEX
10
8.08497
20
9.95807
30
8.72
0
VERTEX
10
8.13764
20
9.96137
30
8.72
0
VERTEX
10
8.16398
20
9.97453
30
8.72
0
VERTEX
10
8.18702
20
9.99429
30
8.72
0
VERTEX
10
8.21335
20
10.0042
30
8.72
0
VERTEX
10
8.22652
20
10.0075
30
8.72
0
VERTEX
10
8.23311
20
10.0075
30
8.72
0
VERTEX
10
8.24298
20
10.0206
30
8.72
0
VERTEX
10
8.24627
20
10.047
30
8.72
0
VERTEX
10
8.25286
20
10.0535
30
8.72
0
VERTEX
10
8.25615
20
10.0799
30
8.72
0
VERTEX
10
8.26932
20
10.1062
30
8.72
0
VERTEX
10
8.27261
20
10.1194
30
8.72
0
VERTEX
10
8.29236
20
10.1457
30
8.72
0
VERTEX
10
8.30224
20
10.1589
30
8.72
0
VERTEX
10
8.30553
20
10.1721
30
8.72
0
VERTEX
10
8.32199
20
10.1984
30
8.72
0
VERTEX
10
8.32528
20
10.2511
30
8.72
0
VERTEX
10
8.33186
20
10.2774
30
8.72
0
VERTEX
10
8.33186
20
10.284
30
8.72
0
VERTEX
10
8.34503
20
10.284
30
8.72
0
VERTEX
10
8.3582
20
10.2906
30
8.72
0
VERTEX
10
8.37466
20
10.3169
30
8.72
0
VERTEX
10
8.37795
20
10.3301
30
8.72
0
VERTEX
10
8.38783
20
10.3432
30
8.72
0
VERTEX
10
8.39112
20
10.3564
30
8.72
0
VERTEX
10
8.40099
20
10.3696
30
8.72
0
VERTEX
10
8.41745
20
10.4189
30
8.72
0
VERTEX
10
8.42075
20
10.4453
30
8.72
0
VERTEX
10
8.41416
20
10.4716
30
8.72
0
VERTEX
10
8.41416
20
10.498
30
8.72
0
VERTEX
10
8.38783
20
10.5177
30
8.72
0
VERTEX
10
8.37466
20
10.5309
30
8.72
0
VERTEX
10
8.32528
20
10.5605
30
8.72
0
VERTEX
10
8.29894
20
10.5868
30
8.72
0
VERTEX
10
8.24957
20
10.6099
30
8.72
0
VERTEX
10
8.14422
20
10.6099
30
8.72
0
VERTEX
10
8.03888
20
10.6
30
8.72
0
VERTEX
10
8.01255
20
10.5967
30
8.72
0
VERTEX
10
7.95988
20
10.6033
30
8.72
0
VERTEX
10
7.93354
20
10.6132
30
8.72
0
VERTEX
10
7.88087
20
10.6198
30
8.72
0
VERTEX
10
7.85453
20
10.623
30
8.72
0
VERTEX
10
7.84137
20
10.6296
30
8.72
0
VERTEX
10
7.8282
20
10.6296
30
8.72
0
VERTEX
10
7.78211
20
10.5967
30
8.72
0
VERTEX
10
7.75578
20
10.577
30
8.72
0
VERTEX
10
7.74261
20
10.5671
30
8.72
0
VERTEX
10
7.74261
20
10.5605
30
8.72
0
VERTEX
10
7.71957
20
10.5407
30
8.72
0
VERTEX
10
7.68335
20
10.4881
30
8.72
0
VERTEX
10
7.66031
20
10.4354
30
8.72
0
VERTEX
10
7.65373
20
10.4288
30
8.72
0
VERTEX
10
7.65373
20
10.4222
30
8.72
0
VERTEX
10
7.61093
20
10.3827
30
8.72
0
VERTEX
10
7.60106
20
10.3696
30
8.72
0
VERTEX
10
7.59447
20
10.3663
30
8.72
0
VERTEX
10
7.58789
20
10.3696
30
8.72
0
VERTEX
10
7.56155
20
10.3531
30
8.72
0
VERTEX
10
7.55168
20
10.3432
30
8.72
0
VERTEX
10
7.54839
20
10.3366
30
8.72
0
VERTEX
10
7.5418
20
10.3366
30
8.72
0
VERTEX
10
7.52534
20
10.3103
30
8.72
0
VERTEX
10
7.52205
20
10.284
30
8.72
0
VERTEX
10
7.52205
20
10.2708
30
8.72
0
SEQEND
0
POLYLINE
62
31
66
1
70
1
3
contour
0
VERTEX
10
7.20635
20
9.61586
30
8.72
0
VERTEX
10
7.21147
20
9.60221
30
8.72
0
VERTEX
10
7.21318
20
9.59538
30
8.72
0
VERTEX
10
7.22512
20
9.58514
30
8.72
0
VERTEX
10
7.23707
20
9.58003
30
8.72
0
VERTEX
10
7.29167
20
9.57832
30
8.72
0
VERTEX
10
7.31898
20
9.57491
30
8.72
0
VERTEX
10
7.33263
20
9.5732
30
8.72
0
VERTEX
10
7.38723
20
9.54931
30
8.72
0
VERTEX
10
7.40089
20
9.54248
30
8.72
0
VERTEX
10
7.40771
20
9.54078
30
8.72
0
VERTEX
10
7.41795
20
9.53054
30
8.72
0
VERTEX
10
7.44525
20
9.52201
30
8.72
0
VERTEX
10
7.45208
20
9.52201
30
8.72
0
VERTEX
10
7.4589
20
9.52542
30
8.72
0
VERTEX
10
7.47256
20
9.52713
30
8.72
0
VERTEX
10
7.47938
20
9.52713
30
8.72
0
VERTEX
10
7.49303
20
9.53224
30
8.72
0
VERTEX
10
7.49645
20
9.53224
30
8.72
0
VERTEX
10
7.5101
20
9.54078
30
8.72
0
VERTEX
10
7.51351
20
9.5476
30
8.72
0
VERTEX
10
7.52034
20
9.55272
30
8.72
0
VERTEX
10
7.52375
20
9.55443
30
8.72
0
VERTEX
10
7.52546
20
9.56125
30
8.72
0
VERTEX
10
7.53228
20
9.56808
30
8.72
0
VERTEX
10
7.53911
20
9.58003
30
8.72
0
VERTEX
10
7.54081
20
9.59368
30
8.72
0
VERTEX
10
7.54593
20
9.6005
30
8.72
0
VERTEX
10
7.54593
20
9.60733
30
8.72
0
VERTEX
10
7.55617
20
9.63463
30
8.72
0
VERTEX
10
7.55788
20
9.66193
30
8.72
0
VERTEX
10
7.55788
20
9.67559
30
8.72
0
VERTEX
10
7.55105
20
9.70289
30
8.72
0
VERTEX
10
7.55105
20
9.70972
30
8.72
0
VERTEX
10
7.55105
20
9.71313
30
8.72
0
VERTEX
10
7.54593
20
9.71995
30
8.72
0
VERTEX
10
7.54252
20
9.73361
30
8.72
0
VERTEX
10
7.54081
20
9.73702
30
8.72
0
VERTEX
10
7.5374
20
9.73702
30
8.72
0
VERTEX
10
7.53399
20
9.74384
30
8.72
0
VERTEX
10
7.52716
20
9.75067
30
8.72
0
VERTEX
10
7.51863
20
9.76091
30
8.72
0
VERTEX
10
7.51692
20
9.76774
30
8.72
0
VERTEX
10
7.49986
20
9.79504
30
8.72
0
VERTEX
10
7.48962
20
9.80528
30
8.72
0
VERTEX
10
7.43501
20
9.80698
30
8.72
0
VERTEX
10
7.38041
20
9.80186
30
8.72
0
VERTEX
10
7.36676
20
9.80186
30
8.72
0
VERTEX
10
7.3531
20
9.79674
30
8.72
0
VERTEX
10
7.34628
20
9.79163
30
8.72
0
VERTEX
10
7.33775
20
9.78139
30
8.72
0
VERTEX
10
7.31044
20
9.76262
30
8.72
0
VERTEX
10
7.2985
20
9.7575
30
8.72
0
VERTEX
10
7.29509
20
9.75408
30
8.72
0
VERTEX
10
7.28826
20
9.75408
30
8.72
0
VERTEX
10
7.27461
20
9.74214
30
8.72
0
VERTEX
10
7.26778
20
9.73531
30
8.72
0
VERTEX
10
7.26096
20
9.73361
30
8.72
0
VERTEX
10
7.25925
20
9.73019
30
8.72
0
VERTEX
10
7.25584
20
9.73019
30
8.72
0
VERTEX
10
7.2473
20
9.71654
30
8.72
0
VERTEX
10
7.24048
20
9.70972
30
8.72
0
VERTEX
10
7.24048
20
9.7063
30
8.72
0
VERTEX
10
7.23024
20
9.69436
30
8.72
0
VERTEX
10
7.22341
20
9.68753
30
8.72
0
VERTEX
10
7.20976
20
9.68241
30
8.72
0
VERTEX
10
7.20635
20
9.66876
30
8.72
0
VERTEX
10
7.20635
20
9.64146
30
8.72
0
VERTEX
10
7.20635
20
9.62781
30
8.72
0
VERTEX
10
7.20635
20
9.62098
30
8.72
0
VERTEX
10
7.20635
20
9.61757
30
8.72
0
SEQEND
0
POLYLINE
62
224
66
1
70
1
3
mitochondrion
0
VERTEX
10
7.72106
20
10.3003
30
8.72
0
VERTEX
10
7.72245
20
10.2892
30
8.72
0
VERTEX
10
7.72245
20
10.2836
30
8.72
0
VERTEX
10
7.72662
20
10.2725
30
8.72
0
VERTEX
10
7.72801
20
10.2614
30
8.72
0
VERTEX
10
7.73496
20
10.2391
30
8.72
0
VERTEX
10
7.73635
20
10.2336
30
8.72
0
VERTEX
10
7.74191
20
10.228
30
8.72
0
VERTEX
10
7.7433
20
10.2224
30
8.72
0
VERTEX
10
7.74748
20
10.2169
30
8.72
0
VERTEX
10
7.75026
20
10.2169
30
8.72
0
VERTEX
10
7.76138
20
10.2099
30
8.72
0
VERTEX
10
7.76694
20
10.2058
30
8.72
0
VERTEX
10
7.77806
20
10.203
30
8.72
0
VERTEX
10
7.80031
20
10.1877
30
8.72
0
VERTEX
10
7.81144
20
10.1821
30
8.72
0
VERTEX
10
7.817
20
10.1779
30
8.72
0
VERTEX
10
7.83924
20
10.1738
30
8.72
0
VERTEX
10
7.86149
20
10.1668
30
8.72
0
VERTEX
10
7.90598
20
10.1627
30
8.72
0
VERTEX
10
7.92823
20
10.1682
30
8.72
0
VERTEX
10
7.93935
20
10.1738
30
8.72
0
VERTEX
10
7.95743
20
10.1919
30
8.72
0
VERTEX
10
7.96716
20
10.1988
30
8.72
0
VERTEX
10
7.96716
20
10.2044
30
8.72
0
VERTEX
10
7.96716
20
10.2071
30
8.72
0
VERTEX
10
7.98524
20
10.2294
30
8.72
0
VERTEX
10
7.99775
20
10.2502
30
8.72
0
VERTEX
10
8.00331
20
10.26
30
8.72
0
VERTEX
10
8.0047
20
10.3045
30
8.72
0
VERTEX
10
8.00331
20
10.349
30
8.72
0
VERTEX
10
8.00192
20
10.3712
30
8.72
0
VERTEX
10
7.99914
20
10.3823
30
8.72
0
VERTEX
10
7.99914
20
10.3879
30
8.72
0
VERTEX
10
7.99219
20
10.3976
30
8.72
0
VERTEX
10
7.98802
20
10.4032
30
8.72
0
VERTEX
10
7.98246
20
10.4046
30
8.72
0
VERTEX
10
7.9769
20
10.4088
30
8.72
0
VERTEX
10
7.96994
20
10.4199
30
8.72
0
VERTEX
10
7.96716
20
10.4227
30
8.72
0
VERTEX
10
7.96716
20
10.4254
30
8.72
0
VERTEX
10
7.94909
20
10.4449
30
8.72
0
VERTEX
10
7.93796
20
10.4533
30
8.72
0
VERTEX
10
7.91572
20
10.463
30
8.72
0
VERTEX
10
7.90459
20
10.4672
30
8.72
0
VERTEX
10
7.89903
20
10.4672
30
8.72
0
VERTEX
10
7.89347
20
10.4713
30
8.72
0
VERTEX
10
7.88235
20
10.4755
30
8.72
0
VERTEX
10
7.87122
20
10.4769
30
8.72
0
VERTEX
10
7.86566
20
10.4797
30
8.72
0
VERTEX
10
7.82117
20
10.4699
30
8.72
0
VERTEX
10
7.79892
20
10.4644
30
8.72
0
VERTEX
10
7.79336
20
10.463
30
8.72
0
VERTEX
10
7.7878
20
10.4588
30
8.72
0
VERTEX
10
7.78363
20
10.4477
30
8.72
0
VERTEX
10
7.77389
20
10.4393
30
8.72
0
VERTEX
10
7.76833
20
10.4352
30
8.72
0
VERTEX
10
7.76416
20
10.4241
30
8.72
0
VERTEX
10
7.75026
20
10.4032
30
8.72
0
VERTEX
10
7.74191
20
10.3809
30
8.72
0
VERTEX
10
7.73913
20
10.3698
30
8.72
0
VERTEX
10
7.73635
20
10.3643
30
8.72
0
VERTEX
10
7.73635
20
10.3615
30
8.72
0
VERTEX
10
7.73218
20
10.3559
30
8.72
0
VERTEX
10
7.73079
20
10.3504
30
8.72
0
VERTEX
10
7.73079
20
10.3476
30
8.72
0
VERTEX
10
7.72662
20
10.3434
30
8.72
0
VERTEX
10
7.72245
20
10.3212
30
8.72
0
VERTEX
10
7.72106
20
10.31
30
8.72
0
VERTEX
10
7.72106
20
10.3045
30
8.72
0
VERTEX
10
7.72106
20
10.3017
30
8.72
0
SEQEND
0
POLYLINE
62
236
66
1
70
1
3
postsynaptic_density
0
VERTEX
10
7.2727
20
9.59056
30
8.72
0
VERTEX
10
7.27457
20
9.57563
30
8.72
0
VERTEX
10
7.2783
20
9.56816
30
8.72
0
VERTEX
10
7.2783
20
9.5607
30
8.72
0
VERTEX
10
7.30256
20
9.54017
30
8.72
0
VERTEX
10
7.30816
20
9.53457
30
8.72
0
VERTEX
10
7.36601
20
9.51404
30
8.72
0
VERTEX
10
7.38094
20
9.51218
30
8.72
0
VERTEX
10
7.38467
20
9.51218
30
8.72
0
VERTEX
10
7.38841
20
9.51591
30
8.72
0
VERTEX
10
7.40334
20
9.51778
30
8.72
0
VERTEX
10
7.4108
20
9.51778
30
8.72
0
VERTEX
10
7.41453
20
9.51778
30
8.72
0
VERTEX
10
7.42946
20
9.53084
30
8.72
0
VERTEX
10
7.44066
20
9.54577
30
8.72
0
VERTEX
10
7.44626
20
9.55323
30
8.72
0
VERTEX
10
7.44439
20
9.56816
30
8.72
0
VERTEX
10
7.44066
20
9.57563
30
8.72
0
VERTEX
10
7.43506
20
9.57936
30
8.72
0
VERTEX
10
7.43506
20
9.58309
30
8.72
0
VERTEX
10
7.31562
20
9.63162
30
8.72
0
VERTEX
10
7.30069
20
9.63535
30
8.72
0
VERTEX
10
7.27457
20
9.61669
30
8.72
0
VERTEX
10
7.2727
20
9.60176
30
8.72
0
VERTEX
10
7.2727
20
9.59429
30
8.72
0
VERTEX
10
7.2727
20
9.59242
30
8.72
0
SEQEND
0
POLYLINE
62
227
66
1
70
1
3
endoplasmic_reticulum
0
VERTEX
10
7.55878
20
10.2655
30
8.72
0
VERTEX
10
7.56685
20
10.2511
30
8.72
0
VERTEX
10
7.57312
20
10.2377
30
8.72
0
VERTEX
10
7.57761
20
10.2305
30
8.72
0
VERTEX
10
7.58299
20
10.2251
30
8.72
0
VERTEX
10
7.58568
20
10.2215
30
8.72
0
VERTEX
10
7.58926
20
10.2072
30
8.72
0
VERTEX
10
7.59106
20
10.2
30
8.72
0
VERTEX
10
7.59644
20
10.1946
30
8.72
0
VERTEX
10
7.61078
20
10.1857
30
8.72
0
VERTEX
10
7.62512
20
10.1821
30
8.72
0
VERTEX
10
7.63947
20
10.1803
30
8.72
0
VERTEX
10
7.66816
20
10.1803
30
8.72
0
VERTEX
10
7.6825
20
10.1821
30
8.72
0
VERTEX
10
7.6834
20
10.183
30
8.72
0
VERTEX
10
7.68519
20
10.1821
30
8.72
0
VERTEX
10
7.68788
20
10.1848
30
8.72
0
VERTEX
10
7.68878
20
10.1991
30
8.72
0
VERTEX
10
7.68788
20
10.2135
30
8.72
0
VERTEX
10
7.67981
20
10.2421
30
8.72
0
VERTEX
10
7.67892
20
10.2493
30
8.72
0
VERTEX
10
7.67802
20
10.2529
30
8.72
0
VERTEX
10
7.67802
20
10.2547
30
8.72
0
VERTEX
10
7.67354
20
10.2619
30
8.72
0
VERTEX
10
7.67264
20
10.2628
30
8.72
0
VERTEX
10
7.67443
20
10.2628
30
8.72
0
VERTEX
10
7.67533
20
10.2646
30
8.72
0
VERTEX
10
7.67443
20
10.2663
30
8.72
0
VERTEX
10
7.66726
20
10.2663
30
8.72
0
VERTEX
10
7.66009
20
10.2646
30
8.72
0
VERTEX
10
7.6565
20
10.2646
30
8.72
0
VERTEX
10
7.64933
20
10.2619
30
8.72
0
VERTEX
10
7.64754
20
10.2619
30
8.72
0
VERTEX
10
7.64575
20
10.2601
30
8.72
0
VERTEX
10
7.64216
20
10.2592
30
8.72
0
VERTEX
10
7.64037
20
10.2592
30
8.72
0
VERTEX
10
7.63768
20
10.2556
30
8.72
0
VERTEX
10
7.6314
20
10.252
30
8.72
0
VERTEX
10
7.62781
20
10.2502
30
8.72
0
VERTEX
10
7.62602
20
10.2502
30
8.72
0
VERTEX
10
7.62423
20
10.2484
30
8.72
0
VERTEX
10
7.61706
20
10.2466
30
8.72
0
VERTEX
10
7.61347
20
10.2466
30
8.72
0
VERTEX
10
7.61257
20
10.2484
30
8.72
0
VERTEX
10
7.6054
20
10.2502
30
8.72
0
VERTEX
10
7.60181
20
10.2529
30
8.72
0
VERTEX
10
7.60002
20
10.2529
30
8.72
0
VERTEX
10
7.59733
20
10.2565
30
8.72
0
VERTEX
10
7.59644
20
10.2601
30
8.72
0
VERTEX
10
7.59823
20
10.2672
30
8.72
0
VERTEX
10
7.60361
20
10.2735
30
8.72
0
VERTEX
10
7.6045
20
10.2771
30
8.72
0
VERTEX
10
7.6045
20
10.2789
30
8.72
0
VERTEX
10
7.61347
20
10.2923
30
8.72
0
VERTEX
10
7.61526
20
10.2941
30
8.72
0
VERTEX
10
7.61526
20
10.2959
30
8.72
0
VERTEX
10
7.61885
20
10.2977
30
8.72
0
VERTEX
10
7.61975
20
10.2995
30
8.72
0
VERTEX
10
7.62154
20
10.2995
30
8.72
0
VERTEX
10
7.62692
20
10.3058
30
8.72
0
VERTEX
10
7.62781
20
10.3076
30
8.72
0
VERTEX
10
7.62961
20
10.3076
30
8.72
0
VERTEX
10
7.63409
20
10.3139
30
8.72
0
VERTEX
10
7.63499
20
10.3157
30
8.72
0
VERTEX
10
7.63857
20
10.3157
30
8.72
0
VERTEX
10
7.64216
20
10.313
30
8.72
0
VERTEX
10
7.64395
20
10.3058
30
8.72
0
VERTEX
10
7.64485
20
10.3022
30
8.72
0
VERTEX
10
7.64933
20
10.295
30
8.72
0
VERTEX
10
7.65381
20
10.2897
30
8.72
0
VERTEX
10
7.6565
20
10.2861
30
8.72
0
VERTEX
10
7.66368
20
10.2852
30
8.72
0
VERTEX
10
7.66726
20
10.287
30
8.72
0
VERTEX
10
7.66906
20
10.287
30
8.72
0
VERTEX
10
7.67443
20
10.2932
30
8.72
0
VERTEX
10
7.67533
20
10.2968
30
8.72
0
VERTEX
10
7.6825
20
10.3031
30
8.72
0
VERTEX
10
7.68609
20
10.3076
30
8.72
0
VERTEX
10
7.68609
20
10.3094
30
8.72
0
VERTEX
10
7.68968
20
10.3121
30
8.72
0
VERTEX
10
7.69147
20
10.3192
30
8.72
0
VERTEX
10
7.69057
20
10.3264
30
8.72
0
VERTEX
10
7.68878
20
10.33
30
8.72
0
VERTEX
10
7.68161
20
10.3354
30
8.72
0
VERTEX
10
7.67712
20
10.3417
30
8.72
0
VERTEX
10
7.67892
20
10.3703
30
8.72
0
VERTEX
10
7.67802
20
10.3775
30
8.72
0
VERTEX
10
7.67712
20
10.3766
30
8.72
0
VERTEX
10
7.66995
20
10.3784
30
8.72
0
VERTEX
10
7.66816
20
10.3793
30
8.72
0
VERTEX
10
7.66099
20
10.3757
30
8.72
0
VERTEX
10
7.6574
20
10.373
30
8.72
0
VERTEX
10
7.65561
20
10.3712
30
8.72
0
VERTEX
10
7.64843
20
10.3686
30
8.72
0
VERTEX
10
7.64485
20
10.3677
30
8.72
0
VERTEX
10
7.63768
20
10.3686
30
8.72
0
VERTEX
10
7.6305
20
10.3677
30
8.72
0
VERTEX
10
7.62333
20
10.365
30
8.72
0
VERTEX
10
7.61347
20
10.3533
30
8.72
0
VERTEX
10
7.60988
20
10.3461
30
8.72
0
VERTEX
10
7.60809
20
10.3426
30
8.72
0
VERTEX
10
7.6063
20
10.3417
30
8.72
0
VERTEX
10
7.6054
20
10.3381
30
8.72
0
VERTEX
10
7.59195
20
10.3264
30
8.72
0
VERTEX
10
7.59016
20
10.3246
30
8.72
0
VERTEX
10
7.59016
20
10.3228
30
8.72
0
VERTEX
10
7.58657
20
10.3192
30
8.72
0
VERTEX
10
7.58657
20
10.3157
30
8.72
0
VERTEX
10
7.58388
20
10.3121
30
8.72
0
VERTEX
10
7.58209
20
10.3049
30
8.72
0
VERTEX
10
7.57223
20
10.2932
30
8.72
0
VERTEX
10
7.56506
20
10.2879
30
8.72
0
VERTEX
10
7.56057
20
10.2816
30
8.72
0
VERTEX
10
7.55878
20
10.2744
30
8.72
0
VERTEX
10
7.55878
20
10.2672
30
8.72
0
VERTEX
10
7.55878
20
10.2663
30
8.72
0
SEQEND
0
POLYLINE
62
227
66
1
70
1
3
endoplasmic_reticulum
0
VERTEX
10
8.07967
20
10.174
30
8.72
0
VERTEX
10
8.08147
20
10.1704
30
8.72
0
VERTEX
10
8.08147
20
10.1686
30
8.72
0
VERTEX
10
8.08685
20
10.1632
30
8.72
0
VERTEX
10
8.09043
20
10.1624
30
8.72
0
VERTEX
10
8.10478
20
10.165
30
8.72
0
VERTEX
10
8.10478
20
10.1686
30
8.72
0
VERTEX
10
8.10657
20
10.1722
30
8.72
0
VERTEX
10
8.10657
20
10.174
30
8.72
0
VERTEX
10
8.10926
20
10.1776
30
8.72
0
VERTEX
10
8.11016
20
10.1919
30
8.72
0
VERTEX
10
8.11016
20
10.1991
30
8.72
0
VERTEX
10
8.11016
20
10.2027
30
8.72
0
VERTEX
10
8.11285
20
10.209
30
8.72
0
VERTEX
10
8.11374
20
10.2126
30
8.72
0
VERTEX
10
8.11643
20
10.2161
30
8.72
0
VERTEX
10
8.11733
20
10.2197
30
8.72
0
VERTEX
10
8.12002
20
10.2233
30
8.72
0
VERTEX
10
8.12091
20
10.2242
30
8.72
0
VERTEX
10
8.1236
20
10.2215
30
8.72
0
VERTEX
10
8.12719
20
10.2224
30
8.72
0
VERTEX
10
8.12809
20
10.226
30
8.72
0
VERTEX
10
8.12988
20
10.2278
30
8.72
0
VERTEX
10
8.13078
20
10.2314
30
8.72
0
VERTEX
10
8.13526
20
10.2377
30
8.72
0
VERTEX
10
8.13616
20
10.2412
30
8.72
0
VERTEX
10
8.14243
20
10.2484
30
8.72
0
VERTEX
10
8.14691
20
10.2556
30
8.72
0
VERTEX
10
8.14871
20
10.2574
30
8.72
0
VERTEX
10
8.1514
20
10.2717
30
8.72
0
VERTEX
10
8.1514
20
10.2861
30
8.72
0
VERTEX
10
8.15229
20
10.2932
30
8.72
0
VERTEX
10
8.15319
20
10.2968
30
8.72
0
VERTEX
10
8.15678
20
10.2977
30
8.72
0
VERTEX
10
8.15857
20
10.2977
30
8.72
0
VERTEX
10
8.16216
20
10.295
30
8.72
0
VERTEX
10
8.1765
20
10.295
30
8.72
0
VERTEX
10
8.18367
20
10.2977
30
8.72
0
VERTEX
10
8.18726
20
10.2986
30
8.72
0
VERTEX
10
8.18905
20
10.2986
30
8.72
0
VERTEX
10
8.19174
20
10.3022
30
8.72
0
VERTEX
10
8.19353
20
10.304
30
8.72
0
VERTEX
10
8.19353
20
10.3112
30
8.72
0
VERTEX
10
8.19533
20
10.3148
30
8.72
0
VERTEX
10
8.19443
20
10.3291
30
8.72
0
VERTEX
10
8.19353
20
10.3327
30
8.72
0
VERTEX
10
8.19174
20
10.3345
30
8.72
0
VERTEX
10
8.18278
20
10.3632
30
8.72
0
VERTEX
10
8.18278
20
10.3775
30
8.72
0
VERTEX
10
8.18278
20
10.3847
30
8.72
0
VERTEX
10
8.1774
20
10.399
30
8.72
0
VERTEX
10
8.17381
20
10.4062
30
8.72
0
VERTEX
10
8.16754
20
10.4134
30
8.72
0
VERTEX
10
8.16305
20
10.4179
30
8.72
0
VERTEX
10
8.15678
20
10.4241
30
8.72
0
VERTEX
10
8.14243
20
10.425
30
8.72
0
VERTEX
10
8.13885
20
10.4241
30
8.72
0
VERTEX
10
8.13795
20
10.4223
30
8.72
0
VERTEX
10
8.1236
20
10.4206
30
8.72
0
VERTEX
10
8.12002
20
10.4179
30
8.72
0
VERTEX
10
8.11643
20
10.417
30
8.72
0
VERTEX
10
8.10926
20
10.4125
30
8.72
0
VERTEX
10
8.10657
20
10.4089
30
8.72
0
VERTEX
10
8.10478
20
10.3946
30
8.72
0
VERTEX
10
8.10478
20
10.3802
30
8.72
0
VERTEX
10
8.10478
20
10.373
30
8.72
0
VERTEX
10
8.10478
20
10.3695
30
8.72
0
VERTEX
10
8.10747
20
10.3623
30
8.72
0
VERTEX
10
8.10926
20
10.3605
30
8.72
0
VERTEX
10
8.10926
20
10.3587
30
8.72
0
VERTEX
10
8.11105
20
10.3569
30
8.72
0
VERTEX
10
8.11105
20
10.3551
30
8.72
0
VERTEX
10
8.11285
20
10.3533
30
8.72
0
VERTEX
10
8.11554
20
10.3461
30
8.72
0
VERTEX
10
8.11733
20
10.3443
30
8.72
0
VERTEX
10
8.11464
20
10.3157
30
8.72
0
VERTEX
10
8.11464
20
10.3085
30
8.72
0
VERTEX
10
8.10926
20
10.2798
30
8.72
0
VERTEX
10
8.10836
20
10.2511
30
8.72
0
VERTEX
10
8.10926
20
10.2439
30
8.72
0
VERTEX
10
8.10836
20
10.2368
30
8.72
0
VERTEX
10
8.10836
20
10.235
30
8.72
0
VERTEX
10
8.10298
20
10.2296
30
8.72
0
VERTEX
10
8.10029
20
10.226
30
8.72
0
VERTEX
10
8.0976
20
10.2242
30
8.72
0
VERTEX
10
8.09402
20
10.2206
30
8.72
0
VERTEX
10
8.09223
20
10.2188
30
8.72
0
VERTEX
10
8.09043
20
10.2117
30
8.72
0
VERTEX
10
8.08864
20
10.2099
30
8.72
0
VERTEX
10
8.08685
20
10.2027
30
8.72
0
VERTEX
10
8.08236
20
10.1964
30
8.72
0
VERTEX
10
8.07967
20
10.1821
30
8.72
0
VERTEX
10
8.07967
20
10.1749
30
8.72
0
SEQEND
0
POLYLINE
62
227
66
1
70
1
3
endoplasmic_reticulum
0
VERTEX
10
8.02678
20
10.1785
30
8.72
0
VERTEX
10
8.02947
20
10.1713
30
8.72
0
VERTEX
10
8.03395
20
10.1641
30
8.72
0
VERTEX
10
8.03754
20
10.1624
30
8.72
0
VERTEX
10
8.04471
20
10.1632
30
8.72
0
VERTEX
10
8.04829
20
10.1641
30
8.72
0
VERTEX
10
8.05726
20
10.1776
30
8.72
0
VERTEX
10
8.05995
20
10.1919
30
8.72
0
VERTEX
10
8.06085
20
10.1955
30
8.72
0
VERTEX
10
8.06085
20
10.1973
30
8.72
0
VERTEX
10
8.06443
20
10.2
30
8.72
0
VERTEX
10
8.06712
20
10.2072
30
8.72
0
VERTEX
10
8.06802
20
10.2215
30
8.72
0
VERTEX
10
8.07071
20
10.2359
30
8.72
0
VERTEX
10
8.0734
20
10.243
30
8.72
0
VERTEX
10
8.0734
20
10.2574
30
8.72
0
VERTEX
10
8.07788
20
10.2861
30
8.72
0
VERTEX
10
8.07967
20
10.2932
30
8.72
0
VERTEX
10
8.08147
20
10.2968
30
8.72
0
VERTEX
10
8.08147
20
10.2986
30
8.72
0
VERTEX
10
8.08326
20
10.3004
30
8.72
0
VERTEX
10
8.08505
20
10.3076
30
8.72
0
VERTEX
10
8.08505
20
10.3112
30
8.72
0
VERTEX
10
8.08685
20
10.3148
30
8.72
0
VERTEX
10
8.08774
20
10.3435
30
8.72
0
VERTEX
10
8.08685
20
10.3578
30
8.72
0
VERTEX
10
8.08416
20
10.3721
30
8.72
0
VERTEX
10
8.08416
20
10.3793
30
8.72
0
VERTEX
10
8.08236
20
10.3865
30
8.72
0
VERTEX
10
8.08236
20
10.4008
30
8.72
0
VERTEX
10
8.08236
20
10.408
30
8.72
0
VERTEX
10
8.08147
20
10.4116
30
8.72
0
VERTEX
10
8.08147
20
10.4134
30
8.72
0
VERTEX
10
8.07967
20
10.4143
30
8.72
0
VERTEX
10
8.06533
20
10.4098
30
8.72
0
VERTEX
10
8.05816
20
10.4071
30
8.72
0
VERTEX
10
8.04829
20
10.3937
30
8.72
0
VERTEX
10
8.0456
20
10.3865
30
8.72
0
VERTEX
10
8.04471
20
10.3721
30
8.72
0
VERTEX
10
8.0456
20
10.3435
30
8.72
0
VERTEX
10
8.04829
20
10.3363
30
8.72
0
VERTEX
10
8.04829
20
10.3291
30
8.72
0
VERTEX
10
8.05009
20
10.3219
30
8.72
0
VERTEX
10
8.04919
20
10.2646
30
8.72
0
VERTEX
10
8.04919
20
10.2574
30
8.72
0
VERTEX
10
8.0465
20
10.2439
30
8.72
0
VERTEX
10
8.04381
20
10.2368
30
8.72
0
VERTEX
10
8.04292
20
10.2296
30
8.72
0
VERTEX
10
8.04023
20
10.226
30
8.72
0
VERTEX
10
8.02857
20
10.1973
30
8.72
0
VERTEX
10
8.02678
20
10.1937
30
8.72
0
VERTEX
10
8.02678
20
10.1794
30
8.72
0
SEQEND
0
POLYLINE
62
227
66
1
70
1
3
endoplasmic_reticulum
0
VERTEX
10
8.17291
20
10.0512
30
8.72
0
VERTEX
10
8.17471
20
10.044
30
8.72
0
VERTEX
10
8.17471
20
10.0368
30
8.72
0
VERTEX
10
8.17829
20
10.0332
30
8.72
0
VERTEX
10
8.18457
20
10.0297
30
8.72
0
VERTEX
10
8.19891
20
10.0297
30
8.72
0
VERTEX
10
8.20609
20
10.0297
30
8.72
0
VERTEX
10
8.22043
20
10.0377
30
8.72
0
VERTEX
10
8.22671
20
10.0431
30
8.72
0
VERTEX
10
8.2294
20
10.0575
30
8.72
0
VERTEX
10
8.23926
20
10.0852
30
8.72
0
VERTEX
10
8.23926
20
10.0888
30
8.72
0
VERTEX
10
8.24195
20
10.0951
30
8.72
0
VERTEX
10
8.24464
20
10.0987
30
8.72
0
VERTEX
10
8.24553
20
10.1023
30
8.72
0
VERTEX
10
8.24822
20
10.1059
30
8.72
0
VERTEX
10
8.24912
20
10.113
30
8.72
0
VERTEX
10
8.2554
20
10.1193
30
8.72
0
VERTEX
10
8.26257
20
10.1238
30
8.72
0
VERTEX
10
8.26526
20
10.1274
30
8.72
0
VERTEX
10
8.26526
20
10.1292
30
8.72
0
VERTEX
10
8.27064
20
10.1355
30
8.72
0
VERTEX
10
8.27153
20
10.1426
30
8.72
0
VERTEX
10
8.27064
20
10.1462
30
8.72
0
VERTEX
10
8.26884
20
10.148
30
8.72
0
VERTEX
10
8.26705
20
10.1552
30
8.72
0
VERTEX
10
8.26167
20
10.1624
30
8.72
0
VERTEX
10
8.2545
20
10.1624
30
8.72
0
VERTEX
10
8.22581
20
10.1525
30
8.72
0
VERTEX
10
8.22581
20
10.1489
30
8.72
0
VERTEX
10
8.22671
20
10.148
30
8.72
0
VERTEX
10
8.21953
20
10.1337
30
8.72
0
VERTEX
10
8.21595
20
10.1265
30
8.72
0
VERTEX
10
8.21236
20
10.122
30
8.72
0
VERTEX
10
8.21236
20
10.1202
30
8.72
0
VERTEX
10
8.20967
20
10.1175
30
8.72
0
VERTEX
10
8.20878
20
10.1139
30
8.72
0
VERTEX
10
8.20609
20
10.1104
30
8.72
0
VERTEX
10
8.20609
20
10.1086
30
8.72
0
VERTEX
10
8.2034
20
10.105
30
8.72
0
VERTEX
10
8.2016
20
10.1032
30
8.72
0
VERTEX
10
8.2016
20
10.1014
30
8.72
0
VERTEX
10
8.18995
20
10.0906
30
8.72
0
VERTEX
10
8.18367
20
10.0852
30
8.72
0
VERTEX
10
8.18098
20
10.0817
30
8.72
0
VERTEX
10
8.18009
20
10.0781
30
8.72
0
VERTEX
10
8.17471
20
10.0709
30
8.72
0
VERTEX
10
8.17291
20
10.0637
30
8.72
0
VERTEX
10
8.17291
20
10.0566
30
8.72
0
VERTEX
10
8.17291
20
10.053
30
8.72
0
VERTEX
10
8.17291
20
10.0521
30
8.72
0
SEQEND
0
POLYLINE
62
227
66
1
70
1
3
endoplasmic_reticulum
0
VERTEX
10
7.71119
20
10.1211
30
8.72
0
VERTEX
10
7.71388
20
10.1139
30
8.72
0
VERTEX
10
7.71657
20
10.1121
30
8.72
0
VERTEX
10
7.72285
20
10.1059
30
8.72
0
VERTEX
10
7.72464
20
10.1041
30
8.72
0
VERTEX
10
7.73181
20
10.1014
30
8.72
0
VERTEX
10
7.7354
20
10.0987
30
8.72
0
VERTEX
10
7.73719
20
10.0987
30
8.72
0
VERTEX
10
7.74078
20
10.096
30
8.72
0
VERTEX
10
7.74795
20
10.0951
30
8.72
0
VERTEX
10
7.7623
20
10.0897
30
8.72
0
VERTEX
10
7.76588
20
10.087
30
8.72
0
VERTEX
10
7.77305
20
10.0852
30
8.72
0
VERTEX
10
7.77664
20
10.0852
30
8.72
0
VERTEX
10
7.78381
20
10.0826
30
8.72
0
VERTEX
10
7.79816
20
10.0808
30
8.72
0
VERTEX
10
7.82685
20
10.0817
30
8.72
0
VERTEX
10
7.85554
20
10.0808
30
8.72
0
VERTEX
10
7.86988
20
10.0799
30
8.72
0
VERTEX
10
7.89857
20
10.0808
30
8.72
0
VERTEX
10
7.91292
20
10.0799
30
8.72
0
VERTEX
10
7.92009
20
10.0799
30
8.72
0
VERTEX
10
7.92367
20
10.0781
30
8.72
0
VERTEX
10
7.93085
20
10.0772
30
8.72
0
VERTEX
10
7.93802
20
10.0745
30
8.72
0
VERTEX
10
7.94519
20
10.0745
30
8.72
0
VERTEX
10
7.94698
20
10.0745
30
8.72
0
VERTEX
10
7.94788
20
10.0727
30
8.72
0
VERTEX
10
7.97657
20
10.07
30
8.72
0
VERTEX
10
8.00526
20
10.0709
30
8.72
0
VERTEX
10
8.01243
20
10.0718
30
8.72
0
VERTEX
10
8.01602
20
10.0718
30
8.72
0
VERTEX
10
8.0196
20
10.0736
30
8.72
0
VERTEX
10
8.02319
20
10.0736
30
8.72
0
VERTEX
10
8.03036
20
10.0763
30
8.72
0
VERTEX
10
8.08774
20
10.0772
30
8.72
0
VERTEX
10
8.10209
20
10.0781
30
8.72
0
VERTEX
10
8.10926
20
10.079
30
8.72
0
VERTEX
10
8.11285
20
10.079
30
8.72
0
VERTEX
10
8.11464
20
10.0808
30
8.72
0
VERTEX
10
8.12181
20
10.0808
30
8.72
0
VERTEX
10
8.12898
20
10.0835
30
8.72
0
VERTEX
10
8.13167
20
10.0852
30
8.72
0
VERTEX
10
8.13526
20
10.0852
30
8.72
0
VERTEX
10
8.13885
20
10.087
30
8.72
0
VERTEX
10
8.14243
20
10.087
30
8.72
0
VERTEX
10
8.14422
20
10.087
30
8.72
0
VERTEX
10
8.1496
20
10.0933
30
8.72
0
VERTEX
10
8.1514
20
10.1005
30
8.72
0
VERTEX
10
8.14871
20
10.1148
30
8.72
0
VERTEX
10
8.14512
20
10.1184
30
8.72
0
VERTEX
10
8.14064
20
10.1256
30
8.72
0
VERTEX
10
8.14064
20
10.1274
30
8.72
0
VERTEX
10
8.13526
20
10.1328
30
8.72
0
VERTEX
10
8.12091
20
10.1328
30
8.72
0
VERTEX
10
8.11374
20
10.1292
30
8.72
0
VERTEX
10
8.11016
20
10.1292
30
8.72
0
VERTEX
10
8.10298
20
10.1265
30
8.72
0
VERTEX
10
8.0994
20
10.1256
30
8.72
0
VERTEX
10
8.0976
20
10.1238
30
8.72
0
VERTEX
10
8.09581
20
10.1238
30
8.72
0
VERTEX
10
8.08864
20
10.1193
30
8.72
0
VERTEX
10
8.08685
20
10.1175
30
8.72
0
VERTEX
10
8.0725
20
10.1121
30
8.72
0
VERTEX
10
8.06891
20
10.1104
30
8.72
0
VERTEX
10
8.05457
20
10.1095
30
8.72
0
VERTEX
10
8.04023
20
10.1148
30
8.72
0
VERTEX
10
8.03305
20
10.1184
30
8.72
0
VERTEX
10
8.03126
20
10.1184
30
8.72
0
VERTEX
10
8.03036
20
10.1202
30
8.72
0
VERTEX
10
8.02319
20
10.1211
30
8.72
0
VERTEX
10
8.0196
20
10.122
30
8.72
0
VERTEX
10
8.01781
20
10.1238
30
8.72
0
VERTEX
10
7.98912
20
10.1319
30
8.72
0
VERTEX
10
7.97478
20
10.1328
30
8.72
0
VERTEX
10
7.96761
20
10.1346
30
8.72
0
VERTEX
10
7.93892
20
10.1346
30
8.72
0
VERTEX
10
7.93174
20
10.1337
30
8.72
0
VERTEX
10
7.92995
20
10.1337
30
8.72
0
VERTEX
10
7.92816
20
10.1319
30
8.72
0
VERTEX
10
7.89947
20
10.1256
30
8.72
0
VERTEX
10
7.8923
20
10.1238
30
8.72
0
VERTEX
10
7.88512
20
10.1238
30
8.72
0
VERTEX
10
7.85643
20
10.1193
30
8.72
0
VERTEX
10
7.84209
20
10.1175
30
8.72
0
VERTEX
10
7.83492
20
10.1148
30
8.72
0
VERTEX
10
7.82057
20
10.1157
30
8.72
0
VERTEX
10
7.8134
20
10.1166
30
8.72
0
VERTEX
10
7.80981
20
10.1184
30
8.72
0
VERTEX
10
7.80802
20
10.1202
30
8.72
0
VERTEX
10
7.80085
20
10.1229
30
8.72
0
VERTEX
10
7.79726
20
10.1247
30
8.72
0
VERTEX
10
7.79547
20
10.1247
30
8.72
0
VERTEX
10
7.76947
20
10.1435
30
8.72
0
VERTEX
10
7.75512
20
10.1516
30
8.72
0
VERTEX
10
7.74885
20
10.157
30
8.72
0
VERTEX
10
7.74168
20
10.1597
30
8.72
0
VERTEX
10
7.73809
20
10.1597
30
8.72
0
VERTEX
10
7.7363
20
10.1597
30
8.72
0
VERTEX
10
7.7354
20
10.1579
30
8.72
0
VERTEX
10
7.72823
20
10.157
30
8.72
0
VERTEX
10
7.72554
20
10.1543
30
8.72
0
VERTEX
10
7.71837
20
10.1516
30
8.72
0
VERTEX
10
7.71209
20
10.1471
30
8.72
0
VERTEX
10
7.71119
20
10.1328
30
8.72
0
VERTEX
10
7.71119
20
10.1256
30
8.72
0
VERTEX
10
7.71119
20
10.122
30
8.72
0
SEQEND
0
POLYLINE
62
227
66
1
70
1
3
endoplasmic_reticulum
0
VERTEX
10
7.35557
20
9.70432
30
8.72
0
VERTEX
10
7.35732
20
9.69733
30
8.72
0
VERTEX
10
7.35906
20
9.69383
30
8.72
0
VERTEX
10
7.37304
20
9.69383
30
8.72
0
VERTEX
10
7.401
20
9.70432
30
8.72
0
VERTEX
10
7.41499
20
9.7148
30
8.72
0
VERTEX
10
7.41848
20
9.7148
30
8.72
0
VERTEX
10
7.42722
20
9.72878
30
8.72
0
VERTEX
10
7.42897
20
9.74276
30
8.72
0
VERTEX
10
7.42722
20
9.74975
30
8.72
0
VERTEX
10
7.42198
20
9.75674
30
8.72
0
VERTEX
10
7.408
20
9.76024
30
8.72
0
VERTEX
10
7.38003
20
9.75849
30
8.72
0
VERTEX
10
7.3713
20
9.74626
30
8.72
0
VERTEX
10
7.3678
20
9.74276
30
8.72
0
VERTEX
10
7.36256
20
9.72878
30
8.72
0
VERTEX
10
7.36256
20
9.72179
30
8.72
0
VERTEX
10
7.35906
20
9.7148
30
8.72
0
VERTEX
10
7.35906
20
9.71131
30
8.72
0
VERTEX
10
7.35557
20
9.70956
30
8.72
0
VERTEX
10
7.35557
20
9.70606
30
8.72
0
SEQEND
0
POLYLINE
62
236
66
1
70
1
3
postsynaptic_density
0
VERTEX
10
7.25309
20
9.52057
30
8.72
0
VERTEX
10
7.25512
20
9.51513
30
8.72
0
VERTEX
10
7.2592
20
9.51105
30
8.72
0
VERTEX
10
7.26464
20
9.50629
30
8.72
0
VERTEX
10
7.26736
20
9.50629
30
8.72
0
VERTEX
10
7.2728
20
9.50357
30
8.72
0
VERTEX
10
7.27552
20
9.50222
30
8.72
0
VERTEX
10
7.27688
20
9.50086
30
8.72
0
VERTEX
10
7.28775
20
9.49882
30
8.72
0
VERTEX
10
7.29047
20
9.49882
30
8.72
0
VERTEX
10
7.29591
20
9.49678
30
8.72
0
VERTEX
10
7.29727
20
9.49542
30
8.72
0
VERTEX
10
7.3027
20
9.49338
30
8.72
0
VERTEX
10
7.30814
20
9.4927
30
8.72
0
VERTEX
10
7.31086
20
9.49474
30
8.72
0
VERTEX
10
7.31358
20
9.49542
30
8.72
0
VERTEX
10
7.31902
20
9.49406
30
8.72
0
VERTEX
10
7.32921
20
9.48794
30
8.72
0
VERTEX
10
7.33465
20
9.4859
30
8.72
0
VERTEX
10
7.33601
20
9.48454
30
8.72
0
VERTEX
10
7.34688
20
9.48114
30
8.72
0
VERTEX
10
7.35232
20
9.47911
30
8.72
0
VERTEX
10
7.3632
20
9.47707
30
8.72
0
VERTEX
10
7.36863
20
9.47639
30
8.72
0
VERTEX
10
7.37135
20
9.47639
30
8.72
0
VERTEX
10
7.37407
20
9.47843
30
8.72
0
VERTEX
10
7.37475
20
9.48114
30
8.72
0
VERTEX
10
7.37951
20
9.48386
30
8.72
0
VERTEX
10
7.38495
20
9.48386
30
8.72
0
VERTEX
10
7.38767
20
9.48454
30
8.72
0
VERTEX
10
7.39039
20
9.48658
30
8.72
0
VERTEX
10
7.40126
20
9.4893
30
8.72
0
VERTEX
10
7.4067
20
9.49202
30
8.72
0
VERTEX
10
7.41214
20
9.4961
30
8.72
0
VERTEX
10
7.41689
20
9.50154
30
8.72
0
VERTEX
10
7.41825
20
9.50425
30
8.72
0
VERTEX
10
7.41961
20
9.50561
30
8.72
0
VERTEX
10
7.41961
20
9.50697
30
8.72
0
VERTEX
10
7.42369
20
9.51173
30
8.72
0
VERTEX
10
7.42437
20
9.51445
30
8.72
0
VERTEX
10
7.42641
20
9.51717
30
8.72
0
VERTEX
10
7.42709
20
9.52261
30
8.72
0
VERTEX
10
7.42709
20
9.52397
30
8.72
0
VERTEX
10
7.42437
20
9.526
30
8.72
0
VERTEX
10
7.42301
20
9.526
30
8.72
0
VERTEX
10
7.42301
20
9.53144
30
8.72
0
VERTEX
10
7.42437
20
9.53688
30
8.72
0
VERTEX
10
7.43049
20
9.54775
30
8.72
0
VERTEX
10
7.43185
20
9.55319
30
8.72
0
VERTEX
10
7.43321
20
9.55591
30
8.72
0
VERTEX
10
7.43321
20
9.56135
30
8.72
0
VERTEX
10
7.43728
20
9.57222
30
8.72
0
VERTEX
10
7.43864
20
9.57766
30
8.72
0
VERTEX
10
7.43864
20
9.58038
30
8.72
0
VERTEX
10
7.44476
20
9.59126
30
8.72
0
VERTEX
10
7.44748
20
9.59669
30
8.72
0
VERTEX
10
7.44884
20
9.59941
30
8.72
0
VERTEX
10
7.45088
20
9.60077
30
8.72
0
VERTEX
10
7.45224
20
9.59941
30
8.72
0
VERTEX
10
7.45496
20
9.59941
30
8.72
0
VERTEX
10
7.457
20
9.60485
30
8.72
0
VERTEX
10
7.457
20
9.60757
30
8.72
0
VERTEX
10
7.45971
20
9.61097
30
8.72
0
VERTEX
10
7.46719
20
9.63272
30
8.72
0
VERTEX
10
7.46787
20
9.63816
30
8.72
0
VERTEX
10
7.46719
20
9.64087
30
8.72
0
VERTEX
10
7.38019
20
9.66738
30
8.72
0
VERTEX
10
7.33669
20
9.68098
30
8.72
0
VERTEX
10
7.32581
20
9.68437
30
8.72
0
VERTEX
10
7.32038
20
9.68573
30
8.72
0
VERTEX
10
7.31766
20
9.68709
30
8.72
0
VERTEX
10
7.31222
20
9.68505
30
8.72
0
VERTEX
10
7.30678
20
9.6803
30
8.72
0
VERTEX
10
7.30134
20
9.6769
30
8.72
0
VERTEX
10
7.29998
20
9.67554
30
8.72
0
VERTEX
10
7.29727
20
9.67486
30
8.72
0
VERTEX
10
7.29319
20
9.66942
30
8.72
0
VERTEX
10
7.29115
20
9.6667
30
8.72
0
VERTEX
10
7.28911
20
9.66126
30
8.72
0
VERTEX
10
7.28911
20
9.65855
30
8.72
0
VERTEX
10
7.28571
20
9.65311
30
8.72
0
VERTEX
10
7.28095
20
9.64835
30
8.72
0
VERTEX
10
7.28027
20
9.64563
30
8.72
0
VERTEX
10
7.27484
20
9.64087
30
8.72
0
VERTEX
10
7.27076
20
9.63
30
8.72
0
VERTEX
10
7.26872
20
9.61912
30
8.72
0
VERTEX
10
7.26804
20
9.60825
30
8.72
0
VERTEX
10
7.266
20
9.59737
30
8.72
0
VERTEX
10
7.26056
20
9.59126
30
8.72
0
VERTEX
10
7.26056
20
9.58582
30
8.72
0
VERTEX
10
7.26192
20
9.58446
30
8.72
0
VERTEX
10
7.26192
20
9.58174
30
8.72
0
VERTEX
10
7.26532
20
9.5763
30
8.72
0
VERTEX
10
7.26532
20
9.56543
30
8.72
0
VERTEX
10
7.26396
20
9.55999
30
8.72
0
VERTEX
10
7.26056
20
9.55455
30
8.72
0
VERTEX
10
7.2592
20
9.54911
30
8.72
0
VERTEX
10
7.25988
20
9.54368
30
8.72
0
VERTEX
10
7.26056
20
9.54164
30
8.72
0
VERTEX
10
7.2558
20
9.53076
30
8.72
0
VERTEX
10
7.25444
20
9.52804
30
8.72
0
VERTEX
10
7.25309
20
9.52668
30
8.72
0
VERTEX
10
7.25309
20
9.52125
30
8.72
0
SEQEND
0
ENDSEC
0
EOF
