0
SECTION
2
ENTITIES
0
POLYLINE
62
31
66
1
70
1
3
contour
0
VERTEX
10
7.54509
20
10.3334
30
8.84
0
VERTEX
10
7.55168
20
10.3202
30
8.84
0
VERTEX
10
7.55497
20
10.2675
30
8.84
0
VERTEX
10
7.55826
20
10.2412
30
8.84
0
VERTEX
10
7.57801
20
10.1885
30
8.84
0
VERTEX
10
7.5846
20
10.1622
30
8.84
0
VERTEX
10
7.59118
20
10.1589
30
8.84
0
VERTEX
10
7.59118
20
10.1523
30
8.84
0
VERTEX
10
7.60764
20
10.126
30
8.84
0
VERTEX
10
7.62081
20
10.1161
30
8.84
0
VERTEX
10
7.67348
20
10.1128
30
8.84
0
VERTEX
10
7.72615
20
10.1029
30
8.84
0
VERTEX
10
7.73273
20
10.0963
30
8.84
0
VERTEX
10
7.7459
20
10.0963
30
8.84
0
VERTEX
10
7.75907
20
10.0898
30
8.84
0
VERTEX
10
7.77224
20
10.0898
30
8.84
0
VERTEX
10
7.77882
20
10.0832
30
8.84
0
VERTEX
10
7.80516
20
10.0766
30
8.84
0
VERTEX
10
7.83149
20
10.0766
30
8.84
0
VERTEX
10
7.85783
20
10.07
30
8.84
0
VERTEX
10
7.86112
20
10.0634
30
8.84
0
VERTEX
10
7.8677
20
10.0634
30
8.84
0
VERTEX
10
7.89404
20
10.047
30
8.84
0
VERTEX
10
7.92037
20
10.0404
30
8.84
0
VERTEX
10
7.94671
20
10.0272
30
8.84
0
VERTEX
10
7.96646
20
10.0075
30
8.84
0
VERTEX
10
7.97963
20
9.99758
30
8.84
0
VERTEX
10
7.9928
20
9.99429
30
8.84
0
VERTEX
10
7.99938
20
9.99429
30
8.84
0
VERTEX
10
8.00267
20
9.9877
30
8.84
0
VERTEX
10
8.01584
20
9.98441
30
8.84
0
VERTEX
10
8.04217
20
9.96795
30
8.84
0
VERTEX
10
8.06851
20
9.95807
30
8.84
0
VERTEX
10
8.12118
20
9.95807
30
8.84
0
VERTEX
10
8.13764
20
9.97124
30
8.84
0
VERTEX
10
8.15081
20
9.97453
30
8.84
0
VERTEX
10
8.17056
20
10.0009
30
8.84
0
VERTEX
10
8.17714
20
10.0272
30
8.84
0
VERTEX
10
8.18373
20
10.0338
30
8.84
0
VERTEX
10
8.18702
20
10.047
30
8.84
0
VERTEX
10
8.19689
20
10.0601
30
8.84
0
VERTEX
10
8.21335
20
10.1128
30
8.84
0
VERTEX
10
8.21335
20
10.1391
30
8.84
0
VERTEX
10
8.22323
20
10.1622
30
8.84
0
VERTEX
10
8.22323
20
10.1753
30
8.84
0
VERTEX
10
8.2364
20
10.2017
30
8.84
0
VERTEX
10
8.24298
20
10.2543
30
8.84
0
VERTEX
10
8.24627
20
10.2807
30
8.84
0
VERTEX
10
8.24298
20
10.3334
30
8.84
0
VERTEX
10
8.24298
20
10.3597
30
8.84
0
VERTEX
10
8.25286
20
10.3729
30
8.84
0
VERTEX
10
8.25286
20
10.3794
30
8.84
0
VERTEX
10
8.25944
20
10.386
30
8.84
0
VERTEX
10
8.25944
20
10.3926
30
8.84
0
VERTEX
10
8.28578
20
10.4091
30
8.84
0
VERTEX
10
8.29894
20
10.4189
30
8.84
0
VERTEX
10
8.31211
20
10.4189
30
8.84
0
VERTEX
10
8.33516
20
10.4387
30
8.84
0
VERTEX
10
8.34503
20
10.4486
30
8.84
0
VERTEX
10
8.34832
20
10.4749
30
8.84
0
VERTEX
10
8.35162
20
10.4881
30
8.84
0
VERTEX
10
8.36149
20
10.5012
30
8.84
0
VERTEX
10
8.36478
20
10.5078
30
8.84
0
VERTEX
10
8.34832
20
10.5309
30
8.84
0
VERTEX
10
8.32199
20
10.5539
30
8.84
0
VERTEX
10
8.28248
20
10.5967
30
8.84
0
VERTEX
10
8.25615
20
10.6461
30
8.84
0
VERTEX
10
8.24957
20
10.6593
30
8.84
0
VERTEX
10
8.24957
20
10.6658
30
8.84
0
VERTEX
10
8.2364
20
10.6724
30
8.84
0
VERTEX
10
8.18373
20
10.6691
30
8.84
0
VERTEX
10
8.15739
20
10.6593
30
8.84
0
VERTEX
10
8.14422
20
10.6527
30
8.84
0
VERTEX
10
8.13764
20
10.6527
30
8.84
0
VERTEX
10
8.13106
20
10.6461
30
8.84
0
VERTEX
10
8.10472
20
10.6395
30
8.84
0
VERTEX
10
7.99938
20
10.6362
30
8.84
0
VERTEX
10
7.94671
20
10.6494
30
8.84
0
VERTEX
10
7.92037
20
10.6593
30
8.84
0
VERTEX
10
7.89404
20
10.6757
30
8.84
0
VERTEX
10
7.88416
20
10.6856
30
8.84
0
VERTEX
10
7.85783
20
10.6889
30
8.84
0
VERTEX
10
7.84466
20
10.6922
30
8.84
0
VERTEX
10
7.83807
20
10.6955
30
8.84
0
VERTEX
10
7.81174
20
10.6823
30
8.84
0
VERTEX
10
7.79857
20
10.6724
30
8.84
0
VERTEX
10
7.79528
20
10.6593
30
8.84
0
VERTEX
10
7.7854
20
10.6494
30
8.84
0
VERTEX
10
7.75907
20
10.6395
30
8.84
0
VERTEX
10
7.73603
20
10.6428
30
8.84
0
VERTEX
10
7.72944
20
10.6362
30
8.84
0
VERTEX
10
7.70311
20
10.6329
30
8.84
0
VERTEX
10
7.68994
20
10.6263
30
8.84
0
VERTEX
10
7.63727
20
10.6165
30
8.84
0
VERTEX
10
7.63068
20
10.6165
30
8.84
0
VERTEX
10
7.61422
20
10.5901
30
8.84
0
VERTEX
10
7.61422
20
10.577
30
8.84
0
VERTEX
10
7.60106
20
10.5506
30
8.84
0
VERTEX
10
7.59776
20
10.5375
30
8.84
0
VERTEX
10
7.56485
20
10.4848
30
8.84
0
VERTEX
10
7.55168
20
10.3794
30
8.84
0
VERTEX
10
7.54509
20
10.3663
30
8.84
0
VERTEX
10
7.54509
20
10.3399
30
8.84
0
VERTEX
10
7.54509
20
10.3366
30
8.84
0
SEQEND
0
POLYLINE
62
31
66
1
70
1
3
contour
0
VERTEX
10
7.33775
20
9.64487
30
8.84
0
VERTEX
10
7.34116
20
9.64146
30
8.84
0
VERTEX
10
7.34799
20
9.63975
30
8.84
0
VERTEX
10
7.35652
20
9.62781
30
8.84
0
VERTEX
10
7.35993
20
9.62781
30
8.84
0
VERTEX
10
7.37529
20
9.61415
30
8.84
0
VERTEX
10
7.40259
20
9.60221
30
8.84
0
VERTEX
10
7.42989
20
9.6005
30
8.84
0
VERTEX
10
7.44355
20
9.6005
30
8.84
0
VERTEX
10
7.45037
20
9.60392
30
8.84
0
VERTEX
10
7.4572
20
9.60392
30
8.84
0
VERTEX
10
7.46914
20
9.61074
30
8.84
0
VERTEX
10
7.47256
20
9.61074
30
8.84
0
VERTEX
10
7.48621
20
9.62098
30
8.84
0
VERTEX
10
7.48962
20
9.63463
30
8.84
0
VERTEX
10
7.48962
20
9.66193
30
8.84
0
VERTEX
10
7.48621
20
9.68924
30
8.84
0
VERTEX
10
7.4845
20
9.69606
30
8.84
0
VERTEX
10
7.46232
20
9.71825
30
8.84
0
VERTEX
10
7.44867
20
9.71995
30
8.84
0
VERTEX
10
7.44184
20
9.71825
30
8.84
0
VERTEX
10
7.42819
20
9.72166
30
8.84
0
VERTEX
10
7.40089
20
9.72166
30
8.84
0
VERTEX
10
7.38723
20
9.71995
30
8.84
0
VERTEX
10
7.38041
20
9.71825
30
8.84
0
VERTEX
10
7.3787
20
9.71142
30
8.84
0
VERTEX
10
7.3531
20
9.69436
30
8.84
0
VERTEX
10
7.34969
20
9.69094
30
8.84
0
VERTEX
10
7.34969
20
9.68412
30
8.84
0
VERTEX
10
7.34457
20
9.67729
30
8.84
0
VERTEX
10
7.33775
20
9.64999
30
8.84
0
VERTEX
10
7.33775
20
9.64658
30
8.84
0
SEQEND
0
POLYLINE
62
224
66
1
70
1
3
mitochondrion
0
VERTEX
10
7.68769
20
10.3323
30
8.84
0
VERTEX
10
7.69047
20
10.31
30
8.84
0
VERTEX
10
7.69881
20
10.2878
30
8.84
0
VERTEX
10
7.7002
20
10.2655
30
8.84
0
VERTEX
10
7.70159
20
10.26
30
8.84
0
VERTEX
10
7.70854
20
10.2489
30
8.84
0
VERTEX
10
7.71132
20
10.2461
30
8.84
0
VERTEX
10
7.70993
20
10.2405
30
8.84
0
VERTEX
10
7.72801
20
10.2211
30
8.84
0
VERTEX
10
7.73913
20
10.2127
30
8.84
0
VERTEX
10
7.74469
20
10.2099
30
8.84
0
VERTEX
10
7.74748
20
10.2099
30
8.84
0
VERTEX
10
7.75721
20
10.1988
30
8.84
0
VERTEX
10
7.76833
20
10.1946
30
8.84
0
VERTEX
10
7.77946
20
10.1932
30
8.84
0
VERTEX
10
7.86844
20
10.2002
30
8.84
0
VERTEX
10
7.89069
20
10.2016
30
8.84
0
VERTEX
10
7.90181
20
10.2044
30
8.84
0
VERTEX
10
7.91294
20
10.2141
30
8.84
0
VERTEX
10
7.91572
20
10.2141
30
8.84
0
VERTEX
10
7.93518
20
10.2336
30
8.84
0
VERTEX
10
7.94353
20
10.2447
30
8.84
0
VERTEX
10
7.94909
20
10.2489
30
8.84
0
VERTEX
10
7.96299
20
10.2711
30
8.84
0
VERTEX
10
7.96855
20
10.2822
30
8.84
0
VERTEX
10
7.97412
20
10.3045
30
8.84
0
VERTEX
10
7.97551
20
10.349
30
8.84
0
VERTEX
10
7.97133
20
10.3935
30
8.84
0
VERTEX
10
7.97133
20
10.4046
30
8.84
0
VERTEX
10
7.96855
20
10.406
30
8.84
0
VERTEX
10
7.96716
20
10.4282
30
8.84
0
VERTEX
10
7.9616
20
10.4505
30
8.84
0
VERTEX
10
7.96021
20
10.456
30
8.84
0
VERTEX
10
7.95604
20
10.4616
30
8.84
0
VERTEX
10
7.95465
20
10.4672
30
8.84
0
VERTEX
10
7.95187
20
10.4699
30
8.84
0
VERTEX
10
7.9477
20
10.4811
30
8.84
0
VERTEX
10
7.94214
20
10.4866
30
8.84
0
VERTEX
10
7.94214
20
10.4894
30
8.84
0
VERTEX
10
7.92128
20
10.5089
30
8.84
0
VERTEX
10
7.91155
20
10.5186
30
8.84
0
VERTEX
10
7.90042
20
10.5172
30
8.84
0
VERTEX
10
7.89486
20
10.5158
30
8.84
0
VERTEX
10
7.8893
20
10.5172
30
8.84
0
VERTEX
10
7.88652
20
10.52
30
8.84
0
VERTEX
10
7.88096
20
10.52
30
8.84
0
VERTEX
10
7.85871
20
10.5269
30
8.84
0
VERTEX
10
7.84759
20
10.5269
30
8.84
0
VERTEX
10
7.84202
20
10.5269
30
8.84
0
VERTEX
10
7.83924
20
10.5297
30
8.84
0
VERTEX
10
7.82812
20
10.5297
30
8.84
0
VERTEX
10
7.78363
20
10.5214
30
8.84
0
VERTEX
10
7.77806
20
10.5214
30
8.84
0
VERTEX
10
7.76694
20
10.5172
30
8.84
0
VERTEX
10
7.76138
20
10.513
30
8.84
0
VERTEX
10
7.75026
20
10.5089
30
8.84
0
VERTEX
10
7.73913
20
10.5089
30
8.84
0
VERTEX
10
7.73635
20
10.5075
30
8.84
0
VERTEX
10
7.73357
20
10.5089
30
8.84
0
VERTEX
10
7.72523
20
10.5019
30
8.84
0
VERTEX
10
7.72245
20
10.4964
30
8.84
0
VERTEX
10
7.72245
20
10.4936
30
8.84
0
VERTEX
10
7.71967
20
10.4922
30
8.84
0
VERTEX
10
7.71967
20
10.4866
30
8.84
0
VERTEX
10
7.71689
20
10.4811
30
8.84
0
VERTEX
10
7.71411
20
10.4783
30
8.84
0
VERTEX
10
7.71271
20
10.4672
30
8.84
0
VERTEX
10
7.71132
20
10.4616
30
8.84
0
VERTEX
10
7.70715
20
10.456
30
8.84
0
VERTEX
10
7.70576
20
10.4505
30
8.84
0
VERTEX
10
7.70159
20
10.4449
30
8.84
0
VERTEX
10
7.70159
20
10.4421
30
8.84
0
VERTEX
10
7.69464
20
10.431
30
8.84
0
VERTEX
10
7.69047
20
10.4254
30
8.84
0
VERTEX
10
7.68769
20
10.3365
30
8.84
0
VERTEX
10
7.68769
20
10.3337
30
8.84
0
SEQEND
0
POLYLINE
62
227
66
1
70
1
3
endoplasmic_reticulum
0
VERTEX
10
7.56506
20
10.3148
30
8.84
0
VERTEX
10
7.56685
20
10.3076
30
8.84
0
VERTEX
10
7.56685
20
10.304
30
8.84
0
VERTEX
10
7.57223
20
10.2897
30
8.84
0
VERTEX
10
7.57492
20
10.261
30
8.84
0
VERTEX
10
7.57581
20
10.2466
30
8.84
0
VERTEX
10
7.5803
20
10.2403
30
8.84
0
VERTEX
10
7.58299
20
10.2368
30
8.84
0
VERTEX
10
7.58747
20
10.2323
30
8.84
0
VERTEX
10
7.59195
20
10.226
30
8.84
0
VERTEX
10
7.59464
20
10.2188
30
8.84
0
VERTEX
10
7.59644
20
10.2152
30
8.84
0
VERTEX
10
7.59733
20
10.2009
30
8.84
0
VERTEX
10
7.59912
20
10.2
30
8.84
0
VERTEX
10
7.60002
20
10.1964
30
8.84
0
VERTEX
10
7.6054
20
10.1892
30
8.84
0
VERTEX
10
7.61168
20
10.1848
30
8.84
0
VERTEX
10
7.61526
20
10.1812
30
8.84
0
VERTEX
10
7.61706
20
10.1812
30
8.84
0
VERTEX
10
7.62154
20
10.1758
30
8.84
0
VERTEX
10
7.63499
20
10.1659
30
8.84
0
VERTEX
10
7.64126
20
10.1615
30
8.84
0
VERTEX
10
7.64306
20
10.1615
30
8.84
0
VERTEX
10
7.65023
20
10.1561
30
8.84
0
VERTEX
10
7.65381
20
10.1525
30
8.84
0
VERTEX
10
7.66099
20
10.1507
30
8.84
0
VERTEX
10
7.67354
20
10.139
30
8.84
0
VERTEX
10
7.67712
20
10.1372
30
8.84
0
VERTEX
10
7.67892
20
10.1355
30
8.84
0
VERTEX
10
7.68609
20
10.1346
30
8.84
0
VERTEX
10
7.68968
20
10.1346
30
8.84
0
VERTEX
10
7.69147
20
10.1328
30
8.84
0
VERTEX
10
7.69864
20
10.131
30
8.84
0
VERTEX
10
7.70581
20
10.131
30
8.84
0
VERTEX
10
7.71299
20
10.1355
30
8.84
0
VERTEX
10
7.71657
20
10.139
30
8.84
0
VERTEX
10
7.71747
20
10.1426
30
8.84
0
VERTEX
10
7.71926
20
10.1435
30
8.84
0
VERTEX
10
7.71837
20
10.1507
30
8.84
0
VERTEX
10
7.71837
20
10.1543
30
8.84
0
VERTEX
10
7.71837
20
10.1561
30
8.84
0
VERTEX
10
7.71657
20
10.1579
30
8.84
0
VERTEX
10
7.71478
20
10.165
30
8.84
0
VERTEX
10
7.7094
20
10.1713
30
8.84
0
VERTEX
10
7.70223
20
10.1767
30
8.84
0
VERTEX
10
7.69954
20
10.1785
30
8.84
0
VERTEX
10
7.69774
20
10.1821
30
8.84
0
VERTEX
10
7.69057
20
10.1875
30
8.84
0
VERTEX
10
7.68699
20
10.1892
30
8.84
0
VERTEX
10
7.6825
20
10.1964
30
8.84
0
VERTEX
10
7.67981
20
10.2
30
8.84
0
VERTEX
10
7.67623
20
10.2009
30
8.84
0
VERTEX
10
7.67354
20
10.2036
30
8.84
0
VERTEX
10
7.66995
20
10.2045
30
8.84
0
VERTEX
10
7.66547
20
10.2117
30
8.84
0
VERTEX
10
7.66278
20
10.2179
30
8.84
0
VERTEX
10
7.66009
20
10.2206
30
8.84
0
VERTEX
10
7.65919
20
10.2242
30
8.84
0
VERTEX
10
7.65919
20
10.226
30
8.84
0
VERTEX
10
7.6574
20
10.2269
30
8.84
0
VERTEX
10
7.6565
20
10.2305
30
8.84
0
VERTEX
10
7.65112
20
10.2359
30
8.84
0
VERTEX
10
7.65023
20
10.2395
30
8.84
0
VERTEX
10
7.64485
20
10.2466
30
8.84
0
VERTEX
10
7.63857
20
10.252
30
8.84
0
VERTEX
10
7.62423
20
10.2565
30
8.84
0
VERTEX
10
7.61706
20
10.261
30
8.84
0
VERTEX
10
7.61526
20
10.2628
30
8.84
0
VERTEX
10
7.61437
20
10.2663
30
8.84
0
VERTEX
10
7.61168
20
10.2699
30
8.84
0
VERTEX
10
7.60988
20
10.2771
30
8.84
0
VERTEX
10
7.60988
20
10.2843
30
8.84
0
VERTEX
10
7.61168
20
10.2915
30
8.84
0
VERTEX
10
7.61168
20
10.3058
30
8.84
0
VERTEX
10
7.61526
20
10.3201
30
8.84
0
VERTEX
10
7.62154
20
10.3345
30
8.84
0
VERTEX
10
7.62423
20
10.3417
30
8.84
0
VERTEX
10
7.62423
20
10.356
30
8.84
0
VERTEX
10
7.61885
20
10.3632
30
8.84
0
VERTEX
10
7.61885
20
10.3668
30
8.84
0
VERTEX
10
7.61526
20
10.3686
30
8.84
0
VERTEX
10
7.61347
20
10.3721
30
8.84
0
VERTEX
10
7.60988
20
10.3757
30
8.84
0
VERTEX
10
7.6054
20
10.382
30
8.84
0
VERTEX
10
7.60181
20
10.3847
30
8.84
0
VERTEX
10
7.60092
20
10.3883
30
8.84
0
VERTEX
10
7.59375
20
10.3838
30
8.84
0
VERTEX
10
7.59016
20
10.3811
30
8.84
0
VERTEX
10
7.57581
20
10.3766
30
8.84
0
VERTEX
10
7.56506
20
10.3632
30
8.84
0
VERTEX
10
7.56506
20
10.3345
30
8.84
0
VERTEX
10
7.56506
20
10.3201
30
8.84
0
VERTEX
10
7.56506
20
10.3166
30
8.84
0
VERTEX
10
7.56506
20
10.3157
30
8.84
0
SEQEND
0
POLYLINE
62
227
66
1
70
1
3
endoplasmic_reticulum
0
VERTEX
10
7.61975
20
10.4681
30
8.84
0
VERTEX
10
7.62512
20
10.4618
30
8.84
0
VERTEX
10
7.62871
20
10.4582
30
8.84
0
VERTEX
10
7.6314
20
10.4564
30
8.84
0
VERTEX
10
7.63499
20
10.4528
30
8.84
0
VERTEX
10
7.64933
20
10.4483
30
8.84
0
VERTEX
10
7.6565
20
10.4475
30
8.84
0
VERTEX
10
7.66368
20
10.4501
30
8.84
0
VERTEX
10
7.66637
20
10.4537
30
8.84
0
VERTEX
10
7.67354
20
10.4582
30
8.84
0
VERTEX
10
7.67712
20
10.4609
30
8.84
0
VERTEX
10
7.67802
20
10.4645
30
8.84
0
VERTEX
10
7.68071
20
10.4672
30
8.84
0
VERTEX
10
7.68161
20
10.4743
30
8.84
0
VERTEX
10
7.68071
20
10.4815
30
8.84
0
VERTEX
10
7.67623
20
10.4959
30
8.84
0
VERTEX
10
7.67264
20
10.503
30
8.84
0
VERTEX
10
7.67085
20
10.5048
30
8.84
0
VERTEX
10
7.66906
20
10.5048
30
8.84
0
VERTEX
10
7.66278
20
10.512
30
8.84
0
VERTEX
10
7.66099
20
10.5138
30
8.84
0
VERTEX
10
7.6574
20
10.512
30
8.84
0
VERTEX
10
7.65381
20
10.512
30
8.84
0
VERTEX
10
7.65023
20
10.5102
30
8.84
0
VERTEX
10
7.64664
20
10.5102
30
8.84
0
VERTEX
10
7.64306
20
10.5084
30
8.84
0
VERTEX
10
7.64126
20
10.5084
30
8.84
0
VERTEX
10
7.63947
20
10.5066
30
8.84
0
VERTEX
10
7.6323
20
10.5039
30
8.84
0
VERTEX
10
7.6305
20
10.5039
30
8.84
0
VERTEX
10
7.62692
20
10.5012
30
8.84
0
VERTEX
10
7.62512
20
10.4995
30
8.84
0
VERTEX
10
7.62333
20
10.4923
30
8.84
0
VERTEX
10
7.62244
20
10.4887
30
8.84
0
VERTEX
10
7.61975
20
10.486
30
8.84
0
VERTEX
10
7.61975
20
10.4717
30
8.84
0
VERTEX
10
7.61975
20
10.469
30
8.84
0
SEQEND
0
POLYLINE
62
227
66
1
70
1
3
endoplasmic_reticulum
0
VERTEX
10
8.0474
20
10.2126
30
8.84
0
VERTEX
10
8.04829
20
10.2054
30
8.84
0
VERTEX
10
8.05009
20
10.2018
30
8.84
0
VERTEX
10
8.05009
20
10.1982
30
8.84
0
VERTEX
10
8.05367
20
10.1964
30
8.84
0
VERTEX
10
8.06802
20
10.1973
30
8.84
0
VERTEX
10
8.0716
20
10.1982
30
8.84
0
VERTEX
10
8.07788
20
10.2054
30
8.84
0
VERTEX
10
8.08057
20
10.2081
30
8.84
0
VERTEX
10
8.08505
20
10.2224
30
8.84
0
VERTEX
10
8.08505
20
10.226
30
8.84
0
VERTEX
10
8.08685
20
10.2296
30
8.84
0
VERTEX
10
8.08685
20
10.2368
30
8.84
0
VERTEX
10
8.08774
20
10.2403
30
8.84
0
VERTEX
10
8.09312
20
10.2448
30
8.84
0
VERTEX
10
8.0976
20
10.252
30
8.84
0
VERTEX
10
8.10119
20
10.2538
30
8.84
0
VERTEX
10
8.10388
20
10.2574
30
8.84
0
VERTEX
10
8.11016
20
10.261
30
8.84
0
VERTEX
10
8.11374
20
10.2637
30
8.84
0
VERTEX
10
8.11554
20
10.2708
30
8.84
0
VERTEX
10
8.11554
20
10.2852
30
8.84
0
VERTEX
10
8.11823
20
10.2923
30
8.84
0
VERTEX
10
8.12002
20
10.2959
30
8.84
0
VERTEX
10
8.11912
20
10.3246
30
8.84
0
VERTEX
10
8.11733
20
10.3264
30
8.84
0
VERTEX
10
8.11823
20
10.3408
30
8.84
0
VERTEX
10
8.12181
20
10.347
30
8.84
0
VERTEX
10
8.12719
20
10.3533
30
8.84
0
VERTEX
10
8.12809
20
10.3605
30
8.84
0
VERTEX
10
8.12091
20
10.3632
30
8.84
0
VERTEX
10
8.11733
20
10.365
30
8.84
0
VERTEX
10
8.11374
20
10.365
30
8.84
0
VERTEX
10
8.10029
20
10.3587
30
8.84
0
VERTEX
10
8.0985
20
10.3569
30
8.84
0
VERTEX
10
8.0985
20
10.3551
30
8.84
0
VERTEX
10
8.09312
20
10.3488
30
8.84
0
VERTEX
10
8.09312
20
10.347
30
8.84
0
VERTEX
10
8.08685
20
10.3417
30
8.84
0
VERTEX
10
8.08505
20
10.3381
30
8.84
0
VERTEX
10
8.08147
20
10.3345
30
8.84
0
VERTEX
10
8.07967
20
10.3273
30
8.84
0
VERTEX
10
8.07698
20
10.3246
30
8.84
0
VERTEX
10
8.07519
20
10.3183
30
8.84
0
VERTEX
10
8.07429
20
10.3148
30
8.84
0
VERTEX
10
8.07071
20
10.3112
30
8.84
0
VERTEX
10
8.07071
20
10.3094
30
8.84
0
VERTEX
10
8.06891
20
10.3076
30
8.84
0
VERTEX
10
8.06891
20
10.3058
30
8.84
0
VERTEX
10
8.06712
20
10.3049
30
8.84
0
VERTEX
10
8.06533
20
10.2977
30
8.84
0
VERTEX
10
8.06533
20
10.2941
30
8.84
0
VERTEX
10
8.06354
20
10.2923
30
8.84
0
VERTEX
10
8.06354
20
10.278
30
8.84
0
VERTEX
10
8.06443
20
10.2708
30
8.84
0
VERTEX
10
8.06264
20
10.2637
30
8.84
0
VERTEX
10
8.06174
20
10.2601
30
8.84
0
VERTEX
10
8.05636
20
10.2529
30
8.84
0
VERTEX
10
8.05457
20
10.252
30
8.84
0
VERTEX
10
8.05457
20
10.2502
30
8.84
0
VERTEX
10
8.05188
20
10.2475
30
8.84
0
VERTEX
10
8.04829
20
10.2332
30
8.84
0
VERTEX
10
8.0474
20
10.2188
30
8.84
0
VERTEX
10
8.0474
20
10.2152
30
8.84
0
VERTEX
10
8.0474
20
10.2135
30
8.84
0
SEQEND
0
POLYLINE
62
227
66
1
70
1
3
endoplasmic_reticulum
0
VERTEX
10
7.9694
20
10.226
30
8.84
0
VERTEX
10
7.97029
20
10.2224
30
8.84
0
VERTEX
10
7.97209
20
10.2206
30
8.84
0
VERTEX
10
7.97209
20
10.2135
30
8.84
0
VERTEX
10
7.97388
20
10.2063
30
8.84
0
VERTEX
10
7.97836
20
10.1991
30
8.84
0
VERTEX
10
7.98195
20
10.1955
30
8.84
0
VERTEX
10
7.98912
20
10.1928
30
8.84
0
VERTEX
10
8.00347
20
10.1919
30
8.84
0
VERTEX
10
8.01602
20
10.2054
30
8.84
0
VERTEX
10
8.02229
20
10.2197
30
8.84
0
VERTEX
10
8.02498
20
10.2341
30
8.84
0
VERTEX
10
8.02678
20
10.2628
30
8.84
0
VERTEX
10
8.02767
20
10.2699
30
8.84
0
VERTEX
10
8.03305
20
10.2843
30
8.84
0
VERTEX
10
8.03395
20
10.2879
30
8.84
0
VERTEX
10
8.03664
20
10.2915
30
8.84
0
VERTEX
10
8.04292
20
10.3058
30
8.84
0
VERTEX
10
8.0456
20
10.313
30
8.84
0
VERTEX
10
8.0465
20
10.3166
30
8.84
0
VERTEX
10
8.04919
20
10.3201
30
8.84
0
VERTEX
10
8.05098
20
10.3273
30
8.84
0
VERTEX
10
8.05098
20
10.3345
30
8.84
0
VERTEX
10
8.05098
20
10.3381
30
8.84
0
VERTEX
10
8.04829
20
10.3452
30
8.84
0
VERTEX
10
8.03933
20
10.3596
30
8.84
0
VERTEX
10
8.03574
20
10.3623
30
8.84
0
VERTEX
10
8.03395
20
10.3632
30
8.84
0
VERTEX
10
8.02947
20
10.3569
30
8.84
0
VERTEX
10
8.02767
20
10.3551
30
8.84
0
VERTEX
10
8.02678
20
10.3515
30
8.84
0
VERTEX
10
8.02409
20
10.3479
30
8.84
0
VERTEX
10
8.0196
20
10.3336
30
8.84
0
VERTEX
10
8.01512
20
10.3264
30
8.84
0
VERTEX
10
8.01243
20
10.3192
30
8.84
0
VERTEX
10
8.00257
20
10.3058
30
8.84
0
VERTEX
10
7.99898
20
10.2986
30
8.84
0
VERTEX
10
7.99361
20
10.2923
30
8.84
0
VERTEX
10
7.98643
20
10.278
30
8.84
0
VERTEX
10
7.98285
20
10.2708
30
8.84
0
VERTEX
10
7.98105
20
10.2637
30
8.84
0
VERTEX
10
7.97657
20
10.2565
30
8.84
0
VERTEX
10
7.97119
20
10.243
30
8.84
0
VERTEX
10
7.9694
20
10.2359
30
8.84
0
VERTEX
10
7.9694
20
10.2287
30
8.84
0
VERTEX
10
7.9694
20
10.2269
30
8.84
0
SEQEND
0
POLYLINE
62
227
66
1
70
1
3
endoplasmic_reticulum
0
VERTEX
10
7.76947
20
10.122
30
8.84
0
VERTEX
10
7.77126
20
10.1211
30
8.84
0
VERTEX
10
7.77485
20
10.1229
30
8.84
0
VERTEX
10
7.77574
20
10.1238
30
8.84
0
VERTEX
10
7.77664
20
10.1166
30
8.84
0
VERTEX
10
7.77843
20
10.113
30
8.84
0
VERTEX
10
7.79278
20
10.1086
30
8.84
0
VERTEX
10
7.79995
20
10.1068
30
8.84
0
VERTEX
10
7.80354
20
10.1041
30
8.84
0
VERTEX
10
7.83223
20
10.105
30
8.84
0
VERTEX
10
7.86092
20
10.1023
30
8.84
0
VERTEX
10
7.9183
20
10.1014
30
8.84
0
VERTEX
10
7.93264
20
10.0978
30
8.84
0
VERTEX
10
7.93981
20
10.0951
30
8.84
0
VERTEX
10
7.94161
20
10.0951
30
8.84
0
VERTEX
10
7.9434
20
10.0933
30
8.84
0
VERTEX
10
7.94698
20
10.0933
30
8.84
0
VERTEX
10
7.95416
20
10.0906
30
8.84
0
VERTEX
10
7.95774
20
10.087
30
8.84
0
VERTEX
10
7.96492
20
10.0835
30
8.84
0
VERTEX
10
7.9685
20
10.0808
30
8.84
0
VERTEX
10
7.97029
20
10.0808
30
8.84
0
VERTEX
10
7.97209
20
10.079
30
8.84
0
VERTEX
10
7.97388
20
10.079
30
8.84
0
VERTEX
10
7.98105
20
10.0745
30
8.84
0
VERTEX
10
7.98823
20
10.0736
30
8.84
0
VERTEX
10
7.9954
20
10.0754
30
8.84
0
VERTEX
10
7.99719
20
10.0754
30
8.84
0
VERTEX
10
8.00078
20
10.0781
30
8.84
0
VERTEX
10
8.00257
20
10.0781
30
8.84
0
VERTEX
10
8.00347
20
10.0799
30
8.84
0
VERTEX
10
8.00526
20
10.0799
30
8.84
0
VERTEX
10
8.00885
20
10.0826
30
8.84
0
VERTEX
10
8.01064
20
10.0835
30
8.84
0
VERTEX
10
8.01064
20
10.0852
30
8.84
0
VERTEX
10
8.01512
20
10.0915
30
8.84
0
VERTEX
10
8.0205
20
10.096
30
8.84
0
VERTEX
10
8.02319
20
10.1032
30
8.84
0
VERTEX
10
8.02678
20
10.1032
30
8.84
0
VERTEX
10
8.03036
20
10.1059
30
8.84
0
VERTEX
10
8.03395
20
10.1068
30
8.84
0
VERTEX
10
8.03754
20
10.1095
30
8.84
0
VERTEX
10
8.04471
20
10.1112
30
8.84
0
VERTEX
10
8.04829
20
10.113
30
8.84
0
VERTEX
10
8.05816
20
10.1256
30
8.84
0
VERTEX
10
8.05905
20
10.1292
30
8.84
0
VERTEX
10
8.06174
20
10.1319
30
8.84
0
VERTEX
10
8.06264
20
10.1462
30
8.84
0
VERTEX
10
8.05995
20
10.1534
30
8.84
0
VERTEX
10
8.04829
20
10.1641
30
8.84
0
VERTEX
10
8.04112
20
10.1659
30
8.84
0
VERTEX
10
8.01243
20
10.1659
30
8.84
0
VERTEX
10
7.99809
20
10.1641
30
8.84
0
VERTEX
10
7.99092
20
10.1641
30
8.84
0
VERTEX
10
7.98374
20
10.1624
30
8.84
0
VERTEX
10
7.98285
20
10.1606
30
8.84
0
VERTEX
10
7.9685
20
10.1606
30
8.84
0
VERTEX
10
7.96492
20
10.1588
30
8.84
0
VERTEX
10
7.93623
20
10.1588
30
8.84
0
VERTEX
10
7.90754
20
10.1606
30
8.84
0
VERTEX
10
7.90395
20
10.1606
30
8.84
0
VERTEX
10
7.90216
20
10.1606
30
8.84
0
VERTEX
10
7.90036
20
10.1624
30
8.84
0
VERTEX
10
7.87167
20
10.1632
30
8.84
0
VERTEX
10
7.84299
20
10.1624
30
8.84
0
VERTEX
10
7.82864
20
10.1615
30
8.84
0
VERTEX
10
7.79995
20
10.1525
30
8.84
0
VERTEX
10
7.79636
20
10.1516
30
8.84
0
VERTEX
10
7.79547
20
10.1498
30
8.84
0
VERTEX
10
7.7883
20
10.148
30
8.84
0
VERTEX
10
7.7874
20
10.1462
30
8.84
0
VERTEX
10
7.78561
20
10.1462
30
8.84
0
VERTEX
10
7.77933
20
10.1408
30
8.84
0
VERTEX
10
7.77574
20
10.1372
30
8.84
0
VERTEX
10
7.77216
20
10.131
30
8.84
0
VERTEX
10
7.77037
20
10.1292
30
8.84
0
VERTEX
10
7.76947
20
10.1229
30
8.84
0
SEQEND
0
ENDSEC
0
EOF
