0
SECTION
2
ENTITIES
0
POLYLINE
62
31
66
1
70
1
3
contour
0
VERTEX
10
7.68335
20
10.047
30
7.96
0
VERTEX
10
7.69652
20
9.99429
30
7.96
0
VERTEX
10
7.69981
20
9.96795
30
7.96
0
VERTEX
10
7.73603
20
9.86261
30
7.96
0
VERTEX
10
7.7459
20
9.83627
30
7.96
0
VERTEX
10
7.75248
20
9.82311
30
7.96
0
VERTEX
10
7.75907
20
9.81652
30
7.96
0
VERTEX
10
7.75907
20
9.80994
30
7.96
0
VERTEX
10
7.79528
20
9.75727
30
7.96
0
VERTEX
10
7.82162
20
9.7441
30
7.96
0
VERTEX
10
7.83149
20
9.73422
30
7.96
0
VERTEX
10
7.85783
20
9.73093
30
7.96
0
VERTEX
10
7.9105
20
9.74081
30
7.96
0
VERTEX
10
7.91708
20
9.74081
30
7.96
0
VERTEX
10
7.92366
20
9.74739
30
7.96
0
VERTEX
10
7.95
20
9.75068
30
7.96
0
VERTEX
10
7.97634
20
9.76385
30
7.96
0
VERTEX
10
7.9895
20
9.76385
30
7.96
0
VERTEX
10
8.04217
20
9.78689
30
7.96
0
VERTEX
10
8.06851
20
9.79677
30
7.96
0
VERTEX
10
8.09485
20
9.81652
30
7.96
0
VERTEX
10
8.10801
20
9.82311
30
7.96
0
VERTEX
10
8.1146
20
9.82969
30
7.96
0
VERTEX
10
8.14093
20
9.83627
30
7.96
0
VERTEX
10
8.1541
20
9.84615
30
7.96
0
VERTEX
10
8.16068
20
9.84615
30
7.96
0
VERTEX
10
8.20019
20
9.89224
30
7.96
0
VERTEX
10
8.21665
20
9.91857
30
7.96
0
VERTEX
10
8.22323
20
9.93174
30
7.96
0
VERTEX
10
8.22981
20
9.93503
30
7.96
0
VERTEX
10
8.23311
20
9.9482
30
7.96
0
VERTEX
10
8.24298
20
9.96137
30
7.96
0
VERTEX
10
8.26273
20
10.0107
30
7.96
0
VERTEX
10
8.26932
20
10.0239
30
7.96
0
VERTEX
10
8.26932
20
10.0305
30
7.96
0
VERTEX
10
8.27919
20
10.047
30
7.96
0
VERTEX
10
8.29236
20
10.0733
30
7.96
0
VERTEX
10
8.29565
20
10.126
30
7.96
0
VERTEX
10
8.29236
20
10.1523
30
7.96
0
VERTEX
10
8.29236
20
10.1655
30
7.96
0
VERTEX
10
8.29236
20
10.1721
30
7.96
0
VERTEX
10
8.28578
20
10.1786
30
7.96
0
VERTEX
10
8.27919
20
10.205
30
7.96
0
VERTEX
10
8.26603
20
10.2313
30
7.96
0
VERTEX
10
8.24298
20
10.2511
30
7.96
0
VERTEX
10
8.23969
20
10.2642
30
7.96
0
VERTEX
10
8.21665
20
10.2873
30
7.96
0
VERTEX
10
8.20019
20
10.3103
30
7.96
0
VERTEX
10
8.17714
20
10.3334
30
7.96
0
VERTEX
10
8.15739
20
10.3498
30
7.96
0
VERTEX
10
8.14422
20
10.3564
30
7.96
0
VERTEX
10
8.13764
20
10.3597
30
7.96
0
VERTEX
10
8.14752
20
10.3696
30
7.96
0
VERTEX
10
8.14752
20
10.3761
30
7.96
0
VERTEX
10
8.09485
20
10.4058
30
7.96
0
VERTEX
10
8.07839
20
10.4321
30
7.96
0
VERTEX
10
7.9928
20
10.5243
30
7.96
0
VERTEX
10
7.97634
20
10.5407
30
7.96
0
VERTEX
10
7.95
20
10.5473
30
7.96
0
VERTEX
10
7.89733
20
10.5276
30
7.96
0
VERTEX
10
7.88416
20
10.521
30
7.96
0
VERTEX
10
7.85783
20
10.521
30
7.96
0
VERTEX
10
7.84466
20
10.5144
30
7.96
0
VERTEX
10
7.83149
20
10.5144
30
7.96
0
VERTEX
10
7.80845
20
10.5045
30
7.96
0
VERTEX
10
7.79528
20
10.498
30
7.96
0
VERTEX
10
7.7887
20
10.4914
30
7.96
0
VERTEX
10
7.77553
20
10.4881
30
7.96
0
VERTEX
10
7.73273
20
10.4387
30
7.96
0
VERTEX
10
7.71627
20
10.4124
30
7.96
0
VERTEX
10
7.71627
20
10.3992
30
7.96
0
VERTEX
10
7.70311
20
10.3761
30
7.96
0
VERTEX
10
7.70311
20
10.363
30
7.96
0
VERTEX
10
7.69323
20
10.3366
30
7.96
0
VERTEX
10
7.68994
20
10.284
30
7.96
0
VERTEX
10
7.68994
20
10.2576
30
7.96
0
VERTEX
10
7.68994
20
10.2445
30
7.96
0
VERTEX
10
7.68335
20
10.2379
30
7.96
0
VERTEX
10
7.68335
20
10.1325
30
7.96
0
VERTEX
10
7.68335
20
10.0799
30
7.96
0
VERTEX
10
7.68335
20
10.0535
30
7.96
0
VERTEX
10
7.68335
20
10.0502
30
7.96
0
SEQEND
0
POLYLINE
62
224
66
1
70
1
3
mitochondrion
0
VERTEX
10
7.89486
20
10.0041
30
7.96
0
VERTEX
10
7.89764
20
9.99302
30
7.96
0
VERTEX
10
7.89764
20
9.98746
30
7.96
0
VERTEX
10
7.90459
20
9.96521
30
7.96
0
VERTEX
10
7.90737
20
9.95409
30
7.96
0
VERTEX
10
7.91711
20
9.94435
30
7.96
0
VERTEX
10
7.92128
20
9.93879
30
7.96
0
VERTEX
10
7.92406
20
9.93879
30
7.96
0
VERTEX
10
7.92823
20
9.93462
30
7.96
0
VERTEX
10
7.93101
20
9.93462
30
7.96
0
VERTEX
10
7.93101
20
9.93184
30
7.96
0
VERTEX
10
7.94075
20
9.9235
30
7.96
0
VERTEX
10
7.98524
20
9.90542
30
7.96
0
VERTEX
10
8.00749
20
9.90264
30
7.96
0
VERTEX
10
8.02973
20
9.90264
30
7.96
0
VERTEX
10
8.04086
20
9.90264
30
7.96
0
VERTEX
10
8.0631
20
9.90959
30
7.96
0
VERTEX
10
8.06866
20
9.91237
30
7.96
0
VERTEX
10
8.07145
20
9.91377
30
7.96
0
VERTEX
10
8.07145
20
9.91655
30
7.96
0
VERTEX
10
8.08118
20
9.92628
30
7.96
0
VERTEX
10
8.09369
20
9.94714
30
7.96
0
VERTEX
10
8.09647
20
9.94992
30
7.96
0
VERTEX
10
8.09647
20
9.9527
30
7.96
0
VERTEX
10
8.09925
20
9.95548
30
7.96
0
VERTEX
10
8.10204
20
9.9666
30
7.96
0
VERTEX
10
8.10204
20
9.97773
30
7.96
0
VERTEX
10
8.10204
20
9.98329
30
7.96
0
VERTEX
10
8.10482
20
9.98607
30
7.96
0
VERTEX
10
8.10482
20
10.0306
30
7.96
0
VERTEX
10
8.10343
20
10.0528
30
7.96
0
VERTEX
10
8.09925
20
10.0584
30
7.96
0
VERTEX
10
8.09786
20
10.0639
30
7.96
0
VERTEX
10
8.09369
20
10.0695
30
7.96
0
VERTEX
10
8.0923
20
10.0751
30
7.96
0
VERTEX
10
8.0784
20
10.0931
30
7.96
0
VERTEX
10
8.06171
20
10.114
30
7.96
0
VERTEX
10
8.05754
20
10.1195
30
7.96
0
VERTEX
10
8.04781
20
10.1265
30
7.96
0
VERTEX
10
8.04225
20
10.1293
30
7.96
0
VERTEX
10
8.04086
20
10.1321
30
7.96
0
VERTEX
10
8.02973
20
10.1321
30
7.96
0
VERTEX
10
8.01861
20
10.1362
30
7.96
0
VERTEX
10
7.99636
20
10.1362
30
7.96
0
VERTEX
10
7.9908
20
10.1362
30
7.96
0
VERTEX
10
7.98524
20
10.1321
30
7.96
0
VERTEX
10
7.96299
20
10.1307
30
7.96
0
VERTEX
10
7.96021
20
10.1279
30
7.96
0
VERTEX
10
7.95743
20
10.1279
30
7.96
0
VERTEX
10
7.93657
20
10.1126
30
7.96
0
VERTEX
10
7.93101
20
10.1098
30
7.96
0
VERTEX
10
7.92823
20
10.1043
30
7.96
0
VERTEX
10
7.92267
20
10.1015
30
7.96
0
VERTEX
10
7.9185
20
10.0959
30
7.96
0
VERTEX
10
7.91711
20
10.0903
30
7.96
0
VERTEX
10
7.91433
20
10.089
30
7.96
0
VERTEX
10
7.91294
20
10.0834
30
7.96
0
VERTEX
10
7.90737
20
10.0778
30
7.96
0
VERTEX
10
7.90459
20
10.0723
30
7.96
0
VERTEX
10
7.90459
20
10.0695
30
7.96
0
VERTEX
10
7.90181
20
10.0667
30
7.96
0
VERTEX
10
7.90181
20
10.0612
30
7.96
0
VERTEX
10
7.89625
20
10.05
30
7.96
0
VERTEX
10
7.89486
20
10.0055
30
7.96
0
SEQEND
0
POLYLINE
62
227
66
1
70
1
3
endoplasmic_reticulum
0
VERTEX
10
8.15229
20
10.2332
30
7.96
0
VERTEX
10
8.15588
20
10.2314
30
7.96
0
VERTEX
10
8.15767
20
10.2296
30
7.96
0
VERTEX
10
8.16126
20
10.2287
30
7.96
0
VERTEX
10
8.16395
20
10.2251
30
7.96
0
VERTEX
10
8.16574
20
10.2251
30
7.96
0
VERTEX
10
8.16754
20
10.2233
30
7.96
0
VERTEX
10
8.17471
20
10.2233
30
7.96
0
VERTEX
10
8.18188
20
10.226
30
7.96
0
VERTEX
10
8.18367
20
10.226
30
7.96
0
VERTEX
10
8.19085
20
10.2323
30
7.96
0
VERTEX
10
8.19264
20
10.2359
30
7.96
0
VERTEX
10
8.18995
20
10.2502
30
7.96
0
VERTEX
10
8.18995
20
10.252
30
7.96
0
VERTEX
10
8.18367
20
10.2583
30
7.96
0
VERTEX
10
8.18098
20
10.261
30
7.96
0
VERTEX
10
8.16664
20
10.2628
30
7.96
0
VERTEX
10
8.15947
20
10.2628
30
7.96
0
VERTEX
10
8.15588
20
10.2619
30
7.96
0
VERTEX
10
8.15498
20
10.2583
30
7.96
0
VERTEX
10
8.15229
20
10.2556
30
7.96
0
VERTEX
10
8.15229
20
10.2412
30
7.96
0
VERTEX
10
8.15229
20
10.2341
30
7.96
0
SEQEND
0
POLYLINE
62
227
66
1
70
1
3
endoplasmic_reticulum
0
VERTEX
10
8.11733
20
10.1713
30
7.96
0
VERTEX
10
8.12002
20
10.1641
30
7.96
0
VERTEX
10
8.12181
20
10.1606
30
7.96
0
VERTEX
10
8.12898
20
10.1588
30
7.96
0
VERTEX
10
8.13078
20
10.157
30
7.96
0
VERTEX
10
8.13257
20
10.157
30
7.96
0
VERTEX
10
8.13436
20
10.1552
30
7.96
0
VERTEX
10
8.13616
20
10.1552
30
7.96
0
VERTEX
10
8.14064
20
10.1489
30
7.96
0
VERTEX
10
8.14422
20
10.1462
30
7.96
0
VERTEX
10
8.14602
20
10.1435
30
7.96
0
VERTEX
10
8.14602
20
10.1292
30
7.96
0
VERTEX
10
8.14602
20
10.1256
30
7.96
0
VERTEX
10
8.14781
20
10.122
30
7.96
0
VERTEX
10
8.14871
20
10.1202
30
7.96
0
VERTEX
10
8.14781
20
10.113
30
7.96
0
VERTEX
10
8.15319
20
10.1059
30
7.96
0
VERTEX
10
8.15678
20
10.1023
30
7.96
0
VERTEX
10
8.15857
20
10.1023
30
7.96
0
VERTEX
10
8.16216
20
10.0996
30
7.96
0
VERTEX
10
8.16933
20
10.1005
30
7.96
0
VERTEX
10
8.1765
20
10.1032
30
7.96
0
VERTEX
10
8.18009
20
10.1041
30
7.96
0
VERTEX
10
8.18278
20
10.1068
30
7.96
0
VERTEX
10
8.18457
20
10.1068
30
7.96
0
VERTEX
10
8.18905
20
10.113
30
7.96
0
VERTEX
10
8.19085
20
10.1202
30
7.96
0
VERTEX
10
8.19533
20
10.1265
30
7.96
0
VERTEX
10
8.19802
20
10.1301
30
7.96
0
VERTEX
10
8.19981
20
10.1301
30
7.96
0
VERTEX
10
8.20519
20
10.1364
30
7.96
0
VERTEX
10
8.20878
20
10.1381
30
7.96
0
VERTEX
10
8.21057
20
10.1381
30
7.96
0
VERTEX
10
8.21236
20
10.1399
30
7.96
0
VERTEX
10
8.21416
20
10.1399
30
7.96
0
VERTEX
10
8.21953
20
10.1462
30
7.96
0
VERTEX
10
8.21864
20
10.1534
30
7.96
0
VERTEX
10
8.21953
20
10.1561
30
7.96
0
VERTEX
10
8.22671
20
10.157
30
7.96
0
VERTEX
10
8.23388
20
10.1597
30
7.96
0
VERTEX
10
8.24016
20
10.1641
30
7.96
0
VERTEX
10
8.24374
20
10.1668
30
7.96
0
VERTEX
10
8.24643
20
10.174
30
7.96
0
VERTEX
10
8.24822
20
10.1776
30
7.96
0
VERTEX
10
8.24822
20
10.1919
30
7.96
0
VERTEX
10
8.24195
20
10.1982
30
7.96
0
VERTEX
10
8.23478
20
10.1991
30
7.96
0
VERTEX
10
8.23119
20
10.2
30
7.96
0
VERTEX
10
8.22581
20
10.1955
30
7.96
0
VERTEX
10
8.22043
20
10.1883
30
7.96
0
VERTEX
10
8.21953
20
10.1866
30
7.96
0
VERTEX
10
8.21774
20
10.1866
30
7.96
0
VERTEX
10
8.21595
20
10.1937
30
7.96
0
VERTEX
10
8.20878
20
10.2
30
7.96
0
VERTEX
10
8.20609
20
10.2027
30
7.96
0
VERTEX
10
8.2025
20
10.2036
30
7.96
0
VERTEX
10
8.19533
20
10.2009
30
7.96
0
VERTEX
10
8.18816
20
10.2
30
7.96
0
VERTEX
10
8.18457
20
10.1982
30
7.96
0
VERTEX
10
8.17022
20
10.1982
30
7.96
0
VERTEX
10
8.16305
20
10.1991
30
7.96
0
VERTEX
10
8.16036
20
10.2009
30
7.96
0
VERTEX
10
8.14602
20
10.2009
30
7.96
0
VERTEX
10
8.13885
20
10.2
30
7.96
0
VERTEX
10
8.13616
20
10.1964
30
7.96
0
VERTEX
10
8.13616
20
10.1821
30
7.96
0
VERTEX
10
8.13526
20
10.1785
30
7.96
0
VERTEX
10
8.13347
20
10.1767
30
7.96
0
VERTEX
10
8.12629
20
10.1803
30
7.96
0
VERTEX
10
8.12271
20
10.1803
30
7.96
0
VERTEX
10
8.12091
20
10.1812
30
7.96
0
VERTEX
10
8.11733
20
10.1785
30
7.96
0
VERTEX
10
8.11733
20
10.1722
30
7.96
0
SEQEND
0
POLYLINE
62
227
66
1
70
1
3
endoplasmic_reticulum
0
VERTEX
10
8.01512
20
10.2583
30
7.96
0
VERTEX
10
8.01602
20
10.2547
30
7.96
0
VERTEX
10
8.01602
20
10.2529
30
7.96
0
VERTEX
10
8.01781
20
10.2511
30
7.96
0
VERTEX
10
8.01871
20
10.2475
30
7.96
0
VERTEX
10
8.02229
20
10.2439
30
7.96
0
VERTEX
10
8.02409
20
10.2421
30
7.96
0
VERTEX
10
8.03843
20
10.243
30
7.96
0
VERTEX
10
8.04202
20
10.2448
30
7.96
0
VERTEX
10
8.04919
20
10.2448
30
7.96
0
VERTEX
10
8.05278
20
10.2448
30
7.96
0
VERTEX
10
8.05547
20
10.2475
30
7.96
0
VERTEX
10
8.06264
20
10.2484
30
7.96
0
VERTEX
10
8.06802
20
10.2547
30
7.96
0
VERTEX
10
8.06981
20
10.2619
30
7.96
0
VERTEX
10
8.06981
20
10.269
30
7.96
0
VERTEX
10
8.06712
20
10.2753
30
7.96
0
VERTEX
10
8.05995
20
10.2771
30
7.96
0
VERTEX
10
8.05816
20
10.2789
30
7.96
0
VERTEX
10
8.05098
20
10.2807
30
7.96
0
VERTEX
10
8.04829
20
10.2834
30
7.96
0
VERTEX
10
8.04112
20
10.2834
30
7.96
0
VERTEX
10
8.03395
20
10.2852
30
7.96
0
VERTEX
10
8.03036
20
10.2843
30
7.96
0
VERTEX
10
8.01692
20
10.2717
30
7.96
0
VERTEX
10
8.01512
20
10.2681
30
7.96
0
VERTEX
10
8.01512
20
10.261
30
7.96
0
VERTEX
10
8.01512
20
10.2592
30
7.96
0
SEQEND
0
POLYLINE
62
227
66
1
70
1
3
endoplasmic_reticulum
0
VERTEX
10
7.81968
20
9.98214
30
7.96
0
VERTEX
10
7.82147
20
9.97856
30
7.96
0
VERTEX
10
7.82505
20
9.97677
30
7.96
0
VERTEX
10
7.82685
20
9.97408
30
7.96
0
VERTEX
10
7.83312
20
9.96959
30
7.96
0
VERTEX
10
7.83312
20
9.96242
30
7.96
0
VERTEX
10
7.83492
20
9.95525
30
7.96
0
VERTEX
10
7.83581
20
9.9409
30
7.96
0
VERTEX
10
7.8385
20
9.93373
30
7.96
0
VERTEX
10
7.8385
20
9.93194
30
7.96
0
VERTEX
10
7.84209
20
9.92835
30
7.96
0
VERTEX
10
7.84209
20
9.92656
30
7.96
0
VERTEX
10
7.84568
20
9.92297
30
7.96
0
VERTEX
10
7.85285
20
9.92208
30
7.96
0
VERTEX
10
7.86002
20
9.92297
30
7.96
0
VERTEX
10
7.86361
20
9.92387
30
7.96
0
VERTEX
10
7.86719
20
9.92656
30
7.96
0
VERTEX
10
7.87347
20
9.9409
30
7.96
0
VERTEX
10
7.87347
20
9.94808
30
7.96
0
VERTEX
10
7.87167
20
9.95525
30
7.96
0
VERTEX
10
7.86899
20
9.95794
30
7.96
0
VERTEX
10
7.86719
20
9.96511
30
7.96
0
VERTEX
10
7.8663
20
9.9687
30
7.96
0
VERTEX
10
7.8645
20
9.97049
30
7.96
0
VERTEX
10
7.86271
20
9.97766
30
7.96
0
VERTEX
10
7.86181
20
9.99201
30
7.96
0
VERTEX
10
7.85912
20
10.0064
30
7.96
0
VERTEX
10
7.85733
20
10.009
30
7.96
0
VERTEX
10
7.85554
20
10.0099
30
7.96
0
VERTEX
10
7.85554
20
10.0117
30
7.96
0
VERTEX
10
7.84926
20
10.0171
30
7.96
0
VERTEX
10
7.84209
20
10.0207
30
7.96
0
VERTEX
10
7.8394
20
10.0216
30
7.96
0
VERTEX
10
7.83223
20
10.0153
30
7.96
0
VERTEX
10
7.82505
20
10.0126
30
7.96
0
VERTEX
10
7.82057
20
10.0081
30
7.96
0
VERTEX
10
7.81968
20
9.9938
30
7.96
0
VERTEX
10
7.82057
20
9.98663
30
7.96
0
VERTEX
10
7.81968
20
9.98304
30
7.96
0
SEQEND
0
POLYLINE
62
227
66
1
70
1
3
endoplasmic_reticulum
0
VERTEX
10
7.8134
20
10.3192
30
7.96
0
VERTEX
10
7.81519
20
10.3121
30
7.96
0
VERTEX
10
7.81519
20
10.3103
30
7.96
0
VERTEX
10
7.81788
20
10.3076
30
7.96
0
VERTEX
10
7.81878
20
10.3004
30
7.96
0
VERTEX
10
7.81878
20
10.2986
30
7.96
0
VERTEX
10
7.83043
20
10.287
30
7.96
0
VERTEX
10
7.83223
20
10.2843
30
7.96
0
VERTEX
10
7.8394
20
10.2798
30
7.96
0
VERTEX
10
7.84657
20
10.2807
30
7.96
0
VERTEX
10
7.84836
20
10.2807
30
7.96
0
VERTEX
10
7.85285
20
10.2879
30
7.96
0
VERTEX
10
7.85374
20
10.2915
30
7.96
0
VERTEX
10
7.84926
20
10.3058
30
7.96
0
VERTEX
10
7.84747
20
10.313
30
7.96
0
VERTEX
10
7.84747
20
10.3166
30
7.96
0
VERTEX
10
7.84388
20
10.3237
30
7.96
0
VERTEX
10
7.8385
20
10.3291
30
7.96
0
VERTEX
10
7.8385
20
10.3363
30
7.96
0
VERTEX
10
7.83581
20
10.3399
30
7.96
0
VERTEX
10
7.83492
20
10.3435
30
7.96
0
VERTEX
10
7.83223
20
10.347
30
7.96
0
VERTEX
10
7.82954
20
10.3542
30
7.96
0
VERTEX
10
7.82236
20
10.3524
30
7.96
0
VERTEX
10
7.81878
20
10.3515
30
7.96
0
VERTEX
10
7.81519
20
10.3488
30
7.96
0
VERTEX
10
7.8134
20
10.3201
30
7.96
0
SEQEND
0
ENDSEC
0
EOF
