0
SECTION
2
ENTITIES
0
POLYLINE
62
31
66
1
70
1
3
contour
0
VERTEX
10
8.81628
20
8.85398
30
5.08
0
VERTEX
10
8.8185
20
8.83624
30
5.08
0
VERTEX
10
8.82737
20
8.82958
30
5.08
0
VERTEX
10
8.82737
20
8.82515
30
5.08
0
VERTEX
10
8.83402
20
8.81628
30
5.08
0
VERTEX
10
8.84289
20
8.81185
30
5.08
0
VERTEX
10
8.85176
20
8.80298
30
5.08
0
VERTEX
10
8.88724
20
8.78745
30
5.08
0
VERTEX
10
8.92271
20
8.78745
30
5.08
0
VERTEX
10
8.94045
20
8.78524
30
5.08
0
VERTEX
10
8.95819
20
8.77858
30
5.08
0
VERTEX
10
9.02915
20
8.7675
30
5.08
0
VERTEX
10
9.06463
20
8.76306
30
5.08
0
VERTEX
10
9.08236
20
8.76306
30
5.08
0
VERTEX
10
9.09123
20
8.76306
30
5.08
0
VERTEX
10
9.10676
20
8.76971
30
5.08
0
VERTEX
10
9.11563
20
8.77637
30
5.08
0
VERTEX
10
9.13336
20
8.78302
30
5.08
0
VERTEX
10
9.1511
20
8.78524
30
5.08
0
VERTEX
10
9.16884
20
8.79189
30
5.08
0
VERTEX
10
9.17328
20
8.79632
30
5.08
0
VERTEX
10
9.18215
20
8.79632
30
5.08
0
VERTEX
10
9.19545
20
8.80963
30
5.08
0
VERTEX
10
9.19989
20
8.80963
30
5.08
0
VERTEX
10
9.20654
20
8.81628
30
5.08
0
VERTEX
10
9.21319
20
8.8185
30
5.08
0
VERTEX
10
9.23093
20
8.81628
30
5.08
0
VERTEX
10
9.24645
20
8.80519
30
5.08
0
VERTEX
10
9.25532
20
8.80519
30
5.08
0
VERTEX
10
9.27306
20
8.79411
30
5.08
0
VERTEX
10
9.28193
20
8.78745
30
5.08
0
VERTEX
10
9.31741
20
8.78745
30
5.08
0
VERTEX
10
9.32628
20
8.78967
30
5.08
0
VERTEX
10
9.33515
20
8.79632
30
5.08
0
VERTEX
10
9.33958
20
8.80519
30
5.08
0
VERTEX
10
9.34401
20
8.80963
30
5.08
0
VERTEX
10
9.34623
20
8.84511
30
5.08
0
VERTEX
10
9.34401
20
8.88058
30
5.08
0
VERTEX
10
9.33736
20
8.89832
30
5.08
0
VERTEX
10
9.33736
20
8.91606
30
5.08
0
VERTEX
10
9.33958
20
8.92493
30
5.08
0
VERTEX
10
9.33958
20
8.92937
30
5.08
0
VERTEX
10
9.34623
20
8.93824
30
5.08
0
VERTEX
10
9.35288
20
8.95597
30
5.08
0
VERTEX
10
9.36397
20
8.97371
30
5.08
0
VERTEX
10
9.37062
20
8.99145
30
5.08
0
VERTEX
10
9.36841
20
9.02693
30
5.08
0
VERTEX
10
9.36841
20
9.03137
30
5.08
0
VERTEX
10
9.3551
20
9.04689
30
5.08
0
VERTEX
10
9.35067
20
9.05132
30
5.08
0
VERTEX
10
9.35067
20
9.05576
30
5.08
0
VERTEX
10
9.33958
20
9.0735
30
5.08
0
VERTEX
10
9.3041
20
9.08458
30
5.08
0
VERTEX
10
9.26862
20
9.08902
30
5.08
0
VERTEX
10
9.25975
20
9.09345
30
5.08
0
VERTEX
10
9.25089
20
9.09345
30
5.08
0
VERTEX
10
9.24645
20
9.09789
30
5.08
0
VERTEX
10
9.23758
20
9.1001
30
5.08
0
VERTEX
10
9.2021
20
9.12228
30
5.08
0
VERTEX
10
9.18436
20
9.12893
30
5.08
0
VERTEX
10
9.14889
20
9.12671
30
5.08
0
VERTEX
10
9.14445
20
9.12671
30
5.08
0
VERTEX
10
9.12671
20
9.11119
30
5.08
0
VERTEX
10
9.12228
20
9.11119
30
5.08
0
VERTEX
10
9.11784
20
9.10676
30
5.08
0
VERTEX
10
9.11784
20
9.10232
30
5.08
0
VERTEX
10
9.1001
20
9.09345
30
5.08
0
VERTEX
10
9.09123
20
9.09123
30
5.08
0
VERTEX
10
9.07571
20
9.07793
30
5.08
0
VERTEX
10
9.05797
20
9.0735
30
5.08
0
VERTEX
10
9.04023
20
9.06463
30
5.08
0
VERTEX
10
9.03137
20
9.06241
30
5.08
0
VERTEX
10
9.0225
20
9.05576
30
5.08
0
VERTEX
10
9.01363
20
9.05354
30
5.08
0
VERTEX
10
9.00476
20
9.04689
30
5.08
0
VERTEX
10
8.99589
20
9.04467
30
5.08
0
VERTEX
10
8.99145
20
9.04023
30
5.08
0
VERTEX
10
8.97371
20
9.0358
30
5.08
0
VERTEX
10
8.96928
20
9.0358
30
5.08
0
VERTEX
10
8.95154
20
9.02028
30
5.08
0
VERTEX
10
8.94489
20
9.01363
30
5.08
0
VERTEX
10
8.94267
20
9.00919
30
5.08
0
VERTEX
10
8.9338
20
9.00697
30
5.08
0
VERTEX
10
8.90054
20
8.97593
30
5.08
0
VERTEX
10
8.8828
20
8.96706
30
5.08
0
VERTEX
10
8.86728
20
8.95376
30
5.08
0
VERTEX
10
8.86063
20
8.94489
30
5.08
0
VERTEX
10
8.85619
20
8.94489
30
5.08
0
VERTEX
10
8.83845
20
8.93158
30
5.08
0
VERTEX
10
8.83402
20
8.92271
30
5.08
0
VERTEX
10
8.83402
20
8.91828
30
5.08
0
VERTEX
10
8.82293
20
8.90276
30
5.08
0
VERTEX
10
8.8185
20
8.89832
30
5.08
0
VERTEX
10
8.81628
20
8.86284
30
5.08
0
VERTEX
10
8.81628
20
8.85619
30
5.08
0
SEQEND
0
POLYLINE
62
31
66
1
70
1
3
contour
0
VERTEX
10
8.85003
20
9.35358
30
5.08
0
VERTEX
10
8.85332
20
9.34042
30
5.08
0
VERTEX
10
8.87307
20
9.31738
30
5.08
0
VERTEX
10
8.88623
20
9.30751
30
5.08
0
VERTEX
10
8.8994
20
9.28447
30
5.08
0
VERTEX
10
8.92573
20
9.27459
30
5.08
0
VERTEX
10
8.95206
20
9.2713
30
5.08
0
VERTEX
10
9.00472
20
9.27789
30
5.08
0
VERTEX
10
9.01788
20
9.28447
30
5.08
0
VERTEX
10
9.03105
20
9.3108
30
5.08
0
VERTEX
10
9.03434
20
9.33713
30
5.08
0
VERTEX
10
9.03434
20
9.35029
30
5.08
0
VERTEX
10
9.02446
20
9.37333
30
5.08
0
VERTEX
10
9.02117
20
9.38649
30
5.08
0
VERTEX
10
8.99484
20
9.40295
30
5.08
0
VERTEX
10
8.99155
20
9.40953
30
5.08
0
VERTEX
10
8.97839
20
9.40953
30
5.08
0
VERTEX
10
8.96851
20
9.4227
30
5.08
0
VERTEX
10
8.96193
20
9.4227
30
5.08
0
VERTEX
10
8.96193
20
9.42928
30
5.08
0
VERTEX
10
8.94877
20
9.43915
30
5.08
0
VERTEX
10
8.92244
20
9.44574
30
5.08
0
VERTEX
10
8.89611
20
9.44244
30
5.08
0
VERTEX
10
8.86978
20
9.43257
30
5.08
0
VERTEX
10
8.86319
20
9.41941
30
5.08
0
VERTEX
10
8.86319
20
9.40624
30
5.08
0
VERTEX
10
8.85661
20
9.39308
30
5.08
0
VERTEX
10
8.85003
20
9.38979
30
5.08
0
VERTEX
10
8.85003
20
9.36346
30
5.08
0
VERTEX
10
8.85003
20
9.35687
30
5.08
0
SEQEND
0
POLYLINE
62
31
66
1
70
1
3
contour
0
VERTEX
10
9.89005
20
8.73594
30
5.08
0
VERTEX
10
9.89277
20
8.71422
30
5.08
0
VERTEX
10
9.90091
20
8.70607
30
5.08
0
VERTEX
10
9.90091
20
8.70064
30
5.08
0
VERTEX
10
9.91178
20
8.68978
30
5.08
0
VERTEX
10
9.9335
20
8.6762
30
5.08
0
VERTEX
10
9.93893
20
8.67077
30
5.08
0
VERTEX
10
9.94436
20
8.67077
30
5.08
0
VERTEX
10
9.95522
20
8.66262
30
5.08
0
VERTEX
10
9.96609
20
8.6599
30
5.08
0
VERTEX
10
9.97695
20
8.65176
30
5.08
0
VERTEX
10
9.98781
20
8.64904
30
5.08
0
VERTEX
10
9.99867
20
8.6409
30
5.08
0
VERTEX
10
10.0041
20
8.6409
30
5.08
0
VERTEX
10
10.0258
20
8.62732
30
5.08
0
VERTEX
10
10.0313
20
8.62189
30
5.08
0
VERTEX
10
10.0367
20
8.62189
30
5.08
0
VERTEX
10
10.0476
20
8.61374
30
5.08
0
VERTEX
10
10.0503
20
8.60831
30
5.08
0
VERTEX
10
10.072
20
8.60559
30
5.08
0
VERTEX
10
10.091
20
8.59473
30
5.08
0
VERTEX
10
10.1019
20
8.5893
30
5.08
0
VERTEX
10
10.1046
20
8.58387
30
5.08
0
VERTEX
10
10.1915
20
8.58115
30
5.08
0
VERTEX
10
10.2023
20
8.58115
30
5.08
0
VERTEX
10
10.2078
20
8.57572
30
5.08
0
VERTEX
10
10.2947
20
8.55128
30
5.08
0
VERTEX
10
10.3055
20
8.54585
30
5.08
0
VERTEX
10
10.311
20
8.54042
30
5.08
0
VERTEX
10
10.3218
20
8.5377
30
5.08
0
VERTEX
10
10.33
20
8.52956
30
5.08
0
VERTEX
10
10.3408
20
8.52684
30
5.08
0
VERTEX
10
10.3463
20
8.52684
30
5.08
0
VERTEX
10
10.3517
20
8.52141
30
5.08
0
VERTEX
10
10.3951
20
8.5187
30
5.08
0
VERTEX
10
10.4169
20
8.52413
30
5.08
0
VERTEX
10
10.4277
20
8.52956
30
5.08
0
VERTEX
10
10.4386
20
8.52956
30
5.08
0
VERTEX
10
10.4467
20
8.5377
30
5.08
0
VERTEX
10
10.4495
20
8.54857
30
5.08
0
VERTEX
10
10.4576
20
8.554
30
5.08
0
VERTEX
10
10.4766
20
8.59745
30
5.08
0
VERTEX
10
10.4739
20
8.6409
30
5.08
0
VERTEX
10
10.4657
20
8.68434
30
5.08
0
VERTEX
10
10.4657
20
8.70607
30
5.08
0
VERTEX
10
10.4603
20
8.70878
30
5.08
0
VERTEX
10
10.463
20
8.71965
30
5.08
0
VERTEX
10
10.4549
20
8.73051
30
5.08
0
VERTEX
10
10.4467
20
8.75223
30
5.08
0
VERTEX
10
10.4332
20
8.77396
30
5.08
0
VERTEX
10
10.4332
20
8.77939
30
5.08
0
VERTEX
10
10.4142
20
8.7984
30
5.08
0
VERTEX
10
10.4087
20
8.80926
30
5.08
0
VERTEX
10
10.368
20
8.84456
30
5.08
0
VERTEX
10
10.3245
20
8.87172
30
5.08
0
VERTEX
10
10.3055
20
8.8853
30
5.08
0
VERTEX
10
10.2974
20
8.89344
30
5.08
0
VERTEX
10
10.2865
20
8.89616
30
5.08
0
VERTEX
10
10.2757
20
8.9043
30
5.08
0
VERTEX
10
10.2322
20
8.91788
30
5.08
0
VERTEX
10
10.2105
20
8.92331
30
5.08
0
VERTEX
10
10.1888
20
8.92331
30
5.08
0
VERTEX
10
10.1779
20
8.91788
30
5.08
0
VERTEX
10
10.091
20
8.91517
30
5.08
0
VERTEX
10
10.0476
20
8.9206
30
5.08
0
VERTEX
10
10.0258
20
8.92331
30
5.08
0
VERTEX
10
10.015
20
8.92331
30
5.08
0
VERTEX
10
9.99324
20
8.91517
30
5.08
0
VERTEX
10
9.98238
20
8.91245
30
5.08
0
VERTEX
10
9.97966
20
8.90702
30
5.08
0
VERTEX
10
9.97423
20
8.90702
30
5.08
0
VERTEX
10
9.96609
20
8.89616
30
5.08
0
VERTEX
10
9.95522
20
8.89073
30
5.08
0
VERTEX
10
9.92807
20
8.84728
30
5.08
0
VERTEX
10
9.92264
20
8.84185
30
5.08
0
VERTEX
10
9.92264
20
8.83642
30
5.08
0
VERTEX
10
9.91721
20
8.83642
30
5.08
0
VERTEX
10
9.89277
20
8.79568
30
5.08
0
VERTEX
10
9.89005
20
8.75223
30
5.08
0
VERTEX
10
9.89005
20
8.74137
30
5.08
0
VERTEX
10
9.89005
20
8.73866
30
5.08
0
SEQEND
0
POLYLINE
62
224
66
1
70
1
3
mitochondrion
0
VERTEX
10
9.10175
20
8.92517
30
5.08
0
VERTEX
10
9.10454
20
8.91405
30
5.08
0
VERTEX
10
9.10454
20
8.90848
30
5.08
0
VERTEX
10
9.10732
20
8.90292
30
5.08
0
VERTEX
10
9.11844
20
8.89319
30
5.08
0
VERTEX
10
9.12817
20
8.88624
30
5.08
0
VERTEX
10
9.1393
20
8.88207
30
5.08
0
VERTEX
10
9.14347
20
8.87789
30
5.08
0
VERTEX
10
9.16571
20
8.8765
30
5.08
0
VERTEX
10
9.16849
20
8.8765
30
5.08
0
VERTEX
10
9.17267
20
8.88207
30
5.08
0
VERTEX
10
9.18379
20
8.88624
30
5.08
0
VERTEX
10
9.18935
20
8.89041
30
5.08
0
VERTEX
10
9.20047
20
8.89041
30
5.08
0
VERTEX
10
9.24219
20
8.92656
30
5.08
0
VERTEX
10
9.24497
20
8.93768
30
5.08
0
VERTEX
10
9.24914
20
8.94325
30
5.08
0
VERTEX
10
9.25331
20
8.95437
30
5.08
0
VERTEX
10
9.2547
20
8.96549
30
5.08
0
VERTEX
10
9.25192
20
8.98774
30
5.08
0
VERTEX
10
9.24775
20
8.99886
30
5.08
0
VERTEX
10
9.24636
20
9.00442
30
5.08
0
VERTEX
10
9.24219
20
9.00999
30
5.08
0
VERTEX
10
9.23941
20
9.01277
30
5.08
0
VERTEX
10
9.23941
20
9.01555
30
5.08
0
VERTEX
10
9.22967
20
9.02528
30
5.08
0
VERTEX
10
9.2255
20
9.02945
30
5.08
0
VERTEX
10
9.21994
20
9.03084
30
5.08
0
VERTEX
10
9.21716
20
9.03501
30
5.08
0
VERTEX
10
9.19491
20
9.04197
30
5.08
0
VERTEX
10
9.17267
20
9.04336
30
5.08
0
VERTEX
10
9.16154
20
9.04475
30
5.08
0
VERTEX
10
9.15598
20
9.04475
30
5.08
0
VERTEX
10
9.14486
20
9.04058
30
5.08
0
VERTEX
10
9.14069
20
9.03501
30
5.08
0
VERTEX
10
9.1393
20
9.02945
30
5.08
0
VERTEX
10
9.12261
20
9.00581
30
5.08
0
VERTEX
10
9.11983
20
9.00442
30
5.08
0
VERTEX
10
9.11983
20
8.99886
30
5.08
0
VERTEX
10
9.11427
20
8.99469
30
5.08
0
VERTEX
10
9.10871
20
8.98357
30
5.08
0
VERTEX
10
9.10593
20
8.98079
30
5.08
0
VERTEX
10
9.10593
20
8.97801
30
5.08
0
VERTEX
10
9.10314
20
8.97523
30
5.08
0
VERTEX
10
9.10175
20
8.93073
30
5.08
0
VERTEX
10
9.10175
20
8.92656
30
5.08
0
SEQEND
0
POLYLINE
62
236
66
1
70
1
3
postsynaptic_density
0
VERTEX
10
10.212
20
8.91498
30
5.08
0
VERTEX
10
10.2176
20
8.88512
30
5.08
0
VERTEX
10
10.2232
20
8.87019
30
5.08
0
VERTEX
10
10.2269
20
8.84033
30
5.08
0
VERTEX
10
10.2269
20
8.8366
30
5.08
0
VERTEX
10
10.2381
20
8.82354
30
5.08
0
VERTEX
10
10.2979
20
8.78435
30
5.08
0
VERTEX
10
10.3091
20
8.77502
30
5.08
0
VERTEX
10
10.3221
20
8.76195
30
5.08
0
VERTEX
10
10.3277
20
8.75635
30
5.08
0
VERTEX
10
10.3352
20
8.75449
30
5.08
0
VERTEX
10
10.3501
20
8.74329
30
5.08
0
VERTEX
10
10.3576
20
8.74142
30
5.08
0
VERTEX
10
10.3613
20
8.74142
30
5.08
0
VERTEX
10
10.3762
20
8.73209
30
5.08
0
VERTEX
10
10.3912
20
8.73209
30
5.08
0
VERTEX
10
10.3986
20
8.73209
30
5.08
0
VERTEX
10
10.4136
20
8.74142
30
5.08
0
VERTEX
10
10.4173
20
8.74516
30
5.08
0
VERTEX
10
10.421
20
8.74516
30
5.08
0
VERTEX
10
10.436
20
8.76009
30
5.08
0
VERTEX
10
10.4472
20
8.77502
30
5.08
0
VERTEX
10
10.4509
20
8.78248
30
5.08
0
VERTEX
10
10.449
20
8.79741
30
5.08
0
VERTEX
10
10.4154
20
8.8534
30
5.08
0
VERTEX
10
10.4042
20
8.86833
30
5.08
0
VERTEX
10
10.393
20
8.87952
30
5.08
0
VERTEX
10
10.3856
20
8.88699
30
5.08
0
VERTEX
10
10.3856
20
8.89072
30
5.08
0
VERTEX
10
10.3744
20
8.90565
30
5.08
0
VERTEX
10
10.3706
20
8.91125
30
5.08
0
VERTEX
10
10.3426
20
8.93365
30
5.08
0
VERTEX
10
10.3371
20
8.93924
30
5.08
0
VERTEX
10
10.3296
20
8.94111
30
5.08
0
VERTEX
10
10.3147
20
8.95231
30
5.08
0
VERTEX
10
10.3072
20
8.95791
30
5.08
0
VERTEX
10
10.2773
20
8.95791
30
5.08
0
VERTEX
10
10.2624
20
8.95791
30
5.08
0
VERTEX
10
10.2325
20
8.94671
30
5.08
0
VERTEX
10
10.2251
20
8.94484
30
5.08
0
VERTEX
10
10.212
20
8.93365
30
5.08
0
VERTEX
10
10.212
20
8.91872
30
5.08
0
VERTEX
10
10.212
20
8.91685
30
5.08
0
SEQEND
0
POLYLINE
62
227
66
1
70
1
3
endoplasmic_reticulum
0
VERTEX
10
9.29872
20
8.95769
30
5.08
0
VERTEX
10
9.30321
20
8.95432
30
5.08
0
VERTEX
10
9.32116
20
8.95657
30
5.08
0
VERTEX
10
9.32452
20
8.95993
30
5.08
0
VERTEX
10
9.32452
20
8.99583
30
5.08
0
VERTEX
10
9.32452
20
9.00032
30
5.08
0
VERTEX
10
9.3234
20
9.00256
30
5.08
0
VERTEX
10
9.31443
20
9.00256
30
5.08
0
VERTEX
10
9.30994
20
9.00256
30
5.08
0
VERTEX
10
9.3077
20
9.00256
30
5.08
0
VERTEX
10
9.30545
20
9.00032
30
5.08
0
VERTEX
10
9.30321
20
9.00032
30
5.08
0
VERTEX
10
9.29872
20
8.99134
30
5.08
0
VERTEX
10
9.29872
20
8.9734
30
5.08
0
VERTEX
10
9.29872
20
8.96442
30
5.08
0
VERTEX
10
9.29872
20
8.95993
30
5.08
0
VERTEX
10
9.29872
20
8.95881
30
5.08
0
SEQEND
0
POLYLINE
62
227
66
1
70
1
3
endoplasmic_reticulum
0
VERTEX
10
9.03285
20
8.85897
30
5.08
0
VERTEX
10
9.03846
20
8.85
30
5.08
0
VERTEX
10
9.04631
20
8.84214
30
5.08
0
VERTEX
10
9.05529
20
8.84102
30
5.08
0
VERTEX
10
9.05978
20
8.84102
30
5.08
0
VERTEX
10
9.06426
20
8.84439
30
5.08
0
VERTEX
10
9.06426
20
8.86234
30
5.08
0
VERTEX
10
9.06426
20
8.86682
30
5.08
0
VERTEX
10
9.0609
20
8.8758
30
5.08
0
VERTEX
10
9.05641
20
8.8758
30
5.08
0
VERTEX
10
9.05304
20
8.87916
30
5.08
0
VERTEX
10
9.04407
20
8.87804
30
5.08
0
VERTEX
10
9.0351
20
8.87468
30
5.08
0
VERTEX
10
9.03285
20
8.87019
30
5.08
0
VERTEX
10
9.03285
20
8.86121
30
5.08
0
VERTEX
10
9.03285
20
8.86009
30
5.08
0
SEQEND
0
POLYLINE
62
227
66
1
70
1
3
endoplasmic_reticulum
0
VERTEX
10
8.95201
20
8.93677
30
5.08
0
VERTEX
10
8.95381
20
8.93588
30
5.08
0
VERTEX
10
8.95381
20
8.9287
30
5.08
0
VERTEX
10
8.95739
20
8.91436
30
5.08
0
VERTEX
10
8.95829
20
8.90719
30
5.08
0
VERTEX
10
8.95919
20
8.9036
30
5.08
0
VERTEX
10
8.98429
20
8.88298
30
5.08
0
VERTEX
10
8.99056
20
8.87939
30
5.08
0
VERTEX
10
8.99236
20
8.87939
30
5.08
0
VERTEX
10
8.99594
20
8.87581
30
5.08
0
VERTEX
10
9.00312
20
8.87312
30
5.08
0
VERTEX
10
9.01746
20
8.87222
30
5.08
0
VERTEX
10
9.02105
20
8.87401
30
5.08
0
VERTEX
10
9.02643
20
8.88119
30
5.08
0
VERTEX
10
9.03001
20
8.88298
30
5.08
0
VERTEX
10
9.03181
20
8.88657
30
5.08
0
VERTEX
10
9.03091
20
8.89374
30
5.08
0
VERTEX
10
9.02822
20
8.89643
30
5.08
0
VERTEX
10
9.02822
20
8.9036
30
5.08
0
VERTEX
10
9.02284
20
8.91077
30
5.08
0
VERTEX
10
9.02105
20
8.91077
30
5.08
0
VERTEX
10
9.01387
20
8.91615
30
5.08
0
VERTEX
10
9.01208
20
8.92332
30
5.08
0
VERTEX
10
9.0085
20
8.9305
30
5.08
0
VERTEX
10
9.00939
20
8.93767
30
5.08
0
VERTEX
10
9.01208
20
8.94484
30
5.08
0
VERTEX
10
9.01477
20
8.94843
30
5.08
0
VERTEX
10
9.01746
20
8.95022
30
5.08
0
VERTEX
10
9.02015
20
8.95381
30
5.08
0
VERTEX
10
9.02374
20
8.9556
30
5.08
0
VERTEX
10
9.02643
20
8.95919
30
5.08
0
VERTEX
10
9.02643
20
8.96098
30
5.08
0
VERTEX
10
9.03629
20
8.97353
30
5.08
0
VERTEX
10
9.04974
20
8.98519
30
5.08
0
VERTEX
10
9.05691
20
8.98877
30
5.08
0
VERTEX
10
9.06408
20
8.99505
30
5.08
0
VERTEX
10
9.06767
20
8.99594
30
5.08
0
VERTEX
10
9.07125
20
8.99505
30
5.08
0
VERTEX
10
9.07484
20
8.99594
30
5.08
0
VERTEX
10
9.07663
20
8.99684
30
5.08
0
VERTEX
10
9.07663
20
8.99863
30
5.08
0
VERTEX
10
9.08022
20
9.00043
30
5.08
0
VERTEX
10
9.08201
20
9.00222
30
5.08
0
VERTEX
10
9.08381
20
9.00222
30
5.08
0
VERTEX
10
9.09008
20
9.0085
30
5.08
0
VERTEX
10
9.09277
20
9.01029
30
5.08
0
VERTEX
10
9.09815
20
9.01656
30
5.08
0
VERTEX
10
9.09905
20
9.02015
30
5.08
0
VERTEX
10
9.10263
20
9.02284
30
5.08
0
VERTEX
10
9.10353
20
9.02463
30
5.08
0
VERTEX
10
9.10532
20
9.02463
30
5.08
0
VERTEX
10
9.10981
20
9.03091
30
5.08
0
VERTEX
10
9.11249
20
9.03808
30
5.08
0
VERTEX
10
9.1116
20
9.05243
30
5.08
0
VERTEX
10
9.1107
20
9.0596
30
5.08
0
VERTEX
10
9.1107
20
9.06139
30
5.08
0
VERTEX
10
9.10353
20
9.06767
30
5.08
0
VERTEX
10
9.09994
20
9.07036
30
5.08
0
VERTEX
10
9.09636
20
9.07036
30
5.08
0
VERTEX
10
9.09277
20
9.06856
30
5.08
0
VERTEX
10
9.07843
20
9.06767
30
5.08
0
VERTEX
10
9.06408
20
9.06408
30
5.08
0
VERTEX
10
9.05691
20
9.0596
30
5.08
0
VERTEX
10
9.05332
20
9.0587
30
5.08
0
VERTEX
10
9.05153
20
9.0587
30
5.08
0
VERTEX
10
9.04794
20
9.05512
30
5.08
0
VERTEX
10
9.03629
20
9.04705
30
5.08
0
VERTEX
10
9.0327
20
9.04436
30
5.08
0
VERTEX
10
9.02912
20
9.04346
30
5.08
0
VERTEX
10
9.02553
20
9.04077
30
5.08
0
VERTEX
10
9.02194
20
9.03987
30
5.08
0
VERTEX
10
9.01656
20
9.0336
30
5.08
0
VERTEX
10
9.01477
20
9.0327
30
5.08
0
VERTEX
10
9.01298
20
9.02553
30
5.08
0
VERTEX
10
9.01118
20
9.02194
30
5.08
0
VERTEX
10
9.00939
20
9.02015
30
5.08
0
VERTEX
10
9.0085
20
9.01298
30
5.08
0
VERTEX
10
9.0067
20
9.00939
30
5.08
0
VERTEX
10
9.0067
20
9.0076
30
5.08
0
VERTEX
10
9.00132
20
9.00132
30
5.08
0
VERTEX
10
9.00132
20
8.99774
30
5.08
0
VERTEX
10
8.99684
20
8.99146
30
5.08
0
VERTEX
10
8.99056
20
8.98519
30
5.08
0
VERTEX
10
8.98877
20
8.9816
30
5.08
0
VERTEX
10
8.98698
20
8.9816
30
5.08
0
VERTEX
10
8.98519
20
8.97981
30
5.08
0
VERTEX
10
8.98339
20
8.97981
30
5.08
0
VERTEX
10
8.97712
20
8.97353
30
5.08
0
VERTEX
10
8.97532
20
8.97353
30
5.08
0
VERTEX
10
8.96546
20
8.96098
30
5.08
0
VERTEX
10
8.96098
20
8.9547
30
5.08
0
VERTEX
10
8.95919
20
8.95291
30
5.08
0
VERTEX
10
8.95829
20
8.94932
30
5.08
0
VERTEX
10
8.95291
20
8.94305
30
5.08
0
VERTEX
10
8.95201
20
8.93946
30
5.08
0
VERTEX
10
8.95201
20
8.93767
30
5.08
0
SEQEND
0
ENDSEC
0
EOF
