0
SECTION
2
ENTITIES
0
POLYLINE
62
31
66
1
70
1
3
contour
0
VERTEX
10
8.93602
20
9.33958
30
6.08
0
VERTEX
10
8.94045
20
9.33071
30
6.08
0
VERTEX
10
8.94267
20
9.31297
30
6.08
0
VERTEX
10
8.95819
20
9.30188
30
6.08
0
VERTEX
10
8.96041
20
9.29745
30
6.08
0
VERTEX
10
8.96484
20
9.29745
30
6.08
0
VERTEX
10
8.96928
20
9.29302
30
6.08
0
VERTEX
10
8.98702
20
9.29302
30
6.08
0
VERTEX
10
8.99589
20
9.28858
30
6.08
0
VERTEX
10
9.01363
20
9.28636
30
6.08
0
VERTEX
10
9.0225
20
9.28636
30
6.08
0
VERTEX
10
9.05576
20
9.26641
30
6.08
0
VERTEX
10
9.07128
20
9.25089
30
6.08
0
VERTEX
10
9.10676
20
9.2398
30
6.08
0
VERTEX
10
9.14223
20
9.23758
30
6.08
0
VERTEX
10
9.15997
20
9.23758
30
6.08
0
VERTEX
10
9.16884
20
9.23315
30
6.08
0
VERTEX
10
9.20432
20
9.23093
30
6.08
0
VERTEX
10
9.21319
20
9.22871
30
6.08
0
VERTEX
10
9.21762
20
9.22871
30
6.08
0
VERTEX
10
9.21984
20
9.22428
30
6.08
0
VERTEX
10
9.25532
20
9.21984
30
6.08
0
VERTEX
10
9.26419
20
9.21984
30
6.08
0
VERTEX
10
9.26862
20
9.21984
30
6.08
0
VERTEX
10
9.27306
20
9.21541
30
6.08
0
VERTEX
10
9.30854
20
9.21319
30
6.08
0
VERTEX
10
9.34401
20
9.21541
30
6.08
0
VERTEX
10
9.37949
20
9.22649
30
6.08
0
VERTEX
10
9.38836
20
9.23315
30
6.08
0
VERTEX
10
9.3928
20
9.23315
30
6.08
0
VERTEX
10
9.39723
20
9.24202
30
6.08
0
VERTEX
10
9.41275
20
9.25754
30
6.08
0
VERTEX
10
9.41719
20
9.26641
30
6.08
0
VERTEX
10
9.43271
20
9.28193
30
6.08
0
VERTEX
10
9.43493
20
9.2908
30
6.08
0
VERTEX
10
9.43936
20
9.29523
30
6.08
0
VERTEX
10
9.43714
20
9.36619
30
6.08
0
VERTEX
10
9.43714
20
9.37506
30
6.08
0
VERTEX
10
9.43271
20
9.38393
30
6.08
0
VERTEX
10
9.43493
20
9.45488
30
6.08
0
VERTEX
10
9.43049
20
9.49036
30
6.08
0
VERTEX
10
9.42384
20
9.49923
30
6.08
0
VERTEX
10
9.42162
20
9.5081
30
6.08
0
VERTEX
10
9.40832
20
9.51919
30
6.08
0
VERTEX
10
9.39945
20
9.52362
30
6.08
0
VERTEX
10
9.38171
20
9.52362
30
6.08
0
VERTEX
10
9.37728
20
9.52362
30
6.08
0
VERTEX
10
9.36841
20
9.53027
30
6.08
0
VERTEX
10
9.35954
20
9.53249
30
6.08
0
VERTEX
10
9.3551
20
9.53693
30
6.08
0
VERTEX
10
9.34623
20
9.53914
30
6.08
0
VERTEX
10
9.33071
20
9.55023
30
6.08
0
VERTEX
10
9.31297
20
9.55467
30
6.08
0
VERTEX
10
9.30854
20
9.55467
30
6.08
0
VERTEX
10
9.30632
20
9.5591
30
6.08
0
VERTEX
10
9.31519
20
9.56353
30
6.08
0
VERTEX
10
9.31741
20
9.56797
30
6.08
0
VERTEX
10
9.31519
20
9.5724
30
6.08
0
VERTEX
10
9.31075
20
9.5724
30
6.08
0
VERTEX
10
9.30188
20
9.56353
30
6.08
0
VERTEX
10
9.28415
20
9.55688
30
6.08
0
VERTEX
10
9.27528
20
9.55245
30
6.08
0
VERTEX
10
9.26862
20
9.54358
30
6.08
0
VERTEX
10
9.23536
20
9.52362
30
6.08
0
VERTEX
10
9.22649
20
9.5214
30
6.08
0
VERTEX
10
9.22206
20
9.51697
30
6.08
0
VERTEX
10
9.18658
20
9.51032
30
6.08
0
VERTEX
10
9.1511
20
9.51032
30
6.08
0
VERTEX
10
9.13336
20
9.51254
30
6.08
0
VERTEX
10
9.09789
20
9.52584
30
6.08
0
VERTEX
10
9.08015
20
9.52584
30
6.08
0
VERTEX
10
9.07571
20
9.5214
30
6.08
0
VERTEX
10
9.05797
20
9.51475
30
6.08
0
VERTEX
10
9.05132
20
9.49923
30
6.08
0
VERTEX
10
9.05354
20
9.46375
30
6.08
0
VERTEX
10
9.05576
20
9.44601
30
6.08
0
VERTEX
10
9.05354
20
9.42828
30
6.08
0
VERTEX
10
9.05354
20
9.41941
30
6.08
0
VERTEX
10
9.0491
20
9.41054
30
6.08
0
VERTEX
10
9.03137
20
9.40832
30
6.08
0
VERTEX
10
9.0225
20
9.4061
30
6.08
0
VERTEX
10
9.01806
20
9.4061
30
6.08
0
VERTEX
10
9.01363
20
9.40167
30
6.08
0
VERTEX
10
8.99589
20
9.40167
30
6.08
0
VERTEX
10
8.98702
20
9.39723
30
6.08
0
VERTEX
10
8.96928
20
9.39723
30
6.08
0
VERTEX
10
8.96041
20
9.39723
30
6.08
0
VERTEX
10
8.94489
20
9.37949
30
6.08
0
VERTEX
10
8.93824
20
9.37284
30
6.08
0
VERTEX
10
8.93602
20
9.3551
30
6.08
0
VERTEX
10
8.93602
20
9.34623
30
6.08
0
VERTEX
10
8.93602
20
9.3418
30
6.08
0
SEQEND
0
POLYLINE
62
31
66
1
70
1
3
contour
0
VERTEX
10
7.34512
20
9.21004
30
6.08
0
VERTEX
10
7.35045
20
9.19938
30
6.08
0
VERTEX
10
7.35311
20
9.17807
30
6.08
0
VERTEX
10
7.35578
20
9.16741
30
6.08
0
VERTEX
10
7.36377
20
9.15676
30
6.08
0
VERTEX
10
7.36377
20
9.15143
30
6.08
0
VERTEX
10
7.37976
20
9.13012
30
6.08
0
VERTEX
10
7.40107
20
9.11679
30
6.08
0
VERTEX
10
7.48632
20
9.11413
30
6.08
0
VERTEX
10
7.52895
20
9.11147
30
6.08
0
VERTEX
10
7.55026
20
9.11147
30
6.08
0
VERTEX
10
7.56092
20
9.10614
30
6.08
0
VERTEX
10
7.60355
20
9.09815
30
6.08
0
VERTEX
10
7.6888
20
9.06884
30
6.08
0
VERTEX
10
7.71011
20
9.05552
30
6.08
0
VERTEX
10
7.75274
20
9.05019
30
6.08
0
VERTEX
10
7.79537
20
9.05019
30
6.08
0
VERTEX
10
7.81668
20
9.05019
30
6.08
0
VERTEX
10
7.82734
20
9.05818
30
6.08
0
VERTEX
10
7.83266
20
9.06884
30
6.08
0
VERTEX
10
7.83266
20
9.07417
30
6.08
0
VERTEX
10
7.83799
20
9.07683
30
6.08
0
VERTEX
10
7.84332
20
9.09815
30
6.08
0
VERTEX
10
7.85131
20
9.1088
30
6.08
0
VERTEX
10
7.85131
20
9.11413
30
6.08
0
VERTEX
10
7.88062
20
9.15409
30
6.08
0
VERTEX
10
7.89394
20
9.17274
30
6.08
0
VERTEX
10
7.89394
20
9.17807
30
6.08
0
VERTEX
10
7.91259
20
9.19938
30
6.08
0
VERTEX
10
7.91792
20
9.20471
30
6.08
0
VERTEX
10
7.92325
20
9.20471
30
6.08
0
VERTEX
10
7.93124
20
9.21537
30
6.08
0
VERTEX
10
7.9419
20
9.2207
30
6.08
0
VERTEX
10
7.94722
20
9.22603
30
6.08
0
VERTEX
10
7.94989
20
9.26865
30
6.08
0
VERTEX
10
7.94722
20
9.31128
30
6.08
0
VERTEX
10
7.94456
20
9.32194
30
6.08
0
VERTEX
10
7.93124
20
9.34325
30
6.08
0
VERTEX
10
7.92591
20
9.36456
30
6.08
0
VERTEX
10
7.91792
20
9.37256
30
6.08
0
VERTEX
10
7.91792
20
9.37788
30
6.08
0
VERTEX
10
7.8966
20
9.39653
30
6.08
0
VERTEX
10
7.88062
20
9.41518
30
6.08
0
VERTEX
10
7.85931
20
9.43117
30
6.08
0
VERTEX
10
7.84332
20
9.44982
30
6.08
0
VERTEX
10
7.83533
20
9.46047
30
6.08
0
VERTEX
10
7.83
20
9.4658
30
6.08
0
VERTEX
10
7.81934
20
9.45781
30
6.08
0
VERTEX
10
7.77672
20
9.45781
30
6.08
0
VERTEX
10
7.7554
20
9.44982
30
6.08
0
VERTEX
10
7.71278
20
9.44715
30
6.08
0
VERTEX
10
7.70212
20
9.44715
30
6.08
0
VERTEX
10
7.69146
20
9.43916
30
6.08
0
VERTEX
10
7.67015
20
9.4365
30
6.08
0
VERTEX
10
7.64884
20
9.4285
30
6.08
0
VERTEX
10
7.56358
20
9.42317
30
6.08
0
VERTEX
10
7.47833
20
9.42584
30
6.08
0
VERTEX
10
7.4357
20
9.4285
30
6.08
0
VERTEX
10
7.42505
20
9.42584
30
6.08
0
VERTEX
10
7.3984
20
9.38588
30
6.08
0
VERTEX
10
7.39308
20
9.36456
30
6.08
0
VERTEX
10
7.38242
20
9.34325
30
6.08
0
VERTEX
10
7.37976
20
9.33259
30
6.08
0
VERTEX
10
7.37176
20
9.32194
30
6.08
0
VERTEX
10
7.3691
20
9.31128
30
6.08
0
VERTEX
10
7.3691
20
9.30595
30
6.08
0
VERTEX
10
7.36111
20
9.29529
30
6.08
0
VERTEX
10
7.35578
20
9.29263
30
6.08
0
VERTEX
10
7.35578
20
9.28197
30
6.08
0
VERTEX
10
7.35045
20
9.27665
30
6.08
0
VERTEX
10
7.34512
20
9.23402
30
6.08
0
VERTEX
10
7.34512
20
9.21271
30
6.08
0
SEQEND
0
POLYLINE
62
224
66
1
70
1
3
mitochondrion
0
VERTEX
10
9.16015
20
9.35342
30
6.08
0
VERTEX
10
9.16571
20
9.33118
30
6.08
0
VERTEX
10
9.17684
20
9.31032
30
6.08
0
VERTEX
10
9.18657
20
9.30198
30
6.08
0
VERTEX
10
9.20882
20
9.29641
30
6.08
0
VERTEX
10
9.25331
20
9.30059
30
6.08
0
VERTEX
10
9.27278
20
9.31032
30
6.08
0
VERTEX
10
9.28946
20
9.32561
30
6.08
0
VERTEX
10
9.30059
20
9.33118
30
6.08
0
VERTEX
10
9.31171
20
9.33396
30
6.08
0
VERTEX
10
9.31727
20
9.33813
30
6.08
0
VERTEX
10
9.31727
20
9.34091
30
6.08
0
VERTEX
10
9.32422
20
9.35064
30
6.08
0
VERTEX
10
9.32283
20
9.3562
30
6.08
0
VERTEX
10
9.327
20
9.36594
30
6.08
0
VERTEX
10
9.327
20
9.38818
30
6.08
0
VERTEX
10
9.32561
20
9.39931
30
6.08
0
VERTEX
10
9.32144
20
9.40348
30
6.08
0
VERTEX
10
9.32005
20
9.40904
30
6.08
0
VERTEX
10
9.31588
20
9.4146
30
6.08
0
VERTEX
10
9.3131
20
9.42572
30
6.08
0
VERTEX
10
9.30337
20
9.43546
30
6.08
0
VERTEX
10
9.29224
20
9.44241
30
6.08
0
VERTEX
10
9.2839
20
9.45075
30
6.08
0
VERTEX
10
9.26165
20
9.45492
30
6.08
0
VERTEX
10
9.21716
20
9.45214
30
6.08
0
VERTEX
10
9.2116
20
9.44936
30
6.08
0
VERTEX
10
9.20047
20
9.44936
30
6.08
0
VERTEX
10
9.19491
20
9.44658
30
6.08
0
VERTEX
10
9.19213
20
9.44658
30
6.08
0
VERTEX
10
9.18379
20
9.43546
30
6.08
0
VERTEX
10
9.16849
20
9.39235
30
6.08
0
VERTEX
10
9.16154
20
9.37011
30
6.08
0
VERTEX
10
9.16154
20
9.35898
30
6.08
0
VERTEX
10
9.16015
20
9.35481
30
6.08
0
SEQEND
0
POLYLINE
62
227
66
1
70
1
3
endoplasmic_reticulum
0
VERTEX
10
9.21649
20
9.46484
30
6.08
0
VERTEX
10
9.22187
20
9.45946
30
6.08
0
VERTEX
10
9.22905
20
9.45677
30
6.08
0
VERTEX
10
9.24339
20
9.45766
30
6.08
0
VERTEX
10
9.24698
20
9.45766
30
6.08
0
VERTEX
10
9.25325
20
9.46035
30
6.08
0
VERTEX
10
9.26042
20
9.46125
30
6.08
0
VERTEX
10
9.2676
20
9.46484
30
6.08
0
VERTEX
10
9.27477
20
9.46484
30
6.08
0
VERTEX
10
9.27656
20
9.46663
30
6.08
0
VERTEX
10
9.27836
20
9.46663
30
6.08
0
VERTEX
10
9.28194
20
9.46932
30
6.08
0
VERTEX
10
9.28373
20
9.46932
30
6.08
0
VERTEX
10
9.28463
20
9.47649
30
6.08
0
VERTEX
10
9.28284
20
9.48008
30
6.08
0
VERTEX
10
9.28284
20
9.48187
30
6.08
0
VERTEX
10
9.27656
20
9.48725
30
6.08
0
VERTEX
10
9.26939
20
9.48815
30
6.08
0
VERTEX
10
9.2407
20
9.48366
30
6.08
0
VERTEX
10
9.23353
20
9.48098
30
6.08
0
VERTEX
10
9.23084
20
9.48008
30
6.08
0
VERTEX
10
9.22725
20
9.47739
30
6.08
0
VERTEX
10
9.22546
20
9.4756
30
6.08
0
VERTEX
10
9.22187
20
9.4747
30
6.08
0
VERTEX
10
9.21918
20
9.47201
30
6.08
0
VERTEX
10
9.21739
20
9.47201
30
6.08
0
VERTEX
10
9.21649
20
9.46573
30
6.08
0
SEQEND
0
POLYLINE
62
227
66
1
70
1
3
endoplasmic_reticulum
0
VERTEX
10
9.26401
20
9.48904
30
6.08
0
VERTEX
10
9.27836
20
9.4747
30
6.08
0
VERTEX
10
9.28194
20
9.47111
30
6.08
0
VERTEX
10
9.28911
20
9.47201
30
6.08
0
VERTEX
10
9.29539
20
9.47739
30
6.08
0
VERTEX
10
9.29718
20
9.48008
30
6.08
0
VERTEX
10
9.29718
20
9.49442
30
6.08
0
VERTEX
10
9.2918
20
9.5016
30
6.08
0
VERTEX
10
9.28463
20
9.50249
30
6.08
0
VERTEX
10
9.27746
20
9.5016
30
6.08
0
VERTEX
10
9.27567
20
9.5016
30
6.08
0
VERTEX
10
9.26401
20
9.48994
30
6.08
0
SEQEND
0
POLYLINE
62
227
66
1
70
1
3
endoplasmic_reticulum
0
VERTEX
10
9.05512
20
9.36711
30
6.08
0
VERTEX
10
9.05781
20
9.36442
30
6.08
0
VERTEX
10
9.0587
20
9.36084
30
6.08
0
VERTEX
10
9.0587
20
9.35904
30
6.08
0
VERTEX
10
9.06229
20
9.35546
30
6.08
0
VERTEX
10
9.06408
20
9.35546
30
6.08
0
VERTEX
10
9.06587
20
9.35367
30
6.08
0
VERTEX
10
9.07305
20
9.35277
30
6.08
0
VERTEX
10
9.07663
20
9.35008
30
6.08
0
VERTEX
10
9.09098
20
9.34918
30
6.08
0
VERTEX
10
9.09815
20
9.35098
30
6.08
0
VERTEX
10
9.09994
20
9.35277
30
6.08
0
VERTEX
10
9.10353
20
9.35367
30
6.08
0
VERTEX
10
9.10622
20
9.35725
30
6.08
0
VERTEX
10
9.10712
20
9.3716
30
6.08
0
VERTEX
10
9.10622
20
9.38594
30
6.08
0
VERTEX
10
9.10622
20
9.38953
30
6.08
0
VERTEX
10
9.10263
20
9.39222
30
6.08
0
VERTEX
10
9.09546
20
9.39311
30
6.08
0
VERTEX
10
9.09187
20
9.39401
30
6.08
0
VERTEX
10
9.09098
20
9.3958
30
6.08
0
VERTEX
10
9.07663
20
9.3976
30
6.08
0
VERTEX
10
9.06946
20
9.3976
30
6.08
0
VERTEX
10
9.06587
20
9.3976
30
6.08
0
VERTEX
10
9.0587
20
9.39491
30
6.08
0
VERTEX
10
9.05691
20
9.39401
30
6.08
0
VERTEX
10
9.05691
20
9.39222
30
6.08
0
VERTEX
10
9.05512
20
9.39042
30
6.08
0
VERTEX
10
9.05512
20
9.37608
30
6.08
0
VERTEX
10
9.05512
20
9.36891
30
6.08
0
VERTEX
10
9.05512
20
9.36801
30
6.08
0
SEQEND
0
POLYLINE
62
236
66
1
70
1
3
postsynaptic_density
0
VERTEX
10
7.41957
20
9.02453
30
6.08
0
VERTEX
10
7.44991
20
8.97058
30
6.08
0
VERTEX
10
7.45666
20
8.95709
30
6.08
0
VERTEX
10
7.47015
20
8.94866
30
6.08
0
VERTEX
10
7.52409
20
8.93855
30
6.08
0
VERTEX
10
7.57804
20
8.91663
30
6.08
0
VERTEX
10
7.59153
20
8.91326
30
6.08
0
VERTEX
10
7.60502
20
8.90652
30
6.08
0
VERTEX
10
7.63199
20
8.89809
30
6.08
0
VERTEX
10
7.64548
20
8.8964
30
6.08
0
VERTEX
10
7.65896
20
8.89809
30
6.08
0
VERTEX
10
7.67245
20
8.90315
30
6.08
0
VERTEX
10
7.67919
20
8.90315
30
6.08
0
VERTEX
10
7.70617
20
8.91832
30
6.08
0
VERTEX
10
7.72809
20
8.94024
30
6.08
0
VERTEX
10
7.73989
20
8.95035
30
6.08
0
VERTEX
10
7.74832
20
8.96384
30
6.08
0
VERTEX
10
7.75169
20
8.96721
30
6.08
0
VERTEX
10
7.75169
20
8.97395
30
6.08
0
VERTEX
10
7.75843
20
8.98744
30
6.08
0
VERTEX
10
7.7618
20
9.01441
30
6.08
0
VERTEX
10
7.76517
20
9.02116
30
6.08
0
VERTEX
10
7.76855
20
9.04813
30
6.08
0
VERTEX
10
7.76855
20
9.05488
30
6.08
0
VERTEX
10
7.77192
20
9.06162
30
6.08
0
VERTEX
10
7.77192
20
9.06499
30
6.08
0
VERTEX
10
7.77529
20
9.06836
30
6.08
0
VERTEX
10
7.77866
20
9.09534
30
6.08
0
VERTEX
10
7.77023
20
9.12231
30
6.08
0
VERTEX
10
7.76686
20
9.12568
30
6.08
0
VERTEX
10
7.76686
20
9.12905
30
6.08
0
VERTEX
10
7.74832
20
9.15434
30
6.08
0
VERTEX
10
7.74157
20
9.15434
30
6.08
0
VERTEX
10
7.73483
20
9.1594
30
6.08
0
VERTEX
10
7.73146
20
9.1594
30
6.08
0
VERTEX
10
7.72977
20
9.16277
30
6.08
0
VERTEX
10
7.72303
20
9.16277
30
6.08
0
VERTEX
10
7.66908
20
9.18132
30
6.08
0
VERTEX
10
7.64211
20
9.18637
30
6.08
0
VERTEX
10
7.61513
20
9.18806
30
6.08
0
VERTEX
10
7.60164
20
9.19143
30
6.08
0
VERTEX
10
7.5949
20
9.19312
30
6.08
0
VERTEX
10
7.58141
20
9.20323
30
6.08
0
VERTEX
10
7.56793
20
9.20998
30
6.08
0
VERTEX
10
7.54095
20
9.21166
30
6.08
0
VERTEX
10
7.52747
20
9.21166
30
6.08
0
VERTEX
10
7.52072
20
9.21166
30
6.08
0
VERTEX
10
7.51398
20
9.20829
30
6.08
0
VERTEX
10
7.50049
20
9.20829
30
6.08
0
VERTEX
10
7.487
20
9.19649
30
6.08
0
VERTEX
10
7.48026
20
9.1948
30
6.08
0
VERTEX
10
7.4752
20
9.18975
30
6.08
0
VERTEX
10
7.46846
20
9.18806
30
6.08
0
VERTEX
10
7.46172
20
9.18132
30
6.08
0
VERTEX
10
7.45497
20
9.17794
30
6.08
0
VERTEX
10
7.44317
20
9.16614
30
6.08
0
VERTEX
10
7.44149
20
9.1594
30
6.08
0
VERTEX
10
7.43643
20
9.15434
30
6.08
0
VERTEX
10
7.43306
20
9.14086
30
6.08
0
VERTEX
10
7.42968
20
9.13917
30
6.08
0
VERTEX
10
7.42294
20
9.03127
30
6.08
0
VERTEX
10
7.42125
20
9.02622
30
6.08
0
SEQEND
0
ENDSEC
0
EOF
