0
SECTION
2
ENTITIES
0
POLYLINE
62
31
66
1
70
1
3
contour
0
VERTEX
10
7.51217
20
10.2511
30
8.76
0
VERTEX
10
7.54839
20
10.2017
30
8.76
0
VERTEX
10
7.56485
20
10.1786
30
8.76
0
VERTEX
10
7.57472
20
10.1589
30
8.76
0
VERTEX
10
7.5813
20
10.1523
30
8.76
0
VERTEX
10
7.5813
20
10.1457
30
8.76
0
VERTEX
10
7.60106
20
10.1194
30
8.76
0
VERTEX
10
7.61422
20
10.1062
30
8.76
0
VERTEX
10
7.63727
20
10.093
30
8.76
0
VERTEX
10
7.65373
20
10.0733
30
8.76
0
VERTEX
10
7.68006
20
10.0667
30
8.76
0
VERTEX
10
7.69323
20
10.0601
30
8.76
0
VERTEX
10
7.71957
20
10.0568
30
8.76
0
VERTEX
10
7.7459
20
10.0437
30
8.76
0
VERTEX
10
7.75907
20
10.0404
30
8.76
0
VERTEX
10
7.76565
20
10.0404
30
8.76
0
VERTEX
10
7.77882
20
10.0305
30
8.76
0
VERTEX
10
7.80516
20
10.0305
30
8.76
0
VERTEX
10
7.83149
20
10.0239
30
8.76
0
VERTEX
10
7.84466
20
10.0239
30
8.76
0
VERTEX
10
7.85783
20
10.0173
30
8.76
0
VERTEX
10
7.9105
20
10.014
30
8.76
0
VERTEX
10
7.92366
20
10.0107
30
8.76
0
VERTEX
10
7.93025
20
10.0107
30
8.76
0
VERTEX
10
7.93683
20
10.0042
30
8.76
0
VERTEX
10
7.9895
20
9.9877
30
8.76
0
VERTEX
10
8.01584
20
9.98441
30
8.76
0
VERTEX
10
8.06851
20
9.96795
30
8.76
0
VERTEX
10
8.09485
20
9.95149
30
8.76
0
VERTEX
10
8.12118
20
9.9482
30
8.76
0
VERTEX
10
8.14752
20
9.95149
30
8.76
0
VERTEX
10
8.16068
20
9.95149
30
8.76
0
VERTEX
10
8.18702
20
9.96137
30
8.76
0
VERTEX
10
8.1936
20
9.96137
30
8.76
0
VERTEX
10
8.20348
20
9.9877
30
8.76
0
VERTEX
10
8.20019
20
9.99429
30
8.76
0
VERTEX
10
8.21335
20
10.0075
30
8.76
0
VERTEX
10
8.2364
20
10.0568
30
8.76
0
VERTEX
10
8.23969
20
10.07
30
8.76
0
VERTEX
10
8.25615
20
10.0898
30
8.76
0
VERTEX
10
8.26932
20
10.1161
30
8.76
0
VERTEX
10
8.2759
20
10.1194
30
8.76
0
VERTEX
10
8.27919
20
10.2247
30
8.76
0
VERTEX
10
8.27919
20
10.2774
30
8.76
0
VERTEX
10
8.29236
20
10.3037
30
8.76
0
VERTEX
10
8.33845
20
10.3465
30
8.76
0
VERTEX
10
8.36478
20
10.3696
30
8.76
0
VERTEX
10
8.39112
20
10.386
30
8.76
0
VERTEX
10
8.40099
20
10.3959
30
8.76
0
VERTEX
10
8.41416
20
10.3992
30
8.76
0
VERTEX
10
8.41745
20
10.4519
30
8.76
0
VERTEX
10
8.40429
20
10.5045
30
8.76
0
VERTEX
10
8.39441
20
10.5309
30
8.76
0
VERTEX
10
8.39112
20
10.544
30
8.76
0
VERTEX
10
8.39112
20
10.5506
30
8.76
0
VERTEX
10
8.38453
20
10.5572
30
8.76
0
VERTEX
10
8.38124
20
10.5704
30
8.76
0
VERTEX
10
8.37137
20
10.5835
30
8.76
0
VERTEX
10
8.34832
20
10.5967
30
8.76
0
VERTEX
10
8.33516
20
10.6
30
8.76
0
VERTEX
10
8.32528
20
10.6099
30
8.76
0
VERTEX
10
8.29894
20
10.6132
30
8.76
0
VERTEX
10
8.29236
20
10.6132
30
8.76
0
VERTEX
10
8.26603
20
10.6296
30
8.76
0
VERTEX
10
8.05534
20
10.6362
30
8.76
0
VERTEX
10
8.00267
20
10.6362
30
8.76
0
VERTEX
10
7.89733
20
10.6494
30
8.76
0
VERTEX
10
7.87099
20
10.6494
30
8.76
0
VERTEX
10
7.86441
20
10.6625
30
8.76
0
VERTEX
10
7.83807
20
10.6658
30
8.76
0
VERTEX
10
7.81174
20
10.6593
30
8.76
0
VERTEX
10
7.80516
20
10.6593
30
8.76
0
VERTEX
10
7.78211
20
10.6395
30
8.76
0
VERTEX
10
7.75578
20
10.6296
30
8.76
0
VERTEX
10
7.72944
20
10.6132
30
8.76
0
VERTEX
10
7.71298
20
10.5934
30
8.76
0
VERTEX
10
7.70311
20
10.5802
30
8.76
0
VERTEX
10
7.69652
20
10.5539
30
8.76
0
VERTEX
10
7.68994
20
10.5506
30
8.76
0
VERTEX
10
7.68665
20
10.5375
30
8.76
0
VERTEX
10
7.67019
20
10.5144
30
8.76
0
VERTEX
10
7.66031
20
10.4881
30
8.76
0
VERTEX
10
7.64714
20
10.4782
30
8.76
0
VERTEX
10
7.63727
20
10.4749
30
8.76
0
VERTEX
10
7.63068
20
10.4617
30
8.76
0
VERTEX
10
7.63068
20
10.4552
30
8.76
0
VERTEX
10
7.61752
20
10.442
30
8.76
0
VERTEX
10
7.61752
20
10.4354
30
8.76
0
VERTEX
10
7.60435
20
10.4222
30
8.76
0
VERTEX
10
7.59776
20
10.4124
30
8.76
0
VERTEX
10
7.59118
20
10.4091
30
8.76
0
VERTEX
10
7.58789
20
10.3959
30
8.76
0
VERTEX
10
7.56155
20
10.3761
30
8.76
0
VERTEX
10
7.54509
20
10.3498
30
8.76
0
VERTEX
10
7.52205
20
10.3268
30
8.76
0
VERTEX
10
7.51217
20
10.3004
30
8.76
0
VERTEX
10
7.51217
20
10.2741
30
8.76
0
VERTEX
10
7.51217
20
10.2609
30
8.76
0
VERTEX
10
7.51217
20
10.2543
30
8.76
0
SEQEND
0
POLYLINE
62
31
66
1
70
1
3
contour
0
VERTEX
10
7.20464
20
9.64828
30
8.76
0
VERTEX
10
7.21318
20
9.63463
30
8.76
0
VERTEX
10
7.21829
20
9.62781
30
8.76
0
VERTEX
10
7.22512
20
9.62439
30
8.76
0
VERTEX
10
7.23024
20
9.61757
30
8.76
0
VERTEX
10
7.25754
20
9.61586
30
8.76
0
VERTEX
10
7.27119
20
9.61245
30
8.76
0
VERTEX
10
7.2985
20
9.61074
30
8.76
0
VERTEX
10
7.30191
20
9.60733
30
8.76
0
VERTEX
10
7.31556
20
9.60392
30
8.76
0
VERTEX
10
7.31898
20
9.60392
30
8.76
0
VERTEX
10
7.32239
20
9.6005
30
8.76
0
VERTEX
10
7.33604
20
9.59709
30
8.76
0
VERTEX
10
7.34287
20
9.59197
30
8.76
0
VERTEX
10
7.37017
20
9.58173
30
8.76
0
VERTEX
10
7.37699
20
9.57832
30
8.76
0
VERTEX
10
7.38211
20
9.57149
30
8.76
0
VERTEX
10
7.39406
20
9.56296
30
8.76
0
VERTEX
10
7.39918
20
9.55613
30
8.76
0
VERTEX
10
7.41283
20
9.54931
30
8.76
0
VERTEX
10
7.42648
20
9.5476
30
8.76
0
VERTEX
10
7.44013
20
9.55102
30
8.76
0
VERTEX
10
7.44696
20
9.55102
30
8.76
0
VERTEX
10
7.45379
20
9.55443
30
8.76
0
VERTEX
10
7.4572
20
9.55784
30
8.76
0
VERTEX
10
7.46914
20
9.56296
30
8.76
0
VERTEX
10
7.47597
20
9.56467
30
8.76
0
VERTEX
10
7.48962
20
9.57491
30
8.76
0
VERTEX
10
7.49645
20
9.58003
30
8.76
0
VERTEX
10
7.49815
20
9.58685
30
8.76
0
VERTEX
10
7.5101
20
9.59709
30
8.76
0
VERTEX
10
7.51351
20
9.6005
30
8.76
0
VERTEX
10
7.52034
20
9.60221
30
8.76
0
VERTEX
10
7.52204
20
9.60562
30
8.76
0
VERTEX
10
7.52546
20
9.60562
30
8.76
0
VERTEX
10
7.53911
20
9.61757
30
8.76
0
VERTEX
10
7.54764
20
9.63122
30
8.76
0
VERTEX
10
7.55105
20
9.64487
30
8.76
0
VERTEX
10
7.54593
20
9.69948
30
8.76
0
VERTEX
10
7.54423
20
9.7063
30
8.76
0
VERTEX
10
7.54423
20
9.70972
30
8.76
0
VERTEX
10
7.53911
20
9.71654
30
8.76
0
VERTEX
10
7.5374
20
9.72337
30
8.76
0
VERTEX
10
7.51863
20
9.75067
30
8.76
0
VERTEX
10
7.49815
20
9.77456
30
8.76
0
VERTEX
10
7.49474
20
9.77797
30
8.76
0
VERTEX
10
7.48962
20
9.79163
30
8.76
0
VERTEX
10
7.48621
20
9.79845
30
8.76
0
VERTEX
10
7.47256
20
9.80869
30
8.76
0
VERTEX
10
7.46573
20
9.81381
30
8.76
0
VERTEX
10
7.43843
20
9.81722
30
8.76
0
VERTEX
10
7.41112
20
9.81722
30
8.76
0
VERTEX
10
7.40771
20
9.81722
30
8.76
0
VERTEX
10
7.4043
20
9.81381
30
8.76
0
VERTEX
10
7.39065
20
9.80869
30
8.76
0
VERTEX
10
7.37699
20
9.80016
30
8.76
0
VERTEX
10
7.37017
20
9.79674
30
8.76
0
VERTEX
10
7.36676
20
9.79333
30
8.76
0
VERTEX
10
7.3531
20
9.78992
30
8.76
0
VERTEX
10
7.34116
20
9.78139
30
8.76
0
VERTEX
10
7.33604
20
9.77285
30
8.76
0
VERTEX
10
7.32921
20
9.76944
30
8.76
0
VERTEX
10
7.3258
20
9.76944
30
8.76
0
VERTEX
10
7.32409
20
9.76262
30
8.76
0
VERTEX
10
7.29679
20
9.75408
30
8.76
0
VERTEX
10
7.29509
20
9.75067
30
8.76
0
VERTEX
10
7.28143
20
9.74726
30
8.76
0
VERTEX
10
7.27461
20
9.74214
30
8.76
0
VERTEX
10
7.26096
20
9.73873
30
8.76
0
VERTEX
10
7.25072
20
9.73019
30
8.76
0
VERTEX
10
7.23707
20
9.72166
30
8.76
0
VERTEX
10
7.21488
20
9.69777
30
8.76
0
VERTEX
10
7.21147
20
9.68412
30
8.76
0
VERTEX
10
7.20464
20
9.67047
30
8.76
0
VERTEX
10
7.20464
20
9.65682
30
8.76
0
VERTEX
10
7.20464
20
9.64999
30
8.76
0
SEQEND
0
POLYLINE
62
224
66
1
70
1
3
mitochondrion
0
VERTEX
10
7.7155
20
10.2934
30
8.76
0
VERTEX
10
7.71828
20
10.292
30
8.76
0
VERTEX
10
7.72384
20
10.2697
30
8.76
0
VERTEX
10
7.72662
20
10.2642
30
8.76
0
VERTEX
10
7.7294
20
10.2614
30
8.76
0
VERTEX
10
7.7294
20
10.2586
30
8.76
0
VERTEX
10
7.73218
20
10.2558
30
8.76
0
VERTEX
10
7.73218
20
10.253
30
8.76
0
VERTEX
10
7.73496
20
10.2502
30
8.76
0
VERTEX
10
7.73496
20
10.2475
30
8.76
0
VERTEX
10
7.73913
20
10.2419
30
8.76
0
VERTEX
10
7.74052
20
10.2363
30
8.76
0
VERTEX
10
7.75026
20
10.2266
30
8.76
0
VERTEX
10
7.75026
20
10.2238
30
8.76
0
VERTEX
10
7.75999
20
10.2155
30
8.76
0
VERTEX
10
7.76694
20
10.2085
30
8.76
0
VERTEX
10
7.76972
20
10.2085
30
8.76
0
VERTEX
10
7.78085
20
10.1988
30
8.76
0
VERTEX
10
7.78363
20
10.1932
30
8.76
0
VERTEX
10
7.78919
20
10.1932
30
8.76
0
VERTEX
10
7.80031
20
10.1877
30
8.76
0
VERTEX
10
7.80587
20
10.1877
30
8.76
0
VERTEX
10
7.817
20
10.1821
30
8.76
0
VERTEX
10
7.86149
20
10.1696
30
8.76
0
VERTEX
10
7.87261
20
10.1668
30
8.76
0
VERTEX
10
7.89486
20
10.1682
30
8.76
0
VERTEX
10
7.90598
20
10.1682
30
8.76
0
VERTEX
10
7.91711
20
10.171
30
8.76
0
VERTEX
10
7.93518
20
10.1877
30
8.76
0
VERTEX
10
7.94492
20
10.196
30
8.76
0
VERTEX
10
7.95048
20
10.2016
30
8.76
0
VERTEX
10
7.95604
20
10.2044
30
8.76
0
VERTEX
10
7.97412
20
10.2266
30
8.76
0
VERTEX
10
7.97412
20
10.2294
30
8.76
0
VERTEX
10
7.9769
20
10.2322
30
8.76
0
VERTEX
10
7.97829
20
10.2377
30
8.76
0
VERTEX
10
7.98246
20
10.2433
30
8.76
0
VERTEX
10
7.98385
20
10.2489
30
8.76
0
VERTEX
10
7.98802
20
10.253
30
8.76
0
VERTEX
10
7.98941
20
10.2753
30
8.76
0
VERTEX
10
7.99219
20
10.2808
30
8.76
0
VERTEX
10
7.99358
20
10.3253
30
8.76
0
VERTEX
10
7.99358
20
10.3476
30
8.76
0
VERTEX
10
7.99219
20
10.3587
30
8.76
0
VERTEX
10
7.98663
20
10.3698
30
8.76
0
VERTEX
10
7.98663
20
10.3754
30
8.76
0
VERTEX
10
7.98246
20
10.3865
30
8.76
0
VERTEX
10
7.97829
20
10.3921
30
8.76
0
VERTEX
10
7.97133
20
10.4143
30
8.76
0
VERTEX
10
7.95604
20
10.4352
30
8.76
0
VERTEX
10
7.95187
20
10.4407
30
8.76
0
VERTEX
10
7.95048
20
10.4435
30
8.76
0
VERTEX
10
7.95326
20
10.4435
30
8.76
0
VERTEX
10
7.95465
20
10.4463
30
8.76
0
VERTEX
10
7.93935
20
10.4672
30
8.76
0
VERTEX
10
7.93935
20
10.4699
30
8.76
0
VERTEX
10
7.91711
20
10.4852
30
8.76
0
VERTEX
10
7.90737
20
10.4894
30
8.76
0
VERTEX
10
7.88513
20
10.4908
30
8.76
0
VERTEX
10
7.87957
20
10.4894
30
8.76
0
VERTEX
10
7.86983
20
10.4797
30
8.76
0
VERTEX
10
7.86427
20
10.4755
30
8.76
0
VERTEX
10
7.84202
20
10.4727
30
8.76
0
VERTEX
10
7.8309
20
10.4727
30
8.76
0
VERTEX
10
7.81978
20
10.4699
30
8.76
0
VERTEX
10
7.81422
20
10.4699
30
8.76
0
VERTEX
10
7.77111
20
10.438
30
8.76
0
VERTEX
10
7.76555
20
10.4352
30
8.76
0
VERTEX
10
7.75999
20
10.4296
30
8.76
0
VERTEX
10
7.75582
20
10.4268
30
8.76
0
VERTEX
10
7.73774
20
10.4046
30
8.76
0
VERTEX
10
7.73079
20
10.3935
30
8.76
0
VERTEX
10
7.72801
20
10.3823
30
8.76
0
VERTEX
10
7.72106
20
10.3712
30
8.76
0
VERTEX
10
7.72106
20
10.3657
30
8.76
0
VERTEX
10
7.71828
20
10.3629
30
8.76
0
VERTEX
10
7.71689
20
10.3184
30
8.76
0
VERTEX
10
7.7155
20
10.2961
30
8.76
0
VERTEX
10
7.7155
20
10.2947
30
8.76
0
SEQEND
0
POLYLINE
62
236
66
1
70
1
3
postsynaptic_density
0
VERTEX
10
7.25031
20
9.62042
30
8.76
0
VERTEX
10
7.25217
20
9.61295
30
8.76
0
VERTEX
10
7.25217
20
9.60922
30
8.76
0
VERTEX
10
7.2559
20
9.60549
30
8.76
0
VERTEX
10
7.2559
20
9.60176
30
8.76
0
VERTEX
10
7.26337
20
9.59616
30
8.76
0
VERTEX
10
7.26337
20
9.59242
30
8.76
0
VERTEX
10
7.29323
20
9.58496
30
8.76
0
VERTEX
10
7.30069
20
9.58123
30
8.76
0
VERTEX
10
7.30443
20
9.58123
30
8.76
0
VERTEX
10
7.31002
20
9.57563
30
8.76
0
VERTEX
10
7.31749
20
9.57376
30
8.76
0
VERTEX
10
7.32495
20
9.56816
30
8.76
0
VERTEX
10
7.33242
20
9.5663
30
8.76
0
VERTEX
10
7.34548
20
9.55697
30
8.76
0
VERTEX
10
7.37534
20
9.55883
30
8.76
0
VERTEX
10
7.38094
20
9.56443
30
8.76
0
VERTEX
10
7.39587
20
9.56816
30
8.76
0
VERTEX
10
7.40147
20
9.57376
30
8.76
0
VERTEX
10
7.3996
20
9.58869
30
8.76
0
VERTEX
10
7.40147
20
9.60362
30
8.76
0
VERTEX
10
7.37348
20
9.62228
30
8.76
0
VERTEX
10
7.31376
20
9.65401
30
8.76
0
VERTEX
10
7.29883
20
9.66147
30
8.76
0
VERTEX
10
7.2839
20
9.66147
30
8.76
0
VERTEX
10
7.26897
20
9.65774
30
8.76
0
VERTEX
10
7.2615
20
9.65401
30
8.76
0
VERTEX
10
7.25217
20
9.63908
30
8.76
0
VERTEX
10
7.25031
20
9.62415
30
8.76
0
VERTEX
10
7.25031
20
9.62228
30
8.76
0
SEQEND
0
POLYLINE
62
227
66
1
70
1
3
endoplasmic_reticulum
0
VERTEX
10
7.5543
20
10.2663
30
8.76
0
VERTEX
10
7.55609
20
10.2646
30
8.76
0
VERTEX
10
7.55968
20
10.2359
30
8.76
0
VERTEX
10
7.56147
20
10.2287
30
8.76
0
VERTEX
10
7.56147
20
10.2251
30
8.76
0
VERTEX
10
7.57402
20
10.2152
30
8.76
0
VERTEX
10
7.5803
20
10.2108
30
8.76
0
VERTEX
10
7.58388
20
10.2099
30
8.76
0
VERTEX
10
7.59106
20
10.2045
30
8.76
0
VERTEX
10
7.59195
20
10.2009
30
8.76
0
VERTEX
10
7.59554
20
10.1991
30
8.76
0
VERTEX
10
7.60092
20
10.1928
30
8.76
0
VERTEX
10
7.60092
20
10.191
30
8.76
0
VERTEX
10
7.60809
20
10.1857
30
8.76
0
VERTEX
10
7.61347
20
10.1803
30
8.76
0
VERTEX
10
7.61706
20
10.1776
30
8.76
0
VERTEX
10
7.62423
20
10.1758
30
8.76
0
VERTEX
10
7.62781
20
10.174
30
8.76
0
VERTEX
10
7.6565
20
10.1695
30
8.76
0
VERTEX
10
7.67085
20
10.1677
30
8.76
0
VERTEX
10
7.68519
20
10.1686
30
8.76
0
VERTEX
10
7.68878
20
10.1704
30
8.76
0
VERTEX
10
7.69057
20
10.1704
30
8.76
0
VERTEX
10
7.69237
20
10.1722
30
8.76
0
VERTEX
10
7.69595
20
10.1731
30
8.76
0
VERTEX
10
7.70043
20
10.1803
30
8.76
0
VERTEX
10
7.70133
20
10.1875
30
8.76
0
VERTEX
10
7.70133
20
10.1892
30
8.76
0
VERTEX
10
7.69954
20
10.191
30
8.76
0
VERTEX
10
7.69954
20
10.1928
30
8.76
0
VERTEX
10
7.69506
20
10.2
30
8.76
0
VERTEX
10
7.69416
20
10.2036
30
8.76
0
VERTEX
10
7.68071
20
10.2161
30
8.76
0
VERTEX
10
7.67981
20
10.2179
30
8.76
0
VERTEX
10
7.67802
20
10.2179
30
8.76
0
VERTEX
10
7.67533
20
10.2215
30
8.76
0
VERTEX
10
7.67264
20
10.2287
30
8.76
0
VERTEX
10
7.67264
20
10.2323
30
8.76
0
VERTEX
10
7.66995
20
10.2359
30
8.76
0
VERTEX
10
7.66906
20
10.243
30
8.76
0
VERTEX
10
7.65919
20
10.2556
30
8.76
0
VERTEX
10
7.6565
20
10.2592
30
8.76
0
VERTEX
10
7.64216
20
10.2601
30
8.76
0
VERTEX
10
7.62781
20
10.2556
30
8.76
0
VERTEX
10
7.62064
20
10.2511
30
8.76
0
VERTEX
10
7.61347
20
10.2493
30
8.76
0
VERTEX
10
7.6063
20
10.2493
30
8.76
0
VERTEX
10
7.60271
20
10.2493
30
8.76
0
VERTEX
10
7.59644
20
10.2538
30
8.76
0
VERTEX
10
7.59912
20
10.2681
30
8.76
0
VERTEX
10
7.60181
20
10.2744
30
8.76
0
VERTEX
10
7.61078
20
10.2879
30
8.76
0
VERTEX
10
7.61526
20
10.2941
30
8.76
0
VERTEX
10
7.61795
20
10.2968
30
8.76
0
VERTEX
10
7.62512
20
10.2986
30
8.76
0
VERTEX
10
7.62781
20
10.2977
30
8.76
0
VERTEX
10
7.63409
20
10.2923
30
8.76
0
VERTEX
10
7.64843
20
10.2915
30
8.76
0
VERTEX
10
7.66278
20
10.295
30
8.76
0
VERTEX
10
7.66995
20
10.2995
30
8.76
0
VERTEX
10
7.67354
20
10.3031
30
8.76
0
VERTEX
10
7.67443
20
10.3049
30
8.76
0
VERTEX
10
7.67802
20
10.3058
30
8.76
0
VERTEX
10
7.68161
20
10.3085
30
8.76
0
VERTEX
10
7.68609
20
10.3157
30
8.76
0
VERTEX
10
7.68519
20
10.33
30
8.76
0
VERTEX
10
7.68519
20
10.3372
30
8.76
0
VERTEX
10
7.6834
20
10.3443
30
8.76
0
VERTEX
10
7.68161
20
10.3461
30
8.76
0
VERTEX
10
7.68071
20
10.3497
30
8.76
0
VERTEX
10
7.67623
20
10.3569
30
8.76
0
VERTEX
10
7.66995
20
10.3614
30
8.76
0
VERTEX
10
7.66726
20
10.365
30
8.76
0
VERTEX
10
7.65292
20
10.3677
30
8.76
0
VERTEX
10
7.64575
20
10.3668
30
8.76
0
VERTEX
10
7.64395
20
10.3668
30
8.76
0
VERTEX
10
7.64216
20
10.365
30
8.76
0
VERTEX
10
7.64037
20
10.365
30
8.76
0
VERTEX
10
7.63319
20
10.3605
30
8.76
0
VERTEX
10
7.6045
20
10.3542
30
8.76
0
VERTEX
10
7.60092
20
10.3542
30
8.76
0
VERTEX
10
7.59912
20
10.3542
30
8.76
0
VERTEX
10
7.59733
20
10.3524
30
8.76
0
VERTEX
10
7.59554
20
10.3524
30
8.76
0
VERTEX
10
7.59285
20
10.3488
30
8.76
0
VERTEX
10
7.59106
20
10.3488
30
8.76
0
VERTEX
10
7.58747
20
10.3461
30
8.76
0
VERTEX
10
7.58568
20
10.3426
30
8.76
0
VERTEX
10
7.58568
20
10.3354
30
8.76
0
VERTEX
10
7.58388
20
10.3282
30
8.76
0
VERTEX
10
7.58388
20
10.321
30
8.76
0
VERTEX
10
7.58299
20
10.3175
30
8.76
0
VERTEX
10
7.5803
20
10.3139
30
8.76
0
VERTEX
10
7.5803
20
10.3121
30
8.76
0
VERTEX
10
7.57761
20
10.3085
30
8.76
0
VERTEX
10
7.57581
20
10.3076
30
8.76
0
VERTEX
10
7.57581
20
10.3058
30
8.76
0
VERTEX
10
7.57402
20
10.3058
30
8.76
0
VERTEX
10
7.57044
20
10.3022
30
8.76
0
VERTEX
10
7.56416
20
10.2986
30
8.76
0
VERTEX
10
7.56147
20
10.295
30
8.76
0
VERTEX
10
7.56057
20
10.2915
30
8.76
0
VERTEX
10
7.55609
20
10.2843
30
8.76
0
VERTEX
10
7.5543
20
10.2807
30
8.76
0
VERTEX
10
7.5543
20
10.2672
30
8.76
0
SEQEND
0
POLYLINE
62
227
66
1
70
1
3
endoplasmic_reticulum
0
VERTEX
10
8.06981
20
10.1928
30
8.76
0
VERTEX
10
8.0716
20
10.1857
30
8.76
0
VERTEX
10
8.07519
20
10.1785
30
8.76
0
VERTEX
10
8.08147
20
10.174
30
8.76
0
VERTEX
10
8.08864
20
10.174
30
8.76
0
VERTEX
10
8.09581
20
10.1767
30
8.76
0
VERTEX
10
8.0994
20
10.1785
30
8.76
0
VERTEX
10
8.10209
20
10.1857
30
8.76
0
VERTEX
10
8.10747
20
10.1901
30
8.76
0
VERTEX
10
8.11195
20
10.1973
30
8.76
0
VERTEX
10
8.11374
20
10.2045
30
8.76
0
VERTEX
10
8.11643
20
10.2081
30
8.76
0
VERTEX
10
8.11464
20
10.2224
30
8.76
0
VERTEX
10
8.11554
20
10.2368
30
8.76
0
VERTEX
10
8.11733
20
10.2439
30
8.76
0
VERTEX
10
8.11733
20
10.2511
30
8.76
0
VERTEX
10
8.12271
20
10.2655
30
8.76
0
VERTEX
10
8.1245
20
10.2726
30
8.76
0
VERTEX
10
8.12898
20
10.2798
30
8.76
0
VERTEX
10
8.12898
20
10.2816
30
8.76
0
VERTEX
10
8.13167
20
10.2852
30
8.76
0
VERTEX
10
8.13167
20
10.287
30
8.76
0
VERTEX
10
8.13795
20
10.2941
30
8.76
0
VERTEX
10
8.14064
20
10.2977
30
8.76
0
VERTEX
10
8.14243
20
10.3049
30
8.76
0
VERTEX
10
8.14512
20
10.3336
30
8.76
0
VERTEX
10
8.14602
20
10.3479
30
8.76
0
VERTEX
10
8.1496
20
10.3623
30
8.76
0
VERTEX
10
8.1505
20
10.3659
30
8.76
0
VERTEX
10
8.15229
20
10.3668
30
8.76
0
VERTEX
10
8.15409
20
10.3739
30
8.76
0
VERTEX
10
8.15588
20
10.3757
30
8.76
0
VERTEX
10
8.15588
20
10.3793
30
8.76
0
VERTEX
10
8.15767
20
10.3829
30
8.76
0
VERTEX
10
8.15767
20
10.3972
30
8.76
0
VERTEX
10
8.15767
20
10.4044
30
8.76
0
VERTEX
10
8.14602
20
10.4179
30
8.76
0
VERTEX
10
8.14333
20
10.4206
30
8.76
0
VERTEX
10
8.13616
20
10.4215
30
8.76
0
VERTEX
10
8.12181
20
10.4206
30
8.76
0
VERTEX
10
8.11643
20
10.4152
30
8.76
0
VERTEX
10
8.11285
20
10.4107
30
8.76
0
VERTEX
10
8.11285
20
10.4089
30
8.76
0
VERTEX
10
8.10926
20
10.4053
30
8.76
0
VERTEX
10
8.10747
20
10.4035
30
8.76
0
VERTEX
10
8.10926
20
10.3461
30
8.76
0
VERTEX
10
8.11016
20
10.3175
30
8.76
0
VERTEX
10
8.11016
20
10.3031
30
8.76
0
VERTEX
10
8.10926
20
10.2959
30
8.76
0
VERTEX
10
8.10747
20
10.2923
30
8.76
0
VERTEX
10
8.10567
20
10.2941
30
8.76
0
VERTEX
10
8.10478
20
10.2923
30
8.76
0
VERTEX
10
8.10567
20
10.2888
30
8.76
0
VERTEX
10
8.10298
20
10.2852
30
8.76
0
VERTEX
10
8.10298
20
10.2834
30
8.76
0
VERTEX
10
8.0994
20
10.2798
30
8.76
0
VERTEX
10
8.09581
20
10.2726
30
8.76
0
VERTEX
10
8.09312
20
10.269
30
8.76
0
VERTEX
10
8.09133
20
10.2672
30
8.76
0
VERTEX
10
8.08954
20
10.2601
30
8.76
0
VERTEX
10
8.08595
20
10.2529
30
8.76
0
VERTEX
10
8.08416
20
10.2493
30
8.76
0
VERTEX
10
8.08416
20
10.2457
30
8.76
0
VERTEX
10
8.07967
20
10.2314
30
8.76
0
VERTEX
10
8.07788
20
10.2278
30
8.76
0
VERTEX
10
8.07698
20
10.2206
30
8.76
0
VERTEX
10
8.07698
20
10.217
30
8.76
0
VERTEX
10
8.0725
20
10.2099
30
8.76
0
VERTEX
10
8.06981
20
10.1955
30
8.76
0
VERTEX
10
8.06981
20
10.1937
30
8.76
0
SEQEND
0
POLYLINE
62
227
66
1
70
1
3
endoplasmic_reticulum
0
VERTEX
10
8.02319
20
10.1991
30
8.76
0
VERTEX
10
8.03485
20
10.1866
30
8.76
0
VERTEX
10
8.03754
20
10.1839
30
8.76
0
VERTEX
10
8.04112
20
10.183
30
8.76
0
VERTEX
10
8.04829
20
10.1857
30
8.76
0
VERTEX
10
8.05367
20
10.1919
30
8.76
0
VERTEX
10
8.05547
20
10.1955
30
8.76
0
VERTEX
10
8.05726
20
10.1973
30
8.76
0
VERTEX
10
8.05905
20
10.2045
30
8.76
0
VERTEX
10
8.05816
20
10.2332
30
8.76
0
VERTEX
10
8.05905
20
10.2475
30
8.76
0
VERTEX
10
8.06174
20
10.2619
30
8.76
0
VERTEX
10
8.06443
20
10.269
30
8.76
0
VERTEX
10
8.06533
20
10.2762
30
8.76
0
VERTEX
10
8.06802
20
10.2834
30
8.76
0
VERTEX
10
8.07071
20
10.2977
30
8.76
0
VERTEX
10
8.0716
20
10.3049
30
8.76
0
VERTEX
10
8.0716
20
10.3085
30
8.76
0
VERTEX
10
8.0734
20
10.3121
30
8.76
0
VERTEX
10
8.0734
20
10.3408
30
8.76
0
VERTEX
10
8.07429
20
10.3479
30
8.76
0
VERTEX
10
8.07519
20
10.3515
30
8.76
0
VERTEX
10
8.07698
20
10.3524
30
8.76
0
VERTEX
10
8.07698
20
10.356
30
8.76
0
VERTEX
10
8.07967
20
10.3623
30
8.76
0
VERTEX
10
8.07878
20
10.391
30
8.76
0
VERTEX
10
8.07878
20
10.4053
30
8.76
0
VERTEX
10
8.07878
20
10.4125
30
8.76
0
VERTEX
10
8.07878
20
10.4161
30
8.76
0
VERTEX
10
8.07698
20
10.4197
30
8.76
0
VERTEX
10
8.0734
20
10.4179
30
8.76
0
VERTEX
10
8.06802
20
10.4241
30
8.76
0
VERTEX
10
8.06174
20
10.4268
30
8.76
0
VERTEX
10
8.05457
20
10.425
30
8.76
0
VERTEX
10
8.05098
20
10.4232
30
8.76
0
VERTEX
10
8.0474
20
10.4232
30
8.76
0
VERTEX
10
8.04381
20
10.4197
30
8.76
0
VERTEX
10
8.04112
20
10.4125
30
8.76
0
VERTEX
10
8.03933
20
10.4089
30
8.76
0
VERTEX
10
8.03664
20
10.2941
30
8.76
0
VERTEX
10
8.03574
20
10.2798
30
8.76
0
VERTEX
10
8.03574
20
10.2726
30
8.76
0
VERTEX
10
8.03395
20
10.2655
30
8.76
0
VERTEX
10
8.03216
20
10.2637
30
8.76
0
VERTEX
10
8.03126
20
10.2565
30
8.76
0
VERTEX
10
8.03126
20
10.2529
30
8.76
0
VERTEX
10
8.02947
20
10.2493
30
8.76
0
VERTEX
10
8.02947
20
10.235
30
8.76
0
VERTEX
10
8.02767
20
10.2206
30
8.76
0
VERTEX
10
8.02319
20
10.2063
30
8.76
0
VERTEX
10
8.02319
20
10.2
30
8.76
0
SEQEND
0
POLYLINE
62
227
66
1
70
1
3
endoplasmic_reticulum
0
VERTEX
10
7.71926
20
10.1202
30
8.76
0
VERTEX
10
7.72285
20
10.1184
30
8.76
0
VERTEX
10
7.72643
20
10.1184
30
8.76
0
VERTEX
10
7.72912
20
10.1166
30
8.76
0
VERTEX
10
7.73002
20
10.1023
30
8.76
0
VERTEX
10
7.73271
20
10.0987
30
8.76
0
VERTEX
10
7.7345
20
10.0969
30
8.76
0
VERTEX
10
7.7363
20
10.0969
30
8.76
0
VERTEX
10
7.73809
20
10.0951
30
8.76
0
VERTEX
10
7.75243
20
10.0915
30
8.76
0
VERTEX
10
7.76678
20
10.0915
30
8.76
0
VERTEX
10
7.78112
20
10.0942
30
8.76
0
VERTEX
10
7.80981
20
10.0951
30
8.76
0
VERTEX
10
7.82416
20
10.0906
30
8.76
0
VERTEX
10
7.83133
20
10.0879
30
8.76
0
VERTEX
10
7.8385
20
10.087
30
8.76
0
VERTEX
10
7.84568
20
10.0844
30
8.76
0
VERTEX
10
7.87436
20
10.0817
30
8.76
0
VERTEX
10
7.90305
20
10.0817
30
8.76
0
VERTEX
10
7.90664
20
10.0817
30
8.76
0
VERTEX
10
7.91023
20
10.0835
30
8.76
0
VERTEX
10
7.96761
20
10.0826
30
8.76
0
VERTEX
10
7.99629
20
10.0763
30
8.76
0
VERTEX
10
8.00257
20
10.0727
30
8.76
0
VERTEX
10
8.01692
20
10.07
30
8.76
0
VERTEX
10
8.03126
20
10.0709
30
8.76
0
VERTEX
10
8.03843
20
10.0727
30
8.76
0
VERTEX
10
8.05278
20
10.0736
30
8.76
0
VERTEX
10
8.06712
20
10.079
30
8.76
0
VERTEX
10
8.07429
20
10.0808
30
8.76
0
VERTEX
10
8.08864
20
10.0808
30
8.76
0
VERTEX
10
8.09223
20
10.0835
30
8.76
0
VERTEX
10
8.0985
20
10.0861
30
8.76
0
VERTEX
10
8.11016
20
10.0978
30
8.76
0
VERTEX
10
8.11374
20
10.1014
30
8.76
0
VERTEX
10
8.11464
20
10.105
30
8.76
0
VERTEX
10
8.11643
20
10.105
30
8.76
0
VERTEX
10
8.11912
20
10.1193
30
8.76
0
VERTEX
10
8.12002
20
10.1265
30
8.76
0
VERTEX
10
8.11912
20
10.1408
30
8.76
0
VERTEX
10
8.11643
20
10.148
30
8.76
0
VERTEX
10
8.11016
20
10.1516
30
8.76
0
VERTEX
10
8.10298
20
10.1525
30
8.76
0
VERTEX
10
8.09581
20
10.1516
30
8.76
0
VERTEX
10
8.08864
20
10.1471
30
8.76
0
VERTEX
10
8.08505
20
10.1444
30
8.76
0
VERTEX
10
8.07071
20
10.1426
30
8.76
0
VERTEX
10
8.06891
20
10.1408
30
8.76
0
VERTEX
10
8.06533
20
10.1408
30
8.76
0
VERTEX
10
8.05816
20
10.1355
30
8.76
0
VERTEX
10
8.05457
20
10.1346
30
8.76
0
VERTEX
10
8.04829
20
10.1283
30
8.76
0
VERTEX
10
8.04381
20
10.122
30
8.76
0
VERTEX
10
8.02947
20
10.1211
30
8.76
0
VERTEX
10
8.02588
20
10.1211
30
8.76
0
VERTEX
10
8.02229
20
10.1229
30
8.76
0
VERTEX
10
8.01871
20
10.1229
30
8.76
0
VERTEX
10
8.01154
20
10.1256
30
8.76
0
VERTEX
10
8.00795
20
10.1274
30
8.76
0
VERTEX
10
8.00436
20
10.1274
30
8.76
0
VERTEX
10
7.99719
20
10.1301
30
8.76
0
VERTEX
10
7.99361
20
10.131
30
8.76
0
VERTEX
10
7.99181
20
10.1328
30
8.76
0
VERTEX
10
7.98464
20
10.1337
30
8.76
0
VERTEX
10
7.98105
20
10.1346
30
8.76
0
VERTEX
10
7.97926
20
10.1364
30
8.76
0
VERTEX
10
7.97747
20
10.1364
30
8.76
0
VERTEX
10
7.97567
20
10.1381
30
8.76
0
VERTEX
10
7.97388
20
10.1381
30
8.76
0
VERTEX
10
7.96671
20
10.1426
30
8.76
0
VERTEX
10
7.95236
20
10.1435
30
8.76
0
VERTEX
10
7.93802
20
10.1426
30
8.76
0
VERTEX
10
7.92367
20
10.139
30
8.76
0
VERTEX
10
7.92098
20
10.1364
30
8.76
0
VERTEX
10
7.8923
20
10.1364
30
8.76
0
VERTEX
10
7.88512
20
10.1355
30
8.76
0
VERTEX
10
7.88154
20
10.1355
30
8.76
0
VERTEX
10
7.87885
20
10.1337
30
8.76
0
VERTEX
10
7.8645
20
10.1328
30
8.76
0
VERTEX
10
7.83581
20
10.1355
30
8.76
0
VERTEX
10
7.82864
20
10.1372
30
8.76
0
VERTEX
10
7.82505
20
10.1372
30
8.76
0
VERTEX
10
7.81788
20
10.1399
30
8.76
0
VERTEX
10
7.80354
20
10.1408
30
8.76
0
VERTEX
10
7.79995
20
10.1417
30
8.76
0
VERTEX
10
7.79816
20
10.1435
30
8.76
0
VERTEX
10
7.78381
20
10.148
30
8.76
0
VERTEX
10
7.77664
20
10.1507
30
8.76
0
VERTEX
10
7.74795
20
10.1516
30
8.76
0
VERTEX
10
7.73361
20
10.1462
30
8.76
0
VERTEX
10
7.72195
20
10.1328
30
8.76
0
VERTEX
10
7.72016
20
10.1256
30
8.76
0
VERTEX
10
7.71926
20
10.122
30
8.76
0
VERTEX
10
7.71926
20
10.1211
30
8.76
0
SEQEND
0
POLYLINE
62
236
66
1
70
1
3
postsynaptic_density
0
VERTEX
10
7.24085
20
9.58242
30
8.76
0
VERTEX
10
7.24221
20
9.5797
30
8.76
0
VERTEX
10
7.24765
20
9.57494
30
8.76
0
VERTEX
10
7.25105
20
9.56951
30
8.76
0
VERTEX
10
7.2558
20
9.56407
30
8.76
0
VERTEX
10
7.26668
20
9.55591
30
8.76
0
VERTEX
10
7.27144
20
9.55251
30
8.76
0
VERTEX
10
7.27688
20
9.54775
30
8.76
0
VERTEX
10
7.27823
20
9.5464
30
8.76
0
VERTEX
10
7.27959
20
9.5464
30
8.76
0
VERTEX
10
7.28095
20
9.54504
30
8.76
0
VERTEX
10
7.29183
20
9.54096
30
8.76
0
VERTEX
10
7.29455
20
9.5396
30
8.76
0
VERTEX
10
7.29591
20
9.53824
30
8.76
0
VERTEX
10
7.29727
20
9.53824
30
8.76
0
VERTEX
10
7.29795
20
9.53688
30
8.76
0
VERTEX
10
7.29931
20
9.53688
30
8.76
0
VERTEX
10
7.29998
20
9.53552
30
8.76
0
VERTEX
10
7.3027
20
9.53484
30
8.76
0
VERTEX
10
7.30406
20
9.53348
30
8.76
0
VERTEX
10
7.30542
20
9.53348
30
8.76
0
VERTEX
10
7.30814
20
9.53076
30
8.76
0
VERTEX
10
7.31902
20
9.52736
30
8.76
0
VERTEX
10
7.32445
20
9.52532
30
8.76
0
VERTEX
10
7.32717
20
9.52465
30
8.76
0
VERTEX
10
7.33261
20
9.52532
30
8.76
0
VERTEX
10
7.33397
20
9.52532
30
8.76
0
VERTEX
10
7.33601
20
9.52804
30
8.76
0
VERTEX
10
7.34077
20
9.52872
30
8.76
0
VERTEX
10
7.3462
20
9.53076
30
8.76
0
VERTEX
10
7.34892
20
9.53144
30
8.76
0
VERTEX
10
7.3496
20
9.5328
30
8.76
0
VERTEX
10
7.35232
20
9.5328
30
8.76
0
VERTEX
10
7.35368
20
9.5328
30
8.76
0
VERTEX
10
7.35572
20
9.53552
30
8.76
0
VERTEX
10
7.35844
20
9.53688
30
8.76
0
VERTEX
10
7.3632
20
9.54232
30
8.76
0
VERTEX
10
7.37203
20
9.55115
30
8.76
0
VERTEX
10
7.37543
20
9.55591
30
8.76
0
VERTEX
10
7.37679
20
9.55863
30
8.76
0
VERTEX
10
7.38699
20
9.56679
30
8.76
0
VERTEX
10
7.39174
20
9.57019
30
8.76
0
VERTEX
10
7.39378
20
9.5729
30
8.76
0
VERTEX
10
7.3965
20
9.57426
30
8.76
0
VERTEX
10
7.40126
20
9.5797
30
8.76
0
VERTEX
10
7.40466
20
9.58514
30
8.76
0
VERTEX
10
7.40534
20
9.5865
30
8.76
0
VERTEX
10
7.40806
20
9.58718
30
8.76
0
VERTEX
10
7.41078
20
9.5899
30
8.76
0
VERTEX
10
7.41214
20
9.59262
30
8.76
0
VERTEX
10
7.41349
20
9.59397
30
8.76
0
VERTEX
10
7.41553
20
9.59941
30
8.76
0
VERTEX
10
7.41825
20
9.60145
30
8.76
0
VERTEX
10
7.41961
20
9.60417
30
8.76
0
VERTEX
10
7.42029
20
9.60961
30
8.76
0
VERTEX
10
7.42165
20
9.61233
30
8.76
0
VERTEX
10
7.42641
20
9.61708
30
8.76
0
VERTEX
10
7.42913
20
9.61912
30
8.76
0
VERTEX
10
7.43185
20
9.6198
30
8.76
0
VERTEX
10
7.4366
20
9.62388
30
8.76
0
VERTEX
10
7.43864
20
9.6266
30
8.76
0
VERTEX
10
7.44
20
9.6266
30
8.76
0
VERTEX
10
7.44884
20
9.63476
30
8.76
0
VERTEX
10
7.45156
20
9.63748
30
8.76
0
VERTEX
10
7.45088
20
9.64019
30
8.76
0
VERTEX
10
7.36388
20
9.68845
30
8.76
0
VERTEX
10
7.353
20
9.69457
30
8.76
0
VERTEX
10
7.35028
20
9.69593
30
8.76
0
VERTEX
10
7.34892
20
9.69661
30
8.76
0
VERTEX
10
7.34349
20
9.69457
30
8.76
0
VERTEX
10
7.34213
20
9.69457
30
8.76
0
VERTEX
10
7.33941
20
9.69253
30
8.76
0
VERTEX
10
7.33669
20
9.69321
30
8.76
0
VERTEX
10
7.33533
20
9.69321
30
8.76
0
VERTEX
10
7.33397
20
9.69457
30
8.76
0
VERTEX
10
7.32853
20
9.69661
30
8.76
0
VERTEX
10
7.32717
20
9.69661
30
8.76
0
VERTEX
10
7.32581
20
9.69797
30
8.76
0
VERTEX
10
7.32038
20
9.69933
30
8.76
0
VERTEX
10
7.31766
20
9.70137
30
8.76
0
VERTEX
10
7.31222
20
9.70069
30
8.76
0
VERTEX
10
7.30202
20
9.69389
30
8.76
0
VERTEX
10
7.30134
20
9.69253
30
8.76
0
VERTEX
10
7.29863
20
9.69185
30
8.76
0
VERTEX
10
7.29319
20
9.68709
30
8.76
0
VERTEX
10
7.28911
20
9.68302
30
8.76
0
VERTEX
10
7.27959
20
9.67826
30
8.76
0
VERTEX
10
7.27688
20
9.6735
30
8.76
0
VERTEX
10
7.27688
20
9.67078
30
8.76
0
VERTEX
10
7.2728
20
9.66534
30
8.76
0
VERTEX
10
7.27076
20
9.66262
30
8.76
0
VERTEX
10
7.27076
20
9.66126
30
8.76
0
VERTEX
10
7.26736
20
9.65583
30
8.76
0
VERTEX
10
7.26668
20
9.65311
30
8.76
0
VERTEX
10
7.26464
20
9.65107
30
8.76
0
VERTEX
10
7.26396
20
9.64835
30
8.76
0
VERTEX
10
7.2626
20
9.64699
30
8.76
0
VERTEX
10
7.26056
20
9.64155
30
8.76
0
VERTEX
10
7.26056
20
9.64019
30
8.76
0
VERTEX
10
7.2592
20
9.63951
30
8.76
0
VERTEX
10
7.25512
20
9.62864
30
8.76
0
VERTEX
10
7.25444
20
9.6232
30
8.76
0
VERTEX
10
7.24969
20
9.61301
30
8.76
0
VERTEX
10
7.24833
20
9.61029
30
8.76
0
VERTEX
10
7.24357
20
9.60553
30
8.76
0
VERTEX
10
7.24289
20
9.59465
30
8.76
0
VERTEX
10
7.24289
20
9.59329
30
8.76
0
VERTEX
10
7.24153
20
9.59194
30
8.76
0
VERTEX
10
7.24153
20
9.5865
30
8.76
0
VERTEX
10
7.24085
20
9.58378
30
8.76
0
VERTEX
10
7.24085
20
9.5831
30
8.76
0
SEQEND
0
ENDSEC
0
EOF
