0
SECTION
2
ENTITIES
0
POLYLINE
62
31
66
1
70
1
3
contour
0
VERTEX
10
6.89381
20
10.7884
30
10.28
0
VERTEX
10
6.90873
20
10.7585
30
10.28
0
VERTEX
10
6.93112
20
10.7324
30
10.28
0
VERTEX
10
6.94231
20
10.7212
30
10.28
0
VERTEX
10
6.94977
20
10.7175
30
10.28
0
VERTEX
10
6.94977
20
10.7026
30
10.28
0
VERTEX
10
6.97961
20
10.6914
30
10.28
0
VERTEX
10
6.98707
20
10.6839
30
10.28
0
VERTEX
10
7.01692
20
10.6765
30
10.28
0
VERTEX
10
7.04303
20
10.6615
30
10.28
0
VERTEX
10
7.05795
20
10.6615
30
10.28
0
VERTEX
10
7.07287
20
10.6541
30
10.28
0
VERTEX
10
7.08033
20
10.6429
30
10.28
0
VERTEX
10
7.14002
20
10.6317
30
10.28
0
VERTEX
10
7.16986
20
10.6317
30
10.28
0
VERTEX
10
7.19971
20
10.6242
30
10.28
0
VERTEX
10
7.31908
20
10.6317
30
10.28
0
VERTEX
10
7.334
20
10.6242
30
10.28
0
VERTEX
10
7.45337
20
10.6242
30
10.28
0
VERTEX
10
7.51306
20
10.628
30
10.28
0
VERTEX
10
7.52798
20
10.628
30
10.28
0
VERTEX
10
7.55783
20
10.6541
30
10.28
0
VERTEX
10
7.56902
20
10.669
30
10.28
0
VERTEX
10
7.57648
20
10.669
30
10.28
0
VERTEX
10
7.60632
20
10.6914
30
10.28
0
VERTEX
10
7.61378
20
10.6988
30
10.28
0
VERTEX
10
7.61378
20
10.7063
30
10.28
0
VERTEX
10
7.62497
20
10.7175
30
10.28
0
VERTEX
10
7.6287
20
10.7473
30
10.28
0
VERTEX
10
7.65109
20
10.7697
30
10.28
0
VERTEX
10
7.65855
20
10.7772
30
10.28
0
VERTEX
10
7.65855
20
10.7921
30
10.28
0
VERTEX
10
7.66974
20
10.807
30
10.28
0
VERTEX
10
7.69212
20
10.863
30
10.28
0
VERTEX
10
7.69585
20
10.8928
30
10.28
0
VERTEX
10
7.67347
20
10.9189
30
10.28
0
VERTEX
10
7.65855
20
10.9301
30
10.28
0
VERTEX
10
7.65109
20
10.9376
30
10.28
0
VERTEX
10
7.64736
20
10.9525
30
10.28
0
VERTEX
10
7.63243
20
10.9562
30
10.28
0
VERTEX
10
7.62497
20
10.9562
30
10.28
0
VERTEX
10
7.59513
20
10.9749
30
10.28
0
VERTEX
10
7.53917
20
10.9973
30
10.28
0
VERTEX
10
7.47949
20
10.9898
30
10.28
0
VERTEX
10
7.4198
20
10.9749
30
10.28
0
VERTEX
10
7.41234
20
10.9674
30
10.28
0
VERTEX
10
7.3825
20
10.9637
30
10.28
0
VERTEX
10
7.32281
20
10.9413
30
10.28
0
VERTEX
10
7.26312
20
10.9301
30
10.28
0
VERTEX
10
7.2482
20
10.9301
30
10.28
0
VERTEX
10
7.23328
20
10.9227
30
10.28
0
VERTEX
10
7.22582
20
10.9077
30
10.28
0
VERTEX
10
7.10645
20
10.8667
30
10.28
0
VERTEX
10
7.0766
20
10.8592
30
10.28
0
VERTEX
10
6.95723
20
10.8481
30
10.28
0
VERTEX
10
6.92739
20
10.8443
30
10.28
0
VERTEX
10
6.91246
20
10.8443
30
10.28
0
VERTEX
10
6.90127
20
10.8294
30
10.28
0
VERTEX
10
6.89381
20
10.8219
30
10.28
0
VERTEX
10
6.89381
20
10.7921
30
10.28
0
SEQEND
0
POLYLINE
62
236
66
1
70
1
3
postsynaptic_density
0
VERTEX
10
6.65498
20
10.3165
30
10.28
0
VERTEX
10
6.65871
20
10.3128
30
10.28
0
VERTEX
10
6.65684
20
10.3072
30
10.28
0
VERTEX
10
6.66431
20
10.2997
30
10.28
0
VERTEX
10
6.69417
20
10.2941
30
10.28
0
VERTEX
10
6.75389
20
10.2941
30
10.28
0
VERTEX
10
6.78188
20
10.3072
30
10.28
0
VERTEX
10
6.78935
20
10.3091
30
10.28
0
VERTEX
10
6.80428
20
10.3184
30
10.28
0
VERTEX
10
6.83414
20
10.3315
30
10.28
0
VERTEX
10
6.83973
20
10.3389
30
10.28
0
VERTEX
10
6.84347
20
10.3389
30
10.28
0
VERTEX
10
6.84907
20
10.3464
30
10.28
0
VERTEX
10
6.8472
20
10.3501
30
10.28
0
VERTEX
10
6.8528
20
10.3557
30
10.28
0
VERTEX
10
6.85466
20
10.4154
30
10.28
0
VERTEX
10
6.85093
20
10.4304
30
10.28
0
VERTEX
10
6.8248
20
10.4546
30
10.28
0
VERTEX
10
6.81921
20
10.4584
30
10.28
0
VERTEX
10
6.75949
20
10.421
30
10.28
0
VERTEX
10
6.74456
20
10.4117
30
10.28
0
VERTEX
10
6.73709
20
10.4061
30
10.28
0
VERTEX
10
6.72963
20
10.4042
30
10.28
0
VERTEX
10
6.70163
20
10.3837
30
10.28
0
VERTEX
10
6.6867
20
10.3762
30
10.28
0
VERTEX
10
6.67177
20
10.365
30
10.28
0
VERTEX
10
6.66431
20
10.3594
30
10.28
0
VERTEX
10
6.66058
20
10.352
30
10.28
0
VERTEX
10
6.66058
20
10.3445
30
10.28
0
VERTEX
10
6.65498
20
10.3315
30
10.28
0
VERTEX
10
6.65498
20
10.3184
30
10.28
0
SEQEND
0
POLYLINE
62
227
66
1
70
1
3
endoplasmic_reticulum
0
VERTEX
10
7.48437
20
10.6653
30
10.28
0
VERTEX
10
7.48795
20
10.6635
30
10.28
0
VERTEX
10
7.49064
20
10.6599
30
10.28
0
VERTEX
10
7.49692
20
10.6555
30
10.28
0
VERTEX
10
7.50409
20
10.6528
30
10.28
0
VERTEX
10
7.51126
20
10.6537
30
10.28
0
VERTEX
10
7.51306
20
10.6608
30
10.28
0
VERTEX
10
7.51037
20
10.6752
30
10.28
0
VERTEX
10
7.51037
20
10.6823
30
10.28
0
VERTEX
10
7.50947
20
10.6859
30
10.28
0
VERTEX
10
7.50409
20
10.6931
30
10.28
0
VERTEX
10
7.5014
20
10.6958
30
10.28
0
VERTEX
10
7.49961
20
10.6958
30
10.28
0
VERTEX
10
7.48885
20
10.6815
30
10.28
0
VERTEX
10
7.48526
20
10.6788
30
10.28
0
VERTEX
10
7.48437
20
10.6716
30
10.28
0
VERTEX
10
7.48437
20
10.668
30
10.28
0
VERTEX
10
7.48437
20
10.6662
30
10.28
0
SEQEND
0
POLYLINE
62
227
66
1
70
1
3
endoplasmic_reticulum
0
VERTEX
10
7.10961
20
10.7899
30
10.28
0
VERTEX
10
7.12306
20
10.7783
30
10.28
0
VERTEX
10
7.1374
20
10.7747
30
10.28
0
VERTEX
10
7.16609
20
10.7774
30
10.28
0
VERTEX
10
7.17327
20
10.7783
30
10.28
0
VERTEX
10
7.17685
20
10.7801
30
10.28
0
VERTEX
10
7.17864
20
10.7801
30
10.28
0
VERTEX
10
7.18582
20
10.7846
30
10.28
0
VERTEX
10
7.19209
20
10.7908
30
10.28
0
VERTEX
10
7.19478
20
10.7944
30
10.28
0
VERTEX
10
7.20106
20
10.7989
30
10.28
0
VERTEX
10
7.20285
20
10.7989
30
10.28
0
VERTEX
10
7.20644
20
10.8016
30
10.28
0
VERTEX
10
7.21361
20
10.8043
30
10.28
0
VERTEX
10
7.21989
20
10.8088
30
10.28
0
VERTEX
10
7.22706
20
10.8097
30
10.28
0
VERTEX
10
7.22795
20
10.8114
30
10.28
0
VERTEX
10
7.2423
20
10.8123
30
10.28
0
VERTEX
10
7.24589
20
10.8132
30
10.28
0
VERTEX
10
7.24768
20
10.8132
30
10.28
0
VERTEX
10
7.25126
20
10.8159
30
10.28
0
VERTEX
10
7.25844
20
10.8159
30
10.28
0
VERTEX
10
7.26202
20
10.8168
30
10.28
0
VERTEX
10
7.26561
20
10.8195
30
10.28
0
VERTEX
10
7.2692
20
10.8195
30
10.28
0
VERTEX
10
7.27278
20
10.8222
30
10.28
0
VERTEX
10
7.28713
20
10.8267
30
10.28
0
VERTEX
10
7.2943
20
10.8294
30
10.28
0
VERTEX
10
7.32299
20
10.8303
30
10.28
0
VERTEX
10
7.33733
20
10.8303
30
10.28
0
VERTEX
10
7.35168
20
10.8321
30
10.28
0
VERTEX
10
7.35885
20
10.833
30
10.28
0
VERTEX
10
7.36244
20
10.8348
30
10.28
0
VERTEX
10
7.36602
20
10.8348
30
10.28
0
VERTEX
10
7.36871
20
10.8383
30
10.28
0
VERTEX
10
7.37051
20
10.8383
30
10.28
0
VERTEX
10
7.37409
20
10.841
30
10.28
0
VERTEX
10
7.37409
20
10.8482
30
10.28
0
VERTEX
10
7.3732
20
10.8518
30
10.28
0
VERTEX
10
7.36782
20
10.8581
30
10.28
0
VERTEX
10
7.36602
20
10.8599
30
10.28
0
VERTEX
10
7.36423
20
10.8599
30
10.28
0
VERTEX
10
7.36333
20
10.8617
30
10.28
0
VERTEX
10
7.36154
20
10.8617
30
10.28
0
VERTEX
10
7.35975
20
10.8634
30
10.28
0
VERTEX
10
7.35257
20
10.8634
30
10.28
0
VERTEX
10
7.34899
20
10.8634
30
10.28
0
VERTEX
10
7.3454
20
10.8652
30
10.28
0
VERTEX
10
7.33106
20
10.8679
30
10.28
0
VERTEX
10
7.27368
20
10.8724
30
10.28
0
VERTEX
10
7.25933
20
10.8733
30
10.28
0
VERTEX
10
7.25216
20
10.8742
30
10.28
0
VERTEX
10
7.25037
20
10.8715
30
10.28
0
VERTEX
10
7.2432
20
10.8688
30
10.28
0
VERTEX
10
7.23602
20
10.8679
30
10.28
0
VERTEX
10
7.23513
20
10.8661
30
10.28
0
VERTEX
10
7.23154
20
10.8652
30
10.28
0
VERTEX
10
7.22795
20
10.8626
30
10.28
0
VERTEX
10
7.22078
20
10.8599
30
10.28
0
VERTEX
10
7.21361
20
10.8599
30
10.28
0
VERTEX
10
7.21002
20
10.859
30
10.28
0
VERTEX
10
7.20823
20
10.8572
30
10.28
0
VERTEX
10
7.20644
20
10.8572
30
10.28
0
VERTEX
10
7.20285
20
10.8545
30
10.28
0
VERTEX
10
7.19568
20
10.8527
30
10.28
0
VERTEX
10
7.18133
20
10.8455
30
10.28
0
VERTEX
10
7.17416
20
10.841
30
10.28
0
VERTEX
10
7.17058
20
10.8392
30
10.28
0
VERTEX
10
7.16878
20
10.8357
30
10.28
0
VERTEX
10
7.15533
20
10.8276
30
10.28
0
VERTEX
10
7.15354
20
10.8258
30
10.28
0
VERTEX
10
7.1392
20
10.8204
30
10.28
0
VERTEX
10
7.13202
20
10.8177
30
10.28
0
VERTEX
10
7.12485
20
10.8168
30
10.28
0
VERTEX
10
7.12127
20
10.8159
30
10.28
0
VERTEX
10
7.11947
20
10.8159
30
10.28
0
VERTEX
10
7.1132
20
10.8106
30
10.28
0
VERTEX
10
7.1123
20
10.807
30
10.28
0
VERTEX
10
7.10961
20
10.8034
30
10.28
0
VERTEX
10
7.10961
20
10.7962
30
10.28
0
VERTEX
10
7.10961
20
10.7926
30
10.28
0
VERTEX
10
7.10961
20
10.7908
30
10.28
0
SEQEND
0
POLYLINE
62
227
66
1
70
1
3
endoplasmic_reticulum
0
VERTEX
10
7.23244
20
10.7469
30
10.28
0
VERTEX
10
7.23423
20
10.7433
30
10.28
0
VERTEX
10
7.23782
20
10.7406
30
10.28
0
VERTEX
10
7.23961
20
10.7406
30
10.28
0
VERTEX
10
7.24589
20
10.7361
30
10.28
0
VERTEX
10
7.25216
20
10.7335
30
10.28
0
VERTEX
10
7.26651
20
10.7343
30
10.28
0
VERTEX
10
7.27278
20
10.7406
30
10.28
0
VERTEX
10
7.28623
20
10.7505
30
10.28
0
VERTEX
10
7.2934
20
10.7532
30
10.28
0
VERTEX
10
7.30057
20
10.7541
30
10.28
0
VERTEX
10
7.30237
20
10.7559
30
10.28
0
VERTEX
10
7.33106
20
10.7586
30
10.28
0
VERTEX
10
7.3454
20
10.7594
30
10.28
0
VERTEX
10
7.35257
20
10.7603
30
10.28
0
VERTEX
10
7.35975
20
10.7648
30
10.28
0
VERTEX
10
7.36064
20
10.7675
30
10.28
0
VERTEX
10
7.36423
20
10.7693
30
10.28
0
VERTEX
10
7.36692
20
10.7765
30
10.28
0
VERTEX
10
7.36692
20
10.7837
30
10.28
0
VERTEX
10
7.36513
20
10.7908
30
10.28
0
VERTEX
10
7.36244
20
10.7944
30
10.28
0
VERTEX
10
7.35526
20
10.7962
30
10.28
0
VERTEX
10
7.35168
20
10.7971
30
10.28
0
VERTEX
10
7.34809
20
10.7998
30
10.28
0
VERTEX
10
7.33375
20
10.8034
30
10.28
0
VERTEX
10
7.3194
20
10.8052
30
10.28
0
VERTEX
10
7.30506
20
10.8043
30
10.28
0
VERTEX
10
7.29789
20
10.8025
30
10.28
0
VERTEX
10
7.28354
20
10.8025
30
10.28
0
VERTEX
10
7.25485
20
10.7989
30
10.28
0
VERTEX
10
7.24947
20
10.7935
30
10.28
0
VERTEX
10
7.2423
20
10.7881
30
10.28
0
VERTEX
10
7.23692
20
10.7819
30
10.28
0
VERTEX
10
7.23513
20
10.7783
30
10.28
0
VERTEX
10
7.23602
20
10.7774
30
10.28
0
VERTEX
10
7.23871
20
10.7792
30
10.28
0
VERTEX
10
7.23782
20
10.772
30
10.28
0
VERTEX
10
7.23602
20
10.7684
30
10.28
0
VERTEX
10
7.23602
20
10.7666
30
10.28
0
VERTEX
10
7.23333
20
10.763
30
10.28
0
VERTEX
10
7.23244
20
10.7487
30
10.28
0
VERTEX
10
7.23244
20
10.7478
30
10.28
0
SEQEND
0
POLYLINE
62
227
66
1
70
1
3
endoplasmic_reticulum
0
VERTEX
10
7.3983
20
10.781
30
10.28
0
VERTEX
10
7.40009
20
10.7738
30
10.28
0
VERTEX
10
7.40188
20
10.7702
30
10.28
0
VERTEX
10
7.40547
20
10.7675
30
10.28
0
VERTEX
10
7.40726
20
10.7657
30
10.28
0
VERTEX
10
7.42161
20
10.7684
30
10.28
0
VERTEX
10
7.42519
20
10.7684
30
10.28
0
VERTEX
10
7.42878
20
10.7711
30
10.28
0
VERTEX
10
7.42878
20
10.7729
30
10.28
0
VERTEX
10
7.43237
20
10.7747
30
10.28
0
VERTEX
10
7.44671
20
10.7747
30
10.28
0
VERTEX
10
7.4503
20
10.7747
30
10.28
0
VERTEX
10
7.45119
20
10.7612
30
10.28
0
VERTEX
10
7.44761
20
10.7541
30
10.28
0
VERTEX
10
7.44671
20
10.7469
30
10.28
0
VERTEX
10
7.44851
20
10.7326
30
10.28
0
VERTEX
10
7.4494
20
10.729
30
10.28
0
VERTEX
10
7.45299
20
10.7272
30
10.28
0
VERTEX
10
7.46733
20
10.7281
30
10.28
0
VERTEX
10
7.48168
20
10.7272
30
10.28
0
VERTEX
10
7.49602
20
10.7281
30
10.28
0
VERTEX
10
7.50319
20
10.7281
30
10.28
0
VERTEX
10
7.51754
20
10.7326
30
10.28
0
VERTEX
10
7.52023
20
10.7343
30
10.28
0
VERTEX
10
7.52381
20
10.7343
30
10.28
0
VERTEX
10
7.52471
20
10.7415
30
10.28
0
VERTEX
10
7.52471
20
10.7451
30
10.28
0
VERTEX
10
7.52471
20
10.7469
30
10.28
0
VERTEX
10
7.52113
20
10.7505
30
10.28
0
VERTEX
10
7.52202
20
10.7792
30
10.28
0
VERTEX
10
7.52292
20
10.7863
30
10.28
0
VERTEX
10
7.52292
20
10.7899
30
10.28
0
VERTEX
10
7.5265
20
10.7899
30
10.28
0
VERTEX
10
7.53368
20
10.7944
30
10.28
0
VERTEX
10
7.53995
20
10.8007
30
10.28
0
VERTEX
10
7.54085
20
10.8079
30
10.28
0
VERTEX
10
7.54264
20
10.8106
30
10.28
0
VERTEX
10
7.54175
20
10.8249
30
10.28
0
VERTEX
10
7.53726
20
10.8392
30
10.28
0
VERTEX
10
7.53457
20
10.8464
30
10.28
0
VERTEX
10
7.51754
20
10.8742
30
10.28
0
VERTEX
10
7.50768
20
10.8859
30
10.28
0
VERTEX
10
7.50319
20
10.8903
30
10.28
0
VERTEX
10
7.49602
20
10.8957
30
10.28
0
VERTEX
10
7.49423
20
10.8975
30
10.28
0
VERTEX
10
7.49064
20
10.8975
30
10.28
0
VERTEX
10
7.48885
20
10.8957
30
10.28
0
VERTEX
10
7.48526
20
10.8957
30
10.28
0
VERTEX
10
7.48168
20
10.8939
30
10.28
0
VERTEX
10
7.47988
20
10.8921
30
10.28
0
VERTEX
10
7.47719
20
10.885
30
10.28
0
VERTEX
10
7.4754
20
10.885
30
10.28
0
VERTEX
10
7.47361
20
10.8832
30
10.28
0
VERTEX
10
7.47182
20
10.8832
30
10.28
0
VERTEX
10
7.45926
20
10.8706
30
10.28
0
VERTEX
10
7.45299
20
10.8643
30
10.28
0
VERTEX
10
7.45119
20
10.8608
30
10.28
0
VERTEX
10
7.44492
20
10.8563
30
10.28
0
VERTEX
10
7.44044
20
10.8491
30
10.28
0
VERTEX
10
7.42878
20
10.8357
30
10.28
0
VERTEX
10
7.42519
20
10.8321
30
10.28
0
VERTEX
10
7.42519
20
10.8285
30
10.28
0
VERTEX
10
7.41354
20
10.8168
30
10.28
0
VERTEX
10
7.40726
20
10.8097
30
10.28
0
VERTEX
10
7.40457
20
10.8061
30
10.28
0
VERTEX
10
7.40188
20
10.7989
30
10.28
0
VERTEX
10
7.40009
20
10.798
30
10.28
0
VERTEX
10
7.3983
20
10.7837
30
10.28
0
VERTEX
10
7.3983
20
10.7819
30
10.28
0
SEQEND
0
POLYLINE
62
236
66
1
70
1
3
postsynaptic_density
0
VERTEX
10
6.13877
20
10.3767
30
10.28
0
VERTEX
10
6.14006
20
10.3716
30
10.28
0
VERTEX
10
6.14391
20
10.3665
30
10.28
0
VERTEX
10
6.14391
20
10.3639
30
10.28
0
VERTEX
10
6.15032
20
10.3536
30
10.28
0
VERTEX
10
6.15931
20
10.3459
30
10.28
0
VERTEX
10
6.16316
20
10.3408
30
10.28
0
VERTEX
10
6.17343
20
10.337
30
10.28
0
VERTEX
10
6.2145
20
10.3395
30
10.28
0
VERTEX
10
6.23503
20
10.3408
30
10.28
0
VERTEX
10
6.24017
20
10.3408
30
10.28
0
VERTEX
10
6.25043
20
10.3485
30
10.28
0
VERTEX
10
6.25557
20
10.3575
30
10.28
0
VERTEX
10
6.25942
20
10.3626
30
10.28
0
VERTEX
10
6.2607
20
10.3678
30
10.28
0
VERTEX
10
6.26712
20
10.3767
30
10.28
0
VERTEX
10
6.26712
20
10.387
30
10.28
0
VERTEX
10
6.26969
20
10.3973
30
10.28
0
VERTEX
10
6.27225
20
10.4011
30
10.28
0
VERTEX
10
6.27225
20
10.4114
30
10.28
0
VERTEX
10
6.27482
20
10.4217
30
10.28
0
VERTEX
10
6.27482
20
10.4242
30
10.28
0
VERTEX
10
6.27867
20
10.4294
30
10.28
0
VERTEX
10
6.28124
20
10.4499
30
10.28
0
VERTEX
10
6.28124
20
10.4525
30
10.28
0
VERTEX
10
6.2838
20
10.4538
30
10.28
0
VERTEX
10
6.2838
20
10.4743
30
10.28
0
VERTEX
10
6.28252
20
10.4846
30
10.28
0
VERTEX
10
6.27995
20
10.4871
30
10.28
0
VERTEX
10
6.27995
20
10.5077
30
10.28
0
VERTEX
10
6.27995
20
10.5128
30
10.28
0
VERTEX
10
6.2761
20
10.5231
30
10.28
0
VERTEX
10
6.27354
20
10.5282
30
10.28
0
VERTEX
10
6.26327
20
10.5372
30
10.28
0
VERTEX
10
6.2607
20
10.5359
30
10.28
0
VERTEX
10
6.24017
20
10.5436
30
10.28
0
VERTEX
10
6.23503
20
10.5462
30
10.28
0
VERTEX
10
6.19396
20
10.5551
30
10.28
0
VERTEX
10
6.17343
20
10.5564
30
10.28
0
VERTEX
10
6.16829
20
10.5603
30
10.28
0
VERTEX
10
6.16316
20
10.5603
30
10.28
0
VERTEX
10
6.16187
20
10.5628
30
10.28
0
VERTEX
10
6.15546
20
10.5218
30
10.28
0
VERTEX
10
6.14647
20
10.4396
30
10.28
0
VERTEX
10
6.14134
20
10.3986
30
10.28
0
VERTEX
10
6.13877
20
10.378
30
10.28
0
SEQEND
0
POLYLINE
62
31
66
1
70
1
3
contour
0
VERTEX
10
6.56369
20
10.3802
30
10.28
0
VERTEX
10
6.56666
20
10.3773
30
10.28
0
VERTEX
10
6.56815
20
10.3654
30
10.28
0
VERTEX
10
6.57707
20
10.3564
30
10.28
0
VERTEX
10
6.57707
20
10.3535
30
10.28
0
VERTEX
10
6.58005
20
10.3505
30
10.28
0
VERTEX
10
6.58302
20
10.3386
30
10.28
0
VERTEX
10
6.586
20
10.3356
30
10.28
0
VERTEX
10
6.586
20
10.3326
30
10.28
0
VERTEX
10
6.58897
20
10.3297
30
10.28
0
VERTEX
10
6.59194
20
10.3297
30
10.28
0
VERTEX
10
6.60087
20
10.3192
30
10.28
0
VERTEX
10
6.62467
20
10.3118
30
10.28
0
VERTEX
10
6.63657
20
10.3118
30
10.28
0
VERTEX
10
6.64251
20
10.3088
30
10.28
0
VERTEX
10
6.65441
20
10.3088
30
10.28
0
VERTEX
10
6.66631
20
10.3044
30
10.28
0
VERTEX
10
6.71391
20
10.3014
30
10.28
0
VERTEX
10
6.73771
20
10.3029
30
10.28
0
VERTEX
10
6.74068
20
10.3029
30
10.28
0
VERTEX
10
6.74365
20
10.3059
30
10.28
0
VERTEX
10
6.75555
20
10.3103
30
10.28
0
VERTEX
10
6.76894
20
10.3192
30
10.28
0
VERTEX
10
6.76894
20
10.3222
30
10.28
0
VERTEX
10
6.77489
20
10.3252
30
10.28
0
VERTEX
10
6.7853
20
10.3371
30
10.28
0
VERTEX
10
6.79274
20
10.3475
30
10.28
0
VERTEX
10
6.80464
20
10.3535
30
10.28
0
VERTEX
10
6.80761
20
10.3535
30
10.28
0
VERTEX
10
6.81356
20
10.3579
30
10.28
0
VERTEX
10
6.81653
20
10.3609
30
10.28
0
VERTEX
10
6.82248
20
10.3624
30
10.28
0
VERTEX
10
6.83438
20
10.3713
30
10.28
0
VERTEX
10
6.85372
20
10.3892
30
10.28
0
VERTEX
10
6.86264
20
10.3981
30
10.28
0
VERTEX
10
6.86562
20
10.41
30
10.28
0
VERTEX
10
6.86264
20
10.4576
30
10.28
0
VERTEX
10
6.86264
20
10.5052
30
10.28
0
VERTEX
10
6.86413
20
10.529
30
10.28
0
VERTEX
10
6.86562
20
10.5409
30
10.28
0
VERTEX
10
6.86413
20
10.5468
30
10.28
0
VERTEX
10
6.85223
20
10.5572
30
10.28
0
VERTEX
10
6.85074
20
10.5557
30
10.28
0
VERTEX
10
6.82992
20
10.5766
30
10.28
0
VERTEX
10
6.82546
20
10.5825
30
10.28
0
VERTEX
10
6.82248
20
10.5855
30
10.28
0
VERTEX
10
6.82248
20
10.5914
30
10.28
0
VERTEX
10
6.81802
20
10.6033
30
10.28
0
VERTEX
10
6.81802
20
10.6093
30
10.28
0
VERTEX
10
6.80761
20
10.6137
30
10.28
0
VERTEX
10
6.7972
20
10.6227
30
10.28
0
VERTEX
10
6.79125
20
10.6271
30
10.28
0
VERTEX
10
6.76745
20
10.6301
30
10.28
0
VERTEX
10
6.75555
20
10.6301
30
10.28
0
VERTEX
10
6.75258
20
10.6301
30
10.28
0
VERTEX
10
6.74217
20
10.6212
30
10.28
0
VERTEX
10
6.73622
20
10.6212
30
10.28
0
VERTEX
10
6.72432
20
10.6152
30
10.28
0
VERTEX
10
6.72134
20
10.6123
30
10.28
0
VERTEX
10
6.71093
20
10.6078
30
10.28
0
VERTEX
10
6.68714
20
10.5914
30
10.28
0
VERTEX
10
6.67524
20
10.5855
30
10.28
0
VERTEX
10
6.65293
20
10.5647
30
10.28
0
VERTEX
10
6.64103
20
10.5602
30
10.28
0
VERTEX
10
6.63805
20
10.5543
30
10.28
0
VERTEX
10
6.63508
20
10.5543
30
10.28
0
VERTEX
10
6.62615
20
10.5438
30
10.28
0
VERTEX
10
6.61574
20
10.5364
30
10.28
0
VERTEX
10
6.60979
20
10.5319
30
10.28
0
VERTEX
10
6.60682
20
10.529
30
10.28
0
VERTEX
10
6.60533
20
10.523
30
10.28
0
VERTEX
10
6.60533
20
10.52
30
10.28
0
VERTEX
10
6.60087
20
10.5141
30
10.28
0
VERTEX
10
6.59938
20
10.5081
30
10.28
0
VERTEX
10
6.59046
20
10.4962
30
10.28
0
VERTEX
10
6.58897
20
10.4903
30
10.28
0
VERTEX
10
6.58153
20
10.4784
30
10.28
0
VERTEX
10
6.58005
20
10.4724
30
10.28
0
VERTEX
10
6.57558
20
10.4665
30
10.28
0
VERTEX
10
6.57558
20
10.4605
30
10.28
0
VERTEX
10
6.56517
20
10.4382
30
10.28
0
VERTEX
10
6.56369
20
10.3906
30
10.28
0
VERTEX
10
6.56369
20
10.3847
30
10.28
0
VERTEX
10
6.56369
20
10.3817
30
10.28
0
SEQEND
0
POLYLINE
62
31
66
1
70
1
3
contour
0
VERTEX
10
6.2097
20
10.4665
30
10.28
0
VERTEX
10
6.21267
20
10.4189
30
10.28
0
VERTEX
10
6.21416
20
10.3951
30
10.28
0
VERTEX
10
6.21267
20
10.3713
30
10.28
0
VERTEX
10
6.21267
20
10.3654
30
10.28
0
VERTEX
10
6.21267
20
10.3624
30
10.28
0
VERTEX
10
6.22308
20
10.3505
30
10.28
0
VERTEX
10
6.22754
20
10.3445
30
10.28
0
VERTEX
10
6.23201
20
10.3341
30
10.28
0
VERTEX
10
6.23349
20
10.3282
30
10.28
0
VERTEX
10
6.23647
20
10.3252
30
10.28
0
VERTEX
10
6.23647
20
10.3222
30
10.28
0
VERTEX
10
6.23944
20
10.3207
30
10.28
0
VERTEX
10
6.23944
20
10.3178
30
10.28
0
VERTEX
10
6.24242
20
10.3148
30
10.28
0
VERTEX
10
6.24242
20
10.3118
30
10.28
0
VERTEX
10
6.25283
20
10.3014
30
10.28
0
VERTEX
10
6.26175
20
10.294
30
10.28
0
VERTEX
10
6.26621
20
10.288
30
10.28
0
VERTEX
10
6.26919
20
10.288
30
10.28
0
VERTEX
10
6.27514
20
10.2821
30
10.28
0
VERTEX
10
6.28704
20
10.2791
30
10.28
0
VERTEX
10
6.33463
20
10.2791
30
10.28
0
VERTEX
10
6.35843
20
10.2806
30
10.28
0
VERTEX
10
6.36141
20
10.2806
30
10.28
0
VERTEX
10
6.36438
20
10.2836
30
10.28
0
VERTEX
10
6.37628
20
10.2836
30
10.28
0
VERTEX
10
6.42387
20
10.2984
30
10.28
0
VERTEX
10
6.42834
20
10.3014
30
10.28
0
VERTEX
10
6.43131
20
10.3014
30
10.28
0
VERTEX
10
6.4328
20
10.3044
30
10.28
0
VERTEX
10
6.43577
20
10.3044
30
10.28
0
VERTEX
10
6.44172
20
10.3088
30
10.28
0
VERTEX
10
6.45362
20
10.3118
30
10.28
0
VERTEX
10
6.45808
20
10.3178
30
10.28
0
VERTEX
10
6.46106
20
10.3178
30
10.28
0
VERTEX
10
6.48188
20
10.3386
30
10.28
0
VERTEX
10
6.48634
20
10.343
30
10.28
0
VERTEX
10
6.48783
20
10.346
30
10.28
0
VERTEX
10
6.4908
20
10.346
30
10.28
0
VERTEX
10
6.49675
20
10.352
30
10.28
0
VERTEX
10
6.50419
20
10.3758
30
10.28
0
VERTEX
10
6.51163
20
10.3877
30
10.28
0
VERTEX
10
6.51312
20
10.3936
30
10.28
0
VERTEX
10
6.51312
20
10.3966
30
10.28
0
VERTEX
10
6.51609
20
10.3996
30
10.28
0
VERTEX
10
6.51906
20
10.4115
30
10.28
0
VERTEX
10
6.51906
20
10.4144
30
10.28
0
VERTEX
10
6.52353
20
10.4204
30
10.28
0
VERTEX
10
6.52799
20
10.4442
30
10.28
0
VERTEX
10
6.53096
20
10.4561
30
10.28
0
VERTEX
10
6.53096
20
10.462
30
10.28
0
VERTEX
10
6.53543
20
10.4665
30
10.28
0
VERTEX
10
6.53989
20
10.4784
30
10.28
0
VERTEX
10
6.54881
20
10.4903
30
10.28
0
VERTEX
10
6.54881
20
10.4933
30
10.28
0
VERTEX
10
6.55476
20
10.4992
30
10.28
0
VERTEX
10
6.55625
20
10.5052
30
10.28
0
VERTEX
10
6.56517
20
10.5156
30
10.28
0
VERTEX
10
6.56815
20
10.5215
30
10.28
0
VERTEX
10
6.5741
20
10.526
30
10.28
0
VERTEX
10
6.5741
20
10.529
30
10.28
0
VERTEX
10
6.57707
20
10.5319
30
10.28
0
VERTEX
10
6.57707
20
10.5349
30
10.28
0
VERTEX
10
6.58005
20
10.5364
30
10.28
0
VERTEX
10
6.58897
20
10.5602
30
10.28
0
VERTEX
10
6.59789
20
10.5691
30
10.28
0
VERTEX
10
6.60236
20
10.5736
30
10.28
0
VERTEX
10
6.60533
20
10.5736
30
10.28
0
VERTEX
10
6.61426
20
10.5855
30
10.28
0
VERTEX
10
6.62467
20
10.5914
30
10.28
0
VERTEX
10
6.63508
20
10.6004
30
10.28
0
VERTEX
10
6.64103
20
10.6033
30
10.28
0
VERTEX
10
6.644
20
10.6033
30
10.28
0
VERTEX
10
6.64698
20
10.6063
30
10.28
0
VERTEX
10
6.64995
20
10.6063
30
10.28
0
VERTEX
10
6.66036
20
10.6152
30
10.28
0
VERTEX
10
6.66631
20
10.6167
30
10.28
0
VERTEX
10
6.66929
20
10.6167
30
10.28
0
VERTEX
10
6.67524
20
10.6212
30
10.28
0
VERTEX
10
6.68714
20
10.6227
30
10.28
0
VERTEX
10
6.68862
20
10.6256
30
10.28
0
VERTEX
10
6.6916
20
10.6256
30
10.28
0
VERTEX
10
6.7035
20
10.6361
30
10.28
0
VERTEX
10
6.70647
20
10.6375
30
10.28
0
VERTEX
10
6.70647
20
10.6405
30
10.28
0
VERTEX
10
6.71242
20
10.645
30
10.28
0
VERTEX
10
6.71242
20
10.648
30
10.28
0
VERTEX
10
6.7154
20
10.6509
30
10.28
0
VERTEX
10
6.71986
20
10.6628
30
10.28
0
VERTEX
10
6.73176
20
10.6732
30
10.28
0
VERTEX
10
6.73622
20
10.6792
30
10.28
0
VERTEX
10
6.73919
20
10.6792
30
10.28
0
VERTEX
10
6.75109
20
10.6866
30
10.28
0
VERTEX
10
6.7615
20
10.697
30
10.28
0
VERTEX
10
6.8091
20
10.7074
30
10.28
0
VERTEX
10
6.821
20
10.7149
30
10.28
0
VERTEX
10
6.82546
20
10.7208
30
10.28
0
VERTEX
10
6.821
20
10.7327
30
10.28
0
VERTEX
10
6.821
20
10.7387
30
10.28
0
VERTEX
10
6.81356
20
10.7506
30
10.28
0
VERTEX
10
6.80166
20
10.761
30
10.28
0
VERTEX
10
6.7972
20
10.764
30
10.28
0
VERTEX
10
6.79125
20
10.7699
30
10.28
0
VERTEX
10
6.76894
20
10.7833
30
10.28
0
VERTEX
10
6.75704
20
10.7907
30
10.28
0
VERTEX
10
6.75407
20
10.7937
30
10.28
0
VERTEX
10
6.73027
20
10.7952
30
10.28
0
VERTEX
10
6.68267
20
10.7893
30
10.28
0
VERTEX
10
6.65888
20
10.7848
30
10.28
0
VERTEX
10
6.65293
20
10.7848
30
10.28
0
VERTEX
10
6.62913
20
10.7759
30
10.28
0
VERTEX
10
6.62318
20
10.7759
30
10.28
0
VERTEX
10
6.62169
20
10.7729
30
10.28
0
VERTEX
10
6.60979
20
10.7684
30
10.28
0
VERTEX
10
6.60533
20
10.764
30
10.28
0
VERTEX
10
6.59343
20
10.7595
30
10.28
0
VERTEX
10
6.58748
20
10.758
30
10.28
0
VERTEX
10
6.58451
20
10.755
30
10.28
0
VERTEX
10
6.57856
20
10.7536
30
10.28
0
VERTEX
10
6.57558
20
10.7536
30
10.28
0
VERTEX
10
6.56963
20
10.7491
30
10.28
0
VERTEX
10
6.55774
20
10.7446
30
10.28
0
VERTEX
10
6.5384
20
10.7298
30
10.28
0
VERTEX
10
6.5265
20
10.7223
30
10.28
0
VERTEX
10
6.52055
20
10.7223
30
10.28
0
VERTEX
10
6.49973
20
10.703
30
10.28
0
VERTEX
10
6.47891
20
10.6866
30
10.28
0
VERTEX
10
6.46701
20
10.6777
30
10.28
0
VERTEX
10
6.46106
20
10.6747
30
10.28
0
VERTEX
10
6.45511
20
10.6747
30
10.28
0
VERTEX
10
6.45213
20
10.6718
30
10.28
0
VERTEX
10
6.42834
20
10.6673
30
10.28
0
VERTEX
10
6.38074
20
10.6703
30
10.28
0
VERTEX
10
6.35694
20
10.6718
30
10.28
0
VERTEX
10
6.33315
20
10.6762
30
10.28
0
VERTEX
10
6.30935
20
10.6747
30
10.28
0
VERTEX
10
6.29745
20
10.6747
30
10.28
0
VERTEX
10
6.2915
20
10.6747
30
10.28
0
VERTEX
10
6.2677
20
10.6599
30
10.28
0
VERTEX
10
6.25878
20
10.6361
30
10.28
0
VERTEX
10
6.25134
20
10.6242
30
10.28
0
VERTEX
10
6.24539
20
10.6212
30
10.28
0
VERTEX
10
6.24093
20
10.6152
30
10.28
0
VERTEX
10
6.24093
20
10.6123
30
10.28
0
VERTEX
10
6.23201
20
10.6033
30
10.28
0
VERTEX
10
6.22903
20
10.6004
30
10.28
0
VERTEX
10
6.22754
20
10.5944
30
10.28
0
VERTEX
10
6.22011
20
10.5825
30
10.28
0
VERTEX
10
6.21713
20
10.5706
30
10.28
0
VERTEX
10
6.21416
20
10.5676
30
10.28
0
VERTEX
10
6.2097
20
10.4724
30
10.28
0
VERTEX
10
6.2097
20
10.468
30
10.28
0
SEQEND
0
ENDSEC
0
EOF
