0
SECTION
2
ENTITIES
0
POLYLINE
62
31
66
1
70
1
3
contour
0
VERTEX
10
8.23629
20
9.77722
30
7.04
0
VERTEX
10
8.24614
20
9.76737
30
7.04
0
VERTEX
10
8.26091
20
9.72798
30
7.04
0
VERTEX
10
8.36429
20
9.57537
30
7.04
0
VERTEX
10
8.39383
20
9.54091
30
7.04
0
VERTEX
10
8.39876
20
9.52122
30
7.04
0
VERTEX
10
8.43322
20
9.48183
30
7.04
0
VERTEX
10
8.45783
20
9.44737
30
7.04
0
VERTEX
10
8.47752
20
9.42768
30
7.04
0
VERTEX
10
8.51691
20
9.41783
30
7.04
0
VERTEX
10
8.5366
20
9.42275
30
7.04
0
VERTEX
10
8.54645
20
9.4326
30
7.04
0
VERTEX
10
8.55629
20
9.4326
30
7.04
0
VERTEX
10
8.59568
20
9.45722
30
7.04
0
VERTEX
10
8.61537
20
9.46214
30
7.04
0
VERTEX
10
8.62522
20
9.47198
30
7.04
0
VERTEX
10
8.6646
20
9.47691
30
7.04
0
VERTEX
10
8.74337
20
9.50152
30
7.04
0
VERTEX
10
8.76306
20
9.51629
30
7.04
0
VERTEX
10
8.78276
20
9.52122
30
7.04
0
VERTEX
10
8.78768
20
9.53106
30
7.04
0
VERTEX
10
8.79752
20
9.53106
30
7.04
0
VERTEX
10
8.83199
20
9.56552
30
7.04
0
VERTEX
10
8.83691
20
9.57537
30
7.04
0
VERTEX
10
8.84676
20
9.57537
30
7.04
0
VERTEX
10
8.90583
20
9.65414
30
7.04
0
VERTEX
10
8.91568
20
9.66398
30
7.04
0
VERTEX
10
8.92552
20
9.66398
30
7.04
0
VERTEX
10
8.93537
20
9.67383
30
7.04
0
VERTEX
10
8.94029
20
9.7526
30
7.04
0
VERTEX
10
8.95999
20
9.79198
30
7.04
0
VERTEX
10
8.96983
20
9.83137
30
7.04
0
VERTEX
10
8.96983
20
9.87075
30
7.04
0
VERTEX
10
9.04368
20
9.87568
30
7.04
0
VERTEX
10
9.06337
20
9.87568
30
7.04
0
VERTEX
10
9.08306
20
9.88552
30
7.04
0
VERTEX
10
9.09783
20
9.90521
30
7.04
0
VERTEX
10
9.10768
20
9.91014
30
7.04
0
VERTEX
10
9.1126
20
9.92983
30
7.04
0
VERTEX
10
9.12737
20
9.9446
30
7.04
0
VERTEX
10
9.13229
20
9.98398
30
7.04
0
VERTEX
10
9.14706
20
10.0037
30
7.04
0
VERTEX
10
9.15691
20
10.0135
30
7.04
0
VERTEX
10
9.16183
20
10.0529
30
7.04
0
VERTEX
10
9.1766
20
10.0726
30
7.04
0
VERTEX
10
9.1766
20
10.1514
30
7.04
0
VERTEX
10
9.1766
20
10.1908
30
7.04
0
VERTEX
10
9.16675
20
10.2301
30
7.04
0
VERTEX
10
9.14706
20
10.2646
30
7.04
0
VERTEX
10
9.06829
20
10.3138
30
7.04
0
VERTEX
10
9.05845
20
10.3237
30
7.04
0
VERTEX
10
9.0486
20
10.3089
30
7.04
0
VERTEX
10
9.00922
20
10.2892
30
7.04
0
VERTEX
10
8.97968
20
10.2548
30
7.04
0
VERTEX
10
8.94029
20
10.2252
30
7.04
0
VERTEX
10
8.92552
20
10.2055
30
7.04
0
VERTEX
10
8.91568
20
10.2006
30
7.04
0
VERTEX
10
8.89599
20
10.2154
30
7.04
0
VERTEX
10
8.87629
20
10.2203
30
7.04
0
VERTEX
10
8.86645
20
10.2301
30
7.04
0
VERTEX
10
8.78768
20
10.2301
30
7.04
0
VERTEX
10
8.76799
20
10.2301
30
7.04
0
VERTEX
10
8.73352
20
10.2154
30
7.04
0
VERTEX
10
8.69906
20
10.1908
30
7.04
0
VERTEX
10
8.67937
20
10.1858
30
7.04
0
VERTEX
10
8.64491
20
10.1612
30
7.04
0
VERTEX
10
8.63506
20
10.1464
30
7.04
0
VERTEX
10
8.56122
20
10.112
30
7.04
0
VERTEX
10
8.54645
20
10.0923
30
7.04
0
VERTEX
10
8.50706
20
10.0824
30
7.04
0
VERTEX
10
8.48737
20
10.0775
30
7.04
0
VERTEX
10
8.48245
20
10.0677
30
7.04
0
VERTEX
10
8.44306
20
10.0628
30
7.04
0
VERTEX
10
8.42337
20
10.0628
30
7.04
0
VERTEX
10
8.40368
20
10.0529
30
7.04
0
VERTEX
10
8.32491
20
10.048
30
7.04
0
VERTEX
10
8.31506
20
10.048
30
7.04
0
VERTEX
10
8.27568
20
10.0184
30
7.04
0
VERTEX
10
8.26583
20
9.97906
30
7.04
0
VERTEX
10
8.26091
20
9.90029
30
7.04
0
VERTEX
10
8.24614
20
9.86091
30
7.04
0
VERTEX
10
8.23629
20
9.84121
30
7.04
0
VERTEX
10
8.23629
20
9.80183
30
7.04
0
VERTEX
10
8.23629
20
9.78214
30
7.04
0
SEQEND
0
POLYLINE
62
224
66
1
70
1
3
mitochondrion
0
VERTEX
10
8.3829
20
9.69964
30
7.04
0
VERTEX
10
8.38568
20
9.65515
30
7.04
0
VERTEX
10
8.38846
20
9.64958
30
7.04
0
VERTEX
10
8.38985
20
9.62734
30
7.04
0
VERTEX
10
8.39124
20
9.62177
30
7.04
0
VERTEX
10
8.39542
20
9.61621
30
7.04
0
VERTEX
10
8.39681
20
9.61343
30
7.04
0
VERTEX
10
8.40793
20
9.61065
30
7.04
0
VERTEX
10
8.40793
20
9.60787
30
7.04
0
VERTEX
10
8.42879
20
9.5884
30
7.04
0
VERTEX
10
8.43435
20
9.58423
30
7.04
0
VERTEX
10
8.43713
20
9.58423
30
7.04
0
VERTEX
10
8.43991
20
9.58145
30
7.04
0
VERTEX
10
8.44547
20
9.58006
30
7.04
0
VERTEX
10
8.45659
20
9.57311
30
7.04
0
VERTEX
10
8.46772
20
9.57033
30
7.04
0
VERTEX
10
8.4705
20
9.56755
30
7.04
0
VERTEX
10
8.47606
20
9.56616
30
7.04
0
VERTEX
10
8.48718
20
9.55921
30
7.04
0
VERTEX
10
8.49275
20
9.55782
30
7.04
0
VERTEX
10
8.49553
20
9.55503
30
7.04
0
VERTEX
10
8.50665
20
9.55086
30
7.04
0
VERTEX
10
8.51221
20
9.54947
30
7.04
0
VERTEX
10
8.51499
20
9.54947
30
7.04
0
VERTEX
10
8.52055
20
9.5453
30
7.04
0
VERTEX
10
8.52612
20
9.5453
30
7.04
0
VERTEX
10
8.53724
20
9.53974
30
7.04
0
VERTEX
10
8.55949
20
9.53696
30
7.04
0
VERTEX
10
8.57061
20
9.53279
30
7.04
0
VERTEX
10
8.58173
20
9.5314
30
7.04
0
VERTEX
10
8.5873
20
9.52862
30
7.04
0
VERTEX
10
8.63179
20
9.52862
30
7.04
0
VERTEX
10
8.65404
20
9.53001
30
7.04
0
VERTEX
10
8.6596
20
9.53001
30
7.04
0
VERTEX
10
8.67072
20
9.53696
30
7.04
0
VERTEX
10
8.71521
20
9.55364
30
7.04
0
VERTEX
10
8.73746
20
9.55921
30
7.04
0
VERTEX
10
8.74719
20
9.56755
30
7.04
0
VERTEX
10
8.75276
20
9.57172
30
7.04
0
VERTEX
10
8.75554
20
9.5745
30
7.04
0
VERTEX
10
8.75693
20
9.58006
30
7.04
0
VERTEX
10
8.76666
20
9.5898
30
7.04
0
VERTEX
10
8.77083
20
9.59536
30
7.04
0
VERTEX
10
8.775
20
9.59814
30
7.04
0
VERTEX
10
8.77639
20
9.60092
30
7.04
0
VERTEX
10
8.78196
20
9.60231
30
7.04
0
VERTEX
10
8.78474
20
9.60231
30
7.04
0
VERTEX
10
8.78891
20
9.60787
30
7.04
0
VERTEX
10
8.78891
20
9.61343
30
7.04
0
VERTEX
10
8.79725
20
9.62456
30
7.04
0
VERTEX
10
8.80837
20
9.6329
30
7.04
0
VERTEX
10
8.81394
20
9.63568
30
7.04
0
VERTEX
10
8.81672
20
9.64124
30
7.04
0
VERTEX
10
8.82645
20
9.65097
30
7.04
0
VERTEX
10
8.8334
20
9.6621
30
7.04
0
VERTEX
10
8.84174
20
9.68434
30
7.04
0
VERTEX
10
8.84592
20
9.72884
30
7.04
0
VERTEX
10
8.84592
20
9.75108
30
7.04
0
VERTEX
10
8.84452
20
9.76221
30
7.04
0
VERTEX
10
8.83757
20
9.77333
30
7.04
0
VERTEX
10
8.8334
20
9.78446
30
7.04
0
VERTEX
10
8.83062
20
9.78724
30
7.04
0
VERTEX
10
8.83062
20
9.79002
30
7.04
0
VERTEX
10
8.82506
20
9.79558
30
7.04
0
VERTEX
10
8.81811
20
9.8067
30
7.04
0
VERTEX
10
8.81672
20
9.81226
30
7.04
0
VERTEX
10
8.81254
20
9.81783
30
7.04
0
VERTEX
10
8.81254
20
9.82061
30
7.04
0
VERTEX
10
8.8042
20
9.82895
30
7.04
0
VERTEX
10
8.80003
20
9.83451
30
7.04
0
VERTEX
10
8.80003
20
9.83729
30
7.04
0
VERTEX
10
8.78196
20
9.85815
30
7.04
0
VERTEX
10
8.75971
20
9.86788
30
7.04
0
VERTEX
10
8.71521
20
9.87205
30
7.04
0
VERTEX
10
8.69297
20
9.87344
30
7.04
0
VERTEX
10
8.68741
20
9.87622
30
7.04
0
VERTEX
10
8.68184
20
9.87622
30
7.04
0
VERTEX
10
8.67906
20
9.879
30
7.04
0
VERTEX
10
8.65682
20
9.88179
30
7.04
0
VERTEX
10
8.64569
20
9.88179
30
7.04
0
VERTEX
10
8.64013
20
9.88179
30
7.04
0
VERTEX
10
8.62901
20
9.87761
30
7.04
0
VERTEX
10
8.58451
20
9.87622
30
7.04
0
VERTEX
10
8.57339
20
9.87622
30
7.04
0
VERTEX
10
8.55114
20
9.87205
30
7.04
0
VERTEX
10
8.54002
20
9.87205
30
7.04
0
VERTEX
10
8.5289
20
9.86788
30
7.04
0
VERTEX
10
8.52334
20
9.86788
30
7.04
0
VERTEX
10
8.52055
20
9.86788
30
7.04
0
VERTEX
10
8.51777
20
9.87066
30
7.04
0
VERTEX
10
8.47328
20
9.85954
30
7.04
0
VERTEX
10
8.46772
20
9.85954
30
7.04
0
VERTEX
10
8.46494
20
9.85815
30
7.04
0
VERTEX
10
8.4705
20
9.8512
30
7.04
0
VERTEX
10
8.44964
20
9.83729
30
7.04
0
VERTEX
10
8.44408
20
9.83312
30
7.04
0
VERTEX
10
8.42879
20
9.81087
30
7.04
0
VERTEX
10
8.42601
20
9.8067
30
7.04
0
VERTEX
10
8.42044
20
9.80114
30
7.04
0
VERTEX
10
8.41766
20
9.79836
30
7.04
0
VERTEX
10
8.41488
20
9.79836
30
7.04
0
VERTEX
10
8.40376
20
9.79002
30
7.04
0
VERTEX
10
8.39542
20
9.77889
30
7.04
0
VERTEX
10
8.39263
20
9.77333
30
7.04
0
VERTEX
10
8.39263
20
9.77055
30
7.04
0
VERTEX
10
8.38846
20
9.76499
30
7.04
0
VERTEX
10
8.38429
20
9.74274
30
7.04
0
VERTEX
10
8.3829
20
9.7205
30
7.04
0
VERTEX
10
8.3829
20
9.70937
30
7.04
0
VERTEX
10
8.3829
20
9.70381
30
7.04
0
VERTEX
10
8.3829
20
9.70103
30
7.04
0
SEQEND
0
POLYLINE
62
227
66
1
70
1
3
endoplasmic_reticulum
0
VERTEX
10
8.35581
20
9.91849
30
7.04
0
VERTEX
10
8.3576
20
9.91132
30
7.04
0
VERTEX
10
8.3585
20
9.90952
30
7.04
0
VERTEX
10
8.35671
20
9.90235
30
7.04
0
VERTEX
10
8.3576
20
9.89877
30
7.04
0
VERTEX
10
8.36029
20
9.89697
30
7.04
0
VERTEX
10
8.36298
20
9.8898
30
7.04
0
VERTEX
10
8.36388
20
9.88621
30
7.04
0
VERTEX
10
8.36926
20
9.88083
30
7.04
0
VERTEX
10
8.37105
20
9.87725
30
7.04
0
VERTEX
10
8.37822
20
9.87097
30
7.04
0
VERTEX
10
8.3854
20
9.86739
30
7.04
0
VERTEX
10
8.39974
20
9.86649
30
7.04
0
VERTEX
10
8.40691
20
9.86739
30
7.04
0
VERTEX
10
8.4105
20
9.86918
30
7.04
0
VERTEX
10
8.41767
20
9.86918
30
7.04
0
VERTEX
10
8.42484
20
9.87187
30
7.04
0
VERTEX
10
8.42843
20
9.87187
30
7.04
0
VERTEX
10
8.4356
20
9.87546
30
7.04
0
VERTEX
10
8.4374
20
9.87546
30
7.04
0
VERTEX
10
8.44367
20
9.88083
30
7.04
0
VERTEX
10
8.44995
20
9.88442
30
7.04
0
VERTEX
10
8.45712
20
9.8907
30
7.04
0
VERTEX
10
8.4616
20
9.89697
30
7.04
0
VERTEX
10
8.4634
20
9.89877
30
7.04
0
VERTEX
10
8.4634
20
9.90056
30
7.04
0
VERTEX
10
8.47057
20
9.90414
30
7.04
0
VERTEX
10
8.47326
20
9.90863
30
7.04
0
VERTEX
10
8.47864
20
9.9158
30
7.04
0
VERTEX
10
8.47774
20
9.92297
30
7.04
0
VERTEX
10
8.47774
20
9.92656
30
7.04
0
VERTEX
10
8.47595
20
9.93014
30
7.04
0
VERTEX
10
8.47595
20
9.93373
30
7.04
0
VERTEX
10
8.47057
20
9.93911
30
7.04
0
VERTEX
10
8.45622
20
9.94359
30
7.04
0
VERTEX
10
8.45443
20
9.94539
30
7.04
0
VERTEX
10
8.44009
20
9.94628
30
7.04
0
VERTEX
10
8.4114
20
9.9427
30
7.04
0
VERTEX
10
8.39705
20
9.9409
30
7.04
0
VERTEX
10
8.38271
20
9.9409
30
7.04
0
VERTEX
10
8.37912
20
9.9409
30
7.04
0
VERTEX
10
8.37733
20
9.9409
30
7.04
0
VERTEX
10
8.37643
20
9.93911
30
7.04
0
VERTEX
10
8.37284
20
9.93911
30
7.04
0
VERTEX
10
8.36567
20
9.93463
30
7.04
0
VERTEX
10
8.36388
20
9.93463
30
7.04
0
VERTEX
10
8.36119
20
9.93104
30
7.04
0
VERTEX
10
8.35581
20
9.92656
30
7.04
0
VERTEX
10
8.35581
20
9.91939
30
7.04
0
SEQEND
0
POLYLINE
62
227
66
1
70
1
3
endoplasmic_reticulum
0
VERTEX
10
8.88567
20
9.88263
30
7.04
0
VERTEX
10
8.88836
20
9.86828
30
7.04
0
VERTEX
10
8.89463
20
9.86201
30
7.04
0
VERTEX
10
8.90181
20
9.86021
30
7.04
0
VERTEX
10
8.90539
20
9.86021
30
7.04
0
VERTEX
10
8.90719
20
9.86021
30
7.04
0
VERTEX
10
8.91167
20
9.87456
30
7.04
0
VERTEX
10
8.91256
20
9.88173
30
7.04
0
VERTEX
10
8.91525
20
9.88442
30
7.04
0
VERTEX
10
8.91615
20
9.88801
30
7.04
0
VERTEX
10
8.91884
20
9.8907
30
7.04
0
VERTEX
10
8.91974
20
9.89428
30
7.04
0
VERTEX
10
8.92332
20
9.89787
30
7.04
0
VERTEX
10
8.92601
20
9.90504
30
7.04
0
VERTEX
10
8.93139
20
9.90952
30
7.04
0
VERTEX
10
8.93498
20
9.91311
30
7.04
0
VERTEX
10
8.93767
20
9.91939
30
7.04
0
VERTEX
10
8.94484
20
9.92028
30
7.04
0
VERTEX
10
8.94753
20
9.92387
30
7.04
0
VERTEX
10
8.95381
20
9.92835
30
7.04
0
VERTEX
10
8.95739
20
9.92835
30
7.04
0
VERTEX
10
8.96456
20
9.93283
30
7.04
0
VERTEX
10
8.96815
20
9.93463
30
7.04
0
VERTEX
10
9.02553
20
9.93463
30
7.04
0
VERTEX
10
9.05422
20
9.93552
30
7.04
0
VERTEX
10
9.06139
20
9.93552
30
7.04
0
VERTEX
10
9.06408
20
9.93911
30
7.04
0
VERTEX
10
9.07125
20
9.9427
30
7.04
0
VERTEX
10
9.07484
20
9.94359
30
7.04
0
VERTEX
10
9.07843
20
9.94718
30
7.04
0
VERTEX
10
9.07843
20
9.97587
30
7.04
0
VERTEX
10
9.07932
20
9.98304
30
7.04
0
VERTEX
10
9.07843
20
10.0117
30
7.04
0
VERTEX
10
9.07753
20
10.0153
30
7.04
0
VERTEX
10
9.07753
20
10.0171
30
7.04
0
VERTEX
10
9.07394
20
10.0198
30
7.04
0
VERTEX
10
9.07305
20
10.0234
30
7.04
0
VERTEX
10
9.06677
20
10.0288
30
7.04
0
VERTEX
10
9.06498
20
10.0306
30
7.04
0
VERTEX
10
9.03629
20
10.0306
30
7.04
0
VERTEX
10
9.02912
20
10.027
30
7.04
0
VERTEX
10
9.01477
20
10.0243
30
7.04
0
VERTEX
10
9.0076
20
10.0234
30
7.04
0
VERTEX
10
9.00401
20
10.0225
30
7.04
0
VERTEX
10
9.00222
20
10.0207
30
7.04
0
VERTEX
10
9.00043
20
10.0207
30
7.04
0
VERTEX
10
8.97622
20
9.99649
30
7.04
0
VERTEX
10
8.97174
20
9.98214
30
7.04
0
VERTEX
10
8.97084
20
9.97497
30
7.04
0
VERTEX
10
8.95919
20
9.96332
30
7.04
0
VERTEX
10
8.94574
20
9.95525
30
7.04
0
VERTEX
10
8.94215
20
9.95435
30
7.04
0
VERTEX
10
8.9287
20
9.94449
30
7.04
0
VERTEX
10
8.92153
20
9.9409
30
7.04
0
VERTEX
10
8.91167
20
9.92835
30
7.04
0
VERTEX
10
8.90001
20
9.9149
30
7.04
0
VERTEX
10
8.89643
20
9.91311
30
7.04
0
VERTEX
10
8.88746
20
9.89966
30
7.04
0
VERTEX
10
8.88567
20
9.89249
30
7.04
0
VERTEX
10
8.88567
20
9.88532
30
7.04
0
VERTEX
10
8.88567
20
9.88352
30
7.04
0
SEQEND
0
POLYLINE
62
227
66
1
70
1
3
endoplasmic_reticulum
0
VERTEX
10
8.46877
20
9.97318
30
7.04
0
VERTEX
10
8.47236
20
9.96601
30
7.04
0
VERTEX
10
8.47415
20
9.96242
30
7.04
0
VERTEX
10
8.47774
20
9.95973
30
7.04
0
VERTEX
10
8.48491
20
9.95704
30
7.04
0
VERTEX
10
8.49926
20
9.95525
30
7.04
0
VERTEX
10
8.52795
20
9.95614
30
7.04
0
VERTEX
10
8.54229
20
9.95704
30
7.04
0
VERTEX
10
8.54588
20
9.95704
30
7.04
0
VERTEX
10
8.56022
20
9.96242
30
7.04
0
VERTEX
10
8.56739
20
9.96421
30
7.04
0
VERTEX
10
8.57098
20
9.96511
30
7.04
0
VERTEX
10
8.57277
20
9.9669
30
7.04
0
VERTEX
10
8.57457
20
9.9669
30
7.04
0
VERTEX
10
8.57815
20
9.96959
30
7.04
0
VERTEX
10
8.5925
20
9.97318
30
7.04
0
VERTEX
10
8.62119
20
9.97677
30
7.04
0
VERTEX
10
8.62836
20
9.97945
30
7.04
0
VERTEX
10
8.63553
20
9.98035
30
7.04
0
VERTEX
10
8.63912
20
9.98035
30
7.04
0
VERTEX
10
8.6427
20
9.97856
30
7.04
0
VERTEX
10
8.64988
20
9.97766
30
7.04
0
VERTEX
10
8.65346
20
9.97677
30
7.04
0
VERTEX
10
8.65526
20
9.97677
30
7.04
0
VERTEX
10
8.65974
20
9.97049
30
7.04
0
VERTEX
10
8.65974
20
9.9687
30
7.04
0
VERTEX
10
8.66153
20
9.9669
30
7.04
0
VERTEX
10
8.66422
20
9.95973
30
7.04
0
VERTEX
10
8.6687
20
9.95256
30
7.04
0
VERTEX
10
8.67139
20
9.94897
30
7.04
0
VERTEX
10
8.67319
20
9.94897
30
7.04
0
VERTEX
10
8.68036
20
9.9427
30
7.04
0
VERTEX
10
8.68753
20
9.9409
30
7.04
0
VERTEX
10
8.6947
20
9.9427
30
7.04
0
VERTEX
10
8.70905
20
9.94987
30
7.04
0
VERTEX
10
8.71622
20
9.95256
30
7.04
0
VERTEX
10
8.71981
20
9.95435
30
7.04
0
VERTEX
10
8.72339
20
9.95435
30
7.04
0
VERTEX
10
8.72698
20
9.95614
30
7.04
0
VERTEX
10
8.72698
20
9.95794
30
7.04
0
VERTEX
10
8.72429
20
9.96063
30
7.04
0
VERTEX
10
8.72788
20
9.96421
30
7.04
0
VERTEX
10
8.72967
20
9.96421
30
7.04
0
VERTEX
10
8.73236
20
9.9678
30
7.04
0
VERTEX
10
8.73953
20
9.97139
30
7.04
0
VERTEX
10
8.74581
20
9.97677
30
7.04
0
VERTEX
10
8.74401
20
9.99111
30
7.04
0
VERTEX
10
8.74132
20
9.9947
30
7.04
0
VERTEX
10
8.74043
20
9.99828
30
7.04
0
VERTEX
10
8.73863
20
9.99918
30
7.04
0
VERTEX
10
8.73774
20
10.0028
30
7.04
0
VERTEX
10
8.73146
20
10.0081
30
7.04
0
VERTEX
10
8.72788
20
10.0108
30
7.04
0
VERTEX
10
8.7207
20
10.0117
30
7.04
0
VERTEX
10
8.70636
20
10.009
30
7.04
0
VERTEX
10
8.69919
20
10.0055
30
7.04
0
VERTEX
10
8.68484
20
10.0028
30
7.04
0
VERTEX
10
8.67767
20
10.0028
30
7.04
0
VERTEX
10
8.6705
20
10.0046
30
7.04
0
VERTEX
10
8.66691
20
10.0055
30
7.04
0
VERTEX
10
8.66512
20
10.0055
30
7.04
0
VERTEX
10
8.66512
20
10.0198
30
7.04
0
VERTEX
10
8.66512
20
10.0234
30
7.04
0
VERTEX
10
8.65884
20
10.0297
30
7.04
0
VERTEX
10
8.65795
20
10.0315
30
7.04
0
VERTEX
10
8.6436
20
10.0315
30
7.04
0
VERTEX
10
8.62926
20
10.0288
30
7.04
0
VERTEX
10
8.62567
20
10.0279
30
7.04
0
VERTEX
10
8.62208
20
10.0252
30
7.04
0
VERTEX
10
8.61491
20
10.0234
30
7.04
0
VERTEX
10
8.60864
20
10.0189
30
7.04
0
VERTEX
10
8.59429
20
10.0135
30
7.04
0
VERTEX
10
8.58712
20
10.0108
30
7.04
0
VERTEX
10
8.58533
20
10.009
30
7.04
0
VERTEX
10
8.55664
20
10.0046
30
7.04
0
VERTEX
10
8.52795
20
9.99828
30
7.04
0
VERTEX
10
8.52077
20
9.99739
30
7.04
0
VERTEX
10
8.5136
20
9.9947
30
7.04
0
VERTEX
10
8.48491
20
9.9929
30
7.04
0
VERTEX
10
8.47774
20
9.99111
30
7.04
0
VERTEX
10
8.47415
20
9.99021
30
7.04
0
VERTEX
10
8.46967
20
9.98304
30
7.04
0
VERTEX
10
8.46877
20
9.97587
30
7.04
0
VERTEX
10
8.46877
20
9.97408
30
7.04
0
SEQEND
0
POLYLINE
62
227
66
1
70
1
3
endoplasmic_reticulum
0
VERTEX
10
8.28319
20
9.8889
30
7.04
0
VERTEX
10
8.29305
20
9.87635
30
7.04
0
VERTEX
10
8.29933
20
9.87008
30
7.04
0
VERTEX
10
8.30291
20
9.86649
30
7.04
0
VERTEX
10
8.3065
20
9.86559
30
7.04
0
VERTEX
10
8.31009
20
9.8629
30
7.04
0
VERTEX
10
8.31726
20
9.8629
30
7.04
0
VERTEX
10
8.3316
20
9.86739
30
7.04
0
VERTEX
10
8.33878
20
9.86918
30
7.04
0
VERTEX
10
8.34505
20
9.87366
30
7.04
0
VERTEX
10
8.34774
20
9.87635
30
7.04
0
VERTEX
10
8.35043
20
9.88352
30
7.04
0
VERTEX
10
8.35222
20
9.88711
30
7.04
0
VERTEX
10
8.35581
20
9.88801
30
7.04
0
VERTEX
10
8.3576
20
9.8889
30
7.04
0
VERTEX
10
8.3585
20
9.89249
30
7.04
0
VERTEX
10
8.3576
20
9.89608
30
7.04
0
VERTEX
10
8.35581
20
9.89608
30
7.04
0
VERTEX
10
8.34236
20
9.90683
30
7.04
0
VERTEX
10
8.33878
20
9.91042
30
7.04
0
VERTEX
10
8.33519
20
9.91132
30
7.04
0
VERTEX
10
8.32802
20
9.9158
30
7.04
0
VERTEX
10
8.32084
20
9.9158
30
7.04
0
VERTEX
10
8.31726
20
9.9158
30
7.04
0
VERTEX
10
8.31547
20
9.9158
30
7.04
0
VERTEX
10
8.31367
20
9.91759
30
7.04
0
VERTEX
10
8.29933
20
9.91759
30
7.04
0
VERTEX
10
8.29574
20
9.9158
30
7.04
0
VERTEX
10
8.28857
20
9.90952
30
7.04
0
VERTEX
10
8.28678
20
9.90863
30
7.04
0
VERTEX
10
8.28588
20
9.90504
30
7.04
0
VERTEX
10
8.28319
20
9.90235
30
7.04
0
VERTEX
10
8.28319
20
9.89518
30
7.04
0
VERTEX
10
8.28319
20
9.89159
30
7.04
0
VERTEX
10
8.28319
20
9.8898
30
7.04
0
SEQEND
0
POLYLINE
62
31
66
1
70
1
3
contour
0
VERTEX
10
7.19046
20
9.78595
30
7.04
0
VERTEX
10
7.19342
20
9.76228
30
7.04
0
VERTEX
10
7.1949
20
9.75045
30
7.04
0
VERTEX
10
7.1949
20
9.74454
30
7.04
0
VERTEX
10
7.1949
20
9.74158
30
7.04
0
VERTEX
10
7.19933
20
9.73566
30
7.04
0
VERTEX
10
7.19933
20
9.72383
30
7.04
0
VERTEX
10
7.19933
20
9.72088
30
7.04
0
VERTEX
10
7.20377
20
9.71496
30
7.04
0
VERTEX
10
7.20525
20
9.6913
30
7.04
0
VERTEX
10
7.20525
20
9.67947
30
7.04
0
VERTEX
10
7.20525
20
9.67355
30
7.04
0
VERTEX
10
7.21264
20
9.64989
30
7.04
0
VERTEX
10
7.2156
20
9.64397
30
7.04
0
VERTEX
10
7.21856
20
9.62031
30
7.04
0
VERTEX
10
7.21856
20
9.61439
30
7.04
0
VERTEX
10
7.223
20
9.60256
30
7.04
0
VERTEX
10
7.22448
20
9.50791
30
7.04
0
VERTEX
10
7.22743
20
9.49608
30
7.04
0
VERTEX
10
7.22743
20
9.49312
30
7.04
0
VERTEX
10
7.24222
20
9.46946
30
7.04
0
VERTEX
10
7.24666
20
9.45763
30
7.04
0
VERTEX
10
7.24814
20
9.45171
30
7.04
0
VERTEX
10
7.25257
20
9.4458
30
7.04
0
VERTEX
10
7.25997
20
9.42214
30
7.04
0
VERTEX
10
7.26441
20
9.41622
30
7.04
0
VERTEX
10
7.26588
20
9.40439
30
7.04
0
VERTEX
10
7.26884
20
9.39847
30
7.04
0
VERTEX
10
7.26884
20
9.39551
30
7.04
0
VERTEX
10
7.27772
20
9.38368
30
7.04
0
VERTEX
10
7.28363
20
9.37777
30
7.04
0
VERTEX
10
7.28659
20
9.37185
30
7.04
0
VERTEX
10
7.28659
20
9.36889
30
7.04
0
VERTEX
10
7.29103
20
9.36446
30
7.04
0
VERTEX
10
7.2925
20
9.35854
30
7.04
0
VERTEX
10
7.29694
20
9.35558
30
7.04
0
VERTEX
10
7.29842
20
9.34375
30
7.04
0
VERTEX
10
7.30286
20
9.33784
30
7.04
0
VERTEX
10
7.30286
20
9.33488
30
7.04
0
VERTEX
10
7.31321
20
9.32453
30
7.04
0
VERTEX
10
7.31913
20
9.32157
30
7.04
0
VERTEX
10
7.34279
20
9.32157
30
7.04
0
VERTEX
10
7.36645
20
9.32748
30
7.04
0
VERTEX
10
7.37828
20
9.33044
30
7.04
0
VERTEX
10
7.38863
20
9.33784
30
7.04
0
VERTEX
10
7.39751
20
9.34819
30
7.04
0
VERTEX
10
7.40342
20
9.36002
30
7.04
0
VERTEX
10
7.40342
20
9.36298
30
7.04
0
VERTEX
10
7.40638
20
9.36594
30
7.04
0
VERTEX
10
7.41673
20
9.3896
30
7.04
0
VERTEX
10
7.43004
20
9.41326
30
7.04
0
VERTEX
10
7.43152
20
9.4177
30
7.04
0
VERTEX
10
7.4404
20
9.42953
30
7.04
0
VERTEX
10
7.45371
20
9.45171
30
7.04
0
VERTEX
10
7.45962
20
9.46354
30
7.04
0
VERTEX
10
7.46406
20
9.46798
30
7.04
0
VERTEX
10
7.47145
20
9.49164
30
7.04
0
VERTEX
10
7.47293
20
9.49756
30
7.04
0
VERTEX
10
7.47737
20
9.50348
30
7.04
0
VERTEX
10
7.47885
20
9.50939
30
7.04
0
VERTEX
10
7.49807
20
9.5301
30
7.04
0
VERTEX
10
7.50843
20
9.53749
30
7.04
0
VERTEX
10
7.51434
20
9.54193
30
7.04
0
VERTEX
10
7.52617
20
9.56411
30
7.04
0
VERTEX
10
7.52765
20
9.57594
30
7.04
0
VERTEX
10
7.53505
20
9.58777
30
7.04
0
VERTEX
10
7.538
20
9.5996
30
7.04
0
VERTEX
10
7.54392
20
9.61144
30
7.04
0
VERTEX
10
7.5454
20
9.61735
30
7.04
0
VERTEX
10
7.54836
20
9.62031
30
7.04
0
VERTEX
10
7.55871
20
9.64397
30
7.04
0
VERTEX
10
7.56315
20
9.64989
30
7.04
0
VERTEX
10
7.56462
20
9.6558
30
7.04
0
VERTEX
10
7.56758
20
9.65876
30
7.04
0
VERTEX
10
7.56906
20
9.66468
30
7.04
0
VERTEX
10
7.5735
20
9.66911
30
7.04
0
VERTEX
10
7.5735
20
9.67503
30
7.04
0
VERTEX
10
7.57793
20
9.68686
30
7.04
0
VERTEX
10
7.58237
20
9.69278
30
7.04
0
VERTEX
10
7.58829
20
9.71644
30
7.04
0
VERTEX
10
7.59272
20
9.72235
30
7.04
0
VERTEX
10
7.59716
20
9.72531
30
7.04
0
VERTEX
10
7.60603
20
9.73862
30
7.04
0
VERTEX
10
7.60751
20
9.74454
30
7.04
0
VERTEX
10
7.61195
20
9.74897
30
7.04
0
VERTEX
10
7.61195
20
9.75489
30
7.04
0
VERTEX
10
7.63561
20
9.80222
30
7.04
0
VERTEX
10
7.63857
20
9.81405
30
7.04
0
VERTEX
10
7.63857
20
9.83771
30
7.04
0
VERTEX
10
7.63857
20
9.84954
30
7.04
0
VERTEX
10
7.63413
20
9.8732
30
7.04
0
VERTEX
10
7.63265
20
9.89687
30
7.04
0
VERTEX
10
7.62674
20
9.92053
30
7.04
0
VERTEX
10
7.62674
20
9.92644
30
7.04
0
VERTEX
10
7.6223
20
9.93827
30
7.04
0
VERTEX
10
7.60899
20
9.96046
30
7.04
0
VERTEX
10
7.60012
20
9.97081
30
7.04
0
VERTEX
10
7.5942
20
9.98264
30
7.04
0
VERTEX
10
7.58533
20
9.99447
30
7.04
0
VERTEX
10
7.57793
20
10.0004
30
7.04
0
VERTEX
10
7.57202
20
10.0004
30
7.04
0
VERTEX
10
7.5661
20
10.0033
30
7.04
0
VERTEX
10
7.56315
20
10.0033
30
7.04
0
VERTEX
10
7.56167
20
10.0063
30
7.04
0
VERTEX
10
7.55575
20
10.0078
30
7.04
0
VERTEX
10
7.54392
20
10.0167
30
7.04
0
VERTEX
10
7.53209
20
10.0211
30
7.04
0
VERTEX
10
7.50843
20
10.0344
30
7.04
0
VERTEX
10
7.50251
20
10.0388
30
7.04
0
VERTEX
10
7.49068
20
10.0433
30
7.04
0
VERTEX
10
7.47885
20
10.0448
30
7.04
0
VERTEX
10
7.46702
20
10.0433
30
7.04
0
VERTEX
10
7.4611
20
10.0403
30
7.04
0
VERTEX
10
7.44927
20
10.0388
30
7.04
0
VERTEX
10
7.44631
20
10.0359
30
7.04
0
VERTEX
10
7.42265
20
10.027
30
7.04
0
VERTEX
10
7.41673
20
10.0255
30
7.04
0
VERTEX
10
7.4049
20
10.0167
30
7.04
0
VERTEX
10
7.39899
20
10.0137
30
7.04
0
VERTEX
10
7.39603
20
10.0093
30
7.04
0
VERTEX
10
7.39011
20
10.0063
30
7.04
0
VERTEX
10
7.38716
20
10.0033
30
7.04
0
VERTEX
10
7.38124
20
10.0019
30
7.04
0
VERTEX
10
7.37532
20
9.99743
30
7.04
0
VERTEX
10
7.36349
20
9.99447
30
7.04
0
VERTEX
10
7.35166
20
9.98708
30
7.04
0
VERTEX
10
7.3487
20
9.98412
30
7.04
0
VERTEX
10
7.32504
20
9.97673
30
7.04
0
VERTEX
10
7.31913
20
9.97229
30
7.04
0
VERTEX
10
7.30729
20
9.96933
30
7.04
0
VERTEX
10
7.29546
20
9.96194
30
7.04
0
VERTEX
10
7.28511
20
9.9575
30
7.04
0
VERTEX
10
7.27919
20
9.95306
30
7.04
0
VERTEX
10
7.26884
20
9.94863
30
7.04
0
VERTEX
10
7.26441
20
9.94271
30
7.04
0
VERTEX
10
7.26145
20
9.93975
30
7.04
0
VERTEX
10
7.25701
20
9.92792
30
7.04
0
VERTEX
10
7.24222
20
9.90574
30
7.04
0
VERTEX
10
7.24074
20
9.89982
30
7.04
0
VERTEX
10
7.23483
20
9.89391
30
7.04
0
VERTEX
10
7.23483
20
9.89095
30
7.04
0
VERTEX
10
7.23187
20
9.88799
30
7.04
0
VERTEX
10
7.22448
20
9.86433
30
7.04
0
VERTEX
10
7.2156
20
9.85398
30
7.04
0
VERTEX
10
7.21412
20
9.84806
30
7.04
0
VERTEX
10
7.20525
20
9.83771
30
7.04
0
VERTEX
10
7.20229
20
9.82588
30
7.04
0
VERTEX
10
7.19638
20
9.82144
30
7.04
0
VERTEX
10
7.19194
20
9.81109
30
7.04
0
VERTEX
10
7.19046
20
9.78743
30
7.04
0
SEQEND
0
POLYLINE
62
236
66
1
70
1
3
postsynaptic_density
0
VERTEX
10
7.1445
20
9.60403
30
7.04
0
VERTEX
10
7.15666
20
9.57971
30
7.04
0
VERTEX
10
7.16274
20
9.53107
30
7.04
0
VERTEX
10
7.16578
20
9.51891
30
7.04
0
VERTEX
10
7.18706
20
9.50067
30
7.04
0
VERTEX
10
7.23571
20
9.50371
30
7.04
0
VERTEX
10
7.24787
20
9.50675
30
7.04
0
VERTEX
10
7.26915
20
9.52499
30
7.04
0
VERTEX
10
7.27827
20
9.62227
30
7.04
0
VERTEX
10
7.27523
20
9.67092
30
7.04
0
VERTEX
10
7.26611
20
9.69524
30
7.04
0
VERTEX
10
7.26307
20
9.7074
30
7.04
0
VERTEX
10
7.21443
20
9.71044
30
7.04
0
VERTEX
10
7.16578
20
9.7074
30
7.04
0
VERTEX
10
7.15058
20
9.65876
30
7.04
0
VERTEX
10
7.1445
20
9.6466
30
7.04
0
VERTEX
10
7.1445
20
9.62227
30
7.04
0
VERTEX
10
7.1445
20
9.61011
30
7.04
0
VERTEX
10
7.1445
20
9.60707
30
7.04
0
SEQEND
0
POLYLINE
62
227
66
1
70
1
3
endoplasmic_reticulum
0
VERTEX
10
7.32478
20
9.51006
30
7.04
0
VERTEX
10
7.33303
20
9.49356
30
7.04
0
VERTEX
10
7.33922
20
9.48532
30
7.04
0
VERTEX
10
7.3722
20
9.4647
30
7.04
0
VERTEX
10
7.38869
20
9.46264
30
7.04
0
VERTEX
10
7.40312
20
9.47295
30
7.04
0
VERTEX
10
7.40725
20
9.47707
30
7.04
0
VERTEX
10
7.40725
20
9.49356
30
7.04
0
VERTEX
10
7.40312
20
9.51006
30
7.04
0
VERTEX
10
7.399
20
9.51624
30
7.04
0
VERTEX
10
7.399
20
9.52449
30
7.04
0
VERTEX
10
7.399
20
9.52861
30
7.04
0
VERTEX
10
7.39075
20
9.53479
30
7.04
0
VERTEX
10
7.38457
20
9.55129
30
7.04
0
VERTEX
10
7.37632
20
9.55953
30
7.04
0
VERTEX
10
7.35983
20
9.5616
30
7.04
0
VERTEX
10
7.35158
20
9.5616
30
7.04
0
VERTEX
10
7.34952
20
9.55335
30
7.04
0
VERTEX
10
7.33303
20
9.54098
30
7.04
0
VERTEX
10
7.33097
20
9.53273
30
7.04
0
VERTEX
10
7.32685
20
9.52861
30
7.04
0
VERTEX
10
7.32478
20
9.51212
30
7.04
0
SEQEND
0
ENDSEC
0
EOF
