0
SECTION
2
ENTITIES
0
POLYLINE
62
31
66
1
70
1
3
contour
0
VERTEX
10
9.78749
20
8.1422
30
3.6
0
VERTEX
10
9.79414
20
8.12446
30
3.6
0
VERTEX
10
9.79636
20
8.10672
30
3.6
0
VERTEX
10
9.80301
20
8.08898
30
3.6
0
VERTEX
10
9.80966
20
8.08011
30
3.6
0
VERTEX
10
9.81853
20
8.08011
30
3.6
0
VERTEX
10
9.8274
20
8.07568
30
3.6
0
VERTEX
10
9.82962
20
8.07124
30
3.6
0
VERTEX
10
9.90058
20
8.04907
30
3.6
0
VERTEX
10
9.91831
20
8.04242
30
3.6
0
VERTEX
10
9.92718
20
8.0402
30
3.6
0
VERTEX
10
9.93384
20
8.03355
30
3.6
0
VERTEX
10
9.95158
20
8.02689
30
3.6
0
VERTEX
10
9.95601
20
8.02689
30
3.6
0
VERTEX
10
9.98927
20
8.00029
30
3.6
0
VERTEX
10
9.99814
20
7.99363
30
3.6
0
VERTEX
10
10.0026
20
7.9892
30
3.6
0
VERTEX
10
9.99371
20
7.98698
30
3.6
0
VERTEX
10
10.0026
20
7.98033
30
3.6
0
VERTEX
10
10.007
20
7.9759
30
3.6
0
VERTEX
10
10.0114
20
7.9759
30
3.6
0
VERTEX
10
10.0159
20
7.97146
30
3.6
0
VERTEX
10
10.0203
20
7.97146
30
3.6
0
VERTEX
10
10.0381
20
7.95816
30
3.6
0
VERTEX
10
10.0536
20
7.9515
30
3.6
0
VERTEX
10
10.1245
20
7.94485
30
3.6
0
VERTEX
10
10.16
20
7.95594
30
3.6
0
VERTEX
10
10.1777
20
7.96259
30
3.6
0
VERTEX
10
10.1866
20
7.96481
30
3.6
0
VERTEX
10
10.1955
20
7.97146
30
3.6
0
VERTEX
10
10.2044
20
7.97368
30
3.6
0
VERTEX
10
10.2088
20
7.97368
30
3.6
0
VERTEX
10
10.2398
20
7.99585
30
3.6
0
VERTEX
10
10.2642
20
8.02468
30
3.6
0
VERTEX
10
10.2731
20
8.02468
30
3.6
0
VERTEX
10
10.2842
20
8.03798
30
3.6
0
VERTEX
10
10.2886
20
8.0402
30
3.6
0
VERTEX
10
10.2931
20
8.07568
30
3.6
0
VERTEX
10
10.2953
20
8.09342
30
3.6
0
VERTEX
10
10.2953
20
8.09785
30
3.6
0
VERTEX
10
10.2997
20
8.10229
30
3.6
0
VERTEX
10
10.2997
20
8.13776
30
3.6
0
VERTEX
10
10.2997
20
8.1555
30
3.6
0
VERTEX
10
10.2975
20
8.16437
30
3.6
0
VERTEX
10
10.2997
20
8.17324
30
3.6
0
VERTEX
10
10.2953
20
8.19098
30
3.6
0
VERTEX
10
10.2953
20
8.19985
30
3.6
0
VERTEX
10
10.2864
20
8.21759
30
3.6
0
VERTEX
10
10.2864
20
8.22202
30
3.6
0
VERTEX
10
10.282
20
8.22646
30
3.6
0
VERTEX
10
10.2775
20
8.22646
30
3.6
0
VERTEX
10
10.2731
20
8.23533
30
3.6
0
VERTEX
10
10.2687
20
8.23976
30
3.6
0
VERTEX
10
10.2576
20
8.31072
30
3.6
0
VERTEX
10
10.2354
20
8.34176
30
3.6
0
VERTEX
10
10.2332
20
8.35063
30
3.6
0
VERTEX
10
10.1999
20
8.37946
30
3.6
0
VERTEX
10
10.1844
20
8.38611
30
3.6
0
VERTEX
10
10.1755
20
8.39054
30
3.6
0
VERTEX
10
10.1667
20
8.39941
30
3.6
0
VERTEX
10
10.1578
20
8.40385
30
3.6
0
VERTEX
10
10.1534
20
8.40828
30
3.6
0
VERTEX
10
10.1356
20
8.41494
30
3.6
0
VERTEX
10
10.1267
20
8.41494
30
3.6
0
VERTEX
10
10.0913
20
8.42824
30
3.6
0
VERTEX
10
10.0735
20
8.43267
30
3.6
0
VERTEX
10
10.0026
20
8.43046
30
3.6
0
VERTEX
10
9.86288
20
8.43711
30
3.6
0
VERTEX
10
9.86066
20
8.44154
30
3.6
0
VERTEX
10
9.85179
20
8.43933
30
3.6
0
VERTEX
10
9.85179
20
8.43489
30
3.6
0
VERTEX
10
9.84071
20
8.41715
30
3.6
0
VERTEX
10
9.83184
20
8.3462
30
3.6
0
VERTEX
10
9.8274
20
8.33733
30
3.6
0
VERTEX
10
9.8274
20
8.32846
30
3.6
0
VERTEX
10
9.82297
20
8.31959
30
3.6
0
VERTEX
10
9.81853
20
8.31737
30
3.6
0
VERTEX
10
9.81632
20
8.3085
30
3.6
0
VERTEX
10
9.80966
20
8.29963
30
3.6
0
VERTEX
10
9.80966
20
8.2952
30
3.6
0
VERTEX
10
9.80079
20
8.29298
30
3.6
0
VERTEX
10
9.79414
20
8.28633
30
3.6
0
VERTEX
10
9.79192
20
8.27746
30
3.6
0
VERTEX
10
9.79192
20
8.27302
30
3.6
0
VERTEX
10
9.78749
20
8.26859
30
3.6
0
VERTEX
10
9.78749
20
8.19763
30
3.6
0
VERTEX
10
9.78749
20
8.16215
30
3.6
0
VERTEX
10
9.78749
20
8.14442
30
3.6
0
SEQEND
0
POLYLINE
62
31
66
1
70
1
3
contour
0
VERTEX
10
10.3055
20
8.77939
30
3.6
0
VERTEX
10
10.311
20
8.76853
30
3.6
0
VERTEX
10
10.311
20
8.7468
30
3.6
0
VERTEX
10
10.3164
20
8.74137
30
3.6
0
VERTEX
10
10.3164
20
8.71965
30
3.6
0
VERTEX
10
10.3245
20
8.69792
30
3.6
0
VERTEX
10
10.3273
20
8.6762
30
3.6
0
VERTEX
10
10.3408
20
8.63275
30
3.6
0
VERTEX
10
10.3408
20
8.62732
30
3.6
0
VERTEX
10
10.3463
20
8.62189
30
3.6
0
VERTEX
10
10.3463
20
8.61646
30
3.6
0
VERTEX
10
10.3816
20
8.57572
30
3.6
0
VERTEX
10
10.3816
20
8.57029
30
3.6
0
VERTEX
10
10.3924
20
8.55943
30
3.6
0
VERTEX
10
10.4033
20
8.55943
30
3.6
0
VERTEX
10
10.4087
20
8.55943
30
3.6
0
VERTEX
10
10.4196
20
8.57029
30
3.6
0
VERTEX
10
10.4386
20
8.61102
30
3.6
0
VERTEX
10
10.4413
20
8.65447
30
3.6
0
VERTEX
10
10.4413
20
8.66534
30
3.6
0
VERTEX
10
10.4522
20
8.68434
30
3.6
0
VERTEX
10
10.4576
20
8.69521
30
3.6
0
VERTEX
10
10.4576
20
8.70064
30
3.6
0
VERTEX
10
10.4739
20
8.71693
30
3.6
0
VERTEX
10
10.4848
20
8.72236
30
3.6
0
VERTEX
10
10.6586
20
8.72779
30
3.6
0
VERTEX
10
10.6694
20
8.73051
30
3.6
0
VERTEX
10
10.6803
20
8.72779
30
3.6
0
VERTEX
10
10.702
20
8.73866
30
3.6
0
VERTEX
10
10.7074
20
8.73866
30
3.6
0
VERTEX
10
10.7237
20
8.75766
30
3.6
0
VERTEX
10
10.7346
20
8.76581
30
3.6
0
VERTEX
10
10.7373
20
8.78754
30
3.6
0
VERTEX
10
10.7346
20
8.80926
30
3.6
0
VERTEX
10
10.7319
20
8.82012
30
3.6
0
VERTEX
10
10.7237
20
8.83098
30
3.6
0
VERTEX
10
10.6803
20
8.85542
30
3.6
0
VERTEX
10
10.5065
20
8.85814
30
3.6
0
VERTEX
10
10.463
20
8.86086
30
3.6
0
VERTEX
10
10.3761
20
8.87443
30
3.6
0
VERTEX
10
10.3327
20
8.87715
30
3.6
0
VERTEX
10
10.3137
20
8.87443
30
3.6
0
VERTEX
10
10.3245
20
8.87172
30
3.6
0
VERTEX
10
10.3273
20
8.86629
30
3.6
0
VERTEX
10
10.311
20
8.84728
30
3.6
0
VERTEX
10
10.3055
20
8.83642
30
3.6
0
VERTEX
10
10.3055
20
8.79297
30
3.6
0
VERTEX
10
10.3055
20
8.7821
30
3.6
0
SEQEND
0
POLYLINE
62
31
66
1
70
1
3
contour
0
VERTEX
10
10.7275
20
7.81755
30
3.6
0
VERTEX
10
10.7308
20
7.80452
30
3.6
0
VERTEX
10
10.7373
20
7.798
30
3.6
0
VERTEX
10
10.7536
20
7.74586
30
3.6
0
VERTEX
10
10.7601
20
7.73934
30
3.6
0
VERTEX
10
10.7601
20
7.73282
30
3.6
0
VERTEX
10
10.7666
20
7.72631
30
3.6
0
VERTEX
10
10.7797
20
7.72305
30
3.6
0
VERTEX
10
10.8286
20
7.68069
30
3.6
0
VERTEX
10
10.8546
20
7.67091
30
3.6
0
VERTEX
10
10.8807
20
7.66765
30
3.6
0
VERTEX
10
10.9328
20
7.67417
30
3.6
0
VERTEX
10
10.9459
20
7.67417
30
3.6
0
VERTEX
10
10.9524
20
7.67743
30
3.6
0
VERTEX
10
10.9556
20
7.69046
30
3.6
0
VERTEX
10
10.9719
20
7.71653
30
3.6
0
VERTEX
10
10.9817
20
7.76867
30
3.6
0
VERTEX
10
10.9785
20
7.87295
30
3.6
0
VERTEX
10
10.9785
20
7.89902
30
3.6
0
VERTEX
10
10.9719
20
7.92509
30
3.6
0
VERTEX
10
10.9687
20
7.93812
30
3.6
0
VERTEX
10
10.9459
20
7.95441
30
3.6
0
VERTEX
10
10.9394
20
7.95767
30
3.6
0
VERTEX
10
10.9394
20
7.96419
30
3.6
0
VERTEX
10
10.9165
20
7.98048
30
3.6
0
VERTEX
10
10.8644
20
7.99026
30
3.6
0
VERTEX
10
10.8383
20
7.99352
30
3.6
0
VERTEX
10
10.7862
20
7.98374
30
3.6
0
VERTEX
10
10.7797
20
7.97722
30
3.6
0
VERTEX
10
10.7732
20
7.97722
30
3.6
0
VERTEX
10
10.7666
20
7.97071
30
3.6
0
VERTEX
10
10.7634
20
7.95767
30
3.6
0
VERTEX
10
10.7504
20
7.9479
30
3.6
0
VERTEX
10
10.7438
20
7.94138
30
3.6
0
VERTEX
10
10.7341
20
7.91531
30
3.6
0
VERTEX
10
10.7341
20
7.86317
30
3.6
0
VERTEX
10
10.7373
20
7.8371
30
3.6
0
VERTEX
10
10.7406
20
7.82407
30
3.6
0
VERTEX
10
10.7275
20
7.82081
30
3.6
0
SEQEND
0
POLYLINE
62
224
66
1
70
1
3
mitochondrion
0
VERTEX
10
9.93814
20
8.21941
30
3.6
0
VERTEX
10
9.9486
20
8.1525
30
3.6
0
VERTEX
10
9.95278
20
8.14831
30
3.6
0
VERTEX
10
9.95487
20
8.13995
30
3.6
0
VERTEX
10
9.96741
20
8.12322
30
3.6
0
VERTEX
10
9.9695
20
8.11486
30
3.6
0
VERTEX
10
9.98414
20
8.10231
30
3.6
0
VERTEX
10
9.9925
20
8.09604
30
3.6
0
VERTEX
10
9.99669
20
8.09186
30
3.6
0
VERTEX
10
10.0051
20
8.08977
30
3.6
0
VERTEX
10
10.0113
20
8.0835
30
3.6
0
VERTEX
10
10.0448
20
8.0814
30
3.6
0
VERTEX
10
10.0511
20
8.07722
30
3.6
0
VERTEX
10
10.0552
20
8.06886
30
3.6
0
VERTEX
10
10.072
20
8.06259
30
3.6
0
VERTEX
10
10.0782
20
8.05631
30
3.6
0
VERTEX
10
10.095
20
8.05004
30
3.6
0
VERTEX
10
10.1033
20
8.04586
30
3.6
0
VERTEX
10
10.1201
20
8.04586
30
3.6
0
VERTEX
10
10.1535
20
8.05631
30
3.6
0
VERTEX
10
10.1702
20
8.06677
30
3.6
0
VERTEX
10
10.1786
20
8.06259
30
3.6
0
VERTEX
10
10.187
20
8.06677
30
3.6
0
VERTEX
10
10.2141
20
8.09604
30
3.6
0
VERTEX
10
10.2225
20
8.11277
30
3.6
0
VERTEX
10
10.2204
20
8.12113
30
3.6
0
VERTEX
10
10.2246
20
8.1295
30
3.6
0
VERTEX
10
10.2246
20
8.16295
30
3.6
0
VERTEX
10
10.2225
20
8.17968
30
3.6
0
VERTEX
10
10.2183
20
8.18804
30
3.6
0
VERTEX
10
10.2162
20
8.20477
30
3.6
0
VERTEX
10
10.21
20
8.2215
30
3.6
0
VERTEX
10
10.2079
20
8.22986
30
3.6
0
VERTEX
10
10.1932
20
8.24241
30
3.6
0
VERTEX
10
10.1932
20
8.24659
30
3.6
0
VERTEX
10
10.164
20
8.27377
30
3.6
0
VERTEX
10
10.1472
20
8.28841
30
3.6
0
VERTEX
10
10.1451
20
8.29259
30
3.6
0
VERTEX
10
10.1305
20
8.29886
30
3.6
0
VERTEX
10
10.1221
20
8.30304
30
3.6
0
VERTEX
10
10.118
20
8.30304
30
3.6
0
VERTEX
10
10.1012
20
8.31559
30
3.6
0
VERTEX
10
10.0929
20
8.31768
30
3.6
0
VERTEX
10
10.0908
20
8.32395
30
3.6
0
VERTEX
10
10.0782
20
8.3365
30
3.6
0
VERTEX
10
10.0699
20
8.34068
30
3.6
0
VERTEX
10
10.0364
20
8.34277
30
3.6
0
VERTEX
10
10.0197
20
8.34068
30
3.6
0
VERTEX
10
9.98623
20
8.32604
30
3.6
0
VERTEX
10
9.97787
20
8.31977
30
3.6
0
VERTEX
10
9.9695
20
8.31768
30
3.6
0
VERTEX
10
9.9486
20
8.28841
30
3.6
0
VERTEX
10
9.9486
20
8.28004
30
3.6
0
VERTEX
10
9.94232
20
8.27377
30
3.6
0
VERTEX
10
9.93814
20
8.25704
30
3.6
0
VERTEX
10
9.93814
20
8.22359
30
3.6
0
VERTEX
10
9.93814
20
8.2215
30
3.6
0
SEQEND
0
POLYLINE
62
227
66
1
70
1
3
endoplasmic_reticulum
0
VERTEX
10
10.1602
20
8.31217
30
3.6
0
VERTEX
10
10.1693
20
8.30151
30
3.6
0
VERTEX
10
10.1693
20
8.29541
30
3.6
0
VERTEX
10
10.1708
20
8.29236
30
3.6
0
VERTEX
10
10.1952
20
8.29389
30
3.6
0
VERTEX
10
10.2043
20
8.30303
30
3.6
0
VERTEX
10
10.2074
20
8.30912
30
3.6
0
VERTEX
10
10.2074
20
8.31522
30
3.6
0
VERTEX
10
10.2013
20
8.3274
30
3.6
0
VERTEX
10
10.1967
20
8.3335
30
3.6
0
VERTEX
10
10.1845
20
8.33655
30
3.6
0
VERTEX
10
10.1784
20
8.33959
30
3.6
0
VERTEX
10
10.1663
20
8.33959
30
3.6
0
VERTEX
10
10.1617
20
8.33502
30
3.6
0
VERTEX
10
10.1617
20
8.32283
30
3.6
0
VERTEX
10
10.1602
20
8.31674
30
3.6
0
VERTEX
10
10.1602
20
8.31369
30
3.6
0
SEQEND
0
POLYLINE
62
227
66
1
70
1
3
endoplasmic_reticulum
0
VERTEX
10
9.89965
20
8.3076
30
3.6
0
VERTEX
10
9.90574
20
8.30303
30
3.6
0
VERTEX
10
9.93012
20
8.29846
30
3.6
0
VERTEX
10
9.93621
20
8.29998
30
3.6
0
VERTEX
10
9.93469
20
8.30303
30
3.6
0
VERTEX
10
9.93926
20
8.31369
30
3.6
0
VERTEX
10
9.94231
20
8.31369
30
3.6
0
VERTEX
10
9.94535
20
8.31979
30
3.6
0
VERTEX
10
9.94688
20
8.32283
30
3.6
0
VERTEX
10
9.94535
20
8.32893
30
3.6
0
VERTEX
10
9.94231
20
8.33197
30
3.6
0
VERTEX
10
9.91793
20
8.33197
30
3.6
0
VERTEX
10
9.91184
20
8.32893
30
3.6
0
VERTEX
10
9.90574
20
8.32893
30
3.6
0
VERTEX
10
9.90269
20
8.3274
30
3.6
0
VERTEX
10
9.90269
20
8.31522
30
3.6
0
VERTEX
10
9.89965
20
8.30912
30
3.6
0
SEQEND
0
POLYLINE
62
236
66
1
70
1
3
postsynaptic_density
0
VERTEX
10
10.7021
20
7.97893
30
3.6
0
VERTEX
10
10.707
20
7.974
30
3.6
0
VERTEX
10
10.7087
20
7.96087
30
3.6
0
VERTEX
10
10.7103
20
7.9543
30
3.6
0
VERTEX
10
10.7218
20
7.9428
30
3.6
0
VERTEX
10
10.7218
20
7.93623
30
3.6
0
VERTEX
10
10.7267
20
7.92309
30
3.6
0
VERTEX
10
10.7349
20
7.91159
30
3.6
0
VERTEX
10
10.7415
20
7.90831
30
3.6
0
VERTEX
10
10.7464
20
7.89517
30
3.6
0
VERTEX
10
10.7514
20
7.89024
30
3.6
0
VERTEX
10
10.7546
20
7.89024
30
3.6
0
VERTEX
10
10.7612
20
7.88531
30
3.6
0
VERTEX
10
10.7694
20
7.87546
30
3.6
0
VERTEX
10
10.7694
20
7.87217
30
3.6
0
VERTEX
10
10.7744
20
7.86725
30
3.6
0
VERTEX
10
10.8006
20
7.8656
30
3.6
0
VERTEX
10
10.8269
20
7.86725
30
3.6
0
VERTEX
10
10.8302
20
7.86725
30
3.6
0
VERTEX
10
10.8335
20
7.87053
30
3.6
0
VERTEX
10
10.8598
20
7.87217
30
3.6
0
VERTEX
10
10.8647
20
7.8771
30
3.6
0
VERTEX
10
10.8647
20
7.90338
30
3.6
0
VERTEX
10
10.8598
20
7.91652
30
3.6
0
VERTEX
10
10.8598
20
7.92309
30
3.6
0
VERTEX
10
10.8565
20
7.92966
30
3.6
0
VERTEX
10
10.8565
20
7.93623
30
3.6
0
VERTEX
10
10.8532
20
7.9428
30
3.6
0
VERTEX
10
10.8532
20
7.94608
30
3.6
0
VERTEX
10
10.8499
20
7.94937
30
3.6
0
VERTEX
10
10.845
20
7.96251
30
3.6
0
VERTEX
10
10.845
20
7.96908
30
3.6
0
VERTEX
10
10.8384
20
7.98222
30
3.6
0
VERTEX
10
10.8384
20
7.99536
30
3.6
0
VERTEX
10
10.8368
20
8.00193
30
3.6
0
VERTEX
10
10.8318
20
8.0085
30
3.6
0
VERTEX
10
10.8269
20
8.03477
30
3.6
0
VERTEX
10
10.822
20
8.04134
30
3.6
0
VERTEX
10
10.8187
20
8.05448
30
3.6
0
VERTEX
10
10.8187
20
8.06105
30
3.6
0
VERTEX
10
10.8121
20
8.06598
30
3.6
0
VERTEX
10
10.799
20
8.06762
30
3.6
0
VERTEX
10
10.7858
20
8.06598
30
3.6
0
VERTEX
10
10.7333
20
8.04463
30
3.6
0
VERTEX
10
10.7267
20
8.04134
30
3.6
0
VERTEX
10
10.7251
20
8.03806
30
3.6
0
VERTEX
10
10.7119
20
8.03313
30
3.6
0
VERTEX
10
10.7087
20
8.02985
30
3.6
0
VERTEX
10
10.707
20
8.01671
30
3.6
0
VERTEX
10
10.7021
20
8.00357
30
3.6
0
VERTEX
10
10.7021
20
7.99043
30
3.6
0
VERTEX
10
10.7021
20
7.98386
30
3.6
0
VERTEX
10
10.7021
20
7.98057
30
3.6
0
SEQEND
0
POLYLINE
62
236
66
1
70
1
3
postsynaptic_density
0
VERTEX
10
10.3703
20
8.93811
30
3.6
0
VERTEX
10
10.3769
20
8.92497
30
3.6
0
VERTEX
10
10.372
20
8.91676
30
3.6
0
VERTEX
10
10.372
20
8.90362
30
3.6
0
VERTEX
10
10.3736
20
8.89705
30
3.6
0
VERTEX
10
10.3785
20
8.89048
30
3.6
0
VERTEX
10
10.3802
20
8.83792
30
3.6
0
VERTEX
10
10.3835
20
8.82478
30
3.6
0
VERTEX
10
10.3835
20
8.81165
30
3.6
0
VERTEX
10
10.3835
20
8.80508
30
3.6
0
VERTEX
10
10.3867
20
8.79851
30
3.6
0
VERTEX
10
10.3851
20
8.78537
30
3.6
0
VERTEX
10
10.4114
20
8.78372
30
3.6
0
VERTEX
10
10.4245
20
8.78372
30
3.6
0
VERTEX
10
10.4377
20
8.78044
30
3.6
0
VERTEX
10
10.4902
20
8.78044
30
3.6
0
VERTEX
10
10.5033
20
8.78044
30
3.6
0
VERTEX
10
10.5165
20
8.78372
30
3.6
0
VERTEX
10
10.5296
20
8.79522
30
3.6
0
VERTEX
10
10.5559
20
8.81
30
3.6
0
VERTEX
10
10.5592
20
8.81329
30
3.6
0
VERTEX
10
10.5674
20
8.86585
30
3.6
0
VERTEX
10
10.5674
20
8.87898
30
3.6
0
VERTEX
10
10.5707
20
8.88555
30
3.6
0
VERTEX
10
10.569
20
8.93811
30
3.6
0
VERTEX
10
10.5674
20
8.96439
30
3.6
0
VERTEX
10
10.5625
20
8.99067
30
3.6
0
VERTEX
10
10.5625
20
9.00381
30
3.6
0
VERTEX
10
10.5608
20
9.01038
30
3.6
0
VERTEX
10
10.5543
20
9.01202
30
3.6
0
VERTEX
10
10.4491
20
8.98082
30
3.6
0
VERTEX
10
10.3966
20
8.96603
30
3.6
0
VERTEX
10
10.3703
20
8.95782
30
3.6
0
VERTEX
10
10.3703
20
8.94468
30
3.6
0
VERTEX
10
10.3703
20
8.93975
30
3.6
0
SEQEND
0
ENDSEC
0
EOF
