0
SECTION
2
ENTITIES
0
POLYLINE
62
31
66
1
70
1
3
contour
0
VERTEX
10
9.79882
20
7.76541
30
3.12
0
VERTEX
10
9.80534
20
7.75889
30
3.12
0
VERTEX
10
9.80534
20
7.74586
30
3.12
0
VERTEX
10
9.82815
20
7.72957
30
3.12
0
VERTEX
10
9.88029
20
7.72631
30
3.12
0
VERTEX
10
9.89332
20
7.72631
30
3.12
0
VERTEX
10
9.91613
20
7.71001
30
3.12
0
VERTEX
10
9.93569
20
7.68069
30
3.12
0
VERTEX
10
9.93569
20
7.67417
30
3.12
0
VERTEX
10
9.9422
20
7.67091
30
3.12
0
VERTEX
10
9.94872
20
7.64484
30
3.12
0
VERTEX
10
9.96827
20
7.62529
30
3.12
0
VERTEX
10
9.96827
20
7.61877
30
3.12
0
VERTEX
10
9.98131
20
7.60574
30
3.12
0
VERTEX
10
9.98131
20
7.59922
30
3.12
0
VERTEX
10
9.9976
20
7.57315
30
3.12
0
VERTEX
10
10.0497
20
7.52753
30
3.12
0
VERTEX
10
10.0563
20
7.51449
30
3.12
0
VERTEX
10
10.0628
20
7.50798
30
3.12
0
VERTEX
10
10.066
20
7.49494
30
3.12
0
VERTEX
10
10.0758
20
7.48191
30
3.12
0
VERTEX
10
10.0791
20
7.45584
30
3.12
0
VERTEX
10
10.1051
20
7.45258
30
3.12
0
VERTEX
10
10.1182
20
7.45584
30
3.12
0
VERTEX
10
10.1312
20
7.46561
30
3.12
0
VERTEX
10
10.1573
20
7.46887
30
3.12
0
VERTEX
10
10.1638
20
7.46887
30
3.12
0
VERTEX
10
10.1671
20
7.46235
30
3.12
0
VERTEX
10
10.2192
20
7.4591
30
3.12
0
VERTEX
10
10.2453
20
7.4591
30
3.12
0
VERTEX
10
10.2583
20
7.46235
30
3.12
0
VERTEX
10
10.3104
20
7.4591
30
3.12
0
VERTEX
10
10.3626
20
7.46561
30
3.12
0
VERTEX
10
10.4147
20
7.46235
30
3.12
0
VERTEX
10
10.4212
20
7.45584
30
3.12
0
VERTEX
10
10.4734
20
7.45584
30
3.12
0
VERTEX
10
10.4864
20
7.4591
30
3.12
0
VERTEX
10
10.4962
20
7.46887
30
3.12
0
VERTEX
10
10.4962
20
7.52101
30
3.12
0
VERTEX
10
10.4897
20
7.57315
30
3.12
0
VERTEX
10
10.4897
20
7.67743
30
3.12
0
VERTEX
10
10.4897
20
7.72957
30
3.12
0
VERTEX
10
10.5027
20
7.75564
30
3.12
0
VERTEX
10
10.5027
20
7.7817
30
3.12
0
VERTEX
10
10.4994
20
7.79474
30
3.12
0
VERTEX
10
10.5027
20
7.80452
30
3.12
0
VERTEX
10
10.5288
20
7.80452
30
3.12
0
VERTEX
10
10.5516
20
7.82081
30
3.12
0
VERTEX
10
10.5711
20
7.84688
30
3.12
0
VERTEX
10
10.5744
20
7.85991
30
3.12
0
VERTEX
10
10.5809
20
7.86643
30
3.12
0
VERTEX
10
10.5809
20
7.8925
30
3.12
0
VERTEX
10
10.5776
20
7.90553
30
3.12
0
VERTEX
10
10.5776
20
7.91205
30
3.12
0
VERTEX
10
10.5581
20
7.93486
30
3.12
0
VERTEX
10
10.5288
20
7.98374
30
3.12
0
VERTEX
10
10.506
20
8.00329
30
3.12
0
VERTEX
10
10.4994
20
8.00655
30
3.12
0
VERTEX
10
10.4962
20
8.01959
30
3.12
0
VERTEX
10
10.4734
20
8.0424
30
3.12
0
VERTEX
10
10.4571
20
8.06521
30
3.12
0
VERTEX
10
10.444
20
8.07498
30
3.12
0
VERTEX
10
10.431
20
8.10105
30
3.12
0
VERTEX
10
10.431
20
8.11409
30
3.12
0
VERTEX
10
10.3984
20
8.16297
30
3.12
0
VERTEX
10
10.3561
20
8.20533
30
3.12
0
VERTEX
10
10.3495
20
8.21185
30
3.12
0
VERTEX
10
10.343
20
8.21185
30
3.12
0
VERTEX
10
10.33
20
8.22488
30
3.12
0
VERTEX
10
10.2811
20
8.24769
30
3.12
0
VERTEX
10
10.255
20
8.25421
30
3.12
0
VERTEX
10
10.242
20
8.25747
30
3.12
0
VERTEX
10
10.1377
20
8.24769
30
3.12
0
VERTEX
10
10.0856
20
8.24118
30
3.12
0
VERTEX
10
10.0595
20
8.23792
30
3.12
0
VERTEX
10
10.0465
20
8.23466
30
3.12
0
VERTEX
10
10.0334
20
8.22488
30
3.12
0
VERTEX
10
10.0204
20
8.22162
30
3.12
0
VERTEX
10
10.0139
20
8.22162
30
3.12
0
VERTEX
10
10.0074
20
8.21511
30
3.12
0
VERTEX
10
9.99434
20
8.21185
30
3.12
0
VERTEX
10
9.97805
20
8.19556
30
3.12
0
VERTEX
10
9.97805
20
8.18904
30
3.12
0
VERTEX
10
9.97153
20
8.18252
30
3.12
0
VERTEX
10
9.96827
20
8.16949
30
3.12
0
VERTEX
10
9.9585
20
8.15645
30
3.12
0
VERTEX
10
9.9422
20
8.10431
30
3.12
0
VERTEX
10
9.93894
20
8.09128
30
3.12
0
VERTEX
10
9.91613
20
8.06847
30
3.12
0
VERTEX
10
9.89984
20
8.01633
30
3.12
0
VERTEX
10
9.89984
20
8.00329
30
3.12
0
VERTEX
10
9.88355
20
7.98048
30
3.12
0
VERTEX
10
9.88355
20
7.97397
30
3.12
0
VERTEX
10
9.86399
20
7.95116
30
3.12
0
VERTEX
10
9.85748
20
7.9479
30
3.12
0
VERTEX
10
9.85748
20
7.94138
30
3.12
0
VERTEX
10
9.83467
20
7.9316
30
3.12
0
VERTEX
10
9.81837
20
7.90879
30
3.12
0
VERTEX
10
9.8086
20
7.88272
30
3.12
0
VERTEX
10
9.81186
20
7.87621
30
3.12
0
VERTEX
10
9.80208
20
7.85014
30
3.12
0
VERTEX
10
9.79882
20
7.798
30
3.12
0
VERTEX
10
9.79882
20
7.77193
30
3.12
0
VERTEX
10
9.79882
20
7.76867
30
3.12
0
SEQEND
0
POLYLINE
62
224
66
1
70
1
3
mitochondrion
0
VERTEX
10
10.1686
20
7.86828
30
3.12
0
VERTEX
10
10.1764
20
7.84753
30
3.12
0
VERTEX
10
10.1764
20
7.84235
30
3.12
0
VERTEX
10
10.1893
20
7.8216
30
3.12
0
VERTEX
10
10.1997
20
7.81641
30
3.12
0
VERTEX
10
10.2179
20
7.79826
30
3.12
0
VERTEX
10
10.2282
20
7.79048
30
3.12
0
VERTEX
10
10.2282
20
7.78529
30
3.12
0
VERTEX
10
10.249
20
7.78011
30
3.12
0
VERTEX
10
10.2516
20
7.77492
30
3.12
0
VERTEX
10
10.2931
20
7.77233
30
3.12
0
VERTEX
10
10.3346
20
7.77492
30
3.12
0
VERTEX
10
10.3553
20
7.77751
30
3.12
0
VERTEX
10
10.3735
20
7.79307
30
3.12
0
VERTEX
10
10.3838
20
7.80085
30
3.12
0
VERTEX
10
10.3864
20
7.81123
30
3.12
0
VERTEX
10
10.3864
20
7.81641
30
3.12
0
VERTEX
10
10.3942
20
7.82419
30
3.12
0
VERTEX
10
10.3942
20
7.86569
30
3.12
0
VERTEX
10
10.3942
20
7.88643
30
3.12
0
VERTEX
10
10.3942
20
7.89681
30
3.12
0
VERTEX
10
10.389
20
7.90199
30
3.12
0
VERTEX
10
10.3864
20
7.92274
30
3.12
0
VERTEX
10
10.3864
20
7.92793
30
3.12
0
VERTEX
10
10.3813
20
7.93311
30
3.12
0
VERTEX
10
10.3787
20
7.94349
30
3.12
0
VERTEX
10
10.3631
20
7.96164
30
3.12
0
VERTEX
10
10.3553
20
7.97201
30
3.12
0
VERTEX
10
10.3501
20
7.9772
30
3.12
0
VERTEX
10
10.3398
20
7.9772
30
3.12
0
VERTEX
10
10.3372
20
7.98239
30
3.12
0
VERTEX
10
10.3164
20
7.98498
30
3.12
0
VERTEX
10
10.2983
20
7.99535
30
3.12
0
VERTEX
10
10.2879
20
8.00313
30
3.12
0
VERTEX
10
10.2827
20
8.00832
30
3.12
0
VERTEX
10
10.2412
20
8.00832
30
3.12
0
VERTEX
10
10.2205
20
8.00573
30
3.12
0
VERTEX
10
10.2023
20
7.99017
30
3.12
0
VERTEX
10
10.1919
20
7.98239
30
3.12
0
VERTEX
10
10.1868
20
7.98239
30
3.12
0
VERTEX
10
10.1816
20
7.97201
30
3.12
0
VERTEX
10
10.1712
20
7.96423
30
3.12
0
VERTEX
10
10.1686
20
7.88125
30
3.12
0
VERTEX
10
10.1686
20
7.87087
30
3.12
0
SEQEND
0
POLYLINE
62
227
66
1
70
1
3
endoplasmic_reticulum
0
VERTEX
10
10.2381
20
8.06211
30
3.12
0
VERTEX
10
10.2493
20
8.04905
30
3.12
0
VERTEX
10
10.2792
20
8.04718
30
3.12
0
VERTEX
10
10.2867
20
8.04718
30
3.12
0
VERTEX
10
10.3016
20
8.05651
30
3.12
0
VERTEX
10
10.3109
20
8.06958
30
3.12
0
VERTEX
10
10.3091
20
8.08451
30
3.12
0
VERTEX
10
10.2997
20
8.09944
30
3.12
0
VERTEX
10
10.2941
20
8.10504
30
3.12
0
VERTEX
10
10.2867
20
8.1069
30
3.12
0
VERTEX
10
10.2568
20
8.10504
30
3.12
0
VERTEX
10
10.2493
20
8.09757
30
3.12
0
VERTEX
10
10.2456
20
8.09757
30
3.12
0
VERTEX
10
10.2419
20
8.09384
30
3.12
0
VERTEX
10
10.2381
20
8.07891
30
3.12
0
VERTEX
10
10.2381
20
8.06398
30
3.12
0
SEQEND
0
POLYLINE
62
227
66
1
70
1
3
endoplasmic_reticulum
0
VERTEX
10
9.93954
20
7.98933
30
3.12
0
VERTEX
10
9.94701
20
7.97627
30
3.12
0
VERTEX
10
9.95074
20
7.9688
30
3.12
0
VERTEX
10
9.95074
20
7.96134
30
3.12
0
VERTEX
10
9.95447
20
7.95387
30
3.12
0
VERTEX
10
9.95447
20
7.93894
30
3.12
0
VERTEX
10
9.96194
20
7.92401
30
3.12
0
VERTEX
10
9.96194
20
7.91655
30
3.12
0
VERTEX
10
9.96194
20
7.91282
30
3.12
0
VERTEX
10
9.9694
20
7.90722
30
3.12
0
VERTEX
10
9.97687
20
7.90908
30
3.12
0
VERTEX
10
9.9806
20
7.90908
30
3.12
0
VERTEX
10
9.9862
20
7.91468
30
3.12
0
VERTEX
10
9.98993
20
7.92961
30
3.12
0
VERTEX
10
9.99366
20
7.93708
30
3.12
0
VERTEX
10
9.99366
20
7.94454
30
3.12
0
VERTEX
10
9.99366
20
7.94827
30
3.12
0
VERTEX
10
9.99926
20
7.95574
30
3.12
0
VERTEX
10
10.003
20
7.9576
30
3.12
0
VERTEX
10
10.003
20
7.96134
30
3.12
0
VERTEX
10
10.0086
20
7.9688
30
3.12
0
VERTEX
10
10.0123
20
7.9688
30
3.12
0
VERTEX
10
10.0161
20
7.97627
30
3.12
0
VERTEX
10
10.0235
20
7.98187
30
3.12
0
VERTEX
10
10.0329
20
7.99306
30
3.12
0
VERTEX
10
10.0459
20
8.00239
30
3.12
0
VERTEX
10
10.0496
20
8.00613
30
3.12
0
VERTEX
10
10.0646
20
8.00986
30
3.12
0
VERTEX
10
10.0664
20
8.02479
30
3.12
0
VERTEX
10
10.0664
20
8.03225
30
3.12
0
VERTEX
10
10.0627
20
8.03972
30
3.12
0
VERTEX
10
10.059
20
8.04159
30
3.12
0
VERTEX
10
10.0534
20
8.05465
30
3.12
0
VERTEX
10
10.0496
20
8.06211
30
3.12
0
VERTEX
10
10.0366
20
8.07331
30
3.12
0
VERTEX
10
10.0217
20
8.07891
30
3.12
0
VERTEX
10
10.0179
20
8.08264
30
3.12
0
VERTEX
10
10.0105
20
8.08264
30
3.12
0
VERTEX
10
10.0049
20
8.09757
30
3.12
0
VERTEX
10
10.0011
20
8.1013
30
3.12
0
VERTEX
10
9.99739
20
8.09384
30
3.12
0
VERTEX
10
9.98246
20
8.08264
30
3.12
0
VERTEX
10
9.97687
20
8.07704
30
3.12
0
VERTEX
10
9.97127
20
8.06211
30
3.12
0
VERTEX
10
9.9694
20
8.05465
30
3.12
0
VERTEX
10
9.96567
20
8.05465
30
3.12
0
VERTEX
10
9.96007
20
8.02479
30
3.12
0
VERTEX
10
9.95634
20
8.01732
30
3.12
0
VERTEX
10
9.94327
20
8.00799
30
3.12
0
VERTEX
10
9.93954
20
8.00053
30
3.12
0
VERTEX
10
9.93954
20
7.99306
30
3.12
0
VERTEX
10
9.93954
20
7.9912
30
3.12
0
SEQEND
0
POLYLINE
62
227
66
1
70
1
3
endoplasmic_reticulum
0
VERTEX
10
10.0608
20
7.89415
30
3.12
0
VERTEX
10
10.0646
20
7.89229
30
3.12
0
VERTEX
10
10.0646
20
7.86243
30
3.12
0
VERTEX
10
10.0664
20
7.85496
30
3.12
0
VERTEX
10
10.0739
20
7.8475
30
3.12
0
VERTEX
10
10.1038
20
7.83817
30
3.12
0
VERTEX
10
10.1336
20
7.84003
30
3.12
0
VERTEX
10
10.1411
20
7.8419
30
3.12
0
VERTEX
10
10.1467
20
7.84936
30
3.12
0
VERTEX
10
10.1448
20
7.86429
30
3.12
0
VERTEX
10
10.1392
20
7.87922
30
3.12
0
VERTEX
10
10.1374
20
7.89415
30
3.12
0
VERTEX
10
10.1374
20
7.90162
30
3.12
0
VERTEX
10
10.128
20
7.93148
30
3.12
0
VERTEX
10
10.1224
20
7.94641
30
3.12
0
VERTEX
10
10.1224
20
7.95014
30
3.12
0
VERTEX
10
10.1094
20
7.96507
30
3.12
0
VERTEX
10
10.0963
20
7.9744
30
3.12
0
VERTEX
10
10.0888
20
7.97627
30
3.12
0
VERTEX
10
10.0739
20
7.97067
30
3.12
0
VERTEX
10
10.0702
20
7.9632
30
3.12
0
VERTEX
10
10.0702
20
7.93334
30
3.12
0
VERTEX
10
10.0646
20
7.91841
30
3.12
0
VERTEX
10
10.0646
20
7.91095
30
3.12
0
VERTEX
10
10.0608
20
7.90722
30
3.12
0
VERTEX
10
10.0608
20
7.89975
30
3.12
0
VERTEX
10
10.0608
20
7.89602
30
3.12
0
SEQEND
0
POLYLINE
62
227
66
1
70
1
3
endoplasmic_reticulum
0
VERTEX
10
10.0534
20
8.13676
30
3.12
0
VERTEX
10
10.0627
20
8.12183
30
3.12
0
VERTEX
10
10.0683
20
8.1181
30
3.12
0
VERTEX
10
10.0702
20
8.11437
30
3.12
0
VERTEX
10
10.1
20
8.11623
30
3.12
0
VERTEX
10
10.115
20
8.11997
30
3.12
0
VERTEX
10
10.1187
20
8.12183
30
3.12
0
VERTEX
10
10.1206
20
8.13676
30
3.12
0
VERTEX
10
10.1168
20
8.15169
30
3.12
0
VERTEX
10
10.1168
20
8.15543
30
3.12
0
VERTEX
10
10.1112
20
8.15916
30
3.12
0
VERTEX
10
10.1019
20
8.17222
30
3.12
0
VERTEX
10
10.0963
20
8.17782
30
3.12
0
VERTEX
10
10.0814
20
8.17782
30
3.12
0
VERTEX
10
10.0664
20
8.17222
30
3.12
0
VERTEX
10
10.0608
20
8.16662
30
3.12
0
VERTEX
10
10.0608
20
8.16289
30
3.12
0
VERTEX
10
10.0552
20
8.15543
30
3.12
0
VERTEX
10
10.0534
20
8.1405
30
3.12
0
VERTEX
10
10.0534
20
8.13863
30
3.12
0
SEQEND
0
POLYLINE
62
227
66
1
70
1
3
endoplasmic_reticulum
0
VERTEX
10
10.1
20
8.03785
30
3.12
0
VERTEX
10
10.1038
20
8.03039
30
3.12
0
VERTEX
10
10.1206
20
8.02106
30
3.12
0
VERTEX
10
10.128
20
8.02479
30
3.12
0
VERTEX
10
10.1355
20
8.02479
30
3.12
0
VERTEX
10
10.1392
20
8.02479
30
3.12
0
VERTEX
10
10.1411
20
8.03972
30
3.12
0
VERTEX
10
10.1411
20
8.04718
30
3.12
0
VERTEX
10
10.1318
20
8.05651
30
3.12
0
VERTEX
10
10.1168
20
8.05838
30
3.12
0
VERTEX
10
10.1094
20
8.06211
30
3.12
0
VERTEX
10
10.1019
20
8.05465
30
3.12
0
VERTEX
10
10.1
20
8.03972
30
3.12
0
SEQEND
0
POLYLINE
62
227
66
1
70
1
3
endoplasmic_reticulum
0
VERTEX
10
10.3464
20
7.58996
30
3.12
0
VERTEX
10
10.3482
20
7.58249
30
3.12
0
VERTEX
10
10.352
20
7.57876
30
3.12
0
VERTEX
10
10.3538
20
7.5713
30
3.12
0
VERTEX
10
10.3688
20
7.5657
30
3.12
0
VERTEX
10
10.3725
20
7.5657
30
3.12
0
VERTEX
10
10.3744
20
7.55823
30
3.12
0
VERTEX
10
10.38
20
7.5545
30
3.12
0
VERTEX
10
10.3837
20
7.53957
30
3.12
0
VERTEX
10
10.3837
20
7.53584
30
3.12
0
VERTEX
10
10.3874
20
7.5321
30
3.12
0
VERTEX
10
10.3874
20
7.52464
30
3.12
0
VERTEX
10
10.3949
20
7.51904
30
3.12
0
VERTEX
10
10.3968
20
7.51158
30
3.12
0
VERTEX
10
10.3986
20
7.50784
30
3.12
0
VERTEX
10
10.4061
20
7.50784
30
3.12
0
VERTEX
10
10.4173
20
7.52091
30
3.12
0
VERTEX
10
10.4248
20
7.52464
30
3.12
0
VERTEX
10
10.4266
20
7.5321
30
3.12
0
VERTEX
10
10.4229
20
7.56196
30
3.12
0
VERTEX
10
10.4192
20
7.57689
30
3.12
0
VERTEX
10
10.4154
20
7.58436
30
3.12
0
VERTEX
10
10.4154
20
7.59182
30
3.12
0
VERTEX
10
10.4024
20
7.60489
30
3.12
0
VERTEX
10
10.3874
20
7.61422
30
3.12
0
VERTEX
10
10.3576
20
7.62728
30
3.12
0
VERTEX
10
10.3501
20
7.62542
30
3.12
0
VERTEX
10
10.352
20
7.62355
30
3.12
0
VERTEX
10
10.3464
20
7.60862
30
3.12
0
VERTEX
10
10.3464
20
7.59369
30
3.12
0
VERTEX
10
10.3464
20
7.59182
30
3.12
0
SEQEND
0
POLYLINE
62
227
66
1
70
1
3
endoplasmic_reticulum
0
VERTEX
10
10.0982
20
7.5489
30
3.12
0
VERTEX
10
10.1094
20
7.53397
30
3.12
0
VERTEX
10
10.1243
20
7.5321
30
3.12
0
VERTEX
10
10.1318
20
7.53397
30
3.12
0
VERTEX
10
10.1355
20
7.5377
30
3.12
0
VERTEX
10
10.1336
20
7.56756
30
3.12
0
VERTEX
10
10.1243
20
7.58063
30
3.12
0
VERTEX
10
10.1187
20
7.58622
30
3.12
0
VERTEX
10
10.1112
20
7.58809
30
3.12
0
VERTEX
10
10.1038
20
7.58622
30
3.12
0
VERTEX
10
10.1
20
7.58622
30
3.12
0
VERTEX
10
10.0982
20
7.55637
30
3.12
0
VERTEX
10
10.0982
20
7.55077
30
3.12
0
SEQEND
0
ENDSEC
0
EOF
