0
SECTION
2
ENTITIES
0
POLYLINE
62
31
66
1
70
1
3
contour
0
VERTEX
10
9.75201
20
8.24198
30
3.64
0
VERTEX
10
9.75423
20
8.22424
30
3.64
0
VERTEX
10
9.75423
20
8.21537
30
3.64
0
VERTEX
10
9.76088
20
8.2065
30
3.64
0
VERTEX
10
9.7631
20
8.18876
30
3.64
0
VERTEX
10
9.77862
20
8.1555
30
3.64
0
VERTEX
10
9.77862
20
8.14663
30
3.64
0
VERTEX
10
9.78749
20
8.12889
30
3.64
0
VERTEX
10
9.79858
20
8.09342
30
3.64
0
VERTEX
10
9.80523
20
8.08455
30
3.64
0
VERTEX
10
9.80745
20
8.07568
30
3.64
0
VERTEX
10
9.81632
20
8.06902
30
3.64
0
VERTEX
10
9.81853
20
8.06016
30
3.64
0
VERTEX
10
9.83405
20
8.04463
30
3.64
0
VERTEX
10
9.84292
20
8.04242
30
3.64
0
VERTEX
10
9.85845
20
8.02911
30
3.64
0
VERTEX
10
9.8651
20
8.02024
30
3.64
0
VERTEX
10
9.90058
20
8.00694
30
3.64
0
VERTEX
10
9.90945
20
8.00694
30
3.64
0
VERTEX
10
9.91831
20
8.0025
30
3.64
0
VERTEX
10
9.95379
20
7.99807
30
3.64
0
VERTEX
10
9.97153
20
7.99807
30
3.64
0
VERTEX
10
10.007
20
7.9892
30
3.64
0
VERTEX
10
10.0247
20
7.98255
30
3.64
0
VERTEX
10
10.027
20
7.97811
30
3.64
0
VERTEX
10
10.0447
20
7.97811
30
3.64
0
VERTEX
10
10.0624
20
7.96924
30
3.64
0
VERTEX
10
10.0979
20
7.95816
30
3.64
0
VERTEX
10
10.1024
20
7.95372
30
3.64
0
VERTEX
10
10.1201
20
7.95594
30
3.64
0
VERTEX
10
10.129
20
7.95594
30
3.64
0
VERTEX
10
10.1467
20
7.96259
30
3.64
0
VERTEX
10
10.1556
20
7.96481
30
3.64
0
VERTEX
10
10.1644
20
7.97146
30
3.64
0
VERTEX
10
10.1733
20
7.97146
30
3.64
0
VERTEX
10
10.1777
20
7.96924
30
3.64
0
VERTEX
10
10.2132
20
7.99142
30
3.64
0
VERTEX
10
10.231
20
8.0025
30
3.64
0
VERTEX
10
10.2354
20
8.00472
30
3.64
0
VERTEX
10
10.2354
20
8.00916
30
3.64
0
VERTEX
10
10.2664
20
8.02911
30
3.64
0
VERTEX
10
10.2753
20
8.03133
30
3.64
0
VERTEX
10
10.282
20
8.03798
30
3.64
0
VERTEX
10
10.2842
20
8.07346
30
3.64
0
VERTEX
10
10.2842
20
8.0912
30
3.64
0
VERTEX
10
10.2775
20
8.10894
30
3.64
0
VERTEX
10
10.2753
20
8.12668
30
3.64
0
VERTEX
10
10.2687
20
8.14442
30
3.64
0
VERTEX
10
10.2576
20
8.21537
30
3.64
0
VERTEX
10
10.2576
20
8.25085
30
3.64
0
VERTEX
10
10.2509
20
8.28633
30
3.64
0
VERTEX
10
10.2487
20
8.32181
30
3.64
0
VERTEX
10
10.2465
20
8.33067
30
3.64
0
VERTEX
10
10.2398
20
8.33733
30
3.64
0
VERTEX
10
10.2398
20
8.3462
30
3.64
0
VERTEX
10
10.2398
20
8.35063
30
3.64
0
VERTEX
10
10.231
20
8.35285
30
3.64
0
VERTEX
10
10.2265
20
8.35285
30
3.64
0
VERTEX
10
10.2265
20
8.35728
30
3.64
0
VERTEX
10
10.2221
20
8.36172
30
3.64
0
VERTEX
10
10.2199
20
8.37059
30
3.64
0
VERTEX
10
10.2066
20
8.38611
30
3.64
0
VERTEX
10
10.1977
20
8.38833
30
3.64
0
VERTEX
10
10.1644
20
8.41272
30
3.64
0
VERTEX
10
10.1467
20
8.42159
30
3.64
0
VERTEX
10
10.1312
20
8.43489
30
3.64
0
VERTEX
10
10.1134
20
8.44154
30
3.64
0
VERTEX
10
10.1046
20
8.44598
30
3.64
0
VERTEX
10
10.1001
20
8.45041
30
3.64
0
VERTEX
10
10.0647
20
8.45485
30
3.64
0
VERTEX
10
10.0292
20
8.45485
30
3.64
0
VERTEX
10
10.0203
20
8.45485
30
3.64
0
VERTEX
10
10.0181
20
8.44598
30
3.64
0
VERTEX
10
10.0181
20
8.44154
30
3.64
0
VERTEX
10
9.98262
20
8.44154
30
3.64
0
VERTEX
10
9.96488
20
8.44154
30
3.64
0
VERTEX
10
9.89392
20
8.4615
30
3.64
0
VERTEX
10
9.87618
20
8.46372
30
3.64
0
VERTEX
10
9.86953
20
8.46593
30
3.64
0
VERTEX
10
9.86288
20
8.47259
30
3.64
0
VERTEX
10
9.83405
20
8.43933
30
3.64
0
VERTEX
10
9.83405
20
8.43489
30
3.64
0
VERTEX
10
9.82519
20
8.42602
30
3.64
0
VERTEX
10
9.82297
20
8.41715
30
3.64
0
VERTEX
10
9.8141
20
8.4105
30
3.64
0
VERTEX
10
9.80301
20
8.39276
30
3.64
0
VERTEX
10
9.79636
20
8.38611
30
3.64
0
VERTEX
10
9.79636
20
8.38167
30
3.64
0
VERTEX
10
9.78749
20
8.37502
30
3.64
0
VERTEX
10
9.7764
20
8.33954
30
3.64
0
VERTEX
10
9.77419
20
8.33067
30
3.64
0
VERTEX
10
9.76975
20
8.32846
30
3.64
0
VERTEX
10
9.76753
20
8.31959
30
3.64
0
VERTEX
10
9.76088
20
8.31072
30
3.64
0
VERTEX
10
9.75866
20
8.29298
30
3.64
0
VERTEX
10
9.75645
20
8.28411
30
3.64
0
VERTEX
10
9.75645
20
8.27968
30
3.64
0
VERTEX
10
9.75201
20
8.27524
30
3.64
0
VERTEX
10
9.75201
20
8.2575
30
3.64
0
VERTEX
10
9.75201
20
8.24863
30
3.64
0
VERTEX
10
9.75201
20
8.2442
30
3.64
0
SEQEND
0
POLYLINE
62
31
66
1
70
1
3
contour
0
VERTEX
10
10.3055
20
8.77939
30
3.64
0
VERTEX
10
10.311
20
8.76853
30
3.64
0
VERTEX
10
10.3218
20
8.7631
30
3.64
0
VERTEX
10
10.3245
20
8.75766
30
3.64
0
VERTEX
10
10.33
20
8.75766
30
3.64
0
VERTEX
10
10.3354
20
8.75223
30
3.64
0
VERTEX
10
10.3571
20
8.75223
30
3.64
0
VERTEX
10
10.3979
20
8.76581
30
3.64
0
VERTEX
10
10.4087
20
8.76853
30
3.64
0
VERTEX
10
10.4169
20
8.77667
30
3.64
0
VERTEX
10
10.4603
20
8.77939
30
3.64
0
VERTEX
10
10.5472
20
8.77396
30
3.64
0
VERTEX
10
10.5907
20
8.77124
30
3.64
0
VERTEX
10
10.6015
20
8.76853
30
3.64
0
VERTEX
10
10.6233
20
8.77667
30
3.64
0
VERTEX
10
10.645
20
8.79025
30
3.64
0
VERTEX
10
10.6504
20
8.79297
30
3.64
0
VERTEX
10
10.6504
20
8.81469
30
3.64
0
VERTEX
10
10.607
20
8.8337
30
3.64
0
VERTEX
10
10.5635
20
8.8337
30
3.64
0
VERTEX
10
10.5418
20
8.82827
30
3.64
0
VERTEX
10
10.4549
20
8.83098
30
3.64
0
VERTEX
10
10.4495
20
8.83098
30
3.64
0
VERTEX
10
10.444
20
8.83642
30
3.64
0
VERTEX
10
10.4006
20
8.83913
30
3.64
0
VERTEX
10
10.3789
20
8.84999
30
3.64
0
VERTEX
10
10.3571
20
8.84999
30
3.64
0
VERTEX
10
10.3435
20
8.82827
30
3.64
0
VERTEX
10
10.3055
20
8.79025
30
3.64
0
VERTEX
10
10.3055
20
8.7821
30
3.64
0
SEQEND
0
POLYLINE
62
31
66
1
70
1
3
contour
0
VERTEX
10
10.7112
20
7.86969
30
3.64
0
VERTEX
10
10.7308
20
7.81755
30
3.64
0
VERTEX
10
10.7373
20
7.80452
30
3.64
0
VERTEX
10
10.7373
20
7.79148
30
3.64
0
VERTEX
10
10.7536
20
7.76541
30
3.64
0
VERTEX
10
10.7536
20
7.75238
30
3.64
0
VERTEX
10
10.7732
20
7.72957
30
3.64
0
VERTEX
10
10.7862
20
7.71979
30
3.64
0
VERTEX
10
10.7992
20
7.71653
30
3.64
0
VERTEX
10
10.809
20
7.69046
30
3.64
0
VERTEX
10
10.8351
20
7.68069
30
3.64
0
VERTEX
10
10.8611
20
7.66113
30
3.64
0
VERTEX
10
10.8872
20
7.6481
30
3.64
0
VERTEX
10
10.9394
20
7.65136
30
3.64
0
VERTEX
10
10.9524
20
7.65462
30
3.64
0
VERTEX
10
10.9687
20
7.68069
30
3.64
0
VERTEX
10
10.985
20
7.73282
30
3.64
0
VERTEX
10
10.9948
20
7.8371
30
3.64
0
VERTEX
10
10.9948
20
7.88924
30
3.64
0
VERTEX
10
10.9948
20
7.90228
30
3.64
0
VERTEX
10
10.9752
20
7.92509
30
3.64
0
VERTEX
10
10.9524
20
7.93812
30
3.64
0
VERTEX
10
10.9296
20
7.94464
30
3.64
0
VERTEX
10
10.8253
20
7.94138
30
3.64
0
VERTEX
10
10.8123
20
7.94138
30
3.64
0
VERTEX
10
10.7601
20
7.92183
30
3.64
0
VERTEX
10
10.7341
20
7.91531
30
3.64
0
VERTEX
10
10.7275
20
7.91531
30
3.64
0
VERTEX
10
10.721
20
7.90879
30
3.64
0
VERTEX
10
10.721
20
7.90228
30
3.64
0
VERTEX
10
10.7112
20
7.8925
30
3.64
0
VERTEX
10
10.7112
20
7.87946
30
3.64
0
VERTEX
10
10.7112
20
7.87295
30
3.64
0
SEQEND
0
POLYLINE
62
224
66
1
70
1
3
mitochondrion
0
VERTEX
10
9.9465
20
8.20686
30
3.64
0
VERTEX
10
9.95069
20
8.1985
30
3.64
0
VERTEX
10
9.95069
20
8.19013
30
3.64
0
VERTEX
10
9.95069
20
8.18595
30
3.64
0
VERTEX
10
9.95487
20
8.18177
30
3.64
0
VERTEX
10
9.96114
20
8.16504
30
3.64
0
VERTEX
10
9.96323
20
8.15668
30
3.64
0
VERTEX
10
9.96323
20
8.1525
30
3.64
0
VERTEX
10
9.9695
20
8.14413
30
3.64
0
VERTEX
10
9.98414
20
8.13368
30
3.64
0
VERTEX
10
9.98414
20
8.1295
30
3.64
0
VERTEX
10
9.9925
20
8.12322
30
3.64
0
VERTEX
10
9.9946
20
8.11904
30
3.64
0
VERTEX
10
10.003
20
8.11695
30
3.64
0
VERTEX
10
10.0155
20
8.10231
30
3.64
0
VERTEX
10
10.0197
20
8.09395
30
3.64
0
VERTEX
10
10.0364
20
8.08768
30
3.64
0
VERTEX
10
10.0531
20
8.08768
30
3.64
0
VERTEX
10
10.0866
20
8.07304
30
3.64
0
VERTEX
10
10.1033
20
8.06677
30
3.64
0
VERTEX
10
10.1368
20
8.06468
30
3.64
0
VERTEX
10
10.1535
20
8.07095
30
3.64
0
VERTEX
10
10.1661
20
8.0814
30
3.64
0
VERTEX
10
10.1744
20
8.08559
30
3.64
0
VERTEX
10
10.1786
20
8.08559
30
3.64
0
VERTEX
10
10.1807
20
8.08977
30
3.64
0
VERTEX
10
10.1891
20
8.09186
30
3.64
0
VERTEX
10
10.1995
20
8.10859
30
3.64
0
VERTEX
10
10.2016
20
8.12531
30
3.64
0
VERTEX
10
10.2058
20
8.1295
30
3.64
0
VERTEX
10
10.2058
20
8.16295
30
3.64
0
VERTEX
10
10.2058
20
8.17968
30
3.64
0
VERTEX
10
10.2058
20
8.18804
30
3.64
0
VERTEX
10
10.2016
20
8.19222
30
3.64
0
VERTEX
10
10.1891
20
8.22568
30
3.64
0
VERTEX
10
10.1849
20
8.22986
30
3.64
0
VERTEX
10
10.1849
20
8.23404
30
3.64
0
VERTEX
10
10.1807
20
8.23822
30
3.64
0
VERTEX
10
10.1661
20
8.27168
30
3.64
0
VERTEX
10
10.164
20
8.28004
30
3.64
0
VERTEX
10
10.1577
20
8.28841
30
3.64
0
VERTEX
10
10.1556
20
8.29677
30
3.64
0
VERTEX
10
10.1263
20
8.32813
30
3.64
0
VERTEX
10
10.1096
20
8.34068
30
3.64
0
VERTEX
10
10.1012
20
8.34695
30
3.64
0
VERTEX
10
10.0678
20
8.34904
30
3.64
0
VERTEX
10
10.0594
20
8.34904
30
3.64
0
VERTEX
10
10.0552
20
8.34904
30
3.64
0
VERTEX
10
10.0469
20
8.35531
30
3.64
0
VERTEX
10
10.0134
20
8.34904
30
3.64
0
VERTEX
10
9.99669
20
8.34695
30
3.64
0
VERTEX
10
9.98832
20
8.34486
30
3.64
0
VERTEX
10
9.9695
20
8.31141
30
3.64
0
VERTEX
10
9.96323
20
8.29468
30
3.64
0
VERTEX
10
9.95696
20
8.28631
30
3.64
0
VERTEX
10
9.95278
20
8.26959
30
3.64
0
VERTEX
10
9.9486
20
8.2675
30
3.64
0
VERTEX
10
9.9465
20
8.23404
30
3.64
0
VERTEX
10
9.9465
20
8.21731
30
3.64
0
VERTEX
10
9.9465
20
8.20895
30
3.64
0
SEQEND
0
POLYLINE
62
227
66
1
70
1
3
endoplasmic_reticulum
0
VERTEX
10
9.8448
20
8.31674
30
3.64
0
VERTEX
10
9.85394
20
8.30455
30
3.64
0
VERTEX
10
9.86004
20
8.30151
30
3.64
0
VERTEX
10
9.86308
20
8.30151
30
3.64
0
VERTEX
10
9.86613
20
8.29846
30
3.64
0
VERTEX
10
9.91488
20
8.29846
30
3.64
0
VERTEX
10
9.93774
20
8.30608
30
3.64
0
VERTEX
10
9.94383
20
8.31826
30
3.64
0
VERTEX
10
9.94688
20
8.33045
30
3.64
0
VERTEX
10
9.94688
20
8.34264
30
3.64
0
VERTEX
10
9.94688
20
8.34873
30
3.64
0
VERTEX
10
9.94383
20
8.35178
30
3.64
0
VERTEX
10
9.89508
20
8.35483
30
3.64
0
VERTEX
10
9.88289
20
8.3533
30
3.64
0
VERTEX
10
9.8707
20
8.34873
30
3.64
0
VERTEX
10
9.86765
20
8.34569
30
3.64
0
VERTEX
10
9.85547
20
8.34112
30
3.64
0
VERTEX
10
9.85242
20
8.33807
30
3.64
0
VERTEX
10
9.85242
20
8.32588
30
3.64
0
VERTEX
10
9.84633
20
8.32283
30
3.64
0
VERTEX
10
9.8448
20
8.31826
30
3.64
0
SEQEND
0
POLYLINE
62
227
66
1
70
1
3
endoplasmic_reticulum
0
VERTEX
10
10.1678
20
8.29389
30
3.64
0
VERTEX
10
10.18
20
8.28322
30
3.64
0
VERTEX
10
10.1876
20
8.27256
30
3.64
0
VERTEX
10
10.1906
20
8.27104
30
3.64
0
VERTEX
10
10.1906
20
8.26494
30
3.64
0
VERTEX
10
10.1937
20
8.26189
30
3.64
0
VERTEX
10
10.1998
20
8.26189
30
3.64
0
VERTEX
10
10.2043
20
8.26799
30
3.64
0
VERTEX
10
10.2043
20
8.27104
30
3.64
0
VERTEX
10
10.2089
20
8.27561
30
3.64
0
VERTEX
10
10.2089
20
8.2817
30
3.64
0
VERTEX
10
10.2028
20
8.29389
30
3.64
0
VERTEX
10
10.1998
20
8.29541
30
3.64
0
VERTEX
10
10.1998
20
8.30151
30
3.64
0
VERTEX
10
10.1937
20
8.30608
30
3.64
0
VERTEX
10
10.1861
20
8.31674
30
3.64
0
VERTEX
10
10.1845
20
8.31979
30
3.64
0
VERTEX
10
10.1724
20
8.31826
30
3.64
0
VERTEX
10
10.1678
20
8.31369
30
3.64
0
VERTEX
10
10.1678
20
8.30151
30
3.64
0
VERTEX
10
10.1678
20
8.29541
30
3.64
0
SEQEND
0
POLYLINE
62
236
66
1
70
1
3
postsynaptic_density
0
VERTEX
10
10.7218
20
7.9855
30
3.64
0
VERTEX
10
10.7251
20
7.97893
30
3.64
0
VERTEX
10
10.7251
20
7.97236
30
3.64
0
VERTEX
10
10.7316
20
7.95922
30
3.64
0
VERTEX
10
10.7333
20
7.94608
30
3.64
0
VERTEX
10
10.7382
20
7.93294
30
3.64
0
VERTEX
10
10.7629
20
7.90995
30
3.64
0
VERTEX
10
10.7744
20
7.89681
30
3.64
0
VERTEX
10
10.7826
20
7.88367
30
3.64
0
VERTEX
10
10.7842
20
7.87053
30
3.64
0
VERTEX
10
10.7858
20
7.86396
30
3.64
0
VERTEX
10
10.7875
20
7.86068
30
3.64
0
VERTEX
10
10.7826
20
7.85411
30
3.64
0
VERTEX
10
10.7793
20
7.85411
30
3.64
0
VERTEX
10
10.7776
20
7.85082
30
3.64
0
VERTEX
10
10.7826
20
7.8459
30
3.64
0
VERTEX
10
10.7891
20
7.84425
30
3.64
0
VERTEX
10
10.7941
20
7.83933
30
3.64
0
VERTEX
10
10.8006
20
7.83768
30
3.64
0
VERTEX
10
10.8023
20
7.8344
30
3.64
0
VERTEX
10
10.8548
20
7.83276
30
3.64
0
VERTEX
10
10.868
20
7.83276
30
3.64
0
VERTEX
10
10.8795
20
7.84097
30
3.64
0
VERTEX
10
10.8844
20
7.8459
30
3.64
0
VERTEX
10
10.891
20
7.84754
30
3.64
0
VERTEX
10
10.9008
20
7.85739
30
3.64
0
VERTEX
10
10.9057
20
7.86396
30
3.64
0
VERTEX
10
10.9074
20
7.89024
30
3.64
0
VERTEX
10
10.9025
20
7.90338
30
3.64
0
VERTEX
10
10.9008
20
7.90995
30
3.64
0
VERTEX
10
10.8893
20
7.92309
30
3.64
0
VERTEX
10
10.8811
20
7.93459
30
3.64
0
VERTEX
10
10.8795
20
7.94116
30
3.64
0
VERTEX
10
10.8762
20
7.94444
30
3.64
0
VERTEX
10
10.8762
20
7.95101
30
3.64
0
VERTEX
10
10.8729
20
7.95758
30
3.64
0
VERTEX
10
10.8696
20
7.95922
30
3.64
0
VERTEX
10
10.8696
20
7.96251
30
3.64
0
VERTEX
10
10.8663
20
7.96579
30
3.64
0
VERTEX
10
10.8647
20
7.97236
30
3.64
0
VERTEX
10
10.8598
20
7.97729
30
3.64
0
VERTEX
10
10.8598
20
7.98386
30
3.64
0
VERTEX
10
10.8565
20
7.98714
30
3.64
0
VERTEX
10
10.8565
20
8.00028
30
3.64
0
VERTEX
10
10.8532
20
8.01342
30
3.64
0
VERTEX
10
10.8532
20
8.01671
30
3.64
0
VERTEX
10
10.8483
20
8.02328
30
3.64
0
VERTEX
10
10.8483
20
8.02985
30
3.64
0
VERTEX
10
10.8417
20
8.03149
30
3.64
0
VERTEX
10
10.7891
20
8.02164
30
3.64
0
VERTEX
10
10.7629
20
8.01835
30
3.64
0
VERTEX
10
10.7497
20
8.01671
30
3.64
0
VERTEX
10
10.7366
20
8.0085
30
3.64
0
VERTEX
10
10.7366
20
8.00521
30
3.64
0
VERTEX
10
10.7234
20
7.997
30
3.64
0
VERTEX
10
10.7218
20
7.99043
30
3.64
0
VERTEX
10
10.7218
20
7.98714
30
3.64
0
SEQEND
0
ENDSEC
0
EOF
