0
SECTION
2
ENTITIES
0
POLYLINE
62
31
66
1
70
1
3
contour
0
VERTEX
10
7.35087
20
10.9819
30
8.16
0
VERTEX
10
7.35745
20
10.9753
30
8.16
0
VERTEX
10
7.36075
20
10.9489
30
8.16
0
VERTEX
10
7.36075
20
10.9424
30
8.16
0
VERTEX
10
7.37391
20
10.9358
30
8.16
0
VERTEX
10
7.39037
20
10.9094
30
8.16
0
VERTEX
10
7.40025
20
10.8996
30
8.16
0
VERTEX
10
7.40354
20
10.893
30
8.16
0
VERTEX
10
7.41671
20
10.8897
30
8.16
0
VERTEX
10
7.42988
20
10.8798
30
8.16
0
VERTEX
10
7.48255
20
10.8699
30
8.16
0
VERTEX
10
7.48913
20
10.8568
30
8.16
0
VERTEX
10
7.49571
20
10.8568
30
8.16
0
VERTEX
10
7.5023
20
10.8502
30
8.16
0
VERTEX
10
7.52863
20
10.8436
30
8.16
0
VERTEX
10
7.57801
20
10.8107
30
8.16
0
VERTEX
10
7.60435
20
10.7909
30
8.16
0
VERTEX
10
7.63068
20
10.7843
30
8.16
0
VERTEX
10
7.67348
20
10.735
30
8.16
0
VERTEX
10
7.68006
20
10.7251
30
8.16
0
VERTEX
10
7.69323
20
10.7119
30
8.16
0
VERTEX
10
7.71627
20
10.6988
30
8.16
0
VERTEX
10
7.72615
20
10.6889
30
8.16
0
VERTEX
10
7.72944
20
10.5835
30
8.16
0
VERTEX
10
7.72615
20
10.4782
30
8.16
0
VERTEX
10
7.72286
20
10.465
30
8.16
0
VERTEX
10
7.72286
20
10.4584
30
8.16
0
VERTEX
10
7.71298
20
10.4453
30
8.16
0
VERTEX
10
7.70969
20
10.4189
30
8.16
0
VERTEX
10
7.69323
20
10.3663
30
8.16
0
VERTEX
10
7.68994
20
10.3399
30
8.16
0
VERTEX
10
7.68994
20
10.3268
30
8.16
0
VERTEX
10
7.67348
20
10.2741
30
8.16
0
VERTEX
10
7.67348
20
10.2214
30
8.16
0
VERTEX
10
7.68006
20
10.1688
30
8.16
0
VERTEX
10
7.68006
20
10.1424
30
8.16
0
VERTEX
10
7.68006
20
10.1293
30
8.16
0
VERTEX
10
7.68994
20
10.1029
30
8.16
0
VERTEX
10
7.69323
20
10.0502
30
8.16
0
VERTEX
10
7.69981
20
10.0239
30
8.16
0
VERTEX
10
7.69981
20
9.97124
30
8.16
0
VERTEX
10
7.69652
20
9.94491
30
8.16
0
VERTEX
10
7.69652
20
9.93174
30
8.16
0
VERTEX
10
7.68994
20
9.91857
30
8.16
0
VERTEX
10
7.68006
20
9.81323
30
8.16
0
VERTEX
10
7.68006
20
9.80006
30
8.16
0
VERTEX
10
7.68994
20
9.77373
30
8.16
0
VERTEX
10
7.69323
20
9.74739
30
8.16
0
VERTEX
10
7.69323
20
9.74081
30
8.16
0
VERTEX
10
7.7064
20
9.73093
30
8.16
0
VERTEX
10
7.81174
20
9.74081
30
8.16
0
VERTEX
10
7.86441
20
9.7441
30
8.16
0
VERTEX
10
7.89075
20
9.74739
30
8.16
0
VERTEX
10
7.89404
20
9.75398
30
8.16
0
VERTEX
10
7.92037
20
9.75727
30
8.16
0
VERTEX
10
7.94671
20
9.76714
30
8.16
0
VERTEX
10
7.95658
20
9.77373
30
8.16
0
VERTEX
10
7.96975
20
9.77373
30
8.16
0
VERTEX
10
7.99609
20
9.79019
30
8.16
0
VERTEX
10
8.04876
20
9.80665
30
8.16
0
VERTEX
10
8.05534
20
9.81323
30
8.16
0
VERTEX
10
8.06851
20
9.81323
30
8.16
0
VERTEX
10
8.12118
20
9.84286
30
8.16
0
VERTEX
10
8.17385
20
9.87907
30
8.16
0
VERTEX
10
8.18702
20
9.89224
30
8.16
0
VERTEX
10
8.20019
20
9.89553
30
8.16
0
VERTEX
10
8.22652
20
9.91199
30
8.16
0
VERTEX
10
8.25286
20
9.9087
30
8.16
0
VERTEX
10
8.2759
20
9.92186
30
8.16
0
VERTEX
10
8.29894
20
9.94491
30
8.16
0
VERTEX
10
8.3154
20
9.96466
30
8.16
0
VERTEX
10
8.32199
20
9.97124
30
8.16
0
VERTEX
10
8.33186
20
10.0239
30
8.16
0
VERTEX
10
8.34174
20
10.0371
30
8.16
0
VERTEX
10
8.34174
20
10.0634
30
8.16
0
VERTEX
10
8.33516
20
10.0766
30
8.16
0
VERTEX
10
8.32528
20
10.1293
30
8.16
0
VERTEX
10
8.32199
20
10.1424
30
8.16
0
VERTEX
10
8.30553
20
10.1589
30
8.16
0
VERTEX
10
8.28907
20
10.2116
30
8.16
0
VERTEX
10
8.28907
20
10.2247
30
8.16
0
VERTEX
10
8.27261
20
10.2478
30
8.16
0
VERTEX
10
8.25944
20
10.2511
30
8.16
0
VERTEX
10
8.21006
20
10.284
30
8.16
0
VERTEX
10
8.18702
20
10.2971
30
8.16
0
VERTEX
10
8.17385
20
10.307
30
8.16
0
VERTEX
10
8.16068
20
10.3301
30
8.16
0
VERTEX
10
8.15081
20
10.3399
30
8.16
0
VERTEX
10
8.14422
20
10.3432
30
8.16
0
VERTEX
10
8.14093
20
10.3564
30
8.16
0
VERTEX
10
8.11789
20
10.3794
30
8.16
0
VERTEX
10
8.06851
20
10.4124
30
8.16
0
VERTEX
10
8.05534
20
10.4189
30
8.16
0
VERTEX
10
8.04217
20
10.442
30
8.16
0
VERTEX
10
8.02571
20
10.4584
30
8.16
0
VERTEX
10
7.99938
20
10.465
30
8.16
0
VERTEX
10
7.97304
20
10.465
30
8.16
0
VERTEX
10
7.94671
20
10.4749
30
8.16
0
VERTEX
10
7.93354
20
10.4881
30
8.16
0
VERTEX
10
7.92696
20
10.5012
30
8.16
0
VERTEX
10
7.92366
20
10.5539
30
8.16
0
VERTEX
10
7.9105
20
10.577
30
8.16
0
VERTEX
10
7.89733
20
10.5802
30
8.16
0
VERTEX
10
7.88087
20
10.6033
30
8.16
0
VERTEX
10
7.85783
20
10.6165
30
8.16
0
VERTEX
10
7.85124
20
10.6296
30
8.16
0
VERTEX
10
7.84466
20
10.6329
30
8.16
0
VERTEX
10
7.84466
20
10.6395
30
8.16
0
VERTEX
10
7.83807
20
10.6461
30
8.16
0
VERTEX
10
7.8282
20
10.6724
30
8.16
0
VERTEX
10
7.82162
20
10.6856
30
8.16
0
VERTEX
10
7.79528
20
10.7086
30
8.16
0
VERTEX
10
7.77553
20
10.735
30
8.16
0
VERTEX
10
7.76236
20
10.758
30
8.16
0
VERTEX
10
7.7459
20
10.8107
30
8.16
0
VERTEX
10
7.73603
20
10.837
30
8.16
0
VERTEX
10
7.73603
20
10.8634
30
8.16
0
VERTEX
10
7.71957
20
10.916
30
8.16
0
VERTEX
10
7.71957
20
10.9424
30
8.16
0
VERTEX
10
7.71627
20
10.9555
30
8.16
0
VERTEX
10
7.7064
20
10.9687
30
8.16
0
VERTEX
10
7.70311
20
10.9819
30
8.16
0
VERTEX
10
7.60106
20
11.0543
30
8.16
0
VERTEX
10
7.57472
20
11.0707
30
8.16
0
VERTEX
10
7.52205
20
11.0872
30
8.16
0
VERTEX
10
7.50888
20
11.0971
30
8.16
0
VERTEX
10
7.49571
20
11.1004
30
8.16
0
VERTEX
10
7.46938
20
11.0872
30
8.16
0
VERTEX
10
7.44304
20
11.0905
30
8.16
0
VERTEX
10
7.41671
20
11.0872
30
8.16
0
VERTEX
10
7.36733
20
11.0444
30
8.16
0
VERTEX
10
7.35087
20
10.995
30
8.16
0
VERTEX
10
7.35087
20
10.9852
30
8.16
0
SEQEND
0
POLYLINE
62
224
66
1
70
1
3
mitochondrion
0
VERTEX
10
7.88374
20
10.1335
30
8.16
0
VERTEX
10
7.88791
20
10.1223
30
8.16
0
VERTEX
10
7.8893
20
10.1001
30
8.16
0
VERTEX
10
7.8893
20
10.0973
30
8.16
0
VERTEX
10
7.89208
20
10.0945
30
8.16
0
VERTEX
10
7.90042
20
10.0723
30
8.16
0
VERTEX
10
7.90042
20
10.0695
30
8.16
0
VERTEX
10
7.91572
20
10.0514
30
8.16
0
VERTEX
10
7.93657
20
10.0361
30
8.16
0
VERTEX
10
7.94631
20
10.032
30
8.16
0
VERTEX
10
7.95187
20
10.0292
30
8.16
0
VERTEX
10
7.95465
20
10.0264
30
8.16
0
VERTEX
10
7.96021
20
10.025
30
8.16
0
VERTEX
10
7.97133
20
10.0153
30
8.16
0
VERTEX
10
7.9769
20
10.0139
30
8.16
0
VERTEX
10
7.98802
20
10.0069
30
8.16
0
VERTEX
10
7.99914
20
10.0028
30
8.16
0
VERTEX
10
8.0047
20
10.0014
30
8.16
0
VERTEX
10
8.00749
20
10.0014
30
8.16
0
VERTEX
10
8.01305
20
9.99719
30
8.16
0
VERTEX
10
8.03529
20
9.9958
30
8.16
0
VERTEX
10
8.04086
20
9.9958
30
8.16
0
VERTEX
10
8.05198
20
10.0014
30
8.16
0
VERTEX
10
8.06171
20
10.0111
30
8.16
0
VERTEX
10
8.07423
20
10.0306
30
8.16
0
VERTEX
10
8.08952
20
10.0514
30
8.16
0
VERTEX
10
8.09647
20
10.0625
30
8.16
0
VERTEX
10
8.10064
20
10.0667
30
8.16
0
VERTEX
10
8.1076
20
10.089
30
8.16
0
VERTEX
10
8.10621
20
10.1335
30
8.16
0
VERTEX
10
8.10343
20
10.1446
30
8.16
0
VERTEX
10
8.10204
20
10.1501
30
8.16
0
VERTEX
10
8.09508
20
10.1613
30
8.16
0
VERTEX
10
8.09369
20
10.1668
30
8.16
0
VERTEX
10
8.09091
20
10.1682
30
8.16
0
VERTEX
10
8.08952
20
10.1738
30
8.16
0
VERTEX
10
8.07423
20
10.196
30
8.16
0
VERTEX
10
8.06866
20
10.2016
30
8.16
0
VERTEX
10
8.06866
20
10.2044
30
8.16
0
VERTEX
10
8.04642
20
10.2252
30
8.16
0
VERTEX
10
8.03668
20
10.2308
30
8.16
0
VERTEX
10
8.03112
20
10.235
30
8.16
0
VERTEX
10
8.02
20
10.2377
30
8.16
0
VERTEX
10
8.01722
20
10.2405
30
8.16
0
VERTEX
10
7.97273
20
10.2405
30
8.16
0
VERTEX
10
7.95048
20
10.2391
30
8.16
0
VERTEX
10
7.9477
20
10.2391
30
8.16
0
VERTEX
10
7.94492
20
10.2363
30
8.16
0
VERTEX
10
7.93379
20
10.235
30
8.16
0
VERTEX
10
7.92823
20
10.2336
30
8.16
0
VERTEX
10
7.92267
20
10.2294
30
8.16
0
VERTEX
10
7.90042
20
10.2224
30
8.16
0
VERTEX
10
7.89764
20
10.2224
30
8.16
0
VERTEX
10
7.89486
20
10.2197
30
8.16
0
VERTEX
10
7.89486
20
10.2169
30
8.16
0
VERTEX
10
7.89069
20
10.2113
30
8.16
0
VERTEX
10
7.88791
20
10.2085
30
8.16
0
VERTEX
10
7.88652
20
10.203
30
8.16
0
VERTEX
10
7.88374
20
10.2002
30
8.16
0
VERTEX
10
7.88374
20
10.1557
30
8.16
0
VERTEX
10
7.88374
20
10.1348
30
8.16
0
SEQEND
0
POLYLINE
62
236
66
1
70
1
3
postsynaptic_density
0
VERTEX
10
7.31189
20
10.9734
30
8.16
0
VERTEX
10
7.32122
20
10.9585
30
8.16
0
VERTEX
10
7.32495
20
10.9548
30
8.16
0
VERTEX
10
7.33802
20
10.9492
30
8.16
0
VERTEX
10
7.36788
20
10.9492
30
8.16
0
VERTEX
10
7.38281
20
10.951
30
8.16
0
VERTEX
10
7.4108
20
10.9678
30
8.16
0
VERTEX
10
7.4164
20
10.9753
30
8.16
0
VERTEX
10
7.4164
20
10.979
30
8.16
0
VERTEX
10
7.422
20
10.9846
30
8.16
0
VERTEX
10
7.422
20
11.0145
30
8.16
0
VERTEX
10
7.422
20
11.0294
30
8.16
0
VERTEX
10
7.422
20
11.0332
30
8.16
0
VERTEX
10
7.41267
20
11.0481
30
8.16
0
VERTEX
10
7.40334
20
11.0574
30
8.16
0
VERTEX
10
7.39027
20
11.0686
30
8.16
0
VERTEX
10
7.38281
20
11.0686
30
8.16
0
VERTEX
10
7.36788
20
11.0742
30
8.16
0
VERTEX
10
7.35295
20
11.0761
30
8.16
0
VERTEX
10
7.31936
20
11.0164
30
8.16
0
VERTEX
10
7.31189
20
11.0014
30
8.16
0
VERTEX
10
7.31189
20
10.9865
30
8.16
0
VERTEX
10
7.31189
20
10.979
30
8.16
0
VERTEX
10
7.31189
20
10.9753
30
8.16
0
SEQEND
0
POLYLINE
62
227
66
1
70
1
3
endoplasmic_reticulum
0
VERTEX
10
7.76588
20
10.0601
30
8.16
0
VERTEX
10
7.76768
20
10.0584
30
8.16
0
VERTEX
10
7.77216
20
10.0297
30
8.16
0
VERTEX
10
7.77126
20
10.001
30
8.16
0
VERTEX
10
7.77126
20
9.9938
30
8.16
0
VERTEX
10
7.77574
20
9.97945
30
8.16
0
VERTEX
10
7.77574
20
9.97587
30
8.16
0
VERTEX
10
7.77754
20
9.97228
30
8.16
0
VERTEX
10
7.77754
20
9.97049
30
8.16
0
VERTEX
10
7.77933
20
9.96959
30
8.16
0
VERTEX
10
7.77933
20
9.96601
30
8.16
0
VERTEX
10
7.78561
20
9.95883
30
8.16
0
VERTEX
10
7.79995
20
9.95794
30
8.16
0
VERTEX
10
7.80712
20
9.96242
30
8.16
0
VERTEX
10
7.80802
20
9.96601
30
8.16
0
VERTEX
10
7.8125
20
9.97228
30
8.16
0
VERTEX
10
7.8125
20
9.97408
30
8.16
0
VERTEX
10
7.8143
20
9.97587
30
8.16
0
VERTEX
10
7.8143
20
9.98304
30
8.16
0
VERTEX
10
7.81699
20
9.98932
30
8.16
0
VERTEX
10
7.81788
20
10.0037
30
8.16
0
VERTEX
10
7.82057
20
10.018
30
8.16
0
VERTEX
10
7.81968
20
10.0467
30
8.16
0
VERTEX
10
7.82057
20
10.0539
30
8.16
0
VERTEX
10
7.81968
20
10.0682
30
8.16
0
VERTEX
10
7.81968
20
10.0754
30
8.16
0
VERTEX
10
7.81699
20
10.0826
30
8.16
0
VERTEX
10
7.8143
20
10.0852
30
8.16
0
VERTEX
10
7.8134
20
10.0888
30
8.16
0
VERTEX
10
7.8134
20
10.0906
30
8.16
0
VERTEX
10
7.81161
20
10.0924
30
8.16
0
VERTEX
10
7.80981
20
10.0924
30
8.16
0
VERTEX
10
7.80802
20
10.0996
30
8.16
0
VERTEX
10
7.80533
20
10.1032
30
8.16
0
VERTEX
10
7.80354
20
10.1041
30
8.16
0
VERTEX
10
7.80264
20
10.1077
30
8.16
0
VERTEX
10
7.79995
20
10.1104
30
8.16
0
VERTEX
10
7.78561
20
10.1148
30
8.16
0
VERTEX
10
7.78202
20
10.1148
30
8.16
0
VERTEX
10
7.78023
20
10.1148
30
8.16
0
VERTEX
10
7.77037
20
10.1005
30
8.16
0
VERTEX
10
7.76768
20
10.0933
30
8.16
0
VERTEX
10
7.76588
20
10.079
30
8.16
0
VERTEX
10
7.76588
20
10.0646
30
8.16
0
VERTEX
10
7.76588
20
10.061
30
8.16
0
SEQEND
0
POLYLINE
62
227
66
1
70
1
3
endoplasmic_reticulum
0
VERTEX
10
7.72823
20
9.88173
30
8.16
0
VERTEX
10
7.73002
20
9.87815
30
8.16
0
VERTEX
10
7.73002
20
9.87635
30
8.16
0
VERTEX
10
7.73271
20
9.87277
30
8.16
0
VERTEX
10
7.7345
20
9.87097
30
8.16
0
VERTEX
10
7.7345
20
9.86918
30
8.16
0
VERTEX
10
7.73809
20
9.86559
30
8.16
0
VERTEX
10
7.74526
20
9.86201
30
8.16
0
VERTEX
10
7.75961
20
9.86201
30
8.16
0
VERTEX
10
7.76678
20
9.86201
30
8.16
0
VERTEX
10
7.77037
20
9.86201
30
8.16
0
VERTEX
10
7.77216
20
9.8629
30
8.16
0
VERTEX
10
7.77216
20
9.8647
30
8.16
0
VERTEX
10
7.77574
20
9.86739
30
8.16
0
VERTEX
10
7.77754
20
9.86739
30
8.16
0
VERTEX
10
7.78202
20
9.87277
30
8.16
0
VERTEX
10
7.78471
20
9.87546
30
8.16
0
VERTEX
10
7.78561
20
9.87725
30
8.16
0
VERTEX
10
7.78919
20
9.87725
30
8.16
0
VERTEX
10
7.78919
20
9.87546
30
8.16
0
VERTEX
10
7.79636
20
9.87277
30
8.16
0
VERTEX
10
7.81071
20
9.87366
30
8.16
0
VERTEX
10
7.81788
20
9.87366
30
8.16
0
VERTEX
10
7.82147
20
9.87277
30
8.16
0
VERTEX
10
7.82326
20
9.87277
30
8.16
0
VERTEX
10
7.82685
20
9.87546
30
8.16
0
VERTEX
10
7.82864
20
9.87904
30
8.16
0
VERTEX
10
7.82954
20
9.88621
30
8.16
0
VERTEX
10
7.83043
20
9.8898
30
8.16
0
VERTEX
10
7.83043
20
9.89159
30
8.16
0
VERTEX
10
7.83223
20
9.89339
30
8.16
0
VERTEX
10
7.83402
20
9.90056
30
8.16
0
VERTEX
10
7.83761
20
9.90235
30
8.16
0
VERTEX
10
7.8385
20
9.90414
30
8.16
0
VERTEX
10
7.84209
20
9.90414
30
8.16
0
VERTEX
10
7.85643
20
9.90863
30
8.16
0
VERTEX
10
7.86361
20
9.90773
30
8.16
0
VERTEX
10
7.87078
20
9.90504
30
8.16
0
VERTEX
10
7.88512
20
9.90414
30
8.16
0
VERTEX
10
7.89947
20
9.90773
30
8.16
0
VERTEX
10
7.90305
20
9.90594
30
8.16
0
VERTEX
10
7.90933
20
9.90773
30
8.16
0
VERTEX
10
7.91292
20
9.90773
30
8.16
0
VERTEX
10
7.9165
20
9.90952
30
8.16
0
VERTEX
10
7.92367
20
9.91042
30
8.16
0
VERTEX
10
7.93085
20
9.90952
30
8.16
0
VERTEX
10
7.94519
20
9.91401
30
8.16
0
VERTEX
10
7.95236
20
9.9158
30
8.16
0
VERTEX
10
7.96671
20
9.92208
30
8.16
0
VERTEX
10
7.9694
20
9.92566
30
8.16
0
VERTEX
10
7.97657
20
9.92746
30
8.16
0
VERTEX
10
7.97836
20
9.92746
30
8.16
0
VERTEX
10
7.98016
20
9.92925
30
8.16
0
VERTEX
10
7.9945
20
9.93014
30
8.16
0
VERTEX
10
8.00167
20
9.92835
30
8.16
0
VERTEX
10
8.03036
20
9.92656
30
8.16
0
VERTEX
10
8.03754
20
9.92656
30
8.16
0
VERTEX
10
8.03933
20
9.92656
30
8.16
0
VERTEX
10
8.04112
20
9.92477
30
8.16
0
VERTEX
10
8.04829
20
9.92477
30
8.16
0
VERTEX
10
8.05547
20
9.92656
30
8.16
0
VERTEX
10
8.06264
20
9.93104
30
8.16
0
VERTEX
10
8.06802
20
9.93732
30
8.16
0
VERTEX
10
8.07519
20
9.9409
30
8.16
0
VERTEX
10
8.07878
20
9.9427
30
8.16
0
VERTEX
10
8.07967
20
9.94449
30
8.16
0
VERTEX
10
8.08147
20
9.94449
30
8.16
0
VERTEX
10
8.08595
20
9.94987
30
8.16
0
VERTEX
10
8.0976
20
9.96332
30
8.16
0
VERTEX
10
8.11105
20
9.97408
30
8.16
0
VERTEX
10
8.11643
20
9.97945
30
8.16
0
VERTEX
10
8.12091
20
9.98663
30
8.16
0
VERTEX
10
8.12271
20
9.99021
30
8.16
0
VERTEX
10
8.12091
20
9.9938
30
8.16
0
VERTEX
10
8.11733
20
9.99739
30
8.16
0
VERTEX
10
8.11016
20
9.99828
30
8.16
0
VERTEX
10
8.10657
20
9.99828
30
8.16
0
VERTEX
10
8.10029
20
9.99559
30
8.16
0
VERTEX
10
8.08595
20
9.9947
30
8.16
0
VERTEX
10
8.08236
20
9.9929
30
8.16
0
VERTEX
10
8.07878
20
9.9929
30
8.16
0
VERTEX
10
8.06443
20
9.98842
30
8.16
0
VERTEX
10
8.05726
20
9.98752
30
8.16
0
VERTEX
10
8.05367
20
9.98752
30
8.16
0
VERTEX
10
8.05188
20
9.98573
30
8.16
0
VERTEX
10
8.04471
20
9.98394
30
8.16
0
VERTEX
10
8.04292
20
9.98214
30
8.16
0
VERTEX
10
8.03574
20
9.98035
30
8.16
0
VERTEX
10
8.03216
20
9.97945
30
8.16
0
VERTEX
10
8.03036
20
9.97766
30
8.16
0
VERTEX
10
8.02857
20
9.97766
30
8.16
0
VERTEX
10
8.02678
20
9.97587
30
8.16
0
VERTEX
10
8.02498
20
9.97587
30
8.16
0
VERTEX
10
8.02319
20
9.97408
30
8.16
0
VERTEX
10
8.01602
20
9.97139
30
8.16
0
VERTEX
10
8.01423
20
9.96959
30
8.16
0
VERTEX
10
8.01064
20
9.9687
30
8.16
0
VERTEX
10
8.00436
20
9.96332
30
8.16
0
VERTEX
10
8.00257
20
9.95973
30
8.16
0
VERTEX
10
7.99898
20
9.95704
30
8.16
0
VERTEX
10
7.9954
20
9.95077
30
8.16
0
VERTEX
10
7.99361
20
9.94897
30
8.16
0
VERTEX
10
7.97926
20
9.94897
30
8.16
0
VERTEX
10
7.96492
20
9.95525
30
8.16
0
VERTEX
10
7.96133
20
9.95525
30
8.16
0
VERTEX
10
7.96043
20
9.95704
30
8.16
0
VERTEX
10
7.95326
20
9.95794
30
8.16
0
VERTEX
10
7.94967
20
9.95973
30
8.16
0
VERTEX
10
7.94788
20
9.96152
30
8.16
0
VERTEX
10
7.9443
20
9.96152
30
8.16
0
VERTEX
10
7.94071
20
9.96511
30
8.16
0
VERTEX
10
7.92636
20
9.9678
30
8.16
0
VERTEX
10
7.89767
20
9.9669
30
8.16
0
VERTEX
10
7.89409
20
9.96511
30
8.16
0
VERTEX
10
7.8923
20
9.96511
30
8.16
0
VERTEX
10
7.88871
20
9.96242
30
8.16
0
VERTEX
10
7.87436
20
9.95614
30
8.16
0
VERTEX
10
7.87257
20
9.95614
30
8.16
0
VERTEX
10
7.86899
20
9.95345
30
8.16
0
VERTEX
10
7.86181
20
9.95077
30
8.16
0
VERTEX
10
7.85464
20
9.94449
30
8.16
0
VERTEX
10
7.85285
20
9.9409
30
8.16
0
VERTEX
10
7.84926
20
9.93732
30
8.16
0
VERTEX
10
7.84568
20
9.93552
30
8.16
0
VERTEX
10
7.83492
20
9.92387
30
8.16
0
VERTEX
10
7.83223
20
9.92208
30
8.16
0
VERTEX
10
7.82685
20
9.9158
30
8.16
0
VERTEX
10
7.82057
20
9.91221
30
8.16
0
VERTEX
10
7.8134
20
9.91042
30
8.16
0
VERTEX
10
7.80981
20
9.91042
30
8.16
0
VERTEX
10
7.80533
20
9.9167
30
8.16
0
VERTEX
10
7.80533
20
9.91849
30
8.16
0
VERTEX
10
7.80174
20
9.92118
30
8.16
0
VERTEX
10
7.79995
20
9.92835
30
8.16
0
VERTEX
10
7.80533
20
9.93194
30
8.16
0
VERTEX
10
7.80354
20
9.93283
30
8.16
0
VERTEX
10
7.79995
20
9.93194
30
8.16
0
VERTEX
10
7.78561
20
9.93821
30
8.16
0
VERTEX
10
7.77843
20
9.93911
30
8.16
0
VERTEX
10
7.77395
20
9.9418
30
8.16
0
VERTEX
10
7.77037
20
9.93911
30
8.16
0
VERTEX
10
7.76319
20
9.93911
30
8.16
0
VERTEX
10
7.75961
20
9.93821
30
8.16
0
VERTEX
10
7.75602
20
9.93552
30
8.16
0
VERTEX
10
7.75423
20
9.93194
30
8.16
0
VERTEX
10
7.74705
20
9.92566
30
8.16
0
VERTEX
10
7.74257
20
9.91939
30
8.16
0
VERTEX
10
7.74078
20
9.9158
30
8.16
0
VERTEX
10
7.74078
20
9.90146
30
8.16
0
VERTEX
10
7.73809
20
9.89428
30
8.16
0
VERTEX
10
7.7363
20
9.89249
30
8.16
0
VERTEX
10
7.72912
20
9.8898
30
8.16
0
VERTEX
10
7.72823
20
9.88263
30
8.16
0
SEQEND
0
POLYLINE
62
227
66
1
70
1
3
endoplasmic_reticulum
0
VERTEX
10
7.7103
20
10.3049
30
8.16
0
VERTEX
10
7.71209
20
10.2906
30
8.16
0
VERTEX
10
7.71299
20
10.2834
30
8.16
0
VERTEX
10
7.71299
20
10.2798
30
8.16
0
VERTEX
10
7.71299
20
10.278
30
8.16
0
VERTEX
10
7.71478
20
10.2762
30
8.16
0
VERTEX
10
7.71568
20
10.269
30
8.16
0
VERTEX
10
7.71837
20
10.2663
30
8.16
0
VERTEX
10
7.72285
20
10.252
30
8.16
0
VERTEX
10
7.72554
20
10.2493
30
8.16
0
VERTEX
10
7.72643
20
10.2421
30
8.16
0
VERTEX
10
7.72733
20
10.2386
30
8.16
0
VERTEX
10
7.72733
20
10.2368
30
8.16
0
VERTEX
10
7.72912
20
10.235
30
8.16
0
VERTEX
10
7.72912
20
10.2314
30
8.16
0
VERTEX
10
7.73092
20
10.2296
30
8.16
0
VERTEX
10
7.73092
20
10.226
30
8.16
0
VERTEX
10
7.73092
20
10.2242
30
8.16
0
VERTEX
10
7.73271
20
10.2224
30
8.16
0
VERTEX
10
7.73361
20
10.2188
30
8.16
0
VERTEX
10
7.7363
20
10.2161
30
8.16
0
VERTEX
10
7.7363
20
10.2143
30
8.16
0
VERTEX
10
7.74168
20
10.209
30
8.16
0
VERTEX
10
7.74526
20
10.2063
30
8.16
0
VERTEX
10
7.75243
20
10.2045
30
8.16
0
VERTEX
10
7.75961
20
10.2054
30
8.16
0
VERTEX
10
7.76319
20
10.2063
30
8.16
0
VERTEX
10
7.76499
20
10.2063
30
8.16
0
VERTEX
10
7.76947
20
10.2126
30
8.16
0
VERTEX
10
7.77037
20
10.2161
30
8.16
0
VERTEX
10
7.77485
20
10.2224
30
8.16
0
VERTEX
10
7.77574
20
10.2296
30
8.16
0
VERTEX
10
7.77485
20
10.2332
30
8.16
0
VERTEX
10
7.77485
20
10.235
30
8.16
0
VERTEX
10
7.76947
20
10.2412
30
8.16
0
VERTEX
10
7.76678
20
10.2484
30
8.16
0
VERTEX
10
7.76588
20
10.2556
30
8.16
0
VERTEX
10
7.76588
20
10.2592
30
8.16
0
VERTEX
10
7.7614
20
10.2655
30
8.16
0
VERTEX
10
7.7605
20
10.2726
30
8.16
0
VERTEX
10
7.75781
20
10.2789
30
8.16
0
VERTEX
10
7.75602
20
10.2932
30
8.16
0
VERTEX
10
7.75602
20
10.2968
30
8.16
0
VERTEX
10
7.75602
20
10.2986
30
8.16
0
VERTEX
10
7.75333
20
10.3022
30
8.16
0
VERTEX
10
7.75333
20
10.3058
30
8.16
0
VERTEX
10
7.74705
20
10.3201
30
8.16
0
VERTEX
10
7.74257
20
10.3264
30
8.16
0
VERTEX
10
7.73899
20
10.3291
30
8.16
0
VERTEX
10
7.72464
20
10.3273
30
8.16
0
VERTEX
10
7.71747
20
10.3246
30
8.16
0
VERTEX
10
7.71568
20
10.3237
30
8.16
0
VERTEX
10
7.71568
20
10.3201
30
8.16
0
VERTEX
10
7.71299
20
10.3166
30
8.16
0
VERTEX
10
7.71209
20
10.313
30
8.16
0
VERTEX
10
7.71209
20
10.3112
30
8.16
0
VERTEX
10
7.7103
20
10.3094
30
8.16
0
VERTEX
10
7.7103
20
10.3058
30
8.16
0
SEQEND
0
POLYLINE
62
227
66
1
70
1
3
endoplasmic_reticulum
0
VERTEX
10
8.12988
20
10.1444
30
8.16
0
VERTEX
10
8.13347
20
10.1417
30
8.16
0
VERTEX
10
8.14064
20
10.1417
30
8.16
0
VERTEX
10
8.14781
20
10.1444
30
8.16
0
VERTEX
10
8.1514
20
10.1453
30
8.16
0
VERTEX
10
8.15409
20
10.148
30
8.16
0
VERTEX
10
8.18278
20
10.1489
30
8.16
0
VERTEX
10
8.18457
20
10.1489
30
8.16
0
VERTEX
10
8.18816
20
10.1516
30
8.16
0
VERTEX
10
8.19174
20
10.1516
30
8.16
0
VERTEX
10
8.19712
20
10.157
30
8.16
0
VERTEX
10
8.19981
20
10.1606
30
8.16
0
VERTEX
10
8.19981
20
10.1624
30
8.16
0
VERTEX
10
8.20429
20
10.1695
30
8.16
0
VERTEX
10
8.20609
20
10.1767
30
8.16
0
VERTEX
10
8.20519
20
10.191
30
8.16
0
VERTEX
10
8.2016
20
10.1982
30
8.16
0
VERTEX
10
8.19802
20
10.2018
30
8.16
0
VERTEX
10
8.19622
20
10.2018
30
8.16
0
VERTEX
10
8.19353
20
10.2045
30
8.16
0
VERTEX
10
8.18636
20
10.2054
30
8.16
0
VERTEX
10
8.17919
20
10.2045
30
8.16
0
VERTEX
10
8.1756
20
10.2036
30
8.16
0
VERTEX
10
8.17381
20
10.2036
30
8.16
0
VERTEX
10
8.16664
20
10.1982
30
8.16
0
VERTEX
10
8.16305
20
10.1946
30
8.16
0
VERTEX
10
8.16126
20
10.191
30
8.16
0
VERTEX
10
8.15947
20
10.1892
30
8.16
0
VERTEX
10
8.15947
20
10.1875
30
8.16
0
VERTEX
10
8.15767
20
10.1857
30
8.16
0
VERTEX
10
8.15409
20
10.1857
30
8.16
0
VERTEX
10
8.15229
20
10.1839
30
8.16
0
VERTEX
10
8.14512
20
10.1812
30
8.16
0
VERTEX
10
8.13795
20
10.1758
30
8.16
0
VERTEX
10
8.13436
20
10.174
30
8.16
0
VERTEX
10
8.13167
20
10.1668
30
8.16
0
VERTEX
10
8.12988
20
10.165
30
8.16
0
VERTEX
10
8.13078
20
10.1507
30
8.16
0
VERTEX
10
8.12988
20
10.1471
30
8.16
0
VERTEX
10
8.12988
20
10.1453
30
8.16
0
SEQEND
0
POLYLINE
62
227
66
1
70
1
3
endoplasmic_reticulum
0
VERTEX
10
8.08416
20
10.2457
30
8.16
0
VERTEX
10
8.08505
20
10.2421
30
8.16
0
VERTEX
10
8.08685
20
10.2403
30
8.16
0
VERTEX
10
8.08864
20
10.2332
30
8.16
0
VERTEX
10
8.09133
20
10.2296
30
8.16
0
VERTEX
10
8.09133
20
10.226
30
8.16
0
VERTEX
10
8.09671
20
10.2188
30
8.16
0
VERTEX
10
8.10388
20
10.2143
30
8.16
0
VERTEX
10
8.10567
20
10.2143
30
8.16
0
VERTEX
10
8.10747
20
10.2126
30
8.16
0
VERTEX
10
8.11464
20
10.2117
30
8.16
0
VERTEX
10
8.12898
20
10.2126
30
8.16
0
VERTEX
10
8.13616
20
10.2126
30
8.16
0
VERTEX
10
8.13974
20
10.2126
30
8.16
0
VERTEX
10
8.14602
20
10.217
30
8.16
0
VERTEX
10
8.1505
20
10.2233
30
8.16
0
VERTEX
10
8.1514
20
10.2305
30
8.16
0
VERTEX
10
8.14871
20
10.2448
30
8.16
0
VERTEX
10
8.14243
20
10.2592
30
8.16
0
VERTEX
10
8.13526
20
10.2655
30
8.16
0
VERTEX
10
8.13257
20
10.269
30
8.16
0
VERTEX
10
8.1254
20
10.2717
30
8.16
0
VERTEX
10
8.11105
20
10.2744
30
8.16
0
VERTEX
10
8.09671
20
10.2753
30
8.16
0
VERTEX
10
8.09312
20
10.2744
30
8.16
0
VERTEX
10
8.09133
20
10.2744
30
8.16
0
VERTEX
10
8.09043
20
10.2726
30
8.16
0
VERTEX
10
8.09133
20
10.269
30
8.16
0
VERTEX
10
8.08864
20
10.2619
30
8.16
0
VERTEX
10
8.08685
20
10.2601
30
8.16
0
VERTEX
10
8.08416
20
10.2529
30
8.16
0
VERTEX
10
8.08416
20
10.2466
30
8.16
0
SEQEND
0
ENDSEC
0
EOF
