0
SECTION
2
ENTITIES
0
POLYLINE
62
31
66
1
70
1
3
contour
0
VERTEX
10
8.91828
20
9.33515
30
6.12
0
VERTEX
10
8.9205
20
9.32628
30
6.12
0
VERTEX
10
8.92715
20
9.31741
30
6.12
0
VERTEX
10
8.94489
20
9.30632
30
6.12
0
VERTEX
10
9.01584
20
9.30188
30
6.12
0
VERTEX
10
9.05132
20
9.29967
30
6.12
0
VERTEX
10
9.06019
20
9.29967
30
6.12
0
VERTEX
10
9.07793
20
9.29302
30
6.12
0
VERTEX
10
9.09345
20
9.27971
30
6.12
0
VERTEX
10
9.12893
20
9.26419
30
6.12
0
VERTEX
10
9.14667
20
9.25754
30
6.12
0
VERTEX
10
9.15332
20
9.25089
30
6.12
0
VERTEX
10
9.1888
20
9.24867
30
6.12
0
VERTEX
10
9.20654
20
9.24867
30
6.12
0
VERTEX
10
9.24202
20
9.24202
30
6.12
0
VERTEX
10
9.27749
20
9.24423
30
6.12
0
VERTEX
10
9.29523
20
9.24867
30
6.12
0
VERTEX
10
9.33071
20
9.24867
30
6.12
0
VERTEX
10
9.36619
20
9.2531
30
6.12
0
VERTEX
10
9.40167
20
9.26419
30
6.12
0
VERTEX
10
9.41941
20
9.27306
30
6.12
0
VERTEX
10
9.42606
20
9.27971
30
6.12
0
VERTEX
10
9.43049
20
9.28193
30
6.12
0
VERTEX
10
9.43493
20
9.29967
30
6.12
0
VERTEX
10
9.44158
20
9.3041
30
6.12
0
VERTEX
10
9.45488
20
9.32184
30
6.12
0
VERTEX
10
9.45932
20
9.33958
30
6.12
0
VERTEX
10
9.46375
20
9.34401
30
6.12
0
VERTEX
10
9.46154
20
9.41497
30
6.12
0
VERTEX
10
9.45932
20
9.45045
30
6.12
0
VERTEX
10
9.4571
20
9.46819
30
6.12
0
VERTEX
10
9.44158
20
9.50145
30
6.12
0
VERTEX
10
9.42828
20
9.51697
30
6.12
0
VERTEX
10
9.39501
20
9.53914
30
6.12
0
VERTEX
10
9.38615
20
9.54136
30
6.12
0
VERTEX
10
9.37284
20
9.55467
30
6.12
0
VERTEX
10
9.36397
20
9.56353
30
6.12
0
VERTEX
10
9.3551
20
9.56797
30
6.12
0
VERTEX
10
9.34401
20
9.58349
30
6.12
0
VERTEX
10
9.32628
20
9.59458
30
6.12
0
VERTEX
10
9.31741
20
9.60123
30
6.12
0
VERTEX
10
9.31297
20
9.60567
30
6.12
0
VERTEX
10
9.29523
20
9.60345
30
6.12
0
VERTEX
10
9.2908
20
9.60345
30
6.12
0
VERTEX
10
9.27306
20
9.59236
30
6.12
0
VERTEX
10
9.25975
20
9.57906
30
6.12
0
VERTEX
10
9.25532
20
9.57462
30
6.12
0
VERTEX
10
9.23758
20
9.56797
30
6.12
0
VERTEX
10
9.23093
20
9.56353
30
6.12
0
VERTEX
10
9.22206
20
9.56353
30
6.12
0
VERTEX
10
9.20432
20
9.55467
30
6.12
0
VERTEX
10
9.16884
20
9.54801
30
6.12
0
VERTEX
10
9.1511
20
9.55023
30
6.12
0
VERTEX
10
9.14667
20
9.55467
30
6.12
0
VERTEX
10
9.1378
20
9.55467
30
6.12
0
VERTEX
10
9.12893
20
9.5591
30
6.12
0
VERTEX
10
9.12449
20
9.5591
30
6.12
0
VERTEX
10
9.11784
20
9.56575
30
6.12
0
VERTEX
10
9.10897
20
9.56797
30
6.12
0
VERTEX
10
9.09567
20
9.57906
30
6.12
0
VERTEX
10
9.07793
20
9.58571
30
6.12
0
VERTEX
10
9.04245
20
9.58349
30
6.12
0
VERTEX
10
9.0358
20
9.57462
30
6.12
0
VERTEX
10
9.03358
20
9.53914
30
6.12
0
VERTEX
10
9.03137
20
9.5214
30
6.12
0
VERTEX
10
9.03802
20
9.48593
30
6.12
0
VERTEX
10
9.03802
20
9.45045
30
6.12
0
VERTEX
10
9.0358
20
9.43271
30
6.12
0
VERTEX
10
9.03358
20
9.42384
30
6.12
0
VERTEX
10
9.01584
20
9.41275
30
6.12
0
VERTEX
10
9.00697
20
9.41054
30
6.12
0
VERTEX
10
9.00254
20
9.40832
30
6.12
0
VERTEX
10
9.00254
20
9.39945
30
6.12
0
VERTEX
10
8.99367
20
9.39501
30
6.12
0
VERTEX
10
8.97593
20
9.3928
30
6.12
0
VERTEX
10
8.96706
20
9.38615
30
6.12
0
VERTEX
10
8.95819
20
9.38393
30
6.12
0
VERTEX
10
8.94932
20
9.38615
30
6.12
0
VERTEX
10
8.91828
20
9.36175
30
6.12
0
VERTEX
10
8.91828
20
9.34401
30
6.12
0
VERTEX
10
8.91828
20
9.33736
30
6.12
0
SEQEND
0
POLYLINE
62
31
66
1
70
1
3
contour
0
VERTEX
10
7.29983
20
9.15942
30
6.12
0
VERTEX
10
7.30249
20
9.14876
30
6.12
0
VERTEX
10
7.30249
20
9.14344
30
6.12
0
VERTEX
10
7.31049
20
9.13278
30
6.12
0
VERTEX
10
7.31049
20
9.11147
30
6.12
0
VERTEX
10
7.31848
20
9.10347
30
6.12
0
VERTEX
10
7.31848
20
9.09815
30
6.12
0
VERTEX
10
7.32914
20
9.08749
30
6.12
0
VERTEX
10
7.33446
20
9.07683
30
6.12
0
VERTEX
10
7.34512
20
9.0715
30
6.12
0
VERTEX
10
7.36643
20
9.0715
30
6.12
0
VERTEX
10
7.37709
20
9.0715
30
6.12
0
VERTEX
10
7.38775
20
9.07683
30
6.12
0
VERTEX
10
7.43037
20
9.08482
30
6.12
0
VERTEX
10
7.51563
20
9.09015
30
6.12
0
VERTEX
10
7.53694
20
9.08482
30
6.12
0
VERTEX
10
7.55825
20
9.08482
30
6.12
0
VERTEX
10
7.57957
20
9.07683
30
6.12
0
VERTEX
10
7.59022
20
9.07417
30
6.12
0
VERTEX
10
7.60887
20
9.06085
30
6.12
0
VERTEX
10
7.63019
20
9.05285
30
6.12
0
VERTEX
10
7.64084
20
9.05019
30
6.12
0
VERTEX
10
7.64617
20
9.04486
30
6.12
0
VERTEX
10
7.66749
20
9.03953
30
6.12
0
VERTEX
10
7.67814
20
9.03687
30
6.12
0
VERTEX
10
7.68081
20
9.03154
30
6.12
0
VERTEX
10
7.70212
20
9.02355
30
6.12
0
VERTEX
10
7.72343
20
9.02355
30
6.12
0
VERTEX
10
7.73409
20
9.02355
30
6.12
0
VERTEX
10
7.73942
20
9.02355
30
6.12
0
VERTEX
10
7.74475
20
9.02888
30
6.12
0
VERTEX
10
7.76606
20
9.02888
30
6.12
0
VERTEX
10
7.78737
20
9.03421
30
6.12
0
VERTEX
10
7.79803
20
9.03687
30
6.12
0
VERTEX
10
7.80869
20
9.03421
30
6.12
0
VERTEX
10
7.81668
20
9.04486
30
6.12
0
VERTEX
10
7.82734
20
9.04486
30
6.12
0
VERTEX
10
7.84599
20
9.05818
30
6.12
0
VERTEX
10
7.84599
20
9.06351
30
6.12
0
VERTEX
10
7.86197
20
9.0795
30
6.12
0
VERTEX
10
7.86197
20
9.08482
30
6.12
0
VERTEX
10
7.8673
20
9.09015
30
6.12
0
VERTEX
10
7.87529
20
9.11147
30
6.12
0
VERTEX
10
7.88062
20
9.12212
30
6.12
0
VERTEX
10
7.88062
20
9.13278
30
6.12
0
VERTEX
10
7.88861
20
9.14077
30
6.12
0
VERTEX
10
7.89128
20
9.15143
30
6.12
0
VERTEX
10
7.9046
20
9.17008
30
6.12
0
VERTEX
10
7.9046
20
9.17541
30
6.12
0
VERTEX
10
7.91259
20
9.1834
30
6.12
0
VERTEX
10
7.91792
20
9.1834
30
6.12
0
VERTEX
10
7.9339
20
9.20205
30
6.12
0
VERTEX
10
7.93657
20
9.21271
30
6.12
0
VERTEX
10
7.94989
20
9.22869
30
6.12
0
VERTEX
10
7.95522
20
9.23402
30
6.12
0
VERTEX
10
7.95788
20
9.25533
30
6.12
0
VERTEX
10
7.96321
20
9.26599
30
6.12
0
VERTEX
10
7.96321
20
9.2873
30
6.12
0
VERTEX
10
7.96587
20
9.29796
30
6.12
0
VERTEX
10
7.96321
20
9.30862
30
6.12
0
VERTEX
10
7.95788
20
9.31128
30
6.12
0
VERTEX
10
7.93923
20
9.35391
30
6.12
0
VERTEX
10
7.91792
20
9.36989
30
6.12
0
VERTEX
10
7.88062
20
9.39387
30
6.12
0
VERTEX
10
7.85931
20
9.40719
30
6.12
0
VERTEX
10
7.81668
20
9.42051
30
6.12
0
VERTEX
10
7.79537
20
9.4285
30
6.12
0
VERTEX
10
7.71011
20
9.43117
30
6.12
0
VERTEX
10
7.69946
20
9.43916
30
6.12
0
VERTEX
10
7.6142
20
9.43916
30
6.12
0
VERTEX
10
7.59289
20
9.43916
30
6.12
0
VERTEX
10
7.55026
20
9.43117
30
6.12
0
VERTEX
10
7.52895
20
9.43117
30
6.12
0
VERTEX
10
7.48632
20
9.42051
30
6.12
0
VERTEX
10
7.46501
20
9.41785
30
6.12
0
VERTEX
10
7.45435
20
9.41785
30
6.12
0
VERTEX
10
7.4437
20
9.40985
30
6.12
0
VERTEX
10
7.4437
20
9.40453
30
6.12
0
VERTEX
10
7.43837
20
9.40453
30
6.12
0
VERTEX
10
7.39574
20
9.37788
30
6.12
0
VERTEX
10
7.37976
20
9.36456
30
6.12
0
VERTEX
10
7.3691
20
9.35923
30
6.12
0
VERTEX
10
7.36111
20
9.34858
30
6.12
0
VERTEX
10
7.35045
20
9.34325
30
6.12
0
VERTEX
10
7.34512
20
9.34325
30
6.12
0
VERTEX
10
7.31315
20
9.30329
30
6.12
0
VERTEX
10
7.30516
20
9.29263
30
6.12
0
VERTEX
10
7.30516
20
9.27132
30
6.12
0
VERTEX
10
7.30782
20
9.26865
30
6.12
0
VERTEX
10
7.29983
20
9.24734
30
6.12
0
VERTEX
10
7.29983
20
9.16209
30
6.12
0
SEQEND
0
POLYLINE
62
224
66
1
70
1
3
mitochondrion
0
VERTEX
10
9.13036
20
9.35021
30
6.12
0
VERTEX
10
9.13153
20
9.3408
30
6.12
0
VERTEX
10
9.13741
20
9.3314
30
6.12
0
VERTEX
10
9.14094
20
9.3267
30
6.12
0
VERTEX
10
9.14329
20
9.32434
30
6.12
0
VERTEX
10
9.14564
20
9.32434
30
6.12
0
VERTEX
10
9.14799
20
9.32199
30
6.12
0
VERTEX
10
9.15034
20
9.32199
30
6.12
0
VERTEX
10
9.15387
20
9.31847
30
6.12
0
VERTEX
10
9.15857
20
9.31847
30
6.12
0
VERTEX
10
9.16328
20
9.31494
30
6.12
0
VERTEX
10
9.18209
20
9.30906
30
6.12
0
VERTEX
10
9.2009
20
9.30553
30
6.12
0
VERTEX
10
9.21971
20
9.30671
30
6.12
0
VERTEX
10
9.22911
20
9.30906
30
6.12
0
VERTEX
10
9.23146
20
9.31376
30
6.12
0
VERTEX
10
9.23969
20
9.31611
30
6.12
0
VERTEX
10
9.2491
20
9.32199
30
6.12
0
VERTEX
10
9.25263
20
9.32552
30
6.12
0
VERTEX
10
9.26203
20
9.32905
30
6.12
0
VERTEX
10
9.27144
20
9.3361
30
6.12
0
VERTEX
10
9.28084
20
9.3408
30
6.12
0
VERTEX
10
9.28437
20
9.34198
30
6.12
0
VERTEX
10
9.30201
20
9.35491
30
6.12
0
VERTEX
10
9.30906
20
9.36197
30
6.12
0
VERTEX
10
9.31611
20
9.37137
30
6.12
0
VERTEX
10
9.31964
20
9.38078
30
6.12
0
VERTEX
10
9.32199
20
9.38548
30
6.12
0
VERTEX
10
9.32434
20
9.40429
30
6.12
0
VERTEX
10
9.32434
20
9.4231
30
6.12
0
VERTEX
10
9.32199
20
9.43251
30
6.12
0
VERTEX
10
9.31611
20
9.44191
30
6.12
0
VERTEX
10
9.30906
20
9.44897
30
6.12
0
VERTEX
10
9.30671
20
9.45132
30
6.12
0
VERTEX
10
9.30201
20
9.45249
30
6.12
0
VERTEX
10
9.28672
20
9.4713
30
6.12
0
VERTEX
10
9.28084
20
9.47718
30
6.12
0
VERTEX
10
9.27144
20
9.47836
30
6.12
0
VERTEX
10
9.26674
20
9.48071
30
6.12
0
VERTEX
10
9.25733
20
9.47953
30
6.12
0
VERTEX
10
9.25263
20
9.47601
30
6.12
0
VERTEX
10
9.23382
20
9.47483
30
6.12
0
VERTEX
10
9.22911
20
9.47483
30
6.12
0
VERTEX
10
9.22441
20
9.47248
30
6.12
0
VERTEX
10
9.21501
20
9.47248
30
6.12
0
VERTEX
10
9.19619
20
9.46543
30
6.12
0
VERTEX
10
9.19149
20
9.46425
30
6.12
0
VERTEX
10
9.18914
20
9.45955
30
6.12
0
VERTEX
10
9.18679
20
9.45955
30
6.12
0
VERTEX
10
9.17856
20
9.45132
30
6.12
0
VERTEX
10
9.16563
20
9.43486
30
6.12
0
VERTEX
10
9.15975
20
9.42545
30
6.12
0
VERTEX
10
9.15622
20
9.41605
30
6.12
0
VERTEX
10
9.15034
20
9.40782
30
6.12
0
VERTEX
10
9.14564
20
9.40429
30
6.12
0
VERTEX
10
9.14446
20
9.39959
30
6.12
0
VERTEX
10
9.13976
20
9.39488
30
6.12
0
VERTEX
10
9.13506
20
9.38666
30
6.12
0
VERTEX
10
9.13506
20
9.3843
30
6.12
0
VERTEX
10
9.13036
20
9.38078
30
6.12
0
VERTEX
10
9.13036
20
9.36197
30
6.12
0
VERTEX
10
9.13036
20
9.35256
30
6.12
0
VERTEX
10
9.13036
20
9.35138
30
6.12
0
SEQEND
0
POLYLINE
62
227
66
1
70
1
3
endoplasmic_reticulum
0
VERTEX
10
9.27208
20
9.49801
30
6.12
0
VERTEX
10
9.27477
20
9.49084
30
6.12
0
VERTEX
10
9.28911
20
9.49173
30
6.12
0
VERTEX
10
9.30346
20
9.49532
30
6.12
0
VERTEX
10
9.30973
20
9.49801
30
6.12
0
VERTEX
10
9.31332
20
9.49801
30
6.12
0
VERTEX
10
9.32677
20
9.50608
30
6.12
0
VERTEX
10
9.33305
20
9.52042
30
6.12
0
VERTEX
10
9.33484
20
9.52401
30
6.12
0
VERTEX
10
9.33663
20
9.52491
30
6.12
0
VERTEX
10
9.32946
20
9.53208
30
6.12
0
VERTEX
10
9.32587
20
9.53566
30
6.12
0
VERTEX
10
9.32229
20
9.53656
30
6.12
0
VERTEX
10
9.31511
20
9.53566
30
6.12
0
VERTEX
10
9.31153
20
9.53477
30
6.12
0
VERTEX
10
9.30615
20
9.5267
30
6.12
0
VERTEX
10
9.29898
20
9.52222
30
6.12
0
VERTEX
10
9.29539
20
9.52132
30
6.12
0
VERTEX
10
9.2918
20
9.51863
30
6.12
0
VERTEX
10
9.28822
20
9.51773
30
6.12
0
VERTEX
10
9.28732
20
9.51594
30
6.12
0
VERTEX
10
9.28105
20
9.51325
30
6.12
0
VERTEX
10
9.27387
20
9.50877
30
6.12
0
VERTEX
10
9.27208
20
9.50518
30
6.12
0
VERTEX
10
9.27208
20
9.49891
30
6.12
0
SEQEND
0
POLYLINE
62
236
66
1
70
1
3
postsynaptic_density
0
VERTEX
10
7.37742
20
9.1122
30
6.12
0
VERTEX
10
7.37911
20
9.09871
30
6.12
0
VERTEX
10
7.37911
20
9.09196
30
6.12
0
VERTEX
10
7.37911
20
9.08859
30
6.12
0
VERTEX
10
7.38248
20
9.08522
30
6.12
0
VERTEX
10
7.38248
20
9.07173
30
6.12
0
VERTEX
10
7.38754
20
9.04476
30
6.12
0
VERTEX
10
7.38754
20
9.03802
30
6.12
0
VERTEX
10
7.39259
20
9.03127
30
6.12
0
VERTEX
10
7.39428
20
9.01779
30
6.12
0
VERTEX
10
7.40608
20
9.00767
30
6.12
0
VERTEX
10
7.40608
20
9.0043
30
6.12
0
VERTEX
10
7.42968
20
8.9807
30
6.12
0
VERTEX
10
7.44317
20
8.97732
30
6.12
0
VERTEX
10
7.45666
20
8.9689
30
6.12
0
VERTEX
10
7.47015
20
8.96721
30
6.12
0
VERTEX
10
7.47689
20
8.96215
30
6.12
0
VERTEX
10
7.50386
20
8.96721
30
6.12
0
VERTEX
10
7.51735
20
8.97227
30
6.12
0
VERTEX
10
7.53927
20
8.99081
30
6.12
0
VERTEX
10
7.54601
20
8.9925
30
6.12
0
VERTEX
10
7.5595
20
9.00261
30
6.12
0
VERTEX
10
7.56624
20
9.00936
30
6.12
0
VERTEX
10
7.57298
20
9.01273
30
6.12
0
VERTEX
10
7.59321
20
9.0397
30
6.12
0
VERTEX
10
7.59659
20
9.04307
30
6.12
0
VERTEX
10
7.59827
20
9.05656
30
6.12
0
VERTEX
10
7.60333
20
9.0633
30
6.12
0
VERTEX
10
7.60502
20
9.07679
30
6.12
0
VERTEX
10
7.61345
20
9.08859
30
6.12
0
VERTEX
10
7.61513
20
9.10208
30
6.12
0
VERTEX
10
7.61513
20
9.10545
30
6.12
0
VERTEX
10
7.62525
20
9.11725
30
6.12
0
VERTEX
10
7.63873
20
9.14423
30
6.12
0
VERTEX
10
7.64548
20
9.14928
30
6.12
0
VERTEX
10
7.65053
20
9.15097
30
6.12
0
VERTEX
10
7.60502
20
9.20492
30
6.12
0
VERTEX
10
7.5831
20
9.23021
30
6.12
0
VERTEX
10
7.56961
20
9.23526
30
6.12
0
VERTEX
10
7.56455
20
9.24032
30
6.12
0
VERTEX
10
7.56287
20
9.24369
30
6.12
0
VERTEX
10
7.54938
20
9.24707
30
6.12
0
VERTEX
10
7.52241
20
9.24707
30
6.12
0
VERTEX
10
7.50892
20
9.24369
30
6.12
0
VERTEX
10
7.48195
20
9.24369
30
6.12
0
VERTEX
10
7.428
20
9.23695
30
6.12
0
VERTEX
10
7.42125
20
9.23358
30
6.12
0
VERTEX
10
7.41788
20
9.23021
30
6.12
0
VERTEX
10
7.41451
20
9.23021
30
6.12
0
VERTEX
10
7.40102
20
9.22178
30
6.12
0
VERTEX
10
7.38922
20
9.20998
30
6.12
0
VERTEX
10
7.38248
20
9.19818
30
6.12
0
VERTEX
10
7.37742
20
9.1712
30
6.12
0
VERTEX
10
7.37742
20
9.11725
30
6.12
0
VERTEX
10
7.37742
20
9.11388
30
6.12
0
SEQEND
0
POLYLINE
62
236
66
1
70
1
3
postsynaptic_density
0
VERTEX
10
7.65728
20
8.9689
30
6.12
0
VERTEX
10
7.65896
20
8.95541
30
6.12
0
VERTEX
10
7.66234
20
8.94866
30
6.12
0
VERTEX
10
7.66571
20
8.94698
30
6.12
0
VERTEX
10
7.66739
20
8.94024
30
6.12
0
VERTEX
10
7.69437
20
8.95878
30
6.12
0
VERTEX
10
7.69774
20
8.96047
30
6.12
0
VERTEX
10
7.70448
20
8.95709
30
6.12
0
VERTEX
10
7.71123
20
8.95709
30
6.12
0
VERTEX
10
7.72471
20
8.95204
30
6.12
0
VERTEX
10
7.73146
20
8.95204
30
6.12
0
VERTEX
10
7.7382
20
8.95709
30
6.12
0
VERTEX
10
7.74494
20
8.95878
30
6.12
0
VERTEX
10
7.74832
20
8.95878
30
6.12
0
VERTEX
10
7.75843
20
8.97227
30
6.12
0
VERTEX
10
7.7618
20
8.97227
30
6.12
0
VERTEX
10
7.76517
20
8.97564
30
6.12
0
VERTEX
10
7.76855
20
8.97564
30
6.12
0
VERTEX
10
7.77866
20
8.98913
30
6.12
0
VERTEX
10
7.78878
20
9.0161
30
6.12
0
VERTEX
10
7.78878
20
9.02284
30
6.12
0
VERTEX
10
7.78541
20
9.02959
30
6.12
0
VERTEX
10
7.78541
20
9.05656
30
6.12
0
VERTEX
10
7.78203
20
9.07005
30
6.12
0
VERTEX
10
7.77698
20
9.07679
30
6.12
0
VERTEX
10
7.77529
20
9.08354
30
6.12
0
VERTEX
10
7.77192
20
9.08691
30
6.12
0
VERTEX
10
7.76855
20
9.10039
30
6.12
0
VERTEX
10
7.75843
20
9.11051
30
6.12
0
VERTEX
10
7.75337
20
9.11725
30
6.12
0
VERTEX
10
7.75
20
9.12062
30
6.12
0
VERTEX
10
7.72303
20
9.12062
30
6.12
0
VERTEX
10
7.70954
20
9.11894
30
6.12
0
VERTEX
10
7.70617
20
9.11894
30
6.12
0
VERTEX
10
7.69437
20
9.10882
30
6.12
0
VERTEX
10
7.68762
20
9.10208
30
6.12
0
VERTEX
10
7.66402
20
9.04982
30
6.12
0
VERTEX
10
7.65728
20
9.02284
30
6.12
0
VERTEX
10
7.65728
20
8.97058
30
6.12
0
SEQEND
0
ENDSEC
0
EOF
