0
SECTION
2
ENTITIES
0
POLYLINE
62
31
66
1
70
1
3
contour
0
VERTEX
10
8.8185
20
8.83624
30
5.12
0
VERTEX
10
8.82515
20
8.8185
30
5.12
0
VERTEX
10
8.85841
20
8.79411
30
5.12
0
VERTEX
10
8.87615
20
8.78967
30
5.12
0
VERTEX
10
8.88502
20
8.78524
30
5.12
0
VERTEX
10
8.95597
20
8.78745
30
5.12
0
VERTEX
10
8.99145
20
8.78524
30
5.12
0
VERTEX
10
9.00919
20
8.78524
30
5.12
0
VERTEX
10
9.01806
20
8.78524
30
5.12
0
VERTEX
10
9.0225
20
8.78524
30
5.12
0
VERTEX
10
9.02693
20
8.78967
30
5.12
0
VERTEX
10
9.16884
20
8.78745
30
5.12
0
VERTEX
10
9.2398
20
8.78967
30
5.12
0
VERTEX
10
9.25754
20
8.78967
30
5.12
0
VERTEX
10
9.27528
20
8.79411
30
5.12
0
VERTEX
10
9.28415
20
8.80076
30
5.12
0
VERTEX
10
9.28415
20
8.80519
30
5.12
0
VERTEX
10
9.29967
20
8.82071
30
5.12
0
VERTEX
10
9.30188
20
8.85619
30
5.12
0
VERTEX
10
9.3041
20
8.87393
30
5.12
0
VERTEX
10
9.31075
20
8.88945
30
5.12
0
VERTEX
10
9.33293
20
8.92271
30
5.12
0
VERTEX
10
9.33958
20
8.94045
30
5.12
0
VERTEX
10
9.3418
20
8.94932
30
5.12
0
VERTEX
10
9.34845
20
8.95819
30
5.12
0
VERTEX
10
9.35067
20
8.97593
30
5.12
0
VERTEX
10
9.3551
20
8.98037
30
5.12
0
VERTEX
10
9.3551
20
9.01584
30
5.12
0
VERTEX
10
9.3551
20
9.02471
30
5.12
0
VERTEX
10
9.35067
20
9.03358
30
5.12
0
VERTEX
10
9.35067
20
9.03802
30
5.12
0
VERTEX
10
9.33515
20
9.05354
30
5.12
0
VERTEX
10
9.32628
20
9.05576
30
5.12
0
VERTEX
10
9.31075
20
9.06906
30
5.12
0
VERTEX
10
9.27528
20
9.08902
30
5.12
0
VERTEX
10
9.20432
20
9.10897
30
5.12
0
VERTEX
10
9.18658
20
9.11563
30
5.12
0
VERTEX
10
9.16884
20
9.11784
30
5.12
0
VERTEX
10
9.13336
20
9.11341
30
5.12
0
VERTEX
10
9.11563
20
9.11119
30
5.12
0
VERTEX
10
9.10676
20
9.10676
30
5.12
0
VERTEX
10
9.10232
20
9.10232
30
5.12
0
VERTEX
10
9.09789
20
9.10232
30
5.12
0
VERTEX
10
9.09345
20
9.09789
30
5.12
0
VERTEX
10
9.08458
20
9.09567
30
5.12
0
VERTEX
10
9.07793
20
9.08902
30
5.12
0
VERTEX
10
9.06906
20
9.0868
30
5.12
0
VERTEX
10
9.03358
20
9.06241
30
5.12
0
VERTEX
10
9.02471
20
9.05354
30
5.12
0
VERTEX
10
9.00697
20
9.04689
30
5.12
0
VERTEX
10
8.99367
20
9.02915
30
5.12
0
VERTEX
10
8.98924
20
9.02915
30
5.12
0
VERTEX
10
8.98258
20
9.0225
30
5.12
0
VERTEX
10
8.97371
20
9.02028
30
5.12
0
VERTEX
10
8.96928
20
9.02028
30
5.12
0
VERTEX
10
8.95376
20
9.00919
30
5.12
0
VERTEX
10
8.94489
20
9.00254
30
5.12
0
VERTEX
10
8.93602
20
9.00032
30
5.12
0
VERTEX
10
8.91828
20
8.98924
30
5.12
0
VERTEX
10
8.90054
20
8.9848
30
5.12
0
VERTEX
10
8.8828
20
8.97371
30
5.12
0
VERTEX
10
8.87393
20
8.96706
30
5.12
0
VERTEX
10
8.84954
20
8.9338
30
5.12
0
VERTEX
10
8.84732
20
8.92493
30
5.12
0
VERTEX
10
8.84067
20
8.91828
30
5.12
0
VERTEX
10
8.84067
20
8.91384
30
5.12
0
VERTEX
10
8.83624
20
8.90941
30
5.12
0
VERTEX
10
8.83624
20
8.90497
30
5.12
0
VERTEX
10
8.82958
20
8.89832
30
5.12
0
VERTEX
10
8.8185
20
8.86284
30
5.12
0
VERTEX
10
8.8185
20
8.84511
30
5.12
0
VERTEX
10
8.8185
20
8.83845
30
5.12
0
SEQEND
0
POLYLINE
62
31
66
1
70
1
3
contour
0
VERTEX
10
8.87965
20
9.32725
30
5.12
0
VERTEX
10
8.89281
20
9.31409
30
5.12
0
VERTEX
10
8.89611
20
9.30751
30
5.12
0
VERTEX
10
8.94877
20
9.3108
30
5.12
0
VERTEX
10
8.96193
20
9.3108
30
5.12
0
VERTEX
10
8.98826
20
9.32725
30
5.12
0
VERTEX
10
9.00142
20
9.33713
30
5.12
0
VERTEX
10
9.01459
20
9.34042
30
5.12
0
VERTEX
10
9.02446
20
9.35029
30
5.12
0
VERTEX
10
9.02775
20
9.37662
30
5.12
0
VERTEX
10
9.01788
20
9.39966
30
5.12
0
VERTEX
10
9.00801
20
9.40953
30
5.12
0
VERTEX
10
8.98168
20
9.41612
30
5.12
0
VERTEX
10
8.96851
20
9.4227
30
5.12
0
VERTEX
10
8.94218
20
9.4227
30
5.12
0
VERTEX
10
8.92902
20
9.4227
30
5.12
0
VERTEX
10
8.91914
20
9.43257
30
5.12
0
VERTEX
10
8.90927
20
9.4227
30
5.12
0
VERTEX
10
8.90269
20
9.4227
30
5.12
0
VERTEX
10
8.88623
20
9.39637
30
5.12
0
VERTEX
10
8.87965
20
9.3832
30
5.12
0
VERTEX
10
8.87965
20
9.33054
30
5.12
0
SEQEND
0
POLYLINE
62
31
66
1
70
1
3
contour
0
VERTEX
10
9.95522
20
8.74137
30
5.12
0
VERTEX
10
9.97423
20
8.70064
30
5.12
0
VERTEX
10
9.97695
20
8.68978
30
5.12
0
VERTEX
10
9.9851
20
8.67891
30
5.12
0
VERTEX
10
10.0068
20
8.67077
30
5.12
0
VERTEX
10
10.015
20
8.6599
30
5.12
0
VERTEX
10
10.0258
20
8.65719
30
5.12
0
VERTEX
10
10.034
20
8.64904
30
5.12
0
VERTEX
10
10.0448
20
8.64633
30
5.12
0
VERTEX
10
10.0503
20
8.64633
30
5.12
0
VERTEX
10
10.0611
20
8.63818
30
5.12
0
VERTEX
10
10.072
20
8.63546
30
5.12
0
VERTEX
10
10.0774
20
8.63546
30
5.12
0
VERTEX
10
10.0991
20
8.62189
30
5.12
0
VERTEX
10
10.1209
20
8.61917
30
5.12
0
VERTEX
10
10.1426
20
8.61102
30
5.12
0
VERTEX
10
10.1535
20
8.60559
30
5.12
0
VERTEX
10
10.1752
20
8.60288
30
5.12
0
VERTEX
10
10.1806
20
8.59745
30
5.12
0
VERTEX
10
10.2241
20
8.58387
30
5.12
0
VERTEX
10
10.2349
20
8.58115
30
5.12
0
VERTEX
10
10.2404
20
8.57572
30
5.12
0
VERTEX
10
10.2838
20
8.56758
30
5.12
0
VERTEX
10
10.3055
20
8.55671
30
5.12
0
VERTEX
10
10.3164
20
8.55671
30
5.12
0
VERTEX
10
10.3381
20
8.54857
30
5.12
0
VERTEX
10
10.3816
20
8.54857
30
5.12
0
VERTEX
10
10.3924
20
8.554
30
5.12
0
VERTEX
10
10.3979
20
8.554
30
5.12
0
VERTEX
10
10.406
20
8.56486
30
5.12
0
VERTEX
10
10.406
20
8.58658
30
5.12
0
VERTEX
10
10.3979
20
8.63003
30
5.12
0
VERTEX
10
10.3816
20
8.67348
30
5.12
0
VERTEX
10
10.3789
20
8.69521
30
5.12
0
VERTEX
10
10.3598
20
8.73866
30
5.12
0
VERTEX
10
10.3327
20
8.77667
30
5.12
0
VERTEX
10
10.3164
20
8.79297
30
5.12
0
VERTEX
10
10.3082
20
8.80111
30
5.12
0
VERTEX
10
10.2974
20
8.80111
30
5.12
0
VERTEX
10
10.2892
20
8.79568
30
5.12
0
VERTEX
10
10.2675
20
8.81469
30
5.12
0
VERTEX
10
10.2567
20
8.82284
30
5.12
0
VERTEX
10
10.2349
20
8.82827
30
5.12
0
VERTEX
10
10.2132
20
8.84185
30
5.12
0
VERTEX
10
10.1942
20
8.84999
30
5.12
0
VERTEX
10
10.1725
20
8.86357
30
5.12
0
VERTEX
10
10.129
20
8.87172
30
5.12
0
VERTEX
10
10.1073
20
8.87986
30
5.12
0
VERTEX
10
10.0964
20
8.8853
30
5.12
0
VERTEX
10
10.053
20
8.87986
30
5.12
0
VERTEX
10
10.0123
20
8.86086
30
5.12
0
VERTEX
10
10.0014
20
8.86086
30
5.12
0
VERTEX
10
9.98238
20
8.84999
30
5.12
0
VERTEX
10
9.97152
20
8.84728
30
5.12
0
VERTEX
10
9.96337
20
8.83913
30
5.12
0
VERTEX
10
9.96066
20
8.82827
30
5.12
0
VERTEX
10
9.96066
20
8.82284
30
5.12
0
VERTEX
10
9.95522
20
8.81741
30
5.12
0
VERTEX
10
9.95522
20
8.77396
30
5.12
0
VERTEX
10
9.95522
20
8.75223
30
5.12
0
VERTEX
10
9.95522
20
8.74409
30
5.12
0
SEQEND
0
POLYLINE
62
224
66
1
70
1
3
mitochondrion
0
VERTEX
10
9.08924
20
8.93768
30
5.12
0
VERTEX
10
9.09202
20
8.92656
30
5.12
0
VERTEX
10
9.09202
20
8.921
30
5.12
0
VERTEX
10
9.09758
20
8.90987
30
5.12
0
VERTEX
10
9.10036
20
8.90431
30
5.12
0
VERTEX
10
9.11149
20
8.89597
30
5.12
0
VERTEX
10
9.11427
20
8.89041
30
5.12
0
VERTEX
10
9.11427
20
8.88763
30
5.12
0
VERTEX
10
9.11705
20
8.88485
30
5.12
0
VERTEX
10
9.11705
20
8.88207
30
5.12
0
VERTEX
10
9.1393
20
8.87233
30
5.12
0
VERTEX
10
9.16154
20
8.87372
30
5.12
0
VERTEX
10
9.1671
20
8.87789
30
5.12
0
VERTEX
10
9.1671
20
8.88068
30
5.12
0
VERTEX
10
9.17823
20
8.88207
30
5.12
0
VERTEX
10
9.18379
20
8.88207
30
5.12
0
VERTEX
10
9.18935
20
8.88624
30
5.12
0
VERTEX
10
9.18935
20
8.88902
30
5.12
0
VERTEX
10
9.21021
20
8.90431
30
5.12
0
VERTEX
10
9.21577
20
8.90709
30
5.12
0
VERTEX
10
9.22133
20
8.91266
30
5.12
0
VERTEX
10
9.22411
20
8.91266
30
5.12
0
VERTEX
10
9.23524
20
8.921
30
5.12
0
VERTEX
10
9.23941
20
8.92656
30
5.12
0
VERTEX
10
9.23802
20
8.92795
30
5.12
0
VERTEX
10
9.25053
20
8.9502
30
5.12
0
VERTEX
10
9.2547
20
8.96132
30
5.12
0
VERTEX
10
9.2547
20
8.98357
30
5.12
0
VERTEX
10
9.25331
20
8.99469
30
5.12
0
VERTEX
10
9.24914
20
9.00581
30
5.12
0
VERTEX
10
9.24219
20
9.01555
30
5.12
0
VERTEX
10
9.23663
20
9.02111
30
5.12
0
VERTEX
10
9.23106
20
9.02389
30
5.12
0
VERTEX
10
9.22828
20
9.02667
30
5.12
0
VERTEX
10
9.22272
20
9.02806
30
5.12
0
VERTEX
10
9.22133
20
9.03084
30
5.12
0
VERTEX
10
9.21021
20
9.03501
30
5.12
0
VERTEX
10
9.18796
20
9.0364
30
5.12
0
VERTEX
10
9.14347
20
9.02667
30
5.12
0
VERTEX
10
9.13791
20
9.02389
30
5.12
0
VERTEX
10
9.13651
20
9.02111
30
5.12
0
VERTEX
10
9.12539
20
9.01972
30
5.12
0
VERTEX
10
9.10454
20
9.00164
30
5.12
0
VERTEX
10
9.09619
20
8.99191
30
5.12
0
VERTEX
10
9.09341
20
8.98913
30
5.12
0
VERTEX
10
9.08924
20
8.97801
30
5.12
0
VERTEX
10
9.08924
20
8.95576
30
5.12
0
VERTEX
10
9.08924
20
8.94464
30
5.12
0
VERTEX
10
9.08924
20
8.93907
30
5.12
0
SEQEND
0
POLYLINE
62
236
66
1
70
1
3
postsynaptic_density
0
VERTEX
10
10.1038
20
8.78621
30
5.12
0
VERTEX
10
10.2232
20
8.71903
30
5.12
0
VERTEX
10
10.2829
20
8.68544
30
5.12
0
VERTEX
10
10.2904
20
8.6817
30
5.12
0
VERTEX
10
10.296
20
8.67424
30
5.12
0
VERTEX
10
10.3259
20
8.67424
30
5.12
0
VERTEX
10
10.3296
20
8.67424
30
5.12
0
VERTEX
10
10.3426
20
8.6873
30
5.12
0
VERTEX
10
10.352
20
8.6985
30
5.12
0
VERTEX
10
10.352
20
8.70223
30
5.12
0
VERTEX
10
10.3557
20
8.70596
30
5.12
0
VERTEX
10
10.3557
20
8.73582
30
5.12
0
VERTEX
10
10.3538
20
8.75075
30
5.12
0
VERTEX
10
10.3482
20
8.76568
30
5.12
0
VERTEX
10
10.3482
20
8.78061
30
5.12
0
VERTEX
10
10.3445
20
8.79554
30
5.12
0
VERTEX
10
10.3352
20
8.80861
30
5.12
0
VERTEX
10
10.3315
20
8.81607
30
5.12
0
VERTEX
10
10.3165
20
8.82914
30
5.12
0
VERTEX
10
10.3053
20
8.8422
30
5.12
0
VERTEX
10
10.2979
20
8.84593
30
5.12
0
VERTEX
10
10.2941
20
8.84593
30
5.12
0
VERTEX
10
10.2811
20
8.85713
30
5.12
0
VERTEX
10
10.2661
20
8.86459
30
5.12
0
VERTEX
10
10.2512
20
8.86833
30
5.12
0
VERTEX
10
10.2363
20
8.87579
30
5.12
0
VERTEX
10
10.2064
20
8.87766
30
5.12
0
VERTEX
10
10.1766
20
8.87579
30
5.12
0
VERTEX
10
10.1616
20
8.87206
30
5.12
0
VERTEX
10
10.1318
20
8.8478
30
5.12
0
VERTEX
10
10.128
20
8.83287
30
5.12
0
VERTEX
10
10.1187
20
8.81794
30
5.12
0
VERTEX
10
10.1131
20
8.80301
30
5.12
0
VERTEX
10
10.1038
20
8.78995
30
5.12
0
VERTEX
10
10.1038
20
8.78808
30
5.12
0
SEQEND
0
POLYLINE
62
227
66
1
70
1
3
endoplasmic_reticulum
0
VERTEX
10
9.28638
20
8.99695
30
5.12
0
VERTEX
10
9.29536
20
8.99359
30
5.12
0
VERTEX
10
9.30433
20
8.99247
30
5.12
0
VERTEX
10
9.31331
20
8.99359
30
5.12
0
VERTEX
10
9.31779
20
8.99471
30
5.12
0
VERTEX
10
9.32004
20
8.99471
30
5.12
0
VERTEX
10
9.32116
20
9.01266
30
5.12
0
VERTEX
10
9.32004
20
9.02163
30
5.12
0
VERTEX
10
9.31891
20
9.02612
30
5.12
0
VERTEX
10
9.31555
20
9.03061
30
5.12
0
VERTEX
10
9.30657
20
9.03173
30
5.12
0
VERTEX
10
9.2976
20
9.03061
30
5.12
0
VERTEX
10
9.29087
20
9.02163
30
5.12
0
VERTEX
10
9.2875
20
9.01715
30
5.12
0
VERTEX
10
9.28638
20
8.9992
30
5.12
0
VERTEX
10
9.28638
20
8.99808
30
5.12
0
SEQEND
0
POLYLINE
62
227
66
1
70
1
3
endoplasmic_reticulum
0
VERTEX
10
9.01715
20
8.87804
30
5.12
0
VERTEX
10
9.02276
20
8.86907
30
5.12
0
VERTEX
10
9.0407
20
8.85673
30
5.12
0
VERTEX
10
9.04519
20
8.85336
30
5.12
0
VERTEX
10
9.06314
20
8.85448
30
5.12
0
VERTEX
10
9.06763
20
8.85448
30
5.12
0
VERTEX
10
9.07099
20
8.85897
30
5.12
0
VERTEX
10
9.07211
20
8.87692
30
5.12
0
VERTEX
10
9.07099
20
8.88589
30
5.12
0
VERTEX
10
9.06538
20
8.89487
30
5.12
0
VERTEX
10
9.06314
20
8.89936
30
5.12
0
VERTEX
10
9.0609
20
8.89936
30
5.12
0
VERTEX
10
9.05417
20
8.90721
30
5.12
0
VERTEX
10
9.04519
20
8.90384
30
5.12
0
VERTEX
10
9.0407
20
8.90048
30
5.12
0
VERTEX
10
9.03846
20
8.90048
30
5.12
0
VERTEX
10
9.03397
20
8.89711
30
5.12
0
VERTEX
10
9.02949
20
8.89599
30
5.12
0
VERTEX
10
9.02724
20
8.89599
30
5.12
0
VERTEX
10
9.025
20
8.89375
30
5.12
0
VERTEX
10
9.02276
20
8.89375
30
5.12
0
VERTEX
10
9.01827
20
8.89038
30
5.12
0
VERTEX
10
9.01715
20
8.88141
30
5.12
0
VERTEX
10
9.01715
20
8.87916
30
5.12
0
SEQEND
0
POLYLINE
62
227
66
1
70
1
3
endoplasmic_reticulum
0
VERTEX
10
9.01656
20
8.99594
30
5.12
0
VERTEX
10
9.01925
20
8.9816
30
5.12
0
VERTEX
10
9.02105
20
8.97801
30
5.12
0
VERTEX
10
9.02463
20
8.97532
30
5.12
0
VERTEX
10
9.02643
20
8.97353
30
5.12
0
VERTEX
10
9.0336
20
8.97532
30
5.12
0
VERTEX
10
9.03718
20
8.97622
30
5.12
0
VERTEX
10
9.03898
20
8.97801
30
5.12
0
VERTEX
10
9.05243
20
8.98339
30
5.12
0
VERTEX
10
9.05601
20
8.98608
30
5.12
0
VERTEX
10
9.0596
20
8.98698
30
5.12
0
VERTEX
10
9.06677
20
8.99236
30
5.12
0
VERTEX
10
9.06677
20
8.99415
30
5.12
0
VERTEX
10
9.06498
20
8.99594
30
5.12
0
VERTEX
10
9.07036
20
9.00132
30
5.12
0
VERTEX
10
9.07215
20
9.00312
30
5.12
0
VERTEX
10
9.07125
20
9.0067
30
5.12
0
VERTEX
10
9.07125
20
9.0085
30
5.12
0
VERTEX
10
9.07484
20
9.01029
30
5.12
0
VERTEX
10
9.07663
20
9.01387
30
5.12
0
VERTEX
10
9.07753
20
9.01298
30
5.12
0
VERTEX
10
9.08112
20
9.01567
30
5.12
0
VERTEX
10
9.08291
20
9.01746
30
5.12
0
VERTEX
10
9.0856
20
9.02374
30
5.12
0
VERTEX
10
9.09905
20
9.03091
30
5.12
0
VERTEX
10
9.10622
20
9.0336
30
5.12
0
VERTEX
10
9.10801
20
9.03539
30
5.12
0
VERTEX
10
9.11429
20
9.03718
30
5.12
0
VERTEX
10
9.12056
20
9.04346
30
5.12
0
VERTEX
10
9.13401
20
9.04615
30
5.12
0
VERTEX
10
9.1376
20
9.04615
30
5.12
0
VERTEX
10
9.13939
20
9.04794
30
5.12
0
VERTEX
10
9.14118
20
9.04794
30
5.12
0
VERTEX
10
9.14746
20
9.05332
30
5.12
0
VERTEX
10
9.14925
20
9.05422
30
5.12
0
VERTEX
10
9.14925
20
9.06856
30
5.12
0
VERTEX
10
9.14925
20
9.07574
30
5.12
0
VERTEX
10
9.14925
20
9.07932
30
5.12
0
VERTEX
10
9.15194
20
9.08649
30
5.12
0
VERTEX
10
9.15105
20
9.09008
30
5.12
0
VERTEX
10
9.14746
20
9.09008
30
5.12
0
VERTEX
10
9.14387
20
9.08739
30
5.12
0
VERTEX
10
9.12953
20
9.08291
30
5.12
0
VERTEX
10
9.12594
20
9.08201
30
5.12
0
VERTEX
10
9.12415
20
9.08022
30
5.12
0
VERTEX
10
9.12056
20
9.08022
30
5.12
0
VERTEX
10
9.10712
20
9.07036
30
5.12
0
VERTEX
10
9.09994
20
9.06677
30
5.12
0
VERTEX
10
9.09636
20
9.06767
30
5.12
0
VERTEX
10
9.08201
20
9.06139
30
5.12
0
VERTEX
10
9.07484
20
9.06049
30
5.12
0
VERTEX
10
9.06767
20
9.05601
30
5.12
0
VERTEX
10
9.06587
20
9.05422
30
5.12
0
VERTEX
10
9.06408
20
9.05422
30
5.12
0
VERTEX
10
9.05691
20
9.04974
30
5.12
0
VERTEX
10
9.05512
20
9.04705
30
5.12
0
VERTEX
10
9.05153
20
9.04615
30
5.12
0
VERTEX
10
9.04794
20
9.04256
30
5.12
0
VERTEX
10
9.04615
20
9.03987
30
5.12
0
VERTEX
10
9.04615
20
9.03808
30
5.12
0
VERTEX
10
9.04436
20
9.03718
30
5.12
0
VERTEX
10
9.04436
20
9.03539
30
5.12
0
VERTEX
10
9.03718
20
9.02912
30
5.12
0
VERTEX
10
9.03091
20
9.02463
30
5.12
0
VERTEX
10
9.02732
20
9.02284
30
5.12
0
VERTEX
10
9.02374
20
9.01925
30
5.12
0
VERTEX
10
9.02015
20
9.01836
30
5.12
0
VERTEX
10
9.01836
20
9.01746
30
5.12
0
VERTEX
10
9.01836
20
9.01387
30
5.12
0
VERTEX
10
9.01656
20
9.01029
30
5.12
0
VERTEX
10
9.01656
20
8.99684
30
5.12
0
SEQEND
0
ENDSEC
0
EOF
