0
SECTION
2
ENTITIES
0
POLYLINE
62
31
66
1
70
1
3
contour
0
VERTEX
10
6.7334
20
10.9898
30
10.56
0
VERTEX
10
6.75579
20
10.9301
30
10.56
0
VERTEX
10
6.77071
20
10.9003
30
10.56
0
VERTEX
10
6.81174
20
10.8443
30
10.56
0
VERTEX
10
6.82666
20
10.8331
30
10.56
0
VERTEX
10
6.83412
20
10.8294
30
10.56
0
VERTEX
10
6.83412
20
10.8219
30
10.56
0
VERTEX
10
6.86397
20
10.8033
30
10.56
0
VERTEX
10
6.88262
20
10.7734
30
10.56
0
VERTEX
10
6.89381
20
10.7585
30
10.56
0
VERTEX
10
6.90127
20
10.7585
30
10.56
0
VERTEX
10
6.91246
20
10.7473
30
10.56
0
VERTEX
10
6.94231
20
10.7361
30
10.56
0
VERTEX
10
6.97215
20
10.7175
30
10.56
0
VERTEX
10
7.00199
20
10.7063
30
10.56
0
VERTEX
10
7.02811
20
10.6876
30
10.56
0
VERTEX
10
7.08779
20
10.6802
30
10.56
0
VERTEX
10
7.20717
20
10.6839
30
10.56
0
VERTEX
10
7.26685
20
10.6839
30
10.56
0
VERTEX
10
7.28177
20
10.6876
30
10.56
0
VERTEX
10
7.28924
20
10.6876
30
10.56
0
VERTEX
10
7.2967
20
10.6951
30
10.56
0
VERTEX
10
7.32654
20
10.7026
30
10.56
0
VERTEX
10
7.34146
20
10.7063
30
10.56
0
VERTEX
10
7.3713
20
10.7287
30
10.56
0
VERTEX
10
7.38623
20
10.7324
30
10.56
0
VERTEX
10
7.44218
20
10.766
30
10.56
0
VERTEX
10
7.45337
20
10.7809
30
10.56
0
VERTEX
10
7.46083
20
10.7809
30
10.56
0
VERTEX
10
7.4683
20
10.7921
30
10.56
0
VERTEX
10
7.48322
20
10.7958
30
10.56
0
VERTEX
10
7.49068
20
10.7958
30
10.56
0
VERTEX
10
7.50187
20
10.8107
30
10.56
0
VERTEX
10
7.50933
20
10.8107
30
10.56
0
VERTEX
10
7.52425
20
10.8219
30
10.56
0
VERTEX
10
7.53917
20
10.8257
30
10.56
0
VERTEX
10
7.5541
20
10.8369
30
10.56
0
VERTEX
10
7.56902
20
10.8406
30
10.56
0
VERTEX
10
7.57648
20
10.8406
30
10.56
0
VERTEX
10
7.59513
20
10.8704
30
10.56
0
VERTEX
10
7.59886
20
10.9003
30
10.56
0
VERTEX
10
7.59886
20
10.9152
30
10.56
0
VERTEX
10
7.58394
20
10.945
30
10.56
0
VERTEX
10
7.57648
20
10.96
30
10.56
0
VERTEX
10
7.56156
20
10.9712
30
10.56
0
VERTEX
10
7.5541
20
10.9786
30
10.56
0
VERTEX
10
7.43472
20
10.9749
30
10.56
0
VERTEX
10
7.37504
20
10.9637
30
10.56
0
VERTEX
10
7.34519
20
10.9637
30
10.56
0
VERTEX
10
7.33773
20
10.9562
30
10.56
0
VERTEX
10
7.30789
20
10.9488
30
10.56
0
VERTEX
10
7.18851
20
10.945
30
10.56
0
VERTEX
10
7.15867
20
10.945
30
10.56
0
VERTEX
10
7.12883
20
10.9562
30
10.56
0
VERTEX
10
7.11391
20
10.9562
30
10.56
0
VERTEX
10
7.08406
20
10.9674
30
10.56
0
VERTEX
10
7.02438
20
11.0047
30
10.56
0
VERTEX
10
6.99826
20
11.0234
30
10.56
0
VERTEX
10
6.93858
20
11.0271
30
10.56
0
VERTEX
10
6.8192
20
11.0234
30
10.56
0
VERTEX
10
6.75952
20
11.0271
30
10.56
0
VERTEX
10
6.74459
20
11.0271
30
10.56
0
VERTEX
10
6.7334
20
11.0159
30
10.56
0
VERTEX
10
6.7334
20
11.001
30
10.56
0
VERTEX
10
6.7334
20
10.9935
30
10.56
0
SEQEND
0
POLYLINE
62
31
66
1
70
1
3
contour
0
VERTEX
10
7.75554
20
10.9227
30
10.56
0
VERTEX
10
7.77046
20
10.9152
30
10.56
0
VERTEX
10
7.88983
20
10.9227
30
10.56
0
VERTEX
10
7.91968
20
10.9264
30
10.56
0
VERTEX
10
7.9346
20
10.9376
30
10.56
0
VERTEX
10
7.94952
20
10.9376
30
10.56
0
VERTEX
10
7.96444
20
10.945
30
10.56
0
VERTEX
10
7.99428
20
10.9488
30
10.56
0
VERTEX
10
8.02413
20
10.96
30
10.56
0
VERTEX
10
8.03159
20
10.96
30
10.56
0
VERTEX
10
8.03905
20
10.9674
30
10.56
0
VERTEX
10
8.05397
20
10.9712
30
10.56
0
VERTEX
10
8.06143
20
10.9712
30
10.56
0
VERTEX
10
8.09128
20
10.9898
30
10.56
0
VERTEX
10
8.1062
20
11.0047
30
10.56
0
VERTEX
10
8.11366
20
11.0047
30
10.56
0
VERTEX
10
8.12485
20
11.0197
30
10.56
0
VERTEX
10
8.12485
20
11.0346
30
10.56
0
VERTEX
10
8.09501
20
11.0383
30
10.56
0
VERTEX
10
7.85626
20
11.0271
30
10.56
0
VERTEX
10
7.82642
20
11.0271
30
10.56
0
VERTEX
10
7.81149
20
11.0234
30
10.56
0
VERTEX
10
7.78911
20
10.9973
30
10.56
0
VERTEX
10
7.78538
20
10.9823
30
10.56
0
VERTEX
10
7.76673
20
10.9525
30
10.56
0
VERTEX
10
7.75554
20
10.9264
30
10.56
0
SEQEND
0
POLYLINE
62
227
66
1
70
1
3
endoplasmic_reticulum
0
VERTEX
10
7.15623
20
10.8518
30
10.56
0
VERTEX
10
7.15892
20
10.8446
30
10.56
0
VERTEX
10
7.1634
20
10.8383
30
10.56
0
VERTEX
10
7.17775
20
10.8357
30
10.56
0
VERTEX
10
7.18133
20
10.8374
30
10.56
0
VERTEX
10
7.18851
20
10.8383
30
10.56
0
VERTEX
10
7.19568
20
10.841
30
10.56
0
VERTEX
10
7.20285
20
10.8455
30
10.56
0
VERTEX
10
7.2172
20
10.8518
30
10.56
0
VERTEX
10
7.23064
20
10.8617
30
10.56
0
VERTEX
10
7.23244
20
10.8688
30
10.56
0
VERTEX
10
7.23244
20
10.876
30
10.56
0
VERTEX
10
7.23064
20
10.8832
30
10.56
0
VERTEX
10
7.21899
20
10.8948
30
10.56
0
VERTEX
10
7.2163
20
10.8984
30
10.56
0
VERTEX
10
7.20913
20
10.8993
30
10.56
0
VERTEX
10
7.20195
20
10.8984
30
10.56
0
VERTEX
10
7.19478
20
10.8957
30
10.56
0
VERTEX
10
7.18044
20
10.8957
30
10.56
0
VERTEX
10
7.17327
20
10.8939
30
10.56
0
VERTEX
10
7.16968
20
10.893
30
10.56
0
VERTEX
10
7.16789
20
10.893
30
10.56
0
VERTEX
10
7.16161
20
10.8877
30
10.56
0
VERTEX
10
7.15802
20
10.8805
30
10.56
0
VERTEX
10
7.15623
20
10.8778
30
10.56
0
VERTEX
10
7.15623
20
10.8634
30
10.56
0
VERTEX
10
7.15623
20
10.8563
30
10.56
0
VERTEX
10
7.15623
20
10.8527
30
10.56
0
SEQEND
0
POLYLINE
62
227
66
1
70
1
3
endoplasmic_reticulum
0
VERTEX
10
6.97423
20
10.8357
30
10.56
0
VERTEX
10
6.97513
20
10.8321
30
10.56
0
VERTEX
10
6.97961
20
10.8249
30
10.56
0
VERTEX
10
6.9832
20
10.8106
30
10.56
0
VERTEX
10
6.9823
20
10.7962
30
10.56
0
VERTEX
10
6.97961
20
10.789
30
10.56
0
VERTEX
10
6.97871
20
10.7819
30
10.56
0
VERTEX
10
6.9814
20
10.7675
30
10.56
0
VERTEX
10
6.98409
20
10.7603
30
10.56
0
VERTEX
10
6.98768
20
10.7586
30
10.56
0
VERTEX
10
6.99127
20
10.7586
30
10.56
0
VERTEX
10
7.00561
20
10.7639
30
10.56
0
VERTEX
10
7.0092
20
10.7657
30
10.56
0
VERTEX
10
7.01099
20
10.7675
30
10.56
0
VERTEX
10
7.01458
20
10.7675
30
10.56
0
VERTEX
10
7.02802
20
10.7792
30
10.56
0
VERTEX
10
7.0343
20
10.7846
30
10.56
0
VERTEX
10
7.0343
20
10.7863
30
10.56
0
VERTEX
10
7.03789
20
10.7899
30
10.56
0
VERTEX
10
7.03968
20
10.7971
30
10.56
0
VERTEX
10
7.04327
20
10.8043
30
10.56
0
VERTEX
10
7.04954
20
10.8114
30
10.56
0
VERTEX
10
7.05402
20
10.8186
30
10.56
0
VERTEX
10
7.05671
20
10.8213
30
10.56
0
VERTEX
10
7.05671
20
10.8231
30
10.56
0
VERTEX
10
7.0594
20
10.8258
30
10.56
0
VERTEX
10
7.0603
20
10.833
30
10.56
0
VERTEX
10
7.0594
20
10.8401
30
10.56
0
VERTEX
10
7.05402
20
10.8464
30
10.56
0
VERTEX
10
7.05044
20
10.8491
30
10.56
0
VERTEX
10
7.04685
20
10.85
30
10.56
0
VERTEX
10
7.04327
20
10.8527
30
10.56
0
VERTEX
10
7.04147
20
10.8545
30
10.56
0
VERTEX
10
7.03789
20
10.8545
30
10.56
0
VERTEX
10
7.03071
20
10.8572
30
10.56
0
VERTEX
10
7.01637
20
10.8572
30
10.56
0
VERTEX
10
7.0092
20
10.8572
30
10.56
0
VERTEX
10
7.00561
20
10.8572
30
10.56
0
VERTEX
10
7.00382
20
10.8572
30
10.56
0
VERTEX
10
7.00203
20
10.8554
30
10.56
0
VERTEX
10
6.98858
20
10.8509
30
10.56
0
VERTEX
10
6.98051
20
10.8464
30
10.56
0
VERTEX
10
6.97871
20
10.8491
30
10.56
0
VERTEX
10
6.97513
20
10.8464
30
10.56
0
VERTEX
10
6.97423
20
10.8392
30
10.56
0
VERTEX
10
6.97423
20
10.8366
30
10.56
0
SEQEND
0
POLYLINE
62
227
66
1
70
1
3
endoplasmic_reticulum
0
VERTEX
10
7.26651
20
10.8428
30
10.56
0
VERTEX
10
7.2692
20
10.8401
30
10.56
0
VERTEX
10
7.2692
20
10.8383
30
10.56
0
VERTEX
10
7.28175
20
10.8258
30
10.56
0
VERTEX
10
7.28892
20
10.8204
30
10.56
0
VERTEX
10
7.31761
20
10.8213
30
10.56
0
VERTEX
10
7.33195
20
10.824
30
10.56
0
VERTEX
10
7.33823
20
10.8267
30
10.56
0
VERTEX
10
7.34451
20
10.833
30
10.56
0
VERTEX
10
7.3463
20
10.833
30
10.56
0
VERTEX
10
7.3472
20
10.8348
30
10.56
0
VERTEX
10
7.34899
20
10.8348
30
10.56
0
VERTEX
10
7.35526
20
10.8419
30
10.56
0
VERTEX
10
7.35706
20
10.8491
30
10.56
0
VERTEX
10
7.35706
20
10.8527
30
10.56
0
VERTEX
10
7.35706
20
10.8545
30
10.56
0
VERTEX
10
7.35526
20
10.8563
30
10.56
0
VERTEX
10
7.35437
20
10.8634
30
10.56
0
VERTEX
10
7.34989
20
10.8706
30
10.56
0
VERTEX
10
7.3463
20
10.8742
30
10.56
0
VERTEX
10
7.34451
20
10.8742
30
10.56
0
VERTEX
10
7.33733
20
10.8796
30
10.56
0
VERTEX
10
7.33375
20
10.8814
30
10.56
0
VERTEX
10
7.30506
20
10.8805
30
10.56
0
VERTEX
10
7.29071
20
10.8796
30
10.56
0
VERTEX
10
7.28892
20
10.8778
30
10.56
0
VERTEX
10
7.28892
20
10.8742
30
10.56
0
VERTEX
10
7.29161
20
10.8706
30
10.56
0
VERTEX
10
7.29251
20
10.8688
30
10.56
0
VERTEX
10
7.28713
20
10.8634
30
10.56
0
VERTEX
10
7.28533
20
10.8626
30
10.56
0
VERTEX
10
7.28533
20
10.859
30
10.56
0
VERTEX
10
7.27726
20
10.8724
30
10.56
0
VERTEX
10
7.27458
20
10.8751
30
10.56
0
VERTEX
10
7.27189
20
10.8679
30
10.56
0
VERTEX
10
7.27009
20
10.8643
30
10.56
0
VERTEX
10
7.27009
20
10.8608
30
10.56
0
VERTEX
10
7.26651
20
10.8536
30
10.56
0
VERTEX
10
7.26651
20
10.8464
30
10.56
0
VERTEX
10
7.26651
20
10.8437
30
10.56
0
SEQEND
0
ENDSEC
0
EOF
