0
SECTION
2
ENTITIES
0
POLYLINE
62
31
66
1
70
1
3
contour
0
VERTEX
10
9.81499
20
10.0034
30
4.6
0
VERTEX
10
9.81703
20
9.98703
30
4.6
0
VERTEX
10
9.82932
20
9.9727
30
4.6
0
VERTEX
10
9.83137
20
9.9645
30
4.6
0
VERTEX
10
9.84571
20
9.95222
30
4.6
0
VERTEX
10
9.86209
20
9.95222
30
4.6
0
VERTEX
10
9.87848
20
9.96246
30
4.6
0
VERTEX
10
9.88462
20
9.9686
30
4.6
0
VERTEX
10
9.9174
20
9.98294
30
4.6
0
VERTEX
10
9.94812
20
10.0014
30
4.6
0
VERTEX
10
9.95836
20
10.0034
30
4.6
0
VERTEX
10
9.96655
20
10.0116
30
4.6
0
VERTEX
10
9.9686
20
10.0444
30
4.6
0
VERTEX
10
9.96246
20
10.0526
30
4.6
0
VERTEX
10
9.96246
20
10.0567
30
4.6
0
VERTEX
10
9.95426
20
10.0649
30
4.6
0
VERTEX
10
9.95222
20
10.0731
30
4.6
0
VERTEX
10
9.93583
20
10.0833
30
4.6
0
VERTEX
10
9.93173
20
10.0915
30
4.6
0
VERTEX
10
9.9174
20
10.0997
30
4.6
0
VERTEX
10
9.9092
20
10.1017
30
4.6
0
VERTEX
10
9.87643
20
10.0894
30
4.6
0
VERTEX
10
9.87438
20
10.0853
30
4.6
0
VERTEX
10
9.86619
20
10.0833
30
4.6
0
VERTEX
10
9.83547
20
10.0567
30
4.6
0
VERTEX
10
9.82113
20
10.0444
30
4.6
0
VERTEX
10
9.81499
20
10.0362
30
4.6
0
VERTEX
10
9.81499
20
10.0055
30
4.6
0
SEQEND
0
POLYLINE
62
224
66
1
70
1
3
mitochondrion
0
VERTEX
10
9.31588
20
8.81254
30
4.6
0
VERTEX
10
9.31866
20
8.80698
30
4.6
0
VERTEX
10
9.32005
20
8.78474
30
4.6
0
VERTEX
10
9.32005
20
8.77361
30
4.6
0
VERTEX
10
9.32144
20
8.76805
30
4.6
0
VERTEX
10
9.32144
20
8.76527
30
4.6
0
VERTEX
10
9.33813
20
8.7458
30
4.6
0
VERTEX
10
9.34925
20
8.73746
30
4.6
0
VERTEX
10
9.35342
20
8.73468
30
4.6
0
VERTEX
10
9.36037
20
8.72356
30
4.6
0
VERTEX
10
9.38262
20
8.70965
30
4.6
0
VERTEX
10
9.38679
20
8.70548
30
4.6
0
VERTEX
10
9.39235
20
8.70409
30
4.6
0
VERTEX
10
9.39513
20
8.69992
30
4.6
0
VERTEX
10
9.40626
20
8.69297
30
4.6
0
VERTEX
10
9.42851
20
8.68741
30
4.6
0
VERTEX
10
9.43824
20
8.68184
30
4.6
0
VERTEX
10
9.44102
20
8.68184
30
4.6
0
VERTEX
10
9.44241
20
8.67906
30
4.6
0
VERTEX
10
9.46466
20
8.67072
30
4.6
0
VERTEX
10
9.47578
20
8.66933
30
4.6
0
VERTEX
10
9.4869
20
8.66238
30
4.6
0
VERTEX
10
9.49803
20
8.6596
30
4.6
0
VERTEX
10
9.54252
20
8.65682
30
4.6
0
VERTEX
10
9.55364
20
8.6596
30
4.6
0
VERTEX
10
9.56477
20
8.66516
30
4.6
0
VERTEX
10
9.5745
20
8.6735
30
4.6
0
VERTEX
10
9.57867
20
8.67628
30
4.6
0
VERTEX
10
9.59258
20
8.69575
30
4.6
0
VERTEX
10
9.6037
20
8.69992
30
4.6
0
VERTEX
10
9.61065
20
8.70965
30
4.6
0
VERTEX
10
9.63012
20
8.72912
30
4.6
0
VERTEX
10
9.63985
20
8.75137
30
4.6
0
VERTEX
10
9.64263
20
8.75693
30
4.6
0
VERTEX
10
9.64263
20
8.76249
30
4.6
0
VERTEX
10
9.64263
20
8.76527
30
4.6
0
VERTEX
10
9.63985
20
8.76666
30
4.6
0
VERTEX
10
9.62595
20
8.81115
30
4.6
0
VERTEX
10
9.62456
20
8.81672
30
4.6
0
VERTEX
10
9.62177
20
8.8195
30
4.6
0
VERTEX
10
9.62038
20
8.82506
30
4.6
0
VERTEX
10
9.61482
20
8.83062
30
4.6
0
VERTEX
10
9.60926
20
8.84035
30
4.6
0
VERTEX
10
9.59119
20
8.85565
30
4.6
0
VERTEX
10
9.56894
20
8.87233
30
4.6
0
VERTEX
10
9.54947
20
8.8918
30
4.6
0
VERTEX
10
9.50498
20
8.91266
30
4.6
0
VERTEX
10
9.49386
20
8.91683
30
4.6
0
VERTEX
10
9.47161
20
8.91961
30
4.6
0
VERTEX
10
9.46049
20
8.92239
30
4.6
0
VERTEX
10
9.44936
20
8.92239
30
4.6
0
VERTEX
10
9.42711
20
8.91822
30
4.6
0
VERTEX
10
9.42155
20
8.91822
30
4.6
0
VERTEX
10
9.41599
20
8.91544
30
4.6
0
VERTEX
10
9.39374
20
8.91405
30
4.6
0
VERTEX
10
9.39235
20
8.90848
30
4.6
0
VERTEX
10
9.38679
20
8.9057
30
4.6
0
VERTEX
10
9.38123
20
8.9057
30
4.6
0
VERTEX
10
9.3715
20
8.90014
30
4.6
0
VERTEX
10
9.36872
20
8.90014
30
4.6
0
VERTEX
10
9.36316
20
8.89458
30
4.6
0
VERTEX
10
9.35342
20
8.88763
30
4.6
0
VERTEX
10
9.34369
20
8.87789
30
4.6
0
VERTEX
10
9.33674
20
8.86816
30
4.6
0
VERTEX
10
9.33257
20
8.85843
30
4.6
0
VERTEX
10
9.33118
20
8.85287
30
4.6
0
VERTEX
10
9.32144
20
8.84174
30
4.6
0
VERTEX
10
9.31588
20
8.83201
30
4.6
0
VERTEX
10
9.31588
20
8.82089
30
4.6
0
VERTEX
10
9.31588
20
8.81533
30
4.6
0
VERTEX
10
9.31588
20
8.81394
30
4.6
0
SEQEND
0
POLYLINE
62
227
66
1
70
1
3
endoplasmic_reticulum
0
VERTEX
10
9.06325
20
8.71437
30
4.6
0
VERTEX
10
9.06934
20
8.70218
30
4.6
0
VERTEX
10
9.07544
20
8.69914
30
4.6
0
VERTEX
10
9.08153
20
8.69914
30
4.6
0
VERTEX
10
9.09372
20
8.70523
30
4.6
0
VERTEX
10
9.08915
20
8.72961
30
4.6
0
VERTEX
10
9.08763
20
8.7357
30
4.6
0
VERTEX
10
9.08153
20
8.73875
30
4.6
0
VERTEX
10
9.06934
20
8.7357
30
4.6
0
VERTEX
10
9.06477
20
8.73113
30
4.6
0
VERTEX
10
9.06325
20
8.71894
30
4.6
0
VERTEX
10
9.06325
20
8.71589
30
4.6
0
SEQEND
0
POLYLINE
62
227
66
1
70
1
3
endoplasmic_reticulum
0
VERTEX
10
9.29025
20
8.59402
30
4.6
0
VERTEX
10
9.29482
20
8.58183
30
4.6
0
VERTEX
10
9.29635
20
8.57573
30
4.6
0
VERTEX
10
9.30092
20
8.56964
30
4.6
0
VERTEX
10
9.30701
20
8.56812
30
4.6
0
VERTEX
10
9.3131
20
8.56964
30
4.6
0
VERTEX
10
9.3192
20
8.57421
30
4.6
0
VERTEX
10
9.32224
20
8.57421
30
4.6
0
VERTEX
10
9.32681
20
8.5803
30
4.6
0
VERTEX
10
9.33291
20
8.58335
30
4.6
0
VERTEX
10
9.33443
20
8.58945
30
4.6
0
VERTEX
10
9.34205
20
8.60011
30
4.6
0
VERTEX
10
9.3451
20
8.60011
30
4.6
0
VERTEX
10
9.34814
20
8.60316
30
4.6
0
VERTEX
10
9.36033
20
8.60773
30
4.6
0
VERTEX
10
9.36643
20
8.6123
30
4.6
0
VERTEX
10
9.371
20
8.62296
30
4.6
0
VERTEX
10
9.36947
20
8.63515
30
4.6
0
VERTEX
10
9.3649
20
8.64734
30
4.6
0
VERTEX
10
9.36338
20
8.65343
30
4.6
0
VERTEX
10
9.36338
20
8.65648
30
4.6
0
VERTEX
10
9.36033
20
8.65953
30
4.6
0
VERTEX
10
9.35881
20
8.66562
30
4.6
0
VERTEX
10
9.34662
20
8.66867
30
4.6
0
VERTEX
10
9.34357
20
8.67019
30
4.6
0
VERTEX
10
9.339
20
8.66562
30
4.6
0
VERTEX
10
9.33291
20
8.6641
30
4.6
0
VERTEX
10
9.32224
20
8.65343
30
4.6
0
VERTEX
10
9.31463
20
8.64429
30
4.6
0
VERTEX
10
9.31006
20
8.6321
30
4.6
0
VERTEX
10
9.31006
20
8.62906
30
4.6
0
VERTEX
10
9.30549
20
8.62449
30
4.6
0
VERTEX
10
9.30549
20
8.62144
30
4.6
0
VERTEX
10
9.29482
20
8.61077
30
4.6
0
VERTEX
10
9.2933
20
8.60468
30
4.6
0
VERTEX
10
9.29025
20
8.60163
30
4.6
0
VERTEX
10
9.29025
20
8.59554
30
4.6
0
SEQEND
0
POLYLINE
62
227
66
1
70
1
3
endoplasmic_reticulum
0
VERTEX
10
9.61475
20
8.85301
30
4.6
0
VERTEX
10
9.62542
20
8.84234
30
4.6
0
VERTEX
10
9.63151
20
8.84082
30
4.6
0
VERTEX
10
9.63456
20
8.83777
30
4.6
0
VERTEX
10
9.64675
20
8.83473
30
4.6
0
VERTEX
10
9.6498
20
8.83168
30
4.6
0
VERTEX
10
9.67417
20
8.82863
30
4.6
0
VERTEX
10
9.68636
20
8.82711
30
4.6
0
VERTEX
10
9.71073
20
8.83016
30
4.6
0
VERTEX
10
9.72292
20
8.83016
30
4.6
0
VERTEX
10
9.72902
20
8.83168
30
4.6
0
VERTEX
10
9.73206
20
8.8332
30
4.6
0
VERTEX
10
9.73359
20
8.8393
30
4.6
0
VERTEX
10
9.73359
20
8.84234
30
4.6
0
VERTEX
10
9.73816
20
8.84692
30
4.6
0
VERTEX
10
9.73968
20
8.8591
30
4.6
0
VERTEX
10
9.73663
20
8.87129
30
4.6
0
VERTEX
10
9.73359
20
8.87738
30
4.6
0
VERTEX
10
9.73206
20
8.88043
30
4.6
0
VERTEX
10
9.71988
20
8.88043
30
4.6
0
VERTEX
10
9.70769
20
8.87586
30
4.6
0
VERTEX
10
9.70464
20
8.87586
30
4.6
0
VERTEX
10
9.70312
20
8.87281
30
4.6
0
VERTEX
10
9.67874
20
8.87281
30
4.6
0
VERTEX
10
9.66655
20
8.87434
30
4.6
0
VERTEX
10
9.66046
20
8.87434
30
4.6
0
VERTEX
10
9.64827
20
8.88043
30
4.6
0
VERTEX
10
9.6239
20
8.87891
30
4.6
0
VERTEX
10
9.6178
20
8.87891
30
4.6
0
VERTEX
10
9.61475
20
8.87738
30
4.6
0
VERTEX
10
9.6178
20
8.8652
30
4.6
0
VERTEX
10
9.61475
20
8.8591
30
4.6
0
VERTEX
10
9.61475
20
8.85453
30
4.6
0
SEQEND
0
POLYLINE
62
227
66
1
70
1
3
endoplasmic_reticulum
0
VERTEX
10
8.89871
20
8.74179
30
4.6
0
VERTEX
10
8.90328
20
8.72961
30
4.6
0
VERTEX
10
8.90633
20
8.72351
30
4.6
0
VERTEX
10
8.917
20
8.71285
30
4.6
0
VERTEX
10
8.92918
20
8.70675
30
4.6
0
VERTEX
10
8.94137
20
8.70828
30
4.6
0
VERTEX
10
8.96422
20
8.72504
30
4.6
0
VERTEX
10
8.97032
20
8.72504
30
4.6
0
VERTEX
10
8.98251
20
8.72961
30
4.6
0
VERTEX
10
8.9886
20
8.72961
30
4.6
0
VERTEX
10
8.99317
20
8.73418
30
4.6
0
VERTEX
10
8.99469
20
8.73722
30
4.6
0
VERTEX
10
8.99774
20
8.73722
30
4.6
0
VERTEX
10
9.00841
20
8.74789
30
4.6
0
VERTEX
10
9.00993
20
8.75398
30
4.6
0
VERTEX
10
9.01298
20
8.75551
30
4.6
0
VERTEX
10
9.01907
20
8.77988
30
4.6
0
VERTEX
10
9.02059
20
8.78598
30
4.6
0
VERTEX
10
9.02059
20
8.78902
30
4.6
0
VERTEX
10
9.02516
20
8.79359
30
4.6
0
VERTEX
10
9.02516
20
8.80578
30
4.6
0
VERTEX
10
9.02821
20
8.81187
30
4.6
0
VERTEX
10
9.02821
20
8.81797
30
4.6
0
VERTEX
10
9.03735
20
8.84082
30
4.6
0
VERTEX
10
9.03888
20
8.85301
30
4.6
0
VERTEX
10
9.04649
20
8.86367
30
4.6
0
VERTEX
10
9.04954
20
8.86367
30
4.6
0
VERTEX
10
9.0602
20
8.87586
30
4.6
0
VERTEX
10
9.07239
20
8.885
30
4.6
0
VERTEX
10
9.07849
20
8.885
30
4.6
0
VERTEX
10
9.0861
20
8.89414
30
4.6
0
VERTEX
10
9.08915
20
8.90024
30
4.6
0
VERTEX
10
9.09981
20
8.91243
30
4.6
0
VERTEX
10
9.10134
20
8.9368
30
4.6
0
VERTEX
10
9.10134
20
8.9429
30
4.6
0
VERTEX
10
9.11353
20
8.94899
30
4.6
0
VERTEX
10
9.11962
20
8.94899
30
4.6
0
VERTEX
10
9.12571
20
8.95356
30
4.6
0
VERTEX
10
9.12876
20
8.95356
30
4.6
0
VERTEX
10
9.13181
20
8.95661
30
4.6
0
VERTEX
10
9.13028
20
8.98098
30
4.6
0
VERTEX
10
9.12876
20
8.99317
30
4.6
0
VERTEX
10
9.12267
20
8.99469
30
4.6
0
VERTEX
10
9.112
20
9.00231
30
4.6
0
VERTEX
10
9.10591
20
9.00231
30
4.6
0
VERTEX
10
9.09981
20
8.99774
30
4.6
0
VERTEX
10
9.07544
20
8.99317
30
4.6
0
VERTEX
10
9.06934
20
8.99012
30
4.6
0
VERTEX
10
9.04497
20
8.98555
30
4.6
0
VERTEX
10
9.02059
20
8.98403
30
4.6
0
VERTEX
10
8.99622
20
8.97946
30
4.6
0
VERTEX
10
8.98403
20
8.97336
30
4.6
0
VERTEX
10
8.95965
20
8.97336
30
4.6
0
VERTEX
10
8.94747
20
8.97641
30
4.6
0
VERTEX
10
8.93528
20
8.97641
30
4.6
0
VERTEX
10
8.92918
20
8.97489
30
4.6
0
VERTEX
10
8.92614
20
8.97489
30
4.6
0
VERTEX
10
8.92157
20
8.96879
30
4.6
0
VERTEX
10
8.92157
20
8.95661
30
4.6
0
VERTEX
10
8.917
20
8.94442
30
4.6
0
VERTEX
10
8.91547
20
8.9429
30
4.6
0
VERTEX
10
8.92766
20
8.93985
30
4.6
0
VERTEX
10
8.93375
20
8.93985
30
4.6
0
VERTEX
10
8.94594
20
8.93375
30
4.6
0
VERTEX
10
8.97032
20
8.92918
30
4.6
0
VERTEX
10
8.97641
20
8.92614
30
4.6
0
VERTEX
10
8.9886
20
8.92614
30
4.6
0
VERTEX
10
9.00079
20
8.92309
30
4.6
0
VERTEX
10
9.01145
20
8.91547
30
4.6
0
VERTEX
10
9.01602
20
8.90938
30
4.6
0
VERTEX
10
9.01755
20
8.89719
30
4.6
0
VERTEX
10
9.01602
20
8.885
30
4.6
0
VERTEX
10
9.0145
20
8.87891
30
4.6
0
VERTEX
10
9.0145
20
8.87586
30
4.6
0
VERTEX
10
9.01145
20
8.87434
30
4.6
0
VERTEX
10
9.00993
20
8.86215
30
4.6
0
VERTEX
10
8.99774
20
8.8393
30
4.6
0
VERTEX
10
8.99012
20
8.82863
30
4.6
0
VERTEX
10
8.98098
20
8.80426
30
4.6
0
VERTEX
10
8.97641
20
8.79207
30
4.6
0
VERTEX
10
8.97641
20
8.78902
30
4.6
0
VERTEX
10
8.96422
20
8.7814
30
4.6
0
VERTEX
10
8.93985
20
8.77988
30
4.6
0
VERTEX
10
8.92766
20
8.77988
30
4.6
0
VERTEX
10
8.91547
20
8.77531
30
4.6
0
VERTEX
10
8.90938
20
8.77379
30
4.6
0
VERTEX
10
8.89871
20
8.76465
30
4.6
0
VERTEX
10
8.89871
20
8.75246
30
4.6
0
VERTEX
10
8.89871
20
8.74636
30
4.6
0
VERTEX
10
8.89871
20
8.74332
30
4.6
0
SEQEND
0
POLYLINE
62
227
66
1
70
1
3
endoplasmic_reticulum
0
VERTEX
10
8.87738
20
8.64124
30
4.6
0
VERTEX
10
8.88043
20
8.63972
30
4.6
0
VERTEX
10
8.88196
20
8.63363
30
4.6
0
VERTEX
10
8.89262
20
8.62449
30
4.6
0
VERTEX
10
8.917
20
8.62296
30
4.6
0
VERTEX
10
8.94137
20
8.62449
30
4.6
0
VERTEX
10
8.95356
20
8.62753
30
4.6
0
VERTEX
10
8.95813
20
8.63363
30
4.6
0
VERTEX
10
8.95965
20
8.64581
30
4.6
0
VERTEX
10
8.95813
20
8.658
30
4.6
0
VERTEX
10
8.94747
20
8.66714
30
4.6
0
VERTEX
10
8.93528
20
8.66867
30
4.6
0
VERTEX
10
8.92918
20
8.67324
30
4.6
0
VERTEX
10
8.90481
20
8.67324
30
4.6
0
VERTEX
10
8.89871
20
8.67171
30
4.6
0
VERTEX
10
8.88653
20
8.6641
30
4.6
0
VERTEX
10
8.88043
20
8.65953
30
4.6
0
VERTEX
10
8.87738
20
8.65648
30
4.6
0
VERTEX
10
8.87891
20
8.65038
30
4.6
0
VERTEX
10
8.87738
20
8.64429
30
4.6
0
VERTEX
10
8.87738
20
8.64277
30
4.6
0
SEQEND
0
POLYLINE
62
227
66
1
70
1
3
endoplasmic_reticulum
0
VERTEX
10
9.50354
20
9.03278
30
4.6
0
VERTEX
10
9.50506
20
9.02059
30
4.6
0
VERTEX
10
9.50963
20
9.00993
30
4.6
0
VERTEX
10
9.51268
20
9.00383
30
4.6
0
VERTEX
10
9.52487
20
9.00231
30
4.6
0
VERTEX
10
9.53706
20
9.00688
30
4.6
0
VERTEX
10
9.54772
20
9.0145
30
4.6
0
VERTEX
10
9.55382
20
9.02669
30
4.6
0
VERTEX
10
9.55991
20
9.03278
30
4.6
0
VERTEX
10
9.55686
20
9.05716
30
4.6
0
VERTEX
10
9.55686
20
9.0602
30
4.6
0
VERTEX
10
9.54467
20
9.06173
30
4.6
0
VERTEX
10
9.5203
20
9.05716
30
4.6
0
VERTEX
10
9.5142
20
9.05563
30
4.6
0
VERTEX
10
9.50354
20
9.04497
30
4.6
0
VERTEX
10
9.50354
20
9.0343
30
4.6
0
SEQEND
0
POLYLINE
62
31
66
1
70
1
3
contour
0
VERTEX
10
8.49083
20
9.20754
30
4.6
0
VERTEX
10
8.4926
20
9.19338
30
4.6
0
VERTEX
10
8.49437
20
9.18984
30
4.6
0
VERTEX
10
8.49791
20
9.18984
30
4.6
0
VERTEX
10
8.50322
20
9.18276
30
4.6
0
VERTEX
10
8.50675
20
9.18099
30
4.6
0
VERTEX
10
8.50675
20
9.17746
30
4.6
0
VERTEX
10
8.52091
20
9.16861
30
4.6
0
VERTEX
10
8.52976
20
9.15622
30
4.6
0
VERTEX
10
8.54392
20
9.14383
30
4.6
0
VERTEX
10
8.54392
20
9.12967
30
4.6
0
VERTEX
10
8.54923
20
9.10136
30
4.6
0
VERTEX
10
8.54746
20
9.04473
30
4.6
0
VERTEX
10
8.55277
20
8.9881
30
4.6
0
VERTEX
10
8.55984
20
8.97394
30
4.6
0
VERTEX
10
8.56161
20
8.96687
30
4.6
0
VERTEX
10
8.56338
20
8.96333
30
4.6
0
VERTEX
10
8.5917
20
8.95625
30
4.6
0
VERTEX
10
8.62001
20
8.95802
30
4.6
0
VERTEX
10
8.63417
20
8.95448
30
4.6
0
VERTEX
10
8.64833
20
8.95448
30
4.6
0
VERTEX
10
8.66248
20
8.95979
30
4.6
0
VERTEX
10
8.67487
20
8.96864
30
4.6
0
VERTEX
10
8.68018
20
8.97041
30
4.6
0
VERTEX
10
8.68549
20
8.97748
30
4.6
0
VERTEX
10
8.71027
20
8.99341
30
4.6
0
VERTEX
10
8.7138
20
8.99341
30
4.6
0
VERTEX
10
8.71734
20
8.99695
30
4.6
0
VERTEX
10
8.7315
20
9.00226
30
4.6
0
VERTEX
10
8.73681
20
9.00757
30
4.6
0
VERTEX
10
8.74389
20
9.00934
30
4.6
0
VERTEX
10
8.74566
20
9.01642
30
4.6
0
VERTEX
10
8.77397
20
9.02526
30
4.6
0
VERTEX
10
8.77574
20
9.0288
30
4.6
0
VERTEX
10
8.7899
20
9.03234
30
4.6
0
VERTEX
10
8.79344
20
9.03588
30
4.6
0
VERTEX
10
8.82175
20
9.03942
30
4.6
0
VERTEX
10
8.82529
20
9.04296
30
4.6
0
VERTEX
10
8.85361
20
9.04827
30
4.6
0
VERTEX
10
8.88192
20
9.05004
30
4.6
0
VERTEX
10
8.89608
20
9.06243
30
4.6
0
VERTEX
10
8.90493
20
9.07658
30
4.6
0
VERTEX
10
8.9067
20
9.08366
30
4.6
0
VERTEX
10
8.91555
20
9.09782
30
4.6
0
VERTEX
10
8.91732
20
9.1049
30
4.6
0
VERTEX
10
8.92085
20
9.10844
30
4.6
0
VERTEX
10
8.92085
20
9.11552
30
4.6
0
VERTEX
10
8.92793
20
9.12967
30
4.6
0
VERTEX
10
8.95271
20
9.15268
30
4.6
0
VERTEX
10
8.95979
20
9.15622
30
4.6
0
VERTEX
10
8.96333
20
9.15622
30
4.6
0
VERTEX
10
8.98987
20
9.17923
30
4.6
0
VERTEX
10
9.00049
20
9.19338
30
4.6
0
VERTEX
10
9.0058
20
9.19869
30
4.6
0
VERTEX
10
9.00757
20
9.20577
30
4.6
0
VERTEX
10
9.01819
20
9.21816
30
4.6
0
VERTEX
10
9.03057
20
9.22701
30
4.6
0
VERTEX
10
9.04473
20
9.23055
30
4.6
0
VERTEX
10
9.04827
20
9.23055
30
4.6
0
VERTEX
10
9.05181
20
9.23408
30
4.6
0
VERTEX
10
9.08012
20
9.24293
30
4.6
0
VERTEX
10
9.0872
20
9.2447
30
4.6
0
VERTEX
10
9.09074
20
9.24647
30
4.6
0
VERTEX
10
9.09074
20
9.25001
30
4.6
0
VERTEX
10
9.1049
20
9.25178
30
4.6
0
VERTEX
10
9.11375
20
9.26417
30
4.6
0
VERTEX
10
9.12083
20
9.26594
30
4.6
0
VERTEX
10
9.12437
20
9.26771
30
4.6
0
VERTEX
10
9.12791
20
9.29602
30
4.6
0
VERTEX
10
9.12614
20
9.32434
30
4.6
0
VERTEX
10
9.12614
20
9.32788
30
4.6
0
VERTEX
10
9.11906
20
9.32965
30
4.6
0
VERTEX
10
9.11729
20
9.33672
30
4.6
0
VERTEX
10
9.11198
20
9.34203
30
4.6
0
VERTEX
10
9.09782
20
9.34734
30
4.6
0
VERTEX
10
9.09074
20
9.34734
30
4.6
0
VERTEX
10
9.06243
20
9.36504
30
4.6
0
VERTEX
10
9.05535
20
9.36681
30
4.6
0
VERTEX
10
9.04473
20
9.37743
30
4.6
0
VERTEX
10
9.01642
20
9.38981
30
4.6
0
VERTEX
10
9.00934
20
9.39158
30
4.6
0
VERTEX
10
9.0058
20
9.39158
30
4.6
0
VERTEX
10
9.00226
20
9.39512
30
4.6
0
VERTEX
10
8.99872
20
9.39512
30
4.6
0
VERTEX
10
8.99518
20
9.39866
30
4.6
0
VERTEX
10
8.96687
20
9.40043
30
4.6
0
VERTEX
10
8.95271
20
9.40043
30
4.6
0
VERTEX
10
8.94563
20
9.40397
30
4.6
0
VERTEX
10
8.889
20
9.39335
30
4.6
0
VERTEX
10
8.88192
20
9.38981
30
4.6
0
VERTEX
10
8.82529
20
9.38981
30
4.6
0
VERTEX
10
8.76866
20
9.38628
30
4.6
0
VERTEX
10
8.74035
20
9.38274
30
4.6
0
VERTEX
10
8.72619
20
9.38274
30
4.6
0
VERTEX
10
8.71911
20
9.38097
30
4.6
0
VERTEX
10
8.7085
20
9.37035
30
4.6
0
VERTEX
10
8.69788
20
9.35619
30
4.6
0
VERTEX
10
8.69257
20
9.34911
30
4.6
0
VERTEX
10
8.68903
20
9.3208
30
4.6
0
VERTEX
10
8.68903
20
9.30664
30
4.6
0
VERTEX
10
8.68903
20
9.3031
30
4.6
0
VERTEX
10
8.67841
20
9.29071
30
4.6
0
VERTEX
10
8.67487
20
9.29071
30
4.6
0
VERTEX
10
8.65895
20
9.2801
30
4.6
0
VERTEX
10
8.65187
20
9.2801
30
4.6
0
VERTEX
10
8.64479
20
9.27479
30
4.6
0
VERTEX
10
8.64125
20
9.27479
30
4.6
0
VERTEX
10
8.63948
20
9.27125
30
4.6
0
VERTEX
10
8.63594
20
9.27125
30
4.6
0
VERTEX
10
8.63063
20
9.26594
30
4.6
0
VERTEX
10
8.61647
20
9.26594
30
4.6
0
VERTEX
10
8.60232
20
9.25709
30
4.6
0
VERTEX
10
8.59524
20
9.25709
30
4.6
0
VERTEX
10
8.5917
20
9.25355
30
4.6
0
VERTEX
10
8.56338
20
9.2447
30
4.6
0
VERTEX
10
8.53507
20
9.24116
30
4.6
0
VERTEX
10
8.52091
20
9.24293
30
4.6
0
VERTEX
10
8.51383
20
9.23762
30
4.6
0
VERTEX
10
8.50675
20
9.23585
30
4.6
0
VERTEX
10
8.49968
20
9.23762
30
4.6
0
VERTEX
10
8.49614
20
9.23762
30
4.6
0
VERTEX
10
8.49083
20
9.22347
30
4.6
0
VERTEX
10
8.49083
20
9.20931
30
4.6
0
SEQEND
0
POLYLINE
62
31
66
1
70
1
3
contour
0
VERTEX
10
8.71214
20
8.60292
30
4.6
0
VERTEX
10
8.71361
20
8.57931
30
4.6
0
VERTEX
10
8.71361
20
8.57635
30
4.6
0
VERTEX
10
8.71656
20
8.5734
30
4.6
0
VERTEX
10
8.71804
20
8.5616
30
4.6
0
VERTEX
10
8.72689
20
8.54979
30
4.6
0
VERTEX
10
8.74903
20
8.53355
30
4.6
0
VERTEX
10
8.75494
20
8.52765
30
4.6
0
VERTEX
10
8.75789
20
8.52765
30
4.6
0
VERTEX
10
8.76822
20
8.51732
30
4.6
0
VERTEX
10
8.77855
20
8.51142
30
4.6
0
VERTEX
10
8.78445
20
8.50551
30
4.6
0
VERTEX
10
8.79626
20
8.49961
30
4.6
0
VERTEX
10
8.80216
20
8.49518
30
4.6
0
VERTEX
10
8.80512
20
8.49223
30
4.6
0
VERTEX
10
8.81692
20
8.49075
30
4.6
0
VERTEX
10
8.82873
20
8.48485
30
4.6
0
VERTEX
10
8.84054
20
8.4819
30
4.6
0
VERTEX
10
8.86415
20
8.46861
30
4.6
0
VERTEX
10
8.87596
20
8.46714
30
4.6
0
VERTEX
10
8.88777
20
8.46271
30
4.6
0
VERTEX
10
8.91138
20
8.45976
30
4.6
0
VERTEX
10
8.93499
20
8.46271
30
4.6
0
VERTEX
10
8.9468
20
8.46419
30
4.6
0
VERTEX
10
8.9527
20
8.46714
30
4.6
0
VERTEX
10
8.99993
20
8.46861
30
4.6
0
VERTEX
10
9.04716
20
8.46714
30
4.6
0
VERTEX
10
9.05897
20
8.46714
30
4.6
0
VERTEX
10
9.07078
20
8.47009
30
4.6
0
VERTEX
10
9.07668
20
8.47009
30
4.6
0
VERTEX
10
9.07963
20
8.47009
30
4.6
0
VERTEX
10
9.08553
20
8.47452
30
4.6
0
VERTEX
10
9.09734
20
8.47895
30
4.6
0
VERTEX
10
9.10324
20
8.48042
30
4.6
0
VERTEX
10
9.10767
20
8.48485
30
4.6
0
VERTEX
10
9.11948
20
8.4878
30
4.6
0
VERTEX
10
9.12538
20
8.49223
30
4.6
0
VERTEX
10
9.13719
20
8.4937
30
4.6
0
VERTEX
10
9.14309
20
8.49813
30
4.6
0
VERTEX
10
9.16671
20
8.50551
30
4.6
0
VERTEX
10
9.17851
20
8.50994
30
4.6
0
VERTEX
10
9.18442
20
8.51289
30
4.6
0
VERTEX
10
9.18737
20
8.51289
30
4.6
0
VERTEX
10
9.19327
20
8.51732
30
4.6
0
VERTEX
10
9.19918
20
8.51732
30
4.6
0
VERTEX
10
9.21098
20
8.52322
30
4.6
0
VERTEX
10
9.2346
20
8.52913
30
4.6
0
VERTEX
10
9.32905
20
8.53503
30
4.6
0
VERTEX
10
9.35267
20
8.53798
30
4.6
0
VERTEX
10
9.37628
20
8.53651
30
4.6
0
VERTEX
10
9.38809
20
8.53651
30
4.6
0
VERTEX
10
9.39399
20
8.53651
30
4.6
0
VERTEX
10
9.39695
20
8.53651
30
4.6
0
VERTEX
10
9.40137
20
8.54093
30
4.6
0
VERTEX
10
9.4486
20
8.54388
30
4.6
0
VERTEX
10
9.49583
20
8.53946
30
4.6
0
VERTEX
10
9.51944
20
8.53798
30
4.6
0
VERTEX
10
9.53125
20
8.53798
30
4.6
0
VERTEX
10
9.5342
20
8.53503
30
4.6
0
VERTEX
10
9.55782
20
8.53355
30
4.6
0
VERTEX
10
9.58143
20
8.52913
30
4.6
0
VERTEX
10
9.59324
20
8.5247
30
4.6
0
VERTEX
10
9.61685
20
8.52765
30
4.6
0
VERTEX
10
9.62866
20
8.52765
30
4.6
0
VERTEX
10
9.64047
20
8.53208
30
4.6
0
VERTEX
10
9.65227
20
8.54093
30
4.6
0
VERTEX
10
9.65818
20
8.54536
30
4.6
0
VERTEX
10
9.66998
20
8.54979
30
4.6
0
VERTEX
10
9.68179
20
8.55864
30
4.6
0
VERTEX
10
9.68769
20
8.56307
30
4.6
0
VERTEX
10
9.69507
20
8.5734
30
4.6
0
VERTEX
10
9.69803
20
8.5734
30
4.6
0
VERTEX
10
9.70393
20
8.57783
30
4.6
0
VERTEX
10
9.71131
20
8.58964
30
4.6
0
VERTEX
10
9.71131
20
8.61325
30
4.6
0
VERTEX
10
9.71131
20
8.62506
30
4.6
0
VERTEX
10
9.70836
20
8.63096
30
4.6
0
VERTEX
10
9.70836
20
8.63391
30
4.6
0
VERTEX
10
9.7054
20
8.63687
30
4.6
0
VERTEX
10
9.70245
20
8.64867
30
4.6
0
VERTEX
10
9.70393
20
8.6959
30
4.6
0
VERTEX
10
9.70983
20
8.70771
30
4.6
0
VERTEX
10
9.72164
20
8.71656
30
4.6
0
VERTEX
10
9.72754
20
8.72837
30
4.6
0
VERTEX
10
9.73935
20
8.7387
30
4.6
0
VERTEX
10
9.74968
20
8.7446
30
4.6
0
VERTEX
10
9.75558
20
8.74903
30
4.6
0
VERTEX
10
9.76739
20
8.75346
30
4.6
0
VERTEX
10
9.7733
20
8.75494
30
4.6
0
VERTEX
10
9.79543
20
8.77117
30
4.6
0
VERTEX
10
9.81905
20
8.77265
30
4.6
0
VERTEX
10
9.84266
20
8.77117
30
4.6
0
VERTEX
10
9.8648
20
8.76674
30
4.6
0
VERTEX
10
9.87661
20
8.76969
30
4.6
0
VERTEX
10
9.88251
20
8.77265
30
4.6
0
VERTEX
10
9.88694
20
8.78445
30
4.6
0
VERTEX
10
9.89579
20
8.79626
30
4.6
0
VERTEX
10
9.89875
20
8.80216
30
4.6
0
VERTEX
10
9.90908
20
8.80954
30
4.6
0
VERTEX
10
9.92088
20
8.81987
30
4.6
0
VERTEX
10
9.92679
20
8.8243
30
4.6
0
VERTEX
10
9.93859
20
8.82873
30
4.6
0
VERTEX
10
9.9445
20
8.83021
30
4.6
0
VERTEX
10
9.94893
20
8.83463
30
4.6
0
VERTEX
10
9.95188
20
8.83463
30
4.6
0
VERTEX
10
9.97254
20
8.84939
30
4.6
0
VERTEX
10
9.97844
20
8.85382
30
4.6
0
VERTEX
10
9.98139
20
8.85677
30
4.6
0
VERTEX
10
9.98435
20
8.85677
30
4.6
0
VERTEX
10
9.99025
20
8.86268
30
4.6
0
VERTEX
10
9.99615
20
8.86563
30
4.6
0
VERTEX
10
9.99911
20
8.86563
30
4.6
0
VERTEX
10
10.005
20
8.87005
30
4.6
0
VERTEX
10
10.0168
20
8.87301
30
4.6
0
VERTEX
10
10.0168
20
8.87596
30
4.6
0
VERTEX
10
10.0286
20
8.87743
30
4.6
0
VERTEX
10
10.0522
20
8.88481
30
4.6
0
VERTEX
10
10.064
20
8.88924
30
4.6
0
VERTEX
10
10.067
20
8.89514
30
4.6
0
VERTEX
10
10.0699
20
8.89662
30
4.6
0
VERTEX
10
10.0699
20
8.92023
30
4.6
0
VERTEX
10
10.0685
20
8.93204
30
4.6
0
VERTEX
10
10.0685
20
8.93795
30
4.6
0
VERTEX
10
10.0685
20
8.9409
30
4.6
0
VERTEX
10
10.0655
20
8.94385
30
4.6
0
VERTEX
10
10.064
20
8.94975
30
4.6
0
VERTEX
10
10.0626
20
8.9527
30
4.6
0
VERTEX
10
10.0567
20
8.95418
30
4.6
0
VERTEX
10
10.0552
20
8.95713
30
4.6
0
VERTEX
10
10.0316
20
8.95861
30
4.6
0
VERTEX
10
9.98435
20
8.95713
30
4.6
0
VERTEX
10
9.96073
20
8.95713
30
4.6
0
VERTEX
10
9.94893
20
8.95713
30
4.6
0
VERTEX
10
9.94302
20
8.95713
30
4.6
0
VERTEX
10
9.93712
20
8.9527
30
4.6
0
VERTEX
10
9.9135
20
8.94828
30
4.6
0
VERTEX
10
9.86628
20
8.9468
30
4.6
0
VERTEX
10
9.84266
20
8.94828
30
4.6
0
VERTEX
10
9.83085
20
8.94975
30
4.6
0
VERTEX
10
9.80724
20
8.9468
30
4.6
0
VERTEX
10
9.79543
20
8.94532
30
4.6
0
VERTEX
10
9.77182
20
8.94828
30
4.6
0
VERTEX
10
9.76001
20
8.94975
30
4.6
0
VERTEX
10
9.74821
20
8.95418
30
4.6
0
VERTEX
10
9.74525
20
8.95418
30
4.6
0
VERTEX
10
9.74378
20
8.95713
30
4.6
0
VERTEX
10
9.73787
20
8.95861
30
4.6
0
VERTEX
10
9.73492
20
8.95861
30
4.6
0
VERTEX
10
9.71278
20
8.97337
30
4.6
0
VERTEX
10
9.6936
20
8.99255
30
4.6
0
VERTEX
10
9.69065
20
8.99551
30
4.6
0
VERTEX
10
9.68622
20
9.00731
30
4.6
0
VERTEX
10
9.68327
20
9.01322
30
4.6
0
VERTEX
10
9.68327
20
9.03683
30
4.6
0
VERTEX
10
9.68031
20
9.04864
30
4.6
0
VERTEX
10
9.67884
20
9.07225
30
4.6
0
VERTEX
10
9.67884
20
9.08406
30
4.6
0
VERTEX
10
9.67736
20
9.08996
30
4.6
0
VERTEX
10
9.67736
20
9.09291
30
4.6
0
VERTEX
10
9.66998
20
9.10472
30
4.6
0
VERTEX
10
9.66556
20
9.11653
30
4.6
0
VERTEX
10
9.6626
20
9.11948
30
4.6
0
VERTEX
10
9.65818
20
9.14309
30
4.6
0
VERTEX
10
9.65522
20
9.1549
30
4.6
0
VERTEX
10
9.6567
20
9.17851
30
4.6
0
VERTEX
10
9.6626
20
9.20065
30
4.6
0
VERTEX
10
9.66408
20
9.21246
30
4.6
0
VERTEX
10
9.66408
20
9.21836
30
4.6
0
VERTEX
10
9.66703
20
9.21984
30
4.6
0
VERTEX
10
9.66556
20
9.26707
30
4.6
0
VERTEX
10
9.6626
20
9.27297
30
4.6
0
VERTEX
10
9.65965
20
9.29659
30
4.6
0
VERTEX
10
9.65965
20
9.30839
30
4.6
0
VERTEX
10
9.65522
20
9.3202
30
4.6
0
VERTEX
10
9.65375
20
9.3261
30
4.6
0
VERTEX
10
9.64785
20
9.33053
30
4.6
0
VERTEX
10
9.64489
20
9.33348
30
4.6
0
VERTEX
10
9.64194
20
9.33348
30
4.6
0
VERTEX
10
9.63161
20
9.32463
30
4.6
0
VERTEX
10
9.608
20
9.31725
30
4.6
0
VERTEX
10
9.59619
20
9.31282
30
4.6
0
VERTEX
10
9.58586
20
9.30544
30
4.6
0
VERTEX
10
9.57995
20
9.30101
30
4.6
0
VERTEX
10
9.57258
20
9.29216
30
4.6
0
VERTEX
10
9.56372
20
9.28035
30
4.6
0
VERTEX
10
9.56077
20
9.2774
30
4.6
0
VERTEX
10
9.55782
20
9.26559
30
4.6
0
VERTEX
10
9.55782
20
9.25969
30
4.6
0
VERTEX
10
9.55339
20
9.24788
30
4.6
0
VERTEX
10
9.55044
20
9.20065
30
4.6
0
VERTEX
10
9.55044
20
9.19475
30
4.6
0
VERTEX
10
9.5342
20
9.17409
30
4.6
0
VERTEX
10
9.52977
20
9.16818
30
4.6
0
VERTEX
10
9.50764
20
9.15638
30
4.6
0
VERTEX
10
9.50616
20
9.15342
30
4.6
0
VERTEX
10
9.50321
20
9.15342
30
4.6
0
VERTEX
10
9.50026
20
9.15047
30
4.6
0
VERTEX
10
9.50026
20
9.14752
30
4.6
0
VERTEX
10
9.47812
20
9.13276
30
4.6
0
VERTEX
10
9.47517
20
9.12981
30
4.6
0
VERTEX
10
9.47222
20
9.12981
30
4.6
0
VERTEX
10
9.46188
20
9.11948
30
4.6
0
VERTEX
10
9.45893
20
9.11653
30
4.6
0
VERTEX
10
9.44713
20
9.1121
30
4.6
0
VERTEX
10
9.43827
20
9.10324
30
4.6
0
VERTEX
10
9.43237
20
9.09882
30
4.6
0
VERTEX
10
9.42646
20
9.09734
30
4.6
0
VERTEX
10
9.41613
20
9.08849
30
4.6
0
VERTEX
10
9.41318
20
9.08553
30
4.6
0
VERTEX
10
9.40137
20
9.08258
30
4.6
0
VERTEX
10
9.37776
20
9.08111
30
4.6
0
VERTEX
10
9.35414
20
9.07225
30
4.6
0
VERTEX
10
9.34234
20
9.0693
30
4.6
0
VERTEX
10
9.33643
20
9.06487
30
4.6
0
VERTEX
10
9.33348
20
9.06487
30
4.6
0
VERTEX
10
9.33053
20
9.06192
30
4.6
0
VERTEX
10
9.31872
20
9.05897
30
4.6
0
VERTEX
10
9.29511
20
9.04864
30
4.6
0
VERTEX
10
9.20065
20
9.04569
30
4.6
0
VERTEX
10
9.17704
20
9.04421
30
4.6
0
VERTEX
10
9.16523
20
9.04126
30
4.6
0
VERTEX
10
9.14162
20
9.03978
30
4.6
0
VERTEX
10
9.09439
20
9.03093
30
4.6
0
VERTEX
10
9.04716
20
9.0265
30
4.6
0
VERTEX
10
9.03535
20
9.02355
30
4.6
0
VERTEX
10
9.02945
20
9.02355
30
4.6
0
VERTEX
10
9.02355
20
9.0206
30
4.6
0
VERTEX
10
9.01174
20
9.01912
30
4.6
0
VERTEX
10
9.01026
20
9.01617
30
4.6
0
VERTEX
10
8.99846
20
9.01174
30
4.6
0
VERTEX
10
8.95123
20
9.00141
30
4.6
0
VERTEX
10
8.93942
20
9.00141
30
4.6
0
VERTEX
10
8.92761
20
8.99698
30
4.6
0
VERTEX
10
8.92171
20
8.99403
30
4.6
0
VERTEX
10
8.91286
20
8.9837
30
4.6
0
VERTEX
10
8.9099
20
8.9837
30
4.6
0
VERTEX
10
8.90252
20
8.97189
30
4.6
0
VERTEX
10
8.89219
20
8.96156
30
4.6
0
VERTEX
10
8.88777
20
8.95566
30
4.6
0
VERTEX
10
8.88629
20
8.94975
30
4.6
0
VERTEX
10
8.88186
20
8.94532
30
4.6
0
VERTEX
10
8.87596
20
8.92171
30
4.6
0
VERTEX
10
8.87301
20
8.9099
30
4.6
0
VERTEX
10
8.8671
20
8.8981
30
4.6
0
VERTEX
10
8.85087
20
8.85234
30
4.6
0
VERTEX
10
8.84939
20
8.84054
30
4.6
0
VERTEX
10
8.84496
20
8.83906
30
4.6
0
VERTEX
10
8.83759
20
8.82873
30
4.6
0
VERTEX
10
8.83463
20
8.82578
30
4.6
0
VERTEX
10
8.83316
20
8.81987
30
4.6
0
VERTEX
10
8.8243
20
8.80807
30
4.6
0
VERTEX
10
8.81545
20
8.78445
30
4.6
0
VERTEX
10
8.81397
20
8.77855
30
4.6
0
VERTEX
10
8.80659
20
8.76822
30
4.6
0
VERTEX
10
8.80364
20
8.76527
30
4.6
0
VERTEX
10
8.80364
20
8.76232
30
4.6
0
VERTEX
10
8.79921
20
8.75641
30
4.6
0
VERTEX
10
8.79626
20
8.75346
30
4.6
0
VERTEX
10
8.79626
20
8.75051
30
4.6
0
VERTEX
10
8.77412
20
8.73723
30
4.6
0
VERTEX
10
8.76232
20
8.72985
30
4.6
0
VERTEX
10
8.74165
20
8.70918
30
4.6
0
VERTEX
10
8.73723
20
8.70328
30
4.6
0
VERTEX
10
8.73575
20
8.70033
30
4.6
0
VERTEX
10
8.7328
20
8.70033
30
4.6
0
VERTEX
10
8.72394
20
8.69295
30
4.6
0
VERTEX
10
8.71361
20
8.68262
30
4.6
0
VERTEX
10
8.71361
20
8.67081
30
4.6
0
VERTEX
10
8.71951
20
8.6472
30
4.6
0
VERTEX
10
8.71951
20
8.63539
30
4.6
0
VERTEX
10
8.71951
20
8.62949
30
4.6
0
VERTEX
10
8.71656
20
8.62653
30
4.6
0
VERTEX
10
8.71214
20
8.61473
30
4.6
0
VERTEX
10
8.71214
20
8.6044
30
4.6
0
SEQEND
0
ENDSEC
0
EOF
