0
SECTION
2
ENTITIES
0
POLYLINE
62
31
66
1
70
1
3
contour
0
VERTEX
10
8.75863
20
9.12228
30
5.52
0
VERTEX
10
8.76306
20
9.11341
30
5.52
0
VERTEX
10
8.76528
20
9.07793
30
5.52
0
VERTEX
10
8.76528
20
9.06019
30
5.52
0
VERTEX
10
8.7675
20
9.05132
30
5.52
0
VERTEX
10
8.78302
20
9.0358
30
5.52
0
VERTEX
10
8.79189
20
9.02915
30
5.52
0
VERTEX
10
8.80298
20
9.01363
30
5.52
0
VERTEX
10
8.81185
20
9.00697
30
5.52
0
VERTEX
10
8.81628
20
9.00697
30
5.52
0
VERTEX
10
8.82515
20
9.00032
30
5.52
0
VERTEX
10
8.85841
20
8.98702
30
5.52
0
VERTEX
10
8.87615
20
8.97593
30
5.52
0
VERTEX
10
8.89389
20
8.96928
30
5.52
0
VERTEX
10
8.89832
20
8.96484
30
5.52
0
VERTEX
10
8.9338
20
8.95819
30
5.52
0
VERTEX
10
8.94267
20
8.96263
30
5.52
0
VERTEX
10
9.01363
20
8.96484
30
5.52
0
VERTEX
10
9.0491
20
8.96706
30
5.52
0
VERTEX
10
9.12006
20
8.96484
30
5.52
0
VERTEX
10
9.15554
20
8.96484
30
5.52
0
VERTEX
10
9.16441
20
8.96484
30
5.52
0
VERTEX
10
9.17328
20
8.9715
30
5.52
0
VERTEX
10
9.19102
20
8.97815
30
5.52
0
VERTEX
10
9.19323
20
8.98702
30
5.52
0
VERTEX
10
9.19323
20
8.99145
30
5.52
0
VERTEX
10
9.2021
20
8.9981
30
5.52
0
VERTEX
10
9.21541
20
9.03358
30
5.52
0
VERTEX
10
9.21984
20
9.05132
30
5.52
0
VERTEX
10
9.22428
20
9.06019
30
5.52
0
VERTEX
10
9.22428
20
9.06463
30
5.52
0
VERTEX
10
9.22871
20
9.06906
30
5.52
0
VERTEX
10
9.23536
20
9.08458
30
5.52
0
VERTEX
10
9.24202
20
9.09123
30
5.52
0
VERTEX
10
9.24867
20
9.10897
30
5.52
0
VERTEX
10
9.25975
20
9.12228
30
5.52
0
VERTEX
10
9.27749
20
9.15554
30
5.52
0
VERTEX
10
9.28415
20
9.16441
30
5.52
0
VERTEX
10
9.28636
20
9.17328
30
5.52
0
VERTEX
10
9.2908
20
9.17771
30
5.52
0
VERTEX
10
9.2908
20
9.18215
30
5.52
0
VERTEX
10
9.29745
20
9.19102
30
5.52
0
VERTEX
10
9.29523
20
9.22649
30
5.52
0
VERTEX
10
9.2908
20
9.24423
30
5.52
0
VERTEX
10
9.27971
20
9.26197
30
5.52
0
VERTEX
10
9.27528
20
9.27084
30
5.52
0
VERTEX
10
9.27084
20
9.27528
30
5.52
0
VERTEX
10
9.27084
20
9.27971
30
5.52
0
VERTEX
10
9.26419
20
9.28858
30
5.52
0
VERTEX
10
9.25754
20
9.30632
30
5.52
0
VERTEX
10
9.23315
20
9.33958
30
5.52
0
VERTEX
10
9.21762
20
9.37284
30
5.52
0
VERTEX
10
9.21097
20
9.39058
30
5.52
0
VERTEX
10
9.20876
20
9.39945
30
5.52
0
VERTEX
10
9.20876
20
9.40388
30
5.52
0
VERTEX
10
9.20432
20
9.40832
30
5.52
0
VERTEX
10
9.19545
20
9.41054
30
5.52
0
VERTEX
10
9.18658
20
9.41719
30
5.52
0
VERTEX
10
9.1511
20
9.41719
30
5.52
0
VERTEX
10
9.13336
20
9.42162
30
5.52
0
VERTEX
10
9.12449
20
9.42162
30
5.52
0
VERTEX
10
9.12006
20
9.42606
30
5.52
0
VERTEX
10
9.0491
20
9.43936
30
5.52
0
VERTEX
10
9.03137
20
9.44601
30
5.52
0
VERTEX
10
8.99589
20
9.44601
30
5.52
0
VERTEX
10
8.96041
20
9.44158
30
5.52
0
VERTEX
10
8.94267
20
9.44158
30
5.52
0
VERTEX
10
8.9338
20
9.44158
30
5.52
0
VERTEX
10
8.92493
20
9.43714
30
5.52
0
VERTEX
10
8.90719
20
9.43714
30
5.52
0
VERTEX
10
8.88945
20
9.43271
30
5.52
0
VERTEX
10
8.88058
20
9.42606
30
5.52
0
VERTEX
10
8.86284
20
9.42384
30
5.52
0
VERTEX
10
8.85398
20
9.42384
30
5.52
0
VERTEX
10
8.83845
20
9.41054
30
5.52
0
VERTEX
10
8.83402
20
9.4061
30
5.52
0
VERTEX
10
8.8318
20
9.38836
30
5.52
0
VERTEX
10
8.83402
20
9.35288
30
5.52
0
VERTEX
10
8.8318
20
9.31741
30
5.52
0
VERTEX
10
8.82958
20
9.30854
30
5.52
0
VERTEX
10
8.82293
20
9.29967
30
5.52
0
VERTEX
10
8.81628
20
9.28193
30
5.52
0
VERTEX
10
8.81406
20
9.27306
30
5.52
0
VERTEX
10
8.80076
20
9.25532
30
5.52
0
VERTEX
10
8.79854
20
9.24645
30
5.52
0
VERTEX
10
8.78302
20
9.22871
30
5.52
0
VERTEX
10
8.77858
20
9.19323
30
5.52
0
VERTEX
10
8.77858
20
9.1888
30
5.52
0
VERTEX
10
8.77193
20
9.18215
30
5.52
0
VERTEX
10
8.7675
20
9.16441
30
5.52
0
VERTEX
10
8.7675
20
9.15554
30
5.52
0
VERTEX
10
8.76085
20
9.14889
30
5.52
0
VERTEX
10
8.75863
20
9.13115
30
5.52
0
VERTEX
10
8.75863
20
9.12449
30
5.52
0
SEQEND
0
POLYLINE
62
224
66
1
70
1
3
mitochondrion
0
VERTEX
10
9.04336
20
9.15598
30
5.52
0
VERTEX
10
9.0517
20
9.13373
30
5.52
0
VERTEX
10
9.06004
20
9.124
30
5.52
0
VERTEX
10
9.0809
20
9.1101
30
5.52
0
VERTEX
10
9.08368
20
9.10732
30
5.52
0
VERTEX
10
9.0948
20
9.10454
30
5.52
0
VERTEX
10
9.09758
20
9.10175
30
5.52
0
VERTEX
10
9.10732
20
9.09758
30
5.52
0
VERTEX
10
9.11288
20
9.0948
30
5.52
0
VERTEX
10
9.124
20
9.0948
30
5.52
0
VERTEX
10
9.13512
20
9.09758
30
5.52
0
VERTEX
10
9.14069
20
9.09758
30
5.52
0
VERTEX
10
9.15042
20
9.10175
30
5.52
0
VERTEX
10
9.15598
20
9.10175
30
5.52
0
VERTEX
10
9.16154
20
9.10593
30
5.52
0
VERTEX
10
9.16293
20
9.10871
30
5.52
0
VERTEX
10
9.16571
20
9.10871
30
5.52
0
VERTEX
10
9.17128
20
9.11288
30
5.52
0
VERTEX
10
9.17684
20
9.11427
30
5.52
0
VERTEX
10
9.18657
20
9.124
30
5.52
0
VERTEX
10
9.18935
20
9.12261
30
5.52
0
VERTEX
10
9.19491
20
9.12678
30
5.52
0
VERTEX
10
9.19491
20
9.12956
30
5.52
0
VERTEX
10
9.20187
20
9.14069
30
5.52
0
VERTEX
10
9.20604
20
9.14347
30
5.52
0
VERTEX
10
9.20604
20
9.14625
30
5.52
0
VERTEX
10
9.21021
20
9.15181
30
5.52
0
VERTEX
10
9.21299
20
9.15459
30
5.52
0
VERTEX
10
9.21438
20
9.16015
30
5.52
0
VERTEX
10
9.21855
20
9.16432
30
5.52
0
VERTEX
10
9.21994
20
9.20882
30
5.52
0
VERTEX
10
9.21994
20
9.21438
30
5.52
0
VERTEX
10
9.21299
20
9.23663
30
5.52
0
VERTEX
10
9.20743
20
9.24775
30
5.52
0
VERTEX
10
9.20326
20
9.25331
30
5.52
0
VERTEX
10
9.20187
20
9.2547
30
5.52
0
VERTEX
10
9.20326
20
9.25748
30
5.52
0
VERTEX
10
9.1963
20
9.26722
30
5.52
0
VERTEX
10
9.19213
20
9.27834
30
5.52
0
VERTEX
10
9.17684
20
9.2978
30
5.52
0
VERTEX
10
9.1671
20
9.30476
30
5.52
0
VERTEX
10
9.15598
20
9.30893
30
5.52
0
VERTEX
10
9.13373
20
9.30893
30
5.52
0
VERTEX
10
9.12261
20
9.30893
30
5.52
0
VERTEX
10
9.11149
20
9.30476
30
5.52
0
VERTEX
10
9.10871
20
9.30476
30
5.52
0
VERTEX
10
9.10036
20
9.29641
30
5.52
0
VERTEX
10
9.10036
20
9.29363
30
5.52
0
VERTEX
10
9.09758
20
9.29363
30
5.52
0
VERTEX
10
9.09063
20
9.2839
30
5.52
0
VERTEX
10
9.08368
20
9.27695
30
5.52
0
VERTEX
10
9.07951
20
9.26582
30
5.52
0
VERTEX
10
9.07395
20
9.26165
30
5.52
0
VERTEX
10
9.07116
20
9.25053
30
5.52
0
VERTEX
10
9.07116
20
9.24497
30
5.52
0
VERTEX
10
9.0656
20
9.2408
30
5.52
0
VERTEX
10
9.06282
20
9.22967
30
5.52
0
VERTEX
10
9.06004
20
9.22411
30
5.52
0
VERTEX
10
9.06004
20
9.21299
30
5.52
0
VERTEX
10
9.05587
20
9.20187
30
5.52
0
VERTEX
10
9.05587
20
9.19074
30
5.52
0
VERTEX
10
9.05587
20
9.18518
30
5.52
0
VERTEX
10
9.04614
20
9.16293
30
5.52
0
VERTEX
10
9.04336
20
9.15737
30
5.52
0
SEQEND
0
POLYLINE
62
227
66
1
70
1
3
endoplasmic_reticulum
0
VERTEX
10
8.91618
20
9.19439
30
5.52
0
VERTEX
10
8.92179
20
9.17644
30
5.52
0
VERTEX
10
8.92291
20
9.1742
30
5.52
0
VERTEX
10
8.94086
20
9.17644
30
5.52
0
VERTEX
10
8.94984
20
9.17757
30
5.52
0
VERTEX
10
8.95432
20
9.17869
30
5.52
0
VERTEX
10
8.95993
20
9.18542
30
5.52
0
VERTEX
10
8.9633
20
9.18878
30
5.52
0
VERTEX
10
8.9633
20
9.19327
30
5.52
0
VERTEX
10
8.96891
20
9.20225
30
5.52
0
VERTEX
10
8.97003
20
9.21122
30
5.52
0
VERTEX
10
8.97676
20
9.22917
30
5.52
0
VERTEX
10
8.98013
20
9.23253
30
5.52
0
VERTEX
10
8.98125
20
9.24151
30
5.52
0
VERTEX
10
8.979
20
9.246
30
5.52
0
VERTEX
10
8.97003
20
9.24936
30
5.52
0
VERTEX
10
8.96106
20
9.25048
30
5.52
0
VERTEX
10
8.94311
20
9.24712
30
5.52
0
VERTEX
10
8.93862
20
9.24487
30
5.52
0
VERTEX
10
8.93638
20
9.24039
30
5.52
0
VERTEX
10
8.9274
20
9.23478
30
5.52
0
VERTEX
10
8.92067
20
9.21683
30
5.52
0
VERTEX
10
8.91843
20
9.21459
30
5.52
0
VERTEX
10
8.91618
20
9.20561
30
5.52
0
VERTEX
10
8.91618
20
9.19664
30
5.52
0
VERTEX
10
8.91618
20
9.19551
30
5.52
0
SEQEND
0
POLYLINE
62
227
66
1
70
1
3
endoplasmic_reticulum
0
VERTEX
10
8.91282
20
9.13381
30
5.52
0
VERTEX
10
8.91618
20
9.12484
30
5.52
0
VERTEX
10
8.91618
20
9.12035
30
5.52
0
VERTEX
10
8.91955
20
9.11699
30
5.52
0
VERTEX
10
8.92179
20
9.10801
30
5.52
0
VERTEX
10
8.92179
20
9.10577
30
5.52
0
VERTEX
10
8.92404
20
9.10353
30
5.52
0
VERTEX
10
8.92404
20
9.09904
30
5.52
0
VERTEX
10
8.92964
20
9.09119
30
5.52
0
VERTEX
10
8.93189
20
9.08894
30
5.52
0
VERTEX
10
8.94086
20
9.08782
30
5.52
0
VERTEX
10
8.94984
20
9.08894
30
5.52
0
VERTEX
10
8.95432
20
9.08894
30
5.52
0
VERTEX
10
8.95657
20
9.09119
30
5.52
0
VERTEX
10
8.95881
20
9.09119
30
5.52
0
VERTEX
10
8.97115
20
9.10577
30
5.52
0
VERTEX
10
8.97564
20
9.10913
30
5.52
0
VERTEX
10
8.97788
20
9.10913
30
5.52
0
VERTEX
10
8.979
20
9.11811
30
5.52
0
VERTEX
10
8.979
20
9.1226
30
5.52
0
VERTEX
10
8.97227
20
9.14055
30
5.52
0
VERTEX
10
8.97115
20
9.14503
30
5.52
0
VERTEX
10
8.96891
20
9.14728
30
5.52
0
VERTEX
10
8.96779
20
9.15176
30
5.52
0
VERTEX
10
8.96218
20
9.16074
30
5.52
0
VERTEX
10
8.95769
20
9.16635
30
5.52
0
VERTEX
10
8.94872
20
9.16971
30
5.52
0
VERTEX
10
8.93077
20
9.16859
30
5.52
0
VERTEX
10
8.92291
20
9.16074
30
5.52
0
VERTEX
10
8.91843
20
9.15737
30
5.52
0
VERTEX
10
8.91618
20
9.15513
30
5.52
0
VERTEX
10
8.91618
20
9.15289
30
5.52
0
VERTEX
10
8.91394
20
9.15064
30
5.52
0
VERTEX
10
8.91282
20
9.14167
30
5.52
0
VERTEX
10
8.91282
20
9.13718
30
5.52
0
VERTEX
10
8.91282
20
9.13494
30
5.52
0
SEQEND
0
ENDSEC
0
EOF
