0
SECTION
2
ENTITIES
0
POLYLINE
62
31
66
1
70
1
3
contour
0
VERTEX
10
10.33
20
8.82827
30
3.2
0
VERTEX
10
10.3354
20
8.81741
30
3.2
0
VERTEX
10
10.3354
20
8.81198
30
3.2
0
VERTEX
10
10.3408
20
8.80654
30
3.2
0
VERTEX
10
10.349
20
8.78482
30
3.2
0
VERTEX
10
10.3544
20
8.77396
30
3.2
0
VERTEX
10
10.3544
20
8.76853
30
3.2
0
VERTEX
10
10.3707
20
8.74952
30
3.2
0
VERTEX
10
10.4142
20
8.73051
30
3.2
0
VERTEX
10
10.4576
20
8.72236
30
3.2
0
VERTEX
10
10.5011
20
8.71965
30
3.2
0
VERTEX
10
10.5228
20
8.71422
30
3.2
0
VERTEX
10
10.5662
20
8.7115
30
3.2
0
VERTEX
10
10.6097
20
8.71422
30
3.2
0
VERTEX
10
10.6205
20
8.71693
30
3.2
0
VERTEX
10
10.6395
20
8.73866
30
3.2
0
VERTEX
10
10.6558
20
8.75495
30
3.2
0
VERTEX
10
10.6613
20
8.76038
30
3.2
0
VERTEX
10
10.6613
20
8.76581
30
3.2
0
VERTEX
10
10.6966
20
8.80111
30
3.2
0
VERTEX
10
10.7047
20
8.80926
30
3.2
0
VERTEX
10
10.7129
20
8.83098
30
3.2
0
VERTEX
10
10.7183
20
8.83642
30
3.2
0
VERTEX
10
10.721
20
8.84728
30
3.2
0
VERTEX
10
10.7264
20
8.85271
30
3.2
0
VERTEX
10
10.7319
20
8.87443
30
3.2
0
VERTEX
10
10.7373
20
8.8853
30
3.2
0
VERTEX
10
10.7373
20
8.97219
30
3.2
0
VERTEX
10
10.7346
20
8.99392
30
3.2
0
VERTEX
10
10.7346
20
9.00478
30
3.2
0
VERTEX
10
10.7292
20
9.01021
30
3.2
0
VERTEX
10
10.7264
20
9.03194
30
3.2
0
VERTEX
10
10.6911
20
9.06724
30
3.2
0
VERTEX
10
10.6694
20
9.08353
30
3.2
0
VERTEX
10
10.6477
20
9.08896
30
3.2
0
VERTEX
10
10.6368
20
9.09168
30
3.2
0
VERTEX
10
10.6314
20
9.09711
30
3.2
0
VERTEX
10
10.6205
20
9.09982
30
3.2
0
VERTEX
10
10.6151
20
9.09982
30
3.2
0
VERTEX
10
10.5961
20
9.1134
30
3.2
0
VERTEX
10
10.5852
20
9.11612
30
3.2
0
VERTEX
10
10.5635
20
9.13513
30
3.2
0
VERTEX
10
10.5445
20
9.1487
30
3.2
0
VERTEX
10
10.5499
20
9.15414
30
3.2
0
VERTEX
10
10.5391
20
9.15685
30
3.2
0
VERTEX
10
10.4956
20
9.1487
30
3.2
0
VERTEX
10
10.4739
20
9.14599
30
3.2
0
VERTEX
10
10.463
20
9.14327
30
3.2
0
VERTEX
10
10.4223
20
9.10797
30
3.2
0
VERTEX
10
10.4114
20
9.09711
30
3.2
0
VERTEX
10
10.3979
20
9.07538
30
3.2
0
VERTEX
10
10.3897
20
9.06724
30
3.2
0
VERTEX
10
10.3816
20
9.04551
30
3.2
0
VERTEX
10
10.3517
20
9.00478
30
3.2
0
VERTEX
10
10.3381
20
8.98306
30
3.2
0
VERTEX
10
10.33
20
8.93961
30
3.2
0
VERTEX
10
10.33
20
8.85271
30
3.2
0
VERTEX
10
10.33
20
8.83098
30
3.2
0
SEQEND
0
POLYLINE
62
31
66
1
70
1
3
contour
0
VERTEX
10
9.84444
20
7.79474
30
3.2
0
VERTEX
10
9.85748
20
7.7426
30
3.2
0
VERTEX
10
9.86725
20
7.73282
30
3.2
0
VERTEX
10
9.87051
20
7.71979
30
3.2
0
VERTEX
10
9.88681
20
7.69372
30
3.2
0
VERTEX
10
9.90962
20
7.67417
30
3.2
0
VERTEX
10
9.93569
20
7.66113
30
3.2
0
VERTEX
10
9.94872
20
7.66113
30
3.2
0
VERTEX
10
9.96175
20
7.65136
30
3.2
0
VERTEX
10
9.97479
20
7.65136
30
3.2
0
VERTEX
10
9.98131
20
7.65136
30
3.2
0
VERTEX
10
9.98457
20
7.64484
30
3.2
0
VERTEX
10
9.9976
20
7.64158
30
3.2
0
VERTEX
10
10.0106
20
7.63181
30
3.2
0
VERTEX
10
10.0204
20
7.60574
30
3.2
0
VERTEX
10
10.0269
20
7.5927
30
3.2
0
VERTEX
10
10.0334
20
7.58944
30
3.2
0
VERTEX
10
10.0432
20
7.56337
30
3.2
0
VERTEX
10
10.0563
20
7.5536
30
3.2
0
VERTEX
10
10.066
20
7.50146
30
3.2
0
VERTEX
10
10.0693
20
7.47539
30
3.2
0
VERTEX
10
10.0725
20
7.46235
30
3.2
0
VERTEX
10
10.0823
20
7.44932
30
3.2
0
VERTEX
10
10.0856
20
7.42325
30
3.2
0
VERTEX
10
10.1051
20
7.40044
30
3.2
0
VERTEX
10
10.1084
20
7.38741
30
3.2
0
VERTEX
10
10.1345
20
7.38089
30
3.2
0
VERTEX
10
10.1866
20
7.39066
30
3.2
0
VERTEX
10
10.3952
20
7.38741
30
3.2
0
VERTEX
10
10.4994
20
7.38415
30
3.2
0
VERTEX
10
10.5516
20
7.38415
30
3.2
0
VERTEX
10
10.5776
20
7.38741
30
3.2
0
VERTEX
10
10.5842
20
7.41347
30
3.2
0
VERTEX
10
10.5842
20
7.42651
30
3.2
0
VERTEX
10
10.5776
20
7.43303
30
3.2
0
VERTEX
10
10.5711
20
7.43303
30
3.2
0
VERTEX
10
10.5711
20
7.43954
30
3.2
0
VERTEX
10
10.5516
20
7.45584
30
3.2
0
VERTEX
10
10.5516
20
7.46235
30
3.2
0
VERTEX
10
10.5385
20
7.47539
30
3.2
0
VERTEX
10
10.5353
20
7.48842
30
3.2
0
VERTEX
10
10.5157
20
7.51449
30
3.2
0
VERTEX
10
10.506
20
7.52427
30
3.2
0
VERTEX
10
10.506
20
7.53079
30
3.2
0
VERTEX
10
10.4864
20
7.5536
30
3.2
0
VERTEX
10
10.4734
20
7.56337
30
3.2
0
VERTEX
10
10.4701
20
7.58618
30
3.2
0
VERTEX
10
10.4668
20
7.59922
30
3.2
0
VERTEX
10
10.4668
20
7.60574
30
3.2
0
VERTEX
10
10.4571
20
7.61225
30
3.2
0
VERTEX
10
10.431
20
7.63506
30
3.2
0
VERTEX
10
10.4245
20
7.6481
30
3.2
0
VERTEX
10
10.4212
20
7.65136
30
3.2
0
VERTEX
10
10.4277
20
7.65787
30
3.2
0
VERTEX
10
10.431
20
7.68394
30
3.2
0
VERTEX
10
10.4343
20
7.69698
30
3.2
0
VERTEX
10
10.4473
20
7.70675
30
3.2
0
VERTEX
10
10.4506
20
7.71979
30
3.2
0
VERTEX
10
10.4571
20
7.72631
30
3.2
0
VERTEX
10
10.4636
20
7.77845
30
3.2
0
VERTEX
10
10.4636
20
7.83058
30
3.2
0
VERTEX
10
10.4668
20
7.85665
30
3.2
0
VERTEX
10
10.4799
20
7.86969
30
3.2
0
VERTEX
10
10.532
20
7.85991
30
3.2
0
VERTEX
10
10.5842
20
7.85665
30
3.2
0
VERTEX
10
10.6102
20
7.86643
30
3.2
0
VERTEX
10
10.6167
20
7.87946
30
3.2
0
VERTEX
10
10.6135
20
7.9316
30
3.2
0
VERTEX
10
10.6102
20
7.95767
30
3.2
0
VERTEX
10
10.6102
20
7.97071
30
3.2
0
VERTEX
10
10.6037
20
7.97722
30
3.2
0
VERTEX
10
10.5939
20
8.00329
30
3.2
0
VERTEX
10
10.5874
20
8.00981
30
3.2
0
VERTEX
10
10.5809
20
8.00981
30
3.2
0
VERTEX
10
10.5744
20
8.01633
30
3.2
0
VERTEX
10
10.5222
20
8.01307
30
3.2
0
VERTEX
10
10.5157
20
8.00981
30
3.2
0
VERTEX
10
10.4962
20
8.03262
30
3.2
0
VERTEX
10
10.4864
20
8.05869
30
3.2
0
VERTEX
10
10.4799
20
8.06195
30
3.2
0
VERTEX
10
10.4636
20
8.11409
30
3.2
0
VERTEX
10
10.4636
20
8.12061
30
3.2
0
VERTEX
10
10.4538
20
8.13364
30
3.2
0
VERTEX
10
10.4506
20
8.14668
30
3.2
0
VERTEX
10
10.4506
20
8.15319
30
3.2
0
VERTEX
10
10.4343
20
8.176
30
3.2
0
VERTEX
10
10.4115
20
8.20207
30
3.2
0
VERTEX
10
10.3854
20
8.21837
30
3.2
0
VERTEX
10
10.3332
20
8.23466
30
3.2
0
VERTEX
10
10.2844
20
8.25747
30
3.2
0
VERTEX
10
10.2583
20
8.27376
30
3.2
0
VERTEX
10
10.2453
20
8.28028
30
3.2
0
VERTEX
10
10.2387
20
8.2868
30
3.2
0
VERTEX
10
10.2387
20
8.29332
30
3.2
0
VERTEX
10
10.2192
20
8.31287
30
3.2
0
VERTEX
10
10.2062
20
8.31938
30
3.2
0
VERTEX
10
10.1931
20
8.33242
30
3.2
0
VERTEX
10
10.1671
20
8.32916
30
3.2
0
VERTEX
10
10.141
20
8.31287
30
3.2
0
VERTEX
10
10.0888
20
8.29332
30
3.2
0
VERTEX
10
10.0628
20
8.2868
30
3.2
0
VERTEX
10
10.0497
20
8.2868
30
3.2
0
VERTEX
10
10.0367
20
8.28028
30
3.2
0
VERTEX
10
10.0269
20
8.26725
30
3.2
0
VERTEX
10
10.0009
20
8.25747
30
3.2
0
VERTEX
10
9.99108
20
8.24769
30
3.2
0
VERTEX
10
9.98131
20
8.22162
30
3.2
0
VERTEX
10
9.97479
20
8.21511
30
3.2
0
VERTEX
10
9.96827
20
8.18904
30
3.2
0
VERTEX
10
9.96175
20
8.176
30
3.2
0
VERTEX
10
9.94872
20
8.16297
30
3.2
0
VERTEX
10
9.94546
20
8.1369
30
3.2
0
VERTEX
10
9.92917
20
8.11083
30
3.2
0
VERTEX
10
9.90636
20
8.08802
30
3.2
0
VERTEX
10
9.89006
20
8.06521
30
3.2
0
VERTEX
10
9.88029
20
8.03914
30
3.2
0
VERTEX
10
9.87377
20
8.0261
30
3.2
0
VERTEX
10
9.86725
20
8.01959
30
3.2
0
VERTEX
10
9.85748
20
7.96745
30
3.2
0
VERTEX
10
9.85422
20
7.86317
30
3.2
0
VERTEX
10
9.84444
20
7.84036
30
3.2
0
VERTEX
10
9.84444
20
7.81429
30
3.2
0
VERTEX
10
9.84444
20
7.80126
30
3.2
0
VERTEX
10
9.84444
20
7.798
30
3.2
0
SEQEND
0
POLYLINE
62
224
66
1
70
1
3
mitochondrion
0
VERTEX
10
10.109
20
8.00313
30
3.2
0
VERTEX
10
10.1167
20
7.96164
30
3.2
0
VERTEX
10
10.1193
20
7.95127
30
3.2
0
VERTEX
10
10.1245
20
7.94608
30
3.2
0
VERTEX
10
10.1245
20
7.93571
30
3.2
0
VERTEX
10
10.1323
20
7.91496
30
3.2
0
VERTEX
10
10.1375
20
7.90459
30
3.2
0
VERTEX
10
10.179
20
7.88125
30
3.2
0
VERTEX
10
10.1971
20
7.87606
30
3.2
0
VERTEX
10
10.2075
20
7.87087
30
3.2
0
VERTEX
10
10.2101
20
7.86569
30
3.2
0
VERTEX
10
10.2308
20
7.86309
30
3.2
0
VERTEX
10
10.2412
20
7.8605
30
3.2
0
VERTEX
10
10.2438
20
7.85531
30
3.2
0
VERTEX
10
10.2542
20
7.85531
30
3.2
0
VERTEX
10
10.2594
20
7.85531
30
3.2
0
VERTEX
10
10.262
20
7.85013
30
3.2
0
VERTEX
10
10.3035
20
7.84753
30
3.2
0
VERTEX
10
10.3242
20
7.85531
30
3.2
0
VERTEX
10
10.3294
20
7.85531
30
3.2
0
VERTEX
10
10.3501
20
7.86828
30
3.2
0
VERTEX
10
10.3553
20
7.87087
30
3.2
0
VERTEX
10
10.3631
20
7.91237
30
3.2
0
VERTEX
10
10.3657
20
7.95127
30
3.2
0
VERTEX
10
10.3709
20
7.95386
30
3.2
0
VERTEX
10
10.3683
20
7.97461
30
3.2
0
VERTEX
10
10.3501
20
7.99017
30
3.2
0
VERTEX
10
10.3449
20
8.00054
30
3.2
0
VERTEX
10
10.3398
20
8.00313
30
3.2
0
VERTEX
10
10.3398
20
8.01351
30
3.2
0
VERTEX
10
10.3398
20
8.0187
30
3.2
0
VERTEX
10
10.3242
20
8.03685
30
3.2
0
VERTEX
10
10.3138
20
8.04204
30
3.2
0
VERTEX
10
10.3035
20
8.05241
30
3.2
0
VERTEX
10
10.262
20
8.07056
30
3.2
0
VERTEX
10
10.2412
20
8.07834
30
3.2
0
VERTEX
10
10.1997
20
8.08094
30
3.2
0
VERTEX
10
10.179
20
8.09909
30
3.2
0
VERTEX
10
10.1582
20
8.09131
30
3.2
0
VERTEX
10
10.1427
20
8.07575
30
3.2
0
VERTEX
10
10.1323
20
8.06538
30
3.2
0
VERTEX
10
10.1193
20
8.04722
30
3.2
0
VERTEX
10
10.1115
20
8.03685
30
3.2
0
VERTEX
10
10.109
20
8.0161
30
3.2
0
VERTEX
10
10.109
20
8.00573
30
3.2
0
SEQEND
0
POLYLINE
62
227
66
1
70
1
3
endoplasmic_reticulum
0
VERTEX
10
10.0329
20
8.12183
30
3.2
0
VERTEX
10
10.0385
20
8.1069
30
3.2
0
VERTEX
10
10.0515
20
8.09571
30
3.2
0
VERTEX
10
10.059
20
8.09384
30
3.2
0
VERTEX
10
10.0739
20
8.09757
30
3.2
0
VERTEX
10
10.0814
20
8.1013
30
3.2
0
VERTEX
10
10.0851
20
8.1013
30
3.2
0
VERTEX
10
10.0907
20
8.1069
30
3.2
0
VERTEX
10
10.0944
20
8.1069
30
3.2
0
VERTEX
10
10.1243
20
8.12743
30
3.2
0
VERTEX
10
10.1392
20
8.1293
30
3.2
0
VERTEX
10
10.1542
20
8.1349
30
3.2
0
VERTEX
10
10.1691
20
8.13676
30
3.2
0
VERTEX
10
10.184
20
8.14609
30
3.2
0
VERTEX
10
10.1877
20
8.15356
30
3.2
0
VERTEX
10
10.1859
20
8.16102
30
3.2
0
VERTEX
10
10.1822
20
8.16476
30
3.2
0
VERTEX
10
10.1803
20
8.17222
30
3.2
0
VERTEX
10
10.1579
20
8.19835
30
3.2
0
VERTEX
10
10.1448
20
8.20955
30
3.2
0
VERTEX
10
10.1374
20
8.21141
30
3.2
0
VERTEX
10
10.1075
20
8.20395
30
3.2
0
VERTEX
10
10.1
20
8.20208
30
3.2
0
VERTEX
10
10.0944
20
8.19648
30
3.2
0
VERTEX
10
10.0646
20
8.18342
30
3.2
0
VERTEX
10
10.0571
20
8.17969
30
3.2
0
VERTEX
10
10.0366
20
8.14983
30
3.2
0
VERTEX
10
10.0329
20
8.1349
30
3.2
0
VERTEX
10
10.0329
20
8.12743
30
3.2
0
VERTEX
10
10.0329
20
8.1237
30
3.2
0
SEQEND
0
POLYLINE
62
227
66
1
70
1
3
endoplasmic_reticulum
0
VERTEX
10
9.9638
20
8.02852
30
3.2
0
VERTEX
10
9.96753
20
8.02106
30
3.2
0
VERTEX
10
9.97127
20
8.01919
30
3.2
0
VERTEX
10
9.97127
20
8.01546
30
3.2
0
VERTEX
10
9.9862
20
8.00799
30
3.2
0
VERTEX
10
9.99366
20
8.00426
30
3.2
0
VERTEX
10
10.0235
20
8.00613
30
3.2
0
VERTEX
10
10.031
20
8.00986
30
3.2
0
VERTEX
10
10.0329
20
8.01359
30
3.2
0
VERTEX
10
10.031
20
8.02106
30
3.2
0
VERTEX
10
10.031
20
8.02479
30
3.2
0
VERTEX
10
10.0217
20
8.03972
30
3.2
0
VERTEX
10
10.0161
20
8.05278
30
3.2
0
VERTEX
10
10.0067
20
8.06771
30
3.2
0
VERTEX
10
10.0011
20
8.07331
30
3.2
0
VERTEX
10
9.9862
20
8.07331
30
3.2
0
VERTEX
10
9.98246
20
8.07331
30
3.2
0
VERTEX
10
9.97127
20
8.06025
30
3.2
0
VERTEX
10
9.9638
20
8.04532
30
3.2
0
VERTEX
10
9.9638
20
8.03039
30
3.2
0
SEQEND
0
POLYLINE
62
227
66
1
70
1
3
endoplasmic_reticulum
0
VERTEX
10
10.0739
20
7.76352
30
3.2
0
VERTEX
10
10.0814
20
7.76165
30
3.2
0
VERTEX
10
10.0963
20
7.76352
30
3.2
0
VERTEX
10
10.1038
20
7.76538
30
3.2
0
VERTEX
10
10.1075
20
7.76538
30
3.2
0
VERTEX
10
10.1112
20
7.76912
30
3.2
0
VERTEX
10
10.115
20
7.76912
30
3.2
0
VERTEX
10
10.1262
20
7.78218
30
3.2
0
VERTEX
10
10.1392
20
7.78964
30
3.2
0
VERTEX
10
10.1467
20
7.80457
30
3.2
0
VERTEX
10
10.1318
20
7.80644
30
3.2
0
VERTEX
10
10.1168
20
7.80457
30
3.2
0
VERTEX
10
10.1094
20
7.80271
30
3.2
0
VERTEX
10
10.1019
20
7.79711
30
3.2
0
VERTEX
10
10.0944
20
7.79524
30
3.2
0
VERTEX
10
10.0907
20
7.79151
30
3.2
0
VERTEX
10
10.0907
20
7.78778
30
3.2
0
VERTEX
10
10.0851
20
7.78218
30
3.2
0
VERTEX
10
10.0776
20
7.78031
30
3.2
0
VERTEX
10
10.0739
20
7.77285
30
3.2
0
VERTEX
10
10.0739
20
7.76538
30
3.2
0
SEQEND
0
POLYLINE
62
227
66
1
70
1
3
endoplasmic_reticulum
0
VERTEX
10
10.0496
20
7.66647
30
3.2
0
VERTEX
10
10.0552
20
7.65154
30
3.2
0
VERTEX
10
10.0571
20
7.64408
30
3.2
0
VERTEX
10
10.0608
20
7.64221
30
3.2
0
VERTEX
10
10.0758
20
7.64781
30
3.2
0
VERTEX
10
10.0814
20
7.65154
30
3.2
0
VERTEX
10
10.0851
20
7.65154
30
3.2
0
VERTEX
10
10.0888
20
7.65528
30
3.2
0
VERTEX
10
10.1187
20
7.66274
30
3.2
0
VERTEX
10
10.1486
20
7.66461
30
3.2
0
VERTEX
10
10.1635
20
7.66647
30
3.2
0
VERTEX
10
10.1766
20
7.67394
30
3.2
0
VERTEX
10
10.1877
20
7.68514
30
3.2
0
VERTEX
10
10.1933
20
7.69073
30
3.2
0
VERTEX
10
10.1933
20
7.69447
30
3.2
0
VERTEX
10
10.1803
20
7.7094
30
3.2
0
VERTEX
10
10.1224
20
7.72992
30
3.2
0
VERTEX
10
10.1075
20
7.72806
30
3.2
0
VERTEX
10
10.1
20
7.72619
30
3.2
0
VERTEX
10
10.087
20
7.71313
30
3.2
0
VERTEX
10
10.0795
20
7.70753
30
3.2
0
VERTEX
10
10.072
20
7.70753
30
3.2
0
VERTEX
10
10.0683
20
7.7094
30
3.2
0
VERTEX
10
10.0552
20
7.69633
30
3.2
0
VERTEX
10
10.0496
20
7.68887
30
3.2
0
VERTEX
10
10.0496
20
7.67394
30
3.2
0
VERTEX
10
10.0496
20
7.66834
30
3.2
0
SEQEND
0
POLYLINE
62
227
66
1
70
1
3
endoplasmic_reticulum
0
VERTEX
10
10.0982
20
7.56196
30
3.2
0
VERTEX
10
10.1112
20
7.5489
30
3.2
0
VERTEX
10
10.1168
20
7.54144
30
3.2
0
VERTEX
10
10.1318
20
7.53957
30
3.2
0
VERTEX
10
10.143
20
7.5489
30
3.2
0
VERTEX
10
10.143
20
7.56383
30
3.2
0
VERTEX
10
10.143
20
7.5713
30
3.2
0
VERTEX
10
10.1355
20
7.58622
30
3.2
0
VERTEX
10
10.1318
20
7.58622
30
3.2
0
VERTEX
10
10.128
20
7.58996
30
3.2
0
VERTEX
10
10.1131
20
7.58436
30
3.2
0
VERTEX
10
10.1056
20
7.58249
30
3.2
0
VERTEX
10
10.1019
20
7.58249
30
3.2
0
VERTEX
10
10.0982
20
7.57503
30
3.2
0
VERTEX
10
10.0982
20
7.56756
30
3.2
0
VERTEX
10
10.0982
20
7.56383
30
3.2
0
SEQEND
0
ENDSEC
0
EOF
