0
SECTION
2
ENTITIES
0
POLYLINE
62
31
66
1
70
1
3
contour
0
VERTEX
10
8.90941
20
9.33515
30
6.2
0
VERTEX
10
8.91163
20
9.32628
30
6.2
0
VERTEX
10
8.91163
20
9.32184
30
6.2
0
VERTEX
10
8.92937
20
9.31962
30
6.2
0
VERTEX
10
8.96484
20
9.32628
30
6.2
0
VERTEX
10
8.98258
20
9.32849
30
6.2
0
VERTEX
10
9.00032
20
9.32406
30
6.2
0
VERTEX
10
9.07128
20
9.32406
30
6.2
0
VERTEX
10
9.08902
20
9.32406
30
6.2
0
VERTEX
10
9.10676
20
9.31741
30
6.2
0
VERTEX
10
9.11563
20
9.31519
30
6.2
0
VERTEX
10
9.13336
20
9.30188
30
6.2
0
VERTEX
10
9.16884
20
9.28636
30
6.2
0
VERTEX
10
9.18658
20
9.28415
30
6.2
0
VERTEX
10
9.20432
20
9.28636
30
6.2
0
VERTEX
10
9.20876
20
9.2908
30
6.2
0
VERTEX
10
9.22649
20
9.29302
30
6.2
0
VERTEX
10
9.23536
20
9.29302
30
6.2
0
VERTEX
10
9.24423
20
9.29967
30
6.2
0
VERTEX
10
9.27971
20
9.3041
30
6.2
0
VERTEX
10
9.35067
20
9.29745
30
6.2
0
VERTEX
10
9.38615
20
9.29523
30
6.2
0
VERTEX
10
9.42162
20
9.29745
30
6.2
0
VERTEX
10
9.43936
20
9.3041
30
6.2
0
VERTEX
10
9.4571
20
9.31519
30
6.2
0
VERTEX
10
9.45932
20
9.32406
30
6.2
0
VERTEX
10
9.46597
20
9.33071
30
6.2
0
VERTEX
10
9.47041
20
9.34845
30
6.2
0
VERTEX
10
9.47484
20
9.35732
30
6.2
0
VERTEX
10
9.47484
20
9.36619
30
6.2
0
VERTEX
10
9.47927
20
9.37062
30
6.2
0
VERTEX
10
9.4948
20
9.44158
30
6.2
0
VERTEX
10
9.50145
20
9.45932
30
6.2
0
VERTEX
10
9.50588
20
9.4948
30
6.2
0
VERTEX
10
9.50588
20
9.56575
30
6.2
0
VERTEX
10
9.50145
20
9.58349
30
6.2
0
VERTEX
10
9.49923
20
9.59236
30
6.2
0
VERTEX
10
9.49923
20
9.5968
30
6.2
0
VERTEX
10
9.4948
20
9.60123
30
6.2
0
VERTEX
10
9.49258
20
9.6101
30
6.2
0
VERTEX
10
9.47706
20
9.62784
30
6.2
0
VERTEX
10
9.47262
20
9.63227
30
6.2
0
VERTEX
10
9.46819
20
9.63227
30
6.2
0
VERTEX
10
9.46375
20
9.63671
30
6.2
0
VERTEX
10
9.45488
20
9.63893
30
6.2
0
VERTEX
10
9.44601
20
9.64558
30
6.2
0
VERTEX
10
9.42828
20
9.65223
30
6.2
0
VERTEX
10
9.3928
20
9.65888
30
6.2
0
VERTEX
10
9.37506
20
9.65888
30
6.2
0
VERTEX
10
9.35732
20
9.65445
30
6.2
0
VERTEX
10
9.28636
20
9.65223
30
6.2
0
VERTEX
10
9.25089
20
9.65001
30
6.2
0
VERTEX
10
9.23315
20
9.64114
30
6.2
0
VERTEX
10
9.21541
20
9.63671
30
6.2
0
VERTEX
10
9.21097
20
9.63227
30
6.2
0
VERTEX
10
9.20654
20
9.63227
30
6.2
0
VERTEX
10
9.19102
20
9.62119
30
6.2
0
VERTEX
10
9.18658
20
9.62119
30
6.2
0
VERTEX
10
9.17771
20
9.61453
30
6.2
0
VERTEX
10
9.15997
20
9.6101
30
6.2
0
VERTEX
10
9.12671
20
9.59458
30
6.2
0
VERTEX
10
9.12449
20
9.59014
30
6.2
0
VERTEX
10
9.10676
20
9.58571
30
6.2
0
VERTEX
10
9.10232
20
9.58127
30
6.2
0
VERTEX
10
9.03358
20
9.57462
30
6.2
0
VERTEX
10
9.04023
20
9.55688
30
6.2
0
VERTEX
10
9.04023
20
9.5214
30
6.2
0
VERTEX
10
9.05132
20
9.48593
30
6.2
0
VERTEX
10
9.05354
20
9.47706
30
6.2
0
VERTEX
10
9.05797
20
9.47262
30
6.2
0
VERTEX
10
9.06019
20
9.45488
30
6.2
0
VERTEX
10
9.06019
20
9.45045
30
6.2
0
VERTEX
10
9.05576
20
9.44601
30
6.2
0
VERTEX
10
9.05576
20
9.44158
30
6.2
0
VERTEX
10
9.04023
20
9.42606
30
6.2
0
VERTEX
10
9.0225
20
9.41941
30
6.2
0
VERTEX
10
9.01806
20
9.41497
30
6.2
0
VERTEX
10
9.01363
20
9.41497
30
6.2
0
VERTEX
10
9.00476
20
9.40832
30
6.2
0
VERTEX
10
9.00032
20
9.40388
30
6.2
0
VERTEX
10
8.96484
20
9.40167
30
6.2
0
VERTEX
10
8.95597
20
9.39723
30
6.2
0
VERTEX
10
8.93824
20
9.39501
30
6.2
0
VERTEX
10
8.92937
20
9.3928
30
6.2
0
VERTEX
10
8.91828
20
9.37728
30
6.2
0
VERTEX
10
8.91163
20
9.36841
30
6.2
0
VERTEX
10
8.90941
20
9.35067
30
6.2
0
VERTEX
10
8.90941
20
9.3418
30
6.2
0
VERTEX
10
8.90941
20
9.33736
30
6.2
0
SEQEND
0
POLYLINE
62
31
66
1
70
1
3
contour
0
VERTEX
10
7.20925
20
9.12745
30
6.2
0
VERTEX
10
7.21724
20
9.10614
30
6.2
0
VERTEX
10
7.22257
20
9.09548
30
6.2
0
VERTEX
10
7.23056
20
9.09015
30
6.2
0
VERTEX
10
7.23323
20
9.08482
30
6.2
0
VERTEX
10
7.23855
20
9.08482
30
6.2
0
VERTEX
10
7.25987
20
9.06618
30
6.2
0
VERTEX
10
7.2652
20
9.06618
30
6.2
0
VERTEX
10
7.27585
20
9.05818
30
6.2
0
VERTEX
10
7.31848
20
9.05818
30
6.2
0
VERTEX
10
7.33979
20
9.06085
30
6.2
0
VERTEX
10
7.35045
20
9.06085
30
6.2
0
VERTEX
10
7.36111
20
9.06884
30
6.2
0
VERTEX
10
7.40373
20
9.0715
30
6.2
0
VERTEX
10
7.41439
20
9.0715
30
6.2
0
VERTEX
10
7.41972
20
9.07683
30
6.2
0
VERTEX
10
7.50497
20
9.0715
30
6.2
0
VERTEX
10
7.5476
20
9.06085
30
6.2
0
VERTEX
10
7.56891
20
9.05818
30
6.2
0
VERTEX
10
7.59022
20
9.04753
30
6.2
0
VERTEX
10
7.61154
20
9.04486
30
6.2
0
VERTEX
10
7.62219
20
9.03953
30
6.2
0
VERTEX
10
7.66482
20
9.03687
30
6.2
0
VERTEX
10
7.70745
20
9.02888
30
6.2
0
VERTEX
10
7.75007
20
9.02888
30
6.2
0
VERTEX
10
7.77139
20
9.02888
30
6.2
0
VERTEX
10
7.7927
20
9.03687
30
6.2
0
VERTEX
10
7.81402
20
9.03953
30
6.2
0
VERTEX
10
7.82467
20
9.0422
30
6.2
0
VERTEX
10
7.82734
20
9.04753
30
6.2
0
VERTEX
10
7.83266
20
9.04753
30
6.2
0
VERTEX
10
7.84066
20
9.05818
30
6.2
0
VERTEX
10
7.84599
20
9.06085
30
6.2
0
VERTEX
10
7.84599
20
9.06618
30
6.2
0
VERTEX
10
7.86463
20
9.08216
30
6.2
0
VERTEX
10
7.87529
20
9.09282
30
6.2
0
VERTEX
10
7.91525
20
9.11946
30
6.2
0
VERTEX
10
7.92591
20
9.12745
30
6.2
0
VERTEX
10
7.93657
20
9.13012
30
6.2
0
VERTEX
10
7.96854
20
9.17008
30
6.2
0
VERTEX
10
7.97387
20
9.17274
30
6.2
0
VERTEX
10
7.97653
20
9.1834
30
6.2
0
VERTEX
10
7.98186
20
9.18606
30
6.2
0
VERTEX
10
7.98719
20
9.22869
30
6.2
0
VERTEX
10
7.98719
20
9.25
30
6.2
0
VERTEX
10
7.98719
20
9.25533
30
6.2
0
VERTEX
10
7.96854
20
9.27398
30
6.2
0
VERTEX
10
7.95522
20
9.29529
30
6.2
0
VERTEX
10
7.9339
20
9.31394
30
6.2
0
VERTEX
10
7.91525
20
9.32726
30
6.2
0
VERTEX
10
7.89394
20
9.34591
30
6.2
0
VERTEX
10
7.88328
20
9.34591
30
6.2
0
VERTEX
10
7.86197
20
9.35923
30
6.2
0
VERTEX
10
7.84066
20
9.37788
30
6.2
0
VERTEX
10
7.79803
20
9.38588
30
6.2
0
VERTEX
10
7.7554
20
9.3992
30
6.2
0
VERTEX
10
7.75007
20
9.3992
30
6.2
0
VERTEX
10
7.74475
20
9.40453
30
6.2
0
VERTEX
10
7.72343
20
9.40719
30
6.2
0
VERTEX
10
7.71278
20
9.41518
30
6.2
0
VERTEX
10
7.69146
20
9.42051
30
6.2
0
VERTEX
10
7.68081
20
9.42317
30
6.2
0
VERTEX
10
7.67548
20
9.4285
30
6.2
0
VERTEX
10
7.65416
20
9.43117
30
6.2
0
VERTEX
10
7.61154
20
9.4285
30
6.2
0
VERTEX
10
7.60621
20
9.41785
30
6.2
0
VERTEX
10
7.56358
20
9.41785
30
6.2
0
VERTEX
10
7.52096
20
9.40453
30
6.2
0
VERTEX
10
7.49964
20
9.39387
30
6.2
0
VERTEX
10
7.48899
20
9.3912
30
6.2
0
VERTEX
10
7.48632
20
9.38588
30
6.2
0
VERTEX
10
7.4437
20
9.37256
30
6.2
0
VERTEX
10
7.40107
20
9.36456
30
6.2
0
VERTEX
10
7.37976
20
9.3619
30
6.2
0
VERTEX
10
7.3691
20
9.35124
30
6.2
0
VERTEX
10
7.34779
20
9.34858
30
6.2
0
VERTEX
10
7.33713
20
9.34591
30
6.2
0
VERTEX
10
7.3318
20
9.34059
30
6.2
0
VERTEX
10
7.28917
20
9.3246
30
6.2
0
VERTEX
10
7.27852
20
9.31661
30
6.2
0
VERTEX
10
7.26786
20
9.31394
30
6.2
0
VERTEX
10
7.26253
20
9.30862
30
6.2
0
VERTEX
10
7.24122
20
9.30062
30
6.2
0
VERTEX
10
7.23056
20
9.29263
30
6.2
0
VERTEX
10
7.22523
20
9.29263
30
6.2
0
VERTEX
10
7.21724
20
9.28197
30
6.2
0
VERTEX
10
7.21724
20
9.27132
30
6.2
0
VERTEX
10
7.20925
20
9.25
30
6.2
0
VERTEX
10
7.21191
20
9.16475
30
6.2
0
VERTEX
10
7.20925
20
9.14344
30
6.2
0
VERTEX
10
7.20925
20
9.13278
30
6.2
0
VERTEX
10
7.20925
20
9.13012
30
6.2
0
SEQEND
0
POLYLINE
62
224
66
1
70
1
3
mitochondrion
0
VERTEX
10
9.14069
20
9.42016
30
6.2
0
VERTEX
10
9.14347
20
9.39792
30
6.2
0
VERTEX
10
9.14486
20
9.38679
30
6.2
0
VERTEX
10
9.14903
20
9.37567
30
6.2
0
VERTEX
10
9.14903
20
9.37289
30
6.2
0
VERTEX
10
9.15737
20
9.36316
30
6.2
0
VERTEX
10
9.16154
20
9.35759
30
6.2
0
VERTEX
10
9.17267
20
9.35064
30
6.2
0
VERTEX
10
9.18379
20
9.34647
30
6.2
0
VERTEX
10
9.22828
20
9.34786
30
6.2
0
VERTEX
10
9.25053
20
9.34925
30
6.2
0
VERTEX
10
9.26165
20
9.35064
30
6.2
0
VERTEX
10
9.26722
20
9.35203
30
6.2
0
VERTEX
10
9.27834
20
9.35898
30
6.2
0
VERTEX
10
9.28807
20
9.36872
30
6.2
0
VERTEX
10
9.29085
20
9.3715
30
6.2
0
VERTEX
10
9.29502
20
9.38262
30
6.2
0
VERTEX
10
9.30198
20
9.39374
30
6.2
0
VERTEX
10
9.30476
20
9.39931
30
6.2
0
VERTEX
10
9.30476
20
9.41043
30
6.2
0
VERTEX
10
9.31032
20
9.42016
30
6.2
0
VERTEX
10
9.3131
20
9.42572
30
6.2
0
VERTEX
10
9.31588
20
9.47022
30
6.2
0
VERTEX
10
9.31449
20
9.48134
30
6.2
0
VERTEX
10
9.30893
20
9.49246
30
6.2
0
VERTEX
10
9.30198
20
9.49803
30
6.2
0
VERTEX
10
9.2992
20
9.49803
30
6.2
0
VERTEX
10
9.29502
20
9.50359
30
6.2
0
VERTEX
10
9.2839
20
9.51054
30
6.2
0
VERTEX
10
9.27834
20
9.51332
30
6.2
0
VERTEX
10
9.27417
20
9.51888
30
6.2
0
VERTEX
10
9.26861
20
9.52166
30
6.2
0
VERTEX
10
9.24636
20
9.52166
30
6.2
0
VERTEX
10
9.22411
20
9.51749
30
6.2
0
VERTEX
10
9.21299
20
9.51471
30
6.2
0
VERTEX
10
9.20743
20
9.51471
30
6.2
0
VERTEX
10
9.18518
20
9.49942
30
6.2
0
VERTEX
10
9.16571
20
9.48134
30
6.2
0
VERTEX
10
9.15876
20
9.47161
30
6.2
0
VERTEX
10
9.14903
20
9.46188
30
6.2
0
VERTEX
10
9.14486
20
9.45075
30
6.2
0
VERTEX
10
9.14486
20
9.43963
30
6.2
0
VERTEX
10
9.14208
20
9.43963
30
6.2
0
VERTEX
10
9.14069
20
9.42851
30
6.2
0
VERTEX
10
9.14069
20
9.42294
30
6.2
0
VERTEX
10
9.14069
20
9.42155
30
6.2
0
SEQEND
0
POLYLINE
62
227
66
1
70
1
3
endoplasmic_reticulum
0
VERTEX
10
9.26939
20
9.6056
30
6.2
0
VERTEX
10
9.27118
20
9.60201
30
6.2
0
VERTEX
10
9.27118
20
9.59842
30
6.2
0
VERTEX
10
9.27567
20
9.59125
30
6.2
0
VERTEX
10
9.28284
20
9.58856
30
6.2
0
VERTEX
10
9.28463
20
9.58856
30
6.2
0
VERTEX
10
9.28642
20
9.58677
30
6.2
0
VERTEX
10
9.2936
20
9.58497
30
6.2
0
VERTEX
10
9.29539
20
9.58497
30
6.2
0
VERTEX
10
9.29808
20
9.58228
30
6.2
0
VERTEX
10
9.30525
20
9.5796
30
6.2
0
VERTEX
10
9.30705
20
9.5796
30
6.2
0
VERTEX
10
9.31422
20
9.57422
30
6.2
0
VERTEX
10
9.31422
20
9.54553
30
6.2
0
VERTEX
10
9.31511
20
9.53835
30
6.2
0
VERTEX
10
9.32229
20
9.53387
30
6.2
0
VERTEX
10
9.32587
20
9.53387
30
6.2
0
VERTEX
10
9.33305
20
9.53656
30
6.2
0
VERTEX
10
9.33932
20
9.54194
30
6.2
0
VERTEX
10
9.34022
20
9.54553
30
6.2
0
VERTEX
10
9.3447
20
9.55091
30
6.2
0
VERTEX
10
9.3456
20
9.56525
30
6.2
0
VERTEX
10
9.34649
20
9.56884
30
6.2
0
VERTEX
10
9.34918
20
9.57242
30
6.2
0
VERTEX
10
9.35008
20
9.57601
30
6.2
0
VERTEX
10
9.35546
20
9.58228
30
6.2
0
VERTEX
10
9.36263
20
9.58856
30
6.2
0
VERTEX
10
9.36711
20
9.59484
30
6.2
0
VERTEX
10
9.36891
20
9.59663
30
6.2
0
VERTEX
10
9.36891
20
9.59842
30
6.2
0
VERTEX
10
9.3707
20
9.60022
30
6.2
0
VERTEX
10
9.37249
20
9.60739
30
6.2
0
VERTEX
10
9.37429
20
9.60918
30
6.2
0
VERTEX
10
9.37698
20
9.61635
30
6.2
0
VERTEX
10
9.37967
20
9.61904
30
6.2
0
VERTEX
10
9.37877
20
9.63339
30
6.2
0
VERTEX
10
9.37787
20
9.64056
30
6.2
0
VERTEX
10
9.37698
20
9.64235
30
6.2
0
VERTEX
10
9.37339
20
9.64056
30
6.2
0
VERTEX
10
9.36711
20
9.64594
30
6.2
0
VERTEX
10
9.36353
20
9.64863
30
6.2
0
VERTEX
10
9.35636
20
9.64953
30
6.2
0
VERTEX
10
9.35367
20
9.64773
30
6.2
0
VERTEX
10
9.33932
20
9.64594
30
6.2
0
VERTEX
10
9.33842
20
9.64415
30
6.2
0
VERTEX
10
9.33663
20
9.64415
30
6.2
0
VERTEX
10
9.32946
20
9.63966
30
6.2
0
VERTEX
10
9.32229
20
9.63787
30
6.2
0
VERTEX
10
9.3187
20
9.63608
30
6.2
0
VERTEX
10
9.29001
20
9.63518
30
6.2
0
VERTEX
10
9.28284
20
9.63339
30
6.2
0
VERTEX
10
9.27925
20
9.63249
30
6.2
0
VERTEX
10
9.27298
20
9.62532
30
6.2
0
VERTEX
10
9.27208
20
9.61815
30
6.2
0
VERTEX
10
9.26939
20
9.61456
30
6.2
0
VERTEX
10
9.26939
20
9.60739
30
6.2
0
VERTEX
10
9.26939
20
9.60649
30
6.2
0
SEQEND
0
POLYLINE
62
227
66
1
70
1
3
endoplasmic_reticulum
0
VERTEX
10
7.87194
20
9.16095
30
6.2
0
VERTEX
10
7.8796
20
9.15329
30
6.2
0
VERTEX
10
7.89493
20
9.15137
30
6.2
0
VERTEX
10
7.90259
20
9.15329
30
6.2
0
VERTEX
10
7.91408
20
9.16861
30
6.2
0
VERTEX
10
7.91791
20
9.17053
30
6.2
0
VERTEX
10
7.91983
20
9.17819
30
6.2
0
VERTEX
10
7.90833
20
9.19351
30
6.2
0
VERTEX
10
7.9045
20
9.19734
30
6.2
0
VERTEX
10
7.89684
20
9.19542
30
6.2
0
VERTEX
10
7.8911
20
9.18776
30
6.2
0
VERTEX
10
7.88343
20
9.18393
30
6.2
0
VERTEX
10
7.87194
20
9.17053
30
6.2
0
VERTEX
10
7.87194
20
9.16286
30
6.2
0
SEQEND
0
POLYLINE
62
236
66
1
70
1
3
postsynaptic_density
0
VERTEX
10
7.39091
20
8.97732
30
6.2
0
VERTEX
10
7.41788
20
8.97564
30
6.2
0
VERTEX
10
7.44486
20
8.9689
30
6.2
0
VERTEX
10
7.47183
20
8.96721
30
6.2
0
VERTEX
10
7.52578
20
8.9689
30
6.2
0
VERTEX
10
7.53252
20
8.97227
30
6.2
0
VERTEX
10
7.53927
20
8.97227
30
6.2
0
VERTEX
10
7.54601
20
8.97732
30
6.2
0
VERTEX
10
7.5595
20
9.0043
30
6.2
0
VERTEX
10
7.56118
20
9.01779
30
6.2
0
VERTEX
10
7.56455
20
9.02116
30
6.2
0
VERTEX
10
7.57298
20
9.04813
30
6.2
0
VERTEX
10
7.57467
20
9.05488
30
6.2
0
VERTEX
10
7.57467
20
9.05825
30
6.2
0
VERTEX
10
7.57973
20
9.06499
30
6.2
0
VERTEX
10
7.58479
20
9.07848
30
6.2
0
VERTEX
10
7.58984
20
9.13243
30
6.2
0
VERTEX
10
7.58984
20
9.13917
30
6.2
0
VERTEX
10
7.58141
20
9.15266
30
6.2
0
VERTEX
10
7.56793
20
9.15771
30
6.2
0
VERTEX
10
7.51398
20
9.16109
30
6.2
0
VERTEX
10
7.50049
20
9.16109
30
6.2
0
VERTEX
10
7.49375
20
9.16109
30
6.2
0
VERTEX
10
7.487
20
9.16446
30
6.2
0
VERTEX
10
7.43306
20
9.16614
30
6.2
0
VERTEX
10
7.41957
20
9.16952
30
6.2
0
VERTEX
10
7.41283
20
9.1712
30
6.2
0
VERTEX
10
7.41114
20
9.17457
30
6.2
0
VERTEX
10
7.40777
20
9.1476
30
6.2
0
VERTEX
10
7.40777
20
9.13411
30
6.2
0
VERTEX
10
7.4044
20
9.13074
30
6.2
0
VERTEX
10
7.40271
20
9.10377
30
6.2
0
VERTEX
10
7.40271
20
9.09028
30
6.2
0
VERTEX
10
7.39934
20
9.07679
30
6.2
0
VERTEX
10
7.39934
20
9.02284
30
6.2
0
VERTEX
10
7.39428
20
8.99587
30
6.2
0
VERTEX
10
7.39259
20
8.98238
30
6.2
0
VERTEX
10
7.39091
20
8.97901
30
6.2
0
SEQEND
0
ENDSEC
0
EOF
