0
SECTION
2
ENTITIES
0
POLYLINE
62
31
66
1
70
1
3
contour
0
VERTEX
10
6.94231
20
10.7399
30
10.2
0
VERTEX
10
6.94604
20
10.7249
30
10.2
0
VERTEX
10
6.96842
20
10.6951
30
10.2
0
VERTEX
10
6.97961
20
10.6802
30
10.2
0
VERTEX
10
6.97961
20
10.6727
30
10.2
0
VERTEX
10
7.03184
20
10.6242
30
10.2
0
VERTEX
10
7.04676
20
10.6168
30
10.2
0
VERTEX
10
7.05422
20
10.6093
30
10.2
0
VERTEX
10
7.06914
20
10.6093
30
10.2
0
VERTEX
10
7.0766
20
10.6093
30
10.2
0
VERTEX
10
7.08406
20
10.6018
30
10.2
0
VERTEX
10
7.11391
20
10.5944
30
10.2
0
VERTEX
10
7.12883
20
10.5944
30
10.2
0
VERTEX
10
7.14375
20
10.5869
30
10.2
0
VERTEX
10
7.20344
20
10.5869
30
10.2
0
VERTEX
10
7.23328
20
10.5869
30
10.2
0
VERTEX
10
7.2482
20
10.5869
30
10.2
0
VERTEX
10
7.27804
20
10.6018
30
10.2
0
VERTEX
10
7.28924
20
10.613
30
10.2
0
VERTEX
10
7.34892
20
10.6242
30
10.2
0
VERTEX
10
7.36384
20
10.6317
30
10.2
0
VERTEX
10
7.42353
20
10.6354
30
10.2
0
VERTEX
10
7.45337
20
10.6392
30
10.2
0
VERTEX
10
7.4683
20
10.6392
30
10.2
0
VERTEX
10
7.48322
20
10.6466
30
10.2
0
VERTEX
10
7.49814
20
10.6466
30
10.2
0
VERTEX
10
7.5056
20
10.6541
30
10.2
0
VERTEX
10
7.52052
20
10.6578
30
10.2
0
VERTEX
10
7.52425
20
10.6653
30
10.2
0
VERTEX
10
7.5541
20
10.6765
30
10.2
0
VERTEX
10
7.58394
20
10.6802
30
10.2
0
VERTEX
10
7.59886
20
10.6876
30
10.2
0
VERTEX
10
7.60632
20
10.6914
30
10.2
0
VERTEX
10
7.61005
20
10.8107
30
10.2
0
VERTEX
10
7.60259
20
10.8406
30
10.2
0
VERTEX
10
7.5914
20
10.8518
30
10.2
0
VERTEX
10
7.58021
20
10.8816
30
10.2
0
VERTEX
10
7.5541
20
10.9115
30
10.2
0
VERTEX
10
7.53917
20
10.9413
30
10.2
0
VERTEX
10
7.52798
20
10.9562
30
10.2
0
VERTEX
10
7.52425
20
10.9712
30
10.2
0
VERTEX
10
7.50187
20
10.9973
30
10.2
0
VERTEX
10
7.49441
20
11.0122
30
10.2
0
VERTEX
10
7.47949
20
11.0271
30
10.2
0
VERTEX
10
7.47203
20
11.042
30
10.2
0
VERTEX
10
7.4683
20
11.0458
30
10.2
0
VERTEX
10
7.46083
20
11.0383
30
10.2
0
VERTEX
10
7.43099
20
11.0346
30
10.2
0
VERTEX
10
7.40115
20
11.0197
30
10.2
0
VERTEX
10
7.38623
20
11.0085
30
10.2
0
VERTEX
10
7.3713
20
11.0085
30
10.2
0
VERTEX
10
7.34146
20
10.9973
30
10.2
0
VERTEX
10
7.32654
20
10.9861
30
10.2
0
VERTEX
10
7.31162
20
10.9823
30
10.2
0
VERTEX
10
7.28177
20
10.96
30
10.2
0
VERTEX
10
7.26685
20
10.9562
30
10.2
0
VERTEX
10
7.24447
20
10.9339
30
10.2
0
VERTEX
10
7.22955
20
10.9301
30
10.2
0
VERTEX
10
7.19971
20
10.9115
30
10.2
0
VERTEX
10
7.16986
20
10.9003
30
10.2
0
VERTEX
10
7.14002
20
10.8965
30
10.2
0
VERTEX
10
7.13256
20
10.8891
30
10.2
0
VERTEX
10
7.11764
20
10.8854
30
10.2
0
VERTEX
10
7.11018
20
10.8854
30
10.2
0
VERTEX
10
7.09898
20
10.8742
30
10.2
0
VERTEX
10
7.0393
20
10.8518
30
10.2
0
VERTEX
10
7.02438
20
10.8406
30
10.2
0
VERTEX
10
7.01692
20
10.8406
30
10.2
0
VERTEX
10
7.00945
20
10.8331
30
10.2
0
VERTEX
10
6.99453
20
10.8331
30
10.2
0
VERTEX
10
6.97961
20
10.8257
30
10.2
0
VERTEX
10
6.97215
20
10.8257
30
10.2
0
VERTEX
10
6.96096
20
10.8107
30
10.2
0
VERTEX
10
6.9535
20
10.8107
30
10.2
0
VERTEX
10
6.94231
20
10.7809
30
10.2
0
VERTEX
10
6.94231
20
10.7511
30
10.2
0
VERTEX
10
6.94231
20
10.7436
30
10.2
0
SEQEND
0
POLYLINE
62
227
66
1
70
1
3
endoplasmic_reticulum
0
VERTEX
10
7.47809
20
10.6815
30
10.2
0
VERTEX
10
7.48257
20
10.6752
30
10.2
0
VERTEX
10
7.48526
20
10.6716
30
10.2
0
VERTEX
10
7.48885
20
10.6698
30
10.2
0
VERTEX
10
7.48975
20
10.668
30
10.2
0
VERTEX
10
7.50409
20
10.668
30
10.2
0
VERTEX
10
7.51126
20
10.6689
30
10.2
0
VERTEX
10
7.51485
20
10.6689
30
10.2
0
VERTEX
10
7.51664
20
10.6707
30
10.2
0
VERTEX
10
7.52381
20
10.6707
30
10.2
0
VERTEX
10
7.5274
20
10.6734
30
10.2
0
VERTEX
10
7.53188
20
10.6788
30
10.2
0
VERTEX
10
7.53547
20
10.6797
30
10.2
0
VERTEX
10
7.54085
20
10.685
30
10.2
0
VERTEX
10
7.54892
20
10.6994
30
10.2
0
VERTEX
10
7.55161
20
10.7066
30
10.2
0
VERTEX
10
7.55161
20
10.7083
30
10.2
0
VERTEX
10
7.5534
20
10.7101
30
10.2
0
VERTEX
10
7.5543
20
10.7245
30
10.2
0
VERTEX
10
7.55161
20
10.7317
30
10.2
0
VERTEX
10
7.54533
20
10.737
30
10.2
0
VERTEX
10
7.54175
20
10.7388
30
10.2
0
VERTEX
10
7.53457
20
10.7388
30
10.2
0
VERTEX
10
7.53099
20
10.7388
30
10.2
0
VERTEX
10
7.52471
20
10.7326
30
10.2
0
VERTEX
10
7.52113
20
10.7308
30
10.2
0
VERTEX
10
7.51395
20
10.7245
30
10.2
0
VERTEX
10
7.51037
20
10.7227
30
10.2
0
VERTEX
10
7.50857
20
10.7191
30
10.2
0
VERTEX
10
7.5014
20
10.7146
30
10.2
0
VERTEX
10
7.49423
20
10.7128
30
10.2
0
VERTEX
10
7.48795
20
10.7083
30
10.2
0
VERTEX
10
7.48706
20
10.7066
30
10.2
0
VERTEX
10
7.48347
20
10.7057
30
10.2
0
VERTEX
10
7.48168
20
10.7039
30
10.2
0
VERTEX
10
7.47988
20
10.7039
30
10.2
0
VERTEX
10
7.47809
20
10.7021
30
10.2
0
VERTEX
10
7.47809
20
10.6877
30
10.2
0
VERTEX
10
7.47809
20
10.6841
30
10.2
0
VERTEX
10
7.47809
20
10.6823
30
10.2
0
SEQEND
0
POLYLINE
62
227
66
1
70
1
3
endoplasmic_reticulum
0
VERTEX
10
7.09885
20
10.7837
30
10.2
0
VERTEX
10
7.10244
20
10.781
30
10.2
0
VERTEX
10
7.10423
20
10.7783
30
10.2
0
VERTEX
10
7.10782
20
10.7765
30
10.2
0
VERTEX
10
7.1114
20
10.7729
30
10.2
0
VERTEX
10
7.11499
20
10.7711
30
10.2
0
VERTEX
10
7.12933
20
10.7711
30
10.2
0
VERTEX
10
7.14368
20
10.7738
30
10.2
0
VERTEX
10
7.15085
20
10.7765
30
10.2
0
VERTEX
10
7.1652
20
10.7792
30
10.2
0
VERTEX
10
7.19389
20
10.7792
30
10.2
0
VERTEX
10
7.20106
20
10.7801
30
10.2
0
VERTEX
10
7.20285
20
10.7819
30
10.2
0
VERTEX
10
7.21002
20
10.7828
30
10.2
0
VERTEX
10
7.2172
20
10.7854
30
10.2
0
VERTEX
10
7.21809
20
10.7872
30
10.2
0
VERTEX
10
7.22168
20
10.7881
30
10.2
0
VERTEX
10
7.22258
20
10.7917
30
10.2
0
VERTEX
10
7.22527
20
10.7953
30
10.2
0
VERTEX
10
7.23961
20
10.8043
30
10.2
0
VERTEX
10
7.24678
20
10.8079
30
10.2
0
VERTEX
10
7.24858
20
10.8097
30
10.2
0
VERTEX
10
7.25037
20
10.8097
30
10.2
0
VERTEX
10
7.25306
20
10.8123
30
10.2
0
VERTEX
10
7.25664
20
10.8132
30
10.2
0
VERTEX
10
7.25754
20
10.815
30
10.2
0
VERTEX
10
7.28623
20
10.815
30
10.2
0
VERTEX
10
7.30057
20
10.8141
30
10.2
0
VERTEX
10
7.30775
20
10.8141
30
10.2
0
VERTEX
10
7.31492
20
10.8123
30
10.2
0
VERTEX
10
7.32926
20
10.8123
30
10.2
0
VERTEX
10
7.34361
20
10.8141
30
10.2
0
VERTEX
10
7.34451
20
10.8159
30
10.2
0
VERTEX
10
7.3463
20
10.8159
30
10.2
0
VERTEX
10
7.34989
20
10.8186
30
10.2
0
VERTEX
10
7.35347
20
10.8195
30
10.2
0
VERTEX
10
7.36064
20
10.8258
30
10.2
0
VERTEX
10
7.36602
20
10.8312
30
10.2
0
VERTEX
10
7.36871
20
10.8383
30
10.2
0
VERTEX
10
7.37051
20
10.8419
30
10.2
0
VERTEX
10
7.37051
20
10.8491
30
10.2
0
VERTEX
10
7.37051
20
10.8527
30
10.2
0
VERTEX
10
7.3714
20
10.8545
30
10.2
0
VERTEX
10
7.36782
20
10.8688
30
10.2
0
VERTEX
10
7.36333
20
10.876
30
10.2
0
VERTEX
10
7.36154
20
10.8778
30
10.2
0
VERTEX
10
7.35975
20
10.885
30
10.2
0
VERTEX
10
7.35437
20
10.8921
30
10.2
0
VERTEX
10
7.34002
20
10.902
30
10.2
0
VERTEX
10
7.31133
20
10.9047
30
10.2
0
VERTEX
10
7.30416
20
10.9047
30
10.2
0
VERTEX
10
7.30057
20
10.9047
30
10.2
0
VERTEX
10
7.2934
20
10.902
30
10.2
0
VERTEX
10
7.27995
20
10.893
30
10.2
0
VERTEX
10
7.27637
20
10.8921
30
10.2
0
VERTEX
10
7.2692
20
10.8877
30
10.2
0
VERTEX
10
7.26202
20
10.8868
30
10.2
0
VERTEX
10
7.25844
20
10.8859
30
10.2
0
VERTEX
10
7.25126
20
10.8868
30
10.2
0
VERTEX
10
7.24947
20
10.8868
30
10.2
0
VERTEX
10
7.24768
20
10.885
30
10.2
0
VERTEX
10
7.24409
20
10.885
30
10.2
0
VERTEX
10
7.22975
20
10.8796
30
10.2
0
VERTEX
10
7.22258
20
10.8769
30
10.2
0
VERTEX
10
7.2163
20
10.8724
30
10.2
0
VERTEX
10
7.20913
20
10.8697
30
10.2
0
VERTEX
10
7.20195
20
10.8643
30
10.2
0
VERTEX
10
7.19478
20
10.8617
30
10.2
0
VERTEX
10
7.19209
20
10.8581
30
10.2
0
VERTEX
10
7.18851
20
10.8572
30
10.2
0
VERTEX
10
7.17506
20
10.8482
30
10.2
0
VERTEX
10
7.16968
20
10.8419
30
10.2
0
VERTEX
10
7.15533
20
10.8357
30
10.2
0
VERTEX
10
7.14099
20
10.8276
30
10.2
0
VERTEX
10
7.14009
20
10.8258
30
10.2
0
VERTEX
10
7.13651
20
10.8249
30
10.2
0
VERTEX
10
7.13471
20
10.824
30
10.2
0
VERTEX
10
7.13382
20
10.8204
30
10.2
0
VERTEX
10
7.12216
20
10.8088
30
10.2
0
VERTEX
10
7.12037
20
10.8088
30
10.2
0
VERTEX
10
7.10692
20
10.798
30
10.2
0
VERTEX
10
7.10244
20
10.7908
30
10.2
0
VERTEX
10
7.09885
20
10.7872
30
10.2
0
VERTEX
10
7.09885
20
10.7846
30
10.2
0
SEQEND
0
POLYLINE
62
227
66
1
70
1
3
endoplasmic_reticulum
0
VERTEX
10
7.26471
20
10.7603
30
10.2
0
VERTEX
10
7.26561
20
10.7568
30
10.2
0
VERTEX
10
7.2674
20
10.7559
30
10.2
0
VERTEX
10
7.2683
20
10.7523
30
10.2
0
VERTEX
10
7.28175
20
10.7424
30
10.2
0
VERTEX
10
7.29609
20
10.7406
30
10.2
0
VERTEX
10
7.30326
20
10.7397
30
10.2
0
VERTEX
10
7.31761
20
10.7343
30
10.2
0
VERTEX
10
7.32478
20
10.7299
30
10.2
0
VERTEX
10
7.32926
20
10.7227
30
10.2
0
VERTEX
10
7.33464
20
10.7173
30
10.2
0
VERTEX
10
7.34271
20
10.7039
30
10.2
0
VERTEX
10
7.34451
20
10.7021
30
10.2
0
VERTEX
10
7.34451
20
10.6985
30
10.2
0
VERTEX
10
7.3463
20
10.6949
30
10.2
0
VERTEX
10
7.3463
20
10.6931
30
10.2
0
VERTEX
10
7.34989
20
10.6922
30
10.2
0
VERTEX
10
7.35078
20
10.6886
30
10.2
0
VERTEX
10
7.35257
20
10.6868
30
10.2
0
VERTEX
10
7.35347
20
10.6832
30
10.2
0
VERTEX
10
7.35616
20
10.6806
30
10.2
0
VERTEX
10
7.35706
20
10.6788
30
10.2
0
VERTEX
10
7.3714
20
10.6761
30
10.2
0
VERTEX
10
7.38575
20
10.677
30
10.2
0
VERTEX
10
7.38933
20
10.677
30
10.2
0
VERTEX
10
7.39023
20
10.6788
30
10.2
0
VERTEX
10
7.39382
20
10.6797
30
10.2
0
VERTEX
10
7.3983
20
10.6868
30
10.2
0
VERTEX
10
7.3974
20
10.7012
30
10.2
0
VERTEX
10
7.3974
20
10.7048
30
10.2
0
VERTEX
10
7.39471
20
10.7075
30
10.2
0
VERTEX
10
7.39471
20
10.7092
30
10.2
0
VERTEX
10
7.38844
20
10.7146
30
10.2
0
VERTEX
10
7.38575
20
10.7182
30
10.2
0
VERTEX
10
7.38037
20
10.7227
30
10.2
0
VERTEX
10
7.3732
20
10.729
30
10.2
0
VERTEX
10
7.36154
20
10.7388
30
10.2
0
VERTEX
10
7.35526
20
10.7433
30
10.2
0
VERTEX
10
7.35168
20
10.7469
30
10.2
0
VERTEX
10
7.34809
20
10.7487
30
10.2
0
VERTEX
10
7.34451
20
10.7559
30
10.2
0
VERTEX
10
7.34271
20
10.7621
30
10.2
0
VERTEX
10
7.33823
20
10.7693
30
10.2
0
VERTEX
10
7.33195
20
10.7738
30
10.2
0
VERTEX
10
7.32657
20
10.7801
30
10.2
0
VERTEX
10
7.32389
20
10.7837
30
10.2
0
VERTEX
10
7.31671
20
10.7854
30
10.2
0
VERTEX
10
7.28802
20
10.7846
30
10.2
0
VERTEX
10
7.27368
20
10.7801
30
10.2
0
VERTEX
10
7.27009
20
10.7792
30
10.2
0
VERTEX
10
7.26471
20
10.7729
30
10.2
0
VERTEX
10
7.26471
20
10.7657
30
10.2
0
VERTEX
10
7.26471
20
10.7621
30
10.2
0
VERTEX
10
7.26471
20
10.7612
30
10.2
0
SEQEND
0
POLYLINE
62
227
66
1
70
1
3
endoplasmic_reticulum
0
VERTEX
10
7.40278
20
10.7783
30
10.2
0
VERTEX
10
7.40726
20
10.7711
30
10.2
0
VERTEX
10
7.41085
20
10.7568
30
10.2
0
VERTEX
10
7.41623
20
10.7514
30
10.2
0
VERTEX
10
7.41982
20
10.7487
30
10.2
0
VERTEX
10
7.42161
20
10.7451
30
10.2
0
VERTEX
10
7.42788
20
10.7406
30
10.2
0
VERTEX
10
7.44223
20
10.7415
30
10.2
0
VERTEX
10
7.44582
20
10.7433
30
10.2
0
VERTEX
10
7.4494
20
10.7433
30
10.2
0
VERTEX
10
7.45299
20
10.746
30
10.2
0
VERTEX
10
7.45209
20
10.7603
30
10.2
0
VERTEX
10
7.45209
20
10.7621
30
10.2
0
VERTEX
10
7.45388
20
10.763
30
10.2
0
VERTEX
10
7.45657
20
10.7702
30
10.2
0
VERTEX
10
7.45837
20
10.7711
30
10.2
0
VERTEX
10
7.45926
20
10.7747
30
10.2
0
VERTEX
10
7.46285
20
10.7774
30
10.2
0
VERTEX
10
7.47002
20
10.7792
30
10.2
0
VERTEX
10
7.47719
20
10.7783
30
10.2
0
VERTEX
10
7.48078
20
10.7756
30
10.2
0
VERTEX
10
7.48257
20
10.7747
30
10.2
0
VERTEX
10
7.48526
20
10.7603
30
10.2
0
VERTEX
10
7.48526
20
10.7568
30
10.2
0
VERTEX
10
7.48975
20
10.7505
30
10.2
0
VERTEX
10
7.49154
20
10.7469
30
10.2
0
VERTEX
10
7.49871
20
10.746
30
10.2
0
VERTEX
10
7.51306
20
10.7487
30
10.2
0
VERTEX
10
7.51485
20
10.7487
30
10.2
0
VERTEX
10
7.52202
20
10.755
30
10.2
0
VERTEX
10
7.52381
20
10.7559
30
10.2
0
VERTEX
10
7.52561
20
10.763
30
10.2
0
VERTEX
10
7.5283
20
10.7666
30
10.2
0
VERTEX
10
7.5274
20
10.7953
30
10.2
0
VERTEX
10
7.5274
20
10.7989
30
10.2
0
VERTEX
10
7.5274
20
10.8007
30
10.2
0
VERTEX
10
7.52561
20
10.8025
30
10.2
0
VERTEX
10
7.52292
20
10.8168
30
10.2
0
VERTEX
10
7.51126
20
10.8303
30
10.2
0
VERTEX
10
7.50768
20
10.8312
30
10.2
0
VERTEX
10
7.50588
20
10.8312
30
10.2
0
VERTEX
10
7.5023
20
10.8339
30
10.2
0
VERTEX
10
7.48795
20
10.8348
30
10.2
0
VERTEX
10
7.48437
20
10.8321
30
10.2
0
VERTEX
10
7.48347
20
10.8294
30
10.2
0
VERTEX
10
7.48078
20
10.8258
30
10.2
0
VERTEX
10
7.47899
20
10.8258
30
10.2
0
VERTEX
10
7.4763
20
10.8222
30
10.2
0
VERTEX
10
7.47271
20
10.8222
30
10.2
0
VERTEX
10
7.46554
20
10.8195
30
10.2
0
VERTEX
10
7.45837
20
10.8186
30
10.2
0
VERTEX
10
7.45478
20
10.8195
30
10.2
0
VERTEX
10
7.4503
20
10.8249
30
10.2
0
VERTEX
10
7.44313
20
10.8303
30
10.2
0
VERTEX
10
7.43954
20
10.8312
30
10.2
0
VERTEX
10
7.43775
20
10.833
30
10.2
0
VERTEX
10
7.43057
20
10.8321
30
10.2
0
VERTEX
10
7.41713
20
10.8258
30
10.2
0
VERTEX
10
7.41175
20
10.8186
30
10.2
0
VERTEX
10
7.40726
20
10.8141
30
10.2
0
VERTEX
10
7.40278
20
10.7998
30
10.2
0
VERTEX
10
7.40278
20
10.7854
30
10.2
0
VERTEX
10
7.40278
20
10.7792
30
10.2
0
SEQEND
0
POLYLINE
62
236
66
1
70
1
3
postsynaptic_density
0
VERTEX
10
6.17728
20
10.5436
30
10.2
0
VERTEX
10
6.18241
20
10.5397
30
10.2
0
VERTEX
10
6.18241
20
10.5346
30
10.2
0
VERTEX
10
6.19139
20
10.5256
30
10.2
0
VERTEX
10
6.20166
20
10.5192
30
10.2
0
VERTEX
10
6.2222
20
10.5141
30
10.2
0
VERTEX
10
6.24273
20
10.5141
30
10.2
0
VERTEX
10
6.253
20
10.5154
30
10.2
0
VERTEX
10
6.26198
20
10.5205
30
10.2
0
VERTEX
10
6.26583
20
10.5256
30
10.2
0
VERTEX
10
6.26712
20
10.5462
30
10.2
0
VERTEX
10
6.26455
20
10.5564
30
10.2
0
VERTEX
10
6.25557
20
10.5641
30
10.2
0
VERTEX
10
6.25172
20
10.568
30
10.2
0
VERTEX
10
6.24658
20
10.5693
30
10.2
0
VERTEX
10
6.24402
20
10.5718
30
10.2
0
VERTEX
10
6.22348
20
10.577
30
10.2
0
VERTEX
10
6.22091
20
10.5795
30
10.2
0
VERTEX
10
6.20038
20
10.5795
30
10.2
0
VERTEX
10
6.19524
20
10.5795
30
10.2
0
VERTEX
10
6.18369
20
10.5603
30
10.2
0
VERTEX
10
6.17856
20
10.55
30
10.2
0
VERTEX
10
6.17728
20
10.5449
30
10.2
0
SEQEND
0
POLYLINE
62
31
66
1
70
1
3
contour
0
VERTEX
10
6.21416
20
10.4189
30
10.2
0
VERTEX
10
6.21862
20
10.413
30
10.2
0
VERTEX
10
6.22308
20
10.4011
30
10.2
0
VERTEX
10
6.22606
20
10.3981
30
10.2
0
VERTEX
10
6.22606
20
10.3951
30
10.2
0
VERTEX
10
6.23052
20
10.3906
30
10.2
0
VERTEX
10
6.23052
20
10.3847
30
10.2
0
VERTEX
10
6.23647
20
10.3728
30
10.2
0
VERTEX
10
6.25432
20
10.3505
30
10.2
0
VERTEX
10
6.25878
20
10.346
30
10.2
0
VERTEX
10
6.26175
20
10.3445
30
10.2
0
VERTEX
10
6.26175
20
10.3416
30
10.2
0
VERTEX
10
6.28109
20
10.3237
30
10.2
0
VERTEX
10
6.28406
20
10.3178
30
10.2
0
VERTEX
10
6.29001
20
10.3133
30
10.2
0
VERTEX
10
6.31381
20
10.3059
30
10.2
0
VERTEX
10
6.32571
20
10.3044
30
10.2
0
VERTEX
10
6.33166
20
10.3014
30
10.2
0
VERTEX
10
6.33761
20
10.3014
30
10.2
0
VERTEX
10
6.34356
20
10.2984
30
10.2
0
VERTEX
10
6.39115
20
10.2984
30
10.2
0
VERTEX
10
6.3971
20
10.3014
30
10.2
0
VERTEX
10
6.409
20
10.3029
30
10.2
0
VERTEX
10
6.41495
20
10.3074
30
10.2
0
VERTEX
10
6.42685
20
10.3103
30
10.2
0
VERTEX
10
6.44916
20
10.3311
30
10.2
0
VERTEX
10
6.44916
20
10.3341
30
10.2
0
VERTEX
10
6.45213
20
10.3371
30
10.2
0
VERTEX
10
6.45362
20
10.343
30
10.2
0
VERTEX
10
6.45808
20
10.349
30
10.2
0
VERTEX
10
6.45808
20
10.3549
30
10.2
0
VERTEX
10
6.46255
20
10.3609
30
10.2
0
VERTEX
10
6.46403
20
10.3654
30
10.2
0
VERTEX
10
6.47296
20
10.3773
30
10.2
0
VERTEX
10
6.47742
20
10.3877
30
10.2
0
VERTEX
10
6.47891
20
10.3936
30
10.2
0
VERTEX
10
6.4908
20
10.4025
30
10.2
0
VERTEX
10
6.49824
20
10.4144
30
10.2
0
VERTEX
10
6.5027
20
10.4249
30
10.2
0
VERTEX
10
6.51014
20
10.4338
30
10.2
0
VERTEX
10
6.51312
20
10.4397
30
10.2
0
VERTEX
10
6.51758
20
10.4427
30
10.2
0
VERTEX
10
6.51906
20
10.4457
30
10.2
0
VERTEX
10
6.52501
20
10.4457
30
10.2
0
VERTEX
10
6.53543
20
10.4546
30
10.2
0
VERTEX
10
6.53691
20
10.4576
30
10.2
0
VERTEX
10
6.53989
20
10.4576
30
10.2
0
VERTEX
10
6.54137
20
10.4605
30
10.2
0
VERTEX
10
6.55327
20
10.465
30
10.2
0
VERTEX
10
6.55625
20
10.4695
30
10.2
0
VERTEX
10
6.5622
20
10.4724
30
10.2
0
VERTEX
10
6.56369
20
10.4784
30
10.2
0
VERTEX
10
6.57261
20
10.4888
30
10.2
0
VERTEX
10
6.57707
20
10.5007
30
10.2
0
VERTEX
10
6.57707
20
10.5126
30
10.2
0
VERTEX
10
6.58451
20
10.5349
30
10.2
0
VERTEX
10
6.58451
20
10.5379
30
10.2
0
VERTEX
10
6.59194
20
10.5438
30
10.2
0
VERTEX
10
6.59641
20
10.5557
30
10.2
0
VERTEX
10
6.59641
20
10.5587
30
10.2
0
VERTEX
10
6.59938
20
10.5617
30
10.2
0
VERTEX
10
6.60384
20
10.5736
30
10.2
0
VERTEX
10
6.61426
20
10.5825
30
10.2
0
VERTEX
10
6.61426
20
10.5855
30
10.2
0
VERTEX
10
6.62913
20
10.6078
30
10.2
0
VERTEX
10
6.63954
20
10.6152
30
10.2
0
VERTEX
10
6.64698
20
10.6271
30
10.2
0
VERTEX
10
6.65144
20
10.639
30
10.2
0
VERTEX
10
6.6559
20
10.645
30
10.2
0
VERTEX
10
6.65739
20
10.6569
30
10.2
0
VERTEX
10
6.65739
20
10.6628
30
10.2
0
VERTEX
10
6.65739
20
10.6658
30
10.2
0
VERTEX
10
6.65144
20
10.6688
30
10.2
0
VERTEX
10
6.64549
20
10.6688
30
10.2
0
VERTEX
10
6.63954
20
10.6732
30
10.2
0
VERTEX
10
6.63657
20
10.6732
30
10.2
0
VERTEX
10
6.62764
20
10.6822
30
10.2
0
VERTEX
10
6.62318
20
10.6866
30
10.2
0
VERTEX
10
6.59938
20
10.6866
30
10.2
0
VERTEX
10
6.57558
20
10.6792
30
10.2
0
VERTEX
10
6.56369
20
10.6807
30
10.2
0
VERTEX
10
6.56071
20
10.6837
30
10.2
0
VERTEX
10
6.54881
20
10.6837
30
10.2
0
VERTEX
10
6.53691
20
10.6866
30
10.2
0
VERTEX
10
6.53096
20
10.6866
30
10.2
0
VERTEX
10
6.52501
20
10.6911
30
10.2
0
VERTEX
10
6.51906
20
10.6926
30
10.2
0
VERTEX
10
6.50717
20
10.7
30
10.2
0
VERTEX
10
6.49675
20
10.7104
30
10.2
0
VERTEX
10
6.47296
20
10.7149
30
10.2
0
VERTEX
10
6.46106
20
10.7193
30
10.2
0
VERTEX
10
6.43726
20
10.7208
30
10.2
0
VERTEX
10
6.38966
20
10.7149
30
10.2
0
VERTEX
10
6.36587
20
10.7104
30
10.2
0
VERTEX
10
6.34207
20
10.7089
30
10.2
0
VERTEX
10
6.31976
20
10.7015
30
10.2
0
VERTEX
10
6.31678
20
10.6985
30
10.2
0
VERTEX
10
6.31084
20
10.697
30
10.2
0
VERTEX
10
6.30637
20
10.6926
30
10.2
0
VERTEX
10
6.29447
20
10.6881
30
10.2
0
VERTEX
10
6.29001
20
10.6822
30
10.2
0
VERTEX
10
6.29001
20
10.6792
30
10.2
0
VERTEX
10
6.2796
20
10.6703
30
10.2
0
VERTEX
10
6.27663
20
10.6643
30
10.2
0
VERTEX
10
6.27068
20
10.6584
30
10.2
0
VERTEX
10
6.26919
20
10.6524
30
10.2
0
VERTEX
10
6.26473
20
10.6465
30
10.2
0
VERTEX
10
6.26473
20
10.6435
30
10.2
0
VERTEX
10
6.26027
20
10.6375
30
10.2
0
VERTEX
10
6.25878
20
10.6316
30
10.2
0
VERTEX
10
6.2558
20
10.6286
30
10.2
0
VERTEX
10
6.2558
20
10.6256
30
10.2
0
VERTEX
10
6.2439
20
10.6167
30
10.2
0
VERTEX
10
6.23795
20
10.6152
30
10.2
0
VERTEX
10
6.23201
20
10.6033
30
10.2
0
VERTEX
10
6.23201
20
10.6004
30
10.2
0
VERTEX
10
6.22903
20
10.5974
30
10.2
0
VERTEX
10
6.22903
20
10.5914
30
10.2
0
VERTEX
10
6.22606
20
10.5899
30
10.2
0
VERTEX
10
6.22159
20
10.578
30
10.2
0
VERTEX
10
6.22159
20
10.4829
30
10.2
0
VERTEX
10
6.22011
20
10.4591
30
10.2
0
VERTEX
10
6.21416
20
10.4353
30
10.2
0
VERTEX
10
6.21416
20
10.4234
30
10.2
0
VERTEX
10
6.21416
20
10.4204
30
10.2
0
SEQEND
0
POLYLINE
62
31
66
1
70
1
3
contour
0
VERTEX
10
6.60979
20
10.4486
30
10.2
0
VERTEX
10
6.61723
20
10.4382
30
10.2
0
VERTEX
10
6.6202
20
10.4353
30
10.2
0
VERTEX
10
6.6202
20
10.4293
30
10.2
0
VERTEX
10
6.62318
20
10.4234
30
10.2
0
VERTEX
10
6.62318
20
10.4174
30
10.2
0
VERTEX
10
6.63359
20
10.3936
30
10.2
0
VERTEX
10
6.63657
20
10.3906
30
10.2
0
VERTEX
10
6.63657
20
10.3877
30
10.2
0
VERTEX
10
6.64103
20
10.3847
30
10.2
0
VERTEX
10
6.64549
20
10.3787
30
10.2
0
VERTEX
10
6.64846
20
10.3758
30
10.2
0
VERTEX
10
6.64995
20
10.3698
30
10.2
0
VERTEX
10
6.65739
20
10.3579
30
10.2
0
VERTEX
10
6.66929
20
10.349
30
10.2
0
VERTEX
10
6.69308
20
10.346
30
10.2
0
VERTEX
10
6.70498
20
10.3416
30
10.2
0
VERTEX
10
6.72878
20
10.3401
30
10.2
0
VERTEX
10
6.73473
20
10.3401
30
10.2
0
VERTEX
10
6.74068
20
10.3371
30
10.2
0
VERTEX
10
6.75258
20
10.3371
30
10.2
0
VERTEX
10
6.76448
20
10.3401
30
10.2
0
VERTEX
10
6.77638
20
10.346
30
10.2
0
VERTEX
10
6.78828
20
10.349
30
10.2
0
VERTEX
10
6.79422
20
10.3535
30
10.2
0
VERTEX
10
6.80612
20
10.3564
30
10.2
0
VERTEX
10
6.81207
20
10.3579
30
10.2
0
VERTEX
10
6.81653
20
10.3624
30
10.2
0
VERTEX
10
6.81653
20
10.3683
30
10.2
0
VERTEX
10
6.82546
20
10.3773
30
10.2
0
VERTEX
10
6.82843
20
10.3773
30
10.2
0
VERTEX
10
6.83885
20
10.3862
30
10.2
0
VERTEX
10
6.84033
20
10.3892
30
10.2
0
VERTEX
10
6.84331
20
10.3892
30
10.2
0
VERTEX
10
6.85669
20
10.413
30
10.2
0
VERTEX
10
6.85967
20
10.4189
30
10.2
0
VERTEX
10
6.87008
20
10.4308
30
10.2
0
VERTEX
10
6.87305
20
10.4368
30
10.2
0
VERTEX
10
6.87603
20
10.4397
30
10.2
0
VERTEX
10
6.88198
20
10.4635
30
10.2
0
VERTEX
10
6.88495
20
10.4873
30
10.2
0
VERTEX
10
6.88198
20
10.4992
30
10.2
0
VERTEX
10
6.88198
20
10.523
30
10.2
0
VERTEX
10
6.88495
20
10.5245
30
10.2
0
VERTEX
10
6.88347
20
10.5364
30
10.2
0
VERTEX
10
6.88347
20
10.5424
30
10.2
0
VERTEX
10
6.88049
20
10.5453
30
10.2
0
VERTEX
10
6.879
20
10.5572
30
10.2
0
VERTEX
10
6.87752
20
10.5632
30
10.2
0
VERTEX
10
6.87603
20
10.5661
30
10.2
0
VERTEX
10
6.87752
20
10.5721
30
10.2
0
VERTEX
10
6.87752
20
10.5751
30
10.2
0
VERTEX
10
6.87157
20
10.578
30
10.2
0
VERTEX
10
6.87008
20
10.581
30
10.2
0
VERTEX
10
6.85818
20
10.5855
30
10.2
0
VERTEX
10
6.84628
20
10.5944
30
10.2
0
VERTEX
10
6.83438
20
10.5989
30
10.2
0
VERTEX
10
6.83141
20
10.5989
30
10.2
0
VERTEX
10
6.82843
20
10.6018
30
10.2
0
VERTEX
10
6.81653
20
10.6048
30
10.2
0
VERTEX
10
6.81059
20
10.6078
30
10.2
0
VERTEX
10
6.76299
20
10.6123
30
10.2
0
VERTEX
10
6.75109
20
10.6123
30
10.2
0
VERTEX
10
6.74514
20
10.6123
30
10.2
0
VERTEX
10
6.74217
20
10.6123
30
10.2
0
VERTEX
10
6.73771
20
10.6078
30
10.2
0
VERTEX
10
6.73176
20
10.6063
30
10.2
0
VERTEX
10
6.72878
20
10.6033
30
10.2
0
VERTEX
10
6.72283
20
10.6048
30
10.2
0
VERTEX
10
6.71986
20
10.6048
30
10.2
0
VERTEX
10
6.7154
20
10.6004
30
10.2
0
VERTEX
10
6.71242
20
10.6004
30
10.2
0
VERTEX
10
6.70796
20
10.5944
30
10.2
0
VERTEX
10
6.69606
20
10.587
30
10.2
0
VERTEX
10
6.6916
20
10.5825
30
10.2
0
VERTEX
10
6.69011
20
10.5766
30
10.2
0
VERTEX
10
6.69011
20
10.5736
30
10.2
0
VERTEX
10
6.67821
20
10.5706
30
10.2
0
VERTEX
10
6.66929
20
10.5602
30
10.2
0
VERTEX
10
6.6678
20
10.5543
30
10.2
0
VERTEX
10
6.6559
20
10.5498
30
10.2
0
VERTEX
10
6.65144
20
10.5424
30
10.2
0
VERTEX
10
6.64846
20
10.5394
30
10.2
0
VERTEX
10
6.64846
20
10.5364
30
10.2
0
VERTEX
10
6.63805
20
10.526
30
10.2
0
VERTEX
10
6.63062
20
10.5156
30
10.2
0
VERTEX
10
6.62764
20
10.5096
30
10.2
0
VERTEX
10
6.62467
20
10.5067
30
10.2
0
VERTEX
10
6.6202
20
10.4829
30
10.2
0
VERTEX
10
6.61426
20
10.4784
30
10.2
0
VERTEX
10
6.60979
20
10.4665
30
10.2
0
VERTEX
10
6.60979
20
10.4546
30
10.2
0
VERTEX
10
6.60979
20
10.4501
30
10.2
0
SEQEND
0
ENDSEC
0
EOF
