0
SECTION
2
ENTITIES
0
POLYLINE
62
31
66
1
70
1
3
contour
0
VERTEX
10
8.89167
20
9.33515
30
5.84
0
VERTEX
10
8.89611
20
9.32628
30
5.84
0
VERTEX
10
8.89832
20
9.30854
30
5.84
0
VERTEX
10
8.89832
20
9.29967
30
5.84
0
VERTEX
10
8.90276
20
9.29523
30
5.84
0
VERTEX
10
8.90497
20
9.27749
30
5.84
0
VERTEX
10
8.90941
20
9.26862
30
5.84
0
VERTEX
10
8.90941
20
9.25975
30
5.84
0
VERTEX
10
8.91606
20
9.24202
30
5.84
0
VERTEX
10
8.94489
20
9.21097
30
5.84
0
VERTEX
10
8.95376
20
9.20432
30
5.84
0
VERTEX
10
8.95597
20
9.19989
30
5.84
0
VERTEX
10
8.96041
20
9.19989
30
5.84
0
VERTEX
10
8.97815
20
9.18436
30
5.84
0
VERTEX
10
8.99589
20
9.17771
30
5.84
0
VERTEX
10
9.00032
20
9.17771
30
5.84
0
VERTEX
10
9.00476
20
9.17328
30
5.84
0
VERTEX
10
9.0225
20
9.16884
30
5.84
0
VERTEX
10
9.03137
20
9.16219
30
5.84
0
VERTEX
10
9.06684
20
9.15554
30
5.84
0
VERTEX
10
9.07571
20
9.1511
30
5.84
0
VERTEX
10
9.09345
20
9.14889
30
5.84
0
VERTEX
10
9.10232
20
9.14445
30
5.84
0
VERTEX
10
9.17328
20
9.14445
30
5.84
0
VERTEX
10
9.19102
20
9.14667
30
5.84
0
VERTEX
10
9.22649
20
9.15997
30
5.84
0
VERTEX
10
9.2398
20
9.17106
30
5.84
0
VERTEX
10
9.24867
20
9.17328
30
5.84
0
VERTEX
10
9.2531
20
9.17771
30
5.84
0
VERTEX
10
9.27084
20
9.18215
30
5.84
0
VERTEX
10
9.28636
20
9.19102
30
5.84
0
VERTEX
10
9.3041
20
9.20876
30
5.84
0
VERTEX
10
9.30854
20
9.21762
30
5.84
0
VERTEX
10
9.30854
20
9.22206
30
5.84
0
VERTEX
10
9.31962
20
9.2398
30
5.84
0
VERTEX
10
9.32628
20
9.25754
30
5.84
0
VERTEX
10
9.33958
20
9.27306
30
5.84
0
VERTEX
10
9.3418
20
9.30854
30
5.84
0
VERTEX
10
9.33958
20
9.37949
30
5.84
0
VERTEX
10
9.33958
20
9.38836
30
5.84
0
VERTEX
10
9.32849
20
9.4061
30
5.84
0
VERTEX
10
9.32184
20
9.42384
30
5.84
0
VERTEX
10
9.30632
20
9.43714
30
5.84
0
VERTEX
10
9.27084
20
9.43493
30
5.84
0
VERTEX
10
9.19989
20
9.44158
30
5.84
0
VERTEX
10
9.19102
20
9.4438
30
5.84
0
VERTEX
10
9.18658
20
9.44823
30
5.84
0
VERTEX
10
9.16884
20
9.44823
30
5.84
0
VERTEX
10
9.16441
20
9.45267
30
5.84
0
VERTEX
10
9.15997
20
9.45267
30
5.84
0
VERTEX
10
9.15776
20
9.4571
30
5.84
0
VERTEX
10
9.14002
20
9.46154
30
5.84
0
VERTEX
10
9.12228
20
9.47262
30
5.84
0
VERTEX
10
9.12006
20
9.47706
30
5.84
0
VERTEX
10
9.11119
20
9.47927
30
5.84
0
VERTEX
10
9.10232
20
9.48814
30
5.84
0
VERTEX
10
9.09345
20
9.49036
30
5.84
0
VERTEX
10
9.07571
20
9.48371
30
5.84
0
VERTEX
10
9.06019
20
9.47041
30
5.84
0
VERTEX
10
9.02471
20
9.45267
30
5.84
0
VERTEX
10
9.01584
20
9.45267
30
5.84
0
VERTEX
10
9.01141
20
9.44823
30
5.84
0
VERTEX
10
8.99367
20
9.44601
30
5.84
0
VERTEX
10
8.98924
20
9.44601
30
5.84
0
VERTEX
10
8.98037
20
9.43936
30
5.84
0
VERTEX
10
8.94489
20
9.43493
30
5.84
0
VERTEX
10
8.93602
20
9.43493
30
5.84
0
VERTEX
10
8.93158
20
9.43493
30
5.84
0
VERTEX
10
8.91828
20
9.42162
30
5.84
0
VERTEX
10
8.90497
20
9.40388
30
5.84
0
VERTEX
10
8.90276
20
9.39501
30
5.84
0
VERTEX
10
8.89611
20
9.38615
30
5.84
0
VERTEX
10
8.89167
20
9.36841
30
5.84
0
VERTEX
10
8.89167
20
9.35067
30
5.84
0
VERTEX
10
8.89167
20
9.3418
30
5.84
0
VERTEX
10
8.89167
20
9.33736
30
5.84
0
SEQEND
0
POLYLINE
62
31
66
1
70
1
3
contour
0
VERTEX
10
8.3004
20
9.40624
30
5.84
0
VERTEX
10
8.30698
20
9.39966
30
5.84
0
VERTEX
10
8.30698
20
9.39308
30
5.84
0
VERTEX
10
8.32673
20
9.37333
30
5.84
0
VERTEX
10
8.32673
20
9.36675
30
5.84
0
VERTEX
10
8.33331
20
9.36017
30
5.84
0
VERTEX
10
8.33989
20
9.36017
30
5.84
0
VERTEX
10
8.34648
20
9.347
30
5.84
0
VERTEX
10
8.36951
20
9.32725
30
5.84
0
VERTEX
10
8.38597
20
9.3108
30
5.84
0
VERTEX
10
8.38597
20
9.30421
30
5.84
0
VERTEX
10
8.39914
20
9.29763
30
5.84
0
VERTEX
10
8.50445
20
9.28447
30
5.84
0
VERTEX
10
8.55711
20
9.28447
30
5.84
0
VERTEX
10
8.58344
20
9.29434
30
5.84
0
VERTEX
10
8.58673
20
9.32067
30
5.84
0
VERTEX
10
8.58673
20
9.33384
30
5.84
0
VERTEX
10
8.56699
20
9.3832
30
5.84
0
VERTEX
10
8.54395
20
9.40624
30
5.84
0
VERTEX
10
8.53078
20
9.41612
30
5.84
0
VERTEX
10
8.50445
20
9.4227
30
5.84
0
VERTEX
10
8.45838
20
9.4589
30
5.84
0
VERTEX
10
8.46167
20
9.47207
30
5.84
0
VERTEX
10
8.44192
20
9.4984
30
5.84
0
VERTEX
10
8.43863
20
9.51156
30
5.84
0
VERTEX
10
8.42217
20
9.5346
30
5.84
0
VERTEX
10
8.41888
20
9.54776
30
5.84
0
VERTEX
10
8.40901
20
9.56093
30
5.84
0
VERTEX
10
8.39584
20
9.56751
30
5.84
0
VERTEX
10
8.38926
20
9.56751
30
5.84
0
VERTEX
10
8.3761
20
9.58397
30
5.84
0
VERTEX
10
8.36293
20
9.57738
30
5.84
0
VERTEX
10
8.35306
20
9.56422
30
5.84
0
VERTEX
10
8.34977
20
9.55105
30
5.84
0
VERTEX
10
8.34977
20
9.54447
30
5.84
0
VERTEX
10
8.34319
20
9.54118
30
5.84
0
VERTEX
10
8.33989
20
9.51485
30
5.84
0
VERTEX
10
8.33989
20
9.50169
30
5.84
0
VERTEX
10
8.33002
20
9.47536
30
5.84
0
VERTEX
10
8.31027
20
9.44903
30
5.84
0
VERTEX
10
8.3004
20
9.42599
30
5.84
0
VERTEX
10
8.3004
20
9.41282
30
5.84
0
VERTEX
10
8.3004
20
9.40953
30
5.84
0
SEQEND
0
POLYLINE
62
31
66
1
70
1
3
contour
0
VERTEX
10
7.63818
20
9.26599
30
5.84
0
VERTEX
10
7.64084
20
9.24468
30
5.84
0
VERTEX
10
7.64084
20
9.23935
30
5.84
0
VERTEX
10
7.64617
20
9.23402
30
5.84
0
VERTEX
10
7.64617
20
9.22336
30
5.84
0
VERTEX
10
7.67548
20
9.18074
30
5.84
0
VERTEX
10
7.68613
20
9.17274
30
5.84
0
VERTEX
10
7.69679
20
9.17008
30
5.84
0
VERTEX
10
7.70478
20
9.16209
30
5.84
0
VERTEX
10
7.71011
20
9.16209
30
5.84
0
VERTEX
10
7.72077
20
9.15143
30
5.84
0
VERTEX
10
7.7634
20
9.12745
30
5.84
0
VERTEX
10
7.78471
20
9.11946
30
5.84
0
VERTEX
10
7.80602
20
9.11679
30
5.84
0
VERTEX
10
7.82467
20
9.12479
30
5.84
0
VERTEX
10
7.83533
20
9.12745
30
5.84
0
VERTEX
10
7.84865
20
9.14876
30
5.84
0
VERTEX
10
7.85931
20
9.15676
30
5.84
0
VERTEX
10
7.86996
20
9.17541
30
5.84
0
VERTEX
10
7.88062
20
9.17807
30
5.84
0
VERTEX
10
7.88062
20
9.18873
30
5.84
0
VERTEX
10
7.89927
20
9.20471
30
5.84
0
VERTEX
10
7.9046
20
9.21537
30
5.84
0
VERTEX
10
7.91525
20
9.22336
30
5.84
0
VERTEX
10
7.92058
20
9.23402
30
5.84
0
VERTEX
10
7.92325
20
9.27665
30
5.84
0
VERTEX
10
7.92058
20
9.31927
30
5.84
0
VERTEX
10
7.91792
20
9.32993
30
5.84
0
VERTEX
10
7.90993
20
9.34059
30
5.84
0
VERTEX
10
7.88861
20
9.34858
30
5.84
0
VERTEX
10
7.80336
20
9.34858
30
5.84
0
VERTEX
10
7.76073
20
9.34325
30
5.84
0
VERTEX
10
7.73942
20
9.34325
30
5.84
0
VERTEX
10
7.7181
20
9.33792
30
5.84
0
VERTEX
10
7.70745
20
9.33792
30
5.84
0
VERTEX
10
7.66482
20
9.32194
30
5.84
0
VERTEX
10
7.65416
20
9.31927
30
5.84
0
VERTEX
10
7.64617
20
9.31128
30
5.84
0
VERTEX
10
7.64351
20
9.30062
30
5.84
0
VERTEX
10
7.64351
20
9.29529
30
5.84
0
VERTEX
10
7.63818
20
9.29263
30
5.84
0
VERTEX
10
7.63818
20
9.27132
30
5.84
0
VERTEX
10
7.63818
20
9.26865
30
5.84
0
SEQEND
0
POLYLINE
62
224
66
1
70
1
3
mitochondrion
0
VERTEX
10
9.1101
20
9.32422
30
5.84
0
VERTEX
10
9.11149
20
9.30198
30
5.84
0
VERTEX
10
9.11288
20
9.29085
30
5.84
0
VERTEX
10
9.12539
20
9.26861
30
5.84
0
VERTEX
10
9.13651
20
9.26165
30
5.84
0
VERTEX
10
9.14208
20
9.25748
30
5.84
0
VERTEX
10
9.14486
20
9.25748
30
5.84
0
VERTEX
10
9.14903
20
9.25192
30
5.84
0
VERTEX
10
9.15459
20
9.24914
30
5.84
0
VERTEX
10
9.19908
20
9.24914
30
5.84
0
VERTEX
10
9.20465
20
9.24914
30
5.84
0
VERTEX
10
9.20743
20
9.24914
30
5.84
0
VERTEX
10
9.21021
20
9.25192
30
5.84
0
VERTEX
10
9.22133
20
9.25331
30
5.84
0
VERTEX
10
9.22689
20
9.25748
30
5.84
0
VERTEX
10
9.23802
20
9.26165
30
5.84
0
VERTEX
10
9.24775
20
9.27
30
5.84
0
VERTEX
10
9.25331
20
9.27139
30
5.84
0
VERTEX
10
9.26026
20
9.28112
30
5.84
0
VERTEX
10
9.26304
20
9.28668
30
5.84
0
VERTEX
10
9.26304
20
9.28946
30
5.84
0
VERTEX
10
9.26582
20
9.29224
30
5.84
0
VERTEX
10
9.26443
20
9.33674
30
5.84
0
VERTEX
10
9.26582
20
9.34647
30
5.84
0
VERTEX
10
9.26722
20
9.34925
30
5.84
0
VERTEX
10
9.26304
20
9.36037
30
5.84
0
VERTEX
10
9.25053
20
9.38262
30
5.84
0
VERTEX
10
9.25053
20
9.3854
30
5.84
0
VERTEX
10
9.24219
20
9.39513
30
5.84
0
VERTEX
10
9.23802
20
9.39931
30
5.84
0
VERTEX
10
9.23245
20
9.4007
30
5.84
0
VERTEX
10
9.2116
20
9.4146
30
5.84
0
VERTEX
10
9.20047
20
9.41877
30
5.84
0
VERTEX
10
9.18935
20
9.42016
30
5.84
0
VERTEX
10
9.1671
20
9.41738
30
5.84
0
VERTEX
10
9.15598
20
9.41599
30
5.84
0
VERTEX
10
9.15042
20
9.4146
30
5.84
0
VERTEX
10
9.14069
20
9.40765
30
5.84
0
VERTEX
10
9.13373
20
9.39653
30
5.84
0
VERTEX
10
9.124
20
9.38679
30
5.84
0
VERTEX
10
9.11427
20
9.37984
30
5.84
0
VERTEX
10
9.11149
20
9.37845
30
5.84
0
VERTEX
10
9.1101
20
9.33396
30
5.84
0
VERTEX
10
9.1101
20
9.32839
30
5.84
0
VERTEX
10
9.1101
20
9.32561
30
5.84
0
SEQEND
0
POLYLINE
62
227
66
1
70
1
3
endoplasmic_reticulum
0
VERTEX
10
8.99774
20
9.28105
30
5.84
0
VERTEX
10
9.00222
20
9.27656
30
5.84
0
VERTEX
10
9.00581
20
9.27656
30
5.84
0
VERTEX
10
9.01746
20
9.2676
30
5.84
0
VERTEX
10
9.02194
20
9.26132
30
5.84
0
VERTEX
10
9.02463
20
9.25863
30
5.84
0
VERTEX
10
9.02643
20
9.25863
30
5.84
0
VERTEX
10
9.02912
20
9.25505
30
5.84
0
VERTEX
10
9.03001
20
9.24877
30
5.84
0
VERTEX
10
9.03091
20
9.24518
30
5.84
0
VERTEX
10
9.0336
20
9.24339
30
5.84
0
VERTEX
10
9.0345
20
9.2398
30
5.84
0
VERTEX
10
9.03898
20
9.23353
30
5.84
0
VERTEX
10
9.04077
20
9.23353
30
5.84
0
VERTEX
10
9.04346
20
9.23084
30
5.84
0
VERTEX
10
9.04705
20
9.22994
30
5.84
0
VERTEX
10
9.05422
20
9.23442
30
5.84
0
VERTEX
10
9.06049
20
9.2407
30
5.84
0
VERTEX
10
9.06049
20
9.25505
30
5.84
0
VERTEX
10
9.06049
20
9.25863
30
5.84
0
VERTEX
10
9.05422
20
9.27298
30
5.84
0
VERTEX
10
9.05153
20
9.27656
30
5.84
0
VERTEX
10
9.05153
20
9.27836
30
5.84
0
VERTEX
10
9.04884
20
9.28194
30
5.84
0
VERTEX
10
9.04705
20
9.28284
30
5.84
0
VERTEX
10
9.04705
20
9.28463
30
5.84
0
VERTEX
10
9.04346
20
9.28732
30
5.84
0
VERTEX
10
9.04167
20
9.28911
30
5.84
0
VERTEX
10
9.0345
20
9.29091
30
5.84
0
VERTEX
10
9.03181
20
9.2936
30
5.84
0
VERTEX
10
9.03181
20
9.29718
30
5.84
0
VERTEX
10
9.03539
20
9.30346
30
5.84
0
VERTEX
10
9.03629
20
9.31063
30
5.84
0
VERTEX
10
9.03629
20
9.31422
30
5.84
0
VERTEX
10
9.04436
20
9.32767
30
5.84
0
VERTEX
10
9.04436
20
9.32946
30
5.84
0
VERTEX
10
9.04615
20
9.33125
30
5.84
0
VERTEX
10
9.04615
20
9.33305
30
5.84
0
VERTEX
10
9.05153
20
9.34022
30
5.84
0
VERTEX
10
9.05243
20
9.34739
30
5.84
0
VERTEX
10
9.05063
20
9.35456
30
5.84
0
VERTEX
10
9.04794
20
9.35815
30
5.84
0
VERTEX
10
9.04705
20
9.37249
30
5.84
0
VERTEX
10
9.04974
20
9.37967
30
5.84
0
VERTEX
10
9.05422
20
9.38594
30
5.84
0
VERTEX
10
9.05691
20
9.39311
30
5.84
0
VERTEX
10
9.05601
20
9.40746
30
5.84
0
VERTEX
10
9.05422
20
9.41463
30
5.84
0
VERTEX
10
9.05332
20
9.41822
30
5.84
0
VERTEX
10
9.05153
20
9.42001
30
5.84
0
VERTEX
10
9.05153
20
9.4218
30
5.84
0
VERTEX
10
9.04974
20
9.4236
30
5.84
0
VERTEX
10
9.04974
20
9.42539
30
5.84
0
VERTEX
10
9.04436
20
9.43167
30
5.84
0
VERTEX
10
9.03001
20
9.42987
30
5.84
0
VERTEX
10
9.02284
20
9.43077
30
5.84
0
VERTEX
10
9.01656
20
9.42539
30
5.84
0
VERTEX
10
9.01298
20
9.4236
30
5.84
0
VERTEX
10
9.01029
20
9.42001
30
5.84
0
VERTEX
10
9.0067
20
9.41822
30
5.84
0
VERTEX
10
9.00491
20
9.41732
30
5.84
0
VERTEX
10
9.00491
20
9.41015
30
5.84
0
VERTEX
10
9.00312
20
9.40298
30
5.84
0
VERTEX
10
8.99953
20
9.40029
30
5.84
0
VERTEX
10
8.99863
20
9.38594
30
5.84
0
VERTEX
10
8.99863
20
9.37877
30
5.84
0
VERTEX
10
8.99953
20
9.37518
30
5.84
0
VERTEX
10
9.00491
20
9.36891
30
5.84
0
VERTEX
10
9.0076
20
9.36532
30
5.84
0
VERTEX
10
9.0085
20
9.36173
30
5.84
0
VERTEX
10
9.01118
20
9.35815
30
5.84
0
VERTEX
10
9.01029
20
9.3438
30
5.84
0
VERTEX
10
9.0076
20
9.32946
30
5.84
0
VERTEX
10
9.0076
20
9.32229
30
5.84
0
VERTEX
10
9.00491
20
9.3187
30
5.84
0
VERTEX
10
9.00401
20
9.31153
30
5.84
0
VERTEX
10
9.00132
20
9.30794
30
5.84
0
VERTEX
10
9.00132
20
9.30436
30
5.84
0
VERTEX
10
8.99863
20
9.29718
30
5.84
0
VERTEX
10
8.99863
20
9.28284
30
5.84
0
VERTEX
10
8.99774
20
9.28194
30
5.84
0
SEQEND
0
ENDSEC
0
EOF
