0
SECTION
2
ENTITIES
0
POLYLINE
62
31
66
1
70
1
3
contour
0
VERTEX
10
7.51217
20
10.3498
30
8.92
0
VERTEX
10
7.51876
20
10.2971
30
8.92
0
VERTEX
10
7.51876
20
10.2708
30
8.92
0
VERTEX
10
7.52863
20
10.2181
30
8.92
0
VERTEX
10
7.52863
20
10.2116
30
8.92
0
VERTEX
10
7.5418
20
10.1984
30
8.92
0
VERTEX
10
7.55826
20
10.1753
30
8.92
0
VERTEX
10
7.60106
20
10.1325
30
8.92
0
VERTEX
10
7.65044
20
10.093
30
8.92
0
VERTEX
10
7.67348
20
10.07
30
8.92
0
VERTEX
10
7.68006
20
10.07
30
8.92
0
VERTEX
10
7.68665
20
10.0634
30
8.92
0
VERTEX
10
7.73932
20
10.0568
30
8.92
0
VERTEX
10
7.84466
20
10.0568
30
8.92
0
VERTEX
10
7.87099
20
10.0502
30
8.92
0
VERTEX
10
7.88416
20
10.0404
30
8.92
0
VERTEX
10
7.89733
20
10.0404
30
8.92
0
VERTEX
10
7.90062
20
10.0338
30
8.92
0
VERTEX
10
7.91379
20
10.0338
30
8.92
0
VERTEX
10
7.93683
20
10.0173
30
8.92
0
VERTEX
10
7.95
20
10.0042
30
8.92
0
VERTEX
10
7.96317
20
10.0042
30
8.92
0
VERTEX
10
7.97634
20
9.99099
30
8.92
0
VERTEX
10
8.00267
20
9.98441
30
8.92
0
VERTEX
10
8.01255
20
9.97453
30
8.92
0
VERTEX
10
8.02571
20
9.97124
30
8.92
0
VERTEX
10
8.03888
20
9.96137
30
8.92
0
VERTEX
10
8.06522
20
9.96137
30
8.92
0
VERTEX
10
8.07839
20
9.96466
30
8.92
0
VERTEX
10
8.09814
20
9.98441
30
8.92
0
VERTEX
10
8.1113
20
10.0107
30
8.92
0
VERTEX
10
8.1113
20
10.0173
30
8.92
0
VERTEX
10
8.11789
20
10.0239
30
8.92
0
VERTEX
10
8.11789
20
10.0371
30
8.92
0
VERTEX
10
8.13764
20
10.0898
30
8.92
0
VERTEX
10
8.13764
20
10.0963
30
8.92
0
VERTEX
10
8.14422
20
10.1029
30
8.92
0
VERTEX
10
8.14422
20
10.1095
30
8.92
0
VERTEX
10
8.15081
20
10.1161
30
8.92
0
VERTEX
10
8.15081
20
10.1293
30
8.92
0
VERTEX
10
8.15739
20
10.1358
30
8.92
0
VERTEX
10
8.16398
20
10.1622
30
8.92
0
VERTEX
10
8.16398
20
10.1688
30
8.92
0
VERTEX
10
8.17056
20
10.1753
30
8.92
0
VERTEX
10
8.17385
20
10.1885
30
8.92
0
VERTEX
10
8.17385
20
10.1951
30
8.92
0
VERTEX
10
8.18044
20
10.2017
30
8.92
0
VERTEX
10
8.18044
20
10.2083
30
8.92
0
VERTEX
10
8.19031
20
10.2214
30
8.92
0
VERTEX
10
8.1936
20
10.2346
30
8.92
0
VERTEX
10
8.1936
20
10.2412
30
8.92
0
VERTEX
10
8.21335
20
10.2675
30
8.92
0
VERTEX
10
8.21994
20
10.2807
30
8.92
0
VERTEX
10
8.21994
20
10.2939
30
8.92
0
VERTEX
10
8.22652
20
10.307
30
8.92
0
VERTEX
10
8.22981
20
10.3597
30
8.92
0
VERTEX
10
8.22981
20
10.3729
30
8.92
0
VERTEX
10
8.23969
20
10.386
30
8.92
0
VERTEX
10
8.23969
20
10.3992
30
8.92
0
VERTEX
10
8.26273
20
10.4519
30
8.92
0
VERTEX
10
8.27261
20
10.4782
30
8.92
0
VERTEX
10
8.28578
20
10.4881
30
8.92
0
VERTEX
10
8.28907
20
10.5012
30
8.92
0
VERTEX
10
8.29894
20
10.5078
30
8.92
0
VERTEX
10
8.30882
20
10.521
30
8.92
0
VERTEX
10
8.30553
20
10.5473
30
8.92
0
VERTEX
10
8.31211
20
10.5605
30
8.92
0
VERTEX
10
8.31211
20
10.5868
30
8.92
0
VERTEX
10
8.30553
20
10.6
30
8.92
0
VERTEX
10
8.25615
20
10.6362
30
8.92
0
VERTEX
10
8.24298
20
10.6889
30
8.92
0
VERTEX
10
8.2364
20
10.7021
30
8.92
0
VERTEX
10
8.21006
20
10.7053
30
8.92
0
VERTEX
10
8.19689
20
10.7119
30
8.92
0
VERTEX
10
8.14422
20
10.7185
30
8.92
0
VERTEX
10
8.13106
20
10.7218
30
8.92
0
VERTEX
10
8.12447
20
10.7284
30
8.92
0
VERTEX
10
8.09814
20
10.7284
30
8.92
0
VERTEX
10
8.08497
20
10.735
30
8.92
0
VERTEX
10
8.0718
20
10.735
30
8.92
0
VERTEX
10
8.06522
20
10.735
30
8.92
0
VERTEX
10
8.05863
20
10.7416
30
8.92
0
VERTEX
10
8.00596
20
10.7481
30
8.92
0
VERTEX
10
7.97963
20
10.758
30
8.92
0
VERTEX
10
7.95329
20
10.7613
30
8.92
0
VERTEX
10
7.90062
20
10.7547
30
8.92
0
VERTEX
10
7.87429
20
10.7514
30
8.92
0
VERTEX
10
7.86112
20
10.7448
30
8.92
0
VERTEX
10
7.80845
20
10.7416
30
8.92
0
VERTEX
10
7.78211
20
10.7383
30
8.92
0
VERTEX
10
7.76894
20
10.735
30
8.92
0
VERTEX
10
7.76236
20
10.735
30
8.92
0
VERTEX
10
7.74919
20
10.7251
30
8.92
0
VERTEX
10
7.72286
20
10.7218
30
8.92
0
VERTEX
10
7.71627
20
10.7185
30
8.92
0
VERTEX
10
7.71627
20
10.7119
30
8.92
0
VERTEX
10
7.70311
20
10.7021
30
8.92
0
VERTEX
10
7.69652
20
10.7021
30
8.92
0
VERTEX
10
7.68994
20
10.6889
30
8.92
0
VERTEX
10
7.68335
20
10.6889
30
8.92
0
VERTEX
10
7.67677
20
10.679
30
8.92
0
VERTEX
10
7.6636
20
10.6691
30
8.92
0
VERTEX
10
7.65702
20
10.6691
30
8.92
0
VERTEX
10
7.63398
20
10.6461
30
8.92
0
VERTEX
10
7.62739
20
10.6494
30
8.92
0
VERTEX
10
7.62081
20
10.6362
30
8.92
0
VERTEX
10
7.59776
20
10.6132
30
8.92
0
VERTEX
10
7.59776
20
10.6066
30
8.92
0
VERTEX
10
7.59118
20
10.6
30
8.92
0
VERTEX
10
7.59118
20
10.5934
30
8.92
0
VERTEX
10
7.57801
20
10.5835
30
8.92
0
VERTEX
10
7.56155
20
10.5638
30
8.92
0
VERTEX
10
7.53193
20
10.5111
30
8.92
0
VERTEX
10
7.53193
20
10.498
30
8.92
0
VERTEX
10
7.52205
20
10.4716
30
8.92
0
VERTEX
10
7.52205
20
10.4453
30
8.92
0
VERTEX
10
7.51547
20
10.4321
30
8.92
0
VERTEX
10
7.51217
20
10.3794
30
8.92
0
VERTEX
10
7.51217
20
10.3531
30
8.92
0
SEQEND
0
POLYLINE
62
224
66
1
70
1
3
mitochondrion
0
VERTEX
10
7.65571
20
10.4004
30
8.92
0
VERTEX
10
7.6571
20
10.3782
30
8.92
0
VERTEX
10
7.65988
20
10.367
30
8.92
0
VERTEX
10
7.66127
20
10.3448
30
8.92
0
VERTEX
10
7.66127
20
10.3337
30
8.92
0
VERTEX
10
7.66405
20
10.3281
30
8.92
0
VERTEX
10
7.66405
20
10.3059
30
8.92
0
VERTEX
10
7.66405
20
10.2947
30
8.92
0
VERTEX
10
7.66822
20
10.2725
30
8.92
0
VERTEX
10
7.671
20
10.2614
30
8.92
0
VERTEX
10
7.671
20
10.2558
30
8.92
0
VERTEX
10
7.67517
20
10.2502
30
8.92
0
VERTEX
10
7.67795
20
10.2475
30
8.92
0
VERTEX
10
7.67934
20
10.2419
30
8.92
0
VERTEX
10
7.69325
20
10.2224
30
8.92
0
VERTEX
10
7.71411
20
10.2016
30
8.92
0
VERTEX
10
7.73635
20
10.1891
30
8.92
0
VERTEX
10
7.74748
20
10.1835
30
8.92
0
VERTEX
10
7.76972
20
10.1807
30
8.92
0
VERTEX
10
7.81422
20
10.1821
30
8.92
0
VERTEX
10
7.81978
20
10.1821
30
8.92
0
VERTEX
10
7.82256
20
10.1821
30
8.92
0
VERTEX
10
7.82534
20
10.1849
30
8.92
0
VERTEX
10
7.83646
20
10.1863
30
8.92
0
VERTEX
10
7.84202
20
10.1877
30
8.92
0
VERTEX
10
7.84759
20
10.1919
30
8.92
0
VERTEX
10
7.85315
20
10.1932
30
8.92
0
VERTEX
10
7.85593
20
10.196
30
8.92
0
VERTEX
10
7.85871
20
10.196
30
8.92
0
VERTEX
10
7.87818
20
10.2099
30
8.92
0
VERTEX
10
7.88235
20
10.2155
30
8.92
0
VERTEX
10
7.88235
20
10.2183
30
8.92
0
VERTEX
10
7.89347
20
10.228
30
8.92
0
VERTEX
10
7.89347
20
10.2308
30
8.92
0
VERTEX
10
7.90042
20
10.2419
30
8.92
0
VERTEX
10
7.91572
20
10.26
30
8.92
0
VERTEX
10
7.92128
20
10.2711
30
8.92
0
VERTEX
10
7.92406
20
10.2767
30
8.92
0
VERTEX
10
7.92684
20
10.2794
30
8.92
0
VERTEX
10
7.92684
20
10.2822
30
8.92
0
VERTEX
10
7.93379
20
10.2934
30
8.92
0
VERTEX
10
7.93657
20
10.2961
30
8.92
0
VERTEX
10
7.93935
20
10.3073
30
8.92
0
VERTEX
10
7.94214
20
10.31
30
8.92
0
VERTEX
10
7.9477
20
10.3323
30
8.92
0
VERTEX
10
7.94631
20
10.3378
30
8.92
0
VERTEX
10
7.95048
20
10.349
30
8.92
0
VERTEX
10
7.95326
20
10.3935
30
8.92
0
VERTEX
10
7.95326
20
10.4157
30
8.92
0
VERTEX
10
7.95048
20
10.4268
30
8.92
0
VERTEX
10
7.94909
20
10.4491
30
8.92
0
VERTEX
10
7.9477
20
10.4546
30
8.92
0
VERTEX
10
7.94492
20
10.4574
30
8.92
0
VERTEX
10
7.94353
20
10.4685
30
8.92
0
VERTEX
10
7.93796
20
10.4797
30
8.92
0
VERTEX
10
7.93518
20
10.4825
30
8.92
0
VERTEX
10
7.93518
20
10.4852
30
8.92
0
VERTEX
10
7.92684
20
10.495
30
8.92
0
VERTEX
10
7.92406
20
10.5005
30
8.92
0
VERTEX
10
7.91433
20
10.5075
30
8.92
0
VERTEX
10
7.88791
20
10.5478
30
8.92
0
VERTEX
10
7.86705
20
10.5673
30
8.92
0
VERTEX
10
7.85593
20
10.577
30
8.92
0
VERTEX
10
7.85037
20
10.5798
30
8.92
0
VERTEX
10
7.80587
20
10.57
30
8.92
0
VERTEX
10
7.79475
20
10.5673
30
8.92
0
VERTEX
10
7.78919
20
10.5645
30
8.92
0
VERTEX
10
7.77806
20
10.5631
30
8.92
0
VERTEX
10
7.76833
20
10.5575
30
8.92
0
VERTEX
10
7.76277
20
10.5534
30
8.92
0
VERTEX
10
7.75999
20
10.5492
30
8.92
0
VERTEX
10
7.74052
20
10.5325
30
8.92
0
VERTEX
10
7.73496
20
10.5311
30
8.92
0
VERTEX
10
7.72384
20
10.5228
30
8.92
0
VERTEX
10
7.72245
20
10.5186
30
8.92
0
VERTEX
10
7.71689
20
10.513
30
8.92
0
VERTEX
10
7.70576
20
10.5089
30
8.92
0
VERTEX
10
7.70298
20
10.5089
30
8.92
0
VERTEX
10
7.7002
20
10.5061
30
8.92
0
VERTEX
10
7.69881
20
10.5005
30
8.92
0
VERTEX
10
7.68769
20
10.4894
30
8.92
0
VERTEX
10
7.6863
20
10.4838
30
8.92
0
VERTEX
10
7.67795
20
10.4755
30
8.92
0
VERTEX
10
7.66266
20
10.4533
30
8.92
0
VERTEX
10
7.65849
20
10.4421
30
8.92
0
VERTEX
10
7.65571
20
10.4199
30
8.92
0
VERTEX
10
7.65571
20
10.4088
30
8.92
0
VERTEX
10
7.65571
20
10.4032
30
8.92
0
VERTEX
10
7.65571
20
10.4018
30
8.92
0
SEQEND
0
POLYLINE
62
227
66
1
70
1
3
endoplasmic_reticulum
0
VERTEX
10
7.55788
20
10.3443
30
8.92
0
VERTEX
10
7.56057
20
10.33
30
8.92
0
VERTEX
10
7.56147
20
10.3264
30
8.92
0
VERTEX
10
7.56147
20
10.3246
30
8.92
0
VERTEX
10
7.56416
20
10.321
30
8.92
0
VERTEX
10
7.56864
20
10.3076
30
8.92
0
VERTEX
10
7.57044
20
10.304
30
8.92
0
VERTEX
10
7.57223
20
10.2897
30
8.92
0
VERTEX
10
7.57223
20
10.2861
30
8.92
0
VERTEX
10
7.57581
20
10.2789
30
8.92
0
VERTEX
10
7.5785
20
10.2753
30
8.92
0
VERTEX
10
7.59285
20
10.2762
30
8.92
0
VERTEX
10
7.59912
20
10.2789
30
8.92
0
VERTEX
10
7.60271
20
10.2816
30
8.92
0
VERTEX
10
7.6063
20
10.2888
30
8.92
0
VERTEX
10
7.6063
20
10.2959
30
8.92
0
VERTEX
10
7.60271
20
10.3103
30
8.92
0
VERTEX
10
7.60092
20
10.3121
30
8.92
0
VERTEX
10
7.59912
20
10.3192
30
8.92
0
VERTEX
10
7.60092
20
10.3479
30
8.92
0
VERTEX
10
7.60002
20
10.3551
30
8.92
0
VERTEX
10
7.59733
20
10.3623
30
8.92
0
VERTEX
10
7.59733
20
10.3659
30
8.92
0
VERTEX
10
7.59106
20
10.3721
30
8.92
0
VERTEX
10
7.58926
20
10.373
30
8.92
0
VERTEX
10
7.57492
20
10.3686
30
8.92
0
VERTEX
10
7.57133
20
10.3668
30
8.92
0
VERTEX
10
7.56954
20
10.3668
30
8.92
0
VERTEX
10
7.56595
20
10.3641
30
8.92
0
VERTEX
10
7.56595
20
10.3623
30
8.92
0
VERTEX
10
7.56416
20
10.3605
30
8.92
0
VERTEX
10
7.56416
20
10.3587
30
8.92
0
VERTEX
10
7.56237
20
10.3569
30
8.92
0
VERTEX
10
7.56147
20
10.3533
30
8.92
0
VERTEX
10
7.55878
20
10.3497
30
8.92
0
VERTEX
10
7.55788
20
10.3461
30
8.92
0
VERTEX
10
7.55788
20
10.3452
30
8.92
0
SEQEND
0
POLYLINE
62
227
66
1
70
1
3
endoplasmic_reticulum
0
VERTEX
10
8.01692
20
10.183
30
8.92
0
VERTEX
10
8.01871
20
10.1758
30
8.92
0
VERTEX
10
8.0214
20
10.1722
30
8.92
0
VERTEX
10
8.02857
20
10.1695
30
8.92
0
VERTEX
10
8.03574
20
10.1695
30
8.92
0
VERTEX
10
8.05009
20
10.1731
30
8.92
0
VERTEX
10
8.05726
20
10.1758
30
8.92
0
VERTEX
10
8.06085
20
10.1785
30
8.92
0
VERTEX
10
8.06354
20
10.1928
30
8.92
0
VERTEX
10
8.06443
20
10.2072
30
8.92
0
VERTEX
10
8.06891
20
10.2215
30
8.92
0
VERTEX
10
8.07519
20
10.235
30
8.92
0
VERTEX
10
8.07878
20
10.2421
30
8.92
0
VERTEX
10
8.07878
20
10.2457
30
8.92
0
VERTEX
10
8.07609
20
10.2529
30
8.92
0
VERTEX
10
8.07519
20
10.2672
30
8.92
0
VERTEX
10
8.07698
20
10.2816
30
8.92
0
VERTEX
10
8.07967
20
10.2852
30
8.92
0
VERTEX
10
8.07967
20
10.2888
30
8.92
0
VERTEX
10
8.08236
20
10.2923
30
8.92
0
VERTEX
10
8.08236
20
10.3067
30
8.92
0
VERTEX
10
8.08147
20
10.3103
30
8.92
0
VERTEX
10
8.07519
20
10.3157
30
8.92
0
VERTEX
10
8.0716
20
10.3183
30
8.92
0
VERTEX
10
8.07071
20
10.3201
30
8.92
0
VERTEX
10
8.05636
20
10.3175
30
8.92
0
VERTEX
10
8.05278
20
10.3166
30
8.92
0
VERTEX
10
8.0465
20
10.3112
30
8.92
0
VERTEX
10
8.04471
20
10.3085
30
8.92
0
VERTEX
10
8.03754
20
10.3022
30
8.92
0
VERTEX
10
8.03305
20
10.295
30
8.92
0
VERTEX
10
8.03036
20
10.2807
30
8.92
0
VERTEX
10
8.02947
20
10.2771
30
8.92
0
VERTEX
10
8.02767
20
10.2753
30
8.92
0
VERTEX
10
8.02588
20
10.261
30
8.92
0
VERTEX
10
8.02498
20
10.2323
30
8.92
0
VERTEX
10
8.02229
20
10.2251
30
8.92
0
VERTEX
10
8.02229
20
10.2215
30
8.92
0
VERTEX
10
8.0205
20
10.2179
30
8.92
0
VERTEX
10
8.0205
20
10.2143
30
8.92
0
VERTEX
10
8.01871
20
10.2108
30
8.92
0
VERTEX
10
8.01692
20
10.1964
30
8.92
0
VERTEX
10
8.01692
20
10.1892
30
8.92
0
VERTEX
10
8.01692
20
10.1857
30
8.92
0
VERTEX
10
8.01692
20
10.1839
30
8.92
0
SEQEND
0
POLYLINE
62
227
66
1
70
1
3
endoplasmic_reticulum
0
VERTEX
10
7.94698
20
10.252
30
8.92
0
VERTEX
10
7.94788
20
10.2377
30
8.92
0
VERTEX
10
7.94878
20
10.2305
30
8.92
0
VERTEX
10
7.94967
20
10.2269
30
8.92
0
VERTEX
10
7.95236
20
10.2242
30
8.92
0
VERTEX
10
7.96671
20
10.2242
30
8.92
0
VERTEX
10
7.97388
20
10.2251
30
8.92
0
VERTEX
10
7.97567
20
10.2251
30
8.92
0
VERTEX
10
7.97747
20
10.2269
30
8.92
0
VERTEX
10
7.97747
20
10.2287
30
8.92
0
VERTEX
10
7.98016
20
10.2323
30
8.92
0
VERTEX
10
7.98195
20
10.2395
30
8.92
0
VERTEX
10
7.98285
20
10.243
30
8.92
0
VERTEX
10
7.98554
20
10.2466
30
8.92
0
VERTEX
10
7.98554
20
10.2484
30
8.92
0
VERTEX
10
7.98733
20
10.2484
30
8.92
0
VERTEX
10
7.99002
20
10.252
30
8.92
0
VERTEX
10
7.99181
20
10.252
30
8.92
0
VERTEX
10
7.99271
20
10.2556
30
8.92
0
VERTEX
10
7.9945
20
10.2574
30
8.92
0
VERTEX
10
7.9954
20
10.261
30
8.92
0
VERTEX
10
7.9954
20
10.2628
30
8.92
0
VERTEX
10
7.99719
20
10.2646
30
8.92
0
VERTEX
10
7.99809
20
10.2789
30
8.92
0
VERTEX
10
7.99898
20
10.2861
30
8.92
0
VERTEX
10
8.00436
20
10.2995
30
8.92
0
VERTEX
10
8.00526
20
10.3139
30
8.92
0
VERTEX
10
8.00347
20
10.3175
30
8.92
0
VERTEX
10
8.00347
20
10.321
30
8.92
0
VERTEX
10
8.00078
20
10.3246
30
8.92
0
VERTEX
10
7.99361
20
10.3264
30
8.92
0
VERTEX
10
7.98643
20
10.3228
30
8.92
0
VERTEX
10
7.97926
20
10.3228
30
8.92
0
VERTEX
10
7.97209
20
10.3201
30
8.92
0
VERTEX
10
7.9685
20
10.3192
30
8.92
0
VERTEX
10
7.96402
20
10.313
30
8.92
0
VERTEX
10
7.96133
20
10.3094
30
8.92
0
VERTEX
10
7.96043
20
10.3022
30
8.92
0
VERTEX
10
7.95505
20
10.2888
30
8.92
0
VERTEX
10
7.95326
20
10.2879
30
8.92
0
VERTEX
10
7.95147
20
10.2807
30
8.92
0
VERTEX
10
7.94878
20
10.278
30
8.92
0
VERTEX
10
7.94698
20
10.2708
30
8.92
0
VERTEX
10
7.94698
20
10.2565
30
8.92
0
VERTEX
10
7.94698
20
10.2529
30
8.92
0
SEQEND
0
ENDSEC
0
EOF
