0
SECTION
2
ENTITIES
0
POLYLINE
62
31
66
1
70
1
3
contour
0
VERTEX
10
6.89381
20
10.6056
30
10
0
VERTEX
10
6.92365
20
10.6018
30
10
0
VERTEX
10
6.93858
20
10.5981
30
10
0
VERTEX
10
6.94604
20
10.5981
30
10
0
VERTEX
10
6.9535
20
10.5907
30
10
0
VERTEX
10
6.98334
20
10.5832
30
10
0
VERTEX
10
7.22209
20
10.5869
30
10
0
VERTEX
10
7.34146
20
10.5944
30
10
0
VERTEX
10
7.40115
20
10.5832
30
10
0
VERTEX
10
7.43099
20
10.5757
30
10
0
VERTEX
10
7.46083
20
10.5757
30
10
0
VERTEX
10
7.49068
20
10.5869
30
10
0
VERTEX
10
7.51679
20
10.6093
30
10
0
VERTEX
10
7.55783
20
10.6653
30
10
0
VERTEX
10
7.56529
20
10.6765
30
10
0
VERTEX
10
7.59513
20
10.6802
30
10
0
VERTEX
10
7.60259
20
10.6876
30
10
0
VERTEX
10
7.60632
20
10.7026
30
10
0
VERTEX
10
7.61751
20
10.7175
30
10
0
VERTEX
10
7.6287
20
10.7436
30
10
0
VERTEX
10
7.6287
20
10.7734
30
10
0
VERTEX
10
7.62124
20
10.8033
30
10
0
VERTEX
10
7.61378
20
10.8182
30
10
0
VERTEX
10
7.61378
20
10.8331
30
10
0
VERTEX
10
7.59886
20
10.863
30
10
0
VERTEX
10
7.59513
20
10.8779
30
10
0
VERTEX
10
7.57275
20
10.9077
30
10
0
VERTEX
10
7.5541
20
10.9301
30
10
0
VERTEX
10
7.53544
20
10.9898
30
10
0
VERTEX
10
7.53544
20
11.0047
30
10
0
VERTEX
10
7.53171
20
11.0122
30
10
0
VERTEX
10
7.53544
20
11.0197
30
10
0
VERTEX
10
7.5056
20
11.0308
30
10
0
VERTEX
10
7.49068
20
11.042
30
10
0
VERTEX
10
7.3713
20
11.042
30
10
0
VERTEX
10
7.31162
20
11.0532
30
10
0
VERTEX
10
7.2967
20
11.0532
30
10
0
VERTEX
10
7.28177
20
11.0383
30
10
0
VERTEX
10
7.27431
20
11.0383
30
10
0
VERTEX
10
7.26312
20
11.0234
30
10
0
VERTEX
10
7.20344
20
10.9898
30
10
0
VERTEX
10
7.17359
20
10.9712
30
10
0
VERTEX
10
7.15121
20
10.9413
30
10
0
VERTEX
10
7.15121
20
10.9339
30
10
0
VERTEX
10
7.13629
20
10.9301
30
10
0
VERTEX
10
7.12883
20
10.9152
30
10
0
VERTEX
10
7.10271
20
10.8891
30
10
0
VERTEX
10
7.08779
20
10.863
30
10
0
VERTEX
10
7.06168
20
10.8369
30
10
0
VERTEX
10
7.03184
20
10.8182
30
10
0
VERTEX
10
7.02438
20
10.8107
30
10
0
VERTEX
10
7.00945
20
10.8107
30
10
0
VERTEX
10
6.99453
20
10.8033
30
10
0
VERTEX
10
6.9908
20
10.7958
30
10
0
VERTEX
10
6.98334
20
10.7958
30
10
0
VERTEX
10
6.97215
20
10.7809
30
10
0
VERTEX
10
6.95723
20
10.7734
30
10
0
VERTEX
10
6.92365
20
10.7175
30
10
0
VERTEX
10
6.91619
20
10.71
30
10
0
VERTEX
10
6.90873
20
10.6802
30
10
0
VERTEX
10
6.90873
20
10.6727
30
10
0
VERTEX
10
6.89754
20
10.6578
30
10
0
VERTEX
10
6.89381
20
10.628
30
10
0
VERTEX
10
6.89381
20
10.613
30
10
0
VERTEX
10
6.89381
20
10.6093
30
10
0
SEQEND
0
POLYLINE
62
224
66
1
70
1
3
mitochondrion
0
VERTEX
10
7.13291
20
10.7772
30
10
0
VERTEX
10
7.13569
20
10.755
30
10
0
VERTEX
10
7.13708
20
10.7439
30
10
0
VERTEX
10
7.13847
20
10.7383
30
10
0
VERTEX
10
7.15654
20
10.7188
30
10
0
VERTEX
10
7.16628
20
10.7105
30
10
0
VERTEX
10
7.18713
20
10.7007
30
10
0
VERTEX
10
7.18991
20
10.698
30
10
0
VERTEX
10
7.23441
20
10.6966
30
10
0
VERTEX
10
7.2789
20
10.6994
30
10
0
VERTEX
10
7.32339
20
10.7063
30
10
0
VERTEX
10
7.33313
20
10.7133
30
10
0
VERTEX
10
7.3512
20
10.7327
30
10
0
VERTEX
10
7.36094
20
10.7425
30
10
0
VERTEX
10
7.36372
20
10.7536
30
10
0
VERTEX
10
7.36511
20
10.7591
30
10
0
VERTEX
10
7.36789
20
10.7619
30
10
0
VERTEX
10
7.3665
20
10.8064
30
10
0
VERTEX
10
7.3665
20
10.8092
30
10
0
VERTEX
10
7.36372
20
10.8106
30
10
0
VERTEX
10
7.36233
20
10.8328
30
10
0
VERTEX
10
7.35955
20
10.844
30
10
0
VERTEX
10
7.35955
20
10.8495
30
10
0
VERTEX
10
7.34008
20
10.8676
30
10
0
VERTEX
10
7.31783
20
10.8746
30
10
0
VERTEX
10
7.30671
20
10.8759
30
10
0
VERTEX
10
7.30115
20
10.8773
30
10
0
VERTEX
10
7.29837
20
10.8801
30
10
0
VERTEX
10
7.2928
20
10.8815
30
10
0
VERTEX
10
7.29002
20
10.8815
30
10
0
VERTEX
10
7.28724
20
10.8843
30
10
0
VERTEX
10
7.265
20
10.8857
30
10
0
VERTEX
10
7.2205
20
10.8815
30
10
0
VERTEX
10
7.21494
20
10.8787
30
10
0
VERTEX
10
7.21216
20
10.8759
30
10
0
VERTEX
10
7.20104
20
10.8718
30
10
0
VERTEX
10
7.15793
20
10.8412
30
10
0
VERTEX
10
7.15237
20
10.8301
30
10
0
VERTEX
10
7.1482
20
10.8259
30
10
0
VERTEX
10
7.14681
20
10.8203
30
10
0
VERTEX
10
7.13986
20
10.8092
30
10
0
VERTEX
10
7.13569
20
10.8036
30
10
0
VERTEX
10
7.13291
20
10.7925
30
10
0
VERTEX
10
7.13291
20
10.7814
30
10
0
VERTEX
10
7.13291
20
10.7786
30
10
0
SEQEND
0
POLYLINE
62
227
66
1
70
1
3
endoplasmic_reticulum
0
VERTEX
10
7.41264
20
10.6743
30
10
0
VERTEX
10
7.41713
20
10.6671
30
10
0
VERTEX
10
7.4234
20
10.6599
30
10
0
VERTEX
10
7.42519
20
10.6599
30
10
0
VERTEX
10
7.43147
20
10.6528
30
10
0
VERTEX
10
7.43506
20
10.6492
30
10
0
VERTEX
10
7.43595
20
10.6474
30
10
0
VERTEX
10
7.43775
20
10.6474
30
10
0
VERTEX
10
7.44133
20
10.6402
30
10
0
VERTEX
10
7.44313
20
10.633
30
10
0
VERTEX
10
7.4494
20
10.6268
30
10
0
VERTEX
10
7.45119
20
10.6259
30
10
0
VERTEX
10
7.45119
20
10.6223
30
10
0
VERTEX
10
7.45299
20
10.6214
30
10
0
VERTEX
10
7.45299
20
10.6196
30
10
0
VERTEX
10
7.46016
20
10.6142
30
10
0
VERTEX
10
7.46733
20
10.6151
30
10
0
VERTEX
10
7.47361
20
10.6196
30
10
0
VERTEX
10
7.4754
20
10.6232
30
10
0
VERTEX
10
7.48168
20
10.6295
30
10
0
VERTEX
10
7.48616
20
10.6357
30
10
0
VERTEX
10
7.48616
20
10.6375
30
10
0
VERTEX
10
7.48795
20
10.6393
30
10
0
VERTEX
10
7.48885
20
10.6429
30
10
0
VERTEX
10
7.48975
20
10.6447
30
10
0
VERTEX
10
7.49333
20
10.6447
30
10
0
VERTEX
10
7.50678
20
10.6537
30
10
0
VERTEX
10
7.51216
20
10.659
30
10
0
VERTEX
10
7.51395
20
10.6608
30
10
0
VERTEX
10
7.51485
20
10.668
30
10
0
VERTEX
10
7.51485
20
10.6716
30
10
0
VERTEX
10
7.50857
20
10.6779
30
10
0
VERTEX
10
7.50499
20
10.6806
30
10
0
VERTEX
10
7.49064
20
10.6815
30
10
0
VERTEX
10
7.4763
20
10.6806
30
10
0
VERTEX
10
7.46195
20
10.6815
30
10
0
VERTEX
10
7.45478
20
10.6841
30
10
0
VERTEX
10
7.45209
20
10.6859
30
10
0
VERTEX
10
7.4503
20
10.6859
30
10
0
VERTEX
10
7.43595
20
10.6949
30
10
0
VERTEX
10
7.42878
20
10.6976
30
10
0
VERTEX
10
7.42161
20
10.6949
30
10
0
VERTEX
10
7.41533
20
10.6877
30
10
0
VERTEX
10
7.41264
20
10.685
30
10
0
VERTEX
10
7.41264
20
10.6779
30
10
0
VERTEX
10
7.41264
20
10.6752
30
10
0
SEQEND
0
POLYLINE
62
227
66
1
70
1
3
endoplasmic_reticulum
0
VERTEX
10
7.12575
20
10.6519
30
10
0
VERTEX
10
7.12754
20
10.6483
30
10
0
VERTEX
10
7.13113
20
10.6447
30
10
0
VERTEX
10
7.1383
20
10.6411
30
10
0
VERTEX
10
7.14189
20
10.6393
30
10
0
VERTEX
10
7.14906
20
10.6384
30
10
0
VERTEX
10
7.15264
20
10.6384
30
10
0
VERTEX
10
7.15444
20
10.6402
30
10
0
VERTEX
10
7.16161
20
10.6411
30
10
0
VERTEX
10
7.16878
20
10.6456
30
10
0
VERTEX
10
7.17058
20
10.6456
30
10
0
VERTEX
10
7.17416
20
10.6483
30
10
0
VERTEX
10
7.17596
20
10.6483
30
10
0
VERTEX
10
7.17775
20
10.6501
30
10
0
VERTEX
10
7.17685
20
10.6519
30
10
0
VERTEX
10
7.17954
20
10.6537
30
10
0
VERTEX
10
7.18044
20
10.6555
30
10
0
VERTEX
10
7.18223
20
10.6555
30
10
0
VERTEX
10
7.18402
20
10.6626
30
10
0
VERTEX
10
7.18582
20
10.6644
30
10
0
VERTEX
10
7.18582
20
10.668
30
10
0
VERTEX
10
7.18223
20
10.6743
30
10
0
VERTEX
10
7.16878
20
10.6841
30
10
0
VERTEX
10
7.15444
20
10.6841
30
10
0
VERTEX
10
7.14727
20
10.6841
30
10
0
VERTEX
10
7.14368
20
10.6841
30
10
0
VERTEX
10
7.14189
20
10.6841
30
10
0
VERTEX
10
7.13113
20
10.6725
30
10
0
VERTEX
10
7.12665
20
10.6662
30
10
0
VERTEX
10
7.12575
20
10.6528
30
10
0
SEQEND
0
POLYLINE
62
227
66
1
70
1
3
endoplasmic_reticulum
0
VERTEX
10
7.10154
20
10.8401
30
10
0
VERTEX
10
7.10782
20
10.8339
30
10
0
VERTEX
10
7.11499
20
10.833
30
10
0
VERTEX
10
7.12216
20
10.8348
30
10
0
VERTEX
10
7.12575
20
10.8348
30
10
0
VERTEX
10
7.13202
20
10.8392
30
10
0
VERTEX
10
7.13202
20
10.841
30
10
0
VERTEX
10
7.13382
20
10.8428
30
10
0
VERTEX
10
7.13382
20
10.8572
30
10
0
VERTEX
10
7.13382
20
10.8608
30
10
0
VERTEX
10
7.12754
20
10.8661
30
10
0
VERTEX
10
7.12396
20
10.867
30
10
0
VERTEX
10
7.12037
20
10.8661
30
10
0
VERTEX
10
7.11409
20
10.8599
30
10
0
VERTEX
10
7.11051
20
10.859
30
10
0
VERTEX
10
7.10423
20
10.8527
30
10
0
VERTEX
10
7.10154
20
10.85
30
10
0
VERTEX
10
7.10154
20
10.8428
30
10
0
VERTEX
10
7.10154
20
10.841
30
10
0
SEQEND
0
POLYLINE
62
227
66
1
70
1
3
endoplasmic_reticulum
0
VERTEX
10
7.4503
20
10.7675
30
10
0
VERTEX
10
7.45568
20
10.7603
30
10
0
VERTEX
10
7.45837
20
10.7577
30
10
0
VERTEX
10
7.47271
20
10.7568
30
10
0
VERTEX
10
7.47988
20
10.7594
30
10
0
VERTEX
10
7.50319
20
10.7846
30
10
0
VERTEX
10
7.50768
20
10.7908
30
10
0
VERTEX
10
7.50947
20
10.798
30
10
0
VERTEX
10
7.50588
20
10.8123
30
10
0
VERTEX
10
7.50409
20
10.8159
30
10
0
VERTEX
10
7.5005
20
10.8186
30
10
0
VERTEX
10
7.48616
20
10.8213
30
10
0
VERTEX
10
7.48437
20
10.8285
30
10
0
VERTEX
10
7.48168
20
10.8312
30
10
0
VERTEX
10
7.46733
20
10.8258
30
10
0
VERTEX
10
7.46554
20
10.8258
30
10
0
VERTEX
10
7.45837
20
10.8195
30
10
0
VERTEX
10
7.45657
20
10.8159
30
10
0
VERTEX
10
7.45568
20
10.8016
30
10
0
VERTEX
10
7.45388
20
10.7944
30
10
0
VERTEX
10
7.45388
20
10.7908
30
10
0
VERTEX
10
7.45119
20
10.7837
30
10
0
VERTEX
10
7.4503
20
10.7693
30
10
0
VERTEX
10
7.4503
20
10.7684
30
10
0
SEQEND
0
ENDSEC
0
EOF
