0
SECTION
2
ENTITIES
0
POLYLINE
62
31
66
1
70
1
3
contour
0
VERTEX
10
9.83627
20
8.17768
30
3.4
0
VERTEX
10
9.84071
20
8.15994
30
3.4
0
VERTEX
10
9.83849
20
8.08898
30
3.4
0
VERTEX
10
9.84514
20
8.0535
30
3.4
0
VERTEX
10
9.84514
20
8.03576
30
3.4
0
VERTEX
10
9.84958
20
8.01803
30
3.4
0
VERTEX
10
9.85623
20
8.00916
30
3.4
0
VERTEX
10
9.86288
20
7.97368
30
3.4
0
VERTEX
10
9.87175
20
7.95594
30
3.4
0
VERTEX
10
9.87618
20
7.9515
30
3.4
0
VERTEX
10
9.87618
20
7.94707
30
3.4
0
VERTEX
10
9.90058
20
7.91159
30
3.4
0
VERTEX
10
9.93605
20
7.89385
30
3.4
0
VERTEX
10
9.95379
20
7.88942
30
3.4
0
VERTEX
10
9.96266
20
7.88277
30
3.4
0
VERTEX
10
9.9804
20
7.87833
30
3.4
0
VERTEX
10
9.98705
20
7.86946
30
3.4
0
VERTEX
10
9.99592
20
7.86503
30
3.4
0
VERTEX
10
10.0314
20
7.85837
30
3.4
0
VERTEX
10
10.1024
20
7.86281
30
3.4
0
VERTEX
10
10.1112
20
7.86281
30
3.4
0
VERTEX
10
10.1157
20
7.86724
30
3.4
0
VERTEX
10
10.1245
20
7.86724
30
3.4
0
VERTEX
10
10.1423
20
7.8739
30
3.4
0
VERTEX
10
10.16
20
7.8739
30
3.4
0
VERTEX
10
10.1955
20
7.88277
30
3.4
0
VERTEX
10
10.2044
20
7.88498
30
3.4
0
VERTEX
10
10.2088
20
7.88942
30
3.4
0
VERTEX
10
10.2265
20
7.89163
30
3.4
0
VERTEX
10
10.262
20
7.90937
30
3.4
0
VERTEX
10
10.2709
20
7.91159
30
3.4
0
VERTEX
10
10.2753
20
7.91159
30
3.4
0
VERTEX
10
10.3108
20
7.93376
30
3.4
0
VERTEX
10
10.3263
20
7.94042
30
3.4
0
VERTEX
10
10.333
20
7.94929
30
3.4
0
VERTEX
10
10.3485
20
7.95594
30
3.4
0
VERTEX
10
10.3551
20
7.99142
30
3.4
0
VERTEX
10
10.3574
20
8.00916
30
3.4
0
VERTEX
10
10.3529
20
8.04463
30
3.4
0
VERTEX
10
10.3418
20
8.08011
30
3.4
0
VERTEX
10
10.3352
20
8.08898
30
3.4
0
VERTEX
10
10.3219
20
8.12446
30
3.4
0
VERTEX
10
10.3174
20
8.12668
30
3.4
0
VERTEX
10
10.3174
20
8.13111
30
3.4
0
VERTEX
10
10.313
20
8.13555
30
3.4
0
VERTEX
10
10.3108
20
8.14442
30
3.4
0
VERTEX
10
10.3019
20
8.15328
30
3.4
0
VERTEX
10
10.2953
20
8.17102
30
3.4
0
VERTEX
10
10.2953
20
8.17546
30
3.4
0
VERTEX
10
10.2864
20
8.18211
30
3.4
0
VERTEX
10
10.2864
20
8.18655
30
3.4
0
VERTEX
10
10.2664
20
8.22202
30
3.4
0
VERTEX
10
10.2598
20
8.2575
30
3.4
0
VERTEX
10
10.2598
20
8.27524
30
3.4
0
VERTEX
10
10.2531
20
8.31072
30
3.4
0
VERTEX
10
10.2487
20
8.32846
30
3.4
0
VERTEX
10
10.2487
20
8.33733
30
3.4
0
VERTEX
10
10.2487
20
8.34176
30
3.4
0
VERTEX
10
10.2443
20
8.3462
30
3.4
0
VERTEX
10
10.2443
20
8.35507
30
3.4
0
VERTEX
10
10.2132
20
8.42602
30
3.4
0
VERTEX
10
10.2066
20
8.44154
30
3.4
0
VERTEX
10
10.2021
20
8.45041
30
3.4
0
VERTEX
10
10.1977
20
8.45485
30
3.4
0
VERTEX
10
10.1977
20
8.46372
30
3.4
0
VERTEX
10
10.1866
20
8.47924
30
3.4
0
VERTEX
10
10.18
20
8.48811
30
3.4
0
VERTEX
10
10.1777
20
8.49476
30
3.4
0
VERTEX
10
10.1622
20
8.50806
30
3.4
0
VERTEX
10
10.1534
20
8.51693
30
3.4
0
VERTEX
10
10.1378
20
8.52802
30
3.4
0
VERTEX
10
10.1267
20
8.54576
30
3.4
0
VERTEX
10
10.1223
20
8.55019
30
3.4
0
VERTEX
10
10.1046
20
8.54798
30
3.4
0
VERTEX
10
10.0868
20
8.54133
30
3.4
0
VERTEX
10
10.0824
20
8.53689
30
3.4
0
VERTEX
10
10.0647
20
8.53467
30
3.4
0
VERTEX
10
10.0558
20
8.53246
30
3.4
0
VERTEX
10
10.0469
20
8.5258
30
3.4
0
VERTEX
10
10.0381
20
8.52359
30
3.4
0
VERTEX
10
10.0292
20
8.51693
30
3.4
0
VERTEX
10
10.0181
20
8.4992
30
3.4
0
VERTEX
10
10.0026
20
8.48589
30
3.4
0
VERTEX
10
9.99149
20
8.47037
30
3.4
0
VERTEX
10
9.96044
20
8.44598
30
3.4
0
VERTEX
10
9.92497
20
8.42159
30
3.4
0
VERTEX
10
9.91166
20
8.40607
30
3.4
0
VERTEX
10
9.89614
20
8.3972
30
3.4
0
VERTEX
10
9.8651
20
8.36615
30
3.4
0
VERTEX
10
9.85401
20
8.35507
30
3.4
0
VERTEX
10
9.85401
20
8.35063
30
3.4
0
VERTEX
10
9.84736
20
8.34176
30
3.4
0
VERTEX
10
9.84292
20
8.33733
30
3.4
0
VERTEX
10
9.84514
20
8.32846
30
3.4
0
VERTEX
10
9.83849
20
8.31072
30
3.4
0
VERTEX
10
9.83627
20
8.23976
30
3.4
0
VERTEX
10
9.83627
20
8.20428
30
3.4
0
VERTEX
10
9.83627
20
8.18655
30
3.4
0
VERTEX
10
9.83627
20
8.17989
30
3.4
0
SEQEND
0
POLYLINE
62
31
66
1
70
1
3
contour
0
VERTEX
10
10.1535
20
8.68434
30
3.4
0
VERTEX
10
10.1562
20
8.67348
30
3.4
0
VERTEX
10
10.1643
20
8.66262
30
3.4
0
VERTEX
10
10.1698
20
8.65719
30
3.4
0
VERTEX
10
10.1752
20
8.65719
30
3.4
0
VERTEX
10
10.1942
20
8.6409
30
3.4
0
VERTEX
10
10.2159
20
8.63275
30
3.4
0
VERTEX
10
10.2268
20
8.62732
30
3.4
0
VERTEX
10
10.2485
20
8.6246
30
3.4
0
VERTEX
10
10.2594
20
8.62189
30
3.4
0
VERTEX
10
10.2702
20
8.61374
30
3.4
0
VERTEX
10
10.292
20
8.60559
30
3.4
0
VERTEX
10
10.3137
20
8.60288
30
3.4
0
VERTEX
10
10.3245
20
8.59745
30
3.4
0
VERTEX
10
10.33
20
8.59202
30
3.4
0
VERTEX
10
10.3517
20
8.59202
30
3.4
0
VERTEX
10
10.3571
20
8.59473
30
3.4
0
VERTEX
10
10.3517
20
8.60016
30
3.4
0
VERTEX
10
10.4386
20
8.60288
30
3.4
0
VERTEX
10
10.4495
20
8.60288
30
3.4
0
VERTEX
10
10.4902
20
8.62732
30
3.4
0
VERTEX
10
10.5011
20
8.63003
30
3.4
0
VERTEX
10
10.5119
20
8.63818
30
3.4
0
VERTEX
10
10.5554
20
8.64633
30
3.4
0
VERTEX
10
10.5988
20
8.64904
30
3.4
0
VERTEX
10
10.6423
20
8.65719
30
3.4
0
VERTEX
10
10.664
20
8.6599
30
3.4
0
VERTEX
10
10.6748
20
8.66534
30
3.4
0
VERTEX
10
10.6857
20
8.66534
30
3.4
0
VERTEX
10
10.7047
20
8.67891
30
3.4
0
VERTEX
10
10.7292
20
8.72236
30
3.4
0
VERTEX
10
10.74
20
8.74137
30
3.4
0
VERTEX
10
10.7563
20
8.7631
30
3.4
0
VERTEX
10
10.7672
20
8.7821
30
3.4
0
VERTEX
10
10.7862
20
8.80111
30
3.4
0
VERTEX
10
10.7998
20
8.81741
30
3.4
0
VERTEX
10
10.8079
20
8.83913
30
3.4
0
VERTEX
10
10.8161
20
8.84999
30
3.4
0
VERTEX
10
10.8215
20
8.87172
30
3.4
0
VERTEX
10
10.8215
20
8.89344
30
3.4
0
VERTEX
10
10.8133
20
8.93689
30
3.4
0
VERTEX
10
10.8133
20
8.94775
30
3.4
0
VERTEX
10
10.7862
20
8.98849
30
3.4
0
VERTEX
10
10.7726
20
9.01021
30
3.4
0
VERTEX
10
10.7672
20
9.01564
30
3.4
0
VERTEX
10
10.7672
20
9.02107
30
3.4
0
VERTEX
10
10.7455
20
9.04008
30
3.4
0
VERTEX
10
10.7292
20
9.05638
30
3.4
0
VERTEX
10
10.7183
20
9.06724
30
3.4
0
VERTEX
10
10.7101
20
9.07267
30
3.4
0
VERTEX
10
10.6966
20
9.09168
30
3.4
0
VERTEX
10
10.6776
20
9.1134
30
3.4
0
VERTEX
10
10.6667
20
9.11883
30
3.4
0
VERTEX
10
10.6613
20
9.12426
30
3.4
0
VERTEX
10
10.6504
20
9.12426
30
3.4
0
VERTEX
10
10.6395
20
9.1297
30
3.4
0
VERTEX
10
10.6314
20
9.14056
30
3.4
0
VERTEX
10
10.626
20
9.14056
30
3.4
0
VERTEX
10
10.6151
20
9.15142
30
3.4
0
VERTEX
10
10.6042
20
9.15142
30
3.4
0
VERTEX
10
10.5662
20
9.17314
30
3.4
0
VERTEX
10
10.5228
20
9.18672
30
3.4
0
VERTEX
10
10.5173
20
9.19215
30
3.4
0
VERTEX
10
10.4739
20
9.20302
30
3.4
0
VERTEX
10
10.4522
20
9.2003
30
3.4
0
VERTEX
10
10.3653
20
9.20302
30
3.4
0
VERTEX
10
10.3544
20
9.20302
30
3.4
0
VERTEX
10
10.3327
20
9.19215
30
3.4
0
VERTEX
10
10.3218
20
9.18944
30
3.4
0
VERTEX
10
10.2838
20
9.15414
30
3.4
0
VERTEX
10
10.2702
20
9.13241
30
3.4
0
VERTEX
10
10.2621
20
9.12426
30
3.4
0
VERTEX
10
10.2567
20
9.10254
30
3.4
0
VERTEX
10
10.2512
20
9.09711
30
3.4
0
VERTEX
10
10.2512
20
9.08625
30
3.4
0
VERTEX
10
10.2458
20
9.08353
30
3.4
0
VERTEX
10
10.2376
20
9.06181
30
3.4
0
VERTEX
10
10.2376
20
9.05638
30
3.4
0
VERTEX
10
10.2241
20
9.03737
30
3.4
0
VERTEX
10
10.2132
20
9.02922
30
3.4
0
VERTEX
10
10.2105
20
9.01836
30
3.4
0
VERTEX
10
10.2105
20
9.01293
30
3.4
0
VERTEX
10
10.2051
20
9.0075
30
3.4
0
VERTEX
10
10.2023
20
8.98577
30
3.4
0
VERTEX
10
10.2023
20
8.97491
30
3.4
0
VERTEX
10
10.1969
20
8.96405
30
3.4
0
VERTEX
10
10.1969
20
8.95318
30
3.4
0
VERTEX
10
10.1915
20
8.94232
30
3.4
0
VERTEX
10
10.1942
20
8.9206
30
3.4
0
VERTEX
10
10.1888
20
8.8337
30
3.4
0
VERTEX
10
10.1888
20
8.82284
30
3.4
0
VERTEX
10
10.1833
20
8.81198
30
3.4
0
VERTEX
10
10.1779
20
8.76853
30
3.4
0
VERTEX
10
10.1752
20
8.7468
30
3.4
0
VERTEX
10
10.1616
20
8.72779
30
3.4
0
VERTEX
10
10.1535
20
8.70607
30
3.4
0
VERTEX
10
10.1535
20
8.68706
30
3.4
0
SEQEND
0
POLYLINE
62
31
66
1
70
1
3
contour
0
VERTEX
10
10.6135
20
7.82081
30
3.4
0
VERTEX
10
10.62
20
7.79474
30
3.4
0
VERTEX
10
10.6461
20
7.77193
30
3.4
0
VERTEX
10
10.6526
20
7.77193
30
3.4
0
VERTEX
10
10.6656
20
7.75889
30
3.4
0
VERTEX
10
10.6721
20
7.74912
30
3.4
0
VERTEX
10
10.6721
20
7.7426
30
3.4
0
VERTEX
10
10.6917
20
7.71653
30
3.4
0
VERTEX
10
10.6982
20
7.70675
30
3.4
0
VERTEX
10
10.7504
20
7.67743
30
3.4
0
VERTEX
10
10.8025
20
7.67417
30
3.4
0
VERTEX
10
10.8286
20
7.69372
30
3.4
0
VERTEX
10
10.8644
20
7.73934
30
3.4
0
VERTEX
10
10.8677
20
7.79148
30
3.4
0
VERTEX
10
10.8579
20
7.84362
30
3.4
0
VERTEX
10
10.8514
20
7.86969
30
3.4
0
VERTEX
10
10.8449
20
7.87621
30
3.4
0
VERTEX
10
10.8416
20
7.92834
30
3.4
0
VERTEX
10
10.8481
20
7.93812
30
3.4
0
VERTEX
10
10.8449
20
7.96419
30
3.4
0
VERTEX
10
10.8449
20
7.97071
30
3.4
0
VERTEX
10
10.8318
20
7.98048
30
3.4
0
VERTEX
10
10.8286
20
7.97722
30
3.4
0
VERTEX
10
10.8188
20
7.99026
30
3.4
0
VERTEX
10
10.8188
20
7.99678
30
3.4
0
VERTEX
10
10.7927
20
8.01307
30
3.4
0
VERTEX
10
10.7406
20
8.01633
30
3.4
0
VERTEX
10
10.7145
20
8.01307
30
3.4
0
VERTEX
10
10.7015
20
8.00981
30
3.4
0
VERTEX
10
10.695
20
8.00004
30
3.4
0
VERTEX
10
10.6819
20
7.99678
30
3.4
0
VERTEX
10
10.6721
20
7.98374
30
3.4
0
VERTEX
10
10.6656
20
7.97722
30
3.4
0
VERTEX
10
10.6656
20
7.97071
30
3.4
0
VERTEX
10
10.6461
20
7.9479
30
3.4
0
VERTEX
10
10.6363
20
7.92183
30
3.4
0
VERTEX
10
10.6265
20
7.91205
30
3.4
0
VERTEX
10
10.6233
20
7.89902
30
3.4
0
VERTEX
10
10.6167
20
7.89576
30
3.4
0
VERTEX
10
10.6135
20
7.84362
30
3.4
0
VERTEX
10
10.6135
20
7.83058
30
3.4
0
VERTEX
10
10.6135
20
7.82407
30
3.4
0
SEQEND
0
POLYLINE
62
224
66
1
70
1
3
mitochondrion
0
VERTEX
10
10.0281
20
8.11486
30
3.4
0
VERTEX
10
10.0364
20
8.09813
30
3.4
0
VERTEX
10
10.0427
20
8.08977
30
3.4
0
VERTEX
10
10.0469
20
8.07304
30
3.4
0
VERTEX
10
10.0469
20
8.06886
30
3.4
0
VERTEX
10
10.0511
20
8.06468
30
3.4
0
VERTEX
10
10.0531
20
8.04795
30
3.4
0
VERTEX
10
10.0594
20
8.03959
30
3.4
0
VERTEX
10
10.0615
20
8.03122
30
3.4
0
VERTEX
10
10.0887
20
7.99986
30
3.4
0
VERTEX
10
10.1117
20
7.97268
30
3.4
0
VERTEX
10
10.1284
20
7.96013
30
3.4
0
VERTEX
10
10.1953
20
7.95386
30
3.4
0
VERTEX
10
10.1995
20
7.95595
30
3.4
0
VERTEX
10
10.2037
20
7.95386
30
3.4
0
VERTEX
10
10.2204
20
7.96013
30
3.4
0
VERTEX
10
10.2288
20
7.96222
30
3.4
0
VERTEX
10
10.2309
20
7.9664
30
3.4
0
VERTEX
10
10.2392
20
7.96849
30
3.4
0
VERTEX
10
10.2539
20
7.98104
30
3.4
0
VERTEX
10
10.2539
20
7.98522
30
3.4
0
VERTEX
10
10.2581
20
7.9894
30
3.4
0
VERTEX
10
10.2581
20
8.05631
30
3.4
0
VERTEX
10
10.2581
20
8.07304
30
3.4
0
VERTEX
10
10.2539
20
8.08977
30
3.4
0
VERTEX
10
10.2539
20
8.09813
30
3.4
0
VERTEX
10
10.2476
20
8.11486
30
3.4
0
VERTEX
10
10.2476
20
8.13159
30
3.4
0
VERTEX
10
10.2434
20
8.14831
30
3.4
0
VERTEX
10
10.2413
20
8.15668
30
3.4
0
VERTEX
10
10.2371
20
8.15668
30
3.4
0
VERTEX
10
10.2351
20
8.16504
30
3.4
0
VERTEX
10
10.2121
20
8.1985
30
3.4
0
VERTEX
10
10.1807
20
8.2215
30
3.4
0
VERTEX
10
10.164
20
8.22359
30
3.4
0
VERTEX
10
10.1472
20
8.23404
30
3.4
0
VERTEX
10
10.1305
20
8.23404
30
3.4
0
VERTEX
10
10.1221
20
8.23613
30
3.4
0
VERTEX
10
10.0887
20
8.2215
30
3.4
0
VERTEX
10
10.072
20
8.21313
30
3.4
0
VERTEX
10
10.0636
20
8.21104
30
3.4
0
VERTEX
10
10.049
20
8.1964
30
3.4
0
VERTEX
10
10.0364
20
8.16295
30
3.4
0
VERTEX
10
10.0322
20
8.15459
30
3.4
0
VERTEX
10
10.0322
20
8.14622
30
3.4
0
VERTEX
10
10.0281
20
8.13786
30
3.4
0
VERTEX
10
10.0281
20
8.12113
30
3.4
0
VERTEX
10
10.0281
20
8.11695
30
3.4
0
SEQEND
0
POLYLINE
62
227
66
1
70
1
3
endoplasmic_reticulum
0
VERTEX
10
9.96007
20
8.19648
30
3.4
0
VERTEX
10
9.9638
20
8.19275
30
3.4
0
VERTEX
10
9.96567
20
8.18528
30
3.4
0
VERTEX
10
9.97313
20
8.17969
30
3.4
0
VERTEX
10
9.97687
20
8.17969
30
3.4
0
VERTEX
10
9.98433
20
8.18715
30
3.4
0
VERTEX
10
9.99926
20
8.19275
30
3.4
0
VERTEX
10
10.0067
20
8.19835
30
3.4
0
VERTEX
10
10.0161
20
8.21141
30
3.4
0
VERTEX
10
10.0161
20
8.21514
30
3.4
0
VERTEX
10
10.0217
20
8.22074
30
3.4
0
VERTEX
10
10.0235
20
8.22821
30
3.4
0
VERTEX
10
10.0291
20
8.23567
30
3.4
0
VERTEX
10
10.0366
20
8.23941
30
3.4
0
VERTEX
10
10.0403
20
8.24314
30
3.4
0
VERTEX
10
10.0552
20
8.24874
30
3.4
0
VERTEX
10
10.0571
20
8.25247
30
3.4
0
VERTEX
10
10.072
20
8.25807
30
3.4
0
VERTEX
10
10.0795
20
8.2618
30
3.4
0
VERTEX
10
10.0851
20
8.26927
30
3.4
0
VERTEX
10
10.0832
20
8.27673
30
3.4
0
VERTEX
10
10.0683
20
8.28606
30
3.4
0
VERTEX
10
10.0534
20
8.28979
30
3.4
0
VERTEX
10
10.0385
20
8.28979
30
3.4
0
VERTEX
10
10.031
20
8.28979
30
3.4
0
VERTEX
10
10.0049
20
8.26927
30
3.4
0
VERTEX
10
10.0011
20
8.2674
30
3.4
0
VERTEX
10
10.0011
20
8.26367
30
3.4
0
VERTEX
10
9.98806
20
8.2562
30
3.4
0
VERTEX
10
9.9694
20
8.22821
30
3.4
0
VERTEX
10
9.96007
20
8.21514
30
3.4
0
VERTEX
10
9.96007
20
8.20021
30
3.4
0
VERTEX
10
9.96007
20
8.19835
30
3.4
0
SEQEND
0
POLYLINE
62
227
66
1
70
1
3
endoplasmic_reticulum
0
VERTEX
10
10.1654
20
8.28046
30
3.4
0
VERTEX
10
10.1691
20
8.273
30
3.4
0
VERTEX
10
10.1989
20
8.27486
30
3.4
0
VERTEX
10
10.2027
20
8.27486
30
3.4
0
VERTEX
10
10.2064
20
8.2786
30
3.4
0
VERTEX
10
10.2213
20
8.28233
30
3.4
0
VERTEX
10
10.2232
20
8.28979
30
3.4
0
VERTEX
10
10.2213
20
8.30472
30
3.4
0
VERTEX
10
10.2101
20
8.31965
30
3.4
0
VERTEX
10
10.2064
20
8.32339
30
3.4
0
VERTEX
10
10.2027
20
8.32339
30
3.4
0
VERTEX
10
10.1952
20
8.31592
30
3.4
0
VERTEX
10
10.1877
20
8.31592
30
3.4
0
VERTEX
10
10.1822
20
8.30846
30
3.4
0
VERTEX
10
10.1784
20
8.30846
30
3.4
0
VERTEX
10
10.1691
20
8.29353
30
3.4
0
VERTEX
10
10.1654
20
8.28233
30
3.4
0
SEQEND
0
POLYLINE
62
227
66
1
70
1
3
endoplasmic_reticulum
0
VERTEX
10
10.0478
20
8.44096
30
3.4
0
VERTEX
10
10.0496
20
8.43349
30
3.4
0
VERTEX
10
10.0608
20
8.4223
30
3.4
0
VERTEX
10
10.0907
20
8.42416
30
3.4
0
VERTEX
10
10.1056
20
8.42416
30
3.4
0
VERTEX
10
10.1131
20
8.42789
30
3.4
0
VERTEX
10
10.1168
20
8.43536
30
3.4
0
VERTEX
10
10.1168
20
8.43909
30
3.4
0
VERTEX
10
10.1206
20
8.44096
30
3.4
0
VERTEX
10
10.1187
20
8.45589
30
3.4
0
VERTEX
10
10.1075
20
8.46895
30
3.4
0
VERTEX
10
10.1019
20
8.47455
30
3.4
0
VERTEX
10
10.087
20
8.47642
30
3.4
0
VERTEX
10
10.0795
20
8.47828
30
3.4
0
VERTEX
10
10.072
20
8.47642
30
3.4
0
VERTEX
10
10.0627
20
8.46522
30
3.4
0
VERTEX
10
10.0496
20
8.45216
30
3.4
0
VERTEX
10
10.0478
20
8.44469
30
3.4
0
VERTEX
10
10.0478
20
8.44282
30
3.4
0
SEQEND
0
ENDSEC
0
EOF
