0
SECTION
2
ENTITIES
0
POLYLINE
62
31
66
1
70
1
3
contour
0
VERTEX
10
7.60106
20
10.205
30
8.48
0
VERTEX
10
7.60764
20
10.2017
30
8.48
0
VERTEX
10
7.60764
20
10.1951
30
8.48
0
VERTEX
10
7.6241
20
10.1688
30
8.48
0
VERTEX
10
7.63068
20
10.1688
30
8.48
0
VERTEX
10
7.67677
20
10.126
30
8.48
0
VERTEX
10
7.69323
20
10.0996
30
8.48
0
VERTEX
10
7.69981
20
10.0766
30
8.48
0
VERTEX
10
7.70311
20
10.0634
30
8.48
0
VERTEX
10
7.72286
20
10.0404
30
8.48
0
VERTEX
10
7.74261
20
10.0239
30
8.48
0
VERTEX
10
7.75578
20
10.0107
30
8.48
0
VERTEX
10
7.78211
20
9.99429
30
8.48
0
VERTEX
10
7.80186
20
9.97783
30
8.48
0
VERTEX
10
7.81174
20
9.96795
30
8.48
0
VERTEX
10
7.81832
20
9.96795
30
8.48
0
VERTEX
10
7.84466
20
9.94162
30
8.48
0
VERTEX
10
7.8677
20
9.92516
30
8.48
0
VERTEX
10
7.88087
20
9.92186
30
8.48
0
VERTEX
10
7.90721
20
9.9054
30
8.48
0
VERTEX
10
7.95988
20
9.89882
30
8.48
0
VERTEX
10
7.98621
20
9.89882
30
8.48
0
VERTEX
10
7.99938
20
9.89553
30
8.48
0
VERTEX
10
8.02571
20
9.90211
30
8.48
0
VERTEX
10
8.03888
20
9.9087
30
8.48
0
VERTEX
10
8.05205
20
9.92186
30
8.48
0
VERTEX
10
8.07509
20
9.93174
30
8.48
0
VERTEX
10
8.10143
20
9.9482
30
8.48
0
VERTEX
10
8.1113
20
9.95149
30
8.48
0
VERTEX
10
8.13435
20
9.97124
30
8.48
0
VERTEX
10
8.14422
20
9.98441
30
8.48
0
VERTEX
10
8.19031
20
10.014
30
8.48
0
VERTEX
10
8.23311
20
10.0601
30
8.48
0
VERTEX
10
8.24957
20
10.0832
30
8.48
0
VERTEX
10
8.25615
20
10.1358
30
8.48
0
VERTEX
10
8.26932
20
10.1885
30
8.48
0
VERTEX
10
8.27919
20
10.2017
30
8.48
0
VERTEX
10
8.32857
20
10.2346
30
8.48
0
VERTEX
10
8.34832
20
10.2576
30
8.48
0
VERTEX
10
8.35491
20
10.2675
30
8.48
0
VERTEX
10
8.38124
20
10.2774
30
8.48
0
VERTEX
10
8.39441
20
10.2873
30
8.48
0
VERTEX
10
8.40758
20
10.2873
30
8.48
0
VERTEX
10
8.41416
20
10.2939
30
8.48
0
VERTEX
10
8.41087
20
10.3202
30
8.48
0
VERTEX
10
8.40099
20
10.3334
30
8.48
0
VERTEX
10
8.3977
20
10.3597
30
8.48
0
VERTEX
10
8.38453
20
10.386
30
8.48
0
VERTEX
10
8.37795
20
10.3992
30
8.48
0
VERTEX
10
8.3582
20
10.4157
30
8.48
0
VERTEX
10
8.35491
20
10.4222
30
8.48
0
VERTEX
10
8.32857
20
10.4255
30
8.48
0
VERTEX
10
8.2759
20
10.4453
30
8.48
0
VERTEX
10
8.26603
20
10.4519
30
8.48
0
VERTEX
10
8.25615
20
10.465
30
8.48
0
VERTEX
10
8.24957
20
10.465
30
8.48
0
VERTEX
10
8.22323
20
10.4848
30
8.48
0
VERTEX
10
8.20677
20
10.5111
30
8.48
0
VERTEX
10
8.20677
20
10.5243
30
8.48
0
VERTEX
10
8.18044
20
10.5342
30
8.48
0
VERTEX
10
8.16727
20
10.5407
30
8.48
0
VERTEX
10
8.1146
20
10.5276
30
8.48
0
VERTEX
10
8.00925
20
10.5144
30
8.48
0
VERTEX
10
7.98292
20
10.5144
30
8.48
0
VERTEX
10
7.97634
20
10.5078
30
8.48
0
VERTEX
10
7.87099
20
10.5111
30
8.48
0
VERTEX
10
7.84795
20
10.5012
30
8.48
0
VERTEX
10
7.83478
20
10.4914
30
8.48
0
VERTEX
10
7.82162
20
10.4881
30
8.48
0
VERTEX
10
7.79528
20
10.4683
30
8.48
0
VERTEX
10
7.7887
20
10.4617
30
8.48
0
VERTEX
10
7.77553
20
10.4617
30
8.48
0
VERTEX
10
7.74919
20
10.442
30
8.48
0
VERTEX
10
7.73273
20
10.4222
30
8.48
0
VERTEX
10
7.70969
20
10.3992
30
8.48
0
VERTEX
10
7.69323
20
10.3729
30
8.48
0
VERTEX
10
7.68665
20
10.3663
30
8.48
0
VERTEX
10
7.68665
20
10.3597
30
8.48
0
VERTEX
10
7.63727
20
10.3202
30
8.48
0
VERTEX
10
7.6241
20
10.307
30
8.48
0
VERTEX
10
7.61093
20
10.3004
30
8.48
0
VERTEX
10
7.60106
20
10.2873
30
8.48
0
VERTEX
10
7.60106
20
10.2346
30
8.48
0
VERTEX
10
7.60106
20
10.2083
30
8.48
0
SEQEND
0
POLYLINE
62
31
66
1
70
1
3
contour
0
VERTEX
10
7.37721
20
11.0707
30
8.48
0
VERTEX
10
7.39037
20
11.0444
30
8.48
0
VERTEX
10
7.39037
20
11.0378
30
8.48
0
VERTEX
10
7.40354
20
11.028
30
8.48
0
VERTEX
10
7.42988
20
11.028
30
8.48
0
VERTEX
10
7.43646
20
11.028
30
8.48
0
VERTEX
10
7.44304
20
11.0214
30
8.48
0
VERTEX
10
7.46938
20
11.028
30
8.48
0
VERTEX
10
7.48584
20
11.051
30
8.48
0
VERTEX
10
7.49571
20
11.0773
30
8.48
0
VERTEX
10
7.48913
20
11.13
30
8.48
0
VERTEX
10
7.46609
20
11.1563
30
8.48
0
VERTEX
10
7.43975
20
11.1728
30
8.48
0
VERTEX
10
7.43317
20
11.1728
30
8.48
0
VERTEX
10
7.42658
20
11.1794
30
8.48
0
VERTEX
10
7.41342
20
11.1794
30
8.48
0
VERTEX
10
7.39696
20
11.1563
30
8.48
0
VERTEX
10
7.38379
20
11.1465
30
8.48
0
VERTEX
10
7.3805
20
11.0938
30
8.48
0
VERTEX
10
7.37721
20
11.0806
30
8.48
0
VERTEX
10
7.37721
20
11.074
30
8.48
0
SEQEND
0
POLYLINE
62
31
66
1
70
1
3
contour
0
VERTEX
10
7.24048
20
9.69948
30
8.48
0
VERTEX
10
7.24901
20
9.67217
30
8.48
0
VERTEX
10
7.25584
20
9.65852
30
8.48
0
VERTEX
10
7.26266
20
9.63122
30
8.48
0
VERTEX
10
7.26778
20
9.61757
30
8.48
0
VERTEX
10
7.27119
20
9.61415
30
8.48
0
VERTEX
10
7.27461
20
9.6005
30
8.48
0
VERTEX
10
7.29167
20
9.5732
30
8.48
0
VERTEX
10
7.29338
20
9.56637
30
8.48
0
VERTEX
10
7.31556
20
9.53907
30
8.48
0
VERTEX
10
7.32239
20
9.53736
30
8.48
0
VERTEX
10
7.33092
20
9.52542
30
8.48
0
VERTEX
10
7.34457
20
9.51689
30
8.48
0
VERTEX
10
7.3514
20
9.51518
30
8.48
0
VERTEX
10
7.35481
20
9.51177
30
8.48
0
VERTEX
10
7.36846
20
9.50835
30
8.48
0
VERTEX
10
7.37529
20
9.50835
30
8.48
0
VERTEX
10
7.40259
20
9.49812
30
8.48
0
VERTEX
10
7.40942
20
9.4947
30
8.48
0
VERTEX
10
7.43672
20
9.493
30
8.48
0
VERTEX
10
7.44013
20
9.48958
30
8.48
0
VERTEX
10
7.46744
20
9.48958
30
8.48
0
VERTEX
10
7.52204
20
9.49812
30
8.48
0
VERTEX
10
7.53569
20
9.50323
30
8.48
0
VERTEX
10
7.563
20
9.50494
30
8.48
0
VERTEX
10
7.57665
20
9.50665
30
8.48
0
VERTEX
10
7.60395
20
9.51689
30
8.48
0
VERTEX
10
7.60566
20
9.5203
30
8.48
0
VERTEX
10
7.60907
20
9.5203
30
8.48
0
VERTEX
10
7.61419
20
9.52542
30
8.48
0
VERTEX
10
7.62784
20
9.53054
30
8.48
0
VERTEX
10
7.6415
20
9.53907
30
8.48
0
VERTEX
10
7.65344
20
9.55102
30
8.48
0
VERTEX
10
7.66368
20
9.55955
30
8.48
0
VERTEX
10
7.6705
20
9.56979
30
8.48
0
VERTEX
10
7.67562
20
9.58344
30
8.48
0
VERTEX
10
7.68245
20
9.63804
30
8.48
0
VERTEX
10
7.68416
20
9.69265
30
8.48
0
VERTEX
10
7.68074
20
9.71995
30
8.48
0
VERTEX
10
7.67562
20
9.72678
30
8.48
0
VERTEX
10
7.67392
20
9.73361
30
8.48
0
VERTEX
10
7.67392
20
9.73702
30
8.48
0
VERTEX
10
7.66709
20
9.74043
30
8.48
0
VERTEX
10
7.65856
20
9.75408
30
8.48
0
VERTEX
10
7.64491
20
9.76603
30
8.48
0
VERTEX
10
7.63126
20
9.77456
30
8.48
0
VERTEX
10
7.6176
20
9.77968
30
8.48
0
VERTEX
10
7.61078
20
9.77968
30
8.48
0
VERTEX
10
7.60395
20
9.78309
30
8.48
0
VERTEX
10
7.59883
20
9.78992
30
8.48
0
VERTEX
10
7.58689
20
9.79845
30
8.48
0
VERTEX
10
7.58006
20
9.80357
30
8.48
0
VERTEX
10
7.56641
20
9.80528
30
8.48
0
VERTEX
10
7.563
20
9.80869
30
8.48
0
VERTEX
10
7.54935
20
9.8121
30
8.48
0
VERTEX
10
7.54593
20
9.81552
30
8.48
0
VERTEX
10
7.51863
20
9.81722
30
8.48
0
VERTEX
10
7.49133
20
9.82234
30
8.48
0
VERTEX
10
7.46402
20
9.82234
30
8.48
0
VERTEX
10
7.45037
20
9.81893
30
8.48
0
VERTEX
10
7.42307
20
9.81722
30
8.48
0
VERTEX
10
7.40942
20
9.81381
30
8.48
0
VERTEX
10
7.39577
20
9.81381
30
8.48
0
VERTEX
10
7.36846
20
9.80698
30
8.48
0
VERTEX
10
7.36505
20
9.80357
30
8.48
0
VERTEX
10
7.35822
20
9.80357
30
8.48
0
VERTEX
10
7.34457
20
9.79504
30
8.48
0
VERTEX
10
7.33092
20
9.78992
30
8.48
0
VERTEX
10
7.32409
20
9.78821
30
8.48
0
VERTEX
10
7.2985
20
9.77115
30
8.48
0
VERTEX
10
7.28655
20
9.76091
30
8.48
0
VERTEX
10
7.28314
20
9.76091
30
8.48
0
VERTEX
10
7.27631
20
9.75408
30
8.48
0
VERTEX
10
7.2729
20
9.75408
30
8.48
0
VERTEX
10
7.25925
20
9.74555
30
8.48
0
VERTEX
10
7.2456
20
9.73361
30
8.48
0
VERTEX
10
7.24219
20
9.7319
30
8.48
0
VERTEX
10
7.2456
20
9.72507
30
8.48
0
VERTEX
10
7.2473
20
9.72337
30
8.48
0
VERTEX
10
7.24048
20
9.71995
30
8.48
0
VERTEX
10
7.24048
20
9.7063
30
8.48
0
VERTEX
10
7.24048
20
9.70118
30
8.48
0
SEQEND
0
POLYLINE
62
224
66
1
70
1
3
mitochondrion
0
VERTEX
10
7.8017
20
10.2113
30
8.48
0
VERTEX
10
7.80587
20
10.2002
30
8.48
0
VERTEX
10
7.81561
20
10.1891
30
8.48
0
VERTEX
10
7.81839
20
10.1835
30
8.48
0
VERTEX
10
7.83646
20
10.1654
30
8.48
0
VERTEX
10
7.87957
20
10.1348
30
8.48
0
VERTEX
10
7.88235
20
10.1348
30
8.48
0
VERTEX
10
7.88374
20
10.1321
30
8.48
0
VERTEX
10
7.89486
20
10.1307
30
8.48
0
VERTEX
10
7.90042
20
10.1265
30
8.48
0
VERTEX
10
7.90598
20
10.1265
30
8.48
0
VERTEX
10
7.91155
20
10.1237
30
8.48
0
VERTEX
10
7.92267
20
10.1237
30
8.48
0
VERTEX
10
7.92545
20
10.1209
30
8.48
0
VERTEX
10
7.93657
20
10.1168
30
8.48
0
VERTEX
10
7.95882
20
10.1168
30
8.48
0
VERTEX
10
7.96994
20
10.1168
30
8.48
0
VERTEX
10
7.99219
20
10.1209
30
8.48
0
VERTEX
10
8.00331
20
10.1251
30
8.48
0
VERTEX
10
8.00888
20
10.1265
30
8.48
0
VERTEX
10
8.01444
20
10.1307
30
8.48
0
VERTEX
10
8.02
20
10.1307
30
8.48
0
VERTEX
10
8.02556
20
10.1335
30
8.48
0
VERTEX
10
8.02834
20
10.1362
30
8.48
0
VERTEX
10
8.03112
20
10.1362
30
8.48
0
VERTEX
10
8.03251
20
10.1418
30
8.48
0
VERTEX
10
8.04225
20
10.1501
30
8.48
0
VERTEX
10
8.04503
20
10.1501
30
8.48
0
VERTEX
10
8.06032
20
10.1724
30
8.48
0
VERTEX
10
8.06727
20
10.1835
30
8.48
0
VERTEX
10
8.07562
20
10.2058
30
8.48
0
VERTEX
10
8.07701
20
10.2113
30
8.48
0
VERTEX
10
8.08118
20
10.2155
30
8.48
0
VERTEX
10
8.08118
20
10.2183
30
8.48
0
VERTEX
10
8.08535
20
10.2224
30
8.48
0
VERTEX
10
8.08813
20
10.2336
30
8.48
0
VERTEX
10
8.08813
20
10.2558
30
8.48
0
VERTEX
10
8.08674
20
10.2669
30
8.48
0
VERTEX
10
8.08535
20
10.2725
30
8.48
0
VERTEX
10
8.08535
20
10.2753
30
8.48
0
VERTEX
10
8.08257
20
10.2767
30
8.48
0
VERTEX
10
8.07979
20
10.2878
30
8.48
0
VERTEX
10
8.07701
20
10.2906
30
8.48
0
VERTEX
10
8.07701
20
10.2934
30
8.48
0
VERTEX
10
8.04364
20
10.3337
30
8.48
0
VERTEX
10
8.02278
20
10.3476
30
8.48
0
VERTEX
10
8.01722
20
10.349
30
8.48
0
VERTEX
10
8.01166
20
10.3545
30
8.48
0
VERTEX
10
7.98941
20
10.3587
30
8.48
0
VERTEX
10
7.96716
20
10.3601
30
8.48
0
VERTEX
10
7.95604
20
10.3629
30
8.48
0
VERTEX
10
7.86705
20
10.3462
30
8.48
0
VERTEX
10
7.85593
20
10.342
30
8.48
0
VERTEX
10
7.85037
20
10.3406
30
8.48
0
VERTEX
10
7.84202
20
10.3323
30
8.48
0
VERTEX
10
7.83785
20
10.3295
30
8.48
0
VERTEX
10
7.82673
20
10.3198
30
8.48
0
VERTEX
10
7.81978
20
10.3086
30
8.48
0
VERTEX
10
7.81561
20
10.2975
30
8.48
0
VERTEX
10
7.80865
20
10.2864
30
8.48
0
VERTEX
10
7.80448
20
10.2642
30
8.48
0
VERTEX
10
7.8017
20
10.253
30
8.48
0
VERTEX
10
7.8017
20
10.2308
30
8.48
0
VERTEX
10
7.8017
20
10.2197
30
8.48
0
VERTEX
10
7.8017
20
10.2141
30
8.48
0
VERTEX
10
7.8017
20
10.2127
30
8.48
0
SEQEND
0
POLYLINE
62
227
66
1
70
1
3
endoplasmic_reticulum
0
VERTEX
10
7.64664
20
10.2529
30
8.48
0
VERTEX
10
7.65202
20
10.2457
30
8.48
0
VERTEX
10
7.6574
20
10.2403
30
8.48
0
VERTEX
10
7.66726
20
10.226
30
8.48
0
VERTEX
10
7.67175
20
10.2188
30
8.48
0
VERTEX
10
7.67892
20
10.2126
30
8.48
0
VERTEX
10
7.6825
20
10.2117
30
8.48
0
VERTEX
10
7.68968
20
10.2063
30
8.48
0
VERTEX
10
7.69685
20
10.2054
30
8.48
0
VERTEX
10
7.70043
20
10.2054
30
8.48
0
VERTEX
10
7.70223
20
10.2054
30
8.48
0
VERTEX
10
7.71388
20
10.2143
30
8.48
0
VERTEX
10
7.71747
20
10.217
30
8.48
0
VERTEX
10
7.72016
20
10.2233
30
8.48
0
VERTEX
10
7.72374
20
10.2269
30
8.48
0
VERTEX
10
7.72374
20
10.2412
30
8.48
0
VERTEX
10
7.72464
20
10.2448
30
8.48
0
VERTEX
10
7.72464
20
10.2466
30
8.48
0
VERTEX
10
7.72643
20
10.2475
30
8.48
0
VERTEX
10
7.72643
20
10.2547
30
8.48
0
VERTEX
10
7.73092
20
10.2681
30
8.48
0
VERTEX
10
7.73361
20
10.2717
30
8.48
0
VERTEX
10
7.73719
20
10.2726
30
8.48
0
VERTEX
10
7.74347
20
10.2771
30
8.48
0
VERTEX
10
7.74526
20
10.2771
30
8.48
0
VERTEX
10
7.74885
20
10.2798
30
8.48
0
VERTEX
10
7.75064
20
10.2816
30
8.48
0
VERTEX
10
7.75064
20
10.2888
30
8.48
0
VERTEX
10
7.74885
20
10.2959
30
8.48
0
VERTEX
10
7.74347
20
10.3022
30
8.48
0
VERTEX
10
7.7363
20
10.3076
30
8.48
0
VERTEX
10
7.72464
20
10.3175
30
8.48
0
VERTEX
10
7.71747
20
10.3201
30
8.48
0
VERTEX
10
7.71478
20
10.3228
30
8.48
0
VERTEX
10
7.71388
20
10.3192
30
8.48
0
VERTEX
10
7.71478
20
10.3157
30
8.48
0
VERTEX
10
7.70133
20
10.3058
30
8.48
0
VERTEX
10
7.69954
20
10.304
30
8.48
0
VERTEX
10
7.69774
20
10.304
30
8.48
0
VERTEX
10
7.69326
20
10.2968
30
8.48
0
VERTEX
10
7.69326
20
10.2897
30
8.48
0
VERTEX
10
7.68878
20
10.2843
30
8.48
0
VERTEX
10
7.67443
20
10.2843
30
8.48
0
VERTEX
10
7.67085
20
10.2843
30
8.48
0
VERTEX
10
7.66906
20
10.2825
30
8.48
0
VERTEX
10
7.66188
20
10.2816
30
8.48
0
VERTEX
10
7.65471
20
10.2771
30
8.48
0
VERTEX
10
7.65292
20
10.2771
30
8.48
0
VERTEX
10
7.64754
20
10.2708
30
8.48
0
VERTEX
10
7.64664
20
10.2565
30
8.48
0
VERTEX
10
7.64664
20
10.2538
30
8.48
0
SEQEND
0
POLYLINE
62
227
66
1
70
1
3
endoplasmic_reticulum
0
VERTEX
10
7.75602
20
10.096
30
8.48
0
VERTEX
10
7.75781
20
10.0888
30
8.48
0
VERTEX
10
7.76409
20
10.0835
30
8.48
0
VERTEX
10
7.76768
20
10.0835
30
8.48
0
VERTEX
10
7.76947
20
10.0808
30
8.48
0
VERTEX
10
7.78381
20
10.0781
30
8.48
0
VERTEX
10
7.79099
20
10.0763
30
8.48
0
VERTEX
10
7.79816
20
10.0763
30
8.48
0
VERTEX
10
7.80533
20
10.0736
30
8.48
0
VERTEX
10
7.80892
20
10.0736
30
8.48
0
VERTEX
10
7.8125
20
10.0709
30
8.48
0
VERTEX
10
7.8143
20
10.0709
30
8.48
0
VERTEX
10
7.81519
20
10.0691
30
8.48
0
VERTEX
10
7.81878
20
10.0682
30
8.48
0
VERTEX
10
7.82595
20
10.0637
30
8.48
0
VERTEX
10
7.82774
20
10.0619
30
8.48
0
VERTEX
10
7.83133
20
10.061
30
8.48
0
VERTEX
10
7.83492
20
10.0584
30
8.48
0
VERTEX
10
7.84209
20
10.0566
30
8.48
0
VERTEX
10
7.85643
20
10.0557
30
8.48
0
VERTEX
10
7.86361
20
10.0539
30
8.48
0
VERTEX
10
7.87078
20
10.0503
30
8.48
0
VERTEX
10
7.87795
20
10.0494
30
8.48
0
VERTEX
10
7.88512
20
10.0467
30
8.48
0
VERTEX
10
7.88871
20
10.0458
30
8.48
0
VERTEX
10
7.8905
20
10.044
30
8.48
0
VERTEX
10
7.89767
20
10.0422
30
8.48
0
VERTEX
10
7.90126
20
10.0395
30
8.48
0
VERTEX
10
7.91561
20
10.035
30
8.48
0
VERTEX
10
7.92278
20
10.0341
30
8.48
0
VERTEX
10
7.92457
20
10.0341
30
8.48
0
VERTEX
10
7.92816
20
10.0315
30
8.48
0
VERTEX
10
7.93174
20
10.0306
30
8.48
0
VERTEX
10
7.93533
20
10.0279
30
8.48
0
VERTEX
10
7.93712
20
10.0243
30
8.48
0
VERTEX
10
7.93712
20
10.0099
30
8.48
0
VERTEX
10
7.94071
20
9.99559
30
8.48
0
VERTEX
10
7.9425
20
9.9938
30
8.48
0
VERTEX
10
7.94519
20
9.98663
30
8.48
0
VERTEX
10
7.94519
20
9.98483
30
8.48
0
VERTEX
10
7.95057
20
9.97856
30
8.48
0
VERTEX
10
7.95147
20
9.97497
30
8.48
0
VERTEX
10
7.96043
20
9.96152
30
8.48
0
VERTEX
10
7.96761
20
9.95525
30
8.48
0
VERTEX
10
7.97119
20
9.95256
30
8.48
0
VERTEX
10
7.97298
20
9.94987
30
8.48
0
VERTEX
10
7.97657
20
9.94718
30
8.48
0
VERTEX
10
8.00526
20
9.94628
30
8.48
0
VERTEX
10
8.01243
20
9.94808
30
8.48
0
VERTEX
10
8.01602
20
9.94808
30
8.48
0
VERTEX
10
8.01781
20
9.94808
30
8.48
0
VERTEX
10
8.02409
20
9.95345
30
8.48
0
VERTEX
10
8.03216
20
9.9669
30
8.48
0
VERTEX
10
8.03485
20
9.97049
30
8.48
0
VERTEX
10
8.03574
20
9.97408
30
8.48
0
VERTEX
10
8.0474
20
9.98752
30
8.48
0
VERTEX
10
8.05188
20
9.9947
30
8.48
0
VERTEX
10
8.05905
20
9.99918
30
8.48
0
VERTEX
10
8.06623
20
10.0001
30
8.48
0
VERTEX
10
8.06981
20
10.001
30
8.48
0
VERTEX
10
8.08416
20
9.99739
30
8.48
0
VERTEX
10
8.0985
20
9.99201
30
8.48
0
VERTEX
10
8.10567
20
9.98932
30
8.48
0
VERTEX
10
8.12002
20
9.98932
30
8.48
0
VERTEX
10
8.12719
20
9.98932
30
8.48
0
VERTEX
10
8.13078
20
9.98932
30
8.48
0
VERTEX
10
8.13436
20
9.99111
30
8.48
0
VERTEX
10
8.13616
20
9.99111
30
8.48
0
VERTEX
10
8.13885
20
9.9947
30
8.48
0
VERTEX
10
8.14064
20
9.9947
30
8.48
0
VERTEX
10
8.14691
20
10.0001
30
8.48
0
VERTEX
10
8.1505
20
10.0028
30
8.48
0
VERTEX
10
8.15409
20
10.009
30
8.48
0
VERTEX
10
8.16036
20
10.0144
30
8.48
0
VERTEX
10
8.16036
20
10.0216
30
8.48
0
VERTEX
10
8.16036
20
10.0252
30
8.48
0
VERTEX
10
8.15857
20
10.0288
30
8.48
0
VERTEX
10
8.15857
20
10.0324
30
8.48
0
VERTEX
10
8.15229
20
10.0386
30
8.48
0
VERTEX
10
8.14781
20
10.0449
30
8.48
0
VERTEX
10
8.14422
20
10.0467
30
8.48
0
VERTEX
10
8.14243
20
10.0485
30
8.48
0
VERTEX
10
8.14064
20
10.0485
30
8.48
0
VERTEX
10
8.13436
20
10.0548
30
8.48
0
VERTEX
10
8.13526
20
10.0619
30
8.48
0
VERTEX
10
8.13795
20
10.0646
30
8.48
0
VERTEX
10
8.15229
20
10.0691
30
8.48
0
VERTEX
10
8.15588
20
10.0718
30
8.48
0
VERTEX
10
8.16305
20
10.0727
30
8.48
0
VERTEX
10
8.16664
20
10.0736
30
8.48
0
VERTEX
10
8.17022
20
10.0763
30
8.48
0
VERTEX
10
8.17202
20
10.0781
30
8.48
0
VERTEX
10
8.17291
20
10.0924
30
8.48
0
VERTEX
10
8.16843
20
10.1068
30
8.48
0
VERTEX
10
8.15588
20
10.1184
30
8.48
0
VERTEX
10
8.1505
20
10.1229
30
8.48
0
VERTEX
10
8.14781
20
10.1265
30
8.48
0
VERTEX
10
8.14422
20
10.1283
30
8.48
0
VERTEX
10
8.13705
20
10.1283
30
8.48
0
VERTEX
10
8.13526
20
10.1265
30
8.48
0
VERTEX
10
8.12809
20
10.1265
30
8.48
0
VERTEX
10
8.0994
20
10.1202
30
8.48
0
VERTEX
10
8.08505
20
10.1184
30
8.48
0
VERTEX
10
8.07967
20
10.113
30
8.48
0
VERTEX
10
8.0734
20
10.1059
30
8.48
0
VERTEX
10
8.07071
20
10.1023
30
8.48
0
VERTEX
10
8.06981
20
10.0879
30
8.48
0
VERTEX
10
8.0716
20
10.0736
30
8.48
0
VERTEX
10
8.0716
20
10.0664
30
8.48
0
VERTEX
10
8.07071
20
10.0628
30
8.48
0
VERTEX
10
8.06802
20
10.0592
30
8.48
0
VERTEX
10
8.06174
20
10.0557
30
8.48
0
VERTEX
10
8.05457
20
10.0575
30
8.48
0
VERTEX
10
8.05098
20
10.0575
30
8.48
0
VERTEX
10
8.0474
20
10.0557
30
8.48
0
VERTEX
10
8.03305
20
10.0566
30
8.48
0
VERTEX
10
8.02588
20
10.0575
30
8.48
0
VERTEX
10
8.02229
20
10.0575
30
8.48
0
VERTEX
10
8.01512
20
10.0628
30
8.48
0
VERTEX
10
8.01154
20
10.0646
30
8.48
0
VERTEX
10
8.00974
20
10.0664
30
8.48
0
VERTEX
10
8.00257
20
10.0682
30
8.48
0
VERTEX
10
7.99898
20
10.07
30
8.48
0
VERTEX
10
7.9954
20
10.07
30
8.48
0
VERTEX
10
7.99181
20
10.0718
30
8.48
0
VERTEX
10
7.98464
20
10.0718
30
8.48
0
VERTEX
10
7.98285
20
10.0718
30
8.48
0
VERTEX
10
7.98105
20
10.0736
30
8.48
0
VERTEX
10
7.97747
20
10.0736
30
8.48
0
VERTEX
10
7.97029
20
10.0781
30
8.48
0
VERTEX
10
7.95595
20
10.0799
30
8.48
0
VERTEX
10
7.94878
20
10.0817
30
8.48
0
VERTEX
10
7.94161
20
10.0817
30
8.48
0
VERTEX
10
7.93443
20
10.0799
30
8.48
0
VERTEX
10
7.92009
20
10.0799
30
8.48
0
VERTEX
10
7.9165
20
10.0817
30
8.48
0
VERTEX
10
7.90933
20
10.0817
30
8.48
0
VERTEX
10
7.90574
20
10.0817
30
8.48
0
VERTEX
10
7.89857
20
10.0861
30
8.48
0
VERTEX
10
7.8914
20
10.0888
30
8.48
0
VERTEX
10
7.88781
20
10.0906
30
8.48
0
VERTEX
10
7.88602
20
10.0906
30
8.48
0
VERTEX
10
7.88243
20
10.0933
30
8.48
0
VERTEX
10
7.87526
20
10.0933
30
8.48
0
VERTEX
10
7.87167
20
10.0933
30
8.48
0
VERTEX
10
7.86988
20
10.0915
30
8.48
0
VERTEX
10
7.8663
20
10.0906
30
8.48
0
VERTEX
10
7.85912
20
10.0924
30
8.48
0
VERTEX
10
7.85733
20
10.0924
30
8.48
0
VERTEX
10
7.85554
20
10.0942
30
8.48
0
VERTEX
10
7.85195
20
10.0951
30
8.48
0
VERTEX
10
7.8394
20
10.1068
30
8.48
0
VERTEX
10
7.82505
20
10.1148
30
8.48
0
VERTEX
10
7.81788
20
10.1148
30
8.48
0
VERTEX
10
7.8143
20
10.1166
30
8.48
0
VERTEX
10
7.8134
20
10.1184
30
8.48
0
VERTEX
10
7.80623
20
10.1193
30
8.48
0
VERTEX
10
7.79905
20
10.122
30
8.48
0
VERTEX
10
7.78471
20
10.122
30
8.48
0
VERTEX
10
7.77754
20
10.122
30
8.48
0
VERTEX
10
7.76319
20
10.1157
30
8.48
0
VERTEX
10
7.75961
20
10.1148
30
8.48
0
VERTEX
10
7.75692
20
10.1112
30
8.48
0
VERTEX
10
7.75602
20
10.0969
30
8.48
0
SEQEND
0
POLYLINE
62
227
66
1
70
1
3
endoplasmic_reticulum
0
VERTEX
10
8.16305
20
10.382
30
8.48
0
VERTEX
10
8.16574
20
10.3784
30
8.48
0
VERTEX
10
8.16664
20
10.3712
30
8.48
0
VERTEX
10
8.16933
20
10.3677
30
8.48
0
VERTEX
10
8.17202
20
10.3605
30
8.48
0
VERTEX
10
8.17202
20
10.3533
30
8.48
0
VERTEX
10
8.1756
20
10.339
30
8.48
0
VERTEX
10
8.1774
20
10.3318
30
8.48
0
VERTEX
10
8.17829
20
10.3282
30
8.48
0
VERTEX
10
8.17829
20
10.3264
30
8.48
0
VERTEX
10
8.18009
20
10.3246
30
8.48
0
VERTEX
10
8.18098
20
10.3103
30
8.48
0
VERTEX
10
8.17829
20
10.3058
30
8.48
0
VERTEX
10
8.17829
20
10.2986
30
8.48
0
VERTEX
10
8.17829
20
10.2968
30
8.48
0
VERTEX
10
8.1756
20
10.2932
30
8.48
0
VERTEX
10
8.17291
20
10.2798
30
8.48
0
VERTEX
10
8.17112
20
10.2511
30
8.48
0
VERTEX
10
8.17022
20
10.2368
30
8.48
0
VERTEX
10
8.17112
20
10.2332
30
8.48
0
VERTEX
10
8.1765
20
10.226
30
8.48
0
VERTEX
10
8.18367
20
10.2188
30
8.48
0
VERTEX
10
8.18636
20
10.2161
30
8.48
0
VERTEX
10
8.19353
20
10.2152
30
8.48
0
VERTEX
10
8.19712
20
10.2152
30
8.48
0
VERTEX
10
8.19891
20
10.2143
30
8.48
0
VERTEX
10
8.20071
20
10.2161
30
8.48
0
VERTEX
10
8.20071
20
10.2305
30
8.48
0
VERTEX
10
8.20071
20
10.2377
30
8.48
0
VERTEX
10
8.20429
20
10.252
30
8.48
0
VERTEX
10
8.20609
20
10.2556
30
8.48
0
VERTEX
10
8.20609
20
10.2592
30
8.48
0
VERTEX
10
8.20429
20
10.2628
30
8.48
0
VERTEX
10
8.20429
20
10.2699
30
8.48
0
VERTEX
10
8.20609
20
10.2771
30
8.48
0
VERTEX
10
8.20609
20
10.2915
30
8.48
0
VERTEX
10
8.20609
20
10.295
30
8.48
0
VERTEX
10
8.20878
20
10.2986
30
8.48
0
VERTEX
10
8.21236
20
10.2995
30
8.48
0
VERTEX
10
8.21505
20
10.3031
30
8.48
0
VERTEX
10
8.21864
20
10.3049
30
8.48
0
VERTEX
10
8.22043
20
10.3067
30
8.48
0
VERTEX
10
8.21774
20
10.321
30
8.48
0
VERTEX
10
8.21774
20
10.3246
30
8.48
0
VERTEX
10
8.20967
20
10.339
30
8.48
0
VERTEX
10
8.20609
20
10.3533
30
8.48
0
VERTEX
10
8.20429
20
10.3677
30
8.48
0
VERTEX
10
8.2034
20
10.3748
30
8.48
0
VERTEX
10
8.20071
20
10.382
30
8.48
0
VERTEX
10
8.19891
20
10.3856
30
8.48
0
VERTEX
10
8.19891
20
10.3874
30
8.48
0
VERTEX
10
8.18816
20
10.4017
30
8.48
0
VERTEX
10
8.18188
20
10.408
30
8.48
0
VERTEX
10
8.18009
20
10.4107
30
8.48
0
VERTEX
10
8.17291
20
10.4053
30
8.48
0
VERTEX
10
8.16933
20
10.4035
30
8.48
0
VERTEX
10
8.16843
20
10.3999
30
8.48
0
VERTEX
10
8.16485
20
10.3972
30
8.48
0
VERTEX
10
8.16305
20
10.3955
30
8.48
0
VERTEX
10
8.16305
20
10.3883
30
8.48
0
VERTEX
10
8.16305
20
10.3847
30
8.48
0
VERTEX
10
8.16305
20
10.3829
30
8.48
0
SEQEND
0
POLYLINE
62
227
66
1
70
1
3
endoplasmic_reticulum
0
VERTEX
10
8.08774
20
10.3865
30
8.48
0
VERTEX
10
8.09043
20
10.3721
30
8.48
0
VERTEX
10
8.09043
20
10.3686
30
8.48
0
VERTEX
10
8.09491
20
10.3542
30
8.48
0
VERTEX
10
8.09491
20
10.3506
30
8.48
0
VERTEX
10
8.09671
20
10.3488
30
8.48
0
VERTEX
10
8.0985
20
10.3417
30
8.48
0
VERTEX
10
8.0985
20
10.3381
30
8.48
0
VERTEX
10
8.10388
20
10.3246
30
8.48
0
VERTEX
10
8.11105
20
10.2959
30
8.48
0
VERTEX
10
8.11464
20
10.2888
30
8.48
0
VERTEX
10
8.11643
20
10.2744
30
8.48
0
VERTEX
10
8.11733
20
10.2708
30
8.48
0
VERTEX
10
8.11643
20
10.2637
30
8.48
0
VERTEX
10
8.11912
20
10.2565
30
8.48
0
VERTEX
10
8.12091
20
10.2421
30
8.48
0
VERTEX
10
8.12091
20
10.2278
30
8.48
0
VERTEX
10
8.12271
20
10.2242
30
8.48
0
VERTEX
10
8.1245
20
10.2099
30
8.48
0
VERTEX
10
8.1245
20
10.2027
30
8.48
0
VERTEX
10
8.12719
20
10.1955
30
8.48
0
VERTEX
10
8.12719
20
10.1919
30
8.48
0
VERTEX
10
8.13257
20
10.1848
30
8.48
0
VERTEX
10
8.13616
20
10.1821
30
8.48
0
VERTEX
10
8.1505
20
10.1794
30
8.48
0
VERTEX
10
8.15767
20
10.1812
30
8.48
0
VERTEX
10
8.16395
20
10.1857
30
8.48
0
VERTEX
10
8.16485
20
10.2
30
8.48
0
VERTEX
10
8.16395
20
10.2072
30
8.48
0
VERTEX
10
8.15947
20
10.2135
30
8.48
0
VERTEX
10
8.15678
20
10.2161
30
8.48
0
VERTEX
10
8.15588
20
10.2197
30
8.48
0
VERTEX
10
8.15409
20
10.2197
30
8.48
0
VERTEX
10
8.14871
20
10.2475
30
8.48
0
VERTEX
10
8.14781
20
10.2547
30
8.48
0
VERTEX
10
8.14512
20
10.2619
30
8.48
0
VERTEX
10
8.14512
20
10.269
30
8.48
0
VERTEX
10
8.14333
20
10.2726
30
8.48
0
VERTEX
10
8.14154
20
10.287
30
8.48
0
VERTEX
10
8.13885
20
10.2941
30
8.48
0
VERTEX
10
8.13616
20
10.3085
30
8.48
0
VERTEX
10
8.12719
20
10.3372
30
8.48
0
VERTEX
10
8.12719
20
10.339
30
8.48
0
VERTEX
10
8.1254
20
10.3408
30
8.48
0
VERTEX
10
8.1245
20
10.3443
30
8.48
0
VERTEX
10
8.12002
20
10.3515
30
8.48
0
VERTEX
10
8.11374
20
10.3578
30
8.48
0
VERTEX
10
8.11195
20
10.365
30
8.48
0
VERTEX
10
8.11195
20
10.3668
30
8.48
0
VERTEX
10
8.11016
20
10.3686
30
8.48
0
VERTEX
10
8.10836
20
10.3757
30
8.48
0
VERTEX
10
8.10836
20
10.3829
30
8.48
0
VERTEX
10
8.11016
20
10.3901
30
8.48
0
VERTEX
10
8.11554
20
10.3955
30
8.48
0
VERTEX
10
8.11912
20
10.3981
30
8.48
0
VERTEX
10
8.12091
20
10.399
30
8.48
0
VERTEX
10
8.12091
20
10.4008
30
8.48
0
VERTEX
10
8.1245
20
10.4026
30
8.48
0
VERTEX
10
8.12629
20
10.4035
30
8.48
0
VERTEX
10
8.12629
20
10.4053
30
8.48
0
VERTEX
10
8.12809
20
10.4062
30
8.48
0
VERTEX
10
8.12898
20
10.4134
30
8.48
0
VERTEX
10
8.12719
20
10.4206
30
8.48
0
VERTEX
10
8.1254
20
10.4241
30
8.48
0
VERTEX
10
8.1254
20
10.4259
30
8.48
0
VERTEX
10
8.12271
20
10.4286
30
8.48
0
VERTEX
10
8.12002
20
10.4358
30
8.48
0
VERTEX
10
8.11464
20
10.443
30
8.48
0
VERTEX
10
8.10926
20
10.4475
30
8.48
0
VERTEX
10
8.10209
20
10.4519
30
8.48
0
VERTEX
10
8.0985
20
10.4528
30
8.48
0
VERTEX
10
8.09312
20
10.4466
30
8.48
0
VERTEX
10
8.09133
20
10.4466
30
8.48
0
VERTEX
10
8.09043
20
10.443
30
8.48
0
VERTEX
10
8.09223
20
10.4421
30
8.48
0
VERTEX
10
8.09312
20
10.4277
30
8.48
0
VERTEX
10
8.09223
20
10.4134
30
8.48
0
VERTEX
10
8.09223
20
10.4098
30
8.48
0
VERTEX
10
8.08864
20
10.4026
30
8.48
0
VERTEX
10
8.08774
20
10.3883
30
8.48
0
VERTEX
10
8.08774
20
10.3874
30
8.48
0
SEQEND
0
ENDSEC
0
EOF
