0
SECTION
2
ENTITIES
0
POLYLINE
62
31
66
1
70
1
3
contour
0
VERTEX
10
8.49254
20
8.41937
30
4.4
0
VERTEX
10
8.49698
20
8.40163
30
4.4
0
VERTEX
10
8.4992
20
8.39276
30
4.4
0
VERTEX
10
8.4992
20
8.38833
30
4.4
0
VERTEX
10
8.52359
20
8.35507
30
4.4
0
VERTEX
10
8.54798
20
8.32624
30
4.4
0
VERTEX
10
8.56128
20
8.31515
30
4.4
0
VERTEX
10
8.57902
20
8.3085
30
4.4
0
VERTEX
10
8.58346
20
8.30407
30
4.4
0
VERTEX
10
8.59233
20
8.30407
30
4.4
0
VERTEX
10
8.61006
20
8.29741
30
4.4
0
VERTEX
10
8.6145
20
8.29741
30
4.4
0
VERTEX
10
8.61893
20
8.29298
30
4.4
0
VERTEX
10
8.6278
20
8.29076
30
4.4
0
VERTEX
10
8.63224
20
8.29076
30
4.4
0
VERTEX
10
8.63667
20
8.28633
30
4.4
0
VERTEX
10
8.67215
20
8.27302
30
4.4
0
VERTEX
10
8.70763
20
8.27081
30
4.4
0
VERTEX
10
8.72537
20
8.26859
30
4.4
0
VERTEX
10
8.76085
20
8.27524
30
4.4
0
VERTEX
10
8.77858
20
8.27746
30
4.4
0
VERTEX
10
8.81406
20
8.28854
30
4.4
0
VERTEX
10
8.88502
20
8.28854
30
4.4
0
VERTEX
10
8.9205
20
8.28854
30
4.4
0
VERTEX
10
8.95597
20
8.29298
30
4.4
0
VERTEX
10
9.09789
20
8.29298
30
4.4
0
VERTEX
10
9.11563
20
8.2952
30
4.4
0
VERTEX
10
9.12449
20
8.2952
30
4.4
0
VERTEX
10
9.13115
20
8.30185
30
4.4
0
VERTEX
10
9.14889
20
8.30407
30
4.4
0
VERTEX
10
9.15776
20
8.30407
30
4.4
0
VERTEX
10
9.17549
20
8.31072
30
4.4
0
VERTEX
10
9.18436
20
8.31515
30
4.4
0
VERTEX
10
9.19323
20
8.31515
30
4.4
0
VERTEX
10
9.21097
20
8.32181
30
4.4
0
VERTEX
10
9.21984
20
8.32181
30
4.4
0
VERTEX
10
9.22428
20
8.32624
30
4.4
0
VERTEX
10
9.23315
20
8.32624
30
4.4
0
VERTEX
10
9.23758
20
8.33067
30
4.4
0
VERTEX
10
9.25532
20
8.33511
30
4.4
0
VERTEX
10
9.26419
20
8.33511
30
4.4
0
VERTEX
10
9.26862
20
8.33511
30
4.4
0
VERTEX
10
9.27306
20
8.33954
30
4.4
0
VERTEX
10
9.2908
20
8.34176
30
4.4
0
VERTEX
10
9.32628
20
8.35285
30
4.4
0
VERTEX
10
9.33515
20
8.35285
30
4.4
0
VERTEX
10
9.35288
20
8.3595
30
4.4
0
VERTEX
10
9.36175
20
8.36172
30
4.4
0
VERTEX
10
9.37062
20
8.36837
30
4.4
0
VERTEX
10
9.4061
20
8.37502
30
4.4
0
VERTEX
10
9.47706
20
8.37059
30
4.4
0
VERTEX
10
9.51254
20
8.36615
30
4.4
0
VERTEX
10
9.5214
20
8.36615
30
4.4
0
VERTEX
10
9.52584
20
8.36615
30
4.4
0
VERTEX
10
9.53027
20
8.36172
30
4.4
0
VERTEX
10
9.60123
20
8.36394
30
4.4
0
VERTEX
10
9.63671
20
8.36394
30
4.4
0
VERTEX
10
9.64114
20
8.36837
30
4.4
0
VERTEX
10
9.67662
20
8.37502
30
4.4
0
VERTEX
10
9.68549
20
8.37946
30
4.4
0
VERTEX
10
9.69436
20
8.37946
30
4.4
0
VERTEX
10
9.72762
20
8.39498
30
4.4
0
VERTEX
10
9.73649
20
8.3972
30
4.4
0
VERTEX
10
9.76753
20
8.42602
30
4.4
0
VERTEX
10
9.78527
20
8.43489
30
4.4
0
VERTEX
10
9.84514
20
8.49033
30
4.4
0
VERTEX
10
9.87397
20
8.52359
30
4.4
0
VERTEX
10
9.88505
20
8.54133
30
4.4
0
VERTEX
10
9.89392
20
8.54354
30
4.4
0
VERTEX
10
9.90945
20
8.55906
30
4.4
0
VERTEX
10
9.9161
20
8.56793
30
4.4
0
VERTEX
10
9.92053
20
8.58567
30
4.4
0
VERTEX
10
9.92053
20
8.62115
30
4.4
0
VERTEX
10
9.91388
20
8.69211
30
4.4
0
VERTEX
10
9.90945
20
8.72758
30
4.4
0
VERTEX
10
9.90723
20
8.74532
30
4.4
0
VERTEX
10
9.90058
20
8.75198
30
4.4
0
VERTEX
10
9.90058
20
8.76085
30
4.4
0
VERTEX
10
9.8784
20
8.79411
30
4.4
0
VERTEX
10
9.8651
20
8.81185
30
4.4
0
VERTEX
10
9.8651
20
8.81628
30
4.4
0
VERTEX
10
9.85179
20
8.83402
30
4.4
0
VERTEX
10
9.84958
20
8.84289
30
4.4
0
VERTEX
10
9.84292
20
8.85176
30
4.4
0
VERTEX
10
9.84071
20
8.86063
30
4.4
0
VERTEX
10
9.83405
20
8.8695
30
4.4
0
VERTEX
10
9.82519
20
8.87171
30
4.4
0
VERTEX
10
9.80745
20
8.88502
30
4.4
0
VERTEX
10
9.79858
20
8.88945
30
4.4
0
VERTEX
10
9.78305
20
8.90497
30
4.4
0
VERTEX
10
9.77419
20
8.91384
30
4.4
0
VERTEX
10
9.73871
20
8.93158
30
4.4
0
VERTEX
10
9.72984
20
8.9338
30
4.4
0
VERTEX
10
9.7254
20
8.9338
30
4.4
0
VERTEX
10
9.72097
20
8.93824
30
4.4
0
VERTEX
10
9.68549
20
8.94267
30
4.4
0
VERTEX
10
9.66775
20
8.9471
30
4.4
0
VERTEX
10
9.65888
20
8.9471
30
4.4
0
VERTEX
10
9.65001
20
8.95154
30
4.4
0
VERTEX
10
9.61453
20
8.95154
30
4.4
0
VERTEX
10
9.5968
20
8.95154
30
4.4
0
VERTEX
10
9.58793
20
8.95597
30
4.4
0
VERTEX
10
9.51697
20
8.96484
30
4.4
0
VERTEX
10
9.48149
20
8.96484
30
4.4
0
VERTEX
10
9.33958
20
8.97593
30
4.4
0
VERTEX
10
9.3041
20
8.97593
30
4.4
0
VERTEX
10
9.28636
20
8.97593
30
4.4
0
VERTEX
10
9.28415
20
8.97371
30
4.4
0
VERTEX
10
9.2908
20
8.96928
30
4.4
0
VERTEX
10
9.21984
20
8.95597
30
4.4
0
VERTEX
10
9.2021
20
8.94932
30
4.4
0
VERTEX
10
9.18436
20
8.9471
30
4.4
0
VERTEX
10
9.11341
20
8.92715
30
4.4
0
VERTEX
10
9.09567
20
8.9205
30
4.4
0
VERTEX
10
9.02471
20
8.91384
30
4.4
0
VERTEX
10
8.98924
20
8.90941
30
4.4
0
VERTEX
10
8.98037
20
8.90719
30
4.4
0
VERTEX
10
8.97593
20
8.90719
30
4.4
0
VERTEX
10
8.9715
20
8.90276
30
4.4
0
VERTEX
10
8.96263
20
8.90054
30
4.4
0
VERTEX
10
8.95376
20
8.89389
30
4.4
0
VERTEX
10
8.94489
20
8.89167
30
4.4
0
VERTEX
10
8.94045
20
8.89167
30
4.4
0
VERTEX
10
8.92271
20
8.88058
30
4.4
0
VERTEX
10
8.91828
20
8.88058
30
4.4
0
VERTEX
10
8.91384
20
8.87615
30
4.4
0
VERTEX
10
8.89611
20
8.87171
30
4.4
0
VERTEX
10
8.87837
20
8.86284
30
4.4
0
VERTEX
10
8.87393
20
8.86284
30
4.4
0
VERTEX
10
8.86063
20
8.84511
30
4.4
0
VERTEX
10
8.85176
20
8.84289
30
4.4
0
VERTEX
10
8.82293
20
8.81406
30
4.4
0
VERTEX
10
8.81628
20
8.80741
30
4.4
0
VERTEX
10
8.81185
20
8.80741
30
4.4
0
VERTEX
10
8.80298
20
8.79854
30
4.4
0
VERTEX
10
8.78745
20
8.78745
30
4.4
0
VERTEX
10
8.77858
20
8.78524
30
4.4
0
VERTEX
10
8.76971
20
8.77858
30
4.4
0
VERTEX
10
8.76528
20
8.77415
30
4.4
0
VERTEX
10
8.7298
20
8.76085
30
4.4
0
VERTEX
10
8.69432
20
8.75198
30
4.4
0
VERTEX
10
8.68545
20
8.74754
30
4.4
0
VERTEX
10
8.68102
20
8.74754
30
4.4
0
VERTEX
10
8.67659
20
8.74311
30
4.4
0
VERTEX
10
8.64111
20
8.72758
30
4.4
0
VERTEX
10
8.62559
20
8.71206
30
4.4
0
VERTEX
10
8.60785
20
8.70319
30
4.4
0
VERTEX
10
8.58124
20
8.67215
30
4.4
0
VERTEX
10
8.58124
20
8.66772
30
4.4
0
VERTEX
10
8.5635
20
8.65219
30
4.4
0
VERTEX
10
8.55906
20
8.64776
30
4.4
0
VERTEX
10
8.55241
20
8.63002
30
4.4
0
VERTEX
10
8.55019
20
8.62115
30
4.4
0
VERTEX
10
8.53911
20
8.60341
30
4.4
0
VERTEX
10
8.53689
20
8.59454
30
4.4
0
VERTEX
10
8.53689
20
8.59011
30
4.4
0
VERTEX
10
8.53246
20
8.58567
30
4.4
0
VERTEX
10
8.52359
20
8.55241
30
4.4
0
VERTEX
10
8.49476
20
8.48367
30
4.4
0
VERTEX
10
8.49254
20
8.4482
30
4.4
0
VERTEX
10
8.49254
20
8.43046
30
4.4
0
VERTEX
10
8.49254
20
8.42159
30
4.4
0
SEQEND
0
POLYLINE
62
31
66
1
70
1
3
contour
0
VERTEX
10
7.86153
20
7.72032
30
4.4
0
VERTEX
10
7.86968
20
7.6986
30
4.4
0
VERTEX
10
7.87782
20
7.69045
30
4.4
0
VERTEX
10
7.89412
20
7.647
30
4.4
0
VERTEX
10
7.90226
20
7.63614
30
4.4
0
VERTEX
10
7.90498
20
7.62528
30
4.4
0
VERTEX
10
7.9267
20
7.6117
30
4.4
0
VERTEX
10
7.93757
20
7.60355
30
4.4
0
VERTEX
10
7.98102
20
7.60627
30
4.4
0
VERTEX
10
8.00274
20
7.60627
30
4.4
0
VERTEX
10
8.0136
20
7.60627
30
4.4
0
VERTEX
10
8.01632
20
7.6117
30
4.4
0
VERTEX
10
8.02718
20
7.61442
30
4.4
0
VERTEX
10
8.0489
20
7.62799
30
4.4
0
VERTEX
10
8.05977
20
7.63614
30
4.4
0
VERTEX
10
8.07063
20
7.63886
30
4.4
0
VERTEX
10
8.08964
20
7.65786
30
4.4
0
VERTEX
10
8.08964
20
7.6633
30
4.4
0
VERTEX
10
8.1005
20
7.67144
30
4.4
0
VERTEX
10
8.11136
20
7.67416
30
4.4
0
VERTEX
10
8.11136
20
7.67959
30
4.4
0
VERTEX
10
8.11679
20
7.67959
30
4.4
0
VERTEX
10
8.12494
20
7.69045
30
4.4
0
VERTEX
10
8.12494
20
7.69588
30
4.4
0
VERTEX
10
8.13037
20
7.70131
30
4.4
0
VERTEX
10
8.12766
20
7.78821
30
4.4
0
VERTEX
10
8.11951
20
7.83166
30
4.4
0
VERTEX
10
8.11951
20
7.87511
30
4.4
0
VERTEX
10
8.11408
20
7.91856
30
4.4
0
VERTEX
10
8.09507
20
7.96201
30
4.4
0
VERTEX
10
8.08692
20
7.97015
30
4.4
0
VERTEX
10
8.08421
20
7.98102
30
4.4
0
VERTEX
10
8.06248
20
8.00002
30
4.4
0
VERTEX
10
8.04076
20
8.0136
30
4.4
0
VERTEX
10
8.01903
20
8.02175
30
4.4
0
VERTEX
10
7.99731
20
8.03533
30
4.4
0
VERTEX
10
7.99188
20
8.03533
30
4.4
0
VERTEX
10
7.98916
20
8.04076
30
4.4
0
VERTEX
10
7.96744
20
8.04619
30
4.4
0
VERTEX
10
7.95658
20
8.05434
30
4.4
0
VERTEX
10
7.93485
20
8.04347
30
4.4
0
VERTEX
10
7.92399
20
8.03804
30
4.4
0
VERTEX
10
7.9077
20
8.01632
30
4.4
0
VERTEX
10
7.89955
20
7.99459
30
4.4
0
VERTEX
10
7.88597
20
7.9077
30
4.4
0
VERTEX
10
7.88597
20
7.89683
30
4.4
0
VERTEX
10
7.87782
20
7.88597
30
4.4
0
VERTEX
10
7.87511
20
7.84252
30
4.4
0
VERTEX
10
7.86696
20
7.83166
30
4.4
0
VERTEX
10
7.86153
20
7.78821
30
4.4
0
VERTEX
10
7.86153
20
7.74476
30
4.4
0
VERTEX
10
7.86153
20
7.72304
30
4.4
0
SEQEND
0
POLYLINE
62
31
66
1
70
1
3
contour
0
VERTEX
10
9.63679
20
9.53029
30
4.4
0
VERTEX
10
9.64498
20
9.52619
30
4.4
0
VERTEX
10
9.66137
20
9.52824
30
4.4
0
VERTEX
10
9.66956
20
9.53029
30
4.4
0
VERTEX
10
9.67571
20
9.53848
30
4.4
0
VERTEX
10
9.6798
20
9.54257
30
4.4
0
VERTEX
10
9.6798
20
9.54667
30
4.4
0
VERTEX
10
9.70643
20
9.5733
30
4.4
0
VERTEX
10
9.71053
20
9.58149
30
4.4
0
VERTEX
10
9.72486
20
9.59378
30
4.4
0
VERTEX
10
9.72486
20
9.59788
30
4.4
0
VERTEX
10
9.73715
20
9.61426
30
4.4
0
VERTEX
10
9.74125
20
9.62245
30
4.4
0
VERTEX
10
9.74944
20
9.6286
30
4.4
0
VERTEX
10
9.74944
20
9.63679
30
4.4
0
VERTEX
10
9.76788
20
9.66752
30
4.4
0
VERTEX
10
9.79041
20
9.69619
30
4.4
0
VERTEX
10
9.81908
20
9.71667
30
4.4
0
VERTEX
10
9.83547
20
9.73306
30
4.4
0
VERTEX
10
9.83956
20
9.73715
30
4.4
0
VERTEX
10
9.84776
20
9.7392
30
4.4
0
VERTEX
10
9.86209
20
9.75559
30
4.4
0
VERTEX
10
9.87848
20
9.76583
30
4.4
0
VERTEX
10
9.88053
20
9.76993
30
4.4
0
VERTEX
10
9.88462
20
9.76993
30
4.4
0
VERTEX
10
9.90101
20
9.78221
30
4.4
0
VERTEX
10
9.90306
20
9.78631
30
4.4
0
VERTEX
10
9.91125
20
9.78836
30
4.4
0
VERTEX
10
9.9174
20
9.7945
30
4.4
0
VERTEX
10
9.91944
20
9.8027
30
4.4
0
VERTEX
10
9.94607
20
9.82932
30
4.4
0
VERTEX
10
9.95426
20
9.83137
30
4.4
0
VERTEX
10
9.9645
20
9.84571
30
4.4
0
VERTEX
10
9.97065
20
9.86005
30
4.4
0
VERTEX
10
9.99113
20
9.89077
30
4.4
0
VERTEX
10
9.99932
20
9.90715
30
4.4
0
VERTEX
10
10.0055
20
9.93993
30
4.4
0
VERTEX
10
10.0055
20
9.94402
30
4.4
0
VERTEX
10
10.0178
20
9.95631
30
4.4
0
VERTEX
10
10.0219
20
9.96246
30
4.4
0
VERTEX
10
10.0239
20
9.99523
30
4.4
0
VERTEX
10
10.026
20
10.0116
30
4.4
0
VERTEX
10
10.0198
20
10.0444
30
4.4
0
VERTEX
10
10.0178
20
10.0526
30
4.4
0
VERTEX
10
10.0178
20
10.0567
30
4.4
0
VERTEX
10
10.0034
20
10.071
30
4.4
0
VERTEX
10
9.99728
20
10.0792
30
4.4
0
VERTEX
10
9.99318
20
10.0792
30
4.4
0
VERTEX
10
9.98908
20
10.0833
30
4.4
0
VERTEX
10
9.98499
20
10.0833
30
4.4
0
VERTEX
10
9.97884
20
10.0894
30
4.4
0
VERTEX
10
9.97884
20
10.0935
30
4.4
0
VERTEX
10
9.97065
20
10.0976
30
4.4
0
VERTEX
10
9.96041
20
10.114
30
4.4
0
VERTEX
10
9.92764
20
10.1161
30
4.4
0
VERTEX
10
9.91125
20
10.114
30
4.4
0
VERTEX
10
9.89487
20
10.1038
30
4.4
0
VERTEX
10
9.87848
20
10.0976
30
4.4
0
VERTEX
10
9.87029
20
10.0935
30
4.4
0
VERTEX
10
9.86209
20
10.0853
30
4.4
0
VERTEX
10
9.8539
20
10.0833
30
4.4
0
VERTEX
10
9.84571
20
10.0751
30
4.4
0
VERTEX
10
9.81294
20
10.0567
30
4.4
0
VERTEX
10
9.80679
20
10.0505
30
4.4
0
VERTEX
10
9.80065
20
10.0341
30
4.4
0
VERTEX
10
9.7986
20
10.026
30
4.4
0
VERTEX
10
9.7945
20
10.0219
30
4.4
0
VERTEX
10
9.7945
20
10.0178
30
4.4
0
VERTEX
10
9.77197
20
9.98908
30
4.4
0
VERTEX
10
9.76583
20
9.98499
30
4.4
0
VERTEX
10
9.75559
20
9.9686
30
4.4
0
VERTEX
10
9.74125
20
9.93583
30
4.4
0
VERTEX
10
9.72282
20
9.90306
30
4.4
0
VERTEX
10
9.71872
20
9.89487
30
4.4
0
VERTEX
10
9.71872
20
9.87848
30
4.4
0
VERTEX
10
9.71667
20
9.87029
30
4.4
0
VERTEX
10
9.71872
20
9.86209
30
4.4
0
VERTEX
10
9.71053
20
9.82932
30
4.4
0
VERTEX
10
9.69619
20
9.79655
30
4.4
0
VERTEX
10
9.69005
20
9.78017
30
4.4
0
VERTEX
10
9.68595
20
9.74739
30
4.4
0
VERTEX
10
9.68185
20
9.73101
30
4.4
0
VERTEX
10
9.68185
20
9.72282
30
4.4
0
VERTEX
10
9.67776
20
9.71872
30
4.4
0
VERTEX
10
9.67366
20
9.68595
30
4.4
0
VERTEX
10
9.67366
20
9.66956
30
4.4
0
VERTEX
10
9.66956
20
9.65318
30
4.4
0
VERTEX
10
9.66547
20
9.64498
30
4.4
0
VERTEX
10
9.66137
20
9.64294
30
4.4
0
VERTEX
10
9.66137
20
9.63884
30
4.4
0
VERTEX
10
9.65727
20
9.63474
30
4.4
0
VERTEX
10
9.65727
20
9.63065
30
4.4
0
VERTEX
10
9.64498
20
9.61426
30
4.4
0
VERTEX
10
9.63884
20
9.59788
30
4.4
0
VERTEX
10
9.63679
20
9.53233
30
4.4
0
SEQEND
0
POLYLINE
62
224
66
1
70
1
3
mitochondrion
0
VERTEX
10
9.44102
20
8.65821
30
4.4
0
VERTEX
10
9.44241
20
8.63596
30
4.4
0
VERTEX
10
9.44658
20
8.62484
30
4.4
0
VERTEX
10
9.44936
20
8.61928
30
4.4
0
VERTEX
10
9.44936
20
8.61371
30
4.4
0
VERTEX
10
9.45631
20
8.59147
30
4.4
0
VERTEX
10
9.46049
20
8.58034
30
4.4
0
VERTEX
10
9.46188
20
8.57478
30
4.4
0
VERTEX
10
9.46605
20
8.57061
30
4.4
0
VERTEX
10
9.48134
20
8.52612
30
4.4
0
VERTEX
10
9.49942
20
8.50804
30
4.4
0
VERTEX
10
9.5022
20
8.50526
30
4.4
0
VERTEX
10
9.50776
20
8.50387
30
4.4
0
VERTEX
10
9.51332
20
8.4997
30
4.4
0
VERTEX
10
9.52027
20
8.48857
30
4.4
0
VERTEX
10
9.53974
20
8.47467
30
4.4
0
VERTEX
10
9.5606
20
8.4552
30
4.4
0
VERTEX
10
9.57172
20
8.44964
30
4.4
0
VERTEX
10
9.57728
20
8.44547
30
4.4
0
VERTEX
10
9.5884
20
8.44408
30
4.4
0
VERTEX
10
9.59397
20
8.43991
30
4.4
0
VERTEX
10
9.60509
20
8.43852
30
4.4
0
VERTEX
10
9.60648
20
8.43574
30
4.4
0
VERTEX
10
9.62873
20
8.43157
30
4.4
0
VERTEX
10
9.65097
20
8.43018
30
4.4
0
VERTEX
10
9.67322
20
8.43157
30
4.4
0
VERTEX
10
9.676
20
8.43435
30
4.4
0
VERTEX
10
9.69825
20
8.44269
30
4.4
0
VERTEX
10
9.69964
20
8.44547
30
4.4
0
VERTEX
10
9.70242
20
8.44547
30
4.4
0
VERTEX
10
9.7052
20
8.44825
30
4.4
0
VERTEX
10
9.70798
20
8.44825
30
4.4
0
VERTEX
10
9.71911
20
8.4552
30
4.4
0
VERTEX
10
9.72189
20
8.45799
30
4.4
0
VERTEX
10
9.72467
20
8.45799
30
4.4
0
VERTEX
10
9.72745
20
8.46077
30
4.4
0
VERTEX
10
9.73023
20
8.46077
30
4.4
0
VERTEX
10
9.74969
20
8.47884
30
4.4
0
VERTEX
10
9.76221
20
8.4997
30
4.4
0
VERTEX
10
9.76499
20
8.50526
30
4.4
0
VERTEX
10
9.76777
20
8.50665
30
4.4
0
VERTEX
10
9.76777
20
8.50943
30
4.4
0
VERTEX
10
9.77194
20
8.51499
30
4.4
0
VERTEX
10
9.77333
20
8.52055
30
4.4
0
VERTEX
10
9.7775
20
8.52473
30
4.4
0
VERTEX
10
9.78028
20
8.53585
30
4.4
0
VERTEX
10
9.78863
20
8.54697
30
4.4
0
VERTEX
10
9.79002
20
8.5581
30
4.4
0
VERTEX
10
9.79419
20
8.56366
30
4.4
0
VERTEX
10
9.79836
20
8.57478
30
4.4
0
VERTEX
10
9.80114
20
8.59703
30
4.4
0
VERTEX
10
9.79975
20
8.64152
30
4.4
0
VERTEX
10
9.79558
20
8.66377
30
4.4
0
VERTEX
10
9.79419
20
8.67489
30
4.4
0
VERTEX
10
9.78863
20
8.68602
30
4.4
0
VERTEX
10
9.78167
20
8.70826
30
4.4
0
VERTEX
10
9.7775
20
8.71939
30
4.4
0
VERTEX
10
9.77055
20
8.72912
30
4.4
0
VERTEX
10
9.76777
20
8.7319
30
4.4
0
VERTEX
10
9.76777
20
8.73746
30
4.4
0
VERTEX
10
9.7636
20
8.74858
30
4.4
0
VERTEX
10
9.76221
20
8.75415
30
4.4
0
VERTEX
10
9.75387
20
8.76388
30
4.4
0
VERTEX
10
9.75248
20
8.76944
30
4.4
0
VERTEX
10
9.73162
20
8.78474
30
4.4
0
VERTEX
10
9.72189
20
8.79447
30
4.4
0
VERTEX
10
9.71911
20
8.79447
30
4.4
0
VERTEX
10
9.70937
20
8.8042
30
4.4
0
VERTEX
10
9.68852
20
8.81811
30
4.4
0
VERTEX
10
9.66905
20
8.83896
30
4.4
0
VERTEX
10
9.66349
20
8.84035
30
4.4
0
VERTEX
10
9.65236
20
8.84731
30
4.4
0
VERTEX
10
9.6468
20
8.85148
30
4.4
0
VERTEX
10
9.64402
20
8.85287
30
4.4
0
VERTEX
10
9.64402
20
8.85565
30
4.4
0
VERTEX
10
9.6329
20
8.85982
30
4.4
0
VERTEX
10
9.62734
20
8.8626
30
4.4
0
VERTEX
10
9.61621
20
8.8626
30
4.4
0
VERTEX
10
9.60509
20
8.86538
30
4.4
0
VERTEX
10
9.59953
20
8.86538
30
4.4
0
VERTEX
10
9.5884
20
8.87094
30
4.4
0
VERTEX
10
9.58562
20
8.87094
30
4.4
0
VERTEX
10
9.58145
20
8.8765
30
4.4
0
VERTEX
10
9.57589
20
8.87929
30
4.4
0
VERTEX
10
9.55364
20
8.87929
30
4.4
0
VERTEX
10
9.54252
20
8.87789
30
4.4
0
VERTEX
10
9.5314
20
8.87233
30
4.4
0
VERTEX
10
9.5314
20
8.86955
30
4.4
0
VERTEX
10
9.52723
20
8.86538
30
4.4
0
VERTEX
10
9.52444
20
8.86538
30
4.4
0
VERTEX
10
9.51888
20
8.86121
30
4.4
0
VERTEX
10
9.5161
20
8.86121
30
4.4
0
VERTEX
10
9.49803
20
8.84313
30
4.4
0
VERTEX
10
9.48829
20
8.83479
30
4.4
0
VERTEX
10
9.4869
20
8.82923
30
4.4
0
VERTEX
10
9.48273
20
8.82367
30
4.4
0
VERTEX
10
9.47995
20
8.81254
30
4.4
0
VERTEX
10
9.47717
20
8.80976
30
4.4
0
VERTEX
10
9.47578
20
8.8042
30
4.4
0
VERTEX
10
9.47161
20
8.80003
30
4.4
0
VERTEX
10
9.46883
20
8.78891
30
4.4
0
VERTEX
10
9.46466
20
8.78474
30
4.4
0
VERTEX
10
9.46049
20
8.77361
30
4.4
0
VERTEX
10
9.45909
20
8.76805
30
4.4
0
VERTEX
10
9.45492
20
8.76249
30
4.4
0
VERTEX
10
9.44102
20
8.718
30
4.4
0
VERTEX
10
9.44102
20
8.6735
30
4.4
0
VERTEX
10
9.44102
20
8.66238
30
4.4
0
VERTEX
10
9.44102
20
8.6596
30
4.4
0
SEQEND
0
POLYLINE
62
236
66
1
70
1
3
postsynaptic_density
0
VERTEX
10
9.93021
20
10.115
30
4.4
0
VERTEX
10
9.93954
20
10.087
30
4.4
0
VERTEX
10
9.94701
20
10.072
30
4.4
0
VERTEX
10
9.94514
20
10.0646
30
4.4
0
VERTEX
10
9.95821
20
10.0552
30
4.4
0
VERTEX
10
9.9638
20
10.0478
30
4.4
0
VERTEX
10
9.96754
20
10.0478
30
4.4
0
VERTEX
10
9.975
20
10.0422
30
4.4
0
VERTEX
10
9.97873
20
10.0385
30
4.4
0
VERTEX
10
9.99366
20
10.0329
30
4.4
0
VERTEX
10
10.0086
20
10.031
30
4.4
0
VERTEX
10
10.0235
20
10.0329
30
4.4
0
VERTEX
10
10.031
20
10.0329
30
4.4
0
VERTEX
10
10.0459
20
10.0422
30
4.4
0
VERTEX
10
10.0497
20
10.0571
30
4.4
0
VERTEX
10
10.0534
20
10.0646
30
4.4
0
VERTEX
10
10.0497
20
10.0795
30
4.4
0
VERTEX
10
10.0497
20
10.0944
30
4.4
0
VERTEX
10
10.0235
20
10.1243
30
4.4
0
VERTEX
10
10.0105
20
10.1392
30
4.4
0
VERTEX
10
10.0049
20
10.1467
30
4.4
0
VERTEX
10
10.0011
20
10.1504
30
4.4
0
VERTEX
10
9.97127
20
10.1504
30
4.4
0
VERTEX
10
9.95634
20
10.1486
30
4.4
0
VERTEX
10
9.95261
20
10.1486
30
4.4
0
VERTEX
10
9.93768
20
10.1336
30
4.4
0
VERTEX
10
9.93021
20
10.128
30
4.4
0
VERTEX
10
9.93021
20
10.1206
30
4.4
0
VERTEX
10
9.93021
20
10.1168
30
4.4
0
SEQEND
0
POLYLINE
62
227
66
1
70
1
3
endoplasmic_reticulum
0
VERTEX
10
9.19427
20
8.49956
30
4.4
0
VERTEX
10
9.19579
20
8.49347
30
4.4
0
VERTEX
10
9.19884
20
8.49042
30
4.4
0
VERTEX
10
9.20341
20
8.47823
30
4.4
0
VERTEX
10
9.21255
20
8.46757
30
4.4
0
VERTEX
10
9.21712
20
8.463
30
4.4
0
VERTEX
10
9.2415
20
8.463
30
4.4
0
VERTEX
10
9.25369
20
8.46452
30
4.4
0
VERTEX
10
9.27806
20
8.47671
30
4.4
0
VERTEX
10
9.29025
20
8.48585
30
4.4
0
VERTEX
10
9.29635
20
8.49194
30
4.4
0
VERTEX
10
9.29635
20
8.49804
30
4.4
0
VERTEX
10
9.2933
20
8.50108
30
4.4
0
VERTEX
10
9.2933
20
8.50413
30
4.4
0
VERTEX
10
9.27654
20
8.52851
30
4.4
0
VERTEX
10
9.2674
20
8.53917
30
4.4
0
VERTEX
10
9.25673
20
8.54679
30
4.4
0
VERTEX
10
9.25521
20
8.54983
30
4.4
0
VERTEX
10
9.24302
20
8.5544
30
4.4
0
VERTEX
10
9.21865
20
8.55288
30
4.4
0
VERTEX
10
9.21255
20
8.55136
30
4.4
0
VERTEX
10
9.20037
20
8.54222
30
4.4
0
VERTEX
10
9.20037
20
8.53917
30
4.4
0
VERTEX
10
9.19579
20
8.53308
30
4.4
0
VERTEX
10
9.19427
20
8.5087
30
4.4
0
VERTEX
10
9.19427
20
8.50261
30
4.4
0
VERTEX
10
9.19427
20
8.50108
30
4.4
0
SEQEND
0
POLYLINE
62
227
66
1
70
1
3
endoplasmic_reticulum
0
VERTEX
10
9.14095
20
8.59402
30
4.4
0
VERTEX
10
9.144
20
8.59249
30
4.4
0
VERTEX
10
9.15618
20
8.59554
30
4.4
0
VERTEX
10
9.16228
20
8.59554
30
4.4
0
VERTEX
10
9.16532
20
8.59554
30
4.4
0
VERTEX
10
9.16837
20
8.59859
30
4.4
0
VERTEX
10
9.18056
20
8.60163
30
4.4
0
VERTEX
10
9.18361
20
8.60468
30
4.4
0
VERTEX
10
9.1897
20
8.6062
30
4.4
0
VERTEX
10
9.20037
20
8.63058
30
4.4
0
VERTEX
10
9.21712
20
8.65496
30
4.4
0
VERTEX
10
9.22322
20
8.66105
30
4.4
0
VERTEX
10
9.24607
20
8.67628
30
4.4
0
VERTEX
10
9.25064
20
8.68085
30
4.4
0
VERTEX
10
9.25673
20
8.68085
30
4.4
0
VERTEX
10
9.2613
20
8.68543
30
4.4
0
VERTEX
10
9.26588
20
8.68695
30
4.4
0
VERTEX
10
9.27806
20
8.69761
30
4.4
0
VERTEX
10
9.28416
20
8.69914
30
4.4
0
VERTEX
10
9.2872
20
8.69914
30
4.4
0
VERTEX
10
9.29787
20
8.7098
30
4.4
0
VERTEX
10
9.30244
20
8.71437
30
4.4
0
VERTEX
10
9.30396
20
8.72656
30
4.4
0
VERTEX
10
9.29939
20
8.73722
30
4.4
0
VERTEX
10
9.2872
20
8.74027
30
4.4
0
VERTEX
10
9.26283
20
8.73113
30
4.4
0
VERTEX
10
9.25978
20
8.72808
30
4.4
0
VERTEX
10
9.24759
20
8.72656
30
4.4
0
VERTEX
10
9.2415
20
8.72504
30
4.4
0
VERTEX
10
9.23693
20
8.72047
30
4.4
0
VERTEX
10
9.23083
20
8.71894
30
4.4
0
VERTEX
10
9.22931
20
8.71285
30
4.4
0
VERTEX
10
9.22017
20
8.70218
30
4.4
0
VERTEX
10
9.21255
20
8.67933
30
4.4
0
VERTEX
10
9.20341
20
8.67019
30
4.4
0
VERTEX
10
9.20037
20
8.66714
30
4.4
0
VERTEX
10
9.18818
20
8.66562
30
4.4
0
VERTEX
10
9.17599
20
8.66105
30
4.4
0
VERTEX
10
9.17599
20
8.658
30
4.4
0
VERTEX
10
9.17294
20
8.65496
30
4.4
0
VERTEX
10
9.16685
20
8.65343
30
4.4
0
VERTEX
10
9.15923
20
8.64277
30
4.4
0
VERTEX
10
9.15771
20
8.63667
30
4.4
0
VERTEX
10
9.15009
20
8.62449
30
4.4
0
VERTEX
10
9.14857
20
8.61839
30
4.4
0
VERTEX
10
9.14552
20
8.61534
30
4.4
0
VERTEX
10
9.14247
20
8.60316
30
4.4
0
VERTEX
10
9.14247
20
8.59706
30
4.4
0
VERTEX
10
9.14247
20
8.59554
30
4.4
0
SEQEND
0
POLYLINE
62
227
66
1
70
1
3
endoplasmic_reticulum
0
VERTEX
10
9.22322
20
8.59706
30
4.4
0
VERTEX
10
9.22626
20
8.59402
30
4.4
0
VERTEX
10
9.23845
20
8.60011
30
4.4
0
VERTEX
10
9.25064
20
8.60011
30
4.4
0
VERTEX
10
9.25673
20
8.60163
30
4.4
0
VERTEX
10
9.25978
20
8.60468
30
4.4
0
VERTEX
10
9.28416
20
8.6123
30
4.4
0
VERTEX
10
9.28873
20
8.61687
30
4.4
0
VERTEX
10
9.29482
20
8.61839
30
4.4
0
VERTEX
10
9.30549
20
8.62753
30
4.4
0
VERTEX
10
9.30853
20
8.63972
30
4.4
0
VERTEX
10
9.31158
20
8.64581
30
4.4
0
VERTEX
10
9.32072
20
8.65343
30
4.4
0
VERTEX
10
9.32072
20
8.65648
30
4.4
0
VERTEX
10
9.32529
20
8.66257
30
4.4
0
VERTEX
10
9.32681
20
8.67476
30
4.4
0
VERTEX
10
9.32529
20
8.68695
30
4.4
0
VERTEX
10
9.32529
20
8.69
30
4.4
0
VERTEX
10
9.3192
20
8.69152
30
4.4
0
VERTEX
10
9.30701
20
8.68695
30
4.4
0
VERTEX
10
9.29635
20
8.67933
30
4.4
0
VERTEX
10
9.2933
20
8.67933
30
4.4
0
VERTEX
10
9.28263
20
8.66867
30
4.4
0
VERTEX
10
9.27959
20
8.66714
30
4.4
0
VERTEX
10
9.27959
20
8.6641
30
4.4
0
VERTEX
10
9.25826
20
8.64581
30
4.4
0
VERTEX
10
9.25064
20
8.63515
30
4.4
0
VERTEX
10
9.23998
20
8.62601
30
4.4
0
VERTEX
10
9.23236
20
8.61687
30
4.4
0
VERTEX
10
9.22322
20
8.60468
30
4.4
0
VERTEX
10
9.22322
20
8.59859
30
4.4
0
SEQEND
0
POLYLINE
62
227
66
1
70
1
3
endoplasmic_reticulum
0
VERTEX
10
9.07239
20
8.5087
30
4.4
0
VERTEX
10
9.07392
20
8.48432
30
4.4
0
VERTEX
10
9.07392
20
8.47823
30
4.4
0
VERTEX
10
9.07849
20
8.47214
30
4.4
0
VERTEX
10
9.08153
20
8.47214
30
4.4
0
VERTEX
10
9.09067
20
8.463
30
4.4
0
VERTEX
10
9.10286
20
8.463
30
4.4
0
VERTEX
10
9.10896
20
8.46147
30
4.4
0
VERTEX
10
9.11505
20
8.46604
30
4.4
0
VERTEX
10
9.11962
20
8.47366
30
4.4
0
VERTEX
10
9.12267
20
8.47823
30
4.4
0
VERTEX
10
9.12876
20
8.4828
30
4.4
0
VERTEX
10
9.13181
20
8.48889
30
4.4
0
VERTEX
10
9.13181
20
8.50108
30
4.4
0
VERTEX
10
9.13181
20
8.50718
30
4.4
0
VERTEX
10
9.12876
20
8.5087
30
4.4
0
VERTEX
10
9.1181
20
8.53155
30
4.4
0
VERTEX
10
9.10591
20
8.53612
30
4.4
0
VERTEX
10
9.09372
20
8.53612
30
4.4
0
VERTEX
10
9.08153
20
8.52851
30
4.4
0
VERTEX
10
9.07544
20
8.52851
30
4.4
0
VERTEX
10
9.07239
20
8.52546
30
4.4
0
VERTEX
10
9.07239
20
8.51327
30
4.4
0
VERTEX
10
9.07239
20
8.51022
30
4.4
0
SEQEND
0
POLYLINE
62
227
66
1
70
1
3
endoplasmic_reticulum
0
VERTEX
10
8.9368
20
8.79207
30
4.4
0
VERTEX
10
8.94442
20
8.7814
30
4.4
0
VERTEX
10
8.95356
20
8.77379
30
4.4
0
VERTEX
10
8.95965
20
8.77226
30
4.4
0
VERTEX
10
8.9627
20
8.76922
30
4.4
0
VERTEX
10
8.96575
20
8.76922
30
4.4
0
VERTEX
10
8.96879
20
8.76617
30
4.4
0
VERTEX
10
8.99317
20
8.76922
30
4.4
0
VERTEX
10
9.00536
20
8.77074
30
4.4
0
VERTEX
10
9.01145
20
8.77074
30
4.4
0
VERTEX
10
9.01755
20
8.77531
30
4.4
0
VERTEX
10
9.02364
20
8.77531
30
4.4
0
VERTEX
10
9.02669
20
8.77836
30
4.4
0
VERTEX
10
9.02669
20
8.7814
30
4.4
0
VERTEX
10
9.03735
20
8.78902
30
4.4
0
VERTEX
10
9.04649
20
8.80121
30
4.4
0
VERTEX
10
9.04497
20
8.82559
30
4.4
0
VERTEX
10
9.02212
20
8.8393
30
4.4
0
VERTEX
10
9.01755
20
8.83777
30
4.4
0
VERTEX
10
9.01907
20
8.83625
30
4.4
0
VERTEX
10
9.01602
20
8.8332
30
4.4
0
VERTEX
10
9.01602
20
8.83016
30
4.4
0
VERTEX
10
9.01298
20
8.83016
30
4.4
0
VERTEX
10
9.00841
20
8.82406
30
4.4
0
VERTEX
10
8.99622
20
8.81949
30
4.4
0
VERTEX
10
8.99622
20
8.8134
30
4.4
0
VERTEX
10
8.99469
20
8.81187
30
4.4
0
VERTEX
10
8.98251
20
8.81797
30
4.4
0
VERTEX
10
8.97641
20
8.81949
30
4.4
0
VERTEX
10
8.97336
20
8.82254
30
4.4
0
VERTEX
10
8.96118
20
8.82559
30
4.4
0
VERTEX
10
8.95508
20
8.82711
30
4.4
0
VERTEX
10
8.9429
20
8.82406
30
4.4
0
VERTEX
10
8.94137
20
8.81797
30
4.4
0
VERTEX
10
8.9368
20
8.81187
30
4.4
0
VERTEX
10
8.9368
20
8.79969
30
4.4
0
VERTEX
10
8.9368
20
8.79359
30
4.4
0
SEQEND
0
POLYLINE
62
227
66
1
70
1
3
endoplasmic_reticulum
0
VERTEX
10
8.56355
20
8.42948
30
4.4
0
VERTEX
10
8.56659
20
8.42338
30
4.4
0
VERTEX
10
8.59097
20
8.42034
30
4.4
0
VERTEX
10
8.61534
20
8.42186
30
4.4
0
VERTEX
10
8.62753
20
8.42186
30
4.4
0
VERTEX
10
8.63972
20
8.42491
30
4.4
0
VERTEX
10
8.65191
20
8.431
30
4.4
0
VERTEX
10
8.66257
20
8.44014
30
4.4
0
VERTEX
10
8.66867
20
8.44319
30
4.4
0
VERTEX
10
8.67019
20
8.44928
30
4.4
0
VERTEX
10
8.67628
20
8.45538
30
4.4
0
VERTEX
10
8.68085
20
8.46757
30
4.4
0
VERTEX
10
8.68085
20
8.49194
30
4.4
0
VERTEX
10
8.6839
20
8.50413
30
4.4
0
VERTEX
10
8.68695
20
8.51022
30
4.4
0
VERTEX
10
8.69152
20
8.51327
30
4.4
0
VERTEX
10
8.69914
20
8.52393
30
4.4
0
VERTEX
10
8.7098
20
8.5346
30
4.4
0
VERTEX
10
8.71285
20
8.54069
30
4.4
0
VERTEX
10
8.71894
20
8.54374
30
4.4
0
VERTEX
10
8.71894
20
8.54679
30
4.4
0
VERTEX
10
8.73113
20
8.55898
30
4.4
0
VERTEX
10
8.74027
20
8.56964
30
4.4
0
VERTEX
10
8.74484
20
8.57573
30
4.4
0
VERTEX
10
8.74636
20
8.58792
30
4.4
0
VERTEX
10
8.74332
20
8.6123
30
4.4
0
VERTEX
10
8.74179
20
8.62449
30
4.4
0
VERTEX
10
8.74027
20
8.62753
30
4.4
0
VERTEX
10
8.73722
20
8.62753
30
4.4
0
VERTEX
10
8.73265
20
8.6321
30
4.4
0
VERTEX
10
8.72047
20
8.63363
30
4.4
0
VERTEX
10
8.71437
20
8.63363
30
4.4
0
VERTEX
10
8.70828
20
8.63058
30
4.4
0
VERTEX
10
8.69761
20
8.61991
30
4.4
0
VERTEX
10
8.68695
20
8.59706
30
4.4
0
VERTEX
10
8.68238
20
8.58487
30
4.4
0
VERTEX
10
8.68085
20
8.57878
30
4.4
0
VERTEX
10
8.67628
20
8.57421
30
4.4
0
VERTEX
10
8.67019
20
8.57269
30
4.4
0
VERTEX
10
8.66562
20
8.56812
30
4.4
0
VERTEX
10
8.6641
20
8.56202
30
4.4
0
VERTEX
10
8.658
20
8.55745
30
4.4
0
VERTEX
10
8.65191
20
8.55593
30
4.4
0
VERTEX
10
8.62906
20
8.54069
30
4.4
0
VERTEX
10
8.61839
20
8.53308
30
4.4
0
VERTEX
10
8.6062
20
8.53003
30
4.4
0
VERTEX
10
8.60011
20
8.52851
30
4.4
0
VERTEX
10
8.59706
20
8.52241
30
4.4
0
VERTEX
10
8.59554
20
8.51022
30
4.4
0
VERTEX
10
8.5864
20
8.48585
30
4.4
0
VERTEX
10
8.57726
20
8.47518
30
4.4
0
VERTEX
10
8.57421
20
8.47214
30
4.4
0
VERTEX
10
8.57421
20
8.46909
30
4.4
0
VERTEX
10
8.56964
20
8.46147
30
4.4
0
VERTEX
10
8.56355
20
8.4569
30
4.4
0
VERTEX
10
8.56355
20
8.43253
30
4.4
0
VERTEX
10
8.56355
20
8.431
30
4.4
0
SEQEND
0
POLYLINE
62
227
66
1
70
1
3
endoplasmic_reticulum
0
VERTEX
10
7.94493
20
7.87296
30
4.4
0
VERTEX
10
7.95422
20
7.86599
30
4.4
0
VERTEX
10
7.95886
20
7.85671
30
4.4
0
VERTEX
10
7.96118
20
7.85206
30
4.4
0
VERTEX
10
7.97976
20
7.85206
30
4.4
0
VERTEX
10
8.0169
20
7.86367
30
4.4
0
VERTEX
10
8.02619
20
7.86831
30
4.4
0
VERTEX
10
8.02851
20
7.88689
30
4.4
0
VERTEX
10
8.02619
20
7.90546
30
4.4
0
VERTEX
10
8.01226
20
7.91939
30
4.4
0
VERTEX
10
7.99601
20
7.92636
30
4.4
0
VERTEX
10
7.97743
20
7.92636
30
4.4
0
VERTEX
10
7.97511
20
7.91707
30
4.4
0
VERTEX
10
7.96815
20
7.91243
30
4.4
0
VERTEX
10
7.95886
20
7.91243
30
4.4
0
VERTEX
10
7.94957
20
7.89385
30
4.4
0
VERTEX
10
7.94493
20
7.87528
30
4.4
0
SEQEND
0
ENDSEC
0
EOF
