0
SECTION
2
ENTITIES
0
POLYLINE
62
31
66
1
70
1
3
contour
0
VERTEX
10
9.54136
20
8.28189
30
3.84
0
VERTEX
10
9.54801
20
8.26415
30
3.84
0
VERTEX
10
9.56132
20
8.24863
30
3.84
0
VERTEX
10
9.56353
20
8.23976
30
3.84
0
VERTEX
10
9.58793
20
8.20872
30
3.84
0
VERTEX
10
9.62119
20
8.18211
30
3.84
0
VERTEX
10
9.63671
20
8.16881
30
3.84
0
VERTEX
10
9.65445
20
8.15994
30
3.84
0
VERTEX
10
9.66332
20
8.1555
30
3.84
0
VERTEX
10
9.66775
20
8.1555
30
3.84
0
VERTEX
10
9.68327
20
8.14442
30
3.84
0
VERTEX
10
9.71875
20
8.13111
30
3.84
0
VERTEX
10
9.72762
20
8.12889
30
3.84
0
VERTEX
10
9.73206
20
8.12446
30
3.84
0
VERTEX
10
9.76753
20
8.11337
30
3.84
0
VERTEX
10
9.78527
20
8.10229
30
3.84
0
VERTEX
10
9.80301
20
8.10007
30
3.84
0
VERTEX
10
9.82075
20
8.09342
30
3.84
0
VERTEX
10
9.82962
20
8.08898
30
3.84
0
VERTEX
10
9.8651
20
8.08898
30
3.84
0
VERTEX
10
9.90058
20
8.08455
30
3.84
0
VERTEX
10
9.91831
20
8.08233
30
3.84
0
VERTEX
10
9.95379
20
8.07124
30
3.84
0
VERTEX
10
9.97153
20
8.06681
30
3.84
0
VERTEX
10
9.98705
20
8.05572
30
3.84
0
VERTEX
10
9.99149
20
8.04685
30
3.84
0
VERTEX
10
10.0247
20
8.03133
30
3.84
0
VERTEX
10
10.0425
20
8.02911
30
3.84
0
VERTEX
10
10.0514
20
8.02689
30
3.84
0
VERTEX
10
10.0558
20
8.02246
30
3.84
0
VERTEX
10
10.0735
20
8.01803
30
3.84
0
VERTEX
10
10.109
20
8.02024
30
3.84
0
VERTEX
10
10.1179
20
8.02246
30
3.84
0
VERTEX
10
10.1223
20
8.02246
30
3.84
0
VERTEX
10
10.1401
20
8.03798
30
3.84
0
VERTEX
10
10.1511
20
8.05572
30
3.84
0
VERTEX
10
10.1511
20
8.06016
30
3.84
0
VERTEX
10
10.1888
20
8.12668
30
3.84
0
VERTEX
10
10.1955
20
8.13333
30
3.84
0
VERTEX
10
10.1977
20
8.1422
30
3.84
0
VERTEX
10
10.2021
20
8.14442
30
3.84
0
VERTEX
10
10.2154
20
8.17768
30
3.84
0
VERTEX
10
10.2243
20
8.21315
30
3.84
0
VERTEX
10
10.2221
20
8.28411
30
3.84
0
VERTEX
10
10.2221
20
8.30185
30
3.84
0
VERTEX
10
10.2199
20
8.31072
30
3.84
0
VERTEX
10
10.2132
20
8.31959
30
3.84
0
VERTEX
10
10.211
20
8.32846
30
3.84
0
VERTEX
10
10.211
20
8.33289
30
3.84
0
VERTEX
10
10.2044
20
8.34176
30
3.84
0
VERTEX
10
10.1999
20
8.3595
30
3.84
0
VERTEX
10
10.1999
20
8.36394
30
3.84
0
VERTEX
10
10.1955
20
8.36615
30
3.84
0
VERTEX
10
10.1933
20
8.37502
30
3.84
0
VERTEX
10
10.1667
20
8.4105
30
3.84
0
VERTEX
10
10.1511
20
8.42159
30
3.84
0
VERTEX
10
10.1467
20
8.42824
30
3.84
0
VERTEX
10
10.129
20
8.43933
30
3.84
0
VERTEX
10
10.0957
20
8.47259
30
3.84
0
VERTEX
10
10.0802
20
8.49033
30
3.84
0
VERTEX
10
10.0469
20
8.51472
30
3.84
0
VERTEX
10
10.0159
20
8.54576
30
3.84
0
VERTEX
10
10.007
20
8.55241
30
3.84
0
VERTEX
10
10.0026
20
8.55241
30
3.84
0
VERTEX
10
9.96931
20
8.57459
30
3.84
0
VERTEX
10
9.95158
20
8.58346
30
3.84
0
VERTEX
10
9.88062
20
8.59011
30
3.84
0
VERTEX
10
9.84514
20
8.59011
30
3.84
0
VERTEX
10
9.84071
20
8.59011
30
3.84
0
VERTEX
10
9.83627
20
8.58567
30
3.84
0
VERTEX
10
9.81853
20
8.58346
30
3.84
0
VERTEX
10
9.80079
20
8.5768
30
3.84
0
VERTEX
10
9.79192
20
8.5768
30
3.84
0
VERTEX
10
9.78971
20
8.58567
30
3.84
0
VERTEX
10
9.78749
20
8.59011
30
3.84
0
VERTEX
10
9.75201
20
8.58346
30
3.84
0
VERTEX
10
9.74314
20
8.58124
30
3.84
0
VERTEX
10
9.72762
20
8.57015
30
3.84
0
VERTEX
10
9.70988
20
8.5635
30
3.84
0
VERTEX
10
9.69214
20
8.56128
30
3.84
0
VERTEX
10
9.6744
20
8.55463
30
3.84
0
VERTEX
10
9.66997
20
8.55019
30
3.84
0
VERTEX
10
9.63449
20
8.53689
30
3.84
0
VERTEX
10
9.61675
20
8.5258
30
3.84
0
VERTEX
10
9.58571
20
8.49254
30
3.84
0
VERTEX
10
9.57906
20
8.48367
30
3.84
0
VERTEX
10
9.55023
20
8.41272
30
3.84
0
VERTEX
10
9.54801
20
8.40385
30
3.84
0
VERTEX
10
9.54801
20
8.39941
30
3.84
0
VERTEX
10
9.54136
20
8.39054
30
3.84
0
VERTEX
10
9.54136
20
8.31959
30
3.84
0
VERTEX
10
9.54136
20
8.28411
30
3.84
0
SEQEND
0
POLYLINE
62
31
66
1
70
1
3
contour
0
VERTEX
10
7.73662
20
8.76581
30
3.84
0
VERTEX
10
7.74205
20
8.74409
30
3.84
0
VERTEX
10
7.75291
20
8.72236
30
3.84
0
VERTEX
10
7.78821
20
8.68978
30
3.84
0
VERTEX
10
7.80994
20
8.6762
30
3.84
0
VERTEX
10
7.8208
20
8.67348
30
3.84
0
VERTEX
10
7.82623
20
8.67348
30
3.84
0
VERTEX
10
7.86696
20
8.6409
30
3.84
0
VERTEX
10
7.88869
20
8.63546
30
3.84
0
VERTEX
10
7.91041
20
8.63546
30
3.84
0
VERTEX
10
7.93214
20
8.64361
30
3.84
0
VERTEX
10
7.94028
20
8.65176
30
3.84
0
VERTEX
10
7.96201
20
8.6599
30
3.84
0
VERTEX
10
7.97558
20
8.67891
30
3.84
0
VERTEX
10
7.97287
20
8.72236
30
3.84
0
VERTEX
10
7.97015
20
8.74409
30
3.84
0
VERTEX
10
7.97015
20
8.75495
30
3.84
0
VERTEX
10
7.97015
20
8.76038
30
3.84
0
VERTEX
10
7.93485
20
8.79297
30
3.84
0
VERTEX
10
7.90498
20
8.82827
30
3.84
0
VERTEX
10
7.89412
20
8.83913
30
3.84
0
VERTEX
10
7.88326
20
8.84456
30
3.84
0
VERTEX
10
7.87782
20
8.84999
30
3.84
0
VERTEX
10
7.83438
20
8.86086
30
3.84
0
VERTEX
10
7.81265
20
8.86629
30
3.84
0
VERTEX
10
7.80179
20
8.869
30
3.84
0
VERTEX
10
7.79907
20
8.87172
30
3.84
0
VERTEX
10
7.78821
20
8.86357
30
3.84
0
VERTEX
10
7.78278
20
8.85814
30
3.84
0
VERTEX
10
7.77735
20
8.85814
30
3.84
0
VERTEX
10
7.76377
20
8.83913
30
3.84
0
VERTEX
10
7.75562
20
8.82827
30
3.84
0
VERTEX
10
7.75291
20
8.81741
30
3.84
0
VERTEX
10
7.74476
20
8.80654
30
3.84
0
VERTEX
10
7.73662
20
8.78482
30
3.84
0
VERTEX
10
7.73662
20
8.77396
30
3.84
0
VERTEX
10
7.73662
20
8.76853
30
3.84
0
SEQEND
0
POLYLINE
62
224
66
1
70
1
3
mitochondrion
0
VERTEX
10
9.84007
20
8.32033
30
3.84
0
VERTEX
10
9.84285
20
8.30921
30
3.84
0
VERTEX
10
9.84563
20
8.30365
30
3.84
0
VERTEX
10
9.84702
20
8.29252
30
3.84
0
VERTEX
10
9.84424
20
8.28974
30
3.84
0
VERTEX
10
9.84563
20
8.28418
30
3.84
0
VERTEX
10
9.86093
20
8.26332
30
3.84
0
VERTEX
10
9.86093
20
8.26054
30
3.84
0
VERTEX
10
9.86649
20
8.25498
30
3.84
0
VERTEX
10
9.87066
20
8.24386
30
3.84
0
VERTEX
10
9.879
20
8.23552
30
3.84
0
VERTEX
10
9.88318
20
8.22995
30
3.84
0
VERTEX
10
9.88457
20
8.22717
30
3.84
0
VERTEX
10
9.89013
20
8.22578
30
3.84
0
VERTEX
10
9.89569
20
8.22022
30
3.84
0
VERTEX
10
9.90264
20
8.2091
30
3.84
0
VERTEX
10
9.9082
20
8.20354
30
3.84
0
VERTEX
10
9.91794
20
8.19658
30
3.84
0
VERTEX
10
9.92906
20
8.18685
30
3.84
0
VERTEX
10
9.93879
20
8.1799
30
3.84
0
VERTEX
10
9.94435
20
8.17712
30
3.84
0
VERTEX
10
9.94992
20
8.17712
30
3.84
0
VERTEX
10
9.97077
20
8.1646
30
3.84
0
VERTEX
10
10.0153
20
8.16182
30
3.84
0
VERTEX
10
10.0375
20
8.16599
30
3.84
0
VERTEX
10
10.0598
20
8.17573
30
3.84
0
VERTEX
10
10.0653
20
8.17712
30
3.84
0
VERTEX
10
10.0862
20
8.18963
30
3.84
0
VERTEX
10
10.0917
20
8.1938
30
3.84
0
VERTEX
10
10.0945
20
8.19937
30
3.84
0
VERTEX
10
10.1043
20
8.21049
30
3.84
0
VERTEX
10
10.107
20
8.21327
30
3.84
0
VERTEX
10
10.107
20
8.21883
30
3.84
0
VERTEX
10
10.1098
20
8.22022
30
3.84
0
VERTEX
10
10.1251
20
8.26472
30
3.84
0
VERTEX
10
10.1279
20
8.27584
30
3.84
0
VERTEX
10
10.1279
20
8.32033
30
3.84
0
VERTEX
10
10.1237
20
8.33146
30
3.84
0
VERTEX
10
10.1223
20
8.33702
30
3.84
0
VERTEX
10
10.1098
20
8.35926
30
3.84
0
VERTEX
10
10.1001
20
8.37039
30
3.84
0
VERTEX
10
10.0903
20
8.37873
30
3.84
0
VERTEX
10
10.0862
20
8.38985
30
3.84
0
VERTEX
10
10.0834
20
8.39263
30
3.84
0
VERTEX
10
10.0792
20
8.40376
30
3.84
0
VERTEX
10
10.0723
20
8.41349
30
3.84
0
VERTEX
10
10.0695
20
8.42461
30
3.84
0
VERTEX
10
10.0653
20
8.42879
30
3.84
0
VERTEX
10
10.0598
20
8.43018
30
3.84
0
VERTEX
10
10.05
20
8.4413
30
3.84
0
VERTEX
10
10.0389
20
8.44825
30
3.84
0
VERTEX
10
10.0333
20
8.45381
30
3.84
0
VERTEX
10
10.0278
20
8.4552
30
3.84
0
VERTEX
10
10.025
20
8.4552
30
3.84
0
VERTEX
10
10.0153
20
8.46494
30
3.84
0
VERTEX
10
10.0041
20
8.47189
30
3.84
0
VERTEX
10
9.9819
20
8.48023
30
3.84
0
VERTEX
10
9.9374
20
8.48162
30
3.84
0
VERTEX
10
9.91516
20
8.48023
30
3.84
0
VERTEX
10
9.90403
20
8.47884
30
3.84
0
VERTEX
10
9.8943
20
8.47328
30
3.84
0
VERTEX
10
9.89291
20
8.47467
30
3.84
0
VERTEX
10
9.88735
20
8.47189
30
3.84
0
VERTEX
10
9.879
20
8.46216
30
3.84
0
VERTEX
10
9.87622
20
8.45103
30
3.84
0
VERTEX
10
9.86927
20
8.43991
30
3.84
0
VERTEX
10
9.86649
20
8.43713
30
3.84
0
VERTEX
10
9.8651
20
8.43157
30
3.84
0
VERTEX
10
9.8651
20
8.42879
30
3.84
0
VERTEX
10
9.86093
20
8.42461
30
3.84
0
VERTEX
10
9.85676
20
8.41349
30
3.84
0
VERTEX
10
9.85537
20
8.40793
30
3.84
0
VERTEX
10
9.8512
20
8.40237
30
3.84
0
VERTEX
10
9.84981
20
8.39681
30
3.84
0
VERTEX
10
9.84563
20
8.39263
30
3.84
0
VERTEX
10
9.84285
20
8.39124
30
3.84
0
VERTEX
10
9.84007
20
8.38012
30
3.84
0
VERTEX
10
9.84007
20
8.33563
30
3.84
0
VERTEX
10
9.84007
20
8.3245
30
3.84
0
VERTEX
10
9.84007
20
8.32172
30
3.84
0
SEQEND
0
POLYLINE
62
227
66
1
70
1
3
endoplasmic_reticulum
0
VERTEX
10
9.77015
20
8.29846
30
3.84
0
VERTEX
10
9.77472
20
8.29236
30
3.84
0
VERTEX
10
9.7991
20
8.29389
30
3.84
0
VERTEX
10
9.80367
20
8.29846
30
3.84
0
VERTEX
10
9.80519
20
8.31065
30
3.84
0
VERTEX
10
9.80519
20
8.31674
30
3.84
0
VERTEX
10
9.80519
20
8.31979
30
3.84
0
VERTEX
10
9.793
20
8.3274
30
3.84
0
VERTEX
10
9.78691
20
8.3274
30
3.84
0
VERTEX
10
9.77472
20
8.31826
30
3.84
0
VERTEX
10
9.77015
20
8.31217
30
3.84
0
VERTEX
10
9.77015
20
8.29998
30
3.84
0
SEQEND
0
POLYLINE
62
227
66
1
70
1
3
endoplasmic_reticulum
0
VERTEX
10
10.017
20
8.09888
30
3.84
0
VERTEX
10
10.0231
20
8.09431
30
3.84
0
VERTEX
10
10.0352
20
8.09279
30
3.84
0
VERTEX
10
10.0474
20
8.09583
30
3.84
0
VERTEX
10
10.0581
20
8.10345
30
3.84
0
VERTEX
10
10.0611
20
8.10497
30
3.84
0
VERTEX
10
10.0611
20
8.11716
30
3.84
0
VERTEX
10
10.0596
20
8.12326
30
3.84
0
VERTEX
10
10.052
20
8.13087
30
3.84
0
VERTEX
10
10.0398
20
8.13392
30
3.84
0
VERTEX
10
10.0337
20
8.13392
30
3.84
0
VERTEX
10
10.0322
20
8.13544
30
3.84
0
VERTEX
10
10.0398
20
8.14611
30
3.84
0
VERTEX
10
10.0337
20
8.14763
30
3.84
0
VERTEX
10
10.0276
20
8.14611
30
3.84
0
VERTEX
10
10.0185
20
8.13392
30
3.84
0
VERTEX
10
10.017
20
8.10955
30
3.84
0
VERTEX
10
10.017
20
8.10345
30
3.84
0
VERTEX
10
10.017
20
8.1004
30
3.84
0
SEQEND
0
POLYLINE
62
227
66
1
70
1
3
endoplasmic_reticulum
0
VERTEX
10
9.75339
20
8.46757
30
3.84
0
VERTEX
10
9.76101
20
8.45538
30
3.84
0
VERTEX
10
9.76406
20
8.45538
30
3.84
0
VERTEX
10
9.78234
20
8.43253
30
3.84
0
VERTEX
10
9.78691
20
8.42948
30
3.84
0
VERTEX
10
9.79148
20
8.42338
30
3.84
0
VERTEX
10
9.80367
20
8.41577
30
3.84
0
VERTEX
10
9.80367
20
8.41272
30
3.84
0
VERTEX
10
9.80976
20
8.40815
30
3.84
0
VERTEX
10
9.81281
20
8.40663
30
3.84
0
VERTEX
10
9.81281
20
8.40053
30
3.84
0
VERTEX
10
9.81586
20
8.39901
30
3.84
0
VERTEX
10
9.81586
20
8.39596
30
3.84
0
VERTEX
10
9.82195
20
8.39139
30
3.84
0
VERTEX
10
9.82804
20
8.38987
30
3.84
0
VERTEX
10
9.83261
20
8.39444
30
3.84
0
VERTEX
10
9.83414
20
8.40053
30
3.84
0
VERTEX
10
9.83261
20
8.41272
30
3.84
0
VERTEX
10
9.82804
20
8.41881
30
3.84
0
VERTEX
10
9.82804
20
8.42186
30
3.84
0
VERTEX
10
9.82195
20
8.42491
30
3.84
0
VERTEX
10
9.8189
20
8.42491
30
3.84
0
VERTEX
10
9.80824
20
8.43405
30
3.84
0
VERTEX
10
9.80367
20
8.43862
30
3.84
0
VERTEX
10
9.80367
20
8.44167
30
3.84
0
VERTEX
10
9.793
20
8.45233
30
3.84
0
VERTEX
10
9.78843
20
8.4569
30
3.84
0
VERTEX
10
9.78539
20
8.45842
30
3.84
0
VERTEX
10
9.78386
20
8.46452
30
3.84
0
VERTEX
10
9.77624
20
8.47671
30
3.84
0
VERTEX
10
9.7732
20
8.47671
30
3.84
0
VERTEX
10
9.77167
20
8.47975
30
3.84
0
VERTEX
10
9.75949
20
8.47823
30
3.84
0
VERTEX
10
9.75339
20
8.47366
30
3.84
0
VERTEX
10
9.75339
20
8.46909
30
3.84
0
SEQEND
0
ENDSEC
0
EOF
