0
SECTION
2
ENTITIES
0
POLYLINE
62
31
66
1
70
1
3
contour
0
VERTEX
10
7.55168
20
9.71776
30
8.28
0
VERTEX
10
7.57801
20
9.71118
30
8.28
0
VERTEX
10
7.59118
20
9.7046
30
8.28
0
VERTEX
10
7.64385
20
9.69472
30
8.28
0
VERTEX
10
7.67019
20
9.68485
30
8.28
0
VERTEX
10
7.69652
20
9.66839
30
8.28
0
VERTEX
10
7.70969
20
9.6618
30
8.28
0
VERTEX
10
7.73603
20
9.6618
30
8.28
0
VERTEX
10
7.74919
20
9.65851
30
8.28
0
VERTEX
10
7.77553
20
9.66509
30
8.28
0
VERTEX
10
7.82491
20
9.69472
30
8.28
0
VERTEX
10
7.83807
20
9.69801
30
8.28
0
VERTEX
10
7.85124
20
9.71118
30
8.28
0
VERTEX
10
7.87758
20
9.72764
30
8.28
0
VERTEX
10
7.89733
20
9.75398
30
8.28
0
VERTEX
10
7.90062
20
9.76714
30
8.28
0
VERTEX
10
7.92037
20
9.78689
30
8.28
0
VERTEX
10
7.96317
20
9.83957
30
8.28
0
VERTEX
10
7.96317
20
9.84615
30
8.28
0
VERTEX
10
7.9895
20
9.8659
30
8.28
0
VERTEX
10
8.01584
20
9.87578
30
8.28
0
VERTEX
10
8.02242
20
9.87578
30
8.28
0
VERTEX
10
8.02571
20
9.88236
30
8.28
0
VERTEX
10
8.05205
20
9.88894
30
8.28
0
VERTEX
10
8.06522
20
9.89553
30
8.28
0
VERTEX
10
8.09155
20
9.89553
30
8.28
0
VERTEX
10
8.11789
20
9.90211
30
8.28
0
VERTEX
10
8.13106
20
9.9087
30
8.28
0
VERTEX
10
8.14422
20
9.9087
30
8.28
0
VERTEX
10
8.15739
20
9.91528
30
8.28
0
VERTEX
10
8.16398
20
9.91528
30
8.28
0
VERTEX
10
8.17056
20
9.92186
30
8.28
0
VERTEX
10
8.19689
20
9.92516
30
8.28
0
VERTEX
10
8.21006
20
9.93174
30
8.28
0
VERTEX
10
8.21335
20
9.93832
30
8.28
0
VERTEX
10
8.23969
20
9.94162
30
8.28
0
VERTEX
10
8.25286
20
9.94162
30
8.28
0
VERTEX
10
8.2759
20
9.95807
30
8.28
0
VERTEX
10
8.31211
20
10.0075
30
8.28
0
VERTEX
10
8.32857
20
10.0601
30
8.28
0
VERTEX
10
8.32857
20
10.1655
30
8.28
0
VERTEX
10
8.32528
20
10.1918
30
8.28
0
VERTEX
10
8.32528
20
10.205
30
8.28
0
VERTEX
10
8.29565
20
10.2576
30
8.28
0
VERTEX
10
8.28907
20
10.2708
30
8.28
0
VERTEX
10
8.2759
20
10.2774
30
8.28
0
VERTEX
10
8.23311
20
10.3268
30
8.28
0
VERTEX
10
8.21006
20
10.3465
30
8.28
0
VERTEX
10
8.19689
20
10.3531
30
8.28
0
VERTEX
10
8.17714
20
10.3794
30
8.28
0
VERTEX
10
8.17056
20
10.386
30
8.28
0
VERTEX
10
8.15739
20
10.3893
30
8.28
0
VERTEX
10
8.13764
20
10.4058
30
8.28
0
VERTEX
10
8.08826
20
10.4354
30
8.28
0
VERTEX
10
8.07509
20
10.4486
30
8.28
0
VERTEX
10
7.96975
20
10.4519
30
8.28
0
VERTEX
10
7.91708
20
10.4617
30
8.28
0
VERTEX
10
7.89075
20
10.465
30
8.28
0
VERTEX
10
7.87758
20
10.4683
30
8.28
0
VERTEX
10
7.82491
20
10.465
30
8.28
0
VERTEX
10
7.79857
20
10.465
30
8.28
0
VERTEX
10
7.77553
20
10.4453
30
8.28
0
VERTEX
10
7.74919
20
10.442
30
8.28
0
VERTEX
10
7.72286
20
10.4222
30
8.28
0
VERTEX
10
7.71627
20
10.4222
30
8.28
0
VERTEX
10
7.70311
20
10.4124
30
8.28
0
VERTEX
10
7.68665
20
10.3926
30
8.28
0
VERTEX
10
7.67348
20
10.3399
30
8.28
0
VERTEX
10
7.67348
20
10.3334
30
8.28
0
VERTEX
10
7.6636
20
10.3202
30
8.28
0
VERTEX
10
7.65373
20
10.2675
30
8.28
0
VERTEX
10
7.64714
20
10.2412
30
8.28
0
VERTEX
10
7.65044
20
10.1885
30
8.28
0
VERTEX
10
7.66031
20
10.1622
30
8.28
0
VERTEX
10
7.6636
20
10.1358
30
8.28
0
VERTEX
10
7.6636
20
10.1293
30
8.28
0
VERTEX
10
7.67019
20
10.1227
30
8.28
0
VERTEX
10
7.67348
20
10.0963
30
8.28
0
VERTEX
10
7.67677
20
10.0832
30
8.28
0
VERTEX
10
7.67677
20
10.0766
30
8.28
0
VERTEX
10
7.68335
20
10.07
30
8.28
0
VERTEX
10
7.68335
20
9.96466
30
8.28
0
VERTEX
10
7.68006
20
9.95149
30
8.28
0
VERTEX
10
7.67348
20
9.94491
30
8.28
0
VERTEX
10
7.66689
20
9.91857
30
8.28
0
VERTEX
10
7.65702
20
9.9054
30
8.28
0
VERTEX
10
7.65702
20
9.89224
30
8.28
0
VERTEX
10
7.64714
20
9.88565
30
8.28
0
VERTEX
10
7.64056
20
9.87248
30
8.28
0
VERTEX
10
7.59447
20
9.82311
30
8.28
0
VERTEX
10
7.55497
20
9.77373
30
8.28
0
VERTEX
10
7.55168
20
9.72106
30
8.28
0
SEQEND
0
POLYLINE
62
31
66
1
70
1
3
contour
0
VERTEX
10
7.29491
20
10.9654
30
8.28
0
VERTEX
10
7.31137
20
10.9391
30
8.28
0
VERTEX
10
7.36404
20
10.8963
30
8.28
0
VERTEX
10
7.40683
20
10.8601
30
8.28
0
VERTEX
10
7.43317
20
10.8436
30
8.28
0
VERTEX
10
7.44634
20
10.8304
30
8.28
0
VERTEX
10
7.4595
20
10.8239
30
8.28
0
VERTEX
10
7.46609
20
10.8173
30
8.28
0
VERTEX
10
7.47925
20
10.8173
30
8.28
0
VERTEX
10
7.50559
20
10.8041
30
8.28
0
VERTEX
10
7.61093
20
10.8041
30
8.28
0
VERTEX
10
7.63727
20
10.8173
30
8.28
0
VERTEX
10
7.65044
20
10.8271
30
8.28
0
VERTEX
10
7.6636
20
10.8304
30
8.28
0
VERTEX
10
7.67677
20
10.8436
30
8.28
0
VERTEX
10
7.67019
20
10.8963
30
8.28
0
VERTEX
10
7.67019
20
10.9489
30
8.28
0
VERTEX
10
7.6636
20
11.0016
30
8.28
0
VERTEX
10
7.65702
20
11.028
30
8.28
0
VERTEX
10
7.65373
20
11.0411
30
8.28
0
VERTEX
10
7.64385
20
11.051
30
8.28
0
VERTEX
10
7.64056
20
11.0642
30
8.28
0
VERTEX
10
7.62081
20
11.0905
30
8.28
0
VERTEX
10
7.60435
20
11.107
30
8.28
0
VERTEX
10
7.60106
20
11.1201
30
8.28
0
VERTEX
10
7.55497
20
11.1563
30
8.28
0
VERTEX
10
7.52863
20
11.1629
30
8.28
0
VERTEX
10
7.51547
20
11.1695
30
8.28
0
VERTEX
10
7.4628
20
11.1662
30
8.28
0
VERTEX
10
7.41012
20
11.1563
30
8.28
0
VERTEX
10
7.38379
20
11.1563
30
8.28
0
VERTEX
10
7.37062
20
11.153
30
8.28
0
VERTEX
10
7.34758
20
11.13
30
8.28
0
VERTEX
10
7.34099
20
11.1267
30
8.28
0
VERTEX
10
7.34099
20
11.1201
30
8.28
0
VERTEX
10
7.31795
20
11.0938
30
8.28
0
VERTEX
10
7.30149
20
11.0411
30
8.28
0
VERTEX
10
7.29491
20
11.0148
30
8.28
0
VERTEX
10
7.29491
20
10.9884
30
8.28
0
VERTEX
10
7.29491
20
10.9753
30
8.28
0
VERTEX
10
7.29491
20
10.9687
30
8.28
0
SEQEND
0
POLYLINE
62
224
66
1
70
1
3
mitochondrion
0
VERTEX
10
7.84202
20
10.203
30
8.28
0
VERTEX
10
7.8462
20
10.1807
30
8.28
0
VERTEX
10
7.8462
20
10.1752
30
8.28
0
VERTEX
10
7.85037
20
10.171
30
8.28
0
VERTEX
10
7.85037
20
10.1599
30
8.28
0
VERTEX
10
7.85315
20
10.1543
30
8.28
0
VERTEX
10
7.85454
20
10.1432
30
8.28
0
VERTEX
10
7.85593
20
10.1376
30
8.28
0
VERTEX
10
7.874
20
10.1168
30
8.28
0
VERTEX
10
7.87679
20
10.1112
30
8.28
0
VERTEX
10
7.88652
20
10.1015
30
8.28
0
VERTEX
10
7.89764
20
10.0945
30
8.28
0
VERTEX
10
7.9185
20
10.0764
30
8.28
0
VERTEX
10
7.92823
20
10.0653
30
8.28
0
VERTEX
10
7.93101
20
10.0653
30
8.28
0
VERTEX
10
7.94075
20
10.057
30
8.28
0
VERTEX
10
7.9477
20
10.05
30
8.28
0
VERTEX
10
7.95048
20
10.05
30
8.28
0
VERTEX
10
7.96021
20
10.0431
30
8.28
0
VERTEX
10
7.96577
20
10.0445
30
8.28
0
VERTEX
10
7.9769
20
10.0431
30
8.28
0
VERTEX
10
7.98246
20
10.0389
30
8.28
0
VERTEX
10
7.99358
20
10.0375
30
8.28
0
VERTEX
10
7.99914
20
10.0375
30
8.28
0
VERTEX
10
8.00192
20
10.0375
30
8.28
0
VERTEX
10
8.0047
20
10.0347
30
8.28
0
VERTEX
10
8.02695
20
10.0347
30
8.28
0
VERTEX
10
8.03808
20
10.0347
30
8.28
0
VERTEX
10
8.04364
20
10.0347
30
8.28
0
VERTEX
10
8.06449
20
10.0459
30
8.28
0
VERTEX
10
8.06727
20
10.0514
30
8.28
0
VERTEX
10
8.0784
20
10.0556
30
8.28
0
VERTEX
10
8.08396
20
10.0612
30
8.28
0
VERTEX
10
8.09369
20
10.0681
30
8.28
0
VERTEX
10
8.09925
20
10.0709
30
8.28
0
VERTEX
10
8.1076
20
10.0931
30
8.28
0
VERTEX
10
8.11038
20
10.1154
30
8.28
0
VERTEX
10
8.10899
20
10.1599
30
8.28
0
VERTEX
10
8.10621
20
10.1821
30
8.28
0
VERTEX
10
8.10482
20
10.1932
30
8.28
0
VERTEX
10
8.10064
20
10.2044
30
8.28
0
VERTEX
10
8.10064
20
10.2071
30
8.28
0
VERTEX
10
8.09786
20
10.2099
30
8.28
0
VERTEX
10
8.09786
20
10.2127
30
8.28
0
VERTEX
10
8.08257
20
10.2322
30
8.28
0
VERTEX
10
8.07701
20
10.2377
30
8.28
0
VERTEX
10
8.07562
20
10.2433
30
8.28
0
VERTEX
10
8.05337
20
10.2614
30
8.28
0
VERTEX
10
8.04225
20
10.2697
30
8.28
0
VERTEX
10
8.03808
20
10.2753
30
8.28
0
VERTEX
10
8.03251
20
10.2767
30
8.28
0
VERTEX
10
8.02695
20
10.2808
30
8.28
0
VERTEX
10
8.02417
20
10.2836
30
8.28
0
VERTEX
10
8.01861
20
10.2836
30
8.28
0
VERTEX
10
8.01305
20
10.2878
30
8.28
0
VERTEX
10
8.00749
20
10.2892
30
8.28
0
VERTEX
10
8.0047
20
10.292
30
8.28
0
VERTEX
10
7.98246
20
10.2961
30
8.28
0
VERTEX
10
7.97133
20
10.3003
30
8.28
0
VERTEX
10
7.92684
20
10.3031
30
8.28
0
VERTEX
10
7.92128
20
10.3003
30
8.28
0
VERTEX
10
7.91572
20
10.3003
30
8.28
0
VERTEX
10
7.90459
20
10.2961
30
8.28
0
VERTEX
10
7.90042
20
10.2906
30
8.28
0
VERTEX
10
7.89764
20
10.2878
30
8.28
0
VERTEX
10
7.89486
20
10.2878
30
8.28
0
VERTEX
10
7.87261
20
10.2753
30
8.28
0
VERTEX
10
7.86705
20
10.2739
30
8.28
0
VERTEX
10
7.84898
20
10.2544
30
8.28
0
VERTEX
10
7.8462
20
10.2516
30
8.28
0
VERTEX
10
7.8462
20
10.2405
30
8.28
0
VERTEX
10
7.84342
20
10.2294
30
8.28
0
VERTEX
10
7.84342
20
10.2071
30
8.28
0
VERTEX
10
7.84202
20
10.2044
30
8.28
0
SEQEND
0
POLYLINE
62
236
66
1
70
1
3
postsynaptic_density
0
VERTEX
10
7.24471
20
11.0201
30
8.28
0
VERTEX
10
7.25031
20
11.0052
30
8.28
0
VERTEX
10
7.25964
20
10.9921
30
8.28
0
VERTEX
10
7.27457
20
10.9865
30
8.28
0
VERTEX
10
7.30443
20
10.9865
30
8.28
0
VERTEX
10
7.31189
20
10.9846
30
8.28
0
VERTEX
10
7.33802
20
11.0052
30
8.28
0
VERTEX
10
7.34175
20
11.0126
30
8.28
0
VERTEX
10
7.34548
20
11.0164
30
8.28
0
VERTEX
10
7.35108
20
11.0313
30
8.28
0
VERTEX
10
7.35481
20
11.0388
30
8.28
0
VERTEX
10
7.36788
20
11.0537
30
8.28
0
VERTEX
10
7.36788
20
11.0611
30
8.28
0
VERTEX
10
7.38654
20
11.0873
30
8.28
0
VERTEX
10
7.39027
20
11.091
30
8.28
0
VERTEX
10
7.39027
20
11.1209
30
8.28
0
VERTEX
10
7.38841
20
11.1358
30
8.28
0
VERTEX
10
7.38281
20
11.1414
30
8.28
0
VERTEX
10
7.37908
20
11.1414
30
8.28
0
VERTEX
10
7.37534
20
11.1489
30
8.28
0
VERTEX
10
7.36788
20
11.1507
30
8.28
0
VERTEX
10
7.35295
20
11.1601
30
8.28
0
VERTEX
10
7.33802
20
11.1638
30
8.28
0
VERTEX
10
7.2783
20
11.1153
30
8.28
0
VERTEX
10
7.24844
20
11.0891
30
8.28
0
VERTEX
10
7.24471
20
11.0742
30
8.28
0
VERTEX
10
7.24471
20
11.0444
30
8.28
0
VERTEX
10
7.24471
20
11.0294
30
8.28
0
VERTEX
10
7.24471
20
11.022
30
8.28
0
SEQEND
0
POLYLINE
62
227
66
1
70
1
3
endoplasmic_reticulum
0
VERTEX
10
7.68071
20
10.2897
30
8.28
0
VERTEX
10
7.6825
20
10.2879
30
8.28
0
VERTEX
10
7.68519
20
10.2735
30
8.28
0
VERTEX
10
7.68699
20
10.2663
30
8.28
0
VERTEX
10
7.69864
20
10.2556
30
8.28
0
VERTEX
10
7.70223
20
10.252
30
8.28
0
VERTEX
10
7.71657
20
10.2493
30
8.28
0
VERTEX
10
7.72374
20
10.2511
30
8.28
0
VERTEX
10
7.72733
20
10.252
30
8.28
0
VERTEX
10
7.73092
20
10.2547
30
8.28
0
VERTEX
10
7.73092
20
10.2565
30
8.28
0
VERTEX
10
7.73271
20
10.2574
30
8.28
0
VERTEX
10
7.73181
20
10.2717
30
8.28
0
VERTEX
10
7.73181
20
10.2735
30
8.28
0
VERTEX
10
7.72195
20
10.2879
30
8.28
0
VERTEX
10
7.71837
20
10.3022
30
8.28
0
VERTEX
10
7.71657
20
10.3094
30
8.28
0
VERTEX
10
7.71388
20
10.313
30
8.28
0
VERTEX
10
7.70761
20
10.3166
30
8.28
0
VERTEX
10
7.70402
20
10.3166
30
8.28
0
VERTEX
10
7.68968
20
10.3094
30
8.28
0
VERTEX
10
7.6825
20
10.3076
30
8.28
0
VERTEX
10
7.68071
20
10.3004
30
8.28
0
VERTEX
10
7.68071
20
10.2932
30
8.28
0
VERTEX
10
7.68071
20
10.2906
30
8.28
0
SEQEND
0
POLYLINE
62
227
66
1
70
1
3
endoplasmic_reticulum
0
VERTEX
10
7.7094
20
9.90683
30
8.28
0
VERTEX
10
7.71209
20
9.89966
30
8.28
0
VERTEX
10
7.71657
20
9.89249
30
8.28
0
VERTEX
10
7.72285
20
9.88711
30
8.28
0
VERTEX
10
7.72643
20
9.88532
30
8.28
0
VERTEX
10
7.73092
20
9.87815
30
8.28
0
VERTEX
10
7.73271
20
9.87456
30
8.28
0
VERTEX
10
7.73271
20
9.86021
30
8.28
0
VERTEX
10
7.73361
20
9.85663
30
8.28
0
VERTEX
10
7.7363
20
9.85304
30
8.28
0
VERTEX
10
7.73719
20
9.84946
30
8.28
0
VERTEX
10
7.73988
20
9.84587
30
8.28
0
VERTEX
10
7.74347
20
9.84497
30
8.28
0
VERTEX
10
7.75064
20
9.84766
30
8.28
0
VERTEX
10
7.75243
20
9.84766
30
8.28
0
VERTEX
10
7.75871
20
9.85394
30
8.28
0
VERTEX
10
7.76319
20
9.86111
30
8.28
0
VERTEX
10
7.76409
20
9.86828
30
8.28
0
VERTEX
10
7.76319
20
9.88263
30
8.28
0
VERTEX
10
7.7623
20
9.88621
30
8.28
0
VERTEX
10
7.75871
20
9.88711
30
8.28
0
VERTEX
10
7.75154
20
9.89159
30
8.28
0
VERTEX
10
7.75154
20
9.89877
30
8.28
0
VERTEX
10
7.75064
20
9.90235
30
8.28
0
VERTEX
10
7.74437
20
9.90773
30
8.28
0
VERTEX
10
7.74168
20
9.91132
30
8.28
0
VERTEX
10
7.74078
20
9.9149
30
8.28
0
VERTEX
10
7.73719
20
9.9167
30
8.28
0
VERTEX
10
7.72285
20
9.91759
30
8.28
0
VERTEX
10
7.71568
20
9.91759
30
8.28
0
VERTEX
10
7.71209
20
9.91759
30
8.28
0
VERTEX
10
7.7103
20
9.9158
30
8.28
0
VERTEX
10
7.7094
20
9.90863
30
8.28
0
VERTEX
10
7.7094
20
9.90773
30
8.28
0
SEQEND
0
POLYLINE
62
227
66
1
70
1
3
endoplasmic_reticulum
0
VERTEX
10
7.72464
20
10.1265
30
8.28
0
VERTEX
10
7.73002
20
10.1193
30
8.28
0
VERTEX
10
7.73181
20
10.1166
30
8.28
0
VERTEX
10
7.73809
20
10.1112
30
8.28
0
VERTEX
10
7.73988
20
10.1077
30
8.28
0
VERTEX
10
7.73988
20
10.1059
30
8.28
0
VERTEX
10
7.74168
20
10.1041
30
8.28
0
VERTEX
10
7.74168
20
10.0897
30
8.28
0
VERTEX
10
7.74168
20
10.0861
30
8.28
0
VERTEX
10
7.73988
20
10.0844
30
8.28
0
VERTEX
10
7.73988
20
10.0808
30
8.28
0
VERTEX
10
7.7363
20
10.0736
30
8.28
0
VERTEX
10
7.7345
20
10.07
30
8.28
0
VERTEX
10
7.73271
20
10.0682
30
8.28
0
VERTEX
10
7.73271
20
10.0664
30
8.28
0
VERTEX
10
7.72823
20
10.0601
30
8.28
0
VERTEX
10
7.72733
20
10.053
30
8.28
0
VERTEX
10
7.72912
20
10.0386
30
8.28
0
VERTEX
10
7.73002
20
10.0315
30
8.28
0
VERTEX
10
7.73092
20
10.0279
30
8.28
0
VERTEX
10
7.74078
20
10.0144
30
8.28
0
VERTEX
10
7.74437
20
10.0072
30
8.28
0
VERTEX
10
7.74437
20
10.0055
30
8.28
0
VERTEX
10
7.74616
20
10.0046
30
8.28
0
VERTEX
10
7.74705
20
9.99021
30
8.28
0
VERTEX
10
7.74526
20
9.97587
30
8.28
0
VERTEX
10
7.74347
20
9.97408
30
8.28
0
VERTEX
10
7.74347
20
9.95973
30
8.28
0
VERTEX
10
7.74437
20
9.95256
30
8.28
0
VERTEX
10
7.74705
20
9.94539
30
8.28
0
VERTEX
10
7.74795
20
9.9418
30
8.28
0
VERTEX
10
7.74974
20
9.94001
30
8.28
0
VERTEX
10
7.74974
20
9.93821
30
8.28
0
VERTEX
10
7.75602
20
9.93194
30
8.28
0
VERTEX
10
7.75871
20
9.92925
30
8.28
0
VERTEX
10
7.77305
20
9.92835
30
8.28
0
VERTEX
10
7.78023
20
9.92835
30
8.28
0
VERTEX
10
7.78381
20
9.92835
30
8.28
0
VERTEX
10
7.79099
20
9.93194
30
8.28
0
VERTEX
10
7.79278
20
9.93194
30
8.28
0
VERTEX
10
7.79457
20
9.93373
30
8.28
0
VERTEX
10
7.79457
20
9.93552
30
8.28
0
VERTEX
10
7.79905
20
9.9418
30
8.28
0
VERTEX
10
7.79905
20
9.94897
30
8.28
0
VERTEX
10
7.79905
20
9.95256
30
8.28
0
VERTEX
10
7.79905
20
9.95435
30
8.28
0
VERTEX
10
7.79726
20
9.95614
30
8.28
0
VERTEX
10
7.79457
20
9.96332
30
8.28
0
VERTEX
10
7.79278
20
9.96421
30
8.28
0
VERTEX
10
7.79278
20
9.96601
30
8.28
0
VERTEX
10
7.7874
20
9.97228
30
8.28
0
VERTEX
10
7.7874
20
9.97408
30
8.28
0
VERTEX
10
7.78471
20
9.97766
30
8.28
0
VERTEX
10
7.78023
20
9.99111
30
8.28
0
VERTEX
10
7.77574
20
9.99828
30
8.28
0
VERTEX
10
7.77574
20
10.0055
30
8.28
0
VERTEX
10
7.77574
20
10.0072
30
8.28
0
VERTEX
10
7.77754
20
10.0081
30
8.28
0
VERTEX
10
7.77754
20
10.0117
30
8.28
0
VERTEX
10
7.78292
20
10.018
30
8.28
0
VERTEX
10
7.78292
20
10.0198
30
8.28
0
VERTEX
10
7.78471
20
10.0216
30
8.28
0
VERTEX
10
7.78471
20
10.0252
30
8.28
0
VERTEX
10
7.7874
20
10.0324
30
8.28
0
VERTEX
10
7.7883
20
10.0395
30
8.28
0
VERTEX
10
7.78561
20
10.0682
30
8.28
0
VERTEX
10
7.78471
20
10.0718
30
8.28
0
VERTEX
10
7.78202
20
10.0745
30
8.28
0
VERTEX
10
7.77664
20
10.1032
30
8.28
0
VERTEX
10
7.77485
20
10.1319
30
8.28
0
VERTEX
10
7.77305
20
10.1355
30
8.28
0
VERTEX
10
7.77305
20
10.1372
30
8.28
0
VERTEX
10
7.77037
20
10.1408
30
8.28
0
VERTEX
10
7.76947
20
10.1444
30
8.28
0
VERTEX
10
7.76678
20
10.1471
30
8.28
0
VERTEX
10
7.76588
20
10.1507
30
8.28
0
VERTEX
10
7.75961
20
10.1561
30
8.28
0
VERTEX
10
7.75692
20
10.1597
30
8.28
0
VERTEX
10
7.75333
20
10.1597
30
8.28
0
VERTEX
10
7.73899
20
10.1534
30
8.28
0
VERTEX
10
7.7354
20
10.1507
30
8.28
0
VERTEX
10
7.73361
20
10.1507
30
8.28
0
VERTEX
10
7.72823
20
10.1444
30
8.28
0
VERTEX
10
7.72643
20
10.1408
30
8.28
0
VERTEX
10
7.72464
20
10.139
30
8.28
0
VERTEX
10
7.72464
20
10.1319
30
8.28
0
VERTEX
10
7.72464
20
10.1283
30
8.28
0
VERTEX
10
7.72464
20
10.1274
30
8.28
0
SEQEND
0
POLYLINE
62
227
66
1
70
1
3
endoplasmic_reticulum
0
VERTEX
10
7.91919
20
9.95256
30
8.28
0
VERTEX
10
7.92009
20
9.94897
30
8.28
0
VERTEX
10
7.92636
20
9.9427
30
8.28
0
VERTEX
10
7.93354
20
9.93911
30
8.28
0
VERTEX
10
7.94788
20
9.93821
30
8.28
0
VERTEX
10
7.95505
20
9.93642
30
8.28
0
VERTEX
10
7.9694
20
9.93821
30
8.28
0
VERTEX
10
7.97298
20
9.93911
30
8.28
0
VERTEX
10
7.97657
20
9.9418
30
8.28
0
VERTEX
10
7.97657
20
9.94359
30
8.28
0
VERTEX
10
7.97836
20
9.94449
30
8.28
0
VERTEX
10
7.97926
20
9.95166
30
8.28
0
VERTEX
10
7.98016
20
9.95435
30
8.28
0
VERTEX
10
8.00885
20
9.95614
30
8.28
0
VERTEX
10
8.02319
20
9.95704
30
8.28
0
VERTEX
10
8.03036
20
9.95704
30
8.28
0
VERTEX
10
8.03395
20
9.95525
30
8.28
0
VERTEX
10
8.04112
20
9.95614
30
8.28
0
VERTEX
10
8.0465
20
9.96242
30
8.28
0
VERTEX
10
8.0465
20
9.96421
30
8.28
0
VERTEX
10
8.04829
20
9.96601
30
8.28
0
VERTEX
10
8.04829
20
9.97318
30
8.28
0
VERTEX
10
8.04381
20
9.97945
30
8.28
0
VERTEX
10
8.04112
20
9.98663
30
8.28
0
VERTEX
10
8.03933
20
9.99021
30
8.28
0
VERTEX
10
8.03305
20
9.9938
30
8.28
0
VERTEX
10
8.02588
20
9.9938
30
8.28
0
VERTEX
10
8.02229
20
9.9929
30
8.28
0
VERTEX
10
8.0205
20
9.9929
30
8.28
0
VERTEX
10
8.01423
20
9.98752
30
8.28
0
VERTEX
10
8.01064
20
9.98483
30
8.28
0
VERTEX
10
7.99629
20
9.98663
30
8.28
0
VERTEX
10
7.98285
20
9.99201
30
8.28
0
VERTEX
10
7.97926
20
9.9947
30
8.28
0
VERTEX
10
7.97209
20
9.99739
30
8.28
0
VERTEX
10
7.9694
20
9.99918
30
8.28
0
VERTEX
10
7.95505
20
9.99828
30
8.28
0
VERTEX
10
7.95147
20
9.99828
30
8.28
0
VERTEX
10
7.93802
20
9.99201
30
8.28
0
VERTEX
10
7.93443
20
9.98932
30
8.28
0
VERTEX
10
7.93264
20
9.98842
30
8.28
0
VERTEX
10
7.93264
20
9.98663
30
8.28
0
VERTEX
10
7.93085
20
9.98663
30
8.28
0
VERTEX
10
7.92726
20
9.98304
30
8.28
0
VERTEX
10
7.92547
20
9.97945
30
8.28
0
VERTEX
10
7.92547
20
9.97587
30
8.28
0
VERTEX
10
7.92367
20
9.97318
30
8.28
0
VERTEX
10
7.92009
20
9.97139
30
8.28
0
VERTEX
10
7.91919
20
9.95704
30
8.28
0
VERTEX
10
7.91919
20
9.95345
30
8.28
0
SEQEND
0
POLYLINE
62
227
66
1
70
1
3
endoplasmic_reticulum
0
VERTEX
10
8.06085
20
9.99559
30
8.28
0
VERTEX
10
8.06174
20
9.99201
30
8.28
0
VERTEX
10
8.06174
20
9.99021
30
8.28
0
VERTEX
10
8.06533
20
9.98663
30
8.28
0
VERTEX
10
8.0716
20
9.98394
30
8.28
0
VERTEX
10
8.0725
20
9.98214
30
8.28
0
VERTEX
10
8.08685
20
9.98125
30
8.28
0
VERTEX
10
8.09402
20
9.98214
30
8.28
0
VERTEX
10
8.0976
20
9.98304
30
8.28
0
VERTEX
10
8.0994
20
9.98304
30
8.28
0
VERTEX
10
8.10119
20
9.98483
30
8.28
0
VERTEX
10
8.10478
20
9.98573
30
8.28
0
VERTEX
10
8.11105
20
9.99111
30
8.28
0
VERTEX
10
8.11285
20
9.9947
30
8.28
0
VERTEX
10
8.11643
20
9.99828
30
8.28
0
VERTEX
10
8.11643
20
10.0001
30
8.28
0
VERTEX
10
8.12271
20
10.0055
30
8.28
0
VERTEX
10
8.13257
20
10.0189
30
8.28
0
VERTEX
10
8.13616
20
10.0261
30
8.28
0
VERTEX
10
8.13885
20
10.0288
30
8.28
0
VERTEX
10
8.14064
20
10.0297
30
8.28
0
VERTEX
10
8.14243
20
10.0368
30
8.28
0
VERTEX
10
8.14512
20
10.0404
30
8.28
0
VERTEX
10
8.14602
20
10.044
30
8.28
0
VERTEX
10
8.14871
20
10.0476
30
8.28
0
VERTEX
10
8.1514
20
10.0548
30
8.28
0
VERTEX
10
8.15588
20
10.0619
30
8.28
0
VERTEX
10
8.16126
20
10.0673
30
8.28
0
VERTEX
10
8.16485
20
10.0745
30
8.28
0
VERTEX
10
8.16664
20
10.0781
30
8.28
0
VERTEX
10
8.17381
20
10.0808
30
8.28
0
VERTEX
10
8.1756
20
10.0817
30
8.28
0
VERTEX
10
8.1756
20
10.0835
30
8.28
0
VERTEX
10
8.1774
20
10.0852
30
8.28
0
VERTEX
10
8.17919
20
10.0996
30
8.28
0
VERTEX
10
8.17919
20
10.1139
30
8.28
0
VERTEX
10
8.18188
20
10.1283
30
8.28
0
VERTEX
10
8.18367
20
10.1355
30
8.28
0
VERTEX
10
8.18905
20
10.1408
30
8.28
0
VERTEX
10
8.18995
20
10.1444
30
8.28
0
VERTEX
10
8.19174
20
10.1462
30
8.28
0
VERTEX
10
8.19174
20
10.148
30
8.28
0
VERTEX
10
8.19533
20
10.1516
30
8.28
0
VERTEX
10
8.19981
20
10.1579
30
8.28
0
VERTEX
10
8.2034
20
10.1588
30
8.28
0
VERTEX
10
8.20609
20
10.1624
30
8.28
0
VERTEX
10
8.20788
20
10.1632
30
8.28
0
VERTEX
10
8.20788
20
10.165
30
8.28
0
VERTEX
10
8.20967
20
10.165
30
8.28
0
VERTEX
10
8.21595
20
10.1704
30
8.28
0
VERTEX
10
8.22581
20
10.1821
30
8.28
0
VERTEX
10
8.22671
20
10.1857
30
8.28
0
VERTEX
10
8.2294
20
10.1892
30
8.28
0
VERTEX
10
8.23029
20
10.1928
30
8.28
0
VERTEX
10
8.23298
20
10.1964
30
8.28
0
VERTEX
10
8.23478
20
10.2036
30
8.28
0
VERTEX
10
8.24195
20
10.2108
30
8.28
0
VERTEX
10
8.24553
20
10.2135
30
8.28
0
VERTEX
10
8.24553
20
10.2152
30
8.28
0
VERTEX
10
8.25181
20
10.2206
30
8.28
0
VERTEX
10
8.2536
20
10.2242
30
8.28
0
VERTEX
10
8.2554
20
10.226
30
8.28
0
VERTEX
10
8.25629
20
10.2332
30
8.28
0
VERTEX
10
8.25809
20
10.2368
30
8.28
0
VERTEX
10
8.25719
20
10.2439
30
8.28
0
VERTEX
10
8.2536
20
10.2511
30
8.28
0
VERTEX
10
8.25002
20
10.2538
30
8.28
0
VERTEX
10
8.24822
20
10.2538
30
8.28
0
VERTEX
10
8.24733
20
10.2574
30
8.28
0
VERTEX
10
8.24284
20
10.2646
30
8.28
0
VERTEX
10
8.24195
20
10.2681
30
8.28
0
VERTEX
10
8.23567
20
10.2744
30
8.28
0
VERTEX
10
8.23209
20
10.2771
30
8.28
0
VERTEX
10
8.2285
20
10.2771
30
8.28
0
VERTEX
10
8.22581
20
10.2735
30
8.28
0
VERTEX
10
8.22581
20
10.2717
30
8.28
0
VERTEX
10
8.21864
20
10.2681
30
8.28
0
VERTEX
10
8.21236
20
10.2619
30
8.28
0
VERTEX
10
8.20609
20
10.2574
30
8.28
0
VERTEX
10
8.20429
20
10.2565
30
8.28
0
VERTEX
10
8.2034
20
10.2538
30
8.28
0
VERTEX
10
8.19802
20
10.2484
30
8.28
0
VERTEX
10
8.18905
20
10.235
30
8.28
0
VERTEX
10
8.18726
20
10.2332
30
8.28
0
VERTEX
10
8.18726
20
10.2314
30
8.28
0
VERTEX
10
8.17471
20
10.2179
30
8.28
0
VERTEX
10
8.16843
20
10.2143
30
8.28
0
VERTEX
10
8.16216
20
10.209
30
8.28
0
VERTEX
10
8.15678
20
10.2018
30
8.28
0
VERTEX
10
8.15498
20
10.1955
30
8.28
0
VERTEX
10
8.1514
20
10.1883
30
8.28
0
VERTEX
10
8.1505
20
10.1812
30
8.28
0
VERTEX
10
8.1505
20
10.1776
30
8.28
0
VERTEX
10
8.1505
20
10.1758
30
8.28
0
VERTEX
10
8.14871
20
10.174
30
8.28
0
VERTEX
10
8.14871
20
10.1722
30
8.28
0
VERTEX
10
8.14691
20
10.1704
30
8.28
0
VERTEX
10
8.14602
20
10.1417
30
8.28
0
VERTEX
10
8.14602
20
10.1381
30
8.28
0
VERTEX
10
8.14871
20
10.131
30
8.28
0
VERTEX
10
8.14781
20
10.1238
30
8.28
0
VERTEX
10
8.15588
20
10.1112
30
8.28
0
VERTEX
10
8.15498
20
10.0969
30
8.28
0
VERTEX
10
8.15229
20
10.0897
30
8.28
0
VERTEX
10
8.14691
20
10.0852
30
8.28
0
VERTEX
10
8.14154
20
10.0781
30
8.28
0
VERTEX
10
8.13436
20
10.0727
30
8.28
0
VERTEX
10
8.1245
20
10.061
30
8.28
0
VERTEX
10
8.12091
20
10.0575
30
8.28
0
VERTEX
10
8.12002
20
10.0539
30
8.28
0
VERTEX
10
8.11464
20
10.0476
30
8.28
0
VERTEX
10
8.11195
20
10.044
30
8.28
0
VERTEX
10
8.11016
20
10.044
30
8.28
0
VERTEX
10
8.10029
20
10.0324
30
8.28
0
VERTEX
10
8.08685
20
10.0225
30
8.28
0
VERTEX
10
8.08326
20
10.0189
30
8.28
0
VERTEX
10
8.07967
20
10.018
30
8.28
0
VERTEX
10
8.07878
20
10.0162
30
8.28
0
VERTEX
10
8.0716
20
10.0135
30
8.28
0
VERTEX
10
8.07071
20
10.0117
30
8.28
0
VERTEX
10
8.06891
20
10.0117
30
8.28
0
VERTEX
10
8.06623
20
10.0081
30
8.28
0
VERTEX
10
8.06354
20
10.001
30
8.28
0
VERTEX
10
8.06085
20
9.99739
30
8.28
0
VERTEX
10
8.06085
20
9.99649
30
8.28
0
SEQEND
0
POLYLINE
62
227
66
1
70
1
3
endoplasmic_reticulum
0
VERTEX
10
8.15229
20
10.2861
30
8.28
0
VERTEX
10
8.15409
20
10.2717
30
8.28
0
VERTEX
10
8.15409
20
10.2681
30
8.28
0
VERTEX
10
8.15588
20
10.2646
30
8.28
0
VERTEX
10
8.15588
20
10.2628
30
8.28
0
VERTEX
10
8.16036
20
10.2583
30
8.28
0
VERTEX
10
8.16126
20
10.2439
30
8.28
0
VERTEX
10
8.16216
20
10.2368
30
8.28
0
VERTEX
10
8.16216
20
10.235
30
8.28
0
VERTEX
10
8.16395
20
10.2332
30
8.28
0
VERTEX
10
8.17112
20
10.2332
30
8.28
0
VERTEX
10
8.17471
20
10.2332
30
8.28
0
VERTEX
10
8.18547
20
10.2475
30
8.28
0
VERTEX
10
8.18457
20
10.3049
30
8.28
0
VERTEX
10
8.18188
20
10.3112
30
8.28
0
VERTEX
10
8.18098
20
10.3148
30
8.28
0
VERTEX
10
8.17919
20
10.3166
30
8.28
0
VERTEX
10
8.17919
20
10.3183
30
8.28
0
VERTEX
10
8.1765
20
10.321
30
8.28
0
VERTEX
10
8.17471
20
10.3219
30
8.28
0
VERTEX
10
8.16754
20
10.3201
30
8.28
0
VERTEX
10
8.16485
20
10.3166
30
8.28
0
VERTEX
10
8.16036
20
10.3121
30
8.28
0
VERTEX
10
8.15678
20
10.3112
30
8.28
0
VERTEX
10
8.15409
20
10.3076
30
8.28
0
VERTEX
10
8.15229
20
10.2932
30
8.28
0
VERTEX
10
8.15229
20
10.287
30
8.28
0
SEQEND
0
POLYLINE
62
227
66
1
70
1
3
endoplasmic_reticulum
0
VERTEX
10
8.08416
20
10.3076
30
8.28
0
VERTEX
10
8.08595
20
10.3004
30
8.28
0
VERTEX
10
8.08954
20
10.2932
30
8.28
0
VERTEX
10
8.08954
20
10.2915
30
8.28
0
VERTEX
10
8.09402
20
10.2843
30
8.28
0
VERTEX
10
8.09581
20
10.2807
30
8.28
0
VERTEX
10
8.09581
20
10.2771
30
8.28
0
VERTEX
10
8.0985
20
10.2735
30
8.28
0
VERTEX
10
8.10298
20
10.2592
30
8.28
0
VERTEX
10
8.10478
20
10.2556
30
8.28
0
VERTEX
10
8.10478
20
10.2484
30
8.28
0
VERTEX
10
8.10567
20
10.2448
30
8.28
0
VERTEX
10
8.10747
20
10.243
30
8.28
0
VERTEX
10
8.10836
20
10.2359
30
8.28
0
VERTEX
10
8.11195
20
10.2287
30
8.28
0
VERTEX
10
8.11464
20
10.2251
30
8.28
0
VERTEX
10
8.11554
20
10.2215
30
8.28
0
VERTEX
10
8.12898
20
10.2126
30
8.28
0
VERTEX
10
8.13616
20
10.2117
30
8.28
0
VERTEX
10
8.13974
20
10.2126
30
8.28
0
VERTEX
10
8.14333
20
10.2152
30
8.28
0
VERTEX
10
8.14512
20
10.2224
30
8.28
0
VERTEX
10
8.14512
20
10.2368
30
8.28
0
VERTEX
10
8.14512
20
10.2386
30
8.28
0
VERTEX
10
8.14333
20
10.2403
30
8.28
0
VERTEX
10
8.14243
20
10.2475
30
8.28
0
VERTEX
10
8.12988
20
10.2601
30
8.28
0
VERTEX
10
8.12809
20
10.2619
30
8.28
0
VERTEX
10
8.12898
20
10.2762
30
8.28
0
VERTEX
10
8.12898
20
10.2798
30
8.28
0
VERTEX
10
8.12719
20
10.2834
30
8.28
0
VERTEX
10
8.12719
20
10.2852
30
8.28
0
VERTEX
10
8.1245
20
10.2888
30
8.28
0
VERTEX
10
8.12002
20
10.3031
30
8.28
0
VERTEX
10
8.11733
20
10.3094
30
8.28
0
VERTEX
10
8.11285
20
10.3166
30
8.28
0
VERTEX
10
8.11195
20
10.3201
30
8.28
0
VERTEX
10
8.10926
20
10.3237
30
8.28
0
VERTEX
10
8.10836
20
10.3273
30
8.28
0
VERTEX
10
8.10657
20
10.3282
30
8.28
0
VERTEX
10
8.10567
20
10.3318
30
8.28
0
VERTEX
10
8.09133
20
10.3354
30
8.28
0
VERTEX
10
8.08864
20
10.3327
30
8.28
0
VERTEX
10
8.08864
20
10.3309
30
8.28
0
VERTEX
10
8.08595
20
10.3282
30
8.28
0
VERTEX
10
8.08416
20
10.321
30
8.28
0
VERTEX
10
8.08416
20
10.3139
30
8.28
0
VERTEX
10
8.08416
20
10.3103
30
8.28
0
VERTEX
10
8.08416
20
10.3085
30
8.28
0
SEQEND
0
ENDSEC
0
EOF
