0
SECTION
2
ENTITIES
0
POLYLINE
62
31
66
1
70
1
3
contour
0
VERTEX
10
9.86288
20
8.08233
30
3.36
0
VERTEX
10
9.86953
20
8.01137
30
3.36
0
VERTEX
10
9.87618
20
7.9759
30
3.36
0
VERTEX
10
9.88062
20
7.95816
30
3.36
0
VERTEX
10
9.88284
20
7.94929
30
3.36
0
VERTEX
10
9.88727
20
7.94485
30
3.36
0
VERTEX
10
9.89392
20
7.92711
30
3.36
0
VERTEX
10
9.90501
20
7.90937
30
3.36
0
VERTEX
10
9.90945
20
7.89163
30
3.36
0
VERTEX
10
9.92497
20
7.87611
30
3.36
0
VERTEX
10
9.94271
20
7.86946
30
3.36
0
VERTEX
10
9.96044
20
7.86946
30
3.36
0
VERTEX
10
9.96488
20
7.86946
30
3.36
0
VERTEX
10
9.97153
20
7.86059
30
3.36
0
VERTEX
10
9.98705
20
7.85172
30
3.36
0
VERTEX
10
9.99149
20
7.84729
30
3.36
0
VERTEX
10
10.0092
20
7.84285
30
3.36
0
VERTEX
10
10.0447
20
7.84285
30
3.36
0
VERTEX
10
10.0624
20
7.8362
30
3.36
0
VERTEX
10
10.1334
20
7.83398
30
3.36
0
VERTEX
10
10.1689
20
7.83398
30
3.36
0
VERTEX
10
10.1777
20
7.83398
30
3.36
0
VERTEX
10
10.1866
20
7.84064
30
3.36
0
VERTEX
10
10.2221
20
7.8495
30
3.36
0
VERTEX
10
10.231
20
7.85172
30
3.36
0
VERTEX
10
10.2465
20
7.86281
30
3.36
0
VERTEX
10
10.2642
20
7.86724
30
3.36
0
VERTEX
10
10.2687
20
7.86724
30
3.36
0
VERTEX
10
10.2864
20
7.88055
30
3.36
0
VERTEX
10
10.3019
20
7.88942
30
3.36
0
VERTEX
10
10.3108
20
7.89385
30
3.36
0
VERTEX
10
10.3396
20
7.92711
30
3.36
0
VERTEX
10
10.3463
20
7.94485
30
3.36
0
VERTEX
10
10.3507
20
7.94707
30
3.36
0
VERTEX
10
10.3507
20
7.95594
30
3.36
0
VERTEX
10
10.3551
20
7.96481
30
3.36
0
VERTEX
10
10.3574
20
8.03576
30
3.36
0
VERTEX
10
10.3529
20
8.05129
30
3.36
0
VERTEX
10
10.3529
20
8.06016
30
3.36
0
VERTEX
10
10.3307
20
8.09342
30
3.36
0
VERTEX
10
10.2997
20
8.12446
30
3.36
0
VERTEX
10
10.2908
20
8.1422
30
3.36
0
VERTEX
10
10.2842
20
8.17768
30
3.36
0
VERTEX
10
10.2797
20
8.18211
30
3.36
0
VERTEX
10
10.2731
20
8.21759
30
3.36
0
VERTEX
10
10.2731
20
8.22202
30
3.36
0
VERTEX
10
10.2687
20
8.22646
30
3.36
0
VERTEX
10
10.2664
20
8.26194
30
3.36
0
VERTEX
10
10.262
20
8.27081
30
3.36
0
VERTEX
10
10.2642
20
8.27968
30
3.36
0
VERTEX
10
10.2598
20
8.28854
30
3.36
0
VERTEX
10
10.2598
20
8.29298
30
3.36
0
VERTEX
10
10.2487
20
8.31072
30
3.36
0
VERTEX
10
10.2465
20
8.31959
30
3.36
0
VERTEX
10
10.2465
20
8.32402
30
3.36
0
VERTEX
10
10.2398
20
8.33289
30
3.36
0
VERTEX
10
10.2376
20
8.34176
30
3.36
0
VERTEX
10
10.2332
20
8.3462
30
3.36
0
VERTEX
10
10.231
20
8.35507
30
3.36
0
VERTEX
10
10.2243
20
8.36394
30
3.36
0
VERTEX
10
10.2177
20
8.38167
30
3.36
0
VERTEX
10
10.1933
20
8.41715
30
3.36
0
VERTEX
10
10.1866
20
8.41937
30
3.36
0
VERTEX
10
10.1578
20
8.45263
30
3.36
0
VERTEX
10
10.1467
20
8.46372
30
3.36
0
VERTEX
10
10.1423
20
8.46372
30
3.36
0
VERTEX
10
10.1267
20
8.47924
30
3.36
0
VERTEX
10
10.0935
20
8.49254
30
3.36
0
VERTEX
10
10.0846
20
8.49698
30
3.36
0
VERTEX
10
10.0802
20
8.49698
30
3.36
0
VERTEX
10
10.0757
20
8.50141
30
3.36
0
VERTEX
10
10.0669
20
8.57237
30
3.36
0
VERTEX
10
10.0647
20
8.59011
30
3.36
0
VERTEX
10
10.0647
20
8.59454
30
3.36
0
VERTEX
10
10.0558
20
8.59898
30
3.36
0
VERTEX
10
10.0491
20
8.61672
30
3.36
0
VERTEX
10
10.0491
20
8.62559
30
3.36
0
VERTEX
10
10.0403
20
8.64111
30
3.36
0
VERTEX
10
10.0381
20
8.65885
30
3.36
0
VERTEX
10
10.027
20
8.67659
30
3.36
0
VERTEX
10
10.027
20
8.68102
30
3.36
0
VERTEX
10
10.0225
20
8.68545
30
3.36
0
VERTEX
10
10.0203
20
8.69432
30
3.36
0
VERTEX
10
10.007
20
8.70985
30
3.36
0
VERTEX
10
9.99592
20
8.72093
30
3.36
0
VERTEX
10
9.99592
20
8.72537
30
3.36
0
VERTEX
10
9.98484
20
8.74311
30
3.36
0
VERTEX
10
9.9671
20
8.75198
30
3.36
0
VERTEX
10
9.94936
20
8.75419
30
3.36
0
VERTEX
10
9.93162
20
8.75198
30
3.36
0
VERTEX
10
9.92718
20
8.75198
30
3.36
0
VERTEX
10
9.92275
20
8.74754
30
3.36
0
VERTEX
10
9.91388
20
8.74532
30
3.36
0
VERTEX
10
9.90945
20
8.72758
30
3.36
0
VERTEX
10
9.91166
20
8.70985
30
3.36
0
VERTEX
10
9.91831
20
8.69211
30
3.36
0
VERTEX
10
9.92053
20
8.68324
30
3.36
0
VERTEX
10
9.93384
20
8.6655
30
3.36
0
VERTEX
10
9.94271
20
8.64998
30
3.36
0
VERTEX
10
9.97153
20
8.61672
30
3.36
0
VERTEX
10
9.97818
20
8.60785
30
3.36
0
VERTEX
10
9.98262
20
8.60341
30
3.36
0
VERTEX
10
9.98262
20
8.59898
30
3.36
0
VERTEX
10
9.98705
20
8.59454
30
3.36
0
VERTEX
10
9.98927
20
8.55906
30
3.36
0
VERTEX
10
9.98262
20
8.49033
30
3.36
0
VERTEX
10
9.97597
20
8.47259
30
3.36
0
VERTEX
10
9.97375
20
8.46372
30
3.36
0
VERTEX
10
9.96931
20
8.45928
30
3.36
0
VERTEX
10
9.96266
20
8.44154
30
3.36
0
VERTEX
10
9.96266
20
8.43711
30
3.36
0
VERTEX
10
9.95823
20
8.43267
30
3.36
0
VERTEX
10
9.95823
20
8.42824
30
3.36
0
VERTEX
10
9.95158
20
8.42159
30
3.36
0
VERTEX
10
9.94714
20
8.40385
30
3.36
0
VERTEX
10
9.93605
20
8.38611
30
3.36
0
VERTEX
10
9.93162
20
8.37724
30
3.36
0
VERTEX
10
9.92718
20
8.37502
30
3.36
0
VERTEX
10
9.90279
20
8.30407
30
3.36
0
VERTEX
10
9.89836
20
8.29963
30
3.36
0
VERTEX
10
9.87175
20
8.23089
30
3.36
0
VERTEX
10
9.86732
20
8.21315
30
3.36
0
VERTEX
10
9.86288
20
8.1422
30
3.36
0
VERTEX
10
9.86288
20
8.10672
30
3.36
0
VERTEX
10
9.86288
20
8.08898
30
3.36
0
VERTEX
10
9.86288
20
8.08455
30
3.36
0
SEQEND
0
POLYLINE
62
31
66
1
70
1
3
contour
0
VERTEX
10
10.1616
20
8.73866
30
3.36
0
VERTEX
10
10.167
20
8.72779
30
3.36
0
VERTEX
10
10.167
20
8.70607
30
3.36
0
VERTEX
10
10.1698
20
8.69521
30
3.36
0
VERTEX
10
10.1915
20
8.68163
30
3.36
0
VERTEX
10
10.2023
20
8.67891
30
3.36
0
VERTEX
10
10.2213
20
8.6599
30
3.36
0
VERTEX
10
10.2322
20
8.65719
30
3.36
0
VERTEX
10
10.2431
20
8.64904
30
3.36
0
VERTEX
10
10.2485
20
8.6409
30
3.36
0
VERTEX
10
10.2892
20
8.6246
30
3.36
0
VERTEX
10
10.3001
20
8.61646
30
3.36
0
VERTEX
10
10.311
20
8.61374
30
3.36
0
VERTEX
10
10.3164
20
8.61374
30
3.36
0
VERTEX
10
10.3273
20
8.60559
30
3.36
0
VERTEX
10
10.3707
20
8.60559
30
3.36
0
VERTEX
10
10.3924
20
8.61374
30
3.36
0
VERTEX
10
10.4033
20
8.61917
30
3.36
0
VERTEX
10
10.4087
20
8.61917
30
3.36
0
VERTEX
10
10.4196
20
8.62732
30
3.36
0
VERTEX
10
10.4304
20
8.63003
30
3.36
0
VERTEX
10
10.4359
20
8.63003
30
3.36
0
VERTEX
10
10.4467
20
8.63818
30
3.36
0
VERTEX
10
10.4902
20
8.6409
30
3.36
0
VERTEX
10
10.5011
20
8.64361
30
3.36
0
VERTEX
10
10.5119
20
8.65176
30
3.36
0
VERTEX
10
10.5526
20
8.6599
30
3.36
0
VERTEX
10
10.5744
20
8.66534
30
3.36
0
VERTEX
10
10.5852
20
8.66534
30
3.36
0
VERTEX
10
10.5907
20
8.67077
30
3.36
0
VERTEX
10
10.6776
20
8.67891
30
3.36
0
VERTEX
10
10.6884
20
8.68163
30
3.36
0
VERTEX
10
10.7101
20
8.70064
30
3.36
0
VERTEX
10
10.7129
20
8.7115
30
3.36
0
VERTEX
10
10.7264
20
8.73322
30
3.36
0
VERTEX
10
10.7346
20
8.74409
30
3.36
0
VERTEX
10
10.7373
20
8.75495
30
3.36
0
VERTEX
10
10.7427
20
8.75766
30
3.36
0
VERTEX
10
10.7427
20
8.7631
30
3.36
0
VERTEX
10
10.7509
20
8.77667
30
3.36
0
VERTEX
10
10.7645
20
8.7984
30
3.36
0
VERTEX
10
10.7808
20
8.84185
30
3.36
0
VERTEX
10
10.7835
20
8.85271
30
3.36
0
VERTEX
10
10.7889
20
8.85814
30
3.36
0
VERTEX
10
10.7916
20
8.869
30
3.36
0
VERTEX
10
10.7998
20
8.87986
30
3.36
0
VERTEX
10
10.8052
20
8.90159
30
3.36
0
VERTEX
10
10.8106
20
8.91245
30
3.36
0
VERTEX
10
10.8106
20
8.9559
30
3.36
0
VERTEX
10
10.8052
20
8.97762
30
3.36
0
VERTEX
10
10.7753
20
9.01293
30
3.36
0
VERTEX
10
10.7645
20
9.01293
30
3.36
0
VERTEX
10
10.7292
20
9.0428
30
3.36
0
VERTEX
10
10.7183
20
9.05094
30
3.36
0
VERTEX
10
10.7129
20
9.06181
30
3.36
0
VERTEX
10
10.702
20
9.07267
30
3.36
0
VERTEX
10
10.6803
20
9.08625
30
3.36
0
VERTEX
10
10.6586
20
9.09439
30
3.36
0
VERTEX
10
10.6178
20
9.11883
30
3.36
0
VERTEX
10
10.5961
20
9.13241
30
3.36
0
VERTEX
10
10.5907
20
9.13784
30
3.36
0
VERTEX
10
10.5852
20
9.13784
30
3.36
0
VERTEX
10
10.5798
20
9.14327
30
3.36
0
VERTEX
10
10.5581
20
9.15142
30
3.36
0
VERTEX
10
10.5472
20
9.15142
30
3.36
0
VERTEX
10
10.5364
20
9.15957
30
3.36
0
VERTEX
10
10.5146
20
9.16228
30
3.36
0
VERTEX
10
10.5038
20
9.17043
30
3.36
0
VERTEX
10
10.4929
20
9.17314
30
3.36
0
VERTEX
10
10.4848
20
9.18129
30
3.36
0
VERTEX
10
10.463
20
9.18944
30
3.36
0
VERTEX
10
10.4522
20
9.2003
30
3.36
0
VERTEX
10
10.4413
20
9.20573
30
3.36
0
VERTEX
10
10.3544
20
9.2003
30
3.36
0
VERTEX
10
10.349
20
9.2003
30
3.36
0
VERTEX
10
10.33
20
9.18129
30
3.36
0
VERTEX
10
10.3218
20
9.17314
30
3.36
0
VERTEX
10
10.3218
20
9.16228
30
3.36
0
VERTEX
10
10.3055
20
9.14327
30
3.36
0
VERTEX
10
10.2974
20
9.13513
30
3.36
0
VERTEX
10
10.2892
20
9.09168
30
3.36
0
VERTEX
10
10.2865
20
9.06995
30
3.36
0
VERTEX
10
10.2784
20
9.04823
30
3.36
0
VERTEX
10
10.2757
20
9.0265
30
3.36
0
VERTEX
10
10.2567
20
9.00478
30
3.36
0
VERTEX
10
10.2485
20
8.99935
30
3.36
0
VERTEX
10
10.2241
20
8.9559
30
3.36
0
VERTEX
10
10.2132
20
8.93418
30
3.36
0
VERTEX
10
10.2132
20
8.92331
30
3.36
0
VERTEX
10
10.2078
20
8.91788
30
3.36
0
VERTEX
10
10.2078
20
8.91245
30
3.36
0
VERTEX
10
10.2023
20
8.90702
30
3.36
0
VERTEX
10
10.2023
20
8.89616
30
3.36
0
VERTEX
10
10.2023
20
8.89073
30
3.36
0
VERTEX
10
10.1969
20
8.8853
30
3.36
0
VERTEX
10
10.1806
20
8.84185
30
3.36
0
VERTEX
10
10.1779
20
8.83098
30
3.36
0
VERTEX
10
10.1698
20
8.82012
30
3.36
0
VERTEX
10
10.1616
20
8.77667
30
3.36
0
VERTEX
10
10.1616
20
8.75495
30
3.36
0
VERTEX
10
10.1616
20
8.74409
30
3.36
0
VERTEX
10
10.1616
20
8.74137
30
3.36
0
SEQEND
0
POLYLINE
62
31
66
1
70
1
3
contour
0
VERTEX
10
10.6135
20
7.86643
30
3.36
0
VERTEX
10
10.6233
20
7.81429
30
3.36
0
VERTEX
10
10.6298
20
7.81103
30
3.36
0
VERTEX
10
10.6298
20
7.78496
30
3.36
0
VERTEX
10
10.6428
20
7.76215
30
3.36
0
VERTEX
10
10.6461
20
7.74912
30
3.36
0
VERTEX
10
10.6656
20
7.72305
30
3.36
0
VERTEX
10
10.6721
20
7.71653
30
3.36
0
VERTEX
10
10.6982
20
7.71001
30
3.36
0
VERTEX
10
10.7243
20
7.71001
30
3.36
0
VERTEX
10
10.7504
20
7.71979
30
3.36
0
VERTEX
10
10.7634
20
7.72305
30
3.36
0
VERTEX
10
10.7732
20
7.73608
30
3.36
0
VERTEX
10
10.7797
20
7.73608
30
3.36
0
VERTEX
10
10.7862
20
7.7426
30
3.36
0
VERTEX
10
10.7862
20
7.74912
30
3.36
0
VERTEX
10
10.809
20
7.77193
30
3.36
0
VERTEX
10
10.8253
20
7.82407
30
3.36
0
VERTEX
10
10.8286
20
7.85014
30
3.36
0
VERTEX
10
10.8286
20
7.86317
30
3.36
0
VERTEX
10
10.8286
20
7.86969
30
3.36
0
VERTEX
10
10.822
20
7.87621
30
3.36
0
VERTEX
10
10.8188
20
7.90228
30
3.36
0
VERTEX
10
10.809
20
7.92509
30
3.36
0
VERTEX
10
10.809
20
7.95116
30
3.36
0
VERTEX
10
10.796
20
7.97397
30
3.36
0
VERTEX
10
10.7895
20
7.987
30
3.36
0
VERTEX
10
10.7764
20
7.99352
30
3.36
0
VERTEX
10
10.7666
20
8.00655
30
3.36
0
VERTEX
10
10.7406
20
8.01307
30
3.36
0
VERTEX
10
10.6884
20
8.00981
30
3.36
0
VERTEX
10
10.6754
20
8.00655
30
3.36
0
VERTEX
10
10.6656
20
7.99352
30
3.36
0
VERTEX
10
10.6591
20
7.99352
30
3.36
0
VERTEX
10
10.6396
20
7.97722
30
3.36
0
VERTEX
10
10.633
20
7.95116
30
3.36
0
VERTEX
10
10.633
20
7.94464
30
3.36
0
VERTEX
10
10.6265
20
7.93812
30
3.36
0
VERTEX
10
10.62
20
7.91205
30
3.36
0
VERTEX
10
10.62
20
7.90553
30
3.36
0
VERTEX
10
10.6135
20
7.90228
30
3.36
0
VERTEX
10
10.6135
20
7.87621
30
3.36
0
VERTEX
10
10.6135
20
7.86969
30
3.36
0
SEQEND
0
POLYLINE
62
224
66
1
70
1
3
mitochondrion
0
VERTEX
10
10.0531
20
8.07304
30
3.36
0
VERTEX
10
10.0573
20
8.06468
30
3.36
0
VERTEX
10
10.0573
20
8.05631
30
3.36
0
VERTEX
10
10.0636
20
8.03959
30
3.36
0
VERTEX
10
10.0699
20
8.03122
30
3.36
0
VERTEX
10
10.072
20
8.02286
30
3.36
0
VERTEX
10
10.0782
20
8.01449
30
3.36
0
VERTEX
10
10.0803
20
8.00613
30
3.36
0
VERTEX
10
10.095
20
7.9894
30
3.36
0
VERTEX
10
10.095
20
7.98104
30
3.36
0
VERTEX
10
10.1012
20
7.97268
30
3.36
0
VERTEX
10
10.1326
20
7.95595
30
3.36
0
VERTEX
10
10.141
20
7.95386
30
3.36
0
VERTEX
10
10.1451
20
7.94968
30
3.36
0
VERTEX
10
10.1619
20
7.94968
30
3.36
0
VERTEX
10
10.1953
20
7.93922
30
3.36
0
VERTEX
10
10.1974
20
7.93713
30
3.36
0
VERTEX
10
10.2141
20
7.93922
30
3.36
0
VERTEX
10
10.2476
20
7.95177
30
3.36
0
VERTEX
10
10.2622
20
7.9664
30
3.36
0
VERTEX
10
10.2685
20
7.97268
30
3.36
0
VERTEX
10
10.2748
20
7.9894
30
3.36
0
VERTEX
10
10.2727
20
8.05631
30
3.36
0
VERTEX
10
10.2706
20
8.08977
30
3.36
0
VERTEX
10
10.2664
20
8.1065
30
3.36
0
VERTEX
10
10.2643
20
8.11486
30
3.36
0
VERTEX
10
10.2455
20
8.14622
30
3.36
0
VERTEX
10
10.2183
20
8.17759
30
3.36
0
VERTEX
10
10.2121
20
8.18386
30
3.36
0
VERTEX
10
10.2037
20
8.18595
30
3.36
0
VERTEX
10
10.1974
20
8.19222
30
3.36
0
VERTEX
10
10.164
20
8.1964
30
3.36
0
VERTEX
10
10.1305
20
8.19431
30
3.36
0
VERTEX
10
10.0971
20
8.18804
30
3.36
0
VERTEX
10
10.0929
20
8.18804
30
3.36
0
VERTEX
10
10.0887
20
8.18386
30
3.36
0
VERTEX
10
10.0803
20
8.18386
30
3.36
0
VERTEX
10
10.0761
20
8.18177
30
3.36
0
VERTEX
10
10.0761
20
8.17759
30
3.36
0
VERTEX
10
10.0636
20
8.16295
30
3.36
0
VERTEX
10
10.0552
20
8.14622
30
3.36
0
VERTEX
10
10.0531
20
8.07931
30
3.36
0
VERTEX
10
10.0531
20
8.07513
30
3.36
0
SEQEND
0
POLYLINE
62
227
66
1
70
1
3
endoplasmic_reticulum
0
VERTEX
10
10.1896
20
8.27113
30
3.36
0
VERTEX
10
10.2195
20
8.25247
30
3.36
0
VERTEX
10
10.2232
20
8.24874
30
3.36
0
VERTEX
10
10.2531
20
8.24687
30
3.36
0
VERTEX
10
10.2568
20
8.2506
30
3.36
0
VERTEX
10
10.2549
20
8.26553
30
3.36
0
VERTEX
10
10.2456
20
8.2786
30
3.36
0
VERTEX
10
10.2419
20
8.2786
30
3.36
0
VERTEX
10
10.2363
20
8.28606
30
3.36
0
VERTEX
10
10.2064
20
8.28793
30
3.36
0
VERTEX
10
10.1989
20
8.28793
30
3.36
0
VERTEX
10
10.1952
20
8.28606
30
3.36
0
VERTEX
10
10.1896
20
8.27673
30
3.36
0
VERTEX
10
10.1896
20
8.273
30
3.36
0
SEQEND
0
POLYLINE
62
227
66
1
70
1
3
endoplasmic_reticulum
0
VERTEX
10
9.9918
20
8.18902
30
3.36
0
VERTEX
10
9.99553
20
8.15916
30
3.36
0
VERTEX
10
10.003
20
8.15356
30
3.36
0
VERTEX
10
10.0179
20
8.15169
30
3.36
0
VERTEX
10
10.0217
20
8.15543
30
3.36
0
VERTEX
10
10.0291
20
8.15543
30
3.36
0
VERTEX
10
10.031
20
8.18528
30
3.36
0
VERTEX
10
10.031
20
8.19275
30
3.36
0
VERTEX
10
10.0422
20
8.20581
30
3.36
0
VERTEX
10
10.0496
20
8.20768
30
3.36
0
VERTEX
10
10.0534
20
8.21141
30
3.36
0
VERTEX
10
10.0832
20
8.21888
30
3.36
0
VERTEX
10
10.0907
20
8.21888
30
3.36
0
VERTEX
10
10.0963
20
8.22448
30
3.36
0
VERTEX
10
10.1038
20
8.22448
30
3.36
0
VERTEX
10
10.1094
20
8.23941
30
3.36
0
VERTEX
10
10.1056
20
8.25434
30
3.36
0
VERTEX
10
10.1056
20
8.25807
30
3.36
0
VERTEX
10
10.0907
20
8.25993
30
3.36
0
VERTEX
10
10.0758
20
8.25807
30
3.36
0
VERTEX
10
10.0608
20
8.25247
30
3.36
0
VERTEX
10
10.0459
20
8.2506
30
3.36
0
VERTEX
10
10.0385
20
8.24874
30
3.36
0
VERTEX
10
10.0347
20
8.24874
30
3.36
0
VERTEX
10
10.0273
20
8.24314
30
3.36
0
VERTEX
10
10.0198
20
8.24127
30
3.36
0
VERTEX
10
10.0161
20
8.23754
30
3.36
0
VERTEX
10
10.0086
20
8.23567
30
3.36
0
VERTEX
10
10.0011
20
8.23007
30
3.36
0
VERTEX
10
9.9918
20
8.21701
30
3.36
0
VERTEX
10
9.9918
20
8.20208
30
3.36
0
VERTEX
10
9.9918
20
8.19462
30
3.36
0
VERTEX
10
9.9918
20
8.19088
30
3.36
0
SEQEND
0
POLYLINE
62
227
66
1
70
1
3
endoplasmic_reticulum
0
VERTEX
10
10.0608
20
8.4111
30
3.36
0
VERTEX
10
10.0664
20
8.40363
30
3.36
0
VERTEX
10
10.0664
20
8.3999
30
3.36
0
VERTEX
10
10.0795
20
8.38684
30
3.36
0
VERTEX
10
10.087
20
8.38497
30
3.36
0
VERTEX
10
10.0944
20
8.38684
30
3.36
0
VERTEX
10
10.0982
20
8.38684
30
3.36
0
VERTEX
10
10.1094
20
8.3999
30
3.36
0
VERTEX
10
10.1112
20
8.41483
30
3.36
0
VERTEX
10
10.115
20
8.42043
30
3.36
0
VERTEX
10
10.1131
20
8.43536
30
3.36
0
VERTEX
10
10.1075
20
8.43909
30
3.36
0
VERTEX
10
10.0982
20
8.45216
30
3.36
0
VERTEX
10
10.0926
20
8.45775
30
3.36
0
VERTEX
10
10.0627
20
8.44096
30
3.36
0
VERTEX
10
10.0608
20
8.41296
30
3.36
0
SEQEND
0
ENDSEC
0
EOF
