0
SECTION
2
ENTITIES
0
POLYLINE
62
31
66
1
70
1
3
contour
0
VERTEX
10
8.90941
20
9.33515
30
6.16
0
VERTEX
10
8.91606
20
9.31741
30
6.16
0
VERTEX
10
8.93158
20
9.31075
30
6.16
0
VERTEX
10
9.0735
20
9.30854
30
6.16
0
VERTEX
10
9.09123
20
9.30632
30
6.16
0
VERTEX
10
9.1001
20
9.30632
30
6.16
0
VERTEX
10
9.11784
20
9.29302
30
6.16
0
VERTEX
10
9.12671
20
9.2908
30
6.16
0
VERTEX
10
9.14445
20
9.27971
30
6.16
0
VERTEX
10
9.16219
20
9.27306
30
6.16
0
VERTEX
10
9.19767
20
9.27084
30
6.16
0
VERTEX
10
9.20654
20
9.26862
30
6.16
0
VERTEX
10
9.22428
20
9.27306
30
6.16
0
VERTEX
10
9.24202
20
9.27306
30
6.16
0
VERTEX
10
9.25089
20
9.27528
30
6.16
0
VERTEX
10
9.26862
20
9.27306
30
6.16
0
VERTEX
10
9.28415
20
9.26641
30
6.16
0
VERTEX
10
9.3551
20
9.26197
30
6.16
0
VERTEX
10
9.42606
20
9.26641
30
6.16
0
VERTEX
10
9.44158
20
9.27971
30
6.16
0
VERTEX
10
9.4571
20
9.29745
30
6.16
0
VERTEX
10
9.46375
20
9.30632
30
6.16
0
VERTEX
10
9.47262
20
9.30854
30
6.16
0
VERTEX
10
9.47927
20
9.31519
30
6.16
0
VERTEX
10
9.48149
20
9.33293
30
6.16
0
VERTEX
10
9.47706
20
9.35067
30
6.16
0
VERTEX
10
9.47484
20
9.38615
30
6.16
0
VERTEX
10
9.47262
20
9.40388
30
6.16
0
VERTEX
10
9.47262
20
9.41275
30
6.16
0
VERTEX
10
9.47706
20
9.42162
30
6.16
0
VERTEX
10
9.47706
20
9.49258
30
6.16
0
VERTEX
10
9.47706
20
9.51032
30
6.16
0
VERTEX
10
9.46819
20
9.5458
30
6.16
0
VERTEX
10
9.45488
20
9.56132
30
6.16
0
VERTEX
10
9.4438
20
9.5724
30
6.16
0
VERTEX
10
9.37506
20
9.60345
30
6.16
0
VERTEX
10
9.35732
20
9.61675
30
6.16
0
VERTEX
10
9.33958
20
9.6234
30
6.16
0
VERTEX
10
9.32184
20
9.62562
30
6.16
0
VERTEX
10
9.3041
20
9.6234
30
6.16
0
VERTEX
10
9.29967
20
9.6234
30
6.16
0
VERTEX
10
9.29523
20
9.61897
30
6.16
0
VERTEX
10
9.27749
20
9.61675
30
6.16
0
VERTEX
10
9.25975
20
9.60788
30
6.16
0
VERTEX
10
9.2531
20
9.60123
30
6.16
0
VERTEX
10
9.24423
20
9.59901
30
6.16
0
VERTEX
10
9.22649
20
9.58793
30
6.16
0
VERTEX
10
9.20876
20
9.58127
30
6.16
0
VERTEX
10
9.20432
20
9.58127
30
6.16
0
VERTEX
10
9.19767
20
9.5724
30
6.16
0
VERTEX
10
9.16219
20
9.56132
30
6.16
0
VERTEX
10
9.15332
20
9.55688
30
6.16
0
VERTEX
10
9.13558
20
9.55688
30
6.16
0
VERTEX
10
9.11784
20
9.56132
30
6.16
0
VERTEX
10
9.08236
20
9.56132
30
6.16
0
VERTEX
10
9.06463
20
9.56353
30
6.16
0
VERTEX
10
9.06019
20
9.56575
30
6.16
0
VERTEX
10
9.04245
20
9.55688
30
6.16
0
VERTEX
10
9.03358
20
9.55023
30
6.16
0
VERTEX
10
9.02693
20
9.53249
30
6.16
0
VERTEX
10
9.02693
20
9.51475
30
6.16
0
VERTEX
10
9.03137
20
9.49701
30
6.16
0
VERTEX
10
9.04689
20
9.46154
30
6.16
0
VERTEX
10
9.05132
20
9.45932
30
6.16
0
VERTEX
10
9.05132
20
9.44158
30
6.16
0
VERTEX
10
9.05132
20
9.43271
30
6.16
0
VERTEX
10
9.03802
20
9.41941
30
6.16
0
VERTEX
10
8.96706
20
9.39501
30
6.16
0
VERTEX
10
8.96263
20
9.39501
30
6.16
0
VERTEX
10
8.95819
20
9.39058
30
6.16
0
VERTEX
10
8.94045
20
9.38615
30
6.16
0
VERTEX
10
8.93158
20
9.38393
30
6.16
0
VERTEX
10
8.91606
20
9.37062
30
6.16
0
VERTEX
10
8.91163
20
9.36619
30
6.16
0
VERTEX
10
8.90941
20
9.34845
30
6.16
0
VERTEX
10
8.90941
20
9.33958
30
6.16
0
VERTEX
10
8.90941
20
9.33736
30
6.16
0
SEQEND
0
POLYLINE
62
224
66
1
70
1
3
mitochondrion
0
VERTEX
10
9.14347
20
9.4007
30
6.16
0
VERTEX
10
9.14625
20
9.39513
30
6.16
0
VERTEX
10
9.14764
20
9.38401
30
6.16
0
VERTEX
10
9.15459
20
9.36176
30
6.16
0
VERTEX
10
9.15876
20
9.35759
30
6.16
0
VERTEX
10
9.15876
20
9.35481
30
6.16
0
VERTEX
10
9.17962
20
9.33813
30
6.16
0
VERTEX
10
9.1824
20
9.33813
30
6.16
0
VERTEX
10
9.18518
20
9.33535
30
6.16
0
VERTEX
10
9.20743
20
9.32839
30
6.16
0
VERTEX
10
9.21299
20
9.32839
30
6.16
0
VERTEX
10
9.21855
20
9.32561
30
6.16
0
VERTEX
10
9.2408
20
9.327
30
6.16
0
VERTEX
10
9.25192
20
9.32978
30
6.16
0
VERTEX
10
9.25748
20
9.32978
30
6.16
0
VERTEX
10
9.26165
20
9.33396
30
6.16
0
VERTEX
10
9.26443
20
9.33396
30
6.16
0
VERTEX
10
9.26722
20
9.33674
30
6.16
0
VERTEX
10
9.27695
20
9.33952
30
6.16
0
VERTEX
10
9.28251
20
9.3423
30
6.16
0
VERTEX
10
9.28529
20
9.34508
30
6.16
0
VERTEX
10
9.30615
20
9.35342
30
6.16
0
VERTEX
10
9.30893
20
9.36455
30
6.16
0
VERTEX
10
9.30893
20
9.37011
30
6.16
0
VERTEX
10
9.31588
20
9.39096
30
6.16
0
VERTEX
10
9.31866
20
9.39653
30
6.16
0
VERTEX
10
9.32144
20
9.39931
30
6.16
0
VERTEX
10
9.32144
20
9.40209
30
6.16
0
VERTEX
10
9.32561
20
9.40487
30
6.16
0
VERTEX
10
9.32839
20
9.41043
30
6.16
0
VERTEX
10
9.32839
20
9.43268
30
6.16
0
VERTEX
10
9.32144
20
9.45492
30
6.16
0
VERTEX
10
9.31588
20
9.46049
30
6.16
0
VERTEX
10
9.3131
20
9.46605
30
6.16
0
VERTEX
10
9.31032
20
9.46605
30
6.16
0
VERTEX
10
9.30059
20
9.47439
30
6.16
0
VERTEX
10
9.2978
20
9.47856
30
6.16
0
VERTEX
10
9.28668
20
9.48134
30
6.16
0
VERTEX
10
9.28112
20
9.48273
30
6.16
0
VERTEX
10
9.27139
20
9.49246
30
6.16
0
VERTEX
10
9.26722
20
9.49664
30
6.16
0
VERTEX
10
9.24497
20
9.49525
30
6.16
0
VERTEX
10
9.23524
20
9.49107
30
6.16
0
VERTEX
10
9.22967
20
9.48968
30
6.16
0
VERTEX
10
9.2255
20
9.48551
30
6.16
0
VERTEX
10
9.21994
20
9.48412
30
6.16
0
VERTEX
10
9.21577
20
9.47995
30
6.16
0
VERTEX
10
9.21021
20
9.47856
30
6.16
0
VERTEX
10
9.20047
20
9.47022
30
6.16
0
VERTEX
10
9.19491
20
9.46883
30
6.16
0
VERTEX
10
9.18379
20
9.46188
30
6.16
0
VERTEX
10
9.17406
20
9.45214
30
6.16
0
VERTEX
10
9.16849
20
9.44241
30
6.16
0
VERTEX
10
9.16293
20
9.43685
30
6.16
0
VERTEX
10
9.15737
20
9.42572
30
6.16
0
VERTEX
10
9.1532
20
9.42016
30
6.16
0
VERTEX
10
9.14903
20
9.40904
30
6.16
0
VERTEX
10
9.14486
20
9.40348
30
6.16
0
VERTEX
10
9.14347
20
9.40209
30
6.16
0
SEQEND
0
POLYLINE
62
227
66
1
70
1
3
endoplasmic_reticulum
0
VERTEX
10
9.28911
20
9.51504
30
6.16
0
VERTEX
10
9.29091
20
9.51146
30
6.16
0
VERTEX
10
9.29091
20
9.50966
30
6.16
0
VERTEX
10
9.29449
20
9.50787
30
6.16
0
VERTEX
10
9.29629
20
9.50608
30
6.16
0
VERTEX
10
9.31063
20
9.50608
30
6.16
0
VERTEX
10
9.31422
20
9.50608
30
6.16
0
VERTEX
10
9.31601
20
9.50877
30
6.16
0
VERTEX
10
9.3196
20
9.50877
30
6.16
0
VERTEX
10
9.32946
20
9.52132
30
6.16
0
VERTEX
10
9.33125
20
9.52849
30
6.16
0
VERTEX
10
9.33215
20
9.54284
30
6.16
0
VERTEX
10
9.33484
20
9.55718
30
6.16
0
VERTEX
10
9.33394
20
9.56077
30
6.16
0
VERTEX
10
9.33573
20
9.56256
30
6.16
0
VERTEX
10
9.33484
20
9.56973
30
6.16
0
VERTEX
10
9.33305
20
9.57242
30
6.16
0
VERTEX
10
9.33215
20
9.58677
30
6.16
0
VERTEX
10
9.33125
20
9.59035
30
6.16
0
VERTEX
10
9.33125
20
9.59215
30
6.16
0
VERTEX
10
9.32767
20
9.59394
30
6.16
0
VERTEX
10
9.31332
20
9.59663
30
6.16
0
VERTEX
10
9.30973
20
9.59753
30
6.16
0
VERTEX
10
9.30256
20
9.59663
30
6.16
0
VERTEX
10
9.29987
20
9.59484
30
6.16
0
VERTEX
10
9.2936
20
9.58856
30
6.16
0
VERTEX
10
9.29091
20
9.58587
30
6.16
0
VERTEX
10
9.2918
20
9.5787
30
6.16
0
VERTEX
10
9.2927
20
9.57511
30
6.16
0
VERTEX
10
9.29898
20
9.57063
30
6.16
0
VERTEX
10
9.30077
20
9.57063
30
6.16
0
VERTEX
10
9.30346
20
9.56346
30
6.16
0
VERTEX
10
9.30256
20
9.54911
30
6.16
0
VERTEX
10
9.30077
20
9.54194
30
6.16
0
VERTEX
10
9.29629
20
9.53566
30
6.16
0
VERTEX
10
9.29449
20
9.53566
30
6.16
0
VERTEX
10
9.29091
20
9.53297
30
6.16
0
VERTEX
10
9.28911
20
9.52939
30
6.16
0
VERTEX
10
9.28911
20
9.51594
30
6.16
0
SEQEND
0
POLYLINE
62
31
66
1
70
1
3
contour
0
VERTEX
10
7.2652
20
9.17807
30
6.16
0
VERTEX
10
7.27052
20
9.17274
30
6.16
0
VERTEX
10
7.27585
20
9.15143
30
6.16
0
VERTEX
10
7.27852
20
9.14077
30
6.16
0
VERTEX
10
7.28384
20
9.13811
30
6.16
0
VERTEX
10
7.28651
20
9.12745
30
6.16
0
VERTEX
10
7.2945
20
9.11679
30
6.16
0
VERTEX
10
7.29717
20
9.11147
30
6.16
0
VERTEX
10
7.30249
20
9.11147
30
6.16
0
VERTEX
10
7.32114
20
9.09015
30
6.16
0
VERTEX
10
7.34246
20
9.07683
30
6.16
0
VERTEX
10
7.36377
20
9.0715
30
6.16
0
VERTEX
10
7.4064
20
9.07417
30
6.16
0
VERTEX
10
7.44902
20
9.08216
30
6.16
0
VERTEX
10
7.53428
20
9.08482
30
6.16
0
VERTEX
10
7.54493
20
9.08482
30
6.16
0
VERTEX
10
7.5849
20
9.05818
30
6.16
0
VERTEX
10
7.59555
20
9.05019
30
6.16
0
VERTEX
10
7.60088
20
9.05019
30
6.16
0
VERTEX
10
7.6142
20
9.03687
30
6.16
0
VERTEX
10
7.65683
20
9.03154
30
6.16
0
VERTEX
10
7.67814
20
9.02888
30
6.16
0
VERTEX
10
7.69946
20
9.02088
30
6.16
0
VERTEX
10
7.78471
20
9.01556
30
6.16
0
VERTEX
10
7.80602
20
9.02088
30
6.16
0
VERTEX
10
7.81668
20
9.02621
30
6.16
0
VERTEX
10
7.82201
20
9.02621
30
6.16
0
VERTEX
10
7.86463
20
9.05285
30
6.16
0
VERTEX
10
7.88328
20
9.06618
30
6.16
0
VERTEX
10
7.89394
20
9.0715
30
6.16
0
VERTEX
10
7.90993
20
9.09015
30
6.16
0
VERTEX
10
7.94989
20
9.12479
30
6.16
0
VERTEX
10
7.97919
20
9.16475
30
6.16
0
VERTEX
10
7.98719
20
9.17541
30
6.16
0
VERTEX
10
7.99251
20
9.19672
30
6.16
0
VERTEX
10
7.98985
20
9.23935
30
6.16
0
VERTEX
10
7.98719
20
9.26066
30
6.16
0
VERTEX
10
7.97387
20
9.28197
30
6.16
0
VERTEX
10
7.95788
20
9.29796
30
6.16
0
VERTEX
10
7.93657
20
9.31128
30
6.16
0
VERTEX
10
7.92857
20
9.31661
30
6.16
0
VERTEX
10
7.92857
20
9.32194
30
6.16
0
VERTEX
10
7.90993
20
9.34059
30
6.16
0
VERTEX
10
7.87529
20
9.36723
30
6.16
0
VERTEX
10
7.85664
20
9.38321
30
6.16
0
VERTEX
10
7.84599
20
9.38854
30
6.16
0
VERTEX
10
7.84066
20
9.3912
30
6.16
0
VERTEX
10
7.84066
20
9.39653
30
6.16
0
VERTEX
10
7.83
20
9.40453
30
6.16
0
VERTEX
10
7.79004
20
9.41785
30
6.16
0
VERTEX
10
7.78737
20
9.42051
30
6.16
0
VERTEX
10
7.79803
20
9.42051
30
6.16
0
VERTEX
10
7.80336
20
9.42317
30
6.16
0
VERTEX
10
7.76073
20
9.4285
30
6.16
0
VERTEX
10
7.73942
20
9.4365
30
6.16
0
VERTEX
10
7.7181
20
9.43916
30
6.16
0
VERTEX
10
7.70745
20
9.44449
30
6.16
0
VERTEX
10
7.66482
20
9.44182
30
6.16
0
VERTEX
10
7.65416
20
9.43916
30
6.16
0
VERTEX
10
7.63552
20
9.42051
30
6.16
0
VERTEX
10
7.6142
20
9.41252
30
6.16
0
VERTEX
10
7.60355
20
9.40985
30
6.16
0
VERTEX
10
7.60088
20
9.40453
30
6.16
0
VERTEX
10
7.51563
20
9.40719
30
6.16
0
VERTEX
10
7.49431
20
9.3992
30
6.16
0
VERTEX
10
7.473
20
9.39653
30
6.16
0
VERTEX
10
7.45169
20
9.38321
30
6.16
0
VERTEX
10
7.44636
20
9.37788
30
6.16
0
VERTEX
10
7.42505
20
9.37522
30
6.16
0
VERTEX
10
7.42238
20
9.36989
30
6.16
0
VERTEX
10
7.40107
20
9.36456
30
6.16
0
VERTEX
10
7.39574
20
9.36456
30
6.16
0
VERTEX
10
7.39041
20
9.35923
30
6.16
0
VERTEX
10
7.37976
20
9.35657
30
6.16
0
VERTEX
10
7.35844
20
9.34325
30
6.16
0
VERTEX
10
7.34779
20
9.33526
30
6.16
0
VERTEX
10
7.34246
20
9.33526
30
6.16
0
VERTEX
10
7.32381
20
9.31661
30
6.16
0
VERTEX
10
7.32114
20
9.30595
30
6.16
0
VERTEX
10
7.30249
20
9.2873
30
6.16
0
VERTEX
10
7.29717
20
9.2873
30
6.16
0
VERTEX
10
7.28384
20
9.26865
30
6.16
0
VERTEX
10
7.27852
20
9.24734
30
6.16
0
VERTEX
10
7.27052
20
9.23935
30
6.16
0
VERTEX
10
7.2652
20
9.21803
30
6.16
0
VERTEX
10
7.2652
20
9.19672
30
6.16
0
VERTEX
10
7.2652
20
9.18606
30
6.16
0
VERTEX
10
7.2652
20
9.18074
30
6.16
0
SEQEND
0
POLYLINE
62
236
66
1
70
1
3
postsynaptic_density
0
VERTEX
10
7.37911
20
9.07342
30
6.16
0
VERTEX
10
7.38585
20
9.06162
30
6.16
0
VERTEX
10
7.38754
20
9.04813
30
6.16
0
VERTEX
10
7.39428
20
9.04476
30
6.16
0
VERTEX
10
7.4044
20
9.03127
30
6.16
0
VERTEX
10
7.41114
20
9.0279
30
6.16
0
VERTEX
10
7.41451
20
9.0279
30
6.16
0
VERTEX
10
7.4162
20
9.02453
30
6.16
0
VERTEX
10
7.44317
20
9.02622
30
6.16
0
VERTEX
10
7.47015
20
9.03464
30
6.16
0
VERTEX
10
7.48363
20
9.04307
30
6.16
0
VERTEX
10
7.49543
20
9.05656
30
6.16
0
VERTEX
10
7.49543
20
9.0633
30
6.16
0
VERTEX
10
7.50386
20
9.07511
30
6.16
0
VERTEX
10
7.50386
20
9.07848
30
6.16
0
VERTEX
10
7.50892
20
9.08522
30
6.16
0
VERTEX
10
7.51061
20
9.1122
30
6.16
0
VERTEX
10
7.50723
20
9.16614
30
6.16
0
VERTEX
10
7.48026
20
9.17963
30
6.16
0
VERTEX
10
7.46677
20
9.18637
30
6.16
0
VERTEX
10
7.45329
20
9.18806
30
6.16
0
VERTEX
10
7.44654
20
9.18469
30
6.16
0
VERTEX
10
7.44317
20
9.18469
30
6.16
0
VERTEX
10
7.4398
20
9.18132
30
6.16
0
VERTEX
10
7.43643
20
9.18132
30
6.16
0
VERTEX
10
7.43306
20
9.17794
30
6.16
0
VERTEX
10
7.42968
20
9.17794
30
6.16
0
VERTEX
10
7.428
20
9.17457
30
6.16
0
VERTEX
10
7.42463
20
9.17457
30
6.16
0
VERTEX
10
7.40102
20
9.15097
30
6.16
0
VERTEX
10
7.39765
20
9.14423
30
6.16
0
VERTEX
10
7.39428
20
9.14086
30
6.16
0
VERTEX
10
7.39259
20
9.13411
30
6.16
0
VERTEX
10
7.38754
20
9.12737
30
6.16
0
VERTEX
10
7.37911
20
9.10039
30
6.16
0
VERTEX
10
7.37911
20
9.07511
30
6.16
0
SEQEND
0
POLYLINE
62
236
66
1
70
1
3
postsynaptic_density
0
VERTEX
10
7.50386
20
9.0515
30
6.16
0
VERTEX
10
7.50723
20
9.04476
30
6.16
0
VERTEX
10
7.51061
20
9.04139
30
6.16
0
VERTEX
10
7.51061
20
9.03802
30
6.16
0
VERTEX
10
7.52072
20
9.02959
30
6.16
0
VERTEX
10
7.52747
20
9.02284
30
6.16
0
VERTEX
10
7.52915
20
9.01947
30
6.16
0
VERTEX
10
7.54264
20
9.01947
30
6.16
0
VERTEX
10
7.55613
20
9.02284
30
6.16
0
VERTEX
10
7.56961
20
9.02959
30
6.16
0
VERTEX
10
7.57467
20
9.03464
30
6.16
0
VERTEX
10
7.57804
20
9.03464
30
6.16
0
VERTEX
10
7.58816
20
9.04645
30
6.16
0
VERTEX
10
7.58816
20
9.04982
30
6.16
0
VERTEX
10
7.5949
20
9.05488
30
6.16
0
VERTEX
10
7.59827
20
9.05825
30
6.16
0
VERTEX
10
7.60164
20
9.05825
30
6.16
0
VERTEX
10
7.60333
20
9.07173
30
6.16
0
VERTEX
10
7.60839
20
9.08522
30
6.16
0
VERTEX
10
7.61176
20
9.09028
30
6.16
0
VERTEX
10
7.6185
20
9.09702
30
6.16
0
VERTEX
10
7.6185
20
9.124
30
6.16
0
VERTEX
10
7.6185
20
9.13748
30
6.16
0
VERTEX
10
7.61682
20
9.14423
30
6.16
0
VERTEX
10
7.61682
20
9.1476
30
6.16
0
VERTEX
10
7.61007
20
9.15097
30
6.16
0
VERTEX
10
7.5831
20
9.15266
30
6.16
0
VERTEX
10
7.57636
20
9.15266
30
6.16
0
VERTEX
10
7.57298
20
9.15266
30
6.16
0
VERTEX
10
7.56961
20
9.14928
30
6.16
0
VERTEX
10
7.56287
20
9.14928
30
6.16
0
VERTEX
10
7.55613
20
9.14423
30
6.16
0
VERTEX
10
7.5477
20
9.13243
30
6.16
0
VERTEX
10
7.53421
20
9.12231
30
6.16
0
VERTEX
10
7.52409
20
9.10882
30
6.16
0
VERTEX
10
7.51229
20
9.08354
30
6.16
0
VERTEX
10
7.50386
20
9.07005
30
6.16
0
VERTEX
10
7.50386
20
9.05656
30
6.16
0
VERTEX
10
7.50386
20
9.05319
30
6.16
0
SEQEND
0
POLYLINE
62
236
66
1
70
1
3
postsynaptic_density
0
VERTEX
10
7.67245
20
8.98913
30
6.16
0
VERTEX
10
7.67414
20
8.97564
30
6.16
0
VERTEX
10
7.67582
20
8.9689
30
6.16
0
VERTEX
10
7.68931
20
8.96047
30
6.16
0
VERTEX
10
7.7028
20
8.95878
30
6.16
0
VERTEX
10
7.70954
20
8.95878
30
6.16
0
VERTEX
10
7.72303
20
8.95372
30
6.16
0
VERTEX
10
7.75
20
8.95541
30
6.16
0
VERTEX
10
7.7618
20
8.9689
30
6.16
0
VERTEX
10
7.76686
20
8.97564
30
6.16
0
VERTEX
10
7.77023
20
8.98913
30
6.16
0
VERTEX
10
7.7736
20
8.9925
30
6.16
0
VERTEX
10
7.77698
20
9.00598
30
6.16
0
VERTEX
10
7.77698
20
9.05993
30
6.16
0
VERTEX
10
7.77698
20
9.08691
30
6.16
0
VERTEX
10
7.77529
20
9.10039
30
6.16
0
VERTEX
10
7.77529
20
9.10377
30
6.16
0
VERTEX
10
7.76855
20
9.10545
30
6.16
0
VERTEX
10
7.7146
20
9.10039
30
6.16
0
VERTEX
10
7.68762
20
9.09871
30
6.16
0
VERTEX
10
7.68594
20
9.09196
30
6.16
0
VERTEX
10
7.68762
20
9.08522
30
6.16
0
VERTEX
10
7.68257
20
9.07173
30
6.16
0
VERTEX
10
7.67919
20
9.06499
30
6.16
0
VERTEX
10
7.67919
20
9.0515
30
6.16
0
VERTEX
10
7.67414
20
9.03802
30
6.16
0
VERTEX
10
7.67245
20
9.01104
30
6.16
0
VERTEX
10
7.67245
20
8.99756
30
6.16
0
VERTEX
10
7.67245
20
8.99081
30
6.16
0
SEQEND
0
ENDSEC
0
EOF
