0
SECTION
2
ENTITIES
0
POLYLINE
62
31
66
1
70
1
3
contour
0
VERTEX
10
10.2044
20
9.49036
30
6.68
0
VERTEX
10
10.2132
20
9.45488
30
6.68
0
VERTEX
10
10.2199
20
9.43714
30
6.68
0
VERTEX
10
10.2332
20
9.42384
30
6.68
0
VERTEX
10
10.2465
20
9.4061
30
6.68
0
VERTEX
10
10.2797
20
9.38171
30
6.68
0
VERTEX
10
10.313
20
9.36175
30
6.68
0
VERTEX
10
10.3219
20
9.3551
30
6.68
0
VERTEX
10
10.3307
20
9.3551
30
6.68
0
VERTEX
10
10.3485
20
9.34401
30
6.68
0
VERTEX
10
10.3529
20
9.34401
30
6.68
0
VERTEX
10
10.3596
20
9.33736
30
6.68
0
VERTEX
10
10.3773
20
9.33071
30
6.68
0
VERTEX
10
10.3928
20
9.31741
30
6.68
0
VERTEX
10
10.4106
20
9.30854
30
6.68
0
VERTEX
10
10.415
20
9.30854
30
6.68
0
VERTEX
10
10.4327
20
9.29302
30
6.68
0
VERTEX
10
10.4505
20
9.28193
30
6.68
0
VERTEX
10
10.4571
20
9.27528
30
6.68
0
VERTEX
10
10.4749
20
9.27084
30
6.68
0
VERTEX
10
10.5104
20
9.28193
30
6.68
0
VERTEX
10
10.5192
20
9.28636
30
6.68
0
VERTEX
10
10.5325
20
9.30188
30
6.68
0
VERTEX
10
10.5414
20
9.33736
30
6.68
0
VERTEX
10
10.5436
20
9.37284
30
6.68
0
VERTEX
10
10.5436
20
9.39058
30
6.68
0
VERTEX
10
10.5436
20
9.39945
30
6.68
0
VERTEX
10
10.548
20
9.40832
30
6.68
0
VERTEX
10
10.548
20
9.47927
30
6.68
0
VERTEX
10
10.548
20
9.51475
30
6.68
0
VERTEX
10
10.5458
20
9.53249
30
6.68
0
VERTEX
10
10.5259
20
9.56797
30
6.68
0
VERTEX
10
10.5126
20
9.58349
30
6.68
0
VERTEX
10
10.5059
20
9.59014
30
6.68
0
VERTEX
10
10.497
20
9.59236
30
6.68
0
VERTEX
10
10.4793
20
9.60345
30
6.68
0
VERTEX
10
10.4438
20
9.61232
30
6.68
0
VERTEX
10
10.3729
20
9.61453
30
6.68
0
VERTEX
10
10.3551
20
9.61453
30
6.68
0
VERTEX
10
10.3463
20
9.61453
30
6.68
0
VERTEX
10
10.3418
20
9.6101
30
6.68
0
VERTEX
10
10.3064
20
9.60788
30
6.68
0
VERTEX
10
10.2886
20
9.60567
30
6.68
0
VERTEX
10
10.2842
20
9.60567
30
6.68
0
VERTEX
10
10.2797
20
9.60123
30
6.68
0
VERTEX
10
10.2443
20
9.58793
30
6.68
0
VERTEX
10
10.2287
20
9.57462
30
6.68
0
VERTEX
10
10.2199
20
9.56797
30
6.68
0
VERTEX
10
10.2199
20
9.56353
30
6.68
0
VERTEX
10
10.2154
20
9.5591
30
6.68
0
VERTEX
10
10.211
20
9.54358
30
6.68
0
VERTEX
10
10.2088
20
9.53471
30
6.68
0
VERTEX
10
10.2044
20
9.53027
30
6.68
0
VERTEX
10
10.2044
20
9.4948
30
6.68
0
VERTEX
10
10.2044
20
9.49258
30
6.68
0
SEQEND
0
POLYLINE
62
31
66
1
70
1
3
contour
0
VERTEX
10
8.26072
20
9.17043
30
6.68
0
VERTEX
10
8.26615
20
9.12698
30
6.68
0
VERTEX
10
8.26886
20
9.10526
30
6.68
0
VERTEX
10
8.28516
20
9.06181
30
6.68
0
VERTEX
10
8.31503
20
9.02379
30
6.68
0
VERTEX
10
8.32589
20
9.01021
30
6.68
0
VERTEX
10
8.34762
20
9.01021
30
6.68
0
VERTEX
10
8.35848
20
9.01021
30
6.68
0
VERTEX
10
8.3802
20
9.02379
30
6.68
0
VERTEX
10
8.39106
20
9.0265
30
6.68
0
VERTEX
10
8.40736
20
9.04008
30
6.68
0
VERTEX
10
8.42908
20
9.05366
30
6.68
0
VERTEX
10
8.43723
20
9.06452
30
6.68
0
VERTEX
10
8.45895
20
9.06995
30
6.68
0
VERTEX
10
8.4671
20
9.08082
30
6.68
0
VERTEX
10
8.48882
20
9.09168
30
6.68
0
VERTEX
10
8.49969
20
9.09168
30
6.68
0
VERTEX
10
8.52141
20
9.11069
30
6.68
0
VERTEX
10
8.53227
20
9.1134
30
6.68
0
VERTEX
10
8.54314
20
9.12155
30
6.68
0
VERTEX
10
8.554
20
9.12426
30
6.68
0
VERTEX
10
8.57301
20
9.14327
30
6.68
0
VERTEX
10
8.59202
20
9.15414
30
6.68
0
VERTEX
10
8.61102
20
9.17586
30
6.68
0
VERTEX
10
8.62189
20
9.18672
30
6.68
0
VERTEX
10
8.63546
20
9.20845
30
6.68
0
VERTEX
10
8.6409
20
9.21659
30
6.68
0
VERTEX
10
8.63818
20
9.23832
30
6.68
0
VERTEX
10
8.63818
20
9.24918
30
6.68
0
VERTEX
10
8.6246
20
9.26819
30
6.68
0
VERTEX
10
8.61374
20
9.27905
30
6.68
0
VERTEX
10
8.60831
20
9.27905
30
6.68
0
VERTEX
10
8.59745
20
9.2872
30
6.68
0
VERTEX
10
8.57572
20
9.2872
30
6.68
0
VERTEX
10
8.56486
20
9.29534
30
6.68
0
VERTEX
10
8.54314
20
9.30078
30
6.68
0
VERTEX
10
8.53227
20
9.30078
30
6.68
0
VERTEX
10
8.52684
20
9.30078
30
6.68
0
VERTEX
10
8.52141
20
9.30621
30
6.68
0
VERTEX
10
8.47796
20
9.30892
30
6.68
0
VERTEX
10
8.43451
20
9.30349
30
6.68
0
VERTEX
10
8.39106
20
9.30349
30
6.68
0
VERTEX
10
8.3802
20
9.30349
30
6.68
0
VERTEX
10
8.35848
20
9.29534
30
6.68
0
VERTEX
10
8.34762
20
9.29263
30
6.68
0
VERTEX
10
8.32861
20
9.27905
30
6.68
0
VERTEX
10
8.31774
20
9.2709
30
6.68
0
VERTEX
10
8.30688
20
9.26819
30
6.68
0
VERTEX
10
8.29602
20
9.25733
30
6.68
0
VERTEX
10
8.29059
20
9.25733
30
6.68
0
VERTEX
10
8.28516
20
9.24646
30
6.68
0
VERTEX
10
8.27973
20
9.24103
30
6.68
0
VERTEX
10
8.26343
20
9.19758
30
6.68
0
VERTEX
10
8.26072
20
9.17586
30
6.68
0
VERTEX
10
8.26072
20
9.17314
30
6.68
0
SEQEND
0
POLYLINE
62
99
66
1
70
1
3
postsynaptic_density
0
VERTEX
10
9.01863
20
10.4974
30
6.68
0
VERTEX
10
9.03689
20
10.4557
30
6.68
0
VERTEX
10
9.0395
20
10.4452
30
6.68
0
VERTEX
10
9.0734
20
10.4113
30
6.68
0
VERTEX
10
9.1073
20
10.3826
30
6.68
0
VERTEX
10
9.11252
20
10.38
30
6.68
0
VERTEX
10
9.11252
20
10.3748
30
6.68
0
VERTEX
10
9.12295
20
10.367
30
6.68
0
VERTEX
10
9.12556
20
10.3618
30
6.68
0
VERTEX
10
9.13599
20
10.3618
30
6.68
0
VERTEX
10
9.14643
20
10.367
30
6.68
0
VERTEX
10
9.14903
20
10.3722
30
6.68
0
VERTEX
10
9.15947
20
10.3722
30
6.68
0
VERTEX
10
9.18033
20
10.38
30
6.68
0
VERTEX
10
9.18555
20
10.3852
30
6.68
0
VERTEX
10
9.19598
20
10.3879
30
6.68
0
VERTEX
10
9.20119
20
10.3879
30
6.68
0
VERTEX
10
9.2038
20
10.4087
30
6.68
0
VERTEX
10
9.19598
20
10.4165
30
6.68
0
VERTEX
10
9.19598
20
10.4374
30
6.68
0
VERTEX
10
9.19598
20
10.4478
30
6.68
0
VERTEX
10
9.18294
20
10.4661
30
6.68
0
VERTEX
10
9.18033
20
10.4765
30
6.68
0
VERTEX
10
9.18033
20
10.4817
30
6.68
0
VERTEX
10
9.17251
20
10.4922
30
6.68
0
VERTEX
10
9.16729
20
10.4974
30
6.68
0
VERTEX
10
9.16729
20
10.5026
30
6.68
0
VERTEX
10
9.16207
20
10.5052
30
6.68
0
VERTEX
10
9.15947
20
10.5157
30
6.68
0
VERTEX
10
9.14121
20
10.5313
30
6.68
0
VERTEX
10
9.13599
20
10.5417
30
6.68
0
VERTEX
10
9.13078
20
10.5417
30
6.68
0
VERTEX
10
9.10991
20
10.56
30
6.68
0
VERTEX
10
9.09948
20
10.5678
30
6.68
0
VERTEX
10
9.08905
20
10.5678
30
6.68
0
VERTEX
10
9.08383
20
10.5678
30
6.68
0
VERTEX
10
9.06558
20
10.5522
30
6.68
0
VERTEX
10
9.05775
20
10.5443
30
6.68
0
VERTEX
10
9.05254
20
10.5443
30
6.68
0
VERTEX
10
9.02385
20
10.5052
30
6.68
0
VERTEX
10
9.01863
20
10.5026
30
6.68
0
VERTEX
10
9.01863
20
10.5
30
6.68
0
SEQEND
0
POLYLINE
62
224
66
1
70
1
3
mitochondrion
0
VERTEX
10
8.85426
20
9.63151
30
6.68
0
VERTEX
10
8.85843
20
9.60926
30
6.68
0
VERTEX
10
8.85843
20
9.59814
30
6.68
0
VERTEX
10
8.86816
20
9.57589
30
6.68
0
VERTEX
10
8.87372
20
9.56616
30
6.68
0
VERTEX
10
8.88346
20
9.55503
30
6.68
0
VERTEX
10
8.88902
20
9.55225
30
6.68
0
VERTEX
10
8.89319
20
9.54669
30
6.68
0
VERTEX
10
8.89875
20
9.54391
30
6.68
0
VERTEX
10
8.90848
20
9.53418
30
6.68
0
VERTEX
10
8.91405
20
9.5314
30
6.68
0
VERTEX
10
8.91683
20
9.52862
30
6.68
0
VERTEX
10
8.92795
20
9.52584
30
6.68
0
VERTEX
10
8.92934
20
9.52305
30
6.68
0
VERTEX
10
8.9349
20
9.52305
30
6.68
0
VERTEX
10
8.94046
20
9.51888
30
6.68
0
VERTEX
10
8.96271
20
9.51471
30
6.68
0
VERTEX
10
8.97383
20
9.51054
30
6.68
0
VERTEX
10
8.9794
20
9.51054
30
6.68
0
VERTEX
10
8.98913
20
9.5022
30
6.68
0
VERTEX
10
9.00025
20
9.49942
30
6.68
0
VERTEX
10
9.00303
20
9.49942
30
6.68
0
VERTEX
10
9.00303
20
9.49664
30
6.68
0
VERTEX
10
9.0086
20
9.49246
30
6.68
0
VERTEX
10
9.03084
20
9.48829
30
6.68
0
VERTEX
10
9.07534
20
9.48968
30
6.68
0
VERTEX
10
9.0809
20
9.49246
30
6.68
0
VERTEX
10
9.09202
20
9.49386
30
6.68
0
VERTEX
10
9.09758
20
9.49942
30
6.68
0
VERTEX
10
9.11983
20
9.50359
30
6.68
0
VERTEX
10
9.1393
20
9.52166
30
6.68
0
VERTEX
10
9.14208
20
9.52723
30
6.68
0
VERTEX
10
9.14764
20
9.53001
30
6.68
0
VERTEX
10
9.15598
20
9.53974
30
6.68
0
VERTEX
10
9.16015
20
9.54947
30
6.68
0
VERTEX
10
9.16015
20
9.55225
30
6.68
0
VERTEX
10
9.16849
20
9.56199
30
6.68
0
VERTEX
10
9.16849
20
9.56477
30
6.68
0
VERTEX
10
9.17128
20
9.56616
30
6.68
0
VERTEX
10
9.17545
20
9.5884
30
6.68
0
VERTEX
10
9.17545
20
9.59953
30
6.68
0
VERTEX
10
9.17267
20
9.61065
30
6.68
0
VERTEX
10
9.17267
20
9.61621
30
6.68
0
VERTEX
10
9.16849
20
9.62734
30
6.68
0
VERTEX
10
9.16571
20
9.63012
30
6.68
0
VERTEX
10
9.16432
20
9.63568
30
6.68
0
VERTEX
10
9.16015
20
9.64124
30
6.68
0
VERTEX
10
9.15876
20
9.6468
30
6.68
0
VERTEX
10
9.15876
20
9.64958
30
6.68
0
VERTEX
10
9.15459
20
9.65375
30
6.68
0
VERTEX
10
9.1532
20
9.65932
30
6.68
0
VERTEX
10
9.14764
20
9.66349
30
6.68
0
VERTEX
10
9.14486
20
9.66349
30
6.68
0
VERTEX
10
9.124
20
9.676
30
6.68
0
VERTEX
10
9.11288
20
9.68017
30
6.68
0
VERTEX
10
9.11149
20
9.68295
30
6.68
0
VERTEX
10
9.10593
20
9.68434
30
6.68
0
VERTEX
10
9.10314
20
9.68434
30
6.68
0
VERTEX
10
9.09758
20
9.68852
30
6.68
0
VERTEX
10
9.07534
20
9.69269
30
6.68
0
VERTEX
10
9.05448
20
9.70242
30
6.68
0
VERTEX
10
9.04614
20
9.71354
30
6.68
0
VERTEX
10
9.04058
20
9.71354
30
6.68
0
VERTEX
10
9.03501
20
9.71632
30
6.68
0
VERTEX
10
9.02389
20
9.71771
30
6.68
0
VERTEX
10
9.01277
20
9.72189
30
6.68
0
VERTEX
10
8.99052
20
9.72606
30
6.68
0
VERTEX
10
8.98079
20
9.72884
30
6.68
0
VERTEX
10
8.95854
20
9.72884
30
6.68
0
VERTEX
10
8.94742
20
9.72884
30
6.68
0
VERTEX
10
8.94185
20
9.72884
30
6.68
0
VERTEX
10
8.91961
20
9.71911
30
6.68
0
VERTEX
10
8.89736
20
9.71354
30
6.68
0
VERTEX
10
8.88624
20
9.70659
30
6.68
0
VERTEX
10
8.88207
20
9.70103
30
6.68
0
VERTEX
10
8.8765
20
9.69825
30
6.68
0
VERTEX
10
8.86955
20
9.68713
30
6.68
0
VERTEX
10
8.86399
20
9.68156
30
6.68
0
VERTEX
10
8.86121
20
9.67878
30
6.68
0
VERTEX
10
8.86121
20
9.676
30
6.68
0
VERTEX
10
8.85704
20
9.67044
30
6.68
0
VERTEX
10
8.85426
20
9.64819
30
6.68
0
VERTEX
10
8.85426
20
9.63707
30
6.68
0
VERTEX
10
8.85426
20
9.6329
30
6.68
0
SEQEND
0
POLYLINE
62
236
66
1
70
1
3
postsynaptic_density
0
VERTEX
10
10.4341
20
9.57003
30
6.68
0
VERTEX
10
10.4528
20
9.45059
30
6.68
0
VERTEX
10
10.4565
20
9.42073
30
6.68
0
VERTEX
10
10.4584
20
9.4058
30
6.68
0
VERTEX
10
10.4621
20
9.40207
30
6.68
0
VERTEX
10
10.4621
20
9.39834
30
6.68
0
VERTEX
10
10.4696
20
9.39087
30
6.68
0
VERTEX
10
10.477
20
9.38714
30
6.68
0
VERTEX
10
10.4919
20
9.37408
30
6.68
0
VERTEX
10
10.5218
20
9.37034
30
6.68
0
VERTEX
10
10.5367
20
9.37034
30
6.68
0
VERTEX
10
10.5442
20
9.37034
30
6.68
0
VERTEX
10
10.5591
20
9.37967
30
6.68
0
VERTEX
10
10.5703
20
9.39274
30
6.68
0
VERTEX
10
10.5759
20
9.4002
30
6.68
0
VERTEX
10
10.5815
20
9.43006
30
6.68
0
VERTEX
10
10.5815
20
9.48978
30
6.68
0
VERTEX
10
10.5834
20
9.50471
30
6.68
0
VERTEX
10
10.5778
20
9.53457
30
6.68
0
VERTEX
10
10.5741
20
9.5495
30
6.68
0
VERTEX
10
10.5554
20
9.57749
30
6.68
0
VERTEX
10
10.5498
20
9.58496
30
6.68
0
VERTEX
10
10.5423
20
9.58869
30
6.68
0
VERTEX
10
10.5386
20
9.59242
30
6.68
0
VERTEX
10
10.5087
20
9.59989
30
6.68
0
VERTEX
10
10.4789
20
9.59802
30
6.68
0
VERTEX
10
10.464
20
9.58869
30
6.68
0
VERTEX
10
10.449
20
9.58309
30
6.68
0
VERTEX
10
10.4416
20
9.58123
30
6.68
0
VERTEX
10
10.4341
20
9.57563
30
6.68
0
VERTEX
10
10.4341
20
9.5719
30
6.68
0
SEQEND
0
POLYLINE
62
236
66
1
70
1
3
postsynaptic_density
0
VERTEX
10
8.21328
20
9.10534
30
6.68
0
VERTEX
10
8.22261
20
9.07548
30
6.68
0
VERTEX
10
8.22634
20
9.06801
30
6.68
0
VERTEX
10
8.23008
20
9.06428
30
6.68
0
VERTEX
10
8.23008
20
9.05682
30
6.68
0
VERTEX
10
8.23941
20
9.04375
30
6.68
0
VERTEX
10
8.25434
20
9.04189
30
6.68
0
VERTEX
10
8.2618
20
9.04375
30
6.68
0
VERTEX
10
8.26553
20
9.04375
30
6.68
0
VERTEX
10
8.26927
20
9.04749
30
6.68
0
VERTEX
10
8.273
20
9.04749
30
6.68
0
VERTEX
10
8.28046
20
9.05495
30
6.68
0
VERTEX
10
8.28606
20
9.05868
30
6.68
0
VERTEX
10
8.29166
20
9.07361
30
6.68
0
VERTEX
10
8.29353
20
9.10347
30
6.68
0
VERTEX
10
8.29913
20
9.11654
30
6.68
0
VERTEX
10
8.30286
20
9.12027
30
6.68
0
VERTEX
10
8.30099
20
9.15013
30
6.68
0
VERTEX
10
8.30099
20
9.16506
30
6.68
0
VERTEX
10
8.29726
20
9.17999
30
6.68
0
VERTEX
10
8.2898
20
9.19492
30
6.68
0
VERTEX
10
8.28606
20
9.20238
30
6.68
0
VERTEX
10
8.2786
20
9.20798
30
6.68
0
VERTEX
10
8.27113
20
9.20798
30
6.68
0
VERTEX
10
8.26367
20
9.21171
30
6.68
0
VERTEX
10
8.23381
20
9.21171
30
6.68
0
VERTEX
10
8.22634
20
9.20985
30
6.68
0
VERTEX
10
8.21888
20
9.15013
30
6.68
0
VERTEX
10
8.21515
20
9.12027
30
6.68
0
VERTEX
10
8.21328
20
9.1072
30
6.68
0
SEQEND
0
POLYLINE
62
227
66
1
70
1
3
endoplasmic_reticulum
0
VERTEX
10
8.86325
20
9.85483
30
6.68
0
VERTEX
10
8.86415
20
9.84766
30
6.68
0
VERTEX
10
8.86684
20
9.84049
30
6.68
0
VERTEX
10
8.86774
20
9.83332
30
6.68
0
VERTEX
10
8.86774
20
9.83152
30
6.68
0
VERTEX
10
8.87401
20
9.82525
30
6.68
0
VERTEX
10
8.88119
20
9.82435
30
6.68
0
VERTEX
10
8.89553
20
9.82615
30
6.68
0
VERTEX
10
8.90898
20
9.8378
30
6.68
0
VERTEX
10
8.91436
20
9.84408
30
6.68
0
VERTEX
10
8.91436
20
9.84587
30
6.68
0
VERTEX
10
8.91794
20
9.84856
30
6.68
0
VERTEX
10
8.92243
20
9.85573
30
6.68
0
VERTEX
10
8.92243
20
9.85752
30
6.68
0
VERTEX
10
8.9287
20
9.8629
30
6.68
0
VERTEX
10
8.93229
20
9.86649
30
6.68
0
VERTEX
10
8.93588
20
9.86828
30
6.68
0
VERTEX
10
8.93767
20
9.87008
30
6.68
0
VERTEX
10
8.95201
20
9.87097
30
6.68
0
VERTEX
10
8.95919
20
9.86918
30
6.68
0
VERTEX
10
8.96277
20
9.86918
30
6.68
0
VERTEX
10
8.96725
20
9.8638
30
6.68
0
VERTEX
10
8.96725
20
9.86201
30
6.68
0
VERTEX
10
8.97174
20
9.85483
30
6.68
0
VERTEX
10
8.97801
20
9.84766
30
6.68
0
VERTEX
10
8.9816
20
9.84587
30
6.68
0
VERTEX
10
8.98339
20
9.84228
30
6.68
0
VERTEX
10
8.98339
20
9.84049
30
6.68
0
VERTEX
10
8.98698
20
9.8378
30
6.68
0
VERTEX
10
8.98698
20
9.83601
30
6.68
0
VERTEX
10
8.99325
20
9.82973
30
6.68
0
VERTEX
10
8.99594
20
9.82615
30
6.68
0
VERTEX
10
9.01029
20
9.82525
30
6.68
0
VERTEX
10
9.01746
20
9.82525
30
6.68
0
VERTEX
10
9.02105
20
9.82525
30
6.68
0
VERTEX
10
9.02463
20
9.82704
30
6.68
0
VERTEX
10
9.02643
20
9.82704
30
6.68
0
VERTEX
10
9.03181
20
9.83332
30
6.68
0
VERTEX
10
9.0327
20
9.84766
30
6.68
0
VERTEX
10
9.0327
20
9.85125
30
6.68
0
VERTEX
10
9.02912
20
9.85842
30
6.68
0
VERTEX
10
9.02912
20
9.86201
30
6.68
0
VERTEX
10
9.02732
20
9.86559
30
6.68
0
VERTEX
10
9.02015
20
9.87008
30
6.68
0
VERTEX
10
9.00581
20
9.88173
30
6.68
0
VERTEX
10
8.99953
20
9.88801
30
6.68
0
VERTEX
10
8.99774
20
9.89159
30
6.68
0
VERTEX
10
8.99415
20
9.89339
30
6.68
0
VERTEX
10
8.99056
20
9.89339
30
6.68
0
VERTEX
10
8.98877
20
9.89339
30
6.68
0
VERTEX
10
8.98608
20
9.89608
30
6.68
0
VERTEX
10
8.97174
20
9.89877
30
6.68
0
VERTEX
10
8.96456
20
9.90056
30
6.68
0
VERTEX
10
8.96098
20
9.90146
30
6.68
0
VERTEX
10
8.96008
20
9.90325
30
6.68
0
VERTEX
10
8.94574
20
9.90414
30
6.68
0
VERTEX
10
8.93856
20
9.90325
30
6.68
0
VERTEX
10
8.93588
20
9.90056
30
6.68
0
VERTEX
10
8.9287
20
9.89787
30
6.68
0
VERTEX
10
8.92153
20
9.89339
30
6.68
0
VERTEX
10
8.91974
20
9.8898
30
6.68
0
VERTEX
10
8.91346
20
9.88621
30
6.68
0
VERTEX
10
8.90988
20
9.88532
30
6.68
0
VERTEX
10
8.9027
20
9.87994
30
6.68
0
VERTEX
10
8.89553
20
9.87904
30
6.68
0
VERTEX
10
8.88119
20
9.87456
30
6.68
0
VERTEX
10
8.87491
20
9.87008
30
6.68
0
VERTEX
10
8.87312
20
9.87008
30
6.68
0
VERTEX
10
8.86774
20
9.8638
30
6.68
0
VERTEX
10
8.86325
20
9.85932
30
6.68
0
VERTEX
10
8.86325
20
9.85573
30
6.68
0
SEQEND
0
POLYLINE
62
227
66
1
70
1
3
endoplasmic_reticulum
0
VERTEX
10
9.00581
20
9.76159
30
6.68
0
VERTEX
10
9.00939
20
9.75442
30
6.68
0
VERTEX
10
9.01029
20
9.75084
30
6.68
0
VERTEX
10
9.01298
20
9.74725
30
6.68
0
VERTEX
10
9.02015
20
9.74456
30
6.68
0
VERTEX
10
9.02194
20
9.74546
30
6.68
0
VERTEX
10
9.03629
20
9.74097
30
6.68
0
VERTEX
10
9.06498
20
9.74008
30
6.68
0
VERTEX
10
9.07932
20
9.73021
30
6.68
0
VERTEX
10
9.08918
20
9.71946
30
6.68
0
VERTEX
10
9.09456
20
9.71318
30
6.68
0
VERTEX
10
9.09815
20
9.71049
30
6.68
0
VERTEX
10
9.10532
20
9.7087
30
6.68
0
VERTEX
10
9.11877
20
9.70063
30
6.68
0
VERTEX
10
9.12594
20
9.69794
30
6.68
0
VERTEX
10
9.12863
20
9.69525
30
6.68
0
VERTEX
10
9.13043
20
9.69525
30
6.68
0
VERTEX
10
9.13222
20
9.69346
30
6.68
0
VERTEX
10
9.13401
20
9.69346
30
6.68
0
VERTEX
10
9.14118
20
9.68808
30
6.68
0
VERTEX
10
9.14298
20
9.68628
30
6.68
0
VERTEX
10
9.14477
20
9.68628
30
6.68
0
VERTEX
10
9.14567
20
9.68449
30
6.68
0
VERTEX
10
9.14925
20
9.68359
30
6.68
0
VERTEX
10
9.15284
20
9.6809
30
6.68
0
VERTEX
10
9.16001
20
9.67911
30
6.68
0
VERTEX
10
9.16718
20
9.67463
30
6.68
0
VERTEX
10
9.18153
20
9.66925
30
6.68
0
VERTEX
10
9.18511
20
9.66656
30
6.68
0
VERTEX
10
9.19229
20
9.66566
30
6.68
0
VERTEX
10
9.19587
20
9.66477
30
6.68
0
VERTEX
10
9.20215
20
9.66925
30
6.68
0
VERTEX
10
9.20036
20
9.68359
30
6.68
0
VERTEX
10
9.19946
20
9.68718
30
6.68
0
VERTEX
10
9.1878
20
9.69794
30
6.68
0
VERTEX
10
9.18422
20
9.70153
30
6.68
0
VERTEX
10
9.18332
20
9.70511
30
6.68
0
VERTEX
10
9.17615
20
9.71049
30
6.68
0
VERTEX
10
9.16898
20
9.71228
30
6.68
0
VERTEX
10
9.16539
20
9.71318
30
6.68
0
VERTEX
10
9.1636
20
9.71318
30
6.68
0
VERTEX
10
9.16001
20
9.71587
30
6.68
0
VERTEX
10
9.14567
20
9.72035
30
6.68
0
VERTEX
10
9.13939
20
9.72304
30
6.68
0
VERTEX
10
9.1358
20
9.72394
30
6.68
0
VERTEX
10
9.12863
20
9.72932
30
6.68
0
VERTEX
10
9.12325
20
9.73559
30
6.68
0
VERTEX
10
9.11967
20
9.74277
30
6.68
0
VERTEX
10
9.11967
20
9.74456
30
6.68
0
VERTEX
10
9.11787
20
9.74635
30
6.68
0
VERTEX
10
9.11698
20
9.74994
30
6.68
0
VERTEX
10
9.1116
20
9.75711
30
6.68
0
VERTEX
10
9.10891
20
9.7598
30
6.68
0
VERTEX
10
9.10712
20
9.7598
30
6.68
0
VERTEX
10
9.10443
20
9.76339
30
6.68
0
VERTEX
10
9.09187
20
9.77235
30
6.68
0
VERTEX
10
9.06318
20
9.77594
30
6.68
0
VERTEX
10
9.0345
20
9.77684
30
6.68
0
VERTEX
10
9.02015
20
9.77684
30
6.68
0
VERTEX
10
9.01298
20
9.77415
30
6.68
0
VERTEX
10
9.00581
20
9.76966
30
6.68
0
VERTEX
10
9.00581
20
9.76249
30
6.68
0
SEQEND
0
POLYLINE
62
227
66
1
70
1
3
endoplasmic_reticulum
0
VERTEX
10
8.99087
20
10.3431
30
6.68
0
VERTEX
10
8.99721
20
10.3305
30
6.68
0
VERTEX
10
8.99721
20
10.3241
30
6.68
0
VERTEX
10
9.00671
20
10.3115
30
6.68
0
VERTEX
10
9.00671
20
10.3051
30
6.68
0
VERTEX
10
9.01304
20
10.302
30
6.68
0
VERTEX
10
9.01304
20
10.2956
30
6.68
0
VERTEX
10
9.02571
20
10.2925
30
6.68
0
VERTEX
10
9.04788
20
10.3083
30
6.68
0
VERTEX
10
9.04471
20
10.359
30
6.68
0
VERTEX
10
9.01938
20
10.3621
30
6.68
0
VERTEX
10
9.00671
20
10.3621
30
6.68
0
VERTEX
10
8.99404
20
10.3526
30
6.68
0
VERTEX
10
8.99087
20
10.3463
30
6.68
0
SEQEND
0
POLYLINE
62
31
66
1
70
1
3
contour
0
VERTEX
10
7.87705
20
9.21649
30
6.68
0
VERTEX
10
7.88678
20
9.18534
30
6.68
0
VERTEX
10
7.89262
20
9.17756
30
6.68
0
VERTEX
10
7.89652
20
9.17561
30
6.68
0
VERTEX
10
7.89652
20
9.16782
30
6.68
0
VERTEX
10
7.90041
20
9.16004
30
6.68
0
VERTEX
10
7.90041
20
9.15614
30
6.68
0
VERTEX
10
7.91598
20
9.14641
30
6.68
0
VERTEX
10
7.93156
20
9.14446
30
6.68
0
VERTEX
10
7.93935
20
9.14641
30
6.68
0
VERTEX
10
7.94324
20
9.16198
30
6.68
0
VERTEX
10
7.94324
20
9.16588
30
6.68
0
VERTEX
10
7.95103
20
9.17172
30
6.68
0
VERTEX
10
7.96076
20
9.1834
30
6.68
0
VERTEX
10
7.96855
20
9.18729
30
6.68
0
VERTEX
10
7.97244
20
9.19119
30
6.68
0
VERTEX
10
7.97634
20
9.19119
30
6.68
0
VERTEX
10
7.98218
20
9.19897
30
6.68
0
VERTEX
10
7.98412
20
9.20676
30
6.68
0
VERTEX
10
7.9997
20
9.22039
30
6.68
0
VERTEX
10
8.00165
20
9.22818
30
6.68
0
VERTEX
10
7.99775
20
9.23596
30
6.68
0
VERTEX
10
7.99775
20
9.23986
30
6.68
0
VERTEX
10
7.99191
20
9.2457
30
6.68
0
VERTEX
10
7.99191
20
9.24959
30
6.68
0
VERTEX
10
7.98802
20
9.25349
30
6.68
0
VERTEX
10
7.98802
20
9.25738
30
6.68
0
VERTEX
10
7.97634
20
9.26906
30
6.68
0
VERTEX
10
7.97439
20
9.27295
30
6.68
0
VERTEX
10
7.97634
20
9.27685
30
6.68
0
VERTEX
10
7.96855
20
9.27879
30
6.68
0
VERTEX
10
7.9666
20
9.28658
30
6.68
0
VERTEX
10
7.96466
20
9.29048
30
6.68
0
VERTEX
10
7.95882
20
9.28464
30
6.68
0
VERTEX
10
7.95492
20
9.28464
30
6.68
0
VERTEX
10
7.94129
20
9.26906
30
6.68
0
VERTEX
10
7.9374
20
9.26711
30
6.68
0
VERTEX
10
7.9374
20
9.26322
30
6.68
0
VERTEX
10
7.92961
20
9.25933
30
6.68
0
VERTEX
10
7.91404
20
9.25738
30
6.68
0
VERTEX
10
7.90625
20
9.25543
30
6.68
0
VERTEX
10
7.90236
20
9.25349
30
6.68
0
VERTEX
10
7.90236
20
9.24959
30
6.68
0
VERTEX
10
7.88678
20
9.23986
30
6.68
0
VERTEX
10
7.87705
20
9.22818
30
6.68
0
VERTEX
10
7.87705
20
9.22039
30
6.68
0
VERTEX
10
7.87705
20
9.21844
30
6.68
0
SEQEND
0
POLYLINE
62
31
66
1
70
1
3
contour
0
VERTEX
10
8.62758
20
9.52514
30
6.68
0
VERTEX
10
8.63048
20
9.52224
30
6.68
0
VERTEX
10
8.63193
20
9.51064
30
6.68
0
VERTEX
10
8.63918
20
9.49904
30
6.68
0
VERTEX
10
8.63918
20
9.48744
30
6.68
0
VERTEX
10
8.64353
20
9.48309
30
6.68
0
VERTEX
10
8.64788
20
9.47149
30
6.68
0
VERTEX
10
8.65368
20
9.46714
30
6.68
0
VERTEX
10
8.66528
20
9.46859
30
6.68
0
VERTEX
10
8.67688
20
9.47294
30
6.68
0
VERTEX
10
8.70008
20
9.47439
30
6.68
0
VERTEX
10
8.72328
20
9.47004
30
6.68
0
VERTEX
10
8.73488
20
9.46714
30
6.68
0
VERTEX
10
8.75808
20
9.46569
30
6.68
0
VERTEX
10
8.80448
20
9.46859
30
6.68
0
VERTEX
10
8.89729
20
9.46569
30
6.68
0
VERTEX
10
8.92049
20
9.45844
30
6.68
0
VERTEX
10
8.92629
20
9.45844
30
6.68
0
VERTEX
10
8.92919
20
9.45844
30
6.68
0
VERTEX
10
8.93064
20
9.45554
30
6.68
0
VERTEX
10
8.94224
20
9.45409
30
6.68
0
VERTEX
10
8.96544
20
9.44539
30
6.68
0
VERTEX
10
8.97704
20
9.44104
30
6.68
0
VERTEX
10
9.02344
20
9.43669
30
6.68
0
VERTEX
10
9.06984
20
9.43814
30
6.68
0
VERTEX
10
9.11624
20
9.44394
30
6.68
0
VERTEX
10
9.12784
20
9.44539
30
6.68
0
VERTEX
10
9.13364
20
9.44539
30
6.68
0
VERTEX
10
9.14524
20
9.44974
30
6.68
0
VERTEX
10
9.15104
20
9.45264
30
6.68
0
VERTEX
10
9.19744
20
9.45119
30
6.68
0
VERTEX
10
9.22064
20
9.44974
30
6.68
0
VERTEX
10
9.22354
20
9.44974
30
6.68
0
VERTEX
10
9.22644
20
9.44684
30
6.68
0
VERTEX
10
9.24964
20
9.44829
30
6.68
0
VERTEX
10
9.25399
20
9.45264
30
6.68
0
VERTEX
10
9.26559
20
9.45699
30
6.68
0
VERTEX
10
9.26994
20
9.46134
30
6.68
0
VERTEX
10
9.27574
20
9.46279
30
6.68
0
VERTEX
10
9.27719
20
9.47439
30
6.68
0
VERTEX
10
9.27719
20
9.48019
30
6.68
0
VERTEX
10
9.28879
20
9.48454
30
6.68
0
VERTEX
10
9.29459
20
9.48599
30
6.68
0
VERTEX
10
9.30039
20
9.49034
30
6.68
0
VERTEX
10
9.32359
20
9.49179
30
6.68
0
VERTEX
10
9.32939
20
9.49034
30
6.68
0
VERTEX
10
9.33519
20
9.49179
30
6.68
0
VERTEX
10
9.34389
20
9.50194
30
6.68
0
VERTEX
10
9.35114
20
9.52514
30
6.68
0
VERTEX
10
9.35549
20
9.53674
30
6.68
0
VERTEX
10
9.35694
20
9.54834
30
6.68
0
VERTEX
10
9.36129
20
9.55994
30
6.68
0
VERTEX
10
9.36274
20
9.57154
30
6.68
0
VERTEX
10
9.36274
20
9.57444
30
6.68
0
VERTEX
10
9.36564
20
9.57589
30
6.68
0
VERTEX
10
9.36709
20
9.62229
30
6.68
0
VERTEX
10
9.36564
20
9.63389
30
6.68
0
VERTEX
10
9.36564
20
9.63969
30
6.68
0
VERTEX
10
9.34969
20
9.66144
30
6.68
0
VERTEX
10
9.34389
20
9.66724
30
6.68
0
VERTEX
10
9.34099
20
9.67304
30
6.68
0
VERTEX
10
9.34099
20
9.67594
30
6.68
0
VERTEX
10
9.33809
20
9.67884
30
6.68
0
VERTEX
10
9.33809
20
9.69044
30
6.68
0
VERTEX
10
9.33519
20
9.70204
30
6.68
0
VERTEX
10
9.33374
20
9.72524
30
6.68
0
VERTEX
10
9.32939
20
9.74844
30
6.68
0
VERTEX
10
9.33084
20
9.79484
30
6.68
0
VERTEX
10
9.32649
20
9.79919
30
6.68
0
VERTEX
10
9.32504
20
9.84559
30
6.68
0
VERTEX
10
9.32504
20
9.86879
30
6.68
0
VERTEX
10
9.32504
20
9.88039
30
6.68
0
VERTEX
10
9.33229
20
9.92679
30
6.68
0
VERTEX
10
9.33229
20
9.9732
30
6.68
0
VERTEX
10
9.33084
20
9.9848
30
6.68
0
VERTEX
10
9.33084
20
9.9906
30
6.68
0
VERTEX
10
9.32794
20
9.9964
30
6.68
0
VERTEX
10
9.32794
20
10.0022
30
6.68
0
VERTEX
10
9.32359
20
10.0138
30
6.68
0
VERTEX
10
9.31924
20
10.0196
30
6.68
0
VERTEX
10
9.31924
20
10.0254
30
6.68
0
VERTEX
10
9.31634
20
10.0283
30
6.68
0
VERTEX
10
9.31199
20
10.0515
30
6.68
0
VERTEX
10
9.30764
20
10.0631
30
6.68
0
VERTEX
10
9.30329
20
10.0689
30
6.68
0
VERTEX
10
9.30039
20
10.0805
30
6.68
0
VERTEX
10
9.30039
20
10.0834
30
6.68
0
VERTEX
10
9.29024
20
10.0921
30
6.68
0
VERTEX
10
9.28009
20
10.0964
30
6.68
0
VERTEX
10
9.26849
20
10.0964
30
6.68
0
VERTEX
10
9.26559
20
10.0964
30
6.68
0
VERTEX
10
9.25544
20
10.1051
30
6.68
0
VERTEX
10
9.24819
20
10.1167
30
6.68
0
VERTEX
10
9.24384
20
10.1225
30
6.68
0
VERTEX
10
9.24094
20
10.1254
30
6.68
0
VERTEX
10
9.24094
20
10.1283
30
6.68
0
VERTEX
10
9.23224
20
10.1385
30
6.68
0
VERTEX
10
9.22934
20
10.1414
30
6.68
0
VERTEX
10
9.22644
20
10.153
30
6.68
0
VERTEX
10
9.22209
20
10.1588
30
6.68
0
VERTEX
10
9.22064
20
10.1704
30
6.68
0
VERTEX
10
9.22064
20
10.1733
30
6.68
0
VERTEX
10
9.21774
20
10.1762
30
6.68
0
VERTEX
10
9.21629
20
10.2226
30
6.68
0
VERTEX
10
9.21774
20
10.2458
30
6.68
0
VERTEX
10
9.21919
20
10.2574
30
6.68
0
VERTEX
10
9.21919
20
10.2632
30
6.68
0
VERTEX
10
9.21919
20
10.2661
30
6.68
0
VERTEX
10
9.22209
20
10.269
30
6.68
0
VERTEX
10
9.22064
20
10.3154
30
6.68
0
VERTEX
10
9.22064
20
10.3212
30
6.68
0
VERTEX
10
9.21629
20
10.327
30
6.68
0
VERTEX
10
9.21484
20
10.3328
30
6.68
0
VERTEX
10
9.20179
20
10.356
30
6.68
0
VERTEX
10
9.19889
20
10.3676
30
6.68
0
VERTEX
10
9.19164
20
10.3792
30
6.68
0
VERTEX
10
9.17279
20
10.4009
30
6.68
0
VERTEX
10
9.15249
20
10.4198
30
6.68
0
VERTEX
10
9.14089
20
10.427
30
6.68
0
VERTEX
10
9.13509
20
10.4314
30
6.68
0
VERTEX
10
9.12929
20
10.4328
30
6.68
0
VERTEX
10
9.12349
20
10.4372
30
6.68
0
VERTEX
10
9.12059
20
10.4372
30
6.68
0
VERTEX
10
9.10899
20
10.4444
30
6.68
0
VERTEX
10
9.10464
20
10.4502
30
6.68
0
VERTEX
10
9.08144
20
10.4575
30
6.68
0
VERTEX
10
9.07564
20
10.4575
30
6.68
0
VERTEX
10
9.06404
20
10.4531
30
6.68
0
VERTEX
10
9.05244
20
10.4517
30
6.68
0
VERTEX
10
9.04664
20
10.4473
30
6.68
0
VERTEX
10
9.02344
20
10.4372
30
6.68
0
VERTEX
10
9.01184
20
10.4343
30
6.68
0
VERTEX
10
9.00749
20
10.427
30
6.68
0
VERTEX
10
8.96109
20
10.4111
30
6.68
0
VERTEX
10
8.95529
20
10.4111
30
6.68
0
VERTEX
10
8.94949
20
10.4053
30
6.68
0
VERTEX
10
8.90454
20
10.3792
30
6.68
0
VERTEX
10
8.90164
20
10.3792
30
6.68
0
VERTEX
10
8.89874
20
10.3763
30
6.68
0
VERTEX
10
8.89874
20
10.3734
30
6.68
0
VERTEX
10
8.89438
20
10.369
30
6.68
0
VERTEX
10
8.89148
20
10.3574
30
6.68
0
VERTEX
10
8.88568
20
10.3458
30
6.68
0
VERTEX
10
8.88568
20
10.3342
30
6.68
0
VERTEX
10
8.89293
20
10.311
30
6.68
0
VERTEX
10
8.89729
20
10.2994
30
6.68
0
VERTEX
10
8.89874
20
10.2762
30
6.68
0
VERTEX
10
8.89729
20
10.253
30
6.68
0
VERTEX
10
8.89584
20
10.2472
30
6.68
0
VERTEX
10
8.89003
20
10.2458
30
6.68
0
VERTEX
10
8.88713
20
10.2458
30
6.68
0
VERTEX
10
8.88278
20
10.24
30
6.68
0
VERTEX
10
8.88133
20
10.2342
30
6.68
0
VERTEX
10
8.87553
20
10.2298
30
6.68
0
VERTEX
10
8.87553
20
10.2269
30
6.68
0
VERTEX
10
8.85668
20
10.2052
30
6.68
0
VERTEX
10
8.84943
20
10.195
30
6.68
0
VERTEX
10
8.84798
20
10.1718
30
6.68
0
VERTEX
10
8.84798
20
10.1602
30
6.68
0
VERTEX
10
8.85233
20
10.1486
30
6.68
0
VERTEX
10
8.85378
20
10.1254
30
6.68
0
VERTEX
10
8.85523
20
10.1138
30
6.68
0
VERTEX
10
8.85813
20
10.1109
30
6.68
0
VERTEX
10
8.85958
20
10.0993
30
6.68
0
VERTEX
10
8.87553
20
10.0805
30
6.68
0
VERTEX
10
8.87843
20
10.0776
30
6.68
0
VERTEX
10
8.88133
20
10.0776
30
6.68
0
VERTEX
10
8.88133
20
10.0747
30
6.68
0
VERTEX
10
8.89293
20
10.0689
30
6.68
0
VERTEX
10
8.90454
20
10.066
30
6.68
0
VERTEX
10
8.91179
20
10.0573
30
6.68
0
VERTEX
10
8.91614
20
10.0457
30
6.68
0
VERTEX
10
8.92919
20
10.0225
30
6.68
0
VERTEX
10
8.93209
20
10.0109
30
6.68
0
VERTEX
10
8.93499
20
10.0051
30
6.68
0
VERTEX
10
8.93499
20
9.9819
30
6.68
0
VERTEX
10
8.93354
20
9.9703
30
6.68
0
VERTEX
10
8.93354
20
9.9645
30
6.68
0
VERTEX
10
8.93354
20
9.9616
30
6.68
0
VERTEX
10
8.93064
20
9.9587
30
6.68
0
VERTEX
10
8.92919
20
9.9529
30
6.68
0
VERTEX
10
8.92484
20
9.95145
30
6.68
0
VERTEX
10
8.90599
20
9.93114
30
6.68
0
VERTEX
10
8.90019
20
9.92969
30
6.68
0
VERTEX
10
8.89584
20
9.92534
30
6.68
0
VERTEX
10
8.88423
20
9.92244
30
6.68
0
VERTEX
10
8.88133
20
9.91954
30
6.68
0
VERTEX
10
8.86973
20
9.91809
30
6.68
0
VERTEX
10
8.84798
20
9.90504
30
6.68
0
VERTEX
10
8.84508
20
9.90504
30
6.68
0
VERTEX
10
8.83348
20
9.89489
30
6.68
0
VERTEX
10
8.82188
20
9.88909
30
6.68
0
VERTEX
10
8.82043
20
9.88329
30
6.68
0
VERTEX
10
8.80883
20
9.87604
30
6.68
0
VERTEX
10
8.80303
20
9.87169
30
6.68
0
VERTEX
10
8.77983
20
9.86444
30
6.68
0
VERTEX
10
8.76823
20
9.86009
30
6.68
0
VERTEX
10
8.76243
20
9.85864
30
6.68
0
VERTEX
10
8.75953
20
9.85864
30
6.68
0
VERTEX
10
8.75663
20
9.85574
30
6.68
0
VERTEX
10
8.75083
20
9.85429
30
6.68
0
VERTEX
10
8.74793
20
9.85429
30
6.68
0
VERTEX
10
8.74503
20
9.85139
30
6.68
0
VERTEX
10
8.73343
20
9.85139
30
6.68
0
VERTEX
10
8.73053
20
9.84849
30
6.68
0
VERTEX
10
8.72473
20
9.84849
30
6.68
0
VERTEX
10
8.71893
20
9.84559
30
6.68
0
VERTEX
10
8.71893
20
9.84269
30
6.68
0
VERTEX
10
8.71458
20
9.83689
30
6.68
0
VERTEX
10
8.71313
20
9.83109
30
6.68
0
VERTEX
10
8.70588
20
9.81949
30
6.68
0
VERTEX
10
8.70298
20
9.81369
30
6.68
0
VERTEX
10
8.69863
20
9.79049
30
6.68
0
VERTEX
10
8.69863
20
9.74409
30
6.68
0
VERTEX
10
8.70588
20
9.69769
30
6.68
0
VERTEX
10
8.70588
20
9.68609
30
6.68
0
VERTEX
10
8.70733
20
9.68029
30
6.68
0
VERTEX
10
8.70443
20
9.66869
30
6.68
0
VERTEX
10
8.70298
20
9.62229
30
6.68
0
VERTEX
10
8.70298
20
9.61069
30
6.68
0
VERTEX
10
8.70153
20
9.60489
30
6.68
0
VERTEX
10
8.69863
20
9.60489
30
6.68
0
VERTEX
10
8.69428
20
9.60054
30
6.68
0
VERTEX
10
8.68993
20
9.59039
30
6.68
0
VERTEX
10
8.68123
20
9.58314
30
6.68
0
VERTEX
10
8.67108
20
9.57299
30
6.68
0
VERTEX
10
8.66093
20
9.56574
30
6.68
0
VERTEX
10
8.65803
20
9.56574
30
6.68
0
VERTEX
10
8.65223
20
9.56139
30
6.68
0
VERTEX
10
8.64063
20
9.55849
30
6.68
0
VERTEX
10
8.63048
20
9.55124
30
6.68
0
VERTEX
10
8.62758
20
9.54544
30
6.68
0
VERTEX
10
8.62758
20
9.53384
30
6.68
0
VERTEX
10
8.62758
20
9.52804
30
6.68
0
VERTEX
10
8.62758
20
9.52659
30
6.68
0
SEQEND
0
ENDSEC
0
EOF
