0
SECTION
2
ENTITIES
0
POLYLINE
62
31
66
1
70
1
3
contour
0
VERTEX
10
6.90127
20
10.6466
30
9.96
0
VERTEX
10
6.905
20
10.6317
30
9.96
0
VERTEX
10
6.92365
20
10.6018
30
9.96
0
VERTEX
10
6.94977
20
10.5795
30
9.96
0
VERTEX
10
7.00945
20
10.5683
30
9.96
0
VERTEX
10
7.06914
20
10.572
30
9.96
0
VERTEX
10
7.12883
20
10.5571
30
9.96
0
VERTEX
10
7.18851
20
10.5534
30
9.96
0
VERTEX
10
7.21836
20
10.5534
30
9.96
0
VERTEX
10
7.2482
20
10.5645
30
9.96
0
VERTEX
10
7.26312
20
10.5645
30
9.96
0
VERTEX
10
7.27058
20
10.5645
30
9.96
0
VERTEX
10
7.27804
20
10.572
30
9.96
0
VERTEX
10
7.27804
20
10.5795
30
9.96
0
VERTEX
10
7.30789
20
10.5981
30
9.96
0
VERTEX
10
7.36757
20
10.6018
30
9.96
0
VERTEX
10
7.42726
20
10.613
30
9.96
0
VERTEX
10
7.44218
20
10.6168
30
9.96
0
VERTEX
10
7.50187
20
10.613
30
9.96
0
VERTEX
10
7.53171
20
10.6242
30
9.96
0
VERTEX
10
7.5914
20
10.6354
30
9.96
0
VERTEX
10
7.60632
20
10.6503
30
9.96
0
VERTEX
10
7.61751
20
10.6578
30
9.96
0
VERTEX
10
7.6287
20
10.6727
30
9.96
0
VERTEX
10
7.6287
20
10.6876
30
9.96
0
VERTEX
10
7.63616
20
10.7026
30
9.96
0
VERTEX
10
7.63616
20
10.7324
30
9.96
0
VERTEX
10
7.6287
20
10.7623
30
9.96
0
VERTEX
10
7.6287
20
10.7772
30
9.96
0
VERTEX
10
7.61751
20
10.7884
30
9.96
0
VERTEX
10
7.59886
20
10.8481
30
9.96
0
VERTEX
10
7.59886
20
10.8555
30
9.96
0
VERTEX
10
7.57275
20
10.8779
30
9.96
0
VERTEX
10
7.5541
20
10.9376
30
9.96
0
VERTEX
10
7.55036
20
10.9674
30
9.96
0
VERTEX
10
7.5429
20
10.9823
30
9.96
0
VERTEX
10
7.53917
20
11.0122
30
9.96
0
VERTEX
10
7.53917
20
11.0197
30
9.96
0
VERTEX
10
7.53171
20
11.0271
30
9.96
0
VERTEX
10
7.53171
20
11.042
30
9.96
0
VERTEX
10
7.52052
20
11.057
30
9.96
0
VERTEX
10
7.51679
20
11.0644
30
9.96
0
VERTEX
10
7.48695
20
11.0644
30
9.96
0
VERTEX
10
7.4571
20
11.057
30
9.96
0
VERTEX
10
7.33773
20
11.0607
30
9.96
0
VERTEX
10
7.27804
20
11.0644
30
9.96
0
VERTEX
10
7.2482
20
11.042
30
9.96
0
VERTEX
10
7.21836
20
11.0308
30
9.96
0
VERTEX
10
7.20344
20
11.0271
30
9.96
0
VERTEX
10
7.14375
20
10.9898
30
9.96
0
VERTEX
10
7.11391
20
10.9674
30
9.96
0
VERTEX
10
7.09525
20
10.9413
30
9.96
0
VERTEX
10
7.08033
20
10.9264
30
9.96
0
VERTEX
10
7.04303
20
10.8704
30
9.96
0
VERTEX
10
7.03184
20
10.863
30
9.96
0
VERTEX
10
6.98707
20
10.8107
30
9.96
0
VERTEX
10
6.96469
20
10.7884
30
9.96
0
VERTEX
10
6.94977
20
10.7809
30
9.96
0
VERTEX
10
6.94977
20
10.7734
30
9.96
0
VERTEX
10
6.93485
20
10.7585
30
9.96
0
VERTEX
10
6.92739
20
10.7436
30
9.96
0
VERTEX
10
6.92739
20
10.7361
30
9.96
0
VERTEX
10
6.90873
20
10.71
30
9.96
0
VERTEX
10
6.90127
20
10.6951
30
9.96
0
VERTEX
10
6.90127
20
10.6653
30
9.96
0
VERTEX
10
6.90127
20
10.6503
30
9.96
0
SEQEND
0
POLYLINE
62
224
66
1
70
1
3
mitochondrion
0
VERTEX
10
7.15376
20
10.7522
30
9.96
0
VERTEX
10
7.15654
20
10.7494
30
9.96
0
VERTEX
10
7.16349
20
10.7272
30
9.96
0
VERTEX
10
7.17462
20
10.7202
30
9.96
0
VERTEX
10
7.18018
20
10.7147
30
9.96
0
VERTEX
10
7.18713
20
10.7063
30
9.96
0
VERTEX
10
7.18991
20
10.7063
30
9.96
0
VERTEX
10
7.19269
20
10.7035
30
9.96
0
VERTEX
10
7.19547
20
10.7035
30
9.96
0
VERTEX
10
7.20521
20
10.6966
30
9.96
0
VERTEX
10
7.22745
20
10.6882
30
9.96
0
VERTEX
10
7.23858
20
10.6855
30
9.96
0
VERTEX
10
7.28307
20
10.6841
30
9.96
0
VERTEX
10
7.30532
20
10.6841
30
9.96
0
VERTEX
10
7.31644
20
10.6841
30
9.96
0
VERTEX
10
7.322
20
10.6841
30
9.96
0
VERTEX
10
7.33313
20
10.6882
30
9.96
0
VERTEX
10
7.33869
20
10.6896
30
9.96
0
VERTEX
10
7.34147
20
10.6896
30
9.96
0
VERTEX
10
7.35259
20
10.6994
30
9.96
0
VERTEX
10
7.35676
20
10.7021
30
9.96
0
VERTEX
10
7.36094
20
10.7077
30
9.96
0
VERTEX
10
7.36928
20
10.7147
30
9.96
0
VERTEX
10
7.37901
20
10.7258
30
9.96
0
VERTEX
10
7.37901
20
10.7286
30
9.96
0
VERTEX
10
7.38179
20
10.7313
30
9.96
0
VERTEX
10
7.38179
20
10.7341
30
9.96
0
VERTEX
10
7.38457
20
10.7369
30
9.96
0
VERTEX
10
7.38457
20
10.7397
30
9.96
0
VERTEX
10
7.38735
20
10.7425
30
9.96
0
VERTEX
10
7.38735
20
10.7452
30
9.96
0
VERTEX
10
7.39153
20
10.7494
30
9.96
0
VERTEX
10
7.39431
20
10.7717
30
9.96
0
VERTEX
10
7.39153
20
10.7939
30
9.96
0
VERTEX
10
7.39153
20
10.7995
30
9.96
0
VERTEX
10
7.38874
20
10.8022
30
9.96
0
VERTEX
10
7.38596
20
10.8134
30
9.96
0
VERTEX
10
7.38457
20
10.8189
30
9.96
0
VERTEX
10
7.38457
20
10.8217
30
9.96
0
VERTEX
10
7.3804
20
10.8273
30
9.96
0
VERTEX
10
7.37762
20
10.8287
30
9.96
0
VERTEX
10
7.37623
20
10.8342
30
9.96
0
VERTEX
10
7.36928
20
10.844
30
9.96
0
VERTEX
10
7.34703
20
10.8593
30
9.96
0
VERTEX
10
7.34147
20
10.8593
30
9.96
0
VERTEX
10
7.31922
20
10.869
30
9.96
0
VERTEX
10
7.31366
20
10.869
30
9.96
0
VERTEX
10
7.30671
20
10.8787
30
9.96
0
VERTEX
10
7.26222
20
10.8773
30
9.96
0
VERTEX
10
7.25109
20
10.8759
30
9.96
0
VERTEX
10
7.24831
20
10.8732
30
9.96
0
VERTEX
10
7.22606
20
10.869
30
9.96
0
VERTEX
10
7.20382
20
10.862
30
9.96
0
VERTEX
10
7.19269
20
10.8551
30
9.96
0
VERTEX
10
7.17462
20
10.8384
30
9.96
0
VERTEX
10
7.16071
20
10.8162
30
9.96
0
VERTEX
10
7.15376
20
10.805
30
9.96
0
VERTEX
10
7.15376
20
10.7605
30
9.96
0
VERTEX
10
7.15376
20
10.755
30
9.96
0
VERTEX
10
7.15376
20
10.7536
30
9.96
0
SEQEND
0
POLYLINE
62
227
66
1
70
1
3
endoplasmic_reticulum
0
VERTEX
10
7.43237
20
10.6357
30
9.96
0
VERTEX
10
7.43685
20
10.6286
30
9.96
0
VERTEX
10
7.43864
20
10.6268
30
9.96
0
VERTEX
10
7.44582
20
10.6268
30
9.96
0
VERTEX
10
7.45299
20
10.6286
30
9.96
0
VERTEX
10
7.45657
20
10.6286
30
9.96
0
VERTEX
10
7.46375
20
10.6312
30
9.96
0
VERTEX
10
7.46733
20
10.6339
30
9.96
0
VERTEX
10
7.4745
20
10.6366
30
9.96
0
VERTEX
10
7.47809
20
10.6384
30
9.96
0
VERTEX
10
7.48078
20
10.642
30
9.96
0
VERTEX
10
7.48168
20
10.6456
30
9.96
0
VERTEX
10
7.48437
20
10.6474
30
9.96
0
VERTEX
10
7.48616
20
10.6474
30
9.96
0
VERTEX
10
7.48795
20
10.651
30
9.96
0
VERTEX
10
7.48795
20
10.6581
30
9.96
0
VERTEX
10
7.48526
20
10.6653
30
9.96
0
VERTEX
10
7.48347
20
10.6689
30
9.96
0
VERTEX
10
7.47719
20
10.6743
30
9.96
0
VERTEX
10
7.47361
20
10.677
30
9.96
0
VERTEX
10
7.47002
20
10.6779
30
9.96
0
VERTEX
10
7.46375
20
10.6841
30
9.96
0
VERTEX
10
7.46016
20
10.6877
30
9.96
0
VERTEX
10
7.45837
20
10.6895
30
9.96
0
VERTEX
10
7.45209
20
10.685
30
9.96
0
VERTEX
10
7.44851
20
10.6832
30
9.96
0
VERTEX
10
7.44223
20
10.677
30
9.96
0
VERTEX
10
7.43595
20
10.6743
30
9.96
0
VERTEX
10
7.43416
20
10.6707
30
9.96
0
VERTEX
10
7.43237
20
10.642
30
9.96
0
VERTEX
10
7.43237
20
10.6384
30
9.96
0
VERTEX
10
7.43237
20
10.6366
30
9.96
0
SEQEND
0
POLYLINE
62
227
66
1
70
1
3
endoplasmic_reticulum
0
VERTEX
10
7.12754
20
10.6474
30
9.96
0
VERTEX
10
7.12933
20
10.6402
30
9.96
0
VERTEX
10
7.13113
20
10.6366
30
9.96
0
VERTEX
10
7.1383
20
10.6321
30
9.96
0
VERTEX
10
7.14099
20
10.6295
30
9.96
0
VERTEX
10
7.14816
20
10.6268
30
9.96
0
VERTEX
10
7.15533
20
10.6277
30
9.96
0
VERTEX
10
7.15892
20
10.6286
30
9.96
0
VERTEX
10
7.16071
20
10.6321
30
9.96
0
VERTEX
10
7.1643
20
10.6348
30
9.96
0
VERTEX
10
7.1652
20
10.6384
30
9.96
0
VERTEX
10
7.16878
20
10.642
30
9.96
0
VERTEX
10
7.17058
20
10.6492
30
9.96
0
VERTEX
10
7.17058
20
10.6563
30
9.96
0
VERTEX
10
7.16878
20
10.6599
30
9.96
0
VERTEX
10
7.16251
20
10.6653
30
9.96
0
VERTEX
10
7.14816
20
10.6671
30
9.96
0
VERTEX
10
7.14458
20
10.668
30
9.96
0
VERTEX
10
7.14099
20
10.6671
30
9.96
0
VERTEX
10
7.12754
20
10.6555
30
9.96
0
VERTEX
10
7.12754
20
10.6483
30
9.96
0
SEQEND
0
POLYLINE
62
227
66
1
70
1
3
endoplasmic_reticulum
0
VERTEX
10
7.06747
20
10.8249
30
9.96
0
VERTEX
10
7.07016
20
10.8213
30
9.96
0
VERTEX
10
7.07196
20
10.8195
30
9.96
0
VERTEX
10
7.0863
20
10.8195
30
9.96
0
VERTEX
10
7.10065
20
10.8222
30
9.96
0
VERTEX
10
7.10423
20
10.824
30
9.96
0
VERTEX
10
7.10602
20
10.824
30
9.96
0
VERTEX
10
7.10961
20
10.8276
30
9.96
0
VERTEX
10
7.1114
20
10.8294
30
9.96
0
VERTEX
10
7.11858
20
10.8312
30
9.96
0
VERTEX
10
7.12216
20
10.8339
30
9.96
0
VERTEX
10
7.12665
20
10.8401
30
9.96
0
VERTEX
10
7.12933
20
10.8473
30
9.96
0
VERTEX
10
7.12844
20
10.8617
30
9.96
0
VERTEX
10
7.12754
20
10.8634
30
9.96
0
VERTEX
10
7.12037
20
10.8661
30
9.96
0
VERTEX
10
7.1132
20
10.867
30
9.96
0
VERTEX
10
7.1114
20
10.8679
30
9.96
0
VERTEX
10
7.09706
20
10.8608
30
9.96
0
VERTEX
10
7.08989
20
10.8581
30
9.96
0
VERTEX
10
7.08271
20
10.8536
30
9.96
0
VERTEX
10
7.07196
20
10.8401
30
9.96
0
VERTEX
10
7.06747
20
10.8357
30
9.96
0
VERTEX
10
7.06747
20
10.8285
30
9.96
0
VERTEX
10
7.06747
20
10.8258
30
9.96
0
SEQEND
0
POLYLINE
62
227
66
1
70
1
3
endoplasmic_reticulum
0
VERTEX
10
7.45478
20
10.7738
30
9.96
0
VERTEX
10
7.45657
20
10.7702
30
9.96
0
VERTEX
10
7.46016
20
10.7684
30
9.96
0
VERTEX
10
7.46375
20
10.7684
30
9.96
0
VERTEX
10
7.46733
20
10.7711
30
9.96
0
VERTEX
10
7.47092
20
10.7711
30
9.96
0
VERTEX
10
7.47361
20
10.7738
30
9.96
0
VERTEX
10
7.4754
20
10.781
30
9.96
0
VERTEX
10
7.4754
20
10.7881
30
9.96
0
VERTEX
10
7.47899
20
10.7953
30
9.96
0
VERTEX
10
7.48168
20
10.798
30
9.96
0
VERTEX
10
7.48885
20
10.8007
30
9.96
0
VERTEX
10
7.49602
20
10.8061
30
9.96
0
VERTEX
10
7.49692
20
10.8097
30
9.96
0
VERTEX
10
7.49513
20
10.8168
30
9.96
0
VERTEX
10
7.49333
20
10.8204
30
9.96
0
VERTEX
10
7.48706
20
10.824
30
9.96
0
VERTEX
10
7.48347
20
10.8267
30
9.96
0
VERTEX
10
7.47988
20
10.8276
30
9.96
0
VERTEX
10
7.47809
20
10.824
30
9.96
0
VERTEX
10
7.4763
20
10.8222
30
9.96
0
VERTEX
10
7.47361
20
10.8079
30
9.96
0
VERTEX
10
7.47361
20
10.8043
30
9.96
0
VERTEX
10
7.47361
20
10.8025
30
9.96
0
VERTEX
10
7.46913
20
10.7971
30
9.96
0
VERTEX
10
7.46464
20
10.7899
30
9.96
0
VERTEX
10
7.46106
20
10.7872
30
9.96
0
VERTEX
10
7.45926
20
10.7872
30
9.96
0
VERTEX
10
7.45657
20
10.7837
30
9.96
0
VERTEX
10
7.45478
20
10.7765
30
9.96
0
VERTEX
10
7.45478
20
10.7747
30
9.96
0
SEQEND
0
ENDSEC
0
EOF
