0
SECTION
2
ENTITIES
0
POLYLINE
62
31
66
1
70
1
3
contour
0
VERTEX
10
8.41352
20
9.5606
30
6.92
0
VERTEX
10
8.41845
20
9.52122
30
6.92
0
VERTEX
10
8.41845
20
9.50152
30
6.92
0
VERTEX
10
8.42829
20
9.49168
30
6.92
0
VERTEX
10
8.42829
20
9.45229
30
6.92
0
VERTEX
10
8.43322
20
9.4326
30
6.92
0
VERTEX
10
8.44799
20
9.41291
30
6.92
0
VERTEX
10
8.44799
20
9.40306
30
6.92
0
VERTEX
10
8.45783
20
9.39322
30
6.92
0
VERTEX
10
8.5366
20
9.38829
30
6.92
0
VERTEX
10
8.69414
20
9.42275
30
6.92
0
VERTEX
10
8.70399
20
9.42275
30
6.92
0
VERTEX
10
8.71383
20
9.4326
30
6.92
0
VERTEX
10
8.73352
20
9.4326
30
6.92
0
VERTEX
10
8.81229
20
9.46706
30
6.92
0
VERTEX
10
8.83199
20
9.48183
30
6.92
0
VERTEX
10
8.84183
20
9.48183
30
6.92
0
VERTEX
10
8.86152
20
9.4966
30
6.92
0
VERTEX
10
8.87137
20
9.51629
30
6.92
0
VERTEX
10
8.88122
20
9.51629
30
6.92
0
VERTEX
10
8.89106
20
9.52614
30
6.92
0
VERTEX
10
8.89599
20
9.54583
30
6.92
0
VERTEX
10
8.91075
20
9.5606
30
6.92
0
VERTEX
10
8.91568
20
9.57537
30
6.92
0
VERTEX
10
8.93537
20
9.59014
30
6.92
0
VERTEX
10
8.97968
20
9.66398
30
6.92
0
VERTEX
10
8.99445
20
9.68368
30
6.92
0
VERTEX
10
8.99937
20
9.70337
30
6.92
0
VERTEX
10
9.00922
20
9.70337
30
6.92
0
VERTEX
10
9.02891
20
9.72306
30
6.92
0
VERTEX
10
9.03875
20
9.73783
30
6.92
0
VERTEX
10
9.03875
20
9.74768
30
6.92
0
VERTEX
10
9.05352
20
9.76245
30
6.92
0
VERTEX
10
9.0486
20
9.80183
30
6.92
0
VERTEX
10
9.05352
20
9.84121
30
6.92
0
VERTEX
10
9.07322
20
9.8806
30
6.92
0
VERTEX
10
9.10275
20
9.91014
30
6.92
0
VERTEX
10
9.14214
20
9.94952
30
6.92
0
VERTEX
10
9.18152
20
9.96429
30
6.92
0
VERTEX
10
9.19137
20
9.96429
30
6.92
0
VERTEX
10
9.20122
20
9.98398
30
6.92
0
VERTEX
10
9.21599
20
9.99383
30
6.92
0
VERTEX
10
9.23568
20
10.0135
30
6.92
0
VERTEX
10
9.26029
20
10.1711
30
6.92
0
VERTEX
10
9.25045
20
10.2498
30
6.92
0
VERTEX
10
9.18645
20
10.3286
30
6.92
0
VERTEX
10
9.14706
20
10.3631
30
6.92
0
VERTEX
10
9.14214
20
10.3828
30
6.92
0
VERTEX
10
9.12245
20
10.4024
30
6.92
0
VERTEX
10
9.12245
20
10.4123
30
6.92
0
VERTEX
10
9.1126
20
10.4221
30
6.92
0
VERTEX
10
9.1126
20
10.4615
30
6.92
0
VERTEX
10
9.10275
20
10.5009
30
6.92
0
VERTEX
10
9.08306
20
10.5206
30
6.92
0
VERTEX
10
9.06337
20
10.5009
30
6.92
0
VERTEX
10
9.05845
20
10.4812
30
6.92
0
VERTEX
10
9.03875
20
10.4714
30
6.92
0
VERTEX
10
9.03383
20
10.4615
30
6.92
0
VERTEX
10
8.99445
20
10.4517
30
6.92
0
VERTEX
10
8.97475
20
10.4468
30
6.92
0
VERTEX
10
8.97475
20
10.4369
30
6.92
0
VERTEX
10
8.93537
20
10.432
30
6.92
0
VERTEX
10
8.86152
20
10.3778
30
6.92
0
VERTEX
10
8.79752
20
10.3138
30
6.92
0
VERTEX
10
8.78768
20
10.2941
30
6.92
0
VERTEX
10
8.77783
20
10.2843
30
6.92
0
VERTEX
10
8.77783
20
10.2055
30
6.92
0
VERTEX
10
8.77291
20
10.1661
30
6.92
0
VERTEX
10
8.77291
20
10.1563
30
6.92
0
VERTEX
10
8.74829
20
10.1218
30
6.92
0
VERTEX
10
8.73845
20
10.1169
30
6.92
0
VERTEX
10
8.73845
20
10.1071
30
6.92
0
VERTEX
10
8.69906
20
10.0874
30
6.92
0
VERTEX
10
8.6646
20
10.0529
30
6.92
0
VERTEX
10
8.58583
20
10.0283
30
6.92
0
VERTEX
10
8.57599
20
10.0283
30
6.92
0
VERTEX
10
8.56614
20
10.0184
30
6.92
0
VERTEX
10
8.56614
20
10.0086
30
6.92
0
VERTEX
10
8.54645
20
10.0037
30
6.92
0
VERTEX
10
8.47752
20
9.9446
30
6.92
0
VERTEX
10
8.46768
20
9.92491
30
6.92
0
VERTEX
10
8.46768
20
9.90521
30
6.92
0
VERTEX
10
8.44306
20
9.87075
30
6.92
0
VERTEX
10
8.41845
20
9.79198
30
6.92
0
VERTEX
10
8.41352
20
9.63445
30
6.92
0
VERTEX
10
8.41352
20
9.59506
30
6.92
0
VERTEX
10
8.41352
20
9.57537
30
6.92
0
VERTEX
10
8.41352
20
9.56552
30
6.92
0
SEQEND
0
POLYLINE
62
224
66
1
70
1
3
mitochondrion
0
VERTEX
10
8.50387
20
9.64402
30
6.92
0
VERTEX
10
8.5136
20
9.62177
30
6.92
0
VERTEX
10
8.5136
20
9.61899
30
6.92
0
VERTEX
10
8.51777
20
9.61343
30
6.92
0
VERTEX
10
8.51916
20
9.60787
30
6.92
0
VERTEX
10
8.5289
20
9.59814
30
6.92
0
VERTEX
10
8.53029
20
9.59258
30
6.92
0
VERTEX
10
8.55253
20
9.5745
30
6.92
0
VERTEX
10
8.55532
20
9.57172
30
6.92
0
VERTEX
10
8.5581
20
9.57172
30
6.92
0
VERTEX
10
8.56227
20
9.56616
30
6.92
0
VERTEX
10
8.57339
20
9.5606
30
6.92
0
VERTEX
10
8.57895
20
9.55921
30
6.92
0
VERTEX
10
8.58173
20
9.55921
30
6.92
0
VERTEX
10
8.58451
20
9.55642
30
6.92
0
VERTEX
10
8.59564
20
9.55364
30
6.92
0
VERTEX
10
8.6012
20
9.55364
30
6.92
0
VERTEX
10
8.60676
20
9.55086
30
6.92
0
VERTEX
10
8.62901
20
9.54808
30
6.92
0
VERTEX
10
8.63457
20
9.54808
30
6.92
0
VERTEX
10
8.64013
20
9.5453
30
6.92
0
VERTEX
10
8.68463
20
9.54252
30
6.92
0
VERTEX
10
8.70687
20
9.53835
30
6.92
0
VERTEX
10
8.718
20
9.53557
30
6.92
0
VERTEX
10
8.76249
20
9.53696
30
6.92
0
VERTEX
10
8.78474
20
9.54252
30
6.92
0
VERTEX
10
8.79586
20
9.5453
30
6.92
0
VERTEX
10
8.80142
20
9.54669
30
6.92
0
VERTEX
10
8.8042
20
9.54947
30
6.92
0
VERTEX
10
8.82645
20
9.55503
30
6.92
0
VERTEX
10
8.83201
20
9.55921
30
6.92
0
VERTEX
10
8.84313
20
9.55921
30
6.92
0
VERTEX
10
8.84592
20
9.56199
30
6.92
0
VERTEX
10
8.85704
20
9.56616
30
6.92
0
VERTEX
10
8.8626
20
9.56755
30
6.92
0
VERTEX
10
8.86955
20
9.57728
30
6.92
0
VERTEX
10
8.87511
20
9.58145
30
6.92
0
VERTEX
10
8.87789
20
9.58701
30
6.92
0
VERTEX
10
8.87789
20
9.5898
30
6.92
0
VERTEX
10
8.88346
20
9.59119
30
6.92
0
VERTEX
10
8.8918
20
9.60231
30
6.92
0
VERTEX
10
8.89736
20
9.60787
30
6.92
0
VERTEX
10
8.90292
20
9.6176
30
6.92
0
VERTEX
10
8.90709
20
9.62317
30
6.92
0
VERTEX
10
8.90987
20
9.63429
30
6.92
0
VERTEX
10
8.91405
20
9.63985
30
6.92
0
VERTEX
10
8.91683
20
9.64263
30
6.92
0
VERTEX
10
8.91683
20
9.65375
30
6.92
0
VERTEX
10
8.91822
20
9.65932
30
6.92
0
VERTEX
10
8.92239
20
9.66349
30
6.92
0
VERTEX
10
8.92656
20
9.68573
30
6.92
0
VERTEX
10
8.92795
20
9.69686
30
6.92
0
VERTEX
10
8.92517
20
9.74135
30
6.92
0
VERTEX
10
8.91961
20
9.7636
30
6.92
0
VERTEX
10
8.91544
20
9.77472
30
6.92
0
VERTEX
10
8.91266
20
9.77472
30
6.92
0
VERTEX
10
8.90987
20
9.78585
30
6.92
0
VERTEX
10
8.90292
20
9.79558
30
6.92
0
VERTEX
10
8.89736
20
9.79836
30
6.92
0
VERTEX
10
8.89458
20
9.79836
30
6.92
0
VERTEX
10
8.8918
20
9.80114
30
6.92
0
VERTEX
10
8.88902
20
9.80114
30
6.92
0
VERTEX
10
8.88485
20
9.80531
30
6.92
0
VERTEX
10
8.87372
20
9.8067
30
6.92
0
VERTEX
10
8.85148
20
9.81644
30
6.92
0
VERTEX
10
8.80698
20
9.822
30
6.92
0
VERTEX
10
8.79586
20
9.822
30
6.92
0
VERTEX
10
8.77361
20
9.82617
30
6.92
0
VERTEX
10
8.75137
20
9.82756
30
6.92
0
VERTEX
10
8.72912
20
9.83312
30
6.92
0
VERTEX
10
8.70687
20
9.83451
30
6.92
0
VERTEX
10
8.69575
20
9.83173
30
6.92
0
VERTEX
10
8.69019
20
9.83173
30
6.92
0
VERTEX
10
8.68463
20
9.82895
30
6.92
0
VERTEX
10
8.66238
20
9.82617
30
6.92
0
VERTEX
10
8.65125
20
9.822
30
6.92
0
VERTEX
10
8.64013
20
9.822
30
6.92
0
VERTEX
10
8.61788
20
9.81644
30
6.92
0
VERTEX
10
8.6151
20
9.81365
30
6.92
0
VERTEX
10
8.61232
20
9.81365
30
6.92
0
VERTEX
10
8.60954
20
9.81087
30
6.92
0
VERTEX
10
8.59842
20
9.80809
30
6.92
0
VERTEX
10
8.5873
20
9.80253
30
6.92
0
VERTEX
10
8.58451
20
9.80253
30
6.92
0
VERTEX
10
8.57895
20
9.79836
30
6.92
0
VERTEX
10
8.57339
20
9.79697
30
6.92
0
VERTEX
10
8.56783
20
9.7928
30
6.92
0
VERTEX
10
8.56227
20
9.7928
30
6.92
0
VERTEX
10
8.5581
20
9.78863
30
6.92
0
VERTEX
10
8.55671
20
9.78446
30
6.92
0
VERTEX
10
8.54697
20
9.77472
30
6.92
0
VERTEX
10
8.5428
20
9.76916
30
6.92
0
VERTEX
10
8.54002
20
9.76638
30
6.92
0
VERTEX
10
8.54002
20
9.7636
30
6.92
0
VERTEX
10
8.53585
20
9.75943
30
6.92
0
VERTEX
10
8.53307
20
9.75943
30
6.92
0
VERTEX
10
8.52751
20
9.75526
30
6.92
0
VERTEX
10
8.52334
20
9.75387
30
6.92
0
VERTEX
10
8.51777
20
9.74969
30
6.92
0
VERTEX
10
8.51221
20
9.73996
30
6.92
0
VERTEX
10
8.51221
20
9.73718
30
6.92
0
VERTEX
10
8.50804
20
9.73162
30
6.92
0
VERTEX
10
8.50387
20
9.70937
30
6.92
0
VERTEX
10
8.50387
20
9.66488
30
6.92
0
VERTEX
10
8.50387
20
9.65375
30
6.92
0
VERTEX
10
8.50387
20
9.64819
30
6.92
0
VERTEX
10
8.50387
20
9.64541
30
6.92
0
SEQEND
0
POLYLINE
62
227
66
1
70
1
3
endoplasmic_reticulum
0
VERTEX
10
8.46698
20
9.87187
30
6.92
0
VERTEX
10
8.46967
20
9.8647
30
6.92
0
VERTEX
10
8.47057
20
9.86111
30
6.92
0
VERTEX
10
8.47326
20
9.85842
30
6.92
0
VERTEX
10
8.48043
20
9.85663
30
6.92
0
VERTEX
10
8.48222
20
9.85663
30
6.92
0
VERTEX
10
8.48581
20
9.85304
30
6.92
0
VERTEX
10
8.49298
20
9.85035
30
6.92
0
VERTEX
10
8.52167
20
9.85304
30
6.92
0
VERTEX
10
8.53602
20
9.85483
30
6.92
0
VERTEX
10
8.5396
20
9.85663
30
6.92
0
VERTEX
10
8.56829
20
9.85842
30
6.92
0
VERTEX
10
8.57546
20
9.86111
30
6.92
0
VERTEX
10
8.58264
20
9.86201
30
6.92
0
VERTEX
10
8.58443
20
9.8638
30
6.92
0
VERTEX
10
8.5916
20
9.86649
30
6.92
0
VERTEX
10
8.59429
20
9.86918
30
6.92
0
VERTEX
10
8.59788
20
9.87008
30
6.92
0
VERTEX
10
8.60057
20
9.87366
30
6.92
0
VERTEX
10
8.60415
20
9.87546
30
6.92
0
VERTEX
10
8.60595
20
9.87635
30
6.92
0
VERTEX
10
8.60595
20
9.87994
30
6.92
0
VERTEX
10
8.61222
20
9.88621
30
6.92
0
VERTEX
10
8.61491
20
9.8898
30
6.92
0
VERTEX
10
8.61491
20
9.89697
30
6.92
0
VERTEX
10
8.61491
20
9.90056
30
6.92
0
VERTEX
10
8.61312
20
9.90146
30
6.92
0
VERTEX
10
8.61312
20
9.90325
30
6.92
0
VERTEX
10
8.61043
20
9.90683
30
6.92
0
VERTEX
10
8.60415
20
9.91132
30
6.92
0
VERTEX
10
8.60057
20
9.91401
30
6.92
0
VERTEX
10
8.59339
20
9.9158
30
6.92
0
VERTEX
10
8.57905
20
9.9158
30
6.92
0
VERTEX
10
8.5647
20
9.91401
30
6.92
0
VERTEX
10
8.55753
20
9.91042
30
6.92
0
VERTEX
10
8.55395
20
9.91042
30
6.92
0
VERTEX
10
8.55036
20
9.90773
30
6.92
0
VERTEX
10
8.54319
20
9.90683
30
6.92
0
VERTEX
10
8.52884
20
9.90235
30
6.92
0
VERTEX
10
8.52705
20
9.90235
30
6.92
0
VERTEX
10
8.52526
20
9.90056
30
6.92
0
VERTEX
10
8.49657
20
9.89608
30
6.92
0
VERTEX
10
8.4894
20
9.89518
30
6.92
0
VERTEX
10
8.48581
20
9.89428
30
6.92
0
VERTEX
10
8.47953
20
9.8889
30
6.92
0
VERTEX
10
8.47774
20
9.8889
30
6.92
0
VERTEX
10
8.47415
20
9.88263
30
6.92
0
VERTEX
10
8.46877
20
9.87546
30
6.92
0
VERTEX
10
8.46698
20
9.87366
30
6.92
0
VERTEX
10
8.46698
20
9.87277
30
6.92
0
SEQEND
0
POLYLINE
62
227
66
1
70
1
3
endoplasmic_reticulum
0
VERTEX
10
8.95919
20
9.94987
30
6.92
0
VERTEX
10
8.96008
20
9.93552
30
6.92
0
VERTEX
10
8.96277
20
9.92835
30
6.92
0
VERTEX
10
8.96546
20
9.92566
30
6.92
0
VERTEX
10
8.97891
20
9.91939
30
6.92
0
VERTEX
10
8.99325
20
9.9167
30
6.92
0
VERTEX
10
8.99684
20
9.9167
30
6.92
0
VERTEX
10
8.99863
20
9.9167
30
6.92
0
VERTEX
10
9.00581
20
9.92208
30
6.92
0
VERTEX
10
9.0076
20
9.92566
30
6.92
0
VERTEX
10
9.0076
20
9.94001
30
6.92
0
VERTEX
10
9.0076
20
9.94718
30
6.92
0
VERTEX
10
9.0067
20
9.95077
30
6.92
0
VERTEX
10
9.0067
20
9.95256
30
6.92
0
VERTEX
10
9.00043
20
9.95794
30
6.92
0
VERTEX
10
8.99146
20
9.97228
30
6.92
0
VERTEX
10
8.98787
20
9.97408
30
6.92
0
VERTEX
10
8.98698
20
9.97587
30
6.92
0
VERTEX
10
8.97263
20
9.9678
30
6.92
0
VERTEX
10
8.96636
20
9.96421
30
6.92
0
VERTEX
10
8.96187
20
9.95704
30
6.92
0
VERTEX
10
8.95919
20
9.95345
30
6.92
0
VERTEX
10
8.95919
20
9.95077
30
6.92
0
SEQEND
0
POLYLINE
62
227
66
1
70
1
3
endoplasmic_reticulum
0
VERTEX
10
8.90539
20
9.8907
30
6.92
0
VERTEX
10
8.90898
20
9.88711
30
6.92
0
VERTEX
10
8.91615
20
9.88532
30
6.92
0
VERTEX
10
8.9305
20
9.88532
30
6.92
0
VERTEX
10
8.93767
20
9.88621
30
6.92
0
VERTEX
10
8.94125
20
9.88711
30
6.92
0
VERTEX
10
8.94484
20
9.8898
30
6.92
0
VERTEX
10
8.94843
20
9.8898
30
6.92
0
VERTEX
10
8.9547
20
9.89697
30
6.92
0
VERTEX
10
8.95739
20
9.90414
30
6.92
0
VERTEX
10
8.95739
20
9.91132
30
6.92
0
VERTEX
10
8.95739
20
9.91311
30
6.92
0
VERTEX
10
8.9547
20
9.9158
30
6.92
0
VERTEX
10
8.95291
20
9.9167
30
6.92
0
VERTEX
10
8.95112
20
9.9149
30
6.92
0
VERTEX
10
8.94843
20
9.91759
30
6.92
0
VERTEX
10
8.93408
20
9.91849
30
6.92
0
VERTEX
10
8.91974
20
9.91759
30
6.92
0
VERTEX
10
8.91705
20
9.91042
30
6.92
0
VERTEX
10
8.91525
20
9.90683
30
6.92
0
VERTEX
10
8.91167
20
9.90594
30
6.92
0
VERTEX
10
8.90719
20
9.89877
30
6.92
0
VERTEX
10
8.90539
20
9.89518
30
6.92
0
VERTEX
10
8.90539
20
9.89159
30
6.92
0
SEQEND
0
POLYLINE
62
227
66
1
70
1
3
endoplasmic_reticulum
0
VERTEX
10
8.67139
20
9.9418
30
6.92
0
VERTEX
10
8.67767
20
9.93463
30
6.92
0
VERTEX
10
8.68215
20
9.92835
30
6.92
0
VERTEX
10
8.68932
20
9.92297
30
6.92
0
VERTEX
10
8.6947
20
9.91849
30
6.92
0
VERTEX
10
8.70188
20
9.9158
30
6.92
0
VERTEX
10
8.71622
20
9.91401
30
6.92
0
VERTEX
10
8.73057
20
9.9149
30
6.92
0
VERTEX
10
8.73236
20
9.9149
30
6.92
0
VERTEX
10
8.73415
20
9.9167
30
6.92
0
VERTEX
10
8.74132
20
9.91759
30
6.92
0
VERTEX
10
8.74401
20
9.92118
30
6.92
0
VERTEX
10
8.74581
20
9.92208
30
6.92
0
VERTEX
10
8.74491
20
9.92925
30
6.92
0
VERTEX
10
8.74491
20
9.93104
30
6.92
0
VERTEX
10
8.74222
20
9.93463
30
6.92
0
VERTEX
10
8.74222
20
9.93642
30
6.92
0
VERTEX
10
8.73953
20
9.94001
30
6.92
0
VERTEX
10
8.73684
20
9.95435
30
6.92
0
VERTEX
10
8.73953
20
9.95794
30
6.92
0
VERTEX
10
8.7467
20
9.96063
30
6.92
0
VERTEX
10
8.75029
20
9.96152
30
6.92
0
VERTEX
10
8.75388
20
9.96063
30
6.92
0
VERTEX
10
8.75567
20
9.96063
30
6.92
0
VERTEX
10
8.75746
20
9.95883
30
6.92
0
VERTEX
10
8.75926
20
9.95883
30
6.92
0
VERTEX
10
8.76643
20
9.95256
30
6.92
0
VERTEX
10
8.77181
20
9.94628
30
6.92
0
VERTEX
10
8.77898
20
9.94001
30
6.92
0
VERTEX
10
8.79332
20
9.93104
30
6.92
0
VERTEX
10
8.7996
20
9.92746
30
6.92
0
VERTEX
10
8.81394
20
9.9167
30
6.92
0
VERTEX
10
8.82829
20
9.91221
30
6.92
0
VERTEX
10
8.83546
20
9.91042
30
6.92
0
VERTEX
10
8.86415
20
9.91132
30
6.92
0
VERTEX
10
8.86594
20
9.91311
30
6.92
0
VERTEX
10
8.87312
20
9.9158
30
6.92
0
VERTEX
10
8.8767
20
9.91759
30
6.92
0
VERTEX
10
8.88029
20
9.92387
30
6.92
0
VERTEX
10
8.88208
20
9.92566
30
6.92
0
VERTEX
10
8.88119
20
9.93283
30
6.92
0
VERTEX
10
8.8785
20
9.94001
30
6.92
0
VERTEX
10
8.87222
20
9.94628
30
6.92
0
VERTEX
10
8.87222
20
9.94808
30
6.92
0
VERTEX
10
8.86594
20
9.95345
30
6.92
0
VERTEX
10
8.86236
20
9.96063
30
6.92
0
VERTEX
10
8.85967
20
9.96332
30
6.92
0
VERTEX
10
8.85877
20
9.9669
30
6.92
0
VERTEX
10
8.85967
20
9.97408
30
6.92
0
VERTEX
10
8.85877
20
9.97587
30
6.92
0
VERTEX
10
8.8516
20
9.97856
30
6.92
0
VERTEX
10
8.84532
20
9.98304
30
6.92
0
VERTEX
10
8.84353
20
9.98304
30
6.92
0
VERTEX
10
8.84174
20
9.98483
30
6.92
0
VERTEX
10
8.82739
20
9.98483
30
6.92
0
VERTEX
10
8.82022
20
9.98483
30
6.92
0
VERTEX
10
8.81663
20
9.98483
30
6.92
0
VERTEX
10
8.81574
20
9.98304
30
6.92
0
VERTEX
10
8.80139
20
9.98304
30
6.92
0
VERTEX
10
8.79422
20
9.98304
30
6.92
0
VERTEX
10
8.77988
20
9.98573
30
6.92
0
VERTEX
10
8.7727
20
9.98663
30
6.92
0
VERTEX
10
8.75836
20
9.99111
30
6.92
0
VERTEX
10
8.75119
20
9.9938
30
6.92
0
VERTEX
10
8.74401
20
9.9947
30
6.92
0
VERTEX
10
8.74222
20
9.9947
30
6.92
0
VERTEX
10
8.74043
20
9.99649
30
6.92
0
VERTEX
10
8.72608
20
9.99649
30
6.92
0
VERTEX
10
8.7225
20
9.99739
30
6.92
0
VERTEX
10
8.7207
20
9.99739
30
6.92
0
VERTEX
10
8.71891
20
9.99918
30
6.92
0
VERTEX
10
8.71174
20
9.99739
30
6.92
0
VERTEX
10
8.70815
20
9.99649
30
6.92
0
VERTEX
10
8.70636
20
9.98214
30
6.92
0
VERTEX
10
8.70636
20
9.98035
30
6.92
0
VERTEX
10
8.70457
20
9.97945
30
6.92
0
VERTEX
10
8.70277
20
9.97228
30
6.92
0
VERTEX
10
8.70188
20
9.96959
30
6.92
0
VERTEX
10
8.69829
20
9.9669
30
6.92
0
VERTEX
10
8.6947
20
9.96601
30
6.92
0
VERTEX
10
8.69291
20
9.96421
30
6.92
0
VERTEX
10
8.68574
20
9.96152
30
6.92
0
VERTEX
10
8.67229
20
9.95077
30
6.92
0
VERTEX
10
8.67139
20
9.94359
30
6.92
0
VERTEX
10
8.67139
20
9.9427
30
6.92
0
SEQEND
0
ENDSEC
0
EOF
