0
SECTION
2
ENTITIES
0
POLYLINE
62
224
66
1
70
1
3
mitochondrion
0
VERTEX
10
7.48329
20
10.5395
30
9.32
0
VERTEX
10
7.49025
20
10.5172
30
9.32
0
VERTEX
10
7.49442
20
10.5061
30
9.32
0
VERTEX
10
7.50276
20
10.4964
30
9.32
0
VERTEX
10
7.50554
20
10.4908
30
9.32
0
VERTEX
10
7.51666
20
10.4811
30
9.32
0
VERTEX
10
7.51944
20
10.4755
30
9.32
0
VERTEX
10
7.53057
20
10.4672
30
9.32
0
VERTEX
10
7.53613
20
10.463
30
9.32
0
VERTEX
10
7.53891
20
10.4602
30
9.32
0
VERTEX
10
7.54169
20
10.4602
30
9.32
0
VERTEX
10
7.55142
20
10.4505
30
9.32
0
VERTEX
10
7.55699
20
10.4477
30
9.32
0
VERTEX
10
7.55977
20
10.4477
30
9.32
0
VERTEX
10
7.56255
20
10.4449
30
9.32
0
VERTEX
10
7.56533
20
10.4449
30
9.32
0
VERTEX
10
7.56811
20
10.4421
30
9.32
0
VERTEX
10
7.57923
20
10.438
30
9.32
0
VERTEX
10
7.5848
20
10.4366
30
9.32
0
VERTEX
10
7.58758
20
10.4338
30
9.32
0
VERTEX
10
7.5987
20
10.4324
30
9.32
0
VERTEX
10
7.62095
20
10.4241
30
9.32
0
VERTEX
10
7.62651
20
10.4213
30
9.32
0
VERTEX
10
7.63763
20
10.4199
30
9.32
0
VERTEX
10
7.64319
20
10.4171
30
9.32
0
VERTEX
10
7.66544
20
10.4157
30
9.32
0
VERTEX
10
7.671
20
10.4157
30
9.32
0
VERTEX
10
7.68213
20
10.4213
30
9.32
0
VERTEX
10
7.69325
20
10.4227
30
9.32
0
VERTEX
10
7.69881
20
10.4282
30
9.32
0
VERTEX
10
7.70437
20
10.431
30
9.32
0
VERTEX
10
7.70715
20
10.4338
30
9.32
0
VERTEX
10
7.71271
20
10.4352
30
9.32
0
VERTEX
10
7.71689
20
10.4407
30
9.32
0
VERTEX
10
7.71967
20
10.4407
30
9.32
0
VERTEX
10
7.72801
20
10.4505
30
9.32
0
VERTEX
10
7.73913
20
10.4616
30
9.32
0
VERTEX
10
7.74191
20
10.4672
30
9.32
0
VERTEX
10
7.74748
20
10.4699
30
9.32
0
VERTEX
10
7.76277
20
10.4908
30
9.32
0
VERTEX
10
7.7725
20
10.513
30
9.32
0
VERTEX
10
7.77389
20
10.5353
30
9.32
0
VERTEX
10
7.77806
20
10.5464
30
9.32
0
VERTEX
10
7.77946
20
10.5687
30
9.32
0
VERTEX
10
7.78363
20
10.5909
30
9.32
0
VERTEX
10
7.78363
20
10.6132
30
9.32
0
VERTEX
10
7.77946
20
10.6354
30
9.32
0
VERTEX
10
7.77389
20
10.6465
30
9.32
0
VERTEX
10
7.7725
20
10.6521
30
9.32
0
VERTEX
10
7.76416
20
10.6618
30
9.32
0
VERTEX
10
7.75582
20
10.6841
30
9.32
0
VERTEX
10
7.73496
20
10.7063
30
9.32
0
VERTEX
10
7.71411
20
10.7216
30
9.32
0
VERTEX
10
7.70437
20
10.7272
30
9.32
0
VERTEX
10
7.65988
20
10.7258
30
9.32
0
VERTEX
10
7.63763
20
10.7244
30
9.32
0
VERTEX
10
7.62651
20
10.7244
30
9.32
0
VERTEX
10
7.61538
20
10.7216
30
9.32
0
VERTEX
10
7.59314
20
10.7216
30
9.32
0
VERTEX
10
7.58201
20
10.7188
30
9.32
0
VERTEX
10
7.57645
20
10.7188
30
9.32
0
VERTEX
10
7.57367
20
10.7188
30
9.32
0
VERTEX
10
7.56811
20
10.7147
30
9.32
0
VERTEX
10
7.55699
20
10.7105
30
9.32
0
VERTEX
10
7.54586
20
10.7007
30
9.32
0
VERTEX
10
7.5403
20
10.6966
30
9.32
0
VERTEX
10
7.53891
20
10.691
30
9.32
0
VERTEX
10
7.52918
20
10.6827
30
9.32
0
VERTEX
10
7.51388
20
10.6618
30
9.32
0
VERTEX
10
7.50554
20
10.6521
30
9.32
0
VERTEX
10
7.50137
20
10.6465
30
9.32
0
VERTEX
10
7.49859
20
10.6354
30
9.32
0
VERTEX
10
7.49164
20
10.6284
30
9.32
0
VERTEX
10
7.48468
20
10.6062
30
9.32
0
VERTEX
10
7.48329
20
10.5617
30
9.32
0
VERTEX
10
7.48329
20
10.5408
30
9.32
0
SEQEND
0
POLYLINE
62
31
66
1
70
1
3
contour
0
VERTEX
10
7.23537
20
10.6916
30
9.32
0
VERTEX
10
7.23724
20
10.6898
30
9.32
0
VERTEX
10
7.23911
20
10.6916
30
9.32
0
VERTEX
10
7.2447
20
10.686
30
9.32
0
VERTEX
10
7.2503
20
10.6263
30
9.32
0
VERTEX
10
7.2503
20
10.6188
30
9.32
0
VERTEX
10
7.25404
20
10.6114
30
9.32
0
VERTEX
10
7.26337
20
10.5517
30
9.32
0
VERTEX
10
7.26523
20
10.5218
30
9.32
0
VERTEX
10
7.26523
20
10.5143
30
9.32
0
VERTEX
10
7.26897
20
10.5106
30
9.32
0
VERTEX
10
7.27083
20
10.4807
30
9.32
0
VERTEX
10
7.28016
20
10.4509
30
9.32
0
VERTEX
10
7.28576
20
10.4434
30
9.32
0
VERTEX
10
7.28576
20
10.4397
30
9.32
0
VERTEX
10
7.28949
20
10.436
30
9.32
0
VERTEX
10
7.28949
20
10.4322
30
9.32
0
VERTEX
10
7.31002
20
10.4024
30
9.32
0
VERTEX
10
7.31562
20
10.3949
30
9.32
0
VERTEX
10
7.31749
20
10.3874
30
9.32
0
VERTEX
10
7.33055
20
10.3762
30
9.32
0
VERTEX
10
7.33428
20
10.3762
30
9.32
0
VERTEX
10
7.34735
20
10.3632
30
9.32
0
VERTEX
10
7.35481
20
10.3576
30
9.32
0
VERTEX
10
7.35854
20
10.352
30
9.32
0
VERTEX
10
7.37347
20
10.3426
30
9.32
0
VERTEX
10
7.38094
20
10.337
30
9.32
0
VERTEX
10
7.3884
20
10.3352
30
9.32
0
VERTEX
10
7.39587
20
10.3277
30
9.32
0
VERTEX
10
7.4108
20
10.3203
30
9.32
0
VERTEX
10
7.43693
20
10.2997
30
9.32
0
VERTEX
10
7.45186
20
10.2923
30
9.32
0
VERTEX
10
7.46679
20
10.2885
30
9.32
0
VERTEX
10
7.47425
20
10.2885
30
9.32
0
VERTEX
10
7.48172
20
10.2923
30
9.32
0
VERTEX
10
7.48918
20
10.2923
30
9.32
0
VERTEX
10
7.49291
20
10.296
30
9.32
0
VERTEX
10
7.52277
20
10.3035
30
9.32
0
VERTEX
10
7.55263
20
10.3072
30
9.32
0
VERTEX
10
7.61235
20
10.3035
30
9.32
0
VERTEX
10
7.62728
20
10.3016
30
9.32
0
VERTEX
10
7.63288
20
10.2979
30
9.32
0
VERTEX
10
7.64781
20
10.2979
30
9.32
0
VERTEX
10
7.66274
20
10.2904
30
9.32
0
VERTEX
10
7.67021
20
10.2848
30
9.32
0
VERTEX
10
7.68514
20
10.2792
30
9.32
0
VERTEX
10
7.71499
20
10.2587
30
9.32
0
VERTEX
10
7.72246
20
10.2549
30
9.32
0
VERTEX
10
7.73739
20
10.2531
30
9.32
0
VERTEX
10
7.76725
20
10.2568
30
9.32
0
VERTEX
10
7.78218
20
10.2661
30
9.32
0
VERTEX
10
7.78964
20
10.2717
30
9.32
0
VERTEX
10
7.79338
20
10.2755
30
9.32
0
VERTEX
10
7.79711
20
10.2755
30
9.32
0
VERTEX
10
7.80084
20
10.2792
30
9.32
0
VERTEX
10
7.80831
20
10.2811
30
9.32
0
VERTEX
10
7.81577
20
10.2867
30
9.32
0
VERTEX
10
7.8307
20
10.2904
30
9.32
0
VERTEX
10
7.86056
20
10.3035
30
9.32
0
VERTEX
10
7.86616
20
10.3091
30
9.32
0
VERTEX
10
7.88109
20
10.3128
30
9.32
0
VERTEX
10
7.89602
20
10.3221
30
9.32
0
VERTEX
10
7.91095
20
10.3259
30
9.32
0
VERTEX
10
7.91841
20
10.3259
30
9.32
0
VERTEX
10
7.92588
20
10.3296
30
9.32
0
VERTEX
10
7.95574
20
10.3314
30
9.32
0
VERTEX
10
7.9632
20
10.3333
30
9.32
0
VERTEX
10
7.96694
20
10.3333
30
9.32
0
VERTEX
10
7.98
20
10.3445
30
9.32
0
VERTEX
10
8.00053
20
10.3744
30
9.32
0
VERTEX
10
8.00986
20
10.4042
30
9.32
0
VERTEX
10
8.01546
20
10.4341
30
9.32
0
VERTEX
10
8.01546
20
10.4378
30
9.32
0
VERTEX
10
8.02292
20
10.4416
30
9.32
0
VERTEX
10
8.02666
20
10.4565
30
9.32
0
VERTEX
10
8.03039
20
10.464
30
9.32
0
VERTEX
10
8.02666
20
10.5237
30
9.32
0
VERTEX
10
8.02106
20
10.5535
30
9.32
0
VERTEX
10
8.02106
20
10.5573
30
9.32
0
VERTEX
10
8.01732
20
10.561
30
9.32
0
VERTEX
10
8.01359
20
10.561
30
9.32
0
VERTEX
10
8.00799
20
10.5759
30
9.32
0
VERTEX
10
8.00426
20
10.6058
30
9.32
0
VERTEX
10
8.00053
20
10.6133
30
9.32
0
VERTEX
10
7.99493
20
10.6431
30
9.32
0
VERTEX
10
7.99493
20
10.6506
30
9.32
0
VERTEX
10
7.9912
20
10.6543
30
9.32
0
VERTEX
10
7.98746
20
10.6842
30
9.32
0
VERTEX
10
7.98746
20
10.6991
30
9.32
0
VERTEX
10
7.98373
20
10.7066
30
9.32
0
VERTEX
10
7.97813
20
10.7663
30
9.32
0
VERTEX
10
7.9744
20
10.7737
30
9.32
0
VERTEX
10
7.97253
20
10.7887
30
9.32
0
VERTEX
10
7.96694
20
10.8017
30
9.32
0
VERTEX
10
7.94641
20
10.8279
30
9.32
0
VERTEX
10
7.93334
20
10.8409
30
9.32
0
VERTEX
10
7.91841
20
10.8465
30
9.32
0
VERTEX
10
7.91468
20
10.8465
30
9.32
0
VERTEX
10
7.91095
20
10.8503
30
9.32
0
VERTEX
10
7.89602
20
10.854
30
9.32
0
VERTEX
10
7.88855
20
10.854
30
9.32
0
VERTEX
10
7.88482
20
10.854
30
9.32
0
VERTEX
10
7.86989
20
10.8633
30
9.32
0
VERTEX
10
7.85496
20
10.8689
30
9.32
0
VERTEX
10
7.85123
20
10.8689
30
9.32
0
VERTEX
10
7.8475
20
10.8727
30
9.32
0
VERTEX
10
7.84003
20
10.8745
30
9.32
0
VERTEX
10
7.83443
20
10.8801
30
9.32
0
VERTEX
10
7.83257
20
10.8876
30
9.32
0
VERTEX
10
7.8251
20
10.8913
30
9.32
0
VERTEX
10
7.82137
20
10.8913
30
9.32
0
VERTEX
10
7.81017
20
10.9044
30
9.32
0
VERTEX
10
7.80457
20
10.9174
30
9.32
0
VERTEX
10
7.79151
20
10.9268
30
9.32
0
VERTEX
10
7.76725
20
10.951
30
9.32
0
VERTEX
10
7.75419
20
10.9566
30
9.32
0
VERTEX
10
7.73926
20
10.9585
30
9.32
0
VERTEX
10
7.73179
20
10.9548
30
9.32
0
VERTEX
10
7.72806
20
10.9548
30
9.32
0
VERTEX
10
7.71686
20
10.9436
30
9.32
0
VERTEX
10
7.71313
20
10.9398
30
9.32
0
VERTEX
10
7.7094
20
10.9398
30
9.32
0
VERTEX
10
7.6982
20
10.9286
30
9.32
0
VERTEX
10
7.69447
20
10.9249
30
9.32
0
VERTEX
10
7.69073
20
10.9249
30
9.32
0
VERTEX
10
7.6758
20
10.91
30
9.32
0
VERTEX
10
7.64781
20
10.8895
30
9.32
0
VERTEX
10
7.63288
20
10.8839
30
9.32
0
VERTEX
10
7.57503
20
10.8783
30
9.32
0
VERTEX
10
7.5601
20
10.8745
30
9.32
0
VERTEX
10
7.54517
20
10.8745
30
9.32
0
VERTEX
10
7.5321
20
10.8671
30
9.32
0
VERTEX
10
7.51717
20
10.8671
30
9.32
0
VERTEX
10
7.50971
20
10.8652
30
9.32
0
VERTEX
10
7.50598
20
10.8652
30
9.32
0
VERTEX
10
7.49105
20
10.8559
30
9.32
0
VERTEX
10
7.48731
20
10.8521
30
9.32
0
VERTEX
10
7.48358
20
10.8521
30
9.32
0
VERTEX
10
7.46865
20
10.8409
30
9.32
0
VERTEX
10
7.46492
20
10.8409
30
9.32
0
VERTEX
10
7.45186
20
10.8297
30
9.32
0
VERTEX
10
7.44439
20
10.8241
30
9.32
0
VERTEX
10
7.44439
20
10.8204
30
9.32
0
VERTEX
10
7.43693
20
10.8185
30
9.32
0
VERTEX
10
7.42386
20
10.8036
30
9.32
0
VERTEX
10
7.4108
20
10.7924
30
9.32
0
VERTEX
10
7.40147
20
10.7812
30
9.32
0
VERTEX
10
7.394
20
10.7775
30
9.32
0
VERTEX
10
7.38094
20
10.7644
30
9.32
0
VERTEX
10
7.37534
20
10.7569
30
9.32
0
VERTEX
10
7.34548
20
10.7476
30
9.32
0
VERTEX
10
7.33055
20
10.742
30
9.32
0
VERTEX
10
7.32309
20
10.7402
30
9.32
0
VERTEX
10
7.31935
20
10.7402
30
9.32
0
VERTEX
10
7.31189
20
10.7346
30
9.32
0
VERTEX
10
7.29696
20
10.7327
30
9.32
0
VERTEX
10
7.29509
20
10.729
30
9.32
0
VERTEX
10
7.28016
20
10.7252
30
9.32
0
VERTEX
10
7.27643
20
10.7215
30
9.32
0
VERTEX
10
7.2727
20
10.7215
30
9.32
0
VERTEX
10
7.26897
20
10.7178
30
9.32
0
VERTEX
10
7.25404
20
10.7122
30
9.32
0
VERTEX
10
7.24284
20
10.6991
30
9.32
0
VERTEX
10
7.23537
20
10.6935
30
9.32
0
SEQEND
0
POLYLINE
62
227
66
1
70
1
3
endoplasmic_reticulum
0
VERTEX
10
7.46375
20
10.7335
30
9.32
0
VERTEX
10
7.46644
20
10.7263
30
9.32
0
VERTEX
10
7.46913
20
10.7227
30
9.32
0
VERTEX
10
7.4763
20
10.72
30
9.32
0
VERTEX
10
7.47809
20
10.7164
30
9.32
0
VERTEX
10
7.48526
20
10.711
30
9.32
0
VERTEX
10
7.48885
20
10.7083
30
9.32
0
VERTEX
10
7.50319
20
10.7075
30
9.32
0
VERTEX
10
7.51037
20
10.7083
30
9.32
0
VERTEX
10
7.51395
20
10.7092
30
9.32
0
VERTEX
10
7.5265
20
10.72
30
9.32
0
VERTEX
10
7.53009
20
10.7227
30
9.32
0
VERTEX
10
7.53099
20
10.7263
30
9.32
0
VERTEX
10
7.53547
20
10.7335
30
9.32
0
VERTEX
10
7.53816
20
10.7352
30
9.32
0
VERTEX
10
7.53995
20
10.7352
30
9.32
0
VERTEX
10
7.54175
20
10.737
30
9.32
0
VERTEX
10
7.54533
20
10.737
30
9.32
0
VERTEX
10
7.55071
20
10.7415
30
9.32
0
VERTEX
10
7.55788
20
10.7451
30
9.32
0
VERTEX
10
7.55968
20
10.746
30
9.32
0
VERTEX
10
7.55968
20
10.7603
30
9.32
0
VERTEX
10
7.55788
20
10.7639
30
9.32
0
VERTEX
10
7.54354
20
10.7657
30
9.32
0
VERTEX
10
7.52919
20
10.7657
30
9.32
0
VERTEX
10
7.51485
20
10.7675
30
9.32
0
VERTEX
10
7.5005
20
10.7675
30
9.32
0
VERTEX
10
7.49333
20
10.7675
30
9.32
0
VERTEX
10
7.48975
20
10.7684
30
9.32
0
VERTEX
10
7.48795
20
10.7693
30
9.32
0
VERTEX
10
7.4754
20
10.7559
30
9.32
0
VERTEX
10
7.46913
20
10.7496
30
9.32
0
VERTEX
10
7.46554
20
10.746
30
9.32
0
VERTEX
10
7.46375
20
10.7388
30
9.32
0
VERTEX
10
7.46375
20
10.7352
30
9.32
0
VERTEX
10
7.46375
20
10.7343
30
9.32
0
SEQEND
0
POLYLINE
62
227
66
1
70
1
3
endoplasmic_reticulum
0
VERTEX
10
7.66995
20
10.2968
30
9.32
0
VERTEX
10
7.67264
20
10.2897
30
9.32
0
VERTEX
10
7.67354
20
10.2861
30
9.32
0
VERTEX
10
7.67623
20
10.2825
30
9.32
0
VERTEX
10
7.67623
20
10.2807
30
9.32
0
VERTEX
10
7.68071
20
10.2735
30
9.32
0
VERTEX
10
7.68699
20
10.2681
30
9.32
0
VERTEX
10
7.68788
20
10.2663
30
9.32
0
VERTEX
10
7.68968
20
10.2663
30
9.32
0
VERTEX
10
7.70133
20
10.2547
30
9.32
0
VERTEX
10
7.71388
20
10.2448
30
9.32
0
VERTEX
10
7.71747
20
10.243
30
9.32
0
VERTEX
10
7.71926
20
10.243
30
9.32
0
VERTEX
10
7.72285
20
10.2403
30
9.32
0
VERTEX
10
7.73002
20
10.2395
30
9.32
0
VERTEX
10
7.73361
20
10.2368
30
9.32
0
VERTEX
10
7.74078
20
10.235
30
9.32
0
VERTEX
10
7.74437
20
10.2341
30
9.32
0
VERTEX
10
7.75871
20
10.2403
30
9.32
0
VERTEX
10
7.7614
20
10.2439
30
9.32
0
VERTEX
10
7.75961
20
10.2583
30
9.32
0
VERTEX
10
7.75781
20
10.2655
30
9.32
0
VERTEX
10
7.74974
20
10.2798
30
9.32
0
VERTEX
10
7.7363
20
10.2932
30
9.32
0
VERTEX
10
7.73271
20
10.2941
30
9.32
0
VERTEX
10
7.72823
20
10.3013
30
9.32
0
VERTEX
10
7.72464
20
10.3022
30
9.32
0
VERTEX
10
7.71926
20
10.3085
30
9.32
0
VERTEX
10
7.71299
20
10.313
30
9.32
0
VERTEX
10
7.71119
20
10.3148
30
9.32
0
VERTEX
10
7.69685
20
10.3166
30
9.32
0
VERTEX
10
7.68968
20
10.3175
30
9.32
0
VERTEX
10
7.6825
20
10.3148
30
9.32
0
VERTEX
10
7.67533
20
10.3103
30
9.32
0
VERTEX
10
7.67443
20
10.3085
30
9.32
0
VERTEX
10
7.67264
20
10.3085
30
9.32
0
VERTEX
10
7.66995
20
10.3049
30
9.32
0
VERTEX
10
7.66995
20
10.2977
30
9.32
0
SEQEND
0
POLYLINE
62
227
66
1
70
1
3
endoplasmic_reticulum
0
VERTEX
10
7.42071
20
10.4385
30
9.32
0
VERTEX
10
7.42251
20
10.4349
30
9.32
0
VERTEX
10
7.42251
20
10.4313
30
9.32
0
VERTEX
10
7.4243
20
10.4295
30
9.32
0
VERTEX
10
7.42519
20
10.4259
30
9.32
0
VERTEX
10
7.43864
20
10.4143
30
9.32
0
VERTEX
10
7.44133
20
10.4116
30
9.32
0
VERTEX
10
7.44313
20
10.4107
30
9.32
0
VERTEX
10
7.44313
20
10.4071
30
9.32
0
VERTEX
10
7.44671
20
10.4008
30
9.32
0
VERTEX
10
7.44761
20
10.3937
30
9.32
0
VERTEX
10
7.4503
20
10.3865
30
9.32
0
VERTEX
10
7.45299
20
10.3829
30
9.32
0
VERTEX
10
7.45388
20
10.3793
30
9.32
0
VERTEX
10
7.46016
20
10.373
30
9.32
0
VERTEX
10
7.46733
20
10.3703
30
9.32
0
VERTEX
10
7.48168
20
10.3712
30
9.32
0
VERTEX
10
7.48437
20
10.3739
30
9.32
0
VERTEX
10
7.49871
20
10.373
30
9.32
0
VERTEX
10
7.50588
20
10.373
30
9.32
0
VERTEX
10
7.50947
20
10.3712
30
9.32
0
VERTEX
10
7.52381
20
10.3712
30
9.32
0
VERTEX
10
7.53816
20
10.3739
30
9.32
0
VERTEX
10
7.54533
20
10.3757
30
9.32
0
VERTEX
10
7.55071
20
10.3811
30
9.32
0
VERTEX
10
7.5534
20
10.3883
30
9.32
0
VERTEX
10
7.55519
20
10.3919
30
9.32
0
VERTEX
10
7.55519
20
10.4062
30
9.32
0
VERTEX
10
7.54623
20
10.4206
30
9.32
0
VERTEX
10
7.53995
20
10.4259
30
9.32
0
VERTEX
10
7.53726
20
10.4286
30
9.32
0
VERTEX
10
7.53368
20
10.4295
30
9.32
0
VERTEX
10
7.53009
20
10.4331
30
9.32
0
VERTEX
10
7.52292
20
10.4376
30
9.32
0
VERTEX
10
7.51575
20
10.4403
30
9.32
0
VERTEX
10
7.50857
20
10.4412
30
9.32
0
VERTEX
10
7.50319
20
10.4457
30
9.32
0
VERTEX
10
7.5014
20
10.4475
30
9.32
0
VERTEX
10
7.48706
20
10.4537
30
9.32
0
VERTEX
10
7.48347
20
10.4573
30
9.32
0
VERTEX
10
7.47988
20
10.4591
30
9.32
0
VERTEX
10
7.47899
20
10.4609
30
9.32
0
VERTEX
10
7.4754
20
10.4618
30
9.32
0
VERTEX
10
7.47182
20
10.4645
30
9.32
0
VERTEX
10
7.46823
20
10.4708
30
9.32
0
VERTEX
10
7.46644
20
10.4743
30
9.32
0
VERTEX
10
7.46554
20
10.4761
30
9.32
0
VERTEX
10
7.45119
20
10.4752
30
9.32
0
VERTEX
10
7.44492
20
10.4708
30
9.32
0
VERTEX
10
7.43775
20
10.4699
30
9.32
0
VERTEX
10
7.43416
20
10.469
30
9.32
0
VERTEX
10
7.42699
20
10.4627
30
9.32
0
VERTEX
10
7.4243
20
10.46
30
9.32
0
VERTEX
10
7.42161
20
10.4528
30
9.32
0
VERTEX
10
7.42071
20
10.4394
30
9.32
0
SEQEND
0
POLYLINE
62
227
66
1
70
1
3
endoplasmic_reticulum
0
VERTEX
10
7.79009
20
10.8222
30
9.32
0
VERTEX
10
7.79636
20
10.8159
30
9.32
0
VERTEX
10
7.80354
20
10.8114
30
9.32
0
VERTEX
10
7.80712
20
10.8088
30
9.32
0
VERTEX
10
7.8143
20
10.807
30
9.32
0
VERTEX
10
7.82147
20
10.807
30
9.32
0
VERTEX
10
7.82326
20
10.807
30
9.32
0
VERTEX
10
7.82416
20
10.8088
30
9.32
0
VERTEX
10
7.82774
20
10.8097
30
9.32
0
VERTEX
10
7.82954
20
10.8097
30
9.32
0
VERTEX
10
7.83671
20
10.8141
30
9.32
0
VERTEX
10
7.84209
20
10.8204
30
9.32
0
VERTEX
10
7.84747
20
10.8249
30
9.32
0
VERTEX
10
7.85016
20
10.8285
30
9.32
0
VERTEX
10
7.85105
20
10.8428
30
9.32
0
VERTEX
10
7.85016
20
10.85
30
9.32
0
VERTEX
10
7.84568
20
10.8563
30
9.32
0
VERTEX
10
7.84209
20
10.859
30
9.32
0
VERTEX
10
7.83492
20
10.8608
30
9.32
0
VERTEX
10
7.83312
20
10.8626
30
9.32
0
VERTEX
10
7.82595
20
10.8626
30
9.32
0
VERTEX
10
7.81161
20
10.8599
30
9.32
0
VERTEX
10
7.80443
20
10.8563
30
9.32
0
VERTEX
10
7.80264
20
10.8563
30
9.32
0
VERTEX
10
7.80085
20
10.8545
30
9.32
0
VERTEX
10
7.80174
20
10.8509
30
9.32
0
VERTEX
10
7.80174
20
10.8491
30
9.32
0
VERTEX
10
7.79995
20
10.8491
30
9.32
0
VERTEX
10
7.79636
20
10.8455
30
9.32
0
VERTEX
10
7.79457
20
10.8419
30
9.32
0
VERTEX
10
7.79099
20
10.8392
30
9.32
0
VERTEX
10
7.79009
20
10.8249
30
9.32
0
VERTEX
10
7.79009
20
10.8231
30
9.32
0
SEQEND
0
POLYLINE
62
227
66
1
70
1
3
endoplasmic_reticulum
0
VERTEX
10
7.73271
20
10.3972
30
9.32
0
VERTEX
10
7.73719
20
10.3901
30
9.32
0
VERTEX
10
7.75064
20
10.382
30
9.32
0
VERTEX
10
7.76499
20
10.3811
30
9.32
0
VERTEX
10
7.77216
20
10.382
30
9.32
0
VERTEX
10
7.77574
20
10.3838
30
9.32
0
VERTEX
10
7.77664
20
10.3856
30
9.32
0
VERTEX
10
7.77843
20
10.3856
30
9.32
0
VERTEX
10
7.78292
20
10.3919
30
9.32
0
VERTEX
10
7.78381
20
10.399
30
9.32
0
VERTEX
10
7.78202
20
10.4134
30
9.32
0
VERTEX
10
7.78202
20
10.4152
30
9.32
0
VERTEX
10
7.77574
20
10.4215
30
9.32
0
VERTEX
10
7.77574
20
10.4232
30
9.32
0
VERTEX
10
7.76857
20
10.4259
30
9.32
0
VERTEX
10
7.75423
20
10.4286
30
9.32
0
VERTEX
10
7.75064
20
10.4277
30
9.32
0
VERTEX
10
7.74347
20
10.4232
30
9.32
0
VERTEX
10
7.73899
20
10.417
30
9.32
0
VERTEX
10
7.7354
20
10.4143
30
9.32
0
VERTEX
10
7.7354
20
10.4125
30
9.32
0
VERTEX
10
7.73361
20
10.4116
30
9.32
0
VERTEX
10
7.73271
20
10.3981
30
9.32
0
SEQEND
0
POLYLINE
62
227
66
1
70
1
3
endoplasmic_reticulum
0
VERTEX
10
7.81878
20
10.4412
30
9.32
0
VERTEX
10
7.82505
20
10.4358
30
9.32
0
VERTEX
10
7.83133
20
10.4322
30
9.32
0
VERTEX
10
7.84568
20
10.4313
30
9.32
0
VERTEX
10
7.86002
20
10.4322
30
9.32
0
VERTEX
10
7.86181
20
10.4358
30
9.32
0
VERTEX
10
7.86181
20
10.4394
30
9.32
0
VERTEX
10
7.8645
20
10.4421
30
9.32
0
VERTEX
10
7.8654
20
10.4492
30
9.32
0
VERTEX
10
7.86271
20
10.4564
30
9.32
0
VERTEX
10
7.84926
20
10.4663
30
9.32
0
VERTEX
10
7.84568
20
10.469
30
9.32
0
VERTEX
10
7.84388
20
10.4699
30
9.32
0
VERTEX
10
7.83671
20
10.4672
30
9.32
0
VERTEX
10
7.83312
20
10.4672
30
9.32
0
VERTEX
10
7.82954
20
10.4654
30
9.32
0
VERTEX
10
7.82595
20
10.4654
30
9.32
0
VERTEX
10
7.82236
20
10.4636
30
9.32
0
VERTEX
10
7.81968
20
10.46
30
9.32
0
VERTEX
10
7.81878
20
10.4457
30
9.32
0
VERTEX
10
7.81878
20
10.4421
30
9.32
0
SEQEND
0
POLYLINE
62
227
66
1
70
1
3
endoplasmic_reticulum
0
VERTEX
10
7.36602
20
10.5828
30
9.32
0
VERTEX
10
7.36961
20
10.5792
30
9.32
0
VERTEX
10
7.3723
20
10.5775
30
9.32
0
VERTEX
10
7.3732
20
10.5757
30
9.32
0
VERTEX
10
7.38037
20
10.5757
30
9.32
0
VERTEX
10
7.38754
20
10.5783
30
9.32
0
VERTEX
10
7.38844
20
10.5927
30
9.32
0
VERTEX
10
7.38844
20
10.5999
30
9.32
0
VERTEX
10
7.39023
20
10.6035
30
9.32
0
VERTEX
10
7.39023
20
10.6052
30
9.32
0
VERTEX
10
7.40457
20
10.6106
30
9.32
0
VERTEX
10
7.40726
20
10.6142
30
9.32
0
VERTEX
10
7.40637
20
10.6214
30
9.32
0
VERTEX
10
7.3992
20
10.6223
30
9.32
0
VERTEX
10
7.38485
20
10.6214
30
9.32
0
VERTEX
10
7.38126
20
10.6196
30
9.32
0
VERTEX
10
7.37947
20
10.6196
30
9.32
0
VERTEX
10
7.38037
20
10.6232
30
9.32
0
VERTEX
10
7.38037
20
10.625
30
9.32
0
VERTEX
10
7.37857
20
10.6259
30
9.32
0
VERTEX
10
7.37499
20
10.625
30
9.32
0
VERTEX
10
7.3714
20
10.6214
30
9.32
0
VERTEX
10
7.3714
20
10.6178
30
9.32
0
VERTEX
10
7.36961
20
10.616
30
9.32
0
VERTEX
10
7.36961
20
10.6088
30
9.32
0
VERTEX
10
7.36692
20
10.5945
30
9.32
0
VERTEX
10
7.36602
20
10.5873
30
9.32
0
VERTEX
10
7.36602
20
10.5837
30
9.32
0
SEQEND
0
POLYLINE
62
227
66
1
70
1
3
endoplasmic_reticulum
0
VERTEX
10
6.41369
20
10.9661
30
9.32
0
VERTEX
10
6.41522
20
10.96
30
9.32
0
VERTEX
10
6.42445
20
10.9492
30
9.32
0
VERTEX
10
6.43059
20
10.9477
30
9.32
0
VERTEX
10
6.43367
20
10.9446
30
9.32
0
VERTEX
10
6.44596
20
10.9446
30
9.32
0
VERTEX
10
6.45672
20
10.9538
30
9.32
0
VERTEX
10
6.45518
20
10.9784
30
9.32
0
VERTEX
10
6.4475
20
10.9876
30
9.32
0
VERTEX
10
6.4352
20
10.9923
30
9.32
0
VERTEX
10
6.42291
20
10.9907
30
9.32
0
VERTEX
10
6.41676
20
10.9876
30
9.32
0
VERTEX
10
6.41369
20
10.9846
30
9.32
0
VERTEX
10
6.41369
20
10.9723
30
9.32
0
VERTEX
10
6.41369
20
10.9677
30
9.32
0
SEQEND
0
POLYLINE
62
31
66
1
70
1
3
contour
0
VERTEX
10
6.28364
20
11.0663
30
9.32
0
VERTEX
10
6.28685
20
11.0534
30
9.32
0
VERTEX
10
6.28685
20
11.0406
30
9.32
0
VERTEX
10
6.28685
20
11.0341
30
9.32
0
VERTEX
10
6.2965
20
11.0084
30
9.32
0
VERTEX
10
6.29971
20
10.9956
30
9.32
0
VERTEX
10
6.30293
20
10.9907
30
9.32
0
VERTEX
10
6.30293
20
10.9875
30
9.32
0
VERTEX
10
6.3206
20
10.9618
30
9.32
0
VERTEX
10
6.32221
20
10.9554
30
9.32
0
VERTEX
10
6.32703
20
10.949
30
9.32
0
VERTEX
10
6.32864
20
10.9425
30
9.32
0
VERTEX
10
6.33828
20
10.9313
30
9.32
0
VERTEX
10
6.33828
20
10.9249
30
9.32
0
VERTEX
10
6.34471
20
10.912
30
9.32
0
VERTEX
10
6.34632
20
10.9056
30
9.32
0
VERTEX
10
6.34953
20
10.9024
30
9.32
0
VERTEX
10
6.34953
20
10.8991
30
9.32
0
VERTEX
10
6.35435
20
10.8927
30
9.32
0
VERTEX
10
6.35917
20
10.8799
30
9.32
0
VERTEX
10
6.36239
20
10.8766
30
9.32
0
VERTEX
10
6.36239
20
10.8734
30
9.32
0
VERTEX
10
6.37364
20
10.8606
30
9.32
0
VERTEX
10
6.38006
20
10.8493
30
9.32
0
VERTEX
10
6.39131
20
10.8381
30
9.32
0
VERTEX
10
6.41703
20
10.8204
30
9.32
0
VERTEX
10
6.42346
20
10.8188
30
9.32
0
VERTEX
10
6.43631
20
10.8108
30
9.32
0
VERTEX
10
6.44274
20
10.8091
30
9.32
0
VERTEX
10
6.46845
20
10.7915
30
9.32
0
VERTEX
10
6.47488
20
10.7866
30
9.32
0
VERTEX
10
6.48774
20
10.785
30
9.32
0
VERTEX
10
6.5006
20
10.777
30
9.32
0
VERTEX
10
6.50381
20
10.777
30
9.32
0
VERTEX
10
6.51024
20
10.7722
30
9.32
0
VERTEX
10
6.52309
20
10.769
30
9.32
0
VERTEX
10
6.52309
20
10.7658
30
9.32
0
VERTEX
10
6.54881
20
10.7641
30
9.32
0
VERTEX
10
6.60023
20
10.7674
30
9.32
0
VERTEX
10
6.61309
20
10.769
30
9.32
0
VERTEX
10
6.61952
20
10.769
30
9.32
0
VERTEX
10
6.62434
20
10.7738
30
9.32
0
VERTEX
10
6.63077
20
10.7754
30
9.32
0
VERTEX
10
6.64041
20
10.7883
30
9.32
0
VERTEX
10
6.64523
20
10.7931
30
9.32
0
VERTEX
10
6.65327
20
10.8445
30
9.32
0
VERTEX
10
6.65327
20
10.8509
30
9.32
0
VERTEX
10
6.6613
20
10.8766
30
9.32
0
VERTEX
10
6.6613
20
10.8799
30
9.32
0
VERTEX
10
6.66452
20
10.8831
30
9.32
0
VERTEX
10
6.67416
20
10.9088
30
9.32
0
VERTEX
10
6.67416
20
10.912
30
9.32
0
VERTEX
10
6.67898
20
10.9184
30
9.32
0
VERTEX
10
6.67898
20
10.9441
30
9.32
0
VERTEX
10
6.67737
20
10.957
30
9.32
0
VERTEX
10
6.66612
20
10.9827
30
9.32
0
VERTEX
10
6.66291
20
10.9956
30
9.32
0
VERTEX
10
6.65809
20
11.002
30
9.32
0
VERTEX
10
6.65809
20
11.0084
30
9.32
0
VERTEX
10
6.64202
20
11.0325
30
9.32
0
VERTEX
10
6.64041
20
11.039
30
9.32
0
VERTEX
10
6.62273
20
11.0631
30
9.32
0
VERTEX
10
6.61791
20
11.0695
30
9.32
0
VERTEX
10
6.6163
20
11.0727
30
9.32
0
VERTEX
10
6.61309
20
11.0727
30
9.32
0
VERTEX
10
6.60988
20
11.0791
30
9.32
0
VERTEX
10
6.58577
20
11.1
30
9.32
0
VERTEX
10
6.57934
20
11.1032
30
9.32
0
VERTEX
10
6.57773
20
11.1065
30
9.32
0
VERTEX
10
6.56488
20
11.1097
30
9.32
0
VERTEX
10
6.56006
20
11.1145
30
9.32
0
VERTEX
10
6.55684
20
11.1161
30
9.32
0
VERTEX
10
6.55524
20
11.1225
30
9.32
0
VERTEX
10
6.55202
20
11.1225
30
9.32
0
VERTEX
10
6.52792
20
11.1386
30
9.32
0
VERTEX
10
6.51506
20
11.1466
30
9.32
0
VERTEX
10
6.50542
20
11.1547
30
9.32
0
VERTEX
10
6.5022
20
11.1547
30
9.32
0
VERTEX
10
6.48935
20
11.1627
30
9.32
0
VERTEX
10
6.47649
20
11.1675
30
9.32
0
VERTEX
10
6.47327
20
11.1675
30
9.32
0
VERTEX
10
6.47006
20
11.1707
30
9.32
0
VERTEX
10
6.44435
20
11.1723
30
9.32
0
VERTEX
10
6.41863
20
11.1691
30
9.32
0
VERTEX
10
6.39292
20
11.1595
30
9.32
0
VERTEX
10
6.38649
20
11.1595
30
9.32
0
VERTEX
10
6.38006
20
11.1563
30
9.32
0
VERTEX
10
6.37364
20
11.1563
30
9.32
0
VERTEX
10
6.34792
20
11.1418
30
9.32
0
VERTEX
10
6.32542
20
11.1273
30
9.32
0
VERTEX
10
6.31257
20
11.1193
30
9.32
0
VERTEX
10
6.30935
20
11.1161
30
9.32
0
VERTEX
10
6.30935
20
11.1129
30
9.32
0
VERTEX
10
6.2981
20
11.1016
30
9.32
0
VERTEX
10
6.28846
20
11.0759
30
9.32
0
VERTEX
10
6.28364
20
11.0695
30
9.32
0
VERTEX
10
6.28364
20
11.0679
30
9.32
0
SEQEND
0
POLYLINE
62
236
66
1
70
1
3
postsynaptic_density
0
VERTEX
10
7.81653
20
10.7749
30
9.32
0
VERTEX
10
7.856
20
10.7601
30
9.32
0
VERTEX
10
7.87574
20
10.7527
30
9.32
0
VERTEX
10
7.88068
20
10.7502
30
9.32
0
VERTEX
10
7.88068
20
10.6712
30
9.32
0
VERTEX
10
7.88561
20
10.6515
30
9.32
0
VERTEX
10
7.89055
20
10.6466
30
9.32
0
VERTEX
10
7.89795
20
10.5676
30
9.32
0
VERTEX
10
7.90535
20
10.5281
30
9.32
0
VERTEX
10
7.91769
20
10.5084
30
9.32
0
VERTEX
10
7.92509
20
10.501
30
9.32
0
VERTEX
10
7.92262
20
10.4961
30
9.32
0
VERTEX
10
7.93249
20
10.4763
30
9.32
0
VERTEX
10
7.93496
20
10.4664
30
9.32
0
VERTEX
10
7.93496
20
10.4615
30
9.32
0
VERTEX
10
7.93989
20
10.4566
30
9.32
0
VERTEX
10
7.94976
20
10.4566
30
9.32
0
VERTEX
10
7.9695
20
10.4689
30
9.32
0
VERTEX
10
7.98431
20
10.4763
30
9.32
0
VERTEX
10
8.06326
20
10.4813
30
9.32
0
VERTEX
10
8.10274
20
10.4837
30
9.32
0
VERTEX
10
8.18169
20
10.4813
30
9.32
0
VERTEX
10
8.22117
20
10.4837
30
9.32
0
VERTEX
10
8.23104
20
10.4862
30
9.32
0
VERTEX
10
8.23351
20
10.4911
30
9.32
0
VERTEX
10
8.22611
20
10.5109
30
9.32
0
VERTEX
10
8.22364
20
10.5306
30
9.32
0
VERTEX
10
8.21624
20
10.5405
30
9.32
0
VERTEX
10
8.22364
20
10.5602
30
9.32
0
VERTEX
10
8.23104
20
10.5997
30
9.32
0
VERTEX
10
8.25571
20
10.6786
30
9.32
0
VERTEX
10
8.26312
20
10.7181
30
9.32
0
VERTEX
10
8.26558
20
10.7379
30
9.32
0
VERTEX
10
8.27052
20
10.7477
30
9.32
0
VERTEX
10
8.27052
20
10.7675
30
9.32
0
VERTEX
10
8.27545
20
10.7872
30
9.32
0
VERTEX
10
8.27299
20
10.7921
30
9.32
0
VERTEX
10
8.11508
20
10.7897
30
9.32
0
VERTEX
10
8.0756
20
10.7897
30
9.32
0
VERTEX
10
8.05586
20
10.7872
30
9.32
0
VERTEX
10
8.04599
20
10.7872
30
9.32
0
VERTEX
10
8.03612
20
10.7823
30
9.32
0
VERTEX
10
7.87821
20
10.7773
30
9.32
0
VERTEX
10
7.83873
20
10.7773
30
9.32
0
VERTEX
10
7.81899
20
10.7773
30
9.32
0
SEQEND
0
ENDSEC
0
EOF
