0
SECTION
2
ENTITIES
0
POLYLINE
62
31
66
1
70
1
3
contour
0
VERTEX
10
6.69237
20
10.7697
30
10.32
0
VERTEX
10
6.69983
20
10.7548
30
10.32
0
VERTEX
10
6.70729
20
10.7548
30
10.32
0
VERTEX
10
6.70729
20
10.7473
30
10.32
0
VERTEX
10
6.72221
20
10.7399
30
10.32
0
VERTEX
10
6.72594
20
10.7324
30
10.32
0
VERTEX
10
6.7819
20
10.71
30
10.32
0
VERTEX
10
6.79682
20
10.71
30
10.32
0
VERTEX
10
6.82666
20
10.6988
30
10.32
0
VERTEX
10
6.94604
20
10.6839
30
10.32
0
VERTEX
10
6.97588
20
10.6839
30
10.32
0
VERTEX
10
6.9908
20
10.6727
30
10.32
0
VERTEX
10
7.05049
20
10.6615
30
10.32
0
VERTEX
10
7.11018
20
10.6578
30
10.32
0
VERTEX
10
7.1251
20
10.6578
30
10.32
0
VERTEX
10
7.13256
20
10.6503
30
10.32
0
VERTEX
10
7.19224
20
10.6466
30
10.32
0
VERTEX
10
7.22209
20
10.6354
30
10.32
0
VERTEX
10
7.34146
20
10.6354
30
10.32
0
VERTEX
10
7.3713
20
10.6205
30
10.32
0
VERTEX
10
7.43099
20
10.6205
30
10.32
0
VERTEX
10
7.44591
20
10.628
30
10.32
0
VERTEX
10
7.47576
20
10.628
30
10.32
0
VERTEX
10
7.48322
20
10.6354
30
10.32
0
VERTEX
10
7.49814
20
10.6354
30
10.32
0
VERTEX
10
7.52798
20
10.6466
30
10.32
0
VERTEX
10
7.5429
20
10.6503
30
10.32
0
VERTEX
10
7.55036
20
10.6615
30
10.32
0
VERTEX
10
7.55783
20
10.6653
30
10.32
0
VERTEX
10
7.55783
20
10.6727
30
10.32
0
VERTEX
10
7.58021
20
10.7026
30
10.32
0
VERTEX
10
7.59886
20
10.7212
30
10.32
0
VERTEX
10
7.59886
20
10.7287
30
10.32
0
VERTEX
10
7.62124
20
10.7585
30
10.32
0
VERTEX
10
7.65109
20
10.7846
30
10.32
0
VERTEX
10
7.66974
20
10.8145
30
10.32
0
VERTEX
10
7.6772
20
10.8145
30
10.32
0
VERTEX
10
7.69958
20
10.8369
30
10.32
0
VERTEX
10
7.70331
20
10.8518
30
10.32
0
VERTEX
10
7.71823
20
10.8555
30
10.32
0
VERTEX
10
7.71077
20
10.9152
30
10.32
0
VERTEX
10
7.71077
20
10.9301
30
10.32
0
VERTEX
10
7.69958
20
10.945
30
10.32
0
VERTEX
10
7.66974
20
10.96
30
10.32
0
VERTEX
10
7.64363
20
10.9898
30
10.32
0
VERTEX
10
7.62124
20
11.0122
30
10.32
0
VERTEX
10
7.5914
20
11.0234
30
10.32
0
VERTEX
10
7.58394
20
11.0234
30
10.32
0
VERTEX
10
7.58021
20
11.0308
30
10.32
0
VERTEX
10
7.57275
20
11.0308
30
10.32
0
VERTEX
10
7.56529
20
11.0383
30
10.32
0
VERTEX
10
7.5056
20
11.0308
30
10.32
0
VERTEX
10
7.47576
20
11.0308
30
10.32
0
VERTEX
10
7.46083
20
11.0271
30
10.32
0
VERTEX
10
7.44591
20
11.0159
30
10.32
0
VERTEX
10
7.41607
20
11.0047
30
10.32
0
VERTEX
10
7.41607
20
10.9973
30
10.32
0
VERTEX
10
7.38996
20
10.9786
30
10.32
0
VERTEX
10
7.37877
20
10.9637
30
10.32
0
VERTEX
10
7.37504
20
10.9525
30
10.32
0
VERTEX
10
7.36011
20
10.945
30
10.32
0
VERTEX
10
7.35265
20
10.9376
30
10.32
0
VERTEX
10
7.32281
20
10.9339
30
10.32
0
VERTEX
10
7.30789
20
10.9264
30
10.32
0
VERTEX
10
7.18851
20
10.9189
30
10.32
0
VERTEX
10
7.17359
20
10.9115
30
10.32
0
VERTEX
10
7.11391
20
10.9077
30
10.32
0
VERTEX
10
7.09898
20
10.904
30
10.32
0
VERTEX
10
7.09152
20
10.8965
30
10.32
0
VERTEX
10
7.03184
20
10.8891
30
10.32
0
VERTEX
10
6.97588
20
10.863
30
10.32
0
VERTEX
10
6.94604
20
10.8555
30
10.32
0
VERTEX
10
6.93858
20
10.8481
30
10.32
0
VERTEX
10
6.90873
20
10.8406
30
10.32
0
VERTEX
10
6.89381
20
10.8331
30
10.32
0
VERTEX
10
6.88635
20
10.8257
30
10.32
0
VERTEX
10
6.76698
20
10.8145
30
10.32
0
VERTEX
10
6.75206
20
10.8145
30
10.32
0
VERTEX
10
6.74086
20
10.8033
30
10.32
0
VERTEX
10
6.71102
20
10.7958
30
10.32
0
VERTEX
10
6.6961
20
10.7846
30
10.32
0
VERTEX
10
6.69237
20
10.7734
30
10.32
0
SEQEND
0
POLYLINE
62
236
66
1
70
1
3
postsynaptic_density
0
VERTEX
10
6.56913
20
10.3371
30
10.32
0
VERTEX
10
6.57286
20
10.3221
30
10.32
0
VERTEX
10
6.58593
20
10.3109
30
10.32
0
VERTEX
10
6.59153
20
10.3053
30
10.32
0
VERTEX
10
6.60646
20
10.3016
30
10.32
0
VERTEX
10
6.61392
20
10.2979
30
10.32
0
VERTEX
10
6.64378
20
10.2979
30
10.32
0
VERTEX
10
6.65871
20
10.2997
30
10.32
0
VERTEX
10
6.66244
20
10.2997
30
10.32
0
VERTEX
10
6.66618
20
10.3035
30
10.32
0
VERTEX
10
6.6811
20
10.3035
30
10.32
0
VERTEX
10
6.68857
20
10.3035
30
10.32
0
VERTEX
10
6.69603
20
10.3072
30
10.32
0
VERTEX
10
6.72589
20
10.3128
30
10.32
0
VERTEX
10
6.74082
20
10.3221
30
10.32
0
VERTEX
10
6.74829
20
10.324
30
10.32
0
VERTEX
10
6.75202
20
10.324
30
10.32
0
VERTEX
10
6.75762
20
10.3296
30
10.32
0
VERTEX
10
6.77255
20
10.3352
30
10.32
0
VERTEX
10
6.78748
20
10.3445
30
10.32
0
VERTEX
10
6.79494
20
10.3482
30
10.32
0
VERTEX
10
6.79681
20
10.352
30
10.32
0
VERTEX
10
6.81174
20
10.3557
30
10.32
0
VERTEX
10
6.82667
20
10.3669
30
10.32
0
VERTEX
10
6.8416
20
10.3744
30
10.32
0
VERTEX
10
6.8528
20
10.3874
30
10.32
0
VERTEX
10
6.85653
20
10.3912
30
10.32
0
VERTEX
10
6.8584
20
10.4061
30
10.32
0
VERTEX
10
6.85653
20
10.421
30
10.32
0
VERTEX
10
6.84907
20
10.436
30
10.32
0
VERTEX
10
6.8472
20
10.4434
30
10.32
0
VERTEX
10
6.82107
20
10.4658
30
10.32
0
VERTEX
10
6.81734
20
10.4696
30
10.32
0
VERTEX
10
6.80241
20
10.4752
30
10.32
0
VERTEX
10
6.79494
20
10.4752
30
10.32
0
VERTEX
10
6.67551
20
10.4248
30
10.32
0
VERTEX
10
6.64565
20
10.4117
30
10.32
0
VERTEX
10
6.64191
20
10.408
30
10.32
0
VERTEX
10
6.61205
20
10.4098
30
10.32
0
VERTEX
10
6.59712
20
10.4098
30
10.32
0
VERTEX
10
6.58966
20
10.408
30
10.32
0
VERTEX
10
6.57846
20
10.3949
30
10.32
0
VERTEX
10
6.571
20
10.38
30
10.32
0
VERTEX
10
6.56913
20
10.3501
30
10.32
0
VERTEX
10
6.56913
20
10.3426
30
10.32
0
VERTEX
10
6.56913
20
10.3389
30
10.32
0
SEQEND
0
POLYLINE
62
227
66
1
70
1
3
endoplasmic_reticulum
0
VERTEX
10
7.46375
20
10.6823
30
10.32
0
VERTEX
10
7.46823
20
10.668
30
10.32
0
VERTEX
10
7.46913
20
10.6662
30
10.32
0
VERTEX
10
7.47092
20
10.6662
30
10.32
0
VERTEX
10
7.47182
20
10.6644
30
10.32
0
VERTEX
10
7.47899
20
10.6644
30
10.32
0
VERTEX
10
7.48257
20
10.6653
30
10.32
0
VERTEX
10
7.48437
20
10.6671
30
10.32
0
VERTEX
10
7.49871
20
10.6671
30
10.32
0
VERTEX
10
7.50588
20
10.668
30
10.32
0
VERTEX
10
7.50678
20
10.6716
30
10.32
0
VERTEX
10
7.50947
20
10.6752
30
10.32
0
VERTEX
10
7.50947
20
10.6895
30
10.32
0
VERTEX
10
7.50857
20
10.6931
30
10.32
0
VERTEX
10
7.50319
20
10.6994
30
10.32
0
VERTEX
10
7.49602
20
10.7012
30
10.32
0
VERTEX
10
7.48885
20
10.7057
30
10.32
0
VERTEX
10
7.48526
20
10.7066
30
10.32
0
VERTEX
10
7.48168
20
10.7048
30
10.32
0
VERTEX
10
7.4745
20
10.7039
30
10.32
0
VERTEX
10
7.47092
20
10.703
30
10.32
0
VERTEX
10
7.46644
20
10.6967
30
10.32
0
VERTEX
10
7.46644
20
10.6949
30
10.32
0
VERTEX
10
7.46375
20
10.6913
30
10.32
0
VERTEX
10
7.46375
20
10.6841
30
10.32
0
VERTEX
10
7.46375
20
10.6832
30
10.32
0
SEQEND
0
POLYLINE
62
227
66
1
70
1
3
endoplasmic_reticulum
0
VERTEX
10
7.11409
20
10.8114
30
10.32
0
VERTEX
10
7.11499
20
10.8079
30
10.32
0
VERTEX
10
7.12216
20
10.8034
30
10.32
0
VERTEX
10
7.12575
20
10.8007
30
10.32
0
VERTEX
10
7.13292
20
10.8007
30
10.32
0
VERTEX
10
7.14637
20
10.8061
30
10.32
0
VERTEX
10
7.14816
20
10.8079
30
10.32
0
VERTEX
10
7.15533
20
10.8088
30
10.32
0
VERTEX
10
7.16968
20
10.8132
30
10.32
0
VERTEX
10
7.17147
20
10.8132
30
10.32
0
VERTEX
10
7.17237
20
10.815
30
10.32
0
VERTEX
10
7.18671
20
10.8195
30
10.32
0
VERTEX
10
7.20106
20
10.8276
30
10.32
0
VERTEX
10
7.20823
20
10.8339
30
10.32
0
VERTEX
10
7.23692
20
10.8428
30
10.32
0
VERTEX
10
7.25126
20
10.8455
30
10.32
0
VERTEX
10
7.26561
20
10.8464
30
10.32
0
VERTEX
10
7.27278
20
10.8464
30
10.32
0
VERTEX
10
7.27637
20
10.8464
30
10.32
0
VERTEX
10
7.27816
20
10.8464
30
10.32
0
VERTEX
10
7.27906
20
10.85
30
10.32
0
VERTEX
10
7.27906
20
10.8518
30
10.32
0
VERTEX
10
7.28623
20
10.8518
30
10.32
0
VERTEX
10
7.28982
20
10.8509
30
10.32
0
VERTEX
10
7.29161
20
10.8509
30
10.32
0
VERTEX
10
7.30506
20
10.8419
30
10.32
0
VERTEX
10
7.30864
20
10.8419
30
10.32
0
VERTEX
10
7.31582
20
10.8374
30
10.32
0
VERTEX
10
7.31761
20
10.8374
30
10.32
0
VERTEX
10
7.3212
20
10.8348
30
10.32
0
VERTEX
10
7.33554
20
10.8348
30
10.32
0
VERTEX
10
7.34989
20
10.8392
30
10.32
0
VERTEX
10
7.35437
20
10.8446
30
10.32
0
VERTEX
10
7.35706
20
10.8473
30
10.32
0
VERTEX
10
7.35616
20
10.8545
30
10.32
0
VERTEX
10
7.35616
20
10.8563
30
10.32
0
VERTEX
10
7.35078
20
10.8634
30
10.32
0
VERTEX
10
7.3472
20
10.867
30
10.32
0
VERTEX
10
7.33554
20
10.876
30
10.32
0
VERTEX
10
7.32837
20
10.8796
30
10.32
0
VERTEX
10
7.31402
20
10.8841
30
10.32
0
VERTEX
10
7.30685
20
10.8859
30
10.32
0
VERTEX
10
7.30326
20
10.8877
30
10.32
0
VERTEX
10
7.24589
20
10.8886
30
10.32
0
VERTEX
10
7.23154
20
10.8886
30
10.32
0
VERTEX
10
7.2172
20
10.8868
30
10.32
0
VERTEX
10
7.20285
20
10.8814
30
10.32
0
VERTEX
10
7.19568
20
10.8787
30
10.32
0
VERTEX
10
7.19209
20
10.8751
30
10.32
0
VERTEX
10
7.18582
20
10.8706
30
10.32
0
VERTEX
10
7.17954
20
10.8643
30
10.32
0
VERTEX
10
7.16609
20
10.8545
30
10.32
0
VERTEX
10
7.15175
20
10.85
30
10.32
0
VERTEX
10
7.14458
20
10.8491
30
10.32
0
VERTEX
10
7.14099
20
10.8464
30
10.32
0
VERTEX
10
7.1374
20
10.8455
30
10.32
0
VERTEX
10
7.13023
20
10.8392
30
10.32
0
VERTEX
10
7.12127
20
10.8258
30
10.32
0
VERTEX
10
7.11678
20
10.8186
30
10.32
0
VERTEX
10
7.11678
20
10.8168
30
10.32
0
VERTEX
10
7.11499
20
10.8168
30
10.32
0
VERTEX
10
7.11409
20
10.8132
30
10.32
0
VERTEX
10
7.11409
20
10.8123
30
10.32
0
SEQEND
0
POLYLINE
62
227
66
1
70
1
3
endoplasmic_reticulum
0
VERTEX
10
7.22168
20
10.7819
30
10.32
0
VERTEX
10
7.22347
20
10.7675
30
10.32
0
VERTEX
10
7.22347
20
10.7639
30
10.32
0
VERTEX
10
7.22527
20
10.7603
30
10.32
0
VERTEX
10
7.22527
20
10.7568
30
10.32
0
VERTEX
10
7.22795
20
10.7532
30
10.32
0
VERTEX
10
7.22975
20
10.7514
30
10.32
0
VERTEX
10
7.23692
20
10.7541
30
10.32
0
VERTEX
10
7.24051
20
10.7568
30
10.32
0
VERTEX
10
7.24768
20
10.7577
30
10.32
0
VERTEX
10
7.25126
20
10.7586
30
10.32
0
VERTEX
10
7.25395
20
10.7612
30
10.32
0
VERTEX
10
7.2683
20
10.7657
30
10.32
0
VERTEX
10
7.27189
20
10.7657
30
10.32
0
VERTEX
10
7.27906
20
10.7693
30
10.32
0
VERTEX
10
7.28085
20
10.7693
30
10.32
0
VERTEX
10
7.28444
20
10.772
30
10.32
0
VERTEX
10
7.28802
20
10.7729
30
10.32
0
VERTEX
10
7.29161
20
10.7756
30
10.32
0
VERTEX
10
7.29878
20
10.7765
30
10.32
0
VERTEX
10
7.30057
20
10.7765
30
10.32
0
VERTEX
10
7.30147
20
10.7783
30
10.32
0
VERTEX
10
7.30326
20
10.7783
30
10.32
0
VERTEX
10
7.30595
20
10.7819
30
10.32
0
VERTEX
10
7.30954
20
10.7828
30
10.32
0
VERTEX
10
7.31402
20
10.7899
30
10.32
0
VERTEX
10
7.31582
20
10.7917
30
10.32
0
VERTEX
10
7.31582
20
10.7989
30
10.32
0
VERTEX
10
7.31402
20
10.8025
30
10.32
0
VERTEX
10
7.31223
20
10.8043
30
10.32
0
VERTEX
10
7.30954
20
10.8106
30
10.32
0
VERTEX
10
7.30775
20
10.8141
30
10.32
0
VERTEX
10
7.30416
20
10.8168
30
10.32
0
VERTEX
10
7.29699
20
10.8186
30
10.32
0
VERTEX
10
7.2934
20
10.8186
30
10.32
0
VERTEX
10
7.28982
20
10.8213
30
10.32
0
VERTEX
10
7.27547
20
10.8258
30
10.32
0
VERTEX
10
7.27189
20
10.8258
30
10.32
0
VERTEX
10
7.27009
20
10.8258
30
10.32
0
VERTEX
10
7.2683
20
10.824
30
10.32
0
VERTEX
10
7.25395
20
10.8231
30
10.32
0
VERTEX
10
7.25306
20
10.8159
30
10.32
0
VERTEX
10
7.25216
20
10.8132
30
10.32
0
VERTEX
10
7.24499
20
10.8106
30
10.32
0
VERTEX
10
7.23064
20
10.8007
30
10.32
0
VERTEX
10
7.22706
20
10.7953
30
10.32
0
VERTEX
10
7.22258
20
10.7881
30
10.32
0
VERTEX
10
7.22168
20
10.7846
30
10.32
0
VERTEX
10
7.22168
20
10.7828
30
10.32
0
SEQEND
0
POLYLINE
62
227
66
1
70
1
3
endoplasmic_reticulum
0
VERTEX
10
7.41892
20
10.7209
30
10.32
0
VERTEX
10
7.4234
20
10.7137
30
10.32
0
VERTEX
10
7.42968
20
10.7101
30
10.32
0
VERTEX
10
7.43326
20
10.7092
30
10.32
0
VERTEX
10
7.43864
20
10.7048
30
10.32
0
VERTEX
10
7.45299
20
10.7012
30
10.32
0
VERTEX
10
7.46016
20
10.7012
30
10.32
0
VERTEX
10
7.46733
20
10.7057
30
10.32
0
VERTEX
10
7.47182
20
10.7119
30
10.32
0
VERTEX
10
7.4754
20
10.7146
30
10.32
0
VERTEX
10
7.47719
20
10.7182
30
10.32
0
VERTEX
10
7.48347
20
10.7254
30
10.32
0
VERTEX
10
7.48616
20
10.7272
30
10.32
0
VERTEX
10
7.49064
20
10.7335
30
10.32
0
VERTEX
10
7.50409
20
10.7442
30
10.32
0
VERTEX
10
7.50588
20
10.7442
30
10.32
0
VERTEX
10
7.51037
20
10.7505
30
10.32
0
VERTEX
10
7.51395
20
10.7541
30
10.32
0
VERTEX
10
7.51575
20
10.7559
30
10.32
0
VERTEX
10
7.51933
20
10.7568
30
10.32
0
VERTEX
10
7.52561
20
10.763
30
10.32
0
VERTEX
10
7.5274
20
10.763
30
10.32
0
VERTEX
10
7.53457
20
10.7675
30
10.32
0
VERTEX
10
7.53637
20
10.7693
30
10.32
0
VERTEX
10
7.54354
20
10.772
30
10.32
0
VERTEX
10
7.54981
20
10.7783
30
10.32
0
VERTEX
10
7.55161
20
10.7854
30
10.32
0
VERTEX
10
7.55071
20
10.7998
30
10.32
0
VERTEX
10
7.5534
20
10.8285
30
10.32
0
VERTEX
10
7.5534
20
10.8572
30
10.32
0
VERTEX
10
7.55161
20
10.8715
30
10.32
0
VERTEX
10
7.54892
20
10.8787
30
10.32
0
VERTEX
10
7.54802
20
10.8823
30
10.32
0
VERTEX
10
7.54802
20
10.8841
30
10.32
0
VERTEX
10
7.53637
20
10.8966
30
10.32
0
VERTEX
10
7.53368
20
10.9002
30
10.32
0
VERTEX
10
7.5265
20
10.9038
30
10.32
0
VERTEX
10
7.51216
20
10.9029
30
10.32
0
VERTEX
10
7.50857
20
10.9029
30
10.32
0
VERTEX
10
7.49602
20
10.8921
30
10.32
0
VERTEX
10
7.48975
20
10.885
30
10.32
0
VERTEX
10
7.47988
20
10.8742
30
10.32
0
VERTEX
10
7.47809
20
10.8724
30
10.32
0
VERTEX
10
7.47809
20
10.8706
30
10.32
0
VERTEX
10
7.4763
20
10.8688
30
10.32
0
VERTEX
10
7.4763
20
10.8617
30
10.32
0
VERTEX
10
7.4763
20
10.8581
30
10.32
0
VERTEX
10
7.4745
20
10.8545
30
10.32
0
VERTEX
10
7.47361
20
10.8258
30
10.32
0
VERTEX
10
7.47271
20
10.8222
30
10.32
0
VERTEX
10
7.46823
20
10.815
30
10.32
0
VERTEX
10
7.46554
20
10.8114
30
10.32
0
VERTEX
10
7.46195
20
10.8097
30
10.32
0
VERTEX
10
7.45837
20
10.8025
30
10.32
0
VERTEX
10
7.45837
20
10.8007
30
10.32
0
VERTEX
10
7.45388
20
10.7935
30
10.32
0
VERTEX
10
7.45209
20
10.7917
30
10.32
0
VERTEX
10
7.45209
20
10.7899
30
10.32
0
VERTEX
10
7.44761
20
10.7837
30
10.32
0
VERTEX
10
7.44671
20
10.7801
30
10.32
0
VERTEX
10
7.44044
20
10.7738
30
10.32
0
VERTEX
10
7.43685
20
10.7675
30
10.32
0
VERTEX
10
7.43506
20
10.7639
30
10.32
0
VERTEX
10
7.43147
20
10.7612
30
10.32
0
VERTEX
10
7.43057
20
10.7577
30
10.32
0
VERTEX
10
7.42788
20
10.7541
30
10.32
0
VERTEX
10
7.42788
20
10.7523
30
10.32
0
VERTEX
10
7.42161
20
10.7451
30
10.32
0
VERTEX
10
7.41892
20
10.7379
30
10.32
0
VERTEX
10
7.41892
20
10.7236
30
10.32
0
VERTEX
10
7.41892
20
10.7218
30
10.32
0
SEQEND
0
POLYLINE
62
31
66
1
70
1
3
contour
0
VERTEX
10
6.19525
20
10.3897
30
10.32
0
VERTEX
10
6.19686
20
10.364
30
10.32
0
VERTEX
10
6.20007
20
10.3511
30
10.32
0
VERTEX
10
6.20007
20
10.3447
30
10.32
0
VERTEX
10
6.2065
20
10.3335
30
10.32
0
VERTEX
10
6.21132
20
10.327
30
10.32
0
VERTEX
10
6.21775
20
10.3238
30
10.32
0
VERTEX
10
6.22096
20
10.319
30
10.32
0
VERTEX
10
6.22739
20
10.3126
30
10.32
0
VERTEX
10
6.23543
20
10.2997
30
10.32
0
VERTEX
10
6.24186
20
10.2949
30
10.32
0
VERTEX
10
6.26757
20
10.2836
30
10.32
0
VERTEX
10
6.28043
20
10.2772
30
10.32
0
VERTEX
10
6.28364
20
10.2772
30
10.32
0
VERTEX
10
6.28525
20
10.2708
30
10.32
0
VERTEX
10
6.28846
20
10.2708
30
10.32
0
VERTEX
10
6.29971
20
10.2627
30
10.32
0
VERTEX
10
6.35114
20
10.2611
30
10.32
0
VERTEX
10
6.37685
20
10.2627
30
10.32
0
VERTEX
10
6.3881
20
10.2692
30
10.32
0
VERTEX
10
6.39131
20
10.2724
30
10.32
0
VERTEX
10
6.39453
20
10.2724
30
10.32
0
VERTEX
10
6.44113
20
10.3093
30
10.32
0
VERTEX
10
6.45238
20
10.319
30
10.32
0
VERTEX
10
6.47006
20
10.3447
30
10.32
0
VERTEX
10
6.47327
20
10.3511
30
10.32
0
VERTEX
10
6.47327
20
10.3543
30
10.32
0
VERTEX
10
6.47649
20
10.356
30
10.32
0
VERTEX
10
6.48131
20
10.3688
30
10.32
0
VERTEX
10
6.48292
20
10.3752
30
10.32
0
VERTEX
10
6.49095
20
10.3865
30
10.32
0
VERTEX
10
6.49577
20
10.3929
30
10.32
0
VERTEX
10
6.49899
20
10.4058
30
10.32
0
VERTEX
10
6.5022
20
10.4122
30
10.32
0
VERTEX
10
6.50542
20
10.4379
30
10.32
0
VERTEX
10
6.50863
20
10.4411
30
10.32
0
VERTEX
10
6.51827
20
10.4926
30
10.32
0
VERTEX
10
6.52309
20
10.5183
30
10.32
0
VERTEX
10
6.52952
20
10.5311
30
10.32
0
VERTEX
10
6.53274
20
10.5343
30
10.32
0
VERTEX
10
6.53274
20
10.5376
30
10.32
0
VERTEX
10
6.54238
20
10.5488
30
10.32
0
VERTEX
10
6.54559
20
10.5552
30
10.32
0
VERTEX
10
6.54559
20
10.5584
30
10.32
0
VERTEX
10
6.55524
20
10.5681
30
10.32
0
VERTEX
10
6.56006
20
10.5713
30
10.32
0
VERTEX
10
6.57934
20
10.5938
30
10.32
0
VERTEX
10
6.59059
20
10.6018
30
10.32
0
VERTEX
10
6.60023
20
10.6147
30
10.32
0
VERTEX
10
6.60505
20
10.6275
30
10.32
0
VERTEX
10
6.61791
20
10.6356
30
10.32
0
VERTEX
10
6.62273
20
10.642
30
10.32
0
VERTEX
10
6.62434
20
10.6452
30
10.32
0
VERTEX
10
6.63077
20
10.6452
30
10.32
0
VERTEX
10
6.6372
20
10.6484
30
10.32
0
VERTEX
10
6.6372
20
10.6517
30
10.32
0
VERTEX
10
6.64845
20
10.6629
30
10.32
0
VERTEX
10
6.65648
20
10.6742
30
10.32
0
VERTEX
10
6.66773
20
10.6838
30
10.32
0
VERTEX
10
6.67577
20
10.6967
30
10.32
0
VERTEX
10
6.68219
20
10.7015
30
10.32
0
VERTEX
10
6.68541
20
10.7063
30
10.32
0
VERTEX
10
6.69826
20
10.7079
30
10.32
0
VERTEX
10
6.69184
20
10.7111
30
10.32
0
VERTEX
10
6.69023
20
10.7192
30
10.32
0
VERTEX
10
6.68702
20
10.7224
30
10.32
0
VERTEX
10
6.6613
20
10.7175
30
10.32
0
VERTEX
10
6.64845
20
10.7143
30
10.32
0
VERTEX
10
6.64202
20
10.7095
30
10.32
0
VERTEX
10
6.63559
20
10.7079
30
10.32
0
VERTEX
10
6.63237
20
10.7047
30
10.32
0
VERTEX
10
6.62916
20
10.7047
30
10.32
0
VERTEX
10
6.62595
20
10.7015
30
10.32
0
VERTEX
10
6.61309
20
10.6967
30
10.32
0
VERTEX
10
6.60666
20
10.695
30
10.32
0
VERTEX
10
6.60345
20
10.6918
30
10.32
0
VERTEX
10
6.60023
20
10.6918
30
10.32
0
VERTEX
10
6.59702
20
10.6886
30
10.32
0
VERTEX
10
6.58416
20
10.6838
30
10.32
0
VERTEX
10
6.57773
20
10.6806
30
10.32
0
VERTEX
10
6.57452
20
10.6806
30
10.32
0
VERTEX
10
6.56809
20
10.6758
30
10.32
0
VERTEX
10
6.54238
20
10.6677
30
10.32
0
VERTEX
10
6.53595
20
10.6645
30
10.32
0
VERTEX
10
6.52952
20
10.6645
30
10.32
0
VERTEX
10
6.50381
20
10.6549
30
10.32
0
VERTEX
10
6.49738
20
10.6533
30
10.32
0
VERTEX
10
6.48613
20
10.6436
30
10.32
0
VERTEX
10
6.48452
20
10.6404
30
10.32
0
VERTEX
10
6.4781
20
10.6388
30
10.32
0
VERTEX
10
6.47488
20
10.6356
30
10.32
0
VERTEX
10
6.46203
20
10.634
30
10.32
0
VERTEX
10
6.4572
20
10.6292
30
10.32
0
VERTEX
10
6.45078
20
10.6292
30
10.32
0
VERTEX
10
6.44435
20
10.6259
30
10.32
0
VERTEX
10
6.43149
20
10.6259
30
10.32
0
VERTEX
10
6.41863
20
10.6308
30
10.32
0
VERTEX
10
6.41221
20
10.6308
30
10.32
0
VERTEX
10
6.40096
20
10.6388
30
10.32
0
VERTEX
10
6.39453
20
10.6452
30
10.32
0
VERTEX
10
6.38167
20
10.6517
30
10.32
0
VERTEX
10
6.35596
20
10.6533
30
10.32
0
VERTEX
10
6.3431
20
10.6517
30
10.32
0
VERTEX
10
6.33025
20
10.6468
30
10.32
0
VERTEX
10
6.30614
20
10.6292
30
10.32
0
VERTEX
10
6.28203
20
10.6083
30
10.32
0
VERTEX
10
6.27882
20
10.6018
30
10.32
0
VERTEX
10
6.25311
20
10.5793
30
10.32
0
VERTEX
10
6.24829
20
10.5745
30
10.32
0
VERTEX
10
6.24507
20
10.5745
30
10.32
0
VERTEX
10
6.24186
20
10.5713
30
10.32
0
VERTEX
10
6.23864
20
10.5584
30
10.32
0
VERTEX
10
6.23864
20
10.5552
30
10.32
0
VERTEX
10
6.23382
20
10.5488
30
10.32
0
VERTEX
10
6.22257
20
10.5231
30
10.32
0
VERTEX
10
6.21775
20
10.4974
30
10.32
0
VERTEX
10
6.21614
20
10.4909
30
10.32
0
VERTEX
10
6.21132
20
10.4861
30
10.32
0
VERTEX
10
6.20972
20
10.4813
30
10.32
0
VERTEX
10
6.2065
20
10.4797
30
10.32
0
VERTEX
10
6.2065
20
10.4733
30
10.32
0
VERTEX
10
6.19525
20
10.4476
30
10.32
0
VERTEX
10
6.19525
20
10.3961
30
10.32
0
VERTEX
10
6.19525
20
10.3913
30
10.32
0
SEQEND
0
POLYLINE
62
236
66
1
70
1
3
postsynaptic_density
0
VERTEX
10
6.1285
20
10.387
30
10.32
0
VERTEX
10
6.13107
20
10.3819
30
10.32
0
VERTEX
10
6.13236
20
10.3716
30
10.32
0
VERTEX
10
6.13364
20
10.3665
30
10.32
0
VERTEX
10
6.13749
20
10.3639
30
10.32
0
VERTEX
10
6.13877
20
10.3588
30
10.32
0
VERTEX
10
6.14262
20
10.3536
30
10.32
0
VERTEX
10
6.14391
20
10.3485
30
10.32
0
VERTEX
10
6.14776
20
10.3434
30
10.32
0
VERTEX
10
6.14904
20
10.3382
30
10.32
0
VERTEX
10
6.15802
20
10.3305
30
10.32
0
VERTEX
10
6.16444
20
10.3203
30
10.32
0
VERTEX
10
6.16958
20
10.3164
30
10.32
0
VERTEX
10
6.17471
20
10.3151
30
10.32
0
VERTEX
10
6.17984
20
10.3113
30
10.32
0
VERTEX
10
6.20038
20
10.3113
30
10.32
0
VERTEX
10
6.22091
20
10.3151
30
10.32
0
VERTEX
10
6.24145
20
10.3216
30
10.32
0
VERTEX
10
6.24658
20
10.3241
30
10.32
0
VERTEX
10
6.25172
20
10.3241
30
10.32
0
VERTEX
10
6.25428
20
10.3254
30
10.32
0
VERTEX
10
6.25557
20
10.3305
30
10.32
0
VERTEX
10
6.25813
20
10.3331
30
10.32
0
VERTEX
10
6.25813
20
10.3357
30
10.32
0
VERTEX
10
6.26712
20
10.3434
30
10.32
0
VERTEX
10
6.27225
20
10.3524
30
10.32
0
VERTEX
10
6.28124
20
10.3613
30
10.32
0
VERTEX
10
6.29279
20
10.3806
30
10.32
0
VERTEX
10
6.29535
20
10.3832
30
10.32
0
VERTEX
10
6.30305
20
10.4037
30
10.32
0
VERTEX
10
6.30434
20
10.414
30
10.32
0
VERTEX
10
6.30177
20
10.4191
30
10.32
0
VERTEX
10
6.2992
20
10.4396
30
10.32
0
VERTEX
10
6.2992
20
10.4602
30
10.32
0
VERTEX
10
6.29664
20
10.4807
30
10.32
0
VERTEX
10
6.29279
20
10.491
30
10.32
0
VERTEX
10
6.2915
20
10.5012
30
10.32
0
VERTEX
10
6.29022
20
10.5064
30
10.32
0
VERTEX
10
6.28124
20
10.5154
30
10.32
0
VERTEX
10
6.27097
20
10.5218
30
10.32
0
VERTEX
10
6.26327
20
10.5282
30
10.32
0
VERTEX
10
6.253
20
10.5372
30
10.32
0
VERTEX
10
6.25043
20
10.5372
30
10.32
0
VERTEX
10
6.2453
20
10.541
30
10.32
0
VERTEX
10
6.24017
20
10.5423
30
10.32
0
VERTEX
10
6.2376
20
10.5449
30
10.32
0
VERTEX
10
6.19653
20
10.5462
30
10.32
0
VERTEX
10
6.18626
20
10.5462
30
10.32
0
VERTEX
10
6.17599
20
10.541
30
10.32
0
VERTEX
10
6.15161
20
10.5
30
10.32
0
VERTEX
10
6.14006
20
10.4794
30
10.32
0
VERTEX
10
6.13364
20
10.4692
30
10.32
0
VERTEX
10
6.13107
20
10.464
30
10.32
0
VERTEX
10
6.13107
20
10.4538
30
10.32
0
VERTEX
10
6.13236
20
10.4486
30
10.32
0
VERTEX
10
6.1285
20
10.4075
30
10.32
0
VERTEX
10
6.1285
20
10.3883
30
10.32
0
SEQEND
0
POLYLINE
62
31
66
1
70
1
3
contour
0
VERTEX
10
6.55327
20
10.4531
30
10.32
0
VERTEX
10
6.55774
20
10.4293
30
10.32
0
VERTEX
10
6.56071
20
10.4174
30
10.32
0
VERTEX
10
6.56071
20
10.3936
30
10.32
0
VERTEX
10
6.56369
20
10.3817
30
10.32
0
VERTEX
10
6.56963
20
10.3698
30
10.32
0
VERTEX
10
6.57112
20
10.3579
30
10.32
0
VERTEX
10
6.58153
20
10.3475
30
10.32
0
VERTEX
10
6.58748
20
10.3416
30
10.32
0
VERTEX
10
6.59343
20
10.3386
30
10.32
0
VERTEX
10
6.59641
20
10.3356
30
10.32
0
VERTEX
10
6.60831
20
10.3326
30
10.32
0
VERTEX
10
6.61128
20
10.3326
30
10.32
0
VERTEX
10
6.61426
20
10.3297
30
10.32
0
VERTEX
10
6.66185
20
10.3311
30
10.32
0
VERTEX
10
6.67375
20
10.3311
30
10.32
0
VERTEX
10
6.67672
20
10.3341
30
10.32
0
VERTEX
10
6.68862
20
10.3356
30
10.32
0
VERTEX
10
6.69308
20
10.3401
30
10.32
0
VERTEX
10
6.70498
20
10.343
30
10.32
0
VERTEX
10
6.70796
20
10.343
30
10.32
0
VERTEX
10
6.71391
20
10.3475
30
10.32
0
VERTEX
10
6.73622
20
10.3549
30
10.32
0
VERTEX
10
6.74217
20
10.3594
30
10.32
0
VERTEX
10
6.78976
20
10.3728
30
10.32
0
VERTEX
10
6.80166
20
10.3802
30
10.32
0
VERTEX
10
6.80761
20
10.3847
30
10.32
0
VERTEX
10
6.81356
20
10.3862
30
10.32
0
VERTEX
10
6.81653
20
10.3892
30
10.32
0
VERTEX
10
6.81951
20
10.3892
30
10.32
0
VERTEX
10
6.82248
20
10.3921
30
10.32
0
VERTEX
10
6.82248
20
10.3951
30
10.32
0
VERTEX
10
6.82546
20
10.3981
30
10.32
0
VERTEX
10
6.82843
20
10.3981
30
10.32
0
VERTEX
10
6.83587
20
10.41
30
10.32
0
VERTEX
10
6.83736
20
10.4159
30
10.32
0
VERTEX
10
6.84033
20
10.4174
30
10.32
0
VERTEX
10
6.83885
20
10.4293
30
10.32
0
VERTEX
10
6.83885
20
10.4353
30
10.32
0
VERTEX
10
6.83736
20
10.4368
30
10.32
0
VERTEX
10
6.84182
20
10.4486
30
10.32
0
VERTEX
10
6.84331
20
10.4605
30
10.32
0
VERTEX
10
6.84777
20
10.4724
30
10.32
0
VERTEX
10
6.84926
20
10.52
30
10.32
0
VERTEX
10
6.84926
20
10.5319
30
10.32
0
VERTEX
10
6.84628
20
10.5438
30
10.32
0
VERTEX
10
6.84479
20
10.5676
30
10.32
0
VERTEX
10
6.84479
20
10.5736
30
10.32
0
VERTEX
10
6.84182
20
10.5766
30
10.32
0
VERTEX
10
6.84182
20
10.5795
30
10.32
0
VERTEX
10
6.83885
20
10.5825
30
10.32
0
VERTEX
10
6.83438
20
10.5929
30
10.32
0
VERTEX
10
6.82695
20
10.6033
30
10.32
0
VERTEX
10
6.821
20
10.6078
30
10.32
0
VERTEX
10
6.81356
20
10.6197
30
10.32
0
VERTEX
10
6.76596
20
10.6242
30
10.32
0
VERTEX
10
6.75407
20
10.6286
30
10.32
0
VERTEX
10
6.74812
20
10.6316
30
10.32
0
VERTEX
10
6.72432
20
10.6316
30
10.32
0
VERTEX
10
6.67672
20
10.6271
30
10.32
0
VERTEX
10
6.66483
20
10.6242
30
10.32
0
VERTEX
10
6.66185
20
10.6242
30
10.32
0
VERTEX
10
6.66036
20
10.6212
30
10.32
0
VERTEX
10
6.65441
20
10.6212
30
10.32
0
VERTEX
10
6.6321
20
10.6048
30
10.32
0
VERTEX
10
6.62169
20
10.5944
30
10.32
0
VERTEX
10
6.61872
20
10.5899
30
10.32
0
VERTEX
10
6.61277
20
10.5855
30
10.32
0
VERTEX
10
6.60533
20
10.5751
30
10.32
0
VERTEX
10
6.60236
20
10.5736
30
10.32
0
VERTEX
10
6.60087
20
10.5676
30
10.32
0
VERTEX
10
6.58451
20
10.5453
30
10.32
0
VERTEX
10
6.57707
20
10.5349
30
10.32
0
VERTEX
10
6.56666
20
10.5245
30
10.32
0
VERTEX
10
6.55625
20
10.5022
30
10.32
0
VERTEX
10
6.55327
20
10.4784
30
10.32
0
VERTEX
10
6.55327
20
10.4546
30
10.32
0
SEQEND
0
ENDSEC
0
EOF
