0
SECTION
2
ENTITIES
0
POLYLINE
62
31
66
1
70
1
3
contour
0
VERTEX
10
8.23137
20
9.76245
30
7.08
0
VERTEX
10
8.23629
20
9.72306
30
7.08
0
VERTEX
10
8.23629
20
9.70337
30
7.08
0
VERTEX
10
8.23629
20
9.69352
30
7.08
0
VERTEX
10
8.25106
20
9.67383
30
7.08
0
VERTEX
10
8.25106
20
9.65414
30
7.08
0
VERTEX
10
8.26091
20
9.64922
30
7.08
0
VERTEX
10
8.26091
20
9.63937
30
7.08
0
VERTEX
10
8.2806
20
9.61968
30
7.08
0
VERTEX
10
8.28553
20
9.59998
30
7.08
0
VERTEX
10
8.30029
20
9.58522
30
7.08
0
VERTEX
10
8.30029
20
9.57537
30
7.08
0
VERTEX
10
8.32491
20
9.53598
30
7.08
0
VERTEX
10
8.35445
20
9.50645
30
7.08
0
VERTEX
10
8.37414
20
9.50152
30
7.08
0
VERTEX
10
8.44306
20
9.44737
30
7.08
0
VERTEX
10
8.45291
20
9.43752
30
7.08
0
VERTEX
10
8.49229
20
9.42768
30
7.08
0
VERTEX
10
8.57106
20
9.42768
30
7.08
0
VERTEX
10
8.61045
20
9.4326
30
7.08
0
VERTEX
10
8.64983
20
9.44737
30
7.08
0
VERTEX
10
8.66952
20
9.46214
30
7.08
0
VERTEX
10
8.74829
20
9.49168
30
7.08
0
VERTEX
10
8.76799
20
9.4966
30
7.08
0
VERTEX
10
8.77783
20
9.4966
30
7.08
0
VERTEX
10
8.78768
20
9.51629
30
7.08
0
VERTEX
10
8.79752
20
9.51629
30
7.08
0
VERTEX
10
8.80737
20
9.52614
30
7.08
0
VERTEX
10
8.84676
20
9.54091
30
7.08
0
VERTEX
10
8.87137
20
9.56552
30
7.08
0
VERTEX
10
8.87137
20
9.58522
30
7.08
0
VERTEX
10
8.88122
20
9.59506
30
7.08
0
VERTEX
10
8.91075
20
9.67383
30
7.08
0
VERTEX
10
8.91075
20
9.71322
30
7.08
0
VERTEX
10
8.92552
20
9.7526
30
7.08
0
VERTEX
10
8.93045
20
9.79198
30
7.08
0
VERTEX
10
8.91075
20
9.94952
30
7.08
0
VERTEX
10
8.92552
20
9.95937
30
7.08
0
VERTEX
10
8.94522
20
9.97906
30
7.08
0
VERTEX
10
9.02399
20
9.99383
30
7.08
0
VERTEX
10
9.10275
20
9.99383
30
7.08
0
VERTEX
10
9.11752
20
10.0037
30
7.08
0
VERTEX
10
9.12245
20
10.0431
30
7.08
0
VERTEX
10
9.13722
20
10.0824
30
7.08
0
VERTEX
10
9.13722
20
10.1021
30
7.08
0
VERTEX
10
9.15199
20
10.1415
30
7.08
0
VERTEX
10
9.15691
20
10.1612
30
7.08
0
VERTEX
10
9.17168
20
10.176
30
7.08
0
VERTEX
10
9.17168
20
10.1957
30
7.08
0
VERTEX
10
9.17168
20
10.2055
30
7.08
0
VERTEX
10
9.16183
20
10.2154
30
7.08
0
VERTEX
10
9.08306
20
10.2154
30
7.08
0
VERTEX
10
9.04368
20
10.2154
30
7.08
0
VERTEX
10
9.02399
20
10.2154
30
7.08
0
VERTEX
10
9.00429
20
10.2055
30
7.08
0
VERTEX
10
8.84676
20
10.1957
30
7.08
0
VERTEX
10
8.76799
20
10.1858
30
7.08
0
VERTEX
10
8.7286
20
10.2055
30
7.08
0
VERTEX
10
8.68922
20
10.1908
30
7.08
0
VERTEX
10
8.64983
20
10.1661
30
7.08
0
VERTEX
10
8.63014
20
10.1661
30
7.08
0
VERTEX
10
8.6006
20
10.1415
30
7.08
0
VERTEX
10
8.44306
20
10.0726
30
7.08
0
VERTEX
10
8.36429
20
10.0677
30
7.08
0
VERTEX
10
8.32491
20
10.0628
30
7.08
0
VERTEX
10
8.31014
20
10.0578
30
7.08
0
VERTEX
10
8.29537
20
10.0381
30
7.08
0
VERTEX
10
8.28553
20
10.0332
30
7.08
0
VERTEX
10
8.29045
20
10.0184
30
7.08
0
VERTEX
10
8.2806
20
10.0135
30
7.08
0
VERTEX
10
8.27568
20
9.99383
30
7.08
0
VERTEX
10
8.26583
20
9.98398
30
7.08
0
VERTEX
10
8.26091
20
9.96429
30
7.08
0
VERTEX
10
8.24614
20
9.94952
30
7.08
0
VERTEX
10
8.23137
20
9.87075
30
7.08
0
VERTEX
10
8.23137
20
9.79198
30
7.08
0
VERTEX
10
8.23137
20
9.77229
30
7.08
0
VERTEX
10
8.23137
20
9.76737
30
7.08
0
SEQEND
0
POLYLINE
62
224
66
1
70
1
3
mitochondrion
0
VERTEX
10
8.32311
20
9.7205
30
7.08
0
VERTEX
10
8.32728
20
9.69825
30
7.08
0
VERTEX
10
8.33007
20
9.68713
30
7.08
0
VERTEX
10
8.33007
20
9.68434
30
7.08
0
VERTEX
10
8.33285
20
9.68156
30
7.08
0
VERTEX
10
8.33702
20
9.65932
30
7.08
0
VERTEX
10
8.3398
20
9.65654
30
7.08
0
VERTEX
10
8.34258
20
9.64541
30
7.08
0
VERTEX
10
8.35231
20
9.63429
30
7.08
0
VERTEX
10
8.35231
20
9.62873
30
7.08
0
VERTEX
10
8.35231
20
9.62595
30
7.08
0
VERTEX
10
8.36066
20
9.61482
30
7.08
0
VERTEX
10
8.3829
20
9.59258
30
7.08
0
VERTEX
10
8.39263
20
9.58145
30
7.08
0
VERTEX
10
8.3982
20
9.57728
30
7.08
0
VERTEX
10
8.40098
20
9.5745
30
7.08
0
VERTEX
10
8.4121
20
9.57033
30
7.08
0
VERTEX
10
8.42044
20
9.56338
30
7.08
0
VERTEX
10
8.42322
20
9.55921
30
7.08
0
VERTEX
10
8.42879
20
9.55782
30
7.08
0
VERTEX
10
8.43435
20
9.55364
30
7.08
0
VERTEX
10
8.43991
20
9.55225
30
7.08
0
VERTEX
10
8.44547
20
9.54808
30
7.08
0
VERTEX
10
8.45103
20
9.54669
30
7.08
0
VERTEX
10
8.45381
20
9.54669
30
7.08
0
VERTEX
10
8.46494
20
9.53974
30
7.08
0
VERTEX
10
8.48718
20
9.53418
30
7.08
0
VERTEX
10
8.49275
20
9.5314
30
7.08
0
VERTEX
10
8.53724
20
9.5314
30
7.08
0
VERTEX
10
8.55949
20
9.53279
30
7.08
0
VERTEX
10
8.56505
20
9.53557
30
7.08
0
VERTEX
10
8.5873
20
9.53696
30
7.08
0
VERTEX
10
8.60954
20
9.54113
30
7.08
0
VERTEX
10
8.65404
20
9.54391
30
7.08
0
VERTEX
10
8.67628
20
9.5453
30
7.08
0
VERTEX
10
8.68184
20
9.54669
30
7.08
0
VERTEX
10
8.68463
20
9.54669
30
7.08
0
VERTEX
10
8.69575
20
9.55642
30
7.08
0
VERTEX
10
8.70131
20
9.56199
30
7.08
0
VERTEX
10
8.71243
20
9.56755
30
7.08
0
VERTEX
10
8.71521
20
9.56894
30
7.08
0
VERTEX
10
8.71521
20
9.57172
30
7.08
0
VERTEX
10
8.72634
20
9.58006
30
7.08
0
VERTEX
10
8.72634
20
9.58284
30
7.08
0
VERTEX
10
8.7319
20
9.58701
30
7.08
0
VERTEX
10
8.73468
20
9.5898
30
7.08
0
VERTEX
10
8.73468
20
9.59258
30
7.08
0
VERTEX
10
8.74441
20
9.6037
30
7.08
0
VERTEX
10
8.75971
20
9.62456
30
7.08
0
VERTEX
10
8.7611
20
9.63012
30
7.08
0
VERTEX
10
8.76805
20
9.63985
30
7.08
0
VERTEX
10
8.77361
20
9.64402
30
7.08
0
VERTEX
10
8.77917
20
9.64541
30
7.08
0
VERTEX
10
8.79169
20
9.66627
30
7.08
0
VERTEX
10
8.79169
20
9.66905
30
7.08
0
VERTEX
10
8.79586
20
9.67461
30
7.08
0
VERTEX
10
8.79864
20
9.68573
30
7.08
0
VERTEX
10
8.80142
20
9.68852
30
7.08
0
VERTEX
10
8.81115
20
9.73301
30
7.08
0
VERTEX
10
8.80976
20
9.75526
30
7.08
0
VERTEX
10
8.80976
20
9.76638
30
7.08
0
VERTEX
10
8.8042
20
9.78863
30
7.08
0
VERTEX
10
8.80142
20
9.79975
30
7.08
0
VERTEX
10
8.80003
20
9.80531
30
7.08
0
VERTEX
10
8.79586
20
9.81087
30
7.08
0
VERTEX
10
8.79169
20
9.822
30
7.08
0
VERTEX
10
8.78474
20
9.83034
30
7.08
0
VERTEX
10
8.78196
20
9.8359
30
7.08
0
VERTEX
10
8.77917
20
9.83868
30
7.08
0
VERTEX
10
8.77917
20
9.84146
30
7.08
0
VERTEX
10
8.77222
20
9.8512
30
7.08
0
VERTEX
10
8.76249
20
9.85815
30
7.08
0
VERTEX
10
8.74024
20
9.86649
30
7.08
0
VERTEX
10
8.718
20
9.86788
30
7.08
0
VERTEX
10
8.69575
20
9.8651
30
7.08
0
VERTEX
10
8.68463
20
9.8651
30
7.08
0
VERTEX
10
8.6735
20
9.86788
30
7.08
0
VERTEX
10
8.66794
20
9.86927
30
7.08
0
VERTEX
10
8.65821
20
9.87761
30
7.08
0
VERTEX
10
8.65125
20
9.88179
30
7.08
0
VERTEX
10
8.64013
20
9.88596
30
7.08
0
VERTEX
10
8.63457
20
9.88874
30
7.08
0
VERTEX
10
8.59008
20
9.89152
30
7.08
0
VERTEX
10
8.54558
20
9.88735
30
7.08
0
VERTEX
10
8.54002
20
9.88457
30
7.08
0
VERTEX
10
8.53446
20
9.88457
30
7.08
0
VERTEX
10
8.52334
20
9.88039
30
7.08
0
VERTEX
10
8.51777
20
9.87622
30
7.08
0
VERTEX
10
8.49553
20
9.87483
30
7.08
0
VERTEX
10
8.49275
20
9.87483
30
7.08
0
VERTEX
10
8.49136
20
9.87761
30
7.08
0
VERTEX
10
8.48023
20
9.87483
30
7.08
0
VERTEX
10
8.47467
20
9.87205
30
7.08
0
VERTEX
10
8.46355
20
9.87205
30
7.08
0
VERTEX
10
8.45659
20
9.87483
30
7.08
0
VERTEX
10
8.45103
20
9.87205
30
7.08
0
VERTEX
10
8.43991
20
9.87066
30
7.08
0
VERTEX
10
8.43435
20
9.86649
30
7.08
0
VERTEX
10
8.42322
20
9.86371
30
7.08
0
VERTEX
10
8.41766
20
9.86232
30
7.08
0
VERTEX
10
8.41488
20
9.86093
30
7.08
0
VERTEX
10
8.41488
20
9.85815
30
7.08
0
VERTEX
10
8.39263
20
9.84563
30
7.08
0
VERTEX
10
8.3829
20
9.83868
30
7.08
0
VERTEX
10
8.36761
20
9.81922
30
7.08
0
VERTEX
10
8.36066
20
9.80809
30
7.08
0
VERTEX
10
8.35926
20
9.80253
30
7.08
0
VERTEX
10
8.35092
20
9.7928
30
7.08
0
VERTEX
10
8.3398
20
9.78306
30
7.08
0
VERTEX
10
8.33146
20
9.76082
30
7.08
0
VERTEX
10
8.33146
20
9.75804
30
7.08
0
VERTEX
10
8.32868
20
9.75665
30
7.08
0
VERTEX
10
8.32589
20
9.74552
30
7.08
0
VERTEX
10
8.32311
20
9.74274
30
7.08
0
VERTEX
10
8.32311
20
9.72189
30
7.08
0
SEQEND
0
POLYLINE
62
227
66
1
70
1
3
endoplasmic_reticulum
0
VERTEX
10
8.26436
20
9.89428
30
7.08
0
VERTEX
10
8.26974
20
9.87994
30
7.08
0
VERTEX
10
8.27422
20
9.87277
30
7.08
0
VERTEX
10
8.2814
20
9.86828
30
7.08
0
VERTEX
10
8.28498
20
9.86739
30
7.08
0
VERTEX
10
8.29215
20
9.86201
30
7.08
0
VERTEX
10
8.29933
20
9.85932
30
7.08
0
VERTEX
10
8.3065
20
9.85932
30
7.08
0
VERTEX
10
8.32084
20
9.8638
30
7.08
0
VERTEX
10
8.32802
20
9.86649
30
7.08
0
VERTEX
10
8.32891
20
9.86828
30
7.08
0
VERTEX
10
8.33609
20
9.87097
30
7.08
0
VERTEX
10
8.3594
20
9.89518
30
7.08
0
VERTEX
10
8.37284
20
9.90414
30
7.08
0
VERTEX
10
8.37553
20
9.90773
30
7.08
0
VERTEX
10
8.38271
20
9.90863
30
7.08
0
VERTEX
10
8.38988
20
9.91132
30
7.08
0
VERTEX
10
8.39346
20
9.91401
30
7.08
0
VERTEX
10
8.40064
20
9.9167
30
7.08
0
VERTEX
10
8.40781
20
9.92118
30
7.08
0
VERTEX
10
8.40871
20
9.92477
30
7.08
0
VERTEX
10
8.41857
20
9.93821
30
7.08
0
VERTEX
10
8.42036
20
9.94539
30
7.08
0
VERTEX
10
8.42036
20
9.94897
30
7.08
0
VERTEX
10
8.42036
20
9.95077
30
7.08
0
VERTEX
10
8.41498
20
9.95704
30
7.08
0
VERTEX
10
8.41229
20
9.96332
30
7.08
0
VERTEX
10
8.40871
20
9.96601
30
7.08
0
VERTEX
10
8.39436
20
9.9669
30
7.08
0
VERTEX
10
8.38002
20
9.96601
30
7.08
0
VERTEX
10
8.35133
20
9.96152
30
7.08
0
VERTEX
10
8.33698
20
9.95973
30
7.08
0
VERTEX
10
8.32981
20
9.95794
30
7.08
0
VERTEX
10
8.30112
20
9.95614
30
7.08
0
VERTEX
10
8.29753
20
9.95614
30
7.08
0
VERTEX
10
8.29574
20
9.95614
30
7.08
0
VERTEX
10
8.29395
20
9.95435
30
7.08
0
VERTEX
10
8.29036
20
9.95435
30
7.08
0
VERTEX
10
8.2814
20
9.9409
30
7.08
0
VERTEX
10
8.27871
20
9.93373
30
7.08
0
VERTEX
10
8.27781
20
9.93014
30
7.08
0
VERTEX
10
8.27602
20
9.92835
30
7.08
0
VERTEX
10
8.27602
20
9.92656
30
7.08
0
VERTEX
10
8.27064
20
9.92118
30
7.08
0
VERTEX
10
8.27064
20
9.91759
30
7.08
0
VERTEX
10
8.26884
20
9.9167
30
7.08
0
VERTEX
10
8.26884
20
9.91311
30
7.08
0
VERTEX
10
8.26616
20
9.90594
30
7.08
0
VERTEX
10
8.26616
20
9.90414
30
7.08
0
VERTEX
10
8.26436
20
9.90235
30
7.08
0
VERTEX
10
8.26436
20
9.89518
30
7.08
0
SEQEND
0
POLYLINE
62
227
66
1
70
1
3
endoplasmic_reticulum
0
VERTEX
10
8.88388
20
9.88442
30
7.08
0
VERTEX
10
8.88657
20
9.88083
30
7.08
0
VERTEX
10
8.88925
20
9.87366
30
7.08
0
VERTEX
10
8.89194
20
9.87008
30
7.08
0
VERTEX
10
8.90629
20
9.87097
30
7.08
0
VERTEX
10
8.90808
20
9.87277
30
7.08
0
VERTEX
10
8.91167
20
9.87277
30
7.08
0
VERTEX
10
8.91436
20
9.87725
30
7.08
0
VERTEX
10
8.91705
20
9.88352
30
7.08
0
VERTEX
10
8.91615
20
9.88711
30
7.08
0
VERTEX
10
8.92601
20
9.89877
30
7.08
0
VERTEX
10
8.9287
20
9.90146
30
7.08
0
VERTEX
10
8.9287
20
9.90325
30
7.08
0
VERTEX
10
8.93229
20
9.90504
30
7.08
0
VERTEX
10
8.93588
20
9.90863
30
7.08
0
VERTEX
10
8.94305
20
9.91042
30
7.08
0
VERTEX
10
8.94663
20
9.91311
30
7.08
0
VERTEX
10
8.95381
20
9.9158
30
7.08
0
VERTEX
10
8.95739
20
9.9167
30
7.08
0
VERTEX
10
8.96098
20
9.91939
30
7.08
0
VERTEX
10
8.96815
20
9.92028
30
7.08
0
VERTEX
10
8.97532
20
9.92477
30
7.08
0
VERTEX
10
8.98967
20
9.92746
30
7.08
0
VERTEX
10
9.00401
20
9.93194
30
7.08
0
VERTEX
10
9.0076
20
9.93283
30
7.08
0
VERTEX
10
9.01477
20
9.93821
30
7.08
0
VERTEX
10
9.01656
20
9.94001
30
7.08
0
VERTEX
10
9.01656
20
9.94718
30
7.08
0
VERTEX
10
9.01477
20
9.95435
30
7.08
0
VERTEX
10
9.01298
20
9.95794
30
7.08
0
VERTEX
10
9.01298
20
9.96511
30
7.08
0
VERTEX
10
9.01567
20
9.97945
30
7.08
0
VERTEX
10
9.01477
20
9.9938
30
7.08
0
VERTEX
10
9.01387
20
10.001
30
7.08
0
VERTEX
10
9.00939
20
10.0081
30
7.08
0
VERTEX
10
9.00491
20
10.0216
30
7.08
0
VERTEX
10
9.00401
20
10.0234
30
7.08
0
VERTEX
10
9.00043
20
10.0243
30
7.08
0
VERTEX
10
8.98608
20
10.0225
30
7.08
0
VERTEX
10
8.97891
20
10.0207
30
7.08
0
VERTEX
10
8.97712
20
10.0198
30
7.08
0
VERTEX
10
8.97712
20
10.018
30
7.08
0
VERTEX
10
8.97532
20
10.018
30
7.08
0
VERTEX
10
8.97084
20
10.0117
30
7.08
0
VERTEX
10
8.97174
20
9.99739
30
7.08
0
VERTEX
10
8.97443
20
9.9947
30
7.08
0
VERTEX
10
8.97801
20
9.9938
30
7.08
0
VERTEX
10
8.97981
20
9.9938
30
7.08
0
VERTEX
10
8.9825
20
9.99021
30
7.08
0
VERTEX
10
8.98519
20
9.97587
30
7.08
0
VERTEX
10
8.98698
20
9.9687
30
7.08
0
VERTEX
10
8.98787
20
9.9669
30
7.08
0
VERTEX
10
8.98608
20
9.96332
30
7.08
0
VERTEX
10
8.98608
20
9.95614
30
7.08
0
VERTEX
10
8.98608
20
9.95435
30
7.08
0
VERTEX
10
8.97981
20
9.95166
30
7.08
0
VERTEX
10
8.97622
20
9.95077
30
7.08
0
VERTEX
10
8.97263
20
9.95166
30
7.08
0
VERTEX
10
8.96546
20
9.95614
30
7.08
0
VERTEX
10
8.96367
20
9.95794
30
7.08
0
VERTEX
10
8.9565
20
9.95794
30
7.08
0
VERTEX
10
8.95291
20
9.95973
30
7.08
0
VERTEX
10
8.95112
20
9.95973
30
7.08
0
VERTEX
10
8.94484
20
9.96601
30
7.08
0
VERTEX
10
8.91615
20
9.96601
30
7.08
0
VERTEX
10
8.90898
20
9.96152
30
7.08
0
VERTEX
10
8.90719
20
9.95794
30
7.08
0
VERTEX
10
8.90539
20
9.95614
30
7.08
0
VERTEX
10
8.89553
20
9.92835
30
7.08
0
VERTEX
10
8.89015
20
9.91401
30
7.08
0
VERTEX
10
8.88836
20
9.90683
30
7.08
0
VERTEX
10
8.88477
20
9.89966
30
7.08
0
VERTEX
10
8.88388
20
9.88532
30
7.08
0
SEQEND
0
POLYLINE
62
227
66
1
70
1
3
endoplasmic_reticulum
0
VERTEX
10
8.42933
20
9.97856
30
7.08
0
VERTEX
10
8.4365
20
9.97587
30
7.08
0
VERTEX
10
8.44009
20
9.97408
30
7.08
0
VERTEX
10
8.45443
20
9.97318
30
7.08
0
VERTEX
10
8.4616
20
9.97318
30
7.08
0
VERTEX
10
8.47595
20
9.9687
30
7.08
0
VERTEX
10
8.48312
20
9.9687
30
7.08
0
VERTEX
10
8.49029
20
9.9669
30
7.08
0
VERTEX
10
8.51898
20
9.9669
30
7.08
0
VERTEX
10
8.52257
20
9.9669
30
7.08
0
VERTEX
10
8.52974
20
9.97049
30
7.08
0
VERTEX
10
8.53333
20
9.97049
30
7.08
0
VERTEX
10
8.53691
20
9.97228
30
7.08
0
VERTEX
10
8.54408
20
9.97318
30
7.08
0
VERTEX
10
8.55126
20
9.97587
30
7.08
0
VERTEX
10
8.55395
20
9.97856
30
7.08
0
VERTEX
10
8.55753
20
9.97945
30
7.08
0
VERTEX
10
8.55933
20
9.98125
30
7.08
0
VERTEX
10
8.58802
20
9.98125
30
7.08
0
VERTEX
10
8.60236
20
9.98035
30
7.08
0
VERTEX
10
8.60595
20
9.97856
30
7.08
0
VERTEX
10
8.61312
20
9.97766
30
7.08
0
VERTEX
10
8.62029
20
9.97497
30
7.08
0
VERTEX
10
8.62388
20
9.97497
30
7.08
0
VERTEX
10
8.62567
20
9.97408
30
7.08
0
VERTEX
10
8.64001
20
9.97677
30
7.08
0
VERTEX
10
8.6436
20
9.97856
30
7.08
0
VERTEX
10
8.64629
20
9.98573
30
7.08
0
VERTEX
10
8.64719
20
9.98932
30
7.08
0
VERTEX
10
8.64629
20
9.99649
30
7.08
0
VERTEX
10
8.64539
20
10.0001
30
7.08
0
VERTEX
10
8.64539
20
10.0019
30
7.08
0
VERTEX
10
8.6436
20
10.0028
30
7.08
0
VERTEX
10
8.64091
20
10.0099
30
7.08
0
VERTEX
10
8.63464
20
10.0162
30
7.08
0
VERTEX
10
8.63284
20
10.0198
30
7.08
0
VERTEX
10
8.62657
20
10.0243
30
7.08
0
VERTEX
10
8.62477
20
10.0261
30
7.08
0
VERTEX
10
8.61043
20
10.0279
30
7.08
0
VERTEX
10
8.59608
20
10.0279
30
7.08
0
VERTEX
10
8.58174
20
10.0243
30
7.08
0
VERTEX
10
8.56739
20
10.0234
30
7.08
0
VERTEX
10
8.56022
20
10.0216
30
7.08
0
VERTEX
10
8.53153
20
10.0243
30
7.08
0
VERTEX
10
8.51719
20
10.0243
30
7.08
0
VERTEX
10
8.51002
20
10.0243
30
7.08
0
VERTEX
10
8.50284
20
10.0225
30
7.08
0
VERTEX
10
8.4885
20
10.0216
30
7.08
0
VERTEX
10
8.47415
20
10.0189
30
7.08
0
VERTEX
10
8.46698
20
10.0162
30
7.08
0
VERTEX
10
8.45981
20
10.0117
30
7.08
0
VERTEX
10
8.45802
20
10.0117
30
7.08
0
VERTEX
10
8.45264
20
10.0064
30
7.08
0
VERTEX
10
8.43829
20
9.99739
30
7.08
0
VERTEX
10
8.43381
20
9.99111
30
7.08
0
VERTEX
10
8.43202
20
9.98932
30
7.08
0
VERTEX
10
8.43112
20
9.98214
30
7.08
0
VERTEX
10
8.43022
20
9.97945
30
7.08
0
SEQEND
0
POLYLINE
62
31
66
1
70
1
3
contour
0
VERTEX
10
7.18602
20
9.74897
30
7.08
0
VERTEX
10
7.19046
20
9.72531
30
7.08
0
VERTEX
10
7.18898
20
9.71348
30
7.08
0
VERTEX
10
7.18898
20
9.70756
30
7.08
0
VERTEX
10
7.1949
20
9.69573
30
7.08
0
VERTEX
10
7.19638
20
9.6839
30
7.08
0
VERTEX
10
7.20081
20
9.67207
30
7.08
0
VERTEX
10
7.20229
20
9.66024
30
7.08
0
VERTEX
10
7.20525
20
9.65432
30
7.08
0
VERTEX
10
7.21264
20
9.607
30
7.08
0
VERTEX
10
7.22595
20
9.55967
30
7.08
0
VERTEX
10
7.23039
20
9.53601
30
7.08
0
VERTEX
10
7.23039
20
9.5301
30
7.08
0
VERTEX
10
7.23335
20
9.52714
30
7.08
0
VERTEX
10
7.23335
20
9.50348
30
7.08
0
VERTEX
10
7.23631
20
9.47981
30
7.08
0
VERTEX
10
7.23779
20
9.46798
30
7.08
0
VERTEX
10
7.23779
20
9.46207
30
7.08
0
VERTEX
10
7.23779
20
9.45911
30
7.08
0
VERTEX
10
7.24222
20
9.45319
30
7.08
0
VERTEX
10
7.24666
20
9.44136
30
7.08
0
VERTEX
10
7.24666
20
9.4384
30
7.08
0
VERTEX
10
7.2511
20
9.43249
30
7.08
0
VERTEX
10
7.25997
20
9.40883
30
7.08
0
VERTEX
10
7.26145
20
9.39699
30
7.08
0
VERTEX
10
7.26441
20
9.39108
30
7.08
0
VERTEX
10
7.26441
20
9.38516
30
7.08
0
VERTEX
10
7.26736
20
9.37925
30
7.08
0
VERTEX
10
7.26736
20
9.37629
30
7.08
0
VERTEX
10
7.27624
20
9.36594
30
7.08
0
VERTEX
10
7.28363
20
9.34227
30
7.08
0
VERTEX
10
7.28807
20
9.33044
30
7.08
0
VERTEX
10
7.29694
20
9.32009
30
7.08
0
VERTEX
10
7.3206
20
9.31861
30
7.08
0
VERTEX
10
7.32356
20
9.31861
30
7.08
0
VERTEX
10
7.32652
20
9.31565
30
7.08
0
VERTEX
10
7.33835
20
9.31565
30
7.08
0
VERTEX
10
7.35018
20
9.31122
30
7.08
0
VERTEX
10
7.37384
20
9.30974
30
7.08
0
VERTEX
10
7.37976
20
9.31122
30
7.08
0
VERTEX
10
7.40194
20
9.32748
30
7.08
0
VERTEX
10
7.41082
20
9.33932
30
7.08
0
VERTEX
10
7.42117
20
9.34671
30
7.08
0
VERTEX
10
7.43744
20
9.36889
30
7.08
0
VERTEX
10
7.44483
20
9.38073
30
7.08
0
VERTEX
10
7.44927
20
9.39256
30
7.08
0
VERTEX
10
7.45223
20
9.39847
30
7.08
0
VERTEX
10
7.45223
20
9.40143
30
7.08
0
VERTEX
10
7.45666
20
9.40735
30
7.08
0
VERTEX
10
7.46406
20
9.43101
30
7.08
0
VERTEX
10
7.47737
20
9.45467
30
7.08
0
VERTEX
10
7.47737
20
9.45763
30
7.08
0
VERTEX
10
7.49659
20
9.47981
30
7.08
0
VERTEX
10
7.50399
20
9.49164
30
7.08
0
VERTEX
10
7.50843
20
9.49756
30
7.08
0
VERTEX
10
7.51138
20
9.50052
30
7.08
0
VERTEX
10
7.51138
20
9.50348
30
7.08
0
VERTEX
10
7.52321
20
9.51235
30
7.08
0
VERTEX
10
7.53061
20
9.53601
30
7.08
0
VERTEX
10
7.53209
20
9.54193
30
7.08
0
VERTEX
10
7.53653
20
9.54784
30
7.08
0
VERTEX
10
7.538
20
9.55967
30
7.08
0
VERTEX
10
7.54984
20
9.58334
30
7.08
0
VERTEX
10
7.55575
20
9.63066
30
7.08
0
VERTEX
10
7.55575
20
9.63658
30
7.08
0
VERTEX
10
7.55871
20
9.64249
30
7.08
0
VERTEX
10
7.55871
20
9.64545
30
7.08
0
VERTEX
10
7.56167
20
9.64841
30
7.08
0
VERTEX
10
7.56315
20
9.66024
30
7.08
0
VERTEX
10
7.57202
20
9.67207
30
7.08
0
VERTEX
10
7.57646
20
9.6839
30
7.08
0
VERTEX
10
7.58237
20
9.68982
30
7.08
0
VERTEX
10
7.58533
20
9.69278
30
7.08
0
VERTEX
10
7.59124
20
9.69425
30
7.08
0
VERTEX
10
7.59864
20
9.70609
30
7.08
0
VERTEX
10
7.60012
20
9.712
30
7.08
0
VERTEX
10
7.60455
20
9.71792
30
7.08
0
VERTEX
10
7.60455
20
9.72088
30
7.08
0
VERTEX
10
7.61639
20
9.73123
30
7.08
0
VERTEX
10
7.62526
20
9.74306
30
7.08
0
VERTEX
10
7.6297
20
9.74897
30
7.08
0
VERTEX
10
7.6297
20
9.75489
30
7.08
0
VERTEX
10
7.64596
20
9.77707
30
7.08
0
VERTEX
10
7.65188
20
9.7889
30
7.08
0
VERTEX
10
7.66075
20
9.80074
30
7.08
0
VERTEX
10
7.66667
20
9.81109
30
7.08
0
VERTEX
10
7.67554
20
9.82292
30
7.08
0
VERTEX
10
7.67554
20
9.82588
30
7.08
0
VERTEX
10
7.6785
20
9.82884
30
7.08
0
VERTEX
10
7.6785
20
9.83179
30
7.08
0
VERTEX
10
7.68589
20
9.84215
30
7.08
0
VERTEX
10
7.69329
20
9.86581
30
7.08
0
VERTEX
10
7.69181
20
9.91313
30
7.08
0
VERTEX
10
7.69181
20
9.91905
30
7.08
0
VERTEX
10
7.68885
20
9.92496
30
7.08
0
VERTEX
10
7.68885
20
9.9368
30
7.08
0
VERTEX
10
7.68737
20
9.94271
30
7.08
0
VERTEX
10
7.67258
20
9.96637
30
7.08
0
VERTEX
10
7.65336
20
9.99004
30
7.08
0
VERTEX
10
7.64301
20
10.0004
30
7.08
0
VERTEX
10
7.62082
20
10.0137
30
7.08
0
VERTEX
10
7.57646
20
10.0448
30
7.08
0
VERTEX
10
7.57202
20
10.0492
30
7.08
0
VERTEX
10
7.5661
20
10.0492
30
7.08
0
VERTEX
10
7.55427
20
10.0536
30
7.08
0
VERTEX
10
7.54244
20
10.061
30
7.08
0
VERTEX
10
7.53061
20
10.0655
30
7.08
0
VERTEX
10
7.52765
20
10.0714
30
7.08
0
VERTEX
10
7.50399
20
10.0729
30
7.08
0
VERTEX
10
7.48181
20
10.0817
30
7.08
0
VERTEX
10
7.45814
20
10.0803
30
7.08
0
VERTEX
10
7.44631
20
10.0803
30
7.08
0
VERTEX
10
7.4404
20
10.0788
30
7.08
0
VERTEX
10
7.42856
20
10.0714
30
7.08
0
VERTEX
10
7.4123
20
10.0507
30
7.08
0
VERTEX
10
7.40194
20
10.0433
30
7.08
0
VERTEX
10
7.39603
20
10.0403
30
7.08
0
VERTEX
10
7.39159
20
10.0344
30
7.08
0
VERTEX
10
7.37976
20
10.03
30
7.08
0
VERTEX
10
7.35758
20
10.0152
30
7.08
0
VERTEX
10
7.34575
20
10.0078
30
7.08
0
VERTEX
10
7.33391
20
9.99743
30
7.08
0
VERTEX
10
7.32504
20
9.98856
30
7.08
0
VERTEX
10
7.30138
20
9.97377
30
7.08
0
VERTEX
10
7.28955
20
9.96785
30
7.08
0
VERTEX
10
7.26736
20
9.94863
30
7.08
0
VERTEX
10
7.24962
20
9.92792
30
7.08
0
VERTEX
10
7.2437
20
9.92496
30
7.08
0
VERTEX
10
7.24074
20
9.91905
30
7.08
0
VERTEX
10
7.22891
20
9.91018
30
7.08
0
VERTEX
10
7.22004
20
9.9013
30
7.08
0
VERTEX
10
7.2156
20
9.89539
30
7.08
0
VERTEX
10
7.2156
20
9.89243
30
7.08
0
VERTEX
10
7.20525
20
9.88356
30
7.08
0
VERTEX
10
7.20081
20
9.87172
30
7.08
0
VERTEX
10
7.19638
20
9.84806
30
7.08
0
VERTEX
10
7.19638
20
9.84215
30
7.08
0
VERTEX
10
7.19194
20
9.83031
30
7.08
0
VERTEX
10
7.19046
20
9.81848
30
7.08
0
VERTEX
10
7.19046
20
9.81257
30
7.08
0
VERTEX
10
7.18602
20
9.80074
30
7.08
0
VERTEX
10
7.18602
20
9.75341
30
7.08
0
VERTEX
10
7.18602
20
9.75045
30
7.08
0
SEQEND
0
POLYLINE
62
236
66
1
70
1
3
postsynaptic_density
0
VERTEX
10
7.10194
20
9.76516
30
7.08
0
VERTEX
10
7.11106
20
9.74084
30
7.08
0
VERTEX
10
7.12626
20
9.64356
30
7.08
0
VERTEX
10
7.15666
20
9.59491
30
7.08
0
VERTEX
10
7.16578
20
9.57363
30
7.08
0
VERTEX
10
7.16882
20
9.54931
30
7.08
0
VERTEX
10
7.18706
20
9.50067
30
7.08
0
VERTEX
10
7.19314
20
9.45506
30
7.08
0
VERTEX
10
7.29043
20
9.46418
30
7.08
0
VERTEX
10
7.33907
20
9.46418
30
7.08
0
VERTEX
10
7.35123
20
9.46722
30
7.08
0
VERTEX
10
7.34819
20
9.51587
30
7.08
0
VERTEX
10
7.33907
20
9.56451
30
7.08
0
VERTEX
10
7.33907
20
9.57059
30
7.08
0
VERTEX
10
7.35123
20
9.57059
30
7.08
0
VERTEX
10
7.35732
20
9.57363
30
7.08
0
VERTEX
10
7.35428
20
9.62227
30
7.08
0
VERTEX
10
7.33603
20
9.71956
30
7.08
0
VERTEX
10
7.33603
20
9.74388
30
7.08
0
VERTEX
10
7.33603
20
9.75604
30
7.08
0
VERTEX
10
7.32995
20
9.76212
30
7.08
0
VERTEX
10
7.32691
20
9.77428
30
7.08
0
VERTEX
10
7.31779
20
9.78341
30
7.08
0
VERTEX
10
7.31171
20
9.78341
30
7.08
0
VERTEX
10
7.28739
20
9.79861
30
7.08
0
VERTEX
10
7.26307
20
9.80469
30
7.08
0
VERTEX
10
7.25699
20
9.81077
30
7.08
0
VERTEX
10
7.23267
20
9.81077
30
7.08
0
VERTEX
10
7.20834
20
9.81685
30
7.08
0
VERTEX
10
7.11106
20
9.81989
30
7.08
0
VERTEX
10
7.10498
20
9.81685
30
7.08
0
VERTEX
10
7.10194
20
9.7682
30
7.08
0
SEQEND
0
POLYLINE
62
227
66
1
70
1
3
endoplasmic_reticulum
0
VERTEX
10
7.32891
20
9.47089
30
7.08
0
VERTEX
10
7.33715
20
9.46676
30
7.08
0
VERTEX
10
7.37014
20
9.46882
30
7.08
0
VERTEX
10
7.38663
20
9.47913
30
7.08
0
VERTEX
10
7.39075
20
9.48738
30
7.08
0
VERTEX
10
7.38869
20
9.50387
30
7.08
0
VERTEX
10
7.38663
20
9.51212
30
7.08
0
VERTEX
10
7.37632
20
9.52861
30
7.08
0
VERTEX
10
7.37014
20
9.53686
30
7.08
0
VERTEX
10
7.36602
20
9.54098
30
7.08
0
VERTEX
10
7.35777
20
9.53892
30
7.08
0
VERTEX
10
7.35365
20
9.53892
30
7.08
0
VERTEX
10
7.34952
20
9.53479
30
7.08
0
VERTEX
10
7.33303
20
9.52861
30
7.08
0
VERTEX
10
7.32891
20
9.52036
30
7.08
0
VERTEX
10
7.32891
20
9.48738
30
7.08
0
VERTEX
10
7.32891
20
9.47295
30
7.08
0
SEQEND
0
ENDSEC
0
EOF
