0
SECTION
2
ENTITIES
0
POLYLINE
62
31
66
1
70
1
3
contour
0
VERTEX
10
7.66689
20
10.1852
30
8.04
0
VERTEX
10
7.68335
20
10.0799
30
8.04
0
VERTEX
10
7.68335
20
10.0667
30
8.04
0
VERTEX
10
7.69323
20
10.0568
30
8.04
0
VERTEX
10
7.69981
20
10.0305
30
8.04
0
VERTEX
10
7.69652
20
10.0042
30
8.04
0
VERTEX
10
7.70311
20
9.97783
30
8.04
0
VERTEX
10
7.70969
20
9.87248
30
8.04
0
VERTEX
10
7.71298
20
9.81981
30
8.04
0
VERTEX
10
7.72944
20
9.79677
30
8.04
0
VERTEX
10
7.72944
20
9.79019
30
8.04
0
VERTEX
10
7.75248
20
9.76385
30
8.04
0
VERTEX
10
7.76236
20
9.75398
30
8.04
0
VERTEX
10
7.76565
20
9.74081
30
8.04
0
VERTEX
10
7.78211
20
9.71447
30
8.04
0
VERTEX
10
7.79528
20
9.7046
30
8.04
0
VERTEX
10
7.81174
20
9.68155
30
8.04
0
VERTEX
10
7.81503
20
9.67497
30
8.04
0
VERTEX
10
7.8677
20
9.68155
30
8.04
0
VERTEX
10
7.89404
20
9.69143
30
8.04
0
VERTEX
10
7.91708
20
9.71118
30
8.04
0
VERTEX
10
7.92037
20
9.72435
30
8.04
0
VERTEX
10
7.92696
20
9.73093
30
8.04
0
VERTEX
10
7.92696
20
9.73752
30
8.04
0
VERTEX
10
7.94342
20
9.76385
30
8.04
0
VERTEX
10
7.96975
20
9.7836
30
8.04
0
VERTEX
10
7.9928
20
9.79348
30
8.04
0
VERTEX
10
7.99938
20
9.79348
30
8.04
0
VERTEX
10
8.00925
20
9.80665
30
8.04
0
VERTEX
10
8.03559
20
9.81323
30
8.04
0
VERTEX
10
8.04217
20
9.81981
30
8.04
0
VERTEX
10
8.06851
20
9.82311
30
8.04
0
VERTEX
10
8.09485
20
9.83627
30
8.04
0
VERTEX
10
8.10801
20
9.84615
30
8.04
0
VERTEX
10
8.13435
20
9.84944
30
8.04
0
VERTEX
10
8.15739
20
9.86919
30
8.04
0
VERTEX
10
8.16398
20
9.86919
30
8.04
0
VERTEX
10
8.17056
20
9.87578
30
8.04
0
VERTEX
10
8.19689
20
9.88236
30
8.04
0
VERTEX
10
8.21006
20
9.89224
30
8.04
0
VERTEX
10
8.22323
20
9.89553
30
8.04
0
VERTEX
10
8.22981
20
9.90211
30
8.04
0
VERTEX
10
8.2364
20
9.90211
30
8.04
0
VERTEX
10
8.24298
20
9.91528
30
8.04
0
VERTEX
10
8.26603
20
9.93832
30
8.04
0
VERTEX
10
8.27261
20
9.95149
30
8.04
0
VERTEX
10
8.27261
20
9.95807
30
8.04
0
VERTEX
10
8.27919
20
9.96466
30
8.04
0
VERTEX
10
8.28248
20
10.07
30
8.04
0
VERTEX
10
8.2759
20
10.1753
30
8.04
0
VERTEX
10
8.26273
20
10.228
30
8.04
0
VERTEX
10
8.26273
20
10.2412
30
8.04
0
VERTEX
10
8.26273
20
10.2478
30
8.04
0
VERTEX
10
8.25615
20
10.2543
30
8.04
0
VERTEX
10
8.25615
20
10.2609
30
8.04
0
VERTEX
10
8.24298
20
10.2708
30
8.04
0
VERTEX
10
8.2364
20
10.284
30
8.04
0
VERTEX
10
8.21335
20
10.3004
30
8.04
0
VERTEX
10
8.18702
20
10.3103
30
8.04
0
VERTEX
10
8.16398
20
10.3268
30
8.04
0
VERTEX
10
8.14752
20
10.3465
30
8.04
0
VERTEX
10
8.13764
20
10.3597
30
8.04
0
VERTEX
10
8.1113
20
10.3761
30
8.04
0
VERTEX
10
8.08497
20
10.3992
30
8.04
0
VERTEX
10
8.0718
20
10.4058
30
8.04
0
VERTEX
10
8.06522
20
10.4124
30
8.04
0
VERTEX
10
8.06522
20
10.4189
30
8.04
0
VERTEX
10
8.03888
20
10.4387
30
8.04
0
VERTEX
10
8.01255
20
10.4354
30
8.04
0
VERTEX
10
7.98621
20
10.442
30
8.04
0
VERTEX
10
7.96975
20
10.465
30
8.04
0
VERTEX
10
7.96317
20
10.4782
30
8.04
0
VERTEX
10
7.96317
20
10.5045
30
8.04
0
VERTEX
10
7.96317
20
10.5177
30
8.04
0
VERTEX
10
7.96975
20
10.521
30
8.04
0
VERTEX
10
7.96646
20
10.5473
30
8.04
0
VERTEX
10
7.95988
20
10.5605
30
8.04
0
VERTEX
10
7.93354
20
10.5638
30
8.04
0
VERTEX
10
7.90721
20
10.5539
30
8.04
0
VERTEX
10
7.85453
20
10.5473
30
8.04
0
VERTEX
10
7.80186
20
10.5473
30
8.04
0
VERTEX
10
7.7887
20
10.5473
30
8.04
0
VERTEX
10
7.78211
20
10.5506
30
8.04
0
VERTEX
10
7.76236
20
10.5243
30
8.04
0
VERTEX
10
7.73603
20
10.5045
30
8.04
0
VERTEX
10
7.72286
20
10.5012
30
8.04
0
VERTEX
10
7.70969
20
10.4749
30
8.04
0
VERTEX
10
7.69323
20
10.4552
30
8.04
0
VERTEX
10
7.68665
20
10.4288
30
8.04
0
VERTEX
10
7.68006
20
10.4157
30
8.04
0
VERTEX
10
7.67677
20
10.3103
30
8.04
0
VERTEX
10
7.67348
20
10.284
30
8.04
0
VERTEX
10
7.66689
20
10.2708
30
8.04
0
VERTEX
10
7.66689
20
10.2181
30
8.04
0
VERTEX
10
7.66689
20
10.1918
30
8.04
0
VERTEX
10
7.66689
20
10.1885
30
8.04
0
SEQEND
0
POLYLINE
62
224
66
1
70
1
3
mitochondrion
0
VERTEX
10
7.89486
20
10.0695
30
8.04
0
VERTEX
10
7.89764
20
10.0667
30
8.04
0
VERTEX
10
7.90042
20
10.0222
30
8.04
0
VERTEX
10
7.90877
20
9.99997
30
8.04
0
VERTEX
10
7.92545
20
9.97912
30
8.04
0
VERTEX
10
7.94631
20
9.95965
30
8.04
0
VERTEX
10
7.95326
20
9.94992
30
8.04
0
VERTEX
10
7.95882
20
9.94435
30
8.04
0
VERTEX
10
7.96994
20
9.9374
30
8.04
0
VERTEX
10
7.97273
20
9.93462
30
8.04
0
VERTEX
10
7.97551
20
9.93462
30
8.04
0
VERTEX
10
7.98524
20
9.92767
30
8.04
0
VERTEX
10
7.99636
20
9.92628
30
8.04
0
VERTEX
10
8.01861
20
9.92767
30
8.04
0
VERTEX
10
8.02973
20
9.93184
30
8.04
0
VERTEX
10
8.04086
20
9.93323
30
8.04
0
VERTEX
10
8.04364
20
9.93601
30
8.04
0
VERTEX
10
8.05476
20
9.94018
30
8.04
0
VERTEX
10
8.07284
20
9.96104
30
8.04
0
VERTEX
10
8.08118
20
9.97077
30
8.04
0
VERTEX
10
8.08396
20
9.97633
30
8.04
0
VERTEX
10
8.08535
20
9.98746
30
8.04
0
VERTEX
10
8.08952
20
9.99858
30
8.04
0
VERTEX
10
8.0923
20
10.0208
30
8.04
0
VERTEX
10
8.09369
20
10.0653
30
8.04
0
VERTEX
10
8.09508
20
10.0764
30
8.04
0
VERTEX
10
8.09647
20
10.0792
30
8.04
0
VERTEX
10
8.09508
20
10.0848
30
8.04
0
VERTEX
10
8.0923
20
10.0876
30
8.04
0
VERTEX
10
8.09091
20
10.1098
30
8.04
0
VERTEX
10
8.08118
20
10.1321
30
8.04
0
VERTEX
10
8.0784
20
10.1376
30
8.04
0
VERTEX
10
8.07562
20
10.139
30
8.04
0
VERTEX
10
8.07562
20
10.1418
30
8.04
0
VERTEX
10
8.06449
20
10.1529
30
8.04
0
VERTEX
10
8.06171
20
10.1585
30
8.04
0
VERTEX
10
8.04225
20
10.1738
30
8.04
0
VERTEX
10
8.03668
20
10.1766
30
8.04
0
VERTEX
10
8.0339
20
10.1793
30
8.04
0
VERTEX
10
8.03112
20
10.1793
30
8.04
0
VERTEX
10
8.02834
20
10.1821
30
8.04
0
VERTEX
10
7.98385
20
10.1891
30
8.04
0
VERTEX
10
7.97273
20
10.1891
30
8.04
0
VERTEX
10
7.9616
20
10.1863
30
8.04
0
VERTEX
10
7.95882
20
10.1835
30
8.04
0
VERTEX
10
7.9477
20
10.1835
30
8.04
0
VERTEX
10
7.94214
20
10.1821
30
8.04
0
VERTEX
10
7.93796
20
10.1766
30
8.04
0
VERTEX
10
7.9324
20
10.1738
30
8.04
0
VERTEX
10
7.92545
20
10.1627
30
8.04
0
VERTEX
10
7.90737
20
10.1418
30
8.04
0
VERTEX
10
7.9032
20
10.1362
30
8.04
0
VERTEX
10
7.90042
20
10.1251
30
8.04
0
VERTEX
10
7.90042
20
10.1195
30
8.04
0
VERTEX
10
7.89625
20
10.1084
30
8.04
0
VERTEX
10
7.89486
20
10.0862
30
8.04
0
VERTEX
10
7.89486
20
10.0751
30
8.04
0
VERTEX
10
7.89486
20
10.0709
30
8.04
0
SEQEND
0
POLYLINE
62
227
66
1
70
1
3
endoplasmic_reticulum
0
VERTEX
10
7.79368
20
9.91221
30
8.04
0
VERTEX
10
7.79547
20
9.90504
30
8.04
0
VERTEX
10
7.79816
20
9.90325
30
8.04
0
VERTEX
10
7.8125
20
9.90594
30
8.04
0
VERTEX
10
7.8143
20
9.90594
30
8.04
0
VERTEX
10
7.82057
20
9.91042
30
8.04
0
VERTEX
10
7.82685
20
9.9167
30
8.04
0
VERTEX
10
7.82954
20
9.92387
30
8.04
0
VERTEX
10
7.83133
20
9.92387
30
8.04
0
VERTEX
10
7.83312
20
9.92566
30
8.04
0
VERTEX
10
7.83671
20
9.92656
30
8.04
0
VERTEX
10
7.84119
20
9.93283
30
8.04
0
VERTEX
10
7.84388
20
9.93642
30
8.04
0
VERTEX
10
7.84478
20
9.94001
30
8.04
0
VERTEX
10
7.84747
20
9.9427
30
8.04
0
VERTEX
10
7.84568
20
9.95704
30
8.04
0
VERTEX
10
7.84388
20
9.96421
30
8.04
0
VERTEX
10
7.82954
20
9.96601
30
8.04
0
VERTEX
10
7.81519
20
9.96601
30
8.04
0
VERTEX
10
7.80892
20
9.96152
30
8.04
0
VERTEX
10
7.80712
20
9.95794
30
8.04
0
VERTEX
10
7.80712
20
9.95614
30
8.04
0
VERTEX
10
7.80443
20
9.95256
30
8.04
0
VERTEX
10
7.80354
20
9.94539
30
8.04
0
VERTEX
10
7.80174
20
9.9418
30
8.04
0
VERTEX
10
7.80174
20
9.94001
30
8.04
0
VERTEX
10
7.79726
20
9.93283
30
8.04
0
VERTEX
10
7.79457
20
9.92566
30
8.04
0
VERTEX
10
7.79368
20
9.91849
30
8.04
0
VERTEX
10
7.79368
20
9.9149
30
8.04
0
VERTEX
10
7.79368
20
9.91311
30
8.04
0
SEQEND
0
POLYLINE
62
227
66
1
70
1
3
endoplasmic_reticulum
0
VERTEX
10
7.73002
20
10.1973
30
8.04
0
VERTEX
10
7.73361
20
10.1901
30
8.04
0
VERTEX
10
7.7354
20
10.1866
30
8.04
0
VERTEX
10
7.74257
20
10.1803
30
8.04
0
VERTEX
10
7.74437
20
10.1785
30
8.04
0
VERTEX
10
7.75154
20
10.1776
30
8.04
0
VERTEX
10
7.76588
20
10.1803
30
8.04
0
VERTEX
10
7.76947
20
10.1803
30
8.04
0
VERTEX
10
7.77305
20
10.183
30
8.04
0
VERTEX
10
7.77485
20
10.183
30
8.04
0
VERTEX
10
7.77843
20
10.1857
30
8.04
0
VERTEX
10
7.78202
20
10.1866
30
8.04
0
VERTEX
10
7.78919
20
10.191
30
8.04
0
VERTEX
10
7.79547
20
10.1937
30
8.04
0
VERTEX
10
7.79905
20
10.1973
30
8.04
0
VERTEX
10
7.80533
20
10.2018
30
8.04
0
VERTEX
10
7.80892
20
10.2045
30
8.04
0
VERTEX
10
7.80892
20
10.2063
30
8.04
0
VERTEX
10
7.81609
20
10.2117
30
8.04
0
VERTEX
10
7.81699
20
10.2152
30
8.04
0
VERTEX
10
7.81878
20
10.2161
30
8.04
0
VERTEX
10
7.82326
20
10.2305
30
8.04
0
VERTEX
10
7.82326
20
10.2323
30
8.04
0
VERTEX
10
7.82774
20
10.2386
30
8.04
0
VERTEX
10
7.82954
20
10.2395
30
8.04
0
VERTEX
10
7.82954
20
10.2412
30
8.04
0
VERTEX
10
7.83492
20
10.2466
30
8.04
0
VERTEX
10
7.84209
20
10.2493
30
8.04
0
VERTEX
10
7.84568
20
10.2493
30
8.04
0
VERTEX
10
7.84747
20
10.2511
30
8.04
0
VERTEX
10
7.85105
20
10.252
30
8.04
0
VERTEX
10
7.85374
20
10.2556
30
8.04
0
VERTEX
10
7.85554
20
10.2574
30
8.04
0
VERTEX
10
7.86092
20
10.2708
30
8.04
0
VERTEX
10
7.86361
20
10.2744
30
8.04
0
VERTEX
10
7.86361
20
10.2816
30
8.04
0
VERTEX
10
7.85912
20
10.2959
30
8.04
0
VERTEX
10
7.85733
20
10.3031
30
8.04
0
VERTEX
10
7.85823
20
10.3318
30
8.04
0
VERTEX
10
7.85733
20
10.3461
30
8.04
0
VERTEX
10
7.85733
20
10.3497
30
8.04
0
VERTEX
10
7.85285
20
10.3569
30
8.04
0
VERTEX
10
7.85195
20
10.3605
30
8.04
0
VERTEX
10
7.85016
20
10.3623
30
8.04
0
VERTEX
10
7.84836
20
10.3623
30
8.04
0
VERTEX
10
7.84478
20
10.365
30
8.04
0
VERTEX
10
7.81609
20
10.3632
30
8.04
0
VERTEX
10
7.8143
20
10.3632
30
8.04
0
VERTEX
10
7.8125
20
10.3614
30
8.04
0
VERTEX
10
7.8125
20
10.3596
30
8.04
0
VERTEX
10
7.80533
20
10.3551
30
8.04
0
VERTEX
10
7.80174
20
10.3524
30
8.04
0
VERTEX
10
7.80085
20
10.3506
30
8.04
0
VERTEX
10
7.80174
20
10.3488
30
8.04
0
VERTEX
10
7.80085
20
10.3417
30
8.04
0
VERTEX
10
7.80264
20
10.3345
30
8.04
0
VERTEX
10
7.80264
20
10.3201
30
8.04
0
VERTEX
10
7.8125
20
10.3067
30
8.04
0
VERTEX
10
7.81699
20
10.2932
30
8.04
0
VERTEX
10
7.81788
20
10.2789
30
8.04
0
VERTEX
10
7.81699
20
10.2717
30
8.04
0
VERTEX
10
7.81609
20
10.2681
30
8.04
0
VERTEX
10
7.8143
20
10.2663
30
8.04
0
VERTEX
10
7.8143
20
10.2646
30
8.04
0
VERTEX
10
7.81161
20
10.2601
30
8.04
0
VERTEX
10
7.80533
20
10.2556
30
8.04
0
VERTEX
10
7.80354
20
10.2538
30
8.04
0
VERTEX
10
7.80354
20
10.252
30
8.04
0
VERTEX
10
7.79995
20
10.2502
30
8.04
0
VERTEX
10
7.78561
20
10.2493
30
8.04
0
VERTEX
10
7.77843
20
10.2484
30
8.04
0
VERTEX
10
7.77485
20
10.2475
30
8.04
0
VERTEX
10
7.76857
20
10.2412
30
8.04
0
VERTEX
10
7.76499
20
10.2395
30
8.04
0
VERTEX
10
7.75781
20
10.2323
30
8.04
0
VERTEX
10
7.74526
20
10.2215
30
8.04
0
VERTEX
10
7.73809
20
10.2188
30
8.04
0
VERTEX
10
7.73181
20
10.2126
30
8.04
0
VERTEX
10
7.73002
20
10.209
30
8.04
0
VERTEX
10
7.73002
20
10.2018
30
8.04
0
VERTEX
10
7.73002
20
10.1982
30
8.04
0
SEQEND
0
POLYLINE
62
227
66
1
70
1
3
endoplasmic_reticulum
0
VERTEX
10
8.05636
20
10.2825
30
8.04
0
VERTEX
10
8.05816
20
10.2681
30
8.04
0
VERTEX
10
8.06085
20
10.2646
30
8.04
0
VERTEX
10
8.06802
20
10.2655
30
8.04
0
VERTEX
10
8.07519
20
10.269
30
8.04
0
VERTEX
10
8.08057
20
10.2744
30
8.04
0
VERTEX
10
8.08416
20
10.278
30
8.04
0
VERTEX
10
8.08685
20
10.2843
30
8.04
0
VERTEX
10
8.08774
20
10.2915
30
8.04
0
VERTEX
10
8.08685
20
10.2986
30
8.04
0
VERTEX
10
8.08595
20
10.3004
30
8.04
0
VERTEX
10
8.0716
20
10.3022
30
8.04
0
VERTEX
10
8.06802
20
10.3013
30
8.04
0
VERTEX
10
8.06085
20
10.2968
30
8.04
0
VERTEX
10
8.05726
20
10.2932
30
8.04
0
VERTEX
10
8.05636
20
10.2861
30
8.04
0
VERTEX
10
8.05636
20
10.2834
30
8.04
0
SEQEND
0
POLYLINE
62
227
66
1
70
1
3
endoplasmic_reticulum
0
VERTEX
10
8.10119
20
10.2143
30
8.04
0
VERTEX
10
8.10298
20
10.2108
30
8.04
0
VERTEX
10
8.10657
20
10.209
30
8.04
0
VERTEX
10
8.10926
20
10.2018
30
8.04
0
VERTEX
10
8.11912
20
10.1901
30
8.04
0
VERTEX
10
8.1245
20
10.1848
30
8.04
0
VERTEX
10
8.13167
20
10.1803
30
8.04
0
VERTEX
10
8.13795
20
10.174
30
8.04
0
VERTEX
10
8.14243
20
10.1677
30
8.04
0
VERTEX
10
8.14602
20
10.1668
30
8.04
0
VERTEX
10
8.15319
20
10.1606
30
8.04
0
VERTEX
10
8.16395
20
10.1489
30
8.04
0
VERTEX
10
8.16664
20
10.1462
30
8.04
0
VERTEX
10
8.17381
20
10.1462
30
8.04
0
VERTEX
10
8.1774
20
10.1471
30
8.04
0
VERTEX
10
8.17919
20
10.1507
30
8.04
0
VERTEX
10
8.18547
20
10.1552
30
8.04
0
VERTEX
10
8.18905
20
10.1579
30
8.04
0
VERTEX
10
8.19264
20
10.1588
30
8.04
0
VERTEX
10
8.19622
20
10.1615
30
8.04
0
VERTEX
10
8.19981
20
10.1615
30
8.04
0
VERTEX
10
8.20698
20
10.165
30
8.04
0
VERTEX
10
8.21416
20
10.165
30
8.04
0
VERTEX
10
8.21774
20
10.1659
30
8.04
0
VERTEX
10
8.21864
20
10.1677
30
8.04
0
VERTEX
10
8.22043
20
10.1677
30
8.04
0
VERTEX
10
8.2276
20
10.174
30
8.04
0
VERTEX
10
8.2294
20
10.1812
30
8.04
0
VERTEX
10
8.2285
20
10.1883
30
8.04
0
VERTEX
10
8.2276
20
10.1919
30
8.04
0
VERTEX
10
8.21864
20
10.2054
30
8.04
0
VERTEX
10
8.21236
20
10.2099
30
8.04
0
VERTEX
10
8.21057
20
10.2117
30
8.04
0
VERTEX
10
8.20878
20
10.2117
30
8.04
0
VERTEX
10
8.20519
20
10.2143
30
8.04
0
VERTEX
10
8.19802
20
10.2161
30
8.04
0
VERTEX
10
8.19443
20
10.2161
30
8.04
0
VERTEX
10
8.19085
20
10.2188
30
8.04
0
VERTEX
10
8.18726
20
10.2197
30
8.04
0
VERTEX
10
8.18547
20
10.2215
30
8.04
0
VERTEX
10
8.17829
20
10.2233
30
8.04
0
VERTEX
10
8.1765
20
10.2233
30
8.04
0
VERTEX
10
8.17471
20
10.2251
30
8.04
0
VERTEX
10
8.16036
20
10.2287
30
8.04
0
VERTEX
10
8.15678
20
10.2305
30
8.04
0
VERTEX
10
8.15588
20
10.2323
30
8.04
0
VERTEX
10
8.14154
20
10.2368
30
8.04
0
VERTEX
10
8.13795
20
10.2368
30
8.04
0
VERTEX
10
8.13436
20
10.2386
30
8.04
0
VERTEX
10
8.13078
20
10.2386
30
8.04
0
VERTEX
10
8.1236
20
10.2412
30
8.04
0
VERTEX
10
8.12181
20
10.2412
30
8.04
0
VERTEX
10
8.12002
20
10.243
30
8.04
0
VERTEX
10
8.11285
20
10.2395
30
8.04
0
VERTEX
10
8.10926
20
10.2359
30
8.04
0
VERTEX
10
8.10567
20
10.2341
30
8.04
0
VERTEX
10
8.10209
20
10.2269
30
8.04
0
VERTEX
10
8.10119
20
10.2197
30
8.04
0
VERTEX
10
8.10119
20
10.2161
30
8.04
0
VERTEX
10
8.10119
20
10.2152
30
8.04
0
SEQEND
0
POLYLINE
62
227
66
1
70
1
3
endoplasmic_reticulum
0
VERTEX
10
8.1514
20
10.0861
30
8.04
0
VERTEX
10
8.15588
20
10.0799
30
8.04
0
VERTEX
10
8.15947
20
10.0772
30
8.04
0
VERTEX
10
8.16036
20
10.0736
30
8.04
0
VERTEX
10
8.16754
20
10.0691
30
8.04
0
VERTEX
10
8.17112
20
10.0664
30
8.04
0
VERTEX
10
8.17829
20
10.0664
30
8.04
0
VERTEX
10
8.18188
20
10.0691
30
8.04
0
VERTEX
10
8.18905
20
10.0718
30
8.04
0
VERTEX
10
8.19264
20
10.0754
30
8.04
0
VERTEX
10
8.19443
20
10.0826
30
8.04
0
VERTEX
10
8.19891
20
10.087
30
8.04
0
VERTEX
10
8.2016
20
10.0906
30
8.04
0
VERTEX
10
8.2016
20
10.0924
30
8.04
0
VERTEX
10
8.2034
20
10.0942
30
8.04
0
VERTEX
10
8.20429
20
10.0978
30
8.04
0
VERTEX
10
8.20429
20
10.0996
30
8.04
0
VERTEX
10
8.21147
20
10.1059
30
8.04
0
VERTEX
10
8.21147
20
10.1202
30
8.04
0
VERTEX
10
8.21147
20
10.1274
30
8.04
0
VERTEX
10
8.21147
20
10.131
30
8.04
0
VERTEX
10
8.20967
20
10.1328
30
8.04
0
VERTEX
10
8.18098
20
10.1319
30
8.04
0
VERTEX
10
8.1774
20
10.1346
30
8.04
0
VERTEX
10
8.1756
20
10.1346
30
8.04
0
VERTEX
10
8.17202
20
10.1372
30
8.04
0
VERTEX
10
8.16843
20
10.1381
30
8.04
0
VERTEX
10
8.15409
20
10.1274
30
8.04
0
VERTEX
10
8.15319
20
10.1238
30
8.04
0
VERTEX
10
8.15498
20
10.1229
30
8.04
0
VERTEX
10
8.15229
20
10.1086
30
8.04
0
VERTEX
10
8.1514
20
10.0942
30
8.04
0
VERTEX
10
8.1514
20
10.087
30
8.04
0
SEQEND
0
ENDSEC
0
EOF
