0
SECTION
2
ENTITIES
0
POLYLINE
62
31
66
1
70
1
3
contour
0
VERTEX
10
9.8784
20
7.88055
30
3.32
0
VERTEX
10
9.88062
20
7.86281
30
3.32
0
VERTEX
10
9.88284
20
7.85394
30
3.32
0
VERTEX
10
9.91166
20
7.82511
30
3.32
0
VERTEX
10
9.92718
20
7.81403
30
3.32
0
VERTEX
10
9.93162
20
7.81403
30
3.32
0
VERTEX
10
9.93827
20
7.80737
30
3.32
0
VERTEX
10
9.95601
20
7.80516
30
3.32
0
VERTEX
10
9.96488
20
7.79851
30
3.32
0
VERTEX
10
9.97375
20
7.79629
30
3.32
0
VERTEX
10
9.97597
20
7.79185
30
3.32
0
VERTEX
10
9.99371
20
7.78742
30
3.32
0
VERTEX
10
10.0114
20
7.77633
30
3.32
0
VERTEX
10
10.0292
20
7.76968
30
3.32
0
VERTEX
10
10.0624
20
7.74751
30
3.32
0
VERTEX
10
10.0713
20
7.74085
30
3.32
0
VERTEX
10
10.0757
20
7.73642
30
3.32
0
VERTEX
10
10.0846
20
7.7342
30
3.32
0
VERTEX
10
10.1024
20
7.72311
30
3.32
0
VERTEX
10
10.1112
20
7.72311
30
3.32
0
VERTEX
10
10.1201
20
7.71868
30
3.32
0
VERTEX
10
10.1556
20
7.71868
30
3.32
0
VERTEX
10
10.1911
20
7.72533
30
3.32
0
VERTEX
10
10.2088
20
7.72977
30
3.32
0
VERTEX
10
10.2177
20
7.72977
30
3.32
0
VERTEX
10
10.2864
20
7.75859
30
3.32
0
VERTEX
10
10.2931
20
7.76524
30
3.32
0
VERTEX
10
10.2975
20
7.76524
30
3.32
0
VERTEX
10
10.3019
20
7.76968
30
3.32
0
VERTEX
10
10.3064
20
7.76968
30
3.32
0
VERTEX
10
10.3374
20
7.79851
30
3.32
0
VERTEX
10
10.3507
20
7.81624
30
3.32
0
VERTEX
10
10.3574
20
7.8229
30
3.32
0
VERTEX
10
10.3618
20
7.82511
30
3.32
0
VERTEX
10
10.364
20
7.83398
30
3.32
0
VERTEX
10
10.3751
20
7.8495
30
3.32
0
VERTEX
10
10.3795
20
7.85837
30
3.32
0
VERTEX
10
10.3795
20
7.86281
30
3.32
0
VERTEX
10
10.384
20
7.86724
30
3.32
0
VERTEX
10
10.3951
20
7.90272
30
3.32
0
VERTEX
10
10.4017
20
7.9382
30
3.32
0
VERTEX
10
10.4017
20
8.00916
30
3.32
0
VERTEX
10
10.3995
20
8.02689
30
3.32
0
VERTEX
10
10.3928
20
8.03576
30
3.32
0
VERTEX
10
10.3906
20
8.07124
30
3.32
0
VERTEX
10
10.3884
20
8.08898
30
3.32
0
VERTEX
10
10.384
20
8.09785
30
3.32
0
VERTEX
10
10.3817
20
8.11559
30
3.32
0
VERTEX
10
10.3773
20
8.12002
30
3.32
0
VERTEX
10
10.3707
20
8.13776
30
3.32
0
VERTEX
10
10.3684
20
8.14663
30
3.32
0
VERTEX
10
10.3574
20
8.16437
30
3.32
0
VERTEX
10
10.3574
20
8.16881
30
3.32
0
VERTEX
10
10.3418
20
8.18433
30
3.32
0
VERTEX
10
10.3396
20
8.1932
30
3.32
0
VERTEX
10
10.333
20
8.19985
30
3.32
0
VERTEX
10
10.333
20
8.20428
30
3.32
0
VERTEX
10
10.3019
20
8.23533
30
3.32
0
VERTEX
10
10.2886
20
8.24863
30
3.32
0
VERTEX
10
10.2797
20
8.25528
30
3.32
0
VERTEX
10
10.2753
20
8.25528
30
3.32
0
VERTEX
10
10.2598
20
8.26859
30
3.32
0
VERTEX
10
10.231
20
8.30185
30
3.32
0
VERTEX
10
10.2154
20
8.31959
30
3.32
0
VERTEX
10
10.211
20
8.32402
30
3.32
0
VERTEX
10
10.2088
20
8.33289
30
3.32
0
VERTEX
10
10.1977
20
8.34841
30
3.32
0
VERTEX
10
10.1866
20
8.3595
30
3.32
0
VERTEX
10
10.1844
20
8.36837
30
3.32
0
VERTEX
10
10.1667
20
8.37946
30
3.32
0
VERTEX
10
10.16
20
8.38833
30
3.32
0
VERTEX
10
10.1423
20
8.39941
30
3.32
0
VERTEX
10
10.1334
20
8.40385
30
3.32
0
VERTEX
10
10.129
20
8.40828
30
3.32
0
VERTEX
10
10.1201
20
8.4105
30
3.32
0
VERTEX
10
10.0913
20
8.43489
30
3.32
0
VERTEX
10
10.0868
20
8.44154
30
3.32
0
VERTEX
10
10.0713
20
8.45485
30
3.32
0
VERTEX
10
10.0669
20
8.45707
30
3.32
0
VERTEX
10
10.0669
20
8.4615
30
3.32
0
VERTEX
10
10.0514
20
8.47702
30
3.32
0
VERTEX
10
10.0403
20
8.45928
30
3.32
0
VERTEX
10
10.0247
20
8.4482
30
3.32
0
VERTEX
10
10.0159
20
8.44154
30
3.32
0
VERTEX
10
10.0114
20
8.43711
30
3.32
0
VERTEX
10
9.99371
20
8.43046
30
3.32
0
VERTEX
10
9.98484
20
8.43046
30
3.32
0
VERTEX
10
9.97597
20
8.42602
30
3.32
0
VERTEX
10
9.97597
20
8.42159
30
3.32
0
VERTEX
10
9.9671
20
8.41937
30
3.32
0
VERTEX
10
9.95823
20
8.4105
30
3.32
0
VERTEX
10
9.95601
20
8.40163
30
3.32
0
VERTEX
10
9.94936
20
8.39498
30
3.32
0
VERTEX
10
9.94714
20
8.38611
30
3.32
0
VERTEX
10
9.94049
20
8.37724
30
3.32
0
VERTEX
10
9.94049
20
8.37281
30
3.32
0
VERTEX
10
9.9294
20
8.35507
30
3.32
0
VERTEX
10
9.92497
20
8.31959
30
3.32
0
VERTEX
10
9.92497
20
8.28411
30
3.32
0
VERTEX
10
9.92053
20
8.24863
30
3.32
0
VERTEX
10
9.90723
20
8.21315
30
3.32
0
VERTEX
10
9.90058
20
8.20428
30
3.32
0
VERTEX
10
9.89392
20
8.16881
30
3.32
0
VERTEX
10
9.88727
20
8.15107
30
3.32
0
VERTEX
10
9.88284
20
8.11559
30
3.32
0
VERTEX
10
9.88949
20
8.04463
30
3.32
0
VERTEX
10
9.8784
20
7.90272
30
3.32
0
VERTEX
10
9.8784
20
7.88498
30
3.32
0
VERTEX
10
9.8784
20
7.88277
30
3.32
0
SEQEND
0
POLYLINE
62
31
66
1
70
1
3
contour
0
VERTEX
10
10.2241
20
8.80654
30
3.32
0
VERTEX
10
10.2295
20
8.80111
30
3.32
0
VERTEX
10
10.2349
20
8.75766
30
3.32
0
VERTEX
10
10.2567
20
8.73866
30
3.32
0
VERTEX
10
10.2567
20
8.73322
30
3.32
0
VERTEX
10
10.3354
20
8.66805
30
3.32
0
VERTEX
10
10.3544
20
8.65176
30
3.32
0
VERTEX
10
10.3979
20
8.63546
30
3.32
0
VERTEX
10
10.4033
20
8.63003
30
3.32
0
VERTEX
10
10.425
20
8.63003
30
3.32
0
VERTEX
10
10.5119
20
8.64633
30
3.32
0
VERTEX
10
10.5554
20
8.65719
30
3.32
0
VERTEX
10
10.5771
20
8.66262
30
3.32
0
VERTEX
10
10.6205
20
8.66262
30
3.32
0
VERTEX
10
10.6423
20
8.66534
30
3.32
0
VERTEX
10
10.6857
20
8.67891
30
3.32
0
VERTEX
10
10.6911
20
8.68434
30
3.32
0
VERTEX
10
10.6966
20
8.68434
30
3.32
0
VERTEX
10
10.7129
20
8.70607
30
3.32
0
VERTEX
10
10.721
20
8.72779
30
3.32
0
VERTEX
10
10.7264
20
8.73322
30
3.32
0
VERTEX
10
10.7292
20
8.74409
30
3.32
0
VERTEX
10
10.7346
20
8.7468
30
3.32
0
VERTEX
10
10.7373
20
8.75766
30
3.32
0
VERTEX
10
10.7509
20
8.77939
30
3.32
0
VERTEX
10
10.7509
20
8.78482
30
3.32
0
VERTEX
10
10.7563
20
8.79025
30
3.32
0
VERTEX
10
10.7563
20
8.79568
30
3.32
0
VERTEX
10
10.7699
20
8.81741
30
3.32
0
VERTEX
10
10.778
20
8.82827
30
3.32
0
VERTEX
10
10.7808
20
8.8337
30
3.32
0
VERTEX
10
10.7862
20
8.8337
30
3.32
0
VERTEX
10
10.8161
20
8.87443
30
3.32
0
VERTEX
10
10.8161
20
8.8853
30
3.32
0
VERTEX
10
10.8296
20
8.90702
30
3.32
0
VERTEX
10
10.8378
20
8.91788
30
3.32
0
VERTEX
10
10.8351
20
8.96133
30
3.32
0
VERTEX
10
10.7998
20
9.00206
30
3.32
0
VERTEX
10
10.7808
20
9.02107
30
3.32
0
VERTEX
10
10.759
20
9.03465
30
3.32
0
VERTEX
10
10.7482
20
9.0428
30
3.32
0
VERTEX
10
10.7482
20
9.04823
30
3.32
0
VERTEX
10
10.7264
20
9.06181
30
3.32
0
VERTEX
10
10.6911
20
9.10254
30
3.32
0
VERTEX
10
10.6857
20
9.10797
30
3.32
0
VERTEX
10
10.6857
20
9.1134
30
3.32
0
VERTEX
10
10.6667
20
9.13241
30
3.32
0
VERTEX
10
10.6667
20
9.14327
30
3.32
0
VERTEX
10
10.6586
20
9.15142
30
3.32
0
VERTEX
10
10.6151
20
9.15957
30
3.32
0
VERTEX
10
10.5282
20
9.165
30
3.32
0
VERTEX
10
10.4848
20
9.15957
30
3.32
0
VERTEX
10
10.463
20
9.15957
30
3.32
0
VERTEX
10
10.3761
20
9.1297
30
3.32
0
VERTEX
10
10.3354
20
9.10254
30
3.32
0
VERTEX
10
10.3164
20
9.08896
30
3.32
0
VERTEX
10
10.3137
20
9.08353
30
3.32
0
VERTEX
10
10.3082
20
9.08353
30
3.32
0
VERTEX
10
10.2974
20
9.07267
30
3.32
0
VERTEX
10
10.2811
20
9.02922
30
3.32
0
VERTEX
10
10.2757
20
9.0075
30
3.32
0
VERTEX
10
10.2757
20
8.98577
30
3.32
0
VERTEX
10
10.2757
20
8.97491
30
3.32
0
VERTEX
10
10.2702
20
8.96948
30
3.32
0
VERTEX
10
10.2702
20
8.94775
30
3.32
0
VERTEX
10
10.2567
20
8.92603
30
3.32
0
VERTEX
10
10.2485
20
8.91517
30
3.32
0
VERTEX
10
10.2431
20
8.89344
30
3.32
0
VERTEX
10
10.2268
20
8.87172
30
3.32
0
VERTEX
10
10.2241
20
8.82827
30
3.32
0
VERTEX
10
10.2241
20
8.80926
30
3.32
0
SEQEND
0
POLYLINE
62
31
66
1
70
1
3
contour
0
VERTEX
10
10.5548
20
7.94464
30
3.32
0
VERTEX
10
10.5679
20
7.91857
30
3.32
0
VERTEX
10
10.5776
20
7.90879
30
3.32
0
VERTEX
10
10.5809
20
7.89576
30
3.32
0
VERTEX
10
10.5874
20
7.88924
30
3.32
0
VERTEX
10
10.5874
20
7.88272
30
3.32
0
VERTEX
10
10.5972
20
7.86969
30
3.32
0
VERTEX
10
10.6005
20
7.85665
30
3.32
0
VERTEX
10
10.6102
20
7.84362
30
3.32
0
VERTEX
10
10.6135
20
7.83058
30
3.32
0
VERTEX
10
10.6265
20
7.81755
30
3.32
0
VERTEX
10
10.6396
20
7.79474
30
3.32
0
VERTEX
10
10.6428
20
7.78822
30
3.32
0
VERTEX
10
10.6493
20
7.78822
30
3.32
0
VERTEX
10
10.6689
20
7.76867
30
3.32
0
VERTEX
10
10.721
20
7.76541
30
3.32
0
VERTEX
10
10.7471
20
7.76867
30
3.32
0
VERTEX
10
10.7536
20
7.77519
30
3.32
0
VERTEX
10
10.7666
20
7.77845
30
3.32
0
VERTEX
10
10.7764
20
7.78822
30
3.32
0
VERTEX
10
10.7829
20
7.78822
30
3.32
0
VERTEX
10
10.796
20
7.81429
30
3.32
0
VERTEX
10
10.796
20
7.82081
30
3.32
0
VERTEX
10
10.8025
20
7.82733
30
3.32
0
VERTEX
10
10.7992
20
7.9316
30
3.32
0
VERTEX
10
10.7895
20
7.94464
30
3.32
0
VERTEX
10
10.7895
20
7.95116
30
3.32
0
VERTEX
10
10.7438
20
7.98374
30
3.32
0
VERTEX
10
10.7178
20
7.99678
30
3.32
0
VERTEX
10
10.7112
20
7.99678
30
3.32
0
VERTEX
10
10.6884
20
8.01307
30
3.32
0
VERTEX
10
10.6624
20
8.02285
30
3.32
0
VERTEX
10
10.6363
20
8.03914
30
3.32
0
VERTEX
10
10.5842
20
8.03588
30
3.32
0
VERTEX
10
10.5744
20
8.00981
30
3.32
0
VERTEX
10
10.5581
20
7.98374
30
3.32
0
VERTEX
10
10.5548
20
7.95767
30
3.32
0
VERTEX
10
10.5548
20
7.9479
30
3.32
0
SEQEND
0
POLYLINE
62
224
66
1
70
1
3
mitochondrion
0
VERTEX
10
10.0699
20
8.05213
30
3.32
0
VERTEX
10
10.0803
20
8.01868
30
3.32
0
VERTEX
10
10.0803
20
8.01031
30
3.32
0
VERTEX
10
10.0991
20
7.97686
30
3.32
0
VERTEX
10
10.1159
20
7.96013
30
3.32
0
VERTEX
10
10.1305
20
7.94759
30
3.32
0
VERTEX
10
10.1431
20
7.93086
30
3.32
0
VERTEX
10
10.1598
20
7.91831
30
3.32
0
VERTEX
10
10.1911
20
7.90577
30
3.32
0
VERTEX
10
10.2246
20
7.90368
30
3.32
0
VERTEX
10
10.2581
20
7.90577
30
3.32
0
VERTEX
10
10.2748
20
7.90577
30
3.32
0
VERTEX
10
10.2831
20
7.90577
30
3.32
0
VERTEX
10
10.2873
20
7.90577
30
3.32
0
VERTEX
10
10.3041
20
7.91622
30
3.32
0
VERTEX
10
10.3166
20
7.92877
30
3.32
0
VERTEX
10
10.3208
20
7.93295
30
3.32
0
VERTEX
10
10.325
20
7.94968
30
3.32
0
VERTEX
10
10.325
20
7.98313
30
3.32
0
VERTEX
10
10.325
20
7.99986
30
3.32
0
VERTEX
10
10.3208
20
8.01659
30
3.32
0
VERTEX
10
10.3124
20
8.03331
30
3.32
0
VERTEX
10
10.3124
20
8.0375
30
3.32
0
VERTEX
10
10.3082
20
8.04168
30
3.32
0
VERTEX
10
10.3061
20
8.05004
30
3.32
0
VERTEX
10
10.2999
20
8.05631
30
3.32
0
VERTEX
10
10.2978
20
8.06468
30
3.32
0
VERTEX
10
10.2915
20
8.07095
30
3.32
0
VERTEX
10
10.2852
20
8.08768
30
3.32
0
VERTEX
10
10.2748
20
8.1044
30
3.32
0
VERTEX
10
10.2539
20
8.1274
30
3.32
0
VERTEX
10
10.2455
20
8.1274
30
3.32
0
VERTEX
10
10.2434
20
8.13577
30
3.32
0
VERTEX
10
10.2288
20
8.14622
30
3.32
0
VERTEX
10
10.2204
20
8.1525
30
3.32
0
VERTEX
10
10.187
20
8.15668
30
3.32
0
VERTEX
10
10.1702
20
8.15668
30
3.32
0
VERTEX
10
10.1368
20
8.14831
30
3.32
0
VERTEX
10
10.1284
20
8.14831
30
3.32
0
VERTEX
10
10.1242
20
8.14831
30
3.32
0
VERTEX
10
10.1221
20
8.14413
30
3.32
0
VERTEX
10
10.118
20
8.14413
30
3.32
0
VERTEX
10
10.1117
20
8.13577
30
3.32
0
VERTEX
10
10.095
20
8.1274
30
3.32
0
VERTEX
10
10.0824
20
8.11277
30
3.32
0
VERTEX
10
10.0761
20
8.1044
30
3.32
0
VERTEX
10
10.0761
20
8.10022
30
3.32
0
VERTEX
10
10.0699
20
8.09186
30
3.32
0
VERTEX
10
10.0699
20
8.0584
30
3.32
0
VERTEX
10
10.0699
20
8.05422
30
3.32
0
SEQEND
0
POLYLINE
62
227
66
1
70
1
3
endoplasmic_reticulum
0
VERTEX
10
10.2176
20
8.23754
30
3.32
0
VERTEX
10
10.2213
20
8.22261
30
3.32
0
VERTEX
10
10.2232
20
8.21514
30
3.32
0
VERTEX
10
10.2232
20
8.21141
30
3.32
0
VERTEX
10
10.2325
20
8.19648
30
3.32
0
VERTEX
10
10.2624
20
8.18155
30
3.32
0
VERTEX
10
10.2643
20
8.17969
30
3.32
0
VERTEX
10
10.2792
20
8.18342
30
3.32
0
VERTEX
10
10.2867
20
8.18715
30
3.32
0
VERTEX
10
10.2885
20
8.20208
30
3.32
0
VERTEX
10
10.2867
20
8.21701
30
3.32
0
VERTEX
10
10.2867
20
8.22074
30
3.32
0
VERTEX
10
10.2829
20
8.22448
30
3.32
0
VERTEX
10
10.2792
20
8.22448
30
3.32
0
VERTEX
10
10.2699
20
8.23754
30
3.32
0
VERTEX
10
10.2605
20
8.24687
30
3.32
0
VERTEX
10
10.2568
20
8.24687
30
3.32
0
VERTEX
10
10.2493
20
8.25434
30
3.32
0
VERTEX
10
10.2344
20
8.25993
30
3.32
0
VERTEX
10
10.2288
20
8.2674
30
3.32
0
VERTEX
10
10.2251
20
8.26927
30
3.32
0
VERTEX
10
10.2176
20
8.25434
30
3.32
0
VERTEX
10
10.2176
20
8.23941
30
3.32
0
SEQEND
0
POLYLINE
62
227
66
1
70
1
3
endoplasmic_reticulum
0
VERTEX
10
9.99739
20
8.18902
30
3.32
0
VERTEX
10
10.0049
20
8.18155
30
3.32
0
VERTEX
10
10.0123
20
8.17782
30
3.32
0
VERTEX
10
10.0123
20
8.17035
30
3.32
0
VERTEX
10
10.0179
20
8.16476
30
3.32
0
VERTEX
10
10.0254
20
8.16662
30
3.32
0
VERTEX
10
10.0534
20
8.18342
30
3.32
0
VERTEX
10
10.0683
20
8.18902
30
3.32
0
VERTEX
10
10.0832
20
8.20021
30
3.32
0
VERTEX
10
10.0851
20
8.20395
30
3.32
0
VERTEX
10
10.0888
20
8.20395
30
3.32
0
VERTEX
10
10.0982
20
8.21328
30
3.32
0
VERTEX
10
10.1056
20
8.21514
30
3.32
0
VERTEX
10
10.1094
20
8.21888
30
3.32
0
VERTEX
10
10.1094
20
8.22261
30
3.32
0
VERTEX
10
10.0944
20
8.23567
30
3.32
0
VERTEX
10
10.0795
20
8.24314
30
3.32
0
VERTEX
10
10.0646
20
8.24314
30
3.32
0
VERTEX
10
10.0608
20
8.24314
30
3.32
0
VERTEX
10
10.0515
20
8.23007
30
3.32
0
VERTEX
10
10.044
20
8.23007
30
3.32
0
VERTEX
10
10.031
20
8.22448
30
3.32
0
VERTEX
10
10.0235
20
8.21888
30
3.32
0
VERTEX
10
10.0198
20
8.21888
30
3.32
0
VERTEX
10
10.0161
20
8.21141
30
3.32
0
VERTEX
10
10.0086
20
8.20768
30
3.32
0
VERTEX
10
9.99739
20
8.19275
30
3.32
0
VERTEX
10
9.99739
20
8.19088
30
3.32
0
SEQEND
0
POLYLINE
62
227
66
1
70
1
3
endoplasmic_reticulum
0
VERTEX
10
10.0758
20
8.28233
30
3.32
0
VERTEX
10
10.1038
20
8.2618
30
3.32
0
VERTEX
10
10.1168
20
8.24874
30
3.32
0
VERTEX
10
10.1206
20
8.24874
30
3.32
0
VERTEX
10
10.1262
20
8.24314
30
3.32
0
VERTEX
10
10.128
20
8.23941
30
3.32
0
VERTEX
10
10.143
20
8.23941
30
3.32
0
VERTEX
10
10.1579
20
8.24314
30
3.32
0
VERTEX
10
10.1654
20
8.24687
30
3.32
0
VERTEX
10
10.1672
20
8.2618
30
3.32
0
VERTEX
10
10.1616
20
8.26927
30
3.32
0
VERTEX
10
10.1542
20
8.27113
30
3.32
0
VERTEX
10
10.1467
20
8.27673
30
3.32
0
VERTEX
10
10.1318
20
8.28233
30
3.32
0
VERTEX
10
10.1243
20
8.28793
30
3.32
0
VERTEX
10
10.1243
20
8.29166
30
3.32
0
VERTEX
10
10.1168
20
8.29726
30
3.32
0
VERTEX
10
10.1131
20
8.30472
30
3.32
0
VERTEX
10
10.0982
20
8.31592
30
3.32
0
VERTEX
10
10.0851
20
8.30472
30
3.32
0
VERTEX
10
10.0795
20
8.29726
30
3.32
0
VERTEX
10
10.0758
20
8.28419
30
3.32
0
SEQEND
0
ENDSEC
0
EOF
