0
SECTION
2
ENTITIES
0
POLYLINE
62
31
66
1
70
1
3
contour
0
VERTEX
10
9.78527
20
8.16881
30
3.52
0
VERTEX
10
9.78971
20
8.16437
30
3.52
0
VERTEX
10
9.79192
20
8.12889
30
3.52
0
VERTEX
10
9.80523
20
8.05794
30
3.52
0
VERTEX
10
9.80523
20
8.0535
30
3.52
0
VERTEX
10
9.80966
20
8.04907
30
3.52
0
VERTEX
10
9.81188
20
8.0402
30
3.52
0
VERTEX
10
9.82519
20
8.02246
30
3.52
0
VERTEX
10
9.84071
20
8.00916
30
3.52
0
VERTEX
10
9.84958
20
8.00472
30
3.52
0
VERTEX
10
9.86288
20
7.9892
30
3.52
0
VERTEX
10
9.87175
20
7.98476
30
3.52
0
VERTEX
10
9.87618
20
7.98476
30
3.52
0
VERTEX
10
9.89392
20
7.97368
30
3.52
0
VERTEX
10
9.91166
20
7.96703
30
3.52
0
VERTEX
10
9.9294
20
7.95594
30
3.52
0
VERTEX
10
9.96488
20
7.94263
30
3.52
0
VERTEX
10
10.0004
20
7.93598
30
3.52
0
VERTEX
10
10.0358
20
7.93376
30
3.52
0
VERTEX
10
10.0536
20
7.93376
30
3.52
0
VERTEX
10
10.0891
20
7.92268
30
3.52
0
VERTEX
10
10.1046
20
7.90937
30
3.52
0
VERTEX
10
10.1223
20
7.90272
30
3.52
0
VERTEX
10
10.1312
20
7.89829
30
3.52
0
VERTEX
10
10.1489
20
7.89829
30
3.52
0
VERTEX
10
10.1578
20
7.9005
30
3.52
0
VERTEX
10
10.1622
20
7.9005
30
3.52
0
VERTEX
10
10.1644
20
7.90494
30
3.52
0
VERTEX
10
10.1733
20
7.90716
30
3.52
0
VERTEX
10
10.1888
20
7.91824
30
3.52
0
VERTEX
10
10.1933
20
7.92268
30
3.52
0
VERTEX
10
10.211
20
7.92711
30
3.52
0
VERTEX
10
10.2287
20
7.93598
30
3.52
0
VERTEX
10
10.2332
20
7.93598
30
3.52
0
VERTEX
10
10.2421
20
7.94485
30
3.52
0
VERTEX
10
10.2753
20
7.96481
30
3.52
0
VERTEX
10
10.2797
20
7.96481
30
3.52
0
VERTEX
10
10.2931
20
7.98255
30
3.52
0
VERTEX
10
10.3108
20
8.01803
30
3.52
0
VERTEX
10
10.3152
20
8.0535
30
3.52
0
VERTEX
10
10.3086
20
8.12446
30
3.52
0
VERTEX
10
10.2931
20
8.15994
30
3.52
0
VERTEX
10
10.2886
20
8.16881
30
3.52
0
VERTEX
10
10.2886
20
8.17324
30
3.52
0
VERTEX
10
10.2842
20
8.17768
30
3.52
0
VERTEX
10
10.282
20
8.18655
30
3.52
0
VERTEX
10
10.2687
20
8.20428
30
3.52
0
VERTEX
10
10.262
20
8.21315
30
3.52
0
VERTEX
10
10.2598
20
8.23089
30
3.52
0
VERTEX
10
10.2598
20
8.23976
30
3.52
0
VERTEX
10
10.2531
20
8.2442
30
3.52
0
VERTEX
10
10.2332
20
8.27524
30
3.52
0
VERTEX
10
10.2199
20
8.29076
30
3.52
0
VERTEX
10
10.2132
20
8.29963
30
3.52
0
VERTEX
10
10.2088
20
8.30407
30
3.52
0
VERTEX
10
10.2066
20
8.31294
30
3.52
0
VERTEX
10
10.2021
20
8.31515
30
3.52
0
VERTEX
10
10.2021
20
8.31959
30
3.52
0
VERTEX
10
10.1955
20
8.32624
30
3.52
0
VERTEX
10
10.1911
20
8.34398
30
3.52
0
VERTEX
10
10.1888
20
8.35285
30
3.52
0
VERTEX
10
10.1644
20
8.38611
30
3.52
0
VERTEX
10
10.1511
20
8.42159
30
3.52
0
VERTEX
10
10.1401
20
8.43711
30
3.52
0
VERTEX
10
10.1267
20
8.47259
30
3.52
0
VERTEX
10
10.1223
20
8.48146
30
3.52
0
VERTEX
10
10.1223
20
8.51693
30
3.52
0
VERTEX
10
10.1223
20
8.52137
30
3.52
0
VERTEX
10
10.1378
20
8.53246
30
3.52
0
VERTEX
10
10.1401
20
8.54133
30
3.52
0
VERTEX
10
10.1578
20
8.55463
30
3.52
0
VERTEX
10
10.1711
20
8.57237
30
3.52
0
VERTEX
10
10.18
20
8.58124
30
3.52
0
VERTEX
10
10.1822
20
8.58567
30
3.52
0
VERTEX
10
10.1866
20
8.58567
30
3.52
0
VERTEX
10
10.1977
20
8.59676
30
3.52
0
VERTEX
10
10.2332
20
8.60563
30
3.52
0
VERTEX
10
10.3751
20
8.61006
30
3.52
0
VERTEX
10
10.384
20
8.61006
30
3.52
0
VERTEX
10
10.3928
20
8.6145
30
3.52
0
VERTEX
10
10.3973
20
8.6145
30
3.52
0
VERTEX
10
10.415
20
8.6278
30
3.52
0
VERTEX
10
10.4505
20
8.64332
30
3.52
0
VERTEX
10
10.4682
20
8.65441
30
3.52
0
VERTEX
10
10.486
20
8.65885
30
3.52
0
VERTEX
10
10.5569
20
8.65663
30
3.52
0
VERTEX
10
10.6279
20
8.66328
30
3.52
0
VERTEX
10
10.6456
20
8.66328
30
3.52
0
VERTEX
10
10.65
20
8.66328
30
3.52
0
VERTEX
10
10.6611
20
8.6788
30
3.52
0
VERTEX
10
10.6744
20
8.68989
30
3.52
0
VERTEX
10
10.6767
20
8.69432
30
3.52
0
VERTEX
10
10.6811
20
8.69432
30
3.52
0
VERTEX
10
10.6855
20
8.69876
30
3.52
0
VERTEX
10
10.6855
20
8.7165
30
3.52
0
VERTEX
10
10.7188
20
8.74089
30
3.52
0
VERTEX
10
10.7277
20
8.74976
30
3.52
0
VERTEX
10
10.7387
20
8.76306
30
3.52
0
VERTEX
10
10.7698
20
8.79189
30
3.52
0
VERTEX
10
10.7764
20
8.80076
30
3.52
0
VERTEX
10
10.7809
20
8.80519
30
3.52
0
VERTEX
10
10.7809
20
8.80963
30
3.52
0
VERTEX
10
10.7875
20
8.81628
30
3.52
0
VERTEX
10
10.7897
20
8.83402
30
3.52
0
VERTEX
10
10.7875
20
8.85176
30
3.52
0
VERTEX
10
10.7875
20
8.86063
30
3.52
0
VERTEX
10
10.7809
20
8.87837
30
3.52
0
VERTEX
10
10.752
20
8.91163
30
3.52
0
VERTEX
10
10.7387
20
8.92493
30
3.52
0
VERTEX
10
10.721
20
8.93602
30
3.52
0
VERTEX
10
10.7121
20
8.93824
30
3.52
0
VERTEX
10
10.7099
20
8.93602
30
3.52
0
VERTEX
10
10.701
20
8.95376
30
3.52
0
VERTEX
10
10.6833
20
8.96041
30
3.52
0
VERTEX
10
10.6789
20
8.96041
30
3.52
0
VERTEX
10
10.67
20
8.96928
30
3.52
0
VERTEX
10
10.6345
20
8.98258
30
3.52
0
VERTEX
10
10.6257
20
8.9848
30
3.52
0
VERTEX
10
10.6212
20
8.98924
30
3.52
0
VERTEX
10
10.6035
20
8.99367
30
3.52
0
VERTEX
10
10.599
20
8.9981
30
3.52
0
VERTEX
10
10.5813
20
9.00254
30
3.52
0
VERTEX
10
10.5769
20
9.00697
30
3.52
0
VERTEX
10
10.5724
20
9.00697
30
3.52
0
VERTEX
10
10.5636
20
9.01584
30
3.52
0
VERTEX
10
10.5547
20
9.02028
30
3.52
0
VERTEX
10
10.537
20
9.02028
30
3.52
0
VERTEX
10
10.5325
20
9.02028
30
3.52
0
VERTEX
10
10.517
20
9.0358
30
3.52
0
VERTEX
10
10.5015
20
9.04467
30
3.52
0
VERTEX
10
10.4926
20
9.0491
30
3.52
0
VERTEX
10
10.4882
20
9.05354
30
3.52
0
VERTEX
10
10.4704
20
9.05797
30
3.52
0
VERTEX
10
10.4616
20
9.06463
30
3.52
0
VERTEX
10
10.4261
20
9.06684
30
3.52
0
VERTEX
10
10.3906
20
9.07793
30
3.52
0
VERTEX
10
10.3551
20
9.08015
30
3.52
0
VERTEX
10
10.2842
20
9.07571
30
3.52
0
VERTEX
10
10.2531
20
9.06463
30
3.52
0
VERTEX
10
10.2443
20
9.06019
30
3.52
0
VERTEX
10
10.2287
20
9.04467
30
3.52
0
VERTEX
10
10.2177
20
9.03137
30
3.52
0
VERTEX
10
10.2088
20
8.99589
30
3.52
0
VERTEX
10
10.2021
20
8.97815
30
3.52
0
VERTEX
10
10.1977
20
8.94267
30
3.52
0
VERTEX
10
10.1977
20
8.87171
30
3.52
0
VERTEX
10
10.1955
20
8.83624
30
3.52
0
VERTEX
10
10.1955
20
8.8185
30
3.52
0
VERTEX
10
10.1888
20
8.80076
30
3.52
0
VERTEX
10
10.1888
20
8.78302
30
3.52
0
VERTEX
10
10.1777
20
8.74754
30
3.52
0
VERTEX
10
10.1755
20
8.73867
30
3.52
0
VERTEX
10
10.1689
20
8.7298
30
3.52
0
VERTEX
10
10.1689
20
8.72537
30
3.52
0
VERTEX
10
10.1644
20
8.72093
30
3.52
0
VERTEX
10
10.1644
20
8.7165
30
3.52
0
VERTEX
10
10.1511
20
8.69876
30
3.52
0
VERTEX
10
10.1467
20
8.68989
30
3.52
0
VERTEX
10
10.1423
20
8.68767
30
3.52
0
VERTEX
10
10.1401
20
8.6788
30
3.52
0
VERTEX
10
10.1134
20
8.64332
30
3.52
0
VERTEX
10
10.1068
20
8.62559
30
3.52
0
VERTEX
10
10.0957
20
8.60785
30
3.52
0
VERTEX
10
10.0935
20
8.59898
30
3.52
0
VERTEX
10
10.0691
20
8.56793
30
3.52
0
VERTEX
10
10.0624
20
8.55906
30
3.52
0
VERTEX
10
10.0624
20
8.55463
30
3.52
0
VERTEX
10
10.0469
20
8.53911
30
3.52
0
VERTEX
10
10.0358
20
8.52137
30
3.52
0
VERTEX
10
10.0203
20
8.50363
30
3.52
0
VERTEX
10
9.99149
20
8.47702
30
3.52
0
VERTEX
10
9.98262
20
8.46815
30
3.52
0
VERTEX
10
9.97818
20
8.46372
30
3.52
0
VERTEX
10
9.97818
20
8.45928
30
3.52
0
VERTEX
10
9.96044
20
8.4482
30
3.52
0
VERTEX
10
9.95158
20
8.43933
30
3.52
0
VERTEX
10
9.88284
20
8.41272
30
3.52
0
VERTEX
10
9.8651
20
8.40607
30
3.52
0
VERTEX
10
9.86288
20
8.40163
30
3.52
0
VERTEX
10
9.85845
20
8.40163
30
3.52
0
VERTEX
10
9.84736
20
8.38389
30
3.52
0
VERTEX
10
9.83184
20
8.36837
30
3.52
0
VERTEX
10
9.80966
20
8.33289
30
3.52
0
VERTEX
10
9.80966
20
8.32402
30
3.52
0
VERTEX
10
9.79858
20
8.28854
30
3.52
0
VERTEX
10
9.79858
20
8.27968
30
3.52
0
VERTEX
10
9.79858
20
8.27524
30
3.52
0
VERTEX
10
9.79414
20
8.27081
30
3.52
0
VERTEX
10
9.79192
20
8.25307
30
3.52
0
VERTEX
10
9.78971
20
8.2442
30
3.52
0
VERTEX
10
9.78527
20
8.23976
30
3.52
0
VERTEX
10
9.78527
20
8.17102
30
3.52
0
SEQEND
0
POLYLINE
62
31
66
1
70
1
3
contour
0
VERTEX
10
10.6363
20
7.84688
30
3.52
0
VERTEX
10
10.6461
20
7.82081
30
3.52
0
VERTEX
10
10.6461
20
7.80777
30
3.52
0
VERTEX
10
10.6526
20
7.79474
30
3.52
0
VERTEX
10
10.6787
20
7.77519
30
3.52
0
VERTEX
10
10.6884
20
7.76541
30
3.52
0
VERTEX
10
10.695
20
7.76541
30
3.52
0
VERTEX
10
10.708
20
7.75238
30
3.52
0
VERTEX
10
10.7308
20
7.7426
30
3.52
0
VERTEX
10
10.7569
20
7.71979
30
3.52
0
VERTEX
10
10.7601
20
7.71327
30
3.52
0
VERTEX
10
10.7666
20
7.71327
30
3.52
0
VERTEX
10
10.8025
20
7.67417
30
3.52
0
VERTEX
10
10.8286
20
7.65787
30
3.52
0
VERTEX
10
10.8416
20
7.6481
30
3.52
0
VERTEX
10
10.8481
20
7.6481
30
3.52
0
VERTEX
10
10.8677
20
7.67417
30
3.52
0
VERTEX
10
10.8742
20
7.67417
30
3.52
0
VERTEX
10
10.9231
20
7.71001
30
3.52
0
VERTEX
10
10.9491
20
7.72631
30
3.52
0
VERTEX
10
10.9622
20
7.72957
30
3.52
0
VERTEX
10
10.9752
20
7.73934
30
3.52
0
VERTEX
10
10.9785
20
7.76541
30
3.52
0
VERTEX
10
10.9785
20
7.77845
30
3.52
0
VERTEX
10
10.9785
20
7.78496
30
3.52
0
VERTEX
10
10.9882
20
7.79474
30
3.52
0
VERTEX
10
10.998
20
7.82081
30
3.52
0
VERTEX
10
11.0013
20
7.84688
30
3.52
0
VERTEX
10
10.998
20
7.87295
30
3.52
0
VERTEX
10
10.9948
20
7.88598
30
3.52
0
VERTEX
10
10.9719
20
7.90879
30
3.52
0
VERTEX
10
10.9687
20
7.92183
30
3.52
0
VERTEX
10
10.9687
20
7.92834
30
3.52
0
VERTEX
10
10.9622
20
7.9316
30
3.52
0
VERTEX
10
10.9589
20
7.95767
30
3.52
0
VERTEX
10
10.9165
20
8.00329
30
3.52
0
VERTEX
10
10.9035
20
8.00981
30
3.52
0
VERTEX
10
10.897
20
8.01633
30
3.52
0
VERTEX
10
10.8449
20
8.00981
30
3.52
0
VERTEX
10
10.7927
20
7.99678
30
3.52
0
VERTEX
10
10.7862
20
7.99026
30
3.52
0
VERTEX
10
10.7732
20
7.987
30
3.52
0
VERTEX
10
10.7504
20
7.96419
30
3.52
0
VERTEX
10
10.7373
20
7.95767
30
3.52
0
VERTEX
10
10.7112
20
7.93486
30
3.52
0
VERTEX
10
10.6721
20
7.88924
30
3.52
0
VERTEX
10
10.6493
20
7.86643
30
3.52
0
VERTEX
10
10.6428
20
7.85991
30
3.52
0
VERTEX
10
10.6396
20
7.86317
30
3.52
0
VERTEX
10
10.6363
20
7.85014
30
3.52
0
SEQEND
0
POLYLINE
62
224
66
1
70
1
3
mitochondrion
0
VERTEX
10
9.9716
20
8.18595
30
3.52
0
VERTEX
10
9.97787
20
8.16922
30
3.52
0
VERTEX
10
9.97996
20
8.1525
30
3.52
0
VERTEX
10
9.98205
20
8.14413
30
3.52
0
VERTEX
10
9.98205
20
8.13995
30
3.52
0
VERTEX
10
9.98832
20
8.13159
30
3.52
0
VERTEX
10
9.9925
20
8.11486
30
3.52
0
VERTEX
10
10.003
20
8.10231
30
3.52
0
VERTEX
10
10.0113
20
8.09813
30
3.52
0
VERTEX
10
10.0406
20
8.06886
30
3.52
0
VERTEX
10
10.0657
20
8.04168
30
3.52
0
VERTEX
10
10.095
20
8.02077
30
3.52
0
VERTEX
10
10.1117
20
8.01449
30
3.52
0
VERTEX
10
10.1451
20
8.0124
30
3.52
0
VERTEX
10
10.1786
20
8.01449
30
3.52
0
VERTEX
10
10.1953
20
8.02077
30
3.52
0
VERTEX
10
10.21
20
8.03122
30
3.52
0
VERTEX
10
10.2246
20
8.04586
30
3.52
0
VERTEX
10
10.2246
20
8.05422
30
3.52
0
VERTEX
10
10.233
20
8.0584
30
3.52
0
VERTEX
10
10.2371
20
8.07513
30
3.52
0
VERTEX
10
10.2392
20
8.0835
30
3.52
0
VERTEX
10
10.2434
20
8.08768
30
3.52
0
VERTEX
10
10.2455
20
8.1044
30
3.52
0
VERTEX
10
10.2455
20
8.10859
30
3.52
0
VERTEX
10
10.2497
20
8.11277
30
3.52
0
VERTEX
10
10.2476
20
8.14622
30
3.52
0
VERTEX
10
10.2476
20
8.15459
30
3.52
0
VERTEX
10
10.2434
20
8.16086
30
3.52
0
VERTEX
10
10.2413
20
8.17759
30
3.52
0
VERTEX
10
10.2309
20
8.19431
30
3.52
0
VERTEX
10
10.2162
20
8.21104
30
3.52
0
VERTEX
10
10.2037
20
8.22359
30
3.52
0
VERTEX
10
10.1932
20
8.24031
30
3.52
0
VERTEX
10
10.1661
20
8.26331
30
3.52
0
VERTEX
10
10.1493
20
8.27168
30
3.52
0
VERTEX
10
10.141
20
8.27795
30
3.52
0
VERTEX
10
10.1242
20
8.28213
30
3.52
0
VERTEX
10
10.0573
20
8.27586
30
3.52
0
VERTEX
10
10.0239
20
8.26959
30
3.52
0
VERTEX
10
10.0092
20
8.25495
30
3.52
0
VERTEX
10
10.0051
20
8.25495
30
3.52
0
VERTEX
10
9.99878
20
8.24659
30
3.52
0
VERTEX
10
9.9946
20
8.24659
30
3.52
0
VERTEX
10
9.98832
20
8.24031
30
3.52
0
VERTEX
10
9.98205
20
8.22986
30
3.52
0
VERTEX
10
9.98205
20
8.2215
30
3.52
0
VERTEX
10
9.9716
20
8.20686
30
3.52
0
VERTEX
10
9.9716
20
8.19013
30
3.52
0
VERTEX
10
9.9716
20
8.18804
30
3.52
0
SEQEND
0
POLYLINE
62
227
66
1
70
1
3
endoplasmic_reticulum
0
VERTEX
10
9.95754
20
8.28932
30
3.52
0
VERTEX
10
9.96211
20
8.28475
30
3.52
0
VERTEX
10
9.96516
20
8.28475
30
3.52
0
VERTEX
10
9.9682
20
8.27865
30
3.52
0
VERTEX
10
9.9743
20
8.27713
30
3.52
0
VERTEX
10
9.98039
20
8.27865
30
3.52
0
VERTEX
10
9.98649
20
8.28322
30
3.52
0
VERTEX
10
9.99258
20
8.28475
30
3.52
0
VERTEX
10
9.9941
20
8.29084
30
3.52
0
VERTEX
10
9.99106
20
8.30303
30
3.52
0
VERTEX
10
9.98649
20
8.3076
30
3.52
0
VERTEX
10
9.9743
20
8.30608
30
3.52
0
VERTEX
10
9.9682
20
8.30455
30
3.52
0
VERTEX
10
9.95754
20
8.29541
30
3.52
0
VERTEX
10
9.95754
20
8.29084
30
3.52
0
SEQEND
0
POLYLINE
62
227
66
1
70
1
3
endoplasmic_reticulum
0
VERTEX
10
10.1343
20
8.29846
30
3.52
0
VERTEX
10
10.1388
20
8.29236
30
3.52
0
VERTEX
10
10.1404
20
8.28932
30
3.52
0
VERTEX
10
10.1647
20
8.29236
30
3.52
0
VERTEX
10
10.1663
20
8.29541
30
3.52
0
VERTEX
10
10.1617
20
8.31979
30
3.52
0
VERTEX
10
10.1602
20
8.32588
30
3.52
0
VERTEX
10
10.1586
20
8.32893
30
3.52
0
VERTEX
10
10.1465
20
8.3274
30
3.52
0
VERTEX
10
10.1404
20
8.32436
30
3.52
0
VERTEX
10
10.1373
20
8.31826
30
3.52
0
VERTEX
10
10.1343
20
8.31674
30
3.52
0
VERTEX
10
10.1343
20
8.30455
30
3.52
0
VERTEX
10
10.1343
20
8.29998
30
3.52
0
SEQEND
0
POLYLINE
62
236
66
1
70
1
3
postsynaptic_density
0
VERTEX
10
10.3785
20
8.95289
30
3.52
0
VERTEX
10
10.3802
20
8.94632
30
3.52
0
VERTEX
10
10.3917
20
8.93483
30
3.52
0
VERTEX
10
10.4048
20
8.92662
30
3.52
0
VERTEX
10
10.4179
20
8.92169
30
3.52
0
VERTEX
10
10.4442
20
8.91676
30
3.52
0
VERTEX
10
10.4557
20
8.90855
30
3.52
0
VERTEX
10
10.4623
20
8.90691
30
3.52
0
VERTEX
10
10.4754
20
8.89705
30
3.52
0
VERTEX
10
10.4787
20
8.89377
30
3.52
0
VERTEX
10
10.482
20
8.89377
30
3.52
0
VERTEX
10
10.4886
20
8.88884
30
3.52
0
VERTEX
10
10.4919
20
8.88884
30
3.52
0
VERTEX
10
10.4951
20
8.88555
30
3.52
0
VERTEX
10
10.5017
20
8.88391
30
3.52
0
VERTEX
10
10.5083
20
8.87898
30
3.52
0
VERTEX
10
10.5346
20
8.86913
30
3.52
0
VERTEX
10
10.5378
20
8.86913
30
3.52
0
VERTEX
10
10.5411
20
8.86585
30
3.52
0
VERTEX
10
10.5543
20
8.86256
30
3.52
0
VERTEX
10
10.5608
20
8.86256
30
3.52
0
VERTEX
10
10.5723
20
8.85271
30
3.52
0
VERTEX
10
10.5855
20
8.84942
30
3.52
0
VERTEX
10
10.5888
20
8.84614
30
3.52
0
VERTEX
10
10.615
20
8.84614
30
3.52
0
VERTEX
10
10.6216
20
8.85106
30
3.52
0
VERTEX
10
10.6216
20
8.85763
30
3.52
0
VERTEX
10
10.6397
20
8.87898
30
3.52
0
VERTEX
10
10.6462
20
8.88391
30
3.52
0
VERTEX
10
10.6528
20
8.88391
30
3.52
0
VERTEX
10
10.6643
20
8.89212
30
3.52
0
VERTEX
10
10.6758
20
8.90362
30
3.52
0
VERTEX
10
10.684
20
8.91676
30
3.52
0
VERTEX
10
10.6889
20
8.9299
30
3.52
0
VERTEX
10
10.6939
20
8.93647
30
3.52
0
VERTEX
10
10.6988
20
8.94797
30
3.52
0
VERTEX
10
10.7004
20
8.95454
30
3.52
0
VERTEX
10
10.7054
20
8.96111
30
3.52
0
VERTEX
10
10.7054
20
8.98739
30
3.52
0
VERTEX
10
10.707
20
9.00052
30
3.52
0
VERTEX
10
10.707
20
9.00709
30
3.52
0
VERTEX
10
10.7087
20
9.01038
30
3.52
0
VERTEX
10
10.7152
20
9.01202
30
3.52
0
VERTEX
10
10.7202
20
9.02516
30
3.52
0
VERTEX
10
10.7202
20
9.03173
30
3.52
0
VERTEX
10
10.7284
20
9.04323
30
3.52
0
VERTEX
10
10.7333
20
9.0498
30
3.52
0
VERTEX
10
10.7366
20
9.05308
30
3.52
0
VERTEX
10
10.7431
20
9.05308
30
3.52
0
VERTEX
10
10.7464
20
9.05308
30
3.52
0
VERTEX
10
10.7497
20
9.05965
30
3.52
0
VERTEX
10
10.753
20
9.06129
30
3.52
0
VERTEX
10
10.753
20
9.06458
30
3.52
0
VERTEX
10
10.7579
20
9.07115
30
3.52
0
VERTEX
10
10.6545
20
9.12535
30
3.52
0
VERTEX
10
10.5493
20
9.17626
30
3.52
0
VERTEX
10
10.4968
20
9.2009
30
3.52
0
VERTEX
10
10.4836
20
9.20254
30
3.52
0
VERTEX
10
10.4771
20
9.20254
30
3.52
0
VERTEX
10
10.4656
20
9.19597
30
3.52
0
VERTEX
10
10.4459
20
9.17134
30
3.52
0
VERTEX
10
10.4426
20
9.16805
30
3.52
0
VERTEX
10
10.4426
20
9.16477
30
3.52
0
VERTEX
10
10.436
20
9.15984
30
3.52
0
VERTEX
10
10.4294
20
9.1467
30
3.52
0
VERTEX
10
10.4294
20
9.14013
30
3.52
0
VERTEX
10
10.4294
20
9.13685
30
3.52
0
VERTEX
10
10.436
20
9.13192
30
3.52
0
VERTEX
10
10.4377
20
9.13028
30
3.52
0
VERTEX
10
10.4229
20
9.10564
30
3.52
0
VERTEX
10
10.4147
20
9.0925
30
3.52
0
VERTEX
10
10.4114
20
9.08922
30
3.52
0
VERTEX
10
10.4064
20
9.07608
30
3.52
0
VERTEX
10
10.4032
20
9.07279
30
3.52
0
VERTEX
10
10.4032
20
9.06951
30
3.52
0
VERTEX
10
10.3999
20
9.06786
30
3.52
0
VERTEX
10
10.3999
20
9.06129
30
3.52
0
VERTEX
10
10.3949
20
9.04816
30
3.52
0
VERTEX
10
10.3917
20
9.04487
30
3.52
0
VERTEX
10
10.39
20
9.01859
30
3.52
0
VERTEX
10
10.3835
20
8.99231
30
3.52
0
VERTEX
10
10.3785
20
8.97917
30
3.52
0
VERTEX
10
10.3785
20
8.95454
30
3.52
0
SEQEND
0
ENDSEC
0
EOF
