0
SECTION
2
ENTITIES
0
POLYLINE
62
31
66
1
70
1
3
contour
0
VERTEX
10
6.19961
20
10.9111
30
9.16
0
VERTEX
10
6.20776
20
10.8242
30
9.16
0
VERTEX
10
6.21319
20
10.7808
30
9.16
0
VERTEX
10
6.23763
20
10.74
30
9.16
0
VERTEX
10
6.24578
20
10.7319
30
9.16
0
VERTEX
10
6.24849
20
10.721
30
9.16
0
VERTEX
10
6.28379
20
10.6803
30
9.16
0
VERTEX
10
6.30009
20
10.6613
30
9.16
0
VERTEX
10
6.32181
20
10.6477
30
9.16
0
VERTEX
10
6.36526
20
10.6504
30
9.16
0
VERTEX
10
6.37612
20
10.6504
30
9.16
0
VERTEX
10
6.38699
20
10.6558
30
9.16
0
VERTEX
10
6.43043
20
10.6586
30
9.16
0
VERTEX
10
6.47388
20
10.6667
30
9.16
0
VERTEX
10
6.47931
20
10.6667
30
9.16
0
VERTEX
10
6.48203
20
10.6721
30
9.16
0
VERTEX
10
6.50375
20
10.6776
30
9.16
0
VERTEX
10
6.51462
20
10.6776
30
9.16
0
VERTEX
10
6.52548
20
10.6857
30
9.16
0
VERTEX
10
6.53091
20
10.6966
30
9.16
0
VERTEX
10
6.53091
20
10.7183
30
9.16
0
VERTEX
10
6.54449
20
10.7617
30
9.16
0
VERTEX
10
6.54449
20
10.7726
30
9.16
0
VERTEX
10
6.55263
20
10.7943
30
9.16
0
VERTEX
10
6.55535
20
10.8161
30
9.16
0
VERTEX
10
6.56078
20
10.8215
30
9.16
0
VERTEX
10
6.56893
20
10.8649
30
9.16
0
VERTEX
10
6.56893
20
10.9084
30
9.16
0
VERTEX
10
6.56621
20
10.9301
30
9.16
0
VERTEX
10
6.55807
20
10.9518
30
9.16
0
VERTEX
10
6.55807
20
10.9627
30
9.16
0
VERTEX
10
6.52819
20
11.0034
30
9.16
0
VERTEX
10
6.52276
20
11.0143
30
9.16
0
VERTEX
10
6.50375
20
11.0279
30
9.16
0
VERTEX
10
6.48475
20
11.0496
30
9.16
0
VERTEX
10
6.47117
20
11.0686
30
9.16
0
VERTEX
10
6.46574
20
11.074
30
9.16
0
VERTEX
10
6.46031
20
11.074
30
9.16
0
VERTEX
10
6.45487
20
11.0795
30
9.16
0
VERTEX
10
6.44401
20
11.0822
30
9.16
0
VERTEX
10
6.42772
20
11.0985
30
9.16
0
VERTEX
10
6.41957
20
11.1066
30
9.16
0
VERTEX
10
6.41414
20
11.1066
30
9.16
0
VERTEX
10
6.40328
20
11.1175
30
9.16
0
VERTEX
10
6.39242
20
11.1202
30
9.16
0
VERTEX
10
6.37341
20
11.1338
30
9.16
0
VERTEX
10
6.36255
20
11.1419
30
9.16
0
VERTEX
10
6.35711
20
11.1474
30
9.16
0
VERTEX
10
6.33539
20
11.1528
30
9.16
0
VERTEX
10
6.32453
20
11.1555
30
9.16
0
VERTEX
10
6.31638
20
11.1474
30
9.16
0
VERTEX
10
6.29466
20
11.1419
30
9.16
0
VERTEX
10
6.28379
20
11.1419
30
9.16
0
VERTEX
10
6.26207
20
11.1229
30
9.16
0
VERTEX
10
6.24578
20
11.1039
30
9.16
0
VERTEX
10
6.23491
20
11.0958
30
9.16
0
VERTEX
10
6.22405
20
11.074
30
9.16
0
VERTEX
10
6.22134
20
11.0632
30
9.16
0
VERTEX
10
6.21319
20
11.055
30
9.16
0
VERTEX
10
6.21319
20
11.0442
30
9.16
0
VERTEX
10
6.21591
20
11.0387
30
9.16
0
VERTEX
10
6.20776
20
11.017
30
9.16
0
VERTEX
10
6.20233
20
11.0116
30
9.16
0
VERTEX
10
6.20233
20
10.9681
30
9.16
0
VERTEX
10
6.20504
20
10.9464
30
9.16
0
VERTEX
10
6.19961
20
10.9274
30
9.16
0
VERTEX
10
6.19961
20
10.9165
30
9.16
0
VERTEX
10
6.19961
20
10.9138
30
9.16
0
SEQEND
0
POLYLINE
62
224
66
1
70
1
3
mitochondrion
0
VERTEX
10
7.56255
20
10.513
30
9.16
0
VERTEX
10
7.56533
20
10.4685
30
9.16
0
VERTEX
10
7.56811
20
10.4463
30
9.16
0
VERTEX
10
7.5695
20
10.4352
30
9.16
0
VERTEX
10
7.57645
20
10.4129
30
9.16
0
VERTEX
10
7.58062
20
10.4088
30
9.16
0
VERTEX
10
7.58062
20
10.406
30
9.16
0
VERTEX
10
7.59592
20
10.3851
30
9.16
0
VERTEX
10
7.60565
20
10.3754
30
9.16
0
VERTEX
10
7.62512
20
10.3601
30
9.16
0
VERTEX
10
7.63485
20
10.349
30
9.16
0
VERTEX
10
7.65571
20
10.3351
30
9.16
0
VERTEX
10
7.66544
20
10.3267
30
9.16
0
VERTEX
10
7.671
20
10.3226
30
9.16
0
VERTEX
10
7.67656
20
10.3226
30
9.16
0
VERTEX
10
7.68213
20
10.3198
30
9.16
0
VERTEX
10
7.72662
20
10.3198
30
9.16
0
VERTEX
10
7.73774
20
10.3212
30
9.16
0
VERTEX
10
7.7433
20
10.3212
30
9.16
0
VERTEX
10
7.74887
20
10.3239
30
9.16
0
VERTEX
10
7.77111
20
10.3267
30
9.16
0
VERTEX
10
7.78224
20
10.3295
30
9.16
0
VERTEX
10
7.80309
20
10.3462
30
9.16
0
VERTEX
10
7.81004
20
10.3559
30
9.16
0
VERTEX
10
7.81978
20
10.3657
30
9.16
0
VERTEX
10
7.82534
20
10.3754
30
9.16
0
VERTEX
10
7.82673
20
10.3809
30
9.16
0
VERTEX
10
7.82951
20
10.3823
30
9.16
0
VERTEX
10
7.8309
20
10.3879
30
9.16
0
VERTEX
10
7.83785
20
10.399
30
9.16
0
VERTEX
10
7.84202
20
10.406
30
9.16
0
VERTEX
10
7.84202
20
10.4115
30
9.16
0
VERTEX
10
7.85176
20
10.4338
30
9.16
0
VERTEX
10
7.85176
20
10.4393
30
9.16
0
VERTEX
10
7.85454
20
10.4421
30
9.16
0
VERTEX
10
7.85732
20
10.4533
30
9.16
0
VERTEX
10
7.85593
20
10.4977
30
9.16
0
VERTEX
10
7.85037
20
10.52
30
9.16
0
VERTEX
10
7.84759
20
10.5228
30
9.16
0
VERTEX
10
7.8462
20
10.5283
30
9.16
0
VERTEX
10
7.84202
20
10.5339
30
9.16
0
VERTEX
10
7.84063
20
10.5395
30
9.16
0
VERTEX
10
7.83368
20
10.5506
30
9.16
0
VERTEX
10
7.83368
20
10.5561
30
9.16
0
VERTEX
10
7.82951
20
10.5617
30
9.16
0
VERTEX
10
7.82812
20
10.5673
30
9.16
0
VERTEX
10
7.82534
20
10.57
30
9.16
0
VERTEX
10
7.82534
20
10.5756
30
9.16
0
VERTEX
10
7.82534
20
10.5784
30
9.16
0
VERTEX
10
7.80448
20
10.5965
30
9.16
0
VERTEX
10
7.8017
20
10.5965
30
9.16
0
VERTEX
10
7.8017
20
10.5992
30
9.16
0
VERTEX
10
7.79058
20
10.6062
30
9.16
0
VERTEX
10
7.78502
20
10.6076
30
9.16
0
VERTEX
10
7.77806
20
10.6118
30
9.16
0
VERTEX
10
7.77667
20
10.6145
30
9.16
0
VERTEX
10
7.77111
20
10.6145
30
9.16
0
VERTEX
10
7.74887
20
10.6229
30
9.16
0
VERTEX
10
7.73774
20
10.6271
30
9.16
0
VERTEX
10
7.73218
20
10.6312
30
9.16
0
VERTEX
10
7.70993
20
10.6382
30
9.16
0
VERTEX
10
7.69881
20
10.6396
30
9.16
0
VERTEX
10
7.67656
20
10.6368
30
9.16
0
VERTEX
10
7.671
20
10.6368
30
9.16
0
VERTEX
10
7.66544
20
10.634
30
9.16
0
VERTEX
10
7.65988
20
10.634
30
9.16
0
VERTEX
10
7.64875
20
10.6298
30
9.16
0
VERTEX
10
7.64319
20
10.6298
30
9.16
0
VERTEX
10
7.63207
20
10.6243
30
9.16
0
VERTEX
10
7.62651
20
10.6229
30
9.16
0
VERTEX
10
7.61538
20
10.6145
30
9.16
0
VERTEX
10
7.60982
20
10.609
30
9.16
0
VERTEX
10
7.60287
20
10.5979
30
9.16
0
VERTEX
10
7.5987
20
10.5937
30
9.16
0
VERTEX
10
7.59453
20
10.584
30
9.16
0
VERTEX
10
7.58619
20
10.5728
30
9.16
0
VERTEX
10
7.5848
20
10.5673
30
9.16
0
VERTEX
10
7.57923
20
10.5631
30
9.16
0
VERTEX
10
7.57784
20
10.5575
30
9.16
0
VERTEX
10
7.57089
20
10.5464
30
9.16
0
VERTEX
10
7.56672
20
10.5422
30
9.16
0
VERTEX
10
7.56255
20
10.52
30
9.16
0
VERTEX
10
7.56255
20
10.5144
30
9.16
0
SEQEND
0
POLYLINE
62
31
66
1
70
1
3
contour
0
VERTEX
10
7.46492
20
10.408
30
9.16
0
VERTEX
10
7.47425
20
10.3482
30
9.16
0
VERTEX
10
7.48358
20
10.3184
30
9.16
0
VERTEX
10
7.48918
20
10.3035
30
9.16
0
VERTEX
10
7.49851
20
10.2885
30
9.16
0
VERTEX
10
7.5489
20
10.2344
30
9.16
0
VERTEX
10
7.57316
20
10.2064
30
9.16
0
VERTEX
10
7.57689
20
10.2008
30
9.16
0
VERTEX
10
7.58436
20
10.1952
30
9.16
0
VERTEX
10
7.58436
20
10.1915
30
9.16
0
VERTEX
10
7.60489
20
10.1616
30
9.16
0
VERTEX
10
7.61795
20
10.1486
30
9.16
0
VERTEX
10
7.62542
20
10.1411
30
9.16
0
VERTEX
10
7.63848
20
10.1318
30
9.16
0
VERTEX
10
7.64408
20
10.1262
30
9.16
0
VERTEX
10
7.64781
20
10.1262
30
9.16
0
VERTEX
10
7.66274
20
10.1168
30
9.16
0
VERTEX
10
7.6926
20
10.115
30
9.16
0
VERTEX
10
7.72246
20
10.1206
30
9.16
0
VERTEX
10
7.73739
20
10.128
30
9.16
0
VERTEX
10
7.74299
20
10.1318
30
9.16
0
VERTEX
10
7.74299
20
10.1355
30
9.16
0
VERTEX
10
7.75419
20
10.1448
30
9.16
0
VERTEX
10
7.75978
20
10.1523
30
9.16
0
VERTEX
10
7.76165
20
10.1598
30
9.16
0
VERTEX
10
7.76725
20
10.1654
30
9.16
0
VERTEX
10
7.77098
20
10.1654
30
9.16
0
VERTEX
10
7.79338
20
10.1915
30
9.16
0
VERTEX
10
7.80084
20
10.1971
30
9.16
0
VERTEX
10
7.80457
20
10.1971
30
9.16
0
VERTEX
10
7.83257
20
10.2232
30
9.16
0
VERTEX
10
7.84563
20
10.2344
30
9.16
0
VERTEX
10
7.8531
20
10.2381
30
9.16
0
VERTEX
10
7.85683
20
10.2381
30
9.16
0
VERTEX
10
7.86989
20
10.2475
30
9.16
0
VERTEX
10
7.89789
20
10.2605
30
9.16
0
VERTEX
10
7.92401
20
10.2811
30
9.16
0
VERTEX
10
7.93894
20
10.2867
30
9.16
0
VERTEX
10
7.94641
20
10.2885
30
9.16
0
VERTEX
10
7.96134
20
10.2979
30
9.16
0
VERTEX
10
7.9688
20
10.3053
30
9.16
0
VERTEX
10
7.98373
20
10.3109
30
9.16
0
VERTEX
10
7.99866
20
10.3128
30
9.16
0
VERTEX
10
8.01359
20
10.3203
30
9.16
0
VERTEX
10
8.04345
20
10.3259
30
9.16
0
VERTEX
10
8.05838
20
10.3277
30
9.16
0
VERTEX
10
8.06585
20
10.3277
30
9.16
0
VERTEX
10
8.09571
20
10.337
30
9.16
0
VERTEX
10
8.10877
20
10.3464
30
9.16
0
VERTEX
10
8.1181
20
10.3538
30
9.16
0
VERTEX
10
8.12183
20
10.3538
30
9.16
0
VERTEX
10
8.1237
20
10.3576
30
9.16
0
VERTEX
10
8.12743
20
10.3576
30
9.16
0
VERTEX
10
8.1293
20
10.365
30
9.16
0
VERTEX
10
8.1349
20
10.3706
30
9.16
0
VERTEX
10
8.1349
20
10.3781
30
9.16
0
VERTEX
10
8.14236
20
10.3856
30
9.16
0
VERTEX
10
8.15169
20
10.4005
30
9.16
0
VERTEX
10
8.15729
20
10.4136
30
9.16
0
VERTEX
10
8.16662
20
10.4285
30
9.16
0
VERTEX
10
8.16849
20
10.436
30
9.16
0
VERTEX
10
8.17409
20
10.4434
30
9.16
0
VERTEX
10
8.17409
20
10.4584
30
9.16
0
VERTEX
10
8.17409
20
10.4658
30
9.16
0
VERTEX
10
8.17969
20
10.4807
30
9.16
0
VERTEX
10
8.18902
20
10.4901
30
9.16
0
VERTEX
10
8.19088
20
10.4975
30
9.16
0
VERTEX
10
8.19648
20
10.505
30
9.16
0
VERTEX
10
8.20581
20
10.5349
30
9.16
0
VERTEX
10
8.20955
20
10.5423
30
9.16
0
VERTEX
10
8.20955
20
10.5461
30
9.16
0
VERTEX
10
8.21514
20
10.5535
30
9.16
0
VERTEX
10
8.21701
20
10.561
30
9.16
0
VERTEX
10
8.22074
20
10.5647
30
9.16
0
VERTEX
10
8.22074
20
10.5722
30
9.16
0
VERTEX
10
8.22448
20
10.5797
30
9.16
0
VERTEX
10
8.22821
20
10.5834
30
9.16
0
VERTEX
10
8.23567
20
10.6133
30
9.16
0
VERTEX
10
8.23941
20
10.6207
30
9.16
0
VERTEX
10
8.24127
20
10.6356
30
9.16
0
VERTEX
10
8.24687
20
10.6506
30
9.16
0
VERTEX
10
8.24874
20
10.6804
30
9.16
0
VERTEX
10
8.23941
20
10.7103
30
9.16
0
VERTEX
10
8.22261
20
10.7402
30
9.16
0
VERTEX
10
8.17595
20
10.7943
30
9.16
0
VERTEX
10
8.14983
20
10.8185
30
9.16
0
VERTEX
10
8.14609
20
10.8223
30
9.16
0
VERTEX
10
8.13116
20
10.8223
30
9.16
0
VERTEX
10
8.1237
20
10.8241
30
9.16
0
VERTEX
10
8.11997
20
10.8241
30
9.16
0
VERTEX
10
8.11623
20
10.8279
30
9.16
0
VERTEX
10
8.1125
20
10.8279
30
9.16
0
VERTEX
10
8.10877
20
10.8316
30
9.16
0
VERTEX
10
8.1013
20
10.8316
30
9.16
0
VERTEX
10
8.09757
20
10.8316
30
9.16
0
VERTEX
10
8.08264
20
10.8409
30
9.16
0
VERTEX
10
8.07518
20
10.8428
30
9.16
0
VERTEX
10
8.06025
20
10.8521
30
9.16
0
VERTEX
10
8.05278
20
10.8559
30
9.16
0
VERTEX
10
7.99306
20
10.8671
30
9.16
0
VERTEX
10
7.9632
20
10.8764
30
9.16
0
VERTEX
10
7.90348
20
10.8857
30
9.16
0
VERTEX
10
7.87362
20
10.8857
30
9.16
0
VERTEX
10
7.85869
20
10.8857
30
9.16
0
VERTEX
10
7.82883
20
10.8764
30
9.16
0
VERTEX
10
7.76912
20
10.8689
30
9.16
0
VERTEX
10
7.73926
20
10.8671
30
9.16
0
VERTEX
10
7.7094
20
10.8615
30
9.16
0
VERTEX
10
7.67954
20
10.8633
30
9.16
0
VERTEX
10
7.66461
20
10.8615
30
9.16
0
VERTEX
10
7.65714
20
10.8615
30
9.16
0
VERTEX
10
7.62728
20
10.8484
30
9.16
0
VERTEX
10
7.61982
20
10.8465
30
9.16
0
VERTEX
10
7.61235
20
10.8391
30
9.16
0
VERTEX
10
7.58249
20
10.8279
30
9.16
0
VERTEX
10
7.57503
20
10.826
30
9.16
0
VERTEX
10
7.5601
20
10.8129
30
9.16
0
VERTEX
10
7.5545
20
10.8073
30
9.16
0
VERTEX
10
7.5545
20
10.8036
30
9.16
0
VERTEX
10
7.5489
20
10.7961
30
9.16
0
VERTEX
10
7.5489
20
10.7924
30
9.16
0
VERTEX
10
7.53957
20
10.7775
30
9.16
0
VERTEX
10
7.51531
20
10.7532
30
9.16
0
VERTEX
10
7.51531
20
10.7495
30
9.16
0
VERTEX
10
7.51158
20
10.7476
30
9.16
0
VERTEX
10
7.50598
20
10.7327
30
9.16
0
VERTEX
10
7.49851
20
10.7271
30
9.16
0
VERTEX
10
7.49851
20
10.7196
30
9.16
0
VERTEX
10
7.49291
20
10.7047
30
9.16
0
VERTEX
10
7.48731
20
10.645
30
9.16
0
VERTEX
10
7.48545
20
10.5853
30
9.16
0
VERTEX
10
7.47985
20
10.5554
30
9.16
0
VERTEX
10
7.47052
20
10.5255
30
9.16
0
VERTEX
10
7.46492
20
10.4658
30
9.16
0
VERTEX
10
7.46492
20
10.436
30
9.16
0
VERTEX
10
7.46492
20
10.421
30
9.16
0
VERTEX
10
7.46492
20
10.4136
30
9.16
0
VERTEX
10
7.46492
20
10.4098
30
9.16
0
SEQEND
0
POLYLINE
62
227
66
1
70
1
3
endoplasmic_reticulum
0
VERTEX
10
7.88781
20
10.4475
30
9.16
0
VERTEX
10
7.88961
20
10.4403
30
9.16
0
VERTEX
10
7.8905
20
10.4116
30
9.16
0
VERTEX
10
7.8905
20
10.4044
30
9.16
0
VERTEX
10
7.8905
20
10.4008
30
9.16
0
VERTEX
10
7.89588
20
10.3955
30
9.16
0
VERTEX
10
7.90305
20
10.3955
30
9.16
0
VERTEX
10
7.90485
20
10.3972
30
9.16
0
VERTEX
10
7.91202
20
10.399
30
9.16
0
VERTEX
10
7.91471
20
10.4017
30
9.16
0
VERTEX
10
7.91471
20
10.4053
30
9.16
0
VERTEX
10
7.9165
20
10.4089
30
9.16
0
VERTEX
10
7.9174
20
10.4376
30
9.16
0
VERTEX
10
7.9174
20
10.4412
30
9.16
0
VERTEX
10
7.91561
20
10.4448
30
9.16
0
VERTEX
10
7.91471
20
10.4735
30
9.16
0
VERTEX
10
7.91471
20
10.4806
30
9.16
0
VERTEX
10
7.91471
20
10.4842
30
9.16
0
VERTEX
10
7.91471
20
10.486
30
9.16
0
VERTEX
10
7.90754
20
10.4905
30
9.16
0
VERTEX
10
7.90395
20
10.4923
30
9.16
0
VERTEX
10
7.90036
20
10.4923
30
9.16
0
VERTEX
10
7.89319
20
10.4878
30
9.16
0
VERTEX
10
7.88961
20
10.4806
30
9.16
0
VERTEX
10
7.88781
20
10.4788
30
9.16
0
VERTEX
10
7.88781
20
10.4501
30
9.16
0
VERTEX
10
7.88781
20
10.4483
30
9.16
0
SEQEND
0
POLYLINE
62
227
66
1
70
1
3
endoplasmic_reticulum
0
VERTEX
10
7.85374
20
10.6438
30
9.16
0
VERTEX
10
7.85912
20
10.6295
30
9.16
0
VERTEX
10
7.85912
20
10.6277
30
9.16
0
VERTEX
10
7.86361
20
10.6205
30
9.16
0
VERTEX
10
7.86361
20
10.6187
30
9.16
0
VERTEX
10
7.8663
20
10.6151
30
9.16
0
VERTEX
10
7.87257
20
10.6008
30
9.16
0
VERTEX
10
7.87705
20
10.5864
30
9.16
0
VERTEX
10
7.87974
20
10.5792
30
9.16
0
VERTEX
10
7.88154
20
10.5757
30
9.16
0
VERTEX
10
7.88154
20
10.5739
30
9.16
0
VERTEX
10
7.88781
20
10.5676
30
9.16
0
VERTEX
10
7.90126
20
10.5613
30
9.16
0
VERTEX
10
7.90843
20
10.5586
30
9.16
0
VERTEX
10
7.91471
20
10.5541
30
9.16
0
VERTEX
10
7.9174
20
10.5523
30
9.16
0
VERTEX
10
7.92098
20
10.5452
30
9.16
0
VERTEX
10
7.92726
20
10.5389
30
9.16
0
VERTEX
10
7.93354
20
10.5353
30
9.16
0
VERTEX
10
7.93712
20
10.5344
30
9.16
0
VERTEX
10
7.93981
20
10.5317
30
9.16
0
VERTEX
10
7.95416
20
10.5317
30
9.16
0
VERTEX
10
7.95595
20
10.5308
30
9.16
0
VERTEX
10
7.95774
20
10.5326
30
9.16
0
VERTEX
10
7.95954
20
10.5326
30
9.16
0
VERTEX
10
7.96402
20
10.5398
30
9.16
0
VERTEX
10
7.96581
20
10.5434
30
9.16
0
VERTEX
10
7.96761
20
10.5443
30
9.16
0
VERTEX
10
7.96761
20
10.5461
30
9.16
0
VERTEX
10
7.9694
20
10.5479
30
9.16
0
VERTEX
10
7.97029
20
10.555
30
9.16
0
VERTEX
10
7.96761
20
10.5577
30
9.16
0
VERTEX
10
7.96581
20
10.5649
30
9.16
0
VERTEX
10
7.96492
20
10.5685
30
9.16
0
VERTEX
10
7.95147
20
10.5801
30
9.16
0
VERTEX
10
7.94878
20
10.5837
30
9.16
0
VERTEX
10
7.93443
20
10.5936
30
9.16
0
VERTEX
10
7.92726
20
10.5972
30
9.16
0
VERTEX
10
7.9183
20
10.6097
30
9.16
0
VERTEX
10
7.91381
20
10.6169
30
9.16
0
VERTEX
10
7.91381
20
10.6187
30
9.16
0
VERTEX
10
7.90843
20
10.6259
30
9.16
0
VERTEX
10
7.90843
20
10.6277
30
9.16
0
VERTEX
10
7.90216
20
10.6339
30
9.16
0
VERTEX
10
7.90036
20
10.6375
30
9.16
0
VERTEX
10
7.89319
20
10.6429
30
9.16
0
VERTEX
10
7.8914
20
10.6429
30
9.16
0
VERTEX
10
7.88781
20
10.6465
30
9.16
0
VERTEX
10
7.88064
20
10.6492
30
9.16
0
VERTEX
10
7.87705
20
10.651
30
9.16
0
VERTEX
10
7.87526
20
10.6528
30
9.16
0
VERTEX
10
7.86809
20
10.6537
30
9.16
0
VERTEX
10
7.8654
20
10.651
30
9.16
0
VERTEX
10
7.86181
20
10.651
30
9.16
0
VERTEX
10
7.86002
20
10.6492
30
9.16
0
VERTEX
10
7.85643
20
10.6492
30
9.16
0
VERTEX
10
7.85374
20
10.6465
30
9.16
0
VERTEX
10
7.85374
20
10.6447
30
9.16
0
SEQEND
0
POLYLINE
62
227
66
1
70
1
3
endoplasmic_reticulum
0
VERTEX
10
7.58747
20
10.6841
30
9.16
0
VERTEX
10
7.59195
20
10.6797
30
9.16
0
VERTEX
10
7.59375
20
10.6797
30
9.16
0
VERTEX
10
7.59912
20
10.6734
30
9.16
0
VERTEX
10
7.60271
20
10.6734
30
9.16
0
VERTEX
10
7.60988
20
10.6707
30
9.16
0
VERTEX
10
7.61706
20
10.6707
30
9.16
0
VERTEX
10
7.6305
20
10.6797
30
9.16
0
VERTEX
10
7.63409
20
10.6823
30
9.16
0
VERTEX
10
7.63588
20
10.6841
30
9.16
0
VERTEX
10
7.63857
20
10.6904
30
9.16
0
VERTEX
10
7.64395
20
10.6958
30
9.16
0
VERTEX
10
7.64843
20
10.7101
30
9.16
0
VERTEX
10
7.64843
20
10.7137
30
9.16
0
VERTEX
10
7.65023
20
10.7173
30
9.16
0
VERTEX
10
7.65112
20
10.7317
30
9.16
0
VERTEX
10
7.65292
20
10.7335
30
9.16
0
VERTEX
10
7.65381
20
10.7406
30
9.16
0
VERTEX
10
7.6583
20
10.7478
30
9.16
0
VERTEX
10
7.66099
20
10.755
30
9.16
0
VERTEX
10
7.66188
20
10.7586
30
9.16
0
VERTEX
10
7.66906
20
10.7603
30
9.16
0
VERTEX
10
7.67533
20
10.7657
30
9.16
0
VERTEX
10
7.6825
20
10.7684
30
9.16
0
VERTEX
10
7.68968
20
10.7729
30
9.16
0
VERTEX
10
7.69685
20
10.772
30
9.16
0
VERTEX
10
7.70043
20
10.772
30
9.16
0
VERTEX
10
7.71478
20
10.7657
30
9.16
0
VERTEX
10
7.71837
20
10.7639
30
9.16
0
VERTEX
10
7.72195
20
10.7603
30
9.16
0
VERTEX
10
7.7345
20
10.7514
30
9.16
0
VERTEX
10
7.74078
20
10.7451
30
9.16
0
VERTEX
10
7.74705
20
10.7406
30
9.16
0
VERTEX
10
7.75333
20
10.7343
30
9.16
0
VERTEX
10
7.75692
20
10.7326
30
9.16
0
VERTEX
10
7.76409
20
10.7317
30
9.16
0
VERTEX
10
7.76678
20
10.7299
30
9.16
0
VERTEX
10
7.77395
20
10.7299
30
9.16
0
VERTEX
10
7.78023
20
10.7326
30
9.16
0
VERTEX
10
7.78292
20
10.7352
30
9.16
0
VERTEX
10
7.78292
20
10.7424
30
9.16
0
VERTEX
10
7.78023
20
10.7496
30
9.16
0
VERTEX
10
7.77126
20
10.7639
30
9.16
0
VERTEX
10
7.75781
20
10.772
30
9.16
0
VERTEX
10
7.75423
20
10.7729
30
9.16
0
VERTEX
10
7.74885
20
10.7792
30
9.16
0
VERTEX
10
7.74526
20
10.781
30
9.16
0
VERTEX
10
7.74347
20
10.7828
30
9.16
0
VERTEX
10
7.72912
20
10.7854
30
9.16
0
VERTEX
10
7.72195
20
10.7881
30
9.16
0
VERTEX
10
7.71478
20
10.789
30
9.16
0
VERTEX
10
7.71119
20
10.7908
30
9.16
0
VERTEX
10
7.70402
20
10.7908
30
9.16
0
VERTEX
10
7.70043
20
10.7917
30
9.16
0
VERTEX
10
7.69864
20
10.7917
30
9.16
0
VERTEX
10
7.69685
20
10.7935
30
9.16
0
VERTEX
10
7.66816
20
10.7962
30
9.16
0
VERTEX
10
7.66457
20
10.7962
30
9.16
0
VERTEX
10
7.6574
20
10.7935
30
9.16
0
VERTEX
10
7.65202
20
10.7881
30
9.16
0
VERTEX
10
7.64575
20
10.781
30
9.16
0
VERTEX
10
7.64126
20
10.7747
30
9.16
0
VERTEX
10
7.63499
20
10.7684
30
9.16
0
VERTEX
10
7.6314
20
10.7648
30
9.16
0
VERTEX
10
7.62781
20
10.7639
30
9.16
0
VERTEX
10
7.62244
20
10.7577
30
9.16
0
VERTEX
10
7.62064
20
10.7559
30
9.16
0
VERTEX
10
7.61795
20
10.7487
30
9.16
0
VERTEX
10
7.61616
20
10.7487
30
9.16
0
VERTEX
10
7.61347
20
10.746
30
9.16
0
VERTEX
10
7.61078
20
10.7388
30
9.16
0
VERTEX
10
7.60988
20
10.7352
30
9.16
0
VERTEX
10
7.60361
20
10.729
30
9.16
0
VERTEX
10
7.59912
20
10.7218
30
9.16
0
VERTEX
10
7.59285
20
10.7164
30
9.16
0
VERTEX
10
7.58747
20
10.6877
30
9.16
0
VERTEX
10
7.58747
20
10.685
30
9.16
0
SEQEND
0
POLYLINE
62
227
66
1
70
1
3
endoplasmic_reticulum
0
VERTEX
10
7.67354
20
10.2601
30
9.16
0
VERTEX
10
7.67712
20
10.2529
30
9.16
0
VERTEX
10
7.6834
20
10.2466
30
9.16
0
VERTEX
10
7.69057
20
10.2421
30
9.16
0
VERTEX
10
7.69774
20
10.2395
30
9.16
0
VERTEX
10
7.71209
20
10.2395
30
9.16
0
VERTEX
10
7.71926
20
10.2403
30
9.16
0
VERTEX
10
7.72464
20
10.2448
30
9.16
0
VERTEX
10
7.72554
20
10.2466
30
9.16
0
VERTEX
10
7.72912
20
10.2466
30
9.16
0
VERTEX
10
7.73271
20
10.2484
30
9.16
0
VERTEX
10
7.7363
20
10.2556
30
9.16
0
VERTEX
10
7.73988
20
10.2583
30
9.16
0
VERTEX
10
7.74078
20
10.2655
30
9.16
0
VERTEX
10
7.73719
20
10.2798
30
9.16
0
VERTEX
10
7.7354
20
10.2816
30
9.16
0
VERTEX
10
7.7354
20
10.2834
30
9.16
0
VERTEX
10
7.73271
20
10.287
30
9.16
0
VERTEX
10
7.73181
20
10.2906
30
9.16
0
VERTEX
10
7.72823
20
10.2932
30
9.16
0
VERTEX
10
7.71388
20
10.2941
30
9.16
0
VERTEX
10
7.70671
20
10.2941
30
9.16
0
VERTEX
10
7.70492
20
10.2941
30
9.16
0
VERTEX
10
7.69057
20
10.2825
30
9.16
0
VERTEX
10
7.68878
20
10.2807
30
9.16
0
VERTEX
10
7.68161
20
10.2798
30
9.16
0
VERTEX
10
7.67892
20
10.278
30
9.16
0
VERTEX
10
7.67443
20
10.2708
30
9.16
0
VERTEX
10
7.67354
20
10.2637
30
9.16
0
VERTEX
10
7.67354
20
10.261
30
9.16
0
SEQEND
0
POLYLINE
62
227
66
1
70
1
3
endoplasmic_reticulum
0
VERTEX
10
7.51754
20
10.3139
30
9.16
0
VERTEX
10
7.51933
20
10.3067
30
9.16
0
VERTEX
10
7.52202
20
10.304
30
9.16
0
VERTEX
10
7.52919
20
10.3031
30
9.16
0
VERTEX
10
7.53278
20
10.3031
30
9.16
0
VERTEX
10
7.53995
20
10.3076
30
9.16
0
VERTEX
10
7.54354
20
10.3094
30
9.16
0
VERTEX
10
7.54623
20
10.313
30
9.16
0
VERTEX
10
7.54713
20
10.3273
30
9.16
0
VERTEX
10
7.54444
20
10.3417
30
9.16
0
VERTEX
10
7.54175
20
10.3443
30
9.16
0
VERTEX
10
7.53457
20
10.3435
30
9.16
0
VERTEX
10
7.53099
20
10.3435
30
9.16
0
VERTEX
10
7.5274
20
10.3417
30
9.16
0
VERTEX
10
7.52292
20
10.3354
30
9.16
0
VERTEX
10
7.52023
20
10.3327
30
9.16
0
VERTEX
10
7.51754
20
10.3183
30
9.16
0
VERTEX
10
7.51754
20
10.3148
30
9.16
0
SEQEND
0
POLYLINE
62
236
66
1
70
1
3
postsynaptic_density
0
VERTEX
10
8.10274
20
10.649
30
9.16
0
VERTEX
10
8.10767
20
10.6466
30
9.16
0
VERTEX
10
8.11754
20
10.6515
30
9.16
0
VERTEX
10
8.12001
20
10.6564
30
9.16
0
VERTEX
10
8.12494
20
10.6564
30
9.16
0
VERTEX
10
8.12741
20
10.6614
30
9.16
0
VERTEX
10
8.20637
20
10.6737
30
9.16
0
VERTEX
10
8.21624
20
10.6786
30
9.16
0
VERTEX
10
8.23598
20
10.6811
30
9.16
0
VERTEX
10
8.24091
20
10.686
30
9.16
0
VERTEX
10
8.26065
20
10.686
30
9.16
0
VERTEX
10
8.26312
20
10.6762
30
9.16
0
VERTEX
10
8.26558
20
10.6712
30
9.16
0
VERTEX
10
8.34454
20
10.6712
30
9.16
0
VERTEX
10
8.36428
20
10.6786
30
9.16
0
VERTEX
10
8.37415
20
10.6786
30
9.16
0
VERTEX
10
8.39388
20
10.6885
30
9.16
0
VERTEX
10
8.39882
20
10.691
30
9.16
0
VERTEX
10
8.39635
20
10.7107
30
9.16
0
VERTEX
10
8.38402
20
10.7502
30
9.16
0
VERTEX
10
8.37661
20
10.7601
30
9.16
0
VERTEX
10
8.37661
20
10.765
30
9.16
0
VERTEX
10
8.37168
20
10.7675
30
9.16
0
VERTEX
10
8.35934
20
10.8069
30
9.16
0
VERTEX
10
8.3396
20
10.8143
30
9.16
0
VERTEX
10
8.33714
20
10.8193
30
9.16
0
VERTEX
10
8.25818
20
10.8069
30
9.16
0
VERTEX
10
8.24831
20
10.802
30
9.16
0
VERTEX
10
8.20883
20
10.7971
30
9.16
0
VERTEX
10
8.12988
20
10.7749
30
9.16
0
VERTEX
10
8.12001
20
10.7675
30
9.16
0
VERTEX
10
8.11754
20
10.7625
30
9.16
0
VERTEX
10
8.12494
20
10.7576
30
9.16
0
VERTEX
10
8.10521
20
10.6786
30
9.16
0
VERTEX
10
8.10274
20
10.6589
30
9.16
0
VERTEX
10
8.10274
20
10.6515
30
9.16
0
SEQEND
0
POLYLINE
62
236
66
1
70
1
3
postsynaptic_density
0
VERTEX
10
6.05613
20
10.8683
30
9.16
0
VERTEX
10
6.09577
20
10.8634
30
9.16
0
VERTEX
10
6.11064
20
10.8584
30
9.16
0
VERTEX
10
6.11064
20
10.7791
30
9.16
0
VERTEX
10
6.11064
20
10.7593
30
9.16
0
VERTEX
10
6.12551
20
10.7395
30
9.16
0
VERTEX
10
6.13047
20
10.7196
30
9.16
0
VERTEX
10
6.14533
20
10.6998
30
9.16
0
VERTEX
10
6.15524
20
10.6949
30
9.16
0
VERTEX
10
6.17507
20
10.6998
30
9.16
0
VERTEX
10
6.19489
20
10.6949
30
9.16
0
VERTEX
10
6.21472
20
10.6998
30
9.16
0
VERTEX
10
6.21967
20
10.7097
30
9.16
0
VERTEX
10
6.22958
20
10.7097
30
9.16
0
VERTEX
10
6.24941
20
10.7246
30
9.16
0
VERTEX
10
6.28905
20
10.7296
30
9.16
0
VERTEX
10
6.32375
20
10.7444
30
9.16
0
VERTEX
10
6.36339
20
10.7494
30
9.16
0
VERTEX
10
6.3733
20
10.7692
30
9.16
0
VERTEX
10
6.37826
20
10.8088
30
9.16
0
VERTEX
10
6.39808
20
10.8485
30
9.16
0
VERTEX
10
6.39808
20
10.8584
30
9.16
0
VERTEX
10
6.408
20
10.8634
30
9.16
0
VERTEX
10
6.42286
20
10.903
30
9.16
0
VERTEX
10
6.34357
20
10.908
30
9.16
0
VERTEX
10
6.18498
20
10.8931
30
9.16
0
VERTEX
10
6.16516
20
10.8931
30
9.16
0
VERTEX
10
6.14533
20
10.8782
30
9.16
0
VERTEX
10
6.12551
20
10.8733
30
9.16
0
VERTEX
10
6.08586
20
10.8782
30
9.16
0
VERTEX
10
6.06604
20
10.8782
30
9.16
0
VERTEX
10
6.05613
20
10.8733
30
9.16
0
SEQEND
0
ENDSEC
0
EOF
