0
SECTION
2
ENTITIES
0
POLYLINE
62
31
66
1
70
1
3
contour
0
VERTEX
10
9.78905
20
7.79474
30
3.08
0
VERTEX
10
9.79882
20
7.7817
30
3.08
0
VERTEX
10
9.82163
20
7.77193
30
3.08
0
VERTEX
10
9.84444
20
7.74912
30
3.08
0
VERTEX
10
9.8477
20
7.73608
30
3.08
0
VERTEX
10
9.85748
20
7.72631
30
3.08
0
VERTEX
10
9.85422
20
7.72305
30
3.08
0
VERTEX
10
9.87377
20
7.70024
30
3.08
0
VERTEX
10
9.89984
20
7.67743
30
3.08
0
VERTEX
10
9.91939
20
7.65462
30
3.08
0
VERTEX
10
9.92265
20
7.64158
30
3.08
0
VERTEX
10
9.93243
20
7.63181
30
3.08
0
VERTEX
10
9.93243
20
7.62529
30
3.08
0
VERTEX
10
9.9422
20
7.61551
30
3.08
0
VERTEX
10
9.94546
20
7.60248
30
3.08
0
VERTEX
10
9.96175
20
7.57967
30
3.08
0
VERTEX
10
9.96501
20
7.56663
30
3.08
0
VERTEX
10
10.0009
20
7.51775
30
3.08
0
VERTEX
10
10.0041
20
7.50472
30
3.08
0
VERTEX
10
10.0139
20
7.49168
30
3.08
0
VERTEX
10
10.0139
20
7.48517
30
3.08
0
VERTEX
10
10.0302
20
7.46887
30
3.08
0
VERTEX
10
10.1345
20
7.46561
30
3.08
0
VERTEX
10
10.1605
20
7.4591
30
3.08
0
VERTEX
10
10.2648
20
7.45584
30
3.08
0
VERTEX
10
10.4734
20
7.46235
30
3.08
0
VERTEX
10
10.4799
20
7.46235
30
3.08
0
VERTEX
10
10.4897
20
7.47539
30
3.08
0
VERTEX
10
10.4897
20
7.57967
30
3.08
0
VERTEX
10
10.4864
20
7.63181
30
3.08
0
VERTEX
10
10.4831
20
7.65787
30
3.08
0
VERTEX
10
10.4897
20
7.71001
30
3.08
0
VERTEX
10
10.4962
20
7.73608
30
3.08
0
VERTEX
10
10.5385
20
7.77193
30
3.08
0
VERTEX
10
10.5483
20
7.7817
30
3.08
0
VERTEX
10
10.5548
20
7.78496
30
3.08
0
VERTEX
10
10.5581
20
7.81103
30
3.08
0
VERTEX
10
10.5646
20
7.82407
30
3.08
0
VERTEX
10
10.5483
20
7.92834
30
3.08
0
VERTEX
10
10.5451
20
7.95441
30
3.08
0
VERTEX
10
10.5451
20
7.96093
30
3.08
0
VERTEX
10
10.5353
20
7.97397
30
3.08
0
VERTEX
10
10.5288
20
8.00004
30
3.08
0
VERTEX
10
10.5157
20
8.00329
30
3.08
0
VERTEX
10
10.4994
20
8.02285
30
3.08
0
VERTEX
10
10.4831
20
8.04892
30
3.08
0
VERTEX
10
10.4375
20
8.08802
30
3.08
0
VERTEX
10
10.3984
20
8.1369
30
3.08
0
VERTEX
10
10.3528
20
8.18252
30
3.08
0
VERTEX
10
10.3398
20
8.1923
30
3.08
0
VERTEX
10
10.3267
20
8.19556
30
3.08
0
VERTEX
10
10.3202
20
8.20207
30
3.08
0
VERTEX
10
10.2941
20
8.20533
30
3.08
0
VERTEX
10
10.2681
20
8.21511
30
3.08
0
VERTEX
10
10.2159
20
8.22488
30
3.08
0
VERTEX
10
10.2029
20
8.22488
30
3.08
0
VERTEX
10
10.1508
20
8.24444
30
3.08
0
VERTEX
10
10.1442
20
8.24444
30
3.08
0
VERTEX
10
10.1345
20
8.2314
30
3.08
0
VERTEX
10
10.0823
20
8.22814
30
3.08
0
VERTEX
10
10.0693
20
8.22488
30
3.08
0
VERTEX
10
10.0563
20
8.21511
30
3.08
0
VERTEX
10
10.0432
20
8.21185
30
3.08
0
VERTEX
10
10.0237
20
8.18904
30
3.08
0
VERTEX
10
10.0172
20
8.17926
30
3.08
0
VERTEX
10
10.0041
20
8.16623
30
3.08
0
VERTEX
10
9.99434
20
8.14016
30
3.08
0
VERTEX
10
9.99434
20
8.12712
30
3.08
0
VERTEX
10
9.95524
20
8.08476
30
3.08
0
VERTEX
10
9.90962
20
8.04892
30
3.08
0
VERTEX
10
9.88681
20
8.02936
30
3.08
0
VERTEX
10
9.86399
20
8.00329
30
3.08
0
VERTEX
10
9.85422
20
7.99678
30
3.08
0
VERTEX
10
9.85422
20
7.99026
30
3.08
0
VERTEX
10
9.84118
20
7.98374
30
3.08
0
VERTEX
10
9.82489
20
7.96093
30
3.08
0
VERTEX
10
9.82163
20
7.93486
30
3.08
0
VERTEX
10
9.81186
20
7.92183
30
3.08
0
VERTEX
10
9.80534
20
7.89576
30
3.08
0
VERTEX
10
9.80534
20
7.88924
30
3.08
0
VERTEX
10
9.79556
20
7.87621
30
3.08
0
VERTEX
10
9.78905
20
7.82407
30
3.08
0
VERTEX
10
9.78905
20
7.798
30
3.08
0
SEQEND
0
POLYLINE
62
224
66
1
70
1
3
mitochondrion
0
VERTEX
10
10.1686
20
7.86569
30
3.08
0
VERTEX
10
10.1764
20
7.84494
30
3.08
0
VERTEX
10
10.1764
20
7.83975
30
3.08
0
VERTEX
10
10.1842
20
7.83197
30
3.08
0
VERTEX
10
10.1868
20
7.8216
30
3.08
0
VERTEX
10
10.2205
20
7.7827
30
3.08
0
VERTEX
10
10.2308
20
7.77751
30
3.08
0
VERTEX
10
10.236
20
7.77233
30
3.08
0
VERTEX
10
10.2749
20
7.75676
30
3.08
0
VERTEX
10
10.2957
20
7.75158
30
3.08
0
VERTEX
10
10.3372
20
7.75158
30
3.08
0
VERTEX
10
10.3579
20
7.75158
30
3.08
0
VERTEX
10
10.3761
20
7.76455
30
3.08
0
VERTEX
10
10.3916
20
7.7827
30
3.08
0
VERTEX
10
10.3968
20
7.80345
30
3.08
0
VERTEX
10
10.3942
20
7.84494
30
3.08
0
VERTEX
10
10.389
20
7.86569
30
3.08
0
VERTEX
10
10.3683
20
7.90718
30
3.08
0
VERTEX
10
10.3527
20
7.92533
30
3.08
0
VERTEX
10
10.3449
20
7.93571
30
3.08
0
VERTEX
10
10.3372
20
7.94089
30
3.08
0
VERTEX
10
10.3268
20
7.95127
30
3.08
0
VERTEX
10
10.306
20
7.95905
30
3.08
0
VERTEX
10
10.2879
20
7.97461
30
3.08
0
VERTEX
10
10.2464
20
7.97461
30
3.08
0
VERTEX
10
10.2257
20
7.96942
30
3.08
0
VERTEX
10
10.2231
20
7.97201
30
3.08
0
VERTEX
10
10.2127
20
7.96423
30
3.08
0
VERTEX
10
10.2023
20
7.96164
30
3.08
0
VERTEX
10
10.1868
20
7.94089
30
3.08
0
VERTEX
10
10.1764
20
7.92015
30
3.08
0
VERTEX
10
10.1712
20
7.91496
30
3.08
0
VERTEX
10
10.1686
20
7.87347
30
3.08
0
VERTEX
10
10.1686
20
7.86828
30
3.08
0
SEQEND
0
POLYLINE
62
227
66
1
70
1
3
endoplasmic_reticulum
0
VERTEX
10
10.2027
20
8.1013
30
3.08
0
VERTEX
10
10.212
20
8.08824
30
3.08
0
VERTEX
10
10.2195
20
8.08264
30
3.08
0
VERTEX
10
10.2195
20
8.07891
30
3.08
0
VERTEX
10
10.2232
20
8.07704
30
3.08
0
VERTEX
10
10.2232
20
8.07331
30
3.08
0
VERTEX
10
10.2363
20
8.06025
30
3.08
0
VERTEX
10
10.2493
20
8.05092
30
3.08
0
VERTEX
10
10.2568
20
8.04345
30
3.08
0
VERTEX
10
10.2867
20
8.04159
30
3.08
0
VERTEX
10
10.2941
20
8.04159
30
3.08
0
VERTEX
10
10.2979
20
8.04159
30
3.08
0
VERTEX
10
10.3016
20
8.04532
30
3.08
0
VERTEX
10
10.3091
20
8.04532
30
3.08
0
VERTEX
10
10.3221
20
8.05465
30
3.08
0
VERTEX
10
10.3259
20
8.06025
30
3.08
0
VERTEX
10
10.324
20
8.06771
30
3.08
0
VERTEX
10
10.3128
20
8.08078
30
3.08
0
VERTEX
10
10.2979
20
8.09197
30
3.08
0
VERTEX
10
10.2979
20
8.09571
30
3.08
0
VERTEX
10
10.2904
20
8.1013
30
3.08
0
VERTEX
10
10.2867
20
8.10504
30
3.08
0
VERTEX
10
10.2792
20
8.1069
30
3.08
0
VERTEX
10
10.2755
20
8.1069
30
3.08
0
VERTEX
10
10.2699
20
8.11437
30
3.08
0
VERTEX
10
10.2661
20
8.11437
30
3.08
0
VERTEX
10
10.2568
20
8.12557
30
3.08
0
VERTEX
10
10.2437
20
8.13303
30
3.08
0
VERTEX
10
10.2288
20
8.14609
30
3.08
0
VERTEX
10
10.2269
20
8.14796
30
3.08
0
VERTEX
10
10.2213
20
8.1181
30
3.08
0
VERTEX
10
10.2139
20
8.11623
30
3.08
0
VERTEX
10
10.2101
20
8.11623
30
3.08
0
VERTEX
10
10.2045
20
8.11064
30
3.08
0
VERTEX
10
10.2027
20
8.10317
30
3.08
0
SEQEND
0
POLYLINE
62
227
66
1
70
1
3
endoplasmic_reticulum
0
VERTEX
10
9.8369
20
7.83257
30
3.08
0
VERTEX
10
9.84063
20
7.82883
30
3.08
0
VERTEX
10
9.87049
20
7.83257
30
3.08
0
VERTEX
10
9.87796
20
7.8363
30
3.08
0
VERTEX
10
9.88169
20
7.8363
30
3.08
0
VERTEX
10
9.88355
20
7.84003
30
3.08
0
VERTEX
10
9.88729
20
7.84003
30
3.08
0
VERTEX
10
9.90035
20
7.84936
30
3.08
0
VERTEX
10
9.91528
20
7.8531
30
3.08
0
VERTEX
10
9.92274
20
7.85496
30
3.08
0
VERTEX
10
9.92834
20
7.86056
30
3.08
0
VERTEX
10
9.94141
20
7.86616
30
3.08
0
VERTEX
10
9.94514
20
7.86989
30
3.08
0
VERTEX
10
9.96007
20
7.87549
30
3.08
0
VERTEX
10
9.96753
20
7.88296
30
3.08
0
VERTEX
10
9.975
20
7.88482
30
3.08
0
VERTEX
10
10.003
20
7.90348
30
3.08
0
VERTEX
10
10.0105
20
7.90535
30
3.08
0
VERTEX
10
10.0142
20
7.90908
30
3.08
0
VERTEX
10
10.0273
20
7.91468
30
3.08
0
VERTEX
10
10.031
20
7.92215
30
3.08
0
VERTEX
10
10.0347
20
7.92401
30
3.08
0
VERTEX
10
10.0347
20
7.92775
30
3.08
0
VERTEX
10
10.0385
20
7.93148
30
3.08
0
VERTEX
10
10.0385
20
7.93521
30
3.08
0
VERTEX
10
10.0422
20
7.93894
30
3.08
0
VERTEX
10
10.044
20
7.94641
30
3.08
0
VERTEX
10
10.0459
20
7.95014
30
3.08
0
VERTEX
10
10.0534
20
7.95201
30
3.08
0
VERTEX
10
10.0646
20
7.96694
30
3.08
0
VERTEX
10
10.0702
20
7.9744
30
3.08
0
VERTEX
10
10.0702
20
7.98187
30
3.08
0
VERTEX
10
10.0776
20
7.98746
30
3.08
0
VERTEX
10
10.0814
20
7.9912
30
3.08
0
VERTEX
10
10.0814
20
7.99493
30
3.08
0
VERTEX
10
10.0926
20
8.00799
30
3.08
0
VERTEX
10
10.0963
20
8.01546
30
3.08
0
VERTEX
10
10.1112
20
8.02292
30
3.08
0
VERTEX
10
10.1224
20
8.03599
30
3.08
0
VERTEX
10
10.1224
20
8.05092
30
3.08
0
VERTEX
10
10.1206
20
8.05838
30
3.08
0
VERTEX
10
10.1206
20
8.06211
30
3.08
0
VERTEX
10
10.115
20
8.06771
30
3.08
0
VERTEX
10
10.1112
20
8.06771
30
3.08
0
VERTEX
10
10.1094
20
8.07144
30
3.08
0
VERTEX
10
10.1019
20
8.07144
30
3.08
0
VERTEX
10
10.087
20
8.07704
30
3.08
0
VERTEX
10
10.072
20
8.07891
30
3.08
0
VERTEX
10
10.0646
20
8.07891
30
3.08
0
VERTEX
10
10.0571
20
8.08264
30
3.08
0
VERTEX
10
10.0534
20
8.08264
30
3.08
0
VERTEX
10
10.0496
20
8.09011
30
3.08
0
VERTEX
10
10.0459
20
8.09011
30
3.08
0
VERTEX
10
10.0329
20
8.10317
30
3.08
0
VERTEX
10
10.0254
20
8.10877
30
3.08
0
VERTEX
10
10.0179
20
8.10877
30
3.08
0
VERTEX
10
10.003
20
8.09944
30
3.08
0
VERTEX
10
9.98993
20
8.08637
30
3.08
0
VERTEX
10
9.9862
20
8.08078
30
3.08
0
VERTEX
10
9.97873
20
8.07518
30
3.08
0
VERTEX
10
9.975
20
8.06025
30
3.08
0
VERTEX
10
9.975
20
8.05651
30
3.08
0
VERTEX
10
9.97127
20
8.05278
30
3.08
0
VERTEX
10
9.97127
20
8.04905
30
3.08
0
VERTEX
10
9.96753
20
8.04532
30
3.08
0
VERTEX
10
9.96567
20
8.03785
30
3.08
0
VERTEX
10
9.95634
20
8.02292
30
3.08
0
VERTEX
10
9.9526
20
8.01546
30
3.08
0
VERTEX
10
9.94887
20
8.01359
30
3.08
0
VERTEX
10
9.94701
20
8.00613
30
3.08
0
VERTEX
10
9.94701
20
8.00239
30
3.08
0
VERTEX
10
9.92834
20
7.9744
30
3.08
0
VERTEX
10
9.91901
20
7.95947
30
3.08
0
VERTEX
10
9.91341
20
7.94454
30
3.08
0
VERTEX
10
9.90782
20
7.93894
30
3.08
0
VERTEX
10
9.89662
20
7.90908
30
3.08
0
VERTEX
10
9.88169
20
7.89789
30
3.08
0
VERTEX
10
9.87796
20
7.89789
30
3.08
0
VERTEX
10
9.86303
20
7.88855
30
3.08
0
VERTEX
10
9.8481
20
7.88296
30
3.08
0
VERTEX
10
9.83876
20
7.87362
30
3.08
0
VERTEX
10
9.8369
20
7.84376
30
3.08
0
VERTEX
10
9.8369
20
7.8363
30
3.08
0
VERTEX
10
9.8369
20
7.83443
30
3.08
0
SEQEND
0
POLYLINE
62
227
66
1
70
1
3
endoplasmic_reticulum
0
VERTEX
10
10.1131
20
7.88109
30
3.08
0
VERTEX
10
10.1206
20
7.86616
30
3.08
0
VERTEX
10
10.1262
20
7.86056
30
3.08
0
VERTEX
10
10.1411
20
7.86243
30
3.08
0
VERTEX
10
10.1486
20
7.86429
30
3.08
0
VERTEX
10
10.1467
20
7.87922
30
3.08
0
VERTEX
10
10.1411
20
7.89415
30
3.08
0
VERTEX
10
10.128
20
7.90535
30
3.08
0
VERTEX
10
10.1206
20
7.90722
30
3.08
0
VERTEX
10
10.1168
20
7.89975
30
3.08
0
VERTEX
10
10.1131
20
7.89789
30
3.08
0
VERTEX
10
10.1131
20
7.88296
30
3.08
0
SEQEND
0
POLYLINE
62
227
66
1
70
1
3
endoplasmic_reticulum
0
VERTEX
10
10.3688
20
7.54517
30
3.08
0
VERTEX
10
10.3706
20
7.5377
30
3.08
0
VERTEX
10
10.3818
20
7.52651
30
3.08
0
VERTEX
10
10.3968
20
7.52837
30
3.08
0
VERTEX
10
10.4061
20
7.54144
30
3.08
0
VERTEX
10
10.408
20
7.54703
30
3.08
0
VERTEX
10
10.4136
20
7.5545
30
3.08
0
VERTEX
10
10.4136
20
7.55823
30
3.08
0
VERTEX
10
10.4285
20
7.56756
30
3.08
0
VERTEX
10
10.436
20
7.56943
30
3.08
0
VERTEX
10
10.4397
20
7.57316
30
3.08
0
VERTEX
10
10.4397
20
7.58809
30
3.08
0
VERTEX
10
10.436
20
7.60302
30
3.08
0
VERTEX
10
10.4341
20
7.61049
30
3.08
0
VERTEX
10
10.4285
20
7.61795
30
3.08
0
VERTEX
10
10.4248
20
7.61982
30
3.08
0
VERTEX
10
10.4098
20
7.61608
30
3.08
0
VERTEX
10
10.3949
20
7.60675
30
3.08
0
VERTEX
10
10.3818
20
7.59369
30
3.08
0
VERTEX
10
10.3744
20
7.58809
30
3.08
0
VERTEX
10
10.3706
20
7.58436
30
3.08
0
VERTEX
10
10.3688
20
7.5545
30
3.08
0
VERTEX
10
10.3688
20
7.54703
30
3.08
0
SEQEND
0
ENDSEC
0
EOF
