0
SECTION
2
ENTITIES
0
POLYLINE
62
31
66
1
70
1
3
contour
0
VERTEX
10
7.18381
20
8.87691
30
7.92
0
VERTEX
10
7.19568
20
8.86109
30
7.92
0
VERTEX
10
7.20359
20
8.85318
30
7.92
0
VERTEX
10
7.2115
20
8.85713
30
7.92
0
VERTEX
10
7.21546
20
8.87296
30
7.92
0
VERTEX
10
7.23524
20
8.89273
30
7.92
0
VERTEX
10
7.23128
20
8.90856
30
7.92
0
VERTEX
10
7.21941
20
8.92438
30
7.92
0
VERTEX
10
7.22733
20
8.92834
30
7.92
0
VERTEX
10
7.19568
20
8.93229
30
7.92
0
VERTEX
10
7.18381
20
8.92043
30
7.92
0
VERTEX
10
7.18381
20
8.88878
30
7.92
0
VERTEX
10
7.18381
20
8.88087
30
7.92
0
SEQEND
0
POLYLINE
62
31
66
1
70
1
3
contour
0
VERTEX
10
7.6867
20
10.3203
30
7.92
0
VERTEX
10
7.69042
20
10.3054
30
7.92
0
VERTEX
10
7.68856
20
10.2458
30
7.92
0
VERTEX
10
7.69414
20
10.216
30
7.92
0
VERTEX
10
7.70531
20
10.1863
30
7.92
0
VERTEX
10
7.71089
20
10.1565
30
7.92
0
VERTEX
10
7.71089
20
10.1416
30
7.92
0
VERTEX
10
7.7202
20
10.1118
30
7.92
0
VERTEX
10
7.7202
20
10.0969
30
7.92
0
VERTEX
10
7.72578
20
10.0672
30
7.92
0
VERTEX
10
7.7295
20
10.0076
30
7.92
0
VERTEX
10
7.73881
20
9.9499
30
7.92
0
VERTEX
10
7.73881
20
9.89034
30
7.92
0
VERTEX
10
7.74253
20
9.86056
30
7.92
0
VERTEX
10
7.74998
20
9.84753
30
7.92
0
VERTEX
10
7.75184
20
9.84009
30
7.92
0
VERTEX
10
7.763
20
9.82706
30
7.92
0
VERTEX
10
7.76673
20
9.81961
30
7.92
0
VERTEX
10
7.77976
20
9.80659
30
7.92
0
VERTEX
10
7.79837
20
9.78239
30
7.92
0
VERTEX
10
7.80395
20
9.77495
30
7.92
0
VERTEX
10
7.8114
20
9.77308
30
7.92
0
VERTEX
10
7.81512
20
9.77308
30
7.92
0
VERTEX
10
7.81884
20
9.76564
30
7.92
0
VERTEX
10
7.8449
20
9.74144
30
7.92
0
VERTEX
10
7.87468
20
9.73586
30
7.92
0
VERTEX
10
7.90445
20
9.73586
30
7.92
0
VERTEX
10
7.91934
20
9.73586
30
7.92
0
VERTEX
10
7.93423
20
9.73958
30
7.92
0
VERTEX
10
7.94912
20
9.75261
30
7.92
0
VERTEX
10
7.95285
20
9.75261
30
7.92
0
VERTEX
10
7.98076
20
9.77867
30
7.92
0
VERTEX
10
7.98821
20
9.78611
30
7.92
0
VERTEX
10
8.0031
20
9.78984
30
7.92
0
VERTEX
10
8.00868
20
9.79728
30
7.92
0
VERTEX
10
8.02357
20
9.79914
30
7.92
0
VERTEX
10
8.02729
20
9.79728
30
7.92
0
VERTEX
10
8.05707
20
9.80472
30
7.92
0
VERTEX
10
8.08685
20
9.80659
30
7.92
0
VERTEX
10
8.10174
20
9.80845
30
7.92
0
VERTEX
10
8.10919
20
9.80845
30
7.92
0
VERTEX
10
8.12407
20
9.81961
30
7.92
0
VERTEX
10
8.13152
20
9.82148
30
7.92
0
VERTEX
10
8.13524
20
9.8252
30
7.92
0
VERTEX
10
8.1371
20
9.83264
30
7.92
0
VERTEX
10
8.13896
20
9.83637
30
7.92
0
VERTEX
10
8.14641
20
9.83823
30
7.92
0
VERTEX
10
8.14827
20
9.84567
30
7.92
0
VERTEX
10
8.16874
20
9.87545
30
7.92
0
VERTEX
10
8.18549
20
9.90523
30
7.92
0
VERTEX
10
8.19108
20
9.92012
30
7.92
0
VERTEX
10
8.19666
20
9.92756
30
7.92
0
VERTEX
10
8.20224
20
9.94245
30
7.92
0
VERTEX
10
8.21155
20
9.95734
30
7.92
0
VERTEX
10
8.21527
20
9.96479
30
7.92
0
VERTEX
10
8.21527
20
9.96851
30
7.92
0
VERTEX
10
8.2283
20
9.97409
30
7.92
0
VERTEX
10
8.24133
20
9.98526
30
7.92
0
VERTEX
10
8.24691
20
9.9927
30
7.92
0
VERTEX
10
8.24691
20
9.99643
30
7.92
0
VERTEX
10
8.2525
20
10.0039
30
7.92
0
VERTEX
10
8.25436
20
10.0113
30
7.92
0
VERTEX
10
8.25994
20
10.0188
30
7.92
0
VERTEX
10
8.2618
20
10.0262
30
7.92
0
VERTEX
10
8.26739
20
10.0337
30
7.92
0
VERTEX
10
8.26739
20
10.0411
30
7.92
0
VERTEX
10
8.28414
20
10.069
30
7.92
0
VERTEX
10
8.29344
20
10.0988
30
7.92
0
VERTEX
10
8.29716
20
10.1062
30
7.92
0
VERTEX
10
8.29716
20
10.1658
30
7.92
0
VERTEX
10
8.2953
20
10.1956
30
7.92
0
VERTEX
10
8.29158
20
10.2105
30
7.92
0
VERTEX
10
8.29158
20
10.2179
30
7.92
0
VERTEX
10
8.27855
20
10.2477
30
7.92
0
VERTEX
10
8.27483
20
10.2514
30
7.92
0
VERTEX
10
8.27297
20
10.2589
30
7.92
0
VERTEX
10
8.26739
20
10.2644
30
7.92
0
VERTEX
10
8.26552
20
10.2719
30
7.92
0
VERTEX
10
8.25994
20
10.2775
30
7.92
0
VERTEX
10
8.25436
20
10.2924
30
7.92
0
VERTEX
10
8.24505
20
10.3054
30
7.92
0
VERTEX
10
8.24319
20
10.3128
30
7.92
0
VERTEX
10
8.23761
20
10.3184
30
7.92
0
VERTEX
10
8.23761
20
10.3221
30
7.92
0
VERTEX
10
8.23388
20
10.324
30
7.92
0
VERTEX
10
8.2283
20
10.337
30
7.92
0
VERTEX
10
8.22644
20
10.3445
30
7.92
0
VERTEX
10
8.22272
20
10.3482
30
7.92
0
VERTEX
10
8.22086
20
10.3556
30
7.92
0
VERTEX
10
8.20411
20
10.3836
30
7.92
0
VERTEX
10
8.17805
20
10.4115
30
7.92
0
VERTEX
10
8.17433
20
10.4115
30
7.92
0
VERTEX
10
8.15944
20
10.4226
30
7.92
0
VERTEX
10
8.14827
20
10.4357
30
7.92
0
VERTEX
10
8.14269
20
10.4413
30
7.92
0
VERTEX
10
8.12966
20
10.4468
30
7.92
0
VERTEX
10
8.12221
20
10.4487
30
7.92
0
VERTEX
10
8.11291
20
10.458
30
7.92
0
VERTEX
10
8.10546
20
10.458
30
7.92
0
VERTEX
10
8.1036
20
10.4654
30
7.92
0
VERTEX
10
8.09616
20
10.4673
30
7.92
0
VERTEX
10
8.08499
20
10.4766
30
7.92
0
VERTEX
10
8.07754
20
10.4841
30
7.92
0
VERTEX
10
8.06266
20
10.4878
30
7.92
0
VERTEX
10
8.05521
20
10.4915
30
7.92
0
VERTEX
10
8.04218
20
10.5064
30
7.92
0
VERTEX
10
8.02729
20
10.512
30
7.92
0
VERTEX
10
8.0124
20
10.525
30
7.92
0
VERTEX
10
8.00868
20
10.525
30
7.92
0
VERTEX
10
7.99938
20
10.538
30
7.92
0
VERTEX
10
7.98449
20
10.5455
30
7.92
0
VERTEX
10
7.97704
20
10.5473
30
7.92
0
VERTEX
10
7.91748
20
10.538
30
7.92
0
VERTEX
10
7.8877
20
10.5362
30
7.92
0
VERTEX
10
7.87468
20
10.5306
30
7.92
0
VERTEX
10
7.85979
20
10.5287
30
7.92
0
VERTEX
10
7.8449
20
10.5213
30
7.92
0
VERTEX
10
7.83745
20
10.5157
30
7.92
0
VERTEX
10
7.82256
20
10.5138
30
7.92
0
VERTEX
10
7.81512
20
10.5083
30
7.92
0
VERTEX
10
7.80767
20
10.5064
30
7.92
0
VERTEX
10
7.80395
20
10.5064
30
7.92
0
VERTEX
10
7.79651
20
10.5008
30
7.92
0
VERTEX
10
7.78906
20
10.4989
30
7.92
0
VERTEX
10
7.78534
20
10.4952
30
7.92
0
VERTEX
10
7.78162
20
10.4952
30
7.92
0
VERTEX
10
7.76673
20
10.4822
30
7.92
0
VERTEX
10
7.76114
20
10.4766
30
7.92
0
VERTEX
10
7.75742
20
10.4766
30
7.92
0
VERTEX
10
7.74253
20
10.4673
30
7.92
0
VERTEX
10
7.72392
20
10.4413
30
7.92
0
VERTEX
10
7.72206
20
10.4338
30
7.92
0
VERTEX
10
7.71089
20
10.4208
30
7.92
0
VERTEX
10
7.71089
20
10.4171
30
7.92
0
VERTEX
10
7.70345
20
10.4096
30
7.92
0
VERTEX
10
7.69972
20
10.3798
30
7.92
0
VERTEX
10
7.69786
20
10.3649
30
7.92
0
VERTEX
10
7.69414
20
10.3575
30
7.92
0
VERTEX
10
7.69414
20
10.3501
30
7.92
0
VERTEX
10
7.68856
20
10.3352
30
7.92
0
VERTEX
10
7.6867
20
10.3221
30
7.92
0
SEQEND
0
POLYLINE
62
224
66
1
70
1
3
mitochondrion
0
VERTEX
10
7.91294
20
9.98607
30
7.92
0
VERTEX
10
7.91711
20
9.96382
30
7.92
0
VERTEX
10
7.92545
20
9.94296
30
7.92
0
VERTEX
10
7.94214
20
9.9235
30
7.92
0
VERTEX
10
7.96438
20
9.91098
30
7.92
0
VERTEX
10
7.96994
20
9.90959
30
7.92
0
VERTEX
10
7.97273
20
9.90681
30
7.92
0
VERTEX
10
7.98385
20
9.90403
30
7.92
0
VERTEX
10
7.99497
20
9.90403
30
7.92
0
VERTEX
10
8.00053
20
9.90125
30
7.92
0
VERTEX
10
8.02278
20
9.90125
30
7.92
0
VERTEX
10
8.0339
20
9.90264
30
7.92
0
VERTEX
10
8.04503
20
9.90681
30
7.92
0
VERTEX
10
8.05059
20
9.90681
30
7.92
0
VERTEX
10
8.05476
20
9.91098
30
7.92
0
VERTEX
10
8.05754
20
9.91098
30
7.92
0
VERTEX
10
8.06032
20
9.91655
30
7.92
0
VERTEX
10
8.07145
20
9.9235
30
7.92
0
VERTEX
10
8.08118
20
9.93323
30
7.92
0
VERTEX
10
8.08396
20
9.93879
30
7.92
0
VERTEX
10
8.08952
20
9.94435
30
7.92
0
VERTEX
10
8.09091
20
9.94992
30
7.92
0
VERTEX
10
8.09786
20
9.96104
30
7.92
0
VERTEX
10
8.10064
20
9.98329
30
7.92
0
VERTEX
10
8.10064
20
9.98607
30
7.92
0
VERTEX
10
8.10343
20
9.98746
30
7.92
0
VERTEX
10
8.10482
20
10.0097
30
7.92
0
VERTEX
10
8.10482
20
10.0208
30
7.92
0
VERTEX
10
8.10204
20
10.032
30
7.92
0
VERTEX
10
8.09647
20
10.0417
30
7.92
0
VERTEX
10
8.09369
20
10.0431
30
7.92
0
VERTEX
10
8.09369
20
10.0459
30
7.92
0
VERTEX
10
8.08813
20
10.0514
30
7.92
0
VERTEX
10
8.08535
20
10.057
30
7.92
0
VERTEX
10
8.08535
20
10.0625
30
7.92
0
VERTEX
10
8.08257
20
10.0639
30
7.92
0
VERTEX
10
8.08257
20
10.0667
30
7.92
0
VERTEX
10
8.07423
20
10.0751
30
7.92
0
VERTEX
10
8.06449
20
10.0862
30
7.92
0
VERTEX
10
8.05337
20
10.0931
30
7.92
0
VERTEX
10
8.0492
20
10.0973
30
7.92
0
VERTEX
10
8.04642
20
10.0973
30
7.92
0
VERTEX
10
8.03668
20
10.1056
30
7.92
0
VERTEX
10
8.03112
20
10.1098
30
7.92
0
VERTEX
10
8.02834
20
10.114
30
7.92
0
VERTEX
10
8.01722
20
10.1209
30
7.92
0
VERTEX
10
7.99636
20
10.1293
30
7.92
0
VERTEX
10
7.98524
20
10.1307
30
7.92
0
VERTEX
10
7.97968
20
10.1307
30
7.92
0
VERTEX
10
7.9769
20
10.1307
30
7.92
0
VERTEX
10
7.97551
20
10.1279
30
7.92
0
VERTEX
10
7.96438
20
10.1265
30
7.92
0
VERTEX
10
7.95882
20
10.1251
30
7.92
0
VERTEX
10
7.94492
20
10.107
30
7.92
0
VERTEX
10
7.93796
20
10.0973
30
7.92
0
VERTEX
10
7.93518
20
10.0945
30
7.92
0
VERTEX
10
7.9324
20
10.0834
30
7.92
0
VERTEX
10
7.9324
20
10.0806
30
7.92
0
VERTEX
10
7.92684
20
10.0751
30
7.92
0
VERTEX
10
7.92406
20
10.0695
30
7.92
0
VERTEX
10
7.92128
20
10.0667
30
7.92
0
VERTEX
10
7.92128
20
10.0639
30
7.92
0
VERTEX
10
7.9185
20
10.0625
30
7.92
0
VERTEX
10
7.91572
20
10.0514
30
7.92
0
VERTEX
10
7.91572
20
10.0292
30
7.92
0
VERTEX
10
7.91294
20
10.0236
30
7.92
0
VERTEX
10
7.91294
20
10.0014
30
7.92
0
VERTEX
10
7.91294
20
9.99024
30
7.92
0
VERTEX
10
7.91294
20
9.98746
30
7.92
0
SEQEND
0
POLYLINE
62
227
66
1
70
1
3
endoplasmic_reticulum
0
VERTEX
10
8.14691
20
10.2457
30
7.92
0
VERTEX
10
8.1514
20
10.2395
30
7.92
0
VERTEX
10
8.15319
20
10.2359
30
7.92
0
VERTEX
10
8.16036
20
10.2332
30
7.92
0
VERTEX
10
8.17471
20
10.2341
30
7.92
0
VERTEX
10
8.18905
20
10.2386
30
7.92
0
VERTEX
10
8.19264
20
10.2421
30
7.92
0
VERTEX
10
8.19891
20
10.2448
30
7.92
0
VERTEX
10
8.2016
20
10.2475
30
7.92
0
VERTEX
10
8.2016
20
10.2511
30
7.92
0
VERTEX
10
8.19712
20
10.2547
30
7.92
0
VERTEX
10
8.19622
20
10.2583
30
7.92
0
VERTEX
10
8.19353
20
10.2619
30
7.92
0
VERTEX
10
8.19264
20
10.2663
30
7.92
0
VERTEX
10
8.18905
20
10.2699
30
7.92
0
VERTEX
10
8.18188
20
10.2708
30
7.92
0
VERTEX
10
8.16754
20
10.2681
30
7.92
0
VERTEX
10
8.16036
20
10.2663
30
7.92
0
VERTEX
10
8.15857
20
10.2663
30
7.92
0
VERTEX
10
8.15229
20
10.2601
30
7.92
0
VERTEX
10
8.1496
20
10.2565
30
7.92
0
VERTEX
10
8.14691
20
10.2493
30
7.92
0
VERTEX
10
8.14691
20
10.2466
30
7.92
0
SEQEND
0
POLYLINE
62
227
66
1
70
1
3
endoplasmic_reticulum
0
VERTEX
10
8.14154
20
10.157
30
7.92
0
VERTEX
10
8.14691
20
10.1283
30
7.92
0
VERTEX
10
8.14691
20
10.1265
30
7.92
0
VERTEX
10
8.1514
20
10.1202
30
7.92
0
VERTEX
10
8.15319
20
10.1166
30
7.92
0
VERTEX
10
8.15498
20
10.1148
30
7.92
0
VERTEX
10
8.16933
20
10.1184
30
7.92
0
VERTEX
10
8.17291
20
10.1193
30
7.92
0
VERTEX
10
8.17471
20
10.1211
30
7.92
0
VERTEX
10
8.18188
20
10.1238
30
7.92
0
VERTEX
10
8.18905
20
10.1283
30
7.92
0
VERTEX
10
8.19085
20
10.1283
30
7.92
0
VERTEX
10
8.19712
20
10.1337
30
7.92
0
VERTEX
10
8.20071
20
10.1355
30
7.92
0
VERTEX
10
8.20429
20
10.1355
30
7.92
0
VERTEX
10
8.20788
20
10.1372
30
7.92
0
VERTEX
10
8.20967
20
10.1372
30
7.92
0
VERTEX
10
8.21685
20
10.1426
30
7.92
0
VERTEX
10
8.21953
20
10.1462
30
7.92
0
VERTEX
10
8.21953
20
10.148
30
7.92
0
VERTEX
10
8.22133
20
10.148
30
7.92
0
VERTEX
10
8.23298
20
10.1579
30
7.92
0
VERTEX
10
8.23657
20
10.1588
30
7.92
0
VERTEX
10
8.23836
20
10.1588
30
7.92
0
VERTEX
10
8.24105
20
10.1615
30
7.92
0
VERTEX
10
8.24195
20
10.1632
30
7.92
0
VERTEX
10
8.24374
20
10.1632
30
7.92
0
VERTEX
10
8.24912
20
10.1695
30
7.92
0
VERTEX
10
8.25002
20
10.1839
30
7.92
0
VERTEX
10
8.24733
20
10.191
30
7.92
0
VERTEX
10
8.24733
20
10.1928
30
7.92
0
VERTEX
10
8.24195
20
10.2
30
7.92
0
VERTEX
10
8.23836
20
10.2027
30
7.92
0
VERTEX
10
8.23119
20
10.2027
30
7.92
0
VERTEX
10
8.2276
20
10.2027
30
7.92
0
VERTEX
10
8.22581
20
10.2027
30
7.92
0
VERTEX
10
8.22222
20
10.2
30
7.92
0
VERTEX
10
8.21505
20
10.1982
30
7.92
0
VERTEX
10
8.21147
20
10.1964
30
7.92
0
VERTEX
10
8.20967
20
10.1946
30
7.92
0
VERTEX
10
8.20967
20
10.1928
30
7.92
0
VERTEX
10
8.20698
20
10.1901
30
7.92
0
VERTEX
10
8.20609
20
10.1866
30
7.92
0
VERTEX
10
8.20788
20
10.1848
30
7.92
0
VERTEX
10
8.20698
20
10.1812
30
7.92
0
VERTEX
10
8.19981
20
10.1803
30
7.92
0
VERTEX
10
8.19622
20
10.1785
30
7.92
0
VERTEX
10
8.18905
20
10.1785
30
7.92
0
VERTEX
10
8.18188
20
10.1812
30
7.92
0
VERTEX
10
8.15319
20
10.1812
30
7.92
0
VERTEX
10
8.1496
20
10.1803
30
7.92
0
VERTEX
10
8.14333
20
10.1749
30
7.92
0
VERTEX
10
8.14154
20
10.1713
30
7.92
0
VERTEX
10
8.14154
20
10.1579
30
7.92
0
SEQEND
0
POLYLINE
62
227
66
1
70
1
3
endoplasmic_reticulum
0
VERTEX
10
7.8905
20
10.2403
30
7.92
0
VERTEX
10
7.8923
20
10.2386
30
7.92
0
VERTEX
10
7.89319
20
10.235
30
7.92
0
VERTEX
10
7.89409
20
10.2332
30
7.92
0
VERTEX
10
7.90843
20
10.2341
30
7.92
0
VERTEX
10
7.91561
20
10.235
30
7.92
0
VERTEX
10
7.91919
20
10.2359
30
7.92
0
VERTEX
10
7.92098
20
10.2377
30
7.92
0
VERTEX
10
7.92816
20
10.2386
30
7.92
0
VERTEX
10
7.93533
20
10.2412
30
7.92
0
VERTEX
10
7.93892
20
10.2421
30
7.92
0
VERTEX
10
7.94071
20
10.2421
30
7.92
0
VERTEX
10
7.94161
20
10.2439
30
7.92
0
VERTEX
10
7.94878
20
10.2448
30
7.92
0
VERTEX
10
7.95595
20
10.2475
30
7.92
0
VERTEX
10
7.96312
20
10.2484
30
7.92
0
VERTEX
10
7.96671
20
10.2493
30
7.92
0
VERTEX
10
7.9685
20
10.2493
30
7.92
0
VERTEX
10
7.97209
20
10.252
30
7.92
0
VERTEX
10
7.97567
20
10.2529
30
7.92
0
VERTEX
10
7.98285
20
10.2574
30
7.92
0
VERTEX
10
7.99002
20
10.2601
30
7.92
0
VERTEX
10
7.99719
20
10.261
30
7.92
0
VERTEX
10
8.00078
20
10.2628
30
7.92
0
VERTEX
10
8.01512
20
10.2628
30
7.92
0
VERTEX
10
8.02947
20
10.2646
30
7.92
0
VERTEX
10
8.03664
20
10.2699
30
7.92
0
VERTEX
10
8.04023
20
10.2726
30
7.92
0
VERTEX
10
8.04202
20
10.2744
30
7.92
0
VERTEX
10
8.04202
20
10.2816
30
7.92
0
VERTEX
10
8.03933
20
10.2888
30
7.92
0
VERTEX
10
8.03754
20
10.2923
30
7.92
0
VERTEX
10
8.03126
20
10.2977
30
7.92
0
VERTEX
10
8.02767
20
10.2995
30
7.92
0
VERTEX
10
8.01333
20
10.3004
30
7.92
0
VERTEX
10
7.99898
20
10.2995
30
7.92
0
VERTEX
10
7.9954
20
10.2986
30
7.92
0
VERTEX
10
7.98195
20
10.2897
30
7.92
0
VERTEX
10
7.97657
20
10.2834
30
7.92
0
VERTEX
10
7.97029
20
10.2789
30
7.92
0
VERTEX
10
7.96671
20
10.2771
30
7.92
0
VERTEX
10
7.96492
20
10.2735
30
7.92
0
VERTEX
10
7.96133
20
10.2699
30
7.92
0
VERTEX
10
7.95505
20
10.2655
30
7.92
0
VERTEX
10
7.94788
20
10.2637
30
7.92
0
VERTEX
10
7.94698
20
10.2619
30
7.92
0
VERTEX
10
7.93981
20
10.2592
30
7.92
0
VERTEX
10
7.93264
20
10.2592
30
7.92
0
VERTEX
10
7.93174
20
10.2574
30
7.92
0
VERTEX
10
7.92457
20
10.2565
30
7.92
0
VERTEX
10
7.92278
20
10.2565
30
7.92
0
VERTEX
10
7.92098
20
10.2601
30
7.92
0
VERTEX
10
7.91381
20
10.2592
30
7.92
0
VERTEX
10
7.89947
20
10.2529
30
7.92
0
VERTEX
10
7.89588
20
10.2493
30
7.92
0
VERTEX
10
7.89319
20
10.2475
30
7.92
0
VERTEX
10
7.8905
20
10.2412
30
7.92
0
SEQEND
0
POLYLINE
62
227
66
1
70
1
3
endoplasmic_reticulum
0
VERTEX
10
7.82685
20
9.99111
30
7.92
0
VERTEX
10
7.83133
20
9.97677
30
7.92
0
VERTEX
10
7.83133
20
9.96959
30
7.92
0
VERTEX
10
7.83312
20
9.96601
30
7.92
0
VERTEX
10
7.83492
20
9.96421
30
7.92
0
VERTEX
10
7.83581
20
9.96063
30
7.92
0
VERTEX
10
7.8385
20
9.95794
30
7.92
0
VERTEX
10
7.84568
20
9.95614
30
7.92
0
VERTEX
10
7.84926
20
9.95435
30
7.92
0
VERTEX
10
7.85643
20
9.95435
30
7.92
0
VERTEX
10
7.86002
20
9.95435
30
7.92
0
VERTEX
10
7.86181
20
9.95435
30
7.92
0
VERTEX
10
7.86361
20
9.95614
30
7.92
0
VERTEX
10
7.87078
20
9.95704
30
7.92
0
VERTEX
10
7.87705
20
9.96152
30
7.92
0
VERTEX
10
7.88064
20
9.9678
30
7.92
0
VERTEX
10
7.87795
20
9.99649
30
7.92
0
VERTEX
10
7.87436
20
10.0037
30
7.92
0
VERTEX
10
7.87167
20
10.0072
30
7.92
0
VERTEX
10
7.86988
20
10.0072
30
7.92
0
VERTEX
10
7.86002
20
10.0207
30
7.92
0
VERTEX
10
7.85823
20
10.0225
30
7.92
0
VERTEX
10
7.85464
20
10.0234
30
7.92
0
VERTEX
10
7.85374
20
10.0252
30
7.92
0
VERTEX
10
7.85195
20
10.0252
30
7.92
0
VERTEX
10
7.85016
20
10.027
30
7.92
0
VERTEX
10
7.84299
20
10.0279
30
7.92
0
VERTEX
10
7.82864
20
10.0153
30
7.92
0
VERTEX
10
7.82774
20
10.0081
30
7.92
0
VERTEX
10
7.82685
20
10.0046
30
7.92
0
VERTEX
10
7.82774
20
10.001
30
7.92
0
VERTEX
10
7.82685
20
9.9938
30
7.92
0
VERTEX
10
7.82685
20
9.99201
30
7.92
0
SEQEND
0
ENDSEC
0
EOF
