0
SECTION
2
ENTITIES
0
POLYLINE
62
31
66
1
70
1
3
contour
0
VERTEX
10
7.81403
20
7.68542
30
4.16
0
VERTEX
10
7.81846
20
7.67655
30
4.16
0
VERTEX
10
7.8362
20
7.66546
30
4.16
0
VERTEX
10
7.84064
20
7.66546
30
4.16
0
VERTEX
10
7.84507
20
7.66103
30
4.16
0
VERTEX
10
7.85394
20
7.65881
30
4.16
0
VERTEX
10
7.87168
20
7.64772
30
4.16
0
VERTEX
10
7.88055
20
7.64107
30
4.16
0
VERTEX
10
7.88498
20
7.63664
30
4.16
0
VERTEX
10
7.91824
20
7.62112
30
4.16
0
VERTEX
10
7.92046
20
7.61225
30
4.16
0
VERTEX
10
7.9382
20
7.61003
30
4.16
0
VERTEX
10
7.94707
20
7.60781
30
4.16
0
VERTEX
10
7.98255
20
7.61446
30
4.16
0
VERTEX
10
8.00029
20
7.61446
30
4.16
0
VERTEX
10
8.07124
20
7.62998
30
4.16
0
VERTEX
10
8.08011
20
7.63664
30
4.16
0
VERTEX
10
8.09785
20
7.64107
30
4.16
0
VERTEX
10
8.10229
20
7.64107
30
4.16
0
VERTEX
10
8.10672
20
7.64551
30
4.16
0
VERTEX
10
8.12446
20
7.64994
30
4.16
0
VERTEX
10
8.13333
20
7.64994
30
4.16
0
VERTEX
10
8.13776
20
7.64994
30
4.16
0
VERTEX
10
8.1555
20
7.66103
30
4.16
0
VERTEX
10
8.19098
20
7.67211
30
4.16
0
VERTEX
10
8.20872
20
7.67433
30
4.16
0
VERTEX
10
8.22646
20
7.68098
30
4.16
0
VERTEX
10
8.23533
20
7.68985
30
4.16
0
VERTEX
10
8.2442
20
7.69429
30
4.16
0
VERTEX
10
8.24863
20
7.69429
30
4.16
0
VERTEX
10
8.25307
20
7.69872
30
4.16
0
VERTEX
10
8.26194
20
7.70094
30
4.16
0
VERTEX
10
8.27968
20
7.71203
30
4.16
0
VERTEX
10
8.28633
20
7.7209
30
4.16
0
VERTEX
10
8.30185
20
7.73198
30
4.16
0
VERTEX
10
8.30628
20
7.73198
30
4.16
0
VERTEX
10
8.32402
20
7.74529
30
4.16
0
VERTEX
10
8.33289
20
7.74751
30
4.16
0
VERTEX
10
8.36172
20
7.77855
30
4.16
0
VERTEX
10
8.37502
20
7.79629
30
4.16
0
VERTEX
10
8.37724
20
7.81403
30
4.16
0
VERTEX
10
8.39054
20
7.8495
30
4.16
0
VERTEX
10
8.40163
20
7.86503
30
4.16
0
VERTEX
10
8.41272
20
7.89829
30
4.16
0
VERTEX
10
8.41494
20
7.91603
30
4.16
0
VERTEX
10
8.41937
20
7.9249
30
4.16
0
VERTEX
10
8.41937
20
7.96037
30
4.16
0
VERTEX
10
8.41937
20
7.97811
30
4.16
0
VERTEX
10
8.43267
20
8.01359
30
4.16
0
VERTEX
10
8.43267
20
8.02246
30
4.16
0
VERTEX
10
8.44376
20
8.05794
30
4.16
0
VERTEX
10
8.45263
20
8.07568
30
4.16
0
VERTEX
10
8.45707
20
8.08455
30
4.16
0
VERTEX
10
8.46372
20
8.12002
30
4.16
0
VERTEX
10
8.47259
20
8.12889
30
4.16
0
VERTEX
10
8.47702
20
8.13555
30
4.16
0
VERTEX
10
8.48589
20
8.1422
30
4.16
0
VERTEX
10
8.49476
20
8.14442
30
4.16
0
VERTEX
10
8.49476
20
8.14885
30
4.16
0
VERTEX
10
8.5258
20
8.17768
30
4.16
0
VERTEX
10
8.55906
20
8.20207
30
4.16
0
VERTEX
10
8.5635
20
8.20207
30
4.16
0
VERTEX
10
8.57902
20
8.21759
30
4.16
0
VERTEX
10
8.6145
20
8.22868
30
4.16
0
VERTEX
10
8.68324
20
8.23755
30
4.16
0
VERTEX
10
8.71872
20
8.24198
30
4.16
0
VERTEX
10
8.73645
20
8.24863
30
4.16
0
VERTEX
10
8.74532
20
8.24863
30
4.16
0
VERTEX
10
8.75419
20
8.25528
30
4.16
0
VERTEX
10
8.77193
20
8.2575
30
4.16
0
VERTEX
10
8.80741
20
8.26859
30
4.16
0
VERTEX
10
8.80963
20
8.27302
30
4.16
0
VERTEX
10
8.81406
20
8.27302
30
4.16
0
VERTEX
10
8.81628
20
8.27746
30
4.16
0
VERTEX
10
8.81185
20
8.28633
30
4.16
0
VERTEX
10
8.80963
20
8.28854
30
4.16
0
VERTEX
10
8.82737
20
8.2952
30
4.16
0
VERTEX
10
8.83624
20
8.29741
30
4.16
0
VERTEX
10
8.90719
20
8.2952
30
4.16
0
VERTEX
10
8.97815
20
8.28854
30
4.16
0
VERTEX
10
8.99589
20
8.28411
30
4.16
0
VERTEX
10
9.03137
20
8.28411
30
4.16
0
VERTEX
10
9.10232
20
8.27524
30
4.16
0
VERTEX
10
9.17328
20
8.27524
30
4.16
0
VERTEX
10
9.24423
20
8.26859
30
4.16
0
VERTEX
10
9.31519
20
8.2575
30
4.16
0
VERTEX
10
9.33293
20
8.25307
30
4.16
0
VERTEX
10
9.3418
20
8.25307
30
4.16
0
VERTEX
10
9.35067
20
8.24863
30
4.16
0
VERTEX
10
9.38615
20
8.2442
30
4.16
0
VERTEX
10
9.4571
20
8.24198
30
4.16
0
VERTEX
10
9.49258
20
8.23533
30
4.16
0
VERTEX
10
9.52806
20
8.23311
30
4.16
0
VERTEX
10
9.5458
20
8.23089
30
4.16
0
VERTEX
10
9.56353
20
8.22202
30
4.16
0
VERTEX
10
9.58127
20
8.21981
30
4.16
0
VERTEX
10
9.58571
20
8.21981
30
4.16
0
VERTEX
10
9.59014
20
8.21537
30
4.16
0
VERTEX
10
9.6611
20
8.20428
30
4.16
0
VERTEX
10
9.67884
20
8.19985
30
4.16
0
VERTEX
10
9.82075
20
8.19763
30
4.16
0
VERTEX
10
9.85623
20
8.19985
30
4.16
0
VERTEX
10
9.87397
20
8.20428
30
4.16
0
VERTEX
10
9.88284
20
8.20428
30
4.16
0
VERTEX
10
9.89171
20
8.20872
30
4.16
0
VERTEX
10
9.89392
20
8.20428
30
4.16
0
VERTEX
10
9.90279
20
8.20428
30
4.16
0
VERTEX
10
9.92053
20
8.21315
30
4.16
0
VERTEX
10
9.92275
20
8.21759
30
4.16
0
VERTEX
10
9.93162
20
8.21981
30
4.16
0
VERTEX
10
9.94492
20
8.23755
30
4.16
0
VERTEX
10
9.94936
20
8.23755
30
4.16
0
VERTEX
10
9.95823
20
8.2442
30
4.16
0
VERTEX
10
9.96931
20
8.26194
30
4.16
0
VERTEX
10
9.96931
20
8.26637
30
4.16
0
VERTEX
10
9.97818
20
8.27302
30
4.16
0
VERTEX
10
9.9804
20
8.28189
30
4.16
0
VERTEX
10
9.99592
20
8.2952
30
4.16
0
VERTEX
10
10.0048
20
8.30407
30
4.16
0
VERTEX
10
10.0092
20
8.32181
30
4.16
0
VERTEX
10
10.0225
20
8.33733
30
4.16
0
VERTEX
10
10.0336
20
8.37281
30
4.16
0
VERTEX
10
10.0336
20
8.38167
30
4.16
0
VERTEX
10
10.0381
20
8.39054
30
4.16
0
VERTEX
10
10.0381
20
8.40828
30
4.16
0
VERTEX
10
10.0425
20
8.42602
30
4.16
0
VERTEX
10
10.0425
20
8.4615
30
4.16
0
VERTEX
10
10.0425
20
8.47924
30
4.16
0
VERTEX
10
10.0425
20
8.48811
30
4.16
0
VERTEX
10
10.0381
20
8.49698
30
4.16
0
VERTEX
10
10.0381
20
8.51472
30
4.16
0
VERTEX
10
10.0336
20
8.51915
30
4.16
0
VERTEX
10
10.0292
20
8.53689
30
4.16
0
VERTEX
10
10.0314
20
8.55463
30
4.16
0
VERTEX
10
10.0292
20
8.57237
30
4.16
0
VERTEX
10
10.027
20
8.58124
30
4.16
0
VERTEX
10
10.027
20
8.58567
30
4.16
0
VERTEX
10
10.0225
20
8.59011
30
4.16
0
VERTEX
10
10.0203
20
8.60785
30
4.16
0
VERTEX
10
10.0203
20
8.61228
30
4.16
0
VERTEX
10
10.0114
20
8.61893
30
4.16
0
VERTEX
10
10.0026
20
8.62115
30
4.16
0
VERTEX
10
9.98705
20
8.63889
30
4.16
0
VERTEX
10
9.97818
20
8.64332
30
4.16
0
VERTEX
10
9.97818
20
8.64776
30
4.16
0
VERTEX
10
9.97375
20
8.65219
30
4.16
0
VERTEX
10
9.97375
20
8.65663
30
4.16
0
VERTEX
10
9.94714
20
8.68767
30
4.16
0
VERTEX
10
9.94049
20
8.69654
30
4.16
0
VERTEX
10
9.94049
20
8.70098
30
4.16
0
VERTEX
10
9.93162
20
8.70985
30
4.16
0
VERTEX
10
9.9294
20
8.71872
30
4.16
0
VERTEX
10
9.90501
20
8.75419
30
4.16
0
VERTEX
10
9.89614
20
8.76306
30
4.16
0
VERTEX
10
9.88505
20
8.77858
30
4.16
0
VERTEX
10
9.86953
20
8.78967
30
4.16
0
VERTEX
10
9.85179
20
8.80519
30
4.16
0
VERTEX
10
9.84736
20
8.80963
30
4.16
0
VERTEX
10
9.84292
20
8.80963
30
4.16
0
VERTEX
10
9.83627
20
8.81628
30
4.16
0
VERTEX
10
9.8274
20
8.8185
30
4.16
0
VERTEX
10
9.82297
20
8.8185
30
4.16
0
VERTEX
10
9.80523
20
8.82958
30
4.16
0
VERTEX
10
9.78749
20
8.83624
30
4.16
0
VERTEX
10
9.78305
20
8.83624
30
4.16
0
VERTEX
10
9.77862
20
8.84067
30
4.16
0
VERTEX
10
9.74314
20
8.85176
30
4.16
0
VERTEX
10
9.7254
20
8.86284
30
4.16
0
VERTEX
10
9.70766
20
8.8695
30
4.16
0
VERTEX
10
9.68993
20
8.87171
30
4.16
0
VERTEX
10
9.65666
20
8.8828
30
4.16
0
VERTEX
10
9.65223
20
8.88724
30
4.16
0
VERTEX
10
9.63449
20
8.89167
30
4.16
0
VERTEX
10
9.63006
20
8.89611
30
4.16
0
VERTEX
10
9.62119
20
8.89832
30
4.16
0
VERTEX
10
9.61232
20
8.90497
30
4.16
0
VERTEX
10
9.59458
20
8.91163
30
4.16
0
VERTEX
10
9.59014
20
8.91606
30
4.16
0
VERTEX
10
9.5724
20
8.91828
30
4.16
0
VERTEX
10
9.55467
20
8.92493
30
4.16
0
VERTEX
10
9.51919
20
8.92271
30
4.16
0
VERTEX
10
9.51032
20
8.91606
30
4.16
0
VERTEX
10
9.49258
20
8.91606
30
4.16
0
VERTEX
10
9.4571
20
8.90719
30
4.16
0
VERTEX
10
9.42162
20
8.90497
30
4.16
0
VERTEX
10
9.40388
20
8.90276
30
4.16
0
VERTEX
10
9.39945
20
8.89832
30
4.16
0
VERTEX
10
9.38171
20
8.89832
30
4.16
0
VERTEX
10
9.36397
20
8.89389
30
4.16
0
VERTEX
10
9.32849
20
8.87615
30
4.16
0
VERTEX
10
9.31962
20
8.8695
30
4.16
0
VERTEX
10
9.30188
20
8.86728
30
4.16
0
VERTEX
10
9.29302
20
8.86506
30
4.16
0
VERTEX
10
9.28858
20
8.86063
30
4.16
0
VERTEX
10
9.27084
20
8.85398
30
4.16
0
VERTEX
10
9.26419
20
8.84732
30
4.16
0
VERTEX
10
9.26197
20
8.84289
30
4.16
0
VERTEX
10
9.2531
20
8.84289
30
4.16
0
VERTEX
10
9.23536
20
8.82958
30
4.16
0
VERTEX
10
9.23093
20
8.82958
30
4.16
0
VERTEX
10
9.22649
20
8.82515
30
4.16
0
VERTEX
10
9.22206
20
8.82515
30
4.16
0
VERTEX
10
9.18658
20
8.79632
30
4.16
0
VERTEX
10
9.18215
20
8.79632
30
4.16
0
VERTEX
10
9.17771
20
8.79189
30
4.16
0
VERTEX
10
9.15997
20
8.78745
30
4.16
0
VERTEX
10
9.14445
20
8.77193
30
4.16
0
VERTEX
10
9.13558
20
8.76528
30
4.16
0
VERTEX
10
9.13115
20
8.76528
30
4.16
0
VERTEX
10
9.11341
20
8.74976
30
4.16
0
VERTEX
10
9.10897
20
8.74976
30
4.16
0
VERTEX
10
9.09345
20
8.73424
30
4.16
0
VERTEX
10
9.06019
20
8.71206
30
4.16
0
VERTEX
10
9.04245
20
8.70098
30
4.16
0
VERTEX
10
9.03358
20
8.69432
30
4.16
0
VERTEX
10
9.02471
20
8.69211
30
4.16
0
VERTEX
10
9.01806
20
8.68545
30
4.16
0
VERTEX
10
9.00919
20
8.68324
30
4.16
0
VERTEX
10
9.00032
20
8.67659
30
4.16
0
VERTEX
10
8.99145
20
8.67437
30
4.16
0
VERTEX
10
8.97815
20
8.66106
30
4.16
0
VERTEX
10
8.94267
20
8.63889
30
4.16
0
VERTEX
10
8.92715
20
8.62559
30
4.16
0
VERTEX
10
8.92271
20
8.61672
30
4.16
0
VERTEX
10
8.91384
20
8.61228
30
4.16
0
VERTEX
10
8.90941
20
8.60563
30
4.16
0
VERTEX
10
8.90054
20
8.59898
30
4.16
0
VERTEX
10
8.89611
20
8.59454
30
4.16
0
VERTEX
10
8.89167
20
8.59454
30
4.16
0
VERTEX
10
8.88502
20
8.58567
30
4.16
0
VERTEX
10
8.88058
20
8.58567
30
4.16
0
VERTEX
10
8.86284
20
8.57459
30
4.16
0
VERTEX
10
8.85398
20
8.56793
30
4.16
0
VERTEX
10
8.84954
20
8.56793
30
4.16
0
VERTEX
10
8.84511
20
8.5635
30
4.16
0
VERTEX
10
8.84067
20
8.5635
30
4.16
0
VERTEX
10
8.8318
20
8.55685
30
4.16
0
VERTEX
10
8.81406
20
8.55463
30
4.16
0
VERTEX
10
8.80519
20
8.54798
30
4.16
0
VERTEX
10
8.79632
20
8.54798
30
4.16
0
VERTEX
10
8.77858
20
8.53911
30
4.16
0
VERTEX
10
8.74311
20
8.53246
30
4.16
0
VERTEX
10
8.73424
20
8.52802
30
4.16
0
VERTEX
10
8.66328
20
8.52137
30
4.16
0
VERTEX
10
8.64554
20
8.52359
30
4.16
0
VERTEX
10
8.63667
20
8.52359
30
4.16
0
VERTEX
10
8.60119
20
8.53467
30
4.16
0
VERTEX
10
8.58346
20
8.54133
30
4.16
0
VERTEX
10
8.54798
20
8.54798
30
4.16
0
VERTEX
10
8.47702
20
8.55019
30
4.16
0
VERTEX
10
8.45928
20
8.55241
30
4.16
0
VERTEX
10
8.45041
20
8.55685
30
4.16
0
VERTEX
10
8.44598
20
8.55685
30
4.16
0
VERTEX
10
8.42824
20
8.57237
30
4.16
0
VERTEX
10
8.39276
20
8.58789
30
4.16
0
VERTEX
10
8.37502
20
8.59454
30
4.16
0
VERTEX
10
8.36615
20
8.59676
30
4.16
0
VERTEX
10
8.36172
20
8.60119
30
4.16
0
VERTEX
10
8.35285
20
8.60341
30
4.16
0
VERTEX
10
8.33511
20
8.6145
30
4.16
0
VERTEX
10
8.29963
20
8.62559
30
4.16
0
VERTEX
10
8.28189
20
8.63667
30
4.16
0
VERTEX
10
8.26415
20
8.64332
30
4.16
0
VERTEX
10
8.24863
20
8.65663
30
4.16
0
VERTEX
10
8.21315
20
8.66328
30
4.16
0
VERTEX
10
8.19763
20
8.67437
30
4.16
0
VERTEX
10
8.16215
20
8.68767
30
4.16
0
VERTEX
10
8.14442
20
8.69432
30
4.16
0
VERTEX
10
8.13555
20
8.69432
30
4.16
0
VERTEX
10
8.11781
20
8.70319
30
4.16
0
VERTEX
10
8.11115
20
8.70985
30
4.16
0
VERTEX
10
8.10894
20
8.71428
30
4.16
0
VERTEX
10
8.1045
20
8.71428
30
4.16
0
VERTEX
10
8.10229
20
8.71872
30
4.16
0
VERTEX
10
8.09785
20
8.71872
30
4.16
0
VERTEX
10
8.08011
20
8.7298
30
4.16
0
VERTEX
10
8.06237
20
8.73645
30
4.16
0
VERTEX
10
8.04463
20
8.73645
30
4.16
0
VERTEX
10
8.02689
20
8.7298
30
4.16
0
VERTEX
10
8.02024
20
8.72093
30
4.16
0
VERTEX
10
8.01359
20
8.70319
30
4.16
0
VERTEX
10
8.01803
20
8.68545
30
4.16
0
VERTEX
10
8.01803
20
8.67659
30
4.16
0
VERTEX
10
8.01803
20
8.67215
30
4.16
0
VERTEX
10
8.02246
20
8.66772
30
4.16
0
VERTEX
10
8.02246
20
8.66328
30
4.16
0
VERTEX
10
8.02689
20
8.66106
30
4.16
0
VERTEX
10
8.02911
20
8.65219
30
4.16
0
VERTEX
10
8.04242
20
8.63446
30
4.16
0
VERTEX
10
8.04685
20
8.63224
30
4.16
0
VERTEX
10
8.0535
20
8.6145
30
4.16
0
VERTEX
10
8.06016
20
8.60563
30
4.16
0
VERTEX
10
8.07789
20
8.59454
30
4.16
0
VERTEX
10
8.0912
20
8.57902
30
4.16
0
VERTEX
10
8.09785
20
8.57015
30
4.16
0
VERTEX
10
8.11559
20
8.56128
30
4.16
0
VERTEX
10
8.12002
20
8.56128
30
4.16
0
VERTEX
10
8.12889
20
8.55241
30
4.16
0
VERTEX
10
8.16437
20
8.54798
30
4.16
0
VERTEX
10
8.16881
20
8.54354
30
4.16
0
VERTEX
10
8.17768
20
8.54354
30
4.16
0
VERTEX
10
8.19542
20
8.53467
30
4.16
0
VERTEX
10
8.20428
20
8.52802
30
4.16
0
VERTEX
10
8.23976
20
8.52137
30
4.16
0
VERTEX
10
8.2442
20
8.52137
30
4.16
0
VERTEX
10
8.24863
20
8.51693
30
4.16
0
VERTEX
10
8.2575
20
8.51472
30
4.16
0
VERTEX
10
8.26415
20
8.50806
30
4.16
0
VERTEX
10
8.29963
20
8.49698
30
4.16
0
VERTEX
10
8.31737
20
8.49476
30
4.16
0
VERTEX
10
8.35285
20
8.48367
30
4.16
0
VERTEX
10
8.37059
20
8.47702
30
4.16
0
VERTEX
10
8.37724
20
8.47037
30
4.16
0
VERTEX
10
8.38167
20
8.47037
30
4.16
0
VERTEX
10
8.3972
20
8.45707
30
4.16
0
VERTEX
10
8.40607
20
8.43933
30
4.16
0
VERTEX
10
8.41715
20
8.42602
30
4.16
0
VERTEX
10
8.41937
20
8.41715
30
4.16
0
VERTEX
10
8.42602
20
8.40828
30
4.16
0
VERTEX
10
8.43267
20
8.40385
30
4.16
0
VERTEX
10
8.44598
20
8.38611
30
4.16
0
VERTEX
10
8.44598
20
8.38167
30
4.16
0
VERTEX
10
8.45707
20
8.36394
30
4.16
0
VERTEX
10
8.46372
20
8.35728
30
4.16
0
VERTEX
10
8.46815
20
8.32181
30
4.16
0
VERTEX
10
8.4615
20
8.28633
30
4.16
0
VERTEX
10
8.45928
20
8.27746
30
4.16
0
VERTEX
10
8.45928
20
8.27302
30
4.16
0
VERTEX
10
8.45485
20
8.26859
30
4.16
0
VERTEX
10
8.4482
20
8.23311
30
4.16
0
VERTEX
10
8.44376
20
8.22424
30
4.16
0
VERTEX
10
8.44376
20
8.21981
30
4.16
0
VERTEX
10
8.43711
20
8.21094
30
4.16
0
VERTEX
10
8.43267
20
8.2065
30
4.16
0
VERTEX
10
8.43046
20
8.19763
30
4.16
0
VERTEX
10
8.41715
20
8.17989
30
4.16
0
VERTEX
10
8.41494
20
8.17102
30
4.16
0
VERTEX
10
8.40163
20
8.15772
30
4.16
0
VERTEX
10
8.39276
20
8.15328
30
4.16
0
VERTEX
10
8.38167
20
8.13776
30
4.16
0
VERTEX
10
8.36394
20
8.12668
30
4.16
0
VERTEX
10
8.35507
20
8.12002
30
4.16
0
VERTEX
10
8.3462
20
8.11781
30
4.16
0
VERTEX
10
8.33067
20
8.1045
30
4.16
0
VERTEX
10
8.32402
20
8.09785
30
4.16
0
VERTEX
10
8.30628
20
8.09563
30
4.16
0
VERTEX
10
8.16437
20
8.1045
30
4.16
0
VERTEX
10
8.1555
20
8.1045
30
4.16
0
VERTEX
10
8.13776
20
8.11115
30
4.16
0
VERTEX
10
8.10229
20
8.11115
30
4.16
0
VERTEX
10
8.08455
20
8.11559
30
4.16
0
VERTEX
10
8.04907
20
8.11559
30
4.16
0
VERTEX
10
8.0402
20
8.11559
30
4.16
0
VERTEX
10
8.02246
20
8.10894
30
4.16
0
VERTEX
10
8.00472
20
8.10672
30
4.16
0
VERTEX
10
7.98698
20
8.09785
30
4.16
0
VERTEX
10
7.9759
20
8.08233
30
4.16
0
VERTEX
10
7.97146
20
8.07789
30
4.16
0
VERTEX
10
7.95372
20
8.07124
30
4.16
0
VERTEX
10
7.94485
20
8.06459
30
4.16
0
VERTEX
10
7.93376
20
8.04685
30
4.16
0
VERTEX
10
7.92711
20
8.0402
30
4.16
0
VERTEX
10
7.92046
20
8.02246
30
4.16
0
VERTEX
10
7.92046
20
8.01803
30
4.16
0
VERTEX
10
7.91603
20
8.01581
30
4.16
0
VERTEX
10
7.90937
20
7.98033
30
4.16
0
VERTEX
10
7.90494
20
7.97146
30
4.16
0
VERTEX
10
7.90272
20
7.95372
30
4.16
0
VERTEX
10
7.9005
20
7.94485
30
4.16
0
VERTEX
10
7.89607
20
7.94042
30
4.16
0
VERTEX
10
7.88942
20
7.92268
30
4.16
0
VERTEX
10
7.88498
20
7.91381
30
4.16
0
VERTEX
10
7.86724
20
7.89829
30
4.16
0
VERTEX
10
7.85394
20
7.88055
30
4.16
0
VERTEX
10
7.8495
20
7.86281
30
4.16
0
VERTEX
10
7.83398
20
7.85172
30
4.16
0
VERTEX
10
7.82955
20
7.84729
30
4.16
0
VERTEX
10
7.82955
20
7.84285
30
4.16
0
VERTEX
10
7.82511
20
7.83842
30
4.16
0
VERTEX
10
7.81846
20
7.80294
30
4.16
0
VERTEX
10
7.81403
20
7.7852
30
4.16
0
VERTEX
10
7.81403
20
7.71424
30
4.16
0
VERTEX
10
7.81403
20
7.69651
30
4.16
0
VERTEX
10
7.81403
20
7.68764
30
4.16
0
SEQEND
0
POLYLINE
62
224
66
1
70
1
3
mitochondrion
0
VERTEX
10
9.53835
20
8.58312
30
4.16
0
VERTEX
10
9.54252
20
8.53863
30
4.16
0
VERTEX
10
9.54669
20
8.51638
30
4.16
0
VERTEX
10
9.54669
20
8.51082
30
4.16
0
VERTEX
10
9.55503
20
8.48857
30
4.16
0
VERTEX
10
9.55782
20
8.47745
30
4.16
0
VERTEX
10
9.5606
20
8.47467
30
4.16
0
VERTEX
10
9.57172
20
8.47189
30
4.16
0
VERTEX
10
9.57311
20
8.46633
30
4.16
0
VERTEX
10
9.60648
20
8.42322
30
4.16
0
VERTEX
10
9.60926
20
8.42044
30
4.16
0
VERTEX
10
9.60926
20
8.41766
30
4.16
0
VERTEX
10
9.62038
20
8.40793
30
4.16
0
VERTEX
10
9.62873
20
8.3982
30
4.16
0
VERTEX
10
9.63012
20
8.39263
30
4.16
0
VERTEX
10
9.6329
20
8.38985
30
4.16
0
VERTEX
10
9.63568
20
8.38985
30
4.16
0
VERTEX
10
9.6468
20
8.37873
30
4.16
0
VERTEX
10
9.65515
20
8.369
30
4.16
0
VERTEX
10
9.65932
20
8.36344
30
4.16
0
VERTEX
10
9.66488
20
8.36205
30
4.16
0
VERTEX
10
9.70798
20
8.33285
30
4.16
0
VERTEX
10
9.71354
20
8.33007
30
4.16
0
VERTEX
10
9.71632
20
8.32589
30
4.16
0
VERTEX
10
9.73718
20
8.31338
30
4.16
0
VERTEX
10
9.7483
20
8.3106
30
4.16
0
VERTEX
10
9.75108
20
8.3106
30
4.16
0
VERTEX
10
9.75387
20
8.30782
30
4.16
0
VERTEX
10
9.77611
20
8.30087
30
4.16
0
VERTEX
10
9.78724
20
8.2953
30
4.16
0
VERTEX
10
9.83173
20
8.2953
30
4.16
0
VERTEX
10
9.85398
20
8.2967
30
4.16
0
VERTEX
10
9.8651
20
8.29809
30
4.16
0
VERTEX
10
9.87066
20
8.29809
30
4.16
0
VERTEX
10
9.87344
20
8.30087
30
4.16
0
VERTEX
10
9.88457
20
8.30226
30
4.16
0
VERTEX
10
9.8943
20
8.31199
30
4.16
0
VERTEX
10
9.89986
20
8.31477
30
4.16
0
VERTEX
10
9.91933
20
8.33424
30
4.16
0
VERTEX
10
9.92767
20
8.34536
30
4.16
0
VERTEX
10
9.93601
20
8.3537
30
4.16
0
VERTEX
10
9.95131
20
8.37456
30
4.16
0
VERTEX
10
9.95548
20
8.38568
30
4.16
0
VERTEX
10
9.95965
20
8.39124
30
4.16
0
VERTEX
10
9.95965
20
8.39403
30
4.16
0
VERTEX
10
9.96382
20
8.39959
30
4.16
0
VERTEX
10
9.96521
20
8.41071
30
4.16
0
VERTEX
10
9.97077
20
8.42183
30
4.16
0
VERTEX
10
9.96799
20
8.51082
30
4.16
0
VERTEX
10
9.96382
20
8.53307
30
4.16
0
VERTEX
10
9.96243
20
8.53863
30
4.16
0
VERTEX
10
9.96243
20
8.54141
30
4.16
0
VERTEX
10
9.95965
20
8.54419
30
4.16
0
VERTEX
10
9.95826
20
8.55532
30
4.16
0
VERTEX
10
9.9527
20
8.56644
30
4.16
0
VERTEX
10
9.9527
20
8.572
30
4.16
0
VERTEX
10
9.94435
20
8.58312
30
4.16
0
VERTEX
10
9.94157
20
8.58869
30
4.16
0
VERTEX
10
9.92211
20
8.61093
30
4.16
0
VERTEX
10
9.91237
20
8.62206
30
4.16
0
VERTEX
10
9.90542
20
8.63318
30
4.16
0
VERTEX
10
9.90264
20
8.63874
30
4.16
0
VERTEX
10
9.89708
20
8.64291
30
4.16
0
VERTEX
10
9.8943
20
8.64291
30
4.16
0
VERTEX
10
9.88874
20
8.64847
30
4.16
0
VERTEX
10
9.87344
20
8.66794
30
4.16
0
VERTEX
10
9.87066
20
8.6735
30
4.16
0
VERTEX
10
9.85954
20
8.68323
30
4.16
0
VERTEX
10
9.85537
20
8.68741
30
4.16
0
VERTEX
10
9.84424
20
8.6888
30
4.16
0
VERTEX
10
9.83451
20
8.69853
30
4.16
0
VERTEX
10
9.82478
20
8.70548
30
4.16
0
VERTEX
10
9.822
20
8.70548
30
4.16
0
VERTEX
10
9.81644
20
8.70965
30
4.16
0
VERTEX
10
9.81365
20
8.71243
30
4.16
0
VERTEX
10
9.81087
20
8.71243
30
4.16
0
VERTEX
10
9.80809
20
8.71661
30
4.16
0
VERTEX
10
9.80253
20
8.72078
30
4.16
0
VERTEX
10
9.79975
20
8.72078
30
4.16
0
VERTEX
10
9.79697
20
8.72356
30
4.16
0
VERTEX
10
9.79141
20
8.72495
30
4.16
0
VERTEX
10
9.78028
20
8.73329
30
4.16
0
VERTEX
10
9.77472
20
8.73468
30
4.16
0
VERTEX
10
9.76916
20
8.73885
30
4.16
0
VERTEX
10
9.75804
20
8.74302
30
4.16
0
VERTEX
10
9.75248
20
8.7458
30
4.16
0
VERTEX
10
9.74969
20
8.74858
30
4.16
0
VERTEX
10
9.74691
20
8.74858
30
4.16
0
VERTEX
10
9.74413
20
8.75137
30
4.16
0
VERTEX
10
9.73857
20
8.75276
30
4.16
0
VERTEX
10
9.73579
20
8.75276
30
4.16
0
VERTEX
10
9.73301
20
8.75554
30
4.16
0
VERTEX
10
9.68852
20
8.75832
30
4.16
0
VERTEX
10
9.68295
20
8.75832
30
4.16
0
VERTEX
10
9.67739
20
8.7611
30
4.16
0
VERTEX
10
9.65515
20
8.7611
30
4.16
0
VERTEX
10
9.6329
20
8.75832
30
4.16
0
VERTEX
10
9.62177
20
8.75276
30
4.16
0
VERTEX
10
9.61621
20
8.75137
30
4.16
0
VERTEX
10
9.61065
20
8.74719
30
4.16
0
VERTEX
10
9.60509
20
8.74719
30
4.16
0
VERTEX
10
9.60231
20
8.74719
30
4.16
0
VERTEX
10
9.59814
20
8.74302
30
4.16
0
VERTEX
10
9.59536
20
8.74163
30
4.16
0
VERTEX
10
9.59536
20
8.73885
30
4.16
0
VERTEX
10
9.58562
20
8.7319
30
4.16
0
VERTEX
10
9.58145
20
8.72634
30
4.16
0
VERTEX
10
9.58006
20
8.72078
30
4.16
0
VERTEX
10
9.58284
20
8.70965
30
4.16
0
VERTEX
10
9.58284
20
8.70409
30
4.16
0
VERTEX
10
9.56477
20
8.68184
30
4.16
0
VERTEX
10
9.55921
20
8.67628
30
4.16
0
VERTEX
10
9.5453
20
8.65543
30
4.16
0
VERTEX
10
9.54252
20
8.64986
30
4.16
0
VERTEX
10
9.54113
20
8.62762
30
4.16
0
VERTEX
10
9.53835
20
8.61649
30
4.16
0
VERTEX
10
9.53835
20
8.59425
30
4.16
0
VERTEX
10
9.53835
20
8.58451
30
4.16
0
SEQEND
0
POLYLINE
62
236
66
1
70
1
3
postsynaptic_density
0
VERTEX
10
7.9968
20
7.66647
30
4.16
0
VERTEX
10
8.00986
20
7.65341
30
4.16
0
VERTEX
10
8.02292
20
7.64408
30
4.16
0
VERTEX
10
8.02852
20
7.63661
30
4.16
0
VERTEX
10
8.05652
20
7.62355
30
4.16
0
VERTEX
10
8.06398
20
7.62355
30
4.16
0
VERTEX
10
8.07891
20
7.61235
30
4.16
0
VERTEX
10
8.09384
20
7.61049
30
4.16
0
VERTEX
10
8.10131
20
7.61049
30
4.16
0
VERTEX
10
8.10504
20
7.60489
30
4.16
0
VERTEX
10
8.1349
20
7.60489
30
4.16
0
VERTEX
10
8.19462
20
7.61422
30
4.16
0
VERTEX
10
8.20208
20
7.61609
30
4.16
0
VERTEX
10
8.22821
20
7.63661
30
4.16
0
VERTEX
10
8.23754
20
7.64968
30
4.16
0
VERTEX
10
8.23941
20
7.7094
30
4.16
0
VERTEX
10
8.23941
20
7.71686
30
4.16
0
VERTEX
10
8.23754
20
7.7206
30
4.16
0
VERTEX
10
8.1181
20
7.74299
30
4.16
0
VERTEX
10
8.08824
20
7.74486
30
4.16
0
VERTEX
10
8.05838
20
7.74299
30
4.16
0
VERTEX
10
8.02852
20
7.73366
30
4.16
0
VERTEX
10
8.02106
20
7.72619
30
4.16
0
VERTEX
10
8.01173
20
7.71126
30
4.16
0
VERTEX
10
8.00613
20
7.69633
30
4.16
0
VERTEX
10
7.9968
20
7.68327
30
4.16
0
VERTEX
10
7.9968
20
7.66834
30
4.16
0
SEQEND
0
POLYLINE
62
227
66
1
70
1
3
endoplasmic_reticulum
0
VERTEX
10
9.50354
20
8.84539
30
4.16
0
VERTEX
10
9.51116
20
8.82102
30
4.16
0
VERTEX
10
9.5142
20
8.81949
30
4.16
0
VERTEX
10
9.5142
20
8.81645
30
4.16
0
VERTEX
10
9.52335
20
8.80426
30
4.16
0
VERTEX
10
9.52792
20
8.79816
30
4.16
0
VERTEX
10
9.5401
20
8.79207
30
4.16
0
VERTEX
10
9.55991
20
8.77226
30
4.16
0
VERTEX
10
9.56448
20
8.76617
30
4.16
0
VERTEX
10
9.57667
20
8.76617
30
4.16
0
VERTEX
10
9.58276
20
8.76617
30
4.16
0
VERTEX
10
9.58886
20
8.77074
30
4.16
0
VERTEX
10
9.59038
20
8.77379
30
4.16
0
VERTEX
10
9.58886
20
8.77683
30
4.16
0
VERTEX
10
9.58581
20
8.77683
30
4.16
0
VERTEX
10
9.58428
20
8.80121
30
4.16
0
VERTEX
10
9.57819
20
8.82559
30
4.16
0
VERTEX
10
9.57362
20
8.83016
30
4.16
0
VERTEX
10
9.5721
20
8.83625
30
4.16
0
VERTEX
10
9.56143
20
8.84844
30
4.16
0
VERTEX
10
9.55382
20
8.86063
30
4.16
0
VERTEX
10
9.55229
20
8.86672
30
4.16
0
VERTEX
10
9.52792
20
8.86824
30
4.16
0
VERTEX
10
9.51573
20
8.86672
30
4.16
0
VERTEX
10
9.51268
20
8.86672
30
4.16
0
VERTEX
10
9.50659
20
8.85453
30
4.16
0
VERTEX
10
9.50354
20
8.84844
30
4.16
0
VERTEX
10
9.50354
20
8.84692
30
4.16
0
SEQEND
0
POLYLINE
62
227
66
1
70
1
3
endoplasmic_reticulum
0
VERTEX
10
9.35881
20
8.43253
30
4.16
0
VERTEX
10
9.36338
20
8.42795
30
4.16
0
VERTEX
10
9.38775
20
8.42948
30
4.16
0
VERTEX
10
9.39994
20
8.42948
30
4.16
0
VERTEX
10
9.41061
20
8.43862
30
4.16
0
VERTEX
10
9.45936
20
8.44014
30
4.16
0
VERTEX
10
9.46545
20
8.43862
30
4.16
0
VERTEX
10
9.47612
20
8.45081
30
4.16
0
VERTEX
10
9.47612
20
8.4569
30
4.16
0
VERTEX
10
9.47155
20
8.46909
30
4.16
0
VERTEX
10
9.47002
20
8.47518
30
4.16
0
VERTEX
10
9.46545
20
8.48128
30
4.16
0
VERTEX
10
9.46393
20
8.48737
30
4.16
0
VERTEX
10
9.45479
20
8.49804
30
4.16
0
VERTEX
10
9.40604
20
8.49651
30
4.16
0
VERTEX
10
9.39385
20
8.49651
30
4.16
0
VERTEX
10
9.36947
20
8.48889
30
4.16
0
VERTEX
10
9.36947
20
8.48585
30
4.16
0
VERTEX
10
9.36643
20
8.4828
30
4.16
0
VERTEX
10
9.36643
20
8.47975
30
4.16
0
VERTEX
10
9.36186
20
8.47366
30
4.16
0
VERTEX
10
9.36033
20
8.47061
30
4.16
0
VERTEX
10
9.36643
20
8.45995
30
4.16
0
VERTEX
10
9.35881
20
8.44776
30
4.16
0
VERTEX
10
9.35881
20
8.43557
30
4.16
0
VERTEX
10
9.35881
20
8.43405
30
4.16
0
SEQEND
0
POLYLINE
62
227
66
1
70
1
3
endoplasmic_reticulum
0
VERTEX
10
9.46698
20
8.658
30
4.16
0
VERTEX
10
9.47155
20
8.63363
30
4.16
0
VERTEX
10
9.47155
20
8.63058
30
4.16
0
VERTEX
10
9.48373
20
8.62906
30
4.16
0
VERTEX
10
9.49288
20
8.64124
30
4.16
0
VERTEX
10
9.49288
20
8.65343
30
4.16
0
VERTEX
10
9.49288
20
8.65953
30
4.16
0
VERTEX
10
9.49288
20
8.66257
30
4.16
0
VERTEX
10
9.48678
20
8.66714
30
4.16
0
VERTEX
10
9.47459
20
8.66714
30
4.16
0
VERTEX
10
9.4685
20
8.66714
30
4.16
0
VERTEX
10
9.46698
20
8.66105
30
4.16
0
VERTEX
10
9.46698
20
8.65953
30
4.16
0
SEQEND
0
POLYLINE
62
227
66
1
70
1
3
endoplasmic_reticulum
0
VERTEX
10
8.01458
20
7.96583
30
4.16
0
VERTEX
10
8.01923
20
7.95654
30
4.16
0
VERTEX
10
8.05637
20
7.95422
30
4.16
0
VERTEX
10
8.06566
20
7.96118
30
4.16
0
VERTEX
10
8.06798
20
7.96583
30
4.16
0
VERTEX
10
8.06334
20
7.9844
30
4.16
0
VERTEX
10
8.05637
20
7.99137
30
4.16
0
VERTEX
10
8.0378
20
7.99601
30
4.16
0
VERTEX
10
8.02851
20
8.00297
30
4.16
0
VERTEX
10
8.01923
20
7.99833
30
4.16
0
VERTEX
10
8.01458
20
7.99369
30
4.16
0
VERTEX
10
8.01458
20
7.97511
30
4.16
0
VERTEX
10
8.01458
20
7.96815
30
4.16
0
SEQEND
0
ENDSEC
0
EOF
