0
SECTION
2
ENTITIES
0
POLYLINE
62
31
66
1
70
1
3
contour
0
VERTEX
10
7.65702
20
10.3334
30
8.08
0
VERTEX
10
7.66689
20
10.228
30
8.08
0
VERTEX
10
7.66689
20
10.0173
30
8.08
0
VERTEX
10
7.67019
20
9.96466
30
8.08
0
VERTEX
10
7.66689
20
9.91199
30
8.08
0
VERTEX
10
7.67019
20
9.88565
30
8.08
0
VERTEX
10
7.68006
20
9.87248
30
8.08
0
VERTEX
10
7.68665
20
9.84615
30
8.08
0
VERTEX
10
7.70311
20
9.81981
30
8.08
0
VERTEX
10
7.71298
20
9.79677
30
8.08
0
VERTEX
10
7.71627
20
9.77044
30
8.08
0
VERTEX
10
7.72615
20
9.7441
30
8.08
0
VERTEX
10
7.73603
20
9.73093
30
8.08
0
VERTEX
10
7.76236
20
9.72764
30
8.08
0
VERTEX
10
7.77553
20
9.73093
30
8.08
0
VERTEX
10
7.82491
20
9.76714
30
8.08
0
VERTEX
10
7.84466
20
9.78031
30
8.08
0
VERTEX
10
7.85124
20
9.78689
30
8.08
0
VERTEX
10
7.86441
20
9.78689
30
8.08
0
VERTEX
10
7.89075
20
9.80335
30
8.08
0
VERTEX
10
7.94012
20
9.81981
30
8.08
0
VERTEX
10
7.9928
20
9.81652
30
8.08
0
VERTEX
10
8.00596
20
9.82311
30
8.08
0
VERTEX
10
8.01913
20
9.82311
30
8.08
0
VERTEX
10
8.04547
20
9.83957
30
8.08
0
VERTEX
10
8.0718
20
9.84944
30
8.08
0
VERTEX
10
8.08497
20
9.84944
30
8.08
0
VERTEX
10
8.09814
20
9.85603
30
8.08
0
VERTEX
10
8.10472
20
9.86261
30
8.08
0
VERTEX
10
8.13106
20
9.87248
30
8.08
0
VERTEX
10
8.14422
20
9.87907
30
8.08
0
VERTEX
10
8.16068
20
9.90211
30
8.08
0
VERTEX
10
8.18373
20
9.92186
30
8.08
0
VERTEX
10
8.19689
20
9.93174
30
8.08
0
VERTEX
10
8.22323
20
9.93832
30
8.08
0
VERTEX
10
8.24957
20
9.93832
30
8.08
0
VERTEX
10
8.26273
20
9.94162
30
8.08
0
VERTEX
10
8.28578
20
9.96466
30
8.08
0
VERTEX
10
8.29894
20
9.97453
30
8.08
0
VERTEX
10
8.30553
20
9.9877
30
8.08
0
VERTEX
10
8.30553
20
10.093
30
8.08
0
VERTEX
10
8.30553
20
10.1062
30
8.08
0
VERTEX
10
8.27261
20
10.1589
30
8.08
0
VERTEX
10
8.25944
20
10.1852
30
8.08
0
VERTEX
10
8.25286
20
10.1984
30
8.08
0
VERTEX
10
8.25286
20
10.205
30
8.08
0
VERTEX
10
8.23311
20
10.228
30
8.08
0
VERTEX
10
8.21994
20
10.2543
30
8.08
0
VERTEX
10
8.21335
20
10.2675
30
8.08
0
VERTEX
10
8.21335
20
10.2741
30
8.08
0
VERTEX
10
8.20348
20
10.284
30
8.08
0
VERTEX
10
8.20019
20
10.2971
30
8.08
0
VERTEX
10
8.1541
20
10.3465
30
8.08
0
VERTEX
10
8.14422
20
10.3597
30
8.08
0
VERTEX
10
8.11789
20
10.3663
30
8.08
0
VERTEX
10
8.11789
20
10.3729
30
8.08
0
VERTEX
10
8.09155
20
10.386
30
8.08
0
VERTEX
10
8.07839
20
10.3926
30
8.08
0
VERTEX
10
8.07509
20
10.3992
30
8.08
0
VERTEX
10
8.04876
20
10.4058
30
8.08
0
VERTEX
10
8.02242
20
10.4189
30
8.08
0
VERTEX
10
8.00925
20
10.4189
30
8.08
0
VERTEX
10
8.00596
20
10.4255
30
8.08
0
VERTEX
10
7.9928
20
10.4255
30
8.08
0
VERTEX
10
7.98292
20
10.4354
30
8.08
0
VERTEX
10
7.96975
20
10.4387
30
8.08
0
VERTEX
10
7.95988
20
10.4486
30
8.08
0
VERTEX
10
7.95329
20
10.5012
30
8.08
0
VERTEX
10
7.94342
20
10.5276
30
8.08
0
VERTEX
10
7.93683
20
10.5407
30
8.08
0
VERTEX
10
7.91379
20
10.5572
30
8.08
0
VERTEX
10
7.90062
20
10.5671
30
8.08
0
VERTEX
10
7.84795
20
10.5737
30
8.08
0
VERTEX
10
7.84137
20
10.5737
30
8.08
0
VERTEX
10
7.83478
20
10.5802
30
8.08
0
VERTEX
10
7.78211
20
10.5802
30
8.08
0
VERTEX
10
7.76894
20
10.5802
30
8.08
0
VERTEX
10
7.7459
20
10.5638
30
8.08
0
VERTEX
10
7.72944
20
10.5375
30
8.08
0
VERTEX
10
7.70969
20
10.5177
30
8.08
0
VERTEX
10
7.70311
20
10.5045
30
8.08
0
VERTEX
10
7.69652
20
10.5045
30
8.08
0
VERTEX
10
7.68006
20
10.4782
30
8.08
0
VERTEX
10
7.67019
20
10.465
30
8.08
0
VERTEX
10
7.6636
20
10.4124
30
8.08
0
VERTEX
10
7.6636
20
10.3992
30
8.08
0
VERTEX
10
7.65702
20
10.3926
30
8.08
0
VERTEX
10
7.65702
20
10.3399
30
8.08
0
VERTEX
10
7.65702
20
10.3366
30
8.08
0
SEQEND
0
POLYLINE
62
224
66
1
70
1
3
mitochondrion
0
VERTEX
10
7.88652
20
10.0959
30
8.08
0
VERTEX
10
7.8893
20
10.0737
30
8.08
0
VERTEX
10
7.89625
20
10.0514
30
8.08
0
VERTEX
10
7.9032
20
10.0403
30
8.08
0
VERTEX
10
7.90737
20
10.0347
30
8.08
0
VERTEX
10
7.90877
20
10.0292
30
8.08
0
VERTEX
10
7.90877
20
10.0264
30
8.08
0
VERTEX
10
7.92684
20
10.0055
30
8.08
0
VERTEX
10
7.96299
20
9.96938
30
8.08
0
VERTEX
10
7.96855
20
9.9666
30
8.08
0
VERTEX
10
7.97273
20
9.96104
30
8.08
0
VERTEX
10
7.98385
20
9.95826
30
8.08
0
VERTEX
10
8.0061
20
9.96243
30
8.08
0
VERTEX
10
8.02834
20
9.96382
30
8.08
0
VERTEX
10
8.03112
20
9.96382
30
8.08
0
VERTEX
10
8.04225
20
9.97077
30
8.08
0
VERTEX
10
8.05337
20
9.97216
30
8.08
0
VERTEX
10
8.05893
20
9.97494
30
8.08
0
VERTEX
10
8.06171
20
9.97494
30
8.08
0
VERTEX
10
8.07006
20
9.98329
30
8.08
0
VERTEX
10
8.07006
20
9.98607
30
8.08
0
VERTEX
10
8.07979
20
9.9958
30
8.08
0
VERTEX
10
8.08674
20
10.0055
30
8.08
0
VERTEX
10
8.0923
20
10.0097
30
8.08
0
VERTEX
10
8.09508
20
10.0208
30
8.08
0
VERTEX
10
8.10204
20
10.0306
30
8.08
0
VERTEX
10
8.10482
20
10.0417
30
8.08
0
VERTEX
10
8.10899
20
10.0472
30
8.08
0
VERTEX
10
8.10899
20
10.0695
30
8.08
0
VERTEX
10
8.10343
20
10.0917
30
8.08
0
VERTEX
10
8.09508
20
10.114
30
8.08
0
VERTEX
10
8.07979
20
10.1348
30
8.08
0
VERTEX
10
8.07562
20
10.1404
30
8.08
0
VERTEX
10
8.07284
20
10.1432
30
8.08
0
VERTEX
10
8.07284
20
10.146
30
8.08
0
VERTEX
10
8.06449
20
10.1557
30
8.08
0
VERTEX
10
8.0631
20
10.1613
30
8.08
0
VERTEX
10
8.0631
20
10.164
30
8.08
0
VERTEX
10
8.05754
20
10.1682
30
8.08
0
VERTEX
10
8.05476
20
10.1682
30
8.08
0
VERTEX
10
8.04642
20
10.1779
30
8.08
0
VERTEX
10
8.04364
20
10.1793
30
8.08
0
VERTEX
10
8.04364
20
10.1821
30
8.08
0
VERTEX
10
8.03808
20
10.1877
30
8.08
0
VERTEX
10
8.03251
20
10.1877
30
8.08
0
VERTEX
10
8.02973
20
10.1905
30
8.08
0
VERTEX
10
8.02695
20
10.1905
30
8.08
0
VERTEX
10
8.02278
20
10.1946
30
8.08
0
VERTEX
10
8.00053
20
10.196
30
8.08
0
VERTEX
10
7.98941
20
10.196
30
8.08
0
VERTEX
10
7.97829
20
10.1932
30
8.08
0
VERTEX
10
7.97551
20
10.1932
30
8.08
0
VERTEX
10
7.96994
20
10.1891
30
8.08
0
VERTEX
10
7.95882
20
10.1863
30
8.08
0
VERTEX
10
7.95326
20
10.1821
30
8.08
0
VERTEX
10
7.94353
20
10.1779
30
8.08
0
VERTEX
10
7.9324
20
10.171
30
8.08
0
VERTEX
10
7.92684
20
10.1696
30
8.08
0
VERTEX
10
7.90877
20
10.1501
30
8.08
0
VERTEX
10
7.90181
20
10.1279
30
8.08
0
VERTEX
10
7.89903
20
10.1223
30
8.08
0
VERTEX
10
7.89903
20
10.1112
30
8.08
0
VERTEX
10
7.8893
20
10.1029
30
8.08
0
VERTEX
10
7.88652
20
10.1001
30
8.08
0
VERTEX
10
7.88652
20
10.0973
30
8.08
0
SEQEND
0
POLYLINE
62
227
66
1
70
1
3
endoplasmic_reticulum
0
VERTEX
10
7.80085
20
9.93104
30
8.08
0
VERTEX
10
7.80354
20
9.9167
30
8.08
0
VERTEX
10
7.80533
20
9.9158
30
8.08
0
VERTEX
10
7.80623
20
9.91221
30
8.08
0
VERTEX
10
7.8125
20
9.90683
30
8.08
0
VERTEX
10
7.81968
20
9.90773
30
8.08
0
VERTEX
10
7.82326
20
9.90773
30
8.08
0
VERTEX
10
7.82954
20
9.91221
30
8.08
0
VERTEX
10
7.83581
20
9.9149
30
8.08
0
VERTEX
10
7.83761
20
9.91849
30
8.08
0
VERTEX
10
7.83671
20
9.92566
30
8.08
0
VERTEX
10
7.82505
20
9.94001
30
8.08
0
VERTEX
10
7.82416
20
9.94359
30
8.08
0
VERTEX
10
7.82147
20
9.94718
30
8.08
0
VERTEX
10
7.81788
20
9.94808
30
8.08
0
VERTEX
10
7.80354
20
9.94449
30
8.08
0
VERTEX
10
7.80085
20
9.9418
30
8.08
0
VERTEX
10
7.80085
20
9.93463
30
8.08
0
VERTEX
10
7.80085
20
9.93194
30
8.08
0
SEQEND
0
POLYLINE
62
227
66
1
70
1
3
endoplasmic_reticulum
0
VERTEX
10
7.80085
20
10.3049
30
8.08
0
VERTEX
10
7.80354
20
10.3013
30
8.08
0
VERTEX
10
7.80443
20
10.2941
30
8.08
0
VERTEX
10
7.80533
20
10.2906
30
8.08
0
VERTEX
10
7.80981
20
10.2843
30
8.08
0
VERTEX
10
7.81699
20
10.2816
30
8.08
0
VERTEX
10
7.82057
20
10.2816
30
8.08
0
VERTEX
10
7.82416
20
10.2798
30
8.08
0
VERTEX
10
7.83133
20
10.2798
30
8.08
0
VERTEX
10
7.83492
20
10.2798
30
8.08
0
VERTEX
10
7.84209
20
10.2825
30
8.08
0
VERTEX
10
7.84836
20
10.2897
30
8.08
0
VERTEX
10
7.85105
20
10.2923
30
8.08
0
VERTEX
10
7.85554
20
10.3058
30
8.08
0
VERTEX
10
7.85464
20
10.3201
30
8.08
0
VERTEX
10
7.85374
20
10.3237
30
8.08
0
VERTEX
10
7.84299
20
10.3363
30
8.08
0
VERTEX
10
7.8385
20
10.3417
30
8.08
0
VERTEX
10
7.83671
20
10.3452
30
8.08
0
VERTEX
10
7.82236
20
10.3497
30
8.08
0
VERTEX
10
7.81878
20
10.3506
30
8.08
0
VERTEX
10
7.80533
20
10.339
30
8.08
0
VERTEX
10
7.80264
20
10.3246
30
8.08
0
VERTEX
10
7.80264
20
10.3175
30
8.08
0
VERTEX
10
7.80085
20
10.3103
30
8.08
0
VERTEX
10
7.80085
20
10.3067
30
8.08
0
VERTEX
10
7.80085
20
10.3058
30
8.08
0
SEQEND
0
POLYLINE
62
227
66
1
70
1
3
endoplasmic_reticulum
0
VERTEX
10
7.73271
20
10.1812
30
8.08
0
VERTEX
10
7.73899
20
10.1758
30
8.08
0
VERTEX
10
7.75333
20
10.1713
30
8.08
0
VERTEX
10
7.76768
20
10.174
30
8.08
0
VERTEX
10
7.77485
20
10.1767
30
8.08
0
VERTEX
10
7.77843
20
10.1785
30
8.08
0
VERTEX
10
7.79009
20
10.191
30
8.08
0
VERTEX
10
7.79368
20
10.1919
30
8.08
0
VERTEX
10
7.79816
20
10.1991
30
8.08
0
VERTEX
10
7.80085
20
10.2018
30
8.08
0
VERTEX
10
7.79995
20
10.2161
30
8.08
0
VERTEX
10
7.79905
20
10.2233
30
8.08
0
VERTEX
10
7.79726
20
10.2251
30
8.08
0
VERTEX
10
7.79636
20
10.2323
30
8.08
0
VERTEX
10
7.79547
20
10.2359
30
8.08
0
VERTEX
10
7.78919
20
10.2412
30
8.08
0
VERTEX
10
7.7865
20
10.2439
30
8.08
0
VERTEX
10
7.78292
20
10.2448
30
8.08
0
VERTEX
10
7.75423
20
10.2403
30
8.08
0
VERTEX
10
7.75064
20
10.2386
30
8.08
0
VERTEX
10
7.75064
20
10.2368
30
8.08
0
VERTEX
10
7.73899
20
10.2242
30
8.08
0
VERTEX
10
7.7363
20
10.2206
30
8.08
0
VERTEX
10
7.73271
20
10.2063
30
8.08
0
VERTEX
10
7.73271
20
10.1919
30
8.08
0
VERTEX
10
7.73271
20
10.1848
30
8.08
0
VERTEX
10
7.73271
20
10.1821
30
8.08
0
SEQEND
0
POLYLINE
62
227
66
1
70
1
3
endoplasmic_reticulum
0
VERTEX
10
8.16216
20
10.1112
30
8.08
0
VERTEX
10
8.16485
20
10.1077
30
8.08
0
VERTEX
10
8.16754
20
10.0933
30
8.08
0
VERTEX
10
8.16754
20
10.0861
30
8.08
0
VERTEX
10
8.17022
20
10.079
30
8.08
0
VERTEX
10
8.17381
20
10.0763
30
8.08
0
VERTEX
10
8.18098
20
10.0754
30
8.08
0
VERTEX
10
8.18457
20
10.0754
30
8.08
0
VERTEX
10
8.18816
20
10.0781
30
8.08
0
VERTEX
10
8.19174
20
10.079
30
8.08
0
VERTEX
10
8.19533
20
10.0817
30
8.08
0
VERTEX
10
8.19622
20
10.0852
30
8.08
0
VERTEX
10
8.19533
20
10.0996
30
8.08
0
VERTEX
10
8.19533
20
10.1032
30
8.08
0
VERTEX
10
8.19533
20
10.105
30
8.08
0
VERTEX
10
8.19712
20
10.1068
30
8.08
0
VERTEX
10
8.19981
20
10.1139
30
8.08
0
VERTEX
10
8.19891
20
10.1211
30
8.08
0
VERTEX
10
8.19891
20
10.1247
30
8.08
0
VERTEX
10
8.19533
20
10.1319
30
8.08
0
VERTEX
10
8.19174
20
10.1346
30
8.08
0
VERTEX
10
8.1774
20
10.1355
30
8.08
0
VERTEX
10
8.17381
20
10.1346
30
8.08
0
VERTEX
10
8.17202
20
10.1346
30
8.08
0
VERTEX
10
8.16574
20
10.1292
30
8.08
0
VERTEX
10
8.16305
20
10.1256
30
8.08
0
VERTEX
10
8.16216
20
10.1121
30
8.08
0
SEQEND
0
POLYLINE
62
227
66
1
70
1
3
endoplasmic_reticulum
0
VERTEX
10
8.09402
20
10.2377
30
8.08
0
VERTEX
10
8.0985
20
10.2233
30
8.08
0
VERTEX
10
8.10029
20
10.2197
30
8.08
0
VERTEX
10
8.10029
20
10.2161
30
8.08
0
VERTEX
10
8.10209
20
10.2126
30
8.08
0
VERTEX
10
8.10209
20
10.2108
30
8.08
0
VERTEX
10
8.10478
20
10.2072
30
8.08
0
VERTEX
10
8.10567
20
10.2036
30
8.08
0
VERTEX
10
8.11195
20
10.1973
30
8.08
0
VERTEX
10
8.11554
20
10.1937
30
8.08
0
VERTEX
10
8.12271
20
10.191
30
8.08
0
VERTEX
10
8.12629
20
10.191
30
8.08
0
VERTEX
10
8.12988
20
10.1928
30
8.08
0
VERTEX
10
8.13705
20
10.1928
30
8.08
0
VERTEX
10
8.14422
20
10.1955
30
8.08
0
VERTEX
10
8.15319
20
10.2081
30
8.08
0
VERTEX
10
8.15409
20
10.2152
30
8.08
0
VERTEX
10
8.1514
20
10.2224
30
8.08
0
VERTEX
10
8.1514
20
10.2296
30
8.08
0
VERTEX
10
8.14781
20
10.2368
30
8.08
0
VERTEX
10
8.14064
20
10.2395
30
8.08
0
VERTEX
10
8.13347
20
10.2439
30
8.08
0
VERTEX
10
8.12629
20
10.2466
30
8.08
0
VERTEX
10
8.11195
20
10.2466
30
8.08
0
VERTEX
10
8.10478
20
10.2466
30
8.08
0
VERTEX
10
8.10119
20
10.2466
30
8.08
0
VERTEX
10
8.0994
20
10.2466
30
8.08
0
VERTEX
10
8.09491
20
10.2395
30
8.08
0
VERTEX
10
8.09402
20
10.2386
30
8.08
0
SEQEND
0
ENDSEC
0
EOF
