0
SECTION
2
ENTITIES
0
POLYLINE
62
31
66
1
70
1
3
contour
0
VERTEX
10
8.68429
20
9.43752
30
6.6
0
VERTEX
10
8.69414
20
9.41783
30
6.6
0
VERTEX
10
8.77291
20
9.41291
30
6.6
0
VERTEX
10
8.81229
20
9.41291
30
6.6
0
VERTEX
10
8.89106
20
9.39814
30
6.6
0
VERTEX
10
9.0486
20
9.38829
30
6.6
0
VERTEX
10
9.12737
20
9.38829
30
6.6
0
VERTEX
10
9.14706
20
9.38829
30
6.6
0
VERTEX
10
9.15199
20
9.39814
30
6.6
0
VERTEX
10
9.19137
20
9.39814
30
6.6
0
VERTEX
10
9.21106
20
9.40798
30
6.6
0
VERTEX
10
9.28983
20
9.41783
30
6.6
0
VERTEX
10
9.32922
20
9.42275
30
6.6
0
VERTEX
10
9.34891
20
9.4326
30
6.6
0
VERTEX
10
9.37845
20
9.47198
30
6.6
0
VERTEX
10
9.39322
20
9.51137
30
6.6
0
VERTEX
10
9.41783
20
9.54583
30
6.6
0
VERTEX
10
9.45229
20
9.57045
30
6.6
0
VERTEX
10
9.48675
20
9.60491
30
6.6
0
VERTEX
10
9.50645
20
9.61968
30
6.6
0
VERTEX
10
9.50645
20
9.62952
30
6.6
0
VERTEX
10
9.51629
20
9.63937
30
6.6
0
VERTEX
10
9.51629
20
9.67875
30
6.6
0
VERTEX
10
9.48675
20
9.71322
30
6.6
0
VERTEX
10
9.46706
20
9.72306
30
6.6
0
VERTEX
10
9.40306
20
9.79198
30
6.6
0
VERTEX
10
9.39322
20
9.81168
30
6.6
0
VERTEX
10
9.38829
20
9.89045
30
6.6
0
VERTEX
10
9.38829
20
9.90029
30
6.6
0
VERTEX
10
9.32922
20
9.96921
30
6.6
0
VERTEX
10
9.31937
20
9.98398
30
6.6
0
VERTEX
10
9.29968
20
9.99875
30
6.6
0
VERTEX
10
9.28983
20
10.0086
30
6.6
0
VERTEX
10
9.28983
20
10.0184
30
6.6
0
VERTEX
10
9.26029
20
10.0431
30
6.6
0
VERTEX
10
9.2406
20
10.048
30
6.6
0
VERTEX
10
9.22583
20
10.0628
30
6.6
0
VERTEX
10
9.20614
20
10.0677
30
6.6
0
VERTEX
10
9.16675
20
10.0923
30
6.6
0
VERTEX
10
9.08799
20
10.1268
30
6.6
0
VERTEX
10
9.06829
20
10.1415
30
6.6
0
VERTEX
10
9.02891
20
10.1366
30
6.6
0
VERTEX
10
8.98952
20
10.1218
30
6.6
0
VERTEX
10
8.96983
20
10.1169
30
6.6
0
VERTEX
10
8.93537
20
10.0923
30
6.6
0
VERTEX
10
8.91568
20
10.0824
30
6.6
0
VERTEX
10
8.90583
20
10.0037
30
6.6
0
VERTEX
10
8.90583
20
9.96429
30
6.6
0
VERTEX
10
8.90583
20
9.9446
30
6.6
0
VERTEX
10
8.91568
20
9.92491
30
6.6
0
VERTEX
10
8.9206
20
9.84614
30
6.6
0
VERTEX
10
8.91075
20
9.80675
30
6.6
0
VERTEX
10
8.90091
20
9.80675
30
6.6
0
VERTEX
10
8.89106
20
9.79691
30
6.6
0
VERTEX
10
8.88122
20
9.79691
30
6.6
0
VERTEX
10
8.86645
20
9.75752
30
6.6
0
VERTEX
10
8.85168
20
9.73783
30
6.6
0
VERTEX
10
8.84183
20
9.69845
30
6.6
0
VERTEX
10
8.78276
20
9.6246
30
6.6
0
VERTEX
10
8.71383
20
9.55075
30
6.6
0
VERTEX
10
8.68922
20
9.51137
30
6.6
0
VERTEX
10
8.68429
20
9.47198
30
6.6
0
VERTEX
10
8.68429
20
9.45229
30
6.6
0
VERTEX
10
8.68429
20
9.44245
30
6.6
0
SEQEND
0
POLYLINE
62
31
66
1
70
1
3
contour
0
VERTEX
10
10.1068
20
9.6478
30
6.6
0
VERTEX
10
10.1157
20
9.61232
30
6.6
0
VERTEX
10
10.129
20
9.57684
30
6.6
0
VERTEX
10
10.1423
20
9.5591
30
6.6
0
VERTEX
10
10.1489
20
9.54136
30
6.6
0
VERTEX
10
10.1534
20
9.53914
30
6.6
0
VERTEX
10
10.1578
20
9.5214
30
6.6
0
VERTEX
10
10.1777
20
9.48814
30
6.6
0
VERTEX
10
10.1844
20
9.47927
30
6.6
0
VERTEX
10
10.1866
20
9.46154
30
6.6
0
VERTEX
10
10.1933
20
9.4438
30
6.6
0
VERTEX
10
10.2154
20
9.40832
30
6.6
0
VERTEX
10
10.2487
20
9.37949
30
6.6
0
VERTEX
10
10.3197
20
9.3418
30
6.6
0
VERTEX
10
10.3285
20
9.33958
30
6.6
0
VERTEX
10
10.3352
20
9.33293
30
6.6
0
VERTEX
10
10.4061
20
9.30854
30
6.6
0
VERTEX
10
10.4416
20
9.29302
30
6.6
0
VERTEX
10
10.5126
20
9.2908
30
6.6
0
VERTEX
10
10.548
20
9.29745
30
6.6
0
VERTEX
10
10.5658
20
9.3041
30
6.6
0
VERTEX
10
10.5724
20
9.31075
30
6.6
0
VERTEX
10
10.5747
20
9.31519
30
6.6
0
VERTEX
10
10.5791
20
9.31519
30
6.6
0
VERTEX
10
10.5857
20
9.32406
30
6.6
0
VERTEX
10
10.599
20
9.35954
30
6.6
0
VERTEX
10
10.5968
20
9.43049
30
6.6
0
VERTEX
10
10.5968
20
9.46597
30
6.6
0
VERTEX
10
10.5946
20
9.47484
30
6.6
0
VERTEX
10
10.5946
20
9.47927
30
6.6
0
VERTEX
10
10.5857
20
9.48593
30
6.6
0
VERTEX
10
10.5857
20
9.4948
30
6.6
0
VERTEX
10
10.5791
20
9.51254
30
6.6
0
VERTEX
10
10.5769
20
9.53027
30
6.6
0
VERTEX
10
10.5769
20
9.53471
30
6.6
0
VERTEX
10
10.5636
20
9.55023
30
6.6
0
VERTEX
10
10.5591
20
9.56797
30
6.6
0
VERTEX
10
10.5436
20
9.58127
30
6.6
0
VERTEX
10
10.537
20
9.59014
30
6.6
0
VERTEX
10
10.537
20
9.59458
30
6.6
0
VERTEX
10
10.5081
20
9.62562
30
6.6
0
VERTEX
10
10.4926
20
9.63671
30
6.6
0
VERTEX
10
10.4749
20
9.64336
30
6.6
0
VERTEX
10
10.4039
20
9.6478
30
6.6
0
VERTEX
10
10.3684
20
9.6478
30
6.6
0
VERTEX
10
10.333
20
9.65445
30
6.6
0
VERTEX
10
10.1911
20
9.65666
30
6.6
0
VERTEX
10
10.1578
20
9.65445
30
6.6
0
VERTEX
10
10.1467
20
9.66997
30
6.6
0
VERTEX
10
10.1112
20
9.66332
30
6.6
0
VERTEX
10
10.1068
20
9.65888
30
6.6
0
VERTEX
10
10.1068
20
9.65001
30
6.6
0
SEQEND
0
POLYLINE
62
31
66
1
70
1
3
contour
0
VERTEX
10
8.27973
20
9.11612
30
6.6
0
VERTEX
10
8.28787
20
9.07267
30
6.6
0
VERTEX
10
8.2933
20
9.06181
30
6.6
0
VERTEX
10
8.30145
20
9.01836
30
6.6
0
VERTEX
10
8.32046
20
9.00478
30
6.6
0
VERTEX
10
8.33132
20
8.99663
30
6.6
0
VERTEX
10
8.37477
20
8.99663
30
6.6
0
VERTEX
10
8.3965
20
9.00206
30
6.6
0
VERTEX
10
8.40736
20
9.00206
30
6.6
0
VERTEX
10
8.45081
20
9.01836
30
6.6
0
VERTEX
10
8.46438
20
9.03194
30
6.6
0
VERTEX
10
8.48611
20
9.03737
30
6.6
0
VERTEX
10
8.52956
20
9.05638
30
6.6
0
VERTEX
10
8.54585
20
9.07538
30
6.6
0
VERTEX
10
8.56486
20
9.08896
30
6.6
0
VERTEX
10
8.57301
20
9.09711
30
6.6
0
VERTEX
10
8.57844
20
9.09982
30
6.6
0
VERTEX
10
8.58115
20
9.11069
30
6.6
0
VERTEX
10
8.59202
20
9.11612
30
6.6
0
VERTEX
10
8.63275
20
9.15957
30
6.6
0
VERTEX
10
8.63818
20
9.17043
30
6.6
0
VERTEX
10
8.63818
20
9.21388
30
6.6
0
VERTEX
10
8.62732
20
9.2356
30
6.6
0
VERTEX
10
8.60559
20
9.24918
30
6.6
0
VERTEX
10
8.59473
20
9.2519
30
6.6
0
VERTEX
10
8.58658
20
9.26276
30
6.6
0
VERTEX
10
8.58115
20
9.26276
30
6.6
0
VERTEX
10
8.57029
20
9.2709
30
6.6
0
VERTEX
10
8.52684
20
9.28177
30
6.6
0
VERTEX
10
8.50512
20
9.28448
30
6.6
0
VERTEX
10
8.49426
20
9.2872
30
6.6
0
VERTEX
10
8.48882
20
9.2872
30
6.6
0
VERTEX
10
8.48339
20
9.29263
30
6.6
0
VERTEX
10
8.3965
20
9.28991
30
6.6
0
VERTEX
10
8.35305
20
9.28177
30
6.6
0
VERTEX
10
8.3096
20
9.26819
30
6.6
0
VERTEX
10
8.3096
20
9.24646
30
6.6
0
VERTEX
10
8.30688
20
9.2356
30
6.6
0
VERTEX
10
8.28787
20
9.21659
30
6.6
0
VERTEX
10
8.28244
20
9.21116
30
6.6
0
VERTEX
10
8.27973
20
9.12426
30
6.6
0
VERTEX
10
8.27973
20
9.11883
30
6.6
0
SEQEND
0
POLYLINE
62
31
66
1
70
1
3
contour
0
VERTEX
10
7.87263
20
9.18074
30
6.6
0
VERTEX
10
7.88595
20
9.16209
30
6.6
0
VERTEX
10
7.89394
20
9.15143
30
6.6
0
VERTEX
10
7.91525
20
9.14876
30
6.6
0
VERTEX
10
7.93657
20
9.15409
30
6.6
0
VERTEX
10
7.94722
20
9.15409
30
6.6
0
VERTEX
10
7.95255
20
9.15409
30
6.6
0
VERTEX
10
7.95788
20
9.16475
30
6.6
0
VERTEX
10
7.96854
20
9.16475
30
6.6
0
VERTEX
10
7.97653
20
9.17274
30
6.6
0
VERTEX
10
7.97919
20
9.17807
30
6.6
0
VERTEX
10
7.98452
20
9.17807
30
6.6
0
VERTEX
10
7.98719
20
9.19938
30
6.6
0
VERTEX
10
7.98452
20
9.2207
30
6.6
0
VERTEX
10
7.97919
20
9.22603
30
6.6
0
VERTEX
10
7.97653
20
9.23668
30
6.6
0
VERTEX
10
7.97653
20
9.24201
30
6.6
0
VERTEX
10
7.95522
20
9.25
30
6.6
0
VERTEX
10
7.9339
20
9.25267
30
6.6
0
VERTEX
10
7.92857
20
9.24734
30
6.6
0
VERTEX
10
7.91792
20
9.24734
30
6.6
0
VERTEX
10
7.91259
20
9.24734
30
6.6
0
VERTEX
10
7.90726
20
9.24201
30
6.6
0
VERTEX
10
7.8966
20
9.23935
30
6.6
0
VERTEX
10
7.88328
20
9.22603
30
6.6
0
VERTEX
10
7.88328
20
9.2207
30
6.6
0
VERTEX
10
7.87263
20
9.21271
30
6.6
0
VERTEX
10
7.87263
20
9.19139
30
6.6
0
VERTEX
10
7.87263
20
9.1834
30
6.6
0
SEQEND
0
POLYLINE
62
224
66
1
70
1
3
mitochondrion
0
VERTEX
10
8.91405
20
9.57728
30
6.6
0
VERTEX
10
8.921
20
9.55503
30
6.6
0
VERTEX
10
8.92239
20
9.54947
30
6.6
0
VERTEX
10
8.93907
20
9.5314
30
6.6
0
VERTEX
10
8.94325
20
9.52723
30
6.6
0
VERTEX
10
8.94325
20
9.52444
30
6.6
0
VERTEX
10
8.95298
20
9.51471
30
6.6
0
VERTEX
10
8.95854
20
9.51193
30
6.6
0
VERTEX
10
8.96132
20
9.50637
30
6.6
0
VERTEX
10
8.97244
20
9.49803
30
6.6
0
VERTEX
10
8.97523
20
9.49803
30
6.6
0
VERTEX
10
8.98079
20
9.49246
30
6.6
0
VERTEX
10
8.98635
20
9.48968
30
6.6
0
VERTEX
10
8.99191
20
9.48968
30
6.6
0
VERTEX
10
8.99747
20
9.4869
30
6.6
0
VERTEX
10
9.08646
20
9.48551
30
6.6
0
VERTEX
10
9.13095
20
9.4869
30
6.6
0
VERTEX
10
9.13651
20
9.4869
30
6.6
0
VERTEX
10
9.14208
20
9.49107
30
6.6
0
VERTEX
10
9.1532
20
9.49386
30
6.6
0
VERTEX
10
9.15876
20
9.49525
30
6.6
0
VERTEX
10
9.16849
20
9.50359
30
6.6
0
VERTEX
10
9.17267
20
9.51471
30
6.6
0
VERTEX
10
9.17684
20
9.52027
30
6.6
0
VERTEX
10
9.17823
20
9.52584
30
6.6
0
VERTEX
10
9.18657
20
9.53557
30
6.6
0
VERTEX
10
9.18935
20
9.53835
30
6.6
0
VERTEX
10
9.18935
20
9.54113
30
6.6
0
VERTEX
10
9.19352
20
9.54391
30
6.6
0
VERTEX
10
9.19769
20
9.5884
30
6.6
0
VERTEX
10
9.19769
20
9.61065
30
6.6
0
VERTEX
10
9.1963
20
9.62177
30
6.6
0
VERTEX
10
9.18796
20
9.64402
30
6.6
0
VERTEX
10
9.17962
20
9.65515
30
6.6
0
VERTEX
10
9.17406
20
9.65793
30
6.6
0
VERTEX
10
9.16432
20
9.66905
30
6.6
0
VERTEX
10
9.15459
20
9.67739
30
6.6
0
VERTEX
10
9.14347
20
9.68156
30
6.6
0
VERTEX
10
9.13791
20
9.68434
30
6.6
0
VERTEX
10
9.13512
20
9.68713
30
6.6
0
VERTEX
10
9.11288
20
9.69408
30
6.6
0
VERTEX
10
9.06838
20
9.69547
30
6.6
0
VERTEX
10
9.02389
20
9.69269
30
6.6
0
VERTEX
10
9.01277
20
9.68852
30
6.6
0
VERTEX
10
9.00164
20
9.68852
30
6.6
0
VERTEX
10
8.99052
20
9.68434
30
6.6
0
VERTEX
10
8.98496
20
9.68017
30
6.6
0
VERTEX
10
8.97383
20
9.67739
30
6.6
0
VERTEX
10
8.96966
20
9.67322
30
6.6
0
VERTEX
10
8.95854
20
9.66905
30
6.6
0
VERTEX
10
8.95437
20
9.65793
30
6.6
0
VERTEX
10
8.9502
20
9.65375
30
6.6
0
VERTEX
10
8.94742
20
9.65375
30
6.6
0
VERTEX
10
8.93768
20
9.64263
30
6.6
0
VERTEX
10
8.93351
20
9.63985
30
6.6
0
VERTEX
10
8.92378
20
9.6176
30
6.6
0
VERTEX
10
8.91683
20
9.60648
30
6.6
0
VERTEX
10
8.91405
20
9.59536
30
6.6
0
VERTEX
10
8.91405
20
9.58423
30
6.6
0
VERTEX
10
8.91405
20
9.57867
30
6.6
0
SEQEND
0
POLYLINE
62
236
66
1
70
1
3
postsynaptic_density
0
VERTEX
10
10.5274
20
9.55697
30
6.6
0
VERTEX
10
10.5461
20
9.43753
30
6.6
0
VERTEX
10
10.5461
20
9.4226
30
6.6
0
VERTEX
10
10.5517
20
9.41513
30
6.6
0
VERTEX
10
10.5815
20
9.41327
30
6.6
0
VERTEX
10
10.6114
20
9.417
30
6.6
0
VERTEX
10
10.6189
20
9.41886
30
6.6
0
VERTEX
10
10.6226
20
9.42073
30
6.6
0
VERTEX
10
10.6226
20
9.45059
30
6.6
0
VERTEX
10
10.6207
20
9.46552
30
6.6
0
VERTEX
10
10.6114
20
9.47858
30
6.6
0
VERTEX
10
10.6021
20
9.50844
30
6.6
0
VERTEX
10
10.6039
20
9.51591
30
6.6
0
VERTEX
10
10.6095
20
9.52337
30
6.6
0
VERTEX
10
10.6114
20
9.52711
30
6.6
0
VERTEX
10
10.6021
20
9.54017
30
6.6
0
VERTEX
10
10.5965
20
9.54763
30
6.6
0
VERTEX
10
10.5927
20
9.54763
30
6.6
0
VERTEX
10
10.5797
20
9.55883
30
6.6
0
VERTEX
10
10.5741
20
9.5663
30
6.6
0
VERTEX
10
10.5442
20
9.56816
30
6.6
0
VERTEX
10
10.5367
20
9.56816
30
6.6
0
VERTEX
10
10.533
20
9.56816
30
6.6
0
VERTEX
10
10.5274
20
9.5607
30
6.6
0
VERTEX
10
10.5274
20
9.55883
30
6.6
0
SEQEND
0
POLYLINE
62
236
66
1
70
1
3
postsynaptic_density
0
VERTEX
10
8.23381
20
9.1352
30
6.6
0
VERTEX
10
8.23941
20
9.12027
30
6.6
0
VERTEX
10
8.24127
20
9.09041
30
6.6
0
VERTEX
10
8.24314
20
9.08294
30
6.6
0
VERTEX
10
8.24687
20
9.07921
30
6.6
0
VERTEX
10
8.25247
20
9.04935
30
6.6
0
VERTEX
10
8.26367
20
9.01949
30
6.6
0
VERTEX
10
8.26367
20
9.01576
30
6.6
0
VERTEX
10
8.27487
20
9.0027
30
6.6
0
VERTEX
10
8.2786
20
8.99523
30
6.6
0
VERTEX
10
8.28233
20
8.9915
30
6.6
0
VERTEX
10
8.29726
20
8.9915
30
6.6
0
VERTEX
10
8.31219
20
8.9971
30
6.6
0
VERTEX
10
8.31966
20
9.00083
30
6.6
0
VERTEX
10
8.32339
20
9.00456
30
6.6
0
VERTEX
10
8.33085
20
9.00643
30
6.6
0
VERTEX
10
8.34018
20
9.01949
30
6.6
0
VERTEX
10
8.34018
20
9.02696
30
6.6
0
VERTEX
10
8.34392
20
9.03442
30
6.6
0
VERTEX
10
8.34205
20
9.09414
30
6.6
0
VERTEX
10
8.34392
20
9.15386
30
6.6
0
VERTEX
10
8.34392
20
9.16879
30
6.6
0
VERTEX
10
8.34392
20
9.17626
30
6.6
0
VERTEX
10
8.34392
20
9.17999
30
6.6
0
VERTEX
10
8.33085
20
9.19492
30
6.6
0
VERTEX
10
8.32152
20
9.20611
30
6.6
0
VERTEX
10
8.31406
20
9.21171
30
6.6
0
VERTEX
10
8.29913
20
9.21358
30
6.6
0
VERTEX
10
8.29166
20
9.21731
30
6.6
0
VERTEX
10
8.2618
20
9.21731
30
6.6
0
VERTEX
10
8.2562
20
9.21171
30
6.6
0
VERTEX
10
8.24874
20
9.18185
30
6.6
0
VERTEX
10
8.24314
20
9.16692
30
6.6
0
VERTEX
10
8.24127
20
9.15946
30
6.6
0
VERTEX
10
8.23567
20
9.15199
30
6.6
0
VERTEX
10
8.23381
20
9.13706
30
6.6
0
SEQEND
0
POLYLINE
62
227
66
1
70
1
3
endoplasmic_reticulum
0
VERTEX
10
9.18422
20
9.68001
30
6.6
0
VERTEX
10
9.18691
20
9.67284
30
6.6
0
VERTEX
10
9.1878
20
9.66566
30
6.6
0
VERTEX
10
9.19229
20
9.65849
30
6.6
0
VERTEX
10
9.19856
20
9.65401
30
6.6
0
VERTEX
10
9.20574
20
9.65311
30
6.6
0
VERTEX
10
9.20932
20
9.65042
30
6.6
0
VERTEX
10
9.22367
20
9.64863
30
6.6
0
VERTEX
10
9.23801
20
9.65222
30
6.6
0
VERTEX
10
9.23891
20
9.65939
30
6.6
0
VERTEX
10
9.23353
20
9.67284
30
6.6
0
VERTEX
10
9.23084
20
9.68001
30
6.6
0
VERTEX
10
9.22994
20
9.68359
30
6.6
0
VERTEX
10
9.22367
20
9.68897
30
6.6
0
VERTEX
10
9.22008
20
9.69166
30
6.6
0
VERTEX
10
9.21649
20
9.69166
30
6.6
0
VERTEX
10
9.21291
20
9.69346
30
6.6
0
VERTEX
10
9.21201
20
9.69525
30
6.6
0
VERTEX
10
9.19767
20
9.69435
30
6.6
0
VERTEX
10
9.19049
20
9.69346
30
6.6
0
VERTEX
10
9.18691
20
9.69346
30
6.6
0
VERTEX
10
9.18511
20
9.69346
30
6.6
0
VERTEX
10
9.18422
20
9.68628
30
6.6
0
VERTEX
10
9.18422
20
9.6827
30
6.6
0
VERTEX
10
9.18422
20
9.6809
30
6.6
0
SEQEND
0
POLYLINE
62
227
66
1
70
1
3
endoplasmic_reticulum
0
VERTEX
10
8.94394
20
9.83421
30
6.6
0
VERTEX
10
8.94484
20
9.82704
30
6.6
0
VERTEX
10
8.95112
20
9.82256
30
6.6
0
VERTEX
10
8.95829
20
9.82077
30
6.6
0
VERTEX
10
8.96008
20
9.81897
30
6.6
0
VERTEX
10
8.97443
20
9.81628
30
6.6
0
VERTEX
10
9.00312
20
9.81449
30
6.6
0
VERTEX
10
9.01029
20
9.81359
30
6.6
0
VERTEX
10
9.01298
20
9.8127
30
6.6
0
VERTEX
10
9.01656
20
9.81001
30
6.6
0
VERTEX
10
9.01836
20
9.81001
30
6.6
0
VERTEX
10
9.02374
20
9.80463
30
6.6
0
VERTEX
10
9.02463
20
9.80284
30
6.6
0
VERTEX
10
9.02374
20
9.79566
30
6.6
0
VERTEX
10
9.02553
20
9.78849
30
6.6
0
VERTEX
10
9.02553
20
9.78132
30
6.6
0
VERTEX
10
9.02553
20
9.77773
30
6.6
0
VERTEX
10
9.03001
20
9.77146
30
6.6
0
VERTEX
10
9.03001
20
9.76966
30
6.6
0
VERTEX
10
9.0327
20
9.76697
30
6.6
0
VERTEX
10
9.03987
20
9.76518
30
6.6
0
VERTEX
10
9.04167
20
9.76339
30
6.6
0
VERTEX
10
9.04525
20
9.76249
30
6.6
0
VERTEX
10
9.04794
20
9.7598
30
6.6
0
VERTEX
10
9.06229
20
9.7607
30
6.6
0
VERTEX
10
9.06946
20
9.76339
30
6.6
0
VERTEX
10
9.07574
20
9.76966
30
6.6
0
VERTEX
10
9.07663
20
9.78401
30
6.6
0
VERTEX
10
9.07663
20
9.78759
30
6.6
0
VERTEX
10
9.07663
20
9.78939
30
6.6
0
VERTEX
10
9.07484
20
9.79118
30
6.6
0
VERTEX
10
9.07394
20
9.79835
30
6.6
0
VERTEX
10
9.07036
20
9.80552
30
6.6
0
VERTEX
10
9.06318
20
9.8127
30
6.6
0
VERTEX
10
9.0596
20
9.81449
30
6.6
0
VERTEX
10
9.04794
20
9.82615
30
6.6
0
VERTEX
10
9.04525
20
9.82973
30
6.6
0
VERTEX
10
9.03898
20
9.83421
30
6.6
0
VERTEX
10
9.03718
20
9.83421
30
6.6
0
VERTEX
10
9.0336
20
9.8369
30
6.6
0
VERTEX
10
9.02643
20
9.8378
30
6.6
0
VERTEX
10
9.02284
20
9.84049
30
6.6
0
VERTEX
10
9.02105
20
9.84139
30
6.6
0
VERTEX
10
9.01746
20
9.83959
30
6.6
0
VERTEX
10
9.00312
20
9.84228
30
6.6
0
VERTEX
10
8.99594
20
9.84587
30
6.6
0
VERTEX
10
8.99236
20
9.84766
30
6.6
0
VERTEX
10
8.99056
20
9.84946
30
6.6
0
VERTEX
10
8.98698
20
9.84946
30
6.6
0
VERTEX
10
8.98339
20
9.85125
30
6.6
0
VERTEX
10
8.96905
20
9.85394
30
6.6
0
VERTEX
10
8.96187
20
9.85304
30
6.6
0
VERTEX
10
8.95829
20
9.85304
30
6.6
0
VERTEX
10
8.9565
20
9.85304
30
6.6
0
VERTEX
10
8.95112
20
9.84677
30
6.6
0
VERTEX
10
8.94932
20
9.84318
30
6.6
0
VERTEX
10
8.94753
20
9.84228
30
6.6
0
VERTEX
10
8.94753
20
9.84049
30
6.6
0
VERTEX
10
8.94484
20
9.8369
30
6.6
0
VERTEX
10
8.94394
20
9.83511
30
6.6
0
SEQEND
0
POLYLINE
62
227
66
1
70
1
3
endoplasmic_reticulum
0
VERTEX
10
8.87132
20
9.68987
30
6.6
0
VERTEX
10
8.87401
20
9.68718
30
6.6
0
VERTEX
10
8.87491
20
9.68359
30
6.6
0
VERTEX
10
8.88029
20
9.67822
30
6.6
0
VERTEX
10
8.88746
20
9.67642
30
6.6
0
VERTEX
10
8.89463
20
9.67642
30
6.6
0
VERTEX
10
8.89822
20
9.67642
30
6.6
0
VERTEX
10
8.90001
20
9.67642
30
6.6
0
VERTEX
10
8.90181
20
9.67822
30
6.6
0
VERTEX
10
8.90539
20
9.67911
30
6.6
0
VERTEX
10
8.90719
20
9.6827
30
6.6
0
VERTEX
10
8.90808
20
9.68987
30
6.6
0
VERTEX
10
8.90808
20
9.69346
30
6.6
0
VERTEX
10
8.9036
20
9.69973
30
6.6
0
VERTEX
10
8.9036
20
9.70153
30
6.6
0
VERTEX
10
8.89732
20
9.7078
30
6.6
0
VERTEX
10
8.89015
20
9.71049
30
6.6
0
VERTEX
10
8.88657
20
9.71228
30
6.6
0
VERTEX
10
8.88477
20
9.71228
30
6.6
0
VERTEX
10
8.88029
20
9.70511
30
6.6
0
VERTEX
10
8.87491
20
9.69973
30
6.6
0
VERTEX
10
8.87222
20
9.69704
30
6.6
0
VERTEX
10
8.87132
20
9.69077
30
6.6
0
SEQEND
0
POLYLINE
62
227
66
1
70
1
3
endoplasmic_reticulum
0
VERTEX
10
8.73863
20
9.50966
30
6.6
0
VERTEX
10
8.74581
20
9.50429
30
6.6
0
VERTEX
10
8.75298
20
9.5007
30
6.6
0
VERTEX
10
8.76643
20
9.48994
30
6.6
0
VERTEX
10
8.7727
20
9.48456
30
6.6
0
VERTEX
10
8.77629
20
9.48277
30
6.6
0
VERTEX
10
8.77629
20
9.4756
30
6.6
0
VERTEX
10
8.77629
20
9.47201
30
6.6
0
VERTEX
10
8.77091
20
9.45856
30
6.6
0
VERTEX
10
8.77001
20
9.45498
30
6.6
0
VERTEX
10
8.76732
20
9.45139
30
6.6
0
VERTEX
10
8.76732
20
9.4478
30
6.6
0
VERTEX
10
8.77091
20
9.44063
30
6.6
0
VERTEX
10
8.7736
20
9.43704
30
6.6
0
VERTEX
10
8.78077
20
9.43615
30
6.6
0
VERTEX
10
8.78436
20
9.43615
30
6.6
0
VERTEX
10
8.78615
20
9.43615
30
6.6
0
VERTEX
10
8.78974
20
9.43884
30
6.6
0
VERTEX
10
8.79691
20
9.43973
30
6.6
0
VERTEX
10
8.7987
20
9.43973
30
6.6
0
VERTEX
10
8.80498
20
9.44601
30
6.6
0
VERTEX
10
8.81126
20
9.45049
30
6.6
0
VERTEX
10
8.81663
20
9.45766
30
6.6
0
VERTEX
10
8.82022
20
9.46035
30
6.6
0
VERTEX
10
8.82201
20
9.46035
30
6.6
0
VERTEX
10
8.82381
20
9.46215
30
6.6
0
VERTEX
10
8.8256
20
9.46215
30
6.6
0
VERTEX
10
8.82829
20
9.46484
30
6.6
0
VERTEX
10
8.83546
20
9.46753
30
6.6
0
VERTEX
10
8.84981
20
9.46842
30
6.6
0
VERTEX
10
8.85698
20
9.46753
30
6.6
0
VERTEX
10
8.87132
20
9.47022
30
6.6
0
VERTEX
10
8.87132
20
9.48456
30
6.6
0
VERTEX
10
8.87401
20
9.49891
30
6.6
0
VERTEX
10
8.87581
20
9.4998
30
6.6
0
VERTEX
10
8.87581
20
9.5016
30
6.6
0
VERTEX
10
8.8776
20
9.50339
30
6.6
0
VERTEX
10
8.8776
20
9.50518
30
6.6
0
VERTEX
10
8.88119
20
9.50787
30
6.6
0
VERTEX
10
8.88298
20
9.51146
30
6.6
0
VERTEX
10
8.88298
20
9.51325
30
6.6
0
VERTEX
10
8.88477
20
9.51504
30
6.6
0
VERTEX
10
8.88657
20
9.52222
30
6.6
0
VERTEX
10
8.88567
20
9.55091
30
6.6
0
VERTEX
10
8.88567
20
9.55449
30
6.6
0
VERTEX
10
8.88567
20
9.55628
30
6.6
0
VERTEX
10
8.87132
20
9.56346
30
6.6
0
VERTEX
10
8.85698
20
9.56256
30
6.6
0
VERTEX
10
8.85339
20
9.56077
30
6.6
0
VERTEX
10
8.84981
20
9.56077
30
6.6
0
VERTEX
10
8.83636
20
9.5518
30
6.6
0
VERTEX
10
8.83098
20
9.54553
30
6.6
0
VERTEX
10
8.82381
20
9.54104
30
6.6
0
VERTEX
10
8.82022
20
9.53925
30
6.6
0
VERTEX
10
8.81843
20
9.53925
30
6.6
0
VERTEX
10
8.81484
20
9.53656
30
6.6
0
VERTEX
10
8.8005
20
9.53477
30
6.6
0
VERTEX
10
8.79332
20
9.53387
30
6.6
0
VERTEX
10
8.78974
20
9.53387
30
6.6
0
VERTEX
10
8.78794
20
9.53387
30
6.6
0
VERTEX
10
8.78346
20
9.53835
30
6.6
0
VERTEX
10
8.77629
20
9.53835
30
6.6
0
VERTEX
10
8.76195
20
9.53566
30
6.6
0
VERTEX
10
8.7476
20
9.5276
30
6.6
0
VERTEX
10
8.74401
20
9.52491
30
6.6
0
VERTEX
10
8.74043
20
9.52491
30
6.6
0
VERTEX
10
8.73863
20
9.52401
30
6.6
0
VERTEX
10
8.73863
20
9.51056
30
6.6
0
SEQEND
0
POLYLINE
62
227
66
1
70
1
3
endoplasmic_reticulum
0
VERTEX
10
9.24608
20
9.54822
30
6.6
0
VERTEX
10
9.24877
20
9.53387
30
6.6
0
VERTEX
10
9.24967
20
9.53029
30
6.6
0
VERTEX
10
9.25594
20
9.52491
30
6.6
0
VERTEX
10
9.25774
20
9.52222
30
6.6
0
VERTEX
10
9.25953
20
9.52132
30
6.6
0
VERTEX
10
9.25953
20
9.51953
30
6.6
0
VERTEX
10
9.26311
20
9.51594
30
6.6
0
VERTEX
10
9.2667
20
9.51504
30
6.6
0
VERTEX
10
9.27029
20
9.51594
30
6.6
0
VERTEX
10
9.27208
20
9.51773
30
6.6
0
VERTEX
10
9.27925
20
9.51863
30
6.6
0
VERTEX
10
9.28284
20
9.51953
30
6.6
0
VERTEX
10
9.28642
20
9.52222
30
6.6
0
VERTEX
10
9.28822
20
9.52222
30
6.6
0
VERTEX
10
9.2936
20
9.52939
30
6.6
0
VERTEX
10
9.29629
20
9.53297
30
6.6
0
VERTEX
10
9.29898
20
9.54015
30
6.6
0
VERTEX
10
9.30077
20
9.54194
30
6.6
0
VERTEX
10
9.30167
20
9.54911
30
6.6
0
VERTEX
10
9.30436
20
9.5527
30
6.6
0
VERTEX
10
9.30436
20
9.56704
30
6.6
0
VERTEX
10
9.30346
20
9.57422
30
6.6
0
VERTEX
10
9.30077
20
9.58049
30
6.6
0
VERTEX
10
9.29898
20
9.58408
30
6.6
0
VERTEX
10
9.29539
20
9.58677
30
6.6
0
VERTEX
10
9.29449
20
9.58856
30
6.6
0
VERTEX
10
9.28015
20
9.59125
30
6.6
0
VERTEX
10
9.27298
20
9.59035
30
6.6
0
VERTEX
10
9.2658
20
9.58766
30
6.6
0
VERTEX
10
9.25863
20
9.58228
30
6.6
0
VERTEX
10
9.25505
20
9.5796
30
6.6
0
VERTEX
10
9.25415
20
9.57242
30
6.6
0
VERTEX
10
9.25146
20
9.56884
30
6.6
0
VERTEX
10
9.25146
20
9.56704
30
6.6
0
VERTEX
10
9.24698
20
9.56077
30
6.6
0
VERTEX
10
9.24608
20
9.5536
30
6.6
0
VERTEX
10
9.24608
20
9.55001
30
6.6
0
VERTEX
10
9.24608
20
9.54911
30
6.6
0
SEQEND
0
ENDSEC
0
EOF
