0
SECTION
2
ENTITIES
0
POLYLINE
62
31
66
1
70
1
3
contour
0
VERTEX
10
8.17229
20
9.77722
30
7.12
0
VERTEX
10
8.19199
20
9.69845
30
7.12
0
VERTEX
10
8.19199
20
9.67875
30
7.12
0
VERTEX
10
8.21168
20
9.63937
30
7.12
0
VERTEX
10
8.24122
20
9.59998
30
7.12
0
VERTEX
10
8.25599
20
9.58029
30
7.12
0
VERTEX
10
8.26583
20
9.57537
30
7.12
0
VERTEX
10
8.26583
20
9.56552
30
7.12
0
VERTEX
10
8.33968
20
9.50645
30
7.12
0
VERTEX
10
8.35937
20
9.49168
30
7.12
0
VERTEX
10
8.38399
20
9.45722
30
7.12
0
VERTEX
10
8.42337
20
9.4326
30
7.12
0
VERTEX
10
8.44306
20
9.42768
30
7.12
0
VERTEX
10
8.52183
20
9.37352
30
7.12
0
VERTEX
10
8.53168
20
9.36368
30
7.12
0
VERTEX
10
8.57106
20
9.35875
30
7.12
0
VERTEX
10
8.61045
20
9.36368
30
7.12
0
VERTEX
10
8.68429
20
9.42275
30
7.12
0
VERTEX
10
8.72368
20
9.46214
30
7.12
0
VERTEX
10
8.76306
20
9.48183
30
7.12
0
VERTEX
10
8.80245
20
9.48183
30
7.12
0
VERTEX
10
8.82214
20
9.4966
30
7.12
0
VERTEX
10
8.86152
20
9.50152
30
7.12
0
VERTEX
10
8.87137
20
9.51137
30
7.12
0
VERTEX
10
8.87629
20
9.55075
30
7.12
0
VERTEX
10
8.86645
20
9.57045
30
7.12
0
VERTEX
10
8.8566
20
9.72798
30
7.12
0
VERTEX
10
8.8566
20
9.74768
30
7.12
0
VERTEX
10
8.84676
20
9.76245
30
7.12
0
VERTEX
10
8.85168
20
9.80183
30
7.12
0
VERTEX
10
8.85168
20
9.82152
30
7.12
0
VERTEX
10
8.85168
20
9.83137
30
7.12
0
VERTEX
10
8.86152
20
9.83629
30
7.12
0
VERTEX
10
8.86152
20
9.84614
30
7.12
0
VERTEX
10
8.88122
20
9.85106
30
7.12
0
VERTEX
10
8.89106
20
9.85106
30
7.12
0
VERTEX
10
8.90583
20
9.87075
30
7.12
0
VERTEX
10
8.92552
20
9.8806
30
7.12
0
VERTEX
10
9.00429
20
9.8806
30
7.12
0
VERTEX
10
9.04368
20
9.88552
30
7.12
0
VERTEX
10
9.05352
20
9.88552
30
7.12
0
VERTEX
10
9.06829
20
9.90521
30
7.12
0
VERTEX
10
9.05845
20
9.92491
30
7.12
0
VERTEX
10
9.05845
20
9.9446
30
7.12
0
VERTEX
10
9.04368
20
9.98398
30
7.12
0
VERTEX
10
9.03875
20
10.0037
30
7.12
0
VERTEX
10
9.02399
20
10.0184
30
7.12
0
VERTEX
10
9.00922
20
10.0578
30
7.12
0
VERTEX
10
9.00922
20
10.0775
30
7.12
0
VERTEX
10
9.00922
20
10.0874
30
7.12
0
VERTEX
10
8.97968
20
10.1218
30
7.12
0
VERTEX
10
8.94029
20
10.1268
30
7.12
0
VERTEX
10
8.90091
20
10.1169
30
7.12
0
VERTEX
10
8.82214
20
10.1169
30
7.12
0
VERTEX
10
8.78276
20
10.1021
30
7.12
0
VERTEX
10
8.62522
20
10.0923
30
7.12
0
VERTEX
10
8.46768
20
10.0923
30
7.12
0
VERTEX
10
8.38891
20
10.0923
30
7.12
0
VERTEX
10
8.36922
20
10.0923
30
7.12
0
VERTEX
10
8.34953
20
10.0775
30
7.12
0
VERTEX
10
8.27076
20
10.0578
30
7.12
0
VERTEX
10
8.25106
20
10.0529
30
7.12
0
VERTEX
10
8.23629
20
10.0381
30
7.12
0
VERTEX
10
8.22645
20
10.0332
30
7.12
0
VERTEX
10
8.22645
20
10.0135
30
7.12
0
VERTEX
10
8.20183
20
9.97414
30
7.12
0
VERTEX
10
8.18706
20
9.95937
30
7.12
0
VERTEX
10
8.17722
20
9.8806
30
7.12
0
VERTEX
10
8.17722
20
9.80183
30
7.12
0
VERTEX
10
8.17229
20
9.78214
30
7.12
0
SEQEND
0
POLYLINE
62
224
66
1
70
1
3
mitochondrion
0
VERTEX
10
8.29948
20
9.71076
30
7.12
0
VERTEX
10
8.30782
20
9.66627
30
7.12
0
VERTEX
10
8.3106
20
9.65515
30
7.12
0
VERTEX
10
8.3106
20
9.64402
30
7.12
0
VERTEX
10
8.31338
20
9.6329
30
7.12
0
VERTEX
10
8.32868
20
9.61204
30
7.12
0
VERTEX
10
8.33702
20
9.60231
30
7.12
0
VERTEX
10
8.33841
20
9.59675
30
7.12
0
VERTEX
10
8.35509
20
9.57867
30
7.12
0
VERTEX
10
8.36344
20
9.56755
30
7.12
0
VERTEX
10
8.369
20
9.56199
30
7.12
0
VERTEX
10
8.37456
20
9.5606
30
7.12
0
VERTEX
10
8.38429
20
9.55225
30
7.12
0
VERTEX
10
8.38707
20
9.54947
30
7.12
0
VERTEX
10
8.38985
20
9.54947
30
7.12
0
VERTEX
10
8.39959
20
9.54113
30
7.12
0
VERTEX
10
8.41071
20
9.53696
30
7.12
0
VERTEX
10
8.42183
20
9.53001
30
7.12
0
VERTEX
10
8.44408
20
9.52584
30
7.12
0
VERTEX
10
8.48857
20
9.52305
30
7.12
0
VERTEX
10
8.53307
20
9.52444
30
7.12
0
VERTEX
10
8.55532
20
9.52862
30
7.12
0
VERTEX
10
8.56644
20
9.53557
30
7.12
0
VERTEX
10
8.57756
20
9.53974
30
7.12
0
VERTEX
10
8.59981
20
9.54113
30
7.12
0
VERTEX
10
8.62206
20
9.54808
30
7.12
0
VERTEX
10
8.62484
20
9.55086
30
7.12
0
VERTEX
10
8.6304
20
9.55086
30
7.12
0
VERTEX
10
8.64152
20
9.55642
30
7.12
0
VERTEX
10
8.66377
20
9.57172
30
7.12
0
VERTEX
10
8.66794
20
9.57728
30
7.12
0
VERTEX
10
8.66794
20
9.58006
30
7.12
0
VERTEX
10
8.6735
20
9.58145
30
7.12
0
VERTEX
10
8.68323
20
9.59119
30
7.12
0
VERTEX
10
8.68602
20
9.59397
30
7.12
0
VERTEX
10
8.68602
20
9.59675
30
7.12
0
VERTEX
10
8.69853
20
9.61899
30
7.12
0
VERTEX
10
8.7027
20
9.63012
30
7.12
0
VERTEX
10
8.70826
20
9.63568
30
7.12
0
VERTEX
10
8.71243
20
9.64541
30
7.12
0
VERTEX
10
8.71521
20
9.65097
30
7.12
0
VERTEX
10
8.71521
20
9.65654
30
7.12
0
VERTEX
10
8.74163
20
9.70103
30
7.12
0
VERTEX
10
8.7458
20
9.70659
30
7.12
0
VERTEX
10
8.74858
20
9.70937
30
7.12
0
VERTEX
10
8.74858
20
9.71215
30
7.12
0
VERTEX
10
8.75415
20
9.71493
30
7.12
0
VERTEX
10
8.75693
20
9.72606
30
7.12
0
VERTEX
10
8.7611
20
9.73162
30
7.12
0
VERTEX
10
8.76805
20
9.75387
30
7.12
0
VERTEX
10
8.76944
20
9.79836
30
7.12
0
VERTEX
10
8.76944
20
9.80392
30
7.12
0
VERTEX
10
8.76666
20
9.8067
30
7.12
0
VERTEX
10
8.76388
20
9.82895
30
7.12
0
VERTEX
10
8.7611
20
9.83173
30
7.12
0
VERTEX
10
8.75971
20
9.83729
30
7.12
0
VERTEX
10
8.75554
20
9.84285
30
7.12
0
VERTEX
10
8.75415
20
9.84842
30
7.12
0
VERTEX
10
8.73607
20
9.86649
30
7.12
0
VERTEX
10
8.7319
20
9.87205
30
7.12
0
VERTEX
10
8.73051
20
9.87761
30
7.12
0
VERTEX
10
8.72217
20
9.88874
30
7.12
0
VERTEX
10
8.718
20
9.89013
30
7.12
0
VERTEX
10
8.70687
20
9.89708
30
7.12
0
VERTEX
10
8.68463
20
9.89847
30
7.12
0
VERTEX
10
8.6735
20
9.89986
30
7.12
0
VERTEX
10
8.66794
20
9.90125
30
7.12
0
VERTEX
10
8.66516
20
9.90125
30
7.12
0
VERTEX
10
8.66238
20
9.90403
30
7.12
0
VERTEX
10
8.61788
20
9.90681
30
7.12
0
VERTEX
10
8.57339
20
9.90542
30
7.12
0
VERTEX
10
8.55114
20
9.90403
30
7.12
0
VERTEX
10
8.54002
20
9.90264
30
7.12
0
VERTEX
10
8.53446
20
9.90264
30
7.12
0
VERTEX
10
8.5289
20
9.89986
30
7.12
0
VERTEX
10
8.51777
20
9.89986
30
7.12
0
VERTEX
10
8.50665
20
9.89708
30
7.12
0
VERTEX
10
8.50109
20
9.89291
30
7.12
0
VERTEX
10
8.49136
20
9.89013
30
7.12
0
VERTEX
10
8.48023
20
9.88318
30
7.12
0
VERTEX
10
8.45799
20
9.88457
30
7.12
0
VERTEX
10
8.41349
20
9.879
30
7.12
0
VERTEX
10
8.40237
20
9.87622
30
7.12
0
VERTEX
10
8.39681
20
9.87344
30
7.12
0
VERTEX
10
8.38568
20
9.87344
30
7.12
0
VERTEX
10
8.36344
20
9.8651
30
7.12
0
VERTEX
10
8.34258
20
9.84981
30
7.12
0
VERTEX
10
8.33424
20
9.84007
30
7.12
0
VERTEX
10
8.31338
20
9.82478
30
7.12
0
VERTEX
10
8.30921
20
9.82061
30
7.12
0
VERTEX
10
8.30504
20
9.80948
30
7.12
0
VERTEX
10
8.30226
20
9.78724
30
7.12
0
VERTEX
10
8.29948
20
9.78446
30
7.12
0
VERTEX
10
8.29948
20
9.73996
30
7.12
0
VERTEX
10
8.29948
20
9.71771
30
7.12
0
VERTEX
10
8.29948
20
9.71215
30
7.12
0
SEQEND
0
POLYLINE
62
227
66
1
70
1
3
endoplasmic_reticulum
0
VERTEX
10
8.86774
20
9.89877
30
7.12
0
VERTEX
10
8.86863
20
9.89518
30
7.12
0
VERTEX
10
8.87132
20
9.89249
30
7.12
0
VERTEX
10
8.87132
20
9.8907
30
7.12
0
VERTEX
10
8.87401
20
9.88801
30
7.12
0
VERTEX
10
8.88836
20
9.88352
30
7.12
0
VERTEX
10
8.9027
20
9.88532
30
7.12
0
VERTEX
10
8.90629
20
9.88711
30
7.12
0
VERTEX
10
8.92063
20
9.8889
30
7.12
0
VERTEX
10
8.92781
20
9.89159
30
7.12
0
VERTEX
10
8.9296
20
9.89159
30
7.12
0
VERTEX
10
8.93139
20
9.89339
30
7.12
0
VERTEX
10
8.94574
20
9.89608
30
7.12
0
VERTEX
10
8.95291
20
9.89787
30
7.12
0
VERTEX
10
8.9556
20
9.90235
30
7.12
0
VERTEX
10
8.95919
20
9.90325
30
7.12
0
VERTEX
10
8.96277
20
9.90594
30
7.12
0
VERTEX
10
8.96367
20
9.90952
30
7.12
0
VERTEX
10
8.96905
20
9.91401
30
7.12
0
VERTEX
10
8.97084
20
9.91759
30
7.12
0
VERTEX
10
8.97174
20
9.93194
30
7.12
0
VERTEX
10
8.97084
20
9.93552
30
7.12
0
VERTEX
10
8.96546
20
9.9427
30
7.12
0
VERTEX
10
8.96277
20
9.94628
30
7.12
0
VERTEX
10
8.9556
20
9.95077
30
7.12
0
VERTEX
10
8.92691
20
9.94987
30
7.12
0
VERTEX
10
8.91256
20
9.94987
30
7.12
0
VERTEX
10
8.89822
20
9.94449
30
7.12
0
VERTEX
10
8.89194
20
9.9409
30
7.12
0
VERTEX
10
8.88925
20
9.93911
30
7.12
0
VERTEX
10
8.88208
20
9.93821
30
7.12
0
VERTEX
10
8.8785
20
9.93732
30
7.12
0
VERTEX
10
8.8767
20
9.93552
30
7.12
0
VERTEX
10
8.87939
20
9.93194
30
7.12
0
VERTEX
10
8.88029
20
9.93014
30
7.12
0
VERTEX
10
8.8776
20
9.92746
30
7.12
0
VERTEX
10
8.8776
20
9.92566
30
7.12
0
VERTEX
10
8.87222
20
9.91849
30
7.12
0
VERTEX
10
8.86953
20
9.91221
30
7.12
0
VERTEX
10
8.86774
20
9.90863
30
7.12
0
VERTEX
10
8.86774
20
9.90146
30
7.12
0
VERTEX
10
8.86774
20
9.89966
30
7.12
0
SEQEND
0
POLYLINE
62
227
66
1
70
1
3
endoplasmic_reticulum
0
VERTEX
10
8.44726
20
10.0019
30
7.12
0
VERTEX
10
8.44905
20
10.0001
30
7.12
0
VERTEX
10
8.44995
20
9.9929
30
7.12
0
VERTEX
10
8.45443
20
9.98573
30
7.12
0
VERTEX
10
8.45802
20
9.98304
30
7.12
0
VERTEX
10
8.4616
20
9.98214
30
7.12
0
VERTEX
10
8.46519
20
9.98304
30
7.12
0
VERTEX
10
8.46698
20
9.98304
30
7.12
0
VERTEX
10
8.47326
20
9.98932
30
7.12
0
VERTEX
10
8.47595
20
9.99201
30
7.12
0
VERTEX
10
8.48312
20
9.9929
30
7.12
0
VERTEX
10
8.48581
20
9.99559
30
7.12
0
VERTEX
10
8.4885
20
9.9947
30
7.12
0
VERTEX
10
8.4885
20
9.9929
30
7.12
0
VERTEX
10
8.49477
20
9.98752
30
7.12
0
VERTEX
10
8.49477
20
9.98573
30
7.12
0
VERTEX
10
8.49657
20
9.98394
30
7.12
0
VERTEX
10
8.49926
20
9.97766
30
7.12
0
VERTEX
10
8.50195
20
9.97408
30
7.12
0
VERTEX
10
8.50822
20
9.97049
30
7.12
0
VERTEX
10
8.51181
20
9.9687
30
7.12
0
VERTEX
10
8.5136
20
9.9669
30
7.12
0
VERTEX
10
8.52077
20
9.96511
30
7.12
0
VERTEX
10
8.53422
20
9.97049
30
7.12
0
VERTEX
10
8.53781
20
9.97228
30
7.12
0
VERTEX
10
8.54946
20
9.98573
30
7.12
0
VERTEX
10
8.55305
20
9.98842
30
7.12
0
VERTEX
10
8.56022
20
9.98932
30
7.12
0
VERTEX
10
8.56739
20
9.98842
30
7.12
0
VERTEX
10
8.57367
20
9.98394
30
7.12
0
VERTEX
10
8.57726
20
9.98394
30
7.12
0
VERTEX
10
8.58353
20
9.97856
30
7.12
0
VERTEX
10
8.58533
20
9.97677
30
7.12
0
VERTEX
10
8.58712
20
9.97677
30
7.12
0
VERTEX
10
8.5907
20
9.97408
30
7.12
0
VERTEX
10
8.60505
20
9.97408
30
7.12
0
VERTEX
10
8.61939
20
9.97587
30
7.12
0
VERTEX
10
8.62657
20
9.97766
30
7.12
0
VERTEX
10
8.62746
20
9.97945
30
7.12
0
VERTEX
10
8.63105
20
9.97945
30
7.12
0
VERTEX
10
8.63464
20
9.98214
30
7.12
0
VERTEX
10
8.63643
20
9.98214
30
7.12
0
VERTEX
10
8.6427
20
9.98663
30
7.12
0
VERTEX
10
8.64539
20
9.99021
30
7.12
0
VERTEX
10
8.64629
20
9.99739
30
7.12
0
VERTEX
10
8.64629
20
10.001
30
7.12
0
VERTEX
10
8.6436
20
10.0081
30
7.12
0
VERTEX
10
8.64091
20
10.0108
30
7.12
0
VERTEX
10
8.64091
20
10.0126
30
7.12
0
VERTEX
10
8.63912
20
10.0144
30
7.12
0
VERTEX
10
8.61133
20
10.0243
30
7.12
0
VERTEX
10
8.60774
20
10.0261
30
7.12
0
VERTEX
10
8.60595
20
10.0261
30
7.12
0
VERTEX
10
8.60236
20
10.0288
30
7.12
0
VERTEX
10
8.59519
20
10.0297
30
7.12
0
VERTEX
10
8.58891
20
10.0324
30
7.12
0
VERTEX
10
8.57457
20
10.035
30
7.12
0
VERTEX
10
8.57098
20
10.0359
30
7.12
0
VERTEX
10
8.56739
20
10.0386
30
7.12
0
VERTEX
10
8.56022
20
10.0395
30
7.12
0
VERTEX
10
8.55305
20
10.0386
30
7.12
0
VERTEX
10
8.55126
20
10.0386
30
7.12
0
VERTEX
10
8.54767
20
10.0359
30
7.12
0
VERTEX
10
8.53333
20
10.0359
30
7.12
0
VERTEX
10
8.52615
20
10.0386
30
7.12
0
VERTEX
10
8.51181
20
10.0404
30
7.12
0
VERTEX
10
8.50464
20
10.0422
30
7.12
0
VERTEX
10
8.49029
20
10.0422
30
7.12
0
VERTEX
10
8.48312
20
10.0413
30
7.12
0
VERTEX
10
8.47953
20
10.0404
30
7.12
0
VERTEX
10
8.47864
20
10.0386
30
7.12
0
VERTEX
10
8.47146
20
10.0368
30
7.12
0
VERTEX
10
8.46788
20
10.0341
30
7.12
0
VERTEX
10
8.46429
20
10.0279
30
7.12
0
VERTEX
10
8.46071
20
10.0252
30
7.12
0
VERTEX
10
8.45981
20
10.0216
30
7.12
0
VERTEX
10
8.44905
20
10.0072
30
7.12
0
VERTEX
10
8.44726
20
10.0028
30
7.12
0
SEQEND
0
POLYLINE
62
227
66
1
70
1
3
endoplasmic_reticulum
0
VERTEX
10
8.33429
20
9.95256
30
7.12
0
VERTEX
10
8.33609
20
9.95077
30
7.12
0
VERTEX
10
8.33609
20
9.94718
30
7.12
0
VERTEX
10
8.33788
20
9.94359
30
7.12
0
VERTEX
10
8.33967
20
9.9418
30
7.12
0
VERTEX
10
8.33967
20
9.93821
30
7.12
0
VERTEX
10
8.34326
20
9.93194
30
7.12
0
VERTEX
10
8.34953
20
9.92477
30
7.12
0
VERTEX
10
8.35671
20
9.92387
30
7.12
0
VERTEX
10
8.36029
20
9.92387
30
7.12
0
VERTEX
10
8.36209
20
9.92387
30
7.12
0
VERTEX
10
8.36567
20
9.92118
30
7.12
0
VERTEX
10
8.37284
20
9.92028
30
7.12
0
VERTEX
10
8.38719
20
9.91221
30
7.12
0
VERTEX
10
8.40064
20
9.90594
30
7.12
0
VERTEX
10
8.40243
20
9.90594
30
7.12
0
VERTEX
10
8.40422
20
9.90414
30
7.12
0
VERTEX
10
8.4114
20
9.90235
30
7.12
0
VERTEX
10
8.42574
20
9.90325
30
7.12
0
VERTEX
10
8.42933
20
9.90504
30
7.12
0
VERTEX
10
8.43471
20
9.91132
30
7.12
0
VERTEX
10
8.43471
20
9.91311
30
7.12
0
VERTEX
10
8.4365
20
9.91401
30
7.12
0
VERTEX
10
8.4365
20
9.9158
30
7.12
0
VERTEX
10
8.44098
20
9.92297
30
7.12
0
VERTEX
10
8.44009
20
9.92656
30
7.12
0
VERTEX
10
8.43022
20
9.94001
30
7.12
0
VERTEX
10
8.42933
20
9.94359
30
7.12
0
VERTEX
10
8.42484
20
9.94987
30
7.12
0
VERTEX
10
8.42305
20
9.95077
30
7.12
0
VERTEX
10
8.42215
20
9.95435
30
7.12
0
VERTEX
10
8.41946
20
9.95794
30
7.12
0
VERTEX
10
8.41946
20
9.96152
30
7.12
0
VERTEX
10
8.41767
20
9.96511
30
7.12
0
VERTEX
10
8.41498
20
9.9669
30
7.12
0
VERTEX
10
8.40781
20
9.98035
30
7.12
0
VERTEX
10
8.40781
20
9.98214
30
7.12
0
VERTEX
10
8.40602
20
9.98394
30
7.12
0
VERTEX
10
8.40422
20
9.98394
30
7.12
0
VERTEX
10
8.40243
20
9.98573
30
7.12
0
VERTEX
10
8.38809
20
9.98752
30
7.12
0
VERTEX
10
8.37374
20
9.98752
30
7.12
0
VERTEX
10
8.3594
20
9.99021
30
7.12
0
VERTEX
10
8.35222
20
9.99201
30
7.12
0
VERTEX
10
8.34864
20
9.99201
30
7.12
0
VERTEX
10
8.34326
20
9.98483
30
7.12
0
VERTEX
10
8.34147
20
9.97766
30
7.12
0
VERTEX
10
8.33519
20
9.96421
30
7.12
0
VERTEX
10
8.33429
20
9.95704
30
7.12
0
VERTEX
10
8.33429
20
9.95345
30
7.12
0
SEQEND
0
POLYLINE
62
227
66
1
70
1
3
endoplasmic_reticulum
0
VERTEX
10
8.27333
20
9.88711
30
7.12
0
VERTEX
10
8.27602
20
9.88352
30
7.12
0
VERTEX
10
8.27871
20
9.87635
30
7.12
0
VERTEX
10
8.28229
20
9.87366
30
7.12
0
VERTEX
10
8.28947
20
9.87277
30
7.12
0
VERTEX
10
8.29305
20
9.87097
30
7.12
0
VERTEX
10
8.3074
20
9.87187
30
7.12
0
VERTEX
10
8.31457
20
9.87366
30
7.12
0
VERTEX
10
8.31995
20
9.88083
30
7.12
0
VERTEX
10
8.32174
20
9.88083
30
7.12
0
VERTEX
10
8.32802
20
9.88532
30
7.12
0
VERTEX
10
8.3316
20
9.88621
30
7.12
0
VERTEX
10
8.33429
20
9.8898
30
7.12
0
VERTEX
10
8.34057
20
9.89428
30
7.12
0
VERTEX
10
8.34057
20
9.90146
30
7.12
0
VERTEX
10
8.34057
20
9.90504
30
7.12
0
VERTEX
10
8.33429
20
9.91132
30
7.12
0
VERTEX
10
8.33071
20
9.91221
30
7.12
0
VERTEX
10
8.32622
20
9.91759
30
7.12
0
VERTEX
10
8.32264
20
9.91939
30
7.12
0
VERTEX
10
8.31636
20
9.92656
30
7.12
0
VERTEX
10
8.31188
20
9.93194
30
7.12
0
VERTEX
10
8.31009
20
9.93283
30
7.12
0
VERTEX
10
8.29574
20
9.92746
30
7.12
0
VERTEX
10
8.29215
20
9.92656
30
7.12
0
VERTEX
10
8.28947
20
9.92387
30
7.12
0
VERTEX
10
8.28947
20
9.92208
30
7.12
0
VERTEX
10
8.28319
20
9.9158
30
7.12
0
VERTEX
10
8.27871
20
9.90952
30
7.12
0
VERTEX
10
8.27333
20
9.89518
30
7.12
0
VERTEX
10
8.27333
20
9.88801
30
7.12
0
SEQEND
0
POLYLINE
62
31
66
1
70
1
3
contour
0
VERTEX
10
7.17123
20
9.84362
30
7.12
0
VERTEX
10
7.17419
20
9.83771
30
7.12
0
VERTEX
10
7.17715
20
9.81405
30
7.12
0
VERTEX
10
7.18011
20
9.80222
30
7.12
0
VERTEX
10
7.18159
20
9.7963
30
7.12
0
VERTEX
10
7.18011
20
9.78447
30
7.12
0
VERTEX
10
7.18159
20
9.77264
30
7.12
0
VERTEX
10
7.18454
20
9.76672
30
7.12
0
VERTEX
10
7.18454
20
9.76081
30
7.12
0
VERTEX
10
7.1875
20
9.75489
30
7.12
0
VERTEX
10
7.19046
20
9.70756
30
7.12
0
VERTEX
10
7.19638
20
9.6839
30
7.12
0
VERTEX
10
7.19933
20
9.66024
30
7.12
0
VERTEX
10
7.20969
20
9.63658
30
7.12
0
VERTEX
10
7.21116
20
9.62475
30
7.12
0
VERTEX
10
7.21412
20
9.61883
30
7.12
0
VERTEX
10
7.21412
20
9.61291
30
7.12
0
VERTEX
10
7.22152
20
9.58925
30
7.12
0
VERTEX
10
7.22595
20
9.56559
30
7.12
0
VERTEX
10
7.22891
20
9.55376
30
7.12
0
VERTEX
10
7.23039
20
9.50643
30
7.12
0
VERTEX
10
7.23187
20
9.48277
30
7.12
0
VERTEX
10
7.23631
20
9.45911
30
7.12
0
VERTEX
10
7.23631
20
9.45319
30
7.12
0
VERTEX
10
7.23926
20
9.44728
30
7.12
0
VERTEX
10
7.24074
20
9.43545
30
7.12
0
VERTEX
10
7.24666
20
9.42361
30
7.12
0
VERTEX
10
7.24814
20
9.4177
30
7.12
0
VERTEX
10
7.24814
20
9.41474
30
7.12
0
VERTEX
10
7.25405
20
9.4103
30
7.12
0
VERTEX
10
7.25405
20
9.40439
30
7.12
0
VERTEX
10
7.26441
20
9.38073
30
7.12
0
VERTEX
10
7.26588
20
9.37481
30
7.12
0
VERTEX
10
7.27624
20
9.36446
30
7.12
0
VERTEX
10
7.27919
20
9.35854
30
7.12
0
VERTEX
10
7.28511
20
9.35263
30
7.12
0
VERTEX
10
7.30729
20
9.33932
30
7.12
0
VERTEX
10
7.31913
20
9.3334
30
7.12
0
VERTEX
10
7.32356
20
9.33044
30
7.12
0
VERTEX
10
7.328
20
9.32453
30
7.12
0
VERTEX
10
7.33983
20
9.32009
30
7.12
0
VERTEX
10
7.35166
20
9.31861
30
7.12
0
VERTEX
10
7.37532
20
9.32305
30
7.12
0
VERTEX
10
7.38124
20
9.32453
30
7.12
0
VERTEX
10
7.39307
20
9.33488
30
7.12
0
VERTEX
10
7.40342
20
9.34227
30
7.12
0
VERTEX
10
7.40934
20
9.34375
30
7.12
0
VERTEX
10
7.43152
20
9.36002
30
7.12
0
VERTEX
10
7.433
20
9.36298
30
7.12
0
VERTEX
10
7.43596
20
9.36298
30
7.12
0
VERTEX
10
7.44779
20
9.37481
30
7.12
0
VERTEX
10
7.4611
20
9.39699
30
7.12
0
VERTEX
10
7.46406
20
9.40291
30
7.12
0
VERTEX
10
7.46406
20
9.40883
30
7.12
0
VERTEX
10
7.47145
20
9.41918
30
7.12
0
VERTEX
10
7.47589
20
9.43101
30
7.12
0
VERTEX
10
7.4892
20
9.45319
30
7.12
0
VERTEX
10
7.49364
20
9.46502
30
7.12
0
VERTEX
10
7.49512
20
9.47685
30
7.12
0
VERTEX
10
7.49512
20
9.47981
30
7.12
0
VERTEX
10
7.49807
20
9.48277
30
7.12
0
VERTEX
10
7.50547
20
9.50643
30
7.12
0
VERTEX
10
7.50695
20
9.51235
30
7.12
0
VERTEX
10
7.50695
20
9.51531
30
7.12
0
VERTEX
10
7.51434
20
9.52714
30
7.12
0
VERTEX
10
7.52174
20
9.54932
30
7.12
0
VERTEX
10
7.52617
20
9.56115
30
7.12
0
VERTEX
10
7.52617
20
9.56411
30
7.12
0
VERTEX
10
7.52913
20
9.56707
30
7.12
0
VERTEX
10
7.53653
20
9.61439
30
7.12
0
VERTEX
10
7.538
20
9.62622
30
7.12
0
VERTEX
10
7.54096
20
9.62918
30
7.12
0
VERTEX
10
7.5454
20
9.65285
30
7.12
0
VERTEX
10
7.55427
20
9.67651
30
7.12
0
VERTEX
10
7.55871
20
9.68834
30
7.12
0
VERTEX
10
7.56167
20
9.6913
30
7.12
0
VERTEX
10
7.56167
20
9.69425
30
7.12
0
VERTEX
10
7.5661
20
9.70017
30
7.12
0
VERTEX
10
7.56906
20
9.70313
30
7.12
0
VERTEX
10
7.56906
20
9.70609
30
7.12
0
VERTEX
10
7.58237
20
9.72827
30
7.12
0
VERTEX
10
7.58977
20
9.7401
30
7.12
0
VERTEX
10
7.59124
20
9.74602
30
7.12
0
VERTEX
10
7.59568
20
9.75045
30
7.12
0
VERTEX
10
7.59716
20
9.75637
30
7.12
0
VERTEX
10
7.60603
20
9.7682
30
7.12
0
VERTEX
10
7.60899
20
9.77116
30
7.12
0
VERTEX
10
7.60899
20
9.77412
30
7.12
0
VERTEX
10
7.62822
20
9.79186
30
7.12
0
VERTEX
10
7.64892
20
9.80665
30
7.12
0
VERTEX
10
7.65927
20
9.81848
30
7.12
0
VERTEX
10
7.66815
20
9.82736
30
7.12
0
VERTEX
10
7.67998
20
9.83623
30
7.12
0
VERTEX
10
7.68589
20
9.83919
30
7.12
0
VERTEX
10
7.69625
20
9.84954
30
7.12
0
VERTEX
10
7.69921
20
9.85102
30
7.12
0
VERTEX
10
7.69921
20
9.85398
30
7.12
0
VERTEX
10
7.70808
20
9.86433
30
7.12
0
VERTEX
10
7.71399
20
9.86877
30
7.12
0
VERTEX
10
7.71399
20
9.87172
30
7.12
0
VERTEX
10
7.72287
20
9.88356
30
7.12
0
VERTEX
10
7.72583
20
9.89539
30
7.12
0
VERTEX
10
7.72435
20
9.91905
30
7.12
0
VERTEX
10
7.72287
20
9.92496
30
7.12
0
VERTEX
10
7.71547
20
9.93532
30
7.12
0
VERTEX
10
7.71104
20
9.94567
30
7.12
0
VERTEX
10
7.7066
20
9.95011
30
7.12
0
VERTEX
10
7.70512
20
9.95602
30
7.12
0
VERTEX
10
7.70068
20
9.96194
30
7.12
0
VERTEX
10
7.69773
20
9.97377
30
7.12
0
VERTEX
10
7.68885
20
9.9856
30
7.12
0
VERTEX
10
7.68146
20
9.99447
30
7.12
0
VERTEX
10
7.67554
20
10.0004
30
7.12
0
VERTEX
10
7.66371
20
10.0048
30
7.12
0
VERTEX
10
7.65632
20
10.0152
30
7.12
0
VERTEX
10
7.64596
20
10.0255
30
7.12
0
VERTEX
10
7.64005
20
10.0314
30
7.12
0
VERTEX
10
7.63413
20
10.0329
30
7.12
0
VERTEX
10
7.63118
20
10.0388
30
7.12
0
VERTEX
10
7.61934
20
10.0477
30
7.12
0
VERTEX
10
7.61639
20
10.0477
30
7.12
0
VERTEX
10
7.60455
20
10.0566
30
7.12
0
VERTEX
10
7.58089
20
10.0699
30
7.12
0
VERTEX
10
7.57793
20
10.0699
30
7.12
0
VERTEX
10
7.57202
20
10.0758
30
7.12
0
VERTEX
10
7.56167
20
10.0832
30
7.12
0
VERTEX
10
7.56167
20
10.0862
30
7.12
0
VERTEX
10
7.55575
20
10.0921
30
7.12
0
VERTEX
10
7.54392
20
10.0995
30
7.12
0
VERTEX
10
7.53209
20
10.1024
30
7.12
0
VERTEX
10
7.52617
20
10.1054
30
7.12
0
VERTEX
10
7.52321
20
10.1054
30
7.12
0
VERTEX
10
7.52026
20
10.1083
30
7.12
0
VERTEX
10
7.50843
20
10.1113
30
7.12
0
VERTEX
10
7.48476
20
10.1128
30
7.12
0
VERTEX
10
7.47293
20
10.1157
30
7.12
0
VERTEX
10
7.4611
20
10.1128
30
7.12
0
VERTEX
10
7.45519
20
10.1128
30
7.12
0
VERTEX
10
7.44335
20
10.1083
30
7.12
0
VERTEX
10
7.43744
20
10.1054
30
7.12
0
VERTEX
10
7.43152
20
10.0995
30
7.12
0
VERTEX
10
7.42561
20
10.0965
30
7.12
0
VERTEX
10
7.41525
20
10.0847
30
7.12
0
VERTEX
10
7.39455
20
10.0669
30
7.12
0
VERTEX
10
7.38568
20
10.0566
30
7.12
0
VERTEX
10
7.38272
20
10.0536
30
7.12
0
VERTEX
10
7.38272
20
10.0418
30
7.12
0
VERTEX
10
7.37976
20
10.0388
30
7.12
0
VERTEX
10
7.37976
20
10.0329
30
7.12
0
VERTEX
10
7.37976
20
10.03
30
7.12
0
VERTEX
10
7.37532
20
10.0226
30
7.12
0
VERTEX
10
7.35906
20
10.0004
30
7.12
0
VERTEX
10
7.34722
20
9.99595
30
7.12
0
VERTEX
10
7.33687
20
9.98856
30
7.12
0
VERTEX
10
7.33391
20
9.98856
30
7.12
0
VERTEX
10
7.32208
20
9.97968
30
7.12
0
VERTEX
10
7.31913
20
9.97673
30
7.12
0
VERTEX
10
7.30877
20
9.97229
30
7.12
0
VERTEX
10
7.30286
20
9.96933
30
7.12
0
VERTEX
10
7.2999
20
9.96933
30
7.12
0
VERTEX
10
7.28955
20
9.96194
30
7.12
0
VERTEX
10
7.28067
20
9.95158
30
7.12
0
VERTEX
10
7.27476
20
9.95011
30
7.12
0
VERTEX
10
7.2718
20
9.94715
30
7.12
0
VERTEX
10
7.24814
20
9.9368
30
7.12
0
VERTEX
10
7.24222
20
9.93384
30
7.12
0
VERTEX
10
7.23926
20
9.93088
30
7.12
0
VERTEX
10
7.22743
20
9.92644
30
7.12
0
VERTEX
10
7.20821
20
9.91018
30
7.12
0
VERTEX
10
7.19785
20
9.89834
30
7.12
0
VERTEX
10
7.19194
20
9.89243
30
7.12
0
VERTEX
10
7.18898
20
9.88651
30
7.12
0
VERTEX
10
7.17863
20
9.87764
30
7.12
0
VERTEX
10
7.17271
20
9.8732
30
7.12
0
VERTEX
10
7.17123
20
9.84954
30
7.12
0
VERTEX
10
7.17123
20
9.8451
30
7.12
0
SEQEND
0
POLYLINE
62
236
66
1
70
1
3
postsynaptic_density
0
VERTEX
10
7.07458
20
9.7378
30
7.12
0
VERTEX
10
7.0837
20
9.72868
30
7.12
0
VERTEX
10
7.1445
20
9.53411
30
7.12
0
VERTEX
10
7.17794
20
9.43682
30
7.12
0
VERTEX
10
7.18402
20
9.4125
30
7.12
0
VERTEX
10
7.18706
20
9.40034
30
7.12
0
VERTEX
10
7.18706
20
9.39426
30
7.12
0
VERTEX
10
7.19922
20
9.38818
30
7.12
0
VERTEX
10
7.24787
20
9.39426
30
7.12
0
VERTEX
10
7.27219
20
9.40338
30
7.12
0
VERTEX
10
7.29651
20
9.40338
30
7.12
0
VERTEX
10
7.30867
20
9.40642
30
7.12
0
VERTEX
10
7.32691
20
9.42466
30
7.12
0
VERTEX
10
7.32995
20
9.4733
30
7.12
0
VERTEX
10
7.32691
20
9.52195
30
7.12
0
VERTEX
10
7.31779
20
9.57059
30
7.12
0
VERTEX
10
7.31475
20
9.59491
30
7.12
0
VERTEX
10
7.30563
20
9.61923
30
7.12
0
VERTEX
10
7.29043
20
9.64052
30
7.12
0
VERTEX
10
7.28131
20
9.66484
30
7.12
0
VERTEX
10
7.27523
20
9.71348
30
7.12
0
VERTEX
10
7.27219
20
9.72564
30
7.12
0
VERTEX
10
7.27523
20
9.7378
30
7.12
0
VERTEX
10
7.27219
20
9.74996
30
7.12
0
VERTEX
10
7.1749
20
9.753
30
7.12
0
VERTEX
10
7.12626
20
9.74996
30
7.12
0
VERTEX
10
7.07762
20
9.74084
30
7.12
0
SEQEND
0
POLYLINE
62
227
66
1
70
1
3
endoplasmic_reticulum
0
VERTEX
10
7.34746
20
9.86671
30
7.12
0
VERTEX
10
7.35158
20
9.86259
30
7.12
0
VERTEX
10
7.35365
20
9.8296
30
7.12
0
VERTEX
10
7.35571
20
9.82135
30
7.12
0
VERTEX
10
7.36189
20
9.81517
30
7.12
0
VERTEX
10
7.36602
20
9.81517
30
7.12
0
VERTEX
10
7.38045
20
9.8028
30
7.12
0
VERTEX
10
7.38869
20
9.80074
30
7.12
0
VERTEX
10
7.39694
20
9.79455
30
7.12
0
VERTEX
10
7.41343
20
9.78837
30
7.12
0
VERTEX
10
7.42992
20
9.78631
30
7.12
0
VERTEX
10
7.46291
20
9.78837
30
7.12
0
VERTEX
10
7.47116
20
9.79455
30
7.12
0
VERTEX
10
7.4794
20
9.79455
30
7.12
0
VERTEX
10
7.48353
20
9.79455
30
7.12
0
VERTEX
10
7.48765
20
9.79868
30
7.12
0
VERTEX
10
7.4959
20
9.79868
30
7.12
0
VERTEX
10
7.50414
20
9.8028
30
7.12
0
VERTEX
10
7.50826
20
9.8028
30
7.12
0
VERTEX
10
7.51445
20
9.81105
30
7.12
0
VERTEX
10
7.51651
20
9.81929
30
7.12
0
VERTEX
10
7.52682
20
9.83579
30
7.12
0
VERTEX
10
7.53094
20
9.84403
30
7.12
0
VERTEX
10
7.53713
20
9.84815
30
7.12
0
VERTEX
10
7.54125
20
9.86465
30
7.12
0
VERTEX
10
7.54125
20
9.89763
30
7.12
0
VERTEX
10
7.53094
20
9.92856
30
7.12
0
VERTEX
10
7.52682
20
9.93474
30
7.12
0
VERTEX
10
7.51857
20
9.94299
30
7.12
0
VERTEX
10
7.48559
20
9.94917
30
7.12
0
VERTEX
10
7.46909
20
9.94917
30
7.12
0
VERTEX
10
7.4526
20
9.95536
30
7.12
0
VERTEX
10
7.43611
20
9.95536
30
7.12
0
VERTEX
10
7.42786
20
9.95123
30
7.12
0
VERTEX
10
7.41962
20
9.95123
30
7.12
0
VERTEX
10
7.40312
20
9.93886
30
7.12
0
VERTEX
10
7.38663
20
9.93268
30
7.12
0
VERTEX
10
7.37839
20
9.93062
30
7.12
0
VERTEX
10
7.36395
20
9.91825
30
7.12
0
VERTEX
10
7.35571
20
9.91206
30
7.12
0
VERTEX
10
7.35158
20
9.90794
30
7.12
0
VERTEX
10
7.35158
20
9.90382
30
7.12
0
VERTEX
10
7.34746
20
9.89969
30
7.12
0
VERTEX
10
7.34746
20
9.86877
30
7.12
0
SEQEND
0
ENDSEC
0
EOF
