0
SECTION
2
ENTITIES
0
POLYLINE
62
31
66
1
70
1
3
contour
0
VERTEX
10
8.36922
20
9.41783
30
6.88
0
VERTEX
10
8.38891
20
9.39814
30
6.88
0
VERTEX
10
8.39383
20
9.37845
30
6.88
0
VERTEX
10
8.41352
20
9.3686
30
6.88
0
VERTEX
10
8.45291
20
9.37352
30
6.88
0
VERTEX
10
8.52676
20
9.40306
30
6.88
0
VERTEX
10
8.5366
20
9.41291
30
6.88
0
VERTEX
10
8.54645
20
9.41291
30
6.88
0
VERTEX
10
8.55137
20
9.42275
30
6.88
0
VERTEX
10
8.63014
20
9.4326
30
6.88
0
VERTEX
10
8.66952
20
9.43752
30
6.88
0
VERTEX
10
8.68922
20
9.44245
30
6.88
0
VERTEX
10
8.69414
20
9.45229
30
6.88
0
VERTEX
10
8.70399
20
9.45229
30
6.88
0
VERTEX
10
8.71876
20
9.47198
30
6.88
0
VERTEX
10
8.7926
20
9.50152
30
6.88
0
VERTEX
10
8.87137
20
9.50645
30
6.88
0
VERTEX
10
8.91075
20
9.50645
30
6.88
0
VERTEX
10
8.95014
20
9.53106
30
6.88
0
VERTEX
10
8.97475
20
9.56552
30
6.88
0
VERTEX
10
8.9846
20
9.56552
30
6.88
0
VERTEX
10
9.0486
20
9.63937
30
6.88
0
VERTEX
10
9.05845
20
9.71814
30
6.88
0
VERTEX
10
9.05845
20
9.75752
30
6.88
0
VERTEX
10
9.07814
20
9.79691
30
6.88
0
VERTEX
10
9.07814
20
9.80675
30
6.88
0
VERTEX
10
9.13722
20
9.88552
30
6.88
0
VERTEX
10
9.15691
20
9.91998
30
6.88
0
VERTEX
10
9.17168
20
9.93475
30
6.88
0
VERTEX
10
9.21106
20
9.94952
30
6.88
0
VERTEX
10
9.23075
20
9.95445
30
6.88
0
VERTEX
10
9.25537
20
9.97906
30
6.88
0
VERTEX
10
9.26522
20
10.0184
30
6.88
0
VERTEX
10
9.27506
20
10.0283
30
6.88
0
VERTEX
10
9.28491
20
10.0677
30
6.88
0
VERTEX
10
9.28491
20
10.2252
30
6.88
0
VERTEX
10
9.28491
20
10.304
30
6.88
0
VERTEX
10
9.27506
20
10.3828
30
6.88
0
VERTEX
10
9.27014
20
10.4221
30
6.88
0
VERTEX
10
9.26029
20
10.432
30
6.88
0
VERTEX
10
9.24552
20
10.4714
30
6.88
0
VERTEX
10
9.22583
20
10.4911
30
6.88
0
VERTEX
10
9.18645
20
10.5157
30
6.88
0
VERTEX
10
9.14706
20
10.5304
30
6.88
0
VERTEX
10
9.12737
20
10.5403
30
6.88
0
VERTEX
10
9.11752
20
10.5403
30
6.88
0
VERTEX
10
9.10768
20
10.5501
30
6.88
0
VERTEX
10
9.06829
20
10.5551
30
6.88
0
VERTEX
10
8.98952
20
10.5304
30
6.88
0
VERTEX
10
8.96983
20
10.5255
30
6.88
0
VERTEX
10
8.93537
20
10.496
30
6.88
0
VERTEX
10
8.91568
20
10.4615
30
6.88
0
VERTEX
10
8.91568
20
10.4517
30
6.88
0
VERTEX
10
8.86152
20
10.3778
30
6.88
0
VERTEX
10
8.84183
20
10.3434
30
6.88
0
VERTEX
10
8.82706
20
10.3335
30
6.88
0
VERTEX
10
8.79752
20
10.2548
30
6.88
0
VERTEX
10
8.78276
20
10.2154
30
6.88
0
VERTEX
10
8.75814
20
10.1809
30
6.88
0
VERTEX
10
8.75322
20
10.1612
30
6.88
0
VERTEX
10
8.71383
20
10.1366
30
6.88
0
VERTEX
10
8.71383
20
10.1268
30
6.88
0
VERTEX
10
8.65968
20
10.0529
30
6.88
0
VERTEX
10
8.64491
20
10.0135
30
6.88
0
VERTEX
10
8.63999
20
9.99383
30
6.88
0
VERTEX
10
8.59076
20
9.91506
30
6.88
0
VERTEX
10
8.56122
20
9.8806
30
6.88
0
VERTEX
10
8.52676
20
9.85598
30
6.88
0
VERTEX
10
8.51199
20
9.84121
30
6.88
0
VERTEX
10
8.49229
20
9.83629
30
6.88
0
VERTEX
10
8.4726
20
9.8166
30
6.88
0
VERTEX
10
8.46276
20
9.65906
30
6.88
0
VERTEX
10
8.45291
20
9.61968
30
6.88
0
VERTEX
10
8.43814
20
9.60491
30
6.88
0
VERTEX
10
8.43322
20
9.56552
30
6.88
0
VERTEX
10
8.42829
20
9.54583
30
6.88
0
VERTEX
10
8.37906
20
9.46706
30
6.88
0
VERTEX
10
8.36922
20
9.44737
30
6.88
0
VERTEX
10
8.36922
20
9.42768
30
6.88
0
VERTEX
10
8.36922
20
9.42275
30
6.88
0
SEQEND
0
POLYLINE
62
31
66
1
70
1
3
contour
0
VERTEX
10
8.35642
20
9.18201
30
6.88
0
VERTEX
10
8.369
20
9.14848
30
6.88
0
VERTEX
10
8.37319
20
9.1401
30
6.88
0
VERTEX
10
8.40671
20
9.15267
30
6.88
0
VERTEX
10
8.42767
20
9.18201
30
6.88
0
VERTEX
10
8.44443
20
9.19458
30
6.88
0
VERTEX
10
8.45281
20
9.19458
30
6.88
0
VERTEX
10
8.457
20
9.22811
30
6.88
0
VERTEX
10
8.457
20
9.23649
30
6.88
0
VERTEX
10
8.44862
20
9.24068
30
6.88
0
VERTEX
10
8.44862
20
9.24906
30
6.88
0
VERTEX
10
8.43186
20
9.26582
30
6.88
0
VERTEX
10
8.39833
20
9.27001
30
6.88
0
VERTEX
10
8.37319
20
9.24068
30
6.88
0
VERTEX
10
8.36061
20
9.22392
30
6.88
0
VERTEX
10
8.35642
20
9.19039
30
6.88
0
VERTEX
10
8.35642
20
9.1862
30
6.88
0
SEQEND
0
POLYLINE
62
224
66
1
70
1
3
mitochondrion
0
VERTEX
10
8.56922
20
9.67183
30
6.88
0
VERTEX
10
8.57339
20
9.64958
30
6.88
0
VERTEX
10
8.57339
20
9.63846
30
6.88
0
VERTEX
10
8.57339
20
9.6329
30
6.88
0
VERTEX
10
8.57756
20
9.62734
30
6.88
0
VERTEX
10
8.57895
20
9.62177
30
6.88
0
VERTEX
10
8.59425
20
9.60092
30
6.88
0
VERTEX
10
8.59981
20
9.59536
30
6.88
0
VERTEX
10
8.6012
20
9.5898
30
6.88
0
VERTEX
10
8.60537
20
9.58562
30
6.88
0
VERTEX
10
8.60815
20
9.5745
30
6.88
0
VERTEX
10
8.61788
20
9.56477
30
6.88
0
VERTEX
10
8.62762
20
9.55782
30
6.88
0
VERTEX
10
8.63874
20
9.55364
30
6.88
0
VERTEX
10
8.66099
20
9.55086
30
6.88
0
VERTEX
10
8.67211
20
9.54808
30
6.88
0
VERTEX
10
8.68323
20
9.54808
30
6.88
0
VERTEX
10
8.69436
20
9.5453
30
6.88
0
VERTEX
10
8.69992
20
9.54391
30
6.88
0
VERTEX
10
8.7027
20
9.54391
30
6.88
0
VERTEX
10
8.70548
20
9.54113
30
6.88
0
VERTEX
10
8.72773
20
9.54113
30
6.88
0
VERTEX
10
8.77222
20
9.53418
30
6.88
0
VERTEX
10
8.81672
20
9.53279
30
6.88
0
VERTEX
10
8.82228
20
9.53279
30
6.88
0
VERTEX
10
8.82784
20
9.53557
30
6.88
0
VERTEX
10
8.83896
20
9.53557
30
6.88
0
VERTEX
10
8.85009
20
9.53835
30
6.88
0
VERTEX
10
8.86121
20
9.54391
30
6.88
0
VERTEX
10
8.87094
20
9.55225
30
6.88
0
VERTEX
10
8.88207
20
9.55642
30
6.88
0
VERTEX
10
8.88485
20
9.56199
30
6.88
0
VERTEX
10
8.89597
20
9.56894
30
6.88
0
VERTEX
10
8.90014
20
9.57172
30
6.88
0
VERTEX
10
8.90848
20
9.58284
30
6.88
0
VERTEX
10
8.90987
20
9.5884
30
6.88
0
VERTEX
10
8.91822
20
9.59814
30
6.88
0
VERTEX
10
8.92934
20
9.60509
30
6.88
0
VERTEX
10
8.9349
20
9.60926
30
6.88
0
VERTEX
10
8.93629
20
9.61204
30
6.88
0
VERTEX
10
8.94185
20
9.61343
30
6.88
0
VERTEX
10
8.96132
20
9.63012
30
6.88
0
VERTEX
10
8.96688
20
9.64124
30
6.88
0
VERTEX
10
8.96688
20
9.65236
30
6.88
0
VERTEX
10
8.96966
20
9.65793
30
6.88
0
VERTEX
10
8.96966
20
9.66905
30
6.88
0
VERTEX
10
8.96549
20
9.6913
30
6.88
0
VERTEX
10
8.9641
20
9.71354
30
6.88
0
VERTEX
10
8.9641
20
9.71911
30
6.88
0
VERTEX
10
8.95715
20
9.73023
30
6.88
0
VERTEX
10
8.94742
20
9.75248
30
6.88
0
VERTEX
10
8.94046
20
9.76221
30
6.88
0
VERTEX
10
8.93768
20
9.76777
30
6.88
0
VERTEX
10
8.91683
20
9.78585
30
6.88
0
VERTEX
10
8.91127
20
9.79141
30
6.88
0
VERTEX
10
8.90014
20
9.79558
30
6.88
0
VERTEX
10
8.89458
20
9.79836
30
6.88
0
VERTEX
10
8.88902
20
9.79836
30
6.88
0
VERTEX
10
8.88346
20
9.80114
30
6.88
0
VERTEX
10
8.86121
20
9.79975
30
6.88
0
VERTEX
10
8.85565
20
9.79975
30
6.88
0
VERTEX
10
8.85287
20
9.79975
30
6.88
0
VERTEX
10
8.85009
20
9.79697
30
6.88
0
VERTEX
10
8.7611
20
9.79558
30
6.88
0
VERTEX
10
8.71661
20
9.79419
30
6.88
0
VERTEX
10
8.70548
20
9.7928
30
6.88
0
VERTEX
10
8.68323
20
9.78028
30
6.88
0
VERTEX
10
8.67767
20
9.77889
30
6.88
0
VERTEX
10
8.66794
20
9.77194
30
6.88
0
VERTEX
10
8.6596
20
9.76221
30
6.88
0
VERTEX
10
8.65404
20
9.75943
30
6.88
0
VERTEX
10
8.65265
20
9.75665
30
6.88
0
VERTEX
10
8.64708
20
9.75526
30
6.88
0
VERTEX
10
8.63596
20
9.74691
30
6.88
0
VERTEX
10
8.62484
20
9.74135
30
6.88
0
VERTEX
10
8.62206
20
9.74135
30
6.88
0
VERTEX
10
8.6012
20
9.72328
30
6.88
0
VERTEX
10
8.5859
20
9.70242
30
6.88
0
VERTEX
10
8.58451
20
9.69686
30
6.88
0
VERTEX
10
8.58173
20
9.69408
30
6.88
0
VERTEX
10
8.58312
20
9.67183
30
6.88
0
VERTEX
10
8.58173
20
9.67044
30
6.88
0
VERTEX
10
8.57617
20
9.67183
30
6.88
0
VERTEX
10
8.572
20
9.676
30
6.88
0
VERTEX
10
8.56922
20
9.67461
30
6.88
0
VERTEX
10
8.56922
20
9.67322
30
6.88
0
SEQEND
0
POLYLINE
62
227
66
1
70
1
3
endoplasmic_reticulum
0
VERTEX
10
8.60326
20
9.87994
30
6.88
0
VERTEX
10
8.60684
20
9.87725
30
6.88
0
VERTEX
10
8.60774
20
9.87366
30
6.88
0
VERTEX
10
8.61133
20
9.87097
30
6.88
0
VERTEX
10
8.6185
20
9.87008
30
6.88
0
VERTEX
10
8.62208
20
9.87008
30
6.88
0
VERTEX
10
8.62926
20
9.87277
30
6.88
0
VERTEX
10
8.65795
20
9.87456
30
6.88
0
VERTEX
10
8.67229
20
9.87635
30
6.88
0
VERTEX
10
8.67588
20
9.87815
30
6.88
0
VERTEX
10
8.68305
20
9.87904
30
6.88
0
VERTEX
10
8.69739
20
9.88442
30
6.88
0
VERTEX
10
8.69919
20
9.88442
30
6.88
0
VERTEX
10
8.70098
20
9.88621
30
6.88
0
VERTEX
10
8.70277
20
9.88621
30
6.88
0
VERTEX
10
8.70815
20
9.89249
30
6.88
0
VERTEX
10
8.70815
20
9.89608
30
6.88
0
VERTEX
10
8.71353
20
9.90146
30
6.88
0
VERTEX
10
8.71443
20
9.90863
30
6.88
0
VERTEX
10
8.70815
20
9.91401
30
6.88
0
VERTEX
10
8.70098
20
9.9158
30
6.88
0
VERTEX
10
8.69919
20
9.91759
30
6.88
0
VERTEX
10
8.68484
20
9.92028
30
6.88
0
VERTEX
10
8.6705
20
9.91849
30
6.88
0
VERTEX
10
8.66333
20
9.9167
30
6.88
0
VERTEX
10
8.66153
20
9.9167
30
6.88
0
VERTEX
10
8.65974
20
9.9149
30
6.88
0
VERTEX
10
8.64539
20
9.91042
30
6.88
0
VERTEX
10
8.6436
20
9.90863
30
6.88
0
VERTEX
10
8.64181
20
9.90863
30
6.88
0
VERTEX
10
8.64001
20
9.90683
30
6.88
0
VERTEX
10
8.63822
20
9.90683
30
6.88
0
VERTEX
10
8.63553
20
9.90325
30
6.88
0
VERTEX
10
8.62119
20
9.89697
30
6.88
0
VERTEX
10
8.6167
20
9.8898
30
6.88
0
VERTEX
10
8.60415
20
9.88083
30
6.88
0
SEQEND
0
POLYLINE
62
227
66
1
70
1
3
endoplasmic_reticulum
0
VERTEX
10
8.95291
20
9.90056
30
6.88
0
VERTEX
10
8.96636
20
9.89159
30
6.88
0
VERTEX
10
8.97263
20
9.8889
30
6.88
0
VERTEX
10
8.98698
20
9.88711
30
6.88
0
VERTEX
10
9.00132
20
9.88711
30
6.88
0
VERTEX
10
9.0085
20
9.88711
30
6.88
0
VERTEX
10
9.01208
20
9.88801
30
6.88
0
VERTEX
10
9.01477
20
9.8907
30
6.88
0
VERTEX
10
9.01656
20
9.89787
30
6.88
0
VERTEX
10
9.01567
20
9.91221
30
6.88
0
VERTEX
10
9.01387
20
9.91939
30
6.88
0
VERTEX
10
9.01208
20
9.92297
30
6.88
0
VERTEX
10
9.00043
20
9.93194
30
6.88
0
VERTEX
10
8.99325
20
9.93194
30
6.88
0
VERTEX
10
8.98967
20
9.93014
30
6.88
0
VERTEX
10
8.98787
20
9.93014
30
6.88
0
VERTEX
10
8.9816
20
9.92477
30
6.88
0
VERTEX
10
8.96725
20
9.91939
30
6.88
0
VERTEX
10
8.96008
20
9.9158
30
6.88
0
VERTEX
10
8.9565
20
9.9158
30
6.88
0
VERTEX
10
8.95381
20
9.91311
30
6.88
0
VERTEX
10
8.95291
20
9.90594
30
6.88
0
VERTEX
10
8.95291
20
9.90235
30
6.88
0
VERTEX
10
8.95291
20
9.90146
30
6.88
0
SEQEND
0
POLYLINE
62
227
66
1
70
1
3
endoplasmic_reticulum
0
VERTEX
10
8.89284
20
9.88532
30
6.88
0
VERTEX
10
8.89553
20
9.87815
30
6.88
0
VERTEX
10
8.89643
20
9.87456
30
6.88
0
VERTEX
10
8.90091
20
9.86828
30
6.88
0
VERTEX
10
8.9036
20
9.85394
30
6.88
0
VERTEX
10
8.91346
20
9.84049
30
6.88
0
VERTEX
10
8.91615
20
9.83332
30
6.88
0
VERTEX
10
8.92063
20
9.82794
30
6.88
0
VERTEX
10
8.92153
20
9.82615
30
6.88
0
VERTEX
10
8.93588
20
9.82615
30
6.88
0
VERTEX
10
8.94932
20
9.83242
30
6.88
0
VERTEX
10
8.95291
20
9.83332
30
6.88
0
VERTEX
10
8.9547
20
9.8369
30
6.88
0
VERTEX
10
8.9565
20
9.8378
30
6.88
0
VERTEX
10
8.95739
20
9.84139
30
6.88
0
VERTEX
10
8.95739
20
9.84318
30
6.88
0
VERTEX
10
8.96008
20
9.84587
30
6.88
0
VERTEX
10
8.96098
20
9.86021
30
6.88
0
VERTEX
10
8.96008
20
9.87456
30
6.88
0
VERTEX
10
8.95739
20
9.87815
30
6.88
0
VERTEX
10
8.9565
20
9.88173
30
6.88
0
VERTEX
10
8.94663
20
9.89339
30
6.88
0
VERTEX
10
8.94036
20
9.90056
30
6.88
0
VERTEX
10
8.93767
20
9.90414
30
6.88
0
VERTEX
10
8.92422
20
9.91221
30
6.88
0
VERTEX
10
8.92243
20
9.91221
30
6.88
0
VERTEX
10
8.91525
20
9.91759
30
6.88
0
VERTEX
10
8.91167
20
9.91939
30
6.88
0
VERTEX
10
8.9045
20
9.91849
30
6.88
0
VERTEX
10
8.89732
20
9.9158
30
6.88
0
VERTEX
10
8.89463
20
9.90863
30
6.88
0
VERTEX
10
8.89284
20
9.90504
30
6.88
0
VERTEX
10
8.89284
20
9.8907
30
6.88
0
VERTEX
10
8.89284
20
9.88711
30
6.88
0
VERTEX
10
8.89284
20
9.88621
30
6.88
0
SEQEND
0
POLYLINE
62
227
66
1
70
1
3
endoplasmic_reticulum
0
VERTEX
10
8.77539
20
9.92566
30
6.88
0
VERTEX
10
8.77898
20
9.91132
30
6.88
0
VERTEX
10
8.78526
20
9.89697
30
6.88
0
VERTEX
10
8.79243
20
9.89428
30
6.88
0
VERTEX
10
8.79512
20
9.89159
30
6.88
0
VERTEX
10
8.80229
20
9.8907
30
6.88
0
VERTEX
10
8.80946
20
9.89159
30
6.88
0
VERTEX
10
8.81126
20
9.89159
30
6.88
0
VERTEX
10
8.81484
20
9.89518
30
6.88
0
VERTEX
10
8.81753
20
9.90235
30
6.88
0
VERTEX
10
8.81753
20
9.90594
30
6.88
0
VERTEX
10
8.82291
20
9.91221
30
6.88
0
VERTEX
10
8.83008
20
9.9149
30
6.88
0
VERTEX
10
8.83367
20
9.9167
30
6.88
0
VERTEX
10
8.84801
20
9.9167
30
6.88
0
VERTEX
10
8.85519
20
9.9158
30
6.88
0
VERTEX
10
8.86236
20
9.91849
30
6.88
0
VERTEX
10
8.86415
20
9.92208
30
6.88
0
VERTEX
10
8.86594
20
9.92297
30
6.88
0
VERTEX
10
8.86594
20
9.92656
30
6.88
0
VERTEX
10
8.86325
20
9.93373
30
6.88
0
VERTEX
10
8.85877
20
9.94001
30
6.88
0
VERTEX
10
8.85519
20
9.9418
30
6.88
0
VERTEX
10
8.84084
20
9.9418
30
6.88
0
VERTEX
10
8.81215
20
9.94628
30
6.88
0
VERTEX
10
8.81036
20
9.94628
30
6.88
0
VERTEX
10
8.80677
20
9.94897
30
6.88
0
VERTEX
10
8.80498
20
9.95077
30
6.88
0
VERTEX
10
8.79063
20
9.94987
30
6.88
0
VERTEX
10
8.78705
20
9.94897
30
6.88
0
VERTEX
10
8.78526
20
9.94808
30
6.88
0
VERTEX
10
8.78615
20
9.94628
30
6.88
0
VERTEX
10
8.77898
20
9.94001
30
6.88
0
VERTEX
10
8.77629
20
9.93642
30
6.88
0
VERTEX
10
8.77539
20
9.92925
30
6.88
0
VERTEX
10
8.77539
20
9.92656
30
6.88
0
SEQEND
0
POLYLINE
62
227
66
1
70
1
3
endoplasmic_reticulum
0
VERTEX
10
8.99174
20
10.4591
30
6.88
0
VERTEX
10
8.99506
20
10.4524
30
6.88
0
VERTEX
10
8.99506
20
10.4391
30
6.88
0
VERTEX
10
8.99506
20
10.4358
30
6.88
0
VERTEX
10
9.00171
20
10.4292
30
6.88
0
VERTEX
10
9.015
20
10.4275
30
6.88
0
VERTEX
10
9.02165
20
10.4275
30
6.88
0
VERTEX
10
9.02498
20
10.4275
30
6.88
0
VERTEX
10
9.03162
20
10.4341
30
6.88
0
VERTEX
10
9.03328
20
10.4408
30
6.88
0
VERTEX
10
9.03827
20
10.4474
30
6.88
0
VERTEX
10
9.04159
20
10.4491
30
6.88
0
VERTEX
10
9.04325
20
10.4557
30
6.88
0
VERTEX
10
9.04159
20
10.469
30
6.88
0
VERTEX
10
9.04159
20
10.4724
30
6.88
0
VERTEX
10
9.03495
20
10.479
30
6.88
0
VERTEX
10
9.02165
20
10.4807
30
6.88
0
VERTEX
10
9.015
20
10.4807
30
6.88
0
VERTEX
10
9.00836
20
10.474
30
6.88
0
VERTEX
10
8.99673
20
10.4657
30
6.88
0
VERTEX
10
8.9934
20
10.4624
30
6.88
0
VERTEX
10
8.9934
20
10.4607
30
6.88
0
SEQEND
0
POLYLINE
62
31
66
1
70
1
3
contour
0
VERTEX
10
8.23608
20
9.37434
30
6.88
0
VERTEX
10
8.24768
20
9.36564
30
6.88
0
VERTEX
10
8.25058
20
9.36274
30
6.88
0
VERTEX
10
8.25348
20
9.36274
30
6.88
0
VERTEX
10
8.26218
20
9.35259
30
6.88
0
VERTEX
10
8.28538
20
9.35114
30
6.88
0
VERTEX
10
8.28973
20
9.35549
30
6.88
0
VERTEX
10
8.30133
20
9.35984
30
6.88
0
VERTEX
10
8.32453
20
9.36419
30
6.88
0
VERTEX
10
8.33613
20
9.36564
30
6.88
0
VERTEX
10
8.34193
20
9.36854
30
6.88
0
VERTEX
10
8.34483
20
9.37144
30
6.88
0
VERTEX
10
8.34628
20
9.39464
30
6.88
0
VERTEX
10
8.34628
20
9.40624
30
6.88
0
VERTEX
10
8.34483
20
9.41204
30
6.88
0
VERTEX
10
8.33468
20
9.42219
30
6.88
0
VERTEX
10
8.33178
20
9.42364
30
6.88
0
VERTEX
10
8.30858
20
9.42219
30
6.88
0
VERTEX
10
8.30278
20
9.42219
30
6.88
0
VERTEX
10
8.29988
20
9.42219
30
6.88
0
VERTEX
10
8.29698
20
9.41929
30
6.88
0
VERTEX
10
8.29408
20
9.41929
30
6.88
0
VERTEX
10
8.28828
20
9.41494
30
6.88
0
VERTEX
10
8.27668
20
9.41204
30
6.88
0
VERTEX
10
8.27378
20
9.40914
30
6.88
0
VERTEX
10
8.26798
20
9.40769
30
6.88
0
VERTEX
10
8.26508
20
9.40769
30
6.88
0
VERTEX
10
8.25783
20
9.39754
30
6.88
0
VERTEX
10
8.25203
20
9.39174
30
6.88
0
VERTEX
10
8.24913
20
9.38594
30
6.88
0
VERTEX
10
8.24623
20
9.38449
30
6.88
0
VERTEX
10
8.24043
20
9.38594
30
6.88
0
VERTEX
10
8.23753
20
9.38449
30
6.88
0
VERTEX
10
8.23608
20
9.37869
30
6.88
0
VERTEX
10
8.23608
20
9.37579
30
6.88
0
SEQEND
0
ENDSEC
0
EOF
