0
SECTION
2
ENTITIES
0
POLYLINE
62
31
66
1
70
1
3
contour
0
VERTEX
10
6.1969
20
10.9953
30
9.2
0
VERTEX
10
6.20504
20
10.9084
30
9.2
0
VERTEX
10
6.21319
20
10.8649
30
9.2
0
VERTEX
10
6.21591
20
10.8432
30
9.2
0
VERTEX
10
6.21591
20
10.8378
30
9.2
0
VERTEX
10
6.23491
20
10.8188
30
9.2
0
VERTEX
10
6.25935
20
10.7753
30
9.2
0
VERTEX
10
6.30009
20
10.74
30
9.2
0
VERTEX
10
6.32181
20
10.7264
30
9.2
0
VERTEX
10
6.33267
20
10.7183
30
9.2
0
VERTEX
10
6.33811
20
10.7129
30
9.2
0
VERTEX
10
6.35983
20
10.7074
30
9.2
0
VERTEX
10
6.38155
20
10.6939
30
9.2
0
VERTEX
10
6.40328
20
10.6884
30
9.2
0
VERTEX
10
6.44673
20
10.6857
30
9.2
0
VERTEX
10
6.46845
20
10.6803
30
9.2
0
VERTEX
10
6.49018
20
10.6803
30
9.2
0
VERTEX
10
6.50104
20
10.6803
30
9.2
0
VERTEX
10
6.50647
20
10.6857
30
9.2
0
VERTEX
10
6.52819
20
10.6911
30
9.2
0
VERTEX
10
6.53363
20
10.6966
30
9.2
0
VERTEX
10
6.53906
20
10.6966
30
9.2
0
VERTEX
10
6.55807
20
10.7156
30
9.2
0
VERTEX
10
6.5635
20
10.7373
30
9.2
0
VERTEX
10
6.59065
20
10.778
30
9.2
0
VERTEX
10
6.60695
20
10.8215
30
9.2
0
VERTEX
10
6.61509
20
10.8432
30
9.2
0
VERTEX
10
6.62052
20
10.8486
30
9.2
0
VERTEX
10
6.62052
20
10.8704
30
9.2
0
VERTEX
10
6.62052
20
10.8812
30
9.2
0
VERTEX
10
6.61238
20
10.903
30
9.2
0
VERTEX
10
6.60966
20
10.9464
30
9.2
0
VERTEX
10
6.60423
20
10.9681
30
9.2
0
VERTEX
10
6.59608
20
10.979
30
9.2
0
VERTEX
10
6.59608
20
10.9899
30
9.2
0
VERTEX
10
6.58251
20
11.0116
30
9.2
0
VERTEX
10
6.57979
20
11.017
30
9.2
0
VERTEX
10
6.57436
20
11.017
30
9.2
0
VERTEX
10
6.56078
20
11.0387
30
9.2
0
VERTEX
10
6.52005
20
11.0686
30
9.2
0
VERTEX
10
6.49832
20
11.0849
30
9.2
0
VERTEX
10
6.45487
20
11.1012
30
9.2
0
VERTEX
10
6.41143
20
11.1229
30
9.2
0
VERTEX
10
6.40599
20
11.1283
30
9.2
0
VERTEX
10
6.38427
20
11.1311
30
9.2
0
VERTEX
10
6.36255
20
11.1419
30
9.2
0
VERTEX
10
6.34082
20
11.1419
30
9.2
0
VERTEX
10
6.33539
20
11.1474
30
9.2
0
VERTEX
10
6.31367
20
11.1474
30
9.2
0
VERTEX
10
6.3028
20
11.1419
30
9.2
0
VERTEX
10
6.29194
20
11.1419
30
9.2
0
VERTEX
10
6.25121
20
11.1202
30
9.2
0
VERTEX
10
6.24035
20
11.1175
30
9.2
0
VERTEX
10
6.22134
20
11.1012
30
9.2
0
VERTEX
10
6.20233
20
11.0903
30
9.2
0
VERTEX
10
6.1969
20
11.0469
30
9.2
0
VERTEX
10
6.1969
20
11.0034
30
9.2
0
VERTEX
10
6.1969
20
10.998
30
9.2
0
SEQEND
0
POLYLINE
62
224
66
1
70
1
3
mitochondrion
0
VERTEX
10
7.53196
20
10.4838
30
9.2
0
VERTEX
10
7.54169
20
10.4616
30
9.2
0
VERTEX
10
7.54447
20
10.4505
30
9.2
0
VERTEX
10
7.55142
20
10.4393
30
9.2
0
VERTEX
10
7.55142
20
10.4366
30
9.2
0
VERTEX
10
7.55699
20
10.431
30
9.2
0
VERTEX
10
7.55838
20
10.4254
30
9.2
0
VERTEX
10
7.56255
20
10.4213
30
9.2
0
VERTEX
10
7.56255
20
10.4185
30
9.2
0
VERTEX
10
7.5834
20
10.4032
30
9.2
0
VERTEX
10
7.59314
20
10.3962
30
9.2
0
VERTEX
10
7.59731
20
10.3921
30
9.2
0
VERTEX
10
7.60009
20
10.3921
30
9.2
0
VERTEX
10
7.61121
20
10.3837
30
9.2
0
VERTEX
10
7.63346
20
10.374
30
9.2
0
VERTEX
10
7.65571
20
10.367
30
9.2
0
VERTEX
10
7.65849
20
10.3643
30
9.2
0
VERTEX
10
7.68073
20
10.3601
30
9.2
0
VERTEX
10
7.70298
20
10.3587
30
9.2
0
VERTEX
10
7.74748
20
10.3643
30
9.2
0
VERTEX
10
7.76972
20
10.3657
30
9.2
0
VERTEX
10
7.77528
20
10.367
30
9.2
0
VERTEX
10
7.77667
20
10.3657
30
9.2
0
VERTEX
10
7.7878
20
10.3726
30
9.2
0
VERTEX
10
7.79892
20
10.3837
30
9.2
0
VERTEX
10
7.81561
20
10.4046
30
9.2
0
VERTEX
10
7.82395
20
10.4143
30
9.2
0
VERTEX
10
7.82812
20
10.4254
30
9.2
0
VERTEX
10
7.82812
20
10.431
30
9.2
0
VERTEX
10
7.83229
20
10.4421
30
9.2
0
VERTEX
10
7.83368
20
10.4533
30
9.2
0
VERTEX
10
7.83785
20
10.463
30
9.2
0
VERTEX
10
7.83785
20
10.5075
30
9.2
0
VERTEX
10
7.83785
20
10.5186
30
9.2
0
VERTEX
10
7.82951
20
10.5631
30
9.2
0
VERTEX
10
7.82117
20
10.5853
30
9.2
0
VERTEX
10
7.817
20
10.5909
30
9.2
0
VERTEX
10
7.817
20
10.5937
30
9.2
0
VERTEX
10
7.80587
20
10.602
30
9.2
0
VERTEX
10
7.79892
20
10.6118
30
9.2
0
VERTEX
10
7.77946
20
10.6326
30
9.2
0
VERTEX
10
7.76972
20
10.641
30
9.2
0
VERTEX
10
7.76277
20
10.6507
30
9.2
0
VERTEX
10
7.75304
20
10.6604
30
9.2
0
VERTEX
10
7.74887
20
10.666
30
9.2
0
VERTEX
10
7.7433
20
10.6674
30
9.2
0
VERTEX
10
7.73774
20
10.666
30
9.2
0
VERTEX
10
7.73496
20
10.6646
30
9.2
0
VERTEX
10
7.69047
20
10.6688
30
9.2
0
VERTEX
10
7.64597
20
10.6688
30
9.2
0
VERTEX
10
7.64041
20
10.6688
30
9.2
0
VERTEX
10
7.63485
20
10.666
30
9.2
0
VERTEX
10
7.6126
20
10.6674
30
9.2
0
VERTEX
10
7.60148
20
10.6632
30
9.2
0
VERTEX
10
7.60009
20
10.6604
30
9.2
0
VERTEX
10
7.60148
20
10.6576
30
9.2
0
VERTEX
10
7.60704
20
10.659
30
9.2
0
VERTEX
10
7.60843
20
10.6576
30
9.2
0
VERTEX
10
7.60148
20
10.6465
30
9.2
0
VERTEX
10
7.59314
20
10.6382
30
9.2
0
VERTEX
10
7.59314
20
10.6354
30
9.2
0
VERTEX
10
7.57784
20
10.6145
30
9.2
0
VERTEX
10
7.55977
20
10.5937
30
9.2
0
VERTEX
10
7.55977
20
10.5881
30
9.2
0
VERTEX
10
7.5556
20
10.5826
30
9.2
0
VERTEX
10
7.55282
20
10.5714
30
9.2
0
VERTEX
10
7.54447
20
10.5617
30
9.2
0
VERTEX
10
7.54169
20
10.5506
30
9.2
0
VERTEX
10
7.54169
20
10.545
30
9.2
0
VERTEX
10
7.53474
20
10.5353
30
9.2
0
VERTEX
10
7.53196
20
10.5242
30
9.2
0
VERTEX
10
7.53196
20
10.5019
30
9.2
0
VERTEX
10
7.53196
20
10.4908
30
9.2
0
VERTEX
10
7.53196
20
10.4852
30
9.2
0
SEQEND
0
POLYLINE
62
31
66
1
70
1
3
contour
0
VERTEX
10
7.42386
20
10.5405
30
9.2
0
VERTEX
10
7.42946
20
10.5106
30
9.2
0
VERTEX
10
7.42946
20
10.4957
30
9.2
0
VERTEX
10
7.43506
20
10.4658
30
9.2
0
VERTEX
10
7.43693
20
10.436
30
9.2
0
VERTEX
10
7.43319
20
10.3762
30
9.2
0
VERTEX
10
7.43319
20
10.3613
30
9.2
0
VERTEX
10
7.43879
20
10.3464
30
9.2
0
VERTEX
10
7.45746
20
10.3184
30
9.2
0
VERTEX
10
7.47238
20
10.3072
30
9.2
0
VERTEX
10
7.48358
20
10.2941
30
9.2
0
VERTEX
10
7.49105
20
10.2867
30
9.2
0
VERTEX
10
7.49665
20
10.2717
30
9.2
0
VERTEX
10
7.50971
20
10.2568
30
9.2
0
VERTEX
10
7.51904
20
10.2419
30
9.2
0
VERTEX
10
7.52091
20
10.2344
30
9.2
0
VERTEX
10
7.52464
20
10.2307
30
9.2
0
VERTEX
10
7.52651
20
10.2232
30
9.2
0
VERTEX
10
7.5321
20
10.2195
30
9.2
0
VERTEX
10
7.54703
20
10.2195
30
9.2
0
VERTEX
10
7.57689
20
10.2251
30
9.2
0
VERTEX
10
7.59182
20
10.2288
30
9.2
0
VERTEX
10
7.65154
20
10.2232
30
9.2
0
VERTEX
10
7.65528
20
10.2195
30
9.2
0
VERTEX
10
7.66274
20
10.2176
30
9.2
0
VERTEX
10
7.67767
20
10.2083
30
9.2
0
VERTEX
10
7.6926
20
10.2045
30
9.2
0
VERTEX
10
7.72246
20
10.2064
30
9.2
0
VERTEX
10
7.72992
20
10.212
30
9.2
0
VERTEX
10
7.74485
20
10.2139
30
9.2
0
VERTEX
10
7.75232
20
10.2139
30
9.2
0
VERTEX
10
7.75605
20
10.2176
30
9.2
0
VERTEX
10
7.76165
20
10.2325
30
9.2
0
VERTEX
10
7.76912
20
10.2325
30
9.2
0
VERTEX
10
7.78031
20
10.2456
30
9.2
0
VERTEX
10
7.78031
20
10.2493
30
9.2
0
VERTEX
10
7.78405
20
10.2493
30
9.2
0
VERTEX
10
7.81017
20
10.268
30
9.2
0
VERTEX
10
7.81764
20
10.268
30
9.2
0
VERTEX
10
7.82137
20
10.2717
30
9.2
0
VERTEX
10
7.85123
20
10.2829
30
9.2
0
VERTEX
10
7.86616
20
10.2848
30
9.2
0
VERTEX
10
7.88109
20
10.2904
30
9.2
0
VERTEX
10
7.88855
20
10.2923
30
9.2
0
VERTEX
10
7.89229
20
10.2979
30
9.2
0
VERTEX
10
7.92215
20
10.3147
30
9.2
0
VERTEX
10
7.92961
20
10.3203
30
9.2
0
VERTEX
10
7.93708
20
10.3221
30
9.2
0
VERTEX
10
7.94081
20
10.3221
30
9.2
0
VERTEX
10
7.94267
20
10.3259
30
9.2
0
VERTEX
10
7.97253
20
10.3333
30
9.2
0
VERTEX
10
7.98746
20
10.337
30
9.2
0
VERTEX
10
8.00239
20
10.3445
30
9.2
0
VERTEX
10
8.03225
20
10.3482
30
9.2
0
VERTEX
10
8.04718
20
10.352
30
9.2
0
VERTEX
10
8.07704
20
10.3501
30
9.2
0
VERTEX
10
8.08451
20
10.352
30
9.2
0
VERTEX
10
8.09571
20
10.3669
30
9.2
0
VERTEX
10
8.09757
20
10.3744
30
9.2
0
VERTEX
10
8.1069
20
10.3874
30
9.2
0
VERTEX
10
8.11997
20
10.4005
30
9.2
0
VERTEX
10
8.12557
20
10.408
30
9.2
0
VERTEX
10
8.12743
20
10.4229
30
9.2
0
VERTEX
10
8.12743
20
10.4266
30
9.2
0
VERTEX
10
8.13676
20
10.4397
30
9.2
0
VERTEX
10
8.13676
20
10.4434
30
9.2
0
VERTEX
10
8.14796
20
10.4584
30
9.2
0
VERTEX
10
8.14983
20
10.4658
30
9.2
0
VERTEX
10
8.15543
20
10.4733
30
9.2
0
VERTEX
10
8.15543
20
10.533
30
9.2
0
VERTEX
10
8.15543
20
10.5367
30
9.2
0
VERTEX
10
8.14983
20
10.5405
30
9.2
0
VERTEX
10
8.1405
20
10.6002
30
9.2
0
VERTEX
10
8.13116
20
10.63
30
9.2
0
VERTEX
10
8.1237
20
10.645
30
9.2
0
VERTEX
10
8.11997
20
10.6524
30
9.2
0
VERTEX
10
8.1181
20
10.6823
30
9.2
0
VERTEX
10
8.11064
20
10.6972
30
9.2
0
VERTEX
10
8.10877
20
10.7047
30
9.2
0
VERTEX
10
8.10504
20
10.7084
30
9.2
0
VERTEX
10
8.10504
20
10.7159
30
9.2
0
VERTEX
10
8.09384
20
10.729
30
9.2
0
VERTEX
10
8.09384
20
10.7327
30
9.2
0
VERTEX
10
8.08451
20
10.7458
30
9.2
0
VERTEX
10
8.07891
20
10.7607
30
9.2
0
VERTEX
10
8.07891
20
10.7644
30
9.2
0
VERTEX
10
8.05838
20
10.7943
30
9.2
0
VERTEX
10
8.04905
20
10.8092
30
9.2
0
VERTEX
10
8.03599
20
10.8223
30
9.2
0
VERTEX
10
8.03225
20
10.8297
30
9.2
0
VERTEX
10
8.01919
20
10.8409
30
9.2
0
VERTEX
10
8.01359
20
10.8559
30
9.2
0
VERTEX
10
7.9856
20
10.8727
30
9.2
0
VERTEX
10
7.97067
20
10.8745
30
9.2
0
VERTEX
10
7.94081
20
10.8876
30
9.2
0
VERTEX
10
7.93334
20
10.8895
30
9.2
0
VERTEX
10
7.92961
20
10.8895
30
9.2
0
VERTEX
10
7.91468
20
10.8988
30
9.2
0
VERTEX
10
7.88482
20
10.9006
30
9.2
0
VERTEX
10
7.8251
20
10.8951
30
9.2
0
VERTEX
10
7.79524
20
10.8839
30
9.2
0
VERTEX
10
7.78218
20
10.8783
30
9.2
0
VERTEX
10
7.75232
20
10.8764
30
9.2
0
VERTEX
10
7.73739
20
10.8745
30
9.2
0
VERTEX
10
7.72992
20
10.8708
30
9.2
0
VERTEX
10
7.70006
20
10.8727
30
9.2
0
VERTEX
10
7.68514
20
10.8745
30
9.2
0
VERTEX
10
7.65528
20
10.8857
30
9.2
0
VERTEX
10
7.62542
20
10.8839
30
9.2
0
VERTEX
10
7.61049
20
10.8801
30
9.2
0
VERTEX
10
7.58063
20
10.8633
30
9.2
0
VERTEX
10
7.57316
20
10.8596
30
9.2
0
VERTEX
10
7.56943
20
10.8596
30
9.2
0
VERTEX
10
7.56196
20
10.854
30
9.2
0
VERTEX
10
7.54703
20
10.8484
30
9.2
0
VERTEX
10
7.53957
20
10.8428
30
9.2
0
VERTEX
10
7.53584
20
10.8428
30
9.2
0
VERTEX
10
7.5321
20
10.8391
30
9.2
0
VERTEX
10
7.51717
20
10.8353
30
9.2
0
VERTEX
10
7.51344
20
10.8316
30
9.2
0
VERTEX
10
7.49851
20
10.826
30
9.2
0
VERTEX
10
7.49105
20
10.8223
30
9.2
0
VERTEX
10
7.48358
20
10.8223
30
9.2
0
VERTEX
10
7.47612
20
10.8185
30
9.2
0
VERTEX
10
7.46305
20
10.8055
30
9.2
0
VERTEX
10
7.45746
20
10.7905
30
9.2
0
VERTEX
10
7.45186
20
10.7831
30
9.2
0
VERTEX
10
7.44999
20
10.7756
30
9.2
0
VERTEX
10
7.44626
20
10.7737
30
9.2
0
VERTEX
10
7.44066
20
10.7439
30
9.2
0
VERTEX
10
7.44066
20
10.714
30
9.2
0
VERTEX
10
7.44253
20
10.6991
30
9.2
0
VERTEX
10
7.43879
20
10.6692
30
9.2
0
VERTEX
10
7.43693
20
10.6095
30
9.2
0
VERTEX
10
7.42573
20
10.5797
30
9.2
0
VERTEX
10
7.42386
20
10.5498
30
9.2
0
VERTEX
10
7.42386
20
10.5423
30
9.2
0
SEQEND
0
POLYLINE
62
227
66
1
70
1
3
endoplasmic_reticulum
0
VERTEX
10
7.88333
20
10.5837
30
9.2
0
VERTEX
10
7.8914
20
10.5694
30
9.2
0
VERTEX
10
7.89678
20
10.5631
30
9.2
0
VERTEX
10
7.90395
20
10.5568
30
9.2
0
VERTEX
10
7.91112
20
10.5532
30
9.2
0
VERTEX
10
7.91292
20
10.5532
30
9.2
0
VERTEX
10
7.92547
20
10.5443
30
9.2
0
VERTEX
10
7.92636
20
10.5407
30
9.2
0
VERTEX
10
7.92726
20
10.5389
30
9.2
0
VERTEX
10
7.93443
20
10.538
30
9.2
0
VERTEX
10
7.94161
20
10.5389
30
9.2
0
VERTEX
10
7.94519
20
10.5398
30
9.2
0
VERTEX
10
7.94609
20
10.5541
30
9.2
0
VERTEX
10
7.93623
20
10.5685
30
9.2
0
VERTEX
10
7.92457
20
10.5801
30
9.2
0
VERTEX
10
7.92278
20
10.5837
30
9.2
0
VERTEX
10
7.91919
20
10.5873
30
9.2
0
VERTEX
10
7.9174
20
10.5873
30
9.2
0
VERTEX
10
7.90754
20
10.5999
30
9.2
0
VERTEX
10
7.89947
20
10.6142
30
9.2
0
VERTEX
10
7.89588
20
10.6169
30
9.2
0
VERTEX
10
7.89499
20
10.6187
30
9.2
0
VERTEX
10
7.89409
20
10.6151
30
9.2
0
VERTEX
10
7.89588
20
10.6008
30
9.2
0
VERTEX
10
7.89499
20
10.5981
30
9.2
0
VERTEX
10
7.88781
20
10.5954
30
9.2
0
VERTEX
10
7.88423
20
10.5927
30
9.2
0
VERTEX
10
7.88333
20
10.5855
30
9.2
0
VERTEX
10
7.88333
20
10.5846
30
9.2
0
SEQEND
0
POLYLINE
62
227
66
1
70
1
3
endoplasmic_reticulum
0
VERTEX
10
7.5543
20
10.7335
30
9.2
0
VERTEX
10
7.55878
20
10.7191
30
9.2
0
VERTEX
10
7.56237
20
10.7119
30
9.2
0
VERTEX
10
7.56954
20
10.7075
30
9.2
0
VERTEX
10
7.59823
20
10.7083
30
9.2
0
VERTEX
10
7.6045
20
10.7146
30
9.2
0
VERTEX
10
7.60899
20
10.7218
30
9.2
0
VERTEX
10
7.61078
20
10.7236
30
9.2
0
VERTEX
10
7.61257
20
10.7308
30
9.2
0
VERTEX
10
7.61347
20
10.7343
30
9.2
0
VERTEX
10
7.61168
20
10.7415
30
9.2
0
VERTEX
10
7.60181
20
10.755
30
9.2
0
VERTEX
10
7.59554
20
10.7594
30
9.2
0
VERTEX
10
7.59464
20
10.7612
30
9.2
0
VERTEX
10
7.5803
20
10.7639
30
9.2
0
VERTEX
10
7.57312
20
10.763
30
9.2
0
VERTEX
10
7.56954
20
10.7621
30
9.2
0
VERTEX
10
7.56237
20
10.7568
30
9.2
0
VERTEX
10
7.55519
20
10.7487
30
9.2
0
VERTEX
10
7.5543
20
10.7343
30
9.2
0
SEQEND
0
POLYLINE
62
227
66
1
70
1
3
endoplasmic_reticulum
0
VERTEX
10
7.77216
20
10.3435
30
9.2
0
VERTEX
10
7.77395
20
10.3363
30
9.2
0
VERTEX
10
7.77664
20
10.3336
30
9.2
0
VERTEX
10
7.78381
20
10.3318
30
9.2
0
VERTEX
10
7.79099
20
10.3327
30
9.2
0
VERTEX
10
7.80533
20
10.3381
30
9.2
0
VERTEX
10
7.80892
20
10.339
30
9.2
0
VERTEX
10
7.81071
20
10.3408
30
9.2
0
VERTEX
10
7.81788
20
10.3426
30
9.2
0
VERTEX
10
7.82147
20
10.3443
30
9.2
0
VERTEX
10
7.82326
20
10.3461
30
9.2
0
VERTEX
10
7.82505
20
10.3461
30
9.2
0
VERTEX
10
7.82864
20
10.3497
30
9.2
0
VERTEX
10
7.84209
20
10.3578
30
9.2
0
VERTEX
10
7.85285
20
10.3703
30
9.2
0
VERTEX
10
7.85554
20
10.3739
30
9.2
0
VERTEX
10
7.85823
20
10.3748
30
9.2
0
VERTEX
10
7.8645
20
10.3802
30
9.2
0
VERTEX
10
7.8654
20
10.3838
30
9.2
0
VERTEX
10
7.87257
20
10.3901
30
9.2
0
VERTEX
10
7.87347
20
10.3937
30
9.2
0
VERTEX
10
7.87705
20
10.3946
30
9.2
0
VERTEX
10
7.88154
20
10.408
30
9.2
0
VERTEX
10
7.88154
20
10.4116
30
9.2
0
VERTEX
10
7.88512
20
10.4188
30
9.2
0
VERTEX
10
7.88781
20
10.4223
30
9.2
0
VERTEX
10
7.88602
20
10.4367
30
9.2
0
VERTEX
10
7.88512
20
10.4403
30
9.2
0
VERTEX
10
7.87795
20
10.4466
30
9.2
0
VERTEX
10
7.87436
20
10.4466
30
9.2
0
VERTEX
10
7.87167
20
10.4483
30
9.2
0
VERTEX
10
7.86988
20
10.4519
30
9.2
0
VERTEX
10
7.86271
20
10.4519
30
9.2
0
VERTEX
10
7.85643
20
10.4475
30
9.2
0
VERTEX
10
7.85285
20
10.4403
30
9.2
0
VERTEX
10
7.84926
20
10.4367
30
9.2
0
VERTEX
10
7.84747
20
10.4331
30
9.2
0
VERTEX
10
7.83492
20
10.4197
30
9.2
0
VERTEX
10
7.83312
20
10.4161
30
9.2
0
VERTEX
10
7.82595
20
10.4089
30
9.2
0
VERTEX
10
7.81609
20
10.3972
30
9.2
0
VERTEX
10
7.80533
20
10.3838
30
9.2
0
VERTEX
10
7.79995
20
10.3775
30
9.2
0
VERTEX
10
7.79726
20
10.3739
30
9.2
0
VERTEX
10
7.79726
20
10.3703
30
9.2
0
VERTEX
10
7.78561
20
10.3614
30
9.2
0
VERTEX
10
7.78202
20
10.3578
30
9.2
0
VERTEX
10
7.78023
20
10.3542
30
9.2
0
VERTEX
10
7.77395
20
10.3488
30
9.2
0
VERTEX
10
7.77216
20
10.3461
30
9.2
0
VERTEX
10
7.77216
20
10.3443
30
9.2
0
SEQEND
0
POLYLINE
62
227
66
1
70
1
3
endoplasmic_reticulum
0
VERTEX
10
7.67264
20
10.2672
30
9.2
0
VERTEX
10
7.67802
20
10.2529
30
9.2
0
VERTEX
10
7.6825
20
10.2457
30
9.2
0
VERTEX
10
7.68878
20
10.2412
30
9.2
0
VERTEX
10
7.69595
20
10.2395
30
9.2
0
VERTEX
10
7.7103
20
10.2395
30
9.2
0
VERTEX
10
7.72464
20
10.243
30
9.2
0
VERTEX
10
7.73719
20
10.2556
30
9.2
0
VERTEX
10
7.74347
20
10.261
30
9.2
0
VERTEX
10
7.74705
20
10.2637
30
9.2
0
VERTEX
10
7.74705
20
10.2708
30
9.2
0
VERTEX
10
7.74705
20
10.2744
30
9.2
0
VERTEX
10
7.74526
20
10.278
30
9.2
0
VERTEX
10
7.74437
20
10.2852
30
9.2
0
VERTEX
10
7.74347
20
10.2888
30
9.2
0
VERTEX
10
7.74347
20
10.2906
30
9.2
0
VERTEX
10
7.73899
20
10.2977
30
9.2
0
VERTEX
10
7.73271
20
10.304
30
9.2
0
VERTEX
10
7.73181
20
10.3058
30
9.2
0
VERTEX
10
7.70312
20
10.3058
30
9.2
0
VERTEX
10
7.69954
20
10.3058
30
9.2
0
VERTEX
10
7.68968
20
10.2923
30
9.2
0
VERTEX
10
7.67533
20
10.2843
30
9.2
0
VERTEX
10
7.67264
20
10.2816
30
9.2
0
VERTEX
10
7.67264
20
10.2681
30
9.2
0
SEQEND
0
POLYLINE
62
227
66
1
70
1
3
endoplasmic_reticulum
0
VERTEX
10
7.5005
20
10.339
30
9.2
0
VERTEX
10
7.5023
20
10.3381
30
9.2
0
VERTEX
10
7.5023
20
10.3363
30
9.2
0
VERTEX
10
7.50768
20
10.33
30
9.2
0
VERTEX
10
7.51126
20
10.3273
30
9.2
0
VERTEX
10
7.52561
20
10.3264
30
9.2
0
VERTEX
10
7.53278
20
10.3273
30
9.2
0
VERTEX
10
7.54444
20
10.3372
30
9.2
0
VERTEX
10
7.54354
20
10.3408
30
9.2
0
VERTEX
10
7.53368
20
10.3551
30
9.2
0
VERTEX
10
7.5274
20
10.3605
30
9.2
0
VERTEX
10
7.5265
20
10.3623
30
9.2
0
VERTEX
10
7.51216
20
10.3641
30
9.2
0
VERTEX
10
7.50857
20
10.3632
30
9.2
0
VERTEX
10
7.5023
20
10.3578
30
9.2
0
VERTEX
10
7.5005
20
10.3542
30
9.2
0
VERTEX
10
7.5005
20
10.3399
30
9.2
0
SEQEND
0
POLYLINE
62
236
66
1
70
1
3
postsynaptic_density
0
VERTEX
10
7.93496
20
10.802
30
9.2
0
VERTEX
10
7.94236
20
10.7823
30
9.2
0
VERTEX
10
8.00898
20
10.4664
30
9.2
0
VERTEX
10
8.00651
20
10.4467
30
9.2
0
VERTEX
10
8.00898
20
10.4368
30
9.2
0
VERTEX
10
8.01145
20
10.4319
30
9.2
0
VERTEX
10
8.03119
20
10.4245
30
9.2
0
VERTEX
10
8.11014
20
10.4196
30
9.2
0
VERTEX
10
8.12988
20
10.4171
30
9.2
0
VERTEX
10
8.13975
20
10.4171
30
9.2
0
VERTEX
10
8.14222
20
10.4146
30
9.2
0
VERTEX
10
8.15209
20
10.4196
30
9.2
0
VERTEX
10
8.23104
20
10.4245
30
9.2
0
VERTEX
10
8.27052
20
10.427
30
9.2
0
VERTEX
10
8.29026
20
10.422
30
9.2
0
VERTEX
10
8.29519
20
10.422
30
9.2
0
VERTEX
10
8.29519
20
10.4171
30
9.2
0
VERTEX
10
8.31493
20
10.4048
30
9.2
0
VERTEX
10
8.3248
20
10.3998
30
9.2
0
VERTEX
10
8.33467
20
10.3998
30
9.2
0
VERTEX
10
8.3396
20
10.4023
30
9.2
0
VERTEX
10
8.34207
20
10.4813
30
9.2
0
VERTEX
10
8.34207
20
10.501
30
9.2
0
VERTEX
10
8.34207
20
10.5059
30
9.2
0
VERTEX
10
8.33714
20
10.5109
30
9.2
0
VERTEX
10
8.34947
20
10.6688
30
9.2
0
VERTEX
10
8.34701
20
10.7477
30
9.2
0
VERTEX
10
8.34454
20
10.7872
30
9.2
0
VERTEX
10
8.3396
20
10.7971
30
9.2
0
VERTEX
10
8.3396
20
10.8069
30
9.2
0
VERTEX
10
8.33467
20
10.8119
30
9.2
0
VERTEX
10
8.32973
20
10.8094
30
9.2
0
VERTEX
10
8.32973
20
10.8045
30
9.2
0
VERTEX
10
8.31986
20
10.7995
30
9.2
0
VERTEX
10
8.30013
20
10.7995
30
9.2
0
VERTEX
10
8.28039
20
10.8045
30
9.2
0
VERTEX
10
8.26065
20
10.8143
30
9.2
0
VERTEX
10
8.25571
20
10.8143
30
9.2
0
VERTEX
10
8.25078
20
10.8193
30
9.2
0
VERTEX
10
8.2113
20
10.8242
30
9.2
0
VERTEX
10
8.19156
20
10.8316
30
9.2
0
VERTEX
10
8.18169
20
10.8316
30
9.2
0
VERTEX
10
8.17676
20
10.8365
30
9.2
0
VERTEX
10
8.13728
20
10.8365
30
9.2
0
VERTEX
10
8.12741
20
10.839
30
9.2
0
VERTEX
10
8.10767
20
10.8341
30
9.2
0
VERTEX
10
8.0978
20
10.8291
30
9.2
0
VERTEX
10
8.05833
20
10.8267
30
9.2
0
VERTEX
10
8.03859
20
10.8217
30
9.2
0
VERTEX
10
7.99911
20
10.8242
30
9.2
0
VERTEX
10
7.95963
20
10.8193
30
9.2
0
VERTEX
10
7.93989
20
10.8094
30
9.2
0
VERTEX
10
7.93496
20
10.8045
30
9.2
0
SEQEND
0
ENDSEC
0
EOF
