0
SECTION
2
ENTITIES
0
POLYLINE
62
99
66
1
70
1
3
postsynaptic_density
0
VERTEX
10
9.1073
20
10.5261
30
6.84
0
VERTEX
10
9.11252
20
10.5235
30
6.84
0
VERTEX
10
9.11513
20
10.5261
30
6.84
0
VERTEX
10
9.11513
20
10.5052
30
6.84
0
VERTEX
10
9.13078
20
10.4896
30
6.84
0
VERTEX
10
9.15164
20
10.4713
30
6.84
0
VERTEX
10
9.16207
20
10.4635
30
6.84
0
VERTEX
10
9.18294
20
10.4557
30
6.84
0
VERTEX
10
9.2038
20
10.4531
30
6.84
0
VERTEX
10
9.21423
20
10.4557
30
6.84
0
VERTEX
10
9.21945
20
10.4661
30
6.84
0
VERTEX
10
9.22467
20
10.4661
30
6.84
0
VERTEX
10
9.22988
20
10.4713
30
6.84
0
VERTEX
10
9.22988
20
10.4765
30
6.84
0
VERTEX
10
9.24032
20
10.487
30
6.84
0
VERTEX
10
9.24553
20
10.4974
30
6.84
0
VERTEX
10
9.25596
20
10.5
30
6.84
0
VERTEX
10
9.26118
20
10.5026
30
6.84
0
VERTEX
10
9.17772
20
10.5626
30
6.84
0
VERTEX
10
9.13599
20
10.5913
30
6.84
0
VERTEX
10
9.13078
20
10.5939
30
6.84
0
VERTEX
10
9.12295
20
10.5861
30
6.84
0
VERTEX
10
9.12295
20
10.5809
30
6.84
0
VERTEX
10
9.11252
20
10.573
30
6.84
0
VERTEX
10
9.1073
20
10.5704
30
6.84
0
VERTEX
10
9.1073
20
10.5287
30
6.84
0
SEQEND
0
POLYLINE
62
224
66
1
70
1
3
mitochondrion
0
VERTEX
10
8.6151
20
9.64958
30
6.84
0
VERTEX
10
8.62206
20
9.62734
30
6.84
0
VERTEX
10
8.62484
20
9.62456
30
6.84
0
VERTEX
10
8.62484
20
9.62177
30
6.84
0
VERTEX
10
8.64291
20
9.60092
30
6.84
0
VERTEX
10
8.65265
20
9.59397
30
6.84
0
VERTEX
10
8.66238
20
9.58423
30
6.84
0
VERTEX
10
8.6735
20
9.57728
30
6.84
0
VERTEX
10
8.68323
20
9.57311
30
6.84
0
VERTEX
10
8.69436
20
9.56338
30
6.84
0
VERTEX
10
8.70548
20
9.55642
30
6.84
0
VERTEX
10
8.71104
20
9.55364
30
6.84
0
VERTEX
10
8.71243
20
9.55086
30
6.84
0
VERTEX
10
8.72356
20
9.54947
30
6.84
0
VERTEX
10
8.73468
20
9.54252
30
6.84
0
VERTEX
10
8.74024
20
9.53974
30
6.84
0
VERTEX
10
8.75137
20
9.53835
30
6.84
0
VERTEX
10
8.75693
20
9.53418
30
6.84
0
VERTEX
10
8.77917
20
9.53001
30
6.84
0
VERTEX
10
8.7903
20
9.52584
30
6.84
0
VERTEX
10
8.80142
20
9.52444
30
6.84
0
VERTEX
10
8.82367
20
9.52862
30
6.84
0
VERTEX
10
8.83479
20
9.53001
30
6.84
0
VERTEX
10
8.84035
20
9.53001
30
6.84
0
VERTEX
10
8.84313
20
9.53001
30
6.84
0
VERTEX
10
8.84592
20
9.53279
30
6.84
0
VERTEX
10
8.85148
20
9.53279
30
6.84
0
VERTEX
10
8.85426
20
9.53557
30
6.84
0
VERTEX
10
8.86538
20
9.53557
30
6.84
0
VERTEX
10
8.87094
20
9.53557
30
6.84
0
VERTEX
10
8.88207
20
9.54252
30
6.84
0
VERTEX
10
8.89319
20
9.54669
30
6.84
0
VERTEX
10
8.91544
20
9.55086
30
6.84
0
VERTEX
10
8.92656
20
9.55364
30
6.84
0
VERTEX
10
8.93768
20
9.55921
30
6.84
0
VERTEX
10
8.93907
20
9.56199
30
6.84
0
VERTEX
10
8.94464
20
9.56199
30
6.84
0
VERTEX
10
8.96271
20
9.58006
30
6.84
0
VERTEX
10
8.97244
20
9.5884
30
6.84
0
VERTEX
10
8.97801
20
9.59258
30
6.84
0
VERTEX
10
8.98079
20
9.59258
30
6.84
0
VERTEX
10
8.98913
20
9.6037
30
6.84
0
VERTEX
10
8.99886
20
9.61065
30
6.84
0
VERTEX
10
9.01416
20
9.6329
30
6.84
0
VERTEX
10
9.01833
20
9.64402
30
6.84
0
VERTEX
10
9.02111
20
9.6468
30
6.84
0
VERTEX
10
9.02111
20
9.66905
30
6.84
0
VERTEX
10
9.01833
20
9.6913
30
6.84
0
VERTEX
10
9.01416
20
9.70242
30
6.84
0
VERTEX
10
9.01277
20
9.71354
30
6.84
0
VERTEX
10
9.01138
20
9.71911
30
6.84
0
VERTEX
10
9.00581
20
9.7205
30
6.84
0
VERTEX
10
9.00442
20
9.72606
30
6.84
0
VERTEX
10
8.96688
20
9.76221
30
6.84
0
VERTEX
10
8.96271
20
9.76499
30
6.84
0
VERTEX
10
8.95159
20
9.76638
30
6.84
0
VERTEX
10
8.94603
20
9.77055
30
6.84
0
VERTEX
10
8.92378
20
9.7775
30
6.84
0
VERTEX
10
8.91822
20
9.7775
30
6.84
0
VERTEX
10
8.91544
20
9.7775
30
6.84
0
VERTEX
10
8.90987
20
9.78167
30
6.84
0
VERTEX
10
8.88763
20
9.78446
30
6.84
0
VERTEX
10
8.84313
20
9.78306
30
6.84
0
VERTEX
10
8.82089
20
9.77889
30
6.84
0
VERTEX
10
8.80976
20
9.77611
30
6.84
0
VERTEX
10
8.8042
20
9.77472
30
6.84
0
VERTEX
10
8.80142
20
9.77194
30
6.84
0
VERTEX
10
8.7903
20
9.77055
30
6.84
0
VERTEX
10
8.78752
20
9.76777
30
6.84
0
VERTEX
10
8.77639
20
9.76638
30
6.84
0
VERTEX
10
8.75415
20
9.75943
30
6.84
0
VERTEX
10
8.7319
20
9.75804
30
6.84
0
VERTEX
10
8.72078
20
9.75665
30
6.84
0
VERTEX
10
8.718
20
9.75665
30
6.84
0
VERTEX
10
8.71382
20
9.75248
30
6.84
0
VERTEX
10
8.7027
20
9.75108
30
6.84
0
VERTEX
10
8.69992
20
9.7483
30
6.84
0
VERTEX
10
8.6888
20
9.74691
30
6.84
0
VERTEX
10
8.68323
20
9.74552
30
6.84
0
VERTEX
10
8.67767
20
9.74135
30
6.84
0
VERTEX
10
8.66655
20
9.73857
30
6.84
0
VERTEX
10
8.66099
20
9.73718
30
6.84
0
VERTEX
10
8.6596
20
9.7344
30
6.84
0
VERTEX
10
8.65682
20
9.7344
30
6.84
0
VERTEX
10
8.63596
20
9.71911
30
6.84
0
VERTEX
10
8.62623
20
9.70937
30
6.84
0
VERTEX
10
8.61928
20
9.69964
30
6.84
0
VERTEX
10
8.6151
20
9.68991
30
6.84
0
VERTEX
10
8.6151
20
9.66766
30
6.84
0
VERTEX
10
8.6151
20
9.65654
30
6.84
0
VERTEX
10
8.6151
20
9.65097
30
6.84
0
SEQEND
0
POLYLINE
62
227
66
1
70
1
3
endoplasmic_reticulum
0
VERTEX
10
8.67229
20
9.87904
30
6.84
0
VERTEX
10
8.67498
20
9.87546
30
6.84
0
VERTEX
10
8.68215
20
9.87277
30
6.84
0
VERTEX
10
8.68305
20
9.87097
30
6.84
0
VERTEX
10
8.74043
20
9.8647
30
6.84
0
VERTEX
10
8.75477
20
9.86201
30
6.84
0
VERTEX
10
8.78346
20
9.86201
30
6.84
0
VERTEX
10
8.79781
20
9.86201
30
6.84
0
VERTEX
10
8.80498
20
9.8629
30
6.84
0
VERTEX
10
8.80857
20
9.8629
30
6.84
0
VERTEX
10
8.81574
20
9.86559
30
6.84
0
VERTEX
10
8.81932
20
9.86649
30
6.84
0
VERTEX
10
8.8256
20
9.87187
30
6.84
0
VERTEX
10
8.82829
20
9.87366
30
6.84
0
VERTEX
10
8.83008
20
9.87725
30
6.84
0
VERTEX
10
8.83008
20
9.88442
30
6.84
0
VERTEX
10
8.82829
20
9.89159
30
6.84
0
VERTEX
10
8.81932
20
9.90504
30
6.84
0
VERTEX
10
8.80498
20
9.9167
30
6.84
0
VERTEX
10
8.80139
20
9.91759
30
6.84
0
VERTEX
10
8.79781
20
9.9167
30
6.84
0
VERTEX
10
8.79601
20
9.9158
30
6.84
0
VERTEX
10
8.79422
20
9.9167
30
6.84
0
VERTEX
10
8.78705
20
9.91401
30
6.84
0
VERTEX
10
8.78346
20
9.91311
30
6.84
0
VERTEX
10
8.77808
20
9.90683
30
6.84
0
VERTEX
10
8.77719
20
9.90325
30
6.84
0
VERTEX
10
8.77539
20
9.90146
30
6.84
0
VERTEX
10
8.77539
20
9.89966
30
6.84
0
VERTEX
10
8.7727
20
9.89608
30
6.84
0
VERTEX
10
8.76553
20
9.89697
30
6.84
0
VERTEX
10
8.75119
20
9.90325
30
6.84
0
VERTEX
10
8.7476
20
9.90325
30
6.84
0
VERTEX
10
8.74401
20
9.90504
30
6.84
0
VERTEX
10
8.74222
20
9.90504
30
6.84
0
VERTEX
10
8.74043
20
9.90683
30
6.84
0
VERTEX
10
8.73326
20
9.90773
30
6.84
0
VERTEX
10
8.72608
20
9.91221
30
6.84
0
VERTEX
10
8.7207
20
9.91759
30
6.84
0
VERTEX
10
8.71891
20
9.91939
30
6.84
0
VERTEX
10
8.70457
20
9.9167
30
6.84
0
VERTEX
10
8.70098
20
9.9158
30
6.84
0
VERTEX
10
8.69919
20
9.9158
30
6.84
0
VERTEX
10
8.6956
20
9.91311
30
6.84
0
VERTEX
10
8.69201
20
9.91221
30
6.84
0
VERTEX
10
8.68843
20
9.91311
30
6.84
0
VERTEX
10
8.68484
20
9.91221
30
6.84
0
VERTEX
10
8.67857
20
9.90683
30
6.84
0
VERTEX
10
8.67677
20
9.90325
30
6.84
0
VERTEX
10
8.67677
20
9.90146
30
6.84
0
VERTEX
10
8.67498
20
9.89966
30
6.84
0
VERTEX
10
8.67408
20
9.89249
30
6.84
0
VERTEX
10
8.67229
20
9.8889
30
6.84
0
VERTEX
10
8.67229
20
9.88173
30
6.84
0
VERTEX
10
8.67229
20
9.87994
30
6.84
0
SEQEND
0
POLYLINE
62
227
66
1
70
1
3
endoplasmic_reticulum
0
VERTEX
10
8.93856
20
9.82615
30
6.84
0
VERTEX
10
8.94215
20
9.81897
30
6.84
0
VERTEX
10
8.94394
20
9.81808
30
6.84
0
VERTEX
10
8.94394
20
9.81628
30
6.84
0
VERTEX
10
8.94753
20
9.81359
30
6.84
0
VERTEX
10
8.94753
20
9.8118
30
6.84
0
VERTEX
10
8.95381
20
9.80642
30
6.84
0
VERTEX
10
8.9565
20
9.80284
30
6.84
0
VERTEX
10
8.96905
20
9.79297
30
6.84
0
VERTEX
10
8.97532
20
9.7867
30
6.84
0
VERTEX
10
8.98877
20
9.77684
30
6.84
0
VERTEX
10
8.99594
20
9.77415
30
6.84
0
VERTEX
10
9.00312
20
9.76966
30
6.84
0
VERTEX
10
9.01029
20
9.76966
30
6.84
0
VERTEX
10
9.01387
20
9.77056
30
6.84
0
VERTEX
10
9.01567
20
9.77056
30
6.84
0
VERTEX
10
9.01836
20
9.77415
30
6.84
0
VERTEX
10
9.02015
20
9.77415
30
6.84
0
VERTEX
10
9.02105
20
9.78132
30
6.84
0
VERTEX
10
9.02015
20
9.7849
30
6.84
0
VERTEX
10
9.02015
20
9.7867
30
6.84
0
VERTEX
10
9.01746
20
9.79028
30
6.84
0
VERTEX
10
9.01567
20
9.79208
30
6.84
0
VERTEX
10
9.01567
20
9.79387
30
6.84
0
VERTEX
10
9.00939
20
9.79925
30
6.84
0
VERTEX
10
9.00939
20
9.80104
30
6.84
0
VERTEX
10
9.00581
20
9.80373
30
6.84
0
VERTEX
10
9.00132
20
9.81001
30
6.84
0
VERTEX
10
8.99594
20
9.81449
30
6.84
0
VERTEX
10
8.98967
20
9.82077
30
6.84
0
VERTEX
10
8.9825
20
9.82346
30
6.84
0
VERTEX
10
8.96994
20
9.83242
30
6.84
0
VERTEX
10
8.96277
20
9.83421
30
6.84
0
VERTEX
10
8.95919
20
9.83601
30
6.84
0
VERTEX
10
8.94484
20
9.83332
30
6.84
0
VERTEX
10
8.94125
20
9.83152
30
6.84
0
VERTEX
10
8.93946
20
9.83152
30
6.84
0
VERTEX
10
8.93856
20
9.82794
30
6.84
0
VERTEX
10
8.93856
20
9.82704
30
6.84
0
SEQEND
0
POLYLINE
62
227
66
1
70
1
3
endoplasmic_reticulum
0
VERTEX
10
8.96905
20
9.89428
30
6.84
0
VERTEX
10
8.97084
20
9.88711
30
6.84
0
VERTEX
10
8.97443
20
9.88442
30
6.84
0
VERTEX
10
8.97532
20
9.88263
30
6.84
0
VERTEX
10
8.98967
20
9.87994
30
6.84
0
VERTEX
10
8.99684
20
9.87904
30
6.84
0
VERTEX
10
8.99863
20
9.87904
30
6.84
0
VERTEX
10
9.00491
20
9.87277
30
6.84
0
VERTEX
10
9.0076
20
9.87008
30
6.84
0
VERTEX
10
9.0085
20
9.86828
30
6.84
0
VERTEX
10
9.01567
20
9.86828
30
6.84
0
VERTEX
10
9.02284
20
9.87008
30
6.84
0
VERTEX
10
9.03629
20
9.87994
30
6.84
0
VERTEX
10
9.03808
20
9.88711
30
6.84
0
VERTEX
10
9.03718
20
9.90146
30
6.84
0
VERTEX
10
9.03091
20
9.90683
30
6.84
0
VERTEX
10
9.02643
20
9.91132
30
6.84
0
VERTEX
10
9.02194
20
9.91401
30
6.84
0
VERTEX
10
9.01836
20
9.91401
30
6.84
0
VERTEX
10
9.01477
20
9.9158
30
6.84
0
VERTEX
10
8.98608
20
9.9149
30
6.84
0
VERTEX
10
8.97891
20
9.91311
30
6.84
0
VERTEX
10
8.97174
20
9.90683
30
6.84
0
VERTEX
10
8.96994
20
9.90504
30
6.84
0
VERTEX
10
8.96905
20
9.89787
30
6.84
0
VERTEX
10
8.96905
20
9.89518
30
6.84
0
SEQEND
0
POLYLINE
62
227
66
1
70
1
3
endoplasmic_reticulum
0
VERTEX
10
9.02664
20
10.2065
30
6.84
0
VERTEX
10
9.03162
20
10.2015
30
6.84
0
VERTEX
10
9.03827
20
10.1998
30
6.84
0
VERTEX
10
9.04159
20
10.1965
30
6.84
0
VERTEX
10
9.05489
20
10.1948
30
6.84
0
VERTEX
10
9.06153
20
10.1948
30
6.84
0
VERTEX
10
9.06486
20
10.1948
30
6.84
0
VERTEX
10
9.07483
20
10.2065
30
6.84
0
VERTEX
10
9.07649
20
10.2131
30
6.84
0
VERTEX
10
9.08978
20
10.2248
30
6.84
0
VERTEX
10
9.09311
20
10.2248
30
6.84
0
VERTEX
10
9.09477
20
10.2381
30
6.84
0
VERTEX
10
9.08978
20
10.2513
30
6.84
0
VERTEX
10
9.08978
20
10.258
30
6.84
0
VERTEX
10
9.08646
20
10.2613
30
6.84
0
VERTEX
10
9.08646
20
10.2646
30
6.84
0
VERTEX
10
9.07981
20
10.2663
30
6.84
0
VERTEX
10
9.05322
20
10.2613
30
6.84
0
VERTEX
10
9.04658
20
10.258
30
6.84
0
VERTEX
10
9.04159
20
10.2513
30
6.84
0
VERTEX
10
9.03827
20
10.248
30
6.84
0
VERTEX
10
9.03827
20
10.2414
30
6.84
0
VERTEX
10
9.02996
20
10.2281
30
6.84
0
VERTEX
10
9.02996
20
10.2214
30
6.84
0
VERTEX
10
9.02664
20
10.2148
30
6.84
0
VERTEX
10
9.02664
20
10.2081
30
6.84
0
SEQEND
0
POLYLINE
62
227
66
1
70
1
3
endoplasmic_reticulum
0
VERTEX
10
9.00337
20
10.4308
30
6.84
0
VERTEX
10
9.01002
20
10.4292
30
6.84
0
VERTEX
10
9.02331
20
10.4325
30
6.84
0
VERTEX
10
9.03328
20
10.4424
30
6.84
0
VERTEX
10
9.03827
20
10.4491
30
6.84
0
VERTEX
10
9.03661
20
10.4624
30
6.84
0
VERTEX
10
9.03162
20
10.4757
30
6.84
0
VERTEX
10
9.02498
20
10.4807
30
6.84
0
VERTEX
10
9.02165
20
10.4823
30
6.84
0
VERTEX
10
9.01168
20
10.4724
30
6.84
0
VERTEX
10
9.00503
20
10.4607
30
6.84
0
VERTEX
10
9.00337
20
10.4341
30
6.84
0
VERTEX
10
9.00337
20
10.4325
30
6.84
0
SEQEND
0
POLYLINE
62
31
66
1
70
1
3
contour
0
VERTEX
10
7.9997
20
9.28853
30
6.84
0
VERTEX
10
8.00554
20
9.27295
30
6.84
0
VERTEX
10
8.01333
20
9.26711
30
6.84
0
VERTEX
10
8.01722
20
9.26517
30
6.84
0
VERTEX
10
8.02112
20
9.24959
30
6.84
0
VERTEX
10
8.02112
20
9.2457
30
6.84
0
VERTEX
10
8.02501
20
9.24375
30
6.84
0
VERTEX
10
8.0328
20
9.24764
30
6.84
0
VERTEX
10
8.03669
20
9.24764
30
6.84
0
VERTEX
10
8.04058
20
9.25154
30
6.84
0
VERTEX
10
8.05616
20
9.25543
30
6.84
0
VERTEX
10
8.05811
20
9.25933
30
6.84
0
VERTEX
10
8.06589
20
9.25933
30
6.84
0
VERTEX
10
8.08147
20
9.26711
30
6.84
0
VERTEX
10
8.11262
20
9.27685
30
6.84
0
VERTEX
10
8.12819
20
9.28269
30
6.84
0
VERTEX
10
8.14182
20
9.29242
30
6.84
0
VERTEX
10
8.14961
20
9.29632
30
6.84
0
VERTEX
10
8.1535
20
9.30021
30
6.84
0
VERTEX
10
8.1574
20
9.30021
30
6.84
0
VERTEX
10
8.16129
20
9.3041
30
6.84
0
VERTEX
10
8.16908
20
9.30605
30
6.84
0
VERTEX
10
8.18465
20
9.31579
30
6.84
0
VERTEX
10
8.20023
20
9.31968
30
6.84
0
VERTEX
10
8.2158
20
9.33136
30
6.84
0
VERTEX
10
8.22359
20
9.33331
30
6.84
0
VERTEX
10
8.22748
20
9.33331
30
6.84
0
VERTEX
10
8.23332
20
9.34304
30
6.84
0
VERTEX
10
8.24111
20
9.34304
30
6.84
0
VERTEX
10
8.24501
20
9.34304
30
6.84
0
VERTEX
10
8.2489
20
9.33525
30
6.84
0
VERTEX
10
8.25669
20
9.3372
30
6.84
0
VERTEX
10
8.26058
20
9.3372
30
6.84
0
VERTEX
10
8.26447
20
9.34109
30
6.84
0
VERTEX
10
8.26837
20
9.34109
30
6.84
0
VERTEX
10
8.28394
20
9.35278
30
6.84
0
VERTEX
10
8.29952
20
9.36056
30
6.84
0
VERTEX
10
8.30731
20
9.36056
30
6.84
0
VERTEX
10
8.32288
20
9.3664
30
6.84
0
VERTEX
10
8.33846
20
9.36835
30
6.84
0
VERTEX
10
8.35403
20
9.37419
30
6.84
0
VERTEX
10
8.38518
20
9.37614
30
6.84
0
VERTEX
10
8.40076
20
9.37809
30
6.84
0
VERTEX
10
8.40854
20
9.37809
30
6.84
0
VERTEX
10
8.41244
20
9.37809
30
6.84
0
VERTEX
10
8.41633
20
9.37419
30
6.84
0
VERTEX
10
8.47863
20
9.37419
30
6.84
0
VERTEX
10
8.49421
20
9.38003
30
6.84
0
VERTEX
10
8.50978
20
9.38003
30
6.84
0
VERTEX
10
8.51173
20
9.38393
30
6.84
0
VERTEX
10
8.5273
20
9.38393
30
6.84
0
VERTEX
10
8.5312
20
9.38782
30
6.84
0
VERTEX
10
8.53898
20
9.38977
30
6.84
0
VERTEX
10
8.54288
20
9.38977
30
6.84
0
VERTEX
10
8.54872
20
9.39561
30
6.84
0
VERTEX
10
8.56429
20
9.39366
30
6.84
0
VERTEX
10
8.59544
20
9.40339
30
6.84
0
VERTEX
10
8.62465
20
9.42092
30
6.84
0
VERTEX
10
8.63243
20
9.42092
30
6.84
0
VERTEX
10
8.64801
20
9.42676
30
6.84
0
VERTEX
10
8.77261
20
9.43065
30
6.84
0
VERTEX
10
8.78818
20
9.43454
30
6.84
0
VERTEX
10
8.85048
20
9.4326
30
6.84
0
VERTEX
10
8.85438
20
9.43649
30
6.84
0
VERTEX
10
8.88553
20
9.43844
30
6.84
0
VERTEX
10
8.9011
20
9.44039
30
6.84
0
VERTEX
10
8.91668
20
9.44817
30
6.84
0
VERTEX
10
8.92446
20
9.44817
30
6.84
0
VERTEX
10
8.94004
20
9.45401
30
6.84
0
VERTEX
10
8.95561
20
9.45401
30
6.84
0
VERTEX
10
8.9634
20
9.45596
30
6.84
0
VERTEX
10
8.97119
20
9.4618
30
6.84
0
VERTEX
10
8.98676
20
9.46375
30
6.84
0
VERTEX
10
9.01791
20
9.47348
30
6.84
0
VERTEX
10
9.01986
20
9.47738
30
6.84
0
VERTEX
10
9.03544
20
9.48322
30
6.84
0
VERTEX
10
9.04128
20
9.48906
30
6.84
0
VERTEX
10
9.04517
20
9.48906
30
6.84
0
VERTEX
10
9.05101
20
9.4949
30
6.84
0
VERTEX
10
9.06659
20
9.50074
30
6.84
0
VERTEX
10
9.07437
20
9.50269
30
6.84
0
VERTEX
10
9.08411
20
9.51826
30
6.84
0
VERTEX
10
9.08995
20
9.5241
30
6.84
0
VERTEX
10
9.09384
20
9.53968
30
6.84
0
VERTEX
10
9.09384
20
9.66428
30
6.84
0
VERTEX
10
9.09384
20
9.69543
30
6.84
0
VERTEX
10
9.09968
20
9.72658
30
6.84
0
VERTEX
10
9.10163
20
9.73436
30
6.84
0
VERTEX
10
9.10747
20
9.74215
30
6.84
0
VERTEX
10
9.11915
20
9.7733
30
6.84
0
VERTEX
10
9.12694
20
9.78888
30
6.84
0
VERTEX
10
9.13083
20
9.79472
30
6.84
0
VERTEX
10
9.13083
20
9.8025
30
6.84
0
VERTEX
10
9.14251
20
9.81613
30
6.84
0
VERTEX
10
9.1503
20
9.81808
30
6.84
0
VERTEX
10
9.15614
20
9.82587
30
6.84
0
VERTEX
10
9.17172
20
9.8356
30
6.84
0
VERTEX
10
9.19703
20
9.86286
30
6.84
0
VERTEX
10
9.2126
20
9.86675
30
6.84
0
VERTEX
10
9.21649
20
9.86675
30
6.84
0
VERTEX
10
9.22039
20
9.87064
30
6.84
0
VERTEX
10
9.23596
20
9.87454
30
6.84
0
VERTEX
10
9.23986
20
9.87648
30
6.84
0
VERTEX
10
9.2457
20
9.88817
30
6.84
0
VERTEX
10
9.24959
20
9.89401
30
6.84
0
VERTEX
10
9.25349
20
9.89595
30
6.84
0
VERTEX
10
9.25543
20
9.90374
30
6.84
0
VERTEX
10
9.26127
20
9.91153
30
6.84
0
VERTEX
10
9.26322
20
9.91932
30
6.84
0
VERTEX
10
9.28464
20
9.94852
30
6.84
0
VERTEX
10
9.28658
20
9.97967
30
6.84
0
VERTEX
10
9.28658
20
9.99524
30
6.84
0
VERTEX
10
9.28464
20
10.003
30
6.84
0
VERTEX
10
9.29048
20
10.0108
30
6.84
0
VERTEX
10
9.29437
20
10.0147
30
6.84
0
VERTEX
10
9.29437
20
10.0186
30
6.84
0
VERTEX
10
9.29826
20
10.0186
30
6.84
0
VERTEX
10
9.31189
20
10.0322
30
6.84
0
VERTEX
10
9.31773
20
10.0945
30
6.84
0
VERTEX
10
9.31773
20
10.1101
30
6.84
0
VERTEX
10
9.31579
20
10.1179
30
6.84
0
VERTEX
10
9.30994
20
10.1257
30
6.84
0
VERTEX
10
9.30605
20
10.1568
30
6.84
0
VERTEX
10
9.3041
20
10.1646
30
6.84
0
VERTEX
10
9.30605
20
10.1958
30
6.84
0
VERTEX
10
9.3041
20
10.2113
30
6.84
0
VERTEX
10
9.30605
20
10.2425
30
6.84
0
VERTEX
10
9.30021
20
10.3048
30
6.84
0
VERTEX
10
9.29826
20
10.3359
30
6.84
0
VERTEX
10
9.29826
20
10.3437
30
6.84
0
VERTEX
10
9.29437
20
10.3457
30
6.84
0
VERTEX
10
9.29242
20
10.3613
30
6.84
0
VERTEX
10
9.29048
20
10.369
30
6.84
0
VERTEX
10
9.29048
20
10.3729
30
6.84
0
VERTEX
10
9.28658
20
10.3749
30
6.84
0
VERTEX
10
9.28464
20
10.406
30
6.84
0
VERTEX
10
9.2749
20
10.4372
30
6.84
0
VERTEX
10
9.26906
20
10.4391
30
6.84
0
VERTEX
10
9.26517
20
10.4469
30
6.84
0
VERTEX
10
9.26517
20
10.4508
30
6.84
0
VERTEX
10
9.26127
20
10.4547
30
6.84
0
VERTEX
10
9.25933
20
10.4625
30
6.84
0
VERTEX
10
9.25154
20
10.4703
30
6.84
0
VERTEX
10
9.24764
20
10.4781
30
6.84
0
VERTEX
10
9.23207
20
10.4878
30
6.84
0
VERTEX
10
9.22039
20
10.5014
30
6.84
0
VERTEX
10
9.22039
20
10.5092
30
6.84
0
VERTEX
10
9.20871
20
10.5228
30
6.84
0
VERTEX
10
9.20287
20
10.5306
30
6.84
0
VERTEX
10
9.18729
20
10.5404
30
6.84
0
VERTEX
10
9.17561
20
10.554
30
6.84
0
VERTEX
10
9.16004
20
10.5618
30
6.84
0
VERTEX
10
9.14446
20
10.5637
30
6.84
0
VERTEX
10
9.13667
20
10.5637
30
6.84
0
VERTEX
10
9.12889
20
10.5696
30
6.84
0
VERTEX
10
9.11331
20
10.5696
30
6.84
0
VERTEX
10
9.08216
20
10.5754
30
6.84
0
VERTEX
10
9.05101
20
10.5754
30
6.84
0
VERTEX
10
9.03544
20
10.5715
30
6.84
0
VERTEX
10
9.02765
20
10.5696
30
6.84
0
VERTEX
10
9.02375
20
10.5676
30
6.84
0
VERTEX
10
9.0257
20
10.5735
30
6.84
0
VERTEX
10
9.01013
20
10.5754
30
6.84
0
VERTEX
10
8.97898
20
10.5715
30
6.84
0
VERTEX
10
8.97119
20
10.5676
30
6.84
0
VERTEX
10
8.95561
20
10.5676
30
6.84
0
VERTEX
10
8.94783
20
10.5657
30
6.84
0
VERTEX
10
8.94393
20
10.5657
30
6.84
0
VERTEX
10
8.88747
20
10.5209
30
6.84
0
VERTEX
10
8.88358
20
10.5131
30
6.84
0
VERTEX
10
8.87579
20
10.5073
30
6.84
0
VERTEX
10
8.87385
20
10.4936
30
6.84
0
VERTEX
10
8.868
20
10.4859
30
6.84
0
VERTEX
10
8.868
20
10.482
30
6.84
0
VERTEX
10
8.86411
20
10.4781
30
6.84
0
VERTEX
10
8.86216
20
10.4703
30
6.84
0
VERTEX
10
8.85632
20
10.4625
30
6.84
0
VERTEX
10
8.85243
20
10.4313
30
6.84
0
VERTEX
10
8.85048
20
10.4158
30
6.84
0
VERTEX
10
8.84464
20
10.408
30
6.84
0
VERTEX
10
8.8427
20
10.3924
30
6.84
0
VERTEX
10
8.83685
20
10.3866
30
6.84
0
VERTEX
10
8.83491
20
10.3788
30
6.84
0
VERTEX
10
8.83491
20
10.3749
30
6.84
0
VERTEX
10
8.82907
20
10.369
30
6.84
0
VERTEX
10
8.82907
20
10.3379
30
6.84
0
VERTEX
10
8.81933
20
10.3262
30
6.84
0
VERTEX
10
8.79402
20
10.3028
30
6.84
0
VERTEX
10
8.78429
20
10.2912
30
6.84
0
VERTEX
10
8.77845
20
10.2834
30
6.84
0
VERTEX
10
8.77845
20
10.2795
30
6.84
0
VERTEX
10
8.77455
20
10.2756
30
6.84
0
VERTEX
10
8.7765
20
10.2133
30
6.84
0
VERTEX
10
8.77261
20
10.1821
30
6.84
0
VERTEX
10
8.76871
20
10.1744
30
6.84
0
VERTEX
10
8.76871
20
10.1666
30
6.84
0
VERTEX
10
8.77261
20
10.1588
30
6.84
0
VERTEX
10
8.77261
20
10.151
30
6.84
0
VERTEX
10
8.76677
20
10.1432
30
6.84
0
VERTEX
10
8.76677
20
10.1276
30
6.84
0
VERTEX
10
8.75898
20
10.1121
30
6.84
0
VERTEX
10
8.75509
20
10.1043
30
6.84
0
VERTEX
10
8.7473
20
10.1023
30
6.84
0
VERTEX
10
8.72588
20
10.0751
30
6.84
0
VERTEX
10
8.72199
20
10.0731
30
6.84
0
VERTEX
10
8.72394
20
10.0575
30
6.84
0
VERTEX
10
8.7181
20
10.0556
30
6.84
0
VERTEX
10
8.71031
20
10.04
30
6.84
0
VERTEX
10
8.69863
20
10.0283
30
6.84
0
VERTEX
10
8.69473
20
10.0264
30
6.84
0
VERTEX
10
8.69473
20
10.0225
30
6.84
0
VERTEX
10
8.6811
20
10.0089
30
6.84
0
VERTEX
10
8.67332
20
10.003
30
6.84
0
VERTEX
10
8.66358
20
9.9894
30
6.84
0
VERTEX
10
8.63633
20
9.9602
30
6.84
0
VERTEX
10
8.63049
20
9.95241
30
6.84
0
VERTEX
10
8.62854
20
9.94463
30
6.84
0
VERTEX
10
8.62465
20
9.94268
30
6.84
0
VERTEX
10
8.6227
20
9.93489
30
6.84
0
VERTEX
10
8.61686
20
9.9271
30
6.84
0
VERTEX
10
8.61686
20
9.92321
30
6.84
0
VERTEX
10
8.61102
20
9.91542
30
6.84
0
VERTEX
10
8.60907
20
9.90763
30
6.84
0
VERTEX
10
8.60128
20
9.89985
30
6.84
0
VERTEX
10
8.5935
20
9.88817
30
6.84
0
VERTEX
10
8.58766
20
9.88038
30
6.84
0
VERTEX
10
8.58571
20
9.87648
30
6.84
0
VERTEX
10
8.58181
20
9.87648
30
6.84
0
VERTEX
10
8.56819
20
9.86675
30
6.84
0
VERTEX
10
8.56429
20
9.85896
30
6.84
0
VERTEX
10
8.5604
20
9.85702
30
6.84
0
VERTEX
10
8.5604
20
9.85312
30
6.84
0
VERTEX
10
8.54872
20
9.84144
30
6.84
0
VERTEX
10
8.54482
20
9.83365
30
6.84
0
VERTEX
10
8.54482
20
9.82976
30
6.84
0
VERTEX
10
8.54093
20
9.82976
30
6.84
0
VERTEX
10
8.5312
20
9.81613
30
6.84
0
VERTEX
10
8.52536
20
9.81029
30
6.84
0
VERTEX
10
8.52146
20
9.81029
30
6.84
0
VERTEX
10
8.51757
20
9.8064
30
6.84
0
VERTEX
10
8.51562
20
9.7441
30
6.84
0
VERTEX
10
8.51757
20
9.72852
30
6.84
0
VERTEX
10
8.51173
20
9.69737
30
6.84
0
VERTEX
10
8.50783
20
9.6818
30
6.84
0
VERTEX
10
8.4981
20
9.66817
30
6.84
0
VERTEX
10
8.48058
20
9.60587
30
6.84
0
VERTEX
10
8.48058
20
9.60198
30
6.84
0
VERTEX
10
8.47474
20
9.59614
30
6.84
0
VERTEX
10
8.47084
20
9.58056
30
6.84
0
VERTEX
10
8.4689
20
9.57277
30
6.84
0
VERTEX
10
8.465
20
9.56888
30
6.84
0
VERTEX
10
8.46306
20
9.56109
30
6.84
0
VERTEX
10
8.45527
20
9.5533
30
6.84
0
VERTEX
10
8.44943
20
9.53773
30
6.84
0
VERTEX
10
8.43969
20
9.5241
30
6.84
0
VERTEX
10
8.43385
20
9.50853
30
6.84
0
VERTEX
10
8.43191
20
9.50074
30
6.84
0
VERTEX
10
8.42022
20
9.48516
30
6.84
0
VERTEX
10
8.41244
20
9.47154
30
6.84
0
VERTEX
10
8.39686
20
9.45791
30
6.84
0
VERTEX
10
8.38907
20
9.45207
30
6.84
0
VERTEX
10
8.35792
20
9.44623
30
6.84
0
VERTEX
10
8.34235
20
9.44623
30
6.84
0
VERTEX
10
8.33456
20
9.44039
30
6.84
0
VERTEX
10
8.30341
20
9.43649
30
6.84
0
VERTEX
10
8.28784
20
9.4326
30
6.84
0
VERTEX
10
8.28394
20
9.4326
30
6.84
0
VERTEX
10
8.26837
20
9.42286
30
6.84
0
VERTEX
10
8.25279
20
9.42092
30
6.84
0
VERTEX
10
8.22359
20
9.3995
30
6.84
0
VERTEX
10
8.19244
20
9.38782
30
6.84
0
VERTEX
10
8.18465
20
9.38393
30
6.84
0
VERTEX
10
8.18076
20
9.38393
30
6.84
0
VERTEX
10
8.17297
20
9.37809
30
6.84
0
VERTEX
10
8.16518
20
9.37614
30
6.84
0
VERTEX
10
8.13598
20
9.35472
30
6.84
0
VERTEX
10
8.12041
20
9.34499
30
6.84
0
VERTEX
10
8.10483
20
9.33915
30
6.84
0
VERTEX
10
8.07368
20
9.3372
30
6.84
0
VERTEX
10
8.05811
20
9.33525
30
6.84
0
VERTEX
10
8.05032
20
9.33136
30
6.84
0
VERTEX
10
8.04253
20
9.33136
30
6.84
0
VERTEX
10
8.03474
20
9.32552
30
6.84
0
VERTEX
10
8.02696
20
9.32552
30
6.84
0
VERTEX
10
8.02306
20
9.32163
30
6.84
0
VERTEX
10
8.01527
20
9.31968
30
6.84
0
VERTEX
10
8.01138
20
9.31968
30
6.84
0
VERTEX
10
8.00359
20
9.31384
30
6.84
0
VERTEX
10
7.9997
20
9.30994
30
6.84
0
VERTEX
10
7.9997
20
9.29437
30
6.84
0
VERTEX
10
7.9997
20
9.29048
30
6.84
0
SEQEND
0
POLYLINE
62
31
66
1
70
1
3
contour
0
VERTEX
10
8.34395
20
9.18807
30
6.84
0
VERTEX
10
8.34749
20
9.18099
30
6.84
0
VERTEX
10
8.34749
20
9.15268
30
6.84
0
VERTEX
10
8.35279
20
9.14737
30
6.84
0
VERTEX
10
8.35987
20
9.1456
30
6.84
0
VERTEX
10
8.38642
20
9.12614
30
6.84
0
VERTEX
10
8.41473
20
9.12083
30
6.84
0
VERTEX
10
8.4165
20
9.12437
30
6.84
0
VERTEX
10
8.44482
20
9.13498
30
6.84
0
VERTEX
10
8.45897
20
9.14029
30
6.84
0
VERTEX
10
8.46251
20
9.14383
30
6.84
0
VERTEX
10
8.46959
20
9.14383
30
6.84
0
VERTEX
10
8.47313
20
9.14383
30
6.84
0
VERTEX
10
8.47844
20
9.14914
30
6.84
0
VERTEX
10
8.48552
20
9.15091
30
6.84
0
VERTEX
10
8.4926
20
9.15799
30
6.84
0
VERTEX
10
8.49614
20
9.15799
30
6.84
0
VERTEX
10
8.50498
20
9.17215
30
6.84
0
VERTEX
10
8.50852
20
9.17923
30
6.84
0
VERTEX
10
8.50852
20
9.18276
30
6.84
0
VERTEX
10
8.51206
20
9.18453
30
6.84
0
VERTEX
10
8.51737
20
9.19869
30
6.84
0
VERTEX
10
8.51737
20
9.22701
30
6.84
0
VERTEX
10
8.5156
20
9.24116
30
6.84
0
VERTEX
10
8.50675
20
9.25355
30
6.84
0
VERTEX
10
8.50145
20
9.26063
30
6.84
0
VERTEX
10
8.49614
20
9.27479
30
6.84
0
VERTEX
10
8.48198
20
9.28364
30
6.84
0
VERTEX
10
8.45366
20
9.29071
30
6.84
0
VERTEX
10
8.42535
20
9.28717
30
6.84
0
VERTEX
10
8.41119
20
9.2854
30
6.84
0
VERTEX
10
8.40411
20
9.28187
30
6.84
0
VERTEX
10
8.40057
20
9.27656
30
6.84
0
VERTEX
10
8.38642
20
9.27479
30
6.84
0
VERTEX
10
8.37934
20
9.27656
30
6.84
0
VERTEX
10
8.3758
20
9.27479
30
6.84
0
VERTEX
10
8.37403
20
9.26771
30
6.84
0
VERTEX
10
8.36695
20
9.26594
30
6.84
0
VERTEX
10
8.35633
20
9.25355
30
6.84
0
VERTEX
10
8.35102
20
9.24824
30
6.84
0
VERTEX
10
8.34749
20
9.24647
30
6.84
0
VERTEX
10
8.34395
20
9.23232
30
6.84
0
VERTEX
10
8.34395
20
9.204
30
6.84
0
VERTEX
10
8.34395
20
9.18984
30
6.84
0
SEQEND
0
ENDSEC
0
EOF
