0
SECTION
2
ENTITIES
0
POLYLINE
62
31
66
1
70
1
3
contour
0
VERTEX
10
8.63305
20
9.36727
30
4.92
0
VERTEX
10
8.63778
20
9.34832
30
4.92
0
VERTEX
10
8.64015
20
9.33885
30
4.92
0
VERTEX
10
8.65436
20
9.3199
30
4.92
0
VERTEX
10
8.67331
20
9.30569
30
4.92
0
VERTEX
10
8.69226
20
9.30095
30
4.92
0
VERTEX
10
8.70173
20
9.29385
30
4.92
0
VERTEX
10
8.71121
20
9.29148
30
4.92
0
VERTEX
10
8.72068
20
9.28437
30
4.92
0
VERTEX
10
8.73963
20
9.27964
30
4.92
0
VERTEX
10
8.74673
20
9.27016
30
4.92
0
VERTEX
10
8.75621
20
9.26779
30
4.92
0
VERTEX
10
8.76568
20
9.26069
30
4.92
0
VERTEX
10
8.77042
20
9.26069
30
4.92
0
VERTEX
10
8.77515
20
9.25595
30
4.92
0
VERTEX
10
8.7941
20
9.25358
30
4.92
0
VERTEX
10
8.81305
20
9.24648
30
4.92
0
VERTEX
10
8.81779
20
9.24648
30
4.92
0
VERTEX
10
8.82252
20
9.24174
30
4.92
0
VERTEX
10
8.84147
20
9.237
30
4.92
0
VERTEX
10
8.87937
20
9.237
30
4.92
0
VERTEX
10
8.88884
20
9.23464
30
4.92
0
VERTEX
10
8.92674
20
9.23937
30
4.92
0
VERTEX
10
8.94568
20
9.24411
30
4.92
0
VERTEX
10
8.96463
20
9.25358
30
4.92
0
VERTEX
10
9.00253
20
9.26069
30
4.92
0
VERTEX
10
9.012
20
9.26069
30
4.92
0
VERTEX
10
9.03095
20
9.26779
30
4.92
0
VERTEX
10
9.03332
20
9.27253
30
4.92
0
VERTEX
10
9.03805
20
9.27253
30
4.92
0
VERTEX
10
9.04279
20
9.27727
30
4.92
0
VERTEX
10
9.04753
20
9.27727
30
4.92
0
VERTEX
10
9.05226
20
9.28201
30
4.92
0
VERTEX
10
9.06174
20
9.28437
30
4.92
0
VERTEX
10
9.07121
20
9.29148
30
4.92
0
VERTEX
10
9.07595
20
9.29385
30
4.92
0
VERTEX
10
9.08305
20
9.30569
30
4.92
0
VERTEX
10
9.08069
20
9.38148
30
4.92
0
VERTEX
10
9.06411
20
9.45727
30
4.92
0
VERTEX
10
9.0499
20
9.47622
30
4.92
0
VERTEX
10
9.01437
20
9.50701
30
4.92
0
VERTEX
10
9.00016
20
9.52359
30
4.92
0
VERTEX
10
8.98121
20
9.53306
30
4.92
0
VERTEX
10
8.97174
20
9.53306
30
4.92
0
VERTEX
10
8.967
20
9.53543
30
4.92
0
VERTEX
10
8.96463
20
9.54491
30
4.92
0
VERTEX
10
8.94568
20
9.55675
30
4.92
0
VERTEX
10
8.94095
20
9.55675
30
4.92
0
VERTEX
10
8.922
20
9.57333
30
4.92
0
VERTEX
10
8.91253
20
9.5757
30
4.92
0
VERTEX
10
8.88647
20
9.61122
30
4.92
0
VERTEX
10
8.8841
20
9.61596
30
4.92
0
VERTEX
10
8.86516
20
9.60649
30
4.92
0
VERTEX
10
8.86042
20
9.60412
30
4.92
0
VERTEX
10
8.85331
20
9.60885
30
4.92
0
VERTEX
10
8.84858
20
9.60412
30
4.92
0
VERTEX
10
8.84384
20
9.60412
30
4.92
0
VERTEX
10
8.77042
20
9.54964
30
4.92
0
VERTEX
10
8.73489
20
9.52122
30
4.92
0
VERTEX
10
8.71594
20
9.51175
30
4.92
0
VERTEX
10
8.70884
20
9.50227
30
4.92
0
VERTEX
10
8.69936
20
9.49754
30
4.92
0
VERTEX
10
8.69226
20
9.48806
30
4.92
0
VERTEX
10
8.68515
20
9.48333
30
4.92
0
VERTEX
10
8.67094
20
9.46675
30
4.92
0
VERTEX
10
8.66147
20
9.46438
30
4.92
0
VERTEX
10
8.64489
20
9.45254
30
4.92
0
VERTEX
10
8.63542
20
9.43359
30
4.92
0
VERTEX
10
8.63305
20
9.39569
30
4.92
0
VERTEX
10
8.63305
20
9.37674
30
4.92
0
VERTEX
10
8.63305
20
9.36964
30
4.92
0
SEQEND
0
POLYLINE
62
31
66
1
70
1
3
contour
0
VERTEX
10
9.84389
20
8.79025
30
4.92
0
VERTEX
10
9.85746
20
8.76853
30
4.92
0
VERTEX
10
9.85746
20
8.7631
30
4.92
0
VERTEX
10
9.87104
20
8.74137
30
4.92
0
VERTEX
10
9.88462
20
8.72779
30
4.92
0
VERTEX
10
9.88734
20
8.71693
30
4.92
0
VERTEX
10
9.91721
20
8.6762
30
4.92
0
VERTEX
10
9.99867
20
8.61646
30
4.92
0
VERTEX
10
10.0421
20
8.60831
30
4.92
0
VERTEX
10
10.0638
20
8.60288
30
4.92
0
VERTEX
10
10.0693
20
8.60288
30
4.92
0
VERTEX
10
10.0801
20
8.59473
30
4.92
0
VERTEX
10
10.167
20
8.58115
30
4.92
0
VERTEX
10
10.2539
20
8.57301
30
4.92
0
VERTEX
10
10.4277
20
8.57029
30
4.92
0
VERTEX
10
10.4495
20
8.57301
30
4.92
0
VERTEX
10
10.4712
20
8.58115
30
4.92
0
VERTEX
10
10.4902
20
8.59745
30
4.92
0
VERTEX
10
10.5201
20
8.63818
30
4.92
0
VERTEX
10
10.5255
20
8.64361
30
4.92
0
VERTEX
10
10.5364
20
8.64633
30
4.92
0
VERTEX
10
10.5526
20
8.66262
30
4.92
0
VERTEX
10
10.5635
20
8.66805
30
4.92
0
VERTEX
10
10.5798
20
8.68706
30
4.92
0
VERTEX
10
10.5879
20
8.70878
30
4.92
0
VERTEX
10
10.6124
20
8.75223
30
4.92
0
VERTEX
10
10.6178
20
8.7631
30
4.92
0
VERTEX
10
10.6178
20
8.76853
30
4.92
0
VERTEX
10
10.6233
20
8.77396
30
4.92
0
VERTEX
10
10.6287
20
8.79568
30
4.92
0
VERTEX
10
10.6477
20
8.83913
30
4.92
0
VERTEX
10
10.6558
20
8.88258
30
4.92
0
VERTEX
10
10.6531
20
8.92603
30
4.92
0
VERTEX
10
10.6504
20
8.93689
30
4.92
0
VERTEX
10
10.6423
20
8.94504
30
4.92
0
VERTEX
10
10.6205
20
8.95047
30
4.92
0
VERTEX
10
10.6097
20
8.95862
30
4.92
0
VERTEX
10
10.5879
20
8.96133
30
4.92
0
VERTEX
10
10.5771
20
8.96948
30
4.92
0
VERTEX
10
10.5554
20
8.97491
30
4.92
0
VERTEX
10
10.5445
20
8.98034
30
4.92
0
VERTEX
10
10.5228
20
8.98034
30
4.92
0
VERTEX
10
10.5011
20
8.9912
30
4.92
0
VERTEX
10
10.4902
20
8.99663
30
4.92
0
VERTEX
10
10.4793
20
8.99663
30
4.92
0
VERTEX
10
10.4685
20
9.00478
30
4.92
0
VERTEX
10
10.463
20
9.00478
30
4.92
0
VERTEX
10
10.4576
20
9.01021
30
4.92
0
VERTEX
10
10.4142
20
9.01836
30
4.92
0
VERTEX
10
10.4087
20
9.01836
30
4.92
0
VERTEX
10
10.3979
20
9.0265
30
4.92
0
VERTEX
10
10.3761
20
9.0265
30
4.92
0
VERTEX
10
10.3544
20
9.03737
30
4.92
0
VERTEX
10
10.3327
20
9.04008
30
4.92
0
VERTEX
10
10.3218
20
9.04008
30
4.92
0
VERTEX
10
10.311
20
9.04551
30
4.92
0
VERTEX
10
10.2892
20
9.04823
30
4.92
0
VERTEX
10
10.2784
20
9.05094
30
4.92
0
VERTEX
10
10.2729
20
9.05638
30
4.92
0
VERTEX
10
10.2512
20
9.06181
30
4.92
0
VERTEX
10
10.2458
20
9.06181
30
4.92
0
VERTEX
10
10.2431
20
9.06724
30
4.92
0
VERTEX
10
10.2213
20
9.06724
30
4.92
0
VERTEX
10
10.2105
20
9.06724
30
4.92
0
VERTEX
10
10.2078
20
9.06452
30
4.92
0
VERTEX
10
10.2105
20
9.05909
30
4.92
0
VERTEX
10
10.1236
20
9.05909
30
4.92
0
VERTEX
10
10.0801
20
9.06724
30
4.92
0
VERTEX
10
10.0367
20
9.06181
30
4.92
0
VERTEX
10
10.015
20
9.05638
30
4.92
0
VERTEX
10
10.0041
20
9.05638
30
4.92
0
VERTEX
10
10.0014
20
9.05094
30
4.92
0
VERTEX
10
9.97966
20
9.0428
30
4.92
0
VERTEX
10
9.97695
20
9.03737
30
4.92
0
VERTEX
10
9.97152
20
9.03737
30
4.92
0
VERTEX
10
9.96609
20
9.03194
30
4.92
0
VERTEX
10
9.96066
20
9.03194
30
4.92
0
VERTEX
10
9.94979
20
9.02379
30
4.92
0
VERTEX
10
9.94436
20
9.01293
30
4.92
0
VERTEX
10
9.92535
20
8.99392
30
4.92
0
VERTEX
10
9.91992
20
8.98306
30
4.92
0
VERTEX
10
9.91992
20
8.97762
30
4.92
0
VERTEX
10
9.90634
20
8.95862
30
4.92
0
VERTEX
10
9.8982
20
8.93689
30
4.92
0
VERTEX
10
9.89277
20
8.93146
30
4.92
0
VERTEX
10
9.88462
20
8.90974
30
4.92
0
VERTEX
10
9.86018
20
8.86629
30
4.92
0
VERTEX
10
9.8466
20
8.84728
30
4.92
0
VERTEX
10
9.84389
20
8.80383
30
4.92
0
VERTEX
10
9.84389
20
8.79297
30
4.92
0
SEQEND
0
POLYLINE
62
224
66
1
70
1
3
mitochondrion
0
VERTEX
10
9.15181
20
8.90292
30
4.92
0
VERTEX
10
9.15876
20
8.88068
30
4.92
0
VERTEX
10
9.16154
20
8.8765
30
4.92
0
VERTEX
10
9.16154
20
8.87372
30
4.92
0
VERTEX
10
9.16989
20
8.8626
30
4.92
0
VERTEX
10
9.17823
20
8.85426
30
4.92
0
VERTEX
10
9.19908
20
8.84731
30
4.92
0
VERTEX
10
9.22133
20
8.84592
30
4.92
0
VERTEX
10
9.22411
20
8.84592
30
4.92
0
VERTEX
10
9.22689
20
8.84313
30
4.92
0
VERTEX
10
9.24914
20
8.84174
30
4.92
0
VERTEX
10
9.26026
20
8.84313
30
4.92
0
VERTEX
10
9.27
20
8.84731
30
4.92
0
VERTEX
10
9.27834
20
8.85704
30
4.92
0
VERTEX
10
9.28112
20
8.85982
30
4.92
0
VERTEX
10
9.2839
20
8.85982
30
4.92
0
VERTEX
10
9.28807
20
8.86399
30
4.92
0
VERTEX
10
9.2992
20
8.86677
30
4.92
0
VERTEX
10
9.31032
20
8.8765
30
4.92
0
VERTEX
10
9.31866
20
8.88624
30
4.92
0
VERTEX
10
9.32422
20
8.89041
30
4.92
0
VERTEX
10
9.33118
20
8.90153
30
4.92
0
VERTEX
10
9.33674
20
8.90709
30
4.92
0
VERTEX
10
9.33952
20
8.91266
30
4.92
0
VERTEX
10
9.33952
20
8.91544
30
4.92
0
VERTEX
10
9.34369
20
8.921
30
4.92
0
VERTEX
10
9.34647
20
8.93212
30
4.92
0
VERTEX
10
9.34925
20
8.9349
30
4.92
0
VERTEX
10
9.35064
20
8.94046
30
4.92
0
VERTEX
10
9.35481
20
8.94603
30
4.92
0
VERTEX
10
9.35342
20
8.96827
30
4.92
0
VERTEX
10
9.34508
20
8.97801
30
4.92
0
VERTEX
10
9.33813
20
8.98496
30
4.92
0
VERTEX
10
9.33535
20
8.98496
30
4.92
0
VERTEX
10
9.327
20
8.9933
30
4.92
0
VERTEX
10
9.31588
20
9.00025
30
4.92
0
VERTEX
10
9.31171
20
9.00442
30
4.92
0
VERTEX
10
9.30893
20
9.00442
30
4.92
0
VERTEX
10
9.2992
20
9.01138
30
4.92
0
VERTEX
10
9.27695
20
9.01277
30
4.92
0
VERTEX
10
9.2547
20
9.01138
30
4.92
0
VERTEX
10
9.25192
20
9.01138
30
4.92
0
VERTEX
10
9.24914
20
9.0086
30
4.92
0
VERTEX
10
9.22689
20
9.00581
30
4.92
0
VERTEX
10
9.20604
20
8.9933
30
4.92
0
VERTEX
10
9.19491
20
8.98635
30
4.92
0
VERTEX
10
9.18379
20
8.98218
30
4.92
0
VERTEX
10
9.17823
20
8.97801
30
4.92
0
VERTEX
10
9.17545
20
8.97523
30
4.92
0
VERTEX
10
9.17267
20
8.97523
30
4.92
0
VERTEX
10
9.16571
20
8.9641
30
4.92
0
VERTEX
10
9.15737
20
8.94185
30
4.92
0
VERTEX
10
9.1532
20
8.93073
30
4.92
0
VERTEX
10
9.15181
20
8.90848
30
4.92
0
VERTEX
10
9.15181
20
8.90431
30
4.92
0
SEQEND
0
POLYLINE
62
236
66
1
70
1
3
postsynaptic_density
0
VERTEX
10
9.94514
20
9.05682
30
4.92
0
VERTEX
10
9.94701
20
9.04935
30
4.92
0
VERTEX
10
9.94701
20
9.04562
30
4.92
0
VERTEX
10
9.95074
20
9.04189
30
4.92
0
VERTEX
10
9.95261
20
9.03442
30
4.92
0
VERTEX
10
9.95261
20
9.03069
30
4.92
0
VERTEX
10
9.95634
20
9.02696
30
4.92
0
VERTEX
10
9.96007
20
9.01203
30
4.92
0
VERTEX
10
9.96754
20
9.00456
30
4.92
0
VERTEX
10
9.97127
20
9.00456
30
4.92
0
VERTEX
10
9.97127
20
9.00083
30
4.92
0
VERTEX
10
9.9862
20
8.9915
30
4.92
0
VERTEX
10
10.0161
20
8.98403
30
4.92
0
VERTEX
10
10.0459
20
8.98217
30
4.92
0
VERTEX
10
10.0608
20
8.98217
30
4.92
0
VERTEX
10
10.0888
20
8.98963
30
4.92
0
VERTEX
10
10.0963
20
8.9915
30
4.92
0
VERTEX
10
10.1
20
8.9915
30
4.92
0
VERTEX
10
10.1038
20
8.99523
30
4.92
0
VERTEX
10
10.1187
20
8.99896
30
4.92
0
VERTEX
10
10.1262
20
9.00456
30
4.92
0
VERTEX
10
10.1336
20
9.00643
30
4.92
0
VERTEX
10
10.1392
20
9.01389
30
4.92
0
VERTEX
10
10.1467
20
9.01763
30
4.92
0
VERTEX
10
10.1504
20
9.03256
30
4.92
0
VERTEX
10
10.1504
20
9.06241
30
4.92
0
VERTEX
10
10.1467
20
9.06988
30
4.92
0
VERTEX
10
10.1467
20
9.08481
30
4.92
0
VERTEX
10
10.143
20
9.09974
30
4.92
0
VERTEX
10
10.1299
20
9.1128
30
4.92
0
VERTEX
10
10.0105
20
9.11654
30
4.92
0
VERTEX
10
9.9806
20
9.11467
30
4.92
0
VERTEX
10
9.96567
20
9.10907
30
4.92
0
VERTEX
10
9.95821
20
9.10534
30
4.92
0
VERTEX
10
9.95261
20
9.09787
30
4.92
0
VERTEX
10
9.94887
20
9.08294
30
4.92
0
VERTEX
10
9.94514
20
9.07921
30
4.92
0
VERTEX
10
9.94514
20
9.06428
30
4.92
0
VERTEX
10
9.94514
20
9.05868
30
4.92
0
SEQEND
0
POLYLINE
62
227
66
1
70
1
3
endoplasmic_reticulum
0
VERTEX
10
8.99622
20
8.76617
30
4.92
0
VERTEX
10
8.99774
20
8.76008
30
4.92
0
VERTEX
10
9.00383
20
8.75703
30
4.92
0
VERTEX
10
9.00993
20
8.75094
30
4.92
0
VERTEX
10
9.01602
20
8.74941
30
4.92
0
VERTEX
10
9.01907
20
8.74636
30
4.92
0
VERTEX
10
9.03126
20
8.74636
30
4.92
0
VERTEX
10
9.03735
20
8.74789
30
4.92
0
VERTEX
10
9.04345
20
8.75246
30
4.92
0
VERTEX
10
9.04954
20
8.75398
30
4.92
0
VERTEX
10
9.05259
20
8.76008
30
4.92
0
VERTEX
10
9.05563
20
8.7616
30
4.92
0
VERTEX
10
9.05411
20
8.78598
30
4.92
0
VERTEX
10
9.05106
20
8.7875
30
4.92
0
VERTEX
10
9.05106
20
8.79055
30
4.92
0
VERTEX
10
9.03888
20
8.80273
30
4.92
0
VERTEX
10
9.03126
20
8.8134
30
4.92
0
VERTEX
10
9.01907
20
8.81187
30
4.92
0
VERTEX
10
9.01298
20
8.81035
30
4.92
0
VERTEX
10
8.99774
20
8.7875
30
4.92
0
VERTEX
10
8.99622
20
8.77531
30
4.92
0
VERTEX
10
8.99622
20
8.76922
30
4.92
0
VERTEX
10
8.99622
20
8.76769
30
4.92
0
SEQEND
0
POLYLINE
62
227
66
1
70
1
3
endoplasmic_reticulum
0
VERTEX
10
10.2683
20
8.68085
30
4.92
0
VERTEX
10
10.2744
20
8.65648
30
4.92
0
VERTEX
10
10.2775
20
8.65496
30
4.92
0
VERTEX
10
10.279
20
8.64886
30
4.92
0
VERTEX
10
10.2912
20
8.64277
30
4.92
0
VERTEX
10
10.3034
20
8.64124
30
4.92
0
VERTEX
10
10.3095
20
8.64429
30
4.92
0
VERTEX
10
10.3125
20
8.64429
30
4.92
0
VERTEX
10
10.3156
20
8.64734
30
4.92
0
VERTEX
10
10.3186
20
8.64734
30
4.92
0
VERTEX
10
10.3247
20
8.65343
30
4.92
0
VERTEX
10
10.3262
20
8.65953
30
4.92
0
VERTEX
10
10.3247
20
8.67171
30
4.92
0
VERTEX
10
10.3232
20
8.67781
30
4.92
0
VERTEX
10
10.3125
20
8.68543
30
4.92
0
VERTEX
10
10.3064
20
8.68847
30
4.92
0
VERTEX
10
10.3049
20
8.69152
30
4.92
0
VERTEX
10
10.3018
20
8.69152
30
4.92
0
VERTEX
10
10.2988
20
8.69457
30
4.92
0
VERTEX
10
10.2866
20
8.69304
30
4.92
0
VERTEX
10
10.2805
20
8.69304
30
4.92
0
VERTEX
10
10.2683
20
8.68695
30
4.92
0
VERTEX
10
10.2683
20
8.68238
30
4.92
0
SEQEND
0
POLYLINE
62
227
66
1
70
1
3
endoplasmic_reticulum
0
VERTEX
10
9.11587
20
8.79951
30
4.92
0
VERTEX
10
9.11923
20
8.79054
30
4.92
0
VERTEX
10
9.1226
20
8.78605
30
4.92
0
VERTEX
10
9.12372
20
8.78156
30
4.92
0
VERTEX
10
9.13157
20
8.77483
30
4.92
0
VERTEX
10
9.13494
20
8.77035
30
4.92
0
VERTEX
10
9.14391
20
8.76474
30
4.92
0
VERTEX
10
9.15289
20
8.76474
30
4.92
0
VERTEX
10
9.15737
20
8.76362
30
4.92
0
VERTEX
10
9.15962
20
8.76137
30
4.92
0
VERTEX
10
9.16859
20
8.76137
30
4.92
0
VERTEX
10
9.18654
20
8.76698
30
4.92
0
VERTEX
10
9.19103
20
8.77035
30
4.92
0
VERTEX
10
9.19215
20
8.77483
30
4.92
0
VERTEX
10
9.19439
20
8.77596
30
4.92
0
VERTEX
10
9.19551
20
8.78493
30
4.92
0
VERTEX
10
9.19439
20
8.7939
30
4.92
0
VERTEX
10
9.19103
20
8.80176
30
4.92
0
VERTEX
10
9.1843
20
8.80961
30
4.92
0
VERTEX
10
9.17532
20
8.81746
30
4.92
0
VERTEX
10
9.17083
20
8.81858
30
4.92
0
VERTEX
10
9.16747
20
8.82195
30
4.92
0
VERTEX
10
9.13157
20
8.82307
30
4.92
0
VERTEX
10
9.12372
20
8.81746
30
4.92
0
VERTEX
10
9.11699
20
8.80961
30
4.92
0
VERTEX
10
9.11587
20
8.80064
30
4.92
0
SEQEND
0
POLYLINE
62
227
66
1
70
1
3
endoplasmic_reticulum
0
VERTEX
10
9.18542
20
8.75689
30
4.92
0
VERTEX
10
9.19103
20
8.74903
30
4.92
0
VERTEX
10
9.2
20
8.74679
30
4.92
0
VERTEX
10
9.20898
20
8.74679
30
4.92
0
VERTEX
10
9.21346
20
8.74679
30
4.92
0
VERTEX
10
9.21571
20
8.74903
30
4.92
0
VERTEX
10
9.23366
20
8.75689
30
4.92
0
VERTEX
10
9.23814
20
8.75689
30
4.92
0
VERTEX
10
9.24263
20
8.76025
30
4.92
0
VERTEX
10
9.24712
20
8.76137
30
4.92
0
VERTEX
10
9.24824
20
8.76362
30
4.92
0
VERTEX
10
9.26619
20
8.76474
30
4.92
0
VERTEX
10
9.27516
20
8.76586
30
4.92
0
VERTEX
10
9.27965
20
8.76586
30
4.92
0
VERTEX
10
9.2976
20
8.77259
30
4.92
0
VERTEX
10
9.30209
20
8.77483
30
4.92
0
VERTEX
10
9.3077
20
8.78269
30
4.92
0
VERTEX
10
9.3077
20
8.79166
30
4.92
0
VERTEX
10
9.30545
20
8.80064
30
4.92
0
VERTEX
10
9.30545
20
8.80512
30
4.92
0
VERTEX
10
9.2976
20
8.81298
30
4.92
0
VERTEX
10
9.29423
20
8.81634
30
4.92
0
VERTEX
10
9.27629
20
8.81746
30
4.92
0
VERTEX
10
9.2718
20
8.81746
30
4.92
0
VERTEX
10
9.25385
20
8.80737
30
4.92
0
VERTEX
10
9.24487
20
8.80512
30
4.92
0
VERTEX
10
9.2359
20
8.79951
30
4.92
0
VERTEX
10
9.23029
20
8.79054
30
4.92
0
VERTEX
10
9.23029
20
8.7883
30
4.92
0
VERTEX
10
9.22693
20
8.78381
30
4.92
0
VERTEX
10
9.22693
20
8.77932
30
4.92
0
VERTEX
10
9.22356
20
8.77483
30
4.92
0
VERTEX
10
9.21459
20
8.77147
30
4.92
0
VERTEX
10
9.19664
20
8.77147
30
4.92
0
VERTEX
10
9.19215
20
8.77035
30
4.92
0
VERTEX
10
9.18542
20
8.76362
30
4.92
0
VERTEX
10
9.18542
20
8.75913
30
4.92
0
VERTEX
10
9.18542
20
8.75801
30
4.92
0
SEQEND
0
POLYLINE
62
227
66
1
70
1
3
endoplasmic_reticulum
0
VERTEX
10
9.0345
20
8.91705
30
4.92
0
VERTEX
10
9.03718
20
8.91436
30
4.92
0
VERTEX
10
9.03718
20
8.90719
30
4.92
0
VERTEX
10
9.04077
20
8.9045
30
4.92
0
VERTEX
10
9.05512
20
8.9045
30
4.92
0
VERTEX
10
9.0587
20
8.9027
30
4.92
0
VERTEX
10
9.06049
20
8.90091
30
4.92
0
VERTEX
10
9.06408
20
8.90091
30
4.92
0
VERTEX
10
9.06767
20
8.89912
30
4.92
0
VERTEX
10
9.09636
20
8.90001
30
4.92
0
VERTEX
10
9.10353
20
8.90181
30
4.92
0
VERTEX
10
9.10622
20
8.9036
30
4.92
0
VERTEX
10
9.10801
20
8.90719
30
4.92
0
VERTEX
10
9.10981
20
8.90898
30
4.92
0
VERTEX
10
9.10981
20
8.91077
30
4.92
0
VERTEX
10
9.11339
20
8.91346
30
4.92
0
VERTEX
10
9.11787
20
8.92781
30
4.92
0
VERTEX
10
9.11877
20
8.94215
30
4.92
0
VERTEX
10
9.11877
20
8.94932
30
4.92
0
VERTEX
10
9.11608
20
8.95291
30
4.92
0
VERTEX
10
9.11518
20
8.96008
30
4.92
0
VERTEX
10
9.11518
20
8.96187
30
4.92
0
VERTEX
10
9.11339
20
8.96367
30
4.92
0
VERTEX
10
9.11249
20
8.97084
30
4.92
0
VERTEX
10
9.1116
20
8.97443
30
4.92
0
VERTEX
10
9.10981
20
8.97622
30
4.92
0
VERTEX
10
9.10712
20
8.99056
30
4.92
0
VERTEX
10
9.10174
20
9.00491
30
4.92
0
VERTEX
10
9.09905
20
9.0085
30
4.92
0
VERTEX
10
9.0847
20
9.01029
30
4.92
0
VERTEX
10
9.05601
20
9.00939
30
4.92
0
VERTEX
10
9.05243
20
9.01029
30
4.92
0
VERTEX
10
9.04525
20
9.0085
30
4.92
0
VERTEX
10
9.04167
20
9.0076
30
4.92
0
VERTEX
10
9.03987
20
9.00581
30
4.92
0
VERTEX
10
9.03718
20
8.97712
30
4.92
0
VERTEX
10
9.03629
20
8.94843
30
4.92
0
VERTEX
10
9.0345
20
8.94125
30
4.92
0
VERTEX
10
9.0345
20
8.92691
30
4.92
0
VERTEX
10
9.0345
20
8.91974
30
4.92
0
VERTEX
10
9.0345
20
8.91794
30
4.92
0
SEQEND
0
POLYLINE
62
227
66
1
70
1
3
endoplasmic_reticulum
0
VERTEX
10
9.09456
20
9.01208
30
4.92
0
VERTEX
10
9.09636
20
9.01029
30
4.92
0
VERTEX
10
9.09725
20
9.0067
30
4.92
0
VERTEX
10
9.10084
20
9.00312
30
4.92
0
VERTEX
10
9.10263
20
8.99953
30
4.92
0
VERTEX
10
9.10981
20
8.99415
30
4.92
0
VERTEX
10
9.11429
20
8.98967
30
4.92
0
VERTEX
10
9.11698
20
8.98608
30
4.92
0
VERTEX
10
9.11877
20
8.98429
30
4.92
0
VERTEX
10
9.12594
20
8.98519
30
4.92
0
VERTEX
10
9.12953
20
8.98608
30
4.92
0
VERTEX
10
9.14298
20
8.99594
30
4.92
0
VERTEX
10
9.14925
20
9.00132
30
4.92
0
VERTEX
10
9.15284
20
9.00401
30
4.92
0
VERTEX
10
9.15463
20
9.00581
30
4.92
0
VERTEX
10
9.15643
20
9.00581
30
4.92
0
VERTEX
10
9.16001
20
9.0085
30
4.92
0
VERTEX
10
9.1636
20
9.00939
30
4.92
0
VERTEX
10
9.16629
20
9.01298
30
4.92
0
VERTEX
10
9.16808
20
9.01298
30
4.92
0
VERTEX
10
9.17525
20
9.01746
30
4.92
0
VERTEX
10
9.18243
20
9.02015
30
4.92
0
VERTEX
10
9.18601
20
9.02015
30
4.92
0
VERTEX
10
9.20036
20
9.02643
30
4.92
0
VERTEX
10
9.20215
20
9.02732
30
4.92
0
VERTEX
10
9.20125
20
9.0345
30
4.92
0
VERTEX
10
9.20125
20
9.03808
30
4.92
0
VERTEX
10
9.19946
20
9.04167
30
4.92
0
VERTEX
10
9.19946
20
9.04346
30
4.92
0
VERTEX
10
9.19408
20
9.05063
30
4.92
0
VERTEX
10
9.18691
20
9.05601
30
4.92
0
VERTEX
10
9.18153
20
9.06318
30
4.92
0
VERTEX
10
9.17525
20
9.06856
30
4.92
0
VERTEX
10
9.16808
20
9.07125
30
4.92
0
VERTEX
10
9.16091
20
9.07125
30
4.92
0
VERTEX
10
9.15374
20
9.06856
30
4.92
0
VERTEX
10
9.15015
20
9.06587
30
4.92
0
VERTEX
10
9.14656
20
9.06498
30
4.92
0
VERTEX
10
9.14298
20
9.06229
30
4.92
0
VERTEX
10
9.13939
20
9.06139
30
4.92
0
VERTEX
10
9.12505
20
9.05063
30
4.92
0
VERTEX
10
9.12325
20
9.04705
30
4.92
0
VERTEX
10
9.1116
20
9.0345
30
4.92
0
VERTEX
10
9.09815
20
9.02284
30
4.92
0
VERTEX
10
9.09546
20
9.01567
30
4.92
0
VERTEX
10
9.09456
20
9.01298
30
4.92
0
SEQEND
0
POLYLINE
62
227
66
1
70
1
3
endoplasmic_reticulum
0
VERTEX
10
8.94753
20
8.80946
30
4.92
0
VERTEX
10
8.94932
20
8.79512
30
4.92
0
VERTEX
10
8.94932
20
8.79153
30
4.92
0
VERTEX
10
8.95112
20
8.78974
30
4.92
0
VERTEX
10
8.95201
20
8.78615
30
4.92
0
VERTEX
10
8.95829
20
8.77898
30
4.92
0
VERTEX
10
8.96456
20
8.7736
30
4.92
0
VERTEX
10
8.96815
20
8.7727
30
4.92
0
VERTEX
10
8.9825
20
8.7745
30
4.92
0
VERTEX
10
8.9825
20
8.78884
30
4.92
0
VERTEX
10
8.9825
20
8.79601
30
4.92
0
VERTEX
10
8.9825
20
8.7996
30
4.92
0
VERTEX
10
8.98519
20
8.80588
30
4.92
0
VERTEX
10
8.98519
20
8.82022
30
4.92
0
VERTEX
10
8.98519
20
8.82739
30
4.92
0
VERTEX
10
8.98519
20
8.83098
30
4.92
0
VERTEX
10
8.98519
20
8.83277
30
4.92
0
VERTEX
10
8.98698
20
8.83457
30
4.92
0
VERTEX
10
8.98698
20
8.83636
30
4.92
0
VERTEX
10
9.00043
20
8.84712
30
4.92
0
VERTEX
10
9.00491
20
8.85429
30
4.92
0
VERTEX
10
9.0076
20
8.85698
30
4.92
0
VERTEX
10
9.0076
20
8.86057
30
4.92
0
VERTEX
10
9.00312
20
8.86684
30
4.92
0
VERTEX
10
8.99056
20
8.8767
30
4.92
0
VERTEX
10
8.98877
20
8.8785
30
4.92
0
VERTEX
10
8.9816
20
8.88119
30
4.92
0
VERTEX
10
8.97443
20
8.88119
30
4.92
0
VERTEX
10
8.97174
20
8.88029
30
4.92
0
VERTEX
10
8.97353
20
8.8785
30
4.92
0
VERTEX
10
8.96994
20
8.8785
30
4.92
0
VERTEX
10
8.96367
20
8.87401
30
4.92
0
VERTEX
10
8.9556
20
8.86057
30
4.92
0
VERTEX
10
8.95381
20
8.85698
30
4.92
0
VERTEX
10
8.95201
20
8.85519
30
4.92
0
VERTEX
10
8.94753
20
8.8265
30
4.92
0
VERTEX
10
8.94753
20
8.81215
30
4.92
0
VERTEX
10
8.94753
20
8.81036
30
4.92
0
SEQEND
0
POLYLINE
62
31
66
1
70
1
3
contour
0
VERTEX
10
8.80216
20
8.74192
30
4.92
0
VERTEX
10
8.80718
20
8.7369
30
4.92
0
VERTEX
10
8.80886
20
8.7302
30
4.92
0
VERTEX
10
8.80886
20
8.72686
30
4.92
0
VERTEX
10
8.81388
20
8.72016
30
4.92
0
VERTEX
10
8.82559
20
8.7118
30
4.92
0
VERTEX
10
8.85236
20
8.70008
30
4.92
0
VERTEX
10
8.85571
20
8.70008
30
4.92
0
VERTEX
10
8.8624
20
8.69506
30
4.92
0
VERTEX
10
8.8691
20
8.69339
30
4.92
0
VERTEX
10
8.89085
20
8.67498
30
4.92
0
VERTEX
10
8.89587
20
8.66996
30
4.92
0
VERTEX
10
8.90424
20
8.66494
30
4.92
0
VERTEX
10
8.91763
20
8.65992
30
4.92
0
VERTEX
10
8.92097
20
8.65992
30
4.92
0
VERTEX
10
8.93269
20
8.65155
30
4.92
0
VERTEX
10
8.95946
20
8.64988
30
4.92
0
VERTEX
10
8.98624
20
8.65155
30
4.92
0
VERTEX
10
8.99293
20
8.65155
30
4.92
0
VERTEX
10
8.99962
20
8.6549
30
4.92
0
VERTEX
10
9.0264
20
8.65825
30
4.92
0
VERTEX
10
9.03309
20
8.66327
30
4.92
0
VERTEX
10
9.04648
20
8.66829
30
4.92
0
VERTEX
10
9.04648
20
8.67164
30
4.92
0
VERTEX
10
9.05317
20
8.67666
30
4.92
0
VERTEX
10
9.05987
20
8.67833
30
4.92
0
VERTEX
10
9.07325
20
8.6867
30
4.92
0
VERTEX
10
9.0766
20
8.68837
30
4.92
0
VERTEX
10
9.0766
20
8.69172
30
4.92
0
VERTEX
10
9.08999
20
8.69339
30
4.92
0
VERTEX
10
9.11676
20
8.70176
30
4.92
0
VERTEX
10
9.17031
20
8.70343
30
4.92
0
VERTEX
10
9.1837
20
8.7051
30
4.92
0
VERTEX
10
9.19039
20
8.7051
30
4.92
0
VERTEX
10
9.20378
20
8.71012
30
4.92
0
VERTEX
10
9.23056
20
8.71347
30
4.92
0
VERTEX
10
9.24394
20
8.71514
30
4.92
0
VERTEX
10
9.25064
20
8.71849
30
4.92
0
VERTEX
10
9.26402
20
8.72016
30
4.92
0
VERTEX
10
9.26904
20
8.72518
30
4.92
0
VERTEX
10
9.29582
20
8.72686
30
4.92
0
VERTEX
10
9.30921
20
8.72686
30
4.92
0
VERTEX
10
9.3159
20
8.72686
30
4.92
0
VERTEX
10
9.32259
20
8.7302
30
4.92
0
VERTEX
10
9.32929
20
8.7302
30
4.92
0
VERTEX
10
9.33598
20
8.73355
30
4.92
0
VERTEX
10
9.33933
20
8.7369
30
4.92
0
VERTEX
10
9.33765
20
8.74861
30
4.92
0
VERTEX
10
9.34602
20
8.762
30
4.92
0
VERTEX
10
9.35104
20
8.76869
30
4.92
0
VERTEX
10
9.35439
20
8.77037
30
4.92
0
VERTEX
10
9.35941
20
8.78375
30
4.92
0
VERTEX
10
9.37782
20
8.80886
30
4.92
0
VERTEX
10
9.38618
20
8.81722
30
4.92
0
VERTEX
10
9.38618
20
8.82057
30
4.92
0
VERTEX
10
9.39455
20
8.83396
30
4.92
0
VERTEX
10
9.39957
20
8.83898
30
4.92
0
VERTEX
10
9.40459
20
8.85236
30
4.92
0
VERTEX
10
9.41296
20
8.86408
30
4.92
0
VERTEX
10
9.4163
20
8.87747
30
4.92
0
VERTEX
10
9.4163
20
8.88081
30
4.92
0
VERTEX
10
9.41965
20
8.88249
30
4.92
0
VERTEX
10
9.423
20
8.89587
30
4.92
0
VERTEX
10
9.43137
20
8.90591
30
4.92
0
VERTEX
10
9.43471
20
8.90926
30
4.92
0
VERTEX
10
9.43471
20
8.91261
30
4.92
0
VERTEX
10
9.44475
20
8.92599
30
4.92
0
VERTEX
10
9.44977
20
8.93269
30
4.92
0
VERTEX
10
9.45647
20
8.93603
30
4.92
0
VERTEX
10
9.45981
20
8.93603
30
4.92
0
VERTEX
10
9.4732
20
8.9444
30
4.92
0
VERTEX
10
9.47989
20
8.94942
30
4.92
0
VERTEX
10
9.48157
20
8.95277
30
4.92
0
VERTEX
10
9.48826
20
8.95444
30
4.92
0
VERTEX
10
9.49161
20
8.95779
30
4.92
0
VERTEX
10
9.49161
20
8.96114
30
4.92
0
VERTEX
10
9.49496
20
8.96281
30
4.92
0
VERTEX
10
9.49663
20
8.98958
30
4.92
0
VERTEX
10
9.49663
20
9.00297
30
4.92
0
VERTEX
10
9.48826
20
9.01469
30
4.92
0
VERTEX
10
9.48324
20
9.01971
30
4.92
0
VERTEX
10
9.48157
20
9.0264
30
4.92
0
VERTEX
10
9.47153
20
9.03811
30
4.92
0
VERTEX
10
9.46651
20
9.04313
30
4.92
0
VERTEX
10
9.46483
20
9.04983
30
4.92
0
VERTEX
10
9.44141
20
9.07493
30
4.92
0
VERTEX
10
9.42802
20
9.08162
30
4.92
0
VERTEX
10
9.42133
20
9.0833
30
4.92
0
VERTEX
10
9.41798
20
9.08664
30
4.92
0
VERTEX
10
9.39288
20
9.09668
30
4.92
0
VERTEX
10
9.37949
20
9.1017
30
4.92
0
VERTEX
10
9.32594
20
9.1017
30
4.92
0
VERTEX
10
9.31255
20
9.1017
30
4.92
0
VERTEX
10
9.30586
20
9.09836
30
4.92
0
VERTEX
10
9.27908
20
9.09836
30
4.92
0
VERTEX
10
9.2657
20
9.09501
30
4.92
0
VERTEX
10
9.25231
20
9.09501
30
4.92
0
VERTEX
10
9.23892
20
9.09166
30
4.92
0
VERTEX
10
9.23558
20
9.09166
30
4.92
0
VERTEX
10
9.23223
20
9.08497
30
4.92
0
VERTEX
10
9.17868
20
9.0833
30
4.92
0
VERTEX
10
9.12513
20
9.08664
30
4.92
0
VERTEX
10
9.09836
20
9.08497
30
4.92
0
VERTEX
10
9.09166
20
9.08162
30
4.92
0
VERTEX
10
9.07828
20
9.07995
30
4.92
0
VERTEX
10
9.07158
20
9.07828
30
4.92
0
VERTEX
10
9.06991
20
9.07493
30
4.92
0
VERTEX
10
9.05652
20
9.06991
30
4.92
0
VERTEX
10
9.02975
20
9.0515
30
4.92
0
VERTEX
10
9.02807
20
9.04815
30
4.92
0
VERTEX
10
9.01636
20
9.04313
30
4.92
0
VERTEX
10
9.00967
20
9.04146
30
4.92
0
VERTEX
10
9.00297
20
9.03477
30
4.92
0
VERTEX
10
8.99795
20
9.03142
30
4.92
0
VERTEX
10
8.98958
20
9.01971
30
4.92
0
VERTEX
10
8.98791
20
9.01301
30
4.92
0
VERTEX
10
8.98289
20
9.00632
30
4.92
0
VERTEX
10
8.97954
20
8.99293
30
4.92
0
VERTEX
10
8.97452
20
8.98624
30
4.92
0
VERTEX
10
8.97118
20
8.97285
30
4.92
0
VERTEX
10
8.97118
20
8.94608
30
4.92
0
VERTEX
10
8.97118
20
8.93269
30
4.92
0
VERTEX
10
8.97118
20
8.92599
30
4.92
0
VERTEX
10
8.96616
20
8.9193
30
4.92
0
VERTEX
10
8.96448
20
8.91261
30
4.92
0
VERTEX
10
8.96281
20
8.90926
30
4.92
0
VERTEX
10
8.95946
20
8.90926
30
4.92
0
VERTEX
10
8.95444
20
8.90424
30
4.92
0
VERTEX
10
8.95277
20
8.89755
30
4.92
0
VERTEX
10
8.94273
20
8.88583
30
4.92
0
VERTEX
10
8.93603
20
8.88249
30
4.92
0
VERTEX
10
8.93269
20
8.87914
30
4.92
0
VERTEX
10
8.9193
20
8.87747
30
4.92
0
VERTEX
10
8.91763
20
8.87412
30
4.92
0
VERTEX
10
8.91093
20
8.87245
30
4.92
0
VERTEX
10
8.89922
20
8.86408
30
4.92
0
VERTEX
10
8.89253
20
8.85906
30
4.92
0
VERTEX
10
8.88583
20
8.85738
30
4.92
0
VERTEX
10
8.88081
20
8.85236
30
4.92
0
VERTEX
10
8.87412
20
8.85236
30
4.92
0
VERTEX
10
8.84902
20
8.8373
30
4.92
0
VERTEX
10
8.83563
20
8.8373
30
4.92
0
VERTEX
10
8.81053
20
8.82726
30
4.92
0
VERTEX
10
8.80551
20
8.82224
30
4.92
0
VERTEX
10
8.80216
20
8.82057
30
4.92
0
VERTEX
10
8.80384
20
8.79379
30
4.92
0
VERTEX
10
8.80384
20
8.79045
30
4.92
0
VERTEX
10
8.80718
20
8.7871
30
4.92
0
VERTEX
10
8.80718
20
8.77371
30
4.92
0
VERTEX
10
8.80216
20
8.76033
30
4.92
0
VERTEX
10
8.80216
20
8.74694
30
4.92
0
VERTEX
10
8.80216
20
8.74359
30
4.92
0
SEQEND
0
ENDSEC
0
EOF
