0
SECTION
2
ENTITIES
0
POLYLINE
62
31
66
1
70
1
3
contour
0
VERTEX
10
7.22257
20
9.13544
30
6.36
0
VERTEX
10
7.2279
20
9.11413
30
6.36
0
VERTEX
10
7.24655
20
9.09815
30
6.36
0
VERTEX
10
7.2572
20
9.09282
30
6.36
0
VERTEX
10
7.25987
20
9.08749
30
6.36
0
VERTEX
10
7.30249
20
9.0795
30
6.36
0
VERTEX
10
7.38775
20
9.08749
30
6.36
0
VERTEX
10
7.43037
20
9.09548
30
6.36
0
VERTEX
10
7.51563
20
9.10347
30
6.36
0
VERTEX
10
7.55825
20
9.11147
30
6.36
0
VERTEX
10
7.64351
20
9.11147
30
6.36
0
VERTEX
10
7.68613
20
9.1088
30
6.36
0
VERTEX
10
7.69146
20
9.1088
30
6.36
0
VERTEX
10
7.69679
20
9.10347
30
6.36
0
VERTEX
10
7.7181
20
9.10081
30
6.36
0
VERTEX
10
7.72876
20
9.09548
30
6.36
0
VERTEX
10
7.77139
20
9.09548
30
6.36
0
VERTEX
10
7.7927
20
9.09548
30
6.36
0
VERTEX
10
7.81402
20
9.10347
30
6.36
0
VERTEX
10
7.82467
20
9.10614
30
6.36
0
VERTEX
10
7.84332
20
9.12212
30
6.36
0
VERTEX
10
7.86463
20
9.13012
30
6.36
0
VERTEX
10
7.8673
20
9.13544
30
6.36
0
VERTEX
10
7.87796
20
9.13811
30
6.36
0
VERTEX
10
7.88861
20
9.1461
30
6.36
0
VERTEX
10
7.89394
20
9.1461
30
6.36
0
VERTEX
10
7.91259
20
9.16209
30
6.36
0
VERTEX
10
7.92058
20
9.17008
30
6.36
0
VERTEX
10
7.92591
20
9.17274
30
6.36
0
VERTEX
10
7.92591
20
9.17807
30
6.36
0
VERTEX
10
7.94456
20
9.19139
30
6.36
0
VERTEX
10
7.95522
20
9.21004
30
6.36
0
VERTEX
10
7.95788
20
9.2207
30
6.36
0
VERTEX
10
7.96321
20
9.22336
30
6.36
0
VERTEX
10
7.95788
20
9.23402
30
6.36
0
VERTEX
10
7.93657
20
9.25
30
6.36
0
VERTEX
10
7.93124
20
9.25
30
6.36
0
VERTEX
10
7.92058
20
9.258
30
6.36
0
VERTEX
10
7.87796
20
9.26066
30
6.36
0
VERTEX
10
7.83533
20
9.258
30
6.36
0
VERTEX
10
7.7927
20
9.25
30
6.36
0
VERTEX
10
7.79004
20
9.24468
30
6.36
0
VERTEX
10
7.77938
20
9.24468
30
6.36
0
VERTEX
10
7.76872
20
9.23668
30
6.36
0
VERTEX
10
7.74741
20
9.23668
30
6.36
0
VERTEX
10
7.7261
20
9.22603
30
6.36
0
VERTEX
10
7.71544
20
9.2207
30
6.36
0
VERTEX
10
7.69413
20
9.22336
30
6.36
0
VERTEX
10
7.67281
20
9.23135
30
6.36
0
VERTEX
10
7.66749
20
9.23135
30
6.36
0
VERTEX
10
7.66216
20
9.23668
30
6.36
0
VERTEX
10
7.6515
20
9.23668
30
6.36
0
VERTEX
10
7.64084
20
9.24201
30
6.36
0
VERTEX
10
7.63019
20
9.24201
30
6.36
0
VERTEX
10
7.62486
20
9.24201
30
6.36
0
VERTEX
10
7.61953
20
9.24734
30
6.36
0
VERTEX
10
7.59822
20
9.25
30
6.36
0
VERTEX
10
7.5769
20
9.26066
30
6.36
0
VERTEX
10
7.56625
20
9.26066
30
6.36
0
VERTEX
10
7.55825
20
9.26599
30
6.36
0
VERTEX
10
7.55559
20
9.27132
30
6.36
0
VERTEX
10
7.54493
20
9.26865
30
6.36
0
VERTEX
10
7.52628
20
9.24734
30
6.36
0
VERTEX
10
7.50497
20
9.23135
30
6.36
0
VERTEX
10
7.49431
20
9.22336
30
6.36
0
VERTEX
10
7.48099
20
9.2207
30
6.36
0
VERTEX
10
7.45968
20
9.20738
30
6.36
0
VERTEX
10
7.43837
20
9.20205
30
6.36
0
VERTEX
10
7.35311
20
9.19938
30
6.36
0
VERTEX
10
7.31049
20
9.20205
30
6.36
0
VERTEX
10
7.28917
20
9.20205
30
6.36
0
VERTEX
10
7.28384
20
9.20205
30
6.36
0
VERTEX
10
7.27852
20
9.19672
30
6.36
0
VERTEX
10
7.2572
20
9.19406
30
6.36
0
VERTEX
10
7.23589
20
9.17541
30
6.36
0
VERTEX
10
7.22257
20
9.15676
30
6.36
0
VERTEX
10
7.22257
20
9.13811
30
6.36
0
SEQEND
0
POLYLINE
62
224
66
1
70
1
3
mitochondrion
0
VERTEX
10
9.1101
20
9.50081
30
6.36
0
VERTEX
10
9.11288
20
9.49525
30
6.36
0
VERTEX
10
9.11288
20
9.45075
30
6.36
0
VERTEX
10
9.11705
20
9.43963
30
6.36
0
VERTEX
10
9.11844
20
9.43407
30
6.36
0
VERTEX
10
9.11844
20
9.43129
30
6.36
0
VERTEX
10
9.12678
20
9.42155
30
6.36
0
VERTEX
10
9.13234
20
9.41877
30
6.36
0
VERTEX
10
9.13651
20
9.41321
30
6.36
0
VERTEX
10
9.14208
20
9.41182
30
6.36
0
VERTEX
10
9.15042
20
9.40348
30
6.36
0
VERTEX
10
9.17267
20
9.4007
30
6.36
0
VERTEX
10
9.19491
20
9.40209
30
6.36
0
VERTEX
10
9.21716
20
9.40626
30
6.36
0
VERTEX
10
9.22828
20
9.40904
30
6.36
0
VERTEX
10
9.23941
20
9.40904
30
6.36
0
VERTEX
10
9.24497
20
9.41182
30
6.36
0
VERTEX
10
9.25053
20
9.41043
30
6.36
0
VERTEX
10
9.26165
20
9.4146
30
6.36
0
VERTEX
10
9.27278
20
9.42155
30
6.36
0
VERTEX
10
9.27556
20
9.42155
30
6.36
0
VERTEX
10
9.28529
20
9.43129
30
6.36
0
VERTEX
10
9.29224
20
9.44102
30
6.36
0
VERTEX
10
9.29363
20
9.45214
30
6.36
0
VERTEX
10
9.29363
20
9.45492
30
6.36
0
VERTEX
10
9.29641
20
9.4577
30
6.36
0
VERTEX
10
9.29641
20
9.46049
30
6.36
0
VERTEX
10
9.30059
20
9.46605
30
6.36
0
VERTEX
10
9.30615
20
9.48829
30
6.36
0
VERTEX
10
9.30615
20
9.51054
30
6.36
0
VERTEX
10
9.30615
20
9.5161
30
6.36
0
VERTEX
10
9.30059
20
9.52723
30
6.36
0
VERTEX
10
9.2992
20
9.53835
30
6.36
0
VERTEX
10
9.29224
20
9.54808
30
6.36
0
VERTEX
10
9.28946
20
9.55086
30
6.36
0
VERTEX
10
9.28946
20
9.55364
30
6.36
0
VERTEX
10
9.27556
20
9.57311
30
6.36
0
VERTEX
10
9.27
20
9.57728
30
6.36
0
VERTEX
10
9.26861
20
9.58006
30
6.36
0
VERTEX
10
9.26582
20
9.58006
30
6.36
0
VERTEX
10
9.26165
20
9.58423
30
6.36
0
VERTEX
10
9.25053
20
9.58562
30
6.36
0
VERTEX
10
9.24775
20
9.58562
30
6.36
0
VERTEX
10
9.24636
20
9.5884
30
6.36
0
VERTEX
10
9.22411
20
9.59258
30
6.36
0
VERTEX
10
9.17962
20
9.59397
30
6.36
0
VERTEX
10
9.16849
20
9.58701
30
6.36
0
VERTEX
10
9.16293
20
9.58562
30
6.36
0
VERTEX
10
9.15737
20
9.58145
30
6.36
0
VERTEX
10
9.15181
20
9.58006
30
6.36
0
VERTEX
10
9.14208
20
9.57172
30
6.36
0
VERTEX
10
9.13651
20
9.57033
30
6.36
0
VERTEX
10
9.12539
20
9.5606
30
6.36
0
VERTEX
10
9.11983
20
9.55642
30
6.36
0
VERTEX
10
9.11983
20
9.55364
30
6.36
0
VERTEX
10
9.11566
20
9.54808
30
6.36
0
VERTEX
10
9.1101
20
9.52584
30
6.36
0
VERTEX
10
9.1101
20
9.50359
30
6.36
0
VERTEX
10
9.1101
20
9.5022
30
6.36
0
SEQEND
0
POLYLINE
62
227
66
1
70
1
3
endoplasmic_reticulum
0
VERTEX
10
9.2416
20
9.65401
30
6.36
0
VERTEX
10
9.24429
20
9.63966
30
6.36
0
VERTEX
10
9.25325
20
9.62711
30
6.36
0
VERTEX
10
9.25594
20
9.62532
30
6.36
0
VERTEX
10
9.25684
20
9.62173
30
6.36
0
VERTEX
10
9.27118
20
9.61546
30
6.36
0
VERTEX
10
9.27836
20
9.61008
30
6.36
0
VERTEX
10
9.28194
20
9.60649
30
6.36
0
VERTEX
10
9.28284
20
9.60291
30
6.36
0
VERTEX
10
9.29629
20
9.59394
30
6.36
0
VERTEX
10
9.29808
20
9.59394
30
6.36
0
VERTEX
10
9.29987
20
9.59215
30
6.36
0
VERTEX
10
9.30705
20
9.59035
30
6.36
0
VERTEX
10
9.31422
20
9.59125
30
6.36
0
VERTEX
10
9.31691
20
9.59842
30
6.36
0
VERTEX
10
9.31511
20
9.61277
30
6.36
0
VERTEX
10
9.31332
20
9.61994
30
6.36
0
VERTEX
10
9.31332
20
9.62173
30
6.36
0
VERTEX
10
9.30705
20
9.62711
30
6.36
0
VERTEX
10
9.30525
20
9.62891
30
6.36
0
VERTEX
10
9.30525
20
9.6307
30
6.36
0
VERTEX
10
9.30167
20
9.63428
30
6.36
0
VERTEX
10
9.28822
20
9.64056
30
6.36
0
VERTEX
10
9.27387
20
9.64504
30
6.36
0
VERTEX
10
9.25953
20
9.64594
30
6.36
0
VERTEX
10
9.25594
20
9.64594
30
6.36
0
VERTEX
10
9.25415
20
9.64594
30
6.36
0
VERTEX
10
9.24877
20
9.65222
30
6.36
0
VERTEX
10
9.24518
20
9.65401
30
6.36
0
VERTEX
10
9.24249
20
9.65759
30
6.36
0
VERTEX
10
9.2416
20
9.65491
30
6.36
0
SEQEND
0
POLYLINE
62
227
66
1
70
1
3
endoplasmic_reticulum
0
VERTEX
10
8.96367
20
9.43884
30
6.36
0
VERTEX
10
8.96456
20
9.43525
30
6.36
0
VERTEX
10
8.96815
20
9.43167
30
6.36
0
VERTEX
10
8.96994
20
9.42808
30
6.36
0
VERTEX
10
8.97622
20
9.4236
30
6.36
0
VERTEX
10
8.99056
20
9.4218
30
6.36
0
VERTEX
10
8.99774
20
9.4218
30
6.36
0
VERTEX
10
9.01208
20
9.42449
30
6.36
0
VERTEX
10
9.01567
20
9.42449
30
6.36
0
VERTEX
10
9.01925
20
9.42629
30
6.36
0
VERTEX
10
9.0336
20
9.42629
30
6.36
0
VERTEX
10
9.04077
20
9.42539
30
6.36
0
VERTEX
10
9.04436
20
9.42539
30
6.36
0
VERTEX
10
9.04794
20
9.4236
30
6.36
0
VERTEX
10
9.05512
20
9.4236
30
6.36
0
VERTEX
10
9.06229
20
9.42629
30
6.36
0
VERTEX
10
9.06856
20
9.43167
30
6.36
0
VERTEX
10
9.07305
20
9.43884
30
6.36
0
VERTEX
10
9.07574
20
9.44601
30
6.36
0
VERTEX
10
9.07305
20
9.46035
30
6.36
0
VERTEX
10
9.07215
20
9.46394
30
6.36
0
VERTEX
10
9.07036
20
9.46484
30
6.36
0
VERTEX
10
9.07036
20
9.46663
30
6.36
0
VERTEX
10
9.06408
20
9.47201
30
6.36
0
VERTEX
10
9.06229
20
9.47201
30
6.36
0
VERTEX
10
9.06139
20
9.4738
30
6.36
0
VERTEX
10
9.0596
20
9.4738
30
6.36
0
VERTEX
10
9.05243
20
9.47829
30
6.36
0
VERTEX
10
9.04974
20
9.48098
30
6.36
0
VERTEX
10
9.04256
20
9.48187
30
6.36
0
VERTEX
10
9.04077
20
9.48187
30
6.36
0
VERTEX
10
9.03898
20
9.48366
30
6.36
0
VERTEX
10
9.03181
20
9.48366
30
6.36
0
VERTEX
10
9.02463
20
9.48187
30
6.36
0
VERTEX
10
9.02194
20
9.47829
30
6.36
0
VERTEX
10
9.01477
20
9.4756
30
6.36
0
VERTEX
10
9.01118
20
9.4738
30
6.36
0
VERTEX
10
8.99684
20
9.47201
30
6.36
0
VERTEX
10
8.98967
20
9.47022
30
6.36
0
VERTEX
10
8.9825
20
9.47022
30
6.36
0
VERTEX
10
8.97532
20
9.46573
30
6.36
0
VERTEX
10
8.96815
20
9.45946
30
6.36
0
VERTEX
10
8.96725
20
9.45587
30
6.36
0
VERTEX
10
8.96456
20
9.45318
30
6.36
0
VERTEX
10
8.96367
20
9.43973
30
6.36
0
SEQEND
0
POLYLINE
62
227
66
1
70
1
3
endoplasmic_reticulum
0
VERTEX
10
9.47291
20
9.52939
30
6.36
0
VERTEX
10
9.4756
20
9.52222
30
6.36
0
VERTEX
10
9.47739
20
9.52042
30
6.36
0
VERTEX
10
9.47829
20
9.51684
30
6.36
0
VERTEX
10
9.48366
20
9.51056
30
6.36
0
VERTEX
10
9.48546
20
9.50877
30
6.36
0
VERTEX
10
9.48725
20
9.50877
30
6.36
0
VERTEX
10
9.49442
20
9.50429
30
6.36
0
VERTEX
10
9.49622
20
9.50249
30
6.36
0
VERTEX
10
9.51056
20
9.50249
30
6.36
0
VERTEX
10
9.51773
20
9.50429
30
6.36
0
VERTEX
10
9.52042
20
9.50697
30
6.36
0
VERTEX
10
9.52401
20
9.50787
30
6.36
0
VERTEX
10
9.5276
20
9.51146
30
6.36
0
VERTEX
10
9.5276
20
9.51863
30
6.36
0
VERTEX
10
9.53029
20
9.52132
30
6.36
0
VERTEX
10
9.52939
20
9.53566
30
6.36
0
VERTEX
10
9.5267
20
9.54194
30
6.36
0
VERTEX
10
9.5258
20
9.54553
30
6.36
0
VERTEX
10
9.52311
20
9.54822
30
6.36
0
VERTEX
10
9.52222
20
9.5518
30
6.36
0
VERTEX
10
9.51504
20
9.55628
30
6.36
0
VERTEX
10
9.51146
20
9.55897
30
6.36
0
VERTEX
10
9.49711
20
9.55897
30
6.36
0
VERTEX
10
9.48994
20
9.55897
30
6.36
0
VERTEX
10
9.48635
20
9.55897
30
6.36
0
VERTEX
10
9.48456
20
9.55897
30
6.36
0
VERTEX
10
9.48098
20
9.55539
30
6.36
0
VERTEX
10
9.47291
20
9.54104
30
6.36
0
VERTEX
10
9.47291
20
9.53387
30
6.36
0
VERTEX
10
9.47291
20
9.53029
30
6.36
0
SEQEND
0
POLYLINE
62
31
66
1
70
1
3
contour
0
VERTEX
10
8.42732
20
9.14521
30
6.36
0
VERTEX
10
8.43568
20
9.11844
30
6.36
0
VERTEX
10
8.43568
20
9.11174
30
6.36
0
VERTEX
10
8.4407
20
9.09836
30
6.36
0
VERTEX
10
8.44238
20
9.09166
30
6.36
0
VERTEX
10
8.44572
20
9.08832
30
6.36
0
VERTEX
10
8.45074
20
9.06154
30
6.36
0
VERTEX
10
8.45409
20
9.04815
30
6.36
0
VERTEX
10
8.45409
20
9.04481
30
6.36
0
VERTEX
10
8.46079
20
9.03811
30
6.36
0
VERTEX
10
8.46413
20
9.03477
30
6.36
0
VERTEX
10
8.47083
20
9.03309
30
6.36
0
VERTEX
10
8.47417
20
9.03309
30
6.36
0
VERTEX
10
8.47752
20
9.02975
30
6.36
0
VERTEX
10
8.49091
20
9.0264
30
6.36
0
VERTEX
10
8.50429
20
9.02807
30
6.36
0
VERTEX
10
8.51099
20
9.02807
30
6.36
0
VERTEX
10
8.51433
20
9.03142
30
6.36
0
VERTEX
10
8.51768
20
9.03142
30
6.36
0
VERTEX
10
8.5227
20
9.03644
30
6.36
0
VERTEX
10
8.5294
20
9.03811
30
6.36
0
VERTEX
10
8.53274
20
9.03811
30
6.36
0
VERTEX
10
8.54111
20
9.04983
30
6.36
0
VERTEX
10
8.5478
20
9.0515
30
6.36
0
VERTEX
10
8.55952
20
9.05987
30
6.36
0
VERTEX
10
8.56621
20
9.06321
30
6.36
0
VERTEX
10
8.5729
20
9.06991
30
6.36
0
VERTEX
10
8.57625
20
9.0766
30
6.36
0
VERTEX
10
8.57625
20
9.07995
30
6.36
0
VERTEX
10
8.58796
20
9.08664
30
6.36
0
VERTEX
10
8.59801
20
9.09836
30
6.36
0
VERTEX
10
8.61139
20
9.10505
30
6.36
0
VERTEX
10
8.62143
20
9.11676
30
6.36
0
VERTEX
10
8.62813
20
9.11676
30
6.36
0
VERTEX
10
8.6298
20
9.11509
30
6.36
0
VERTEX
10
8.64151
20
9.12513
30
6.36
0
VERTEX
10
8.64821
20
9.1268
30
6.36
0
VERTEX
10
8.66159
20
9.13517
30
6.36
0
VERTEX
10
8.67164
20
9.14689
30
6.36
0
VERTEX
10
8.67666
20
9.15191
30
6.36
0
VERTEX
10
8.67666
20
9.15525
30
6.36
0
VERTEX
10
8.68168
20
9.1586
30
6.36
0
VERTEX
10
8.70343
20
9.18035
30
6.36
0
VERTEX
10
8.71514
20
9.19207
30
6.36
0
VERTEX
10
8.72016
20
9.19709
30
6.36
0
VERTEX
10
8.72184
20
9.20043
30
6.36
0
VERTEX
10
8.72518
20
9.20043
30
6.36
0
VERTEX
10
8.74359
20
9.22554
30
6.36
0
VERTEX
10
8.76702
20
9.24562
30
6.36
0
VERTEX
10
8.78041
20
9.24896
30
6.36
0
VERTEX
10
8.79212
20
9.25733
30
6.36
0
VERTEX
10
8.79714
20
9.26402
30
6.36
0
VERTEX
10
8.81053
20
9.27239
30
6.36
0
VERTEX
10
8.81555
20
9.27741
30
6.36
0
VERTEX
10
8.84232
20
9.28913
30
6.36
0
VERTEX
10
8.85571
20
9.29749
30
6.36
0
VERTEX
10
8.8624
20
9.29917
30
6.36
0
VERTEX
10
8.8691
20
9.30419
30
6.36
0
VERTEX
10
8.89587
20
9.31255
30
6.36
0
VERTEX
10
8.94942
20
9.31423
30
6.36
0
VERTEX
10
8.96281
20
9.3159
30
6.36
0
VERTEX
10
8.96616
20
9.31925
30
6.36
0
VERTEX
10
8.99293
20
9.32092
30
6.36
0
VERTEX
10
8.99962
20
9.32092
30
6.36
0
VERTEX
10
9.00297
20
9.32427
30
6.36
0
VERTEX
10
9.11007
20
9.33598
30
6.36
0
VERTEX
10
9.12346
20
9.33598
30
6.36
0
VERTEX
10
9.13684
20
9.34267
30
6.36
0
VERTEX
10
9.19039
20
9.34435
30
6.36
0
VERTEX
10
9.21717
20
9.34937
30
6.36
0
VERTEX
10
9.22052
20
9.34937
30
6.36
0
VERTEX
10
9.22386
20
9.35439
30
6.36
0
VERTEX
10
9.23056
20
9.35606
30
6.36
0
VERTEX
10
9.25733
20
9.35439
30
6.36
0
VERTEX
10
9.31088
20
9.35606
30
6.36
0
VERTEX
10
9.36443
20
9.35439
30
6.36
0
VERTEX
10
9.3912
20
9.35439
30
6.36
0
VERTEX
10
9.40459
20
9.35439
30
6.36
0
VERTEX
10
9.41798
20
9.35104
30
6.36
0
VERTEX
10
9.44475
20
9.34937
30
6.36
0
VERTEX
10
9.47153
20
9.35272
30
6.36
0
VERTEX
10
9.48491
20
9.35606
30
6.36
0
VERTEX
10
9.49161
20
9.35774
30
6.36
0
VERTEX
10
9.505
20
9.36778
30
6.36
0
VERTEX
10
9.51169
20
9.36945
30
6.36
0
VERTEX
10
9.52006
20
9.37782
30
6.36
0
VERTEX
10
9.52675
20
9.40459
30
6.36
0
VERTEX
10
9.53177
20
9.41798
30
6.36
0
VERTEX
10
9.53344
20
9.43137
30
6.36
0
VERTEX
10
9.53846
20
9.44475
30
6.36
0
VERTEX
10
9.54014
20
9.47153
30
6.36
0
VERTEX
10
9.54014
20
9.48491
30
6.36
0
VERTEX
10
9.54014
20
9.49161
30
6.36
0
VERTEX
10
9.5485
20
9.50332
30
6.36
0
VERTEX
10
9.55352
20
9.51671
30
6.36
0
VERTEX
10
9.56189
20
9.5301
30
6.36
0
VERTEX
10
9.57026
20
9.55687
30
6.36
0
VERTEX
10
9.58867
20
9.57863
30
6.36
0
VERTEX
10
9.58867
20
9.58532
30
6.36
0
VERTEX
10
9.59703
20
9.59871
30
6.36
0
VERTEX
10
9.60038
20
9.62548
30
6.36
0
VERTEX
10
9.60038
20
9.62883
30
6.36
0
VERTEX
10
9.60875
20
9.64222
30
6.36
0
VERTEX
10
9.61209
20
9.64891
30
6.36
0
VERTEX
10
9.61209
20
9.65226
30
6.36
0
VERTEX
10
9.61544
20
9.6556
30
6.36
0
VERTEX
10
9.61879
20
9.66899
30
6.36
0
VERTEX
10
9.62716
20
9.6807
30
6.36
0
VERTEX
10
9.63887
20
9.70748
30
6.36
0
VERTEX
10
9.64054
20
9.71417
30
6.36
0
VERTEX
10
9.64054
20
9.71752
30
6.36
0
VERTEX
10
9.64389
20
9.72087
30
6.36
0
VERTEX
10
9.64891
20
9.74764
30
6.36
0
VERTEX
10
9.65058
20
9.76103
30
6.36
0
VERTEX
10
9.64891
20
9.77442
30
6.36
0
VERTEX
10
9.64556
20
9.78111
30
6.36
0
VERTEX
10
9.64222
20
9.78446
30
6.36
0
VERTEX
10
9.63887
20
9.78446
30
6.36
0
VERTEX
10
9.63552
20
9.7878
30
6.36
0
VERTEX
10
9.58197
20
9.79784
30
6.36
0
VERTEX
10
9.56859
20
9.80119
30
6.36
0
VERTEX
10
9.56189
20
9.80286
30
6.36
0
VERTEX
10
9.55855
20
9.80621
30
6.36
0
VERTEX
10
9.53177
20
9.80788
30
6.36
0
VERTEX
10
9.51838
20
9.80956
30
6.36
0
VERTEX
10
9.51169
20
9.81123
30
6.36
0
VERTEX
10
9.4983
20
9.80788
30
6.36
0
VERTEX
10
9.44475
20
9.80788
30
6.36
0
VERTEX
10
9.41798
20
9.80788
30
6.36
0
VERTEX
10
9.41128
20
9.80788
30
6.36
0
VERTEX
10
9.3979
20
9.80119
30
6.36
0
VERTEX
10
9.3912
20
9.79952
30
6.36
0
VERTEX
10
9.37782
20
9.79115
30
6.36
0
VERTEX
10
9.37447
20
9.7878
30
6.36
0
VERTEX
10
9.34769
20
9.77944
30
6.36
0
VERTEX
10
9.33431
20
9.77609
30
6.36
0
VERTEX
10
9.30753
20
9.76438
30
6.36
0
VERTEX
10
9.30586
20
9.76103
30
6.36
0
VERTEX
10
9.29247
20
9.75935
30
6.36
0
VERTEX
10
9.27908
20
9.75433
30
6.36
0
VERTEX
10
9.27239
20
9.75099
30
6.36
0
VERTEX
10
9.26737
20
9.74429
30
6.36
0
VERTEX
10
9.26068
20
9.74262
30
6.36
0
VERTEX
10
9.25733
20
9.74262
30
6.36
0
VERTEX
10
9.23223
20
9.72254
30
6.36
0
VERTEX
10
9.20545
20
9.71752
30
6.36
0
VERTEX
10
9.19207
20
9.71585
30
6.36
0
VERTEX
10
9.17868
20
9.71083
30
6.36
0
VERTEX
10
9.15191
20
9.70748
30
6.36
0
VERTEX
10
9.13852
20
9.70748
30
6.36
0
VERTEX
10
9.08497
20
9.68572
30
6.36
0
VERTEX
10
9.05819
20
9.67736
30
6.36
0
VERTEX
10
9.0515
20
9.67401
30
6.36
0
VERTEX
10
9.04815
20
9.67066
30
6.36
0
VERTEX
10
9.03477
20
9.66732
30
6.36
0
VERTEX
10
9.02305
20
9.65895
30
6.36
0
VERTEX
10
9.01469
20
9.65058
30
6.36
0
VERTEX
10
9.01134
20
9.65058
30
6.36
0
VERTEX
10
9.00799
20
9.64724
30
6.36
0
VERTEX
10
9.00464
20
9.64724
30
6.36
0
VERTEX
10
8.99962
20
9.64222
30
6.36
0
VERTEX
10
8.97285
20
9.63385
30
6.36
0
VERTEX
10
8.94608
20
9.62883
30
6.36
0
VERTEX
10
8.93269
20
9.62716
30
6.36
0
VERTEX
10
8.92934
20
9.62381
30
6.36
0
VERTEX
10
8.92599
20
9.62381
30
6.36
0
VERTEX
10
8.91595
20
9.61209
30
6.36
0
VERTEX
10
8.90089
20
9.58532
30
6.36
0
VERTEX
10
8.89587
20
9.57863
30
6.36
0
VERTEX
10
8.89253
20
9.57528
30
6.36
0
VERTEX
10
8.89085
20
9.56859
30
6.36
0
VERTEX
10
8.88249
20
9.55687
30
6.36
0
VERTEX
10
8.87747
20
9.55185
30
6.36
0
VERTEX
10
8.87747
20
9.5485
30
6.36
0
VERTEX
10
8.85571
20
9.5234
30
6.36
0
VERTEX
10
8.84232
20
9.51504
30
6.36
0
VERTEX
10
8.83563
20
9.51002
30
6.36
0
VERTEX
10
8.8189
20
9.48826
30
6.36
0
VERTEX
10
8.80886
20
9.47655
30
6.36
0
VERTEX
10
8.80551
20
9.4732
30
6.36
0
VERTEX
10
8.80551
20
9.46985
30
6.36
0
VERTEX
10
8.79881
20
9.46651
30
6.36
0
VERTEX
10
8.78041
20
9.43973
30
6.36
0
VERTEX
10
8.77706
20
9.43304
30
6.36
0
VERTEX
10
8.77873
20
9.41965
30
6.36
0
VERTEX
10
8.78375
20
9.41296
30
6.36
0
VERTEX
10
8.78041
20
9.39957
30
6.36
0
VERTEX
10
8.77539
20
9.39288
30
6.36
0
VERTEX
10
8.77204
20
9.3912
30
6.36
0
VERTEX
10
8.77204
20
9.38451
30
6.36
0
VERTEX
10
8.76702
20
9.37112
30
6.36
0
VERTEX
10
8.76367
20
9.36778
30
6.36
0
VERTEX
10
8.75865
20
9.35439
30
6.36
0
VERTEX
10
8.75865
20
9.34769
30
6.36
0
VERTEX
10
8.75029
20
9.33598
30
6.36
0
VERTEX
10
8.74694
20
9.32259
30
6.36
0
VERTEX
10
8.73523
20
9.31088
30
6.36
0
VERTEX
10
8.72686
20
9.29749
30
6.36
0
VERTEX
10
8.72686
20
9.29415
30
6.36
0
VERTEX
10
8.72351
20
9.2908
30
6.36
0
VERTEX
10
8.72184
20
9.28411
30
6.36
0
VERTEX
10
8.71012
20
9.27574
30
6.36
0
VERTEX
10
8.69841
20
9.26235
30
6.36
0
VERTEX
10
8.69172
20
9.25566
30
6.36
0
VERTEX
10
8.66662
20
9.24394
30
6.36
0
VERTEX
10
8.66327
20
9.24394
30
6.36
0
VERTEX
10
8.65825
20
9.23725
30
6.36
0
VERTEX
10
8.65657
20
9.23223
30
6.36
0
VERTEX
10
8.65155
20
9.22721
30
6.36
0
VERTEX
10
8.63817
20
9.22721
30
6.36
0
VERTEX
10
8.61139
20
9.22219
30
6.36
0
VERTEX
10
8.59801
20
9.21884
30
6.36
0
VERTEX
10
8.57123
20
9.21884
30
6.36
0
VERTEX
10
8.51768
20
9.21382
30
6.36
0
VERTEX
10
8.50429
20
9.2155
30
6.36
0
VERTEX
10
8.45074
20
9.2088
30
6.36
0
VERTEX
10
8.43736
20
9.20378
30
6.36
0
VERTEX
10
8.43401
20
9.20211
30
6.36
0
VERTEX
10
8.42899
20
9.18872
30
6.36
0
VERTEX
10
8.42732
20
9.16195
30
6.36
0
VERTEX
10
8.42732
20
9.14856
30
6.36
0
VERTEX
10
8.42732
20
9.14689
30
6.36
0
SEQEND
0
ENDSEC
0
EOF
