0
SECTION
2
ENTITIES
0
POLYLINE
62
31
66
1
70
1
3
contour
0
VERTEX
10
6.92621
20
10.7284
30
9.76
0
VERTEX
10
6.94596
20
10.6757
30
9.76
0
VERTEX
10
6.96242
20
10.6494
30
9.76
0
VERTEX
10
6.97888
20
10.6296
30
9.76
0
VERTEX
10
6.98876
20
10.6033
30
9.76
0
VERTEX
10
7.00522
20
10.577
30
9.76
0
VERTEX
10
7.02168
20
10.5572
30
9.76
0
VERTEX
10
7.02826
20
10.544
30
9.76
0
VERTEX
10
7.04143
20
10.5342
30
9.76
0
VERTEX
10
7.04801
20
10.5342
30
9.76
0
VERTEX
10
7.05789
20
10.5243
30
9.76
0
VERTEX
10
7.08422
20
10.5177
30
9.76
0
VERTEX
10
7.29491
20
10.5144
30
9.76
0
VERTEX
10
7.40025
20
10.5111
30
9.76
0
VERTEX
10
7.45292
20
10.5111
30
9.76
0
VERTEX
10
7.50559
20
10.5177
30
9.76
0
VERTEX
10
7.53193
20
10.521
30
9.76
0
VERTEX
10
7.5846
20
10.5638
30
9.76
0
VERTEX
10
7.59776
20
10.5737
30
9.76
0
VERTEX
10
7.59776
20
10.5868
30
9.76
0
VERTEX
10
7.61752
20
10.6099
30
9.76
0
VERTEX
10
7.62081
20
10.623
30
9.76
0
VERTEX
10
7.62739
20
10.6263
30
9.76
0
VERTEX
10
7.63068
20
10.6527
30
9.76
0
VERTEX
10
7.63068
20
10.6658
30
9.76
0
VERTEX
10
7.63398
20
10.6724
30
9.76
0
VERTEX
10
7.64056
20
10.6724
30
9.76
0
VERTEX
10
7.66031
20
10.6988
30
9.76
0
VERTEX
10
7.67348
20
10.7514
30
9.76
0
VERTEX
10
7.67677
20
10.8041
30
9.76
0
VERTEX
10
7.67019
20
10.8568
30
9.76
0
VERTEX
10
7.6636
20
10.8831
30
9.76
0
VERTEX
10
7.63727
20
10.8864
30
9.76
0
VERTEX
10
7.6241
20
10.8963
30
9.76
0
VERTEX
10
7.61752
20
10.8963
30
9.76
0
VERTEX
10
7.61422
20
10.9029
30
9.76
0
VERTEX
10
7.60106
20
10.9029
30
9.76
0
VERTEX
10
7.59447
20
10.9029
30
9.76
0
VERTEX
10
7.58789
20
10.9094
30
9.76
0
VERTEX
10
7.56155
20
10.9127
30
9.76
0
VERTEX
10
7.54839
20
10.916
30
9.76
0
VERTEX
10
7.53522
20
10.9259
30
9.76
0
VERTEX
10
7.48255
20
10.9424
30
9.76
0
VERTEX
10
7.45621
20
10.9522
30
9.76
0
VERTEX
10
7.44304
20
10.9588
30
9.76
0
VERTEX
10
7.39037
20
10.9588
30
9.76
0
VERTEX
10
7.36404
20
10.9654
30
9.76
0
VERTEX
10
7.31137
20
10.9654
30
9.76
0
VERTEX
10
7.2587
20
10.9753
30
9.76
0
VERTEX
10
7.20603
20
10.9917
30
9.76
0
VERTEX
10
7.17969
20
10.9983
30
9.76
0
VERTEX
10
7.17311
20
11.0049
30
9.76
0
VERTEX
10
7.16652
20
11.0049
30
9.76
0
VERTEX
10
7.14019
20
11.0312
30
9.76
0
VERTEX
10
7.12702
20
11.0444
30
9.76
0
VERTEX
10
7.12373
20
11.051
30
9.76
0
VERTEX
10
7.07435
20
11.0082
30
9.76
0
VERTEX
10
7.02497
20
10.972
30
9.76
0
VERTEX
10
7.02497
20
10.9654
30
9.76
0
VERTEX
10
7.01509
20
10.9555
30
9.76
0
VERTEX
10
7.00193
20
10.9522
30
9.76
0
VERTEX
10
6.99534
20
10.9457
30
9.76
0
VERTEX
10
6.99205
20
10.9325
30
9.76
0
VERTEX
10
6.99205
20
10.9259
30
9.76
0
VERTEX
10
6.98217
20
10.9127
30
9.76
0
VERTEX
10
6.97559
20
10.8864
30
9.76
0
VERTEX
10
6.96901
20
10.8732
30
9.76
0
VERTEX
10
6.96571
20
10.8469
30
9.76
0
VERTEX
10
6.95255
20
10.8206
30
9.76
0
VERTEX
10
6.93938
20
10.8107
30
9.76
0
VERTEX
10
6.93609
20
10.7975
30
9.76
0
VERTEX
10
6.92621
20
10.7876
30
9.76
0
VERTEX
10
6.92621
20
10.735
30
9.76
0
VERTEX
10
6.92621
20
10.7317
30
9.76
0
SEQEND
0
POLYLINE
62
224
66
1
70
1
3
mitochondrion
0
VERTEX
10
7.21494
20
10.7897
30
9.76
0
VERTEX
10
7.21911
20
10.7675
30
9.76
0
VERTEX
10
7.2205
20
10.7619
30
9.76
0
VERTEX
10
7.2205
20
10.7591
30
9.76
0
VERTEX
10
7.22467
20
10.7536
30
9.76
0
VERTEX
10
7.22606
20
10.748
30
9.76
0
VERTEX
10
7.23302
20
10.7369
30
9.76
0
VERTEX
10
7.24275
20
10.7258
30
9.76
0
VERTEX
10
7.25387
20
10.7035
30
9.76
0
VERTEX
10
7.25387
20
10.7007
30
9.76
0
VERTEX
10
7.27334
20
10.6827
30
9.76
0
VERTEX
10
7.27612
20
10.6785
30
9.76
0
VERTEX
10
7.29837
20
10.6646
30
9.76
0
VERTEX
10
7.3081
20
10.659
30
9.76
0
VERTEX
10
7.31366
20
10.6576
30
9.76
0
VERTEX
10
7.32478
20
10.6507
30
9.76
0
VERTEX
10
7.32757
20
10.6507
30
9.76
0
VERTEX
10
7.32896
20
10.6479
30
9.76
0
VERTEX
10
7.3512
20
10.641
30
9.76
0
VERTEX
10
7.35676
20
10.6368
30
9.76
0
VERTEX
10
7.37901
20
10.6298
30
9.76
0
VERTEX
10
7.39013
20
10.6284
30
9.76
0
VERTEX
10
7.40126
20
10.6243
30
9.76
0
VERTEX
10
7.44575
20
10.6284
30
9.76
0
VERTEX
10
7.45688
20
10.6326
30
9.76
0
VERTEX
10
7.46105
20
10.6368
30
9.76
0
VERTEX
10
7.47217
20
10.6382
30
9.76
0
VERTEX
10
7.48607
20
10.659
30
9.76
0
VERTEX
10
7.49164
20
10.6632
30
9.76
0
VERTEX
10
7.49581
20
10.6743
30
9.76
0
VERTEX
10
7.49581
20
10.6855
30
9.76
0
VERTEX
10
7.49859
20
10.691
30
9.76
0
VERTEX
10
7.49859
20
10.6966
30
9.76
0
VERTEX
10
7.50137
20
10.7021
30
9.76
0
VERTEX
10
7.49998
20
10.7466
30
9.76
0
VERTEX
10
7.49998
20
10.7578
30
9.76
0
VERTEX
10
7.49998
20
10.7633
30
9.76
0
VERTEX
10
7.49581
20
10.7689
30
9.76
0
VERTEX
10
7.49581
20
10.7744
30
9.76
0
VERTEX
10
7.49164
20
10.7786
30
9.76
0
VERTEX
10
7.49025
20
10.7842
30
9.76
0
VERTEX
10
7.48607
20
10.7897
30
9.76
0
VERTEX
10
7.48468
20
10.7953
30
9.76
0
VERTEX
10
7.47634
20
10.8064
30
9.76
0
VERTEX
10
7.47356
20
10.8092
30
9.76
0
VERTEX
10
7.47217
20
10.8148
30
9.76
0
VERTEX
10
7.468
20
10.8189
30
9.76
0
VERTEX
10
7.468
20
10.8217
30
9.76
0
VERTEX
10
7.45131
20
10.8412
30
9.76
0
VERTEX
10
7.44019
20
10.8495
30
9.76
0
VERTEX
10
7.43463
20
10.8523
30
9.76
0
VERTEX
10
7.42907
20
10.8579
30
9.76
0
VERTEX
10
7.42351
20
10.8593
30
9.76
0
VERTEX
10
7.40265
20
10.8732
30
9.76
0
VERTEX
10
7.39153
20
10.8801
30
9.76
0
VERTEX
10
7.38596
20
10.8815
30
9.76
0
VERTEX
10
7.37484
20
10.8898
30
9.76
0
VERTEX
10
7.36372
20
10.8898
30
9.76
0
VERTEX
10
7.35816
20
10.8871
30
9.76
0
VERTEX
10
7.31366
20
10.8857
30
9.76
0
VERTEX
10
7.29141
20
10.8829
30
9.76
0
VERTEX
10
7.28585
20
10.8815
30
9.76
0
VERTEX
10
7.28029
20
10.8773
30
9.76
0
VERTEX
10
7.27751
20
10.8773
30
9.76
0
VERTEX
10
7.26917
20
10.869
30
9.76
0
VERTEX
10
7.26639
20
10.8634
30
9.76
0
VERTEX
10
7.26082
20
10.862
30
9.76
0
VERTEX
10
7.25248
20
10.8523
30
9.76
0
VERTEX
10
7.24692
20
10.8495
30
9.76
0
VERTEX
10
7.24414
20
10.8467
30
9.76
0
VERTEX
10
7.24136
20
10.8467
30
9.76
0
VERTEX
10
7.21911
20
10.8287
30
9.76
0
VERTEX
10
7.21772
20
10.8175
30
9.76
0
VERTEX
10
7.21494
20
10.8134
30
9.76
0
VERTEX
10
7.21494
20
10.7911
30
9.76
0
SEQEND
0
POLYLINE
62
227
66
1
70
1
3
endoplasmic_reticulum
0
VERTEX
10
7.51933
20
10.5999
30
9.76
0
VERTEX
10
7.52202
20
10.5927
30
9.76
0
VERTEX
10
7.5283
20
10.5864
30
9.76
0
VERTEX
10
7.53547
20
10.5855
30
9.76
0
VERTEX
10
7.54981
20
10.5873
30
9.76
0
VERTEX
10
7.5534
20
10.5891
30
9.76
0
VERTEX
10
7.55699
20
10.5891
30
9.76
0
VERTEX
10
7.56237
20
10.5936
30
9.76
0
VERTEX
10
7.56416
20
10.5936
30
9.76
0
VERTEX
10
7.57044
20
10.5981
30
9.76
0
VERTEX
10
7.57402
20
10.5999
30
9.76
0
VERTEX
10
7.57492
20
10.6142
30
9.76
0
VERTEX
10
7.57402
20
10.6214
30
9.76
0
VERTEX
10
7.56775
20
10.6277
30
9.76
0
VERTEX
10
7.56595
20
10.6295
30
9.76
0
VERTEX
10
7.55161
20
10.6312
30
9.76
0
VERTEX
10
7.54802
20
10.6384
30
9.76
0
VERTEX
10
7.54533
20
10.6411
30
9.76
0
VERTEX
10
7.53816
20
10.6393
30
9.76
0
VERTEX
10
7.53457
20
10.6393
30
9.76
0
VERTEX
10
7.52292
20
10.6277
30
9.76
0
VERTEX
10
7.52113
20
10.6241
30
9.76
0
VERTEX
10
7.52023
20
10.6097
30
9.76
0
VERTEX
10
7.51933
20
10.6026
30
9.76
0
VERTEX
10
7.51933
20
10.6008
30
9.76
0
SEQEND
0
POLYLINE
62
227
66
1
70
1
3
endoplasmic_reticulum
0
VERTEX
10
7.09258
20
10.6868
30
9.76
0
VERTEX
10
7.09706
20
10.6797
30
9.76
0
VERTEX
10
7.09885
20
10.6779
30
9.76
0
VERTEX
10
7.1132
20
10.6788
30
9.76
0
VERTEX
10
7.11947
20
10.6779
30
9.76
0
VERTEX
10
7.12933
20
10.6644
30
9.76
0
VERTEX
10
7.13382
20
10.6572
30
9.76
0
VERTEX
10
7.13471
20
10.6286
30
9.76
0
VERTEX
10
7.13561
20
10.6214
30
9.76
0
VERTEX
10
7.13651
20
10.6178
30
9.76
0
VERTEX
10
7.1383
20
10.616
30
9.76
0
VERTEX
10
7.1383
20
10.6142
30
9.76
0
VERTEX
10
7.15264
20
10.6097
30
9.76
0
VERTEX
10
7.15982
20
10.6088
30
9.76
0
VERTEX
10
7.17416
20
10.6133
30
9.76
0
VERTEX
10
7.17685
20
10.616
30
9.76
0
VERTEX
10
7.18044
20
10.6169
30
9.76
0
VERTEX
10
7.18313
20
10.6196
30
9.76
0
VERTEX
10
7.18671
20
10.6205
30
9.76
0
VERTEX
10
7.19389
20
10.625
30
9.76
0
VERTEX
10
7.19568
20
10.625
30
9.76
0
VERTEX
10
7.19837
20
10.6277
30
9.76
0
VERTEX
10
7.20016
20
10.6286
30
9.76
0
VERTEX
10
7.20106
20
10.6321
30
9.76
0
VERTEX
10
7.20285
20
10.6339
30
9.76
0
VERTEX
10
7.20285
20
10.6411
30
9.76
0
VERTEX
10
7.20106
20
10.6429
30
9.76
0
VERTEX
10
7.19837
20
10.6501
30
9.76
0
VERTEX
10
7.19389
20
10.6563
30
9.76
0
VERTEX
10
7.18671
20
10.6626
30
9.76
0
VERTEX
10
7.15982
20
10.6823
30
9.76
0
VERTEX
10
7.15802
20
10.6823
30
9.76
0
VERTEX
10
7.15264
20
10.6886
30
9.76
0
VERTEX
10
7.14547
20
10.6895
30
9.76
0
VERTEX
10
7.14099
20
10.6949
30
9.76
0
VERTEX
10
7.1392
20
10.6967
30
9.76
0
VERTEX
10
7.13651
20
10.711
30
9.76
0
VERTEX
10
7.13382
20
10.7146
30
9.76
0
VERTEX
10
7.13292
20
10.7218
30
9.76
0
VERTEX
10
7.12844
20
10.729
30
9.76
0
VERTEX
10
7.12575
20
10.7317
30
9.76
0
VERTEX
10
7.12216
20
10.7245
30
9.76
0
VERTEX
10
7.11947
20
10.7218
30
9.76
0
VERTEX
10
7.11589
20
10.7209
30
9.76
0
VERTEX
10
7.11409
20
10.7191
30
9.76
0
VERTEX
10
7.1123
20
10.7191
30
9.76
0
VERTEX
10
7.11051
20
10.7173
30
9.76
0
VERTEX
10
7.10871
20
10.7173
30
9.76
0
VERTEX
10
7.10513
20
10.7146
30
9.76
0
VERTEX
10
7.10333
20
10.711
30
9.76
0
VERTEX
10
7.09616
20
10.7048
30
9.76
0
VERTEX
10
7.09347
20
10.6976
30
9.76
0
VERTEX
10
7.09347
20
10.6904
30
9.76
0
VERTEX
10
7.09258
20
10.6877
30
9.76
0
SEQEND
0
ENDSEC
0
EOF
