0
SECTION
2
ENTITIES
0
POLYLINE
62
224
66
1
70
1
3
mitochondrion
0
VERTEX
10
8.08952
20
9.81922
30
7.4
0
VERTEX
10
8.0923
20
9.81783
30
7.4
0
VERTEX
10
8.09369
20
9.77333
30
7.4
0
VERTEX
10
8.09647
20
9.75108
30
7.4
0
VERTEX
10
8.09647
20
9.73996
30
7.4
0
VERTEX
10
8.10064
20
9.72884
30
7.4
0
VERTEX
10
8.10482
20
9.70659
30
7.4
0
VERTEX
10
8.11316
20
9.69547
30
7.4
0
VERTEX
10
8.11594
20
9.69408
30
7.4
0
VERTEX
10
8.11733
20
9.68852
30
7.4
0
VERTEX
10
8.12567
20
9.67739
30
7.4
0
VERTEX
10
8.1368
20
9.66766
30
7.4
0
VERTEX
10
8.14236
20
9.65654
30
7.4
0
VERTEX
10
8.14792
20
9.65097
30
7.4
0
VERTEX
10
8.1507
20
9.64541
30
7.4
0
VERTEX
10
8.16043
20
9.63846
30
7.4
0
VERTEX
10
8.16878
20
9.62873
30
7.4
0
VERTEX
10
8.1799
20
9.62177
30
7.4
0
VERTEX
10
8.18963
20
9.61204
30
7.4
0
VERTEX
10
8.19519
20
9.60926
30
7.4
0
VERTEX
10
8.19797
20
9.60926
30
7.4
0
VERTEX
10
8.21883
20
9.59397
30
7.4
0
VERTEX
10
8.22439
20
9.59119
30
7.4
0
VERTEX
10
8.22995
20
9.58562
30
7.4
0
VERTEX
10
8.24108
20
9.58006
30
7.4
0
VERTEX
10
8.24386
20
9.57728
30
7.4
0
VERTEX
10
8.26611
20
9.57033
30
7.4
0
VERTEX
10
8.28835
20
9.56755
30
7.4
0
VERTEX
10
8.33285
20
9.56755
30
7.4
0
VERTEX
10
8.35509
20
9.56755
30
7.4
0
VERTEX
10
8.37734
20
9.57172
30
7.4
0
VERTEX
10
8.39959
20
9.58006
30
7.4
0
VERTEX
10
8.44408
20
9.59119
30
7.4
0
VERTEX
10
8.45381
20
9.59814
30
7.4
0
VERTEX
10
8.45938
20
9.59953
30
7.4
0
VERTEX
10
8.46216
20
9.6037
30
7.4
0
VERTEX
10
8.46772
20
9.60509
30
7.4
0
VERTEX
10
8.47884
20
9.61204
30
7.4
0
VERTEX
10
8.49553
20
9.6329
30
7.4
0
VERTEX
10
8.49831
20
9.63846
30
7.4
0
VERTEX
10
8.49831
20
9.64124
30
7.4
0
VERTEX
10
8.50387
20
9.6468
30
7.4
0
VERTEX
10
8.51777
20
9.66766
30
7.4
0
VERTEX
10
8.5289
20
9.676
30
7.4
0
VERTEX
10
8.53585
20
9.68713
30
7.4
0
VERTEX
10
8.53585
20
9.68991
30
7.4
0
VERTEX
10
8.54002
20
9.69547
30
7.4
0
VERTEX
10
8.5428
20
9.70659
30
7.4
0
VERTEX
10
8.54975
20
9.71771
30
7.4
0
VERTEX
10
8.55253
20
9.72328
30
7.4
0
VERTEX
10
8.55253
20
9.72606
30
7.4
0
VERTEX
10
8.55671
20
9.73162
30
7.4
0
VERTEX
10
8.5581
20
9.73718
30
7.4
0
VERTEX
10
8.56088
20
9.73996
30
7.4
0
VERTEX
10
8.56922
20
9.78446
30
7.4
0
VERTEX
10
8.56922
20
9.8067
30
7.4
0
VERTEX
10
8.56922
20
9.81783
30
7.4
0
VERTEX
10
8.56505
20
9.82895
30
7.4
0
VERTEX
10
8.56227
20
9.83451
30
7.4
0
VERTEX
10
8.56227
20
9.83729
30
7.4
0
VERTEX
10
8.55949
20
9.83868
30
7.4
0
VERTEX
10
8.5581
20
9.84424
30
7.4
0
VERTEX
10
8.55392
20
9.84981
30
7.4
0
VERTEX
10
8.55114
20
9.85259
30
7.4
0
VERTEX
10
8.54975
20
9.85815
30
7.4
0
VERTEX
10
8.50665
20
9.89152
30
7.4
0
VERTEX
10
8.4844
20
9.90959
30
7.4
0
VERTEX
10
8.47328
20
9.91377
30
7.4
0
VERTEX
10
8.4705
20
9.91377
30
7.4
0
VERTEX
10
8.45938
20
9.92072
30
7.4
0
VERTEX
10
8.45381
20
9.9235
30
7.4
0
VERTEX
10
8.45103
20
9.9235
30
7.4
0
VERTEX
10
8.44547
20
9.92767
30
7.4
0
VERTEX
10
8.43435
20
9.93045
30
7.4
0
VERTEX
10
8.42879
20
9.93462
30
7.4
0
VERTEX
10
8.41766
20
9.93879
30
7.4
0
VERTEX
10
8.37317
20
9.94296
30
7.4
0
VERTEX
10
8.36205
20
9.94296
30
7.4
0
VERTEX
10
8.3398
20
9.95131
30
7.4
0
VERTEX
10
8.31755
20
9.95548
30
7.4
0
VERTEX
10
8.27306
20
9.95687
30
7.4
0
VERTEX
10
8.22856
20
9.9527
30
7.4
0
VERTEX
10
8.20632
20
9.94992
30
7.4
0
VERTEX
10
8.20215
20
9.94575
30
7.4
0
VERTEX
10
8.19658
20
9.94435
30
7.4
0
VERTEX
10
8.1938
20
9.94435
30
7.4
0
VERTEX
10
8.18268
20
9.93601
30
7.4
0
VERTEX
10
8.17712
20
9.93462
30
7.4
0
VERTEX
10
8.17156
20
9.93045
30
7.4
0
VERTEX
10
8.16043
20
9.92628
30
7.4
0
VERTEX
10
8.15487
20
9.9235
30
7.4
0
VERTEX
10
8.14375
20
9.9235
30
7.4
0
VERTEX
10
8.13819
20
9.91933
30
7.4
0
VERTEX
10
8.13541
20
9.91655
30
7.4
0
VERTEX
10
8.13262
20
9.91655
30
7.4
0
VERTEX
10
8.12289
20
9.9082
30
7.4
0
VERTEX
10
8.11872
20
9.90264
30
7.4
0
VERTEX
10
8.11594
20
9.89152
30
7.4
0
VERTEX
10
8.11594
20
9.88874
30
7.4
0
VERTEX
10
8.11316
20
9.88735
30
7.4
0
VERTEX
10
8.11177
20
9.87622
30
7.4
0
VERTEX
10
8.10899
20
9.87483
30
7.4
0
VERTEX
10
8.1076
20
9.85259
30
7.4
0
VERTEX
10
8.1076
20
9.84146
30
7.4
0
VERTEX
10
8.09647
20
9.83034
30
7.4
0
VERTEX
10
8.0923
20
9.82478
30
7.4
0
VERTEX
10
8.08952
20
9.822
30
7.4
0
VERTEX
10
8.08952
20
9.82061
30
7.4
0
SEQEND
0
POLYLINE
62
227
66
1
70
1
3
endoplasmic_reticulum
0
VERTEX
10
8.40422
20
9.96601
30
7.4
0
VERTEX
10
8.40602
20
9.96242
30
7.4
0
VERTEX
10
8.41319
20
9.95794
30
7.4
0
VERTEX
10
8.42036
20
9.95704
30
7.4
0
VERTEX
10
8.42753
20
9.95973
30
7.4
0
VERTEX
10
8.43112
20
9.96152
30
7.4
0
VERTEX
10
8.43471
20
9.96152
30
7.4
0
VERTEX
10
8.44188
20
9.96601
30
7.4
0
VERTEX
10
8.44546
20
9.9687
30
7.4
0
VERTEX
10
8.44815
20
9.97587
30
7.4
0
VERTEX
10
8.45084
20
9.99021
30
7.4
0
VERTEX
10
8.45084
20
10.0046
30
7.4
0
VERTEX
10
8.44546
20
10.009
30
7.4
0
VERTEX
10
8.44367
20
10.0117
30
7.4
0
VERTEX
10
8.4365
20
10.0126
30
7.4
0
VERTEX
10
8.42215
20
10.0081
30
7.4
0
VERTEX
10
8.42126
20
10.0064
30
7.4
0
VERTEX
10
8.41946
20
10.0064
30
7.4
0
VERTEX
10
8.41498
20
10.0001
30
7.4
0
VERTEX
10
8.41229
20
9.99649
30
7.4
0
VERTEX
10
8.4096
20
9.98932
30
7.4
0
VERTEX
10
8.40512
20
9.98214
30
7.4
0
VERTEX
10
8.40422
20
9.9678
30
7.4
0
VERTEX
10
8.40422
20
9.9669
30
7.4
0
SEQEND
0
POLYLINE
62
227
66
1
70
1
3
endoplasmic_reticulum
0
VERTEX
10
8.33878
20
10.0458
30
7.4
0
VERTEX
10
8.34057
20
10.0315
30
7.4
0
VERTEX
10
8.34147
20
10.0279
30
7.4
0
VERTEX
10
8.34326
20
10.027
30
7.4
0
VERTEX
10
8.34415
20
10.0234
30
7.4
0
VERTEX
10
8.34684
20
10.0198
30
7.4
0
VERTEX
10
8.34864
20
10.0198
30
7.4
0
VERTEX
10
8.35222
20
10.0171
30
7.4
0
VERTEX
10
8.3594
20
10.0153
30
7.4
0
VERTEX
10
8.36119
20
10.0135
30
7.4
0
VERTEX
10
8.36119
20
10.0117
30
7.4
0
VERTEX
10
8.37553
20
10.0108
30
7.4
0
VERTEX
10
8.38271
20
10.0108
30
7.4
0
VERTEX
10
8.38629
20
10.0108
30
7.4
0
VERTEX
10
8.38898
20
10.0144
30
7.4
0
VERTEX
10
8.38988
20
10.0162
30
7.4
0
VERTEX
10
8.39167
20
10.0162
30
7.4
0
VERTEX
10
8.39346
20
10.0234
30
7.4
0
VERTEX
10
8.39346
20
10.027
30
7.4
0
VERTEX
10
8.3845
20
10.0413
30
7.4
0
VERTEX
10
8.38181
20
10.0449
30
7.4
0
VERTEX
10
8.38181
20
10.0467
30
7.4
0
VERTEX
10
8.37553
20
10.0521
30
7.4
0
VERTEX
10
8.36836
20
10.0548
30
7.4
0
VERTEX
10
8.36119
20
10.0592
30
7.4
0
VERTEX
10
8.34684
20
10.0584
30
7.4
0
VERTEX
10
8.34326
20
10.0512
30
7.4
0
VERTEX
10
8.34236
20
10.0494
30
7.4
0
VERTEX
10
8.33878
20
10.0485
30
7.4
0
VERTEX
10
8.33878
20
10.0467
30
7.4
0
SEQEND
0
POLYLINE
62
227
66
1
70
1
3
endoplasmic_reticulum
0
VERTEX
10
7.9685
20
9.69166
30
7.4
0
VERTEX
10
7.97029
20
9.68808
30
7.4
0
VERTEX
10
7.97209
20
9.68628
30
7.4
0
VERTEX
10
7.97388
20
9.67911
30
7.4
0
VERTEX
10
7.97478
20
9.67553
30
7.4
0
VERTEX
10
7.97478
20
9.67373
30
7.4
0
VERTEX
10
7.97657
20
9.67194
30
7.4
0
VERTEX
10
7.97657
20
9.67015
30
7.4
0
VERTEX
10
7.98016
20
9.66746
30
7.4
0
VERTEX
10
7.98195
20
9.66387
30
7.4
0
VERTEX
10
7.98195
20
9.66208
30
7.4
0
VERTEX
10
7.98643
20
9.65491
30
7.4
0
VERTEX
10
7.99002
20
9.65222
30
7.4
0
VERTEX
10
7.9945
20
9.64594
30
7.4
0
VERTEX
10
7.99629
20
9.64235
30
7.4
0
VERTEX
10
7.9954
20
9.62801
30
7.4
0
VERTEX
10
7.9945
20
9.62442
30
7.4
0
VERTEX
10
7.98554
20
9.61277
30
7.4
0
VERTEX
10
7.98105
20
9.6056
30
7.4
0
VERTEX
10
7.98016
20
9.60201
30
7.4
0
VERTEX
10
7.97747
20
9.59842
30
7.4
0
VERTEX
10
7.97657
20
9.59125
30
7.4
0
VERTEX
10
7.97747
20
9.58408
30
7.4
0
VERTEX
10
7.97747
20
9.58049
30
7.4
0
VERTEX
10
7.97926
20
9.57691
30
7.4
0
VERTEX
10
7.98285
20
9.57422
30
7.4
0
VERTEX
10
7.99719
20
9.57332
30
7.4
0
VERTEX
10
8.00436
20
9.57422
30
7.4
0
VERTEX
10
8.01154
20
9.57691
30
7.4
0
VERTEX
10
8.01333
20
9.57691
30
7.4
0
VERTEX
10
8.0196
20
9.58318
30
7.4
0
VERTEX
10
8.02319
20
9.58318
30
7.4
0
VERTEX
10
8.02498
20
9.58497
30
7.4
0
VERTEX
10
8.02678
20
9.58497
30
7.4
0
VERTEX
10
8.02947
20
9.58856
30
7.4
0
VERTEX
10
8.03664
20
9.59125
30
7.4
0
VERTEX
10
8.05098
20
9.59215
30
7.4
0
VERTEX
10
8.05457
20
9.59304
30
7.4
0
VERTEX
10
8.05457
20
9.59484
30
7.4
0
VERTEX
10
8.05816
20
9.59753
30
7.4
0
VERTEX
10
8.06533
20
9.59932
30
7.4
0
VERTEX
10
8.06712
20
9.60111
30
7.4
0
VERTEX
10
8.06623
20
9.61546
30
7.4
0
VERTEX
10
8.06354
20
9.62263
30
7.4
0
VERTEX
10
8.06264
20
9.62622
30
7.4
0
VERTEX
10
8.05726
20
9.63249
30
7.4
0
VERTEX
10
8.05457
20
9.63877
30
7.4
0
VERTEX
10
8.05457
20
9.64594
30
7.4
0
VERTEX
10
8.05547
20
9.64953
30
7.4
0
VERTEX
10
8.06533
20
9.66208
30
7.4
0
VERTEX
10
8.06891
20
9.66835
30
7.4
0
VERTEX
10
8.0716
20
9.67104
30
7.4
0
VERTEX
10
8.0716
20
9.68539
30
7.4
0
VERTEX
10
8.07071
20
9.68897
30
7.4
0
VERTEX
10
8.06533
20
9.69525
30
7.4
0
VERTEX
10
8.06443
20
9.69884
30
7.4
0
VERTEX
10
8.05726
20
9.70601
30
7.4
0
VERTEX
10
8.05098
20
9.71139
30
7.4
0
VERTEX
10
8.0465
20
9.71587
30
7.4
0
VERTEX
10
8.04471
20
9.71587
30
7.4
0
VERTEX
10
8.04381
20
9.71766
30
7.4
0
VERTEX
10
8.03664
20
9.71946
30
7.4
0
VERTEX
10
8.00795
20
9.71856
30
7.4
0
VERTEX
10
7.99361
20
9.71677
30
7.4
0
VERTEX
10
7.99002
20
9.71587
30
7.4
0
VERTEX
10
7.98285
20
9.71139
30
7.4
0
VERTEX
10
7.97926
20
9.70959
30
7.4
0
VERTEX
10
7.97567
20
9.70959
30
7.4
0
VERTEX
10
7.9694
20
9.70422
30
7.4
0
VERTEX
10
7.9685
20
9.69704
30
7.4
0
VERTEX
10
7.9685
20
9.69346
30
7.4
0
VERTEX
10
7.9685
20
9.69256
30
7.4
0
SEQEND
0
POLYLINE
62
227
66
1
70
1
3
endoplasmic_reticulum
0
VERTEX
10
7.97567
20
9.87725
30
7.4
0
VERTEX
10
7.97747
20
9.87008
30
7.4
0
VERTEX
10
7.98195
20
9.8629
30
7.4
0
VERTEX
10
7.98554
20
9.86111
30
7.4
0
VERTEX
10
7.98643
20
9.85932
30
7.4
0
VERTEX
10
7.99361
20
9.85752
30
7.4
0
VERTEX
10
7.99988
20
9.85304
30
7.4
0
VERTEX
10
8.00705
20
9.85125
30
7.4
0
VERTEX
10
8.01064
20
9.84856
30
7.4
0
VERTEX
10
8.01423
20
9.84856
30
7.4
0
VERTEX
10
8.01781
20
9.85035
30
7.4
0
VERTEX
10
8.0214
20
9.85035
30
7.4
0
VERTEX
10
8.02409
20
9.85394
30
7.4
0
VERTEX
10
8.03126
20
9.85752
30
7.4
0
VERTEX
10
8.03754
20
9.8638
30
7.4
0
VERTEX
10
8.03933
20
9.86739
30
7.4
0
VERTEX
10
8.0465
20
9.87456
30
7.4
0
VERTEX
10
8.0465
20
9.87635
30
7.4
0
VERTEX
10
8.04919
20
9.87904
30
7.4
0
VERTEX
10
8.05188
20
9.88621
30
7.4
0
VERTEX
10
8.05098
20
9.90056
30
7.4
0
VERTEX
10
8.04829
20
9.9149
30
7.4
0
VERTEX
10
8.0474
20
9.92208
30
7.4
0
VERTEX
10
8.04202
20
9.92835
30
7.4
0
VERTEX
10
8.01333
20
9.94628
30
7.4
0
VERTEX
10
8.00616
20
9.94539
30
7.4
0
VERTEX
10
8.00257
20
9.94539
30
7.4
0
VERTEX
10
7.99898
20
9.94359
30
7.4
0
VERTEX
10
7.99271
20
9.93732
30
7.4
0
VERTEX
10
7.98823
20
9.93104
30
7.4
0
VERTEX
10
7.98195
20
9.92477
30
7.4
0
VERTEX
10
7.97747
20
9.91042
30
7.4
0
VERTEX
10
7.97567
20
9.89608
30
7.4
0
VERTEX
10
7.97567
20
9.88173
30
7.4
0
VERTEX
10
7.97567
20
9.87815
30
7.4
0
SEQEND
0
POLYLINE
62
227
66
1
70
1
3
endoplasmic_reticulum
0
VERTEX
10
8.62746
20
9.78221
30
7.4
0
VERTEX
10
8.63015
20
9.77863
30
7.4
0
VERTEX
10
8.63374
20
9.77773
30
7.4
0
VERTEX
10
8.64001
20
9.77325
30
7.4
0
VERTEX
10
8.6436
20
9.77146
30
7.4
0
VERTEX
10
8.64539
20
9.77146
30
7.4
0
VERTEX
10
8.64719
20
9.76966
30
7.4
0
VERTEX
10
8.65077
20
9.76966
30
7.4
0
VERTEX
10
8.65436
20
9.76787
30
7.4
0
VERTEX
10
8.6687
20
9.77056
30
7.4
0
VERTEX
10
8.6696
20
9.77235
30
7.4
0
VERTEX
10
8.67139
20
9.77235
30
7.4
0
VERTEX
10
8.67677
20
9.77863
30
7.4
0
VERTEX
10
8.68036
20
9.78042
30
7.4
0
VERTEX
10
8.68215
20
9.78221
30
7.4
0
VERTEX
10
8.68215
20
9.78401
30
7.4
0
VERTEX
10
8.68395
20
9.7858
30
7.4
0
VERTEX
10
8.68305
20
9.80015
30
7.4
0
VERTEX
10
8.68305
20
9.80373
30
7.4
0
VERTEX
10
8.67946
20
9.80642
30
7.4
0
VERTEX
10
8.67229
20
9.80821
30
7.4
0
VERTEX
10
8.67139
20
9.80911
30
7.4
0
VERTEX
10
8.67857
20
9.8109
30
7.4
0
VERTEX
10
8.68126
20
9.8127
30
7.4
0
VERTEX
10
8.66691
20
9.82077
30
7.4
0
VERTEX
10
8.66512
20
9.82256
30
7.4
0
VERTEX
10
8.66153
20
9.82346
30
7.4
0
VERTEX
10
8.65795
20
9.82615
30
7.4
0
VERTEX
10
8.65077
20
9.82704
30
7.4
0
VERTEX
10
8.6436
20
9.82525
30
7.4
0
VERTEX
10
8.63643
20
9.81987
30
7.4
0
VERTEX
10
8.63374
20
9.81718
30
7.4
0
VERTEX
10
8.63195
20
9.81001
30
7.4
0
VERTEX
10
8.63195
20
9.80821
30
7.4
0
VERTEX
10
8.63015
20
9.80642
30
7.4
0
VERTEX
10
8.63015
20
9.80284
30
7.4
0
VERTEX
10
8.62746
20
9.79656
30
7.4
0
VERTEX
10
8.62746
20
9.78311
30
7.4
0
SEQEND
0
POLYLINE
62
227
66
1
70
1
3
endoplasmic_reticulum
0
VERTEX
10
8.08864
20
9.48994
30
7.4
0
VERTEX
10
8.09043
20
9.48815
30
7.4
0
VERTEX
10
8.09043
20
9.48635
30
7.4
0
VERTEX
10
8.09581
20
9.47918
30
7.4
0
VERTEX
10
8.0994
20
9.47649
30
7.4
0
VERTEX
10
8.10209
20
9.46932
30
7.4
0
VERTEX
10
8.10657
20
9.46304
30
7.4
0
VERTEX
10
8.10926
20
9.45946
30
7.4
0
VERTEX
10
8.1236
20
9.46035
30
7.4
0
VERTEX
10
8.12719
20
9.46035
30
7.4
0
VERTEX
10
8.13347
20
9.46663
30
7.4
0
VERTEX
10
8.13526
20
9.46932
30
7.4
0
VERTEX
10
8.13885
20
9.47201
30
7.4
0
VERTEX
10
8.13885
20
9.4738
30
7.4
0
VERTEX
10
8.14781
20
9.48815
30
7.4
0
VERTEX
10
8.14781
20
9.51684
30
7.4
0
VERTEX
10
8.14781
20
9.52042
30
7.4
0
VERTEX
10
8.14512
20
9.52401
30
7.4
0
VERTEX
10
8.14333
20
9.53118
30
7.4
0
VERTEX
10
8.14243
20
9.53297
30
7.4
0
VERTEX
10
8.14064
20
9.53297
30
7.4
0
VERTEX
10
8.13974
20
9.53477
30
7.4
0
VERTEX
10
8.13257
20
9.53656
30
7.4
0
VERTEX
10
8.11823
20
9.53387
30
7.4
0
VERTEX
10
8.11105
20
9.52849
30
7.4
0
VERTEX
10
8.10657
20
9.52222
30
7.4
0
VERTEX
10
8.10567
20
9.51863
30
7.4
0
VERTEX
10
8.0985
20
9.51504
30
7.4
0
VERTEX
10
8.09671
20
9.51146
30
7.4
0
VERTEX
10
8.09491
20
9.51056
30
7.4
0
VERTEX
10
8.09491
20
9.50697
30
7.4
0
VERTEX
10
8.09312
20
9.50339
30
7.4
0
VERTEX
10
8.09312
20
9.4998
30
7.4
0
VERTEX
10
8.08954
20
9.49622
30
7.4
0
VERTEX
10
8.08864
20
9.49263
30
7.4
0
VERTEX
10
8.08864
20
9.49084
30
7.4
0
SEQEND
0
POLYLINE
62
31
66
1
70
1
3
contour
0
VERTEX
10
7.73766
20
9.96637
30
7.4
0
VERTEX
10
7.74061
20
9.96342
30
7.4
0
VERTEX
10
7.74209
20
9.95158
30
7.4
0
VERTEX
10
7.74209
20
9.94863
30
7.4
0
VERTEX
10
7.74653
20
9.94271
30
7.4
0
VERTEX
10
7.74653
20
9.93088
30
7.4
0
VERTEX
10
7.75097
20
9.91905
30
7.4
0
VERTEX
10
7.77315
20
9.89539
30
7.4
0
VERTEX
10
7.79681
20
9.87616
30
7.4
0
VERTEX
10
7.79977
20
9.87616
30
7.4
0
VERTEX
10
7.80273
20
9.8732
30
7.4
0
VERTEX
10
7.80864
20
9.87172
30
7.4
0
VERTEX
10
7.82048
20
9.86433
30
7.4
0
VERTEX
10
7.82639
20
9.86137
30
7.4
0
VERTEX
10
7.83083
20
9.85546
30
7.4
0
VERTEX
10
7.83674
20
9.8525
30
7.4
0
VERTEX
10
7.8397
20
9.84954
30
7.4
0
VERTEX
10
7.85153
20
9.84806
30
7.4
0
VERTEX
10
7.86336
20
9.84067
30
7.4
0
VERTEX
10
7.90329
20
9.80665
30
7.4
0
VERTEX
10
7.90921
20
9.80074
30
7.4
0
VERTEX
10
7.91513
20
9.79778
30
7.4
0
VERTEX
10
7.91808
20
9.79482
30
7.4
0
VERTEX
10
7.91808
20
9.7475
30
7.4
0
VERTEX
10
7.92104
20
9.73566
30
7.4
0
VERTEX
10
7.924
20
9.73271
30
7.4
0
VERTEX
10
7.92844
20
9.68538
30
7.4
0
VERTEX
10
7.92696
20
9.67947
30
7.4
0
VERTEX
10
7.93879
20
9.6558
30
7.4
0
VERTEX
10
7.94027
20
9.64989
30
7.4
0
VERTEX
10
7.9521
20
9.64249
30
7.4
0
VERTEX
10
7.95654
20
9.63658
30
7.4
0
VERTEX
10
7.96097
20
9.62475
30
7.4
0
VERTEX
10
7.96097
20
9.62179
30
7.4
0
VERTEX
10
7.96837
20
9.61144
30
7.4
0
VERTEX
10
7.96985
20
9.60552
30
7.4
0
VERTEX
10
7.9728
20
9.60256
30
7.4
0
VERTEX
10
7.9728
20
9.59073
30
7.4
0
VERTEX
10
7.9728
20
9.58482
30
7.4
0
VERTEX
10
7.96393
20
9.57594
30
7.4
0
VERTEX
10
7.95358
20
9.57151
30
7.4
0
VERTEX
10
7.94766
20
9.57003
30
7.4
0
VERTEX
10
7.93731
20
9.55967
30
7.4
0
VERTEX
10
7.93139
20
9.55672
30
7.4
0
VERTEX
10
7.92104
20
9.54488
30
7.4
0
VERTEX
10
7.90921
20
9.53749
30
7.4
0
VERTEX
10
7.8959
20
9.51383
30
7.4
0
VERTEX
10
7.89442
20
9.502
30
7.4
0
VERTEX
10
7.8959
20
9.47833
30
7.4
0
VERTEX
10
7.90182
20
9.45467
30
7.4
0
VERTEX
10
7.90477
20
9.44284
30
7.4
0
VERTEX
10
7.90477
20
9.41918
30
7.4
0
VERTEX
10
7.90625
20
9.40735
30
7.4
0
VERTEX
10
7.90625
20
9.40439
30
7.4
0
VERTEX
10
7.92844
20
9.38664
30
7.4
0
VERTEX
10
7.93879
20
9.37777
30
7.4
0
VERTEX
10
7.98611
20
9.37185
30
7.4
0
VERTEX
10
8.00978
20
9.37185
30
7.4
0
VERTEX
10
8.02161
20
9.37037
30
7.4
0
VERTEX
10
8.03196
20
9.36594
30
7.4
0
VERTEX
10
8.05562
20
9.36298
30
7.4
0
VERTEX
10
8.07929
20
9.36298
30
7.4
0
VERTEX
10
8.0852
20
9.36298
30
7.4
0
VERTEX
10
8.08816
20
9.36594
30
7.4
0
VERTEX
10
8.11182
20
9.36742
30
7.4
0
VERTEX
10
8.11774
20
9.36742
30
7.4
0
VERTEX
10
8.12069
20
9.36742
30
7.4
0
VERTEX
10
8.13105
20
9.37777
30
7.4
0
VERTEX
10
8.13696
20
9.3822
30
7.4
0
VERTEX
10
8.13844
20
9.38664
30
7.4
0
VERTEX
10
8.14879
20
9.39699
30
7.4
0
VERTEX
10
8.15471
20
9.39995
30
7.4
0
VERTEX
10
8.15767
20
9.39995
30
7.4
0
VERTEX
10
8.16654
20
9.4103
30
7.4
0
VERTEX
10
8.17098
20
9.41622
30
7.4
0
VERTEX
10
8.17689
20
9.41918
30
7.4
0
VERTEX
10
8.17689
20
9.42214
30
7.4
0
VERTEX
10
8.19908
20
9.43545
30
7.4
0
VERTEX
10
8.20943
20
9.44136
30
7.4
0
VERTEX
10
8.21534
20
9.44284
30
7.4
0
VERTEX
10
8.2183
20
9.44284
30
7.4
0
VERTEX
10
8.22422
20
9.44728
30
7.4
0
VERTEX
10
8.23605
20
9.45171
30
7.4
0
VERTEX
10
8.24197
20
9.45467
30
7.4
0
VERTEX
10
8.24492
20
9.45467
30
7.4
0
VERTEX
10
8.24788
20
9.45763
30
7.4
0
VERTEX
10
8.25971
20
9.46059
30
7.4
0
VERTEX
10
8.26563
20
9.46354
30
7.4
0
VERTEX
10
8.27154
20
9.46354
30
7.4
0
VERTEX
10
8.27746
20
9.4665
30
7.4
0
VERTEX
10
8.28929
20
9.4665
30
7.4
0
VERTEX
10
8.29521
20
9.4665
30
7.4
0
VERTEX
10
8.30112
20
9.46946
30
7.4
0
VERTEX
10
8.31295
20
9.47094
30
7.4
0
VERTEX
10
8.31887
20
9.47094
30
7.4
0
VERTEX
10
8.32478
20
9.47538
30
7.4
0
VERTEX
10
8.33662
20
9.47685
30
7.4
0
VERTEX
10
8.34253
20
9.47833
30
7.4
0
VERTEX
10
8.34845
20
9.48277
30
7.4
0
VERTEX
10
8.37211
20
9.49017
30
7.4
0
VERTEX
10
8.38394
20
9.49608
30
7.4
0
VERTEX
10
8.38986
20
9.49756
30
7.4
0
VERTEX
10
8.39429
20
9.502
30
7.4
0
VERTEX
10
8.39725
20
9.502
30
7.4
0
VERTEX
10
8.40908
20
9.51087
30
7.4
0
VERTEX
10
8.43274
20
9.52122
30
7.4
0
VERTEX
10
8.4357
20
9.52418
30
7.4
0
VERTEX
10
8.44162
20
9.52566
30
7.4
0
VERTEX
10
8.44458
20
9.52566
30
7.4
0
VERTEX
10
8.45049
20
9.5301
30
7.4
0
VERTEX
10
8.45641
20
9.5301
30
7.4
0
VERTEX
10
8.46232
20
9.53305
30
7.4
0
VERTEX
10
8.46528
20
9.53305
30
7.4
0
VERTEX
10
8.46824
20
9.53601
30
7.4
0
VERTEX
10
8.4712
20
9.53601
30
7.4
0
VERTEX
10
8.47268
20
9.53897
30
7.4
0
VERTEX
10
8.47563
20
9.53897
30
7.4
0
VERTEX
10
8.48155
20
9.54341
30
7.4
0
VERTEX
10
8.49338
20
9.54636
30
7.4
0
VERTEX
10
8.49634
20
9.54932
30
7.4
0
VERTEX
10
8.50225
20
9.5508
30
7.4
0
VERTEX
10
8.50817
20
9.55672
30
7.4
0
VERTEX
10
8.51408
20
9.55819
30
7.4
0
VERTEX
10
8.51704
20
9.56115
30
7.4
0
VERTEX
10
8.52887
20
9.56559
30
7.4
0
VERTEX
10
8.53183
20
9.56559
30
7.4
0
VERTEX
10
8.53775
20
9.57003
30
7.4
0
VERTEX
10
8.5407
20
9.57298
30
7.4
0
VERTEX
10
8.54218
20
9.5789
30
7.4
0
VERTEX
10
8.55254
20
9.58629
30
7.4
0
VERTEX
10
8.55549
20
9.58629
30
7.4
0
VERTEX
10
8.55845
20
9.58925
30
7.4
0
VERTEX
10
8.56141
20
9.58925
30
7.4
0
VERTEX
10
8.58359
20
9.60404
30
7.4
0
VERTEX
10
8.60578
20
9.61291
30
7.4
0
VERTEX
10
8.61613
20
9.62327
30
7.4
0
VERTEX
10
8.63683
20
9.63806
30
7.4
0
VERTEX
10
8.64867
20
9.64841
30
7.4
0
VERTEX
10
8.65606
20
9.6558
30
7.4
0
VERTEX
10
8.65606
20
9.65876
30
7.4
0
VERTEX
10
8.66198
20
9.66172
30
7.4
0
VERTEX
10
8.66789
20
9.66763
30
7.4
0
VERTEX
10
8.67972
20
9.67503
30
7.4
0
VERTEX
10
8.70043
20
9.69721
30
7.4
0
VERTEX
10
8.71965
20
9.71644
30
7.4
0
VERTEX
10
8.73001
20
9.72531
30
7.4
0
VERTEX
10
8.73592
20
9.72975
30
7.4
0
VERTEX
10
8.7374
20
9.73419
30
7.4
0
VERTEX
10
8.74775
20
9.74454
30
7.4
0
VERTEX
10
8.75219
20
9.74897
30
7.4
0
VERTEX
10
8.75663
20
9.76081
30
7.4
0
VERTEX
10
8.76254
20
9.76672
30
7.4
0
VERTEX
10
8.77881
20
9.78743
30
7.4
0
VERTEX
10
8.79064
20
9.79482
30
7.4
0
VERTEX
10
8.7936
20
9.79926
30
7.4
0
VERTEX
10
8.79951
20
9.80517
30
7.4
0
VERTEX
10
8.81282
20
9.82736
30
7.4
0
VERTEX
10
8.8143
20
9.83919
30
7.4
0
VERTEX
10
8.81726
20
9.8451
30
7.4
0
VERTEX
10
8.81726
20
9.85693
30
7.4
0
VERTEX
10
8.80987
20
9.8806
30
7.4
0
VERTEX
10
8.80395
20
9.88651
30
7.4
0
VERTEX
10
8.79212
20
9.89095
30
7.4
0
VERTEX
10
8.7862
20
9.89095
30
7.4
0
VERTEX
10
8.78325
20
9.89095
30
7.4
0
VERTEX
10
8.77733
20
9.89539
30
7.4
0
VERTEX
10
8.75367
20
9.90278
30
7.4
0
VERTEX
10
8.75071
20
9.90574
30
7.4
0
VERTEX
10
8.74479
20
9.90574
30
7.4
0
VERTEX
10
8.73296
20
9.91165
30
7.4
0
VERTEX
10
8.72557
20
9.92349
30
7.4
0
VERTEX
10
8.71522
20
9.93236
30
7.4
0
VERTEX
10
8.70486
20
9.94419
30
7.4
0
VERTEX
10
8.69451
20
9.95158
30
7.4
0
VERTEX
10
8.6886
20
9.9575
30
7.4
0
VERTEX
10
8.68712
20
9.96046
30
7.4
0
VERTEX
10
8.6812
20
9.96194
30
7.4
0
VERTEX
10
8.65754
20
9.97673
30
7.4
0
VERTEX
10
8.64571
20
9.98116
30
7.4
0
VERTEX
10
8.63979
20
9.98264
30
7.4
0
VERTEX
10
8.63683
20
9.98264
30
7.4
0
VERTEX
10
8.63388
20
9.9856
30
7.4
0
VERTEX
10
8.62796
20
9.98708
30
7.4
0
VERTEX
10
8.625
20
9.98708
30
7.4
0
VERTEX
10
8.62204
20
9.99004
30
7.4
0
VERTEX
10
8.61021
20
9.99299
30
7.4
0
VERTEX
10
8.59838
20
9.99891
30
7.4
0
VERTEX
10
8.59247
20
10.0004
30
7.4
0
VERTEX
10
8.58655
20
10.0048
30
7.4
0
VERTEX
10
8.58064
20
10.0063
30
7.4
0
VERTEX
10
8.55845
20
10.0241
30
7.4
0
VERTEX
10
8.54662
20
10.0314
30
7.4
0
VERTEX
10
8.54218
20
10.0359
30
7.4
0
VERTEX
10
8.53627
20
10.0374
30
7.4
0
VERTEX
10
8.52739
20
10.0462
30
7.4
0
VERTEX
10
8.50521
20
10.061
30
7.4
0
VERTEX
10
8.49486
20
10.0655
30
7.4
0
VERTEX
10
8.48894
20
10.0655
30
7.4
0
VERTEX
10
8.47711
20
10.0714
30
7.4
0
VERTEX
10
8.47268
20
10.0758
30
7.4
0
VERTEX
10
8.46676
20
10.0773
30
7.4
0
VERTEX
10
8.4638
20
10.0773
30
7.4
0
VERTEX
10
8.45789
20
10.0832
30
7.4
0
VERTEX
10
8.44605
20
10.0862
30
7.4
0
VERTEX
10
8.4357
20
10.095
30
7.4
0
VERTEX
10
8.42387
20
10.0995
30
7.4
0
VERTEX
10
8.40169
20
10.1157
30
7.4
0
VERTEX
10
8.39577
20
10.1157
30
7.4
0
VERTEX
10
8.38394
20
10.1246
30
7.4
0
VERTEX
10
8.37802
20
10.1261
30
7.4
0
VERTEX
10
8.35584
20
10.1424
30
7.4
0
VERTEX
10
8.34401
20
10.1512
30
7.4
0
VERTEX
10
8.33809
20
10.1557
30
7.4
0
VERTEX
10
8.31443
20
10.1645
30
7.4
0
VERTEX
10
8.29077
20
10.169
30
7.4
0
VERTEX
10
8.27894
20
10.1719
30
7.4
0
VERTEX
10
8.27302
20
10.1734
30
7.4
0
VERTEX
10
8.26119
20
10.1719
30
7.4
0
VERTEX
10
8.25823
20
10.169
30
7.4
0
VERTEX
10
8.2464
20
10.1675
30
7.4
0
VERTEX
10
8.23457
20
10.1616
30
7.4
0
VERTEX
10
8.22274
20
10.1586
30
7.4
0
VERTEX
10
8.17541
20
10.1542
30
7.4
0
VERTEX
10
8.16358
20
10.1542
30
7.4
0
VERTEX
10
8.13992
20
10.1498
30
7.4
0
VERTEX
10
8.12809
20
10.1453
30
7.4
0
VERTEX
10
8.10443
20
10.1424
30
7.4
0
VERTEX
10
8.10147
20
10.1424
30
7.4
0
VERTEX
10
8.09555
20
10.1379
30
7.4
0
VERTEX
10
8.08372
20
10.135
30
7.4
0
VERTEX
10
8.07781
20
10.135
30
7.4
0
VERTEX
10
8.05414
20
10.1276
30
7.4
0
VERTEX
10
8.04231
20
10.1231
30
7.4
0
VERTEX
10
8.03935
20
10.1231
30
7.4
0
VERTEX
10
8.03344
20
10.1187
30
7.4
0
VERTEX
10
8.02161
20
10.1143
30
7.4
0
VERTEX
10
8.00978
20
10.1069
30
7.4
0
VERTEX
10
8.00386
20
10.1054
30
7.4
0
VERTEX
10
7.99499
20
10.0965
30
7.4
0
VERTEX
10
7.98907
20
10.095
30
7.4
0
VERTEX
10
7.98316
20
10.0906
30
7.4
0
VERTEX
10
7.95949
20
10.0832
30
7.4
0
VERTEX
10
7.94766
20
10.0788
30
7.4
0
VERTEX
10
7.93583
20
10.0773
30
7.4
0
VERTEX
10
7.91365
20
10.0625
30
7.4
0
VERTEX
10
7.90329
20
10.0551
30
7.4
0
VERTEX
10
7.90329
20
10.0492
30
7.4
0
VERTEX
10
7.90034
20
10.0433
30
7.4
0
VERTEX
10
7.89886
20
10.0403
30
7.4
0
VERTEX
10
7.89294
20
10.0403
30
7.4
0
VERTEX
10
7.88703
20
10.0374
30
7.4
0
VERTEX
10
7.8752
20
10.0359
30
7.4
0
VERTEX
10
7.86484
20
10.0285
30
7.4
0
VERTEX
10
7.85893
20
10.0241
30
7.4
0
VERTEX
10
7.85597
20
10.0211
30
7.4
0
VERTEX
10
7.85005
20
10.0196
30
7.4
0
VERTEX
10
7.8397
20
10.0122
30
7.4
0
VERTEX
10
7.83674
20
10.0093
30
7.4
0
VERTEX
10
7.82491
20
10.0078
30
7.4
0
VERTEX
10
7.82195
20
10.0048
30
7.4
0
VERTEX
10
7.79829
20
9.99743
30
7.4
0
VERTEX
10
7.77463
20
9.99595
30
7.4
0
VERTEX
10
7.75097
20
9.99004
30
7.4
0
VERTEX
10
7.73914
20
9.98116
30
7.4
0
VERTEX
10
7.73766
20
9.96933
30
7.4
0
VERTEX
10
7.73766
20
9.96785
30
7.4
0
SEQEND
0
POLYLINE
62
31
66
1
70
1
3
contour
0
VERTEX
10
7.48033
20
10.1793
30
7.4
0
VERTEX
10
7.48181
20
10.1675
30
7.4
0
VERTEX
10
7.48181
20
10.1616
30
7.4
0
VERTEX
10
7.48476
20
10.1557
30
7.4
0
VERTEX
10
7.49512
20
10.1468
30
7.4
0
VERTEX
10
7.49955
20
10.1424
30
7.4
0
VERTEX
10
7.50103
20
10.1364
30
7.4
0
VERTEX
10
7.50251
20
10.1335
30
7.4
0
VERTEX
10
7.51434
20
10.132
30
7.4
0
VERTEX
10
7.5173
20
10.132
30
7.4
0
VERTEX
10
7.51878
20
10.135
30
7.4
0
VERTEX
10
7.53061
20
10.1364
30
7.4
0
VERTEX
10
7.54096
20
10.1409
30
7.4
0
VERTEX
10
7.55279
20
10.1424
30
7.4
0
VERTEX
10
7.55871
20
10.1468
30
7.4
0
VERTEX
10
7.56462
20
10.1483
30
7.4
0
VERTEX
10
7.57498
20
10.1572
30
7.4
0
VERTEX
10
7.57793
20
10.1601
30
7.4
0
VERTEX
10
7.57941
20
10.166
30
7.4
0
VERTEX
10
7.58385
20
10.169
30
7.4
0
VERTEX
10
7.58681
20
10.1749
30
7.4
0
VERTEX
10
7.59864
20
10.1779
30
7.4
0
VERTEX
10
7.60455
20
10.1808
30
7.4
0
VERTEX
10
7.60751
20
10.1823
30
7.4
0
VERTEX
10
7.60751
20
10.1853
30
7.4
0
VERTEX
10
7.61343
20
10.1882
30
7.4
0
VERTEX
10
7.61343
20
10.1912
30
7.4
0
VERTEX
10
7.62378
20
10.203
30
7.4
0
VERTEX
10
7.63118
20
10.2148
30
7.4
0
VERTEX
10
7.63413
20
10.2207
30
7.4
0
VERTEX
10
7.63709
20
10.2222
30
7.4
0
VERTEX
10
7.63709
20
10.2459
30
7.4
0
VERTEX
10
7.63709
20
10.2577
30
7.4
0
VERTEX
10
7.63561
20
10.2636
30
7.4
0
VERTEX
10
7.62674
20
10.274
30
7.4
0
VERTEX
10
7.6223
20
10.2814
30
7.4
0
VERTEX
10
7.59864
20
10.2843
30
7.4
0
VERTEX
10
7.58681
20
10.2858
30
7.4
0
VERTEX
10
7.57498
20
10.2843
30
7.4
0
VERTEX
10
7.56906
20
10.2799
30
7.4
0
VERTEX
10
7.55723
20
10.2784
30
7.4
0
VERTEX
10
7.55131
20
10.274
30
7.4
0
VERTEX
10
7.54836
20
10.274
30
7.4
0
VERTEX
10
7.5454
20
10.271
30
7.4
0
VERTEX
10
7.53357
20
10.2666
30
7.4
0
VERTEX
10
7.52174
20
10.2562
30
7.4
0
VERTEX
10
7.5173
20
10.2503
30
7.4
0
VERTEX
10
7.5173
20
10.2474
30
7.4
0
VERTEX
10
7.49512
20
10.2267
30
7.4
0
VERTEX
10
7.48624
20
10.2163
30
7.4
0
VERTEX
10
7.48328
20
10.2134
30
7.4
0
VERTEX
10
7.48033
20
10.1897
30
7.4
0
VERTEX
10
7.48033
20
10.1838
30
7.4
0
VERTEX
10
7.48033
20
10.1808
30
7.4
0
SEQEND
0
POLYLINE
62
31
66
1
70
1
3
contour
0
VERTEX
10
7.18602
20
9.62031
30
7.4
0
VERTEX
10
7.19046
20
9.60848
30
7.4
0
VERTEX
10
7.19046
20
9.58482
30
7.4
0
VERTEX
10
7.19342
20
9.57298
30
7.4
0
VERTEX
10
7.19342
20
9.56707
30
7.4
0
VERTEX
10
7.19342
20
9.56411
30
7.4
0
VERTEX
10
7.19933
20
9.55967
30
7.4
0
VERTEX
10
7.20377
20
9.54932
30
7.4
0
VERTEX
10
7.21708
20
9.52566
30
7.4
0
VERTEX
10
7.22004
20
9.52418
30
7.4
0
VERTEX
10
7.22004
20
9.51826
30
7.4
0
VERTEX
10
7.22743
20
9.50643
30
7.4
0
VERTEX
10
7.22743
20
9.50348
30
7.4
0
VERTEX
10
7.2511
20
9.48869
30
7.4
0
VERTEX
10
7.26293
20
9.48721
30
7.4
0
VERTEX
10
7.27476
20
9.49164
30
7.4
0
VERTEX
10
7.27624
20
9.50348
30
7.4
0
VERTEX
10
7.27624
20
9.50939
30
7.4
0
VERTEX
10
7.2718
20
9.52122
30
7.4
0
VERTEX
10
7.27032
20
9.52714
30
7.4
0
VERTEX
10
7.26736
20
9.5301
30
7.4
0
VERTEX
10
7.26588
20
9.53601
30
7.4
0
VERTEX
10
7.26145
20
9.54193
30
7.4
0
VERTEX
10
7.25849
20
9.55376
30
7.4
0
VERTEX
10
7.25553
20
9.55672
30
7.4
0
VERTEX
10
7.25405
20
9.56263
30
7.4
0
VERTEX
10
7.24666
20
9.57446
30
7.4
0
VERTEX
10
7.23779
20
9.59665
30
7.4
0
VERTEX
10
7.22891
20
9.60848
30
7.4
0
VERTEX
10
7.22743
20
9.63214
30
7.4
0
VERTEX
10
7.22891
20
9.6558
30
7.4
0
VERTEX
10
7.23039
20
9.66763
30
7.4
0
VERTEX
10
7.23187
20
9.67355
30
7.4
0
VERTEX
10
7.23483
20
9.67651
30
7.4
0
VERTEX
10
7.24222
20
9.70017
30
7.4
0
VERTEX
10
7.24962
20
9.712
30
7.4
0
VERTEX
10
7.25257
20
9.71792
30
7.4
0
VERTEX
10
7.26441
20
9.72531
30
7.4
0
VERTEX
10
7.27032
20
9.72827
30
7.4
0
VERTEX
10
7.2718
20
9.72975
30
7.4
0
VERTEX
10
7.26884
20
9.73123
30
7.4
0
VERTEX
10
7.26293
20
9.72975
30
7.4
0
VERTEX
10
7.25997
20
9.72975
30
7.4
0
VERTEX
10
7.2511
20
9.72088
30
7.4
0
VERTEX
10
7.23926
20
9.71496
30
7.4
0
VERTEX
10
7.23039
20
9.70313
30
7.4
0
VERTEX
10
7.22743
20
9.70313
30
7.4
0
VERTEX
10
7.22152
20
9.69721
30
7.4
0
VERTEX
10
7.21116
20
9.69278
30
7.4
0
VERTEX
10
7.20081
20
9.68242
30
7.4
0
VERTEX
10
7.20081
20
9.67947
30
7.4
0
VERTEX
10
7.1949
20
9.67503
30
7.4
0
VERTEX
10
7.19342
20
9.66911
30
7.4
0
VERTEX
10
7.18898
20
9.6632
30
7.4
0
VERTEX
10
7.18602
20
9.63953
30
7.4
0
VERTEX
10
7.18602
20
9.6277
30
7.4
0
VERTEX
10
7.18602
20
9.62179
30
7.4
0
SEQEND
0
ENDSEC
0
EOF
