0
SECTION
2
ENTITIES
0
POLYLINE
62
31
66
1
70
1
3
contour
0
VERTEX
10
8.79189
20
9.00697
30
5.44
0
VERTEX
10
8.79411
20
8.9981
30
5.44
0
VERTEX
10
8.8185
20
8.96484
30
5.44
0
VERTEX
10
8.82958
20
8.9471
30
5.44
0
VERTEX
10
8.85619
20
8.91828
30
5.44
0
VERTEX
10
8.87393
20
8.90054
30
5.44
0
VERTEX
10
8.88724
20
8.88724
30
5.44
0
VERTEX
10
8.89611
20
8.88502
30
5.44
0
VERTEX
10
8.91384
20
8.87393
30
5.44
0
VERTEX
10
8.93158
20
8.8695
30
5.44
0
VERTEX
10
9.00254
20
8.87171
30
5.44
0
VERTEX
10
9.02028
20
8.87393
30
5.44
0
VERTEX
10
9.05576
20
8.88502
30
5.44
0
VERTEX
10
9.06019
20
8.88502
30
5.44
0
VERTEX
10
9.06463
20
8.88945
30
5.44
0
VERTEX
10
9.08236
20
8.89389
30
5.44
0
VERTEX
10
9.0868
20
8.89389
30
5.44
0
VERTEX
10
9.09123
20
8.89832
30
5.44
0
VERTEX
10
9.09567
20
8.89832
30
5.44
0
VERTEX
10
9.1001
20
8.90276
30
5.44
0
VERTEX
10
9.10454
20
8.90276
30
5.44
0
VERTEX
10
9.13558
20
8.92937
30
5.44
0
VERTEX
10
9.14002
20
8.93824
30
5.44
0
VERTEX
10
9.14445
20
8.93824
30
5.44
0
VERTEX
10
9.16884
20
8.96706
30
5.44
0
VERTEX
10
9.17771
20
8.9848
30
5.44
0
VERTEX
10
9.19323
20
9.00032
30
5.44
0
VERTEX
10
9.19323
20
9.00476
30
5.44
0
VERTEX
10
9.20654
20
9.02028
30
5.44
0
VERTEX
10
9.21097
20
9.02471
30
5.44
0
VERTEX
10
9.21097
20
9.02915
30
5.44
0
VERTEX
10
9.21762
20
9.03802
30
5.44
0
VERTEX
10
9.23093
20
9.0735
30
5.44
0
VERTEX
10
9.23758
20
9.09123
30
5.44
0
VERTEX
10
9.2398
20
9.1001
30
5.44
0
VERTEX
10
9.24423
20
9.10454
30
5.44
0
VERTEX
10
9.26419
20
9.17549
30
5.44
0
VERTEX
10
9.26419
20
9.24645
30
5.44
0
VERTEX
10
9.26197
20
9.26419
30
5.44
0
VERTEX
10
9.26197
20
9.27306
30
5.44
0
VERTEX
10
9.26197
20
9.27749
30
5.44
0
VERTEX
10
9.25532
20
9.28636
30
5.44
0
VERTEX
10
9.25089
20
9.2908
30
5.44
0
VERTEX
10
9.25089
20
9.29523
30
5.44
0
VERTEX
10
9.2398
20
9.31075
30
5.44
0
VERTEX
10
9.23093
20
9.31741
30
5.44
0
VERTEX
10
9.20876
20
9.35067
30
5.44
0
VERTEX
10
9.19323
20
9.36619
30
5.44
0
VERTEX
10
9.1888
20
9.37062
30
5.44
0
VERTEX
10
9.18658
20
9.37949
30
5.44
0
VERTEX
10
9.17106
20
9.39058
30
5.44
0
VERTEX
10
9.16441
20
9.39501
30
5.44
0
VERTEX
10
9.15997
20
9.39501
30
5.44
0
VERTEX
10
9.15332
20
9.40167
30
5.44
0
VERTEX
10
9.11784
20
9.40167
30
5.44
0
VERTEX
10
9.1001
20
9.4061
30
5.44
0
VERTEX
10
9.06463
20
9.40832
30
5.44
0
VERTEX
10
9.04689
20
9.41054
30
5.44
0
VERTEX
10
9.03802
20
9.41497
30
5.44
0
VERTEX
10
9.00254
20
9.41719
30
5.44
0
VERTEX
10
8.96706
20
9.42828
30
5.44
0
VERTEX
10
8.93158
20
9.43271
30
5.44
0
VERTEX
10
8.89611
20
9.43049
30
5.44
0
VERTEX
10
8.86063
20
9.41497
30
5.44
0
VERTEX
10
8.85398
20
9.4061
30
5.44
0
VERTEX
10
8.84954
20
9.33515
30
5.44
0
VERTEX
10
8.84067
20
9.29967
30
5.44
0
VERTEX
10
8.8318
20
9.30188
30
5.44
0
VERTEX
10
8.82071
20
9.26641
30
5.44
0
VERTEX
10
8.81406
20
9.23093
30
5.44
0
VERTEX
10
8.81628
20
9.19545
30
5.44
0
VERTEX
10
8.80963
20
9.12449
30
5.44
0
VERTEX
10
8.80963
20
9.10676
30
5.44
0
VERTEX
10
8.80519
20
9.08902
30
5.44
0
VERTEX
10
8.80298
20
9.08015
30
5.44
0
VERTEX
10
8.80298
20
9.07571
30
5.44
0
VERTEX
10
8.79854
20
9.07128
30
5.44
0
VERTEX
10
8.79189
20
9.0358
30
5.44
0
VERTEX
10
8.79189
20
9.01806
30
5.44
0
VERTEX
10
8.79189
20
9.00919
30
5.44
0
SEQEND
0
POLYLINE
62
224
66
1
70
1
3
mitochondrion
0
VERTEX
10
9.03362
20
9.1101
30
5.44
0
VERTEX
10
9.0364
20
9.10454
30
5.44
0
VERTEX
10
9.0364
20
9.09341
30
5.44
0
VERTEX
10
9.03918
20
9.08229
30
5.44
0
VERTEX
10
9.03918
20
9.07673
30
5.44
0
VERTEX
10
9.04892
20
9.05448
30
5.44
0
VERTEX
10
9.05309
20
9.04892
30
5.44
0
VERTEX
10
9.05587
20
9.04614
30
5.44
0
VERTEX
10
9.05865
20
9.04614
30
5.44
0
VERTEX
10
9.06004
20
9.04058
30
5.44
0
VERTEX
10
9.06977
20
9.03084
30
5.44
0
VERTEX
10
9.0809
20
9.02667
30
5.44
0
VERTEX
10
9.12539
20
9.02667
30
5.44
0
VERTEX
10
9.12817
20
9.02945
30
5.44
0
VERTEX
10
9.13373
20
9.03084
30
5.44
0
VERTEX
10
9.14347
20
9.03779
30
5.44
0
VERTEX
10
9.15042
20
9.04892
30
5.44
0
VERTEX
10
9.15459
20
9.05448
30
5.44
0
VERTEX
10
9.15876
20
9.06421
30
5.44
0
VERTEX
10
9.16293
20
9.06977
30
5.44
0
VERTEX
10
9.16849
20
9.07116
30
5.44
0
VERTEX
10
9.17823
20
9.09202
30
5.44
0
VERTEX
10
9.18796
20
9.10314
30
5.44
0
VERTEX
10
9.18935
20
9.10871
30
5.44
0
VERTEX
10
9.19491
20
9.11427
30
5.44
0
VERTEX
10
9.20187
20
9.124
30
5.44
0
VERTEX
10
9.20604
20
9.13512
30
5.44
0
VERTEX
10
9.20743
20
9.14069
30
5.44
0
VERTEX
10
9.21438
20
9.15042
30
5.44
0
VERTEX
10
9.21577
20
9.17267
30
5.44
0
VERTEX
10
9.21438
20
9.19491
30
5.44
0
VERTEX
10
9.21299
20
9.20604
30
5.44
0
VERTEX
10
9.2116
20
9.2116
30
5.44
0
VERTEX
10
9.19491
20
9.22967
30
5.44
0
VERTEX
10
9.19074
20
9.23524
30
5.44
0
VERTEX
10
9.17962
20
9.23941
30
5.44
0
VERTEX
10
9.16989
20
9.24636
30
5.44
0
VERTEX
10
9.15876
20
9.25053
30
5.44
0
VERTEX
10
9.13651
20
9.25192
30
5.44
0
VERTEX
10
9.12539
20
9.25053
30
5.44
0
VERTEX
10
9.11983
20
9.24914
30
5.44
0
VERTEX
10
9.11427
20
9.24497
30
5.44
0
VERTEX
10
9.10871
20
9.24497
30
5.44
0
VERTEX
10
9.09897
20
9.23941
30
5.44
0
VERTEX
10
9.0948
20
9.23524
30
5.44
0
VERTEX
10
9.09202
20
9.23524
30
5.44
0
VERTEX
10
9.08646
20
9.22967
30
5.44
0
VERTEX
10
9.08507
20
9.22411
30
5.44
0
VERTEX
10
9.07673
20
9.21577
30
5.44
0
VERTEX
10
9.07534
20
9.20465
30
5.44
0
VERTEX
10
9.07256
20
9.20187
30
5.44
0
VERTEX
10
9.07256
20
9.19908
30
5.44
0
VERTEX
10
9.0656
20
9.18935
30
5.44
0
VERTEX
10
9.05587
20
9.17962
30
5.44
0
VERTEX
10
9.05309
20
9.17406
30
5.44
0
VERTEX
10
9.05309
20
9.16849
30
5.44
0
VERTEX
10
9.04892
20
9.16432
30
5.44
0
VERTEX
10
9.04753
20
9.1532
30
5.44
0
VERTEX
10
9.04336
20
9.14208
30
5.44
0
VERTEX
10
9.04197
20
9.13095
30
5.44
0
VERTEX
10
9.04197
20
9.12817
30
5.44
0
VERTEX
10
9.0364
20
9.13095
30
5.44
0
VERTEX
10
9.03501
20
9.13234
30
5.44
0
VERTEX
10
9.03362
20
9.11149
30
5.44
0
SEQEND
0
POLYLINE
62
227
66
1
70
1
3
endoplasmic_reticulum
0
VERTEX
10
8.99695
20
9.23814
30
5.44
0
VERTEX
10
9.0149
20
9.2359
30
5.44
0
VERTEX
10
9.03285
20
9.23702
30
5.44
0
VERTEX
10
9.04183
20
9.24151
30
5.44
0
VERTEX
10
9.05978
20
9.24712
30
5.44
0
VERTEX
10
9.06314
20
9.25161
30
5.44
0
VERTEX
10
9.06314
20
9.25609
30
5.44
0
VERTEX
10
9.0508
20
9.26843
30
5.44
0
VERTEX
10
9.04744
20
9.2718
30
5.44
0
VERTEX
10
9.02949
20
9.2718
30
5.44
0
VERTEX
10
9.025
20
9.27068
30
5.44
0
VERTEX
10
9.02276
20
9.27068
30
5.44
0
VERTEX
10
9.01827
20
9.26731
30
5.44
0
VERTEX
10
9.01378
20
9.26619
30
5.44
0
VERTEX
10
9.01042
20
9.26282
30
5.44
0
VERTEX
10
9.00256
20
9.25946
30
5.44
0
VERTEX
10
8.99808
20
9.25609
30
5.44
0
VERTEX
10
8.99695
20
9.23927
30
5.44
0
SEQEND
0
POLYLINE
62
227
66
1
70
1
3
endoplasmic_reticulum
0
VERTEX
10
8.92291
20
9.18878
30
5.44
0
VERTEX
10
8.92852
20
9.18205
30
5.44
0
VERTEX
10
8.94647
20
9.18093
30
5.44
0
VERTEX
10
8.95096
20
9.18093
30
5.44
0
VERTEX
10
8.96442
20
9.19551
30
5.44
0
VERTEX
10
8.96779
20
9.20449
30
5.44
0
VERTEX
10
8.96554
20
9.22244
30
5.44
0
VERTEX
10
8.96218
20
9.22468
30
5.44
0
VERTEX
10
8.96218
20
9.22693
30
5.44
0
VERTEX
10
8.95769
20
9.22805
30
5.44
0
VERTEX
10
8.94872
20
9.22693
30
5.44
0
VERTEX
10
8.93974
20
9.22356
30
5.44
0
VERTEX
10
8.93189
20
9.21795
30
5.44
0
VERTEX
10
8.9274
20
9.20898
30
5.44
0
VERTEX
10
8.92404
20
9.20561
30
5.44
0
VERTEX
10
8.92291
20
9.19664
30
5.44
0
VERTEX
10
8.92291
20
9.19215
30
5.44
0
VERTEX
10
8.92291
20
9.18991
30
5.44
0
SEQEND
0
POLYLINE
62
227
66
1
70
1
3
endoplasmic_reticulum
0
VERTEX
10
8.92516
20
9.10353
30
5.44
0
VERTEX
10
8.92852
20
9.09904
30
5.44
0
VERTEX
10
8.92852
20
9.08109
30
5.44
0
VERTEX
10
8.92964
20
9.07211
30
5.44
0
VERTEX
10
8.93077
20
9.06763
30
5.44
0
VERTEX
10
8.93077
20
9.06538
30
5.44
0
VERTEX
10
8.93413
20
9.06202
30
5.44
0
VERTEX
10
8.93525
20
9.05753
30
5.44
0
VERTEX
10
8.93974
20
9.05304
30
5.44
0
VERTEX
10
8.94872
20
9.04856
30
5.44
0
VERTEX
10
8.9532
20
9.04744
30
5.44
0
VERTEX
10
8.96218
20
9.04968
30
5.44
0
VERTEX
10
8.96891
20
9.05641
30
5.44
0
VERTEX
10
8.97115
20
9.05641
30
5.44
0
VERTEX
10
8.9734
20
9.0609
30
5.44
0
VERTEX
10
8.97227
20
9.07885
30
5.44
0
VERTEX
10
8.97003
20
9.08782
30
5.44
0
VERTEX
10
8.97115
20
9.12372
30
5.44
0
VERTEX
10
8.9633
20
9.13045
30
5.44
0
VERTEX
10
8.94535
20
9.13157
30
5.44
0
VERTEX
10
8.94086
20
9.13157
30
5.44
0
VERTEX
10
8.93862
20
9.13157
30
5.44
0
VERTEX
10
8.93638
20
9.12708
30
5.44
0
VERTEX
10
8.93638
20
9.12484
30
5.44
0
VERTEX
10
8.92852
20
9.11811
30
5.44
0
VERTEX
10
8.92516
20
9.11362
30
5.44
0
VERTEX
10
8.92516
20
9.10465
30
5.44
0
SEQEND
0
ENDSEC
0
EOF
