0
SECTION
2
ENTITIES
0
POLYLINE
62
31
66
1
70
1
3
contour
0
VERTEX
10
6.71102
20
10.9712
30
10.52
0
VERTEX
10
6.71475
20
10.9115
30
10.52
0
VERTEX
10
6.74086
20
10.8518
30
10.52
0
VERTEX
10
6.76325
20
10.8219
30
10.52
0
VERTEX
10
6.77071
20
10.807
30
10.52
0
VERTEX
10
6.82666
20
10.7697
30
10.52
0
VERTEX
10
6.83412
20
10.7697
30
10.52
0
VERTEX
10
6.86397
20
10.7473
30
10.52
0
VERTEX
10
6.91992
20
10.7212
30
10.52
0
VERTEX
10
6.93485
20
10.71
30
10.52
0
VERTEX
10
6.99453
20
10.6951
30
10.52
0
VERTEX
10
7.02438
20
10.6839
30
10.52
0
VERTEX
10
7.14375
20
10.6802
30
10.52
0
VERTEX
10
7.17359
20
10.6839
30
10.52
0
VERTEX
10
7.18851
20
10.6876
30
10.52
0
VERTEX
10
7.19598
20
10.6951
30
10.52
0
VERTEX
10
7.2109
20
10.6988
30
10.52
0
VERTEX
10
7.21836
20
10.7063
30
10.52
0
VERTEX
10
7.22582
20
10.7063
30
10.52
0
VERTEX
10
7.25566
20
10.7287
30
10.52
0
VERTEX
10
7.31535
20
10.7548
30
10.52
0
VERTEX
10
7.3713
20
10.7884
30
10.52
0
VERTEX
10
7.38623
20
10.7921
30
10.52
0
VERTEX
10
7.39742
20
10.807
30
10.52
0
VERTEX
10
7.41234
20
10.807
30
10.52
0
VERTEX
10
7.4198
20
10.8145
30
10.52
0
VERTEX
10
7.44964
20
10.8145
30
10.52
0
VERTEX
10
7.46457
20
10.8145
30
10.52
0
VERTEX
10
7.47203
20
10.807
30
10.52
0
VERTEX
10
7.5914
20
10.7921
30
10.52
0
VERTEX
10
7.62124
20
10.7958
30
10.52
0
VERTEX
10
7.6287
20
10.7958
30
10.52
0
VERTEX
10
7.65482
20
10.8219
30
10.52
0
VERTEX
10
7.66974
20
10.8257
30
10.52
0
VERTEX
10
7.71823
20
10.8742
30
10.52
0
VERTEX
10
7.73316
20
10.8891
30
10.52
0
VERTEX
10
7.763
20
10.8965
30
10.52
0
VERTEX
10
7.82269
20
10.9003
30
10.52
0
VERTEX
10
7.85253
20
10.9003
30
10.52
0
VERTEX
10
7.86745
20
10.904
30
10.52
0
VERTEX
10
7.87491
20
10.904
30
10.52
0
VERTEX
10
7.88237
20
10.9115
30
10.52
0
VERTEX
10
7.91222
20
10.9115
30
10.52
0
VERTEX
10
7.9719
20
10.9227
30
10.52
0
VERTEX
10
8.00175
20
10.9339
30
10.52
0
VERTEX
10
8.00921
20
10.9413
30
10.52
0
VERTEX
10
8.02413
20
10.9413
30
10.52
0
VERTEX
10
8.03905
20
10.9525
30
10.52
0
VERTEX
10
8.04651
20
10.9525
30
10.52
0
VERTEX
10
8.07635
20
10.9712
30
10.52
0
VERTEX
10
8.08754
20
10.9786
30
10.52
0
VERTEX
10
8.09874
20
10.9935
30
10.52
0
VERTEX
10
8.1062
20
10.9973
30
10.52
0
VERTEX
10
8.11366
20
11.057
30
10.52
0
VERTEX
10
8.12112
20
11.0644
30
10.52
0
VERTEX
10
8.11739
20
11.0793
30
10.52
0
VERTEX
10
7.87864
20
11.098
30
10.52
0
VERTEX
10
7.86372
20
11.1017
30
10.52
0
VERTEX
10
7.8488
20
11.098
30
10.52
0
VERTEX
10
7.8488
20
11.0905
30
10.52
0
VERTEX
10
7.78911
20
11.0644
30
10.52
0
VERTEX
10
7.763
20
11.0458
30
10.52
0
VERTEX
10
7.72942
20
10.9935
30
10.52
0
VERTEX
10
7.72196
20
10.9786
30
10.52
0
VERTEX
10
7.70704
20
10.9674
30
10.52
0
VERTEX
10
7.58767
20
10.9562
30
10.52
0
VERTEX
10
7.34892
20
10.9674
30
10.52
0
VERTEX
10
7.28924
20
10.9674
30
10.52
0
VERTEX
10
7.25939
20
10.9637
30
10.52
0
VERTEX
10
7.24447
20
10.9562
30
10.52
0
VERTEX
10
7.1251
20
10.96
30
10.52
0
VERTEX
10
7.09525
20
10.9674
30
10.52
0
VERTEX
10
7.08033
20
10.9712
30
10.52
0
VERTEX
10
7.05049
20
10.9898
30
10.52
0
VERTEX
10
7.02065
20
10.9973
30
10.52
0
VERTEX
10
6.9908
20
11.0159
30
10.52
0
VERTEX
10
6.97588
20
11.0308
30
10.52
0
VERTEX
10
6.96096
20
11.0346
30
10.52
0
VERTEX
10
6.93485
20
11.057
30
10.52
0
VERTEX
10
6.92365
20
11.0681
30
10.52
0
VERTEX
10
6.89381
20
11.0793
30
10.52
0
VERTEX
10
6.83412
20
11.0831
30
10.52
0
VERTEX
10
6.80428
20
11.0793
30
10.52
0
VERTEX
10
6.78936
20
11.0793
30
10.52
0
VERTEX
10
6.73713
20
11.0383
30
10.52
0
VERTEX
10
6.71102
20
11.0122
30
10.52
0
VERTEX
10
6.71102
20
10.9823
30
10.52
0
VERTEX
10
6.71102
20
10.9749
30
10.52
0
SEQEND
0
POLYLINE
62
227
66
1
70
1
3
endoplasmic_reticulum
0
VERTEX
10
7.09975
20
10.8715
30
10.52
0
VERTEX
10
7.10244
20
10.8679
30
10.52
0
VERTEX
10
7.11678
20
10.8617
30
10.52
0
VERTEX
10
7.11858
20
10.8608
30
10.52
0
VERTEX
10
7.11858
20
10.859
30
10.52
0
VERTEX
10
7.12216
20
10.8563
30
10.52
0
VERTEX
10
7.12396
20
10.8563
30
10.52
0
VERTEX
10
7.1383
20
10.8455
30
10.52
0
VERTEX
10
7.14458
20
10.8428
30
10.52
0
VERTEX
10
7.14816
20
10.8419
30
10.52
0
VERTEX
10
7.15175
20
10.8392
30
10.52
0
VERTEX
10
7.18044
20
10.8366
30
10.52
0
VERTEX
10
7.20913
20
10.8357
30
10.52
0
VERTEX
10
7.23782
20
10.8366
30
10.52
0
VERTEX
10
7.2414
20
10.8374
30
10.52
0
VERTEX
10
7.24768
20
10.8428
30
10.52
0
VERTEX
10
7.25126
20
10.8455
30
10.52
0
VERTEX
10
7.25306
20
10.8455
30
10.52
0
VERTEX
10
7.25575
20
10.8491
30
10.52
0
VERTEX
10
7.25844
20
10.8563
30
10.52
0
VERTEX
10
7.25754
20
10.8706
30
10.52
0
VERTEX
10
7.25126
20
10.8769
30
10.52
0
VERTEX
10
7.24768
20
10.8796
30
10.52
0
VERTEX
10
7.24678
20
10.8832
30
10.52
0
VERTEX
10
7.24051
20
10.8886
30
10.52
0
VERTEX
10
7.23692
20
10.8894
30
10.52
0
VERTEX
10
7.22975
20
10.8939
30
10.52
0
VERTEX
10
7.2154
20
10.8993
30
10.52
0
VERTEX
10
7.20823
20
10.9029
30
10.52
0
VERTEX
10
7.15085
20
10.902
30
10.52
0
VERTEX
10
7.14727
20
10.902
30
10.52
0
VERTEX
10
7.13292
20
10.8975
30
10.52
0
VERTEX
10
7.11858
20
10.8975
30
10.52
0
VERTEX
10
7.1114
20
10.8957
30
10.52
0
VERTEX
10
7.10782
20
10.8948
30
10.52
0
VERTEX
10
7.10602
20
10.8948
30
10.52
0
VERTEX
10
7.10423
20
10.893
30
10.52
0
VERTEX
10
7.10065
20
10.893
30
10.52
0
VERTEX
10
7.09975
20
10.8787
30
10.52
0
VERTEX
10
7.09975
20
10.8724
30
10.52
0
SEQEND
0
POLYLINE
62
227
66
1
70
1
3
endoplasmic_reticulum
0
VERTEX
10
6.97065
20
10.7971
30
10.52
0
VERTEX
10
6.9823
20
10.7837
30
10.52
0
VERTEX
10
6.98947
20
10.7792
30
10.52
0
VERTEX
10
6.99575
20
10.7729
30
10.52
0
VERTEX
10
7.00292
20
10.7711
30
10.52
0
VERTEX
10
7.01727
20
10.772
30
10.52
0
VERTEX
10
7.02444
20
10.7738
30
10.52
0
VERTEX
10
7.03699
20
10.7828
30
10.52
0
VERTEX
10
7.03878
20
10.7846
30
10.52
0
VERTEX
10
7.04237
20
10.7854
30
10.52
0
VERTEX
10
7.04416
20
10.7854
30
10.52
0
VERTEX
10
7.04596
20
10.789
30
10.52
0
VERTEX
10
7.04954
20
10.7917
30
10.52
0
VERTEX
10
7.05313
20
10.7926
30
10.52
0
VERTEX
10
7.05582
20
10.7962
30
10.52
0
VERTEX
10
7.05671
20
10.7998
30
10.52
0
VERTEX
10
7.05582
20
10.8034
30
10.52
0
VERTEX
10
7.05582
20
10.8052
30
10.52
0
VERTEX
10
7.05044
20
10.8106
30
10.52
0
VERTEX
10
7.04506
20
10.824
30
10.52
0
VERTEX
10
7.04237
20
10.8276
30
10.52
0
VERTEX
10
7.04237
20
10.8294
30
10.52
0
VERTEX
10
7.03609
20
10.8357
30
10.52
0
VERTEX
10
7.0334
20
10.8383
30
10.52
0
VERTEX
10
7.02982
20
10.8392
30
10.52
0
VERTEX
10
7.02713
20
10.8428
30
10.52
0
VERTEX
10
7.02444
20
10.85
30
10.52
0
VERTEX
10
7.02354
20
10.8536
30
10.52
0
VERTEX
10
7.02085
20
10.8563
30
10.52
0
VERTEX
10
7.00651
20
10.8554
30
10.52
0
VERTEX
10
7.00471
20
10.8536
30
10.52
0
VERTEX
10
6.99754
20
10.8518
30
10.52
0
VERTEX
10
6.99306
20
10.8455
30
10.52
0
VERTEX
10
6.99037
20
10.8419
30
10.52
0
VERTEX
10
6.98858
20
10.841
30
10.52
0
VERTEX
10
6.98768
20
10.8374
30
10.52
0
VERTEX
10
6.9814
20
10.8312
30
10.52
0
VERTEX
10
6.98051
20
10.8294
30
10.52
0
VERTEX
10
6.97871
20
10.8294
30
10.52
0
VERTEX
10
6.97603
20
10.8258
30
10.52
0
VERTEX
10
6.97513
20
10.8186
30
10.52
0
VERTEX
10
6.97334
20
10.8168
30
10.52
0
VERTEX
10
6.97065
20
10.8097
30
10.52
0
VERTEX
10
6.97065
20
10.8025
30
10.52
0
VERTEX
10
6.97065
20
10.7989
30
10.52
0
VERTEX
10
6.97065
20
10.798
30
10.52
0
SEQEND
0
POLYLINE
62
227
66
1
70
1
3
endoplasmic_reticulum
0
VERTEX
10
7.33195
20
10.8258
30
10.52
0
VERTEX
10
7.33464
20
10.8222
30
10.52
0
VERTEX
10
7.33644
20
10.8204
30
10.52
0
VERTEX
10
7.34002
20
10.8204
30
10.52
0
VERTEX
10
7.3472
20
10.8159
30
10.52
0
VERTEX
10
7.35437
20
10.8132
30
10.52
0
VERTEX
10
7.36871
20
10.8132
30
10.52
0
VERTEX
10
7.37588
20
10.8159
30
10.52
0
VERTEX
10
7.38216
20
10.8222
30
10.52
0
VERTEX
10
7.38395
20
10.8231
30
10.52
0
VERTEX
10
7.38306
20
10.8374
30
10.52
0
VERTEX
10
7.37947
20
10.8383
30
10.52
0
VERTEX
10
7.37409
20
10.8446
30
10.52
0
VERTEX
10
7.3714
20
10.8482
30
10.52
0
VERTEX
10
7.36513
20
10.8518
30
10.52
0
VERTEX
10
7.35078
20
10.8518
30
10.52
0
VERTEX
10
7.34809
20
10.8545
30
10.52
0
VERTEX
10
7.33375
20
10.8509
30
10.52
0
VERTEX
10
7.33195
20
10.8491
30
10.52
0
VERTEX
10
7.33195
20
10.8348
30
10.52
0
VERTEX
10
7.33195
20
10.8276
30
10.52
0
VERTEX
10
7.33195
20
10.8267
30
10.52
0
SEQEND
0
ENDSEC
0
EOF
