0
SECTION
2
ENTITIES
0
POLYLINE
62
31
66
1
70
1
3
contour
0
VERTEX
10
7.59776
20
10.2807
30
8.44
0
VERTEX
10
7.61093
20
10.228
30
8.44
0
VERTEX
10
7.61422
20
10.2148
30
8.44
0
VERTEX
10
7.65044
20
10.1655
30
8.44
0
VERTEX
10
7.66031
20
10.1523
30
8.44
0
VERTEX
10
7.66689
20
10.1457
30
8.44
0
VERTEX
10
7.66689
20
10.1391
30
8.44
0
VERTEX
10
7.67677
20
10.126
30
8.44
0
VERTEX
10
7.68994
20
10.0733
30
8.44
0
VERTEX
10
7.69323
20
10.0206
30
8.44
0
VERTEX
10
7.69652
20
10.0075
30
8.44
0
VERTEX
10
7.71957
20
9.98441
30
8.44
0
VERTEX
10
7.73273
20
9.98112
30
8.44
0
VERTEX
10
7.73932
20
9.97453
30
8.44
0
VERTEX
10
7.75248
20
9.97124
30
8.44
0
VERTEX
10
7.76565
20
9.96137
30
8.44
0
VERTEX
10
7.77882
20
9.95807
30
8.44
0
VERTEX
10
7.80516
20
9.94162
30
8.44
0
VERTEX
10
7.85124
20
9.89882
30
8.44
0
VERTEX
10
7.87429
20
9.87907
30
8.44
0
VERTEX
10
7.88745
20
9.8659
30
8.44
0
VERTEX
10
7.91379
20
9.85603
30
8.44
0
VERTEX
10
7.94012
20
9.85932
30
8.44
0
VERTEX
10
7.96646
20
9.85603
30
8.44
0
VERTEX
10
7.9928
20
9.86261
30
8.44
0
VERTEX
10
8.00596
20
9.86919
30
8.44
0
VERTEX
10
8.01255
20
9.86919
30
8.44
0
VERTEX
10
8.02242
20
9.87907
30
8.44
0
VERTEX
10
8.02242
20
9.88565
30
8.44
0
VERTEX
10
8.07509
20
9.9087
30
8.44
0
VERTEX
10
8.08168
20
9.9087
30
8.44
0
VERTEX
10
8.09485
20
9.91857
30
8.44
0
VERTEX
10
8.10801
20
9.92186
30
8.44
0
VERTEX
10
8.12776
20
9.94162
30
8.44
0
VERTEX
10
8.14093
20
9.95149
30
8.44
0
VERTEX
10
8.17385
20
10.0009
30
8.44
0
VERTEX
10
8.17714
20
10.014
30
8.44
0
VERTEX
10
8.18702
20
10.0239
30
8.44
0
VERTEX
10
8.19031
20
10.0371
30
8.44
0
VERTEX
10
8.21335
20
10.0601
30
8.44
0
VERTEX
10
8.22323
20
10.07
30
8.44
0
VERTEX
10
8.22652
20
10.0963
30
8.44
0
VERTEX
10
8.24298
20
10.1194
30
8.44
0
VERTEX
10
8.24957
20
10.1325
30
8.44
0
VERTEX
10
8.24957
20
10.1391
30
8.44
0
VERTEX
10
8.25615
20
10.1457
30
8.44
0
VERTEX
10
8.25615
20
10.1523
30
8.44
0
VERTEX
10
8.26932
20
10.1655
30
8.44
0
VERTEX
10
8.27261
20
10.1786
30
8.44
0
VERTEX
10
8.27919
20
10.1786
30
8.44
0
VERTEX
10
8.29236
20
10.1885
30
8.44
0
VERTEX
10
8.29894
20
10.1951
30
8.44
0
VERTEX
10
8.30553
20
10.1951
30
8.44
0
VERTEX
10
8.32857
20
10.2181
30
8.44
0
VERTEX
10
8.35162
20
10.2346
30
8.44
0
VERTEX
10
8.37795
20
10.2445
30
8.44
0
VERTEX
10
8.38783
20
10.2576
30
8.44
0
VERTEX
10
8.39441
20
10.2642
30
8.44
0
VERTEX
10
8.40099
20
10.2642
30
8.44
0
VERTEX
10
8.40429
20
10.2906
30
8.44
0
VERTEX
10
8.40429
20
10.3037
30
8.44
0
VERTEX
10
8.3977
20
10.3103
30
8.44
0
VERTEX
10
8.3977
20
10.3235
30
8.44
0
VERTEX
10
8.39112
20
10.3301
30
8.44
0
VERTEX
10
8.39112
20
10.3366
30
8.44
0
VERTEX
10
8.38453
20
10.3432
30
8.44
0
VERTEX
10
8.38453
20
10.3498
30
8.44
0
VERTEX
10
8.36807
20
10.3761
30
8.44
0
VERTEX
10
8.35491
20
10.386
30
8.44
0
VERTEX
10
8.32857
20
10.3893
30
8.44
0
VERTEX
10
8.30224
20
10.4091
30
8.44
0
VERTEX
10
8.28907
20
10.4157
30
8.44
0
VERTEX
10
8.26273
20
10.4387
30
8.44
0
VERTEX
10
8.2364
20
10.4519
30
8.44
0
VERTEX
10
8.22323
20
10.4584
30
8.44
0
VERTEX
10
8.17714
20
10.5045
30
8.44
0
VERTEX
10
8.18702
20
10.521
30
8.44
0
VERTEX
10
8.08168
20
10.5309
30
8.44
0
VERTEX
10
8.02901
20
10.5276
30
8.44
0
VERTEX
10
8.00267
20
10.5276
30
8.44
0
VERTEX
10
7.99609
20
10.5276
30
8.44
0
VERTEX
10
7.9895
20
10.521
30
8.44
0
VERTEX
10
7.88416
20
10.4881
30
8.44
0
VERTEX
10
7.87099
20
10.4848
30
8.44
0
VERTEX
10
7.84795
20
10.4683
30
8.44
0
VERTEX
10
7.79528
20
10.465
30
8.44
0
VERTEX
10
7.76894
20
10.465
30
8.44
0
VERTEX
10
7.75578
20
10.465
30
8.44
0
VERTEX
10
7.73273
20
10.4519
30
8.44
0
VERTEX
10
7.64385
20
10.3564
30
8.44
0
VERTEX
10
7.63727
20
10.3465
30
8.44
0
VERTEX
10
7.61422
20
10.3235
30
8.44
0
VERTEX
10
7.60764
20
10.3103
30
8.44
0
VERTEX
10
7.60764
20
10.3037
30
8.44
0
VERTEX
10
7.59776
20
10.2906
30
8.44
0
VERTEX
10
7.59776
20
10.284
30
8.44
0
SEQEND
0
POLYLINE
62
31
66
1
70
1
3
contour
0
VERTEX
10
7.24882
20
11.0773
30
8.44
0
VERTEX
10
7.2554
20
11.0707
30
8.44
0
VERTEX
10
7.2554
20
11.0576
30
8.44
0
VERTEX
10
7.2554
20
11.051
30
8.44
0
VERTEX
10
7.30149
20
11.0049
30
8.44
0
VERTEX
10
7.32124
20
10.9819
30
8.44
0
VERTEX
10
7.36733
20
10.9489
30
8.44
0
VERTEX
10
7.37391
20
10.9424
30
8.44
0
VERTEX
10
7.40025
20
10.9358
30
8.44
0
VERTEX
10
7.41342
20
10.9325
30
8.44
0
VERTEX
10
7.43975
20
10.9391
30
8.44
0
VERTEX
10
7.46609
20
10.9555
30
8.44
0
VERTEX
10
7.47925
20
10.9588
30
8.44
0
VERTEX
10
7.5023
20
10.9852
30
8.44
0
VERTEX
10
7.50888
20
10.9917
30
8.44
0
VERTEX
10
7.51547
20
10.9917
30
8.44
0
VERTEX
10
7.53193
20
11.0148
30
8.44
0
VERTEX
10
7.53851
20
11.0214
30
8.44
0
VERTEX
10
7.52863
20
11.074
30
8.44
0
VERTEX
10
7.52205
20
11.1004
30
8.44
0
VERTEX
10
7.51876
20
11.1135
30
8.44
0
VERTEX
10
7.49571
20
11.13
30
8.44
0
VERTEX
10
7.48584
20
11.1432
30
8.44
0
VERTEX
10
7.48255
20
11.1695
30
8.44
0
VERTEX
10
7.47596
20
11.1827
30
8.44
0
VERTEX
10
7.4628
20
11.1893
30
8.44
0
VERTEX
10
7.45621
20
11.1991
30
8.44
0
VERTEX
10
7.42988
20
11.209
30
8.44
0
VERTEX
10
7.37721
20
11.2123
30
8.44
0
VERTEX
10
7.35087
20
11.2123
30
8.44
0
VERTEX
10
7.3377
20
11.2024
30
8.44
0
VERTEX
10
7.31137
20
11.1991
30
8.44
0
VERTEX
10
7.28503
20
11.186
30
8.44
0
VERTEX
10
7.28174
20
11.1794
30
8.44
0
VERTEX
10
7.27516
20
11.1794
30
8.44
0
VERTEX
10
7.2554
20
11.1563
30
8.44
0
VERTEX
10
7.24882
20
11.1037
30
8.44
0
VERTEX
10
7.24882
20
11.0806
30
8.44
0
SEQEND
0
POLYLINE
62
31
66
1
70
1
3
contour
0
VERTEX
10
7.25925
20
9.66705
30
8.44
0
VERTEX
10
7.26266
20
9.63975
30
8.44
0
VERTEX
10
7.26608
20
9.63634
30
8.44
0
VERTEX
10
7.27119
20
9.62269
30
8.44
0
VERTEX
10
7.28826
20
9.59709
30
8.44
0
VERTEX
10
7.29338
20
9.59026
30
8.44
0
VERTEX
10
7.2985
20
9.57661
30
8.44
0
VERTEX
10
7.2985
20
9.5732
30
8.44
0
VERTEX
10
7.30362
20
9.56637
30
8.44
0
VERTEX
10
7.30874
20
9.53907
30
8.44
0
VERTEX
10
7.31044
20
9.53224
30
8.44
0
VERTEX
10
7.31556
20
9.52713
30
8.44
0
VERTEX
10
7.31727
20
9.5203
30
8.44
0
VERTEX
10
7.32239
20
9.51518
30
8.44
0
VERTEX
10
7.32239
20
9.51177
30
8.44
0
VERTEX
10
7.33433
20
9.49982
30
8.44
0
VERTEX
10
7.33433
20
9.49641
30
8.44
0
VERTEX
10
7.34116
20
9.48958
30
8.44
0
VERTEX
10
7.36846
20
9.47423
30
8.44
0
VERTEX
10
7.39577
20
9.47423
30
8.44
0
VERTEX
10
7.40259
20
9.47423
30
8.44
0
VERTEX
10
7.40942
20
9.47764
30
8.44
0
VERTEX
10
7.41624
20
9.47764
30
8.44
0
VERTEX
10
7.42307
20
9.48276
30
8.44
0
VERTEX
10
7.42989
20
9.48446
30
8.44
0
VERTEX
10
7.44355
20
9.493
30
8.44
0
VERTEX
10
7.45037
20
9.4947
30
8.44
0
VERTEX
10
7.45549
20
9.50153
30
8.44
0
VERTEX
10
7.48279
20
9.51347
30
8.44
0
VERTEX
10
7.49645
20
9.52201
30
8.44
0
VERTEX
10
7.5101
20
9.52713
30
8.44
0
VERTEX
10
7.5374
20
9.52883
30
8.44
0
VERTEX
10
7.55105
20
9.53054
30
8.44
0
VERTEX
10
7.55788
20
9.53395
30
8.44
0
VERTEX
10
7.57153
20
9.53395
30
8.44
0
VERTEX
10
7.57494
20
9.53736
30
8.44
0
VERTEX
10
7.58859
20
9.53736
30
8.44
0
VERTEX
10
7.59542
20
9.53736
30
8.44
0
VERTEX
10
7.60225
20
9.54078
30
8.44
0
VERTEX
10
7.60907
20
9.54078
30
8.44
0
VERTEX
10
7.61078
20
9.54419
30
8.44
0
VERTEX
10
7.63808
20
9.5459
30
8.44
0
VERTEX
10
7.65173
20
9.55102
30
8.44
0
VERTEX
10
7.67904
20
9.55102
30
8.44
0
VERTEX
10
7.69269
20
9.55613
30
8.44
0
VERTEX
10
7.69781
20
9.55955
30
8.44
0
VERTEX
10
7.70634
20
9.57149
30
8.44
0
VERTEX
10
7.71829
20
9.58173
30
8.44
0
VERTEX
10
7.71999
20
9.60903
30
8.44
0
VERTEX
10
7.71487
20
9.66364
30
8.44
0
VERTEX
10
7.71146
20
9.69094
30
8.44
0
VERTEX
10
7.71146
20
9.69777
30
8.44
0
VERTEX
10
7.70805
20
9.7046
30
8.44
0
VERTEX
10
7.70805
20
9.70801
30
8.44
0
VERTEX
10
7.69951
20
9.72166
30
8.44
0
VERTEX
10
7.6961
20
9.72849
30
8.44
0
VERTEX
10
7.69269
20
9.7319
30
8.44
0
VERTEX
10
7.69269
20
9.73531
30
8.44
0
VERTEX
10
7.68416
20
9.74896
30
8.44
0
VERTEX
10
7.68245
20
9.75238
30
8.44
0
VERTEX
10
7.67904
20
9.75238
30
8.44
0
VERTEX
10
7.6705
20
9.76603
30
8.44
0
VERTEX
10
7.65856
20
9.77627
30
8.44
0
VERTEX
10
7.65173
20
9.78309
30
8.44
0
VERTEX
10
7.63979
20
9.78992
30
8.44
0
VERTEX
10
7.63296
20
9.79504
30
8.44
0
VERTEX
10
7.60566
20
9.80016
30
8.44
0
VERTEX
10
7.57836
20
9.80016
30
8.44
0
VERTEX
10
7.55105
20
9.80528
30
8.44
0
VERTEX
10
7.49645
20
9.80186
30
8.44
0
VERTEX
10
7.44184
20
9.80528
30
8.44
0
VERTEX
10
7.42819
20
9.80698
30
8.44
0
VERTEX
10
7.42136
20
9.8104
30
8.44
0
VERTEX
10
7.39406
20
9.8104
30
8.44
0
VERTEX
10
7.38723
20
9.8104
30
8.44
0
VERTEX
10
7.33433
20
9.78139
30
8.44
0
VERTEX
10
7.30703
20
9.76432
30
8.44
0
VERTEX
10
7.29509
20
9.75408
30
8.44
0
VERTEX
10
7.29167
20
9.75408
30
8.44
0
VERTEX
10
7.27802
20
9.74555
30
8.44
0
VERTEX
10
7.26778
20
9.7319
30
8.44
0
VERTEX
10
7.26437
20
9.72849
30
8.44
0
VERTEX
10
7.25925
20
9.71483
30
8.44
0
VERTEX
10
7.25925
20
9.68753
30
8.44
0
VERTEX
10
7.25925
20
9.67388
30
8.44
0
VERTEX
10
7.25925
20
9.66876
30
8.44
0
SEQEND
0
POLYLINE
62
224
66
1
70
1
3
mitochondrion
0
VERTEX
10
7.82395
20
10.2238
30
8.44
0
VERTEX
10
7.82673
20
10.2016
30
8.44
0
VERTEX
10
7.83229
20
10.1793
30
8.44
0
VERTEX
10
7.83507
20
10.1766
30
8.44
0
VERTEX
10
7.83507
20
10.171
30
8.44
0
VERTEX
10
7.83924
20
10.1599
30
8.44
0
VERTEX
10
7.84898
20
10.1487
30
8.44
0
VERTEX
10
7.85315
20
10.1446
30
8.44
0
VERTEX
10
7.86427
20
10.1418
30
8.44
0
VERTEX
10
7.88652
20
10.1307
30
8.44
0
VERTEX
10
7.89764
20
10.1251
30
8.44
0
VERTEX
10
7.9032
20
10.1209
30
8.44
0
VERTEX
10
7.90877
20
10.1195
30
8.44
0
VERTEX
10
7.91433
20
10.1154
30
8.44
0
VERTEX
10
7.91711
20
10.1154
30
8.44
0
VERTEX
10
7.92545
20
10.107
30
8.44
0
VERTEX
10
7.9477
20
10.1015
30
8.44
0
VERTEX
10
7.96994
20
10.1015
30
8.44
0
VERTEX
10
7.98107
20
10.1015
30
8.44
0
VERTEX
10
8.00331
20
10.1056
30
8.44
0
VERTEX
10
8.00749
20
10.1098
30
8.44
0
VERTEX
10
8.02973
20
10.1126
30
8.44
0
VERTEX
10
8.04086
20
10.1126
30
8.44
0
VERTEX
10
8.05198
20
10.1154
30
8.44
0
VERTEX
10
8.0631
20
10.1223
30
8.44
0
VERTEX
10
8.06449
20
10.1251
30
8.44
0
VERTEX
10
8.07006
20
10.1265
30
8.44
0
VERTEX
10
8.07701
20
10.1362
30
8.44
0
VERTEX
10
8.07979
20
10.139
30
8.44
0
VERTEX
10
8.08257
20
10.1501
30
8.44
0
VERTEX
10
8.08396
20
10.1557
30
8.44
0
VERTEX
10
8.08674
20
10.1585
30
8.44
0
VERTEX
10
8.08674
20
10.1613
30
8.44
0
VERTEX
10
8.09369
20
10.1724
30
8.44
0
VERTEX
10
8.09786
20
10.1779
30
8.44
0
VERTEX
10
8.10343
20
10.2002
30
8.44
0
VERTEX
10
8.10343
20
10.2224
30
8.44
0
VERTEX
10
8.10343
20
10.2252
30
8.44
0
VERTEX
10
8.10064
20
10.2266
30
8.44
0
VERTEX
10
8.10064
20
10.2489
30
8.44
0
VERTEX
10
8.09925
20
10.26
30
8.44
0
VERTEX
10
8.09786
20
10.2655
30
8.44
0
VERTEX
10
8.09508
20
10.2669
30
8.44
0
VERTEX
10
8.09508
20
10.2725
30
8.44
0
VERTEX
10
8.0923
20
10.2739
30
8.44
0
VERTEX
10
8.08952
20
10.285
30
8.44
0
VERTEX
10
8.08118
20
10.2961
30
8.44
0
VERTEX
10
8.07562
20
10.3059
30
8.44
0
VERTEX
10
8.07006
20
10.3086
30
8.44
0
VERTEX
10
8.06449
20
10.3142
30
8.44
0
VERTEX
10
8.06171
20
10.317
30
8.44
0
VERTEX
10
8.05615
20
10.3184
30
8.44
0
VERTEX
10
8.04503
20
10.3253
30
8.44
0
VERTEX
10
8.04225
20
10.3253
30
8.44
0
VERTEX
10
8.02
20
10.3378
30
8.44
0
VERTEX
10
8.01444
20
10.3406
30
8.44
0
VERTEX
10
8.00888
20
10.3406
30
8.44
0
VERTEX
10
8.00331
20
10.3448
30
8.44
0
VERTEX
10
7.98107
20
10.3545
30
8.44
0
VERTEX
10
7.97551
20
10.3573
30
8.44
0
VERTEX
10
7.95326
20
10.3587
30
8.44
0
VERTEX
10
7.94214
20
10.3587
30
8.44
0
VERTEX
10
7.93101
20
10.3559
30
8.44
0
VERTEX
10
7.92545
20
10.3559
30
8.44
0
VERTEX
10
7.9032
20
10.3462
30
8.44
0
VERTEX
10
7.89208
20
10.342
30
8.44
0
VERTEX
10
7.88652
20
10.3406
30
8.44
0
VERTEX
10
7.88096
20
10.342
30
8.44
0
VERTEX
10
7.86149
20
10.3267
30
8.44
0
VERTEX
10
7.85871
20
10.3239
30
8.44
0
VERTEX
10
7.85732
20
10.3184
30
8.44
0
VERTEX
10
7.84759
20
10.31
30
8.44
0
VERTEX
10
7.83368
20
10.2892
30
8.44
0
VERTEX
10
7.82951
20
10.2781
30
8.44
0
VERTEX
10
7.82812
20
10.2725
30
8.44
0
VERTEX
10
7.82812
20
10.2697
30
8.44
0
VERTEX
10
7.82534
20
10.2683
30
8.44
0
VERTEX
10
7.82395
20
10.2252
30
8.44
0
SEQEND
0
POLYLINE
62
227
66
1
70
1
3
endoplasmic_reticulum
0
VERTEX
10
7.65381
20
10.2556
30
8.44
0
VERTEX
10
7.65471
20
10.252
30
8.44
0
VERTEX
10
7.65471
20
10.2502
30
8.44
0
VERTEX
10
7.6565
20
10.2484
30
8.44
0
VERTEX
10
7.6565
20
10.2466
30
8.44
0
VERTEX
10
7.6583
20
10.2448
30
8.44
0
VERTEX
10
7.6583
20
10.243
30
8.44
0
VERTEX
10
7.66009
20
10.2412
30
8.44
0
VERTEX
10
7.66009
20
10.2377
30
8.44
0
VERTEX
10
7.66009
20
10.2359
30
8.44
0
VERTEX
10
7.66278
20
10.2323
30
8.44
0
VERTEX
10
7.66547
20
10.2251
30
8.44
0
VERTEX
10
7.67175
20
10.2197
30
8.44
0
VERTEX
10
7.68071
20
10.2054
30
8.44
0
VERTEX
10
7.6834
20
10.2018
30
8.44
0
VERTEX
10
7.68519
20
10.2
30
8.44
0
VERTEX
10
7.68609
20
10.1964
30
8.44
0
VERTEX
10
7.68609
20
10.1946
30
8.44
0
VERTEX
10
7.68968
20
10.1919
30
8.44
0
VERTEX
10
7.69057
20
10.1848
30
8.44
0
VERTEX
10
7.69416
20
10.1812
30
8.44
0
VERTEX
10
7.69774
20
10.1794
30
8.44
0
VERTEX
10
7.70492
20
10.1794
30
8.44
0
VERTEX
10
7.7085
20
10.1794
30
8.44
0
VERTEX
10
7.71299
20
10.1839
30
8.44
0
VERTEX
10
7.71388
20
10.191
30
8.44
0
VERTEX
10
7.71568
20
10.1946
30
8.44
0
VERTEX
10
7.71568
20
10.2018
30
8.44
0
VERTEX
10
7.71747
20
10.2036
30
8.44
0
VERTEX
10
7.71926
20
10.2323
30
8.44
0
VERTEX
10
7.71926
20
10.2395
30
8.44
0
VERTEX
10
7.72374
20
10.2538
30
8.44
0
VERTEX
10
7.72823
20
10.2583
30
8.44
0
VERTEX
10
7.73002
20
10.2583
30
8.44
0
VERTEX
10
7.7363
20
10.2637
30
8.44
0
VERTEX
10
7.74974
20
10.2708
30
8.44
0
VERTEX
10
7.75692
20
10.2735
30
8.44
0
VERTEX
10
7.7623
20
10.2798
30
8.44
0
VERTEX
10
7.76409
20
10.2807
30
8.44
0
VERTEX
10
7.76409
20
10.295
30
8.44
0
VERTEX
10
7.7623
20
10.3022
30
8.44
0
VERTEX
10
7.75781
20
10.3085
30
8.44
0
VERTEX
10
7.75602
20
10.3121
30
8.44
0
VERTEX
10
7.74885
20
10.3183
30
8.44
0
VERTEX
10
7.74168
20
10.3201
30
8.44
0
VERTEX
10
7.7345
20
10.3175
30
8.44
0
VERTEX
10
7.73092
20
10.3139
30
8.44
0
VERTEX
10
7.72733
20
10.3067
30
8.44
0
VERTEX
10
7.72464
20
10.304
30
8.44
0
VERTEX
10
7.72464
20
10.3022
30
8.44
0
VERTEX
10
7.72106
20
10.2986
30
8.44
0
VERTEX
10
7.72016
20
10.295
30
8.44
0
VERTEX
10
7.71568
20
10.2879
30
8.44
0
VERTEX
10
7.71299
20
10.2807
30
8.44
0
VERTEX
10
7.71119
20
10.278
30
8.44
0
VERTEX
10
7.70492
20
10.2726
30
8.44
0
VERTEX
10
7.70133
20
10.2717
30
8.44
0
VERTEX
10
7.69595
20
10.2655
30
8.44
0
VERTEX
10
7.69326
20
10.2628
30
8.44
0
VERTEX
10
7.67892
20
10.2637
30
8.44
0
VERTEX
10
7.67175
20
10.2663
30
8.44
0
VERTEX
10
7.66816
20
10.2672
30
8.44
0
VERTEX
10
7.66547
20
10.2699
30
8.44
0
VERTEX
10
7.66188
20
10.269
30
8.44
0
VERTEX
10
7.65561
20
10.2637
30
8.44
0
VERTEX
10
7.65381
20
10.2601
30
8.44
0
VERTEX
10
7.65381
20
10.2565
30
8.44
0
SEQEND
0
POLYLINE
62
227
66
1
70
1
3
endoplasmic_reticulum
0
VERTEX
10
7.76588
20
10.0718
30
8.44
0
VERTEX
10
7.76947
20
10.0682
30
8.44
0
VERTEX
10
7.77395
20
10.0619
30
8.44
0
VERTEX
10
7.77754
20
10.0592
30
8.44
0
VERTEX
10
7.78471
20
10.0566
30
8.44
0
VERTEX
10
7.79099
20
10.0521
30
8.44
0
VERTEX
10
7.80533
20
10.0467
30
8.44
0
VERTEX
10
7.86271
20
10.0449
30
8.44
0
VERTEX
10
7.87705
20
10.0404
30
8.44
0
VERTEX
10
7.88064
20
10.0377
30
8.44
0
VERTEX
10
7.88154
20
10.0359
30
8.44
0
VERTEX
10
7.88512
20
10.035
30
8.44
0
VERTEX
10
7.8914
20
10.0288
30
8.44
0
VERTEX
10
7.89767
20
10.0252
30
8.44
0
VERTEX
10
7.90485
20
10.0234
30
8.44
0
VERTEX
10
7.90843
20
10.0234
30
8.44
0
VERTEX
10
7.91202
20
10.0216
30
8.44
0
VERTEX
10
7.94071
20
10.0225
30
8.44
0
VERTEX
10
7.95505
20
10.0225
30
8.44
0
VERTEX
10
7.96223
20
10.0225
30
8.44
0
VERTEX
10
7.97657
20
10.0171
30
8.44
0
VERTEX
10
7.98016
20
10.0153
30
8.44
0
VERTEX
10
7.98195
20
10.0135
30
8.44
0
VERTEX
10
7.98554
20
10.0126
30
8.44
0
VERTEX
10
7.98823
20
10.0099
30
8.44
0
VERTEX
10
7.99181
20
10.009
30
8.44
0
VERTEX
10
7.9954
20
10.0064
30
8.44
0
VERTEX
10
8.00974
20
10.0055
30
8.44
0
VERTEX
10
8.01692
20
10.0064
30
8.44
0
VERTEX
10
8.01871
20
10.0064
30
8.44
0
VERTEX
10
8.0205
20
10.0081
30
8.44
0
VERTEX
10
8.03485
20
10.009
30
8.44
0
VERTEX
10
8.03664
20
10.009
30
8.44
0
VERTEX
10
8.03843
20
10.0072
30
8.44
0
VERTEX
10
8.0456
20
10.0072
30
8.44
0
VERTEX
10
8.05995
20
9.99828
30
8.44
0
VERTEX
10
8.06623
20
9.9938
30
8.44
0
VERTEX
10
8.06981
20
9.99201
30
8.44
0
VERTEX
10
8.08416
20
9.99201
30
8.44
0
VERTEX
10
8.11285
20
10.001
30
8.44
0
VERTEX
10
8.11643
20
10.0028
30
8.44
0
VERTEX
10
8.12002
20
10.0028
30
8.44
0
VERTEX
10
8.1236
20
10.0055
30
8.44
0
VERTEX
10
8.12629
20
10.0117
30
8.44
0
VERTEX
10
8.12629
20
10.0189
30
8.44
0
VERTEX
10
8.12629
20
10.0207
30
8.44
0
VERTEX
10
8.12271
20
10.0243
30
8.44
0
VERTEX
10
8.11823
20
10.0306
30
8.44
0
VERTEX
10
8.11105
20
10.0368
30
8.44
0
VERTEX
10
8.10747
20
10.0386
30
8.44
0
VERTEX
10
8.10388
20
10.0422
30
8.44
0
VERTEX
10
8.08954
20
10.0485
30
8.44
0
VERTEX
10
8.07519
20
10.0521
30
8.44
0
VERTEX
10
8.0474
20
10.0646
30
8.44
0
VERTEX
10
8.01871
20
10.07
30
8.44
0
VERTEX
10
7.99002
20
10.0718
30
8.44
0
VERTEX
10
7.97567
20
10.0718
30
8.44
0
VERTEX
10
7.96133
20
10.0736
30
8.44
0
VERTEX
10
7.95416
20
10.0754
30
8.44
0
VERTEX
10
7.93981
20
10.0754
30
8.44
0
VERTEX
10
7.91112
20
10.0844
30
8.44
0
VERTEX
10
7.90395
20
10.0879
30
8.44
0
VERTEX
10
7.89678
20
10.0897
30
8.44
0
VERTEX
10
7.88961
20
10.0897
30
8.44
0
VERTEX
10
7.88602
20
10.0906
30
8.44
0
VERTEX
10
7.88423
20
10.0906
30
8.44
0
VERTEX
10
7.88154
20
10.0933
30
8.44
0
VERTEX
10
7.86719
20
10.0942
30
8.44
0
VERTEX
10
7.85374
20
10.0987
30
8.44
0
VERTEX
10
7.84657
20
10.1023
30
8.44
0
VERTEX
10
7.8394
20
10.1023
30
8.44
0
VERTEX
10
7.82505
20
10.1068
30
8.44
0
VERTEX
10
7.82147
20
10.1068
30
8.44
0
VERTEX
10
7.80712
20
10.113
30
8.44
0
VERTEX
10
7.80354
20
10.1139
30
8.44
0
VERTEX
10
7.80174
20
10.1139
30
8.44
0
VERTEX
10
7.79995
20
10.1157
30
8.44
0
VERTEX
10
7.78561
20
10.1166
30
8.44
0
VERTEX
10
7.77843
20
10.1175
30
8.44
0
VERTEX
10
7.77664
20
10.1175
30
8.44
0
VERTEX
10
7.77037
20
10.1112
30
8.44
0
VERTEX
10
7.76857
20
10.1086
30
8.44
0
VERTEX
10
7.76768
20
10.1014
30
8.44
0
VERTEX
10
7.76768
20
10.0978
30
8.44
0
VERTEX
10
7.76588
20
10.0942
30
8.44
0
VERTEX
10
7.76588
20
10.0799
30
8.44
0
VERTEX
10
7.76588
20
10.0727
30
8.44
0
SEQEND
0
POLYLINE
62
227
66
1
70
1
3
endoplasmic_reticulum
0
VERTEX
10
7.97836
20
9.98663
30
8.44
0
VERTEX
10
7.98016
20
9.95794
30
8.44
0
VERTEX
10
7.98016
20
9.95435
30
8.44
0
VERTEX
10
7.98464
20
9.94808
30
8.44
0
VERTEX
10
7.98643
20
9.94897
30
8.44
0
VERTEX
10
7.99002
20
9.94628
30
8.44
0
VERTEX
10
7.99719
20
9.94359
30
8.44
0
VERTEX
10
8.00347
20
9.93642
30
8.44
0
VERTEX
10
8.01064
20
9.93463
30
8.44
0
VERTEX
10
8.01423
20
9.93463
30
8.44
0
VERTEX
10
8.0214
20
9.93821
30
8.44
0
VERTEX
10
8.02498
20
9.94001
30
8.44
0
VERTEX
10
8.02767
20
9.94359
30
8.44
0
VERTEX
10
8.03036
20
9.95077
30
8.44
0
VERTEX
10
8.03126
20
9.95794
30
8.44
0
VERTEX
10
8.03036
20
9.96511
30
8.44
0
VERTEX
10
8.02947
20
9.9687
30
8.44
0
VERTEX
10
8.02678
20
9.97139
30
8.44
0
VERTEX
10
8.02588
20
9.97497
30
8.44
0
VERTEX
10
8.02319
20
9.97766
30
8.44
0
VERTEX
10
8.02319
20
9.97945
30
8.44
0
VERTEX
10
8.0196
20
9.98214
30
8.44
0
VERTEX
10
7.99092
20
9.98663
30
8.44
0
VERTEX
10
7.98374
20
9.98573
30
8.44
0
VERTEX
10
7.98195
20
9.98573
30
8.44
0
VERTEX
10
7.98105
20
9.98752
30
8.44
0
VERTEX
10
7.97926
20
9.98752
30
8.44
0
SEQEND
0
POLYLINE
62
227
66
1
70
1
3
endoplasmic_reticulum
0
VERTEX
10
8.17381
20
10.2915
30
8.44
0
VERTEX
10
8.17471
20
10.2843
30
8.44
0
VERTEX
10
8.1774
20
10.2807
30
8.44
0
VERTEX
10
8.1756
20
10.2735
30
8.44
0
VERTEX
10
8.1774
20
10.2448
30
8.44
0
VERTEX
10
8.1774
20
10.2412
30
8.44
0
VERTEX
10
8.18188
20
10.235
30
8.44
0
VERTEX
10
8.18367
20
10.235
30
8.44
0
VERTEX
10
8.18547
20
10.2332
30
8.44
0
VERTEX
10
8.19981
20
10.2341
30
8.44
0
VERTEX
10
8.20698
20
10.235
30
8.44
0
VERTEX
10
8.21326
20
10.2395
30
8.44
0
VERTEX
10
8.21505
20
10.2412
30
8.44
0
VERTEX
10
8.21595
20
10.2484
30
8.44
0
VERTEX
10
8.21595
20
10.2502
30
8.44
0
VERTEX
10
8.21774
20
10.2511
30
8.44
0
VERTEX
10
8.21685
20
10.2798
30
8.44
0
VERTEX
10
8.21774
20
10.2941
30
8.44
0
VERTEX
10
8.22043
20
10.3085
30
8.44
0
VERTEX
10
8.22043
20
10.3372
30
8.44
0
VERTEX
10
8.22043
20
10.3515
30
8.44
0
VERTEX
10
8.21774
20
10.3587
30
8.44
0
VERTEX
10
8.21505
20
10.3623
30
8.44
0
VERTEX
10
8.21326
20
10.3632
30
8.44
0
VERTEX
10
8.21236
20
10.3668
30
8.44
0
VERTEX
10
8.20698
20
10.3739
30
8.44
0
VERTEX
10
8.20519
20
10.3775
30
8.44
0
VERTEX
10
8.2016
20
10.3802
30
8.44
0
VERTEX
10
8.19802
20
10.3811
30
8.44
0
VERTEX
10
8.19622
20
10.382
30
8.44
0
VERTEX
10
8.18905
20
10.3793
30
8.44
0
VERTEX
10
8.18726
20
10.3721
30
8.44
0
VERTEX
10
8.18726
20
10.3703
30
8.44
0
VERTEX
10
8.18547
20
10.3686
30
8.44
0
VERTEX
10
8.18457
20
10.3614
30
8.44
0
VERTEX
10
8.18457
20
10.3578
30
8.44
0
VERTEX
10
8.17919
20
10.3533
30
8.44
0
VERTEX
10
8.1774
20
10.3515
30
8.44
0
VERTEX
10
8.1765
20
10.3372
30
8.44
0
VERTEX
10
8.17381
20
10.33
30
8.44
0
VERTEX
10
8.17381
20
10.3013
30
8.44
0
VERTEX
10
8.17381
20
10.2941
30
8.44
0
VERTEX
10
8.17381
20
10.2923
30
8.44
0
SEQEND
0
POLYLINE
62
227
66
1
70
1
3
endoplasmic_reticulum
0
VERTEX
10
8.0976
20
10.3327
30
8.44
0
VERTEX
10
8.0994
20
10.3318
30
8.44
0
VERTEX
10
8.10119
20
10.3175
30
8.44
0
VERTEX
10
8.10298
20
10.3139
30
8.44
0
VERTEX
10
8.10747
20
10.2852
30
8.44
0
VERTEX
10
8.11016
20
10.2816
30
8.44
0
VERTEX
10
8.11016
20
10.2744
30
8.44
0
VERTEX
10
8.11016
20
10.2726
30
8.44
0
VERTEX
10
8.10836
20
10.2708
30
8.44
0
VERTEX
10
8.11105
20
10.2646
30
8.44
0
VERTEX
10
8.11374
20
10.261
30
8.44
0
VERTEX
10
8.11643
20
10.2538
30
8.44
0
VERTEX
10
8.11823
20
10.252
30
8.44
0
VERTEX
10
8.1245
20
10.2377
30
8.44
0
VERTEX
10
8.12809
20
10.2305
30
8.44
0
VERTEX
10
8.12988
20
10.2269
30
8.44
0
VERTEX
10
8.13257
20
10.2126
30
8.44
0
VERTEX
10
8.13257
20
10.1839
30
8.44
0
VERTEX
10
8.13257
20
10.1767
30
8.44
0
VERTEX
10
8.13078
20
10.1695
30
8.44
0
VERTEX
10
8.12719
20
10.1632
30
8.44
0
VERTEX
10
8.12629
20
10.1597
30
8.44
0
VERTEX
10
8.12629
20
10.1579
30
8.44
0
VERTEX
10
8.12809
20
10.1561
30
8.44
0
VERTEX
10
8.12898
20
10.1489
30
8.44
0
VERTEX
10
8.13257
20
10.1426
30
8.44
0
VERTEX
10
8.13436
20
10.139
30
8.44
0
VERTEX
10
8.13436
20
10.1372
30
8.44
0
VERTEX
10
8.14154
20
10.1364
30
8.44
0
VERTEX
10
8.14333
20
10.1364
30
8.44
0
VERTEX
10
8.14691
20
10.139
30
8.44
0
VERTEX
10
8.14871
20
10.1426
30
8.44
0
VERTEX
10
8.1505
20
10.1435
30
8.44
0
VERTEX
10
8.1514
20
10.1507
30
8.44
0
VERTEX
10
8.15409
20
10.1579
30
8.44
0
VERTEX
10
8.15588
20
10.1866
30
8.44
0
VERTEX
10
8.15498
20
10.2009
30
8.44
0
VERTEX
10
8.15319
20
10.2081
30
8.44
0
VERTEX
10
8.15229
20
10.2224
30
8.44
0
VERTEX
10
8.1505
20
10.2287
30
8.44
0
VERTEX
10
8.1496
20
10.2323
30
8.44
0
VERTEX
10
8.1496
20
10.2341
30
8.44
0
VERTEX
10
8.14691
20
10.2377
30
8.44
0
VERTEX
10
8.14512
20
10.2448
30
8.44
0
VERTEX
10
8.14512
20
10.2484
30
8.44
0
VERTEX
10
8.14333
20
10.252
30
8.44
0
VERTEX
10
8.14512
20
10.2583
30
8.44
0
VERTEX
10
8.14333
20
10.2619
30
8.44
0
VERTEX
10
8.13974
20
10.2646
30
8.44
0
VERTEX
10
8.13795
20
10.2717
30
8.44
0
VERTEX
10
8.13885
20
10.3004
30
8.44
0
VERTEX
10
8.14064
20
10.3076
30
8.44
0
VERTEX
10
8.14154
20
10.3219
30
8.44
0
VERTEX
10
8.14422
20
10.3363
30
8.44
0
VERTEX
10
8.14333
20
10.365
30
8.44
0
VERTEX
10
8.14064
20
10.3793
30
8.44
0
VERTEX
10
8.13885
20
10.3865
30
8.44
0
VERTEX
10
8.13885
20
10.4008
30
8.44
0
VERTEX
10
8.13616
20
10.408
30
8.44
0
VERTEX
10
8.13167
20
10.4152
30
8.44
0
VERTEX
10
8.13167
20
10.417
30
8.44
0
VERTEX
10
8.12898
20
10.4206
30
8.44
0
VERTEX
10
8.12719
20
10.4277
30
8.44
0
VERTEX
10
8.12629
20
10.4304
30
8.44
0
VERTEX
10
8.11285
20
10.4197
30
8.44
0
VERTEX
10
8.10747
20
10.4143
30
8.44
0
VERTEX
10
8.10478
20
10.4107
30
8.44
0
VERTEX
10
8.10388
20
10.4071
30
8.44
0
VERTEX
10
8.10209
20
10.4053
30
8.44
0
VERTEX
10
8.0985
20
10.3479
30
8.44
0
VERTEX
10
8.0976
20
10.3336
30
8.44
0
SEQEND
0
POLYLINE
62
227
66
1
70
1
3
endoplasmic_reticulum
0
VERTEX
10
8.08774
20
10.0888
30
8.44
0
VERTEX
10
8.08954
20
10.0879
30
8.44
0
VERTEX
10
8.09043
20
10.0888
30
8.44
0
VERTEX
10
8.09133
20
10.0817
30
8.44
0
VERTEX
10
8.09581
20
10.0754
30
8.44
0
VERTEX
10
8.10209
20
10.0682
30
8.44
0
VERTEX
10
8.11643
20
10.0691
30
8.44
0
VERTEX
10
8.13078
20
10.0736
30
8.44
0
VERTEX
10
8.13436
20
10.0772
30
8.44
0
VERTEX
10
8.13526
20
10.079
30
8.44
0
VERTEX
10
8.13167
20
10.0852
30
8.44
0
VERTEX
10
8.12988
20
10.0888
30
8.44
0
VERTEX
10
8.11643
20
10.0978
30
8.44
0
VERTEX
10
8.10926
20
10.0996
30
8.44
0
VERTEX
10
8.10209
20
10.0996
30
8.44
0
VERTEX
10
8.09491
20
10.096
30
8.44
0
VERTEX
10
8.09133
20
10.0942
30
8.44
0
VERTEX
10
8.08774
20
10.0906
30
8.44
0
VERTEX
10
8.08774
20
10.0897
30
8.44
0
SEQEND
0
ENDSEC
0
EOF
