0
SECTION
2
ENTITIES
0
POLYLINE
62
31
66
1
70
1
3
contour
0
VERTEX
10
10.2811
20
8.92603
30
3.24
0
VERTEX
10
10.2865
20
8.9043
30
3.24
0
VERTEX
10
10.2892
20
8.89344
30
3.24
0
VERTEX
10
10.2892
20
8.88801
30
3.24
0
VERTEX
10
10.2947
20
8.88258
30
3.24
0
VERTEX
10
10.2974
20
8.87172
30
3.24
0
VERTEX
10
10.3028
20
8.869
30
3.24
0
VERTEX
10
10.3082
20
8.84728
30
3.24
0
VERTEX
10
10.3137
20
8.84185
30
3.24
0
VERTEX
10
10.3164
20
8.83098
30
3.24
0
VERTEX
10
10.3245
20
8.82012
30
3.24
0
VERTEX
10
10.3245
20
8.81469
30
3.24
0
VERTEX
10
10.33
20
8.81198
30
3.24
0
VERTEX
10
10.3327
20
8.80111
30
3.24
0
VERTEX
10
10.3327
20
8.79568
30
3.24
0
VERTEX
10
10.368
20
8.75495
30
3.24
0
VERTEX
10
10.3761
20
8.74409
30
3.24
0
VERTEX
10
10.3843
20
8.73866
30
3.24
0
VERTEX
10
10.3951
20
8.72779
30
3.24
0
VERTEX
10
10.4087
20
8.70607
30
3.24
0
VERTEX
10
10.4304
20
8.68434
30
3.24
0
VERTEX
10
10.4739
20
8.67077
30
3.24
0
VERTEX
10
10.5608
20
8.6762
30
3.24
0
VERTEX
10
10.6042
20
8.67891
30
3.24
0
VERTEX
10
10.6151
20
8.67891
30
3.24
0
VERTEX
10
10.626
20
8.68706
30
3.24
0
VERTEX
10
10.6368
20
8.68978
30
3.24
0
VERTEX
10
10.6558
20
8.70607
30
3.24
0
VERTEX
10
10.6613
20
8.7115
30
3.24
0
VERTEX
10
10.6613
20
8.71693
30
3.24
0
VERTEX
10
10.6667
20
8.72236
30
3.24
0
VERTEX
10
10.6721
20
8.72236
30
3.24
0
VERTEX
10
10.6776
20
8.72779
30
3.24
0
VERTEX
10
10.6884
20
8.73051
30
3.24
0
VERTEX
10
10.6884
20
8.74137
30
3.24
0
VERTEX
10
10.6939
20
8.7468
30
3.24
0
VERTEX
10
10.6993
20
8.76853
30
3.24
0
VERTEX
10
10.7292
20
8.80926
30
3.24
0
VERTEX
10
10.7427
20
8.83098
30
3.24
0
VERTEX
10
10.7509
20
8.84185
30
3.24
0
VERTEX
10
10.7536
20
8.85271
30
3.24
0
VERTEX
10
10.7536
20
8.85814
30
3.24
0
VERTEX
10
10.778
20
8.89887
30
3.24
0
VERTEX
10
10.7889
20
8.90159
30
3.24
0
VERTEX
10
10.797
20
8.92331
30
3.24
0
VERTEX
10
10.8052
20
8.93146
30
3.24
0
VERTEX
10
10.8052
20
8.93689
30
3.24
0
VERTEX
10
10.8188
20
8.9559
30
3.24
0
VERTEX
10
10.8188
20
8.97762
30
3.24
0
VERTEX
10
10.8106
20
8.99935
30
3.24
0
VERTEX
10
10.8052
20
9.0075
30
3.24
0
VERTEX
10
10.8052
20
9.01836
30
3.24
0
VERTEX
10
10.797
20
9.02922
30
3.24
0
VERTEX
10
10.797
20
9.03465
30
3.24
0
VERTEX
10
10.7916
20
9.04008
30
3.24
0
VERTEX
10
10.7916
20
9.05094
30
3.24
0
VERTEX
10
10.7916
20
9.05638
30
3.24
0
VERTEX
10
10.7862
20
9.05909
30
3.24
0
VERTEX
10
10.7835
20
9.06995
30
3.24
0
VERTEX
10
10.7753
20
9.08082
30
3.24
0
VERTEX
10
10.7753
20
9.08625
30
3.24
0
VERTEX
10
10.7672
20
9.09711
30
3.24
0
VERTEX
10
10.7292
20
9.12698
30
3.24
0
VERTEX
10
10.7237
20
9.12698
30
3.24
0
VERTEX
10
10.7183
20
9.13241
30
3.24
0
VERTEX
10
10.6748
20
9.13784
30
3.24
0
VERTEX
10
10.6314
20
9.1487
30
3.24
0
VERTEX
10
10.6205
20
9.1487
30
3.24
0
VERTEX
10
10.6151
20
9.1487
30
3.24
0
VERTEX
10
10.6124
20
9.15414
30
3.24
0
VERTEX
10
10.5689
20
9.165
30
3.24
0
VERTEX
10
10.5472
20
9.17314
30
3.24
0
VERTEX
10
10.5364
20
9.17586
30
3.24
0
VERTEX
10
10.5146
20
9.19758
30
3.24
0
VERTEX
10
10.4712
20
9.18401
30
3.24
0
VERTEX
10
10.4495
20
9.17314
30
3.24
0
VERTEX
10
10.444
20
9.16228
30
3.24
0
VERTEX
10
10.4223
20
9.1487
30
3.24
0
VERTEX
10
10.3816
20
9.10797
30
3.24
0
VERTEX
10
10.3707
20
9.10254
30
3.24
0
VERTEX
10
10.3653
20
9.09982
30
3.24
0
VERTEX
10
10.3544
20
9.10254
30
3.24
0
VERTEX
10
10.3191
20
9.06724
30
3.24
0
VERTEX
10
10.3082
20
9.06452
30
3.24
0
VERTEX
10
10.3028
20
9.05366
30
3.24
0
VERTEX
10
10.2974
20
9.04823
30
3.24
0
VERTEX
10
10.292
20
9.0265
30
3.24
0
VERTEX
10
10.292
20
9.00478
30
3.24
0
VERTEX
10
10.2838
20
8.98306
30
3.24
0
VERTEX
10
10.2811
20
8.93961
30
3.24
0
VERTEX
10
10.2811
20
8.92874
30
3.24
0
SEQEND
0
POLYLINE
62
31
66
1
70
1
3
contour
0
VERTEX
10
9.86399
20
7.85665
30
3.24
0
VERTEX
10
9.87051
20
7.84362
30
3.24
0
VERTEX
10
9.87377
20
7.79148
30
3.24
0
VERTEX
10
9.9031
20
7.73934
30
3.24
0
VERTEX
10
9.91287
20
7.71327
30
3.24
0
VERTEX
10
9.93243
20
7.69372
30
3.24
0
VERTEX
10
9.9585
20
7.68394
30
3.24
0
VERTEX
10
9.96501
20
7.68394
30
3.24
0
VERTEX
10
9.96827
20
7.67743
30
3.24
0
VERTEX
10
9.99434
20
7.66765
30
3.24
0
VERTEX
10
10.0204
20
7.65136
30
3.24
0
VERTEX
10
10.04
20
7.63181
30
3.24
0
VERTEX
10
10.0497
20
7.62203
30
3.24
0
VERTEX
10
10.0497
20
7.61551
30
3.24
0
VERTEX
10
10.0595
20
7.60248
30
3.24
0
VERTEX
10
10.0693
20
7.57641
30
3.24
0
VERTEX
10
10.0856
20
7.55034
30
3.24
0
VERTEX
10
10.0888
20
7.5373
30
3.24
0
VERTEX
10
10.0888
20
7.53079
30
3.24
0
VERTEX
10
10.0954
20
7.52427
30
3.24
0
VERTEX
10
10.1051
20
7.47213
30
3.24
0
VERTEX
10
10.1117
20
7.46887
30
3.24
0
VERTEX
10
10.1084
20
7.36459
30
3.24
0
VERTEX
10
10.1149
20
7.35156
30
3.24
0
VERTEX
10
10.1149
20
7.34504
30
3.24
0
VERTEX
10
10.141
20
7.34178
30
3.24
0
VERTEX
10
10.1931
20
7.3483
30
3.24
0
VERTEX
10
10.2192
20
7.35482
30
3.24
0
VERTEX
10
10.2322
20
7.35482
30
3.24
0
VERTEX
10
10.2387
20
7.36134
30
3.24
0
VERTEX
10
10.343
20
7.38089
30
3.24
0
VERTEX
10
10.3561
20
7.38415
30
3.24
0
VERTEX
10
10.4603
20
7.37437
30
3.24
0
VERTEX
10
10.4734
20
7.37437
30
3.24
0
VERTEX
10
10.4766
20
7.36785
30
3.24
0
VERTEX
10
10.4831
20
7.36785
30
3.24
0
VERTEX
10
10.4864
20
7.41999
30
3.24
0
VERTEX
10
10.4864
20
7.43303
30
3.24
0
VERTEX
10
10.4766
20
7.4591
30
3.24
0
VERTEX
10
10.4734
20
7.47213
30
3.24
0
VERTEX
10
10.4636
20
7.48517
30
3.24
0
VERTEX
10
10.4603
20
7.51123
30
3.24
0
VERTEX
10
10.4603
20
7.52427
30
3.24
0
VERTEX
10
10.4538
20
7.5373
30
3.24
0
VERTEX
10
10.4571
20
7.58944
30
3.24
0
VERTEX
10
10.4571
20
7.61551
30
3.24
0
VERTEX
10
10.4571
20
7.62855
30
3.24
0
VERTEX
10
10.4668
20
7.65462
30
3.24
0
VERTEX
10
10.4701
20
7.68069
30
3.24
0
VERTEX
10
10.4668
20
7.70675
30
3.24
0
VERTEX
10
10.4668
20
7.71979
30
3.24
0
VERTEX
10
10.444
20
7.73934
30
3.24
0
VERTEX
10
10.4245
20
7.79148
30
3.24
0
VERTEX
10
10.418
20
7.80452
30
3.24
0
VERTEX
10
10.418
20
7.85665
30
3.24
0
VERTEX
10
10.4245
20
7.85991
30
3.24
0
VERTEX
10
10.4245
20
7.88598
30
3.24
0
VERTEX
10
10.4343
20
7.91205
30
3.24
0
VERTEX
10
10.4473
20
7.92183
30
3.24
0
VERTEX
10
10.4538
20
7.93486
30
3.24
0
VERTEX
10
10.506
20
7.92509
30
3.24
0
VERTEX
10
10.5125
20
7.92509
30
3.24
0
VERTEX
10
10.5385
20
7.90879
30
3.24
0
VERTEX
10
10.5451
20
7.90228
30
3.24
0
VERTEX
10
10.5972
20
7.89576
30
3.24
0
VERTEX
10
10.6493
20
7.89576
30
3.24
0
VERTEX
10
10.6624
20
7.89902
30
3.24
0
VERTEX
10
10.6754
20
7.90879
30
3.24
0
VERTEX
10
10.6787
20
7.93486
30
3.24
0
VERTEX
10
10.6787
20
7.94138
30
3.24
0
VERTEX
10
10.6689
20
7.9479
30
3.24
0
VERTEX
10
10.6461
20
7.97397
30
3.24
0
VERTEX
10
10.6037
20
8.00655
30
3.24
0
VERTEX
10
10.5907
20
8.00981
30
3.24
0
VERTEX
10
10.5776
20
8.02285
30
3.24
0
VERTEX
10
10.5711
20
8.0261
30
3.24
0
VERTEX
10
10.5711
20
8.03262
30
3.24
0
VERTEX
10
10.5646
20
8.03914
30
3.24
0
VERTEX
10
10.5385
20
8.0424
30
3.24
0
VERTEX
10
10.5288
20
8.03914
30
3.24
0
VERTEX
10
10.506
20
8.06195
30
3.24
0
VERTEX
10
10.5027
20
8.08802
30
3.24
0
VERTEX
10
10.5027
20
8.09454
30
3.24
0
VERTEX
10
10.4799
20
8.11083
30
3.24
0
VERTEX
10
10.4701
20
8.12386
30
3.24
0
VERTEX
10
10.4668
20
8.13364
30
3.24
0
VERTEX
10
10.4473
20
8.15645
30
3.24
0
VERTEX
10
10.4473
20
8.16297
30
3.24
0
VERTEX
10
10.4245
20
8.18904
30
3.24
0
VERTEX
10
10.4017
20
8.20859
30
3.24
0
VERTEX
10
10.3495
20
8.22488
30
3.24
0
VERTEX
10
10.2453
20
8.2705
30
3.24
0
VERTEX
10
10.2192
20
8.29006
30
3.24
0
VERTEX
10
10.2127
20
8.29006
30
3.24
0
VERTEX
10
10.1638
20
8.33242
30
3.24
0
VERTEX
10
10.1573
20
8.33242
30
3.24
0
VERTEX
10
10.1442
20
8.3422
30
3.24
0
VERTEX
10
10.1182
20
8.34545
30
3.24
0
VERTEX
10
10.066
20
8.33568
30
3.24
0
VERTEX
10
10.0432
20
8.31613
30
3.24
0
VERTEX
10
10.0302
20
8.31287
30
3.24
0
VERTEX
10
10.0041
20
8.29657
30
3.24
0
VERTEX
10
9.99108
20
8.29006
30
3.24
0
VERTEX
10
9.98457
20
8.28354
30
3.24
0
VERTEX
10
9.97805
20
8.28354
30
3.24
0
VERTEX
10
9.96827
20
8.2705
30
3.24
0
VERTEX
10
9.96175
20
8.26399
30
3.24
0
VERTEX
10
9.95198
20
8.23792
30
3.24
0
VERTEX
10
9.93243
20
8.21185
30
3.24
0
VERTEX
10
9.92265
20
8.19881
30
3.24
0
VERTEX
10
9.90636
20
8.14668
30
3.24
0
VERTEX
10
9.9031
20
8.12061
30
3.24
0
VERTEX
10
9.89332
20
8.09454
30
3.24
0
VERTEX
10
9.88681
20
8.0815
30
3.24
0
VERTEX
10
9.88029
20
8.02936
30
3.24
0
VERTEX
10
9.88029
20
7.97722
30
3.24
0
VERTEX
10
9.88029
20
7.95116
30
3.24
0
VERTEX
10
9.87051
20
7.92509
30
3.24
0
VERTEX
10
9.86399
20
7.87295
30
3.24
0
VERTEX
10
9.86399
20
7.85991
30
3.24
0
SEQEND
0
POLYLINE
62
224
66
1
70
1
3
mitochondrion
0
VERTEX
10
10.0782
20
8.02704
30
3.24
0
VERTEX
10
10.0824
20
8.01868
30
3.24
0
VERTEX
10
10.0887
20
7.98522
30
3.24
0
VERTEX
10
10.095
20
7.96849
30
3.24
0
VERTEX
10
10.1096
20
7.95177
30
3.24
0
VERTEX
10
10.118
20
7.9434
30
3.24
0
VERTEX
10
10.1347
20
7.93504
30
3.24
0
VERTEX
10
10.1493
20
7.9204
30
3.24
0
VERTEX
10
10.1598
20
7.90995
30
3.24
0
VERTEX
10
10.164
20
7.90995
30
3.24
0
VERTEX
10
10.1786
20
7.8974
30
3.24
0
VERTEX
10
10.187
20
7.88904
30
3.24
0
VERTEX
10
10.2037
20
7.87859
30
3.24
0
VERTEX
10
10.2121
20
7.87231
30
3.24
0
VERTEX
10
10.2288
20
7.86604
30
3.24
0
VERTEX
10
10.2371
20
7.86604
30
3.24
0
VERTEX
10
10.2413
20
7.86604
30
3.24
0
VERTEX
10
10.2455
20
7.86186
30
3.24
0
VERTEX
10
10.279
20
7.86395
30
3.24
0
VERTEX
10
10.2873
20
7.86604
30
3.24
0
VERTEX
10
10.2894
20
7.87022
30
3.24
0
VERTEX
10
10.2936
20
7.87022
30
3.24
0
VERTEX
10
10.3103
20
7.88277
30
3.24
0
VERTEX
10
10.3229
20
7.8974
30
3.24
0
VERTEX
10
10.3291
20
7.91413
30
3.24
0
VERTEX
10
10.3354
20
7.94759
30
3.24
0
VERTEX
10
10.3375
20
7.96431
30
3.24
0
VERTEX
10
10.3438
20
7.97059
30
3.24
0
VERTEX
10
10.3459
20
7.98731
30
3.24
0
VERTEX
10
10.348
20
7.99568
30
3.24
0
VERTEX
10
10.3438
20
8.0124
30
3.24
0
VERTEX
10
10.3312
20
8.02286
30
3.24
0
VERTEX
10
10.3312
20
8.02704
30
3.24
0
VERTEX
10
10.3271
20
8.03122
30
3.24
0
VERTEX
10
10.325
20
8.03959
30
3.24
0
VERTEX
10
10.3041
20
8.07304
30
3.24
0
VERTEX
10
10.2978
20
8.08977
30
3.24
0
VERTEX
10
10.2915
20
8.09813
30
3.24
0
VERTEX
10
10.2748
20
8.10859
30
3.24
0
VERTEX
10
10.2706
20
8.11277
30
3.24
0
VERTEX
10
10.2539
20
8.11486
30
3.24
0
VERTEX
10
10.2204
20
8.12531
30
3.24
0
VERTEX
10
10.2037
20
8.1295
30
3.24
0
VERTEX
10
10.1702
20
8.12322
30
3.24
0
VERTEX
10
10.1535
20
8.11486
30
3.24
0
VERTEX
10
10.1368
20
8.10231
30
3.24
0
VERTEX
10
10.1284
20
8.09813
30
3.24
0
VERTEX
10
10.1012
20
8.07095
30
3.24
0
VERTEX
10
10.095
20
8.06259
30
3.24
0
VERTEX
10
10.0866
20
8.0584
30
3.24
0
VERTEX
10
10.0803
20
8.04168
30
3.24
0
VERTEX
10
10.0782
20
8.03331
30
3.24
0
VERTEX
10
10.0782
20
8.02913
30
3.24
0
SEQEND
0
POLYLINE
62
227
66
1
70
1
3
endoplasmic_reticulum
0
VERTEX
10
10.0347
20
8.13676
30
3.24
0
VERTEX
10
10.044
20
8.1237
30
3.24
0
VERTEX
10
10.0478
20
8.11997
30
3.24
0
VERTEX
10
10.0776
20
8.12183
30
3.24
0
VERTEX
10
10.0832
20
8.12743
30
3.24
0
VERTEX
10
10.0851
20
8.1349
30
3.24
0
VERTEX
10
10.0907
20
8.1405
30
3.24
0
VERTEX
10
10.0907
20
8.14796
30
3.24
0
VERTEX
10
10.1
20
8.16102
30
3.24
0
VERTEX
10
10.1038
20
8.16476
30
3.24
0
VERTEX
10
10.1336
20
8.16662
30
3.24
0
VERTEX
10
10.1411
20
8.17222
30
3.24
0
VERTEX
10
10.1411
20
8.17969
30
3.24
0
VERTEX
10
10.1336
20
8.19275
30
3.24
0
VERTEX
10
10.1318
20
8.20021
30
3.24
0
VERTEX
10
10.1224
20
8.21514
30
3.24
0
VERTEX
10
10.1094
20
8.22634
30
3.24
0
VERTEX
10
10.1075
20
8.23381
30
3.24
0
VERTEX
10
10.0926
20
8.23194
30
3.24
0
VERTEX
10
10.0851
20
8.23007
30
3.24
0
VERTEX
10
10.0851
20
8.22261
30
3.24
0
VERTEX
10
10.0758
20
8.20768
30
3.24
0
VERTEX
10
10.0515
20
8.18715
30
3.24
0
VERTEX
10
10.044
20
8.18155
30
3.24
0
VERTEX
10
10.044
20
8.17782
30
3.24
0
VERTEX
10
10.0347
20
8.16476
30
3.24
0
VERTEX
10
10.0347
20
8.14983
30
3.24
0
VERTEX
10
10.0347
20
8.14236
30
3.24
0
VERTEX
10
10.0347
20
8.13863
30
3.24
0
SEQEND
0
POLYLINE
62
227
66
1
70
1
3
endoplasmic_reticulum
0
VERTEX
10
9.99553
20
7.75232
30
3.24
0
VERTEX
10
10.0011
20
7.74672
30
3.24
0
VERTEX
10
10.0161
20
7.74672
30
3.24
0
VERTEX
10
10.0235
20
7.74672
30
3.24
0
VERTEX
10
10.0273
20
7.75045
30
3.24
0
VERTEX
10
10.0422
20
7.75419
30
3.24
0
VERTEX
10
10.0459
20
7.75419
30
3.24
0
VERTEX
10
10.0534
20
7.76165
30
3.24
0
VERTEX
10
10.059
20
7.76538
30
3.24
0
VERTEX
10
10.0702
20
7.77845
30
3.24
0
VERTEX
10
10.0758
20
7.78591
30
3.24
0
VERTEX
10
10.0739
20
7.80084
30
3.24
0
VERTEX
10
10.0608
20
7.82883
30
3.24
0
VERTEX
10
10.0534
20
7.83443
30
3.24
0
VERTEX
10
10.0496
20
7.8363
30
3.24
0
VERTEX
10
10.0347
20
7.82883
30
3.24
0
VERTEX
10
10.0329
20
7.82137
30
3.24
0
VERTEX
10
10.0291
20
7.82137
30
3.24
0
VERTEX
10
10.0235
20
7.81577
30
3.24
0
VERTEX
10
10.0086
20
7.81204
30
3.24
0
VERTEX
10
10.0067
20
7.80457
30
3.24
0
VERTEX
10
10.0011
20
7.79711
30
3.24
0
VERTEX
10
9.99739
20
7.79338
30
3.24
0
VERTEX
10
9.99553
20
7.76352
30
3.24
0
VERTEX
10
9.99553
20
7.75605
30
3.24
0
VERTEX
10
9.99553
20
7.75419
30
3.24
0
SEQEND
0
POLYLINE
62
227
66
1
70
1
3
endoplasmic_reticulum
0
VERTEX
10
10.0534
20
7.6926
30
3.24
0
VERTEX
10
10.0571
20
7.68887
30
3.24
0
VERTEX
10
10.072
20
7.68887
30
3.24
0
VERTEX
10
10.087
20
7.6926
30
3.24
0
VERTEX
10
10.0963
20
7.70566
30
3.24
0
VERTEX
10
10.0944
20
7.72059
30
3.24
0
VERTEX
10
10.0926
20
7.72806
30
3.24
0
VERTEX
10
10.0907
20
7.72992
30
3.24
0
VERTEX
10
10.0926
20
7.73366
30
3.24
0
VERTEX
10
10.087
20
7.73926
30
3.24
0
VERTEX
10
10.0795
20
7.74112
30
3.24
0
VERTEX
10
10.0739
20
7.73366
30
3.24
0
VERTEX
10
10.0702
20
7.73179
30
3.24
0
VERTEX
10
10.0702
20
7.72806
30
3.24
0
VERTEX
10
10.0608
20
7.71499
30
3.24
0
VERTEX
10
10.0552
20
7.7094
30
3.24
0
VERTEX
10
10.0534
20
7.69447
30
3.24
0
SEQEND
0
POLYLINE
62
227
66
1
70
1
3
endoplasmic_reticulum
0
VERTEX
10
10.2083
20
8.19462
30
3.24
0
VERTEX
10
10.2101
20
8.18715
30
3.24
0
VERTEX
10
10.2213
20
8.17409
30
3.24
0
VERTEX
10
10.2512
20
8.17782
30
3.24
0
VERTEX
10
10.2549
20
8.18528
30
3.24
0
VERTEX
10
10.2512
20
8.20021
30
3.24
0
VERTEX
10
10.2363
20
8.20955
30
3.24
0
VERTEX
10
10.2288
20
8.21141
30
3.24
0
VERTEX
10
10.2139
20
8.20581
30
3.24
0
VERTEX
10
10.2083
20
8.20021
30
3.24
0
VERTEX
10
10.2083
20
8.19648
30
3.24
0
SEQEND
0
POLYLINE
62
227
66
1
70
1
3
endoplasmic_reticulum
0
VERTEX
10
10.3482
20
8.86086
30
3.24
0
VERTEX
10
10.352
20
8.85899
30
3.24
0
VERTEX
10
10.3669
20
8.86273
30
3.24
0
VERTEX
10
10.3688
20
8.86459
30
3.24
0
VERTEX
10
10.3706
20
8.86086
30
3.24
0
VERTEX
10
10.3874
20
8.88885
30
3.24
0
VERTEX
10
10.3949
20
8.89632
30
3.24
0
VERTEX
10
10.3968
20
8.90378
30
3.24
0
VERTEX
10
10.408
20
8.91685
30
3.24
0
VERTEX
10
10.408
20
8.93178
30
3.24
0
VERTEX
10
10.4061
20
8.93924
30
3.24
0
VERTEX
10
10.4005
20
8.94671
30
3.24
0
VERTEX
10
10.3706
20
8.93364
30
3.24
0
VERTEX
10
10.365
20
8.91871
30
3.24
0
VERTEX
10
10.3538
20
8.90378
30
3.24
0
VERTEX
10
10.3501
20
8.89632
30
3.24
0
VERTEX
10
10.3482
20
8.86646
30
3.24
0
VERTEX
10
10.3482
20
8.86273
30
3.24
0
SEQEND
0
ENDSEC
0
EOF
