0
SECTION
2
ENTITIES
0
POLYLINE
62
224
66
1
70
1
3
mitochondrion
0
VERTEX
10
8.14792
20
9.71911
30
7.32
0
VERTEX
10
8.15209
20
9.69686
30
7.32
0
VERTEX
10
8.15348
20
9.68573
30
7.32
0
VERTEX
10
8.15626
20
9.68017
30
7.32
0
VERTEX
10
8.15904
20
9.67878
30
7.32
0
VERTEX
10
8.16321
20
9.66766
30
7.32
0
VERTEX
10
8.1938
20
9.62595
30
7.32
0
VERTEX
10
8.20215
20
9.61482
30
7.32
0
VERTEX
10
8.21188
20
9.60787
30
7.32
0
VERTEX
10
8.21883
20
9.59814
30
7.32
0
VERTEX
10
8.22856
20
9.5898
30
7.32
0
VERTEX
10
8.24942
20
9.57728
30
7.32
0
VERTEX
10
8.26054
20
9.57172
30
7.32
0
VERTEX
10
8.27167
20
9.56199
30
7.32
0
VERTEX
10
8.28279
20
9.55921
30
7.32
0
VERTEX
10
8.30504
20
9.55921
30
7.32
0
VERTEX
10
8.32728
20
9.55642
30
7.32
0
VERTEX
10
8.37178
20
9.55782
30
7.32
0
VERTEX
10
8.3829
20
9.5606
30
7.32
0
VERTEX
10
8.38846
20
9.56199
30
7.32
0
VERTEX
10
8.39124
20
9.56199
30
7.32
0
VERTEX
10
8.39681
20
9.56616
30
7.32
0
VERTEX
10
8.40237
20
9.56755
30
7.32
0
VERTEX
10
8.4121
20
9.5745
30
7.32
0
VERTEX
10
8.41488
20
9.5745
30
7.32
0
VERTEX
10
8.41905
20
9.57867
30
7.32
0
VERTEX
10
8.4413
20
9.58145
30
7.32
0
VERTEX
10
8.45242
20
9.58145
30
7.32
0
VERTEX
10
8.47467
20
9.58562
30
7.32
0
VERTEX
10
8.49692
20
9.58701
30
7.32
0
VERTEX
10
8.50665
20
9.59675
30
7.32
0
VERTEX
10
8.50804
20
9.60787
30
7.32
0
VERTEX
10
8.51638
20
9.61621
30
7.32
0
VERTEX
10
8.53863
20
9.63568
30
7.32
0
VERTEX
10
8.5581
20
9.65793
30
7.32
0
VERTEX
10
8.57617
20
9.676
30
7.32
0
VERTEX
10
8.58451
20
9.68434
30
7.32
0
VERTEX
10
8.5873
20
9.68713
30
7.32
0
VERTEX
10
8.5873
20
9.68991
30
7.32
0
VERTEX
10
8.60537
20
9.70798
30
7.32
0
VERTEX
10
8.60537
20
9.71076
30
7.32
0
VERTEX
10
8.62345
20
9.73023
30
7.32
0
VERTEX
10
8.62345
20
9.73301
30
7.32
0
VERTEX
10
8.62623
20
9.73579
30
7.32
0
VERTEX
10
8.62623
20
9.74135
30
7.32
0
VERTEX
10
8.6304
20
9.75248
30
7.32
0
VERTEX
10
8.6304
20
9.77472
30
7.32
0
VERTEX
10
8.6304
20
9.78585
30
7.32
0
VERTEX
10
8.6304
20
9.79141
30
7.32
0
VERTEX
10
8.62762
20
9.79419
30
7.32
0
VERTEX
10
8.62623
20
9.80531
30
7.32
0
VERTEX
10
8.62206
20
9.81644
30
7.32
0
VERTEX
10
8.62067
20
9.822
30
7.32
0
VERTEX
10
8.61371
20
9.83312
30
7.32
0
VERTEX
10
8.61093
20
9.83868
30
7.32
0
VERTEX
10
8.59008
20
9.86093
30
7.32
0
VERTEX
10
8.58451
20
9.86649
30
7.32
0
VERTEX
10
8.58173
20
9.86649
30
7.32
0
VERTEX
10
8.57617
20
9.87066
30
7.32
0
VERTEX
10
8.57339
20
9.87344
30
7.32
0
VERTEX
10
8.56783
20
9.87483
30
7.32
0
VERTEX
10
8.54975
20
9.89291
30
7.32
0
VERTEX
10
8.53863
20
9.89708
30
7.32
0
VERTEX
10
8.53307
20
9.89986
30
7.32
0
VERTEX
10
8.53168
20
9.90264
30
7.32
0
VERTEX
10
8.50943
20
9.9082
30
7.32
0
VERTEX
10
8.48718
20
9.91098
30
7.32
0
VERTEX
10
8.47606
20
9.91377
30
7.32
0
VERTEX
10
8.43157
20
9.91377
30
7.32
0
VERTEX
10
8.42601
20
9.91377
30
7.32
0
VERTEX
10
8.41488
20
9.91794
30
7.32
0
VERTEX
10
8.37039
20
9.92489
30
7.32
0
VERTEX
10
8.34814
20
9.92767
30
7.32
0
VERTEX
10
8.32589
20
9.92767
30
7.32
0
VERTEX
10
8.30365
20
9.93323
30
7.32
0
VERTEX
10
8.25915
20
9.93184
30
7.32
0
VERTEX
10
8.25359
20
9.93184
30
7.32
0
VERTEX
10
8.24386
20
9.92489
30
7.32
0
VERTEX
10
8.24247
20
9.92211
30
7.32
0
VERTEX
10
8.22022
20
9.9235
30
7.32
0
VERTEX
10
8.21466
20
9.92211
30
7.32
0
VERTEX
10
8.2091
20
9.9235
30
7.32
0
VERTEX
10
8.20354
20
9.92211
30
7.32
0
VERTEX
10
8.19797
20
9.91794
30
7.32
0
VERTEX
10
8.19797
20
9.91516
30
7.32
0
VERTEX
10
8.19519
20
9.91377
30
7.32
0
VERTEX
10
8.1938
20
9.90264
30
7.32
0
VERTEX
10
8.19241
20
9.89708
30
7.32
0
VERTEX
10
8.19241
20
9.8943
30
7.32
0
VERTEX
10
8.18963
20
9.89152
30
7.32
0
VERTEX
10
8.18546
20
9.86927
30
7.32
0
VERTEX
10
8.17712
20
9.85954
30
7.32
0
VERTEX
10
8.16321
20
9.81504
30
7.32
0
VERTEX
10
8.15487
20
9.7928
30
7.32
0
VERTEX
10
8.14792
20
9.7483
30
7.32
0
VERTEX
10
8.14792
20
9.72606
30
7.32
0
VERTEX
10
8.14792
20
9.7205
30
7.32
0
SEQEND
0
POLYLINE
62
227
66
1
70
1
3
endoplasmic_reticulum
0
VERTEX
10
8.42484
20
10.0001
30
7.32
0
VERTEX
10
8.42753
20
9.99649
30
7.32
0
VERTEX
10
8.42843
20
9.9929
30
7.32
0
VERTEX
10
8.43112
20
9.98932
30
7.32
0
VERTEX
10
8.43202
20
9.98573
30
7.32
0
VERTEX
10
8.43381
20
9.98394
30
7.32
0
VERTEX
10
8.44815
20
9.98304
30
7.32
0
VERTEX
10
8.4625
20
9.98394
30
7.32
0
VERTEX
10
8.46967
20
9.98394
30
7.32
0
VERTEX
10
8.47326
20
9.98663
30
7.32
0
VERTEX
10
8.48043
20
9.98932
30
7.32
0
VERTEX
10
8.48402
20
9.99201
30
7.32
0
VERTEX
10
8.4876
20
9.9929
30
7.32
0
VERTEX
10
8.49119
20
9.99559
30
7.32
0
VERTEX
10
8.49208
20
10.0028
30
7.32
0
VERTEX
10
8.49208
20
10.0064
30
7.32
0
VERTEX
10
8.49208
20
10.0081
30
7.32
0
VERTEX
10
8.48581
20
10.0135
30
7.32
0
VERTEX
10
8.47864
20
10.0144
30
7.32
0
VERTEX
10
8.47684
20
10.0162
30
7.32
0
VERTEX
10
8.4625
20
10.018
30
7.32
0
VERTEX
10
8.46071
20
10.018
30
7.32
0
VERTEX
10
8.45712
20
10.0207
30
7.32
0
VERTEX
10
8.45353
20
10.0216
30
7.32
0
VERTEX
10
8.44995
20
10.0243
30
7.32
0
VERTEX
10
8.44636
20
10.0243
30
7.32
0
VERTEX
10
8.44457
20
10.0243
30
7.32
0
VERTEX
10
8.44277
20
10.0261
30
7.32
0
VERTEX
10
8.43919
20
10.0252
30
7.32
0
VERTEX
10
8.42574
20
10.0108
30
7.32
0
VERTEX
10
8.42484
20
10.0037
30
7.32
0
VERTEX
10
8.42484
20
10.001
30
7.32
0
SEQEND
0
POLYLINE
62
227
66
1
70
1
3
endoplasmic_reticulum
0
VERTEX
10
8.22043
20
9.98304
30
7.32
0
VERTEX
10
8.22222
20
9.97945
30
7.32
0
VERTEX
10
8.23388
20
9.9669
30
7.32
0
VERTEX
10
8.24105
20
9.96421
30
7.32
0
VERTEX
10
8.24464
20
9.96242
30
7.32
0
VERTEX
10
8.25898
20
9.96242
30
7.32
0
VERTEX
10
8.26257
20
9.96332
30
7.32
0
VERTEX
10
8.26974
20
9.9678
30
7.32
0
VERTEX
10
8.27153
20
9.96959
30
7.32
0
VERTEX
10
8.27153
20
9.98394
30
7.32
0
VERTEX
10
8.26974
20
9.99111
30
7.32
0
VERTEX
10
8.26974
20
9.9929
30
7.32
0
VERTEX
10
8.26616
20
9.99649
30
7.32
0
VERTEX
10
8.25181
20
9.99739
30
7.32
0
VERTEX
10
8.23747
20
10.0001
30
7.32
0
VERTEX
10
8.23029
20
10.001
30
7.32
0
VERTEX
10
8.22671
20
10.0001
30
7.32
0
VERTEX
10
8.22133
20
9.9938
30
7.32
0
VERTEX
10
8.22043
20
9.98663
30
7.32
0
VERTEX
10
8.22043
20
9.98394
30
7.32
0
SEQEND
0
POLYLINE
62
227
66
1
70
1
3
endoplasmic_reticulum
0
VERTEX
10
8.03305
20
9.76608
30
7.32
0
VERTEX
10
8.03485
20
9.7589
30
7.32
0
VERTEX
10
8.03754
20
9.75532
30
7.32
0
VERTEX
10
8.05009
20
9.74725
30
7.32
0
VERTEX
10
8.05726
20
9.74277
30
7.32
0
VERTEX
10
8.0716
20
9.74277
30
7.32
0
VERTEX
10
8.07878
20
9.74546
30
7.32
0
VERTEX
10
8.08595
20
9.74994
30
7.32
0
VERTEX
10
8.09223
20
9.75621
30
7.32
0
VERTEX
10
8.09491
20
9.7598
30
7.32
0
VERTEX
10
8.09491
20
9.76159
30
7.32
0
VERTEX
10
8.09671
20
9.76339
30
7.32
0
VERTEX
10
8.0985
20
9.77056
30
7.32
0
VERTEX
10
8.0985
20
9.77773
30
7.32
0
VERTEX
10
8.0994
20
9.78132
30
7.32
0
VERTEX
10
8.10209
20
9.7849
30
7.32
0
VERTEX
10
8.10478
20
9.79925
30
7.32
0
VERTEX
10
8.10926
20
9.81359
30
7.32
0
VERTEX
10
8.11105
20
9.82794
30
7.32
0
VERTEX
10
8.11016
20
9.82973
30
7.32
0
VERTEX
10
8.11374
20
9.83063
30
7.32
0
VERTEX
10
8.11643
20
9.8378
30
7.32
0
VERTEX
10
8.11733
20
9.84497
30
7.32
0
VERTEX
10
8.11643
20
9.85215
30
7.32
0
VERTEX
10
8.11195
20
9.85932
30
7.32
0
VERTEX
10
8.10926
20
9.86201
30
7.32
0
VERTEX
10
8.10836
20
9.8638
30
7.32
0
VERTEX
10
8.09402
20
9.8638
30
7.32
0
VERTEX
10
8.07967
20
9.86111
30
7.32
0
VERTEX
10
8.07609
20
9.86021
30
7.32
0
VERTEX
10
8.0725
20
9.85752
30
7.32
0
VERTEX
10
8.0725
20
9.85573
30
7.32
0
VERTEX
10
8.06981
20
9.85304
30
7.32
0
VERTEX
10
8.06891
20
9.84946
30
7.32
0
VERTEX
10
8.06712
20
9.84766
30
7.32
0
VERTEX
10
8.06264
20
9.83332
30
7.32
0
VERTEX
10
8.05816
20
9.82615
30
7.32
0
VERTEX
10
8.05547
20
9.82256
30
7.32
0
VERTEX
10
8.05278
20
9.82077
30
7.32
0
VERTEX
10
8.04381
20
9.80642
30
7.32
0
VERTEX
10
8.04112
20
9.79208
30
7.32
0
VERTEX
10
8.03754
20
9.7849
30
7.32
0
VERTEX
10
8.03664
20
9.77773
30
7.32
0
VERTEX
10
8.03305
20
9.77504
30
7.32
0
VERTEX
10
8.03305
20
9.76787
30
7.32
0
VERTEX
10
8.03305
20
9.76697
30
7.32
0
SEQEND
0
POLYLINE
62
227
66
1
70
1
3
endoplasmic_reticulum
0
VERTEX
10
8.66781
20
9.79387
30
7.32
0
VERTEX
10
8.67319
20
9.77952
30
7.32
0
VERTEX
10
8.67498
20
9.77235
30
7.32
0
VERTEX
10
8.67498
20
9.77056
30
7.32
0
VERTEX
10
8.67857
20
9.76697
30
7.32
0
VERTEX
10
8.67946
20
9.76518
30
7.32
0
VERTEX
10
8.68036
20
9.76877
30
7.32
0
VERTEX
10
8.68126
20
9.77056
30
7.32
0
VERTEX
10
8.68843
20
9.76877
30
7.32
0
VERTEX
10
8.69201
20
9.76877
30
7.32
0
VERTEX
10
8.69919
20
9.77235
30
7.32
0
VERTEX
10
8.70277
20
9.77325
30
7.32
0
VERTEX
10
8.70815
20
9.77952
30
7.32
0
VERTEX
10
8.70995
20
9.78311
30
7.32
0
VERTEX
10
8.71084
20
9.79028
30
7.32
0
VERTEX
10
8.71084
20
9.79387
30
7.32
0
VERTEX
10
8.71174
20
9.79566
30
7.32
0
VERTEX
10
8.71084
20
9.79746
30
7.32
0
VERTEX
10
8.70905
20
9.79656
30
7.32
0
VERTEX
10
8.70636
20
9.79925
30
7.32
0
VERTEX
10
8.70277
20
9.80015
30
7.32
0
VERTEX
10
8.6956
20
9.80642
30
7.32
0
VERTEX
10
8.68843
20
9.80911
30
7.32
0
VERTEX
10
8.68484
20
9.8109
30
7.32
0
VERTEX
10
8.68305
20
9.8109
30
7.32
0
VERTEX
10
8.68126
20
9.8127
30
7.32
0
VERTEX
10
8.67408
20
9.81359
30
7.32
0
VERTEX
10
8.6705
20
9.81359
30
7.32
0
VERTEX
10
8.6687
20
9.81359
30
7.32
0
VERTEX
10
8.66781
20
9.79925
30
7.32
0
VERTEX
10
8.66781
20
9.79566
30
7.32
0
VERTEX
10
8.66781
20
9.79477
30
7.32
0
SEQEND
0
POLYLINE
62
31
66
1
70
1
3
contour
0
VERTEX
10
7.59716
20
9.94271
30
7.32
0
VERTEX
10
7.60012
20
9.93975
30
7.32
0
VERTEX
10
7.61195
20
9.93827
30
7.32
0
VERTEX
10
7.62378
20
9.93236
30
7.32
0
VERTEX
10
7.6297
20
9.92792
30
7.32
0
VERTEX
10
7.63561
20
9.92644
30
7.32
0
VERTEX
10
7.64153
20
9.92201
30
7.32
0
VERTEX
10
7.64744
20
9.92053
30
7.32
0
VERTEX
10
7.6504
20
9.91757
30
7.32
0
VERTEX
10
7.66223
20
9.91609
30
7.32
0
VERTEX
10
7.67406
20
9.91018
30
7.32
0
VERTEX
10
7.69773
20
9.90278
30
7.32
0
VERTEX
10
7.72139
20
9.90574
30
7.32
0
VERTEX
10
7.73322
20
9.9013
30
7.32
0
VERTEX
10
7.73914
20
9.89687
30
7.32
0
VERTEX
10
7.7628
20
9.89243
30
7.32
0
VERTEX
10
7.78498
20
9.88503
30
7.32
0
VERTEX
10
7.79681
20
9.87764
30
7.32
0
VERTEX
10
7.80273
20
9.87616
30
7.32
0
VERTEX
10
7.80864
20
9.87172
30
7.32
0
VERTEX
10
7.82048
20
9.86729
30
7.32
0
VERTEX
10
7.82639
20
9.86433
30
7.32
0
VERTEX
10
7.82935
20
9.86433
30
7.32
0
VERTEX
10
7.83231
20
9.86137
30
7.32
0
VERTEX
10
7.84414
20
9.85841
30
7.32
0
VERTEX
10
7.8678
20
9.84806
30
7.32
0
VERTEX
10
7.89146
20
9.83475
30
7.32
0
VERTEX
10
7.90329
20
9.82884
30
7.32
0
VERTEX
10
7.90921
20
9.82588
30
7.32
0
VERTEX
10
7.91365
20
9.81996
30
7.32
0
VERTEX
10
7.91365
20
9.817
30
7.32
0
VERTEX
10
7.91808
20
9.81405
30
7.32
0
VERTEX
10
7.93731
20
9.79186
30
7.32
0
VERTEX
10
7.94027
20
9.78743
30
7.32
0
VERTEX
10
7.94175
20
9.77559
30
7.32
0
VERTEX
10
7.94175
20
9.77264
30
7.32
0
VERTEX
10
7.9447
20
9.76968
30
7.32
0
VERTEX
10
7.94618
20
9.76376
30
7.32
0
VERTEX
10
7.95358
20
9.75193
30
7.32
0
VERTEX
10
7.95801
20
9.72827
30
7.32
0
VERTEX
10
7.96097
20
9.71644
30
7.32
0
VERTEX
10
7.96393
20
9.71052
30
7.32
0
VERTEX
10
7.96541
20
9.6632
30
7.32
0
VERTEX
10
7.96541
20
9.65137
30
7.32
0
VERTEX
10
7.96393
20
9.64545
30
7.32
0
VERTEX
10
7.96393
20
9.64249
30
7.32
0
VERTEX
10
7.95358
20
9.63362
30
7.32
0
VERTEX
10
7.93879
20
9.61144
30
7.32
0
VERTEX
10
7.92992
20
9.60404
30
7.32
0
VERTEX
10
7.91513
20
9.58186
30
7.32
0
VERTEX
10
7.91217
20
9.57594
30
7.32
0
VERTEX
10
7.91217
20
9.56411
30
7.32
0
VERTEX
10
7.91217
20
9.56115
30
7.32
0
VERTEX
10
7.91513
20
9.55819
30
7.32
0
VERTEX
10
7.91513
20
9.54636
30
7.32
0
VERTEX
10
7.91513
20
9.54341
30
7.32
0
VERTEX
10
7.91808
20
9.54045
30
7.32
0
VERTEX
10
7.91808
20
9.53749
30
7.32
0
VERTEX
10
7.93435
20
9.51383
30
7.32
0
VERTEX
10
7.94618
20
9.50939
30
7.32
0
VERTEX
10
7.9521
20
9.50643
30
7.32
0
VERTEX
10
7.95801
20
9.50643
30
7.32
0
VERTEX
10
7.96097
20
9.50348
30
7.32
0
VERTEX
10
7.9728
20
9.502
30
7.32
0
VERTEX
10
7.97576
20
9.502
30
7.32
0
VERTEX
10
7.97872
20
9.49904
30
7.32
0
VERTEX
10
7.99055
20
9.49756
30
7.32
0
VERTEX
10
7.99351
20
9.4946
30
7.32
0
VERTEX
10
8.00534
20
9.49312
30
7.32
0
VERTEX
10
8.01126
20
9.49164
30
7.32
0
VERTEX
10
8.02752
20
9.46946
30
7.32
0
VERTEX
10
8.03196
20
9.46354
30
7.32
0
VERTEX
10
8.03344
20
9.45763
30
7.32
0
VERTEX
10
8.03788
20
9.45319
30
7.32
0
VERTEX
10
8.03935
20
9.44728
30
7.32
0
VERTEX
10
8.04379
20
9.44136
30
7.32
0
VERTEX
10
8.04527
20
9.42953
30
7.32
0
VERTEX
10
8.04527
20
9.42657
30
7.32
0
VERTEX
10
8.05562
20
9.41918
30
7.32
0
VERTEX
10
8.07929
20
9.4103
30
7.32
0
VERTEX
10
8.0852
20
9.40735
30
7.32
0
VERTEX
10
8.13253
20
9.40291
30
7.32
0
VERTEX
10
8.15619
20
9.40143
30
7.32
0
VERTEX
10
8.17985
20
9.40291
30
7.32
0
VERTEX
10
8.19168
20
9.40439
30
7.32
0
VERTEX
10
8.1976
20
9.40439
30
7.32
0
VERTEX
10
8.20056
20
9.40735
30
7.32
0
VERTEX
10
8.24788
20
9.4103
30
7.32
0
VERTEX
10
8.2538
20
9.41178
30
7.32
0
VERTEX
10
8.25675
20
9.41474
30
7.32
0
VERTEX
10
8.26859
20
9.41622
30
7.32
0
VERTEX
10
8.28042
20
9.42066
30
7.32
0
VERTEX
10
8.28633
20
9.42361
30
7.32
0
VERTEX
10
8.29225
20
9.42361
30
7.32
0
VERTEX
10
8.29816
20
9.42657
30
7.32
0
VERTEX
10
8.29816
20
9.42953
30
7.32
0
VERTEX
10
8.3026
20
9.43397
30
7.32
0
VERTEX
10
8.30999
20
9.4384
30
7.32
0
VERTEX
10
8.31591
20
9.43988
30
7.32
0
VERTEX
10
8.32774
20
9.44728
30
7.32
0
VERTEX
10
8.33957
20
9.45171
30
7.32
0
VERTEX
10
8.34993
20
9.45911
30
7.32
0
VERTEX
10
8.35584
20
9.46059
30
7.32
0
VERTEX
10
8.36176
20
9.4665
30
7.32
0
VERTEX
10
8.38542
20
9.47242
30
7.32
0
VERTEX
10
8.38838
20
9.47538
30
7.32
0
VERTEX
10
8.40021
20
9.47685
30
7.32
0
VERTEX
10
8.41056
20
9.48425
30
7.32
0
VERTEX
10
8.43422
20
9.49164
30
7.32
0
VERTEX
10
8.43718
20
9.4946
30
7.32
0
VERTEX
10
8.46084
20
9.502
30
7.32
0
VERTEX
10
8.47268
20
9.50495
30
7.32
0
VERTEX
10
8.47859
20
9.50939
30
7.32
0
VERTEX
10
8.50225
20
9.51383
30
7.32
0
VERTEX
10
8.50669
20
9.51974
30
7.32
0
VERTEX
10
8.53035
20
9.52714
30
7.32
0
VERTEX
10
8.5407
20
9.53453
30
7.32
0
VERTEX
10
8.54662
20
9.53601
30
7.32
0
VERTEX
10
8.57028
20
9.5508
30
7.32
0
VERTEX
10
8.5762
20
9.5508
30
7.32
0
VERTEX
10
8.58064
20
9.55524
30
7.32
0
VERTEX
10
8.57916
20
9.55672
30
7.32
0
VERTEX
10
8.58507
20
9.56115
30
7.32
0
VERTEX
10
8.58803
20
9.56115
30
7.32
0
VERTEX
10
8.61021
20
9.57742
30
7.32
0
VERTEX
10
8.62648
20
9.59813
30
7.32
0
VERTEX
10
8.62796
20
9.60996
30
7.32
0
VERTEX
10
8.63388
20
9.61439
30
7.32
0
VERTEX
10
8.65014
20
9.63658
30
7.32
0
VERTEX
10
8.65014
20
9.64249
30
7.32
0
VERTEX
10
8.66937
20
9.6632
30
7.32
0
VERTEX
10
8.68416
20
9.6839
30
7.32
0
VERTEX
10
8.68712
20
9.68834
30
7.32
0
VERTEX
10
8.69007
20
9.68834
30
7.32
0
VERTEX
10
8.69599
20
9.69425
30
7.32
0
VERTEX
10
8.70191
20
9.69573
30
7.32
0
VERTEX
10
8.70782
20
9.70165
30
7.32
0
VERTEX
10
8.71965
20
9.70609
30
7.32
0
VERTEX
10
8.72557
20
9.71348
30
7.32
0
VERTEX
10
8.73148
20
9.71496
30
7.32
0
VERTEX
10
8.74332
20
9.72827
30
7.32
0
VERTEX
10
8.74923
20
9.72975
30
7.32
0
VERTEX
10
8.75515
20
9.73419
30
7.32
0
VERTEX
10
8.7581
20
9.73714
30
7.32
0
VERTEX
10
8.76994
20
9.7401
30
7.32
0
VERTEX
10
8.77585
20
9.74454
30
7.32
0
VERTEX
10
8.77881
20
9.74454
30
7.32
0
VERTEX
10
8.78325
20
9.75045
30
7.32
0
VERTEX
10
8.7936
20
9.75785
30
7.32
0
VERTEX
10
8.79656
20
9.75785
30
7.32
0
VERTEX
10
8.80839
20
9.76672
30
7.32
0
VERTEX
10
8.8143
20
9.77116
30
7.32
0
VERTEX
10
8.81726
20
9.77707
30
7.32
0
VERTEX
10
8.82318
20
9.78003
30
7.32
0
VERTEX
10
8.8424
20
9.80222
30
7.32
0
VERTEX
10
8.84832
20
9.81405
30
7.32
0
VERTEX
10
8.84832
20
9.817
30
7.32
0
VERTEX
10
8.86459
20
9.83919
30
7.32
0
VERTEX
10
8.86754
20
9.85102
30
7.32
0
VERTEX
10
8.8705
20
9.85693
30
7.32
0
VERTEX
10
8.86902
20
9.8806
30
7.32
0
VERTEX
10
8.86459
20
9.90426
30
7.32
0
VERTEX
10
8.86015
20
9.9087
30
7.32
0
VERTEX
10
8.85571
20
9.92053
30
7.32
0
VERTEX
10
8.84832
20
9.93236
30
7.32
0
VERTEX
10
8.8424
20
9.93384
30
7.32
0
VERTEX
10
8.83649
20
9.93236
30
7.32
0
VERTEX
10
8.83797
20
9.9294
30
7.32
0
VERTEX
10
8.82761
20
9.92792
30
7.32
0
VERTEX
10
8.8217
20
9.93088
30
7.32
0
VERTEX
10
8.81726
20
9.9368
30
7.32
0
VERTEX
10
8.8143
20
9.93975
30
7.32
0
VERTEX
10
8.79064
20
9.94715
30
7.32
0
VERTEX
10
8.78029
20
9.95454
30
7.32
0
VERTEX
10
8.75663
20
9.96342
30
7.32
0
VERTEX
10
8.75367
20
9.96342
30
7.32
0
VERTEX
10
8.75071
20
9.96637
30
7.32
0
VERTEX
10
8.72705
20
9.97081
30
7.32
0
VERTEX
10
8.71522
20
9.97377
30
7.32
0
VERTEX
10
8.7093
20
9.97673
30
7.32
0
VERTEX
10
8.70634
20
9.97968
30
7.32
0
VERTEX
10
8.70043
20
9.98116
30
7.32
0
VERTEX
10
8.69451
20
9.9856
30
7.32
0
VERTEX
10
8.68268
20
9.98708
30
7.32
0
VERTEX
10
8.67085
20
9.99152
30
7.32
0
VERTEX
10
8.65902
20
9.99891
30
7.32
0
VERTEX
10
8.64719
20
10.0033
30
7.32
0
VERTEX
10
8.63536
20
10.0048
30
7.32
0
VERTEX
10
8.62944
20
10.0063
30
7.32
0
VERTEX
10
8.62352
20
10.0107
30
7.32
0
VERTEX
10
8.61169
20
10.0152
30
7.32
0
VERTEX
10
8.59986
20
10.0226
30
7.32
0
VERTEX
10
8.58803
20
10.0255
30
7.32
0
VERTEX
10
8.57916
20
10.0344
30
7.32
0
VERTEX
10
8.57324
20
10.0374
30
7.32
0
VERTEX
10
8.56141
20
10.0374
30
7.32
0
VERTEX
10
8.54958
20
10.0433
30
7.32
0
VERTEX
10
8.5481
20
10.0462
30
7.32
0
VERTEX
10
8.53627
20
10.0492
30
7.32
0
VERTEX
10
8.53183
20
10.0536
30
7.32
0
VERTEX
10
8.52592
20
10.0536
30
7.32
0
VERTEX
10
8.52296
20
10.0536
30
7.32
0
VERTEX
10
8.52
20
10.0566
30
7.32
0
VERTEX
10
8.50817
20
10.061
30
7.32
0
VERTEX
10
8.49634
20
10.0625
30
7.32
0
VERTEX
10
8.49042
20
10.0655
30
7.32
0
VERTEX
10
8.48451
20
10.0655
30
7.32
0
VERTEX
10
8.47859
20
10.0684
30
7.32
0
VERTEX
10
8.47563
20
10.0684
30
7.32
0
VERTEX
10
8.47268
20
10.0714
30
7.32
0
VERTEX
10
8.44901
20
10.0758
30
7.32
0
VERTEX
10
8.40169
20
10.0743
30
7.32
0
VERTEX
10
8.37802
20
10.0758
30
7.32
0
VERTEX
10
8.36915
20
10.0832
30
7.32
0
VERTEX
10
8.35732
20
10.0862
30
7.32
0
VERTEX
10
8.33366
20
10.101
30
7.32
0
VERTEX
10
8.30999
20
10.1039
30
7.32
0
VERTEX
10
8.28633
20
10.1128
30
7.32
0
VERTEX
10
8.23901
20
10.1231
30
7.32
0
VERTEX
10
8.21534
20
10.1276
30
7.32
0
VERTEX
10
8.19168
20
10.1291
30
7.32
0
VERTEX
10
8.18577
20
10.1291
30
7.32
0
VERTEX
10
8.18281
20
10.1291
30
7.32
0
VERTEX
10
8.17246
20
10.1202
30
7.32
0
VERTEX
10
8.16654
20
10.1172
30
7.32
0
VERTEX
10
8.16358
20
10.1172
30
7.32
0
VERTEX
10
8.1621
20
10.1143
30
7.32
0
VERTEX
10
8.15915
20
10.1143
30
7.32
0
VERTEX
10
8.15767
20
10.1113
30
7.32
0
VERTEX
10
8.134
20
10.1024
30
7.32
0
VERTEX
10
8.12217
20
10.098
30
7.32
0
VERTEX
10
8.11034
20
10.0906
30
7.32
0
VERTEX
10
8.09851
20
10.0862
30
7.32
0
VERTEX
10
8.08668
20
10.0773
30
7.32
0
VERTEX
10
8.07633
20
10.0729
30
7.32
0
VERTEX
10
8.05266
20
10.0714
30
7.32
0
VERTEX
10
8.04083
20
10.0714
30
7.32
0
VERTEX
10
8.029
20
10.0684
30
7.32
0
VERTEX
10
8.00534
20
10.0669
30
7.32
0
VERTEX
10
7.98168
20
10.0625
30
7.32
0
VERTEX
10
7.96985
20
10.0581
30
7.32
0
VERTEX
10
7.95801
20
10.0581
30
7.32
0
VERTEX
10
7.91069
20
10.0507
30
7.32
0
VERTEX
10
7.88703
20
10.0492
30
7.32
0
VERTEX
10
7.8752
20
10.0462
30
7.32
0
VERTEX
10
7.86336
20
10.0462
30
7.32
0
VERTEX
10
7.85153
20
10.0418
30
7.32
0
VERTEX
10
7.84562
20
10.0403
30
7.32
0
VERTEX
10
7.84414
20
10.0344
30
7.32
0
VERTEX
10
7.83822
20
10.0285
30
7.32
0
VERTEX
10
7.83231
20
10.027
30
7.32
0
VERTEX
10
7.82048
20
10.0167
30
7.32
0
VERTEX
10
7.79829
20
10.0019
30
7.32
0
VERTEX
10
7.78794
20
9.99743
30
7.32
0
VERTEX
10
7.78202
20
9.99299
30
7.32
0
VERTEX
10
7.77019
20
9.99004
30
7.32
0
VERTEX
10
7.67554
20
9.99004
30
7.32
0
VERTEX
10
7.66371
20
9.99004
30
7.32
0
VERTEX
10
7.6578
20
9.9856
30
7.32
0
VERTEX
10
7.64596
20
9.9856
30
7.32
0
VERTEX
10
7.64005
20
9.98264
30
7.32
0
VERTEX
10
7.62822
20
9.98116
30
7.32
0
VERTEX
10
7.62526
20
9.98116
30
7.32
0
VERTEX
10
7.6223
20
9.97821
30
7.32
0
VERTEX
10
7.61047
20
9.97377
30
7.32
0
VERTEX
10
7.6016
20
9.96342
30
7.32
0
VERTEX
10
7.59716
20
9.95306
30
7.32
0
VERTEX
10
7.59716
20
9.94715
30
7.32
0
VERTEX
10
7.59716
20
9.94419
30
7.32
0
SEQEND
0
POLYLINE
62
31
66
1
70
1
3
contour
0
VERTEX
10
7.4049
20
10.1379
30
7.32
0
VERTEX
10
7.40786
20
10.135
30
7.32
0
VERTEX
10
7.41082
20
10.1113
30
7.32
0
VERTEX
10
7.41082
20
10.1083
30
7.32
0
VERTEX
10
7.41525
20
10.1024
30
7.32
0
VERTEX
10
7.42413
20
10.0788
30
7.32
0
VERTEX
10
7.42856
20
10.0551
30
7.32
0
VERTEX
10
7.42856
20
10.0314
30
7.32
0
VERTEX
10
7.42561
20
10.0196
30
7.32
0
VERTEX
10
7.42265
20
10.0137
30
7.32
0
VERTEX
10
7.42117
20
9.99004
30
7.32
0
VERTEX
10
7.42117
20
9.97821
30
7.32
0
VERTEX
10
7.42265
20
9.97229
30
7.32
0
VERTEX
10
7.42709
20
9.96785
30
7.32
0
VERTEX
10
7.45075
20
9.96194
30
7.32
0
VERTEX
10
7.47441
20
9.96194
30
7.32
0
VERTEX
10
7.49807
20
9.9575
30
7.32
0
VERTEX
10
7.5099
20
9.95454
30
7.32
0
VERTEX
10
7.53357
20
9.95454
30
7.32
0
VERTEX
10
7.5454
20
9.95454
30
7.32
0
VERTEX
10
7.55131
20
9.95602
30
7.32
0
VERTEX
10
7.56167
20
9.9649
30
7.32
0
VERTEX
10
7.56167
20
9.96785
30
7.32
0
VERTEX
10
7.57054
20
9.97821
30
7.32
0
VERTEX
10
7.57646
20
9.97968
30
7.32
0
VERTEX
10
7.57941
20
9.98264
30
7.32
0
VERTEX
10
7.59124
20
9.98708
30
7.32
0
VERTEX
10
7.5942
20
9.99152
30
7.32
0
VERTEX
10
7.60603
20
9.99891
30
7.32
0
VERTEX
10
7.60603
20
10.0019
30
7.32
0
VERTEX
10
7.61343
20
10.0093
30
7.32
0
VERTEX
10
7.61491
20
10.0211
30
7.32
0
VERTEX
10
7.61343
20
10.0329
30
7.32
0
VERTEX
10
7.61195
20
10.0388
30
7.32
0
VERTEX
10
7.60751
20
10.0433
30
7.32
0
VERTEX
10
7.60603
20
10.0891
30
7.32
0
VERTEX
10
7.61195
20
10.1364
30
7.32
0
VERTEX
10
7.61195
20
10.1601
30
7.32
0
VERTEX
10
7.61195
20
10.1719
30
7.32
0
VERTEX
10
7.61195
20
10.1779
30
7.32
0
VERTEX
10
7.60751
20
10.1882
30
7.32
0
VERTEX
10
7.60455
20
10.1941
30
7.32
0
VERTEX
10
7.59864
20
10.2
30
7.32
0
VERTEX
10
7.59568
20
10.2119
30
7.32
0
VERTEX
10
7.58977
20
10.2237
30
7.32
0
VERTEX
10
7.58681
20
10.2355
30
7.32
0
VERTEX
10
7.57793
20
10.2444
30
7.32
0
VERTEX
10
7.57202
20
10.2488
30
7.32
0
VERTEX
10
7.54836
20
10.2488
30
7.32
0
VERTEX
10
7.52469
20
10.2548
30
7.32
0
VERTEX
10
7.50103
20
10.2533
30
7.32
0
VERTEX
10
7.49512
20
10.2503
30
7.32
0
VERTEX
10
7.49364
20
10.2474
30
7.32
0
VERTEX
10
7.46997
20
10.2415
30
7.32
0
VERTEX
10
7.45814
20
10.24
30
7.32
0
VERTEX
10
7.44631
20
10.2355
30
7.32
0
VERTEX
10
7.4404
20
10.2341
30
7.32
0
VERTEX
10
7.43892
20
10.2311
30
7.32
0
VERTEX
10
7.433
20
10.2296
30
7.32
0
VERTEX
10
7.42561
20
10.2193
30
7.32
0
VERTEX
10
7.42265
20
10.2193
30
7.32
0
VERTEX
10
7.4123
20
10.1971
30
7.32
0
VERTEX
10
7.4123
20
10.1941
30
7.32
0
VERTEX
10
7.40934
20
10.1926
30
7.32
0
VERTEX
10
7.40934
20
10.169
30
7.32
0
VERTEX
10
7.4049
20
10.1453
30
7.32
0
VERTEX
10
7.4049
20
10.1394
30
7.32
0
SEQEND
0
POLYLINE
62
31
66
1
70
1
3
contour
0
VERTEX
10
7.18307
20
9.73714
30
7.32
0
VERTEX
10
7.1875
20
9.71348
30
7.32
0
VERTEX
10
7.1875
20
9.70756
30
7.32
0
VERTEX
10
7.19194
20
9.69573
30
7.32
0
VERTEX
10
7.19342
20
9.68982
30
7.32
0
VERTEX
10
7.19785
20
9.6839
30
7.32
0
VERTEX
10
7.19933
20
9.67799
30
7.32
0
VERTEX
10
7.20377
20
9.67207
30
7.32
0
VERTEX
10
7.20525
20
9.66024
30
7.32
0
VERTEX
10
7.20673
20
9.65432
30
7.32
0
VERTEX
10
7.20525
20
9.65137
30
7.32
0
VERTEX
10
7.20969
20
9.63953
30
7.32
0
VERTEX
10
7.21412
20
9.59221
30
7.32
0
VERTEX
10
7.21412
20
9.56855
30
7.32
0
VERTEX
10
7.21708
20
9.55672
30
7.32
0
VERTEX
10
7.21708
20
9.54488
30
7.32
0
VERTEX
10
7.22595
20
9.52122
30
7.32
0
VERTEX
10
7.23039
20
9.50939
30
7.32
0
VERTEX
10
7.24518
20
9.48869
30
7.32
0
VERTEX
10
7.25553
20
9.47981
30
7.32
0
VERTEX
10
7.25997
20
9.4739
30
7.32
0
VERTEX
10
7.26293
20
9.47242
30
7.32
0
VERTEX
10
7.26293
20
9.46946
30
7.32
0
VERTEX
10
7.28215
20
9.44728
30
7.32
0
VERTEX
10
7.28955
20
9.44136
30
7.32
0
VERTEX
10
7.2925
20
9.44136
30
7.32
0
VERTEX
10
7.31469
20
9.42214
30
7.32
0
VERTEX
10
7.32356
20
9.41178
30
7.32
0
VERTEX
10
7.32504
20
9.40883
30
7.32
0
VERTEX
10
7.3487
20
9.4103
30
7.32
0
VERTEX
10
7.35462
20
9.41326
30
7.32
0
VERTEX
10
7.36349
20
9.42509
30
7.32
0
VERTEX
10
7.37384
20
9.43397
30
7.32
0
VERTEX
10
7.37828
20
9.4458
30
7.32
0
VERTEX
10
7.38716
20
9.45763
30
7.32
0
VERTEX
10
7.39899
20
9.46798
30
7.32
0
VERTEX
10
7.40638
20
9.47981
30
7.32
0
VERTEX
10
7.40934
20
9.48573
30
7.32
0
VERTEX
10
7.41969
20
9.49608
30
7.32
0
VERTEX
10
7.42117
20
9.502
30
7.32
0
VERTEX
10
7.42117
20
9.50495
30
7.32
0
VERTEX
10
7.42413
20
9.50791
30
7.32
0
VERTEX
10
7.42413
20
9.51974
30
7.32
0
VERTEX
10
7.42117
20
9.5227
30
7.32
0
VERTEX
10
7.41821
20
9.5227
30
7.32
0
VERTEX
10
7.41525
20
9.52566
30
7.32
0
VERTEX
10
7.4123
20
9.52566
30
7.32
0
VERTEX
10
7.40342
20
9.53601
30
7.32
0
VERTEX
10
7.39751
20
9.54045
30
7.32
0
VERTEX
10
7.39603
20
9.54341
30
7.32
0
VERTEX
10
7.39307
20
9.54341
30
7.32
0
VERTEX
10
7.38863
20
9.55524
30
7.32
0
VERTEX
10
7.38272
20
9.55967
30
7.32
0
VERTEX
10
7.37976
20
9.56559
30
7.32
0
VERTEX
10
7.3768
20
9.56559
30
7.32
0
VERTEX
10
7.36793
20
9.58925
30
7.32
0
VERTEX
10
7.36793
20
9.60108
30
7.32
0
VERTEX
10
7.36497
20
9.60256
30
7.32
0
VERTEX
10
7.36497
20
9.64989
30
7.32
0
VERTEX
10
7.36645
20
9.67355
30
7.32
0
VERTEX
10
7.36793
20
9.68538
30
7.32
0
VERTEX
10
7.37532
20
9.70904
30
7.32
0
VERTEX
10
7.37976
20
9.73271
30
7.32
0
VERTEX
10
7.38124
20
9.73862
30
7.32
0
VERTEX
10
7.38863
20
9.75045
30
7.32
0
VERTEX
10
7.39307
20
9.75637
30
7.32
0
VERTEX
10
7.39307
20
9.76228
30
7.32
0
VERTEX
10
7.4123
20
9.78299
30
7.32
0
VERTEX
10
7.43448
20
9.79926
30
7.32
0
VERTEX
10
7.44335
20
9.80961
30
7.32
0
VERTEX
10
7.44927
20
9.82144
30
7.32
0
VERTEX
10
7.45075
20
9.83327
30
7.32
0
VERTEX
10
7.44927
20
9.8451
30
7.32
0
VERTEX
10
7.44927
20
9.85102
30
7.32
0
VERTEX
10
7.433
20
9.8732
30
7.32
0
VERTEX
10
7.42709
20
9.87468
30
7.32
0
VERTEX
10
7.42117
20
9.8806
30
7.32
0
VERTEX
10
7.41525
20
9.88356
30
7.32
0
VERTEX
10
7.39159
20
9.88208
30
7.32
0
VERTEX
10
7.36793
20
9.87172
30
7.32
0
VERTEX
10
7.34427
20
9.86581
30
7.32
0
VERTEX
10
7.33244
20
9.86433
30
7.32
0
VERTEX
10
7.30877
20
9.85546
30
7.32
0
VERTEX
10
7.29694
20
9.85398
30
7.32
0
VERTEX
10
7.27328
20
9.8451
30
7.32
0
VERTEX
10
7.26145
20
9.83919
30
7.32
0
VERTEX
10
7.25553
20
9.83623
30
7.32
0
VERTEX
10
7.25257
20
9.83623
30
7.32
0
VERTEX
10
7.24074
20
9.82884
30
7.32
0
VERTEX
10
7.23779
20
9.82884
30
7.32
0
VERTEX
10
7.22743
20
9.81996
30
7.32
0
VERTEX
10
7.22448
20
9.817
30
7.32
0
VERTEX
10
7.21856
20
9.81553
30
7.32
0
VERTEX
10
7.21412
20
9.81109
30
7.32
0
VERTEX
10
7.20821
20
9.80961
30
7.32
0
VERTEX
10
7.20229
20
9.80517
30
7.32
0
VERTEX
10
7.19638
20
9.80369
30
7.32
0
VERTEX
10
7.18602
20
9.79334
30
7.32
0
VERTEX
10
7.18307
20
9.79038
30
7.32
0
VERTEX
10
7.18307
20
9.74306
30
7.32
0
VERTEX
10
7.18307
20
9.73862
30
7.32
0
SEQEND
0
ENDSEC
0
EOF
