0
SECTION
2
ENTITIES
0
POLYLINE
62
31
66
1
70
1
3
contour
0
VERTEX
10
7.8495
20
7.7209
30
4.12
0
VERTEX
10
7.85837
20
7.68542
30
4.12
0
VERTEX
10
7.87168
20
7.66768
30
4.12
0
VERTEX
10
7.8872
20
7.65438
30
4.12
0
VERTEX
10
7.89607
20
7.64772
30
4.12
0
VERTEX
10
7.96703
20
7.64994
30
4.12
0
VERTEX
10
8.0025
20
7.65216
30
4.12
0
VERTEX
10
8.01137
20
7.65216
30
4.12
0
VERTEX
10
8.02911
20
7.66325
30
4.12
0
VERTEX
10
8.04463
20
7.66546
30
4.12
0
VERTEX
10
8.06016
20
7.65438
30
4.12
0
VERTEX
10
8.06902
20
7.65438
30
4.12
0
VERTEX
10
8.07789
20
7.65881
30
4.12
0
VERTEX
10
8.09563
20
7.66103
30
4.12
0
VERTEX
10
8.1045
20
7.66546
30
4.12
0
VERTEX
10
8.1045
20
7.6699
30
4.12
0
VERTEX
10
8.12224
20
7.68098
30
4.12
0
VERTEX
10
8.13111
20
7.68542
30
4.12
0
VERTEX
10
8.16659
20
7.68985
30
4.12
0
VERTEX
10
8.20207
20
7.70538
30
4.12
0
VERTEX
10
8.21094
20
7.70759
30
4.12
0
VERTEX
10
8.21981
20
7.71424
30
4.12
0
VERTEX
10
8.25528
20
7.72533
30
4.12
0
VERTEX
10
8.26415
20
7.72755
30
4.12
0
VERTEX
10
8.26859
20
7.73198
30
4.12
0
VERTEX
10
8.27746
20
7.73198
30
4.12
0
VERTEX
10
8.28633
20
7.73642
30
4.12
0
VERTEX
10
8.2952
20
7.73642
30
4.12
0
VERTEX
10
8.29963
20
7.73642
30
4.12
0
VERTEX
10
8.30407
20
7.74085
30
4.12
0
VERTEX
10
8.31294
20
7.74085
30
4.12
0
VERTEX
10
8.31737
20
7.74529
30
4.12
0
VERTEX
10
8.32181
20
7.74529
30
4.12
0
VERTEX
10
8.32624
20
7.74972
30
4.12
0
VERTEX
10
8.33511
20
7.75194
30
4.12
0
VERTEX
10
8.35285
20
7.76524
30
4.12
0
VERTEX
10
8.37059
20
7.78298
30
4.12
0
VERTEX
10
8.38167
20
7.79851
30
4.12
0
VERTEX
10
8.38833
20
7.80737
30
4.12
0
VERTEX
10
8.39941
20
7.84285
30
4.12
0
VERTEX
10
8.39941
20
7.84729
30
4.12
0
VERTEX
10
8.40607
20
7.85616
30
4.12
0
VERTEX
10
8.40828
20
7.92711
30
4.12
0
VERTEX
10
8.4105
20
7.96259
30
4.12
0
VERTEX
10
8.41494
20
7.98033
30
4.12
0
VERTEX
10
8.42602
20
7.99807
30
4.12
0
VERTEX
10
8.42824
20
8.00694
30
4.12
0
VERTEX
10
8.43267
20
8.01137
30
4.12
0
VERTEX
10
8.43711
20
8.02911
30
4.12
0
VERTEX
10
8.43711
20
8.03798
30
4.12
0
VERTEX
10
8.44154
20
8.04685
30
4.12
0
VERTEX
10
8.44376
20
8.11781
30
4.12
0
VERTEX
10
8.44376
20
8.12668
30
4.12
0
VERTEX
10
8.43933
20
8.13555
30
4.12
0
VERTEX
10
8.43711
20
8.13998
30
4.12
0
VERTEX
10
8.44376
20
8.14885
30
4.12
0
VERTEX
10
8.44598
20
8.15328
30
4.12
0
VERTEX
10
8.44154
20
8.15772
30
4.12
0
VERTEX
10
8.43267
20
8.15994
30
4.12
0
VERTEX
10
8.43046
20
8.16437
30
4.12
0
VERTEX
10
8.42602
20
8.16437
30
4.12
0
VERTEX
10
8.41272
20
8.18211
30
4.12
0
VERTEX
10
8.39498
20
8.1932
30
4.12
0
VERTEX
10
8.3595
20
8.19098
30
4.12
0
VERTEX
10
8.34398
20
8.18211
30
4.12
0
VERTEX
10
8.33511
20
8.17989
30
4.12
0
VERTEX
10
8.33067
20
8.17546
30
4.12
0
VERTEX
10
8.25972
20
8.1555
30
4.12
0
VERTEX
10
8.25085
20
8.15328
30
4.12
0
VERTEX
10
8.24641
20
8.14885
30
4.12
0
VERTEX
10
8.22868
20
8.14663
30
4.12
0
VERTEX
10
8.21981
20
8.14442
30
4.12
0
VERTEX
10
8.21537
20
8.13998
30
4.12
0
VERTEX
10
8.19763
20
8.13776
30
4.12
0
VERTEX
10
8.18876
20
8.13111
30
4.12
0
VERTEX
10
8.17989
20
8.12889
30
4.12
0
VERTEX
10
8.17546
20
8.12002
30
4.12
0
VERTEX
10
8.16659
20
8.11781
30
4.12
0
VERTEX
10
8.15772
20
8.11115
30
4.12
0
VERTEX
10
8.14885
20
8.10894
30
4.12
0
VERTEX
10
8.14442
20
8.1045
30
4.12
0
VERTEX
10
8.10894
20
8.09342
30
4.12
0
VERTEX
10
8.10007
20
8.08898
30
4.12
0
VERTEX
10
8.06459
20
8.08676
30
4.12
0
VERTEX
10
8.04685
20
8.08011
30
4.12
0
VERTEX
10
8.02911
20
8.07789
30
4.12
0
VERTEX
10
8.02689
20
8.08011
30
4.12
0
VERTEX
10
8.01803
20
8.07789
30
4.12
0
VERTEX
10
8.00916
20
8.07124
30
4.12
0
VERTEX
10
8.00472
20
8.07124
30
4.12
0
VERTEX
10
7.99585
20
8.06459
30
4.12
0
VERTEX
10
7.98698
20
8.06459
30
4.12
0
VERTEX
10
7.96924
20
8.05572
30
4.12
0
VERTEX
10
7.96037
20
8.04907
30
4.12
0
VERTEX
10
7.94263
20
8.04463
30
4.12
0
VERTEX
10
7.91381
20
8.01803
30
4.12
0
VERTEX
10
7.88942
20
7.98698
30
4.12
0
VERTEX
10
7.86946
20
7.95372
30
4.12
0
VERTEX
10
7.86503
20
7.9515
30
4.12
0
VERTEX
10
7.86281
20
7.93376
30
4.12
0
VERTEX
10
7.86281
20
7.92933
30
4.12
0
VERTEX
10
7.85616
20
7.92268
30
4.12
0
VERTEX
10
7.8495
20
7.78077
30
4.12
0
VERTEX
10
7.8495
20
7.74529
30
4.12
0
VERTEX
10
7.8495
20
7.72755
30
4.12
0
VERTEX
10
7.8495
20
7.72311
30
4.12
0
SEQEND
0
POLYLINE
62
31
66
1
70
1
3
contour
0
VERTEX
10
7.97015
20
8.67348
30
4.12
0
VERTEX
10
7.99188
20
8.65447
30
4.12
0
VERTEX
10
8.00002
20
8.64904
30
4.12
0
VERTEX
10
8.01632
20
8.63003
30
4.12
0
VERTEX
10
8.05977
20
8.61374
30
4.12
0
VERTEX
10
8.08149
20
8.60559
30
4.12
0
VERTEX
10
8.12494
20
8.60831
30
4.12
0
VERTEX
10
8.14666
20
8.61102
30
4.12
0
VERTEX
10
8.16296
20
8.62732
30
4.12
0
VERTEX
10
8.16839
20
8.63275
30
4.12
0
VERTEX
10
8.16567
20
8.65447
30
4.12
0
VERTEX
10
8.16567
20
8.66534
30
4.12
0
VERTEX
10
8.15753
20
8.6762
30
4.12
0
VERTEX
10
8.15481
20
8.68706
30
4.12
0
VERTEX
10
8.11951
20
8.72236
30
4.12
0
VERTEX
10
8.1005
20
8.73866
30
4.12
0
VERTEX
10
8.09778
20
8.74952
30
4.12
0
VERTEX
10
8.08692
20
8.76038
30
4.12
0
VERTEX
10
8.08149
20
8.76581
30
4.12
0
VERTEX
10
8.05977
20
8.77124
30
4.12
0
VERTEX
10
8.03804
20
8.7821
30
4.12
0
VERTEX
10
8.02718
20
8.7821
30
4.12
0
VERTEX
10
7.98645
20
8.75223
30
4.12
0
VERTEX
10
7.97558
20
8.74137
30
4.12
0
VERTEX
10
7.97287
20
8.73594
30
4.12
0
VERTEX
10
7.9783
20
8.72779
30
4.12
0
VERTEX
10
7.97015
20
8.71965
30
4.12
0
VERTEX
10
7.97015
20
8.6762
30
4.12
0
SEQEND
0
POLYLINE
62
224
66
1
70
1
3
mitochondrion
0
VERTEX
10
9.55921
20
8.56644
30
4.12
0
VERTEX
10
9.56616
20
8.54419
30
4.12
0
VERTEX
10
9.57033
20
8.54002
30
4.12
0
VERTEX
10
9.57311
20
8.5289
30
4.12
0
VERTEX
10
9.57311
20
8.52334
30
4.12
0
VERTEX
10
9.57589
20
8.52055
30
4.12
0
VERTEX
10
9.57728
20
8.50943
30
4.12
0
VERTEX
10
9.58145
20
8.49831
30
4.12
0
VERTEX
10
9.58423
20
8.49553
30
4.12
0
VERTEX
10
9.58423
20
8.49275
30
4.12
0
VERTEX
10
9.58701
20
8.48997
30
4.12
0
VERTEX
10
9.58701
20
8.48718
30
4.12
0
VERTEX
10
9.59119
20
8.48162
30
4.12
0
VERTEX
10
9.59536
20
8.45938
30
4.12
0
VERTEX
10
9.60648
20
8.43713
30
4.12
0
VERTEX
10
9.61065
20
8.43296
30
4.12
0
VERTEX
10
9.61204
20
8.4274
30
4.12
0
VERTEX
10
9.61621
20
8.42183
30
4.12
0
VERTEX
10
9.62038
20
8.41071
30
4.12
0
VERTEX
10
9.63012
20
8.39959
30
4.12
0
VERTEX
10
9.63985
20
8.39124
30
4.12
0
VERTEX
10
9.6468
20
8.38151
30
4.12
0
VERTEX
10
9.66488
20
8.36205
30
4.12
0
VERTEX
10
9.68017
20
8.34258
30
4.12
0
VERTEX
10
9.70103
20
8.32589
30
4.12
0
VERTEX
10
9.70659
20
8.32311
30
4.12
0
VERTEX
10
9.70937
20
8.32033
30
4.12
0
VERTEX
10
9.7205
20
8.31894
30
4.12
0
VERTEX
10
9.73162
20
8.31199
30
4.12
0
VERTEX
10
9.73718
20
8.30782
30
4.12
0
VERTEX
10
9.73996
20
8.30504
30
4.12
0
VERTEX
10
9.74274
20
8.30504
30
4.12
0
VERTEX
10
9.74552
20
8.30226
30
4.12
0
VERTEX
10
9.75108
20
8.30087
30
4.12
0
VERTEX
10
9.76221
20
8.29391
30
4.12
0
VERTEX
10
9.77333
20
8.29252
30
4.12
0
VERTEX
10
9.79558
20
8.28557
30
4.12
0
VERTEX
10
9.80114
20
8.28279
30
4.12
0
VERTEX
10
9.82339
20
8.28001
30
4.12
0
VERTEX
10
9.84563
20
8.2814
30
4.12
0
VERTEX
10
9.8512
20
8.2814
30
4.12
0
VERTEX
10
9.85398
20
8.28418
30
4.12
0
VERTEX
10
9.8651
20
8.28557
30
4.12
0
VERTEX
10
9.87483
20
8.28974
30
4.12
0
VERTEX
10
9.88596
20
8.2967
30
4.12
0
VERTEX
10
9.89152
20
8.30226
30
4.12
0
VERTEX
10
9.90264
20
8.30782
30
4.12
0
VERTEX
10
9.9082
20
8.30921
30
4.12
0
VERTEX
10
9.91377
20
8.31477
30
4.12
0
VERTEX
10
9.92489
20
8.32033
30
4.12
0
VERTEX
10
9.92906
20
8.32589
30
4.12
0
VERTEX
10
9.93879
20
8.33285
30
4.12
0
VERTEX
10
9.94435
20
8.33702
30
4.12
0
VERTEX
10
9.94575
20
8.33563
30
4.12
0
VERTEX
10
9.95131
20
8.3398
30
4.12
0
VERTEX
10
9.9527
20
8.34536
30
4.12
0
VERTEX
10
9.97355
20
8.36066
30
4.12
0
VERTEX
10
9.98607
20
8.38151
30
4.12
0
VERTEX
10
9.98885
20
8.38429
30
4.12
0
VERTEX
10
9.99163
20
8.39542
30
4.12
0
VERTEX
10
9.99163
20
8.40098
30
4.12
0
VERTEX
10
9.9958
20
8.40654
30
4.12
0
VERTEX
10
9.99719
20
8.41766
30
4.12
0
VERTEX
10
9.98329
20
8.50665
30
4.12
0
VERTEX
10
9.97773
20
8.5289
30
4.12
0
VERTEX
10
9.96382
20
8.55114
30
4.12
0
VERTEX
10
9.96382
20
8.55392
30
4.12
0
VERTEX
10
9.93184
20
8.59564
30
4.12
0
VERTEX
10
9.89291
20
8.6304
30
4.12
0
VERTEX
10
9.87483
20
8.64847
30
4.12
0
VERTEX
10
9.86927
20
8.65125
30
4.12
0
VERTEX
10
9.84981
20
8.66933
30
4.12
0
VERTEX
10
9.84563
20
8.67489
30
4.12
0
VERTEX
10
9.84007
20
8.67767
30
4.12
0
VERTEX
10
9.83729
20
8.68323
30
4.12
0
VERTEX
10
9.81644
20
8.70131
30
4.12
0
VERTEX
10
9.81365
20
8.70131
30
4.12
0
VERTEX
10
9.80392
20
8.70965
30
4.12
0
VERTEX
10
9.79836
20
8.71243
30
4.12
0
VERTEX
10
9.78724
20
8.71243
30
4.12
0
VERTEX
10
9.78446
20
8.71243
30
4.12
0
VERTEX
10
9.77889
20
8.71661
30
4.12
0
VERTEX
10
9.77333
20
8.718
30
4.12
0
VERTEX
10
9.76221
20
8.72634
30
4.12
0
VERTEX
10
9.73996
20
8.73329
30
4.12
0
VERTEX
10
9.72884
20
8.73746
30
4.12
0
VERTEX
10
9.70659
20
8.73746
30
4.12
0
VERTEX
10
9.70103
20
8.73746
30
4.12
0
VERTEX
10
9.67878
20
8.72217
30
4.12
0
VERTEX
10
9.66766
20
8.718
30
4.12
0
VERTEX
10
9.65654
20
8.71104
30
4.12
0
VERTEX
10
9.6468
20
8.70687
30
4.12
0
VERTEX
10
9.63568
20
8.70548
30
4.12
0
VERTEX
10
9.63012
20
8.70409
30
4.12
0
VERTEX
10
9.60926
20
8.68463
30
4.12
0
VERTEX
10
9.60092
20
8.67628
30
4.12
0
VERTEX
10
9.59814
20
8.67628
30
4.12
0
VERTEX
10
9.5884
20
8.66655
30
4.12
0
VERTEX
10
9.58562
20
8.66099
30
4.12
0
VERTEX
10
9.58006
20
8.65821
30
4.12
0
VERTEX
10
9.57172
20
8.64708
30
4.12
0
VERTEX
10
9.56755
20
8.64152
30
4.12
0
VERTEX
10
9.56477
20
8.6304
30
4.12
0
VERTEX
10
9.56338
20
8.62484
30
4.12
0
VERTEX
10
9.56338
20
8.62206
30
4.12
0
VERTEX
10
9.5606
20
8.61928
30
4.12
0
VERTEX
10
9.55921
20
8.57478
30
4.12
0
VERTEX
10
9.55921
20
8.56922
30
4.12
0
VERTEX
10
9.55921
20
8.56783
30
4.12
0
SEQEND
0
POLYLINE
62
236
66
1
70
1
3
postsynaptic_density
0
VERTEX
10
7.99493
20
7.71686
30
4.12
0
VERTEX
10
7.99866
20
7.7094
30
4.12
0
VERTEX
10
8.00053
20
7.67954
30
4.12
0
VERTEX
10
8.00426
20
7.66461
30
4.12
0
VERTEX
10
8.01359
20
7.64968
30
4.12
0
VERTEX
10
8.02666
20
7.64035
30
4.12
0
VERTEX
10
8.03039
20
7.63848
30
4.12
0
VERTEX
10
8.03039
20
7.63475
30
4.12
0
VERTEX
10
8.04345
20
7.62542
30
4.12
0
VERTEX
10
8.07331
20
7.61609
30
4.12
0
VERTEX
10
8.08824
20
7.61422
30
4.12
0
VERTEX
10
8.09198
20
7.61422
30
4.12
0
VERTEX
10
8.09571
20
7.61049
30
4.12
0
VERTEX
10
8.12557
20
7.60676
30
4.12
0
VERTEX
10
8.1405
20
7.60302
30
4.12
0
VERTEX
10
8.17036
20
7.60302
30
4.12
0
VERTEX
10
8.20022
20
7.60862
30
4.12
0
VERTEX
10
8.23008
20
7.61049
30
4.12
0
VERTEX
10
8.2562
20
7.63102
30
4.12
0
VERTEX
10
8.2618
20
7.63848
30
4.12
0
VERTEX
10
8.26927
20
7.64221
30
4.12
0
VERTEX
10
8.28046
20
7.65528
30
4.12
0
VERTEX
10
8.28606
20
7.66274
30
4.12
0
VERTEX
10
8.28793
20
7.67021
30
4.12
0
VERTEX
10
8.29913
20
7.6814
30
4.12
0
VERTEX
10
8.30659
20
7.68887
30
4.12
0
VERTEX
10
8.31032
20
7.69074
30
4.12
0
VERTEX
10
8.30846
20
7.7206
30
4.12
0
VERTEX
10
8.30659
20
7.73553
30
4.12
0
VERTEX
10
8.29726
20
7.75045
30
4.12
0
VERTEX
10
8.29353
20
7.75232
30
4.12
0
VERTEX
10
8.28793
20
7.76725
30
4.12
0
VERTEX
10
8.2842
20
7.77098
30
4.12
0
VERTEX
10
8.16476
20
7.77472
30
4.12
0
VERTEX
10
8.10504
20
7.77845
30
4.12
0
VERTEX
10
8.07518
20
7.77845
30
4.12
0
VERTEX
10
8.04532
20
7.77285
30
4.12
0
VERTEX
10
8.03039
20
7.77285
30
4.12
0
VERTEX
10
8.02292
20
7.77285
30
4.12
0
VERTEX
10
8.01546
20
7.76912
30
4.12
0
VERTEX
10
8.01173
20
7.76352
30
4.12
0
VERTEX
10
8.00799
20
7.76165
30
4.12
0
VERTEX
10
8.00799
20
7.75792
30
4.12
0
VERTEX
10
8.00426
20
7.75419
30
4.12
0
VERTEX
10
8.00426
20
7.75045
30
4.12
0
VERTEX
10
7.99866
20
7.74299
30
4.12
0
VERTEX
10
7.99493
20
7.73926
30
4.12
0
VERTEX
10
7.99493
20
7.72433
30
4.12
0
VERTEX
10
7.99493
20
7.71873
30
4.12
0
SEQEND
0
POLYLINE
62
227
66
1
70
1
3
endoplasmic_reticulum
0
VERTEX
10
9.48831
20
8.62144
30
4.12
0
VERTEX
10
9.49135
20
8.61991
30
4.12
0
VERTEX
10
9.49135
20
8.61382
30
4.12
0
VERTEX
10
9.50506
20
8.59097
30
4.12
0
VERTEX
10
9.51116
20
8.58945
30
4.12
0
VERTEX
10
9.5142
20
8.59249
30
4.12
0
VERTEX
10
9.51725
20
8.59249
30
4.12
0
VERTEX
10
9.5203
20
8.59859
30
4.12
0
VERTEX
10
9.52335
20
8.60163
30
4.12
0
VERTEX
10
9.52487
20
8.62601
30
4.12
0
VERTEX
10
9.52335
20
8.6321
30
4.12
0
VERTEX
10
9.5142
20
8.64429
30
4.12
0
VERTEX
10
9.51268
20
8.64581
30
4.12
0
VERTEX
10
9.5142
20
8.64734
30
4.12
0
VERTEX
10
9.50811
20
8.65191
30
4.12
0
VERTEX
10
9.50202
20
8.65343
30
4.12
0
VERTEX
10
9.49745
20
8.65953
30
4.12
0
VERTEX
10
9.49592
20
8.66257
30
4.12
0
VERTEX
10
9.4944
20
8.65953
30
4.12
0
VERTEX
10
9.49592
20
8.65343
30
4.12
0
VERTEX
10
9.49745
20
8.65038
30
4.12
0
VERTEX
10
9.48983
20
8.63972
30
4.12
0
VERTEX
10
9.48831
20
8.62753
30
4.12
0
VERTEX
10
9.48831
20
8.62296
30
4.12
0
SEQEND
0
POLYLINE
62
227
66
1
70
1
3
endoplasmic_reticulum
0
VERTEX
10
9.51725
20
8.82559
30
4.12
0
VERTEX
10
9.5203
20
8.8134
30
4.12
0
VERTEX
10
9.53706
20
8.79055
30
4.12
0
VERTEX
10
9.54315
20
8.7875
30
4.12
0
VERTEX
10
9.55382
20
8.77683
30
4.12
0
VERTEX
10
9.55839
20
8.77074
30
4.12
0
VERTEX
10
9.58276
20
8.75551
30
4.12
0
VERTEX
10
9.58733
20
8.74941
30
4.12
0
VERTEX
10
9.59038
20
8.74636
30
4.12
0
VERTEX
10
9.60257
20
8.74179
30
4.12
0
VERTEX
10
9.60866
20
8.74179
30
4.12
0
VERTEX
10
9.61171
20
8.74636
30
4.12
0
VERTEX
10
9.61475
20
8.74789
30
4.12
0
VERTEX
10
9.61475
20
8.75398
30
4.12
0
VERTEX
10
9.6178
20
8.75551
30
4.12
0
VERTEX
10
9.61933
20
8.76769
30
4.12
0
VERTEX
10
9.61933
20
8.77379
30
4.12
0
VERTEX
10
9.61933
20
8.77683
30
4.12
0
VERTEX
10
9.61475
20
8.7814
30
4.12
0
VERTEX
10
9.61018
20
8.80578
30
4.12
0
VERTEX
10
9.60561
20
8.81797
30
4.12
0
VERTEX
10
9.60257
20
8.82406
30
4.12
0
VERTEX
10
9.59038
20
8.82559
30
4.12
0
VERTEX
10
9.58733
20
8.82559
30
4.12
0
VERTEX
10
9.58124
20
8.83016
30
4.12
0
VERTEX
10
9.56905
20
8.83168
30
4.12
0
VERTEX
10
9.55686
20
8.83777
30
4.12
0
VERTEX
10
9.55077
20
8.84082
30
4.12
0
VERTEX
10
9.52639
20
8.84082
30
4.12
0
VERTEX
10
9.52335
20
8.8393
30
4.12
0
VERTEX
10
9.52335
20
8.83625
30
4.12
0
VERTEX
10
9.51877
20
8.83168
30
4.12
0
VERTEX
10
9.51725
20
8.82711
30
4.12
0
SEQEND
0
POLYLINE
62
227
66
1
70
1
3
endoplasmic_reticulum
0
VERTEX
10
9.35576
20
8.44928
30
4.12
0
VERTEX
10
9.3649
20
8.42491
30
4.12
0
VERTEX
10
9.37252
20
8.41424
30
4.12
0
VERTEX
10
9.38471
20
8.40967
30
4.12
0
VERTEX
10
9.3908
20
8.40967
30
4.12
0
VERTEX
10
9.40147
20
8.40206
30
4.12
0
VERTEX
10
9.41061
20
8.39139
30
4.12
0
VERTEX
10
9.4167
20
8.38834
30
4.12
0
VERTEX
10
9.42889
20
8.38834
30
4.12
0
VERTEX
10
9.43955
20
8.39749
30
4.12
0
VERTEX
10
9.4426
20
8.40967
30
4.12
0
VERTEX
10
9.44565
20
8.41272
30
4.12
0
VERTEX
10
9.45174
20
8.41272
30
4.12
0
VERTEX
10
9.45479
20
8.41272
30
4.12
0
VERTEX
10
9.45784
20
8.41577
30
4.12
0
VERTEX
10
9.46393
20
8.41729
30
4.12
0
VERTEX
10
9.47155
20
8.42948
30
4.12
0
VERTEX
10
9.47307
20
8.44167
30
4.12
0
VERTEX
10
9.47002
20
8.45385
30
4.12
0
VERTEX
10
9.4685
20
8.45995
30
4.12
0
VERTEX
10
9.47002
20
8.46604
30
4.12
0
VERTEX
10
9.46088
20
8.47518
30
4.12
0
VERTEX
10
9.44869
20
8.47823
30
4.12
0
VERTEX
10
9.42432
20
8.47671
30
4.12
0
VERTEX
10
9.41213
20
8.47671
30
4.12
0
VERTEX
10
9.40604
20
8.47671
30
4.12
0
VERTEX
10
9.38166
20
8.46604
30
4.12
0
VERTEX
10
9.371
20
8.4569
30
4.12
0
VERTEX
10
9.36795
20
8.4569
30
4.12
0
VERTEX
10
9.36186
20
8.45233
30
4.12
0
VERTEX
10
9.35881
20
8.45081
30
4.12
0
VERTEX
10
9.35728
20
8.45233
30
4.12
0
VERTEX
10
9.35576
20
8.45081
30
4.12
0
SEQEND
0
POLYLINE
62
236
66
1
70
1
3
postsynaptic_density
0
VERTEX
10
8.76867
20
8.74373
30
4.12
0
VERTEX
10
8.77144
20
8.73265
30
4.12
0
VERTEX
10
8.77698
20
8.72711
30
4.12
0
VERTEX
10
8.78252
20
8.70494
30
4.12
0
VERTEX
10
8.79083
20
8.69386
30
4.12
0
VERTEX
10
8.79083
20
8.68832
30
4.12
0
VERTEX
10
8.80468
20
8.66616
30
4.12
0
VERTEX
10
8.81022
20
8.66062
30
4.12
0
VERTEX
10
8.81022
20
8.65508
30
4.12
0
VERTEX
10
8.82685
20
8.63291
30
4.12
0
VERTEX
10
8.85178
20
8.59412
30
4.12
0
VERTEX
10
8.86286
20
8.57473
30
4.12
0
VERTEX
10
8.87118
20
8.56642
30
4.12
0
VERTEX
10
8.87395
20
8.55534
30
4.12
0
VERTEX
10
8.87949
20
8.5498
30
4.12
0
VERTEX
10
8.88226
20
8.53871
30
4.12
0
VERTEX
10
8.90165
20
8.51932
30
4.12
0
VERTEX
10
8.91273
20
8.50824
30
4.12
0
VERTEX
10
8.99585
20
8.45006
30
4.12
0
VERTEX
10
9.00139
20
8.44729
30
4.12
0
VERTEX
10
9.01247
20
8.45283
30
4.12
0
VERTEX
10
9.0568
20
8.45837
30
4.12
0
VERTEX
10
9.10113
20
8.47222
30
4.12
0
VERTEX
10
9.12329
20
8.48884
30
4.12
0
VERTEX
10
9.12606
20
8.49439
30
4.12
0
VERTEX
10
9.13714
20
8.49716
30
4.12
0
VERTEX
10
9.15931
20
8.51655
30
4.12
0
VERTEX
10
9.17039
20
8.51932
30
4.12
0
VERTEX
10
9.19255
20
8.53594
30
4.12
0
VERTEX
10
9.20087
20
8.54703
30
4.12
0
VERTEX
10
9.21195
20
8.55257
30
4.12
0
VERTEX
10
9.21749
20
8.55811
30
4.12
0
VERTEX
10
9.21749
20
8.56365
30
4.12
0
VERTEX
10
9.20918
20
8.57473
30
4.12
0
VERTEX
10
9.20087
20
8.59689
30
4.12
0
VERTEX
10
9.1981
20
8.60798
30
4.12
0
VERTEX
10
9.18978
20
8.61906
30
4.12
0
VERTEX
10
9.18978
20
8.6246
30
4.12
0
VERTEX
10
9.18147
20
8.63568
30
4.12
0
VERTEX
10
9.17593
20
8.65785
30
4.12
0
VERTEX
10
9.17316
20
8.66893
30
4.12
0
VERTEX
10
9.16485
20
8.68001
30
4.12
0
VERTEX
10
9.16208
20
8.69109
30
4.12
0
VERTEX
10
9.15377
20
8.70217
30
4.12
0
VERTEX
10
9.15377
20
8.70772
30
4.12
0
VERTEX
10
9.13714
20
8.72988
30
4.12
0
VERTEX
10
9.12052
20
8.7465
30
4.12
0
VERTEX
10
9.10667
20
8.76867
30
4.12
0
VERTEX
10
9.10113
20
8.77421
30
4.12
0
VERTEX
10
9.0845
20
8.81854
30
4.12
0
VERTEX
10
8.90719
20
8.78529
30
4.12
0
VERTEX
10
8.81854
20
8.76867
30
4.12
0
VERTEX
10
8.79637
20
8.76313
30
4.12
0
VERTEX
10
8.79083
20
8.76313
30
4.12
0
VERTEX
10
8.77975
20
8.75204
30
4.12
0
VERTEX
10
8.76867
20
8.74927
30
4.12
0
VERTEX
10
8.76867
20
8.7465
30
4.12
0
SEQEND
0
POLYLINE
62
31
66
1
70
1
3
contour
0
VERTEX
10
8.69432
20
8.43933
30
4.12
0
VERTEX
10
8.69876
20
8.42159
30
4.12
0
VERTEX
10
8.69876
20
8.41715
30
4.12
0
VERTEX
10
8.70541
20
8.40828
30
4.12
0
VERTEX
10
8.70763
20
8.39941
30
4.12
0
VERTEX
10
8.7165
20
8.39276
30
4.12
0
VERTEX
10
8.72093
20
8.39276
30
4.12
0
VERTEX
10
8.75641
20
8.37281
30
4.12
0
VERTEX
10
8.76085
20
8.37281
30
4.12
0
VERTEX
10
8.76528
20
8.36837
30
4.12
0
VERTEX
10
8.78302
20
8.36394
30
4.12
0
VERTEX
10
8.79189
20
8.3595
30
4.12
0
VERTEX
10
8.79632
20
8.3595
30
4.12
0
VERTEX
10
8.80076
20
8.35507
30
4.12
0
VERTEX
10
8.83624
20
8.34398
30
4.12
0
VERTEX
10
8.87171
20
8.33733
30
4.12
0
VERTEX
10
8.88945
20
8.33289
30
4.12
0
VERTEX
10
8.92493
20
8.33289
30
4.12
0
VERTEX
10
8.94267
20
8.33067
30
4.12
0
VERTEX
10
8.96041
20
8.32402
30
4.12
0
VERTEX
10
8.99589
20
8.32181
30
4.12
0
VERTEX
10
9.01363
20
8.31515
30
4.12
0
VERTEX
10
9.01806
20
8.31294
30
4.12
0
VERTEX
10
9.01806
20
8.3085
30
4.12
0
VERTEX
10
9.0358
20
8.30628
30
4.12
0
VERTEX
10
9.05354
20
8.29963
30
4.12
0
VERTEX
10
9.06241
20
8.29963
30
4.12
0
VERTEX
10
9.07128
20
8.2952
30
4.12
0
VERTEX
10
9.14223
20
8.28633
30
4.12
0
VERTEX
10
9.21319
20
8.28189
30
4.12
0
VERTEX
10
9.21762
20
8.28189
30
4.12
0
VERTEX
10
9.22206
20
8.27746
30
4.12
0
VERTEX
10
9.29302
20
8.27081
30
4.12
0
VERTEX
10
9.36397
20
8.2575
30
4.12
0
VERTEX
10
9.43493
20
8.25085
30
4.12
0
VERTEX
10
9.47041
20
8.2442
30
4.12
0
VERTEX
10
9.48814
20
8.24198
30
4.12
0
VERTEX
10
9.49036
20
8.23755
30
4.12
0
VERTEX
10
9.52584
20
8.23755
30
4.12
0
VERTEX
10
9.54358
20
8.23533
30
4.12
0
VERTEX
10
9.57906
20
8.22424
30
4.12
0
VERTEX
10
9.58793
20
8.22202
30
4.12
0
VERTEX
10
9.59236
20
8.21759
30
4.12
0
VERTEX
10
9.6101
20
8.21537
30
4.12
0
VERTEX
10
9.62784
20
8.2065
30
4.12
0
VERTEX
10
9.66332
20
8.19985
30
4.12
0
VERTEX
10
9.69879
20
8.19763
30
4.12
0
VERTEX
10
9.71653
20
8.1932
30
4.12
0
VERTEX
10
9.72097
20
8.1932
30
4.12
0
VERTEX
10
9.72319
20
8.18876
30
4.12
0
VERTEX
10
9.71875
20
8.17989
30
4.12
0
VERTEX
10
9.72097
20
8.17546
30
4.12
0
VERTEX
10
9.86288
20
8.17324
30
4.12
0
VERTEX
10
9.89836
20
8.17546
30
4.12
0
VERTEX
10
9.9161
20
8.17768
30
4.12
0
VERTEX
10
9.92053
20
8.18211
30
4.12
0
VERTEX
10
9.95601
20
8.18655
30
4.12
0
VERTEX
10
9.98705
20
8.21537
30
4.12
0
VERTEX
10
10.0026
20
8.23089
30
4.12
0
VERTEX
10
10.0092
20
8.23976
30
4.12
0
VERTEX
10
10.0181
20
8.2442
30
4.12
0
VERTEX
10
10.0225
20
8.25307
30
4.12
0
VERTEX
10
10.0225
20
8.2575
30
4.12
0
VERTEX
10
10.027
20
8.26194
30
4.12
0
VERTEX
10
10.0314
20
8.27968
30
4.12
0
VERTEX
10
10.0314
20
8.28411
30
4.12
0
VERTEX
10
10.0403
20
8.29298
30
4.12
0
VERTEX
10
10.0491
20
8.31072
30
4.12
0
VERTEX
10
10.0491
20
8.31515
30
4.12
0
VERTEX
10
10.0536
20
8.31959
30
4.12
0
VERTEX
10
10.058
20
8.39054
30
4.12
0
VERTEX
10
10.0558
20
8.42602
30
4.12
0
VERTEX
10
10.0358
20
8.49698
30
4.12
0
VERTEX
10
10.0247
20
8.53246
30
4.12
0
VERTEX
10
10.0159
20
8.54798
30
4.12
0
VERTEX
10
10.0159
20
8.55685
30
4.12
0
VERTEX
10
10.0026
20
8.59233
30
4.12
0
VERTEX
10
9.99149
20
8.61006
30
4.12
0
VERTEX
10
9.98927
20
8.61893
30
4.12
0
VERTEX
10
9.98262
20
8.62559
30
4.12
0
VERTEX
10
9.9671
20
8.66106
30
4.12
0
VERTEX
10
9.9671
20
8.66993
30
4.12
0
VERTEX
10
9.95158
20
8.68545
30
4.12
0
VERTEX
10
9.94271
20
8.68767
30
4.12
0
VERTEX
10
9.93162
20
8.70319
30
4.12
0
VERTEX
10
9.91388
20
8.7165
30
4.12
0
VERTEX
10
9.90945
20
8.72093
30
4.12
0
VERTEX
10
9.90501
20
8.72093
30
4.12
0
VERTEX
10
9.87397
20
8.74532
30
4.12
0
VERTEX
10
9.8141
20
8.80519
30
4.12
0
VERTEX
10
9.80301
20
8.82293
30
4.12
0
VERTEX
10
9.76975
20
8.84732
30
4.12
0
VERTEX
10
9.75423
20
8.85841
30
4.12
0
VERTEX
10
9.74979
20
8.85841
30
4.12
0
VERTEX
10
9.73649
20
8.87615
30
4.12
0
VERTEX
10
9.70323
20
8.89611
30
4.12
0
VERTEX
10
9.68549
20
8.90276
30
4.12
0
VERTEX
10
9.67662
20
8.89611
30
4.12
0
VERTEX
10
9.66997
20
8.89389
30
4.12
0
VERTEX
10
9.6611
20
8.89611
30
4.12
0
VERTEX
10
9.65223
20
8.90276
30
4.12
0
VERTEX
10
9.64336
20
8.90276
30
4.12
0
VERTEX
10
9.62562
20
8.90941
30
4.12
0
VERTEX
10
9.55467
20
8.91163
30
4.12
0
VERTEX
10
9.48371
20
8.90941
30
4.12
0
VERTEX
10
9.47484
20
8.90941
30
4.12
0
VERTEX
10
9.4571
20
8.90276
30
4.12
0
VERTEX
10
9.42162
20
8.89611
30
4.12
0
VERTEX
10
9.38836
20
8.88058
30
4.12
0
VERTEX
10
9.37062
20
8.87171
30
4.12
0
VERTEX
10
9.36175
20
8.8695
30
4.12
0
VERTEX
10
9.35732
20
8.86506
30
4.12
0
VERTEX
10
9.33958
20
8.86063
30
4.12
0
VERTEX
10
9.33071
20
8.85398
30
4.12
0
VERTEX
10
9.31519
20
8.84732
30
4.12
0
VERTEX
10
9.28193
20
8.82293
30
4.12
0
VERTEX
10
9.26419
20
8.81185
30
4.12
0
VERTEX
10
9.24867
20
8.80519
30
4.12
0
VERTEX
10
9.18436
20
8.76528
30
4.12
0
VERTEX
10
9.1511
20
8.74089
30
4.12
0
VERTEX
10
9.13558
20
8.72758
30
4.12
0
VERTEX
10
9.12893
20
8.71872
30
4.12
0
VERTEX
10
9.12006
20
8.71428
30
4.12
0
VERTEX
10
9.10232
20
8.69654
30
4.12
0
VERTEX
10
9.09789
20
8.68767
30
4.12
0
VERTEX
10
9.09123
20
8.68324
30
4.12
0
VERTEX
10
9.07571
20
8.6655
30
4.12
0
VERTEX
10
9.04245
20
8.64111
30
4.12
0
VERTEX
10
9.03358
20
8.63224
30
4.12
0
VERTEX
10
9.01806
20
8.62337
30
4.12
0
VERTEX
10
9.00254
20
8.60785
30
4.12
0
VERTEX
10
8.99589
20
8.60119
30
4.12
0
VERTEX
10
8.98037
20
8.59676
30
4.12
0
VERTEX
10
8.9715
20
8.59011
30
4.12
0
VERTEX
10
8.96263
20
8.58789
30
4.12
0
VERTEX
10
8.92715
20
8.56572
30
4.12
0
VERTEX
10
8.90941
20
8.55685
30
4.12
0
VERTEX
10
8.90054
20
8.55019
30
4.12
0
VERTEX
10
8.89611
20
8.55019
30
4.12
0
VERTEX
10
8.89389
20
8.54576
30
4.12
0
VERTEX
10
8.88502
20
8.54354
30
4.12
0
VERTEX
10
8.88058
20
8.53911
30
4.12
0
VERTEX
10
8.87615
20
8.53911
30
4.12
0
VERTEX
10
8.86728
20
8.53246
30
4.12
0
VERTEX
10
8.85841
20
8.53024
30
4.12
0
VERTEX
10
8.84954
20
8.52359
30
4.12
0
VERTEX
10
8.8318
20
8.51693
30
4.12
0
VERTEX
10
8.81406
20
8.50585
30
4.12
0
VERTEX
10
8.80741
20
8.4992
30
4.12
0
VERTEX
10
8.78967
20
8.49476
30
4.12
0
VERTEX
10
8.78524
20
8.49254
30
4.12
0
VERTEX
10
8.78524
20
8.48811
30
4.12
0
VERTEX
10
8.75863
20
8.45707
30
4.12
0
VERTEX
10
8.74311
20
8.44598
30
4.12
0
VERTEX
10
8.72537
20
8.43933
30
4.12
0
VERTEX
10
8.70763
20
8.44376
30
4.12
0
VERTEX
10
8.69876
20
8.4482
30
4.12
0
VERTEX
10
8.69432
20
8.44598
30
4.12
0
VERTEX
10
8.69432
20
8.44154
30
4.12
0
SEQEND
0
POLYLINE
62
31
66
1
70
1
3
contour
0
VERTEX
10
8.35645
20
8.49223
30
4.12
0
VERTEX
10
8.36088
20
8.48042
30
4.12
0
VERTEX
10
8.36825
20
8.47009
30
4.12
0
VERTEX
10
8.37121
20
8.46419
30
4.12
0
VERTEX
10
8.37121
20
8.45828
30
4.12
0
VERTEX
10
8.37711
20
8.44648
30
4.12
0
VERTEX
10
8.38006
20
8.44352
30
4.12
0
VERTEX
10
8.38154
20
8.43762
30
4.12
0
VERTEX
10
8.38597
20
8.43172
30
4.12
0
VERTEX
10
8.39482
20
8.4081
30
4.12
0
VERTEX
10
8.3963
20
8.3963
30
4.12
0
VERTEX
10
8.4022
20
8.38449
30
4.12
0
VERTEX
10
8.40663
20
8.36088
30
4.12
0
VERTEX
10
8.40368
20
8.31365
30
4.12
0
VERTEX
10
8.40663
20
8.30184
30
4.12
0
VERTEX
10
8.40663
20
8.29594
30
4.12
0
VERTEX
10
8.41106
20
8.28413
30
4.12
0
VERTEX
10
8.41253
20
8.27823
30
4.12
0
VERTEX
10
8.41696
20
8.2738
30
4.12
0
VERTEX
10
8.42877
20
8.2738
30
4.12
0
VERTEX
10
8.44057
20
8.27675
30
4.12
0
VERTEX
10
8.44352
20
8.27823
30
4.12
0
VERTEX
10
8.445
20
8.28413
30
4.12
0
VERTEX
10
8.45533
20
8.28856
30
4.12
0
VERTEX
10
8.46124
20
8.29298
30
4.12
0
VERTEX
10
8.46419
20
8.29741
30
4.12
0
VERTEX
10
8.48633
20
8.31365
30
4.12
0
VERTEX
10
8.49075
20
8.31955
30
4.12
0
VERTEX
10
8.4937
20
8.3225
30
4.12
0
VERTEX
10
8.51732
20
8.33136
30
4.12
0
VERTEX
10
8.52913
20
8.33874
30
4.12
0
VERTEX
10
8.54093
20
8.34316
30
4.12
0
VERTEX
10
8.54684
20
8.34759
30
4.12
0
VERTEX
10
8.55717
20
8.35202
30
4.12
0
VERTEX
10
8.56897
20
8.36088
30
4.12
0
VERTEX
10
8.57488
20
8.36235
30
4.12
0
VERTEX
10
8.57783
20
8.3653
30
4.12
0
VERTEX
10
8.58373
20
8.3653
30
4.12
0
VERTEX
10
8.58669
20
8.36825
30
4.12
0
VERTEX
10
8.6103
20
8.37121
30
4.12
0
VERTEX
10
8.62211
20
8.37859
30
4.12
0
VERTEX
10
8.62506
20
8.38006
30
4.12
0
VERTEX
10
8.62801
20
8.39187
30
4.12
0
VERTEX
10
8.62801
20
8.40368
30
4.12
0
VERTEX
10
8.6044
20
8.41253
30
4.12
0
VERTEX
10
8.59849
20
8.41401
30
4.12
0
VERTEX
10
8.59554
20
8.41696
30
4.12
0
VERTEX
10
8.57193
20
8.42434
30
4.12
0
VERTEX
10
8.54831
20
8.42581
30
4.12
0
VERTEX
10
8.54536
20
8.42877
30
4.12
0
VERTEX
10
8.52175
20
8.43615
30
4.12
0
VERTEX
10
8.50994
20
8.4391
30
4.12
0
VERTEX
10
8.49813
20
8.44648
30
4.12
0
VERTEX
10
8.49223
20
8.44943
30
4.12
0
VERTEX
10
8.48928
20
8.44943
30
4.12
0
VERTEX
10
8.46566
20
8.46271
30
4.12
0
VERTEX
10
8.45386
20
8.46714
30
4.12
0
VERTEX
10
8.44795
20
8.46861
30
4.12
0
VERTEX
10
8.44205
20
8.47304
30
4.12
0
VERTEX
10
8.4391
20
8.47304
30
4.12
0
VERTEX
10
8.42729
20
8.4819
30
4.12
0
VERTEX
10
8.41548
20
8.48633
30
4.12
0
VERTEX
10
8.41253
20
8.48928
30
4.12
0
VERTEX
10
8.40663
20
8.49075
30
4.12
0
VERTEX
10
8.40368
20
8.49075
30
4.12
0
VERTEX
10
8.38006
20
8.50404
30
4.12
0
VERTEX
10
8.36825
20
8.51289
30
4.12
0
VERTEX
10
8.36383
20
8.51732
30
4.12
0
VERTEX
10
8.35645
20
8.50551
30
4.12
0
VERTEX
10
8.35645
20
8.4937
30
4.12
0
SEQEND
0
ENDSEC
0
EOF
