0
SECTION
2
ENTITIES
0
POLYLINE
62
31
66
1
70
1
3
contour
0
VERTEX
10
9.83849
20
8.13555
30
3.48
0
VERTEX
10
9.84292
20
8.13111
30
3.48
0
VERTEX
10
9.84514
20
8.09563
30
3.48
0
VERTEX
10
9.84514
20
8.07789
30
3.48
0
VERTEX
10
9.85401
20
8.04242
30
3.48
0
VERTEX
10
9.8651
20
8.02468
30
3.48
0
VERTEX
10
9.8651
20
8.02024
30
3.48
0
VERTEX
10
9.90058
20
7.9892
30
3.48
0
VERTEX
10
9.90945
20
7.98033
30
3.48
0
VERTEX
10
9.92718
20
7.97368
30
3.48
0
VERTEX
10
9.93162
20
7.96924
30
3.48
0
VERTEX
10
9.93605
20
7.96924
30
3.48
0
VERTEX
10
9.95379
20
7.95816
30
3.48
0
VERTEX
10
9.95823
20
7.95372
30
3.48
0
VERTEX
10
9.97597
20
7.94929
30
3.48
0
VERTEX
10
9.98484
20
7.94485
30
3.48
0
VERTEX
10
9.99371
20
7.94485
30
3.48
0
VERTEX
10
10.0114
20
7.93376
30
3.48
0
VERTEX
10
10.0292
20
7.92933
30
3.48
0
VERTEX
10
10.0469
20
7.92046
30
3.48
0
VERTEX
10
10.1179
20
7.90937
30
3.48
0
VERTEX
10
10.1534
20
7.90937
30
3.48
0
VERTEX
10
10.1888
20
7.91381
30
3.48
0
VERTEX
10
10.2243
20
7.91159
30
3.48
0
VERTEX
10
10.2332
20
7.90937
30
3.48
0
VERTEX
10
10.2509
20
7.92268
30
3.48
0
VERTEX
10
10.2642
20
7.93598
30
3.48
0
VERTEX
10
10.2687
20
7.9382
30
3.48
0
VERTEX
10
10.2709
20
7.94707
30
3.48
0
VERTEX
10
10.2953
20
7.98255
30
3.48
0
VERTEX
10
10.2975
20
7.99142
30
3.48
0
VERTEX
10
10.3086
20
8.00916
30
3.48
0
VERTEX
10
10.3108
20
8.01803
30
3.48
0
VERTEX
10
10.3152
20
8.02246
30
3.48
0
VERTEX
10
10.3219
20
8.05794
30
3.48
0
VERTEX
10
10.3197
20
8.12889
30
3.48
0
VERTEX
10
10.3152
20
8.16437
30
3.48
0
VERTEX
10
10.313
20
8.17324
30
3.48
0
VERTEX
10
10.313
20
8.17768
30
3.48
0
VERTEX
10
10.3086
20
8.18211
30
3.48
0
VERTEX
10
10.3041
20
8.19985
30
3.48
0
VERTEX
10
10.3019
20
8.20872
30
3.48
0
VERTEX
10
10.2975
20
8.21315
30
3.48
0
VERTEX
10
10.2953
20
8.22202
30
3.48
0
VERTEX
10
10.2398
20
8.28633
30
3.48
0
VERTEX
10
10.2265
20
8.30185
30
3.48
0
VERTEX
10
10.2199
20
8.31072
30
3.48
0
VERTEX
10
10.2154
20
8.31515
30
3.48
0
VERTEX
10
10.2154
20
8.31959
30
3.48
0
VERTEX
10
10.2066
20
8.32846
30
3.48
0
VERTEX
10
10.1955
20
8.3462
30
3.48
0
VERTEX
10
10.18
20
8.36172
30
3.48
0
VERTEX
10
10.18
20
8.36615
30
3.48
0
VERTEX
10
10.1689
20
8.38389
30
3.48
0
VERTEX
10
10.1622
20
8.39054
30
3.48
0
VERTEX
10
10.1556
20
8.40607
30
3.48
0
VERTEX
10
10.1578
20
8.44154
30
3.48
0
VERTEX
10
10.1644
20
8.45928
30
3.48
0
VERTEX
10
10.1667
20
8.46815
30
3.48
0
VERTEX
10
10.1777
20
8.48589
30
3.48
0
VERTEX
10
10.1844
20
8.49476
30
3.48
0
VERTEX
10
10.1911
20
8.5125
30
3.48
0
VERTEX
10
10.2021
20
8.5258
30
3.48
0
VERTEX
10
10.2354
20
8.55019
30
3.48
0
VERTEX
10
10.2376
20
8.55463
30
3.48
0
VERTEX
10
10.2465
20
8.55685
30
3.48
0
VERTEX
10
10.2509
20
8.55685
30
3.48
0
VERTEX
10
10.2598
20
8.5635
30
3.48
0
VERTEX
10
10.2687
20
8.5635
30
3.48
0
VERTEX
10
10.2864
20
8.57237
30
3.48
0
VERTEX
10
10.3219
20
8.58346
30
3.48
0
VERTEX
10
10.3574
20
8.59011
30
3.48
0
VERTEX
10
10.3751
20
8.59454
30
3.48
0
VERTEX
10
10.384
20
8.59454
30
3.48
0
VERTEX
10
10.3928
20
8.59898
30
3.48
0
VERTEX
10
10.4638
20
8.60341
30
3.48
0
VERTEX
10
10.4993
20
8.60563
30
3.48
0
VERTEX
10
10.5347
20
8.61228
30
3.48
0
VERTEX
10
10.5525
20
8.61228
30
3.48
0
VERTEX
10
10.5614
20
8.61228
30
3.48
0
VERTEX
10
10.5658
20
8.61672
30
3.48
0
VERTEX
10
10.5658
20
8.62115
30
3.48
0
VERTEX
10
10.5835
20
8.62337
30
3.48
0
VERTEX
10
10.5924
20
8.63002
30
3.48
0
VERTEX
10
10.6101
20
8.63446
30
3.48
0
VERTEX
10
10.619
20
8.63667
30
3.48
0
VERTEX
10
10.6257
20
8.64554
30
3.48
0
VERTEX
10
10.6434
20
8.65219
30
3.48
0
VERTEX
10
10.6523
20
8.65441
30
3.48
0
VERTEX
10
10.6567
20
8.65885
30
3.48
0
VERTEX
10
10.6744
20
8.6655
30
3.48
0
VERTEX
10
10.6922
20
8.6788
30
3.48
0
VERTEX
10
10.7055
20
8.69654
30
3.48
0
VERTEX
10
10.7077
20
8.70541
30
3.48
0
VERTEX
10
10.7144
20
8.71428
30
3.48
0
VERTEX
10
10.7188
20
8.7165
30
3.48
0
VERTEX
10
10.7188
20
8.72093
30
3.48
0
VERTEX
10
10.7232
20
8.72537
30
3.48
0
VERTEX
10
10.7299
20
8.74311
30
3.48
0
VERTEX
10
10.7454
20
8.75863
30
3.48
0
VERTEX
10
10.7498
20
8.76306
30
3.48
0
VERTEX
10
10.7498
20
8.7675
30
3.48
0
VERTEX
10
10.7609
20
8.78302
30
3.48
0
VERTEX
10
10.7698
20
8.78967
30
3.48
0
VERTEX
10
10.772
20
8.79854
30
3.48
0
VERTEX
10
10.7853
20
8.81406
30
3.48
0
VERTEX
10
10.792
20
8.82293
30
3.48
0
VERTEX
10
10.7942
20
8.8318
30
3.48
0
VERTEX
10
10.8097
20
8.84732
30
3.48
0
VERTEX
10
10.8119
20
8.8828
30
3.48
0
VERTEX
10
10.8119
20
8.89167
30
3.48
0
VERTEX
10
10.8119
20
8.89611
30
3.48
0
VERTEX
10
10.803
20
8.90497
30
3.48
0
VERTEX
10
10.8008
20
8.91384
30
3.48
0
VERTEX
10
10.7875
20
8.93158
30
3.48
0
VERTEX
10
10.772
20
8.94267
30
3.48
0
VERTEX
10
10.7631
20
8.95154
30
3.48
0
VERTEX
10
10.7476
20
8.96263
30
3.48
0
VERTEX
10
10.7321
20
8.97815
30
3.48
0
VERTEX
10
10.7144
20
8.98924
30
3.48
0
VERTEX
10
10.6966
20
8.99367
30
3.48
0
VERTEX
10
10.6877
20
9.00032
30
3.48
0
VERTEX
10
10.6789
20
9.00254
30
3.48
0
VERTEX
10
10.6722
20
9.00919
30
3.48
0
VERTEX
10
10.6545
20
9.01584
30
3.48
0
VERTEX
10
10.6367
20
9.03137
30
3.48
0
VERTEX
10
10.6279
20
9.03802
30
3.48
0
VERTEX
10
10.6101
20
9.04245
30
3.48
0
VERTEX
10
10.6013
20
9.0491
30
3.48
0
VERTEX
10
10.5658
20
9.06241
30
3.48
0
VERTEX
10
10.5614
20
9.06241
30
3.48
0
VERTEX
10
10.5569
20
9.06684
30
3.48
0
VERTEX
10
10.5525
20
9.06684
30
3.48
0
VERTEX
10
10.517
20
9.0868
30
3.48
0
VERTEX
10
10.4993
20
9.1001
30
3.48
0
VERTEX
10
10.4815
20
9.10454
30
3.48
0
VERTEX
10
10.4793
20
9.10897
30
3.48
0
VERTEX
10
10.4616
20
9.11341
30
3.48
0
VERTEX
10
10.4438
20
9.12449
30
3.48
0
VERTEX
10
10.4084
20
9.12671
30
3.48
0
VERTEX
10
10.3729
20
9.13336
30
3.48
0
VERTEX
10
10.3019
20
9.13115
30
3.48
0
VERTEX
10
10.2931
20
9.12893
30
3.48
0
VERTEX
10
10.2576
20
9.1001
30
3.48
0
VERTEX
10
10.2398
20
9.08902
30
3.48
0
VERTEX
10
10.231
20
9.07793
30
3.48
0
VERTEX
10
10.231
20
9.0735
30
3.48
0
VERTEX
10
10.2199
20
9.05797
30
3.48
0
VERTEX
10
10.2177
20
9.04023
30
3.48
0
VERTEX
10
10.2132
20
9.03358
30
3.48
0
VERTEX
10
10.211
20
8.9981
30
3.48
0
VERTEX
10
10.2154
20
8.92715
30
3.48
0
VERTEX
10
10.2154
20
8.89167
30
3.48
0
VERTEX
10
10.2199
20
8.85619
30
3.48
0
VERTEX
10
10.2199
20
8.78524
30
3.48
0
VERTEX
10
10.2132
20
8.74976
30
3.48
0
VERTEX
10
10.211
20
8.74089
30
3.48
0
VERTEX
10
10.1822
20
8.71428
30
3.48
0
VERTEX
10
10.1689
20
8.70098
30
3.48
0
VERTEX
10
10.1644
20
8.69211
30
3.48
0
VERTEX
10
10.1334
20
8.66106
30
3.48
0
VERTEX
10
10.1245
20
8.65441
30
3.48
0
VERTEX
10
10.1134
20
8.64111
30
3.48
0
VERTEX
10
10.109
20
8.63224
30
3.48
0
VERTEX
10
10.0935
20
8.61672
30
3.48
0
VERTEX
10
10.0891
20
8.60785
30
3.48
0
VERTEX
10
10.058
20
8.57902
30
3.48
0
VERTEX
10
10.0403
20
8.56793
30
3.48
0
VERTEX
10
10.0159
20
8.53467
30
3.48
0
VERTEX
10
10.0004
20
8.53024
30
3.48
0
VERTEX
10
9.99149
20
8.52359
30
3.48
0
VERTEX
10
9.98484
20
8.50806
30
3.48
0
VERTEX
10
9.9671
20
8.49476
30
3.48
0
VERTEX
10
9.96044
20
8.48589
30
3.48
0
VERTEX
10
9.95158
20
8.48146
30
3.48
0
VERTEX
10
9.93605
20
8.46372
30
3.48
0
VERTEX
10
9.92718
20
8.45485
30
3.48
0
VERTEX
10
9.9161
20
8.43933
30
3.48
0
VERTEX
10
9.9161
20
8.43489
30
3.48
0
VERTEX
10
9.91166
20
8.43046
30
3.48
0
VERTEX
10
9.90945
20
8.41272
30
3.48
0
VERTEX
10
9.89392
20
8.40163
30
3.48
0
VERTEX
10
9.89171
20
8.39276
30
3.48
0
VERTEX
10
9.8784
20
8.37502
30
3.48
0
VERTEX
10
9.87175
20
8.35728
30
3.48
0
VERTEX
10
9.86953
20
8.34841
30
3.48
0
VERTEX
10
9.8651
20
8.3462
30
3.48
0
VERTEX
10
9.86066
20
8.32846
30
3.48
0
VERTEX
10
9.85401
20
8.31959
30
3.48
0
VERTEX
10
9.84958
20
8.28411
30
3.48
0
VERTEX
10
9.84958
20
8.27968
30
3.48
0
VERTEX
10
9.84514
20
8.27524
30
3.48
0
VERTEX
10
9.84514
20
8.23976
30
3.48
0
VERTEX
10
9.83849
20
8.16881
30
3.48
0
VERTEX
10
9.83849
20
8.15107
30
3.48
0
VERTEX
10
9.83849
20
8.1422
30
3.48
0
VERTEX
10
9.83849
20
8.13776
30
3.48
0
SEQEND
0
POLYLINE
62
31
66
1
70
1
3
contour
0
VERTEX
10
10.6363
20
7.81103
30
3.48
0
VERTEX
10
10.6428
20
7.80452
30
3.48
0
VERTEX
10
10.6428
20
7.79148
30
3.48
0
VERTEX
10
10.6559
20
7.77845
30
3.48
0
VERTEX
10
10.6591
20
7.76541
30
3.48
0
VERTEX
10
10.6982
20
7.72305
30
3.48
0
VERTEX
10
10.7112
20
7.71979
30
3.48
0
VERTEX
10
10.7569
20
7.67417
30
3.48
0
VERTEX
10
10.7699
20
7.66765
30
3.48
0
VERTEX
10
10.822
20
7.66765
30
3.48
0
VERTEX
10
10.8481
20
7.67417
30
3.48
0
VERTEX
10
10.8611
20
7.67743
30
3.48
0
VERTEX
10
10.897
20
7.71979
30
3.48
0
VERTEX
10
10.91
20
7.72305
30
3.48
0
VERTEX
10
10.9198
20
7.73608
30
3.48
0
VERTEX
10
10.9165
20
7.74912
30
3.48
0
VERTEX
10
10.9198
20
7.76215
30
3.48
0
VERTEX
10
10.9394
20
7.7817
30
3.48
0
VERTEX
10
10.9459
20
7.78822
30
3.48
0
VERTEX
10
10.9491
20
7.84036
30
3.48
0
VERTEX
10
10.9524
20
7.86643
30
3.48
0
VERTEX
10
10.9459
20
7.8925
30
3.48
0
VERTEX
10
10.9426
20
7.90553
30
3.48
0
VERTEX
10
10.9361
20
7.91205
30
3.48
0
VERTEX
10
10.9296
20
7.93812
30
3.48
0
VERTEX
10
10.9165
20
7.95116
30
3.48
0
VERTEX
10
10.8872
20
8.00329
30
3.48
0
VERTEX
10
10.8774
20
8.01633
30
3.48
0
VERTEX
10
10.8253
20
8.0261
30
3.48
0
VERTEX
10
10.7992
20
8.0261
30
3.48
0
VERTEX
10
10.7471
20
8.00981
30
3.48
0
VERTEX
10
10.721
20
8.00329
30
3.48
0
VERTEX
10
10.695
20
7.98374
30
3.48
0
VERTEX
10
10.6624
20
7.94464
30
3.48
0
VERTEX
10
10.6461
20
7.8925
30
3.48
0
VERTEX
10
10.6396
20
7.87946
30
3.48
0
VERTEX
10
10.6363
20
7.82733
30
3.48
0
VERTEX
10
10.6363
20
7.81429
30
3.48
0
SEQEND
0
POLYLINE
62
224
66
1
70
1
3
mitochondrion
0
VERTEX
10
9.99669
20
8.12322
30
3.48
0
VERTEX
10
10.0071
20
8.1065
30
3.48
0
VERTEX
10
10.0218
20
8.08977
30
3.48
0
VERTEX
10
10.0239
20
8.08559
30
3.48
0
VERTEX
10
10.0281
20
8.08559
30
3.48
0
VERTEX
10
10.0406
20
8.07304
30
3.48
0
VERTEX
10
10.049
20
8.06886
30
3.48
0
VERTEX
10
10.0594
20
8.05422
30
3.48
0
VERTEX
10
10.0678
20
8.04586
30
3.48
0
VERTEX
10
10.0761
20
8.04168
30
3.48
0
VERTEX
10
10.0845
20
8.02704
30
3.48
0
VERTEX
10
10.0929
20
8.02495
30
3.48
0
VERTEX
10
10.1075
20
8.01031
30
3.48
0
VERTEX
10
10.118
20
7.99568
30
3.48
0
VERTEX
10
10.1347
20
7.9894
30
3.48
0
VERTEX
10
10.1368
20
7.98522
30
3.48
0
VERTEX
10
10.1702
20
7.98313
30
3.48
0
VERTEX
10
10.187
20
7.98731
30
3.48
0
VERTEX
10
10.1932
20
7.99359
30
3.48
0
VERTEX
10
10.1953
20
7.99777
30
3.48
0
VERTEX
10
10.2037
20
7.99777
30
3.48
0
VERTEX
10
10.2079
20
8.00195
30
3.48
0
VERTEX
10
10.2246
20
8.00613
30
3.48
0
VERTEX
10
10.2309
20
8.0124
30
3.48
0
VERTEX
10
10.2371
20
8.01449
30
3.48
0
VERTEX
10
10.2434
20
8.02286
30
3.48
0
VERTEX
10
10.2476
20
8.02495
30
3.48
0
VERTEX
10
10.2476
20
8.02913
30
3.48
0
VERTEX
10
10.2581
20
8.04586
30
3.48
0
VERTEX
10
10.2664
20
8.05213
30
3.48
0
VERTEX
10
10.2706
20
8.06886
30
3.48
0
VERTEX
10
10.2706
20
8.13577
30
3.48
0
VERTEX
10
10.2685
20
8.1525
30
3.48
0
VERTEX
10
10.2664
20
8.16086
30
3.48
0
VERTEX
10
10.2601
20
8.16713
30
3.48
0
VERTEX
10
10.2581
20
8.1755
30
3.48
0
VERTEX
10
10.2497
20
8.18177
30
3.48
0
VERTEX
10
10.2392
20
8.1985
30
3.48
0
VERTEX
10
10.2246
20
8.20895
30
3.48
0
VERTEX
10
10.21
20
8.22568
30
3.48
0
VERTEX
10
10.2016
20
8.22568
30
3.48
0
VERTEX
10
10.1974
20
8.23404
30
3.48
0
VERTEX
10
10.1932
20
8.23822
30
3.48
0
VERTEX
10
10.1765
20
8.24241
30
3.48
0
VERTEX
10
10.1681
20
8.24241
30
3.48
0
VERTEX
10
10.1556
20
8.25286
30
3.48
0
VERTEX
10
10.1389
20
8.26541
30
3.48
0
VERTEX
10
10.1347
20
8.26959
30
3.48
0
VERTEX
10
10.1012
20
8.27586
30
3.48
0
VERTEX
10
10.0845
20
8.27586
30
3.48
0
VERTEX
10
10.0678
20
8.27168
30
3.48
0
VERTEX
10
10.0615
20
8.2675
30
3.48
0
VERTEX
10
10.0594
20
8.25913
30
3.48
0
VERTEX
10
10.0594
20
8.25495
30
3.48
0
VERTEX
10
10.0281
20
8.23195
30
3.48
0
VERTEX
10
10.0134
20
8.21941
30
3.48
0
VERTEX
10
10.0071
20
8.20268
30
3.48
0
VERTEX
10
10.0071
20
8.19431
30
3.48
0
VERTEX
10
10.003
20
8.18595
30
3.48
0
VERTEX
10
9.99878
20
8.1525
30
3.48
0
VERTEX
10
9.99669
20
8.13577
30
3.48
0
VERTEX
10
9.99669
20
8.1274
30
3.48
0
VERTEX
10
9.99669
20
8.12531
30
3.48
0
SEQEND
0
POLYLINE
62
227
66
1
70
1
3
endoplasmic_reticulum
0
VERTEX
10
10.0888
20
8.30472
30
3.48
0
VERTEX
10
10.0963
20
8.29912
30
3.48
0
VERTEX
10
10.1112
20
8.29726
30
3.48
0
VERTEX
10
10.1187
20
8.29726
30
3.48
0
VERTEX
10
10.1224
20
8.29726
30
3.48
0
VERTEX
10
10.1355
20
8.30846
30
3.48
0
VERTEX
10
10.1392
20
8.31032
30
3.48
0
VERTEX
10
10.1392
20
8.31779
30
3.48
0
VERTEX
10
10.1299
20
8.33272
30
3.48
0
VERTEX
10
10.128
20
8.34018
30
3.48
0
VERTEX
10
10.0982
20
8.34578
30
3.48
0
VERTEX
10
10.0907
20
8.34391
30
3.48
0
VERTEX
10
10.0888
20
8.31405
30
3.48
0
VERTEX
10
10.0888
20
8.30659
30
3.48
0
SEQEND
0
POLYLINE
62
227
66
1
70
1
3
endoplasmic_reticulum
0
VERTEX
10
10.1647
20
8.28932
30
3.48
0
VERTEX
10
10.1663
20
8.27713
30
3.48
0
VERTEX
10
10.1663
20
8.27408
30
3.48
0
VERTEX
10
10.1784
20
8.26646
30
3.48
0
VERTEX
10
10.183
20
8.26189
30
3.48
0
VERTEX
10
10.1891
20
8.26189
30
3.48
0
VERTEX
10
10.2013
20
8.26951
30
3.48
0
VERTEX
10
10.1998
20
8.29389
30
3.48
0
VERTEX
10
10.1998
20
8.29998
30
3.48
0
VERTEX
10
10.1937
20
8.30608
30
3.48
0
VERTEX
10
10.1876
20
8.3076
30
3.48
0
VERTEX
10
10.1754
20
8.29998
30
3.48
0
VERTEX
10
10.1693
20
8.29846
30
3.48
0
VERTEX
10
10.1647
20
8.29389
30
3.48
0
VERTEX
10
10.1647
20
8.29084
30
3.48
0
SEQEND
0
POLYLINE
62
227
66
1
70
1
3
endoplasmic_reticulum
0
VERTEX
10
9.9682
20
8.25428
30
3.48
0
VERTEX
10
9.9743
20
8.24971
30
3.48
0
VERTEX
10
9.98649
20
8.24818
30
3.48
0
VERTEX
10
9.99867
20
8.24971
30
3.48
0
VERTEX
10
10.0093
20
8.2558
30
3.48
0
VERTEX
10
10.0139
20
8.26037
30
3.48
0
VERTEX
10
10.0139
20
8.28475
30
3.48
0
VERTEX
10
10.0093
20
8.28932
30
3.48
0
VERTEX
10
10.0078
20
8.29541
30
3.48
0
VERTEX
10
9.99563
20
8.30303
30
3.48
0
VERTEX
10
9.99258
20
8.30608
30
3.48
0
VERTEX
10
9.98039
20
8.29693
30
3.48
0
VERTEX
10
9.9743
20
8.29541
30
3.48
0
VERTEX
10
9.96973
20
8.29084
30
3.48
0
VERTEX
10
9.9682
20
8.26646
30
3.48
0
VERTEX
10
9.9682
20
8.2558
30
3.48
0
SEQEND
0
POLYLINE
62
236
66
1
70
1
3
postsynaptic_density
0
VERTEX
10
10.3917
20
8.99231
30
3.48
0
VERTEX
10
10.3999
20
8.97917
30
3.48
0
VERTEX
10
10.4114
20
8.96768
30
3.48
0
VERTEX
10
10.4179
20
8.96439
30
3.48
0
VERTEX
10
10.4311
20
8.95289
30
3.48
0
VERTEX
10
10.4442
20
8.94961
30
3.48
0
VERTEX
10
10.4705
20
8.93483
30
3.48
0
VERTEX
10
10.4836
20
8.9299
30
3.48
0
VERTEX
10
10.4869
20
8.92662
30
3.48
0
VERTEX
10
10.5132
20
8.91512
30
3.48
0
VERTEX
10
10.5395
20
8.90691
30
3.48
0
VERTEX
10
10.5658
20
8.89541
30
3.48
0
VERTEX
10
10.569
20
8.89377
30
3.48
0
VERTEX
10
10.5822
20
8.89869
30
3.48
0
VERTEX
10
10.592
20
8.90855
30
3.48
0
VERTEX
10
10.5937
20
8.91183
30
3.48
0
VERTEX
10
10.597
20
8.91183
30
3.48
0
VERTEX
10
10.6183
20
8.93318
30
3.48
0
VERTEX
10
10.6282
20
8.94468
30
3.48
0
VERTEX
10
10.6315
20
8.95125
30
3.48
0
VERTEX
10
10.638
20
8.95618
30
3.48
0
VERTEX
10
10.6462
20
8.96932
30
3.48
0
VERTEX
10
10.6577
20
8.97917
30
3.48
0
VERTEX
10
10.6627
20
8.98574
30
3.48
0
VERTEX
10
10.6692
20
8.98739
30
3.48
0
VERTEX
10
10.6774
20
8.99888
30
3.48
0
VERTEX
10
10.6889
20
9.01038
30
3.48
0
VERTEX
10
10.6972
20
9.01859
30
3.48
0
VERTEX
10
10.7004
20
9.01859
30
3.48
0
VERTEX
10
10.7234
20
9.04323
30
3.48
0
VERTEX
10
10.7316
20
9.05637
30
3.48
0
VERTEX
10
10.7366
20
9.06951
30
3.48
0
VERTEX
10
10.7563
20
9.09414
30
3.48
0
VERTEX
10
10.6528
20
9.19762
30
3.48
0
VERTEX
10
10.6397
20
9.19762
30
3.48
0
VERTEX
10
10.6265
20
9.2009
30
3.48
0
VERTEX
10
10.6134
20
9.2009
30
3.48
0
VERTEX
10
10.5871
20
9.20747
30
3.48
0
VERTEX
10
10.5608
20
9.21076
30
3.48
0
VERTEX
10
10.5543
20
9.21076
30
3.48
0
VERTEX
10
10.5411
20
9.20419
30
3.48
0
VERTEX
10
10.5346
20
9.19926
30
3.48
0
VERTEX
10
10.528
20
9.19762
30
3.48
0
VERTEX
10
10.5033
20
9.17791
30
3.48
0
VERTEX
10
10.4919
20
9.17134
30
3.48
0
VERTEX
10
10.4804
20
9.1582
30
3.48
0
VERTEX
10
10.4771
20
9.15491
30
3.48
0
VERTEX
10
10.4771
20
9.15163
30
3.48
0
VERTEX
10
10.4672
20
9.14013
30
3.48
0
VERTEX
10
10.4639
20
9.13685
30
3.48
0
VERTEX
10
10.4639
20
9.13356
30
3.48
0
VERTEX
10
10.459
20
9.12699
30
3.48
0
VERTEX
10
10.4557
20
9.12371
30
3.48
0
VERTEX
10
10.4508
20
9.11057
30
3.48
0
VERTEX
10
10.4491
20
9.09743
30
3.48
0
VERTEX
10
10.4442
20
9.08429
30
3.48
0
VERTEX
10
10.4229
20
9.05965
30
3.48
0
VERTEX
10
10.4147
20
9.04816
30
3.48
0
VERTEX
10
10.4032
20
9.03666
30
3.48
0
VERTEX
10
10.4015
20
9.03009
30
3.48
0
VERTEX
10
10.3933
20
9.01695
30
3.48
0
VERTEX
10
10.3917
20
9.00381
30
3.48
0
VERTEX
10
10.3917
20
8.99724
30
3.48
0
VERTEX
10
10.3917
20
8.99395
30
3.48
0
SEQEND
0
ENDSEC
0
EOF
