0
SECTION
2
ENTITIES
0
POLYLINE
62
31
66
1
70
1
3
contour
0
VERTEX
10
8.50752
20
8.91016
30
4.56
0
VERTEX
10
8.51226
20
8.90068
30
4.56
0
VERTEX
10
8.52173
20
8.89358
30
4.56
0
VERTEX
10
8.5312
20
8.89358
30
4.56
0
VERTEX
10
8.53594
20
8.89358
30
4.56
0
VERTEX
10
8.53831
20
8.89831
30
4.56
0
VERTEX
10
8.54305
20
8.89831
30
4.56
0
VERTEX
10
8.55726
20
8.91489
30
4.56
0
VERTEX
10
8.56436
20
8.922
30
4.56
0
VERTEX
10
8.57384
20
8.92437
30
4.56
0
VERTEX
10
8.58094
20
8.93147
30
4.56
0
VERTEX
10
8.59041
20
8.93384
30
4.56
0
VERTEX
10
8.59515
20
8.93621
30
4.56
0
VERTEX
10
8.59515
20
8.94095
30
4.56
0
VERTEX
10
8.60463
20
8.94332
30
4.56
0
VERTEX
10
8.61173
20
8.95042
30
4.56
0
VERTEX
10
8.61647
20
8.95042
30
4.56
0
VERTEX
10
8.61647
20
8.94568
30
4.56
0
VERTEX
10
8.6212
20
8.94095
30
4.56
0
VERTEX
10
8.63068
20
8.94568
30
4.56
0
VERTEX
10
8.63778
20
8.95516
30
4.56
0
VERTEX
10
8.65673
20
8.967
30
4.56
0
VERTEX
10
8.69226
20
9.00253
30
4.56
0
VERTEX
10
8.70173
20
9.00726
30
4.56
0
VERTEX
10
8.71121
20
9.01674
30
4.56
0
VERTEX
10
8.73015
20
9.01674
30
4.56
0
VERTEX
10
8.76805
20
9.02384
30
4.56
0
VERTEX
10
8.78463
20
9.03095
30
4.56
0
VERTEX
10
8.79173
20
9.03805
30
4.56
0
VERTEX
10
8.80121
20
9.04042
30
4.56
0
VERTEX
10
8.81779
20
9.05226
30
4.56
0
VERTEX
10
8.82963
20
9.06411
30
4.56
0
VERTEX
10
8.83437
20
9.06411
30
4.56
0
VERTEX
10
8.86989
20
9.08779
30
4.56
0
VERTEX
10
8.88884
20
9.0949
30
4.56
0
VERTEX
10
8.90542
20
9.11148
30
4.56
0
VERTEX
10
8.91253
20
9.11858
30
4.56
0
VERTEX
10
8.91726
20
9.13753
30
4.56
0
VERTEX
10
8.91963
20
9.147
30
4.56
0
VERTEX
10
8.93384
20
9.16121
30
4.56
0
VERTEX
10
8.93621
20
9.16595
30
4.56
0
VERTEX
10
8.94095
20
9.16595
30
4.56
0
VERTEX
10
8.95989
20
9.17779
30
4.56
0
VERTEX
10
8.97647
20
9.19437
30
4.56
0
VERTEX
10
8.99542
20
9.20621
30
4.56
0
VERTEX
10
9.012
20
9.22279
30
4.56
0
VERTEX
10
9.02147
20
9.22516
30
4.56
0
VERTEX
10
9.02858
20
9.24174
30
4.56
0
VERTEX
10
9.06648
20
9.25595
30
4.56
0
VERTEX
10
9.08542
20
9.26306
30
4.56
0
VERTEX
10
9.10437
20
9.26543
30
4.56
0
VERTEX
10
9.11384
20
9.27016
30
4.56
0
VERTEX
10
9.11858
20
9.27016
30
4.56
0
VERTEX
10
9.12332
20
9.2749
30
4.56
0
VERTEX
10
9.13279
20
9.27727
30
4.56
0
VERTEX
10
9.13516
20
9.29622
30
4.56
0
VERTEX
10
9.13516
20
9.30569
30
4.56
0
VERTEX
10
9.11148
20
9.34122
30
4.56
0
VERTEX
10
9.10674
20
9.35069
30
4.56
0
VERTEX
10
9.08779
20
9.36727
30
4.56
0
VERTEX
10
9.08305
20
9.36727
30
4.56
0
VERTEX
10
9.07595
20
9.37438
30
4.56
0
VERTEX
10
9.00016
20
9.37674
30
4.56
0
VERTEX
10
8.98121
20
9.37911
30
4.56
0
VERTEX
10
8.96226
20
9.38622
30
4.56
0
VERTEX
10
8.95279
20
9.38622
30
4.56
0
VERTEX
10
8.93384
20
9.39332
30
4.56
0
VERTEX
10
8.91489
20
9.39569
30
4.56
0
VERTEX
10
8.89595
20
9.39332
30
4.56
0
VERTEX
10
8.90305
20
9.38385
30
4.56
0
VERTEX
10
8.90542
20
9.38148
30
4.56
0
VERTEX
10
8.89595
20
9.37911
30
4.56
0
VERTEX
10
8.88647
20
9.36964
30
4.56
0
VERTEX
10
8.87937
20
9.3649
30
4.56
0
VERTEX
10
8.84858
20
9.33411
30
4.56
0
VERTEX
10
8.81305
20
9.30806
30
4.56
0
VERTEX
10
8.81068
20
9.30332
30
4.56
0
VERTEX
10
8.79173
20
9.29858
30
4.56
0
VERTEX
10
8.787
20
9.29385
30
4.56
0
VERTEX
10
8.7491
20
9.28674
30
4.56
0
VERTEX
10
8.73015
20
9.27964
30
4.56
0
VERTEX
10
8.72542
20
9.2749
30
4.56
0
VERTEX
10
8.71594
20
9.27253
30
4.56
0
VERTEX
10
8.70647
20
9.26543
30
4.56
0
VERTEX
10
8.697
20
9.26306
30
4.56
0
VERTEX
10
8.68278
20
9.24648
30
4.56
0
VERTEX
10
8.67805
20
9.24648
30
4.56
0
VERTEX
10
8.66384
20
9.2299
30
4.56
0
VERTEX
10
8.65673
20
9.22279
30
4.56
0
VERTEX
10
8.65436
20
9.21332
30
4.56
0
VERTEX
10
8.64015
20
9.19911
30
4.56
0
VERTEX
10
8.63068
20
9.19437
30
4.56
0
VERTEX
10
8.63068
20
9.17542
30
4.56
0
VERTEX
10
8.62594
20
9.17306
30
4.56
0
VERTEX
10
8.62357
20
9.13516
30
4.56
0
VERTEX
10
8.62357
20
9.11621
30
4.56
0
VERTEX
10
8.62831
20
9.09727
30
4.56
0
VERTEX
10
8.62357
20
9.07832
30
4.56
0
VERTEX
10
8.6141
20
9.05937
30
4.56
0
VERTEX
10
8.60936
20
9.05226
30
4.56
0
VERTEX
10
8.59989
20
9.04279
30
4.56
0
VERTEX
10
8.58805
20
9.02384
30
4.56
0
VERTEX
10
8.57147
20
9.00963
30
4.56
0
VERTEX
10
8.56436
20
9.0049
30
4.56
0
VERTEX
10
8.54778
20
8.98832
30
4.56
0
VERTEX
10
8.53594
20
8.96937
30
4.56
0
VERTEX
10
8.51936
20
8.95279
30
4.56
0
VERTEX
10
8.50752
20
8.93384
30
4.56
0
VERTEX
10
8.50752
20
8.91489
30
4.56
0
VERTEX
10
8.50752
20
8.91253
30
4.56
0
SEQEND
0
POLYLINE
62
31
66
1
70
1
3
contour
0
VERTEX
10
7.89955
20
7.61985
30
4.56
0
VERTEX
10
7.90498
20
7.61713
30
4.56
0
VERTEX
10
7.91041
20
7.62256
30
4.56
0
VERTEX
10
7.91041
20
7.62799
30
4.56
0
VERTEX
10
7.91856
20
7.63342
30
4.56
0
VERTEX
10
7.9267
20
7.64429
30
4.56
0
VERTEX
10
7.93214
20
7.647
30
4.56
0
VERTEX
10
7.93757
20
7.64429
30
4.56
0
VERTEX
10
7.94571
20
7.65515
30
4.56
0
VERTEX
10
7.95658
20
7.74205
30
4.56
0
VERTEX
10
7.96744
20
7.7855
30
4.56
0
VERTEX
10
7.98373
20
7.8045
30
4.56
0
VERTEX
10
8.00274
20
7.81265
30
4.56
0
VERTEX
10
8.01089
20
7.8208
30
4.56
0
VERTEX
10
8.01903
20
7.84252
30
4.56
0
VERTEX
10
8.01632
20
7.86425
30
4.56
0
VERTEX
10
8.0136
20
7.87511
30
4.56
0
VERTEX
10
8.01089
20
7.88054
30
4.56
0
VERTEX
10
7.97015
20
7.8561
30
4.56
0
VERTEX
10
7.95929
20
7.84795
30
4.56
0
VERTEX
10
7.94571
20
7.8045
30
4.56
0
VERTEX
10
7.943
20
7.78278
30
4.56
0
VERTEX
10
7.93485
20
7.77463
30
4.56
0
VERTEX
10
7.93214
20
7.75291
30
4.56
0
VERTEX
10
7.93214
20
7.74205
30
4.56
0
VERTEX
10
7.92399
20
7.7339
30
4.56
0
VERTEX
10
7.91856
20
7.69045
30
4.56
0
VERTEX
10
7.89955
20
7.647
30
4.56
0
VERTEX
10
7.89955
20
7.62528
30
4.56
0
VERTEX
10
7.89955
20
7.62256
30
4.56
0
SEQEND
0
POLYLINE
62
31
66
1
70
1
3
contour
0
VERTEX
10
9.77197
20
9.93788
30
4.56
0
VERTEX
10
9.77402
20
9.92149
30
4.56
0
VERTEX
10
9.77607
20
9.9133
30
4.56
0
VERTEX
10
9.7986
20
9.88258
30
4.56
0
VERTEX
10
9.8027
20
9.87438
30
4.56
0
VERTEX
10
9.81908
20
9.858
30
4.56
0
VERTEX
10
9.82727
20
9.85185
30
4.56
0
VERTEX
10
9.83137
20
9.84776
30
4.56
0
VERTEX
10
9.86414
20
9.84981
30
4.56
0
VERTEX
10
9.88053
20
9.86005
30
4.56
0
VERTEX
10
9.89077
20
9.87438
30
4.56
0
VERTEX
10
9.89077
20
9.87848
30
4.56
0
VERTEX
10
9.89896
20
9.88462
30
4.56
0
VERTEX
10
9.92149
20
9.91125
30
4.56
0
VERTEX
10
9.92764
20
9.91944
30
4.56
0
VERTEX
10
9.92764
20
9.92764
30
4.56
0
VERTEX
10
9.93993
20
9.94402
30
4.56
0
VERTEX
10
9.94607
20
9.95017
30
4.56
0
VERTEX
10
9.94812
20
9.95426
30
4.56
0
VERTEX
10
9.95222
20
9.95426
30
4.56
0
VERTEX
10
9.96655
20
9.97065
30
4.56
0
VERTEX
10
9.98294
20
9.97679
30
4.56
0
VERTEX
10
9.98703
20
9.97679
30
4.56
0
VERTEX
10
9.99523
20
9.98499
30
4.56
0
VERTEX
10
10.0096
20
10.0178
30
4.56
0
VERTEX
10
10.0096
20
10.0341
30
4.56
0
VERTEX
10
10.0034
20
10.0669
30
4.56
0
VERTEX
10
9.99728
20
10.0833
30
4.56
0
VERTEX
10
9.99318
20
10.0915
30
4.56
0
VERTEX
10
9.97679
20
10.1038
30
4.56
0
VERTEX
10
9.9686
20
10.1099
30
4.56
0
VERTEX
10
9.93583
20
10.1202
30
4.56
0
VERTEX
10
9.90306
20
10.112
30
4.56
0
VERTEX
10
9.88667
20
10.1038
30
4.56
0
VERTEX
10
9.87234
20
10.0894
30
4.56
0
VERTEX
10
9.85595
20
10.0792
30
4.56
0
VERTEX
10
9.84776
20
10.0731
30
4.56
0
VERTEX
10
9.84776
20
10.069
30
4.56
0
VERTEX
10
9.83137
20
10.0628
30
4.56
0
VERTEX
10
9.82727
20
10.0628
30
4.56
0
VERTEX
10
9.78426
20
10.0034
30
4.56
0
VERTEX
10
9.77402
20
9.97065
30
4.56
0
VERTEX
10
9.77197
20
9.93993
30
4.56
0
SEQEND
0
POLYLINE
62
224
66
1
70
1
3
mitochondrion
0
VERTEX
10
9.32283
20
8.78196
30
4.56
0
VERTEX
10
9.32561
20
8.77917
30
4.56
0
VERTEX
10
9.32561
20
8.77639
30
4.56
0
VERTEX
10
9.32978
20
8.77083
30
4.56
0
VERTEX
10
9.33257
20
8.76805
30
4.56
0
VERTEX
10
9.33257
20
8.76527
30
4.56
0
VERTEX
10
9.34786
20
8.74302
30
4.56
0
VERTEX
10
9.35203
20
8.73885
30
4.56
0
VERTEX
10
9.35203
20
8.73607
30
4.56
0
VERTEX
10
9.35481
20
8.73468
30
4.56
0
VERTEX
10
9.35481
20
8.7319
30
4.56
0
VERTEX
10
9.36316
20
8.72078
30
4.56
0
VERTEX
10
9.36733
20
8.71661
30
4.56
0
VERTEX
10
9.3715
20
8.70548
30
4.56
0
VERTEX
10
9.37984
20
8.69714
30
4.56
0
VERTEX
10
9.37984
20
8.69436
30
4.56
0
VERTEX
10
9.38818
20
8.68323
30
4.56
0
VERTEX
10
9.39235
20
8.67906
30
4.56
0
VERTEX
10
9.39374
20
8.6735
30
4.56
0
VERTEX
10
9.40209
20
8.66377
30
4.56
0
VERTEX
10
9.41321
20
8.65404
30
4.56
0
VERTEX
10
9.41599
20
8.64847
30
4.56
0
VERTEX
10
9.42711
20
8.64152
30
4.56
0
VERTEX
10
9.43824
20
8.63179
30
4.56
0
VERTEX
10
9.46049
20
8.61649
30
4.56
0
VERTEX
10
9.50498
20
8.59425
30
4.56
0
VERTEX
10
9.52723
20
8.59008
30
4.56
0
VERTEX
10
9.53835
20
8.58869
30
4.56
0
VERTEX
10
9.58284
20
8.59286
30
4.56
0
VERTEX
10
9.59397
20
8.59425
30
4.56
0
VERTEX
10
9.59953
20
8.59425
30
4.56
0
VERTEX
10
9.60231
20
8.59703
30
4.56
0
VERTEX
10
9.60787
20
8.59842
30
4.56
0
VERTEX
10
9.61065
20
8.59842
30
4.56
0
VERTEX
10
9.62177
20
8.60537
30
4.56
0
VERTEX
10
9.64124
20
8.62623
30
4.56
0
VERTEX
10
9.65375
20
8.64569
30
4.56
0
VERTEX
10
9.6621
20
8.65682
30
4.56
0
VERTEX
10
9.66071
20
8.7458
30
4.56
0
VERTEX
10
9.65932
20
8.75693
30
4.56
0
VERTEX
10
9.66766
20
8.76666
30
4.56
0
VERTEX
10
9.66349
20
8.77778
30
4.56
0
VERTEX
10
9.65375
20
8.78891
30
4.56
0
VERTEX
10
9.64958
20
8.79447
30
4.56
0
VERTEX
10
9.64819
20
8.80003
30
4.56
0
VERTEX
10
9.63985
20
8.81115
30
4.56
0
VERTEX
10
9.63429
20
8.81533
30
4.56
0
VERTEX
10
9.6329
20
8.82089
30
4.56
0
VERTEX
10
9.62317
20
8.83062
30
4.56
0
VERTEX
10
9.62038
20
8.83618
30
4.56
0
VERTEX
10
9.60926
20
8.84313
30
4.56
0
VERTEX
10
9.6037
20
8.84592
30
4.56
0
VERTEX
10
9.58284
20
8.86399
30
4.56
0
VERTEX
10
9.57728
20
8.86816
30
4.56
0
VERTEX
10
9.56616
20
8.87094
30
4.56
0
VERTEX
10
9.54391
20
8.88207
30
4.56
0
VERTEX
10
9.53835
20
8.88485
30
4.56
0
VERTEX
10
9.53557
20
8.88485
30
4.56
0
VERTEX
10
9.52862
20
8.8918
30
4.56
0
VERTEX
10
9.52584
20
8.8918
30
4.56
0
VERTEX
10
9.51749
20
8.90292
30
4.56
0
VERTEX
10
9.51471
20
8.9057
30
4.56
0
VERTEX
10
9.47022
20
8.90987
30
4.56
0
VERTEX
10
9.42572
20
8.90848
30
4.56
0
VERTEX
10
9.4146
20
8.90709
30
4.56
0
VERTEX
10
9.40904
20
8.90709
30
4.56
0
VERTEX
10
9.39931
20
8.89736
30
4.56
0
VERTEX
10
9.38818
20
8.89041
30
4.56
0
VERTEX
10
9.37984
20
8.88207
30
4.56
0
VERTEX
10
9.37428
20
8.87929
30
4.56
0
VERTEX
10
9.36316
20
8.86816
30
4.56
0
VERTEX
10
9.34647
20
8.8487
30
4.56
0
VERTEX
10
9.34369
20
8.84313
30
4.56
0
VERTEX
10
9.33813
20
8.83896
30
4.56
0
VERTEX
10
9.33257
20
8.82784
30
4.56
0
VERTEX
10
9.33118
20
8.81672
30
4.56
0
VERTEX
10
9.32561
20
8.80559
30
4.56
0
VERTEX
10
9.32561
20
8.80003
30
4.56
0
VERTEX
10
9.32561
20
8.79725
30
4.56
0
VERTEX
10
9.32283
20
8.79447
30
4.56
0
VERTEX
10
9.32283
20
8.78335
30
4.56
0
SEQEND
0
POLYLINE
62
227
66
1
70
1
3
endoplasmic_reticulum
0
VERTEX
10
9.04649
20
8.64581
30
4.56
0
VERTEX
10
9.05259
20
8.64429
30
4.56
0
VERTEX
10
9.06477
20
8.64581
30
4.56
0
VERTEX
10
9.07087
20
8.64734
30
4.56
0
VERTEX
10
9.07544
20
8.65191
30
4.56
0
VERTEX
10
9.07696
20
8.65496
30
4.56
0
VERTEX
10
9.08306
20
8.65496
30
4.56
0
VERTEX
10
9.0861
20
8.65496
30
4.56
0
VERTEX
10
9.0922
20
8.65953
30
4.56
0
VERTEX
10
9.09524
20
8.66257
30
4.56
0
VERTEX
10
9.09677
20
8.66867
30
4.56
0
VERTEX
10
9.10286
20
8.67324
30
4.56
0
VERTEX
10
9.10286
20
8.67628
30
4.56
0
VERTEX
10
9.10743
20
8.68085
30
4.56
0
VERTEX
10
9.10896
20
8.69304
30
4.56
0
VERTEX
10
9.10591
20
8.70523
30
4.56
0
VERTEX
10
9.10134
20
8.71132
30
4.56
0
VERTEX
10
9.09524
20
8.71437
30
4.56
0
VERTEX
10
9.0922
20
8.71742
30
4.56
0
VERTEX
10
9.0861
20
8.71742
30
4.56
0
VERTEX
10
9.08153
20
8.71285
30
4.56
0
VERTEX
10
9.08153
20
8.7098
30
4.56
0
VERTEX
10
9.06782
20
8.68695
30
4.56
0
VERTEX
10
9.06325
20
8.67628
30
4.56
0
VERTEX
10
9.05868
20
8.67019
30
4.56
0
VERTEX
10
9.05563
20
8.66714
30
4.56
0
VERTEX
10
9.05259
20
8.66714
30
4.56
0
VERTEX
10
9.04649
20
8.65496
30
4.56
0
VERTEX
10
9.04649
20
8.64886
30
4.56
0
VERTEX
10
9.04649
20
8.64734
30
4.56
0
SEQEND
0
POLYLINE
62
227
66
1
70
1
3
endoplasmic_reticulum
0
VERTEX
10
9.27806
20
8.58792
30
4.56
0
VERTEX
10
9.27959
20
8.57573
30
4.56
0
VERTEX
10
9.28111
20
8.56964
30
4.56
0
VERTEX
10
9.28873
20
8.56202
30
4.56
0
VERTEX
10
9.30092
20
8.5605
30
4.56
0
VERTEX
10
9.30396
20
8.5605
30
4.56
0
VERTEX
10
9.31463
20
8.56964
30
4.56
0
VERTEX
10
9.339
20
8.57726
30
4.56
0
VERTEX
10
9.35119
20
8.57878
30
4.56
0
VERTEX
10
9.35728
20
8.57878
30
4.56
0
VERTEX
10
9.36338
20
8.58335
30
4.56
0
VERTEX
10
9.3649
20
8.58945
30
4.56
0
VERTEX
10
9.36795
20
8.59097
30
4.56
0
VERTEX
10
9.36795
20
8.59402
30
4.56
0
VERTEX
10
9.371
20
8.59706
30
4.56
0
VERTEX
10
9.37252
20
8.60925
30
4.56
0
VERTEX
10
9.371
20
8.61534
30
4.56
0
VERTEX
10
9.36947
20
8.61839
30
4.56
0
VERTEX
10
9.36643
20
8.61839
30
4.56
0
VERTEX
10
9.36338
20
8.62144
30
4.56
0
VERTEX
10
9.35881
20
8.63363
30
4.56
0
VERTEX
10
9.35881
20
8.63667
30
4.56
0
VERTEX
10
9.34662
20
8.64581
30
4.56
0
VERTEX
10
9.33443
20
8.65191
30
4.56
0
VERTEX
10
9.33139
20
8.65343
30
4.56
0
VERTEX
10
9.32681
20
8.64886
30
4.56
0
VERTEX
10
9.32377
20
8.64886
30
4.56
0
VERTEX
10
9.32072
20
8.64581
30
4.56
0
VERTEX
10
9.31615
20
8.63363
30
4.56
0
VERTEX
10
9.31006
20
8.62753
30
4.56
0
VERTEX
10
9.31006
20
8.62449
30
4.56
0
VERTEX
10
9.30396
20
8.61991
30
4.56
0
VERTEX
10
9.29177
20
8.61534
30
4.56
0
VERTEX
10
9.28111
20
8.60468
30
4.56
0
VERTEX
10
9.27806
20
8.59859
30
4.56
0
VERTEX
10
9.27806
20
8.59249
30
4.56
0
VERTEX
10
9.27806
20
8.58945
30
4.56
0
SEQEND
0
POLYLINE
62
227
66
1
70
1
3
endoplasmic_reticulum
0
VERTEX
10
9.66655
20
8.80578
30
4.56
0
VERTEX
10
9.6696
20
8.80273
30
4.56
0
VERTEX
10
9.68179
20
8.79969
30
4.56
0
VERTEX
10
9.70616
20
8.80121
30
4.56
0
VERTEX
10
9.71073
20
8.80578
30
4.56
0
VERTEX
10
9.72292
20
8.80578
30
4.56
0
VERTEX
10
9.72902
20
8.8073
30
4.56
0
VERTEX
10
9.73968
20
8.81797
30
4.56
0
VERTEX
10
9.74273
20
8.83016
30
4.56
0
VERTEX
10
9.74273
20
8.84234
30
4.56
0
VERTEX
10
9.7412
20
8.84844
30
4.56
0
VERTEX
10
9.7412
20
8.85149
30
4.56
0
VERTEX
10
9.73816
20
8.85301
30
4.56
0
VERTEX
10
9.73511
20
8.86367
30
4.56
0
VERTEX
10
9.72902
20
8.86824
30
4.56
0
VERTEX
10
9.70464
20
8.86672
30
4.56
0
VERTEX
10
9.69855
20
8.86672
30
4.56
0
VERTEX
10
9.6955
20
8.86367
30
4.56
0
VERTEX
10
9.69245
20
8.8393
30
4.56
0
VERTEX
10
9.66808
20
8.83168
30
4.56
0
VERTEX
10
9.66655
20
8.82559
30
4.56
0
VERTEX
10
9.66808
20
8.81949
30
4.56
0
VERTEX
10
9.67417
20
8.8134
30
4.56
0
VERTEX
10
9.6696
20
8.80883
30
4.56
0
VERTEX
10
9.66808
20
8.8073
30
4.56
0
SEQEND
0
POLYLINE
62
227
66
1
70
1
3
endoplasmic_reticulum
0
VERTEX
10
8.82711
20
8.63667
30
4.56
0
VERTEX
10
8.83473
20
8.62449
30
4.56
0
VERTEX
10
8.84082
20
8.61991
30
4.56
0
VERTEX
10
8.85301
20
8.61991
30
4.56
0
VERTEX
10
8.8652
20
8.62449
30
4.56
0
VERTEX
10
8.86977
20
8.62906
30
4.56
0
VERTEX
10
8.86977
20
8.6321
30
4.56
0
VERTEX
10
8.87738
20
8.64429
30
4.56
0
VERTEX
10
8.87738
20
8.64734
30
4.56
0
VERTEX
10
8.88043
20
8.65038
30
4.56
0
VERTEX
10
8.88348
20
8.66257
30
4.56
0
VERTEX
10
8.885
20
8.66867
30
4.56
0
VERTEX
10
8.885
20
8.67171
30
4.56
0
VERTEX
10
8.93375
20
8.67019
30
4.56
0
VERTEX
10
8.95813
20
8.67019
30
4.56
0
VERTEX
10
8.96118
20
8.67019
30
4.56
0
VERTEX
10
8.97184
20
8.67781
30
4.56
0
VERTEX
10
8.97641
20
8.6839
30
4.56
0
VERTEX
10
8.97794
20
8.69
30
4.56
0
VERTEX
10
8.9886
20
8.70218
30
4.56
0
VERTEX
10
8.99165
20
8.71437
30
4.56
0
VERTEX
10
8.99469
20
8.72047
30
4.56
0
VERTEX
10
8.99622
20
8.74484
30
4.56
0
VERTEX
10
9.01298
20
8.79359
30
4.56
0
VERTEX
10
9.01602
20
8.80426
30
4.56
0
VERTEX
10
9.01907
20
8.80426
30
4.56
0
VERTEX
10
9.02364
20
8.81492
30
4.56
0
VERTEX
10
9.02821
20
8.81949
30
4.56
0
VERTEX
10
9.03278
20
8.83168
30
4.56
0
VERTEX
10
9.03583
20
8.83473
30
4.56
0
VERTEX
10
9.03583
20
8.83777
30
4.56
0
VERTEX
10
9.03888
20
8.84082
30
4.56
0
VERTEX
10
9.0404
20
8.84692
30
4.56
0
VERTEX
10
9.04954
20
8.85758
30
4.56
0
VERTEX
10
9.05563
20
8.86215
30
4.56
0
VERTEX
10
9.05563
20
8.86824
30
4.56
0
VERTEX
10
9.06477
20
8.87891
30
4.56
0
VERTEX
10
9.07087
20
8.87891
30
4.56
0
VERTEX
10
9.08001
20
8.88957
30
4.56
0
VERTEX
10
9.0922
20
8.90024
30
4.56
0
VERTEX
10
9.09524
20
8.90328
30
4.56
0
VERTEX
10
9.09829
20
8.90328
30
4.56
0
VERTEX
10
9.10439
20
8.90938
30
4.56
0
VERTEX
10
9.10743
20
8.90938
30
4.56
0
VERTEX
10
9.11353
20
8.91547
30
4.56
0
VERTEX
10
9.11657
20
8.93985
30
4.56
0
VERTEX
10
9.12571
20
8.95051
30
4.56
0
VERTEX
10
9.13638
20
8.95813
30
4.56
0
VERTEX
10
9.13943
20
8.96118
30
4.56
0
VERTEX
10
9.14247
20
8.96118
30
4.56
0
VERTEX
10
9.14552
20
8.96422
30
4.56
0
VERTEX
10
9.14857
20
8.96422
30
4.56
0
VERTEX
10
9.15618
20
8.97641
30
4.56
0
VERTEX
10
9.15771
20
8.9886
30
4.56
0
VERTEX
10
9.15618
20
8.99469
30
4.56
0
VERTEX
10
9.14857
20
9.00231
30
4.56
0
VERTEX
10
9.12419
20
9.00231
30
4.56
0
VERTEX
10
9.09981
20
8.99469
30
4.56
0
VERTEX
10
9.08763
20
8.99469
30
4.56
0
VERTEX
10
9.07544
20
8.99926
30
4.56
0
VERTEX
10
9.02669
20
9.00079
30
4.56
0
VERTEX
10
9.0145
20
9.00079
30
4.56
0
VERTEX
10
9.00231
20
8.99774
30
4.56
0
VERTEX
10
8.99012
20
8.99165
30
4.56
0
VERTEX
10
8.98403
20
8.9886
30
4.56
0
VERTEX
10
8.98098
20
8.98403
30
4.56
0
VERTEX
10
8.97489
20
8.98403
30
4.56
0
VERTEX
10
8.97336
20
8.98098
30
4.56
0
VERTEX
10
8.94899
20
8.97794
30
4.56
0
VERTEX
10
8.9429
20
8.97794
30
4.56
0
VERTEX
10
8.93985
20
8.97641
30
4.56
0
VERTEX
10
8.9368
20
8.97794
30
4.56
0
VERTEX
10
8.92614
20
8.97032
30
4.56
0
VERTEX
10
8.92157
20
8.96575
30
4.56
0
VERTEX
10
8.92157
20
8.94137
30
4.56
0
VERTEX
10
8.92309
20
8.93528
30
4.56
0
VERTEX
10
8.92766
20
8.93071
30
4.56
0
VERTEX
10
8.93375
20
8.93071
30
4.56
0
VERTEX
10
8.93832
20
8.92461
30
4.56
0
VERTEX
10
8.95051
20
8.92004
30
4.56
0
VERTEX
10
8.9627
20
8.91852
30
4.56
0
VERTEX
10
8.97489
20
8.91395
30
4.56
0
VERTEX
10
8.98708
20
8.91243
30
4.56
0
VERTEX
10
8.9886
20
8.90024
30
4.56
0
VERTEX
10
8.98403
20
8.85149
30
4.56
0
VERTEX
10
8.98098
20
8.84539
30
4.56
0
VERTEX
10
8.98098
20
8.84234
30
4.56
0
VERTEX
10
8.97794
20
8.8393
30
4.56
0
VERTEX
10
8.97641
20
8.8332
30
4.56
0
VERTEX
10
8.97184
20
8.82863
30
4.56
0
VERTEX
10
8.96879
20
8.81645
30
4.56
0
VERTEX
10
8.9627
20
8.81492
30
4.56
0
VERTEX
10
8.95965
20
8.80273
30
4.56
0
VERTEX
10
8.95204
20
8.79055
30
4.56
0
VERTEX
10
8.94137
20
8.78293
30
4.56
0
VERTEX
10
8.92918
20
8.77836
30
4.56
0
VERTEX
10
8.92309
20
8.77683
30
4.56
0
VERTEX
10
8.917
20
8.77226
30
4.56
0
VERTEX
10
8.9109
20
8.77074
30
4.56
0
VERTEX
10
8.90633
20
8.76617
30
4.56
0
VERTEX
10
8.89719
20
8.74179
30
4.56
0
VERTEX
10
8.89719
20
8.71742
30
4.56
0
VERTEX
10
8.89719
20
8.71132
30
4.56
0
VERTEX
10
8.885
20
8.70828
30
4.56
0
VERTEX
10
8.88196
20
8.70828
30
4.56
0
VERTEX
10
8.86063
20
8.69152
30
4.56
0
VERTEX
10
8.85149
20
8.68543
30
4.56
0
VERTEX
10
8.84082
20
8.67628
30
4.56
0
VERTEX
10
8.8332
20
8.66867
30
4.56
0
VERTEX
10
8.83168
20
8.66257
30
4.56
0
VERTEX
10
8.82711
20
8.65648
30
4.56
0
VERTEX
10
8.82711
20
8.64429
30
4.56
0
VERTEX
10
8.82711
20
8.6382
30
4.56
0
SEQEND
0
POLYLINE
62
31
66
1
70
1
3
contour
0
VERTEX
10
8.68852
20
8.57635
30
4.56
0
VERTEX
10
8.69
20
8.57045
30
4.56
0
VERTEX
10
8.69
20
8.5675
30
4.56
0
VERTEX
10
8.70033
20
8.55717
30
4.56
0
VERTEX
10
8.70476
20
8.55274
30
4.56
0
VERTEX
10
8.70476
20
8.54684
30
4.56
0
VERTEX
10
8.70623
20
8.54388
30
4.56
0
VERTEX
10
8.71214
20
8.54388
30
4.56
0
VERTEX
10
8.71509
20
8.54388
30
4.56
0
VERTEX
10
8.71804
20
8.54093
30
4.56
0
VERTEX
10
8.72099
20
8.54093
30
4.56
0
VERTEX
10
8.72394
20
8.53798
30
4.56
0
VERTEX
10
8.72985
20
8.53651
30
4.56
0
VERTEX
10
8.75198
20
8.52027
30
4.56
0
VERTEX
10
8.75789
20
8.51584
30
4.56
0
VERTEX
10
8.75936
20
8.50994
30
4.56
0
VERTEX
10
8.75936
20
8.50699
30
4.56
0
VERTEX
10
8.76527
20
8.50256
30
4.56
0
VERTEX
10
8.76822
20
8.49961
30
4.56
0
VERTEX
10
8.76674
20
8.47599
30
4.56
0
VERTEX
10
8.76232
20
8.45238
30
4.56
0
VERTEX
10
8.76232
20
8.44057
30
4.56
0
VERTEX
10
8.76527
20
8.42877
30
4.56
0
VERTEX
10
8.77855
20
8.40663
30
4.56
0
VERTEX
10
8.78003
20
8.40368
30
4.56
0
VERTEX
10
8.79183
20
8.40072
30
4.56
0
VERTEX
10
8.81545
20
8.40072
30
4.56
0
VERTEX
10
8.83906
20
8.40515
30
4.56
0
VERTEX
10
8.86268
20
8.40368
30
4.56
0
VERTEX
10
8.88629
20
8.4081
30
4.56
0
VERTEX
10
8.9099
20
8.4081
30
4.56
0
VERTEX
10
8.93352
20
8.41253
30
4.56
0
VERTEX
10
8.94532
20
8.41253
30
4.56
0
VERTEX
10
8.96894
20
8.41696
30
4.56
0
VERTEX
10
8.98075
20
8.41991
30
4.56
0
VERTEX
10
8.98665
20
8.42139
30
4.56
0
VERTEX
10
8.9896
20
8.42139
30
4.56
0
VERTEX
10
8.99255
20
8.42434
30
4.56
0
VERTEX
10
9.01617
20
8.42877
30
4.56
0
VERTEX
10
9.02797
20
8.43172
30
4.56
0
VERTEX
10
9.03388
20
8.43319
30
4.56
0
VERTEX
10
9.03683
20
8.43319
30
4.56
0
VERTEX
10
9.03978
20
8.43615
30
4.56
0
VERTEX
10
9.04569
20
8.43615
30
4.56
0
VERTEX
10
9.05159
20
8.4391
30
4.56
0
VERTEX
10
9.05306
20
8.44205
30
4.56
0
VERTEX
10
9.06487
20
8.44352
30
4.56
0
VERTEX
10
9.07078
20
8.445
30
4.56
0
VERTEX
10
9.07963
20
8.45386
30
4.56
0
VERTEX
10
9.10324
20
8.46271
30
4.56
0
VERTEX
10
9.11505
20
8.46714
30
4.56
0
VERTEX
10
9.12096
20
8.47009
30
4.56
0
VERTEX
10
9.12391
20
8.47009
30
4.56
0
VERTEX
10
9.12686
20
8.47304
30
4.56
0
VERTEX
10
9.13867
20
8.47452
30
4.56
0
VERTEX
10
9.14457
20
8.47599
30
4.56
0
VERTEX
10
9.14752
20
8.47599
30
4.56
0
VERTEX
10
9.15047
20
8.47895
30
4.56
0
VERTEX
10
9.17409
20
8.48485
30
4.56
0
VERTEX
10
9.1977
20
8.48633
30
4.56
0
VERTEX
10
9.20951
20
8.48928
30
4.56
0
VERTEX
10
9.23312
20
8.49075
30
4.56
0
VERTEX
10
9.25674
20
8.48928
30
4.56
0
VERTEX
10
9.25969
20
8.48928
30
4.56
0
VERTEX
10
9.26264
20
8.48633
30
4.56
0
VERTEX
10
9.30987
20
8.48337
30
4.56
0
VERTEX
10
9.33348
20
8.4819
30
4.56
0
VERTEX
10
9.34529
20
8.4819
30
4.56
0
VERTEX
10
9.3571
20
8.48485
30
4.56
0
VERTEX
10
9.38071
20
8.48485
30
4.56
0
VERTEX
10
9.39252
20
8.48633
30
4.56
0
VERTEX
10
9.3999
20
8.4937
30
4.56
0
VERTEX
10
9.42351
20
8.49075
30
4.56
0
VERTEX
10
9.43532
20
8.48633
30
4.56
0
VERTEX
10
9.45893
20
8.48337
30
4.56
0
VERTEX
10
9.47074
20
8.48337
30
4.56
0
VERTEX
10
9.49435
20
8.4878
30
4.56
0
VERTEX
10
9.50616
20
8.49075
30
4.56
0
VERTEX
10
9.55339
20
8.49223
30
4.56
0
VERTEX
10
9.577
20
8.49518
30
4.56
0
VERTEX
10
9.60062
20
8.49518
30
4.56
0
VERTEX
10
9.62423
20
8.50108
30
4.56
0
VERTEX
10
9.63013
20
8.50404
30
4.56
0
VERTEX
10
9.64194
20
8.50404
30
4.56
0
VERTEX
10
9.64489
20
8.50699
30
4.56
0
VERTEX
10
9.64489
20
8.50994
30
4.56
0
VERTEX
10
9.6567
20
8.50994
30
4.56
0
VERTEX
10
9.6626
20
8.51142
30
4.56
0
VERTEX
10
9.66556
20
8.51142
30
4.56
0
VERTEX
10
9.68622
20
8.52765
30
4.56
0
VERTEX
10
9.69065
20
8.53208
30
4.56
0
VERTEX
10
9.69065
20
8.53503
30
4.56
0
VERTEX
10
9.70245
20
8.53946
30
4.56
0
VERTEX
10
9.70836
20
8.54241
30
4.56
0
VERTEX
10
9.71721
20
8.55274
30
4.56
0
VERTEX
10
9.72312
20
8.55717
30
4.56
0
VERTEX
10
9.73787
20
8.57931
30
4.56
0
VERTEX
10
9.7423
20
8.59111
30
4.56
0
VERTEX
10
9.74378
20
8.60292
30
4.56
0
VERTEX
10
9.74083
20
8.61473
30
4.56
0
VERTEX
10
9.7364
20
8.62063
30
4.56
0
VERTEX
10
9.73787
20
8.63244
30
4.56
0
VERTEX
10
9.73935
20
8.63687
30
4.56
0
VERTEX
10
9.74378
20
8.64129
30
4.56
0
VERTEX
10
9.75854
20
8.68852
30
4.56
0
VERTEX
10
9.76887
20
8.71214
30
4.56
0
VERTEX
10
9.7792
20
8.72099
30
4.56
0
VERTEX
10
9.7851
20
8.72247
30
4.56
0
VERTEX
10
9.80724
20
8.73575
30
4.56
0
VERTEX
10
9.80724
20
8.7387
30
4.56
0
VERTEX
10
9.81314
20
8.74313
30
4.56
0
VERTEX
10
9.81905
20
8.7446
30
4.56
0
VERTEX
10
9.822
20
8.74756
30
4.56
0
VERTEX
10
9.84561
20
8.75198
30
4.56
0
VERTEX
10
9.86923
20
8.75936
30
4.56
0
VERTEX
10
9.88103
20
8.76084
30
4.56
0
VERTEX
10
9.88694
20
8.76379
30
4.56
0
VERTEX
10
9.88989
20
8.76969
30
4.56
0
VERTEX
10
9.89284
20
8.76969
30
4.56
0
VERTEX
10
9.90022
20
8.77855
30
4.56
0
VERTEX
10
9.90612
20
8.7815
30
4.56
0
VERTEX
10
9.9135
20
8.79331
30
4.56
0
VERTEX
10
9.92384
20
8.80216
30
4.56
0
VERTEX
10
9.92679
20
8.80807
30
4.56
0
VERTEX
10
9.92974
20
8.80807
30
4.56
0
VERTEX
10
9.94007
20
8.81692
30
4.56
0
VERTEX
10
9.94302
20
8.82283
30
4.56
0
VERTEX
10
9.94155
20
8.87005
30
4.56
0
VERTEX
10
9.94155
20
8.88186
30
4.56
0
VERTEX
10
9.94007
20
8.88777
30
4.56
0
VERTEX
10
9.94007
20
8.89072
30
4.56
0
VERTEX
10
9.93712
20
8.89367
30
4.56
0
VERTEX
10
9.93712
20
8.89662
30
4.56
0
VERTEX
10
9.92826
20
8.90843
30
4.56
0
VERTEX
10
9.91646
20
8.91581
30
4.56
0
VERTEX
10
9.9135
20
8.92023
30
4.56
0
VERTEX
10
9.88989
20
8.92319
30
4.56
0
VERTEX
10
9.88399
20
8.92466
30
4.56
0
VERTEX
10
9.88103
20
8.92466
30
4.56
0
VERTEX
10
9.87956
20
8.92761
30
4.56
0
VERTEX
10
9.87366
20
8.92909
30
4.56
0
VERTEX
10
9.86775
20
8.93352
30
4.56
0
VERTEX
10
9.84414
20
8.93499
30
4.56
0
VERTEX
10
9.83823
20
8.93499
30
4.56
0
VERTEX
10
9.83233
20
8.93942
30
4.56
0
VERTEX
10
9.82052
20
8.94237
30
4.56
0
VERTEX
10
9.81462
20
8.94385
30
4.56
0
VERTEX
10
9.81019
20
8.94975
30
4.56
0
VERTEX
10
9.79839
20
8.9527
30
4.56
0
VERTEX
10
9.79396
20
8.95418
30
4.56
0
VERTEX
10
9.78215
20
8.96156
30
4.56
0
VERTEX
10
9.7733
20
8.96894
30
4.56
0
VERTEX
10
9.76296
20
8.97927
30
4.56
0
VERTEX
10
9.76001
20
8.97927
30
4.56
0
VERTEX
10
9.75411
20
8.9837
30
4.56
0
VERTEX
10
9.74821
20
8.98517
30
4.56
0
VERTEX
10
9.74525
20
8.98813
30
4.56
0
VERTEX
10
9.73492
20
8.99255
30
4.56
0
VERTEX
10
9.72902
20
8.99551
30
4.56
0
VERTEX
10
9.72164
20
9.00584
30
4.56
0
VERTEX
10
9.71131
20
9.01617
30
4.56
0
VERTEX
10
9.70688
20
9.02797
30
4.56
0
VERTEX
10
9.70245
20
9.03388
30
4.56
0
VERTEX
10
9.69507
20
9.05749
30
4.56
0
VERTEX
10
9.6936
20
9.0693
30
4.56
0
VERTEX
10
9.68327
20
9.09291
30
4.56
0
VERTEX
10
9.67736
20
9.11653
30
4.56
0
VERTEX
10
9.67294
20
9.12243
30
4.56
0
VERTEX
10
9.67146
20
9.13424
30
4.56
0
VERTEX
10
9.67146
20
9.13719
30
4.56
0
VERTEX
10
9.66703
20
9.14309
30
4.56
0
VERTEX
10
9.66556
20
9.1549
30
4.56
0
VERTEX
10
9.66556
20
9.1608
30
4.56
0
VERTEX
10
9.65965
20
9.17261
30
4.56
0
VERTEX
10
9.65818
20
9.18442
30
4.56
0
VERTEX
10
9.65375
20
9.19623
30
4.56
0
VERTEX
10
9.64932
20
9.21984
30
4.56
0
VERTEX
10
9.64489
20
9.22574
30
4.56
0
VERTEX
10
9.64342
20
9.24936
30
4.56
0
VERTEX
10
9.64489
20
9.27297
30
4.56
0
VERTEX
10
9.64489
20
9.27887
30
4.56
0
VERTEX
10
9.65522
20
9.28921
30
4.56
0
VERTEX
10
9.66113
20
9.31134
30
4.56
0
VERTEX
10
9.66408
20
9.32315
30
4.56
0
VERTEX
10
9.66703
20
9.32463
30
4.56
0
VERTEX
10
9.67441
20
9.37038
30
4.56
0
VERTEX
10
9.67884
20
9.39399
30
4.56
0
VERTEX
10
9.68031
20
9.41761
30
4.56
0
VERTEX
10
9.67884
20
9.42941
30
4.56
0
VERTEX
10
9.67736
20
9.43532
30
4.56
0
VERTEX
10
9.6567
20
9.4545
30
4.56
0
VERTEX
10
9.64637
20
9.46188
30
4.56
0
VERTEX
10
9.64047
20
9.46484
30
4.56
0
VERTEX
10
9.63751
20
9.46779
30
4.56
0
VERTEX
10
9.62571
20
9.46926
30
4.56
0
VERTEX
10
9.6198
20
9.46926
30
4.56
0
VERTEX
10
9.60357
20
9.42204
30
4.56
0
VERTEX
10
9.59914
20
9.39842
30
4.56
0
VERTEX
10
9.59767
20
9.38661
30
4.56
0
VERTEX
10
9.59029
20
9.363
30
4.56
0
VERTEX
10
9.58881
20
9.35119
30
4.56
0
VERTEX
10
9.58881
20
9.34529
30
4.56
0
VERTEX
10
9.58438
20
9.33348
30
4.56
0
VERTEX
10
9.57995
20
9.30987
30
4.56
0
VERTEX
10
9.57995
20
9.30396
30
4.56
0
VERTEX
10
9.577
20
9.29806
30
4.56
0
VERTEX
10
9.57553
20
9.28625
30
4.56
0
VERTEX
10
9.5711
20
9.27445
30
4.56
0
VERTEX
10
9.56815
20
9.25083
30
4.56
0
VERTEX
10
9.56962
20
9.2036
30
4.56
0
VERTEX
10
9.57258
20
9.17999
30
4.56
0
VERTEX
10
9.57553
20
9.16818
30
4.56
0
VERTEX
10
9.57405
20
9.14457
30
4.56
0
VERTEX
10
9.57405
20
9.13867
30
4.56
0
VERTEX
10
9.5711
20
9.13276
30
4.56
0
VERTEX
10
9.5711
20
9.12981
30
4.56
0
VERTEX
10
9.56077
20
9.12243
30
4.56
0
VERTEX
10
9.54011
20
9.10324
30
4.56
0
VERTEX
10
9.52977
20
9.09291
30
4.56
0
VERTEX
10
9.52682
20
9.08996
30
4.56
0
VERTEX
10
9.52092
20
9.08849
30
4.56
0
VERTEX
10
9.50911
20
9.07963
30
4.56
0
VERTEX
10
9.50321
20
9.07668
30
4.56
0
VERTEX
10
9.49731
20
9.07668
30
4.56
0
VERTEX
10
9.4914
20
9.07373
30
4.56
0
VERTEX
10
9.47959
20
9.07225
30
4.56
0
VERTEX
10
9.46779
20
9.06782
30
4.56
0
VERTEX
10
9.44417
20
9.06487
30
4.56
0
VERTEX
10
9.42056
20
9.06487
30
4.56
0
VERTEX
10
9.41761
20
9.06487
30
4.56
0
VERTEX
10
9.41613
20
9.06192
30
4.56
0
VERTEX
10
9.32168
20
9.05897
30
4.56
0
VERTEX
10
9.31577
20
9.05602
30
4.56
0
VERTEX
10
9.26854
20
9.05602
30
4.56
0
VERTEX
10
9.22132
20
9.05306
30
4.56
0
VERTEX
10
9.21541
20
9.05306
30
4.56
0
VERTEX
10
9.2036
20
9.04864
30
4.56
0
VERTEX
10
9.17999
20
9.04716
30
4.56
0
VERTEX
10
9.15638
20
9.04273
30
4.56
0
VERTEX
10
9.14457
20
9.03683
30
4.56
0
VERTEX
10
9.13276
20
9.03535
30
4.56
0
VERTEX
10
9.12686
20
9.03535
30
4.56
0
VERTEX
10
9.12096
20
9.0324
30
4.56
0
VERTEX
10
9.11062
20
9.03535
30
4.56
0
VERTEX
10
9.10472
20
9.0324
30
4.56
0
VERTEX
10
9.08111
20
9.02945
30
4.56
0
VERTEX
10
9.0693
20
9.0265
30
4.56
0
VERTEX
10
9.05749
20
9.0206
30
4.56
0
VERTEX
10
9.05159
20
9.01764
30
4.56
0
VERTEX
10
9.04569
20
9.01764
30
4.56
0
VERTEX
10
9.04126
20
9.01322
30
4.56
0
VERTEX
10
9.03535
20
9.01174
30
4.56
0
VERTEX
10
9.02945
20
9.00731
30
4.56
0
VERTEX
10
9.00584
20
8.99993
30
4.56
0
VERTEX
10
8.95861
20
8.99846
30
4.56
0
VERTEX
10
8.9527
20
8.99846
30
4.56
0
VERTEX
10
8.94975
20
8.99551
30
4.56
0
VERTEX
10
8.9468
20
8.99551
30
4.56
0
VERTEX
10
8.93499
20
8.98813
30
4.56
0
VERTEX
10
8.93204
20
8.98813
30
4.56
0
VERTEX
10
8.91286
20
8.96746
30
4.56
0
VERTEX
10
8.90252
20
8.95566
30
4.56
0
VERTEX
10
8.8981
20
8.95123
30
4.56
0
VERTEX
10
8.89367
20
8.9409
30
4.56
0
VERTEX
10
8.88777
20
8.93647
30
4.56
0
VERTEX
10
8.87301
20
8.91286
30
4.56
0
VERTEX
10
8.85382
20
8.89367
30
4.56
0
VERTEX
10
8.84792
20
8.88924
30
4.56
0
VERTEX
10
8.84644
20
8.87743
30
4.56
0
VERTEX
10
8.84349
20
8.87301
30
4.56
0
VERTEX
10
8.84054
20
8.87153
30
4.56
0
VERTEX
10
8.84201
20
8.8612
30
4.56
0
VERTEX
10
8.83168
20
8.85087
30
4.56
0
VERTEX
10
8.82578
20
8.84939
30
4.56
0
VERTEX
10
8.8184
20
8.83906
30
4.56
0
VERTEX
10
8.81397
20
8.83463
30
4.56
0
VERTEX
10
8.81397
20
8.82873
30
4.56
0
VERTEX
10
8.80954
20
8.82283
30
4.56
0
VERTEX
10
8.80659
20
8.81987
30
4.56
0
VERTEX
10
8.80659
20
8.81692
30
4.56
0
VERTEX
10
8.80069
20
8.81102
30
4.56
0
VERTEX
10
8.79036
20
8.78888
30
4.56
0
VERTEX
10
8.78741
20
8.78593
30
4.56
0
VERTEX
10
8.78298
20
8.7756
30
4.56
0
VERTEX
10
8.78003
20
8.76969
30
4.56
0
VERTEX
10
8.77707
20
8.76674
30
4.56
0
VERTEX
10
8.76527
20
8.76232
30
4.56
0
VERTEX
10
8.75936
20
8.76084
30
4.56
0
VERTEX
10
8.75346
20
8.74903
30
4.56
0
VERTEX
10
8.73723
20
8.72837
30
4.56
0
VERTEX
10
8.73575
20
8.71656
30
4.56
0
VERTEX
10
8.73132
20
8.71066
30
4.56
0
VERTEX
10
8.73132
20
8.70476
30
4.56
0
VERTEX
10
8.72542
20
8.69295
30
4.56
0
VERTEX
10
8.72542
20
8.69
30
4.56
0
VERTEX
10
8.71951
20
8.68409
30
4.56
0
VERTEX
10
8.71361
20
8.68114
30
4.56
0
VERTEX
10
8.70328
20
8.66933
30
4.56
0
VERTEX
10
8.70033
20
8.66343
30
4.56
0
VERTEX
10
8.69738
20
8.66196
30
4.56
0
VERTEX
10
8.69738
20
8.659
30
4.56
0
VERTEX
10
8.69295
20
8.65458
30
4.56
0
VERTEX
10
8.69147
20
8.63096
30
4.56
0
VERTEX
10
8.69147
20
8.62506
30
4.56
0
VERTEX
10
8.68852
20
8.61915
30
4.56
0
VERTEX
10
8.68852
20
8.59554
30
4.56
0
VERTEX
10
8.68852
20
8.58373
30
4.56
0
VERTEX
10
8.68852
20
8.57783
30
4.56
0
SEQEND
0
ENDSEC
0
EOF
