0
SECTION
2
ENTITIES
0
POLYLINE
62
31
66
1
70
1
3
contour
0
VERTEX
10
7.28503
20
10.9852
30
8.24
0
VERTEX
10
7.29162
20
10.972
30
8.24
0
VERTEX
10
7.29162
20
10.9654
30
8.24
0
VERTEX
10
7.30807
20
10.9391
30
8.24
0
VERTEX
10
7.33441
20
10.9226
30
8.24
0
VERTEX
10
7.37721
20
10.8864
30
8.24
0
VERTEX
10
7.38379
20
10.8831
30
8.24
0
VERTEX
10
7.38379
20
10.8765
30
8.24
0
VERTEX
10
7.40025
20
10.8502
30
8.24
0
VERTEX
10
7.42329
20
10.8271
30
8.24
0
VERTEX
10
7.47596
20
10.8041
30
8.24
0
VERTEX
10
7.52863
20
10.7975
30
8.24
0
VERTEX
10
7.55497
20
10.7975
30
8.24
0
VERTEX
10
7.60764
20
10.7811
30
8.24
0
VERTEX
10
7.66031
20
10.7745
30
8.24
0
VERTEX
10
7.71298
20
10.7778
30
8.24
0
VERTEX
10
7.72615
20
10.7811
30
8.24
0
VERTEX
10
7.72944
20
10.8337
30
8.24
0
VERTEX
10
7.71298
20
10.8864
30
8.24
0
VERTEX
10
7.7064
20
10.9127
30
8.24
0
VERTEX
10
7.7064
20
10.9193
30
8.24
0
VERTEX
10
7.69981
20
10.9259
30
8.24
0
VERTEX
10
7.69981
20
10.9325
30
8.24
0
VERTEX
10
7.69323
20
10.9391
30
8.24
0
VERTEX
10
7.68335
20
10.9917
30
8.24
0
VERTEX
10
7.68006
20
11.0049
30
8.24
0
VERTEX
10
7.67019
20
11.0181
30
8.24
0
VERTEX
10
7.67019
20
11.0247
30
8.24
0
VERTEX
10
7.63068
20
11.0707
30
8.24
0
VERTEX
10
7.6241
20
11.0839
30
8.24
0
VERTEX
10
7.59776
20
11.0938
30
8.24
0
VERTEX
10
7.59118
20
11.0938
30
8.24
0
VERTEX
10
7.5846
20
11.1004
30
8.24
0
VERTEX
10
7.55826
20
11.107
30
8.24
0
VERTEX
10
7.50559
20
11.13
30
8.24
0
VERTEX
10
7.48913
20
11.153
30
8.24
0
VERTEX
10
7.47596
20
11.1596
30
8.24
0
VERTEX
10
7.46938
20
11.1629
30
8.24
0
VERTEX
10
7.44304
20
11.1596
30
8.24
0
VERTEX
10
7.41671
20
11.1465
30
8.24
0
VERTEX
10
7.40683
20
11.1399
30
8.24
0
VERTEX
10
7.39366
20
11.1267
30
8.24
0
VERTEX
10
7.38708
20
11.1267
30
8.24
0
VERTEX
10
7.37721
20
11.1135
30
8.24
0
VERTEX
10
7.36404
20
11.1135
30
8.24
0
VERTEX
10
7.34429
20
11.0938
30
8.24
0
VERTEX
10
7.33112
20
11.0938
30
8.24
0
VERTEX
10
7.31795
20
11.0872
30
8.24
0
VERTEX
10
7.31795
20
11.0806
30
8.24
0
VERTEX
10
7.30478
20
11.0707
30
8.24
0
VERTEX
10
7.2982
20
11.0675
30
8.24
0
VERTEX
10
7.2982
20
11.0543
30
8.24
0
VERTEX
10
7.29162
20
11.0411
30
8.24
0
VERTEX
10
7.28503
20
11.0345
30
8.24
0
VERTEX
10
7.28503
20
11.0082
30
8.24
0
VERTEX
10
7.28503
20
10.995
30
8.24
0
VERTEX
10
7.28503
20
10.9884
30
8.24
0
SEQEND
0
POLYLINE
62
224
66
1
70
1
3
mitochondrion
0
VERTEX
10
7.85315
20
10.1599
30
8.24
0
VERTEX
10
7.85732
20
10.1571
30
8.24
0
VERTEX
10
7.86566
20
10.146
30
8.24
0
VERTEX
10
7.86844
20
10.1432
30
8.24
0
VERTEX
10
7.86844
20
10.1376
30
8.24
0
VERTEX
10
7.88374
20
10.1154
30
8.24
0
VERTEX
10
7.89208
20
10.107
30
8.24
0
VERTEX
10
7.89903
20
10.0959
30
8.24
0
VERTEX
10
7.91989
20
10.0778
30
8.24
0
VERTEX
10
7.94214
20
10.0681
30
8.24
0
VERTEX
10
7.95187
20
10.0625
30
8.24
0
VERTEX
10
7.95465
20
10.0598
30
8.24
0
VERTEX
10
7.96021
20
10.0598
30
8.24
0
VERTEX
10
7.98107
20
10.0445
30
8.24
0
VERTEX
10
7.99219
20
10.0403
30
8.24
0
VERTEX
10
8.00331
20
10.0389
30
8.24
0
VERTEX
10
8.00888
20
10.0361
30
8.24
0
VERTEX
10
8.01444
20
10.0361
30
8.24
0
VERTEX
10
8.01722
20
10.0333
30
8.24
0
VERTEX
10
8.06171
20
10.0347
30
8.24
0
VERTEX
10
8.07284
20
10.0403
30
8.24
0
VERTEX
10
8.07562
20
10.0403
30
8.24
0
VERTEX
10
8.08118
20
10.0459
30
8.24
0
VERTEX
10
8.08118
20
10.0486
30
8.24
0
VERTEX
10
8.08674
20
10.0542
30
8.24
0
VERTEX
10
8.0923
20
10.0639
30
8.24
0
VERTEX
10
8.10343
20
10.0737
30
8.24
0
VERTEX
10
8.10899
20
10.0792
30
8.24
0
VERTEX
10
8.10899
20
10.0848
30
8.24
0
VERTEX
10
8.11316
20
10.0959
30
8.24
0
VERTEX
10
8.11455
20
10.1182
30
8.24
0
VERTEX
10
8.11733
20
10.1293
30
8.24
0
VERTEX
10
8.11594
20
10.1515
30
8.24
0
VERTEX
10
8.11177
20
10.1738
30
8.24
0
VERTEX
10
8.10343
20
10.196
30
8.24
0
VERTEX
10
8.09925
20
10.2071
30
8.24
0
VERTEX
10
8.0923
20
10.2183
30
8.24
0
VERTEX
10
8.08952
20
10.2211
30
8.24
0
VERTEX
10
8.08813
20
10.2266
30
8.24
0
VERTEX
10
8.06866
20
10.2475
30
8.24
0
VERTEX
10
8.05754
20
10.2558
30
8.24
0
VERTEX
10
8.0492
20
10.2669
30
8.24
0
VERTEX
10
8.03808
20
10.2739
30
8.24
0
VERTEX
10
8.02695
20
10.2781
30
8.24
0
VERTEX
10
8.02139
20
10.2822
30
8.24
0
VERTEX
10
8.01583
20
10.2822
30
8.24
0
VERTEX
10
8.0047
20
10.2878
30
8.24
0
VERTEX
10
7.98246
20
10.292
30
8.24
0
VERTEX
10
7.93796
20
10.2906
30
8.24
0
VERTEX
10
7.92684
20
10.2878
30
8.24
0
VERTEX
10
7.90459
20
10.2753
30
8.24
0
VERTEX
10
7.89903
20
10.2739
30
8.24
0
VERTEX
10
7.87957
20
10.2516
30
8.24
0
VERTEX
10
7.87957
20
10.2489
30
8.24
0
VERTEX
10
7.8754
20
10.2433
30
8.24
0
VERTEX
10
7.87261
20
10.2322
30
8.24
0
VERTEX
10
7.87261
20
10.2294
30
8.24
0
VERTEX
10
7.86844
20
10.2238
30
8.24
0
VERTEX
10
7.86844
20
10.2183
30
8.24
0
VERTEX
10
7.86427
20
10.2127
30
8.24
0
VERTEX
10
7.85732
20
10.1905
30
8.24
0
VERTEX
10
7.85593
20
10.1793
30
8.24
0
VERTEX
10
7.85315
20
10.1766
30
8.24
0
VERTEX
10
7.85315
20
10.1654
30
8.24
0
VERTEX
10
7.85315
20
10.1613
30
8.24
0
SEQEND
0
POLYLINE
62
236
66
1
70
1
3
postsynaptic_density
0
VERTEX
10
7.24097
20
11.022
30
8.24
0
VERTEX
10
7.24284
20
10.9921
30
8.24
0
VERTEX
10
7.24284
20
10.9846
30
8.24
0
VERTEX
10
7.25031
20
10.9697
30
8.24
0
VERTEX
10
7.26337
20
10.9585
30
8.24
0
VERTEX
10
7.2783
20
10.9566
30
8.24
0
VERTEX
10
7.30816
20
10.9585
30
8.24
0
VERTEX
10
7.31562
20
10.9604
30
8.24
0
VERTEX
10
7.33055
20
10.9697
30
8.24
0
VERTEX
10
7.33429
20
10.9697
30
8.24
0
VERTEX
10
7.35855
20
10.994
30
8.24
0
VERTEX
10
7.36601
20
11.0014
30
8.24
0
VERTEX
10
7.36974
20
11.0089
30
8.24
0
VERTEX
10
7.38094
20
11.0182
30
8.24
0
VERTEX
10
7.38467
20
11.0257
30
8.24
0
VERTEX
10
7.38654
20
11.0555
30
8.24
0
VERTEX
10
7.38467
20
11.0854
30
8.24
0
VERTEX
10
7.38281
20
11.1003
30
8.24
0
VERTEX
10
7.37721
20
11.1153
30
8.24
0
VERTEX
10
7.36415
20
11.1283
30
8.24
0
VERTEX
10
7.36041
20
11.1321
30
8.24
0
VERTEX
10
7.33055
20
11.1339
30
8.24
0
VERTEX
10
7.32309
20
11.1358
30
8.24
0
VERTEX
10
7.2727
20
11.0761
30
8.24
0
VERTEX
10
7.24844
20
11.0462
30
8.24
0
VERTEX
10
7.24284
20
11.0388
30
8.24
0
VERTEX
10
7.24097
20
11.0238
30
8.24
0
SEQEND
0
POLYLINE
62
227
66
1
70
1
3
endoplasmic_reticulum
0
VERTEX
10
8.02678
20
9.98394
30
8.24
0
VERTEX
10
8.02947
20
9.97677
30
8.24
0
VERTEX
10
8.02947
20
9.97318
30
8.24
0
VERTEX
10
8.03574
20
9.9669
30
8.24
0
VERTEX
10
8.03933
20
9.96421
30
8.24
0
VERTEX
10
8.0465
20
9.96242
30
8.24
0
VERTEX
10
8.04829
20
9.96063
30
8.24
0
VERTEX
10
8.05188
20
9.96063
30
8.24
0
VERTEX
10
8.05367
20
9.95883
30
8.24
0
VERTEX
10
8.05547
20
9.95883
30
8.24
0
VERTEX
10
8.05726
20
9.95704
30
8.24
0
VERTEX
10
8.0716
20
9.95883
30
8.24
0
VERTEX
10
8.07519
20
9.95973
30
8.24
0
VERTEX
10
8.07609
20
9.96152
30
8.24
0
VERTEX
10
8.07788
20
9.96152
30
8.24
0
VERTEX
10
8.07967
20
9.96332
30
8.24
0
VERTEX
10
8.08057
20
9.9669
30
8.24
0
VERTEX
10
8.08685
20
9.97139
30
8.24
0
VERTEX
10
8.10029
20
9.98394
30
8.24
0
VERTEX
10
8.10747
20
9.98752
30
8.24
0
VERTEX
10
8.11105
20
9.99021
30
8.24
0
VERTEX
10
8.11823
20
9.9929
30
8.24
0
VERTEX
10
8.1254
20
9.99739
30
8.24
0
VERTEX
10
8.13257
20
10.0001
30
8.24
0
VERTEX
10
8.13616
20
10.0028
30
8.24
0
VERTEX
10
8.13795
20
10.0028
30
8.24
0
VERTEX
10
8.14243
20
10.009
30
8.24
0
VERTEX
10
8.14243
20
10.0162
30
8.24
0
VERTEX
10
8.14512
20
10.0198
30
8.24
0
VERTEX
10
8.14602
20
10.027
30
8.24
0
VERTEX
10
8.14512
20
10.0341
30
8.24
0
VERTEX
10
8.14422
20
10.0377
30
8.24
0
VERTEX
10
8.14422
20
10.0395
30
8.24
0
VERTEX
10
8.14243
20
10.0413
30
8.24
0
VERTEX
10
8.14154
20
10.0449
30
8.24
0
VERTEX
10
8.13885
20
10.0476
30
8.24
0
VERTEX
10
8.13167
20
10.0458
30
8.24
0
VERTEX
10
8.12809
20
10.044
30
8.24
0
VERTEX
10
8.1254
20
10.0404
30
8.24
0
VERTEX
10
8.11105
20
10.0359
30
8.24
0
VERTEX
10
8.11016
20
10.0341
30
8.24
0
VERTEX
10
8.09581
20
10.0297
30
8.24
0
VERTEX
10
8.09223
20
10.0288
30
8.24
0
VERTEX
10
8.08864
20
10.0261
30
8.24
0
VERTEX
10
8.08685
20
10.0225
30
8.24
0
VERTEX
10
8.08326
20
10.0189
30
8.24
0
VERTEX
10
8.06891
20
10.0144
30
8.24
0
VERTEX
10
8.06174
20
10.0117
30
8.24
0
VERTEX
10
8.05457
20
10.0117
30
8.24
0
VERTEX
10
8.05098
20
10.0108
30
8.24
0
VERTEX
10
8.04919
20
10.0108
30
8.24
0
VERTEX
10
8.0474
20
10.009
30
8.24
0
VERTEX
10
8.04381
20
10.009
30
8.24
0
VERTEX
10
8.03664
20
10.0055
30
8.24
0
VERTEX
10
8.03305
20
10.0028
30
8.24
0
VERTEX
10
8.02857
20
9.99559
30
8.24
0
VERTEX
10
8.02678
20
9.98842
30
8.24
0
VERTEX
10
8.02678
20
9.98483
30
8.24
0
SEQEND
0
POLYLINE
62
227
66
1
70
1
3
endoplasmic_reticulum
0
VERTEX
10
7.91919
20
9.96421
30
8.24
0
VERTEX
10
7.92009
20
9.96063
30
8.24
0
VERTEX
10
7.92009
20
9.95883
30
8.24
0
VERTEX
10
7.92367
20
9.95525
30
8.24
0
VERTEX
10
7.92726
20
9.95435
30
8.24
0
VERTEX
10
7.92995
20
9.95166
30
8.24
0
VERTEX
10
7.93085
20
9.94808
30
8.24
0
VERTEX
10
7.93802
20
9.94628
30
8.24
0
VERTEX
10
7.94519
20
9.94718
30
8.24
0
VERTEX
10
7.94878
20
9.94808
30
8.24
0
VERTEX
10
7.95236
20
9.95077
30
8.24
0
VERTEX
10
7.95954
20
9.95256
30
8.24
0
VERTEX
10
7.96133
20
9.95435
30
8.24
0
VERTEX
10
7.9685
20
9.95614
30
8.24
0
VERTEX
10
7.97298
20
9.96242
30
8.24
0
VERTEX
10
7.97119
20
9.97677
30
8.24
0
VERTEX
10
7.97029
20
9.98394
30
8.24
0
VERTEX
10
7.97029
20
9.98573
30
8.24
0
VERTEX
10
7.96402
20
9.99111
30
8.24
0
VERTEX
10
7.96043
20
9.9938
30
8.24
0
VERTEX
10
7.94609
20
9.9929
30
8.24
0
VERTEX
10
7.9425
20
9.99201
30
8.24
0
VERTEX
10
7.93892
20
9.9929
30
8.24
0
VERTEX
10
7.92457
20
9.98932
30
8.24
0
VERTEX
10
7.92009
20
9.97497
30
8.24
0
VERTEX
10
7.91919
20
9.9678
30
8.24
0
VERTEX
10
7.91919
20
9.96511
30
8.24
0
SEQEND
0
POLYLINE
62
227
66
1
70
1
3
endoplasmic_reticulum
0
VERTEX
10
7.68699
20
10.2959
30
8.24
0
VERTEX
10
7.68878
20
10.2941
30
8.24
0
VERTEX
10
7.68878
20
10.287
30
8.24
0
VERTEX
10
7.69326
20
10.2798
30
8.24
0
VERTEX
10
7.69326
20
10.278
30
8.24
0
VERTEX
10
7.70312
20
10.2646
30
8.24
0
VERTEX
10
7.70671
20
10.261
30
8.24
0
VERTEX
10
7.7085
20
10.261
30
8.24
0
VERTEX
10
7.71209
20
10.2583
30
8.24
0
VERTEX
10
7.71568
20
10.2574
30
8.24
0
VERTEX
10
7.72285
20
10.2592
30
8.24
0
VERTEX
10
7.72912
20
10.2637
30
8.24
0
VERTEX
10
7.73271
20
10.2663
30
8.24
0
VERTEX
10
7.73271
20
10.2699
30
8.24
0
VERTEX
10
7.7345
20
10.2726
30
8.24
0
VERTEX
10
7.7354
20
10.3013
30
8.24
0
VERTEX
10
7.7354
20
10.3157
30
8.24
0
VERTEX
10
7.73719
20
10.3228
30
8.24
0
VERTEX
10
7.73719
20
10.3264
30
8.24
0
VERTEX
10
7.7354
20
10.33
30
8.24
0
VERTEX
10
7.73181
20
10.33
30
8.24
0
VERTEX
10
7.73002
20
10.3318
30
8.24
0
VERTEX
10
7.73002
20
10.3336
30
8.24
0
VERTEX
10
7.72733
20
10.3372
30
8.24
0
VERTEX
10
7.72016
20
10.3399
30
8.24
0
VERTEX
10
7.71299
20
10.3461
30
8.24
0
VERTEX
10
7.7094
20
10.347
30
8.24
0
VERTEX
10
7.69774
20
10.3336
30
8.24
0
VERTEX
10
7.69416
20
10.33
30
8.24
0
VERTEX
10
7.69147
20
10.3228
30
8.24
0
VERTEX
10
7.68968
20
10.321
30
8.24
0
VERTEX
10
7.68699
20
10.3067
30
8.24
0
VERTEX
10
7.68699
20
10.2995
30
8.24
0
VERTEX
10
7.68699
20
10.2968
30
8.24
0
SEQEND
0
POLYLINE
62
227
66
1
70
1
3
endoplasmic_reticulum
0
VERTEX
10
7.70223
20
9.89428
30
8.24
0
VERTEX
10
7.70671
20
9.88801
30
8.24
0
VERTEX
10
7.71388
20
9.88442
30
8.24
0
VERTEX
10
7.72016
20
9.87904
30
8.24
0
VERTEX
10
7.72195
20
9.87725
30
8.24
0
VERTEX
10
7.72464
20
9.87008
30
8.24
0
VERTEX
10
7.72912
20
9.8638
30
8.24
0
VERTEX
10
7.73271
20
9.86201
30
8.24
0
VERTEX
10
7.7345
20
9.86201
30
8.24
0
VERTEX
10
7.7354
20
9.85842
30
8.24
0
VERTEX
10
7.73899
20
9.85573
30
8.24
0
VERTEX
10
7.75333
20
9.85304
30
8.24
0
VERTEX
10
7.76768
20
9.85663
30
8.24
0
VERTEX
10
7.77485
20
9.85752
30
8.24
0
VERTEX
10
7.77754
20
9.8647
30
8.24
0
VERTEX
10
7.78023
20
9.86828
30
8.24
0
VERTEX
10
7.78023
20
9.87546
30
8.24
0
VERTEX
10
7.77664
20
9.8898
30
8.24
0
VERTEX
10
7.77037
20
9.89697
30
8.24
0
VERTEX
10
7.76678
20
9.89877
30
8.24
0
VERTEX
10
7.7614
20
9.90594
30
8.24
0
VERTEX
10
7.75781
20
9.90863
30
8.24
0
VERTEX
10
7.75064
20
9.91132
30
8.24
0
VERTEX
10
7.74885
20
9.9149
30
8.24
0
VERTEX
10
7.74885
20
9.9167
30
8.24
0
VERTEX
10
7.74705
20
9.91849
30
8.24
0
VERTEX
10
7.74616
20
9.92566
30
8.24
0
VERTEX
10
7.74257
20
9.93283
30
8.24
0
VERTEX
10
7.73719
20
9.93911
30
8.24
0
VERTEX
10
7.73361
20
9.9427
30
8.24
0
VERTEX
10
7.73181
20
9.94449
30
8.24
0
VERTEX
10
7.71747
20
9.93642
30
8.24
0
VERTEX
10
7.7103
20
9.93194
30
8.24
0
VERTEX
10
7.70761
20
9.92835
30
8.24
0
VERTEX
10
7.70581
20
9.92656
30
8.24
0
VERTEX
10
7.70581
20
9.92477
30
8.24
0
VERTEX
10
7.70223
20
9.92208
30
8.24
0
VERTEX
10
7.70223
20
9.90773
30
8.24
0
VERTEX
10
7.70223
20
9.90056
30
8.24
0
VERTEX
10
7.70223
20
9.89697
30
8.24
0
VERTEX
10
7.70223
20
9.89518
30
8.24
0
SEQEND
0
POLYLINE
62
227
66
1
70
1
3
endoplasmic_reticulum
0
VERTEX
10
7.73719
20
10.0503
30
8.24
0
VERTEX
10
7.73899
20
10.0359
30
8.24
0
VERTEX
10
7.74078
20
10.035
30
8.24
0
VERTEX
10
7.74705
20
10.0064
30
8.24
0
VERTEX
10
7.74885
20
9.99918
30
8.24
0
VERTEX
10
7.75243
20
9.99201
30
8.24
0
VERTEX
10
7.75333
20
9.98842
30
8.24
0
VERTEX
10
7.75781
20
9.98125
30
8.24
0
VERTEX
10
7.7605
20
9.97856
30
8.24
0
VERTEX
10
7.7623
20
9.96421
30
8.24
0
VERTEX
10
7.7623
20
9.93552
30
8.24
0
VERTEX
10
7.76319
20
9.92835
30
8.24
0
VERTEX
10
7.76409
20
9.92477
30
8.24
0
VERTEX
10
7.76947
20
9.91939
30
8.24
0
VERTEX
10
7.77305
20
9.9167
30
8.24
0
VERTEX
10
7.7874
20
9.9158
30
8.24
0
VERTEX
10
7.79457
20
9.9167
30
8.24
0
VERTEX
10
7.79816
20
9.9167
30
8.24
0
VERTEX
10
7.80533
20
9.92028
30
8.24
0
VERTEX
10
7.81071
20
9.92746
30
8.24
0
VERTEX
10
7.8125
20
9.93463
30
8.24
0
VERTEX
10
7.8143
20
9.93642
30
8.24
0
VERTEX
10
7.8143
20
9.95077
30
8.24
0
VERTEX
10
7.8125
20
9.95435
30
8.24
0
VERTEX
10
7.8125
20
9.95794
30
8.24
0
VERTEX
10
7.81071
20
9.96152
30
8.24
0
VERTEX
10
7.80981
20
9.9687
30
8.24
0
VERTEX
10
7.80712
20
9.97139
30
8.24
0
VERTEX
10
7.80623
20
9.97497
30
8.24
0
VERTEX
10
7.80623
20
9.97677
30
8.24
0
VERTEX
10
7.80085
20
9.98304
30
8.24
0
VERTEX
10
7.79905
20
9.98483
30
8.24
0
VERTEX
10
7.79726
20
10.0135
30
8.24
0
VERTEX
10
7.79726
20
10.0171
30
8.24
0
VERTEX
10
7.79547
20
10.0198
30
8.24
0
VERTEX
10
7.79278
20
10.0341
30
8.24
0
VERTEX
10
7.79188
20
10.0628
30
8.24
0
VERTEX
10
7.79099
20
10.07
30
8.24
0
VERTEX
10
7.78561
20
10.0844
30
8.24
0
VERTEX
10
7.78381
20
10.0915
30
8.24
0
VERTEX
10
7.78561
20
10.1059
30
8.24
0
VERTEX
10
7.79188
20
10.1202
30
8.24
0
VERTEX
10
7.79099
20
10.1346
30
8.24
0
VERTEX
10
7.79009
20
10.1417
30
8.24
0
VERTEX
10
7.78023
20
10.1552
30
8.24
0
VERTEX
10
7.77664
20
10.1579
30
8.24
0
VERTEX
10
7.77305
20
10.1588
30
8.24
0
VERTEX
10
7.76588
20
10.157
30
8.24
0
VERTEX
10
7.75871
20
10.157
30
8.24
0
VERTEX
10
7.75512
20
10.157
30
8.24
0
VERTEX
10
7.74795
20
10.1525
30
8.24
0
VERTEX
10
7.74795
20
10.1453
30
8.24
0
VERTEX
10
7.74616
20
10.1444
30
8.24
0
VERTEX
10
7.74616
20
10.1372
30
8.24
0
VERTEX
10
7.74885
20
10.1301
30
8.24
0
VERTEX
10
7.74974
20
10.1229
30
8.24
0
VERTEX
10
7.75064
20
10.1193
30
8.24
0
VERTEX
10
7.75243
20
10.1184
30
8.24
0
VERTEX
10
7.75154
20
10.1041
30
8.24
0
VERTEX
10
7.75154
20
10.1005
30
8.24
0
VERTEX
10
7.75154
20
10.0987
30
8.24
0
VERTEX
10
7.74974
20
10.0969
30
8.24
0
VERTEX
10
7.74974
20
10.0933
30
8.24
0
VERTEX
10
7.74795
20
10.0915
30
8.24
0
VERTEX
10
7.74795
20
10.0897
30
8.24
0
VERTEX
10
7.74437
20
10.0879
30
8.24
0
VERTEX
10
7.74168
20
10.0808
30
8.24
0
VERTEX
10
7.74168
20
10.0736
30
8.24
0
VERTEX
10
7.73988
20
10.0664
30
8.24
0
VERTEX
10
7.73719
20
10.0628
30
8.24
0
VERTEX
10
7.73719
20
10.0557
30
8.24
0
VERTEX
10
7.73719
20
10.0521
30
8.24
0
VERTEX
10
7.73719
20
10.0512
30
8.24
0
SEQEND
0
POLYLINE
62
227
66
1
70
1
3
endoplasmic_reticulum
0
VERTEX
10
8.14602
20
10.1444
30
8.24
0
VERTEX
10
8.1505
20
10.1301
30
8.24
0
VERTEX
10
8.15229
20
10.1265
30
8.24
0
VERTEX
10
8.15947
20
10.1265
30
8.24
0
VERTEX
10
8.17381
20
10.1301
30
8.24
0
VERTEX
10
8.1774
20
10.131
30
8.24
0
VERTEX
10
8.18367
20
10.1355
30
8.24
0
VERTEX
10
8.18726
20
10.1372
30
8.24
0
VERTEX
10
8.19264
20
10.1435
30
8.24
0
VERTEX
10
8.19891
20
10.148
30
8.24
0
VERTEX
10
8.2025
20
10.1516
30
8.24
0
VERTEX
10
8.2025
20
10.1552
30
8.24
0
VERTEX
10
8.20698
20
10.1597
30
8.24
0
VERTEX
10
8.20698
20
10.1615
30
8.24
0
VERTEX
10
8.20967
20
10.1641
30
8.24
0
VERTEX
10
8.21236
20
10.1704
30
8.24
0
VERTEX
10
8.21326
20
10.174
30
8.24
0
VERTEX
10
8.21864
20
10.1803
30
8.24
0
VERTEX
10
8.21864
20
10.1821
30
8.24
0
VERTEX
10
8.22491
20
10.1883
30
8.24
0
VERTEX
10
8.23209
20
10.2027
30
8.24
0
VERTEX
10
8.23657
20
10.209
30
8.24
0
VERTEX
10
8.23836
20
10.2108
30
8.24
0
VERTEX
10
8.23926
20
10.2143
30
8.24
0
VERTEX
10
8.24822
20
10.2287
30
8.24
0
VERTEX
10
8.24643
20
10.243
30
8.24
0
VERTEX
10
8.24284
20
10.2502
30
8.24
0
VERTEX
10
8.24105
20
10.2538
30
8.24
0
VERTEX
10
8.23747
20
10.2565
30
8.24
0
VERTEX
10
8.23388
20
10.2565
30
8.24
0
VERTEX
10
8.23209
20
10.2565
30
8.24
0
VERTEX
10
8.23029
20
10.2547
30
8.24
0
VERTEX
10
8.23029
20
10.2529
30
8.24
0
VERTEX
10
8.22402
20
10.2493
30
8.24
0
VERTEX
10
8.21774
20
10.2439
30
8.24
0
VERTEX
10
8.21505
20
10.2403
30
8.24
0
VERTEX
10
8.21326
20
10.2386
30
8.24
0
VERTEX
10
8.21326
20
10.235
30
8.24
0
VERTEX
10
8.19891
20
10.2323
30
8.24
0
VERTEX
10
8.19533
20
10.2305
30
8.24
0
VERTEX
10
8.18816
20
10.2296
30
8.24
0
VERTEX
10
8.18457
20
10.2269
30
8.24
0
VERTEX
10
8.18278
20
10.2251
30
8.24
0
VERTEX
10
8.18098
20
10.2251
30
8.24
0
VERTEX
10
8.17381
20
10.2188
30
8.24
0
VERTEX
10
8.17022
20
10.2126
30
8.24
0
VERTEX
10
8.16664
20
10.209
30
8.24
0
VERTEX
10
8.16305
20
10.2018
30
8.24
0
VERTEX
10
8.16216
20
10.1946
30
8.24
0
VERTEX
10
8.16036
20
10.1928
30
8.24
0
VERTEX
10
8.15947
20
10.1857
30
8.24
0
VERTEX
10
8.15409
20
10.1713
30
8.24
0
VERTEX
10
8.1514
20
10.1641
30
8.24
0
VERTEX
10
8.1505
20
10.1606
30
8.24
0
VERTEX
10
8.14871
20
10.1597
30
8.24
0
VERTEX
10
8.14602
20
10.1525
30
8.24
0
VERTEX
10
8.14602
20
10.1453
30
8.24
0
SEQEND
0
POLYLINE
62
227
66
1
70
1
3
endoplasmic_reticulum
0
VERTEX
10
8.11643
20
10.261
30
8.24
0
VERTEX
10
8.12002
20
10.2574
30
8.24
0
VERTEX
10
8.12181
20
10.2538
30
8.24
0
VERTEX
10
8.12181
20
10.2502
30
8.24
0
VERTEX
10
8.1236
20
10.2484
30
8.24
0
VERTEX
10
8.1245
20
10.2412
30
8.24
0
VERTEX
10
8.13257
20
10.2278
30
8.24
0
VERTEX
10
8.13885
20
10.2215
30
8.24
0
VERTEX
10
8.14064
20
10.2188
30
8.24
0
VERTEX
10
8.14422
20
10.217
30
8.24
0
VERTEX
10
8.14781
20
10.2179
30
8.24
0
VERTEX
10
8.16036
20
10.2296
30
8.24
0
VERTEX
10
8.16574
20
10.2439
30
8.24
0
VERTEX
10
8.1756
20
10.2556
30
8.24
0
VERTEX
10
8.17829
20
10.2583
30
8.24
0
VERTEX
10
8.17829
20
10.2601
30
8.24
0
VERTEX
10
8.18278
20
10.2663
30
8.24
0
VERTEX
10
8.18367
20
10.2735
30
8.24
0
VERTEX
10
8.18278
20
10.2807
30
8.24
0
VERTEX
10
8.18278
20
10.2825
30
8.24
0
VERTEX
10
8.16843
20
10.2968
30
8.24
0
VERTEX
10
8.16126
20
10.2968
30
8.24
0
VERTEX
10
8.15409
20
10.2932
30
8.24
0
VERTEX
10
8.1514
20
10.2861
30
8.24
0
VERTEX
10
8.13705
20
10.2852
30
8.24
0
VERTEX
10
8.13436
20
10.2825
30
8.24
0
VERTEX
10
8.12719
20
10.2825
30
8.24
0
VERTEX
10
8.1245
20
10.2798
30
8.24
0
VERTEX
10
8.12181
20
10.2735
30
8.24
0
VERTEX
10
8.12002
20
10.2699
30
8.24
0
VERTEX
10
8.11643
20
10.2663
30
8.24
0
VERTEX
10
8.11643
20
10.2628
30
8.24
0
VERTEX
10
8.11643
20
10.2619
30
8.24
0
SEQEND
0
POLYLINE
62
31
66
1
70
1
3
contour
0
VERTEX
10
7.60082
20
9.73654
30
8.24
0
VERTEX
10
7.60266
20
9.72185
30
8.24
0
VERTEX
10
7.60449
20
9.71451
30
8.24
0
VERTEX
10
7.61735
20
9.70532
30
8.24
0
VERTEX
10
7.61735
20
9.70165
30
8.24
0
VERTEX
10
7.62469
20
9.6943
30
8.24
0
VERTEX
10
7.62469
20
9.69063
30
8.24
0
VERTEX
10
7.6302
20
9.68329
30
8.24
0
VERTEX
10
7.64306
20
9.67594
30
8.24
0
VERTEX
10
7.70182
20
9.67043
30
8.24
0
VERTEX
10
7.71651
20
9.67043
30
8.24
0
VERTEX
10
7.7312
20
9.66309
30
8.24
0
VERTEX
10
7.74589
20
9.66125
30
8.24
0
VERTEX
10
7.74957
20
9.65758
30
8.24
0
VERTEX
10
7.75324
20
9.65758
30
8.24
0
VERTEX
10
7.75691
20
9.6539
30
8.24
0
VERTEX
10
7.7863
20
9.65207
30
8.24
0
VERTEX
10
7.81568
20
9.65574
30
8.24
0
VERTEX
10
7.83955
20
9.67961
30
8.24
0
VERTEX
10
7.84873
20
9.69063
30
8.24
0
VERTEX
10
7.85608
20
9.69614
30
8.24
0
VERTEX
10
7.85791
20
9.69798
30
8.24
0
VERTEX
10
7.85975
20
9.69614
30
8.24
0
VERTEX
10
7.86342
20
9.71083
30
8.24
0
VERTEX
10
7.86526
20
9.71818
30
8.24
0
VERTEX
10
7.8873
20
9.74205
30
8.24
0
VERTEX
10
7.89648
20
9.75674
30
8.24
0
VERTEX
10
7.90382
20
9.75858
30
8.24
0
VERTEX
10
7.9075
20
9.75674
30
8.24
0
VERTEX
10
7.90933
20
9.76409
30
8.24
0
VERTEX
10
7.90933
20
9.76776
30
8.24
0
VERTEX
10
7.93321
20
9.79531
30
8.24
0
VERTEX
10
7.94055
20
9.80082
30
8.24
0
VERTEX
10
7.94055
20
9.80449
30
8.24
0
VERTEX
10
7.94422
20
9.80449
30
8.24
0
VERTEX
10
7.95524
20
9.81918
30
8.24
0
VERTEX
10
7.98279
20
9.83938
30
8.24
0
VERTEX
10
7.98463
20
9.84305
30
8.24
0
VERTEX
10
7.99932
20
9.84856
30
8.24
0
VERTEX
10
8.02319
20
9.87243
30
8.24
0
VERTEX
10
8.05074
20
9.89631
30
8.24
0
VERTEX
10
8.05808
20
9.90365
30
8.24
0
VERTEX
10
8.06175
20
9.90733
30
8.24
0
VERTEX
10
8.0691
20
9.90916
30
8.24
0
VERTEX
10
8.07094
20
9.91284
30
8.24
0
VERTEX
10
8.07461
20
9.91284
30
8.24
0
VERTEX
10
8.08746
20
9.92753
30
8.24
0
VERTEX
10
8.09114
20
9.9312
30
8.24
0
VERTEX
10
8.09114
20
9.93487
30
8.24
0
VERTEX
10
8.09481
20
9.93487
30
8.24
0
VERTEX
10
8.09665
20
9.93854
30
8.24
0
VERTEX
10
8.10399
20
9.94038
30
8.24
0
VERTEX
10
8.10399
20
9.94405
30
8.24
0
VERTEX
10
8.11134
20
9.9514
30
8.24
0
VERTEX
10
8.12603
20
9.96058
30
8.24
0
VERTEX
10
8.1297
20
9.96058
30
8.24
0
VERTEX
10
8.13154
20
9.96425
30
8.24
0
VERTEX
10
8.13888
20
9.96609
30
8.24
0
VERTEX
10
8.14623
20
9.97344
30
8.24
0
VERTEX
10
8.17194
20
9.98996
30
8.24
0
VERTEX
10
8.18663
20
9.9918
30
8.24
0
VERTEX
10
8.19214
20
9.99915
30
8.24
0
VERTEX
10
8.22152
20
10.0083
30
8.24
0
VERTEX
10
8.23621
20
10.0065
30
8.24
0
VERTEX
10
8.24356
20
10.0065
30
8.24
0
VERTEX
10
8.24723
20
10.0102
30
8.24
0
VERTEX
10
8.25457
20
10.0102
30
8.24
0
VERTEX
10
8.25825
20
10.0083
30
8.24
0
VERTEX
10
8.27294
20
10.0157
30
8.24
0
VERTEX
10
8.27294
20
10.0193
30
8.24
0
VERTEX
10
8.28396
20
10.0322
30
8.24
0
VERTEX
10
8.28763
20
10.0395
30
8.24
0
VERTEX
10
8.28763
20
10.0542
30
8.24
0
VERTEX
10
8.30048
20
10.0818
30
8.24
0
VERTEX
10
8.30967
20
10.0965
30
8.24
0
VERTEX
10
8.30967
20
10.1001
30
8.24
0
VERTEX
10
8.31701
20
10.1057
30
8.24
0
VERTEX
10
8.32068
20
10.135
30
8.24
0
VERTEX
10
8.32068
20
10.1424
30
8.24
0
VERTEX
10
8.32436
20
10.1405
30
8.24
0
VERTEX
10
8.32619
20
10.1479
30
8.24
0
VERTEX
10
8.31518
20
10.2067
30
8.24
0
VERTEX
10
8.30967
20
10.2122
30
8.24
0
VERTEX
10
8.30967
20
10.2415
30
8.24
0
VERTEX
10
8.28947
20
10.2673
30
8.24
0
VERTEX
10
8.28028
20
10.2819
30
8.24
0
VERTEX
10
8.26927
20
10.293
30
8.24
0
VERTEX
10
8.26376
20
10.3003
30
8.24
0
VERTEX
10
8.25641
20
10.3022
30
8.24
0
VERTEX
10
8.25274
20
10.3095
30
8.24
0
VERTEX
10
8.23988
20
10.3224
30
8.24
0
VERTEX
10
8.2307
20
10.3315
30
8.24
0
VERTEX
10
8.22887
20
10.3389
30
8.24
0
VERTEX
10
8.21785
20
10.3536
30
8.24
0
VERTEX
10
8.21234
20
10.3609
30
8.24
0
VERTEX
10
8.19948
20
10.3701
30
8.24
0
VERTEX
10
8.19214
20
10.3738
30
8.24
0
VERTEX
10
8.18846
20
10.3738
30
8.24
0
VERTEX
10
8.17745
20
10.3866
30
8.24
0
VERTEX
10
8.17377
20
10.3921
30
8.24
0
VERTEX
10
8.14439
20
10.4087
30
8.24
0
VERTEX
10
8.13154
20
10.4215
30
8.24
0
VERTEX
10
8.1297
20
10.4289
30
8.24
0
VERTEX
10
8.12235
20
10.4325
30
8.24
0
VERTEX
10
8.11868
20
10.4307
30
8.24
0
VERTEX
10
8.09114
20
10.4472
30
8.24
0
VERTEX
10
8.07644
20
10.4491
30
8.24
0
VERTEX
10
8.0691
20
10.4527
30
8.24
0
VERTEX
10
8.05441
20
10.4546
30
8.24
0
VERTEX
10
8.0489
20
10.4601
30
8.24
0
VERTEX
10
8.04155
20
10.4601
30
8.24
0
VERTEX
10
8.03421
20
10.4564
30
8.24
0
VERTEX
10
7.97544
20
10.4582
30
8.24
0
VERTEX
10
7.96075
20
10.4582
30
8.24
0
VERTEX
10
7.9479
20
10.4674
30
8.24
0
VERTEX
10
7.91852
20
10.4748
30
8.24
0
VERTEX
10
7.90382
20
10.4821
30
8.24
0
VERTEX
10
7.89832
20
10.4895
30
8.24
0
VERTEX
10
7.89097
20
10.4913
30
8.24
0
VERTEX
10
7.88913
20
10.4986
30
8.24
0
VERTEX
10
7.88179
20
10.5005
30
8.24
0
VERTEX
10
7.87628
20
10.506
30
8.24
0
VERTEX
10
7.87995
20
10.5078
30
8.24
0
VERTEX
10
7.87811
20
10.5225
30
8.24
0
VERTEX
10
7.87995
20
10.5262
30
8.24
0
VERTEX
10
7.87628
20
10.5335
30
8.24
0
VERTEX
10
7.87628
20
10.5409
30
8.24
0
VERTEX
10
7.87077
20
10.5556
30
8.24
0
VERTEX
10
7.86893
20
10.5629
30
8.24
0
VERTEX
10
7.85975
20
10.5758
30
8.24
0
VERTEX
10
7.85241
20
10.5739
30
8.24
0
VERTEX
10
7.84873
20
10.5739
30
8.24
0
VERTEX
10
7.82486
20
10.5464
30
8.24
0
VERTEX
10
7.81017
20
10.5372
30
8.24
0
VERTEX
10
7.80282
20
10.5335
30
8.24
0
VERTEX
10
7.79731
20
10.5262
30
8.24
0
VERTEX
10
7.79364
20
10.5262
30
8.24
0
VERTEX
10
7.7863
20
10.5207
30
8.24
0
VERTEX
10
7.77895
20
10.5207
30
8.24
0
VERTEX
10
7.77344
20
10.5133
30
8.24
0
VERTEX
10
7.76793
20
10.4986
30
8.24
0
VERTEX
10
7.76426
20
10.4913
30
8.24
0
VERTEX
10
7.76426
20
10.4876
30
8.24
0
VERTEX
10
7.75324
20
10.4766
30
8.24
0
VERTEX
10
7.7514
20
10.4693
30
8.24
0
VERTEX
10
7.73855
20
10.4582
30
8.24
0
VERTEX
10
7.72019
20
10.4344
30
8.24
0
VERTEX
10
7.71468
20
10.427
30
8.24
0
VERTEX
10
7.71468
20
10.4234
30
8.24
0
VERTEX
10
7.70182
20
10.4123
30
8.24
0
VERTEX
10
7.69264
20
10.3995
30
8.24
0
VERTEX
10
7.6908
20
10.3921
30
8.24
0
VERTEX
10
7.67795
20
10.3793
30
8.24
0
VERTEX
10
7.6706
20
10.3738
30
8.24
0
VERTEX
10
7.66877
20
10.3664
30
8.24
0
VERTEX
10
7.64857
20
10.3407
30
8.24
0
VERTEX
10
7.64306
20
10.3113
30
8.24
0
VERTEX
10
7.64489
20
10.2819
30
8.24
0
VERTEX
10
7.64489
20
10.2673
30
8.24
0
VERTEX
10
7.65224
20
10.2379
30
8.24
0
VERTEX
10
7.66509
20
10.2085
30
8.24
0
VERTEX
10
7.6706
20
10.2011
30
8.24
0
VERTEX
10
7.67428
20
10.1865
30
8.24
0
VERTEX
10
7.67428
20
10.1571
30
8.24
0
VERTEX
10
7.67428
20
10.1497
30
8.24
0
VERTEX
10
7.67795
20
10.1424
30
8.24
0
VERTEX
10
7.68162
20
10.0836
30
8.24
0
VERTEX
10
7.68346
20
10.0542
30
8.24
0
VERTEX
10
7.67978
20
9.99547
30
8.24
0
VERTEX
10
7.67978
20
9.98078
30
8.24
0
VERTEX
10
7.67978
20
9.97344
30
8.24
0
VERTEX
10
7.67611
20
9.9716
30
8.24
0
VERTEX
10
7.67611
20
9.95691
30
8.24
0
VERTEX
10
7.67428
20
9.94956
30
8.24
0
VERTEX
10
7.66877
20
9.94222
30
8.24
0
VERTEX
10
7.66326
20
9.92753
30
8.24
0
VERTEX
10
7.65958
20
9.92385
30
8.24
0
VERTEX
10
7.65958
20
9.90916
30
8.24
0
VERTEX
10
7.65958
20
9.90182
30
8.24
0
VERTEX
10
7.65958
20
9.89814
30
8.24
0
VERTEX
10
7.66326
20
9.89447
30
8.24
0
VERTEX
10
7.65958
20
9.87978
30
8.24
0
VERTEX
10
7.65591
20
9.87243
30
8.24
0
VERTEX
10
7.65591
20
9.86509
30
8.24
0
VERTEX
10
7.6504
20
9.85958
30
8.24
0
VERTEX
10
7.64673
20
9.8302
30
8.24
0
VERTEX
10
7.64489
20
9.82285
30
8.24
0
VERTEX
10
7.63938
20
9.81734
30
8.24
0
VERTEX
10
7.63755
20
9.81
30
8.24
0
VERTEX
10
7.63755
20
9.80632
30
8.24
0
VERTEX
10
7.62653
20
9.79531
30
8.24
0
VERTEX
10
7.61184
20
9.78612
30
8.24
0
VERTEX
10
7.61184
20
9.78245
30
8.24
0
VERTEX
10
7.60817
20
9.77878
30
8.24
0
VERTEX
10
7.60817
20
9.77511
30
8.24
0
VERTEX
10
7.60266
20
9.76776
30
8.24
0
VERTEX
10
7.60082
20
9.73838
30
8.24
0
SEQEND
0
ENDSEC
0
EOF
