0
SECTION
2
ENTITIES
0
POLYLINE
62
31
66
1
70
1
3
contour
0
VERTEX
10
6.92365
20
10.7324
30
9.84
0
VERTEX
10
6.93112
20
10.7175
30
9.84
0
VERTEX
10
6.95723
20
10.6988
30
9.84
0
VERTEX
10
6.97961
20
10.6727
30
9.84
0
VERTEX
10
6.98707
20
10.6653
30
9.84
0
VERTEX
10
6.9908
20
10.6354
30
9.84
0
VERTEX
10
7.03557
20
10.5795
30
9.84
0
VERTEX
10
7.05049
20
10.5757
30
9.84
0
VERTEX
10
7.11018
20
10.5422
30
9.84
0
VERTEX
10
7.14002
20
10.5384
30
9.84
0
VERTEX
10
7.19971
20
10.5459
30
9.84
0
VERTEX
10
7.25939
20
10.5645
30
9.84
0
VERTEX
10
7.28924
20
10.5683
30
9.84
0
VERTEX
10
7.30416
20
10.5757
30
9.84
0
VERTEX
10
7.36384
20
10.5795
30
9.84
0
VERTEX
10
7.48322
20
10.5757
30
9.84
0
VERTEX
10
7.51306
20
10.5832
30
9.84
0
VERTEX
10
7.5429
20
10.5832
30
9.84
0
VERTEX
10
7.55036
20
10.5907
30
9.84
0
VERTEX
10
7.55783
20
10.5907
30
9.84
0
VERTEX
10
7.57275
20
10.6018
30
9.84
0
VERTEX
10
7.57648
20
10.6093
30
9.84
0
VERTEX
10
7.5914
20
10.613
30
9.84
0
VERTEX
10
7.61378
20
10.6392
30
9.84
0
VERTEX
10
7.6287
20
10.6503
30
9.84
0
VERTEX
10
7.63989
20
10.6802
30
9.84
0
VERTEX
10
7.64363
20
10.71
30
9.84
0
VERTEX
10
7.65482
20
10.7399
30
9.84
0
VERTEX
10
7.66228
20
10.7996
30
9.84
0
VERTEX
10
7.66601
20
10.8294
30
9.84
0
VERTEX
10
7.65482
20
10.8592
30
9.84
0
VERTEX
10
7.6287
20
10.8779
30
9.84
0
VERTEX
10
7.60632
20
10.9077
30
9.84
0
VERTEX
10
7.5914
20
10.9152
30
9.84
0
VERTEX
10
7.56529
20
10.9413
30
9.84
0
VERTEX
10
7.55783
20
10.9562
30
9.84
0
VERTEX
10
7.5429
20
10.96
30
9.84
0
VERTEX
10
7.53917
20
10.9674
30
9.84
0
VERTEX
10
7.47949
20
10.9861
30
9.84
0
VERTEX
10
7.44964
20
10.9935
30
9.84
0
VERTEX
10
7.38996
20
11.0197
30
9.84
0
VERTEX
10
7.37504
20
11.0234
30
9.84
0
VERTEX
10
7.3713
20
11.0308
30
9.84
0
VERTEX
10
7.34146
20
11.0346
30
9.84
0
VERTEX
10
7.31535
20
11.0607
30
9.84
0
VERTEX
10
7.30789
20
11.0607
30
9.84
0
VERTEX
10
7.28177
20
11.0905
30
9.84
0
VERTEX
10
7.25566
20
11.1129
30
9.84
0
VERTEX
10
7.24074
20
11.1241
30
9.84
0
VERTEX
10
7.22582
20
11.1278
30
9.84
0
VERTEX
10
7.21836
20
11.1353
30
9.84
0
VERTEX
10
7.09898
20
11.1278
30
9.84
0
VERTEX
10
7.09152
20
11.1241
30
9.84
0
VERTEX
10
7.08033
20
11.1316
30
9.84
0
VERTEX
10
7.05049
20
11.1166
30
9.84
0
VERTEX
10
7.04303
20
11.1092
30
9.84
0
VERTEX
10
7.04676
20
11.0943
30
9.84
0
VERTEX
10
7.03184
20
11.0644
30
9.84
0
VERTEX
10
7.02065
20
11.0532
30
9.84
0
VERTEX
10
7.01692
20
11.0234
30
9.84
0
VERTEX
10
6.98334
20
10.9674
30
9.84
0
VERTEX
10
6.97215
20
10.9562
30
9.84
0
VERTEX
10
6.97215
20
10.9264
30
9.84
0
VERTEX
10
6.96842
20
10.9115
30
9.84
0
VERTEX
10
6.95723
20
10.8965
30
9.84
0
VERTEX
10
6.94977
20
10.8891
30
9.84
0
VERTEX
10
6.94977
20
10.8294
30
9.84
0
VERTEX
10
6.94977
20
10.8145
30
9.84
0
VERTEX
10
6.94977
20
10.807
30
9.84
0
VERTEX
10
6.94231
20
10.7996
30
9.84
0
VERTEX
10
6.93485
20
10.7697
30
9.84
0
VERTEX
10
6.92365
20
10.7585
30
9.84
0
VERTEX
10
6.92365
20
10.7436
30
9.84
0
VERTEX
10
6.92365
20
10.7361
30
9.84
0
SEQEND
0
POLYLINE
62
224
66
1
70
1
3
mitochondrion
0
VERTEX
10
7.16767
20
10.7508
30
9.84
0
VERTEX
10
7.16906
20
10.7397
30
9.84
0
VERTEX
10
7.17323
20
10.7286
30
9.84
0
VERTEX
10
7.1774
20
10.723
30
9.84
0
VERTEX
10
7.18018
20
10.7119
30
9.84
0
VERTEX
10
7.18574
20
10.7063
30
9.84
0
VERTEX
10
7.18713
20
10.7035
30
9.84
0
VERTEX
10
7.18991
20
10.7035
30
9.84
0
VERTEX
10
7.19826
20
10.6938
30
9.84
0
VERTEX
10
7.20938
20
10.6855
30
9.84
0
VERTEX
10
7.21494
20
10.6813
30
9.84
0
VERTEX
10
7.22467
20
10.6771
30
9.84
0
VERTEX
10
7.2358
20
10.6702
30
9.84
0
VERTEX
10
7.24553
20
10.666
30
9.84
0
VERTEX
10
7.24831
20
10.6632
30
9.84
0
VERTEX
10
7.27056
20
10.6549
30
9.84
0
VERTEX
10
7.28168
20
10.6521
30
9.84
0
VERTEX
10
7.28446
20
10.6493
30
9.84
0
VERTEX
10
7.30671
20
10.6451
30
9.84
0
VERTEX
10
7.31227
20
10.641
30
9.84
0
VERTEX
10
7.35676
20
10.6396
30
9.84
0
VERTEX
10
7.37901
20
10.6396
30
9.84
0
VERTEX
10
7.39013
20
10.6424
30
9.84
0
VERTEX
10
7.3957
20
10.6424
30
9.84
0
VERTEX
10
7.40126
20
10.6451
30
9.84
0
VERTEX
10
7.40682
20
10.6451
30
9.84
0
VERTEX
10
7.4096
20
10.6451
30
9.84
0
VERTEX
10
7.42072
20
10.6521
30
9.84
0
VERTEX
10
7.42351
20
10.6549
30
9.84
0
VERTEX
10
7.4249
20
10.6771
30
9.84
0
VERTEX
10
7.42907
20
10.6882
30
9.84
0
VERTEX
10
7.43463
20
10.691
30
9.84
0
VERTEX
10
7.43602
20
10.6966
30
9.84
0
VERTEX
10
7.44019
20
10.7021
30
9.84
0
VERTEX
10
7.44575
20
10.7049
30
9.84
0
VERTEX
10
7.44575
20
10.7021
30
9.84
0
VERTEX
10
7.44853
20
10.7007
30
9.84
0
VERTEX
10
7.45409
20
10.7063
30
9.84
0
VERTEX
10
7.45966
20
10.7091
30
9.84
0
VERTEX
10
7.46383
20
10.7147
30
9.84
0
VERTEX
10
7.46522
20
10.7202
30
9.84
0
VERTEX
10
7.46939
20
10.7244
30
9.84
0
VERTEX
10
7.47356
20
10.7355
30
9.84
0
VERTEX
10
7.47217
20
10.78
30
9.84
0
VERTEX
10
7.47217
20
10.7856
30
9.84
0
VERTEX
10
7.47217
20
10.7883
30
9.84
0
VERTEX
10
7.46939
20
10.7911
30
9.84
0
VERTEX
10
7.468
20
10.7967
30
9.84
0
VERTEX
10
7.46105
20
10.8078
30
9.84
0
VERTEX
10
7.45688
20
10.8134
30
9.84
0
VERTEX
10
7.44575
20
10.8175
30
9.84
0
VERTEX
10
7.44019
20
10.8217
30
9.84
0
VERTEX
10
7.43463
20
10.8231
30
9.84
0
VERTEX
10
7.42907
20
10.8273
30
9.84
0
VERTEX
10
7.42629
20
10.8301
30
9.84
0
VERTEX
10
7.42351
20
10.8301
30
9.84
0
VERTEX
10
7.42211
20
10.8328
30
9.84
0
VERTEX
10
7.41099
20
10.8356
30
9.84
0
VERTEX
10
7.38874
20
10.8495
30
9.84
0
VERTEX
10
7.38318
20
10.8523
30
9.84
0
VERTEX
10
7.37345
20
10.862
30
9.84
0
VERTEX
10
7.3512
20
10.8746
30
9.84
0
VERTEX
10
7.34008
20
10.8787
30
9.84
0
VERTEX
10
7.33452
20
10.8815
30
9.84
0
VERTEX
10
7.32896
20
10.8815
30
9.84
0
VERTEX
10
7.31783
20
10.8857
30
9.84
0
VERTEX
10
7.31227
20
10.8829
30
9.84
0
VERTEX
10
7.30115
20
10.8829
30
9.84
0
VERTEX
10
7.29559
20
10.8829
30
9.84
0
VERTEX
10
7.29002
20
10.8801
30
9.84
0
VERTEX
10
7.26778
20
10.8773
30
9.84
0
VERTEX
10
7.26222
20
10.8773
30
9.84
0
VERTEX
10
7.25943
20
10.8746
30
9.84
0
VERTEX
10
7.23719
20
10.8704
30
9.84
0
VERTEX
10
7.22606
20
10.869
30
9.84
0
VERTEX
10
7.21494
20
10.8648
30
9.84
0
VERTEX
10
7.20382
20
10.8579
30
9.84
0
VERTEX
10
7.19408
20
10.8467
30
9.84
0
VERTEX
10
7.19408
20
10.844
30
9.84
0
VERTEX
10
7.1913
20
10.8412
30
9.84
0
VERTEX
10
7.18991
20
10.8356
30
9.84
0
VERTEX
10
7.18157
20
10.8259
30
9.84
0
VERTEX
10
7.1774
20
10.8217
30
9.84
0
VERTEX
10
7.18018
20
10.8203
30
9.84
0
VERTEX
10
7.18157
20
10.8217
30
9.84
0
VERTEX
10
7.1774
20
10.8106
30
9.84
0
VERTEX
10
7.17323
20
10.8064
30
9.84
0
VERTEX
10
7.17045
20
10.7953
30
9.84
0
VERTEX
10
7.16767
20
10.7925
30
9.84
0
VERTEX
10
7.16767
20
10.7703
30
9.84
0
VERTEX
10
7.16767
20
10.7591
30
9.84
0
VERTEX
10
7.16767
20
10.7536
30
9.84
0
VERTEX
10
7.16767
20
10.7522
30
9.84
0
SEQEND
0
POLYLINE
62
227
66
1
70
1
3
endoplasmic_reticulum
0
VERTEX
10
7.46913
20
10.6133
30
9.84
0
VERTEX
10
7.47361
20
10.607
30
9.84
0
VERTEX
10
7.47719
20
10.6043
30
9.84
0
VERTEX
10
7.49154
20
10.6052
30
9.84
0
VERTEX
10
7.49871
20
10.6061
30
9.84
0
VERTEX
10
7.5005
20
10.6061
30
9.84
0
VERTEX
10
7.5023
20
10.6079
30
9.84
0
VERTEX
10
7.50588
20
10.6088
30
9.84
0
VERTEX
10
7.51754
20
10.6205
30
9.84
0
VERTEX
10
7.51844
20
10.6241
30
9.84
0
VERTEX
10
7.52113
20
10.6277
30
9.84
0
VERTEX
10
7.52023
20
10.642
30
9.84
0
VERTEX
10
7.51754
20
10.6456
30
9.84
0
VERTEX
10
7.51037
20
10.6492
30
9.84
0
VERTEX
10
7.50678
20
10.651
30
9.84
0
VERTEX
10
7.49244
20
10.6519
30
9.84
0
VERTEX
10
7.48526
20
10.6519
30
9.84
0
VERTEX
10
7.48347
20
10.6528
30
9.84
0
VERTEX
10
7.47899
20
10.6465
30
9.84
0
VERTEX
10
7.4763
20
10.6393
30
9.84
0
VERTEX
10
7.4745
20
10.6357
30
9.84
0
VERTEX
10
7.4745
20
10.6321
30
9.84
0
VERTEX
10
7.46913
20
10.6178
30
9.84
0
VERTEX
10
7.46913
20
10.6142
30
9.84
0
SEQEND
0
POLYLINE
62
227
66
1
70
1
3
endoplasmic_reticulum
0
VERTEX
10
7.08361
20
10.7326
30
9.84
0
VERTEX
10
7.08451
20
10.7254
30
9.84
0
VERTEX
10
7.08451
20
10.7218
30
9.84
0
VERTEX
10
7.0863
20
10.7182
30
9.84
0
VERTEX
10
7.08989
20
10.7164
30
9.84
0
VERTEX
10
7.09706
20
10.7173
30
9.84
0
VERTEX
10
7.10423
20
10.72
30
9.84
0
VERTEX
10
7.1114
20
10.7209
30
9.84
0
VERTEX
10
7.11858
20
10.7263
30
9.84
0
VERTEX
10
7.12396
20
10.7317
30
9.84
0
VERTEX
10
7.12575
20
10.7317
30
9.84
0
VERTEX
10
7.13292
20
10.737
30
9.84
0
VERTEX
10
7.13651
20
10.7397
30
9.84
0
VERTEX
10
7.1383
20
10.7433
30
9.84
0
VERTEX
10
7.14458
20
10.7487
30
9.84
0
VERTEX
10
7.14727
20
10.7514
30
9.84
0
VERTEX
10
7.14906
20
10.7586
30
9.84
0
VERTEX
10
7.14727
20
10.7657
30
9.84
0
VERTEX
10
7.14099
20
10.772
30
9.84
0
VERTEX
10
7.1392
20
10.772
30
9.84
0
VERTEX
10
7.12575
20
10.781
30
9.84
0
VERTEX
10
7.12216
20
10.7828
30
9.84
0
VERTEX
10
7.10782
20
10.7828
30
9.84
0
VERTEX
10
7.10423
20
10.7828
30
9.84
0
VERTEX
10
7.10065
20
10.781
30
9.84
0
VERTEX
10
7.09885
20
10.7792
30
9.84
0
VERTEX
10
7.09885
20
10.7756
30
9.84
0
VERTEX
10
7.09527
20
10.7729
30
9.84
0
VERTEX
10
7.09347
20
10.7729
30
9.84
0
VERTEX
10
7.08809
20
10.7666
30
9.84
0
VERTEX
10
7.0854
20
10.7603
30
9.84
0
VERTEX
10
7.08361
20
10.746
30
9.84
0
VERTEX
10
7.08361
20
10.7388
30
9.84
0
VERTEX
10
7.08361
20
10.7352
30
9.84
0
VERTEX
10
7.08361
20
10.7335
30
9.84
0
SEQEND
0
POLYLINE
62
227
66
1
70
1
3
endoplasmic_reticulum
0
VERTEX
10
7.01368
20
10.7666
30
9.84
0
VERTEX
10
7.01547
20
10.7594
30
9.84
0
VERTEX
10
7.01727
20
10.7577
30
9.84
0
VERTEX
10
7.01727
20
10.7559
30
9.84
0
VERTEX
10
7.02444
20
10.7487
30
9.84
0
VERTEX
10
7.02802
20
10.7478
30
9.84
0
VERTEX
10
7.0352
20
10.7487
30
9.84
0
VERTEX
10
7.03609
20
10.7469
30
9.84
0
VERTEX
10
7.04237
20
10.7523
30
9.84
0
VERTEX
10
7.04506
20
10.7559
30
9.84
0
VERTEX
10
7.05223
20
10.7559
30
9.84
0
VERTEX
10
7.05313
20
10.7568
30
9.84
0
VERTEX
10
7.05492
20
10.7559
30
9.84
0
VERTEX
10
7.0603
20
10.7621
30
9.84
0
VERTEX
10
7.0863
20
10.781
30
9.84
0
VERTEX
10
7.09347
20
10.7819
30
9.84
0
VERTEX
10
7.09616
20
10.7854
30
9.84
0
VERTEX
10
7.09706
20
10.7926
30
9.84
0
VERTEX
10
7.09706
20
10.7962
30
9.84
0
VERTEX
10
7.09168
20
10.8034
30
9.84
0
VERTEX
10
7.09168
20
10.8052
30
9.84
0
VERTEX
10
7.0863
20
10.8123
30
9.84
0
VERTEX
10
7.08451
20
10.8132
30
9.84
0
VERTEX
10
7.08361
20
10.8168
30
9.84
0
VERTEX
10
7.07644
20
10.8231
30
9.84
0
VERTEX
10
7.06478
20
10.8348
30
9.84
0
VERTEX
10
7.05044
20
10.8366
30
9.84
0
VERTEX
10
7.04327
20
10.8366
30
9.84
0
VERTEX
10
7.03699
20
10.8321
30
9.84
0
VERTEX
10
7.03071
20
10.8258
30
9.84
0
VERTEX
10
7.03071
20
10.824
30
9.84
0
VERTEX
10
7.02444
20
10.8177
30
9.84
0
VERTEX
10
7.02354
20
10.8141
30
9.84
0
VERTEX
10
7.01816
20
10.8079
30
9.84
0
VERTEX
10
7.01547
20
10.8007
30
9.84
0
VERTEX
10
7.01547
20
10.7971
30
9.84
0
VERTEX
10
7.01368
20
10.7935
30
9.84
0
VERTEX
10
7.01458
20
10.7792
30
9.84
0
VERTEX
10
7.01368
20
10.772
30
9.84
0
VERTEX
10
7.01368
20
10.7684
30
9.84
0
VERTEX
10
7.01368
20
10.7675
30
9.84
0
SEQEND
0
POLYLINE
62
227
66
1
70
1
3
endoplasmic_reticulum
0
VERTEX
10
7.14906
20
10.6214
30
9.84
0
VERTEX
10
7.15085
20
10.6178
30
9.84
0
VERTEX
10
7.1652
20
10.6187
30
9.84
0
VERTEX
10
7.16878
20
10.6187
30
9.84
0
VERTEX
10
7.17506
20
10.6214
30
9.84
0
VERTEX
10
7.17864
20
10.6223
30
9.84
0
VERTEX
10
7.18492
20
10.6277
30
9.84
0
VERTEX
10
7.18492
20
10.6295
30
9.84
0
VERTEX
10
7.18671
20
10.6303
30
9.84
0
VERTEX
10
7.18671
20
10.6375
30
9.84
0
VERTEX
10
7.18582
20
10.6411
30
9.84
0
VERTEX
10
7.18582
20
10.6429
30
9.84
0
VERTEX
10
7.17864
20
10.6465
30
9.84
0
VERTEX
10
7.17506
20
10.6483
30
9.84
0
VERTEX
10
7.16071
20
10.6492
30
9.84
0
VERTEX
10
7.15892
20
10.6492
30
9.84
0
VERTEX
10
7.15085
20
10.6357
30
9.84
0
VERTEX
10
7.15085
20
10.6321
30
9.84
0
VERTEX
10
7.14906
20
10.6303
30
9.84
0
VERTEX
10
7.14906
20
10.6232
30
9.84
0
VERTEX
10
7.14906
20
10.6223
30
9.84
0
SEQEND
0
ENDSEC
0
EOF
