0
SECTION
2
ENTITIES
0
POLYLINE
62
31
66
1
70
1
3
contour
0
VERTEX
10
9.48593
20
8.28633
30
3.88
0
VERTEX
10
9.49923
20
8.25085
30
3.88
0
VERTEX
10
9.50588
20
8.23311
30
3.88
0
VERTEX
10
9.51032
20
8.22868
30
3.88
0
VERTEX
10
9.51254
20
8.21981
30
3.88
0
VERTEX
10
9.53693
20
8.18655
30
3.88
0
VERTEX
10
9.5458
20
8.17989
30
3.88
0
VERTEX
10
9.55023
20
8.17989
30
3.88
0
VERTEX
10
9.55467
20
8.17546
30
3.88
0
VERTEX
10
9.5724
20
8.17102
30
3.88
0
VERTEX
10
9.58127
20
8.16437
30
3.88
0
VERTEX
10
9.61675
20
8.1555
30
3.88
0
VERTEX
10
9.62562
20
8.15328
30
3.88
0
VERTEX
10
9.63006
20
8.15328
30
3.88
0
VERTEX
10
9.63671
20
8.14663
30
3.88
0
VERTEX
10
9.67219
20
8.13998
30
3.88
0
VERTEX
10
9.68993
20
8.13998
30
3.88
0
VERTEX
10
9.70766
20
8.13555
30
3.88
0
VERTEX
10
9.74314
20
8.13555
30
3.88
0
VERTEX
10
9.74758
20
8.13555
30
3.88
0
VERTEX
10
9.75201
20
8.13111
30
3.88
0
VERTEX
10
9.82297
20
8.12002
30
3.88
0
VERTEX
10
9.85845
20
8.10672
30
3.88
0
VERTEX
10
9.86732
20
8.10672
30
3.88
0
VERTEX
10
9.87175
20
8.10229
30
3.88
0
VERTEX
10
9.90723
20
8.09563
30
3.88
0
VERTEX
10
9.92497
20
8.08676
30
3.88
0
VERTEX
10
9.93384
20
8.08233
30
3.88
0
VERTEX
10
9.95158
20
8.08011
30
3.88
0
VERTEX
10
9.9671
20
8.06902
30
3.88
0
VERTEX
10
9.98484
20
8.06237
30
3.88
0
VERTEX
10
9.98927
20
8.05794
30
3.88
0
VERTEX
10
10.0247
20
8.04685
30
3.88
0
VERTEX
10
10.0602
20
8.04907
30
3.88
0
VERTEX
10
10.0691
20
8.05129
30
3.88
0
VERTEX
10
10.0979
20
8.07789
30
3.88
0
VERTEX
10
10.1046
20
8.08676
30
3.88
0
VERTEX
10
10.1046
20
8.0912
30
3.88
0
VERTEX
10
10.1179
20
8.10894
30
3.88
0
VERTEX
10
10.1223
20
8.11781
30
3.88
0
VERTEX
10
10.1312
20
8.12668
30
3.88
0
VERTEX
10
10.1378
20
8.13111
30
3.88
0
VERTEX
10
10.1534
20
8.14663
30
3.88
0
VERTEX
10
10.1711
20
8.15107
30
3.88
0
VERTEX
10
10.1844
20
8.16881
30
3.88
0
VERTEX
10
10.1999
20
8.17989
30
3.88
0
VERTEX
10
10.2044
20
8.18876
30
3.88
0
VERTEX
10
10.2044
20
8.1932
30
3.88
0
VERTEX
10
10.211
20
8.20207
30
3.88
0
VERTEX
10
10.2132
20
8.21094
30
3.88
0
VERTEX
10
10.2199
20
8.21981
30
3.88
0
VERTEX
10
10.2199
20
8.25528
30
3.88
0
VERTEX
10
10.2199
20
8.27302
30
3.88
0
VERTEX
10
10.2132
20
8.29076
30
3.88
0
VERTEX
10
10.2132
20
8.3085
30
3.88
0
VERTEX
10
10.211
20
8.31737
30
3.88
0
VERTEX
10
10.211
20
8.32181
30
3.88
0
VERTEX
10
10.2066
20
8.32624
30
3.88
0
VERTEX
10
10.2021
20
8.36172
30
3.88
0
VERTEX
10
10.1822
20
8.3972
30
3.88
0
VERTEX
10
10.1822
20
8.40163
30
3.88
0
VERTEX
10
10.1733
20
8.4105
30
3.88
0
VERTEX
10
10.1733
20
8.41494
30
3.88
0
VERTEX
10
10.1511
20
8.4482
30
3.88
0
VERTEX
10
10.1445
20
8.46372
30
3.88
0
VERTEX
10
10.1157
20
8.49698
30
3.88
0
VERTEX
10
10.1001
20
8.5125
30
3.88
0
VERTEX
10
10.0691
20
8.53246
30
3.88
0
VERTEX
10
10.0514
20
8.54798
30
3.88
0
VERTEX
10
10.0469
20
8.54798
30
3.88
0
VERTEX
10
10.0381
20
8.55463
30
3.88
0
VERTEX
10
10.0203
20
8.55685
30
3.88
0
VERTEX
10
10.0114
20
8.56128
30
3.88
0
VERTEX
10
10.007
20
8.56572
30
3.88
0
VERTEX
10
9.98927
20
8.56572
30
3.88
0
VERTEX
10
9.97153
20
8.5768
30
3.88
0
VERTEX
10
9.93605
20
8.58789
30
3.88
0
VERTEX
10
9.91831
20
8.59454
30
3.88
0
VERTEX
10
9.91388
20
8.59898
30
3.88
0
VERTEX
10
9.89614
20
8.60119
30
3.88
0
VERTEX
10
9.82519
20
8.62115
30
3.88
0
VERTEX
10
9.75423
20
8.61893
30
3.88
0
VERTEX
10
9.71875
20
8.6145
30
3.88
0
VERTEX
10
9.70101
20
8.61228
30
3.88
0
VERTEX
10
9.68327
20
8.60563
30
3.88
0
VERTEX
10
9.66553
20
8.59454
30
3.88
0
VERTEX
10
9.6611
20
8.59011
30
3.88
0
VERTEX
10
9.65223
20
8.58789
30
3.88
0
VERTEX
10
9.64558
20
8.58124
30
3.88
0
VERTEX
10
9.6101
20
8.57459
30
3.88
0
VERTEX
10
9.59236
20
8.56572
30
3.88
0
VERTEX
10
9.57462
20
8.55241
30
3.88
0
VERTEX
10
9.57019
20
8.55241
30
3.88
0
VERTEX
10
9.55245
20
8.53911
30
3.88
0
VERTEX
10
9.51254
20
8.47037
30
3.88
0
VERTEX
10
9.50145
20
8.45485
30
3.88
0
VERTEX
10
9.49923
20
8.44598
30
3.88
0
VERTEX
10
9.4948
20
8.44154
30
3.88
0
VERTEX
10
9.4948
20
8.4238
30
3.88
0
VERTEX
10
9.49036
20
8.40607
30
3.88
0
VERTEX
10
9.48593
20
8.3972
30
3.88
0
VERTEX
10
9.48593
20
8.32624
30
3.88
0
VERTEX
10
9.48593
20
8.29076
30
3.88
0
VERTEX
10
9.48593
20
8.28854
30
3.88
0
SEQEND
0
POLYLINE
62
31
66
1
70
1
3
contour
0
VERTEX
10
7.7339
20
8.75495
30
3.88
0
VERTEX
10
7.73933
20
8.74409
30
3.88
0
VERTEX
10
7.73933
20
8.73866
30
3.88
0
VERTEX
10
7.75562
20
8.71965
30
3.88
0
VERTEX
10
7.77735
20
8.70064
30
3.88
0
VERTEX
10
7.79907
20
8.69249
30
3.88
0
VERTEX
10
7.80994
20
8.68706
30
3.88
0
VERTEX
10
7.81537
20
8.68706
30
3.88
0
VERTEX
10
7.82623
20
8.67891
30
3.88
0
VERTEX
10
7.83709
20
8.6762
30
3.88
0
VERTEX
10
7.83709
20
8.67077
30
3.88
0
VERTEX
10
7.85882
20
8.65719
30
3.88
0
VERTEX
10
7.86968
20
8.65719
30
3.88
0
VERTEX
10
7.88054
20
8.64904
30
3.88
0
VERTEX
10
7.88597
20
8.64361
30
3.88
0
VERTEX
10
7.9077
20
8.63546
30
3.88
0
VERTEX
10
7.95114
20
8.63275
30
3.88
0
VERTEX
10
7.95658
20
8.63818
30
3.88
0
VERTEX
10
7.96201
20
8.63818
30
3.88
0
VERTEX
10
7.9783
20
8.65176
30
3.88
0
VERTEX
10
7.98373
20
8.65176
30
3.88
0
VERTEX
10
7.98645
20
8.66262
30
3.88
0
VERTEX
10
7.98373
20
8.70607
30
3.88
0
VERTEX
10
7.98645
20
8.72779
30
3.88
0
VERTEX
10
7.98373
20
8.74952
30
3.88
0
VERTEX
10
7.97558
20
8.77124
30
3.88
0
VERTEX
10
7.93485
20
8.80383
30
3.88
0
VERTEX
10
7.91313
20
8.81469
30
3.88
0
VERTEX
10
7.89412
20
8.83098
30
3.88
0
VERTEX
10
7.88869
20
8.83098
30
3.88
0
VERTEX
10
7.87782
20
8.84185
30
3.88
0
VERTEX
10
7.86696
20
8.84456
30
3.88
0
VERTEX
10
7.84524
20
8.86086
30
3.88
0
VERTEX
10
7.83709
20
8.87172
30
3.88
0
VERTEX
10
7.81537
20
8.87443
30
3.88
0
VERTEX
10
7.8045
20
8.87172
30
3.88
0
VERTEX
10
7.79907
20
8.869
30
3.88
0
VERTEX
10
7.79907
20
8.86357
30
3.88
0
VERTEX
10
7.77735
20
8.85542
30
3.88
0
VERTEX
10
7.75834
20
8.83642
30
3.88
0
VERTEX
10
7.74748
20
8.82555
30
3.88
0
VERTEX
10
7.74748
20
8.82012
30
3.88
0
VERTEX
10
7.73933
20
8.80654
30
3.88
0
VERTEX
10
7.7339
20
8.80111
30
3.88
0
VERTEX
10
7.7339
20
8.75766
30
3.88
0
SEQEND
0
POLYLINE
62
224
66
1
70
1
3
mitochondrion
0
VERTEX
10
9.7928
20
8.3829
30
3.88
0
VERTEX
10
9.79419
20
8.36066
30
3.88
0
VERTEX
10
9.79558
20
8.35509
30
3.88
0
VERTEX
10
9.79975
20
8.34953
30
3.88
0
VERTEX
10
9.80114
20
8.34397
30
3.88
0
VERTEX
10
9.80531
20
8.3398
30
3.88
0
VERTEX
10
9.80948
20
8.33007
30
3.88
0
VERTEX
10
9.81226
20
8.3245
30
3.88
0
VERTEX
10
9.81226
20
8.32172
30
3.88
0
VERTEX
10
9.81644
20
8.31616
30
3.88
0
VERTEX
10
9.81783
20
8.3106
30
3.88
0
VERTEX
10
9.822
20
8.30504
30
3.88
0
VERTEX
10
9.82339
20
8.29948
30
3.88
0
VERTEX
10
9.82617
20
8.29809
30
3.88
0
VERTEX
10
9.82617
20
8.2953
30
3.88
0
VERTEX
10
9.84007
20
8.27445
30
3.88
0
VERTEX
10
9.84285
20
8.26889
30
3.88
0
VERTEX
10
9.84563
20
8.2675
30
3.88
0
VERTEX
10
9.84563
20
8.26472
30
3.88
0
VERTEX
10
9.84007
20
8.26332
30
3.88
0
VERTEX
10
9.84702
20
8.25359
30
3.88
0
VERTEX
10
9.8512
20
8.24803
30
3.88
0
VERTEX
10
9.85676
20
8.24525
30
3.88
0
VERTEX
10
9.86371
20
8.23552
30
3.88
0
VERTEX
10
9.87483
20
8.22717
30
3.88
0
VERTEX
10
9.88039
20
8.22717
30
3.88
0
VERTEX
10
9.89152
20
8.21883
30
3.88
0
VERTEX
10
9.89986
20
8.2091
30
3.88
0
VERTEX
10
9.90264
20
8.20771
30
3.88
0
VERTEX
10
9.90403
20
8.20215
30
3.88
0
VERTEX
10
9.92489
20
8.18824
30
3.88
0
VERTEX
10
9.93045
20
8.18685
30
3.88
0
VERTEX
10
9.93462
20
8.18268
30
3.88
0
VERTEX
10
9.95409
20
8.17295
30
3.88
0
VERTEX
10
9.95965
20
8.17156
30
3.88
0
VERTEX
10
9.96521
20
8.16739
30
3.88
0
VERTEX
10
9.98746
20
8.16321
30
3.88
0
VERTEX
10
10.0097
20
8.16321
30
3.88
0
VERTEX
10
10.0153
20
8.16321
30
3.88
0
VERTEX
10
10.0208
20
8.16599
30
3.88
0
VERTEX
10
10.0264
20
8.16599
30
3.88
0
VERTEX
10
10.0472
20
8.17851
30
3.88
0
VERTEX
10
10.05
20
8.18129
30
3.88
0
VERTEX
10
10.05
20
8.18407
30
3.88
0
VERTEX
10
10.0598
20
8.19241
30
3.88
0
VERTEX
10
10.0653
20
8.19797
30
3.88
0
VERTEX
10
10.0723
20
8.20771
30
3.88
0
VERTEX
10
10.0751
20
8.20771
30
3.88
0
VERTEX
10
10.0848
20
8.21883
30
3.88
0
VERTEX
10
10.0917
20
8.22995
30
3.88
0
VERTEX
10
10.0945
20
8.23135
30
3.88
0
VERTEX
10
10.0945
20
8.23413
30
3.88
0
VERTEX
10
10.1029
20
8.24525
30
3.88
0
VERTEX
10
10.1126
20
8.2675
30
3.88
0
VERTEX
10
10.1195
20
8.28974
30
3.88
0
VERTEX
10
10.1223
20
8.2953
30
3.88
0
VERTEX
10
10.1223
20
8.30643
30
3.88
0
VERTEX
10
10.1223
20
8.31199
30
3.88
0
VERTEX
10
10.1195
20
8.31755
30
3.88
0
VERTEX
10
10.1195
20
8.32868
30
3.88
0
VERTEX
10
10.1168
20
8.3398
30
3.88
0
VERTEX
10
10.1126
20
8.34536
30
3.88
0
VERTEX
10
10.1112
20
8.35648
30
3.88
0
VERTEX
10
10.1112
20
8.36205
30
3.88
0
VERTEX
10
10.1043
20
8.38429
30
3.88
0
VERTEX
10
10.1001
20
8.38985
30
3.88
0
VERTEX
10
10.0945
20
8.4121
30
3.88
0
VERTEX
10
10.0848
20
8.41905
30
3.88
0
VERTEX
10
10.0778
20
8.43018
30
3.88
0
VERTEX
10
10.0667
20
8.43713
30
3.88
0
VERTEX
10
10.0639
20
8.43991
30
3.88
0
VERTEX
10
10.0612
20
8.43991
30
3.88
0
VERTEX
10
10.0528
20
8.44825
30
3.88
0
VERTEX
10
10.0472
20
8.45242
30
3.88
0
VERTEX
10
10.0417
20
8.45381
30
3.88
0
VERTEX
10
10.0306
20
8.46355
30
3.88
0
VERTEX
10
10.0083
20
8.47745
30
3.88
0
VERTEX
10
9.98746
20
8.49692
30
3.88
0
VERTEX
10
9.9666
20
8.51221
30
3.88
0
VERTEX
10
9.96243
20
8.51638
30
3.88
0
VERTEX
10
9.91794
20
8.51638
30
3.88
0
VERTEX
10
9.89569
20
8.51499
30
3.88
0
VERTEX
10
9.87344
20
8.4997
30
3.88
0
VERTEX
10
9.86232
20
8.49136
30
3.88
0
VERTEX
10
9.85676
20
8.48857
30
3.88
0
VERTEX
10
9.85398
20
8.48857
30
3.88
0
VERTEX
10
9.84842
20
8.4844
30
3.88
0
VERTEX
10
9.84285
20
8.48301
30
3.88
0
VERTEX
10
9.84007
20
8.48023
30
3.88
0
VERTEX
10
9.83451
20
8.47884
30
3.88
0
VERTEX
10
9.82617
20
8.46772
30
3.88
0
VERTEX
10
9.81644
20
8.45938
30
3.88
0
VERTEX
10
9.8067
20
8.44825
30
3.88
0
VERTEX
10
9.79975
20
8.43713
30
3.88
0
VERTEX
10
9.79975
20
8.42601
30
3.88
0
VERTEX
10
9.79697
20
8.42461
30
3.88
0
VERTEX
10
9.79419
20
8.40237
30
3.88
0
VERTEX
10
9.7928
20
8.39124
30
3.88
0
VERTEX
10
9.7928
20
8.38568
30
3.88
0
VERTEX
10
9.7928
20
8.38429
30
3.88
0
SEQEND
0
POLYLINE
62
227
66
1
70
1
3
endoplasmic_reticulum
0
VERTEX
10
9.71835
20
8.29693
30
3.88
0
VERTEX
10
9.72292
20
8.29084
30
3.88
0
VERTEX
10
9.73511
20
8.28932
30
3.88
0
VERTEX
10
9.7473
20
8.29236
30
3.88
0
VERTEX
10
9.75339
20
8.29389
30
3.88
0
VERTEX
10
9.75644
20
8.29389
30
3.88
0
VERTEX
10
9.75949
20
8.29693
30
3.88
0
VERTEX
10
9.76253
20
8.29693
30
3.88
0
VERTEX
10
9.76863
20
8.30151
30
3.88
0
VERTEX
10
9.7671
20
8.32588
30
3.88
0
VERTEX
10
9.76558
20
8.33197
30
3.88
0
VERTEX
10
9.7412
20
8.33807
30
3.88
0
VERTEX
10
9.73663
20
8.33959
30
3.88
0
VERTEX
10
9.73511
20
8.34112
30
3.88
0
VERTEX
10
9.73206
20
8.33807
30
3.88
0
VERTEX
10
9.72597
20
8.33655
30
3.88
0
VERTEX
10
9.7214
20
8.33045
30
3.88
0
VERTEX
10
9.7214
20
8.32436
30
3.88
0
VERTEX
10
9.71835
20
8.32131
30
3.88
0
VERTEX
10
9.71835
20
8.29846
30
3.88
0
SEQEND
0
POLYLINE
62
227
66
1
70
1
3
endoplasmic_reticulum
0
VERTEX
10
9.98953
20
8.11259
30
3.88
0
VERTEX
10
9.99563
20
8.1004
30
3.88
0
VERTEX
10
10.0002
20
8.09583
30
3.88
0
VERTEX
10
10.0124
20
8.09583
30
3.88
0
VERTEX
10
10.0246
20
8.09888
30
3.88
0
VERTEX
10
10.0307
20
8.09888
30
3.88
0
VERTEX
10
10.0337
20
8.09736
30
3.88
0
VERTEX
10
10.0459
20
8.10497
30
3.88
0
VERTEX
10
10.0444
20
8.11716
30
3.88
0
VERTEX
10
10.0444
20
8.12326
30
3.88
0
VERTEX
10
10.0368
20
8.13544
30
3.88
0
VERTEX
10
10.0246
20
8.14002
30
3.88
0
VERTEX
10
10.0185
20
8.14611
30
3.88
0
VERTEX
10
10.0124
20
8.14916
30
3.88
0
VERTEX
10
10.0093
20
8.14916
30
3.88
0
VERTEX
10
10.0063
20
8.14611
30
3.88
0
VERTEX
10
10.0032
20
8.14611
30
3.88
0
VERTEX
10
9.99867
20
8.14154
30
3.88
0
VERTEX
10
9.99563
20
8.14002
30
3.88
0
VERTEX
10
9.99563
20
8.13392
30
3.88
0
VERTEX
10
9.99106
20
8.12783
30
3.88
0
VERTEX
10
9.98953
20
8.11564
30
3.88
0
VERTEX
10
9.98953
20
8.11412
30
3.88
0
SEQEND
0
POLYLINE
62
227
66
1
70
1
3
endoplasmic_reticulum
0
VERTEX
10
9.70616
20
8.49956
30
3.88
0
VERTEX
10
9.70921
20
8.49651
30
3.88
0
VERTEX
10
9.70921
20
8.48432
30
3.88
0
VERTEX
10
9.71531
20
8.47214
30
3.88
0
VERTEX
10
9.7214
20
8.46909
30
3.88
0
VERTEX
10
9.72749
20
8.46909
30
3.88
0
VERTEX
10
9.73968
20
8.47518
30
3.88
0
VERTEX
10
9.74578
20
8.48737
30
3.88
0
VERTEX
10
9.75035
20
8.49194
30
3.88
0
VERTEX
10
9.75187
20
8.49804
30
3.88
0
VERTEX
10
9.75035
20
8.51022
30
3.88
0
VERTEX
10
9.75035
20
8.51632
30
3.88
0
VERTEX
10
9.75035
20
8.51936
30
3.88
0
VERTEX
10
9.72597
20
8.52393
30
3.88
0
VERTEX
10
9.71988
20
8.52241
30
3.88
0
VERTEX
10
9.71378
20
8.51784
30
3.88
0
VERTEX
10
9.71073
20
8.51632
30
3.88
0
VERTEX
10
9.70616
20
8.50413
30
3.88
0
VERTEX
10
9.70616
20
8.50108
30
3.88
0
SEQEND
0
ENDSEC
0
EOF
