0
SECTION
2
ENTITIES
0
POLYLINE
62
31
66
1
70
1
3
contour
0
VERTEX
10
7.7686
20
10.1957
30
7.68
0
VERTEX
10
7.77845
20
10.1908
30
7.68
0
VERTEX
10
7.77845
20
10.1514
30
7.68
0
VERTEX
10
7.7883
20
10.112
30
7.68
0
VERTEX
10
7.79814
20
10.1071
30
7.68
0
VERTEX
10
7.79814
20
10.0972
30
7.68
0
VERTEX
10
7.80799
20
10.0874
30
7.68
0
VERTEX
10
7.80799
20
10.0775
30
7.68
0
VERTEX
10
7.81783
20
10.0726
30
7.68
0
VERTEX
10
7.82768
20
9.99383
30
7.68
0
VERTEX
10
7.82768
20
9.91506
30
7.68
0
VERTEX
10
7.82768
20
9.87568
30
7.68
0
VERTEX
10
7.82768
20
9.85598
30
7.68
0
VERTEX
10
7.83753
20
9.83629
30
7.68
0
VERTEX
10
7.84245
20
9.79691
30
7.68
0
VERTEX
10
7.8523
20
9.78706
30
7.68
0
VERTEX
10
7.85722
20
9.76737
30
7.68
0
VERTEX
10
7.86706
20
9.75752
30
7.68
0
VERTEX
10
7.86706
20
9.74768
30
7.68
0
VERTEX
10
7.93599
20
9.67875
30
7.68
0
VERTEX
10
7.97045
20
9.66398
30
7.68
0
VERTEX
10
7.98029
20
9.66398
30
7.68
0
VERTEX
10
7.99014
20
9.65414
30
7.68
0
VERTEX
10
7.99999
20
9.65414
30
7.68
0
VERTEX
10
8.00983
20
9.64429
30
7.68
0
VERTEX
10
8.16737
20
9.63445
30
7.68
0
VERTEX
10
8.18706
20
9.6246
30
7.68
0
VERTEX
10
8.22645
20
9.62952
30
7.68
0
VERTEX
10
8.24614
20
9.62952
30
7.68
0
VERTEX
10
8.28553
20
9.65906
30
7.68
0
VERTEX
10
8.30029
20
9.66891
30
7.68
0
VERTEX
10
8.32983
20
9.70829
30
7.68
0
VERTEX
10
8.31999
20
9.86583
30
7.68
0
VERTEX
10
8.31014
20
9.9446
30
7.68
0
VERTEX
10
8.31014
20
9.96429
30
7.68
0
VERTEX
10
8.29537
20
9.98398
30
7.68
0
VERTEX
10
8.29537
20
9.99383
30
7.68
0
VERTEX
10
8.27076
20
10.0332
30
7.68
0
VERTEX
10
8.25599
20
10.048
30
7.68
0
VERTEX
10
8.25599
20
10.0874
30
7.68
0
VERTEX
10
8.27568
20
10.1661
30
7.68
0
VERTEX
10
8.28553
20
10.1858
30
7.68
0
VERTEX
10
8.29537
20
10.1957
30
7.68
0
VERTEX
10
8.29045
20
10.2744
30
7.68
0
VERTEX
10
8.26583
20
10.3089
30
7.68
0
VERTEX
10
8.25599
20
10.3237
30
7.68
0
VERTEX
10
8.24614
20
10.3286
30
7.68
0
VERTEX
10
8.24122
20
10.3483
30
7.68
0
VERTEX
10
8.22645
20
10.368
30
7.68
0
VERTEX
10
8.2166
20
10.3778
30
7.68
0
VERTEX
10
8.19691
20
10.3778
30
7.68
0
VERTEX
10
8.17722
20
10.3926
30
7.68
0
VERTEX
10
8.16737
20
10.4024
30
7.68
0
VERTEX
10
8.15753
20
10.4024
30
7.68
0
VERTEX
10
8.11814
20
10.4271
30
7.68
0
VERTEX
10
8.07876
20
10.4369
30
7.68
0
VERTEX
10
8.05906
20
10.4468
30
7.68
0
VERTEX
10
8.04922
20
10.4468
30
7.68
0
VERTEX
10
8.02953
20
10.4615
30
7.68
0
VERTEX
10
7.99014
20
10.4763
30
7.68
0
VERTEX
10
7.91137
20
10.4812
30
7.68
0
VERTEX
10
7.87199
20
10.4566
30
7.68
0
VERTEX
10
7.8523
20
10.4369
30
7.68
0
VERTEX
10
7.8326
20
10.4271
30
7.68
0
VERTEX
10
7.80306
20
10.3877
30
7.68
0
VERTEX
10
7.78337
20
10.3089
30
7.68
0
VERTEX
10
7.7686
20
10.2695
30
7.68
0
VERTEX
10
7.7686
20
10.2301
30
7.68
0
VERTEX
10
7.7686
20
10.2104
30
7.68
0
VERTEX
10
7.7686
20
10.2006
30
7.68
0
SEQEND
0
POLYLINE
62
31
66
1
70
1
3
contour
0
VERTEX
10
7.2115
20
8.92043
30
7.68
0
VERTEX
10
7.21941
20
8.88878
30
7.68
0
VERTEX
10
7.21941
20
8.85713
30
7.68
0
VERTEX
10
7.23524
20
8.82549
30
7.68
0
VERTEX
10
7.23919
20
8.76219
30
7.68
0
VERTEX
10
7.23919
20
8.74637
30
7.68
0
VERTEX
10
7.2471
20
8.73846
30
7.68
0
VERTEX
10
7.2471
20
8.73055
30
7.68
0
VERTEX
10
7.26293
20
8.71868
30
7.68
0
VERTEX
10
7.29457
20
8.71868
30
7.68
0
VERTEX
10
7.32622
20
8.73055
30
7.68
0
VERTEX
10
7.34204
20
8.7345
30
7.68
0
VERTEX
10
7.37369
20
8.75428
30
7.68
0
VERTEX
10
7.38951
20
8.78593
30
7.68
0
VERTEX
10
7.40534
20
8.80175
30
7.68
0
VERTEX
10
7.42512
20
8.86504
30
7.68
0
VERTEX
10
7.42907
20
8.89669
30
7.68
0
VERTEX
10
7.42512
20
8.95998
30
7.68
0
VERTEX
10
7.42116
20
8.99163
30
7.68
0
VERTEX
10
7.41721
20
9.00745
30
7.68
0
VERTEX
10
7.38556
20
9.02328
30
7.68
0
VERTEX
10
7.3816
20
9.03119
30
7.68
0
VERTEX
10
7.31831
20
9.03119
30
7.68
0
VERTEX
10
7.28666
20
9.0391
30
7.68
0
VERTEX
10
7.26293
20
9.01537
30
7.68
0
VERTEX
10
7.25502
20
9.01537
30
7.68
0
VERTEX
10
7.23919
20
9.0035
30
7.68
0
VERTEX
10
7.22337
20
8.97185
30
7.68
0
VERTEX
10
7.21546
20
8.95603
30
7.68
0
VERTEX
10
7.2115
20
8.92438
30
7.68
0
SEQEND
0
POLYLINE
62
224
66
1
70
1
3
mitochondrion
0
VERTEX
10
7.98107
20
9.89291
30
7.68
0
VERTEX
10
7.98385
20
9.87066
30
7.68
0
VERTEX
10
7.98802
20
9.85954
30
7.68
0
VERTEX
10
7.98941
20
9.84842
30
7.68
0
VERTEX
10
7.99358
20
9.83729
30
7.68
0
VERTEX
10
8.00053
20
9.82617
30
7.68
0
VERTEX
10
8.01027
20
9.81644
30
7.68
0
VERTEX
10
8.01722
20
9.80809
30
7.68
0
VERTEX
10
8.03668
20
9.78724
30
7.68
0
VERTEX
10
8.04503
20
9.7775
30
7.68
0
VERTEX
10
8.05615
20
9.76916
30
7.68
0
VERTEX
10
8.06171
20
9.76777
30
7.68
0
VERTEX
10
8.06449
20
9.76499
30
7.68
0
VERTEX
10
8.06727
20
9.76499
30
7.68
0
VERTEX
10
8.07145
20
9.75943
30
7.68
0
VERTEX
10
8.08257
20
9.75665
30
7.68
0
VERTEX
10
8.10482
20
9.76082
30
7.68
0
VERTEX
10
8.11594
20
9.76221
30
7.68
0
VERTEX
10
8.1215
20
9.76499
30
7.68
0
VERTEX
10
8.13262
20
9.76638
30
7.68
0
VERTEX
10
8.14236
20
9.77194
30
7.68
0
VERTEX
10
8.14514
20
9.77194
30
7.68
0
VERTEX
10
8.1507
20
9.7775
30
7.68
0
VERTEX
10
8.15348
20
9.78306
30
7.68
0
VERTEX
10
8.15904
20
9.78446
30
7.68
0
VERTEX
10
8.16739
20
9.79141
30
7.68
0
VERTEX
10
8.17851
20
9.79697
30
7.68
0
VERTEX
10
8.18546
20
9.8067
30
7.68
0
VERTEX
10
8.19658
20
9.81504
30
7.68
0
VERTEX
10
8.19797
20
9.82617
30
7.68
0
VERTEX
10
8.20215
20
9.83034
30
7.68
0
VERTEX
10
8.20354
20
9.84146
30
7.68
0
VERTEX
10
8.20771
20
9.84563
30
7.68
0
VERTEX
10
8.2091
20
9.86788
30
7.68
0
VERTEX
10
8.20632
20
9.89013
30
7.68
0
VERTEX
10
8.20632
20
9.89291
30
7.68
0
VERTEX
10
8.20354
20
9.89569
30
7.68
0
VERTEX
10
8.1938
20
9.91794
30
7.68
0
VERTEX
10
8.1799
20
9.94018
30
7.68
0
VERTEX
10
8.17712
20
9.94575
30
7.68
0
VERTEX
10
8.15765
20
9.96382
30
7.68
0
VERTEX
10
8.14931
20
9.97355
30
7.68
0
VERTEX
10
8.14375
20
9.97633
30
7.68
0
VERTEX
10
8.13401
20
9.98607
30
7.68
0
VERTEX
10
8.12289
20
9.99302
30
7.68
0
VERTEX
10
8.10343
20
10.0139
30
7.68
0
VERTEX
10
8.09786
20
10.018
30
7.68
0
VERTEX
10
8.08674
20
10.0222
30
7.68
0
VERTEX
10
8.08118
20
10.0236
30
7.68
0
VERTEX
10
8.0784
20
10.0264
30
7.68
0
VERTEX
10
8.05615
20
10.0264
30
7.68
0
VERTEX
10
8.04503
20
10.025
30
7.68
0
VERTEX
10
8.03947
20
10.025
30
7.68
0
VERTEX
10
8.02834
20
10.0208
30
7.68
0
VERTEX
10
8.02
20
10.0111
30
7.68
0
VERTEX
10
8.02
20
10.0055
30
7.68
0
VERTEX
10
8.01027
20
9.99719
30
7.68
0
VERTEX
10
8.00192
20
9.98607
30
7.68
0
VERTEX
10
7.99914
20
9.98329
30
7.68
0
VERTEX
10
7.99914
20
9.98051
30
7.68
0
VERTEX
10
7.99219
20
9.96938
30
7.68
0
VERTEX
10
7.98941
20
9.9666
30
7.68
0
VERTEX
10
7.98246
20
9.94435
30
7.68
0
VERTEX
10
7.98107
20
9.89986
30
7.68
0
VERTEX
10
7.98107
20
9.8943
30
7.68
0
SEQEND
0
POLYLINE
62
236
66
1
70
1
3
postsynaptic_density
0
VERTEX
10
7.17192
20
8.78435
30
7.68
0
VERTEX
10
7.17566
20
8.78061
30
7.68
0
VERTEX
10
7.17939
20
8.76568
30
7.68
0
VERTEX
10
7.18125
20
8.75822
30
7.68
0
VERTEX
10
7.18499
20
8.75449
30
7.68
0
VERTEX
10
7.21485
20
8.75635
30
7.68
0
VERTEX
10
7.22791
20
8.76568
30
7.68
0
VERTEX
10
7.23724
20
8.78061
30
7.68
0
VERTEX
10
7.23724
20
8.78808
30
7.68
0
VERTEX
10
7.24657
20
8.80114
30
7.68
0
VERTEX
10
7.24657
20
8.80488
30
7.68
0
VERTEX
10
7.25031
20
8.80674
30
7.68
0
VERTEX
10
7.25031
20
8.86646
30
7.68
0
VERTEX
10
7.25031
20
8.89632
30
7.68
0
VERTEX
10
7.24844
20
8.91125
30
7.68
0
VERTEX
10
7.24657
20
8.91872
30
7.68
0
VERTEX
10
7.24097
20
8.92618
30
7.68
0
VERTEX
10
7.23911
20
8.93365
30
7.68
0
VERTEX
10
7.21111
20
8.94671
30
7.68
0
VERTEX
10
7.19618
20
8.95044
30
7.68
0
VERTEX
10
7.18872
20
8.95044
30
7.68
0
VERTEX
10
7.18499
20
8.94857
30
7.68
0
VERTEX
10
7.17566
20
8.82914
30
7.68
0
VERTEX
10
7.17192
20
8.79928
30
7.68
0
VERTEX
10
7.17192
20
8.78621
30
7.68
0
SEQEND
0
POLYLINE
62
227
66
1
70
1
3
endoplasmic_reticulum
0
VERTEX
10
8.14871
20
10.148
30
7.68
0
VERTEX
10
8.1505
20
10.1408
30
7.68
0
VERTEX
10
8.1514
20
10.1372
30
7.68
0
VERTEX
10
8.15498
20
10.1337
30
7.68
0
VERTEX
10
8.16126
20
10.131
30
7.68
0
VERTEX
10
8.16843
20
10.131
30
7.68
0
VERTEX
10
8.18188
20
10.1372
30
7.68
0
VERTEX
10
8.18188
20
10.1408
30
7.68
0
VERTEX
10
8.18457
20
10.1444
30
7.68
0
VERTEX
10
8.18457
20
10.1462
30
7.68
0
VERTEX
10
8.18816
20
10.1489
30
7.68
0
VERTEX
10
8.18816
20
10.1561
30
7.68
0
VERTEX
10
8.18636
20
10.1579
30
7.68
0
VERTEX
10
8.18547
20
10.1615
30
7.68
0
VERTEX
10
8.18188
20
10.1632
30
7.68
0
VERTEX
10
8.17919
20
10.1668
30
7.68
0
VERTEX
10
8.17291
20
10.1704
30
7.68
0
VERTEX
10
8.16574
20
10.1713
30
7.68
0
VERTEX
10
8.15857
20
10.1704
30
7.68
0
VERTEX
10
8.15588
20
10.1668
30
7.68
0
VERTEX
10
8.15498
20
10.1632
30
7.68
0
VERTEX
10
8.1505
20
10.1588
30
7.68
0
VERTEX
10
8.1505
20
10.157
30
7.68
0
VERTEX
10
8.14871
20
10.1552
30
7.68
0
VERTEX
10
8.14871
20
10.1489
30
7.68
0
SEQEND
0
POLYLINE
62
227
66
1
70
1
3
endoplasmic_reticulum
0
VERTEX
10
8.01781
20
10.4098
30
7.68
0
VERTEX
10
8.0196
20
10.4062
30
7.68
0
VERTEX
10
8.0196
20
10.399
30
7.68
0
VERTEX
10
8.0214
20
10.3919
30
7.68
0
VERTEX
10
8.02229
20
10.3901
30
7.68
0
VERTEX
10
8.0214
20
10.3865
30
7.68
0
VERTEX
10
8.03036
20
10.373
30
7.68
0
VERTEX
10
8.03126
20
10.3587
30
7.68
0
VERTEX
10
8.03126
20
10.3551
30
7.68
0
VERTEX
10
8.03305
20
10.3515
30
7.68
0
VERTEX
10
8.03305
20
10.3479
30
7.68
0
VERTEX
10
8.03574
20
10.3408
30
7.68
0
VERTEX
10
8.03574
20
10.3336
30
7.68
0
VERTEX
10
8.04112
20
10.3192
30
7.68
0
VERTEX
10
8.0456
20
10.3166
30
7.68
0
VERTEX
10
8.05726
20
10.3031
30
7.68
0
VERTEX
10
8.05995
20
10.3004
30
7.68
0
VERTEX
10
8.06174
20
10.2932
30
7.68
0
VERTEX
10
8.06085
20
10.2789
30
7.68
0
VERTEX
10
8.05905
20
10.2717
30
7.68
0
VERTEX
10
8.05726
20
10.2699
30
7.68
0
VERTEX
10
8.05636
20
10.2663
30
7.68
0
VERTEX
10
8.05278
20
10.2628
30
7.68
0
VERTEX
10
8.05188
20
10.2592
30
7.68
0
VERTEX
10
8.05188
20
10.2574
30
7.68
0
VERTEX
10
8.04919
20
10.2547
30
7.68
0
VERTEX
10
8.04829
20
10.2403
30
7.68
0
VERTEX
10
8.05278
20
10.226
30
7.68
0
VERTEX
10
8.05278
20
10.2242
30
7.68
0
VERTEX
10
8.05636
20
10.2206
30
7.68
0
VERTEX
10
8.06354
20
10.2197
30
7.68
0
VERTEX
10
8.07071
20
10.217
30
7.68
0
VERTEX
10
8.08505
20
10.217
30
7.68
0
VERTEX
10
8.09223
20
10.217
30
7.68
0
VERTEX
10
8.09581
20
10.217
30
7.68
0
VERTEX
10
8.0976
20
10.217
30
7.68
0
VERTEX
10
8.10119
20
10.2143
30
7.68
0
VERTEX
10
8.10478
20
10.2135
30
7.68
0
VERTEX
10
8.10836
20
10.2108
30
7.68
0
VERTEX
10
8.11195
20
10.2099
30
7.68
0
VERTEX
10
8.11374
20
10.209
30
7.68
0
VERTEX
10
8.11374
20
10.2072
30
7.68
0
VERTEX
10
8.11643
20
10.2045
30
7.68
0
VERTEX
10
8.1236
20
10.2027
30
7.68
0
VERTEX
10
8.12719
20
10.2
30
7.68
0
VERTEX
10
8.13436
20
10.1991
30
7.68
0
VERTEX
10
8.14871
20
10.2009
30
7.68
0
VERTEX
10
8.15229
20
10.2009
30
7.68
0
VERTEX
10
8.15588
20
10.2027
30
7.68
0
VERTEX
10
8.15767
20
10.2027
30
7.68
0
VERTEX
10
8.15947
20
10.2045
30
7.68
0
VERTEX
10
8.15947
20
10.2081
30
7.68
0
VERTEX
10
8.15947
20
10.2099
30
7.68
0
VERTEX
10
8.16126
20
10.2099
30
7.68
0
VERTEX
10
8.16574
20
10.217
30
7.68
0
VERTEX
10
8.16574
20
10.2314
30
7.68
0
VERTEX
10
8.16036
20
10.2457
30
7.68
0
VERTEX
10
8.15857
20
10.2475
30
7.68
0
VERTEX
10
8.15857
20
10.2493
30
7.68
0
VERTEX
10
8.15498
20
10.252
30
7.68
0
VERTEX
10
8.1514
20
10.2529
30
7.68
0
VERTEX
10
8.14781
20
10.2511
30
7.68
0
VERTEX
10
8.14064
20
10.2529
30
7.68
0
VERTEX
10
8.13974
20
10.2672
30
7.68
0
VERTEX
10
8.14243
20
10.2735
30
7.68
0
VERTEX
10
8.14422
20
10.2771
30
7.68
0
VERTEX
10
8.14781
20
10.2771
30
7.68
0
VERTEX
10
8.1505
20
10.2807
30
7.68
0
VERTEX
10
8.1514
20
10.2843
30
7.68
0
VERTEX
10
8.15498
20
10.287
30
7.68
0
VERTEX
10
8.15767
20
10.2941
30
7.68
0
VERTEX
10
8.16216
20
10.3013
30
7.68
0
VERTEX
10
8.16305
20
10.3157
30
7.68
0
VERTEX
10
8.16216
20
10.3192
30
7.68
0
VERTEX
10
8.15947
20
10.3228
30
7.68
0
VERTEX
10
8.15947
20
10.3246
30
7.68
0
VERTEX
10
8.15319
20
10.3309
30
7.68
0
VERTEX
10
8.1514
20
10.3327
30
7.68
0
VERTEX
10
8.1496
20
10.3327
30
7.68
0
VERTEX
10
8.14691
20
10.3363
30
7.68
0
VERTEX
10
8.14512
20
10.3381
30
7.68
0
VERTEX
10
8.14154
20
10.3381
30
7.68
0
VERTEX
10
8.12898
20
10.3488
30
7.68
0
VERTEX
10
8.12898
20
10.3524
30
7.68
0
VERTEX
10
8.1254
20
10.3587
30
7.68
0
VERTEX
10
8.1254
20
10.3605
30
7.68
0
VERTEX
10
8.11105
20
10.3695
30
7.68
0
VERTEX
10
8.10388
20
10.373
30
7.68
0
VERTEX
10
8.09671
20
10.3784
30
7.68
0
VERTEX
10
8.08954
20
10.3802
30
7.68
0
VERTEX
10
8.08236
20
10.3802
30
7.68
0
VERTEX
10
8.07878
20
10.3802
30
7.68
0
VERTEX
10
8.07698
20
10.3802
30
7.68
0
VERTEX
10
8.0716
20
10.3874
30
7.68
0
VERTEX
10
8.06891
20
10.3937
30
7.68
0
VERTEX
10
8.06712
20
10.3963
30
7.68
0
VERTEX
10
8.06712
20
10.4035
30
7.68
0
VERTEX
10
8.06533
20
10.4107
30
7.68
0
VERTEX
10
8.06354
20
10.4125
30
7.68
0
VERTEX
10
8.06354
20
10.4143
30
7.68
0
VERTEX
10
8.05816
20
10.4197
30
7.68
0
VERTEX
10
8.05457
20
10.4215
30
7.68
0
VERTEX
10
8.05457
20
10.4232
30
7.68
0
VERTEX
10
8.05278
20
10.425
30
7.68
0
VERTEX
10
8.05098
20
10.425
30
7.68
0
VERTEX
10
8.0474
20
10.4277
30
7.68
0
VERTEX
10
8.03305
20
10.4268
30
7.68
0
VERTEX
10
8.02947
20
10.4268
30
7.68
0
VERTEX
10
8.02229
20
10.4215
30
7.68
0
VERTEX
10
8.01781
20
10.4188
30
7.68
0
VERTEX
10
8.01781
20
10.4116
30
7.68
0
VERTEX
10
8.01781
20
10.4107
30
7.68
0
SEQEND
0
POLYLINE
62
227
66
1
70
1
3
endoplasmic_reticulum
0
VERTEX
10
7.88064
20
10.339
30
7.68
0
VERTEX
10
7.88602
20
10.3255
30
7.68
0
VERTEX
10
7.8905
20
10.3183
30
7.68
0
VERTEX
10
7.8914
20
10.3148
30
7.68
0
VERTEX
10
7.89319
20
10.313
30
7.68
0
VERTEX
10
7.89409
20
10.3094
30
7.68
0
VERTEX
10
7.89767
20
10.3076
30
7.68
0
VERTEX
10
7.90126
20
10.304
30
7.68
0
VERTEX
10
7.91471
20
10.2977
30
7.68
0
VERTEX
10
7.92905
20
10.2977
30
7.68
0
VERTEX
10
7.9425
20
10.3076
30
7.68
0
VERTEX
10
7.94609
20
10.3094
30
7.68
0
VERTEX
10
7.94788
20
10.3112
30
7.68
0
VERTEX
10
7.94788
20
10.3148
30
7.68
0
VERTEX
10
7.95057
20
10.3183
30
7.68
0
VERTEX
10
7.95057
20
10.3201
30
7.68
0
VERTEX
10
7.95954
20
10.3327
30
7.68
0
VERTEX
10
7.96133
20
10.3399
30
7.68
0
VERTEX
10
7.96133
20
10.347
30
7.68
0
VERTEX
10
7.96043
20
10.3506
30
7.68
0
VERTEX
10
7.95595
20
10.3578
30
7.68
0
VERTEX
10
7.95416
20
10.3596
30
7.68
0
VERTEX
10
7.95326
20
10.3632
30
7.68
0
VERTEX
10
7.94788
20
10.3686
30
7.68
0
VERTEX
10
7.94071
20
10.3703
30
7.68
0
VERTEX
10
7.92726
20
10.3775
30
7.68
0
VERTEX
10
7.91292
20
10.3784
30
7.68
0
VERTEX
10
7.90574
20
10.3757
30
7.68
0
VERTEX
10
7.89857
20
10.3712
30
7.68
0
VERTEX
10
7.88423
20
10.3587
30
7.68
0
VERTEX
10
7.88064
20
10.3524
30
7.68
0
VERTEX
10
7.88064
20
10.3452
30
7.68
0
VERTEX
10
7.88064
20
10.3417
30
7.68
0
VERTEX
10
7.88064
20
10.3399
30
7.68
0
SEQEND
0
POLYLINE
62
227
66
1
70
1
3
endoplasmic_reticulum
0
VERTEX
10
8.17291
20
10.0171
30
7.68
0
VERTEX
10
8.18278
20
10.0037
30
7.68
0
VERTEX
10
8.18816
20
9.99828
30
7.68
0
VERTEX
10
8.19174
20
9.9947
30
7.68
0
VERTEX
10
8.19891
20
9.99111
30
7.68
0
VERTEX
10
8.2025
20
9.98932
30
7.68
0
VERTEX
10
8.21685
20
9.99201
30
7.68
0
VERTEX
10
8.22402
20
9.99201
30
7.68
0
VERTEX
10
8.22581
20
9.99201
30
7.68
0
VERTEX
10
8.23029
20
9.99649
30
7.68
0
VERTEX
10
8.23029
20
9.99828
30
7.68
0
VERTEX
10
8.23388
20
10.001
30
7.68
0
VERTEX
10
8.23478
20
10.0046
30
7.68
0
VERTEX
10
8.23298
20
10.0117
30
7.68
0
VERTEX
10
8.23298
20
10.0153
30
7.68
0
VERTEX
10
8.23119
20
10.018
30
7.68
0
VERTEX
10
8.23119
20
10.0252
30
7.68
0
VERTEX
10
8.2294
20
10.0324
30
7.68
0
VERTEX
10
8.2285
20
10.0341
30
7.68
0
VERTEX
10
8.22671
20
10.0341
30
7.68
0
VERTEX
10
8.22671
20
10.0413
30
7.68
0
VERTEX
10
8.22671
20
10.0449
30
7.68
0
VERTEX
10
8.22402
20
10.0485
30
7.68
0
VERTEX
10
8.22312
20
10.0521
30
7.68
0
VERTEX
10
8.21774
20
10.0592
30
7.68
0
VERTEX
10
8.18905
20
10.061
30
7.68
0
VERTEX
10
8.18278
20
10.0548
30
7.68
0
VERTEX
10
8.18278
20
10.053
30
7.68
0
VERTEX
10
8.1774
20
10.0467
30
7.68
0
VERTEX
10
8.1774
20
10.0449
30
7.68
0
VERTEX
10
8.17471
20
10.0422
30
7.68
0
VERTEX
10
8.17291
20
10.035
30
7.68
0
VERTEX
10
8.17291
20
10.0207
30
7.68
0
VERTEX
10
8.17291
20
10.018
30
7.68
0
SEQEND
0
POLYLINE
62
227
66
1
70
1
3
endoplasmic_reticulum
0
VERTEX
10
8.18009
20
9.66387
30
7.68
0
VERTEX
10
8.18188
20
9.6567
30
7.68
0
VERTEX
10
8.18367
20
9.65491
30
7.68
0
VERTEX
10
8.19802
20
9.6558
30
7.68
0
VERTEX
10
8.20429
20
9.66118
30
7.68
0
VERTEX
10
8.20609
20
9.66477
30
7.68
0
VERTEX
10
8.20967
20
9.66835
30
7.68
0
VERTEX
10
8.21416
20
9.6827
30
7.68
0
VERTEX
10
8.21595
20
9.68987
30
7.68
0
VERTEX
10
8.21685
20
9.70422
30
7.68
0
VERTEX
10
8.21953
20
9.71139
30
7.68
0
VERTEX
10
8.22133
20
9.72573
30
7.68
0
VERTEX
10
8.22312
20
9.72932
30
7.68
0
VERTEX
10
8.22312
20
9.7329
30
7.68
0
VERTEX
10
8.22491
20
9.7347
30
7.68
0
VERTEX
10
8.2276
20
9.74187
30
7.68
0
VERTEX
10
8.2294
20
9.74456
30
7.68
0
VERTEX
10
8.23298
20
9.74546
30
7.68
0
VERTEX
10
8.23478
20
9.74725
30
7.68
0
VERTEX
10
8.23836
20
9.74815
30
7.68
0
VERTEX
10
8.24105
20
9.75084
30
7.68
0
VERTEX
10
8.24822
20
9.75263
30
7.68
0
VERTEX
10
8.2545
20
9.7589
30
7.68
0
VERTEX
10
8.25809
20
9.76159
30
7.68
0
VERTEX
10
8.25809
20
9.76518
30
7.68
0
VERTEX
10
8.25988
20
9.76877
30
7.68
0
VERTEX
10
8.25988
20
9.78311
30
7.68
0
VERTEX
10
8.25809
20
9.79028
30
7.68
0
VERTEX
10
8.2545
20
9.79118
30
7.68
0
VERTEX
10
8.24016
20
9.78849
30
7.68
0
VERTEX
10
8.23298
20
9.78849
30
7.68
0
VERTEX
10
8.2294
20
9.78849
30
7.68
0
VERTEX
10
8.22491
20
9.78132
30
7.68
0
VERTEX
10
8.22222
20
9.77773
30
7.68
0
VERTEX
10
8.22043
20
9.77684
30
7.68
0
VERTEX
10
8.22043
20
9.77504
30
7.68
0
VERTEX
10
8.21147
20
9.76159
30
7.68
0
VERTEX
10
8.20878
20
9.75801
30
7.68
0
VERTEX
10
8.20429
20
9.74366
30
7.68
0
VERTEX
10
8.2025
20
9.74008
30
7.68
0
VERTEX
10
8.2016
20
9.72573
30
7.68
0
VERTEX
10
8.19891
20
9.71856
30
7.68
0
VERTEX
10
8.19622
20
9.71497
30
7.68
0
VERTEX
10
8.19622
20
9.71318
30
7.68
0
VERTEX
10
8.19353
20
9.70959
30
7.68
0
VERTEX
10
8.19085
20
9.69525
30
7.68
0
VERTEX
10
8.18816
20
9.69256
30
7.68
0
VERTEX
10
8.18547
20
9.67822
30
7.68
0
VERTEX
10
8.18098
20
9.67553
30
7.68
0
VERTEX
10
8.18009
20
9.66835
30
7.68
0
VERTEX
10
8.18009
20
9.66477
30
7.68
0
SEQEND
0
ENDSEC
0
EOF
