0
SECTION
2
ENTITIES
0
POLYLINE
62
31
66
1
70
1
3
contour
0
VERTEX
10
6.92365
20
10.7175
30
9.92
0
VERTEX
10
6.92739
20
10.6876
30
9.92
0
VERTEX
10
6.92739
20
10.6727
30
9.92
0
VERTEX
10
6.97588
20
10.6242
30
9.92
0
VERTEX
10
6.99826
20
10.5981
30
9.92
0
VERTEX
10
7.00572
20
10.5907
30
9.92
0
VERTEX
10
7.01318
20
10.5907
30
9.92
0
VERTEX
10
7.02811
20
10.5795
30
9.92
0
VERTEX
10
7.08779
20
10.5571
30
9.92
0
VERTEX
10
7.10271
20
10.5496
30
9.92
0
VERTEX
10
7.13256
20
10.5534
30
9.92
0
VERTEX
10
7.15867
20
10.5645
30
9.92
0
VERTEX
10
7.17359
20
10.5645
30
9.92
0
VERTEX
10
7.18105
20
10.5645
30
9.92
0
VERTEX
10
7.18851
20
10.572
30
9.92
0
VERTEX
10
7.20344
20
10.572
30
9.92
0
VERTEX
10
7.23328
20
10.5832
30
9.92
0
VERTEX
10
7.29297
20
10.5757
30
9.92
0
VERTEX
10
7.41234
20
10.5795
30
9.92
0
VERTEX
10
7.44218
20
10.5795
30
9.92
0
VERTEX
10
7.47203
20
10.5907
30
9.92
0
VERTEX
10
7.48695
20
10.5944
30
9.92
0
VERTEX
10
7.50187
20
10.6056
30
9.92
0
VERTEX
10
7.51679
20
10.6093
30
9.92
0
VERTEX
10
7.52798
20
10.6205
30
9.92
0
VERTEX
10
7.53171
20
10.6354
30
9.92
0
VERTEX
10
7.5541
20
10.6615
30
9.92
0
VERTEX
10
7.56156
20
10.669
30
9.92
0
VERTEX
10
7.57648
20
10.669
30
9.92
0
VERTEX
10
7.58394
20
10.669
30
9.92
0
VERTEX
10
7.58767
20
10.6839
30
9.92
0
VERTEX
10
7.59886
20
10.6988
30
9.92
0
VERTEX
10
7.61378
20
10.7585
30
9.92
0
VERTEX
10
7.61378
20
10.7884
30
9.92
0
VERTEX
10
7.60259
20
10.8481
30
9.92
0
VERTEX
10
7.57648
20
10.8779
30
9.92
0
VERTEX
10
7.55036
20
10.8965
30
9.92
0
VERTEX
10
7.53917
20
10.9227
30
9.92
0
VERTEX
10
7.53917
20
10.9823
30
9.92
0
VERTEX
10
7.52798
20
10.9973
30
9.92
0
VERTEX
10
7.52425
20
11.0271
30
9.92
0
VERTEX
10
7.52425
20
11.042
30
9.92
0
VERTEX
10
7.51679
20
11.0495
30
9.92
0
VERTEX
10
7.50187
20
11.0532
30
9.92
0
VERTEX
10
7.48695
20
11.0644
30
9.92
0
VERTEX
10
7.4571
20
11.0644
30
9.92
0
VERTEX
10
7.39742
20
11.0756
30
9.92
0
VERTEX
10
7.33773
20
11.0793
30
9.92
0
VERTEX
10
7.27804
20
11.0719
30
9.92
0
VERTEX
10
7.2482
20
11.0607
30
9.92
0
VERTEX
10
7.21836
20
11.057
30
9.92
0
VERTEX
10
7.20344
20
11.0495
30
9.92
0
VERTEX
10
7.19598
20
11.042
30
9.92
0
VERTEX
10
7.18851
20
11.042
30
9.92
0
VERTEX
10
7.15867
20
11.0159
30
9.92
0
VERTEX
10
7.15121
20
11.0085
30
9.92
0
VERTEX
10
7.13629
20
11.0047
30
9.92
0
VERTEX
10
7.13629
20
10.9973
30
9.92
0
VERTEX
10
7.11018
20
10.9749
30
9.92
0
VERTEX
10
7.08033
20
10.96
30
9.92
0
VERTEX
10
7.06168
20
10.9339
30
9.92
0
VERTEX
10
7.04303
20
10.9152
30
9.92
0
VERTEX
10
7.04303
20
10.9077
30
9.92
0
VERTEX
10
7.02811
20
10.8965
30
9.92
0
VERTEX
10
7.02438
20
10.8667
30
9.92
0
VERTEX
10
7.01318
20
10.863
30
9.92
0
VERTEX
10
6.96842
20
10.8145
30
9.92
0
VERTEX
10
6.93112
20
10.7585
30
9.92
0
VERTEX
10
6.92365
20
10.7436
30
9.92
0
VERTEX
10
6.92365
20
10.7287
30
9.92
0
VERTEX
10
6.92365
20
10.7212
30
9.92
0
SEQEND
0
POLYLINE
62
224
66
1
70
1
3
mitochondrion
0
VERTEX
10
7.13569
20
10.7661
30
9.92
0
VERTEX
10
7.1482
20
10.7452
30
9.92
0
VERTEX
10
7.1482
20
10.7425
30
9.92
0
VERTEX
10
7.16489
20
10.7202
30
9.92
0
VERTEX
10
7.17462
20
10.7091
30
9.92
0
VERTEX
10
7.18018
20
10.7035
30
9.92
0
VERTEX
10
7.18574
20
10.7007
30
9.92
0
VERTEX
10
7.19547
20
10.691
30
9.92
0
VERTEX
10
7.21772
20
10.6841
30
9.92
0
VERTEX
10
7.22328
20
10.6813
30
9.92
0
VERTEX
10
7.23441
20
10.6813
30
9.92
0
VERTEX
10
7.25665
20
10.6771
30
9.92
0
VERTEX
10
7.26778
20
10.6743
30
9.92
0
VERTEX
10
7.27334
20
10.6743
30
9.92
0
VERTEX
10
7.2789
20
10.6715
30
9.92
0
VERTEX
10
7.30115
20
10.6715
30
9.92
0
VERTEX
10
7.31227
20
10.6715
30
9.92
0
VERTEX
10
7.31505
20
10.6715
30
9.92
0
VERTEX
10
7.32061
20
10.6757
30
9.92
0
VERTEX
10
7.33174
20
10.6771
30
9.92
0
VERTEX
10
7.3373
20
10.6813
30
9.92
0
VERTEX
10
7.35955
20
10.6896
30
9.92
0
VERTEX
10
7.37067
20
10.6938
30
9.92
0
VERTEX
10
7.38179
20
10.7007
30
9.92
0
VERTEX
10
7.38596
20
10.7049
30
9.92
0
VERTEX
10
7.38874
20
10.7049
30
9.92
0
VERTEX
10
7.39431
20
10.7105
30
9.92
0
VERTEX
10
7.39709
20
10.7105
30
9.92
0
VERTEX
10
7.40265
20
10.7147
30
9.92
0
VERTEX
10
7.40543
20
10.7202
30
9.92
0
VERTEX
10
7.40404
20
10.7647
30
9.92
0
VERTEX
10
7.40126
20
10.787
30
9.92
0
VERTEX
10
7.39709
20
10.7981
30
9.92
0
VERTEX
10
7.39431
20
10.8036
30
9.92
0
VERTEX
10
7.39431
20
10.8064
30
9.92
0
VERTEX
10
7.38596
20
10.8162
30
9.92
0
VERTEX
10
7.38318
20
10.8217
30
9.92
0
VERTEX
10
7.37762
20
10.8245
30
9.92
0
VERTEX
10
7.35955
20
10.8454
30
9.92
0
VERTEX
10
7.33869
20
10.8593
30
9.92
0
VERTEX
10
7.32757
20
10.8662
30
9.92
0
VERTEX
10
7.32478
20
10.869
30
9.92
0
VERTEX
10
7.31922
20
10.8704
30
9.92
0
VERTEX
10
7.3081
20
10.8773
30
9.92
0
VERTEX
10
7.30254
20
10.8787
30
9.92
0
VERTEX
10
7.29698
20
10.8829
30
9.92
0
VERTEX
10
7.27473
20
10.8746
30
9.92
0
VERTEX
10
7.26361
20
10.8704
30
9.92
0
VERTEX
10
7.25804
20
10.8676
30
9.92
0
VERTEX
10
7.2358
20
10.8676
30
9.92
0
VERTEX
10
7.1913
20
10.8523
30
9.92
0
VERTEX
10
7.18018
20
10.8481
30
9.92
0
VERTEX
10
7.16906
20
10.8398
30
9.92
0
VERTEX
10
7.16071
20
10.8314
30
9.92
0
VERTEX
10
7.15098
20
10.8203
30
9.92
0
VERTEX
10
7.15098
20
10.8175
30
9.92
0
VERTEX
10
7.14403
20
10.8064
30
9.92
0
VERTEX
10
7.13569
20
10.7842
30
9.92
0
VERTEX
10
7.13569
20
10.7731
30
9.92
0
VERTEX
10
7.13569
20
10.7675
30
9.92
0
SEQEND
0
POLYLINE
62
227
66
1
70
1
3
endoplasmic_reticulum
0
VERTEX
10
7.43595
20
10.6357
30
9.92
0
VERTEX
10
7.43685
20
10.6321
30
9.92
0
VERTEX
10
7.43685
20
10.6303
30
9.92
0
VERTEX
10
7.43954
20
10.6268
30
9.92
0
VERTEX
10
7.44044
20
10.6232
30
9.92
0
VERTEX
10
7.44402
20
10.6214
30
9.92
0
VERTEX
10
7.44402
20
10.6196
30
9.92
0
VERTEX
10
7.44761
20
10.6169
30
9.92
0
VERTEX
10
7.4494
20
10.6169
30
9.92
0
VERTEX
10
7.45119
20
10.6151
30
9.92
0
VERTEX
10
7.45837
20
10.6133
30
9.92
0
VERTEX
10
7.46554
20
10.6133
30
9.92
0
VERTEX
10
7.46913
20
10.6142
30
9.92
0
VERTEX
10
7.4754
20
10.6205
30
9.92
0
VERTEX
10
7.4754
20
10.6223
30
9.92
0
VERTEX
10
7.47719
20
10.6241
30
9.92
0
VERTEX
10
7.47809
20
10.6312
30
9.92
0
VERTEX
10
7.47719
20
10.6599
30
9.92
0
VERTEX
10
7.4763
20
10.6635
30
9.92
0
VERTEX
10
7.47002
20
10.6698
30
9.92
0
VERTEX
10
7.46823
20
10.6716
30
9.92
0
VERTEX
10
7.46106
20
10.6716
30
9.92
0
VERTEX
10
7.45747
20
10.6725
30
9.92
0
VERTEX
10
7.45388
20
10.6716
30
9.92
0
VERTEX
10
7.44044
20
10.6608
30
9.92
0
VERTEX
10
7.43954
20
10.6537
30
9.92
0
VERTEX
10
7.43685
20
10.6465
30
9.92
0
VERTEX
10
7.43595
20
10.6393
30
9.92
0
VERTEX
10
7.43595
20
10.6366
30
9.92
0
SEQEND
0
POLYLINE
62
227
66
1
70
1
3
endoplasmic_reticulum
0
VERTEX
10
7.12396
20
10.6429
30
9.92
0
VERTEX
10
7.12665
20
10.6357
30
9.92
0
VERTEX
10
7.13382
20
10.6286
30
9.92
0
VERTEX
10
7.1374
20
10.6259
30
9.92
0
VERTEX
10
7.14189
20
10.6196
30
9.92
0
VERTEX
10
7.14547
20
10.6178
30
9.92
0
VERTEX
10
7.15264
20
10.6178
30
9.92
0
VERTEX
10
7.15623
20
10.6178
30
9.92
0
VERTEX
10
7.16251
20
10.6214
30
9.92
0
VERTEX
10
7.16609
20
10.6232
30
9.92
0
VERTEX
10
7.17147
20
10.6303
30
9.92
0
VERTEX
10
7.17147
20
10.6339
30
9.92
0
VERTEX
10
7.16878
20
10.6411
30
9.92
0
VERTEX
10
7.16789
20
10.6447
30
9.92
0
VERTEX
10
7.16609
20
10.6465
30
9.92
0
VERTEX
10
7.1643
20
10.6465
30
9.92
0
VERTEX
10
7.1643
20
10.6483
30
9.92
0
VERTEX
10
7.16071
20
10.6519
30
9.92
0
VERTEX
10
7.15713
20
10.659
30
9.92
0
VERTEX
10
7.15175
20
10.6644
30
9.92
0
VERTEX
10
7.14996
20
10.6716
30
9.92
0
VERTEX
10
7.14906
20
10.6743
30
9.92
0
VERTEX
10
7.14727
20
10.6725
30
9.92
0
VERTEX
10
7.14368
20
10.6725
30
9.92
0
VERTEX
10
7.13651
20
10.668
30
9.92
0
VERTEX
10
7.13202
20
10.6635
30
9.92
0
VERTEX
10
7.13023
20
10.6635
30
9.92
0
VERTEX
10
7.12754
20
10.6599
30
9.92
0
VERTEX
10
7.12575
20
10.659
30
9.92
0
VERTEX
10
7.12396
20
10.6447
30
9.92
0
VERTEX
10
7.12396
20
10.6438
30
9.92
0
SEQEND
0
POLYLINE
62
227
66
1
70
1
3
endoplasmic_reticulum
0
VERTEX
10
7.06299
20
10.8204
30
9.92
0
VERTEX
10
7.06658
20
10.8195
30
9.92
0
VERTEX
10
7.06837
20
10.8195
30
9.92
0
VERTEX
10
7.06837
20
10.8159
30
9.92
0
VERTEX
10
7.07106
20
10.8088
30
9.92
0
VERTEX
10
7.07375
20
10.807
30
9.92
0
VERTEX
10
7.08809
20
10.807
30
9.92
0
VERTEX
10
7.09527
20
10.8079
30
9.92
0
VERTEX
10
7.10961
20
10.8132
30
9.92
0
VERTEX
10
7.11678
20
10.8141
30
9.92
0
VERTEX
10
7.12754
20
10.8267
30
9.92
0
VERTEX
10
7.12754
20
10.841
30
9.92
0
VERTEX
10
7.12575
20
10.8482
30
9.92
0
VERTEX
10
7.12575
20
10.8518
30
9.92
0
VERTEX
10
7.12216
20
10.8554
30
9.92
0
VERTEX
10
7.11499
20
10.8545
30
9.92
0
VERTEX
10
7.1132
20
10.8527
30
9.92
0
VERTEX
10
7.1114
20
10.8527
30
9.92
0
VERTEX
10
7.10961
20
10.8509
30
9.92
0
VERTEX
10
7.10782
20
10.8509
30
9.92
0
VERTEX
10
7.10423
20
10.8482
30
9.92
0
VERTEX
10
7.10065
20
10.8473
30
9.92
0
VERTEX
10
7.09885
20
10.8455
30
9.92
0
VERTEX
10
7.09168
20
10.8437
30
9.92
0
VERTEX
10
7.08451
20
10.8401
30
9.92
0
VERTEX
10
7.08271
20
10.8401
30
9.92
0
VERTEX
10
7.07733
20
10.8339
30
9.92
0
VERTEX
10
7.07375
20
10.8312
30
9.92
0
VERTEX
10
7.07375
20
10.8294
30
9.92
0
VERTEX
10
7.07016
20
10.8267
30
9.92
0
VERTEX
10
7.06927
20
10.8231
30
9.92
0
VERTEX
10
7.06568
20
10.8213
30
9.92
0
VERTEX
10
7.06389
20
10.8213
30
9.92
0
SEQEND
0
ENDSEC
0
EOF
