0
SECTION
2
ENTITIES
0
POLYLINE
62
224
66
1
70
1
3
mitochondrion
0
VERTEX
10
9.0656
20
9.26582
30
5.68
0
VERTEX
10
9.06699
20
9.26443
30
5.68
0
VERTEX
10
9.06977
20
9.27
30
5.68
0
VERTEX
10
9.07116
20
9.27139
30
5.68
0
VERTEX
10
9.07256
20
9.26582
30
5.68
0
VERTEX
10
9.07673
20
9.26026
30
5.68
0
VERTEX
10
9.08507
20
9.23941
30
5.68
0
VERTEX
10
9.09758
20
9.21716
30
5.68
0
VERTEX
10
9.11288
20
9.19908
30
5.68
0
VERTEX
10
9.11983
20
9.19213
30
5.68
0
VERTEX
10
9.13095
20
9.18796
30
5.68
0
VERTEX
10
9.13373
20
9.18796
30
5.68
0
VERTEX
10
9.14486
20
9.18101
30
5.68
0
VERTEX
10
9.1671
20
9.17684
30
5.68
0
VERTEX
10
9.17823
20
9.17684
30
5.68
0
VERTEX
10
9.18935
20
9.17962
30
5.68
0
VERTEX
10
9.19491
20
9.17962
30
5.68
0
VERTEX
10
9.20604
20
9.18657
30
5.68
0
VERTEX
10
9.21299
20
9.19769
30
5.68
0
VERTEX
10
9.21994
20
9.21994
30
5.68
0
VERTEX
10
9.22133
20
9.24219
30
5.68
0
VERTEX
10
9.22411
20
9.24497
30
5.68
0
VERTEX
10
9.22411
20
9.28946
30
5.68
0
VERTEX
10
9.22272
20
9.30059
30
5.68
0
VERTEX
10
9.21577
20
9.32283
30
5.68
0
VERTEX
10
9.20604
20
9.33396
30
5.68
0
VERTEX
10
9.20465
20
9.33952
30
5.68
0
VERTEX
10
9.20465
20
9.3423
30
5.68
0
VERTEX
10
9.19769
20
9.35203
30
5.68
0
VERTEX
10
9.19352
20
9.35759
30
5.68
0
VERTEX
10
9.18796
20
9.35898
30
5.68
0
VERTEX
10
9.17684
20
9.36872
30
5.68
0
VERTEX
10
9.17128
20
9.37289
30
5.68
0
VERTEX
10
9.16571
20
9.37428
30
5.68
0
VERTEX
10
9.15598
20
9.38123
30
5.68
0
VERTEX
10
9.14486
20
9.3854
30
5.68
0
VERTEX
10
9.12261
20
9.38262
30
5.68
0
VERTEX
10
9.10036
20
9.37428
30
5.68
0
VERTEX
10
9.09758
20
9.37428
30
5.68
0
VERTEX
10
9.09202
20
9.37011
30
5.68
0
VERTEX
10
9.08924
20
9.37011
30
5.68
0
VERTEX
10
9.08229
20
9.36037
30
5.68
0
VERTEX
10
9.07256
20
9.35064
30
5.68
0
VERTEX
10
9.07116
20
9.34508
30
5.68
0
VERTEX
10
9.06699
20
9.33952
30
5.68
0
VERTEX
10
9.0656
20
9.29502
30
5.68
0
VERTEX
10
9.0656
20
9.27278
30
5.68
0
VERTEX
10
9.0656
20
9.26722
30
5.68
0
SEQEND
0
POLYLINE
62
227
66
1
70
1
3
endoplasmic_reticulum
0
VERTEX
10
8.93319
20
9.18243
30
5.68
0
VERTEX
10
8.93498
20
9.16808
30
5.68
0
VERTEX
10
8.93677
20
9.16449
30
5.68
0
VERTEX
10
8.94305
20
9.15912
30
5.68
0
VERTEX
10
8.94663
20
9.15553
30
5.68
0
VERTEX
10
8.94843
20
9.15463
30
5.68
0
VERTEX
10
8.94843
20
9.15284
30
5.68
0
VERTEX
10
8.95201
20
9.15194
30
5.68
0
VERTEX
10
8.96636
20
9.15643
30
5.68
0
VERTEX
10
8.96994
20
9.15643
30
5.68
0
VERTEX
10
8.97174
20
9.15643
30
5.68
0
VERTEX
10
8.97891
20
9.16091
30
5.68
0
VERTEX
10
8.9825
20
9.1627
30
5.68
0
VERTEX
10
8.98429
20
9.1636
30
5.68
0
VERTEX
10
8.98608
20
9.17077
30
5.68
0
VERTEX
10
8.98608
20
9.17794
30
5.68
0
VERTEX
10
8.98608
20
9.18153
30
5.68
0
VERTEX
10
8.9816
20
9.1878
30
5.68
0
VERTEX
10
8.97891
20
9.20215
30
5.68
0
VERTEX
10
8.97712
20
9.20305
30
5.68
0
VERTEX
10
8.94843
20
9.20215
30
5.68
0
VERTEX
10
8.94125
20
9.20125
30
5.68
0
VERTEX
10
8.93677
20
9.19856
30
5.68
0
VERTEX
10
8.93677
20
9.19677
30
5.68
0
VERTEX
10
8.93498
20
9.19587
30
5.68
0
VERTEX
10
8.93319
20
9.1887
30
5.68
0
VERTEX
10
8.93319
20
9.18511
30
5.68
0
VERTEX
10
8.93319
20
9.18332
30
5.68
0
SEQEND
0
POLYLINE
62
227
66
1
70
1
3
endoplasmic_reticulum
0
VERTEX
10
8.92153
20
9.35546
30
5.68
0
VERTEX
10
8.92691
20
9.34918
30
5.68
0
VERTEX
10
8.92781
20
9.3456
30
5.68
0
VERTEX
10
8.94215
20
9.34291
30
5.68
0
VERTEX
10
8.9565
20
9.3456
30
5.68
0
VERTEX
10
8.95919
20
9.34829
30
5.68
0
VERTEX
10
8.96098
20
9.34829
30
5.68
0
VERTEX
10
8.96636
20
9.35456
30
5.68
0
VERTEX
10
8.97084
20
9.35904
30
5.68
0
VERTEX
10
8.97263
20
9.36622
30
5.68
0
VERTEX
10
8.97263
20
9.37339
30
5.68
0
VERTEX
10
8.97263
20
9.37518
30
5.68
0
VERTEX
10
8.97084
20
9.37608
30
5.68
0
VERTEX
10
8.96994
20
9.37967
30
5.68
0
VERTEX
10
8.96725
20
9.38325
30
5.68
0
VERTEX
10
8.95381
20
9.38773
30
5.68
0
VERTEX
10
8.94663
20
9.38863
30
5.68
0
VERTEX
10
8.93946
20
9.38773
30
5.68
0
VERTEX
10
8.93229
20
9.38504
30
5.68
0
VERTEX
10
8.92601
20
9.38056
30
5.68
0
VERTEX
10
8.92332
20
9.37787
30
5.68
0
VERTEX
10
8.92153
20
9.36353
30
5.68
0
VERTEX
10
8.92153
20
9.35636
30
5.68
0
SEQEND
0
POLYLINE
62
31
66
1
70
1
3
contour
0
VERTEX
10
8.21312
20
9.49663
30
5.68
0
VERTEX
10
8.21814
20
9.46985
30
5.68
0
VERTEX
10
8.22316
20
9.45647
30
5.68
0
VERTEX
10
8.23153
20
9.44308
30
5.68
0
VERTEX
10
8.23153
20
9.43973
30
5.68
0
VERTEX
10
8.24324
20
9.42969
30
5.68
0
VERTEX
10
8.24826
20
9.42467
30
5.68
0
VERTEX
10
8.25496
20
9.423
30
5.68
0
VERTEX
10
8.28006
20
9.39957
30
5.68
0
VERTEX
10
8.29177
20
9.38786
30
5.68
0
VERTEX
10
8.30516
20
9.38116
30
5.68
0
VERTEX
10
8.33026
20
9.36276
30
5.68
0
VERTEX
10
8.33528
20
9.35606
30
5.68
0
VERTEX
10
8.3403
20
9.35272
30
5.68
0
VERTEX
10
8.35201
20
9.341
30
5.68
0
VERTEX
10
8.3654
20
9.33598
30
5.68
0
VERTEX
10
8.36875
20
9.33598
30
5.68
0
VERTEX
10
8.38213
20
9.32761
30
5.68
0
VERTEX
10
8.39385
20
9.3159
30
5.68
0
VERTEX
10
8.40724
20
9.30753
30
5.68
0
VERTEX
10
8.41058
20
9.30753
30
5.68
0
VERTEX
10
8.41226
20
9.30419
30
5.68
0
VERTEX
10
8.41895
20
9.30251
30
5.68
0
VERTEX
10
8.4223
20
9.29917
30
5.68
0
VERTEX
10
8.44907
20
9.28745
30
5.68
0
VERTEX
10
8.45242
20
9.28411
30
5.68
0
VERTEX
10
8.46581
20
9.27908
30
5.68
0
VERTEX
10
8.47919
20
9.27072
30
5.68
0
VERTEX
10
8.48421
20
9.26402
30
5.68
0
VERTEX
10
8.48756
20
9.26068
30
5.68
0
VERTEX
10
8.51433
20
9.24896
30
5.68
0
VERTEX
10
8.51768
20
9.24896
30
5.68
0
VERTEX
10
8.52103
20
9.24562
30
5.68
0
VERTEX
10
8.52437
20
9.24562
30
5.68
0
VERTEX
10
8.53107
20
9.23892
30
5.68
0
VERTEX
10
8.55784
20
9.22721
30
5.68
0
VERTEX
10
8.57123
20
9.22219
30
5.68
0
VERTEX
10
8.57792
20
9.21717
30
5.68
0
VERTEX
10
8.59131
20
9.2155
30
5.68
0
VERTEX
10
8.59801
20
9.21382
30
5.68
0
VERTEX
10
8.61139
20
9.20378
30
5.68
0
VERTEX
10
8.62478
20
9.20043
30
5.68
0
VERTEX
10
8.64988
20
9.18035
30
5.68
0
VERTEX
10
8.66996
20
9.1586
30
5.68
0
VERTEX
10
8.68335
20
9.15358
30
5.68
0
VERTEX
10
8.69674
20
9.14521
30
5.68
0
VERTEX
10
8.70008
20
9.14186
30
5.68
0
VERTEX
10
8.70678
20
9.14019
30
5.68
0
VERTEX
10
8.72016
20
9.13182
30
5.68
0
VERTEX
10
8.72686
20
9.12848
30
5.68
0
VERTEX
10
8.7302
20
9.12848
30
5.68
0
VERTEX
10
8.74359
20
9.11844
30
5.68
0
VERTEX
10
8.75698
20
9.11342
30
5.68
0
VERTEX
10
8.76033
20
9.11342
30
5.68
0
VERTEX
10
8.77371
20
9.10505
30
5.68
0
VERTEX
10
8.78041
20
9.10505
30
5.68
0
VERTEX
10
8.79379
20
9.10003
30
5.68
0
VERTEX
10
8.80049
20
9.09668
30
5.68
0
VERTEX
10
8.80718
20
9.09668
30
5.68
0
VERTEX
10
8.82057
20
9.08664
30
5.68
0
VERTEX
10
8.83396
20
9.08162
30
5.68
0
VERTEX
10
8.84567
20
9.07325
30
5.68
0
VERTEX
10
8.85236
20
9.06991
30
5.68
0
VERTEX
10
8.86575
20
9.06991
30
5.68
0
VERTEX
10
8.87245
20
9.06656
30
5.68
0
VERTEX
10
8.88583
20
9.06489
30
5.68
0
VERTEX
10
8.89085
20
9.05987
30
5.68
0
VERTEX
10
8.90424
20
9.05652
30
5.68
0
VERTEX
10
8.93101
20
9.05652
30
5.68
0
VERTEX
10
8.98456
20
9.0515
30
5.68
0
VERTEX
10
9.09166
20
9.04815
30
5.68
0
VERTEX
10
9.09836
20
9.0515
30
5.68
0
VERTEX
10
9.12513
20
9.05317
30
5.68
0
VERTEX
10
9.13852
20
9.05485
30
5.68
0
VERTEX
10
9.14521
20
9.05485
30
5.68
0
VERTEX
10
9.14856
20
9.05485
30
5.68
0
VERTEX
10
9.15191
20
9.05987
30
5.68
0
VERTEX
10
9.17701
20
9.0766
30
5.68
0
VERTEX
10
9.19039
20
9.0833
30
5.68
0
VERTEX
10
9.19709
20
9.08832
30
5.68
0
VERTEX
10
9.20043
20
9.09334
30
5.68
0
VERTEX
10
9.21215
20
9.1017
30
5.68
0
VERTEX
10
9.21884
20
9.10338
30
5.68
0
VERTEX
10
9.22052
20
9.10672
30
5.68
0
VERTEX
10
9.22721
20
9.1084
30
5.68
0
VERTEX
10
9.23223
20
9.11342
30
5.68
0
VERTEX
10
9.2339
20
9.12011
30
5.68
0
VERTEX
10
9.259
20
9.13684
30
5.68
0
VERTEX
10
9.27574
20
9.16195
30
5.68
0
VERTEX
10
9.27908
20
9.16529
30
5.68
0
VERTEX
10
9.28745
20
9.19039
30
5.68
0
VERTEX
10
9.28913
20
9.20378
30
5.68
0
VERTEX
10
9.28913
20
9.21047
30
5.68
0
VERTEX
10
9.29917
20
9.2339
30
5.68
0
VERTEX
10
9.29749
20
9.26068
30
5.68
0
VERTEX
10
9.28913
20
9.27239
30
5.68
0
VERTEX
10
9.28411
20
9.28578
30
5.68
0
VERTEX
10
9.27908
20
9.2908
30
5.68
0
VERTEX
10
9.27741
20
9.30419
30
5.68
0
VERTEX
10
9.27406
20
9.31088
30
5.68
0
VERTEX
10
9.27406
20
9.31423
30
5.68
0
VERTEX
10
9.27072
20
9.31757
30
5.68
0
VERTEX
10
9.26904
20
9.32427
30
5.68
0
VERTEX
10
9.25566
20
9.33765
30
5.68
0
VERTEX
10
9.24896
20
9.33765
30
5.68
0
VERTEX
10
9.24896
20
9.341
30
5.68
0
VERTEX
10
9.24227
20
9.34769
30
5.68
0
VERTEX
10
9.23892
20
9.35439
30
5.68
0
VERTEX
10
9.23892
20
9.35774
30
5.68
0
VERTEX
10
9.21884
20
9.38451
30
5.68
0
VERTEX
10
9.21047
20
9.3979
30
5.68
0
VERTEX
10
9.20545
20
9.41128
30
5.68
0
VERTEX
10
9.18705
20
9.43639
30
5.68
0
VERTEX
10
9.17533
20
9.44475
30
5.68
0
VERTEX
10
9.17031
20
9.44643
30
5.68
0
VERTEX
10
9.16027
20
9.45647
30
5.68
0
VERTEX
10
9.15358
20
9.45981
30
5.68
0
VERTEX
10
9.10003
20
9.45814
30
5.68
0
VERTEX
10
9.07325
20
9.45312
30
5.68
0
VERTEX
10
9.06154
20
9.44643
30
5.68
0
VERTEX
10
9.05652
20
9.44141
30
5.68
0
VERTEX
10
9.04983
20
9.43973
30
5.68
0
VERTEX
10
9.03644
20
9.42802
30
5.68
0
VERTEX
10
9.02305
20
9.42467
30
5.68
0
VERTEX
10
9.00967
20
9.42635
30
5.68
0
VERTEX
10
9.00297
20
9.42802
30
5.68
0
VERTEX
10
8.99962
20
9.42802
30
5.68
0
VERTEX
10
8.99293
20
9.43304
30
5.68
0
VERTEX
10
8.93938
20
9.43471
30
5.68
0
VERTEX
10
8.91261
20
9.42969
30
5.68
0
VERTEX
10
8.90089
20
9.41798
30
5.68
0
VERTEX
10
8.8942
20
9.41296
30
5.68
0
VERTEX
10
8.88751
20
9.41128
30
5.68
0
VERTEX
10
8.88081
20
9.40626
30
5.68
0
VERTEX
10
8.87412
20
9.40459
30
5.68
0
VERTEX
10
8.86408
20
9.39455
30
5.68
0
VERTEX
10
8.85069
20
9.38786
30
5.68
0
VERTEX
10
8.84734
20
9.38451
30
5.68
0
VERTEX
10
8.84065
20
9.38284
30
5.68
0
VERTEX
10
8.82894
20
9.3728
30
5.68
0
VERTEX
10
8.80384
20
9.36276
30
5.68
0
VERTEX
10
8.79379
20
9.35439
30
5.68
0
VERTEX
10
8.79045
20
9.35104
30
5.68
0
VERTEX
10
8.79045
20
9.34435
30
5.68
0
VERTEX
10
8.77706
20
9.33598
30
5.68
0
VERTEX
10
8.77204
20
9.32427
30
5.68
0
VERTEX
10
8.76033
20
9.3159
30
5.68
0
VERTEX
10
8.74861
20
9.30419
30
5.68
0
VERTEX
10
8.72351
20
9.29247
30
5.68
0
VERTEX
10
8.71012
20
9.28745
30
5.68
0
VERTEX
10
8.70845
20
9.28411
30
5.68
0
VERTEX
10
8.69506
20
9.28076
30
5.68
0
VERTEX
10
8.68837
20
9.27574
30
5.68
0
VERTEX
10
8.67498
20
9.27239
30
5.68
0
VERTEX
10
8.64821
20
9.27239
30
5.68
0
VERTEX
10
8.64151
20
9.27239
30
5.68
0
VERTEX
10
8.63482
20
9.27574
30
5.68
0
VERTEX
10
8.60805
20
9.27574
30
5.68
0
VERTEX
10
8.59466
20
9.27741
30
5.68
0
VERTEX
10
8.58796
20
9.27741
30
5.68
0
VERTEX
10
8.58462
20
9.27741
30
5.68
0
VERTEX
10
8.58127
20
9.28076
30
5.68
0
VERTEX
10
8.56788
20
9.28243
30
5.68
0
VERTEX
10
8.56119
20
9.28411
30
5.68
0
VERTEX
10
8.5545
20
9.28913
30
5.68
0
VERTEX
10
8.5478
20
9.2908
30
5.68
0
VERTEX
10
8.5478
20
9.29415
30
5.68
0
VERTEX
10
8.54278
20
9.29917
30
5.68
0
VERTEX
10
8.53944
20
9.29917
30
5.68
0
VERTEX
10
8.53274
20
9.30419
30
5.68
0
VERTEX
10
8.52605
20
9.30586
30
5.68
0
VERTEX
10
8.51935
20
9.31255
30
5.68
0
VERTEX
10
8.50597
20
9.31925
30
5.68
0
VERTEX
10
8.50095
20
9.32427
30
5.68
0
VERTEX
10
8.49425
20
9.32594
30
5.68
0
VERTEX
10
8.49091
20
9.32594
30
5.68
0
VERTEX
10
8.48589
20
9.33263
30
5.68
0
VERTEX
10
8.48254
20
9.33598
30
5.68
0
VERTEX
10
8.46915
20
9.341
30
5.68
0
VERTEX
10
8.45576
20
9.35272
30
5.68
0
VERTEX
10
8.44238
20
9.36108
30
5.68
0
VERTEX
10
8.43234
20
9.37112
30
5.68
0
VERTEX
10
8.41895
20
9.37949
30
5.68
0
VERTEX
10
8.41393
20
9.38618
30
5.68
0
VERTEX
10
8.40222
20
9.39455
30
5.68
0
VERTEX
10
8.3905
20
9.40794
30
5.68
0
VERTEX
10
8.37879
20
9.41798
30
5.68
0
VERTEX
10
8.37042
20
9.42969
30
5.68
0
VERTEX
10
8.37042
20
9.43639
30
5.68
0
VERTEX
10
8.36373
20
9.44308
30
5.68
0
VERTEX
10
8.36205
20
9.44977
30
5.68
0
VERTEX
10
8.35034
20
9.46149
30
5.68
0
VERTEX
10
8.34365
20
9.4732
30
5.68
0
VERTEX
10
8.3403
20
9.47655
30
5.68
0
VERTEX
10
8.3403
20
9.47989
30
5.68
0
VERTEX
10
8.33026
20
9.49161
30
5.68
0
VERTEX
10
8.31687
20
9.49328
30
5.68
0
VERTEX
10
8.3085
20
9.50667
30
5.68
0
VERTEX
10
8.30181
20
9.51169
30
5.68
0
VERTEX
10
8.29512
20
9.51336
30
5.68
0
VERTEX
10
8.28173
20
9.52508
30
5.68
0
VERTEX
10
8.27838
20
9.52508
30
5.68
0
VERTEX
10
8.27336
20
9.5301
30
5.68
0
VERTEX
10
8.25998
20
9.53177
30
5.68
0
VERTEX
10
8.2332
20
9.52675
30
5.68
0
VERTEX
10
8.22651
20
9.52508
30
5.68
0
VERTEX
10
8.22316
20
9.52508
30
5.68
0
VERTEX
10
8.21981
20
9.52173
30
5.68
0
VERTEX
10
8.21814
20
9.51504
30
5.68
0
VERTEX
10
8.21479
20
9.51336
30
5.68
0
VERTEX
10
8.21312
20
9.49998
30
5.68
0
VERTEX
10
8.21312
20
9.4983
30
5.68
0
SEQEND
0
ENDSEC
0
EOF
