0
SECTION
2
ENTITIES
0
POLYLINE
62
31
66
1
70
1
3
contour
0
VERTEX
10
8.80741
20
9.26862
30
5.76
0
VERTEX
10
8.81185
20
9.25089
30
5.76
0
VERTEX
10
8.82071
20
9.23315
30
5.76
0
VERTEX
10
8.82071
20
9.22428
30
5.76
0
VERTEX
10
8.82515
20
9.21984
30
5.76
0
VERTEX
10
8.8318
20
9.2021
30
5.76
0
VERTEX
10
8.84289
20
9.18658
30
5.76
0
VERTEX
10
8.85176
20
9.18436
30
5.76
0
VERTEX
10
8.86063
20
9.17771
30
5.76
0
VERTEX
10
8.86506
20
9.17771
30
5.76
0
VERTEX
10
8.8828
20
9.16662
30
5.76
0
VERTEX
10
8.88502
20
9.16219
30
5.76
0
VERTEX
10
8.90276
20
9.15776
30
5.76
0
VERTEX
10
8.90941
20
9.1511
30
5.76
0
VERTEX
10
8.94489
20
9.14002
30
5.76
0
VERTEX
10
8.95376
20
9.1378
30
5.76
0
VERTEX
10
8.9715
20
9.12671
30
5.76
0
VERTEX
10
8.97593
20
9.12228
30
5.76
0
VERTEX
10
8.9848
20
9.12006
30
5.76
0
VERTEX
10
8.98924
20
9.12006
30
5.76
0
VERTEX
10
8.99145
20
9.11563
30
5.76
0
VERTEX
10
9.00919
20
9.10897
30
5.76
0
VERTEX
10
9.04467
20
9.10676
30
5.76
0
VERTEX
10
9.11563
20
9.11563
30
5.76
0
VERTEX
10
9.13336
20
9.11784
30
5.76
0
VERTEX
10
9.14223
20
9.11784
30
5.76
0
VERTEX
10
9.21319
20
9.1378
30
5.76
0
VERTEX
10
9.22871
20
9.14667
30
5.76
0
VERTEX
10
9.23536
20
9.1511
30
5.76
0
VERTEX
10
9.23758
20
9.15997
30
5.76
0
VERTEX
10
9.26197
20
9.19323
30
5.76
0
VERTEX
10
9.27749
20
9.2021
30
5.76
0
VERTEX
10
9.28193
20
9.21097
30
5.76
0
VERTEX
10
9.28636
20
9.21541
30
5.76
0
VERTEX
10
9.2908
20
9.25089
30
5.76
0
VERTEX
10
9.2908
20
9.28636
30
5.76
0
VERTEX
10
9.28636
20
9.32184
30
5.76
0
VERTEX
10
9.28636
20
9.33071
30
5.76
0
VERTEX
10
9.27306
20
9.36619
30
5.76
0
VERTEX
10
9.26641
20
9.38393
30
5.76
0
VERTEX
10
9.26197
20
9.38836
30
5.76
0
VERTEX
10
9.26197
20
9.3928
30
5.76
0
VERTEX
10
9.23536
20
9.42606
30
5.76
0
VERTEX
10
9.22649
20
9.43271
30
5.76
0
VERTEX
10
9.22428
20
9.43714
30
5.76
0
VERTEX
10
9.20654
20
9.44158
30
5.76
0
VERTEX
10
9.19989
20
9.45045
30
5.76
0
VERTEX
10
9.18436
20
9.46154
30
5.76
0
VERTEX
10
9.17549
20
9.46154
30
5.76
0
VERTEX
10
9.16662
20
9.46819
30
5.76
0
VERTEX
10
9.14889
20
9.46819
30
5.76
0
VERTEX
10
9.13115
20
9.47484
30
5.76
0
VERTEX
10
9.11341
20
9.47706
30
5.76
0
VERTEX
10
9.10676
20
9.47927
30
5.76
0
VERTEX
10
9.09789
20
9.48593
30
5.76
0
VERTEX
10
9.06241
20
9.48371
30
5.76
0
VERTEX
10
9.04467
20
9.47484
30
5.76
0
VERTEX
10
9.02693
20
9.47262
30
5.76
0
VERTEX
10
9.00919
20
9.46597
30
5.76
0
VERTEX
10
9.00254
20
9.45932
30
5.76
0
VERTEX
10
8.96706
20
9.44601
30
5.76
0
VERTEX
10
8.94932
20
9.43714
30
5.76
0
VERTEX
10
8.94489
20
9.43714
30
5.76
0
VERTEX
10
8.93602
20
9.42828
30
5.76
0
VERTEX
10
8.91828
20
9.42162
30
5.76
0
VERTEX
10
8.90054
20
9.41054
30
5.76
0
VERTEX
10
8.8828
20
9.4061
30
5.76
0
VERTEX
10
8.86506
20
9.39501
30
5.76
0
VERTEX
10
8.85619
20
9.39058
30
5.76
0
VERTEX
10
8.84511
20
9.37506
30
5.76
0
VERTEX
10
8.82958
20
9.36397
30
5.76
0
VERTEX
10
8.82515
20
9.35954
30
5.76
0
VERTEX
10
8.82515
20
9.3551
30
5.76
0
VERTEX
10
8.8185
20
9.34845
30
5.76
0
VERTEX
10
8.81628
20
9.33958
30
5.76
0
VERTEX
10
8.80741
20
9.33515
30
5.76
0
VERTEX
10
8.80741
20
9.29967
30
5.76
0
VERTEX
10
8.80741
20
9.28193
30
5.76
0
VERTEX
10
8.80741
20
9.27306
30
5.76
0
VERTEX
10
8.80741
20
9.27084
30
5.76
0
SEQEND
0
POLYLINE
62
31
66
1
70
1
3
contour
0
VERTEX
10
8.17863
20
9.44244
30
5.76
0
VERTEX
10
8.18521
20
9.41612
30
5.76
0
VERTEX
10
8.18521
20
9.40295
30
5.76
0
VERTEX
10
8.18521
20
9.39637
30
5.76
0
VERTEX
10
8.20825
20
9.37333
30
5.76
0
VERTEX
10
8.21812
20
9.36346
30
5.76
0
VERTEX
10
8.23128
20
9.36017
30
5.76
0
VERTEX
10
8.25761
20
9.34371
30
5.76
0
VERTEX
10
8.27078
20
9.34371
30
5.76
0
VERTEX
10
8.29711
20
9.33384
30
5.76
0
VERTEX
10
8.32344
20
9.33384
30
5.76
0
VERTEX
10
8.37281
20
9.31409
30
5.76
0
VERTEX
10
8.3761
20
9.30751
30
5.76
0
VERTEX
10
8.40243
20
9.30421
30
5.76
0
VERTEX
10
8.45179
20
9.27459
30
5.76
0
VERTEX
10
8.47812
20
9.25485
30
5.76
0
VERTEX
10
8.48471
20
9.24826
30
5.76
0
VERTEX
10
8.49129
20
9.24826
30
5.76
0
VERTEX
10
8.51433
20
9.22852
30
5.76
0
VERTEX
10
8.54066
20
9.21535
30
5.76
0
VERTEX
10
8.56699
20
9.20877
30
5.76
0
VERTEX
10
8.59332
20
9.19561
30
5.76
0
VERTEX
10
8.60648
20
9.19561
30
5.76
0
VERTEX
10
8.61965
20
9.18902
30
5.76
0
VERTEX
10
8.64598
20
9.18902
30
5.76
0
VERTEX
10
8.65256
20
9.18902
30
5.76
0
VERTEX
10
8.65914
20
9.19561
30
5.76
0
VERTEX
10
8.65914
20
9.20219
30
5.76
0
VERTEX
10
8.6361
20
9.22852
30
5.76
0
VERTEX
10
8.62623
20
9.24168
30
5.76
0
VERTEX
10
8.61965
20
9.24826
30
5.76
0
VERTEX
10
8.61965
20
9.25485
30
5.76
0
VERTEX
10
8.57357
20
9.29763
30
5.76
0
VERTEX
10
8.56699
20
9.30092
30
5.76
0
VERTEX
10
8.56699
20
9.30751
30
5.76
0
VERTEX
10
8.54395
20
9.33054
30
5.76
0
VERTEX
10
8.53078
20
9.34042
30
5.76
0
VERTEX
10
8.5242
20
9.34042
30
5.76
0
VERTEX
10
8.50116
20
9.36675
30
5.76
0
VERTEX
10
8.488
20
9.37333
30
5.76
0
VERTEX
10
8.48471
20
9.38649
30
5.76
0
VERTEX
10
8.47812
20
9.38649
30
5.76
0
VERTEX
10
8.47154
20
9.41282
30
5.76
0
VERTEX
10
8.47483
20
9.46548
30
5.76
0
VERTEX
10
8.46496
20
9.47865
30
5.76
0
VERTEX
10
8.45509
20
9.50169
30
5.76
0
VERTEX
10
8.43205
20
9.52472
30
5.76
0
VERTEX
10
8.42876
20
9.53789
30
5.76
0
VERTEX
10
8.41559
20
9.54118
30
5.76
0
VERTEX
10
8.38926
20
9.55764
30
5.76
0
VERTEX
10
8.37939
20
9.5708
30
5.76
0
VERTEX
10
8.36622
20
9.57738
30
5.76
0
VERTEX
10
8.31356
20
9.57738
30
5.76
0
VERTEX
10
8.3004
20
9.57738
30
5.76
0
VERTEX
10
8.27407
20
9.56751
30
5.76
0
VERTEX
10
8.2642
20
9.55764
30
5.76
0
VERTEX
10
8.25103
20
9.55435
30
5.76
0
VERTEX
10
8.24445
20
9.55435
30
5.76
0
VERTEX
10
8.22141
20
9.5346
30
5.76
0
VERTEX
10
8.19508
20
9.50827
30
5.76
0
VERTEX
10
8.17863
20
9.48523
30
5.76
0
VERTEX
10
8.17863
20
9.4589
30
5.76
0
VERTEX
10
8.17863
20
9.44574
30
5.76
0
SEQEND
0
POLYLINE
62
31
66
1
70
1
3
contour
0
VERTEX
10
7.73143
20
9.24734
30
5.76
0
VERTEX
10
7.76073
20
9.21004
30
5.76
0
VERTEX
10
7.76606
20
9.21004
30
5.76
0
VERTEX
10
7.77405
20
9.20205
30
5.76
0
VERTEX
10
7.79537
20
9.19938
30
5.76
0
VERTEX
10
7.81668
20
9.20738
30
5.76
0
VERTEX
10
7.83533
20
9.2207
30
5.76
0
VERTEX
10
7.84599
20
9.22603
30
5.76
0
VERTEX
10
7.84599
20
9.24734
30
5.76
0
VERTEX
10
7.84332
20
9.258
30
5.76
0
VERTEX
10
7.84332
20
9.26332
30
5.76
0
VERTEX
10
7.80869
20
9.30062
30
5.76
0
VERTEX
10
7.81135
20
9.31128
30
5.76
0
VERTEX
10
7.80069
20
9.31394
30
5.76
0
VERTEX
10
7.77938
20
9.30595
30
5.76
0
VERTEX
10
7.76872
20
9.30329
30
5.76
0
VERTEX
10
7.75007
20
9.28464
30
5.76
0
VERTEX
10
7.74741
20
9.27398
30
5.76
0
VERTEX
10
7.74475
20
9.26865
30
5.76
0
VERTEX
10
7.73409
20
9.26599
30
5.76
0
VERTEX
10
7.73143
20
9.25533
30
5.76
0
VERTEX
10
7.73143
20
9.25
30
5.76
0
SEQEND
0
POLYLINE
62
224
66
1
70
1
3
mitochondrion
0
VERTEX
10
9.09202
20
9.32978
30
5.76
0
VERTEX
10
9.09341
20
9.30754
30
5.76
0
VERTEX
10
9.09341
20
9.30198
30
5.76
0
VERTEX
10
9.09758
20
9.29641
30
5.76
0
VERTEX
10
9.09897
20
9.28529
30
5.76
0
VERTEX
10
9.10314
20
9.27417
30
5.76
0
VERTEX
10
9.10314
20
9.27139
30
5.76
0
VERTEX
10
9.10732
20
9.26582
30
5.76
0
VERTEX
10
9.10871
20
9.26026
30
5.76
0
VERTEX
10
9.11705
20
9.25192
30
5.76
0
VERTEX
10
9.11844
20
9.24636
30
5.76
0
VERTEX
10
9.124
20
9.2408
30
5.76
0
VERTEX
10
9.13095
20
9.23106
30
5.76
0
VERTEX
10
9.14069
20
9.22133
30
5.76
0
VERTEX
10
9.14625
20
9.21855
30
5.76
0
VERTEX
10
9.16849
20
9.21716
30
5.76
0
VERTEX
10
9.19074
20
9.21855
30
5.76
0
VERTEX
10
9.1963
20
9.21994
30
5.76
0
VERTEX
10
9.20743
20
9.22689
30
5.76
0
VERTEX
10
9.21577
20
9.23663
30
5.76
0
VERTEX
10
9.22689
20
9.24358
30
5.76
0
VERTEX
10
9.23663
20
9.2547
30
5.76
0
VERTEX
10
9.25192
20
9.27417
30
5.76
0
VERTEX
10
9.25053
20
9.31866
30
5.76
0
VERTEX
10
9.25053
20
9.32978
30
5.76
0
VERTEX
10
9.2408
20
9.35064
30
5.76
0
VERTEX
10
9.23941
20
9.3562
30
5.76
0
VERTEX
10
9.23941
20
9.35898
30
5.76
0
VERTEX
10
9.22411
20
9.38123
30
5.76
0
VERTEX
10
9.22272
20
9.38401
30
5.76
0
VERTEX
10
9.21994
20
9.38401
30
5.76
0
VERTEX
10
9.21021
20
9.39374
30
5.76
0
VERTEX
10
9.20743
20
9.39513
30
5.76
0
VERTEX
10
9.20743
20
9.39792
30
5.76
0
VERTEX
10
9.20187
20
9.40209
30
5.76
0
VERTEX
10
9.15737
20
9.40487
30
5.76
0
VERTEX
10
9.13512
20
9.40348
30
5.76
0
VERTEX
10
9.124
20
9.4007
30
5.76
0
VERTEX
10
9.11844
20
9.39653
30
5.76
0
VERTEX
10
9.11705
20
9.39374
30
5.76
0
VERTEX
10
9.11149
20
9.39235
30
5.76
0
VERTEX
10
9.10175
20
9.38401
30
5.76
0
VERTEX
10
9.09897
20
9.37984
30
5.76
0
VERTEX
10
9.09341
20
9.37567
30
5.76
0
VERTEX
10
9.09202
20
9.33118
30
5.76
0
SEQEND
0
POLYLINE
62
236
66
1
70
1
3
postsynaptic_density
0
VERTEX
10
8.33085
20
9.5607
30
5.76
0
VERTEX
10
8.33272
20
9.55323
30
5.76
0
VERTEX
10
8.33272
20
9.5495
30
5.76
0
VERTEX
10
8.35698
20
9.52151
30
5.76
0
VERTEX
10
8.38684
20
9.52337
30
5.76
0
VERTEX
10
8.40177
20
9.52897
30
5.76
0
VERTEX
10
8.40923
20
9.53084
30
5.76
0
VERTEX
10
8.4167
20
9.53644
30
5.76
0
VERTEX
10
8.42043
20
9.5439
30
5.76
0
VERTEX
10
8.4223
20
9.55883
30
5.76
0
VERTEX
10
8.42043
20
9.57376
30
5.76
0
VERTEX
10
8.41857
20
9.57749
30
5.76
0
VERTEX
10
8.35885
20
9.59802
30
5.76
0
VERTEX
10
8.35138
20
9.59429
30
5.76
0
VERTEX
10
8.34765
20
9.59056
30
5.76
0
VERTEX
10
8.34018
20
9.58869
30
5.76
0
VERTEX
10
8.33645
20
9.58869
30
5.76
0
VERTEX
10
8.33085
20
9.58123
30
5.76
0
VERTEX
10
8.33085
20
9.5663
30
5.76
0
VERTEX
10
8.33085
20
9.56256
30
5.76
0
SEQEND
0
POLYLINE
62
227
66
1
70
1
3
endoplasmic_reticulum
0
VERTEX
10
8.96277
20
9.20843
30
5.76
0
VERTEX
10
8.96905
20
9.20125
30
5.76
0
VERTEX
10
8.98339
20
9.20215
30
5.76
0
VERTEX
10
8.99056
20
9.20484
30
5.76
0
VERTEX
10
8.99415
20
9.20574
30
5.76
0
VERTEX
10
9.00581
20
9.21739
30
5.76
0
VERTEX
10
9.0076
20
9.21918
30
5.76
0
VERTEX
10
9.00939
20
9.22636
30
5.76
0
VERTEX
10
9.01208
20
9.22994
30
5.76
0
VERTEX
10
9.01387
20
9.23174
30
5.76
0
VERTEX
10
9.01387
20
9.24608
30
5.76
0
VERTEX
10
9.01118
20
9.26042
30
5.76
0
VERTEX
10
9.0085
20
9.2676
30
5.76
0
VERTEX
10
8.99774
20
9.27925
30
5.76
0
VERTEX
10
8.99505
20
9.28194
30
5.76
0
VERTEX
10
8.99594
20
9.28284
30
5.76
0
VERTEX
10
8.99415
20
9.28373
30
5.76
0
VERTEX
10
8.97981
20
9.28015
30
5.76
0
VERTEX
10
8.97622
20
9.27836
30
5.76
0
VERTEX
10
8.97084
20
9.27118
30
5.76
0
VERTEX
10
8.96905
20
9.25684
30
5.76
0
VERTEX
10
8.96725
20
9.25325
30
5.76
0
VERTEX
10
8.96456
20
9.23891
30
5.76
0
VERTEX
10
8.96456
20
9.22456
30
5.76
0
VERTEX
10
8.96277
20
9.21022
30
5.76
0
VERTEX
10
8.96277
20
9.20932
30
5.76
0
SEQEND
0
POLYLINE
62
227
66
1
70
1
3
endoplasmic_reticulum
0
VERTEX
10
8.9565
20
9.37608
30
5.76
0
VERTEX
10
8.95739
20
9.36891
30
5.76
0
VERTEX
10
8.96367
20
9.36353
30
5.76
0
VERTEX
10
8.97084
20
9.35994
30
5.76
0
VERTEX
10
8.97801
20
9.35904
30
5.76
0
VERTEX
10
8.9816
20
9.35904
30
5.76
0
VERTEX
10
8.98339
20
9.35904
30
5.76
0
VERTEX
10
8.98519
20
9.36084
30
5.76
0
VERTEX
10
8.99236
20
9.36263
30
5.76
0
VERTEX
10
8.99415
20
9.36263
30
5.76
0
VERTEX
10
8.99594
20
9.36442
30
5.76
0
VERTEX
10
8.99774
20
9.36442
30
5.76
0
VERTEX
10
9.00043
20
9.36801
30
5.76
0
VERTEX
10
9.0076
20
9.3707
30
5.76
0
VERTEX
10
9.01118
20
9.37249
30
5.76
0
VERTEX
10
9.01298
20
9.37249
30
5.76
0
VERTEX
10
9.01387
20
9.37608
30
5.76
0
VERTEX
10
9.01567
20
9.37608
30
5.76
0
VERTEX
10
9.01656
20
9.37787
30
5.76
0
VERTEX
10
9.02015
20
9.37877
30
5.76
0
VERTEX
10
9.02284
20
9.38146
30
5.76
0
VERTEX
10
9.02463
20
9.38236
30
5.76
0
VERTEX
10
9.02463
20
9.38953
30
5.76
0
VERTEX
10
9.02463
20
9.39311
30
5.76
0
VERTEX
10
9.02015
20
9.40029
30
5.76
0
VERTEX
10
9.01836
20
9.40387
30
5.76
0
VERTEX
10
9.01746
20
9.40567
30
5.76
0
VERTEX
10
9.00312
20
9.40567
30
5.76
0
VERTEX
10
8.99594
20
9.40567
30
5.76
0
VERTEX
10
8.9816
20
9.40208
30
5.76
0
VERTEX
10
8.97801
20
9.39939
30
5.76
0
VERTEX
10
8.97443
20
9.39849
30
5.76
0
VERTEX
10
8.97263
20
9.39849
30
5.76
0
VERTEX
10
8.97084
20
9.3967
30
5.76
0
VERTEX
10
8.96725
20
9.3958
30
5.76
0
VERTEX
10
8.96098
20
9.39132
30
5.76
0
VERTEX
10
8.9565
20
9.38415
30
5.76
0
VERTEX
10
8.9565
20
9.37698
30
5.76
0
SEQEND
0
ENDSEC
0
EOF
