0
SECTION
2
ENTITIES
0
POLYLINE
62
31
66
1
70
1
3
contour
0
VERTEX
10
8.03937
20
9.65414
30
7.24
0
VERTEX
10
8.05906
20
9.57537
30
7.24
0
VERTEX
10
8.07383
20
9.53598
30
7.24
0
VERTEX
10
8.07876
20
9.51629
30
7.24
0
VERTEX
10
8.11322
20
9.48183
30
7.24
0
VERTEX
10
8.19199
20
9.47691
30
7.24
0
VERTEX
10
8.23137
20
9.46706
30
7.24
0
VERTEX
10
8.25106
20
9.46214
30
7.24
0
VERTEX
10
8.26091
20
9.45229
30
7.24
0
VERTEX
10
8.30029
20
9.43752
30
7.24
0
VERTEX
10
8.37906
20
9.44245
30
7.24
0
VERTEX
10
8.39876
20
9.44245
30
7.24
0
VERTEX
10
8.43814
20
9.46214
30
7.24
0
VERTEX
10
8.47752
20
9.46706
30
7.24
0
VERTEX
10
8.55137
20
9.51137
30
7.24
0
VERTEX
10
8.63014
20
9.56552
30
7.24
0
VERTEX
10
8.63999
20
9.56552
30
7.24
0
VERTEX
10
8.65476
20
9.58522
30
7.24
0
VERTEX
10
8.67445
20
9.59506
30
7.24
0
VERTEX
10
8.68429
20
9.59506
30
7.24
0
VERTEX
10
8.69414
20
9.61475
30
7.24
0
VERTEX
10
8.7286
20
9.64429
30
7.24
0
VERTEX
10
8.73845
20
9.66398
30
7.24
0
VERTEX
10
8.74829
20
9.66891
30
7.24
0
VERTEX
10
8.75322
20
9.6886
30
7.24
0
VERTEX
10
8.78768
20
9.71322
30
7.24
0
VERTEX
10
8.82214
20
9.74768
30
7.24
0
VERTEX
10
8.83199
20
9.75752
30
7.24
0
VERTEX
10
8.87137
20
9.76737
30
7.24
0
VERTEX
10
8.90583
20
9.78706
30
7.24
0
VERTEX
10
8.92552
20
9.79691
30
7.24
0
VERTEX
10
8.94522
20
9.8166
30
7.24
0
VERTEX
10
8.96983
20
9.85106
30
7.24
0
VERTEX
10
8.96983
20
9.92983
30
7.24
0
VERTEX
10
8.95999
20
9.93968
30
7.24
0
VERTEX
10
8.95999
20
9.94952
30
7.24
0
VERTEX
10
8.93537
20
9.98891
30
7.24
0
VERTEX
10
8.92552
20
9.99875
30
7.24
0
VERTEX
10
8.90583
20
10.0037
30
7.24
0
VERTEX
10
8.90091
20
10.0135
30
7.24
0
VERTEX
10
8.89106
20
10.0135
30
7.24
0
VERTEX
10
8.88122
20
10.0234
30
7.24
0
VERTEX
10
8.87137
20
10.0234
30
7.24
0
VERTEX
10
8.86152
20
10.0332
30
7.24
0
VERTEX
10
8.82214
20
10.0431
30
7.24
0
VERTEX
10
8.74337
20
10.0431
30
7.24
0
VERTEX
10
8.70399
20
10.0431
30
7.24
0
VERTEX
10
8.62522
20
10.0578
30
7.24
0
VERTEX
10
8.31014
20
10.0775
30
7.24
0
VERTEX
10
8.23137
20
10.0775
30
7.24
0
VERTEX
10
8.1526
20
10.0677
30
7.24
0
VERTEX
10
8.11322
20
10.0677
30
7.24
0
VERTEX
10
8.10337
20
10.0726
30
7.24
0
VERTEX
10
8.07383
20
10.0381
30
7.24
0
VERTEX
10
8.06891
20
9.99875
30
7.24
0
VERTEX
10
8.07383
20
9.91998
30
7.24
0
VERTEX
10
8.06399
20
9.84121
30
7.24
0
VERTEX
10
8.04922
20
9.80183
30
7.24
0
VERTEX
10
8.04922
20
9.79198
30
7.24
0
VERTEX
10
8.03937
20
9.78214
30
7.24
0
VERTEX
10
8.03937
20
9.70337
30
7.24
0
VERTEX
10
8.03937
20
9.66398
30
7.24
0
VERTEX
10
8.03937
20
9.65906
30
7.24
0
SEQEND
0
POLYLINE
62
224
66
1
70
1
3
mitochondrion
0
VERTEX
10
8.18685
20
9.73579
30
7.24
0
VERTEX
10
8.18963
20
9.72467
30
7.24
0
VERTEX
10
8.19102
20
9.70242
30
7.24
0
VERTEX
10
8.19102
20
9.69686
30
7.24
0
VERTEX
10
8.20354
20
9.676
30
7.24
0
VERTEX
10
8.20632
20
9.67322
30
7.24
0
VERTEX
10
8.20771
20
9.66766
30
7.24
0
VERTEX
10
8.223
20
9.64541
30
7.24
0
VERTEX
10
8.223
20
9.64263
30
7.24
0
VERTEX
10
8.22717
20
9.63707
30
7.24
0
VERTEX
10
8.22995
20
9.63429
30
7.24
0
VERTEX
10
8.22995
20
9.62873
30
7.24
0
VERTEX
10
8.22995
20
9.62595
30
7.24
0
VERTEX
10
8.23969
20
9.61482
30
7.24
0
VERTEX
10
8.24386
20
9.61343
30
7.24
0
VERTEX
10
8.28418
20
9.57589
30
7.24
0
VERTEX
10
8.2953
20
9.57033
30
7.24
0
VERTEX
10
8.30643
20
9.56894
30
7.24
0
VERTEX
10
8.32868
20
9.55782
30
7.24
0
VERTEX
10
8.3398
20
9.55364
30
7.24
0
VERTEX
10
8.34536
20
9.55225
30
7.24
0
VERTEX
10
8.34814
20
9.55225
30
7.24
0
VERTEX
10
8.35092
20
9.54947
30
7.24
0
VERTEX
10
8.36205
20
9.54669
30
7.24
0
VERTEX
10
8.40654
20
9.54669
30
7.24
0
VERTEX
10
8.45103
20
9.54391
30
7.24
0
VERTEX
10
8.46216
20
9.54669
30
7.24
0
VERTEX
10
8.47328
20
9.55503
30
7.24
0
VERTEX
10
8.47606
20
9.55503
30
7.24
0
VERTEX
10
8.49831
20
9.57033
30
7.24
0
VERTEX
10
8.50943
20
9.57172
30
7.24
0
VERTEX
10
8.51916
20
9.57728
30
7.24
0
VERTEX
10
8.52473
20
9.57867
30
7.24
0
VERTEX
10
8.54558
20
9.59675
30
7.24
0
VERTEX
10
8.54558
20
9.59953
30
7.24
0
VERTEX
10
8.55114
20
9.60509
30
7.24
0
VERTEX
10
8.56227
20
9.61204
30
7.24
0
VERTEX
10
8.56783
20
9.61621
30
7.24
0
VERTEX
10
8.57339
20
9.6176
30
7.24
0
VERTEX
10
8.58451
20
9.62734
30
7.24
0
VERTEX
10
8.59425
20
9.63429
30
7.24
0
VERTEX
10
8.59981
20
9.63568
30
7.24
0
VERTEX
10
8.61093
20
9.64402
30
7.24
0
VERTEX
10
8.62901
20
9.6621
30
7.24
0
VERTEX
10
8.63457
20
9.66349
30
7.24
0
VERTEX
10
8.6443
20
9.67322
30
7.24
0
VERTEX
10
8.64708
20
9.67322
30
7.24
0
VERTEX
10
8.66516
20
9.69547
30
7.24
0
VERTEX
10
8.67906
20
9.71493
30
7.24
0
VERTEX
10
8.68741
20
9.73718
30
7.24
0
VERTEX
10
8.6888
20
9.75943
30
7.24
0
VERTEX
10
8.68463
20
9.78167
30
7.24
0
VERTEX
10
8.68323
20
9.80392
30
7.24
0
VERTEX
10
8.67906
20
9.82617
30
7.24
0
VERTEX
10
8.67628
20
9.83173
30
7.24
0
VERTEX
10
8.67628
20
9.83729
30
7.24
0
VERTEX
10
8.66794
20
9.84702
30
7.24
0
VERTEX
10
8.66377
20
9.84981
30
7.24
0
VERTEX
10
8.6596
20
9.85537
30
7.24
0
VERTEX
10
8.63874
20
9.86927
30
7.24
0
VERTEX
10
8.62901
20
9.87622
30
7.24
0
VERTEX
10
8.62345
20
9.879
30
7.24
0
VERTEX
10
8.61232
20
9.879
30
7.24
0
VERTEX
10
8.60259
20
9.88457
30
7.24
0
VERTEX
10
8.6012
20
9.88735
30
7.24
0
VERTEX
10
8.55671
20
9.89986
30
7.24
0
VERTEX
10
8.53446
20
9.90403
30
7.24
0
VERTEX
10
8.51221
20
9.90542
30
7.24
0
VERTEX
10
8.48997
20
9.90959
30
7.24
0
VERTEX
10
8.47884
20
9.91377
30
7.24
0
VERTEX
10
8.45659
20
9.91516
30
7.24
0
VERTEX
10
8.43435
20
9.91933
30
7.24
0
VERTEX
10
8.42879
20
9.92072
30
7.24
0
VERTEX
10
8.42322
20
9.92489
30
7.24
0
VERTEX
10
8.40098
20
9.92628
30
7.24
0
VERTEX
10
8.38985
20
9.92906
30
7.24
0
VERTEX
10
8.37873
20
9.92906
30
7.24
0
VERTEX
10
8.37317
20
9.92906
30
7.24
0
VERTEX
10
8.36205
20
9.9235
30
7.24
0
VERTEX
10
8.35509
20
9.92211
30
7.24
0
VERTEX
10
8.35231
20
9.91933
30
7.24
0
VERTEX
10
8.30782
20
9.90959
30
7.24
0
VERTEX
10
8.28696
20
9.90125
30
7.24
0
VERTEX
10
8.27584
20
9.89291
30
7.24
0
VERTEX
10
8.26472
20
9.89013
30
7.24
0
VERTEX
10
8.25498
20
9.88039
30
7.24
0
VERTEX
10
8.2522
20
9.87483
30
7.24
0
VERTEX
10
8.24803
20
9.87344
30
7.24
0
VERTEX
10
8.22717
20
9.85676
30
7.24
0
VERTEX
10
8.21744
20
9.84842
30
7.24
0
VERTEX
10
8.21049
20
9.83868
30
7.24
0
VERTEX
10
8.20076
20
9.81783
30
7.24
0
VERTEX
10
8.1938
20
9.80809
30
7.24
0
VERTEX
10
8.18824
20
9.78585
30
7.24
0
VERTEX
10
8.18685
20
9.74135
30
7.24
0
VERTEX
10
8.18685
20
9.73718
30
7.24
0
SEQEND
0
POLYLINE
62
227
66
1
70
1
3
endoplasmic_reticulum
0
VERTEX
10
8.86146
20
9.89877
30
7.24
0
VERTEX
10
8.86505
20
9.89159
30
7.24
0
VERTEX
10
8.86594
20
9.87725
30
7.24
0
VERTEX
10
8.86953
20
9.87456
30
7.24
0
VERTEX
10
8.88388
20
9.87546
30
7.24
0
VERTEX
10
8.89105
20
9.87815
30
7.24
0
VERTEX
10
8.89463
20
9.87815
30
7.24
0
VERTEX
10
8.90898
20
9.88711
30
7.24
0
VERTEX
10
8.91077
20
9.88711
30
7.24
0
VERTEX
10
8.91256
20
9.8889
30
7.24
0
VERTEX
10
8.92691
20
9.89339
30
7.24
0
VERTEX
10
8.93319
20
9.89966
30
7.24
0
VERTEX
10
8.93408
20
9.91401
30
7.24
0
VERTEX
10
8.92332
20
9.92746
30
7.24
0
VERTEX
10
8.92063
20
9.93014
30
7.24
0
VERTEX
10
8.89194
20
9.93104
30
7.24
0
VERTEX
10
8.88477
20
9.92925
30
7.24
0
VERTEX
10
8.8785
20
9.92477
30
7.24
0
VERTEX
10
8.87491
20
9.92387
30
7.24
0
VERTEX
10
8.87312
20
9.92387
30
7.24
0
VERTEX
10
8.86415
20
9.91042
30
7.24
0
VERTEX
10
8.86146
20
9.90325
30
7.24
0
VERTEX
10
8.86146
20
9.89966
30
7.24
0
SEQEND
0
POLYLINE
62
227
66
1
70
1
3
endoplasmic_reticulum
0
VERTEX
10
8.48133
20
9.99021
30
7.24
0
VERTEX
10
8.49477
20
9.97945
30
7.24
0
VERTEX
10
8.50195
20
9.97677
30
7.24
0
VERTEX
10
8.50553
20
9.97408
30
7.24
0
VERTEX
10
8.51271
20
9.97318
30
7.24
0
VERTEX
10
8.5145
20
9.97139
30
7.24
0
VERTEX
10
8.52167
20
9.97049
30
7.24
0
VERTEX
10
8.53602
20
9.97228
30
7.24
0
VERTEX
10
8.54319
20
9.97408
30
7.24
0
VERTEX
10
8.54946
20
9.98035
30
7.24
0
VERTEX
10
8.55126
20
9.98394
30
7.24
0
VERTEX
10
8.55126
20
9.99828
30
7.24
0
VERTEX
10
8.55036
20
10.0001
30
7.24
0
VERTEX
10
8.54857
20
10.0001
30
7.24
0
VERTEX
10
8.54857
20
10.0019
30
7.24
0
VERTEX
10
8.54139
20
10.0046
30
7.24
0
VERTEX
10
8.53422
20
10.0055
30
7.24
0
VERTEX
10
8.52795
20
10.009
30
7.24
0
VERTEX
10
8.52077
20
10.0108
30
7.24
0
VERTEX
10
8.51719
20
10.0117
30
7.24
0
VERTEX
10
8.51091
20
10.018
30
7.24
0
VERTEX
10
8.51002
20
10.0216
30
7.24
0
VERTEX
10
8.50643
20
10.0252
30
7.24
0
VERTEX
10
8.50284
20
10.0252
30
7.24
0
VERTEX
10
8.49567
20
10.0225
30
7.24
0
VERTEX
10
8.4885
20
10.018
30
7.24
0
VERTEX
10
8.48581
20
10.0144
30
7.24
0
VERTEX
10
8.48133
20
10.0001
30
7.24
0
VERTEX
10
8.48133
20
9.9929
30
7.24
0
VERTEX
10
8.48133
20
9.99111
30
7.24
0
SEQEND
0
POLYLINE
62
227
66
1
70
1
3
endoplasmic_reticulum
0
VERTEX
10
8.22671
20
9.94001
30
7.24
0
VERTEX
10
8.2285
20
9.93283
30
7.24
0
VERTEX
10
8.23298
20
9.92566
30
7.24
0
VERTEX
10
8.23567
20
9.92208
30
7.24
0
VERTEX
10
8.24195
20
9.91849
30
7.24
0
VERTEX
10
8.24553
20
9.91759
30
7.24
0
VERTEX
10
8.24733
20
9.91759
30
7.24
0
VERTEX
10
8.24912
20
9.91939
30
7.24
0
VERTEX
10
8.25629
20
9.91939
30
7.24
0
VERTEX
10
8.26347
20
9.92118
30
7.24
0
VERTEX
10
8.26705
20
9.92208
30
7.24
0
VERTEX
10
8.27333
20
9.92835
30
7.24
0
VERTEX
10
8.27781
20
9.93552
30
7.24
0
VERTEX
10
8.2814
20
9.93821
30
7.24
0
VERTEX
10
8.28229
20
9.9418
30
7.24
0
VERTEX
10
8.28498
20
9.94539
30
7.24
0
VERTEX
10
8.28498
20
9.94718
30
7.24
0
VERTEX
10
8.29933
20
9.95256
30
7.24
0
VERTEX
10
8.30112
20
9.95435
30
7.24
0
VERTEX
10
8.30471
20
9.95525
30
7.24
0
VERTEX
10
8.31098
20
9.95973
30
7.24
0
VERTEX
10
8.31367
20
9.96242
30
7.24
0
VERTEX
10
8.31726
20
9.96332
30
7.24
0
VERTEX
10
8.31815
20
9.97049
30
7.24
0
VERTEX
10
8.3065
20
9.97945
30
7.24
0
VERTEX
10
8.29933
20
9.98214
30
7.24
0
VERTEX
10
8.29574
20
9.98483
30
7.24
0
VERTEX
10
8.2814
20
9.98663
30
7.24
0
VERTEX
10
8.26705
20
9.98573
30
7.24
0
VERTEX
10
8.25988
20
9.98483
30
7.24
0
VERTEX
10
8.25271
20
9.98214
30
7.24
0
VERTEX
10
8.24912
20
9.98035
30
7.24
0
VERTEX
10
8.24464
20
9.97318
30
7.24
0
VERTEX
10
8.23836
20
9.9669
30
7.24
0
VERTEX
10
8.23567
20
9.96063
30
7.24
0
VERTEX
10
8.2294
20
9.95435
30
7.24
0
VERTEX
10
8.2276
20
9.95345
30
7.24
0
VERTEX
10
8.22671
20
9.94628
30
7.24
0
VERTEX
10
8.22671
20
9.9427
30
7.24
0
VERTEX
10
8.22671
20
9.9409
30
7.24
0
SEQEND
0
POLYLINE
62
227
66
1
70
1
3
endoplasmic_reticulum
0
VERTEX
10
8.0976
20
9.8638
30
7.24
0
VERTEX
10
8.10388
20
9.85752
30
7.24
0
VERTEX
10
8.11016
20
9.85394
30
7.24
0
VERTEX
10
8.11733
20
9.85215
30
7.24
0
VERTEX
10
8.13167
20
9.85215
30
7.24
0
VERTEX
10
8.13885
20
9.85573
30
7.24
0
VERTEX
10
8.14243
20
9.85932
30
7.24
0
VERTEX
10
8.14243
20
9.86111
30
7.24
0
VERTEX
10
8.14512
20
9.8647
30
7.24
0
VERTEX
10
8.14602
20
9.86828
30
7.24
0
VERTEX
10
8.1496
20
9.86918
30
7.24
0
VERTEX
10
8.1505
20
9.87635
30
7.24
0
VERTEX
10
8.1505
20
9.87815
30
7.24
0
VERTEX
10
8.14781
20
9.88083
30
7.24
0
VERTEX
10
8.14691
20
9.88442
30
7.24
0
VERTEX
10
8.14512
20
9.88621
30
7.24
0
VERTEX
10
8.14422
20
9.8898
30
7.24
0
VERTEX
10
8.14422
20
9.89159
30
7.24
0
VERTEX
10
8.13078
20
9.90056
30
7.24
0
VERTEX
10
8.1245
20
9.90504
30
7.24
0
VERTEX
10
8.12181
20
9.90863
30
7.24
0
VERTEX
10
8.10926
20
9.89428
30
7.24
0
VERTEX
10
8.10298
20
9.8898
30
7.24
0
VERTEX
10
8.10029
20
9.88621
30
7.24
0
VERTEX
10
8.0985
20
9.88442
30
7.24
0
VERTEX
10
8.0976
20
9.87008
30
7.24
0
VERTEX
10
8.0976
20
9.86649
30
7.24
0
VERTEX
10
8.0976
20
9.8647
30
7.24
0
SEQEND
0
POLYLINE
62
31
66
1
70
1
3
contour
0
VERTEX
10
7.16976
20
9.76228
30
7.24
0
VERTEX
10
7.17271
20
9.75637
30
7.24
0
VERTEX
10
7.17271
20
9.75045
30
7.24
0
VERTEX
10
7.18454
20
9.72679
30
7.24
0
VERTEX
10
7.19194
20
9.71792
30
7.24
0
VERTEX
10
7.20229
20
9.69425
30
7.24
0
VERTEX
10
7.20377
20
9.68242
30
7.24
0
VERTEX
10
7.20673
20
9.67651
30
7.24
0
VERTEX
10
7.20673
20
9.67059
30
7.24
0
VERTEX
10
7.21708
20
9.64693
30
7.24
0
VERTEX
10
7.23335
20
9.5996
30
7.24
0
VERTEX
10
7.23335
20
9.59665
30
7.24
0
VERTEX
10
7.24666
20
9.57446
30
7.24
0
VERTEX
10
7.2511
20
9.56263
30
7.24
0
VERTEX
10
7.25405
20
9.53897
30
7.24
0
VERTEX
10
7.25553
20
9.49164
30
7.24
0
VERTEX
10
7.25553
20
9.47981
30
7.24
0
VERTEX
10
7.26441
20
9.45763
30
7.24
0
VERTEX
10
7.26588
20
9.4458
30
7.24
0
VERTEX
10
7.27032
20
9.43988
30
7.24
0
VERTEX
10
7.2718
20
9.43397
30
7.24
0
VERTEX
10
7.27624
20
9.42953
30
7.24
0
VERTEX
10
7.27772
20
9.42361
30
7.24
0
VERTEX
10
7.29398
20
9.40439
30
7.24
0
VERTEX
10
7.29694
20
9.39847
30
7.24
0
VERTEX
10
7.30877
20
9.38664
30
7.24
0
VERTEX
10
7.31469
20
9.3822
30
7.24
0
VERTEX
10
7.32652
20
9.38073
30
7.24
0
VERTEX
10
7.33244
20
9.37777
30
7.24
0
VERTEX
10
7.3561
20
9.37777
30
7.24
0
VERTEX
10
7.36793
20
9.37777
30
7.24
0
VERTEX
10
7.37976
20
9.3822
30
7.24
0
VERTEX
10
7.38568
20
9.3822
30
7.24
0
VERTEX
10
7.39159
20
9.38664
30
7.24
0
VERTEX
10
7.39603
20
9.39699
30
7.24
0
VERTEX
10
7.40047
20
9.40291
30
7.24
0
VERTEX
10
7.40194
20
9.40883
30
7.24
0
VERTEX
10
7.40934
20
9.42066
30
7.24
0
VERTEX
10
7.41378
20
9.42509
30
7.24
0
VERTEX
10
7.41525
20
9.43101
30
7.24
0
VERTEX
10
7.42265
20
9.44284
30
7.24
0
VERTEX
10
7.42265
20
9.44876
30
7.24
0
VERTEX
10
7.433
20
9.47242
30
7.24
0
VERTEX
10
7.43448
20
9.48425
30
7.24
0
VERTEX
10
7.43892
20
9.49017
30
7.24
0
VERTEX
10
7.4404
20
9.49608
30
7.24
0
VERTEX
10
7.44483
20
9.502
30
7.24
0
VERTEX
10
7.44927
20
9.52418
30
7.24
0
VERTEX
10
7.45666
20
9.61883
30
7.24
0
VERTEX
10
7.4611
20
9.64249
30
7.24
0
VERTEX
10
7.46554
20
9.65432
30
7.24
0
VERTEX
10
7.46702
20
9.66616
30
7.24
0
VERTEX
10
7.4685
20
9.67207
30
7.24
0
VERTEX
10
7.4685
20
9.67503
30
7.24
0
VERTEX
10
7.47293
20
9.67799
30
7.24
0
VERTEX
10
7.47441
20
9.6839
30
7.24
0
VERTEX
10
7.48181
20
9.69573
30
7.24
0
VERTEX
10
7.4892
20
9.7194
30
7.24
0
VERTEX
10
7.4892
20
9.72235
30
7.24
0
VERTEX
10
7.49216
20
9.72531
30
7.24
0
VERTEX
10
7.49512
20
9.73714
30
7.24
0
VERTEX
10
7.50103
20
9.74454
30
7.24
0
VERTEX
10
7.50251
20
9.75045
30
7.24
0
VERTEX
10
7.50251
20
9.75341
30
7.24
0
VERTEX
10
7.51878
20
9.77707
30
7.24
0
VERTEX
10
7.52913
20
9.78743
30
7.24
0
VERTEX
10
7.53357
20
9.79038
30
7.24
0
VERTEX
10
7.54392
20
9.80222
30
7.24
0
VERTEX
10
7.55575
20
9.80961
30
7.24
0
VERTEX
10
7.56462
20
9.817
30
7.24
0
VERTEX
10
7.56906
20
9.82292
30
7.24
0
VERTEX
10
7.57202
20
9.82292
30
7.24
0
VERTEX
10
7.59124
20
9.84215
30
7.24
0
VERTEX
10
7.5942
20
9.8451
30
7.24
0
VERTEX
10
7.59716
20
9.8451
30
7.24
0
VERTEX
10
7.60899
20
9.85398
30
7.24
0
VERTEX
10
7.61491
20
9.85841
30
7.24
0
VERTEX
10
7.62674
20
9.85989
30
7.24
0
VERTEX
10
7.63857
20
9.86433
30
7.24
0
VERTEX
10
7.66223
20
9.86433
30
7.24
0
VERTEX
10
7.67406
20
9.86729
30
7.24
0
VERTEX
10
7.67702
20
9.86729
30
7.24
0
VERTEX
10
7.68146
20
9.87172
30
7.24
0
VERTEX
10
7.68737
20
9.87172
30
7.24
0
VERTEX
10
7.69329
20
9.87616
30
7.24
0
VERTEX
10
7.69329
20
9.87912
30
7.24
0
VERTEX
10
7.70512
20
9.87912
30
7.24
0
VERTEX
10
7.70808
20
9.88208
30
7.24
0
VERTEX
10
7.7554
20
9.88356
30
7.24
0
VERTEX
10
7.77907
20
9.88208
30
7.24
0
VERTEX
10
7.80273
20
9.87764
30
7.24
0
VERTEX
10
7.81456
20
9.87764
30
7.24
0
VERTEX
10
7.82048
20
9.88208
30
7.24
0
VERTEX
10
7.84414
20
9.88356
30
7.24
0
VERTEX
10
7.85005
20
9.88651
30
7.24
0
VERTEX
10
7.85005
20
9.89834
30
7.24
0
VERTEX
10
7.8471
20
9.91018
30
7.24
0
VERTEX
10
7.84266
20
9.91609
30
7.24
0
VERTEX
10
7.8397
20
9.92792
30
7.24
0
VERTEX
10
7.8397
20
9.93975
30
7.24
0
VERTEX
10
7.83231
20
9.95158
30
7.24
0
VERTEX
10
7.83083
20
9.9575
30
7.24
0
VERTEX
10
7.81456
20
9.97968
30
7.24
0
VERTEX
10
7.80421
20
9.98708
30
7.24
0
VERTEX
10
7.79829
20
9.99152
30
7.24
0
VERTEX
10
7.79681
20
9.99447
30
7.24
0
VERTEX
10
7.78498
20
9.99891
30
7.24
0
VERTEX
10
7.77907
20
10.0019
30
7.24
0
VERTEX
10
7.7554
20
10.0033
30
7.24
0
VERTEX
10
7.74357
20
10.0048
30
7.24
0
VERTEX
10
7.73766
20
10.0063
30
7.24
0
VERTEX
10
7.7347
20
10.0093
30
7.24
0
VERTEX
10
7.72287
20
10.0107
30
7.24
0
VERTEX
10
7.71695
20
10.0107
30
7.24
0
VERTEX
10
7.70512
20
10.0152
30
7.24
0
VERTEX
10
7.68146
20
10.0181
30
7.24
0
VERTEX
10
7.66963
20
10.0167
30
7.24
0
VERTEX
10
7.6578
20
10.0211
30
7.24
0
VERTEX
10
7.65188
20
10.0211
30
7.24
0
VERTEX
10
7.64596
20
10.0241
30
7.24
0
VERTEX
10
7.64301
20
10.0477
30
7.24
0
VERTEX
10
7.64005
20
10.0595
30
7.24
0
VERTEX
10
7.63265
20
10.0699
30
7.24
0
VERTEX
10
7.62674
20
10.0714
30
7.24
0
VERTEX
10
7.61934
20
10.0817
30
7.24
0
VERTEX
10
7.61934
20
10.0847
30
7.24
0
VERTEX
10
7.61491
20
10.0891
30
7.24
0
VERTEX
10
7.61047
20
10.0995
30
7.24
0
VERTEX
10
7.60012
20
10.1113
30
7.24
0
VERTEX
10
7.57941
20
10.1305
30
7.24
0
VERTEX
10
7.56462
20
10.1527
30
7.24
0
VERTEX
10
7.56019
20
10.1572
30
7.24
0
VERTEX
10
7.56019
20
10.1601
30
7.24
0
VERTEX
10
7.54244
20
10.1808
30
7.24
0
VERTEX
10
7.538
20
10.1838
30
7.24
0
VERTEX
10
7.53357
20
10.1897
30
7.24
0
VERTEX
10
7.5099
20
10.1926
30
7.24
0
VERTEX
10
7.48624
20
10.2015
30
7.24
0
VERTEX
10
7.48476
20
10.2074
30
7.24
0
VERTEX
10
7.47293
20
10.2104
30
7.24
0
VERTEX
10
7.4685
20
10.2148
30
7.24
0
VERTEX
10
7.45666
20
10.2163
30
7.24
0
VERTEX
10
7.44483
20
10.2207
30
7.24
0
VERTEX
10
7.42117
20
10.2222
30
7.24
0
VERTEX
10
7.40934
20
10.2207
30
7.24
0
VERTEX
10
7.4049
20
10.2163
30
7.24
0
VERTEX
10
7.39307
20
10.2134
30
7.24
0
VERTEX
10
7.38716
20
10.2089
30
7.24
0
VERTEX
10
7.3842
20
10.2074
30
7.24
0
VERTEX
10
7.38863
20
10.1956
30
7.24
0
VERTEX
10
7.38863
20
10.1897
30
7.24
0
VERTEX
10
7.39307
20
10.1779
30
7.24
0
VERTEX
10
7.39307
20
10.1719
30
7.24
0
VERTEX
10
7.39011
20
10.166
30
7.24
0
VERTEX
10
7.39011
20
10.1542
30
7.24
0
VERTEX
10
7.37237
20
10.0595
30
7.24
0
VERTEX
10
7.37089
20
10.0359
30
7.24
0
VERTEX
10
7.36645
20
10.0122
30
7.24
0
VERTEX
10
7.36645
20
10.0063
30
7.24
0
VERTEX
10
7.36349
20
10.0033
30
7.24
0
VERTEX
10
7.36053
20
9.99152
30
7.24
0
VERTEX
10
7.36053
20
9.9856
30
7.24
0
VERTEX
10
7.35758
20
9.97968
30
7.24
0
VERTEX
10
7.3561
20
9.96785
30
7.24
0
VERTEX
10
7.35166
20
9.95602
30
7.24
0
VERTEX
10
7.34131
20
9.94567
30
7.24
0
VERTEX
10
7.33835
20
9.94271
30
7.24
0
VERTEX
10
7.33835
20
9.93975
30
7.24
0
VERTEX
10
7.33096
20
9.92792
30
7.24
0
VERTEX
10
7.32652
20
9.91609
30
7.24
0
VERTEX
10
7.31765
20
9.90426
30
7.24
0
VERTEX
10
7.30286
20
9.88503
30
7.24
0
VERTEX
10
7.29842
20
9.87912
30
7.24
0
VERTEX
10
7.29842
20
9.87616
30
7.24
0
VERTEX
10
7.29546
20
9.87616
30
7.24
0
VERTEX
10
7.28659
20
9.86581
30
7.24
0
VERTEX
10
7.27476
20
9.86137
30
7.24
0
VERTEX
10
7.26884
20
9.85841
30
7.24
0
VERTEX
10
7.26588
20
9.85841
30
7.24
0
VERTEX
10
7.26145
20
9.85398
30
7.24
0
VERTEX
10
7.25553
20
9.8525
30
7.24
0
VERTEX
10
7.2511
20
9.84806
30
7.24
0
VERTEX
10
7.24518
20
9.84658
30
7.24
0
VERTEX
10
7.23335
20
9.83919
30
7.24
0
VERTEX
10
7.22595
20
9.83179
30
7.24
0
VERTEX
10
7.22595
20
9.82884
30
7.24
0
VERTEX
10
7.2156
20
9.82144
30
7.24
0
VERTEX
10
7.20525
20
9.81109
30
7.24
0
VERTEX
10
7.18602
20
9.79482
30
7.24
0
VERTEX
10
7.18159
20
9.7889
30
7.24
0
VERTEX
10
7.17863
20
9.78595
30
7.24
0
VERTEX
10
7.17567
20
9.78595
30
7.24
0
VERTEX
10
7.17123
20
9.78003
30
7.24
0
VERTEX
10
7.16976
20
9.7682
30
7.24
0
VERTEX
10
7.16976
20
9.76376
30
7.24
0
SEQEND
0
POLYLINE
62
236
66
1
70
1
3
postsynaptic_density
0
VERTEX
10
7.14146
20
9.68916
30
7.24
0
VERTEX
10
7.15058
20
9.66484
30
7.24
0
VERTEX
10
7.15362
20
9.65268
30
7.24
0
VERTEX
10
7.16274
20
9.64052
30
7.24
0
VERTEX
10
7.17186
20
9.59187
30
7.24
0
VERTEX
10
7.17186
20
9.58579
30
7.24
0
VERTEX
10
7.18402
20
9.58275
30
7.24
0
VERTEX
10
7.20834
20
9.58883
30
7.24
0
VERTEX
10
7.22051
20
9.59491
30
7.24
0
VERTEX
10
7.23267
20
9.59491
30
7.24
0
VERTEX
10
7.28131
20
9.61619
30
7.24
0
VERTEX
10
7.28739
20
9.62227
30
7.24
0
VERTEX
10
7.28131
20
9.67092
30
7.24
0
VERTEX
10
7.27827
20
9.69524
30
7.24
0
VERTEX
10
7.27523
20
9.7074
30
7.24
0
VERTEX
10
7.26915
20
9.71348
30
7.24
0
VERTEX
10
7.26915
20
9.71956
30
7.24
0
VERTEX
10
7.26307
20
9.72564
30
7.24
0
VERTEX
10
7.26307
20
9.73172
30
7.24
0
VERTEX
10
7.25699
20
9.73476
30
7.24
0
VERTEX
10
7.1597
20
9.71652
30
7.24
0
VERTEX
10
7.14754
20
9.71348
30
7.24
0
VERTEX
10
7.14146
20
9.71044
30
7.24
0
VERTEX
10
7.14146
20
9.69828
30
7.24
0
VERTEX
10
7.14146
20
9.6922
30
7.24
0
SEQEND
0
ENDSEC
0
EOF
