0
SECTION
2
ENTITIES
0
POLYLINE
62
31
66
1
70
1
3
contour
0
VERTEX
10
8.70891
20
9.42275
30
6.56
0
VERTEX
10
8.7286
20
9.41783
30
6.56
0
VERTEX
10
8.76799
20
9.42768
30
6.56
0
VERTEX
10
8.84676
20
9.42768
30
6.56
0
VERTEX
10
8.92552
20
9.41783
30
6.56
0
VERTEX
10
8.96491
20
9.41291
30
6.56
0
VERTEX
10
9.00429
20
9.39814
30
6.56
0
VERTEX
10
9.04368
20
9.39814
30
6.56
0
VERTEX
10
9.07814
20
9.41291
30
6.56
0
VERTEX
10
9.11752
20
9.41783
30
6.56
0
VERTEX
10
9.12737
20
9.42768
30
6.56
0
VERTEX
10
9.14706
20
9.42768
30
6.56
0
VERTEX
10
9.18152
20
9.45229
30
6.56
0
VERTEX
10
9.21599
20
9.48675
30
6.56
0
VERTEX
10
9.25537
20
9.50152
30
6.56
0
VERTEX
10
9.26522
20
9.50152
30
6.56
0
VERTEX
10
9.27506
20
9.51137
30
6.56
0
VERTEX
10
9.35383
20
9.51137
30
6.56
0
VERTEX
10
9.37352
20
9.4966
30
6.56
0
VERTEX
10
9.40798
20
9.48183
30
6.56
0
VERTEX
10
9.42768
20
9.46706
30
6.56
0
VERTEX
10
9.44737
20
9.46214
30
6.56
0
VERTEX
10
9.45722
20
9.46214
30
6.56
0
VERTEX
10
9.46706
20
9.47198
30
6.56
0
VERTEX
10
9.47691
20
9.51137
30
6.56
0
VERTEX
10
9.48183
20
9.59014
30
6.56
0
VERTEX
10
9.48183
20
9.60983
30
6.56
0
VERTEX
10
9.48183
20
9.61968
30
6.56
0
VERTEX
10
9.49168
20
9.6246
30
6.56
0
VERTEX
10
9.4966
20
9.66398
30
6.56
0
VERTEX
10
9.51629
20
9.69845
30
6.56
0
VERTEX
10
9.55568
20
9.72798
30
6.56
0
VERTEX
10
9.56552
20
9.72306
30
6.56
0
VERTEX
10
9.57045
20
9.73291
30
6.56
0
VERTEX
10
9.55568
20
9.7526
30
6.56
0
VERTEX
10
9.52122
20
9.77229
30
6.56
0
VERTEX
10
9.48675
20
9.80675
30
6.56
0
VERTEX
10
9.4326
20
9.8806
30
6.56
0
VERTEX
10
9.42275
20
9.90029
30
6.56
0
VERTEX
10
9.34891
20
9.95445
30
6.56
0
VERTEX
10
9.27014
20
9.99875
30
6.56
0
VERTEX
10
9.23075
20
10.0283
30
6.56
0
VERTEX
10
9.21106
20
10.0332
30
6.56
0
VERTEX
10
9.19137
20
10.048
30
6.56
0
VERTEX
10
9.15199
20
10.0578
30
6.56
0
VERTEX
10
9.13229
20
10.0578
30
6.56
0
VERTEX
10
9.12737
20
10.0677
30
6.56
0
VERTEX
10
9.11752
20
10.0628
30
6.56
0
VERTEX
10
9.1126
20
10.0431
30
6.56
0
VERTEX
10
9.09783
20
10.0283
30
6.56
0
VERTEX
10
9.08799
20
9.87075
30
6.56
0
VERTEX
10
9.07814
20
9.86091
30
6.56
0
VERTEX
10
9.07814
20
9.85106
30
6.56
0
VERTEX
10
9.03383
20
9.80675
30
6.56
0
VERTEX
10
9.01414
20
9.80675
30
6.56
0
VERTEX
10
9.00429
20
9.78706
30
6.56
0
VERTEX
10
8.9846
20
9.78214
30
6.56
0
VERTEX
10
8.97475
20
9.78214
30
6.56
0
VERTEX
10
8.96491
20
9.77229
30
6.56
0
VERTEX
10
8.96491
20
9.76245
30
6.56
0
VERTEX
10
8.94522
20
9.7526
30
6.56
0
VERTEX
10
8.94522
20
9.74275
30
6.56
0
VERTEX
10
8.92552
20
9.72798
30
6.56
0
VERTEX
10
8.90583
20
9.72306
30
6.56
0
VERTEX
10
8.89599
20
9.71322
30
6.56
0
VERTEX
10
8.88122
20
9.67875
30
6.56
0
VERTEX
10
8.87629
20
9.65906
30
6.56
0
VERTEX
10
8.85168
20
9.61968
30
6.56
0
VERTEX
10
8.81722
20
9.59506
30
6.56
0
VERTEX
10
8.76306
20
9.52122
30
6.56
0
VERTEX
10
8.74337
20
9.48183
30
6.56
0
VERTEX
10
8.73352
20
9.46214
30
6.56
0
VERTEX
10
8.71383
20
9.44737
30
6.56
0
VERTEX
10
8.70891
20
9.42768
30
6.56
0
SEQEND
0
POLYLINE
62
31
66
1
70
1
3
contour
0
VERTEX
10
9.88949
20
9.74979
30
6.56
0
VERTEX
10
9.89836
20
9.74758
30
6.56
0
VERTEX
10
9.90723
20
9.74092
30
6.56
0
VERTEX
10
9.92497
20
9.73427
30
6.56
0
VERTEX
10
9.95379
20
9.7121
30
6.56
0
VERTEX
10
9.95823
20
9.70766
30
6.56
0
VERTEX
10
9.9671
20
9.70545
30
6.56
0
VERTEX
10
9.98484
20
9.69436
30
6.56
0
VERTEX
10
9.99371
20
9.68771
30
6.56
0
VERTEX
10
10.0026
20
9.68549
30
6.56
0
VERTEX
10
10.0358
20
9.66553
30
6.56
0
VERTEX
10
10.0403
20
9.66332
30
6.56
0
VERTEX
10
10.0403
20
9.65888
30
6.56
0
VERTEX
10
10.0735
20
9.63449
30
6.56
0
VERTEX
10
10.0824
20
9.63006
30
6.56
0
VERTEX
10
10.0957
20
9.61453
30
6.56
0
VERTEX
10
10.1046
20
9.60567
30
6.56
0
VERTEX
10
10.1157
20
9.58793
30
6.56
0
VERTEX
10
10.129
20
9.57462
30
6.56
0
VERTEX
10
10.1378
20
9.55688
30
6.56
0
VERTEX
10
10.1445
20
9.55023
30
6.56
0
VERTEX
10
10.1534
20
9.54801
30
6.56
0
VERTEX
10
10.16
20
9.53914
30
6.56
0
VERTEX
10
10.1622
20
9.53027
30
6.56
0
VERTEX
10
10.1667
20
9.52806
30
6.56
0
VERTEX
10
10.1689
20
9.51032
30
6.56
0
VERTEX
10
10.1933
20
9.47706
30
6.56
0
VERTEX
10
10.2088
20
9.46154
30
6.56
0
VERTEX
10
10.2132
20
9.4438
30
6.56
0
VERTEX
10
10.2265
20
9.42828
30
6.56
0
VERTEX
10
10.2332
20
9.41941
30
6.56
0
VERTEX
10
10.2332
20
9.41497
30
6.56
0
VERTEX
10
10.2443
20
9.40167
30
6.56
0
VERTEX
10
10.2576
20
9.38393
30
6.56
0
VERTEX
10
10.2753
20
9.36619
30
6.56
0
VERTEX
10
10.2864
20
9.35067
30
6.56
0
VERTEX
10
10.3041
20
9.34623
30
6.56
0
VERTEX
10
10.3064
20
9.3418
30
6.56
0
VERTEX
10
10.3241
20
9.33736
30
6.56
0
VERTEX
10
10.3263
20
9.33293
30
6.56
0
VERTEX
10
10.3307
20
9.33293
30
6.56
0
VERTEX
10
10.3463
20
9.32184
30
6.56
0
VERTEX
10
10.364
20
9.31519
30
6.56
0
VERTEX
10
10.3995
20
9.31297
30
6.56
0
VERTEX
10
10.4704
20
9.31519
30
6.56
0
VERTEX
10
10.5059
20
9.31741
30
6.56
0
VERTEX
10
10.5104
20
9.31741
30
6.56
0
VERTEX
10
10.5148
20
9.32184
30
6.56
0
VERTEX
10
10.5325
20
9.32406
30
6.56
0
VERTEX
10
10.5503
20
9.33071
30
6.56
0
VERTEX
10
10.5658
20
9.34623
30
6.56
0
VERTEX
10
10.5747
20
9.3551
30
6.56
0
VERTEX
10
10.5835
20
9.37062
30
6.56
0
VERTEX
10
10.5924
20
9.4061
30
6.56
0
VERTEX
10
10.599
20
9.42384
30
6.56
0
VERTEX
10
10.6013
20
9.44158
30
6.56
0
VERTEX
10
10.6057
20
9.44601
30
6.56
0
VERTEX
10
10.6013
20
9.48149
30
6.56
0
VERTEX
10
10.599
20
9.49923
30
6.56
0
VERTEX
10
10.599
20
9.5081
30
6.56
0
VERTEX
10
10.5946
20
9.51697
30
6.56
0
VERTEX
10
10.5924
20
9.53471
30
6.56
0
VERTEX
10
10.5857
20
9.55245
30
6.56
0
VERTEX
10
10.5791
20
9.5591
30
6.56
0
VERTEX
10
10.5702
20
9.5591
30
6.56
0
VERTEX
10
10.5547
20
9.57462
30
6.56
0
VERTEX
10
10.548
20
9.58349
30
6.56
0
VERTEX
10
10.5392
20
9.58793
30
6.56
0
VERTEX
10
10.5259
20
9.60567
30
6.56
0
VERTEX
10
10.4948
20
9.63449
30
6.56
0
VERTEX
10
10.486
20
9.64114
30
6.56
0
VERTEX
10
10.4815
20
9.64558
30
6.56
0
VERTEX
10
10.4727
20
9.6478
30
6.56
0
VERTEX
10
10.4372
20
9.66775
30
6.56
0
VERTEX
10
10.4327
20
9.67219
30
6.56
0
VERTEX
10
10.3618
20
9.68549
30
6.56
0
VERTEX
10
10.3263
20
9.68327
30
6.56
0
VERTEX
10
10.3086
20
9.68327
30
6.56
0
VERTEX
10
10.2997
20
9.68327
30
6.56
0
VERTEX
10
10.2975
20
9.67884
30
6.56
0
VERTEX
10
10.262
20
9.68549
30
6.56
0
VERTEX
10
10.2531
20
9.69214
30
6.56
0
VERTEX
10
10.1822
20
9.71432
30
6.56
0
VERTEX
10
10.1644
20
9.72097
30
6.56
0
VERTEX
10
10.1467
20
9.72319
30
6.56
0
VERTEX
10
10.1378
20
9.7254
30
6.56
0
VERTEX
10
10.129
20
9.72319
30
6.56
0
VERTEX
10
10.1245
20
9.72762
30
6.56
0
VERTEX
10
10.0891
20
9.74092
30
6.56
0
VERTEX
10
10.0713
20
9.74536
30
6.56
0
VERTEX
10
9.9294
20
9.75201
30
6.56
0
VERTEX
10
9.91166
20
9.75645
30
6.56
0
VERTEX
10
9.89392
20
9.75423
30
6.56
0
VERTEX
10
9.88949
20
9.75201
30
6.56
0
SEQEND
0
POLYLINE
62
31
66
1
70
1
3
contour
0
VERTEX
10
8.30145
20
9.07538
30
6.56
0
VERTEX
10
8.31503
20
9.05366
30
6.56
0
VERTEX
10
8.32589
20
9.04823
30
6.56
0
VERTEX
10
8.33132
20
9.03737
30
6.56
0
VERTEX
10
8.33132
20
9.03194
30
6.56
0
VERTEX
10
8.36391
20
8.99663
30
6.56
0
VERTEX
10
8.37206
20
8.9912
30
6.56
0
VERTEX
10
8.4155
20
8.99392
30
6.56
0
VERTEX
10
8.43723
20
8.99663
30
6.56
0
VERTEX
10
8.44809
20
8.99663
30
6.56
0
VERTEX
10
8.45352
20
9.00206
30
6.56
0
VERTEX
10
8.45895
20
9.00206
30
6.56
0
VERTEX
10
8.47796
20
9.01836
30
6.56
0
VERTEX
10
8.48882
20
9.02107
30
6.56
0
VERTEX
10
8.49426
20
9.02107
30
6.56
0
VERTEX
10
8.51055
20
9.04008
30
6.56
0
VERTEX
10
8.53227
20
9.05909
30
6.56
0
VERTEX
10
8.55128
20
9.07267
30
6.56
0
VERTEX
10
8.56758
20
9.09168
30
6.56
0
VERTEX
10
8.60831
20
9.12426
30
6.56
0
VERTEX
10
8.62732
20
9.14327
30
6.56
0
VERTEX
10
8.63275
20
9.15414
30
6.56
0
VERTEX
10
8.63275
20
9.19758
30
6.56
0
VERTEX
10
8.63003
20
9.20845
30
6.56
0
VERTEX
10
8.62189
20
9.21931
30
6.56
0
VERTEX
10
8.61917
20
9.23017
30
6.56
0
VERTEX
10
8.61374
20
9.2356
30
6.56
0
VERTEX
10
8.60831
20
9.2356
30
6.56
0
VERTEX
10
8.60016
20
9.24646
30
6.56
0
VERTEX
10
8.5893
20
9.24646
30
6.56
0
VERTEX
10
8.56758
20
9.25461
30
6.56
0
VERTEX
10
8.39378
20
9.2519
30
6.56
0
VERTEX
10
8.37206
20
9.24918
30
6.56
0
VERTEX
10
8.36119
20
9.24646
30
6.56
0
VERTEX
10
8.36391
20
9.2519
30
6.56
0
VERTEX
10
8.36119
20
9.25733
30
6.56
0
VERTEX
10
8.33947
20
9.25461
30
6.56
0
VERTEX
10
8.32046
20
9.23832
30
6.56
0
VERTEX
10
8.31503
20
9.22746
30
6.56
0
VERTEX
10
8.31503
20
9.21659
30
6.56
0
VERTEX
10
8.30145
20
9.17314
30
6.56
0
VERTEX
10
8.30145
20
9.08625
30
6.56
0
VERTEX
10
8.30145
20
9.0781
30
6.56
0
SEQEND
0
POLYLINE
62
31
66
1
70
1
3
contour
0
VERTEX
10
7.87263
20
9.1834
30
6.56
0
VERTEX
10
7.90193
20
9.15143
30
6.56
0
VERTEX
10
7.90193
20
9.1461
30
6.56
0
VERTEX
10
7.91259
20
9.14344
30
6.56
0
VERTEX
10
7.91792
20
9.13811
30
6.56
0
VERTEX
10
7.96054
20
9.14077
30
6.56
0
VERTEX
10
7.96587
20
9.15143
30
6.56
0
VERTEX
10
7.9712
20
9.15143
30
6.56
0
VERTEX
10
7.97387
20
9.16209
30
6.56
0
VERTEX
10
7.98186
20
9.16475
30
6.56
0
VERTEX
10
7.97919
20
9.17541
30
6.56
0
VERTEX
10
7.98452
20
9.18074
30
6.56
0
VERTEX
10
7.98985
20
9.20205
30
6.56
0
VERTEX
10
7.98985
20
9.22336
30
6.56
0
VERTEX
10
7.98452
20
9.24468
30
6.56
0
VERTEX
10
7.96321
20
9.23935
30
6.56
0
VERTEX
10
7.96321
20
9.23402
30
6.56
0
VERTEX
10
7.92058
20
9.23402
30
6.56
0
VERTEX
10
7.89927
20
9.23402
30
6.56
0
VERTEX
10
7.88861
20
9.23135
30
6.56
0
VERTEX
10
7.87529
20
9.21004
30
6.56
0
VERTEX
10
7.87263
20
9.18873
30
6.56
0
VERTEX
10
7.87263
20
9.18606
30
6.56
0
SEQEND
0
POLYLINE
62
224
66
1
70
1
3
mitochondrion
0
VERTEX
10
8.9641
20
9.59258
30
6.56
0
VERTEX
10
8.96827
20
9.5884
30
6.56
0
VERTEX
10
8.96688
20
9.57728
30
6.56
0
VERTEX
10
8.96549
20
9.57172
30
6.56
0
VERTEX
10
8.97244
20
9.54947
30
6.56
0
VERTEX
10
8.9794
20
9.53835
30
6.56
0
VERTEX
10
8.98079
20
9.53279
30
6.56
0
VERTEX
10
8.98635
20
9.52723
30
6.56
0
VERTEX
10
8.9933
20
9.51749
30
6.56
0
VERTEX
10
9.00442
20
9.50915
30
6.56
0
VERTEX
10
9.01277
20
9.49942
30
6.56
0
VERTEX
10
9.02389
20
9.49246
30
6.56
0
VERTEX
10
9.03501
20
9.48968
30
6.56
0
VERTEX
10
9.03779
20
9.48968
30
6.56
0
VERTEX
10
9.04058
20
9.4869
30
6.56
0
VERTEX
10
9.0517
20
9.4869
30
6.56
0
VERTEX
10
9.06282
20
9.48273
30
6.56
0
VERTEX
10
9.06838
20
9.47995
30
6.56
0
VERTEX
10
9.07951
20
9.47856
30
6.56
0
VERTEX
10
9.08507
20
9.47578
30
6.56
0
VERTEX
10
9.10732
20
9.47439
30
6.56
0
VERTEX
10
9.12956
20
9.47578
30
6.56
0
VERTEX
10
9.13512
20
9.47578
30
6.56
0
VERTEX
10
9.14625
20
9.47995
30
6.56
0
VERTEX
10
9.15737
20
9.48134
30
6.56
0
VERTEX
10
9.16293
20
9.48412
30
6.56
0
VERTEX
10
9.16849
20
9.48412
30
6.56
0
VERTEX
10
9.17406
20
9.48829
30
6.56
0
VERTEX
10
9.17406
20
9.49107
30
6.56
0
VERTEX
10
9.18518
20
9.50081
30
6.56
0
VERTEX
10
9.18935
20
9.50498
30
6.56
0
VERTEX
10
9.19074
20
9.51054
30
6.56
0
VERTEX
10
9.20604
20
9.5314
30
6.56
0
VERTEX
10
9.21021
20
9.53696
30
6.56
0
VERTEX
10
9.21021
20
9.55921
30
6.56
0
VERTEX
10
9.21021
20
9.57033
30
6.56
0
VERTEX
10
9.20743
20
9.57589
30
6.56
0
VERTEX
10
9.20743
20
9.59814
30
6.56
0
VERTEX
10
9.20743
20
9.60926
30
6.56
0
VERTEX
10
9.20743
20
9.61482
30
6.56
0
VERTEX
10
9.20465
20
9.62038
30
6.56
0
VERTEX
10
9.20465
20
9.62595
30
6.56
0
VERTEX
10
9.19769
20
9.63707
30
6.56
0
VERTEX
10
9.19352
20
9.64263
30
6.56
0
VERTEX
10
9.17128
20
9.65236
30
6.56
0
VERTEX
10
9.16849
20
9.65515
30
6.56
0
VERTEX
10
9.16293
20
9.65654
30
6.56
0
VERTEX
10
9.15876
20
9.6621
30
6.56
0
VERTEX
10
9.14764
20
9.66627
30
6.56
0
VERTEX
10
9.14208
20
9.66905
30
6.56
0
VERTEX
10
9.1393
20
9.66905
30
6.56
0
VERTEX
10
9.13651
20
9.67183
30
6.56
0
VERTEX
10
9.09202
20
9.67461
30
6.56
0
VERTEX
10
9.06977
20
9.67461
30
6.56
0
VERTEX
10
9.06421
20
9.67461
30
6.56
0
VERTEX
10
9.06143
20
9.67461
30
6.56
0
VERTEX
10
9.05865
20
9.67739
30
6.56
0
VERTEX
10
9.0364
20
9.676
30
6.56
0
VERTEX
10
9.02528
20
9.67461
30
6.56
0
VERTEX
10
9.01416
20
9.66766
30
6.56
0
VERTEX
10
9.0086
20
9.66627
30
6.56
0
VERTEX
10
9.00581
20
9.66349
30
6.56
0
VERTEX
10
9.00025
20
9.6621
30
6.56
0
VERTEX
10
8.99052
20
9.65375
30
6.56
0
VERTEX
10
8.98913
20
9.64819
30
6.56
0
VERTEX
10
8.98079
20
9.63846
30
6.56
0
VERTEX
10
8.97662
20
9.63568
30
6.56
0
VERTEX
10
8.96966
20
9.62595
30
6.56
0
VERTEX
10
8.9641
20
9.6037
30
6.56
0
VERTEX
10
8.9641
20
9.59397
30
6.56
0
SEQEND
0
POLYLINE
62
236
66
1
70
1
3
postsynaptic_density
0
VERTEX
10
8.2562
20
9.07361
30
6.56
0
VERTEX
10
8.25807
20
9.06615
30
6.56
0
VERTEX
10
8.2618
20
9.06241
30
6.56
0
VERTEX
10
8.26367
20
9.04749
30
6.56
0
VERTEX
10
8.26927
20
9.03256
30
6.56
0
VERTEX
10
8.28046
20
9.01763
30
6.56
0
VERTEX
10
8.2842
20
9.01763
30
6.56
0
VERTEX
10
8.29353
20
9.00456
30
6.56
0
VERTEX
10
8.30659
20
8.9915
30
6.56
0
VERTEX
10
8.32152
20
8.98963
30
6.56
0
VERTEX
10
8.33645
20
8.9915
30
6.56
0
VERTEX
10
8.34392
20
8.9915
30
6.56
0
VERTEX
10
8.35885
20
8.9971
30
6.56
0
VERTEX
10
8.36631
20
8.99896
30
6.56
0
VERTEX
10
8.37191
20
9.01203
30
6.56
0
VERTEX
10
8.38124
20
9.02509
30
6.56
0
VERTEX
10
8.37937
20
9.08481
30
6.56
0
VERTEX
10
8.37751
20
9.11467
30
6.56
0
VERTEX
10
8.37751
20
9.1296
30
6.56
0
VERTEX
10
8.37191
20
9.15946
30
6.56
0
VERTEX
10
8.37191
20
9.16692
30
6.56
0
VERTEX
10
8.36444
20
9.17999
30
6.56
0
VERTEX
10
8.35325
20
9.19305
30
6.56
0
VERTEX
10
8.33832
20
9.20238
30
6.56
0
VERTEX
10
8.32339
20
9.20798
30
6.56
0
VERTEX
10
8.29353
20
9.20985
30
6.56
0
VERTEX
10
8.2786
20
9.21171
30
6.56
0
VERTEX
10
8.27487
20
9.20425
30
6.56
0
VERTEX
10
8.2562
20
9.08481
30
6.56
0
VERTEX
10
8.2562
20
9.07734
30
6.56
0
VERTEX
10
8.2562
20
9.07548
30
6.56
0
SEQEND
0
POLYLINE
62
227
66
1
70
1
3
endoplasmic_reticulum
0
VERTEX
10
9.21649
20
9.64235
30
6.56
0
VERTEX
10
9.21918
20
9.63518
30
6.56
0
VERTEX
10
9.22098
20
9.63159
30
6.56
0
VERTEX
10
9.22456
20
9.6298
30
6.56
0
VERTEX
10
9.22725
20
9.62622
30
6.56
0
VERTEX
10
9.23442
20
9.62442
30
6.56
0
VERTEX
10
9.2416
20
9.62532
30
6.56
0
VERTEX
10
9.24518
20
9.62532
30
6.56
0
VERTEX
10
9.24698
20
9.62532
30
6.56
0
VERTEX
10
9.24877
20
9.62711
30
6.56
0
VERTEX
10
9.25236
20
9.62801
30
6.56
0
VERTEX
10
9.25415
20
9.62801
30
6.56
0
VERTEX
10
9.25684
20
9.63159
30
6.56
0
VERTEX
10
9.25774
20
9.63877
30
6.56
0
VERTEX
10
9.25594
20
9.64594
30
6.56
0
VERTEX
10
9.25505
20
9.64953
30
6.56
0
VERTEX
10
9.25505
20
9.65132
30
6.56
0
VERTEX
10
9.24429
20
9.66297
30
6.56
0
VERTEX
10
9.23801
20
9.66835
30
6.56
0
VERTEX
10
9.22367
20
9.66208
30
6.56
0
VERTEX
10
9.22008
20
9.65939
30
6.56
0
VERTEX
10
9.21649
20
9.64504
30
6.56
0
VERTEX
10
9.21649
20
9.64325
30
6.56
0
SEQEND
0
POLYLINE
62
227
66
1
70
1
3
endoplasmic_reticulum
0
VERTEX
10
9.05332
20
9.74277
30
6.56
0
VERTEX
10
9.05512
20
9.73559
30
6.56
0
VERTEX
10
9.06856
20
9.72663
30
6.56
0
VERTEX
10
9.07125
20
9.72394
30
6.56
0
VERTEX
10
9.07305
20
9.72394
30
6.56
0
VERTEX
10
9.07663
20
9.72035
30
6.56
0
VERTEX
10
9.08381
20
9.71946
30
6.56
0
VERTEX
10
9.09815
20
9.72035
30
6.56
0
VERTEX
10
9.10443
20
9.72304
30
6.56
0
VERTEX
10
9.10801
20
9.72573
30
6.56
0
VERTEX
10
9.10891
20
9.74008
30
6.56
0
VERTEX
10
9.10263
20
9.75442
30
6.56
0
VERTEX
10
9.10084
20
9.75621
30
6.56
0
VERTEX
10
9.10084
20
9.75801
30
6.56
0
VERTEX
10
9.09815
20
9.76159
30
6.56
0
VERTEX
10
9.09456
20
9.76339
30
6.56
0
VERTEX
10
9.09098
20
9.76697
30
6.56
0
VERTEX
10
9.08381
20
9.76877
30
6.56
0
VERTEX
10
9.08022
20
9.76966
30
6.56
0
VERTEX
10
9.06587
20
9.76428
30
6.56
0
VERTEX
10
9.0587
20
9.7607
30
6.56
0
VERTEX
10
9.05512
20
9.7589
30
6.56
0
VERTEX
10
9.05332
20
9.75173
30
6.56
0
VERTEX
10
9.05332
20
9.74456
30
6.56
0
VERTEX
10
9.05332
20
9.74366
30
6.56
0
SEQEND
0
POLYLINE
62
227
66
1
70
1
3
endoplasmic_reticulum
0
VERTEX
10
8.85698
20
9.51863
30
6.56
0
VERTEX
10
8.85877
20
9.51504
30
6.56
0
VERTEX
10
8.86505
20
9.50877
30
6.56
0
VERTEX
10
8.87222
20
9.50697
30
6.56
0
VERTEX
10
8.87939
20
9.50697
30
6.56
0
VERTEX
10
8.88298
20
9.50877
30
6.56
0
VERTEX
10
8.88477
20
9.51594
30
6.56
0
VERTEX
10
8.88836
20
9.51953
30
6.56
0
VERTEX
10
8.88925
20
9.52311
30
6.56
0
VERTEX
10
8.89463
20
9.52939
30
6.56
0
VERTEX
10
8.89374
20
9.54373
30
6.56
0
VERTEX
10
8.89374
20
9.54732
30
6.56
0
VERTEX
10
8.89553
20
9.55091
30
6.56
0
VERTEX
10
8.89643
20
9.5527
30
6.56
0
VERTEX
10
8.89822
20
9.5527
30
6.56
0
VERTEX
10
8.9036
20
9.55897
30
6.56
0
VERTEX
10
8.90629
20
9.56077
30
6.56
0
VERTEX
10
8.91077
20
9.57511
30
6.56
0
VERTEX
10
8.91525
20
9.58139
30
6.56
0
VERTEX
10
8.91615
20
9.58856
30
6.56
0
VERTEX
10
8.92063
20
9.60291
30
6.56
0
VERTEX
10
8.92153
20
9.61725
30
6.56
0
VERTEX
10
8.92512
20
9.62442
30
6.56
0
VERTEX
10
8.92512
20
9.62622
30
6.56
0
VERTEX
10
8.9296
20
9.63159
30
6.56
0
VERTEX
10
8.93319
20
9.63428
30
6.56
0
VERTEX
10
8.93498
20
9.63428
30
6.56
0
VERTEX
10
8.94215
20
9.64056
30
6.56
0
VERTEX
10
8.94484
20
9.64325
30
6.56
0
VERTEX
10
8.94574
20
9.64684
30
6.56
0
VERTEX
10
8.94574
20
9.64863
30
6.56
0
VERTEX
10
8.94753
20
9.65042
30
6.56
0
VERTEX
10
8.95022
20
9.65759
30
6.56
0
VERTEX
10
8.95022
20
9.66118
30
6.56
0
VERTEX
10
8.95201
20
9.66477
30
6.56
0
VERTEX
10
8.95381
20
9.66566
30
6.56
0
VERTEX
10
8.95381
20
9.66746
30
6.56
0
VERTEX
10
8.95022
20
9.67015
30
6.56
0
VERTEX
10
8.94305
20
9.67194
30
6.56
0
VERTEX
10
8.93588
20
9.67104
30
6.56
0
VERTEX
10
8.9287
20
9.66746
30
6.56
0
VERTEX
10
8.92512
20
9.66566
30
6.56
0
VERTEX
10
8.92332
20
9.66566
30
6.56
0
VERTEX
10
8.91974
20
9.66297
30
6.56
0
VERTEX
10
8.91794
20
9.65939
30
6.56
0
VERTEX
10
8.91436
20
9.6558
30
6.56
0
VERTEX
10
8.91346
20
9.65222
30
6.56
0
VERTEX
10
8.90898
20
9.64504
30
6.56
0
VERTEX
10
8.9036
20
9.6307
30
6.56
0
VERTEX
10
8.90091
20
9.62711
30
6.56
0
VERTEX
10
8.90001
20
9.61994
30
6.56
0
VERTEX
10
8.89822
20
9.61635
30
6.56
0
VERTEX
10
8.89822
20
9.61456
30
6.56
0
VERTEX
10
8.89374
20
9.60828
30
6.56
0
VERTEX
10
8.88925
20
9.6038
30
6.56
0
VERTEX
10
8.88836
20
9.60022
30
6.56
0
VERTEX
10
8.88388
20
9.59304
30
6.56
0
VERTEX
10
8.88208
20
9.58946
30
6.56
0
VERTEX
10
8.88029
20
9.57511
30
6.56
0
VERTEX
10
8.8785
20
9.57332
30
6.56
0
VERTEX
10
8.87491
20
9.55897
30
6.56
0
VERTEX
10
8.87132
20
9.5518
30
6.56
0
VERTEX
10
8.86684
20
9.53746
30
6.56
0
VERTEX
10
8.85967
20
9.53477
30
6.56
0
VERTEX
10
8.85698
20
9.53208
30
6.56
0
VERTEX
10
8.85698
20
9.52491
30
6.56
0
VERTEX
10
8.85698
20
9.52132
30
6.56
0
VERTEX
10
8.85698
20
9.51953
30
6.56
0
SEQEND
0
POLYLINE
62
227
66
1
70
1
3
endoplasmic_reticulum
0
VERTEX
10
9.27656
20
9.5527
30
6.56
0
VERTEX
10
9.27925
20
9.54553
30
6.56
0
VERTEX
10
9.28194
20
9.54284
30
6.56
0
VERTEX
10
9.29629
20
9.54194
30
6.56
0
VERTEX
10
9.29808
20
9.54194
30
6.56
0
VERTEX
10
9.30346
20
9.54822
30
6.56
0
VERTEX
10
9.30346
20
9.56256
30
6.56
0
VERTEX
10
9.29718
20
9.56704
30
6.56
0
VERTEX
10
9.29001
20
9.56794
30
6.56
0
VERTEX
10
9.28642
20
9.56704
30
6.56
0
VERTEX
10
9.27925
20
9.56256
30
6.56
0
VERTEX
10
9.27656
20
9.55897
30
6.56
0
VERTEX
10
9.27656
20
9.55539
30
6.56
0
VERTEX
10
9.27656
20
9.5536
30
6.56
0
SEQEND
0
ENDSEC
0
EOF
