0
SECTION
2
ENTITIES
0
POLYLINE
62
31
66
1
70
1
3
contour
0
VERTEX
10
6.83412
20
10.8033
30
10.44
0
VERTEX
10
6.84159
20
10.7996
30
10.44
0
VERTEX
10
6.84532
20
10.7846
30
10.44
0
VERTEX
10
6.89008
20
10.7361
30
10.44
0
VERTEX
10
6.905
20
10.7249
30
10.44
0
VERTEX
10
6.91992
20
10.7212
30
10.44
0
VERTEX
10
6.92739
20
10.7138
30
10.44
0
VERTEX
10
6.94231
20
10.71
30
10.44
0
VERTEX
10
6.95723
20
10.6988
30
10.44
0
VERTEX
10
6.98707
20
10.6876
30
10.44
0
VERTEX
10
7.04676
20
10.6765
30
10.44
0
VERTEX
10
7.16613
20
10.6727
30
10.44
0
VERTEX
10
7.22582
20
10.6727
30
10.44
0
VERTEX
10
7.24074
20
10.6802
30
10.44
0
VERTEX
10
7.27058
20
10.6802
30
10.44
0
VERTEX
10
7.33027
20
10.6988
30
10.44
0
VERTEX
10
7.36011
20
10.7138
30
10.44
0
VERTEX
10
7.4198
20
10.7287
30
10.44
0
VERTEX
10
7.44964
20
10.7324
30
10.44
0
VERTEX
10
7.46457
20
10.7324
30
10.44
0
VERTEX
10
7.52425
20
10.7511
30
10.44
0
VERTEX
10
7.53917
20
10.7548
30
10.44
0
VERTEX
10
7.54663
20
10.7548
30
10.44
0
VERTEX
10
7.56156
20
10.7697
30
10.44
0
VERTEX
10
7.58767
20
10.7772
30
10.44
0
VERTEX
10
7.61751
20
10.7958
30
10.44
0
VERTEX
10
7.6287
20
10.8107
30
10.44
0
VERTEX
10
7.63616
20
10.8107
30
10.44
0
VERTEX
10
7.68839
20
10.8518
30
10.44
0
VERTEX
10
7.7145
20
10.8667
30
10.44
0
VERTEX
10
7.72942
20
10.8704
30
10.44
0
VERTEX
10
7.75927
20
10.8928
30
10.44
0
VERTEX
10
7.77046
20
10.904
30
10.44
0
VERTEX
10
7.8003
20
10.9077
30
10.44
0
VERTEX
10
7.83015
20
10.9264
30
10.44
0
VERTEX
10
7.88983
20
10.9376
30
10.44
0
VERTEX
10
7.94952
20
10.9413
30
10.44
0
VERTEX
10
8.00921
20
10.9637
30
10.44
0
VERTEX
10
8.03905
20
10.9749
30
10.44
0
VERTEX
10
8.04651
20
10.9674
30
10.44
0
VERTEX
10
8.0577
20
10.9823
30
10.44
0
VERTEX
10
8.0577
20
10.9898
30
10.44
0
VERTEX
10
8.06889
20
11.001
30
10.44
0
VERTEX
10
8.06889
20
11.0159
30
10.44
0
VERTEX
10
8.09128
20
11.042
30
10.44
0
VERTEX
10
8.09501
20
11.0719
30
10.44
0
VERTEX
10
8.09501
20
11.0868
30
10.44
0
VERTEX
10
8.09501
20
11.0943
30
10.44
0
VERTEX
10
8.08754
20
11.098
30
10.44
0
VERTEX
10
8.08381
20
11.0943
30
10.44
0
VERTEX
10
8.05397
20
11.1055
30
10.44
0
VERTEX
10
7.99428
20
11.1055
30
10.44
0
VERTEX
10
7.96444
20
11.1055
30
10.44
0
VERTEX
10
7.90475
20
11.0905
30
10.44
0
VERTEX
10
7.87491
20
11.0719
30
10.44
0
VERTEX
10
7.85999
20
11.0681
30
10.44
0
VERTEX
10
7.85253
20
11.0607
30
10.44
0
VERTEX
10
7.79284
20
11.042
30
10.44
0
VERTEX
10
7.763
20
11.0383
30
10.44
0
VERTEX
10
7.75554
20
11.0234
30
10.44
0
VERTEX
10
7.74808
20
11.0234
30
10.44
0
VERTEX
10
7.74062
20
11.0159
30
10.44
0
VERTEX
10
7.68093
20
11.0085
30
10.44
0
VERTEX
10
7.62124
20
11.0085
30
10.44
0
VERTEX
10
7.61378
20
11.0159
30
10.44
0
VERTEX
10
7.49441
20
11.0122
30
10.44
0
VERTEX
10
7.46457
20
11.0085
30
10.44
0
VERTEX
10
7.4571
20
11.0085
30
10.44
0
VERTEX
10
7.44964
20
11.001
30
10.44
0
VERTEX
10
7.38996
20
10.9935
30
10.44
0
VERTEX
10
7.36011
20
10.9861
30
10.44
0
VERTEX
10
7.24074
20
10.9749
30
10.44
0
VERTEX
10
7.18105
20
10.9674
30
10.44
0
VERTEX
10
7.15121
20
10.96
30
10.44
0
VERTEX
10
7.09152
20
10.96
30
10.44
0
VERTEX
10
7.06168
20
10.96
30
10.44
0
VERTEX
10
7.00199
20
10.9488
30
10.44
0
VERTEX
10
6.97215
20
10.9488
30
10.44
0
VERTEX
10
6.94231
20
10.9376
30
10.44
0
VERTEX
10
6.91246
20
10.9339
30
10.44
0
VERTEX
10
6.88635
20
10.9077
30
10.44
0
VERTEX
10
6.87143
20
10.8928
30
10.44
0
VERTEX
10
6.86024
20
10.8854
30
10.44
0
VERTEX
10
6.84159
20
10.8555
30
10.44
0
VERTEX
10
6.83412
20
10.8518
30
10.44
0
VERTEX
10
6.83412
20
10.8219
30
10.44
0
VERTEX
10
6.83412
20
10.807
30
10.44
0
SEQEND
0
POLYLINE
62
227
66
1
70
1
3
endoplasmic_reticulum
0
VERTEX
10
7.05313
20
10.8536
30
10.44
0
VERTEX
10
7.05761
20
10.8464
30
10.44
0
VERTEX
10
7.0612
20
10.8437
30
10.44
0
VERTEX
10
7.06837
20
10.841
30
10.44
0
VERTEX
10
7.07554
20
10.8366
30
10.44
0
VERTEX
10
7.08989
20
10.8374
30
10.44
0
VERTEX
10
7.09706
20
10.8374
30
10.44
0
VERTEX
10
7.09975
20
10.8392
30
10.44
0
VERTEX
10
7.10154
20
10.8392
30
10.44
0
VERTEX
10
7.10333
20
10.841
30
10.44
0
VERTEX
10
7.10961
20
10.8437
30
10.44
0
VERTEX
10
7.1132
20
10.8464
30
10.44
0
VERTEX
10
7.11768
20
10.8536
30
10.44
0
VERTEX
10
7.11858
20
10.8572
30
10.44
0
VERTEX
10
7.11678
20
10.8643
30
10.44
0
VERTEX
10
7.11589
20
10.8679
30
10.44
0
VERTEX
10
7.11589
20
10.8697
30
10.44
0
VERTEX
10
7.10333
20
10.8805
30
10.44
0
VERTEX
10
7.09975
20
10.8832
30
10.44
0
VERTEX
10
7.09796
20
10.8841
30
10.44
0
VERTEX
10
7.08361
20
10.876
30
10.44
0
VERTEX
10
7.07644
20
10.8742
30
10.44
0
VERTEX
10
7.07285
20
10.8742
30
10.44
0
VERTEX
10
7.0594
20
10.8661
30
10.44
0
VERTEX
10
7.05582
20
10.8643
30
10.44
0
VERTEX
10
7.05313
20
10.8572
30
10.44
0
VERTEX
10
7.05313
20
10.8545
30
10.44
0
SEQEND
0
POLYLINE
62
227
66
1
70
1
3
endoplasmic_reticulum
0
VERTEX
10
7.10961
20
10.8132
30
10.44
0
VERTEX
10
7.11409
20
10.8061
30
10.44
0
VERTEX
10
7.11499
20
10.8025
30
10.44
0
VERTEX
10
7.12037
20
10.7971
30
10.44
0
VERTEX
10
7.12216
20
10.7971
30
10.44
0
VERTEX
10
7.12575
20
10.7935
30
10.44
0
VERTEX
10
7.14009
20
10.7926
30
10.44
0
VERTEX
10
7.14727
20
10.7935
30
10.44
0
VERTEX
10
7.15085
20
10.7935
30
10.44
0
VERTEX
10
7.15713
20
10.798
30
10.44
0
VERTEX
10
7.15623
20
10.8052
30
10.44
0
VERTEX
10
7.15175
20
10.8123
30
10.44
0
VERTEX
10
7.14996
20
10.8195
30
10.44
0
VERTEX
10
7.14996
20
10.8267
30
10.44
0
VERTEX
10
7.15175
20
10.8303
30
10.44
0
VERTEX
10
7.15892
20
10.8357
30
10.44
0
VERTEX
10
7.16251
20
10.8383
30
10.44
0
VERTEX
10
7.17685
20
10.8383
30
10.44
0
VERTEX
10
7.17864
20
10.8374
30
10.44
0
VERTEX
10
7.17864
20
10.8339
30
10.44
0
VERTEX
10
7.17685
20
10.8321
30
10.44
0
VERTEX
10
7.17685
20
10.8177
30
10.44
0
VERTEX
10
7.18133
20
10.8034
30
10.44
0
VERTEX
10
7.18402
20
10.7998
30
10.44
0
VERTEX
10
7.18582
20
10.798
30
10.44
0
VERTEX
10
7.19299
20
10.7971
30
10.44
0
VERTEX
10
7.20733
20
10.7998
30
10.44
0
VERTEX
10
7.21092
20
10.8016
30
10.44
0
VERTEX
10
7.21271
20
10.8034
30
10.44
0
VERTEX
10
7.21451
20
10.8034
30
10.44
0
VERTEX
10
7.22078
20
10.8097
30
10.44
0
VERTEX
10
7.22258
20
10.8132
30
10.44
0
VERTEX
10
7.22258
20
10.8276
30
10.44
0
VERTEX
10
7.21989
20
10.8419
30
10.44
0
VERTEX
10
7.22078
20
10.8491
30
10.44
0
VERTEX
10
7.22258
20
10.8509
30
10.44
0
VERTEX
10
7.22616
20
10.8509
30
10.44
0
VERTEX
10
7.22975
20
10.8491
30
10.44
0
VERTEX
10
7.25844
20
10.8527
30
10.44
0
VERTEX
10
7.27278
20
10.8527
30
10.44
0
VERTEX
10
7.28713
20
10.8554
30
10.44
0
VERTEX
10
7.29071
20
10.8581
30
10.44
0
VERTEX
10
7.2943
20
10.859
30
10.44
0
VERTEX
10
7.30147
20
10.8643
30
10.44
0
VERTEX
10
7.30237
20
10.8715
30
10.44
0
VERTEX
10
7.30147
20
10.8787
30
10.44
0
VERTEX
10
7.30147
20
10.8823
30
10.44
0
VERTEX
10
7.2952
20
10.8894
30
10.44
0
VERTEX
10
7.28802
20
10.8912
30
10.44
0
VERTEX
10
7.23064
20
10.8894
30
10.44
0
VERTEX
10
7.20195
20
10.8894
30
10.44
0
VERTEX
10
7.19478
20
10.8886
30
10.44
0
VERTEX
10
7.18761
20
10.8859
30
10.44
0
VERTEX
10
7.17327
20
10.8859
30
10.44
0
VERTEX
10
7.16609
20
10.885
30
10.44
0
VERTEX
10
7.16251
20
10.885
30
10.44
0
VERTEX
10
7.15892
20
10.8832
30
10.44
0
VERTEX
10
7.15533
20
10.8832
30
10.44
0
VERTEX
10
7.14816
20
10.8787
30
10.44
0
VERTEX
10
7.14637
20
10.8769
30
10.44
0
VERTEX
10
7.14458
20
10.8769
30
10.44
0
VERTEX
10
7.14368
20
10.8751
30
10.44
0
VERTEX
10
7.14009
20
10.8742
30
10.44
0
VERTEX
10
7.13382
20
10.8697
30
10.44
0
VERTEX
10
7.13023
20
10.867
30
10.44
0
VERTEX
10
7.12844
20
10.8652
30
10.44
0
VERTEX
10
7.12844
20
10.8634
30
10.44
0
VERTEX
10
7.12575
20
10.8608
30
10.44
0
VERTEX
10
7.12485
20
10.8572
30
10.44
0
VERTEX
10
7.12575
20
10.8563
30
10.44
0
VERTEX
10
7.12665
20
10.8572
30
10.44
0
VERTEX
10
7.12844
20
10.8545
30
10.44
0
VERTEX
10
7.12844
20
10.8509
30
10.44
0
VERTEX
10
7.13023
20
10.8473
30
10.44
0
VERTEX
10
7.13202
20
10.8473
30
10.44
0
VERTEX
10
7.13382
20
10.8437
30
10.44
0
VERTEX
10
7.13471
20
10.8428
30
10.44
0
VERTEX
10
7.13202
20
10.8392
30
10.44
0
VERTEX
10
7.13023
20
10.8374
30
10.44
0
VERTEX
10
7.12665
20
10.8374
30
10.44
0
VERTEX
10
7.12306
20
10.8357
30
10.44
0
VERTEX
10
7.11589
20
10.8348
30
10.44
0
VERTEX
10
7.1123
20
10.8321
30
10.44
0
VERTEX
10
7.10961
20
10.8249
30
10.44
0
VERTEX
10
7.10961
20
10.8177
30
10.44
0
VERTEX
10
7.10961
20
10.8141
30
10.44
0
SEQEND
0
POLYLINE
62
227
66
1
70
1
3
endoplasmic_reticulum
0
VERTEX
10
7.44761
20
10.8608
30
10.44
0
VERTEX
10
7.4494
20
10.859
30
10.44
0
VERTEX
10
7.4494
20
10.8572
30
10.44
0
VERTEX
10
7.45478
20
10.8518
30
10.44
0
VERTEX
10
7.45747
20
10.8509
30
10.44
0
VERTEX
10
7.46464
20
10.8455
30
10.44
0
VERTEX
10
7.47182
20
10.8419
30
10.44
0
VERTEX
10
7.48616
20
10.8419
30
10.44
0
VERTEX
10
7.49333
20
10.8419
30
10.44
0
VERTEX
10
7.49513
20
10.8437
30
10.44
0
VERTEX
10
7.5023
20
10.8446
30
10.44
0
VERTEX
10
7.50947
20
10.8482
30
10.44
0
VERTEX
10
7.51306
20
10.85
30
10.44
0
VERTEX
10
7.51575
20
10.8536
30
10.44
0
VERTEX
10
7.52292
20
10.8572
30
10.44
0
VERTEX
10
7.53547
20
10.8688
30
10.44
0
VERTEX
10
7.53816
20
10.8751
30
10.44
0
VERTEX
10
7.53906
20
10.8894
30
10.44
0
VERTEX
10
7.53906
20
10.8912
30
10.44
0
VERTEX
10
7.53726
20
10.893
30
10.44
0
VERTEX
10
7.53547
20
10.9217
30
10.44
0
VERTEX
10
7.53368
20
10.9253
30
10.44
0
VERTEX
10
7.53368
20
10.9325
30
10.44
0
VERTEX
10
7.53009
20
10.9397
30
10.44
0
VERTEX
10
7.51844
20
10.9513
30
10.44
0
VERTEX
10
7.51216
20
10.9567
30
10.44
0
VERTEX
10
7.50857
20
10.9585
30
10.44
0
VERTEX
10
7.5014
20
10.9576
30
10.44
0
VERTEX
10
7.49782
20
10.9576
30
10.44
0
VERTEX
10
7.49064
20
10.954
30
10.44
0
VERTEX
10
7.4763
20
10.9495
30
10.44
0
VERTEX
10
7.46913
20
10.945
30
10.44
0
VERTEX
10
7.46913
20
10.9432
30
10.44
0
VERTEX
10
7.46554
20
10.9414
30
10.44
0
VERTEX
10
7.46285
20
10.9379
30
10.44
0
VERTEX
10
7.45747
20
10.9235
30
10.44
0
VERTEX
10
7.45568
20
10.9208
30
10.44
0
VERTEX
10
7.45388
20
10.9199
30
10.44
0
VERTEX
10
7.45388
20
10.9181
30
10.44
0
VERTEX
10
7.4494
20
10.911
30
10.44
0
VERTEX
10
7.44761
20
10.8966
30
10.44
0
VERTEX
10
7.44851
20
10.8679
30
10.44
0
VERTEX
10
7.44761
20
10.8617
30
10.44
0
SEQEND
0
POLYLINE
62
227
66
1
70
1
3
endoplasmic_reticulum
0
VERTEX
10
7.36961
20
10.8213
30
10.44
0
VERTEX
10
7.37588
20
10.807
30
10.44
0
VERTEX
10
7.38037
20
10.7998
30
10.44
0
VERTEX
10
7.38306
20
10.798
30
10.44
0
VERTEX
10
7.3974
20
10.8016
30
10.44
0
VERTEX
10
7.40457
20
10.8052
30
10.44
0
VERTEX
10
7.41085
20
10.8114
30
10.44
0
VERTEX
10
7.40995
20
10.8258
30
10.44
0
VERTEX
10
7.40816
20
10.833
30
10.44
0
VERTEX
10
7.40188
20
10.8392
30
10.44
0
VERTEX
10
7.40009
20
10.8392
30
10.44
0
VERTEX
10
7.39292
20
10.8455
30
10.44
0
VERTEX
10
7.39113
20
10.8464
30
10.44
0
VERTEX
10
7.37678
20
10.8374
30
10.44
0
VERTEX
10
7.37499
20
10.8374
30
10.44
0
VERTEX
10
7.3732
20
10.8357
30
10.44
0
VERTEX
10
7.3714
20
10.8357
30
10.44
0
VERTEX
10
7.36961
20
10.8321
30
10.44
0
VERTEX
10
7.36961
20
10.8249
30
10.44
0
VERTEX
10
7.36961
20
10.8222
30
10.44
0
SEQEND
0
POLYLINE
62
31
66
1
70
1
3
contour
0
VERTEX
10
6.61981
20
10.4744
30
10.44
0
VERTEX
10
6.62638
20
10.4657
30
10.44
0
VERTEX
10
6.64388
20
10.4591
30
10.44
0
VERTEX
10
6.66138
20
10.4569
30
10.44
0
VERTEX
10
6.67013
20
10.4569
30
10.44
0
VERTEX
10
6.67451
20
10.4569
30
10.44
0
VERTEX
10
6.67888
20
10.4613
30
10.44
0
VERTEX
10
6.68326
20
10.4613
30
10.44
0
VERTEX
10
6.68763
20
10.4657
30
10.44
0
VERTEX
10
6.69201
20
10.4657
30
10.44
0
VERTEX
10
6.69419
20
10.4701
30
10.44
0
VERTEX
10
6.7117
20
10.4723
30
10.44
0
VERTEX
10
6.71607
20
10.4701
30
10.44
0
VERTEX
10
6.72263
20
10.4876
30
10.44
0
VERTEX
10
6.72482
20
10.4963
30
10.44
0
VERTEX
10
6.72263
20
10.5138
30
10.44
0
VERTEX
10
6.72263
20
10.5226
30
10.44
0
VERTEX
10
6.7117
20
10.5379
30
10.44
0
VERTEX
10
6.70294
20
10.5423
30
10.44
0
VERTEX
10
6.66794
20
10.5444
30
10.44
0
VERTEX
10
6.65044
20
10.5466
30
10.44
0
VERTEX
10
6.63294
20
10.5444
30
10.44
0
VERTEX
10
6.62419
20
10.5269
30
10.44
0
VERTEX
10
6.61981
20
10.5094
30
10.44
0
VERTEX
10
6.61981
20
10.4766
30
10.44
0
SEQEND
0
POLYLINE
62
31
66
1
70
1
3
contour
0
VERTEX
10
6.16472
20
10.4524
30
10.44
0
VERTEX
10
6.16632
20
10.4267
30
10.44
0
VERTEX
10
6.17275
20
10.401
30
10.44
0
VERTEX
10
6.17436
20
10.3881
30
10.44
0
VERTEX
10
6.17757
20
10.3849
30
10.44
0
VERTEX
10
6.17757
20
10.3785
30
10.44
0
VERTEX
10
6.184
20
10.3656
30
10.44
0
VERTEX
10
6.18722
20
10.3543
30
10.44
0
VERTEX
10
6.18882
20
10.3479
30
10.44
0
VERTEX
10
6.20168
20
10.3383
30
10.44
0
VERTEX
10
6.20811
20
10.3318
30
10.44
0
VERTEX
10
6.23382
20
10.3302
30
10.44
0
VERTEX
10
6.28525
20
10.3318
30
10.44
0
VERTEX
10
6.31096
20
10.3318
30
10.44
0
VERTEX
10
6.32382
20
10.3318
30
10.44
0
VERTEX
10
6.33025
20
10.3335
30
10.44
0
VERTEX
10
6.33346
20
10.3335
30
10.44
0
VERTEX
10
6.33667
20
10.3367
30
10.44
0
VERTEX
10
6.3431
20
10.3367
30
10.44
0
VERTEX
10
6.34632
20
10.3367
30
10.44
0
VERTEX
10
6.35757
20
10.3447
30
10.44
0
VERTEX
10
6.36078
20
10.3479
30
10.44
0
VERTEX
10
6.36078
20
10.3511
30
10.44
0
VERTEX
10
6.3656
20
10.3576
30
10.44
0
VERTEX
10
6.3656
20
10.409
30
10.44
0
VERTEX
10
6.36239
20
10.4604
30
10.44
0
VERTEX
10
6.35917
20
10.4652
30
10.44
0
VERTEX
10
6.35917
20
10.4717
30
10.44
0
VERTEX
10
6.34632
20
10.4974
30
10.44
0
VERTEX
10
6.3431
20
10.5038
30
10.44
0
VERTEX
10
6.3431
20
10.507
30
10.44
0
VERTEX
10
6.33185
20
10.5151
30
10.44
0
VERTEX
10
6.33025
20
10.5215
30
10.44
0
VERTEX
10
6.319
20
10.5311
30
10.44
0
VERTEX
10
6.31257
20
10.5359
30
10.44
0
VERTEX
10
6.30935
20
10.5424
30
10.44
0
VERTEX
10
6.2981
20
10.5536
30
10.44
0
VERTEX
10
6.29168
20
10.5601
30
10.44
0
VERTEX
10
6.28846
20
10.5633
30
10.44
0
VERTEX
10
6.28203
20
10.5649
30
10.44
0
VERTEX
10
6.27561
20
10.5697
30
10.44
0
VERTEX
10
6.27239
20
10.5729
30
10.44
0
VERTEX
10
6.24668
20
10.5745
30
10.44
0
VERTEX
10
6.23382
20
10.5713
30
10.44
0
VERTEX
10
6.23061
20
10.5681
30
10.44
0
VERTEX
10
6.21775
20
10.5649
30
10.44
0
VERTEX
10
6.21132
20
10.5633
30
10.44
0
VERTEX
10
6.2065
20
10.5568
30
10.44
0
VERTEX
10
6.2065
20
10.5504
30
10.44
0
VERTEX
10
6.19043
20
10.5279
30
10.44
0
VERTEX
10
6.18722
20
10.5247
30
10.44
0
VERTEX
10
6.18561
20
10.5183
30
10.44
0
VERTEX
10
6.18561
20
10.5151
30
10.44
0
VERTEX
10
6.1824
20
10.5118
30
10.44
0
VERTEX
10
6.17436
20
10.4877
30
10.44
0
VERTEX
10
6.17275
20
10.4749
30
10.44
0
VERTEX
10
6.16954
20
10.4717
30
10.44
0
VERTEX
10
6.16472
20
10.4588
30
10.44
0
VERTEX
10
6.16472
20
10.454
30
10.44
0
SEQEND
0
ENDSEC
0
EOF
