0
SECTION
2
ENTITIES
0
POLYLINE
62
31
66
1
70
1
3
contour
0
VERTEX
10
10.2648
20
8.91245
30
3.28
0
VERTEX
10
10.2729
20
8.869
30
3.28
0
VERTEX
10
10.2729
20
8.85814
30
3.28
0
VERTEX
10
10.2729
20
8.85271
30
3.28
0
VERTEX
10
10.2784
20
8.84728
30
3.28
0
VERTEX
10
10.2838
20
8.82555
30
3.28
0
VERTEX
10
10.2865
20
8.81469
30
3.28
0
VERTEX
10
10.2947
20
8.80383
30
3.28
0
VERTEX
10
10.2947
20
8.7984
30
3.28
0
VERTEX
10
10.3001
20
8.79297
30
3.28
0
VERTEX
10
10.3001
20
8.78754
30
3.28
0
VERTEX
10
10.33
20
8.74409
30
3.28
0
VERTEX
10
10.3435
20
8.72236
30
3.28
0
VERTEX
10
10.3653
20
8.70335
30
3.28
0
VERTEX
10
10.4033
20
8.6762
30
3.28
0
VERTEX
10
10.4142
20
8.67077
30
3.28
0
VERTEX
10
10.4196
20
8.66534
30
3.28
0
VERTEX
10
10.463
20
8.65176
30
3.28
0
VERTEX
10
10.5499
20
8.65447
30
3.28
0
VERTEX
10
10.5717
20
8.65719
30
3.28
0
VERTEX
10
10.5771
20
8.65719
30
3.28
0
VERTEX
10
10.5825
20
8.66262
30
3.28
0
VERTEX
10
10.6042
20
8.66805
30
3.28
0
VERTEX
10
10.626
20
8.68434
30
3.28
0
VERTEX
10
10.6368
20
8.68706
30
3.28
0
VERTEX
10
10.6423
20
8.68706
30
3.28
0
VERTEX
10
10.6531
20
8.69792
30
3.28
0
VERTEX
10
10.6748
20
8.7115
30
3.28
0
VERTEX
10
10.6857
20
8.71422
30
3.28
0
VERTEX
10
10.6993
20
8.73322
30
3.28
0
VERTEX
10
10.74
20
8.76038
30
3.28
0
VERTEX
10
10.7482
20
8.7821
30
3.28
0
VERTEX
10
10.7536
20
8.79297
30
3.28
0
VERTEX
10
10.7536
20
8.7984
30
3.28
0
VERTEX
10
10.7617
20
8.80926
30
3.28
0
VERTEX
10
10.7672
20
8.81198
30
3.28
0
VERTEX
10
10.7672
20
8.81741
30
3.28
0
VERTEX
10
10.7808
20
8.83913
30
3.28
0
VERTEX
10
10.7889
20
8.84999
30
3.28
0
VERTEX
10
10.7916
20
8.86086
30
3.28
0
VERTEX
10
10.8052
20
8.88258
30
3.28
0
VERTEX
10
10.8052
20
8.88801
30
3.28
0
VERTEX
10
10.8133
20
8.89616
30
3.28
0
VERTEX
10
10.8161
20
8.90702
30
3.28
0
VERTEX
10
10.8161
20
8.91245
30
3.28
0
VERTEX
10
10.8242
20
8.92331
30
3.28
0
VERTEX
10
10.8242
20
8.94504
30
3.28
0
VERTEX
10
10.8296
20
8.9559
30
3.28
0
VERTEX
10
10.8296
20
8.96676
30
3.28
0
VERTEX
10
10.8242
20
8.97762
30
3.28
0
VERTEX
10
10.8215
20
8.99935
30
3.28
0
VERTEX
10
10.8188
20
9.01021
30
3.28
0
VERTEX
10
10.7889
20
9.05366
30
3.28
0
VERTEX
10
10.7726
20
9.07267
30
3.28
0
VERTEX
10
10.7617
20
9.09168
30
3.28
0
VERTEX
10
10.721
20
9.12155
30
3.28
0
VERTEX
10
10.7101
20
9.1297
30
3.28
0
VERTEX
10
10.6667
20
9.14599
30
3.28
0
VERTEX
10
10.645
20
9.15414
30
3.28
0
VERTEX
10
10.6341
20
9.15685
30
3.28
0
VERTEX
10
10.6287
20
9.16228
30
3.28
0
VERTEX
10
10.607
20
9.16771
30
3.28
0
VERTEX
10
10.6015
20
9.16771
30
3.28
0
VERTEX
10
10.5961
20
9.17314
30
3.28
0
VERTEX
10
10.5526
20
9.17586
30
3.28
0
VERTEX
10
10.5418
20
9.17586
30
3.28
0
VERTEX
10
10.5391
20
9.18401
30
3.28
0
VERTEX
10
10.5418
20
9.18944
30
3.28
0
VERTEX
10
10.5309
20
9.19215
30
3.28
0
VERTEX
10
10.5092
20
9.18672
30
3.28
0
VERTEX
10
10.4875
20
9.18672
30
3.28
0
VERTEX
10
10.4766
20
9.18401
30
3.28
0
VERTEX
10
10.4712
20
9.18401
30
3.28
0
VERTEX
10
10.4495
20
9.17043
30
3.28
0
VERTEX
10
10.4386
20
9.165
30
3.28
0
VERTEX
10
10.4332
20
9.165
30
3.28
0
VERTEX
10
10.4277
20
9.15957
30
3.28
0
VERTEX
10
10.4277
20
9.15414
30
3.28
0
VERTEX
10
10.4169
20
9.1487
30
3.28
0
VERTEX
10
10.4114
20
9.14327
30
3.28
0
VERTEX
10
10.4006
20
9.14056
30
3.28
0
VERTEX
10
10.3897
20
9.13241
30
3.28
0
VERTEX
10
10.3897
20
9.12698
30
3.28
0
VERTEX
10
10.3707
20
9.10797
30
3.28
0
VERTEX
10
10.3598
20
9.10254
30
3.28
0
VERTEX
10
10.3571
20
9.09711
30
3.28
0
VERTEX
10
10.3517
20
9.09711
30
3.28
0
VERTEX
10
10.3164
20
9.05909
30
3.28
0
VERTEX
10
10.2947
20
9.04008
30
3.28
0
VERTEX
10
10.2784
20
9.02107
30
3.28
0
VERTEX
10
10.2729
20
9.01021
30
3.28
0
VERTEX
10
10.2729
20
9.00478
30
3.28
0
VERTEX
10
10.2675
20
9.00206
30
3.28
0
VERTEX
10
10.2648
20
8.91517
30
3.28
0
SEQEND
0
POLYLINE
62
31
66
1
70
1
3
contour
0
VERTEX
10
9.8477
20
7.93812
30
3.28
0
VERTEX
10
9.85422
20
7.88598
30
3.28
0
VERTEX
10
9.85748
20
7.85991
30
3.28
0
VERTEX
10
9.86399
20
7.8534
30
3.28
0
VERTEX
10
9.86725
20
7.82733
30
3.28
0
VERTEX
10
9.87051
20
7.81429
30
3.28
0
VERTEX
10
9.88029
20
7.80126
30
3.28
0
VERTEX
10
9.92265
20
7.77193
30
3.28
0
VERTEX
10
9.93569
20
7.74586
30
3.28
0
VERTEX
10
9.95524
20
7.71979
30
3.28
0
VERTEX
10
10.0041
20
7.68069
30
3.28
0
VERTEX
10
10.0074
20
7.67417
30
3.28
0
VERTEX
10
10.0139
20
7.67417
30
3.28
0
VERTEX
10
10.0465
20
7.62203
30
3.28
0
VERTEX
10
10.0693
20
7.59922
30
3.28
0
VERTEX
10
10.0791
20
7.5927
30
3.28
0
VERTEX
10
10.0823
20
7.57967
30
3.28
0
VERTEX
10
10.0986
20
7.56011
30
3.28
0
VERTEX
10
10.1149
20
7.50798
30
3.28
0
VERTEX
10
10.1247
20
7.4037
30
3.28
0
VERTEX
10
10.1345
20
7.37763
30
3.28
0
VERTEX
10
10.141
20
7.36459
30
3.28
0
VERTEX
10
10.154
20
7.35482
30
3.28
0
VERTEX
10
10.2583
20
7.33853
30
3.28
0
VERTEX
10
10.4668
20
7.34504
30
3.28
0
VERTEX
10
10.4799
20
7.34504
30
3.28
0
VERTEX
10
10.4864
20
7.34504
30
3.28
0
VERTEX
10
10.4897
20
7.35808
30
3.28
0
VERTEX
10
10.4897
20
7.36459
30
3.28
0
VERTEX
10
10.4831
20
7.37111
30
3.28
0
VERTEX
10
10.4766
20
7.47539
30
3.28
0
VERTEX
10
10.4734
20
7.50146
30
3.28
0
VERTEX
10
10.4636
20
7.52753
30
3.28
0
VERTEX
10
10.4603
20
7.54056
30
3.28
0
VERTEX
10
10.4603
20
7.54708
30
3.28
0
VERTEX
10
10.4538
20
7.5536
30
3.28
0
VERTEX
10
10.4473
20
7.60574
30
3.28
0
VERTEX
10
10.4408
20
7.61877
30
3.28
0
VERTEX
10
10.4375
20
7.64484
30
3.28
0
VERTEX
10
10.4245
20
7.67091
30
3.28
0
VERTEX
10
10.4212
20
7.69698
30
3.28
0
VERTEX
10
10.4212
20
7.71001
30
3.28
0
VERTEX
10
10.4049
20
7.76215
30
3.28
0
VERTEX
10
10.3984
20
7.78822
30
3.28
0
VERTEX
10
10.3984
20
7.8925
30
3.28
0
VERTEX
10
10.4017
20
7.94464
30
3.28
0
VERTEX
10
10.4017
20
7.95767
30
3.28
0
VERTEX
10
10.4082
20
7.97071
30
3.28
0
VERTEX
10
10.4212
20
7.98048
30
3.28
0
VERTEX
10
10.4734
20
7.97397
30
3.28
0
VERTEX
10
10.4994
20
7.96419
30
3.28
0
VERTEX
10
10.5516
20
7.93486
30
3.28
0
VERTEX
10
10.5581
20
7.92834
30
3.28
0
VERTEX
10
10.5581
20
7.92183
30
3.28
0
VERTEX
10
10.6037
20
7.87946
30
3.28
0
VERTEX
10
10.6265
20
7.85665
30
3.28
0
VERTEX
10
10.6363
20
7.85014
30
3.28
0
VERTEX
10
10.6624
20
7.82733
30
3.28
0
VERTEX
10
10.6721
20
7.81755
30
3.28
0
VERTEX
10
10.6852
20
7.81429
30
3.28
0
VERTEX
10
10.6982
20
7.80452
30
3.28
0
VERTEX
10
10.7243
20
7.798
30
3.28
0
VERTEX
10
10.7504
20
7.798
30
3.28
0
VERTEX
10
10.7634
20
7.80126
30
3.28
0
VERTEX
10
10.7634
20
7.8534
30
3.28
0
VERTEX
10
10.7569
20
7.87946
30
3.28
0
VERTEX
10
10.7504
20
7.88598
30
3.28
0
VERTEX
10
10.7504
20
7.8925
30
3.28
0
VERTEX
10
10.7438
20
7.89902
30
3.28
0
VERTEX
10
10.7406
20
7.91205
30
3.28
0
VERTEX
10
10.7341
20
7.91857
30
3.28
0
VERTEX
10
10.7373
20
7.9316
30
3.28
0
VERTEX
10
10.721
20
7.98374
30
3.28
0
VERTEX
10
10.708
20
7.99678
30
3.28
0
VERTEX
10
10.7015
20
8.00981
30
3.28
0
VERTEX
10
10.6884
20
8.01633
30
3.28
0
VERTEX
10
10.6624
20
8.01633
30
3.28
0
VERTEX
10
10.6493
20
8.0261
30
3.28
0
VERTEX
10
10.6363
20
8.02936
30
3.28
0
VERTEX
10
10.6233
20
8.03914
30
3.28
0
VERTEX
10
10.5972
20
8.04566
30
3.28
0
VERTEX
10
10.5711
20
8.06521
30
3.28
0
VERTEX
10
10.5646
20
8.07173
30
3.28
0
VERTEX
10
10.5385
20
8.07173
30
3.28
0
VERTEX
10
10.4864
20
8.0815
30
3.28
0
VERTEX
10
10.4668
20
8.0978
30
3.28
0
VERTEX
10
10.444
20
8.12061
30
3.28
0
VERTEX
10
10.431
20
8.14668
30
3.28
0
VERTEX
10
10.418
20
8.19881
30
3.28
0
VERTEX
10
10.418
20
8.21185
30
3.28
0
VERTEX
10
10.3919
20
8.22162
30
3.28
0
VERTEX
10
10.3723
20
8.24118
30
3.28
0
VERTEX
10
10.3202
20
8.24769
30
3.28
0
VERTEX
10
10.3137
20
8.24769
30
3.28
0
VERTEX
10
10.3104
20
8.25421
30
3.28
0
VERTEX
10
10.3039
20
8.25421
30
3.28
0
VERTEX
10
10.2941
20
8.26725
30
3.28
0
VERTEX
10
10.2681
20
8.28028
30
3.28
0
VERTEX
10
10.242
20
8.2868
30
3.28
0
VERTEX
10
10.2257
20
8.30309
30
3.28
0
VERTEX
10
10.1996
20
8.30961
30
3.28
0
VERTEX
10
10.1736
20
8.32916
30
3.28
0
VERTEX
10
10.154
20
8.34871
30
3.28
0
VERTEX
10
10.1475
20
8.35523
30
3.28
0
VERTEX
10
10.1214
20
8.36175
30
3.28
0
VERTEX
10
10.1084
20
8.37152
30
3.28
0
VERTEX
10
10.0856
20
8.36175
30
3.28
0
VERTEX
10
10.0725
20
8.36175
30
3.28
0
VERTEX
10
10.0595
20
8.35197
30
3.28
0
VERTEX
10
10.053
20
8.34545
30
3.28
0
VERTEX
10
10.0041
20
8.32916
30
3.28
0
VERTEX
10
9.98131
20
8.31287
30
3.28
0
VERTEX
10
9.96827
20
8.30635
30
3.28
0
VERTEX
10
9.96175
20
8.29657
30
3.28
0
VERTEX
10
9.91939
20
8.25747
30
3.28
0
VERTEX
10
9.89332
20
8.23466
30
3.28
0
VERTEX
10
9.88681
20
8.20859
30
3.28
0
VERTEX
10
9.88681
20
8.19556
30
3.28
0
VERTEX
10
9.88029
20
8.18904
30
3.28
0
VERTEX
10
9.87703
20
8.16297
30
3.28
0
VERTEX
10
9.87703
20
8.14993
30
3.28
0
VERTEX
10
9.86725
20
8.12386
30
3.28
0
VERTEX
10
9.86399
20
8.07173
30
3.28
0
VERTEX
10
9.86399
20
8.04566
30
3.28
0
VERTEX
10
9.8477
20
7.99352
30
3.28
0
VERTEX
10
9.8477
20
7.94138
30
3.28
0
SEQEND
0
POLYLINE
62
224
66
1
70
1
3
mitochondrion
0
VERTEX
10
10.0761
20
7.99986
30
3.28
0
VERTEX
10
10.0803
20
7.98313
30
3.28
0
VERTEX
10
10.0971
20
7.94968
30
3.28
0
VERTEX
10
10.1117
20
7.93504
30
3.28
0
VERTEX
10
10.1284
20
7.92459
30
3.28
0
VERTEX
10
10.1619
20
7.91204
30
3.28
0
VERTEX
10
10.1786
20
7.90577
30
3.28
0
VERTEX
10
10.187
20
7.90577
30
3.28
0
VERTEX
10
10.1932
20
7.90159
30
3.28
0
VERTEX
10
10.1953
20
7.8974
30
3.28
0
VERTEX
10
10.2121
20
7.89322
30
3.28
0
VERTEX
10
10.2288
20
7.89322
30
3.28
0
VERTEX
10
10.2455
20
7.8974
30
3.28
0
VERTEX
10
10.2539
20
7.89949
30
3.28
0
VERTEX
10
10.256
20
7.90368
30
3.28
0
VERTEX
10
10.2727
20
7.90577
30
3.28
0
VERTEX
10
10.2873
20
7.91831
30
3.28
0
VERTEX
10
10.3041
20
7.92459
30
3.28
0
VERTEX
10
10.3166
20
7.94131
30
3.28
0
VERTEX
10
10.3312
20
8.00822
30
3.28
0
VERTEX
10
10.3312
20
8.02495
30
3.28
0
VERTEX
10
10.325
20
8.03331
30
3.28
0
VERTEX
10
10.3229
20
8.06677
30
3.28
0
VERTEX
10
10.3166
20
8.0835
30
3.28
0
VERTEX
10
10.3061
20
8.10022
30
3.28
0
VERTEX
10
10.3061
20
8.1044
30
3.28
0
VERTEX
10
10.2978
20
8.11277
30
3.28
0
VERTEX
10
10.2915
20
8.11695
30
3.28
0
VERTEX
10
10.2852
20
8.12531
30
3.28
0
VERTEX
10
10.2685
20
8.13368
30
3.28
0
VERTEX
10
10.2601
20
8.13786
30
3.28
0
VERTEX
10
10.1932
20
8.13995
30
3.28
0
VERTEX
10
10.1598
20
8.13995
30
3.28
0
VERTEX
10
10.1514
20
8.13995
30
3.28
0
VERTEX
10
10.1472
20
8.13995
30
3.28
0
VERTEX
10
10.1242
20
8.10859
30
3.28
0
VERTEX
10
10.1159
20
8.1044
30
3.28
0
VERTEX
10
10.0929
20
8.07513
30
3.28
0
VERTEX
10
10.0866
20
8.0584
30
3.28
0
VERTEX
10
10.0803
20
8.05213
30
3.28
0
VERTEX
10
10.0803
20
8.0354
30
3.28
0
VERTEX
10
10.0761
20
8.01868
30
3.28
0
VERTEX
10
10.0761
20
8.00195
30
3.28
0
SEQEND
0
POLYLINE
62
227
66
1
70
1
3
endoplasmic_reticulum
0
VERTEX
10
10.0403
20
8.17222
30
3.28
0
VERTEX
10
10.0478
20
8.16662
30
3.28
0
VERTEX
10
10.0627
20
8.16289
30
3.28
0
VERTEX
10
10.0702
20
8.16102
30
3.28
0
VERTEX
10
10.0758
20
8.16476
30
3.28
0
VERTEX
10
10.0907
20
8.16662
30
3.28
0
VERTEX
10
10.0944
20
8.16662
30
3.28
0
VERTEX
10
10.1019
20
8.17222
30
3.28
0
VERTEX
10
10.1094
20
8.17409
30
3.28
0
VERTEX
10
10.115
20
8.18902
30
3.28
0
VERTEX
10
10.1131
20
8.20395
30
3.28
0
VERTEX
10
10.1168
20
8.21888
30
3.28
0
VERTEX
10
10.1056
20
8.23381
30
3.28
0
VERTEX
10
10.1056
20
8.23754
30
3.28
0
VERTEX
10
10.1
20
8.24314
30
3.28
0
VERTEX
10
10.1019
20
8.245
30
3.28
0
VERTEX
10
10.0982
20
8.24874
30
3.28
0
VERTEX
10
10.0944
20
8.24127
30
3.28
0
VERTEX
10
10.0907
20
8.23754
30
3.28
0
VERTEX
10
10.087
20
8.23754
30
3.28
0
VERTEX
10
10.0795
20
8.22448
30
3.28
0
VERTEX
10
10.0534
20
8.20208
30
3.28
0
VERTEX
10
10.0422
20
8.19648
30
3.28
0
VERTEX
10
10.0403
20
8.18155
30
3.28
0
VERTEX
10
10.0403
20
8.17409
30
3.28
0
SEQEND
0
POLYLINE
62
227
66
1
70
1
3
endoplasmic_reticulum
0
VERTEX
10
10.1971
20
8.18715
30
3.28
0
VERTEX
10
10.1989
20
8.17969
30
3.28
0
VERTEX
10
10.2027
20
8.17595
30
3.28
0
VERTEX
10
10.2101
20
8.17409
30
3.28
0
VERTEX
10
10.2139
20
8.17035
30
3.28
0
VERTEX
10
10.2437
20
8.17035
30
3.28
0
VERTEX
10
10.2587
20
8.17035
30
3.28
0
VERTEX
10
10.2624
20
8.17409
30
3.28
0
VERTEX
10
10.2699
20
8.17409
30
3.28
0
VERTEX
10
10.2755
20
8.18155
30
3.28
0
VERTEX
10
10.2755
20
8.19648
30
3.28
0
VERTEX
10
10.2755
20
8.20395
30
3.28
0
VERTEX
10
10.2755
20
8.20768
30
3.28
0
VERTEX
10
10.268
20
8.21141
30
3.28
0
VERTEX
10
10.2381
20
8.21328
30
3.28
0
VERTEX
10
10.2083
20
8.21888
30
3.28
0
VERTEX
10
10.2027
20
8.21328
30
3.28
0
VERTEX
10
10.2027
20
8.20955
30
3.28
0
VERTEX
10
10.1989
20
8.20581
30
3.28
0
VERTEX
10
10.1971
20
8.19088
30
3.28
0
VERTEX
10
10.1971
20
8.18902
30
3.28
0
SEQEND
0
POLYLINE
62
227
66
1
70
1
3
endoplasmic_reticulum
0
VERTEX
10
10.3389
20
8.84033
30
3.28
0
VERTEX
10
10.3426
20
8.8366
30
3.28
0
VERTEX
10
10.3576
20
8.83847
30
3.28
0
VERTEX
10
10.3669
20
8.8534
30
3.28
0
VERTEX
10
10.3725
20
8.86646
30
3.28
0
VERTEX
10
10.3762
20
8.87019
30
3.28
0
VERTEX
10
10.3762
20
8.87392
30
3.28
0
VERTEX
10
10.3893
20
8.88699
30
3.28
0
VERTEX
10
10.3968
20
8.89259
30
3.28
0
VERTEX
10
10.3968
20
8.89632
30
3.28
0
VERTEX
10
10.4005
20
8.90005
30
3.28
0
VERTEX
10
10.4061
20
8.91498
30
3.28
0
VERTEX
10
10.408
20
8.92991
30
3.28
0
VERTEX
10
10.4154
20
8.93364
30
3.28
0
VERTEX
10
10.4192
20
8.93364
30
3.28
0
VERTEX
10
10.4248
20
8.94111
30
3.28
0
VERTEX
10
10.4229
20
8.94857
30
3.28
0
VERTEX
10
10.4098
20
8.9579
30
3.28
0
VERTEX
10
10.3949
20
8.9579
30
3.28
0
VERTEX
10
10.3874
20
8.95604
30
3.28
0
VERTEX
10
10.3632
20
8.93364
30
3.28
0
VERTEX
10
10.352
20
8.91871
30
3.28
0
VERTEX
10
10.352
20
8.91498
30
3.28
0
VERTEX
10
10.3482
20
8.91125
30
3.28
0
VERTEX
10
10.3482
20
8.90752
30
3.28
0
VERTEX
10
10.3408
20
8.90378
30
3.28
0
VERTEX
10
10.3389
20
8.84406
30
3.28
0
VERTEX
10
10.3389
20
8.8422
30
3.28
0
SEQEND
0
ENDSEC
0
EOF
