0
SECTION
2
ENTITIES
0
POLYLINE
62
236
66
1
70
1
3
postsynaptic_density
0
VERTEX
10
6.58779
20
10.3408
30
10.36
0
VERTEX
10
6.58966
20
10.3259
30
10.36
0
VERTEX
10
6.59153
20
10.3184
30
10.36
0
VERTEX
10
6.59526
20
10.3147
30
10.36
0
VERTEX
10
6.61019
20
10.3147
30
10.36
0
VERTEX
10
6.61765
20
10.3165
30
10.36
0
VERTEX
10
6.62139
20
10.3165
30
10.36
0
VERTEX
10
6.62885
20
10.3221
30
10.36
0
VERTEX
10
6.63818
20
10.3333
30
10.36
0
VERTEX
10
6.66618
20
10.3464
30
10.36
0
VERTEX
10
6.66991
20
10.3464
30
10.36
0
VERTEX
10
6.67551
20
10.3538
30
10.36
0
VERTEX
10
6.69044
20
10.3538
30
10.36
0
VERTEX
10
6.6923
20
10.3501
30
10.36
0
VERTEX
10
6.70723
20
10.3501
30
10.36
0
VERTEX
10
6.73709
20
10.3576
30
10.36
0
VERTEX
10
6.75202
20
10.3613
30
10.36
0
VERTEX
10
6.75949
20
10.365
30
10.36
0
VERTEX
10
6.76322
20
10.3688
30
10.36
0
VERTEX
10
6.77815
20
10.3725
30
10.36
0
VERTEX
10
6.78561
20
10.3725
30
10.36
0
VERTEX
10
6.83787
20
10.4117
30
10.36
0
VERTEX
10
6.85093
20
10.4248
30
10.36
0
VERTEX
10
6.86026
20
10.4378
30
10.36
0
VERTEX
10
6.86213
20
10.4416
30
10.36
0
VERTEX
10
6.8584
20
10.4565
30
10.36
0
VERTEX
10
6.85093
20
10.4714
30
10.36
0
VERTEX
10
6.84907
20
10.4789
30
10.36
0
VERTEX
10
6.8416
20
10.4863
30
10.36
0
VERTEX
10
6.83414
20
10.4901
30
10.36
0
VERTEX
10
6.8248
20
10.5013
30
10.36
0
VERTEX
10
6.81921
20
10.5087
30
10.36
0
VERTEX
10
6.81547
20
10.5106
30
10.36
0
VERTEX
10
6.81547
20
10.5143
30
10.36
0
VERTEX
10
6.80054
20
10.5199
30
10.36
0
VERTEX
10
6.6811
20
10.4546
30
10.36
0
VERTEX
10
6.65125
20
10.4378
30
10.36
0
VERTEX
10
6.63632
20
10.4285
30
10.36
0
VERTEX
10
6.62139
20
10.4248
30
10.36
0
VERTEX
10
6.61765
20
10.4098
30
10.36
0
VERTEX
10
6.60832
20
10.3968
30
10.36
0
VERTEX
10
6.60459
20
10.3949
30
10.36
0
VERTEX
10
6.60459
20
10.3912
30
10.36
0
VERTEX
10
6.59899
20
10.3818
30
10.36
0
VERTEX
10
6.58779
20
10.352
30
10.36
0
VERTEX
10
6.58779
20
10.3445
30
10.36
0
VERTEX
10
6.58779
20
10.3426
30
10.36
0
SEQEND
0
POLYLINE
62
227
66
1
70
1
3
endoplasmic_reticulum
0
VERTEX
10
7.11858
20
10.8428
30
10.36
0
VERTEX
10
7.12396
20
10.8357
30
10.36
0
VERTEX
10
7.1374
20
10.8348
30
10.36
0
VERTEX
10
7.1383
20
10.833
30
10.36
0
VERTEX
10
7.12396
20
10.8213
30
10.36
0
VERTEX
10
7.12216
20
10.8177
30
10.36
0
VERTEX
10
7.12306
20
10.8106
30
10.36
0
VERTEX
10
7.12396
20
10.807
30
10.36
0
VERTEX
10
7.12933
20
10.8016
30
10.36
0
VERTEX
10
7.13292
20
10.798
30
10.36
0
VERTEX
10
7.13651
20
10.7962
30
10.36
0
VERTEX
10
7.14368
20
10.7962
30
10.36
0
VERTEX
10
7.15802
20
10.8025
30
10.36
0
VERTEX
10
7.1652
20
10.8061
30
10.36
0
VERTEX
10
7.17237
20
10.8114
30
10.36
0
VERTEX
10
7.17416
20
10.815
30
10.36
0
VERTEX
10
7.18044
20
10.8195
30
10.36
0
VERTEX
10
7.18223
20
10.8231
30
10.36
0
VERTEX
10
7.1894
20
10.8276
30
10.36
0
VERTEX
10
7.1912
20
10.8294
30
10.36
0
VERTEX
10
7.19478
20
10.8303
30
10.36
0
VERTEX
10
7.20195
20
10.8366
30
10.36
0
VERTEX
10
7.20375
20
10.8383
30
10.36
0
VERTEX
10
7.26113
20
10.8374
30
10.36
0
VERTEX
10
7.28982
20
10.8357
30
10.36
0
VERTEX
10
7.31851
20
10.8357
30
10.36
0
VERTEX
10
7.32568
20
10.8374
30
10.36
0
VERTEX
10
7.32747
20
10.8374
30
10.36
0
VERTEX
10
7.33464
20
10.8419
30
10.36
0
VERTEX
10
7.34002
20
10.8473
30
10.36
0
VERTEX
10
7.34182
20
10.8491
30
10.36
0
VERTEX
10
7.34182
20
10.8509
30
10.36
0
VERTEX
10
7.34361
20
10.8527
30
10.36
0
VERTEX
10
7.34361
20
10.8545
30
10.36
0
VERTEX
10
7.3472
20
10.8581
30
10.36
0
VERTEX
10
7.34809
20
10.8652
30
10.36
0
VERTEX
10
7.34989
20
10.867
30
10.36
0
VERTEX
10
7.34899
20
10.8742
30
10.36
0
VERTEX
10
7.34899
20
10.8778
30
10.36
0
VERTEX
10
7.34899
20
10.8796
30
10.36
0
VERTEX
10
7.3472
20
10.8814
30
10.36
0
VERTEX
10
7.3463
20
10.885
30
10.36
0
VERTEX
10
7.34361
20
10.8886
30
10.36
0
VERTEX
10
7.34271
20
10.8903
30
10.36
0
VERTEX
10
7.32837
20
10.8948
30
10.36
0
VERTEX
10
7.31402
20
10.8957
30
10.36
0
VERTEX
10
7.29968
20
10.8948
30
10.36
0
VERTEX
10
7.29251
20
10.8948
30
10.36
0
VERTEX
10
7.27816
20
10.8903
30
10.36
0
VERTEX
10
7.27189
20
10.8868
30
10.36
0
VERTEX
10
7.2683
20
10.8841
30
10.36
0
VERTEX
10
7.25395
20
10.8796
30
10.36
0
VERTEX
10
7.22527
20
10.8778
30
10.36
0
VERTEX
10
7.19658
20
10.8778
30
10.36
0
VERTEX
10
7.18223
20
10.8769
30
10.36
0
VERTEX
10
7.17506
20
10.8751
30
10.36
0
VERTEX
10
7.17147
20
10.8733
30
10.36
0
VERTEX
10
7.15713
20
10.8724
30
10.36
0
VERTEX
10
7.14278
20
10.8688
30
10.36
0
VERTEX
10
7.14189
20
10.867
30
10.36
0
VERTEX
10
7.13471
20
10.8661
30
10.36
0
VERTEX
10
7.13113
20
10.8643
30
10.36
0
VERTEX
10
7.12933
20
10.8626
30
10.36
0
VERTEX
10
7.12575
20
10.8617
30
10.36
0
VERTEX
10
7.11947
20
10.8563
30
10.36
0
VERTEX
10
7.11858
20
10.8491
30
10.36
0
VERTEX
10
7.11858
20
10.8455
30
10.36
0
VERTEX
10
7.11858
20
10.8437
30
10.36
0
SEQEND
0
POLYLINE
62
227
66
1
70
1
3
endoplasmic_reticulum
0
VERTEX
10
7.19837
20
10.7693
30
10.36
0
VERTEX
10
7.20285
20
10.7621
30
10.36
0
VERTEX
10
7.20644
20
10.7594
30
10.36
0
VERTEX
10
7.20733
20
10.7577
30
10.36
0
VERTEX
10
7.22168
20
10.7586
30
10.36
0
VERTEX
10
7.22885
20
10.7612
30
10.36
0
VERTEX
10
7.23602
20
10.7621
30
10.36
0
VERTEX
10
7.23961
20
10.7621
30
10.36
0
VERTEX
10
7.24678
20
10.7648
30
10.36
0
VERTEX
10
7.25037
20
10.7675
30
10.36
0
VERTEX
10
7.25754
20
10.7702
30
10.36
0
VERTEX
10
7.27099
20
10.781
30
10.36
0
VERTEX
10
7.27816
20
10.7863
30
10.36
0
VERTEX
10
7.28533
20
10.7899
30
10.36
0
VERTEX
10
7.28713
20
10.7917
30
10.36
0
VERTEX
10
7.28802
20
10.7989
30
10.36
0
VERTEX
10
7.28623
20
10.8016
30
10.36
0
VERTEX
10
7.28623
20
10.8088
30
10.36
0
VERTEX
10
7.28623
20
10.8123
30
10.36
0
VERTEX
10
7.28264
20
10.8195
30
10.36
0
VERTEX
10
7.27995
20
10.8231
30
10.36
0
VERTEX
10
7.27278
20
10.8258
30
10.36
0
VERTEX
10
7.25844
20
10.8267
30
10.36
0
VERTEX
10
7.24409
20
10.8258
30
10.36
0
VERTEX
10
7.23692
20
10.8258
30
10.36
0
VERTEX
10
7.23333
20
10.8258
30
10.36
0
VERTEX
10
7.22616
20
10.8222
30
10.36
0
VERTEX
10
7.22168
20
10.8159
30
10.36
0
VERTEX
10
7.21451
20
10.8106
30
10.36
0
VERTEX
10
7.21182
20
10.8079
30
10.36
0
VERTEX
10
7.21002
20
10.8079
30
10.36
0
VERTEX
10
7.20285
20
10.8034
30
10.36
0
VERTEX
10
7.20195
20
10.7998
30
10.36
0
VERTEX
10
7.20195
20
10.798
30
10.36
0
VERTEX
10
7.19927
20
10.7944
30
10.36
0
VERTEX
10
7.19837
20
10.7801
30
10.36
0
VERTEX
10
7.19837
20
10.7729
30
10.36
0
VERTEX
10
7.19837
20
10.7702
30
10.36
0
SEQEND
0
POLYLINE
62
227
66
1
70
1
3
endoplasmic_reticulum
0
VERTEX
10
7.38754
20
10.7747
30
10.36
0
VERTEX
10
7.38933
20
10.7675
30
10.36
0
VERTEX
10
7.38933
20
10.7532
30
10.36
0
VERTEX
10
7.38933
20
10.7496
30
10.36
0
VERTEX
10
7.39113
20
10.746
30
10.36
0
VERTEX
10
7.39113
20
10.7388
30
10.36
0
VERTEX
10
7.39651
20
10.7245
30
10.36
0
VERTEX
10
7.3992
20
10.7182
30
10.36
0
VERTEX
10
7.40188
20
10.7146
30
10.36
0
VERTEX
10
7.40906
20
10.711
30
10.36
0
VERTEX
10
7.41533
20
10.7057
30
10.36
0
VERTEX
10
7.41892
20
10.703
30
10.36
0
VERTEX
10
7.42071
20
10.703
30
10.36
0
VERTEX
10
7.43506
20
10.694
30
10.36
0
VERTEX
10
7.44223
20
10.6913
30
10.36
0
VERTEX
10
7.4494
20
10.6913
30
10.36
0
VERTEX
10
7.46375
20
10.6976
30
10.36
0
VERTEX
10
7.46733
20
10.6985
30
10.36
0
VERTEX
10
7.47271
20
10.7048
30
10.36
0
VERTEX
10
7.47988
20
10.7182
30
10.36
0
VERTEX
10
7.48257
20
10.7326
30
10.36
0
VERTEX
10
7.48257
20
10.7397
30
10.36
0
VERTEX
10
7.48347
20
10.7433
30
10.36
0
VERTEX
10
7.48347
20
10.7451
30
10.36
0
VERTEX
10
7.48526
20
10.7469
30
10.36
0
VERTEX
10
7.48526
20
10.7487
30
10.36
0
VERTEX
10
7.48706
20
10.7505
30
10.36
0
VERTEX
10
7.49244
20
10.7648
30
10.36
0
VERTEX
10
7.49244
20
10.772
30
10.36
0
VERTEX
10
7.48706
20
10.7863
30
10.36
0
VERTEX
10
7.47988
20
10.8007
30
10.36
0
VERTEX
10
7.47809
20
10.8043
30
10.36
0
VERTEX
10
7.47092
20
10.8106
30
10.36
0
VERTEX
10
7.46375
20
10.8132
30
10.36
0
VERTEX
10
7.4494
20
10.8132
30
10.36
0
VERTEX
10
7.44582
20
10.8132
30
10.36
0
VERTEX
10
7.44402
20
10.8141
30
10.36
0
VERTEX
10
7.44313
20
10.8177
30
10.36
0
VERTEX
10
7.43595
20
10.8186
30
10.36
0
VERTEX
10
7.42161
20
10.8141
30
10.36
0
VERTEX
10
7.41802
20
10.8132
30
10.36
0
VERTEX
10
7.41175
20
10.8079
30
10.36
0
VERTEX
10
7.41085
20
10.8061
30
10.36
0
VERTEX
10
7.40726
20
10.8052
30
10.36
0
VERTEX
10
7.40368
20
10.8016
30
10.36
0
VERTEX
10
7.40009
20
10.8007
30
10.36
0
VERTEX
10
7.38844
20
10.789
30
10.36
0
VERTEX
10
7.38754
20
10.7756
30
10.36
0
SEQEND
0
POLYLINE
62
227
66
1
70
1
3
endoplasmic_reticulum
0
VERTEX
10
7.4763
20
10.8437
30
10.36
0
VERTEX
10
7.48257
20
10.8294
30
10.36
0
VERTEX
10
7.48975
20
10.8222
30
10.36
0
VERTEX
10
7.50409
20
10.8141
30
10.36
0
VERTEX
10
7.50768
20
10.8123
30
10.36
0
VERTEX
10
7.52202
20
10.8132
30
10.36
0
VERTEX
10
7.52919
20
10.815
30
10.36
0
VERTEX
10
7.53547
20
10.8204
30
10.36
0
VERTEX
10
7.53816
20
10.824
30
10.36
0
VERTEX
10
7.53995
20
10.8312
30
10.36
0
VERTEX
10
7.56057
20
10.8554
30
10.36
0
VERTEX
10
7.56416
20
10.859
30
10.36
0
VERTEX
10
7.57044
20
10.8634
30
10.36
0
VERTEX
10
7.57761
20
10.8661
30
10.36
0
VERTEX
10
7.58119
20
10.8697
30
10.36
0
VERTEX
10
7.58299
20
10.8733
30
10.36
0
VERTEX
10
7.58657
20
10.876
30
10.36
0
VERTEX
10
7.59106
20
10.8903
30
10.36
0
VERTEX
10
7.59195
20
10.9047
30
10.36
0
VERTEX
10
7.59195
20
10.9119
30
10.36
0
VERTEX
10
7.58926
20
10.919
30
10.36
0
VERTEX
10
7.58388
20
10.9244
30
10.36
0
VERTEX
10
7.57761
20
10.9271
30
10.36
0
VERTEX
10
7.56326
20
10.9262
30
10.36
0
VERTEX
10
7.55609
20
10.9253
30
10.36
0
VERTEX
10
7.54892
20
10.9226
30
10.36
0
VERTEX
10
7.54533
20
10.9199
30
10.36
0
VERTEX
10
7.53816
20
10.919
30
10.36
0
VERTEX
10
7.53457
20
10.9181
30
10.36
0
VERTEX
10
7.53278
20
10.9146
30
10.36
0
VERTEX
10
7.51933
20
10.9056
30
10.36
0
VERTEX
10
7.50588
20
10.893
30
10.36
0
VERTEX
10
7.50588
20
10.8912
30
10.36
0
VERTEX
10
7.5005
20
10.8859
30
10.36
0
VERTEX
10
7.49782
20
10.8787
30
10.36
0
VERTEX
10
7.49244
20
10.8733
30
10.36
0
VERTEX
10
7.48975
20
10.8724
30
10.36
0
VERTEX
10
7.48706
20
10.8688
30
10.36
0
VERTEX
10
7.48526
20
10.867
30
10.36
0
VERTEX
10
7.48347
20
10.8599
30
10.36
0
VERTEX
10
7.48347
20
10.8527
30
10.36
0
VERTEX
10
7.48347
20
10.8491
30
10.36
0
VERTEX
10
7.47719
20
10.8626
30
10.36
0
VERTEX
10
7.4763
20
10.8482
30
10.36
0
VERTEX
10
7.4763
20
10.8446
30
10.36
0
SEQEND
0
POLYLINE
62
31
66
1
70
1
3
contour
0
VERTEX
10
6.552
20
10.4263
30
10.36
0
VERTEX
10
6.55637
20
10.4088
30
10.36
0
VERTEX
10
6.56512
20
10.3913
30
10.36
0
VERTEX
10
6.57169
20
10.3826
30
10.36
0
VERTEX
10
6.57387
20
10.3782
30
10.36
0
VERTEX
10
6.58262
20
10.3782
30
10.36
0
VERTEX
10
6.61763
20
10.3629
30
10.36
0
VERTEX
10
6.63513
20
10.3651
30
10.36
0
VERTEX
10
6.65263
20
10.3716
30
10.36
0
VERTEX
10
6.66138
20
10.3782
30
10.36
0
VERTEX
10
6.66575
20
10.3782
30
10.36
0
VERTEX
10
6.67669
20
10.3935
30
10.36
0
VERTEX
10
6.69201
20
10.4023
30
10.36
0
VERTEX
10
6.69419
20
10.4066
30
10.36
0
VERTEX
10
6.69857
20
10.4066
30
10.36
0
VERTEX
10
6.71388
20
10.4176
30
10.36
0
VERTEX
10
6.71826
20
10.4241
30
10.36
0
VERTEX
10
6.73576
20
10.4373
30
10.36
0
VERTEX
10
6.75326
20
10.4438
30
10.36
0
VERTEX
10
6.76857
20
10.4548
30
10.36
0
VERTEX
10
6.78607
20
10.4701
30
10.36
0
VERTEX
10
6.79701
20
10.4854
30
10.36
0
VERTEX
10
6.80139
20
10.4941
30
10.36
0
VERTEX
10
6.80358
20
10.4985
30
10.36
0
VERTEX
10
6.81233
20
10.5007
30
10.36
0
VERTEX
10
6.82326
20
10.516
30
10.36
0
VERTEX
10
6.82326
20
10.5204
30
10.36
0
VERTEX
10
6.82764
20
10.5248
30
10.36
0
VERTEX
10
6.82545
20
10.5598
30
10.36
0
VERTEX
10
6.82545
20
10.5641
30
10.36
0
VERTEX
10
6.82108
20
10.5685
30
10.36
0
VERTEX
10
6.82108
20
10.5729
30
10.36
0
VERTEX
10
6.8167
20
10.5773
30
10.36
0
VERTEX
10
6.81233
20
10.5948
30
10.36
0
VERTEX
10
6.80576
20
10.6035
30
10.36
0
VERTEX
10
6.80139
20
10.6079
30
10.36
0
VERTEX
10
6.80139
20
10.6166
30
10.36
0
VERTEX
10
6.79483
20
10.6254
30
10.36
0
VERTEX
10
6.79264
20
10.6276
30
10.36
0
VERTEX
10
6.77514
20
10.6254
30
10.36
0
VERTEX
10
6.74013
20
10.6276
30
10.36
0
VERTEX
10
6.72263
20
10.6298
30
10.36
0
VERTEX
10
6.68763
20
10.6276
30
10.36
0
VERTEX
10
6.67013
20
10.6254
30
10.36
0
VERTEX
10
6.66138
20
10.6188
30
10.36
0
VERTEX
10
6.65263
20
10.6188
30
10.36
0
VERTEX
10
6.61763
20
10.5948
30
10.36
0
VERTEX
10
6.60013
20
10.5816
30
10.36
0
VERTEX
10
6.57606
20
10.5532
30
10.36
0
VERTEX
10
6.57387
20
10.5182
30
10.36
0
VERTEX
10
6.57169
20
10.5094
30
10.36
0
VERTEX
10
6.57169
20
10.5051
30
10.36
0
VERTEX
10
6.56512
20
10.4963
30
10.36
0
VERTEX
10
6.56512
20
10.4919
30
10.36
0
VERTEX
10
6.55418
20
10.4766
30
10.36
0
VERTEX
10
6.552
20
10.4416
30
10.36
0
VERTEX
10
6.552
20
10.4329
30
10.36
0
VERTEX
10
6.552
20
10.4285
30
10.36
0
SEQEND
0
POLYLINE
62
31
66
1
70
1
3
contour
0
VERTEX
10
6.20811
20
10.4122
30
10.36
0
VERTEX
10
6.21775
20
10.3093
30
10.36
0
VERTEX
10
6.22739
20
10.2981
30
10.36
0
VERTEX
10
6.25311
20
10.2901
30
10.36
0
VERTEX
10
6.27882
20
10.2869
30
10.36
0
VERTEX
10
6.29168
20
10.2836
30
10.36
0
VERTEX
10
6.31739
20
10.2836
30
10.36
0
VERTEX
10
6.33025
20
10.2804
30
10.36
0
VERTEX
10
6.33667
20
10.2772
30
10.36
0
VERTEX
10
6.36239
20
10.2788
30
10.36
0
VERTEX
10
6.37524
20
10.2788
30
10.36
0
VERTEX
10
6.38167
20
10.282
30
10.36
0
VERTEX
10
6.39453
20
10.2836
30
10.36
0
VERTEX
10
6.40096
20
10.2852
30
10.36
0
VERTEX
10
6.40739
20
10.2917
30
10.36
0
VERTEX
10
6.40899
20
10.2981
30
10.36
0
VERTEX
10
6.4331
20
10.3222
30
10.36
0
VERTEX
10
6.43792
20
10.3286
30
10.36
0
VERTEX
10
6.44435
20
10.3318
30
10.36
0
VERTEX
10
6.45238
20
10.3447
30
10.36
0
VERTEX
10
6.4556
20
10.3463
30
10.36
0
VERTEX
10
6.4572
20
10.3527
30
10.36
0
VERTEX
10
6.4572
20
10.356
30
10.36
0
VERTEX
10
6.46042
20
10.3592
30
10.36
0
VERTEX
10
6.46363
20
10.372
30
10.36
0
VERTEX
10
6.4781
20
10.3961
30
10.36
0
VERTEX
10
6.48131
20
10.4026
30
10.36
0
VERTEX
10
6.4797
20
10.4154
30
10.36
0
VERTEX
10
6.4797
20
10.4218
30
10.36
0
VERTEX
10
6.47649
20
10.4283
30
10.36
0
VERTEX
10
6.4781
20
10.454
30
10.36
0
VERTEX
10
6.47649
20
10.4797
30
10.36
0
VERTEX
10
6.47649
20
10.4926
30
10.36
0
VERTEX
10
6.47006
20
10.5183
30
10.36
0
VERTEX
10
6.46845
20
10.5311
30
10.36
0
VERTEX
10
6.46363
20
10.544
30
10.36
0
VERTEX
10
6.46203
20
10.5697
30
10.36
0
VERTEX
10
6.45399
20
10.5826
30
10.36
0
VERTEX
10
6.44113
20
10.5938
30
10.36
0
VERTEX
10
6.43471
20
10.5986
30
10.36
0
VERTEX
10
6.42828
20
10.6002
30
10.36
0
VERTEX
10
6.41703
20
10.6115
30
10.36
0
VERTEX
10
6.4106
20
10.6131
30
10.36
0
VERTEX
10
6.39935
20
10.6243
30
10.36
0
VERTEX
10
6.37364
20
10.6292
30
10.36
0
VERTEX
10
6.36078
20
10.6356
30
10.36
0
VERTEX
10
6.30935
20
10.6372
30
10.36
0
VERTEX
10
6.28364
20
10.6388
30
10.36
0
VERTEX
10
6.27078
20
10.6388
30
10.36
0
VERTEX
10
6.26757
20
10.6356
30
10.36
0
VERTEX
10
6.26114
20
10.6356
30
10.36
0
VERTEX
10
6.25793
20
10.6292
30
10.36
0
VERTEX
10
6.2515
20
10.6227
30
10.36
0
VERTEX
10
6.24829
20
10.6179
30
10.36
0
VERTEX
10
6.23704
20
10.6099
30
10.36
0
VERTEX
10
6.23221
20
10.597
30
10.36
0
VERTEX
10
6.229
20
10.5906
30
10.36
0
VERTEX
10
6.22257
20
10.5842
30
10.36
0
VERTEX
10
6.21454
20
10.5584
30
10.36
0
VERTEX
10
6.20972
20
10.552
30
10.36
0
VERTEX
10
6.20811
20
10.4492
30
10.36
0
VERTEX
10
6.20811
20
10.4235
30
10.36
0
VERTEX
10
6.20811
20
10.417
30
10.36
0
VERTEX
10
6.20811
20
10.4138
30
10.36
0
SEQEND
0
POLYLINE
62
31
66
1
70
1
3
contour
0
VERTEX
10
6.79308
20
10.7706
30
10.36
0
VERTEX
10
6.7979
20
10.7641
30
10.36
0
VERTEX
10
6.80112
20
10.7609
30
10.36
0
VERTEX
10
6.80433
20
10.7609
30
10.36
0
VERTEX
10
6.83004
20
10.74
30
10.36
0
VERTEX
10
6.8429
20
10.7304
30
10.36
0
VERTEX
10
6.85576
20
10.7272
30
10.36
0
VERTEX
10
6.86861
20
10.7192
30
10.36
0
VERTEX
10
6.87183
20
10.7192
30
10.36
0
VERTEX
10
6.87504
20
10.7159
30
10.36
0
VERTEX
10
6.88147
20
10.7159
30
10.36
0
VERTEX
10
6.90558
20
10.7047
30
10.36
0
VERTEX
10
6.91843
20
10.6999
30
10.36
0
VERTEX
10
6.92486
20
10.695
30
10.36
0
VERTEX
10
6.94897
20
10.687
30
10.36
0
VERTEX
10
6.96182
20
10.6822
30
10.36
0
VERTEX
10
6.96825
20
10.6822
30
10.36
0
VERTEX
10
6.98111
20
10.6758
30
10.36
0
VERTEX
10
7.00682
20
10.6693
30
10.36
0
VERTEX
10
7.01968
20
10.6661
30
10.36
0
VERTEX
10
7.0711
20
10.6629
30
10.36
0
VERTEX
10
7.08396
20
10.6613
30
10.36
0
VERTEX
10
7.09039
20
10.6565
30
10.36
0
VERTEX
10
7.10325
20
10.6565
30
10.36
0
VERTEX
10
7.11128
20
10.6484
30
10.36
0
VERTEX
10
7.13699
20
10.6436
30
10.36
0
VERTEX
10
7.23985
20
10.6517
30
10.36
0
VERTEX
10
7.2527
20
10.65
30
10.36
0
VERTEX
10
7.30413
20
10.6549
30
10.36
0
VERTEX
10
7.32984
20
10.6533
30
10.36
0
VERTEX
10
7.33627
20
10.6484
30
10.36
0
VERTEX
10
7.3427
20
10.6484
30
10.36
0
VERTEX
10
7.34591
20
10.6484
30
10.36
0
VERTEX
10
7.34913
20
10.6452
30
10.36
0
VERTEX
10
7.35234
20
10.6452
30
10.36
0
VERTEX
10
7.35395
20
10.642
30
10.36
0
VERTEX
10
7.40538
20
10.634
30
10.36
0
VERTEX
10
7.43109
20
10.6324
30
10.36
0
VERTEX
10
7.4568
20
10.634
30
10.36
0
VERTEX
10
7.46966
20
10.6356
30
10.36
0
VERTEX
10
7.47609
20
10.6372
30
10.36
0
VERTEX
10
7.48091
20
10.642
30
10.36
0
VERTEX
10
7.49376
20
10.6468
30
10.36
0
VERTEX
10
7.50501
20
10.6549
30
10.36
0
VERTEX
10
7.51144
20
10.6581
30
10.36
0
VERTEX
10
7.51305
20
10.6613
30
10.36
0
VERTEX
10
7.51626
20
10.6613
30
10.36
0
VERTEX
10
7.54037
20
10.6774
30
10.36
0
VERTEX
10
7.55323
20
10.6838
30
10.36
0
VERTEX
10
7.56608
20
10.695
30
10.36
0
VERTEX
10
7.57251
20
10.6983
30
10.36
0
VERTEX
10
7.59501
20
10.7192
30
10.36
0
VERTEX
10
7.60304
20
10.7288
30
10.36
0
VERTEX
10
7.62554
20
10.7465
30
10.36
0
VERTEX
10
7.63519
20
10.7545
30
10.36
0
VERTEX
10
7.64804
20
10.7641
30
10.36
0
VERTEX
10
7.65768
20
10.7738
30
10.36
0
VERTEX
10
7.68179
20
10.7915
30
10.36
0
VERTEX
10
7.69304
20
10.8043
30
10.36
0
VERTEX
10
7.69786
20
10.8091
30
10.36
0
VERTEX
10
7.70108
20
10.822
30
10.36
0
VERTEX
10
7.7075
20
10.83
30
10.36
0
VERTEX
10
7.7075
20
10.8333
30
10.36
0
VERTEX
10
7.71715
20
10.8413
30
10.36
0
VERTEX
10
7.7284
20
10.8525
30
10.36
0
VERTEX
10
7.73482
20
10.8638
30
10.36
0
VERTEX
10
7.73804
20
10.867
30
10.36
0
VERTEX
10
7.73804
20
10.8702
30
10.36
0
VERTEX
10
7.74125
20
10.8702
30
10.36
0
VERTEX
10
7.74447
20
10.8766
30
10.36
0
VERTEX
10
7.74607
20
10.8799
30
10.36
0
VERTEX
10
7.74929
20
10.8799
30
10.36
0
VERTEX
10
7.75411
20
10.8863
30
10.36
0
VERTEX
10
7.76054
20
10.8879
30
10.36
0
VERTEX
10
7.76375
20
10.8879
30
10.36
0
VERTEX
10
7.775
20
10.8975
30
10.36
0
VERTEX
10
7.77822
20
10.904
30
10.36
0
VERTEX
10
7.79107
20
10.9088
30
10.36
0
VERTEX
10
7.7975
20
10.912
30
10.36
0
VERTEX
10
7.81036
20
10.912
30
10.36
0
VERTEX
10
7.81196
20
10.9152
30
10.36
0
VERTEX
10
7.81839
20
10.9152
30
10.36
0
VERTEX
10
7.82482
20
10.9184
30
10.36
0
VERTEX
10
7.82643
20
10.9216
30
10.36
0
VERTEX
10
7.82964
20
10.9216
30
10.36
0
VERTEX
10
7.83446
20
10.9281
30
10.36
0
VERTEX
10
7.83768
20
10.9313
30
10.36
0
VERTEX
10
7.84089
20
10.9313
30
10.36
0
VERTEX
10
7.85214
20
10.9409
30
10.36
0
VERTEX
10
7.86018
20
10.949
30
10.36
0
VERTEX
10
7.86339
20
10.9618
30
10.36
0
VERTEX
10
7.86178
20
10.9682
30
10.36
0
VERTEX
10
7.84893
20
10.9763
30
10.36
0
VERTEX
10
7.82321
20
10.9779
30
10.36
0
VERTEX
10
7.81036
20
10.9795
30
10.36
0
VERTEX
10
7.80554
20
10.9843
30
10.36
0
VERTEX
10
7.79268
20
10.9859
30
10.36
0
VERTEX
10
7.78625
20
10.9859
30
10.36
0
VERTEX
10
7.77982
20
10.9891
30
10.36
0
VERTEX
10
7.76697
20
10.9891
30
10.36
0
VERTEX
10
7.75411
20
10.9924
30
10.36
0
VERTEX
10
7.75089
20
10.9924
30
10.36
0
VERTEX
10
7.74768
20
10.9956
30
10.36
0
VERTEX
10
7.72197
20
10.9988
30
10.36
0
VERTEX
10
7.70911
20
11.0052
30
10.36
0
VERTEX
10
7.6834
20
11.0116
30
10.36
0
VERTEX
10
7.58055
20
11.01
30
10.36
0
VERTEX
10
7.55483
20
11.0084
30
10.36
0
VERTEX
10
7.5484
20
11.0068
30
10.36
0
VERTEX
10
7.54519
20
11.0036
30
10.36
0
VERTEX
10
7.54198
20
11.0036
30
10.36
0
VERTEX
10
7.54037
20
11.0004
30
10.36
0
VERTEX
10
7.52751
20
10.9972
30
10.36
0
VERTEX
10
7.52108
20
10.9956
30
10.36
0
VERTEX
10
7.50823
20
10.9988
30
10.36
0
VERTEX
10
7.50662
20
10.9956
30
10.36
0
VERTEX
10
7.48251
20
10.9843
30
10.36
0
VERTEX
10
7.46966
20
10.9763
30
10.36
0
VERTEX
10
7.44394
20
10.9715
30
10.36
0
VERTEX
10
7.43109
20
10.9699
30
10.36
0
VERTEX
10
7.42466
20
10.9699
30
10.36
0
VERTEX
10
7.39895
20
10.9618
30
10.36
0
VERTEX
10
7.39252
20
10.9602
30
10.36
0
VERTEX
10
7.38609
20
10.9554
30
10.36
0
VERTEX
10
7.36038
20
10.949
30
10.36
0
VERTEX
10
7.33466
20
10.9377
30
10.36
0
VERTEX
10
7.32824
20
10.9345
30
10.36
0
VERTEX
10
7.30252
20
10.9313
30
10.36
0
VERTEX
10
7.28967
20
10.9297
30
10.36
0
VERTEX
10
7.28324
20
10.9249
30
10.36
0
VERTEX
10
7.27038
20
10.9249
30
10.36
0
VERTEX
10
7.25752
20
10.9216
30
10.36
0
VERTEX
10
7.23181
20
10.9216
30
10.36
0
VERTEX
10
7.21895
20
10.9168
30
10.36
0
VERTEX
10
7.19324
20
10.9136
30
10.36
0
VERTEX
10
7.18842
20
10.9104
30
10.36
0
VERTEX
10
7.13699
20
10.912
30
10.36
0
VERTEX
10
7.11128
20
10.9104
30
10.36
0
VERTEX
10
7.10485
20
10.9104
30
10.36
0
VERTEX
10
7.09842
20
10.9072
30
10.36
0
VERTEX
10
7.092
20
10.9072
30
10.36
0
VERTEX
10
7.07914
20
10.9024
30
10.36
0
VERTEX
10
7.05503
20
10.8975
30
10.36
0
VERTEX
10
7.02932
20
10.8895
30
10.36
0
VERTEX
10
6.97789
20
10.8863
30
10.36
0
VERTEX
10
6.97147
20
10.8863
30
10.36
0
VERTEX
10
6.96504
20
10.8831
30
10.36
0
VERTEX
10
6.91361
20
10.8831
30
10.36
0
VERTEX
10
6.8879
20
10.8783
30
10.36
0
VERTEX
10
6.88147
20
10.8783
30
10.36
0
VERTEX
10
6.86861
20
10.8718
30
10.36
0
VERTEX
10
6.86219
20
10.8702
30
10.36
0
VERTEX
10
6.85576
20
10.8654
30
10.36
0
VERTEX
10
6.85254
20
10.8654
30
10.36
0
VERTEX
10
6.8429
20
10.8574
30
10.36
0
VERTEX
10
6.82522
20
10.8316
30
10.36
0
VERTEX
10
6.8204
20
10.8252
30
10.36
0
VERTEX
10
6.7979
20
10.8091
30
10.36
0
VERTEX
10
6.79469
20
10.8059
30
10.36
0
VERTEX
10
6.79308
20
10.7802
30
10.36
0
VERTEX
10
6.79308
20
10.7738
30
10.36
0
VERTEX
10
6.79308
20
10.7722
30
10.36
0
SEQEND
0
POLYLINE
62
236
66
1
70
1
3
postsynaptic_density
0
VERTEX
10
6.15417
20
10.3883
30
10.36
0
VERTEX
10
6.15802
20
10.3678
30
10.36
0
VERTEX
10
6.15802
20
10.3575
30
10.36
0
VERTEX
10
6.15931
20
10.3524
30
10.36
0
VERTEX
10
6.16316
20
10.3472
30
10.36
0
VERTEX
10
6.16829
20
10.3459
30
10.36
0
VERTEX
10
6.17856
20
10.3395
30
10.36
0
VERTEX
10
6.19909
20
10.3408
30
10.36
0
VERTEX
10
6.21963
20
10.3472
30
10.36
0
VERTEX
10
6.22476
20
10.3485
30
10.36
0
VERTEX
10
6.23503
20
10.3575
30
10.36
0
VERTEX
10
6.24145
20
10.3652
30
10.36
0
VERTEX
10
6.2453
20
10.369
30
10.36
0
VERTEX
10
6.24787
20
10.3793
30
10.36
0
VERTEX
10
6.253
20
10.3896
30
10.36
0
VERTEX
10
6.25685
20
10.3934
30
10.36
0
VERTEX
10
6.25685
20
10.396
30
10.36
0
VERTEX
10
6.25942
20
10.3973
30
10.36
0
VERTEX
10
6.25942
20
10.3998
30
10.36
0
VERTEX
10
6.26198
20
10.4024
30
10.36
0
VERTEX
10
6.26198
20
10.405
30
10.36
0
VERTEX
10
6.2684
20
10.4152
30
10.36
0
VERTEX
10
6.27354
20
10.4217
30
10.36
0
VERTEX
10
6.27739
20
10.4307
30
10.36
0
VERTEX
10
6.27867
20
10.4512
30
10.36
0
VERTEX
10
6.2761
20
10.4923
30
10.36
0
VERTEX
10
6.2761
20
10.4948
30
10.36
0
VERTEX
10
6.27354
20
10.4974
30
10.36
0
VERTEX
10
6.26969
20
10.5179
30
10.36
0
VERTEX
10
6.25813
20
10.5372
30
10.36
0
VERTEX
10
6.24787
20
10.541
30
10.36
0
VERTEX
10
6.24402
20
10.5449
30
10.36
0
VERTEX
10
6.23375
20
10.5474
30
10.36
0
VERTEX
10
6.21321
20
10.5564
30
10.36
0
VERTEX
10
6.19268
20
10.5616
30
10.36
0
VERTEX
10
6.18241
20
10.5616
30
10.36
0
VERTEX
10
6.17728
20
10.5616
30
10.36
0
VERTEX
10
6.15417
20
10.5218
30
10.36
0
VERTEX
10
6.15417
20
10.4396
30
10.36
0
VERTEX
10
6.15417
20
10.3986
30
10.36
0
VERTEX
10
6.15417
20
10.3896
30
10.36
0
SEQEND
0
ENDSEC
0
EOF
