0
SECTION
2
ENTITIES
0
POLYLINE
62
31
66
1
70
1
3
contour
0
VERTEX
10
10.2265
20
9.49923
30
6.72
0
VERTEX
10
10.2287
20
9.46375
30
6.72
0
VERTEX
10
10.2354
20
9.45488
30
6.72
0
VERTEX
10
10.2354
20
9.45045
30
6.72
0
VERTEX
10
10.2509
20
9.43493
30
6.72
0
VERTEX
10
10.2576
20
9.42828
30
6.72
0
VERTEX
10
10.262
20
9.42828
30
6.72
0
VERTEX
10
10.2908
20
9.39723
30
6.72
0
VERTEX
10
10.2975
20
9.39058
30
6.72
0
VERTEX
10
10.3064
20
9.38836
30
6.72
0
VERTEX
10
10.3108
20
9.38836
30
6.72
0
VERTEX
10
10.3441
20
9.35954
30
6.72
0
VERTEX
10
10.3507
20
9.35067
30
6.72
0
VERTEX
10
10.364
20
9.33958
30
6.72
0
VERTEX
10
10.3928
20
9.3041
30
6.72
0
VERTEX
10
10.3973
20
9.29523
30
6.72
0
VERTEX
10
10.415
20
9.28193
30
6.72
0
VERTEX
10
10.4327
20
9.27749
30
6.72
0
VERTEX
10
10.4416
20
9.27306
30
6.72
0
VERTEX
10
10.4771
20
9.27306
30
6.72
0
VERTEX
10
10.486
20
9.27528
30
6.72
0
VERTEX
10
10.4904
20
9.27749
30
6.72
0
VERTEX
10
10.4904
20
9.28193
30
6.72
0
VERTEX
10
10.5081
20
9.28415
30
6.72
0
VERTEX
10
10.5126
20
9.28415
30
6.72
0
VERTEX
10
10.5214
20
9.29302
30
6.72
0
VERTEX
10
10.5325
20
9.31075
30
6.72
0
VERTEX
10
10.537
20
9.31519
30
6.72
0
VERTEX
10
10.537
20
9.31962
30
6.72
0
VERTEX
10
10.5414
20
9.32184
30
6.72
0
VERTEX
10
10.5436
20
9.33071
30
6.72
0
VERTEX
10
10.5503
20
9.33736
30
6.72
0
VERTEX
10
10.5525
20
9.37284
30
6.72
0
VERTEX
10
10.5392
20
9.4438
30
6.72
0
VERTEX
10
10.5259
20
9.47927
30
6.72
0
VERTEX
10
10.5148
20
9.49701
30
6.72
0
VERTEX
10
10.5148
20
9.50145
30
6.72
0
VERTEX
10
10.5037
20
9.51919
30
6.72
0
VERTEX
10
10.4993
20
9.52362
30
6.72
0
VERTEX
10
10.497
20
9.53249
30
6.72
0
VERTEX
10
10.4882
20
9.54136
30
6.72
0
VERTEX
10
10.486
20
9.55023
30
6.72
0
VERTEX
10
10.4704
20
9.56353
30
6.72
0
VERTEX
10
10.4638
20
9.56797
30
6.72
0
VERTEX
10
10.4594
20
9.56797
30
6.72
0
VERTEX
10
10.4549
20
9.5724
30
6.72
0
VERTEX
10
10.4505
20
9.5724
30
6.72
0
VERTEX
10
10.4438
20
9.57906
30
6.72
0
VERTEX
10
10.4261
20
9.58127
30
6.72
0
VERTEX
10
10.3906
20
9.59236
30
6.72
0
VERTEX
10
10.3551
20
9.59458
30
6.72
0
VERTEX
10
10.3507
20
9.59458
30
6.72
0
VERTEX
10
10.3463
20
9.59014
30
6.72
0
VERTEX
10
10.3285
20
9.59014
30
6.72
0
VERTEX
10
10.3197
20
9.59014
30
6.72
0
VERTEX
10
10.3152
20
9.58571
30
6.72
0
VERTEX
10
10.3064
20
9.58349
30
6.72
0
VERTEX
10
10.2975
20
9.57684
30
6.72
0
VERTEX
10
10.2886
20
9.57462
30
6.72
0
VERTEX
10
10.2842
20
9.57019
30
6.72
0
VERTEX
10
10.2753
20
9.56797
30
6.72
0
VERTEX
10
10.2443
20
9.53914
30
6.72
0
VERTEX
10
10.2443
20
9.53471
30
6.72
0
VERTEX
10
10.2287
20
9.5214
30
6.72
0
VERTEX
10
10.2265
20
9.50367
30
6.72
0
VERTEX
10
10.2265
20
9.50145
30
6.72
0
SEQEND
0
POLYLINE
62
31
66
1
70
1
3
contour
0
VERTEX
10
8.24714
20
9.14056
30
6.72
0
VERTEX
10
8.25257
20
9.13513
30
6.72
0
VERTEX
10
8.258
20
9.1134
30
6.72
0
VERTEX
10
8.258
20
9.10797
30
6.72
0
VERTEX
10
8.26615
20
9.09982
30
6.72
0
VERTEX
10
8.26886
20
9.08896
30
6.72
0
VERTEX
10
8.30417
20
9.04551
30
6.72
0
VERTEX
10
8.32318
20
9.03194
30
6.72
0
VERTEX
10
8.3449
20
9.0265
30
6.72
0
VERTEX
10
8.36662
20
9.0265
30
6.72
0
VERTEX
10
8.37749
20
9.02922
30
6.72
0
VERTEX
10
8.41822
20
9.06181
30
6.72
0
VERTEX
10
8.42365
20
9.06181
30
6.72
0
VERTEX
10
8.45352
20
9.10526
30
6.72
0
VERTEX
10
8.4671
20
9.12426
30
6.72
0
VERTEX
10
8.48339
20
9.13784
30
6.72
0
VERTEX
10
8.50512
20
9.15142
30
6.72
0
VERTEX
10
8.52684
20
9.15957
30
6.72
0
VERTEX
10
8.5377
20
9.16228
30
6.72
0
VERTEX
10
8.54314
20
9.16228
30
6.72
0
VERTEX
10
8.54857
20
9.16771
30
6.72
0
VERTEX
10
8.57029
20
9.17314
30
6.72
0
VERTEX
10
8.59202
20
9.18672
30
6.72
0
VERTEX
10
8.60559
20
9.20845
30
6.72
0
VERTEX
10
8.60831
20
9.21931
30
6.72
0
VERTEX
10
8.61374
20
9.22474
30
6.72
0
VERTEX
10
8.61102
20
9.24646
30
6.72
0
VERTEX
10
8.58115
20
9.28991
30
6.72
0
VERTEX
10
8.55943
20
9.30078
30
6.72
0
VERTEX
10
8.554
20
9.30621
30
6.72
0
VERTEX
10
8.53227
20
9.30892
30
6.72
0
VERTEX
10
8.48882
20
9.3225
30
6.72
0
VERTEX
10
8.4671
20
9.32793
30
6.72
0
VERTEX
10
8.45624
20
9.32793
30
6.72
0
VERTEX
10
8.44538
20
9.3225
30
6.72
0
VERTEX
10
8.42365
20
9.3225
30
6.72
0
VERTEX
10
8.3802
20
9.31164
30
6.72
0
VERTEX
10
8.36934
20
9.30621
30
6.72
0
VERTEX
10
8.32589
20
9.29806
30
6.72
0
VERTEX
10
8.31503
20
9.29263
30
6.72
0
VERTEX
10
8.30688
20
9.28177
30
6.72
0
VERTEX
10
8.29874
20
9.27634
30
6.72
0
VERTEX
10
8.28516
20
9.25461
30
6.72
0
VERTEX
10
8.2743
20
9.24646
30
6.72
0
VERTEX
10
8.26072
20
9.22746
30
6.72
0
VERTEX
10
8.25257
20
9.21659
30
6.72
0
VERTEX
10
8.24714
20
9.19487
30
6.72
0
VERTEX
10
8.24714
20
9.15142
30
6.72
0
VERTEX
10
8.24714
20
9.14327
30
6.72
0
SEQEND
0
POLYLINE
62
99
66
1
70
1
3
postsynaptic_density
0
VERTEX
10
8.98212
20
10.513
30
6.72
0
VERTEX
10
9.01342
20
10.4739
30
6.72
0
VERTEX
10
9.02385
20
10.4687
30
6.72
0
VERTEX
10
9.02906
20
10.4687
30
6.72
0
VERTEX
10
9.03428
20
10.4583
30
6.72
0
VERTEX
10
9.05514
20
10.4452
30
6.72
0
VERTEX
10
9.06558
20
10.4452
30
6.72
0
VERTEX
10
9.08644
20
10.4348
30
6.72
0
VERTEX
10
9.09687
20
10.427
30
6.72
0
VERTEX
10
9.10209
20
10.427
30
6.72
0
VERTEX
10
9.14121
20
10.4035
30
6.72
0
VERTEX
10
9.14643
20
10.4035
30
6.72
0
VERTEX
10
9.15686
20
10.3931
30
6.72
0
VERTEX
10
9.17772
20
10.3905
30
6.72
0
VERTEX
10
9.18815
20
10.3852
30
6.72
0
VERTEX
10
9.20902
20
10.3905
30
6.72
0
VERTEX
10
9.22988
20
10.4009
30
6.72
0
VERTEX
10
9.24292
20
10.4139
30
6.72
0
VERTEX
10
9.24292
20
10.4192
30
6.72
0
VERTEX
10
9.25336
20
10.427
30
6.72
0
VERTEX
10
9.25336
20
10.4374
30
6.72
0
VERTEX
10
9.2351
20
10.4557
30
6.72
0
VERTEX
10
9.23249
20
10.4661
30
6.72
0
VERTEX
10
9.23249
20
10.4713
30
6.72
0
VERTEX
10
9.06558
20
10.5939
30
6.72
0
VERTEX
10
9.06036
20
10.5965
30
6.72
0
VERTEX
10
9.0395
20
10.5887
30
6.72
0
VERTEX
10
9.02385
20
10.573
30
6.72
0
VERTEX
10
9.01602
20
10.5626
30
6.72
0
VERTEX
10
9.01081
20
10.5574
30
6.72
0
VERTEX
10
9.00559
20
10.5574
30
6.72
0
VERTEX
10
8.98733
20
10.5391
30
6.72
0
VERTEX
10
8.98212
20
10.5287
30
6.72
0
VERTEX
10
8.98212
20
10.5183
30
6.72
0
VERTEX
10
8.98212
20
10.5157
30
6.72
0
SEQEND
0
POLYLINE
62
224
66
1
70
1
3
mitochondrion
0
VERTEX
10
8.82089
20
9.60926
30
6.72
0
VERTEX
10
8.82367
20
9.59814
30
6.72
0
VERTEX
10
8.82645
20
9.59258
30
6.72
0
VERTEX
10
8.82645
20
9.58701
30
6.72
0
VERTEX
10
8.83757
20
9.57867
30
6.72
0
VERTEX
10
8.84313
20
9.5745
30
6.72
0
VERTEX
10
8.85426
20
9.57033
30
6.72
0
VERTEX
10
8.85982
20
9.56477
30
6.72
0
VERTEX
10
8.86816
20
9.55782
30
6.72
0
VERTEX
10
8.87929
20
9.54808
30
6.72
0
VERTEX
10
8.90014
20
9.53418
30
6.72
0
VERTEX
10
8.91127
20
9.52723
30
6.72
0
VERTEX
10
8.93212
20
9.51749
30
6.72
0
VERTEX
10
8.93768
20
9.51471
30
6.72
0
VERTEX
10
8.94185
20
9.50915
30
6.72
0
VERTEX
10
8.95298
20
9.50776
30
6.72
0
VERTEX
10
8.9641
20
9.50359
30
6.72
0
VERTEX
10
8.98635
20
9.50081
30
6.72
0
VERTEX
10
8.99747
20
9.50081
30
6.72
0
VERTEX
10
9.01972
20
9.50637
30
6.72
0
VERTEX
10
9.03084
20
9.51054
30
6.72
0
VERTEX
10
9.0364
20
9.51332
30
6.72
0
VERTEX
10
9.03918
20
9.5161
30
6.72
0
VERTEX
10
9.05031
20
9.51888
30
6.72
0
VERTEX
10
9.06004
20
9.52584
30
6.72
0
VERTEX
10
9.0656
20
9.52584
30
6.72
0
VERTEX
10
9.07534
20
9.53279
30
6.72
0
VERTEX
10
9.0809
20
9.53418
30
6.72
0
VERTEX
10
9.08646
20
9.53835
30
6.72
0
VERTEX
10
9.09202
20
9.53974
30
6.72
0
VERTEX
10
9.09619
20
9.5453
30
6.72
0
VERTEX
10
9.10593
20
9.55225
30
6.72
0
VERTEX
10
9.11149
20
9.56338
30
6.72
0
VERTEX
10
9.11427
20
9.5745
30
6.72
0
VERTEX
10
9.11149
20
9.66349
30
6.72
0
VERTEX
10
9.1101
20
9.67461
30
6.72
0
VERTEX
10
9.10871
20
9.68017
30
6.72
0
VERTEX
10
9.10593
20
9.68295
30
6.72
0
VERTEX
10
9.10454
20
9.68852
30
6.72
0
VERTEX
10
9.09619
20
9.69686
30
6.72
0
VERTEX
10
9.09202
20
9.70242
30
6.72
0
VERTEX
10
9.08924
20
9.70242
30
6.72
0
VERTEX
10
9.0809
20
9.71215
30
6.72
0
VERTEX
10
9.05865
20
9.72606
30
6.72
0
VERTEX
10
9.04753
20
9.73301
30
6.72
0
VERTEX
10
9.02528
20
9.73718
30
6.72
0
VERTEX
10
9.01416
20
9.73718
30
6.72
0
VERTEX
10
9.0086
20
9.73857
30
6.72
0
VERTEX
10
9.00581
20
9.73857
30
6.72
0
VERTEX
10
9.00303
20
9.74135
30
6.72
0
VERTEX
10
8.91405
20
9.74552
30
6.72
0
VERTEX
10
8.90292
20
9.74413
30
6.72
0
VERTEX
10
8.90014
20
9.74413
30
6.72
0
VERTEX
10
8.87929
20
9.73023
30
6.72
0
VERTEX
10
8.86816
20
9.71911
30
6.72
0
VERTEX
10
8.85704
20
9.71215
30
6.72
0
VERTEX
10
8.83896
20
9.68991
30
6.72
0
VERTEX
10
8.83757
20
9.68434
30
6.72
0
VERTEX
10
8.82506
20
9.66488
30
6.72
0
VERTEX
10
8.82367
20
9.65932
30
6.72
0
VERTEX
10
8.82367
20
9.65654
30
6.72
0
VERTEX
10
8.82089
20
9.65375
30
6.72
0
VERTEX
10
8.82089
20
9.61065
30
6.72
0
SEQEND
0
POLYLINE
62
31
66
1
70
1
3
contour
0
VERTEX
10
8.62012
20
9.48418
30
6.72
0
VERTEX
10
8.62198
20
9.47672
30
6.72
0
VERTEX
10
8.63318
20
9.46179
30
6.72
0
VERTEX
10
8.65744
20
9.44126
30
6.72
0
VERTEX
10
8.67237
20
9.43566
30
6.72
0
VERTEX
10
8.73209
20
9.43379
30
6.72
0
VERTEX
10
8.76195
20
9.43753
30
6.72
0
VERTEX
10
8.77688
20
9.44313
30
6.72
0
VERTEX
10
8.80674
20
9.44872
30
6.72
0
VERTEX
10
8.92618
20
9.45059
30
6.72
0
VERTEX
10
8.94111
20
9.44872
30
6.72
0
VERTEX
10
8.97097
20
9.43753
30
6.72
0
VERTEX
10
9.03069
20
9.43193
30
6.72
0
VERTEX
10
9.04562
20
9.43193
30
6.72
0
VERTEX
10
9.07548
20
9.44126
30
6.72
0
VERTEX
10
9.07921
20
9.44313
30
6.72
0
VERTEX
10
9.08108
20
9.44872
30
6.72
0
VERTEX
10
9.1408
20
9.46179
30
6.72
0
VERTEX
10
9.15573
20
9.46739
30
6.72
0
VERTEX
10
9.18559
20
9.47112
30
6.72
0
VERTEX
10
9.20052
20
9.47672
30
6.72
0
VERTEX
10
9.23038
20
9.47672
30
6.72
0
VERTEX
10
9.24531
20
9.47858
30
6.72
0
VERTEX
10
9.24717
20
9.48232
30
6.72
0
VERTEX
10
9.2621
20
9.48418
30
6.72
0
VERTEX
10
9.2901
20
9.50098
30
6.72
0
VERTEX
10
9.30129
20
9.51218
30
6.72
0
VERTEX
10
9.30876
20
9.51778
30
6.72
0
VERTEX
10
9.32555
20
9.54577
30
6.72
0
VERTEX
10
9.33488
20
9.57563
30
6.72
0
VERTEX
10
9.33675
20
9.58309
30
6.72
0
VERTEX
10
9.33488
20
9.59056
30
6.72
0
VERTEX
10
9.33675
20
9.60549
30
6.72
0
VERTEX
10
9.33675
20
9.61295
30
6.72
0
VERTEX
10
9.33302
20
9.62042
30
6.72
0
VERTEX
10
9.32929
20
9.65028
30
6.72
0
VERTEX
10
9.32742
20
9.66521
30
6.72
0
VERTEX
10
9.32182
20
9.68014
30
6.72
0
VERTEX
10
9.32182
20
9.69507
30
6.72
0
VERTEX
10
9.31622
20
9.71
30
6.72
0
VERTEX
10
9.31436
20
9.71746
30
6.72
0
VERTEX
10
9.31436
20
9.72119
30
6.72
0
VERTEX
10
9.30316
20
9.73612
30
6.72
0
VERTEX
10
9.29196
20
9.76412
30
6.72
0
VERTEX
10
9.2901
20
9.79398
30
6.72
0
VERTEX
10
9.2901
20
9.80891
30
6.72
0
VERTEX
10
9.28636
20
9.82384
30
6.72
0
VERTEX
10
9.28636
20
9.8313
30
6.72
0
VERTEX
10
9.28636
20
9.83503
30
6.72
0
VERTEX
10
9.29569
20
9.84996
30
6.72
0
VERTEX
10
9.30129
20
9.86489
30
6.72
0
VERTEX
10
9.30316
20
9.87982
30
6.72
0
VERTEX
10
9.30316
20
9.88729
30
6.72
0
VERTEX
10
9.30876
20
9.90222
30
6.72
0
VERTEX
10
9.31436
20
9.96194
30
6.72
0
VERTEX
10
9.31436
20
9.9918
30
6.72
0
VERTEX
10
9.31249
20
10.0067
30
6.72
0
VERTEX
10
9.30316
20
10.0198
30
6.72
0
VERTEX
10
9.29756
20
10.0273
30
6.72
0
VERTEX
10
9.29383
20
10.0291
30
6.72
0
VERTEX
10
9.29196
20
10.0366
30
6.72
0
VERTEX
10
9.28076
20
10.0515
30
6.72
0
VERTEX
10
9.27517
20
10.0664
30
6.72
0
VERTEX
10
9.26957
20
10.0739
30
6.72
0
VERTEX
10
9.2677
20
10.0814
30
6.72
0
VERTEX
10
9.2677
20
10.0851
30
6.72
0
VERTEX
10
9.26397
20
10.0888
30
6.72
0
VERTEX
10
9.25464
20
10.1187
30
6.72
0
VERTEX
10
9.25277
20
10.1784
30
6.72
0
VERTEX
10
9.25837
20
10.2083
30
6.72
0
VERTEX
10
9.25837
20
10.2232
30
6.72
0
VERTEX
10
9.2621
20
10.2381
30
6.72
0
VERTEX
10
9.27143
20
10.2512
30
6.72
0
VERTEX
10
9.2733
20
10.2587
30
6.72
0
VERTEX
10
9.27703
20
10.2624
30
6.72
0
VERTEX
10
9.28076
20
10.2773
30
6.72
0
VERTEX
10
9.27703
20
10.3371
30
6.72
0
VERTEX
10
9.26024
20
10.3669
30
6.72
0
VERTEX
10
9.25277
20
10.3725
30
6.72
0
VERTEX
10
9.24344
20
10.3856
30
6.72
0
VERTEX
10
9.22851
20
10.3968
30
6.72
0
VERTEX
10
9.22104
20
10.4042
30
6.72
0
VERTEX
10
9.22104
20
10.408
30
6.72
0
VERTEX
10
9.20798
20
10.4154
30
6.72
0
VERTEX
10
9.17999
20
10.4416
30
6.72
0
VERTEX
10
9.15013
20
10.4602
30
6.72
0
VERTEX
10
9.1352
20
10.4696
30
6.72
0
VERTEX
10
9.12773
20
10.4752
30
6.72
0
VERTEX
10
9.09787
20
10.4845
30
6.72
0
VERTEX
10
9.06801
20
10.4901
30
6.72
0
VERTEX
10
9.05308
20
10.4957
30
6.72
0
VERTEX
10
8.99336
20
10.4938
30
6.72
0
VERTEX
10
8.93365
20
10.4808
30
6.72
0
VERTEX
10
8.91872
20
10.4789
30
6.72
0
VERTEX
10
8.91125
20
10.477
30
6.72
0
VERTEX
10
8.90752
20
10.4714
30
6.72
0
VERTEX
10
8.89259
20
10.4621
30
6.72
0
VERTEX
10
8.87952
20
10.4472
30
6.72
0
VERTEX
10
8.87952
20
10.4434
30
6.72
0
VERTEX
10
8.87393
20
10.436
30
6.72
0
VERTEX
10
8.87206
20
10.4285
30
6.72
0
VERTEX
10
8.86646
20
10.4229
30
6.72
0
VERTEX
10
8.86273
20
10.408
30
6.72
0
VERTEX
10
8.86273
20
10.393
30
6.72
0
VERTEX
10
8.859
20
10.3781
30
6.72
0
VERTEX
10
8.86273
20
10.3184
30
6.72
0
VERTEX
10
8.86273
20
10.2587
30
6.72
0
VERTEX
10
8.86273
20
10.2437
30
6.72
0
VERTEX
10
8.86273
20
10.2363
30
6.72
0
VERTEX
10
8.85526
20
10.2232
30
6.72
0
VERTEX
10
8.85526
20
10.2157
30
6.72
0
VERTEX
10
8.85153
20
10.212
30
6.72
0
VERTEX
10
8.85153
20
10.2045
30
6.72
0
VERTEX
10
8.84593
20
10.1896
30
6.72
0
VERTEX
10
8.84407
20
10.1747
30
6.72
0
VERTEX
10
8.84033
20
10.1672
30
6.72
0
VERTEX
10
8.83847
20
10.1374
30
6.72
0
VERTEX
10
8.84033
20
10.1075
30
6.72
0
VERTEX
10
8.84593
20
10.0776
30
6.72
0
VERTEX
10
8.8478
20
10.0702
30
6.72
0
VERTEX
10
8.86086
20
10.059
30
6.72
0
VERTEX
10
8.86459
20
10.059
30
6.72
0
VERTEX
10
8.89072
20
10.0385
30
6.72
0
VERTEX
10
8.90192
20
10.0254
30
6.72
0
VERTEX
10
8.90752
20
10.0198
30
6.72
0
VERTEX
10
8.90752
20
10.0123
30
6.72
0
VERTEX
10
8.91312
20
10.0049
30
6.72
0
VERTEX
10
8.91125
20
9.98993
30
6.72
0
VERTEX
10
8.90752
20
9.98247
30
6.72
0
VERTEX
10
8.87766
20
9.97127
30
6.72
0
VERTEX
10
8.87393
20
9.96754
30
6.72
0
VERTEX
10
8.84407
20
9.95447
30
6.72
0
VERTEX
10
8.82914
20
9.94701
30
6.72
0
VERTEX
10
8.82167
20
9.94328
30
6.72
0
VERTEX
10
8.81421
20
9.94328
30
6.72
0
VERTEX
10
8.79928
20
9.93581
30
6.72
0
VERTEX
10
8.79554
20
9.93581
30
6.72
0
VERTEX
10
8.76755
20
9.91901
30
6.72
0
VERTEX
10
8.75262
20
9.90595
30
6.72
0
VERTEX
10
8.75262
20
9.90222
30
6.72
0
VERTEX
10
8.72463
20
9.88356
30
6.72
0
VERTEX
10
8.7097
20
9.87049
30
6.72
0
VERTEX
10
8.70037
20
9.85743
30
6.72
0
VERTEX
10
8.69663
20
9.8537
30
6.72
0
VERTEX
10
8.68544
20
9.82384
30
6.72
0
VERTEX
10
8.6817
20
9.80891
30
6.72
0
VERTEX
10
8.67797
20
9.80517
30
6.72
0
VERTEX
10
8.67424
20
9.77531
30
6.72
0
VERTEX
10
8.67424
20
9.76039
30
6.72
0
VERTEX
10
8.67051
20
9.74546
30
6.72
0
VERTEX
10
8.67051
20
9.73053
30
6.72
0
VERTEX
10
8.66677
20
9.72306
30
6.72
0
VERTEX
10
8.66118
20
9.6932
30
6.72
0
VERTEX
10
8.66118
20
9.66334
30
6.72
0
VERTEX
10
8.65558
20
9.63348
30
6.72
0
VERTEX
10
8.65558
20
9.62975
30
6.72
0
VERTEX
10
8.64998
20
9.62228
30
6.72
0
VERTEX
10
8.62758
20
9.56256
30
6.72
0
VERTEX
10
8.62385
20
9.5551
30
6.72
0
VERTEX
10
8.62385
20
9.54017
30
6.72
0
VERTEX
10
8.62385
20
9.53271
30
6.72
0
VERTEX
10
8.62012
20
9.52524
30
6.72
0
VERTEX
10
8.62012
20
9.49538
30
6.72
0
VERTEX
10
8.62012
20
9.48792
30
6.72
0
VERTEX
10
8.62012
20
9.48605
30
6.72
0
SEQEND
0
POLYLINE
62
236
66
1
70
1
3
postsynaptic_density
0
VERTEX
10
10.4098
20
9.54763
30
6.72
0
VERTEX
10
10.4546
20
9.4282
30
6.72
0
VERTEX
10
10.4602
20
9.41327
30
6.72
0
VERTEX
10
10.4714
20
9.4002
30
6.72
0
VERTEX
10
10.4994
20
9.38154
30
6.72
0
VERTEX
10
10.5143
20
9.37967
30
6.72
0
VERTEX
10
10.5218
20
9.37967
30
6.72
0
VERTEX
10
10.5255
20
9.37967
30
6.72
0
VERTEX
10
10.5293
20
9.38341
30
6.72
0
VERTEX
10
10.5442
20
9.38527
30
6.72
0
VERTEX
10
10.5517
20
9.38714
30
6.72
0
VERTEX
10
10.5535
20
9.3946
30
6.72
0
VERTEX
10
10.5573
20
9.3946
30
6.72
0
VERTEX
10
10.5703
20
9.40767
30
6.72
0
VERTEX
10
10.5703
20
9.4114
30
6.72
0
VERTEX
10
10.5741
20
9.41513
30
6.72
0
VERTEX
10
10.5759
20
9.44499
30
6.72
0
VERTEX
10
10.5741
20
9.47485
30
6.72
0
VERTEX
10
10.5722
20
9.48232
30
6.72
0
VERTEX
10
10.5722
20
9.48605
30
6.72
0
VERTEX
10
10.5685
20
9.48978
30
6.72
0
VERTEX
10
10.5666
20
9.49725
30
6.72
0
VERTEX
10
10.5666
20
9.50098
30
6.72
0
VERTEX
10
10.561
20
9.50844
30
6.72
0
VERTEX
10
10.5573
20
9.52337
30
6.72
0
VERTEX
10
10.5479
20
9.53644
30
6.72
0
VERTEX
10
10.5349
20
9.55137
30
6.72
0
VERTEX
10
10.533
20
9.5551
30
6.72
0
VERTEX
10
10.5237
20
9.5607
30
6.72
0
VERTEX
10
10.5162
20
9.56256
30
6.72
0
VERTEX
10
10.5031
20
9.57376
30
6.72
0
VERTEX
10
10.4957
20
9.57936
30
6.72
0
VERTEX
10
10.4658
20
9.57749
30
6.72
0
VERTEX
10
10.4509
20
9.57749
30
6.72
0
VERTEX
10
10.4229
20
9.5607
30
6.72
0
VERTEX
10
10.4098
20
9.55137
30
6.72
0
VERTEX
10
10.4098
20
9.5495
30
6.72
0
SEQEND
0
POLYLINE
62
236
66
1
70
1
3
postsynaptic_density
0
VERTEX
10
8.21328
20
9.17812
30
6.72
0
VERTEX
10
8.21701
20
9.1184
30
6.72
0
VERTEX
10
8.22261
20
9.10347
30
6.72
0
VERTEX
10
8.22634
20
9.09601
30
6.72
0
VERTEX
10
8.22634
20
9.08854
30
6.72
0
VERTEX
10
8.22634
20
9.08481
30
6.72
0
VERTEX
10
8.23381
20
9.08294
30
6.72
0
VERTEX
10
8.24874
20
9.08668
30
6.72
0
VERTEX
10
8.26367
20
9.08668
30
6.72
0
VERTEX
10
8.27113
20
9.08668
30
6.72
0
VERTEX
10
8.27487
20
9.08668
30
6.72
0
VERTEX
10
8.28233
20
9.09227
30
6.72
0
VERTEX
10
8.29166
20
9.1072
30
6.72
0
VERTEX
10
8.29726
20
9.12213
30
6.72
0
VERTEX
10
8.30286
20
9.1296
30
6.72
0
VERTEX
10
8.30286
20
9.13333
30
6.72
0
VERTEX
10
8.30846
20
9.13893
30
6.72
0
VERTEX
10
8.31032
20
9.16879
30
6.72
0
VERTEX
10
8.30473
20
9.18372
30
6.72
0
VERTEX
10
8.27487
20
9.19678
30
6.72
0
VERTEX
10
8.21515
20
9.19492
30
6.72
0
VERTEX
10
8.21328
20
9.17999
30
6.72
0
SEQEND
0
POLYLINE
62
227
66
1
70
1
3
endoplasmic_reticulum
0
VERTEX
10
8.79063
20
9.85573
30
6.72
0
VERTEX
10
8.79243
20
9.84856
30
6.72
0
VERTEX
10
8.79243
20
9.84497
30
6.72
0
VERTEX
10
8.79601
20
9.84139
30
6.72
0
VERTEX
10
8.7987
20
9.83421
30
6.72
0
VERTEX
10
8.80139
20
9.83152
30
6.72
0
VERTEX
10
8.80319
20
9.83152
30
6.72
0
VERTEX
10
8.81036
20
9.82615
30
6.72
0
VERTEX
10
8.81215
20
9.82435
30
6.72
0
VERTEX
10
8.81932
20
9.82166
30
6.72
0
VERTEX
10
8.84801
20
9.82077
30
6.72
0
VERTEX
10
8.86236
20
9.82166
30
6.72
0
VERTEX
10
8.86594
20
9.82256
30
6.72
0
VERTEX
10
8.86953
20
9.82525
30
6.72
0
VERTEX
10
8.87132
20
9.82615
30
6.72
0
VERTEX
10
8.87132
20
9.82794
30
6.72
0
VERTEX
10
8.8785
20
9.83242
30
6.72
0
VERTEX
10
8.88388
20
9.8387
30
6.72
0
VERTEX
10
8.89105
20
9.84318
30
6.72
0
VERTEX
10
8.89284
20
9.84677
30
6.72
0
VERTEX
10
8.90001
20
9.85035
30
6.72
0
VERTEX
10
8.9036
20
9.85394
30
6.72
0
VERTEX
10
8.90719
20
9.85483
30
6.72
0
VERTEX
10
8.91884
20
9.86649
30
6.72
0
VERTEX
10
8.92601
20
9.87277
30
6.72
0
VERTEX
10
8.9287
20
9.87635
30
6.72
0
VERTEX
10
8.93139
20
9.87815
30
6.72
0
VERTEX
10
8.93767
20
9.88532
30
6.72
0
VERTEX
10
8.93767
20
9.8889
30
6.72
0
VERTEX
10
8.93498
20
9.89249
30
6.72
0
VERTEX
10
8.9305
20
9.89518
30
6.72
0
VERTEX
10
8.92332
20
9.89966
30
6.72
0
VERTEX
10
8.91615
20
9.89966
30
6.72
0
VERTEX
10
8.90988
20
9.89697
30
6.72
0
VERTEX
10
8.88119
20
9.89608
30
6.72
0
VERTEX
10
8.87401
20
9.89428
30
6.72
0
VERTEX
10
8.87043
20
9.89249
30
6.72
0
VERTEX
10
8.85608
20
9.8898
30
6.72
0
VERTEX
10
8.84174
20
9.88532
30
6.72
0
VERTEX
10
8.81305
20
9.88532
30
6.72
0
VERTEX
10
8.80946
20
9.88532
30
6.72
0
VERTEX
10
8.80229
20
9.88263
30
6.72
0
VERTEX
10
8.7996
20
9.87904
30
6.72
0
VERTEX
10
8.79781
20
9.87725
30
6.72
0
VERTEX
10
8.79691
20
9.87366
30
6.72
0
VERTEX
10
8.79063
20
9.86649
30
6.72
0
VERTEX
10
8.79153
20
9.85932
30
6.72
0
VERTEX
10
8.79063
20
9.85663
30
6.72
0
SEQEND
0
POLYLINE
62
227
66
1
70
1
3
endoplasmic_reticulum
0
VERTEX
10
8.99056
20
9.79028
30
6.72
0
VERTEX
10
8.99236
20
9.7867
30
6.72
0
VERTEX
10
8.99236
20
9.77952
30
6.72
0
VERTEX
10
8.99415
20
9.77594
30
6.72
0
VERTEX
10
9.00132
20
9.77056
30
6.72
0
VERTEX
10
9.0085
20
9.76787
30
6.72
0
VERTEX
10
9.01477
20
9.76339
30
6.72
0
VERTEX
10
9.02194
20
9.7607
30
6.72
0
VERTEX
10
9.02374
20
9.75711
30
6.72
0
VERTEX
10
9.03808
20
9.74815
30
6.72
0
VERTEX
10
9.04167
20
9.74725
30
6.72
0
VERTEX
10
9.04346
20
9.74725
30
6.72
0
VERTEX
10
9.04705
20
9.74456
30
6.72
0
VERTEX
10
9.06139
20
9.73918
30
6.72
0
VERTEX
10
9.07574
20
9.73111
30
6.72
0
VERTEX
10
9.07753
20
9.73111
30
6.72
0
VERTEX
10
9.08381
20
9.72394
30
6.72
0
VERTEX
10
9.08649
20
9.72125
30
6.72
0
VERTEX
10
9.08829
20
9.72125
30
6.72
0
VERTEX
10
9.08918
20
9.71766
30
6.72
0
VERTEX
10
9.09367
20
9.71228
30
6.72
0
VERTEX
10
9.10084
20
9.7069
30
6.72
0
VERTEX
10
9.10443
20
9.70601
30
6.72
0
VERTEX
10
9.10532
20
9.70422
30
6.72
0
VERTEX
10
9.10712
20
9.70422
30
6.72
0
VERTEX
10
9.11429
20
9.69973
30
6.72
0
VERTEX
10
9.11698
20
9.69615
30
6.72
0
VERTEX
10
9.12415
20
9.69166
30
6.72
0
VERTEX
10
9.12774
20
9.68987
30
6.72
0
VERTEX
10
9.13132
20
9.68987
30
6.72
0
VERTEX
10
9.13312
20
9.68987
30
6.72
0
VERTEX
10
9.13401
20
9.68808
30
6.72
0
VERTEX
10
9.14746
20
9.68628
30
6.72
0
VERTEX
10
9.15015
20
9.68987
30
6.72
0
VERTEX
10
9.15194
20
9.69166
30
6.72
0
VERTEX
10
9.15194
20
9.70601
30
6.72
0
VERTEX
10
9.14925
20
9.70959
30
6.72
0
VERTEX
10
9.14836
20
9.71318
30
6.72
0
VERTEX
10
9.14656
20
9.71497
30
6.72
0
VERTEX
10
9.14477
20
9.72215
30
6.72
0
VERTEX
10
9.14118
20
9.72932
30
6.72
0
VERTEX
10
9.13939
20
9.73021
30
6.72
0
VERTEX
10
9.1376
20
9.73739
30
6.72
0
VERTEX
10
9.13312
20
9.74456
30
6.72
0
VERTEX
10
9.10712
20
9.76518
30
6.72
0
VERTEX
10
9.10353
20
9.76608
30
6.72
0
VERTEX
10
9.09994
20
9.76966
30
6.72
0
VERTEX
10
9.08649
20
9.77504
30
6.72
0
VERTEX
10
9.07932
20
9.77773
30
6.72
0
VERTEX
10
9.07753
20
9.77952
30
6.72
0
VERTEX
10
9.07574
20
9.77952
30
6.72
0
VERTEX
10
9.07215
20
9.78221
30
6.72
0
VERTEX
10
9.06498
20
9.78401
30
6.72
0
VERTEX
10
9.05063
20
9.79208
30
6.72
0
VERTEX
10
9.04346
20
9.79656
30
6.72
0
VERTEX
10
9.03629
20
9.79925
30
6.72
0
VERTEX
10
9.0345
20
9.79925
30
6.72
0
VERTEX
10
9.0327
20
9.80104
30
6.72
0
VERTEX
10
9.02553
20
9.80194
30
6.72
0
VERTEX
10
9.01836
20
9.80463
30
6.72
0
VERTEX
10
9.00401
20
9.80373
30
6.72
0
VERTEX
10
8.99684
20
9.80284
30
6.72
0
VERTEX
10
8.99325
20
9.79566
30
6.72
0
VERTEX
10
8.99146
20
9.79208
30
6.72
0
VERTEX
10
8.99056
20
9.79118
30
6.72
0
SEQEND
0
POLYLINE
62
227
66
1
70
1
3
endoplasmic_reticulum
0
VERTEX
10
8.97443
20
9.8629
30
6.72
0
VERTEX
10
8.97622
20
9.86111
30
6.72
0
VERTEX
10
8.97712
20
9.85752
30
6.72
0
VERTEX
10
8.97981
20
9.85483
30
6.72
0
VERTEX
10
8.97981
20
9.85304
30
6.72
0
VERTEX
10
8.98698
20
9.84766
30
6.72
0
VERTEX
10
9.00132
20
9.84677
30
6.72
0
VERTEX
10
9.0085
20
9.84856
30
6.72
0
VERTEX
10
9.01029
20
9.84856
30
6.72
0
VERTEX
10
9.01387
20
9.85125
30
6.72
0
VERTEX
10
9.01567
20
9.85304
30
6.72
0
VERTEX
10
9.01477
20
9.86739
30
6.72
0
VERTEX
10
9.01387
20
9.87456
30
6.72
0
VERTEX
10
8.98519
20
9.87635
30
6.72
0
VERTEX
10
8.97801
20
9.87725
30
6.72
0
VERTEX
10
8.97532
20
9.87456
30
6.72
0
VERTEX
10
8.97443
20
9.86739
30
6.72
0
VERTEX
10
8.97443
20
9.8638
30
6.72
0
SEQEND
0
POLYLINE
62
227
66
1
70
1
3
endoplasmic_reticulum
0
VERTEX
10
8.96871
20
10.3083
30
6.72
0
VERTEX
10
8.97504
20
10.3051
30
6.72
0
VERTEX
10
8.97504
20
10.2988
30
6.72
0
VERTEX
10
8.98454
20
10.2861
30
6.72
0
VERTEX
10
8.98454
20
10.2735
30
6.72
0
VERTEX
10
8.99087
20
10.2703
30
6.72
0
VERTEX
10
9.01621
20
10.2766
30
6.72
0
VERTEX
10
9.02254
20
10.2766
30
6.72
0
VERTEX
10
9.02888
20
10.283
30
6.72
0
VERTEX
10
9.02254
20
10.3336
30
6.72
0
VERTEX
10
9.00037
20
10.3431
30
6.72
0
VERTEX
10
8.99404
20
10.3431
30
6.72
0
VERTEX
10
8.97187
20
10.3241
30
6.72
0
VERTEX
10
8.96871
20
10.3115
30
6.72
0
SEQEND
0
POLYLINE
62
31
66
1
70
1
3
contour
0
VERTEX
10
7.90236
20
9.2126
30
6.72
0
VERTEX
10
7.9082
20
9.19703
30
6.72
0
VERTEX
10
7.91209
20
9.19313
30
6.72
0
VERTEX
10
7.91209
20
9.18924
30
6.72
0
VERTEX
10
7.91598
20
9.18534
30
6.72
0
VERTEX
10
7.92961
20
9.18145
30
6.72
0
VERTEX
10
7.9374
20
9.17756
30
6.72
0
VERTEX
10
7.95297
20
9.17561
30
6.72
0
VERTEX
10
7.96076
20
9.17172
30
6.72
0
VERTEX
10
7.97634
20
9.17172
30
6.72
0
VERTEX
10
7.98218
20
9.17756
30
6.72
0
VERTEX
10
7.98412
20
9.19313
30
6.72
0
VERTEX
10
7.99386
20
9.20676
30
6.72
0
VERTEX
10
7.9997
20
9.22234
30
6.72
0
VERTEX
10
8.00943
20
9.23791
30
6.72
0
VERTEX
10
8.02112
20
9.24959
30
6.72
0
VERTEX
10
8.02501
20
9.25738
30
6.72
0
VERTEX
10
8.03864
20
9.27101
30
6.72
0
VERTEX
10
8.03864
20
9.2749
30
6.72
0
VERTEX
10
8.04253
20
9.27879
30
6.72
0
VERTEX
10
8.04253
20
9.30994
30
6.72
0
VERTEX
10
8.04058
20
9.31773
30
6.72
0
VERTEX
10
8.0328
20
9.32357
30
6.72
0
VERTEX
10
8.01722
20
9.32747
30
6.72
0
VERTEX
10
8.00165
20
9.32747
30
6.72
0
VERTEX
10
7.98607
20
9.32357
30
6.72
0
VERTEX
10
7.97828
20
9.32163
30
6.72
0
VERTEX
10
7.9666
20
9.30994
30
6.72
0
VERTEX
10
7.96466
20
9.30216
30
6.72
0
VERTEX
10
7.95882
20
9.29826
30
6.72
0
VERTEX
10
7.94519
20
9.28464
30
6.72
0
VERTEX
10
7.93935
20
9.27685
30
6.72
0
VERTEX
10
7.93156
20
9.27295
30
6.72
0
VERTEX
10
7.92961
20
9.26906
30
6.72
0
VERTEX
10
7.92182
20
9.26711
30
6.72
0
VERTEX
10
7.91598
20
9.26127
30
6.72
0
VERTEX
10
7.91209
20
9.25933
30
6.72
0
VERTEX
10
7.91014
20
9.25154
30
6.72
0
VERTEX
10
7.9043
20
9.24375
30
6.72
0
VERTEX
10
7.90236
20
9.21455
30
6.72
0
SEQEND
0
ENDSEC
0
EOF
