0
SECTION
2
ENTITIES
0
POLYLINE
62
31
66
1
70
1
3
contour
0
VERTEX
10
8.88502
20
9.33071
30
6.24
0
VERTEX
10
8.90054
20
9.31519
30
6.24
0
VERTEX
10
8.90719
20
9.31075
30
6.24
0
VERTEX
10
8.94267
20
9.31297
30
6.24
0
VERTEX
10
8.94932
20
9.31962
30
6.24
0
VERTEX
10
8.96706
20
9.32184
30
6.24
0
VERTEX
10
8.9715
20
9.32628
30
6.24
0
VERTEX
10
8.98924
20
9.33071
30
6.24
0
VERTEX
10
9.06019
20
9.33736
30
6.24
0
VERTEX
10
9.09567
20
9.33736
30
6.24
0
VERTEX
10
9.11341
20
9.33293
30
6.24
0
VERTEX
10
9.11784
20
9.32849
30
6.24
0
VERTEX
10
9.12671
20
9.32628
30
6.24
0
VERTEX
10
9.13558
20
9.31962
30
6.24
0
VERTEX
10
9.15332
20
9.31962
30
6.24
0
VERTEX
10
9.17106
20
9.30632
30
6.24
0
VERTEX
10
9.24202
20
9.3041
30
6.24
0
VERTEX
10
9.25089
20
9.30854
30
6.24
0
VERTEX
10
9.28636
20
9.30854
30
6.24
0
VERTEX
10
9.35732
20
9.29967
30
6.24
0
VERTEX
10
9.3928
20
9.30188
30
6.24
0
VERTEX
10
9.41054
20
9.3041
30
6.24
0
VERTEX
10
9.41941
20
9.3041
30
6.24
0
VERTEX
10
9.42384
20
9.3041
30
6.24
0
VERTEX
10
9.42828
20
9.30854
30
6.24
0
VERTEX
10
9.44601
20
9.31297
30
6.24
0
VERTEX
10
9.45045
20
9.31741
30
6.24
0
VERTEX
10
9.45488
20
9.31741
30
6.24
0
VERTEX
10
9.47927
20
9.3418
30
6.24
0
VERTEX
10
9.48814
20
9.35067
30
6.24
0
VERTEX
10
9.49701
20
9.36841
30
6.24
0
VERTEX
10
9.50367
20
9.40388
30
6.24
0
VERTEX
10
9.50588
20
9.42162
30
6.24
0
VERTEX
10
9.5214
20
9.4571
30
6.24
0
VERTEX
10
9.52584
20
9.47484
30
6.24
0
VERTEX
10
9.52806
20
9.51032
30
6.24
0
VERTEX
10
9.53249
20
9.52806
30
6.24
0
VERTEX
10
9.53693
20
9.53027
30
6.24
0
VERTEX
10
9.53471
20
9.56575
30
6.24
0
VERTEX
10
9.53471
20
9.57462
30
6.24
0
VERTEX
10
9.52584
20
9.59236
30
6.24
0
VERTEX
10
9.51254
20
9.6101
30
6.24
0
VERTEX
10
9.51254
20
9.61897
30
6.24
0
VERTEX
10
9.50367
20
9.62562
30
6.24
0
VERTEX
10
9.49701
20
9.64336
30
6.24
0
VERTEX
10
9.48593
20
9.6611
30
6.24
0
VERTEX
10
9.47927
20
9.66997
30
6.24
0
VERTEX
10
9.47484
20
9.6744
30
6.24
0
VERTEX
10
9.47262
20
9.68327
30
6.24
0
VERTEX
10
9.45932
20
9.69879
30
6.24
0
VERTEX
10
9.45045
20
9.71432
30
6.24
0
VERTEX
10
9.44601
20
9.72319
30
6.24
0
VERTEX
10
9.4438
20
9.72762
30
6.24
0
VERTEX
10
9.37284
20
9.7254
30
6.24
0
VERTEX
10
9.33736
20
9.7121
30
6.24
0
VERTEX
10
9.32184
20
9.70101
30
6.24
0
VERTEX
10
9.3041
20
9.69658
30
6.24
0
VERTEX
10
9.29523
20
9.68993
30
6.24
0
VERTEX
10
9.27749
20
9.68549
30
6.24
0
VERTEX
10
9.26197
20
9.67219
30
6.24
0
VERTEX
10
9.2531
20
9.66997
30
6.24
0
VERTEX
10
9.24867
20
9.66997
30
6.24
0
VERTEX
10
9.2398
20
9.6611
30
6.24
0
VERTEX
10
9.20432
20
9.64558
30
6.24
0
VERTEX
10
9.19545
20
9.64114
30
6.24
0
VERTEX
10
9.19102
20
9.63671
30
6.24
0
VERTEX
10
9.15554
20
9.63227
30
6.24
0
VERTEX
10
9.08458
20
9.63671
30
6.24
0
VERTEX
10
9.07571
20
9.63893
30
6.24
0
VERTEX
10
9.07128
20
9.63893
30
6.24
0
VERTEX
10
9.05576
20
9.65223
30
6.24
0
VERTEX
10
9.03802
20
9.6611
30
6.24
0
VERTEX
10
9.03358
20
9.66332
30
6.24
0
VERTEX
10
9.02471
20
9.6611
30
6.24
0
VERTEX
10
9.01806
20
9.65445
30
6.24
0
VERTEX
10
9.01806
20
9.64558
30
6.24
0
VERTEX
10
9.01363
20
9.64114
30
6.24
0
VERTEX
10
9.00919
20
9.60567
30
6.24
0
VERTEX
10
9.01584
20
9.57019
30
6.24
0
VERTEX
10
9.01806
20
9.56132
30
6.24
0
VERTEX
10
9.0225
20
9.55688
30
6.24
0
VERTEX
10
9.02915
20
9.53914
30
6.24
0
VERTEX
10
9.04023
20
9.52362
30
6.24
0
VERTEX
10
9.0491
20
9.51697
30
6.24
0
VERTEX
10
9.05576
20
9.49923
30
6.24
0
VERTEX
10
9.0491
20
9.46375
30
6.24
0
VERTEX
10
9.04245
20
9.44601
30
6.24
0
VERTEX
10
9.04023
20
9.43714
30
6.24
0
VERTEX
10
9.0225
20
9.42606
30
6.24
0
VERTEX
10
9.01363
20
9.42606
30
6.24
0
VERTEX
10
8.97815
20
9.41054
30
6.24
0
VERTEX
10
8.94267
20
9.40388
30
6.24
0
VERTEX
10
8.92493
20
9.40388
30
6.24
0
VERTEX
10
8.90719
20
9.39723
30
6.24
0
VERTEX
10
8.89832
20
9.39723
30
6.24
0
VERTEX
10
8.89167
20
9.39058
30
6.24
0
VERTEX
10
8.88502
20
9.37506
30
6.24
0
VERTEX
10
8.88502
20
9.33958
30
6.24
0
VERTEX
10
8.88502
20
9.33293
30
6.24
0
SEQEND
0
POLYLINE
62
31
66
1
70
1
3
contour
0
VERTEX
10
7.17728
20
9.18606
30
6.24
0
VERTEX
10
7.18261
20
9.17541
30
6.24
0
VERTEX
10
7.18261
20
9.15409
30
6.24
0
VERTEX
10
7.1906
20
9.13278
30
6.24
0
VERTEX
10
7.1906
20
9.12212
30
6.24
0
VERTEX
10
7.20392
20
9.10081
30
6.24
0
VERTEX
10
7.20658
20
9.09548
30
6.24
0
VERTEX
10
7.21191
20
9.09548
30
6.24
0
VERTEX
10
7.23323
20
9.0795
30
6.24
0
VERTEX
10
7.27585
20
9.07683
30
6.24
0
VERTEX
10
7.36111
20
9.08216
30
6.24
0
VERTEX
10
7.36643
20
9.08216
30
6.24
0
VERTEX
10
7.37176
20
9.08749
30
6.24
0
VERTEX
10
7.41439
20
9.09015
30
6.24
0
VERTEX
10
7.4357
20
9.09815
30
6.24
0
VERTEX
10
7.47833
20
9.10081
30
6.24
0
VERTEX
10
7.49964
20
9.09815
30
6.24
0
VERTEX
10
7.5103
20
9.09815
30
6.24
0
VERTEX
10
7.52895
20
9.08482
30
6.24
0
VERTEX
10
7.57158
20
9.06884
30
6.24
0
VERTEX
10
7.58223
20
9.06618
30
6.24
0
VERTEX
10
7.59289
20
9.05818
30
6.24
0
VERTEX
10
7.63552
20
9.04486
30
6.24
0
VERTEX
10
7.65683
20
9.03953
30
6.24
0
VERTEX
10
7.66216
20
9.03953
30
6.24
0
VERTEX
10
7.66749
20
9.03421
30
6.24
0
VERTEX
10
7.71011
20
9.03421
30
6.24
0
VERTEX
10
7.75274
20
9.03953
30
6.24
0
VERTEX
10
7.7634
20
9.0422
30
6.24
0
VERTEX
10
7.77405
20
9.05019
30
6.24
0
VERTEX
10
7.78471
20
9.05285
30
6.24
0
VERTEX
10
7.7927
20
9.06085
30
6.24
0
VERTEX
10
7.79803
20
9.06085
30
6.24
0
VERTEX
10
7.80069
20
9.06618
30
6.24
0
VERTEX
10
7.82201
20
9.07417
30
6.24
0
VERTEX
10
7.82467
20
9.0795
30
6.24
0
VERTEX
10
7.84599
20
9.07683
30
6.24
0
VERTEX
10
7.8673
20
9.09282
30
6.24
0
VERTEX
10
7.90993
20
9.11147
30
6.24
0
VERTEX
10
7.94989
20
9.13544
30
6.24
0
VERTEX
10
7.96854
20
9.14876
30
6.24
0
VERTEX
10
8.00317
20
9.18606
30
6.24
0
VERTEX
10
8.00584
20
9.19672
30
6.24
0
VERTEX
10
7.99784
20
9.21803
30
6.24
0
VERTEX
10
7.99518
20
9.22869
30
6.24
0
VERTEX
10
7.98719
20
9.23935
30
6.24
0
VERTEX
10
7.98452
20
9.25
30
6.24
0
VERTEX
10
7.96854
20
9.26865
30
6.24
0
VERTEX
10
7.95788
20
9.27398
30
6.24
0
VERTEX
10
7.95255
20
9.27931
30
6.24
0
VERTEX
10
7.9339
20
9.2873
30
6.24
0
VERTEX
10
7.92857
20
9.29263
30
6.24
0
VERTEX
10
7.91792
20
9.29529
30
6.24
0
VERTEX
10
7.90726
20
9.30329
30
6.24
0
VERTEX
10
7.88595
20
9.31128
30
6.24
0
VERTEX
10
7.87529
20
9.31128
30
6.24
0
VERTEX
10
7.87263
20
9.30862
30
6.24
0
VERTEX
10
7.85131
20
9.31927
30
6.24
0
VERTEX
10
7.83
20
9.31927
30
6.24
0
VERTEX
10
7.82467
20
9.31927
30
6.24
0
VERTEX
10
7.80602
20
9.34059
30
6.24
0
VERTEX
10
7.76606
20
9.37256
30
6.24
0
VERTEX
10
7.76073
20
9.37788
30
6.24
0
VERTEX
10
7.73942
20
9.38321
30
6.24
0
VERTEX
10
7.73409
20
9.38321
30
6.24
0
VERTEX
10
7.72876
20
9.38854
30
6.24
0
VERTEX
10
7.68613
20
9.38854
30
6.24
0
VERTEX
10
7.67548
20
9.3912
30
6.24
0
VERTEX
10
7.65683
20
9.41252
30
6.24
0
VERTEX
10
7.63552
20
9.41785
30
6.24
0
VERTEX
10
7.55026
20
9.40985
30
6.24
0
VERTEX
10
7.50764
20
9.40453
30
6.24
0
VERTEX
10
7.48632
20
9.39653
30
6.24
0
VERTEX
10
7.47567
20
9.38854
30
6.24
0
VERTEX
10
7.46501
20
9.38588
30
6.24
0
VERTEX
10
7.45968
20
9.38055
30
6.24
0
VERTEX
10
7.45435
20
9.38055
30
6.24
0
VERTEX
10
7.41705
20
9.35124
30
6.24
0
VERTEX
10
7.4064
20
9.34325
30
6.24
0
VERTEX
10
7.40107
20
9.34325
30
6.24
0
VERTEX
10
7.37976
20
9.32993
30
6.24
0
VERTEX
10
7.33713
20
9.31394
30
6.24
0
VERTEX
10
7.3318
20
9.30862
30
6.24
0
VERTEX
10
7.32647
20
9.30862
30
6.24
0
VERTEX
10
7.32114
20
9.30329
30
6.24
0
VERTEX
10
7.29983
20
9.29796
30
6.24
0
VERTEX
10
7.2572
20
9.27931
30
6.24
0
VERTEX
10
7.21458
20
9.25
30
6.24
0
VERTEX
10
7.19326
20
9.23402
30
6.24
0
VERTEX
10
7.18527
20
9.22336
30
6.24
0
VERTEX
10
7.18527
20
9.21803
30
6.24
0
VERTEX
10
7.17728
20
9.20738
30
6.24
0
VERTEX
10
7.17728
20
9.18873
30
6.24
0
SEQEND
0
POLYLINE
62
224
66
1
70
1
3
mitochondrion
0
VERTEX
10
9.1393
20
9.43963
30
6.24
0
VERTEX
10
9.14208
20
9.42851
30
6.24
0
VERTEX
10
9.14347
20
9.40626
30
6.24
0
VERTEX
10
9.14625
20
9.40348
30
6.24
0
VERTEX
10
9.14625
20
9.39235
30
6.24
0
VERTEX
10
9.15042
20
9.38123
30
6.24
0
VERTEX
10
9.1532
20
9.37984
30
6.24
0
VERTEX
10
9.15459
20
9.37428
30
6.24
0
VERTEX
10
9.16432
20
9.36733
30
6.24
0
VERTEX
10
9.16989
20
9.36594
30
6.24
0
VERTEX
10
9.17545
20
9.36176
30
6.24
0
VERTEX
10
9.19769
20
9.35481
30
6.24
0
VERTEX
10
9.21994
20
9.35342
30
6.24
0
VERTEX
10
9.23106
20
9.35342
30
6.24
0
VERTEX
10
9.25331
20
9.35759
30
6.24
0
VERTEX
10
9.27417
20
9.36455
30
6.24
0
VERTEX
10
9.2839
20
9.3715
30
6.24
0
VERTEX
10
9.28946
20
9.37567
30
6.24
0
VERTEX
10
9.29641
20
9.38401
30
6.24
0
VERTEX
10
9.2992
20
9.38679
30
6.24
0
VERTEX
10
9.30059
20
9.39235
30
6.24
0
VERTEX
10
9.30476
20
9.39653
30
6.24
0
VERTEX
10
9.30476
20
9.40209
30
6.24
0
VERTEX
10
9.31449
20
9.42294
30
6.24
0
VERTEX
10
9.31866
20
9.43407
30
6.24
0
VERTEX
10
9.32144
20
9.43685
30
6.24
0
VERTEX
10
9.32422
20
9.44797
30
6.24
0
VERTEX
10
9.32422
20
9.45075
30
6.24
0
VERTEX
10
9.327
20
9.45353
30
6.24
0
VERTEX
10
9.327
20
9.47578
30
6.24
0
VERTEX
10
9.32144
20
9.49803
30
6.24
0
VERTEX
10
9.31449
20
9.50776
30
6.24
0
VERTEX
10
9.30476
20
9.5161
30
6.24
0
VERTEX
10
9.2978
20
9.52166
30
6.24
0
VERTEX
10
9.2978
20
9.52444
30
6.24
0
VERTEX
10
9.28668
20
9.52723
30
6.24
0
VERTEX
10
9.24219
20
9.52584
30
6.24
0
VERTEX
10
9.21994
20
9.52027
30
6.24
0
VERTEX
10
9.20047
20
9.50776
30
6.24
0
VERTEX
10
9.19491
20
9.5022
30
6.24
0
VERTEX
10
9.18935
20
9.49942
30
6.24
0
VERTEX
10
9.17823
20
9.48968
30
6.24
0
VERTEX
10
9.17267
20
9.4869
30
6.24
0
VERTEX
10
9.16989
20
9.48412
30
6.24
0
VERTEX
10
9.1671
20
9.48412
30
6.24
0
VERTEX
10
9.1532
20
9.46188
30
6.24
0
VERTEX
10
9.14903
20
9.45214
30
6.24
0
VERTEX
10
9.14486
20
9.4577
30
6.24
0
VERTEX
10
9.1393
20
9.45353
30
6.24
0
VERTEX
10
9.1393
20
9.44241
30
6.24
0
VERTEX
10
9.1393
20
9.44102
30
6.24
0
SEQEND
0
POLYLINE
62
227
66
1
70
1
3
endoplasmic_reticulum
0
VERTEX
10
9.27298
20
9.62711
30
6.24
0
VERTEX
10
9.27477
20
9.62353
30
6.24
0
VERTEX
10
9.27477
20
9.61635
30
6.24
0
VERTEX
10
9.27567
20
9.61456
30
6.24
0
VERTEX
10
9.27925
20
9.61456
30
6.24
0
VERTEX
10
9.2936
20
9.60918
30
6.24
0
VERTEX
10
9.30077
20
9.60828
30
6.24
0
VERTEX
10
9.31242
20
9.59663
30
6.24
0
VERTEX
10
9.3178
20
9.59125
30
6.24
0
VERTEX
10
9.3196
20
9.59125
30
6.24
0
VERTEX
10
9.32139
20
9.58946
30
6.24
0
VERTEX
10
9.32139
20
9.58766
30
6.24
0
VERTEX
10
9.32318
20
9.58587
30
6.24
0
VERTEX
10
9.32587
20
9.57153
30
6.24
0
VERTEX
10
9.32856
20
9.56884
30
6.24
0
VERTEX
10
9.33573
20
9.56794
30
6.24
0
VERTEX
10
9.34291
20
9.57063
30
6.24
0
VERTEX
10
9.34649
20
9.57422
30
6.24
0
VERTEX
10
9.35008
20
9.5796
30
6.24
0
VERTEX
10
9.35187
20
9.58139
30
6.24
0
VERTEX
10
9.35367
20
9.58139
30
6.24
0
VERTEX
10
9.35815
20
9.58766
30
6.24
0
VERTEX
10
9.36173
20
9.58856
30
6.24
0
VERTEX
10
9.36801
20
9.59394
30
6.24
0
VERTEX
10
9.3716
20
9.59484
30
6.24
0
VERTEX
10
9.37698
20
9.60111
30
6.24
0
VERTEX
10
9.38056
20
9.6047
30
6.24
0
VERTEX
10
9.38953
20
9.61725
30
6.24
0
VERTEX
10
9.39132
20
9.62084
30
6.24
0
VERTEX
10
9.39311
20
9.62173
30
6.24
0
VERTEX
10
9.40029
20
9.61994
30
6.24
0
VERTEX
10
9.41015
20
9.61008
30
6.24
0
VERTEX
10
9.41732
20
9.6056
30
6.24
0
VERTEX
10
9.42449
20
9.60649
30
6.24
0
VERTEX
10
9.42629
20
9.60649
30
6.24
0
VERTEX
10
9.42808
20
9.60828
30
6.24
0
VERTEX
10
9.42629
20
9.62263
30
6.24
0
VERTEX
10
9.42539
20
9.6298
30
6.24
0
VERTEX
10
9.41373
20
9.64235
30
6.24
0
VERTEX
10
9.41015
20
9.64504
30
6.24
0
VERTEX
10
9.40925
20
9.64863
30
6.24
0
VERTEX
10
9.40298
20
9.65401
30
6.24
0
VERTEX
10
9.39849
20
9.66028
30
6.24
0
VERTEX
10
9.39222
20
9.66387
30
6.24
0
VERTEX
10
9.38504
20
9.66925
30
6.24
0
VERTEX
10
9.38146
20
9.67284
30
6.24
0
VERTEX
10
9.37967
20
9.67463
30
6.24
0
VERTEX
10
9.36532
20
9.67553
30
6.24
0
VERTEX
10
9.36173
20
9.67553
30
6.24
0
VERTEX
10
9.35994
20
9.67553
30
6.24
0
VERTEX
10
9.35636
20
9.67911
30
6.24
0
VERTEX
10
9.34201
20
9.68001
30
6.24
0
VERTEX
10
9.32767
20
9.67732
30
6.24
0
VERTEX
10
9.32049
20
9.67642
30
6.24
0
VERTEX
10
9.31332
20
9.67015
30
6.24
0
VERTEX
10
9.30256
20
9.65939
30
6.24
0
VERTEX
10
9.29898
20
9.65939
30
6.24
0
VERTEX
10
9.2927
20
9.65222
30
6.24
0
VERTEX
10
9.2918
20
9.65042
30
6.24
0
VERTEX
10
9.29001
20
9.65042
30
6.24
0
VERTEX
10
9.27656
20
9.63877
30
6.24
0
VERTEX
10
9.27298
20
9.63159
30
6.24
0
VERTEX
10
9.27298
20
9.62801
30
6.24
0
SEQEND
0
POLYLINE
62
227
66
1
70
1
3
endoplasmic_reticulum
0
VERTEX
10
9.34201
20
9.51415
30
6.24
0
VERTEX
10
9.34649
20
9.4998
30
6.24
0
VERTEX
10
9.34829
20
9.49622
30
6.24
0
VERTEX
10
9.35187
20
9.49442
30
6.24
0
VERTEX
10
9.35904
20
9.49442
30
6.24
0
VERTEX
10
9.36263
20
9.49622
30
6.24
0
VERTEX
10
9.36442
20
9.49801
30
6.24
0
VERTEX
10
9.36622
20
9.49801
30
6.24
0
VERTEX
10
9.3698
20
9.50518
30
6.24
0
VERTEX
10
9.3707
20
9.51235
30
6.24
0
VERTEX
10
9.3716
20
9.51594
30
6.24
0
VERTEX
10
9.36891
20
9.52311
30
6.24
0
VERTEX
10
9.36891
20
9.5267
30
6.24
0
VERTEX
10
9.36353
20
9.53208
30
6.24
0
VERTEX
10
9.36173
20
9.53835
30
6.24
0
VERTEX
10
9.35456
20
9.53118
30
6.24
0
VERTEX
10
9.35098
20
9.5276
30
6.24
0
VERTEX
10
9.34918
20
9.5267
30
6.24
0
VERTEX
10
9.34918
20
9.52491
30
6.24
0
VERTEX
10
9.3456
20
9.52311
30
6.24
0
VERTEX
10
9.3447
20
9.52132
30
6.24
0
VERTEX
10
9.34291
20
9.52132
30
6.24
0
VERTEX
10
9.34201
20
9.51504
30
6.24
0
SEQEND
0
POLYLINE
62
227
66
1
70
1
3
endoplasmic_reticulum
0
VERTEX
10
7.84513
20
9.17436
30
6.24
0
VERTEX
10
7.84896
20
9.16669
30
6.24
0
VERTEX
10
7.86045
20
9.15712
30
6.24
0
VERTEX
10
7.86811
20
9.15137
30
6.24
0
VERTEX
10
7.89876
20
9.14946
30
6.24
0
VERTEX
10
7.91408
20
9.15137
30
6.24
0
VERTEX
10
7.92174
20
9.15137
30
6.24
0
VERTEX
10
7.92749
20
9.15712
30
6.24
0
VERTEX
10
7.9294
20
9.17244
30
6.24
0
VERTEX
10
7.92749
20
9.18776
30
6.24
0
VERTEX
10
7.92366
20
9.19159
30
6.24
0
VERTEX
10
7.91791
20
9.20692
30
6.24
0
VERTEX
10
7.88726
20
9.20883
30
6.24
0
VERTEX
10
7.87194
20
9.21075
30
6.24
0
VERTEX
10
7.86428
20
9.20883
30
6.24
0
VERTEX
10
7.85087
20
9.19734
30
6.24
0
VERTEX
10
7.84513
20
9.18968
30
6.24
0
VERTEX
10
7.84513
20
9.17627
30
6.24
0
SEQEND
0
POLYLINE
62
227
66
1
70
1
3
endoplasmic_reticulum
0
VERTEX
10
7.34906
20
9.14946
30
6.24
0
VERTEX
10
7.35864
20
9.13413
30
6.24
0
VERTEX
10
7.3663
20
9.12839
30
6.24
0
VERTEX
10
7.39694
20
9.12647
30
6.24
0
VERTEX
10
7.41227
20
9.13222
30
6.24
0
VERTEX
10
7.41993
20
9.13222
30
6.24
0
VERTEX
10
7.42759
20
9.13605
30
6.24
0
VERTEX
10
7.43334
20
9.14946
30
6.24
0
VERTEX
10
7.43334
20
9.15712
30
6.24
0
VERTEX
10
7.4295
20
9.16095
30
6.24
0
VERTEX
10
7.4295
20
9.16478
30
6.24
0
VERTEX
10
7.39886
20
9.18585
30
6.24
0
VERTEX
10
7.38354
20
9.18968
30
6.24
0
VERTEX
10
7.37588
20
9.18968
30
6.24
0
VERTEX
10
7.37205
20
9.19159
30
6.24
0
VERTEX
10
7.36438
20
9.18968
30
6.24
0
VERTEX
10
7.35289
20
9.17819
30
6.24
0
VERTEX
10
7.34906
20
9.16286
30
6.24
0
VERTEX
10
7.34906
20
9.1552
30
6.24
0
VERTEX
10
7.34906
20
9.15137
30
6.24
0
SEQEND
0
POLYLINE
62
236
66
1
70
1
3
postsynaptic_density
0
VERTEX
10
7.40608
20
9.04476
30
6.24
0
VERTEX
10
7.41788
20
9.03296
30
6.24
0
VERTEX
10
7.44486
20
9.02622
30
6.24
0
VERTEX
10
7.45666
20
9.01779
30
6.24
0
VERTEX
10
7.4634
20
9.01273
30
6.24
0
VERTEX
10
7.46677
20
9.01273
30
6.24
0
VERTEX
10
7.47015
20
9.00936
30
6.24
0
VERTEX
10
7.49712
20
9.0043
30
6.24
0
VERTEX
10
7.51061
20
8.99924
30
6.24
0
VERTEX
10
7.51735
20
8.99756
30
6.24
0
VERTEX
10
7.52072
20
8.99756
30
6.24
0
VERTEX
10
7.52409
20
8.99418
30
6.24
0
VERTEX
10
7.52747
20
8.99418
30
6.24
0
VERTEX
10
7.53421
20
8.98913
30
6.24
0
VERTEX
10
7.54095
20
8.98744
30
6.24
0
VERTEX
10
7.55444
20
8.9925
30
6.24
0
VERTEX
10
7.55781
20
8.9925
30
6.24
0
VERTEX
10
7.56793
20
9.0043
30
6.24
0
VERTEX
10
7.57636
20
9.03127
30
6.24
0
VERTEX
10
7.58479
20
9.04476
30
6.24
0
VERTEX
10
7.58984
20
9.07173
30
6.24
0
VERTEX
10
7.59827
20
9.09871
30
6.24
0
VERTEX
10
7.60333
20
9.12568
30
6.24
0
VERTEX
10
7.60502
20
9.13074
30
6.24
0
VERTEX
10
7.6185
20
9.13411
30
6.24
0
VERTEX
10
7.62187
20
9.1358
30
6.24
0
VERTEX
10
7.62019
20
9.13917
30
6.24
0
VERTEX
10
7.61345
20
9.13748
30
6.24
0
VERTEX
10
7.58647
20
9.14591
30
6.24
0
VERTEX
10
7.57298
20
9.15434
30
6.24
0
VERTEX
10
7.5595
20
9.15603
30
6.24
0
VERTEX
10
7.54601
20
9.16109
30
6.24
0
VERTEX
10
7.53927
20
9.16109
30
6.24
0
VERTEX
10
7.53252
20
9.16446
30
6.24
0
VERTEX
10
7.52578
20
9.16446
30
6.24
0
VERTEX
10
7.51229
20
9.16952
30
6.24
0
VERTEX
10
7.49881
20
9.1712
30
6.24
0
VERTEX
10
7.49206
20
9.17457
30
6.24
0
VERTEX
10
7.47857
20
9.17626
30
6.24
0
VERTEX
10
7.47183
20
9.18132
30
6.24
0
VERTEX
10
7.46509
20
9.183
30
6.24
0
VERTEX
10
7.46003
20
9.17794
30
6.24
0
VERTEX
10
7.45834
20
9.16446
30
6.24
0
VERTEX
10
7.44991
20
9.15097
30
6.24
0
VERTEX
10
7.44317
20
9.1476
30
6.24
0
VERTEX
10
7.4398
20
9.14423
30
6.24
0
VERTEX
10
7.43811
20
9.13748
30
6.24
0
VERTEX
10
7.42968
20
9.124
30
6.24
0
VERTEX
10
7.42463
20
9.11725
30
6.24
0
VERTEX
10
7.42125
20
9.10377
30
6.24
0
VERTEX
10
7.41957
20
9.09702
30
6.24
0
VERTEX
10
7.41957
20
9.09365
30
6.24
0
VERTEX
10
7.4162
20
9.09028
30
6.24
0
VERTEX
10
7.41114
20
9.07679
30
6.24
0
VERTEX
10
7.40777
20
9.07342
30
6.24
0
VERTEX
10
7.40608
20
9.04645
30
6.24
0
SEQEND
0
ENDSEC
0
EOF
