0
SECTION
2
ENTITIES
0
POLYLINE
62
224
66
1
70
1
3
mitochondrion
0
VERTEX
10
9.04058
20
9.00442
30
5.28
0
VERTEX
10
9.04475
20
8.9933
30
5.28
0
VERTEX
10
9.04614
20
8.98218
30
5.28
0
VERTEX
10
9.04614
20
8.9794
30
5.28
0
VERTEX
10
9.04892
20
8.97662
30
5.28
0
VERTEX
10
9.05031
20
8.96549
30
5.28
0
VERTEX
10
9.0517
20
8.95993
30
5.28
0
VERTEX
10
9.07116
20
8.94325
30
5.28
0
VERTEX
10
9.07673
20
8.94185
30
5.28
0
VERTEX
10
9.0809
20
8.93768
30
5.28
0
VERTEX
10
9.09202
20
8.93351
30
5.28
0
VERTEX
10
9.11427
20
8.93351
30
5.28
0
VERTEX
10
9.13651
20
8.94185
30
5.28
0
VERTEX
10
9.14486
20
8.9502
30
5.28
0
VERTEX
10
9.15042
20
8.9502
30
5.28
0
VERTEX
10
9.1532
20
8.9502
30
5.28
0
VERTEX
10
9.16849
20
8.97105
30
5.28
0
VERTEX
10
9.17545
20
8.98079
30
5.28
0
VERTEX
10
9.17684
20
8.98635
30
5.28
0
VERTEX
10
9.17684
20
8.98913
30
5.28
0
VERTEX
10
9.17962
20
8.99191
30
5.28
0
VERTEX
10
9.18101
20
8.99747
30
5.28
0
VERTEX
10
9.18101
20
9.00025
30
5.28
0
VERTEX
10
9.19074
20
9.0072
30
5.28
0
VERTEX
10
9.19769
20
9.02945
30
5.28
0
VERTEX
10
9.20187
20
9.0517
30
5.28
0
VERTEX
10
9.20187
20
9.07395
30
5.28
0
VERTEX
10
9.20187
20
9.07673
30
5.28
0
VERTEX
10
9.19908
20
9.07951
30
5.28
0
VERTEX
10
9.19908
20
9.08229
30
5.28
0
VERTEX
10
9.18935
20
9.09341
30
5.28
0
VERTEX
10
9.16989
20
9.11149
30
5.28
0
VERTEX
10
9.16432
20
9.11427
30
5.28
0
VERTEX
10
9.11983
20
9.12261
30
5.28
0
VERTEX
10
9.10871
20
9.124
30
5.28
0
VERTEX
10
9.06421
20
9.10454
30
5.28
0
VERTEX
10
9.06143
20
9.10454
30
5.28
0
VERTEX
10
9.04614
20
9.08368
30
5.28
0
VERTEX
10
9.04197
20
9.06143
30
5.28
0
VERTEX
10
9.04058
20
9.01694
30
5.28
0
VERTEX
10
9.04058
20
9.00581
30
5.28
0
SEQEND
0
POLYLINE
62
227
66
1
70
1
3
endoplasmic_reticulum
0
VERTEX
10
9.16298
20
9.15513
30
5.28
0
VERTEX
10
9.16635
20
9.15176
30
5.28
0
VERTEX
10
9.16971
20
9.14279
30
5.28
0
VERTEX
10
9.17196
20
9.14055
30
5.28
0
VERTEX
10
9.17196
20
9.1383
30
5.28
0
VERTEX
10
9.17644
20
9.13494
30
5.28
0
VERTEX
10
9.19439
20
9.13494
30
5.28
0
VERTEX
10
9.20337
20
9.1383
30
5.28
0
VERTEX
10
9.20449
20
9.15625
30
5.28
0
VERTEX
10
9.20449
20
9.15849
30
5.28
0
VERTEX
10
9.19776
20
9.16635
30
5.28
0
VERTEX
10
9.17981
20
9.16859
30
5.28
0
VERTEX
10
9.17532
20
9.16747
30
5.28
0
VERTEX
10
9.16747
20
9.15962
30
5.28
0
VERTEX
10
9.16298
20
9.15849
30
5.28
0
VERTEX
10
9.16298
20
9.15625
30
5.28
0
SEQEND
0
POLYLINE
62
227
66
1
70
1
3
endoplasmic_reticulum
0
VERTEX
10
8.95657
20
8.97564
30
5.28
0
VERTEX
10
8.96442
20
8.96891
30
5.28
0
VERTEX
10
8.9734
20
8.96554
30
5.28
0
VERTEX
10
8.98237
20
8.96554
30
5.28
0
VERTEX
10
8.99134
20
8.97003
30
5.28
0
VERTEX
10
8.99471
20
8.9734
30
5.28
0
VERTEX
10
8.99583
20
8.98237
30
5.28
0
VERTEX
10
8.99359
20
8.99134
30
5.28
0
VERTEX
10
8.98574
20
8.9992
30
5.28
0
VERTEX
10
8.97676
20
9.00481
30
5.28
0
VERTEX
10
8.96779
20
9.00368
30
5.28
0
VERTEX
10
8.95881
20
9.00032
30
5.28
0
VERTEX
10
8.95657
20
8.99134
30
5.28
0
VERTEX
10
8.95657
20
8.98237
30
5.28
0
VERTEX
10
8.95657
20
8.97788
30
5.28
0
VERTEX
10
8.95657
20
8.97676
30
5.28
0
SEQEND
0
POLYLINE
62
31
66
1
70
1
3
contour
0
VERTEX
10
8.83061
20
8.93771
30
5.28
0
VERTEX
10
8.83396
20
8.93101
30
5.28
0
VERTEX
10
8.84567
20
8.92097
30
5.28
0
VERTEX
10
8.85236
20
8.91428
30
5.28
0
VERTEX
10
8.85404
20
8.88751
30
5.28
0
VERTEX
10
8.85069
20
8.86073
30
5.28
0
VERTEX
10
8.85236
20
8.84734
30
5.28
0
VERTEX
10
8.85738
20
8.83396
30
5.28
0
VERTEX
10
8.85906
20
8.82726
30
5.28
0
VERTEX
10
8.87077
20
8.8189
30
5.28
0
VERTEX
10
8.89755
20
8.81053
30
5.28
0
VERTEX
10
9.00464
20
8.8122
30
5.28
0
VERTEX
10
9.01803
20
8.81555
30
5.28
0
VERTEX
10
9.04481
20
8.81555
30
5.28
0
VERTEX
10
9.07158
20
8.8122
30
5.28
0
VERTEX
10
9.08497
20
8.81388
30
5.28
0
VERTEX
10
9.09836
20
8.80886
30
5.28
0
VERTEX
10
9.12513
20
8.80718
30
5.28
0
VERTEX
10
9.15191
20
8.80886
30
5.28
0
VERTEX
10
9.16529
20
8.8122
30
5.28
0
VERTEX
10
9.17199
20
8.8122
30
5.28
0
VERTEX
10
9.19876
20
8.82224
30
5.28
0
VERTEX
10
9.20545
20
8.82392
30
5.28
0
VERTEX
10
9.21047
20
8.8373
30
5.28
0
VERTEX
10
9.21717
20
8.844
30
5.28
0
VERTEX
10
9.21884
20
8.85069
30
5.28
0
VERTEX
10
9.22888
20
8.86073
30
5.28
0
VERTEX
10
9.22888
20
8.86408
30
5.28
0
VERTEX
10
9.23558
20
8.87077
30
5.28
0
VERTEX
10
9.23725
20
8.88416
30
5.28
0
VERTEX
10
9.24227
20
8.89755
30
5.28
0
VERTEX
10
9.24394
20
8.92432
30
5.28
0
VERTEX
10
9.2406
20
8.9511
30
5.28
0
VERTEX
10
9.24394
20
8.97787
30
5.28
0
VERTEX
10
9.24562
20
8.99126
30
5.28
0
VERTEX
10
9.25064
20
9.00464
30
5.28
0
VERTEX
10
9.25231
20
9.01803
30
5.28
0
VERTEX
10
9.25566
20
9.02473
30
5.28
0
VERTEX
10
9.25566
20
9.03142
30
5.28
0
VERTEX
10
9.26068
20
9.04481
30
5.28
0
VERTEX
10
9.26402
20
9.0515
30
5.28
0
VERTEX
10
9.26402
20
9.06489
30
5.28
0
VERTEX
10
9.26737
20
9.07828
30
5.28
0
VERTEX
10
9.26737
20
9.09166
30
5.28
0
VERTEX
10
9.26068
20
9.11844
30
5.28
0
VERTEX
10
9.259
20
9.12513
30
5.28
0
VERTEX
10
9.25064
20
9.13684
30
5.28
0
VERTEX
10
9.24896
20
9.15023
30
5.28
0
VERTEX
10
9.24729
20
9.15693
30
5.28
0
VERTEX
10
9.24729
20
9.16027
30
5.28
0
VERTEX
10
9.24394
20
9.16362
30
5.28
0
VERTEX
10
9.24227
20
9.17031
30
5.28
0
VERTEX
10
9.24227
20
9.17366
30
5.28
0
VERTEX
10
9.23725
20
9.18035
30
5.28
0
VERTEX
10
9.23056
20
9.2339
30
5.28
0
VERTEX
10
9.22888
20
9.24729
30
5.28
0
VERTEX
10
9.22554
20
9.25398
30
5.28
0
VERTEX
10
9.22219
20
9.25566
30
5.28
0
VERTEX
10
9.22052
20
9.26235
30
5.28
0
VERTEX
10
9.21215
20
9.27072
30
5.28
0
VERTEX
10
9.20545
20
9.27072
30
5.28
0
VERTEX
10
9.19207
20
9.27741
30
5.28
0
VERTEX
10
9.18705
20
9.28411
30
5.28
0
VERTEX
10
9.18872
20
9.31088
30
5.28
0
VERTEX
10
9.18705
20
9.32427
30
5.28
0
VERTEX
10
9.18537
20
9.33096
30
5.28
0
VERTEX
10
9.18537
20
9.33431
30
5.28
0
VERTEX
10
9.17533
20
9.34602
30
5.28
0
VERTEX
10
9.17533
20
9.35272
30
5.28
0
VERTEX
10
9.17031
20
9.35941
30
5.28
0
VERTEX
10
9.16697
20
9.35941
30
5.28
0
VERTEX
10
9.16529
20
9.3728
30
5.28
0
VERTEX
10
9.16195
20
9.37949
30
5.28
0
VERTEX
10
9.15525
20
9.38451
30
5.28
0
VERTEX
10
9.1017
20
9.38953
30
5.28
0
VERTEX
10
9.04815
20
9.3912
30
5.28
0
VERTEX
10
9.03477
20
9.38618
30
5.28
0
VERTEX
10
9.00799
20
9.38786
30
5.28
0
VERTEX
10
8.98289
20
9.39957
30
5.28
0
VERTEX
10
8.97118
20
9.41128
30
5.28
0
VERTEX
10
8.96448
20
9.41128
30
5.28
0
VERTEX
10
8.93938
20
9.43639
30
5.28
0
VERTEX
10
8.93269
20
9.43304
30
5.28
0
VERTEX
10
8.92934
20
9.42969
30
5.28
0
VERTEX
10
8.92265
20
9.42802
30
5.28
0
VERTEX
10
8.91093
20
9.4163
30
5.28
0
VERTEX
10
8.90591
20
9.40292
30
5.28
0
VERTEX
10
8.90257
20
9.39622
30
5.28
0
VERTEX
10
8.90424
20
9.38284
30
5.28
0
VERTEX
10
8.90591
20
9.37614
30
5.28
0
VERTEX
10
8.90424
20
9.32259
30
5.28
0
VERTEX
10
8.90591
20
9.29582
30
5.28
0
VERTEX
10
8.90591
20
9.28913
30
5.28
0
VERTEX
10
8.90926
20
9.28243
30
5.28
0
VERTEX
10
8.91261
20
9.27908
30
5.28
0
VERTEX
10
8.91595
20
9.27908
30
5.28
0
VERTEX
10
8.92767
20
9.26737
30
5.28
0
VERTEX
10
8.98122
20
9.2657
30
5.28
0
VERTEX
10
9.00799
20
9.26235
30
5.28
0
VERTEX
10
9.01469
20
9.26235
30
5.28
0
VERTEX
10
9.02807
20
9.25733
30
5.28
0
VERTEX
10
9.03142
20
9.25733
30
5.28
0
VERTEX
10
9.03142
20
9.25398
30
5.28
0
VERTEX
10
9.04313
20
9.24562
30
5.28
0
VERTEX
10
9.04983
20
9.24227
30
5.28
0
VERTEX
10
9.05317
20
9.24227
30
5.28
0
VERTEX
10
9.05317
20
9.22888
30
5.28
0
VERTEX
10
9.05652
20
9.22219
30
5.28
0
VERTEX
10
9.05652
20
9.2088
30
5.28
0
VERTEX
10
9.05652
20
9.20211
30
5.28
0
VERTEX
10
9.05987
20
9.19541
30
5.28
0
VERTEX
10
9.05819
20
9.18872
30
5.28
0
VERTEX
10
9.05317
20
9.18537
30
5.28
0
VERTEX
10
9.04815
20
9.17868
30
5.28
0
VERTEX
10
9.04146
20
9.17701
30
5.28
0
VERTEX
10
9.03644
20
9.17199
30
5.28
0
VERTEX
10
9.03309
20
9.17199
30
5.28
0
VERTEX
10
9.0264
20
9.16697
30
5.28
0
VERTEX
10
9.01301
20
9.16529
30
5.28
0
VERTEX
10
8.98624
20
9.15358
30
5.28
0
VERTEX
10
8.97285
20
9.14521
30
5.28
0
VERTEX
10
8.96114
20
9.1335
30
5.28
0
VERTEX
10
8.95277
20
9.12011
30
5.28
0
VERTEX
10
8.94775
20
9.11342
30
5.28
0
VERTEX
10
8.94106
20
9.08664
30
5.28
0
VERTEX
10
8.93938
20
9.05987
30
5.28
0
VERTEX
10
8.93603
20
9.04648
30
5.28
0
VERTEX
10
8.92934
20
9.03309
30
5.28
0
VERTEX
10
8.91763
20
9.01971
30
5.28
0
VERTEX
10
8.91428
20
9.01301
30
5.28
0
VERTEX
10
8.90759
20
9.00799
30
5.28
0
VERTEX
10
8.8942
20
9.00464
30
5.28
0
VERTEX
10
8.88416
20
8.99293
30
5.28
0
VERTEX
10
8.85738
20
8.99126
30
5.28
0
VERTEX
10
8.85069
20
8.99126
30
5.28
0
VERTEX
10
8.84734
20
8.99126
30
5.28
0
VERTEX
10
8.844
20
8.98791
30
5.28
0
VERTEX
10
8.84065
20
8.98791
30
5.28
0
VERTEX
10
8.8373
20
8.98456
30
5.28
0
VERTEX
10
8.83228
20
8.95779
30
5.28
0
VERTEX
10
8.83061
20
8.9444
30
5.28
0
VERTEX
10
8.83061
20
8.93938
30
5.28
0
SEQEND
0
ENDSEC
0
EOF
