0
SECTION
2
ENTITIES
0
POLYLINE
62
31
66
1
70
1
3
contour
0
VERTEX
10
8.05414
20
9.71814
30
7.2
0
VERTEX
10
8.06399
20
9.67875
30
7.2
0
VERTEX
10
8.07876
20
9.65906
30
7.2
0
VERTEX
10
8.0886
20
9.65906
30
7.2
0
VERTEX
10
8.12799
20
9.58522
30
7.2
0
VERTEX
10
8.14768
20
9.54583
30
7.2
0
VERTEX
10
8.2166
20
9.4966
30
7.2
0
VERTEX
10
8.23629
20
9.49168
30
7.2
0
VERTEX
10
8.24614
20
9.48183
30
7.2
0
VERTEX
10
8.28553
20
9.47691
30
7.2
0
VERTEX
10
8.35445
20
9.44737
30
7.2
0
VERTEX
10
8.43322
20
9.44737
30
7.2
0
VERTEX
10
8.4726
20
9.44737
30
7.2
0
VERTEX
10
8.55137
20
9.46706
30
7.2
0
VERTEX
10
8.63014
20
9.47198
30
7.2
0
VERTEX
10
8.63999
20
9.47198
30
7.2
0
VERTEX
10
8.67445
20
9.4966
30
7.2
0
VERTEX
10
8.70399
20
9.53106
30
7.2
0
VERTEX
10
8.71383
20
9.53106
30
7.2
0
VERTEX
10
8.71876
20
9.57045
30
7.2
0
VERTEX
10
8.74829
20
9.60491
30
7.2
0
VERTEX
10
8.76799
20
9.61475
30
7.2
0
VERTEX
10
8.80245
20
9.65414
30
7.2
0
VERTEX
10
8.82214
20
9.69352
30
7.2
0
VERTEX
10
8.82214
20
9.70337
30
7.2
0
VERTEX
10
8.84183
20
9.72306
30
7.2
0
VERTEX
10
8.84676
20
9.74275
30
7.2
0
VERTEX
10
8.90091
20
9.82152
30
7.2
0
VERTEX
10
8.91075
20
9.84121
30
7.2
0
VERTEX
10
8.9206
20
9.85106
30
7.2
0
VERTEX
10
8.93045
20
9.85106
30
7.2
0
VERTEX
10
8.95014
20
9.86583
30
7.2
0
VERTEX
10
8.95999
20
9.88552
30
7.2
0
VERTEX
10
8.95999
20
9.92491
30
7.2
0
VERTEX
10
8.94522
20
9.95937
30
7.2
0
VERTEX
10
8.93045
20
9.97906
30
7.2
0
VERTEX
10
8.9206
20
9.98398
30
7.2
0
VERTEX
10
8.9206
20
9.99383
30
7.2
0
VERTEX
10
8.90583
20
10.0135
30
7.2
0
VERTEX
10
8.89599
20
10.0135
30
7.2
0
VERTEX
10
8.88614
20
10.0234
30
7.2
0
VERTEX
10
8.86645
20
10.0283
30
7.2
0
VERTEX
10
8.84676
20
10.0431
30
7.2
0
VERTEX
10
8.82706
20
10.048
30
7.2
0
VERTEX
10
8.80737
20
10.0628
30
7.2
0
VERTEX
10
8.76799
20
10.0775
30
7.2
0
VERTEX
10
8.45291
20
10.0874
30
7.2
0
VERTEX
10
8.29537
20
10.0824
30
7.2
0
VERTEX
10
8.25599
20
10.0824
30
7.2
0
VERTEX
10
8.23629
20
10.0775
30
7.2
0
VERTEX
10
8.22153
20
10.0381
30
7.2
0
VERTEX
10
8.18706
20
10.0037
30
7.2
0
VERTEX
10
8.16737
20
9.99875
30
7.2
0
VERTEX
10
8.12799
20
9.97414
30
7.2
0
VERTEX
10
8.10337
20
9.93968
30
7.2
0
VERTEX
10
8.0886
20
9.91998
30
7.2
0
VERTEX
10
8.07383
20
9.84121
30
7.2
0
VERTEX
10
8.06891
20
9.82152
30
7.2
0
VERTEX
10
8.05414
20
9.80183
30
7.2
0
VERTEX
10
8.05414
20
9.72306
30
7.2
0
SEQEND
0
POLYLINE
62
224
66
1
70
1
3
mitochondrion
0
VERTEX
10
8.21327
20
9.68156
30
7.2
0
VERTEX
10
8.21466
20
9.676
30
7.2
0
VERTEX
10
8.21744
20
9.67322
30
7.2
0
VERTEX
10
8.21883
20
9.6621
30
7.2
0
VERTEX
10
8.22022
20
9.65654
30
7.2
0
VERTEX
10
8.22439
20
9.65097
30
7.2
0
VERTEX
10
8.22578
20
9.64541
30
7.2
0
VERTEX
10
8.22995
20
9.63985
30
7.2
0
VERTEX
10
8.22995
20
9.63707
30
7.2
0
VERTEX
10
8.23691
20
9.62595
30
7.2
0
VERTEX
10
8.24247
20
9.62038
30
7.2
0
VERTEX
10
8.24803
20
9.60926
30
7.2
0
VERTEX
10
8.26611
20
9.5884
30
7.2
0
VERTEX
10
8.27723
20
9.58006
30
7.2
0
VERTEX
10
8.28835
20
9.5745
30
7.2
0
VERTEX
10
8.29391
20
9.57311
30
7.2
0
VERTEX
10
8.29809
20
9.56755
30
7.2
0
VERTEX
10
8.30921
20
9.5606
30
7.2
0
VERTEX
10
8.31477
20
9.55782
30
7.2
0
VERTEX
10
8.32311
20
9.54808
30
7.2
0
VERTEX
10
8.32868
20
9.54669
30
7.2
0
VERTEX
10
8.3398
20
9.53974
30
7.2
0
VERTEX
10
8.35092
20
9.53557
30
7.2
0
VERTEX
10
8.36205
20
9.53557
30
7.2
0
VERTEX
10
8.36761
20
9.53418
30
7.2
0
VERTEX
10
8.37039
20
9.5314
30
7.2
0
VERTEX
10
8.41488
20
9.5314
30
7.2
0
VERTEX
10
8.43713
20
9.5314
30
7.2
0
VERTEX
10
8.44825
20
9.5314
30
7.2
0
VERTEX
10
8.45381
20
9.53279
30
7.2
0
VERTEX
10
8.45938
20
9.53696
30
7.2
0
VERTEX
10
8.50387
20
9.54947
30
7.2
0
VERTEX
10
8.52612
20
9.55364
30
7.2
0
VERTEX
10
8.53168
20
9.55364
30
7.2
0
VERTEX
10
8.53724
20
9.55642
30
7.2
0
VERTEX
10
8.54002
20
9.55642
30
7.2
0
VERTEX
10
8.5428
20
9.55921
30
7.2
0
VERTEX
10
8.54558
20
9.55921
30
7.2
0
VERTEX
10
8.55671
20
9.56616
30
7.2
0
VERTEX
10
8.55949
20
9.56894
30
7.2
0
VERTEX
10
8.56227
20
9.56894
30
7.2
0
VERTEX
10
8.58312
20
9.58284
30
7.2
0
VERTEX
10
8.5859
20
9.58284
30
7.2
0
VERTEX
10
8.59703
20
9.5898
30
7.2
0
VERTEX
10
8.60259
20
9.59258
30
7.2
0
VERTEX
10
8.61371
20
9.60231
30
7.2
0
VERTEX
10
8.6151
20
9.60509
30
7.2
0
VERTEX
10
8.62623
20
9.60509
30
7.2
0
VERTEX
10
8.63179
20
9.60787
30
7.2
0
VERTEX
10
8.64291
20
9.6176
30
7.2
0
VERTEX
10
8.64569
20
9.62317
30
7.2
0
VERTEX
10
8.65682
20
9.6329
30
7.2
0
VERTEX
10
8.6735
20
9.65375
30
7.2
0
VERTEX
10
8.68045
20
9.66071
30
7.2
0
VERTEX
10
8.68184
20
9.66627
30
7.2
0
VERTEX
10
8.69019
20
9.67739
30
7.2
0
VERTEX
10
8.69436
20
9.68156
30
7.2
0
VERTEX
10
8.70131
20
9.70381
30
7.2
0
VERTEX
10
8.70409
20
9.71493
30
7.2
0
VERTEX
10
8.70548
20
9.7205
30
7.2
0
VERTEX
10
8.70965
20
9.72467
30
7.2
0
VERTEX
10
8.70965
20
9.73579
30
7.2
0
VERTEX
10
8.70965
20
9.73857
30
7.2
0
VERTEX
10
8.71382
20
9.74413
30
7.2
0
VERTEX
10
8.71382
20
9.76638
30
7.2
0
VERTEX
10
8.71521
20
9.7775
30
7.2
0
VERTEX
10
8.71243
20
9.79975
30
7.2
0
VERTEX
10
8.71243
20
9.81087
30
7.2
0
VERTEX
10
8.70965
20
9.81365
30
7.2
0
VERTEX
10
8.70965
20
9.82478
30
7.2
0
VERTEX
10
8.70687
20
9.8359
30
7.2
0
VERTEX
10
8.70131
20
9.84702
30
7.2
0
VERTEX
10
8.70131
20
9.85259
30
7.2
0
VERTEX
10
8.69158
20
9.86093
30
7.2
0
VERTEX
10
8.68463
20
9.86927
30
7.2
0
VERTEX
10
8.66377
20
9.88179
30
7.2
0
VERTEX
10
8.66099
20
9.88457
30
7.2
0
VERTEX
10
8.65821
20
9.88457
30
7.2
0
VERTEX
10
8.64847
20
9.8943
30
7.2
0
VERTEX
10
8.63735
20
9.90125
30
7.2
0
VERTEX
10
8.63457
20
9.90125
30
7.2
0
VERTEX
10
8.63179
20
9.90403
30
7.2
0
VERTEX
10
8.60954
20
9.91098
30
7.2
0
VERTEX
10
8.5873
20
9.91237
30
7.2
0
VERTEX
10
8.56505
20
9.91655
30
7.2
0
VERTEX
10
8.52055
20
9.91933
30
7.2
0
VERTEX
10
8.50943
20
9.91933
30
7.2
0
VERTEX
10
8.49831
20
9.91655
30
7.2
0
VERTEX
10
8.45381
20
9.92072
30
7.2
0
VERTEX
10
8.43157
20
9.92072
30
7.2
0
VERTEX
10
8.42044
20
9.91655
30
7.2
0
VERTEX
10
8.3982
20
9.91377
30
7.2
0
VERTEX
10
8.38707
20
9.91377
30
7.2
0
VERTEX
10
8.38429
20
9.91377
30
7.2
0
VERTEX
10
8.37873
20
9.90959
30
7.2
0
VERTEX
10
8.36761
20
9.9082
30
7.2
0
VERTEX
10
8.35648
20
9.90125
30
7.2
0
VERTEX
10
8.34536
20
9.89152
30
7.2
0
VERTEX
10
8.33424
20
9.89152
30
7.2
0
VERTEX
10
8.31199
20
9.88596
30
7.2
0
VERTEX
10
8.30087
20
9.88179
30
7.2
0
VERTEX
10
8.25915
20
9.8512
30
7.2
0
VERTEX
10
8.24942
20
9.84007
30
7.2
0
VERTEX
10
8.24386
20
9.83312
30
7.2
0
VERTEX
10
8.23969
20
9.822
30
7.2
0
VERTEX
10
8.2383
20
9.81644
30
7.2
0
VERTEX
10
8.23413
20
9.81226
30
7.2
0
VERTEX
10
8.23274
20
9.8067
30
7.2
0
VERTEX
10
8.22578
20
9.79558
30
7.2
0
VERTEX
10
8.223
20
9.78446
30
7.2
0
VERTEX
10
8.22161
20
9.77889
30
7.2
0
VERTEX
10
8.21883
20
9.7775
30
7.2
0
VERTEX
10
8.21883
20
9.77194
30
7.2
0
VERTEX
10
8.21605
20
9.76638
30
7.2
0
VERTEX
10
8.21327
20
9.72189
30
7.2
0
VERTEX
10
8.21327
20
9.69964
30
7.2
0
VERTEX
10
8.21327
20
9.68852
30
7.2
0
VERTEX
10
8.21327
20
9.68295
30
7.2
0
SEQEND
0
POLYLINE
62
227
66
1
70
1
3
endoplasmic_reticulum
0
VERTEX
10
8.86146
20
9.88711
30
7.2
0
VERTEX
10
8.86325
20
9.88352
30
7.2
0
VERTEX
10
8.87043
20
9.87904
30
7.2
0
VERTEX
10
8.87401
20
9.87546
30
7.2
0
VERTEX
10
8.88119
20
9.87277
30
7.2
0
VERTEX
10
8.88477
20
9.87097
30
7.2
0
VERTEX
10
8.89912
20
9.87008
30
7.2
0
VERTEX
10
8.91346
20
9.87187
30
7.2
0
VERTEX
10
8.92063
20
9.87366
30
7.2
0
VERTEX
10
8.92243
20
9.87546
30
7.2
0
VERTEX
10
8.9296
20
9.87725
30
7.2
0
VERTEX
10
8.93588
20
9.88352
30
7.2
0
VERTEX
10
8.93767
20
9.88711
30
7.2
0
VERTEX
10
8.93946
20
9.88801
30
7.2
0
VERTEX
10
8.93856
20
9.90235
30
7.2
0
VERTEX
10
8.93588
20
9.9167
30
7.2
0
VERTEX
10
8.93408
20
9.92028
30
7.2
0
VERTEX
10
8.93229
20
9.92208
30
7.2
0
VERTEX
10
8.93229
20
9.92387
30
7.2
0
VERTEX
10
8.92512
20
9.92925
30
7.2
0
VERTEX
10
8.91884
20
9.93283
30
7.2
0
VERTEX
10
8.9045
20
9.93463
30
7.2
0
VERTEX
10
8.89732
20
9.93463
30
7.2
0
VERTEX
10
8.89015
20
9.93283
30
7.2
0
VERTEX
10
8.88836
20
9.93104
30
7.2
0
VERTEX
10
8.88119
20
9.92835
30
7.2
0
VERTEX
10
8.87939
20
9.92835
30
7.2
0
VERTEX
10
8.87581
20
9.92477
30
7.2
0
VERTEX
10
8.87401
20
9.92118
30
7.2
0
VERTEX
10
8.87043
20
9.92118
30
7.2
0
VERTEX
10
8.86863
20
9.92118
30
7.2
0
VERTEX
10
8.86415
20
9.91401
30
7.2
0
VERTEX
10
8.86325
20
9.89966
30
7.2
0
VERTEX
10
8.86236
20
9.89249
30
7.2
0
VERTEX
10
8.86146
20
9.8889
30
7.2
0
VERTEX
10
8.86146
20
9.88801
30
7.2
0
SEQEND
0
POLYLINE
62
227
66
1
70
1
3
endoplasmic_reticulum
0
VERTEX
10
8.49567
20
9.99021
30
7.2
0
VERTEX
10
8.49836
20
9.98663
30
7.2
0
VERTEX
10
8.49926
20
9.98483
30
7.2
0
VERTEX
10
8.5136
20
9.98214
30
7.2
0
VERTEX
10
8.52795
20
9.98125
30
7.2
0
VERTEX
10
8.54229
20
9.98214
30
7.2
0
VERTEX
10
8.54946
20
9.98304
30
7.2
0
VERTEX
10
8.55305
20
9.98304
30
7.2
0
VERTEX
10
8.55484
20
9.98214
30
7.2
0
VERTEX
10
8.55843
20
9.98483
30
7.2
0
VERTEX
10
8.56112
20
9.99111
30
7.2
0
VERTEX
10
8.56112
20
9.99828
30
7.2
0
VERTEX
10
8.55933
20
10.0055
30
7.2
0
VERTEX
10
8.55843
20
10.009
30
7.2
0
VERTEX
10
8.55664
20
10.0099
30
7.2
0
VERTEX
10
8.55664
20
10.0117
30
7.2
0
VERTEX
10
8.54946
20
10.018
30
7.2
0
VERTEX
10
8.54229
20
10.0225
30
7.2
0
VERTEX
10
8.5396
20
10.0261
30
7.2
0
VERTEX
10
8.53602
20
10.027
30
7.2
0
VERTEX
10
8.53333
20
10.0297
30
7.2
0
VERTEX
10
8.52974
20
10.0306
30
7.2
0
VERTEX
10
8.52615
20
10.0332
30
7.2
0
VERTEX
10
8.51181
20
10.0341
30
7.2
0
VERTEX
10
8.51002
20
10.0341
30
7.2
0
VERTEX
10
8.50643
20
10.027
30
7.2
0
VERTEX
10
8.50374
20
10.0243
30
7.2
0
VERTEX
10
8.50284
20
10.0225
30
7.2
0
VERTEX
10
8.50105
20
10.0225
30
7.2
0
VERTEX
10
8.49746
20
10.0189
30
7.2
0
VERTEX
10
8.49567
20
10.0117
30
7.2
0
VERTEX
10
8.49567
20
9.99739
30
7.2
0
VERTEX
10
8.49567
20
9.99111
30
7.2
0
SEQEND
0
POLYLINE
62
227
66
1
70
1
3
endoplasmic_reticulum
0
VERTEX
10
8.28229
20
9.94001
30
7.2
0
VERTEX
10
8.28409
20
9.93821
30
7.2
0
VERTEX
10
8.28498
20
9.93463
30
7.2
0
VERTEX
10
8.29036
20
9.92925
30
7.2
0
VERTEX
10
8.30471
20
9.93014
30
7.2
0
VERTEX
10
8.31188
20
9.93194
30
7.2
0
VERTEX
10
8.31547
20
9.93283
30
7.2
0
VERTEX
10
8.32712
20
9.94539
30
7.2
0
VERTEX
10
8.33071
20
9.94628
30
7.2
0
VERTEX
10
8.33609
20
9.95256
30
7.2
0
VERTEX
10
8.33878
20
9.95883
30
7.2
0
VERTEX
10
8.33878
20
9.96601
30
7.2
0
VERTEX
10
8.33788
20
9.96959
30
7.2
0
VERTEX
10
8.32533
20
9.98125
30
7.2
0
VERTEX
10
8.32174
20
9.98394
30
7.2
0
VERTEX
10
8.31995
20
9.98483
30
7.2
0
VERTEX
10
8.3056
20
9.98035
30
7.2
0
VERTEX
10
8.30202
20
9.97856
30
7.2
0
VERTEX
10
8.30022
20
9.97677
30
7.2
0
VERTEX
10
8.29664
20
9.97587
30
7.2
0
VERTEX
10
8.29395
20
9.97228
30
7.2
0
VERTEX
10
8.29215
20
9.97139
30
7.2
0
VERTEX
10
8.28947
20
9.96421
30
7.2
0
VERTEX
10
8.28767
20
9.96063
30
7.2
0
VERTEX
10
8.28409
20
9.95794
30
7.2
0
VERTEX
10
8.28229
20
9.95614
30
7.2
0
VERTEX
10
8.28229
20
9.9418
30
7.2
0
VERTEX
10
8.28229
20
9.9409
30
7.2
0
SEQEND
0
POLYLINE
62
31
66
1
70
1
3
contour
0
VERTEX
10
7.11504
20
9.80665
30
7.2
0
VERTEX
10
7.12095
20
9.78299
30
7.2
0
VERTEX
10
7.12835
20
9.77116
30
7.2
0
VERTEX
10
7.1313
20
9.7682
30
7.2
0
VERTEX
10
7.13278
20
9.76228
30
7.2
0
VERTEX
10
7.14018
20
9.75193
30
7.2
0
VERTEX
10
7.14461
20
9.74602
30
7.2
0
VERTEX
10
7.14609
20
9.7401
30
7.2
0
VERTEX
10
7.16088
20
9.7194
30
7.2
0
VERTEX
10
7.16088
20
9.71644
30
7.2
0
VERTEX
10
7.17567
20
9.69425
30
7.2
0
VERTEX
10
7.18307
20
9.68242
30
7.2
0
VERTEX
10
7.18602
20
9.67651
30
7.2
0
VERTEX
10
7.19194
20
9.67059
30
7.2
0
VERTEX
10
7.19342
20
9.66468
30
7.2
0
VERTEX
10
7.19933
20
9.65876
30
7.2
0
VERTEX
10
7.20081
20
9.65285
30
7.2
0
VERTEX
10
7.20377
20
9.65137
30
7.2
0
VERTEX
10
7.21116
20
9.6277
30
7.2
0
VERTEX
10
7.2156
20
9.62327
30
7.2
0
VERTEX
10
7.2156
20
9.62031
30
7.2
0
VERTEX
10
7.22004
20
9.61439
30
7.2
0
VERTEX
10
7.223
20
9.61144
30
7.2
0
VERTEX
10
7.22595
20
9.5996
30
7.2
0
VERTEX
10
7.22891
20
9.59813
30
7.2
0
VERTEX
10
7.23187
20
9.58629
30
7.2
0
VERTEX
10
7.23335
20
9.58038
30
7.2
0
VERTEX
10
7.23631
20
9.57742
30
7.2
0
VERTEX
10
7.23779
20
9.57151
30
7.2
0
VERTEX
10
7.23779
20
9.56855
30
7.2
0
VERTEX
10
7.24074
20
9.56559
30
7.2
0
VERTEX
10
7.24074
20
9.56263
30
7.2
0
VERTEX
10
7.2437
20
9.55967
30
7.2
0
VERTEX
10
7.24666
20
9.54784
30
7.2
0
VERTEX
10
7.24962
20
9.54193
30
7.2
0
VERTEX
10
7.25257
20
9.51826
30
7.2
0
VERTEX
10
7.25405
20
9.47094
30
7.2
0
VERTEX
10
7.25849
20
9.44728
30
7.2
0
VERTEX
10
7.26588
20
9.42361
30
7.2
0
VERTEX
10
7.26884
20
9.41178
30
7.2
0
VERTEX
10
7.27032
20
9.40587
30
7.2
0
VERTEX
10
7.27328
20
9.40291
30
7.2
0
VERTEX
10
7.27328
20
9.39699
30
7.2
0
VERTEX
10
7.28659
20
9.37333
30
7.2
0
VERTEX
10
7.28807
20
9.36742
30
7.2
0
VERTEX
10
7.29694
20
9.35558
30
7.2
0
VERTEX
10
7.30729
20
9.33192
30
7.2
0
VERTEX
10
7.32356
20
9.30826
30
7.2
0
VERTEX
10
7.33096
20
9.29791
30
7.2
0
VERTEX
10
7.35314
20
9.28312
30
7.2
0
VERTEX
10
7.3561
20
9.28164
30
7.2
0
VERTEX
10
7.36941
20
9.30382
30
7.2
0
VERTEX
10
7.38568
20
9.32748
30
7.2
0
VERTEX
10
7.39011
20
9.3334
30
7.2
0
VERTEX
10
7.39011
20
9.33636
30
7.2
0
VERTEX
10
7.39603
20
9.34227
30
7.2
0
VERTEX
10
7.40934
20
9.36594
30
7.2
0
VERTEX
10
7.41673
20
9.37333
30
7.2
0
VERTEX
10
7.41821
20
9.37925
30
7.2
0
VERTEX
10
7.42709
20
9.38812
30
7.2
0
VERTEX
10
7.43892
20
9.39847
30
7.2
0
VERTEX
10
7.44779
20
9.40883
30
7.2
0
VERTEX
10
7.45223
20
9.41474
30
7.2
0
VERTEX
10
7.45371
20
9.4177
30
7.2
0
VERTEX
10
7.45666
20
9.4177
30
7.2
0
VERTEX
10
7.46406
20
9.42509
30
7.2
0
VERTEX
10
7.46406
20
9.43101
30
7.2
0
VERTEX
10
7.46702
20
9.43692
30
7.2
0
VERTEX
10
7.46997
20
9.43988
30
7.2
0
VERTEX
10
7.46997
20
9.45171
30
7.2
0
VERTEX
10
7.47441
20
9.46354
30
7.2
0
VERTEX
10
7.47737
20
9.46946
30
7.2
0
VERTEX
10
7.48772
20
9.48129
30
7.2
0
VERTEX
10
7.4892
20
9.48721
30
7.2
0
VERTEX
10
7.49216
20
9.49017
30
7.2
0
VERTEX
10
7.49512
20
9.502
30
7.2
0
VERTEX
10
7.49512
20
9.52566
30
7.2
0
VERTEX
10
7.49216
20
9.54932
30
7.2
0
VERTEX
10
7.49216
20
9.57298
30
7.2
0
VERTEX
10
7.49216
20
9.5789
30
7.2
0
VERTEX
10
7.49068
20
9.58186
30
7.2
0
VERTEX
10
7.49512
20
9.59369
30
7.2
0
VERTEX
10
7.49659
20
9.61735
30
7.2
0
VERTEX
10
7.50103
20
9.62327
30
7.2
0
VERTEX
10
7.50399
20
9.6351
30
7.2
0
VERTEX
10
7.50547
20
9.65876
30
7.2
0
VERTEX
10
7.51138
20
9.68242
30
7.2
0
VERTEX
10
7.52174
20
9.70461
30
7.2
0
VERTEX
10
7.52765
20
9.71644
30
7.2
0
VERTEX
10
7.52765
20
9.7194
30
7.2
0
VERTEX
10
7.53061
20
9.72235
30
7.2
0
VERTEX
10
7.53357
20
9.73419
30
7.2
0
VERTEX
10
7.54392
20
9.74454
30
7.2
0
VERTEX
10
7.54392
20
9.7475
30
7.2
0
VERTEX
10
7.56462
20
9.76672
30
7.2
0
VERTEX
10
7.58533
20
9.7889
30
7.2
0
VERTEX
10
7.58977
20
9.79334
30
7.2
0
VERTEX
10
7.59272
20
9.79482
30
7.2
0
VERTEX
10
7.5942
20
9.80074
30
7.2
0
VERTEX
10
7.5942
20
9.80369
30
7.2
0
VERTEX
10
7.60603
20
9.81257
30
7.2
0
VERTEX
10
7.61047
20
9.817
30
7.2
0
VERTEX
10
7.61195
20
9.82292
30
7.2
0
VERTEX
10
7.62378
20
9.83327
30
7.2
0
VERTEX
10
7.62526
20
9.83623
30
7.2
0
VERTEX
10
7.63118
20
9.83771
30
7.2
0
VERTEX
10
7.64153
20
9.8451
30
7.2
0
VERTEX
10
7.65336
20
9.84806
30
7.2
0
VERTEX
10
7.67702
20
9.86137
30
7.2
0
VERTEX
10
7.68885
20
9.86729
30
7.2
0
VERTEX
10
7.69181
20
9.86729
30
7.2
0
VERTEX
10
7.69773
20
9.87172
30
7.2
0
VERTEX
10
7.70956
20
9.87616
30
7.2
0
VERTEX
10
7.72139
20
9.87764
30
7.2
0
VERTEX
10
7.7273
20
9.88208
30
7.2
0
VERTEX
10
7.75097
20
9.89095
30
7.2
0
VERTEX
10
7.75688
20
9.89095
30
7.2
0
VERTEX
10
7.75984
20
9.89391
30
7.2
0
VERTEX
10
7.76576
20
9.89539
30
7.2
0
VERTEX
10
7.77759
20
9.90426
30
7.2
0
VERTEX
10
7.78202
20
9.91609
30
7.2
0
VERTEX
10
7.77907
20
9.92201
30
7.2
0
VERTEX
10
7.77907
20
9.92792
30
7.2
0
VERTEX
10
7.77463
20
9.93384
30
7.2
0
VERTEX
10
7.77315
20
9.93975
30
7.2
0
VERTEX
10
7.76576
20
9.95158
30
7.2
0
VERTEX
10
7.76132
20
9.96342
30
7.2
0
VERTEX
10
7.75245
20
9.97377
30
7.2
0
VERTEX
10
7.75097
20
9.97968
30
7.2
0
VERTEX
10
7.74061
20
9.99152
30
7.2
0
VERTEX
10
7.74061
20
9.99447
30
7.2
0
VERTEX
10
7.73618
20
9.99891
30
7.2
0
VERTEX
10
7.73174
20
10.0107
30
7.2
0
VERTEX
10
7.73026
20
10.0167
30
7.2
0
VERTEX
10
7.71991
20
10.0255
30
7.2
0
VERTEX
10
7.69625
20
10.0314
30
7.2
0
VERTEX
10
7.68442
20
10.0344
30
7.2
0
VERTEX
10
7.68146
20
10.0374
30
7.2
0
VERTEX
10
7.67554
20
10.0388
30
7.2
0
VERTEX
10
7.65336
20
10.0595
30
7.2
0
VERTEX
10
7.64301
20
10.0714
30
7.2
0
VERTEX
10
7.63857
20
10.0758
30
7.2
0
VERTEX
10
7.63857
20
10.0788
30
7.2
0
VERTEX
10
7.63413
20
10.0832
30
7.2
0
VERTEX
10
7.63265
20
10.0891
30
7.2
0
VERTEX
10
7.61343
20
10.1083
30
7.2
0
VERTEX
10
7.60308
20
10.1172
30
7.2
0
VERTEX
10
7.59864
20
10.1231
30
7.2
0
VERTEX
10
7.59568
20
10.1261
30
7.2
0
VERTEX
10
7.59272
20
10.1261
30
7.2
0
VERTEX
10
7.57646
20
10.1453
30
7.2
0
VERTEX
10
7.57054
20
10.1468
30
7.2
0
VERTEX
10
7.56019
20
10.1572
30
7.2
0
VERTEX
10
7.54984
20
10.1645
30
7.2
0
VERTEX
10
7.54392
20
10.1705
30
7.2
0
VERTEX
10
7.54096
20
10.1734
30
7.2
0
VERTEX
10
7.52913
20
10.1779
30
7.2
0
VERTEX
10
7.50695
20
10.1941
30
7.2
0
VERTEX
10
7.50103
20
10.1941
30
7.2
0
VERTEX
10
7.49955
20
10.1971
30
7.2
0
VERTEX
10
7.48772
20
10.2015
30
7.2
0
VERTEX
10
7.48181
20
10.2045
30
7.2
0
VERTEX
10
7.43448
20
10.203
30
7.2
0
VERTEX
10
7.42265
20
10.2015
30
7.2
0
VERTEX
10
7.41673
20
10.203
30
7.2
0
VERTEX
10
7.4049
20
10.1926
30
7.2
0
VERTEX
10
7.39899
20
10.1867
30
7.2
0
VERTEX
10
7.39751
20
10.1749
30
7.2
0
VERTEX
10
7.39455
20
10.169
30
7.2
0
VERTEX
10
7.39159
20
10.1217
30
7.2
0
VERTEX
10
7.38716
20
10.098
30
7.2
0
VERTEX
10
7.38568
20
10.0743
30
7.2
0
VERTEX
10
7.38568
20
10.0625
30
7.2
0
VERTEX
10
7.38568
20
10.0566
30
7.2
0
VERTEX
10
7.38124
20
10.0507
30
7.2
0
VERTEX
10
7.38124
20
10.0477
30
7.2
0
VERTEX
10
7.37828
20
10.0448
30
7.2
0
VERTEX
10
7.37237
20
10.0211
30
7.2
0
VERTEX
10
7.37089
20
10.0093
30
7.2
0
VERTEX
10
7.36497
20
9.99743
30
7.2
0
VERTEX
10
7.36497
20
9.99447
30
7.2
0
VERTEX
10
7.35906
20
9.98856
30
7.2
0
VERTEX
10
7.3561
20
9.98264
30
7.2
0
VERTEX
10
7.34575
20
9.97229
30
7.2
0
VERTEX
10
7.34131
20
9.96637
30
7.2
0
VERTEX
10
7.33835
20
9.96637
30
7.2
0
VERTEX
10
7.33244
20
9.95898
30
7.2
0
VERTEX
10
7.33244
20
9.95306
30
7.2
0
VERTEX
10
7.3206
20
9.94567
30
7.2
0
VERTEX
10
7.29694
20
9.92496
30
7.2
0
VERTEX
10
7.28659
20
9.91757
30
7.2
0
VERTEX
10
7.28067
20
9.91313
30
7.2
0
VERTEX
10
7.27772
20
9.91313
30
7.2
0
VERTEX
10
7.25553
20
9.89391
30
7.2
0
VERTEX
10
7.24962
20
9.89243
30
7.2
0
VERTEX
10
7.23779
20
9.88208
30
7.2
0
VERTEX
10
7.23187
20
9.87912
30
7.2
0
VERTEX
10
7.23335
20
9.8732
30
7.2
0
VERTEX
10
7.23039
20
9.8732
30
7.2
0
VERTEX
10
7.22152
20
9.86433
30
7.2
0
VERTEX
10
7.21708
20
9.85989
30
7.2
0
VERTEX
10
7.21708
20
9.85693
30
7.2
0
VERTEX
10
7.21116
20
9.8525
30
7.2
0
VERTEX
10
7.20821
20
9.8525
30
7.2
0
VERTEX
10
7.19638
20
9.84362
30
7.2
0
VERTEX
10
7.18454
20
9.83919
30
7.2
0
VERTEX
10
7.17863
20
9.83475
30
7.2
0
VERTEX
10
7.17271
20
9.83475
30
7.2
0
VERTEX
10
7.1668
20
9.83179
30
7.2
0
VERTEX
10
7.14314
20
9.83031
30
7.2
0
VERTEX
10
7.1313
20
9.83031
30
7.2
0
VERTEX
10
7.12539
20
9.83031
30
7.2
0
VERTEX
10
7.11504
20
9.81848
30
7.2
0
VERTEX
10
7.11504
20
9.80813
30
7.2
0
SEQEND
0
POLYLINE
62
236
66
1
70
1
3
postsynaptic_density
0
VERTEX
10
7.09586
20
9.70436
30
7.2
0
VERTEX
10
7.15058
20
9.50979
30
7.2
0
VERTEX
10
7.1597
20
9.48546
30
7.2
0
VERTEX
10
7.17794
20
9.46418
30
7.2
0
VERTEX
10
7.18098
20
9.45202
30
7.2
0
VERTEX
10
7.1901
20
9.43986
30
7.2
0
VERTEX
10
7.1901
20
9.43378
30
7.2
0
VERTEX
10
7.20226
20
9.42162
30
7.2
0
VERTEX
10
7.22355
20
9.40642
30
7.2
0
VERTEX
10
7.23571
20
9.40642
30
7.2
0
VERTEX
10
7.24179
20
9.40642
30
7.2
0
VERTEX
10
7.24787
20
9.4125
30
7.2
0
VERTEX
10
7.26003
20
9.4125
30
7.2
0
VERTEX
10
7.28131
20
9.4277
30
7.2
0
VERTEX
10
7.28739
20
9.45202
30
7.2
0
VERTEX
10
7.31171
20
9.47634
30
7.2
0
VERTEX
10
7.34211
20
9.52195
30
7.2
0
VERTEX
10
7.35123
20
9.54627
30
7.2
0
VERTEX
10
7.35123
20
9.59491
30
7.2
0
VERTEX
10
7.35123
20
9.61923
30
7.2
0
VERTEX
10
7.33299
20
9.64052
30
7.2
0
VERTEX
10
7.32995
20
9.65268
30
7.2
0
VERTEX
10
7.32083
20
9.66484
30
7.2
0
VERTEX
10
7.32083
20
9.67092
30
7.2
0
VERTEX
10
7.28739
20
9.71956
30
7.2
0
VERTEX
10
7.27523
20
9.74084
30
7.2
0
VERTEX
10
7.27523
20
9.74692
30
7.2
0
VERTEX
10
7.26915
20
9.753
30
7.2
0
VERTEX
10
7.24787
20
9.76212
30
7.2
0
VERTEX
10
7.19922
20
9.75908
30
7.2
0
VERTEX
10
7.1749
20
9.753
30
7.2
0
VERTEX
10
7.16274
20
9.74996
30
7.2
0
VERTEX
10
7.14146
20
9.73476
30
7.2
0
VERTEX
10
7.11714
20
9.71348
30
7.2
0
VERTEX
10
7.09586
20
9.7074
30
7.2
0
SEQEND
0
ENDSEC
0
EOF
