0
SECTION
2
ENTITIES
0
POLYLINE
62
31
66
1
70
1
3
contour
0
VERTEX
10
8.82737
20
8.86063
30
5.2
0
VERTEX
10
8.8318
20
8.85619
30
5.2
0
VERTEX
10
8.8318
20
8.85176
30
5.2
0
VERTEX
10
8.83845
20
8.84289
30
5.2
0
VERTEX
10
8.83845
20
8.83845
30
5.2
0
VERTEX
10
8.85619
20
8.82737
30
5.2
0
VERTEX
10
8.87393
20
8.82515
30
5.2
0
VERTEX
10
8.89167
20
8.81185
30
5.2
0
VERTEX
10
8.89389
20
8.80741
30
5.2
0
VERTEX
10
8.91163
20
8.80298
30
5.2
0
VERTEX
10
8.91606
20
8.79854
30
5.2
0
VERTEX
10
8.95154
20
8.78745
30
5.2
0
VERTEX
10
8.95597
20
8.78302
30
5.2
0
VERTEX
10
8.96484
20
8.78302
30
5.2
0
VERTEX
10
8.98258
20
8.77637
30
5.2
0
VERTEX
10
8.99145
20
8.77193
30
5.2
0
VERTEX
10
9.00919
20
8.77193
30
5.2
0
VERTEX
10
9.07793
20
8.78524
30
5.2
0
VERTEX
10
9.0868
20
8.78745
30
5.2
0
VERTEX
10
9.09123
20
8.78745
30
5.2
0
VERTEX
10
9.09567
20
8.79189
30
5.2
0
VERTEX
10
9.16662
20
8.79854
30
5.2
0
VERTEX
10
9.18436
20
8.79854
30
5.2
0
VERTEX
10
9.19323
20
8.80076
30
5.2
0
VERTEX
10
9.19989
20
8.80741
30
5.2
0
VERTEX
10
9.21762
20
8.80963
30
5.2
0
VERTEX
10
9.22649
20
8.81406
30
5.2
0
VERTEX
10
9.23315
20
8.82293
30
5.2
0
VERTEX
10
9.24202
20
8.82737
30
5.2
0
VERTEX
10
9.2531
20
8.84511
30
5.2
0
VERTEX
10
9.26419
20
8.88058
30
5.2
0
VERTEX
10
9.26419
20
8.88945
30
5.2
0
VERTEX
10
9.27084
20
8.89832
30
5.2
0
VERTEX
10
9.27306
20
8.90719
30
5.2
0
VERTEX
10
9.27306
20
8.91163
30
5.2
0
VERTEX
10
9.28193
20
8.9205
30
5.2
0
VERTEX
10
9.28193
20
8.95597
30
5.2
0
VERTEX
10
9.28415
20
8.96484
30
5.2
0
VERTEX
10
9.28193
20
8.98258
30
5.2
0
VERTEX
10
9.28415
20
9.00032
30
5.2
0
VERTEX
10
9.29523
20
9.0358
30
5.2
0
VERTEX
10
9.30188
20
9.07128
30
5.2
0
VERTEX
10
9.30188
20
9.10676
30
5.2
0
VERTEX
10
9.29967
20
9.12449
30
5.2
0
VERTEX
10
9.29745
20
9.13336
30
5.2
0
VERTEX
10
9.27971
20
9.14889
30
5.2
0
VERTEX
10
9.26197
20
9.15997
30
5.2
0
VERTEX
10
9.24423
20
9.16219
30
5.2
0
VERTEX
10
9.20876
20
9.15554
30
5.2
0
VERTEX
10
9.19989
20
9.1511
30
5.2
0
VERTEX
10
9.19545
20
9.14667
30
5.2
0
VERTEX
10
9.17771
20
9.14223
30
5.2
0
VERTEX
10
9.16884
20
9.14223
30
5.2
0
VERTEX
10
9.1511
20
9.13558
30
5.2
0
VERTEX
10
9.13336
20
9.12449
30
5.2
0
VERTEX
10
9.12449
20
9.12006
30
5.2
0
VERTEX
10
9.08902
20
9.12228
30
5.2
0
VERTEX
10
9.07128
20
9.13115
30
5.2
0
VERTEX
10
9.06241
20
9.13336
30
5.2
0
VERTEX
10
9.04467
20
9.12893
30
5.2
0
VERTEX
10
9.0358
20
9.12006
30
5.2
0
VERTEX
10
9.03137
20
9.12006
30
5.2
0
VERTEX
10
8.9981
20
9.09345
30
5.2
0
VERTEX
10
8.98258
20
9.08236
30
5.2
0
VERTEX
10
8.97815
20
9.08015
30
5.2
0
VERTEX
10
8.97593
20
9.07128
30
5.2
0
VERTEX
10
8.97593
20
9.06684
30
5.2
0
VERTEX
10
8.96263
20
9.05132
30
5.2
0
VERTEX
10
8.96041
20
9.04689
30
5.2
0
VERTEX
10
8.95597
20
9.04689
30
5.2
0
VERTEX
10
8.90719
20
8.98258
30
5.2
0
VERTEX
10
8.88058
20
8.95154
30
5.2
0
VERTEX
10
8.8695
20
8.93602
30
5.2
0
VERTEX
10
8.85176
20
8.92493
30
5.2
0
VERTEX
10
8.84067
20
8.90941
30
5.2
0
VERTEX
10
8.83402
20
8.90054
30
5.2
0
VERTEX
10
8.82737
20
8.86506
30
5.2
0
VERTEX
10
8.82737
20
8.86284
30
5.2
0
SEQEND
0
POLYLINE
62
31
66
1
70
1
3
contour
0
VERTEX
10
8.92271
20
9.36619
30
5.2
0
VERTEX
10
8.9338
20
9.29523
30
5.2
0
VERTEX
10
8.93602
20
9.28636
30
5.2
0
VERTEX
10
8.9471
20
9.27084
30
5.2
0
VERTEX
10
8.96484
20
9.25975
30
5.2
0
VERTEX
10
9.00032
20
9.25754
30
5.2
0
VERTEX
10
9.0358
20
9.26197
30
5.2
0
VERTEX
10
9.04023
20
9.26197
30
5.2
0
VERTEX
10
9.05576
20
9.27528
30
5.2
0
VERTEX
10
9.06463
20
9.27971
30
5.2
0
VERTEX
10
9.06906
20
9.27971
30
5.2
0
VERTEX
10
9.0868
20
9.2908
30
5.2
0
VERTEX
10
9.09567
20
9.29523
30
5.2
0
VERTEX
10
9.10232
20
9.3041
30
5.2
0
VERTEX
10
9.10676
20
9.30632
30
5.2
0
VERTEX
10
9.10897
20
9.31519
30
5.2
0
VERTEX
10
9.10897
20
9.31962
30
5.2
0
VERTEX
10
9.11563
20
9.32628
30
5.2
0
VERTEX
10
9.11563
20
9.34401
30
5.2
0
VERTEX
10
9.11563
20
9.35288
30
5.2
0
VERTEX
10
9.11563
20
9.35732
30
5.2
0
VERTEX
10
9.10232
20
9.37284
30
5.2
0
VERTEX
10
9.10232
20
9.37728
30
5.2
0
VERTEX
10
9.0868
20
9.39058
30
5.2
0
VERTEX
10
9.05132
20
9.40388
30
5.2
0
VERTEX
10
9.03358
20
9.41054
30
5.2
0
VERTEX
10
9.02471
20
9.41719
30
5.2
0
VERTEX
10
8.98924
20
9.42162
30
5.2
0
VERTEX
10
8.9715
20
9.42384
30
5.2
0
VERTEX
10
8.95376
20
9.42162
30
5.2
0
VERTEX
10
8.93602
20
9.41497
30
5.2
0
VERTEX
10
8.92715
20
9.4061
30
5.2
0
VERTEX
10
8.92715
20
9.40167
30
5.2
0
VERTEX
10
8.92271
20
9.39945
30
5.2
0
VERTEX
10
8.92271
20
9.38171
30
5.2
0
VERTEX
10
8.92271
20
9.37284
30
5.2
0
VERTEX
10
8.92271
20
9.36841
30
5.2
0
SEQEND
0
POLYLINE
62
31
66
1
70
1
3
contour
0
VERTEX
10
10.0801
20
8.75766
30
5.2
0
VERTEX
10
10.0883
20
8.73594
30
5.2
0
VERTEX
10
10.1236
20
8.69249
30
5.2
0
VERTEX
10
10.1345
20
8.68706
30
5.2
0
VERTEX
10
10.1453
20
8.6762
30
5.2
0
VERTEX
10
10.1507
20
8.6762
30
5.2
0
VERTEX
10
10.1643
20
8.66262
30
5.2
0
VERTEX
10
10.1698
20
8.66262
30
5.2
0
VERTEX
10
10.186
20
8.64904
30
5.2
0
VERTEX
10
10.1942
20
8.6409
30
5.2
0
VERTEX
10
10.2376
20
8.63818
30
5.2
0
VERTEX
10
10.2485
20
8.6409
30
5.2
0
VERTEX
10
10.2539
20
8.6409
30
5.2
0
VERTEX
10
10.2594
20
8.64633
30
5.2
0
VERTEX
10
10.2648
20
8.64633
30
5.2
0
VERTEX
10
10.2757
20
8.65719
30
5.2
0
VERTEX
10
10.2702
20
8.67891
30
5.2
0
VERTEX
10
10.2404
20
8.71693
30
5.2
0
VERTEX
10
10.2241
20
8.73594
30
5.2
0
VERTEX
10
10.2132
20
8.74409
30
5.2
0
VERTEX
10
10.2132
20
8.74952
30
5.2
0
VERTEX
10
10.1752
20
8.78754
30
5.2
0
VERTEX
10
10.1372
20
8.82012
30
5.2
0
VERTEX
10
10.1263
20
8.82555
30
5.2
0
VERTEX
10
10.1209
20
8.82827
30
5.2
0
VERTEX
10
10.1046
20
8.80654
30
5.2
0
VERTEX
10
10.0937
20
8.79568
30
5.2
0
VERTEX
10
10.0883
20
8.79297
30
5.2
0
VERTEX
10
10.0883
20
8.7821
30
5.2
0
VERTEX
10
10.0829
20
8.7821
30
5.2
0
VERTEX
10
10.0801
20
8.76038
30
5.2
0
SEQEND
0
POLYLINE
62
224
66
1
70
1
3
mitochondrion
0
VERTEX
10
9.06421
20
8.99191
30
5.2
0
VERTEX
10
9.06699
20
8.98913
30
5.2
0
VERTEX
10
9.06838
20
8.96688
30
5.2
0
VERTEX
10
9.06977
20
8.95576
30
5.2
0
VERTEX
10
9.07395
20
8.94464
30
5.2
0
VERTEX
10
9.07395
20
8.93907
30
5.2
0
VERTEX
10
9.07812
20
8.92795
30
5.2
0
VERTEX
10
9.07951
20
8.92239
30
5.2
0
VERTEX
10
9.08368
20
8.91683
30
5.2
0
VERTEX
10
9.08507
20
8.91127
30
5.2
0
VERTEX
10
9.09063
20
8.9057
30
5.2
0
VERTEX
10
9.10036
20
8.90153
30
5.2
0
VERTEX
10
9.10175
20
8.89875
30
5.2
0
VERTEX
10
9.124
20
8.89736
30
5.2
0
VERTEX
10
9.12956
20
8.89875
30
5.2
0
VERTEX
10
9.13234
20
8.89875
30
5.2
0
VERTEX
10
9.13791
20
8.90292
30
5.2
0
VERTEX
10
9.16015
20
8.90709
30
5.2
0
VERTEX
10
9.16571
20
8.90848
30
5.2
0
VERTEX
10
9.17545
20
8.91683
30
5.2
0
VERTEX
10
9.17823
20
8.91683
30
5.2
0
VERTEX
10
9.18657
20
8.92517
30
5.2
0
VERTEX
10
9.19074
20
8.93073
30
5.2
0
VERTEX
10
9.19352
20
8.93351
30
5.2
0
VERTEX
10
9.19491
20
8.93907
30
5.2
0
VERTEX
10
9.19908
20
8.94325
30
5.2
0
VERTEX
10
9.20047
20
8.95437
30
5.2
0
VERTEX
10
9.20326
20
8.95993
30
5.2
0
VERTEX
10
9.20326
20
8.96271
30
5.2
0
VERTEX
10
9.20743
20
8.96827
30
5.2
0
VERTEX
10
9.20882
20
8.99052
30
5.2
0
VERTEX
10
9.20882
20
9.00164
30
5.2
0
VERTEX
10
9.20604
20
9.01277
30
5.2
0
VERTEX
10
9.20326
20
9.01555
30
5.2
0
VERTEX
10
9.20047
20
9.02667
30
5.2
0
VERTEX
10
9.18796
20
9.04614
30
5.2
0
VERTEX
10
9.18796
20
9.04892
30
5.2
0
VERTEX
10
9.18518
20
9.05031
30
5.2
0
VERTEX
10
9.18379
20
9.05587
30
5.2
0
VERTEX
10
9.17406
20
9.06421
30
5.2
0
VERTEX
10
9.17128
20
9.06699
30
5.2
0
VERTEX
10
9.14903
20
9.06838
30
5.2
0
VERTEX
10
9.10454
20
9.06282
30
5.2
0
VERTEX
10
9.09341
20
9.05587
30
5.2
0
VERTEX
10
9.09063
20
9.05031
30
5.2
0
VERTEX
10
9.08507
20
9.04614
30
5.2
0
VERTEX
10
9.08507
20
9.04336
30
5.2
0
VERTEX
10
9.07116
20
9.0225
30
5.2
0
VERTEX
10
9.07116
20
9.01694
30
5.2
0
VERTEX
10
9.06421
20
9.0072
30
5.2
0
VERTEX
10
9.06421
20
8.99608
30
5.2
0
VERTEX
10
9.06421
20
8.9933
30
5.2
0
SEQEND
0
POLYLINE
62
227
66
1
70
1
3
endoplasmic_reticulum
0
VERTEX
10
9.18093
20
9.09343
30
5.2
0
VERTEX
10
9.18205
20
9.08894
30
5.2
0
VERTEX
10
9.18205
20
9.0867
30
5.2
0
VERTEX
10
9.19103
20
9.07885
30
5.2
0
VERTEX
10
9.19888
20
9.07324
30
5.2
0
VERTEX
10
9.21683
20
9.07548
30
5.2
0
VERTEX
10
9.22132
20
9.0766
30
5.2
0
VERTEX
10
9.22356
20
9.0766
30
5.2
0
VERTEX
10
9.23253
20
9.08221
30
5.2
0
VERTEX
10
9.23927
20
9.08894
30
5.2
0
VERTEX
10
9.23814
20
9.09792
30
5.2
0
VERTEX
10
9.23478
20
9.10577
30
5.2
0
VERTEX
10
9.23366
20
9.11026
30
5.2
0
VERTEX
10
9.23366
20
9.1125
30
5.2
0
VERTEX
10
9.23141
20
9.11362
30
5.2
0
VERTEX
10
9.23029
20
9.11811
30
5.2
0
VERTEX
10
9.2258
20
9.12147
30
5.2
0
VERTEX
10
9.20785
20
9.12596
30
5.2
0
VERTEX
10
9.20337
20
9.12708
30
5.2
0
VERTEX
10
9.20112
20
9.12821
30
5.2
0
VERTEX
10
9.19327
20
9.12372
30
5.2
0
VERTEX
10
9.18654
20
9.11587
30
5.2
0
VERTEX
10
9.18093
20
9.09792
30
5.2
0
VERTEX
10
9.18093
20
9.09455
30
5.2
0
SEQEND
0
POLYLINE
62
227
66
1
70
1
3
endoplasmic_reticulum
0
VERTEX
10
8.97564
20
8.93638
30
5.2
0
VERTEX
10
8.97676
20
8.93189
30
5.2
0
VERTEX
10
8.97676
20
8.92964
30
5.2
0
VERTEX
10
8.9891
20
8.9117
30
5.2
0
VERTEX
10
8.99695
20
8.90609
30
5.2
0
VERTEX
10
9.0149
20
8.90272
30
5.2
0
VERTEX
10
9.02388
20
8.90496
30
5.2
0
VERTEX
10
9.02836
20
8.90609
30
5.2
0
VERTEX
10
9.03061
20
8.90609
30
5.2
0
VERTEX
10
9.03397
20
8.91057
30
5.2
0
VERTEX
10
9.0351
20
8.91282
30
5.2
0
VERTEX
10
9.03173
20
8.93077
30
5.2
0
VERTEX
10
9.02724
20
8.9375
30
5.2
0
VERTEX
10
9.01939
20
8.94423
30
5.2
0
VERTEX
10
9.0149
20
8.94647
30
5.2
0
VERTEX
10
9.01266
20
8.94872
30
5.2
0
VERTEX
10
9.00368
20
8.95208
30
5.2
0
VERTEX
10
8.9992
20
8.95432
30
5.2
0
VERTEX
10
8.9992
20
8.95657
30
5.2
0
VERTEX
10
8.99695
20
8.95769
30
5.2
0
VERTEX
10
8.98798
20
8.95545
30
5.2
0
VERTEX
10
8.979
20
8.94984
30
5.2
0
VERTEX
10
8.97564
20
8.94535
30
5.2
0
VERTEX
10
8.97564
20
8.9375
30
5.2
0
SEQEND
0
ENDSEC
0
EOF
