0
SECTION
2
ENTITIES
0
POLYLINE
62
31
66
1
70
1
3
contour
0
VERTEX
10
6.69248
20
10.8897
30
9.52
0
VERTEX
10
6.70894
20
10.837
30
9.52
0
VERTEX
10
6.76162
20
10.7942
30
9.52
0
VERTEX
10
6.78795
20
10.7712
30
9.52
0
VERTEX
10
6.80112
20
10.7613
30
9.52
0
VERTEX
10
6.80112
20
10.7547
30
9.52
0
VERTEX
10
6.81099
20
10.7448
30
9.52
0
VERTEX
10
6.83733
20
10.7383
30
9.52
0
VERTEX
10
6.84391
20
10.7383
30
9.52
0
VERTEX
10
6.8505
20
10.7448
30
9.52
0
VERTEX
10
6.90317
20
10.7448
30
9.52
0
VERTEX
10
6.9295
20
10.7481
30
9.52
0
VERTEX
10
6.95584
20
10.7448
30
9.52
0
VERTEX
10
6.96901
20
10.7383
30
9.52
0
VERTEX
10
6.97559
20
10.7383
30
9.52
0
VERTEX
10
7.02497
20
10.7021
30
9.52
0
VERTEX
10
7.04801
20
10.6823
30
9.52
0
VERTEX
10
7.13031
20
10.5835
30
9.52
0
VERTEX
10
7.16981
20
10.5375
30
9.52
0
VERTEX
10
7.18957
20
10.5144
30
9.52
0
VERTEX
10
7.19615
20
10.5012
30
9.52
0
VERTEX
10
7.20932
20
10.4914
30
9.52
0
VERTEX
10
7.20932
20
10.4848
30
9.52
0
VERTEX
10
7.23565
20
10.465
30
9.52
0
VERTEX
10
7.2587
20
10.4617
30
9.52
0
VERTEX
10
7.2587
20
10.4552
30
9.52
0
VERTEX
10
7.28174
20
10.4387
30
9.52
0
VERTEX
10
7.28832
20
10.4387
30
9.52
0
VERTEX
10
7.30807
20
10.4157
30
9.52
0
VERTEX
10
7.33441
20
10.4058
30
9.52
0
VERTEX
10
7.36075
20
10.3893
30
9.52
0
VERTEX
10
7.38708
20
10.3827
30
9.52
0
VERTEX
10
7.39696
20
10.3729
30
9.52
0
VERTEX
10
7.42329
20
10.3696
30
9.52
0
VERTEX
10
7.43646
20
10.3696
30
9.52
0
VERTEX
10
7.44963
20
10.363
30
9.52
0
VERTEX
10
7.55497
20
10.3498
30
9.52
0
VERTEX
10
7.60764
20
10.3399
30
9.52
0
VERTEX
10
7.65702
20
10.3202
30
9.52
0
VERTEX
10
7.68335
20
10.3136
30
9.52
0
VERTEX
10
7.68994
20
10.307
30
9.52
0
VERTEX
10
7.70311
20
10.3037
30
9.52
0
VERTEX
10
7.70969
20
10.3037
30
9.52
0
VERTEX
10
7.73273
20
10.284
30
9.52
0
VERTEX
10
7.73932
20
10.2774
30
9.52
0
VERTEX
10
7.7459
20
10.2774
30
9.52
0
VERTEX
10
7.77224
20
10.2543
30
9.52
0
VERTEX
10
7.77882
20
10.2412
30
9.52
0
VERTEX
10
7.80516
20
10.2214
30
9.52
0
VERTEX
10
7.83149
20
10.2214
30
9.52
0
VERTEX
10
7.84466
20
10.2181
30
9.52
0
VERTEX
10
7.85783
20
10.2247
30
9.52
0
VERTEX
10
7.86441
20
10.2511
30
9.52
0
VERTEX
10
7.8677
20
10.2642
30
9.52
0
VERTEX
10
7.88416
20
10.2906
30
9.52
0
VERTEX
10
7.88745
20
10.3037
30
9.52
0
VERTEX
10
7.89404
20
10.3103
30
9.52
0
VERTEX
10
7.89733
20
10.3235
30
9.52
0
VERTEX
10
7.89733
20
10.3301
30
9.52
0
VERTEX
10
7.90391
20
10.3334
30
9.52
0
VERTEX
10
7.90721
20
10.544
30
9.52
0
VERTEX
10
7.90721
20
10.5967
30
9.52
0
VERTEX
10
7.90721
20
10.623
30
9.52
0
VERTEX
10
7.90062
20
10.6494
30
9.52
0
VERTEX
10
7.90062
20
10.6757
30
9.52
0
VERTEX
10
7.88416
20
10.7021
30
9.52
0
VERTEX
10
7.87429
20
10.7284
30
9.52
0
VERTEX
10
7.85783
20
10.7547
30
9.52
0
VERTEX
10
7.83807
20
10.7745
30
9.52
0
VERTEX
10
7.81174
20
10.7909
30
9.52
0
VERTEX
10
7.76565
20
10.8337
30
9.52
0
VERTEX
10
7.73932
20
10.8436
30
9.52
0
VERTEX
10
7.68665
20
10.8798
30
9.52
0
VERTEX
10
7.66031
20
10.8831
30
9.52
0
VERTEX
10
7.65044
20
10.893
30
9.52
0
VERTEX
10
7.59776
20
10.8963
30
9.52
0
VERTEX
10
7.54509
20
10.893
30
9.52
0
VERTEX
10
7.51876
20
10.893
30
9.52
0
VERTEX
10
7.46609
20
10.8765
30
9.52
0
VERTEX
10
7.43975
20
10.8634
30
9.52
0
VERTEX
10
7.42658
20
10.8601
30
9.52
0
VERTEX
10
7.42
20
10.8535
30
9.52
0
VERTEX
10
7.39366
20
10.8469
30
9.52
0
VERTEX
10
7.36733
20
10.8304
30
9.52
0
VERTEX
10
7.35416
20
10.8271
30
9.52
0
VERTEX
10
7.32783
20
10.8107
30
9.52
0
VERTEX
10
7.31795
20
10.8008
30
9.52
0
VERTEX
10
7.29162
20
10.7942
30
9.52
0
VERTEX
10
7.27845
20
10.7942
30
9.52
0
VERTEX
10
7.27516
20
10.7876
30
9.52
0
VERTEX
10
7.16981
20
10.7876
30
9.52
0
VERTEX
10
7.11714
20
10.7876
30
9.52
0
VERTEX
10
7.10398
20
10.7909
30
9.52
0
VERTEX
10
7.09739
20
10.7975
30
9.52
0
VERTEX
10
7.07106
20
10.8041
30
9.52
0
VERTEX
10
7.04472
20
10.8206
30
9.52
0
VERTEX
10
7.03155
20
10.8271
30
9.52
0
VERTEX
10
7.02497
20
10.8304
30
9.52
0
VERTEX
10
7.0513
20
10.8304
30
9.52
0
VERTEX
10
7.0546
20
10.8337
30
9.52
0
VERTEX
10
7.04143
20
10.8436
30
9.52
0
VERTEX
10
7.01509
20
10.8502
30
9.52
0
VERTEX
10
7.00851
20
10.8568
30
9.52
0
VERTEX
10
6.99534
20
10.8601
30
9.52
0
VERTEX
10
6.94925
20
10.8996
30
9.52
0
VERTEX
10
6.94596
20
10.9061
30
9.52
0
VERTEX
10
6.93938
20
10.9061
30
9.52
0
VERTEX
10
6.9328
20
10.9127
30
9.52
0
VERTEX
10
6.91963
20
10.916
30
9.52
0
VERTEX
10
6.91634
20
10.9226
30
9.52
0
VERTEX
10
6.90975
20
10.9226
30
9.52
0
VERTEX
10
6.88671
20
10.9391
30
9.52
0
VERTEX
10
6.87354
20
10.9489
30
9.52
0
VERTEX
10
6.84721
20
10.9522
30
9.52
0
VERTEX
10
6.83404
20
10.9588
30
9.52
0
VERTEX
10
6.82745
20
10.9654
30
9.52
0
VERTEX
10
6.81429
20
10.9654
30
9.52
0
VERTEX
10
6.80112
20
10.972
30
9.52
0
VERTEX
10
6.74845
20
10.9687
30
9.52
0
VERTEX
10
6.72211
20
10.9588
30
9.52
0
VERTEX
10
6.71553
20
10.9588
30
9.52
0
VERTEX
10
6.69907
20
10.9358
30
9.52
0
VERTEX
10
6.69578
20
10.9094
30
9.52
0
VERTEX
10
6.69248
20
10.8963
30
9.52
0
VERTEX
10
6.69248
20
10.893
30
9.52
0
SEQEND
0
POLYLINE
62
224
66
1
70
1
3
mitochondrion
0
VERTEX
10
7.37206
20
10.6966
30
9.52
0
VERTEX
10
7.37484
20
10.6743
30
9.52
0
VERTEX
10
7.37484
20
10.6632
30
9.52
0
VERTEX
10
7.37762
20
10.6521
30
9.52
0
VERTEX
10
7.38318
20
10.641
30
9.52
0
VERTEX
10
7.38596
20
10.6298
30
9.52
0
VERTEX
10
7.39013
20
10.6243
30
9.52
0
VERTEX
10
7.39153
20
10.6187
30
9.52
0
VERTEX
10
7.3957
20
10.6132
30
9.52
0
VERTEX
10
7.40543
20
10.5909
30
9.52
0
VERTEX
10
7.40682
20
10.5853
30
9.52
0
VERTEX
10
7.40682
20
10.5826
30
9.52
0
VERTEX
10
7.41933
20
10.5603
30
9.52
0
VERTEX
10
7.4249
20
10.5548
30
9.52
0
VERTEX
10
7.42768
20
10.5492
30
9.52
0
VERTEX
10
7.43324
20
10.5436
30
9.52
0
VERTEX
10
7.44436
20
10.5381
30
9.52
0
VERTEX
10
7.44714
20
10.5381
30
9.52
0
VERTEX
10
7.44992
20
10.5353
30
9.52
0
VERTEX
10
7.49442
20
10.52
30
9.52
0
VERTEX
10
7.49998
20
10.5172
30
9.52
0
VERTEX
10
7.50554
20
10.5172
30
9.52
0
VERTEX
10
7.5111
20
10.513
30
9.52
0
VERTEX
10
7.52223
20
10.5103
30
9.52
0
VERTEX
10
7.52779
20
10.5089
30
9.52
0
VERTEX
10
7.55003
20
10.5117
30
9.52
0
VERTEX
10
7.56116
20
10.513
30
9.52
0
VERTEX
10
7.5834
20
10.5228
30
9.52
0
VERTEX
10
7.60565
20
10.5367
30
9.52
0
VERTEX
10
7.61538
20
10.5436
30
9.52
0
VERTEX
10
7.62095
20
10.545
30
9.52
0
VERTEX
10
7.63068
20
10.5548
30
9.52
0
VERTEX
10
7.63485
20
10.5603
30
9.52
0
VERTEX
10
7.63624
20
10.5714
30
9.52
0
VERTEX
10
7.64041
20
10.5756
30
9.52
0
VERTEX
10
7.64041
20
10.5784
30
9.52
0
VERTEX
10
7.64736
20
10.5853
30
9.52
0
VERTEX
10
7.64736
20
10.5881
30
9.52
0
VERTEX
10
7.65015
20
10.5909
30
9.52
0
VERTEX
10
7.6571
20
10.6132
30
9.52
0
VERTEX
10
7.65849
20
10.6243
30
9.52
0
VERTEX
10
7.65849
20
10.6298
30
9.52
0
VERTEX
10
7.65849
20
10.6326
30
9.52
0
VERTEX
10
7.66127
20
10.6354
30
9.52
0
VERTEX
10
7.6571
20
10.6576
30
9.52
0
VERTEX
10
7.65154
20
10.6688
30
9.52
0
VERTEX
10
7.65015
20
10.6743
30
9.52
0
VERTEX
10
7.64597
20
10.6799
30
9.52
0
VERTEX
10
7.64319
20
10.691
30
9.52
0
VERTEX
10
7.63624
20
10.7007
30
9.52
0
VERTEX
10
7.63207
20
10.7119
30
9.52
0
VERTEX
10
7.62373
20
10.7216
30
9.52
0
VERTEX
10
7.62095
20
10.7327
30
9.52
0
VERTEX
10
7.6126
20
10.7439
30
9.52
0
VERTEX
10
7.61121
20
10.7536
30
9.52
0
VERTEX
10
7.60843
20
10.7591
30
9.52
0
VERTEX
10
7.60287
20
10.7619
30
9.52
0
VERTEX
10
7.59453
20
10.7731
30
9.52
0
VERTEX
10
7.5834
20
10.78
30
9.52
0
VERTEX
10
7.57228
20
10.7897
30
9.52
0
VERTEX
10
7.56672
20
10.7953
30
9.52
0
VERTEX
10
7.56394
20
10.7967
30
9.52
0
VERTEX
10
7.56394
20
10.8022
30
9.52
0
VERTEX
10
7.54169
20
10.8064
30
9.52
0
VERTEX
10
7.51944
20
10.8078
30
9.52
0
VERTEX
10
7.50832
20
10.8092
30
9.52
0
VERTEX
10
7.50276
20
10.8106
30
9.52
0
VERTEX
10
7.48051
20
10.8078
30
9.52
0
VERTEX
10
7.45827
20
10.8022
30
9.52
0
VERTEX
10
7.44714
20
10.8009
30
9.52
0
VERTEX
10
7.42629
20
10.7883
30
9.52
0
VERTEX
10
7.42211
20
10.7842
30
9.52
0
VERTEX
10
7.42072
20
10.78
30
9.52
0
VERTEX
10
7.41516
20
10.7772
30
9.52
0
VERTEX
10
7.40543
20
10.7661
30
9.52
0
VERTEX
10
7.3957
20
10.7591
30
9.52
0
VERTEX
10
7.38874
20
10.748
30
9.52
0
VERTEX
10
7.38318
20
10.7425
30
9.52
0
VERTEX
10
7.37623
20
10.7313
30
9.52
0
VERTEX
10
7.37206
20
10.7091
30
9.52
0
VERTEX
10
7.37206
20
10.698
30
9.52
0
SEQEND
0
POLYLINE
62
227
66
1
70
1
3
endoplasmic_reticulum
0
VERTEX
10
7.52471
20
10.4519
30
9.52
0
VERTEX
10
7.52919
20
10.4457
30
9.52
0
VERTEX
10
7.54085
20
10.4322
30
9.52
0
VERTEX
10
7.54713
20
10.4286
30
9.52
0
VERTEX
10
7.5543
20
10.4268
30
9.52
0
VERTEX
10
7.56147
20
10.4223
30
9.52
0
VERTEX
10
7.56506
20
10.4197
30
9.52
0
VERTEX
10
7.57223
20
10.417
30
9.52
0
VERTEX
10
7.57402
20
10.417
30
9.52
0
VERTEX
10
7.57671
20
10.4143
30
9.52
0
VERTEX
10
7.58388
20
10.4161
30
9.52
0
VERTEX
10
7.58747
20
10.417
30
9.52
0
VERTEX
10
7.59106
20
10.4197
30
9.52
0
VERTEX
10
7.59823
20
10.4215
30
9.52
0
VERTEX
10
7.6054
20
10.4268
30
9.52
0
VERTEX
10
7.60899
20
10.4304
30
9.52
0
VERTEX
10
7.60988
20
10.434
30
9.52
0
VERTEX
10
7.61078
20
10.4358
30
9.52
0
VERTEX
10
7.61257
20
10.4358
30
9.52
0
VERTEX
10
7.61526
20
10.4394
30
9.52
0
VERTEX
10
7.61616
20
10.4537
30
9.52
0
VERTEX
10
7.61616
20
10.4573
30
9.52
0
VERTEX
10
7.61347
20
10.4609
30
9.52
0
VERTEX
10
7.61257
20
10.4645
30
9.52
0
VERTEX
10
7.61257
20
10.4663
30
9.52
0
VERTEX
10
7.60092
20
10.4797
30
9.52
0
VERTEX
10
7.59375
20
10.4842
30
9.52
0
VERTEX
10
7.5794
20
10.4905
30
9.52
0
VERTEX
10
7.57223
20
10.4932
30
9.52
0
VERTEX
10
7.55788
20
10.4923
30
9.52
0
VERTEX
10
7.54354
20
10.4896
30
9.52
0
VERTEX
10
7.53995
20
10.4887
30
9.52
0
VERTEX
10
7.53368
20
10.4833
30
9.52
0
VERTEX
10
7.53099
20
10.4797
30
9.52
0
VERTEX
10
7.52919
20
10.4726
30
9.52
0
VERTEX
10
7.52471
20
10.4654
30
9.52
0
VERTEX
10
7.52471
20
10.4582
30
9.52
0
VERTEX
10
7.52471
20
10.4546
30
9.52
0
VERTEX
10
7.52471
20
10.4528
30
9.52
0
SEQEND
0
POLYLINE
62
227
66
1
70
1
3
endoplasmic_reticulum
0
VERTEX
10
7.3714
20
10.4636
30
9.52
0
VERTEX
10
7.37409
20
10.46
30
9.52
0
VERTEX
10
7.37409
20
10.4582
30
9.52
0
VERTEX
10
7.37857
20
10.451
30
9.52
0
VERTEX
10
7.38575
20
10.4466
30
9.52
0
VERTEX
10
7.38933
20
10.4448
30
9.52
0
VERTEX
10
7.39113
20
10.443
30
9.52
0
VERTEX
10
7.39292
20
10.443
30
9.52
0
VERTEX
10
7.39651
20
10.4403
30
9.52
0
VERTEX
10
7.40995
20
10.4349
30
9.52
0
VERTEX
10
7.4243
20
10.4313
30
9.52
0
VERTEX
10
7.43147
20
10.4295
30
9.52
0
VERTEX
10
7.43506
20
10.4295
30
9.52
0
VERTEX
10
7.43685
20
10.4295
30
9.52
0
VERTEX
10
7.43954
20
10.4322
30
9.52
0
VERTEX
10
7.44671
20
10.4331
30
9.52
0
VERTEX
10
7.4494
20
10.4358
30
9.52
0
VERTEX
10
7.46375
20
10.4421
30
9.52
0
VERTEX
10
7.47092
20
10.4466
30
9.52
0
VERTEX
10
7.4763
20
10.4528
30
9.52
0
VERTEX
10
7.47719
20
10.46
30
9.52
0
VERTEX
10
7.4745
20
10.4672
30
9.52
0
VERTEX
10
7.46913
20
10.4735
30
9.52
0
VERTEX
10
7.46644
20
10.4806
30
9.52
0
VERTEX
10
7.46285
20
10.4824
30
9.52
0
VERTEX
10
7.45926
20
10.486
30
9.52
0
VERTEX
10
7.45209
20
10.4878
30
9.52
0
VERTEX
10
7.44851
20
10.4896
30
9.52
0
VERTEX
10
7.43416
20
10.4887
30
9.52
0
VERTEX
10
7.41982
20
10.4896
30
9.52
0
VERTEX
10
7.40547
20
10.4887
30
9.52
0
VERTEX
10
7.3983
20
10.4878
30
9.52
0
VERTEX
10
7.39471
20
10.4878
30
9.52
0
VERTEX
10
7.39292
20
10.4878
30
9.52
0
VERTEX
10
7.39113
20
10.486
30
9.52
0
VERTEX
10
7.38395
20
10.486
30
9.52
0
VERTEX
10
7.38037
20
10.4833
30
9.52
0
VERTEX
10
7.38126
20
10.4815
30
9.52
0
VERTEX
10
7.37409
20
10.477
30
9.52
0
VERTEX
10
7.3714
20
10.4743
30
9.52
0
VERTEX
10
7.3714
20
10.4672
30
9.52
0
VERTEX
10
7.3714
20
10.4645
30
9.52
0
SEQEND
0
POLYLINE
62
227
66
1
70
1
3
endoplasmic_reticulum
0
VERTEX
10
7.13471
20
10.6357
30
9.52
0
VERTEX
10
7.14099
20
10.6286
30
9.52
0
VERTEX
10
7.1392
20
10.625
30
9.52
0
VERTEX
10
7.1392
20
10.6232
30
9.52
0
VERTEX
10
7.15264
20
10.6106
30
9.52
0
VERTEX
10
7.15354
20
10.6088
30
9.52
0
VERTEX
10
7.16789
20
10.6043
30
9.52
0
VERTEX
10
7.17147
20
10.6035
30
9.52
0
VERTEX
10
7.17327
20
10.6017
30
9.52
0
VERTEX
10
7.18044
20
10.599
30
9.52
0
VERTEX
10
7.18402
20
10.5972
30
9.52
0
VERTEX
10
7.18582
20
10.5972
30
9.52
0
VERTEX
10
7.18761
20
10.5954
30
9.52
0
VERTEX
10
7.1894
20
10.5954
30
9.52
0
VERTEX
10
7.19299
20
10.5927
30
9.52
0
VERTEX
10
7.19658
20
10.5918
30
9.52
0
VERTEX
10
7.19837
20
10.5918
30
9.52
0
VERTEX
10
7.20016
20
10.59
30
9.52
0
VERTEX
10
7.20733
20
10.5882
30
9.52
0
VERTEX
10
7.22168
20
10.5891
30
9.52
0
VERTEX
10
7.23602
20
10.5936
30
9.52
0
VERTEX
10
7.2423
20
10.5981
30
9.52
0
VERTEX
10
7.2423
20
10.5999
30
9.52
0
VERTEX
10
7.24409
20
10.6017
30
9.52
0
VERTEX
10
7.24409
20
10.6088
30
9.52
0
VERTEX
10
7.2423
20
10.616
30
9.52
0
VERTEX
10
7.23871
20
10.6232
30
9.52
0
VERTEX
10
7.23602
20
10.6259
30
9.52
0
VERTEX
10
7.23602
20
10.6277
30
9.52
0
VERTEX
10
7.23244
20
10.6303
30
9.52
0
VERTEX
10
7.22885
20
10.6303
30
9.52
0
VERTEX
10
7.22706
20
10.6303
30
9.52
0
VERTEX
10
7.22527
20
10.6321
30
9.52
0
VERTEX
10
7.22168
20
10.6321
30
9.52
0
VERTEX
10
7.2154
20
10.6357
30
9.52
0
VERTEX
10
7.20823
20
10.6375
30
9.52
0
VERTEX
10
7.20195
20
10.6429
30
9.52
0
VERTEX
10
7.19478
20
10.6456
30
9.52
0
VERTEX
10
7.19209
20
10.6465
30
9.52
0
VERTEX
10
7.1912
20
10.6483
30
9.52
0
VERTEX
10
7.18402
20
10.6483
30
9.52
0
VERTEX
10
7.16968
20
10.651
30
9.52
0
VERTEX
10
7.15533
20
10.6519
30
9.52
0
VERTEX
10
7.14099
20
10.6501
30
9.52
0
VERTEX
10
7.1392
20
10.6501
30
9.52
0
VERTEX
10
7.13561
20
10.6474
30
9.52
0
VERTEX
10
7.13471
20
10.6402
30
9.52
0
VERTEX
10
7.13471
20
10.6366
30
9.52
0
SEQEND
0
ENDSEC
0
EOF
