0
SECTION
2
ENTITIES
0
POLYLINE
62
31
66
1
70
1
3
contour
0
VERTEX
10
7.25211
20
11.0016
30
8.32
0
VERTEX
10
7.26199
20
10.9753
30
8.32
0
VERTEX
10
7.28174
20
10.9522
30
8.32
0
VERTEX
10
7.29491
20
10.9424
30
8.32
0
VERTEX
10
7.30149
20
10.9358
30
8.32
0
VERTEX
10
7.40354
20
10.8963
30
8.32
0
VERTEX
10
7.42988
20
10.8864
30
8.32
0
VERTEX
10
7.44304
20
10.8765
30
8.32
0
VERTEX
10
7.45621
20
10.8732
30
8.32
0
VERTEX
10
7.46609
20
10.8634
30
8.32
0
VERTEX
10
7.47925
20
10.8634
30
8.32
0
VERTEX
10
7.49242
20
10.8568
30
8.32
0
VERTEX
10
7.50559
20
10.8568
30
8.32
0
VERTEX
10
7.51217
20
10.8634
30
8.32
0
VERTEX
10
7.56485
20
10.8666
30
8.32
0
VERTEX
10
7.57801
20
10.8699
30
8.32
0
VERTEX
10
7.59118
20
10.8831
30
8.32
0
VERTEX
10
7.59118
20
10.8897
30
8.32
0
VERTEX
10
7.60435
20
10.8963
30
8.32
0
VERTEX
10
7.61422
20
10.9193
30
8.32
0
VERTEX
10
7.62739
20
10.9325
30
8.32
0
VERTEX
10
7.63068
20
10.9457
30
8.32
0
VERTEX
10
7.63068
20
10.9522
30
8.32
0
VERTEX
10
7.63727
20
10.9555
30
8.32
0
VERTEX
10
7.64056
20
11.0082
30
8.32
0
VERTEX
10
7.63727
20
11.0345
30
8.32
0
VERTEX
10
7.62081
20
11.0872
30
8.32
0
VERTEX
10
7.61422
20
11.0938
30
8.32
0
VERTEX
10
7.61093
20
11.107
30
8.32
0
VERTEX
10
7.59118
20
11.1267
30
8.32
0
VERTEX
10
7.56814
20
11.153
30
8.32
0
VERTEX
10
7.55497
20
11.1662
30
8.32
0
VERTEX
10
7.53193
20
11.1827
30
8.32
0
VERTEX
10
7.51217
20
11.2057
30
8.32
0
VERTEX
10
7.48584
20
11.2222
30
8.32
0
VERTEX
10
7.47267
20
11.2222
30
8.32
0
VERTEX
10
7.46609
20
11.2189
30
8.32
0
VERTEX
10
7.41342
20
11.2255
30
8.32
0
VERTEX
10
7.38708
20
11.2189
30
8.32
0
VERTEX
10
7.37391
20
11.2189
30
8.32
0
VERTEX
10
7.36733
20
11.2189
30
8.32
0
VERTEX
10
7.34099
20
11.2024
30
8.32
0
VERTEX
10
7.33112
20
11.1925
30
8.32
0
VERTEX
10
7.32783
20
11.186
30
8.32
0
VERTEX
10
7.32124
20
11.186
30
8.32
0
VERTEX
10
7.29491
20
11.1662
30
8.32
0
VERTEX
10
7.27845
20
11.1399
30
8.32
0
VERTEX
10
7.26857
20
11.1267
30
8.32
0
VERTEX
10
7.26528
20
11.1004
30
8.32
0
VERTEX
10
7.25211
20
11.0773
30
8.32
0
VERTEX
10
7.25211
20
11.0247
30
8.32
0
VERTEX
10
7.25211
20
11.0115
30
8.32
0
VERTEX
10
7.25211
20
11.0049
30
8.32
0
SEQEND
0
POLYLINE
62
224
66
1
70
1
3
mitochondrion
0
VERTEX
10
7.83368
20
10.2169
30
8.32
0
VERTEX
10
7.83646
20
10.1946
30
8.32
0
VERTEX
10
7.83785
20
10.1835
30
8.32
0
VERTEX
10
7.84063
20
10.1779
30
8.32
0
VERTEX
10
7.84063
20
10.1724
30
8.32
0
VERTEX
10
7.84481
20
10.1613
30
8.32
0
VERTEX
10
7.86149
20
10.1418
30
8.32
0
VERTEX
10
7.88096
20
10.1237
30
8.32
0
VERTEX
10
7.8893
20
10.114
30
8.32
0
VERTEX
10
7.93379
20
10.082
30
8.32
0
VERTEX
10
7.94492
20
10.0778
30
8.32
0
VERTEX
10
7.9477
20
10.0778
30
8.32
0
VERTEX
10
7.95326
20
10.0737
30
8.32
0
VERTEX
10
7.95882
20
10.0723
30
8.32
0
VERTEX
10
7.9616
20
10.0695
30
8.32
0
VERTEX
10
7.98385
20
10.0681
30
8.32
0
VERTEX
10
8.02834
20
10.0695
30
8.32
0
VERTEX
10
8.05059
20
10.0709
30
8.32
0
VERTEX
10
8.06171
20
10.0709
30
8.32
0
VERTEX
10
8.0631
20
10.0737
30
8.32
0
VERTEX
10
8.06866
20
10.0737
30
8.32
0
VERTEX
10
8.07145
20
10.0764
30
8.32
0
VERTEX
10
8.07423
20
10.0764
30
8.32
0
VERTEX
10
8.07701
20
10.0792
30
8.32
0
VERTEX
10
8.08813
20
10.082
30
8.32
0
VERTEX
10
8.10204
20
10.1015
30
8.32
0
VERTEX
10
8.10343
20
10.1237
30
8.32
0
VERTEX
10
8.11038
20
10.146
30
8.32
0
VERTEX
10
8.11177
20
10.1682
30
8.32
0
VERTEX
10
8.11038
20
10.1905
30
8.32
0
VERTEX
10
8.10204
20
10.2127
30
8.32
0
VERTEX
10
8.09786
20
10.2238
30
8.32
0
VERTEX
10
8.08396
20
10.2447
30
8.32
0
VERTEX
10
8.07979
20
10.2558
30
8.32
0
VERTEX
10
8.05893
20
10.2753
30
8.32
0
VERTEX
10
8.05337
20
10.2767
30
8.32
0
VERTEX
10
8.04364
20
10.2836
30
8.32
0
VERTEX
10
8.03808
20
10.2878
30
8.32
0
VERTEX
10
8.02695
20
10.2906
30
8.32
0
VERTEX
10
8.01722
20
10.2989
30
8.32
0
VERTEX
10
8.01444
20
10.2989
30
8.32
0
VERTEX
10
8.01027
20
10.3031
30
8.32
0
VERTEX
10
7.98802
20
10.31
30
8.32
0
VERTEX
10
7.94353
20
10.31
30
8.32
0
VERTEX
10
7.92128
20
10.31
30
8.32
0
VERTEX
10
7.89903
20
10.3059
30
8.32
0
VERTEX
10
7.88791
20
10.3045
30
8.32
0
VERTEX
10
7.87679
20
10.3003
30
8.32
0
VERTEX
10
7.85732
20
10.2822
30
8.32
0
VERTEX
10
7.85037
20
10.2725
30
8.32
0
VERTEX
10
7.8462
20
10.2669
30
8.32
0
VERTEX
10
7.8462
20
10.2614
30
8.32
0
VERTEX
10
7.83507
20
10.2405
30
8.32
0
VERTEX
10
7.83368
20
10.2183
30
8.32
0
SEQEND
0
POLYLINE
62
236
66
1
70
1
3
postsynaptic_density
0
VERTEX
10
7.22791
20
11.05
30
8.32
0
VERTEX
10
7.22978
20
11.035
30
8.32
0
VERTEX
10
7.23724
20
11.0276
30
8.32
0
VERTEX
10
7.24097
20
11.0257
30
8.32
0
VERTEX
10
7.24097
20
11.022
30
8.32
0
VERTEX
10
7.27083
20
11.0201
30
8.32
0
VERTEX
10
7.30069
20
11.0257
30
8.32
0
VERTEX
10
7.30256
20
11.0294
30
8.32
0
VERTEX
10
7.30629
20
11.0294
30
8.32
0
VERTEX
10
7.31562
20
11.0388
30
8.32
0
VERTEX
10
7.31562
20
11.0425
30
8.32
0
VERTEX
10
7.32495
20
11.0574
30
8.32
0
VERTEX
10
7.32682
20
11.0873
30
8.32
0
VERTEX
10
7.32682
20
11.0947
30
8.32
0
VERTEX
10
7.32122
20
11.1097
30
8.32
0
VERTEX
10
7.31936
20
11.1171
30
8.32
0
VERTEX
10
7.31562
20
11.1209
30
8.32
0
VERTEX
10
7.31376
20
11.1358
30
8.32
0
VERTEX
10
7.28763
20
11.1619
30
8.32
0
VERTEX
10
7.2727
20
11.1619
30
8.32
0
VERTEX
10
7.23911
20
11.1022
30
8.32
0
VERTEX
10
7.22791
20
11.0873
30
8.32
0
VERTEX
10
7.22791
20
11.0574
30
8.32
0
VERTEX
10
7.22791
20
11.0518
30
8.32
0
SEQEND
0
POLYLINE
62
227
66
1
70
1
3
endoplasmic_reticulum
0
VERTEX
10
7.69506
20
10.2287
30
8.32
0
VERTEX
10
7.69685
20
10.2278
30
8.32
0
VERTEX
10
7.69774
20
10.1991
30
8.32
0
VERTEX
10
7.69774
20
10.1955
30
8.32
0
VERTEX
10
7.70761
20
10.183
30
8.32
0
VERTEX
10
7.71119
20
10.1803
30
8.32
0
VERTEX
10
7.71478
20
10.1794
30
8.32
0
VERTEX
10
7.72195
20
10.1803
30
8.32
0
VERTEX
10
7.72554
20
10.1812
30
8.32
0
VERTEX
10
7.73899
20
10.191
30
8.32
0
VERTEX
10
7.74616
20
10.1937
30
8.32
0
VERTEX
10
7.75961
20
10.2036
30
8.32
0
VERTEX
10
7.76319
20
10.2063
30
8.32
0
VERTEX
10
7.76678
20
10.2135
30
8.32
0
VERTEX
10
7.76678
20
10.2152
30
8.32
0
VERTEX
10
7.76857
20
10.217
30
8.32
0
VERTEX
10
7.76768
20
10.2314
30
8.32
0
VERTEX
10
7.76768
20
10.2332
30
8.32
0
VERTEX
10
7.76499
20
10.2359
30
8.32
0
VERTEX
10
7.76409
20
10.2395
30
8.32
0
VERTEX
10
7.75064
20
10.2511
30
8.32
0
VERTEX
10
7.74795
20
10.2538
30
8.32
0
VERTEX
10
7.74526
20
10.261
30
8.32
0
VERTEX
10
7.72464
20
10.2861
30
8.32
0
VERTEX
10
7.71926
20
10.2923
30
8.32
0
VERTEX
10
7.71837
20
10.2932
30
8.32
0
VERTEX
10
7.70402
20
10.2843
30
8.32
0
VERTEX
10
7.69774
20
10.2798
30
8.32
0
VERTEX
10
7.69506
20
10.2726
30
8.32
0
VERTEX
10
7.69506
20
10.2439
30
8.32
0
VERTEX
10
7.69506
20
10.2296
30
8.32
0
SEQEND
0
POLYLINE
62
227
66
1
70
1
3
endoplasmic_reticulum
0
VERTEX
10
7.64754
20
9.76518
30
8.32
0
VERTEX
10
7.65292
20
9.75801
30
8.32
0
VERTEX
10
7.65381
20
9.75442
30
8.32
0
VERTEX
10
7.6565
20
9.75084
30
8.32
0
VERTEX
10
7.6583
20
9.74904
30
8.32
0
VERTEX
10
7.67264
20
9.74904
30
8.32
0
VERTEX
10
7.67981
20
9.74994
30
8.32
0
VERTEX
10
7.68699
20
9.75263
30
8.32
0
VERTEX
10
7.69147
20
9.7589
30
8.32
0
VERTEX
10
7.69237
20
9.77325
30
8.32
0
VERTEX
10
7.68878
20
9.78042
30
8.32
0
VERTEX
10
7.68878
20
9.78401
30
8.32
0
VERTEX
10
7.68878
20
9.7858
30
8.32
0
VERTEX
10
7.68519
20
9.78849
30
8.32
0
VERTEX
10
7.68161
20
9.78939
30
8.32
0
VERTEX
10
7.68071
20
9.79118
30
8.32
0
VERTEX
10
7.66637
20
9.79297
30
8.32
0
VERTEX
10
7.65919
20
9.79118
30
8.32
0
VERTEX
10
7.65202
20
9.7867
30
8.32
0
VERTEX
10
7.64754
20
9.78221
30
8.32
0
VERTEX
10
7.64754
20
9.76787
30
8.32
0
VERTEX
10
7.64754
20
9.76608
30
8.32
0
SEQEND
0
POLYLINE
62
227
66
1
70
1
3
endoplasmic_reticulum
0
VERTEX
10
7.73181
20
10.1202
30
8.32
0
VERTEX
10
7.73361
20
10.0915
30
8.32
0
VERTEX
10
7.73361
20
10.0844
30
8.32
0
VERTEX
10
7.7354
20
10.0772
30
8.32
0
VERTEX
10
7.7354
20
10.07
30
8.32
0
VERTEX
10
7.73719
20
10.0628
30
8.32
0
VERTEX
10
7.73719
20
10.0592
30
8.32
0
VERTEX
10
7.73899
20
10.0557
30
8.32
0
VERTEX
10
7.73899
20
10.0521
30
8.32
0
VERTEX
10
7.74437
20
10.0377
30
8.32
0
VERTEX
10
7.74795
20
10.0234
30
8.32
0
VERTEX
10
7.74974
20
10.009
30
8.32
0
VERTEX
10
7.75064
20
9.98035
30
8.32
0
VERTEX
10
7.75333
20
9.96601
30
8.32
0
VERTEX
10
7.75602
20
9.95883
30
8.32
0
VERTEX
10
7.7614
20
9.95166
30
8.32
0
VERTEX
10
7.77395
20
9.9418
30
8.32
0
VERTEX
10
7.77574
20
9.9418
30
8.32
0
VERTEX
10
7.78292
20
9.93552
30
8.32
0
VERTEX
10
7.7865
20
9.93373
30
8.32
0
VERTEX
10
7.7883
20
9.93194
30
8.32
0
VERTEX
10
7.79009
20
9.93194
30
8.32
0
VERTEX
10
7.79368
20
9.92835
30
8.32
0
VERTEX
10
7.80802
20
9.92746
30
8.32
0
VERTEX
10
7.81519
20
9.92835
30
8.32
0
VERTEX
10
7.81878
20
9.92925
30
8.32
0
VERTEX
10
7.82416
20
9.93552
30
8.32
0
VERTEX
10
7.82685
20
9.9427
30
8.32
0
VERTEX
10
7.82685
20
9.94987
30
8.32
0
VERTEX
10
7.82505
20
9.95345
30
8.32
0
VERTEX
10
7.82505
20
9.95704
30
8.32
0
VERTEX
10
7.82147
20
9.96332
30
8.32
0
VERTEX
10
7.81878
20
9.96601
30
8.32
0
VERTEX
10
7.81699
20
9.96601
30
8.32
0
VERTEX
10
7.81519
20
9.96959
30
8.32
0
VERTEX
10
7.80802
20
9.97497
30
8.32
0
VERTEX
10
7.79905
20
9.98663
30
8.32
0
VERTEX
10
7.79547
20
9.98932
30
8.32
0
VERTEX
10
7.78919
20
10.0467
30
8.32
0
VERTEX
10
7.78919
20
10.0539
30
8.32
0
VERTEX
10
7.7865
20
10.0575
30
8.32
0
VERTEX
10
7.7865
20
10.061
30
8.32
0
VERTEX
10
7.78381
20
10.0682
30
8.32
0
VERTEX
10
7.78202
20
10.0969
30
8.32
0
VERTEX
10
7.78112
20
10.1112
30
8.32
0
VERTEX
10
7.77933
20
10.1184
30
8.32
0
VERTEX
10
7.77485
20
10.1256
30
8.32
0
VERTEX
10
7.77216
20
10.1328
30
8.32
0
VERTEX
10
7.76857
20
10.1364
30
8.32
0
VERTEX
10
7.76499
20
10.1381
30
8.32
0
VERTEX
10
7.76319
20
10.1399
30
8.32
0
VERTEX
10
7.74885
20
10.1417
30
8.32
0
VERTEX
10
7.74168
20
10.1426
30
8.32
0
VERTEX
10
7.73988
20
10.1426
30
8.32
0
VERTEX
10
7.7363
20
10.1399
30
8.32
0
VERTEX
10
7.7345
20
10.1381
30
8.32
0
VERTEX
10
7.73181
20
10.1238
30
8.32
0
VERTEX
10
7.73181
20
10.1211
30
8.32
0
SEQEND
0
POLYLINE
62
227
66
1
70
1
3
endoplasmic_reticulum
0
VERTEX
10
7.81161
20
10.0673
30
8.32
0
VERTEX
10
7.8125
20
10.0601
30
8.32
0
VERTEX
10
7.8125
20
10.0566
30
8.32
0
VERTEX
10
7.81699
20
10.0494
30
8.32
0
VERTEX
10
7.81699
20
10.0458
30
8.32
0
VERTEX
10
7.82326
20
10.0395
30
8.32
0
VERTEX
10
7.83043
20
10.035
30
8.32
0
VERTEX
10
7.83402
20
10.0332
30
8.32
0
VERTEX
10
7.83581
20
10.0315
30
8.32
0
VERTEX
10
7.83761
20
10.0315
30
8.32
0
VERTEX
10
7.84119
20
10.0288
30
8.32
0
VERTEX
10
7.84747
20
10.0261
30
8.32
0
VERTEX
10
7.85464
20
10.0207
30
8.32
0
VERTEX
10
7.85823
20
10.0198
30
8.32
0
VERTEX
10
7.87167
20
10.009
30
8.32
0
VERTEX
10
7.87526
20
10.0055
30
8.32
0
VERTEX
10
7.87526
20
10.0037
30
8.32
0
VERTEX
10
7.88781
20
9.99111
30
8.32
0
VERTEX
10
7.8914
20
9.98842
30
8.32
0
VERTEX
10
7.89319
20
9.98483
30
8.32
0
VERTEX
10
7.90754
20
9.98214
30
8.32
0
VERTEX
10
7.92188
20
9.98125
30
8.32
0
VERTEX
10
7.93623
20
9.98394
30
8.32
0
VERTEX
10
7.93981
20
9.98573
30
8.32
0
VERTEX
10
7.94161
20
9.98573
30
8.32
0
VERTEX
10
7.94878
20
9.99021
30
8.32
0
VERTEX
10
7.95147
20
9.9929
30
8.32
0
VERTEX
10
7.95864
20
9.99559
30
8.32
0
VERTEX
10
7.96223
20
9.99739
30
8.32
0
VERTEX
10
7.96581
20
10.001
30
8.32
0
VERTEX
10
7.96761
20
10.001
30
8.32
0
VERTEX
10
7.97478
20
10.0064
30
8.32
0
VERTEX
10
7.97836
20
10.0081
30
8.32
0
VERTEX
10
7.99271
20
10.009
30
8.32
0
VERTEX
10
8.00705
20
10.0081
30
8.32
0
VERTEX
10
8.0214
20
10.009
30
8.32
0
VERTEX
10
8.02857
20
10.0099
30
8.32
0
VERTEX
10
8.03216
20
10.0117
30
8.32
0
VERTEX
10
8.03574
20
10.0117
30
8.32
0
VERTEX
10
8.03664
20
10.0189
30
8.32
0
VERTEX
10
8.03485
20
10.0261
30
8.32
0
VERTEX
10
8.03305
20
10.0297
30
8.32
0
VERTEX
10
8.02588
20
10.035
30
8.32
0
VERTEX
10
8.01871
20
10.0377
30
8.32
0
VERTEX
10
8.01512
20
10.0386
30
8.32
0
VERTEX
10
8.00795
20
10.0449
30
8.32
0
VERTEX
10
8.00078
20
10.0476
30
8.32
0
VERTEX
10
7.97209
20
10.0467
30
8.32
0
VERTEX
10
7.95774
20
10.0431
30
8.32
0
VERTEX
10
7.95057
20
10.0431
30
8.32
0
VERTEX
10
7.9434
20
10.0413
30
8.32
0
VERTEX
10
7.92905
20
10.0422
30
8.32
0
VERTEX
10
7.92188
20
10.0422
30
8.32
0
VERTEX
10
7.9183
20
10.0422
30
8.32
0
VERTEX
10
7.91471
20
10.044
30
8.32
0
VERTEX
10
7.90036
20
10.0449
30
8.32
0
VERTEX
10
7.88692
20
10.0494
30
8.32
0
VERTEX
10
7.88333
20
10.0503
30
8.32
0
VERTEX
10
7.88154
20
10.0521
30
8.32
0
VERTEX
10
7.87974
20
10.0521
30
8.32
0
VERTEX
10
7.87347
20
10.0566
30
8.32
0
VERTEX
10
7.87078
20
10.0601
30
8.32
0
VERTEX
10
7.85823
20
10.0673
30
8.32
0
VERTEX
10
7.85464
20
10.0691
30
8.32
0
VERTEX
10
7.85285
20
10.0709
30
8.32
0
VERTEX
10
7.8385
20
10.0754
30
8.32
0
VERTEX
10
7.82416
20
10.0763
30
8.32
0
VERTEX
10
7.82057
20
10.0763
30
8.32
0
VERTEX
10
7.81519
20
10.07
30
8.32
0
VERTEX
10
7.81161
20
10.0682
30
8.32
0
SEQEND
0
POLYLINE
62
227
66
1
70
1
3
endoplasmic_reticulum
0
VERTEX
10
8.16305
20
10.1525
30
8.32
0
VERTEX
10
8.16664
20
10.1453
30
8.32
0
VERTEX
10
8.17381
20
10.1399
30
8.32
0
VERTEX
10
8.18098
20
10.1399
30
8.32
0
VERTEX
10
8.18278
20
10.1399
30
8.32
0
VERTEX
10
8.18816
20
10.1462
30
8.32
0
VERTEX
10
8.19264
20
10.1507
30
8.32
0
VERTEX
10
8.19353
20
10.1543
30
8.32
0
VERTEX
10
8.19981
20
10.1615
30
8.32
0
VERTEX
10
8.19981
20
10.1632
30
8.32
0
VERTEX
10
8.20609
20
10.1695
30
8.32
0
VERTEX
10
8.20967
20
10.1767
30
8.32
0
VERTEX
10
8.21505
20
10.183
30
8.32
0
VERTEX
10
8.22312
20
10.1973
30
8.32
0
VERTEX
10
8.22671
20
10.2009
30
8.32
0
VERTEX
10
8.23298
20
10.2143
30
8.32
0
VERTEX
10
8.23836
20
10.2215
30
8.32
0
VERTEX
10
8.24016
20
10.2251
30
8.32
0
VERTEX
10
8.24643
20
10.2323
30
8.32
0
VERTEX
10
8.24912
20
10.2359
30
8.32
0
VERTEX
10
8.25271
20
10.2377
30
8.32
0
VERTEX
10
8.2545
20
10.2395
30
8.32
0
VERTEX
10
8.25719
20
10.2466
30
8.32
0
VERTEX
10
8.25719
20
10.261
30
8.32
0
VERTEX
10
8.25719
20
10.2681
30
8.32
0
VERTEX
10
8.2536
20
10.2825
30
8.32
0
VERTEX
10
8.25181
20
10.2861
30
8.32
0
VERTEX
10
8.24822
20
10.2888
30
8.32
0
VERTEX
10
8.24374
20
10.2959
30
8.32
0
VERTEX
10
8.24016
20
10.2986
30
8.32
0
VERTEX
10
8.23298
20
10.3004
30
8.32
0
VERTEX
10
8.2294
20
10.3004
30
8.32
0
VERTEX
10
8.21505
20
10.2932
30
8.32
0
VERTEX
10
8.20788
20
10.2888
30
8.32
0
VERTEX
10
8.2025
20
10.2744
30
8.32
0
VERTEX
10
8.19981
20
10.2708
30
8.32
0
VERTEX
10
8.19802
20
10.2637
30
8.32
0
VERTEX
10
8.19443
20
10.2565
30
8.32
0
VERTEX
10
8.19264
20
10.2493
30
8.32
0
VERTEX
10
8.19264
20
10.235
30
8.32
0
VERTEX
10
8.18905
20
10.2206
30
8.32
0
VERTEX
10
8.18726
20
10.2135
30
8.32
0
VERTEX
10
8.18726
20
10.2099
30
8.32
0
VERTEX
10
8.18188
20
10.1955
30
8.32
0
VERTEX
10
8.17291
20
10.1821
30
8.32
0
VERTEX
10
8.16754
20
10.1758
30
8.32
0
VERTEX
10
8.16574
20
10.1722
30
8.32
0
VERTEX
10
8.16395
20
10.1704
30
8.32
0
VERTEX
10
8.16305
20
10.1561
30
8.32
0
VERTEX
10
8.16305
20
10.1534
30
8.32
0
SEQEND
0
POLYLINE
62
227
66
1
70
1
3
endoplasmic_reticulum
0
VERTEX
10
8.13705
20
10.0628
30
8.32
0
VERTEX
10
8.14333
20
10.0566
30
8.32
0
VERTEX
10
8.14691
20
10.0592
30
8.32
0
VERTEX
10
8.15409
20
10.0592
30
8.32
0
VERTEX
10
8.16126
20
10.061
30
8.32
0
VERTEX
10
8.16395
20
10.0628
30
8.32
0
VERTEX
10
8.16754
20
10.0691
30
8.32
0
VERTEX
10
8.16843
20
10.0763
30
8.32
0
VERTEX
10
8.17471
20
10.0906
30
8.32
0
VERTEX
10
8.17471
20
10.0924
30
8.32
0
VERTEX
10
8.1774
20
10.096
30
8.32
0
VERTEX
10
8.1774
20
10.1032
30
8.32
0
VERTEX
10
8.1774
20
10.105
30
8.32
0
VERTEX
10
8.17381
20
10.1086
30
8.32
0
VERTEX
10
8.17022
20
10.1104
30
8.32
0
VERTEX
10
8.16843
20
10.1121
30
8.32
0
VERTEX
10
8.16126
20
10.113
30
8.32
0
VERTEX
10
8.14691
20
10.1068
30
8.32
0
VERTEX
10
8.14512
20
10.105
30
8.32
0
VERTEX
10
8.14243
20
10.0906
30
8.32
0
VERTEX
10
8.14154
20
10.087
30
8.32
0
VERTEX
10
8.13974
20
10.0861
30
8.32
0
VERTEX
10
8.13974
20
10.079
30
8.32
0
VERTEX
10
8.13974
20
10.0754
30
8.32
0
VERTEX
10
8.13705
20
10.0682
30
8.32
0
VERTEX
10
8.13705
20
10.0646
30
8.32
0
VERTEX
10
8.13705
20
10.0637
30
8.32
0
SEQEND
0
POLYLINE
62
227
66
1
70
1
3
endoplasmic_reticulum
0
VERTEX
10
8.10029
20
10.3381
30
8.32
0
VERTEX
10
8.10119
20
10.3309
30
8.32
0
VERTEX
10
8.10388
20
10.3237
30
8.32
0
VERTEX
10
8.10926
20
10.3166
30
8.32
0
VERTEX
10
8.10926
20
10.3148
30
8.32
0
VERTEX
10
8.11733
20
10.3004
30
8.32
0
VERTEX
10
8.11733
20
10.2932
30
8.32
0
VERTEX
10
8.11912
20
10.2915
30
8.32
0
VERTEX
10
8.12181
20
10.2341
30
8.32
0
VERTEX
10
8.12002
20
10.2269
30
8.32
0
VERTEX
10
8.12002
20
10.2233
30
8.32
0
VERTEX
10
8.12002
20
10.2215
30
8.32
0
VERTEX
10
8.12271
20
10.2179
30
8.32
0
VERTEX
10
8.12271
20
10.2108
30
8.32
0
VERTEX
10
8.12809
20
10.1964
30
8.32
0
VERTEX
10
8.12898
20
10.1928
30
8.32
0
VERTEX
10
8.13167
20
10.1892
30
8.32
0
VERTEX
10
8.13885
20
10.1883
30
8.32
0
VERTEX
10
8.14243
20
10.1883
30
8.32
0
VERTEX
10
8.14422
20
10.1883
30
8.32
0
VERTEX
10
8.14691
20
10.1955
30
8.32
0
VERTEX
10
8.14781
20
10.2242
30
8.32
0
VERTEX
10
8.14781
20
10.2314
30
8.32
0
VERTEX
10
8.1496
20
10.2386
30
8.32
0
VERTEX
10
8.15229
20
10.2421
30
8.32
0
VERTEX
10
8.15588
20
10.243
30
8.32
0
VERTEX
10
8.15767
20
10.243
30
8.32
0
VERTEX
10
8.15947
20
10.2466
30
8.32
0
VERTEX
10
8.16036
20
10.2753
30
8.32
0
VERTEX
10
8.16126
20
10.2897
30
8.32
0
VERTEX
10
8.16126
20
10.2932
30
8.32
0
VERTEX
10
8.1774
20
10.3201
30
8.32
0
VERTEX
10
8.18098
20
10.3219
30
8.32
0
VERTEX
10
8.18188
20
10.3291
30
8.32
0
VERTEX
10
8.1774
20
10.3363
30
8.32
0
VERTEX
10
8.17471
20
10.3399
30
8.32
0
VERTEX
10
8.17112
20
10.3417
30
8.32
0
VERTEX
10
8.16933
20
10.3435
30
8.32
0
VERTEX
10
8.16574
20
10.3435
30
8.32
0
VERTEX
10
8.16216
20
10.3452
30
8.32
0
VERTEX
10
8.15498
20
10.3443
30
8.32
0
VERTEX
10
8.14781
20
10.3452
30
8.32
0
VERTEX
10
8.14602
20
10.3452
30
8.32
0
VERTEX
10
8.13257
20
10.3551
30
8.32
0
VERTEX
10
8.12898
20
10.3569
30
8.32
0
VERTEX
10
8.12719
20
10.3569
30
8.32
0
VERTEX
10
8.1245
20
10.3596
30
8.32
0
VERTEX
10
8.11016
20
10.3587
30
8.32
0
VERTEX
10
8.10567
20
10.3524
30
8.32
0
VERTEX
10
8.10209
20
10.3506
30
8.32
0
VERTEX
10
8.10029
20
10.3488
30
8.32
0
VERTEX
10
8.10029
20
10.3417
30
8.32
0
VERTEX
10
8.10029
20
10.339
30
8.32
0
SEQEND
0
POLYLINE
62
31
66
1
70
1
3
contour
0
VERTEX
10
7.40249
20
9.68696
30
8.32
0
VERTEX
10
7.40616
20
9.67961
30
8.32
0
VERTEX
10
7.408
20
9.65023
30
8.32
0
VERTEX
10
7.41167
20
9.64289
30
8.32
0
VERTEX
10
7.42453
20
9.63003
30
8.32
0
VERTEX
10
7.43922
20
9.62452
30
8.32
0
VERTEX
10
7.44656
20
9.62269
30
8.32
0
VERTEX
10
7.45024
20
9.61901
30
8.32
0
VERTEX
10
7.47962
20
9.61534
30
8.32
0
VERTEX
10
7.49431
20
9.61534
30
8.32
0
VERTEX
10
7.50165
20
9.61534
30
8.32
0
VERTEX
10
7.509
20
9.61167
30
8.32
0
VERTEX
10
7.56776
20
9.60983
30
8.32
0
VERTEX
10
7.59715
20
9.61167
30
8.32
0
VERTEX
10
7.61184
20
9.61534
30
8.32
0
VERTEX
10
7.6706
20
9.6135
30
8.32
0
VERTEX
10
7.72937
20
9.61534
30
8.32
0
VERTEX
10
7.75875
20
9.62085
30
8.32
0
VERTEX
10
7.76793
20
9.62819
30
8.32
0
VERTEX
10
7.78262
20
9.6337
30
8.32
0
VERTEX
10
7.78997
20
9.63554
30
8.32
0
VERTEX
10
7.79731
20
9.64105
30
8.32
0
VERTEX
10
7.80099
20
9.64289
30
8.32
0
VERTEX
10
7.80099
20
9.65023
30
8.32
0
VERTEX
10
7.81384
20
9.6686
30
8.32
0
VERTEX
10
7.81384
20
9.67227
30
8.32
0
VERTEX
10
7.82302
20
9.68512
30
8.32
0
VERTEX
10
7.82486
20
9.6888
30
8.32
0
VERTEX
10
7.82853
20
9.6888
30
8.32
0
VERTEX
10
7.84139
20
9.70349
30
8.32
0
VERTEX
10
7.86893
20
9.72185
30
8.32
0
VERTEX
10
7.86893
20
9.72552
30
8.32
0
VERTEX
10
7.88179
20
9.73471
30
8.32
0
VERTEX
10
7.88546
20
9.74021
30
8.32
0
VERTEX
10
7.90015
20
9.74205
30
8.32
0
VERTEX
10
7.91117
20
9.75123
30
8.32
0
VERTEX
10
7.92402
20
9.76409
30
8.32
0
VERTEX
10
7.9277
20
9.76409
30
8.32
0
VERTEX
10
7.93872
20
9.77878
30
8.32
0
VERTEX
10
7.95157
20
9.80816
30
8.32
0
VERTEX
10
7.96075
20
9.82285
30
8.32
0
VERTEX
10
7.96075
20
9.8302
30
8.32
0
VERTEX
10
7.96443
20
9.83387
30
8.32
0
VERTEX
10
7.96626
20
9.84856
30
8.32
0
VERTEX
10
7.96443
20
9.85591
30
8.32
0
VERTEX
10
7.96993
20
9.86876
30
8.32
0
VERTEX
10
7.97912
20
9.88162
30
8.32
0
VERTEX
10
7.98279
20
9.88896
30
8.32
0
VERTEX
10
7.99013
20
9.89631
30
8.32
0
VERTEX
10
7.99013
20
9.89998
30
8.32
0
VERTEX
10
8.01584
20
9.92202
30
8.32
0
VERTEX
10
8.03604
20
9.94589
30
8.32
0
VERTEX
10
8.06543
20
9.96609
30
8.32
0
VERTEX
10
8.07828
20
9.97527
30
8.32
0
VERTEX
10
8.08563
20
9.97711
30
8.32
0
VERTEX
10
8.0893
20
9.97711
30
8.32
0
VERTEX
10
8.09114
20
9.98078
30
8.32
0
VERTEX
10
8.09848
20
9.98078
30
8.32
0
VERTEX
10
8.10583
20
9.98445
30
8.32
0
VERTEX
10
8.11317
20
9.98262
30
8.32
0
VERTEX
10
8.12603
20
9.98813
30
8.32
0
VERTEX
10
8.14072
20
9.99731
30
8.32
0
VERTEX
10
8.14806
20
9.99915
30
8.32
0
VERTEX
10
8.16276
20
10.0083
30
8.32
0
VERTEX
10
8.1701
20
10.0102
30
8.32
0
VERTEX
10
8.17377
20
10.0138
30
8.32
0
VERTEX
10
8.18846
20
10.0157
30
8.32
0
VERTEX
10
8.19214
20
10.023
30
8.32
0
VERTEX
10
8.19581
20
10.023
30
8.32
0
VERTEX
10
8.20683
20
10.034
30
8.32
0
VERTEX
10
8.22152
20
10.0395
30
8.32
0
VERTEX
10
8.24723
20
10.0597
30
8.32
0
VERTEX
10
8.25274
20
10.0744
30
8.32
0
VERTEX
10
8.25274
20
10.0818
30
8.32
0
VERTEX
10
8.25825
20
10.0873
30
8.32
0
VERTEX
10
8.25825
20
10.102
30
8.32
0
VERTEX
10
8.26192
20
10.102
30
8.32
0
VERTEX
10
8.26376
20
10.1093
30
8.32
0
VERTEX
10
8.27294
20
10.1185
30
8.32
0
VERTEX
10
8.28028
20
10.1203
30
8.32
0
VERTEX
10
8.30416
20
10.1405
30
8.32
0
VERTEX
10
8.32068
20
10.1681
30
8.32
0
VERTEX
10
8.32987
20
10.1828
30
8.32
0
VERTEX
10
8.34272
20
10.1956
30
8.32
0
VERTEX
10
8.34639
20
10.2103
30
8.32
0
VERTEX
10
8.34456
20
10.2397
30
8.32
0
VERTEX
10
8.34272
20
10.2544
30
8.32
0
VERTEX
10
8.33905
20
10.2617
30
8.32
0
VERTEX
10
8.33905
20
10.2654
30
8.32
0
VERTEX
10
8.32436
20
10.2764
30
8.32
0
VERTEX
10
8.31885
20
10.2838
30
8.32
0
VERTEX
10
8.3115
20
10.2856
30
8.32
0
VERTEX
10
8.31334
20
10.293
30
8.32
0
VERTEX
10
8.30416
20
10.304
30
8.32
0
VERTEX
10
8.2913
20
10.315
30
8.32
0
VERTEX
10
8.28212
20
10.3279
30
8.32
0
VERTEX
10
8.27661
20
10.3352
30
8.32
0
VERTEX
10
8.26192
20
10.3407
30
8.32
0
VERTEX
10
8.24723
20
10.3499
30
8.32
0
VERTEX
10
8.24356
20
10.3517
30
8.32
0
VERTEX
10
8.24356
20
10.3554
30
8.32
0
VERTEX
10
8.23988
20
10.3591
30
8.32
0
VERTEX
10
8.23621
20
10.3591
30
8.32
0
VERTEX
10
8.2307
20
10.3664
30
8.32
0
VERTEX
10
8.21601
20
10.3738
30
8.32
0
VERTEX
10
8.2105
20
10.3811
30
8.32
0
VERTEX
10
8.19581
20
10.3866
30
8.32
0
VERTEX
10
8.18479
20
10.4013
30
8.32
0
VERTEX
10
8.17745
20
10.4087
30
8.32
0
VERTEX
10
8.14806
20
10.4289
30
8.32
0
VERTEX
10
8.14439
20
10.4289
30
8.32
0
VERTEX
10
8.09848
20
10.4711
30
8.32
0
VERTEX
10
8.08379
20
10.484
30
8.32
0
VERTEX
10
8.07828
20
10.4913
30
8.32
0
VERTEX
10
8.0489
20
10.5005
30
8.32
0
VERTEX
10
8.01952
20
10.5023
30
8.32
0
VERTEX
10
7.99013
20
10.4968
30
8.32
0
VERTEX
10
7.97544
20
10.495
30
8.32
0
VERTEX
10
7.9681
20
10.4913
30
8.32
0
VERTEX
10
7.95341
20
10.4895
30
8.32
0
VERTEX
10
7.94055
20
10.4803
30
8.32
0
VERTEX
10
7.93321
20
10.4784
30
8.32
0
VERTEX
10
7.91852
20
10.4693
30
8.32
0
VERTEX
10
7.91301
20
10.4638
30
8.32
0
VERTEX
10
7.90566
20
10.4619
30
8.32
0
VERTEX
10
7.90199
20
10.4582
30
8.32
0
VERTEX
10
7.84322
20
10.4564
30
8.32
0
VERTEX
10
7.82853
20
10.4564
30
8.32
0
VERTEX
10
7.79915
20
10.4472
30
8.32
0
VERTEX
10
7.7918
20
10.4417
30
8.32
0
VERTEX
10
7.78813
20
10.438
30
8.32
0
VERTEX
10
7.77344
20
10.4362
30
8.32
0
VERTEX
10
7.74406
20
10.4234
30
8.32
0
VERTEX
10
7.7312
20
10.4105
30
8.32
0
VERTEX
10
7.72386
20
10.4032
30
8.32
0
VERTEX
10
7.711
20
10.3958
30
8.32
0
VERTEX
10
7.69631
20
10.383
30
8.32
0
VERTEX
10
7.68897
20
10.3738
30
8.32
0
VERTEX
10
7.68897
20
10.3701
30
8.32
0
VERTEX
10
7.67795
20
10.3591
30
8.32
0
VERTEX
10
7.6706
20
10.3536
30
8.32
0
VERTEX
10
7.66142
20
10.3407
30
8.32
0
VERTEX
10
7.65775
20
10.326
30
8.32
0
VERTEX
10
7.64857
20
10.3113
30
8.32
0
VERTEX
10
7.64306
20
10.304
30
8.32
0
VERTEX
10
7.63938
20
10.3003
30
8.32
0
VERTEX
10
7.63387
20
10.2856
30
8.32
0
VERTEX
10
7.63387
20
10.2709
30
8.32
0
VERTEX
10
7.64122
20
10.2415
30
8.32
0
VERTEX
10
7.64489
20
10.2269
30
8.32
0
VERTEX
10
7.64673
20
10.2195
30
8.32
0
VERTEX
10
7.65591
20
10.2067
30
8.32
0
VERTEX
10
7.65775
20
10.192
30
8.32
0
VERTEX
10
7.66326
20
10.1846
30
8.32
0
VERTEX
10
7.66326
20
10.1809
30
8.32
0
VERTEX
10
7.66877
20
10.1736
30
8.32
0
VERTEX
10
7.67795
20
10.1442
30
8.32
0
VERTEX
10
7.68713
20
10.0855
30
8.32
0
VERTEX
10
7.68713
20
10.0781
30
8.32
0
VERTEX
10
7.69448
20
10.0634
30
8.32
0
VERTEX
10
7.69815
20
10.0561
30
8.32
0
VERTEX
10
7.69815
20
10.0487
30
8.32
0
VERTEX
10
7.70549
20
10.0432
30
8.32
0
VERTEX
10
7.70366
20
10.0359
30
8.32
0
VERTEX
10
7.70733
20
10.0065
30
8.32
0
VERTEX
10
7.70733
20
9.94773
30
8.32
0
VERTEX
10
7.70549
20
9.91834
30
8.32
0
VERTEX
10
7.70182
20
9.90365
30
8.32
0
VERTEX
10
7.69815
20
9.89631
30
8.32
0
VERTEX
10
7.69815
20
9.88896
30
8.32
0
VERTEX
10
7.69264
20
9.88162
30
8.32
0
VERTEX
10
7.67795
20
9.87243
30
8.32
0
VERTEX
10
7.65775
20
9.84856
30
8.32
0
VERTEX
10
7.64306
20
9.83387
30
8.32
0
VERTEX
10
7.63755
20
9.82653
30
8.32
0
VERTEX
10
7.6302
20
9.82469
30
8.32
0
VERTEX
10
7.62653
20
9.82469
30
8.32
0
VERTEX
10
7.62469
20
9.82102
30
8.32
0
VERTEX
10
7.56593
20
9.81734
30
8.32
0
VERTEX
10
7.55858
20
9.81551
30
8.32
0
VERTEX
10
7.55307
20
9.81
30
8.32
0
VERTEX
10
7.53838
20
9.80816
30
8.32
0
VERTEX
10
7.52369
20
9.80265
30
8.32
0
VERTEX
10
7.49431
20
9.80082
30
8.32
0
VERTEX
10
7.47962
20
9.80082
30
8.32
0
VERTEX
10
7.47778
20
9.79714
30
8.32
0
VERTEX
10
7.4484
20
9.78796
30
8.32
0
VERTEX
10
7.43371
20
9.77694
30
8.32
0
VERTEX
10
7.43371
20
9.77327
30
8.32
0
VERTEX
10
7.42085
20
9.76225
30
8.32
0
VERTEX
10
7.42085
20
9.75858
30
8.32
0
VERTEX
10
7.41718
20
9.75491
30
8.32
0
VERTEX
10
7.41718
20
9.75123
30
8.32
0
VERTEX
10
7.41167
20
9.74572
30
8.32
0
VERTEX
10
7.40433
20
9.71634
30
8.32
0
VERTEX
10
7.40249
20
9.6888
30
8.32
0
SEQEND
0
ENDSEC
0
EOF
