0
SECTION
2
ENTITIES
0
POLYLINE
62
31
66
1
70
1
3
contour
0
VERTEX
10
6.91992
20
10.7734
30
10.24
0
VERTEX
10
6.93112
20
10.7436
30
10.24
0
VERTEX
10
6.94977
20
10.7138
30
10.24
0
VERTEX
10
6.97588
20
10.6914
30
10.24
0
VERTEX
10
6.9908
20
10.6765
30
10.24
0
VERTEX
10
6.9908
20
10.669
30
10.24
0
VERTEX
10
7.02065
20
10.6578
30
10.24
0
VERTEX
10
7.03557
20
10.6503
30
10.24
0
VERTEX
10
7.04303
20
10.6503
30
10.24
0
VERTEX
10
7.05795
20
10.6392
30
10.24
0
VERTEX
10
7.08779
20
10.6429
30
10.24
0
VERTEX
10
7.09525
20
10.6429
30
10.24
0
VERTEX
10
7.10271
20
10.6354
30
10.24
0
VERTEX
10
7.34146
20
10.628
30
10.24
0
VERTEX
10
7.40115
20
10.6168
30
10.24
0
VERTEX
10
7.46083
20
10.613
30
10.24
0
VERTEX
10
7.49068
20
10.6205
30
10.24
0
VERTEX
10
7.52052
20
10.6205
30
10.24
0
VERTEX
10
7.55036
20
10.628
30
10.24
0
VERTEX
10
7.56529
20
10.628
30
10.24
0
VERTEX
10
7.58021
20
10.6354
30
10.24
0
VERTEX
10
7.58767
20
10.6429
30
10.24
0
VERTEX
10
7.59513
20
10.6727
30
10.24
0
VERTEX
10
7.60259
20
10.6876
30
10.24
0
VERTEX
10
7.60259
20
10.6951
30
10.24
0
VERTEX
10
7.62124
20
10.7249
30
10.24
0
VERTEX
10
7.63243
20
10.7399
30
10.24
0
VERTEX
10
7.63243
20
10.7473
30
10.24
0
VERTEX
10
7.63989
20
10.7511
30
10.24
0
VERTEX
10
7.64363
20
10.8107
30
10.24
0
VERTEX
10
7.63616
20
10.8704
30
10.24
0
VERTEX
10
7.58767
20
10.9227
30
10.24
0
VERTEX
10
7.58021
20
10.9227
30
10.24
0
VERTEX
10
7.55783
20
10.945
30
10.24
0
VERTEX
10
7.53171
20
10.96
30
10.24
0
VERTEX
10
7.50933
20
10.9861
30
10.24
0
VERTEX
10
7.49441
20
11.0122
30
10.24
0
VERTEX
10
7.4683
20
11.0383
30
10.24
0
VERTEX
10
7.43845
20
11.0271
30
10.24
0
VERTEX
10
7.42353
20
11.0234
30
10.24
0
VERTEX
10
7.40861
20
11.0122
30
10.24
0
VERTEX
10
7.39369
20
11.0085
30
10.24
0
VERTEX
10
7.36384
20
10.9898
30
10.24
0
VERTEX
10
7.34519
20
10.9749
30
10.24
0
VERTEX
10
7.31535
20
10.9637
30
10.24
0
VERTEX
10
7.28551
20
10.945
30
10.24
0
VERTEX
10
7.27058
20
10.9413
30
10.24
0
VERTEX
10
7.26312
20
10.9376
30
10.24
0
VERTEX
10
7.26312
20
10.9301
30
10.24
0
VERTEX
10
7.25566
20
10.9227
30
10.24
0
VERTEX
10
7.22582
20
10.9264
30
10.24
0
VERTEX
10
7.19598
20
10.9189
30
10.24
0
VERTEX
10
7.18105
20
10.9152
30
10.24
0
VERTEX
10
7.16986
20
10.904
30
10.24
0
VERTEX
10
7.11018
20
10.8854
30
10.24
0
VERTEX
10
7.08033
20
10.8816
30
10.24
0
VERTEX
10
7.05049
20
10.8704
30
10.24
0
VERTEX
10
7.04676
20
10.8555
30
10.24
0
VERTEX
10
7.03184
20
10.8443
30
10.24
0
VERTEX
10
7.00199
20
10.8369
30
10.24
0
VERTEX
10
6.99826
20
10.8294
30
10.24
0
VERTEX
10
6.96842
20
10.8219
30
10.24
0
VERTEX
10
6.9535
20
10.8219
30
10.24
0
VERTEX
10
6.93858
20
10.8145
30
10.24
0
VERTEX
10
6.92365
20
10.8145
30
10.24
0
VERTEX
10
6.91992
20
10.7846
30
10.24
0
VERTEX
10
6.91992
20
10.7772
30
10.24
0
SEQEND
0
POLYLINE
62
227
66
1
70
1
3
endoplasmic_reticulum
0
VERTEX
10
7.47988
20
10.677
30
10.24
0
VERTEX
10
7.48526
20
10.6698
30
10.24
0
VERTEX
10
7.48706
20
10.668
30
10.24
0
VERTEX
10
7.48885
20
10.668
30
10.24
0
VERTEX
10
7.49602
20
10.6626
30
10.24
0
VERTEX
10
7.51037
20
10.6626
30
10.24
0
VERTEX
10
7.51754
20
10.6653
30
10.24
0
VERTEX
10
7.52113
20
10.6662
30
10.24
0
VERTEX
10
7.52471
20
10.6689
30
10.24
0
VERTEX
10
7.5283
20
10.6698
30
10.24
0
VERTEX
10
7.53009
20
10.6716
30
10.24
0
VERTEX
10
7.53188
20
10.6716
30
10.24
0
VERTEX
10
7.53547
20
10.6752
30
10.24
0
VERTEX
10
7.53637
20
10.6788
30
10.24
0
VERTEX
10
7.54354
20
10.685
30
10.24
0
VERTEX
10
7.54354
20
10.6994
30
10.24
0
VERTEX
10
7.53726
20
10.7128
30
10.24
0
VERTEX
10
7.53547
20
10.7137
30
10.24
0
VERTEX
10
7.50678
20
10.7083
30
10.24
0
VERTEX
10
7.49244
20
10.7057
30
10.24
0
VERTEX
10
7.48706
20
10.7003
30
10.24
0
VERTEX
10
7.48437
20
10.6967
30
10.24
0
VERTEX
10
7.48257
20
10.6949
30
10.24
0
VERTEX
10
7.47988
20
10.6806
30
10.24
0
VERTEX
10
7.47988
20
10.6779
30
10.24
0
SEQEND
0
POLYLINE
62
227
66
1
70
1
3
endoplasmic_reticulum
0
VERTEX
10
7.11051
20
10.7801
30
10.24
0
VERTEX
10
7.11678
20
10.7738
30
10.24
0
VERTEX
10
7.11858
20
10.7729
30
10.24
0
VERTEX
10
7.12396
20
10.7586
30
10.24
0
VERTEX
10
7.12665
20
10.7514
30
10.24
0
VERTEX
10
7.12933
20
10.7487
30
10.24
0
VERTEX
10
7.13651
20
10.7496
30
10.24
0
VERTEX
10
7.14009
20
10.7505
30
10.24
0
VERTEX
10
7.14189
20
10.7523
30
10.24
0
VERTEX
10
7.17058
20
10.7523
30
10.24
0
VERTEX
10
7.18492
20
10.7523
30
10.24
0
VERTEX
10
7.19927
20
10.7568
30
10.24
0
VERTEX
10
7.20644
20
10.7612
30
10.24
0
VERTEX
10
7.20733
20
10.7648
30
10.24
0
VERTEX
10
7.21361
20
10.7693
30
10.24
0
VERTEX
10
7.21899
20
10.7756
30
10.24
0
VERTEX
10
7.22168
20
10.7792
30
10.24
0
VERTEX
10
7.22347
20
10.7792
30
10.24
0
VERTEX
10
7.22975
20
10.7837
30
10.24
0
VERTEX
10
7.23602
20
10.7899
30
10.24
0
VERTEX
10
7.23961
20
10.7908
30
10.24
0
VERTEX
10
7.2414
20
10.7926
30
10.24
0
VERTEX
10
7.24858
20
10.7944
30
10.24
0
VERTEX
10
7.25037
20
10.7962
30
10.24
0
VERTEX
10
7.26471
20
10.798
30
10.24
0
VERTEX
10
7.2934
20
10.798
30
10.24
0
VERTEX
10
7.2952
20
10.7998
30
10.24
0
VERTEX
10
7.30954
20
10.8052
30
10.24
0
VERTEX
10
7.32209
20
10.8132
30
10.24
0
VERTEX
10
7.32926
20
10.8159
30
10.24
0
VERTEX
10
7.33195
20
10.8186
30
10.24
0
VERTEX
10
7.33913
20
10.8204
30
10.24
0
VERTEX
10
7.34271
20
10.8231
30
10.24
0
VERTEX
10
7.34989
20
10.8249
30
10.24
0
VERTEX
10
7.35706
20
10.8294
30
10.24
0
VERTEX
10
7.35975
20
10.833
30
10.24
0
VERTEX
10
7.36154
20
10.8339
30
10.24
0
VERTEX
10
7.36154
20
10.8357
30
10.24
0
VERTEX
10
7.36423
20
10.8383
30
10.24
0
VERTEX
10
7.36513
20
10.8527
30
10.24
0
VERTEX
10
7.36333
20
10.8599
30
10.24
0
VERTEX
10
7.36244
20
10.8634
30
10.24
0
VERTEX
10
7.35616
20
10.8679
30
10.24
0
VERTEX
10
7.34182
20
10.8733
30
10.24
0
VERTEX
10
7.33464
20
10.8733
30
10.24
0
VERTEX
10
7.33106
20
10.8733
30
10.24
0
VERTEX
10
7.32837
20
10.8751
30
10.24
0
VERTEX
10
7.31402
20
10.8751
30
10.24
0
VERTEX
10
7.30685
20
10.8751
30
10.24
0
VERTEX
10
7.29968
20
10.8769
30
10.24
0
VERTEX
10
7.27099
20
10.8787
30
10.24
0
VERTEX
10
7.26382
20
10.8778
30
10.24
0
VERTEX
10
7.25844
20
10.8724
30
10.24
0
VERTEX
10
7.25126
20
10.8706
30
10.24
0
VERTEX
10
7.24409
20
10.8706
30
10.24
0
VERTEX
10
7.24051
20
10.8706
30
10.24
0
VERTEX
10
7.23333
20
10.867
30
10.24
0
VERTEX
10
7.23244
20
10.8652
30
10.24
0
VERTEX
10
7.22527
20
10.8634
30
10.24
0
VERTEX
10
7.21809
20
10.8599
30
10.24
0
VERTEX
10
7.21361
20
10.8545
30
10.24
0
VERTEX
10
7.20733
20
10.85
30
10.24
0
VERTEX
10
7.20554
20
10.8473
30
10.24
0
VERTEX
10
7.19837
20
10.8428
30
10.24
0
VERTEX
10
7.18492
20
10.8312
30
10.24
0
VERTEX
10
7.18133
20
10.8303
30
10.24
0
VERTEX
10
7.18044
20
10.8285
30
10.24
0
VERTEX
10
7.17327
20
10.8267
30
10.24
0
VERTEX
10
7.17147
20
10.8249
30
10.24
0
VERTEX
10
7.16789
20
10.824
30
10.24
0
VERTEX
10
7.15444
20
10.8159
30
10.24
0
VERTEX
10
7.14906
20
10.8088
30
10.24
0
VERTEX
10
7.14547
20
10.8079
30
10.24
0
VERTEX
10
7.13202
20
10.7962
30
10.24
0
VERTEX
10
7.12844
20
10.7944
30
10.24
0
VERTEX
10
7.12127
20
10.7935
30
10.24
0
VERTEX
10
7.11858
20
10.7908
30
10.24
0
VERTEX
10
7.11499
20
10.7899
30
10.24
0
VERTEX
10
7.1114
20
10.7863
30
10.24
0
VERTEX
10
7.11051
20
10.7828
30
10.24
0
VERTEX
10
7.11051
20
10.781
30
10.24
0
SEQEND
0
POLYLINE
62
227
66
1
70
1
3
endoplasmic_reticulum
0
VERTEX
10
7.26561
20
10.7469
30
10.24
0
VERTEX
10
7.26651
20
10.7433
30
10.24
0
VERTEX
10
7.27189
20
10.737
30
10.24
0
VERTEX
10
7.27458
20
10.7352
30
10.24
0
VERTEX
10
7.30326
20
10.737
30
10.24
0
VERTEX
10
7.31761
20
10.737
30
10.24
0
VERTEX
10
7.32478
20
10.7343
30
10.24
0
VERTEX
10
7.32657
20
10.7326
30
10.24
0
VERTEX
10
7.33016
20
10.7326
30
10.24
0
VERTEX
10
7.33375
20
10.7308
30
10.24
0
VERTEX
10
7.34809
20
10.7317
30
10.24
0
VERTEX
10
7.35526
20
10.7326
30
10.24
0
VERTEX
10
7.35706
20
10.7335
30
10.24
0
VERTEX
10
7.35706
20
10.737
30
10.24
0
VERTEX
10
7.36154
20
10.7415
30
10.24
0
VERTEX
10
7.36064
20
10.7559
30
10.24
0
VERTEX
10
7.35975
20
10.763
30
10.24
0
VERTEX
10
7.35526
20
10.7702
30
10.24
0
VERTEX
10
7.34361
20
10.7801
30
10.24
0
VERTEX
10
7.34002
20
10.7828
30
10.24
0
VERTEX
10
7.33644
20
10.7837
30
10.24
0
VERTEX
10
7.33464
20
10.7854
30
10.24
0
VERTEX
10
7.3203
20
10.7854
30
10.24
0
VERTEX
10
7.31671
20
10.7846
30
10.24
0
VERTEX
10
7.31492
20
10.7846
30
10.24
0
VERTEX
10
7.31223
20
10.781
30
10.24
0
VERTEX
10
7.29789
20
10.7783
30
10.24
0
VERTEX
10
7.2943
20
10.7765
30
10.24
0
VERTEX
10
7.27995
20
10.7756
30
10.24
0
VERTEX
10
7.27816
20
10.7756
30
10.24
0
VERTEX
10
7.27637
20
10.7738
30
10.24
0
VERTEX
10
7.27458
20
10.7738
30
10.24
0
VERTEX
10
7.2692
20
10.7675
30
10.24
0
VERTEX
10
7.2683
20
10.7639
30
10.24
0
VERTEX
10
7.26561
20
10.7612
30
10.24
0
VERTEX
10
7.26561
20
10.7478
30
10.24
0
SEQEND
0
POLYLINE
62
227
66
1
70
1
3
endoplasmic_reticulum
0
VERTEX
10
7.39382
20
10.7765
30
10.24
0
VERTEX
10
7.39561
20
10.7693
30
10.24
0
VERTEX
10
7.39651
20
10.7657
30
10.24
0
VERTEX
10
7.40099
20
10.7586
30
10.24
0
VERTEX
10
7.40457
20
10.7559
30
10.24
0
VERTEX
10
7.40637
20
10.7559
30
10.24
0
VERTEX
10
7.40995
20
10.7532
30
10.24
0
VERTEX
10
7.41354
20
10.7523
30
10.24
0
VERTEX
10
7.41533
20
10.7505
30
10.24
0
VERTEX
10
7.42968
20
10.7478
30
10.24
0
VERTEX
10
7.43685
20
10.7496
30
10.24
0
VERTEX
10
7.44044
20
10.7505
30
10.24
0
VERTEX
10
7.44402
20
10.7532
30
10.24
0
VERTEX
10
7.45119
20
10.7541
30
10.24
0
VERTEX
10
7.45478
20
10.7541
30
10.24
0
VERTEX
10
7.46913
20
10.7603
30
10.24
0
VERTEX
10
7.47271
20
10.7621
30
10.24
0
VERTEX
10
7.4763
20
10.7621
30
10.24
0
VERTEX
10
7.47988
20
10.7657
30
10.24
0
VERTEX
10
7.48437
20
10.7729
30
10.24
0
VERTEX
10
7.48616
20
10.7765
30
10.24
0
VERTEX
10
7.48975
20
10.7783
30
10.24
0
VERTEX
10
7.49064
20
10.7819
30
10.24
0
VERTEX
10
7.49692
20
10.7863
30
10.24
0
VERTEX
10
7.50857
20
10.798
30
10.24
0
VERTEX
10
7.51216
20
10.7998
30
10.24
0
VERTEX
10
7.51664
20
10.8061
30
10.24
0
VERTEX
10
7.52292
20
10.8106
30
10.24
0
VERTEX
10
7.5274
20
10.8177
30
10.24
0
VERTEX
10
7.52919
20
10.8213
30
10.24
0
VERTEX
10
7.5283
20
10.8285
30
10.24
0
VERTEX
10
7.5265
20
10.8321
30
10.24
0
VERTEX
10
7.51933
20
10.8348
30
10.24
0
VERTEX
10
7.51306
20
10.8419
30
10.24
0
VERTEX
10
7.50857
20
10.8482
30
10.24
0
VERTEX
10
7.5023
20
10.8536
30
10.24
0
VERTEX
10
7.49513
20
10.8554
30
10.24
0
VERTEX
10
7.48078
20
10.8652
30
10.24
0
VERTEX
10
7.47719
20
10.8652
30
10.24
0
VERTEX
10
7.4754
20
10.8652
30
10.24
0
VERTEX
10
7.47182
20
10.8617
30
10.24
0
VERTEX
10
7.45747
20
10.8536
30
10.24
0
VERTEX
10
7.45119
20
10.8482
30
10.24
0
VERTEX
10
7.44851
20
10.8473
30
10.24
0
VERTEX
10
7.44582
20
10.8446
30
10.24
0
VERTEX
10
7.44402
20
10.8446
30
10.24
0
VERTEX
10
7.43057
20
10.8348
30
10.24
0
VERTEX
10
7.4234
20
10.8294
30
10.24
0
VERTEX
10
7.42161
20
10.8285
30
10.24
0
VERTEX
10
7.42161
20
10.8267
30
10.24
0
VERTEX
10
7.41802
20
10.824
30
10.24
0
VERTEX
10
7.41713
20
10.8222
30
10.24
0
VERTEX
10
7.41354
20
10.8213
30
10.24
0
VERTEX
10
7.40726
20
10.815
30
10.24
0
VERTEX
10
7.40547
20
10.8123
30
10.24
0
VERTEX
10
7.40188
20
10.8097
30
10.24
0
VERTEX
10
7.40188
20
10.8079
30
10.24
0
VERTEX
10
7.3992
20
10.8043
30
10.24
0
VERTEX
10
7.39471
20
10.7899
30
10.24
0
VERTEX
10
7.39382
20
10.7828
30
10.24
0
VERTEX
10
7.39382
20
10.7792
30
10.24
0
VERTEX
10
7.39382
20
10.7774
30
10.24
0
SEQEND
0
POLYLINE
62
227
66
1
70
1
3
endoplasmic_reticulum
0
VERTEX
10
7.49423
20
10.737
30
10.24
0
VERTEX
10
7.49871
20
10.7308
30
10.24
0
VERTEX
10
7.5014
20
10.7281
30
10.24
0
VERTEX
10
7.50857
20
10.7281
30
10.24
0
VERTEX
10
7.52292
20
10.7317
30
10.24
0
VERTEX
10
7.52471
20
10.7335
30
10.24
0
VERTEX
10
7.53188
20
10.7352
30
10.24
0
VERTEX
10
7.53368
20
10.737
30
10.24
0
VERTEX
10
7.53726
20
10.7379
30
10.24
0
VERTEX
10
7.53995
20
10.7415
30
10.24
0
VERTEX
10
7.54175
20
10.7487
30
10.24
0
VERTEX
10
7.54085
20
10.763
30
10.24
0
VERTEX
10
7.53995
20
10.7666
30
10.24
0
VERTEX
10
7.53278
20
10.7729
30
10.24
0
VERTEX
10
7.5283
20
10.7801
30
10.24
0
VERTEX
10
7.52561
20
10.7828
30
10.24
0
VERTEX
10
7.52202
20
10.7819
30
10.24
0
VERTEX
10
7.51395
20
10.7693
30
10.24
0
VERTEX
10
7.5023
20
10.7577
30
10.24
0
VERTEX
10
7.49961
20
10.755
30
10.24
0
VERTEX
10
7.49961
20
10.7532
30
10.24
0
VERTEX
10
7.49782
20
10.7523
30
10.24
0
VERTEX
10
7.49782
20
10.7487
30
10.24
0
VERTEX
10
7.49602
20
10.7451
30
10.24
0
VERTEX
10
7.49602
20
10.7415
30
10.24
0
VERTEX
10
7.49423
20
10.7397
30
10.24
0
VERTEX
10
7.49423
20
10.7379
30
10.24
0
SEQEND
0
POLYLINE
62
31
66
1
70
1
3
contour
0
VERTEX
10
6.58481
20
10.4285
30
10.24
0
VERTEX
10
6.59356
20
10.3935
30
10.24
0
VERTEX
10
6.6045
20
10.3782
30
10.24
0
VERTEX
10
6.61981
20
10.3672
30
10.24
0
VERTEX
10
6.62856
20
10.3672
30
10.24
0
VERTEX
10
6.63732
20
10.3629
30
10.24
0
VERTEX
10
6.64607
20
10.3629
30
10.24
0
VERTEX
10
6.67888
20
10.341
30
10.24
0
VERTEX
10
6.68326
20
10.3366
30
10.24
0
VERTEX
10
6.70076
20
10.3301
30
10.24
0
VERTEX
10
6.70951
20
10.3301
30
10.24
0
VERTEX
10
6.72701
20
10.3191
30
10.24
0
VERTEX
10
6.76201
20
10.3169
30
10.24
0
VERTEX
10
6.77951
20
10.3191
30
10.24
0
VERTEX
10
6.78389
20
10.3191
30
10.24
0
VERTEX
10
6.78826
20
10.3235
30
10.24
0
VERTEX
10
6.79701
20
10.3235
30
10.24
0
VERTEX
10
6.81233
20
10.3322
30
10.24
0
VERTEX
10
6.82108
20
10.3388
30
10.24
0
VERTEX
10
6.82326
20
10.3476
30
10.24
0
VERTEX
10
6.82983
20
10.3563
30
10.24
0
VERTEX
10
6.83202
20
10.3651
30
10.24
0
VERTEX
10
6.83858
20
10.3738
30
10.24
0
VERTEX
10
6.85827
20
10.4438
30
10.24
0
VERTEX
10
6.86045
20
10.4526
30
10.24
0
VERTEX
10
6.86483
20
10.4569
30
10.24
0
VERTEX
10
6.86921
20
10.4919
30
10.24
0
VERTEX
10
6.86921
20
10.5269
30
10.24
0
VERTEX
10
6.86264
20
10.5444
30
10.24
0
VERTEX
10
6.85827
20
10.5488
30
10.24
0
VERTEX
10
6.85827
20
10.5532
30
10.24
0
VERTEX
10
6.85389
20
10.5576
30
10.24
0
VERTEX
10
6.84952
20
10.5576
30
10.24
0
VERTEX
10
6.8342
20
10.5751
30
10.24
0
VERTEX
10
6.82326
20
10.5904
30
10.24
0
VERTEX
10
6.81014
20
10.6013
30
10.24
0
VERTEX
10
6.80576
20
10.6101
30
10.24
0
VERTEX
10
6.79701
20
10.6166
30
10.24
0
VERTEX
10
6.76201
20
10.6232
30
10.24
0
VERTEX
10
6.72701
20
10.6188
30
10.24
0
VERTEX
10
6.71826
20
10.6166
30
10.24
0
VERTEX
10
6.68763
20
10.5882
30
10.24
0
VERTEX
10
6.67888
20
10.5838
30
10.24
0
VERTEX
10
6.67451
20
10.5751
30
10.24
0
VERTEX
10
6.64388
20
10.551
30
10.24
0
VERTEX
10
6.62856
20
10.5379
30
10.24
0
VERTEX
10
6.61325
20
10.5204
30
10.24
0
VERTEX
10
6.6045
20
10.5073
30
10.24
0
VERTEX
10
6.60013
20
10.5051
30
10.24
0
VERTEX
10
6.60013
20
10.4963
30
10.24
0
VERTEX
10
6.59575
20
10.4941
30
10.24
0
VERTEX
10
6.58919
20
10.4591
30
10.24
0
VERTEX
10
6.58481
20
10.4416
30
10.24
0
VERTEX
10
6.58481
20
10.4329
30
10.24
0
VERTEX
10
6.58481
20
10.4307
30
10.24
0
SEQEND
0
POLYLINE
62
236
66
1
70
1
3
postsynaptic_density
0
VERTEX
10
6.15802
20
10.5154
30
10.24
0
VERTEX
10
6.16316
20
10.4948
30
10.24
0
VERTEX
10
6.16444
20
10.4743
30
10.24
0
VERTEX
10
6.16444
20
10.464
30
10.24
0
VERTEX
10
6.16958
20
10.4435
30
10.24
0
VERTEX
10
6.17343
20
10.4332
30
10.24
0
VERTEX
10
6.17856
20
10.4307
30
10.24
0
VERTEX
10
6.18113
20
10.4281
30
10.24
0
VERTEX
10
6.18626
20
10.4268
30
10.24
0
VERTEX
10
6.19011
20
10.423
30
10.24
0
VERTEX
10
6.21065
20
10.423
30
10.24
0
VERTEX
10
6.23118
20
10.4268
30
10.24
0
VERTEX
10
6.25172
20
10.4268
30
10.24
0
VERTEX
10
6.26198
20
10.4294
30
10.24
0
VERTEX
10
6.26712
20
10.4294
30
10.24
0
VERTEX
10
6.26969
20
10.4294
30
10.24
0
VERTEX
10
6.27354
20
10.4332
30
10.24
0
VERTEX
10
6.27867
20
10.4345
30
10.24
0
VERTEX
10
6.28124
20
10.4448
30
10.24
0
VERTEX
10
6.29022
20
10.464
30
10.24
0
VERTEX
10
6.29407
20
10.4743
30
10.24
0
VERTEX
10
6.29664
20
10.4769
30
10.24
0
VERTEX
10
6.30177
20
10.4974
30
10.24
0
VERTEX
10
6.30434
20
10.5179
30
10.24
0
VERTEX
10
6.30434
20
10.5231
30
10.24
0
VERTEX
10
6.30049
20
10.5333
30
10.24
0
VERTEX
10
6.2915
20
10.5423
30
10.24
0
VERTEX
10
6.28894
20
10.5474
30
10.24
0
VERTEX
10
6.27097
20
10.559
30
10.24
0
VERTEX
10
6.2607
20
10.5654
30
10.24
0
VERTEX
10
6.25813
20
10.568
30
10.24
0
VERTEX
10
6.2376
20
10.5705
30
10.24
0
VERTEX
10
6.22733
20
10.5718
30
10.24
0
VERTEX
10
6.21706
20
10.5705
30
10.24
0
VERTEX
10
6.21193
20
10.5731
30
10.24
0
VERTEX
10
6.19139
20
10.5757
30
10.24
0
VERTEX
10
6.16316
20
10.5346
30
10.24
0
VERTEX
10
6.15931
20
10.5295
30
10.24
0
VERTEX
10
6.15802
20
10.5192
30
10.24
0
VERTEX
10
6.15802
20
10.5166
30
10.24
0
SEQEND
0
POLYLINE
62
31
66
1
70
1
3
contour
0
VERTEX
10
6.21118
20
10.4695
30
10.24
0
VERTEX
10
6.21862
20
10.4234
30
10.24
0
VERTEX
10
6.22308
20
10.3996
30
10.24
0
VERTEX
10
6.23795
20
10.3758
30
10.24
0
VERTEX
10
6.23944
20
10.3698
30
10.24
0
VERTEX
10
6.24688
20
10.3594
30
10.24
0
VERTEX
10
6.25432
20
10.352
30
10.24
0
VERTEX
10
6.25432
20
10.349
30
10.24
0
VERTEX
10
6.26473
20
10.3386
30
10.24
0
VERTEX
10
6.27068
20
10.3371
30
10.24
0
VERTEX
10
6.2796
20
10.3282
30
10.24
0
VERTEX
10
6.3034
20
10.3118
30
10.24
0
VERTEX
10
6.3272
20
10.3118
30
10.24
0
VERTEX
10
6.33909
20
10.3118
30
10.24
0
VERTEX
10
6.36289
20
10.3178
30
10.24
0
VERTEX
10
6.37479
20
10.3192
30
10.24
0
VERTEX
10
6.39859
20
10.3297
30
10.24
0
VERTEX
10
6.41049
20
10.3297
30
10.24
0
VERTEX
10
6.42239
20
10.3341
30
10.24
0
VERTEX
10
6.43131
20
10.3416
30
10.24
0
VERTEX
10
6.43726
20
10.346
30
10.24
0
VERTEX
10
6.43875
20
10.349
30
10.24
0
VERTEX
10
6.4447
20
10.349
30
10.24
0
VERTEX
10
6.46552
20
10.3654
30
10.24
0
VERTEX
10
6.48337
20
10.3847
30
10.24
0
VERTEX
10
6.49527
20
10.3936
30
10.24
0
VERTEX
10
6.50122
20
10.3936
30
10.24
0
VERTEX
10
6.51312
20
10.3996
30
10.24
0
VERTEX
10
6.51906
20
10.4115
30
10.24
0
VERTEX
10
6.52204
20
10.4144
30
10.24
0
VERTEX
10
6.53245
20
10.4382
30
10.24
0
VERTEX
10
6.53394
20
10.4442
30
10.24
0
VERTEX
10
6.53691
20
10.4472
30
10.24
0
VERTEX
10
6.54435
20
10.471
30
10.24
0
VERTEX
10
6.54584
20
10.4829
30
10.24
0
VERTEX
10
6.55476
20
10.5067
30
10.24
0
VERTEX
10
6.55774
20
10.5096
30
10.24
0
VERTEX
10
6.56517
20
10.5334
30
10.24
0
VERTEX
10
6.56666
20
10.5453
30
10.24
0
VERTEX
10
6.56666
20
10.5513
30
10.24
0
VERTEX
10
6.56963
20
10.5572
30
10.24
0
VERTEX
10
6.57261
20
10.5587
30
10.24
0
VERTEX
10
6.57261
20
10.5647
30
10.24
0
VERTEX
10
6.57707
20
10.5691
30
10.24
0
VERTEX
10
6.57856
20
10.5751
30
10.24
0
VERTEX
10
6.58451
20
10.578
30
10.24
0
VERTEX
10
6.586
20
10.581
30
10.24
0
VERTEX
10
6.58897
20
10.581
30
10.24
0
VERTEX
10
6.59194
20
10.584
30
10.24
0
VERTEX
10
6.60384
20
10.5855
30
10.24
0
VERTEX
10
6.61426
20
10.5929
30
10.24
0
VERTEX
10
6.6202
20
10.5959
30
10.24
0
VERTEX
10
6.62615
20
10.5959
30
10.24
0
VERTEX
10
6.6321
20
10.5989
30
10.24
0
VERTEX
10
6.63359
20
10.6018
30
10.24
0
VERTEX
10
6.63657
20
10.6018
30
10.24
0
VERTEX
10
6.64698
20
10.6123
30
10.24
0
VERTEX
10
6.65293
20
10.6137
30
10.24
0
VERTEX
10
6.66185
20
10.6227
30
10.24
0
VERTEX
10
6.66631
20
10.6286
30
10.24
0
VERTEX
10
6.67226
20
10.6301
30
10.24
0
VERTEX
10
6.67672
20
10.6361
30
10.24
0
VERTEX
10
6.6797
20
10.6361
30
10.24
0
VERTEX
10
6.70201
20
10.6554
30
10.24
0
VERTEX
10
6.71242
20
10.6628
30
10.24
0
VERTEX
10
6.71986
20
10.6747
30
10.24
0
VERTEX
10
6.72432
20
10.6792
30
10.24
0
VERTEX
10
6.73027
20
10.6807
30
10.24
0
VERTEX
10
6.73919
20
10.6911
30
10.24
0
VERTEX
10
6.74217
20
10.7149
30
10.24
0
VERTEX
10
6.74217
20
10.7208
30
10.24
0
VERTEX
10
6.73473
20
10.7283
30
10.24
0
VERTEX
10
6.73027
20
10.7268
30
10.24
0
VERTEX
10
6.73176
20
10.7253
30
10.24
0
VERTEX
10
6.72581
20
10.7253
30
10.24
0
VERTEX
10
6.71986
20
10.7283
30
10.24
0
VERTEX
10
6.67226
20
10.7283
30
10.24
0
VERTEX
10
6.62467
20
10.7238
30
10.24
0
VERTEX
10
6.60087
20
10.7208
30
10.24
0
VERTEX
10
6.58897
20
10.7193
30
10.24
0
VERTEX
10
6.58302
20
10.7179
30
10.24
0
VERTEX
10
6.57856
20
10.7134
30
10.24
0
VERTEX
10
6.55476
20
10.7119
30
10.24
0
VERTEX
10
6.54286
20
10.7074
30
10.24
0
VERTEX
10
6.49527
20
10.7045
30
10.24
0
VERTEX
10
6.44767
20
10.7045
30
10.24
0
VERTEX
10
6.43577
20
10.703
30
10.24
0
VERTEX
10
6.42982
20
10.7
30
10.24
0
VERTEX
10
6.40603
20
10.7
30
10.24
0
VERTEX
10
6.35843
20
10.6941
30
10.24
0
VERTEX
10
6.34653
20
10.6926
30
10.24
0
VERTEX
10
6.33463
20
10.6881
30
10.24
0
VERTEX
10
6.32868
20
10.6866
30
10.24
0
VERTEX
10
6.32422
20
10.6822
30
10.24
0
VERTEX
10
6.30042
20
10.6762
30
10.24
0
VERTEX
10
6.28852
20
10.6718
30
10.24
0
VERTEX
10
6.28258
20
10.6703
30
10.24
0
VERTEX
10
6.27216
20
10.6599
30
10.24
0
VERTEX
10
6.2677
20
10.6554
30
10.24
0
VERTEX
10
6.2677
20
10.6524
30
10.24
0
VERTEX
10
6.25134
20
10.6286
30
10.24
0
VERTEX
10
6.23795
20
10.6048
30
10.24
0
VERTEX
10
6.23498
20
10.5929
30
10.24
0
VERTEX
10
6.23498
20
10.5899
30
10.24
0
VERTEX
10
6.22606
20
10.578
30
10.24
0
VERTEX
10
6.21862
20
10.5543
30
10.24
0
VERTEX
10
6.21267
20
10.5424
30
10.24
0
VERTEX
10
6.21118
20
10.4948
30
10.24
0
VERTEX
10
6.21118
20
10.471
30
10.24
0
SEQEND
0
ENDSEC
0
EOF
