0
SECTION
2
ENTITIES
0
POLYLINE
62
31
66
1
70
1
3
contour
0
VERTEX
10
6.93858
20
10.7175
30
10.12
0
VERTEX
10
6.9535
20
10.6876
30
10.12
0
VERTEX
10
6.96096
20
10.6876
30
10.12
0
VERTEX
10
6.98707
20
10.6653
30
10.12
0
VERTEX
10
7.00199
20
10.6541
30
10.12
0
VERTEX
10
7.01692
20
10.6541
30
10.12
0
VERTEX
10
7.04676
20
10.6354
30
10.12
0
VERTEX
10
7.05422
20
10.6354
30
10.12
0
VERTEX
10
7.06168
20
10.628
30
10.12
0
VERTEX
10
7.09152
20
10.6242
30
10.12
0
VERTEX
10
7.09898
20
10.6242
30
10.12
0
VERTEX
10
7.10645
20
10.6168
30
10.12
0
VERTEX
10
7.16613
20
10.6056
30
10.12
0
VERTEX
10
7.22582
20
10.5869
30
10.12
0
VERTEX
10
7.24074
20
10.5795
30
10.12
0
VERTEX
10
7.36011
20
10.5795
30
10.12
0
VERTEX
10
7.4198
20
10.5795
30
10.12
0
VERTEX
10
7.47949
20
10.5869
30
10.12
0
VERTEX
10
7.49441
20
10.5869
30
10.12
0
VERTEX
10
7.50187
20
10.5869
30
10.12
0
VERTEX
10
7.54663
20
10.6317
30
10.12
0
VERTEX
10
7.57275
20
10.6541
30
10.12
0
VERTEX
10
7.58394
20
10.6653
30
10.12
0
VERTEX
10
7.58394
20
10.6802
30
10.12
0
VERTEX
10
7.60259
20
10.7026
30
10.12
0
VERTEX
10
7.61005
20
10.71
30
10.12
0
VERTEX
10
7.61005
20
10.7399
30
10.12
0
VERTEX
10
7.61005
20
10.7473
30
10.12
0
VERTEX
10
7.61751
20
10.7511
30
10.12
0
VERTEX
10
7.61751
20
10.766
30
10.12
0
VERTEX
10
7.62497
20
10.7697
30
10.12
0
VERTEX
10
7.62124
20
10.8294
30
10.12
0
VERTEX
10
7.62124
20
10.8369
30
10.12
0
VERTEX
10
7.59886
20
10.8555
30
10.12
0
VERTEX
10
7.5914
20
10.8704
30
10.12
0
VERTEX
10
7.5914
20
10.8779
30
10.12
0
VERTEX
10
7.57648
20
10.8854
30
10.12
0
VERTEX
10
7.56902
20
10.8891
30
10.12
0
VERTEX
10
7.56902
20
10.8965
30
10.12
0
VERTEX
10
7.5541
20
10.9077
30
10.12
0
VERTEX
10
7.51306
20
10.9637
30
10.12
0
VERTEX
10
7.47203
20
11.0122
30
10.12
0
VERTEX
10
7.46083
20
11.0271
30
10.12
0
VERTEX
10
7.46083
20
11.0346
30
10.12
0
VERTEX
10
7.40115
20
11.042
30
10.12
0
VERTEX
10
7.39742
20
11.0346
30
10.12
0
VERTEX
10
7.27804
20
11.0234
30
10.12
0
VERTEX
10
7.26312
20
11.0159
30
10.12
0
VERTEX
10
7.25939
20
11.0085
30
10.12
0
VERTEX
10
7.25193
20
11.0085
30
10.12
0
VERTEX
10
7.19971
20
10.9674
30
10.12
0
VERTEX
10
7.15121
20
10.9115
30
10.12
0
VERTEX
10
7.14375
20
10.8965
30
10.12
0
VERTEX
10
7.12883
20
10.8928
30
10.12
0
VERTEX
10
7.1251
20
10.8854
30
10.12
0
VERTEX
10
7.11764
20
10.8854
30
10.12
0
VERTEX
10
7.10645
20
10.8704
30
10.12
0
VERTEX
10
7.09152
20
10.863
30
10.12
0
VERTEX
10
7.06168
20
10.8592
30
10.12
0
VERTEX
10
7.00199
20
10.8145
30
10.12
0
VERTEX
10
6.96096
20
10.7548
30
10.12
0
VERTEX
10
6.95723
20
10.7399
30
10.12
0
VERTEX
10
6.94604
20
10.7249
30
10.12
0
VERTEX
10
6.94231
20
10.7361
30
10.12
0
VERTEX
10
6.93858
20
10.7212
30
10.12
0
SEQEND
0
POLYLINE
62
224
66
1
70
1
3
mitochondrion
0
VERTEX
10
7.16906
20
10.7842
30
10.12
0
VERTEX
10
7.17184
20
10.7814
30
10.12
0
VERTEX
10
7.17184
20
10.7703
30
10.12
0
VERTEX
10
7.17184
20
10.7675
30
10.12
0
VERTEX
10
7.17462
20
10.7647
30
10.12
0
VERTEX
10
7.17462
20
10.7619
30
10.12
0
VERTEX
10
7.17879
20
10.7564
30
10.12
0
VERTEX
10
7.18435
20
10.7536
30
10.12
0
VERTEX
10
7.18574
20
10.7508
30
10.12
0
VERTEX
10
7.20799
20
10.7466
30
10.12
0
VERTEX
10
7.21911
20
10.7466
30
10.12
0
VERTEX
10
7.23024
20
10.7508
30
10.12
0
VERTEX
10
7.23858
20
10.7605
30
10.12
0
VERTEX
10
7.2497
20
10.7689
30
10.12
0
VERTEX
10
7.25665
20
10.7786
30
10.12
0
VERTEX
10
7.26082
20
10.7897
30
10.12
0
VERTEX
10
7.25804
20
10.812
30
10.12
0
VERTEX
10
7.25804
20
10.8175
30
10.12
0
VERTEX
10
7.25109
20
10.8287
30
10.12
0
VERTEX
10
7.2497
20
10.8328
30
10.12
0
VERTEX
10
7.24553
20
10.8384
30
10.12
0
VERTEX
10
7.22328
20
10.8454
30
10.12
0
VERTEX
10
7.21216
20
10.844
30
10.12
0
VERTEX
10
7.18991
20
10.8328
30
10.12
0
VERTEX
10
7.18157
20
10.8217
30
10.12
0
VERTEX
10
7.17184
20
10.7995
30
10.12
0
VERTEX
10
7.16906
20
10.7883
30
10.12
0
VERTEX
10
7.16906
20
10.7856
30
10.12
0
SEQEND
0
POLYLINE
62
227
66
1
70
1
3
endoplasmic_reticulum
0
VERTEX
10
7.47271
20
10.659
30
10.12
0
VERTEX
10
7.47719
20
10.6519
30
10.12
0
VERTEX
10
7.47899
20
10.6519
30
10.12
0
VERTEX
10
7.48526
20
10.6456
30
10.12
0
VERTEX
10
7.48885
20
10.6429
30
10.12
0
VERTEX
10
7.49154
20
10.6438
30
10.12
0
VERTEX
10
7.49333
20
10.642
30
10.12
0
VERTEX
10
7.5005
20
10.642
30
10.12
0
VERTEX
10
7.50409
20
10.642
30
10.12
0
VERTEX
10
7.50768
20
10.6438
30
10.12
0
VERTEX
10
7.50947
20
10.6465
30
10.12
0
VERTEX
10
7.51664
20
10.6501
30
10.12
0
VERTEX
10
7.51844
20
10.6537
30
10.12
0
VERTEX
10
7.51844
20
10.6572
30
10.12
0
VERTEX
10
7.52113
20
10.6608
30
10.12
0
VERTEX
10
7.52381
20
10.668
30
10.12
0
VERTEX
10
7.52471
20
10.6707
30
10.12
0
VERTEX
10
7.53099
20
10.677
30
10.12
0
VERTEX
10
7.53816
20
10.6797
30
10.12
0
VERTEX
10
7.54085
20
10.6815
30
10.12
0
VERTEX
10
7.55071
20
10.6958
30
10.12
0
VERTEX
10
7.5534
20
10.6994
30
10.12
0
VERTEX
10
7.55519
20
10.7012
30
10.12
0
VERTEX
10
7.55519
20
10.703
30
10.12
0
VERTEX
10
7.55788
20
10.7066
30
10.12
0
VERTEX
10
7.55878
20
10.7209
30
10.12
0
VERTEX
10
7.55878
20
10.7245
30
10.12
0
VERTEX
10
7.5534
20
10.729
30
10.12
0
VERTEX
10
7.54623
20
10.7326
30
10.12
0
VERTEX
10
7.54085
20
10.7388
30
10.12
0
VERTEX
10
7.53816
20
10.7415
30
10.12
0
VERTEX
10
7.53457
20
10.7415
30
10.12
0
VERTEX
10
7.53278
20
10.7397
30
10.12
0
VERTEX
10
7.52919
20
10.7397
30
10.12
0
VERTEX
10
7.52561
20
10.7379
30
10.12
0
VERTEX
10
7.52202
20
10.7379
30
10.12
0
VERTEX
10
7.51844
20
10.7361
30
10.12
0
VERTEX
10
7.50409
20
10.7343
30
10.12
0
VERTEX
10
7.5005
20
10.7343
30
10.12
0
VERTEX
10
7.49692
20
10.7326
30
10.12
0
VERTEX
10
7.49513
20
10.7317
30
10.12
0
VERTEX
10
7.49602
20
10.7173
30
10.12
0
VERTEX
10
7.49692
20
10.7101
30
10.12
0
VERTEX
10
7.49692
20
10.7083
30
10.12
0
VERTEX
10
7.49513
20
10.7075
30
10.12
0
VERTEX
10
7.49423
20
10.7003
30
10.12
0
VERTEX
10
7.49244
20
10.6967
30
10.12
0
VERTEX
10
7.49244
20
10.6931
30
10.12
0
VERTEX
10
7.48975
20
10.6904
30
10.12
0
VERTEX
10
7.48795
20
10.6904
30
10.12
0
VERTEX
10
7.48616
20
10.6886
30
10.12
0
VERTEX
10
7.47899
20
10.6859
30
10.12
0
VERTEX
10
7.4745
20
10.6806
30
10.12
0
VERTEX
10
7.47271
20
10.6788
30
10.12
0
VERTEX
10
7.47271
20
10.6644
30
10.12
0
VERTEX
10
7.47271
20
10.6608
30
10.12
0
VERTEX
10
7.47271
20
10.6599
30
10.12
0
SEQEND
0
POLYLINE
62
227
66
1
70
1
3
endoplasmic_reticulum
0
VERTEX
10
7.09258
20
10.7066
30
10.12
0
VERTEX
10
7.09706
20
10.7003
30
10.12
0
VERTEX
10
7.10423
20
10.6958
30
10.12
0
VERTEX
10
7.11858
20
10.6922
30
10.12
0
VERTEX
10
7.13292
20
10.6913
30
10.12
0
VERTEX
10
7.13651
20
10.6913
30
10.12
0
VERTEX
10
7.15085
20
10.7003
30
10.12
0
VERTEX
10
7.15444
20
10.703
30
10.12
0
VERTEX
10
7.15354
20
10.7101
30
10.12
0
VERTEX
10
7.15264
20
10.7137
30
10.12
0
VERTEX
10
7.1392
20
10.7227
30
10.12
0
VERTEX
10
7.13202
20
10.7254
30
10.12
0
VERTEX
10
7.10333
20
10.7281
30
10.12
0
VERTEX
10
7.09975
20
10.7281
30
10.12
0
VERTEX
10
7.09616
20
10.7254
30
10.12
0
VERTEX
10
7.09437
20
10.7218
30
10.12
0
VERTEX
10
7.09258
20
10.72
30
10.12
0
VERTEX
10
7.09258
20
10.7128
30
10.12
0
VERTEX
10
7.09258
20
10.7092
30
10.12
0
VERTEX
10
7.09258
20
10.7075
30
10.12
0
SEQEND
0
POLYLINE
62
227
66
1
70
1
3
endoplasmic_reticulum
0
VERTEX
10
7.10333
20
10.8088
30
10.12
0
VERTEX
10
7.10513
20
10.8016
30
10.12
0
VERTEX
10
7.10961
20
10.7944
30
10.12
0
VERTEX
10
7.1123
20
10.7908
30
10.12
0
VERTEX
10
7.11947
20
10.789
30
10.12
0
VERTEX
10
7.12665
20
10.789
30
10.12
0
VERTEX
10
7.13382
20
10.7908
30
10.12
0
VERTEX
10
7.13382
20
10.7926
30
10.12
0
VERTEX
10
7.1374
20
10.7935
30
10.12
0
VERTEX
10
7.1392
20
10.8007
30
10.12
0
VERTEX
10
7.1392
20
10.8079
30
10.12
0
VERTEX
10
7.1392
20
10.8114
30
10.12
0
VERTEX
10
7.13651
20
10.8186
30
10.12
0
VERTEX
10
7.12933
20
10.824
30
10.12
0
VERTEX
10
7.11499
20
10.8276
30
10.12
0
VERTEX
10
7.10782
20
10.8249
30
10.12
0
VERTEX
10
7.10602
20
10.8249
30
10.12
0
VERTEX
10
7.10333
20
10.8177
30
10.12
0
VERTEX
10
7.10333
20
10.8106
30
10.12
0
VERTEX
10
7.10333
20
10.8097
30
10.12
0
SEQEND
0
POLYLINE
62
227
66
1
70
1
3
endoplasmic_reticulum
0
VERTEX
10
7.23513
20
10.9002
30
10.12
0
VERTEX
10
7.23782
20
10.8966
30
10.12
0
VERTEX
10
7.23961
20
10.8966
30
10.12
0
VERTEX
10
7.2414
20
10.8948
30
10.12
0
VERTEX
10
7.24858
20
10.8921
30
10.12
0
VERTEX
10
7.25216
20
10.8903
30
10.12
0
VERTEX
10
7.25933
20
10.8894
30
10.12
0
VERTEX
10
7.26292
20
10.8894
30
10.12
0
VERTEX
10
7.26471
20
10.8894
30
10.12
0
VERTEX
10
7.26651
20
10.8877
30
10.12
0
VERTEX
10
7.27368
20
10.8877
30
10.12
0
VERTEX
10
7.28085
20
10.8859
30
10.12
0
VERTEX
10
7.2952
20
10.8859
30
10.12
0
VERTEX
10
7.30954
20
10.8877
30
10.12
0
VERTEX
10
7.31671
20
10.8877
30
10.12
0
VERTEX
10
7.32299
20
10.8921
30
10.12
0
VERTEX
10
7.32837
20
10.8984
30
10.12
0
VERTEX
10
7.33106
20
10.902
30
10.12
0
VERTEX
10
7.33464
20
10.9038
30
10.12
0
VERTEX
10
7.33644
20
10.9074
30
10.12
0
VERTEX
10
7.35078
20
10.9146
30
10.12
0
VERTEX
10
7.35795
20
10.9199
30
10.12
0
VERTEX
10
7.36423
20
10.9271
30
10.12
0
VERTEX
10
7.37051
20
10.9316
30
10.12
0
VERTEX
10
7.38126
20
10.9432
30
10.12
0
VERTEX
10
7.38216
20
10.9468
30
10.12
0
VERTEX
10
7.38395
20
10.9477
30
10.12
0
VERTEX
10
7.38485
20
10.9513
30
10.12
0
VERTEX
10
7.38933
20
10.9558
30
10.12
0
VERTEX
10
7.38933
20
10.963
30
10.12
0
VERTEX
10
7.38754
20
10.9639
30
10.12
0
VERTEX
10
7.38754
20
10.9674
30
10.12
0
VERTEX
10
7.38575
20
10.9692
30
10.12
0
VERTEX
10
7.37857
20
10.9701
30
10.12
0
VERTEX
10
7.3714
20
10.9737
30
10.12
0
VERTEX
10
7.35706
20
10.9746
30
10.12
0
VERTEX
10
7.34989
20
10.9701
30
10.12
0
VERTEX
10
7.34809
20
10.9701
30
10.12
0
VERTEX
10
7.34182
20
10.9648
30
10.12
0
VERTEX
10
7.33823
20
10.9621
30
10.12
0
VERTEX
10
7.33644
20
10.9621
30
10.12
0
VERTEX
10
7.30864
20
10.9459
30
10.12
0
VERTEX
10
7.30147
20
10.9406
30
10.12
0
VERTEX
10
7.29789
20
10.9388
30
10.12
0
VERTEX
10
7.29609
20
10.9388
30
10.12
0
VERTEX
10
7.28982
20
10.9334
30
10.12
0
VERTEX
10
7.28623
20
10.9325
30
10.12
0
VERTEX
10
7.28444
20
10.9325
30
10.12
0
VERTEX
10
7.28354
20
10.9307
30
10.12
0
VERTEX
10
7.28175
20
10.9307
30
10.12
0
VERTEX
10
7.27637
20
10.9244
30
10.12
0
VERTEX
10
7.27278
20
10.9208
30
10.12
0
VERTEX
10
7.27099
20
10.9208
30
10.12
0
VERTEX
10
7.2692
20
10.919
30
10.12
0
VERTEX
10
7.26561
20
10.9181
30
10.12
0
VERTEX
10
7.25844
20
10.9137
30
10.12
0
VERTEX
10
7.25485
20
10.9119
30
10.12
0
VERTEX
10
7.25216
20
10.9083
30
10.12
0
VERTEX
10
7.24499
20
10.9065
30
10.12
0
VERTEX
10
7.23782
20
10.9083
30
10.12
0
VERTEX
10
7.23602
20
10.9092
30
10.12
0
VERTEX
10
7.23513
20
10.902
30
10.12
0
VERTEX
10
7.23513
20
10.9011
30
10.12
0
SEQEND
0
POLYLINE
62
227
66
1
70
1
3
endoplasmic_reticulum
0
VERTEX
10
7.47092
20
10.7568
30
10.12
0
VERTEX
10
7.47271
20
10.7532
30
10.12
0
VERTEX
10
7.47271
20
10.746
30
10.12
0
VERTEX
10
7.47271
20
10.7424
30
10.12
0
VERTEX
10
7.47719
20
10.7361
30
10.12
0
VERTEX
10
7.48437
20
10.7361
30
10.12
0
VERTEX
10
7.49154
20
10.7397
30
10.12
0
VERTEX
10
7.49423
20
10.7415
30
10.12
0
VERTEX
10
7.49602
20
10.7406
30
10.12
0
VERTEX
10
7.5005
20
10.746
30
10.12
0
VERTEX
10
7.50499
20
10.7532
30
10.12
0
VERTEX
10
7.50768
20
10.7603
30
10.12
0
VERTEX
10
7.50678
20
10.7747
30
10.12
0
VERTEX
10
7.50499
20
10.7765
30
10.12
0
VERTEX
10
7.50319
20
10.7828
30
10.12
0
VERTEX
10
7.49692
20
10.789
30
10.12
0
VERTEX
10
7.49782
20
10.7962
30
10.12
0
VERTEX
10
7.50678
20
10.8097
30
10.12
0
VERTEX
10
7.50768
20
10.8132
30
10.12
0
VERTEX
10
7.50768
20
10.815
30
10.12
0
VERTEX
10
7.50947
20
10.8168
30
10.12
0
VERTEX
10
7.51037
20
10.824
30
10.12
0
VERTEX
10
7.51037
20
10.8276
30
10.12
0
VERTEX
10
7.51037
20
10.8294
30
10.12
0
VERTEX
10
7.50499
20
10.8357
30
10.12
0
VERTEX
10
7.5014
20
10.8392
30
10.12
0
VERTEX
10
7.49782
20
10.8401
30
10.12
0
VERTEX
10
7.49064
20
10.8374
30
10.12
0
VERTEX
10
7.48795
20
10.8339
30
10.12
0
VERTEX
10
7.48616
20
10.8195
30
10.12
0
VERTEX
10
7.48616
20
10.8123
30
10.12
0
VERTEX
10
7.48616
20
10.8088
30
10.12
0
VERTEX
10
7.48616
20
10.807
30
10.12
0
VERTEX
10
7.48437
20
10.8052
30
10.12
0
VERTEX
10
7.48257
20
10.7908
30
10.12
0
VERTEX
10
7.48257
20
10.7872
30
10.12
0
VERTEX
10
7.4763
20
10.781
30
10.12
0
VERTEX
10
7.47271
20
10.7666
30
10.12
0
VERTEX
10
7.47092
20
10.763
30
10.12
0
VERTEX
10
7.47092
20
10.7594
30
10.12
0
VERTEX
10
7.47092
20
10.7577
30
10.12
0
SEQEND
0
POLYLINE
62
227
66
1
70
1
3
endoplasmic_reticulum
0
VERTEX
10
7.40099
20
10.7577
30
10.12
0
VERTEX
10
7.40368
20
10.7505
30
10.12
0
VERTEX
10
7.40816
20
10.7451
30
10.12
0
VERTEX
10
7.41533
20
10.7424
30
10.12
0
VERTEX
10
7.42251
20
10.7379
30
10.12
0
VERTEX
10
7.42968
20
10.7379
30
10.12
0
VERTEX
10
7.43685
20
10.7397
30
10.12
0
VERTEX
10
7.43864
20
10.7406
30
10.12
0
VERTEX
10
7.43864
20
10.7424
30
10.12
0
VERTEX
10
7.44133
20
10.7451
30
10.12
0
VERTEX
10
7.44223
20
10.7487
30
10.12
0
VERTEX
10
7.44492
20
10.7523
30
10.12
0
VERTEX
10
7.44671
20
10.7594
30
10.12
0
VERTEX
10
7.4494
20
10.763
30
10.12
0
VERTEX
10
7.4494
20
10.7666
30
10.12
0
VERTEX
10
7.45388
20
10.7738
30
10.12
0
VERTEX
10
7.45657
20
10.7765
30
10.12
0
VERTEX
10
7.45926
20
10.7837
30
10.12
0
VERTEX
10
7.45926
20
10.7908
30
10.12
0
VERTEX
10
7.45478
20
10.8052
30
10.12
0
VERTEX
10
7.45209
20
10.8088
30
10.12
0
VERTEX
10
7.44582
20
10.8123
30
10.12
0
VERTEX
10
7.44402
20
10.8159
30
10.12
0
VERTEX
10
7.44044
20
10.8186
30
10.12
0
VERTEX
10
7.42609
20
10.8177
30
10.12
0
VERTEX
10
7.41892
20
10.8168
30
10.12
0
VERTEX
10
7.41713
20
10.815
30
10.12
0
VERTEX
10
7.41354
20
10.8141
30
10.12
0
VERTEX
10
7.40457
20
10.8007
30
10.12
0
VERTEX
10
7.40188
20
10.7863
30
10.12
0
VERTEX
10
7.40099
20
10.7586
30
10.12
0
SEQEND
0
POLYLINE
62
31
66
1
70
1
3
contour
0
VERTEX
10
6.25666
20
10.2863
30
10.12
0
VERTEX
10
6.25885
20
10.2776
30
10.12
0
VERTEX
10
6.27417
20
10.2622
30
10.12
0
VERTEX
10
6.30917
20
10.2601
30
10.12
0
VERTEX
10
6.32667
20
10.2644
30
10.12
0
VERTEX
10
6.34417
20
10.2732
30
10.12
0
VERTEX
10
6.37261
20
10.3016
30
10.12
0
VERTEX
10
6.38574
20
10.3169
30
10.12
0
VERTEX
10
6.3923
20
10.3257
30
10.12
0
VERTEX
10
6.40761
20
10.3322
30
10.12
0
VERTEX
10
6.41636
20
10.3344
30
10.12
0
VERTEX
10
6.43605
20
10.3672
30
10.12
0
VERTEX
10
6.44699
20
10.3848
30
10.12
0
VERTEX
10
6.45137
20
10.3869
30
10.12
0
VERTEX
10
6.45137
20
10.3957
30
10.12
0
VERTEX
10
6.45574
20
10.4001
30
10.12
0
VERTEX
10
6.45574
20
10.4044
30
10.12
0
VERTEX
10
6.47105
20
10.4176
30
10.12
0
VERTEX
10
6.47543
20
10.4263
30
10.12
0
VERTEX
10
6.48199
20
10.4307
30
10.12
0
VERTEX
10
6.50824
20
10.4613
30
10.12
0
VERTEX
10
6.51043
20
10.4701
30
10.12
0
VERTEX
10
6.51699
20
10.4766
30
10.12
0
VERTEX
10
6.51918
20
10.4941
30
10.12
0
VERTEX
10
6.50168
20
10.5094
30
10.12
0
VERTEX
10
6.50168
20
10.5138
30
10.12
0
VERTEX
10
6.48418
20
10.5269
30
10.12
0
VERTEX
10
6.47762
20
10.5335
30
10.12
0
VERTEX
10
6.44261
20
10.5357
30
10.12
0
VERTEX
10
6.41199
20
10.562
30
10.12
0
VERTEX
10
6.40542
20
10.5685
30
10.12
0
VERTEX
10
6.37042
20
10.5751
30
10.12
0
VERTEX
10
6.33542
20
10.5773
30
10.12
0
VERTEX
10
6.33323
20
10.5795
30
10.12
0
VERTEX
10
6.32011
20
10.562
30
10.12
0
VERTEX
10
6.31354
20
10.5554
30
10.12
0
VERTEX
10
6.30479
20
10.5204
30
10.12
0
VERTEX
10
6.30479
20
10.516
30
10.12
0
VERTEX
10
6.30042
20
10.5116
30
10.12
0
VERTEX
10
6.29823
20
10.4941
30
10.12
0
VERTEX
10
6.29823
20
10.4854
30
10.12
0
VERTEX
10
6.29167
20
10.4679
30
10.12
0
VERTEX
10
6.28948
20
10.4504
30
10.12
0
VERTEX
10
6.28948
20
10.446
30
10.12
0
VERTEX
10
6.2851
20
10.4416
30
10.12
0
VERTEX
10
6.28073
20
10.4241
30
10.12
0
VERTEX
10
6.27635
20
10.4154
30
10.12
0
VERTEX
10
6.27198
20
10.4132
30
10.12
0
VERTEX
10
6.26542
20
10.3782
30
10.12
0
VERTEX
10
6.26323
20
10.3432
30
10.12
0
VERTEX
10
6.25885
20
10.3257
30
10.12
0
VERTEX
10
6.25885
20
10.2907
30
10.12
0
VERTEX
10
6.25666
20
10.2885
30
10.12
0
SEQEND
0
POLYLINE
62
31
66
1
70
1
3
contour
0
VERTEX
10
6.67737
20
10.4138
30
10.12
0
VERTEX
10
6.68219
20
10.4074
30
10.12
0
VERTEX
10
6.6838
20
10.3945
30
10.12
0
VERTEX
10
6.68862
20
10.3881
30
10.12
0
VERTEX
10
6.69023
20
10.3817
30
10.12
0
VERTEX
10
6.69505
20
10.3768
30
10.12
0
VERTEX
10
6.69505
20
10.3736
30
10.12
0
VERTEX
10
6.69987
20
10.3672
30
10.12
0
VERTEX
10
6.7063
20
10.364
30
10.12
0
VERTEX
10
6.71755
20
10.3527
30
10.12
0
VERTEX
10
6.72076
20
10.3527
30
10.12
0
VERTEX
10
6.73362
20
10.3447
30
10.12
0
VERTEX
10
6.75933
20
10.3367
30
10.12
0
VERTEX
10
6.77219
20
10.3383
30
10.12
0
VERTEX
10
6.78505
20
10.3479
30
10.12
0
VERTEX
10
6.78987
20
10.3543
30
10.12
0
VERTEX
10
6.79308
20
10.3576
30
10.12
0
VERTEX
10
6.79308
20
10.3608
30
10.12
0
VERTEX
10
6.79951
20
10.3672
30
10.12
0
VERTEX
10
6.80433
20
10.3801
30
10.12
0
VERTEX
10
6.80433
20
10.3865
30
10.12
0
VERTEX
10
6.80915
20
10.3929
30
10.12
0
VERTEX
10
6.81076
20
10.3993
30
10.12
0
VERTEX
10
6.8204
20
10.4122
30
10.12
0
VERTEX
10
6.83165
20
10.4218
30
10.12
0
VERTEX
10
6.83808
20
10.4267
30
10.12
0
VERTEX
10
6.84451
20
10.4283
30
10.12
0
VERTEX
10
6.86219
20
10.4492
30
10.12
0
VERTEX
10
6.8654
20
10.4556
30
10.12
0
VERTEX
10
6.86861
20
10.4588
30
10.12
0
VERTEX
10
6.87665
20
10.4845
30
10.12
0
VERTEX
10
6.87986
20
10.4909
30
10.12
0
VERTEX
10
6.88629
20
10.5408
30
10.12
0
VERTEX
10
6.88468
20
10.5922
30
10.12
0
VERTEX
10
6.88147
20
10.605
30
10.12
0
VERTEX
10
6.87504
20
10.6099
30
10.12
0
VERTEX
10
6.86861
20
10.6115
30
10.12
0
VERTEX
10
6.86219
20
10.6099
30
10.12
0
VERTEX
10
6.83647
20
10.6163
30
10.12
0
VERTEX
10
6.82362
20
10.6163
30
10.12
0
VERTEX
10
6.81719
20
10.6163
30
10.12
0
VERTEX
10
6.81076
20
10.6131
30
10.12
0
VERTEX
10
6.80755
20
10.6131
30
10.12
0
VERTEX
10
6.78344
20
10.597
30
10.12
0
VERTEX
10
6.76255
20
10.5777
30
10.12
0
VERTEX
10
6.75773
20
10.5729
30
10.12
0
VERTEX
10
6.7513
20
10.5713
30
10.12
0
VERTEX
10
6.74487
20
10.5665
30
10.12
0
VERTEX
10
6.74166
20
10.5665
30
10.12
0
VERTEX
10
6.73844
20
10.5633
30
10.12
0
VERTEX
10
6.73523
20
10.5633
30
10.12
0
VERTEX
10
6.72237
20
10.5552
30
10.12
0
VERTEX
10
6.70951
20
10.5536
30
10.12
0
VERTEX
10
6.70309
20
10.5488
30
10.12
0
VERTEX
10
6.69666
20
10.5472
30
10.12
0
VERTEX
10
6.69023
20
10.5424
30
10.12
0
VERTEX
10
6.68702
20
10.5359
30
10.12
0
VERTEX
10
6.68541
20
10.5231
30
10.12
0
VERTEX
10
6.68541
20
10.5199
30
10.12
0
VERTEX
10
6.68219
20
10.5167
30
10.12
0
VERTEX
10
6.6838
20
10.4652
30
10.12
0
VERTEX
10
6.68059
20
10.4588
30
10.12
0
VERTEX
10
6.67737
20
10.4331
30
10.12
0
VERTEX
10
6.67737
20
10.4202
30
10.12
0
VERTEX
10
6.67737
20
10.4154
30
10.12
0
SEQEND
0
ENDSEC
0
EOF
