0
SECTION
2
ENTITIES
0
POLYLINE
62
31
66
1
70
1
3
contour
0
VERTEX
10
8.91384
20
9.37062
30
5.88
0
VERTEX
10
8.91828
20
9.35288
30
5.88
0
VERTEX
10
8.91828
20
9.34401
30
5.88
0
VERTEX
10
8.92715
20
9.32628
30
5.88
0
VERTEX
10
8.92937
20
9.30854
30
5.88
0
VERTEX
10
8.94489
20
9.2908
30
5.88
0
VERTEX
10
8.9471
20
9.28193
30
5.88
0
VERTEX
10
8.95819
20
9.26862
30
5.88
0
VERTEX
10
8.96263
20
9.25089
30
5.88
0
VERTEX
10
8.96706
20
9.24202
30
5.88
0
VERTEX
10
9.00032
20
9.21984
30
5.88
0
VERTEX
10
9.00919
20
9.21541
30
5.88
0
VERTEX
10
9.02028
20
9.19989
30
5.88
0
VERTEX
10
9.03802
20
9.19323
30
5.88
0
VERTEX
10
9.06684
20
9.16884
30
5.88
0
VERTEX
10
9.08458
20
9.15776
30
5.88
0
VERTEX
10
9.08902
20
9.14889
30
5.88
0
VERTEX
10
9.10676
20
9.1378
30
5.88
0
VERTEX
10
9.11341
20
9.13115
30
5.88
0
VERTEX
10
9.12228
20
9.12893
30
5.88
0
VERTEX
10
9.12671
20
9.12449
30
5.88
0
VERTEX
10
9.16219
20
9.12449
30
5.88
0
VERTEX
10
9.17106
20
9.12671
30
5.88
0
VERTEX
10
9.17993
20
9.13336
30
5.88
0
VERTEX
10
9.1888
20
9.13558
30
5.88
0
VERTEX
10
9.19767
20
9.14223
30
5.88
0
VERTEX
10
9.19767
20
9.14667
30
5.88
0
VERTEX
10
9.20654
20
9.15554
30
5.88
0
VERTEX
10
9.21541
20
9.15554
30
5.88
0
VERTEX
10
9.22206
20
9.16441
30
5.88
0
VERTEX
10
9.25754
20
9.17771
30
5.88
0
VERTEX
10
9.27084
20
9.19102
30
5.88
0
VERTEX
10
9.28858
20
9.2021
30
5.88
0
VERTEX
10
9.29967
20
9.21319
30
5.88
0
VERTEX
10
9.30854
20
9.21541
30
5.88
0
VERTEX
10
9.32406
20
9.23093
30
5.88
0
VERTEX
10
9.33293
20
9.23758
30
5.88
0
VERTEX
10
9.33515
20
9.24645
30
5.88
0
VERTEX
10
9.34845
20
9.26197
30
5.88
0
VERTEX
10
9.35288
20
9.26419
30
5.88
0
VERTEX
10
9.35732
20
9.28193
30
5.88
0
VERTEX
10
9.36175
20
9.2908
30
5.88
0
VERTEX
10
9.36175
20
9.32628
30
5.88
0
VERTEX
10
9.35732
20
9.34401
30
5.88
0
VERTEX
10
9.35288
20
9.35288
30
5.88
0
VERTEX
10
9.35067
20
9.37062
30
5.88
0
VERTEX
10
9.35067
20
9.37506
30
5.88
0
VERTEX
10
9.34623
20
9.37949
30
5.88
0
VERTEX
10
9.34623
20
9.38836
30
5.88
0
VERTEX
10
9.33293
20
9.40388
30
5.88
0
VERTEX
10
9.31962
20
9.41497
30
5.88
0
VERTEX
10
9.30188
20
9.42606
30
5.88
0
VERTEX
10
9.29302
20
9.43271
30
5.88
0
VERTEX
10
9.28415
20
9.43271
30
5.88
0
VERTEX
10
9.27306
20
9.43936
30
5.88
0
VERTEX
10
9.26862
20
9.4438
30
5.88
0
VERTEX
10
9.23315
20
9.45045
30
5.88
0
VERTEX
10
9.21541
20
9.4571
30
5.88
0
VERTEX
10
9.19767
20
9.45932
30
5.88
0
VERTEX
10
9.16441
20
9.47041
30
5.88
0
VERTEX
10
9.14667
20
9.47706
30
5.88
0
VERTEX
10
9.1378
20
9.47927
30
5.88
0
VERTEX
10
9.12893
20
9.48593
30
5.88
0
VERTEX
10
9.11119
20
9.48814
30
5.88
0
VERTEX
10
9.10676
20
9.49258
30
5.88
0
VERTEX
10
9.07128
20
9.49036
30
5.88
0
VERTEX
10
9.05354
20
9.49036
30
5.88
0
VERTEX
10
9.01806
20
9.48371
30
5.88
0
VERTEX
10
8.98702
20
9.45932
30
5.88
0
VERTEX
10
8.96928
20
9.45045
30
5.88
0
VERTEX
10
8.96041
20
9.44601
30
5.88
0
VERTEX
10
8.95376
20
9.43714
30
5.88
0
VERTEX
10
8.93824
20
9.42606
30
5.88
0
VERTEX
10
8.9338
20
9.42384
30
5.88
0
VERTEX
10
8.93158
20
9.41497
30
5.88
0
VERTEX
10
8.93158
20
9.41054
30
5.88
0
VERTEX
10
8.92493
20
9.40167
30
5.88
0
VERTEX
10
8.9205
20
9.40167
30
5.88
0
VERTEX
10
8.91384
20
9.38393
30
5.88
0
VERTEX
10
8.91384
20
9.37506
30
5.88
0
VERTEX
10
8.91384
20
9.37284
30
5.88
0
SEQEND
0
POLYLINE
62
31
66
1
70
1
3
contour
0
VERTEX
10
8.34977
20
9.39637
30
5.88
0
VERTEX
10
8.35635
20
9.38979
30
5.88
0
VERTEX
10
8.36293
20
9.38979
30
5.88
0
VERTEX
10
8.36293
20
9.3832
30
5.88
0
VERTEX
10
8.3761
20
9.37662
30
5.88
0
VERTEX
10
8.38926
20
9.37662
30
5.88
0
VERTEX
10
8.41559
20
9.36675
30
5.88
0
VERTEX
10
8.42876
20
9.36017
30
5.88
0
VERTEX
10
8.45509
20
9.36017
30
5.88
0
VERTEX
10
8.46825
20
9.36017
30
5.88
0
VERTEX
10
8.48142
20
9.37004
30
5.88
0
VERTEX
10
8.48471
20
9.37662
30
5.88
0
VERTEX
10
8.48142
20
9.42928
30
5.88
0
VERTEX
10
8.47812
20
9.45561
30
5.88
0
VERTEX
10
8.47154
20
9.46548
30
5.88
0
VERTEX
10
8.4485
20
9.48852
30
5.88
0
VERTEX
10
8.42217
20
9.50498
30
5.88
0
VERTEX
10
8.40901
20
9.51485
30
5.88
0
VERTEX
10
8.40243
20
9.51814
30
5.88
0
VERTEX
10
8.37939
20
9.4984
30
5.88
0
VERTEX
10
8.3761
20
9.48523
30
5.88
0
VERTEX
10
8.36951
20
9.48194
30
5.88
0
VERTEX
10
8.34977
20
9.42928
30
5.88
0
VERTEX
10
8.34977
20
9.40295
30
5.88
0
VERTEX
10
8.34977
20
9.39966
30
5.88
0
SEQEND
0
POLYLINE
62
31
66
1
70
1
3
contour
0
VERTEX
10
7.5769
20
9.28197
30
5.88
0
VERTEX
10
7.59022
20
9.26066
30
5.88
0
VERTEX
10
7.60887
20
9.24734
30
5.88
0
VERTEX
10
7.60887
20
9.24201
30
5.88
0
VERTEX
10
7.64617
20
9.20205
30
5.88
0
VERTEX
10
7.66482
20
9.18074
30
5.88
0
VERTEX
10
7.67015
20
9.18074
30
5.88
0
VERTEX
10
7.6888
20
9.16475
30
5.88
0
VERTEX
10
7.69946
20
9.15676
30
5.88
0
VERTEX
10
7.70478
20
9.14876
30
5.88
0
VERTEX
10
7.7261
20
9.13278
30
5.88
0
VERTEX
10
7.73143
20
9.12745
30
5.88
0
VERTEX
10
7.75274
20
9.11946
30
5.88
0
VERTEX
10
7.7634
20
9.11147
30
5.88
0
VERTEX
10
7.78471
20
9.10614
30
5.88
0
VERTEX
10
7.80602
20
9.10614
30
5.88
0
VERTEX
10
7.81668
20
9.10614
30
5.88
0
VERTEX
10
7.82201
20
9.11147
30
5.88
0
VERTEX
10
7.82734
20
9.11147
30
5.88
0
VERTEX
10
7.83266
20
9.12212
30
5.88
0
VERTEX
10
7.83799
20
9.12479
30
5.88
0
VERTEX
10
7.84332
20
9.1461
30
5.88
0
VERTEX
10
7.85131
20
9.15409
30
5.88
0
VERTEX
10
7.85398
20
9.16475
30
5.88
0
VERTEX
10
7.87263
20
9.17274
30
5.88
0
VERTEX
10
7.89128
20
9.19139
30
5.88
0
VERTEX
10
7.8966
20
9.19672
30
5.88
0
VERTEX
10
7.8966
20
9.20738
30
5.88
0
VERTEX
10
7.9046
20
9.21803
30
5.88
0
VERTEX
10
7.91525
20
9.2207
30
5.88
0
VERTEX
10
7.9339
20
9.23668
30
5.88
0
VERTEX
10
7.93657
20
9.24734
30
5.88
0
VERTEX
10
7.93657
20
9.25267
30
5.88
0
VERTEX
10
7.93124
20
9.25533
30
5.88
0
VERTEX
10
7.93124
20
9.26599
30
5.88
0
VERTEX
10
7.93923
20
9.2873
30
5.88
0
VERTEX
10
7.9419
20
9.32993
30
5.88
0
VERTEX
10
7.93124
20
9.33526
30
5.88
0
VERTEX
10
7.93124
20
9.34059
30
5.88
0
VERTEX
10
7.92058
20
9.34858
30
5.88
0
VERTEX
10
7.89927
20
9.35657
30
5.88
0
VERTEX
10
7.88861
20
9.3619
30
5.88
0
VERTEX
10
7.84599
20
9.3619
30
5.88
0
VERTEX
10
7.83533
20
9.3619
30
5.88
0
VERTEX
10
7.81402
20
9.35391
30
5.88
0
VERTEX
10
7.77139
20
9.35124
30
5.88
0
VERTEX
10
7.68613
20
9.35391
30
5.88
0
VERTEX
10
7.67548
20
9.35124
30
5.88
0
VERTEX
10
7.66482
20
9.34325
30
5.88
0
VERTEX
10
7.62219
20
9.33792
30
5.88
0
VERTEX
10
7.61154
20
9.32993
30
5.88
0
VERTEX
10
7.60088
20
9.32726
30
5.88
0
VERTEX
10
7.59555
20
9.32194
30
5.88
0
VERTEX
10
7.59022
20
9.32194
30
5.88
0
VERTEX
10
7.58223
20
9.31128
30
5.88
0
VERTEX
10
7.5769
20
9.28997
30
5.88
0
VERTEX
10
7.5769
20
9.28464
30
5.88
0
SEQEND
0
POLYLINE
62
224
66
1
70
1
3
mitochondrion
0
VERTEX
10
9.10593
20
9.3131
30
5.88
0
VERTEX
10
9.11288
20
9.29085
30
5.88
0
VERTEX
10
9.11566
20
9.28529
30
5.88
0
VERTEX
10
9.11844
20
9.28529
30
5.88
0
VERTEX
10
9.11844
20
9.28251
30
5.88
0
VERTEX
10
9.12539
20
9.27139
30
5.88
0
VERTEX
10
9.13512
20
9.26443
30
5.88
0
VERTEX
10
9.1393
20
9.26026
30
5.88
0
VERTEX
10
9.14486
20
9.26026
30
5.88
0
VERTEX
10
9.15598
20
9.25192
30
5.88
0
VERTEX
10
9.16154
20
9.25053
30
5.88
0
VERTEX
10
9.16432
20
9.24775
30
5.88
0
VERTEX
10
9.18657
20
9.24636
30
5.88
0
VERTEX
10
9.20882
20
9.24775
30
5.88
0
VERTEX
10
9.23106
20
9.2547
30
5.88
0
VERTEX
10
9.24219
20
9.25887
30
5.88
0
VERTEX
10
9.25192
20
9.26861
30
5.88
0
VERTEX
10
9.25887
20
9.27834
30
5.88
0
VERTEX
10
9.26443
20
9.2839
30
5.88
0
VERTEX
10
9.27
20
9.29502
30
5.88
0
VERTEX
10
9.27556
20
9.2992
30
5.88
0
VERTEX
10
9.27695
20
9.30476
30
5.88
0
VERTEX
10
9.28112
20
9.30893
30
5.88
0
VERTEX
10
9.28251
20
9.31449
30
5.88
0
VERTEX
10
9.28251
20
9.31727
30
5.88
0
VERTEX
10
9.28529
20
9.32005
30
5.88
0
VERTEX
10
9.28668
20
9.33118
30
5.88
0
VERTEX
10
9.28529
20
9.3423
30
5.88
0
VERTEX
10
9.28529
20
9.34786
30
5.88
0
VERTEX
10
9.27556
20
9.37011
30
5.88
0
VERTEX
10
9.26304
20
9.39235
30
5.88
0
VERTEX
10
9.25192
20
9.39931
30
5.88
0
VERTEX
10
9.24775
20
9.40487
30
5.88
0
VERTEX
10
9.22689
20
9.41182
30
5.88
0
VERTEX
10
9.22133
20
9.41321
30
5.88
0
VERTEX
10
9.21855
20
9.41321
30
5.88
0
VERTEX
10
9.21577
20
9.41599
30
5.88
0
VERTEX
10
9.19352
20
9.41599
30
5.88
0
VERTEX
10
9.1824
20
9.41599
30
5.88
0
VERTEX
10
9.17128
20
9.41043
30
5.88
0
VERTEX
10
9.16015
20
9.40209
30
5.88
0
VERTEX
10
9.1393
20
9.39235
30
5.88
0
VERTEX
10
9.13651
20
9.39235
30
5.88
0
VERTEX
10
9.13095
20
9.38818
30
5.88
0
VERTEX
10
9.12539
20
9.38679
30
5.88
0
VERTEX
10
9.11705
20
9.37706
30
5.88
0
VERTEX
10
9.11288
20
9.3715
30
5.88
0
VERTEX
10
9.11149
20
9.34925
30
5.88
0
VERTEX
10
9.11288
20
9.327
30
5.88
0
VERTEX
10
9.10732
20
9.31588
30
5.88
0
VERTEX
10
9.10732
20
9.31449
30
5.88
0
SEQEND
0
POLYLINE
62
227
66
1
70
1
3
endoplasmic_reticulum
0
VERTEX
10
9.00222
20
9.37429
30
5.88
0
VERTEX
10
9.00401
20
9.3707
30
5.88
0
VERTEX
10
9.00401
20
9.36891
30
5.88
0
VERTEX
10
9.00581
20
9.36711
30
5.88
0
VERTEX
10
9.00581
20
9.35994
30
5.88
0
VERTEX
10
9.00581
20
9.35636
30
5.88
0
VERTEX
10
9.00581
20
9.35456
30
5.88
0
VERTEX
10
9.01298
20
9.35187
30
5.88
0
VERTEX
10
9.04167
20
9.35187
30
5.88
0
VERTEX
10
9.04884
20
9.35277
30
5.88
0
VERTEX
10
9.05512
20
9.35815
30
5.88
0
VERTEX
10
9.05601
20
9.35994
30
5.88
0
VERTEX
10
9.0596
20
9.35994
30
5.88
0
VERTEX
10
9.06229
20
9.35815
30
5.88
0
VERTEX
10
9.06587
20
9.36173
30
5.88
0
VERTEX
10
9.06767
20
9.36173
30
5.88
0
VERTEX
10
9.07036
20
9.36442
30
5.88
0
VERTEX
10
9.07125
20
9.36801
30
5.88
0
VERTEX
10
9.07394
20
9.3698
30
5.88
0
VERTEX
10
9.07394
20
9.38415
30
5.88
0
VERTEX
10
9.07305
20
9.39132
30
5.88
0
VERTEX
10
9.07125
20
9.39491
30
5.88
0
VERTEX
10
9.07125
20
9.40925
30
5.88
0
VERTEX
10
9.07125
20
9.41284
30
5.88
0
VERTEX
10
9.06318
20
9.42539
30
5.88
0
VERTEX
10
9.0587
20
9.42987
30
5.88
0
VERTEX
10
9.05691
20
9.42987
30
5.88
0
VERTEX
10
9.05512
20
9.43167
30
5.88
0
VERTEX
10
9.04077
20
9.43167
30
5.88
0
VERTEX
10
9.03718
20
9.43167
30
5.88
0
VERTEX
10
9.0345
20
9.42898
30
5.88
0
VERTEX
10
9.0327
20
9.42898
30
5.88
0
VERTEX
10
9.01925
20
9.41732
30
5.88
0
VERTEX
10
9.01925
20
9.41553
30
5.88
0
VERTEX
10
9.01746
20
9.41373
30
5.88
0
VERTEX
10
9.01656
20
9.40656
30
5.88
0
VERTEX
10
9.01387
20
9.40387
30
5.88
0
VERTEX
10
9.01387
20
9.40208
30
5.88
0
VERTEX
10
9.00491
20
9.38773
30
5.88
0
VERTEX
10
9.00222
20
9.38056
30
5.88
0
VERTEX
10
9.00222
20
9.37698
30
5.88
0
VERTEX
10
9.00222
20
9.37518
30
5.88
0
SEQEND
0
ENDSEC
0
EOF
