0
SECTION
2
ENTITIES
0
POLYLINE
62
31
66
1
70
1
3
contour
0
VERTEX
10
7.20658
20
9.15676
30
6.28
0
VERTEX
10
7.21191
20
9.1461
30
6.28
0
VERTEX
10
7.21191
20
9.13544
30
6.28
0
VERTEX
10
7.22523
20
9.12212
30
6.28
0
VERTEX
10
7.2279
20
9.11147
30
6.28
0
VERTEX
10
7.2572
20
9.07683
30
6.28
0
VERTEX
10
7.26786
20
9.06884
30
6.28
0
VERTEX
10
7.31049
20
9.06085
30
6.28
0
VERTEX
10
7.35311
20
9.06085
30
6.28
0
VERTEX
10
7.37443
20
9.06884
30
6.28
0
VERTEX
10
7.41705
20
9.07683
30
6.28
0
VERTEX
10
7.45968
20
9.0795
30
6.28
0
VERTEX
10
7.48099
20
9.0795
30
6.28
0
VERTEX
10
7.49165
20
9.07683
30
6.28
0
VERTEX
10
7.50231
20
9.0795
30
6.28
0
VERTEX
10
7.52362
20
9.07417
30
6.28
0
VERTEX
10
7.53161
20
9.06618
30
6.28
0
VERTEX
10
7.53428
20
9.06085
30
6.28
0
VERTEX
10
7.55559
20
9.06085
30
6.28
0
VERTEX
10
7.56625
20
9.05818
30
6.28
0
VERTEX
10
7.57158
20
9.05818
30
6.28
0
VERTEX
10
7.57957
20
9.05019
30
6.28
0
VERTEX
10
7.62219
20
9.03421
30
6.28
0
VERTEX
10
7.63285
20
9.03421
30
6.28
0
VERTEX
10
7.67548
20
9.01556
30
6.28
0
VERTEX
10
7.69679
20
9.01023
30
6.28
0
VERTEX
10
7.7181
20
9.01023
30
6.28
0
VERTEX
10
7.72876
20
9.01023
30
6.28
0
VERTEX
10
7.75007
20
9.02088
30
6.28
0
VERTEX
10
7.76073
20
9.02088
30
6.28
0
VERTEX
10
7.78205
20
9.03421
30
6.28
0
VERTEX
10
7.80336
20
9.05285
30
6.28
0
VERTEX
10
7.81934
20
9.0715
30
6.28
0
VERTEX
10
7.83
20
9.07417
30
6.28
0
VERTEX
10
7.83799
20
9.08216
30
6.28
0
VERTEX
10
7.84066
20
9.09282
30
6.28
0
VERTEX
10
7.85131
20
9.09548
30
6.28
0
VERTEX
10
7.85931
20
9.10347
30
6.28
0
VERTEX
10
7.86996
20
9.10347
30
6.28
0
VERTEX
10
7.91259
20
9.13278
30
6.28
0
VERTEX
10
7.95522
20
9.15143
30
6.28
0
VERTEX
10
7.95788
20
9.15676
30
6.28
0
VERTEX
10
7.96321
20
9.15676
30
6.28
0
VERTEX
10
7.98186
20
9.17274
30
6.28
0
VERTEX
10
7.99518
20
9.19139
30
6.28
0
VERTEX
10
8.00051
20
9.20205
30
6.28
0
VERTEX
10
7.99784
20
9.22336
30
6.28
0
VERTEX
10
7.98985
20
9.24468
30
6.28
0
VERTEX
10
7.97387
20
9.26332
30
6.28
0
VERTEX
10
7.96587
20
9.27398
30
6.28
0
VERTEX
10
7.92325
20
9.29796
30
6.28
0
VERTEX
10
7.83799
20
9.31661
30
6.28
0
VERTEX
10
7.81668
20
9.31927
30
6.28
0
VERTEX
10
7.77405
20
9.33259
30
6.28
0
VERTEX
10
7.76606
20
9.34325
30
6.28
0
VERTEX
10
7.72343
20
9.36723
30
6.28
0
VERTEX
10
7.7181
20
9.36723
30
6.28
0
VERTEX
10
7.71278
20
9.37256
30
6.28
0
VERTEX
10
7.69146
20
9.37788
30
6.28
0
VERTEX
10
7.68613
20
9.38321
30
6.28
0
VERTEX
10
7.64351
20
9.40186
30
6.28
0
VERTEX
10
7.62219
20
9.40719
30
6.28
0
VERTEX
10
7.53694
20
9.40453
30
6.28
0
VERTEX
10
7.49431
20
9.3912
30
6.28
0
VERTEX
10
7.473
20
9.37788
30
6.28
0
VERTEX
10
7.45702
20
9.3619
30
6.28
0
VERTEX
10
7.45435
20
9.35657
30
6.28
0
VERTEX
10
7.43304
20
9.35657
30
6.28
0
VERTEX
10
7.43037
20
9.35124
30
6.28
0
VERTEX
10
7.42505
20
9.35124
30
6.28
0
VERTEX
10
7.42238
20
9.34591
30
6.28
0
VERTEX
10
7.41173
20
9.34591
30
6.28
0
VERTEX
10
7.40107
20
9.34059
30
6.28
0
VERTEX
10
7.37976
20
9.33792
30
6.28
0
VERTEX
10
7.3691
20
9.32993
30
6.28
0
VERTEX
10
7.34779
20
9.3246
30
6.28
0
VERTEX
10
7.33713
20
9.32194
30
6.28
0
VERTEX
10
7.3318
20
9.31661
30
6.28
0
VERTEX
10
7.32114
20
9.31394
30
6.28
0
VERTEX
10
7.31581
20
9.31394
30
6.28
0
VERTEX
10
7.31049
20
9.30862
30
6.28
0
VERTEX
10
7.27052
20
9.28997
30
6.28
0
VERTEX
10
7.25187
20
9.27132
30
6.28
0
VERTEX
10
7.24122
20
9.26599
30
6.28
0
VERTEX
10
7.22523
20
9.24734
30
6.28
0
VERTEX
10
7.21724
20
9.23935
30
6.28
0
VERTEX
10
7.21191
20
9.21803
30
6.28
0
VERTEX
10
7.20658
20
9.20738
30
6.28
0
VERTEX
10
7.20658
20
9.16475
30
6.28
0
VERTEX
10
7.20658
20
9.15942
30
6.28
0
SEQEND
0
POLYLINE
62
224
66
1
70
1
3
mitochondrion
0
VERTEX
10
9.12678
20
9.43407
30
6.28
0
VERTEX
10
9.13234
20
9.41182
30
6.28
0
VERTEX
10
9.13651
20
9.4007
30
6.28
0
VERTEX
10
9.14069
20
9.39653
30
6.28
0
VERTEX
10
9.14069
20
9.39374
30
6.28
0
VERTEX
10
9.16015
20
9.37428
30
6.28
0
VERTEX
10
9.17128
20
9.36733
30
6.28
0
VERTEX
10
9.1824
20
9.36316
30
6.28
0
VERTEX
10
9.18796
20
9.36316
30
6.28
0
VERTEX
10
9.19213
20
9.36594
30
6.28
0
VERTEX
10
9.23663
20
9.36455
30
6.28
0
VERTEX
10
9.24219
20
9.36455
30
6.28
0
VERTEX
10
9.24497
20
9.36455
30
6.28
0
VERTEX
10
9.24775
20
9.36733
30
6.28
0
VERTEX
10
9.25887
20
9.37011
30
6.28
0
VERTEX
10
9.26861
20
9.37845
30
6.28
0
VERTEX
10
9.27
20
9.38123
30
6.28
0
VERTEX
10
9.29224
20
9.39096
30
6.28
0
VERTEX
10
9.2978
20
9.39513
30
6.28
0
VERTEX
10
9.31171
20
9.41599
30
6.28
0
VERTEX
10
9.31449
20
9.41738
30
6.28
0
VERTEX
10
9.32144
20
9.43963
30
6.28
0
VERTEX
10
9.32005
20
9.46188
30
6.28
0
VERTEX
10
9.31727
20
9.46744
30
6.28
0
VERTEX
10
9.31727
20
9.47856
30
6.28
0
VERTEX
10
9.31449
20
9.48968
30
6.28
0
VERTEX
10
9.31449
20
9.50081
30
6.28
0
VERTEX
10
9.30615
20
9.51193
30
6.28
0
VERTEX
10
9.30198
20
9.52166
30
6.28
0
VERTEX
10
9.2992
20
9.52723
30
6.28
0
VERTEX
10
9.29363
20
9.5314
30
6.28
0
VERTEX
10
9.29085
20
9.53418
30
6.28
0
VERTEX
10
9.26861
20
9.53835
30
6.28
0
VERTEX
10
9.26304
20
9.53974
30
6.28
0
VERTEX
10
9.25748
20
9.55086
30
6.28
0
VERTEX
10
9.24636
20
9.55503
30
6.28
0
VERTEX
10
9.22411
20
9.55364
30
6.28
0
VERTEX
10
9.17962
20
9.53974
30
6.28
0
VERTEX
10
9.17684
20
9.53696
30
6.28
0
VERTEX
10
9.17406
20
9.53696
30
6.28
0
VERTEX
10
9.16989
20
9.5314
30
6.28
0
VERTEX
10
9.16432
20
9.52862
30
6.28
0
VERTEX
10
9.15737
20
9.51749
30
6.28
0
VERTEX
10
9.15598
20
9.51193
30
6.28
0
VERTEX
10
9.14486
20
9.50359
30
6.28
0
VERTEX
10
9.14347
20
9.49803
30
6.28
0
VERTEX
10
9.14347
20
9.49525
30
6.28
0
VERTEX
10
9.13373
20
9.48551
30
6.28
0
VERTEX
10
9.13373
20
9.47439
30
6.28
0
VERTEX
10
9.12678
20
9.45214
30
6.28
0
VERTEX
10
9.12678
20
9.44102
30
6.28
0
VERTEX
10
9.12678
20
9.43546
30
6.28
0
SEQEND
0
POLYLINE
62
227
66
1
70
1
3
endoplasmic_reticulum
0
VERTEX
10
9.27118
20
9.63159
30
6.28
0
VERTEX
10
9.27836
20
9.62622
30
6.28
0
VERTEX
10
9.28194
20
9.62353
30
6.28
0
VERTEX
10
9.28911
20
9.62353
30
6.28
0
VERTEX
10
9.2927
20
9.62353
30
6.28
0
VERTEX
10
9.29987
20
9.62711
30
6.28
0
VERTEX
10
9.30346
20
9.6298
30
6.28
0
VERTEX
10
9.30346
20
9.63159
30
6.28
0
VERTEX
10
9.30973
20
9.63518
30
6.28
0
VERTEX
10
9.32408
20
9.63787
30
6.28
0
VERTEX
10
9.35277
20
9.63966
30
6.28
0
VERTEX
10
9.35994
20
9.63787
30
6.28
0
VERTEX
10
9.37429
20
9.63697
30
6.28
0
VERTEX
10
9.37787
20
9.63697
30
6.28
0
VERTEX
10
9.39222
20
9.63159
30
6.28
0
VERTEX
10
9.39491
20
9.62801
30
6.28
0
VERTEX
10
9.3958
20
9.62532
30
6.28
0
VERTEX
10
9.40567
20
9.61187
30
6.28
0
VERTEX
10
9.40656
20
9.6047
30
6.28
0
VERTEX
10
9.40656
20
9.60291
30
6.28
0
VERTEX
10
9.40477
20
9.60201
30
6.28
0
VERTEX
10
9.40567
20
9.59842
30
6.28
0
VERTEX
10
9.40835
20
9.59573
30
6.28
0
VERTEX
10
9.4227
20
9.59663
30
6.28
0
VERTEX
10
9.42629
20
9.59663
30
6.28
0
VERTEX
10
9.42808
20
9.59663
30
6.28
0
VERTEX
10
9.43256
20
9.61097
30
6.28
0
VERTEX
10
9.43346
20
9.62532
30
6.28
0
VERTEX
10
9.43615
20
9.63966
30
6.28
0
VERTEX
10
9.43704
20
9.64684
30
6.28
0
VERTEX
10
9.43615
20
9.66118
30
6.28
0
VERTEX
10
9.43525
20
9.66835
30
6.28
0
VERTEX
10
9.43435
20
9.67194
30
6.28
0
VERTEX
10
9.43435
20
9.67373
30
6.28
0
VERTEX
10
9.43256
20
9.67463
30
6.28
0
VERTEX
10
9.42808
20
9.68897
30
6.28
0
VERTEX
10
9.42629
20
9.69256
30
6.28
0
VERTEX
10
9.41373
20
9.70422
30
6.28
0
VERTEX
10
9.41194
20
9.70601
30
6.28
0
VERTEX
10
9.41015
20
9.70601
30
6.28
0
VERTEX
10
9.40746
20
9.70959
30
6.28
0
VERTEX
10
9.37877
20
9.7069
30
6.28
0
VERTEX
10
9.36442
20
9.7069
30
6.28
0
VERTEX
10
9.35725
20
9.70601
30
6.28
0
VERTEX
10
9.34291
20
9.69973
30
6.28
0
VERTEX
10
9.33932
20
9.69884
30
6.28
0
VERTEX
10
9.33663
20
9.69615
30
6.28
0
VERTEX
10
9.33305
20
9.69525
30
6.28
0
VERTEX
10
9.32946
20
9.69256
30
6.28
0
VERTEX
10
9.32229
20
9.69077
30
6.28
0
VERTEX
10
9.32049
20
9.69077
30
6.28
0
VERTEX
10
9.31511
20
9.68449
30
6.28
0
VERTEX
10
9.31332
20
9.68449
30
6.28
0
VERTEX
10
9.31063
20
9.6809
30
6.28
0
VERTEX
10
9.29629
20
9.67284
30
6.28
0
VERTEX
10
9.29001
20
9.66925
30
6.28
0
VERTEX
10
9.28642
20
9.66835
30
6.28
0
VERTEX
10
9.27925
20
9.66387
30
6.28
0
VERTEX
10
9.27567
20
9.66297
30
6.28
0
VERTEX
10
9.27387
20
9.66118
30
6.28
0
VERTEX
10
9.27298
20
9.65759
30
6.28
0
VERTEX
10
9.27118
20
9.6558
30
6.28
0
VERTEX
10
9.27118
20
9.64146
30
6.28
0
VERTEX
10
9.27118
20
9.63428
30
6.28
0
VERTEX
10
9.27118
20
9.63249
30
6.28
0
SEQEND
0
POLYLINE
62
227
66
1
70
1
3
endoplasmic_reticulum
0
VERTEX
10
9.33484
20
9.51594
30
6.28
0
VERTEX
10
9.33663
20
9.51235
30
6.28
0
VERTEX
10
9.33663
20
9.50877
30
6.28
0
VERTEX
10
9.34201
20
9.50339
30
6.28
0
VERTEX
10
9.3447
20
9.4998
30
6.28
0
VERTEX
10
9.35187
20
9.49891
30
6.28
0
VERTEX
10
9.35546
20
9.4998
30
6.28
0
VERTEX
10
9.35725
20
9.4998
30
6.28
0
VERTEX
10
9.35815
20
9.50339
30
6.28
0
VERTEX
10
9.35725
20
9.50518
30
6.28
0
VERTEX
10
9.36263
20
9.51146
30
6.28
0
VERTEX
10
9.36532
20
9.51863
30
6.28
0
VERTEX
10
9.36532
20
9.53297
30
6.28
0
VERTEX
10
9.36173
20
9.54015
30
6.28
0
VERTEX
10
9.35546
20
9.54553
30
6.28
0
VERTEX
10
9.35277
20
9.54822
30
6.28
0
VERTEX
10
9.34918
20
9.54822
30
6.28
0
VERTEX
10
9.34739
20
9.54911
30
6.28
0
VERTEX
10
9.3447
20
9.55628
30
6.28
0
VERTEX
10
9.3438
20
9.55808
30
6.28
0
VERTEX
10
9.34201
20
9.54373
30
6.28
0
VERTEX
10
9.33753
20
9.52939
30
6.28
0
VERTEX
10
9.33484
20
9.52222
30
6.28
0
VERTEX
10
9.33484
20
9.51863
30
6.28
0
VERTEX
10
9.33484
20
9.51684
30
6.28
0
SEQEND
0
POLYLINE
62
227
66
1
70
1
3
endoplasmic_reticulum
0
VERTEX
10
9.01925
20
9.43346
30
6.28
0
VERTEX
10
9.02194
20
9.42987
30
6.28
0
VERTEX
10
9.02284
20
9.42629
30
6.28
0
VERTEX
10
9.02732
20
9.41911
30
6.28
0
VERTEX
10
9.03091
20
9.41642
30
6.28
0
VERTEX
10
9.04525
20
9.41642
30
6.28
0
VERTEX
10
9.05243
20
9.41642
30
6.28
0
VERTEX
10
9.05601
20
9.41642
30
6.28
0
VERTEX
10
9.06318
20
9.41911
30
6.28
0
VERTEX
10
9.06498
20
9.42001
30
6.28
0
VERTEX
10
9.06587
20
9.42718
30
6.28
0
VERTEX
10
9.06498
20
9.43435
30
6.28
0
VERTEX
10
9.06318
20
9.43794
30
6.28
0
VERTEX
10
9.06318
20
9.43973
30
6.28
0
VERTEX
10
9.06139
20
9.44153
30
6.28
0
VERTEX
10
9.06139
20
9.44511
30
6.28
0
VERTEX
10
9.05512
20
9.45139
30
6.28
0
VERTEX
10
9.05332
20
9.45498
30
6.28
0
VERTEX
10
9.05332
20
9.45677
30
6.28
0
VERTEX
10
9.04974
20
9.45946
30
6.28
0
VERTEX
10
9.03539
20
9.46215
30
6.28
0
VERTEX
10
9.03181
20
9.46394
30
6.28
0
VERTEX
10
9.02822
20
9.46125
30
6.28
0
VERTEX
10
9.02643
20
9.46125
30
6.28
0
VERTEX
10
9.02194
20
9.45408
30
6.28
0
VERTEX
10
9.01925
20
9.43973
30
6.28
0
VERTEX
10
9.01925
20
9.43615
30
6.28
0
VERTEX
10
9.01925
20
9.43435
30
6.28
0
SEQEND
0
POLYLINE
62
227
66
1
70
1
3
endoplasmic_reticulum
0
VERTEX
10
7.82023
20
9.15329
30
6.28
0
VERTEX
10
7.82406
20
9.14946
30
6.28
0
VERTEX
10
7.8547
20
9.14946
30
6.28
0
VERTEX
10
7.87003
20
9.15329
30
6.28
0
VERTEX
10
7.87769
20
9.1552
30
6.28
0
VERTEX
10
7.88535
20
9.16095
30
6.28
0
VERTEX
10
7.88343
20
9.17627
30
6.28
0
VERTEX
10
7.87194
20
9.18968
30
6.28
0
VERTEX
10
7.85662
20
9.19926
30
6.28
0
VERTEX
10
7.8413
20
9.19734
30
6.28
0
VERTEX
10
7.83364
20
9.19542
30
6.28
0
VERTEX
10
7.82406
20
9.18202
30
6.28
0
VERTEX
10
7.82023
20
9.16669
30
6.28
0
VERTEX
10
7.82023
20
9.15903
30
6.28
0
VERTEX
10
7.82023
20
9.1552
30
6.28
0
SEQEND
0
POLYLINE
62
227
66
1
70
1
3
endoplasmic_reticulum
0
VERTEX
10
7.32033
20
9.16861
30
6.28
0
VERTEX
10
7.32225
20
9.16095
30
6.28
0
VERTEX
10
7.34332
20
9.13222
30
6.28
0
VERTEX
10
7.35672
20
9.11881
30
6.28
0
VERTEX
10
7.36055
20
9.11881
30
6.28
0
VERTEX
10
7.36438
20
9.11498
30
6.28
0
VERTEX
10
7.39503
20
9.11498
30
6.28
0
VERTEX
10
7.41035
20
9.1169
30
6.28
0
VERTEX
10
7.41801
20
9.11881
30
6.28
0
VERTEX
10
7.42184
20
9.12264
30
6.28
0
VERTEX
10
7.42184
20
9.12647
30
6.28
0
VERTEX
10
7.42567
20
9.1303
30
6.28
0
VERTEX
10
7.4295
20
9.14563
30
6.28
0
VERTEX
10
7.43334
20
9.15137
30
6.28
0
VERTEX
10
7.43334
20
9.16669
30
6.28
0
VERTEX
10
7.4295
20
9.18202
30
6.28
0
VERTEX
10
7.42376
20
9.18968
30
6.28
0
VERTEX
10
7.41035
20
9.19926
30
6.28
0
VERTEX
10
7.40269
20
9.20117
30
6.28
0
VERTEX
10
7.37205
20
9.21841
30
6.28
0
VERTEX
10
7.35672
20
9.22607
30
6.28
0
VERTEX
10
7.35289
20
9.22224
30
6.28
0
VERTEX
10
7.33757
20
9.22032
30
6.28
0
VERTEX
10
7.32991
20
9.21841
30
6.28
0
VERTEX
10
7.32033
20
9.20309
30
6.28
0
VERTEX
10
7.32033
20
9.17244
30
6.28
0
VERTEX
10
7.32033
20
9.17053
30
6.28
0
SEQEND
0
POLYLINE
62
227
66
1
70
1
3
endoplasmic_reticulum
0
VERTEX
10
7.52336
20
9.1303
30
6.28
0
VERTEX
10
7.52527
20
9.11498
30
6.28
0
VERTEX
10
7.52527
20
9.11115
30
6.28
0
VERTEX
10
7.5291
20
9.10732
30
6.28
0
VERTEX
10
7.53485
20
9.092
30
6.28
0
VERTEX
10
7.54825
20
9.07859
30
6.28
0
VERTEX
10
7.55592
20
9.07476
30
6.28
0
VERTEX
10
7.55975
20
9.07093
30
6.28
0
VERTEX
10
7.56358
20
9.07093
30
6.28
0
VERTEX
10
7.56741
20
9.0671
30
6.28
0
VERTEX
10
7.59805
20
9.06135
30
6.28
0
VERTEX
10
7.61337
20
9.06327
30
6.28
0
VERTEX
10
7.6287
20
9.06901
30
6.28
0
VERTEX
10
7.63253
20
9.07093
30
6.28
0
VERTEX
10
7.6421
20
9.10157
30
6.28
0
VERTEX
10
7.64402
20
9.1169
30
6.28
0
VERTEX
10
7.6421
20
9.13222
30
6.28
0
VERTEX
10
7.64019
20
9.13988
30
6.28
0
VERTEX
10
7.6287
20
9.15329
30
6.28
0
VERTEX
10
7.62104
20
9.16095
30
6.28
0
VERTEX
10
7.61337
20
9.16286
30
6.28
0
VERTEX
10
7.60954
20
9.16669
30
6.28
0
VERTEX
10
7.5789
20
9.16861
30
6.28
0
VERTEX
10
7.57124
20
9.16861
30
6.28
0
VERTEX
10
7.55592
20
9.17627
30
6.28
0
VERTEX
10
7.54251
20
9.16861
30
6.28
0
VERTEX
10
7.53485
20
9.16478
30
6.28
0
VERTEX
10
7.52527
20
9.14946
30
6.28
0
VERTEX
10
7.52336
20
9.13413
30
6.28
0
VERTEX
10
7.52336
20
9.13222
30
6.28
0
SEQEND
0
POLYLINE
62
31
66
1
70
1
3
contour
0
VERTEX
10
8.51601
20
9.12513
30
6.28
0
VERTEX
10
8.51935
20
9.09836
30
6.28
0
VERTEX
10
8.5227
20
9.09501
30
6.28
0
VERTEX
10
8.5227
20
9.09166
30
6.28
0
VERTEX
10
8.5294
20
9.08664
30
6.28
0
VERTEX
10
8.54278
20
9.08664
30
6.28
0
VERTEX
10
8.56956
20
9.09501
30
6.28
0
VERTEX
10
8.57458
20
9.10003
30
6.28
0
VERTEX
10
8.5729
20
9.1268
30
6.28
0
VERTEX
10
8.56788
20
9.14019
30
6.28
0
VERTEX
10
8.56454
20
9.14689
30
6.28
0
VERTEX
10
8.55115
20
9.15191
30
6.28
0
VERTEX
10
8.54613
20
9.15023
30
6.28
0
VERTEX
10
8.54278
20
9.15191
30
6.28
0
VERTEX
10
8.5294
20
9.14689
30
6.28
0
VERTEX
10
8.51601
20
9.13517
30
6.28
0
VERTEX
10
8.51601
20
9.12848
30
6.28
0
VERTEX
10
8.51601
20
9.1268
30
6.28
0
SEQEND
0
POLYLINE
62
31
66
1
70
1
3
contour
0
VERTEX
10
8.81053
20
9.31088
30
6.28
0
VERTEX
10
8.81722
20
9.30586
30
6.28
0
VERTEX
10
8.844
20
9.29917
30
6.28
0
VERTEX
10
8.9511
20
9.2908
30
6.28
0
VERTEX
10
8.97787
20
9.29247
30
6.28
0
VERTEX
10
8.98456
20
9.29582
30
6.28
0
VERTEX
10
9.01134
20
9.29749
30
6.28
0
VERTEX
10
9.01803
20
9.30251
30
6.28
0
VERTEX
10
9.02473
20
9.30419
30
6.28
0
VERTEX
10
9.02807
20
9.30586
30
6.28
0
VERTEX
10
9.02807
20
9.30921
30
6.28
0
VERTEX
10
9.04146
20
9.31255
30
6.28
0
VERTEX
10
9.04815
20
9.31255
30
6.28
0
VERTEX
10
9.05485
20
9.3159
30
6.28
0
VERTEX
10
9.06823
20
9.31757
30
6.28
0
VERTEX
10
9.09501
20
9.32594
30
6.28
0
VERTEX
10
9.12178
20
9.32594
30
6.28
0
VERTEX
10
9.17533
20
9.32092
30
6.28
0
VERTEX
10
9.20211
20
9.32092
30
6.28
0
VERTEX
10
9.2155
20
9.32259
30
6.28
0
VERTEX
10
9.22219
20
9.32594
30
6.28
0
VERTEX
10
9.22386
20
9.32929
30
6.28
0
VERTEX
10
9.25064
20
9.32929
30
6.28
0
VERTEX
10
9.25733
20
9.33263
30
6.28
0
VERTEX
10
9.31088
20
9.33263
30
6.28
0
VERTEX
10
9.33765
20
9.33263
30
6.28
0
VERTEX
10
9.35104
20
9.33263
30
6.28
0
VERTEX
10
9.40459
20
9.341
30
6.28
0
VERTEX
10
9.40794
20
9.34435
30
6.28
0
VERTEX
10
9.42133
20
9.34435
30
6.28
0
VERTEX
10
9.43304
20
9.35104
30
6.28
0
VERTEX
10
9.45981
20
9.35606
30
6.28
0
VERTEX
10
9.46651
20
9.35606
30
6.28
0
VERTEX
10
9.47153
20
9.36108
30
6.28
0
VERTEX
10
9.48491
20
9.36108
30
6.28
0
VERTEX
10
9.49161
20
9.36443
30
6.28
0
VERTEX
10
9.505
20
9.36276
30
6.28
0
VERTEX
10
9.51838
20
9.36945
30
6.28
0
VERTEX
10
9.51838
20
9.3728
30
6.28
0
VERTEX
10
9.52173
20
9.37447
30
6.28
0
VERTEX
10
9.52508
20
9.38786
30
6.28
0
VERTEX
10
9.52675
20
9.39455
30
6.28
0
VERTEX
10
9.52675
20
9.3979
30
6.28
0
VERTEX
10
9.53512
20
9.41128
30
6.28
0
VERTEX
10
9.54348
20
9.43806
30
6.28
0
VERTEX
10
9.54348
20
9.45145
30
6.28
0
VERTEX
10
9.54181
20
9.45814
30
6.28
0
VERTEX
10
9.54516
20
9.46483
30
6.28
0
VERTEX
10
9.54516
20
9.49161
30
6.28
0
VERTEX
10
9.55018
20
9.505
30
6.28
0
VERTEX
10
9.55018
20
9.50834
30
6.28
0
VERTEX
10
9.5552
20
9.51504
30
6.28
0
VERTEX
10
9.5552
20
9.52173
30
6.28
0
VERTEX
10
9.56022
20
9.53512
30
6.28
0
VERTEX
10
9.56022
20
9.56189
30
6.28
0
VERTEX
10
9.55855
20
9.57528
30
6.28
0
VERTEX
10
9.55687
20
9.58197
30
6.28
0
VERTEX
10
9.55185
20
9.58867
30
6.28
0
VERTEX
10
9.54516
20
9.59201
30
6.28
0
VERTEX
10
9.54516
20
9.59536
30
6.28
0
VERTEX
10
9.54014
20
9.60205
30
6.28
0
VERTEX
10
9.53846
20
9.6556
30
6.28
0
VERTEX
10
9.53679
20
9.6623
30
6.28
0
VERTEX
10
9.53177
20
9.66899
30
6.28
0
VERTEX
10
9.53177
20
9.67568
30
6.28
0
VERTEX
10
9.52842
20
9.67903
30
6.28
0
VERTEX
10
9.52842
20
9.68238
30
6.28
0
VERTEX
10
9.52173
20
9.68572
30
6.28
0
VERTEX
10
9.51336
20
9.71083
30
6.28
0
VERTEX
10
9.51336
20
9.72421
30
6.28
0
VERTEX
10
9.50165
20
9.73425
30
6.28
0
VERTEX
10
9.48826
20
9.72923
30
6.28
0
VERTEX
10
9.47487
20
9.72756
30
6.28
0
VERTEX
10
9.46818
20
9.72589
30
6.28
0
VERTEX
10
9.46149
20
9.72087
30
6.28
0
VERTEX
10
9.45479
20
9.72087
30
6.28
0
VERTEX
10
9.44141
20
9.71585
30
6.28
0
VERTEX
10
9.42802
20
9.71417
30
6.28
0
VERTEX
10
9.37447
20
9.71919
30
6.28
0
VERTEX
10
9.36108
20
9.71919
30
6.28
0
VERTEX
10
9.35606
20
9.71752
30
6.28
0
VERTEX
10
9.34267
20
9.71919
30
6.28
0
VERTEX
10
9.28913
20
9.71417
30
6.28
0
VERTEX
10
9.28243
20
9.7125
30
6.28
0
VERTEX
10
9.27908
20
9.70915
30
6.28
0
VERTEX
10
9.2657
20
9.70748
30
6.28
0
VERTEX
10
9.23892
20
9.69744
30
6.28
0
VERTEX
10
9.22554
20
9.68907
30
6.28
0
VERTEX
10
9.21215
20
9.68572
30
6.28
0
VERTEX
10
9.20545
20
9.68572
30
6.28
0
VERTEX
10
9.20211
20
9.67903
30
6.28
0
VERTEX
10
9.19541
20
9.67568
30
6.28
0
VERTEX
10
9.19039
20
9.66899
30
6.28
0
VERTEX
10
9.17701
20
9.66397
30
6.28
0
VERTEX
10
9.17366
20
9.66062
30
6.28
0
VERTEX
10
9.17031
20
9.66062
30
6.28
0
VERTEX
10
9.16697
20
9.65728
30
6.28
0
VERTEX
10
9.16362
20
9.65728
30
6.28
0
VERTEX
10
9.16027
20
9.65393
30
6.28
0
VERTEX
10
9.15693
20
9.65393
30
6.28
0
VERTEX
10
9.15191
20
9.64724
30
6.28
0
VERTEX
10
9.14856
20
9.64724
30
6.28
0
VERTEX
10
9.14186
20
9.64222
30
6.28
0
VERTEX
10
9.08832
20
9.63887
30
6.28
0
VERTEX
10
9.06154
20
9.64222
30
6.28
0
VERTEX
10
9.05485
20
9.64389
30
6.28
0
VERTEX
10
9.0515
20
9.65058
30
6.28
0
VERTEX
10
9.03811
20
9.65393
30
6.28
0
VERTEX
10
9.0264
20
9.6623
30
6.28
0
VERTEX
10
9.01971
20
9.6623
30
6.28
0
VERTEX
10
9.01636
20
9.66564
30
6.28
0
VERTEX
10
9.00297
20
9.66564
30
6.28
0
VERTEX
10
8.99628
20
9.66564
30
6.28
0
VERTEX
10
8.98958
20
9.66062
30
6.28
0
VERTEX
10
8.98456
20
9.60707
30
6.28
0
VERTEX
10
8.98456
20
9.5803
30
6.28
0
VERTEX
10
8.98456
20
9.57361
30
6.28
0
VERTEX
10
8.99126
20
9.56859
30
6.28
0
VERTEX
10
8.99962
20
9.55687
30
6.28
0
VERTEX
10
9.01134
20
9.54683
30
6.28
0
VERTEX
10
9.01301
20
9.53344
30
6.28
0
VERTEX
10
9.01971
20
9.52173
30
6.28
0
VERTEX
10
9.02138
20
9.46818
30
6.28
0
VERTEX
10
9.01971
20
9.46149
30
6.28
0
VERTEX
10
9.01971
20
9.45814
30
6.28
0
VERTEX
10
8.96616
20
9.44977
30
6.28
0
VERTEX
10
8.93938
20
9.44977
30
6.28
0
VERTEX
10
8.93269
20
9.44643
30
6.28
0
VERTEX
10
8.92934
20
9.44643
30
6.28
0
VERTEX
10
8.91595
20
9.43304
30
6.28
0
VERTEX
10
8.91261
20
9.42969
30
6.28
0
VERTEX
10
8.90591
20
9.42802
30
6.28
0
VERTEX
10
8.90089
20
9.423
30
6.28
0
VERTEX
10
8.8942
20
9.42133
30
6.28
0
VERTEX
10
8.89085
20
9.41798
30
6.28
0
VERTEX
10
8.87747
20
9.4163
30
6.28
0
VERTEX
10
8.85236
20
9.40626
30
6.28
0
VERTEX
10
8.83898
20
9.40124
30
6.28
0
VERTEX
10
8.82726
20
9.3912
30
6.28
0
VERTEX
10
8.82057
20
9.37782
30
6.28
0
VERTEX
10
8.81722
20
9.32427
30
6.28
0
VERTEX
10
8.81722
20
9.31757
30
6.28
0
VERTEX
10
8.81722
20
9.31423
30
6.28
0
VERTEX
10
8.81053
20
9.31255
30
6.28
0
SEQEND
0
ENDSEC
0
EOF
