0
SECTION
2
ENTITIES
0
POLYLINE
62
31
66
1
70
1
3
contour
0
VERTEX
10
8.19098
20
9.4061
30
5.72
0
VERTEX
10
8.19542
20
9.40167
30
5.72
0
VERTEX
10
8.19542
20
9.3928
30
5.72
0
VERTEX
10
8.20872
20
9.37728
30
5.72
0
VERTEX
10
8.23976
20
9.35288
30
5.72
0
VERTEX
10
8.24863
20
9.34845
30
5.72
0
VERTEX
10
8.25307
20
9.34845
30
5.72
0
VERTEX
10
8.26194
20
9.3418
30
5.72
0
VERTEX
10
8.26637
20
9.33736
30
5.72
0
VERTEX
10
8.27524
20
9.33515
30
5.72
0
VERTEX
10
8.28411
20
9.32849
30
5.72
0
VERTEX
10
8.30185
20
9.32628
30
5.72
0
VERTEX
10
8.31072
20
9.32184
30
5.72
0
VERTEX
10
8.32846
20
9.31962
30
5.72
0
VERTEX
10
8.39276
20
9.25975
30
5.72
0
VERTEX
10
8.4105
20
9.24867
30
5.72
0
VERTEX
10
8.42824
20
9.24202
30
5.72
0
VERTEX
10
8.43711
20
9.23758
30
5.72
0
VERTEX
10
8.44154
20
9.23758
30
5.72
0
VERTEX
10
8.45707
20
9.22428
30
5.72
0
VERTEX
10
8.46593
20
9.21762
30
5.72
0
VERTEX
10
8.48367
20
9.21097
30
5.72
0
VERTEX
10
8.49254
20
9.2021
30
5.72
0
VERTEX
10
8.5258
20
9.18215
30
5.72
0
VERTEX
10
8.56128
20
9.17549
30
5.72
0
VERTEX
10
8.57015
20
9.17549
30
5.72
0
VERTEX
10
8.58789
20
9.16884
30
5.72
0
VERTEX
10
8.62337
20
9.16884
30
5.72
0
VERTEX
10
8.64111
20
9.17106
30
5.72
0
VERTEX
10
8.64998
20
9.17328
30
5.72
0
VERTEX
10
8.66772
20
9.16884
30
5.72
0
VERTEX
10
8.67659
20
9.16662
30
5.72
0
VERTEX
10
8.69211
20
9.15554
30
5.72
0
VERTEX
10
8.70985
20
9.14889
30
5.72
0
VERTEX
10
8.72758
20
9.14667
30
5.72
0
VERTEX
10
8.73645
20
9.14223
30
5.72
0
VERTEX
10
8.80741
20
9.14002
30
5.72
0
VERTEX
10
8.84289
20
9.1378
30
5.72
0
VERTEX
10
8.87837
20
9.12449
30
5.72
0
VERTEX
10
8.89611
20
9.12228
30
5.72
0
VERTEX
10
8.90276
20
9.11563
30
5.72
0
VERTEX
10
8.93824
20
9.10232
30
5.72
0
VERTEX
10
8.9471
20
9.1001
30
5.72
0
VERTEX
10
8.95597
20
9.09345
30
5.72
0
VERTEX
10
8.99145
20
9.08015
30
5.72
0
VERTEX
10
8.99367
20
9.08236
30
5.72
0
VERTEX
10
8.99145
20
9.0868
30
5.72
0
VERTEX
10
9.06241
20
9.0868
30
5.72
0
VERTEX
10
9.09789
20
9.0868
30
5.72
0
VERTEX
10
9.16662
20
9.10676
30
5.72
0
VERTEX
10
9.17106
20
9.11119
30
5.72
0
VERTEX
10
9.1888
20
9.11119
30
5.72
0
VERTEX
10
9.19323
20
9.11119
30
5.72
0
VERTEX
10
9.22649
20
9.1378
30
5.72
0
VERTEX
10
9.23315
20
9.14445
30
5.72
0
VERTEX
10
9.24202
20
9.14445
30
5.72
0
VERTEX
10
9.2531
20
9.15997
30
5.72
0
VERTEX
10
9.26862
20
9.17328
30
5.72
0
VERTEX
10
9.27528
20
9.17993
30
5.72
0
VERTEX
10
9.27749
20
9.1888
30
5.72
0
VERTEX
10
9.29523
20
9.19989
30
5.72
0
VERTEX
10
9.30188
20
9.21762
30
5.72
0
VERTEX
10
9.30632
20
9.22206
30
5.72
0
VERTEX
10
9.3041
20
9.29302
30
5.72
0
VERTEX
10
9.29967
20
9.31075
30
5.72
0
VERTEX
10
9.29967
20
9.31519
30
5.72
0
VERTEX
10
9.29523
20
9.31962
30
5.72
0
VERTEX
10
9.29523
20
9.32406
30
5.72
0
VERTEX
10
9.2908
20
9.32849
30
5.72
0
VERTEX
10
9.28858
20
9.33736
30
5.72
0
VERTEX
10
9.28858
20
9.3418
30
5.72
0
VERTEX
10
9.28415
20
9.34623
30
5.72
0
VERTEX
10
9.27749
20
9.36397
30
5.72
0
VERTEX
10
9.25754
20
9.39945
30
5.72
0
VERTEX
10
9.24423
20
9.41497
30
5.72
0
VERTEX
10
9.2398
20
9.41497
30
5.72
0
VERTEX
10
9.22428
20
9.42828
30
5.72
0
VERTEX
10
9.21541
20
9.43271
30
5.72
0
VERTEX
10
9.21097
20
9.43271
30
5.72
0
VERTEX
10
9.20432
20
9.43936
30
5.72
0
VERTEX
10
9.19545
20
9.44158
30
5.72
0
VERTEX
10
9.19102
20
9.44601
30
5.72
0
VERTEX
10
9.17328
20
9.44823
30
5.72
0
VERTEX
10
9.16441
20
9.45045
30
5.72
0
VERTEX
10
9.15997
20
9.45488
30
5.72
0
VERTEX
10
9.14223
20
9.45932
30
5.72
0
VERTEX
10
9.1378
20
9.46375
30
5.72
0
VERTEX
10
9.13336
20
9.46375
30
5.72
0
VERTEX
10
9.12893
20
9.46819
30
5.72
0
VERTEX
10
9.11119
20
9.47262
30
5.72
0
VERTEX
10
9.04023
20
9.47041
30
5.72
0
VERTEX
10
9.0225
20
9.47041
30
5.72
0
VERTEX
10
9.00476
20
9.46375
30
5.72
0
VERTEX
10
8.98702
20
9.45267
30
5.72
0
VERTEX
10
8.98258
20
9.45267
30
5.72
0
VERTEX
10
8.96928
20
9.43714
30
5.72
0
VERTEX
10
8.95376
20
9.43049
30
5.72
0
VERTEX
10
8.94489
20
9.42828
30
5.72
0
VERTEX
10
8.93824
20
9.42162
30
5.72
0
VERTEX
10
8.9205
20
9.41941
30
5.72
0
VERTEX
10
8.91163
20
9.41941
30
5.72
0
VERTEX
10
8.90276
20
9.41275
30
5.72
0
VERTEX
10
8.89832
20
9.40832
30
5.72
0
VERTEX
10
8.89389
20
9.40832
30
5.72
0
VERTEX
10
8.87837
20
9.39723
30
5.72
0
VERTEX
10
8.8695
20
9.39058
30
5.72
0
VERTEX
10
8.86063
20
9.38836
30
5.72
0
VERTEX
10
8.85619
20
9.38393
30
5.72
0
VERTEX
10
8.83845
20
9.38171
30
5.72
0
VERTEX
10
8.84511
20
9.36397
30
5.72
0
VERTEX
10
8.84732
20
9.35954
30
5.72
0
VERTEX
10
8.84067
20
9.35067
30
5.72
0
VERTEX
10
8.83845
20
9.31519
30
5.72
0
VERTEX
10
8.83624
20
9.29745
30
5.72
0
VERTEX
10
8.82958
20
9.27971
30
5.72
0
VERTEX
10
8.8185
20
9.27084
30
5.72
0
VERTEX
10
8.81628
20
9.26197
30
5.72
0
VERTEX
10
8.80076
20
9.24645
30
5.72
0
VERTEX
10
8.79189
20
9.24202
30
5.72
0
VERTEX
10
8.75641
20
9.2398
30
5.72
0
VERTEX
10
8.75198
20
9.23536
30
5.72
0
VERTEX
10
8.7165
20
9.23315
30
5.72
0
VERTEX
10
8.69876
20
9.22871
30
5.72
0
VERTEX
10
8.66328
20
9.23758
30
5.72
0
VERTEX
10
8.65885
20
9.23758
30
5.72
0
VERTEX
10
8.65441
20
9.24202
30
5.72
0
VERTEX
10
8.64554
20
9.24423
30
5.72
0
VERTEX
10
8.63002
20
9.25532
30
5.72
0
VERTEX
10
8.59454
20
9.26862
30
5.72
0
VERTEX
10
8.55906
20
9.27528
30
5.72
0
VERTEX
10
8.52359
20
9.28858
30
5.72
0
VERTEX
10
8.51915
20
9.29302
30
5.72
0
VERTEX
10
8.51472
20
9.29302
30
5.72
0
VERTEX
10
8.48367
20
9.31741
30
5.72
0
VERTEX
10
8.46815
20
9.33071
30
5.72
0
VERTEX
10
8.46372
20
9.33515
30
5.72
0
VERTEX
10
8.46372
20
9.33958
30
5.72
0
VERTEX
10
8.45707
20
9.34845
30
5.72
0
VERTEX
10
8.44376
20
9.38393
30
5.72
0
VERTEX
10
8.43933
20
9.3928
30
5.72
0
VERTEX
10
8.43933
20
9.41054
30
5.72
0
VERTEX
10
8.43933
20
9.41941
30
5.72
0
VERTEX
10
8.43489
20
9.42828
30
5.72
0
VERTEX
10
8.43267
20
9.44601
30
5.72
0
VERTEX
10
8.43489
20
9.46375
30
5.72
0
VERTEX
10
8.42824
20
9.48149
30
5.72
0
VERTEX
10
8.42159
20
9.49036
30
5.72
0
VERTEX
10
8.41715
20
9.4948
30
5.72
0
VERTEX
10
8.41715
20
9.49923
30
5.72
0
VERTEX
10
8.40385
20
9.51475
30
5.72
0
VERTEX
10
8.38611
20
9.53249
30
5.72
0
VERTEX
10
8.37502
20
9.55023
30
5.72
0
VERTEX
10
8.36837
20
9.5591
30
5.72
0
VERTEX
10
8.36837
20
9.56353
30
5.72
0
VERTEX
10
8.3595
20
9.56575
30
5.72
0
VERTEX
10
8.35063
20
9.58127
30
5.72
0
VERTEX
10
8.27968
20
9.58127
30
5.72
0
VERTEX
10
8.26194
20
9.57906
30
5.72
0
VERTEX
10
8.25307
20
9.57906
30
5.72
0
VERTEX
10
8.24863
20
9.57462
30
5.72
0
VERTEX
10
8.23089
20
9.57019
30
5.72
0
VERTEX
10
8.22424
20
9.56132
30
5.72
0
VERTEX
10
8.22424
20
9.55688
30
5.72
0
VERTEX
10
8.21537
20
9.54801
30
5.72
0
VERTEX
10
8.20872
20
9.53027
30
5.72
0
VERTEX
10
8.20207
20
9.4948
30
5.72
0
VERTEX
10
8.20207
20
9.48593
30
5.72
0
VERTEX
10
8.19542
20
9.46819
30
5.72
0
VERTEX
10
8.19098
20
9.43271
30
5.72
0
VERTEX
10
8.19098
20
9.41497
30
5.72
0
VERTEX
10
8.19098
20
9.40832
30
5.72
0
SEQEND
0
POLYLINE
62
31
66
1
70
1
3
contour
0
VERTEX
10
7.77139
20
9.22336
30
5.72
0
VERTEX
10
7.79004
20
9.21004
30
5.72
0
VERTEX
10
7.81135
20
9.21004
30
5.72
0
VERTEX
10
7.82201
20
9.21803
30
5.72
0
VERTEX
10
7.82734
20
9.22869
30
5.72
0
VERTEX
10
7.82734
20
9.25
30
5.72
0
VERTEX
10
7.82734
20
9.26066
30
5.72
0
VERTEX
10
7.81668
20
9.26599
30
5.72
0
VERTEX
10
7.79537
20
9.26865
30
5.72
0
VERTEX
10
7.78737
20
9.27665
30
5.72
0
VERTEX
10
7.77672
20
9.26865
30
5.72
0
VERTEX
10
7.77139
20
9.26332
30
5.72
0
VERTEX
10
7.77139
20
9.24201
30
5.72
0
VERTEX
10
7.77139
20
9.23135
30
5.72
0
VERTEX
10
7.77139
20
9.22603
30
5.72
0
SEQEND
0
POLYLINE
62
224
66
1
70
1
3
mitochondrion
0
VERTEX
10
9.07951
20
9.31588
30
5.72
0
VERTEX
10
9.08229
20
9.3131
30
5.72
0
VERTEX
10
9.08368
20
9.29085
30
5.72
0
VERTEX
10
9.08368
20
9.27973
30
5.72
0
VERTEX
10
9.08368
20
9.27417
30
5.72
0
VERTEX
10
9.09341
20
9.25192
30
5.72
0
VERTEX
10
9.09758
20
9.24775
30
5.72
0
VERTEX
10
9.09758
20
9.24497
30
5.72
0
VERTEX
10
9.11705
20
9.2255
30
5.72
0
VERTEX
10
9.12122
20
9.21994
30
5.72
0
VERTEX
10
9.124
20
9.21994
30
5.72
0
VERTEX
10
9.124
20
9.21716
30
5.72
0
VERTEX
10
9.13512
20
9.20882
30
5.72
0
VERTEX
10
9.14069
20
9.20465
30
5.72
0
VERTEX
10
9.14347
20
9.20187
30
5.72
0
VERTEX
10
9.16571
20
9.19908
30
5.72
0
VERTEX
10
9.17684
20
9.19769
30
5.72
0
VERTEX
10
9.1824
20
9.19769
30
5.72
0
VERTEX
10
9.20465
20
9.20604
30
5.72
0
VERTEX
10
9.21577
20
9.20743
30
5.72
0
VERTEX
10
9.2255
20
9.21299
30
5.72
0
VERTEX
10
9.23106
20
9.21577
30
5.72
0
VERTEX
10
9.23524
20
9.22689
30
5.72
0
VERTEX
10
9.23524
20
9.22967
30
5.72
0
VERTEX
10
9.23941
20
9.23524
30
5.72
0
VERTEX
10
9.24219
20
9.23802
30
5.72
0
VERTEX
10
9.24358
20
9.24358
30
5.72
0
VERTEX
10
9.24775
20
9.24775
30
5.72
0
VERTEX
10
9.25192
20
9.25887
30
5.72
0
VERTEX
10
9.25331
20
9.28112
30
5.72
0
VERTEX
10
9.25331
20
9.29224
30
5.72
0
VERTEX
10
9.24636
20
9.31449
30
5.72
0
VERTEX
10
9.23385
20
9.33674
30
5.72
0
VERTEX
10
9.21299
20
9.3562
30
5.72
0
VERTEX
10
9.21299
20
9.35898
30
5.72
0
VERTEX
10
9.20465
20
9.36872
30
5.72
0
VERTEX
10
9.20047
20
9.37428
30
5.72
0
VERTEX
10
9.19769
20
9.37706
30
5.72
0
VERTEX
10
9.19491
20
9.37706
30
5.72
0
VERTEX
10
9.18379
20
9.38679
30
5.72
0
VERTEX
10
9.17962
20
9.39235
30
5.72
0
VERTEX
10
9.17684
20
9.39513
30
5.72
0
VERTEX
10
9.17128
20
9.39653
30
5.72
0
VERTEX
10
9.16849
20
9.39931
30
5.72
0
VERTEX
10
9.16293
20
9.39931
30
5.72
0
VERTEX
10
9.15737
20
9.40348
30
5.72
0
VERTEX
10
9.15459
20
9.40626
30
5.72
0
VERTEX
10
9.13234
20
9.40626
30
5.72
0
VERTEX
10
9.12122
20
9.40487
30
5.72
0
VERTEX
10
9.1101
20
9.4007
30
5.72
0
VERTEX
10
9.10454
20
9.39792
30
5.72
0
VERTEX
10
9.10454
20
9.39513
30
5.72
0
VERTEX
10
9.0948
20
9.38679
30
5.72
0
VERTEX
10
9.09063
20
9.38123
30
5.72
0
VERTEX
10
9.08507
20
9.37845
30
5.72
0
VERTEX
10
9.08229
20
9.3562
30
5.72
0
VERTEX
10
9.08229
20
9.34508
30
5.72
0
VERTEX
10
9.07951
20
9.33396
30
5.72
0
VERTEX
10
9.07951
20
9.32283
30
5.72
0
VERTEX
10
9.07951
20
9.31727
30
5.72
0
SEQEND
0
POLYLINE
62
236
66
1
70
1
3
postsynaptic_density
0
VERTEX
10
8.34951
20
9.54577
30
5.72
0
VERTEX
10
8.35325
20
9.53084
30
5.72
0
VERTEX
10
8.35511
20
9.52337
30
5.72
0
VERTEX
10
8.35698
20
9.51964
30
5.72
0
VERTEX
10
8.38684
20
9.52151
30
5.72
0
VERTEX
10
8.3943
20
9.52524
30
5.72
0
VERTEX
10
8.40177
20
9.52524
30
5.72
0
VERTEX
10
8.41297
20
9.53644
30
5.72
0
VERTEX
10
8.41857
20
9.54017
30
5.72
0
VERTEX
10
8.42603
20
9.54763
30
5.72
0
VERTEX
10
8.4335
20
9.55137
30
5.72
0
VERTEX
10
8.4111
20
9.58123
30
5.72
0
VERTEX
10
8.40737
20
9.58869
30
5.72
0
VERTEX
10
8.39244
20
9.59429
30
5.72
0
VERTEX
10
8.37751
20
9.59616
30
5.72
0
VERTEX
10
8.37378
20
9.59616
30
5.72
0
VERTEX
10
8.36071
20
9.58496
30
5.72
0
VERTEX
10
8.35325
20
9.58123
30
5.72
0
VERTEX
10
8.34951
20
9.57376
30
5.72
0
VERTEX
10
8.34951
20
9.55883
30
5.72
0
VERTEX
10
8.34951
20
9.55137
30
5.72
0
VERTEX
10
8.34951
20
9.54763
30
5.72
0
SEQEND
0
POLYLINE
62
227
66
1
70
1
3
endoplasmic_reticulum
0
VERTEX
10
8.95022
20
9.20843
30
5.72
0
VERTEX
10
8.95201
20
9.20125
30
5.72
0
VERTEX
10
8.95201
20
9.19946
30
5.72
0
VERTEX
10
8.9547
20
9.19677
30
5.72
0
VERTEX
10
8.9547
20
9.19498
30
5.72
0
VERTEX
10
8.95829
20
9.19229
30
5.72
0
VERTEX
10
8.95829
20
9.19049
30
5.72
0
VERTEX
10
8.96187
20
9.18691
30
5.72
0
VERTEX
10
8.96905
20
9.18601
30
5.72
0
VERTEX
10
8.98339
20
9.1887
30
5.72
0
VERTEX
10
8.98608
20
9.19587
30
5.72
0
VERTEX
10
8.98608
20
9.19946
30
5.72
0
VERTEX
10
8.99056
20
9.20663
30
5.72
0
VERTEX
10
8.99684
20
9.21111
30
5.72
0
VERTEX
10
8.99863
20
9.21291
30
5.72
0
VERTEX
10
8.99863
20
9.2147
30
5.72
0
VERTEX
10
9.00043
20
9.21649
30
5.72
0
VERTEX
10
8.99774
20
9.23084
30
5.72
0
VERTEX
10
8.99594
20
9.23442
30
5.72
0
VERTEX
10
8.9816
20
9.24518
30
5.72
0
VERTEX
10
8.96725
20
9.24608
30
5.72
0
VERTEX
10
8.96546
20
9.24608
30
5.72
0
VERTEX
10
8.96277
20
9.24249
30
5.72
0
VERTEX
10
8.96098
20
9.23532
30
5.72
0
VERTEX
10
8.96008
20
9.23174
30
5.72
0
VERTEX
10
8.95022
20
9.21829
30
5.72
0
VERTEX
10
8.95022
20
9.21111
30
5.72
0
VERTEX
10
8.95022
20
9.20932
30
5.72
0
SEQEND
0
POLYLINE
62
227
66
1
70
1
3
endoplasmic_reticulum
0
VERTEX
10
8.93319
20
9.36622
30
5.72
0
VERTEX
10
8.93767
20
9.35904
30
5.72
0
VERTEX
10
8.93946
20
9.35815
30
5.72
0
VERTEX
10
8.93946
20
9.35636
30
5.72
0
VERTEX
10
8.94125
20
9.35456
30
5.72
0
VERTEX
10
8.94843
20
9.35277
30
5.72
0
VERTEX
10
8.96277
20
9.35367
30
5.72
0
VERTEX
10
8.96994
20
9.35546
30
5.72
0
VERTEX
10
8.97712
20
9.35904
30
5.72
0
VERTEX
10
8.9807
20
9.35904
30
5.72
0
VERTEX
10
8.98429
20
9.36084
30
5.72
0
VERTEX
10
8.98608
20
9.36263
30
5.72
0
VERTEX
10
8.98787
20
9.36263
30
5.72
0
VERTEX
10
8.99056
20
9.36622
30
5.72
0
VERTEX
10
8.99056
20
9.36801
30
5.72
0
VERTEX
10
8.99684
20
9.37429
30
5.72
0
VERTEX
10
8.99953
20
9.37698
30
5.72
0
VERTEX
10
8.99953
20
9.39132
30
5.72
0
VERTEX
10
8.98787
20
9.40298
30
5.72
0
VERTEX
10
8.98608
20
9.40477
30
5.72
0
VERTEX
10
8.97174
20
9.40656
30
5.72
0
VERTEX
10
8.96994
20
9.40835
30
5.72
0
VERTEX
10
8.9556
20
9.40835
30
5.72
0
VERTEX
10
8.95201
20
9.40746
30
5.72
0
VERTEX
10
8.94843
20
9.40477
30
5.72
0
VERTEX
10
8.94484
20
9.40387
30
5.72
0
VERTEX
10
8.93856
20
9.39849
30
5.72
0
VERTEX
10
8.93588
20
9.39491
30
5.72
0
VERTEX
10
8.93319
20
9.36711
30
5.72
0
SEQEND
0
ENDSEC
0
EOF
