0
SECTION
2
ENTITIES
0
POLYLINE
62
236
66
1
70
1
3
postsynaptic_density
0
VERTEX
10
6.59899
20
10.4024
30
10.4
0
VERTEX
10
6.60272
20
10.3874
30
10.4
0
VERTEX
10
6.61205
20
10.3744
30
10.4
0
VERTEX
10
6.61579
20
10.3669
30
10.4
0
VERTEX
10
6.63072
20
10.365
30
10.4
0
VERTEX
10
6.63818
20
10.3613
30
10.4
0
VERTEX
10
6.66804
20
10.3613
30
10.4
0
VERTEX
10
6.6979
20
10.3669
30
10.4
0
VERTEX
10
6.72776
20
10.3762
30
10.4
0
VERTEX
10
6.73523
20
10.3762
30
10.4
0
VERTEX
10
6.74269
20
10.3818
30
10.4
0
VERTEX
10
6.75016
20
10.3837
30
10.4
0
VERTEX
10
6.76509
20
10.393
30
10.4
0
VERTEX
10
6.76882
20
10.393
30
10.4
0
VERTEX
10
6.78002
20
10.4061
30
10.4
0
VERTEX
10
6.78561
20
10.4136
30
10.4
0
VERTEX
10
6.78935
20
10.4173
30
10.4
0
VERTEX
10
6.78935
20
10.4248
30
10.4
0
VERTEX
10
6.79494
20
10.4397
30
10.4
0
VERTEX
10
6.79308
20
10.4696
30
10.4
0
VERTEX
10
6.78748
20
10.4994
30
10.4
0
VERTEX
10
6.78561
20
10.5069
30
10.4
0
VERTEX
10
6.77815
20
10.5143
30
10.4
0
VERTEX
10
6.77255
20
10.5181
30
10.4
0
VERTEX
10
6.76509
20
10.5255
30
10.4
0
VERTEX
10
6.64565
20
10.4863
30
10.4
0
VERTEX
10
6.63072
20
10.4826
30
10.4
0
VERTEX
10
6.61765
20
10.4733
30
10.4
0
VERTEX
10
6.61579
20
10.4658
30
10.4
0
VERTEX
10
6.61019
20
10.4584
30
10.4
0
VERTEX
10
6.60832
20
10.4509
30
10.4
0
VERTEX
10
6.60459
20
10.4472
30
10.4
0
VERTEX
10
6.60459
20
10.4434
30
10.4
0
VERTEX
10
6.59899
20
10.436
30
10.4
0
VERTEX
10
6.59899
20
10.4061
30
10.4
0
VERTEX
10
6.59899
20
10.4042
30
10.4
0
SEQEND
0
POLYLINE
62
227
66
1
70
1
3
endoplasmic_reticulum
0
VERTEX
10
7.08092
20
10.8455
30
10.4
0
VERTEX
10
7.08182
20
10.8419
30
10.4
0
VERTEX
10
7.08899
20
10.8357
30
10.4
0
VERTEX
10
7.09616
20
10.8348
30
10.4
0
VERTEX
10
7.11051
20
10.8357
30
10.4
0
VERTEX
10
7.11768
20
10.8357
30
10.4
0
VERTEX
10
7.12127
20
10.8357
30
10.4
0
VERTEX
10
7.12485
20
10.8339
30
10.4
0
VERTEX
10
7.12844
20
10.8339
30
10.4
0
VERTEX
10
7.12575
20
10.8294
30
10.4
0
VERTEX
10
7.11858
20
10.8276
30
10.4
0
VERTEX
10
7.11499
20
10.8267
30
10.4
0
VERTEX
10
7.10871
20
10.8213
30
10.4
0
VERTEX
10
7.10513
20
10.8186
30
10.4
0
VERTEX
10
7.10692
20
10.8043
30
10.4
0
VERTEX
10
7.10782
20
10.8007
30
10.4
0
VERTEX
10
7.10961
20
10.7989
30
10.4
0
VERTEX
10
7.10961
20
10.7971
30
10.4
0
VERTEX
10
7.1123
20
10.7935
30
10.4
0
VERTEX
10
7.11589
20
10.7917
30
10.4
0
VERTEX
10
7.11768
20
10.7917
30
10.4
0
VERTEX
10
7.11947
20
10.7899
30
10.4
0
VERTEX
10
7.14816
20
10.7899
30
10.4
0
VERTEX
10
7.15533
20
10.7908
30
10.4
0
VERTEX
10
7.15892
20
10.7908
30
10.4
0
VERTEX
10
7.16609
20
10.7971
30
10.4
0
VERTEX
10
7.16789
20
10.8043
30
10.4
0
VERTEX
10
7.16968
20
10.8079
30
10.4
0
VERTEX
10
7.16878
20
10.815
30
10.4
0
VERTEX
10
7.17058
20
10.8294
30
10.4
0
VERTEX
10
7.17685
20
10.8339
30
10.4
0
VERTEX
10
7.18402
20
10.8339
30
10.4
0
VERTEX
10
7.18761
20
10.8321
30
10.4
0
VERTEX
10
7.18851
20
10.8294
30
10.4
0
VERTEX
10
7.18761
20
10.8222
30
10.4
0
VERTEX
10
7.18761
20
10.8204
30
10.4
0
VERTEX
10
7.18492
20
10.8168
30
10.4
0
VERTEX
10
7.18313
20
10.815
30
10.4
0
VERTEX
10
7.18313
20
10.8132
30
10.4
0
VERTEX
10
7.18133
20
10.8114
30
10.4
0
VERTEX
10
7.18044
20
10.8043
30
10.4
0
VERTEX
10
7.17506
20
10.7971
30
10.4
0
VERTEX
10
7.17237
20
10.7899
30
10.4
0
VERTEX
10
7.17327
20
10.7828
30
10.4
0
VERTEX
10
7.17416
20
10.7792
30
10.4
0
VERTEX
10
7.17685
20
10.7765
30
10.4
0
VERTEX
10
7.17685
20
10.7747
30
10.4
0
VERTEX
10
7.18402
20
10.7675
30
10.4
0
VERTEX
10
7.1912
20
10.7657
30
10.4
0
VERTEX
10
7.21989
20
10.7666
30
10.4
0
VERTEX
10
7.22616
20
10.7711
30
10.4
0
VERTEX
10
7.23333
20
10.7738
30
10.4
0
VERTEX
10
7.23961
20
10.7792
30
10.4
0
VERTEX
10
7.24409
20
10.7837
30
10.4
0
VERTEX
10
7.24499
20
10.7872
30
10.4
0
VERTEX
10
7.24499
20
10.789
30
10.4
0
VERTEX
10
7.24678
20
10.7908
30
10.4
0
VERTEX
10
7.24589
20
10.8195
30
10.4
0
VERTEX
10
7.2423
20
10.8267
30
10.4
0
VERTEX
10
7.2432
20
10.8303
30
10.4
0
VERTEX
10
7.25754
20
10.8357
30
10.4
0
VERTEX
10
7.26113
20
10.8357
30
10.4
0
VERTEX
10
7.26292
20
10.8374
30
10.4
0
VERTEX
10
7.27726
20
10.8357
30
10.4
0
VERTEX
10
7.28444
20
10.8357
30
10.4
0
VERTEX
10
7.28802
20
10.8374
30
10.4
0
VERTEX
10
7.2952
20
10.8383
30
10.4
0
VERTEX
10
7.30237
20
10.8419
30
10.4
0
VERTEX
10
7.30416
20
10.8437
30
10.4
0
VERTEX
10
7.30595
20
10.8437
30
10.4
0
VERTEX
10
7.30864
20
10.8473
30
10.4
0
VERTEX
10
7.30954
20
10.8617
30
10.4
0
VERTEX
10
7.30954
20
10.8688
30
10.4
0
VERTEX
10
7.30326
20
10.8733
30
10.4
0
VERTEX
10
7.30326
20
10.8751
30
10.4
0
VERTEX
10
7.30147
20
10.876
30
10.4
0
VERTEX
10
7.30147
20
10.8796
30
10.4
0
VERTEX
10
7.29789
20
10.8814
30
10.4
0
VERTEX
10
7.28354
20
10.8832
30
10.4
0
VERTEX
10
7.27637
20
10.8823
30
10.4
0
VERTEX
10
7.26292
20
10.8778
30
10.4
0
VERTEX
10
7.23423
20
10.876
30
10.4
0
VERTEX
10
7.22706
20
10.8751
30
10.4
0
VERTEX
10
7.21271
20
10.8706
30
10.4
0
VERTEX
10
7.20554
20
10.8688
30
10.4
0
VERTEX
10
7.17685
20
10.867
30
10.4
0
VERTEX
10
7.16251
20
10.8661
30
10.4
0
VERTEX
10
7.15533
20
10.8652
30
10.4
0
VERTEX
10
7.14099
20
10.867
30
10.4
0
VERTEX
10
7.13382
20
10.867
30
10.4
0
VERTEX
10
7.11947
20
10.8697
30
10.4
0
VERTEX
10
7.1123
20
10.8724
30
10.4
0
VERTEX
10
7.09796
20
10.8733
30
10.4
0
VERTEX
10
7.09437
20
10.8733
30
10.4
0
VERTEX
10
7.09258
20
10.8733
30
10.4
0
VERTEX
10
7.09078
20
10.8715
30
10.4
0
VERTEX
10
7.0872
20
10.8715
30
10.4
0
VERTEX
10
7.0854
20
10.8679
30
10.4
0
VERTEX
10
7.0854
20
10.8661
30
10.4
0
VERTEX
10
7.08809
20
10.8634
30
10.4
0
VERTEX
10
7.0863
20
10.8599
30
10.4
0
VERTEX
10
7.08451
20
10.8581
30
10.4
0
VERTEX
10
7.08271
20
10.8509
30
10.4
0
VERTEX
10
7.08092
20
10.8473
30
10.4
0
VERTEX
10
7.08092
20
10.8464
30
10.4
0
SEQEND
0
POLYLINE
62
227
66
1
70
1
3
endoplasmic_reticulum
0
VERTEX
10
7.35706
20
10.7962
30
10.4
0
VERTEX
10
7.35795
20
10.789
30
10.4
0
VERTEX
10
7.35975
20
10.7854
30
10.4
0
VERTEX
10
7.35975
20
10.7837
30
10.4
0
VERTEX
10
7.36333
20
10.7801
30
10.4
0
VERTEX
10
7.36513
20
10.7765
30
10.4
0
VERTEX
10
7.3723
20
10.7711
30
10.4
0
VERTEX
10
7.37947
20
10.7675
30
10.4
0
VERTEX
10
7.38306
20
10.7666
30
10.4
0
VERTEX
10
7.38664
20
10.7639
30
10.4
0
VERTEX
10
7.40099
20
10.763
30
10.4
0
VERTEX
10
7.42968
20
10.7675
30
10.4
0
VERTEX
10
7.43326
20
10.7693
30
10.4
0
VERTEX
10
7.43595
20
10.7729
30
10.4
0
VERTEX
10
7.43685
20
10.7801
30
10.4
0
VERTEX
10
7.43775
20
10.7837
30
10.4
0
VERTEX
10
7.43954
20
10.7846
30
10.4
0
VERTEX
10
7.43954
20
10.7989
30
10.4
0
VERTEX
10
7.42251
20
10.8267
30
10.4
0
VERTEX
10
7.41982
20
10.8285
30
10.4
0
VERTEX
10
7.41264
20
10.8276
30
10.4
0
VERTEX
10
7.40906
20
10.8258
30
10.4
0
VERTEX
10
7.40547
20
10.8258
30
10.4
0
VERTEX
10
7.40188
20
10.824
30
10.4
0
VERTEX
10
7.38754
20
10.8258
30
10.4
0
VERTEX
10
7.38395
20
10.824
30
10.4
0
VERTEX
10
7.38216
20
10.824
30
10.4
0
VERTEX
10
7.38037
20
10.8222
30
10.4
0
VERTEX
10
7.37678
20
10.8213
30
10.4
0
VERTEX
10
7.37499
20
10.8213
30
10.4
0
VERTEX
10
7.3723
20
10.8177
30
10.4
0
VERTEX
10
7.36871
20
10.8159
30
10.4
0
VERTEX
10
7.36244
20
10.8097
30
10.4
0
VERTEX
10
7.36064
20
10.8079
30
10.4
0
VERTEX
10
7.35975
20
10.8043
30
10.4
0
VERTEX
10
7.35706
20
10.8016
30
10.4
0
VERTEX
10
7.35706
20
10.798
30
10.4
0
VERTEX
10
7.35706
20
10.7971
30
10.4
0
SEQEND
0
POLYLINE
62
227
66
1
70
1
3
endoplasmic_reticulum
0
VERTEX
10
7.47002
20
10.8805
30
10.4
0
VERTEX
10
7.47092
20
10.8661
30
10.4
0
VERTEX
10
7.47182
20
10.8626
30
10.4
0
VERTEX
10
7.4745
20
10.859
30
10.4
0
VERTEX
10
7.4754
20
10.8554
30
10.4
0
VERTEX
10
7.47809
20
10.8518
30
10.4
0
VERTEX
10
7.47899
20
10.8446
30
10.4
0
VERTEX
10
7.47988
20
10.8428
30
10.4
0
VERTEX
10
7.49423
20
10.8383
30
10.4
0
VERTEX
10
7.5014
20
10.8366
30
10.4
0
VERTEX
10
7.50857
20
10.8366
30
10.4
0
VERTEX
10
7.51037
20
10.8366
30
10.4
0
VERTEX
10
7.51216
20
10.8383
30
10.4
0
VERTEX
10
7.51575
20
10.8392
30
10.4
0
VERTEX
10
7.51933
20
10.8428
30
10.4
0
VERTEX
10
7.52292
20
10.8446
30
10.4
0
VERTEX
10
7.52471
20
10.8464
30
10.4
0
VERTEX
10
7.5265
20
10.8464
30
10.4
0
VERTEX
10
7.5283
20
10.85
30
10.4
0
VERTEX
10
7.53009
20
10.8518
30
10.4
0
VERTEX
10
7.53009
20
10.8554
30
10.4
0
VERTEX
10
7.53368
20
10.8563
30
10.4
0
VERTEX
10
7.53547
20
10.8563
30
10.4
0
VERTEX
10
7.54264
20
10.8626
30
10.4
0
VERTEX
10
7.54802
20
10.8697
30
10.4
0
VERTEX
10
7.54892
20
10.8733
30
10.4
0
VERTEX
10
7.55519
20
10.8796
30
10.4
0
VERTEX
10
7.55699
20
10.8868
30
10.4
0
VERTEX
10
7.56237
20
10.8939
30
10.4
0
VERTEX
10
7.56595
20
10.8975
30
10.4
0
VERTEX
10
7.56775
20
10.9011
30
10.4
0
VERTEX
10
7.56775
20
10.9047
30
10.4
0
VERTEX
10
7.57044
20
10.9074
30
10.4
0
VERTEX
10
7.57133
20
10.911
30
10.4
0
VERTEX
10
7.57402
20
10.9146
30
10.4
0
VERTEX
10
7.57402
20
10.9217
30
10.4
0
VERTEX
10
7.56954
20
10.9352
30
10.4
0
VERTEX
10
7.56237
20
10.9406
30
10.4
0
VERTEX
10
7.55519
20
10.9441
30
10.4
0
VERTEX
10
7.55161
20
10.945
30
10.4
0
VERTEX
10
7.54981
20
10.9468
30
10.4
0
VERTEX
10
7.52113
20
10.9477
30
10.4
0
VERTEX
10
7.50678
20
10.9477
30
10.4
0
VERTEX
10
7.49961
20
10.9477
30
10.4
0
VERTEX
10
7.49602
20
10.9468
30
10.4
0
VERTEX
10
7.49333
20
10.9441
30
10.4
0
VERTEX
10
7.48795
20
10.9298
30
10.4
0
VERTEX
10
7.48526
20
10.9226
30
10.4
0
VERTEX
10
7.48257
20
10.919
30
10.4
0
VERTEX
10
7.47988
20
10.9128
30
10.4
0
VERTEX
10
7.47182
20
10.8993
30
10.4
0
VERTEX
10
7.47002
20
10.8921
30
10.4
0
VERTEX
10
7.47002
20
10.885
30
10.4
0
VERTEX
10
7.47002
20
10.8814
30
10.4
0
SEQEND
0
POLYLINE
62
31
66
1
70
1
3
contour
0
VERTEX
10
6.81397
20
10.8172
30
10.4
0
VERTEX
10
6.81719
20
10.8043
30
10.4
0
VERTEX
10
6.81719
20
10.7979
30
10.4
0
VERTEX
10
6.82362
20
10.785
30
10.4
0
VERTEX
10
6.82683
20
10.7818
30
10.4
0
VERTEX
10
6.82844
20
10.7754
30
10.4
0
VERTEX
10
6.84772
20
10.7545
30
10.4
0
VERTEX
10
6.85094
20
10.7497
30
10.4
0
VERTEX
10
6.85736
20
10.7465
30
10.4
0
VERTEX
10
6.88147
20
10.7256
30
10.4
0
VERTEX
10
6.89433
20
10.7159
30
10.4
0
VERTEX
10
6.90718
20
10.7127
30
10.4
0
VERTEX
10
6.9104
20
10.7127
30
10.4
0
VERTEX
10
6.91361
20
10.7095
30
10.4
0
VERTEX
10
6.91683
20
10.7095
30
10.4
0
VERTEX
10
6.92004
20
10.7063
30
10.4
0
VERTEX
10
6.92647
20
10.7063
30
10.4
0
VERTEX
10
6.92968
20
10.7031
30
10.4
0
VERTEX
10
6.94254
20
10.7015
30
10.4
0
VERTEX
10
6.94897
20
10.6999
30
10.4
0
VERTEX
10
6.95057
20
10.6967
30
10.4
0
VERTEX
10
6.96343
20
10.6934
30
10.4
0
VERTEX
10
6.97468
20
10.6838
30
10.4
0
VERTEX
10
7.00039
20
10.6725
30
10.4
0
VERTEX
10
7.01325
20
10.6693
30
10.4
0
VERTEX
10
7.03896
20
10.6677
30
10.4
0
VERTEX
10
7.06468
20
10.6693
30
10.4
0
VERTEX
10
7.07753
20
10.6693
30
10.4
0
VERTEX
10
7.08396
20
10.6693
30
10.4
0
VERTEX
10
7.09521
20
10.6742
30
10.4
0
VERTEX
10
7.10807
20
10.6725
30
10.4
0
VERTEX
10
7.11128
20
10.6693
30
10.4
0
VERTEX
10
7.12414
20
10.6661
30
10.4
0
VERTEX
10
7.14985
20
10.6661
30
10.4
0
VERTEX
10
7.15628
20
10.6661
30
10.4
0
VERTEX
10
7.15949
20
10.6629
30
10.4
0
VERTEX
10
7.17235
20
10.6597
30
10.4
0
VERTEX
10
7.17396
20
10.6565
30
10.4
0
VERTEX
10
7.18681
20
10.6533
30
10.4
0
VERTEX
10
7.19324
20
10.65
30
10.4
0
VERTEX
10
7.2061
20
10.6484
30
10.4
0
VERTEX
10
7.21253
20
10.6468
30
10.4
0
VERTEX
10
7.21574
20
10.6468
30
10.4
0
VERTEX
10
7.21895
20
10.6436
30
10.4
0
VERTEX
10
7.24467
20
10.6436
30
10.4
0
VERTEX
10
7.25752
20
10.6452
30
10.4
0
VERTEX
10
7.26395
20
10.6452
30
10.4
0
VERTEX
10
7.27038
20
10.6484
30
10.4
0
VERTEX
10
7.29609
20
10.6517
30
10.4
0
VERTEX
10
7.34752
20
10.6725
30
10.4
0
VERTEX
10
7.36038
20
10.6774
30
10.4
0
VERTEX
10
7.37323
20
10.679
30
10.4
0
VERTEX
10
7.37645
20
10.679
30
10.4
0
VERTEX
10
7.38127
20
10.6838
30
10.4
0
VERTEX
10
7.39413
20
10.6886
30
10.4
0
VERTEX
10
7.41984
20
10.6918
30
10.4
0
VERTEX
10
7.42627
20
10.695
30
10.4
0
VERTEX
10
7.43912
20
10.695
30
10.4
0
VERTEX
10
7.44555
20
10.695
30
10.4
0
VERTEX
10
7.44716
20
10.6934
30
10.4
0
VERTEX
10
7.47287
20
10.6967
30
10.4
0
VERTEX
10
7.48573
20
10.7015
30
10.4
0
VERTEX
10
7.49859
20
10.7031
30
10.4
0
VERTEX
10
7.51144
20
10.7079
30
10.4
0
VERTEX
10
7.5243
20
10.7095
30
10.4
0
VERTEX
10
7.52912
20
10.7143
30
10.4
0
VERTEX
10
7.54198
20
10.7159
30
10.4
0
VERTEX
10
7.55323
20
10.7224
30
10.4
0
VERTEX
10
7.57894
20
10.7272
30
10.4
0
VERTEX
10
7.5918
20
10.732
30
10.4
0
VERTEX
10
7.59501
20
10.732
30
10.4
0
VERTEX
10
7.59983
20
10.7384
30
10.4
0
VERTEX
10
7.60465
20
10.7417
30
10.4
0
VERTEX
10
7.6159
20
10.7529
30
10.4
0
VERTEX
10
7.62072
20
10.7593
30
10.4
0
VERTEX
10
7.63197
20
10.7674
30
10.4
0
VERTEX
10
7.64161
20
10.7786
30
10.4
0
VERTEX
10
7.64644
20
10.785
30
10.4
0
VERTEX
10
7.65126
20
10.7883
30
10.4
0
VERTEX
10
7.65447
20
10.7883
30
10.4
0
VERTEX
10
7.66572
20
10.8011
30
10.4
0
VERTEX
10
7.67858
20
10.8108
30
10.4
0
VERTEX
10
7.68822
20
10.822
30
10.4
0
VERTEX
10
7.69947
20
10.8284
30
10.4
0
VERTEX
10
7.72197
20
10.8509
30
10.4
0
VERTEX
10
7.73161
20
10.8638
30
10.4
0
VERTEX
10
7.73161
20
10.867
30
10.4
0
VERTEX
10
7.73804
20
10.8702
30
10.4
0
VERTEX
10
7.74607
20
10.8815
30
10.4
0
VERTEX
10
7.75893
20
10.8863
30
10.4
0
VERTEX
10
7.76536
20
10.8895
30
10.4
0
VERTEX
10
7.77822
20
10.8911
30
10.4
0
VERTEX
10
7.78143
20
10.8911
30
10.4
0
VERTEX
10
7.79429
20
10.9008
30
10.4
0
VERTEX
10
7.7975
20
10.904
30
10.4
0
VERTEX
10
7.80393
20
10.904
30
10.4
0
VERTEX
10
7.81678
20
10.9088
30
10.4
0
VERTEX
10
7.82321
20
10.9088
30
10.4
0
VERTEX
10
7.87143
20
10.9393
30
10.4
0
VERTEX
10
7.88267
20
10.9506
30
10.4
0
VERTEX
10
7.88589
20
10.9506
30
10.4
0
VERTEX
10
7.89232
20
10.9554
30
10.4
0
VERTEX
10
7.91803
20
10.9634
30
10.4
0
VERTEX
10
7.93089
20
10.9634
30
10.4
0
VERTEX
10
7.9566
20
10.9682
30
10.4
0
VERTEX
10
7.95981
20
10.9682
30
10.4
0
VERTEX
10
7.96142
20
10.9715
30
10.4
0
VERTEX
10
8.01285
20
10.9763
30
10.4
0
VERTEX
10
8.01445
20
10.9795
30
10.4
0
VERTEX
10
8.02731
20
10.9827
30
10.4
0
VERTEX
10
8.03052
20
10.9827
30
10.4
0
VERTEX
10
8.03856
20
10.994
30
10.4
0
VERTEX
10
8.04338
20
11.0068
30
10.4
0
VERTEX
10
8.04017
20
11.0325
30
10.4
0
VERTEX
10
8.02892
20
11.0454
30
10.4
0
VERTEX
10
8.00481
20
11.0631
30
10.4
0
VERTEX
10
8.0032
20
11.0663
30
10.4
0
VERTEX
10
7.99999
20
11.0663
30
10.4
0
VERTEX
10
7.99678
20
11.0695
30
10.4
0
VERTEX
10
7.94535
20
11.0695
30
10.4
0
VERTEX
10
7.93249
20
11.0679
30
10.4
0
VERTEX
10
7.92607
20
11.0679
30
10.4
0
VERTEX
10
7.92285
20
11.0679
30
10.4
0
VERTEX
10
7.91803
20
11.0631
30
10.4
0
VERTEX
10
7.9116
20
11.0631
30
10.4
0
VERTEX
10
7.90517
20
11.0582
30
10.4
0
VERTEX
10
7.85375
20
11.0422
30
10.4
0
VERTEX
10
7.84732
20
11.0422
30
10.4
0
VERTEX
10
7.83446
20
11.0341
30
10.4
0
VERTEX
10
7.82803
20
11.0325
30
10.4
0
VERTEX
10
7.82161
20
11.0277
30
10.4
0
VERTEX
10
7.79589
20
11.0245
30
10.4
0
VERTEX
10
7.69304
20
11.0261
30
10.4
0
VERTEX
10
7.64161
20
11.0293
30
10.4
0
VERTEX
10
7.59019
20
11.0245
30
10.4
0
VERTEX
10
7.56447
20
11.0165
30
10.4
0
VERTEX
10
7.55162
20
11.0116
30
10.4
0
VERTEX
10
7.53876
20
11.01
30
10.4
0
VERTEX
10
7.52591
20
11.002
30
10.4
0
VERTEX
10
7.51948
20
11.002
30
10.4
0
VERTEX
10
7.51626
20
10.9988
30
10.4
0
VERTEX
10
7.50341
20
10.9972
30
10.4
0
VERTEX
10
7.49698
20
10.9956
30
10.4
0
VERTEX
10
7.49376
20
10.9924
30
10.4
0
VERTEX
10
7.46805
20
10.9843
30
10.4
0
VERTEX
10
7.46162
20
10.9811
30
10.4
0
VERTEX
10
7.45519
20
10.9811
30
10.4
0
VERTEX
10
7.45198
20
10.9779
30
10.4
0
VERTEX
10
7.44877
20
10.9779
30
10.4
0
VERTEX
10
7.44555
20
10.9747
30
10.4
0
VERTEX
10
7.44555
20
10.9715
30
10.4
0
VERTEX
10
7.4327
20
10.965
30
10.4
0
VERTEX
10
7.40698
20
10.957
30
10.4
0
VERTEX
10
7.40055
20
10.9554
30
10.4
0
VERTEX
10
7.39573
20
10.9506
30
10.4
0
VERTEX
10
7.37002
20
10.9425
30
10.4
0
VERTEX
10
7.31859
20
10.9329
30
10.4
0
VERTEX
10
7.26717
20
10.9281
30
10.4
0
VERTEX
10
7.24145
20
10.9265
30
10.4
0
VERTEX
10
7.2286
20
10.9265
30
10.4
0
VERTEX
10
7.21574
20
10.9232
30
10.4
0
VERTEX
10
7.11289
20
10.9216
30
10.4
0
VERTEX
10
7.10646
20
10.9216
30
10.4
0
VERTEX
10
7.10325
20
10.9184
30
10.4
0
VERTEX
10
7.10325
20
10.9152
30
10.4
0
VERTEX
10
7.09682
20
10.912
30
10.4
0
VERTEX
10
7.0711
20
10.9088
30
10.4
0
VERTEX
10
7.04539
20
10.9088
30
10.4
0
VERTEX
10
7.01968
20
10.9056
30
10.4
0
VERTEX
10
6.96825
20
10.9104
30
10.4
0
VERTEX
10
6.91683
20
10.9104
30
10.4
0
VERTEX
10
6.90397
20
10.9088
30
10.4
0
VERTEX
10
6.87986
20
10.8975
30
10.4
0
VERTEX
10
6.87344
20
10.8959
30
10.4
0
VERTEX
10
6.86701
20
10.8911
30
10.4
0
VERTEX
10
6.86058
20
10.8895
30
10.4
0
VERTEX
10
6.85094
20
10.8799
30
10.4
0
VERTEX
10
6.84451
20
10.875
30
10.4
0
VERTEX
10
6.84129
20
10.8734
30
10.4
0
VERTEX
10
6.84129
20
10.8702
30
10.4
0
VERTEX
10
6.82362
20
10.8461
30
10.4
0
VERTEX
10
6.81558
20
10.8365
30
10.4
0
VERTEX
10
6.81397
20
10.8236
30
10.4
0
VERTEX
10
6.81397
20
10.8188
30
10.4
0
SEQEND
0
POLYLINE
62
31
66
1
70
1
3
contour
0
VERTEX
10
6.15707
20
10.4055
30
10.4
0
VERTEX
10
6.17666
20
10.381
30
10.4
0
VERTEX
10
6.18156
20
10.3744
30
10.4
0
VERTEX
10
6.18482
20
10.3614
30
10.4
0
VERTEX
10
6.18482
20
10.3581
30
10.4
0
VERTEX
10
6.19299
20
10.345
30
10.4
0
VERTEX
10
6.19952
20
10.3385
30
10.4
0
VERTEX
10
6.21421
20
10.3157
30
10.4
0
VERTEX
10
6.22564
20
10.3075
30
10.4
0
VERTEX
10
6.23217
20
10.301
30
10.4
0
VERTEX
10
6.2387
20
10.2977
30
10.4
0
VERTEX
10
6.26483
20
10.2944
30
10.4
0
VERTEX
10
6.27136
20
10.2928
30
10.4
0
VERTEX
10
6.27299
20
10.2895
30
10.4
0
VERTEX
10
6.29912
20
10.2895
30
10.4
0
VERTEX
10
6.31218
20
10.2895
30
10.4
0
VERTEX
10
6.31871
20
10.2895
30
10.4
0
VERTEX
10
6.33177
20
10.2961
30
10.4
0
VERTEX
10
6.3383
20
10.2977
30
10.4
0
VERTEX
10
6.34483
20
10.3026
30
10.4
0
VERTEX
10
6.3481
20
10.3026
30
10.4
0
VERTEX
10
6.35789
20
10.314
30
10.4
0
VERTEX
10
6.36443
20
10.3206
30
10.4
0
VERTEX
10
6.36932
20
10.3336
30
10.4
0
VERTEX
10
6.37749
20
10.3467
30
10.4
0
VERTEX
10
6.38239
20
10.3516
30
10.4
0
VERTEX
10
6.38402
20
10.3581
30
10.4
0
VERTEX
10
6.38402
20
10.3614
30
10.4
0
VERTEX
10
6.39708
20
10.3728
30
10.4
0
VERTEX
10
6.40198
20
10.3777
30
10.4
0
VERTEX
10
6.40688
20
10.4038
30
10.4
0
VERTEX
10
6.40688
20
10.43
30
10.4
0
VERTEX
10
6.40688
20
10.443
30
10.4
0
VERTEX
10
6.40198
20
10.4561
30
10.4
0
VERTEX
10
6.39708
20
10.5083
30
10.4
0
VERTEX
10
6.39381
20
10.5344
30
10.4
0
VERTEX
10
6.39381
20
10.5606
30
10.4
0
VERTEX
10
6.39218
20
10.5671
30
10.4
0
VERTEX
10
6.38239
20
10.5753
30
10.4
0
VERTEX
10
6.37912
20
10.5753
30
10.4
0
VERTEX
10
6.35626
20
10.5965
30
10.4
0
VERTEX
10
6.34483
20
10.6063
30
10.4
0
VERTEX
10
6.31871
20
10.6161
30
10.4
0
VERTEX
10
6.30565
20
10.6177
30
10.4
0
VERTEX
10
6.29912
20
10.6177
30
10.4
0
VERTEX
10
6.29258
20
10.621
30
10.4
0
VERTEX
10
6.28605
20
10.621
30
10.4
0
VERTEX
10
6.27299
20
10.6161
30
10.4
0
VERTEX
10
6.26483
20
10.6047
30
10.4
0
VERTEX
10
6.26156
20
10.6014
30
10.4
0
VERTEX
10
6.26156
20
10.5981
30
10.4
0
VERTEX
10
6.25503
20
10.5932
30
10.4
0
VERTEX
10
6.2534
20
10.5867
30
10.4
0
VERTEX
10
6.2485
20
10.5818
30
10.4
0
VERTEX
10
6.24524
20
10.5802
30
10.4
0
VERTEX
10
6.24524
20
10.5769
30
10.4
0
VERTEX
10
6.24197
20
10.5753
30
10.4
0
VERTEX
10
6.24034
20
10.5687
30
10.4
0
VERTEX
10
6.23381
20
10.5655
30
10.4
0
VERTEX
10
6.23054
20
10.5622
30
10.4
0
VERTEX
10
6.22727
20
10.5508
30
10.4
0
VERTEX
10
6.22564
20
10.5442
30
10.4
0
VERTEX
10
6.22238
20
10.541
30
10.4
0
VERTEX
10
6.22238
20
10.5344
30
10.4
0
VERTEX
10
6.20442
20
10.5116
30
10.4
0
VERTEX
10
6.19625
20
10.4985
30
10.4
0
VERTEX
10
6.18319
20
10.4887
30
10.4
0
VERTEX
10
6.18319
20
10.4822
30
10.4
0
VERTEX
10
6.17339
20
10.4691
30
10.4
0
VERTEX
10
6.1685
20
10.4642
30
10.4
0
VERTEX
10
6.1636
20
10.4512
30
10.4
0
VERTEX
10
6.16197
20
10.4381
30
10.4
0
VERTEX
10
6.15707
20
10.4267
30
10.4
0
VERTEX
10
6.15707
20
10.4136
30
10.4
0
VERTEX
10
6.15707
20
10.4071
30
10.4
0
SEQEND
0
POLYLINE
62
31
66
1
70
1
3
contour
0
VERTEX
10
6.58044
20
10.4701
30
10.4
0
VERTEX
10
6.59137
20
10.4351
30
10.4
0
VERTEX
10
6.59575
20
10.4263
30
10.4
0
VERTEX
10
6.6045
20
10.4198
30
10.4
0
VERTEX
10
6.6395
20
10.4198
30
10.4
0
VERTEX
10
6.67451
20
10.4241
30
10.4
0
VERTEX
10
6.68326
20
10.4263
30
10.4
0
VERTEX
10
6.69201
20
10.4329
30
10.4
0
VERTEX
10
6.69638
20
10.4329
30
10.4
0
VERTEX
10
6.69857
20
10.4373
30
10.4
0
VERTEX
10
6.71607
20
10.4416
30
10.4
0
VERTEX
10
6.7467
20
10.4591
30
10.4
0
VERTEX
10
6.75326
20
10.4679
30
10.4
0
VERTEX
10
6.78389
20
10.4919
30
10.4
0
VERTEX
10
6.78607
20
10.5269
30
10.4
0
VERTEX
10
6.7817
20
10.5357
30
10.4
0
VERTEX
10
6.77951
20
10.5532
30
10.4
0
VERTEX
10
6.7817
20
10.5707
30
10.4
0
VERTEX
10
6.77951
20
10.5795
30
10.4
0
VERTEX
10
6.74889
20
10.6013
30
10.4
0
VERTEX
10
6.67888
20
10.5991
30
10.4
0
VERTEX
10
6.66138
20
10.5991
30
10.4
0
VERTEX
10
6.65482
20
10.6013
30
10.4
0
VERTEX
10
6.64607
20
10.5948
30
10.4
0
VERTEX
10
6.64388
20
10.5904
30
10.4
0
VERTEX
10
6.6395
20
10.5904
30
10.4
0
VERTEX
10
6.63075
20
10.5838
30
10.4
0
VERTEX
10
6.61981
20
10.5685
30
10.4
0
VERTEX
10
6.61325
20
10.5598
30
10.4
0
VERTEX
10
6.60888
20
10.5554
30
10.4
0
VERTEX
10
6.60888
20
10.551
30
10.4
0
VERTEX
10
6.59356
20
10.5335
30
10.4
0
VERTEX
10
6.58044
20
10.4985
30
10.4
0
VERTEX
10
6.58044
20
10.481
30
10.4
0
VERTEX
10
6.58044
20
10.4723
30
10.4
0
SEQEND
0
POLYLINE
62
236
66
1
70
1
3
postsynaptic_density
0
VERTEX
10
6.11567
20
10.4358
30
10.4
0
VERTEX
10
6.11695
20
10.4255
30
10.4
0
VERTEX
10
6.1208
20
10.4152
30
10.4
0
VERTEX
10
6.12209
20
10.405
30
10.4
0
VERTEX
10
6.12209
20
10.4024
30
10.4
0
VERTEX
10
6.13107
20
10.3921
30
10.4
0
VERTEX
10
6.13364
20
10.387
30
10.4
0
VERTEX
10
6.14262
20
10.3793
30
10.4
0
VERTEX
10
6.14647
20
10.3742
30
10.4
0
VERTEX
10
6.15161
20
10.3729
30
10.4
0
VERTEX
10
6.15417
20
10.3703
30
10.4
0
VERTEX
10
6.17471
20
10.3626
30
10.4
0
VERTEX
10
6.18498
20
10.3601
30
10.4
0
VERTEX
10
6.19524
20
10.3601
30
10.4
0
VERTEX
10
6.20423
20
10.369
30
10.4
0
VERTEX
10
6.21321
20
10.3755
30
10.4
0
VERTEX
10
6.2222
20
10.3857
30
10.4
0
VERTEX
10
6.22861
20
10.396
30
10.4
0
VERTEX
10
6.2376
20
10.4037
30
10.4
0
VERTEX
10
6.24402
20
10.405
30
10.4
0
VERTEX
10
6.24658
20
10.4101
30
10.4
0
VERTEX
10
6.24787
20
10.4307
30
10.4
0
VERTEX
10
6.24787
20
10.4358
30
10.4
0
VERTEX
10
6.24402
20
10.4461
30
10.4
0
VERTEX
10
6.24402
20
10.4512
30
10.4
0
VERTEX
10
6.24017
20
10.4602
30
10.4
0
VERTEX
10
6.23375
20
10.4692
30
10.4
0
VERTEX
10
6.2299
20
10.473
30
10.4
0
VERTEX
10
6.22476
20
10.4743
30
10.4
0
VERTEX
10
6.2222
20
10.4769
30
10.4
0
VERTEX
10
6.20166
20
10.4807
30
10.4
0
VERTEX
10
6.16059
20
10.482
30
10.4
0
VERTEX
10
6.14006
20
10.4807
30
10.4
0
VERTEX
10
6.13492
20
10.4794
30
10.4
0
VERTEX
10
6.12594
20
10.4717
30
10.4
0
VERTEX
10
6.12209
20
10.4692
30
10.4
0
VERTEX
10
6.1208
20
10.4704
30
10.4
0
VERTEX
10
6.11695
20
10.4602
30
10.4
0
VERTEX
10
6.11567
20
10.4396
30
10.4
0
VERTEX
10
6.11567
20
10.4371
30
10.4
0
SEQEND
0
ENDSEC
0
EOF
