0
SECTION
2
ENTITIES
0
POLYLINE
62
31
66
1
70
1
3
contour
0
VERTEX
10
10.2797
20
9.50145
30
6.76
0
VERTEX
10
10.3019
20
9.46819
30
6.76
0
VERTEX
10
10.3152
20
9.45488
30
6.76
0
VERTEX
10
10.3241
20
9.44823
30
6.76
0
VERTEX
10
10.3285
20
9.43936
30
6.76
0
VERTEX
10
10.3441
20
9.42606
30
6.76
0
VERTEX
10
10.3574
20
9.40832
30
6.76
0
VERTEX
10
10.3729
20
9.39501
30
6.76
0
VERTEX
10
10.3751
20
9.39058
30
6.76
0
VERTEX
10
10.3795
20
9.39058
30
6.76
0
VERTEX
10
10.3973
20
9.37728
30
6.76
0
VERTEX
10
10.4106
20
9.36397
30
6.76
0
VERTEX
10
10.4194
20
9.34845
30
6.76
0
VERTEX
10
10.4505
20
9.31962
30
6.76
0
VERTEX
10
10.486
20
9.32184
30
6.76
0
VERTEX
10
10.4948
20
9.32628
30
6.76
0
VERTEX
10
10.5037
20
9.32628
30
6.76
0
VERTEX
10
10.5148
20
9.34401
30
6.76
0
VERTEX
10
10.5214
20
9.35067
30
6.76
0
VERTEX
10
10.5237
20
9.38615
30
6.76
0
VERTEX
10
10.5237
20
9.40388
30
6.76
0
VERTEX
10
10.5126
20
9.43936
30
6.76
0
VERTEX
10
10.5059
20
9.4571
30
6.76
0
VERTEX
10
10.4815
20
9.48814
30
6.76
0
VERTEX
10
10.4682
20
9.50145
30
6.76
0
VERTEX
10
10.4638
20
9.50588
30
6.76
0
VERTEX
10
10.4638
20
9.51032
30
6.76
0
VERTEX
10
10.446
20
9.51919
30
6.76
0
VERTEX
10
10.4372
20
9.5214
30
6.76
0
VERTEX
10
10.4084
20
9.54801
30
6.76
0
VERTEX
10
10.3374
20
9.54801
30
6.76
0
VERTEX
10
10.3197
20
9.54801
30
6.76
0
VERTEX
10
10.3019
20
9.54136
30
6.76
0
VERTEX
10
10.2842
20
9.52584
30
6.76
0
VERTEX
10
10.2797
20
9.51697
30
6.76
0
VERTEX
10
10.2797
20
9.5081
30
6.76
0
VERTEX
10
10.2797
20
9.50367
30
6.76
0
SEQEND
0
POLYLINE
62
31
66
1
70
1
3
contour
0
VERTEX
10
8.23356
20
9.10797
30
6.76
0
VERTEX
10
8.26886
20
9.07538
30
6.76
0
VERTEX
10
8.30688
20
9.04823
30
6.76
0
VERTEX
10
8.35033
20
9.05094
30
6.76
0
VERTEX
10
8.37206
20
9.05094
30
6.76
0
VERTEX
10
8.37749
20
9.05638
30
6.76
0
VERTEX
10
8.39921
20
9.06181
30
6.76
0
VERTEX
10
8.40464
20
9.06181
30
6.76
0
VERTEX
10
8.41007
20
9.06724
30
6.76
0
VERTEX
10
8.42094
20
9.06995
30
6.76
0
VERTEX
10
8.42637
20
9.06995
30
6.76
0
VERTEX
10
8.43451
20
9.0781
30
6.76
0
VERTEX
10
8.44538
20
9.08082
30
6.76
0
VERTEX
10
8.45352
20
9.08896
30
6.76
0
VERTEX
10
8.45352
20
9.09439
30
6.76
0
VERTEX
10
8.46167
20
9.10526
30
6.76
0
VERTEX
10
8.46438
20
9.11612
30
6.76
0
VERTEX
10
8.50512
20
9.15142
30
6.76
0
VERTEX
10
8.52684
20
9.165
30
6.76
0
VERTEX
10
8.5377
20
9.17314
30
6.76
0
VERTEX
10
8.54857
20
9.17586
30
6.76
0
VERTEX
10
8.57029
20
9.19215
30
6.76
0
VERTEX
10
8.57844
20
9.2003
30
6.76
0
VERTEX
10
8.58115
20
9.21116
30
6.76
0
VERTEX
10
8.58115
20
9.21659
30
6.76
0
VERTEX
10
8.5893
20
9.22474
30
6.76
0
VERTEX
10
8.58658
20
9.26819
30
6.76
0
VERTEX
10
8.58387
20
9.27905
30
6.76
0
VERTEX
10
8.57301
20
9.2872
30
6.76
0
VERTEX
10
8.55128
20
9.29534
30
6.76
0
VERTEX
10
8.54042
20
9.29806
30
6.76
0
VERTEX
10
8.53499
20
9.30349
30
6.76
0
VERTEX
10
8.52956
20
9.30349
30
6.76
0
VERTEX
10
8.52413
20
9.30892
30
6.76
0
VERTEX
10
8.48068
20
9.30892
30
6.76
0
VERTEX
10
8.45895
20
9.30349
30
6.76
0
VERTEX
10
8.4155
20
9.30621
30
6.76
0
VERTEX
10
8.39378
20
9.29806
30
6.76
0
VERTEX
10
8.37206
20
9.29534
30
6.76
0
VERTEX
10
8.36662
20
9.28991
30
6.76
0
VERTEX
10
8.35576
20
9.28991
30
6.76
0
VERTEX
10
8.3449
20
9.27905
30
6.76
0
VERTEX
10
8.33947
20
9.27905
30
6.76
0
VERTEX
10
8.31774
20
9.26004
30
6.76
0
VERTEX
10
8.30688
20
9.26004
30
6.76
0
VERTEX
10
8.26886
20
9.22202
30
6.76
0
VERTEX
10
8.25257
20
9.20302
30
6.76
0
VERTEX
10
8.23899
20
9.15957
30
6.76
0
VERTEX
10
8.23356
20
9.11612
30
6.76
0
VERTEX
10
8.23356
20
9.11069
30
6.76
0
SEQEND
0
POLYLINE
62
99
66
1
70
1
3
postsynaptic_density
0
VERTEX
10
9.00559
20
10.56
30
6.76
0
VERTEX
10
9.01342
20
10.5522
30
6.76
0
VERTEX
10
9.02124
20
10.5339
30
6.76
0
VERTEX
10
9.0395
20
10.5157
30
6.76
0
VERTEX
10
9.04993
20
10.513
30
6.76
0
VERTEX
10
9.05254
20
10.5078
30
6.76
0
VERTEX
10
9.05775
20
10.5078
30
6.76
0
VERTEX
10
9.09948
20
10.4791
30
6.76
0
VERTEX
10
9.11774
20
10.4635
30
6.76
0
VERTEX
10
9.12556
20
10.4557
30
6.76
0
VERTEX
10
9.13599
20
10.4531
30
6.76
0
VERTEX
10
9.14121
20
10.4322
30
6.76
0
VERTEX
10
9.15947
20
10.4165
30
6.76
0
VERTEX
10
9.17251
20
10.3957
30
6.76
0
VERTEX
10
9.17772
20
10.3852
30
6.76
0
VERTEX
10
9.21945
20
10.3461
30
6.76
0
VERTEX
10
9.22988
20
10.3383
30
6.76
0
VERTEX
10
9.25075
20
10.3383
30
6.76
0
VERTEX
10
9.2664
20
10.3566
30
6.76
0
VERTEX
10
9.28726
20
10.3644
30
6.76
0
VERTEX
10
9.29248
20
10.3748
30
6.76
0
VERTEX
10
9.31073
20
10.3931
30
6.76
0
VERTEX
10
9.32116
20
10.3983
30
6.76
0
VERTEX
10
9.31856
20
10.4192
30
6.76
0
VERTEX
10
9.31595
20
10.4296
30
6.76
0
VERTEX
10
9.15164
20
10.573
30
6.76
0
VERTEX
10
9.10991
20
10.6069
30
6.76
0
VERTEX
10
9.08905
20
10.6252
30
6.76
0
VERTEX
10
9.08122
20
10.633
30
6.76
0
VERTEX
10
9.06036
20
10.6252
30
6.76
0
VERTEX
10
9.05514
20
10.6252
30
6.76
0
VERTEX
10
9.01863
20
10.5887
30
6.76
0
VERTEX
10
9.00559
20
10.5704
30
6.76
0
VERTEX
10
9.00559
20
10.5626
30
6.76
0
SEQEND
0
POLYLINE
62
224
66
1
70
1
3
mitochondrion
0
VERTEX
10
8.72495
20
9.6468
30
6.76
0
VERTEX
10
8.73051
20
9.63568
30
6.76
0
VERTEX
10
8.73051
20
9.6329
30
6.76
0
VERTEX
10
8.73468
20
9.62734
30
6.76
0
VERTEX
10
8.73607
20
9.62177
30
6.76
0
VERTEX
10
8.74024
20
9.6176
30
6.76
0
VERTEX
10
8.74441
20
9.60648
30
6.76
0
VERTEX
10
8.74719
20
9.60092
30
6.76
0
VERTEX
10
8.74719
20
9.59814
30
6.76
0
VERTEX
10
8.75554
20
9.58701
30
6.76
0
VERTEX
10
8.75971
20
9.58145
30
6.76
0
VERTEX
10
8.7611
20
9.57589
30
6.76
0
VERTEX
10
8.77778
20
9.55503
30
6.76
0
VERTEX
10
8.78752
20
9.5453
30
6.76
0
VERTEX
10
8.79169
20
9.53974
30
6.76
0
VERTEX
10
8.79169
20
9.53696
30
6.76
0
VERTEX
10
8.79725
20
9.53418
30
6.76
0
VERTEX
10
8.80003
20
9.53418
30
6.76
0
VERTEX
10
8.80559
20
9.53001
30
6.76
0
VERTEX
10
8.81672
20
9.52862
30
6.76
0
VERTEX
10
8.8195
20
9.52862
30
6.76
0
VERTEX
10
8.82367
20
9.52444
30
6.76
0
VERTEX
10
8.84592
20
9.52027
30
6.76
0
VERTEX
10
8.85148
20
9.52027
30
6.76
0
VERTEX
10
8.85704
20
9.5161
30
6.76
0
VERTEX
10
8.90153
20
9.51332
30
6.76
0
VERTEX
10
8.92378
20
9.51471
30
6.76
0
VERTEX
10
8.96827
20
9.52166
30
6.76
0
VERTEX
10
9.01277
20
9.52305
30
6.76
0
VERTEX
10
9.01833
20
9.52305
30
6.76
0
VERTEX
10
9.01972
20
9.52584
30
6.76
0
VERTEX
10
9.03084
20
9.53001
30
6.76
0
VERTEX
10
9.04197
20
9.53001
30
6.76
0
VERTEX
10
9.05309
20
9.53279
30
6.76
0
VERTEX
10
9.05865
20
9.53557
30
6.76
0
VERTEX
10
9.06143
20
9.53557
30
6.76
0
VERTEX
10
9.07951
20
9.55364
30
6.76
0
VERTEX
10
9.09063
20
9.57589
30
6.76
0
VERTEX
10
9.09619
20
9.58701
30
6.76
0
VERTEX
10
9.09758
20
9.59258
30
6.76
0
VERTEX
10
9.10036
20
9.59258
30
6.76
0
VERTEX
10
9.10454
20
9.59814
30
6.76
0
VERTEX
10
9.10454
20
9.60092
30
6.76
0
VERTEX
10
9.10871
20
9.60509
30
6.76
0
VERTEX
10
9.09897
20
9.62595
30
6.76
0
VERTEX
10
9.09619
20
9.63151
30
6.76
0
VERTEX
10
9.09619
20
9.63429
30
6.76
0
VERTEX
10
9.09341
20
9.63707
30
6.76
0
VERTEX
10
9.09341
20
9.64263
30
6.76
0
VERTEX
10
9.08785
20
9.65375
30
6.76
0
VERTEX
10
9.08646
20
9.65932
30
6.76
0
VERTEX
10
9.08229
20
9.66488
30
6.76
0
VERTEX
10
9.08229
20
9.67044
30
6.76
0
VERTEX
10
9.07951
20
9.67322
30
6.76
0
VERTEX
10
9.07951
20
9.676
30
6.76
0
VERTEX
10
9.07673
20
9.67878
30
6.76
0
VERTEX
10
9.07534
20
9.68434
30
6.76
0
VERTEX
10
9.06004
20
9.70242
30
6.76
0
VERTEX
10
9.05448
20
9.70798
30
6.76
0
VERTEX
10
9.04753
20
9.71911
30
6.76
0
VERTEX
10
9.04336
20
9.73023
30
6.76
0
VERTEX
10
9.03779
20
9.73579
30
6.76
0
VERTEX
10
9.01555
20
9.7483
30
6.76
0
VERTEX
10
8.9933
20
9.75665
30
6.76
0
VERTEX
10
8.98218
20
9.75804
30
6.76
0
VERTEX
10
8.97105
20
9.76221
30
6.76
0
VERTEX
10
8.92656
20
9.7636
30
6.76
0
VERTEX
10
8.90431
20
9.7636
30
6.76
0
VERTEX
10
8.88207
20
9.76082
30
6.76
0
VERTEX
10
8.85982
20
9.75387
30
6.76
0
VERTEX
10
8.85426
20
9.75248
30
6.76
0
VERTEX
10
8.83201
20
9.73857
30
6.76
0
VERTEX
10
8.82089
20
9.73162
30
6.76
0
VERTEX
10
8.80976
20
9.72745
30
6.76
0
VERTEX
10
8.7903
20
9.71493
30
6.76
0
VERTEX
10
8.76944
20
9.69964
30
6.76
0
VERTEX
10
8.76388
20
9.69686
30
6.76
0
VERTEX
10
8.75971
20
9.6913
30
6.76
0
VERTEX
10
8.75693
20
9.68852
30
6.76
0
VERTEX
10
8.75137
20
9.68713
30
6.76
0
VERTEX
10
8.7458
20
9.68295
30
6.76
0
VERTEX
10
8.74302
20
9.67739
30
6.76
0
VERTEX
10
8.73746
20
9.67183
30
6.76
0
VERTEX
10
8.73746
20
9.66627
30
6.76
0
VERTEX
10
8.73329
20
9.6621
30
6.76
0
VERTEX
10
8.7319
20
9.65932
30
6.76
0
VERTEX
10
8.72912
20
9.65932
30
6.76
0
VERTEX
10
8.72495
20
9.65375
30
6.76
0
VERTEX
10
8.72495
20
9.64819
30
6.76
0
SEQEND
0
POLYLINE
62
31
66
1
70
1
3
contour
0
VERTEX
10
8.53427
20
9.49538
30
6.76
0
VERTEX
10
8.5436
20
9.46552
30
6.76
0
VERTEX
10
8.54547
20
9.45806
30
6.76
0
VERTEX
10
8.55107
20
9.45246
30
6.76
0
VERTEX
10
8.566
20
9.44686
30
6.76
0
VERTEX
10
8.56973
20
9.44686
30
6.76
0
VERTEX
10
8.56973
20
9.44313
30
6.76
0
VERTEX
10
8.5772
20
9.43939
30
6.76
0
VERTEX
10
8.58466
20
9.43939
30
6.76
0
VERTEX
10
8.59212
20
9.43566
30
6.76
0
VERTEX
10
8.62198
20
9.43006
30
6.76
0
VERTEX
10
8.65184
20
9.43006
30
6.76
0
VERTEX
10
8.66677
20
9.43193
30
6.76
0
VERTEX
10
8.67424
20
9.43566
30
6.76
0
VERTEX
10
8.7041
20
9.43753
30
6.76
0
VERTEX
10
8.71156
20
9.44126
30
6.76
0
VERTEX
10
8.72649
20
9.44313
30
6.76
0
VERTEX
10
8.73396
20
9.44313
30
6.76
0
VERTEX
10
8.73956
20
9.44872
30
6.76
0
VERTEX
10
8.859
20
9.45432
30
6.76
0
VERTEX
10
8.91872
20
9.45992
30
6.76
0
VERTEX
10
8.97843
20
9.46179
30
6.76
0
VERTEX
10
9.00829
20
9.46179
30
6.76
0
VERTEX
10
9.06801
20
9.46739
30
6.76
0
VERTEX
10
9.09787
20
9.46925
30
6.76
0
VERTEX
10
9.10534
20
9.47299
30
6.76
0
VERTEX
10
9.1352
20
9.47299
30
6.76
0
VERTEX
10
9.14266
20
9.47299
30
6.76
0
VERTEX
10
9.15013
20
9.47672
30
6.76
0
VERTEX
10
9.17999
20
9.48232
30
6.76
0
VERTEX
10
9.18745
20
9.48418
30
6.76
0
VERTEX
10
9.19492
20
9.48978
30
6.76
0
VERTEX
10
9.20985
20
9.49165
30
6.76
0
VERTEX
10
9.22478
20
9.49725
30
6.76
0
VERTEX
10
9.23038
20
9.50285
30
6.76
0
VERTEX
10
9.23224
20
9.50658
30
6.76
0
VERTEX
10
9.23597
20
9.50658
30
6.76
0
VERTEX
10
9.25837
20
9.53084
30
6.76
0
VERTEX
10
9.26024
20
9.5383
30
6.76
0
VERTEX
10
9.26583
20
9.5439
30
6.76
0
VERTEX
10
9.26957
20
9.57376
30
6.76
0
VERTEX
10
9.26583
20
9.60362
30
6.76
0
VERTEX
10
9.26397
20
9.61109
30
6.76
0
VERTEX
10
9.26397
20
9.61482
30
6.76
0
VERTEX
10
9.26024
20
9.61855
30
6.76
0
VERTEX
10
9.25464
20
9.63348
30
6.76
0
VERTEX
10
9.25277
20
9.64841
30
6.76
0
VERTEX
10
9.24717
20
9.65588
30
6.76
0
VERTEX
10
9.24344
20
9.67081
30
6.76
0
VERTEX
10
9.23411
20
9.68387
30
6.76
0
VERTEX
10
9.22664
20
9.68574
30
6.76
0
VERTEX
10
9.22291
20
9.68574
30
6.76
0
VERTEX
10
9.20985
20
9.6988
30
6.76
0
VERTEX
10
9.19865
20
9.70813
30
6.76
0
VERTEX
10
9.20052
20
9.73799
30
6.76
0
VERTEX
10
9.20052
20
9.74172
30
6.76
0
VERTEX
10
9.20425
20
9.74546
30
6.76
0
VERTEX
10
9.21358
20
9.77531
30
6.76
0
VERTEX
10
9.21545
20
9.78278
30
6.76
0
VERTEX
10
9.22104
20
9.79024
30
6.76
0
VERTEX
10
9.22291
20
9.80517
30
6.76
0
VERTEX
10
9.22478
20
9.81264
30
6.76
0
VERTEX
10
9.23224
20
9.81637
30
6.76
0
VERTEX
10
9.23224
20
9.8313
30
6.76
0
VERTEX
10
9.24531
20
9.84623
30
6.76
0
VERTEX
10
9.24717
20
9.8537
30
6.76
0
VERTEX
10
9.24717
20
9.85743
30
6.76
0
VERTEX
10
9.26957
20
9.88169
30
6.76
0
VERTEX
10
9.27143
20
9.88916
30
6.76
0
VERTEX
10
9.27517
20
9.89289
30
6.76
0
VERTEX
10
9.27517
20
9.89662
30
6.76
0
VERTEX
10
9.28636
20
9.91155
30
6.76
0
VERTEX
10
9.29383
20
9.92461
30
6.76
0
VERTEX
10
9.29383
20
9.92835
30
6.76
0
VERTEX
10
9.29943
20
9.93394
30
6.76
0
VERTEX
10
9.30502
20
9.94887
30
6.76
0
VERTEX
10
9.31062
20
9.95634
30
6.76
0
VERTEX
10
9.31622
20
9.9862
30
6.76
0
VERTEX
10
9.31436
20
10.0011
30
6.76
0
VERTEX
10
9.31062
20
10.0086
30
6.76
0
VERTEX
10
9.31062
20
10.0123
30
6.76
0
VERTEX
10
9.30689
20
10.0161
30
6.76
0
VERTEX
10
9.29383
20
10.0459
30
6.76
0
VERTEX
10
9.2789
20
10.0608
30
6.76
0
VERTEX
10
9.25464
20
10.087
30
6.76
0
VERTEX
10
9.24904
20
10.1019
30
6.76
0
VERTEX
10
9.2509
20
10.1318
30
6.76
0
VERTEX
10
9.2509
20
10.1355
30
6.76
0
VERTEX
10
9.25464
20
10.1392
30
6.76
0
VERTEX
10
9.26583
20
10.1989
30
6.76
0
VERTEX
10
9.2677
20
10.2139
30
6.76
0
VERTEX
10
9.26957
20
10.2213
30
6.76
0
VERTEX
10
9.27517
20
10.2288
30
6.76
0
VERTEX
10
9.2845
20
10.2885
30
6.76
0
VERTEX
10
9.2789
20
10.3482
30
6.76
0
VERTEX
10
9.2789
20
10.3632
30
6.76
0
VERTEX
10
9.27703
20
10.3706
30
6.76
0
VERTEX
10
9.2733
20
10.3725
30
6.76
0
VERTEX
10
9.27143
20
10.3874
30
6.76
0
VERTEX
10
9.2621
20
10.4005
30
6.76
0
VERTEX
10
9.2565
20
10.4136
30
6.76
0
VERTEX
10
9.23411
20
10.4397
30
6.76
0
VERTEX
10
9.22291
20
10.4509
30
6.76
0
VERTEX
10
9.20798
20
10.4621
30
6.76
0
VERTEX
10
9.20052
20
10.4696
30
6.76
0
VERTEX
10
9.18559
20
10.4789
30
6.76
0
VERTEX
10
9.17252
20
10.4919
30
6.76
0
VERTEX
10
9.16506
20
10.4957
30
6.76
0
VERTEX
10
9.15199
20
10.5087
30
6.76
0
VERTEX
10
9.13706
20
10.5181
30
6.76
0
VERTEX
10
9.12213
20
10.5237
30
6.76
0
VERTEX
10
9.10907
20
10.533
30
6.76
0
VERTEX
10
9.1072
20
10.5367
30
6.76
0
VERTEX
10
9.09974
20
10.5386
30
6.76
0
VERTEX
10
9.07175
20
10.5591
30
6.76
0
VERTEX
10
9.05122
20
10.589
30
6.76
0
VERTEX
10
9.04375
20
10.5965
30
6.76
0
VERTEX
10
9.04002
20
10.6039
30
6.76
0
VERTEX
10
9.01016
20
10.6282
30
6.76
0
VERTEX
10
9.00643
20
10.63
30
6.76
0
VERTEX
10
8.97657
20
10.6189
30
6.76
0
VERTEX
10
8.96164
20
10.6151
30
6.76
0
VERTEX
10
8.95604
20
10.6095
30
6.76
0
VERTEX
10
8.95231
20
10.6095
30
6.76
0
VERTEX
10
8.92245
20
10.589
30
6.76
0
VERTEX
10
8.91872
20
10.589
30
6.76
0
VERTEX
10
8.91498
20
10.5853
30
6.76
0
VERTEX
10
8.91125
20
10.5853
30
6.76
0
VERTEX
10
8.90005
20
10.5703
30
6.76
0
VERTEX
10
8.88886
20
10.5405
30
6.76
0
VERTEX
10
8.88139
20
10.5274
30
6.76
0
VERTEX
10
8.87766
20
10.5199
30
6.76
0
VERTEX
10
8.87766
20
10.5125
30
6.76
0
VERTEX
10
8.87766
20
10.5087
30
6.76
0
VERTEX
10
8.87393
20
10.505
30
6.76
0
VERTEX
10
8.86833
20
10.4752
30
6.76
0
VERTEX
10
8.86833
20
10.4677
30
6.76
0
VERTEX
10
8.86273
20
10.4528
30
6.76
0
VERTEX
10
8.85713
20
10.4229
30
6.76
0
VERTEX
10
8.8478
20
10.393
30
6.76
0
VERTEX
10
8.8422
20
10.3781
30
6.76
0
VERTEX
10
8.84033
20
10.3706
30
6.76
0
VERTEX
10
8.831
20
10.3576
30
6.76
0
VERTEX
10
8.8254
20
10.3426
30
6.76
0
VERTEX
10
8.82354
20
10.3277
30
6.76
0
VERTEX
10
8.81234
20
10.2979
30
6.76
0
VERTEX
10
8.80674
20
10.2829
30
6.76
0
VERTEX
10
8.80114
20
10.2232
30
6.76
0
VERTEX
10
8.80301
20
10.1635
30
6.76
0
VERTEX
10
8.80301
20
10.156
30
6.76
0
VERTEX
10
8.80861
20
10.1486
30
6.76
0
VERTEX
10
8.81047
20
10.1411
30
6.76
0
VERTEX
10
8.81607
20
10.1336
30
6.76
0
VERTEX
10
8.81607
20
10.1262
30
6.76
0
VERTEX
10
8.8254
20
10.1131
30
6.76
0
VERTEX
10
8.8254
20
10.1094
30
6.76
0
VERTEX
10
8.83287
20
10.1019
30
6.76
0
VERTEX
10
8.83473
20
10.0944
30
6.76
0
VERTEX
10
8.84407
20
10.0814
30
6.76
0
VERTEX
10
8.84407
20
10.0776
30
6.76
0
VERTEX
10
8.85153
20
10.072
30
6.76
0
VERTEX
10
8.8534
20
10.0422
30
6.76
0
VERTEX
10
8.8534
20
10.0347
30
6.76
0
VERTEX
10
8.84593
20
10.0198
30
6.76
0
VERTEX
10
8.82167
20
9.99366
30
6.76
0
VERTEX
10
8.81234
20
9.97873
30
6.76
0
VERTEX
10
8.79928
20
9.9694
30
6.76
0
VERTEX
10
8.78621
20
9.95634
30
6.76
0
VERTEX
10
8.77688
20
9.94887
30
6.76
0
VERTEX
10
8.77315
20
9.94887
30
6.76
0
VERTEX
10
8.75822
20
9.93954
30
6.76
0
VERTEX
10
8.74329
20
9.93394
30
6.76
0
VERTEX
10
8.72836
20
9.93208
30
6.76
0
VERTEX
10
8.72089
20
9.93021
30
6.76
0
VERTEX
10
8.6985
20
9.90595
30
6.76
0
VERTEX
10
8.6929
20
9.89849
30
6.76
0
VERTEX
10
8.68917
20
9.88542
30
6.76
0
VERTEX
10
8.68357
20
9.87796
30
6.76
0
VERTEX
10
8.65558
20
9.86116
30
6.76
0
VERTEX
10
8.64811
20
9.8593
30
6.76
0
VERTEX
10
8.64625
20
9.85556
30
6.76
0
VERTEX
10
8.64251
20
9.85556
30
6.76
0
VERTEX
10
8.63878
20
9.85183
30
6.76
0
VERTEX
10
8.63132
20
9.84996
30
6.76
0
VERTEX
10
8.62572
20
9.84437
30
6.76
0
VERTEX
10
8.62572
20
9.84063
30
6.76
0
VERTEX
10
8.60892
20
9.81451
30
6.76
0
VERTEX
10
8.60705
20
9.80704
30
6.76
0
VERTEX
10
8.59586
20
9.79398
30
6.76
0
VERTEX
10
8.58839
20
9.79024
30
6.76
0
VERTEX
10
8.58653
20
9.76039
30
6.76
0
VERTEX
10
8.58839
20
9.73053
30
6.76
0
VERTEX
10
8.60146
20
9.7044
30
6.76
0
VERTEX
10
8.60519
20
9.69693
30
6.76
0
VERTEX
10
8.60892
20
9.69507
30
6.76
0
VERTEX
10
8.61079
20
9.66521
30
6.76
0
VERTEX
10
8.60705
20
9.63535
30
6.76
0
VERTEX
10
8.60705
20
9.62788
30
6.76
0
VERTEX
10
8.60705
20
9.62415
30
6.76
0
VERTEX
10
8.60146
20
9.61669
30
6.76
0
VERTEX
10
8.59959
20
9.60922
30
6.76
0
VERTEX
10
8.58839
20
9.59616
30
6.76
0
VERTEX
10
8.58653
20
9.58869
30
6.76
0
VERTEX
10
8.56786
20
9.56443
30
6.76
0
VERTEX
10
8.55293
20
9.5495
30
6.76
0
VERTEX
10
8.55293
20
9.54577
30
6.76
0
VERTEX
10
8.54174
20
9.53271
30
6.76
0
VERTEX
10
8.53614
20
9.52524
30
6.76
0
VERTEX
10
8.53427
20
9.49725
30
6.76
0
SEQEND
0
POLYLINE
62
236
66
1
70
1
3
postsynaptic_density
0
VERTEX
10
10.3874
20
9.52897
30
6.76
0
VERTEX
10
10.4154
20
9.46925
30
6.76
0
VERTEX
10
10.4285
20
9.43939
30
6.76
0
VERTEX
10
10.4285
20
9.43193
30
6.76
0
VERTEX
10
10.4565
20
9.4058
30
6.76
0
VERTEX
10
10.464
20
9.4002
30
6.76
0
VERTEX
10
10.4677
20
9.4002
30
6.76
0
VERTEX
10
10.4826
20
9.39087
30
6.76
0
VERTEX
10
10.4975
20
9.38714
30
6.76
0
VERTEX
10
10.5125
20
9.38901
30
6.76
0
VERTEX
10
10.5274
20
9.39834
30
6.76
0
VERTEX
10
10.533
20
9.41327
30
6.76
0
VERTEX
10
10.533
20
9.44313
30
6.76
0
VERTEX
10
10.5311
20
9.45059
30
6.76
0
VERTEX
10
10.5255
20
9.45619
30
6.76
0
VERTEX
10
10.5199
20
9.48605
30
6.76
0
VERTEX
10
10.5162
20
9.50098
30
6.76
0
VERTEX
10
10.5106
20
9.50658
30
6.76
0
VERTEX
10
10.5106
20
9.51031
30
6.76
0
VERTEX
10
10.4957
20
9.52151
30
6.76
0
VERTEX
10
10.4919
20
9.52897
30
6.76
0
VERTEX
10
10.477
20
9.54204
30
6.76
0
VERTEX
10
10.4696
20
9.5495
30
6.76
0
VERTEX
10
10.4546
20
9.5551
30
6.76
0
VERTEX
10
10.4248
20
9.55697
30
6.76
0
VERTEX
10
10.4173
20
9.5551
30
6.76
0
VERTEX
10
10.4042
20
9.54204
30
6.76
0
VERTEX
10
10.3968
20
9.54017
30
6.76
0
VERTEX
10
10.393
20
9.54017
30
6.76
0
VERTEX
10
10.3874
20
9.53271
30
6.76
0
VERTEX
10
10.3874
20
9.53084
30
6.76
0
SEQEND
0
POLYLINE
62
236
66
1
70
1
3
postsynaptic_density
0
VERTEX
10
8.20582
20
9.08294
30
6.76
0
VERTEX
10
8.21515
20
9.06988
30
6.76
0
VERTEX
10
8.22821
20
9.06055
30
6.76
0
VERTEX
10
8.23194
20
9.05682
30
6.76
0
VERTEX
10
8.23941
20
9.05682
30
6.76
0
VERTEX
10
8.24687
20
9.05308
30
6.76
0
VERTEX
10
8.2618
20
9.05308
30
6.76
0
VERTEX
10
8.27673
20
9.05868
30
6.76
0
VERTEX
10
8.2842
20
9.06241
30
6.76
0
VERTEX
10
8.2898
20
9.07734
30
6.76
0
VERTEX
10
8.29166
20
9.1072
30
6.76
0
VERTEX
10
8.29166
20
9.12213
30
6.76
0
VERTEX
10
8.28793
20
9.13706
30
6.76
0
VERTEX
10
8.2786
20
9.15199
30
6.76
0
VERTEX
10
8.27673
20
9.15573
30
6.76
0
VERTEX
10
8.2618
20
9.15759
30
6.76
0
VERTEX
10
8.24687
20
9.16319
30
6.76
0
VERTEX
10
8.21701
20
9.16506
30
6.76
0
VERTEX
10
8.21328
20
9.16319
30
6.76
0
VERTEX
10
8.20768
20
9.13333
30
6.76
0
VERTEX
10
8.20582
20
9.10347
30
6.76
0
VERTEX
10
8.20582
20
9.08854
30
6.76
0
VERTEX
10
8.20582
20
9.08481
30
6.76
0
SEQEND
0
POLYLINE
62
227
66
1
70
1
3
endoplasmic_reticulum
0
VERTEX
10
8.76374
20
9.85573
30
6.76
0
VERTEX
10
8.76463
20
9.85215
30
6.76
0
VERTEX
10
8.76463
20
9.85035
30
6.76
0
VERTEX
10
8.77181
20
9.84497
30
6.76
0
VERTEX
10
8.77898
20
9.84318
30
6.76
0
VERTEX
10
8.77988
20
9.84139
30
6.76
0
VERTEX
10
8.78167
20
9.84139
30
6.76
0
VERTEX
10
8.78346
20
9.83959
30
6.76
0
VERTEX
10
8.78705
20
9.83959
30
6.76
0
VERTEX
10
8.79422
20
9.8369
30
6.76
0
VERTEX
10
8.80139
20
9.83601
30
6.76
0
VERTEX
10
8.81574
20
9.8378
30
6.76
0
VERTEX
10
8.82291
20
9.8387
30
6.76
0
VERTEX
10
8.8247
20
9.8387
30
6.76
0
VERTEX
10
8.8256
20
9.84049
30
6.76
0
VERTEX
10
8.83277
20
9.84139
30
6.76
0
VERTEX
10
8.83994
20
9.84408
30
6.76
0
VERTEX
10
8.84712
20
9.84408
30
6.76
0
VERTEX
10
8.85339
20
9.84766
30
6.76
0
VERTEX
10
8.86057
20
9.85394
30
6.76
0
VERTEX
10
8.86236
20
9.85573
30
6.76
0
VERTEX
10
8.86236
20
9.85932
30
6.76
0
VERTEX
10
8.86415
20
9.8629
30
6.76
0
VERTEX
10
8.86236
20
9.87725
30
6.76
0
VERTEX
10
8.85788
20
9.88442
30
6.76
0
VERTEX
10
8.85788
20
9.88621
30
6.76
0
VERTEX
10
8.85519
20
9.8898
30
6.76
0
VERTEX
10
8.84801
20
9.89428
30
6.76
0
VERTEX
10
8.84084
20
9.89697
30
6.76
0
VERTEX
10
8.83367
20
9.89697
30
6.76
0
VERTEX
10
8.83008
20
9.89697
30
6.76
0
VERTEX
10
8.81574
20
9.8898
30
6.76
0
VERTEX
10
8.80139
20
9.8898
30
6.76
0
VERTEX
10
8.79422
20
9.8889
30
6.76
0
VERTEX
10
8.79243
20
9.88711
30
6.76
0
VERTEX
10
8.78526
20
9.88621
30
6.76
0
VERTEX
10
8.78167
20
9.88532
30
6.76
0
VERTEX
10
8.78077
20
9.88352
30
6.76
0
VERTEX
10
8.7736
20
9.88083
30
6.76
0
VERTEX
10
8.76912
20
9.87456
30
6.76
0
VERTEX
10
8.76732
20
9.87277
30
6.76
0
VERTEX
10
8.76463
20
9.86559
30
6.76
0
VERTEX
10
8.76374
20
9.85842
30
6.76
0
VERTEX
10
8.76374
20
9.85663
30
6.76
0
SEQEND
0
POLYLINE
62
227
66
1
70
1
3
endoplasmic_reticulum
0
VERTEX
10
8.99505
20
9.78849
30
6.76
0
VERTEX
10
8.99953
20
9.78132
30
6.76
0
VERTEX
10
9.00132
20
9.77773
30
6.76
0
VERTEX
10
9.0085
20
9.77056
30
6.76
0
VERTEX
10
9.03718
20
9.75532
30
6.76
0
VERTEX
10
9.05063
20
9.74366
30
6.76
0
VERTEX
10
9.0596
20
9.73021
30
6.76
0
VERTEX
10
9.07125
20
9.71677
30
6.76
0
VERTEX
10
9.07663
20
9.71139
30
6.76
0
VERTEX
10
9.09098
20
9.70153
30
6.76
0
VERTEX
10
9.09187
20
9.69973
30
6.76
0
VERTEX
10
9.09905
20
9.69704
30
6.76
0
VERTEX
10
9.10263
20
9.69435
30
6.76
0
VERTEX
10
9.11698
20
9.69435
30
6.76
0
VERTEX
10
9.12056
20
9.69525
30
6.76
0
VERTEX
10
9.12325
20
9.69794
30
6.76
0
VERTEX
10
9.12325
20
9.69973
30
6.76
0
VERTEX
10
9.12684
20
9.70153
30
6.76
0
VERTEX
10
9.12863
20
9.70511
30
6.76
0
VERTEX
10
9.12863
20
9.7069
30
6.76
0
VERTEX
10
9.12325
20
9.71318
30
6.76
0
VERTEX
10
9.11967
20
9.71587
30
6.76
0
VERTEX
10
9.11698
20
9.72304
30
6.76
0
VERTEX
10
9.1107
20
9.72932
30
6.76
0
VERTEX
10
9.10981
20
9.7329
30
6.76
0
VERTEX
10
9.10443
20
9.73918
30
6.76
0
VERTEX
10
9.10084
20
9.74187
30
6.76
0
VERTEX
10
9.09636
20
9.74815
30
6.76
0
VERTEX
10
9.09636
20
9.74994
30
6.76
0
VERTEX
10
9.08918
20
9.75621
30
6.76
0
VERTEX
10
9.08201
20
9.7607
30
6.76
0
VERTEX
10
9.08022
20
9.76428
30
6.76
0
VERTEX
10
9.06677
20
9.77863
30
6.76
0
VERTEX
10
9.05243
20
9.79028
30
6.76
0
VERTEX
10
9.04525
20
9.79746
30
6.76
0
VERTEX
10
9.03898
20
9.80194
30
6.76
0
VERTEX
10
9.03718
20
9.80194
30
6.76
0
VERTEX
10
9.0336
20
9.80463
30
6.76
0
VERTEX
10
9.01925
20
9.8109
30
6.76
0
VERTEX
10
9.01208
20
9.81359
30
6.76
0
VERTEX
10
9.01118
20
9.81539
30
6.76
0
VERTEX
10
8.99774
20
9.80373
30
6.76
0
VERTEX
10
8.99505
20
9.80015
30
6.76
0
VERTEX
10
8.99505
20
9.79297
30
6.76
0
VERTEX
10
8.99505
20
9.78939
30
6.76
0
SEQEND
0
POLYLINE
62
227
66
1
70
1
3
endoplasmic_reticulum
0
VERTEX
10
8.96905
20
9.86111
30
6.76
0
VERTEX
10
8.96994
20
9.85752
30
6.76
0
VERTEX
10
8.97712
20
9.85035
30
6.76
0
VERTEX
10
8.9807
20
9.84946
30
6.76
0
VERTEX
10
8.98787
20
9.85125
30
6.76
0
VERTEX
10
9.00222
20
9.86111
30
6.76
0
VERTEX
10
9.00401
20
9.86111
30
6.76
0
VERTEX
10
9.0067
20
9.86828
30
6.76
0
VERTEX
10
9.01029
20
9.87008
30
6.76
0
VERTEX
10
9.01118
20
9.87725
30
6.76
0
VERTEX
10
9.00939
20
9.88442
30
6.76
0
VERTEX
10
9.00312
20
9.8898
30
6.76
0
VERTEX
10
8.98877
20
9.88532
30
6.76
0
VERTEX
10
8.9816
20
9.88352
30
6.76
0
VERTEX
10
8.97532
20
9.87904
30
6.76
0
VERTEX
10
8.97084
20
9.87187
30
6.76
0
VERTEX
10
8.96905
20
9.86828
30
6.76
0
VERTEX
10
8.96905
20
9.86201
30
6.76
0
SEQEND
0
POLYLINE
62
31
66
1
70
1
3
contour
0
VERTEX
10
7.94324
20
9.22818
30
6.76
0
VERTEX
10
7.94519
20
9.2126
30
6.76
0
VERTEX
10
7.94908
20
9.20871
30
6.76
0
VERTEX
10
7.95103
20
9.20092
30
6.76
0
VERTEX
10
7.95297
20
9.19703
30
6.76
0
VERTEX
10
7.95687
20
9.19703
30
6.76
0
VERTEX
10
7.96466
20
9.19119
30
6.76
0
VERTEX
10
7.98023
20
9.19119
30
6.76
0
VERTEX
10
7.98412
20
9.19119
30
6.76
0
VERTEX
10
7.98802
20
9.19508
30
6.76
0
VERTEX
10
7.99191
20
9.19508
30
6.76
0
VERTEX
10
7.99775
20
9.20287
30
6.76
0
VERTEX
10
8.00359
20
9.20676
30
6.76
0
VERTEX
10
8.00554
20
9.21455
30
6.76
0
VERTEX
10
8.01333
20
9.22234
30
6.76
0
VERTEX
10
8.01333
20
9.23012
30
6.76
0
VERTEX
10
8.03669
20
9.25154
30
6.76
0
VERTEX
10
8.05032
20
9.26711
30
6.76
0
VERTEX
10
8.062
20
9.27879
30
6.76
0
VERTEX
10
8.062
20
9.28269
30
6.76
0
VERTEX
10
8.06589
20
9.28658
30
6.76
0
VERTEX
10
8.06784
20
9.29437
30
6.76
0
VERTEX
10
8.07368
20
9.30021
30
6.76
0
VERTEX
10
8.07368
20
9.31579
30
6.76
0
VERTEX
10
8.07173
20
9.31968
30
6.76
0
VERTEX
10
8.06395
20
9.32163
30
6.76
0
VERTEX
10
8.062
20
9.32941
30
6.76
0
VERTEX
10
8.062
20
9.33331
30
6.76
0
VERTEX
10
8.04642
20
9.33525
30
6.76
0
VERTEX
10
8.03085
20
9.34109
30
6.76
0
VERTEX
10
8.02306
20
9.34499
30
6.76
0
VERTEX
10
8.00749
20
9.33915
30
6.76
0
VERTEX
10
7.9997
20
9.33525
30
6.76
0
VERTEX
10
7.99191
20
9.33525
30
6.76
0
VERTEX
10
7.98412
20
9.33136
30
6.76
0
VERTEX
10
7.98023
20
9.32941
30
6.76
0
VERTEX
10
7.97828
20
9.32163
30
6.76
0
VERTEX
10
7.97439
20
9.31773
30
6.76
0
VERTEX
10
7.97244
20
9.30994
30
6.76
0
VERTEX
10
7.97244
20
9.30605
30
6.76
0
VERTEX
10
7.96855
20
9.3041
30
6.76
0
VERTEX
10
7.9666
20
9.29632
30
6.76
0
VERTEX
10
7.95687
20
9.28074
30
6.76
0
VERTEX
10
7.94324
20
9.24959
30
6.76
0
VERTEX
10
7.94324
20
9.23402
30
6.76
0
VERTEX
10
7.94324
20
9.23012
30
6.76
0
SEQEND
0
ENDSEC
0
EOF
