0
SECTION
2
ENTITIES
0
POLYLINE
62
31
66
1
70
1
3
contour
0
VERTEX
10
7.17985
20
8.81362
30
7.8
0
VERTEX
10
7.19172
20
8.78197
30
7.8
0
VERTEX
10
7.20359
20
8.7701
30
7.8
0
VERTEX
10
7.20359
20
8.76219
30
7.8
0
VERTEX
10
7.21941
20
8.75032
30
7.8
0
VERTEX
10
7.25106
20
8.74637
30
7.8
0
VERTEX
10
7.28271
20
8.75032
30
7.8
0
VERTEX
10
7.29853
20
8.74637
30
7.8
0
VERTEX
10
7.31435
20
8.75032
30
7.8
0
VERTEX
10
7.34204
20
8.77406
30
7.8
0
VERTEX
10
7.35391
20
8.80175
30
7.8
0
VERTEX
10
7.35787
20
8.8334
30
7.8
0
VERTEX
10
7.35787
20
8.84922
30
7.8
0
VERTEX
10
7.36578
20
8.85318
30
7.8
0
VERTEX
10
7.36578
20
8.88482
30
7.8
0
VERTEX
10
7.35391
20
8.91647
30
7.8
0
VERTEX
10
7.35391
20
8.92438
30
7.8
0
VERTEX
10
7.33809
20
8.93625
30
7.8
0
VERTEX
10
7.33413
20
8.95207
30
7.8
0
VERTEX
10
7.32227
20
8.9679
30
7.8
0
VERTEX
10
7.30644
20
8.97581
30
7.8
0
VERTEX
10
7.30249
20
8.99163
30
7.8
0
VERTEX
10
7.28666
20
9.0035
30
7.8
0
VERTEX
10
7.25502
20
9.01141
30
7.8
0
VERTEX
10
7.23919
20
9.01141
30
7.8
0
VERTEX
10
7.23524
20
9.0035
30
7.8
0
VERTEX
10
7.20359
20
9.0035
30
7.8
0
VERTEX
10
7.19963
20
8.99559
30
7.8
0
VERTEX
10
7.20755
20
8.97976
30
7.8
0
VERTEX
10
7.19172
20
8.97976
30
7.8
0
VERTEX
10
7.18381
20
8.97976
30
7.8
0
VERTEX
10
7.17985
20
8.94812
30
7.8
0
VERTEX
10
7.19568
20
8.91647
30
7.8
0
VERTEX
10
7.20755
20
8.9046
30
7.8
0
VERTEX
10
7.17985
20
8.87691
30
7.8
0
VERTEX
10
7.17985
20
8.81757
30
7.8
0
SEQEND
0
POLYLINE
62
31
66
1
70
1
3
contour
0
VERTEX
10
7.72764
20
10.2589
30
7.8
0
VERTEX
10
7.73695
20
10.1993
30
7.8
0
VERTEX
10
7.73881
20
10.1844
30
7.8
0
VERTEX
10
7.74067
20
10.177
30
7.8
0
VERTEX
10
7.74067
20
10.1732
30
7.8
0
VERTEX
10
7.74439
20
10.1695
30
7.8
0
VERTEX
10
7.74439
20
10.1658
30
7.8
0
VERTEX
10
7.74812
20
10.1621
30
7.8
0
VERTEX
10
7.74998
20
10.1472
30
7.8
0
VERTEX
10
7.75556
20
10.1323
30
7.8
0
VERTEX
10
7.75928
20
10.1025
30
7.8
0
VERTEX
10
7.76673
20
10.0727
30
7.8
0
VERTEX
10
7.76673
20
10.0653
30
7.8
0
VERTEX
10
7.77045
20
10.0578
30
7.8
0
VERTEX
10
7.76859
20
9.99829
30
7.8
0
VERTEX
10
7.77045
20
9.93873
30
7.8
0
VERTEX
10
7.77603
20
9.93129
30
7.8
0
VERTEX
10
7.78534
20
9.90151
30
7.8
0
VERTEX
10
7.7872
20
9.89406
30
7.8
0
VERTEX
10
7.79651
20
9.88103
30
7.8
0
VERTEX
10
7.82256
20
9.85498
30
7.8
0
VERTEX
10
7.83745
20
9.84195
30
7.8
0
VERTEX
10
7.85048
20
9.83264
30
7.8
0
VERTEX
10
7.86351
20
9.81775
30
7.8
0
VERTEX
10
7.86909
20
9.81031
30
7.8
0
VERTEX
10
7.87468
20
9.80659
30
7.8
0
VERTEX
10
7.8877
20
9.79356
30
7.8
0
VERTEX
10
7.89701
20
9.77867
30
7.8
0
VERTEX
10
7.91004
20
9.76378
30
7.8
0
VERTEX
10
7.91562
20
9.75633
30
7.8
0
VERTEX
10
7.91934
20
9.75261
30
7.8
0
VERTEX
10
7.91934
20
9.74889
30
7.8
0
VERTEX
10
7.93237
20
9.734
30
7.8
0
VERTEX
10
7.96029
20
9.71353
30
7.8
0
VERTEX
10
7.96773
20
9.7098
30
7.8
0
VERTEX
10
7.98262
20
9.70794
30
7.8
0
VERTEX
10
7.99751
20
9.7005
30
7.8
0
VERTEX
10
8.0124
20
9.69864
30
7.8
0
VERTEX
10
8.01985
20
9.69678
30
7.8
0
VERTEX
10
8.04963
20
9.7005
30
7.8
0
VERTEX
10
8.06452
20
9.7005
30
7.8
0
VERTEX
10
8.07196
20
9.70422
30
7.8
0
VERTEX
10
8.08685
20
9.70422
30
7.8
0
VERTEX
10
8.0943
20
9.70608
30
7.8
0
VERTEX
10
8.10174
20
9.71167
30
7.8
0
VERTEX
10
8.10919
20
9.71353
30
7.8
0
VERTEX
10
8.12221
20
9.72469
30
7.8
0
VERTEX
10
8.1278
20
9.73214
30
7.8
0
VERTEX
10
8.12966
20
9.73958
30
7.8
0
VERTEX
10
8.13524
20
9.74703
30
7.8
0
VERTEX
10
8.13896
20
9.75075
30
7.8
0
VERTEX
10
8.15013
20
9.78053
30
7.8
0
VERTEX
10
8.15758
20
9.81031
30
7.8
0
VERTEX
10
8.1613
20
9.8252
30
7.8
0
VERTEX
10
8.1613
20
9.82892
30
7.8
0
VERTEX
10
8.1706
20
9.84381
30
7.8
0
VERTEX
10
8.17805
20
9.87359
30
7.8
0
VERTEX
10
8.17805
20
9.87731
30
7.8
0
VERTEX
10
8.18177
20
9.87917
30
7.8
0
VERTEX
10
8.18363
20
9.88662
30
7.8
0
VERTEX
10
8.19108
20
9.89406
30
7.8
0
VERTEX
10
8.19294
20
9.90895
30
7.8
0
VERTEX
10
8.19294
20
9.9164
30
7.8
0
VERTEX
10
8.19294
20
9.92012
30
7.8
0
VERTEX
10
8.19666
20
9.92198
30
7.8
0
VERTEX
10
8.20038
20
9.95176
30
7.8
0
VERTEX
10
8.20038
20
9.95548
30
7.8
0
VERTEX
10
8.20411
20
9.9592
30
7.8
0
VERTEX
10
8.20597
20
9.98898
30
7.8
0
VERTEX
10
8.20783
20
10.0039
30
7.8
0
VERTEX
10
8.21155
20
10.0076
30
7.8
0
VERTEX
10
8.21155
20
10.0113
30
7.8
0
VERTEX
10
8.21713
20
10.0169
30
7.8
0
VERTEX
10
8.22086
20
10.0188
30
7.8
0
VERTEX
10
8.22086
20
10.0225
30
7.8
0
VERTEX
10
8.23016
20
10.0355
30
7.8
0
VERTEX
10
8.23575
20
10.0504
30
7.8
0
VERTEX
10
8.27483
20
10.1081
30
7.8
0
VERTEX
10
8.27855
20
10.123
30
7.8
0
VERTEX
10
8.286
20
10.1379
30
7.8
0
VERTEX
10
8.29344
20
10.1677
30
7.8
0
VERTEX
10
8.2953
20
10.1974
30
7.8
0
VERTEX
10
8.29903
20
10.2049
30
7.8
0
VERTEX
10
8.30089
20
10.2644
30
7.8
0
VERTEX
10
8.2953
20
10.2942
30
7.8
0
VERTEX
10
8.2953
20
10.3017
30
7.8
0
VERTEX
10
8.28228
20
10.3314
30
7.8
0
VERTEX
10
8.27483
20
10.3445
30
7.8
0
VERTEX
10
8.27483
20
10.3482
30
7.8
0
VERTEX
10
8.26552
20
10.3631
30
7.8
0
VERTEX
10
8.25994
20
10.3761
30
7.8
0
VERTEX
10
8.25808
20
10.391
30
7.8
0
VERTEX
10
8.24691
20
10.404
30
7.8
0
VERTEX
10
8.23947
20
10.4077
30
7.8
0
VERTEX
10
8.22644
20
10.4208
30
7.8
0
VERTEX
10
8.20224
20
10.4413
30
7.8
0
VERTEX
10
8.19666
20
10.4468
30
7.8
0
VERTEX
10
8.19294
20
10.4468
30
7.8
0
VERTEX
10
8.18922
20
10.4506
30
7.8
0
VERTEX
10
8.17619
20
10.4561
30
7.8
0
VERTEX
10
8.17247
20
10.4599
30
7.8
0
VERTEX
10
8.15944
20
10.4636
30
7.8
0
VERTEX
10
8.15571
20
10.4785
30
7.8
0
VERTEX
10
8.15385
20
10.4859
30
7.8
0
VERTEX
10
8.15013
20
10.4896
30
7.8
0
VERTEX
10
8.13524
20
10.4915
30
7.8
0
VERTEX
10
8.1278
20
10.4952
30
7.8
0
VERTEX
10
8.12407
20
10.4989
30
7.8
0
VERTEX
10
8.0943
20
10.5083
30
7.8
0
VERTEX
10
8.07941
20
10.5138
30
7.8
0
VERTEX
10
8.07196
20
10.5194
30
7.8
0
VERTEX
10
8.05707
20
10.5231
30
7.8
0
VERTEX
10
8.04218
20
10.5231
30
7.8
0
VERTEX
10
8.0124
20
10.5287
30
7.8
0
VERTEX
10
7.98262
20
10.5287
30
7.8
0
VERTEX
10
7.96773
20
10.5269
30
7.8
0
VERTEX
10
7.95285
20
10.5287
30
7.8
0
VERTEX
10
7.9454
20
10.5287
30
7.8
0
VERTEX
10
7.94168
20
10.5287
30
7.8
0
VERTEX
10
7.93796
20
10.525
30
7.8
0
VERTEX
10
7.93423
20
10.525
30
7.8
0
VERTEX
10
7.93051
20
10.5213
30
7.8
0
VERTEX
10
7.92679
20
10.5213
30
7.8
0
VERTEX
10
7.91376
20
10.5101
30
7.8
0
VERTEX
10
7.90632
20
10.5045
30
7.8
0
VERTEX
10
7.89887
20
10.5027
30
7.8
0
VERTEX
10
7.88398
20
10.4934
30
7.8
0
VERTEX
10
7.87654
20
10.4878
30
7.8
0
VERTEX
10
7.87281
20
10.4822
30
7.8
0
VERTEX
10
7.85979
20
10.4729
30
7.8
0
VERTEX
10
7.8542
20
10.4673
30
7.8
0
VERTEX
10
7.84676
20
10.4654
30
7.8
0
VERTEX
10
7.83373
20
10.4543
30
7.8
0
VERTEX
10
7.82628
20
10.4487
30
7.8
0
VERTEX
10
7.81326
20
10.4431
30
7.8
0
VERTEX
10
7.79837
20
10.4338
30
7.8
0
VERTEX
10
7.78534
20
10.4208
30
7.8
0
VERTEX
10
7.77045
20
10.4171
30
7.8
0
VERTEX
10
7.75742
20
10.4077
30
7.8
0
VERTEX
10
7.73509
20
10.378
30
7.8
0
VERTEX
10
7.7295
20
10.3482
30
7.8
0
VERTEX
10
7.72764
20
10.2886
30
7.8
0
VERTEX
10
7.72764
20
10.2607
30
7.8
0
SEQEND
0
POLYLINE
62
224
66
1
70
1
3
mitochondrion
0
VERTEX
10
7.93101
20
9.95687
30
7.8
0
VERTEX
10
7.93379
20
9.94575
30
7.8
0
VERTEX
10
7.93379
20
9.94018
30
7.8
0
VERTEX
10
7.93657
20
9.9374
30
7.8
0
VERTEX
10
7.93657
20
9.93184
30
7.8
0
VERTEX
10
7.94214
20
9.92072
30
7.8
0
VERTEX
10
7.94492
20
9.91516
30
7.8
0
VERTEX
10
7.9477
20
9.91237
30
7.8
0
VERTEX
10
7.95465
20
9.89013
30
7.8
0
VERTEX
10
7.95882
20
9.879
30
7.8
0
VERTEX
10
7.96577
20
9.86788
30
7.8
0
VERTEX
10
7.96994
20
9.86232
30
7.8
0
VERTEX
10
7.97273
20
9.86232
30
7.8
0
VERTEX
10
7.98107
20
9.85259
30
7.8
0
VERTEX
10
7.9908
20
9.84563
30
7.8
0
VERTEX
10
7.99914
20
9.8359
30
7.8
0
VERTEX
10
8.00888
20
9.82895
30
7.8
0
VERTEX
10
8.01305
20
9.82478
30
7.8
0
VERTEX
10
8.03529
20
9.82478
30
7.8
0
VERTEX
10
8.05754
20
9.82756
30
7.8
0
VERTEX
10
8.06866
20
9.8359
30
7.8
0
VERTEX
10
8.07423
20
9.83868
30
7.8
0
VERTEX
10
8.08396
20
9.84981
30
7.8
0
VERTEX
10
8.08674
20
9.85537
30
7.8
0
VERTEX
10
8.08674
20
9.85815
30
7.8
0
VERTEX
10
8.09091
20
9.86371
30
7.8
0
VERTEX
10
8.09091
20
9.86649
30
7.8
0
VERTEX
10
8.09369
20
9.86927
30
7.8
0
VERTEX
10
8.09508
20
9.87483
30
7.8
0
VERTEX
10
8.09925
20
9.88039
30
7.8
0
VERTEX
10
8.10204
20
9.90264
30
7.8
0
VERTEX
10
8.10343
20
9.9082
30
7.8
0
VERTEX
10
8.11177
20
9.91794
30
7.8
0
VERTEX
10
8.11594
20
9.96243
30
7.8
0
VERTEX
10
8.11316
20
9.98468
30
7.8
0
VERTEX
10
8.11177
20
9.9958
30
7.8
0
VERTEX
10
8.11177
20
9.99858
30
7.8
0
VERTEX
10
8.1076
20
10.0028
30
7.8
0
VERTEX
10
8.10343
20
10.0139
30
7.8
0
VERTEX
10
8.09925
20
10.018
30
7.8
0
VERTEX
10
8.09786
20
10.0236
30
7.8
0
VERTEX
10
8.09508
20
10.025
30
7.8
0
VERTEX
10
8.09369
20
10.0306
30
7.8
0
VERTEX
10
8.0923
20
10.0333
30
7.8
0
VERTEX
10
8.08952
20
10.0333
30
7.8
0
VERTEX
10
8.08674
20
10.0361
30
7.8
0
VERTEX
10
8.07562
20
10.0389
30
7.8
0
VERTEX
10
8.06449
20
10.0459
30
7.8
0
VERTEX
10
8.05337
20
10.05
30
7.8
0
VERTEX
10
8.04781
20
10.0514
30
7.8
0
VERTEX
10
8.04225
20
10.0556
30
7.8
0
VERTEX
10
8.02
20
10.057
30
7.8
0
VERTEX
10
8.00888
20
10.057
30
7.8
0
VERTEX
10
7.98663
20
10.0528
30
7.8
0
VERTEX
10
7.97551
20
10.05
30
7.8
0
VERTEX
10
7.96994
20
10.0486
30
7.8
0
VERTEX
10
7.96438
20
10.0431
30
7.8
0
VERTEX
10
7.96438
20
10.0403
30
7.8
0
VERTEX
10
7.95882
20
10.0361
30
7.8
0
VERTEX
10
7.95465
20
10.0264
30
7.8
0
VERTEX
10
7.9477
20
10.0153
30
7.8
0
VERTEX
10
7.94353
20
10.0097
30
7.8
0
VERTEX
10
7.94075
20
9.99858
30
7.8
0
VERTEX
10
7.93796
20
9.9958
30
7.8
0
VERTEX
10
7.93379
20
9.97355
30
7.8
0
VERTEX
10
7.93101
20
9.96243
30
7.8
0
VERTEX
10
7.93101
20
9.95826
30
7.8
0
SEQEND
0
POLYLINE
62
227
66
1
70
1
3
endoplasmic_reticulum
0
VERTEX
10
8.0456
20
10.3121
30
7.8
0
VERTEX
10
8.0474
20
10.3103
30
7.8
0
VERTEX
10
8.0474
20
10.3067
30
7.8
0
VERTEX
10
8.05009
20
10.3031
30
7.8
0
VERTEX
10
8.05278
20
10.2959
30
7.8
0
VERTEX
10
8.05457
20
10.2932
30
7.8
0
VERTEX
10
8.05457
20
10.2915
30
7.8
0
VERTEX
10
8.06802
20
10.2798
30
7.8
0
VERTEX
10
8.0725
20
10.2726
30
7.8
0
VERTEX
10
8.07519
20
10.2708
30
7.8
0
VERTEX
10
8.08147
20
10.2565
30
7.8
0
VERTEX
10
8.08236
20
10.2529
30
7.8
0
VERTEX
10
8.08505
20
10.2502
30
7.8
0
VERTEX
10
8.08595
20
10.243
30
7.8
0
VERTEX
10
8.08595
20
10.2412
30
7.8
0
VERTEX
10
8.08774
20
10.2395
30
7.8
0
VERTEX
10
8.08954
20
10.2323
30
7.8
0
VERTEX
10
8.09312
20
10.2251
30
7.8
0
VERTEX
10
8.0985
20
10.2188
30
7.8
0
VERTEX
10
8.10119
20
10.2152
30
7.8
0
VERTEX
10
8.10836
20
10.2126
30
7.8
0
VERTEX
10
8.11195
20
10.2135
30
7.8
0
VERTEX
10
8.11912
20
10.2188
30
7.8
0
VERTEX
10
8.12629
20
10.2197
30
7.8
0
VERTEX
10
8.13347
20
10.2188
30
7.8
0
VERTEX
10
8.13705
20
10.2179
30
7.8
0
VERTEX
10
8.13885
20
10.2143
30
7.8
0
VERTEX
10
8.13974
20
10.157
30
7.8
0
VERTEX
10
8.13974
20
10.1426
30
7.8
0
VERTEX
10
8.14154
20
10.1355
30
7.8
0
VERTEX
10
8.14333
20
10.1319
30
7.8
0
VERTEX
10
8.14333
20
10.1301
30
7.8
0
VERTEX
10
8.15588
20
10.1157
30
7.8
0
VERTEX
10
8.15947
20
10.1139
30
7.8
0
VERTEX
10
8.16664
20
10.1148
30
7.8
0
VERTEX
10
8.17022
20
10.1148
30
7.8
0
VERTEX
10
8.1765
20
10.1202
30
7.8
0
VERTEX
10
8.18188
20
10.1274
30
7.8
0
VERTEX
10
8.18636
20
10.1328
30
7.8
0
VERTEX
10
8.18816
20
10.1337
30
7.8
0
VERTEX
10
8.18816
20
10.1372
30
7.8
0
VERTEX
10
8.18995
20
10.139
30
7.8
0
VERTEX
10
8.18995
20
10.1426
30
7.8
0
VERTEX
10
8.19174
20
10.1462
30
7.8
0
VERTEX
10
8.19443
20
10.148
30
7.8
0
VERTEX
10
8.19712
20
10.1516
30
7.8
0
VERTEX
10
8.19891
20
10.1534
30
7.8
0
VERTEX
10
8.19712
20
10.1821
30
7.8
0
VERTEX
10
8.19712
20
10.1857
30
7.8
0
VERTEX
10
8.19712
20
10.1875
30
7.8
0
VERTEX
10
8.18367
20
10.1973
30
7.8
0
VERTEX
10
8.18188
20
10.1973
30
7.8
0
VERTEX
10
8.18278
20
10.2117
30
7.8
0
VERTEX
10
8.18995
20
10.2126
30
7.8
0
VERTEX
10
8.19712
20
10.2152
30
7.8
0
VERTEX
10
8.19891
20
10.217
30
7.8
0
VERTEX
10
8.19802
20
10.2206
30
7.8
0
VERTEX
10
8.19802
20
10.2224
30
7.8
0
VERTEX
10
8.19443
20
10.226
30
7.8
0
VERTEX
10
8.19264
20
10.2278
30
7.8
0
VERTEX
10
8.19264
20
10.2296
30
7.8
0
VERTEX
10
8.18726
20
10.2368
30
7.8
0
VERTEX
10
8.18367
20
10.2439
30
7.8
0
VERTEX
10
8.18098
20
10.2466
30
7.8
0
VERTEX
10
8.18098
20
10.2484
30
7.8
0
VERTEX
10
8.1756
20
10.2538
30
7.8
0
VERTEX
10
8.17381
20
10.2574
30
7.8
0
VERTEX
10
8.17022
20
10.2601
30
7.8
0
VERTEX
10
8.16754
20
10.2663
30
7.8
0
VERTEX
10
8.16664
20
10.2735
30
7.8
0
VERTEX
10
8.16395
20
10.2807
30
7.8
0
VERTEX
10
8.16305
20
10.2879
30
7.8
0
VERTEX
10
8.16305
20
10.2897
30
7.8
0
VERTEX
10
8.16036
20
10.2923
30
7.8
0
VERTEX
10
8.15947
20
10.3067
30
7.8
0
VERTEX
10
8.15588
20
10.3139
30
7.8
0
VERTEX
10
8.15498
20
10.3175
30
7.8
0
VERTEX
10
8.1505
20
10.3246
30
7.8
0
VERTEX
10
8.14422
20
10.3291
30
7.8
0
VERTEX
10
8.13705
20
10.3318
30
7.8
0
VERTEX
10
8.13347
20
10.3327
30
7.8
0
VERTEX
10
8.12988
20
10.3354
30
7.8
0
VERTEX
10
8.12629
20
10.3363
30
7.8
0
VERTEX
10
8.1245
20
10.3381
30
7.8
0
VERTEX
10
8.12091
20
10.339
30
7.8
0
VERTEX
10
8.11643
20
10.3435
30
7.8
0
VERTEX
10
8.10209
20
10.3435
30
7.8
0
VERTEX
10
8.0985
20
10.3452
30
7.8
0
VERTEX
10
8.08416
20
10.3452
30
7.8
0
VERTEX
10
8.07698
20
10.3461
30
7.8
0
VERTEX
10
8.0734
20
10.347
30
7.8
0
VERTEX
10
8.06623
20
10.3461
30
7.8
0
VERTEX
10
8.06264
20
10.3452
30
7.8
0
VERTEX
10
8.05905
20
10.3426
30
7.8
0
VERTEX
10
8.05188
20
10.3399
30
7.8
0
VERTEX
10
8.0474
20
10.3354
30
7.8
0
VERTEX
10
8.0456
20
10.3318
30
7.8
0
VERTEX
10
8.0456
20
10.3175
30
7.8
0
VERTEX
10
8.0456
20
10.3139
30
7.8
0
VERTEX
10
8.0456
20
10.313
30
7.8
0
SEQEND
0
POLYLINE
62
227
66
1
70
1
3
endoplasmic_reticulum
0
VERTEX
10
7.82505
20
10.1731
30
7.8
0
VERTEX
10
7.82685
20
10.1659
30
7.8
0
VERTEX
10
7.82685
20
10.1624
30
7.8
0
VERTEX
10
7.82864
20
10.1606
30
7.8
0
VERTEX
10
7.83043
20
10.1534
30
7.8
0
VERTEX
10
7.83133
20
10.1498
30
7.8
0
VERTEX
10
7.8403
20
10.1355
30
7.8
0
VERTEX
10
7.84478
20
10.1283
30
7.8
0
VERTEX
10
7.84747
20
10.1247
30
7.8
0
VERTEX
10
7.85016
20
10.1175
30
7.8
0
VERTEX
10
7.85195
20
10.1157
30
7.8
0
VERTEX
10
7.85285
20
10.1121
30
7.8
0
VERTEX
10
7.85285
20
10.1104
30
7.8
0
VERTEX
10
7.85464
20
10.1095
30
7.8
0
VERTEX
10
7.85733
20
10.0951
30
7.8
0
VERTEX
10
7.85912
20
10.0915
30
7.8
0
VERTEX
10
7.85912
20
10.0844
30
7.8
0
VERTEX
10
7.85643
20
10.0772
30
7.8
0
VERTEX
10
7.85374
20
10.0736
30
7.8
0
VERTEX
10
7.85105
20
10.0592
30
7.8
0
VERTEX
10
7.85016
20
10.0449
30
7.8
0
VERTEX
10
7.84836
20
10.0404
30
7.8
0
VERTEX
10
7.84926
20
10.0368
30
7.8
0
VERTEX
10
7.84926
20
10.035
30
7.8
0
VERTEX
10
7.85643
20
10.0315
30
7.8
0
VERTEX
10
7.87078
20
10.0288
30
7.8
0
VERTEX
10
7.87795
20
10.0288
30
7.8
0
VERTEX
10
7.88333
20
10.035
30
7.8
0
VERTEX
10
7.88423
20
10.0386
30
7.8
0
VERTEX
10
7.88781
20
10.0422
30
7.8
0
VERTEX
10
7.88781
20
10.0458
30
7.8
0
VERTEX
10
7.8905
20
10.0485
30
7.8
0
VERTEX
10
7.8905
20
10.0628
30
7.8
0
VERTEX
10
7.88781
20
10.07
30
7.8
0
VERTEX
10
7.88333
20
10.0772
30
7.8
0
VERTEX
10
7.87705
20
10.0915
30
7.8
0
VERTEX
10
7.87616
20
10.0951
30
7.8
0
VERTEX
10
7.87705
20
10.0987
30
7.8
0
VERTEX
10
7.87885
20
10.1005
30
7.8
0
VERTEX
10
7.87974
20
10.1041
30
7.8
0
VERTEX
10
7.87974
20
10.1059
30
7.8
0
VERTEX
10
7.88692
20
10.1104
30
7.8
0
VERTEX
10
7.8914
20
10.1166
30
7.8
0
VERTEX
10
7.8923
20
10.1238
30
7.8
0
VERTEX
10
7.89409
20
10.1274
30
7.8
0
VERTEX
10
7.89499
20
10.1417
30
7.8
0
VERTEX
10
7.89409
20
10.1561
30
7.8
0
VERTEX
10
7.89319
20
10.1632
30
7.8
0
VERTEX
10
7.8914
20
10.165
30
7.8
0
VERTEX
10
7.8905
20
10.1686
30
7.8
0
VERTEX
10
7.88602
20
10.1758
30
7.8
0
VERTEX
10
7.88512
20
10.1794
30
7.8
0
VERTEX
10
7.88154
20
10.1821
30
7.8
0
VERTEX
10
7.88154
20
10.1839
30
7.8
0
VERTEX
10
7.87257
20
10.1982
30
7.8
0
VERTEX
10
7.86809
20
10.2054
30
7.8
0
VERTEX
10
7.86719
20
10.209
30
7.8
0
VERTEX
10
7.8645
20
10.2126
30
7.8
0
VERTEX
10
7.86361
20
10.2161
30
7.8
0
VERTEX
10
7.86361
20
10.2179
30
7.8
0
VERTEX
10
7.86181
20
10.2188
30
7.8
0
VERTEX
10
7.86181
20
10.2332
30
7.8
0
VERTEX
10
7.86092
20
10.235
30
7.8
0
VERTEX
10
7.84657
20
10.2233
30
7.8
0
VERTEX
10
7.8394
20
10.2206
30
7.8
0
VERTEX
10
7.83581
20
10.2197
30
7.8
0
VERTEX
10
7.83312
20
10.2161
30
7.8
0
VERTEX
10
7.83312
20
10.2143
30
7.8
0
VERTEX
10
7.82774
20
10.2081
30
7.8
0
VERTEX
10
7.82595
20
10.2063
30
7.8
0
VERTEX
10
7.82505
20
10.1776
30
7.8
0
VERTEX
10
7.82505
20
10.174
30
7.8
0
SEQEND
0
POLYLINE
62
227
66
1
70
1
3
endoplasmic_reticulum
0
VERTEX
10
7.81878
20
10.3605
30
7.8
0
VERTEX
10
7.82057
20
10.3533
30
7.8
0
VERTEX
10
7.82236
20
10.3515
30
7.8
0
VERTEX
10
7.82416
20
10.3515
30
7.8
0
VERTEX
10
7.82774
20
10.3479
30
7.8
0
VERTEX
10
7.84209
20
10.3426
30
7.8
0
VERTEX
10
7.85643
20
10.3426
30
7.8
0
VERTEX
10
7.86361
20
10.3426
30
7.8
0
VERTEX
10
7.8654
20
10.3426
30
7.8
0
VERTEX
10
7.8663
20
10.3461
30
7.8
0
VERTEX
10
7.86988
20
10.3497
30
7.8
0
VERTEX
10
7.87257
20
10.3506
30
7.8
0
VERTEX
10
7.87526
20
10.3542
30
7.8
0
VERTEX
10
7.87705
20
10.3614
30
7.8
0
VERTEX
10
7.87705
20
10.3686
30
7.8
0
VERTEX
10
7.88154
20
10.3829
30
7.8
0
VERTEX
10
7.88333
20
10.3865
30
7.8
0
VERTEX
10
7.88961
20
10.3919
30
7.8
0
VERTEX
10
7.89409
20
10.3981
30
7.8
0
VERTEX
10
7.89588
20
10.3981
30
7.8
0
VERTEX
10
7.90126
20
10.4044
30
7.8
0
VERTEX
10
7.90485
20
10.4062
30
7.8
0
VERTEX
10
7.90664
20
10.4062
30
7.8
0
VERTEX
10
7.91919
20
10.4161
30
7.8
0
VERTEX
10
7.92547
20
10.4223
30
7.8
0
VERTEX
10
7.93174
20
10.4268
30
7.8
0
VERTEX
10
7.94519
20
10.4403
30
7.8
0
VERTEX
10
7.94878
20
10.4421
30
7.8
0
VERTEX
10
7.95236
20
10.4421
30
7.8
0
VERTEX
10
7.95416
20
10.4421
30
7.8
0
VERTEX
10
7.95505
20
10.4492
30
7.8
0
VERTEX
10
7.95057
20
10.4636
30
7.8
0
VERTEX
10
7.93712
20
10.4752
30
7.8
0
VERTEX
10
7.93533
20
10.477
30
7.8
0
VERTEX
10
7.93174
20
10.4761
30
7.8
0
VERTEX
10
7.92547
20
10.4699
30
7.8
0
VERTEX
10
7.91919
20
10.4663
30
7.8
0
VERTEX
10
7.91561
20
10.4654
30
7.8
0
VERTEX
10
7.90933
20
10.4591
30
7.8
0
VERTEX
10
7.89588
20
10.4501
30
7.8
0
VERTEX
10
7.8923
20
10.4492
30
7.8
0
VERTEX
10
7.87885
20
10.4367
30
7.8
0
VERTEX
10
7.87526
20
10.4349
30
7.8
0
VERTEX
10
7.87257
20
10.4277
30
7.8
0
VERTEX
10
7.87078
20
10.4259
30
7.8
0
VERTEX
10
7.87078
20
10.4241
30
7.8
0
VERTEX
10
7.86809
20
10.4206
30
7.8
0
VERTEX
10
7.86719
20
10.417
30
7.8
0
VERTEX
10
7.85733
20
10.4053
30
7.8
0
VERTEX
10
7.85105
20
10.399
30
7.8
0
VERTEX
10
7.83671
20
10.391
30
7.8
0
VERTEX
10
7.83312
20
10.3901
30
7.8
0
VERTEX
10
7.82595
20
10.3847
30
7.8
0
VERTEX
10
7.82326
20
10.3811
30
7.8
0
VERTEX
10
7.82057
20
10.3739
30
7.8
0
VERTEX
10
7.81878
20
10.3703
30
7.8
0
VERTEX
10
7.81878
20
10.3632
30
7.8
0
VERTEX
10
7.81878
20
10.3614
30
7.8
0
SEQEND
0
ENDSEC
0
EOF
