0
SECTION
2
ENTITIES
0
POLYLINE
62
31
66
1
70
1
3
contour
0
VERTEX
10
8.92493
20
9.33958
30
6.04
0
VERTEX
10
8.92937
20
9.33071
30
6.04
0
VERTEX
10
8.9338
20
9.32628
30
6.04
0
VERTEX
10
8.9338
20
9.32184
30
6.04
0
VERTEX
10
8.94932
20
9.30854
30
6.04
0
VERTEX
10
8.96041
20
9.29745
30
6.04
0
VERTEX
10
8.96041
20
9.29302
30
6.04
0
VERTEX
10
8.96928
20
9.2908
30
6.04
0
VERTEX
10
8.97371
20
9.2908
30
6.04
0
VERTEX
10
8.97815
20
9.28636
30
6.04
0
VERTEX
10
8.99589
20
9.27971
30
6.04
0
VERTEX
10
9.01363
20
9.26862
30
6.04
0
VERTEX
10
9.0225
20
9.26641
30
6.04
0
VERTEX
10
9.02471
20
9.26197
30
6.04
0
VERTEX
10
9.09567
20
9.23536
30
6.04
0
VERTEX
10
9.1001
20
9.23093
30
6.04
0
VERTEX
10
9.11784
20
9.22649
30
6.04
0
VERTEX
10
9.12671
20
9.22649
30
6.04
0
VERTEX
10
9.14445
20
9.21984
30
6.04
0
VERTEX
10
9.21541
20
9.21541
30
6.04
0
VERTEX
10
9.23315
20
9.22206
30
6.04
0
VERTEX
10
9.26862
20
9.22206
30
6.04
0
VERTEX
10
9.33958
20
9.23315
30
6.04
0
VERTEX
10
9.34845
20
9.23758
30
6.04
0
VERTEX
10
9.35732
20
9.23758
30
6.04
0
VERTEX
10
9.36619
20
9.24423
30
6.04
0
VERTEX
10
9.38393
20
9.25089
30
6.04
0
VERTEX
10
9.39945
20
9.26862
30
6.04
0
VERTEX
10
9.39945
20
9.27306
30
6.04
0
VERTEX
10
9.41275
20
9.28858
30
6.04
0
VERTEX
10
9.41275
20
9.29302
30
6.04
0
VERTEX
10
9.41941
20
9.29967
30
6.04
0
VERTEX
10
9.42606
20
9.33515
30
6.04
0
VERTEX
10
9.42606
20
9.37062
30
6.04
0
VERTEX
10
9.42606
20
9.38836
30
6.04
0
VERTEX
10
9.42162
20
9.4061
30
6.04
0
VERTEX
10
9.41941
20
9.44158
30
6.04
0
VERTEX
10
9.41719
20
9.45932
30
6.04
0
VERTEX
10
9.41497
20
9.46819
30
6.04
0
VERTEX
10
9.41054
20
9.47262
30
6.04
0
VERTEX
10
9.40832
20
9.48149
30
6.04
0
VERTEX
10
9.39723
20
9.49923
30
6.04
0
VERTEX
10
9.36619
20
9.52806
30
6.04
0
VERTEX
10
9.33293
20
9.54136
30
6.04
0
VERTEX
10
9.32406
20
9.54358
30
6.04
0
VERTEX
10
9.31962
20
9.54358
30
6.04
0
VERTEX
10
9.31741
20
9.53914
30
6.04
0
VERTEX
10
9.31962
20
9.53027
30
6.04
0
VERTEX
10
9.24867
20
9.52806
30
6.04
0
VERTEX
10
9.23093
20
9.52584
30
6.04
0
VERTEX
10
9.22206
20
9.52362
30
6.04
0
VERTEX
10
9.21762
20
9.52362
30
6.04
0
VERTEX
10
9.21319
20
9.51919
30
6.04
0
VERTEX
10
9.17771
20
9.51475
30
6.04
0
VERTEX
10
9.16884
20
9.51475
30
6.04
0
VERTEX
10
9.15997
20
9.51032
30
6.04
0
VERTEX
10
9.08902
20
9.5081
30
6.04
0
VERTEX
10
9.07128
20
9.50367
30
6.04
0
VERTEX
10
9.05354
20
9.50367
30
6.04
0
VERTEX
10
9.04467
20
9.50367
30
6.04
0
VERTEX
10
9.04023
20
9.49923
30
6.04
0
VERTEX
10
9.04023
20
9.48149
30
6.04
0
VERTEX
10
9.04023
20
9.47262
30
6.04
0
VERTEX
10
9.0358
20
9.46819
30
6.04
0
VERTEX
10
9.0358
20
9.45932
30
6.04
0
VERTEX
10
9.0358
20
9.45488
30
6.04
0
VERTEX
10
9.03137
20
9.45045
30
6.04
0
VERTEX
10
9.02471
20
9.43271
30
6.04
0
VERTEX
10
9.01141
20
9.41497
30
6.04
0
VERTEX
10
9.00476
20
9.40832
30
6.04
0
VERTEX
10
8.9715
20
9.39501
30
6.04
0
VERTEX
10
8.95376
20
9.39058
30
6.04
0
VERTEX
10
8.93602
20
9.38171
30
6.04
0
VERTEX
10
8.92493
20
9.36619
30
6.04
0
VERTEX
10
8.92493
20
9.34845
30
6.04
0
VERTEX
10
8.92493
20
9.3418
30
6.04
0
SEQEND
0
POLYLINE
62
31
66
1
70
1
3
contour
0
VERTEX
10
7.41173
20
9.20738
30
6.04
0
VERTEX
10
7.41439
20
9.18606
30
6.04
0
VERTEX
10
7.41439
20
9.17541
30
6.04
0
VERTEX
10
7.42505
20
9.16475
30
6.04
0
VERTEX
10
7.4357
20
9.15942
30
6.04
0
VERTEX
10
7.45702
20
9.15942
30
6.04
0
VERTEX
10
7.46767
20
9.15409
30
6.04
0
VERTEX
10
7.48899
20
9.15143
30
6.04
0
VERTEX
10
7.49964
20
9.14876
30
6.04
0
VERTEX
10
7.50497
20
9.14344
30
6.04
0
VERTEX
10
7.5476
20
9.13811
30
6.04
0
VERTEX
10
7.56891
20
9.13811
30
6.04
0
VERTEX
10
7.60887
20
9.12479
30
6.04
0
VERTEX
10
7.63019
20
9.1088
30
6.04
0
VERTEX
10
7.64084
20
9.10614
30
6.04
0
VERTEX
10
7.65949
20
9.09015
30
6.04
0
VERTEX
10
7.68081
20
9.08482
30
6.04
0
VERTEX
10
7.70212
20
9.0715
30
6.04
0
VERTEX
10
7.71278
20
9.06085
30
6.04
0
VERTEX
10
7.72343
20
9.05818
30
6.04
0
VERTEX
10
7.73409
20
9.05019
30
6.04
0
VERTEX
10
7.74475
20
9.05019
30
6.04
0
VERTEX
10
7.76606
20
9.0422
30
6.04
0
VERTEX
10
7.78737
20
9.04486
30
6.04
0
VERTEX
10
7.79803
20
9.04486
30
6.04
0
VERTEX
10
7.80336
20
9.04753
30
6.04
0
VERTEX
10
7.80336
20
9.05285
30
6.04
0
VERTEX
10
7.81402
20
9.06085
30
6.04
0
VERTEX
10
7.82467
20
9.0795
30
6.04
0
VERTEX
10
7.84599
20
9.09282
30
6.04
0
VERTEX
10
7.86996
20
9.13278
30
6.04
0
VERTEX
10
7.88328
20
9.15143
30
6.04
0
VERTEX
10
7.88861
20
9.15676
30
6.04
0
VERTEX
10
7.88861
20
9.16209
30
6.04
0
VERTEX
10
7.89927
20
9.17274
30
6.04
0
VERTEX
10
7.91259
20
9.19406
30
6.04
0
VERTEX
10
7.91792
20
9.23668
30
6.04
0
VERTEX
10
7.92591
20
9.24468
30
6.04
0
VERTEX
10
7.9339
20
9.26599
30
6.04
0
VERTEX
10
7.93657
20
9.27665
30
6.04
0
VERTEX
10
7.9419
20
9.28197
30
6.04
0
VERTEX
10
7.9419
20
9.2873
30
6.04
0
VERTEX
10
7.94722
20
9.29263
30
6.04
0
VERTEX
10
7.94989
20
9.33526
30
6.04
0
VERTEX
10
7.94989
20
9.35657
30
6.04
0
VERTEX
10
7.9419
20
9.37788
30
6.04
0
VERTEX
10
7.92325
20
9.39387
30
6.04
0
VERTEX
10
7.90193
20
9.40186
30
6.04
0
VERTEX
10
7.89128
20
9.40985
30
6.04
0
VERTEX
10
7.86996
20
9.41785
30
6.04
0
VERTEX
10
7.85931
20
9.42317
30
6.04
0
VERTEX
10
7.84865
20
9.42317
30
6.04
0
VERTEX
10
7.84332
20
9.43383
30
6.04
0
VERTEX
10
7.84332
20
9.43916
30
6.04
0
VERTEX
10
7.75807
20
9.44182
30
6.04
0
VERTEX
10
7.73675
20
9.44182
30
6.04
0
VERTEX
10
7.7261
20
9.44182
30
6.04
0
VERTEX
10
7.71544
20
9.4365
30
6.04
0
VERTEX
10
7.54493
20
9.43383
30
6.04
0
VERTEX
10
7.50231
20
9.4285
30
6.04
0
VERTEX
10
7.49698
20
9.4285
30
6.04
0
VERTEX
10
7.49165
20
9.42317
30
6.04
0
VERTEX
10
7.48632
20
9.42317
30
6.04
0
VERTEX
10
7.46501
20
9.40985
30
6.04
0
VERTEX
10
7.46234
20
9.3992
30
6.04
0
VERTEX
10
7.45435
20
9.38854
30
6.04
0
VERTEX
10
7.44902
20
9.36723
30
6.04
0
VERTEX
10
7.43837
20
9.34591
30
6.04
0
VERTEX
10
7.43304
20
9.33526
30
6.04
0
VERTEX
10
7.42771
20
9.29263
30
6.04
0
VERTEX
10
7.41439
20
9.25267
30
6.04
0
VERTEX
10
7.41173
20
9.21004
30
6.04
0
SEQEND
0
POLYLINE
62
224
66
1
70
1
3
mitochondrion
0
VERTEX
10
9.15598
20
9.35481
30
6.04
0
VERTEX
10
9.15876
20
9.34369
30
6.04
0
VERTEX
10
9.16015
20
9.32144
30
6.04
0
VERTEX
10
9.16293
20
9.32005
30
6.04
0
VERTEX
10
9.16293
20
9.31727
30
6.04
0
VERTEX
10
9.16571
20
9.31449
30
6.04
0
VERTEX
10
9.16571
20
9.30893
30
6.04
0
VERTEX
10
9.17684
20
9.30198
30
6.04
0
VERTEX
10
9.1824
20
9.2978
30
6.04
0
VERTEX
10
9.20465
20
9.29363
30
6.04
0
VERTEX
10
9.22689
20
9.29502
30
6.04
0
VERTEX
10
9.23245
20
9.29502
30
6.04
0
VERTEX
10
9.24358
20
9.2992
30
6.04
0
VERTEX
10
9.2547
20
9.30059
30
6.04
0
VERTEX
10
9.26582
20
9.30476
30
6.04
0
VERTEX
10
9.27139
20
9.30615
30
6.04
0
VERTEX
10
9.27417
20
9.31032
30
6.04
0
VERTEX
10
9.27973
20
9.31171
30
6.04
0
VERTEX
10
9.28946
20
9.32005
30
6.04
0
VERTEX
10
9.29502
20
9.32422
30
6.04
0
VERTEX
10
9.30059
20
9.32561
30
6.04
0
VERTEX
10
9.30476
20
9.33118
30
6.04
0
VERTEX
10
9.30615
20
9.33674
30
6.04
0
VERTEX
10
9.30893
20
9.33813
30
6.04
0
VERTEX
10
9.31171
20
9.34925
30
6.04
0
VERTEX
10
9.3131
20
9.35481
30
6.04
0
VERTEX
10
9.31727
20
9.36037
30
6.04
0
VERTEX
10
9.31727
20
9.36594
30
6.04
0
VERTEX
10
9.3131
20
9.37706
30
6.04
0
VERTEX
10
9.3131
20
9.38818
30
6.04
0
VERTEX
10
9.31032
20
9.39096
30
6.04
0
VERTEX
10
9.31032
20
9.39653
30
6.04
0
VERTEX
10
9.30754
20
9.40209
30
6.04
0
VERTEX
10
9.30754
20
9.40765
30
6.04
0
VERTEX
10
9.30198
20
9.41877
30
6.04
0
VERTEX
10
9.29224
20
9.42851
30
6.04
0
VERTEX
10
9.28112
20
9.43268
30
6.04
0
VERTEX
10
9.25887
20
9.43407
30
6.04
0
VERTEX
10
9.25331
20
9.43685
30
6.04
0
VERTEX
10
9.25053
20
9.43824
30
6.04
0
VERTEX
10
9.22828
20
9.43685
30
6.04
0
VERTEX
10
9.21716
20
9.43546
30
6.04
0
VERTEX
10
9.20604
20
9.43129
30
6.04
0
VERTEX
10
9.20047
20
9.4299
30
6.04
0
VERTEX
10
9.18101
20
9.41182
30
6.04
0
VERTEX
10
9.17823
20
9.40904
30
6.04
0
VERTEX
10
9.17823
20
9.40626
30
6.04
0
VERTEX
10
9.16849
20
9.39792
30
6.04
0
VERTEX
10
9.16154
20
9.38679
30
6.04
0
VERTEX
10
9.15876
20
9.38123
30
6.04
0
VERTEX
10
9.15876
20
9.37011
30
6.04
0
VERTEX
10
9.15598
20
9.36455
30
6.04
0
VERTEX
10
9.15598
20
9.35898
30
6.04
0
VERTEX
10
9.15598
20
9.3562
30
6.04
0
SEQEND
0
POLYLINE
62
227
66
1
70
1
3
endoplasmic_reticulum
0
VERTEX
10
9.17077
20
9.45318
30
6.04
0
VERTEX
10
9.17436
20
9.45229
30
6.04
0
VERTEX
10
9.18153
20
9.45498
30
6.04
0
VERTEX
10
9.18511
20
9.45498
30
6.04
0
VERTEX
10
9.19946
20
9.46125
30
6.04
0
VERTEX
10
9.20663
20
9.46394
30
6.04
0
VERTEX
10
9.22098
20
9.46394
30
6.04
0
VERTEX
10
9.22815
20
9.46394
30
6.04
0
VERTEX
10
9.23442
20
9.46753
30
6.04
0
VERTEX
10
9.23622
20
9.46753
30
6.04
0
VERTEX
10
9.23801
20
9.47111
30
6.04
0
VERTEX
10
9.23801
20
9.4747
30
6.04
0
VERTEX
10
9.23801
20
9.47649
30
6.04
0
VERTEX
10
9.23084
20
9.48098
30
6.04
0
VERTEX
10
9.21649
20
9.48366
30
6.04
0
VERTEX
10
9.20215
20
9.48366
30
6.04
0
VERTEX
10
9.19498
20
9.48187
30
6.04
0
VERTEX
10
9.19139
20
9.48187
30
6.04
0
VERTEX
10
9.1878
20
9.47918
30
6.04
0
VERTEX
10
9.18063
20
9.47649
30
6.04
0
VERTEX
10
9.17884
20
9.4756
30
6.04
0
VERTEX
10
9.17794
20
9.47291
30
6.04
0
VERTEX
10
9.17256
20
9.46573
30
6.04
0
VERTEX
10
9.17077
20
9.45856
30
6.04
0
VERTEX
10
9.17077
20
9.45498
30
6.04
0
VERTEX
10
9.17077
20
9.45408
30
6.04
0
SEQEND
0
POLYLINE
62
227
66
1
70
1
3
endoplasmic_reticulum
0
VERTEX
10
9.02912
20
9.38236
30
6.04
0
VERTEX
10
9.03001
20
9.37518
30
6.04
0
VERTEX
10
9.03181
20
9.3716
30
6.04
0
VERTEX
10
9.0327
20
9.36442
30
6.04
0
VERTEX
10
9.04256
20
9.35187
30
6.04
0
VERTEX
10
9.04615
20
9.35098
30
6.04
0
VERTEX
10
9.06049
20
9.34111
30
6.04
0
VERTEX
10
9.06408
20
9.34022
30
6.04
0
VERTEX
10
9.06767
20
9.33753
30
6.04
0
VERTEX
10
9.09636
20
9.33753
30
6.04
0
VERTEX
10
9.09994
20
9.33753
30
6.04
0
VERTEX
10
9.10353
20
9.33932
30
6.04
0
VERTEX
10
9.1107
20
9.33932
30
6.04
0
VERTEX
10
9.11249
20
9.34111
30
6.04
0
VERTEX
10
9.11429
20
9.34022
30
6.04
0
VERTEX
10
9.11698
20
9.34291
30
6.04
0
VERTEX
10
9.12325
20
9.3447
30
6.04
0
VERTEX
10
9.12594
20
9.34739
30
6.04
0
VERTEX
10
9.12684
20
9.35098
30
6.04
0
VERTEX
10
9.12505
20
9.35815
30
6.04
0
VERTEX
10
9.12146
20
9.36173
30
6.04
0
VERTEX
10
9.11698
20
9.36801
30
6.04
0
VERTEX
10
9.10532
20
9.38056
30
6.04
0
VERTEX
10
9.10353
20
9.38325
30
6.04
0
VERTEX
10
9.09994
20
9.38594
30
6.04
0
VERTEX
10
9.09277
20
9.38773
30
6.04
0
VERTEX
10
9.08918
20
9.39042
30
6.04
0
VERTEX
10
9.08201
20
9.39222
30
6.04
0
VERTEX
10
9.07843
20
9.39222
30
6.04
0
VERTEX
10
9.07484
20
9.39042
30
6.04
0
VERTEX
10
9.06049
20
9.39042
30
6.04
0
VERTEX
10
9.04615
20
9.39491
30
6.04
0
VERTEX
10
9.04256
20
9.3958
30
6.04
0
VERTEX
10
9.03539
20
9.39311
30
6.04
0
VERTEX
10
9.03181
20
9.39222
30
6.04
0
VERTEX
10
9.02912
20
9.38953
30
6.04
0
VERTEX
10
9.02912
20
9.38325
30
6.04
0
SEQEND
0
POLYLINE
62
236
66
1
70
1
3
postsynaptic_density
0
VERTEX
10
7.36731
20
9.0397
30
6.04
0
VERTEX
10
7.37068
20
9.03633
30
6.04
0
VERTEX
10
7.58647
20
8.98744
30
6.04
0
VERTEX
10
7.64042
20
8.97395
30
6.04
0
VERTEX
10
7.69437
20
8.96384
30
6.04
0
VERTEX
10
7.70785
20
8.96552
30
6.04
0
VERTEX
10
7.72134
20
8.97732
30
6.04
0
VERTEX
10
7.72809
20
8.98407
30
6.04
0
VERTEX
10
7.73989
20
8.9925
30
6.04
0
VERTEX
10
7.74494
20
8.99924
30
6.04
0
VERTEX
10
7.74832
20
9.00261
30
6.04
0
VERTEX
10
7.75337
20
9.0161
30
6.04
0
VERTEX
10
7.75506
20
9.07005
30
6.04
0
VERTEX
10
7.75506
20
9.09702
30
6.04
0
VERTEX
10
7.75506
20
9.10377
30
6.04
0
VERTEX
10
7.75169
20
9.11051
30
6.04
0
VERTEX
10
7.75
20
9.124
30
6.04
0
VERTEX
10
7.74494
20
9.13748
30
6.04
0
VERTEX
10
7.74494
20
9.14423
30
6.04
0
VERTEX
10
7.74157
20
9.15097
30
6.04
0
VERTEX
10
7.74157
20
9.15771
30
6.04
0
VERTEX
10
7.73314
20
9.16952
30
6.04
0
VERTEX
10
7.73146
20
9.17626
30
6.04
0
VERTEX
10
7.72303
20
9.18975
30
6.04
0
VERTEX
10
7.71123
20
9.20155
30
6.04
0
VERTEX
10
7.70617
20
9.20829
30
6.04
0
VERTEX
10
7.68088
20
9.22515
30
6.04
0
VERTEX
10
7.67414
20
9.22684
30
6.04
0
VERTEX
10
7.67077
20
9.23021
30
6.04
0
VERTEX
10
7.65728
20
9.23189
30
6.04
0
VERTEX
10
7.6303
20
9.24369
30
6.04
0
VERTEX
10
7.61682
20
9.24875
30
6.04
0
VERTEX
10
7.60333
20
9.25044
30
6.04
0
VERTEX
10
7.59153
20
9.25718
30
6.04
0
VERTEX
10
7.53758
20
9.25887
30
6.04
0
VERTEX
10
7.52409
20
9.25887
30
6.04
0
VERTEX
10
7.51061
20
9.2555
30
6.04
0
VERTEX
10
7.50386
20
9.25044
30
6.04
0
VERTEX
10
7.49038
20
9.24875
30
6.04
0
VERTEX
10
7.487
20
9.24538
30
6.04
0
VERTEX
10
7.47352
20
9.24369
30
6.04
0
VERTEX
10
7.44654
20
9.23189
30
6.04
0
VERTEX
10
7.4398
20
9.22852
30
6.04
0
VERTEX
10
7.43643
20
9.22515
30
6.04
0
VERTEX
10
7.43474
20
9.21841
30
6.04
0
VERTEX
10
7.42294
20
9.20829
30
6.04
0
VERTEX
10
7.41788
20
9.20155
30
6.04
0
VERTEX
10
7.4162
20
9.1948
30
6.04
0
VERTEX
10
7.41114
20
9.18806
30
6.04
0
VERTEX
10
7.4044
20
9.18469
30
6.04
0
VERTEX
10
7.38417
20
9.15771
30
6.04
0
VERTEX
10
7.38248
20
9.13074
30
6.04
0
VERTEX
10
7.37236
20
9.10377
30
6.04
0
VERTEX
10
7.36731
20
9.07679
30
6.04
0
VERTEX
10
7.36731
20
9.04982
30
6.04
0
VERTEX
10
7.36731
20
9.04307
30
6.04
0
VERTEX
10
7.36731
20
9.04139
30
6.04
0
SEQEND
0
ENDSEC
0
EOF
