0
SECTION
2
ENTITIES
0
POLYLINE
62
31
66
1
70
1
3
contour
0
VERTEX
10
8.71876
20
9.19137
30
6.32
0
VERTEX
10
8.7286
20
9.18645
30
6.32
0
VERTEX
10
8.79752
20
9.24552
30
6.32
0
VERTEX
10
8.80245
20
9.26522
30
6.32
0
VERTEX
10
8.82214
20
9.27506
30
6.32
0
VERTEX
10
8.82706
20
9.28491
30
6.32
0
VERTEX
10
8.90583
20
9.31937
30
6.32
0
VERTEX
10
8.94522
20
9.33414
30
6.32
0
VERTEX
10
9.10275
20
9.34891
30
6.32
0
VERTEX
10
9.26029
20
9.35383
30
6.32
0
VERTEX
10
9.41783
20
9.34891
30
6.32
0
VERTEX
10
9.4966
20
9.35875
30
6.32
0
VERTEX
10
9.52122
20
9.4326
30
6.32
0
VERTEX
10
9.53106
20
9.43752
30
6.32
0
VERTEX
10
9.54091
20
9.47691
30
6.32
0
VERTEX
10
9.55075
20
9.4966
30
6.32
0
VERTEX
10
9.55075
20
9.50645
30
6.32
0
VERTEX
10
9.5606
20
9.51629
30
6.32
0
VERTEX
10
9.5606
20
9.67383
30
6.32
0
VERTEX
10
9.56552
20
9.7526
30
6.32
0
VERTEX
10
9.55568
20
9.75752
30
6.32
0
VERTEX
10
9.51629
20
9.74768
30
6.32
0
VERTEX
10
9.51629
20
9.75752
30
6.32
0
VERTEX
10
9.47691
20
9.76737
30
6.32
0
VERTEX
10
9.47198
20
9.77229
30
6.32
0
VERTEX
10
9.4326
20
9.76245
30
6.32
0
VERTEX
10
9.39322
20
9.76245
30
6.32
0
VERTEX
10
9.37352
20
9.7526
30
6.32
0
VERTEX
10
9.36368
20
9.74275
30
6.32
0
VERTEX
10
9.34399
20
9.74275
30
6.32
0
VERTEX
10
9.3046
20
9.72798
30
6.32
0
VERTEX
10
9.22583
20
9.71814
30
6.32
0
VERTEX
10
9.20614
20
9.70829
30
6.32
0
VERTEX
10
9.18645
20
9.70829
30
6.32
0
VERTEX
10
9.14706
20
9.69352
30
6.32
0
VERTEX
10
9.12737
20
9.69352
30
6.32
0
VERTEX
10
9.11752
20
9.69352
30
6.32
0
VERTEX
10
9.09783
20
9.67383
30
6.32
0
VERTEX
10
9.06337
20
9.64922
30
6.32
0
VERTEX
10
9.02399
20
9.63445
30
6.32
0
VERTEX
10
8.9846
20
9.60983
30
6.32
0
VERTEX
10
8.96491
20
9.59506
30
6.32
0
VERTEX
10
8.95506
20
9.58522
30
6.32
0
VERTEX
10
8.94522
20
9.58522
30
6.32
0
VERTEX
10
8.88614
20
9.51137
30
6.32
0
VERTEX
10
8.85168
20
9.47691
30
6.32
0
VERTEX
10
8.83691
20
9.46214
30
6.32
0
VERTEX
10
8.82706
20
9.46214
30
6.32
0
VERTEX
10
8.78768
20
9.4326
30
6.32
0
VERTEX
10
8.77783
20
9.42768
30
6.32
0
VERTEX
10
8.77783
20
9.41783
30
6.32
0
VERTEX
10
8.75322
20
9.37845
30
6.32
0
VERTEX
10
8.75322
20
9.3686
30
6.32
0
VERTEX
10
8.74337
20
9.35875
30
6.32
0
VERTEX
10
8.74337
20
9.31937
30
6.32
0
VERTEX
10
8.73352
20
9.27999
30
6.32
0
VERTEX
10
8.73352
20
9.2406
30
6.32
0
VERTEX
10
8.73352
20
9.22091
30
6.32
0
VERTEX
10
8.71876
20
9.20614
30
6.32
0
VERTEX
10
8.71876
20
9.19629
30
6.32
0
SEQEND
0
POLYLINE
62
31
66
1
70
1
3
contour
0
VERTEX
10
7.17195
20
9.1834
30
6.32
0
VERTEX
10
7.17728
20
9.17807
30
6.32
0
VERTEX
10
7.18261
20
9.18074
30
6.32
0
VERTEX
10
7.1906
20
9.16209
30
6.32
0
VERTEX
10
7.20925
20
9.14344
30
6.32
0
VERTEX
10
7.21191
20
9.13811
30
6.32
0
VERTEX
10
7.21724
20
9.13811
30
6.32
0
VERTEX
10
7.23056
20
9.09815
30
6.32
0
VERTEX
10
7.23589
20
9.09815
30
6.32
0
VERTEX
10
7.24122
20
9.08749
30
6.32
0
VERTEX
10
7.25187
20
9.08216
30
6.32
0
VERTEX
10
7.2572
20
9.07683
30
6.32
0
VERTEX
10
7.34246
20
9.08216
30
6.32
0
VERTEX
10
7.38508
20
9.08216
30
6.32
0
VERTEX
10
7.39574
20
9.08216
30
6.32
0
VERTEX
10
7.40107
20
9.08216
30
6.32
0
VERTEX
10
7.4064
20
9.07683
30
6.32
0
VERTEX
10
7.49165
20
9.0715
30
6.32
0
VERTEX
10
7.53428
20
9.0715
30
6.32
0
VERTEX
10
7.55559
20
9.06884
30
6.32
0
VERTEX
10
7.5769
20
9.07417
30
6.32
0
VERTEX
10
7.66216
20
9.07683
30
6.32
0
VERTEX
10
7.74741
20
9.06884
30
6.32
0
VERTEX
10
7.76872
20
9.06884
30
6.32
0
VERTEX
10
7.77938
20
9.06884
30
6.32
0
VERTEX
10
7.82201
20
9.08482
30
6.32
0
VERTEX
10
7.84332
20
9.09815
30
6.32
0
VERTEX
10
7.85131
20
9.1088
30
6.32
0
VERTEX
10
7.85398
20
9.11946
30
6.32
0
VERTEX
10
7.87529
20
9.13811
30
6.32
0
VERTEX
10
7.88861
20
9.15676
30
6.32
0
VERTEX
10
7.88861
20
9.16209
30
6.32
0
VERTEX
10
7.89394
20
9.16741
30
6.32
0
VERTEX
10
7.89394
20
9.17274
30
6.32
0
VERTEX
10
7.90193
20
9.18074
30
6.32
0
VERTEX
10
7.92058
20
9.1834
30
6.32
0
VERTEX
10
7.93923
20
9.19672
30
6.32
0
VERTEX
10
7.96054
20
9.20471
30
6.32
0
VERTEX
10
7.9712
20
9.20471
30
6.32
0
VERTEX
10
7.97653
20
9.20738
30
6.32
0
VERTEX
10
7.97653
20
9.21803
30
6.32
0
VERTEX
10
7.97653
20
9.22336
30
6.32
0
VERTEX
10
7.96587
20
9.22603
30
6.32
0
VERTEX
10
7.96054
20
9.22603
30
6.32
0
VERTEX
10
7.94989
20
9.24468
30
6.32
0
VERTEX
10
7.94722
20
9.25533
30
6.32
0
VERTEX
10
7.9419
20
9.26066
30
6.32
0
VERTEX
10
7.93124
20
9.26066
30
6.32
0
VERTEX
10
7.91525
20
9.27665
30
6.32
0
VERTEX
10
7.89394
20
9.28997
30
6.32
0
VERTEX
10
7.85131
20
9.29796
30
6.32
0
VERTEX
10
7.80869
20
9.29263
30
6.32
0
VERTEX
10
7.78737
20
9.29263
30
6.32
0
VERTEX
10
7.76606
20
9.29796
30
6.32
0
VERTEX
10
7.7554
20
9.30329
30
6.32
0
VERTEX
10
7.74475
20
9.30329
30
6.32
0
VERTEX
10
7.72343
20
9.31661
30
6.32
0
VERTEX
10
7.7181
20
9.32194
30
6.32
0
VERTEX
10
7.71278
20
9.32194
30
6.32
0
VERTEX
10
7.67814
20
9.35124
30
6.32
0
VERTEX
10
7.65949
20
9.36989
30
6.32
0
VERTEX
10
7.64884
20
9.37522
30
6.32
0
VERTEX
10
7.60621
20
9.37788
30
6.32
0
VERTEX
10
7.52096
20
9.36989
30
6.32
0
VERTEX
10
7.47833
20
9.35923
30
6.32
0
VERTEX
10
7.45702
20
9.35391
30
6.32
0
VERTEX
10
7.44636
20
9.35391
30
6.32
0
VERTEX
10
7.4357
20
9.34591
30
6.32
0
VERTEX
10
7.43304
20
9.34059
30
6.32
0
VERTEX
10
7.43837
20
9.32993
30
6.32
0
VERTEX
10
7.44103
20
9.3246
30
6.32
0
VERTEX
10
7.43037
20
9.31927
30
6.32
0
VERTEX
10
7.42771
20
9.30862
30
6.32
0
VERTEX
10
7.41972
20
9.30062
30
6.32
0
VERTEX
10
7.41705
20
9.28997
30
6.32
0
VERTEX
10
7.40906
20
9.27931
30
6.32
0
VERTEX
10
7.40906
20
9.26865
30
6.32
0
VERTEX
10
7.40107
20
9.26066
30
6.32
0
VERTEX
10
7.3984
20
9.25533
30
6.32
0
VERTEX
10
7.37709
20
9.24734
30
6.32
0
VERTEX
10
7.36643
20
9.24468
30
6.32
0
VERTEX
10
7.36111
20
9.23935
30
6.32
0
VERTEX
10
7.35578
20
9.23935
30
6.32
0
VERTEX
10
7.35045
20
9.23402
30
6.32
0
VERTEX
10
7.2652
20
9.23135
30
6.32
0
VERTEX
10
7.22257
20
9.22869
30
6.32
0
VERTEX
10
7.20126
20
9.2207
30
6.32
0
VERTEX
10
7.1906
20
9.21537
30
6.32
0
VERTEX
10
7.17195
20
9.19406
30
6.32
0
VERTEX
10
7.17195
20
9.18606
30
6.32
0
SEQEND
0
POLYLINE
62
224
66
1
70
1
3
mitochondrion
0
VERTEX
10
9.10871
20
9.473
30
6.32
0
VERTEX
10
9.1101
20
9.45075
30
6.32
0
VERTEX
10
9.11149
20
9.44519
30
6.32
0
VERTEX
10
9.11427
20
9.44241
30
6.32
0
VERTEX
10
9.12122
20
9.42294
30
6.32
0
VERTEX
10
9.12678
20
9.41738
30
6.32
0
VERTEX
10
9.13791
20
9.41043
30
6.32
0
VERTEX
10
9.14347
20
9.40626
30
6.32
0
VERTEX
10
9.14625
20
9.40348
30
6.32
0
VERTEX
10
9.15737
20
9.4007
30
6.32
0
VERTEX
10
9.16849
20
9.39374
30
6.32
0
VERTEX
10
9.19074
20
9.39235
30
6.32
0
VERTEX
10
9.21299
20
9.39374
30
6.32
0
VERTEX
10
9.22411
20
9.39374
30
6.32
0
VERTEX
10
9.22689
20
9.39374
30
6.32
0
VERTEX
10
9.22828
20
9.39653
30
6.32
0
VERTEX
10
9.23385
20
9.39792
30
6.32
0
VERTEX
10
9.2547
20
9.41182
30
6.32
0
VERTEX
10
9.26304
20
9.41877
30
6.32
0
VERTEX
10
9.26861
20
9.42016
30
6.32
0
VERTEX
10
9.27695
20
9.42851
30
6.32
0
VERTEX
10
9.2839
20
9.43963
30
6.32
0
VERTEX
10
9.29363
20
9.44936
30
6.32
0
VERTEX
10
9.29502
20
9.45492
30
6.32
0
VERTEX
10
9.29502
20
9.4577
30
6.32
0
VERTEX
10
9.2992
20
9.46049
30
6.32
0
VERTEX
10
9.2978
20
9.46188
30
6.32
0
VERTEX
10
9.30615
20
9.473
30
6.32
0
VERTEX
10
9.30893
20
9.47856
30
6.32
0
VERTEX
10
9.31171
20
9.47995
30
6.32
0
VERTEX
10
9.30754
20
9.52444
30
6.32
0
VERTEX
10
9.30615
20
9.53001
30
6.32
0
VERTEX
10
9.2992
20
9.54113
30
6.32
0
VERTEX
10
9.28946
20
9.54808
30
6.32
0
VERTEX
10
9.28529
20
9.55364
30
6.32
0
VERTEX
10
9.27973
20
9.55642
30
6.32
0
VERTEX
10
9.27695
20
9.55921
30
6.32
0
VERTEX
10
9.26582
20
9.56338
30
6.32
0
VERTEX
10
9.24497
20
9.57728
30
6.32
0
VERTEX
10
9.23385
20
9.58006
30
6.32
0
VERTEX
10
9.22828
20
9.58284
30
6.32
0
VERTEX
10
9.20604
20
9.58284
30
6.32
0
VERTEX
10
9.19491
20
9.58145
30
6.32
0
VERTEX
10
9.18935
20
9.57867
30
6.32
0
VERTEX
10
9.17823
20
9.57867
30
6.32
0
VERTEX
10
9.1671
20
9.57589
30
6.32
0
VERTEX
10
9.14625
20
9.5606
30
6.32
0
VERTEX
10
9.14347
20
9.55503
30
6.32
0
VERTEX
10
9.14347
20
9.55225
30
6.32
0
VERTEX
10
9.13234
20
9.54391
30
6.32
0
VERTEX
10
9.12678
20
9.53835
30
6.32
0
VERTEX
10
9.11288
20
9.51749
30
6.32
0
VERTEX
10
9.1101
20
9.50637
30
6.32
0
VERTEX
10
9.10871
20
9.48412
30
6.32
0
VERTEX
10
9.10871
20
9.47439
30
6.32
0
SEQEND
0
POLYLINE
62
227
66
1
70
1
3
endoplasmic_reticulum
0
VERTEX
10
9.34201
20
9.67104
30
6.32
0
VERTEX
10
9.3438
20
9.66746
30
6.32
0
VERTEX
10
9.35815
20
9.66297
30
6.32
0
VERTEX
10
9.37249
20
9.66208
30
6.32
0
VERTEX
10
9.37967
20
9.66118
30
6.32
0
VERTEX
10
9.38236
20
9.65759
30
6.32
0
VERTEX
10
9.38953
20
9.65491
30
6.32
0
VERTEX
10
9.3958
20
9.65042
30
6.32
0
VERTEX
10
9.40298
20
9.65042
30
6.32
0
VERTEX
10
9.40477
20
9.65222
30
6.32
0
VERTEX
10
9.40835
20
9.65222
30
6.32
0
VERTEX
10
9.41284
20
9.65759
30
6.32
0
VERTEX
10
9.41373
20
9.66118
30
6.32
0
VERTEX
10
9.41553
20
9.66208
30
6.32
0
VERTEX
10
9.41642
20
9.67642
30
6.32
0
VERTEX
10
9.41104
20
9.69077
30
6.32
0
VERTEX
10
9.40656
20
9.69794
30
6.32
0
VERTEX
10
9.40298
20
9.69973
30
6.32
0
VERTEX
10
9.37429
20
9.70153
30
6.32
0
VERTEX
10
9.36711
20
9.70153
30
6.32
0
VERTEX
10
9.36532
20
9.70153
30
6.32
0
VERTEX
10
9.36442
20
9.69973
30
6.32
0
VERTEX
10
9.36084
20
9.69884
30
6.32
0
VERTEX
10
9.35367
20
9.69435
30
6.32
0
VERTEX
10
9.35008
20
9.69166
30
6.32
0
VERTEX
10
9.34649
20
9.68449
30
6.32
0
VERTEX
10
9.3438
20
9.6809
30
6.32
0
VERTEX
10
9.34201
20
9.68001
30
6.32
0
VERTEX
10
9.34201
20
9.67284
30
6.32
0
VERTEX
10
9.34201
20
9.67194
30
6.32
0
SEQEND
0
POLYLINE
62
227
66
1
70
1
3
endoplasmic_reticulum
0
VERTEX
10
9.29898
20
9.60918
30
6.32
0
VERTEX
10
9.30167
20
9.60201
30
6.32
0
VERTEX
10
9.30436
20
9.59842
30
6.32
0
VERTEX
10
9.30436
20
9.59125
30
6.32
0
VERTEX
10
9.30436
20
9.58946
30
6.32
0
VERTEX
10
9.30705
20
9.58766
30
6.32
0
VERTEX
10
9.30615
20
9.58677
30
6.32
0
VERTEX
10
9.30794
20
9.58587
30
6.32
0
VERTEX
10
9.30884
20
9.5787
30
6.32
0
VERTEX
10
9.31153
20
9.57511
30
6.32
0
VERTEX
10
9.31242
20
9.57153
30
6.32
0
VERTEX
10
9.31242
20
9.56973
30
6.32
0
VERTEX
10
9.31422
20
9.56794
30
6.32
0
VERTEX
10
9.31691
20
9.56077
30
6.32
0
VERTEX
10
9.32408
20
9.55987
30
6.32
0
VERTEX
10
9.32767
20
9.55987
30
6.32
0
VERTEX
10
9.33125
20
9.56256
30
6.32
0
VERTEX
10
9.33394
20
9.56973
30
6.32
0
VERTEX
10
9.33305
20
9.58408
30
6.32
0
VERTEX
10
9.33036
20
9.59125
30
6.32
0
VERTEX
10
9.32856
20
9.59304
30
6.32
0
VERTEX
10
9.32677
20
9.60022
30
6.32
0
VERTEX
10
9.32229
20
9.6056
30
6.32
0
VERTEX
10
9.32049
20
9.60918
30
6.32
0
VERTEX
10
9.3187
20
9.60918
30
6.32
0
VERTEX
10
9.30615
20
9.61994
30
6.32
0
VERTEX
10
9.30346
20
9.62173
30
6.32
0
VERTEX
10
9.30077
20
9.61456
30
6.32
0
VERTEX
10
9.29898
20
9.61097
30
6.32
0
VERTEX
10
9.29898
20
9.61008
30
6.32
0
SEQEND
0
POLYLINE
62
227
66
1
70
1
3
endoplasmic_reticulum
0
VERTEX
10
8.96815
20
9.45766
30
6.32
0
VERTEX
10
8.97263
20
9.45049
30
6.32
0
VERTEX
10
8.97532
20
9.4478
30
6.32
0
VERTEX
10
8.97622
20
9.44422
30
6.32
0
VERTEX
10
8.98877
20
9.43346
30
6.32
0
VERTEX
10
8.99594
20
9.42898
30
6.32
0
VERTEX
10
8.99953
20
9.42629
30
6.32
0
VERTEX
10
9.01387
20
9.4218
30
6.32
0
VERTEX
10
9.02105
20
9.42091
30
6.32
0
VERTEX
10
9.02463
20
9.4227
30
6.32
0
VERTEX
10
9.03898
20
9.42449
30
6.32
0
VERTEX
10
9.04256
20
9.42449
30
6.32
0
VERTEX
10
9.04525
20
9.42718
30
6.32
0
VERTEX
10
9.04884
20
9.42808
30
6.32
0
VERTEX
10
9.05063
20
9.42808
30
6.32
0
VERTEX
10
9.05243
20
9.42987
30
6.32
0
VERTEX
10
9.05601
20
9.42987
30
6.32
0
VERTEX
10
9.06229
20
9.43435
30
6.32
0
VERTEX
10
9.06498
20
9.43704
30
6.32
0
VERTEX
10
9.06767
20
9.44422
30
6.32
0
VERTEX
10
9.06767
20
9.4478
30
6.32
0
VERTEX
10
9.06408
20
9.45498
30
6.32
0
VERTEX
10
9.05781
20
9.46215
30
6.32
0
VERTEX
10
9.05422
20
9.46394
30
6.32
0
VERTEX
10
9.04794
20
9.47111
30
6.32
0
VERTEX
10
9.04436
20
9.4738
30
6.32
0
VERTEX
10
9.04077
20
9.4747
30
6.32
0
VERTEX
10
9.0336
20
9.48008
30
6.32
0
VERTEX
10
9.03181
20
9.48187
30
6.32
0
VERTEX
10
9.00312
20
9.48456
30
6.32
0
VERTEX
10
8.98877
20
9.48277
30
6.32
0
VERTEX
10
8.98519
20
9.48277
30
6.32
0
VERTEX
10
8.98339
20
9.48277
30
6.32
0
VERTEX
10
8.97622
20
9.47739
30
6.32
0
VERTEX
10
8.97084
20
9.47201
30
6.32
0
VERTEX
10
8.96815
20
9.46932
30
6.32
0
VERTEX
10
8.96815
20
9.46215
30
6.32
0
VERTEX
10
8.96815
20
9.45856
30
6.32
0
SEQEND
0
POLYLINE
62
227
66
1
70
1
3
endoplasmic_reticulum
0
VERTEX
10
7.52336
20
9.14563
30
6.32
0
VERTEX
10
7.52527
20
9.13797
30
6.32
0
VERTEX
10
7.5291
20
9.13413
30
6.32
0
VERTEX
10
7.54442
20
9.13413
30
6.32
0
VERTEX
10
7.55783
20
9.14371
30
6.32
0
VERTEX
10
7.55975
20
9.15137
30
6.32
0
VERTEX
10
7.55783
20
9.15903
30
6.32
0
VERTEX
10
7.55017
20
9.16478
30
6.32
0
VERTEX
10
7.54251
20
9.16478
30
6.32
0
VERTEX
10
7.53868
20
9.16478
30
6.32
0
VERTEX
10
7.52527
20
9.15329
30
6.32
0
VERTEX
10
7.52336
20
9.14754
30
6.32
0
SEQEND
0
POLYLINE
62
31
66
1
70
1
3
contour
0
VERTEX
10
8.45409
20
9.11844
30
6.32
0
VERTEX
10
8.45744
20
9.11509
30
6.32
0
VERTEX
10
8.45911
20
9.08832
30
6.32
0
VERTEX
10
8.46079
20
9.08162
30
6.32
0
VERTEX
10
8.46748
20
9.0766
30
6.32
0
VERTEX
10
8.47083
20
9.0766
30
6.32
0
VERTEX
10
8.47417
20
9.07325
30
6.32
0
VERTEX
10
8.47752
20
9.07325
30
6.32
0
VERTEX
10
8.47919
20
9.06991
30
6.32
0
VERTEX
10
8.49258
20
9.06489
30
6.32
0
VERTEX
10
8.49593
20
9.06154
30
6.32
0
VERTEX
10
8.50931
20
9.05819
30
6.32
0
VERTEX
10
8.51433
20
9.0515
30
6.32
0
VERTEX
10
8.51768
20
9.04815
30
6.32
0
VERTEX
10
8.52437
20
9.04815
30
6.32
0
VERTEX
10
8.52772
20
9.04815
30
6.32
0
VERTEX
10
8.53776
20
9.06154
30
6.32
0
VERTEX
10
8.53944
20
9.06489
30
6.32
0
VERTEX
10
8.54278
20
9.06489
30
6.32
0
VERTEX
10
8.5478
20
9.06991
30
6.32
0
VERTEX
10
8.5478
20
9.07325
30
6.32
0
VERTEX
10
8.55952
20
9.08664
30
6.32
0
VERTEX
10
8.56119
20
9.08999
30
6.32
0
VERTEX
10
8.56454
20
9.08999
30
6.32
0
VERTEX
10
8.56788
20
9.09668
30
6.32
0
VERTEX
10
8.5796
20
9.1084
30
6.32
0
VERTEX
10
8.58294
20
9.1084
30
6.32
0
VERTEX
10
8.58964
20
9.11509
30
6.32
0
VERTEX
10
8.59298
20
9.11844
30
6.32
0
VERTEX
10
8.6047
20
9.12346
30
6.32
0
VERTEX
10
8.61139
20
9.12513
30
6.32
0
VERTEX
10
8.61474
20
9.12513
30
6.32
0
VERTEX
10
8.61641
20
9.13852
30
6.32
0
VERTEX
10
8.61307
20
9.15191
30
6.32
0
VERTEX
10
8.61307
20
9.15525
30
6.32
0
VERTEX
10
8.60637
20
9.16195
30
6.32
0
VERTEX
10
8.59298
20
9.16027
30
6.32
0
VERTEX
10
8.58796
20
9.16697
30
6.32
0
VERTEX
10
8.58462
20
9.16864
30
6.32
0
VERTEX
10
8.58294
20
9.18203
30
6.32
0
VERTEX
10
8.58294
20
9.18537
30
6.32
0
VERTEX
10
8.57792
20
9.19207
30
6.32
0
VERTEX
10
8.57625
20
9.19876
30
6.32
0
VERTEX
10
8.57458
20
9.20211
30
6.32
0
VERTEX
10
8.5478
20
9.19039
30
6.32
0
VERTEX
10
8.53442
20
9.19039
30
6.32
0
VERTEX
10
8.52103
20
9.18705
30
6.32
0
VERTEX
10
8.51433
20
9.18872
30
6.32
0
VERTEX
10
8.50764
20
9.18705
30
6.32
0
VERTEX
10
8.50429
20
9.1837
30
6.32
0
VERTEX
10
8.4976
20
9.18203
30
6.32
0
VERTEX
10
8.49425
20
9.18203
30
6.32
0
VERTEX
10
8.48923
20
9.17533
30
6.32
0
VERTEX
10
8.46246
20
9.16529
30
6.32
0
VERTEX
10
8.45911
20
9.16362
30
6.32
0
VERTEX
10
8.45409
20
9.13684
30
6.32
0
VERTEX
10
8.45409
20
9.12346
30
6.32
0
VERTEX
10
8.45409
20
9.12011
30
6.32
0
SEQEND
0
ENDSEC
0
EOF
