0
SECTION
2
ENTITIES
0
POLYLINE
62
31
66
1
70
1
3
contour
0
VERTEX
10
8.91828
20
9.32628
30
6
0
VERTEX
10
8.9205
20
9.31741
30
6
0
VERTEX
10
8.9338
20
9.30188
30
6
0
VERTEX
10
8.95154
20
9.2908
30
6
0
VERTEX
10
8.95597
20
9.28636
30
6
0
VERTEX
10
8.99145
20
9.27971
30
6
0
VERTEX
10
9.00919
20
9.27306
30
6
0
VERTEX
10
9.01806
20
9.26862
30
6
0
VERTEX
10
9.0225
20
9.26862
30
6
0
VERTEX
10
9.02693
20
9.26419
30
6
0
VERTEX
10
9.0358
20
9.26419
30
6
0
VERTEX
10
9.04245
20
9.25754
30
6
0
VERTEX
10
9.05132
20
9.25532
30
6
0
VERTEX
10
9.06906
20
9.24423
30
6
0
VERTEX
10
9.10454
20
9.22871
30
6
0
VERTEX
10
9.14002
20
9.22206
30
6
0
VERTEX
10
9.17549
20
9.21984
30
6
0
VERTEX
10
9.18436
20
9.21541
30
6
0
VERTEX
10
9.25532
20
9.21319
30
6
0
VERTEX
10
9.2908
20
9.21319
30
6
0
VERTEX
10
9.30854
20
9.21319
30
6
0
VERTEX
10
9.34401
20
9.22206
30
6
0
VERTEX
10
9.34845
20
9.22649
30
6
0
VERTEX
10
9.36619
20
9.22649
30
6
0
VERTEX
10
9.37506
20
9.23093
30
6
0
VERTEX
10
9.40388
20
9.26419
30
6
0
VERTEX
10
9.41497
20
9.28193
30
6
0
VERTEX
10
9.41719
20
9.31741
30
6
0
VERTEX
10
9.41719
20
9.33515
30
6
0
VERTEX
10
9.41719
20
9.34401
30
6
0
VERTEX
10
9.41275
20
9.35288
30
6
0
VERTEX
10
9.41275
20
9.37062
30
6
0
VERTEX
10
9.41275
20
9.37949
30
6
0
VERTEX
10
9.4061
20
9.39723
30
6
0
VERTEX
10
9.4061
20
9.41497
30
6
0
VERTEX
10
9.39945
20
9.45045
30
6
0
VERTEX
10
9.38836
20
9.46597
30
6
0
VERTEX
10
9.38171
20
9.47484
30
6
0
VERTEX
10
9.38171
20
9.47927
30
6
0
VERTEX
10
9.37062
20
9.49036
30
6
0
VERTEX
10
9.36175
20
9.49258
30
6
0
VERTEX
10
9.35288
20
9.49923
30
6
0
VERTEX
10
9.34401
20
9.50145
30
6
0
VERTEX
10
9.32628
20
9.51254
30
6
0
VERTEX
10
9.31741
20
9.51475
30
6
0
VERTEX
10
9.29967
20
9.5081
30
6
0
VERTEX
10
9.15776
20
9.50367
30
6
0
VERTEX
10
9.12228
20
9.50367
30
6
0
VERTEX
10
9.0868
20
9.49923
30
6
0
VERTEX
10
9.07793
20
9.49701
30
6
0
VERTEX
10
9.06906
20
9.49036
30
6
0
VERTEX
10
9.05132
20
9.48814
30
6
0
VERTEX
10
9.0358
20
9.47262
30
6
0
VERTEX
10
9.02693
20
9.46819
30
6
0
VERTEX
10
8.97593
20
9.40832
30
6
0
VERTEX
10
8.94267
20
9.37949
30
6
0
VERTEX
10
8.93158
20
9.36397
30
6
0
VERTEX
10
8.92493
20
9.3551
30
6
0
VERTEX
10
8.9205
20
9.35067
30
6
0
VERTEX
10
8.91828
20
9.33293
30
6
0
VERTEX
10
8.91828
20
9.32849
30
6
0
SEQEND
0
POLYLINE
62
31
66
1
70
1
3
contour
0
VERTEX
10
7.42505
20
9.21803
30
6
0
VERTEX
10
7.43837
20
9.19672
30
6
0
VERTEX
10
7.44902
20
9.18873
30
6
0
VERTEX
10
7.45169
20
9.1834
30
6
0
VERTEX
10
7.45702
20
9.1834
30
6
0
VERTEX
10
7.46767
20
9.17541
30
6
0
VERTEX
10
7.48899
20
9.17008
30
6
0
VERTEX
10
7.49431
20
9.16475
30
6
0
VERTEX
10
7.53694
20
9.15143
30
6
0
VERTEX
10
7.55825
20
9.14344
30
6
0
VERTEX
10
7.56891
20
9.14344
30
6
0
VERTEX
10
7.58756
20
9.13012
30
6
0
VERTEX
10
7.63019
20
9.11413
30
6
0
VERTEX
10
7.6515
20
9.1088
30
6
0
VERTEX
10
7.69413
20
9.09015
30
6
0
VERTEX
10
7.70212
20
9.08216
30
6
0
VERTEX
10
7.71278
20
9.08216
30
6
0
VERTEX
10
7.7554
20
9.06351
30
6
0
VERTEX
10
7.79803
20
9.06618
30
6
0
VERTEX
10
7.83266
20
9.10347
30
6
0
VERTEX
10
7.83533
20
9.11413
30
6
0
VERTEX
10
7.84865
20
9.13544
30
6
0
VERTEX
10
7.84865
20
9.14077
30
6
0
VERTEX
10
7.86996
20
9.15409
30
6
0
VERTEX
10
7.88328
20
9.17274
30
6
0
VERTEX
10
7.89128
20
9.18074
30
6
0
VERTEX
10
7.9046
20
9.22336
30
6
0
VERTEX
10
7.9046
20
9.22869
30
6
0
VERTEX
10
7.90993
20
9.23402
30
6
0
VERTEX
10
7.90993
20
9.23935
30
6
0
VERTEX
10
7.92591
20
9.258
30
6
0
VERTEX
10
7.93657
20
9.26599
30
6
0
VERTEX
10
7.93923
20
9.27665
30
6
0
VERTEX
10
7.94722
20
9.2873
30
6
0
VERTEX
10
7.94989
20
9.29796
30
6
0
VERTEX
10
7.95522
20
9.30062
30
6
0
VERTEX
10
7.95255
20
9.34325
30
6
0
VERTEX
10
7.94456
20
9.36456
30
6
0
VERTEX
10
7.92591
20
9.38321
30
6
0
VERTEX
10
7.92591
20
9.38854
30
6
0
VERTEX
10
7.90993
20
9.40719
30
6
0
VERTEX
10
7.8673
20
9.42317
30
6
0
VERTEX
10
7.78205
20
9.42584
30
6
0
VERTEX
10
7.73942
20
9.43117
30
6
0
VERTEX
10
7.65416
20
9.43117
30
6
0
VERTEX
10
7.61154
20
9.42051
30
6
0
VERTEX
10
7.56891
20
9.40186
30
6
0
VERTEX
10
7.55825
20
9.3992
30
6
0
VERTEX
10
7.5476
20
9.3912
30
6
0
VERTEX
10
7.53694
20
9.3912
30
6
0
VERTEX
10
7.52628
20
9.38321
30
6
0
VERTEX
10
7.50497
20
9.37788
30
6
0
VERTEX
10
7.48366
20
9.36723
30
6
0
VERTEX
10
7.46501
20
9.34858
30
6
0
VERTEX
10
7.44636
20
9.30862
30
6
0
VERTEX
10
7.4357
20
9.2873
30
6
0
VERTEX
10
7.42771
20
9.27665
30
6
0
VERTEX
10
7.42505
20
9.23402
30
6
0
VERTEX
10
7.42505
20
9.22336
30
6
0
VERTEX
10
7.42505
20
9.2207
30
6
0
SEQEND
0
POLYLINE
62
224
66
1
70
1
3
mitochondrion
0
VERTEX
10
9.14486
20
9.31727
30
6
0
VERTEX
10
9.15598
20
9.3131
30
6
0
VERTEX
10
9.17406
20
9.29641
30
6
0
VERTEX
10
9.1963
20
9.28529
30
6
0
VERTEX
10
9.20604
20
9.28112
30
6
0
VERTEX
10
9.2116
20
9.27834
30
6
0
VERTEX
10
9.23385
20
9.27973
30
6
0
VERTEX
10
9.25609
20
9.2839
30
6
0
VERTEX
10
9.26722
20
9.28529
30
6
0
VERTEX
10
9.27278
20
9.28529
30
6
0
VERTEX
10
9.27556
20
9.28807
30
6
0
VERTEX
10
9.28112
20
9.28807
30
6
0
VERTEX
10
9.2839
20
9.28807
30
6
0
VERTEX
10
9.28668
20
9.29085
30
6
0
VERTEX
10
9.28807
20
9.33535
30
6
0
VERTEX
10
9.29085
20
9.33813
30
6
0
VERTEX
10
9.29224
20
9.34925
30
6
0
VERTEX
10
9.29502
20
9.35481
30
6
0
VERTEX
10
9.29502
20
9.35759
30
6
0
VERTEX
10
9.30059
20
9.36316
30
6
0
VERTEX
10
9.30615
20
9.37428
30
6
0
VERTEX
10
9.30754
20
9.37984
30
6
0
VERTEX
10
9.31171
20
9.38401
30
6
0
VERTEX
10
9.31032
20
9.40626
30
6
0
VERTEX
10
9.30615
20
9.41599
30
6
0
VERTEX
10
9.30198
20
9.42155
30
6
0
VERTEX
10
9.30198
20
9.42711
30
6
0
VERTEX
10
9.29363
20
9.43407
30
6
0
VERTEX
10
9.29363
20
9.43685
30
6
0
VERTEX
10
9.28807
20
9.43963
30
6
0
VERTEX
10
9.24358
20
9.43963
30
6
0
VERTEX
10
9.22133
20
9.43963
30
6
0
VERTEX
10
9.21021
20
9.43963
30
6
0
VERTEX
10
9.18935
20
9.43268
30
6
0
VERTEX
10
9.18101
20
9.42294
30
6
0
VERTEX
10
9.17684
20
9.42016
30
6
0
VERTEX
10
9.17406
20
9.42016
30
6
0
VERTEX
10
9.16432
20
9.41043
30
6
0
VERTEX
10
9.15737
20
9.39931
30
6
0
VERTEX
10
9.15181
20
9.39374
30
6
0
VERTEX
10
9.14764
20
9.38262
30
6
0
VERTEX
10
9.14486
20
9.33813
30
6
0
VERTEX
10
9.14486
20
9.327
30
6
0
VERTEX
10
9.14486
20
9.32144
30
6
0
VERTEX
10
9.14486
20
9.31866
30
6
0
SEQEND
0
POLYLINE
62
227
66
1
70
1
3
endoplasmic_reticulum
0
VERTEX
10
9.12594
20
9.42898
30
6
0
VERTEX
10
9.12684
20
9.42539
30
6
0
VERTEX
10
9.12684
20
9.4236
30
6
0
VERTEX
10
9.13401
20
9.4227
30
6
0
VERTEX
10
9.1376
20
9.4227
30
6
0
VERTEX
10
9.14477
20
9.42539
30
6
0
VERTEX
10
9.14746
20
9.42808
30
6
0
VERTEX
10
9.14656
20
9.42987
30
6
0
VERTEX
10
9.15105
20
9.43435
30
6
0
VERTEX
10
9.15284
20
9.43435
30
6
0
VERTEX
10
9.15912
20
9.44063
30
6
0
VERTEX
10
9.16629
20
9.44242
30
6
0
VERTEX
10
9.17346
20
9.4478
30
6
0
VERTEX
10
9.18063
20
9.4496
30
6
0
VERTEX
10
9.18422
20
9.45139
30
6
0
VERTEX
10
9.19856
20
9.45318
30
6
0
VERTEX
10
9.20215
20
9.45318
30
6
0
VERTEX
10
9.20484
20
9.45587
30
6
0
VERTEX
10
9.20663
20
9.45677
30
6
0
VERTEX
10
9.20574
20
9.46394
30
6
0
VERTEX
10
9.20305
20
9.46753
30
6
0
VERTEX
10
9.1887
20
9.46842
30
6
0
VERTEX
10
9.17436
20
9.46663
30
6
0
VERTEX
10
9.17077
20
9.46573
30
6
0
VERTEX
10
9.16898
20
9.46394
30
6
0
VERTEX
10
9.1618
20
9.46125
30
6
0
VERTEX
10
9.16001
20
9.45946
30
6
0
VERTEX
10
9.13132
20
9.4478
30
6
0
VERTEX
10
9.12863
20
9.44601
30
6
0
VERTEX
10
9.12594
20
9.43884
30
6
0
VERTEX
10
9.12594
20
9.43167
30
6
0
VERTEX
10
9.12594
20
9.42987
30
6
0
SEQEND
0
POLYLINE
62
227
66
1
70
1
3
endoplasmic_reticulum
0
VERTEX
10
9.08201
20
9.35098
30
6
0
VERTEX
10
9.08918
20
9.3447
30
6
0
VERTEX
10
9.10353
20
9.3438
30
6
0
VERTEX
10
9.1107
20
9.3447
30
6
0
VERTEX
10
9.11249
20
9.34649
30
6
0
VERTEX
10
9.11249
20
9.35008
30
6
0
VERTEX
10
9.11608
20
9.35725
30
6
0
VERTEX
10
9.11339
20
9.3716
30
6
0
VERTEX
10
9.10174
20
9.38415
30
6
0
VERTEX
10
9.09456
20
9.38146
30
6
0
VERTEX
10
9.08829
20
9.37698
30
6
0
VERTEX
10
9.08381
20
9.3698
30
6
0
VERTEX
10
9.08201
20
9.36263
30
6
0
VERTEX
10
9.08201
20
9.35546
30
6
0
VERTEX
10
9.08201
20
9.35187
30
6
0
SEQEND
0
POLYLINE
62
236
66
1
70
1
3
postsynaptic_density
0
VERTEX
10
7.41957
20
9.09871
30
6
0
VERTEX
10
7.52747
20
9.01779
30
6
0
VERTEX
10
7.54095
20
9.00767
30
6
0
VERTEX
10
7.55444
20
9.00598
30
6
0
VERTEX
10
7.56793
20
9.00093
30
6
0
VERTEX
10
7.57467
20
9.00093
30
6
0
VERTEX
10
7.57804
20
8.99756
30
6
0
VERTEX
10
7.59153
20
8.99756
30
6
0
VERTEX
10
7.60502
20
8.99418
30
6
0
VERTEX
10
7.65896
20
8.99587
30
6
0
VERTEX
10
7.67245
20
8.99756
30
6
0
VERTEX
10
7.68594
20
9.00261
30
6
0
VERTEX
10
7.69268
20
9.0043
30
6
0
VERTEX
10
7.69605
20
9.0043
30
6
0
VERTEX
10
7.70954
20
9.01273
30
6
0
VERTEX
10
7.71628
20
9.0161
30
6
0
VERTEX
10
7.71966
20
9.01947
30
6
0
VERTEX
10
7.71966
20
9.02284
30
6
0
VERTEX
10
7.73146
20
9.03464
30
6
0
VERTEX
10
7.73314
20
9.04139
30
6
0
VERTEX
10
7.74157
20
9.05488
30
6
0
VERTEX
10
7.74494
20
9.06836
30
6
0
VERTEX
10
7.74832
20
9.07511
30
6
0
VERTEX
10
7.74832
20
9.08185
30
6
0
VERTEX
10
7.75169
20
9.08522
30
6
0
VERTEX
10
7.75675
20
9.1122
30
6
0
VERTEX
10
7.76012
20
9.11894
30
6
0
VERTEX
10
7.7618
20
9.14591
30
6
0
VERTEX
10
7.75843
20
9.17289
30
6
0
VERTEX
10
7.75675
20
9.18637
30
6
0
VERTEX
10
7.75675
20
9.18975
30
6
0
VERTEX
10
7.75337
20
9.19312
30
6
0
VERTEX
10
7.74494
20
9.22009
30
6
0
VERTEX
10
7.73314
20
9.23189
30
6
0
VERTEX
10
7.72977
20
9.23864
30
6
0
VERTEX
10
7.7264
20
9.23864
30
6
0
VERTEX
10
7.71966
20
9.24369
30
6
0
VERTEX
10
7.71291
20
9.24369
30
6
0
VERTEX
10
7.70617
20
9.24707
30
6
0
VERTEX
10
7.69268
20
9.24875
30
6
0
VERTEX
10
7.68594
20
9.25044
30
6
0
VERTEX
10
7.68257
20
9.2555
30
6
0
VERTEX
10
7.66908
20
9.26055
30
6
0
VERTEX
10
7.66234
20
9.26224
30
6
0
VERTEX
10
7.65896
20
9.26561
30
6
0
VERTEX
10
7.64548
20
9.27067
30
6
0
VERTEX
10
7.6185
20
9.26898
30
6
0
VERTEX
10
7.61176
20
9.26898
30
6
0
VERTEX
10
7.59827
20
9.26224
30
6
0
VERTEX
10
7.59153
20
9.26224
30
6
0
VERTEX
10
7.58816
20
9.26224
30
6
0
VERTEX
10
7.58141
20
9.25718
30
6
0
VERTEX
10
7.56793
20
9.25381
30
6
0
VERTEX
10
7.56455
20
9.25381
30
6
0
VERTEX
10
7.56118
20
9.25044
30
6
0
VERTEX
10
7.53421
20
9.24032
30
6
0
VERTEX
10
7.53084
20
9.24032
30
6
0
VERTEX
10
7.52747
20
9.23695
30
6
0
VERTEX
10
7.51398
20
9.23189
30
6
0
VERTEX
10
7.50218
20
9.22346
30
6
0
VERTEX
10
7.49206
20
9.21166
30
6
0
VERTEX
10
7.48532
20
9.20492
30
6
0
VERTEX
10
7.47689
20
9.1948
30
6
0
VERTEX
10
7.4634
20
9.19143
30
6
0
VERTEX
10
7.45666
20
9.18637
30
6
0
VERTEX
10
7.44991
20
9.18469
30
6
0
VERTEX
10
7.43811
20
9.17289
30
6
0
VERTEX
10
7.43137
20
9.1594
30
6
0
VERTEX
10
7.428
20
9.13243
30
6
0
VERTEX
10
7.42463
20
9.12905
30
6
0
VERTEX
10
7.42463
20
9.11557
30
6
0
VERTEX
10
7.41957
20
9.10208
30
6
0
VERTEX
10
7.41957
20
9.10039
30
6
0
SEQEND
0
ENDSEC
0
EOF
