0
SECTION
2
ENTITIES
0
POLYLINE
62
31
66
1
70
1
3
contour
0
VERTEX
10
7.59776
20
10.2445
30
8.52
0
VERTEX
10
7.61422
20
10.1918
30
8.52
0
VERTEX
10
7.61752
20
10.1786
30
8.52
0
VERTEX
10
7.66031
20
10.1293
30
8.52
0
VERTEX
10
7.68006
20
10.1062
30
8.52
0
VERTEX
10
7.69323
20
10.0996
30
8.52
0
VERTEX
10
7.7064
20
10.0865
30
8.52
0
VERTEX
10
7.71298
20
10.0766
30
8.52
0
VERTEX
10
7.76236
20
10.0338
30
8.52
0
VERTEX
10
7.79857
20
9.98112
30
8.52
0
VERTEX
10
7.84795
20
9.93174
30
8.52
0
VERTEX
10
7.87429
20
9.92186
30
8.52
0
VERTEX
10
7.97963
20
9.91857
30
8.52
0
VERTEX
10
8.0323
20
9.91857
30
8.52
0
VERTEX
10
8.05863
20
9.91857
30
8.52
0
VERTEX
10
8.1113
20
9.93503
30
8.52
0
VERTEX
10
8.12447
20
9.93503
30
8.52
0
VERTEX
10
8.15081
20
9.9482
30
8.52
0
VERTEX
10
8.16398
20
9.95149
30
8.52
0
VERTEX
10
8.19031
20
9.96795
30
8.52
0
VERTEX
10
8.21665
20
9.97453
30
8.52
0
VERTEX
10
8.22981
20
9.98112
30
8.52
0
VERTEX
10
8.23969
20
10.0075
30
8.52
0
VERTEX
10
8.24627
20
10.0206
30
8.52
0
VERTEX
10
8.24627
20
10.0338
30
8.52
0
VERTEX
10
8.25944
20
10.0601
30
8.52
0
VERTEX
10
8.26603
20
10.0865
30
8.52
0
VERTEX
10
8.29565
20
10.1391
30
8.52
0
VERTEX
10
8.30553
20
10.1523
30
8.52
0
VERTEX
10
8.31211
20
10.1523
30
8.52
0
VERTEX
10
8.32199
20
10.1786
30
8.52
0
VERTEX
10
8.32857
20
10.1819
30
8.52
0
VERTEX
10
8.33516
20
10.2083
30
8.52
0
VERTEX
10
8.34174
20
10.2148
30
8.52
0
VERTEX
10
8.36478
20
10.2675
30
8.52
0
VERTEX
10
8.37466
20
10.2807
30
8.52
0
VERTEX
10
8.37795
20
10.2939
30
8.52
0
VERTEX
10
8.38783
20
10.307
30
8.52
0
VERTEX
10
8.38783
20
10.3136
30
8.52
0
VERTEX
10
8.3977
20
10.3235
30
8.52
0
VERTEX
10
8.40429
20
10.3498
30
8.52
0
VERTEX
10
8.39441
20
10.3761
30
8.52
0
VERTEX
10
8.39112
20
10.4025
30
8.52
0
VERTEX
10
8.37137
20
10.4255
30
8.52
0
VERTEX
10
8.36149
20
10.4354
30
8.52
0
VERTEX
10
8.33516
20
10.4387
30
8.52
0
VERTEX
10
8.30882
20
10.4552
30
8.52
0
VERTEX
10
8.29565
20
10.4584
30
8.52
0
VERTEX
10
8.28248
20
10.4683
30
8.52
0
VERTEX
10
8.2759
20
10.4815
30
8.52
0
VERTEX
10
8.25286
20
10.5078
30
8.52
0
VERTEX
10
8.24627
20
10.521
30
8.52
0
VERTEX
10
8.21994
20
10.5473
30
8.52
0
VERTEX
10
8.20348
20
10.5704
30
8.52
0
VERTEX
10
8.20019
20
10.5737
30
8.52
0
VERTEX
10
8.17385
20
10.5638
30
8.52
0
VERTEX
10
8.12118
20
10.5572
30
8.52
0
VERTEX
10
8.09485
20
10.5473
30
8.52
0
VERTEX
10
8.06851
20
10.544
30
8.52
0
VERTEX
10
8.06193
20
10.5375
30
8.52
0
VERTEX
10
8.03559
20
10.5342
30
8.52
0
VERTEX
10
8.01255
20
10.521
30
8.52
0
VERTEX
10
7.98621
20
10.5177
30
8.52
0
VERTEX
10
7.95988
20
10.5078
30
8.52
0
VERTEX
10
7.93354
20
10.4914
30
8.52
0
VERTEX
10
7.90721
20
10.4881
30
8.52
0
VERTEX
10
7.89404
20
10.4881
30
8.52
0
VERTEX
10
7.88087
20
10.4815
30
8.52
0
VERTEX
10
7.8282
20
10.4749
30
8.52
0
VERTEX
10
7.80186
20
10.4749
30
8.52
0
VERTEX
10
7.77553
20
10.465
30
8.52
0
VERTEX
10
7.76565
20
10.4552
30
8.52
0
VERTEX
10
7.75907
20
10.4552
30
8.52
0
VERTEX
10
7.73273
20
10.4387
30
8.52
0
VERTEX
10
7.70969
20
10.4157
30
8.52
0
VERTEX
10
7.67348
20
10.363
30
8.52
0
VERTEX
10
7.65044
20
10.3366
30
8.52
0
VERTEX
10
7.62081
20
10.2873
30
8.52
0
VERTEX
10
7.61422
20
10.2741
30
8.52
0
VERTEX
10
7.60106
20
10.2642
30
8.52
0
VERTEX
10
7.59776
20
10.2511
30
8.52
0
VERTEX
10
7.59776
20
10.2478
30
8.52
0
SEQEND
0
POLYLINE
62
31
66
1
70
1
3
contour
0
VERTEX
10
7.23024
20
9.679
30
8.52
0
VERTEX
10
7.23536
20
9.6517
30
8.52
0
VERTEX
10
7.2456
20
9.62439
30
8.52
0
VERTEX
10
7.25413
20
9.61074
30
8.52
0
VERTEX
10
7.25754
20
9.60392
30
8.52
0
VERTEX
10
7.25754
20
9.59709
30
8.52
0
VERTEX
10
7.25754
20
9.59368
30
8.52
0
VERTEX
10
7.26608
20
9.58173
30
8.52
0
VERTEX
10
7.26949
20
9.57491
30
8.52
0
VERTEX
10
7.2729
20
9.57149
30
8.52
0
VERTEX
10
7.27461
20
9.56467
30
8.52
0
VERTEX
10
7.27973
20
9.55784
30
8.52
0
VERTEX
10
7.27973
20
9.55102
30
8.52
0
VERTEX
10
7.28314
20
9.54419
30
8.52
0
VERTEX
10
7.28826
20
9.54078
30
8.52
0
VERTEX
10
7.29679
20
9.52713
30
8.52
0
VERTEX
10
7.30703
20
9.51689
30
8.52
0
VERTEX
10
7.32068
20
9.50494
30
8.52
0
VERTEX
10
7.32751
20
9.49982
30
8.52
0
VERTEX
10
7.33092
20
9.49982
30
8.52
0
VERTEX
10
7.35822
20
9.48446
30
8.52
0
VERTEX
10
7.38553
20
9.47764
30
8.52
0
VERTEX
10
7.41283
20
9.47593
30
8.52
0
VERTEX
10
7.46744
20
9.47764
30
8.52
0
VERTEX
10
7.47426
20
9.47764
30
8.52
0
VERTEX
10
7.48109
20
9.48105
30
8.52
0
VERTEX
10
7.50839
20
9.48276
30
8.52
0
VERTEX
10
7.52204
20
9.48788
30
8.52
0
VERTEX
10
7.53569
20
9.48958
30
8.52
0
VERTEX
10
7.56129
20
9.49982
30
8.52
0
VERTEX
10
7.58689
20
9.51859
30
8.52
0
VERTEX
10
7.5903
20
9.52542
30
8.52
0
VERTEX
10
7.60395
20
9.53566
30
8.52
0
VERTEX
10
7.61078
20
9.54248
30
8.52
0
VERTEX
10
7.6176
20
9.54419
30
8.52
0
VERTEX
10
7.62955
20
9.55613
30
8.52
0
VERTEX
10
7.63638
20
9.55955
30
8.52
0
VERTEX
10
7.6415
20
9.56637
30
8.52
0
VERTEX
10
7.64491
20
9.56979
30
8.52
0
VERTEX
10
7.64661
20
9.57661
30
8.52
0
VERTEX
10
7.65003
20
9.58003
30
8.52
0
VERTEX
10
7.65515
20
9.59368
30
8.52
0
VERTEX
10
7.65856
20
9.62098
30
8.52
0
VERTEX
10
7.65856
20
9.64828
30
8.52
0
VERTEX
10
7.65515
20
9.66193
30
8.52
0
VERTEX
10
7.65515
20
9.66876
30
8.52
0
VERTEX
10
7.65515
20
9.67217
30
8.52
0
VERTEX
10
7.65173
20
9.67559
30
8.52
0
VERTEX
10
7.65003
20
9.68924
30
8.52
0
VERTEX
10
7.6432
20
9.70118
30
8.52
0
VERTEX
10
7.6415
20
9.70801
30
8.52
0
VERTEX
10
7.63126
20
9.72166
30
8.52
0
VERTEX
10
7.62784
20
9.72849
30
8.52
0
VERTEX
10
7.62102
20
9.73531
30
8.52
0
VERTEX
10
7.6176
20
9.74043
30
8.52
0
VERTEX
10
7.5903
20
9.76262
30
8.52
0
VERTEX
10
7.58348
20
9.76774
30
8.52
0
VERTEX
10
7.58006
20
9.76774
30
8.52
0
VERTEX
10
7.56812
20
9.77797
30
8.52
0
VERTEX
10
7.5647
20
9.77797
30
8.52
0
VERTEX
10
7.53911
20
9.79333
30
8.52
0
VERTEX
10
7.5118
20
9.80357
30
8.52
0
VERTEX
10
7.50839
20
9.80698
30
8.52
0
VERTEX
10
7.50157
20
9.80869
30
8.52
0
VERTEX
10
7.49474
20
9.81381
30
8.52
0
VERTEX
10
7.48109
20
9.81552
30
8.52
0
VERTEX
10
7.47426
20
9.81722
30
8.52
0
VERTEX
10
7.47085
20
9.82064
30
8.52
0
VERTEX
10
7.4572
20
9.82405
30
8.52
0
VERTEX
10
7.42989
20
9.82234
30
8.52
0
VERTEX
10
7.41624
20
9.82234
30
8.52
0
VERTEX
10
7.40942
20
9.82234
30
8.52
0
VERTEX
10
7.39577
20
9.81381
30
8.52
0
VERTEX
10
7.39065
20
9.80869
30
8.52
0
VERTEX
10
7.38382
20
9.80698
30
8.52
0
VERTEX
10
7.37188
20
9.79674
30
8.52
0
VERTEX
10
7.36505
20
9.79333
30
8.52
0
VERTEX
10
7.3531
20
9.78139
30
8.52
0
VERTEX
10
7.34969
20
9.77797
30
8.52
0
VERTEX
10
7.34628
20
9.77797
30
8.52
0
VERTEX
10
7.32239
20
9.7592
30
8.52
0
VERTEX
10
7.31727
20
9.75579
30
8.52
0
VERTEX
10
7.30362
20
9.75408
30
8.52
0
VERTEX
10
7.28997
20
9.74896
30
8.52
0
VERTEX
10
7.28314
20
9.74896
30
8.52
0
VERTEX
10
7.27119
20
9.74043
30
8.52
0
VERTEX
10
7.26437
20
9.73531
30
8.52
0
VERTEX
10
7.26096
20
9.73531
30
8.52
0
VERTEX
10
7.24901
20
9.72337
30
8.52
0
VERTEX
10
7.24048
20
9.71313
30
8.52
0
VERTEX
10
7.23536
20
9.7063
30
8.52
0
VERTEX
10
7.23195
20
9.70289
30
8.52
0
VERTEX
10
7.23024
20
9.68924
30
8.52
0
VERTEX
10
7.23024
20
9.68241
30
8.52
0
VERTEX
10
7.23024
20
9.68071
30
8.52
0
SEQEND
0
POLYLINE
62
224
66
1
70
1
3
mitochondrion
0
VERTEX
10
7.77389
20
10.2753
30
8.52
0
VERTEX
10
7.77806
20
10.253
30
8.52
0
VERTEX
10
7.77946
20
10.2308
30
8.52
0
VERTEX
10
7.78085
20
10.2197
30
8.52
0
VERTEX
10
7.78085
20
10.2169
30
8.52
0
VERTEX
10
7.78502
20
10.2113
30
8.52
0
VERTEX
10
7.78502
20
10.2002
30
8.52
0
VERTEX
10
7.78919
20
10.1946
30
8.52
0
VERTEX
10
7.79336
20
10.1835
30
8.52
0
VERTEX
10
7.79336
20
10.1779
30
8.52
0
VERTEX
10
7.8017
20
10.1696
30
8.52
0
VERTEX
10
7.80309
20
10.164
30
8.52
0
VERTEX
10
7.81422
20
10.1543
30
8.52
0
VERTEX
10
7.82534
20
10.1474
30
8.52
0
VERTEX
10
7.82812
20
10.1446
30
8.52
0
VERTEX
10
7.83368
20
10.1446
30
8.52
0
VERTEX
10
7.83646
20
10.1446
30
8.52
0
VERTEX
10
7.8462
20
10.1376
30
8.52
0
VERTEX
10
7.85176
20
10.1348
30
8.52
0
VERTEX
10
7.85732
20
10.1348
30
8.52
0
VERTEX
10
7.86149
20
10.1307
30
8.52
0
VERTEX
10
7.86705
20
10.1293
30
8.52
0
VERTEX
10
7.86983
20
10.1293
30
8.52
0
VERTEX
10
7.87261
20
10.1265
30
8.52
0
VERTEX
10
7.8754
20
10.1265
30
8.52
0
VERTEX
10
7.87957
20
10.1209
30
8.52
0
VERTEX
10
7.88513
20
10.1182
30
8.52
0
VERTEX
10
7.88791
20
10.1182
30
8.52
0
VERTEX
10
7.89069
20
10.1154
30
8.52
0
VERTEX
10
7.89625
20
10.1154
30
8.52
0
VERTEX
10
7.90181
20
10.1126
30
8.52
0
VERTEX
10
7.92406
20
10.1126
30
8.52
0
VERTEX
10
7.94631
20
10.1154
30
8.52
0
VERTEX
10
7.95743
20
10.1154
30
8.52
0
VERTEX
10
8.00192
20
10.1279
30
8.52
0
VERTEX
10
8.00749
20
10.1279
30
8.52
0
VERTEX
10
8.01027
20
10.1279
30
8.52
0
VERTEX
10
8.02139
20
10.1348
30
8.52
0
VERTEX
10
8.03251
20
10.1376
30
8.52
0
VERTEX
10
8.03808
20
10.1376
30
8.52
0
VERTEX
10
8.05893
20
10.1529
30
8.52
0
VERTEX
10
8.06449
20
10.1571
30
8.52
0
VERTEX
10
8.06449
20
10.1599
30
8.52
0
VERTEX
10
8.07423
20
10.1668
30
8.52
0
VERTEX
10
8.07979
20
10.1766
30
8.52
0
VERTEX
10
8.08257
20
10.2211
30
8.52
0
VERTEX
10
8.08257
20
10.2655
30
8.52
0
VERTEX
10
8.08257
20
10.2767
30
8.52
0
VERTEX
10
8.07979
20
10.2822
30
8.52
0
VERTEX
10
8.07979
20
10.2934
30
8.52
0
VERTEX
10
8.07701
20
10.2989
30
8.52
0
VERTEX
10
8.07562
20
10.31
30
8.52
0
VERTEX
10
8.07006
20
10.3212
30
8.52
0
VERTEX
10
8.06727
20
10.3267
30
8.52
0
VERTEX
10
8.06727
20
10.3295
30
8.52
0
VERTEX
10
8.06032
20
10.3406
30
8.52
0
VERTEX
10
8.05059
20
10.3518
30
8.52
0
VERTEX
10
8.04364
20
10.3587
30
8.52
0
VERTEX
10
8.03808
20
10.3601
30
8.52
0
VERTEX
10
8.03251
20
10.3657
30
8.52
0
VERTEX
10
8.02695
20
10.367
30
8.52
0
VERTEX
10
8.0061
20
10.3809
30
8.52
0
VERTEX
10
8.00053
20
10.3837
30
8.52
0
VERTEX
10
8.00053
20
10.3893
30
8.52
0
VERTEX
10
7.99775
20
10.3907
30
8.52
0
VERTEX
10
7.97551
20
10.3865
30
8.52
0
VERTEX
10
7.96438
20
10.3837
30
8.52
0
VERTEX
10
7.95882
20
10.3823
30
8.52
0
VERTEX
10
7.91433
20
10.3851
30
8.52
0
VERTEX
10
7.89208
20
10.3809
30
8.52
0
VERTEX
10
7.88096
20
10.3809
30
8.52
0
VERTEX
10
7.83646
20
10.3657
30
8.52
0
VERTEX
10
7.82673
20
10.3587
30
8.52
0
VERTEX
10
7.82117
20
10.3545
30
8.52
0
VERTEX
10
7.81561
20
10.3531
30
8.52
0
VERTEX
10
7.79753
20
10.3337
30
8.52
0
VERTEX
10
7.7878
20
10.3226
30
8.52
0
VERTEX
10
7.78085
20
10.3128
30
8.52
0
VERTEX
10
7.77389
20
10.3059
30
8.52
0
VERTEX
10
7.77389
20
10.2836
30
8.52
0
VERTEX
10
7.77389
20
10.2781
30
8.52
0
VERTEX
10
7.77389
20
10.2767
30
8.52
0
SEQEND
0
POLYLINE
62
227
66
1
70
1
3
endoplasmic_reticulum
0
VERTEX
10
7.64575
20
10.2708
30
8.52
0
VERTEX
10
7.64664
20
10.2637
30
8.52
0
VERTEX
10
7.64754
20
10.2601
30
8.52
0
VERTEX
10
7.64754
20
10.2583
30
8.52
0
VERTEX
10
7.64933
20
10.2565
30
8.52
0
VERTEX
10
7.65023
20
10.2529
30
8.52
0
VERTEX
10
7.65561
20
10.2457
30
8.52
0
VERTEX
10
7.6574
20
10.2457
30
8.52
0
VERTEX
10
7.66368
20
10.2395
30
8.52
0
VERTEX
10
7.67085
20
10.2386
30
8.52
0
VERTEX
10
7.67264
20
10.2368
30
8.52
0
VERTEX
10
7.67981
20
10.2377
30
8.52
0
VERTEX
10
7.6834
20
10.2377
30
8.52
0
VERTEX
10
7.69057
20
10.2403
30
8.52
0
VERTEX
10
7.69237
20
10.2403
30
8.52
0
VERTEX
10
7.69954
20
10.2448
30
8.52
0
VERTEX
10
7.70043
20
10.2484
30
8.52
0
VERTEX
10
7.70043
20
10.2502
30
8.52
0
VERTEX
10
7.70402
20
10.2511
30
8.52
0
VERTEX
10
7.7103
20
10.2556
30
8.52
0
VERTEX
10
7.71657
20
10.2619
30
8.52
0
VERTEX
10
7.71926
20
10.2646
30
8.52
0
VERTEX
10
7.71926
20
10.2663
30
8.52
0
VERTEX
10
7.72374
20
10.2726
30
8.52
0
VERTEX
10
7.72733
20
10.2762
30
8.52
0
VERTEX
10
7.73361
20
10.2807
30
8.52
0
VERTEX
10
7.7354
20
10.2843
30
8.52
0
VERTEX
10
7.73719
20
10.2861
30
8.52
0
VERTEX
10
7.73809
20
10.2932
30
8.52
0
VERTEX
10
7.7363
20
10.3004
30
8.52
0
VERTEX
10
7.7354
20
10.304
30
8.52
0
VERTEX
10
7.72912
20
10.3112
30
8.52
0
VERTEX
10
7.72823
20
10.3148
30
8.52
0
VERTEX
10
7.72285
20
10.3192
30
8.52
0
VERTEX
10
7.71568
20
10.3237
30
8.52
0
VERTEX
10
7.71478
20
10.3255
30
8.52
0
VERTEX
10
7.70761
20
10.3255
30
8.52
0
VERTEX
10
7.70402
20
10.3255
30
8.52
0
VERTEX
10
7.70043
20
10.3228
30
8.52
0
VERTEX
10
7.69326
20
10.3201
30
8.52
0
VERTEX
10
7.69147
20
10.3201
30
8.52
0
VERTEX
10
7.68968
20
10.3166
30
8.52
0
VERTEX
10
7.68968
20
10.3148
30
8.52
0
VERTEX
10
7.68699
20
10.3112
30
8.52
0
VERTEX
10
7.68609
20
10.3076
30
8.52
0
VERTEX
10
7.6843
20
10.3058
30
8.52
0
VERTEX
10
7.6843
20
10.304
30
8.52
0
VERTEX
10
7.68071
20
10.3004
30
8.52
0
VERTEX
10
7.67443
20
10.2977
30
8.52
0
VERTEX
10
7.67085
20
10.2968
30
8.52
0
VERTEX
10
7.6565
20
10.2888
30
8.52
0
VERTEX
10
7.64933
20
10.2825
30
8.52
0
VERTEX
10
7.64575
20
10.2807
30
8.52
0
VERTEX
10
7.64575
20
10.2735
30
8.52
0
VERTEX
10
7.64575
20
10.2717
30
8.52
0
SEQEND
0
POLYLINE
62
227
66
1
70
1
3
endoplasmic_reticulum
0
VERTEX
10
7.72374
20
10.1247
30
8.52
0
VERTEX
10
7.72912
20
10.1104
30
8.52
0
VERTEX
10
7.73361
20
10.1032
30
8.52
0
VERTEX
10
7.7363
20
10.0969
30
8.52
0
VERTEX
10
7.74257
20
10.0924
30
8.52
0
VERTEX
10
7.74616
20
10.0897
30
8.52
0
VERTEX
10
7.75333
20
10.0879
30
8.52
0
VERTEX
10
7.76768
20
10.0888
30
8.52
0
VERTEX
10
7.79636
20
10.0844
30
8.52
0
VERTEX
10
7.81071
20
10.0781
30
8.52
0
VERTEX
10
7.81788
20
10.0754
30
8.52
0
VERTEX
10
7.82147
20
10.0736
30
8.52
0
VERTEX
10
7.82505
20
10.0736
30
8.52
0
VERTEX
10
7.82685
20
10.0718
30
8.52
0
VERTEX
10
7.83402
20
10.07
30
8.52
0
VERTEX
10
7.83581
20
10.0682
30
8.52
0
VERTEX
10
7.8394
20
10.0673
30
8.52
0
VERTEX
10
7.84119
20
10.0646
30
8.52
0
VERTEX
10
7.84836
20
10.0592
30
8.52
0
VERTEX
10
7.85195
20
10.0566
30
8.52
0
VERTEX
10
7.85554
20
10.0566
30
8.52
0
VERTEX
10
7.86181
20
10.0503
30
8.52
0
VERTEX
10
7.87526
20
10.0404
30
8.52
0
VERTEX
10
7.88154
20
10.0359
30
8.52
0
VERTEX
10
7.88333
20
10.0341
30
8.52
0
VERTEX
10
7.8905
20
10.0324
30
8.52
0
VERTEX
10
7.89767
20
10.0279
30
8.52
0
VERTEX
10
7.90126
20
10.0252
30
8.52
0
VERTEX
10
7.90305
20
10.0252
30
8.52
0
VERTEX
10
7.90485
20
10.0234
30
8.52
0
VERTEX
10
7.91202
20
10.0225
30
8.52
0
VERTEX
10
7.91561
20
10.0216
30
8.52
0
VERTEX
10
7.9174
20
10.0216
30
8.52
0
VERTEX
10
7.92009
20
10.0189
30
8.52
0
VERTEX
10
7.92457
20
10.0162
30
8.52
0
VERTEX
10
7.92816
20
10.0153
30
8.52
0
VERTEX
10
7.93174
20
10.0126
30
8.52
0
VERTEX
10
7.93533
20
10.0117
30
8.52
0
VERTEX
10
7.93443
20
9.98304
30
8.52
0
VERTEX
10
7.93712
20
9.9687
30
8.52
0
VERTEX
10
7.94698
20
9.95614
30
8.52
0
VERTEX
10
7.94878
20
9.95256
30
8.52
0
VERTEX
10
7.95236
20
9.95077
30
8.52
0
VERTEX
10
7.95416
20
9.94897
30
8.52
0
VERTEX
10
7.9685
20
9.94897
30
8.52
0
VERTEX
10
7.97567
20
9.94897
30
8.52
0
VERTEX
10
7.99002
20
9.95345
30
8.52
0
VERTEX
10
7.99719
20
9.95435
30
8.52
0
VERTEX
10
8.00078
20
9.95435
30
8.52
0
VERTEX
10
8.01333
20
9.96601
30
8.52
0
VERTEX
10
8.01602
20
9.96959
30
8.52
0
VERTEX
10
8.01871
20
9.97139
30
8.52
0
VERTEX
10
8.0214
20
9.97497
30
8.52
0
VERTEX
10
8.02319
20
9.97677
30
8.52
0
VERTEX
10
8.02409
20
9.98035
30
8.52
0
VERTEX
10
8.03485
20
9.9929
30
8.52
0
VERTEX
10
8.03664
20
9.9929
30
8.52
0
VERTEX
10
8.04023
20
9.99559
30
8.52
0
VERTEX
10
8.05457
20
9.99828
30
8.52
0
VERTEX
10
8.06891
20
9.99828
30
8.52
0
VERTEX
10
8.07609
20
10.001
30
8.52
0
VERTEX
10
8.09043
20
10.0037
30
8.52
0
VERTEX
10
8.0976
20
10.0055
30
8.52
0
VERTEX
10
8.10119
20
10.0055
30
8.52
0
VERTEX
10
8.10298
20
10.0072
30
8.52
0
VERTEX
10
8.11733
20
10.0055
30
8.52
0
VERTEX
10
8.1245
20
10.0037
30
8.52
0
VERTEX
10
8.12809
20
10.0037
30
8.52
0
VERTEX
10
8.14243
20
9.99918
30
8.52
0
VERTEX
10
8.15678
20
10.0001
30
8.52
0
VERTEX
10
8.16395
20
10.0019
30
8.52
0
VERTEX
10
8.16754
20
10.0028
30
8.52
0
VERTEX
10
8.17291
20
10.0081
30
8.52
0
VERTEX
10
8.17381
20
10.0225
30
8.52
0
VERTEX
10
8.17112
20
10.0297
30
8.52
0
VERTEX
10
8.17112
20
10.0584
30
8.52
0
VERTEX
10
8.17112
20
10.0727
30
8.52
0
VERTEX
10
8.17112
20
10.0799
30
8.52
0
VERTEX
10
8.17291
20
10.087
30
8.52
0
VERTEX
10
8.17471
20
10.0888
30
8.52
0
VERTEX
10
8.1756
20
10.0924
30
8.52
0
VERTEX
10
8.18726
20
10.1041
30
8.52
0
VERTEX
10
8.19174
20
10.1104
30
8.52
0
VERTEX
10
8.19264
20
10.1175
30
8.52
0
VERTEX
10
8.19264
20
10.1211
30
8.52
0
VERTEX
10
8.18816
20
10.1283
30
8.52
0
VERTEX
10
8.18278
20
10.1337
30
8.52
0
VERTEX
10
8.17919
20
10.1364
30
8.52
0
VERTEX
10
8.17202
20
10.1364
30
8.52
0
VERTEX
10
8.17022
20
10.1364
30
8.52
0
VERTEX
10
8.16843
20
10.1346
30
8.52
0
VERTEX
10
8.16664
20
10.1346
30
8.52
0
VERTEX
10
8.16305
20
10.1319
30
8.52
0
VERTEX
10
8.15947
20
10.131
30
8.52
0
VERTEX
10
8.15767
20
10.1292
30
8.52
0
VERTEX
10
8.15767
20
10.1256
30
8.52
0
VERTEX
10
8.15947
20
10.122
30
8.52
0
VERTEX
10
8.15947
20
10.1184
30
8.52
0
VERTEX
10
8.16216
20
10.1148
30
8.52
0
VERTEX
10
8.16216
20
10.113
30
8.52
0
VERTEX
10
8.16395
20
10.1112
30
8.52
0
VERTEX
10
8.16485
20
10.1041
30
8.52
0
VERTEX
10
8.16216
20
10.0897
30
8.52
0
VERTEX
10
8.15857
20
10.0826
30
8.52
0
VERTEX
10
8.15319
20
10.0763
30
8.52
0
VERTEX
10
8.13885
20
10.0664
30
8.52
0
VERTEX
10
8.13257
20
10.061
30
8.52
0
VERTEX
10
8.1254
20
10.0575
30
8.52
0
VERTEX
10
8.12002
20
10.0503
30
8.52
0
VERTEX
10
8.11643
20
10.0503
30
8.52
0
VERTEX
10
8.11195
20
10.0458
30
8.52
0
VERTEX
10
8.08326
20
10.0476
30
8.52
0
VERTEX
10
8.05457
20
10.053
30
8.52
0
VERTEX
10
8.04023
20
10.0575
30
8.52
0
VERTEX
10
8.01154
20
10.0601
30
8.52
0
VERTEX
10
8.00436
20
10.061
30
8.52
0
VERTEX
10
8.00078
20
10.0628
30
8.52
0
VERTEX
10
7.99898
20
10.0646
30
8.52
0
VERTEX
10
7.99181
20
10.0655
30
8.52
0
VERTEX
10
7.97747
20
10.07
30
8.52
0
VERTEX
10
7.97388
20
10.0727
30
8.52
0
VERTEX
10
7.95954
20
10.0772
30
8.52
0
VERTEX
10
7.95236
20
10.0808
30
8.52
0
VERTEX
10
7.94878
20
10.0817
30
8.52
0
VERTEX
10
7.94698
20
10.0835
30
8.52
0
VERTEX
10
7.9434
20
10.0844
30
8.52
0
VERTEX
10
7.94071
20
10.087
30
8.52
0
VERTEX
10
7.92636
20
10.0915
30
8.52
0
VERTEX
10
7.91919
20
10.0924
30
8.52
0
VERTEX
10
7.91202
20
10.0951
30
8.52
0
VERTEX
10
7.88333
20
10.0951
30
8.52
0
VERTEX
10
7.86899
20
10.0924
30
8.52
0
VERTEX
10
7.8403
20
10.096
30
8.52
0
VERTEX
10
7.82595
20
10.1014
30
8.52
0
VERTEX
10
7.82236
20
10.1023
30
8.52
0
VERTEX
10
7.82057
20
10.1023
30
8.52
0
VERTEX
10
7.81878
20
10.1041
30
8.52
0
VERTEX
10
7.81161
20
10.1059
30
8.52
0
VERTEX
10
7.81071
20
10.1077
30
8.52
0
VERTEX
10
7.80892
20
10.1077
30
8.52
0
VERTEX
10
7.80712
20
10.1095
30
8.52
0
VERTEX
10
7.80533
20
10.1095
30
8.52
0
VERTEX
10
7.80264
20
10.1121
30
8.52
0
VERTEX
10
7.80085
20
10.113
30
8.52
0
VERTEX
10
7.80085
20
10.1148
30
8.52
0
VERTEX
10
7.79816
20
10.1166
30
8.52
0
VERTEX
10
7.79278
20
10.1229
30
8.52
0
VERTEX
10
7.78919
20
10.1256
30
8.52
0
VERTEX
10
7.78561
20
10.1265
30
8.52
0
VERTEX
10
7.77933
20
10.131
30
8.52
0
VERTEX
10
7.77305
20
10.1381
30
8.52
0
VERTEX
10
7.76588
20
10.1408
30
8.52
0
VERTEX
10
7.7623
20
10.1426
30
8.52
0
VERTEX
10
7.74795
20
10.1426
30
8.52
0
VERTEX
10
7.74078
20
10.1426
30
8.52
0
VERTEX
10
7.73719
20
10.1417
30
8.52
0
VERTEX
10
7.73002
20
10.1364
30
8.52
0
VERTEX
10
7.72643
20
10.1355
30
8.52
0
VERTEX
10
7.72464
20
10.1355
30
8.52
0
VERTEX
10
7.72374
20
10.1283
30
8.52
0
VERTEX
10
7.72374
20
10.1256
30
8.52
0
SEQEND
0
POLYLINE
62
227
66
1
70
1
3
endoplasmic_reticulum
0
VERTEX
10
8.01692
20
10.0817
30
8.52
0
VERTEX
10
8.0196
20
10.079
30
8.52
0
VERTEX
10
8.02498
20
10.0646
30
8.52
0
VERTEX
10
8.02678
20
10.061
30
8.52
0
VERTEX
10
8.02857
20
10.0592
30
8.52
0
VERTEX
10
8.03574
20
10.0601
30
8.52
0
VERTEX
10
8.04292
20
10.0592
30
8.52
0
VERTEX
10
8.0474
20
10.0566
30
8.52
0
VERTEX
10
8.05457
20
10.0548
30
8.52
0
VERTEX
10
8.05816
20
10.0539
30
8.52
0
VERTEX
10
8.06085
20
10.0503
30
8.52
0
VERTEX
10
8.06264
20
10.0485
30
8.52
0
VERTEX
10
8.07698
20
10.0449
30
8.52
0
VERTEX
10
8.09133
20
10.0458
30
8.52
0
VERTEX
10
8.0985
20
10.0467
30
8.52
0
VERTEX
10
8.10478
20
10.0494
30
8.52
0
VERTEX
10
8.11912
20
10.0494
30
8.52
0
VERTEX
10
8.1254
20
10.0539
30
8.52
0
VERTEX
10
8.13257
20
10.0601
30
8.52
0
VERTEX
10
8.13616
20
10.0664
30
8.52
0
VERTEX
10
8.13795
20
10.0682
30
8.52
0
VERTEX
10
8.13795
20
10.07
30
8.52
0
VERTEX
10
8.14064
20
10.0736
30
8.52
0
VERTEX
10
8.14154
20
10.0808
30
8.52
0
VERTEX
10
8.14064
20
10.0826
30
8.52
0
VERTEX
10
8.14333
20
10.0897
30
8.52
0
VERTEX
10
8.14781
20
10.0969
30
8.52
0
VERTEX
10
8.14871
20
10.1112
30
8.52
0
VERTEX
10
8.14781
20
10.1256
30
8.52
0
VERTEX
10
8.14781
20
10.1328
30
8.52
0
VERTEX
10
8.14512
20
10.1364
30
8.52
0
VERTEX
10
8.14243
20
10.1381
30
8.52
0
VERTEX
10
8.13526
20
10.1372
30
8.52
0
VERTEX
10
8.12988
20
10.1328
30
8.52
0
VERTEX
10
8.12271
20
10.1265
30
8.52
0
VERTEX
10
8.12181
20
10.1247
30
8.52
0
VERTEX
10
8.10747
20
10.1184
30
8.52
0
VERTEX
10
8.10388
20
10.1157
30
8.52
0
VERTEX
10
8.09671
20
10.1148
30
8.52
0
VERTEX
10
8.08236
20
10.1193
30
8.52
0
VERTEX
10
8.06802
20
10.1202
30
8.52
0
VERTEX
10
8.06085
20
10.1202
30
8.52
0
VERTEX
10
8.05367
20
10.1175
30
8.52
0
VERTEX
10
8.05009
20
10.1157
30
8.52
0
VERTEX
10
8.0465
20
10.1157
30
8.52
0
VERTEX
10
8.03305
20
10.105
30
8.52
0
VERTEX
10
8.02947
20
10.1023
30
8.52
0
VERTEX
10
8.02229
20
10.0996
30
8.52
0
VERTEX
10
8.01781
20
10.0933
30
8.52
0
VERTEX
10
8.01692
20
10.0861
30
8.52
0
VERTEX
10
8.01692
20
10.0826
30
8.52
0
SEQEND
0
POLYLINE
62
227
66
1
70
1
3
endoplasmic_reticulum
0
VERTEX
10
8.13885
20
10.3874
30
8.52
0
VERTEX
10
8.14064
20
10.3838
30
8.52
0
VERTEX
10
8.14154
20
10.3766
30
8.52
0
VERTEX
10
8.15319
20
10.3479
30
8.52
0
VERTEX
10
8.16036
20
10.3336
30
8.52
0
VERTEX
10
8.16305
20
10.3192
30
8.52
0
VERTEX
10
8.16305
20
10.3121
30
8.52
0
VERTEX
10
8.16485
20
10.3085
30
8.52
0
VERTEX
10
8.16664
20
10.3067
30
8.52
0
VERTEX
10
8.16933
20
10.2995
30
8.52
0
VERTEX
10
8.17022
20
10.2959
30
8.52
0
VERTEX
10
8.17291
20
10.2923
30
8.52
0
VERTEX
10
8.17471
20
10.278
30
8.52
0
VERTEX
10
8.17381
20
10.2708
30
8.52
0
VERTEX
10
8.1765
20
10.2637
30
8.52
0
VERTEX
10
8.1774
20
10.2565
30
8.52
0
VERTEX
10
8.18009
20
10.2493
30
8.52
0
VERTEX
10
8.17919
20
10.2206
30
8.52
0
VERTEX
10
8.17919
20
10.217
30
8.52
0
VERTEX
10
8.18278
20
10.2143
30
8.52
0
VERTEX
10
8.18636
20
10.2143
30
8.52
0
VERTEX
10
8.19085
20
10.2206
30
8.52
0
VERTEX
10
8.19353
20
10.2242
30
8.52
0
VERTEX
10
8.19622
20
10.2386
30
8.52
0
VERTEX
10
8.19533
20
10.2457
30
8.52
0
VERTEX
10
8.19981
20
10.2601
30
8.52
0
VERTEX
10
8.20609
20
10.2744
30
8.52
0
VERTEX
10
8.20698
20
10.2888
30
8.52
0
VERTEX
10
8.20429
20
10.3175
30
8.52
0
VERTEX
10
8.20071
20
10.3246
30
8.52
0
VERTEX
10
8.19891
20
10.3381
30
8.52
0
VERTEX
10
8.19891
20
10.3452
30
8.52
0
VERTEX
10
8.19712
20
10.3524
30
8.52
0
VERTEX
10
8.19443
20
10.356
30
8.52
0
VERTEX
10
8.19353
20
10.3596
30
8.52
0
VERTEX
10
8.18816
20
10.3668
30
8.52
0
VERTEX
10
8.18457
20
10.3695
30
8.52
0
VERTEX
10
8.18188
20
10.3757
30
8.52
0
VERTEX
10
8.18188
20
10.3793
30
8.52
0
VERTEX
10
8.18367
20
10.3829
30
8.52
0
VERTEX
10
8.18726
20
10.3865
30
8.52
0
VERTEX
10
8.18905
20
10.3883
30
8.52
0
VERTEX
10
8.19622
20
10.3901
30
8.52
0
VERTEX
10
8.19981
20
10.3937
30
8.52
0
VERTEX
10
8.2016
20
10.3946
30
8.52
0
VERTEX
10
8.20071
20
10.4089
30
8.52
0
VERTEX
10
8.19712
20
10.4161
30
8.52
0
VERTEX
10
8.18995
20
10.4223
30
8.52
0
VERTEX
10
8.18636
20
10.4232
30
8.52
0
VERTEX
10
8.18367
20
10.4259
30
8.52
0
VERTEX
10
8.18188
20
10.4268
30
8.52
0
VERTEX
10
8.16754
20
10.4241
30
8.52
0
VERTEX
10
8.16036
20
10.4223
30
8.52
0
VERTEX
10
8.15319
20
10.417
30
8.52
0
VERTEX
10
8.1496
20
10.4161
30
8.52
0
VERTEX
10
8.14691
20
10.4125
30
8.52
0
VERTEX
10
8.14512
20
10.4107
30
8.52
0
VERTEX
10
8.13974
20
10.3972
30
8.52
0
VERTEX
10
8.13885
20
10.3901
30
8.52
0
VERTEX
10
8.13885
20
10.3883
30
8.52
0
SEQEND
0
POLYLINE
62
227
66
1
70
1
3
endoplasmic_reticulum
0
VERTEX
10
8.19981
20
10.3273
30
8.52
0
VERTEX
10
8.2016
20
10.3201
30
8.52
0
VERTEX
10
8.21057
20
10.3076
30
8.52
0
VERTEX
10
8.21774
20
10.3022
30
8.52
0
VERTEX
10
8.22491
20
10.2995
30
8.52
0
VERTEX
10
8.23209
20
10.2995
30
8.52
0
VERTEX
10
8.23567
20
10.3004
30
8.52
0
VERTEX
10
8.23747
20
10.3004
30
8.52
0
VERTEX
10
8.23926
20
10.3022
30
8.52
0
VERTEX
10
8.24643
20
10.304
30
8.52
0
VERTEX
10
8.24643
20
10.3058
30
8.52
0
VERTEX
10
8.25271
20
10.3103
30
8.52
0
VERTEX
10
8.25629
20
10.3175
30
8.52
0
VERTEX
10
8.25629
20
10.3318
30
8.52
0
VERTEX
10
8.2554
20
10.339
30
8.52
0
VERTEX
10
8.25002
20
10.3461
30
8.52
0
VERTEX
10
8.24643
20
10.3488
30
8.52
0
VERTEX
10
8.21774
20
10.3443
30
8.52
0
VERTEX
10
8.2034
20
10.3435
30
8.52
0
VERTEX
10
8.2016
20
10.3435
30
8.52
0
VERTEX
10
8.20071
20
10.3452
30
8.52
0
VERTEX
10
8.19981
20
10.3309
30
8.52
0
VERTEX
10
8.19981
20
10.3282
30
8.52
0
SEQEND
0
POLYLINE
62
227
66
1
70
1
3
endoplasmic_reticulum
0
VERTEX
10
8.07788
20
10.4304
30
8.52
0
VERTEX
10
8.08057
20
10.4161
30
8.52
0
VERTEX
10
8.08057
20
10.4125
30
8.52
0
VERTEX
10
8.08236
20
10.4089
30
8.52
0
VERTEX
10
8.08236
20
10.4053
30
8.52
0
VERTEX
10
8.08595
20
10.4026
30
8.52
0
VERTEX
10
8.08685
20
10.3883
30
8.52
0
VERTEX
10
8.08685
20
10.3811
30
8.52
0
VERTEX
10
8.08685
20
10.3775
30
8.52
0
VERTEX
10
8.08864
20
10.3739
30
8.52
0
VERTEX
10
8.08954
20
10.3596
30
8.52
0
VERTEX
10
8.09043
20
10.3524
30
8.52
0
VERTEX
10
8.09223
20
10.3515
30
8.52
0
VERTEX
10
8.09581
20
10.3372
30
8.52
0
VERTEX
10
8.09671
20
10.33
30
8.52
0
VERTEX
10
8.09671
20
10.3264
30
8.52
0
VERTEX
10
8.10119
20
10.3121
30
8.52
0
VERTEX
10
8.10119
20
10.3049
30
8.52
0
VERTEX
10
8.10388
20
10.2977
30
8.52
0
VERTEX
10
8.10567
20
10.2834
30
8.52
0
VERTEX
10
8.10926
20
10.2762
30
8.52
0
VERTEX
10
8.11016
20
10.2475
30
8.52
0
VERTEX
10
8.11016
20
10.2439
30
8.52
0
VERTEX
10
8.10836
20
10.2421
30
8.52
0
VERTEX
10
8.10657
20
10.2278
30
8.52
0
VERTEX
10
8.10209
20
10.2135
30
8.52
0
VERTEX
10
8.10209
20
10.2099
30
8.52
0
VERTEX
10
8.10029
20
10.2063
30
8.52
0
VERTEX
10
8.0994
20
10.1919
30
8.52
0
VERTEX
10
8.10029
20
10.1848
30
8.52
0
VERTEX
10
8.10119
20
10.1812
30
8.52
0
VERTEX
10
8.10119
20
10.1794
30
8.52
0
VERTEX
10
8.10567
20
10.1749
30
8.52
0
VERTEX
10
8.10926
20
10.174
30
8.52
0
VERTEX
10
8.11105
20
10.1722
30
8.52
0
VERTEX
10
8.1254
20
10.1686
30
8.52
0
VERTEX
10
8.13974
20
10.1695
30
8.52
0
VERTEX
10
8.14422
20
10.1767
30
8.52
0
VERTEX
10
8.14691
20
10.1839
30
8.52
0
VERTEX
10
8.14602
20
10.1982
30
8.52
0
VERTEX
10
8.14422
20
10.2054
30
8.52
0
VERTEX
10
8.14422
20
10.2341
30
8.52
0
VERTEX
10
8.14422
20
10.2377
30
8.52
0
VERTEX
10
8.14602
20
10.2386
30
8.52
0
VERTEX
10
8.14422
20
10.2529
30
8.52
0
VERTEX
10
8.14243
20
10.2601
30
8.52
0
VERTEX
10
8.14243
20
10.2672
30
8.52
0
VERTEX
10
8.13795
20
10.2816
30
8.52
0
VERTEX
10
8.13616
20
10.2843
30
8.52
0
VERTEX
10
8.13526
20
10.2915
30
8.52
0
VERTEX
10
8.13078
20
10.3058
30
8.52
0
VERTEX
10
8.12988
20
10.3201
30
8.52
0
VERTEX
10
8.12809
20
10.3237
30
8.52
0
VERTEX
10
8.12719
20
10.3381
30
8.52
0
VERTEX
10
8.12271
20
10.3668
30
8.52
0
VERTEX
10
8.11643
20
10.3955
30
8.52
0
VERTEX
10
8.11554
20
10.4098
30
8.52
0
VERTEX
10
8.11016
20
10.4385
30
8.52
0
VERTEX
10
8.10388
20
10.4448
30
8.52
0
VERTEX
10
8.10029
20
10.4448
30
8.52
0
VERTEX
10
8.09312
20
10.4475
30
8.52
0
VERTEX
10
8.08685
20
10.4403
30
8.52
0
VERTEX
10
8.08416
20
10.4367
30
8.52
0
VERTEX
10
8.08057
20
10.4358
30
8.52
0
VERTEX
10
8.07878
20
10.4358
30
8.52
0
VERTEX
10
8.07788
20
10.4322
30
8.52
0
VERTEX
10
8.07788
20
10.4313
30
8.52
0
SEQEND
0
POLYLINE
62
227
66
1
70
1
3
endoplasmic_reticulum
0
VERTEX
10
8.22043
20
10.1606
30
8.52
0
VERTEX
10
8.22222
20
10.1534
30
8.52
0
VERTEX
10
8.22222
20
10.1498
30
8.52
0
VERTEX
10
8.2276
20
10.1435
30
8.52
0
VERTEX
10
8.23029
20
10.1408
30
8.52
0
VERTEX
10
8.23298
20
10.1337
30
8.52
0
VERTEX
10
8.23657
20
10.1319
30
8.52
0
VERTEX
10
8.24016
20
10.1283
30
8.52
0
VERTEX
10
8.24374
20
10.1265
30
8.52
0
VERTEX
10
8.25091
20
10.1274
30
8.52
0
VERTEX
10
8.2545
20
10.1283
30
8.52
0
VERTEX
10
8.26705
20
10.1381
30
8.52
0
VERTEX
10
8.27333
20
10.1435
30
8.52
0
VERTEX
10
8.27691
20
10.1507
30
8.52
0
VERTEX
10
8.27781
20
10.165
30
8.52
0
VERTEX
10
8.27691
20
10.1722
30
8.52
0
VERTEX
10
8.27602
20
10.1758
30
8.52
0
VERTEX
10
8.26974
20
10.1821
30
8.52
0
VERTEX
10
8.26257
20
10.1839
30
8.52
0
VERTEX
10
8.26078
20
10.1839
30
8.52
0
VERTEX
10
8.25898
20
10.1857
30
8.52
0
VERTEX
10
8.24464
20
10.1866
30
8.52
0
VERTEX
10
8.24105
20
10.1866
30
8.52
0
VERTEX
10
8.23836
20
10.1794
30
8.52
0
VERTEX
10
8.23567
20
10.1767
30
8.52
0
VERTEX
10
8.2285
20
10.1758
30
8.52
0
VERTEX
10
8.22491
20
10.1758
30
8.52
0
VERTEX
10
8.22133
20
10.1731
30
8.52
0
VERTEX
10
8.22043
20
10.1659
30
8.52
0
VERTEX
10
8.22043
20
10.1624
30
8.52
0
VERTEX
10
8.22043
20
10.1615
30
8.52
0
SEQEND
0
ENDSEC
0
EOF
