0
SECTION
2
ENTITIES
0
POLYLINE
62
31
66
1
70
1
3
contour
0
VERTEX
10
8.43743
20
9.41518
30
6.8
0
VERTEX
10
8.44542
20
9.40453
30
6.8
0
VERTEX
10
8.53068
20
9.40186
30
6.8
0
VERTEX
10
8.5733
20
9.40453
30
6.8
0
VERTEX
10
8.59462
20
9.40985
30
6.8
0
VERTEX
10
8.61327
20
9.42584
30
6.8
0
VERTEX
10
8.63458
20
9.43117
30
6.8
0
VERTEX
10
8.67721
20
9.44982
30
6.8
0
VERTEX
10
8.76246
20
9.44715
30
6.8
0
VERTEX
10
8.78377
20
9.44715
30
6.8
0
VERTEX
10
8.80509
20
9.43916
30
6.8
0
VERTEX
10
8.89034
20
9.43916
30
6.8
0
VERTEX
10
8.93297
20
9.44182
30
6.8
0
VERTEX
10
8.97559
20
9.45248
30
6.8
0
VERTEX
10
8.99691
20
9.45514
30
6.8
0
VERTEX
10
9.16741
20
9.52441
30
6.8
0
VERTEX
10
9.18873
20
9.53507
30
6.8
0
VERTEX
10
9.19938
20
9.53507
30
6.8
0
VERTEX
10
9.21004
20
9.5404
30
6.8
0
VERTEX
10
9.21537
20
9.5404
30
6.8
0
VERTEX
10
9.21803
20
9.71091
30
6.8
0
VERTEX
10
9.21537
20
9.75353
30
6.8
0
VERTEX
10
9.21803
20
9.79616
30
6.8
0
VERTEX
10
9.21803
20
9.81747
30
6.8
0
VERTEX
10
9.22869
20
9.8601
30
6.8
0
VERTEX
10
9.23402
20
9.87076
30
6.8
0
VERTEX
10
9.23402
20
9.87608
30
6.8
0
VERTEX
10
9.24468
20
9.88674
30
6.8
0
VERTEX
10
9.24468
20
9.89207
30
6.8
0
VERTEX
10
9.25267
20
9.90273
30
6.8
0
VERTEX
10
9.25267
20
9.90805
30
6.8
0
VERTEX
10
9.26865
20
9.9267
30
6.8
0
VERTEX
10
9.27398
20
9.93736
30
6.8
0
VERTEX
10
9.27398
20
9.94269
30
6.8
0
VERTEX
10
9.27931
20
9.94535
30
6.8
0
VERTEX
10
9.27931
20
9.95068
30
6.8
0
VERTEX
10
9.28997
20
9.95867
30
6.8
0
VERTEX
10
9.29263
20
9.96933
30
6.8
0
VERTEX
10
9.29263
20
9.97466
30
6.8
0
VERTEX
10
9.30062
20
9.98531
30
6.8
0
VERTEX
10
9.30062
20
9.99064
30
6.8
0
VERTEX
10
9.30862
20
9.99864
30
6.8
0
VERTEX
10
9.31128
20
10.0093
30
6.8
0
VERTEX
10
9.30862
20
10.0306
30
6.8
0
VERTEX
10
9.30862
20
10.0413
30
6.8
0
VERTEX
10
9.30062
20
10.0626
30
6.8
0
VERTEX
10
9.29529
20
10.0732
30
6.8
0
VERTEX
10
9.28997
20
10.0732
30
6.8
0
VERTEX
10
9.27665
20
10.0919
30
6.8
0
VERTEX
10
9.26865
20
10.0999
30
6.8
0
VERTEX
10
9.26332
20
10.1212
30
6.8
0
VERTEX
10
9.26332
20
10.1318
30
6.8
0
VERTEX
10
9.26865
20
10.1425
30
6.8
0
VERTEX
10
9.27132
20
10.1638
30
6.8
0
VERTEX
10
9.27398
20
10.1745
30
6.8
0
VERTEX
10
9.27398
20
10.1798
30
6.8
0
VERTEX
10
9.27931
20
10.1851
30
6.8
0
VERTEX
10
9.28997
20
10.2278
30
6.8
0
VERTEX
10
9.29529
20
10.2704
30
6.8
0
VERTEX
10
9.30329
20
10.2784
30
6.8
0
VERTEX
10
9.30329
20
10.321
30
6.8
0
VERTEX
10
9.29796
20
10.3636
30
6.8
0
VERTEX
10
9.29796
20
10.3743
30
6.8
0
VERTEX
10
9.2873
20
10.3956
30
6.8
0
VERTEX
10
9.28197
20
10.4063
30
6.8
0
VERTEX
10
9.27665
20
10.4116
30
6.8
0
VERTEX
10
9.27665
20
10.4169
30
6.8
0
VERTEX
10
9.26066
20
10.4329
30
6.8
0
VERTEX
10
9.22603
20
10.4729
30
6.8
0
VERTEX
10
9.21271
20
10.4862
30
6.8
0
VERTEX
10
9.20205
20
10.4942
30
6.8
0
VERTEX
10
9.19139
20
10.5155
30
6.8
0
VERTEX
10
9.18074
20
10.5181
30
6.8
0
VERTEX
10
9.14077
20
10.5448
30
6.8
0
VERTEX
10
9.12212
20
10.5581
30
6.8
0
VERTEX
10
9.11147
20
10.5661
30
6.8
0
VERTEX
10
9.10614
20
10.5661
30
6.8
0
VERTEX
10
9.10347
20
10.5768
30
6.8
0
VERTEX
10
9.06884
20
10.6141
30
6.8
0
VERTEX
10
9.06085
20
10.6221
30
6.8
0
VERTEX
10
9.01822
20
10.6247
30
6.8
0
VERTEX
10
8.99691
20
10.6247
30
6.8
0
VERTEX
10
8.98625
20
10.6247
30
6.8
0
VERTEX
10
8.98092
20
10.6247
30
6.8
0
VERTEX
10
8.94629
20
10.5927
30
6.8
0
VERTEX
10
8.94629
20
10.5874
30
6.8
0
VERTEX
10
8.93563
20
10.5794
30
6.8
0
VERTEX
10
8.93297
20
10.5688
30
6.8
0
VERTEX
10
8.901
20
10.5288
30
6.8
0
VERTEX
10
8.89034
20
10.5075
30
6.8
0
VERTEX
10
8.88768
20
10.4968
30
6.8
0
VERTEX
10
8.87169
20
10.4755
30
6.8
0
VERTEX
10
8.85837
20
10.4329
30
6.8
0
VERTEX
10
8.85571
20
10.4116
30
6.8
0
VERTEX
10
8.85038
20
10.4063
30
6.8
0
VERTEX
10
8.85038
20
10.4009
30
6.8
0
VERTEX
10
8.84505
20
10.3956
30
6.8
0
VERTEX
10
8.83972
20
10.3743
30
6.8
0
VERTEX
10
8.83972
20
10.3636
30
6.8
0
VERTEX
10
8.83439
20
10.3583
30
6.8
0
VERTEX
10
8.83439
20
10.3476
30
6.8
0
VERTEX
10
8.8264
20
10.337
30
6.8
0
VERTEX
10
8.81841
20
10.3157
30
6.8
0
VERTEX
10
8.81841
20
10.305
30
6.8
0
VERTEX
10
8.81042
20
10.2837
30
6.8
0
VERTEX
10
8.81042
20
10.2624
30
6.8
0
VERTEX
10
8.80242
20
10.2198
30
6.8
0
VERTEX
10
8.79976
20
10.1984
30
6.8
0
VERTEX
10
8.78377
20
10.1558
30
6.8
0
VERTEX
10
8.78111
20
10.1345
30
6.8
0
VERTEX
10
8.77845
20
10.1239
30
6.8
0
VERTEX
10
8.76246
20
10.1025
30
6.8
0
VERTEX
10
8.75713
20
10.0972
30
6.8
0
VERTEX
10
8.74914
20
10.0759
30
6.8
0
VERTEX
10
8.74914
20
10.0706
30
6.8
0
VERTEX
10
8.74381
20
10.0652
30
6.8
0
VERTEX
10
8.74381
20
10.0599
30
6.8
0
VERTEX
10
8.73582
20
10.0519
30
6.8
0
VERTEX
10
8.73582
20
10.0466
30
6.8
0
VERTEX
10
8.7225
20
10.0333
30
6.8
0
VERTEX
10
8.71983
20
10.012
30
6.8
0
VERTEX
10
8.71983
20
10.0013
30
6.8
0
VERTEX
10
8.70385
20
9.97999
30
6.8
0
VERTEX
10
8.70118
20
9.96933
30
6.8
0
VERTEX
10
8.64257
20
9.89207
30
6.8
0
VERTEX
10
8.62392
20
9.85211
30
6.8
0
VERTEX
10
8.60794
20
9.83079
30
6.8
0
VERTEX
10
8.59995
20
9.82014
30
6.8
0
VERTEX
10
8.59995
20
9.81481
30
6.8
0
VERTEX
10
8.59462
20
9.80948
30
6.8
0
VERTEX
10
8.58929
20
9.78817
30
6.8
0
VERTEX
10
8.5813
20
9.78017
30
6.8
0
VERTEX
10
8.57064
20
9.77751
30
6.8
0
VERTEX
10
8.56798
20
9.76685
30
6.8
0
VERTEX
10
8.56265
20
9.76419
30
6.8
0
VERTEX
10
8.56265
20
9.75886
30
6.8
0
VERTEX
10
8.55465
20
9.7482
30
6.8
0
VERTEX
10
8.54933
20
9.74288
30
6.8
0
VERTEX
10
8.54666
20
9.73222
30
6.8
0
VERTEX
10
8.53068
20
9.71357
30
6.8
0
VERTEX
10
8.52801
20
9.70291
30
6.8
0
VERTEX
10
8.52801
20
9.69758
30
6.8
0
VERTEX
10
8.52268
20
9.69492
30
6.8
0
VERTEX
10
8.51203
20
9.65229
30
6.8
0
VERTEX
10
8.50936
20
9.63364
30
6.8
0
VERTEX
10
8.49604
20
9.59102
30
6.8
0
VERTEX
10
8.49071
20
9.5697
30
6.8
0
VERTEX
10
8.48539
20
9.55905
30
6.8
0
VERTEX
10
8.48272
20
9.53773
30
6.8
0
VERTEX
10
8.47739
20
9.53507
30
6.8
0
VERTEX
10
8.46674
20
9.49244
30
6.8
0
VERTEX
10
8.46674
20
9.48179
30
6.8
0
VERTEX
10
8.46674
20
9.47646
30
6.8
0
VERTEX
10
8.45874
20
9.46847
30
6.8
0
VERTEX
10
8.45608
20
9.42584
30
6.8
0
VERTEX
10
8.44542
20
9.4285
30
6.8
0
VERTEX
10
8.4401
20
9.4285
30
6.8
0
VERTEX
10
8.43743
20
9.41785
30
6.8
0
SEQEND
0
POLYLINE
62
99
66
1
70
1
3
postsynaptic_density
0
VERTEX
10
9.02685
20
10.554
30
6.8
0
VERTEX
10
9.03422
20
10.5485
30
6.8
0
VERTEX
10
9.0379
20
10.5485
30
6.8
0
VERTEX
10
9.04895
20
10.5356
30
6.8
0
VERTEX
10
9.06369
20
10.5209
30
6.8
0
VERTEX
10
9.08948
20
10.5025
30
6.8
0
VERTEX
10
9.09501
20
10.4951
30
6.8
0
VERTEX
10
9.09869
20
10.4914
30
6.8
0
VERTEX
10
9.10238
20
10.4914
30
6.8
0
VERTEX
10
9.11527
20
10.4822
30
6.8
0
VERTEX
10
9.12817
20
10.4693
30
6.8
0
VERTEX
10
9.1558
20
10.4564
30
6.8
0
VERTEX
10
9.1687
20
10.4454
30
6.8
0
VERTEX
10
9.17238
20
10.4435
30
6.8
0
VERTEX
10
9.17238
20
10.4398
30
6.8
0
VERTEX
10
9.18528
20
10.4269
30
6.8
0
VERTEX
10
9.18896
20
10.4269
30
6.8
0
VERTEX
10
9.21475
20
10.4011
30
6.8
0
VERTEX
10
9.22396
20
10.3864
30
6.8
0
VERTEX
10
9.23686
20
10.3735
30
6.8
0
VERTEX
10
9.24054
20
10.368
30
6.8
0
VERTEX
10
9.24423
20
10.3975
30
6.8
0
VERTEX
10
9.25344
20
10.4103
30
6.8
0
VERTEX
10
9.26634
20
10.4232
30
6.8
0
VERTEX
10
9.2737
20
10.4288
30
6.8
0
VERTEX
10
9.2737
20
10.4325
30
6.8
0
VERTEX
10
9.28844
20
10.4454
30
6.8
0
VERTEX
10
9.29765
20
10.4601
30
6.8
0
VERTEX
10
9.2995
20
10.4748
30
6.8
0
VERTEX
10
9.2995
20
10.4785
30
6.8
0
VERTEX
10
9.2866
20
10.4896
30
6.8
0
VERTEX
10
9.27555
20
10.5043
30
6.8
0
VERTEX
10
9.26081
20
10.5172
30
6.8
0
VERTEX
10
9.14291
20
10.5909
30
6.8
0
VERTEX
10
9.11343
20
10.6093
30
6.8
0
VERTEX
10
9.09869
20
10.6185
30
6.8
0
VERTEX
10
9.09132
20
10.624
30
6.8
0
VERTEX
10
9.08764
20
10.6259
30
6.8
0
VERTEX
10
9.07474
20
10.6148
30
6.8
0
VERTEX
10
9.06001
20
10.6075
30
6.8
0
VERTEX
10
9.0508
20
10.5946
30
6.8
0
VERTEX
10
9.0379
20
10.5835
30
6.8
0
VERTEX
10
9.0379
20
10.5798
30
6.8
0
VERTEX
10
9.03053
20
10.5743
30
6.8
0
VERTEX
10
9.02685
20
10.5669
30
6.8
0
VERTEX
10
9.02685
20
10.5596
30
6.8
0
VERTEX
10
9.02685
20
10.5559
30
6.8
0
SEQEND
0
POLYLINE
62
224
66
1
70
1
3
mitochondrion
0
VERTEX
10
8.66655
20
9.64541
30
6.8
0
VERTEX
10
8.66794
20
9.63429
30
6.8
0
VERTEX
10
8.66794
20
9.62873
30
6.8
0
VERTEX
10
8.67211
20
9.6176
30
6.8
0
VERTEX
10
8.68741
20
9.59814
30
6.8
0
VERTEX
10
8.69575
20
9.5884
30
6.8
0
VERTEX
10
8.69992
20
9.58284
30
6.8
0
VERTEX
10
8.71104
20
9.57867
30
6.8
0
VERTEX
10
8.72217
20
9.56755
30
6.8
0
VERTEX
10
8.73329
20
9.56199
30
6.8
0
VERTEX
10
8.74024
20
9.55225
30
6.8
0
VERTEX
10
8.7611
20
9.53835
30
6.8
0
VERTEX
10
8.78335
20
9.53001
30
6.8
0
VERTEX
10
8.78891
20
9.52723
30
6.8
0
VERTEX
10
8.79169
20
9.52723
30
6.8
0
VERTEX
10
8.79725
20
9.52305
30
6.8
0
VERTEX
10
8.80281
20
9.52166
30
6.8
0
VERTEX
10
8.80559
20
9.52166
30
6.8
0
VERTEX
10
8.81672
20
9.51332
30
6.8
0
VERTEX
10
8.83896
20
9.51054
30
6.8
0
VERTEX
10
8.86121
20
9.51054
30
6.8
0
VERTEX
10
8.88346
20
9.51332
30
6.8
0
VERTEX
10
8.9057
20
9.51888
30
6.8
0
VERTEX
10
8.9502
20
9.52305
30
6.8
0
VERTEX
10
8.97244
20
9.52444
30
6.8
0
VERTEX
10
8.98357
20
9.52444
30
6.8
0
VERTEX
10
8.99469
20
9.52862
30
6.8
0
VERTEX
10
9.00025
20
9.53001
30
6.8
0
VERTEX
10
9.00303
20
9.53001
30
6.8
0
VERTEX
10
9.0086
20
9.53418
30
6.8
0
VERTEX
10
9.01972
20
9.53696
30
6.8
0
VERTEX
10
9.03084
20
9.54391
30
6.8
0
VERTEX
10
9.05031
20
9.56338
30
6.8
0
VERTEX
10
9.06004
20
9.57311
30
6.8
0
VERTEX
10
9.06421
20
9.57867
30
6.8
0
VERTEX
10
9.06421
20
9.5898
30
6.8
0
VERTEX
10
9.06699
20
9.59536
30
6.8
0
VERTEX
10
9.0656
20
9.63985
30
6.8
0
VERTEX
10
9.05865
20
9.6621
30
6.8
0
VERTEX
10
9.05726
20
9.66766
30
6.8
0
VERTEX
10
9.05726
20
9.67044
30
6.8
0
VERTEX
10
9.04475
20
9.69269
30
6.8
0
VERTEX
10
9.0364
20
9.70381
30
6.8
0
VERTEX
10
9.02528
20
9.71076
30
6.8
0
VERTEX
10
9.01972
20
9.71632
30
6.8
0
VERTEX
10
9.01694
20
9.7205
30
6.8
0
VERTEX
10
9.00581
20
9.72884
30
6.8
0
VERTEX
10
8.99747
20
9.73857
30
6.8
0
VERTEX
10
8.98635
20
9.74135
30
6.8
0
VERTEX
10
8.9641
20
9.75108
30
6.8
0
VERTEX
10
8.94185
20
9.75804
30
6.8
0
VERTEX
10
8.93073
20
9.7636
30
6.8
0
VERTEX
10
8.921
20
9.76638
30
6.8
0
VERTEX
10
8.89875
20
9.76638
30
6.8
0
VERTEX
10
8.88763
20
9.76499
30
6.8
0
VERTEX
10
8.88207
20
9.76499
30
6.8
0
VERTEX
10
8.87929
20
9.76221
30
6.8
0
VERTEX
10
8.86816
20
9.76082
30
6.8
0
VERTEX
10
8.85704
20
9.75526
30
6.8
0
VERTEX
10
8.85426
20
9.75526
30
6.8
0
VERTEX
10
8.85009
20
9.75108
30
6.8
0
VERTEX
10
8.83896
20
9.7483
30
6.8
0
VERTEX
10
8.8334
20
9.74413
30
6.8
0
VERTEX
10
8.82228
20
9.74135
30
6.8
0
VERTEX
10
8.81672
20
9.73857
30
6.8
0
VERTEX
10
8.81115
20
9.73857
30
6.8
0
VERTEX
10
8.80003
20
9.73301
30
6.8
0
VERTEX
10
8.75554
20
9.7344
30
6.8
0
VERTEX
10
8.74441
20
9.73301
30
6.8
0
VERTEX
10
8.73329
20
9.72745
30
6.8
0
VERTEX
10
8.72773
20
9.72467
30
6.8
0
VERTEX
10
8.72495
20
9.72467
30
6.8
0
VERTEX
10
8.72217
20
9.72189
30
6.8
0
VERTEX
10
8.71104
20
9.7205
30
6.8
0
VERTEX
10
8.70548
20
9.71911
30
6.8
0
VERTEX
10
8.7027
20
9.71632
30
6.8
0
VERTEX
10
8.68045
20
9.71076
30
6.8
0
VERTEX
10
8.67767
20
9.71076
30
6.8
0
VERTEX
10
8.67072
20
9.69964
30
6.8
0
VERTEX
10
8.67072
20
9.68852
30
6.8
0
VERTEX
10
8.66794
20
9.67739
30
6.8
0
VERTEX
10
8.66655
20
9.65515
30
6.8
0
VERTEX
10
8.66655
20
9.64958
30
6.8
0
VERTEX
10
8.66655
20
9.6468
30
6.8
0
SEQEND
0
POLYLINE
62
227
66
1
70
1
3
endoplasmic_reticulum
0
VERTEX
10
8.75477
20
9.87456
30
6.8
0
VERTEX
10
8.75657
20
9.86021
30
6.8
0
VERTEX
10
8.75836
20
9.85304
30
6.8
0
VERTEX
10
8.76015
20
9.84946
30
6.8
0
VERTEX
10
8.76015
20
9.84766
30
6.8
0
VERTEX
10
8.76374
20
9.84497
30
6.8
0
VERTEX
10
8.77091
20
9.84587
30
6.8
0
VERTEX
10
8.7745
20
9.84587
30
6.8
0
VERTEX
10
8.78794
20
9.85125
30
6.8
0
VERTEX
10
8.79512
20
9.85394
30
6.8
0
VERTEX
10
8.8005
20
9.85932
30
6.8
0
VERTEX
10
8.80229
20
9.86201
30
6.8
0
VERTEX
10
8.80946
20
9.86649
30
6.8
0
VERTEX
10
8.81126
20
9.86649
30
6.8
0
VERTEX
10
8.81484
20
9.87008
30
6.8
0
VERTEX
10
8.81574
20
9.87187
30
6.8
0
VERTEX
10
8.81932
20
9.87277
30
6.8
0
VERTEX
10
8.8247
20
9.87994
30
6.8
0
VERTEX
10
8.8247
20
9.88711
30
6.8
0
VERTEX
10
8.82201
20
9.90146
30
6.8
0
VERTEX
10
8.81753
20
9.90863
30
6.8
0
VERTEX
10
8.80319
20
9.91132
30
6.8
0
VERTEX
10
8.79601
20
9.91132
30
6.8
0
VERTEX
10
8.78884
20
9.90863
30
6.8
0
VERTEX
10
8.78705
20
9.90594
30
6.8
0
VERTEX
10
8.77988
20
9.90146
30
6.8
0
VERTEX
10
8.77719
20
9.90056
30
6.8
0
VERTEX
10
8.77629
20
9.89877
30
6.8
0
VERTEX
10
8.76912
20
9.89966
30
6.8
0
VERTEX
10
8.76553
20
9.90056
30
6.8
0
VERTEX
10
8.76015
20
9.89428
30
6.8
0
VERTEX
10
8.75746
20
9.8907
30
6.8
0
VERTEX
10
8.75746
20
9.8889
30
6.8
0
VERTEX
10
8.75567
20
9.88711
30
6.8
0
VERTEX
10
8.75477
20
9.87994
30
6.8
0
VERTEX
10
8.75477
20
9.87635
30
6.8
0
VERTEX
10
8.75477
20
9.87546
30
6.8
0
SEQEND
0
POLYLINE
62
227
66
1
70
1
3
endoplasmic_reticulum
0
VERTEX
10
8.96636
20
9.80373
30
6.8
0
VERTEX
10
8.96815
20
9.79656
30
6.8
0
VERTEX
10
8.96905
20
9.79297
30
6.8
0
VERTEX
10
8.97174
20
9.78939
30
6.8
0
VERTEX
10
8.97532
20
9.78849
30
6.8
0
VERTEX
10
8.97622
20
9.7867
30
6.8
0
VERTEX
10
8.97801
20
9.7867
30
6.8
0
VERTEX
10
8.98967
20
9.77415
30
6.8
0
VERTEX
10
8.99505
20
9.76787
30
6.8
0
VERTEX
10
8.99863
20
9.76697
30
6.8
0
VERTEX
10
9.00491
20
9.7607
30
6.8
0
VERTEX
10
9.01118
20
9.75621
30
6.8
0
VERTEX
10
9.01477
20
9.75532
30
6.8
0
VERTEX
10
9.01746
20
9.75173
30
6.8
0
VERTEX
10
9.02463
20
9.74815
30
6.8
0
VERTEX
10
9.02822
20
9.74635
30
6.8
0
VERTEX
10
9.03001
20
9.74635
30
6.8
0
VERTEX
10
9.0336
20
9.74366
30
6.8
0
VERTEX
10
9.0336
20
9.74187
30
6.8
0
VERTEX
10
9.03718
20
9.74008
30
6.8
0
VERTEX
10
9.05153
20
9.73918
30
6.8
0
VERTEX
10
9.05512
20
9.74187
30
6.8
0
VERTEX
10
9.05691
20
9.74187
30
6.8
0
VERTEX
10
9.06049
20
9.74456
30
6.8
0
VERTEX
10
9.06139
20
9.75173
30
6.8
0
VERTEX
10
9.0587
20
9.75532
30
6.8
0
VERTEX
10
9.0587
20
9.76249
30
6.8
0
VERTEX
10
9.05512
20
9.76518
30
6.8
0
VERTEX
10
9.04705
20
9.77952
30
6.8
0
VERTEX
10
9.04525
20
9.77952
30
6.8
0
VERTEX
10
9.03987
20
9.7849
30
6.8
0
VERTEX
10
9.03718
20
9.79208
30
6.8
0
VERTEX
10
9.0336
20
9.79387
30
6.8
0
VERTEX
10
9.03091
20
9.79746
30
6.8
0
VERTEX
10
9.02912
20
9.79746
30
6.8
0
VERTEX
10
9.02643
20
9.80104
30
6.8
0
VERTEX
10
9.02284
20
9.80284
30
6.8
0
VERTEX
10
9.02105
20
9.80463
30
6.8
0
VERTEX
10
9.01925
20
9.80463
30
6.8
0
VERTEX
10
9.01656
20
9.80821
30
6.8
0
VERTEX
10
9.01029
20
9.8127
30
6.8
0
VERTEX
10
9.0067
20
9.81359
30
6.8
0
VERTEX
10
9.00132
20
9.81808
30
6.8
0
VERTEX
10
8.99953
20
9.81987
30
6.8
0
VERTEX
10
8.98519
20
9.82435
30
6.8
0
VERTEX
10
8.98339
20
9.82525
30
6.8
0
VERTEX
10
8.96905
20
9.81987
30
6.8
0
VERTEX
10
8.96725
20
9.81987
30
6.8
0
VERTEX
10
8.96636
20
9.80552
30
6.8
0
VERTEX
10
8.96636
20
9.80463
30
6.8
0
SEQEND
0
POLYLINE
62
227
66
1
70
1
3
endoplasmic_reticulum
0
VERTEX
10
8.97353
20
9.87994
30
6.8
0
VERTEX
10
8.97532
20
9.87277
30
6.8
0
VERTEX
10
8.97622
20
9.86918
30
6.8
0
VERTEX
10
8.98339
20
9.8647
30
6.8
0
VERTEX
10
8.98698
20
9.8629
30
6.8
0
VERTEX
10
8.99056
20
9.8629
30
6.8
0
VERTEX
10
8.99774
20
9.86021
30
6.8
0
VERTEX
10
9.00491
20
9.86111
30
6.8
0
VERTEX
10
9.0085
20
9.8629
30
6.8
0
VERTEX
10
9.00939
20
9.8647
30
6.8
0
VERTEX
10
9.01298
20
9.86559
30
6.8
0
VERTEX
10
9.01836
20
9.87187
30
6.8
0
VERTEX
10
9.02015
20
9.87366
30
6.8
0
VERTEX
10
9.01836
20
9.88801
30
6.8
0
VERTEX
10
9.01656
20
9.89159
30
6.8
0
VERTEX
10
9.01656
20
9.89339
30
6.8
0
VERTEX
10
9.01477
20
9.89518
30
6.8
0
VERTEX
10
9.01118
20
9.89608
30
6.8
0
VERTEX
10
9.0076
20
9.89877
30
6.8
0
VERTEX
10
9.00581
20
9.90056
30
6.8
0
VERTEX
10
8.99146
20
9.89966
30
6.8
0
VERTEX
10
8.98429
20
9.89966
30
6.8
0
VERTEX
10
8.97801
20
9.89428
30
6.8
0
VERTEX
10
8.97443
20
9.89159
30
6.8
0
VERTEX
10
8.97353
20
9.88442
30
6.8
0
VERTEX
10
8.97353
20
9.88083
30
6.8
0
SEQEND
0
POLYLINE
62
227
66
1
70
1
3
endoplasmic_reticulum
0
VERTEX
10
9.04824
20
10.2165
30
6.8
0
VERTEX
10
9.05489
20
10.2098
30
6.8
0
VERTEX
10
9.06818
20
10.2098
30
6.8
0
VERTEX
10
9.07483
20
10.2115
30
6.8
0
VERTEX
10
9.0848
20
10.2214
30
6.8
0
VERTEX
10
9.0848
20
10.2248
30
6.8
0
VERTEX
10
9.08978
20
10.2314
30
6.8
0
VERTEX
10
9.09311
20
10.2447
30
6.8
0
VERTEX
10
9.09145
20
10.248
30
6.8
0
VERTEX
10
9.07815
20
10.248
30
6.8
0
VERTEX
10
9.07483
20
10.248
30
6.8
0
VERTEX
10
9.0632
20
10.2381
30
6.8
0
VERTEX
10
9.05156
20
10.2248
30
6.8
0
VERTEX
10
9.04824
20
10.2181
30
6.8
0
SEQEND
0
POLYLINE
62
31
66
1
70
1
3
contour
0
VERTEX
10
8.28378
20
9.13498
30
6.8
0
VERTEX
10
8.28555
20
9.12083
30
6.8
0
VERTEX
10
8.29086
20
9.11552
30
6.8
0
VERTEX
10
8.29086
20
9.10844
30
6.8
0
VERTEX
10
8.28732
20
9.10136
30
6.8
0
VERTEX
10
8.28732
20
9.09428
30
6.8
0
VERTEX
10
8.29086
20
9.09074
30
6.8
0
VERTEX
10
8.29263
20
9.08366
30
6.8
0
VERTEX
10
8.31917
20
9.06066
30
6.8
0
VERTEX
10
8.34749
20
9.06066
30
6.8
0
VERTEX
10
8.3758
20
9.0642
30
6.8
0
VERTEX
10
8.38111
20
9.06951
30
6.8
0
VERTEX
10
8.38465
20
9.06951
30
6.8
0
VERTEX
10
8.38819
20
9.07305
30
6.8
0
VERTEX
10
8.38819
20
9.07658
30
6.8
0
VERTEX
10
8.39527
20
9.07835
30
6.8
0
VERTEX
10
8.40942
20
9.0872
30
6.8
0
VERTEX
10
8.41473
20
9.09428
30
6.8
0
VERTEX
10
8.42181
20
9.09782
30
6.8
0
VERTEX
10
8.42889
20
9.09782
30
6.8
0
VERTEX
10
8.43597
20
9.10136
30
6.8
0
VERTEX
10
8.43951
20
9.10136
30
6.8
0
VERTEX
10
8.44128
20
9.1049
30
6.8
0
VERTEX
10
8.45543
20
9.11021
30
6.8
0
VERTEX
10
8.46605
20
9.12083
30
6.8
0
VERTEX
10
8.47136
20
9.12614
30
6.8
0
VERTEX
10
8.47136
20
9.12967
30
6.8
0
VERTEX
10
8.49791
20
9.1456
30
6.8
0
VERTEX
10
8.50145
20
9.14914
30
6.8
0
VERTEX
10
8.50498
20
9.14914
30
6.8
0
VERTEX
10
8.51206
20
9.15445
30
6.8
0
VERTEX
10
8.51206
20
9.15799
30
6.8
0
VERTEX
10
8.52445
20
9.16861
30
6.8
0
VERTEX
10
8.52445
20
9.17215
30
6.8
0
VERTEX
10
8.53861
20
9.17923
30
6.8
0
VERTEX
10
8.551
20
9.18984
30
6.8
0
VERTEX
10
8.55454
20
9.18984
30
6.8
0
VERTEX
10
8.56515
20
9.20223
30
6.8
0
VERTEX
10
8.57046
20
9.20931
30
6.8
0
VERTEX
10
8.56869
20
9.23762
30
6.8
0
VERTEX
10
8.55984
20
9.25178
30
6.8
0
VERTEX
10
8.55454
20
9.25709
30
6.8
0
VERTEX
10
8.551
20
9.25886
30
6.8
0
VERTEX
10
8.551
20
9.2624
30
6.8
0
VERTEX
10
8.53684
20
9.27125
30
6.8
0
VERTEX
10
8.48021
20
9.29248
30
6.8
0
VERTEX
10
8.46605
20
9.29425
30
6.8
0
VERTEX
10
8.45897
20
9.29779
30
6.8
0
VERTEX
10
8.40234
20
9.29602
30
6.8
0
VERTEX
10
8.37403
20
9.29602
30
6.8
0
VERTEX
10
8.36695
20
9.29425
30
6.8
0
VERTEX
10
8.35279
20
9.2854
30
6.8
0
VERTEX
10
8.34572
20
9.28187
30
6.8
0
VERTEX
10
8.34218
20
9.28187
30
6.8
0
VERTEX
10
8.33864
20
9.27656
30
6.8
0
VERTEX
10
8.33156
20
9.27656
30
6.8
0
VERTEX
10
8.32271
20
9.26417
30
6.8
0
VERTEX
10
8.31917
20
9.25001
30
6.8
0
VERTEX
10
8.31209
20
9.23585
30
6.8
0
VERTEX
10
8.30855
20
9.22878
30
6.8
0
VERTEX
10
8.30855
20
9.21462
30
6.8
0
VERTEX
10
8.30678
20
9.20931
30
6.8
0
VERTEX
10
8.30324
20
9.20931
30
6.8
0
VERTEX
10
8.29086
20
9.19515
30
6.8
0
VERTEX
10
8.28555
20
9.18984
30
6.8
0
VERTEX
10
8.28378
20
9.16153
30
6.8
0
VERTEX
10
8.28378
20
9.14737
30
6.8
0
VERTEX
10
8.28378
20
9.14029
30
6.8
0
VERTEX
10
8.28378
20
9.13675
30
6.8
0
SEQEND
0
POLYLINE
62
31
66
1
70
1
3
contour
0
VERTEX
10
7.96878
20
9.2217
30
6.8
0
VERTEX
10
7.98117
20
9.21285
30
6.8
0
VERTEX
10
8.00948
20
9.21462
30
6.8
0
VERTEX
10
8.01656
20
9.21462
30
6.8
0
VERTEX
10
8.02364
20
9.21993
30
6.8
0
VERTEX
10
8.03779
20
9.22524
30
6.8
0
VERTEX
10
8.05195
20
9.23408
30
6.8
0
VERTEX
10
8.05549
20
9.23408
30
6.8
0
VERTEX
10
8.06257
20
9.24116
30
6.8
0
VERTEX
10
8.06434
20
9.2447
30
6.8
0
VERTEX
10
8.07142
20
9.24647
30
6.8
0
VERTEX
10
8.09619
20
9.26594
30
6.8
0
VERTEX
10
8.09796
20
9.26948
30
6.8
0
VERTEX
10
8.10504
20
9.26948
30
6.8
0
VERTEX
10
8.10858
20
9.27125
30
6.8
0
VERTEX
10
8.10858
20
9.27479
30
6.8
0
VERTEX
10
8.11566
20
9.27833
30
6.8
0
VERTEX
10
8.12451
20
9.29248
30
6.8
0
VERTEX
10
8.12805
20
9.29602
30
6.8
0
VERTEX
10
8.12805
20
9.29956
30
6.8
0
VERTEX
10
8.13513
20
9.29956
30
6.8
0
VERTEX
10
8.1599
20
9.31903
30
6.8
0
VERTEX
10
8.16521
20
9.32257
30
6.8
0
VERTEX
10
8.17937
20
9.32434
30
6.8
0
VERTEX
10
8.18645
20
9.33142
30
6.8
0
VERTEX
10
8.2006
20
9.33319
30
6.8
0
VERTEX
10
8.21476
20
9.33849
30
6.8
0
VERTEX
10
8.22184
20
9.3438
30
6.8
0
VERTEX
10
8.23423
20
9.34911
30
6.8
0
VERTEX
10
8.24131
20
9.35088
30
6.8
0
VERTEX
10
8.24838
20
9.35619
30
6.8
0
VERTEX
10
8.25546
20
9.35796
30
6.8
0
VERTEX
10
8.259
20
9.3615
30
6.8
0
VERTEX
10
8.27316
20
9.36327
30
6.8
0
VERTEX
10
8.2767
20
9.36858
30
6.8
0
VERTEX
10
8.2767
20
9.38274
30
6.8
0
VERTEX
10
8.26254
20
9.38451
30
6.8
0
VERTEX
10
8.25546
20
9.38274
30
6.8
0
VERTEX
10
8.25369
20
9.3792
30
6.8
0
VERTEX
10
8.24661
20
9.3792
30
6.8
0
VERTEX
10
8.23246
20
9.37389
30
6.8
0
VERTEX
10
8.22892
20
9.37035
30
6.8
0
VERTEX
10
8.17229
20
9.36858
30
6.8
0
VERTEX
10
8.14397
20
9.37035
30
6.8
0
VERTEX
10
8.08735
20
9.36681
30
6.8
0
VERTEX
10
8.05903
20
9.36504
30
6.8
0
VERTEX
10
8.05195
20
9.3615
30
6.8
0
VERTEX
10
8.03779
20
9.35973
30
6.8
0
VERTEX
10
8.03072
20
9.35973
30
6.8
0
VERTEX
10
8.01833
20
9.35088
30
6.8
0
VERTEX
10
8.01125
20
9.34911
30
6.8
0
VERTEX
10
7.99886
20
9.33672
30
6.8
0
VERTEX
10
7.99886
20
9.32257
30
6.8
0
VERTEX
10
7.99355
20
9.31018
30
6.8
0
VERTEX
10
7.98824
20
9.30133
30
6.8
0
VERTEX
10
7.98647
20
9.29425
30
6.8
0
VERTEX
10
7.98647
20
9.29071
30
6.8
0
VERTEX
10
7.98294
20
9.28717
30
6.8
0
VERTEX
10
7.98117
20
9.27302
30
6.8
0
VERTEX
10
7.9794
20
9.26594
30
6.8
0
VERTEX
10
7.97586
20
9.2624
30
6.8
0
VERTEX
10
7.97409
20
9.24824
30
6.8
0
VERTEX
10
7.96878
20
9.23408
30
6.8
0
VERTEX
10
7.96878
20
9.22701
30
6.8
0
VERTEX
10
7.96878
20
9.22347
30
6.8
0
SEQEND
0
ENDSEC
0
EOF
