0
SECTION
2
ENTITIES
0
POLYLINE
62
31
66
1
70
1
3
contour
0
VERTEX
10
7.81184
20
7.73811
30
4.2
0
VERTEX
10
7.81799
20
7.72172
30
4.2
0
VERTEX
10
7.82413
20
7.68895
30
4.2
0
VERTEX
10
7.84257
20
7.65618
30
4.2
0
VERTEX
10
7.85486
20
7.63979
30
4.2
0
VERTEX
10
7.85895
20
7.6357
30
4.2
0
VERTEX
10
7.85895
20
7.6316
30
4.2
0
VERTEX
10
7.86305
20
7.62751
30
4.2
0
VERTEX
10
7.86305
20
7.62341
30
4.2
0
VERTEX
10
7.86715
20
7.61931
30
4.2
0
VERTEX
10
7.86715
20
7.61522
30
4.2
0
VERTEX
10
7.87534
20
7.60702
30
4.2
0
VERTEX
10
7.87739
20
7.59883
30
4.2
0
VERTEX
10
7.88763
20
7.58245
30
4.2
0
VERTEX
10
7.89172
20
7.57835
30
4.2
0
VERTEX
10
7.95727
20
7.5763
30
4.2
0
VERTEX
10
7.99004
20
7.5804
30
4.2
0
VERTEX
10
8.02281
20
7.59064
30
4.2
0
VERTEX
10
8.03919
20
7.59269
30
4.2
0
VERTEX
10
8.04739
20
7.59473
30
4.2
0
VERTEX
10
8.06172
20
7.60702
30
4.2
0
VERTEX
10
8.07811
20
7.61522
30
4.2
0
VERTEX
10
8.0863
20
7.61726
30
4.2
0
VERTEX
10
8.0945
20
7.62546
30
4.2
0
VERTEX
10
8.10269
20
7.62546
30
4.2
0
VERTEX
10
8.10678
20
7.62546
30
4.2
0
VERTEX
10
8.12112
20
7.63979
30
4.2
0
VERTEX
10
8.12932
20
7.63979
30
4.2
0
VERTEX
10
8.1457
20
7.64594
30
4.2
0
VERTEX
10
8.15389
20
7.64799
30
4.2
0
VERTEX
10
8.16209
20
7.65413
30
4.2
0
VERTEX
10
8.17028
20
7.65413
30
4.2
0
VERTEX
10
8.17847
20
7.65823
30
4.2
0
VERTEX
10
8.18257
20
7.65823
30
4.2
0
VERTEX
10
8.21329
20
7.68076
30
4.2
0
VERTEX
10
8.22968
20
7.6869
30
4.2
0
VERTEX
10
8.29522
20
7.72172
30
4.2
0
VERTEX
10
8.32594
20
7.74835
30
4.2
0
VERTEX
10
8.33004
20
7.75245
30
4.2
0
VERTEX
10
8.33414
20
7.75245
30
4.2
0
VERTEX
10
8.34642
20
7.76678
30
4.2
0
VERTEX
10
8.35052
20
7.76678
30
4.2
0
VERTEX
10
8.35462
20
7.77088
30
4.2
0
VERTEX
10
8.36281
20
7.80365
30
4.2
0
VERTEX
10
8.36281
20
7.81184
30
4.2
0
VERTEX
10
8.36691
20
7.82004
30
4.2
0
VERTEX
10
8.36691
20
7.83642
30
4.2
0
VERTEX
10
8.36691
20
7.84461
30
4.2
0
VERTEX
10
8.37305
20
7.861
30
4.2
0
VERTEX
10
8.3792
20
7.89377
30
4.2
0
VERTEX
10
8.38124
20
7.92654
30
4.2
0
VERTEX
10
8.38534
20
7.94293
30
4.2
0
VERTEX
10
8.38739
20
7.95112
30
4.2
0
VERTEX
10
8.39148
20
7.95522
30
4.2
0
VERTEX
10
8.39558
20
7.9716
30
4.2
0
VERTEX
10
8.39763
20
7.9798
30
4.2
0
VERTEX
10
8.39763
20
7.98389
30
4.2
0
VERTEX
10
8.40173
20
7.98799
30
4.2
0
VERTEX
10
8.40377
20
7.99618
30
4.2
0
VERTEX
10
8.41606
20
8.01257
30
4.2
0
VERTEX
10
8.42221
20
8.02076
30
4.2
0
VERTEX
10
8.4263
20
8.02281
30
4.2
0
VERTEX
10
8.4263
20
8.0269
30
4.2
0
VERTEX
10
8.43859
20
8.03919
30
4.2
0
VERTEX
10
8.46112
20
8.06992
30
4.2
0
VERTEX
10
8.46522
20
8.07401
30
4.2
0
VERTEX
10
8.46932
20
8.07401
30
4.2
0
VERTEX
10
8.47751
20
8.0904
30
4.2
0
VERTEX
10
8.48161
20
8.09859
30
4.2
0
VERTEX
10
8.4857
20
8.10269
30
4.2
0
VERTEX
10
8.4898
20
8.13546
30
4.2
0
VERTEX
10
8.4898
20
8.16823
30
4.2
0
VERTEX
10
8.4898
20
8.17642
30
4.2
0
VERTEX
10
8.50004
20
8.19076
30
4.2
0
VERTEX
10
8.50618
20
8.19895
30
4.2
0
VERTEX
10
8.51438
20
8.201
30
4.2
0
VERTEX
10
8.51847
20
8.201
30
4.2
0
VERTEX
10
8.52052
20
8.2051
30
4.2
0
VERTEX
10
8.55329
20
8.20305
30
4.2
0
VERTEX
10
8.56149
20
8.20305
30
4.2
0
VERTEX
10
8.56558
20
8.20305
30
4.2
0
VERTEX
10
8.56968
20
8.19895
30
4.2
0
VERTEX
10
8.57787
20
8.201
30
4.2
0
VERTEX
10
8.57787
20
8.2051
30
4.2
0
VERTEX
10
8.59426
20
8.20715
30
4.2
0
VERTEX
10
8.60859
20
8.21329
30
4.2
0
VERTEX
10
8.62498
20
8.21329
30
4.2
0
VERTEX
10
8.65775
20
8.21944
30
4.2
0
VERTEX
10
8.67414
20
8.21739
30
4.2
0
VERTEX
10
8.68233
20
8.21739
30
4.2
0
VERTEX
10
8.68643
20
8.21739
30
4.2
0
VERTEX
10
8.69052
20
8.22148
30
4.2
0
VERTEX
10
8.69462
20
8.22148
30
4.2
0
VERTEX
10
8.69872
20
8.22558
30
4.2
0
VERTEX
10
8.70281
20
8.22558
30
4.2
0
VERTEX
10
8.70691
20
8.22968
30
4.2
0
VERTEX
10
8.73763
20
8.24197
30
4.2
0
VERTEX
10
8.74173
20
8.24606
30
4.2
0
VERTEX
10
8.74582
20
8.24606
30
4.2
0
VERTEX
10
8.76221
20
8.2563
30
4.2
0
VERTEX
10
8.82775
20
8.26859
30
4.2
0
VERTEX
10
8.84414
20
8.26859
30
4.2
0
VERTEX
10
8.86052
20
8.27474
30
4.2
0
VERTEX
10
8.89329
20
8.27679
30
4.2
0
VERTEX
10
8.90149
20
8.27269
30
4.2
0
VERTEX
10
9.16366
20
8.27883
30
4.2
0
VERTEX
10
9.2292
20
8.28088
30
4.2
0
VERTEX
10
9.26197
20
8.27883
30
4.2
0
VERTEX
10
9.29474
20
8.28088
30
4.2
0
VERTEX
10
9.32751
20
8.27679
30
4.2
0
VERTEX
10
9.36028
20
8.27679
30
4.2
0
VERTEX
10
9.36848
20
8.27269
30
4.2
0
VERTEX
10
9.40125
20
8.27064
30
4.2
0
VERTEX
10
9.46679
20
8.2604
30
4.2
0
VERTEX
10
9.49956
20
8.25426
30
4.2
0
VERTEX
10
9.51595
20
8.25221
30
4.2
0
VERTEX
10
9.52414
20
8.24811
30
4.2
0
VERTEX
10
9.58968
20
8.24811
30
4.2
0
VERTEX
10
9.60607
20
8.24811
30
4.2
0
VERTEX
10
9.61426
20
8.24811
30
4.2
0
VERTEX
10
9.62245
20
8.24401
30
4.2
0
VERTEX
10
9.63065
20
8.24401
30
4.2
0
VERTEX
10
9.63884
20
8.23992
30
4.2
0
VERTEX
10
9.67161
20
8.23787
30
4.2
0
VERTEX
10
9.688
20
8.23173
30
4.2
0
VERTEX
10
9.70438
20
8.22968
30
4.2
0
VERTEX
10
9.72077
20
8.22353
30
4.2
0
VERTEX
10
9.78631
20
8.21534
30
4.2
0
VERTEX
10
9.81908
20
8.21739
30
4.2
0
VERTEX
10
9.83547
20
8.21739
30
4.2
0
VERTEX
10
9.83956
20
8.21739
30
4.2
0
VERTEX
10
9.8539
20
8.22968
30
4.2
0
VERTEX
10
9.86824
20
8.24606
30
4.2
0
VERTEX
10
9.90101
20
8.26859
30
4.2
0
VERTEX
10
9.9092
20
8.27474
30
4.2
0
VERTEX
10
9.9174
20
8.27474
30
4.2
0
VERTEX
10
9.92968
20
8.28907
30
4.2
0
VERTEX
10
9.94607
20
8.29932
30
4.2
0
VERTEX
10
9.95017
20
8.30136
30
4.2
0
VERTEX
10
9.95017
20
8.30956
30
4.2
0
VERTEX
10
9.95017
20
8.31365
30
4.2
0
VERTEX
10
9.95836
20
8.3198
30
4.2
0
VERTEX
10
9.96041
20
8.32594
30
4.2
0
VERTEX
10
9.97065
20
8.34233
30
4.2
0
VERTEX
10
9.97475
20
8.35871
30
4.2
0
VERTEX
10
9.98089
20
8.36691
30
4.2
0
VERTEX
10
9.98294
20
8.3751
30
4.2
0
VERTEX
10
9.98908
20
8.38329
30
4.2
0
VERTEX
10
9.99113
20
8.39148
30
4.2
0
VERTEX
10
10.0014
20
8.40582
30
4.2
0
VERTEX
10
10.0075
20
8.42221
30
4.2
0
VERTEX
10
10.0096
20
8.4304
30
4.2
0
VERTEX
10
10.0137
20
8.4345
30
4.2
0
VERTEX
10
10.0116
20
8.50004
30
4.2
0
VERTEX
10
10.0075
20
8.51643
30
4.2
0
VERTEX
10
10.0034
20
8.52462
30
4.2
0
VERTEX
10
10.0034
20
8.53281
30
4.2
0
VERTEX
10
10.0034
20
8.53691
30
4.2
0
VERTEX
10
9.99932
20
8.541
30
4.2
0
VERTEX
10
9.99318
20
8.57378
30
4.2
0
VERTEX
10
9.98703
20
8.59016
30
4.2
0
VERTEX
10
9.97679
20
8.6045
30
4.2
0
VERTEX
10
9.97065
20
8.61884
30
4.2
0
VERTEX
10
9.9686
20
8.63522
30
4.2
0
VERTEX
10
9.96041
20
8.65161
30
4.2
0
VERTEX
10
9.95631
20
8.65365
30
4.2
0
VERTEX
10
9.95426
20
8.66185
30
4.2
0
VERTEX
10
9.94402
20
8.67823
30
4.2
0
VERTEX
10
9.93173
20
8.70896
30
4.2
0
VERTEX
10
9.91125
20
8.74173
30
4.2
0
VERTEX
10
9.89896
20
8.75607
30
4.2
0
VERTEX
10
9.88258
20
8.7704
30
4.2
0
VERTEX
10
9.87643
20
8.7786
30
4.2
0
VERTEX
10
9.87234
20
8.7786
30
4.2
0
VERTEX
10
9.86005
20
8.79293
30
4.2
0
VERTEX
10
9.8539
20
8.80113
30
4.2
0
VERTEX
10
9.84981
20
8.80317
30
4.2
0
VERTEX
10
9.84981
20
8.80727
30
4.2
0
VERTEX
10
9.84161
20
8.81137
30
4.2
0
VERTEX
10
9.83547
20
8.81956
30
4.2
0
VERTEX
10
9.82727
20
8.82161
30
4.2
0
VERTEX
10
9.81908
20
8.82775
30
4.2
0
VERTEX
10
9.81089
20
8.82775
30
4.2
0
VERTEX
10
9.77812
20
8.84209
30
4.2
0
VERTEX
10
9.76993
20
8.84209
30
4.2
0
VERTEX
10
9.76378
20
8.85028
30
4.2
0
VERTEX
10
9.74739
20
8.86052
30
4.2
0
VERTEX
10
9.7433
20
8.86052
30
4.2
0
VERTEX
10
9.7433
20
8.86462
30
4.2
0
VERTEX
10
9.7392
20
8.86872
30
4.2
0
VERTEX
10
9.73101
20
8.87076
30
4.2
0
VERTEX
10
9.72896
20
8.87486
30
4.2
0
VERTEX
10
9.69619
20
8.88305
30
4.2
0
VERTEX
10
9.66342
20
8.89534
30
4.2
0
VERTEX
10
9.59788
20
8.90968
30
4.2
0
VERTEX
10
9.5651
20
8.91992
30
4.2
0
VERTEX
10
9.54872
20
8.93016
30
4.2
0
VERTEX
10
9.48318
20
8.93016
30
4.2
0
VERTEX
10
9.45041
20
8.92607
30
4.2
0
VERTEX
10
9.44631
20
8.92607
30
4.2
0
VERTEX
10
9.44221
20
8.92197
30
4.2
0
VERTEX
10
9.42583
20
8.91787
30
4.2
0
VERTEX
10
9.40944
20
8.91787
30
4.2
0
VERTEX
10
9.40535
20
8.91378
30
4.2
0
VERTEX
10
9.3398
20
8.90354
30
4.2
0
VERTEX
10
9.30703
20
8.89739
30
4.2
0
VERTEX
10
9.29065
20
8.89534
30
4.2
0
VERTEX
10
9.28245
20
8.89125
30
4.2
0
VERTEX
10
9.27836
20
8.89125
30
4.2
0
VERTEX
10
9.26197
20
8.88101
30
4.2
0
VERTEX
10
9.24559
20
8.87691
30
4.2
0
VERTEX
10
9.23739
20
8.87486
30
4.2
0
VERTEX
10
9.2333
20
8.87076
30
4.2
0
VERTEX
10
9.20052
20
8.86052
30
4.2
0
VERTEX
10
9.18619
20
8.84823
30
4.2
0
VERTEX
10
9.18209
20
8.84414
30
4.2
0
VERTEX
10
9.16571
20
8.84004
30
4.2
0
VERTEX
10
9.15137
20
8.8298
30
4.2
0
VERTEX
10
9.13908
20
8.81546
30
4.2
0
VERTEX
10
9.12269
20
8.80727
30
4.2
0
VERTEX
10
9.1145
20
8.80317
30
4.2
0
VERTEX
10
9.10631
20
8.79498
30
4.2
0
VERTEX
10
9.10016
20
8.79293
30
4.2
0
VERTEX
10
9.06739
20
8.76426
30
4.2
0
VERTEX
10
9.03667
20
8.74173
30
4.2
0
VERTEX
10
9.02028
20
8.73558
30
4.2
0
VERTEX
10
9.01619
20
8.73558
30
4.2
0
VERTEX
10
8.9998
20
8.72534
30
4.2
0
VERTEX
10
8.9957
20
8.72534
30
4.2
0
VERTEX
10
8.97932
20
8.7151
30
4.2
0
VERTEX
10
8.97317
20
8.70896
30
4.2
0
VERTEX
10
8.96498
20
8.70896
30
4.2
0
VERTEX
10
8.93836
20
8.68233
30
4.2
0
VERTEX
10
8.92811
20
8.67209
30
4.2
0
VERTEX
10
8.92402
20
8.67209
30
4.2
0
VERTEX
10
8.91173
20
8.6598
30
4.2
0
VERTEX
10
8.89534
20
8.64956
30
4.2
0
VERTEX
10
8.87896
20
8.64341
30
4.2
0
VERTEX
10
8.87076
20
8.63932
30
4.2
0
VERTEX
10
8.86667
20
8.63522
30
4.2
0
VERTEX
10
8.85848
20
8.63522
30
4.2
0
VERTEX
10
8.8298
20
8.61474
30
4.2
0
VERTEX
10
8.81546
20
8.60655
30
4.2
0
VERTEX
10
8.80727
20
8.6004
30
4.2
0
VERTEX
10
8.79088
20
8.6004
30
4.2
0
VERTEX
10
8.7745
20
8.59221
30
4.2
0
VERTEX
10
8.74173
20
8.58402
30
4.2
0
VERTEX
10
8.73353
20
8.58402
30
4.2
0
VERTEX
10
8.72534
20
8.57992
30
4.2
0
VERTEX
10
8.71715
20
8.57992
30
4.2
0
VERTEX
10
8.71305
20
8.57582
30
4.2
0
VERTEX
10
8.70486
20
8.57582
30
4.2
0
VERTEX
10
8.70076
20
8.57173
30
4.2
0
VERTEX
10
8.69257
20
8.57173
30
4.2
0
VERTEX
10
8.67619
20
8.56558
30
4.2
0
VERTEX
10
8.6598
20
8.56558
30
4.2
0
VERTEX
10
8.64341
20
8.56149
30
4.2
0
VERTEX
10
8.64137
20
8.55739
30
4.2
0
VERTEX
10
8.51028
20
8.55739
30
4.2
0
VERTEX
10
8.47751
20
8.56558
30
4.2
0
VERTEX
10
8.46112
20
8.56558
30
4.2
0
VERTEX
10
8.42835
20
8.57582
30
4.2
0
VERTEX
10
8.41197
20
8.58402
30
4.2
0
VERTEX
10
8.40377
20
8.59221
30
4.2
0
VERTEX
10
8.38739
20
8.6004
30
4.2
0
VERTEX
10
8.36076
20
8.62088
30
4.2
0
VERTEX
10
8.34438
20
8.62703
30
4.2
0
VERTEX
10
8.33618
20
8.63317
30
4.2
0
VERTEX
10
8.32185
20
8.63932
30
4.2
0
VERTEX
10
8.31365
20
8.64137
30
4.2
0
VERTEX
10
8.29932
20
8.65161
30
4.2
0
VERTEX
10
8.29522
20
8.65161
30
4.2
0
VERTEX
10
8.29112
20
8.6557
30
4.2
0
VERTEX
10
8.28703
20
8.6557
30
4.2
0
VERTEX
10
8.27064
20
8.66594
30
4.2
0
VERTEX
10
8.26245
20
8.66799
30
4.2
0
VERTEX
10
8.22968
20
8.68643
30
4.2
0
VERTEX
10
8.21329
20
8.69667
30
4.2
0
VERTEX
10
8.18052
20
8.69872
30
4.2
0
VERTEX
10
8.16413
20
8.69872
30
4.2
0
VERTEX
10
8.14775
20
8.69257
30
4.2
0
VERTEX
10
8.13136
20
8.69052
30
4.2
0
VERTEX
10
8.12112
20
8.67414
30
4.2
0
VERTEX
10
8.11498
20
8.66594
30
4.2
0
VERTEX
10
8.11703
20
8.63317
30
4.2
0
VERTEX
10
8.11703
20
8.62498
30
4.2
0
VERTEX
10
8.12317
20
8.60859
30
4.2
0
VERTEX
10
8.12522
20
8.6004
30
4.2
0
VERTEX
10
8.12522
20
8.59631
30
4.2
0
VERTEX
10
8.13956
20
8.58402
30
4.2
0
VERTEX
10
8.1416
20
8.57582
30
4.2
0
VERTEX
10
8.15389
20
8.56353
30
4.2
0
VERTEX
10
8.15799
20
8.55534
30
4.2
0
VERTEX
10
8.18666
20
8.52462
30
4.2
0
VERTEX
10
8.21739
20
8.50823
30
4.2
0
VERTEX
10
8.22558
20
8.50618
30
4.2
0
VERTEX
10
8.22968
20
8.50209
30
4.2
0
VERTEX
10
8.24606
20
8.49799
30
4.2
0
VERTEX
10
8.27883
20
8.48365
30
4.2
0
VERTEX
10
8.28703
20
8.47751
30
4.2
0
VERTEX
10
8.31775
20
8.46522
30
4.2
0
VERTEX
10
8.33414
20
8.46317
30
4.2
0
VERTEX
10
8.35052
20
8.45703
30
4.2
0
VERTEX
10
8.38124
20
8.42835
30
4.2
0
VERTEX
10
8.39763
20
8.41402
30
4.2
0
VERTEX
10
8.40377
20
8.40992
30
4.2
0
VERTEX
10
8.40582
20
8.40173
30
4.2
0
VERTEX
10
8.41197
20
8.39558
30
4.2
0
VERTEX
10
8.41197
20
8.39148
30
4.2
0
VERTEX
10
8.42426
20
8.37715
30
4.2
0
VERTEX
10
8.4304
20
8.36076
30
4.2
0
VERTEX
10
8.4345
20
8.29522
30
4.2
0
VERTEX
10
8.4345
20
8.26245
30
4.2
0
VERTEX
10
8.4304
20
8.22968
30
4.2
0
VERTEX
10
8.42426
20
8.21329
30
4.2
0
VERTEX
10
8.42426
20
8.19691
30
4.2
0
VERTEX
10
8.41811
20
8.18052
30
4.2
0
VERTEX
10
8.41606
20
8.16413
30
4.2
0
VERTEX
10
8.41402
20
8.15594
30
4.2
0
VERTEX
10
8.41402
20
8.15185
30
4.2
0
VERTEX
10
8.39148
20
8.12317
30
4.2
0
VERTEX
10
8.36486
20
8.09245
30
4.2
0
VERTEX
10
8.34847
20
8.08425
30
4.2
0
VERTEX
10
8.3157
20
8.07811
30
4.2
0
VERTEX
10
8.28293
20
8.07606
30
4.2
0
VERTEX
10
8.26654
20
8.07606
30
4.2
0
VERTEX
10
8.23377
20
8.08425
30
4.2
0
VERTEX
10
8.22968
20
8.08425
30
4.2
0
VERTEX
10
8.22353
20
8.09245
30
4.2
0
VERTEX
10
8.21944
20
8.09245
30
4.2
0
VERTEX
10
8.20305
20
8.10269
30
4.2
0
VERTEX
10
8.19486
20
8.10474
30
4.2
0
VERTEX
10
8.18052
20
8.11498
30
4.2
0
VERTEX
10
8.14775
20
8.12522
30
4.2
0
VERTEX
10
8.11498
20
8.12932
30
4.2
0
VERTEX
10
8.09859
20
8.12932
30
4.2
0
VERTEX
10
8.08221
20
8.12317
30
4.2
0
VERTEX
10
8.07401
20
8.12317
30
4.2
0
VERTEX
10
8.06582
20
8.11907
30
4.2
0
VERTEX
10
8.04944
20
8.11907
30
4.2
0
VERTEX
10
8.03305
20
8.11498
30
4.2
0
VERTEX
10
8.0269
20
8.11293
30
4.2
0
VERTEX
10
8.02281
20
8.10678
30
4.2
0
VERTEX
10
7.99004
20
8.09654
30
4.2
0
VERTEX
10
7.97365
20
8.0904
30
4.2
0
VERTEX
10
7.96546
20
8.0904
30
4.2
0
VERTEX
10
7.95112
20
8.08016
30
4.2
0
VERTEX
10
7.93678
20
8.06377
30
4.2
0
VERTEX
10
7.93269
20
8.04739
30
4.2
0
VERTEX
10
7.92654
20
8.03919
30
4.2
0
VERTEX
10
7.92449
20
8.031
30
4.2
0
VERTEX
10
7.89992
20
8.00028
30
4.2
0
VERTEX
10
7.88968
20
7.98389
30
4.2
0
VERTEX
10
7.88353
20
7.9757
30
4.2
0
VERTEX
10
7.87329
20
7.94293
30
4.2
0
VERTEX
10
7.87124
20
7.93474
30
4.2
0
VERTEX
10
7.86715
20
7.93269
30
4.2
0
VERTEX
10
7.86715
20
7.92449
30
4.2
0
VERTEX
10
7.861
20
7.90811
30
4.2
0
VERTEX
10
7.8569
20
7.89992
30
4.2
0
VERTEX
10
7.8569
20
7.89582
30
4.2
0
VERTEX
10
7.84871
20
7.88763
30
4.2
0
VERTEX
10
7.84666
20
7.87943
30
4.2
0
VERTEX
10
7.84257
20
7.87534
30
4.2
0
VERTEX
10
7.84052
20
7.86715
30
4.2
0
VERTEX
10
7.84052
20
7.86305
30
4.2
0
VERTEX
10
7.83437
20
7.85486
30
4.2
0
VERTEX
10
7.83028
20
7.83847
30
4.2
0
VERTEX
10
7.83028
20
7.82208
30
4.2
0
VERTEX
10
7.82618
20
7.81799
30
4.2
0
VERTEX
10
7.82413
20
7.8016
30
4.2
0
VERTEX
10
7.82004
20
7.79341
30
4.2
0
VERTEX
10
7.81389
20
7.76064
30
4.2
0
VERTEX
10
7.81184
20
7.74425
30
4.2
0
VERTEX
10
7.81184
20
7.74016
30
4.2
0
SEQEND
0
POLYLINE
62
224
66
1
70
1
3
mitochondrion
0
VERTEX
10
9.52305
20
8.58451
30
4.2
0
VERTEX
10
9.53001
20
8.54002
30
4.2
0
VERTEX
10
9.53279
20
8.51777
30
4.2
0
VERTEX
10
9.53418
20
8.50665
30
4.2
0
VERTEX
10
9.53835
20
8.49553
30
4.2
0
VERTEX
10
9.53974
20
8.48997
30
4.2
0
VERTEX
10
9.53974
20
8.48718
30
4.2
0
VERTEX
10
9.5453
20
8.48301
30
4.2
0
VERTEX
10
9.54808
20
8.47189
30
4.2
0
VERTEX
10
9.5606
20
8.45103
30
4.2
0
VERTEX
10
9.56755
20
8.4413
30
4.2
0
VERTEX
10
9.57311
20
8.43574
30
4.2
0
VERTEX
10
9.57589
20
8.43296
30
4.2
0
VERTEX
10
9.57589
20
8.43018
30
4.2
0
VERTEX
10
9.58562
20
8.42183
30
4.2
0
VERTEX
10
9.59536
20
8.41071
30
4.2
0
VERTEX
10
9.6176
20
8.39403
30
4.2
0
VERTEX
10
9.63985
20
8.38707
30
4.2
0
VERTEX
10
9.64402
20
8.3829
30
4.2
0
VERTEX
10
9.6468
20
8.3829
30
4.2
0
VERTEX
10
9.66905
20
8.37039
30
4.2
0
VERTEX
10
9.67183
20
8.37039
30
4.2
0
VERTEX
10
9.67461
20
8.36761
30
4.2
0
VERTEX
10
9.68017
20
8.36761
30
4.2
0
VERTEX
10
9.6913
20
8.36066
30
4.2
0
VERTEX
10
9.71354
20
8.35092
30
4.2
0
VERTEX
10
9.73579
20
8.33702
30
4.2
0
VERTEX
10
9.74135
20
8.33563
30
4.2
0
VERTEX
10
9.74552
20
8.33146
30
4.2
0
VERTEX
10
9.75108
20
8.33007
30
4.2
0
VERTEX
10
9.75665
20
8.32589
30
4.2
0
VERTEX
10
9.76777
20
8.32311
30
4.2
0
VERTEX
10
9.81226
20
8.3245
30
4.2
0
VERTEX
10
9.82339
20
8.32589
30
4.2
0
VERTEX
10
9.82617
20
8.32868
30
4.2
0
VERTEX
10
9.83729
20
8.33146
30
4.2
0
VERTEX
10
9.84842
20
8.33841
30
4.2
0
VERTEX
10
9.85954
20
8.34258
30
4.2
0
VERTEX
10
9.8651
20
8.34675
30
4.2
0
VERTEX
10
9.87622
20
8.34953
30
4.2
0
VERTEX
10
9.88179
20
8.34953
30
4.2
0
VERTEX
10
9.90125
20
8.36344
30
4.2
0
VERTEX
10
9.91098
20
8.37039
30
4.2
0
VERTEX
10
9.91516
20
8.37595
30
4.2
0
VERTEX
10
9.92072
20
8.37873
30
4.2
0
VERTEX
10
9.93184
20
8.38846
30
4.2
0
VERTEX
10
9.94018
20
8.39959
30
4.2
0
VERTEX
10
9.94853
20
8.40793
30
4.2
0
VERTEX
10
9.95548
20
8.41905
30
4.2
0
VERTEX
10
9.96104
20
8.42461
30
4.2
0
VERTEX
10
9.96521
20
8.43574
30
4.2
0
VERTEX
10
9.96799
20
8.4413
30
4.2
0
VERTEX
10
9.96799
20
8.44408
30
4.2
0
VERTEX
10
9.97077
20
8.44686
30
4.2
0
VERTEX
10
9.97355
20
8.45799
30
4.2
0
VERTEX
10
9.97077
20
8.50248
30
4.2
0
VERTEX
10
9.96938
20
8.52473
30
4.2
0
VERTEX
10
9.9666
20
8.53585
30
4.2
0
VERTEX
10
9.96104
20
8.54697
30
4.2
0
VERTEX
10
9.96104
20
8.54975
30
4.2
0
VERTEX
10
9.95687
20
8.55532
30
4.2
0
VERTEX
10
9.95409
20
8.55671
30
4.2
0
VERTEX
10
9.9527
20
8.56227
30
4.2
0
VERTEX
10
9.93601
20
8.58173
30
4.2
0
VERTEX
10
9.92767
20
8.59008
30
4.2
0
VERTEX
10
9.91098
20
8.61232
30
4.2
0
VERTEX
10
9.90403
20
8.62345
30
4.2
0
VERTEX
10
9.88596
20
8.6443
30
4.2
0
VERTEX
10
9.86788
20
8.66238
30
4.2
0
VERTEX
10
9.85815
20
8.67072
30
4.2
0
VERTEX
10
9.85259
20
8.67489
30
4.2
0
VERTEX
10
9.84563
20
8.68463
30
4.2
0
VERTEX
10
9.8359
20
8.69158
30
4.2
0
VERTEX
10
9.83034
20
8.69714
30
4.2
0
VERTEX
10
9.82061
20
8.70409
30
4.2
0
VERTEX
10
9.80392
20
8.72495
30
4.2
0
VERTEX
10
9.79558
20
8.73329
30
4.2
0
VERTEX
10
9.79141
20
8.73746
30
4.2
0
VERTEX
10
9.79002
20
8.74302
30
4.2
0
VERTEX
10
9.78167
20
8.75276
30
4.2
0
VERTEX
10
9.77055
20
8.75832
30
4.2
0
VERTEX
10
9.75943
20
8.76805
30
4.2
0
VERTEX
10
9.73718
20
8.77778
30
4.2
0
VERTEX
10
9.73162
20
8.77917
30
4.2
0
VERTEX
10
9.72884
20
8.77917
30
4.2
0
VERTEX
10
9.72745
20
8.78196
30
4.2
0
VERTEX
10
9.71632
20
8.78196
30
4.2
0
VERTEX
10
9.69408
20
8.78752
30
4.2
0
VERTEX
10
9.67183
20
8.78752
30
4.2
0
VERTEX
10
9.64958
20
8.78196
30
4.2
0
VERTEX
10
9.64402
20
8.77917
30
4.2
0
VERTEX
10
9.64263
20
8.77639
30
4.2
0
VERTEX
10
9.63151
20
8.775
30
4.2
0
VERTEX
10
9.60926
20
8.76805
30
4.2
0
VERTEX
10
9.59814
20
8.76388
30
4.2
0
VERTEX
10
9.59536
20
8.7611
30
4.2
0
VERTEX
10
9.58423
20
8.75693
30
4.2
0
VERTEX
10
9.57589
20
8.74858
30
4.2
0
VERTEX
10
9.57311
20
8.74302
30
4.2
0
VERTEX
10
9.57033
20
8.74024
30
4.2
0
VERTEX
10
9.5606
20
8.718
30
4.2
0
VERTEX
10
9.55642
20
8.70687
30
4.2
0
VERTEX
10
9.55225
20
8.7027
30
4.2
0
VERTEX
10
9.55225
20
8.69992
30
4.2
0
VERTEX
10
9.54391
20
8.6888
30
4.2
0
VERTEX
10
9.53557
20
8.68045
30
4.2
0
VERTEX
10
9.5314
20
8.67628
30
4.2
0
VERTEX
10
9.52444
20
8.65404
30
4.2
0
VERTEX
10
9.52444
20
8.64291
30
4.2
0
VERTEX
10
9.52723
20
8.63179
30
4.2
0
VERTEX
10
9.52723
20
8.62623
30
4.2
0
VERTEX
10
9.52305
20
8.6151
30
4.2
0
VERTEX
10
9.52305
20
8.59286
30
4.2
0
VERTEX
10
9.52305
20
8.5873
30
4.2
0
VERTEX
10
9.52305
20
8.5859
30
4.2
0
SEQEND
0
POLYLINE
62
227
66
1
70
1
3
endoplasmic_reticulum
0
VERTEX
10
9.50811
20
8.84234
30
4.2
0
VERTEX
10
9.5142
20
8.81797
30
4.2
0
VERTEX
10
9.51725
20
8.81187
30
4.2
0
VERTEX
10
9.5203
20
8.80883
30
4.2
0
VERTEX
10
9.52335
20
8.79664
30
4.2
0
VERTEX
10
9.52944
20
8.78445
30
4.2
0
VERTEX
10
9.53249
20
8.7814
30
4.2
0
VERTEX
10
9.53249
20
8.77531
30
4.2
0
VERTEX
10
9.53858
20
8.76465
30
4.2
0
VERTEX
10
9.5401
20
8.7616
30
4.2
0
VERTEX
10
9.55229
20
8.76312
30
4.2
0
VERTEX
10
9.55839
20
8.76312
30
4.2
0
VERTEX
10
9.56143
20
8.76312
30
4.2
0
VERTEX
10
9.56753
20
8.76769
30
4.2
0
VERTEX
10
9.57362
20
8.76922
30
4.2
0
VERTEX
10
9.58124
20
8.77988
30
4.2
0
VERTEX
10
9.58124
20
8.79207
30
4.2
0
VERTEX
10
9.58581
20
8.81645
30
4.2
0
VERTEX
10
9.58581
20
8.82863
30
4.2
0
VERTEX
10
9.59038
20
8.84082
30
4.2
0
VERTEX
10
9.58581
20
8.85301
30
4.2
0
VERTEX
10
9.58124
20
8.85758
30
4.2
0
VERTEX
10
9.56905
20
8.86215
30
4.2
0
VERTEX
10
9.54467
20
8.86672
30
4.2
0
VERTEX
10
9.5203
20
8.86824
30
4.2
0
VERTEX
10
9.50811
20
8.86063
30
4.2
0
VERTEX
10
9.50811
20
8.84844
30
4.2
0
VERTEX
10
9.50811
20
8.84387
30
4.2
0
SEQEND
0
POLYLINE
62
227
66
1
70
1
3
endoplasmic_reticulum
0
VERTEX
10
9.44108
20
8.67324
30
4.2
0
VERTEX
10
9.44565
20
8.66867
30
4.2
0
VERTEX
10
9.44869
20
8.67019
30
4.2
0
VERTEX
10
9.45326
20
8.6641
30
4.2
0
VERTEX
10
9.45631
20
8.66105
30
4.2
0
VERTEX
10
9.45631
20
8.658
30
4.2
0
VERTEX
10
9.45936
20
8.65496
30
4.2
0
VERTEX
10
9.46088
20
8.64886
30
4.2
0
VERTEX
10
9.46088
20
8.64581
30
4.2
0
VERTEX
10
9.46393
20
8.64277
30
4.2
0
VERTEX
10
9.47612
20
8.64429
30
4.2
0
VERTEX
10
9.48678
20
8.65343
30
4.2
0
VERTEX
10
9.48831
20
8.66562
30
4.2
0
VERTEX
10
9.48373
20
8.69
30
4.2
0
VERTEX
10
9.47916
20
8.69609
30
4.2
0
VERTEX
10
9.47612
20
8.70828
30
4.2
0
VERTEX
10
9.45174
20
8.70675
30
4.2
0
VERTEX
10
9.44565
20
8.69457
30
4.2
0
VERTEX
10
9.4426
20
8.68238
30
4.2
0
VERTEX
10
9.44108
20
8.67628
30
4.2
0
VERTEX
10
9.44108
20
8.67476
30
4.2
0
SEQEND
0
POLYLINE
62
227
66
1
70
1
3
endoplasmic_reticulum
0
VERTEX
10
9.27654
20
8.58335
30
4.2
0
VERTEX
10
9.30092
20
8.56659
30
4.2
0
VERTEX
10
9.31158
20
8.56202
30
4.2
0
VERTEX
10
9.32224
20
8.55136
30
4.2
0
VERTEX
10
9.32529
20
8.55136
30
4.2
0
VERTEX
10
9.33443
20
8.53917
30
4.2
0
VERTEX
10
9.339
20
8.53308
30
4.2
0
VERTEX
10
9.339
20
8.53003
30
4.2
0
VERTEX
10
9.34205
20
8.52698
30
4.2
0
VERTEX
10
9.34967
20
8.50261
30
4.2
0
VERTEX
10
9.35119
20
8.45385
30
4.2
0
VERTEX
10
9.37557
20
8.45538
30
4.2
0
VERTEX
10
9.38166
20
8.45538
30
4.2
0
VERTEX
10
9.39385
20
8.46604
30
4.2
0
VERTEX
10
9.39842
20
8.47214
30
4.2
0
VERTEX
10
9.40147
20
8.48432
30
4.2
0
VERTEX
10
9.40451
20
8.48889
30
4.2
0
VERTEX
10
9.40299
20
8.51327
30
4.2
0
VERTEX
10
9.39994
20
8.51632
30
4.2
0
VERTEX
10
9.39994
20
8.52241
30
4.2
0
VERTEX
10
9.3969
20
8.52393
30
4.2
0
VERTEX
10
9.39385
20
8.53612
30
4.2
0
VERTEX
10
9.3908
20
8.53765
30
4.2
0
VERTEX
10
9.38775
20
8.54983
30
4.2
0
VERTEX
10
9.38471
20
8.55288
30
4.2
0
VERTEX
10
9.38471
20
8.55593
30
4.2
0
VERTEX
10
9.37861
20
8.5605
30
4.2
0
VERTEX
10
9.371
20
8.57116
30
4.2
0
VERTEX
10
9.35119
20
8.58487
30
4.2
0
VERTEX
10
9.32834
20
8.59706
30
4.2
0
VERTEX
10
9.31767
20
8.60468
30
4.2
0
VERTEX
10
9.30549
20
8.60925
30
4.2
0
VERTEX
10
9.28111
20
8.6123
30
4.2
0
VERTEX
10
9.27654
20
8.6062
30
4.2
0
VERTEX
10
9.27806
20
8.59402
30
4.2
0
VERTEX
10
9.27806
20
8.58792
30
4.2
0
VERTEX
10
9.27806
20
8.58487
30
4.2
0
SEQEND
0
POLYLINE
62
227
66
1
70
1
3
endoplasmic_reticulum
0
VERTEX
10
9.2613
20
8.42186
30
4.2
0
VERTEX
10
9.26588
20
8.39749
30
4.2
0
VERTEX
10
9.2674
20
8.39444
30
4.2
0
VERTEX
10
9.27349
20
8.39291
30
4.2
0
VERTEX
10
9.27959
20
8.38834
30
4.2
0
VERTEX
10
9.29177
20
8.38682
30
4.2
0
VERTEX
10
9.29939
20
8.39901
30
4.2
0
VERTEX
10
9.29939
20
8.4112
30
4.2
0
VERTEX
10
9.27806
20
8.43253
30
4.2
0
VERTEX
10
9.27349
20
8.43557
30
4.2
0
VERTEX
10
9.2674
20
8.43405
30
4.2
0
VERTEX
10
9.2613
20
8.42948
30
4.2
0
VERTEX
10
9.2613
20
8.42338
30
4.2
0
SEQEND
0
POLYLINE
62
227
66
1
70
1
3
endoplasmic_reticulum
0
VERTEX
10
9.43194
20
8.4569
30
4.2
0
VERTEX
10
9.43346
20
8.45081
30
4.2
0
VERTEX
10
9.43346
20
8.44776
30
4.2
0
VERTEX
10
9.44412
20
8.4371
30
4.2
0
VERTEX
10
9.45631
20
8.44014
30
4.2
0
VERTEX
10
9.46698
20
8.44928
30
4.2
0
VERTEX
10
9.47002
20
8.45233
30
4.2
0
VERTEX
10
9.47002
20
8.45842
30
4.2
0
VERTEX
10
9.46698
20
8.46147
30
4.2
0
VERTEX
10
9.46241
20
8.47366
30
4.2
0
VERTEX
10
9.45174
20
8.48432
30
4.2
0
VERTEX
10
9.44565
20
8.48585
30
4.2
0
VERTEX
10
9.44108
20
8.48128
30
4.2
0
VERTEX
10
9.43194
20
8.45842
30
4.2
0
SEQEND
0
POLYLINE
62
227
66
1
70
1
3
endoplasmic_reticulum
0
VERTEX
10
7.98904
20
7.99137
30
4.2
0
VERTEX
10
7.99369
20
7.98208
30
4.2
0
VERTEX
10
8.00994
20
7.96583
30
4.2
0
VERTEX
10
8.01923
20
7.96118
30
4.2
0
VERTEX
10
8.02387
20
7.96118
30
4.2
0
VERTEX
10
8.02851
20
7.95654
30
4.2
0
VERTEX
10
8.06566
20
7.95422
30
4.2
0
VERTEX
10
8.08423
20
7.96118
30
4.2
0
VERTEX
10
8.0912
20
7.97047
30
4.2
0
VERTEX
10
8.0912
20
7.97976
30
4.2
0
VERTEX
10
8.0912
20
7.9844
30
4.2
0
VERTEX
10
8.08191
20
7.98904
30
4.2
0
VERTEX
10
8.07727
20
7.99369
30
4.2
0
VERTEX
10
8.07495
20
8.00297
30
4.2
0
VERTEX
10
8.05637
20
8.01226
30
4.2
0
VERTEX
10
8.0378
20
8.02851
30
4.2
0
VERTEX
10
8.01923
20
8.03548
30
4.2
0
VERTEX
10
8.00994
20
8.03548
30
4.2
0
VERTEX
10
8.00065
20
8.03083
30
4.2
0
VERTEX
10
7.98904
20
8.01226
30
4.2
0
VERTEX
10
7.98904
20
7.99369
30
4.2
0
SEQEND
0
ENDSEC
0
EOF
