0
SECTION
2
ENTITIES
0
POLYLINE
62
31
66
1
70
1
3
contour
0
VERTEX
10
7.86503
20
7.81624
30
4.08
0
VERTEX
10
7.87611
20
7.74529
30
4.08
0
VERTEX
10
7.88942
20
7.70981
30
4.08
0
VERTEX
10
7.89385
20
7.70094
30
4.08
0
VERTEX
10
7.89385
20
7.69651
30
4.08
0
VERTEX
10
7.89829
20
7.69207
30
4.08
0
VERTEX
10
7.89829
20
7.68764
30
4.08
0
VERTEX
10
7.90716
20
7.6832
30
4.08
0
VERTEX
10
7.91381
20
7.67433
30
4.08
0
VERTEX
10
7.93155
20
7.66768
30
4.08
0
VERTEX
10
7.96703
20
7.66546
30
4.08
0
VERTEX
10
7.98476
20
7.6699
30
4.08
0
VERTEX
10
8.0025
20
7.68098
30
4.08
0
VERTEX
10
8.02024
20
7.68764
30
4.08
0
VERTEX
10
8.02911
20
7.68985
30
4.08
0
VERTEX
10
8.03355
20
7.69429
30
4.08
0
VERTEX
10
8.1045
20
7.71646
30
4.08
0
VERTEX
10
8.12224
20
7.7209
30
4.08
0
VERTEX
10
8.13998
20
7.7209
30
4.08
0
VERTEX
10
8.14885
20
7.71868
30
4.08
0
VERTEX
10
8.16659
20
7.72533
30
4.08
0
VERTEX
10
8.17102
20
7.72977
30
4.08
0
VERTEX
10
8.18876
20
7.73198
30
4.08
0
VERTEX
10
8.2065
20
7.73864
30
4.08
0
VERTEX
10
8.27746
20
7.74307
30
4.08
0
VERTEX
10
8.31294
20
7.74529
30
4.08
0
VERTEX
10
8.32181
20
7.74529
30
4.08
0
VERTEX
10
8.33067
20
7.74972
30
4.08
0
VERTEX
10
8.34841
20
7.75194
30
4.08
0
VERTEX
10
8.35507
20
7.76081
30
4.08
0
VERTEX
10
8.37059
20
7.76746
30
4.08
0
VERTEX
10
8.38389
20
7.78077
30
4.08
0
VERTEX
10
8.38833
20
7.79851
30
4.08
0
VERTEX
10
8.38389
20
7.83398
30
4.08
0
VERTEX
10
8.38389
20
7.85172
30
4.08
0
VERTEX
10
8.37502
20
7.86946
30
4.08
0
VERTEX
10
8.37281
20
7.8872
30
4.08
0
VERTEX
10
8.37059
20
7.89607
30
4.08
0
VERTEX
10
8.36615
20
7.9005
30
4.08
0
VERTEX
10
8.36172
20
7.91824
30
4.08
0
VERTEX
10
8.3462
20
7.9515
30
4.08
0
VERTEX
10
8.34398
20
7.96037
30
4.08
0
VERTEX
10
8.33733
20
7.96924
30
4.08
0
VERTEX
10
8.33511
20
7.98698
30
4.08
0
VERTEX
10
8.31959
20
8.0025
30
4.08
0
VERTEX
10
8.31515
20
8.01137
30
4.08
0
VERTEX
10
8.30628
20
8.01803
30
4.08
0
VERTEX
10
8.27081
20
8.02689
30
4.08
0
VERTEX
10
8.19985
20
8.02689
30
4.08
0
VERTEX
10
8.16437
20
8.02468
30
4.08
0
VERTEX
10
8.1555
20
8.02246
30
4.08
0
VERTEX
10
8.15107
20
8.01803
30
4.08
0
VERTEX
10
8.11559
20
8.01581
30
4.08
0
VERTEX
10
8.10672
20
8.01137
30
4.08
0
VERTEX
10
8.08898
20
8.00916
30
4.08
0
VERTEX
10
8.0535
20
7.99807
30
4.08
0
VERTEX
10
8.04463
20
7.99363
30
4.08
0
VERTEX
10
8.02689
20
7.99363
30
4.08
0
VERTEX
10
8.00916
20
7.98698
30
4.08
0
VERTEX
10
7.9382
20
7.97368
30
4.08
0
VERTEX
10
7.90272
20
7.96259
30
4.08
0
VERTEX
10
7.89385
20
7.96037
30
4.08
0
VERTEX
10
7.88277
20
7.94263
30
4.08
0
VERTEX
10
7.88055
20
7.93376
30
4.08
0
VERTEX
10
7.88055
20
7.92933
30
4.08
0
VERTEX
10
7.86946
20
7.91381
30
4.08
0
VERTEX
10
7.86503
20
7.84285
30
4.08
0
VERTEX
10
7.86503
20
7.82511
30
4.08
0
VERTEX
10
7.86503
20
7.81846
30
4.08
0
SEQEND
0
POLYLINE
62
31
66
1
70
1
3
contour
0
VERTEX
10
9.01363
20
8.46372
30
4.08
0
VERTEX
10
9.01806
20
8.44598
30
4.08
0
VERTEX
10
9.01806
20
8.43711
30
4.08
0
VERTEX
10
9.02915
20
8.41937
30
4.08
0
VERTEX
10
9.02915
20
8.40163
30
4.08
0
VERTEX
10
9.0358
20
8.38611
30
4.08
0
VERTEX
10
9.04467
20
8.37946
30
4.08
0
VERTEX
10
9.0491
20
8.37059
30
4.08
0
VERTEX
10
9.0491
20
8.36615
30
4.08
0
VERTEX
10
9.07793
20
8.33511
30
4.08
0
VERTEX
10
9.09123
20
8.32181
30
4.08
0
VERTEX
10
9.10676
20
8.30407
30
4.08
0
VERTEX
10
9.11563
20
8.29741
30
4.08
0
VERTEX
10
9.12006
20
8.29741
30
4.08
0
VERTEX
10
9.12449
20
8.29298
30
4.08
0
VERTEX
10
9.15997
20
8.28633
30
4.08
0
VERTEX
10
9.17771
20
8.27968
30
4.08
0
VERTEX
10
9.19545
20
8.27746
30
4.08
0
VERTEX
10
9.21319
20
8.27081
30
4.08
0
VERTEX
10
9.28415
20
8.27081
30
4.08
0
VERTEX
10
9.31962
20
8.27081
30
4.08
0
VERTEX
10
9.33736
20
8.27081
30
4.08
0
VERTEX
10
9.3551
20
8.25972
30
4.08
0
VERTEX
10
9.37284
20
8.25307
30
4.08
0
VERTEX
10
9.38171
20
8.24641
30
4.08
0
VERTEX
10
9.39945
20
8.2442
30
4.08
0
VERTEX
10
9.41719
20
8.23311
30
4.08
0
VERTEX
10
9.42606
20
8.23311
30
4.08
0
VERTEX
10
9.43493
20
8.22868
30
4.08
0
VERTEX
10
9.47041
20
8.22424
30
4.08
0
VERTEX
10
9.50588
20
8.21537
30
4.08
0
VERTEX
10
9.51254
20
8.21094
30
4.08
0
VERTEX
10
9.5214
20
8.21094
30
4.08
0
VERTEX
10
9.53027
20
8.2065
30
4.08
0
VERTEX
10
9.53471
20
8.2065
30
4.08
0
VERTEX
10
9.53914
20
8.20207
30
4.08
0
VERTEX
10
9.55688
20
8.19985
30
4.08
0
VERTEX
10
9.56575
20
8.19763
30
4.08
0
VERTEX
10
9.58349
20
8.18655
30
4.08
0
VERTEX
10
9.59236
20
8.18433
30
4.08
0
VERTEX
10
9.5968
20
8.18433
30
4.08
0
VERTEX
10
9.60567
20
8.17768
30
4.08
0
VERTEX
10
9.6234
20
8.17546
30
4.08
0
VERTEX
10
9.64114
20
8.16881
30
4.08
0
VERTEX
10
9.7121
20
8.1555
30
4.08
0
VERTEX
10
9.72984
20
8.15328
30
4.08
0
VERTEX
10
9.74758
20
8.14663
30
4.08
0
VERTEX
10
9.78305
20
8.1422
30
4.08
0
VERTEX
10
9.80079
20
8.1422
30
4.08
0
VERTEX
10
9.83627
20
8.13555
30
4.08
0
VERTEX
10
9.85401
20
8.13555
30
4.08
0
VERTEX
10
9.86288
20
8.13111
30
4.08
0
VERTEX
10
9.93384
20
8.13555
30
4.08
0
VERTEX
10
9.95158
20
8.13776
30
4.08
0
VERTEX
10
9.9671
20
8.14663
30
4.08
0
VERTEX
10
9.9804
20
8.16215
30
4.08
0
VERTEX
10
9.98927
20
8.16659
30
4.08
0
VERTEX
10
10.0026
20
8.18433
30
4.08
0
VERTEX
10
10.0048
20
8.1932
30
4.08
0
VERTEX
10
10.0114
20
8.20207
30
4.08
0
VERTEX
10
10.0137
20
8.21094
30
4.08
0
VERTEX
10
10.027
20
8.22646
30
4.08
0
VERTEX
10
10.0358
20
8.23533
30
4.08
0
VERTEX
10
10.0514
20
8.27081
30
4.08
0
VERTEX
10
10.0624
20
8.28854
30
4.08
0
VERTEX
10
10.0624
20
8.29298
30
4.08
0
VERTEX
10
10.0735
20
8.3085
30
4.08
0
VERTEX
10
10.078
20
8.31294
30
4.08
0
VERTEX
10
10.078
20
8.31737
30
4.08
0
VERTEX
10
10.0891
20
8.33511
30
4.08
0
VERTEX
10
10.0935
20
8.33954
30
4.08
0
VERTEX
10
10.0957
20
8.34841
30
4.08
0
VERTEX
10
10.0957
20
8.35285
30
4.08
0
VERTEX
10
10.1024
20
8.36172
30
4.08
0
VERTEX
10
10.1001
20
8.3972
30
4.08
0
VERTEX
10
10.1001
20
8.41494
30
4.08
0
VERTEX
10
10.0957
20
8.4238
30
4.08
0
VERTEX
10
10.0957
20
8.44154
30
4.08
0
VERTEX
10
10.0891
20
8.47702
30
4.08
0
VERTEX
10
10.0824
20
8.49476
30
4.08
0
VERTEX
10
10.0824
20
8.50363
30
4.08
0
VERTEX
10
10.0824
20
8.50806
30
4.08
0
VERTEX
10
10.078
20
8.5125
30
4.08
0
VERTEX
10
10.0735
20
8.54798
30
4.08
0
VERTEX
10
10.0647
20
8.56572
30
4.08
0
VERTEX
10
10.0602
20
8.58346
30
4.08
0
VERTEX
10
10.0602
20
8.59233
30
4.08
0
VERTEX
10
10.0602
20
8.59676
30
4.08
0
VERTEX
10
10.0558
20
8.60119
30
4.08
0
VERTEX
10
10.0558
20
8.60563
30
4.08
0
VERTEX
10
10.0314
20
8.63446
30
4.08
0
VERTEX
10
10.0225
20
8.64332
30
4.08
0
VERTEX
10
10.0181
20
8.65219
30
4.08
0
VERTEX
10
10.0026
20
8.66328
30
4.08
0
VERTEX
10
9.99371
20
8.66772
30
4.08
0
VERTEX
10
9.98927
20
8.67215
30
4.08
0
VERTEX
10
9.98484
20
8.67215
30
4.08
0
VERTEX
10
9.94936
20
8.69654
30
4.08
0
VERTEX
10
9.93162
20
8.70763
30
4.08
0
VERTEX
10
9.91388
20
8.71206
30
4.08
0
VERTEX
10
9.90945
20
8.7165
30
4.08
0
VERTEX
10
9.90501
20
8.7165
30
4.08
0
VERTEX
10
9.88727
20
8.73424
30
4.08
0
VERTEX
10
9.82075
20
8.7808
30
4.08
0
VERTEX
10
9.78749
20
8.81185
30
4.08
0
VERTEX
10
9.77197
20
8.82293
30
4.08
0
VERTEX
10
9.76753
20
8.82958
30
4.08
0
VERTEX
10
9.74979
20
8.84067
30
4.08
0
VERTEX
10
9.74092
20
8.84732
30
4.08
0
VERTEX
10
9.73649
20
8.84732
30
4.08
0
VERTEX
10
9.72097
20
8.86063
30
4.08
0
VERTEX
10
9.70323
20
8.86506
30
4.08
0
VERTEX
10
9.66775
20
8.88502
30
4.08
0
VERTEX
10
9.65888
20
8.88945
30
4.08
0
VERTEX
10
9.65001
20
8.88945
30
4.08
0
VERTEX
10
9.63449
20
8.89832
30
4.08
0
VERTEX
10
9.59901
20
8.90497
30
4.08
0
VERTEX
10
9.52806
20
8.89389
30
4.08
0
VERTEX
10
9.49258
20
8.89389
30
4.08
0
VERTEX
10
9.4571
20
8.8828
30
4.08
0
VERTEX
10
9.42162
20
8.86728
30
4.08
0
VERTEX
10
9.41275
20
8.85841
30
4.08
0
VERTEX
10
9.39501
20
8.84732
30
4.08
0
VERTEX
10
9.38615
20
8.84511
30
4.08
0
VERTEX
10
9.38171
20
8.84067
30
4.08
0
VERTEX
10
9.36397
20
8.83624
30
4.08
0
VERTEX
10
9.34623
20
8.82737
30
4.08
0
VERTEX
10
9.3418
20
8.82293
30
4.08
0
VERTEX
10
9.33293
20
8.82071
30
4.08
0
VERTEX
10
9.26197
20
8.77637
30
4.08
0
VERTEX
10
9.22649
20
8.76085
30
4.08
0
VERTEX
10
9.19323
20
8.74976
30
4.08
0
VERTEX
10
9.15776
20
8.7298
30
4.08
0
VERTEX
10
9.14889
20
8.72537
30
4.08
0
VERTEX
10
9.14445
20
8.72093
30
4.08
0
VERTEX
10
9.12671
20
8.71428
30
4.08
0
VERTEX
10
9.11119
20
8.69876
30
4.08
0
VERTEX
10
9.08902
20
8.66772
30
4.08
0
VERTEX
10
9.0735
20
8.64998
30
4.08
0
VERTEX
10
9.06241
20
8.63446
30
4.08
0
VERTEX
10
9.04467
20
8.61672
30
4.08
0
VERTEX
10
9.01806
20
8.58567
30
4.08
0
VERTEX
10
9.01363
20
8.55019
30
4.08
0
VERTEX
10
9.01363
20
8.47924
30
4.08
0
VERTEX
10
9.01363
20
8.47037
30
4.08
0
VERTEX
10
9.01363
20
8.46593
30
4.08
0
SEQEND
0
POLYLINE
62
31
66
1
70
1
3
contour
0
VERTEX
10
7.91313
20
8.64633
30
4.08
0
VERTEX
10
7.92942
20
8.6246
30
4.08
0
VERTEX
10
7.94571
20
8.61102
30
4.08
0
VERTEX
10
7.95386
20
8.60288
30
4.08
0
VERTEX
10
7.97287
20
8.59745
30
4.08
0
VERTEX
10
7.99459
20
8.59745
30
4.08
0
VERTEX
10
8.00546
20
8.59745
30
4.08
0
VERTEX
10
8.0136
20
8.60559
30
4.08
0
VERTEX
10
8.05705
20
8.61917
30
4.08
0
VERTEX
10
8.06791
20
8.62732
30
4.08
0
VERTEX
10
8.07334
20
8.62732
30
4.08
0
VERTEX
10
8.08421
20
8.63818
30
4.08
0
VERTEX
10
8.09507
20
8.6599
30
4.08
0
VERTEX
10
8.1005
20
8.68163
30
4.08
0
VERTEX
10
8.09778
20
8.70335
30
4.08
0
VERTEX
10
8.07878
20
8.7468
30
4.08
0
VERTEX
10
8.07334
20
8.75766
30
4.08
0
VERTEX
10
8.07334
20
8.7631
30
4.08
0
VERTEX
10
8.05977
20
8.77667
30
4.08
0
VERTEX
10
8.03804
20
8.77667
30
4.08
0
VERTEX
10
7.99459
20
8.7631
30
4.08
0
VERTEX
10
7.97558
20
8.75223
30
4.08
0
VERTEX
10
7.96472
20
8.74952
30
4.08
0
VERTEX
10
7.92942
20
8.7115
30
4.08
0
VERTEX
10
7.91584
20
8.68978
30
4.08
0
VERTEX
10
7.91313
20
8.64904
30
4.08
0
SEQEND
0
POLYLINE
62
224
66
1
70
1
3
mitochondrion
0
VERTEX
10
9.60926
20
8.56644
30
4.08
0
VERTEX
10
9.61065
20
8.54419
30
4.08
0
VERTEX
10
9.61204
20
8.53307
30
4.08
0
VERTEX
10
9.61204
20
8.52751
30
4.08
0
VERTEX
10
9.61204
20
8.52473
30
4.08
0
VERTEX
10
9.61482
20
8.52194
30
4.08
0
VERTEX
10
9.61482
20
8.51082
30
4.08
0
VERTEX
10
9.6176
20
8.50804
30
4.08
0
VERTEX
10
9.6176
20
8.49692
30
4.08
0
VERTEX
10
9.6176
20
8.49414
30
4.08
0
VERTEX
10
9.62038
20
8.49136
30
4.08
0
VERTEX
10
9.62595
20
8.44686
30
4.08
0
VERTEX
10
9.62873
20
8.43574
30
4.08
0
VERTEX
10
9.62873
20
8.43018
30
4.08
0
VERTEX
10
9.62873
20
8.4274
30
4.08
0
VERTEX
10
9.63568
20
8.42044
30
4.08
0
VERTEX
10
9.64124
20
8.41905
30
4.08
0
VERTEX
10
9.65515
20
8.39959
30
4.08
0
VERTEX
10
9.676
20
8.37873
30
4.08
0
VERTEX
10
9.69825
20
8.36066
30
4.08
0
VERTEX
10
9.70381
20
8.36066
30
4.08
0
VERTEX
10
9.72328
20
8.34814
30
4.08
0
VERTEX
10
9.72606
20
8.34536
30
4.08
0
VERTEX
10
9.72745
20
8.3398
30
4.08
0
VERTEX
10
9.73718
20
8.33285
30
4.08
0
VERTEX
10
9.74274
20
8.32868
30
4.08
0
VERTEX
10
9.74552
20
8.32589
30
4.08
0
VERTEX
10
9.7483
20
8.32589
30
4.08
0
VERTEX
10
9.75108
20
8.32311
30
4.08
0
VERTEX
10
9.75665
20
8.32172
30
4.08
0
VERTEX
10
9.76777
20
8.31338
30
4.08
0
VERTEX
10
9.7775
20
8.30782
30
4.08
0
VERTEX
10
9.78306
20
8.30365
30
4.08
0
VERTEX
10
9.78585
20
8.30365
30
4.08
0
VERTEX
10
9.78863
20
8.29809
30
4.08
0
VERTEX
10
9.79419
20
8.2953
30
4.08
0
VERTEX
10
9.79558
20
8.28974
30
4.08
0
VERTEX
10
9.8067
20
8.28279
30
4.08
0
VERTEX
10
9.82895
20
8.27306
30
4.08
0
VERTEX
10
9.83451
20
8.27028
30
4.08
0
VERTEX
10
9.83729
20
8.2675
30
4.08
0
VERTEX
10
9.84842
20
8.26332
30
4.08
0
VERTEX
10
9.87066
20
8.26054
30
4.08
0
VERTEX
10
9.89291
20
8.26193
30
4.08
0
VERTEX
10
9.90403
20
8.26193
30
4.08
0
VERTEX
10
9.90542
20
8.26472
30
4.08
0
VERTEX
10
9.91655
20
8.26611
30
4.08
0
VERTEX
10
9.92211
20
8.2675
30
4.08
0
VERTEX
10
9.92489
20
8.27028
30
4.08
0
VERTEX
10
9.93601
20
8.27028
30
4.08
0
VERTEX
10
9.94714
20
8.27306
30
4.08
0
VERTEX
10
9.94992
20
8.27306
30
4.08
0
VERTEX
10
9.95826
20
8.2814
30
4.08
0
VERTEX
10
9.96104
20
8.28557
30
4.08
0
VERTEX
10
9.99997
20
8.32311
30
4.08
0
VERTEX
10
10.018
20
8.34397
30
4.08
0
VERTEX
10
10.0236
20
8.34814
30
4.08
0
VERTEX
10
10.0264
20
8.34953
30
4.08
0
VERTEX
10
10.0333
20
8.37178
30
4.08
0
VERTEX
10
10.0361
20
8.37734
30
4.08
0
VERTEX
10
10.0375
20
8.39959
30
4.08
0
VERTEX
10
10.0361
20
8.42183
30
4.08
0
VERTEX
10
10.0306
20
8.44408
30
4.08
0
VERTEX
10
10.0306
20
8.4552
30
4.08
0
VERTEX
10
10.025
20
8.47745
30
4.08
0
VERTEX
10
10.0194
20
8.48718
30
4.08
0
VERTEX
10
10.0125
20
8.50943
30
4.08
0
VERTEX
10
10.0097
20
8.51221
30
4.08
0
VERTEX
10
10.0097
20
8.51777
30
4.08
0
VERTEX
10
10.0097
20
8.52055
30
4.08
0
VERTEX
10
10.0069
20
8.52334
30
4.08
0
VERTEX
10
10.0069
20
8.5289
30
4.08
0
VERTEX
10
10.0041
20
8.53168
30
4.08
0
VERTEX
10
9.99719
20
8.55392
30
4.08
0
VERTEX
10
9.99719
20
8.55671
30
4.08
0
VERTEX
10
9.97912
20
8.57756
30
4.08
0
VERTEX
10
9.96799
20
8.58312
30
4.08
0
VERTEX
10
9.94575
20
8.59008
30
4.08
0
VERTEX
10
9.93601
20
8.59703
30
4.08
0
VERTEX
10
9.93045
20
8.6012
30
4.08
0
VERTEX
10
9.92489
20
8.6012
30
4.08
0
VERTEX
10
9.92211
20
8.6012
30
4.08
0
VERTEX
10
9.91933
20
8.60398
30
4.08
0
VERTEX
10
9.91377
20
8.60398
30
4.08
0
VERTEX
10
9.91098
20
8.60398
30
4.08
0
VERTEX
10
9.89986
20
8.61093
30
4.08
0
VERTEX
10
9.8943
20
8.61232
30
4.08
0
VERTEX
10
9.88318
20
8.61928
30
4.08
0
VERTEX
10
9.87761
20
8.62067
30
4.08
0
VERTEX
10
9.85537
20
8.63735
30
4.08
0
VERTEX
10
9.81365
20
8.66377
30
4.08
0
VERTEX
10
9.80809
20
8.66794
30
4.08
0
VERTEX
10
9.80531
20
8.66794
30
4.08
0
VERTEX
10
9.79975
20
8.67211
30
4.08
0
VERTEX
10
9.78863
20
8.67489
30
4.08
0
VERTEX
10
9.76638
20
8.68602
30
4.08
0
VERTEX
10
9.75526
20
8.6888
30
4.08
0
VERTEX
10
9.74969
20
8.69158
30
4.08
0
VERTEX
10
9.73857
20
8.69158
30
4.08
0
VERTEX
10
9.72745
20
8.69575
30
4.08
0
VERTEX
10
9.7052
20
8.69714
30
4.08
0
VERTEX
10
9.68295
20
8.69297
30
4.08
0
VERTEX
10
9.67183
20
8.68602
30
4.08
0
VERTEX
10
9.66627
20
8.68602
30
4.08
0
VERTEX
10
9.66349
20
8.68602
30
4.08
0
VERTEX
10
9.6621
20
8.68045
30
4.08
0
VERTEX
10
9.65097
20
8.6735
30
4.08
0
VERTEX
10
9.64263
20
8.66377
30
4.08
0
VERTEX
10
9.63846
20
8.65821
30
4.08
0
VERTEX
10
9.63846
20
8.65265
30
4.08
0
VERTEX
10
9.63568
20
8.64708
30
4.08
0
VERTEX
10
9.63568
20
8.6443
30
4.08
0
VERTEX
10
9.62873
20
8.63318
30
4.08
0
VERTEX
10
9.62456
20
8.62206
30
4.08
0
VERTEX
10
9.62177
20
8.61928
30
4.08
0
VERTEX
10
9.62177
20
8.61371
30
4.08
0
VERTEX
10
9.61899
20
8.60815
30
4.08
0
VERTEX
10
9.61899
20
8.60537
30
4.08
0
VERTEX
10
9.61621
20
8.60537
30
4.08
0
VERTEX
10
9.61482
20
8.59425
30
4.08
0
VERTEX
10
9.61065
20
8.58869
30
4.08
0
VERTEX
10
9.60926
20
8.56783
30
4.08
0
SEQEND
0
POLYLINE
62
236
66
1
70
1
3
postsynaptic_density
0
VERTEX
10
7.98933
20
7.74486
30
4.08
0
VERTEX
10
7.99866
20
7.715
30
4.08
0
VERTEX
10
8.0024
20
7.70007
30
4.08
0
VERTEX
10
8.03039
20
7.6814
30
4.08
0
VERTEX
10
8.04532
20
7.67581
30
4.08
0
VERTEX
10
8.05838
20
7.66274
30
4.08
0
VERTEX
10
8.06585
20
7.66088
30
4.08
0
VERTEX
10
8.07331
20
7.65528
30
4.08
0
VERTEX
10
8.07518
20
7.65154
30
4.08
0
VERTEX
10
8.10504
20
7.64781
30
4.08
0
VERTEX
10
8.11997
20
7.64595
30
4.08
0
VERTEX
10
8.12743
20
7.64595
30
4.08
0
VERTEX
10
8.1349
20
7.64968
30
4.08
0
VERTEX
10
8.16476
20
7.65154
30
4.08
0
VERTEX
10
8.19462
20
7.66461
30
4.08
0
VERTEX
10
8.22448
20
7.67207
30
4.08
0
VERTEX
10
8.23194
20
7.67954
30
4.08
0
VERTEX
10
8.23381
20
7.68327
30
4.08
0
VERTEX
10
8.24127
20
7.68514
30
4.08
0
VERTEX
10
8.25434
20
7.69633
30
4.08
0
VERTEX
10
8.27113
20
7.72619
30
4.08
0
VERTEX
10
8.273
20
7.75605
30
4.08
0
VERTEX
10
8.273
20
7.77098
30
4.08
0
VERTEX
10
8.27113
20
7.77845
30
4.08
0
VERTEX
10
8.26367
20
7.78031
30
4.08
0
VERTEX
10
8.2618
20
7.78778
30
4.08
0
VERTEX
10
8.2618
20
7.79151
30
4.08
0
VERTEX
10
8.24687
20
7.80084
30
4.08
0
VERTEX
10
8.24127
20
7.80644
30
4.08
0
VERTEX
10
8.12183
20
7.79898
30
4.08
0
VERTEX
10
8.06212
20
7.79524
30
4.08
0
VERTEX
10
8.03226
20
7.79151
30
4.08
0
VERTEX
10
8.01733
20
7.78965
30
4.08
0
VERTEX
10
7.99493
20
7.76352
30
4.08
0
VERTEX
10
7.98933
20
7.75792
30
4.08
0
VERTEX
10
7.98933
20
7.75045
30
4.08
0
VERTEX
10
7.98933
20
7.74672
30
4.08
0
SEQEND
0
POLYLINE
62
227
66
1
70
1
3
endoplasmic_reticulum
0
VERTEX
10
9.68636
20
8.21619
30
4.08
0
VERTEX
10
9.68788
20
8.204
30
4.08
0
VERTEX
10
9.68788
20
8.19791
30
4.08
0
VERTEX
10
9.69093
20
8.19486
30
4.08
0
VERTEX
10
9.71531
20
8.19791
30
4.08
0
VERTEX
10
9.72749
20
8.19791
30
4.08
0
VERTEX
10
9.73359
20
8.19791
30
4.08
0
VERTEX
10
9.73663
20
8.19791
30
4.08
0
VERTEX
10
9.73968
20
8.20095
30
4.08
0
VERTEX
10
9.78843
20
8.20095
30
4.08
0
VERTEX
10
9.79453
20
8.20095
30
4.08
0
VERTEX
10
9.80671
20
8.19638
30
4.08
0
VERTEX
10
9.82957
20
8.18267
30
4.08
0
VERTEX
10
9.84176
20
8.18115
30
4.08
0
VERTEX
10
9.85394
20
8.1842
30
4.08
0
VERTEX
10
9.85851
20
8.18877
30
4.08
0
VERTEX
10
9.85851
20
8.20095
30
4.08
0
VERTEX
10
9.85394
20
8.21314
30
4.08
0
VERTEX
10
9.84176
20
8.22381
30
4.08
0
VERTEX
10
9.83871
20
8.22228
30
4.08
0
VERTEX
10
9.82652
20
8.2299
30
4.08
0
VERTEX
10
9.77777
20
8.23142
30
4.08
0
VERTEX
10
9.76558
20
8.23295
30
4.08
0
VERTEX
10
9.76101
20
8.23752
30
4.08
0
VERTEX
10
9.75492
20
8.23904
30
4.08
0
VERTEX
10
9.75035
20
8.24361
30
4.08
0
VERTEX
10
9.74425
20
8.24514
30
4.08
0
VERTEX
10
9.73968
20
8.24971
30
4.08
0
VERTEX
10
9.72749
20
8.25123
30
4.08
0
VERTEX
10
9.7214
20
8.25275
30
4.08
0
VERTEX
10
9.71835
20
8.25275
30
4.08
0
VERTEX
10
9.70616
20
8.26342
30
4.08
0
VERTEX
10
9.70312
20
8.26646
30
4.08
0
VERTEX
10
9.70159
20
8.26342
30
4.08
0
VERTEX
10
9.70312
20
8.26037
30
4.08
0
VERTEX
10
9.69245
20
8.25275
30
4.08
0
VERTEX
10
9.68636
20
8.24057
30
4.08
0
VERTEX
10
9.68636
20
8.21771
30
4.08
0
SEQEND
0
POLYLINE
62
227
66
1
70
1
3
endoplasmic_reticulum
0
VERTEX
10
9.50659
20
8.57878
30
4.08
0
VERTEX
10
9.50963
20
8.56659
30
4.08
0
VERTEX
10
9.5142
20
8.5605
30
4.08
0
VERTEX
10
9.52639
20
8.5605
30
4.08
0
VERTEX
10
9.53858
20
8.56355
30
4.08
0
VERTEX
10
9.55077
20
8.56355
30
4.08
0
VERTEX
10
9.56296
20
8.56812
30
4.08
0
VERTEX
10
9.56905
20
8.57269
30
4.08
0
VERTEX
10
9.5721
20
8.59706
30
4.08
0
VERTEX
10
9.57971
20
8.60925
30
4.08
0
VERTEX
10
9.58276
20
8.61382
30
4.08
0
VERTEX
10
9.58581
20
8.61382
30
4.08
0
VERTEX
10
9.59038
20
8.61991
30
4.08
0
VERTEX
10
9.59343
20
8.62296
30
4.08
0
VERTEX
10
9.5919
20
8.63515
30
4.08
0
VERTEX
10
9.58733
20
8.63972
30
4.08
0
VERTEX
10
9.57514
20
8.63972
30
4.08
0
VERTEX
10
9.56905
20
8.6382
30
4.08
0
VERTEX
10
9.56448
20
8.63363
30
4.08
0
VERTEX
10
9.55839
20
8.6321
30
4.08
0
VERTEX
10
9.5462
20
8.63363
30
4.08
0
VERTEX
10
9.53858
20
8.64124
30
4.08
0
VERTEX
10
9.52792
20
8.63058
30
4.08
0
VERTEX
10
9.52487
20
8.62753
30
4.08
0
VERTEX
10
9.52335
20
8.62144
30
4.08
0
VERTEX
10
9.51877
20
8.61534
30
4.08
0
VERTEX
10
9.51725
20
8.60925
30
4.08
0
VERTEX
10
9.5142
20
8.6062
30
4.08
0
VERTEX
10
9.5142
20
8.60316
30
4.08
0
VERTEX
10
9.50659
20
8.59097
30
4.08
0
VERTEX
10
9.50659
20
8.5803
30
4.08
0
SEQEND
0
POLYLINE
62
227
66
1
70
1
3
endoplasmic_reticulum
0
VERTEX
10
9.57971
20
8.77074
30
4.08
0
VERTEX
10
9.58581
20
8.76617
30
4.08
0
VERTEX
10
9.5919
20
8.75398
30
4.08
0
VERTEX
10
9.60409
20
8.75246
30
4.08
0
VERTEX
10
9.61018
20
8.75551
30
4.08
0
VERTEX
10
9.61323
20
8.75855
30
4.08
0
VERTEX
10
9.61171
20
8.77074
30
4.08
0
VERTEX
10
9.60714
20
8.78293
30
4.08
0
VERTEX
10
9.5919
20
8.80273
30
4.08
0
VERTEX
10
9.58581
20
8.79969
30
4.08
0
VERTEX
10
9.58124
20
8.79359
30
4.08
0
VERTEX
10
9.57971
20
8.7814
30
4.08
0
VERTEX
10
9.57971
20
8.77531
30
4.08
0
VERTEX
10
9.57971
20
8.77226
30
4.08
0
SEQEND
0
POLYLINE
62
227
66
1
70
1
3
endoplasmic_reticulum
0
VERTEX
10
9.39233
20
8.42034
30
4.08
0
VERTEX
10
9.39537
20
8.41729
30
4.08
0
VERTEX
10
9.39537
20
8.41424
30
4.08
0
VERTEX
10
9.40147
20
8.41272
30
4.08
0
VERTEX
10
9.40604
20
8.40663
30
4.08
0
VERTEX
10
9.4167
20
8.40206
30
4.08
0
VERTEX
10
9.42279
20
8.39901
30
4.08
0
VERTEX
10
9.42432
20
8.4112
30
4.08
0
VERTEX
10
9.43651
20
8.43405
30
4.08
0
VERTEX
10
9.44108
20
8.43557
30
4.08
0
VERTEX
10
9.45174
20
8.44471
30
4.08
0
VERTEX
10
9.45479
20
8.44624
30
4.08
0
VERTEX
10
9.45326
20
8.45233
30
4.08
0
VERTEX
10
9.4426
20
8.463
30
4.08
0
VERTEX
10
9.43041
20
8.45995
30
4.08
0
VERTEX
10
9.42432
20
8.4569
30
4.08
0
VERTEX
10
9.42127
20
8.4569
30
4.08
0
VERTEX
10
9.41061
20
8.44624
30
4.08
0
VERTEX
10
9.40451
20
8.44319
30
4.08
0
VERTEX
10
9.39385
20
8.43253
30
4.08
0
VERTEX
10
9.39233
20
8.42186
30
4.08
0
SEQEND
0
POLYLINE
62
236
66
1
70
1
3
postsynaptic_density
0
VERTEX
10
8.87118
20
8.67447
30
4.08
0
VERTEX
10
8.87949
20
8.66616
30
4.08
0
VERTEX
10
8.88226
20
8.65508
30
4.08
0
VERTEX
10
8.89611
20
8.63291
30
4.08
0
VERTEX
10
8.91273
20
8.61629
30
4.08
0
VERTEX
10
8.92381
20
8.60798
30
4.08
0
VERTEX
10
8.92936
20
8.59689
30
4.08
0
VERTEX
10
8.94875
20
8.5775
30
4.08
0
VERTEX
10
8.95429
20
8.57196
30
4.08
0
VERTEX
10
8.95706
20
8.56088
30
4.08
0
VERTEX
10
8.97368
20
8.54148
30
4.08
0
VERTEX
10
8.98477
20
8.53594
30
4.08
0
VERTEX
10
8.99308
20
8.51378
30
4.08
0
VERTEX
10
9.0097
20
8.49439
30
4.08
0
VERTEX
10
9.05403
20
8.46668
30
4.08
0
VERTEX
10
9.06511
20
8.45837
30
4.08
0
VERTEX
10
9.07619
20
8.4556
30
4.08
0
VERTEX
10
9.08173
20
8.44729
30
4.08
0
VERTEX
10
9.09282
20
8.43898
30
4.08
0
VERTEX
10
9.09836
20
8.43343
30
4.08
0
VERTEX
10
9.1039
20
8.43343
30
4.08
0
VERTEX
10
9.11498
20
8.42512
30
4.08
0
VERTEX
10
9.12052
20
8.41958
30
4.08
0
VERTEX
10
9.16485
20
8.41404
30
4.08
0
VERTEX
10
9.17593
20
8.42235
30
4.08
0
VERTEX
10
9.1981
20
8.42789
30
4.08
0
VERTEX
10
9.20364
20
8.43066
30
4.08
0
VERTEX
10
9.20364
20
8.43621
30
4.08
0
VERTEX
10
9.21472
20
8.44452
30
4.08
0
VERTEX
10
9.26736
20
8.52763
30
4.08
0
VERTEX
10
9.28121
20
8.54148
30
4.08
0
VERTEX
10
9.28121
20
8.54703
30
4.08
0
VERTEX
10
9.28952
20
8.55534
30
4.08
0
VERTEX
10
9.29229
20
8.56642
30
4.08
0
VERTEX
10
9.28121
20
8.58858
30
4.08
0
VERTEX
10
9.27567
20
8.59689
30
4.08
0
VERTEX
10
9.25351
20
8.61906
30
4.08
0
VERTEX
10
9.23965
20
8.64122
30
4.08
0
VERTEX
10
9.23134
20
8.6523
30
4.08
0
VERTEX
10
9.2258
20
8.67447
30
4.08
0
VERTEX
10
9.22026
20
8.68555
30
4.08
0
VERTEX
10
9.21472
20
8.69109
30
4.08
0
VERTEX
10
9.21472
20
8.69663
30
4.08
0
VERTEX
10
9.20641
20
8.70494
30
4.08
0
VERTEX
10
9.20641
20
8.71049
30
4.08
0
VERTEX
10
9.19533
20
8.7188
30
4.08
0
VERTEX
10
9.18701
20
8.74096
30
4.08
0
VERTEX
10
9.15654
20
8.77975
30
4.08
0
VERTEX
10
9.12052
20
8.81854
30
4.08
0
VERTEX
10
9.11221
20
8.82408
30
4.08
0
VERTEX
10
9.1039
20
8.83516
30
4.08
0
VERTEX
10
9.08173
20
8.82685
30
4.08
0
VERTEX
10
8.90442
20
8.70494
30
4.08
0
VERTEX
10
8.88226
20
8.69109
30
4.08
0
VERTEX
10
8.87118
20
8.68278
30
4.08
0
VERTEX
10
8.87118
20
8.67724
30
4.08
0
SEQEND
0
ENDSEC
0
EOF
