0
SECTION
2
ENTITIES
0
POLYLINE
62
224
66
1
70
1
3
mitochondrion
0
VERTEX
10
7.58619
20
10.4282
30
9.08
0
VERTEX
10
7.58758
20
10.4171
30
9.08
0
VERTEX
10
7.59175
20
10.406
30
9.08
0
VERTEX
10
7.59175
20
10.3949
30
9.08
0
VERTEX
10
7.59175
20
10.3893
30
9.08
0
VERTEX
10
7.59731
20
10.3782
30
9.08
0
VERTEX
10
7.60148
20
10.374
30
9.08
0
VERTEX
10
7.60287
20
10.3684
30
9.08
0
VERTEX
10
7.61121
20
10.3573
30
9.08
0
VERTEX
10
7.61538
20
10.3518
30
9.08
0
VERTEX
10
7.61678
20
10.3462
30
9.08
0
VERTEX
10
7.63346
20
10.3253
30
9.08
0
VERTEX
10
7.65154
20
10.3073
30
9.08
0
VERTEX
10
7.65432
20
10.3045
30
9.08
0
VERTEX
10
7.6571
20
10.3045
30
9.08
0
VERTEX
10
7.66683
20
10.2961
30
9.08
0
VERTEX
10
7.67239
20
10.292
30
9.08
0
VERTEX
10
7.69464
20
10.2878
30
9.08
0
VERTEX
10
7.71689
20
10.2878
30
9.08
0
VERTEX
10
7.72801
20
10.2864
30
9.08
0
VERTEX
10
7.73357
20
10.2864
30
9.08
0
VERTEX
10
7.73913
20
10.2892
30
9.08
0
VERTEX
10
7.76138
20
10.2892
30
9.08
0
VERTEX
10
7.7725
20
10.2892
30
9.08
0
VERTEX
10
7.77806
20
10.292
30
9.08
0
VERTEX
10
7.78363
20
10.292
30
9.08
0
VERTEX
10
7.78919
20
10.2947
30
9.08
0
VERTEX
10
7.79197
20
10.2947
30
9.08
0
VERTEX
10
7.79614
20
10.3003
30
9.08
0
VERTEX
10
7.8017
20
10.3031
30
9.08
0
VERTEX
10
7.80448
20
10.3031
30
9.08
0
VERTEX
10
7.81561
20
10.31
30
9.08
0
VERTEX
10
7.81839
20
10.3128
30
9.08
0
VERTEX
10
7.82117
20
10.3128
30
9.08
0
VERTEX
10
7.82395
20
10.3156
30
9.08
0
VERTEX
10
7.82673
20
10.3156
30
9.08
0
VERTEX
10
7.83785
20
10.3239
30
9.08
0
VERTEX
10
7.84342
20
10.3281
30
9.08
0
VERTEX
10
7.85037
20
10.3365
30
9.08
0
VERTEX
10
7.85315
20
10.342
30
9.08
0
VERTEX
10
7.85593
20
10.3448
30
9.08
0
VERTEX
10
7.85593
20
10.3476
30
9.08
0
VERTEX
10
7.85871
20
10.3504
30
9.08
0
VERTEX
10
7.85871
20
10.3531
30
9.08
0
VERTEX
10
7.86566
20
10.3643
30
9.08
0
VERTEX
10
7.86983
20
10.4088
30
9.08
0
VERTEX
10
7.87261
20
10.4199
30
9.08
0
VERTEX
10
7.874
20
10.4644
30
9.08
0
VERTEX
10
7.874
20
10.4755
30
9.08
0
VERTEX
10
7.87122
20
10.4866
30
9.08
0
VERTEX
10
7.87122
20
10.4977
30
9.08
0
VERTEX
10
7.86844
20
10.5089
30
9.08
0
VERTEX
10
7.85593
20
10.5297
30
9.08
0
VERTEX
10
7.85176
20
10.5353
30
9.08
0
VERTEX
10
7.85176
20
10.5381
30
9.08
0
VERTEX
10
7.84898
20
10.5395
30
9.08
0
VERTEX
10
7.84481
20
10.5492
30
9.08
0
VERTEX
10
7.83646
20
10.5589
30
9.08
0
VERTEX
10
7.83646
20
10.5617
30
9.08
0
VERTEX
10
7.81839
20
10.5826
30
9.08
0
VERTEX
10
7.81561
20
10.5867
30
9.08
0
VERTEX
10
7.79475
20
10.5965
30
9.08
0
VERTEX
10
7.78919
20
10.5965
30
9.08
0
VERTEX
10
7.77806
20
10.6034
30
9.08
0
VERTEX
10
7.77528
20
10.6034
30
9.08
0
VERTEX
10
7.76972
20
10.6076
30
9.08
0
VERTEX
10
7.72523
20
10.6062
30
9.08
0
VERTEX
10
7.70298
20
10.5992
30
9.08
0
VERTEX
10
7.69186
20
10.5951
30
9.08
0
VERTEX
10
7.68073
20
10.5951
30
9.08
0
VERTEX
10
7.66961
20
10.5909
30
9.08
0
VERTEX
10
7.66405
20
10.5895
30
9.08
0
VERTEX
10
7.65432
20
10.5812
30
9.08
0
VERTEX
10
7.64319
20
10.5756
30
9.08
0
VERTEX
10
7.63485
20
10.5659
30
9.08
0
VERTEX
10
7.62929
20
10.5603
30
9.08
0
VERTEX
10
7.62929
20
10.5548
30
9.08
0
VERTEX
10
7.62234
20
10.545
30
9.08
0
VERTEX
10
7.61678
20
10.5408
30
9.08
0
VERTEX
10
7.61399
20
10.5381
30
9.08
0
VERTEX
10
7.61399
20
10.5325
30
9.08
0
VERTEX
10
7.60982
20
10.5214
30
9.08
0
VERTEX
10
7.60704
20
10.5186
30
9.08
0
VERTEX
10
7.60704
20
10.5158
30
9.08
0
VERTEX
10
7.60426
20
10.513
30
9.08
0
VERTEX
10
7.59453
20
10.4908
30
9.08
0
VERTEX
10
7.59036
20
10.4797
30
9.08
0
VERTEX
10
7.59036
20
10.4685
30
9.08
0
VERTEX
10
7.58619
20
10.4463
30
9.08
0
VERTEX
10
7.58619
20
10.4352
30
9.08
0
VERTEX
10
7.58619
20
10.4296
30
9.08
0
SEQEND
0
POLYLINE
62
31
66
1
70
1
3
contour
0
VERTEX
10
7.49478
20
10.3016
30
9.08
0
VERTEX
10
7.49665
20
10.2867
30
9.08
0
VERTEX
10
7.50224
20
10.2717
30
9.08
0
VERTEX
10
7.50411
20
10.2568
30
9.08
0
VERTEX
10
7.51158
20
10.2419
30
9.08
0
VERTEX
10
7.51344
20
10.2344
30
9.08
0
VERTEX
10
7.53397
20
10.2045
30
9.08
0
VERTEX
10
7.5433
20
10.1952
30
9.08
0
VERTEX
10
7.54703
20
10.1952
30
9.08
0
VERTEX
10
7.56756
20
10.1672
30
9.08
0
VERTEX
10
7.58249
20
10.1542
30
9.08
0
VERTEX
10
7.61235
20
10.1523
30
9.08
0
VERTEX
10
7.64221
20
10.1467
30
9.08
0
VERTEX
10
7.64968
20
10.1467
30
9.08
0
VERTEX
10
7.66461
20
10.1411
30
9.08
0
VERTEX
10
7.67207
20
10.1374
30
9.08
0
VERTEX
10
7.6758
20
10.1374
30
9.08
0
VERTEX
10
7.67767
20
10.1336
30
9.08
0
VERTEX
10
7.6814
20
10.1336
30
9.08
0
VERTEX
10
7.68514
20
10.1299
30
9.08
0
VERTEX
10
7.68887
20
10.1299
30
9.08
0
VERTEX
10
7.69633
20
10.1243
30
9.08
0
VERTEX
10
7.7038
20
10.1243
30
9.08
0
VERTEX
10
7.70566
20
10.1206
30
9.08
0
VERTEX
10
7.72059
20
10.1206
30
9.08
0
VERTEX
10
7.74672
20
10.1336
30
9.08
0
VERTEX
10
7.75419
20
10.1355
30
9.08
0
VERTEX
10
7.75792
20
10.1355
30
9.08
0
VERTEX
10
7.76352
20
10.1411
30
9.08
0
VERTEX
10
7.77098
20
10.143
30
9.08
0
VERTEX
10
7.77845
20
10.1486
30
9.08
0
VERTEX
10
7.78591
20
10.1504
30
9.08
0
VERTEX
10
7.78778
20
10.1542
30
9.08
0
VERTEX
10
7.80271
20
10.1579
30
9.08
0
VERTEX
10
7.81017
20
10.1616
30
9.08
0
VERTEX
10
7.81764
20
10.1616
30
9.08
0
VERTEX
10
7.8251
20
10.1654
30
9.08
0
VERTEX
10
7.85496
20
10.1654
30
9.08
0
VERTEX
10
7.86243
20
10.1654
30
9.08
0
VERTEX
10
7.87736
20
10.171
30
9.08
0
VERTEX
10
7.90722
20
10.1747
30
9.08
0
VERTEX
10
7.91095
20
10.1784
30
9.08
0
VERTEX
10
7.94081
20
10.1822
30
9.08
0
VERTEX
10
7.94827
20
10.1877
30
9.08
0
VERTEX
10
7.95201
20
10.1877
30
9.08
0
VERTEX
10
7.96694
20
10.2008
30
9.08
0
VERTEX
10
7.97813
20
10.212
30
9.08
0
VERTEX
10
7.98187
20
10.2176
30
9.08
0
VERTEX
10
7.9968
20
10.2288
30
9.08
0
VERTEX
10
8.00799
20
10.24
30
9.08
0
VERTEX
10
8.02106
20
10.2475
30
9.08
0
VERTEX
10
8.04905
20
10.268
30
9.08
0
VERTEX
10
8.07704
20
10.2923
30
9.08
0
VERTEX
10
8.09011
20
10.3016
30
9.08
0
VERTEX
10
8.09384
20
10.3016
30
9.08
0
VERTEX
10
8.1013
20
10.3072
30
9.08
0
VERTEX
10
8.10877
20
10.3091
30
9.08
0
VERTEX
10
8.13676
20
10.3277
30
9.08
0
VERTEX
10
8.14236
20
10.3352
30
9.08
0
VERTEX
10
8.16289
20
10.3557
30
9.08
0
VERTEX
10
8.17035
20
10.3594
30
9.08
0
VERTEX
10
8.17969
20
10.3744
30
9.08
0
VERTEX
10
8.18715
20
10.4341
30
9.08
0
VERTEX
10
8.18902
20
10.464
30
9.08
0
VERTEX
10
8.18902
20
10.4789
30
9.08
0
VERTEX
10
8.18902
20
10.4863
30
9.08
0
VERTEX
10
8.19462
20
10.4919
30
9.08
0
VERTEX
10
8.19648
20
10.4994
30
9.08
0
VERTEX
10
8.19648
20
10.5031
30
9.08
0
VERTEX
10
8.20021
20
10.5069
30
9.08
0
VERTEX
10
8.20581
20
10.5218
30
9.08
0
VERTEX
10
8.21514
20
10.5367
30
9.08
0
VERTEX
10
8.21888
20
10.5442
30
9.08
0
VERTEX
10
8.21888
20
10.5479
30
9.08
0
VERTEX
10
8.22448
20
10.5554
30
9.08
0
VERTEX
10
8.23007
20
10.5685
30
9.08
0
VERTEX
10
8.23194
20
10.5834
30
9.08
0
VERTEX
10
8.23754
20
10.5983
30
9.08
0
VERTEX
10
8.2562
20
10.6263
30
9.08
0
VERTEX
10
8.26927
20
10.6394
30
9.08
0
VERTEX
10
8.273
20
10.6468
30
9.08
0
VERTEX
10
8.28793
20
10.6543
30
9.08
0
VERTEX
10
8.29166
20
10.6618
30
9.08
0
VERTEX
10
8.28979
20
10.6916
30
9.08
0
VERTEX
10
8.28606
20
10.7066
30
9.08
0
VERTEX
10
8.28233
20
10.714
30
9.08
0
VERTEX
10
8.2786
20
10.7159
30
9.08
0
VERTEX
10
8.27486
20
10.7308
30
9.08
0
VERTEX
10
8.26553
20
10.7458
30
9.08
0
VERTEX
10
8.2562
20
10.7569
30
9.08
0
VERTEX
10
8.24874
20
10.7644
30
9.08
0
VERTEX
10
8.23941
20
10.7756
30
9.08
0
VERTEX
10
8.23194
20
10.7831
30
9.08
0
VERTEX
10
8.21701
20
10.7924
30
9.08
0
VERTEX
10
8.21141
20
10.798
30
9.08
0
VERTEX
10
8.15169
20
10.7999
30
9.08
0
VERTEX
10
8.09197
20
10.7943
30
9.08
0
VERTEX
10
8.06211
20
10.798
30
9.08
0
VERTEX
10
8.04718
20
10.7999
30
9.08
0
VERTEX
10
8.03972
20
10.8017
30
9.08
0
VERTEX
10
8.03599
20
10.8055
30
9.08
0
VERTEX
10
8.02106
20
10.8111
30
9.08
0
VERTEX
10
8.01359
20
10.8167
30
9.08
0
VERTEX
10
7.99866
20
10.8204
30
9.08
0
VERTEX
10
7.97067
20
10.8335
30
9.08
0
VERTEX
10
7.96694
20
10.8335
30
9.08
0
VERTEX
10
7.95947
20
10.8391
30
9.08
0
VERTEX
10
7.95574
20
10.8428
30
9.08
0
VERTEX
10
7.89602
20
10.8428
30
9.08
0
VERTEX
10
7.88109
20
10.8428
30
9.08
0
VERTEX
10
7.82137
20
10.8335
30
9.08
0
VERTEX
10
7.79151
20
10.8316
30
9.08
0
VERTEX
10
7.76165
20
10.8335
30
9.08
0
VERTEX
10
7.74672
20
10.8316
30
9.08
0
VERTEX
10
7.74672
20
10.8279
30
9.08
0
VERTEX
10
7.73179
20
10.8223
30
9.08
0
VERTEX
10
7.70193
20
10.8204
30
9.08
0
VERTEX
10
7.67207
20
10.8223
30
9.08
0
VERTEX
10
7.65714
20
10.8204
30
9.08
0
VERTEX
10
7.64968
20
10.8185
30
9.08
0
VERTEX
10
7.64594
20
10.8185
30
9.08
0
VERTEX
10
7.64035
20
10.8111
30
9.08
0
VERTEX
10
7.61049
20
10.7943
30
9.08
0
VERTEX
10
7.60115
20
10.7887
30
9.08
0
VERTEX
10
7.60115
20
10.7812
30
9.08
0
VERTEX
10
7.57876
20
10.7569
30
9.08
0
VERTEX
10
7.57503
20
10.7495
30
9.08
0
VERTEX
10
7.57503
20
10.742
30
9.08
0
VERTEX
10
7.57503
20
10.7383
30
9.08
0
VERTEX
10
7.5713
20
10.7346
30
9.08
0
VERTEX
10
7.5713
20
10.7271
30
9.08
0
VERTEX
10
7.56383
20
10.7178
30
9.08
0
VERTEX
10
7.55823
20
10.7028
30
9.08
0
VERTEX
10
7.54703
20
10.6898
30
9.08
0
VERTEX
10
7.54144
20
10.6767
30
9.08
0
VERTEX
10
7.52464
20
10.6487
30
9.08
0
VERTEX
10
7.52464
20
10.645
30
9.08
0
VERTEX
10
7.52091
20
10.6431
30
9.08
0
VERTEX
10
7.51531
20
10.6133
30
9.08
0
VERTEX
10
7.50971
20
10.5535
30
9.08
0
VERTEX
10
7.50411
20
10.5237
30
9.08
0
VERTEX
10
7.50224
20
10.4042
30
9.08
0
VERTEX
10
7.49851
20
10.3744
30
9.08
0
VERTEX
10
7.49478
20
10.3669
30
9.08
0
VERTEX
10
7.49478
20
10.3072
30
9.08
0
VERTEX
10
7.49478
20
10.3035
30
9.08
0
SEQEND
0
POLYLINE
62
227
66
1
70
1
3
endoplasmic_reticulum
0
VERTEX
10
7.90843
20
10.3703
30
9.08
0
VERTEX
10
7.91202
20
10.356
30
9.08
0
VERTEX
10
7.91381
20
10.3417
30
9.08
0
VERTEX
10
7.91471
20
10.3345
30
9.08
0
VERTEX
10
7.91471
20
10.3327
30
9.08
0
VERTEX
10
7.9165
20
10.3309
30
9.08
0
VERTEX
10
7.9174
20
10.3273
30
9.08
0
VERTEX
10
7.9174
20
10.3255
30
9.08
0
VERTEX
10
7.92098
20
10.3228
30
9.08
0
VERTEX
10
7.92816
20
10.321
30
9.08
0
VERTEX
10
7.93533
20
10.3219
30
9.08
0
VERTEX
10
7.93712
20
10.3219
30
9.08
0
VERTEX
10
7.9443
20
10.3264
30
9.08
0
VERTEX
10
7.94519
20
10.33
30
9.08
0
VERTEX
10
7.94788
20
10.3336
30
9.08
0
VERTEX
10
7.94698
20
10.3479
30
9.08
0
VERTEX
10
7.94519
20
10.3551
30
9.08
0
VERTEX
10
7.94698
20
10.3695
30
9.08
0
VERTEX
10
7.94519
20
10.3766
30
9.08
0
VERTEX
10
7.9443
20
10.3802
30
9.08
0
VERTEX
10
7.93892
20
10.3856
30
9.08
0
VERTEX
10
7.93712
20
10.3856
30
9.08
0
VERTEX
10
7.93354
20
10.3883
30
9.08
0
VERTEX
10
7.92995
20
10.3883
30
9.08
0
VERTEX
10
7.92816
20
10.3919
30
9.08
0
VERTEX
10
7.92457
20
10.3928
30
9.08
0
VERTEX
10
7.9174
20
10.3892
30
9.08
0
VERTEX
10
7.91381
20
10.3883
30
9.08
0
VERTEX
10
7.90843
20
10.3811
30
9.08
0
VERTEX
10
7.90843
20
10.3739
30
9.08
0
VERTEX
10
7.90843
20
10.3712
30
9.08
0
SEQEND
0
POLYLINE
62
227
66
1
70
1
3
endoplasmic_reticulum
0
VERTEX
10
7.85195
20
10.6008
30
9.08
0
VERTEX
10
7.85464
20
10.5972
30
9.08
0
VERTEX
10
7.85643
20
10.5963
30
9.08
0
VERTEX
10
7.85643
20
10.5945
30
9.08
0
VERTEX
10
7.86361
20
10.5891
30
9.08
0
VERTEX
10
7.87795
20
10.5828
30
9.08
0
VERTEX
10
7.88154
20
10.5819
30
9.08
0
VERTEX
10
7.89499
20
10.5712
30
9.08
0
VERTEX
10
7.89857
20
10.5703
30
9.08
0
VERTEX
10
7.90574
20
10.5649
30
9.08
0
VERTEX
10
7.90933
20
10.5613
30
9.08
0
VERTEX
10
7.93712
20
10.5416
30
9.08
0
VERTEX
10
7.9434
20
10.5371
30
9.08
0
VERTEX
10
7.95326
20
10.5237
30
9.08
0
VERTEX
10
7.95864
20
10.5174
30
9.08
0
VERTEX
10
7.96223
20
10.5147
30
9.08
0
VERTEX
10
7.96581
20
10.5138
30
9.08
0
VERTEX
10
7.97298
20
10.5156
30
9.08
0
VERTEX
10
7.97657
20
10.5165
30
9.08
0
VERTEX
10
7.98105
20
10.5228
30
9.08
0
VERTEX
10
7.98285
20
10.5263
30
9.08
0
VERTEX
10
7.98285
20
10.5299
30
9.08
0
VERTEX
10
7.98105
20
10.5335
30
9.08
0
VERTEX
10
7.98016
20
10.5407
30
9.08
0
VERTEX
10
7.97567
20
10.5479
30
9.08
0
VERTEX
10
7.9694
20
10.5541
30
9.08
0
VERTEX
10
7.9685
20
10.5577
30
9.08
0
VERTEX
10
7.96223
20
10.5631
30
9.08
0
VERTEX
10
7.96223
20
10.5649
30
9.08
0
VERTEX
10
7.95864
20
10.5667
30
9.08
0
VERTEX
10
7.95326
20
10.573
30
9.08
0
VERTEX
10
7.94609
20
10.5766
30
9.08
0
VERTEX
10
7.93892
20
10.5819
30
9.08
0
VERTEX
10
7.93802
20
10.5846
30
9.08
0
VERTEX
10
7.93264
20
10.5909
30
9.08
0
VERTEX
10
7.92905
20
10.5918
30
9.08
0
VERTEX
10
7.9174
20
10.6035
30
9.08
0
VERTEX
10
7.91471
20
10.607
30
9.08
0
VERTEX
10
7.90754
20
10.6115
30
9.08
0
VERTEX
10
7.90395
20
10.6142
30
9.08
0
VERTEX
10
7.90036
20
10.6151
30
9.08
0
VERTEX
10
7.89678
20
10.6178
30
9.08
0
VERTEX
10
7.88961
20
10.6187
30
9.08
0
VERTEX
10
7.88243
20
10.6214
30
9.08
0
VERTEX
10
7.86809
20
10.6232
30
9.08
0
VERTEX
10
7.86181
20
10.616
30
9.08
0
VERTEX
10
7.86092
20
10.6142
30
9.08
0
VERTEX
10
7.85733
20
10.6142
30
9.08
0
VERTEX
10
7.85374
20
10.6124
30
9.08
0
VERTEX
10
7.85195
20
10.6106
30
9.08
0
VERTEX
10
7.85195
20
10.6035
30
9.08
0
VERTEX
10
7.85195
20
10.6017
30
9.08
0
SEQEND
0
POLYLINE
62
227
66
1
70
1
3
endoplasmic_reticulum
0
VERTEX
10
7.64933
20
10.668
30
9.08
0
VERTEX
10
7.65023
20
10.6644
30
9.08
0
VERTEX
10
7.66726
20
10.6402
30
9.08
0
VERTEX
10
7.68161
20
10.6321
30
9.08
0
VERTEX
10
7.68878
20
10.6295
30
9.08
0
VERTEX
10
7.69237
20
10.6295
30
9.08
0
VERTEX
10
7.69954
20
10.6268
30
9.08
0
VERTEX
10
7.72823
20
10.6259
30
9.08
0
VERTEX
10
7.7354
20
10.625
30
9.08
0
VERTEX
10
7.74974
20
10.6196
30
9.08
0
VERTEX
10
7.76319
20
10.6106
30
9.08
0
VERTEX
10
7.77037
20
10.6079
30
9.08
0
VERTEX
10
7.77395
20
10.6088
30
9.08
0
VERTEX
10
7.77574
20
10.6088
30
9.08
0
VERTEX
10
7.77754
20
10.6106
30
9.08
0
VERTEX
10
7.78471
20
10.6106
30
9.08
0
VERTEX
10
7.79188
20
10.6151
30
9.08
0
VERTEX
10
7.79816
20
10.6214
30
9.08
0
VERTEX
10
7.80174
20
10.6286
30
9.08
0
VERTEX
10
7.81609
20
10.6348
30
9.08
0
VERTEX
10
7.81968
20
10.6366
30
9.08
0
VERTEX
10
7.82326
20
10.6366
30
9.08
0
VERTEX
10
7.82954
20
10.6411
30
9.08
0
VERTEX
10
7.83402
20
10.6483
30
9.08
0
VERTEX
10
7.83492
20
10.6555
30
9.08
0
VERTEX
10
7.83492
20
10.659
30
9.08
0
VERTEX
10
7.83223
20
10.6653
30
9.08
0
VERTEX
10
7.82954
20
10.668
30
9.08
0
VERTEX
10
7.82236
20
10.6698
30
9.08
0
VERTEX
10
7.81519
20
10.6734
30
9.08
0
VERTEX
10
7.80085
20
10.6734
30
9.08
0
VERTEX
10
7.7865
20
10.6716
30
9.08
0
VERTEX
10
7.72912
20
10.6725
30
9.08
0
VERTEX
10
7.70043
20
10.6752
30
9.08
0
VERTEX
10
7.68609
20
10.6761
30
9.08
0
VERTEX
10
7.67175
20
10.6815
30
9.08
0
VERTEX
10
7.66457
20
10.6841
30
9.08
0
VERTEX
10
7.65023
20
10.6788
30
9.08
0
VERTEX
10
7.64933
20
10.6716
30
9.08
0
VERTEX
10
7.64933
20
10.6689
30
9.08
0
SEQEND
0
POLYLINE
62
236
66
1
70
1
3
postsynaptic_density
0
VERTEX
10
6.05117
20
10.7742
30
9.08
0
VERTEX
10
6.06108
20
10.7642
30
9.08
0
VERTEX
10
6.09082
20
10.6849
30
9.08
0
VERTEX
10
6.09577
20
10.6057
30
9.08
0
VERTEX
10
6.10569
20
10.566
30
9.08
0
VERTEX
10
6.11064
20
10.5462
30
9.08
0
VERTEX
10
6.11064
20
10.5363
30
9.08
0
VERTEX
10
6.15029
20
10.5313
30
9.08
0
VERTEX
10
6.22958
20
10.5412
30
9.08
0
VERTEX
10
6.24941
20
10.5412
30
9.08
0
VERTEX
10
6.31879
20
10.6007
30
9.08
0
VERTEX
10
6.31879
20
10.6106
30
9.08
0
VERTEX
10
6.33861
20
10.6255
30
9.08
0
VERTEX
10
6.34853
20
10.6403
30
9.08
0
VERTEX
10
6.38817
20
10.6552
30
9.08
0
VERTEX
10
6.40304
20
10.6602
30
9.08
0
VERTEX
10
6.408
20
10.68
30
9.08
0
VERTEX
10
6.39313
20
10.7593
30
9.08
0
VERTEX
10
6.36835
20
10.7989
30
9.08
0
VERTEX
10
6.35844
20
10.8188
30
9.08
0
VERTEX
10
6.33861
20
10.8336
30
9.08
0
VERTEX
10
6.32375
20
10.8683
30
9.08
0
VERTEX
10
6.32375
20
10.8782
30
9.08
0
VERTEX
10
6.31383
20
10.8881
30
9.08
0
VERTEX
10
6.31383
20
10.8981
30
9.08
0
VERTEX
10
6.29401
20
10.9129
30
9.08
0
VERTEX
10
6.27419
20
10.9179
30
9.08
0
VERTEX
10
6.12055
20
10.8881
30
9.08
0
VERTEX
10
6.11064
20
10.8881
30
9.08
0
VERTEX
10
6.07099
20
10.8088
30
9.08
0
VERTEX
10
6.06108
20
10.789
30
9.08
0
VERTEX
10
6.05613
20
10.7791
30
9.08
0
SEQEND
0
POLYLINE
62
31
66
1
70
1
3
contour
0
VERTEX
10
6.16578
20
10.9409
30
9.08
0
VERTEX
10
6.16578
20
10.9037
30
9.08
0
VERTEX
10
6.18901
20
10.8294
30
9.08
0
VERTEX
10
6.18901
20
10.8201
30
9.08
0
VERTEX
10
6.20295
20
10.8015
30
9.08
0
VERTEX
10
6.20295
20
10.7829
30
9.08
0
VERTEX
10
6.21224
20
10.7736
30
9.08
0
VERTEX
10
6.21688
20
10.769
30
9.08
0
VERTEX
10
6.22501
20
10.7504
30
9.08
0
VERTEX
10
6.22849
20
10.7411
30
9.08
0
VERTEX
10
6.23082
20
10.7365
30
9.08
0
VERTEX
10
6.23082
20
10.7272
30
9.08
0
VERTEX
10
6.25404
20
10.69
30
9.08
0
VERTEX
10
6.2912
20
10.6622
30
9.08
0
VERTEX
10
6.32488
20
10.6262
30
9.08
0
VERTEX
10
6.33417
20
10.6192
30
9.08
0
VERTEX
10
6.33882
20
10.6157
30
9.08
0
VERTEX
10
6.33998
20
10.6157
30
9.08
0
VERTEX
10
6.35043
20
10.6146
30
9.08
0
VERTEX
10
6.36901
20
10.6169
30
9.08
0
VERTEX
10
6.38759
20
10.6238
30
9.08
0
VERTEX
10
6.39688
20
10.625
30
9.08
0
VERTEX
10
6.3992
20
10.625
30
9.08
0
VERTEX
10
6.40733
20
10.6331
30
9.08
0
VERTEX
10
6.41198
20
10.6366
30
9.08
0
VERTEX
10
6.42127
20
10.6389
30
9.08
0
VERTEX
10
6.4294
20
10.6471
30
9.08
0
VERTEX
10
6.43172
20
10.6482
30
9.08
0
VERTEX
10
6.43288
20
10.6529
30
9.08
0
VERTEX
10
6.43753
20
10.6575
30
9.08
0
VERTEX
10
6.43753
20
10.6622
30
9.08
0
VERTEX
10
6.44217
20
10.6645
30
9.08
0
VERTEX
10
6.44682
20
10.6645
30
9.08
0
VERTEX
10
6.44682
20
10.6668
30
9.08
0
VERTEX
10
6.4503
20
10.6703
30
9.08
0
VERTEX
10
6.45959
20
10.6726
30
9.08
0
VERTEX
10
6.46075
20
10.6773
30
9.08
0
VERTEX
10
6.46656
20
10.6842
30
9.08
0
VERTEX
10
6.46772
20
10.6866
30
9.08
0
VERTEX
10
6.47237
20
10.6877
30
9.08
0
VERTEX
10
6.47469
20
10.6889
30
9.08
0
VERTEX
10
6.47585
20
10.6935
30
9.08
0
VERTEX
10
6.48282
20
10.7005
30
9.08
0
VERTEX
10
6.48746
20
10.7028
30
9.08
0
VERTEX
10
6.48746
20
10.7075
30
9.08
0
VERTEX
10
6.48514
20
10.7086
30
9.08
0
VERTEX
10
6.4863
20
10.7179
30
9.08
0
VERTEX
10
6.4863
20
10.7226
30
9.08
0
VERTEX
10
6.48979
20
10.7272
30
9.08
0
VERTEX
10
6.48979
20
10.7318
30
9.08
0
VERTEX
10
6.50488
20
10.7469
30
9.08
0
VERTEX
10
6.5072
20
10.7493
30
9.08
0
VERTEX
10
6.5072
20
10.7516
30
9.08
0
VERTEX
10
6.51185
20
10.7539
30
9.08
0
VERTEX
10
6.52346
20
10.7713
30
9.08
0
VERTEX
10
6.52927
20
10.7771
30
9.08
0
VERTEX
10
6.52927
20
10.7795
30
9.08
0
VERTEX
10
6.5374
20
10.7887
30
9.08
0
VERTEX
10
6.53856
20
10.7911
30
9.08
0
VERTEX
10
6.5374
20
10.7946
30
9.08
0
VERTEX
10
6.54204
20
10.8143
30
9.08
0
VERTEX
10
6.54204
20
10.8329
30
9.08
0
VERTEX
10
6.54204
20
10.8422
30
9.08
0
VERTEX
10
6.47237
20
10.9908
30
9.08
0
VERTEX
10
6.44566
20
11.028
30
9.08
0
VERTEX
10
6.37133
20
11.0791
30
9.08
0
VERTEX
10
6.33417
20
11.0942
30
9.08
0
VERTEX
10
6.31559
20
11.1011
30
9.08
0
VERTEX
10
6.31095
20
11.1035
30
9.08
0
VERTEX
10
6.27378
20
11.0895
30
9.08
0
VERTEX
10
6.2552
20
11.0895
30
9.08
0
VERTEX
10
6.25056
20
11.0872
30
9.08
0
VERTEX
10
6.2134
20
11.057
30
9.08
0
VERTEX
10
6.19482
20
11.0419
30
9.08
0
VERTEX
10
6.18553
20
11.0349
30
9.08
0
VERTEX
10
6.17507
20
10.9978
30
9.08
0
VERTEX
10
6.16695
20
10.9792
30
9.08
0
VERTEX
10
6.16578
20
10.942
30
9.08
0
SEQEND
0
ENDSEC
0
EOF
