0
SECTION
2
ENTITIES
0
POLYLINE
62
224
66
1
70
1
3
mitochondrion
0
VERTEX
10
8.41071
20
9.68434
30
7
0
VERTEX
10
8.41488
20
9.6621
30
7
0
VERTEX
10
8.41488
20
9.65654
30
7
0
VERTEX
10
8.41766
20
9.65097
30
7
0
VERTEX
10
8.41905
20
9.63985
30
7
0
VERTEX
10
8.42322
20
9.62873
30
7
0
VERTEX
10
8.42601
20
9.62317
30
7
0
VERTEX
10
8.44686
20
9.60231
30
7
0
VERTEX
10
8.44964
20
9.59675
30
7
0
VERTEX
10
8.44964
20
9.59397
30
7
0
VERTEX
10
8.45938
20
9.58423
30
7
0
VERTEX
10
8.46494
20
9.58006
30
7
0
VERTEX
10
8.46494
20
9.57728
30
7
0
VERTEX
10
8.4705
20
9.57311
30
7
0
VERTEX
10
8.47328
20
9.57311
30
7
0
VERTEX
10
8.49553
20
9.55921
30
7
0
VERTEX
10
8.50665
20
9.55642
30
7
0
VERTEX
10
8.50804
20
9.55364
30
7
0
VERTEX
10
8.51082
20
9.55364
30
7
0
VERTEX
10
8.51638
20
9.54947
30
7
0
VERTEX
10
8.52194
20
9.54947
30
7
0
VERTEX
10
8.52751
20
9.5453
30
7
0
VERTEX
10
8.53307
20
9.54391
30
7
0
VERTEX
10
8.53585
20
9.54113
30
7
0
VERTEX
10
8.54697
20
9.53835
30
7
0
VERTEX
10
8.5581
20
9.53835
30
7
0
VERTEX
10
8.56366
20
9.53835
30
7
0
VERTEX
10
8.56922
20
9.53557
30
7
0
VERTEX
10
8.61371
20
9.53418
30
7
0
VERTEX
10
8.63596
20
9.53557
30
7
0
VERTEX
10
8.65821
20
9.53974
30
7
0
VERTEX
10
8.68045
20
9.54669
30
7
0
VERTEX
10
8.68602
20
9.54947
30
7
0
VERTEX
10
8.73051
20
9.55086
30
7
0
VERTEX
10
8.75276
20
9.55642
30
7
0
VERTEX
10
8.75554
20
9.56199
30
7
0
VERTEX
10
8.76527
20
9.56338
30
7
0
VERTEX
10
8.77083
20
9.56477
30
7
0
VERTEX
10
8.77639
20
9.56894
30
7
0
VERTEX
10
8.77778
20
9.57172
30
7
0
VERTEX
10
8.78891
20
9.5745
30
7
0
VERTEX
10
8.79725
20
9.58562
30
7
0
VERTEX
10
8.81811
20
9.60231
30
7
0
VERTEX
10
8.82645
20
9.61065
30
7
0
VERTEX
10
8.83201
20
9.61621
30
7
0
VERTEX
10
8.83618
20
9.62734
30
7
0
VERTEX
10
8.84174
20
9.63012
30
7
0
VERTEX
10
8.84592
20
9.64124
30
7
0
VERTEX
10
8.84592
20
9.64402
30
7
0
VERTEX
10
8.85426
20
9.65515
30
7
0
VERTEX
10
8.85704
20
9.65793
30
7
0
VERTEX
10
8.85704
20
9.66071
30
7
0
VERTEX
10
8.86399
20
9.67183
30
7
0
VERTEX
10
8.86677
20
9.67461
30
7
0
VERTEX
10
8.86677
20
9.68017
30
7
0
VERTEX
10
8.86955
20
9.68573
30
7
0
VERTEX
10
8.87094
20
9.73023
30
7
0
VERTEX
10
8.86816
20
9.73301
30
7
0
VERTEX
10
8.86399
20
9.75526
30
7
0
VERTEX
10
8.85565
20
9.7775
30
7
0
VERTEX
10
8.8487
20
9.78863
30
7
0
VERTEX
10
8.84452
20
9.79419
30
7
0
VERTEX
10
8.84452
20
9.79697
30
7
0
VERTEX
10
8.83618
20
9.80809
30
7
0
VERTEX
10
8.83062
20
9.80948
30
7
0
VERTEX
10
8.82089
20
9.81783
30
7
0
VERTEX
10
8.81533
20
9.81922
30
7
0
VERTEX
10
8.81115
20
9.82478
30
7
0
VERTEX
10
8.80003
20
9.82895
30
7
0
VERTEX
10
8.79447
20
9.82895
30
7
0
VERTEX
10
8.7903
20
9.83451
30
7
0
VERTEX
10
8.77917
20
9.83729
30
7
0
VERTEX
10
8.76805
20
9.83729
30
7
0
VERTEX
10
8.7458
20
9.84563
30
7
0
VERTEX
10
8.74302
20
9.84563
30
7
0
VERTEX
10
8.74024
20
9.84842
30
7
0
VERTEX
10
8.65125
20
9.84702
30
7
0
VERTEX
10
8.62901
20
9.84563
30
7
0
VERTEX
10
8.61788
20
9.84424
30
7
0
VERTEX
10
8.57339
20
9.84702
30
7
0
VERTEX
10
8.56227
20
9.84702
30
7
0
VERTEX
10
8.55671
20
9.84563
30
7
0
VERTEX
10
8.55392
20
9.84285
30
7
0
VERTEX
10
8.5428
20
9.84007
30
7
0
VERTEX
10
8.53446
20
9.83034
30
7
0
VERTEX
10
8.53029
20
9.82478
30
7
0
VERTEX
10
8.51916
20
9.81922
30
7
0
VERTEX
10
8.51638
20
9.81644
30
7
0
VERTEX
10
8.5136
20
9.81644
30
7
0
VERTEX
10
8.50804
20
9.81226
30
7
0
VERTEX
10
8.50248
20
9.81087
30
7
0
VERTEX
10
8.49692
20
9.8067
30
7
0
VERTEX
10
8.49136
20
9.80531
30
7
0
VERTEX
10
8.48857
20
9.80253
30
7
0
VERTEX
10
8.48301
20
9.80114
30
7
0
VERTEX
10
8.48023
20
9.80114
30
7
0
VERTEX
10
8.45799
20
9.78585
30
7
0
VERTEX
10
8.43574
20
9.7775
30
7
0
VERTEX
10
8.42601
20
9.76777
30
7
0
VERTEX
10
8.41905
20
9.75943
30
7
0
VERTEX
10
8.41905
20
9.75665
30
7
0
VERTEX
10
8.41488
20
9.75248
30
7
0
VERTEX
10
8.41071
20
9.73023
30
7
0
VERTEX
10
8.41071
20
9.68573
30
7
0
SEQEND
0
POLYLINE
62
227
66
1
70
1
3
endoplasmic_reticulum
0
VERTEX
10
8.41946
20
9.89339
30
7
0
VERTEX
10
8.42126
20
9.88621
30
7
0
VERTEX
10
8.42215
20
9.88263
30
7
0
VERTEX
10
8.42843
20
9.87635
30
7
0
VERTEX
10
8.4356
20
9.87277
30
7
0
VERTEX
10
8.44995
20
9.87366
30
7
0
VERTEX
10
8.45712
20
9.87366
30
7
0
VERTEX
10
8.46429
20
9.87546
30
7
0
VERTEX
10
8.46608
20
9.87546
30
7
0
VERTEX
10
8.46788
20
9.87815
30
7
0
VERTEX
10
8.48222
20
9.87815
30
7
0
VERTEX
10
8.4894
20
9.88083
30
7
0
VERTEX
10
8.49657
20
9.88532
30
7
0
VERTEX
10
8.49926
20
9.8889
30
7
0
VERTEX
10
8.50553
20
9.89339
30
7
0
VERTEX
10
8.50733
20
9.89518
30
7
0
VERTEX
10
8.50822
20
9.89877
30
7
0
VERTEX
10
8.51091
20
9.90235
30
7
0
VERTEX
10
8.51181
20
9.90952
30
7
0
VERTEX
10
8.51091
20
9.9167
30
7
0
VERTEX
10
8.51002
20
9.92028
30
7
0
VERTEX
10
8.50643
20
9.92387
30
7
0
VERTEX
10
8.50464
20
9.92566
30
7
0
VERTEX
10
8.50284
20
9.92566
30
7
0
VERTEX
10
8.50105
20
9.92746
30
7
0
VERTEX
10
8.49746
20
9.92746
30
7
0
VERTEX
10
8.49388
20
9.92925
30
7
0
VERTEX
10
8.46519
20
9.92656
30
7
0
VERTEX
10
8.45802
20
9.92566
30
7
0
VERTEX
10
8.45443
20
9.92566
30
7
0
VERTEX
10
8.45264
20
9.92387
30
7
0
VERTEX
10
8.43829
20
9.91939
30
7
0
VERTEX
10
8.43471
20
9.91849
30
7
0
VERTEX
10
8.42843
20
9.91311
30
7
0
VERTEX
10
8.42215
20
9.90594
30
7
0
VERTEX
10
8.42036
20
9.90235
30
7
0
VERTEX
10
8.41946
20
9.89518
30
7
0
VERTEX
10
8.41946
20
9.89428
30
7
0
SEQEND
0
POLYLINE
62
227
66
1
70
1
3
endoplasmic_reticulum
0
VERTEX
10
8.94215
20
9.95435
30
7
0
VERTEX
10
8.94484
20
9.94001
30
7
0
VERTEX
10
8.94843
20
9.93911
30
7
0
VERTEX
10
8.95201
20
9.9418
30
7
0
VERTEX
10
8.9556
20
9.9427
30
7
0
VERTEX
10
8.95739
20
9.9427
30
7
0
VERTEX
10
8.96098
20
9.94539
30
7
0
VERTEX
10
8.96815
20
9.94718
30
7
0
VERTEX
10
8.97174
20
9.94987
30
7
0
VERTEX
10
8.97532
20
9.95077
30
7
0
VERTEX
10
8.98698
20
9.95883
30
7
0
VERTEX
10
8.99056
20
9.96063
30
7
0
VERTEX
10
8.99146
20
9.96242
30
7
0
VERTEX
10
8.99863
20
9.96511
30
7
0
VERTEX
10
9.00222
20
9.96511
30
7
0
VERTEX
10
9.00581
20
9.9678
30
7
0
VERTEX
10
9.01298
20
9.9678
30
7
0
VERTEX
10
9.01656
20
9.9669
30
7
0
VERTEX
10
9.03091
20
9.96959
30
7
0
VERTEX
10
9.04525
20
9.96959
30
7
0
VERTEX
10
9.04884
20
9.97139
30
7
0
VERTEX
10
9.05243
20
9.97139
30
7
0
VERTEX
10
9.06587
20
9.98125
30
7
0
VERTEX
10
9.06856
20
9.98483
30
7
0
VERTEX
10
9.06946
20
9.99201
30
7
0
VERTEX
10
9.06767
20
10.0064
30
7
0
VERTEX
10
9.06767
20
10.0081
30
7
0
VERTEX
10
9.06587
20
10.0099
30
7
0
VERTEX
10
9.06587
20
10.0117
30
7
0
VERTEX
10
9.0596
20
10.018
30
7
0
VERTEX
10
9.05781
20
10.0216
30
7
0
VERTEX
10
9.05691
20
10.0234
30
7
0
VERTEX
10
9.05512
20
10.0234
30
7
0
VERTEX
10
9.05332
20
10.0252
30
7
0
VERTEX
10
9.02463
20
10.0252
30
7
0
VERTEX
10
9.02105
20
10.0261
30
7
0
VERTEX
10
9.0067
20
10.0243
30
7
0
VERTEX
10
9.00491
20
10.0243
30
7
0
VERTEX
10
9.00132
20
10.0216
30
7
0
VERTEX
10
8.99774
20
10.0207
30
7
0
VERTEX
10
8.99594
20
10.0189
30
7
0
VERTEX
10
8.99415
20
10.0189
30
7
0
VERTEX
10
8.9807
20
10.009
30
7
0
VERTEX
10
8.97801
20
10.0064
30
7
0
VERTEX
10
8.97712
20
10.0028
30
7
0
VERTEX
10
8.97084
20
9.99828
30
7
0
VERTEX
10
8.96725
20
9.99559
30
7
0
VERTEX
10
8.96367
20
9.99559
30
7
0
VERTEX
10
8.95829
20
9.99021
30
7
0
VERTEX
10
8.9547
20
9.98304
30
7
0
VERTEX
10
8.95291
20
9.98125
30
7
0
VERTEX
10
8.95291
20
9.97766
30
7
0
VERTEX
10
8.95381
20
9.97587
30
7
0
VERTEX
10
8.95201
20
9.97228
30
7
0
VERTEX
10
8.94574
20
9.96601
30
7
0
VERTEX
10
8.94305
20
9.96242
30
7
0
VERTEX
10
8.94215
20
9.95525
30
7
0
SEQEND
0
POLYLINE
62
227
66
1
70
1
3
endoplasmic_reticulum
0
VERTEX
10
8.64629
20
9.97945
30
7
0
VERTEX
10
8.64719
20
9.97587
30
7
0
VERTEX
10
8.65436
20
9.97318
30
7
0
VERTEX
10
8.65705
20
9.97049
30
7
0
VERTEX
10
8.66422
20
9.96959
30
7
0
VERTEX
10
8.66601
20
9.9678
30
7
0
VERTEX
10
8.66781
20
9.9678
30
7
0
VERTEX
10
8.6696
20
9.96601
30
7
0
VERTEX
10
8.67319
20
9.96511
30
7
0
VERTEX
10
8.68036
20
9.95883
30
7
0
VERTEX
10
8.68395
20
9.95525
30
7
0
VERTEX
10
8.69112
20
9.95256
30
7
0
VERTEX
10
8.6965
20
9.94808
30
7
0
VERTEX
10
8.70008
20
9.94449
30
7
0
VERTEX
10
8.70726
20
9.94001
30
7
0
VERTEX
10
8.71084
20
9.93732
30
7
0
VERTEX
10
8.71443
20
9.93642
30
7
0
VERTEX
10
8.71801
20
9.93283
30
7
0
VERTEX
10
8.72519
20
9.93194
30
7
0
VERTEX
10
8.73236
20
9.93283
30
7
0
VERTEX
10
8.73953
20
9.93552
30
7
0
VERTEX
10
8.74222
20
9.93732
30
7
0
VERTEX
10
8.74581
20
9.9409
30
7
0
VERTEX
10
8.74939
20
9.94808
30
7
0
VERTEX
10
8.74939
20
9.94987
30
7
0
VERTEX
10
8.76105
20
9.96152
30
7
0
VERTEX
10
8.77091
20
9.97318
30
7
0
VERTEX
10
8.77808
20
9.97856
30
7
0
VERTEX
10
8.78077
20
9.98214
30
7
0
VERTEX
10
8.78257
20
9.98394
30
7
0
VERTEX
10
8.78257
20
9.98573
30
7
0
VERTEX
10
8.78526
20
9.98932
30
7
0
VERTEX
10
8.78615
20
9.99649
30
7
0
VERTEX
10
8.78346
20
10.0037
30
7
0
VERTEX
10
8.77629
20
10.0081
30
7
0
VERTEX
10
8.77091
20
10.0144
30
7
0
VERTEX
10
8.76374
20
10.0198
30
7
0
VERTEX
10
8.74939
20
10.0225
30
7
0
VERTEX
10
8.7476
20
10.0243
30
7
0
VERTEX
10
8.74401
20
10.0243
30
7
0
VERTEX
10
8.74043
20
10.0261
30
7
0
VERTEX
10
8.73863
20
10.0261
30
7
0
VERTEX
10
8.73146
20
10.0306
30
7
0
VERTEX
10
8.71712
20
10.0315
30
7
0
VERTEX
10
8.70995
20
10.0315
30
7
0
VERTEX
10
8.6956
20
10.027
30
7
0
VERTEX
10
8.69381
20
10.0243
30
7
0
VERTEX
10
8.69022
20
10.0234
30
7
0
VERTEX
10
8.68932
20
10.0216
30
7
0
VERTEX
10
8.68574
20
10.0216
30
7
0
VERTEX
10
8.67857
20
10.018
30
7
0
VERTEX
10
8.67139
20
10.0171
30
7
0
VERTEX
10
8.66781
20
10.0153
30
7
0
VERTEX
10
8.66422
20
10.0153
30
7
0
VERTEX
10
8.66064
20
10.0135
30
7
0
VERTEX
10
8.65615
20
10.0064
30
7
0
VERTEX
10
8.64988
20
10.0001
30
7
0
VERTEX
10
8.64898
20
9.9929
30
7
0
VERTEX
10
8.64808
20
9.98932
30
7
0
VERTEX
10
8.64808
20
9.98752
30
7
0
VERTEX
10
8.64629
20
9.98663
30
7
0
VERTEX
10
8.64629
20
9.98035
30
7
0
SEQEND
0
POLYLINE
62
227
66
1
70
1
3
endoplasmic_reticulum
0
VERTEX
10
8.3316
20
9.85215
30
7
0
VERTEX
10
8.3325
20
9.84856
30
7
0
VERTEX
10
8.33519
20
9.84497
30
7
0
VERTEX
10
8.34236
20
9.84228
30
7
0
VERTEX
10
8.35671
20
9.84139
30
7
0
VERTEX
10
8.36388
20
9.84139
30
7
0
VERTEX
10
8.37105
20
9.84318
30
7
0
VERTEX
10
8.37464
20
9.84318
30
7
0
VERTEX
10
8.37822
20
9.84497
30
7
0
VERTEX
10
8.3854
20
9.84497
30
7
0
VERTEX
10
8.38898
20
9.84497
30
7
0
VERTEX
10
8.39615
20
9.85035
30
7
0
VERTEX
10
8.39974
20
9.85304
30
7
0
VERTEX
10
8.40243
20
9.86021
30
7
0
VERTEX
10
8.40512
20
9.8629
30
7
0
VERTEX
10
8.40422
20
9.87725
30
7
0
VERTEX
10
8.39974
20
9.88352
30
7
0
VERTEX
10
8.3854
20
9.88711
30
7
0
VERTEX
10
8.37822
20
9.89159
30
7
0
VERTEX
10
8.37643
20
9.89159
30
7
0
VERTEX
10
8.37284
20
9.89428
30
7
0
VERTEX
10
8.3585
20
9.89159
30
7
0
VERTEX
10
8.34415
20
9.89159
30
7
0
VERTEX
10
8.34057
20
9.89159
30
7
0
VERTEX
10
8.33788
20
9.88801
30
7
0
VERTEX
10
8.33429
20
9.88621
30
7
0
VERTEX
10
8.3325
20
9.88442
30
7
0
VERTEX
10
8.3316
20
9.85573
30
7
0
VERTEX
10
8.3316
20
9.85304
30
7
0
SEQEND
0
POLYLINE
62
31
66
1
70
1
3
contour
0
VERTEX
10
7.23187
20
9.58186
30
7
0
VERTEX
10
7.23483
20
9.55819
30
7
0
VERTEX
10
7.23483
20
9.53453
30
7
0
VERTEX
10
7.23779
20
9.51087
30
7
0
VERTEX
10
7.23926
20
9.49904
30
7
0
VERTEX
10
7.23779
20
9.48721
30
7
0
VERTEX
10
7.2437
20
9.46354
30
7
0
VERTEX
10
7.24222
20
9.45171
30
7
0
VERTEX
10
7.24814
20
9.42805
30
7
0
VERTEX
10
7.25257
20
9.42361
30
7
0
VERTEX
10
7.25701
20
9.41178
30
7
0
VERTEX
10
7.25849
20
9.40587
30
7
0
VERTEX
10
7.27476
20
9.38368
30
7
0
VERTEX
10
7.27476
20
9.38073
30
7
0
VERTEX
10
7.29546
20
9.3615
30
7
0
VERTEX
10
7.29546
20
9.35854
30
7
0
VERTEX
10
7.30138
20
9.35411
30
7
0
VERTEX
10
7.30286
20
9.35115
30
7
0
VERTEX
10
7.30582
20
9.35115
30
7
0
VERTEX
10
7.31173
20
9.34671
30
7
0
VERTEX
10
7.32356
20
9.34523
30
7
0
VERTEX
10
7.33539
20
9.34671
30
7
0
VERTEX
10
7.34575
20
9.35706
30
7
0
VERTEX
10
7.3487
20
9.36298
30
7
0
VERTEX
10
7.35166
20
9.36594
30
7
0
VERTEX
10
7.36053
20
9.3896
30
7
0
VERTEX
10
7.36201
20
9.39551
30
7
0
VERTEX
10
7.36645
20
9.40143
30
7
0
VERTEX
10
7.36941
20
9.40291
30
7
0
VERTEX
10
7.36941
20
9.40883
30
7
0
VERTEX
10
7.36941
20
9.41178
30
7
0
VERTEX
10
7.37237
20
9.41474
30
7
0
VERTEX
10
7.37237
20
9.4177
30
7
0
VERTEX
10
7.38124
20
9.42953
30
7
0
VERTEX
10
7.40194
20
9.47685
30
7
0
VERTEX
10
7.40342
20
9.48869
30
7
0
VERTEX
10
7.40786
20
9.50052
30
7
0
VERTEX
10
7.41525
20
9.51087
30
7
0
VERTEX
10
7.41969
20
9.5227
30
7
0
VERTEX
10
7.42117
20
9.52862
30
7
0
VERTEX
10
7.42413
20
9.53157
30
7
0
VERTEX
10
7.42561
20
9.53749
30
7
0
VERTEX
10
7.43004
20
9.54341
30
7
0
VERTEX
10
7.43448
20
9.55524
30
7
0
VERTEX
10
7.43744
20
9.56115
30
7
0
VERTEX
10
7.43892
20
9.57298
30
7
0
VERTEX
10
7.44335
20
9.5789
30
7
0
VERTEX
10
7.44631
20
9.59073
30
7
0
VERTEX
10
7.45075
20
9.59665
30
7
0
VERTEX
10
7.45075
20
9.5996
30
7
0
VERTEX
10
7.45814
20
9.61144
30
7
0
VERTEX
10
7.46406
20
9.61735
30
7
0
VERTEX
10
7.4685
20
9.62918
30
7
0
VERTEX
10
7.48624
20
9.65137
30
7
0
VERTEX
10
7.49659
20
9.66172
30
7
0
VERTEX
10
7.50103
20
9.66763
30
7
0
VERTEX
10
7.50547
20
9.66911
30
7
0
VERTEX
10
7.51582
20
9.67947
30
7
0
VERTEX
10
7.52765
20
9.70313
30
7
0
VERTEX
10
7.53061
20
9.70609
30
7
0
VERTEX
10
7.53061
20
9.712
30
7
0
VERTEX
10
7.53653
20
9.72383
30
7
0
VERTEX
10
7.538
20
9.72975
30
7
0
VERTEX
10
7.54096
20
9.73271
30
7
0
VERTEX
10
7.54392
20
9.74454
30
7
0
VERTEX
10
7.54392
20
9.7475
30
7
0
VERTEX
10
7.55279
20
9.75933
30
7
0
VERTEX
10
7.56019
20
9.78299
30
7
0
VERTEX
10
7.56462
20
9.79482
30
7
0
VERTEX
10
7.56758
20
9.84215
30
7
0
VERTEX
10
7.56906
20
9.85398
30
7
0
VERTEX
10
7.56019
20
9.87764
30
7
0
VERTEX
10
7.54392
20
9.89834
30
7
0
VERTEX
10
7.53357
20
9.91905
30
7
0
VERTEX
10
7.53357
20
9.93088
30
7
0
VERTEX
10
7.52765
20
9.95454
30
7
0
VERTEX
10
7.51878
20
9.97821
30
7
0
VERTEX
10
7.51434
20
9.99004
30
7
0
VERTEX
10
7.50695
20
10.0019
30
7
0
VERTEX
10
7.49659
20
10.0093
30
7
0
VERTEX
10
7.48476
20
10.0107
30
7
0
VERTEX
10
7.4611
20
10.0093
30
7
0
VERTEX
10
7.44927
20
10.0078
30
7
0
VERTEX
10
7.42561
20
9.99891
30
7
0
VERTEX
10
7.41378
20
9.99447
30
7
0
VERTEX
10
7.40194
20
9.98708
30
7
0
VERTEX
10
7.39011
20
9.98412
30
7
0
VERTEX
10
7.3842
20
9.98116
30
7
0
VERTEX
10
7.38124
20
9.98116
30
7
0
VERTEX
10
7.37828
20
9.97821
30
7
0
VERTEX
10
7.37532
20
9.97821
30
7
0
VERTEX
10
7.37237
20
9.97525
30
7
0
VERTEX
10
7.36941
20
9.97525
30
7
0
VERTEX
10
7.36349
20
9.97081
30
7
0
VERTEX
10
7.36053
20
9.97081
30
7
0
VERTEX
10
7.35906
20
9.9649
30
7
0
VERTEX
10
7.3561
20
9.96194
30
7
0
VERTEX
10
7.35462
20
9.95602
30
7
0
VERTEX
10
7.34722
20
9.94419
30
7
0
VERTEX
10
7.34279
20
9.93236
30
7
0
VERTEX
10
7.33539
20
9.92201
30
7
0
VERTEX
10
7.33391
20
9.87468
30
7
0
VERTEX
10
7.33687
20
9.86877
30
7
0
VERTEX
10
7.33687
20
9.82144
30
7
0
VERTEX
10
7.33391
20
9.79778
30
7
0
VERTEX
10
7.33391
20
9.79186
30
7
0
VERTEX
10
7.32948
20
9.78003
30
7
0
VERTEX
10
7.328
20
9.77412
30
7
0
VERTEX
10
7.31913
20
9.76524
30
7
0
VERTEX
10
7.31913
20
9.76228
30
7
0
VERTEX
10
7.31173
20
9.75045
30
7
0
VERTEX
10
7.30286
20
9.74158
30
7
0
VERTEX
10
7.27919
20
9.72827
30
7
0
VERTEX
10
7.26884
20
9.72088
30
7
0
VERTEX
10
7.24518
20
9.71348
30
7
0
VERTEX
10
7.23926
20
9.70756
30
7
0
VERTEX
10
7.24074
20
9.69573
30
7
0
VERTEX
10
7.23631
20
9.67207
30
7
0
VERTEX
10
7.23631
20
9.66024
30
7
0
VERTEX
10
7.23187
20
9.63658
30
7
0
VERTEX
10
7.23187
20
9.58925
30
7
0
VERTEX
10
7.23187
20
9.58334
30
7
0
SEQEND
0
POLYLINE
62
31
66
1
70
1
3
contour
0
VERTEX
10
8.28103
20
9.80064
30
7
0
VERTEX
10
8.28393
20
9.79484
30
7
0
VERTEX
10
8.28393
20
9.78324
30
7
0
VERTEX
10
8.29263
20
9.76149
30
7
0
VERTEX
10
8.30133
20
9.75134
30
7
0
VERTEX
10
8.31148
20
9.74409
30
7
0
VERTEX
10
8.31583
20
9.73974
30
7
0
VERTEX
10
8.31728
20
9.73394
30
7
0
VERTEX
10
8.32018
20
9.73104
30
7
0
VERTEX
10
8.32163
20
9.72524
30
7
0
VERTEX
10
8.32888
20
9.71364
30
7
0
VERTEX
10
8.33323
20
9.70204
30
7
0
VERTEX
10
8.33468
20
9.69044
30
7
0
VERTEX
10
8.33468
20
9.68464
30
7
0
VERTEX
10
8.34338
20
9.66144
30
7
0
VERTEX
10
8.34773
20
9.64984
30
7
0
VERTEX
10
8.35208
20
9.62664
30
7
0
VERTEX
10
8.35643
20
9.62229
30
7
0
VERTEX
10
8.35788
20
9.61069
30
7
0
VERTEX
10
8.35933
20
9.60489
30
7
0
VERTEX
10
8.36368
20
9.59909
30
7
0
VERTEX
10
8.36513
20
9.59329
30
7
0
VERTEX
10
8.36948
20
9.58894
30
7
0
VERTEX
10
8.37383
20
9.57879
30
7
0
VERTEX
10
8.37963
20
9.57299
30
7
0
VERTEX
10
8.38108
20
9.56719
30
7
0
VERTEX
10
8.39268
20
9.55704
30
7
0
VERTEX
10
8.39993
20
9.54689
30
7
0
VERTEX
10
8.41008
20
9.53819
30
7
0
VERTEX
10
8.41733
20
9.52804
30
7
0
VERTEX
10
8.42168
20
9.52514
30
7
0
VERTEX
10
8.42893
20
9.51354
30
7
0
VERTEX
10
8.43328
20
9.50774
30
7
0
VERTEX
10
8.43618
20
9.49614
30
7
0
VERTEX
10
8.44053
20
9.49034
30
7
0
VERTEX
10
8.44778
20
9.46859
30
7
0
VERTEX
10
8.44923
20
9.46279
30
7
0
VERTEX
10
8.45793
20
9.45119
30
7
0
VERTEX
10
8.45938
20
9.43959
30
7
0
VERTEX
10
8.47098
20
9.41784
30
7
0
VERTEX
10
8.47968
20
9.39464
30
7
0
VERTEX
10
8.50288
20
9.39319
30
7
0
VERTEX
10
8.54928
20
9.39754
30
7
0
VERTEX
10
8.57248
20
9.40189
30
7
0
VERTEX
10
8.57828
20
9.40189
30
7
0
VERTEX
10
8.58118
20
9.40189
30
7
0
VERTEX
10
8.58408
20
9.40479
30
7
0
VERTEX
10
8.60728
20
9.41204
30
7
0
VERTEX
10
8.61888
20
9.41639
30
7
0
VERTEX
10
8.66528
20
9.42364
30
7
0
VERTEX
10
8.71168
20
9.42799
30
7
0
VERTEX
10
8.72328
20
9.42944
30
7
0
VERTEX
10
8.74648
20
9.43959
30
7
0
VERTEX
10
8.75808
20
9.44974
30
7
0
VERTEX
10
8.76388
20
9.45264
30
7
0
VERTEX
10
8.76533
20
9.45554
30
7
0
VERTEX
10
8.77113
20
9.45554
30
7
0
VERTEX
10
8.78273
20
9.46424
30
7
0
VERTEX
10
8.79143
20
9.47439
30
7
0
VERTEX
10
8.79288
20
9.47874
30
7
0
VERTEX
10
8.79868
20
9.48309
30
7
0
VERTEX
10
8.80158
20
9.48889
30
7
0
VERTEX
10
8.80593
20
9.49179
30
7
0
VERTEX
10
8.81463
20
9.50194
30
7
0
VERTEX
10
8.81753
20
9.50774
30
7
0
VERTEX
10
8.82913
20
9.51644
30
7
0
VERTEX
10
8.83493
20
9.51934
30
7
0
VERTEX
10
8.83783
20
9.51934
30
7
0
VERTEX
10
8.83928
20
9.52224
30
7
0
VERTEX
10
8.84508
20
9.52369
30
7
0
VERTEX
10
8.85523
20
9.53239
30
7
0
VERTEX
10
8.85813
20
9.53529
30
7
0
VERTEX
10
8.86393
20
9.53674
30
7
0
VERTEX
10
8.86683
20
9.53674
30
7
0
VERTEX
10
8.87698
20
9.54544
30
7
0
VERTEX
10
8.88278
20
9.54689
30
7
0
VERTEX
10
8.89293
20
9.55559
30
7
0
VERTEX
10
8.90454
20
9.56864
30
7
0
VERTEX
10
8.90454
20
9.57444
30
7
0
VERTEX
10
8.91324
20
9.59764
30
7
0
VERTEX
10
8.91904
20
9.60344
30
7
0
VERTEX
10
8.92629
20
9.62664
30
7
0
VERTEX
10
8.93064
20
9.63824
30
7
0
VERTEX
10
8.93499
20
9.64404
30
7
0
VERTEX
10
8.93644
20
9.64984
30
7
0
VERTEX
10
8.94514
20
9.65999
30
7
0
VERTEX
10
8.94949
20
9.66579
30
7
0
VERTEX
10
8.95094
20
9.67159
30
7
0
VERTEX
10
8.95384
20
9.67449
30
7
0
VERTEX
10
8.95384
20
9.67739
30
7
0
VERTEX
10
8.95964
20
9.67884
30
7
0
VERTEX
10
8.96689
20
9.70204
30
7
0
VERTEX
10
8.97124
20
9.72524
30
7
0
VERTEX
10
8.96834
20
9.77164
30
7
0
VERTEX
10
8.96834
20
9.77744
30
7
0
VERTEX
10
8.96544
20
9.78324
30
7
0
VERTEX
10
8.96544
20
9.79484
30
7
0
VERTEX
10
8.96109
20
9.81804
30
7
0
VERTEX
10
8.95819
20
9.82964
30
7
0
VERTEX
10
8.95384
20
9.83544
30
7
0
VERTEX
10
8.95094
20
9.84704
30
7
0
VERTEX
10
8.94804
20
9.84849
30
7
0
VERTEX
10
8.94079
20
9.87024
30
7
0
VERTEX
10
8.94079
20
9.87604
30
7
0
VERTEX
10
8.94079
20
9.87894
30
7
0
VERTEX
10
8.93644
20
9.88184
30
7
0
VERTEX
10
8.93934
20
9.88474
30
7
0
VERTEX
10
8.94079
20
9.89054
30
7
0
VERTEX
10
8.94079
20
9.89344
30
7
0
VERTEX
10
8.95964
20
9.91229
30
7
0
VERTEX
10
8.96399
20
9.91664
30
7
0
VERTEX
10
8.96979
20
9.91809
30
7
0
VERTEX
10
8.97414
20
9.92244
30
7
0
VERTEX
10
8.99734
20
9.92969
30
7
0
VERTEX
10
9.02054
20
9.92969
30
7
0
VERTEX
10
9.03214
20
9.93259
30
7
0
VERTEX
10
9.07854
20
9.93114
30
7
0
VERTEX
10
9.10174
20
9.93114
30
7
0
VERTEX
10
9.11334
20
9.93114
30
7
0
VERTEX
10
9.11914
20
9.93114
30
7
0
VERTEX
10
9.12204
20
9.93114
30
7
0
VERTEX
10
9.12494
20
9.93404
30
7
0
VERTEX
10
9.13654
20
9.93549
30
7
0
VERTEX
10
9.13944
20
9.93839
30
7
0
VERTEX
10
9.14234
20
9.93839
30
7
0
VERTEX
10
9.15104
20
9.9471
30
7
0
VERTEX
10
9.16119
20
9.9529
30
7
0
VERTEX
10
9.16699
20
9.9558
30
7
0
VERTEX
10
9.16844
20
9.9587
30
7
0
VERTEX
10
9.17134
20
9.9587
30
7
0
VERTEX
10
9.18004
20
9.96885
30
7
0
VERTEX
10
9.18584
20
9.9732
30
7
0
VERTEX
10
9.19309
20
9.9819
30
7
0
VERTEX
10
9.19454
20
9.9877
30
7
0
VERTEX
10
9.19889
20
9.99205
30
7
0
VERTEX
10
9.19889
20
9.99495
30
7
0
VERTEX
10
9.20904
20
10.0065
30
7
0
VERTEX
10
9.21774
20
10.0297
30
7
0
VERTEX
10
9.21774
20
10.0413
30
7
0
VERTEX
10
9.21484
20
10.0529
30
7
0
VERTEX
10
9.21484
20
10.0645
30
7
0
VERTEX
10
9.21194
20
10.0761
30
7
0
VERTEX
10
9.21194
20
10.0819
30
7
0
VERTEX
10
9.21484
20
10.0877
30
7
0
VERTEX
10
9.21339
20
10.1341
30
7
0
VERTEX
10
9.21339
20
10.1457
30
7
0
VERTEX
10
9.21049
20
10.1486
30
7
0
VERTEX
10
9.20904
20
10.1544
30
7
0
VERTEX
10
9.20614
20
10.1559
30
7
0
VERTEX
10
9.20179
20
10.1791
30
7
0
VERTEX
10
9.20179
20
10.182
30
7
0
VERTEX
10
9.19744
20
10.1863
30
7
0
VERTEX
10
9.19599
20
10.1979
30
7
0
VERTEX
10
9.19309
20
10.2008
30
7
0
VERTEX
10
9.19164
20
10.2124
30
7
0
VERTEX
10
9.18729
20
10.2226
30
7
0
VERTEX
10
9.18584
20
10.2284
30
7
0
VERTEX
10
9.18439
20
10.2313
30
7
0
VERTEX
10
9.17859
20
10.2327
30
7
0
VERTEX
10
9.17859
20
10.2356
30
7
0
VERTEX
10
9.16699
20
10.2429
30
7
0
VERTEX
10
9.15539
20
10.2443
30
7
0
VERTEX
10
9.14379
20
10.2487
30
7
0
VERTEX
10
9.13799
20
10.2501
30
7
0
VERTEX
10
9.13219
20
10.2545
30
7
0
VERTEX
10
9.12929
20
10.2603
30
7
0
VERTEX
10
9.11914
20
10.269
30
7
0
VERTEX
10
9.11479
20
10.2733
30
7
0
VERTEX
10
9.11334
20
10.2849
30
7
0
VERTEX
10
9.10609
20
10.2951
30
7
0
VERTEX
10
9.10174
20
10.3067
30
7
0
VERTEX
10
9.10029
20
10.3183
30
7
0
VERTEX
10
9.09739
20
10.3212
30
7
0
VERTEX
10
9.09449
20
10.3328
30
7
0
VERTEX
10
9.09159
20
10.3386
30
7
0
VERTEX
10
9.09014
20
10.3618
30
7
0
VERTEX
10
9.09014
20
10.3734
30
7
0
VERTEX
10
9.08869
20
10.3792
30
7
0
VERTEX
10
9.07854
20
10.3864
30
7
0
VERTEX
10
9.07274
20
10.3893
30
7
0
VERTEX
10
9.06984
20
10.3893
30
7
0
VERTEX
10
9.06549
20
10.3951
30
7
0
VERTEX
10
9.04229
20
10.3995
30
7
0
VERTEX
10
9.03069
20
10.3995
30
7
0
VERTEX
10
9.02054
20
10.4038
30
7
0
VERTEX
10
9.00894
20
10.4009
30
7
0
VERTEX
10
9.00314
20
10.3995
30
7
0
VERTEX
10
9.00024
20
10.3995
30
7
0
VERTEX
10
8.99589
20
10.3951
30
7
0
VERTEX
10
8.99299
20
10.3951
30
7
0
VERTEX
10
8.99009
20
10.3922
30
7
0
VERTEX
10
8.96689
20
10.3879
30
7
0
VERTEX
10
8.94804
20
10.369
30
7
0
VERTEX
10
8.94514
20
10.3632
30
7
0
VERTEX
10
8.93499
20
10.356
30
7
0
VERTEX
10
8.93064
20
10.3502
30
7
0
VERTEX
10
8.92774
20
10.3502
30
7
0
VERTEX
10
8.91614
20
10.3429
30
7
0
VERTEX
10
8.91179
20
10.3386
30
7
0
VERTEX
10
8.90599
20
10.3371
30
7
0
VERTEX
10
8.90019
20
10.3313
30
7
0
VERTEX
10
8.88858
20
10.327
30
7
0
VERTEX
10
8.88278
20
10.3241
30
7
0
VERTEX
10
8.87988
20
10.3212
30
7
0
VERTEX
10
8.87408
20
10.3212
30
7
0
VERTEX
10
8.86828
20
10.3183
30
7
0
VERTEX
10
8.86538
20
10.3154
30
7
0
VERTEX
10
8.86248
20
10.3154
30
7
0
VERTEX
10
8.85958
20
10.3125
30
7
0
VERTEX
10
8.85378
20
10.311
30
7
0
VERTEX
10
8.84218
20
10.3038
30
7
0
VERTEX
10
8.83493
20
10.2936
30
7
0
VERTEX
10
8.82623
20
10.2864
30
7
0
VERTEX
10
8.82043
20
10.2835
30
7
0
VERTEX
10
8.81898
20
10.2806
30
7
0
VERTEX
10
8.81318
20
10.2791
30
7
0
VERTEX
10
8.80303
20
10.2719
30
7
0
VERTEX
10
8.77983
20
10.2646
30
7
0
VERTEX
10
8.76823
20
10.2632
30
7
0
VERTEX
10
8.74793
20
10.2487
30
7
0
VERTEX
10
8.74213
20
10.2458
30
7
0
VERTEX
10
8.73488
20
10.2342
30
7
0
VERTEX
10
8.73343
20
10.211
30
7
0
VERTEX
10
8.73053
20
10.1994
30
7
0
VERTEX
10
8.72763
20
10.1936
30
7
0
VERTEX
10
8.72183
20
10.1878
30
7
0
VERTEX
10
8.72038
20
10.182
30
7
0
VERTEX
10
8.71168
20
10.1718
30
7
0
VERTEX
10
8.70008
20
10.1602
30
7
0
VERTEX
10
8.69138
20
10.1501
30
7
0
VERTEX
10
8.68703
20
10.1399
30
7
0
VERTEX
10
8.68703
20
10.1341
30
7
0
VERTEX
10
8.68413
20
10.1283
30
7
0
VERTEX
10
8.68413
20
10.1254
30
7
0
VERTEX
10
8.66383
20
10.1095
30
7
0
VERTEX
10
8.65948
20
10.1037
30
7
0
VERTEX
10
8.65658
20
10.1037
30
7
0
VERTEX
10
8.64498
20
10.0964
30
7
0
VERTEX
10
8.63918
20
10.0921
30
7
0
VERTEX
10
8.63628
20
10.0892
30
7
0
VERTEX
10
8.63048
20
10.0877
30
7
0
VERTEX
10
8.62468
20
10.0834
30
7
0
VERTEX
10
8.62178
20
10.0819
30
7
0
VERTEX
10
8.62178
20
10.079
30
7
0
VERTEX
10
8.61018
20
10.0718
30
7
0
VERTEX
10
8.60728
20
10.0689
30
7
0
VERTEX
10
8.59568
20
10.0645
30
7
0
VERTEX
10
8.58988
20
10.0616
30
7
0
VERTEX
10
8.58118
20
10.0515
30
7
0
VERTEX
10
8.57538
20
10.0515
30
7
0
VERTEX
10
8.55653
20
10.0355
30
7
0
VERTEX
10
8.54493
20
10.0297
30
7
0
VERTEX
10
8.53333
20
10.0268
30
7
0
VERTEX
10
8.52173
20
10.0268
30
7
0
VERTEX
10
8.51593
20
10.0268
30
7
0
VERTEX
10
8.49273
20
10.0196
30
7
0
VERTEX
10
8.46953
20
10.0152
30
7
0
VERTEX
10
8.44633
20
10.008
30
7
0
VERTEX
10
8.44343
20
10.008
30
7
0
VERTEX
10
8.43908
20
10.0036
30
7
0
VERTEX
10
8.42748
20
10.0022
30
7
0
VERTEX
10
8.42168
20
10.0022
30
7
0
VERTEX
10
8.42023
20
9.9993
30
7
0
VERTEX
10
8.40863
20
9.99785
30
7
0
VERTEX
10
8.39703
20
9.9935
30
7
0
VERTEX
10
8.37383
20
9.98045
30
7
0
VERTEX
10
8.37093
20
9.98045
30
7
0
VERTEX
10
8.35063
20
9.9616
30
7
0
VERTEX
10
8.33903
20
9.95145
30
7
0
VERTEX
10
8.33178
20
9.94129
30
7
0
VERTEX
10
8.32163
20
9.93259
30
7
0
VERTEX
10
8.31583
20
9.92969
30
7
0
VERTEX
10
8.30858
20
9.92099
30
7
0
VERTEX
10
8.30568
20
9.91809
30
7
0
VERTEX
10
8.30713
20
9.90649
30
7
0
VERTEX
10
8.30713
20
9.90359
30
7
0
VERTEX
10
8.30423
20
9.90069
30
7
0
VERTEX
10
8.29698
20
9.87749
30
7
0
VERTEX
10
8.28973
20
9.86734
30
7
0
VERTEX
10
8.28828
20
9.86154
30
7
0
VERTEX
10
8.28538
20
9.85864
30
7
0
VERTEX
10
8.28103
20
9.81224
30
7
0
VERTEX
10
8.28103
20
9.80209
30
7
0
SEQEND
0
ENDSEC
0
EOF
