0
SECTION
2
ENTITIES
0
POLYLINE
62
31
66
1
70
1
3
contour
0
VERTEX
10
9.69879
20
8.17989
30
3.76
0
VERTEX
10
9.70323
20
8.16215
30
3.76
0
VERTEX
10
9.70545
20
8.15328
30
3.76
0
VERTEX
10
9.70545
20
8.14885
30
3.76
0
VERTEX
10
9.73649
20
8.12002
30
3.76
0
VERTEX
10
9.75201
20
8.10894
30
3.76
0
VERTEX
10
9.76975
20
8.09342
30
3.76
0
VERTEX
10
9.77862
20
8.0912
30
3.76
0
VERTEX
10
9.78749
20
8.08455
30
3.76
0
VERTEX
10
9.79636
20
8.08233
30
3.76
0
VERTEX
10
9.8274
20
8.05794
30
3.76
0
VERTEX
10
9.85845
20
8.03798
30
3.76
0
VERTEX
10
9.86732
20
8.03355
30
3.76
0
VERTEX
10
9.87175
20
8.02911
30
3.76
0
VERTEX
10
9.90723
20
8.01581
30
3.76
0
VERTEX
10
9.94271
20
8.01137
30
3.76
0
VERTEX
10
10.0137
20
8.01137
30
3.76
0
VERTEX
10
10.0491
20
8.00916
30
3.76
0
VERTEX
10
10.0669
20
8.00916
30
3.76
0
VERTEX
10
10.1024
20
8.0025
30
3.76
0
VERTEX
10
10.1201
20
7.99585
30
3.76
0
VERTEX
10
10.1556
20
7.99585
30
3.76
0
VERTEX
10
10.1911
20
8.00916
30
3.76
0
VERTEX
10
10.2066
20
8.02246
30
3.76
0
VERTEX
10
10.2154
20
8.02246
30
3.76
0
VERTEX
10
10.231
20
8.03798
30
3.76
0
VERTEX
10
10.2376
20
8.04685
30
3.76
0
VERTEX
10
10.2554
20
8.05794
30
3.76
0
VERTEX
10
10.2598
20
8.06237
30
3.76
0
VERTEX
10
10.2598
20
8.06681
30
3.76
0
VERTEX
10
10.2687
20
8.06902
30
3.76
0
VERTEX
10
10.2797
20
8.08676
30
3.76
0
VERTEX
10
10.2842
20
8.1045
30
3.76
0
VERTEX
10
10.282
20
8.17546
30
3.76
0
VERTEX
10
10.282
20
8.1932
30
3.76
0
VERTEX
10
10.282
20
8.20207
30
3.76
0
VERTEX
10
10.2886
20
8.21094
30
3.76
0
VERTEX
10
10.2931
20
8.24641
30
3.76
0
VERTEX
10
10.2886
20
8.28189
30
3.76
0
VERTEX
10
10.2842
20
8.29963
30
3.76
0
VERTEX
10
10.2775
20
8.3085
30
3.76
0
VERTEX
10
10.2753
20
8.31737
30
3.76
0
VERTEX
10
10.2709
20
8.32181
30
3.76
0
VERTEX
10
10.2709
20
8.32624
30
3.76
0
VERTEX
10
10.2664
20
8.33067
30
3.76
0
VERTEX
10
10.2664
20
8.34841
30
3.76
0
VERTEX
10
10.2576
20
8.36394
30
3.76
0
VERTEX
10
10.2421
20
8.37724
30
3.76
0
VERTEX
10
10.231
20
8.39498
30
3.76
0
VERTEX
10
10.2132
20
8.41272
30
3.76
0
VERTEX
10
10.1955
20
8.42602
30
3.76
0
VERTEX
10
10.1777
20
8.43267
30
3.76
0
VERTEX
10
10.1689
20
8.43489
30
3.76
0
VERTEX
10
10.1534
20
8.44598
30
3.76
0
VERTEX
10
10.1356
20
8.4482
30
3.76
0
VERTEX
10
10.1267
20
8.4482
30
3.76
0
VERTEX
10
10.1223
20
8.4482
30
3.76
0
VERTEX
10
10.1134
20
8.45485
30
3.76
0
VERTEX
10
10.0957
20
8.45928
30
3.76
0
VERTEX
10
10.0868
20
8.4615
30
3.76
0
VERTEX
10
10.0824
20
8.46593
30
3.76
0
VERTEX
10
10.0735
20
8.46815
30
3.76
0
VERTEX
10
10.0691
20
8.47259
30
3.76
0
VERTEX
10
10.0336
20
8.47924
30
3.76
0
VERTEX
10
10.0159
20
8.48146
30
3.76
0
VERTEX
10
10.007
20
8.48367
30
3.76
0
VERTEX
10
10.0026
20
8.48811
30
3.76
0
VERTEX
10
9.9671
20
8.48811
30
3.76
0
VERTEX
10
9.94936
20
8.49476
30
3.76
0
VERTEX
10
9.93162
20
8.49476
30
3.76
0
VERTEX
10
9.89614
20
8.50141
30
3.76
0
VERTEX
10
9.86066
20
8.51693
30
3.76
0
VERTEX
10
9.85401
20
8.52137
30
3.76
0
VERTEX
10
9.84736
20
8.53024
30
3.76
0
VERTEX
10
9.84292
20
8.53467
30
3.76
0
VERTEX
10
9.80745
20
8.52802
30
3.76
0
VERTEX
10
9.78971
20
8.52802
30
3.76
0
VERTEX
10
9.75423
20
8.51472
30
3.76
0
VERTEX
10
9.74092
20
8.50141
30
3.76
0
VERTEX
10
9.72984
20
8.48367
30
3.76
0
VERTEX
10
9.72319
20
8.4748
30
3.76
0
VERTEX
10
9.72097
20
8.40385
30
3.76
0
VERTEX
10
9.7254
20
8.33289
30
3.76
0
VERTEX
10
9.72319
20
8.29741
30
3.76
0
VERTEX
10
9.71432
20
8.26194
30
3.76
0
VERTEX
10
9.7121
20
8.25307
30
3.76
0
VERTEX
10
9.70766
20
8.24863
30
3.76
0
VERTEX
10
9.70766
20
8.23976
30
3.76
0
VERTEX
10
9.70766
20
8.23533
30
3.76
0
VERTEX
10
9.70323
20
8.23311
30
3.76
0
VERTEX
10
9.69879
20
8.19763
30
3.76
0
VERTEX
10
9.69879
20
8.18211
30
3.76
0
SEQEND
0
POLYLINE
62
31
66
1
70
1
3
contour
0
VERTEX
10
7.77463
20
8.77124
30
3.76
0
VERTEX
10
7.78278
20
8.74952
30
3.76
0
VERTEX
10
7.7855
20
8.73866
30
3.76
0
VERTEX
10
7.79093
20
8.73594
30
3.76
0
VERTEX
10
7.79093
20
8.73051
30
3.76
0
VERTEX
10
7.80179
20
8.72236
30
3.76
0
VERTEX
10
7.80722
20
8.71693
30
3.76
0
VERTEX
10
7.82894
20
8.71693
30
3.76
0
VERTEX
10
7.83981
20
8.71693
30
3.76
0
VERTEX
10
7.85882
20
8.73322
30
3.76
0
VERTEX
10
7.86425
20
8.74409
30
3.76
0
VERTEX
10
7.86425
20
8.75495
30
3.76
0
VERTEX
10
7.86425
20
8.76038
30
3.76
0
VERTEX
10
7.8561
20
8.77124
30
3.76
0
VERTEX
10
7.85882
20
8.79297
30
3.76
0
VERTEX
10
7.85882
20
8.80383
30
3.76
0
VERTEX
10
7.85882
20
8.80926
30
3.76
0
VERTEX
10
7.83709
20
8.82012
30
3.76
0
VERTEX
10
7.82894
20
8.83098
30
3.76
0
VERTEX
10
7.81808
20
8.83642
30
3.76
0
VERTEX
10
7.81537
20
8.83098
30
3.76
0
VERTEX
10
7.81808
20
8.82555
30
3.76
0
VERTEX
10
7.80722
20
8.82012
30
3.76
0
VERTEX
10
7.79636
20
8.82012
30
3.76
0
VERTEX
10
7.77735
20
8.80654
30
3.76
0
VERTEX
10
7.77463
20
8.78482
30
3.76
0
VERTEX
10
7.77463
20
8.77396
30
3.76
0
SEQEND
0
POLYLINE
62
224
66
1
70
1
3
mitochondrion
0
VERTEX
10
9.86788
20
8.28418
30
3.76
0
VERTEX
10
9.87483
20
8.26193
30
3.76
0
VERTEX
10
9.87761
20
8.25081
30
3.76
0
VERTEX
10
9.89013
20
8.22856
30
3.76
0
VERTEX
10
9.8943
20
8.223
30
3.76
0
VERTEX
10
9.8943
20
8.22022
30
3.76
0
VERTEX
10
9.9082
20
8.19937
30
3.76
0
VERTEX
10
9.91794
20
8.19102
30
3.76
0
VERTEX
10
9.9235
20
8.18963
30
3.76
0
VERTEX
10
9.92906
20
8.18407
30
3.76
0
VERTEX
10
9.94018
20
8.1799
30
3.76
0
VERTEX
10
9.95131
20
8.17851
30
3.76
0
VERTEX
10
9.97355
20
8.17017
30
3.76
0
VERTEX
10
9.98468
20
8.16599
30
3.76
0
VERTEX
10
9.9958
20
8.16599
30
3.76
0
VERTEX
10
10.0167
20
8.15626
30
3.76
0
VERTEX
10
10.0194
20
8.15626
30
3.76
0
VERTEX
10
10.0236
20
8.15209
30
3.76
0
VERTEX
10
10.0681
20
8.15209
30
3.76
0
VERTEX
10
10.0792
20
8.15348
30
3.76
0
VERTEX
10
10.0848
20
8.15765
30
3.76
0
VERTEX
10
10.107
20
8.16599
30
3.76
0
VERTEX
10
10.1182
20
8.16878
30
3.76
0
VERTEX
10
10.1376
20
8.18129
30
3.76
0
VERTEX
10
10.146
20
8.19102
30
3.76
0
VERTEX
10
10.1487
20
8.1938
30
3.76
0
VERTEX
10
10.1487
20
8.19937
30
3.76
0
VERTEX
10
10.1529
20
8.21049
30
3.76
0
VERTEX
10
10.1529
20
8.22161
30
3.76
0
VERTEX
10
10.1557
20
8.22717
30
3.76
0
VERTEX
10
10.1557
20
8.27167
30
3.76
0
VERTEX
10
10.1557
20
8.29391
30
3.76
0
VERTEX
10
10.1571
20
8.30504
30
3.76
0
VERTEX
10
10.1529
20
8.31616
30
3.76
0
VERTEX
10
10.1209
20
8.35926
30
3.76
0
VERTEX
10
10.1182
20
8.36483
30
3.76
0
VERTEX
10
10.1154
20
8.36761
30
3.76
0
VERTEX
10
10.1154
20
8.37039
30
3.76
0
VERTEX
10
10.1043
20
8.38151
30
3.76
0
VERTEX
10
10.1015
20
8.38429
30
3.76
0
VERTEX
10
10.0987
20
8.38429
30
3.76
0
VERTEX
10
10.0945
20
8.38985
30
3.76
0
VERTEX
10
10.0848
20
8.39681
30
3.76
0
VERTEX
10
10.0792
20
8.40098
30
3.76
0
VERTEX
10
10.0737
20
8.40237
30
3.76
0
VERTEX
10
10.0709
20
8.40515
30
3.76
0
VERTEX
10
10.0653
20
8.40654
30
3.76
0
VERTEX
10
10.0598
20
8.41071
30
3.76
0
VERTEX
10
10.0375
20
8.4121
30
3.76
0
VERTEX
10
10.0153
20
8.41766
30
3.76
0
VERTEX
10
9.99302
20
8.41905
30
3.76
0
VERTEX
10
9.9819
20
8.41905
30
3.76
0
VERTEX
10
9.97633
20
8.41905
30
3.76
0
VERTEX
10
9.97355
20
8.41905
30
3.76
0
VERTEX
10
9.97077
20
8.41627
30
3.76
0
VERTEX
10
9.97077
20
8.41349
30
3.76
0
VERTEX
10
9.95965
20
8.41071
30
3.76
0
VERTEX
10
9.94853
20
8.41071
30
3.76
0
VERTEX
10
9.9374
20
8.40654
30
3.76
0
VERTEX
10
9.93184
20
8.40515
30
3.76
0
VERTEX
10
9.91794
20
8.3829
30
3.76
0
VERTEX
10
9.91237
20
8.38151
30
3.76
0
VERTEX
10
9.89569
20
8.36205
30
3.76
0
VERTEX
10
9.88179
20
8.34119
30
3.76
0
VERTEX
10
9.879
20
8.33007
30
3.76
0
VERTEX
10
9.87066
20
8.31894
30
3.76
0
VERTEX
10
9.86788
20
8.31338
30
3.76
0
VERTEX
10
9.86788
20
8.29113
30
3.76
0
VERTEX
10
9.86788
20
8.28557
30
3.76
0
SEQEND
0
POLYLINE
62
236
66
1
70
1
3
postsynaptic_density
0
VERTEX
10
7.74299
20
8.72836
30
3.76
0
VERTEX
10
7.74672
20
8.72463
30
3.76
0
VERTEX
10
7.75045
20
8.7097
30
3.76
0
VERTEX
10
7.75045
20
8.70596
30
3.76
0
VERTEX
10
7.75792
20
8.70223
30
3.76
0
VERTEX
10
7.75792
20
8.6985
30
3.76
0
VERTEX
10
7.76538
20
8.69477
30
3.76
0
VERTEX
10
7.76912
20
8.69477
30
3.76
0
VERTEX
10
7.77658
20
8.68917
30
3.76
0
VERTEX
10
7.80644
20
8.69104
30
3.76
0
VERTEX
10
7.81391
20
8.69104
30
3.76
0
VERTEX
10
7.82137
20
8.69477
30
3.76
0
VERTEX
10
7.82324
20
8.6985
30
3.76
0
VERTEX
10
7.83817
20
8.7041
30
3.76
0
VERTEX
10
7.85123
20
8.7153
30
3.76
0
VERTEX
10
7.85683
20
8.71903
30
3.76
0
VERTEX
10
7.8643
20
8.71903
30
3.76
0
VERTEX
10
7.86803
20
8.71903
30
3.76
0
VERTEX
10
7.87736
20
8.73209
30
3.76
0
VERTEX
10
7.88296
20
8.74702
30
3.76
0
VERTEX
10
7.88296
20
8.77688
30
3.76
0
VERTEX
10
7.88296
20
8.79181
30
3.76
0
VERTEX
10
7.87922
20
8.80674
30
3.76
0
VERTEX
10
7.87736
20
8.81421
30
3.76
0
VERTEX
10
7.8643
20
8.82727
30
3.76
0
VERTEX
10
7.85496
20
8.83847
30
3.76
0
VERTEX
10
7.84003
20
8.84033
30
3.76
0
VERTEX
10
7.81017
20
8.83847
30
3.76
0
VERTEX
10
7.79524
20
8.8366
30
3.76
0
VERTEX
10
7.78218
20
8.82727
30
3.76
0
VERTEX
10
7.77472
20
8.82167
30
3.76
0
VERTEX
10
7.77098
20
8.81421
30
3.76
0
VERTEX
10
7.76352
20
8.80861
30
3.76
0
VERTEX
10
7.75792
20
8.79368
30
3.76
0
VERTEX
10
7.75419
20
8.78995
30
3.76
0
VERTEX
10
7.75045
20
8.78995
30
3.76
0
VERTEX
10
7.74672
20
8.78621
30
3.76
0
VERTEX
10
7.74486
20
8.75635
30
3.76
0
VERTEX
10
7.74299
20
8.74142
30
3.76
0
VERTEX
10
7.74299
20
8.73396
30
3.76
0
VERTEX
10
7.74299
20
8.73023
30
3.76
0
SEQEND
0
POLYLINE
62
227
66
1
70
1
3
endoplasmic_reticulum
0
VERTEX
10
9.81586
20
8.28932
30
3.76
0
VERTEX
10
9.83261
20
8.26646
30
3.76
0
VERTEX
10
9.84328
20
8.25885
30
3.76
0
VERTEX
10
9.84937
20
8.25732
30
3.76
0
VERTEX
10
9.85242
20
8.25732
30
3.76
0
VERTEX
10
9.85547
20
8.26037
30
3.76
0
VERTEX
10
9.85394
20
8.28475
30
3.76
0
VERTEX
10
9.85394
20
8.29693
30
3.76
0
VERTEX
10
9.85394
20
8.29998
30
3.76
0
VERTEX
10
9.85699
20
8.30151
30
3.76
0
VERTEX
10
9.86461
20
8.32588
30
3.76
0
VERTEX
10
9.86765
20
8.33807
30
3.76
0
VERTEX
10
9.86765
20
8.35026
30
3.76
0
VERTEX
10
9.87375
20
8.37311
30
3.76
0
VERTEX
10
9.87375
20
8.3853
30
3.76
0
VERTEX
10
9.87222
20
8.39139
30
3.76
0
VERTEX
10
9.87222
20
8.39444
30
3.76
0
VERTEX
10
9.86156
20
8.4051
30
3.76
0
VERTEX
10
9.85851
20
8.4112
30
3.76
0
VERTEX
10
9.85547
20
8.41272
30
3.76
0
VERTEX
10
9.84633
20
8.40358
30
3.76
0
VERTEX
10
9.8448
20
8.39749
30
3.76
0
VERTEX
10
9.83871
20
8.39291
30
3.76
0
VERTEX
10
9.83871
20
8.38987
30
3.76
0
VERTEX
10
9.83566
20
8.38682
30
3.76
0
VERTEX
10
9.83109
20
8.37463
30
3.76
0
VERTEX
10
9.82804
20
8.36854
30
3.76
0
VERTEX
10
9.82804
20
8.35635
30
3.76
0
VERTEX
10
9.81738
20
8.3076
30
3.76
0
VERTEX
10
9.81586
20
8.29541
30
3.76
0
VERTEX
10
9.81586
20
8.29084
30
3.76
0
SEQEND
0
POLYLINE
62
227
66
1
70
1
3
endoplasmic_reticulum
0
VERTEX
10
10.1708
20
8.16896
30
3.76
0
VERTEX
10
10.1739
20
8.16287
30
3.76
0
VERTEX
10
10.1724
20
8.15982
30
3.76
0
VERTEX
10
10.1754
20
8.15677
30
3.76
0
VERTEX
10
10.1998
20
8.15525
30
3.76
0
VERTEX
10
10.2013
20
8.15373
30
3.76
0
VERTEX
10
10.2074
20
8.15982
30
3.76
0
VERTEX
10
10.2074
20
8.16591
30
3.76
0
VERTEX
10
10.215
20
8.17506
30
3.76
0
VERTEX
10
10.2394
20
8.17658
30
3.76
0
VERTEX
10
10.2638
20
8.17506
30
3.76
0
VERTEX
10
10.2699
20
8.1781
30
3.76
0
VERTEX
10
10.2699
20
8.19029
30
3.76
0
VERTEX
10
10.2622
20
8.20248
30
3.76
0
VERTEX
10
10.2561
20
8.20705
30
3.76
0
VERTEX
10
10.2318
20
8.20553
30
3.76
0
VERTEX
10
10.2196
20
8.19943
30
3.76
0
VERTEX
10
10.2135
20
8.19486
30
3.76
0
VERTEX
10
10.212
20
8.19181
30
3.76
0
VERTEX
10
10.1998
20
8.18724
30
3.76
0
VERTEX
10
10.1998
20
8.1842
30
3.76
0
VERTEX
10
10.1876
20
8.1842
30
3.76
0
VERTEX
10
10.1769
20
8.17658
30
3.76
0
VERTEX
10
10.1724
20
8.17353
30
3.76
0
VERTEX
10
10.1708
20
8.17048
30
3.76
0
SEQEND
0
POLYLINE
62
227
66
1
70
1
3
endoplasmic_reticulum
0
VERTEX
10
10.1861
20
8.26951
30
3.76
0
VERTEX
10
10.1876
20
8.26342
30
3.76
0
VERTEX
10
10.1967
20
8.25123
30
3.76
0
VERTEX
10
10.1998
20
8.24514
30
3.76
0
VERTEX
10
10.2242
20
8.24361
30
3.76
0
VERTEX
10
10.2302
20
8.24361
30
3.76
0
VERTEX
10
10.2333
20
8.24666
30
3.76
0
VERTEX
10
10.2333
20
8.24971
30
3.76
0
VERTEX
10
10.2363
20
8.25123
30
3.76
0
VERTEX
10
10.2409
20
8.26342
30
3.76
0
VERTEX
10
10.2409
20
8.26951
30
3.76
0
VERTEX
10
10.2379
20
8.27104
30
3.76
0
VERTEX
10
10.2379
20
8.27408
30
3.76
0
VERTEX
10
10.2348
20
8.27713
30
3.76
0
VERTEX
10
10.2348
20
8.28322
30
3.76
0
VERTEX
10
10.2333
20
8.28627
30
3.76
0
VERTEX
10
10.2272
20
8.28627
30
3.76
0
VERTEX
10
10.2257
20
8.29236
30
3.76
0
VERTEX
10
10.2242
20
8.29541
30
3.76
0
VERTEX
10
10.212
20
8.29693
30
3.76
0
VERTEX
10
10.2059
20
8.30303
30
3.76
0
VERTEX
10
10.2028
20
8.30608
30
3.76
0
VERTEX
10
10.1967
20
8.30455
30
3.76
0
VERTEX
10
10.1876
20
8.29541
30
3.76
0
VERTEX
10
10.1861
20
8.27104
30
3.76
0
SEQEND
0
ENDSEC
0
EOF
