0
SECTION
2
ENTITIES
0
POLYLINE
62
31
66
1
70
1
3
contour
0
VERTEX
10
6.78936
20
10.904
30
10.48
0
VERTEX
10
6.80055
20
10.8891
30
10.48
0
VERTEX
10
6.81174
20
10.8592
30
10.48
0
VERTEX
10
6.8192
20
10.8555
30
10.48
0
VERTEX
10
6.83039
20
10.8257
30
10.48
0
VERTEX
10
6.84905
20
10.7996
30
10.48
0
VERTEX
10
6.86397
20
10.7958
30
10.48
0
VERTEX
10
6.87143
20
10.7846
30
10.48
0
VERTEX
10
6.88635
20
10.7734
30
10.48
0
VERTEX
10
6.89008
20
10.766
30
10.48
0
VERTEX
10
6.905
20
10.766
30
10.48
0
VERTEX
10
6.96096
20
10.7324
30
10.48
0
VERTEX
10
7.02065
20
10.7138
30
10.48
0
VERTEX
10
7.05049
20
10.7063
30
10.48
0
VERTEX
10
7.06541
20
10.6988
30
10.48
0
VERTEX
10
7.08033
20
10.6988
30
10.48
0
VERTEX
10
7.08779
20
10.6914
30
10.48
0
VERTEX
10
7.11764
20
10.6876
30
10.48
0
VERTEX
10
7.14748
20
10.6765
30
10.48
0
VERTEX
10
7.26685
20
10.6802
30
10.48
0
VERTEX
10
7.2967
20
10.6802
30
10.48
0
VERTEX
10
7.35638
20
10.6951
30
10.48
0
VERTEX
10
7.36384
20
10.7026
30
10.48
0
VERTEX
10
7.39369
20
10.71
30
10.48
0
VERTEX
10
7.45337
20
10.7361
30
10.48
0
VERTEX
10
7.48322
20
10.7436
30
10.48
0
VERTEX
10
7.49814
20
10.7511
30
10.48
0
VERTEX
10
7.5056
20
10.7511
30
10.48
0
VERTEX
10
7.52052
20
10.7623
30
10.48
0
VERTEX
10
7.55036
20
10.7734
30
10.48
0
VERTEX
10
7.57648
20
10.7958
30
10.48
0
VERTEX
10
7.5914
20
10.807
30
10.48
0
VERTEX
10
7.59513
20
10.8219
30
10.48
0
VERTEX
10
7.59513
20
10.8294
30
10.48
0
VERTEX
10
7.60259
20
10.8369
30
10.48
0
VERTEX
10
7.61005
20
10.8667
30
10.48
0
VERTEX
10
7.62497
20
10.8965
30
10.48
0
VERTEX
10
7.62497
20
10.904
30
10.48
0
VERTEX
10
7.65482
20
10.9152
30
10.48
0
VERTEX
10
7.77419
20
10.9152
30
10.48
0
VERTEX
10
7.83388
20
10.9152
30
10.48
0
VERTEX
10
7.86372
20
10.9152
30
10.48
0
VERTEX
10
7.97936
20
10.9525
30
10.48
0
VERTEX
10
8.00921
20
10.96
30
10.48
0
VERTEX
10
8.06516
20
11.001
30
10.48
0
VERTEX
10
8.06889
20
11.0085
30
10.48
0
VERTEX
10
8.07635
20
11.0085
30
10.48
0
VERTEX
10
8.1062
20
11.0346
30
10.48
0
VERTEX
10
8.1062
20
11.0644
30
10.48
0
VERTEX
10
8.1062
20
11.0793
30
10.48
0
VERTEX
10
8.1062
20
11.0868
30
10.48
0
VERTEX
10
7.98682
20
11.0905
30
10.48
0
VERTEX
10
7.9719
20
11.0905
30
10.48
0
VERTEX
10
7.96071
20
11.0793
30
10.48
0
VERTEX
10
7.93087
20
11.0681
30
10.48
0
VERTEX
10
7.87118
20
11.0644
30
10.48
0
VERTEX
10
7.84134
20
11.0644
30
10.48
0
VERTEX
10
7.78165
20
11.0532
30
10.48
0
VERTEX
10
7.75554
20
11.042
30
10.48
0
VERTEX
10
7.72942
20
11.0159
30
10.48
0
VERTEX
10
7.66974
20
11.0047
30
10.48
0
VERTEX
10
7.63989
20
11.0047
30
10.48
0
VERTEX
10
7.58021
20
11.0159
30
10.48
0
VERTEX
10
7.46083
20
11.0047
30
10.48
0
VERTEX
10
7.43099
20
11.0047
30
10.48
0
VERTEX
10
7.41607
20
11.001
30
10.48
0
VERTEX
10
7.40861
20
10.9973
30
10.48
0
VERTEX
10
7.40861
20
10.9898
30
10.48
0
VERTEX
10
7.37877
20
10.9823
30
10.48
0
VERTEX
10
7.3713
20
10.9823
30
10.48
0
VERTEX
10
7.35265
20
10.9562
30
10.48
0
VERTEX
10
7.32281
20
10.9488
30
10.48
0
VERTEX
10
7.20344
20
10.9488
30
10.48
0
VERTEX
10
7.14375
20
10.9488
30
10.48
0
VERTEX
10
7.11391
20
10.9525
30
10.48
0
VERTEX
10
7.08406
20
10.9637
30
10.48
0
VERTEX
10
7.06914
20
10.9637
30
10.48
0
VERTEX
10
7.06168
20
10.9712
30
10.48
0
VERTEX
10
7.00199
20
10.9786
30
10.48
0
VERTEX
10
6.88262
20
10.9749
30
10.48
0
VERTEX
10
6.85278
20
10.9674
30
10.48
0
VERTEX
10
6.83786
20
10.9674
30
10.48
0
VERTEX
10
6.82293
20
10.9562
30
10.48
0
VERTEX
10
6.80801
20
10.9525
30
10.48
0
VERTEX
10
6.80055
20
10.9525
30
10.48
0
VERTEX
10
6.78936
20
10.9376
30
10.48
0
VERTEX
10
6.78936
20
10.9077
30
10.48
0
SEQEND
0
POLYLINE
62
227
66
1
70
1
3
endoplasmic_reticulum
0
VERTEX
10
7.07196
20
10.8581
30
10.48
0
VERTEX
10
7.07375
20
10.8563
30
10.48
0
VERTEX
10
7.07375
20
10.8545
30
10.48
0
VERTEX
10
7.07913
20
10.8482
30
10.48
0
VERTEX
10
7.08271
20
10.8455
30
10.48
0
VERTEX
10
7.0863
20
10.8446
30
10.48
0
VERTEX
10
7.08899
20
10.8419
30
10.48
0
VERTEX
10
7.11768
20
10.841
30
10.48
0
VERTEX
10
7.11947
20
10.8419
30
10.48
0
VERTEX
10
7.12127
20
10.8482
30
10.48
0
VERTEX
10
7.12485
20
10.8464
30
10.48
0
VERTEX
10
7.13202
20
10.8464
30
10.48
0
VERTEX
10
7.13471
20
10.8428
30
10.48
0
VERTEX
10
7.1383
20
10.841
30
10.48
0
VERTEX
10
7.14009
20
10.8392
30
10.48
0
VERTEX
10
7.14727
20
10.8374
30
10.48
0
VERTEX
10
7.16161
20
10.8374
30
10.48
0
VERTEX
10
7.16878
20
10.8366
30
10.48
0
VERTEX
10
7.19747
20
10.8392
30
10.48
0
VERTEX
10
7.20464
20
10.841
30
10.48
0
VERTEX
10
7.23333
20
10.8428
30
10.48
0
VERTEX
10
7.26202
20
10.8473
30
10.48
0
VERTEX
10
7.26471
20
10.8491
30
10.48
0
VERTEX
10
7.26651
20
10.8527
30
10.48
0
VERTEX
10
7.27278
20
10.8581
30
10.48
0
VERTEX
10
7.27637
20
10.8617
30
10.48
0
VERTEX
10
7.27816
20
10.8688
30
10.48
0
VERTEX
10
7.27816
20
10.876
30
10.48
0
VERTEX
10
7.27637
20
10.8796
30
10.48
0
VERTEX
10
7.27278
20
10.8832
30
10.48
0
VERTEX
10
7.27099
20
10.8832
30
10.48
0
VERTEX
10
7.2692
20
10.885
30
10.48
0
VERTEX
10
7.21182
20
10.885
30
10.48
0
VERTEX
10
7.20464
20
10.8832
30
10.48
0
VERTEX
10
7.20106
20
10.8814
30
10.48
0
VERTEX
10
7.18671
20
10.8787
30
10.48
0
VERTEX
10
7.17237
20
10.8742
30
10.48
0
VERTEX
10
7.1652
20
10.8733
30
10.48
0
VERTEX
10
7.16161
20
10.8715
30
10.48
0
VERTEX
10
7.14727
20
10.8724
30
10.48
0
VERTEX
10
7.14009
20
10.8751
30
10.48
0
VERTEX
10
7.1383
20
10.8751
30
10.48
0
VERTEX
10
7.13471
20
10.8787
30
10.48
0
VERTEX
10
7.13382
20
10.8859
30
10.48
0
VERTEX
10
7.13113
20
10.8886
30
10.48
0
VERTEX
10
7.12754
20
10.8894
30
10.48
0
VERTEX
10
7.12127
20
10.8939
30
10.48
0
VERTEX
10
7.10692
20
10.8948
30
10.48
0
VERTEX
10
7.10333
20
10.8948
30
10.48
0
VERTEX
10
7.10154
20
10.893
30
10.48
0
VERTEX
10
7.09796
20
10.893
30
10.48
0
VERTEX
10
7.09078
20
10.8903
30
10.48
0
VERTEX
10
7.08451
20
10.885
30
10.48
0
VERTEX
10
7.08271
20
10.8832
30
10.48
0
VERTEX
10
7.08271
20
10.8814
30
10.48
0
VERTEX
10
7.07913
20
10.8778
30
10.48
0
VERTEX
10
7.07733
20
10.8778
30
10.48
0
VERTEX
10
7.07196
20
10.8715
30
10.48
0
VERTEX
10
7.07196
20
10.8643
30
10.48
0
VERTEX
10
7.07196
20
10.8608
30
10.48
0
VERTEX
10
7.07196
20
10.859
30
10.48
0
SEQEND
0
POLYLINE
62
227
66
1
70
1
3
endoplasmic_reticulum
0
VERTEX
10
7.35885
20
10.8321
30
10.48
0
VERTEX
10
7.36602
20
10.8258
30
10.48
0
VERTEX
10
7.36782
20
10.824
30
10.48
0
VERTEX
10
7.36782
20
10.8168
30
10.48
0
VERTEX
10
7.36961
20
10.8132
30
10.48
0
VERTEX
10
7.37588
20
10.8079
30
10.48
0
VERTEX
10
7.38306
20
10.8079
30
10.48
0
VERTEX
10
7.39023
20
10.8097
30
10.48
0
VERTEX
10
7.3974
20
10.8132
30
10.48
0
VERTEX
10
7.3992
20
10.815
30
10.48
0
VERTEX
10
7.40009
20
10.8186
30
10.48
0
VERTEX
10
7.40278
20
10.8222
30
10.48
0
VERTEX
10
7.40547
20
10.8294
30
10.48
0
VERTEX
10
7.40547
20
10.8312
30
10.48
0
VERTEX
10
7.41085
20
10.8366
30
10.48
0
VERTEX
10
7.41802
20
10.8392
30
10.48
0
VERTEX
10
7.42161
20
10.8392
30
10.48
0
VERTEX
10
7.42519
20
10.841
30
10.48
0
VERTEX
10
7.43237
20
10.841
30
10.48
0
VERTEX
10
7.43595
20
10.841
30
10.48
0
VERTEX
10
7.44223
20
10.8446
30
10.48
0
VERTEX
10
7.4494
20
10.8464
30
10.48
0
VERTEX
10
7.46375
20
10.8455
30
10.48
0
VERTEX
10
7.47092
20
10.8428
30
10.48
0
VERTEX
10
7.48526
20
10.8428
30
10.48
0
VERTEX
10
7.48706
20
10.8446
30
10.48
0
VERTEX
10
7.49423
20
10.8464
30
10.48
0
VERTEX
10
7.49782
20
10.8491
30
10.48
0
VERTEX
10
7.5014
20
10.85
30
10.48
0
VERTEX
10
7.50409
20
10.8527
30
10.48
0
VERTEX
10
7.50499
20
10.8814
30
10.48
0
VERTEX
10
7.50499
20
10.8886
30
10.48
0
VERTEX
10
7.49871
20
10.9029
30
10.48
0
VERTEX
10
7.49692
20
10.9092
30
10.48
0
VERTEX
10
7.49064
20
10.9154
30
10.48
0
VERTEX
10
7.4763
20
10.9146
30
10.48
0
VERTEX
10
7.46913
20
10.9128
30
10.48
0
VERTEX
10
7.46554
20
10.9119
30
10.48
0
VERTEX
10
7.46106
20
10.9074
30
10.48
0
VERTEX
10
7.45926
20
10.9074
30
10.48
0
VERTEX
10
7.45747
20
10.9056
30
10.48
0
VERTEX
10
7.45388
20
10.9047
30
10.48
0
VERTEX
10
7.44761
20
10.8984
30
10.48
0
VERTEX
10
7.44402
20
10.8966
30
10.48
0
VERTEX
10
7.44313
20
10.8948
30
10.48
0
VERTEX
10
7.44133
20
10.8948
30
10.48
0
VERTEX
10
7.43147
20
10.8814
30
10.48
0
VERTEX
10
7.41982
20
10.8697
30
10.48
0
VERTEX
10
7.41444
20
10.8634
30
10.48
0
VERTEX
10
7.40726
20
10.8581
30
10.48
0
VERTEX
10
7.40368
20
10.8563
30
10.48
0
VERTEX
10
7.40188
20
10.8545
30
10.48
0
VERTEX
10
7.3983
20
10.8536
30
10.48
0
VERTEX
10
7.39561
20
10.85
30
10.48
0
VERTEX
10
7.38844
20
10.8473
30
10.48
0
VERTEX
10
7.37409
20
10.8446
30
10.48
0
VERTEX
10
7.36692
20
10.8392
30
10.48
0
VERTEX
10
7.36333
20
10.8374
30
10.48
0
VERTEX
10
7.36244
20
10.8357
30
10.48
0
VERTEX
10
7.36064
20
10.8357
30
10.48
0
VERTEX
10
7.35885
20
10.8339
30
10.48
0
VERTEX
10
7.35885
20
10.833
30
10.48
0
SEQEND
0
POLYLINE
62
31
66
1
70
1
3
contour
0
VERTEX
10
6.18561
20
10.4315
30
10.48
0
VERTEX
10
6.18882
20
10.4058
30
10.48
0
VERTEX
10
6.19043
20
10.3929
30
10.48
0
VERTEX
10
6.19525
20
10.3801
30
10.48
0
VERTEX
10
6.19847
20
10.3768
30
10.48
0
VERTEX
10
6.20168
20
10.3768
30
10.48
0
VERTEX
10
6.20489
20
10.3704
30
10.48
0
VERTEX
10
6.20811
20
10.3672
30
10.48
0
VERTEX
10
6.20972
20
10.3608
30
10.48
0
VERTEX
10
6.22257
20
10.3511
30
10.48
0
VERTEX
10
6.22579
20
10.3479
30
10.48
0
VERTEX
10
6.229
20
10.3479
30
10.48
0
VERTEX
10
6.23221
20
10.3415
30
10.48
0
VERTEX
10
6.24507
20
10.3399
30
10.48
0
VERTEX
10
6.2515
20
10.3399
30
10.48
0
VERTEX
10
6.25793
20
10.3431
30
10.48
0
VERTEX
10
6.26114
20
10.3463
30
10.48
0
VERTEX
10
6.26757
20
10.3479
30
10.48
0
VERTEX
10
6.27239
20
10.356
30
10.48
0
VERTEX
10
6.27239
20
10.3592
30
10.48
0
VERTEX
10
6.27721
20
10.3656
30
10.48
0
VERTEX
10
6.28203
20
10.3785
30
10.48
0
VERTEX
10
6.28203
20
10.3849
30
10.48
0
VERTEX
10
6.28525
20
10.3913
30
10.48
0
VERTEX
10
6.28525
20
10.3977
30
10.48
0
VERTEX
10
6.29328
20
10.4074
30
10.48
0
VERTEX
10
6.29328
20
10.4138
30
10.48
0
VERTEX
10
6.2981
20
10.4202
30
10.48
0
VERTEX
10
6.29971
20
10.4459
30
10.48
0
VERTEX
10
6.2981
20
10.4588
30
10.48
0
VERTEX
10
6.29007
20
10.4717
30
10.48
0
VERTEX
10
6.28364
20
10.4765
30
10.48
0
VERTEX
10
6.28043
20
10.4765
30
10.48
0
VERTEX
10
6.26757
20
10.4845
30
10.48
0
VERTEX
10
6.26436
20
10.4845
30
10.48
0
VERTEX
10
6.26114
20
10.4877
30
10.48
0
VERTEX
10
6.24829
20
10.4909
30
10.48
0
VERTEX
10
6.24507
20
10.4909
30
10.48
0
VERTEX
10
6.23864
20
10.4958
30
10.48
0
VERTEX
10
6.22579
20
10.499
30
10.48
0
VERTEX
10
6.21936
20
10.5022
30
10.48
0
VERTEX
10
6.21614
20
10.5038
30
10.48
0
VERTEX
10
6.20489
20
10.4958
30
10.48
0
VERTEX
10
6.19364
20
10.4845
30
10.48
0
VERTEX
10
6.19364
20
10.4813
30
10.48
0
VERTEX
10
6.18882
20
10.4749
30
10.48
0
VERTEX
10
6.18882
20
10.462
30
10.48
0
VERTEX
10
6.18561
20
10.4492
30
10.48
0
VERTEX
10
6.18561
20
10.4363
30
10.48
0
VERTEX
10
6.18561
20
10.4331
30
10.48
0
SEQEND
0
ENDSEC
0
EOF
