0
SECTION
2
ENTITIES
0
POLYLINE
62
224
66
1
70
1
3
mitochondrion
0
VERTEX
10
7.25109
20
10.7313
30
9.72
0
VERTEX
10
7.25387
20
10.7091
30
9.72
0
VERTEX
10
7.25804
20
10.698
30
9.72
0
VERTEX
10
7.25943
20
10.6924
30
9.72
0
VERTEX
10
7.26778
20
10.6827
30
9.72
0
VERTEX
10
7.2789
20
10.6729
30
9.72
0
VERTEX
10
7.28168
20
10.6715
30
9.72
0
VERTEX
10
7.28307
20
10.666
30
9.72
0
VERTEX
10
7.2928
20
10.659
30
9.72
0
VERTEX
10
7.30254
20
10.6493
30
9.72
0
VERTEX
10
7.30671
20
10.6479
30
9.72
0
VERTEX
10
7.31644
20
10.6368
30
9.72
0
VERTEX
10
7.31922
20
10.634
30
9.72
0
VERTEX
10
7.322
20
10.634
30
9.72
0
VERTEX
10
7.33313
20
10.6271
30
9.72
0
VERTEX
10
7.33591
20
10.6271
30
9.72
0
VERTEX
10
7.35676
20
10.6132
30
9.72
0
VERTEX
10
7.36233
20
10.609
30
9.72
0
VERTEX
10
7.36789
20
10.6076
30
9.72
0
VERTEX
10
7.37067
20
10.6048
30
9.72
0
VERTEX
10
7.38179
20
10.6006
30
9.72
0
VERTEX
10
7.40404
20
10.602
30
9.72
0
VERTEX
10
7.41516
20
10.602
30
9.72
0
VERTEX
10
7.45966
20
10.6118
30
9.72
0
VERTEX
10
7.47078
20
10.6159
30
9.72
0
VERTEX
10
7.47634
20
10.6173
30
9.72
0
VERTEX
10
7.47912
20
10.6173
30
9.72
0
VERTEX
10
7.4819
20
10.6201
30
9.72
0
VERTEX
10
7.48468
20
10.6201
30
9.72
0
VERTEX
10
7.50415
20
10.6382
30
9.72
0
VERTEX
10
7.51388
20
10.6451
30
9.72
0
VERTEX
10
7.51944
20
10.6507
30
9.72
0
VERTEX
10
7.53057
20
10.6549
30
9.72
0
VERTEX
10
7.53891
20
10.6757
30
9.72
0
VERTEX
10
7.5403
20
10.698
30
9.72
0
VERTEX
10
7.54169
20
10.7091
30
9.72
0
VERTEX
10
7.53891
20
10.7536
30
9.72
0
VERTEX
10
7.53474
20
10.7758
30
9.72
0
VERTEX
10
7.53196
20
10.7814
30
9.72
0
VERTEX
10
7.53196
20
10.7842
30
9.72
0
VERTEX
10
7.52918
20
10.787
30
9.72
0
VERTEX
10
7.52918
20
10.7897
30
9.72
0
VERTEX
10
7.52084
20
10.7981
30
9.72
0
VERTEX
10
7.52084
20
10.8009
30
9.72
0
VERTEX
10
7.51805
20
10.8036
30
9.72
0
VERTEX
10
7.51805
20
10.8064
30
9.72
0
VERTEX
10
7.50971
20
10.8175
30
9.72
0
VERTEX
10
7.50415
20
10.8273
30
9.72
0
VERTEX
10
7.49581
20
10.837
30
9.72
0
VERTEX
10
7.48886
20
10.844
30
9.72
0
VERTEX
10
7.48329
20
10.8454
30
9.72
0
VERTEX
10
7.48051
20
10.8454
30
9.72
0
VERTEX
10
7.47773
20
10.8481
30
9.72
0
VERTEX
10
7.47495
20
10.8481
30
9.72
0
VERTEX
10
7.47078
20
10.8537
30
9.72
0
VERTEX
10
7.44853
20
10.862
30
9.72
0
VERTEX
10
7.44297
20
10.8662
30
9.72
0
VERTEX
10
7.43185
20
10.869
30
9.72
0
VERTEX
10
7.42629
20
10.8718
30
9.72
0
VERTEX
10
7.41516
20
10.8718
30
9.72
0
VERTEX
10
7.39292
20
10.8648
30
9.72
0
VERTEX
10
7.37067
20
10.8648
30
9.72
0
VERTEX
10
7.35955
20
10.8634
30
9.72
0
VERTEX
10
7.34842
20
10.8593
30
9.72
0
VERTEX
10
7.34286
20
10.8551
30
9.72
0
VERTEX
10
7.3373
20
10.8537
30
9.72
0
VERTEX
10
7.33174
20
10.8495
30
9.72
0
VERTEX
10
7.32896
20
10.8467
30
9.72
0
VERTEX
10
7.31783
20
10.844
30
9.72
0
VERTEX
10
7.30671
20
10.837
30
9.72
0
VERTEX
10
7.29559
20
10.8356
30
9.72
0
VERTEX
10
7.29002
20
10.8301
30
9.72
0
VERTEX
10
7.28585
20
10.8203
30
9.72
0
VERTEX
10
7.27056
20
10.7995
30
9.72
0
VERTEX
10
7.25804
20
10.7772
30
9.72
0
VERTEX
10
7.25804
20
10.7744
30
9.72
0
VERTEX
10
7.25387
20
10.7703
30
9.72
0
VERTEX
10
7.25387
20
10.7647
30
9.72
0
VERTEX
10
7.25109
20
10.7591
30
9.72
0
VERTEX
10
7.25109
20
10.7369
30
9.72
0
VERTEX
10
7.25109
20
10.7327
30
9.72
0
SEQEND
0
POLYLINE
62
227
66
1
70
1
3
endoplasmic_reticulum
0
VERTEX
10
7.50947
20
10.5156
30
9.72
0
VERTEX
10
7.51216
20
10.512
30
9.72
0
VERTEX
10
7.5265
20
10.5093
30
9.72
0
VERTEX
10
7.53368
20
10.5093
30
9.72
0
VERTEX
10
7.53726
20
10.5093
30
9.72
0
VERTEX
10
7.54264
20
10.5156
30
9.72
0
VERTEX
10
7.54444
20
10.5156
30
9.72
0
VERTEX
10
7.54802
20
10.5183
30
9.72
0
VERTEX
10
7.54892
20
10.5219
30
9.72
0
VERTEX
10
7.56057
20
10.5362
30
9.72
0
VERTEX
10
7.56326
20
10.5434
30
9.72
0
VERTEX
10
7.56506
20
10.547
30
9.72
0
VERTEX
10
7.56506
20
10.5506
30
9.72
0
VERTEX
10
7.56864
20
10.5568
30
9.72
0
VERTEX
10
7.57044
20
10.564
30
9.72
0
VERTEX
10
7.57044
20
10.5676
30
9.72
0
VERTEX
10
7.57312
20
10.5748
30
9.72
0
VERTEX
10
7.57402
20
10.5891
30
9.72
0
VERTEX
10
7.57581
20
10.5927
30
9.72
0
VERTEX
10
7.57581
20
10.607
30
9.72
0
VERTEX
10
7.57581
20
10.6106
30
9.72
0
VERTEX
10
7.57312
20
10.6142
30
9.72
0
VERTEX
10
7.56954
20
10.6151
30
9.72
0
VERTEX
10
7.56775
20
10.616
30
9.72
0
VERTEX
10
7.56057
20
10.6133
30
9.72
0
VERTEX
10
7.5543
20
10.6088
30
9.72
0
VERTEX
10
7.55161
20
10.5945
30
9.72
0
VERTEX
10
7.54892
20
10.5873
30
9.72
0
VERTEX
10
7.53995
20
10.5748
30
9.72
0
VERTEX
10
7.53547
20
10.5676
30
9.72
0
VERTEX
10
7.53547
20
10.5658
30
9.72
0
VERTEX
10
7.53188
20
10.5631
30
9.72
0
VERTEX
10
7.52471
20
10.5497
30
9.72
0
VERTEX
10
7.51575
20
10.5353
30
9.72
0
VERTEX
10
7.51306
20
10.5281
30
9.72
0
VERTEX
10
7.50947
20
10.5255
30
9.72
0
VERTEX
10
7.50947
20
10.5183
30
9.72
0
VERTEX
10
7.50947
20
10.5165
30
9.72
0
SEQEND
0
POLYLINE
62
227
66
1
70
1
3
endoplasmic_reticulum
0
VERTEX
10
7.09975
20
10.6581
30
9.72
0
VERTEX
10
7.10423
20
10.651
30
9.72
0
VERTEX
10
7.10602
20
10.6474
30
9.72
0
VERTEX
10
7.10961
20
10.6456
30
9.72
0
VERTEX
10
7.11678
20
10.6393
30
9.72
0
VERTEX
10
7.12396
20
10.6348
30
9.72
0
VERTEX
10
7.12754
20
10.6312
30
9.72
0
VERTEX
10
7.13471
20
10.6295
30
9.72
0
VERTEX
10
7.13561
20
10.6277
30
9.72
0
VERTEX
10
7.14996
20
10.6268
30
9.72
0
VERTEX
10
7.15713
20
10.6268
30
9.72
0
VERTEX
10
7.1634
20
10.6312
30
9.72
0
VERTEX
10
7.17058
20
10.6339
30
9.72
0
VERTEX
10
7.17596
20
10.6393
30
9.72
0
VERTEX
10
7.17327
20
10.6537
30
9.72
0
VERTEX
10
7.17058
20
10.6572
30
9.72
0
VERTEX
10
7.1643
20
10.6608
30
9.72
0
VERTEX
10
7.16071
20
10.6635
30
9.72
0
VERTEX
10
7.15802
20
10.6707
30
9.72
0
VERTEX
10
7.15713
20
10.6743
30
9.72
0
VERTEX
10
7.15444
20
10.6779
30
9.72
0
VERTEX
10
7.15264
20
10.6779
30
9.72
0
VERTEX
10
7.14996
20
10.6815
30
9.72
0
VERTEX
10
7.14816
20
10.6877
30
9.72
0
VERTEX
10
7.14099
20
10.694
30
9.72
0
VERTEX
10
7.12665
20
10.6949
30
9.72
0
VERTEX
10
7.12485
20
10.6976
30
9.72
0
VERTEX
10
7.12127
20
10.6976
30
9.72
0
VERTEX
10
7.11947
20
10.6976
30
9.72
0
VERTEX
10
7.11768
20
10.6958
30
9.72
0
VERTEX
10
7.11589
20
10.6958
30
9.72
0
VERTEX
10
7.10602
20
10.6823
30
9.72
0
VERTEX
10
7.10154
20
10.6761
30
9.72
0
VERTEX
10
7.09975
20
10.6617
30
9.72
0
VERTEX
10
7.09975
20
10.659
30
9.72
0
SEQEND
0
POLYLINE
62
227
66
1
70
1
3
endoplasmic_reticulum
0
VERTEX
10
7.07465
20
10.7317
30
9.72
0
VERTEX
10
7.08002
20
10.7254
30
9.72
0
VERTEX
10
7.08092
20
10.7236
30
9.72
0
VERTEX
10
7.09527
20
10.7254
30
9.72
0
VERTEX
10
7.10961
20
10.7254
30
9.72
0
VERTEX
10
7.11678
20
10.7272
30
9.72
0
VERTEX
10
7.11858
20
10.729
30
9.72
0
VERTEX
10
7.12575
20
10.7299
30
9.72
0
VERTEX
10
7.1392
20
10.737
30
9.72
0
VERTEX
10
7.14278
20
10.7379
30
9.72
0
VERTEX
10
7.14458
20
10.7379
30
9.72
0
VERTEX
10
7.14816
20
10.7406
30
9.72
0
VERTEX
10
7.15175
20
10.7406
30
9.72
0
VERTEX
10
7.15802
20
10.7442
30
9.72
0
VERTEX
10
7.16071
20
10.7478
30
9.72
0
VERTEX
10
7.17327
20
10.7577
30
9.72
0
VERTEX
10
7.17506
20
10.7594
30
9.72
0
VERTEX
10
7.17685
20
10.7594
30
9.72
0
VERTEX
10
7.18044
20
10.7621
30
9.72
0
VERTEX
10
7.18761
20
10.763
30
9.72
0
VERTEX
10
7.19299
20
10.7684
30
9.72
0
VERTEX
10
7.19568
20
10.7711
30
9.72
0
VERTEX
10
7.19927
20
10.772
30
9.72
0
VERTEX
10
7.21361
20
10.7819
30
9.72
0
VERTEX
10
7.2163
20
10.7854
30
9.72
0
VERTEX
10
7.21899
20
10.7872
30
9.72
0
VERTEX
10
7.21899
20
10.789
30
9.72
0
VERTEX
10
7.22437
20
10.7944
30
9.72
0
VERTEX
10
7.22616
20
10.798
30
9.72
0
VERTEX
10
7.22795
20
10.8123
30
9.72
0
VERTEX
10
7.22795
20
10.8159
30
9.72
0
VERTEX
10
7.22616
20
10.8195
30
9.72
0
VERTEX
10
7.22616
20
10.8213
30
9.72
0
VERTEX
10
7.22437
20
10.8222
30
9.72
0
VERTEX
10
7.21002
20
10.8177
30
9.72
0
VERTEX
10
7.20285
20
10.8177
30
9.72
0
VERTEX
10
7.19568
20
10.815
30
9.72
0
VERTEX
10
7.19209
20
10.8132
30
9.72
0
VERTEX
10
7.19209
20
10.815
30
9.72
0
VERTEX
10
7.18492
20
10.8159
30
9.72
0
VERTEX
10
7.17058
20
10.8114
30
9.72
0
VERTEX
10
7.16878
20
10.8114
30
9.72
0
VERTEX
10
7.16699
20
10.8097
30
9.72
0
VERTEX
10
7.15982
20
10.8079
30
9.72
0
VERTEX
10
7.15623
20
10.8043
30
9.72
0
VERTEX
10
7.15623
20
10.8025
30
9.72
0
VERTEX
10
7.14996
20
10.798
30
9.72
0
VERTEX
10
7.14727
20
10.7971
30
9.72
0
VERTEX
10
7.14368
20
10.7944
30
9.72
0
VERTEX
10
7.14009
20
10.7935
30
9.72
0
VERTEX
10
7.13382
20
10.7881
30
9.72
0
VERTEX
10
7.12665
20
10.7854
30
9.72
0
VERTEX
10
7.1132
20
10.7774
30
9.72
0
VERTEX
10
7.10961
20
10.7774
30
9.72
0
VERTEX
10
7.10244
20
10.7738
30
9.72
0
VERTEX
10
7.09527
20
10.7684
30
9.72
0
VERTEX
10
7.09347
20
10.7648
30
9.72
0
VERTEX
10
7.09168
20
10.763
30
9.72
0
VERTEX
10
7.09078
20
10.7594
30
9.72
0
VERTEX
10
7.08361
20
10.7532
30
9.72
0
VERTEX
10
7.08002
20
10.7505
30
9.72
0
VERTEX
10
7.07913
20
10.7487
30
9.72
0
VERTEX
10
7.07733
20
10.7487
30
9.72
0
VERTEX
10
7.07465
20
10.746
30
9.72
0
VERTEX
10
7.07465
20
10.7326
30
9.72
0
SEQEND
0
POLYLINE
62
31
66
1
70
1
3
contour
0
VERTEX
10
6.91522
20
10.7609
30
9.72
0
VERTEX
10
6.91843
20
10.7481
30
9.72
0
VERTEX
10
6.91843
20
10.7224
30
9.72
0
VERTEX
10
6.91843
20
10.7095
30
9.72
0
VERTEX
10
6.92325
20
10.6838
30
9.72
0
VERTEX
10
6.92808
20
10.6709
30
9.72
0
VERTEX
10
6.93611
20
10.6613
30
9.72
0
VERTEX
10
6.94254
20
10.6565
30
9.72
0
VERTEX
10
6.95057
20
10.6452
30
9.72
0
VERTEX
10
6.95218
20
10.6388
30
9.72
0
VERTEX
10
6.97147
20
10.6131
30
9.72
0
VERTEX
10
6.99236
20
10.5922
30
9.72
0
VERTEX
10
7.00361
20
10.5842
30
9.72
0
VERTEX
10
7.01004
20
10.5809
30
9.72
0
VERTEX
10
7.01325
20
10.5809
30
9.72
0
VERTEX
10
7.01968
20
10.5745
30
9.72
0
VERTEX
10
7.02611
20
10.5713
30
9.72
0
VERTEX
10
7.02932
20
10.5697
30
9.72
0
VERTEX
10
7.03093
20
10.5633
30
9.72
0
VERTEX
10
7.04218
20
10.552
30
9.72
0
VERTEX
10
7.047
20
10.5456
30
9.72
0
VERTEX
10
7.05343
20
10.544
30
9.72
0
VERTEX
10
7.07593
20
10.5263
30
9.72
0
VERTEX
10
7.08718
20
10.5183
30
9.72
0
VERTEX
10
7.0936
20
10.5167
30
9.72
0
VERTEX
10
7.09682
20
10.5167
30
9.72
0
VERTEX
10
7.10003
20
10.5134
30
9.72
0
VERTEX
10
7.15146
20
10.499
30
9.72
0
VERTEX
10
7.20288
20
10.4974
30
9.72
0
VERTEX
10
7.2286
20
10.499
30
9.72
0
VERTEX
10
7.24145
20
10.5054
30
9.72
0
VERTEX
10
7.25431
20
10.507
30
9.72
0
VERTEX
10
7.25913
20
10.5118
30
9.72
0
VERTEX
10
7.27199
20
10.5134
30
9.72
0
VERTEX
10
7.28484
20
10.5183
30
9.72
0
VERTEX
10
7.31056
20
10.5199
30
9.72
0
VERTEX
10
7.33627
20
10.5167
30
9.72
0
VERTEX
10
7.34752
20
10.507
30
9.72
0
VERTEX
10
7.37323
20
10.5022
30
9.72
0
VERTEX
10
7.39895
20
10.5006
30
9.72
0
VERTEX
10
7.4118
20
10.5006
30
9.72
0
VERTEX
10
7.42466
20
10.4974
30
9.72
0
VERTEX
10
7.43109
20
10.4974
30
9.72
0
VERTEX
10
7.43752
20
10.4942
30
9.72
0
VERTEX
10
7.48894
20
10.4926
30
9.72
0
VERTEX
10
7.5018
20
10.4926
30
9.72
0
VERTEX
10
7.55323
20
10.5022
30
9.72
0
VERTEX
10
7.55965
20
10.5022
30
9.72
0
VERTEX
10
7.57251
20
10.5102
30
9.72
0
VERTEX
10
7.58376
20
10.5151
30
9.72
0
VERTEX
10
7.59662
20
10.5263
30
9.72
0
VERTEX
10
7.60304
20
10.5263
30
9.72
0
VERTEX
10
7.6159
20
10.5343
30
9.72
0
VERTEX
10
7.62233
20
10.5359
30
9.72
0
VERTEX
10
7.63197
20
10.5456
30
9.72
0
VERTEX
10
7.64161
20
10.5584
30
9.72
0
VERTEX
10
7.65286
20
10.5826
30
9.72
0
VERTEX
10
7.65768
20
10.5954
30
9.72
0
VERTEX
10
7.65929
20
10.6211
30
9.72
0
VERTEX
10
7.66251
20
10.634
30
9.72
0
VERTEX
10
7.66572
20
10.7368
30
9.72
0
VERTEX
10
7.66893
20
10.7625
30
9.72
0
VERTEX
10
7.67054
20
10.7738
30
9.72
0
VERTEX
10
7.67536
20
10.7786
30
9.72
0
VERTEX
10
7.67697
20
10.8043
30
9.72
0
VERTEX
10
7.68018
20
10.8108
30
9.72
0
VERTEX
10
7.68018
20
10.8365
30
9.72
0
VERTEX
10
7.67054
20
10.8622
30
9.72
0
VERTEX
10
7.66411
20
10.875
30
9.72
0
VERTEX
10
7.65447
20
10.8879
30
9.72
0
VERTEX
10
7.64322
20
10.8959
30
9.72
0
VERTEX
10
7.6384
20
10.9008
30
9.72
0
VERTEX
10
7.63197
20
10.9024
30
9.72
0
VERTEX
10
7.62394
20
10.912
30
9.72
0
VERTEX
10
7.62072
20
10.9184
30
9.72
0
VERTEX
10
7.60787
20
10.9281
30
9.72
0
VERTEX
10
7.50501
20
10.9329
30
9.72
0
VERTEX
10
7.49216
20
10.9361
30
9.72
0
VERTEX
10
7.46644
20
10.9361
30
9.72
0
VERTEX
10
7.44073
20
10.9409
30
9.72
0
VERTEX
10
7.42787
20
10.9409
30
9.72
0
VERTEX
10
7.37645
20
10.9506
30
9.72
0
VERTEX
10
7.35073
20
10.9522
30
9.72
0
VERTEX
10
7.29931
20
10.9441
30
9.72
0
VERTEX
10
7.29609
20
10.9409
30
9.72
0
VERTEX
10
7.28967
20
10.9393
30
9.72
0
VERTEX
10
7.28484
20
10.9345
30
9.72
0
VERTEX
10
7.27199
20
10.9329
30
9.72
0
VERTEX
10
7.24628
20
10.9249
30
9.72
0
VERTEX
10
7.23985
20
10.9249
30
9.72
0
VERTEX
10
7.23663
20
10.9249
30
9.72
0
VERTEX
10
7.23503
20
10.9216
30
9.72
0
VERTEX
10
7.23181
20
10.9216
30
9.72
0
VERTEX
10
7.2286
20
10.9184
30
9.72
0
VERTEX
10
7.20288
20
10.9152
30
9.72
0
VERTEX
10
7.17717
20
10.9168
30
9.72
0
VERTEX
10
7.16431
20
10.9168
30
9.72
0
VERTEX
10
7.15146
20
10.92
30
9.72
0
VERTEX
10
7.12574
20
10.92
30
9.72
0
VERTEX
10
7.11289
20
10.9216
30
9.72
0
VERTEX
10
7.10646
20
10.9232
30
9.72
0
VERTEX
10
7.0936
20
10.9216
30
9.72
0
VERTEX
10
7.08075
20
10.9265
30
9.72
0
VERTEX
10
7.06789
20
10.9281
30
9.72
0
VERTEX
10
7.05503
20
10.9361
30
9.72
0
VERTEX
10
7.04218
20
10.9409
30
9.72
0
VERTEX
10
7.03575
20
10.9377
30
9.72
0
VERTEX
10
7.03253
20
10.9377
30
9.72
0
VERTEX
10
7.02129
20
10.9281
30
9.72
0
VERTEX
10
7.01325
20
10.9152
30
9.72
0
VERTEX
10
7.00039
20
10.904
30
9.72
0
VERTEX
10
6.99557
20
10.8975
30
9.72
0
VERTEX
10
6.99557
20
10.8943
30
9.72
0
VERTEX
10
6.99236
20
10.8943
30
9.72
0
VERTEX
10
6.9795
20
10.8831
30
9.72
0
VERTEX
10
6.97307
20
10.8815
30
9.72
0
VERTEX
10
6.957
20
10.859
30
9.72
0
VERTEX
10
6.957
20
10.8558
30
9.72
0
VERTEX
10
6.94254
20
10.83
30
9.72
0
VERTEX
10
6.9329
20
10.8188
30
9.72
0
VERTEX
10
6.92165
20
10.7931
30
9.72
0
VERTEX
10
6.91683
20
10.7802
30
9.72
0
VERTEX
10
6.91522
20
10.7674
30
9.72
0
VERTEX
10
6.91522
20
10.7625
30
9.72
0
SEQEND
0
ENDSEC
0
EOF
