0
SECTION
2
ENTITIES
0
POLYLINE
62
31
66
1
70
1
3
contour
0
VERTEX
10
7.3805
20
10.9621
30
8.12
0
VERTEX
10
7.38379
20
10.9489
30
8.12
0
VERTEX
10
7.39037
20
10.9457
30
8.12
0
VERTEX
10
7.39037
20
10.9193
30
8.12
0
VERTEX
10
7.41342
20
10.8996
30
8.12
0
VERTEX
10
7.42658
20
10.8897
30
8.12
0
VERTEX
10
7.43975
20
10.8864
30
8.12
0
VERTEX
10
7.44963
20
10.8765
30
8.12
0
VERTEX
10
7.47596
20
10.8732
30
8.12
0
VERTEX
10
7.49901
20
10.8831
30
8.12
0
VERTEX
10
7.51547
20
10.8963
30
8.12
0
VERTEX
10
7.51547
20
10.9029
30
8.12
0
VERTEX
10
7.5418
20
10.9127
30
8.12
0
VERTEX
10
7.54839
20
10.9127
30
8.12
0
VERTEX
10
7.55497
20
10.9654
30
8.12
0
VERTEX
10
7.55168
20
10.9917
30
8.12
0
VERTEX
10
7.52863
20
11.0082
30
8.12
0
VERTEX
10
7.51547
20
11.0115
30
8.12
0
VERTEX
10
7.51217
20
11.0181
30
8.12
0
VERTEX
10
7.4595
20
11.0214
30
8.12
0
VERTEX
10
7.43317
20
11.0214
30
8.12
0
VERTEX
10
7.40683
20
11.0148
30
8.12
0
VERTEX
10
7.38379
20
10.9917
30
8.12
0
VERTEX
10
7.3805
20
10.9654
30
8.12
0
SEQEND
0
POLYLINE
62
224
66
1
70
1
3
mitochondrion
0
VERTEX
10
7.87818
20
10.1098
30
8.12
0
VERTEX
10
7.88096
20
10.0987
30
8.12
0
VERTEX
10
7.89069
20
10.1084
30
8.12
0
VERTEX
10
7.89486
20
10.0973
30
8.12
0
VERTEX
10
7.89486
20
10.0917
30
8.12
0
VERTEX
10
7.89903
20
10.0862
30
8.12
0
VERTEX
10
7.90181
20
10.0639
30
8.12
0
VERTEX
10
7.90877
20
10.0417
30
8.12
0
VERTEX
10
7.9185
20
10.0208
30
8.12
0
VERTEX
10
7.92128
20
10.0153
30
8.12
0
VERTEX
10
7.94353
20
9.99997
30
8.12
0
VERTEX
10
7.95465
20
9.99441
30
8.12
0
VERTEX
10
7.95882
20
9.99024
30
8.12
0
VERTEX
10
7.96299
20
9.98885
30
8.12
0
VERTEX
10
7.97412
20
9.98051
30
8.12
0
VERTEX
10
7.98524
20
9.97773
30
8.12
0
VERTEX
10
8.02973
20
9.98051
30
8.12
0
VERTEX
10
8.03529
20
9.9819
30
8.12
0
VERTEX
10
8.03668
20
9.98468
30
8.12
0
VERTEX
10
8.05893
20
9.99302
30
8.12
0
VERTEX
10
8.06449
20
9.99719
30
8.12
0
VERTEX
10
8.06727
20
9.99719
30
8.12
0
VERTEX
10
8.0784
20
10.0041
30
8.12
0
VERTEX
10
8.08674
20
10.0139
30
8.12
0
VERTEX
10
8.0923
20
10.018
30
8.12
0
VERTEX
10
8.09647
20
10.0292
30
8.12
0
VERTEX
10
8.09786
20
10.0403
30
8.12
0
VERTEX
10
8.09786
20
10.0459
30
8.12
0
VERTEX
10
8.09786
20
10.0486
30
8.12
0
VERTEX
10
8.10064
20
10.0514
30
8.12
0
VERTEX
10
8.10343
20
10.0737
30
8.12
0
VERTEX
10
8.10204
20
10.0959
30
8.12
0
VERTEX
10
8.09925
20
10.107
30
8.12
0
VERTEX
10
8.09786
20
10.1293
30
8.12
0
VERTEX
10
8.09508
20
10.1404
30
8.12
0
VERTEX
10
8.08952
20
10.1515
30
8.12
0
VERTEX
10
8.08813
20
10.1571
30
8.12
0
VERTEX
10
8.07423
20
10.1766
30
8.12
0
VERTEX
10
8.06727
20
10.1835
30
8.12
0
VERTEX
10
8.06727
20
10.1863
30
8.12
0
VERTEX
10
8.06171
20
10.1905
30
8.12
0
VERTEX
10
8.05893
20
10.196
30
8.12
0
VERTEX
10
8.03808
20
10.2127
30
8.12
0
VERTEX
10
8.02695
20
10.2197
30
8.12
0
VERTEX
10
8.01583
20
10.2238
30
8.12
0
VERTEX
10
8.01027
20
10.2252
30
8.12
0
VERTEX
10
8.0047
20
10.2294
30
8.12
0
VERTEX
10
7.99358
20
10.2322
30
8.12
0
VERTEX
10
7.98246
20
10.2322
30
8.12
0
VERTEX
10
7.9769
20
10.2322
30
8.12
0
VERTEX
10
7.97412
20
10.2322
30
8.12
0
VERTEX
10
7.97133
20
10.2294
30
8.12
0
VERTEX
10
7.96021
20
10.228
30
8.12
0
VERTEX
10
7.93796
20
10.2211
30
8.12
0
VERTEX
10
7.92684
20
10.2169
30
8.12
0
VERTEX
10
7.92128
20
10.2169
30
8.12
0
VERTEX
10
7.91294
20
10.2099
30
8.12
0
VERTEX
10
7.91155
20
10.2071
30
8.12
0
VERTEX
10
7.90598
20
10.2058
30
8.12
0
VERTEX
10
7.90042
20
10.2016
30
8.12
0
VERTEX
10
7.89347
20
10.1905
30
8.12
0
VERTEX
10
7.89208
20
10.1793
30
8.12
0
VERTEX
10
7.88791
20
10.1682
30
8.12
0
VERTEX
10
7.88374
20
10.1474
30
8.12
0
VERTEX
10
7.88096
20
10.1362
30
8.12
0
VERTEX
10
7.87818
20
10.1335
30
8.12
0
VERTEX
10
7.87818
20
10.1112
30
8.12
0
SEQEND
0
POLYLINE
62
227
66
1
70
1
3
endoplasmic_reticulum
0
VERTEX
10
7.74795
20
9.8889
30
8.12
0
VERTEX
10
7.75333
20
9.88263
30
8.12
0
VERTEX
10
7.76768
20
9.88173
30
8.12
0
VERTEX
10
7.77126
20
9.88173
30
8.12
0
VERTEX
10
7.77305
20
9.88173
30
8.12
0
VERTEX
10
7.78023
20
9.88711
30
8.12
0
VERTEX
10
7.78381
20
9.8889
30
8.12
0
VERTEX
10
7.78471
20
9.90325
30
8.12
0
VERTEX
10
7.78561
20
9.91042
30
8.12
0
VERTEX
10
7.79278
20
9.9149
30
8.12
0
VERTEX
10
7.80712
20
9.9158
30
8.12
0
VERTEX
10
7.8143
20
9.91849
30
8.12
0
VERTEX
10
7.81968
20
9.92297
30
8.12
0
VERTEX
10
7.82057
20
9.92656
30
8.12
0
VERTEX
10
7.82236
20
9.92746
30
8.12
0
VERTEX
10
7.82326
20
9.93463
30
8.12
0
VERTEX
10
7.82326
20
9.93821
30
8.12
0
VERTEX
10
7.82416
20
9.94001
30
8.12
0
VERTEX
10
7.81788
20
9.94539
30
8.12
0
VERTEX
10
7.80354
20
9.94718
30
8.12
0
VERTEX
10
7.79636
20
9.94718
30
8.12
0
VERTEX
10
7.79278
20
9.94718
30
8.12
0
VERTEX
10
7.7874
20
9.9418
30
8.12
0
VERTEX
10
7.7883
20
9.93821
30
8.12
0
VERTEX
10
7.7865
20
9.93552
30
8.12
0
VERTEX
10
7.77933
20
9.92925
30
8.12
0
VERTEX
10
7.77754
20
9.92746
30
8.12
0
VERTEX
10
7.77037
20
9.92746
30
8.12
0
VERTEX
10
7.76409
20
9.92208
30
8.12
0
VERTEX
10
7.7605
20
9.92118
30
8.12
0
VERTEX
10
7.75871
20
9.91939
30
8.12
0
VERTEX
10
7.75781
20
9.9158
30
8.12
0
VERTEX
10
7.75512
20
9.91221
30
8.12
0
VERTEX
10
7.75333
20
9.91042
30
8.12
0
VERTEX
10
7.75243
20
9.90683
30
8.12
0
VERTEX
10
7.74795
20
9.89966
30
8.12
0
VERTEX
10
7.74795
20
9.89249
30
8.12
0
VERTEX
10
7.74795
20
9.8898
30
8.12
0
SEQEND
0
POLYLINE
62
227
66
1
70
1
3
endoplasmic_reticulum
0
VERTEX
10
7.73809
20
10.2036
30
8.12
0
VERTEX
10
7.74078
20
10.2009
30
8.12
0
VERTEX
10
7.74078
20
10.1991
30
8.12
0
VERTEX
10
7.74347
20
10.1955
30
8.12
0
VERTEX
10
7.75333
20
10.1857
30
8.12
0
VERTEX
10
7.75692
20
10.1839
30
8.12
0
VERTEX
10
7.77126
20
10.1839
30
8.12
0
VERTEX
10
7.78561
20
10.1883
30
8.12
0
VERTEX
10
7.7874
20
10.1919
30
8.12
0
VERTEX
10
7.78919
20
10.1937
30
8.12
0
VERTEX
10
7.7874
20
10.2081
30
8.12
0
VERTEX
10
7.7865
20
10.2368
30
8.12
0
VERTEX
10
7.7865
20
10.2439
30
8.12
0
VERTEX
10
7.77664
20
10.2574
30
8.12
0
VERTEX
10
7.77395
20
10.2601
30
8.12
0
VERTEX
10
7.75961
20
10.2547
30
8.12
0
VERTEX
10
7.74526
20
10.2475
30
8.12
0
VERTEX
10
7.74257
20
10.2457
30
8.12
0
VERTEX
10
7.73988
20
10.2386
30
8.12
0
VERTEX
10
7.73988
20
10.2314
30
8.12
0
VERTEX
10
7.73809
20
10.2242
30
8.12
0
VERTEX
10
7.73809
20
10.2099
30
8.12
0
VERTEX
10
7.73809
20
10.2063
30
8.12
0
VERTEX
10
7.73809
20
10.2045
30
8.12
0
SEQEND
0
POLYLINE
62
227
66
1
70
1
3
endoplasmic_reticulum
0
VERTEX
10
7.86719
20
9.92566
30
8.12
0
VERTEX
10
7.87078
20
9.91132
30
8.12
0
VERTEX
10
7.87347
20
9.90863
30
8.12
0
VERTEX
10
7.88781
20
9.90773
30
8.12
0
VERTEX
10
7.90216
20
9.91042
30
8.12
0
VERTEX
10
7.90933
20
9.91221
30
8.12
0
VERTEX
10
7.91023
20
9.91401
30
8.12
0
VERTEX
10
7.93892
20
9.9158
30
8.12
0
VERTEX
10
7.95326
20
9.91849
30
8.12
0
VERTEX
10
7.95505
20
9.91939
30
8.12
0
VERTEX
10
7.95774
20
9.92387
30
8.12
0
VERTEX
10
7.95685
20
9.93104
30
8.12
0
VERTEX
10
7.95505
20
9.93463
30
8.12
0
VERTEX
10
7.95147
20
9.93732
30
8.12
0
VERTEX
10
7.94967
20
9.9409
30
8.12
0
VERTEX
10
7.9425
20
9.94628
30
8.12
0
VERTEX
10
7.93533
20
9.94718
30
8.12
0
VERTEX
10
7.92905
20
9.94449
30
8.12
0
VERTEX
10
7.91471
20
9.9427
30
8.12
0
VERTEX
10
7.90036
20
9.93911
30
8.12
0
VERTEX
10
7.89319
20
9.93552
30
8.12
0
VERTEX
10
7.8905
20
9.93194
30
8.12
0
VERTEX
10
7.88871
20
9.93194
30
8.12
0
VERTEX
10
7.88692
20
9.93014
30
8.12
0
VERTEX
10
7.88512
20
9.93014
30
8.12
0
VERTEX
10
7.88154
20
9.92746
30
8.12
0
VERTEX
10
7.87436
20
9.92835
30
8.12
0
VERTEX
10
7.87078
20
9.92925
30
8.12
0
VERTEX
10
7.86719
20
9.92835
30
8.12
0
VERTEX
10
7.86719
20
9.92656
30
8.12
0
SEQEND
0
POLYLINE
62
227
66
1
70
1
3
endoplasmic_reticulum
0
VERTEX
10
8.08326
20
10.252
30
8.12
0
VERTEX
10
8.08505
20
10.2448
30
8.12
0
VERTEX
10
8.08595
20
10.2412
30
8.12
0
VERTEX
10
8.08595
20
10.2395
30
8.12
0
VERTEX
10
8.09312
20
10.2332
30
8.12
0
VERTEX
10
8.09312
20
10.2314
30
8.12
0
VERTEX
10
8.09671
20
10.2296
30
8.12
0
VERTEX
10
8.10298
20
10.2224
30
8.12
0
VERTEX
10
8.10478
20
10.2197
30
8.12
0
VERTEX
10
8.10836
20
10.217
30
8.12
0
VERTEX
10
8.10836
20
10.2152
30
8.12
0
VERTEX
10
8.11554
20
10.2099
30
8.12
0
VERTEX
10
8.11823
20
10.2063
30
8.12
0
VERTEX
10
8.12002
20
10.2063
30
8.12
0
VERTEX
10
8.1245
20
10.2
30
8.12
0
VERTEX
10
8.13167
20
10.1973
30
8.12
0
VERTEX
10
8.13885
20
10.1973
30
8.12
0
VERTEX
10
8.14243
20
10.1982
30
8.12
0
VERTEX
10
8.14512
20
10.2018
30
8.12
0
VERTEX
10
8.14512
20
10.2036
30
8.12
0
VERTEX
10
8.1505
20
10.2099
30
8.12
0
VERTEX
10
8.1514
20
10.2242
30
8.12
0
VERTEX
10
8.14871
20
10.2314
30
8.12
0
VERTEX
10
8.14333
20
10.2386
30
8.12
0
VERTEX
10
8.14064
20
10.2421
30
8.12
0
VERTEX
10
8.13885
20
10.243
30
8.12
0
VERTEX
10
8.13795
20
10.2466
30
8.12
0
VERTEX
10
8.13616
20
10.2484
30
8.12
0
VERTEX
10
8.13347
20
10.2556
30
8.12
0
VERTEX
10
8.12271
20
10.2681
30
8.12
0
VERTEX
10
8.11554
20
10.2708
30
8.12
0
VERTEX
10
8.11195
20
10.2726
30
8.12
0
VERTEX
10
8.0976
20
10.2726
30
8.12
0
VERTEX
10
8.09043
20
10.2681
30
8.12
0
VERTEX
10
8.08864
20
10.2681
30
8.12
0
VERTEX
10
8.08685
20
10.2663
30
8.12
0
VERTEX
10
8.08505
20
10.2601
30
8.12
0
VERTEX
10
8.08326
20
10.2583
30
8.12
0
VERTEX
10
8.08326
20
10.2547
30
8.12
0
VERTEX
10
8.08326
20
10.2529
30
8.12
0
SEQEND
0
POLYLINE
62
227
66
1
70
1
3
endoplasmic_reticulum
0
VERTEX
10
8.12271
20
10.1597
30
8.12
0
VERTEX
10
8.12719
20
10.1453
30
8.12
0
VERTEX
10
8.13078
20
10.1426
30
8.12
0
VERTEX
10
8.13526
20
10.1364
30
8.12
0
VERTEX
10
8.13705
20
10.1346
30
8.12
0
VERTEX
10
8.14064
20
10.1337
30
8.12
0
VERTEX
10
8.14422
20
10.131
30
8.12
0
VERTEX
10
8.1514
20
10.1292
30
8.12
0
VERTEX
10
8.15498
20
10.1292
30
8.12
0
VERTEX
10
8.15857
20
10.1274
30
8.12
0
VERTEX
10
8.17291
20
10.1283
30
8.12
0
VERTEX
10
8.18009
20
10.131
30
8.12
0
VERTEX
10
8.18457
20
10.1355
30
8.12
0
VERTEX
10
8.18636
20
10.1355
30
8.12
0
VERTEX
10
8.18816
20
10.139
30
8.12
0
VERTEX
10
8.18457
20
10.1534
30
8.12
0
VERTEX
10
8.18457
20
10.157
30
8.12
0
VERTEX
10
8.18098
20
10.1641
30
8.12
0
VERTEX
10
8.1756
20
10.1704
30
8.12
0
VERTEX
10
8.17291
20
10.174
30
8.12
0
VERTEX
10
8.17112
20
10.174
30
8.12
0
VERTEX
10
8.16843
20
10.1776
30
8.12
0
VERTEX
10
8.16574
20
10.1848
30
8.12
0
VERTEX
10
8.1514
20
10.1848
30
8.12
0
VERTEX
10
8.14781
20
10.1848
30
8.12
0
VERTEX
10
8.14154
20
10.1803
30
8.12
0
VERTEX
10
8.13705
20
10.174
30
8.12
0
VERTEX
10
8.13078
20
10.1677
30
8.12
0
VERTEX
10
8.12719
20
10.165
30
8.12
0
VERTEX
10
8.1254
20
10.1615
30
8.12
0
VERTEX
10
8.1236
20
10.1606
30
8.12
0
SEQEND
0
POLYLINE
62
31
66
1
70
1
3
contour
0
VERTEX
10
7.59898
20
10.8622
30
8.12
0
VERTEX
10
7.60449
20
10.8476
30
8.12
0
VERTEX
10
7.60633
20
10.8329
30
8.12
0
VERTEX
10
7.60817
20
10.8255
30
8.12
0
VERTEX
10
7.60817
20
10.8218
30
8.12
0
VERTEX
10
7.62286
20
10.82
30
8.12
0
VERTEX
10
7.62653
20
10.82
30
8.12
0
VERTEX
10
7.63204
20
10.8072
30
8.12
0
VERTEX
10
7.63387
20
10.7998
30
8.12
0
VERTEX
10
7.63387
20
10.7961
30
8.12
0
VERTEX
10
7.63755
20
10.7943
30
8.12
0
VERTEX
10
7.64306
20
10.7796
30
8.12
0
VERTEX
10
7.65224
20
10.7686
30
8.12
0
VERTEX
10
7.65958
20
10.7631
30
8.12
0
VERTEX
10
7.66326
20
10.7557
30
8.12
0
VERTEX
10
7.68897
20
10.73
30
8.12
0
VERTEX
10
7.70182
20
10.7006
30
8.12
0
VERTEX
10
7.70182
20
10.697
30
8.12
0
VERTEX
10
7.711
20
10.6823
30
8.12
0
VERTEX
10
7.71284
20
10.6768
30
8.12
0
VERTEX
10
7.72202
20
10.6621
30
8.12
0
VERTEX
10
7.72386
20
10.6547
30
8.12
0
VERTEX
10
7.72753
20
10.6511
30
8.12
0
VERTEX
10
7.72937
20
10.6217
30
8.12
0
VERTEX
10
7.72753
20
10.5629
30
8.12
0
VERTEX
10
7.72569
20
10.5482
30
8.12
0
VERTEX
10
7.72569
20
10.5409
30
8.12
0
VERTEX
10
7.72202
20
10.5372
30
8.12
0
VERTEX
10
7.72019
20
10.5299
30
8.12
0
VERTEX
10
7.71468
20
10.5225
30
8.12
0
VERTEX
10
7.71468
20
10.5152
30
8.12
0
VERTEX
10
7.711
20
10.5078
30
8.12
0
VERTEX
10
7.711
20
10.5042
30
8.12
0
VERTEX
10
7.70733
20
10.5005
30
8.12
0
VERTEX
10
7.70366
20
10.4858
30
8.12
0
VERTEX
10
7.68713
20
10.4564
30
8.12
0
VERTEX
10
7.68713
20
10.4417
30
8.12
0
VERTEX
10
7.68897
20
10.438
30
8.12
0
VERTEX
10
7.68346
20
10.4234
30
8.12
0
VERTEX
10
7.68162
20
10.394
30
8.12
0
VERTEX
10
7.68346
20
10.3646
30
8.12
0
VERTEX
10
7.67611
20
10.3058
30
8.12
0
VERTEX
10
7.67428
20
10.2471
30
8.12
0
VERTEX
10
7.67244
20
10.2324
30
8.12
0
VERTEX
10
7.67611
20
10.2177
30
8.12
0
VERTEX
10
7.68162
20
10.2103
30
8.12
0
VERTEX
10
7.67978
20
10.203
30
8.12
0
VERTEX
10
7.68529
20
10.1975
30
8.12
0
VERTEX
10
7.68713
20
10.1828
30
8.12
0
VERTEX
10
7.6908
20
10.1754
30
8.12
0
VERTEX
10
7.69631
20
10.1167
30
8.12
0
VERTEX
10
7.70182
20
10.102
30
8.12
0
VERTEX
10
7.70733
20
10.0965
30
8.12
0
VERTEX
10
7.70917
20
10.0891
30
8.12
0
VERTEX
10
7.71284
20
10.0873
30
8.12
0
VERTEX
10
7.71284
20
10.0285
30
8.12
0
VERTEX
10
7.711
20
10.0138
30
8.12
0
VERTEX
10
7.70549
20
10.0083
30
8.12
0
VERTEX
10
7.70366
20
9.99364
30
8.12
0
VERTEX
10
7.70366
20
9.98996
30
8.12
0
VERTEX
10
7.69998
20
9.98629
30
8.12
0
VERTEX
10
7.69815
20
9.95691
30
8.12
0
VERTEX
10
7.69631
20
9.94956
30
8.12
0
VERTEX
10
7.69998
20
9.92018
30
8.12
0
VERTEX
10
7.69998
20
9.91284
30
8.12
0
VERTEX
10
7.70549
20
9.90733
30
8.12
0
VERTEX
10
7.71284
20
9.87794
30
8.12
0
VERTEX
10
7.71284
20
9.81918
30
8.12
0
VERTEX
10
7.71284
20
9.7898
30
8.12
0
VERTEX
10
7.71284
20
9.77511
30
8.12
0
VERTEX
10
7.71651
20
9.76041
30
8.12
0
VERTEX
10
7.72019
20
9.75307
30
8.12
0
VERTEX
10
7.72019
20
9.73838
30
8.12
0
VERTEX
10
7.72753
20
9.73287
30
8.12
0
VERTEX
10
7.72937
20
9.7292
30
8.12
0
VERTEX
10
7.75875
20
9.72001
30
8.12
0
VERTEX
10
7.77344
20
9.71818
30
8.12
0
VERTEX
10
7.78813
20
9.72001
30
8.12
0
VERTEX
10
7.79364
20
9.72736
30
8.12
0
VERTEX
10
7.80099
20
9.72736
30
8.12
0
VERTEX
10
7.82302
20
9.74756
30
8.12
0
VERTEX
10
7.82302
20
9.75491
30
8.12
0
VERTEX
10
7.83221
20
9.7696
30
8.12
0
VERTEX
10
7.83221
20
9.77694
30
8.12
0
VERTEX
10
7.83221
20
9.78062
30
8.12
0
VERTEX
10
7.84139
20
9.79163
30
8.12
0
VERTEX
10
7.8469
20
9.79714
30
8.12
0
VERTEX
10
7.87628
20
9.79898
30
8.12
0
VERTEX
10
7.89097
20
9.80082
30
8.12
0
VERTEX
10
7.89832
20
9.80082
30
8.12
0
VERTEX
10
7.90199
20
9.80082
30
8.12
0
VERTEX
10
7.90382
20
9.79714
30
8.12
0
VERTEX
10
7.96075
20
9.80632
30
8.12
0
VERTEX
10
7.99013
20
9.80632
30
8.12
0
VERTEX
10
8.00299
20
9.81183
30
8.12
0
VERTEX
10
8.0085
20
9.81734
30
8.12
0
VERTEX
10
8.02319
20
9.82285
30
8.12
0
VERTEX
10
8.03421
20
9.83203
30
8.12
0
VERTEX
10
8.06359
20
9.83387
30
8.12
0
VERTEX
10
8.07828
20
9.83571
30
8.12
0
VERTEX
10
8.08379
20
9.84122
30
8.12
0
VERTEX
10
8.09114
20
9.84305
30
8.12
0
VERTEX
10
8.11317
20
9.86876
30
8.12
0
VERTEX
10
8.12235
20
9.87978
30
8.12
0
VERTEX
10
8.13521
20
9.88896
30
8.12
0
VERTEX
10
8.14623
20
9.90182
30
8.12
0
VERTEX
10
8.14623
20
9.91651
30
8.12
0
VERTEX
10
8.1499
20
9.9312
30
8.12
0
VERTEX
10
8.15174
20
9.93487
30
8.12
0
VERTEX
10
8.15541
20
9.93487
30
8.12
0
VERTEX
10
8.16092
20
9.94222
30
8.12
0
VERTEX
10
8.16276
20
9.94773
30
8.12
0
VERTEX
10
8.16643
20
9.94956
30
8.12
0
VERTEX
10
8.16826
20
9.95691
30
8.12
0
VERTEX
10
8.17377
20
9.96058
30
8.12
0
VERTEX
10
8.18112
20
9.96058
30
8.12
0
VERTEX
10
8.19581
20
9.96793
30
8.12
0
VERTEX
10
8.20316
20
9.97344
30
8.12
0
VERTEX
10
8.21785
20
9.97344
30
8.12
0
VERTEX
10
8.22519
20
9.97344
30
8.12
0
VERTEX
10
8.22887
20
9.97344
30
8.12
0
VERTEX
10
8.23621
20
9.97895
30
8.12
0
VERTEX
10
8.26559
20
9.98262
30
8.12
0
VERTEX
10
8.27294
20
9.98445
30
8.12
0
VERTEX
10
8.28028
20
9.98996
30
8.12
0
VERTEX
10
8.30599
20
10.0028
30
8.12
0
VERTEX
10
8.32252
20
10.0304
30
8.12
0
VERTEX
10
8.31885
20
10.0891
30
8.12
0
VERTEX
10
8.31701
20
10.1185
30
8.12
0
VERTEX
10
8.31518
20
10.1259
30
8.12
0
VERTEX
10
8.31518
20
10.1295
30
8.12
0
VERTEX
10
8.29498
20
10.1571
30
8.12
0
VERTEX
10
8.29314
20
10.1718
30
8.12
0
VERTEX
10
8.28763
20
10.1865
30
8.12
0
VERTEX
10
8.27845
20
10.2011
30
8.12
0
VERTEX
10
8.26559
20
10.2122
30
8.12
0
VERTEX
10
8.25825
20
10.2269
30
8.12
0
VERTEX
10
8.25825
20
10.2305
30
8.12
0
VERTEX
10
8.25457
20
10.2342
30
8.12
0
VERTEX
10
8.24907
20
10.2471
30
8.12
0
VERTEX
10
8.24539
20
10.2544
30
8.12
0
VERTEX
10
8.24172
20
10.2581
30
8.12
0
VERTEX
10
8.24172
20
10.2617
30
8.12
0
VERTEX
10
8.23805
20
10.2654
30
8.12
0
VERTEX
10
8.23805
20
10.2728
30
8.12
0
VERTEX
10
8.23254
20
10.2801
30
8.12
0
VERTEX
10
8.23254
20
10.2838
30
8.12
0
VERTEX
10
8.21785
20
10.293
30
8.12
0
VERTEX
10
8.21785
20
10.2966
30
8.12
0
VERTEX
10
8.19397
20
10.326
30
8.12
0
VERTEX
10
8.19214
20
10.3334
30
8.12
0
VERTEX
10
8.16643
20
10.3517
30
8.12
0
VERTEX
10
8.16092
20
10.3591
30
8.12
0
VERTEX
10
8.14623
20
10.3646
30
8.12
0
VERTEX
10
8.13888
20
10.3646
30
8.12
0
VERTEX
10
8.12419
20
10.3701
30
8.12
0
VERTEX
10
8.11868
20
10.3756
30
8.12
0
VERTEX
10
8.11685
20
10.383
30
8.12
0
VERTEX
10
8.10583
20
10.394
30
8.12
0
VERTEX
10
8.10583
20
10.3976
30
8.12
0
VERTEX
10
8.10215
20
10.4013
30
8.12
0
VERTEX
10
8.10215
20
10.405
30
8.12
0
VERTEX
10
8.08012
20
10.4307
30
8.12
0
VERTEX
10
8.02135
20
10.438
30
8.12
0
VERTEX
10
7.99197
20
10.438
30
8.12
0
VERTEX
10
7.97728
20
10.4436
30
8.12
0
VERTEX
10
7.96443
20
10.4527
30
8.12
0
VERTEX
10
7.95708
20
10.4674
30
8.12
0
VERTEX
10
7.95341
20
10.4693
30
8.12
0
VERTEX
10
7.94606
20
10.4986
30
8.12
0
VERTEX
10
7.94239
20
10.5133
30
8.12
0
VERTEX
10
7.93872
20
10.5207
30
8.12
0
VERTEX
10
7.93688
20
10.5501
30
8.12
0
VERTEX
10
7.93321
20
10.5519
30
8.12
0
VERTEX
10
7.93137
20
10.5666
30
8.12
0
VERTEX
10
7.92586
20
10.5721
30
8.12
0
VERTEX
10
7.92586
20
10.5794
30
8.12
0
VERTEX
10
7.92219
20
10.5868
30
8.12
0
VERTEX
10
7.9075
20
10.5978
30
8.12
0
VERTEX
10
7.90199
20
10.6125
30
8.12
0
VERTEX
10
7.84322
20
10.6143
30
8.12
0
VERTEX
10
7.83588
20
10.6143
30
8.12
0
VERTEX
10
7.83221
20
10.6198
30
8.12
0
VERTEX
10
7.81751
20
10.6309
30
8.12
0
VERTEX
10
7.81384
20
10.6345
30
8.12
0
VERTEX
10
7.81384
20
10.6382
30
8.12
0
VERTEX
10
7.79915
20
10.6511
30
8.12
0
VERTEX
10
7.79364
20
10.6584
30
8.12
0
VERTEX
10
7.78997
20
10.6731
30
8.12
0
VERTEX
10
7.7863
20
10.6749
30
8.12
0
VERTEX
10
7.78446
20
10.6896
30
8.12
0
VERTEX
10
7.77711
20
10.7043
30
8.12
0
VERTEX
10
7.77528
20
10.7117
30
8.12
0
VERTEX
10
7.77528
20
10.7153
30
8.12
0
VERTEX
10
7.76793
20
10.7208
30
8.12
0
VERTEX
10
7.75508
20
10.7796
30
8.12
0
VERTEX
10
7.75324
20
10.787
30
8.12
0
VERTEX
10
7.75324
20
10.7906
30
8.12
0
VERTEX
10
7.74957
20
10.7943
30
8.12
0
VERTEX
10
7.74589
20
10.809
30
8.12
0
VERTEX
10
7.74589
20
10.8127
30
8.12
0
VERTEX
10
7.74222
20
10.8163
30
8.12
0
VERTEX
10
7.74406
20
10.8218
30
8.12
0
VERTEX
10
7.74773
20
10.8237
30
8.12
0
VERTEX
10
7.74222
20
10.831
30
8.12
0
VERTEX
10
7.73855
20
10.8347
30
8.12
0
VERTEX
10
7.73488
20
10.8494
30
8.12
0
VERTEX
10
7.7312
20
10.8567
30
8.12
0
VERTEX
10
7.72386
20
10.8641
30
8.12
0
VERTEX
10
7.72202
20
10.8714
30
8.12
0
VERTEX
10
7.71468
20
10.8788
30
8.12
0
VERTEX
10
7.70917
20
10.8935
30
8.12
0
VERTEX
10
7.69264
20
10.9082
30
8.12
0
VERTEX
10
7.67795
20
10.9118
30
8.12
0
VERTEX
10
7.67428
20
10.91
30
8.12
0
VERTEX
10
7.65958
20
10.9118
30
8.12
0
VERTEX
10
7.6302
20
10.9082
30
8.12
0
VERTEX
10
7.61551
20
10.9026
30
8.12
0
VERTEX
10
7.60449
20
10.888
30
8.12
0
VERTEX
10
7.59898
20
10.8733
30
8.12
0
VERTEX
10
7.59898
20
10.8659
30
8.12
0
VERTEX
10
7.59898
20
10.8641
30
8.12
0
SEQEND
0
ENDSEC
0
EOF
