0
SECTION
2
ENTITIES
0
POLYLINE
62
31
66
1
70
1
3
contour
0
VERTEX
10
6.88342
20
10.7086
30
9.64
0
VERTEX
10
6.89
20
10.6955
30
9.64
0
VERTEX
10
6.89
20
10.6823
30
9.64
0
VERTEX
10
6.92621
20
10.6362
30
9.64
0
VERTEX
10
6.95255
20
10.6165
30
9.64
0
VERTEX
10
6.9723
20
10.5934
30
9.64
0
VERTEX
10
6.99863
20
10.5737
30
9.64
0
VERTEX
10
7.02497
20
10.5704
30
9.64
0
VERTEX
10
7.0513
20
10.5539
30
9.64
0
VERTEX
10
7.06776
20
10.5375
30
9.64
0
VERTEX
10
7.07435
20
10.5375
30
9.64
0
VERTEX
10
7.08752
20
10.5243
30
9.64
0
VERTEX
10
7.11385
20
10.5177
30
9.64
0
VERTEX
10
7.12044
20
10.5111
30
9.64
0
VERTEX
10
7.1336
20
10.5078
30
9.64
0
VERTEX
10
7.14677
20
10.498
30
9.64
0
VERTEX
10
7.15994
20
10.4947
30
9.64
0
VERTEX
10
7.18298
20
10.4749
30
9.64
0
VERTEX
10
7.20603
20
10.465
30
9.64
0
VERTEX
10
7.21919
20
10.4552
30
9.64
0
VERTEX
10
7.27186
20
10.4486
30
9.64
0
VERTEX
10
7.32453
20
10.4584
30
9.64
0
VERTEX
10
7.33112
20
10.4584
30
9.64
0
VERTEX
10
7.33441
20
10.465
30
9.64
0
VERTEX
10
7.36075
20
10.4716
30
9.64
0
VERTEX
10
7.41342
20
10.4683
30
9.64
0
VERTEX
10
7.43975
20
10.465
30
9.64
0
VERTEX
10
7.45292
20
10.4617
30
9.64
0
VERTEX
10
7.4595
20
10.4617
30
9.64
0
VERTEX
10
7.46609
20
10.4552
30
9.64
0
VERTEX
10
7.49242
20
10.4519
30
9.64
0
VERTEX
10
7.50559
20
10.4486
30
9.64
0
VERTEX
10
7.52534
20
10.4321
30
9.64
0
VERTEX
10
7.55168
20
10.4189
30
9.64
0
VERTEX
10
7.55826
20
10.4124
30
9.64
0
VERTEX
10
7.57143
20
10.4124
30
9.64
0
VERTEX
10
7.57801
20
10.4124
30
9.64
0
VERTEX
10
7.60435
20
10.4288
30
9.64
0
VERTEX
10
7.6241
20
10.4519
30
9.64
0
VERTEX
10
7.65044
20
10.4716
30
9.64
0
VERTEX
10
7.65702
20
10.4782
30
9.64
0
VERTEX
10
7.65702
20
10.4848
30
9.64
0
VERTEX
10
7.67019
20
10.4881
30
9.64
0
VERTEX
10
7.68006
20
10.498
30
9.64
0
VERTEX
10
7.68665
20
10.5012
30
9.64
0
VERTEX
10
7.68665
20
10.5078
30
9.64
0
VERTEX
10
7.69981
20
10.5144
30
9.64
0
VERTEX
10
7.71298
20
10.5144
30
9.64
0
VERTEX
10
7.72615
20
10.5243
30
9.64
0
VERTEX
10
7.73273
20
10.5243
30
9.64
0
VERTEX
10
7.74919
20
10.5407
30
9.64
0
VERTEX
10
7.74919
20
10.5539
30
9.64
0
VERTEX
10
7.75578
20
10.5671
30
9.64
0
VERTEX
10
7.75248
20
10.6724
30
9.64
0
VERTEX
10
7.74919
20
10.7251
30
9.64
0
VERTEX
10
7.73932
20
10.7778
30
9.64
0
VERTEX
10
7.73273
20
10.7778
30
9.64
0
VERTEX
10
7.72286
20
10.7876
30
9.64
0
VERTEX
10
7.72615
20
10.814
30
9.64
0
VERTEX
10
7.71627
20
10.8271
30
9.64
0
VERTEX
10
7.71627
20
10.8403
30
9.64
0
VERTEX
10
7.69323
20
10.8666
30
9.64
0
VERTEX
10
7.64714
20
10.8897
30
9.64
0
VERTEX
10
7.59447
20
10.9094
30
9.64
0
VERTEX
10
7.5418
20
10.9226
30
9.64
0
VERTEX
10
7.48913
20
10.9259
30
9.64
0
VERTEX
10
7.43646
20
10.9226
30
9.64
0
VERTEX
10
7.33112
20
10.9292
30
9.64
0
VERTEX
10
7.30478
20
10.9259
30
9.64
0
VERTEX
10
7.27845
20
10.916
30
9.64
0
VERTEX
10
7.26528
20
10.9061
30
9.64
0
VERTEX
10
7.2587
20
10.8996
30
9.64
0
VERTEX
10
7.24553
20
10.8963
30
9.64
0
VERTEX
10
7.23894
20
10.8963
30
9.64
0
VERTEX
10
7.23236
20
10.8897
30
9.64
0
VERTEX
10
7.20603
20
10.8798
30
9.64
0
VERTEX
10
7.19944
20
10.8798
30
9.64
0
VERTEX
10
7.19286
20
10.8732
30
9.64
0
VERTEX
10
7.18957
20
10.8601
30
9.64
0
VERTEX
10
7.16323
20
10.8535
30
9.64
0
VERTEX
10
7.15335
20
10.8436
30
9.64
0
VERTEX
10
7.12702
20
10.837
30
9.64
0
VERTEX
10
7.11714
20
10.8271
30
9.64
0
VERTEX
10
7.06447
20
10.8239
30
9.64
0
VERTEX
10
7.03814
20
10.8206
30
9.64
0
VERTEX
10
7.0118
20
10.8239
30
9.64
0
VERTEX
10
6.98547
20
10.8206
30
9.64
0
VERTEX
10
6.95913
20
10.8107
30
9.64
0
VERTEX
10
6.95255
20
10.8107
30
9.64
0
VERTEX
10
6.9295
20
10.7876
30
9.64
0
VERTEX
10
6.90317
20
10.7811
30
9.64
0
VERTEX
10
6.88671
20
10.7547
30
9.64
0
VERTEX
10
6.88342
20
10.7284
30
9.64
0
VERTEX
10
6.88342
20
10.7152
30
9.64
0
VERTEX
10
6.88342
20
10.7119
30
9.64
0
SEQEND
0
POLYLINE
62
224
66
1
70
1
3
mitochondrion
0
VERTEX
10
7.29976
20
10.7355
30
9.64
0
VERTEX
10
7.30393
20
10.7244
30
9.64
0
VERTEX
10
7.30671
20
10.7021
30
9.64
0
VERTEX
10
7.3081
20
10.691
30
9.64
0
VERTEX
10
7.31088
20
10.6855
30
9.64
0
VERTEX
10
7.31227
20
10.6743
30
9.64
0
VERTEX
10
7.31227
20
10.6688
30
9.64
0
VERTEX
10
7.31644
20
10.6576
30
9.64
0
VERTEX
10
7.34286
20
10.6145
30
9.64
0
VERTEX
10
7.36233
20
10.5951
30
9.64
0
VERTEX
10
7.36233
20
10.5923
30
9.64
0
VERTEX
10
7.36928
20
10.5812
30
9.64
0
VERTEX
10
7.39013
20
10.5673
30
9.64
0
VERTEX
10
7.41238
20
10.5575
30
9.64
0
VERTEX
10
7.43463
20
10.5534
30
9.64
0
VERTEX
10
7.45688
20
10.5534
30
9.64
0
VERTEX
10
7.46661
20
10.5561
30
9.64
0
VERTEX
10
7.47773
20
10.5561
30
9.64
0
VERTEX
10
7.4972
20
10.5714
30
9.64
0
VERTEX
10
7.49859
20
10.5742
30
9.64
0
VERTEX
10
7.50137
20
10.5742
30
9.64
0
VERTEX
10
7.54308
20
10.6006
30
9.64
0
VERTEX
10
7.55003
20
10.6076
30
9.64
0
VERTEX
10
7.5556
20
10.609
30
9.64
0
VERTEX
10
7.55838
20
10.609
30
9.64
0
VERTEX
10
7.56672
20
10.6173
30
9.64
0
VERTEX
10
7.5695
20
10.6187
30
9.64
0
VERTEX
10
7.57089
20
10.6243
30
9.64
0
VERTEX
10
7.57506
20
10.6298
30
9.64
0
VERTEX
10
7.57784
20
10.6326
30
9.64
0
VERTEX
10
7.57784
20
10.6437
30
9.64
0
VERTEX
10
7.58062
20
10.6493
30
9.64
0
VERTEX
10
7.5848
20
10.6715
30
9.64
0
VERTEX
10
7.5848
20
10.6938
30
9.64
0
VERTEX
10
7.5848
20
10.7049
30
9.64
0
VERTEX
10
7.58201
20
10.716
30
9.64
0
VERTEX
10
7.58201
20
10.7216
30
9.64
0
VERTEX
10
7.57784
20
10.7272
30
9.64
0
VERTEX
10
7.57506
20
10.7383
30
9.64
0
VERTEX
10
7.57367
20
10.7439
30
9.64
0
VERTEX
10
7.57367
20
10.7466
30
9.64
0
VERTEX
10
7.57089
20
10.7494
30
9.64
0
VERTEX
10
7.56811
20
10.7605
30
9.64
0
VERTEX
10
7.56811
20
10.7633
30
9.64
0
VERTEX
10
7.56116
20
10.7744
30
9.64
0
VERTEX
10
7.55838
20
10.78
30
9.64
0
VERTEX
10
7.54725
20
10.7911
30
9.64
0
VERTEX
10
7.54169
20
10.7939
30
9.64
0
VERTEX
10
7.53891
20
10.7967
30
9.64
0
VERTEX
10
7.53891
20
10.7995
30
9.64
0
VERTEX
10
7.53613
20
10.8009
30
9.64
0
VERTEX
10
7.53474
20
10.8064
30
9.64
0
VERTEX
10
7.52501
20
10.8175
30
9.64
0
VERTEX
10
7.52084
20
10.8231
30
9.64
0
VERTEX
10
7.51805
20
10.8231
30
9.64
0
VERTEX
10
7.5111
20
10.8342
30
9.64
0
VERTEX
10
7.50137
20
10.8426
30
9.64
0
VERTEX
10
7.4972
20
10.8481
30
9.64
0
VERTEX
10
7.48607
20
10.8509
30
9.64
0
VERTEX
10
7.46383
20
10.8523
30
9.64
0
VERTEX
10
7.4527
20
10.8537
30
9.64
0
VERTEX
10
7.44714
20
10.8537
30
9.64
0
VERTEX
10
7.44297
20
10.8565
30
9.64
0
VERTEX
10
7.44019
20
10.8537
30
9.64
0
VERTEX
10
7.41794
20
10.8537
30
9.64
0
VERTEX
10
7.41238
20
10.8551
30
9.64
0
VERTEX
10
7.39013
20
10.8509
30
9.64
0
VERTEX
10
7.3804
20
10.8426
30
9.64
0
VERTEX
10
7.36928
20
10.837
30
9.64
0
VERTEX
10
7.3665
20
10.837
30
9.64
0
VERTEX
10
7.36511
20
10.8342
30
9.64
0
VERTEX
10
7.36233
20
10.8342
30
9.64
0
VERTEX
10
7.34147
20
10.8175
30
9.64
0
VERTEX
10
7.33591
20
10.8162
30
9.64
0
VERTEX
10
7.32061
20
10.7953
30
9.64
0
VERTEX
10
7.31088
20
10.7856
30
9.64
0
VERTEX
10
7.30393
20
10.7633
30
9.64
0
VERTEX
10
7.29976
20
10.7411
30
9.64
0
VERTEX
10
7.29976
20
10.7369
30
9.64
0
SEQEND
0
POLYLINE
62
227
66
1
70
1
3
endoplasmic_reticulum
0
VERTEX
10
7.51933
20
10.4977
30
9.64
0
VERTEX
10
7.52113
20
10.4905
30
9.64
0
VERTEX
10
7.52381
20
10.4869
30
9.64
0
VERTEX
10
7.53099
20
10.4833
30
9.64
0
VERTEX
10
7.53457
20
10.4824
30
9.64
0
VERTEX
10
7.54175
20
10.4761
30
9.64
0
VERTEX
10
7.54533
20
10.4743
30
9.64
0
VERTEX
10
7.54981
20
10.4681
30
9.64
0
VERTEX
10
7.55609
20
10.4618
30
9.64
0
VERTEX
10
7.56326
20
10.4627
30
9.64
0
VERTEX
10
7.56685
20
10.4663
30
9.64
0
VERTEX
10
7.57402
20
10.469
30
9.64
0
VERTEX
10
7.5803
20
10.4743
30
9.64
0
VERTEX
10
7.58299
20
10.4815
30
9.64
0
VERTEX
10
7.58299
20
10.4851
30
9.64
0
VERTEX
10
7.58478
20
10.4887
30
9.64
0
VERTEX
10
7.58478
20
10.4905
30
9.64
0
VERTEX
10
7.59106
20
10.4968
30
9.64
0
VERTEX
10
7.59464
20
10.4995
30
9.64
0
VERTEX
10
7.59644
20
10.5021
30
9.64
0
VERTEX
10
7.60271
20
10.5075
30
9.64
0
VERTEX
10
7.6054
20
10.5111
30
9.64
0
VERTEX
10
7.60719
20
10.5111
30
9.64
0
VERTEX
10
7.60899
20
10.5129
30
9.64
0
VERTEX
10
7.60899
20
10.5165
30
9.64
0
VERTEX
10
7.61078
20
10.5183
30
9.64
0
VERTEX
10
7.61168
20
10.5255
30
9.64
0
VERTEX
10
7.61168
20
10.529
30
9.64
0
VERTEX
10
7.60899
20
10.5362
30
9.64
0
VERTEX
10
7.60719
20
10.538
30
9.64
0
VERTEX
10
7.60719
20
10.5398
30
9.64
0
VERTEX
10
7.60361
20
10.5416
30
9.64
0
VERTEX
10
7.60361
20
10.5434
30
9.64
0
VERTEX
10
7.60002
20
10.547
30
9.64
0
VERTEX
10
7.59823
20
10.5506
30
9.64
0
VERTEX
10
7.59106
20
10.5532
30
9.64
0
VERTEX
10
7.58926
20
10.5541
30
9.64
0
VERTEX
10
7.58837
20
10.5532
30
9.64
0
VERTEX
10
7.58568
20
10.5568
30
9.64
0
VERTEX
10
7.5785
20
10.5577
30
9.64
0
VERTEX
10
7.57312
20
10.5523
30
9.64
0
VERTEX
10
7.56595
20
10.5515
30
9.64
0
VERTEX
10
7.55968
20
10.5488
30
9.64
0
VERTEX
10
7.5534
20
10.5443
30
9.64
0
VERTEX
10
7.54981
20
10.5407
30
9.64
0
VERTEX
10
7.54533
20
10.5335
30
9.64
0
VERTEX
10
7.53995
20
10.529
30
9.64
0
VERTEX
10
7.5274
20
10.5174
30
9.64
0
VERTEX
10
7.52292
20
10.5111
30
9.64
0
VERTEX
10
7.52023
20
10.5075
30
9.64
0
VERTEX
10
7.51933
20
10.5003
30
9.64
0
VERTEX
10
7.51933
20
10.4986
30
9.64
0
SEQEND
0
POLYLINE
62
227
66
1
70
1
3
endoplasmic_reticulum
0
VERTEX
10
7.08361
20
10.651
30
9.64
0
VERTEX
10
7.0872
20
10.6366
30
9.64
0
VERTEX
10
7.09078
20
10.6339
30
9.64
0
VERTEX
10
7.09258
20
10.6321
30
9.64
0
VERTEX
10
7.10692
20
10.6295
30
9.64
0
VERTEX
10
7.11409
20
10.6303
30
9.64
0
VERTEX
10
7.12037
20
10.6357
30
9.64
0
VERTEX
10
7.12396
20
10.6366
30
9.64
0
VERTEX
10
7.12575
20
10.6366
30
9.64
0
VERTEX
10
7.12844
20
10.6438
30
9.64
0
VERTEX
10
7.12754
20
10.6581
30
9.64
0
VERTEX
10
7.12665
20
10.6617
30
9.64
0
VERTEX
10
7.12396
20
10.6644
30
9.64
0
VERTEX
10
7.10961
20
10.6653
30
9.64
0
VERTEX
10
7.10244
20
10.6653
30
9.64
0
VERTEX
10
7.08809
20
10.6608
30
9.64
0
VERTEX
10
7.08451
20
10.6599
30
9.64
0
VERTEX
10
7.08361
20
10.6528
30
9.64
0
VERTEX
10
7.08361
20
10.6519
30
9.64
0
SEQEND
0
POLYLINE
62
227
66
1
70
1
3
endoplasmic_reticulum
0
VERTEX
10
7.07375
20
10.7164
30
9.64
0
VERTEX
10
7.07733
20
10.7101
30
9.64
0
VERTEX
10
7.07823
20
10.7066
30
9.64
0
VERTEX
10
7.08002
20
10.7048
30
9.64
0
VERTEX
10
7.08002
20
10.703
30
9.64
0
VERTEX
10
7.0863
20
10.6967
30
9.64
0
VERTEX
10
7.09347
20
10.6922
30
9.64
0
VERTEX
10
7.09706
20
10.6895
30
9.64
0
VERTEX
10
7.09885
20
10.6895
30
9.64
0
VERTEX
10
7.10065
20
10.6877
30
9.64
0
VERTEX
10
7.10244
20
10.6877
30
9.64
0
VERTEX
10
7.10333
20
10.6859
30
9.64
0
VERTEX
10
7.11768
20
10.685
30
9.64
0
VERTEX
10
7.12485
20
10.6859
30
9.64
0
VERTEX
10
7.1392
20
10.694
30
9.64
0
VERTEX
10
7.14189
20
10.6967
30
9.64
0
VERTEX
10
7.14189
20
10.6985
30
9.64
0
VERTEX
10
7.14637
20
10.7048
30
9.64
0
VERTEX
10
7.15264
20
10.7119
30
9.64
0
VERTEX
10
7.15444
20
10.7146
30
9.64
0
VERTEX
10
7.16878
20
10.7227
30
9.64
0
VERTEX
10
7.17237
20
10.7236
30
9.64
0
VERTEX
10
7.17596
20
10.7263
30
9.64
0
VERTEX
10
7.18313
20
10.7272
30
9.64
0
VERTEX
10
7.1903
20
10.7308
30
9.64
0
VERTEX
10
7.19209
20
10.7308
30
9.64
0
VERTEX
10
7.19389
20
10.7326
30
9.64
0
VERTEX
10
7.20823
20
10.737
30
9.64
0
VERTEX
10
7.21182
20
10.7379
30
9.64
0
VERTEX
10
7.21361
20
10.7397
30
9.64
0
VERTEX
10
7.2172
20
10.7406
30
9.64
0
VERTEX
10
7.22885
20
10.7505
30
9.64
0
VERTEX
10
7.23154
20
10.7541
30
9.64
0
VERTEX
10
7.23513
20
10.7559
30
9.64
0
VERTEX
10
7.23692
20
10.7559
30
9.64
0
VERTEX
10
7.2423
20
10.7621
30
9.64
0
VERTEX
10
7.24409
20
10.7621
30
9.64
0
VERTEX
10
7.24589
20
10.7639
30
9.64
0
VERTEX
10
7.24768
20
10.7639
30
9.64
0
VERTEX
10
7.26023
20
10.772
30
9.64
0
VERTEX
10
7.26113
20
10.7738
30
9.64
0
VERTEX
10
7.27547
20
10.7783
30
9.64
0
VERTEX
10
7.28264
20
10.781
30
9.64
0
VERTEX
10
7.28444
20
10.781
30
9.64
0
VERTEX
10
7.28713
20
10.7846
30
9.64
0
VERTEX
10
7.2934
20
10.789
30
9.64
0
VERTEX
10
7.29878
20
10.7953
30
9.64
0
VERTEX
10
7.30147
20
10.8025
30
9.64
0
VERTEX
10
7.30237
20
10.8097
30
9.64
0
VERTEX
10
7.30237
20
10.8132
30
9.64
0
VERTEX
10
7.29609
20
10.8177
30
9.64
0
VERTEX
10
7.28892
20
10.8204
30
9.64
0
VERTEX
10
7.27458
20
10.8213
30
9.64
0
VERTEX
10
7.2674
20
10.8222
30
9.64
0
VERTEX
10
7.25306
20
10.8177
30
9.64
0
VERTEX
10
7.23961
20
10.8088
30
9.64
0
VERTEX
10
7.22616
20
10.8025
30
9.64
0
VERTEX
10
7.22258
20
10.8016
30
9.64
0
VERTEX
10
7.22168
20
10.7998
30
9.64
0
VERTEX
10
7.21989
20
10.7998
30
9.64
0
VERTEX
10
7.2163
20
10.7971
30
9.64
0
VERTEX
10
7.20913
20
10.7953
30
9.64
0
VERTEX
10
7.20554
20
10.7944
30
9.64
0
VERTEX
10
7.18133
20
10.7738
30
9.64
0
VERTEX
10
7.17416
20
10.7693
30
9.64
0
VERTEX
10
7.16699
20
10.7666
30
9.64
0
VERTEX
10
7.1652
20
10.7666
30
9.64
0
VERTEX
10
7.15892
20
10.7594
30
9.64
0
VERTEX
10
7.15533
20
10.7586
30
9.64
0
VERTEX
10
7.15354
20
10.7586
30
9.64
0
VERTEX
10
7.15175
20
10.7568
30
9.64
0
VERTEX
10
7.1374
20
10.7514
30
9.64
0
VERTEX
10
7.10871
20
10.7487
30
9.64
0
VERTEX
10
7.10154
20
10.7487
30
9.64
0
VERTEX
10
7.09437
20
10.746
30
9.64
0
VERTEX
10
7.09168
20
10.7433
30
9.64
0
VERTEX
10
7.08809
20
10.7433
30
9.64
0
VERTEX
10
7.0854
20
10.7388
30
9.64
0
VERTEX
10
7.08002
20
10.7326
30
9.64
0
VERTEX
10
7.07375
20
10.7281
30
9.64
0
VERTEX
10
7.07375
20
10.7209
30
9.64
0
VERTEX
10
7.07375
20
10.7173
30
9.64
0
SEQEND
0
ENDSEC
0
EOF
