0
SECTION
2
ENTITIES
0
POLYLINE
62
31
66
1
70
1
3
contour
0
VERTEX
10
9.72984
20
8.19985
30
3.72
0
VERTEX
10
9.73206
20
8.18211
30
3.72
0
VERTEX
10
9.73206
20
8.17768
30
3.72
0
VERTEX
10
9.73649
20
8.17546
30
3.72
0
VERTEX
10
9.73871
20
8.16659
30
3.72
0
VERTEX
10
9.76753
20
8.14442
30
3.72
0
VERTEX
10
9.77197
20
8.13555
30
3.72
0
VERTEX
10
9.80301
20
8.10229
30
3.72
0
VERTEX
10
9.83184
20
8.08011
30
3.72
0
VERTEX
10
9.83849
20
8.07124
30
3.72
0
VERTEX
10
9.84736
20
8.06902
30
3.72
0
VERTEX
10
9.85179
20
8.06016
30
3.72
0
VERTEX
10
9.86066
20
8.05794
30
3.72
0
VERTEX
10
9.8651
20
8.05794
30
3.72
0
VERTEX
10
9.87397
20
8.05129
30
3.72
0
VERTEX
10
9.89171
20
8.04685
30
3.72
0
VERTEX
10
9.89614
20
8.04685
30
3.72
0
VERTEX
10
9.90501
20
8.0402
30
3.72
0
VERTEX
10
9.91388
20
8.03798
30
3.72
0
VERTEX
10
9.92053
20
8.03133
30
3.72
0
VERTEX
10
9.9294
20
8.02911
30
3.72
0
VERTEX
10
9.93827
20
8.02246
30
3.72
0
VERTEX
10
9.95601
20
8.01803
30
3.72
0
VERTEX
10
9.97375
20
8.00916
30
3.72
0
VERTEX
10
9.98262
20
8.0025
30
3.72
0
VERTEX
10
9.99149
20
8.00029
30
3.72
0
VERTEX
10
10.0092
20
7.9892
30
3.72
0
VERTEX
10
10.027
20
7.98255
30
3.72
0
VERTEX
10
10.0314
20
7.98255
30
3.72
0
VERTEX
10
10.0358
20
7.97811
30
3.72
0
VERTEX
10
10.0713
20
7.96481
30
3.72
0
VERTEX
10
10.1068
20
7.96481
30
3.72
0
VERTEX
10
10.1245
20
7.96481
30
3.72
0
VERTEX
10
10.16
20
7.97146
30
3.72
0
VERTEX
10
10.1689
20
7.97811
30
3.72
0
VERTEX
10
10.1777
20
7.98033
30
3.72
0
VERTEX
10
10.1844
20
7.9892
30
3.72
0
VERTEX
10
10.1911
20
7.99363
30
3.72
0
VERTEX
10
10.2199
20
8.02246
30
3.72
0
VERTEX
10
10.2421
20
8.04907
30
3.72
0
VERTEX
10
10.2531
20
8.06681
30
3.72
0
VERTEX
10
10.2576
20
8.07568
30
3.72
0
VERTEX
10
10.2731
20
8.08676
30
3.72
0
VERTEX
10
10.2842
20
8.10229
30
3.72
0
VERTEX
10
10.2997
20
8.13776
30
3.72
0
VERTEX
10
10.3019
20
8.17324
30
3.72
0
VERTEX
10
10.2975
20
8.20872
30
3.72
0
VERTEX
10
10.2975
20
8.2442
30
3.72
0
VERTEX
10
10.2931
20
8.26194
30
3.72
0
VERTEX
10
10.2864
20
8.27081
30
3.72
0
VERTEX
10
10.282
20
8.27524
30
3.72
0
VERTEX
10
10.2709
20
8.31072
30
3.72
0
VERTEX
10
10.2709
20
8.31959
30
3.72
0
VERTEX
10
10.2421
20
8.35285
30
3.72
0
VERTEX
10
10.2332
20
8.3595
30
3.72
0
VERTEX
10
10.2177
20
8.36615
30
3.72
0
VERTEX
10
10.2088
20
8.37502
30
3.72
0
VERTEX
10
10.1999
20
8.37724
30
3.72
0
VERTEX
10
10.1911
20
8.38389
30
3.72
0
VERTEX
10
10.1733
20
8.38833
30
3.72
0
VERTEX
10
10.1644
20
8.39498
30
3.72
0
VERTEX
10
10.1556
20
8.3972
30
3.72
0
VERTEX
10
10.1511
20
8.40163
30
3.72
0
VERTEX
10
10.1334
20
8.40385
30
3.72
0
VERTEX
10
10.0979
20
8.41494
30
3.72
0
VERTEX
10
10.0802
20
8.42159
30
3.72
0
VERTEX
10
10.0713
20
8.4238
30
3.72
0
VERTEX
10
10.0669
20
8.42824
30
3.72
0
VERTEX
10
9.99592
20
8.44598
30
3.72
0
VERTEX
10
9.98705
20
8.45041
30
3.72
0
VERTEX
10
9.98262
20
8.45041
30
3.72
0
VERTEX
10
9.97818
20
8.45485
30
3.72
0
VERTEX
10
9.97818
20
8.45928
30
3.72
0
VERTEX
10
9.9671
20
8.47702
30
3.72
0
VERTEX
10
9.95823
20
8.47924
30
3.72
0
VERTEX
10
9.95158
20
8.48589
30
3.72
0
VERTEX
10
9.9161
20
8.48811
30
3.72
0
VERTEX
10
9.88062
20
8.48589
30
3.72
0
VERTEX
10
9.86288
20
8.48367
30
3.72
0
VERTEX
10
9.85401
20
8.48146
30
3.72
0
VERTEX
10
9.84958
20
8.48146
30
3.72
0
VERTEX
10
9.81632
20
8.45707
30
3.72
0
VERTEX
10
9.80745
20
8.45485
30
3.72
0
VERTEX
10
9.77862
20
8.42602
30
3.72
0
VERTEX
10
9.77197
20
8.41715
30
3.72
0
VERTEX
10
9.77197
20
8.41272
30
3.72
0
VERTEX
10
9.76532
20
8.40385
30
3.72
0
VERTEX
10
9.75423
20
8.33289
30
3.72
0
VERTEX
10
9.74758
20
8.29741
30
3.72
0
VERTEX
10
9.73649
20
8.26194
30
3.72
0
VERTEX
10
9.72984
20
8.22646
30
3.72
0
VERTEX
10
9.72984
20
8.20872
30
3.72
0
VERTEX
10
9.72984
20
8.20207
30
3.72
0
SEQEND
0
POLYLINE
62
31
66
1
70
1
3
contour
0
VERTEX
10
10.8383
20
7.77845
30
3.72
0
VERTEX
10
10.8416
20
7.76541
30
3.72
0
VERTEX
10
10.8644
20
7.7426
30
3.72
0
VERTEX
10
10.8742
20
7.73282
30
3.72
0
VERTEX
10
10.9003
20
7.72631
30
3.72
0
VERTEX
10
10.9263
20
7.73608
30
3.72
0
VERTEX
10
10.9394
20
7.74586
30
3.72
0
VERTEX
10
10.9394
20
7.75238
30
3.72
0
VERTEX
10
10.9589
20
7.76867
30
3.72
0
VERTEX
10
10.9654
20
7.77845
30
3.72
0
VERTEX
10
10.9622
20
7.80452
30
3.72
0
VERTEX
10
10.9622
20
7.81755
30
3.72
0
VERTEX
10
10.9459
20
7.84362
30
3.72
0
VERTEX
10
10.9459
20
7.85665
30
3.72
0
VERTEX
10
10.9459
20
7.86317
30
3.72
0
VERTEX
10
10.9328
20
7.87295
30
3.72
0
VERTEX
10
10.8807
20
7.85665
30
3.72
0
VERTEX
10
10.8546
20
7.85014
30
3.72
0
VERTEX
10
10.8481
20
7.84362
30
3.72
0
VERTEX
10
10.8416
20
7.84362
30
3.72
0
VERTEX
10
10.8383
20
7.83058
30
3.72
0
VERTEX
10
10.8416
20
7.82407
30
3.72
0
VERTEX
10
10.8383
20
7.798
30
3.72
0
VERTEX
10
10.8383
20
7.78496
30
3.72
0
VERTEX
10
10.8383
20
7.7817
30
3.72
0
SEQEND
0
POLYLINE
62
224
66
1
70
1
3
mitochondrion
0
VERTEX
10
9.9082
20
8.2522
30
3.72
0
VERTEX
10
9.91098
20
8.22995
30
3.72
0
VERTEX
10
9.91098
20
8.22439
30
3.72
0
VERTEX
10
9.91655
20
8.21327
30
3.72
0
VERTEX
10
9.92211
20
8.20771
30
3.72
0
VERTEX
10
9.92767
20
8.19658
30
3.72
0
VERTEX
10
9.93184
20
8.19102
30
3.72
0
VERTEX
10
9.93323
20
8.18546
30
3.72
0
VERTEX
10
9.94296
20
8.17434
30
3.72
0
VERTEX
10
9.95826
20
8.15348
30
3.72
0
VERTEX
10
9.97912
20
8.13958
30
3.72
0
VERTEX
10
9.99024
20
8.13262
30
3.72
0
VERTEX
10
9.99302
20
8.12984
30
3.72
0
VERTEX
10
10.0153
20
8.12289
30
3.72
0
VERTEX
10
10.0208
20
8.1215
30
3.72
0
VERTEX
10
10.0264
20
8.11733
30
3.72
0
VERTEX
10
10.0375
20
8.11316
30
3.72
0
VERTEX
10
10.082
20
8.11455
30
3.72
0
VERTEX
10
10.0876
20
8.11455
30
3.72
0
VERTEX
10
10.0903
20
8.11733
30
3.72
0
VERTEX
10
10.0959
20
8.11733
30
3.72
0
VERTEX
10
10.1015
20
8.12011
30
3.72
0
VERTEX
10
10.1043
20
8.1215
30
3.72
0
VERTEX
10
10.1154
20
8.12011
30
3.72
0
VERTEX
10
10.1237
20
8.12845
30
3.72
0
VERTEX
10
10.1265
20
8.13401
30
3.72
0
VERTEX
10
10.1376
20
8.14375
30
3.72
0
VERTEX
10
10.1376
20
8.14653
30
3.72
0
VERTEX
10
10.1432
20
8.15209
30
3.72
0
VERTEX
10
10.146
20
8.15765
30
3.72
0
VERTEX
10
10.1487
20
8.16043
30
3.72
0
VERTEX
10
10.1487
20
8.16321
30
3.72
0
VERTEX
10
10.1529
20
8.16878
30
3.72
0
VERTEX
10
10.1543
20
8.17434
30
3.72
0
VERTEX
10
10.1585
20
8.17851
30
3.72
0
VERTEX
10
10.1627
20
8.20076
30
3.72
0
VERTEX
10
10.1627
20
8.223
30
3.72
0
VERTEX
10
10.1599
20
8.24525
30
3.72
0
VERTEX
10
10.1571
20
8.25637
30
3.72
0
VERTEX
10
10.1529
20
8.26193
30
3.72
0
VERTEX
10
10.146
20
8.28418
30
3.72
0
VERTEX
10
10.1404
20
8.2953
30
3.72
0
VERTEX
10
10.1376
20
8.30087
30
3.72
0
VERTEX
10
10.1376
20
8.30365
30
3.72
0
VERTEX
10
10.1348
20
8.30643
30
3.72
0
VERTEX
10
10.1348
20
8.30921
30
3.72
0
VERTEX
10
10.1307
20
8.31477
30
3.72
0
VERTEX
10
10.1293
20
8.32033
30
3.72
0
VERTEX
10
10.1126
20
8.33841
30
3.72
0
VERTEX
10
10.1056
20
8.34814
30
3.72
0
VERTEX
10
10.0945
20
8.35648
30
3.72
0
VERTEX
10
10.089
20
8.36205
30
3.72
0
VERTEX
10
10.0834
20
8.36344
30
3.72
0
VERTEX
10
10.0737
20
8.37178
30
3.72
0
VERTEX
10
10.0514
20
8.38429
30
3.72
0
VERTEX
10
10.0459
20
8.38568
30
3.72
0
VERTEX
10
10.0417
20
8.38985
30
3.72
0
VERTEX
10
10.0306
20
8.39263
30
3.72
0
VERTEX
10
10.025
20
8.39263
30
3.72
0
VERTEX
10
10.0194
20
8.39681
30
3.72
0
VERTEX
10
10.0083
20
8.3982
30
3.72
0
VERTEX
10
9.99719
20
8.40376
30
3.72
0
VERTEX
10
9.99441
20
8.40654
30
3.72
0
VERTEX
10
9.98329
20
8.40515
30
3.72
0
VERTEX
10
9.96243
20
8.39681
30
3.72
0
VERTEX
10
9.94018
20
8.3829
30
3.72
0
VERTEX
10
9.9374
20
8.38151
30
3.72
0
VERTEX
10
9.9374
20
8.37873
30
3.72
0
VERTEX
10
9.93323
20
8.37317
30
3.72
0
VERTEX
10
9.92906
20
8.36205
30
3.72
0
VERTEX
10
9.92628
20
8.35648
30
3.72
0
VERTEX
10
9.92489
20
8.34536
30
3.72
0
VERTEX
10
9.91655
20
8.32311
30
3.72
0
VERTEX
10
9.90959
20
8.27862
30
3.72
0
VERTEX
10
9.9082
20
8.25637
30
3.72
0
VERTEX
10
9.9082
20
8.25359
30
3.72
0
SEQEND
0
POLYLINE
62
236
66
1
70
1
3
postsynaptic_density
0
VERTEX
10
7.71873
20
8.76009
30
3.72
0
VERTEX
10
7.72246
20
8.75635
30
3.72
0
VERTEX
10
7.72246
20
8.75262
30
3.72
0
VERTEX
10
7.73739
20
8.74142
30
3.72
0
VERTEX
10
7.75232
20
8.73582
30
3.72
0
VERTEX
10
7.78218
20
8.73769
30
3.72
0
VERTEX
10
7.78965
20
8.73769
30
3.72
0
VERTEX
10
7.79338
20
8.73769
30
3.72
0
VERTEX
10
7.79711
20
8.74142
30
3.72
0
VERTEX
10
7.81204
20
8.74142
30
3.72
0
VERTEX
10
7.81951
20
8.74702
30
3.72
0
VERTEX
10
7.83444
20
8.75262
30
3.72
0
VERTEX
10
7.84003
20
8.75822
30
3.72
0
VERTEX
10
7.83817
20
8.78808
30
3.72
0
VERTEX
10
7.82884
20
8.80301
30
3.72
0
VERTEX
10
7.82324
20
8.80861
30
3.72
0
VERTEX
10
7.81577
20
8.81047
30
3.72
0
VERTEX
10
7.81391
20
8.81421
30
3.72
0
VERTEX
10
7.81017
20
8.81421
30
3.72
0
VERTEX
10
7.80271
20
8.8198
30
3.72
0
VERTEX
10
7.78778
20
8.81794
30
3.72
0
VERTEX
10
7.75792
20
8.80861
30
3.72
0
VERTEX
10
7.74299
20
8.80674
30
3.72
0
VERTEX
10
7.73553
20
8.80488
30
3.72
0
VERTEX
10
7.73179
20
8.80488
30
3.72
0
VERTEX
10
7.71873
20
8.79181
30
3.72
0
VERTEX
10
7.71873
20
8.76195
30
3.72
0
SEQEND
0
POLYLINE
62
227
66
1
70
1
3
endoplasmic_reticulum
0
VERTEX
10
9.83414
20
8.32588
30
3.72
0
VERTEX
10
9.84176
20
8.31369
30
3.72
0
VERTEX
10
9.84633
20
8.3076
30
3.72
0
VERTEX
10
9.8509
20
8.30455
30
3.72
0
VERTEX
10
9.85699
20
8.29389
30
3.72
0
VERTEX
10
9.86156
20
8.28932
30
3.72
0
VERTEX
10
9.87375
20
8.28779
30
3.72
0
VERTEX
10
9.87984
20
8.28627
30
3.72
0
VERTEX
10
9.88594
20
8.28779
30
3.72
0
VERTEX
10
9.88594
20
8.31217
30
3.72
0
VERTEX
10
9.88137
20
8.32436
30
3.72
0
VERTEX
10
9.88137
20
8.3274
30
3.72
0
VERTEX
10
9.88441
20
8.33045
30
3.72
0
VERTEX
10
9.88441
20
8.33655
30
3.72
0
VERTEX
10
9.88746
20
8.34264
30
3.72
0
VERTEX
10
9.89355
20
8.34416
30
3.72
0
VERTEX
10
9.90117
20
8.35178
30
3.72
0
VERTEX
10
9.90269
20
8.36397
30
3.72
0
VERTEX
10
9.90422
20
8.37006
30
3.72
0
VERTEX
10
9.90727
20
8.37311
30
3.72
0
VERTEX
10
9.90727
20
8.3853
30
3.72
0
VERTEX
10
9.90727
20
8.38834
30
3.72
0
VERTEX
10
9.90422
20
8.39139
30
3.72
0
VERTEX
10
9.90422
20
8.39444
30
3.72
0
VERTEX
10
9.89812
20
8.40053
30
3.72
0
VERTEX
10
9.89203
20
8.40206
30
3.72
0
VERTEX
10
9.88898
20
8.40206
30
3.72
0
VERTEX
10
9.88441
20
8.39596
30
3.72
0
VERTEX
10
9.87832
20
8.39291
30
3.72
0
VERTEX
10
9.87375
20
8.38682
30
3.72
0
VERTEX
10
9.86308
20
8.38073
30
3.72
0
VERTEX
10
9.85699
20
8.37616
30
3.72
0
VERTEX
10
9.85699
20
8.37006
30
3.72
0
VERTEX
10
9.85699
20
8.36702
30
3.72
0
VERTEX
10
9.8509
20
8.36549
30
3.72
0
VERTEX
10
9.83871
20
8.35787
30
3.72
0
VERTEX
10
9.83414
20
8.3335
30
3.72
0
VERTEX
10
9.83414
20
8.3274
30
3.72
0
SEQEND
0
POLYLINE
62
227
66
1
70
1
3
endoplasmic_reticulum
0
VERTEX
10
10.1876
20
8.26951
30
3.72
0
VERTEX
10
10.1922
20
8.25732
30
3.72
0
VERTEX
10
10.2028
20
8.24818
30
3.72
0
VERTEX
10
10.215
20
8.24666
30
3.72
0
VERTEX
10
10.2211
20
8.25732
30
3.72
0
VERTEX
10
10.2272
20
8.26189
30
3.72
0
VERTEX
10
10.2318
20
8.27256
30
3.72
0
VERTEX
10
10.2318
20
8.27865
30
3.72
0
VERTEX
10
10.2257
20
8.29084
30
3.72
0
VERTEX
10
10.2135
20
8.29389
30
3.72
0
VERTEX
10
10.2013
20
8.29084
30
3.72
0
VERTEX
10
10.1983
20
8.28779
30
3.72
0
VERTEX
10
10.1937
20
8.27561
30
3.72
0
VERTEX
10
10.1891
20
8.27408
30
3.72
0
VERTEX
10
10.1876
20
8.27104
30
3.72
0
SEQEND
0
POLYLINE
62
227
66
1
70
1
3
endoplasmic_reticulum
0
VERTEX
10
10.2028
20
8.21314
30
3.72
0
VERTEX
10
10.2059
20
8.20705
30
3.72
0
VERTEX
10
10.2074
20
8.19486
30
3.72
0
VERTEX
10
10.2074
20
8.18877
30
3.72
0
VERTEX
10
10.212
20
8.18267
30
3.72
0
VERTEX
10
10.2226
20
8.1781
30
3.72
0
VERTEX
10
10.2287
20
8.17963
30
3.72
0
VERTEX
10
10.2318
20
8.17963
30
3.72
0
VERTEX
10
10.2363
20
8.19181
30
3.72
0
VERTEX
10
10.2379
20
8.204
30
3.72
0
VERTEX
10
10.2363
20
8.21619
30
3.72
0
VERTEX
10
10.2363
20
8.22228
30
3.72
0
VERTEX
10
10.2333
20
8.22838
30
3.72
0
VERTEX
10
10.2226
20
8.24057
30
3.72
0
VERTEX
10
10.2165
20
8.24057
30
3.72
0
VERTEX
10
10.2135
20
8.24057
30
3.72
0
VERTEX
10
10.2043
20
8.21619
30
3.72
0
VERTEX
10
10.2043
20
8.21467
30
3.72
0
SEQEND
0
POLYLINE
62
236
66
1
70
1
3
postsynaptic_density
0
VERTEX
10
10.8072
20
7.88039
30
3.72
0
VERTEX
10
10.8187
20
7.82783
30
3.72
0
VERTEX
10
10.8203
20
7.82126
30
3.72
0
VERTEX
10
10.8286
20
7.80812
30
3.72
0
VERTEX
10
10.84
20
7.79662
30
3.72
0
VERTEX
10
10.8466
20
7.7917
30
3.72
0
VERTEX
10
10.8729
20
7.79005
30
3.72
0
VERTEX
10
10.8992
20
7.7917
30
3.72
0
VERTEX
10
10.9123
20
7.79334
30
3.72
0
VERTEX
10
10.9189
20
7.79498
30
3.72
0
VERTEX
10
10.9238
20
7.79991
30
3.72
0
VERTEX
10
10.9255
20
7.80648
30
3.72
0
VERTEX
10
10.9238
20
7.83276
30
3.72
0
VERTEX
10
10.9172
20
7.85903
30
3.72
0
VERTEX
10
10.9156
20
7.87217
30
3.72
0
VERTEX
10
10.914
20
7.87874
30
3.72
0
VERTEX
10
10.909
20
7.88531
30
3.72
0
VERTEX
10
10.909
20
7.8886
30
3.72
0
VERTEX
10
10.9057
20
7.89188
30
3.72
0
VERTEX
10
10.9057
20
7.89517
30
3.72
0
VERTEX
10
10.9025
20
7.89681
30
3.72
0
VERTEX
10
10.9025
20
7.9001
30
3.72
0
VERTEX
10
10.8992
20
7.90174
30
3.72
0
VERTEX
10
10.8975
20
7.92802
30
3.72
0
VERTEX
10
10.8942
20
7.93459
30
3.72
0
VERTEX
10
10.8417
20
7.93623
30
3.72
0
VERTEX
10
10.8154
20
7.93623
30
3.72
0
VERTEX
10
10.8088
20
7.9313
30
3.72
0
VERTEX
10
10.8072
20
7.90502
30
3.72
0
VERTEX
10
10.8072
20
7.89188
30
3.72
0
VERTEX
10
10.8072
20
7.88531
30
3.72
0
VERTEX
10
10.8072
20
7.88203
30
3.72
0
SEQEND
0
ENDSEC
0
EOF
