0
SECTION
2
ENTITIES
0
POLYLINE
62
224
66
1
70
1
3
mitochondrion
0
VERTEX
10
8.05476
20
9.78028
30
7.48
0
VERTEX
10
8.05754
20
9.7775
30
7.48
0
VERTEX
10
8.06449
20
9.75526
30
7.48
0
VERTEX
10
8.07006
20
9.74413
30
7.48
0
VERTEX
10
8.07423
20
9.73857
30
7.48
0
VERTEX
10
8.07701
20
9.73579
30
7.48
0
VERTEX
10
8.07701
20
9.73023
30
7.48
0
VERTEX
10
8.07701
20
9.72745
30
7.48
0
VERTEX
10
8.08674
20
9.71771
30
7.48
0
VERTEX
10
8.08813
20
9.71215
30
7.48
0
VERTEX
10
8.0923
20
9.70659
30
7.48
0
VERTEX
10
8.0923
20
9.70381
30
7.48
0
VERTEX
10
8.09647
20
9.69825
30
7.48
0
VERTEX
10
8.09786
20
9.69269
30
7.48
0
VERTEX
10
8.10482
20
9.68156
30
7.48
0
VERTEX
10
8.11455
20
9.67322
30
7.48
0
VERTEX
10
8.11872
20
9.66766
30
7.48
0
VERTEX
10
8.1215
20
9.66766
30
7.48
0
VERTEX
10
8.14097
20
9.64958
30
7.48
0
VERTEX
10
8.15209
20
9.64263
30
7.48
0
VERTEX
10
8.15487
20
9.63985
30
7.48
0
VERTEX
10
8.16599
20
9.63846
30
7.48
0
VERTEX
10
8.16878
20
9.63568
30
7.48
0
VERTEX
10
8.21327
20
9.6329
30
7.48
0
VERTEX
10
8.21883
20
9.63012
30
7.48
0
VERTEX
10
8.22995
20
9.62873
30
7.48
0
VERTEX
10
8.24108
20
9.62456
30
7.48
0
VERTEX
10
8.2522
20
9.62317
30
7.48
0
VERTEX
10
8.26332
20
9.61621
30
7.48
0
VERTEX
10
8.30782
20
9.61204
30
7.48
0
VERTEX
10
8.33007
20
9.61343
30
7.48
0
VERTEX
10
8.34119
20
9.61343
30
7.48
0
VERTEX
10
8.34675
20
9.61621
30
7.48
0
VERTEX
10
8.39124
20
9.62177
30
7.48
0
VERTEX
10
8.39681
20
9.62456
30
7.48
0
VERTEX
10
8.40793
20
9.62456
30
7.48
0
VERTEX
10
8.41905
20
9.62873
30
7.48
0
VERTEX
10
8.42461
20
9.63151
30
7.48
0
VERTEX
10
8.42879
20
9.63707
30
7.48
0
VERTEX
10
8.43157
20
9.63707
30
7.48
0
VERTEX
10
8.4413
20
9.6468
30
7.48
0
VERTEX
10
8.44408
20
9.65097
30
7.48
0
VERTEX
10
8.46355
20
9.67044
30
7.48
0
VERTEX
10
8.4705
20
9.68156
30
7.48
0
VERTEX
10
8.47467
20
9.6913
30
7.48
0
VERTEX
10
8.47884
20
9.69547
30
7.48
0
VERTEX
10
8.48301
20
9.70659
30
7.48
0
VERTEX
10
8.4844
20
9.71771
30
7.48
0
VERTEX
10
8.48301
20
9.72884
30
7.48
0
VERTEX
10
8.48301
20
9.7344
30
7.48
0
VERTEX
10
8.48718
20
9.74552
30
7.48
0
VERTEX
10
8.48857
20
9.79002
30
7.48
0
VERTEX
10
8.48857
20
9.81226
30
7.48
0
VERTEX
10
8.48997
20
9.82339
30
7.48
0
VERTEX
10
8.48997
20
9.82617
30
7.48
0
VERTEX
10
8.48718
20
9.82895
30
7.48
0
VERTEX
10
8.4844
20
9.84007
30
7.48
0
VERTEX
10
8.4844
20
9.84563
30
7.48
0
VERTEX
10
8.47745
20
9.86788
30
7.48
0
VERTEX
10
8.47189
20
9.87066
30
7.48
0
VERTEX
10
8.46911
20
9.87066
30
7.48
0
VERTEX
10
8.45103
20
9.89152
30
7.48
0
VERTEX
10
8.44408
20
9.89986
30
7.48
0
VERTEX
10
8.43852
20
9.90264
30
7.48
0
VERTEX
10
8.43296
20
9.9082
30
7.48
0
VERTEX
10
8.41071
20
9.92072
30
7.48
0
VERTEX
10
8.38985
20
9.93045
30
7.48
0
VERTEX
10
8.38012
20
9.93601
30
7.48
0
VERTEX
10
8.369
20
9.93601
30
7.48
0
VERTEX
10
8.35787
20
9.93879
30
7.48
0
VERTEX
10
8.34675
20
9.93879
30
7.48
0
VERTEX
10
8.3245
20
9.94853
30
7.48
0
VERTEX
10
8.28001
20
9.95548
30
7.48
0
VERTEX
10
8.27445
20
9.95826
30
7.48
0
VERTEX
10
8.2522
20
9.96243
30
7.48
0
VERTEX
10
8.20771
20
9.96104
30
7.48
0
VERTEX
10
8.20493
20
9.95826
30
7.48
0
VERTEX
10
8.1938
20
9.95687
30
7.48
0
VERTEX
10
8.18824
20
9.9527
30
7.48
0
VERTEX
10
8.16739
20
9.94714
30
7.48
0
VERTEX
10
8.16182
20
9.94435
30
7.48
0
VERTEX
10
8.15904
20
9.94157
30
7.48
0
VERTEX
10
8.15626
20
9.94157
30
7.48
0
VERTEX
10
8.14514
20
9.93462
30
7.48
0
VERTEX
10
8.13958
20
9.93184
30
7.48
0
VERTEX
10
8.1368
20
9.92906
30
7.48
0
VERTEX
10
8.13123
20
9.92767
30
7.48
0
VERTEX
10
8.12845
20
9.92767
30
7.48
0
VERTEX
10
8.12289
20
9.9235
30
7.48
0
VERTEX
10
8.12011
20
9.91794
30
7.48
0
VERTEX
10
8.09925
20
9.90264
30
7.48
0
VERTEX
10
8.08257
20
9.88179
30
7.48
0
VERTEX
10
8.07979
20
9.88318
30
7.48
0
VERTEX
10
8.07006
20
9.87344
30
7.48
0
VERTEX
10
8.06727
20
9.8512
30
7.48
0
VERTEX
10
8.06449
20
9.84842
30
7.48
0
VERTEX
10
8.06032
20
9.80392
30
7.48
0
VERTEX
10
8.05615
20
9.7928
30
7.48
0
VERTEX
10
8.05476
20
9.78167
30
7.48
0
SEQEND
0
POLYLINE
62
227
66
1
70
1
3
endoplasmic_reticulum
0
VERTEX
10
8.24016
20
10.0413
30
7.48
0
VERTEX
10
8.24553
20
10.0341
30
7.48
0
VERTEX
10
8.25271
20
10.0297
30
7.48
0
VERTEX
10
8.2545
20
10.0279
30
7.48
0
VERTEX
10
8.28319
20
10.0252
30
7.48
0
VERTEX
10
8.28319
20
10.0234
30
7.48
0
VERTEX
10
8.29484
20
10.0135
30
7.48
0
VERTEX
10
8.30202
20
10.0099
30
7.48
0
VERTEX
10
8.30919
20
10.0081
30
7.48
0
VERTEX
10
8.31636
20
10.0081
30
7.48
0
VERTEX
10
8.33071
20
10.0046
30
7.48
0
VERTEX
10
8.33788
20
10.0019
30
7.48
0
VERTEX
10
8.34505
20
9.99739
30
7.48
0
VERTEX
10
8.34774
20
9.9938
30
7.48
0
VERTEX
10
8.34864
20
9.99021
30
7.48
0
VERTEX
10
8.3594
20
9.97677
30
7.48
0
VERTEX
10
8.36029
20
9.97318
30
7.48
0
VERTEX
10
8.36388
20
9.97049
30
7.48
0
VERTEX
10
8.36478
20
9.9669
30
7.48
0
VERTEX
10
8.37553
20
9.95256
30
7.48
0
VERTEX
10
8.38271
20
9.94628
30
7.48
0
VERTEX
10
8.39615
20
9.93732
30
7.48
0
VERTEX
10
8.40333
20
9.93463
30
7.48
0
VERTEX
10
8.43202
20
9.93552
30
7.48
0
VERTEX
10
8.44636
20
9.93821
30
7.48
0
VERTEX
10
8.45353
20
9.93821
30
7.48
0
VERTEX
10
8.45981
20
9.9418
30
7.48
0
VERTEX
10
8.47236
20
9.95345
30
7.48
0
VERTEX
10
8.48402
20
9.9669
30
7.48
0
VERTEX
10
8.48581
20
9.97408
30
7.48
0
VERTEX
10
8.48491
20
9.98125
30
7.48
0
VERTEX
10
8.48491
20
9.98483
30
7.48
0
VERTEX
10
8.48222
20
9.98842
30
7.48
0
VERTEX
10
8.48222
20
9.99201
30
7.48
0
VERTEX
10
8.47505
20
9.99739
30
7.48
0
VERTEX
10
8.47057
20
10.0037
30
7.48
0
VERTEX
10
8.46788
20
10.0064
30
7.48
0
VERTEX
10
8.46071
20
10.0072
30
7.48
0
VERTEX
10
8.44636
20
10.0055
30
7.48
0
VERTEX
10
8.44277
20
10.0055
30
7.48
0
VERTEX
10
8.44098
20
10.0037
30
7.48
0
VERTEX
10
8.4374
20
10.0037
30
7.48
0
VERTEX
10
8.43381
20
10.0019
30
7.48
0
VERTEX
10
8.43112
20
9.98752
30
7.48
0
VERTEX
10
8.43022
20
9.98035
30
7.48
0
VERTEX
10
8.42843
20
9.97677
30
7.48
0
VERTEX
10
8.42126
20
9.97049
30
7.48
0
VERTEX
10
8.40691
20
9.9687
30
7.48
0
VERTEX
10
8.40512
20
9.9678
30
7.48
0
VERTEX
10
8.39795
20
9.97049
30
7.48
0
VERTEX
10
8.39615
20
9.97408
30
7.48
0
VERTEX
10
8.39615
20
9.98842
30
7.48
0
VERTEX
10
8.39795
20
9.99559
30
7.48
0
VERTEX
10
8.39795
20
9.99918
30
7.48
0
VERTEX
10
8.39974
20
10.0028
30
7.48
0
VERTEX
10
8.39974
20
10.0064
30
7.48
0
VERTEX
10
8.40512
20
10.0135
30
7.48
0
VERTEX
10
8.40691
20
10.0144
30
7.48
0
VERTEX
10
8.40691
20
10.0162
30
7.48
0
VERTEX
10
8.41229
20
10.0225
30
7.48
0
VERTEX
10
8.41409
20
10.0261
30
7.48
0
VERTEX
10
8.41319
20
10.0404
30
7.48
0
VERTEX
10
8.41319
20
10.044
30
7.48
0
VERTEX
10
8.40871
20
10.0512
30
7.48
0
VERTEX
10
8.40512
20
10.0512
30
7.48
0
VERTEX
10
8.40153
20
10.053
30
7.48
0
VERTEX
10
8.39974
20
10.0548
30
7.48
0
VERTEX
10
8.39615
20
10.0548
30
7.48
0
VERTEX
10
8.38181
20
10.0601
30
7.48
0
VERTEX
10
8.37464
20
10.0628
30
7.48
0
VERTEX
10
8.36029
20
10.0655
30
7.48
0
VERTEX
10
8.35312
20
10.0664
30
7.48
0
VERTEX
10
8.34595
20
10.0655
30
7.48
0
VERTEX
10
8.33878
20
10.0628
30
7.48
0
VERTEX
10
8.33519
20
10.0601
30
7.48
0
VERTEX
10
8.3334
20
10.0566
30
7.48
0
VERTEX
10
8.3334
20
10.0548
30
7.48
0
VERTEX
10
8.33071
20
10.0521
30
7.48
0
VERTEX
10
8.32353
20
10.0503
30
7.48
0
VERTEX
10
8.31995
20
10.0476
30
7.48
0
VERTEX
10
8.3056
20
10.0503
30
7.48
0
VERTEX
10
8.29843
20
10.053
30
7.48
0
VERTEX
10
8.29574
20
10.0601
30
7.48
0
VERTEX
10
8.29574
20
10.0637
30
7.48
0
VERTEX
10
8.29574
20
10.0655
30
7.48
0
VERTEX
10
8.29753
20
10.0664
30
7.48
0
VERTEX
10
8.29753
20
10.0682
30
7.48
0
VERTEX
10
8.30381
20
10.0754
30
7.48
0
VERTEX
10
8.3056
20
10.0772
30
7.48
0
VERTEX
10
8.31278
20
10.0781
30
7.48
0
VERTEX
10
8.32712
20
10.0835
30
7.48
0
VERTEX
10
8.32981
20
10.0861
30
7.48
0
VERTEX
10
8.32981
20
10.0879
30
7.48
0
VERTEX
10
8.3334
20
10.0915
30
7.48
0
VERTEX
10
8.33519
20
10.1059
30
7.48
0
VERTEX
10
8.33429
20
10.113
30
7.48
0
VERTEX
10
8.3334
20
10.1166
30
7.48
0
VERTEX
10
8.33071
20
10.1202
30
7.48
0
VERTEX
10
8.31636
20
10.1229
30
7.48
0
VERTEX
10
8.30202
20
10.1229
30
7.48
0
VERTEX
10
8.29484
20
10.1247
30
7.48
0
VERTEX
10
8.28767
20
10.1283
30
7.48
0
VERTEX
10
8.27333
20
10.1292
30
7.48
0
VERTEX
10
8.25898
20
10.1274
30
7.48
0
VERTEX
10
8.2554
20
10.1256
30
7.48
0
VERTEX
10
8.25181
20
10.122
30
7.48
0
VERTEX
10
8.24912
20
10.1148
30
7.48
0
VERTEX
10
8.24912
20
10.1005
30
7.48
0
VERTEX
10
8.25091
20
10.0933
30
7.48
0
VERTEX
10
8.25091
20
10.0915
30
7.48
0
VERTEX
10
8.25719
20
10.0897
30
7.48
0
VERTEX
10
8.25809
20
10.0826
30
7.48
0
VERTEX
10
8.25271
20
10.0763
30
7.48
0
VERTEX
10
8.24912
20
10.0736
30
7.48
0
VERTEX
10
8.24822
20
10.07
30
7.48
0
VERTEX
10
8.24374
20
10.0628
30
7.48
0
VERTEX
10
8.24284
20
10.0557
30
7.48
0
VERTEX
10
8.24105
20
10.0521
30
7.48
0
VERTEX
10
8.24105
20
10.0449
30
7.48
0
VERTEX
10
8.24016
20
10.0422
30
7.48
0
SEQEND
0
POLYLINE
62
227
66
1
70
1
3
endoplasmic_reticulum
0
VERTEX
10
7.90843
20
10.0682
30
7.48
0
VERTEX
10
7.91202
20
10.0539
30
7.48
0
VERTEX
10
7.9183
20
10.0395
30
7.48
0
VERTEX
10
7.92457
20
10.0332
30
7.48
0
VERTEX
10
7.93174
20
10.0288
30
7.48
0
VERTEX
10
7.94609
20
10.0297
30
7.48
0
VERTEX
10
7.94967
20
10.0297
30
7.48
0
VERTEX
10
7.95147
20
10.0297
30
7.48
0
VERTEX
10
7.95416
20
10.0332
30
7.48
0
VERTEX
10
7.95774
20
10.0341
30
7.48
0
VERTEX
10
7.96402
20
10.0386
30
7.48
0
VERTEX
10
7.96581
20
10.0422
30
7.48
0
VERTEX
10
7.96581
20
10.0494
30
7.48
0
VERTEX
10
7.9685
20
10.0521
30
7.48
0
VERTEX
10
7.97029
20
10.0664
30
7.48
0
VERTEX
10
7.9694
20
10.0808
30
7.48
0
VERTEX
10
7.96492
20
10.0879
30
7.48
0
VERTEX
10
7.96133
20
10.0879
30
7.48
0
VERTEX
10
7.94698
20
10.0924
30
7.48
0
VERTEX
10
7.93981
20
10.0951
30
7.48
0
VERTEX
10
7.93623
20
10.0969
30
7.48
0
VERTEX
10
7.93264
20
10.096
30
7.48
0
VERTEX
10
7.92636
20
10.0888
30
7.48
0
VERTEX
10
7.92009
20
10.0835
30
7.48
0
VERTEX
10
7.9174
20
10.0799
30
7.48
0
VERTEX
10
7.91381
20
10.0781
30
7.48
0
VERTEX
10
7.90843
20
10.0718
30
7.48
0
VERTEX
10
7.90843
20
10.0691
30
7.48
0
SEQEND
0
POLYLINE
62
31
66
1
70
1
3
contour
0
VERTEX
10
7.30771
20
8.92438
30
7.48
0
VERTEX
10
7.31222
20
8.90634
30
7.48
0
VERTEX
10
7.328
20
8.87026
30
7.48
0
VERTEX
10
7.33476
20
8.86124
30
7.48
0
VERTEX
10
7.33702
20
8.85673
30
7.48
0
VERTEX
10
7.34153
20
8.85673
30
7.48
0
VERTEX
10
7.34604
20
8.85222
30
7.48
0
VERTEX
10
7.36408
20
8.84997
30
7.48
0
VERTEX
10
7.40015
20
8.85673
30
7.48
0
VERTEX
10
7.40917
20
8.8635
30
7.48
0
VERTEX
10
7.40917
20
8.86801
30
7.48
0
VERTEX
10
7.44074
20
8.89506
30
7.48
0
VERTEX
10
7.44525
20
8.90408
30
7.48
0
VERTEX
10
7.46103
20
8.91085
30
7.48
0
VERTEX
10
7.47005
20
8.91536
30
7.48
0
VERTEX
10
7.4723
20
8.91987
30
7.48
0
VERTEX
10
7.49034
20
8.92212
30
7.48
0
VERTEX
10
7.49936
20
8.92438
30
7.48
0
VERTEX
10
7.5174
20
8.93565
30
7.48
0
VERTEX
10
7.53093
20
8.94692
30
7.48
0
VERTEX
10
7.5422
20
8.95369
30
7.48
0
VERTEX
10
7.54671
20
8.98976
30
7.48
0
VERTEX
10
7.54897
20
9.0078
30
7.48
0
VERTEX
10
7.55122
20
9.01457
30
7.48
0
VERTEX
10
7.56024
20
9.01457
30
7.48
0
VERTEX
10
7.567
20
9.02133
30
7.48
0
VERTEX
10
7.567
20
9.02584
30
7.48
0
VERTEX
10
7.57151
20
9.03035
30
7.48
0
VERTEX
10
7.57377
20
9.06643
30
7.48
0
VERTEX
10
7.55799
20
9.0777
30
7.48
0
VERTEX
10
7.55348
20
9.08221
30
7.48
0
VERTEX
10
7.53544
20
9.08221
30
7.48
0
VERTEX
10
7.5174
20
9.07544
30
7.48
0
VERTEX
10
7.50162
20
9.06417
30
7.48
0
VERTEX
10
7.46554
20
9.0529
30
7.48
0
VERTEX
10
7.44976
20
9.03937
30
7.48
0
VERTEX
10
7.44074
20
9.03035
30
7.48
0
VERTEX
10
7.43623
20
9.02584
30
7.48
0
VERTEX
10
7.40241
20
9.01457
30
7.48
0
VERTEX
10
7.38437
20
9.0078
30
7.48
0
VERTEX
10
7.37535
20
9.00104
30
7.48
0
VERTEX
10
7.35731
20
8.99653
30
7.48
0
VERTEX
10
7.33927
20
8.98525
30
7.48
0
VERTEX
10
7.33025
20
8.97623
30
7.48
0
VERTEX
10
7.32574
20
8.97623
30
7.48
0
VERTEX
10
7.31672
20
8.96947
30
7.48
0
VERTEX
10
7.31222
20
8.96045
30
7.48
0
VERTEX
10
7.30771
20
8.95594
30
7.48
0
VERTEX
10
7.30771
20
8.9379
30
7.48
0
VERTEX
10
7.30771
20
8.92888
30
7.48
0
VERTEX
10
7.30771
20
8.92663
30
7.48
0
SEQEND
0
POLYLINE
62
31
66
1
70
1
3
contour
0
VERTEX
10
7.78498
20
9.18255
30
7.48
0
VERTEX
10
7.7909
20
9.17072
30
7.48
0
VERTEX
10
7.79386
20
9.15889
30
7.48
0
VERTEX
10
7.79977
20
9.15741
30
7.48
0
VERTEX
10
7.8116
20
9.16185
30
7.48
0
VERTEX
10
7.81604
20
9.16628
30
7.48
0
VERTEX
10
7.82195
20
9.16776
30
7.48
0
VERTEX
10
7.82343
20
9.17072
30
7.48
0
VERTEX
10
7.82639
20
9.17072
30
7.48
0
VERTEX
10
7.82935
20
9.17664
30
7.48
0
VERTEX
10
7.8397
20
9.18699
30
7.48
0
VERTEX
10
7.84414
20
9.1929
30
7.48
0
VERTEX
10
7.8471
20
9.19438
30
7.48
0
VERTEX
10
7.84858
20
9.2003
30
7.48
0
VERTEX
10
7.85301
20
9.20474
30
7.48
0
VERTEX
10
7.85301
20
9.20769
30
7.48
0
VERTEX
10
7.86484
20
9.21952
30
7.48
0
VERTEX
10
7.87076
20
9.23136
30
7.48
0
VERTEX
10
7.87372
20
9.23727
30
7.48
0
VERTEX
10
7.87372
20
9.24023
30
7.48
0
VERTEX
10
7.87667
20
9.24319
30
7.48
0
VERTEX
10
7.88703
20
9.26537
30
7.48
0
VERTEX
10
7.88998
20
9.27129
30
7.48
0
VERTEX
10
7.89294
20
9.27277
30
7.48
0
VERTEX
10
7.89294
20
9.27572
30
7.48
0
VERTEX
10
7.89738
20
9.28016
30
7.48
0
VERTEX
10
7.90329
20
9.28164
30
7.48
0
VERTEX
10
7.924
20
9.29939
30
7.48
0
VERTEX
10
7.93583
20
9.30086
30
7.48
0
VERTEX
10
7.94175
20
9.30234
30
7.48
0
VERTEX
10
7.9447
20
9.3053
30
7.48
0
VERTEX
10
7.95654
20
9.3053
30
7.48
0
VERTEX
10
7.96245
20
9.3053
30
7.48
0
VERTEX
10
7.96837
20
9.30974
30
7.48
0
VERTEX
10
7.97576
20
9.32157
30
7.48
0
VERTEX
10
7.97724
20
9.32748
30
7.48
0
VERTEX
10
7.97724
20
9.33044
30
7.48
0
VERTEX
10
7.98168
20
9.33636
30
7.48
0
VERTEX
10
7.98316
20
9.34819
30
7.48
0
VERTEX
10
7.99794
20
9.37185
30
7.48
0
VERTEX
10
8.00534
20
9.3822
30
7.48
0
VERTEX
10
8.00534
20
9.38516
30
7.48
0
VERTEX
10
8.01717
20
9.39699
30
7.48
0
VERTEX
10
8.02604
20
9.40587
30
7.48
0
VERTEX
10
8.029
20
9.40587
30
7.48
0
VERTEX
10
8.03492
20
9.4103
30
7.48
0
VERTEX
10
8.05858
20
9.4177
30
7.48
0
VERTEX
10
8.06302
20
9.42066
30
7.48
0
VERTEX
10
8.07485
20
9.42066
30
7.48
0
VERTEX
10
8.08668
20
9.42361
30
7.48
0
VERTEX
10
8.0926
20
9.42509
30
7.48
0
VERTEX
10
8.09555
20
9.42509
30
7.48
0
VERTEX
10
8.09703
20
9.42805
30
7.48
0
VERTEX
10
8.10295
20
9.42953
30
7.48
0
VERTEX
10
8.1133
20
9.43692
30
7.48
0
VERTEX
10
8.12513
20
9.44136
30
7.48
0
VERTEX
10
8.13696
20
9.44876
30
7.48
0
VERTEX
10
8.14879
20
9.46059
30
7.48
0
VERTEX
10
8.15471
20
9.46207
30
7.48
0
VERTEX
10
8.17837
20
9.47538
30
7.48
0
VERTEX
10
8.1902
20
9.47833
30
7.48
0
VERTEX
10
8.19316
20
9.47833
30
7.48
0
VERTEX
10
8.19908
20
9.48277
30
7.48
0
VERTEX
10
8.21091
20
9.48573
30
7.48
0
VERTEX
10
8.21682
20
9.48721
30
7.48
0
VERTEX
10
8.21978
20
9.49017
30
7.48
0
VERTEX
10
8.23161
20
9.49164
30
7.48
0
VERTEX
10
8.23457
20
9.4946
30
7.48
0
VERTEX
10
8.25823
20
9.50348
30
7.48
0
VERTEX
10
8.26415
20
9.50495
30
7.48
0
VERTEX
10
8.26859
20
9.51087
30
7.48
0
VERTEX
10
8.29077
20
9.52122
30
7.48
0
VERTEX
10
8.3026
20
9.52862
30
7.48
0
VERTEX
10
8.30556
20
9.53157
30
7.48
0
VERTEX
10
8.31739
20
9.53453
30
7.48
0
VERTEX
10
8.32035
20
9.53749
30
7.48
0
VERTEX
10
8.33218
20
9.54045
30
7.48
0
VERTEX
10
8.35584
20
9.5508
30
7.48
0
VERTEX
10
8.36767
20
9.55524
30
7.48
0
VERTEX
10
8.37359
20
9.55524
30
7.48
0
VERTEX
10
8.37802
20
9.55967
30
7.48
0
VERTEX
10
8.3795
20
9.56263
30
7.48
0
VERTEX
10
8.39134
20
9.56411
30
7.48
0
VERTEX
10
8.40317
20
9.57003
30
7.48
0
VERTEX
10
8.45049
20
9.58038
30
7.48
0
VERTEX
10
8.46232
20
9.58186
30
7.48
0
VERTEX
10
8.46824
20
9.58334
30
7.48
0
VERTEX
10
8.4712
20
9.58629
30
7.48
0
VERTEX
10
8.47711
20
9.58629
30
7.48
0
VERTEX
10
8.50077
20
9.59517
30
7.48
0
VERTEX
10
8.50521
20
9.60108
30
7.48
0
VERTEX
10
8.51113
20
9.60404
30
7.48
0
VERTEX
10
8.51408
20
9.607
30
7.48
0
VERTEX
10
8.52592
20
9.61144
30
7.48
0
VERTEX
10
8.53183
20
9.61291
30
7.48
0
VERTEX
10
8.53775
20
9.61735
30
7.48
0
VERTEX
10
8.54366
20
9.61883
30
7.48
0
VERTEX
10
8.54662
20
9.61883
30
7.48
0
VERTEX
10
8.55845
20
9.62622
30
7.48
0
VERTEX
10
8.56141
20
9.62622
30
7.48
0
VERTEX
10
8.57176
20
9.63658
30
7.48
0
VERTEX
10
8.57472
20
9.63658
30
7.48
0
VERTEX
10
8.57916
20
9.64249
30
7.48
0
VERTEX
10
8.58951
20
9.64841
30
7.48
0
VERTEX
10
8.59838
20
9.65876
30
7.48
0
VERTEX
10
8.61169
20
9.68242
30
7.48
0
VERTEX
10
8.62204
20
9.69278
30
7.48
0
VERTEX
10
8.62944
20
9.70461
30
7.48
0
VERTEX
10
8.6324
20
9.70461
30
7.48
0
VERTEX
10
8.63683
20
9.71052
30
7.48
0
VERTEX
10
8.64275
20
9.71348
30
7.48
0
VERTEX
10
8.66198
20
9.73714
30
7.48
0
VERTEX
10
8.67972
20
9.75785
30
7.48
0
VERTEX
10
8.68564
20
9.76081
30
7.48
0
VERTEX
10
8.69155
20
9.76672
30
7.48
0
VERTEX
10
8.69451
20
9.76968
30
7.48
0
VERTEX
10
8.70043
20
9.77116
30
7.48
0
VERTEX
10
8.71226
20
9.78003
30
7.48
0
VERTEX
10
8.71817
20
9.78447
30
7.48
0
VERTEX
10
8.72113
20
9.79038
30
7.48
0
VERTEX
10
8.73296
20
9.79778
30
7.48
0
VERTEX
10
8.74479
20
9.79926
30
7.48
0
VERTEX
10
8.75515
20
9.80665
30
7.48
0
VERTEX
10
8.75515
20
9.81848
30
7.48
0
VERTEX
10
8.75367
20
9.8244
30
7.48
0
VERTEX
10
8.74923
20
9.82884
30
7.48
0
VERTEX
10
8.74775
20
9.83475
30
7.48
0
VERTEX
10
8.74479
20
9.83623
30
7.48
0
VERTEX
10
8.74479
20
9.84215
30
7.48
0
VERTEX
10
8.73592
20
9.85102
30
7.48
0
VERTEX
10
8.72409
20
9.85989
30
7.48
0
VERTEX
10
8.71817
20
9.86433
30
7.48
0
VERTEX
10
8.71226
20
9.86581
30
7.48
0
VERTEX
10
8.70486
20
9.8732
30
7.48
0
VERTEX
10
8.70486
20
9.87616
30
7.48
0
VERTEX
10
8.68564
20
9.89834
30
7.48
0
VERTEX
10
8.67529
20
9.9087
30
7.48
0
VERTEX
10
8.66345
20
9.91609
30
7.48
0
VERTEX
10
8.65162
20
9.92053
30
7.48
0
VERTEX
10
8.64571
20
9.92201
30
7.48
0
VERTEX
10
8.62352
20
9.93827
30
7.48
0
VERTEX
10
8.62352
20
9.94123
30
7.48
0
VERTEX
10
8.61909
20
9.94715
30
7.48
0
VERTEX
10
8.61021
20
9.95454
30
7.48
0
VERTEX
10
8.6043
20
9.95898
30
7.48
0
VERTEX
10
8.60134
20
9.9649
30
7.48
0
VERTEX
10
8.57916
20
9.9856
30
7.48
0
VERTEX
10
8.57324
20
9.98856
30
7.48
0
VERTEX
10
8.57176
20
9.99152
30
7.48
0
VERTEX
10
8.5688
20
9.99152
30
7.48
0
VERTEX
10
8.56585
20
9.99447
30
7.48
0
VERTEX
10
8.56289
20
9.99447
30
7.48
0
VERTEX
10
8.53923
20
10.0137
30
7.48
0
VERTEX
10
8.52739
20
10.0241
30
7.48
0
VERTEX
10
8.50373
20
10.0344
30
7.48
0
VERTEX
10
8.49782
20
10.0374
30
7.48
0
VERTEX
10
8.49042
20
10.0448
30
7.48
0
VERTEX
10
8.48746
20
10.0477
30
7.48
0
VERTEX
10
8.48451
20
10.0477
30
7.48
0
VERTEX
10
8.48155
20
10.0507
30
7.48
0
VERTEX
10
8.47859
20
10.0507
30
7.48
0
VERTEX
10
8.46676
20
10.0595
30
7.48
0
VERTEX
10
8.46084
20
10.0625
30
7.48
0
VERTEX
10
8.44162
20
10.0817
30
7.48
0
VERTEX
10
8.43127
20
10.0936
30
7.48
0
VERTEX
10
8.42535
20
10.098
30
7.48
0
VERTEX
10
8.42239
20
10.0995
30
7.48
0
VERTEX
10
8.42091
20
10.1054
30
7.48
0
VERTEX
10
8.40169
20
10.1261
30
7.48
0
VERTEX
10
8.39134
20
10.1364
30
7.48
0
VERTEX
10
8.37655
20
10.1601
30
7.48
0
VERTEX
10
8.36915
20
10.169
30
7.48
0
VERTEX
10
8.34845
20
10.1882
30
7.48
0
VERTEX
10
8.34549
20
10.1941
30
7.48
0
VERTEX
10
8.34253
20
10.1971
30
7.48
0
VERTEX
10
8.34105
20
10.203
30
7.48
0
VERTEX
10
8.33218
20
10.2134
30
7.48
0
VERTEX
10
8.32183
20
10.2207
30
7.48
0
VERTEX
10
8.31887
20
10.2207
30
7.48
0
VERTEX
10
8.31591
20
10.2237
30
7.48
0
VERTEX
10
8.29225
20
10.2281
30
7.48
0
VERTEX
10
8.28633
20
10.2311
30
7.48
0
VERTEX
10
8.28337
20
10.2311
30
7.48
0
VERTEX
10
8.27154
20
10.2385
30
7.48
0
VERTEX
10
8.26563
20
10.2429
30
7.48
0
VERTEX
10
8.2538
20
10.2444
30
7.48
0
VERTEX
10
8.23457
20
10.2592
30
7.48
0
VERTEX
10
8.23013
20
10.2636
30
7.48
0
VERTEX
10
8.2183
20
10.2651
30
7.48
0
VERTEX
10
8.21239
20
10.2696
30
7.48
0
VERTEX
10
8.21091
20
10.2725
30
7.48
0
VERTEX
10
8.20499
20
10.274
30
7.48
0
VERTEX
10
8.19316
20
10.2814
30
7.48
0
VERTEX
10
8.18281
20
10.2917
30
7.48
0
VERTEX
10
8.17837
20
10.2976
30
7.48
0
VERTEX
10
8.17246
20
10.3006
30
7.48
0
VERTEX
10
8.1695
20
10.3065
30
7.48
0
VERTEX
10
8.14584
20
10.3213
30
7.48
0
VERTEX
10
8.13992
20
10.3228
30
7.48
0
VERTEX
10
8.12809
20
10.3302
30
7.48
0
VERTEX
10
8.11626
20
10.3346
30
7.48
0
VERTEX
10
8.10443
20
10.3361
30
7.48
0
VERTEX
10
8.10147
20
10.3391
30
7.48
0
VERTEX
10
8.08964
20
10.3405
30
7.48
0
VERTEX
10
8.08372
20
10.3405
30
7.48
0
VERTEX
10
8.07781
20
10.345
30
7.48
0
VERTEX
10
8.07485
20
10.345
30
7.48
0
VERTEX
10
8.06302
20
10.3524
30
7.48
0
VERTEX
10
8.0571
20
10.3538
30
7.48
0
VERTEX
10
8.05562
20
10.3553
30
7.48
0
VERTEX
10
8.05414
20
10.3494
30
7.48
0
VERTEX
10
8.03196
20
10.3331
30
7.48
0
VERTEX
10
8.029
20
10.3331
30
7.48
0
VERTEX
10
8.01865
20
10.3228
30
7.48
0
VERTEX
10
8.01421
20
10.3184
30
7.48
0
VERTEX
10
8.00386
20
10.3139
30
7.48
0
VERTEX
10
7.98168
20
10.2991
30
7.48
0
VERTEX
10
7.97872
20
10.2962
30
7.48
0
VERTEX
10
7.96689
20
10.2917
30
7.48
0
VERTEX
10
7.95506
20
10.2829
30
7.48
0
VERTEX
10
7.94323
20
10.2769
30
7.48
0
VERTEX
10
7.94175
20
10.274
30
7.48
0
VERTEX
10
7.93879
20
10.274
30
7.48
0
VERTEX
10
7.93435
20
10.2681
30
7.48
0
VERTEX
10
7.93287
20
10.2622
30
7.48
0
VERTEX
10
7.92696
20
10.2577
30
7.48
0
VERTEX
10
7.924
20
10.2533
30
7.48
0
VERTEX
10
7.924
20
10.2503
30
7.48
0
VERTEX
10
7.91808
20
10.2474
30
7.48
0
VERTEX
10
7.91217
20
10.2355
30
7.48
0
VERTEX
10
7.90921
20
10.2237
30
7.48
0
VERTEX
10
7.90773
20
10.1764
30
7.48
0
VERTEX
10
7.90329
20
10.1291
30
7.48
0
VERTEX
10
7.90034
20
10.1172
30
7.48
0
VERTEX
10
7.90034
20
10.1054
30
7.48
0
VERTEX
10
7.89738
20
10.1024
30
7.48
0
VERTEX
10
7.8959
20
10.0906
30
7.48
0
VERTEX
10
7.8959
20
10.0876
30
7.48
0
VERTEX
10
7.88407
20
10.0876
30
7.48
0
VERTEX
10
7.86189
20
10.0714
30
7.48
0
VERTEX
10
7.85597
20
10.0699
30
7.48
0
VERTEX
10
7.8471
20
10.061
30
7.48
0
VERTEX
10
7.82935
20
10.0388
30
7.48
0
VERTEX
10
7.819
20
10.0285
30
7.48
0
VERTEX
10
7.81752
20
10.0226
30
7.48
0
VERTEX
10
7.81456
20
10.0211
30
7.48
0
VERTEX
10
7.81456
20
10.0181
30
7.48
0
VERTEX
10
7.80864
20
10.0122
30
7.48
0
VERTEX
10
7.79977
20
10.0048
30
7.48
0
VERTEX
10
7.79533
20
9.99891
30
7.48
0
VERTEX
10
7.79238
20
9.99595
30
7.48
0
VERTEX
10
7.79238
20
9.99299
30
7.48
0
VERTEX
10
7.78794
20
9.98856
30
7.48
0
VERTEX
10
7.78942
20
9.94123
30
7.48
0
VERTEX
10
7.78942
20
9.93532
30
7.48
0
VERTEX
10
7.79386
20
9.9294
30
7.48
0
VERTEX
10
7.79386
20
9.91757
30
7.48
0
VERTEX
10
7.79977
20
9.90574
30
7.48
0
VERTEX
10
7.80273
20
9.90278
30
7.48
0
VERTEX
10
7.80273
20
9.89982
30
7.48
0
VERTEX
10
7.80717
20
9.89391
30
7.48
0
VERTEX
10
7.81012
20
9.89095
30
7.48
0
VERTEX
10
7.81012
20
9.88799
30
7.48
0
VERTEX
10
7.81308
20
9.88503
30
7.48
0
VERTEX
10
7.81456
20
9.87912
30
7.48
0
VERTEX
10
7.82048
20
9.8732
30
7.48
0
VERTEX
10
7.82491
20
9.86137
30
7.48
0
VERTEX
10
7.82639
20
9.85546
30
7.48
0
VERTEX
10
7.83083
20
9.84954
30
7.48
0
VERTEX
10
7.83526
20
9.83771
30
7.48
0
VERTEX
10
7.83674
20
9.83179
30
7.48
0
VERTEX
10
7.8397
20
9.82884
30
7.48
0
VERTEX
10
7.84266
20
9.817
30
7.48
0
VERTEX
10
7.85005
20
9.80517
30
7.48
0
VERTEX
10
7.85153
20
9.79926
30
7.48
0
VERTEX
10
7.85597
20
9.7963
30
7.48
0
VERTEX
10
7.87667
20
9.77707
30
7.48
0
VERTEX
10
7.88555
20
9.76672
30
7.48
0
VERTEX
10
7.88998
20
9.75489
30
7.48
0
VERTEX
10
7.89294
20
9.75193
30
7.48
0
VERTEX
10
7.8959
20
9.7401
30
7.48
0
VERTEX
10
7.90477
20
9.72975
30
7.48
0
VERTEX
10
7.90773
20
9.72383
30
7.48
0
VERTEX
10
7.90773
20
9.72088
30
7.48
0
VERTEX
10
7.91217
20
9.71644
30
7.48
0
VERTEX
10
7.91365
20
9.71052
30
7.48
0
VERTEX
10
7.9166
20
9.70756
30
7.48
0
VERTEX
10
7.91808
20
9.69573
30
7.48
0
VERTEX
10
7.91956
20
9.68982
30
7.48
0
VERTEX
10
7.91956
20
9.68686
30
7.48
0
VERTEX
10
7.92252
20
9.6839
30
7.48
0
VERTEX
10
7.92696
20
9.66024
30
7.48
0
VERTEX
10
7.92696
20
9.61291
30
7.48
0
VERTEX
10
7.92696
20
9.60108
30
7.48
0
VERTEX
10
7.92696
20
9.59517
30
7.48
0
VERTEX
10
7.92252
20
9.58925
30
7.48
0
VERTEX
10
7.91808
20
9.57742
30
7.48
0
VERTEX
10
7.91513
20
9.57151
30
7.48
0
VERTEX
10
7.91513
20
9.56855
30
7.48
0
VERTEX
10
7.90625
20
9.55672
30
7.48
0
VERTEX
10
7.90625
20
9.55376
30
7.48
0
VERTEX
10
7.90034
20
9.5508
30
7.48
0
VERTEX
10
7.89738
20
9.54488
30
7.48
0
VERTEX
10
7.89146
20
9.53897
30
7.48
0
VERTEX
10
7.89146
20
9.53305
30
7.48
0
VERTEX
10
7.89146
20
9.5301
30
7.48
0
VERTEX
10
7.88703
20
9.52418
30
7.48
0
VERTEX
10
7.88407
20
9.51235
30
7.48
0
VERTEX
10
7.88407
20
9.50052
30
7.48
0
VERTEX
10
7.88703
20
9.48869
30
7.48
0
VERTEX
10
7.88998
20
9.48573
30
7.48
0
VERTEX
10
7.88998
20
9.48277
30
7.48
0
VERTEX
10
7.89294
20
9.48129
30
7.48
0
VERTEX
10
7.89294
20
9.47538
30
7.48
0
VERTEX
10
7.8959
20
9.46946
30
7.48
0
VERTEX
10
7.89442
20
9.42214
30
7.48
0
VERTEX
10
7.89442
20
9.4103
30
7.48
0
VERTEX
10
7.89442
20
9.40439
30
7.48
0
VERTEX
10
7.88998
20
9.39847
30
7.48
0
VERTEX
10
7.88555
20
9.38664
30
7.48
0
VERTEX
10
7.87224
20
9.36298
30
7.48
0
VERTEX
10
7.86189
20
9.33932
30
7.48
0
VERTEX
10
7.85893
20
9.3334
30
7.48
0
VERTEX
10
7.85597
20
9.33044
30
7.48
0
VERTEX
10
7.85597
20
9.32748
30
7.48
0
VERTEX
10
7.84858
20
9.31565
30
7.48
0
VERTEX
10
7.84562
20
9.30974
30
7.48
0
VERTEX
10
7.8397
20
9.30382
30
7.48
0
VERTEX
10
7.83822
20
9.30086
30
7.48
0
VERTEX
10
7.83526
20
9.30086
30
7.48
0
VERTEX
10
7.81604
20
9.2846
30
7.48
0
VERTEX
10
7.81456
20
9.27868
30
7.48
0
VERTEX
10
7.79829
20
9.25502
30
7.48
0
VERTEX
10
7.79238
20
9.24319
30
7.48
0
VERTEX
10
7.7909
20
9.23727
30
7.48
0
VERTEX
10
7.78646
20
9.23136
30
7.48
0
VERTEX
10
7.78794
20
9.21952
30
7.48
0
VERTEX
10
7.78646
20
9.19586
30
7.48
0
VERTEX
10
7.78498
20
9.18403
30
7.48
0
SEQEND
0
POLYLINE
62
31
66
1
70
1
3
contour
0
VERTEX
10
7.5661
20
10.2429
30
7.48
0
VERTEX
10
7.57054
20
10.2311
30
7.48
0
VERTEX
10
7.57054
20
10.2281
30
7.48
0
VERTEX
10
7.5735
20
10.2267
30
7.48
0
VERTEX
10
7.5735
20
10.2237
30
7.48
0
VERTEX
10
7.58533
20
10.2207
30
7.48
0
VERTEX
10
7.60899
20
10.2207
30
7.48
0
VERTEX
10
7.61491
20
10.2222
30
7.48
0
VERTEX
10
7.6223
20
10.2341
30
7.48
0
VERTEX
10
7.62674
20
10.2459
30
7.48
0
VERTEX
10
7.61787
20
10.2577
30
7.48
0
VERTEX
10
7.61491
20
10.2636
30
7.48
0
VERTEX
10
7.60899
20
10.2696
30
7.48
0
VERTEX
10
7.58533
20
10.271
30
7.48
0
VERTEX
10
7.5735
20
10.2622
30
7.48
0
VERTEX
10
7.56758
20
10.2503
30
7.48
0
VERTEX
10
7.5661
20
10.2444
30
7.48
0
SEQEND
0
ENDSEC
0
EOF
