0
SECTION
2
ENTITIES
0
POLYLINE
62
31
66
1
70
1
3
contour
0
VERTEX
10
9.77927
20
7.82081
30
3.04
0
VERTEX
10
9.79882
20
7.76867
30
3.04
0
VERTEX
10
9.82489
20
7.74912
30
3.04
0
VERTEX
10
9.83793
20
7.74586
30
3.04
0
VERTEX
10
9.86399
20
7.72957
30
3.04
0
VERTEX
10
9.9031
20
7.6872
30
3.04
0
VERTEX
10
9.91613
20
7.68069
30
3.04
0
VERTEX
10
9.95198
20
7.63506
30
3.04
0
VERTEX
10
9.96175
20
7.61225
30
3.04
0
VERTEX
10
9.96175
20
7.60574
30
3.04
0
VERTEX
10
9.97805
20
7.58293
30
3.04
0
VERTEX
10
9.97805
20
7.57641
30
3.04
0
VERTEX
10
9.98457
20
7.56989
30
3.04
0
VERTEX
10
9.99434
20
7.54382
30
3.04
0
VERTEX
10
9.9976
20
7.53079
30
3.04
0
VERTEX
10
10.0106
20
7.52101
30
3.04
0
VERTEX
10
10.0628
20
7.51775
30
3.04
0
VERTEX
10
10.0888
20
7.51123
30
3.04
0
VERTEX
10
10.141
20
7.51123
30
3.04
0
VERTEX
10
10.1671
20
7.51123
30
3.04
0
VERTEX
10
10.2192
20
7.52753
30
3.04
0
VERTEX
10
10.3235
20
7.52753
30
3.04
0
VERTEX
10
10.3495
20
7.52753
30
3.04
0
VERTEX
10
10.3626
20
7.52753
30
3.04
0
VERTEX
10
10.3691
20
7.52753
30
3.04
0
VERTEX
10
10.3756
20
7.52101
30
3.04
0
VERTEX
10
10.4277
20
7.51449
30
3.04
0
VERTEX
10
10.4408
20
7.51123
30
3.04
0
VERTEX
10
10.4473
20
7.51123
30
3.04
0
VERTEX
10
10.4603
20
7.5373
30
3.04
0
VERTEX
10
10.4668
20
7.56337
30
3.04
0
VERTEX
10
10.4734
20
7.57641
30
3.04
0
VERTEX
10
10.4864
20
7.68069
30
3.04
0
VERTEX
10
10.4929
20
7.70675
30
3.04
0
VERTEX
10
10.4929
20
7.71979
30
3.04
0
VERTEX
10
10.5027
20
7.7426
30
3.04
0
VERTEX
10
10.5255
20
7.76867
30
3.04
0
VERTEX
10
10.5516
20
7.78822
30
3.04
0
VERTEX
10
10.5646
20
7.79148
30
3.04
0
VERTEX
10
10.5776
20
7.80126
30
3.04
0
VERTEX
10
10.5842
20
7.81429
30
3.04
0
VERTEX
10
10.5842
20
7.84036
30
3.04
0
VERTEX
10
10.5646
20
7.88924
30
3.04
0
VERTEX
10
10.5581
20
7.90228
30
3.04
0
VERTEX
10
10.5516
20
7.90879
30
3.04
0
VERTEX
10
10.5483
20
7.92183
30
3.04
0
VERTEX
10
10.5483
20
7.92834
30
3.04
0
VERTEX
10
10.5353
20
7.93812
30
3.04
0
VERTEX
10
10.5222
20
7.96093
30
3.04
0
VERTEX
10
10.5222
20
7.96745
30
3.04
0
VERTEX
10
10.506
20
7.99352
30
3.04
0
VERTEX
10
10.5027
20
8.01959
30
3.04
0
VERTEX
10
10.4864
20
8.04566
30
3.04
0
VERTEX
10
10.4636
20
8.06521
30
3.04
0
VERTEX
10
10.4603
20
8.07824
30
3.04
0
VERTEX
10
10.4473
20
8.08476
30
3.04
0
VERTEX
10
10.4343
20
8.0978
30
3.04
0
VERTEX
10
10.4277
20
8.10431
30
3.04
0
VERTEX
10
10.4147
20
8.10757
30
3.04
0
VERTEX
10
10.3919
20
8.13038
30
3.04
0
VERTEX
10
10.3789
20
8.13364
30
3.04
0
VERTEX
10
10.3332
20
8.17926
30
3.04
0
VERTEX
10
10.3202
20
8.176
30
3.04
0
VERTEX
10
10.3169
20
8.17274
30
3.04
0
VERTEX
10
10.2648
20
8.18252
30
3.04
0
VERTEX
10
10.1605
20
8.18578
30
3.04
0
VERTEX
10
10.1084
20
8.18252
30
3.04
0
VERTEX
10
10.0823
20
8.18252
30
3.04
0
VERTEX
10
10.0791
20
8.176
30
3.04
0
VERTEX
10
10.0269
20
8.17274
30
3.04
0
VERTEX
10
10.0009
20
8.16623
30
3.04
0
VERTEX
10
9.97479
20
8.14993
30
3.04
0
VERTEX
10
9.95198
20
8.12712
30
3.04
0
VERTEX
10
9.91939
20
8.0815
30
3.04
0
VERTEX
10
9.89658
20
8.03262
30
3.04
0
VERTEX
10
9.88355
20
8.02285
30
3.04
0
VERTEX
10
9.87703
20
8.01307
30
3.04
0
VERTEX
10
9.86399
20
8.00981
30
3.04
0
VERTEX
10
9.8477
20
7.98374
30
3.04
0
VERTEX
10
9.83467
20
7.97397
30
3.04
0
VERTEX
10
9.82815
20
7.96093
30
3.04
0
VERTEX
10
9.82815
20
7.95441
30
3.04
0
VERTEX
10
9.81186
20
7.9316
30
3.04
0
VERTEX
10
9.80208
20
7.91857
30
3.04
0
VERTEX
10
9.79556
20
7.91531
30
3.04
0
VERTEX
10
9.77927
20
7.86317
30
3.04
0
VERTEX
10
9.77927
20
7.8371
30
3.04
0
VERTEX
10
9.77927
20
7.82407
30
3.04
0
SEQEND
0
POLYLINE
62
224
66
1
70
1
3
mitochondrion
0
VERTEX
10
10.2049
20
7.77233
30
3.04
0
VERTEX
10
10.2231
20
7.75158
30
3.04
0
VERTEX
10
10.2334
20
7.75158
30
3.04
0
VERTEX
10
10.2438
20
7.7412
30
3.04
0
VERTEX
10
10.2853
20
7.72564
30
3.04
0
VERTEX
10
10.306
20
7.71527
30
3.04
0
VERTEX
10
10.3112
20
7.71008
30
3.04
0
VERTEX
10
10.3527
20
7.71527
30
3.04
0
VERTEX
10
10.3553
20
7.72046
30
3.04
0
VERTEX
10
10.3657
20
7.72305
30
3.04
0
VERTEX
10
10.3838
20
7.73861
30
3.04
0
VERTEX
10
10.402
20
7.77492
30
3.04
0
VERTEX
10
10.4072
20
7.79567
30
3.04
0
VERTEX
10
10.3994
20
7.83716
30
3.04
0
VERTEX
10
10.3968
20
7.84753
30
3.04
0
VERTEX
10
10.3968
20
7.85272
30
3.04
0
VERTEX
10
10.3864
20
7.8605
30
3.04
0
VERTEX
10
10.3864
20
7.87087
30
3.04
0
VERTEX
10
10.3787
20
7.89162
30
3.04
0
VERTEX
10
10.3657
20
7.90718
30
3.04
0
VERTEX
10
10.3475
20
7.91755
30
3.04
0
VERTEX
10
10.3372
20
7.92533
30
3.04
0
VERTEX
10
10.3164
20
7.93052
30
3.04
0
VERTEX
10
10.2749
20
7.93052
30
3.04
0
VERTEX
10
10.2697
20
7.93052
30
3.04
0
VERTEX
10
10.2646
20
7.92533
30
3.04
0
VERTEX
10
10.2231
20
7.91755
30
3.04
0
VERTEX
10
10.2127
20
7.91496
30
3.04
0
VERTEX
10
10.2127
20
7.90459
30
3.04
0
VERTEX
10
10.2049
20
7.88384
30
3.04
0
VERTEX
10
10.2049
20
7.80085
30
3.04
0
VERTEX
10
10.2049
20
7.78011
30
3.04
0
VERTEX
10
10.2049
20
7.77492
30
3.04
0
SEQEND
0
POLYLINE
62
227
66
1
70
1
3
endoplasmic_reticulum
0
VERTEX
10
10.1523
20
7.95947
30
3.04
0
VERTEX
10
10.1542
20
7.95201
30
3.04
0
VERTEX
10
10.1598
20
7.94454
30
3.04
0
VERTEX
10
10.1616
20
7.93708
30
3.04
0
VERTEX
10
10.171
20
7.92775
30
3.04
0
VERTEX
10
10.1859
20
7.92775
30
3.04
0
VERTEX
10
10.2157
20
7.94454
30
3.04
0
VERTEX
10
10.2288
20
7.95387
30
3.04
0
VERTEX
10
10.2344
20
7.96134
30
3.04
0
VERTEX
10
10.2381
20
7.97627
30
3.04
0
VERTEX
10
10.2419
20
7.98
30
3.04
0
VERTEX
10
10.2437
20
7.98746
30
3.04
0
VERTEX
10
10.2568
20
7.99306
30
3.04
0
VERTEX
10
10.2717
20
7.99493
30
3.04
0
VERTEX
10
10.2792
20
7.99493
30
3.04
0
VERTEX
10
10.2829
20
7.99866
30
3.04
0
VERTEX
10
10.2979
20
8.00053
30
3.04
0
VERTEX
10
10.3128
20
8.00613
30
3.04
0
VERTEX
10
10.3203
20
8.00986
30
3.04
0
VERTEX
10
10.3333
20
8.02292
30
3.04
0
VERTEX
10
10.3408
20
8.02666
30
3.04
0
VERTEX
10
10.3464
20
8.03412
30
3.04
0
VERTEX
10
10.3464
20
8.04905
30
3.04
0
VERTEX
10
10.3464
20
8.05651
30
3.04
0
VERTEX
10
10.3408
20
8.06398
30
3.04
0
VERTEX
10
10.3389
20
8.07144
30
3.04
0
VERTEX
10
10.3296
20
8.08078
30
3.04
0
VERTEX
10
10.3147
20
8.08451
30
3.04
0
VERTEX
10
10.2997
20
8.08451
30
3.04
0
VERTEX
10
10.2699
20
8.07891
30
3.04
0
VERTEX
10
10.24
20
8.06398
30
3.04
0
VERTEX
10
10.2269
20
8.04905
30
3.04
0
VERTEX
10
10.2139
20
8.03785
30
3.04
0
VERTEX
10
10.2045
20
8.02292
30
3.04
0
VERTEX
10
10.1989
20
8.01732
30
3.04
0
VERTEX
10
10.1915
20
8.01546
30
3.04
0
VERTEX
10
10.1803
20
8.00426
30
3.04
0
VERTEX
10
10.1766
20
8.00053
30
3.04
0
VERTEX
10
10.1766
20
7.9968
30
3.04
0
VERTEX
10
10.1654
20
7.98373
30
3.04
0
VERTEX
10
10.1616
20
7.98
30
3.04
0
VERTEX
10
10.1616
20
7.97627
30
3.04
0
VERTEX
10
10.1542
20
7.97067
30
3.04
0
VERTEX
10
10.1523
20
7.9632
30
3.04
0
VERTEX
10
10.1523
20
7.96134
30
3.04
0
SEQEND
0
POLYLINE
62
227
66
1
70
1
3
endoplasmic_reticulum
0
VERTEX
10
9.80704
20
7.82137
30
3.04
0
VERTEX
10
9.81077
20
7.81391
30
3.04
0
VERTEX
10
9.8369
20
7.78778
30
3.04
0
VERTEX
10
9.84996
20
7.77658
30
3.04
0
VERTEX
10
9.86489
20
7.77098
30
3.04
0
VERTEX
10
9.87236
20
7.77471
30
3.04
0
VERTEX
10
9.87609
20
7.77658
30
3.04
0
VERTEX
10
9.87796
20
7.78405
30
3.04
0
VERTEX
10
9.88355
20
7.79151
30
3.04
0
VERTEX
10
9.88355
20
7.79898
30
3.04
0
VERTEX
10
9.89662
20
7.81391
30
3.04
0
VERTEX
10
9.90595
20
7.82697
30
3.04
0
VERTEX
10
9.91155
20
7.83443
30
3.04
0
VERTEX
10
9.91341
20
7.83817
30
3.04
0
VERTEX
10
9.91715
20
7.83817
30
3.04
0
VERTEX
10
9.93021
20
7.84936
30
3.04
0
VERTEX
10
9.93767
20
7.85496
30
3.04
0
VERTEX
10
9.94141
20
7.85496
30
3.04
0
VERTEX
10
9.9526
20
7.86616
30
3.04
0
VERTEX
10
9.96567
20
7.88109
30
3.04
0
VERTEX
10
9.97313
20
7.88296
30
3.04
0
VERTEX
10
9.97687
20
7.88669
30
3.04
0
VERTEX
10
10.0366
20
7.89229
30
3.04
0
VERTEX
10
10.0496
20
7.90348
30
3.04
0
VERTEX
10
10.0571
20
7.90908
30
3.04
0
VERTEX
10
10.0608
20
7.91282
30
3.04
0
VERTEX
10
10.0608
20
7.91655
30
3.04
0
VERTEX
10
10.0664
20
7.92215
30
3.04
0
VERTEX
10
10.0683
20
7.93708
30
3.04
0
VERTEX
10
10.0683
20
7.94081
30
3.04
0
VERTEX
10
10.0739
20
7.94827
30
3.04
0
VERTEX
10
10.0739
20
7.95201
30
3.04
0
VERTEX
10
10.0795
20
7.95947
30
3.04
0
VERTEX
10
10.087
20
7.9632
30
3.04
0
VERTEX
10
10.0888
20
7.97067
30
3.04
0
VERTEX
10
10.0888
20
7.9744
30
3.04
0
VERTEX
10
10.0963
20
7.98
30
3.04
0
VERTEX
10
10.0982
20
7.98746
30
3.04
0
VERTEX
10
10.1094
20
8.00053
30
3.04
0
VERTEX
10
10.1168
20
8.01546
30
3.04
0
VERTEX
10
10.1187
20
8.03039
30
3.04
0
VERTEX
10
10.1299
20
8.06025
30
3.04
0
VERTEX
10
10.128
20
8.07518
30
3.04
0
VERTEX
10
10.1131
20
8.08637
30
3.04
0
VERTEX
10
10.0982
20
8.08824
30
3.04
0
VERTEX
10
10.0907
20
8.09384
30
3.04
0
VERTEX
10
10.0758
20
8.09757
30
3.04
0
VERTEX
10
10.0683
20
8.1013
30
3.04
0
VERTEX
10
10.0385
20
8.09944
30
3.04
0
VERTEX
10
10.0235
20
8.09944
30
3.04
0
VERTEX
10
10.0161
20
8.09944
30
3.04
0
VERTEX
10
10.0086
20
8.09571
30
3.04
0
VERTEX
10
9.99926
20
8.08078
30
3.04
0
VERTEX
10
9.98993
20
8.05278
30
3.04
0
VERTEX
10
9.9862
20
8.04905
30
3.04
0
VERTEX
10
9.98246
20
8.03412
30
3.04
0
VERTEX
10
9.97873
20
8.03412
30
3.04
0
VERTEX
10
9.96567
20
8.00613
30
3.04
0
VERTEX
10
9.96007
20
7.9912
30
3.04
0
VERTEX
10
9.95447
20
7.98373
30
3.04
0
VERTEX
10
9.95074
20
7.98373
30
3.04
0
VERTEX
10
9.93767
20
7.97067
30
3.04
0
VERTEX
10
9.93208
20
7.9632
30
3.04
0
VERTEX
10
9.92461
20
7.95947
30
3.04
0
VERTEX
10
9.91901
20
7.95201
30
3.04
0
VERTEX
10
9.91528
20
7.94827
30
3.04
0
VERTEX
10
9.91528
20
7.94454
30
3.04
0
VERTEX
10
9.90222
20
7.93521
30
3.04
0
VERTEX
10
9.89289
20
7.92215
30
3.04
0
VERTEX
10
9.88729
20
7.91841
30
3.04
0
VERTEX
10
9.87236
20
7.90535
30
3.04
0
VERTEX
10
9.84436
20
7.88669
30
3.04
0
VERTEX
10
9.83317
20
7.87736
30
3.04
0
VERTEX
10
9.8089
20
7.85123
30
3.04
0
VERTEX
10
9.80704
20
7.82324
30
3.04
0
SEQEND
0
POLYLINE
62
227
66
1
70
1
3
endoplasmic_reticulum
0
VERTEX
10
10.1094
20
7.87362
30
3.04
0
VERTEX
10
10.1224
20
7.86056
30
3.04
0
VERTEX
10
10.1523
20
7.86056
30
3.04
0
VERTEX
10
10.1598
20
7.86429
30
3.04
0
VERTEX
10
10.1616
20
7.87176
30
3.04
0
VERTEX
10
10.1579
20
7.88669
30
3.04
0
VERTEX
10
10.1542
20
7.89415
30
3.04
0
VERTEX
10
10.1504
20
7.89789
30
3.04
0
VERTEX
10
10.1355
20
7.89602
30
3.04
0
VERTEX
10
10.128
20
7.89975
30
3.04
0
VERTEX
10
10.1243
20
7.90162
30
3.04
0
VERTEX
10
10.115
20
7.88669
30
3.04
0
VERTEX
10
10.1094
20
7.88109
30
3.04
0
VERTEX
10
10.1094
20
7.87549
30
3.04
0
SEQEND
0
ENDSEC
0
EOF
