0
SECTION
2
ENTITIES
0
POLYLINE
62
31
66
1
70
1
3
contour
0
VERTEX
10
10.33
20
8.81198
30
3.16
0
VERTEX
10
10.3354
20
8.80926
30
3.16
0
VERTEX
10
10.3381
20
8.76581
30
3.16
0
VERTEX
10
10.3435
20
8.75495
30
3.16
0
VERTEX
10
10.3653
20
8.74137
30
3.16
0
VERTEX
10
10.4087
20
8.73051
30
3.16
0
VERTEX
10
10.4522
20
8.73051
30
3.16
0
VERTEX
10
10.4739
20
8.73051
30
3.16
0
VERTEX
10
10.5173
20
8.73866
30
3.16
0
VERTEX
10
10.5391
20
8.74137
30
3.16
0
VERTEX
10
10.5825
20
8.7631
30
3.16
0
VERTEX
10
10.5934
20
8.77396
30
3.16
0
VERTEX
10
10.6042
20
8.77939
30
3.16
0
VERTEX
10
10.6178
20
8.79297
30
3.16
0
VERTEX
10
10.6477
20
8.83642
30
3.16
0
VERTEX
10
10.6613
20
8.85542
30
3.16
0
VERTEX
10
10.6667
20
8.86629
30
3.16
0
VERTEX
10
10.6721
20
8.90974
30
3.16
0
VERTEX
10
10.6721
20
8.95318
30
3.16
0
VERTEX
10
10.6721
20
8.97491
30
3.16
0
VERTEX
10
10.664
20
8.99663
30
3.16
0
VERTEX
10
10.664
20
9.00206
30
3.16
0
VERTEX
10
10.6341
20
9.0428
30
3.16
0
VERTEX
10
10.6287
20
9.04823
30
3.16
0
VERTEX
10
10.6287
20
9.05366
30
3.16
0
VERTEX
10
10.6124
20
9.06995
30
3.16
0
VERTEX
10
10.607
20
9.07538
30
3.16
0
VERTEX
10
10.5961
20
9.0781
30
3.16
0
VERTEX
10
10.5907
20
9.07267
30
3.16
0
VERTEX
10
10.5472
20
9.06724
30
3.16
0
VERTEX
10
10.5364
20
9.06181
30
3.16
0
VERTEX
10
10.5011
20
9.01836
30
3.16
0
VERTEX
10
10.4657
20
8.98034
30
3.16
0
VERTEX
10
10.4603
20
8.96948
30
3.16
0
VERTEX
10
10.4223
20
8.92874
30
3.16
0
VERTEX
10
10.406
20
8.91245
30
3.16
0
VERTEX
10
10.3979
20
8.89073
30
3.16
0
VERTEX
10
10.387
20
8.8853
30
3.16
0
VERTEX
10
10.387
20
8.87986
30
3.16
0
VERTEX
10
10.3653
20
8.86357
30
3.16
0
VERTEX
10
10.349
20
8.84185
30
3.16
0
VERTEX
10
10.3354
20
8.83098
30
3.16
0
VERTEX
10
10.3354
20
8.82555
30
3.16
0
VERTEX
10
10.33
20
8.82012
30
3.16
0
VERTEX
10
10.33
20
8.81469
30
3.16
0
SEQEND
0
POLYLINE
62
31
66
1
70
1
3
contour
0
VERTEX
10
9.85096
20
7.7817
30
3.16
0
VERTEX
10
9.86725
20
7.75889
30
3.16
0
VERTEX
10
9.87377
20
7.74586
30
3.16
0
VERTEX
10
9.88681
20
7.73608
30
3.16
0
VERTEX
10
9.89332
20
7.73608
30
3.16
0
VERTEX
10
9.90636
20
7.71327
30
3.16
0
VERTEX
10
9.91287
20
7.70675
30
3.16
0
VERTEX
10
9.91939
20
7.70675
30
3.16
0
VERTEX
10
9.93569
20
7.68069
30
3.16
0
VERTEX
10
9.95198
20
7.67091
30
3.16
0
VERTEX
10
9.96501
20
7.66765
30
3.16
0
VERTEX
10
9.98782
20
7.64484
30
3.16
0
VERTEX
10
9.98782
20
7.63832
30
3.16
0
VERTEX
10
10.0106
20
7.61877
30
3.16
0
VERTEX
10
10.0139
20
7.60574
30
3.16
0
VERTEX
10
10.0204
20
7.60248
30
3.16
0
VERTEX
10
10.0367
20
7.55034
30
3.16
0
VERTEX
10
10.04
20
7.52427
30
3.16
0
VERTEX
10
10.04
20
7.51123
30
3.16
0
VERTEX
10
10.0497
20
7.48517
30
3.16
0
VERTEX
10
10.0595
20
7.43303
30
3.16
0
VERTEX
10
10.0693
20
7.41999
30
3.16
0
VERTEX
10
10.1214
20
7.41999
30
3.16
0
VERTEX
10
10.1475
20
7.42325
30
3.16
0
VERTEX
10
10.1605
20
7.42325
30
3.16
0
VERTEX
10
10.1866
20
7.43303
30
3.16
0
VERTEX
10
10.2387
20
7.43629
30
3.16
0
VERTEX
10
10.2518
20
7.43629
30
3.16
0
VERTEX
10
10.2778
20
7.44606
30
3.16
0
VERTEX
10
10.33
20
7.44606
30
3.16
0
VERTEX
10
10.3561
20
7.44606
30
3.16
0
VERTEX
10
10.3691
20
7.44606
30
3.16
0
VERTEX
10
10.3756
20
7.44606
30
3.16
0
VERTEX
10
10.3821
20
7.43954
30
3.16
0
VERTEX
10
10.4343
20
7.43303
30
3.16
0
VERTEX
10
10.4603
20
7.43303
30
3.16
0
VERTEX
10
10.4734
20
7.43629
30
3.16
0
VERTEX
10
10.4864
20
7.44606
30
3.16
0
VERTEX
10
10.4994
20
7.44932
30
3.16
0
VERTEX
10
10.506
20
7.46235
30
3.16
0
VERTEX
10
10.4994
20
7.51449
30
3.16
0
VERTEX
10
10.4962
20
7.52753
30
3.16
0
VERTEX
10
10.4897
20
7.53405
30
3.16
0
VERTEX
10
10.4831
20
7.58618
30
3.16
0
VERTEX
10
10.4766
20
7.59922
30
3.16
0
VERTEX
10
10.4799
20
7.62529
30
3.16
0
VERTEX
10
10.4701
20
7.67743
30
3.16
0
VERTEX
10
10.4636
20
7.6872
30
3.16
0
VERTEX
10
10.4668
20
7.71327
30
3.16
0
VERTEX
10
10.4799
20
7.73282
30
3.16
0
VERTEX
10
10.4864
20
7.73608
30
3.16
0
VERTEX
10
10.4897
20
7.74912
30
3.16
0
VERTEX
10
10.506
20
7.77193
30
3.16
0
VERTEX
10
10.5288
20
7.79474
30
3.16
0
VERTEX
10
10.5385
20
7.798
30
3.16
0
VERTEX
10
10.5516
20
7.80777
30
3.16
0
VERTEX
10
10.5581
20
7.80777
30
3.16
0
VERTEX
10
10.5646
20
7.81429
30
3.16
0
VERTEX
10
10.5907
20
7.81755
30
3.16
0
VERTEX
10
10.607
20
7.84036
30
3.16
0
VERTEX
10
10.6102
20
7.86643
30
3.16
0
VERTEX
10
10.6005
20
7.91857
30
3.16
0
VERTEX
10
10.5744
20
7.97071
30
3.16
0
VERTEX
10
10.5679
20
7.97722
30
3.16
0
VERTEX
10
10.5679
20
7.99026
30
3.16
0
VERTEX
10
10.5679
20
7.99678
30
3.16
0
VERTEX
10
10.5516
20
8.02285
30
3.16
0
VERTEX
10
10.5092
20
8.07498
30
3.16
0
VERTEX
10
10.4864
20
8.0978
30
3.16
0
VERTEX
10
10.4799
20
8.10431
30
3.16
0
VERTEX
10
10.4734
20
8.10431
30
3.16
0
VERTEX
10
10.4668
20
8.11083
30
3.16
0
VERTEX
10
10.4603
20
8.11083
30
3.16
0
VERTEX
10
10.4538
20
8.12386
30
3.16
0
VERTEX
10
10.431
20
8.14993
30
3.16
0
VERTEX
10
10.4245
20
8.15319
30
3.16
0
VERTEX
10
10.4212
20
8.16623
30
3.16
0
VERTEX
10
10.4017
20
8.1923
30
3.16
0
VERTEX
10
10.3886
20
8.21511
30
3.16
0
VERTEX
10
10.3658
20
8.23792
30
3.16
0
VERTEX
10
10.3593
20
8.24444
30
3.16
0
VERTEX
10
10.3332
20
8.24769
30
3.16
0
VERTEX
10
10.3267
20
8.24769
30
3.16
0
VERTEX
10
10.3235
20
8.25421
30
3.16
0
VERTEX
10
10.2974
20
8.26073
30
3.16
0
VERTEX
10
10.2844
20
8.2705
30
3.16
0
VERTEX
10
10.2713
20
8.27376
30
3.16
0
VERTEX
10
10.2648
20
8.28028
30
3.16
0
VERTEX
10
10.1605
20
8.2868
30
3.16
0
VERTEX
10
10.1084
20
8.2868
30
3.16
0
VERTEX
10
10.0823
20
8.28354
30
3.16
0
VERTEX
10
10.0693
20
8.27376
30
3.16
0
VERTEX
10
10.0432
20
8.26725
30
3.16
0
VERTEX
10
10.0302
20
8.26399
30
3.16
0
VERTEX
10
10.0074
20
8.24444
30
3.16
0
VERTEX
10
9.99434
20
8.23792
30
3.16
0
VERTEX
10
9.98782
20
8.23466
30
3.16
0
VERTEX
10
9.98457
20
8.22162
30
3.16
0
VERTEX
10
9.96827
20
8.19556
30
3.16
0
VERTEX
10
9.96501
20
8.18252
30
3.16
0
VERTEX
10
9.9585
20
8.176
30
3.16
0
VERTEX
10
9.95524
20
8.14993
30
3.16
0
VERTEX
10
9.9422
20
8.12386
30
3.16
0
VERTEX
10
9.93569
20
8.0978
30
3.16
0
VERTEX
10
9.93569
20
8.08476
30
3.16
0
VERTEX
10
9.92591
20
8.05869
30
3.16
0
VERTEX
10
9.92265
20
8.04566
30
3.16
0
VERTEX
10
9.92265
20
8.03914
30
3.16
0
VERTEX
10
9.91613
20
8.03262
30
3.16
0
VERTEX
10
9.89984
20
7.98048
30
3.16
0
VERTEX
10
9.89332
20
7.95441
30
3.16
0
VERTEX
10
9.88355
20
7.94138
30
3.16
0
VERTEX
10
9.86725
20
7.88924
30
3.16
0
VERTEX
10
9.86074
20
7.86317
30
3.16
0
VERTEX
10
9.85748
20
7.85014
30
3.16
0
VERTEX
10
9.85748
20
7.84362
30
3.16
0
VERTEX
10
9.85096
20
7.84036
30
3.16
0
VERTEX
10
9.85096
20
7.78822
30
3.16
0
VERTEX
10
9.85096
20
7.78496
30
3.16
0
SEQEND
0
POLYLINE
62
224
66
1
70
1
3
mitochondrion
0
VERTEX
10
10.1193
20
7.92274
30
3.16
0
VERTEX
10
10.1245
20
7.90199
30
3.16
0
VERTEX
10
10.1323
20
7.89162
30
3.16
0
VERTEX
10
10.1349
20
7.88125
30
3.16
0
VERTEX
10
10.1608
20
7.83975
30
3.16
0
VERTEX
10
10.1997
20
7.80604
30
3.16
0
VERTEX
10
10.2205
20
7.79826
30
3.16
0
VERTEX
10
10.3035
20
7.79826
30
3.16
0
VERTEX
10
10.3138
20
7.79826
30
3.16
0
VERTEX
10
10.3527
20
7.82938
30
3.16
0
VERTEX
10
10.3657
20
7.84494
30
3.16
0
VERTEX
10
10.3657
20
7.88643
30
3.16
0
VERTEX
10
10.3579
20
7.92793
30
3.16
0
VERTEX
10
10.3501
20
7.94867
30
3.16
0
VERTEX
10
10.3475
20
7.95905
30
3.16
0
VERTEX
10
10.3424
20
7.96164
30
3.16
0
VERTEX
10
10.3398
20
7.97201
30
3.16
0
VERTEX
10
10.3268
20
7.99017
30
3.16
0
VERTEX
10
10.2853
20
8.02648
30
3.16
0
VERTEX
10
10.2749
20
8.02907
30
3.16
0
VERTEX
10
10.2671
20
8.03944
30
3.16
0
VERTEX
10
10.2257
20
8.04204
30
3.16
0
VERTEX
10
10.2049
20
8.04204
30
3.16
0
VERTEX
10
10.1945
20
8.04204
30
3.16
0
VERTEX
10
10.179
20
8.02388
30
3.16
0
VERTEX
10
10.1712
20
8.0161
30
3.16
0
VERTEX
10
10.1608
20
8.01351
30
3.16
0
VERTEX
10
10.1427
20
8.00054
30
3.16
0
VERTEX
10
10.1323
20
7.99017
30
3.16
0
VERTEX
10
10.1193
20
7.97201
30
3.16
0
VERTEX
10
10.1193
20
7.93052
30
3.16
0
VERTEX
10
10.1193
20
7.92533
30
3.16
0
SEQEND
0
POLYLINE
62
227
66
1
70
1
3
endoplasmic_reticulum
0
VERTEX
10
10.0235
20
7.78218
30
3.16
0
VERTEX
10
10.0291
20
7.76725
30
3.16
0
VERTEX
10
10.0403
20
7.75605
30
3.16
0
VERTEX
10
10.0459
20
7.75045
30
3.16
0
VERTEX
10
10.0758
20
7.75419
30
3.16
0
VERTEX
10
10.0907
20
7.75419
30
3.16
0
VERTEX
10
10.1206
20
7.76725
30
3.16
0
VERTEX
10
10.1336
20
7.77845
30
3.16
0
VERTEX
10
10.1392
20
7.78591
30
3.16
0
VERTEX
10
10.1411
20
7.78964
30
3.16
0
VERTEX
10
10.1448
20
7.78964
30
3.16
0
VERTEX
10
10.1504
20
7.79711
30
3.16
0
VERTEX
10
10.1542
20
7.81204
30
3.16
0
VERTEX
10
10.1542
20
7.82697
30
3.16
0
VERTEX
10
10.1542
20
7.83443
30
3.16
0
VERTEX
10
10.1467
20
7.8363
30
3.16
0
VERTEX
10
10.1318
20
7.83443
30
3.16
0
VERTEX
10
10.128
20
7.83443
30
3.16
0
VERTEX
10
10.1224
20
7.82697
30
3.16
0
VERTEX
10
10.1094
20
7.81764
30
3.16
0
VERTEX
10
10.1019
20
7.80457
30
3.16
0
VERTEX
10
10.0888
20
7.79151
30
3.16
0
VERTEX
10
10.087
20
7.78778
30
3.16
0
VERTEX
10
10.072
20
7.78591
30
3.16
0
VERTEX
10
10.0571
20
7.79151
30
3.16
0
VERTEX
10
10.044
20
7.80084
30
3.16
0
VERTEX
10
10.0366
20
7.80457
30
3.16
0
VERTEX
10
10.0235
20
7.79524
30
3.16
0
VERTEX
10
10.0235
20
7.78778
30
3.16
0
VERTEX
10
10.0235
20
7.78405
30
3.16
0
SEQEND
0
POLYLINE
62
227
66
1
70
1
3
endoplasmic_reticulum
0
VERTEX
10
9.93208
20
7.9912
30
3.16
0
VERTEX
10
9.93581
20
7.98746
30
3.16
0
VERTEX
10
9.94327
20
7.9856
30
3.16
0
VERTEX
10
9.94327
20
7.98187
30
3.16
0
VERTEX
10
9.9582
20
7.98
30
3.16
0
VERTEX
10
9.98806
20
7.9856
30
3.16
0
VERTEX
10
10.003
20
7.98746
30
3.16
0
VERTEX
10
10.0179
20
7.9968
30
3.16
0
VERTEX
10
10.0217
20
7.9968
30
3.16
0
VERTEX
10
10.0329
20
8.00799
30
3.16
0
VERTEX
10
10.0347
20
8.01546
30
3.16
0
VERTEX
10
10.0403
20
8.02106
30
3.16
0
VERTEX
10
10.0385
20
8.03599
30
3.16
0
VERTEX
10
10.0273
20
8.04718
30
3.16
0
VERTEX
10
10.003
20
8.07704
30
3.16
0
VERTEX
10
9.99553
20
8.07891
30
3.16
0
VERTEX
10
9.9806
20
8.07144
30
3.16
0
VERTEX
10
9.96007
20
8.04532
30
3.16
0
VERTEX
10
9.9526
20
8.04159
30
3.16
0
VERTEX
10
9.94887
20
8.03599
30
3.16
0
VERTEX
10
9.94514
20
8.03412
30
3.16
0
VERTEX
10
9.94141
20
8.01919
30
3.16
0
VERTEX
10
9.94141
20
8.01546
30
3.16
0
VERTEX
10
9.93767
20
8.01359
30
3.16
0
VERTEX
10
9.93581
20
8.00613
30
3.16
0
VERTEX
10
9.93208
20
8.00239
30
3.16
0
VERTEX
10
9.93208
20
7.99493
30
3.16
0
VERTEX
10
9.93208
20
7.99306
30
3.16
0
SEQEND
0
POLYLINE
62
227
66
1
70
1
3
endoplasmic_reticulum
0
VERTEX
10
10.0347
20
8.13676
30
3.16
0
VERTEX
10
10.0403
20
8.1293
30
3.16
0
VERTEX
10
10.0403
20
8.12557
30
3.16
0
VERTEX
10
10.0496
20
8.11064
30
3.16
0
VERTEX
10
10.0534
20
8.10317
30
3.16
0
VERTEX
10
10.0608
20
8.09571
30
3.16
0
VERTEX
10
10.0664
20
8.09197
30
3.16
0
VERTEX
10
10.0814
20
8.07704
30
3.16
0
VERTEX
10
10.0888
20
8.07144
30
3.16
0
VERTEX
10
10.1187
20
8.06585
30
3.16
0
VERTEX
10
10.1262
20
8.06398
30
3.16
0
VERTEX
10
10.1411
20
8.06958
30
3.16
0
VERTEX
10
10.1467
20
8.07704
30
3.16
0
VERTEX
10
10.1504
20
8.08078
30
3.16
0
VERTEX
10
10.1579
20
8.08264
30
3.16
0
VERTEX
10
10.1728
20
8.09384
30
3.16
0
VERTEX
10
10.1822
20
8.10317
30
3.16
0
VERTEX
10
10.184
20
8.1069
30
3.16
0
VERTEX
10
10.1654
20
8.13676
30
3.16
0
VERTEX
10
10.1411
20
8.16289
30
3.16
0
VERTEX
10
10.1355
20
8.17035
30
3.16
0
VERTEX
10
10.1318
20
8.17035
30
3.16
0
VERTEX
10
10.1206
20
8.17969
30
3.16
0
VERTEX
10
10.1056
20
8.18715
30
3.16
0
VERTEX
10
10.0907
20
8.18902
30
3.16
0
VERTEX
10
10.0832
20
8.18902
30
3.16
0
VERTEX
10
10.0534
20
8.17969
30
3.16
0
VERTEX
10
10.0459
20
8.17222
30
3.16
0
VERTEX
10
10.0366
20
8.15729
30
3.16
0
VERTEX
10
10.0347
20
8.14236
30
3.16
0
VERTEX
10
10.0347
20
8.13863
30
3.16
0
SEQEND
0
POLYLINE
62
227
66
1
70
1
3
endoplasmic_reticulum
0
VERTEX
10
10.3314
20
7.58996
30
3.16
0
VERTEX
10
10.337
20
7.57503
30
3.16
0
VERTEX
10
10.3408
20
7.56756
30
3.16
0
VERTEX
10
10.3482
20
7.56196
30
3.16
0
VERTEX
10
10.3632
20
7.56196
30
3.16
0
VERTEX
10
10.3706
20
7.56196
30
3.16
0
VERTEX
10
10.3856
20
7.56943
30
3.16
0
VERTEX
10
10.3912
20
7.57503
30
3.16
0
VERTEX
10
10.393
20
7.58996
30
3.16
0
VERTEX
10
10.3893
20
7.60489
30
3.16
0
VERTEX
10
10.38
20
7.61795
30
3.16
0
VERTEX
10
10.3725
20
7.62168
30
3.16
0
VERTEX
10
10.3576
20
7.62355
30
3.16
0
VERTEX
10
10.3501
20
7.62355
30
3.16
0
VERTEX
10
10.337
20
7.61235
30
3.16
0
VERTEX
10
10.3314
20
7.60675
30
3.16
0
VERTEX
10
10.3314
20
7.59182
30
3.16
0
SEQEND
0
POLYLINE
62
227
66
1
70
1
3
endoplasmic_reticulum
0
VERTEX
10
10.0832
20
7.56383
30
3.16
0
VERTEX
10
10.087
20
7.55637
30
3.16
0
VERTEX
10
10.0944
20
7.55077
30
3.16
0
VERTEX
10
10.0982
20
7.54703
30
3.16
0
VERTEX
10
10.1056
20
7.54517
30
3.16
0
VERTEX
10
10.1187
20
7.53584
30
3.16
0
VERTEX
10
10.1262
20
7.53584
30
3.16
0
VERTEX
10
10.1299
20
7.53584
30
3.16
0
VERTEX
10
10.1374
20
7.53024
30
3.16
0
VERTEX
10
10.1523
20
7.5321
30
3.16
0
VERTEX
10
10.1579
20
7.5377
30
3.16
0
VERTEX
10
10.1598
20
7.55263
30
3.16
0
VERTEX
10
10.1523
20
7.56756
30
3.16
0
VERTEX
10
10.1467
20
7.57503
30
3.16
0
VERTEX
10
10.1448
20
7.58249
30
3.16
0
VERTEX
10
10.1318
20
7.59182
30
3.16
0
VERTEX
10
10.1243
20
7.59182
30
3.16
0
VERTEX
10
10.1224
20
7.59556
30
3.16
0
VERTEX
10
10.0926
20
7.59929
30
3.16
0
VERTEX
10
10.0888
20
7.59742
30
3.16
0
VERTEX
10
10.087
20
7.58996
30
3.16
0
VERTEX
10
10.0832
20
7.58809
30
3.16
0
VERTEX
10
10.0832
20
7.57316
30
3.16
0
VERTEX
10
10.0832
20
7.5657
30
3.16
0
SEQEND
0
POLYLINE
62
227
66
1
70
1
3
endoplasmic_reticulum
0
VERTEX
10
10.0739
20
7.64594
30
3.16
0
VERTEX
10
10.087
20
7.63288
30
3.16
0
VERTEX
10
10.0944
20
7.62728
30
3.16
0
VERTEX
10
10.0982
20
7.62728
30
3.16
0
VERTEX
10
10.1056
20
7.62168
30
3.16
0
VERTEX
10
10.1206
20
7.62168
30
3.16
0
VERTEX
10
10.1504
20
7.62915
30
3.16
0
VERTEX
10
10.1542
20
7.62915
30
3.16
0
VERTEX
10
10.1616
20
7.63475
30
3.16
0
VERTEX
10
10.1654
20
7.63848
30
3.16
0
VERTEX
10
10.1691
20
7.63848
30
3.16
0
VERTEX
10
10.1728
20
7.64221
30
3.16
0
VERTEX
10
10.1766
20
7.64221
30
3.16
0
VERTEX
10
10.1896
20
7.65528
30
3.16
0
VERTEX
10
10.1952
20
7.66274
30
3.16
0
VERTEX
10
10.1971
20
7.67021
30
3.16
0
VERTEX
10
10.1971
20
7.67394
30
3.16
0
VERTEX
10
10.2045
20
7.67767
30
3.16
0
VERTEX
10
10.2083
20
7.67954
30
3.16
0
VERTEX
10
10.2045
20
7.68327
30
3.16
0
VERTEX
10
10.1989
20
7.6982
30
3.16
0
VERTEX
10
10.1691
20
7.70753
30
3.16
0
VERTEX
10
10.1392
20
7.70566
30
3.16
0
VERTEX
10
10.1094
20
7.69633
30
3.16
0
VERTEX
10
10.0851
20
7.67207
30
3.16
0
VERTEX
10
10.0832
20
7.66834
30
3.16
0
VERTEX
10
10.0795
20
7.66834
30
3.16
0
VERTEX
10
10.0739
20
7.66087
30
3.16
0
VERTEX
10
10.0739
20
7.64781
30
3.16
0
SEQEND
0
ENDSEC
0
EOF
