0
SECTION
2
ENTITIES
0
POLYLINE
62
31
66
1
70
1
3
contour
0
VERTEX
10
8.75419
20
9.13558
30
5.56
0
VERTEX
10
8.75863
20
9.12671
30
5.56
0
VERTEX
10
8.76306
20
9.09123
30
5.56
0
VERTEX
10
8.76528
20
9.0735
30
5.56
0
VERTEX
10
8.76971
20
9.06906
30
5.56
0
VERTEX
10
8.77193
20
9.06019
30
5.56
0
VERTEX
10
8.7808
20
9.05132
30
5.56
0
VERTEX
10
8.78302
20
9.04245
30
5.56
0
VERTEX
10
8.79189
20
9.0358
30
5.56
0
VERTEX
10
8.80963
20
9.03358
30
5.56
0
VERTEX
10
8.8185
20
9.03137
30
5.56
0
VERTEX
10
8.82293
20
9.02693
30
5.56
0
VERTEX
10
8.8318
20
9.02471
30
5.56
0
VERTEX
10
8.84067
20
9.01806
30
5.56
0
VERTEX
10
8.85841
20
9.01141
30
5.56
0
VERTEX
10
8.86728
20
9.00697
30
5.56
0
VERTEX
10
8.87393
20
8.9981
30
5.56
0
VERTEX
10
8.90941
20
8.98258
30
5.56
0
VERTEX
10
8.92493
20
8.9715
30
5.56
0
VERTEX
10
8.94267
20
8.96484
30
5.56
0
VERTEX
10
8.96041
20
8.96263
30
5.56
0
VERTEX
10
8.99589
20
8.96484
30
5.56
0
VERTEX
10
9.01363
20
8.96484
30
5.56
0
VERTEX
10
9.01806
20
8.96484
30
5.56
0
VERTEX
10
9.0225
20
8.96041
30
5.56
0
VERTEX
10
9.05797
20
8.96263
30
5.56
0
VERTEX
10
9.07571
20
8.96484
30
5.56
0
VERTEX
10
9.08015
20
8.96928
30
5.56
0
VERTEX
10
9.08902
20
8.9715
30
5.56
0
VERTEX
10
9.09789
20
8.98037
30
5.56
0
VERTEX
10
9.10232
20
8.98037
30
5.56
0
VERTEX
10
9.11119
20
8.98924
30
5.56
0
VERTEX
10
9.12006
20
8.99145
30
5.56
0
VERTEX
10
9.1511
20
9.0225
30
5.56
0
VERTEX
10
9.15997
20
9.02471
30
5.56
0
VERTEX
10
9.1888
20
9.05354
30
5.56
0
VERTEX
10
9.19767
20
9.05132
30
5.56
0
VERTEX
10
9.19767
20
9.04245
30
5.56
0
VERTEX
10
9.2021
20
9.04023
30
5.56
0
VERTEX
10
9.21097
20
9.04245
30
5.56
0
VERTEX
10
9.21541
20
9.05132
30
5.56
0
VERTEX
10
9.22428
20
9.06019
30
5.56
0
VERTEX
10
9.22428
20
9.06463
30
5.56
0
VERTEX
10
9.23536
20
9.07793
30
5.56
0
VERTEX
10
9.24202
20
9.09567
30
5.56
0
VERTEX
10
9.24645
20
9.1001
30
5.56
0
VERTEX
10
9.25754
20
9.13558
30
5.56
0
VERTEX
10
9.27749
20
9.17106
30
5.56
0
VERTEX
10
9.2908
20
9.20432
30
5.56
0
VERTEX
10
9.2908
20
9.2398
30
5.56
0
VERTEX
10
9.2908
20
9.24867
30
5.56
0
VERTEX
10
9.28415
20
9.26641
30
5.56
0
VERTEX
10
9.28193
20
9.28415
30
5.56
0
VERTEX
10
9.26641
20
9.31962
30
5.56
0
VERTEX
10
9.24645
20
9.35288
30
5.56
0
VERTEX
10
9.24202
20
9.36175
30
5.56
0
VERTEX
10
9.23758
20
9.36397
30
5.56
0
VERTEX
10
9.23758
20
9.36841
30
5.56
0
VERTEX
10
9.22206
20
9.38615
30
5.56
0
VERTEX
10
9.19102
20
9.40832
30
5.56
0
VERTEX
10
9.17328
20
9.41719
30
5.56
0
VERTEX
10
9.10232
20
9.42162
30
5.56
0
VERTEX
10
9.06684
20
9.42828
30
5.56
0
VERTEX
10
9.05132
20
9.43493
30
5.56
0
VERTEX
10
8.98037
20
9.44601
30
5.56
0
VERTEX
10
8.94489
20
9.4438
30
5.56
0
VERTEX
10
8.92715
20
9.43936
30
5.56
0
VERTEX
10
8.90941
20
9.43049
30
5.56
0
VERTEX
10
8.87393
20
9.42828
30
5.56
0
VERTEX
10
8.85619
20
9.41941
30
5.56
0
VERTEX
10
8.85176
20
9.41941
30
5.56
0
VERTEX
10
8.81628
20
9.39058
30
5.56
0
VERTEX
10
8.80741
20
9.37506
30
5.56
0
VERTEX
10
8.80298
20
9.36619
30
5.56
0
VERTEX
10
8.80298
20
9.35732
30
5.56
0
VERTEX
10
8.79854
20
9.3551
30
5.56
0
VERTEX
10
8.79854
20
9.35067
30
5.56
0
VERTEX
10
8.79189
20
9.3418
30
5.56
0
VERTEX
10
8.78745
20
9.33736
30
5.56
0
VERTEX
10
8.78745
20
9.33293
30
5.56
0
VERTEX
10
8.7808
20
9.32406
30
5.56
0
VERTEX
10
8.76971
20
9.28858
30
5.56
0
VERTEX
10
8.76528
20
9.2531
30
5.56
0
VERTEX
10
8.76528
20
9.23536
30
5.56
0
VERTEX
10
8.76528
20
9.23093
30
5.56
0
VERTEX
10
8.76085
20
9.22871
30
5.56
0
VERTEX
10
8.75863
20
9.19323
30
5.56
0
VERTEX
10
8.75863
20
9.18436
30
5.56
0
VERTEX
10
8.75419
20
9.17549
30
5.56
0
VERTEX
10
8.75419
20
9.14002
30
5.56
0
VERTEX
10
8.75419
20
9.1378
30
5.56
0
SEQEND
0
POLYLINE
62
224
66
1
70
1
3
mitochondrion
0
VERTEX
10
9.05031
20
9.20465
30
5.56
0
VERTEX
10
9.05726
20
9.16015
30
5.56
0
VERTEX
10
9.06004
20
9.14903
30
5.56
0
VERTEX
10
9.06004
20
9.14625
30
5.56
0
VERTEX
10
9.07812
20
9.12539
30
5.56
0
VERTEX
10
9.08785
20
9.11705
30
5.56
0
VERTEX
10
9.09897
20
9.11149
30
5.56
0
VERTEX
10
9.10314
20
9.10871
30
5.56
0
VERTEX
10
9.12539
20
9.1101
30
5.56
0
VERTEX
10
9.13651
20
9.11149
30
5.56
0
VERTEX
10
9.15876
20
9.12122
30
5.56
0
VERTEX
10
9.16989
20
9.12261
30
5.56
0
VERTEX
10
9.18101
20
9.13234
30
5.56
0
VERTEX
10
9.18657
20
9.13373
30
5.56
0
VERTEX
10
9.18935
20
9.13512
30
5.56
0
VERTEX
10
9.18935
20
9.13791
30
5.56
0
VERTEX
10
9.19491
20
9.14208
30
5.56
0
VERTEX
10
9.20326
20
9.16432
30
5.56
0
VERTEX
10
9.20465
20
9.16989
30
5.56
0
VERTEX
10
9.20465
20
9.17267
30
5.56
0
VERTEX
10
9.2116
20
9.18379
30
5.56
0
VERTEX
10
9.21577
20
9.19491
30
5.56
0
VERTEX
10
9.21855
20
9.20047
30
5.56
0
VERTEX
10
9.21855
20
9.20326
30
5.56
0
VERTEX
10
9.22133
20
9.20604
30
5.56
0
VERTEX
10
9.22689
20
9.22828
30
5.56
0
VERTEX
10
9.2255
20
9.27278
30
5.56
0
VERTEX
10
9.22272
20
9.2839
30
5.56
0
VERTEX
10
9.22272
20
9.28668
30
5.56
0
VERTEX
10
9.21994
20
9.28807
30
5.56
0
VERTEX
10
9.21855
20
9.29363
30
5.56
0
VERTEX
10
9.2116
20
9.30476
30
5.56
0
VERTEX
10
9.19213
20
9.32283
30
5.56
0
VERTEX
10
9.1824
20
9.32978
30
5.56
0
VERTEX
10
9.17684
20
9.33257
30
5.56
0
VERTEX
10
9.15459
20
9.33396
30
5.56
0
VERTEX
10
9.14347
20
9.33396
30
5.56
0
VERTEX
10
9.13234
20
9.33674
30
5.56
0
VERTEX
10
9.1101
20
9.33674
30
5.56
0
VERTEX
10
9.10454
20
9.33674
30
5.56
0
VERTEX
10
9.10175
20
9.33674
30
5.56
0
VERTEX
10
9.0948
20
9.327
30
5.56
0
VERTEX
10
9.08507
20
9.31727
30
5.56
0
VERTEX
10
9.08507
20
9.31449
30
5.56
0
VERTEX
10
9.0809
20
9.30893
30
5.56
0
VERTEX
10
9.07812
20
9.30615
30
5.56
0
VERTEX
10
9.06977
20
9.2839
30
5.56
0
VERTEX
10
9.06977
20
9.27834
30
5.56
0
VERTEX
10
9.06699
20
9.27556
30
5.56
0
VERTEX
10
9.0656
20
9.23106
30
5.56
0
VERTEX
10
9.05448
20
9.21994
30
5.56
0
VERTEX
10
9.05031
20
9.21438
30
5.56
0
VERTEX
10
9.05031
20
9.20882
30
5.56
0
VERTEX
10
9.05031
20
9.20604
30
5.56
0
SEQEND
0
POLYLINE
62
227
66
1
70
1
3
endoplasmic_reticulum
0
VERTEX
10
8.90384
20
9.16074
30
5.56
0
VERTEX
10
8.90496
20
9.14279
30
5.56
0
VERTEX
10
8.90496
20
9.13381
30
5.56
0
VERTEX
10
8.90945
20
9.11587
30
5.56
0
VERTEX
10
8.9117
20
9.11138
30
5.56
0
VERTEX
10
8.9117
20
9.10913
30
5.56
0
VERTEX
10
8.92067
20
9.10353
30
5.56
0
VERTEX
10
8.92516
20
9.1024
30
5.56
0
VERTEX
10
8.93413
20
9.10465
30
5.56
0
VERTEX
10
8.93862
20
9.10465
30
5.56
0
VERTEX
10
8.94311
20
9.10801
30
5.56
0
VERTEX
10
8.95208
20
9.10913
30
5.56
0
VERTEX
10
8.95432
20
9.11026
30
5.56
0
VERTEX
10
8.95432
20
9.11474
30
5.56
0
VERTEX
10
8.96106
20
9.12372
30
5.56
0
VERTEX
10
8.9633
20
9.12708
30
5.56
0
VERTEX
10
8.96779
20
9.12821
30
5.56
0
VERTEX
10
8.96891
20
9.14615
30
5.56
0
VERTEX
10
8.96891
20
9.1484
30
5.56
0
VERTEX
10
8.96666
20
9.15064
30
5.56
0
VERTEX
10
8.96666
20
9.15289
30
5.56
0
VERTEX
10
8.96442
20
9.15401
30
5.56
0
VERTEX
10
8.95881
20
9.17083
30
5.56
0
VERTEX
10
8.95432
20
9.17308
30
5.56
0
VERTEX
10
8.95208
20
9.17532
30
5.56
0
VERTEX
10
8.94759
20
9.17644
30
5.56
0
VERTEX
10
8.94086
20
9.18317
30
5.56
0
VERTEX
10
8.9375
20
9.18766
30
5.56
0
VERTEX
10
8.93525
20
9.19664
30
5.56
0
VERTEX
10
8.93301
20
9.2
30
5.56
0
VERTEX
10
8.91506
20
9.19103
30
5.56
0
VERTEX
10
8.90721
20
9.1843
30
5.56
0
VERTEX
10
8.90496
20
9.18205
30
5.56
0
VERTEX
10
8.90384
20
9.1641
30
5.56
0
VERTEX
10
8.90384
20
9.16186
30
5.56
0
SEQEND
0
POLYLINE
62
227
66
1
70
1
3
endoplasmic_reticulum
0
VERTEX
10
8.88925
20
9.33036
30
5.56
0
VERTEX
10
8.89194
20
9.32767
30
5.56
0
VERTEX
10
8.89463
20
9.32049
30
5.56
0
VERTEX
10
8.89912
20
9.31422
30
5.56
0
VERTEX
10
8.9027
20
9.31242
30
5.56
0
VERTEX
10
8.9045
20
9.31063
30
5.56
0
VERTEX
10
8.91884
20
9.31063
30
5.56
0
VERTEX
10
8.92243
20
9.31063
30
5.56
0
VERTEX
10
8.92601
20
9.31422
30
5.56
0
VERTEX
10
8.9305
20
9.32049
30
5.56
0
VERTEX
10
8.93588
20
9.33484
30
5.56
0
VERTEX
10
8.93588
20
9.34918
30
5.56
0
VERTEX
10
8.93498
20
9.35636
30
5.56
0
VERTEX
10
8.9305
20
9.36263
30
5.56
0
VERTEX
10
8.9296
20
9.36622
30
5.56
0
VERTEX
10
8.92781
20
9.36801
30
5.56
0
VERTEX
10
8.92601
20
9.36801
30
5.56
0
VERTEX
10
8.92243
20
9.3707
30
5.56
0
VERTEX
10
8.90808
20
9.36711
30
5.56
0
VERTEX
10
8.90091
20
9.36532
30
5.56
0
VERTEX
10
8.89732
20
9.36442
30
5.56
0
VERTEX
10
8.89374
20
9.36173
30
5.56
0
VERTEX
10
8.88925
20
9.34739
30
5.56
0
VERTEX
10
8.88925
20
9.33305
30
5.56
0
VERTEX
10
8.88925
20
9.33125
30
5.56
0
SEQEND
0
POLYLINE
62
227
66
1
70
1
3
endoplasmic_reticulum
0
VERTEX
10
8.87581
20
9.24967
30
5.56
0
VERTEX
10
8.8785
20
9.24608
30
5.56
0
VERTEX
10
8.8785
20
9.24249
30
5.56
0
VERTEX
10
8.88119
20
9.23532
30
5.56
0
VERTEX
10
8.88208
20
9.23174
30
5.56
0
VERTEX
10
8.89463
20
9.21918
30
5.56
0
VERTEX
10
8.89822
20
9.2156
30
5.56
0
VERTEX
10
8.90539
20
9.21291
30
5.56
0
VERTEX
10
8.91256
20
9.2138
30
5.56
0
VERTEX
10
8.91884
20
9.21829
30
5.56
0
VERTEX
10
8.92332
20
9.22546
30
5.56
0
VERTEX
10
8.92422
20
9.2398
30
5.56
0
VERTEX
10
8.92243
20
9.25415
30
5.56
0
VERTEX
10
8.91794
20
9.26132
30
5.56
0
VERTEX
10
8.91167
20
9.2676
30
5.56
0
VERTEX
10
8.90808
20
9.27029
30
5.56
0
VERTEX
10
8.90629
20
9.27029
30
5.56
0
VERTEX
10
8.90539
20
9.27208
30
5.56
0
VERTEX
10
8.90181
20
9.27208
30
5.56
0
VERTEX
10
8.90001
20
9.27387
30
5.56
0
VERTEX
10
8.89643
20
9.27477
30
5.56
0
VERTEX
10
8.88925
20
9.27208
30
5.56
0
VERTEX
10
8.88208
20
9.27118
30
5.56
0
VERTEX
10
8.8785
20
9.26849
30
5.56
0
VERTEX
10
8.87581
20
9.26132
30
5.56
0
VERTEX
10
8.87581
20
9.25415
30
5.56
0
VERTEX
10
8.87581
20
9.25056
30
5.56
0
SEQEND
0
ENDSEC
0
EOF
