0
SECTION
2
ENTITIES
0
POLYLINE
62
31
66
1
70
1
3
contour
0
VERTEX
10
6.16974
20
10.9111
30
9.12
0
VERTEX
10
6.17517
20
10.8677
30
9.12
0
VERTEX
10
6.17517
20
10.8568
30
9.12
0
VERTEX
10
6.18332
20
10.8351
30
9.12
0
VERTEX
10
6.18603
20
10.8133
30
9.12
0
VERTEX
10
6.18603
20
10.8025
30
9.12
0
VERTEX
10
6.19147
20
10.7916
30
9.12
0
VERTEX
10
6.19147
20
10.7808
30
9.12
0
VERTEX
10
6.20504
20
10.759
30
9.12
0
VERTEX
10
6.21319
20
10.7373
30
9.12
0
VERTEX
10
6.21591
20
10.7264
30
9.12
0
VERTEX
10
6.23491
20
10.7074
30
9.12
0
VERTEX
10
6.23763
20
10.6966
30
9.12
0
VERTEX
10
6.25392
20
10.6748
30
9.12
0
VERTEX
10
6.28923
20
10.6423
30
9.12
0
VERTEX
10
6.33267
20
10.6287
30
9.12
0
VERTEX
10
6.37612
20
10.6314
30
9.12
0
VERTEX
10
6.39785
20
10.6368
30
9.12
0
VERTEX
10
6.40871
20
10.6368
30
9.12
0
VERTEX
10
6.41414
20
10.6423
30
9.12
0
VERTEX
10
6.425
20
10.645
30
9.12
0
VERTEX
10
6.44673
20
10.6586
30
9.12
0
VERTEX
10
6.44944
20
10.664
30
9.12
0
VERTEX
10
6.45487
20
10.664
30
9.12
0
VERTEX
10
6.47117
20
10.6857
30
9.12
0
VERTEX
10
6.48746
20
10.702
30
9.12
0
VERTEX
10
6.49561
20
10.7237
30
9.12
0
VERTEX
10
6.50375
20
10.7319
30
9.12
0
VERTEX
10
6.50375
20
10.7373
30
9.12
0
VERTEX
10
6.51462
20
10.74
30
9.12
0
VERTEX
10
6.53363
20
10.759
30
9.12
0
VERTEX
10
6.53906
20
10.7699
30
9.12
0
VERTEX
10
6.54177
20
10.8133
30
9.12
0
VERTEX
10
6.54449
20
10.8351
30
9.12
0
VERTEX
10
6.53906
20
10.8785
30
9.12
0
VERTEX
10
6.53906
20
10.8894
30
9.12
0
VERTEX
10
6.53363
20
10.9002
30
9.12
0
VERTEX
10
6.53091
20
10.922
30
9.12
0
VERTEX
10
6.52276
20
10.9437
30
9.12
0
VERTEX
10
6.51733
20
10.9545
30
9.12
0
VERTEX
10
6.51733
20
10.9654
30
9.12
0
VERTEX
10
6.5119
20
10.9763
30
9.12
0
VERTEX
10
6.50104
20
10.9871
30
9.12
0
VERTEX
10
6.49832
20
10.998
30
9.12
0
VERTEX
10
6.48203
20
11.017
30
9.12
0
VERTEX
10
6.47117
20
11.0197
30
9.12
0
VERTEX
10
6.45487
20
11.036
30
9.12
0
VERTEX
10
6.43315
20
11.0523
30
9.12
0
VERTEX
10
6.42229
20
11.055
30
9.12
0
VERTEX
10
6.40328
20
11.0713
30
9.12
0
VERTEX
10
6.39242
20
11.0767
30
9.12
0
VERTEX
10
6.38699
20
11.0876
30
9.12
0
VERTEX
10
6.38699
20
11.093
30
9.12
0
VERTEX
10
6.36798
20
11.1093
30
9.12
0
VERTEX
10
6.34897
20
11.1311
30
9.12
0
VERTEX
10
6.32996
20
11.1446
30
9.12
0
VERTEX
10
6.30823
20
11.1474
30
9.12
0
VERTEX
10
6.29737
20
11.1501
30
9.12
0
VERTEX
10
6.29194
20
11.1528
30
9.12
0
VERTEX
10
6.27293
20
11.1365
30
9.12
0
VERTEX
10
6.25935
20
11.1148
30
9.12
0
VERTEX
10
6.25121
20
11.1039
30
9.12
0
VERTEX
10
6.24578
20
11.1012
30
9.12
0
VERTEX
10
6.24578
20
11.0958
30
9.12
0
VERTEX
10
6.21047
20
11.055
30
9.12
0
VERTEX
10
6.1969
20
11.0333
30
9.12
0
VERTEX
10
6.18875
20
11.0224
30
9.12
0
VERTEX
10
6.18332
20
11.0007
30
9.12
0
VERTEX
10
6.17789
20
10.9899
30
9.12
0
VERTEX
10
6.17789
20
10.979
30
9.12
0
VERTEX
10
6.17246
20
10.9736
30
9.12
0
VERTEX
10
6.16974
20
10.9301
30
9.12
0
VERTEX
10
6.16974
20
10.9192
30
9.12
0
VERTEX
10
6.16974
20
10.9138
30
9.12
0
SEQEND
0
POLYLINE
62
224
66
1
70
1
3
mitochondrion
0
VERTEX
10
7.58201
20
10.4352
30
9.12
0
VERTEX
10
7.5848
20
10.4129
30
9.12
0
VERTEX
10
7.58619
20
10.4018
30
9.12
0
VERTEX
10
7.59731
20
10.3796
30
9.12
0
VERTEX
10
7.60287
20
10.3684
30
9.12
0
VERTEX
10
7.6126
20
10.3587
30
9.12
0
VERTEX
10
7.61817
20
10.3531
30
9.12
0
VERTEX
10
7.62095
20
10.3504
30
9.12
0
VERTEX
10
7.62095
20
10.3476
30
9.12
0
VERTEX
10
7.63068
20
10.3365
30
9.12
0
VERTEX
10
7.63763
20
10.3267
30
9.12
0
VERTEX
10
7.64875
20
10.3212
30
9.12
0
VERTEX
10
7.65432
20
10.3184
30
9.12
0
VERTEX
10
7.69881
20
10.317
30
9.12
0
VERTEX
10
7.72106
20
10.317
30
9.12
0
VERTEX
10
7.72662
20
10.317
30
9.12
0
VERTEX
10
7.73774
20
10.3212
30
9.12
0
VERTEX
10
7.75999
20
10.3226
30
9.12
0
VERTEX
10
7.77111
20
10.3226
30
9.12
0
VERTEX
10
7.77667
20
10.3226
30
9.12
0
VERTEX
10
7.77946
20
10.3226
30
9.12
0
VERTEX
10
7.78085
20
10.3198
30
9.12
0
VERTEX
10
7.79058
20
10.3295
30
9.12
0
VERTEX
10
7.79336
20
10.3323
30
9.12
0
VERTEX
10
7.79614
20
10.3323
30
9.12
0
VERTEX
10
7.80309
20
10.3392
30
9.12
0
VERTEX
10
7.80309
20
10.342
30
9.12
0
VERTEX
10
7.81144
20
10.3531
30
9.12
0
VERTEX
10
7.81978
20
10.3615
30
9.12
0
VERTEX
10
7.83646
20
10.3837
30
9.12
0
VERTEX
10
7.84342
20
10.3935
30
9.12
0
VERTEX
10
7.84481
20
10.399
30
9.12
0
VERTEX
10
7.84898
20
10.4046
30
9.12
0
VERTEX
10
7.85176
20
10.4157
30
9.12
0
VERTEX
10
7.85732
20
10.4199
30
9.12
0
VERTEX
10
7.86149
20
10.4421
30
9.12
0
VERTEX
10
7.86288
20
10.4644
30
9.12
0
VERTEX
10
7.86149
20
10.5089
30
9.12
0
VERTEX
10
7.85732
20
10.5311
30
9.12
0
VERTEX
10
7.85315
20
10.5422
30
9.12
0
VERTEX
10
7.84342
20
10.5492
30
9.12
0
VERTEX
10
7.83924
20
10.5548
30
9.12
0
VERTEX
10
7.83368
20
10.5575
30
9.12
0
VERTEX
10
7.81283
20
10.5756
30
9.12
0
VERTEX
10
7.80726
20
10.5798
30
9.12
0
VERTEX
10
7.78502
20
10.5881
30
9.12
0
VERTEX
10
7.77389
20
10.5965
30
9.12
0
VERTEX
10
7.76833
20
10.5979
30
9.12
0
VERTEX
10
7.75721
20
10.6048
30
9.12
0
VERTEX
10
7.74609
20
10.6076
30
9.12
0
VERTEX
10
7.73496
20
10.6159
30
9.12
0
VERTEX
10
7.7294
20
10.6201
30
9.12
0
VERTEX
10
7.72384
20
10.6201
30
9.12
0
VERTEX
10
7.72245
20
10.6229
30
9.12
0
VERTEX
10
7.7002
20
10.6229
30
9.12
0
VERTEX
10
7.68908
20
10.6201
30
9.12
0
VERTEX
10
7.67795
20
10.6201
30
9.12
0
VERTEX
10
7.65571
20
10.6145
30
9.12
0
VERTEX
10
7.64458
20
10.6076
30
9.12
0
VERTEX
10
7.64041
20
10.6048
30
9.12
0
VERTEX
10
7.63902
20
10.5992
30
9.12
0
VERTEX
10
7.62929
20
10.5895
30
9.12
0
VERTEX
10
7.62234
20
10.5784
30
9.12
0
VERTEX
10
7.6126
20
10.5714
30
9.12
0
VERTEX
10
7.60565
20
10.5659
30
9.12
0
VERTEX
10
7.60148
20
10.5548
30
9.12
0
VERTEX
10
7.59453
20
10.5436
30
9.12
0
VERTEX
10
7.59453
20
10.5381
30
9.12
0
VERTEX
10
7.58619
20
10.5158
30
9.12
0
VERTEX
10
7.5848
20
10.4936
30
9.12
0
VERTEX
10
7.5848
20
10.4825
30
9.12
0
VERTEX
10
7.58201
20
10.4713
30
9.12
0
VERTEX
10
7.58201
20
10.4491
30
9.12
0
VERTEX
10
7.58201
20
10.438
30
9.12
0
VERTEX
10
7.58201
20
10.4366
30
9.12
0
SEQEND
0
POLYLINE
62
31
66
1
70
1
3
contour
0
VERTEX
10
7.45186
20
10.4733
30
9.12
0
VERTEX
10
7.45746
20
10.4434
30
9.12
0
VERTEX
10
7.46119
20
10.3837
30
9.12
0
VERTEX
10
7.46679
20
10.3538
30
9.12
0
VERTEX
10
7.46679
20
10.3389
30
9.12
0
VERTEX
10
7.46679
20
10.3314
30
9.12
0
VERTEX
10
7.47985
20
10.3016
30
9.12
0
VERTEX
10
7.48918
20
10.2717
30
9.12
0
VERTEX
10
7.48918
20
10.268
30
9.12
0
VERTEX
10
7.49291
20
10.2643
30
9.12
0
VERTEX
10
7.49665
20
10.2493
30
9.12
0
VERTEX
10
7.49851
20
10.2195
30
9.12
0
VERTEX
10
7.50038
20
10.2045
30
9.12
0
VERTEX
10
7.50598
20
10.1896
30
9.12
0
VERTEX
10
7.51344
20
10.1803
30
9.12
0
VERTEX
10
7.51531
20
10.1728
30
9.12
0
VERTEX
10
7.53024
20
10.1635
30
9.12
0
VERTEX
10
7.54517
20
10.1579
30
9.12
0
VERTEX
10
7.55263
20
10.1542
30
9.12
0
VERTEX
10
7.55637
20
10.1504
30
9.12
0
VERTEX
10
7.56383
20
10.1486
30
9.12
0
VERTEX
10
7.56943
20
10.143
30
9.12
0
VERTEX
10
7.58436
20
10.1411
30
9.12
0
VERTEX
10
7.58996
20
10.1336
30
9.12
0
VERTEX
10
7.60489
20
10.128
30
9.12
0
VERTEX
10
7.63475
20
10.128
30
9.12
0
VERTEX
10
7.69447
20
10.1374
30
9.12
0
VERTEX
10
7.70193
20
10.1374
30
9.12
0
VERTEX
10
7.70566
20
10.1411
30
9.12
0
VERTEX
10
7.76538
20
10.1523
30
9.12
0
VERTEX
10
7.76912
20
10.156
30
9.12
0
VERTEX
10
7.78405
20
10.1616
30
9.12
0
VERTEX
10
7.79898
20
10.171
30
9.12
0
VERTEX
10
7.81204
20
10.1766
30
9.12
0
VERTEX
10
7.81577
20
10.1803
30
9.12
0
VERTEX
10
7.8307
20
10.184
30
9.12
0
VERTEX
10
7.86056
20
10.2045
30
9.12
0
VERTEX
10
7.87549
20
10.2157
30
9.12
0
VERTEX
10
7.87922
20
10.2195
30
9.12
0
VERTEX
10
7.93894
20
10.2437
30
9.12
0
VERTEX
10
7.96507
20
10.2568
30
9.12
0
VERTEX
10
7.9688
20
10.2643
30
9.12
0
VERTEX
10
7.98373
20
10.268
30
9.12
0
VERTEX
10
7.98746
20
10.268
30
9.12
0
VERTEX
10
7.9912
20
10.2717
30
9.12
0
VERTEX
10
8.02106
20
10.2811
30
9.12
0
VERTEX
10
8.07891
20
10.3128
30
9.12
0
VERTEX
10
8.09197
20
10.3259
30
9.12
0
VERTEX
10
8.09384
20
10.3296
30
9.12
0
VERTEX
10
8.09757
20
10.3296
30
9.12
0
VERTEX
10
8.11997
20
10.3557
30
9.12
0
VERTEX
10
8.1293
20
10.3706
30
9.12
0
VERTEX
10
8.1349
20
10.3781
30
9.12
0
VERTEX
10
8.14609
20
10.408
30
9.12
0
VERTEX
10
8.15356
20
10.4154
30
9.12
0
VERTEX
10
8.15729
20
10.4229
30
9.12
0
VERTEX
10
8.16102
20
10.4248
30
9.12
0
VERTEX
10
8.16662
20
10.4378
30
9.12
0
VERTEX
10
8.17782
20
10.4528
30
9.12
0
VERTEX
10
8.18528
20
10.4565
30
9.12
0
VERTEX
10
8.19462
20
10.4714
30
9.12
0
VERTEX
10
8.20021
20
10.477
30
9.12
0
VERTEX
10
8.20208
20
10.4919
30
9.12
0
VERTEX
10
8.20581
20
10.4938
30
9.12
0
VERTEX
10
8.21514
20
10.5535
30
9.12
0
VERTEX
10
8.21514
20
10.5834
30
9.12
0
VERTEX
10
8.21514
20
10.5983
30
9.12
0
VERTEX
10
8.21701
20
10.6058
30
9.12
0
VERTEX
10
8.22261
20
10.6133
30
9.12
0
VERTEX
10
8.22448
20
10.6207
30
9.12
0
VERTEX
10
8.23007
20
10.6263
30
9.12
0
VERTEX
10
8.23194
20
10.6338
30
9.12
0
VERTEX
10
8.24687
20
10.6468
30
9.12
0
VERTEX
10
8.24874
20
10.6543
30
9.12
0
VERTEX
10
8.26927
20
10.6823
30
9.12
0
VERTEX
10
8.27486
20
10.6972
30
9.12
0
VERTEX
10
8.27113
20
10.7271
30
9.12
0
VERTEX
10
8.26553
20
10.742
30
9.12
0
VERTEX
10
8.2674
20
10.7458
30
9.12
0
VERTEX
10
8.25993
20
10.7514
30
9.12
0
VERTEX
10
8.2506
20
10.7644
30
9.12
0
VERTEX
10
8.24874
20
10.7719
30
9.12
0
VERTEX
10
8.24127
20
10.7793
30
9.12
0
VERTEX
10
8.22821
20
10.7831
30
9.12
0
VERTEX
10
8.22074
20
10.7868
30
9.12
0
VERTEX
10
8.21328
20
10.7868
30
9.12
0
VERTEX
10
8.18342
20
10.8036
30
9.12
0
VERTEX
10
8.16849
20
10.8092
30
9.12
0
VERTEX
10
8.16289
20
10.8148
30
9.12
0
VERTEX
10
8.14796
20
10.8167
30
9.12
0
VERTEX
10
8.1181
20
10.826
30
9.12
0
VERTEX
10
8.08824
20
10.8297
30
9.12
0
VERTEX
10
8.05838
20
10.8279
30
9.12
0
VERTEX
10
8.04345
20
10.8279
30
9.12
0
VERTEX
10
8.01359
20
10.8372
30
9.12
0
VERTEX
10
7.95387
20
10.8447
30
9.12
0
VERTEX
10
7.92401
20
10.8503
30
9.12
0
VERTEX
10
7.89415
20
10.8503
30
9.12
0
VERTEX
10
7.88669
20
10.8503
30
9.12
0
VERTEX
10
7.88296
20
10.8503
30
9.12
0
VERTEX
10
7.87922
20
10.854
30
9.12
0
VERTEX
10
7.8195
20
10.8577
30
9.12
0
VERTEX
10
7.80457
20
10.8596
30
9.12
0
VERTEX
10
7.77471
20
10.8559
30
9.12
0
VERTEX
10
7.71499
20
10.8577
30
9.12
0
VERTEX
10
7.70006
20
10.8596
30
9.12
0
VERTEX
10
7.67021
20
10.8577
30
9.12
0
VERTEX
10
7.65528
20
10.854
30
9.12
0
VERTEX
10
7.64781
20
10.8521
30
9.12
0
VERTEX
10
7.59182
20
10.8129
30
9.12
0
VERTEX
10
7.57876
20
10.8017
30
9.12
0
VERTEX
10
7.5489
20
10.7924
30
9.12
0
VERTEX
10
7.53024
20
10.7625
30
9.12
0
VERTEX
10
7.52651
20
10.7551
30
9.12
0
VERTEX
10
7.52277
20
10.7514
30
9.12
0
VERTEX
10
7.52277
20
10.7476
30
9.12
0
VERTEX
10
7.51531
20
10.742
30
9.12
0
VERTEX
10
7.50411
20
10.7122
30
9.12
0
VERTEX
10
7.50038
20
10.7047
30
9.12
0
VERTEX
10
7.50038
20
10.701
30
9.12
0
VERTEX
10
7.49665
20
10.6972
30
9.12
0
VERTEX
10
7.49291
20
10.6823
30
9.12
0
VERTEX
10
7.48358
20
10.6674
30
9.12
0
VERTEX
10
7.47985
20
10.6636
30
9.12
0
VERTEX
10
7.46679
20
10.6338
30
9.12
0
VERTEX
10
7.45746
20
10.6039
30
9.12
0
VERTEX
10
7.45186
20
10.5442
30
9.12
0
VERTEX
10
7.45186
20
10.4845
30
9.12
0
VERTEX
10
7.45186
20
10.477
30
9.12
0
VERTEX
10
7.45186
20
10.4751
30
9.12
0
SEQEND
0
POLYLINE
62
227
66
1
70
1
3
endoplasmic_reticulum
0
VERTEX
10
7.87705
20
10.3999
30
9.12
0
VERTEX
10
7.87795
20
10.3856
30
9.12
0
VERTEX
10
7.88602
20
10.3712
30
9.12
0
VERTEX
10
7.89409
20
10.3435
30
9.12
0
VERTEX
10
7.89588
20
10.3399
30
9.12
0
VERTEX
10
7.90216
20
10.3345
30
9.12
0
VERTEX
10
7.90574
20
10.3336
30
9.12
0
VERTEX
10
7.90933
20
10.3309
30
9.12
0
VERTEX
10
7.9165
20
10.33
30
9.12
0
VERTEX
10
7.92009
20
10.33
30
9.12
0
VERTEX
10
7.92636
20
10.3345
30
9.12
0
VERTEX
10
7.92995
20
10.3372
30
9.12
0
VERTEX
10
7.93354
20
10.3435
30
9.12
0
VERTEX
10
7.93443
20
10.3578
30
9.12
0
VERTEX
10
7.93085
20
10.3721
30
9.12
0
VERTEX
10
7.93085
20
10.3757
30
9.12
0
VERTEX
10
7.92816
20
10.3829
30
9.12
0
VERTEX
10
7.92547
20
10.3856
30
9.12
0
VERTEX
10
7.92278
20
10.391
30
9.12
0
VERTEX
10
7.92009
20
10.3937
30
9.12
0
VERTEX
10
7.92009
20
10.408
30
9.12
0
VERTEX
10
7.92188
20
10.4152
30
9.12
0
VERTEX
10
7.92188
20
10.4188
30
9.12
0
VERTEX
10
7.92457
20
10.4259
30
9.12
0
VERTEX
10
7.92636
20
10.4295
30
9.12
0
VERTEX
10
7.92547
20
10.4439
30
9.12
0
VERTEX
10
7.92547
20
10.451
30
9.12
0
VERTEX
10
7.92457
20
10.4546
30
9.12
0
VERTEX
10
7.9183
20
10.4609
30
9.12
0
VERTEX
10
7.91112
20
10.4609
30
9.12
0
VERTEX
10
7.90485
20
10.4564
30
9.12
0
VERTEX
10
7.89767
20
10.4537
30
9.12
0
VERTEX
10
7.88692
20
10.4412
30
9.12
0
VERTEX
10
7.88243
20
10.4349
30
9.12
0
VERTEX
10
7.87885
20
10.434
30
9.12
0
VERTEX
10
7.87705
20
10.4268
30
9.12
0
VERTEX
10
7.87705
20
10.4125
30
9.12
0
VERTEX
10
7.87705
20
10.4053
30
9.12
0
VERTEX
10
7.87705
20
10.4017
30
9.12
0
VERTEX
10
7.87705
20
10.4008
30
9.12
0
SEQEND
0
POLYLINE
62
227
66
1
70
1
3
endoplasmic_reticulum
0
VERTEX
10
7.82864
20
10.6232
30
9.12
0
VERTEX
10
7.82954
20
10.616
30
9.12
0
VERTEX
10
7.83492
20
10.6097
30
9.12
0
VERTEX
10
7.84209
20
10.6043
30
9.12
0
VERTEX
10
7.87078
20
10.5873
30
9.12
0
VERTEX
10
7.88333
20
10.5775
30
9.12
0
VERTEX
10
7.88602
20
10.5739
30
9.12
0
VERTEX
10
7.88961
20
10.5721
30
9.12
0
VERTEX
10
7.90395
20
10.5586
30
9.12
0
VERTEX
10
7.90574
20
10.555
30
9.12
0
VERTEX
10
7.91292
20
10.5497
30
9.12
0
VERTEX
10
7.91561
20
10.5425
30
9.12
0
VERTEX
10
7.9183
20
10.5389
30
9.12
0
VERTEX
10
7.92098
20
10.5317
30
9.12
0
VERTEX
10
7.92367
20
10.5281
30
9.12
0
VERTEX
10
7.92547
20
10.5281
30
9.12
0
VERTEX
10
7.92547
20
10.5263
30
9.12
0
VERTEX
10
7.93174
20
10.521
30
9.12
0
VERTEX
10
7.93443
20
10.5174
30
9.12
0
VERTEX
10
7.94161
20
10.5156
30
9.12
0
VERTEX
10
7.95595
20
10.5165
30
9.12
0
VERTEX
10
7.96312
20
10.5183
30
9.12
0
VERTEX
10
7.96671
20
10.5192
30
9.12
0
VERTEX
10
7.97029
20
10.5263
30
9.12
0
VERTEX
10
7.97029
20
10.5407
30
9.12
0
VERTEX
10
7.9694
20
10.5443
30
9.12
0
VERTEX
10
7.9694
20
10.5461
30
9.12
0
VERTEX
10
7.96761
20
10.547
30
9.12
0
VERTEX
10
7.96761
20
10.5488
30
9.12
0
VERTEX
10
7.96581
20
10.5506
30
9.12
0
VERTEX
10
7.96581
20
10.5523
30
9.12
0
VERTEX
10
7.96402
20
10.5541
30
9.12
0
VERTEX
10
7.96223
20
10.5613
30
9.12
0
VERTEX
10
7.95774
20
10.5685
30
9.12
0
VERTEX
10
7.95505
20
10.5721
30
9.12
0
VERTEX
10
7.95236
20
10.5739
30
9.12
0
VERTEX
10
7.94519
20
10.5801
30
9.12
0
VERTEX
10
7.94071
20
10.5873
30
9.12
0
VERTEX
10
7.93802
20
10.5909
30
9.12
0
VERTEX
10
7.93533
20
10.5981
30
9.12
0
VERTEX
10
7.93264
20
10.6017
30
9.12
0
VERTEX
10
7.93085
20
10.6026
30
9.12
0
VERTEX
10
7.93085
20
10.6043
30
9.12
0
VERTEX
10
7.92457
20
10.6097
30
9.12
0
VERTEX
10
7.92278
20
10.6097
30
9.12
0
VERTEX
10
7.91023
20
10.6196
30
9.12
0
VERTEX
10
7.90305
20
10.6223
30
9.12
0
VERTEX
10
7.89588
20
10.6268
30
9.12
0
VERTEX
10
7.89499
20
10.6286
30
9.12
0
VERTEX
10
7.89319
20
10.6286
30
9.12
0
VERTEX
10
7.88692
20
10.6339
30
9.12
0
VERTEX
10
7.88333
20
10.6366
30
9.12
0
VERTEX
10
7.86988
20
10.642
30
9.12
0
VERTEX
10
7.84119
20
10.6429
30
9.12
0
VERTEX
10
7.83402
20
10.6402
30
9.12
0
VERTEX
10
7.83043
20
10.633
30
9.12
0
VERTEX
10
7.82864
20
10.6295
30
9.12
0
VERTEX
10
7.82864
20
10.6259
30
9.12
0
VERTEX
10
7.82864
20
10.6241
30
9.12
0
SEQEND
0
POLYLINE
62
227
66
1
70
1
3
endoplasmic_reticulum
0
VERTEX
10
7.75602
20
10.6662
30
9.12
0
VERTEX
10
7.75692
20
10.6626
30
9.12
0
VERTEX
10
7.75692
20
10.6608
30
9.12
0
VERTEX
10
7.7614
20
10.6546
30
9.12
0
VERTEX
10
7.76768
20
10.6492
30
9.12
0
VERTEX
10
7.76857
20
10.6474
30
9.12
0
VERTEX
10
7.77037
20
10.6474
30
9.12
0
VERTEX
10
7.77126
20
10.6438
30
9.12
0
VERTEX
10
7.77485
20
10.6411
30
9.12
0
VERTEX
10
7.78202
20
10.6402
30
9.12
0
VERTEX
10
7.78381
20
10.6384
30
9.12
0
VERTEX
10
7.79099
20
10.6375
30
9.12
0
VERTEX
10
7.80533
20
10.6393
30
9.12
0
VERTEX
10
7.80892
20
10.6402
30
9.12
0
VERTEX
10
7.81161
20
10.6429
30
9.12
0
VERTEX
10
7.8134
20
10.6429
30
9.12
0
VERTEX
10
7.81609
20
10.6465
30
9.12
0
VERTEX
10
7.81609
20
10.6608
30
9.12
0
VERTEX
10
7.81609
20
10.668
30
9.12
0
VERTEX
10
7.81519
20
10.6716
30
9.12
0
VERTEX
10
7.8134
20
10.6725
30
9.12
0
VERTEX
10
7.8134
20
10.6797
30
9.12
0
VERTEX
10
7.81071
20
10.6859
30
9.12
0
VERTEX
10
7.80981
20
10.685
30
9.12
0
VERTEX
10
7.80623
20
10.6877
30
9.12
0
VERTEX
10
7.80174
20
10.694
30
9.12
0
VERTEX
10
7.79547
20
10.6985
30
9.12
0
VERTEX
10
7.78112
20
10.7021
30
9.12
0
VERTEX
10
7.77754
20
10.703
30
9.12
0
VERTEX
10
7.77037
20
10.7012
30
9.12
0
VERTEX
10
7.76319
20
10.6949
30
9.12
0
VERTEX
10
7.75871
20
10.6877
30
9.12
0
VERTEX
10
7.75602
20
10.685
30
9.12
0
VERTEX
10
7.75602
20
10.6707
30
9.12
0
VERTEX
10
7.75602
20
10.6671
30
9.12
0
SEQEND
0
POLYLINE
62
227
66
1
70
1
3
endoplasmic_reticulum
0
VERTEX
10
7.59912
20
10.6841
30
9.12
0
VERTEX
10
7.60092
20
10.6806
30
9.12
0
VERTEX
10
7.60092
20
10.677
30
9.12
0
VERTEX
10
7.61257
20
10.6653
30
9.12
0
VERTEX
10
7.61975
20
10.6608
30
9.12
0
VERTEX
10
7.62333
20
10.659
30
9.12
0
VERTEX
10
7.62512
20
10.6572
30
9.12
0
VERTEX
10
7.6323
20
10.6563
30
9.12
0
VERTEX
10
7.63588
20
10.6555
30
9.12
0
VERTEX
10
7.63768
20
10.6537
30
9.12
0
VERTEX
10
7.65202
20
10.6528
30
9.12
0
VERTEX
10
7.65919
20
10.6537
30
9.12
0
VERTEX
10
7.66278
20
10.6546
30
9.12
0
VERTEX
10
7.66457
20
10.6563
30
9.12
0
VERTEX
10
7.66816
20
10.6572
30
9.12
0
VERTEX
10
7.67175
20
10.6599
30
9.12
0
VERTEX
10
7.67354
20
10.6599
30
9.12
0
VERTEX
10
7.67623
20
10.6671
30
9.12
0
VERTEX
10
7.67712
20
10.6815
30
9.12
0
VERTEX
10
7.67443
20
10.6886
30
9.12
0
VERTEX
10
7.66906
20
10.694
30
9.12
0
VERTEX
10
7.66547
20
10.6976
30
9.12
0
VERTEX
10
7.66188
20
10.6994
30
9.12
0
VERTEX
10
7.64843
20
10.711
30
9.12
0
VERTEX
10
7.63409
20
10.7173
30
9.12
0
VERTEX
10
7.62692
20
10.7173
30
9.12
0
VERTEX
10
7.61257
20
10.7128
30
9.12
0
VERTEX
10
7.60899
20
10.711
30
9.12
0
VERTEX
10
7.6054
20
10.711
30
9.12
0
VERTEX
10
7.60361
20
10.711
30
9.12
0
VERTEX
10
7.60181
20
10.7092
30
9.12
0
VERTEX
10
7.59912
20
10.6949
30
9.12
0
VERTEX
10
7.59912
20
10.6877
30
9.12
0
VERTEX
10
7.59912
20
10.685
30
9.12
0
SEQEND
0
POLYLINE
62
227
66
1
70
1
3
endoplasmic_reticulum
0
VERTEX
10
7.74257
20
10.7532
30
9.12
0
VERTEX
10
7.74437
20
10.7496
30
9.12
0
VERTEX
10
7.74795
20
10.746
30
9.12
0
VERTEX
10
7.75243
20
10.7388
30
9.12
0
VERTEX
10
7.75602
20
10.7361
30
9.12
0
VERTEX
10
7.75961
20
10.7352
30
9.12
0
VERTEX
10
7.76319
20
10.7317
30
9.12
0
VERTEX
10
7.76947
20
10.7281
30
9.12
0
VERTEX
10
7.77664
20
10.7263
30
9.12
0
VERTEX
10
7.78023
20
10.7263
30
9.12
0
VERTEX
10
7.78202
20
10.7299
30
9.12
0
VERTEX
10
7.78381
20
10.7317
30
9.12
0
VERTEX
10
7.78561
20
10.746
30
9.12
0
VERTEX
10
7.78381
20
10.7532
30
9.12
0
VERTEX
10
7.77216
20
10.7639
30
9.12
0
VERTEX
10
7.76588
20
10.7693
30
9.12
0
VERTEX
10
7.7623
20
10.7711
30
9.12
0
VERTEX
10
7.74795
20
10.7639
30
9.12
0
VERTEX
10
7.74437
20
10.7621
30
9.12
0
VERTEX
10
7.74257
20
10.7603
30
9.12
0
VERTEX
10
7.74257
20
10.7541
30
9.12
0
SEQEND
0
POLYLINE
62
227
66
1
70
1
3
endoplasmic_reticulum
0
VERTEX
10
7.71299
20
10.2681
30
9.12
0
VERTEX
10
7.71478
20
10.2538
30
9.12
0
VERTEX
10
7.71657
20
10.2502
30
9.12
0
VERTEX
10
7.72374
20
10.252
30
9.12
0
VERTEX
10
7.72554
20
10.252
30
9.12
0
VERTEX
10
7.72912
20
10.2556
30
9.12
0
VERTEX
10
7.73092
20
10.2592
30
9.12
0
VERTEX
10
7.72912
20
10.2663
30
9.12
0
VERTEX
10
7.72285
20
10.2726
30
9.12
0
VERTEX
10
7.72195
20
10.2744
30
9.12
0
VERTEX
10
7.71478
20
10.2735
30
9.12
0
VERTEX
10
7.71299
20
10.2699
30
9.12
0
VERTEX
10
7.71299
20
10.269
30
9.12
0
SEQEND
0
POLYLINE
62
227
66
1
70
1
3
endoplasmic_reticulum
0
VERTEX
10
7.54354
20
10.3121
30
9.12
0
VERTEX
10
7.54533
20
10.3049
30
9.12
0
VERTEX
10
7.54623
20
10.3013
30
9.12
0
VERTEX
10
7.54802
20
10.2995
30
9.12
0
VERTEX
10
7.54981
20
10.2995
30
9.12
0
VERTEX
10
7.55699
20
10.2941
30
9.12
0
VERTEX
10
7.56416
20
10.2941
30
9.12
0
VERTEX
10
7.57133
20
10.2968
30
9.12
0
VERTEX
10
7.57133
20
10.3112
30
9.12
0
VERTEX
10
7.56954
20
10.3183
30
9.12
0
VERTEX
10
7.56775
20
10.3219
30
9.12
0
VERTEX
10
7.56416
20
10.3246
30
9.12
0
VERTEX
10
7.55699
20
10.3255
30
9.12
0
VERTEX
10
7.5543
20
10.339
30
9.12
0
VERTEX
10
7.5525
20
10.3372
30
9.12
0
VERTEX
10
7.5525
20
10.3354
30
9.12
0
VERTEX
10
7.54713
20
10.3282
30
9.12
0
VERTEX
10
7.54354
20
10.321
30
9.12
0
VERTEX
10
7.54354
20
10.3139
30
9.12
0
VERTEX
10
7.54354
20
10.313
30
9.12
0
SEQEND
0
POLYLINE
62
236
66
1
70
1
3
postsynaptic_density
0
VERTEX
10
6.04621
20
10.8485
30
9.12
0
VERTEX
10
6.1156
20
10.6899
30
9.12
0
VERTEX
10
6.15029
20
10.6106
30
9.12
0
VERTEX
10
6.15029
20
10.6007
30
9.12
0
VERTEX
10
6.17011
20
10.5957
30
9.12
0
VERTEX
10
6.17507
20
10.5858
30
9.12
0
VERTEX
10
6.18498
20
10.5957
30
9.12
0
VERTEX
10
6.22463
20
10.6057
30
9.12
0
VERTEX
10
6.22958
20
10.6156
30
9.12
0
VERTEX
10
6.26923
20
10.6205
30
9.12
0
VERTEX
10
6.27914
20
10.6205
30
9.12
0
VERTEX
10
6.31383
20
10.6503
30
9.12
0
VERTEX
10
6.35348
20
10.6651
30
9.12
0
VERTEX
10
6.3733
20
10.6701
30
9.12
0
VERTEX
10
6.38322
20
10.675
30
9.12
0
VERTEX
10
6.37826
20
10.6949
30
9.12
0
VERTEX
10
6.3733
20
10.6998
30
9.12
0
VERTEX
10
6.38322
20
10.6998
30
9.12
0
VERTEX
10
6.38817
20
10.7395
30
9.12
0
VERTEX
10
6.37826
20
10.7791
30
9.12
0
VERTEX
10
6.30888
20
10.8485
30
9.12
0
VERTEX
10
6.31383
20
10.8881
30
9.12
0
VERTEX
10
6.30888
20
10.9278
30
9.12
0
VERTEX
10
6.28905
20
10.9327
30
9.12
0
VERTEX
10
6.20976
20
10.9179
30
9.12
0
VERTEX
10
6.17507
20
10.8881
30
9.12
0
VERTEX
10
6.15524
20
10.8832
30
9.12
0
VERTEX
10
6.14533
20
10.8733
30
9.12
0
VERTEX
10
6.06604
20
10.8584
30
9.12
0
VERTEX
10
6.04621
20
10.8535
30
9.12
0
SEQEND
0
ENDSEC
0
EOF
