0
SECTION
2
ENTITIES
0
POLYLINE
62
31
66
1
70
1
3
contour
0
VERTEX
10
8.92937
20
9.35288
30
5.92
0
VERTEX
10
8.9338
20
9.34401
30
5.92
0
VERTEX
10
8.9338
20
9.33515
30
5.92
0
VERTEX
10
8.96263
20
9.30188
30
5.92
0
VERTEX
10
8.96706
20
9.30188
30
5.92
0
VERTEX
10
8.98258
20
9.28636
30
5.92
0
VERTEX
10
8.98702
20
9.28636
30
5.92
0
VERTEX
10
8.99145
20
9.28193
30
5.92
0
VERTEX
10
8.99367
20
9.27306
30
5.92
0
VERTEX
10
8.99367
20
9.26862
30
5.92
0
VERTEX
10
9.00254
20
9.26197
30
5.92
0
VERTEX
10
9.00697
20
9.2531
30
5.92
0
VERTEX
10
9.0225
20
9.2398
30
5.92
0
VERTEX
10
9.05797
20
9.21984
30
5.92
0
VERTEX
10
9.07571
20
9.21097
30
5.92
0
VERTEX
10
9.08458
20
9.20654
30
5.92
0
VERTEX
10
9.08902
20
9.2021
30
5.92
0
VERTEX
10
9.12449
20
9.1888
30
5.92
0
VERTEX
10
9.15997
20
9.17993
30
5.92
0
VERTEX
10
9.23093
20
9.17771
30
5.92
0
VERTEX
10
9.26641
20
9.18215
30
5.92
0
VERTEX
10
9.28415
20
9.18658
30
5.92
0
VERTEX
10
9.29967
20
9.19989
30
5.92
0
VERTEX
10
9.3041
20
9.19989
30
5.92
0
VERTEX
10
9.30854
20
9.20432
30
5.92
0
VERTEX
10
9.30854
20
9.20876
30
5.92
0
VERTEX
10
9.32406
20
9.22649
30
5.92
0
VERTEX
10
9.33958
20
9.25975
30
5.92
0
VERTEX
10
9.33958
20
9.26419
30
5.92
0
VERTEX
10
9.34623
20
9.27084
30
5.92
0
VERTEX
10
9.3551
20
9.30632
30
5.92
0
VERTEX
10
9.36175
20
9.32406
30
5.92
0
VERTEX
10
9.35954
20
9.35954
30
5.92
0
VERTEX
10
9.35954
20
9.37728
30
5.92
0
VERTEX
10
9.35288
20
9.41275
30
5.92
0
VERTEX
10
9.34845
20
9.41497
30
5.92
0
VERTEX
10
9.3418
20
9.43271
30
5.92
0
VERTEX
10
9.33293
20
9.44158
30
5.92
0
VERTEX
10
9.26197
20
9.4438
30
5.92
0
VERTEX
10
9.24423
20
9.45045
30
5.92
0
VERTEX
10
9.22649
20
9.45267
30
5.92
0
VERTEX
10
9.21762
20
9.4571
30
5.92
0
VERTEX
10
9.21319
20
9.46154
30
5.92
0
VERTEX
10
9.20876
20
9.46154
30
5.92
0
VERTEX
10
9.19767
20
9.46819
30
5.92
0
VERTEX
10
9.17993
20
9.47927
30
5.92
0
VERTEX
10
9.17328
20
9.48814
30
5.92
0
VERTEX
10
9.16441
20
9.49036
30
5.92
0
VERTEX
10
9.14889
20
9.50145
30
5.92
0
VERTEX
10
9.14002
20
9.5081
30
5.92
0
VERTEX
10
9.10454
20
9.51032
30
5.92
0
VERTEX
10
9.0868
20
9.51032
30
5.92
0
VERTEX
10
9.06906
20
9.49923
30
5.92
0
VERTEX
10
9.05576
20
9.48814
30
5.92
0
VERTEX
10
9.02028
20
9.47262
30
5.92
0
VERTEX
10
9.00254
20
9.46597
30
5.92
0
VERTEX
10
8.99367
20
9.46154
30
5.92
0
VERTEX
10
8.9848
20
9.46154
30
5.92
0
VERTEX
10
8.97593
20
9.45488
30
5.92
0
VERTEX
10
8.96706
20
9.45267
30
5.92
0
VERTEX
10
8.94932
20
9.44158
30
5.92
0
VERTEX
10
8.94045
20
9.43493
30
5.92
0
VERTEX
10
8.93602
20
9.42606
30
5.92
0
VERTEX
10
8.93158
20
9.42162
30
5.92
0
VERTEX
10
8.92937
20
9.38615
30
5.92
0
VERTEX
10
8.92937
20
9.36841
30
5.92
0
VERTEX
10
8.92937
20
9.35954
30
5.92
0
VERTEX
10
8.92937
20
9.3551
30
5.92
0
SEQEND
0
POLYLINE
62
31
66
1
70
1
3
contour
0
VERTEX
10
7.51296
20
9.27931
30
5.92
0
VERTEX
10
7.51829
20
9.258
30
5.92
0
VERTEX
10
7.51829
20
9.24734
30
5.92
0
VERTEX
10
7.52362
20
9.23668
30
5.92
0
VERTEX
10
7.56358
20
9.20471
30
5.92
0
VERTEX
10
7.58223
20
9.19139
30
5.92
0
VERTEX
10
7.59289
20
9.18606
30
5.92
0
VERTEX
10
7.59822
20
9.18606
30
5.92
0
VERTEX
10
7.60355
20
9.18074
30
5.92
0
VERTEX
10
7.60887
20
9.18074
30
5.92
0
VERTEX
10
7.64884
20
9.15676
30
5.92
0
VERTEX
10
7.67015
20
9.14344
30
5.92
0
VERTEX
10
7.68081
20
9.13544
30
5.92
0
VERTEX
10
7.69146
20
9.13278
30
5.92
0
VERTEX
10
7.71278
20
9.11946
30
5.92
0
VERTEX
10
7.7554
20
9.10081
30
5.92
0
VERTEX
10
7.79803
20
9.10081
30
5.92
0
VERTEX
10
7.83799
20
9.12745
30
5.92
0
VERTEX
10
7.84332
20
9.12745
30
5.92
0
VERTEX
10
7.84599
20
9.13278
30
5.92
0
VERTEX
10
7.85664
20
9.13544
30
5.92
0
VERTEX
10
7.86197
20
9.14344
30
5.92
0
VERTEX
10
7.88062
20
9.15676
30
5.92
0
VERTEX
10
7.88595
20
9.15942
30
5.92
0
VERTEX
10
7.88595
20
9.17008
30
5.92
0
VERTEX
10
7.89927
20
9.19139
30
5.92
0
VERTEX
10
7.91259
20
9.20471
30
5.92
0
VERTEX
10
7.91259
20
9.21537
30
5.92
0
VERTEX
10
7.91259
20
9.2207
30
5.92
0
VERTEX
10
7.9339
20
9.23668
30
5.92
0
VERTEX
10
7.94722
20
9.25
30
5.92
0
VERTEX
10
7.94722
20
9.25533
30
5.92
0
VERTEX
10
7.95255
20
9.26066
30
5.92
0
VERTEX
10
7.94989
20
9.30329
30
5.92
0
VERTEX
10
7.94722
20
9.31394
30
5.92
0
VERTEX
10
7.9419
20
9.31927
30
5.92
0
VERTEX
10
7.93923
20
9.32993
30
5.92
0
VERTEX
10
7.92591
20
9.35124
30
5.92
0
VERTEX
10
7.92058
20
9.35923
30
5.92
0
VERTEX
10
7.92058
20
9.36989
30
5.92
0
VERTEX
10
7.89927
20
9.38854
30
5.92
0
VERTEX
10
7.85664
20
9.40453
30
5.92
0
VERTEX
10
7.81402
20
9.40719
30
5.92
0
VERTEX
10
7.7927
20
9.40719
30
5.92
0
VERTEX
10
7.75274
20
9.39387
30
5.92
0
VERTEX
10
7.73143
20
9.38854
30
5.92
0
VERTEX
10
7.72077
20
9.38854
30
5.92
0
VERTEX
10
7.69946
20
9.38055
30
5.92
0
VERTEX
10
7.67814
20
9.38055
30
5.92
0
VERTEX
10
7.59289
20
9.35923
30
5.92
0
VERTEX
10
7.57158
20
9.34858
30
5.92
0
VERTEX
10
7.56092
20
9.34591
30
5.92
0
VERTEX
10
7.55559
20
9.34591
30
5.92
0
VERTEX
10
7.5476
20
9.33526
30
5.92
0
VERTEX
10
7.5476
20
9.32993
30
5.92
0
VERTEX
10
7.51563
20
9.2873
30
5.92
0
VERTEX
10
7.51296
20
9.28197
30
5.92
0
SEQEND
0
POLYLINE
62
224
66
1
70
1
3
mitochondrion
0
VERTEX
10
9.13095
20
9.34786
30
5.92
0
VERTEX
10
9.13373
20
9.3423
30
5.92
0
VERTEX
10
9.13234
20
9.32005
30
5.92
0
VERTEX
10
9.14069
20
9.30893
30
5.92
0
VERTEX
10
9.14208
20
9.30337
30
5.92
0
VERTEX
10
9.14903
20
9.29363
30
5.92
0
VERTEX
10
9.16849
20
9.27973
30
5.92
0
VERTEX
10
9.17962
20
9.27556
30
5.92
0
VERTEX
10
9.19074
20
9.26861
30
5.92
0
VERTEX
10
9.19352
20
9.26861
30
5.92
0
VERTEX
10
9.20326
20
9.26165
30
5.92
0
VERTEX
10
9.2255
20
9.26026
30
5.92
0
VERTEX
10
9.24775
20
9.26165
30
5.92
0
VERTEX
10
9.25887
20
9.26582
30
5.92
0
VERTEX
10
9.27973
20
9.2839
30
5.92
0
VERTEX
10
9.28112
20
9.28668
30
5.92
0
VERTEX
10
9.2839
20
9.28668
30
5.92
0
VERTEX
10
9.30198
20
9.30615
30
5.92
0
VERTEX
10
9.30476
20
9.31171
30
5.92
0
VERTEX
10
9.30754
20
9.31449
30
5.92
0
VERTEX
10
9.30893
20
9.32561
30
5.92
0
VERTEX
10
9.30754
20
9.33118
30
5.92
0
VERTEX
10
9.30476
20
9.33118
30
5.92
0
VERTEX
10
9.30476
20
9.3423
30
5.92
0
VERTEX
10
9.2978
20
9.36455
30
5.92
0
VERTEX
10
9.29641
20
9.37011
30
5.92
0
VERTEX
10
9.29085
20
9.37428
30
5.92
0
VERTEX
10
9.28807
20
9.37984
30
5.92
0
VERTEX
10
9.26722
20
9.39374
30
5.92
0
VERTEX
10
9.26443
20
9.39653
30
5.92
0
VERTEX
10
9.24219
20
9.40209
30
5.92
0
VERTEX
10
9.23941
20
9.40209
30
5.92
0
VERTEX
10
9.23802
20
9.40487
30
5.92
0
VERTEX
10
9.19352
20
9.40348
30
5.92
0
VERTEX
10
9.17128
20
9.39931
30
5.92
0
VERTEX
10
9.16571
20
9.39931
30
5.92
0
VERTEX
10
9.15459
20
9.38957
30
5.92
0
VERTEX
10
9.14347
20
9.38401
30
5.92
0
VERTEX
10
9.13373
20
9.37428
30
5.92
0
VERTEX
10
9.13095
20
9.36872
30
5.92
0
VERTEX
10
9.13095
20
9.35759
30
5.92
0
VERTEX
10
9.13095
20
9.35203
30
5.92
0
VERTEX
10
9.13095
20
9.34925
30
5.92
0
SEQEND
0
POLYLINE
62
227
66
1
70
1
3
endoplasmic_reticulum
0
VERTEX
10
9.0327
20
9.39849
30
5.92
0
VERTEX
10
9.03539
20
9.39132
30
5.92
0
VERTEX
10
9.04167
20
9.38594
30
5.92
0
VERTEX
10
9.04794
20
9.38325
30
5.92
0
VERTEX
10
9.06229
20
9.38325
30
5.92
0
VERTEX
10
9.06587
20
9.38504
30
5.92
0
VERTEX
10
9.06946
20
9.38504
30
5.92
0
VERTEX
10
9.07125
20
9.38684
30
5.92
0
VERTEX
10
9.07843
20
9.38863
30
5.92
0
VERTEX
10
9.0847
20
9.39311
30
5.92
0
VERTEX
10
9.08918
20
9.39939
30
5.92
0
VERTEX
10
9.09008
20
9.40298
30
5.92
0
VERTEX
10
9.09277
20
9.40567
30
5.92
0
VERTEX
10
9.09277
20
9.40925
30
5.92
0
VERTEX
10
9.09546
20
9.41642
30
5.92
0
VERTEX
10
9.09636
20
9.42001
30
5.92
0
VERTEX
10
9.09546
20
9.4236
30
5.92
0
VERTEX
10
9.09546
20
9.42539
30
5.92
0
VERTEX
10
9.09277
20
9.42898
30
5.92
0
VERTEX
10
9.09187
20
9.43077
30
5.92
0
VERTEX
10
9.09008
20
9.43077
30
5.92
0
VERTEX
10
9.09098
20
9.43256
30
5.92
0
VERTEX
10
9.07663
20
9.43525
30
5.92
0
VERTEX
10
9.06946
20
9.43704
30
5.92
0
VERTEX
10
9.06587
20
9.43615
30
5.92
0
VERTEX
10
9.06318
20
9.43256
30
5.92
0
VERTEX
10
9.06139
20
9.43256
30
5.92
0
VERTEX
10
9.06049
20
9.43077
30
5.92
0
VERTEX
10
9.05691
20
9.42987
30
5.92
0
VERTEX
10
9.05153
20
9.42539
30
5.92
0
VERTEX
10
9.04974
20
9.4236
30
5.92
0
VERTEX
10
9.04256
20
9.4218
30
5.92
0
VERTEX
10
9.03629
20
9.41642
30
5.92
0
VERTEX
10
9.03539
20
9.40925
30
5.92
0
VERTEX
10
9.0327
20
9.40208
30
5.92
0
VERTEX
10
9.0327
20
9.39939
30
5.92
0
SEQEND
0
ENDSEC
0
EOF
