0
SECTION
2
ENTITIES
0
POLYLINE
62
224
66
1
70
1
3
mitochondrion
0
VERTEX
10
8.14792
20
9.74135
30
7.28
0
VERTEX
10
8.14931
20
9.71911
30
7.28
0
VERTEX
10
8.15209
20
9.70798
30
7.28
0
VERTEX
10
8.15209
20
9.70242
30
7.28
0
VERTEX
10
8.15487
20
9.69686
30
7.28
0
VERTEX
10
8.15487
20
9.6913
30
7.28
0
VERTEX
10
8.16043
20
9.68017
30
7.28
0
VERTEX
10
8.16321
20
9.67739
30
7.28
0
VERTEX
10
8.1646
20
9.67183
30
7.28
0
VERTEX
10
8.16878
20
9.66627
30
7.28
0
VERTEX
10
8.17156
20
9.66349
30
7.28
0
VERTEX
10
8.17156
20
9.66071
30
7.28
0
VERTEX
10
8.20632
20
9.62456
30
7.28
0
VERTEX
10
8.22578
20
9.60648
30
7.28
0
VERTEX
10
8.23135
20
9.60509
30
7.28
0
VERTEX
10
8.23413
20
9.60231
30
7.28
0
VERTEX
10
8.23969
20
9.60231
30
7.28
0
VERTEX
10
8.24942
20
9.59258
30
7.28
0
VERTEX
10
8.2522
20
9.5898
30
7.28
0
VERTEX
10
8.25498
20
9.5898
30
7.28
0
VERTEX
10
8.25915
20
9.58423
30
7.28
0
VERTEX
10
8.26472
20
9.58145
30
7.28
0
VERTEX
10
8.2675
20
9.57867
30
7.28
0
VERTEX
10
8.27306
20
9.57728
30
7.28
0
VERTEX
10
8.2814
20
9.56755
30
7.28
0
VERTEX
10
8.29252
20
9.5606
30
7.28
0
VERTEX
10
8.30365
20
9.55642
30
7.28
0
VERTEX
10
8.30921
20
9.55364
30
7.28
0
VERTEX
10
8.31199
20
9.55364
30
7.28
0
VERTEX
10
8.31755
20
9.54947
30
7.28
0
VERTEX
10
8.36205
20
9.54391
30
7.28
0
VERTEX
10
8.40654
20
9.54252
30
7.28
0
VERTEX
10
8.42879
20
9.5453
30
7.28
0
VERTEX
10
8.43435
20
9.5453
30
7.28
0
VERTEX
10
8.43713
20
9.5453
30
7.28
0
VERTEX
10
8.4413
20
9.55086
30
7.28
0
VERTEX
10
8.44686
20
9.55225
30
7.28
0
VERTEX
10
8.44964
20
9.55225
30
7.28
0
VERTEX
10
8.4552
20
9.55642
30
7.28
0
VERTEX
10
8.47745
20
9.56477
30
7.28
0
VERTEX
10
8.49831
20
9.57728
30
7.28
0
VERTEX
10
8.50387
20
9.58006
30
7.28
0
VERTEX
10
8.50665
20
9.58284
30
7.28
0
VERTEX
10
8.51777
20
9.58562
30
7.28
0
VERTEX
10
8.5289
20
9.59258
30
7.28
0
VERTEX
10
8.54836
20
9.61204
30
7.28
0
VERTEX
10
8.56505
20
9.63151
30
7.28
0
VERTEX
10
8.57617
20
9.63846
30
7.28
0
VERTEX
10
8.59147
20
9.65793
30
7.28
0
VERTEX
10
8.59981
20
9.66905
30
7.28
0
VERTEX
10
8.6012
20
9.67461
30
7.28
0
VERTEX
10
8.61928
20
9.69686
30
7.28
0
VERTEX
10
8.62484
20
9.70659
30
7.28
0
VERTEX
10
8.63318
20
9.71632
30
7.28
0
VERTEX
10
8.63735
20
9.72745
30
7.28
0
VERTEX
10
8.6443
20
9.73857
30
7.28
0
VERTEX
10
8.64847
20
9.76082
30
7.28
0
VERTEX
10
8.64986
20
9.78306
30
7.28
0
VERTEX
10
8.64708
20
9.80531
30
7.28
0
VERTEX
10
8.6443
20
9.81087
30
7.28
0
VERTEX
10
8.6443
20
9.81644
30
7.28
0
VERTEX
10
8.6443
20
9.81922
30
7.28
0
VERTEX
10
8.64152
20
9.822
30
7.28
0
VERTEX
10
8.63874
20
9.83312
30
7.28
0
VERTEX
10
8.63735
20
9.83868
30
7.28
0
VERTEX
10
8.63874
20
9.84146
30
7.28
0
VERTEX
10
8.63457
20
9.84563
30
7.28
0
VERTEX
10
8.63318
20
9.8512
30
7.28
0
VERTEX
10
8.62484
20
9.86093
30
7.28
0
VERTEX
10
8.62067
20
9.86649
30
7.28
0
VERTEX
10
8.59981
20
9.879
30
7.28
0
VERTEX
10
8.58869
20
9.879
30
7.28
0
VERTEX
10
8.58312
20
9.88039
30
7.28
0
VERTEX
10
8.58034
20
9.88318
30
7.28
0
VERTEX
10
8.5581
20
9.88457
30
7.28
0
VERTEX
10
8.54836
20
9.89152
30
7.28
0
VERTEX
10
8.54002
20
9.90125
30
7.28
0
VERTEX
10
8.5289
20
9.90542
30
7.28
0
VERTEX
10
8.51777
20
9.91237
30
7.28
0
VERTEX
10
8.49553
20
9.91377
30
7.28
0
VERTEX
10
8.47328
20
9.91794
30
7.28
0
VERTEX
10
8.46772
20
9.91933
30
7.28
0
VERTEX
10
8.46494
20
9.91933
30
7.28
0
VERTEX
10
8.46355
20
9.92211
30
7.28
0
VERTEX
10
8.4413
20
9.92628
30
7.28
0
VERTEX
10
8.43574
20
9.92906
30
7.28
0
VERTEX
10
8.42461
20
9.93045
30
7.28
0
VERTEX
10
8.41905
20
9.93045
30
7.28
0
VERTEX
10
8.41488
20
9.92628
30
7.28
0
VERTEX
10
8.40932
20
9.92489
30
7.28
0
VERTEX
10
8.3982
20
9.92628
30
7.28
0
VERTEX
10
8.37595
20
9.93462
30
7.28
0
VERTEX
10
8.3537
20
9.93462
30
7.28
0
VERTEX
10
8.30921
20
9.92906
30
7.28
0
VERTEX
10
8.28696
20
9.92072
30
7.28
0
VERTEX
10
8.2814
20
9.91794
30
7.28
0
VERTEX
10
8.25915
20
9.91655
30
7.28
0
VERTEX
10
8.24803
20
9.91237
30
7.28
0
VERTEX
10
8.23691
20
9.91098
30
7.28
0
VERTEX
10
8.23135
20
9.91655
30
7.28
0
VERTEX
10
8.22578
20
9.91377
30
7.28
0
VERTEX
10
8.22022
20
9.9082
30
7.28
0
VERTEX
10
8.21188
20
9.90125
30
7.28
0
VERTEX
10
8.19519
20
9.88039
30
7.28
0
VERTEX
10
8.19102
20
9.87622
30
7.28
0
VERTEX
10
8.18546
20
9.87483
30
7.28
0
VERTEX
10
8.1799
20
9.87066
30
7.28
0
VERTEX
10
8.17851
20
9.8651
30
7.28
0
VERTEX
10
8.17434
20
9.85954
30
7.28
0
VERTEX
10
8.16599
20
9.83729
30
7.28
0
VERTEX
10
8.1646
20
9.83173
30
7.28
0
VERTEX
10
8.16182
20
9.82895
30
7.28
0
VERTEX
10
8.16182
20
9.82617
30
7.28
0
VERTEX
10
8.15904
20
9.82339
30
7.28
0
VERTEX
10
8.15209
20
9.77889
30
7.28
0
VERTEX
10
8.14931
20
9.76777
30
7.28
0
VERTEX
10
8.14792
20
9.74552
30
7.28
0
VERTEX
10
8.14792
20
9.74274
30
7.28
0
SEQEND
0
POLYLINE
62
227
66
1
70
1
3
endoplasmic_reticulum
0
VERTEX
10
8.45353
20
10.0028
30
7.28
0
VERTEX
10
8.45533
20
9.99918
30
7.28
0
VERTEX
10
8.4625
20
9.99559
30
7.28
0
VERTEX
10
8.47415
20
9.98663
30
7.28
0
VERTEX
10
8.47684
20
9.97945
30
7.28
0
VERTEX
10
8.47774
20
9.97766
30
7.28
0
VERTEX
10
8.48491
20
9.97677
30
7.28
0
VERTEX
10
8.49926
20
9.97945
30
7.28
0
VERTEX
10
8.5136
20
9.98752
30
7.28
0
VERTEX
10
8.51898
20
9.9938
30
7.28
0
VERTEX
10
8.51988
20
10.001
30
7.28
0
VERTEX
10
8.51988
20
10.0046
30
7.28
0
VERTEX
10
8.51719
20
10.0081
30
7.28
0
VERTEX
10
8.50284
20
10.0099
30
7.28
0
VERTEX
10
8.50105
20
10.0099
30
7.28
0
VERTEX
10
8.49388
20
10.0153
30
7.28
0
VERTEX
10
8.48671
20
10.0162
30
7.28
0
VERTEX
10
8.48312
20
10.0189
30
7.28
0
VERTEX
10
8.47953
20
10.0198
30
7.28
0
VERTEX
10
8.47595
20
10.0225
30
7.28
0
VERTEX
10
8.47236
20
10.0225
30
7.28
0
VERTEX
10
8.45802
20
10.0135
30
7.28
0
VERTEX
10
8.45443
20
10.0117
30
7.28
0
VERTEX
10
8.45353
20
10.0046
30
7.28
0
VERTEX
10
8.45353
20
10.0037
30
7.28
0
SEQEND
0
POLYLINE
62
227
66
1
70
1
3
endoplasmic_reticulum
0
VERTEX
10
8.18278
20
9.95435
30
7.28
0
VERTEX
10
8.18367
20
9.95077
30
7.28
0
VERTEX
10
8.18367
20
9.94897
30
7.28
0
VERTEX
10
8.19085
20
9.94359
30
7.28
0
VERTEX
10
8.19802
20
9.9427
30
7.28
0
VERTEX
10
8.2016
20
9.9427
30
7.28
0
VERTEX
10
8.20519
20
9.9409
30
7.28
0
VERTEX
10
8.21953
20
9.9427
30
7.28
0
VERTEX
10
8.22581
20
9.94718
30
7.28
0
VERTEX
10
8.24016
20
9.94897
30
7.28
0
VERTEX
10
8.2545
20
9.95256
30
7.28
0
VERTEX
10
8.26167
20
9.95256
30
7.28
0
VERTEX
10
8.26795
20
9.95525
30
7.28
0
VERTEX
10
8.28229
20
9.95794
30
7.28
0
VERTEX
10
8.28947
20
9.95973
30
7.28
0
VERTEX
10
8.29036
20
9.9669
30
7.28
0
VERTEX
10
8.28498
20
9.97408
30
7.28
0
VERTEX
10
8.28409
20
9.97766
30
7.28
0
VERTEX
10
8.2814
20
9.98035
30
7.28
0
VERTEX
10
8.2796
20
9.98035
30
7.28
0
VERTEX
10
8.27422
20
9.98663
30
7.28
0
VERTEX
10
8.26705
20
9.98842
30
7.28
0
VERTEX
10
8.26616
20
9.99021
30
7.28
0
VERTEX
10
8.25898
20
9.99021
30
7.28
0
VERTEX
10
8.25181
20
9.9938
30
7.28
0
VERTEX
10
8.24822
20
9.99649
30
7.28
0
VERTEX
10
8.24105
20
9.99739
30
7.28
0
VERTEX
10
8.23388
20
9.99649
30
7.28
0
VERTEX
10
8.22671
20
9.9938
30
7.28
0
VERTEX
10
8.22133
20
9.98752
30
7.28
0
VERTEX
10
8.20698
20
9.98483
30
7.28
0
VERTEX
10
8.19981
20
9.98394
30
7.28
0
VERTEX
10
8.19622
20
9.98125
30
7.28
0
VERTEX
10
8.19443
20
9.97945
30
7.28
0
VERTEX
10
8.19443
20
9.97587
30
7.28
0
VERTEX
10
8.19353
20
9.97408
30
7.28
0
VERTEX
10
8.19174
20
9.97408
30
7.28
0
VERTEX
10
8.18547
20
9.9669
30
7.28
0
VERTEX
10
8.18278
20
9.96332
30
7.28
0
VERTEX
10
8.18278
20
9.95614
30
7.28
0
VERTEX
10
8.18278
20
9.95525
30
7.28
0
SEQEND
0
POLYLINE
62
227
66
1
70
1
3
endoplasmic_reticulum
0
VERTEX
10
8.07698
20
9.85215
30
7.28
0
VERTEX
10
8.07967
20
9.84497
30
7.28
0
VERTEX
10
8.08057
20
9.84139
30
7.28
0
VERTEX
10
8.08416
20
9.8378
30
7.28
0
VERTEX
10
8.08595
20
9.83601
30
7.28
0
VERTEX
10
8.08954
20
9.83511
30
7.28
0
VERTEX
10
8.09223
20
9.83242
30
7.28
0
VERTEX
10
8.10657
20
9.83242
30
7.28
0
VERTEX
10
8.12091
20
9.8378
30
7.28
0
VERTEX
10
8.12271
20
9.84497
30
7.28
0
VERTEX
10
8.1236
20
9.87366
30
7.28
0
VERTEX
10
8.11733
20
9.87994
30
7.28
0
VERTEX
10
8.11643
20
9.88173
30
7.28
0
VERTEX
10
8.11285
20
9.88173
30
7.28
0
VERTEX
10
8.10926
20
9.88442
30
7.28
0
VERTEX
10
8.09491
20
9.87994
30
7.28
0
VERTEX
10
8.08774
20
9.87725
30
7.28
0
VERTEX
10
8.08416
20
9.87546
30
7.28
0
VERTEX
10
8.07967
20
9.86828
30
7.28
0
VERTEX
10
8.07788
20
9.85394
30
7.28
0
VERTEX
10
8.07788
20
9.85304
30
7.28
0
SEQEND
0
POLYLINE
62
31
66
1
70
1
3
contour
0
VERTEX
10
7.96985
20
9.7682
30
7.28
0
VERTEX
10
7.97132
20
9.74454
30
7.28
0
VERTEX
10
7.97576
20
9.72088
30
7.28
0
VERTEX
10
7.98463
20
9.69721
30
7.28
0
VERTEX
10
7.99499
20
9.64989
30
7.28
0
VERTEX
10
7.99647
20
9.62622
30
7.28
0
VERTEX
10
7.99499
20
9.60256
30
7.28
0
VERTEX
10
7.99203
20
9.59073
30
7.28
0
VERTEX
10
7.98907
20
9.58482
30
7.28
0
VERTEX
10
7.98611
20
9.58334
30
7.28
0
VERTEX
10
7.9802
20
9.55967
30
7.28
0
VERTEX
10
7.97872
20
9.53601
30
7.28
0
VERTEX
10
7.98168
20
9.51235
30
7.28
0
VERTEX
10
7.98611
20
9.50643
30
7.28
0
VERTEX
10
7.98611
20
9.50348
30
7.28
0
VERTEX
10
7.99794
20
9.49608
30
7.28
0
VERTEX
10
8.0083
20
9.48573
30
7.28
0
VERTEX
10
8.02013
20
9.48277
30
7.28
0
VERTEX
10
8.03048
20
9.47538
30
7.28
0
VERTEX
10
8.05414
20
9.4665
30
7.28
0
VERTEX
10
8.06597
20
9.46354
30
7.28
0
VERTEX
10
8.07189
20
9.46354
30
7.28
0
VERTEX
10
8.07781
20
9.45911
30
7.28
0
VERTEX
10
8.08964
20
9.45911
30
7.28
0
VERTEX
10
8.09555
20
9.45763
30
7.28
0
VERTEX
10
8.09851
20
9.45467
30
7.28
0
VERTEX
10
8.12217
20
9.45171
30
7.28
0
VERTEX
10
8.12513
20
9.45171
30
7.28
0
VERTEX
10
8.12809
20
9.44876
30
7.28
0
VERTEX
10
8.17541
20
9.44728
30
7.28
0
VERTEX
10
8.18133
20
9.44728
30
7.28
0
VERTEX
10
8.19316
20
9.44284
30
7.28
0
VERTEX
10
8.21682
20
9.43988
30
7.28
0
VERTEX
10
8.26415
20
9.44136
30
7.28
0
VERTEX
10
8.28781
20
9.44284
30
7.28
0
VERTEX
10
8.31147
20
9.44728
30
7.28
0
VERTEX
10
8.33514
20
9.44876
30
7.28
0
VERTEX
10
8.34697
20
9.45319
30
7.28
0
VERTEX
10
8.35288
20
9.45319
30
7.28
0
VERTEX
10
8.36324
20
9.45911
30
7.28
0
VERTEX
10
8.37507
20
9.46207
30
7.28
0
VERTEX
10
8.38098
20
9.46502
30
7.28
0
VERTEX
10
8.39281
20
9.4665
30
7.28
0
VERTEX
10
8.40465
20
9.47094
30
7.28
0
VERTEX
10
8.42831
20
9.4739
30
7.28
0
VERTEX
10
8.43422
20
9.4739
30
7.28
0
VERTEX
10
8.44014
20
9.47685
30
7.28
0
VERTEX
10
8.45197
20
9.47685
30
7.28
0
VERTEX
10
8.4993
20
9.48869
30
7.28
0
VERTEX
10
8.54662
20
9.51087
30
7.28
0
VERTEX
10
8.59395
20
9.52714
30
7.28
0
VERTEX
10
8.59986
20
9.5301
30
7.28
0
VERTEX
10
8.60282
20
9.5301
30
7.28
0
VERTEX
10
8.60578
20
9.53305
30
7.28
0
VERTEX
10
8.60873
20
9.53305
30
7.28
0
VERTEX
10
8.63092
20
9.55228
30
7.28
0
VERTEX
10
8.64867
20
9.57003
30
7.28
0
VERTEX
10
8.6531
20
9.57298
30
7.28
0
VERTEX
10
8.66789
20
9.59665
30
7.28
0
VERTEX
10
8.67233
20
9.60108
30
7.28
0
VERTEX
10
8.67529
20
9.64841
30
7.28
0
VERTEX
10
8.67529
20
9.65137
30
7.28
0
VERTEX
10
8.7093
20
9.69278
30
7.28
0
VERTEX
10
8.73001
20
9.71348
30
7.28
0
VERTEX
10
8.73444
20
9.7194
30
7.28
0
VERTEX
10
8.74036
20
9.71792
30
7.28
0
VERTEX
10
8.76402
20
9.72531
30
7.28
0
VERTEX
10
8.77585
20
9.72531
30
7.28
0
VERTEX
10
8.77881
20
9.72827
30
7.28
0
VERTEX
10
8.79064
20
9.72975
30
7.28
0
VERTEX
10
8.80247
20
9.73419
30
7.28
0
VERTEX
10
8.80691
20
9.7401
30
7.28
0
VERTEX
10
8.81874
20
9.74454
30
7.28
0
VERTEX
10
8.8217
20
9.7475
30
7.28
0
VERTEX
10
8.83205
20
9.75193
30
7.28
0
VERTEX
10
8.84388
20
9.76081
30
7.28
0
VERTEX
10
8.85128
20
9.77264
30
7.28
0
VERTEX
10
8.86163
20
9.78003
30
7.28
0
VERTEX
10
8.86459
20
9.78299
30
7.28
0
VERTEX
10
8.87642
20
9.78743
30
7.28
0
VERTEX
10
8.88085
20
9.79038
30
7.28
0
VERTEX
10
8.88381
20
9.79038
30
7.28
0
VERTEX
10
8.89416
20
9.79926
30
7.28
0
VERTEX
10
8.8986
20
9.80222
30
7.28
0
VERTEX
10
8.90452
20
9.80813
30
7.28
0
VERTEX
10
8.91043
20
9.81109
30
7.28
0
VERTEX
10
8.91487
20
9.82292
30
7.28
0
VERTEX
10
8.91487
20
9.84658
30
7.28
0
VERTEX
10
8.91191
20
9.8525
30
7.28
0
VERTEX
10
8.91635
20
9.89982
30
7.28
0
VERTEX
10
8.91931
20
9.92349
30
7.28
0
VERTEX
10
8.91635
20
9.94715
30
7.28
0
VERTEX
10
8.91487
20
9.95306
30
7.28
0
VERTEX
10
8.91487
20
9.95602
30
7.28
0
VERTEX
10
8.91191
20
9.95898
30
7.28
0
VERTEX
10
8.91191
20
9.96194
30
7.28
0
VERTEX
10
8.906
20
9.96637
30
7.28
0
VERTEX
10
8.89416
20
9.96933
30
7.28
0
VERTEX
10
8.88825
20
9.97229
30
7.28
0
VERTEX
10
8.88529
20
9.97525
30
7.28
0
VERTEX
10
8.86163
20
9.97525
30
7.28
0
VERTEX
10
8.8498
20
9.97525
30
7.28
0
VERTEX
10
8.80247
20
9.9856
30
7.28
0
VERTEX
10
8.77881
20
9.99299
30
7.28
0
VERTEX
10
8.76698
20
9.99447
30
7.28
0
VERTEX
10
8.74332
20
10.0019
30
7.28
0
VERTEX
10
8.7374
20
10.0063
30
7.28
0
VERTEX
10
8.73148
20
10.0078
30
7.28
0
VERTEX
10
8.72853
20
10.0078
30
7.28
0
VERTEX
10
8.72557
20
10.0107
30
7.28
0
VERTEX
10
8.71374
20
10.0137
30
7.28
0
VERTEX
10
8.70191
20
10.0137
30
7.28
0
VERTEX
10
8.65458
20
10.0226
30
7.28
0
VERTEX
10
8.64275
20
10.027
30
7.28
0
VERTEX
10
8.63683
20
10.0285
30
7.28
0
VERTEX
10
8.63092
20
10.0329
30
7.28
0
VERTEX
10
8.625
20
10.0329
30
7.28
0
VERTEX
10
8.62204
20
10.0359
30
7.28
0
VERTEX
10
8.61909
20
10.0359
30
7.28
0
VERTEX
10
8.61613
20
10.0388
30
7.28
0
VERTEX
10
8.61317
20
10.0388
30
7.28
0
VERTEX
10
8.61021
20
10.0418
30
7.28
0
VERTEX
10
8.59838
20
10.0448
30
7.28
0
VERTEX
10
8.57472
20
10.0448
30
7.28
0
VERTEX
10
8.55106
20
10.0492
30
7.28
0
VERTEX
10
8.53923
20
10.0522
30
7.28
0
VERTEX
10
8.52739
20
10.0522
30
7.28
0
VERTEX
10
8.51556
20
10.0551
30
7.28
0
VERTEX
10
8.50373
20
10.0551
30
7.28
0
VERTEX
10
8.49782
20
10.0551
30
7.28
0
VERTEX
10
8.4919
20
10.0581
30
7.28
0
VERTEX
10
8.48894
20
10.0581
30
7.28
0
VERTEX
10
8.48599
20
10.061
30
7.28
0
VERTEX
10
8.43866
20
10.0758
30
7.28
0
VERTEX
10
8.415
20
10.0773
30
7.28
0
VERTEX
10
8.39134
20
10.0817
30
7.28
0
VERTEX
10
8.38542
20
10.0847
30
7.28
0
VERTEX
10
8.36176
20
10.0847
30
7.28
0
VERTEX
10
8.34993
20
10.0891
30
7.28
0
VERTEX
10
8.32626
20
10.0906
30
7.28
0
VERTEX
10
8.31443
20
10.0936
30
7.28
0
VERTEX
10
8.21978
20
10.0921
30
7.28
0
VERTEX
10
8.19612
20
10.0921
30
7.28
0
VERTEX
10
8.18429
20
10.0921
30
7.28
0
VERTEX
10
8.17246
20
10.0891
30
7.28
0
VERTEX
10
8.16654
20
10.0891
30
7.28
0
VERTEX
10
8.15471
20
10.0832
30
7.28
0
VERTEX
10
8.15175
20
10.0832
30
7.28
0
VERTEX
10
8.14879
20
10.0803
30
7.28
0
VERTEX
10
8.14288
20
10.0788
30
7.28
0
VERTEX
10
8.13844
20
10.0743
30
7.28
0
VERTEX
10
8.13548
20
10.0743
30
7.28
0
VERTEX
10
8.13105
20
10.0684
30
7.28
0
VERTEX
10
8.10738
20
10.064
30
7.28
0
VERTEX
10
8.08372
20
10.0625
30
7.28
0
VERTEX
10
8.07781
20
10.0625
30
7.28
0
VERTEX
10
8.0571
20
10.0462
30
7.28
0
VERTEX
10
8.04527
20
10.0403
30
7.28
0
VERTEX
10
8.03935
20
10.0403
30
7.28
0
VERTEX
10
8.0364
20
10.0388
30
7.28
0
VERTEX
10
8.0364
20
10.0359
30
7.28
0
VERTEX
10
8.03935
20
10.0329
30
7.28
0
VERTEX
10
8.04823
20
10.0093
30
7.28
0
VERTEX
10
8.04971
20
10.0033
30
7.28
0
VERTEX
10
8.05266
20
10.0004
30
7.28
0
VERTEX
10
8.05414
20
9.99447
30
7.28
0
VERTEX
10
8.05266
20
9.98264
30
7.28
0
VERTEX
10
8.06302
20
9.97229
30
7.28
0
VERTEX
10
8.06745
20
9.96637
30
7.28
0
VERTEX
10
8.07041
20
9.9649
30
7.28
0
VERTEX
10
8.07337
20
9.95306
30
7.28
0
VERTEX
10
8.07337
20
9.95011
30
7.28
0
VERTEX
10
8.07781
20
9.94419
30
7.28
0
VERTEX
10
8.07929
20
9.93236
30
7.28
0
VERTEX
10
8.07929
20
9.92644
30
7.28
0
VERTEX
10
8.07485
20
9.92053
30
7.28
0
VERTEX
10
8.06597
20
9.91313
30
7.28
0
VERTEX
10
8.06302
20
9.91018
30
7.28
0
VERTEX
10
8.06006
20
9.91018
30
7.28
0
VERTEX
10
8.0571
20
9.90722
30
7.28
0
VERTEX
10
8.05119
20
9.90574
30
7.28
0
VERTEX
10
8.04527
20
9.9013
30
7.28
0
VERTEX
10
8.03344
20
9.89687
30
7.28
0
VERTEX
10
8.02752
20
9.89539
30
7.28
0
VERTEX
10
8.01569
20
9.88651
30
7.28
0
VERTEX
10
8.00682
20
9.87764
30
7.28
0
VERTEX
10
7.99647
20
9.86581
30
7.28
0
VERTEX
10
7.98907
20
9.85841
30
7.28
0
VERTEX
10
7.97872
20
9.83623
30
7.28
0
VERTEX
10
7.97428
20
9.8244
30
7.28
0
VERTEX
10
7.96985
20
9.77707
30
7.28
0
VERTEX
10
7.96985
20
9.77116
30
7.28
0
VERTEX
10
7.96985
20
9.76968
30
7.28
0
SEQEND
0
POLYLINE
62
31
66
1
70
1
3
contour
0
VERTEX
10
7.17715
20
9.72975
30
7.28
0
VERTEX
10
7.18159
20
9.71792
30
7.28
0
VERTEX
10
7.18454
20
9.712
30
7.28
0
VERTEX
10
7.1875
20
9.68834
30
7.28
0
VERTEX
10
7.1949
20
9.67651
30
7.28
0
VERTEX
10
7.1949
20
9.66468
30
7.28
0
VERTEX
10
7.20081
20
9.64101
30
7.28
0
VERTEX
10
7.20081
20
9.62918
30
7.28
0
VERTEX
10
7.20821
20
9.60552
30
7.28
0
VERTEX
10
7.20821
20
9.55819
30
7.28
0
VERTEX
10
7.20969
20
9.53453
30
7.28
0
VERTEX
10
7.21116
20
9.5227
30
7.28
0
VERTEX
10
7.22152
20
9.49904
30
7.28
0
VERTEX
10
7.223
20
9.49312
30
7.28
0
VERTEX
10
7.22595
20
9.49164
30
7.28
0
VERTEX
10
7.22595
20
9.48573
30
7.28
0
VERTEX
10
7.23187
20
9.4739
30
7.28
0
VERTEX
10
7.23483
20
9.46207
30
7.28
0
VERTEX
10
7.25405
20
9.44136
30
7.28
0
VERTEX
10
7.25849
20
9.4384
30
7.28
0
VERTEX
10
7.26441
20
9.43249
30
7.28
0
VERTEX
10
7.27624
20
9.42509
30
7.28
0
VERTEX
10
7.28807
20
9.42214
30
7.28
0
VERTEX
10
7.29103
20
9.41918
30
7.28
0
VERTEX
10
7.31469
20
9.4103
30
7.28
0
VERTEX
10
7.32652
20
9.40291
30
7.28
0
VERTEX
10
7.35018
20
9.39847
30
7.28
0
VERTEX
10
7.37384
20
9.39995
30
7.28
0
VERTEX
10
7.38568
20
9.40439
30
7.28
0
VERTEX
10
7.39011
20
9.4103
30
7.28
0
VERTEX
10
7.39603
20
9.43397
30
7.28
0
VERTEX
10
7.39899
20
9.45763
30
7.28
0
VERTEX
10
7.39899
20
9.46946
30
7.28
0
VERTEX
10
7.4049
20
9.49312
30
7.28
0
VERTEX
10
7.40638
20
9.49904
30
7.28
0
VERTEX
10
7.4123
20
9.50495
30
7.28
0
VERTEX
10
7.43152
20
9.52122
30
7.28
0
VERTEX
10
7.43744
20
9.53305
30
7.28
0
VERTEX
10
7.4404
20
9.53897
30
7.28
0
VERTEX
10
7.4404
20
9.54488
30
7.28
0
VERTEX
10
7.43744
20
9.5508
30
7.28
0
VERTEX
10
7.43596
20
9.56263
30
7.28
0
VERTEX
10
7.42709
20
9.57298
30
7.28
0
VERTEX
10
7.41969
20
9.57742
30
7.28
0
VERTEX
10
7.41821
20
9.62475
30
7.28
0
VERTEX
10
7.41525
20
9.64841
30
7.28
0
VERTEX
10
7.41378
20
9.69573
30
7.28
0
VERTEX
10
7.41378
20
9.7194
30
7.28
0
VERTEX
10
7.41525
20
9.73123
30
7.28
0
VERTEX
10
7.41525
20
9.73714
30
7.28
0
VERTEX
10
7.41821
20
9.74306
30
7.28
0
VERTEX
10
7.42117
20
9.74602
30
7.28
0
VERTEX
10
7.42117
20
9.74897
30
7.28
0
VERTEX
10
7.42856
20
9.75933
30
7.28
0
VERTEX
10
7.43152
20
9.76228
30
7.28
0
VERTEX
10
7.433
20
9.7682
30
7.28
0
VERTEX
10
7.43596
20
9.77116
30
7.28
0
VERTEX
10
7.43744
20
9.77707
30
7.28
0
VERTEX
10
7.44779
20
9.78595
30
7.28
0
VERTEX
10
7.46406
20
9.80813
30
7.28
0
VERTEX
10
7.47441
20
9.81996
30
7.28
0
VERTEX
10
7.49512
20
9.83475
30
7.28
0
VERTEX
10
7.50547
20
9.8451
30
7.28
0
VERTEX
10
7.50843
20
9.84954
30
7.28
0
VERTEX
10
7.52026
20
9.85546
30
7.28
0
VERTEX
10
7.53209
20
9.86729
30
7.28
0
VERTEX
10
7.54392
20
9.87468
30
7.28
0
VERTEX
10
7.55575
20
9.87616
30
7.28
0
VERTEX
10
7.56758
20
9.88356
30
7.28
0
VERTEX
10
7.59124
20
9.89095
30
7.28
0
VERTEX
10
7.61491
20
9.89243
30
7.28
0
VERTEX
10
7.66223
20
9.89982
30
7.28
0
VERTEX
10
7.70956
20
9.89982
30
7.28
0
VERTEX
10
7.73322
20
9.89539
30
7.28
0
VERTEX
10
7.74505
20
9.89243
30
7.28
0
VERTEX
10
7.74801
20
9.89243
30
7.28
0
VERTEX
10
7.75097
20
9.88947
30
7.28
0
VERTEX
10
7.7628
20
9.88947
30
7.28
0
VERTEX
10
7.77463
20
9.88651
30
7.28
0
VERTEX
10
7.78646
20
9.88651
30
7.28
0
VERTEX
10
7.79238
20
9.88356
30
7.28
0
VERTEX
10
7.79829
20
9.88356
30
7.28
0
VERTEX
10
7.82195
20
9.87616
30
7.28
0
VERTEX
10
7.83379
20
9.87764
30
7.28
0
VERTEX
10
7.84562
20
9.88208
30
7.28
0
VERTEX
10
7.84858
20
9.88208
30
7.28
0
VERTEX
10
7.85153
20
9.88503
30
7.28
0
VERTEX
10
7.85301
20
9.89687
30
7.28
0
VERTEX
10
7.85301
20
9.90278
30
7.28
0
VERTEX
10
7.8471
20
9.91461
30
7.28
0
VERTEX
10
7.84414
20
9.92053
30
7.28
0
VERTEX
10
7.84414
20
9.93236
30
7.28
0
VERTEX
10
7.84414
20
9.93532
30
7.28
0
VERTEX
10
7.84118
20
9.93827
30
7.28
0
VERTEX
10
7.83674
20
9.95011
30
7.28
0
VERTEX
10
7.83526
20
9.96194
30
7.28
0
VERTEX
10
7.83526
20
9.9649
30
7.28
0
VERTEX
10
7.82935
20
9.97081
30
7.28
0
VERTEX
10
7.82639
20
9.97673
30
7.28
0
VERTEX
10
7.82639
20
9.97968
30
7.28
0
VERTEX
10
7.81604
20
9.99004
30
7.28
0
VERTEX
10
7.79238
20
10.0004
30
7.28
0
VERTEX
10
7.78055
20
10.0033
30
7.28
0
VERTEX
10
7.77463
20
10.0033
30
7.28
0
VERTEX
10
7.76871
20
10.0063
30
7.28
0
VERTEX
10
7.72139
20
10.0093
30
7.28
0
VERTEX
10
7.70956
20
10.0107
30
7.28
0
VERTEX
10
7.69773
20
10.0093
30
7.28
0
VERTEX
10
7.68589
20
10.0107
30
7.28
0
VERTEX
10
7.66223
20
10.0093
30
7.28
0
VERTEX
10
7.65632
20
10.0122
30
7.28
0
VERTEX
10
7.64449
20
10.0137
30
7.28
0
VERTEX
10
7.63857
20
10.0152
30
7.28
0
VERTEX
10
7.63561
20
10.0152
30
7.28
0
VERTEX
10
7.62378
20
10.0226
30
7.28
0
VERTEX
10
7.61787
20
10.0241
30
7.28
0
VERTEX
10
7.61639
20
10.0359
30
7.28
0
VERTEX
10
7.61491
20
10.0418
30
7.28
0
VERTEX
10
7.61195
20
10.0448
30
7.28
0
VERTEX
10
7.60603
20
10.0684
30
7.28
0
VERTEX
10
7.60455
20
10.0921
30
7.28
0
VERTEX
10
7.60012
20
10.1157
30
7.28
0
VERTEX
10
7.59864
20
10.1394
30
7.28
0
VERTEX
10
7.58977
20
10.1867
30
7.28
0
VERTEX
10
7.58237
20
10.2089
30
7.28
0
VERTEX
10
7.58385
20
10.2119
30
7.28
0
VERTEX
10
7.58089
20
10.2134
30
7.28
0
VERTEX
10
7.57793
20
10.2119
30
7.28
0
VERTEX
10
7.57054
20
10.2178
30
7.28
0
VERTEX
10
7.56758
20
10.2178
30
7.28
0
VERTEX
10
7.56167
20
10.2222
30
7.28
0
VERTEX
10
7.538
20
10.2281
30
7.28
0
VERTEX
10
7.52617
20
10.2311
30
7.28
0
VERTEX
10
7.52026
20
10.2341
30
7.28
0
VERTEX
10
7.50843
20
10.2341
30
7.28
0
VERTEX
10
7.48476
20
10.2296
30
7.28
0
VERTEX
10
7.47293
20
10.2281
30
7.28
0
VERTEX
10
7.44927
20
10.2311
30
7.28
0
VERTEX
10
7.43744
20
10.2341
30
7.28
0
VERTEX
10
7.42561
20
10.2311
30
7.28
0
VERTEX
10
7.40342
20
10.2148
30
7.28
0
VERTEX
10
7.39307
20
10.206
30
7.28
0
VERTEX
10
7.38716
20
10.203
30
7.28
0
VERTEX
10
7.37828
20
10.1926
30
7.28
0
VERTEX
10
7.3768
20
10.1808
30
7.28
0
VERTEX
10
7.37976
20
10.169
30
7.28
0
VERTEX
10
7.37976
20
10.1572
30
7.28
0
VERTEX
10
7.37976
20
10.1512
30
7.28
0
VERTEX
10
7.3842
20
10.1394
30
7.28
0
VERTEX
10
7.38716
20
10.1335
30
7.28
0
VERTEX
10
7.38716
20
10.1276
30
7.28
0
VERTEX
10
7.39455
20
10.1202
30
7.28
0
VERTEX
10
7.40342
20
10.0729
30
7.28
0
VERTEX
10
7.40342
20
10.0492
30
7.28
0
VERTEX
10
7.40047
20
10.0477
30
7.28
0
VERTEX
10
7.40047
20
10.0418
30
7.28
0
VERTEX
10
7.40047
20
10.0388
30
7.28
0
VERTEX
10
7.39751
20
10.0359
30
7.28
0
VERTEX
10
7.39751
20
10.0122
30
7.28
0
VERTEX
10
7.39455
20
9.98856
30
7.28
0
VERTEX
10
7.39455
20
9.98264
30
7.28
0
VERTEX
10
7.39159
20
9.97968
30
7.28
0
VERTEX
10
7.39011
20
9.96785
30
7.28
0
VERTEX
10
7.3842
20
9.95602
30
7.28
0
VERTEX
10
7.38124
20
9.95011
30
7.28
0
VERTEX
10
7.37532
20
9.94419
30
7.28
0
VERTEX
10
7.36201
20
9.92201
30
7.28
0
VERTEX
10
7.35018
20
9.91018
30
7.28
0
VERTEX
10
7.328
20
9.89539
30
7.28
0
VERTEX
10
7.31765
20
9.89095
30
7.28
0
VERTEX
10
7.29398
20
9.87616
30
7.28
0
VERTEX
10
7.29103
20
9.87616
30
7.28
0
VERTEX
10
7.24518
20
9.84362
30
7.28
0
VERTEX
10
7.223
20
9.82884
30
7.28
0
VERTEX
10
7.21708
20
9.8244
30
7.28
0
VERTEX
10
7.2156
20
9.81848
30
7.28
0
VERTEX
10
7.21264
20
9.81848
30
7.28
0
VERTEX
10
7.20673
20
9.81257
30
7.28
0
VERTEX
10
7.20525
20
9.80813
30
7.28
0
VERTEX
10
7.19933
20
9.80665
30
7.28
0
VERTEX
10
7.18898
20
9.7963
30
7.28
0
VERTEX
10
7.18307
20
9.79186
30
7.28
0
VERTEX
10
7.17863
20
9.7682
30
7.28
0
VERTEX
10
7.17715
20
9.74454
30
7.28
0
VERTEX
10
7.17715
20
9.73271
30
7.28
0
VERTEX
10
7.17715
20
9.73123
30
7.28
0
SEQEND
0
ENDSEC
0
EOF
