0
SECTION
2
ENTITIES
0
POLYLINE
62
31
66
1
70
1
3
contour
0
VERTEX
10
6.91963
20
10.7909
30
9.8
0
VERTEX
10
6.92621
20
10.7646
30
9.8
0
VERTEX
10
6.9328
20
10.758
30
9.8
0
VERTEX
10
6.9328
20
10.7317
30
9.8
0
VERTEX
10
6.93938
20
10.7053
30
9.8
0
VERTEX
10
6.95255
20
10.679
30
9.8
0
VERTEX
10
6.95584
20
10.6658
30
9.8
0
VERTEX
10
6.96242
20
10.6625
30
9.8
0
VERTEX
10
6.96242
20
10.6494
30
9.8
0
VERTEX
10
6.96901
20
10.6428
30
9.8
0
VERTEX
10
6.97559
20
10.6428
30
9.8
0
VERTEX
10
6.98547
20
10.6296
30
9.8
0
VERTEX
10
7.00851
20
10.6132
30
9.8
0
VERTEX
10
7.03484
20
10.5901
30
9.8
0
VERTEX
10
7.03484
20
10.5835
30
9.8
0
VERTEX
10
7.05789
20
10.5605
30
9.8
0
VERTEX
10
7.07106
20
10.5539
30
9.8
0
VERTEX
10
7.07764
20
10.5572
30
9.8
0
VERTEX
10
7.0941
20
10.5407
30
9.8
0
VERTEX
10
7.14677
20
10.544
30
9.8
0
VERTEX
10
7.19944
20
10.5539
30
9.8
0
VERTEX
10
7.21261
20
10.5539
30
9.8
0
VERTEX
10
7.22578
20
10.5605
30
9.8
0
VERTEX
10
7.27845
20
10.5671
30
9.8
0
VERTEX
10
7.48913
20
10.5704
30
9.8
0
VERTEX
10
7.5418
20
10.5704
30
9.8
0
VERTEX
10
7.56814
20
10.5802
30
9.8
0
VERTEX
10
7.5813
20
10.5901
30
9.8
0
VERTEX
10
7.61752
20
10.6395
30
9.8
0
VERTEX
10
7.63068
20
10.6494
30
9.8
0
VERTEX
10
7.63068
20
10.656
30
9.8
0
VERTEX
10
7.63727
20
10.6625
30
9.8
0
VERTEX
10
7.65044
20
10.7152
30
9.8
0
VERTEX
10
7.65373
20
10.7679
30
9.8
0
VERTEX
10
7.65044
20
10.8206
30
9.8
0
VERTEX
10
7.65044
20
10.8337
30
9.8
0
VERTEX
10
7.65044
20
10.8403
30
9.8
0
VERTEX
10
7.64385
20
10.8469
30
9.8
0
VERTEX
10
7.64385
20
10.8535
30
9.8
0
VERTEX
10
7.62739
20
10.8699
30
9.8
0
VERTEX
10
7.62081
20
10.8699
30
9.8
0
VERTEX
10
7.56814
20
10.9029
30
9.8
0
VERTEX
10
7.55497
20
10.9127
30
9.8
0
VERTEX
10
7.50559
20
10.9358
30
9.8
0
VERTEX
10
7.47925
20
10.9424
30
9.8
0
VERTEX
10
7.42658
20
10.9654
30
9.8
0
VERTEX
10
7.41342
20
10.972
30
9.8
0
VERTEX
10
7.36075
20
10.9819
30
9.8
0
VERTEX
10
7.30807
20
10.9819
30
9.8
0
VERTEX
10
7.28174
20
10.9852
30
9.8
0
VERTEX
10
7.2554
20
10.995
30
9.8
0
VERTEX
10
7.23236
20
11.0181
30
9.8
0
VERTEX
10
7.21919
20
11.0444
30
9.8
0
VERTEX
10
7.16652
20
11.0839
30
9.8
0
VERTEX
10
7.15335
20
11.0872
30
9.8
0
VERTEX
10
7.15006
20
11.0938
30
9.8
0
VERTEX
10
7.09739
20
11.0839
30
9.8
0
VERTEX
10
7.04801
20
11.0477
30
9.8
0
VERTEX
10
7.04472
20
11.0345
30
9.8
0
VERTEX
10
7.03814
20
11.028
30
9.8
0
VERTEX
10
7.03814
20
11.0214
30
9.8
0
VERTEX
10
7.02497
20
11.0082
30
9.8
0
VERTEX
10
7.02497
20
11.0016
30
9.8
0
VERTEX
10
7.00851
20
10.9819
30
9.8
0
VERTEX
10
7.00193
20
10.972
30
9.8
0
VERTEX
10
7.00193
20
10.9654
30
9.8
0
VERTEX
10
6.99205
20
10.9555
30
9.8
0
VERTEX
10
6.9723
20
10.9029
30
9.8
0
VERTEX
10
6.9723
20
10.8963
30
9.8
0
VERTEX
10
6.94925
20
10.8765
30
9.8
0
VERTEX
10
6.9328
20
10.8502
30
9.8
0
VERTEX
10
6.92292
20
10.837
30
9.8
0
VERTEX
10
6.91963
20
10.8107
30
9.8
0
VERTEX
10
6.91963
20
10.7975
30
9.8
0
VERTEX
10
6.91963
20
10.7942
30
9.8
0
SEQEND
0
POLYLINE
62
224
66
1
70
1
3
mitochondrion
0
VERTEX
10
7.1913
20
10.787
30
9.8
0
VERTEX
10
7.19547
20
10.7647
30
9.8
0
VERTEX
10
7.19687
20
10.7591
30
9.8
0
VERTEX
10
7.20382
20
10.7494
30
9.8
0
VERTEX
10
7.2066
20
10.7383
30
9.8
0
VERTEX
10
7.22467
20
10.7174
30
9.8
0
VERTEX
10
7.23302
20
10.7077
30
9.8
0
VERTEX
10
7.24414
20
10.6966
30
9.8
0
VERTEX
10
7.24553
20
10.691
30
9.8
0
VERTEX
10
7.25526
20
10.6799
30
9.8
0
VERTEX
10
7.26361
20
10.6715
30
9.8
0
VERTEX
10
7.28446
20
10.6604
30
9.8
0
VERTEX
10
7.29002
20
10.6563
30
9.8
0
VERTEX
10
7.2928
20
10.6563
30
9.8
0
VERTEX
10
7.29837
20
10.6521
30
9.8
0
VERTEX
10
7.32061
20
10.6451
30
9.8
0
VERTEX
10
7.32618
20
10.641
30
9.8
0
VERTEX
10
7.3373
20
10.6396
30
9.8
0
VERTEX
10
7.34008
20
10.6396
30
9.8
0
VERTEX
10
7.34286
20
10.6368
30
9.8
0
VERTEX
10
7.36511
20
10.6326
30
9.8
0
VERTEX
10
7.37623
20
10.6326
30
9.8
0
VERTEX
10
7.38735
20
10.6354
30
9.8
0
VERTEX
10
7.39292
20
10.6382
30
9.8
0
VERTEX
10
7.40404
20
10.6382
30
9.8
0
VERTEX
10
7.41516
20
10.6437
30
9.8
0
VERTEX
10
7.42072
20
10.6437
30
9.8
0
VERTEX
10
7.43185
20
10.6479
30
9.8
0
VERTEX
10
7.44297
20
10.6493
30
9.8
0
VERTEX
10
7.45409
20
10.6479
30
9.8
0
VERTEX
10
7.4819
20
10.6882
30
9.8
0
VERTEX
10
7.4819
20
10.691
30
9.8
0
VERTEX
10
7.48468
20
10.6938
30
9.8
0
VERTEX
10
7.48468
20
10.6994
30
9.8
0
VERTEX
10
7.48886
20
10.7035
30
9.8
0
VERTEX
10
7.49025
20
10.7258
30
9.8
0
VERTEX
10
7.48747
20
10.7369
30
9.8
0
VERTEX
10
7.48747
20
10.748
30
9.8
0
VERTEX
10
7.48468
20
10.7591
30
9.8
0
VERTEX
10
7.48329
20
10.7647
30
9.8
0
VERTEX
10
7.48051
20
10.7661
30
9.8
0
VERTEX
10
7.47773
20
10.7772
30
9.8
0
VERTEX
10
7.46522
20
10.7995
30
9.8
0
VERTEX
10
7.46105
20
10.8106
30
9.8
0
VERTEX
10
7.45131
20
10.8217
30
9.8
0
VERTEX
10
7.44714
20
10.8273
30
9.8
0
VERTEX
10
7.44436
20
10.8301
30
9.8
0
VERTEX
10
7.44158
20
10.8301
30
9.8
0
VERTEX
10
7.42629
20
10.8495
30
9.8
0
VERTEX
10
7.41655
20
10.8593
30
9.8
0
VERTEX
10
7.41377
20
10.8593
30
9.8
0
VERTEX
10
7.40404
20
10.8662
30
9.8
0
VERTEX
10
7.39292
20
10.8704
30
9.8
0
VERTEX
10
7.39013
20
10.8732
30
9.8
0
VERTEX
10
7.37901
20
10.8759
30
9.8
0
VERTEX
10
7.37345
20
10.8759
30
9.8
0
VERTEX
10
7.37067
20
10.8759
30
9.8
0
VERTEX
10
7.36789
20
10.8787
30
9.8
0
VERTEX
10
7.32339
20
10.8773
30
9.8
0
VERTEX
10
7.31783
20
10.8746
30
9.8
0
VERTEX
10
7.30671
20
10.8801
30
9.8
0
VERTEX
10
7.30115
20
10.8829
30
9.8
0
VERTEX
10
7.29002
20
10.8829
30
9.8
0
VERTEX
10
7.2789
20
10.8801
30
9.8
0
VERTEX
10
7.26778
20
10.8746
30
9.8
0
VERTEX
10
7.25665
20
10.8732
30
9.8
0
VERTEX
10
7.25109
20
10.8718
30
9.8
0
VERTEX
10
7.24553
20
10.8676
30
9.8
0
VERTEX
10
7.23997
20
10.8662
30
9.8
0
VERTEX
10
7.23441
20
10.8606
30
9.8
0
VERTEX
10
7.21355
20
10.8454
30
9.8
0
VERTEX
10
7.21077
20
10.8426
30
9.8
0
VERTEX
10
7.21077
20
10.8398
30
9.8
0
VERTEX
10
7.20382
20
10.8301
30
9.8
0
VERTEX
10
7.19826
20
10.8245
30
9.8
0
VERTEX
10
7.19408
20
10.8022
30
9.8
0
VERTEX
10
7.1913
20
10.7911
30
9.8
0
VERTEX
10
7.1913
20
10.7883
30
9.8
0
SEQEND
0
POLYLINE
62
227
66
1
70
1
3
endoplasmic_reticulum
0
VERTEX
10
7.5005
20
10.6214
30
9.8
0
VERTEX
10
7.5023
20
10.6142
30
9.8
0
VERTEX
10
7.50499
20
10.6106
30
9.8
0
VERTEX
10
7.51126
20
10.6061
30
9.8
0
VERTEX
10
7.51575
20
10.6026
30
9.8
0
VERTEX
10
7.53009
20
10.6008
30
9.8
0
VERTEX
10
7.53726
20
10.6017
30
9.8
0
VERTEX
10
7.54085
20
10.6035
30
9.8
0
VERTEX
10
7.54264
20
10.6043
30
9.8
0
VERTEX
10
7.54533
20
10.6115
30
9.8
0
VERTEX
10
7.54713
20
10.6151
30
9.8
0
VERTEX
10
7.54533
20
10.6295
30
9.8
0
VERTEX
10
7.54444
20
10.633
30
9.8
0
VERTEX
10
7.53906
20
10.6402
30
9.8
0
VERTEX
10
7.52561
20
10.6492
30
9.8
0
VERTEX
10
7.52202
20
10.651
30
9.8
0
VERTEX
10
7.51485
20
10.6483
30
9.8
0
VERTEX
10
7.50768
20
10.6429
30
9.8
0
VERTEX
10
7.5023
20
10.6366
30
9.8
0
VERTEX
10
7.5023
20
10.633
30
9.8
0
VERTEX
10
7.5023
20
10.6312
30
9.8
0
VERTEX
10
7.5005
20
10.6295
30
9.8
0
VERTEX
10
7.5005
20
10.6223
30
9.8
0
SEQEND
0
POLYLINE
62
227
66
1
70
1
3
endoplasmic_reticulum
0
VERTEX
10
7.13382
20
10.6411
30
9.8
0
VERTEX
10
7.1392
20
10.6348
30
9.8
0
VERTEX
10
7.14189
20
10.6277
30
9.8
0
VERTEX
10
7.14458
20
10.625
30
9.8
0
VERTEX
10
7.14727
20
10.6106
30
9.8
0
VERTEX
10
7.14727
20
10.607
30
9.8
0
VERTEX
10
7.15264
20
10.6017
30
9.8
0
VERTEX
10
7.15982
20
10.6008
30
9.8
0
VERTEX
10
7.16161
20
10.6008
30
9.8
0
VERTEX
10
7.1634
20
10.6026
30
9.8
0
VERTEX
10
7.17685
20
10.607
30
9.8
0
VERTEX
10
7.18402
20
10.6133
30
9.8
0
VERTEX
10
7.1912
20
10.6178
30
9.8
0
VERTEX
10
7.19478
20
10.6178
30
9.8
0
VERTEX
10
7.20195
20
10.6205
30
9.8
0
VERTEX
10
7.20554
20
10.6214
30
9.8
0
VERTEX
10
7.20733
20
10.6214
30
9.8
0
VERTEX
10
7.20823
20
10.6286
30
9.8
0
VERTEX
10
7.20733
20
10.6321
30
9.8
0
VERTEX
10
7.20733
20
10.6339
30
9.8
0
VERTEX
10
7.20554
20
10.6357
30
9.8
0
VERTEX
10
7.20554
20
10.6375
30
9.8
0
VERTEX
10
7.19927
20
10.6429
30
9.8
0
VERTEX
10
7.19568
20
10.6447
30
9.8
0
VERTEX
10
7.19209
20
10.6519
30
9.8
0
VERTEX
10
7.18671
20
10.659
30
9.8
0
VERTEX
10
7.17954
20
10.6599
30
9.8
0
VERTEX
10
7.15085
20
10.6555
30
9.8
0
VERTEX
10
7.14996
20
10.6537
30
9.8
0
VERTEX
10
7.13561
20
10.6483
30
9.8
0
VERTEX
10
7.13382
20
10.6474
30
9.8
0
VERTEX
10
7.13382
20
10.6438
30
9.8
0
VERTEX
10
7.13382
20
10.642
30
9.8
0
SEQEND
0
POLYLINE
62
227
66
1
70
1
3
endoplasmic_reticulum
0
VERTEX
10
7.07913
20
10.7837
30
9.8
0
VERTEX
10
7.08361
20
10.755
30
9.8
0
VERTEX
10
7.08271
20
10.7478
30
9.8
0
VERTEX
10
7.08451
20
10.7406
30
9.8
0
VERTEX
10
7.0872
20
10.737
30
9.8
0
VERTEX
10
7.08809
20
10.7227
30
9.8
0
VERTEX
10
7.08899
20
10.7155
30
9.8
0
VERTEX
10
7.09078
20
10.7137
30
9.8
0
VERTEX
10
7.09168
20
10.7101
30
9.8
0
VERTEX
10
7.10154
20
10.6967
30
9.8
0
VERTEX
10
7.10871
20
10.694
30
9.8
0
VERTEX
10
7.1123
20
10.6922
30
9.8
0
VERTEX
10
7.11589
20
10.6922
30
9.8
0
VERTEX
10
7.12216
20
10.6976
30
9.8
0
VERTEX
10
7.12665
20
10.7039
30
9.8
0
VERTEX
10
7.12844
20
10.711
30
9.8
0
VERTEX
10
7.12754
20
10.7146
30
9.8
0
VERTEX
10
7.12933
20
10.7182
30
9.8
0
VERTEX
10
7.13023
20
10.7326
30
9.8
0
VERTEX
10
7.13202
20
10.7397
30
9.8
0
VERTEX
10
7.13202
20
10.7433
30
9.8
0
VERTEX
10
7.13382
20
10.7451
30
9.8
0
VERTEX
10
7.13382
20
10.7469
30
9.8
0
VERTEX
10
7.13651
20
10.7496
30
9.8
0
VERTEX
10
7.1392
20
10.7568
30
9.8
0
VERTEX
10
7.14368
20
10.7639
30
9.8
0
VERTEX
10
7.14368
20
10.7783
30
9.8
0
VERTEX
10
7.14368
20
10.7854
30
9.8
0
VERTEX
10
7.14099
20
10.789
30
9.8
0
VERTEX
10
7.1392
20
10.7899
30
9.8
0
VERTEX
10
7.1392
20
10.7917
30
9.8
0
VERTEX
10
7.1374
20
10.7926
30
9.8
0
VERTEX
10
7.1374
20
10.7944
30
9.8
0
VERTEX
10
7.13471
20
10.798
30
9.8
0
VERTEX
10
7.12754
20
10.8007
30
9.8
0
VERTEX
10
7.12037
20
10.7998
30
9.8
0
VERTEX
10
7.11947
20
10.798
30
9.8
0
VERTEX
10
7.09078
20
10.7953
30
9.8
0
VERTEX
10
7.08899
20
10.7953
30
9.8
0
VERTEX
10
7.0863
20
10.7917
30
9.8
0
VERTEX
10
7.08271
20
10.7908
30
9.8
0
VERTEX
10
7.07913
20
10.7846
30
9.8
0
SEQEND
0
POLYLINE
62
227
66
1
70
1
3
endoplasmic_reticulum
0
VERTEX
10
6.99575
20
10.8016
30
9.8
0
VERTEX
10
7.00023
20
10.7872
30
9.8
0
VERTEX
10
7.00292
20
10.7801
30
9.8
0
VERTEX
10
7.00382
20
10.7729
30
9.8
0
VERTEX
10
7.00561
20
10.7693
30
9.8
0
VERTEX
10
7.00651
20
10.7406
30
9.8
0
VERTEX
10
7.0074
20
10.737
30
9.8
0
VERTEX
10
7.01009
20
10.7335
30
9.8
0
VERTEX
10
7.01368
20
10.7317
30
9.8
0
VERTEX
10
7.01547
20
10.7317
30
9.8
0
VERTEX
10
7.01637
20
10.7335
30
9.8
0
VERTEX
10
7.02354
20
10.7343
30
9.8
0
VERTEX
10
7.02713
20
10.7361
30
9.8
0
VERTEX
10
7.02892
20
10.7361
30
9.8
0
VERTEX
10
7.0352
20
10.7424
30
9.8
0
VERTEX
10
7.03699
20
10.746
30
9.8
0
VERTEX
10
7.04327
20
10.7532
30
9.8
0
VERTEX
10
7.04954
20
10.7586
30
9.8
0
VERTEX
10
7.05134
20
10.7612
30
9.8
0
VERTEX
10
7.05313
20
10.7621
30
9.8
0
VERTEX
10
7.05313
20
10.7657
30
9.8
0
VERTEX
10
7.05761
20
10.7729
30
9.8
0
VERTEX
10
7.0594
20
10.7765
30
9.8
0
VERTEX
10
7.0612
20
10.7783
30
9.8
0
VERTEX
10
7.06389
20
10.7854
30
9.8
0
VERTEX
10
7.06568
20
10.7863
30
9.8
0
VERTEX
10
7.06568
20
10.7881
30
9.8
0
VERTEX
10
7.06747
20
10.7899
30
9.8
0
VERTEX
10
7.07016
20
10.7971
30
9.8
0
VERTEX
10
7.07285
20
10.7998
30
9.8
0
VERTEX
10
7.07465
20
10.807
30
9.8
0
VERTEX
10
7.07465
20
10.8106
30
9.8
0
VERTEX
10
7.07465
20
10.8123
30
9.8
0
VERTEX
10
7.07285
20
10.8132
30
9.8
0
VERTEX
10
7.07285
20
10.8276
30
9.8
0
VERTEX
10
7.07285
20
10.8312
30
9.8
0
VERTEX
10
7.07106
20
10.833
30
9.8
0
VERTEX
10
7.07016
20
10.8401
30
9.8
0
VERTEX
10
7.06568
20
10.8473
30
9.8
0
VERTEX
10
7.06389
20
10.85
30
9.8
0
VERTEX
10
7.06209
20
10.8509
30
9.8
0
VERTEX
10
7.06209
20
10.8527
30
9.8
0
VERTEX
10
7.0603
20
10.8545
30
9.8
0
VERTEX
10
7.05313
20
10.8509
30
9.8
0
VERTEX
10
7.04954
20
10.8509
30
9.8
0
VERTEX
10
7.04237
20
10.8482
30
9.8
0
VERTEX
10
7.03609
20
10.8419
30
9.8
0
VERTEX
10
7.02892
20
10.8392
30
9.8
0
VERTEX
10
7.01547
20
10.8303
30
9.8
0
VERTEX
10
7.01189
20
10.8294
30
9.8
0
VERTEX
10
7.00471
20
10.8249
30
9.8
0
VERTEX
10
6.99934
20
10.8186
30
9.8
0
VERTEX
10
6.99665
20
10.815
30
9.8
0
VERTEX
10
6.99575
20
10.8079
30
9.8
0
VERTEX
10
6.99575
20
10.8043
30
9.8
0
VERTEX
10
6.99575
20
10.8025
30
9.8
0
SEQEND
0
ENDSEC
0
EOF
