0
SECTION
2
ENTITIES
0
POLYLINE
62
31
66
1
70
1
3
contour
0
VERTEX
10
8.79854
20
8.94267
30
5.4
0
VERTEX
10
8.80519
20
8.92493
30
5.4
0
VERTEX
10
8.81406
20
8.91606
30
5.4
0
VERTEX
10
8.82293
20
8.89832
30
5.4
0
VERTEX
10
8.85398
20
8.87393
30
5.4
0
VERTEX
10
8.88945
20
8.85841
30
5.4
0
VERTEX
10
8.92493
20
8.85176
30
5.4
0
VERTEX
10
8.94267
20
8.85176
30
5.4
0
VERTEX
10
8.97815
20
8.86063
30
5.4
0
VERTEX
10
8.99367
20
8.86728
30
5.4
0
VERTEX
10
9.02915
20
8.87393
30
5.4
0
VERTEX
10
9.06463
20
8.87171
30
5.4
0
VERTEX
10
9.1001
20
8.87393
30
5.4
0
VERTEX
10
9.13558
20
8.8828
30
5.4
0
VERTEX
10
9.1511
20
8.89389
30
5.4
0
VERTEX
10
9.15997
20
8.89611
30
5.4
0
VERTEX
10
9.16219
20
8.90054
30
5.4
0
VERTEX
10
9.16662
20
8.90054
30
5.4
0
VERTEX
10
9.1888
20
8.9338
30
5.4
0
VERTEX
10
9.19545
20
8.95154
30
5.4
0
VERTEX
10
9.19989
20
8.96041
30
5.4
0
VERTEX
10
9.19989
20
8.96484
30
5.4
0
VERTEX
10
9.20654
20
8.97371
30
5.4
0
VERTEX
10
9.22649
20
9.04467
30
5.4
0
VERTEX
10
9.22871
20
9.06241
30
5.4
0
VERTEX
10
9.24202
20
9.09789
30
5.4
0
VERTEX
10
9.24867
20
9.13336
30
5.4
0
VERTEX
10
9.25089
20
9.1511
30
5.4
0
VERTEX
10
9.25532
20
9.15997
30
5.4
0
VERTEX
10
9.2531
20
9.23093
30
5.4
0
VERTEX
10
9.24645
20
9.24867
30
5.4
0
VERTEX
10
9.23315
20
9.26641
30
5.4
0
VERTEX
10
9.22649
20
9.27528
30
5.4
0
VERTEX
10
9.22428
20
9.29302
30
5.4
0
VERTEX
10
9.21984
20
9.29745
30
5.4
0
VERTEX
10
9.21319
20
9.33293
30
5.4
0
VERTEX
10
9.21097
20
9.3418
30
5.4
0
VERTEX
10
9.19545
20
9.35954
30
5.4
0
VERTEX
10
9.17771
20
9.37062
30
5.4
0
VERTEX
10
9.16884
20
9.37506
30
5.4
0
VERTEX
10
9.16441
20
9.37949
30
5.4
0
VERTEX
10
9.13115
20
9.38393
30
5.4
0
VERTEX
10
9.06019
20
9.38615
30
5.4
0
VERTEX
10
9.02471
20
9.38836
30
5.4
0
VERTEX
10
8.95376
20
9.4061
30
5.4
0
VERTEX
10
8.91828
20
9.41275
30
5.4
0
VERTEX
10
8.90054
20
9.41497
30
5.4
0
VERTEX
10
8.86506
20
9.41275
30
5.4
0
VERTEX
10
8.86063
20
9.40832
30
5.4
0
VERTEX
10
8.85841
20
9.39058
30
5.4
0
VERTEX
10
8.84511
20
9.37728
30
5.4
0
VERTEX
10
8.83845
20
9.36841
30
5.4
0
VERTEX
10
8.83845
20
9.33293
30
5.4
0
VERTEX
10
8.85619
20
9.26197
30
5.4
0
VERTEX
10
8.85841
20
9.22649
30
5.4
0
VERTEX
10
8.85841
20
9.20876
30
5.4
0
VERTEX
10
8.85398
20
9.19102
30
5.4
0
VERTEX
10
8.85176
20
9.18215
30
5.4
0
VERTEX
10
8.84511
20
9.17549
30
5.4
0
VERTEX
10
8.83845
20
9.10454
30
5.4
0
VERTEX
10
8.83402
20
9.06906
30
5.4
0
VERTEX
10
8.82293
20
9.03358
30
5.4
0
VERTEX
10
8.80741
20
8.9981
30
5.4
0
VERTEX
10
8.80741
20
8.98924
30
5.4
0
VERTEX
10
8.80076
20
8.9715
30
5.4
0
VERTEX
10
8.79854
20
8.95376
30
5.4
0
VERTEX
10
8.79854
20
8.94489
30
5.4
0
SEQEND
0
POLYLINE
62
224
66
1
70
1
3
mitochondrion
0
VERTEX
10
9.03362
20
9.09897
30
5.4
0
VERTEX
10
9.04058
20
9.05448
30
5.4
0
VERTEX
10
9.05031
20
9.03223
30
5.4
0
VERTEX
10
9.06004
20
9.0225
30
5.4
0
VERTEX
10
9.0656
20
9.01833
30
5.4
0
VERTEX
10
9.06838
20
9.01277
30
5.4
0
VERTEX
10
9.09063
20
9.00581
30
5.4
0
VERTEX
10
9.11288
20
9.00442
30
5.4
0
VERTEX
10
9.13512
20
9.00581
30
5.4
0
VERTEX
10
9.14625
20
9.01138
30
5.4
0
VERTEX
10
9.16154
20
9.03084
30
5.4
0
VERTEX
10
9.16432
20
9.03501
30
5.4
0
VERTEX
10
9.16989
20
9.03918
30
5.4
0
VERTEX
10
9.16989
20
9.04197
30
5.4
0
VERTEX
10
9.17823
20
9.05309
30
5.4
0
VERTEX
10
9.18379
20
9.05726
30
5.4
0
VERTEX
10
9.18796
20
9.06699
30
5.4
0
VERTEX
10
9.18935
20
9.07256
30
5.4
0
VERTEX
10
9.18518
20
9.08368
30
5.4
0
VERTEX
10
9.18657
20
9.08924
30
5.4
0
VERTEX
10
9.19074
20
9.0948
30
5.4
0
VERTEX
10
9.19213
20
9.10036
30
5.4
0
VERTEX
10
9.19213
20
9.10314
30
5.4
0
VERTEX
10
9.19491
20
9.10454
30
5.4
0
VERTEX
10
9.1963
20
9.11566
30
5.4
0
VERTEX
10
9.20326
20
9.13791
30
5.4
0
VERTEX
10
9.20604
20
9.14347
30
5.4
0
VERTEX
10
9.20604
20
9.15459
30
5.4
0
VERTEX
10
9.20604
20
9.15737
30
5.4
0
VERTEX
10
9.20326
20
9.16015
30
5.4
0
VERTEX
10
9.20047
20
9.17128
30
5.4
0
VERTEX
10
9.19491
20
9.1824
30
5.4
0
VERTEX
10
9.19074
20
9.18796
30
5.4
0
VERTEX
10
9.18796
20
9.19908
30
5.4
0
VERTEX
10
9.18796
20
9.20187
30
5.4
0
VERTEX
10
9.18379
20
9.20743
30
5.4
0
VERTEX
10
9.17962
20
9.21716
30
5.4
0
VERTEX
10
9.17406
20
9.22133
30
5.4
0
VERTEX
10
9.1671
20
9.23245
30
5.4
0
VERTEX
10
9.16293
20
9.23802
30
5.4
0
VERTEX
10
9.11844
20
9.23663
30
5.4
0
VERTEX
10
9.10732
20
9.23663
30
5.4
0
VERTEX
10
9.10175
20
9.23524
30
5.4
0
VERTEX
10
9.10175
20
9.22967
30
5.4
0
VERTEX
10
9.10036
20
9.22689
30
5.4
0
VERTEX
10
9.09758
20
9.22689
30
5.4
0
VERTEX
10
9.09202
20
9.22133
30
5.4
0
VERTEX
10
9.08924
20
9.21021
30
5.4
0
VERTEX
10
9.08507
20
9.20604
30
5.4
0
VERTEX
10
9.07673
20
9.18379
30
5.4
0
VERTEX
10
9.07673
20
9.18101
30
5.4
0
VERTEX
10
9.07256
20
9.17684
30
5.4
0
VERTEX
10
9.07256
20
9.17406
30
5.4
0
VERTEX
10
9.05448
20
9.15181
30
5.4
0
VERTEX
10
9.04892
20
9.14764
30
5.4
0
VERTEX
10
9.03918
20
9.12539
30
5.4
0
VERTEX
10
9.03362
20
9.11427
30
5.4
0
VERTEX
10
9.03362
20
9.10314
30
5.4
0
VERTEX
10
9.03362
20
9.10036
30
5.4
0
SEQEND
0
POLYLINE
62
227
66
1
70
1
3
endoplasmic_reticulum
0
VERTEX
10
9.04856
20
9.24375
30
5.4
0
VERTEX
10
9.05417
20
9.23478
30
5.4
0
VERTEX
10
9.06314
20
9.22917
30
5.4
0
VERTEX
10
9.06763
20
9.22917
30
5.4
0
VERTEX
10
9.0766
20
9.23478
30
5.4
0
VERTEX
10
9.07997
20
9.23927
30
5.4
0
VERTEX
10
9.08109
20
9.24375
30
5.4
0
VERTEX
10
9.08109
20
9.246
30
5.4
0
VERTEX
10
9.08333
20
9.24824
30
5.4
0
VERTEX
10
9.08445
20
9.25273
30
5.4
0
VERTEX
10
9.08333
20
9.25721
30
5.4
0
VERTEX
10
9.07548
20
9.26395
30
5.4
0
VERTEX
10
9.07436
20
9.26619
30
5.4
0
VERTEX
10
9.05641
20
9.26507
30
5.4
0
VERTEX
10
9.04856
20
9.25721
30
5.4
0
VERTEX
10
9.04856
20
9.24824
30
5.4
0
VERTEX
10
9.04856
20
9.24487
30
5.4
0
SEQEND
0
POLYLINE
62
227
66
1
70
1
3
endoplasmic_reticulum
0
VERTEX
10
9.09567
20
9.26507
30
5.4
0
VERTEX
10
9.09792
20
9.25609
30
5.4
0
VERTEX
10
9.10016
20
9.25161
30
5.4
0
VERTEX
10
9.10913
20
9.25048
30
5.4
0
VERTEX
10
9.11362
20
9.24936
30
5.4
0
VERTEX
10
9.13045
20
9.23814
30
5.4
0
VERTEX
10
9.13942
20
9.23927
30
5.4
0
VERTEX
10
9.15625
20
9.246
30
5.4
0
VERTEX
10
9.16186
20
9.25497
30
5.4
0
VERTEX
10
9.16074
20
9.26395
30
5.4
0
VERTEX
10
9.15625
20
9.26731
30
5.4
0
VERTEX
10
9.15064
20
9.27629
30
5.4
0
VERTEX
10
9.13269
20
9.28414
30
5.4
0
VERTEX
10
9.12484
20
9.28975
30
5.4
0
VERTEX
10
9.11587
20
9.28863
30
5.4
0
VERTEX
10
9.10689
20
9.28414
30
5.4
0
VERTEX
10
9.10465
20
9.28414
30
5.4
0
VERTEX
10
9.09792
20
9.27404
30
5.4
0
VERTEX
10
9.09792
20
9.2718
30
5.4
0
VERTEX
10
9.09567
20
9.26955
30
5.4
0
VERTEX
10
9.09567
20
9.26619
30
5.4
0
SEQEND
0
POLYLINE
62
227
66
1
70
1
3
endoplasmic_reticulum
0
VERTEX
10
8.92852
20
9.04183
30
5.4
0
VERTEX
10
8.93413
20
9.03397
30
5.4
0
VERTEX
10
8.94311
20
9.02724
30
5.4
0
VERTEX
10
8.94759
20
9.025
30
5.4
0
VERTEX
10
8.95657
20
9.02612
30
5.4
0
VERTEX
10
8.96106
20
9.02724
30
5.4
0
VERTEX
10
8.96554
20
9.03061
30
5.4
0
VERTEX
10
8.97115
20
9.03846
30
5.4
0
VERTEX
10
8.97452
20
9.04183
30
5.4
0
VERTEX
10
8.9734
20
9.05978
30
5.4
0
VERTEX
10
8.97227
20
9.06426
30
5.4
0
VERTEX
10
8.96891
20
9.06763
30
5.4
0
VERTEX
10
8.96891
20
9.07211
30
5.4
0
VERTEX
10
8.96554
20
9.08109
30
5.4
0
VERTEX
10
8.96106
20
9.08558
30
5.4
0
VERTEX
10
8.94311
20
9.07772
30
5.4
0
VERTEX
10
8.93413
20
9.07211
30
5.4
0
VERTEX
10
8.93301
20
9.06763
30
5.4
0
VERTEX
10
8.92964
20
9.06314
30
5.4
0
VERTEX
10
8.92852
20
9.04519
30
5.4
0
VERTEX
10
8.92852
20
9.04295
30
5.4
0
SEQEND
0
ENDSEC
0
EOF
