0
SECTION
2
ENTITIES
0
POLYLINE
62
31
66
1
70
1
3
contour
0
VERTEX
10
8.2442
20
8.63667
30
4.24
0
VERTEX
10
8.25307
20
8.60119
30
4.24
0
VERTEX
10
8.25528
20
8.59233
30
4.24
0
VERTEX
10
8.26637
20
8.57459
30
4.24
0
VERTEX
10
8.27302
20
8.53911
30
4.24
0
VERTEX
10
8.28189
20
8.53246
30
4.24
0
VERTEX
10
8.29298
20
8.49698
30
4.24
0
VERTEX
10
8.2952
20
8.48811
30
4.24
0
VERTEX
10
8.32181
20
8.45263
30
4.24
0
VERTEX
10
8.34398
20
8.42159
30
4.24
0
VERTEX
10
8.35285
20
8.41272
30
4.24
0
VERTEX
10
8.37281
20
8.37946
30
4.24
0
VERTEX
10
8.38389
20
8.36172
30
4.24
0
VERTEX
10
8.39054
20
8.34398
30
4.24
0
VERTEX
10
8.39276
20
8.32624
30
4.24
0
VERTEX
10
8.39276
20
8.31737
30
4.24
0
VERTEX
10
8.39276
20
8.31294
30
4.24
0
VERTEX
10
8.3972
20
8.3085
30
4.24
0
VERTEX
10
8.3972
20
8.29076
30
4.24
0
VERTEX
10
8.40385
20
8.28189
30
4.24
0
VERTEX
10
8.4105
20
8.26415
30
4.24
0
VERTEX
10
8.42159
20
8.24641
30
4.24
0
VERTEX
10
8.42824
20
8.22868
30
4.24
0
VERTEX
10
8.43046
20
8.21981
30
4.24
0
VERTEX
10
8.43489
20
8.21537
30
4.24
0
VERTEX
10
8.44154
20
8.19763
30
4.24
0
VERTEX
10
8.44376
20
8.18876
30
4.24
0
VERTEX
10
8.4482
20
8.18433
30
4.24
0
VERTEX
10
8.45263
20
8.16659
30
4.24
0
VERTEX
10
8.45485
20
8.15772
30
4.24
0
VERTEX
10
8.45707
20
8.15328
30
4.24
0
VERTEX
10
8.46372
20
8.15994
30
4.24
0
VERTEX
10
8.46815
20
8.15994
30
4.24
0
VERTEX
10
8.47702
20
8.16659
30
4.24
0
VERTEX
10
8.48589
20
8.16881
30
4.24
0
VERTEX
10
8.49254
20
8.17546
30
4.24
0
VERTEX
10
8.50141
20
8.17768
30
4.24
0
VERTEX
10
8.53689
20
8.19763
30
4.24
0
VERTEX
10
8.55241
20
8.20428
30
4.24
0
VERTEX
10
8.55685
20
8.20428
30
4.24
0
VERTEX
10
8.56128
20
8.20872
30
4.24
0
VERTEX
10
8.59676
20
8.21315
30
4.24
0
VERTEX
10
8.6145
20
8.21537
30
4.24
0
VERTEX
10
8.62337
20
8.21537
30
4.24
0
VERTEX
10
8.63224
20
8.21981
30
4.24
0
VERTEX
10
8.66772
20
8.22202
30
4.24
0
VERTEX
10
8.68545
20
8.22868
30
4.24
0
VERTEX
10
8.75641
20
8.23533
30
4.24
0
VERTEX
10
8.82737
20
8.25528
30
4.24
0
VERTEX
10
8.8318
20
8.25972
30
4.24
0
VERTEX
10
8.86728
20
8.26637
30
4.24
0
VERTEX
10
8.88502
20
8.27302
30
4.24
0
VERTEX
10
8.88945
20
8.27302
30
4.24
0
VERTEX
10
8.89389
20
8.26859
30
4.24
0
VERTEX
10
8.92937
20
8.27524
30
4.24
0
VERTEX
10
9.07128
20
8.27302
30
4.24
0
VERTEX
10
9.10676
20
8.26637
30
4.24
0
VERTEX
10
9.14223
20
8.26637
30
4.24
0
VERTEX
10
9.17771
20
8.27081
30
4.24
0
VERTEX
10
9.19545
20
8.27524
30
4.24
0
VERTEX
10
9.23093
20
8.27524
30
4.24
0
VERTEX
10
9.24867
20
8.27968
30
4.24
0
VERTEX
10
9.26641
20
8.27968
30
4.24
0
VERTEX
10
9.30188
20
8.28633
30
4.24
0
VERTEX
10
9.33736
20
8.28854
30
4.24
0
VERTEX
10
9.34623
20
8.29298
30
4.24
0
VERTEX
10
9.38171
20
8.29298
30
4.24
0
VERTEX
10
9.39945
20
8.28854
30
4.24
0
VERTEX
10
9.47041
20
8.28633
30
4.24
0
VERTEX
10
9.50588
20
8.28633
30
4.24
0
VERTEX
10
9.52362
20
8.28633
30
4.24
0
VERTEX
10
9.53249
20
8.28411
30
4.24
0
VERTEX
10
9.53471
20
8.27746
30
4.24
0
VERTEX
10
9.54358
20
8.27081
30
4.24
0
VERTEX
10
9.56132
20
8.27081
30
4.24
0
VERTEX
10
9.5968
20
8.2575
30
4.24
0
VERTEX
10
9.61453
20
8.25528
30
4.24
0
VERTEX
10
9.63006
20
8.24863
30
4.24
0
VERTEX
10
9.64558
20
8.23533
30
4.24
0
VERTEX
10
9.66332
20
8.22868
30
4.24
0
VERTEX
10
9.69879
20
8.22868
30
4.24
0
VERTEX
10
9.70323
20
8.22424
30
4.24
0
VERTEX
10
9.72097
20
8.22202
30
4.24
0
VERTEX
10
9.7254
20
8.22202
30
4.24
0
VERTEX
10
9.72984
20
8.21759
30
4.24
0
VERTEX
10
9.80079
20
8.21537
30
4.24
0
VERTEX
10
9.83627
20
8.21981
30
4.24
0
VERTEX
10
9.84514
20
8.22646
30
4.24
0
VERTEX
10
9.86288
20
8.23089
30
4.24
0
VERTEX
10
9.88062
20
8.23976
30
4.24
0
VERTEX
10
9.89836
20
8.25307
30
4.24
0
VERTEX
10
9.90279
20
8.2575
30
4.24
0
VERTEX
10
9.90723
20
8.2575
30
4.24
0
VERTEX
10
9.90945
20
8.26194
30
4.24
0
VERTEX
10
9.92718
20
8.26637
30
4.24
0
VERTEX
10
9.93162
20
8.26637
30
4.24
0
VERTEX
10
9.96044
20
8.2952
30
4.24
0
VERTEX
10
9.96488
20
8.29963
30
4.24
0
VERTEX
10
9.96488
20
8.31737
30
4.24
0
VERTEX
10
9.97153
20
8.33511
30
4.24
0
VERTEX
10
9.97375
20
8.34398
30
4.24
0
VERTEX
10
9.9804
20
8.35063
30
4.24
0
VERTEX
10
9.98484
20
8.36837
30
4.24
0
VERTEX
10
9.98484
20
8.37281
30
4.24
0
VERTEX
10
9.98927
20
8.37724
30
4.24
0
VERTEX
10
9.99149
20
8.39498
30
4.24
0
VERTEX
10
9.99371
20
8.40385
30
4.24
0
VERTEX
10
9.99814
20
8.40828
30
4.24
0
VERTEX
10
10.0004
20
8.47924
30
4.24
0
VERTEX
10
9.99814
20
8.51472
30
4.24
0
VERTEX
10
9.99814
20
8.51915
30
4.24
0
VERTEX
10
9.99371
20
8.52137
30
4.24
0
VERTEX
10
9.99149
20
8.53911
30
4.24
0
VERTEX
10
9.98927
20
8.54798
30
4.24
0
VERTEX
10
9.98262
20
8.55685
30
4.24
0
VERTEX
10
9.98262
20
8.57459
30
4.24
0
VERTEX
10
9.97153
20
8.61006
30
4.24
0
VERTEX
10
9.9671
20
8.6278
30
4.24
0
VERTEX
10
9.94714
20
8.66328
30
4.24
0
VERTEX
10
9.93605
20
8.67437
30
4.24
0
VERTEX
10
9.9294
20
8.69211
30
4.24
0
VERTEX
10
9.90723
20
8.72537
30
4.24
0
VERTEX
10
9.89614
20
8.74311
30
4.24
0
VERTEX
10
9.8651
20
8.77415
30
4.24
0
VERTEX
10
9.85179
20
8.79189
30
4.24
0
VERTEX
10
9.83405
20
8.80298
30
4.24
0
VERTEX
10
9.83184
20
8.80741
30
4.24
0
VERTEX
10
9.8274
20
8.80741
30
4.24
0
VERTEX
10
9.80966
20
8.82293
30
4.24
0
VERTEX
10
9.77419
20
8.84511
30
4.24
0
VERTEX
10
9.75645
20
8.85619
30
4.24
0
VERTEX
10
9.75201
20
8.85619
30
4.24
0
VERTEX
10
9.74758
20
8.86063
30
4.24
0
VERTEX
10
9.73871
20
8.86284
30
4.24
0
VERTEX
10
9.73427
20
8.86284
30
4.24
0
VERTEX
10
9.7254
20
8.8695
30
4.24
0
VERTEX
10
9.65666
20
8.88945
30
4.24
0
VERTEX
10
9.63893
20
8.89389
30
4.24
0
VERTEX
10
9.62119
20
8.90276
30
4.24
0
VERTEX
10
9.58571
20
8.91163
30
4.24
0
VERTEX
10
9.58127
20
8.91163
30
4.24
0
VERTEX
10
9.57906
20
8.91606
30
4.24
0
VERTEX
10
9.5081
20
8.93824
30
4.24
0
VERTEX
10
9.47262
20
8.94489
30
4.24
0
VERTEX
10
9.46819
20
8.94489
30
4.24
0
VERTEX
10
9.47927
20
8.95376
30
4.24
0
VERTEX
10
9.4438
20
8.95597
30
4.24
0
VERTEX
10
9.40832
20
8.94932
30
4.24
0
VERTEX
10
9.37284
20
8.9471
30
4.24
0
VERTEX
10
9.3551
20
8.94489
30
4.24
0
VERTEX
10
9.33736
20
8.93602
30
4.24
0
VERTEX
10
9.32849
20
8.9338
30
4.24
0
VERTEX
10
9.32406
20
8.92937
30
4.24
0
VERTEX
10
9.31962
20
8.92937
30
4.24
0
VERTEX
10
9.31297
20
8.9205
30
4.24
0
VERTEX
10
9.3041
20
8.91828
30
4.24
0
VERTEX
10
9.29523
20
8.91163
30
4.24
0
VERTEX
10
9.27749
20
8.90719
30
4.24
0
VERTEX
10
9.25975
20
8.89832
30
4.24
0
VERTEX
10
9.24202
20
8.89611
30
4.24
0
VERTEX
10
9.23315
20
8.89389
30
4.24
0
VERTEX
10
9.19989
20
8.87393
30
4.24
0
VERTEX
10
9.19102
20
8.87171
30
4.24
0
VERTEX
10
9.17328
20
8.86063
30
4.24
0
VERTEX
10
9.15554
20
8.85398
30
4.24
0
VERTEX
10
9.14667
20
8.85176
30
4.24
0
VERTEX
10
9.13336
20
8.84067
30
4.24
0
VERTEX
10
9.11784
20
8.83402
30
4.24
0
VERTEX
10
9.10897
20
8.8318
30
4.24
0
VERTEX
10
9.10454
20
8.82737
30
4.24
0
VERTEX
10
9.09567
20
8.82515
30
4.24
0
VERTEX
10
9.09123
20
8.82515
30
4.24
0
VERTEX
10
9.07793
20
8.81185
30
4.24
0
VERTEX
10
9.06906
20
8.81185
30
4.24
0
VERTEX
10
9.03358
20
8.79854
30
4.24
0
VERTEX
10
8.9981
20
8.77858
30
4.24
0
VERTEX
10
8.98258
20
8.7675
30
4.24
0
VERTEX
10
8.97371
20
8.76085
30
4.24
0
VERTEX
10
8.96928
20
8.76085
30
4.24
0
VERTEX
10
8.95154
20
8.74976
30
4.24
0
VERTEX
10
8.91606
20
8.73424
30
4.24
0
VERTEX
10
8.89832
20
8.72758
30
4.24
0
VERTEX
10
8.88945
20
8.72537
30
4.24
0
VERTEX
10
8.87171
20
8.71428
30
4.24
0
VERTEX
10
8.8695
20
8.70985
30
4.24
0
VERTEX
10
8.85176
20
8.70541
30
4.24
0
VERTEX
10
8.83402
20
8.69654
30
4.24
0
VERTEX
10
8.82293
20
8.68324
30
4.24
0
VERTEX
10
8.80519
20
8.67437
30
4.24
0
VERTEX
10
8.73424
20
8.6655
30
4.24
0
VERTEX
10
8.69876
20
8.66106
30
4.24
0
VERTEX
10
8.68989
20
8.66106
30
4.24
0
VERTEX
10
8.68545
20
8.66106
30
4.24
0
VERTEX
10
8.68102
20
8.65663
30
4.24
0
VERTEX
10
8.64554
20
8.65219
30
4.24
0
VERTEX
10
8.6278
20
8.64554
30
4.24
0
VERTEX
10
8.55685
20
8.64332
30
4.24
0
VERTEX
10
8.48589
20
8.63224
30
4.24
0
VERTEX
10
8.47702
20
8.6278
30
4.24
0
VERTEX
10
8.40607
20
8.63224
30
4.24
0
VERTEX
10
8.3972
20
8.63667
30
4.24
0
VERTEX
10
8.36172
20
8.64332
30
4.24
0
VERTEX
10
8.32624
20
8.65663
30
4.24
0
VERTEX
10
8.3085
20
8.65885
30
4.24
0
VERTEX
10
8.29076
20
8.66993
30
4.24
0
VERTEX
10
8.27302
20
8.67659
30
4.24
0
VERTEX
10
8.25528
20
8.6788
30
4.24
0
VERTEX
10
8.24641
20
8.67659
30
4.24
0
VERTEX
10
8.2442
20
8.64111
30
4.24
0
VERTEX
10
8.2442
20
8.63889
30
4.24
0
SEQEND
0
POLYLINE
62
31
66
1
70
1
3
contour
0
VERTEX
10
7.82351
20
7.76106
30
4.24
0
VERTEX
10
7.82894
20
7.67416
30
4.24
0
VERTEX
10
7.83709
20
7.63071
30
4.24
0
VERTEX
10
7.83981
20
7.60898
30
4.24
0
VERTEX
10
7.84795
20
7.59812
30
4.24
0
VERTEX
10
7.84795
20
7.58726
30
4.24
0
VERTEX
10
7.85067
20
7.58183
30
4.24
0
VERTEX
10
7.86153
20
7.57911
30
4.24
0
VERTEX
10
7.87239
20
7.57097
30
4.24
0
VERTEX
10
7.91584
20
7.56825
30
4.24
0
VERTEX
10
8.00274
20
7.57097
30
4.24
0
VERTEX
10
8.02446
20
7.57368
30
4.24
0
VERTEX
10
8.0652
20
7.59541
30
4.24
0
VERTEX
10
8.07063
20
7.59541
30
4.24
0
VERTEX
10
8.11136
20
7.62256
30
4.24
0
VERTEX
10
8.13309
20
7.63886
30
4.24
0
VERTEX
10
8.14395
20
7.64157
30
4.24
0
VERTEX
10
8.16567
20
7.65515
30
4.24
0
VERTEX
10
8.20641
20
7.69045
30
4.24
0
VERTEX
10
8.21184
20
7.69588
30
4.24
0
VERTEX
10
8.2227
20
7.6986
30
4.24
0
VERTEX
10
8.258
20
7.7339
30
4.24
0
VERTEX
10
8.26615
20
7.74205
30
4.24
0
VERTEX
10
8.26343
20
7.82894
30
4.24
0
VERTEX
10
8.25529
20
7.87239
30
4.24
0
VERTEX
10
8.25257
20
7.91584
30
4.24
0
VERTEX
10
8.25257
20
7.93757
30
4.24
0
VERTEX
10
8.24986
20
7.94843
30
4.24
0
VERTEX
10
8.24986
20
7.95386
30
4.24
0
VERTEX
10
8.24171
20
7.96201
30
4.24
0
VERTEX
10
8.24171
20
7.96744
30
4.24
0
VERTEX
10
8.21727
20
8.00546
30
4.24
0
VERTEX
10
8.21727
20
8.01089
30
4.24
0
VERTEX
10
8.21184
20
8.01632
30
4.24
0
VERTEX
10
8.20641
20
8.03804
30
4.24
0
VERTEX
10
8.19826
20
8.0489
30
4.24
0
VERTEX
10
8.19826
20
8.05434
30
4.24
0
VERTEX
10
8.19283
20
8.05977
30
4.24
0
VERTEX
10
8.19283
20
8.0652
30
4.24
0
VERTEX
10
8.1874
20
8.07063
30
4.24
0
VERTEX
10
8.18468
20
8.08149
30
4.24
0
VERTEX
10
8.17654
20
8.09235
30
4.24
0
VERTEX
10
8.16839
20
8.11408
30
4.24
0
VERTEX
10
8.16296
20
8.12222
30
4.24
0
VERTEX
10
8.16024
20
8.12494
30
4.24
0
VERTEX
10
8.1521
20
8.11679
30
4.24
0
VERTEX
10
8.0652
20
8.11408
30
4.24
0
VERTEX
10
8.02175
20
8.10865
30
4.24
0
VERTEX
10
8.00002
20
8.10593
30
4.24
0
VERTEX
10
7.98916
20
8.10593
30
4.24
0
VERTEX
10
7.96744
20
8.09778
30
4.24
0
VERTEX
10
7.95658
20
8.09778
30
4.24
0
VERTEX
10
7.94571
20
8.09235
30
4.24
0
VERTEX
10
7.94028
20
8.09235
30
4.24
0
VERTEX
10
7.93214
20
8.08149
30
4.24
0
VERTEX
10
7.9267
20
8.08149
30
4.24
0
VERTEX
10
7.9077
20
8.05977
30
4.24
0
VERTEX
10
7.89412
20
8.03804
30
4.24
0
VERTEX
10
7.88326
20
8.02718
30
4.24
0
VERTEX
10
7.88054
20
8.01632
30
4.24
0
VERTEX
10
7.87511
20
8.01089
30
4.24
0
VERTEX
10
7.86696
20
7.96744
30
4.24
0
VERTEX
10
7.86425
20
7.95658
30
4.24
0
VERTEX
10
7.8561
20
7.94843
30
4.24
0
VERTEX
10
7.85338
20
7.9267
30
4.24
0
VERTEX
10
7.84252
20
7.90498
30
4.24
0
VERTEX
10
7.84252
20
7.89955
30
4.24
0
VERTEX
10
7.83438
20
7.8914
30
4.24
0
VERTEX
10
7.82894
20
7.86968
30
4.24
0
VERTEX
10
7.82894
20
7.85882
30
4.24
0
VERTEX
10
7.82351
20
7.84795
30
4.24
0
VERTEX
10
7.82351
20
7.76377
30
4.24
0
SEQEND
0
POLYLINE
62
224
66
1
70
1
3
mitochondrion
0
VERTEX
10
9.48968
20
8.57895
30
4.24
0
VERTEX
10
9.49386
20
8.56783
30
4.24
0
VERTEX
10
9.49803
20
8.54558
30
4.24
0
VERTEX
10
9.50498
20
8.53446
30
4.24
0
VERTEX
10
9.50776
20
8.52334
30
4.24
0
VERTEX
10
9.51054
20
8.51777
30
4.24
0
VERTEX
10
9.51054
20
8.51221
30
4.24
0
VERTEX
10
9.51749
20
8.50109
30
4.24
0
VERTEX
10
9.52166
20
8.47884
30
4.24
0
VERTEX
10
9.52166
20
8.46772
30
4.24
0
VERTEX
10
9.52584
20
8.46216
30
4.24
0
VERTEX
10
9.53001
20
8.45103
30
4.24
0
VERTEX
10
9.54808
20
8.43018
30
4.24
0
VERTEX
10
9.55225
20
8.42461
30
4.24
0
VERTEX
10
9.55782
20
8.42183
30
4.24
0
VERTEX
10
9.57589
20
8.40376
30
4.24
0
VERTEX
10
9.58701
20
8.39959
30
4.24
0
VERTEX
10
9.59814
20
8.38985
30
4.24
0
VERTEX
10
9.60092
20
8.38985
30
4.24
0
VERTEX
10
9.6037
20
8.38707
30
4.24
0
VERTEX
10
9.60648
20
8.38707
30
4.24
0
VERTEX
10
9.61204
20
8.3829
30
4.24
0
VERTEX
10
9.6176
20
8.38151
30
4.24
0
VERTEX
10
9.62038
20
8.37873
30
4.24
0
VERTEX
10
9.63151
20
8.37595
30
4.24
0
VERTEX
10
9.63707
20
8.37317
30
4.24
0
VERTEX
10
9.64819
20
8.37178
30
4.24
0
VERTEX
10
9.65375
20
8.37039
30
4.24
0
VERTEX
10
9.66488
20
8.36205
30
4.24
0
VERTEX
10
9.676
20
8.35787
30
4.24
0
VERTEX
10
9.68156
20
8.35648
30
4.24
0
VERTEX
10
9.68713
20
8.35231
30
4.24
0
VERTEX
10
9.73162
20
8.35092
30
4.24
0
VERTEX
10
9.75387
20
8.35092
30
4.24
0
VERTEX
10
9.79836
20
8.35648
30
4.24
0
VERTEX
10
9.82061
20
8.36066
30
4.24
0
VERTEX
10
9.82617
20
8.36066
30
4.24
0
VERTEX
10
9.82895
20
8.36344
30
4.24
0
VERTEX
10
9.83451
20
8.36483
30
4.24
0
VERTEX
10
9.84424
20
8.37178
30
4.24
0
VERTEX
10
9.84702
20
8.37178
30
4.24
0
VERTEX
10
9.8512
20
8.37734
30
4.24
0
VERTEX
10
9.85954
20
8.38429
30
4.24
0
VERTEX
10
9.86788
20
8.39403
30
4.24
0
VERTEX
10
9.86788
20
8.39681
30
4.24
0
VERTEX
10
9.87483
20
8.40376
30
4.24
0
VERTEX
10
9.87483
20
8.40654
30
4.24
0
VERTEX
10
9.88318
20
8.41627
30
4.24
0
VERTEX
10
9.88735
20
8.42183
30
4.24
0
VERTEX
10
9.89152
20
8.43296
30
4.24
0
VERTEX
10
9.89291
20
8.44408
30
4.24
0
VERTEX
10
9.89569
20
8.44964
30
4.24
0
VERTEX
10
9.89569
20
8.4552
30
4.24
0
VERTEX
10
9.89986
20
8.46633
30
4.24
0
VERTEX
10
9.90542
20
8.51082
30
4.24
0
VERTEX
10
9.90403
20
8.53307
30
4.24
0
VERTEX
10
9.90403
20
8.53863
30
4.24
0
VERTEX
10
9.90125
20
8.54419
30
4.24
0
VERTEX
10
9.89986
20
8.56644
30
4.24
0
VERTEX
10
9.88457
20
8.60954
30
4.24
0
VERTEX
10
9.87761
20
8.63179
30
4.24
0
VERTEX
10
9.87344
20
8.63735
30
4.24
0
VERTEX
10
9.87066
20
8.64708
30
4.24
0
VERTEX
10
9.86232
20
8.65682
30
4.24
0
VERTEX
10
9.86093
20
8.66238
30
4.24
0
VERTEX
10
9.84702
20
8.68463
30
4.24
0
VERTEX
10
9.84007
20
8.69575
30
4.24
0
VERTEX
10
9.83729
20
8.69853
30
4.24
0
VERTEX
10
9.8359
20
8.70409
30
4.24
0
VERTEX
10
9.83173
20
8.70965
30
4.24
0
VERTEX
10
9.83173
20
8.71243
30
4.24
0
VERTEX
10
9.81365
20
8.73329
30
4.24
0
VERTEX
10
9.80392
20
8.74163
30
4.24
0
VERTEX
10
9.79836
20
8.74719
30
4.24
0
VERTEX
10
9.7928
20
8.75693
30
4.24
0
VERTEX
10
9.77333
20
8.77361
30
4.24
0
VERTEX
10
9.76221
20
8.78056
30
4.24
0
VERTEX
10
9.75665
20
8.78196
30
4.24
0
VERTEX
10
9.74552
20
8.78891
30
4.24
0
VERTEX
10
9.70103
20
8.79169
30
4.24
0
VERTEX
10
9.68991
20
8.78891
30
4.24
0
VERTEX
10
9.64541
20
8.78752
30
4.24
0
VERTEX
10
9.60092
20
8.78335
30
4.24
0
VERTEX
10
9.5898
20
8.78196
30
4.24
0
VERTEX
10
9.56755
20
8.77361
30
4.24
0
VERTEX
10
9.55642
20
8.76805
30
4.24
0
VERTEX
10
9.54669
20
8.75832
30
4.24
0
VERTEX
10
9.54113
20
8.75554
30
4.24
0
VERTEX
10
9.53279
20
8.74441
30
4.24
0
VERTEX
10
9.52862
20
8.73468
30
4.24
0
VERTEX
10
9.52444
20
8.73051
30
4.24
0
VERTEX
10
9.5161
20
8.75276
30
4.24
0
VERTEX
10
9.51471
20
8.75415
30
4.24
0
VERTEX
10
9.51332
20
8.74858
30
4.24
0
VERTEX
10
9.51054
20
8.7458
30
4.24
0
VERTEX
10
9.50776
20
8.73468
30
4.24
0
VERTEX
10
9.50776
20
8.7319
30
4.24
0
VERTEX
10
9.50498
20
8.72912
30
4.24
0
VERTEX
10
9.5022
20
8.718
30
4.24
0
VERTEX
10
9.5022
20
8.70687
30
4.24
0
VERTEX
10
9.5022
20
8.70131
30
4.24
0
VERTEX
10
9.49803
20
8.69158
30
4.24
0
VERTEX
10
9.49386
20
8.64708
30
4.24
0
VERTEX
10
9.49386
20
8.62484
30
4.24
0
VERTEX
10
9.49386
20
8.61371
30
4.24
0
VERTEX
10
9.48968
20
8.59147
30
4.24
0
VERTEX
10
9.48968
20
8.58034
30
4.24
0
SEQEND
0
POLYLINE
62
227
66
1
70
1
3
endoplasmic_reticulum
0
VERTEX
10
9.44869
20
8.73418
30
4.24
0
VERTEX
10
9.45631
20
8.72656
30
4.24
0
VERTEX
10
9.45936
20
8.72656
30
4.24
0
VERTEX
10
9.47002
20
8.71742
30
4.24
0
VERTEX
10
9.47155
20
8.71437
30
4.24
0
VERTEX
10
9.47459
20
8.71894
30
4.24
0
VERTEX
10
9.48069
20
8.72351
30
4.24
0
VERTEX
10
9.50354
20
8.73265
30
4.24
0
VERTEX
10
9.52792
20
8.74789
30
4.24
0
VERTEX
10
9.53096
20
8.74789
30
4.24
0
VERTEX
10
9.53401
20
8.75094
30
4.24
0
VERTEX
10
9.53706
20
8.75094
30
4.24
0
VERTEX
10
9.54924
20
8.7616
30
4.24
0
VERTEX
10
9.55839
20
8.77074
30
4.24
0
VERTEX
10
9.56448
20
8.77531
30
4.24
0
VERTEX
10
9.56448
20
8.77836
30
4.24
0
VERTEX
10
9.57514
20
8.78902
30
4.24
0
VERTEX
10
9.58733
20
8.79664
30
4.24
0
VERTEX
10
9.59647
20
8.8073
30
4.24
0
VERTEX
10
9.60104
20
8.81949
30
4.24
0
VERTEX
10
9.60104
20
8.83168
30
4.24
0
VERTEX
10
9.59952
20
8.83777
30
4.24
0
VERTEX
10
9.59952
20
8.84082
30
4.24
0
VERTEX
10
9.59343
20
8.84387
30
4.24
0
VERTEX
10
9.58124
20
8.84387
30
4.24
0
VERTEX
10
9.57514
20
8.84387
30
4.24
0
VERTEX
10
9.56448
20
8.83777
30
4.24
0
VERTEX
10
9.5401
20
8.8393
30
4.24
0
VERTEX
10
9.53706
20
8.8393
30
4.24
0
VERTEX
10
9.5142
20
8.85453
30
4.24
0
VERTEX
10
9.50963
20
8.85301
30
4.24
0
VERTEX
10
9.51116
20
8.84996
30
4.24
0
VERTEX
10
9.50506
20
8.84844
30
4.24
0
VERTEX
10
9.50202
20
8.84539
30
4.24
0
VERTEX
10
9.50202
20
8.8332
30
4.24
0
VERTEX
10
9.50202
20
8.82711
30
4.24
0
VERTEX
10
9.49897
20
8.82102
30
4.24
0
VERTEX
10
9.49897
20
8.81492
30
4.24
0
VERTEX
10
9.49592
20
8.81035
30
4.24
0
VERTEX
10
9.49592
20
8.79816
30
4.24
0
VERTEX
10
9.48983
20
8.7875
30
4.24
0
VERTEX
10
9.48069
20
8.77683
30
4.24
0
VERTEX
10
9.47612
20
8.77074
30
4.24
0
VERTEX
10
9.46393
20
8.76617
30
4.24
0
VERTEX
10
9.45326
20
8.75855
30
4.24
0
VERTEX
10
9.44869
20
8.74636
30
4.24
0
VERTEX
10
9.44869
20
8.7357
30
4.24
0
SEQEND
0
POLYLINE
62
227
66
1
70
1
3
endoplasmic_reticulum
0
VERTEX
10
9.18056
20
8.38987
30
4.24
0
VERTEX
10
9.18208
20
8.37768
30
4.24
0
VERTEX
10
9.18513
20
8.37159
30
4.24
0
VERTEX
10
9.18818
20
8.36854
30
4.24
0
VERTEX
10
9.19122
20
8.36854
30
4.24
0
VERTEX
10
9.19732
20
8.36397
30
4.24
0
VERTEX
10
9.22169
20
8.36397
30
4.24
0
VERTEX
10
9.23388
20
8.36549
30
4.24
0
VERTEX
10
9.25673
20
8.37616
30
4.24
0
VERTEX
10
9.27502
20
8.39901
30
4.24
0
VERTEX
10
9.28111
20
8.40358
30
4.24
0
VERTEX
10
9.2933
20
8.40663
30
4.24
0
VERTEX
10
9.31767
20
8.40815
30
4.24
0
VERTEX
10
9.32072
20
8.41272
30
4.24
0
VERTEX
10
9.33291
20
8.41577
30
4.24
0
VERTEX
10
9.33596
20
8.41577
30
4.24
0
VERTEX
10
9.34814
20
8.42338
30
4.24
0
VERTEX
10
9.35881
20
8.43405
30
4.24
0
VERTEX
10
9.36643
20
8.44624
30
4.24
0
VERTEX
10
9.37709
20
8.4569
30
4.24
0
VERTEX
10
9.37861
20
8.463
30
4.24
0
VERTEX
10
9.38471
20
8.46909
30
4.24
0
VERTEX
10
9.38623
20
8.47518
30
4.24
0
VERTEX
10
9.3908
20
8.47975
30
4.24
0
VERTEX
10
9.3908
20
8.50413
30
4.24
0
VERTEX
10
9.3908
20
8.51632
30
4.24
0
VERTEX
10
9.3908
20
8.52241
30
4.24
0
VERTEX
10
9.38623
20
8.52698
30
4.24
0
VERTEX
10
9.38318
20
8.53917
30
4.24
0
VERTEX
10
9.38014
20
8.54526
30
4.24
0
VERTEX
10
9.38014
20
8.54831
30
4.24
0
VERTEX
10
9.37709
20
8.55136
30
4.24
0
VERTEX
10
9.37404
20
8.56202
30
4.24
0
VERTEX
10
9.371
20
8.56812
30
4.24
0
VERTEX
10
9.371
20
8.5803
30
4.24
0
VERTEX
10
9.36947
20
8.5864
30
4.24
0
VERTEX
10
9.3649
20
8.59097
30
4.24
0
VERTEX
10
9.36338
20
8.59706
30
4.24
0
VERTEX
10
9.35119
20
8.60773
30
4.24
0
VERTEX
10
9.339
20
8.61534
30
4.24
0
VERTEX
10
9.33291
20
8.61839
30
4.24
0
VERTEX
10
9.32072
20
8.61991
30
4.24
0
VERTEX
10
9.29635
20
8.63058
30
4.24
0
VERTEX
10
9.29025
20
8.63363
30
4.24
0
VERTEX
10
9.27806
20
8.63515
30
4.24
0
VERTEX
10
9.27197
20
8.63667
30
4.24
0
VERTEX
10
9.26892
20
8.63667
30
4.24
0
VERTEX
10
9.26588
20
8.63972
30
4.24
0
VERTEX
10
9.25978
20
8.63972
30
4.24
0
VERTEX
10
9.25521
20
8.64429
30
4.24
0
VERTEX
10
9.23083
20
8.64429
30
4.24
0
VERTEX
10
9.21865
20
8.64124
30
4.24
0
VERTEX
10
9.20646
20
8.64124
30
4.24
0
VERTEX
10
9.19732
20
8.63515
30
4.24
0
VERTEX
10
9.19427
20
8.63515
30
4.24
0
VERTEX
10
9.19122
20
8.6321
30
4.24
0
VERTEX
10
9.18818
20
8.61991
30
4.24
0
VERTEX
10
9.18818
20
8.60773
30
4.24
0
VERTEX
10
9.1897
20
8.60163
30
4.24
0
VERTEX
10
9.1897
20
8.59859
30
4.24
0
VERTEX
10
9.19275
20
8.59554
30
4.24
0
VERTEX
10
9.20494
20
8.59402
30
4.24
0
VERTEX
10
9.20951
20
8.58945
30
4.24
0
VERTEX
10
9.22169
20
8.5864
30
4.24
0
VERTEX
10
9.27045
20
8.58183
30
4.24
0
VERTEX
10
9.27654
20
8.58183
30
4.24
0
VERTEX
10
9.28263
20
8.57878
30
4.24
0
VERTEX
10
9.30701
20
8.57573
30
4.24
0
VERTEX
10
9.31615
20
8.56507
30
4.24
0
VERTEX
10
9.33748
20
8.51632
30
4.24
0
VERTEX
10
9.33748
20
8.49194
30
4.24
0
VERTEX
10
9.33443
20
8.48889
30
4.24
0
VERTEX
10
9.32986
20
8.47671
30
4.24
0
VERTEX
10
9.32377
20
8.46909
30
4.24
0
VERTEX
10
9.32224
20
8.46452
30
4.24
0
VERTEX
10
9.31615
20
8.45995
30
4.24
0
VERTEX
10
9.29177
20
8.44928
30
4.24
0
VERTEX
10
9.27959
20
8.44319
30
4.24
0
VERTEX
10
9.25521
20
8.4371
30
4.24
0
VERTEX
10
9.24912
20
8.4371
30
4.24
0
VERTEX
10
9.24302
20
8.43405
30
4.24
0
VERTEX
10
9.23998
20
8.43405
30
4.24
0
VERTEX
10
9.22779
20
8.42643
30
4.24
0
VERTEX
10
9.2156
20
8.42186
30
4.24
0
VERTEX
10
9.21255
20
8.41881
30
4.24
0
VERTEX
10
9.20646
20
8.41881
30
4.24
0
VERTEX
10
9.19427
20
8.41272
30
4.24
0
VERTEX
10
9.19122
20
8.40967
30
4.24
0
VERTEX
10
9.18513
20
8.40815
30
4.24
0
VERTEX
10
9.18056
20
8.40206
30
4.24
0
VERTEX
10
9.18056
20
8.39139
30
4.24
0
SEQEND
0
POLYLINE
62
227
66
1
70
1
3
endoplasmic_reticulum
0
VERTEX
10
7.99369
20
7.99137
30
4.24
0
VERTEX
10
7.99833
20
7.98672
30
4.24
0
VERTEX
10
8.00297
20
7.98672
30
4.24
0
VERTEX
10
8.0169
20
7.97047
30
4.24
0
VERTEX
10
8.05405
20
7.9635
30
4.24
0
VERTEX
10
8.07263
20
7.9635
30
4.24
0
VERTEX
10
8.08191
20
7.9635
30
4.24
0
VERTEX
10
8.08656
20
7.96583
30
4.24
0
VERTEX
10
8.08888
20
7.9844
30
4.24
0
VERTEX
10
8.08656
20
8.00297
30
4.24
0
VERTEX
10
8.07495
20
8.01923
30
4.24
0
VERTEX
10
8.07263
20
8.02387
30
4.24
0
VERTEX
10
8.06798
20
8.02387
30
4.24
0
VERTEX
10
8.0587
20
8.04244
30
4.24
0
VERTEX
10
8.05173
20
8.05173
30
4.24
0
VERTEX
10
8.04941
20
8.05637
30
4.24
0
VERTEX
10
8.03316
20
8.04012
30
4.24
0
VERTEX
10
8.02387
20
8.04012
30
4.24
0
VERTEX
10
8.01458
20
8.03548
30
4.24
0
VERTEX
10
8.00994
20
8.03083
30
4.24
0
VERTEX
10
8.0053
20
8.03083
30
4.24
0
VERTEX
10
8.00065
20
8.02155
30
4.24
0
VERTEX
10
8.00065
20
8.01226
30
4.24
0
VERTEX
10
7.99369
20
8.0053
30
4.24
0
VERTEX
10
7.99369
20
7.99601
30
4.24
0
VERTEX
10
7.99369
20
7.99369
30
4.24
0
SEQEND
0
ENDSEC
0
EOF
