0
SECTION
2
ENTITIES
0
POLYLINE
62
31
66
1
70
1
3
contour
0
VERTEX
10
7.52863
20
10.3004
30
8.88
0
VERTEX
10
7.53522
20
10.2873
30
8.88
0
VERTEX
10
7.53851
20
10.2609
30
8.88
0
VERTEX
10
7.56814
20
10.2083
30
8.88
0
VERTEX
10
7.57143
20
10.1819
30
8.88
0
VERTEX
10
7.57143
20
10.1753
30
8.88
0
VERTEX
10
7.5813
20
10.1622
30
8.88
0
VERTEX
10
7.58789
20
10.1358
30
8.88
0
VERTEX
10
7.61422
20
10.1128
30
8.88
0
VERTEX
10
7.64056
20
10.0963
30
8.88
0
VERTEX
10
7.7459
20
10.093
30
8.88
0
VERTEX
10
7.75907
20
10.093
30
8.88
0
VERTEX
10
7.7854
20
10.0832
30
8.88
0
VERTEX
10
7.83807
20
10.0733
30
8.88
0
VERTEX
10
7.85124
20
10.0733
30
8.88
0
VERTEX
10
7.8677
20
10.0568
30
8.88
0
VERTEX
10
7.92037
20
10.0437
30
8.88
0
VERTEX
10
7.93354
20
10.0404
30
8.88
0
VERTEX
10
7.94012
20
10.0338
30
8.88
0
VERTEX
10
7.96646
20
10.0239
30
8.88
0
VERTEX
10
7.9895
20
10.0042
30
8.88
0
VERTEX
10
8.01255
20
9.99099
30
8.88
0
VERTEX
10
8.02242
20
9.97783
30
8.88
0
VERTEX
10
8.02901
20
9.97783
30
8.88
0
VERTEX
10
8.03559
20
9.97124
30
8.88
0
VERTEX
10
8.06193
20
9.97453
30
8.88
0
VERTEX
10
8.07509
20
9.98112
30
8.88
0
VERTEX
10
8.1113
20
10.0305
30
8.88
0
VERTEX
10
8.12776
20
10.0535
30
8.88
0
VERTEX
10
8.15081
20
10.0733
30
8.88
0
VERTEX
10
8.16727
20
10.0996
30
8.88
0
VERTEX
10
8.17385
20
10.126
30
8.88
0
VERTEX
10
8.18373
20
10.1325
30
8.88
0
VERTEX
10
8.18702
20
10.1589
30
8.88
0
VERTEX
10
8.19031
20
10.1721
30
8.88
0
VERTEX
10
8.19689
20
10.1786
30
8.88
0
VERTEX
10
8.19689
20
10.1852
30
8.88
0
VERTEX
10
8.21006
20
10.1984
30
8.88
0
VERTEX
10
8.21335
20
10.2116
30
8.88
0
VERTEX
10
8.22652
20
10.2214
30
8.88
0
VERTEX
10
8.24957
20
10.3268
30
8.88
0
VERTEX
10
8.26273
20
10.3794
30
8.88
0
VERTEX
10
8.26273
20
10.4058
30
8.88
0
VERTEX
10
8.28248
20
10.4584
30
8.88
0
VERTEX
10
8.28907
20
10.4617
30
8.88
0
VERTEX
10
8.28907
20
10.4683
30
8.88
0
VERTEX
10
8.29894
20
10.4815
30
8.88
0
VERTEX
10
8.29894
20
10.4881
30
8.88
0
VERTEX
10
8.30553
20
10.4914
30
8.88
0
VERTEX
10
8.30882
20
10.5045
30
8.88
0
VERTEX
10
8.3187
20
10.5177
30
8.88
0
VERTEX
10
8.3154
20
10.544
30
8.88
0
VERTEX
10
8.30882
20
10.5506
30
8.88
0
VERTEX
10
8.30224
20
10.577
30
8.88
0
VERTEX
10
8.30224
20
10.5901
30
8.88
0
VERTEX
10
8.30224
20
10.5967
30
8.88
0
VERTEX
10
8.28578
20
10.6198
30
8.88
0
VERTEX
10
8.28578
20
10.6329
30
8.88
0
VERTEX
10
8.28578
20
10.6395
30
8.88
0
VERTEX
10
8.27919
20
10.6428
30
8.88
0
VERTEX
10
8.27919
20
10.6494
30
8.88
0
VERTEX
10
8.26603
20
10.6593
30
8.88
0
VERTEX
10
8.25615
20
10.6856
30
8.88
0
VERTEX
10
8.23311
20
10.7021
30
8.88
0
VERTEX
10
8.12776
20
10.7053
30
8.88
0
VERTEX
10
8.02242
20
10.6988
30
8.88
0
VERTEX
10
7.99609
20
10.6988
30
8.88
0
VERTEX
10
7.96975
20
10.7086
30
8.88
0
VERTEX
10
7.94342
20
10.7086
30
8.88
0
VERTEX
10
7.91708
20
10.7185
30
8.88
0
VERTEX
10
7.89075
20
10.7218
30
8.88
0
VERTEX
10
7.86441
20
10.7185
30
8.88
0
VERTEX
10
7.85783
20
10.7185
30
8.88
0
VERTEX
10
7.84466
20
10.7086
30
8.88
0
VERTEX
10
7.83149
20
10.7053
30
8.88
0
VERTEX
10
7.82491
20
10.7053
30
8.88
0
VERTEX
10
7.81832
20
10.6988
30
8.88
0
VERTEX
10
7.76565
20
10.679
30
8.88
0
VERTEX
10
7.75907
20
10.679
30
8.88
0
VERTEX
10
7.7064
20
10.6461
30
8.88
0
VERTEX
10
7.68006
20
10.6362
30
8.88
0
VERTEX
10
7.66689
20
10.6329
30
8.88
0
VERTEX
10
7.61752
20
10.5901
30
8.88
0
VERTEX
10
7.61422
20
10.5638
30
8.88
0
VERTEX
10
7.59118
20
10.5144
30
8.88
0
VERTEX
10
7.5813
20
10.5012
30
8.88
0
VERTEX
10
7.57801
20
10.4881
30
8.88
0
VERTEX
10
7.56814
20
10.4749
30
8.88
0
VERTEX
10
7.55826
20
10.4519
30
8.88
0
VERTEX
10
7.53851
20
10.4255
30
8.88
0
VERTEX
10
7.52863
20
10.3202
30
8.88
0
VERTEX
10
7.52863
20
10.307
30
8.88
0
VERTEX
10
7.52863
20
10.3037
30
8.88
0
SEQEND
0
POLYLINE
62
31
66
1
70
1
3
contour
0
VERTEX
10
7.3531
20
9.66705
30
8.88
0
VERTEX
10
7.36164
20
9.63975
30
8.88
0
VERTEX
10
7.36334
20
9.63293
30
8.88
0
VERTEX
10
7.36846
20
9.62781
30
8.88
0
VERTEX
10
7.37017
20
9.62098
30
8.88
0
VERTEX
10
7.38211
20
9.61245
30
8.88
0
VERTEX
10
7.38553
20
9.60903
30
8.88
0
VERTEX
10
7.38894
20
9.60903
30
8.88
0
VERTEX
10
7.39577
20
9.60392
30
8.88
0
VERTEX
10
7.42307
20
9.60392
30
8.88
0
VERTEX
10
7.43672
20
9.60562
30
8.88
0
VERTEX
10
7.45037
20
9.61074
30
8.88
0
VERTEX
10
7.4572
20
9.61415
30
8.88
0
VERTEX
10
7.46914
20
9.6261
30
8.88
0
VERTEX
10
7.46914
20
9.6534
30
8.88
0
VERTEX
10
7.46402
20
9.66705
30
8.88
0
VERTEX
10
7.44355
20
9.69094
30
8.88
0
VERTEX
10
7.43672
20
9.69606
30
8.88
0
VERTEX
10
7.42819
20
9.7063
30
8.88
0
VERTEX
10
7.42478
20
9.7063
30
8.88
0
VERTEX
10
7.42307
20
9.70289
30
8.88
0
VERTEX
10
7.39577
20
9.71825
30
8.88
0
VERTEX
10
7.38894
20
9.72166
30
8.88
0
VERTEX
10
7.37529
20
9.71995
30
8.88
0
VERTEX
10
7.36846
20
9.71995
30
8.88
0
VERTEX
10
7.36164
20
9.71654
30
8.88
0
VERTEX
10
7.35993
20
9.70289
30
8.88
0
VERTEX
10
7.35993
20
9.69948
30
8.88
0
VERTEX
10
7.35481
20
9.69436
30
8.88
0
VERTEX
10
7.3531
20
9.66876
30
8.88
0
SEQEND
0
POLYLINE
62
224
66
1
70
1
3
mitochondrion
0
VERTEX
10
7.66961
20
10.317
30
8.88
0
VERTEX
10
7.671
20
10.2947
30
8.88
0
VERTEX
10
7.67239
20
10.2836
30
8.88
0
VERTEX
10
7.68213
20
10.2614
30
8.88
0
VERTEX
10
7.68213
20
10.2586
30
8.88
0
VERTEX
10
7.6863
20
10.2544
30
8.88
0
VERTEX
10
7.68769
20
10.2489
30
8.88
0
VERTEX
10
7.70576
20
10.228
30
8.88
0
VERTEX
10
7.71689
20
10.2169
30
8.88
0
VERTEX
10
7.72245
20
10.2141
30
8.88
0
VERTEX
10
7.73357
20
10.203
30
8.88
0
VERTEX
10
7.73913
20
10.2002
30
8.88
0
VERTEX
10
7.74191
20
10.2002
30
8.88
0
VERTEX
10
7.75304
20
10.1932
30
8.88
0
VERTEX
10
7.76416
20
10.1891
30
8.88
0
VERTEX
10
7.77528
20
10.1877
30
8.88
0
VERTEX
10
7.86427
20
10.1905
30
8.88
0
VERTEX
10
7.8754
20
10.1932
30
8.88
0
VERTEX
10
7.88096
20
10.196
30
8.88
0
VERTEX
10
7.88374
20
10.196
30
8.88
0
VERTEX
10
7.88652
20
10.1988
30
8.88
0
VERTEX
10
7.8893
20
10.1988
30
8.88
0
VERTEX
10
7.89347
20
10.2044
30
8.88
0
VERTEX
10
7.89903
20
10.2071
30
8.88
0
VERTEX
10
7.90598
20
10.2183
30
8.88
0
VERTEX
10
7.90737
20
10.2238
30
8.88
0
VERTEX
10
7.91433
20
10.235
30
8.88
0
VERTEX
10
7.92267
20
10.2572
30
8.88
0
VERTEX
10
7.92684
20
10.2683
30
8.88
0
VERTEX
10
7.92684
20
10.2739
30
8.88
0
VERTEX
10
7.92962
20
10.2767
30
8.88
0
VERTEX
10
7.93101
20
10.2878
30
8.88
0
VERTEX
10
7.93518
20
10.2989
30
8.88
0
VERTEX
10
7.93796
20
10.3017
30
8.88
0
VERTEX
10
7.94492
20
10.3226
30
8.88
0
VERTEX
10
7.94909
20
10.3337
30
8.88
0
VERTEX
10
7.95326
20
10.3782
30
8.88
0
VERTEX
10
7.95187
20
10.4227
30
8.88
0
VERTEX
10
7.94631
20
10.4449
30
8.88
0
VERTEX
10
7.94631
20
10.4505
30
8.88
0
VERTEX
10
7.94214
20
10.4616
30
8.88
0
VERTEX
10
7.94075
20
10.4672
30
8.88
0
VERTEX
10
7.94075
20
10.4699
30
8.88
0
VERTEX
10
7.93518
20
10.4741
30
8.88
0
VERTEX
10
7.93518
20
10.4769
30
8.88
0
VERTEX
10
7.92823
20
10.488
30
8.88
0
VERTEX
10
7.92823
20
10.4908
30
8.88
0
VERTEX
10
7.92545
20
10.4922
30
8.88
0
VERTEX
10
7.92267
20
10.5033
30
8.88
0
VERTEX
10
7.91016
20
10.5242
30
8.88
0
VERTEX
10
7.90737
20
10.5283
30
8.88
0
VERTEX
10
7.89764
20
10.5367
30
8.88
0
VERTEX
10
7.8754
20
10.5436
30
8.88
0
VERTEX
10
7.87261
20
10.5436
30
8.88
0
VERTEX
10
7.87122
20
10.5464
30
8.88
0
VERTEX
10
7.84898
20
10.5478
30
8.88
0
VERTEX
10
7.84342
20
10.5492
30
8.88
0
VERTEX
10
7.84063
20
10.5492
30
8.88
0
VERTEX
10
7.83785
20
10.552
30
8.88
0
VERTEX
10
7.79336
20
10.5548
30
8.88
0
VERTEX
10
7.77111
20
10.5534
30
8.88
0
VERTEX
10
7.76138
20
10.5436
30
8.88
0
VERTEX
10
7.75165
20
10.5367
30
8.88
0
VERTEX
10
7.74191
20
10.5269
30
8.88
0
VERTEX
10
7.73913
20
10.5269
30
8.88
0
VERTEX
10
7.72801
20
10.5186
30
8.88
0
VERTEX
10
7.71689
20
10.513
30
8.88
0
VERTEX
10
7.71132
20
10.5075
30
8.88
0
VERTEX
10
7.70854
20
10.5047
30
8.88
0
VERTEX
10
7.70715
20
10.4991
30
8.88
0
VERTEX
10
7.69325
20
10.4811
30
8.88
0
VERTEX
10
7.68908
20
10.4713
30
8.88
0
VERTEX
10
7.6863
20
10.4491
30
8.88
0
VERTEX
10
7.68491
20
10.4435
30
8.88
0
VERTEX
10
7.68491
20
10.4407
30
8.88
0
VERTEX
10
7.68213
20
10.438
30
8.88
0
VERTEX
10
7.67239
20
10.3935
30
8.88
0
VERTEX
10
7.66961
20
10.349
30
8.88
0
VERTEX
10
7.66961
20
10.3267
30
8.88
0
VERTEX
10
7.66961
20
10.3212
30
8.88
0
VERTEX
10
7.66961
20
10.3184
30
8.88
0
SEQEND
0
POLYLINE
62
227
66
1
70
1
3
endoplasmic_reticulum
0
VERTEX
10
7.60271
20
10.2269
30
8.88
0
VERTEX
10
7.6045
20
10.2251
30
8.88
0
VERTEX
10
7.60719
20
10.2108
30
8.88
0
VERTEX
10
7.61616
20
10.1964
30
8.88
0
VERTEX
10
7.62244
20
10.1892
30
8.88
0
VERTEX
10
7.62961
20
10.1839
30
8.88
0
VERTEX
10
7.65381
20
10.1579
30
8.88
0
VERTEX
10
7.66099
20
10.1525
30
8.88
0
VERTEX
10
7.66457
20
10.1498
30
8.88
0
VERTEX
10
7.66637
20
10.1462
30
8.88
0
VERTEX
10
7.67264
20
10.1399
30
8.88
0
VERTEX
10
7.67981
20
10.139
30
8.88
0
VERTEX
10
7.68161
20
10.1364
30
8.88
0
VERTEX
10
7.68878
20
10.1319
30
8.88
0
VERTEX
10
7.69057
20
10.1319
30
8.88
0
VERTEX
10
7.69237
20
10.1301
30
8.88
0
VERTEX
10
7.70671
20
10.1283
30
8.88
0
VERTEX
10
7.71388
20
10.131
30
8.88
0
VERTEX
10
7.71657
20
10.1337
30
8.88
0
VERTEX
10
7.71747
20
10.1408
30
8.88
0
VERTEX
10
7.71747
20
10.1444
30
8.88
0
VERTEX
10
7.71478
20
10.148
30
8.88
0
VERTEX
10
7.71388
20
10.1516
30
8.88
0
VERTEX
10
7.71119
20
10.1543
30
8.88
0
VERTEX
10
7.7085
20
10.1606
30
8.88
0
VERTEX
10
7.70671
20
10.1641
30
8.88
0
VERTEX
10
7.70671
20
10.1659
30
8.88
0
VERTEX
10
7.70402
20
10.1695
30
8.88
0
VERTEX
10
7.70312
20
10.1767
30
8.88
0
VERTEX
10
7.70312
20
10.1785
30
8.88
0
VERTEX
10
7.70133
20
10.1803
30
8.88
0
VERTEX
10
7.69954
20
10.1803
30
8.88
0
VERTEX
10
7.69506
20
10.1875
30
8.88
0
VERTEX
10
7.69326
20
10.1883
30
8.88
0
VERTEX
10
7.69237
20
10.1919
30
8.88
0
VERTEX
10
7.68699
20
10.1991
30
8.88
0
VERTEX
10
7.6834
20
10.1991
30
8.88
0
VERTEX
10
7.67802
20
10.2045
30
8.88
0
VERTEX
10
7.67085
20
10.2117
30
8.88
0
VERTEX
10
7.66906
20
10.2152
30
8.88
0
VERTEX
10
7.64126
20
10.2386
30
8.88
0
VERTEX
10
7.63857
20
10.2412
30
8.88
0
VERTEX
10
7.62423
20
10.243
30
8.88
0
VERTEX
10
7.60988
20
10.2377
30
8.88
0
VERTEX
10
7.60271
20
10.2341
30
8.88
0
VERTEX
10
7.60271
20
10.2278
30
8.88
0
SEQEND
0
POLYLINE
62
227
66
1
70
1
3
endoplasmic_reticulum
0
VERTEX
10
7.55878
20
10.3264
30
8.88
0
VERTEX
10
7.56147
20
10.3192
30
8.88
0
VERTEX
10
7.56147
20
10.2906
30
8.88
0
VERTEX
10
7.56147
20
10.287
30
8.88
0
VERTEX
10
7.56326
20
10.2834
30
8.88
0
VERTEX
10
7.56685
20
10.2816
30
8.88
0
VERTEX
10
7.56864
20
10.278
30
8.88
0
VERTEX
10
7.56864
20
10.2762
30
8.88
0
VERTEX
10
7.57402
20
10.269
30
8.88
0
VERTEX
10
7.57761
20
10.2663
30
8.88
0
VERTEX
10
7.5785
20
10.2637
30
8.88
0
VERTEX
10
7.58209
20
10.261
30
8.88
0
VERTEX
10
7.58926
20
10.2601
30
8.88
0
VERTEX
10
7.59554
20
10.2646
30
8.88
0
VERTEX
10
7.59912
20
10.2672
30
8.88
0
VERTEX
10
7.60271
20
10.2744
30
8.88
0
VERTEX
10
7.60271
20
10.278
30
8.88
0
VERTEX
10
7.6045
20
10.2816
30
8.88
0
VERTEX
10
7.6045
20
10.2888
30
8.88
0
VERTEX
10
7.60719
20
10.2923
30
8.88
0
VERTEX
10
7.60988
20
10.3497
30
8.88
0
VERTEX
10
7.60899
20
10.3784
30
8.88
0
VERTEX
10
7.60988
20
10.3928
30
8.88
0
VERTEX
10
7.60719
20
10.3999
30
8.88
0
VERTEX
10
7.60361
20
10.4008
30
8.88
0
VERTEX
10
7.59823
20
10.4053
30
8.88
0
VERTEX
10
7.58388
20
10.4026
30
8.88
0
VERTEX
10
7.5803
20
10.4026
30
8.88
0
VERTEX
10
7.57402
20
10.3981
30
8.88
0
VERTEX
10
7.57402
20
10.3963
30
8.88
0
VERTEX
10
7.56864
20
10.3901
30
8.88
0
VERTEX
10
7.56685
20
10.3865
30
8.88
0
VERTEX
10
7.56685
20
10.3847
30
8.88
0
VERTEX
10
7.56416
20
10.3811
30
8.88
0
VERTEX
10
7.55878
20
10.3766
30
8.88
0
VERTEX
10
7.55878
20
10.3479
30
8.88
0
VERTEX
10
7.55878
20
10.3336
30
8.88
0
VERTEX
10
7.55878
20
10.3273
30
8.88
0
SEQEND
0
POLYLINE
62
227
66
1
70
1
3
endoplasmic_reticulum
0
VERTEX
10
7.60899
20
10.4448
30
8.88
0
VERTEX
10
7.61616
20
10.4403
30
8.88
0
VERTEX
10
7.61975
20
10.4376
30
8.88
0
VERTEX
10
7.62333
20
10.4376
30
8.88
0
VERTEX
10
7.62692
20
10.4394
30
8.88
0
VERTEX
10
7.62961
20
10.443
30
8.88
0
VERTEX
10
7.63409
20
10.4457
30
8.88
0
VERTEX
10
7.63409
20
10.4475
30
8.88
0
VERTEX
10
7.64037
20
10.4519
30
8.88
0
VERTEX
10
7.64037
20
10.4537
30
8.88
0
VERTEX
10
7.64216
20
10.4546
30
8.88
0
VERTEX
10
7.64843
20
10.469
30
8.88
0
VERTEX
10
7.64843
20
10.4708
30
8.88
0
VERTEX
10
7.65112
20
10.4735
30
8.88
0
VERTEX
10
7.6583
20
10.4752
30
8.88
0
VERTEX
10
7.66188
20
10.4761
30
8.88
0
VERTEX
10
7.66906
20
10.4815
30
8.88
0
VERTEX
10
7.66995
20
10.4887
30
8.88
0
VERTEX
10
7.66726
20
10.503
30
8.88
0
VERTEX
10
7.66457
20
10.5057
30
8.88
0
VERTEX
10
7.6574
20
10.5066
30
8.88
0
VERTEX
10
7.65381
20
10.5066
30
8.88
0
VERTEX
10
7.64037
20
10.495
30
8.88
0
VERTEX
10
7.63768
20
10.4914
30
8.88
0
VERTEX
10
7.63678
20
10.4842
30
8.88
0
VERTEX
10
7.63678
20
10.4806
30
8.88
0
VERTEX
10
7.63409
20
10.477
30
8.88
0
VERTEX
10
7.62064
20
10.469
30
8.88
0
VERTEX
10
7.61795
20
10.4654
30
8.88
0
VERTEX
10
7.61616
20
10.4654
30
8.88
0
VERTEX
10
7.61437
20
10.4636
30
8.88
0
VERTEX
10
7.61437
20
10.4618
30
8.88
0
VERTEX
10
7.61168
20
10.4591
30
8.88
0
VERTEX
10
7.60899
20
10.4519
30
8.88
0
VERTEX
10
7.60899
20
10.4457
30
8.88
0
SEQEND
0
POLYLINE
62
227
66
1
70
1
3
endoplasmic_reticulum
0
VERTEX
10
8.03664
20
10.2072
30
8.88
0
VERTEX
10
8.03843
20
10.1928
30
8.88
0
VERTEX
10
8.03843
20
10.1892
30
8.88
0
VERTEX
10
8.04112
20
10.1857
30
8.88
0
VERTEX
10
8.04829
20
10.1866
30
8.88
0
VERTEX
10
8.05547
20
10.191
30
8.88
0
VERTEX
10
8.05726
20
10.1946
30
8.88
0
VERTEX
10
8.06354
20
10.1991
30
8.88
0
VERTEX
10
8.06443
20
10.2027
30
8.88
0
VERTEX
10
8.06802
20
10.2054
30
8.88
0
VERTEX
10
8.06981
20
10.2063
30
8.88
0
VERTEX
10
8.0725
20
10.2135
30
8.88
0
VERTEX
10
8.07698
20
10.2206
30
8.88
0
VERTEX
10
8.07788
20
10.2242
30
8.88
0
VERTEX
10
8.08326
20
10.2305
30
8.88
0
VERTEX
10
8.08326
20
10.2323
30
8.88
0
VERTEX
10
8.08774
20
10.2386
30
8.88
0
VERTEX
10
8.09133
20
10.2412
30
8.88
0
VERTEX
10
8.09223
20
10.2448
30
8.88
0
VERTEX
10
8.09223
20
10.2466
30
8.88
0
VERTEX
10
8.09402
20
10.2484
30
8.88
0
VERTEX
10
8.09581
20
10.2556
30
8.88
0
VERTEX
10
8.0985
20
10.2592
30
8.88
0
VERTEX
10
8.0994
20
10.2879
30
8.88
0
VERTEX
10
8.0985
20
10.3166
30
8.88
0
VERTEX
10
8.0976
20
10.3309
30
8.88
0
VERTEX
10
8.09581
20
10.3381
30
8.88
0
VERTEX
10
8.09223
20
10.3452
30
8.88
0
VERTEX
10
8.07788
20
10.3399
30
8.88
0
VERTEX
10
8.07071
20
10.3363
30
8.88
0
VERTEX
10
8.05995
20
10.3246
30
8.88
0
VERTEX
10
8.05726
20
10.321
30
8.88
0
VERTEX
10
8.05636
20
10.3139
30
8.88
0
VERTEX
10
8.05457
20
10.3121
30
8.88
0
VERTEX
10
8.05367
20
10.3049
30
8.88
0
VERTEX
10
8.05278
20
10.3013
30
8.88
0
VERTEX
10
8.05278
20
10.2995
30
8.88
0
VERTEX
10
8.05098
20
10.2977
30
8.88
0
VERTEX
10
8.04919
20
10.2834
30
8.88
0
VERTEX
10
8.04919
20
10.269
30
8.88
0
VERTEX
10
8.04829
20
10.2619
30
8.88
0
VERTEX
10
8.0456
20
10.2547
30
8.88
0
VERTEX
10
8.04471
20
10.2511
30
8.88
0
VERTEX
10
8.04202
20
10.2475
30
8.88
0
VERTEX
10
8.03933
20
10.2403
30
8.88
0
VERTEX
10
8.03843
20
10.226
30
8.88
0
VERTEX
10
8.03843
20
10.2188
30
8.88
0
VERTEX
10
8.03664
20
10.2117
30
8.88
0
VERTEX
10
8.03664
20
10.2081
30
8.88
0
SEQEND
0
POLYLINE
62
227
66
1
70
1
3
endoplasmic_reticulum
0
VERTEX
10
7.96312
20
10.2009
30
8.88
0
VERTEX
10
7.96581
20
10.1982
30
8.88
0
VERTEX
10
7.9694
20
10.1973
30
8.88
0
VERTEX
10
7.97209
20
10.1937
30
8.88
0
VERTEX
10
7.97567
20
10.1919
30
8.88
0
VERTEX
10
7.98285
20
10.1919
30
8.88
0
VERTEX
10
7.98643
20
10.1928
30
8.88
0
VERTEX
10
7.98823
20
10.1928
30
8.88
0
VERTEX
10
7.99092
20
10.1964
30
8.88
0
VERTEX
10
7.99719
20
10.2009
30
8.88
0
VERTEX
10
8.00795
20
10.2143
30
8.88
0
VERTEX
10
8.00974
20
10.2215
30
8.88
0
VERTEX
10
8.01154
20
10.2233
30
8.88
0
VERTEX
10
8.01154
20
10.2269
30
8.88
0
VERTEX
10
8.01602
20
10.2412
30
8.88
0
VERTEX
10
8.01692
20
10.2699
30
8.88
0
VERTEX
10
8.01512
20
10.2843
30
8.88
0
VERTEX
10
8.01512
20
10.2915
30
8.88
0
VERTEX
10
8.01692
20
10.2986
30
8.88
0
VERTEX
10
8.01692
20
10.3004
30
8.88
0
VERTEX
10
8.0196
20
10.3031
30
8.88
0
VERTEX
10
8.0196
20
10.3049
30
8.88
0
VERTEX
10
8.02498
20
10.3112
30
8.88
0
VERTEX
10
8.02767
20
10.3148
30
8.88
0
VERTEX
10
8.02947
20
10.3219
30
8.88
0
VERTEX
10
8.02947
20
10.3291
30
8.88
0
VERTEX
10
8.02767
20
10.3309
30
8.88
0
VERTEX
10
8.02498
20
10.3381
30
8.88
0
VERTEX
10
8.02319
20
10.3417
30
8.88
0
VERTEX
10
8.02319
20
10.3435
30
8.88
0
VERTEX
10
8.01602
20
10.3443
30
8.88
0
VERTEX
10
8.00167
20
10.3399
30
8.88
0
VERTEX
10
7.99988
20
10.3399
30
8.88
0
VERTEX
10
7.9954
20
10.3336
30
8.88
0
VERTEX
10
7.98912
20
10.3282
30
8.88
0
VERTEX
10
7.98285
20
10.321
30
8.88
0
VERTEX
10
7.98016
20
10.3175
30
8.88
0
VERTEX
10
7.97836
20
10.3103
30
8.88
0
VERTEX
10
7.97836
20
10.3031
30
8.88
0
VERTEX
10
7.97298
20
10.2744
30
8.88
0
VERTEX
10
7.97119
20
10.2708
30
8.88
0
VERTEX
10
7.97119
20
10.2672
30
8.88
0
VERTEX
10
7.9694
20
10.2637
30
8.88
0
VERTEX
10
7.96671
20
10.235
30
8.88
0
VERTEX
10
7.96671
20
10.2278
30
8.88
0
VERTEX
10
7.96492
20
10.2206
30
8.88
0
VERTEX
10
7.96492
20
10.2135
30
8.88
0
VERTEX
10
7.96312
20
10.2099
30
8.88
0
VERTEX
10
7.96312
20
10.2027
30
8.88
0
VERTEX
10
7.96312
20
10.2018
30
8.88
0
SEQEND
0
POLYLINE
62
227
66
1
70
1
3
endoplasmic_reticulum
0
VERTEX
10
7.80533
20
10.1292
30
8.88
0
VERTEX
10
7.80892
20
10.122
30
8.88
0
VERTEX
10
7.8143
20
10.1157
30
8.88
0
VERTEX
10
7.82147
20
10.1104
30
8.88
0
VERTEX
10
7.82505
20
10.1086
30
8.88
0
VERTEX
10
7.85374
20
10.1077
30
8.88
0
VERTEX
10
7.86092
20
10.1068
30
8.88
0
VERTEX
10
7.88961
20
10.1104
30
8.88
0
VERTEX
10
7.90395
20
10.113
30
8.88
0
VERTEX
10
7.9183
20
10.113
30
8.88
0
VERTEX
10
7.92547
20
10.113
30
8.88
0
VERTEX
10
7.93264
20
10.1112
30
8.88
0
VERTEX
10
7.93623
20
10.1095
30
8.88
0
VERTEX
10
7.95057
20
10.1077
30
8.88
0
VERTEX
10
7.95416
20
10.105
30
8.88
0
VERTEX
10
7.96133
20
10.105
30
8.88
0
VERTEX
10
7.97478
20
10.0969
30
8.88
0
VERTEX
10
7.97657
20
10.0951
30
8.88
0
VERTEX
10
8.00526
20
10.096
30
8.88
0
VERTEX
10
8.0196
20
10.0969
30
8.88
0
VERTEX
10
8.02678
20
10.0978
30
8.88
0
VERTEX
10
8.03036
20
10.0996
30
8.88
0
VERTEX
10
8.03216
20
10.0996
30
8.88
0
VERTEX
10
8.03305
20
10.1014
30
8.88
0
VERTEX
10
8.03664
20
10.1014
30
8.88
0
VERTEX
10
8.03843
20
10.1014
30
8.88
0
VERTEX
10
8.04471
20
10.1077
30
8.88
0
VERTEX
10
8.04471
20
10.1095
30
8.88
0
VERTEX
10
8.0474
20
10.113
30
8.88
0
VERTEX
10
8.05098
20
10.1148
30
8.88
0
VERTEX
10
8.05278
20
10.122
30
8.88
0
VERTEX
10
8.05278
20
10.1364
30
8.88
0
VERTEX
10
8.05278
20
10.1435
30
8.88
0
VERTEX
10
8.05278
20
10.1453
30
8.88
0
VERTEX
10
8.04829
20
10.1525
30
8.88
0
VERTEX
10
8.04112
20
10.1543
30
8.88
0
VERTEX
10
8.03485
20
10.1588
30
8.88
0
VERTEX
10
8.02767
20
10.1615
30
8.88
0
VERTEX
10
8.02409
20
10.1632
30
8.88
0
VERTEX
10
8.00974
20
10.165
30
8.88
0
VERTEX
10
8.00257
20
10.165
30
8.88
0
VERTEX
10
7.98823
20
10.1624
30
8.88
0
VERTEX
10
7.97388
20
10.157
30
8.88
0
VERTEX
10
7.96671
20
10.1552
30
8.88
0
VERTEX
10
7.93802
20
10.1561
30
8.88
0
VERTEX
10
7.92367
20
10.1552
30
8.88
0
VERTEX
10
7.9165
20
10.1561
30
8.88
0
VERTEX
10
7.91292
20
10.157
30
8.88
0
VERTEX
10
7.91112
20
10.1588
30
8.88
0
VERTEX
10
7.89678
20
10.1606
30
8.88
0
VERTEX
10
7.89319
20
10.1606
30
8.88
0
VERTEX
10
7.8923
20
10.1624
30
8.88
0
VERTEX
10
7.86361
20
10.1615
30
8.88
0
VERTEX
10
7.84926
20
10.1597
30
8.88
0
VERTEX
10
7.84209
20
10.1588
30
8.88
0
VERTEX
10
7.83492
20
10.1543
30
8.88
0
VERTEX
10
7.82774
20
10.1516
30
8.88
0
VERTEX
10
7.81519
20
10.1408
30
8.88
0
VERTEX
10
7.81161
20
10.139
30
8.88
0
VERTEX
10
7.80712
20
10.1319
30
8.88
0
VERTEX
10
7.80712
20
10.1301
30
8.88
0
VERTEX
10
7.80623
20
10.1301
30
8.88
0
SEQEND
0
ENDSEC
0
EOF
