0
SECTION
2
ENTITIES
0
POLYLINE
62
31
66
1
70
1
3
contour
0
VERTEX
10
6.89
20
10.7119
30
9.68
0
VERTEX
10
6.89329
20
10.6988
30
9.68
0
VERTEX
10
6.90317
20
10.6856
30
9.68
0
VERTEX
10
6.90975
20
10.6856
30
9.68
0
VERTEX
10
6.91963
20
10.6593
30
9.68
0
VERTEX
10
6.96242
20
10.6165
30
9.68
0
VERTEX
10
6.98217
20
10.5901
30
9.68
0
VERTEX
10
7.00522
20
10.5737
30
9.68
0
VERTEX
10
7.01839
20
10.5671
30
9.68
0
VERTEX
10
7.02826
20
10.5539
30
9.68
0
VERTEX
10
7.03484
20
10.5539
30
9.68
0
VERTEX
10
7.04143
20
10.5407
30
9.68
0
VERTEX
10
7.0546
20
10.5309
30
9.68
0
VERTEX
10
7.06118
20
10.5309
30
9.68
0
VERTEX
10
7.07435
20
10.5177
30
9.68
0
VERTEX
10
7.10068
20
10.5078
30
9.68
0
VERTEX
10
7.11385
20
10.5045
30
9.68
0
VERTEX
10
7.12044
20
10.498
30
9.68
0
VERTEX
10
7.12702
20
10.498
30
9.68
0
VERTEX
10
7.14019
20
10.4881
30
9.68
0
VERTEX
10
7.16652
20
10.4815
30
9.68
0
VERTEX
10
7.27186
20
10.4848
30
9.68
0
VERTEX
10
7.32453
20
10.4914
30
9.68
0
VERTEX
10
7.37721
20
10.4881
30
9.68
0
VERTEX
10
7.40354
20
10.4848
30
9.68
0
VERTEX
10
7.45621
20
10.4617
30
9.68
0
VERTEX
10
7.46938
20
10.4519
30
9.68
0
VERTEX
10
7.49571
20
10.4453
30
9.68
0
VERTEX
10
7.54839
20
10.4453
30
9.68
0
VERTEX
10
7.60106
20
10.4782
30
9.68
0
VERTEX
10
7.63068
20
10.5309
30
9.68
0
VERTEX
10
7.65373
20
10.5539
30
9.68
0
VERTEX
10
7.66689
20
10.5638
30
9.68
0
VERTEX
10
7.70311
20
10.6066
30
9.68
0
VERTEX
10
7.71957
20
10.6593
30
9.68
0
VERTEX
10
7.72286
20
10.6856
30
9.68
0
VERTEX
10
7.73273
20
10.7119
30
9.68
0
VERTEX
10
7.73273
20
10.7646
30
9.68
0
VERTEX
10
7.72615
20
10.8173
30
9.68
0
VERTEX
10
7.71627
20
10.8436
30
9.68
0
VERTEX
10
7.69981
20
10.8666
30
9.68
0
VERTEX
10
7.67677
20
10.8864
30
9.68
0
VERTEX
10
7.65044
20
10.893
30
9.68
0
VERTEX
10
7.62739
20
10.9094
30
9.68
0
VERTEX
10
7.60106
20
10.9193
30
9.68
0
VERTEX
10
7.58789
20
10.9292
30
9.68
0
VERTEX
10
7.48255
20
10.9325
30
9.68
0
VERTEX
10
7.37721
20
10.9292
30
9.68
0
VERTEX
10
7.32453
20
10.9259
30
9.68
0
VERTEX
10
7.31795
20
10.9193
30
9.68
0
VERTEX
10
7.26528
20
10.9127
30
9.68
0
VERTEX
10
7.23894
20
10.8963
30
9.68
0
VERTEX
10
7.22578
20
10.8897
30
9.68
0
VERTEX
10
7.19944
20
10.8864
30
9.68
0
VERTEX
10
7.18627
20
10.8864
30
9.68
0
VERTEX
10
7.15994
20
10.8634
30
9.68
0
VERTEX
10
7.1336
20
10.8502
30
9.68
0
VERTEX
10
7.08093
20
10.8436
30
9.68
0
VERTEX
10
7.02826
20
10.8469
30
9.68
0
VERTEX
10
7.00193
20
10.8469
30
9.68
0
VERTEX
10
6.99534
20
10.8469
30
9.68
0
VERTEX
10
6.98217
20
10.837
30
9.68
0
VERTEX
10
6.97888
20
10.8304
30
9.68
0
VERTEX
10
6.96571
20
10.8304
30
9.68
0
VERTEX
10
6.91634
20
10.7909
30
9.68
0
VERTEX
10
6.89658
20
10.7712
30
9.68
0
VERTEX
10
6.89
20
10.758
30
9.68
0
VERTEX
10
6.89329
20
10.7448
30
9.68
0
VERTEX
10
6.89
20
10.7185
30
9.68
0
VERTEX
10
6.89
20
10.7152
30
9.68
0
SEQEND
0
POLYLINE
62
224
66
1
70
1
3
mitochondrion
0
VERTEX
10
7.28029
20
10.7508
30
9.68
0
VERTEX
10
7.28307
20
10.7063
30
9.68
0
VERTEX
10
7.28724
20
10.6952
30
9.68
0
VERTEX
10
7.29141
20
10.6729
30
9.68
0
VERTEX
10
7.30671
20
10.6521
30
9.68
0
VERTEX
10
7.31366
20
10.641
30
9.68
0
VERTEX
10
7.32478
20
10.6326
30
9.68
0
VERTEX
10
7.32896
20
10.6271
30
9.68
0
VERTEX
10
7.37206
20
10.5979
30
9.68
0
VERTEX
10
7.38318
20
10.5923
30
9.68
0
VERTEX
10
7.38874
20
10.5895
30
9.68
0
VERTEX
10
7.39013
20
10.584
30
9.68
0
VERTEX
10
7.39153
20
10.5812
30
9.68
0
VERTEX
10
7.43602
20
10.5812
30
9.68
0
VERTEX
10
7.44714
20
10.584
30
9.68
0
VERTEX
10
7.4527
20
10.5867
30
9.68
0
VERTEX
10
7.46383
20
10.5881
30
9.68
0
VERTEX
10
7.46661
20
10.5909
30
9.68
0
VERTEX
10
7.47217
20
10.5923
30
9.68
0
VERTEX
10
7.4819
20
10.6006
30
9.68
0
VERTEX
10
7.49581
20
10.6159
30
9.68
0
VERTEX
10
7.49859
20
10.6159
30
9.68
0
VERTEX
10
7.50832
20
10.6271
30
9.68
0
VERTEX
10
7.5111
20
10.6312
30
9.68
0
VERTEX
10
7.52084
20
10.641
30
9.68
0
VERTEX
10
7.52501
20
10.6465
30
9.68
0
VERTEX
10
7.52501
20
10.6493
30
9.68
0
VERTEX
10
7.53335
20
10.6604
30
9.68
0
VERTEX
10
7.53752
20
10.666
30
9.68
0
VERTEX
10
7.5403
20
10.6771
30
9.68
0
VERTEX
10
7.54169
20
10.6799
30
9.68
0
VERTEX
10
7.54447
20
10.6799
30
9.68
0
VERTEX
10
7.54725
20
10.691
30
9.68
0
VERTEX
10
7.54725
20
10.7355
30
9.68
0
VERTEX
10
7.54447
20
10.7578
30
9.68
0
VERTEX
10
7.54308
20
10.7689
30
9.68
0
VERTEX
10
7.5403
20
10.7744
30
9.68
0
VERTEX
10
7.53891
20
10.7856
30
9.68
0
VERTEX
10
7.53891
20
10.7883
30
9.68
0
VERTEX
10
7.53474
20
10.7925
30
9.68
0
VERTEX
10
7.53057
20
10.8036
30
9.68
0
VERTEX
10
7.52779
20
10.8092
30
9.68
0
VERTEX
10
7.52779
20
10.812
30
9.68
0
VERTEX
10
7.52362
20
10.8162
30
9.68
0
VERTEX
10
7.52223
20
10.8217
30
9.68
0
VERTEX
10
7.51527
20
10.8314
30
9.68
0
VERTEX
10
7.51527
20
10.8342
30
9.68
0
VERTEX
10
7.4972
20
10.8537
30
9.68
0
VERTEX
10
7.49164
20
10.8565
30
9.68
0
VERTEX
10
7.48607
20
10.8565
30
9.68
0
VERTEX
10
7.47634
20
10.8648
30
9.68
0
VERTEX
10
7.47078
20
10.8662
30
9.68
0
VERTEX
10
7.468
20
10.869
30
9.68
0
VERTEX
10
7.45688
20
10.8662
30
9.68
0
VERTEX
10
7.45409
20
10.869
30
9.68
0
VERTEX
10
7.4096
20
10.8704
30
9.68
0
VERTEX
10
7.39848
20
10.8704
30
9.68
0
VERTEX
10
7.38735
20
10.8662
30
9.68
0
VERTEX
10
7.38179
20
10.8662
30
9.68
0
VERTEX
10
7.37206
20
10.8565
30
9.68
0
VERTEX
10
7.36928
20
10.8537
30
9.68
0
VERTEX
10
7.35816
20
10.8495
30
9.68
0
VERTEX
10
7.35259
20
10.8454
30
9.68
0
VERTEX
10
7.34703
20
10.844
30
9.68
0
VERTEX
10
7.34286
20
10.8384
30
9.68
0
VERTEX
10
7.33313
20
10.8328
30
9.68
0
VERTEX
10
7.33174
20
10.8273
30
9.68
0
VERTEX
10
7.33035
20
10.8245
30
9.68
0
VERTEX
10
7.32478
20
10.8231
30
9.68
0
VERTEX
10
7.30671
20
10.8064
30
9.68
0
VERTEX
10
7.30115
20
10.8036
30
9.68
0
VERTEX
10
7.29698
20
10.7981
30
9.68
0
VERTEX
10
7.29559
20
10.7925
30
9.68
0
VERTEX
10
7.28863
20
10.7814
30
9.68
0
VERTEX
10
7.28029
20
10.7591
30
9.68
0
VERTEX
10
7.28029
20
10.7536
30
9.68
0
VERTEX
10
7.28029
20
10.7522
30
9.68
0
SEQEND
0
POLYLINE
62
227
66
1
70
1
3
endoplasmic_reticulum
0
VERTEX
10
7.51306
20
10.5147
30
9.68
0
VERTEX
10
7.51485
20
10.5003
30
9.68
0
VERTEX
10
7.52202
20
10.4959
30
9.68
0
VERTEX
10
7.52381
20
10.4959
30
9.68
0
VERTEX
10
7.5274
20
10.4932
30
9.68
0
VERTEX
10
7.54175
20
10.4941
30
9.68
0
VERTEX
10
7.54533
20
10.4941
30
9.68
0
VERTEX
10
7.54892
20
10.4959
30
9.68
0
VERTEX
10
7.55071
20
10.4959
30
9.68
0
VERTEX
10
7.5525
20
10.4977
30
9.68
0
VERTEX
10
7.5543
20
10.4977
30
9.68
0
VERTEX
10
7.56057
20
10.503
30
9.68
0
VERTEX
10
7.56237
20
10.503
30
9.68
0
VERTEX
10
7.56416
20
10.5048
30
9.68
0
VERTEX
10
7.56595
20
10.5048
30
9.68
0
VERTEX
10
7.56954
20
10.5075
30
9.68
0
VERTEX
10
7.57312
20
10.5084
30
9.68
0
VERTEX
10
7.57581
20
10.5111
30
9.68
0
VERTEX
10
7.57761
20
10.5111
30
9.68
0
VERTEX
10
7.58478
20
10.5156
30
9.68
0
VERTEX
10
7.59016
20
10.5219
30
9.68
0
VERTEX
10
7.59285
20
10.5255
30
9.68
0
VERTEX
10
7.59554
20
10.5272
30
9.68
0
VERTEX
10
7.60092
20
10.5344
30
9.68
0
VERTEX
10
7.60361
20
10.538
30
9.68
0
VERTEX
10
7.6054
20
10.5398
30
9.68
0
VERTEX
10
7.60719
20
10.547
30
9.68
0
VERTEX
10
7.60719
20
10.5613
30
9.68
0
VERTEX
10
7.60271
20
10.5685
30
9.68
0
VERTEX
10
7.60271
20
10.5703
30
9.68
0
VERTEX
10
7.59644
20
10.5757
30
9.68
0
VERTEX
10
7.59464
20
10.5775
30
9.68
0
VERTEX
10
7.59285
20
10.5775
30
9.68
0
VERTEX
10
7.58568
20
10.5828
30
9.68
0
VERTEX
10
7.5785
20
10.5864
30
9.68
0
VERTEX
10
7.57492
20
10.5882
30
9.68
0
VERTEX
10
7.56416
20
10.5766
30
9.68
0
VERTEX
10
7.55699
20
10.5721
30
9.68
0
VERTEX
10
7.55071
20
10.5649
30
9.68
0
VERTEX
10
7.54713
20
10.5622
30
9.68
0
VERTEX
10
7.54533
20
10.5586
30
9.68
0
VERTEX
10
7.53906
20
10.5523
30
9.68
0
VERTEX
10
7.53906
20
10.5506
30
9.68
0
VERTEX
10
7.53726
20
10.5488
30
9.68
0
VERTEX
10
7.53726
20
10.547
30
9.68
0
VERTEX
10
7.53188
20
10.5416
30
9.68
0
VERTEX
10
7.52471
20
10.5353
30
9.68
0
VERTEX
10
7.51844
20
10.5308
30
9.68
0
VERTEX
10
7.51664
20
10.529
30
9.68
0
VERTEX
10
7.51575
20
10.5255
30
9.68
0
VERTEX
10
7.51306
20
10.5228
30
9.68
0
VERTEX
10
7.51306
20
10.5156
30
9.68
0
SEQEND
0
POLYLINE
62
227
66
1
70
1
3
endoplasmic_reticulum
0
VERTEX
10
7.06658
20
10.7326
30
9.68
0
VERTEX
10
7.06837
20
10.7254
30
9.68
0
VERTEX
10
7.07375
20
10.7182
30
9.68
0
VERTEX
10
7.07913
20
10.7128
30
9.68
0
VERTEX
10
7.08271
20
10.7101
30
9.68
0
VERTEX
10
7.08989
20
10.7083
30
9.68
0
VERTEX
10
7.10423
20
10.7092
30
9.68
0
VERTEX
10
7.10602
20
10.7092
30
9.68
0
VERTEX
10
7.10692
20
10.711
30
9.68
0
VERTEX
10
7.10602
20
10.7119
30
9.68
0
VERTEX
10
7.1132
20
10.7137
30
9.68
0
VERTEX
10
7.12037
20
10.7173
30
9.68
0
VERTEX
10
7.12216
20
10.7173
30
9.68
0
VERTEX
10
7.12396
20
10.7191
30
9.68
0
VERTEX
10
7.1383
20
10.7245
30
9.68
0
VERTEX
10
7.14009
20
10.7245
30
9.68
0
VERTEX
10
7.14278
20
10.7281
30
9.68
0
VERTEX
10
7.14996
20
10.7299
30
9.68
0
VERTEX
10
7.14996
20
10.7317
30
9.68
0
VERTEX
10
7.15444
20
10.7361
30
9.68
0
VERTEX
10
7.15623
20
10.7361
30
9.68
0
VERTEX
10
7.16251
20
10.7406
30
9.68
0
VERTEX
10
7.16609
20
10.7433
30
9.68
0
VERTEX
10
7.16968
20
10.7433
30
9.68
0
VERTEX
10
7.18402
20
10.7514
30
9.68
0
VERTEX
10
7.18402
20
10.7532
30
9.68
0
VERTEX
10
7.18761
20
10.7559
30
9.68
0
VERTEX
10
7.1912
20
10.7568
30
9.68
0
VERTEX
10
7.20464
20
10.7684
30
9.68
0
VERTEX
10
7.21899
20
10.7729
30
9.68
0
VERTEX
10
7.22258
20
10.7729
30
9.68
0
VERTEX
10
7.22616
20
10.7747
30
9.68
0
VERTEX
10
7.23333
20
10.7756
30
9.68
0
VERTEX
10
7.23692
20
10.7765
30
9.68
0
VERTEX
10
7.23961
20
10.7801
30
9.68
0
VERTEX
10
7.2432
20
10.781
30
9.68
0
VERTEX
10
7.24678
20
10.7837
30
9.68
0
VERTEX
10
7.25037
20
10.7846
30
9.68
0
VERTEX
10
7.25664
20
10.7908
30
9.68
0
VERTEX
10
7.26292
20
10.7953
30
9.68
0
VERTEX
10
7.26561
20
10.798
30
9.68
0
VERTEX
10
7.2674
20
10.7989
30
9.68
0
VERTEX
10
7.2674
20
10.8007
30
9.68
0
VERTEX
10
7.2692
20
10.8025
30
9.68
0
VERTEX
10
7.2692
20
10.8043
30
9.68
0
VERTEX
10
7.27458
20
10.8106
30
9.68
0
VERTEX
10
7.27458
20
10.8123
30
9.68
0
VERTEX
10
7.27816
20
10.8159
30
9.68
0
VERTEX
10
7.27995
20
10.8195
30
9.68
0
VERTEX
10
7.27906
20
10.8339
30
9.68
0
VERTEX
10
7.27816
20
10.8374
30
9.68
0
VERTEX
10
7.27816
20
10.8392
30
9.68
0
VERTEX
10
7.27099
20
10.841
30
9.68
0
VERTEX
10
7.25664
20
10.841
30
9.68
0
VERTEX
10
7.24947
20
10.841
30
9.68
0
VERTEX
10
7.23513
20
10.833
30
9.68
0
VERTEX
10
7.22885
20
10.8285
30
9.68
0
VERTEX
10
7.22706
20
10.8285
30
9.68
0
VERTEX
10
7.21989
20
10.8222
30
9.68
0
VERTEX
10
7.2163
20
10.8213
30
9.68
0
VERTEX
10
7.20913
20
10.8159
30
9.68
0
VERTEX
10
7.20554
20
10.8132
30
9.68
0
VERTEX
10
7.20375
20
10.8132
30
9.68
0
VERTEX
10
7.19747
20
10.8079
30
9.68
0
VERTEX
10
7.19389
20
10.8061
30
9.68
0
VERTEX
10
7.18044
20
10.7944
30
9.68
0
VERTEX
10
7.17596
20
10.789
30
9.68
0
VERTEX
10
7.17237
20
10.7872
30
9.68
0
VERTEX
10
7.16699
20
10.781
30
9.68
0
VERTEX
10
7.15982
20
10.7774
30
9.68
0
VERTEX
10
7.15623
20
10.7738
30
9.68
0
VERTEX
10
7.15264
20
10.772
30
9.68
0
VERTEX
10
7.14547
20
10.772
30
9.68
0
VERTEX
10
7.14368
20
10.7702
30
9.68
0
VERTEX
10
7.13651
20
10.7684
30
9.68
0
VERTEX
10
7.13471
20
10.7666
30
9.68
0
VERTEX
10
7.12037
20
10.7639
30
9.68
0
VERTEX
10
7.10602
20
10.763
30
9.68
0
VERTEX
10
7.10244
20
10.7621
30
9.68
0
VERTEX
10
7.10065
20
10.7621
30
9.68
0
VERTEX
10
7.09706
20
10.7594
30
9.68
0
VERTEX
10
7.09347
20
10.7586
30
9.68
0
VERTEX
10
7.08989
20
10.755
30
9.68
0
VERTEX
10
7.08271
20
10.7505
30
9.68
0
VERTEX
10
7.08092
20
10.7469
30
9.68
0
VERTEX
10
7.08092
20
10.7451
30
9.68
0
VERTEX
10
7.07375
20
10.746
30
9.68
0
VERTEX
10
7.06658
20
10.7451
30
9.68
0
VERTEX
10
7.06658
20
10.7379
30
9.68
0
VERTEX
10
7.06658
20
10.7343
30
9.68
0
VERTEX
10
7.06658
20
10.7335
30
9.68
0
SEQEND
0
POLYLINE
62
227
66
1
70
1
3
endoplasmic_reticulum
0
VERTEX
10
7.08809
20
10.6384
30
9.68
0
VERTEX
10
7.08899
20
10.6312
30
9.68
0
VERTEX
10
7.09258
20
10.625
30
9.68
0
VERTEX
10
7.09437
20
10.6232
30
9.68
0
VERTEX
10
7.10154
20
10.6214
30
9.68
0
VERTEX
10
7.11589
20
10.6223
30
9.68
0
VERTEX
10
7.12306
20
10.6241
30
9.68
0
VERTEX
10
7.13651
20
10.6348
30
9.68
0
VERTEX
10
7.14278
20
10.6393
30
9.68
0
VERTEX
10
7.14906
20
10.6456
30
9.68
0
VERTEX
10
7.15085
20
10.6528
30
9.68
0
VERTEX
10
7.14996
20
10.6815
30
9.68
0
VERTEX
10
7.14996
20
10.685
30
9.68
0
VERTEX
10
7.14996
20
10.6868
30
9.68
0
VERTEX
10
7.14368
20
10.694
30
9.68
0
VERTEX
10
7.12933
20
10.6922
30
9.68
0
VERTEX
10
7.12216
20
10.6922
30
9.68
0
VERTEX
10
7.11858
20
10.6904
30
9.68
0
VERTEX
10
7.11409
20
10.6841
30
9.68
0
VERTEX
10
7.11051
20
10.6823
30
9.68
0
VERTEX
10
7.10692
20
10.6788
30
9.68
0
VERTEX
10
7.10423
20
10.677
30
9.68
0
VERTEX
10
7.09885
20
10.6698
30
9.68
0
VERTEX
10
7.09527
20
10.668
30
9.68
0
VERTEX
10
7.09527
20
10.6662
30
9.68
0
VERTEX
10
7.09078
20
10.659
30
9.68
0
VERTEX
10
7.08899
20
10.6572
30
9.68
0
VERTEX
10
7.08809
20
10.6429
30
9.68
0
VERTEX
10
7.08809
20
10.6393
30
9.68
0
SEQEND
0
ENDSEC
0
EOF
