0
SECTION
2
ENTITIES
0
POLYLINE
62
31
66
1
70
1
3
contour
0
VERTEX
10
7.91824
20
7.73642
30
4.04
0
VERTEX
10
7.92268
20
7.72755
30
4.04
0
VERTEX
10
7.92268
20
7.72311
30
4.04
0
VERTEX
10
7.9382
20
7.70759
30
4.04
0
VERTEX
10
7.95594
20
7.69651
30
4.04
0
VERTEX
10
7.96481
20
7.69651
30
4.04
0
VERTEX
10
8.00029
20
7.70759
30
4.04
0
VERTEX
10
8.07124
20
7.74085
30
4.04
0
VERTEX
10
8.07568
20
7.74085
30
4.04
0
VERTEX
10
8.08011
20
7.74529
30
4.04
0
VERTEX
10
8.08455
20
7.74529
30
4.04
0
VERTEX
10
8.08898
20
7.74972
30
4.04
0
VERTEX
10
8.10672
20
7.75194
30
4.04
0
VERTEX
10
8.11115
20
7.75194
30
4.04
0
VERTEX
10
8.11559
20
7.75637
30
4.04
0
VERTEX
10
8.15107
20
7.76303
30
4.04
0
VERTEX
10
8.1555
20
7.76746
30
4.04
0
VERTEX
10
8.16437
20
7.76746
30
4.04
0
VERTEX
10
8.16881
20
7.7719
30
4.04
0
VERTEX
10
8.17768
20
7.7719
30
4.04
0
VERTEX
10
8.18655
20
7.77633
30
4.04
0
VERTEX
10
8.20428
20
7.77855
30
4.04
0
VERTEX
10
8.22202
20
7.7852
30
4.04
0
VERTEX
10
8.23089
20
7.78742
30
4.04
0
VERTEX
10
8.23976
20
7.79407
30
4.04
0
VERTEX
10
8.24863
20
7.79629
30
4.04
0
VERTEX
10
8.25307
20
7.79629
30
4.04
0
VERTEX
10
8.25972
20
7.80294
30
4.04
0
VERTEX
10
8.26859
20
7.80516
30
4.04
0
VERTEX
10
8.27524
20
7.8229
30
4.04
0
VERTEX
10
8.27524
20
7.84064
30
4.04
0
VERTEX
10
8.28189
20
7.87611
30
4.04
0
VERTEX
10
8.28189
20
7.89385
30
4.04
0
VERTEX
10
8.28189
20
7.89829
30
4.04
0
VERTEX
10
8.28633
20
7.90272
30
4.04
0
VERTEX
10
8.29076
20
7.9382
30
4.04
0
VERTEX
10
8.29076
20
7.97368
30
4.04
0
VERTEX
10
8.28633
20
8.00916
30
4.04
0
VERTEX
10
8.28189
20
8.01803
30
4.04
0
VERTEX
10
8.27302
20
8.01803
30
4.04
0
VERTEX
10
8.26859
20
8.02689
30
4.04
0
VERTEX
10
8.25085
20
8.0402
30
4.04
0
VERTEX
10
8.21537
20
8.0402
30
4.04
0
VERTEX
10
8.17989
20
8.03355
30
4.04
0
VERTEX
10
8.16215
20
8.03133
30
4.04
0
VERTEX
10
8.12668
20
8.00916
30
4.04
0
VERTEX
10
8.11115
20
8.00029
30
4.04
0
VERTEX
10
8.09342
20
7.98698
30
4.04
0
VERTEX
10
8.08455
20
7.98476
30
4.04
0
VERTEX
10
8.05129
20
7.96259
30
4.04
0
VERTEX
10
8.01581
20
7.94707
30
4.04
0
VERTEX
10
8.00029
20
7.9382
30
4.04
0
VERTEX
10
7.96481
20
7.93155
30
4.04
0
VERTEX
10
7.94707
20
7.92711
30
4.04
0
VERTEX
10
7.92933
20
7.91603
30
4.04
0
VERTEX
10
7.92268
20
7.91159
30
4.04
0
VERTEX
10
7.93155
20
7.90494
30
4.04
0
VERTEX
10
7.93376
20
7.8872
30
4.04
0
VERTEX
10
7.93376
20
7.87833
30
4.04
0
VERTEX
10
7.93376
20
7.8739
30
4.04
0
VERTEX
10
7.92933
20
7.86946
30
4.04
0
VERTEX
10
7.92711
20
7.83398
30
4.04
0
VERTEX
10
7.92046
20
7.79851
30
4.04
0
VERTEX
10
7.91824
20
7.76303
30
4.04
0
VERTEX
10
7.91824
20
7.74529
30
4.04
0
VERTEX
10
7.91824
20
7.73864
30
4.04
0
SEQEND
0
POLYLINE
62
31
66
1
70
1
3
contour
0
VERTEX
10
9.08015
20
8.4748
30
4.04
0
VERTEX
10
9.08236
20
8.43933
30
4.04
0
VERTEX
10
9.09567
20
8.40607
30
4.04
0
VERTEX
10
9.10232
20
8.39941
30
4.04
0
VERTEX
10
9.10676
20
8.39941
30
4.04
0
VERTEX
10
9.12006
20
8.38389
30
4.04
0
VERTEX
10
9.1378
20
8.36837
30
4.04
0
VERTEX
10
9.15554
20
8.35728
30
4.04
0
VERTEX
10
9.17328
20
8.35063
30
4.04
0
VERTEX
10
9.19102
20
8.33954
30
4.04
0
VERTEX
10
9.19989
20
8.33511
30
4.04
0
VERTEX
10
9.20876
20
8.33511
30
4.04
0
VERTEX
10
9.22649
20
8.32624
30
4.04
0
VERTEX
10
9.23536
20
8.32402
30
4.04
0
VERTEX
10
9.2398
20
8.31959
30
4.04
0
VERTEX
10
9.27528
20
8.31294
30
4.04
0
VERTEX
10
9.28415
20
8.31294
30
4.04
0
VERTEX
10
9.29302
20
8.30628
30
4.04
0
VERTEX
10
9.29745
20
8.30185
30
4.04
0
VERTEX
10
9.31519
20
8.29741
30
4.04
0
VERTEX
10
9.33293
20
8.28854
30
4.04
0
VERTEX
10
9.3418
20
8.28633
30
4.04
0
VERTEX
10
9.35067
20
8.27968
30
4.04
0
VERTEX
10
9.35954
20
8.27746
30
4.04
0
VERTEX
10
9.37506
20
8.26637
30
4.04
0
VERTEX
10
9.38171
20
8.2575
30
4.04
0
VERTEX
10
9.45267
20
8.24198
30
4.04
0
VERTEX
10
9.48814
20
8.23976
30
4.04
0
VERTEX
10
9.49701
20
8.23311
30
4.04
0
VERTEX
10
9.50145
20
8.22868
30
4.04
0
VERTEX
10
9.51919
20
8.22646
30
4.04
0
VERTEX
10
9.53693
20
8.21981
30
4.04
0
VERTEX
10
9.5724
20
8.21537
30
4.04
0
VERTEX
10
9.58127
20
8.20872
30
4.04
0
VERTEX
10
9.59014
20
8.2065
30
4.04
0
VERTEX
10
9.59458
20
8.2065
30
4.04
0
VERTEX
10
9.59901
20
8.20207
30
4.04
0
VERTEX
10
9.61675
20
8.19985
30
4.04
0
VERTEX
10
9.63449
20
8.1932
30
4.04
0
VERTEX
10
9.66997
20
8.18876
30
4.04
0
VERTEX
10
9.68771
20
8.18211
30
4.04
0
VERTEX
10
9.70545
20
8.17989
30
4.04
0
VERTEX
10
9.72319
20
8.17102
30
4.04
0
VERTEX
10
9.73206
20
8.17102
30
4.04
0
VERTEX
10
9.76753
20
8.15772
30
4.04
0
VERTEX
10
9.78527
20
8.15107
30
4.04
0
VERTEX
10
9.79414
20
8.15107
30
4.04
0
VERTEX
10
9.81188
20
8.14442
30
4.04
0
VERTEX
10
9.8274
20
8.13333
30
4.04
0
VERTEX
10
9.84292
20
8.12668
30
4.04
0
VERTEX
10
9.86066
20
8.11559
30
4.04
0
VERTEX
10
9.8784
20
8.10894
30
4.04
0
VERTEX
10
9.91388
20
8.10672
30
4.04
0
VERTEX
10
9.94936
20
8.11115
30
4.04
0
VERTEX
10
9.95379
20
8.11115
30
4.04
0
VERTEX
10
9.95823
20
8.11559
30
4.04
0
VERTEX
10
9.97597
20
8.11781
30
4.04
0
VERTEX
10
9.99371
20
8.12668
30
4.04
0
VERTEX
10
9.99814
20
8.12668
30
4.04
0
VERTEX
10
10.0026
20
8.13111
30
4.04
0
VERTEX
10
10.007
20
8.13111
30
4.04
0
VERTEX
10
10.0159
20
8.13776
30
4.04
0
VERTEX
10
10.0225
20
8.1555
30
4.04
0
VERTEX
10
10.0292
20
8.16437
30
4.04
0
VERTEX
10
10.0336
20
8.16437
30
4.04
0
VERTEX
10
10.0381
20
8.16881
30
4.04
0
VERTEX
10
10.0403
20
8.17768
30
4.04
0
VERTEX
10
10.0469
20
8.18655
30
4.04
0
VERTEX
10
10.0469
20
8.19098
30
4.04
0
VERTEX
10
10.058
20
8.20872
30
4.04
0
VERTEX
10
10.058
20
8.21315
30
4.04
0
VERTEX
10
10.0624
20
8.21759
30
4.04
0
VERTEX
10
10.0669
20
8.23533
30
4.04
0
VERTEX
10
10.078
20
8.25307
30
4.04
0
VERTEX
10
10.0913
20
8.28854
30
4.04
0
VERTEX
10
10.0935
20
8.30628
30
4.04
0
VERTEX
10
10.1001
20
8.32402
30
4.04
0
VERTEX
10
10.1046
20
8.33289
30
4.04
0
VERTEX
10
10.1046
20
8.34176
30
4.04
0
VERTEX
10
10.1112
20
8.3595
30
4.04
0
VERTEX
10
10.109
20
8.39498
30
4.04
0
VERTEX
10
10.1157
20
8.43046
30
4.04
0
VERTEX
10
10.1179
20
8.46593
30
4.04
0
VERTEX
10
10.1134
20
8.47037
30
4.04
0
VERTEX
10
10.1134
20
8.47924
30
4.04
0
VERTEX
10
10.109
20
8.48367
30
4.04
0
VERTEX
10
10.1068
20
8.51915
30
4.04
0
VERTEX
10
10.1024
20
8.52359
30
4.04
0
VERTEX
10
10.1024
20
8.52802
30
4.04
0
VERTEX
10
10.0935
20
8.53689
30
4.04
0
VERTEX
10
10.0868
20
8.55463
30
4.04
0
VERTEX
10
10.0735
20
8.57237
30
4.04
0
VERTEX
10
10.0558
20
8.58346
30
4.04
0
VERTEX
10
10.0491
20
8.59233
30
4.04
0
VERTEX
10
10.0447
20
8.59676
30
4.04
0
VERTEX
10
10.0447
20
8.60119
30
4.04
0
VERTEX
10
10.0292
20
8.61672
30
4.04
0
VERTEX
10
10.0203
20
8.62337
30
4.04
0
VERTEX
10
10.0159
20
8.63224
30
4.04
0
VERTEX
10
9.9804
20
8.65663
30
4.04
0
VERTEX
10
9.97153
20
8.66106
30
4.04
0
VERTEX
10
9.9671
20
8.6655
30
4.04
0
VERTEX
10
9.96266
20
8.6655
30
4.04
0
VERTEX
10
9.94492
20
8.67659
30
4.04
0
VERTEX
10
9.93605
20
8.68102
30
4.04
0
VERTEX
10
9.90723
20
8.70985
30
4.04
0
VERTEX
10
9.89836
20
8.71206
30
4.04
0
VERTEX
10
9.83405
20
8.7675
30
4.04
0
VERTEX
10
9.8274
20
8.77637
30
4.04
0
VERTEX
10
9.80966
20
8.78302
30
4.04
0
VERTEX
10
9.79636
20
8.79411
30
4.04
0
VERTEX
10
9.78749
20
8.80076
30
4.04
0
VERTEX
10
9.77862
20
8.80298
30
4.04
0
VERTEX
10
9.7764
20
8.80741
30
4.04
0
VERTEX
10
9.74092
20
8.8185
30
4.04
0
VERTEX
10
9.73649
20
8.8185
30
4.04
0
VERTEX
10
9.72762
20
8.82515
30
4.04
0
VERTEX
10
9.69214
20
8.83845
30
4.04
0
VERTEX
10
9.68327
20
8.84289
30
4.04
0
VERTEX
10
9.6744
20
8.84289
30
4.04
0
VERTEX
10
9.66553
20
8.84954
30
4.04
0
VERTEX
10
9.65666
20
8.85176
30
4.04
0
VERTEX
10
9.6478
20
8.85841
30
4.04
0
VERTEX
10
9.63006
20
8.85841
30
4.04
0
VERTEX
10
9.61453
20
8.87393
30
4.04
0
VERTEX
10
9.60567
20
8.87837
30
4.04
0
VERTEX
10
9.58793
20
8.87837
30
4.04
0
VERTEX
10
9.57906
20
8.87837
30
4.04
0
VERTEX
10
9.57019
20
8.88502
30
4.04
0
VERTEX
10
9.55245
20
8.87837
30
4.04
0
VERTEX
10
9.53471
20
8.86728
30
4.04
0
VERTEX
10
9.5214
20
8.85398
30
4.04
0
VERTEX
10
9.51697
20
8.84954
30
4.04
0
VERTEX
10
9.50145
20
8.84511
30
4.04
0
VERTEX
10
9.48371
20
8.83402
30
4.04
0
VERTEX
10
9.47484
20
8.82737
30
4.04
0
VERTEX
10
9.43936
20
8.82071
30
4.04
0
VERTEX
10
9.42162
20
8.81628
30
4.04
0
VERTEX
10
9.41275
20
8.81406
30
4.04
0
VERTEX
10
9.40388
20
8.80741
30
4.04
0
VERTEX
10
9.38615
20
8.80298
30
4.04
0
VERTEX
10
9.37728
20
8.79632
30
4.04
0
VERTEX
10
9.36841
20
8.79411
30
4.04
0
VERTEX
10
9.33958
20
8.76971
30
4.04
0
VERTEX
10
9.33515
20
8.76971
30
4.04
0
VERTEX
10
9.32849
20
8.76306
30
4.04
0
VERTEX
10
9.31962
20
8.76306
30
4.04
0
VERTEX
10
9.28636
20
8.74089
30
4.04
0
VERTEX
10
9.25089
20
8.70985
30
4.04
0
VERTEX
10
9.23315
20
8.69876
30
4.04
0
VERTEX
10
9.22871
20
8.69876
30
4.04
0
VERTEX
10
9.21984
20
8.68989
30
4.04
0
VERTEX
10
9.18436
20
8.66772
30
4.04
0
VERTEX
10
9.15332
20
8.63889
30
4.04
0
VERTEX
10
9.1378
20
8.62337
30
4.04
0
VERTEX
10
9.13115
20
8.60563
30
4.04
0
VERTEX
10
9.12228
20
8.59454
30
4.04
0
VERTEX
10
9.12228
20
8.59011
30
4.04
0
VERTEX
10
9.11563
20
8.58346
30
4.04
0
VERTEX
10
9.10232
20
8.55019
30
4.04
0
VERTEX
10
9.09789
20
8.54576
30
4.04
0
VERTEX
10
9.09789
20
8.54133
30
4.04
0
VERTEX
10
9.09123
20
8.53246
30
4.04
0
VERTEX
10
9.08902
20
8.52359
30
4.04
0
VERTEX
10
9.08236
20
8.51693
30
4.04
0
VERTEX
10
9.08015
20
8.48146
30
4.04
0
VERTEX
10
9.08015
20
8.47702
30
4.04
0
SEQEND
0
POLYLINE
62
31
66
1
70
1
3
contour
0
VERTEX
10
7.83166
20
8.65176
30
4.04
0
VERTEX
10
7.83709
20
8.6409
30
4.04
0
VERTEX
10
7.83709
20
8.63546
30
4.04
0
VERTEX
10
7.87239
20
8.59202
30
4.04
0
VERTEX
10
7.88326
20
8.58387
30
4.04
0
VERTEX
10
7.90498
20
8.58115
30
4.04
0
VERTEX
10
7.9267
20
8.58387
30
4.04
0
VERTEX
10
7.94843
20
8.59745
30
4.04
0
VERTEX
10
7.96744
20
8.61646
30
4.04
0
VERTEX
10
7.97558
20
8.6246
30
4.04
0
VERTEX
10
7.98645
20
8.62732
30
4.04
0
VERTEX
10
7.99188
20
8.63275
30
4.04
0
VERTEX
10
8.0136
20
8.6409
30
4.04
0
VERTEX
10
8.03533
20
8.64361
30
4.04
0
VERTEX
10
8.04619
20
8.65176
30
4.04
0
VERTEX
10
8.05162
20
8.65447
30
4.04
0
VERTEX
10
8.05162
20
8.66534
30
4.04
0
VERTEX
10
8.05705
20
8.66805
30
4.04
0
VERTEX
10
8.05705
20
8.67348
30
4.04
0
VERTEX
10
8.06248
20
8.67891
30
4.04
0
VERTEX
10
8.05977
20
8.72236
30
4.04
0
VERTEX
10
8.05977
20
8.72779
30
4.04
0
VERTEX
10
8.05162
20
8.73866
30
4.04
0
VERTEX
10
8.04347
20
8.76038
30
4.04
0
VERTEX
10
8.04347
20
8.76581
30
4.04
0
VERTEX
10
8.03261
20
8.77667
30
4.04
0
VERTEX
10
8.01089
20
8.78482
30
4.04
0
VERTEX
10
8.00546
20
8.78482
30
4.04
0
VERTEX
10
8.00002
20
8.79025
30
4.04
0
VERTEX
10
7.91313
20
8.78754
30
4.04
0
VERTEX
10
7.8914
20
8.77939
30
4.04
0
VERTEX
10
7.86153
20
8.74409
30
4.04
0
VERTEX
10
7.8561
20
8.73594
30
4.04
0
VERTEX
10
7.8561
20
8.72508
30
4.04
0
VERTEX
10
7.84524
20
8.71965
30
4.04
0
VERTEX
10
7.83981
20
8.71422
30
4.04
0
VERTEX
10
7.83166
20
8.67077
30
4.04
0
VERTEX
10
7.83166
20
8.6599
30
4.04
0
VERTEX
10
7.83166
20
8.65447
30
4.04
0
SEQEND
0
POLYLINE
62
224
66
1
70
1
3
mitochondrion
0
VERTEX
10
9.64958
20
8.51916
30
4.04
0
VERTEX
10
9.65375
20
8.47467
30
4.04
0
VERTEX
10
9.65654
20
8.45242
30
4.04
0
VERTEX
10
9.66905
20
8.43018
30
4.04
0
VERTEX
10
9.68434
20
8.40793
30
4.04
0
VERTEX
10
9.6913
20
8.39681
30
4.04
0
VERTEX
10
9.69408
20
8.39124
30
4.04
0
VERTEX
10
9.7052
20
8.38012
30
4.04
0
VERTEX
10
9.7205
20
8.35787
30
4.04
0
VERTEX
10
9.72467
20
8.35509
30
4.04
0
VERTEX
10
9.73301
20
8.34536
30
4.04
0
VERTEX
10
9.73857
20
8.34119
30
4.04
0
VERTEX
10
9.74135
20
8.33841
30
4.04
0
VERTEX
10
9.74135
20
8.33563
30
4.04
0
VERTEX
10
9.74691
20
8.33146
30
4.04
0
VERTEX
10
9.75665
20
8.30921
30
4.04
0
VERTEX
10
9.7636
20
8.29809
30
4.04
0
VERTEX
10
9.76638
20
8.2953
30
4.04
0
VERTEX
10
9.76638
20
8.29252
30
4.04
0
VERTEX
10
9.77472
20
8.28279
30
4.04
0
VERTEX
10
9.77889
20
8.27862
30
4.04
0
VERTEX
10
9.78167
20
8.2675
30
4.04
0
VERTEX
10
9.78167
20
8.26472
30
4.04
0
VERTEX
10
9.78724
20
8.26054
30
4.04
0
VERTEX
10
9.79002
20
8.26054
30
4.04
0
VERTEX
10
9.80114
20
8.25359
30
4.04
0
VERTEX
10
9.81226
20
8.24942
30
4.04
0
VERTEX
10
9.81365
20
8.24664
30
4.04
0
VERTEX
10
9.82478
20
8.24247
30
4.04
0
VERTEX
10
9.83034
20
8.2383
30
4.04
0
VERTEX
10
9.85259
20
8.23413
30
4.04
0
VERTEX
10
9.89708
20
8.23274
30
4.04
0
VERTEX
10
9.94157
20
8.23413
30
4.04
0
VERTEX
10
9.9527
20
8.23691
30
4.04
0
VERTEX
10
9.95548
20
8.23691
30
4.04
0
VERTEX
10
9.96104
20
8.24247
30
4.04
0
VERTEX
10
9.97216
20
8.24942
30
4.04
0
VERTEX
10
9.98329
20
8.25359
30
4.04
0
VERTEX
10
9.99302
20
8.26332
30
4.04
0
VERTEX
10
9.9958
20
8.26472
30
4.04
0
VERTEX
10
9.9958
20
8.2675
30
4.04
0
VERTEX
10
10.0014
20
8.27167
30
4.04
0
VERTEX
10
10.0028
20
8.27723
30
4.04
0
VERTEX
10
10.018
20
8.29809
30
4.04
0
VERTEX
10
10.0222
20
8.30921
30
4.04
0
VERTEX
10
10.0264
20
8.31477
30
4.04
0
VERTEX
10
10.0278
20
8.32033
30
4.04
0
VERTEX
10
10.0347
20
8.33007
30
4.04
0
VERTEX
10
10.0417
20
8.35231
30
4.04
0
VERTEX
10
10.0417
20
8.35787
30
4.04
0
VERTEX
10
10.0445
20
8.36344
30
4.04
0
VERTEX
10
10.0486
20
8.40793
30
4.04
0
VERTEX
10
10.0486
20
8.43018
30
4.04
0
VERTEX
10
10.0459
20
8.45242
30
4.04
0
VERTEX
10
10.0459
20
8.4552
30
4.04
0
VERTEX
10
10.0431
20
8.45799
30
4.04
0
VERTEX
10
10.0417
20
8.46355
30
4.04
0
VERTEX
10
10.0375
20
8.46911
30
4.04
0
VERTEX
10
10.0333
20
8.48023
30
4.04
0
VERTEX
10
10.0292
20
8.4844
30
4.04
0
VERTEX
10
10.0292
20
8.48718
30
4.04
0
VERTEX
10
10.025
20
8.49275
30
4.04
0
VERTEX
10
10.0236
20
8.49831
30
4.04
0
VERTEX
10
10.0194
20
8.50387
30
4.04
0
VERTEX
10
10.0167
20
8.50665
30
4.04
0
VERTEX
10
10.0125
20
8.51777
30
4.04
0
VERTEX
10
10.0111
20
8.52334
30
4.04
0
VERTEX
10
10.0041
20
8.53307
30
4.04
0
VERTEX
10
9.99997
20
8.53863
30
4.04
0
VERTEX
10
9.98885
20
8.54419
30
4.04
0
VERTEX
10
9.98746
20
8.55532
30
4.04
0
VERTEX
10
9.97773
20
8.56366
30
4.04
0
VERTEX
10
9.97494
20
8.56783
30
4.04
0
VERTEX
10
9.9527
20
8.58451
30
4.04
0
VERTEX
10
9.94296
20
8.59147
30
4.04
0
VERTEX
10
9.93184
20
8.59564
30
4.04
0
VERTEX
10
9.92072
20
8.60259
30
4.04
0
VERTEX
10
9.91794
20
8.60537
30
4.04
0
VERTEX
10
9.89569
20
8.61371
30
4.04
0
VERTEX
10
9.88457
20
8.61788
30
4.04
0
VERTEX
10
9.88179
20
8.61788
30
4.04
0
VERTEX
10
9.87622
20
8.62206
30
4.04
0
VERTEX
10
9.87066
20
8.62345
30
4.04
0
VERTEX
10
9.8651
20
8.62762
30
4.04
0
VERTEX
10
9.84285
20
8.63596
30
4.04
0
VERTEX
10
9.83173
20
8.6443
30
4.04
0
VERTEX
10
9.78863
20
8.66238
30
4.04
0
VERTEX
10
9.7775
20
8.66794
30
4.04
0
VERTEX
10
9.77194
20
8.67211
30
4.04
0
VERTEX
10
9.74969
20
8.6735
30
4.04
0
VERTEX
10
9.73857
20
8.67489
30
4.04
0
VERTEX
10
9.73301
20
8.67628
30
4.04
0
VERTEX
10
9.72745
20
8.67489
30
4.04
0
VERTEX
10
9.72189
20
8.67072
30
4.04
0
VERTEX
10
9.7205
20
8.66516
30
4.04
0
VERTEX
10
9.7052
20
8.6443
30
4.04
0
VERTEX
10
9.7052
20
8.64152
30
4.04
0
VERTEX
10
9.69547
20
8.63179
30
4.04
0
VERTEX
10
9.68991
20
8.62762
30
4.04
0
VERTEX
10
9.68991
20
8.62484
30
4.04
0
VERTEX
10
9.67878
20
8.6151
30
4.04
0
VERTEX
10
9.67183
20
8.60398
30
4.04
0
VERTEX
10
9.66905
20
8.6012
30
4.04
0
VERTEX
10
9.66766
20
8.59564
30
4.04
0
VERTEX
10
9.66071
20
8.58869
30
4.04
0
VERTEX
10
9.64958
20
8.54419
30
4.04
0
VERTEX
10
9.64958
20
8.52194
30
4.04
0
VERTEX
10
9.64958
20
8.52055
30
4.04
0
SEQEND
0
POLYLINE
62
236
66
1
70
1
3
postsynaptic_density
0
VERTEX
10
8.00053
20
7.73366
30
4.04
0
VERTEX
10
8.00426
20
7.72619
30
4.04
0
VERTEX
10
8.01733
20
7.715
30
4.04
0
VERTEX
10
8.02479
20
7.7094
30
4.04
0
VERTEX
10
8.08451
20
7.70753
30
4.04
0
VERTEX
10
8.09944
20
7.71126
30
4.04
0
VERTEX
10
8.1069
20
7.715
30
4.04
0
VERTEX
10
8.13676
20
7.71873
30
4.04
0
VERTEX
10
8.15169
20
7.72433
30
4.04
0
VERTEX
10
8.15916
20
7.72619
30
4.04
0
VERTEX
10
8.16289
20
7.72619
30
4.04
0
VERTEX
10
8.19089
20
7.74859
30
4.04
0
VERTEX
10
8.20582
20
7.75605
30
4.04
0
VERTEX
10
8.21701
20
7.76538
30
4.04
0
VERTEX
10
8.22261
20
7.77098
30
4.04
0
VERTEX
10
8.22634
20
7.78591
30
4.04
0
VERTEX
10
8.23194
20
7.79338
30
4.04
0
VERTEX
10
8.23567
20
7.80831
30
4.04
0
VERTEX
10
8.23567
20
7.81204
30
4.04
0
VERTEX
10
8.23194
20
7.81577
30
4.04
0
VERTEX
10
8.23008
20
7.8307
30
4.04
0
VERTEX
10
8.21888
20
7.84377
30
4.04
0
VERTEX
10
8.21328
20
7.84937
30
4.04
0
VERTEX
10
8.09384
20
7.8307
30
4.04
0
VERTEX
10
8.06398
20
7.8251
30
4.04
0
VERTEX
10
8.05652
20
7.82324
30
4.04
0
VERTEX
10
8.04905
20
7.8251
30
4.04
0
VERTEX
10
8.03412
20
7.81391
30
4.04
0
VERTEX
10
8.02666
20
7.80831
30
4.04
0
VERTEX
10
8.00799
20
7.78031
30
4.04
0
VERTEX
10
8.0024
20
7.76538
30
4.04
0
VERTEX
10
8.00053
20
7.73553
30
4.04
0
SEQEND
0
POLYLINE
62
227
66
1
70
1
3
endoplasmic_reticulum
0
VERTEX
10
9.86613
20
8.17963
30
4.04
0
VERTEX
10
9.87527
20
8.16744
30
4.04
0
VERTEX
10
9.8768
20
8.16134
30
4.04
0
VERTEX
10
9.90117
20
8.15982
30
4.04
0
VERTEX
10
9.91336
20
8.16439
30
4.04
0
VERTEX
10
9.91793
20
8.16896
30
4.04
0
VERTEX
10
9.91945
20
8.18115
30
4.04
0
VERTEX
10
9.92098
20
8.18724
30
4.04
0
VERTEX
10
9.91184
20
8.19791
30
4.04
0
VERTEX
10
9.91031
20
8.204
30
4.04
0
VERTEX
10
9.90422
20
8.20857
30
4.04
0
VERTEX
10
9.90117
20
8.21162
30
4.04
0
VERTEX
10
9.88898
20
8.21314
30
4.04
0
VERTEX
10
9.8768
20
8.21162
30
4.04
0
VERTEX
10
9.8707
20
8.21162
30
4.04
0
VERTEX
10
9.86613
20
8.18724
30
4.04
0
VERTEX
10
9.86613
20
8.18115
30
4.04
0
SEQEND
0
POLYLINE
62
227
66
1
70
1
3
endoplasmic_reticulum
0
VERTEX
10
9.68636
20
8.27561
30
4.04
0
VERTEX
10
9.68941
20
8.26342
30
4.04
0
VERTEX
10
9.69245
20
8.25732
30
4.04
0
VERTEX
10
9.69245
20
8.23295
30
4.04
0
VERTEX
10
9.69245
20
8.22076
30
4.04
0
VERTEX
10
9.70464
20
8.21924
30
4.04
0
VERTEX
10
9.72902
20
8.22381
30
4.04
0
VERTEX
10
9.73511
20
8.22381
30
4.04
0
VERTEX
10
9.7473
20
8.23142
30
4.04
0
VERTEX
10
9.75035
20
8.23447
30
4.04
0
VERTEX
10
9.74882
20
8.25885
30
4.04
0
VERTEX
10
9.74578
20
8.26037
30
4.04
0
VERTEX
10
9.73511
20
8.30912
30
4.04
0
VERTEX
10
9.73206
20
8.31522
30
4.04
0
VERTEX
10
9.73054
20
8.3274
30
4.04
0
VERTEX
10
9.71073
20
8.34112
30
4.04
0
VERTEX
10
9.69855
20
8.33502
30
4.04
0
VERTEX
10
9.69245
20
8.33197
30
4.04
0
VERTEX
10
9.69093
20
8.32588
30
4.04
0
VERTEX
10
9.69245
20
8.31369
30
4.04
0
VERTEX
10
9.68941
20
8.31217
30
4.04
0
VERTEX
10
9.68636
20
8.29998
30
4.04
0
VERTEX
10
9.68636
20
8.27713
30
4.04
0
SEQEND
0
POLYLINE
62
227
66
1
70
1
3
endoplasmic_reticulum
0
VERTEX
10
9.52335
20
8.56812
30
4.04
0
VERTEX
10
9.53401
20
8.54374
30
4.04
0
VERTEX
10
9.54467
20
8.53308
30
4.04
0
VERTEX
10
9.55077
20
8.53003
30
4.04
0
VERTEX
10
9.56296
20
8.53155
30
4.04
0
VERTEX
10
9.56905
20
8.53612
30
4.04
0
VERTEX
10
9.5721
20
8.53612
30
4.04
0
VERTEX
10
9.57971
20
8.54831
30
4.04
0
VERTEX
10
9.58124
20
8.59706
30
4.04
0
VERTEX
10
9.58124
20
8.60316
30
4.04
0
VERTEX
10
9.60257
20
8.61991
30
4.04
0
VERTEX
10
9.60561
20
8.61991
30
4.04
0
VERTEX
10
9.61171
20
8.62449
30
4.04
0
VERTEX
10
9.61475
20
8.62449
30
4.04
0
VERTEX
10
9.62542
20
8.63515
30
4.04
0
VERTEX
10
9.62542
20
8.64734
30
4.04
0
VERTEX
10
9.6239
20
8.65343
30
4.04
0
VERTEX
10
9.61475
20
8.6641
30
4.04
0
VERTEX
10
9.59038
20
8.66257
30
4.04
0
VERTEX
10
9.58733
20
8.66257
30
4.04
0
VERTEX
10
9.58428
20
8.65953
30
4.04
0
VERTEX
10
9.58886
20
8.65648
30
4.04
0
VERTEX
10
9.58733
20
8.65191
30
4.04
0
VERTEX
10
9.566
20
8.64124
30
4.04
0
VERTEX
10
9.55991
20
8.64277
30
4.04
0
VERTEX
10
9.55839
20
8.63972
30
4.04
0
VERTEX
10
9.55229
20
8.6382
30
4.04
0
VERTEX
10
9.54163
20
8.62906
30
4.04
0
VERTEX
10
9.52944
20
8.62296
30
4.04
0
VERTEX
10
9.52639
20
8.62296
30
4.04
0
VERTEX
10
9.52335
20
8.61687
30
4.04
0
VERTEX
10
9.52335
20
8.56964
30
4.04
0
SEQEND
0
POLYLINE
62
236
66
1
70
1
3
postsynaptic_density
0
VERTEX
10
8.95983
20
8.56919
30
4.04
0
VERTEX
10
8.98477
20
8.52763
30
4.04
0
VERTEX
10
9.01801
20
8.49162
30
4.04
0
VERTEX
10
9.05957
20
8.4556
30
4.04
0
VERTEX
10
9.08173
20
8.44175
30
4.04
0
VERTEX
10
9.1039
20
8.43343
30
4.04
0
VERTEX
10
9.11498
20
8.42512
30
4.04
0
VERTEX
10
9.12606
20
8.42512
30
4.04
0
VERTEX
10
9.14823
20
8.41681
30
4.04
0
VERTEX
10
9.19255
20
8.41127
30
4.04
0
VERTEX
10
9.21472
20
8.41127
30
4.04
0
VERTEX
10
9.2258
20
8.41127
30
4.04
0
VERTEX
10
9.23411
20
8.42235
30
4.04
0
VERTEX
10
9.23965
20
8.42789
30
4.04
0
VERTEX
10
9.23965
20
8.43343
30
4.04
0
VERTEX
10
9.25351
20
8.4556
30
4.04
0
VERTEX
10
9.25628
20
8.46668
30
4.04
0
VERTEX
10
9.26182
20
8.47222
30
4.04
0
VERTEX
10
9.27013
20
8.49439
30
4.04
0
VERTEX
10
9.27567
20
8.50547
30
4.04
0
VERTEX
10
9.27567
20
8.51101
30
4.04
0
VERTEX
10
9.29506
20
8.5304
30
4.04
0
VERTEX
10
9.30337
20
8.54148
30
4.04
0
VERTEX
10
9.30615
20
8.55257
30
4.04
0
VERTEX
10
9.32277
20
8.57196
30
4.04
0
VERTEX
10
9.3477
20
8.61352
30
4.04
0
VERTEX
10
9.36987
20
8.63014
30
4.04
0
VERTEX
10
9.37264
20
8.64122
30
4.04
0
VERTEX
10
9.35879
20
8.66339
30
4.04
0
VERTEX
10
9.35047
20
8.67447
30
4.04
0
VERTEX
10
9.34216
20
8.68001
30
4.04
0
VERTEX
10
9.31169
20
8.72157
30
4.04
0
VERTEX
10
9.30337
20
8.73265
30
4.04
0
VERTEX
10
9.29783
20
8.73819
30
4.04
0
VERTEX
10
9.29506
20
8.74927
30
4.04
0
VERTEX
10
9.26459
20
8.79083
30
4.04
0
VERTEX
10
9.24242
20
8.80745
30
4.04
0
VERTEX
10
9.23134
20
8.81577
30
4.04
0
VERTEX
10
9.22026
20
8.83516
30
4.04
0
VERTEX
10
9.22026
20
8.8407
30
4.04
0
VERTEX
10
9.20364
20
8.86009
30
4.04
0
VERTEX
10
9.1981
20
8.8684
30
4.04
0
VERTEX
10
9.0568
20
8.69109
30
4.04
0
VERTEX
10
8.98754
20
8.60244
30
4.04
0
VERTEX
10
8.97923
20
8.59135
30
4.04
0
VERTEX
10
8.96814
20
8.58858
30
4.04
0
VERTEX
10
8.95983
20
8.58027
30
4.04
0
VERTEX
10
8.95983
20
8.57196
30
4.04
0
SEQEND
0
ENDSEC
0
EOF
