0
SECTION
2
ENTITIES
0
POLYLINE
62
31
66
1
70
1
3
contour
0
VERTEX
10
7.75907
20
10.3432
30
7.72
0
VERTEX
10
7.76894
20
10.3169
30
7.72
0
VERTEX
10
7.77882
20
10.2642
30
7.72
0
VERTEX
10
7.7854
20
10.2543
30
7.72
0
VERTEX
10
7.7854
20
10.2478
30
7.72
0
VERTEX
10
7.79857
20
10.2346
30
7.72
0
VERTEX
10
7.79857
20
10.2083
30
7.72
0
VERTEX
10
7.80186
20
10.1951
30
7.72
0
VERTEX
10
7.80845
20
10.1885
30
7.72
0
VERTEX
10
7.81832
20
10.1358
30
7.72
0
VERTEX
10
7.81503
20
10.0305
30
7.72
0
VERTEX
10
7.81174
20
9.97783
30
7.72
0
VERTEX
10
7.81503
20
9.92516
30
7.72
0
VERTEX
10
7.81503
20
9.89882
30
7.72
0
VERTEX
10
7.81503
20
9.88565
30
7.72
0
VERTEX
10
7.82491
20
9.85932
30
7.72
0
VERTEX
10
7.83478
20
9.80665
30
7.72
0
VERTEX
10
7.84466
20
9.78031
30
7.72
0
VERTEX
10
7.86112
20
9.75398
30
7.72
0
VERTEX
10
7.88416
20
9.72764
30
7.72
0
VERTEX
10
7.93354
20
9.68814
30
7.72
0
VERTEX
10
7.94671
20
9.68485
30
7.72
0
VERTEX
10
7.97304
20
9.66509
30
7.72
0
VERTEX
10
7.98621
20
9.65851
30
7.72
0
VERTEX
10
8.03888
20
9.65193
30
7.72
0
VERTEX
10
8.09155
20
9.67497
30
7.72
0
VERTEX
10
8.11789
20
9.68485
30
7.72
0
VERTEX
10
8.13106
20
9.69472
30
7.72
0
VERTEX
10
8.13435
20
9.7013
30
7.72
0
VERTEX
10
8.14752
20
9.7046
30
7.72
0
VERTEX
10
8.18702
20
9.75398
30
7.72
0
VERTEX
10
8.21665
20
9.80665
30
7.72
0
VERTEX
10
8.21665
20
9.81323
30
7.72
0
VERTEX
10
8.22652
20
9.82311
30
7.72
0
VERTEX
10
8.22981
20
9.83627
30
7.72
0
VERTEX
10
8.23969
20
9.84944
30
7.72
0
VERTEX
10
8.24627
20
9.90211
30
7.72
0
VERTEX
10
8.24298
20
9.92845
30
7.72
0
VERTEX
10
8.23311
20
9.95149
30
7.72
0
VERTEX
10
8.22981
20
9.97783
30
7.72
0
VERTEX
10
8.24957
20
10.0832
30
7.72
0
VERTEX
10
8.25944
20
10.1358
30
7.72
0
VERTEX
10
8.26603
20
10.1622
30
7.72
0
VERTEX
10
8.26603
20
10.2148
30
7.72
0
VERTEX
10
8.26273
20
10.2412
30
7.72
0
VERTEX
10
8.25286
20
10.2675
30
7.72
0
VERTEX
10
8.2364
20
10.2939
30
7.72
0
VERTEX
10
8.22981
20
10.307
30
7.72
0
VERTEX
10
8.22981
20
10.3202
30
7.72
0
VERTEX
10
8.21994
20
10.3465
30
7.72
0
VERTEX
10
8.20348
20
10.3729
30
7.72
0
VERTEX
10
8.1936
20
10.3827
30
7.72
0
VERTEX
10
8.19031
20
10.3893
30
7.72
0
VERTEX
10
8.14093
20
10.4091
30
7.72
0
VERTEX
10
8.1146
20
10.4157
30
7.72
0
VERTEX
10
8.08826
20
10.4157
30
7.72
0
VERTEX
10
8.06193
20
10.4321
30
7.72
0
VERTEX
10
8.03559
20
10.442
30
7.72
0
VERTEX
10
8.00925
20
10.442
30
7.72
0
VERTEX
10
7.95658
20
10.4782
30
7.72
0
VERTEX
10
7.94342
20
10.4815
30
7.72
0
VERTEX
10
7.93683
20
10.4881
30
7.72
0
VERTEX
10
7.96317
20
10.4914
30
7.72
0
VERTEX
10
7.96975
20
10.4947
30
7.72
0
VERTEX
10
7.86441
20
10.5045
30
7.72
0
VERTEX
10
7.85453
20
10.4947
30
7.72
0
VERTEX
10
7.84795
20
10.4683
30
7.72
0
VERTEX
10
7.84795
20
10.4552
30
7.72
0
VERTEX
10
7.83807
20
10.442
30
7.72
0
VERTEX
10
7.83807
20
10.3893
30
7.72
0
VERTEX
10
7.83478
20
10.386
30
7.72
0
VERTEX
10
7.82491
20
10.3926
30
7.72
0
VERTEX
10
7.79857
20
10.3926
30
7.72
0
VERTEX
10
7.77224
20
10.386
30
7.72
0
VERTEX
10
7.76565
20
10.386
30
7.72
0
VERTEX
10
7.75907
20
10.3794
30
7.72
0
VERTEX
10
7.75907
20
10.3531
30
7.72
0
VERTEX
10
7.75907
20
10.3465
30
7.72
0
SEQEND
0
POLYLINE
62
31
66
1
70
1
3
contour
0
VERTEX
10
7.18381
20
8.88482
30
7.72
0
VERTEX
10
7.19568
20
8.87296
30
7.72
0
VERTEX
10
7.20359
20
8.80966
30
7.72
0
VERTEX
10
7.2115
20
8.80175
30
7.72
0
VERTEX
10
7.21941
20
8.7701
30
7.72
0
VERTEX
10
7.2471
20
8.73846
30
7.72
0
VERTEX
10
7.26688
20
8.71077
30
7.72
0
VERTEX
10
7.2748
20
8.70681
30
7.72
0
VERTEX
10
7.33809
20
8.71868
30
7.72
0
VERTEX
10
7.35391
20
8.72263
30
7.72
0
VERTEX
10
7.36974
20
8.7345
30
7.72
0
VERTEX
10
7.37369
20
8.75032
30
7.72
0
VERTEX
10
7.39347
20
8.78197
30
7.72
0
VERTEX
10
7.41721
20
8.84131
30
7.72
0
VERTEX
10
7.40929
20
8.9679
30
7.72
0
VERTEX
10
7.40929
20
8.97581
30
7.72
0
VERTEX
10
7.40138
20
8.97976
30
7.72
0
VERTEX
10
7.39347
20
9.01141
30
7.72
0
VERTEX
10
7.37765
20
9.01141
30
7.72
0
VERTEX
10
7.34996
20
9.04306
30
7.72
0
VERTEX
10
7.31831
20
9.05492
30
7.72
0
VERTEX
10
7.28666
20
9.05888
30
7.72
0
VERTEX
10
7.27084
20
9.04306
30
7.72
0
VERTEX
10
7.25502
20
9.0391
30
7.72
0
VERTEX
10
7.20359
20
8.99163
30
7.72
0
VERTEX
10
7.19172
20
8.97581
30
7.72
0
VERTEX
10
7.18381
20
8.91251
30
7.72
0
VERTEX
10
7.18381
20
8.89669
30
7.72
0
VERTEX
10
7.18381
20
8.88878
30
7.72
0
SEQEND
0
POLYLINE
62
224
66
1
70
1
3
mitochondrion
0
VERTEX
10
7.96855
20
9.9082
30
7.72
0
VERTEX
10
7.97829
20
9.86371
30
7.72
0
VERTEX
10
7.98107
20
9.85259
30
7.72
0
VERTEX
10
7.98524
20
9.84702
30
7.72
0
VERTEX
10
7.99358
20
9.82478
30
7.72
0
VERTEX
10
7.99775
20
9.81922
30
7.72
0
VERTEX
10
7.99914
20
9.81504
30
7.72
0
VERTEX
10
8.00192
20
9.81365
30
7.72
0
VERTEX
10
8.00053
20
9.80809
30
7.72
0
VERTEX
10
8.00331
20
9.80253
30
7.72
0
VERTEX
10
8.01444
20
9.7928
30
7.72
0
VERTEX
10
8.02
20
9.78863
30
7.72
0
VERTEX
10
8.02556
20
9.78724
30
7.72
0
VERTEX
10
8.02834
20
9.78446
30
7.72
0
VERTEX
10
8.0339
20
9.78306
30
7.72
0
VERTEX
10
8.03808
20
9.77889
30
7.72
0
VERTEX
10
8.06032
20
9.77889
30
7.72
0
VERTEX
10
8.06588
20
9.77889
30
7.72
0
VERTEX
10
8.07145
20
9.78167
30
7.72
0
VERTEX
10
8.09369
20
9.78167
30
7.72
0
VERTEX
10
8.09925
20
9.78167
30
7.72
0
VERTEX
10
8.11038
20
9.78585
30
7.72
0
VERTEX
10
8.11594
20
9.79002
30
7.72
0
VERTEX
10
8.1215
20
9.79141
30
7.72
0
VERTEX
10
8.12845
20
9.80114
30
7.72
0
VERTEX
10
8.13123
20
9.80531
30
7.72
0
VERTEX
10
8.14097
20
9.81504
30
7.72
0
VERTEX
10
8.14375
20
9.82061
30
7.72
0
VERTEX
10
8.14375
20
9.82617
30
7.72
0
VERTEX
10
8.14931
20
9.83729
30
7.72
0
VERTEX
10
8.15626
20
9.85954
30
7.72
0
VERTEX
10
8.15765
20
9.90403
30
7.72
0
VERTEX
10
8.15626
20
9.92628
30
7.72
0
VERTEX
10
8.15348
20
9.93184
30
7.72
0
VERTEX
10
8.15209
20
9.94296
30
7.72
0
VERTEX
10
8.14792
20
9.95409
30
7.72
0
VERTEX
10
8.14653
20
9.95965
30
7.72
0
VERTEX
10
8.14653
20
9.96243
30
7.72
0
VERTEX
10
8.13262
20
9.98468
30
7.72
0
VERTEX
10
8.11316
20
10.0014
30
7.72
0
VERTEX
10
8.10899
20
10.0069
30
7.72
0
VERTEX
10
8.10482
20
10.0097
30
7.72
0
VERTEX
10
8.09786
20
10.0194
30
7.72
0
VERTEX
10
8.08813
20
10.0306
30
7.72
0
VERTEX
10
8.08257
20
10.0347
30
7.72
0
VERTEX
10
8.08118
20
10.0375
30
7.72
0
VERTEX
10
8.07562
20
10.0375
30
7.72
0
VERTEX
10
8.07284
20
10.0347
30
7.72
0
VERTEX
10
8.05059
20
10.0333
30
7.72
0
VERTEX
10
8.03947
20
10.0333
30
7.72
0
VERTEX
10
8.0339
20
10.032
30
7.72
0
VERTEX
10
8.02417
20
10.0222
30
7.72
0
VERTEX
10
8.01722
20
10.0111
30
7.72
0
VERTEX
10
8.00749
20
10.0041
30
7.72
0
VERTEX
10
8.0061
20
10.0014
30
7.72
0
VERTEX
10
8.00331
20
10.0014
30
7.72
0
VERTEX
10
8.00053
20
9.99858
30
7.72
0
VERTEX
10
7.99775
20
9.99858
30
7.72
0
VERTEX
10
7.9908
20
9.98746
30
7.72
0
VERTEX
10
7.98941
20
9.9819
30
7.72
0
VERTEX
10
7.98524
20
9.97633
30
7.72
0
VERTEX
10
7.98246
20
9.97355
30
7.72
0
VERTEX
10
7.98246
20
9.97077
30
7.72
0
VERTEX
10
7.97412
20
9.96104
30
7.72
0
VERTEX
10
7.97133
20
9.95548
30
7.72
0
VERTEX
10
7.97133
20
9.94435
30
7.72
0
VERTEX
10
7.97133
20
9.94157
30
7.72
0
VERTEX
10
7.96855
20
9.94018
30
7.72
0
VERTEX
10
7.96855
20
9.91794
30
7.72
0
VERTEX
10
7.96855
20
9.91237
30
7.72
0
VERTEX
10
7.96855
20
9.90959
30
7.72
0
SEQEND
0
POLYLINE
62
227
66
1
70
1
3
endoplasmic_reticulum
0
VERTEX
10
8.04202
20
10.2825
30
7.72
0
VERTEX
10
8.04471
20
10.2753
30
7.72
0
VERTEX
10
8.04471
20
10.261
30
7.72
0
VERTEX
10
8.0465
20
10.2592
30
7.72
0
VERTEX
10
8.04829
20
10.2529
30
7.72
0
VERTEX
10
8.05009
20
10.2493
30
7.72
0
VERTEX
10
8.05009
20
10.2475
30
7.72
0
VERTEX
10
8.05278
20
10.2439
30
7.72
0
VERTEX
10
8.05278
20
10.2421
30
7.72
0
VERTEX
10
8.05636
20
10.2395
30
7.72
0
VERTEX
10
8.05905
20
10.2323
30
7.72
0
VERTEX
10
8.05905
20
10.2179
30
7.72
0
VERTEX
10
8.05905
20
10.2108
30
7.72
0
VERTEX
10
8.05995
20
10.2072
30
7.72
0
VERTEX
10
8.06533
20
10.2009
30
7.72
0
VERTEX
10
8.0725
20
10.1964
30
7.72
0
VERTEX
10
8.07609
20
10.1946
30
7.72
0
VERTEX
10
8.08326
20
10.1955
30
7.72
0
VERTEX
10
8.08685
20
10.1955
30
7.72
0
VERTEX
10
8.09043
20
10.1937
30
7.72
0
VERTEX
10
8.09312
20
10.1901
30
7.72
0
VERTEX
10
8.09491
20
10.1892
30
7.72
0
VERTEX
10
8.09491
20
10.1875
30
7.72
0
VERTEX
10
8.09671
20
10.1857
30
7.72
0
VERTEX
10
8.09581
20
10.1713
30
7.72
0
VERTEX
10
8.09581
20
10.1641
30
7.72
0
VERTEX
10
8.09402
20
10.1624
30
7.72
0
VERTEX
10
8.09491
20
10.148
30
7.72
0
VERTEX
10
8.0976
20
10.1408
30
7.72
0
VERTEX
10
8.10029
20
10.1372
30
7.72
0
VERTEX
10
8.10388
20
10.1355
30
7.72
0
VERTEX
10
8.10567
20
10.1337
30
7.72
0
VERTEX
10
8.10926
20
10.1328
30
7.72
0
VERTEX
10
8.11643
20
10.1283
30
7.72
0
VERTEX
10
8.11823
20
10.1283
30
7.72
0
VERTEX
10
8.12091
20
10.1256
30
7.72
0
VERTEX
10
8.12719
20
10.1301
30
7.72
0
VERTEX
10
8.12898
20
10.1337
30
7.72
0
VERTEX
10
8.13257
20
10.1346
30
7.72
0
VERTEX
10
8.13436
20
10.1346
30
7.72
0
VERTEX
10
8.13526
20
10.1364
30
7.72
0
VERTEX
10
8.14243
20
10.1381
30
7.72
0
VERTEX
10
8.1496
20
10.1381
30
7.72
0
VERTEX
10
8.15319
20
10.1372
30
7.72
0
VERTEX
10
8.15947
20
10.1328
30
7.72
0
VERTEX
10
8.16664
20
10.1328
30
7.72
0
VERTEX
10
8.17381
20
10.1355
30
7.72
0
VERTEX
10
8.1774
20
10.139
30
7.72
0
VERTEX
10
8.17919
20
10.1399
30
7.72
0
VERTEX
10
8.18009
20
10.1471
30
7.72
0
VERTEX
10
8.18098
20
10.1507
30
7.72
0
VERTEX
10
8.17919
20
10.1579
30
7.72
0
VERTEX
10
8.17829
20
10.1615
30
7.72
0
VERTEX
10
8.17112
20
10.1668
30
7.72
0
VERTEX
10
8.16754
20
10.1677
30
7.72
0
VERTEX
10
8.16395
20
10.1704
30
7.72
0
VERTEX
10
8.1496
20
10.1731
30
7.72
0
VERTEX
10
8.14602
20
10.1731
30
7.72
0
VERTEX
10
8.13974
20
10.1776
30
7.72
0
VERTEX
10
8.13616
20
10.1803
30
7.72
0
VERTEX
10
8.13436
20
10.1803
30
7.72
0
VERTEX
10
8.13347
20
10.1875
30
7.72
0
VERTEX
10
8.13167
20
10.1875
30
7.72
0
VERTEX
10
8.12988
20
10.191
30
7.72
0
VERTEX
10
8.13078
20
10.1928
30
7.72
0
VERTEX
10
8.1254
20
10.1991
30
7.72
0
VERTEX
10
8.12271
20
10.2027
30
7.72
0
VERTEX
10
8.12181
20
10.2099
30
7.72
0
VERTEX
10
8.12271
20
10.217
30
7.72
0
VERTEX
10
8.1236
20
10.2206
30
7.72
0
VERTEX
10
8.12629
20
10.2233
30
7.72
0
VERTEX
10
8.12809
20
10.2233
30
7.72
0
VERTEX
10
8.13167
20
10.226
30
7.72
0
VERTEX
10
8.13885
20
10.2269
30
7.72
0
VERTEX
10
8.14154
20
10.226
30
7.72
0
VERTEX
10
8.14243
20
10.2224
30
7.72
0
VERTEX
10
8.14602
20
10.2206
30
7.72
0
VERTEX
10
8.14602
20
10.2188
30
7.72
0
VERTEX
10
8.14871
20
10.2161
30
7.72
0
VERTEX
10
8.1496
20
10.2126
30
7.72
0
VERTEX
10
8.15678
20
10.2117
30
7.72
0
VERTEX
10
8.16395
20
10.2143
30
7.72
0
VERTEX
10
8.17022
20
10.2152
30
7.72
0
VERTEX
10
8.17381
20
10.2152
30
7.72
0
VERTEX
10
8.1756
20
10.2152
30
7.72
0
VERTEX
10
8.1774
20
10.217
30
7.72
0
VERTEX
10
8.17829
20
10.2314
30
7.72
0
VERTEX
10
8.16574
20
10.2448
30
7.72
0
VERTEX
10
8.16395
20
10.2484
30
7.72
0
VERTEX
10
8.16216
20
10.2502
30
7.72
0
VERTEX
10
8.16036
20
10.2502
30
7.72
0
VERTEX
10
8.16126
20
10.2538
30
7.72
0
VERTEX
10
8.16664
20
10.261
30
7.72
0
VERTEX
10
8.17291
20
10.2655
30
7.72
0
VERTEX
10
8.1765
20
10.2663
30
7.72
0
VERTEX
10
8.18009
20
10.269
30
7.72
0
VERTEX
10
8.18009
20
10.2708
30
7.72
0
VERTEX
10
8.18367
20
10.2717
30
7.72
0
VERTEX
10
8.18547
20
10.2753
30
7.72
0
VERTEX
10
8.19264
20
10.2798
30
7.72
0
VERTEX
10
8.19443
20
10.2816
30
7.72
0
VERTEX
10
8.19174
20
10.2959
30
7.72
0
VERTEX
10
8.17919
20
10.3085
30
7.72
0
VERTEX
10
8.1505
20
10.3094
30
7.72
0
VERTEX
10
8.14333
20
10.3076
30
7.72
0
VERTEX
10
8.13616
20
10.3031
30
7.72
0
VERTEX
10
8.13257
20
10.3013
30
7.72
0
VERTEX
10
8.13078
20
10.2995
30
7.72
0
VERTEX
10
8.12898
20
10.2995
30
7.72
0
VERTEX
10
8.1254
20
10.2968
30
7.72
0
VERTEX
10
8.11823
20
10.295
30
7.72
0
VERTEX
10
8.10388
20
10.2959
30
7.72
0
VERTEX
10
8.0994
20
10.3013
30
7.72
0
VERTEX
10
8.0985
20
10.3085
30
7.72
0
VERTEX
10
8.0994
20
10.3157
30
7.72
0
VERTEX
10
8.10209
20
10.3219
30
7.72
0
VERTEX
10
8.10926
20
10.3264
30
7.72
0
VERTEX
10
8.11016
20
10.3336
30
7.72
0
VERTEX
10
8.10836
20
10.3408
30
7.72
0
VERTEX
10
8.10298
20
10.347
30
7.72
0
VERTEX
10
8.10119
20
10.3506
30
7.72
0
VERTEX
10
8.09402
20
10.3551
30
7.72
0
VERTEX
10
8.09223
20
10.3569
30
7.72
0
VERTEX
10
8.08505
20
10.3578
30
7.72
0
VERTEX
10
8.08147
20
10.3569
30
7.72
0
VERTEX
10
8.06981
20
10.3461
30
7.72
0
VERTEX
10
8.06712
20
10.3426
30
7.72
0
VERTEX
10
8.06533
20
10.3282
30
7.72
0
VERTEX
10
8.06354
20
10.3264
30
7.72
0
VERTEX
10
8.06174
20
10.3192
30
7.72
0
VERTEX
10
8.05726
20
10.313
30
7.72
0
VERTEX
10
8.05457
20
10.3103
30
7.72
0
VERTEX
10
8.05278
20
10.3103
30
7.72
0
VERTEX
10
8.04829
20
10.3031
30
7.72
0
VERTEX
10
8.0456
20
10.3004
30
7.72
0
VERTEX
10
8.04381
20
10.2932
30
7.72
0
VERTEX
10
8.04202
20
10.2923
30
7.72
0
VERTEX
10
8.04202
20
10.2852
30
7.72
0
VERTEX
10
8.04202
20
10.2834
30
7.72
0
SEQEND
0
POLYLINE
62
227
66
1
70
1
3
endoplasmic_reticulum
0
VERTEX
10
7.87078
20
10.3309
30
7.72
0
VERTEX
10
7.87705
20
10.3246
30
7.72
0
VERTEX
10
7.8914
20
10.3192
30
7.72
0
VERTEX
10
7.89857
20
10.3175
30
7.72
0
VERTEX
10
7.90036
20
10.3175
30
7.72
0
VERTEX
10
7.90216
20
10.3192
30
7.72
0
VERTEX
10
7.90933
20
10.3201
30
7.72
0
VERTEX
10
7.91112
20
10.3219
30
7.72
0
VERTEX
10
7.91292
20
10.3219
30
7.72
0
VERTEX
10
7.91919
20
10.3291
30
7.72
0
VERTEX
10
7.91919
20
10.3309
30
7.72
0
VERTEX
10
7.92905
20
10.3443
30
7.72
0
VERTEX
10
7.92995
20
10.3515
30
7.72
0
VERTEX
10
7.93264
20
10.3587
30
7.72
0
VERTEX
10
7.94071
20
10.373
30
7.72
0
VERTEX
10
7.9425
20
10.3766
30
7.72
0
VERTEX
10
7.9425
20
10.3784
30
7.72
0
VERTEX
10
7.94519
20
10.382
30
7.72
0
VERTEX
10
7.94788
20
10.3963
30
7.72
0
VERTEX
10
7.94698
20
10.4035
30
7.72
0
VERTEX
10
7.94698
20
10.4053
30
7.72
0
VERTEX
10
7.9434
20
10.408
30
7.72
0
VERTEX
10
7.93623
20
10.4223
30
7.72
0
VERTEX
10
7.93623
20
10.4241
30
7.72
0
VERTEX
10
7.93443
20
10.425
30
7.72
0
VERTEX
10
7.92009
20
10.4215
30
7.72
0
VERTEX
10
7.9165
20
10.4197
30
7.72
0
VERTEX
10
7.91471
20
10.4197
30
7.72
0
VERTEX
10
7.91381
20
10.4161
30
7.72
0
VERTEX
10
7.91381
20
10.4143
30
7.72
0
VERTEX
10
7.9165
20
10.4125
30
7.72
0
VERTEX
10
7.91919
20
10.4089
30
7.72
0
VERTEX
10
7.92009
20
10.4017
30
7.72
0
VERTEX
10
7.92009
20
10.3999
30
7.72
0
VERTEX
10
7.9183
20
10.3981
30
7.72
0
VERTEX
10
7.9183
20
10.3963
30
7.72
0
VERTEX
10
7.91112
20
10.3919
30
7.72
0
VERTEX
10
7.90664
20
10.3847
30
7.72
0
VERTEX
10
7.90395
20
10.3811
30
7.72
0
VERTEX
10
7.89678
20
10.3766
30
7.72
0
VERTEX
10
7.89319
20
10.3739
30
7.72
0
VERTEX
10
7.8914
20
10.3739
30
7.72
0
VERTEX
10
7.88423
20
10.3677
30
7.72
0
VERTEX
10
7.88154
20
10.365
30
7.72
0
VERTEX
10
7.87974
20
10.3578
30
7.72
0
VERTEX
10
7.87526
20
10.3506
30
7.72
0
VERTEX
10
7.87078
20
10.3363
30
7.72
0
VERTEX
10
7.87078
20
10.3327
30
7.72
0
VERTEX
10
7.87078
20
10.3318
30
7.72
0
SEQEND
0
POLYLINE
62
227
66
1
70
1
3
endoplasmic_reticulum
0
VERTEX
10
8.12629
20
9.72215
30
7.72
0
VERTEX
10
8.12809
20
9.72035
30
7.72
0
VERTEX
10
8.13526
20
9.72125
30
7.72
0
VERTEX
10
8.13885
20
9.72125
30
7.72
0
VERTEX
10
8.14602
20
9.72394
30
7.72
0
VERTEX
10
8.1496
20
9.72573
30
7.72
0
VERTEX
10
8.15678
20
9.72663
30
7.72
0
VERTEX
10
8.16036
20
9.72663
30
7.72
0
VERTEX
10
8.17291
20
9.73649
30
7.72
0
VERTEX
10
8.1765
20
9.73828
30
7.72
0
VERTEX
10
8.1774
20
9.74187
30
7.72
0
VERTEX
10
8.18009
20
9.74546
30
7.72
0
VERTEX
10
8.18009
20
9.7598
30
7.72
0
VERTEX
10
8.17829
20
9.77415
30
7.72
0
VERTEX
10
8.1765
20
9.77325
30
7.72
0
VERTEX
10
8.1765
20
9.77146
30
7.72
0
VERTEX
10
8.16933
20
9.77146
30
7.72
0
VERTEX
10
8.16216
20
9.76966
30
7.72
0
VERTEX
10
8.16126
20
9.76787
30
7.72
0
VERTEX
10
8.15409
20
9.76697
30
7.72
0
VERTEX
10
8.15229
20
9.76518
30
7.72
0
VERTEX
10
8.14512
20
9.76339
30
7.72
0
VERTEX
10
8.13885
20
9.7589
30
7.72
0
VERTEX
10
8.13616
20
9.75621
30
7.72
0
VERTEX
10
8.13526
20
9.75263
30
7.72
0
VERTEX
10
8.13347
20
9.75173
30
7.72
0
VERTEX
10
8.13167
20
9.73739
30
7.72
0
VERTEX
10
8.13167
20
9.73021
30
7.72
0
VERTEX
10
8.13436
20
9.72753
30
7.72
0
VERTEX
10
8.12719
20
9.72753
30
7.72
0
VERTEX
10
8.12629
20
9.72394
30
7.72
0
VERTEX
10
8.12629
20
9.72304
30
7.72
0
SEQEND
0
ENDSEC
0
EOF
