0
SECTION
2
ENTITIES
0
POLYLINE
62
31
66
1
70
1
3
contour
0
VERTEX
10
9.5968
20
8.26859
30
3.8
0
VERTEX
10
9.60345
20
8.25085
30
3.8
0
VERTEX
10
9.60345
20
8.24198
30
3.8
0
VERTEX
10
9.60788
20
8.23311
30
3.8
0
VERTEX
10
9.60788
20
8.22868
30
3.8
0
VERTEX
10
9.61453
20
8.21981
30
3.8
0
VERTEX
10
9.61675
20
8.20207
30
3.8
0
VERTEX
10
9.63006
20
8.18876
30
3.8
0
VERTEX
10
9.63449
20
8.17989
30
3.8
0
VERTEX
10
9.66775
20
8.1555
30
3.8
0
VERTEX
10
9.68327
20
8.14885
30
3.8
0
VERTEX
10
9.68771
20
8.14885
30
3.8
0
VERTEX
10
9.70545
20
8.13776
30
3.8
0
VERTEX
10
9.70988
20
8.13333
30
3.8
0
VERTEX
10
9.71432
20
8.13333
30
3.8
0
VERTEX
10
9.72097
20
8.12668
30
3.8
0
VERTEX
10
9.79192
20
8.10672
30
3.8
0
VERTEX
10
9.80966
20
8.10672
30
3.8
0
VERTEX
10
9.81853
20
8.10229
30
3.8
0
VERTEX
10
9.82297
20
8.10229
30
3.8
0
VERTEX
10
9.83184
20
8.09342
30
3.8
0
VERTEX
10
9.84958
20
8.0912
30
3.8
0
VERTEX
10
9.86732
20
8.08455
30
3.8
0
VERTEX
10
9.87618
20
8.08233
30
3.8
0
VERTEX
10
9.88062
20
8.08233
30
3.8
0
VERTEX
10
9.89171
20
8.07124
30
3.8
0
VERTEX
10
9.89614
20
8.07124
30
3.8
0
VERTEX
10
9.91388
20
8.06016
30
3.8
0
VERTEX
10
9.93162
20
8.0535
30
3.8
0
VERTEX
10
9.93605
20
8.04907
30
3.8
0
VERTEX
10
9.94049
20
8.04907
30
3.8
0
VERTEX
10
9.94492
20
8.04463
30
3.8
0
VERTEX
10
9.9804
20
8.03576
30
3.8
0
VERTEX
10
9.98927
20
8.03355
30
3.8
0
VERTEX
10
9.99371
20
8.02911
30
3.8
0
VERTEX
10
10.0114
20
8.02468
30
3.8
0
VERTEX
10
10.0292
20
8.02468
30
3.8
0
VERTEX
10
10.0381
20
8.02468
30
3.8
0
VERTEX
10
10.0425
20
8.02911
30
3.8
0
VERTEX
10
10.1134
20
8.03355
30
3.8
0
VERTEX
10
10.1312
20
8.03576
30
3.8
0
VERTEX
10
10.1401
20
8.0402
30
3.8
0
VERTEX
10
10.1489
20
8.0402
30
3.8
0
VERTEX
10
10.1578
20
8.04463
30
3.8
0
VERTEX
10
10.1622
20
8.04907
30
3.8
0
VERTEX
10
10.1667
20
8.04907
30
3.8
0
VERTEX
10
10.1733
20
8.05794
30
3.8
0
VERTEX
10
10.1888
20
8.06681
30
3.8
0
VERTEX
10
10.1933
20
8.06681
30
3.8
0
VERTEX
10
10.2221
20
8.10007
30
3.8
0
VERTEX
10
10.231
20
8.1045
30
3.8
0
VERTEX
10
10.2398
20
8.12224
30
3.8
0
VERTEX
10
10.2421
20
8.13998
30
3.8
0
VERTEX
10
10.2376
20
8.15772
30
3.8
0
VERTEX
10
10.2376
20
8.17546
30
3.8
0
VERTEX
10
10.2421
20
8.18433
30
3.8
0
VERTEX
10
10.2421
20
8.25528
30
3.8
0
VERTEX
10
10.2421
20
8.26415
30
3.8
0
VERTEX
10
10.2421
20
8.26859
30
3.8
0
VERTEX
10
10.2354
20
8.27746
30
3.8
0
VERTEX
10
10.2332
20
8.2952
30
3.8
0
VERTEX
10
10.2132
20
8.33067
30
3.8
0
VERTEX
10
10.2044
20
8.34841
30
3.8
0
VERTEX
10
10.2044
20
8.35285
30
3.8
0
VERTEX
10
10.1733
20
8.38389
30
3.8
0
VERTEX
10
10.1644
20
8.39276
30
3.8
0
VERTEX
10
10.1578
20
8.3972
30
3.8
0
VERTEX
10
10.1489
20
8.40607
30
3.8
0
VERTEX
10
10.1423
20
8.4105
30
3.8
0
VERTEX
10
10.1312
20
8.42602
30
3.8
0
VERTEX
10
10.1157
20
8.43933
30
3.8
0
VERTEX
10
10.109
20
8.4482
30
3.8
0
VERTEX
10
10.1068
20
8.45263
30
3.8
0
VERTEX
10
10.0979
20
8.45263
30
3.8
0
VERTEX
10
10.0913
20
8.45928
30
3.8
0
VERTEX
10
10.0868
20
8.4615
30
3.8
0
VERTEX
10
10.0868
20
8.46593
30
3.8
0
VERTEX
10
10.0824
20
8.47037
30
3.8
0
VERTEX
10
10.078
20
8.47037
30
3.8
0
VERTEX
10
10.0624
20
8.48146
30
3.8
0
VERTEX
10
10.0536
20
8.48367
30
3.8
0
VERTEX
10
10.0358
20
8.49476
30
3.8
0
VERTEX
10
10.0004
20
8.50585
30
3.8
0
VERTEX
10
9.98262
20
8.51693
30
3.8
0
VERTEX
10
9.97375
20
8.52137
30
3.8
0
VERTEX
10
9.96931
20
8.5258
30
3.8
0
VERTEX
10
9.95158
20
8.53024
30
3.8
0
VERTEX
10
9.9161
20
8.55019
30
3.8
0
VERTEX
10
9.89836
20
8.55463
30
3.8
0
VERTEX
10
9.88949
20
8.55685
30
3.8
0
VERTEX
10
9.88284
20
8.5635
30
3.8
0
VERTEX
10
9.84736
20
8.56572
30
3.8
0
VERTEX
10
9.82962
20
8.56572
30
3.8
0
VERTEX
10
9.81188
20
8.56128
30
3.8
0
VERTEX
10
9.80301
20
8.55906
30
3.8
0
VERTEX
10
9.79858
20
8.55906
30
3.8
0
VERTEX
10
9.79636
20
8.55463
30
3.8
0
VERTEX
10
9.76088
20
8.55019
30
3.8
0
VERTEX
10
9.74314
20
8.54354
30
3.8
0
VERTEX
10
9.70766
20
8.53689
30
3.8
0
VERTEX
10
9.69879
20
8.52802
30
3.8
0
VERTEX
10
9.69436
20
8.52359
30
3.8
0
VERTEX
10
9.67662
20
8.51693
30
3.8
0
VERTEX
10
9.6611
20
8.50363
30
3.8
0
VERTEX
10
9.63893
20
8.46815
30
3.8
0
VERTEX
10
9.63227
20
8.4615
30
3.8
0
VERTEX
10
9.63006
20
8.44376
30
3.8
0
VERTEX
10
9.62562
20
8.43711
30
3.8
0
VERTEX
10
9.61675
20
8.43489
30
3.8
0
VERTEX
10
9.60345
20
8.36394
30
3.8
0
VERTEX
10
9.60123
20
8.35507
30
3.8
0
VERTEX
10
9.5968
20
8.35063
30
3.8
0
VERTEX
10
9.5968
20
8.27968
30
3.8
0
VERTEX
10
9.5968
20
8.27081
30
3.8
0
SEQEND
0
POLYLINE
62
31
66
1
70
1
3
contour
0
VERTEX
10
7.78006
20
8.75223
30
3.8
0
VERTEX
10
7.7855
20
8.74137
30
3.8
0
VERTEX
10
7.7855
20
8.73051
30
3.8
0
VERTEX
10
7.79093
20
8.71965
30
3.8
0
VERTEX
10
7.80994
20
8.70335
30
3.8
0
VERTEX
10
7.82351
20
8.68978
30
3.8
0
VERTEX
10
7.84252
20
8.68163
30
3.8
0
VERTEX
10
7.86425
20
8.67891
30
3.8
0
VERTEX
10
7.88597
20
8.68434
30
3.8
0
VERTEX
10
7.8914
20
8.68434
30
3.8
0
VERTEX
10
7.89412
20
8.68978
30
3.8
0
VERTEX
10
7.90498
20
8.69249
30
3.8
0
VERTEX
10
7.91041
20
8.69249
30
3.8
0
VERTEX
10
7.92399
20
8.70607
30
3.8
0
VERTEX
10
7.9267
20
8.74952
30
3.8
0
VERTEX
10
7.92399
20
8.77124
30
3.8
0
VERTEX
10
7.92399
20
8.7821
30
3.8
0
VERTEX
10
7.9077
20
8.80383
30
3.8
0
VERTEX
10
7.88597
20
8.81469
30
3.8
0
VERTEX
10
7.87782
20
8.82284
30
3.8
0
VERTEX
10
7.8561
20
8.83098
30
3.8
0
VERTEX
10
7.83438
20
8.82827
30
3.8
0
VERTEX
10
7.81265
20
8.82012
30
3.8
0
VERTEX
10
7.79093
20
8.80654
30
3.8
0
VERTEX
10
7.7855
20
8.79568
30
3.8
0
VERTEX
10
7.78006
20
8.75495
30
3.8
0
SEQEND
0
POLYLINE
62
224
66
1
70
1
3
mitochondrion
0
VERTEX
10
9.8512
20
8.30087
30
3.8
0
VERTEX
10
9.85398
20
8.29948
30
3.8
0
VERTEX
10
9.85537
20
8.28835
30
3.8
0
VERTEX
10
9.85954
20
8.27723
30
3.8
0
VERTEX
10
9.86232
20
8.27167
30
3.8
0
VERTEX
10
9.8651
20
8.26889
30
3.8
0
VERTEX
10
9.86927
20
8.25776
30
3.8
0
VERTEX
10
9.86927
20
8.25498
30
3.8
0
VERTEX
10
9.88457
20
8.23413
30
3.8
0
VERTEX
10
9.88457
20
8.23135
30
3.8
0
VERTEX
10
9.90264
20
8.21049
30
3.8
0
VERTEX
10
9.9082
20
8.20632
30
3.8
0
VERTEX
10
9.91098
20
8.20076
30
3.8
0
VERTEX
10
9.92211
20
8.19102
30
3.8
0
VERTEX
10
9.92767
20
8.18824
30
3.8
0
VERTEX
10
9.93045
20
8.18824
30
3.8
0
VERTEX
10
9.93601
20
8.18407
30
3.8
0
VERTEX
10
9.94157
20
8.18268
30
3.8
0
VERTEX
10
9.95131
20
8.17434
30
3.8
0
VERTEX
10
9.96243
20
8.17156
30
3.8
0
VERTEX
10
9.96799
20
8.16878
30
3.8
0
VERTEX
10
9.97355
20
8.16878
30
3.8
0
VERTEX
10
9.97912
20
8.16599
30
3.8
0
VERTEX
10
9.98468
20
8.16599
30
3.8
0
VERTEX
10
9.98746
20
8.16599
30
3.8
0
VERTEX
10
9.99024
20
8.16321
30
3.8
0
VERTEX
10
10.0125
20
8.16182
30
3.8
0
VERTEX
10
10.0236
20
8.15904
30
3.8
0
VERTEX
10
10.0459
20
8.15904
30
3.8
0
VERTEX
10
10.0681
20
8.16599
30
3.8
0
VERTEX
10
10.0737
20
8.16739
30
3.8
0
VERTEX
10
10.0848
20
8.17434
30
3.8
0
VERTEX
10
10.0903
20
8.17573
30
3.8
0
VERTEX
10
10.1084
20
8.1938
30
3.8
0
VERTEX
10
10.1168
20
8.20215
30
3.8
0
VERTEX
10
10.1293
20
8.22439
30
3.8
0
VERTEX
10
10.1362
20
8.23552
30
3.8
0
VERTEX
10
10.1362
20
8.2383
30
3.8
0
VERTEX
10
10.139
20
8.24108
30
3.8
0
VERTEX
10
10.139
20
8.28557
30
3.8
0
VERTEX
10
10.1376
20
8.2967
30
3.8
0
VERTEX
10
10.1376
20
8.30226
30
3.8
0
VERTEX
10
10.1348
20
8.30504
30
3.8
0
VERTEX
10
10.1279
20
8.32728
30
3.8
0
VERTEX
10
10.1265
20
8.33285
30
3.8
0
VERTEX
10
10.1265
20
8.33563
30
3.8
0
VERTEX
10
10.1237
20
8.33702
30
3.8
0
VERTEX
10
10.1223
20
8.34258
30
3.8
0
VERTEX
10
10.1154
20
8.3537
30
3.8
0
VERTEX
10
10.114
20
8.35926
30
3.8
0
VERTEX
10
10.1056
20
8.37039
30
3.8
0
VERTEX
10
10.1001
20
8.37456
30
3.8
0
VERTEX
10
10.0987
20
8.38012
30
3.8
0
VERTEX
10
10.0987
20
8.3829
30
3.8
0
VERTEX
10
10.0931
20
8.38846
30
3.8
0
VERTEX
10
10.0903
20
8.39403
30
3.8
0
VERTEX
10
10.0695
20
8.40932
30
3.8
0
VERTEX
10
10.0598
20
8.41766
30
3.8
0
VERTEX
10
10.0375
20
8.42601
30
3.8
0
VERTEX
10
10.0264
20
8.43296
30
3.8
0
VERTEX
10
10.0055
20
8.4413
30
3.8
0
VERTEX
10
9.99997
20
8.4413
30
3.8
0
VERTEX
10
9.98885
20
8.44547
30
3.8
0
VERTEX
10
9.9666
20
8.44547
30
3.8
0
VERTEX
10
9.95548
20
8.44408
30
3.8
0
VERTEX
10
9.94992
20
8.4413
30
3.8
0
VERTEX
10
9.93879
20
8.43991
30
3.8
0
VERTEX
10
9.93323
20
8.43991
30
3.8
0
VERTEX
10
9.92767
20
8.43574
30
3.8
0
VERTEX
10
9.92211
20
8.43435
30
3.8
0
VERTEX
10
9.91237
20
8.42461
30
3.8
0
VERTEX
10
9.90264
20
8.41766
30
3.8
0
VERTEX
10
9.89291
20
8.40793
30
3.8
0
VERTEX
10
9.87761
20
8.38707
30
3.8
0
VERTEX
10
9.85954
20
8.36622
30
3.8
0
VERTEX
10
9.85537
20
8.36205
30
3.8
0
VERTEX
10
9.8512
20
8.3398
30
3.8
0
VERTEX
10
9.8512
20
8.31755
30
3.8
0
VERTEX
10
9.85259
20
8.30643
30
3.8
0
VERTEX
10
9.8512
20
8.30226
30
3.8
0
SEQEND
0
POLYLINE
62
236
66
1
70
1
3
postsynaptic_density
0
VERTEX
10
7.77472
20
8.72463
30
3.8
0
VERTEX
10
7.78778
20
8.71156
30
3.8
0
VERTEX
10
7.79338
20
8.69663
30
3.8
0
VERTEX
10
7.80458
20
8.68357
30
3.8
0
VERTEX
10
7.81951
20
8.67611
30
3.8
0
VERTEX
10
7.84937
20
8.67611
30
3.8
0
VERTEX
10
7.8643
20
8.67611
30
3.8
0
VERTEX
10
7.87176
20
8.67611
30
3.8
0
VERTEX
10
7.87549
20
8.67611
30
3.8
0
VERTEX
10
7.87922
20
8.67984
30
3.8
0
VERTEX
10
7.88669
20
8.67984
30
3.8
0
VERTEX
10
7.90162
20
8.68544
30
3.8
0
VERTEX
10
7.90908
20
8.68544
30
3.8
0
VERTEX
10
7.92215
20
8.69477
30
3.8
0
VERTEX
10
7.92588
20
8.69663
30
3.8
0
VERTEX
10
7.92588
20
8.70037
30
3.8
0
VERTEX
10
7.93521
20
8.7153
30
3.8
0
VERTEX
10
7.94268
20
8.74516
30
3.8
0
VERTEX
10
7.93894
20
8.77502
30
3.8
0
VERTEX
10
7.93894
20
8.78995
30
3.8
0
VERTEX
10
7.93521
20
8.80488
30
3.8
0
VERTEX
10
7.92401
20
8.81794
30
3.8
0
VERTEX
10
7.91655
20
8.8254
30
3.8
0
VERTEX
10
7.91282
20
8.82727
30
3.8
0
VERTEX
10
7.90908
20
8.8254
30
3.8
0
VERTEX
10
7.90162
20
8.82914
30
3.8
0
VERTEX
10
7.87176
20
8.831
30
3.8
0
VERTEX
10
7.85683
20
8.831
30
3.8
0
VERTEX
10
7.8531
20
8.82727
30
3.8
0
VERTEX
10
7.82324
20
8.82167
30
3.8
0
VERTEX
10
7.80831
20
8.81607
30
3.8
0
VERTEX
10
7.80084
20
8.81234
30
3.8
0
VERTEX
10
7.79898
20
8.80861
30
3.8
0
VERTEX
10
7.79524
20
8.80861
30
3.8
0
VERTEX
10
7.78591
20
8.79554
30
3.8
0
VERTEX
10
7.78218
20
8.78061
30
3.8
0
VERTEX
10
7.78405
20
8.77688
30
3.8
0
VERTEX
10
7.78031
20
8.77502
30
3.8
0
VERTEX
10
7.77845
20
8.76009
30
3.8
0
VERTEX
10
7.77845
20
8.75635
30
3.8
0
VERTEX
10
7.77472
20
8.75262
30
3.8
0
VERTEX
10
7.77472
20
8.73769
30
3.8
0
VERTEX
10
7.77472
20
8.73023
30
3.8
0
VERTEX
10
7.77472
20
8.72649
30
3.8
0
SEQEND
0
POLYLINE
62
227
66
1
70
1
3
endoplasmic_reticulum
0
VERTEX
10
9.78843
20
8.43253
30
3.8
0
VERTEX
10
9.80367
20
8.40967
30
3.8
0
VERTEX
10
9.80976
20
8.39901
30
3.8
0
VERTEX
10
9.80976
20
8.39291
30
3.8
0
VERTEX
10
9.81281
20
8.38682
30
3.8
0
VERTEX
10
9.80976
20
8.36244
30
3.8
0
VERTEX
10
9.81281
20
8.31369
30
3.8
0
VERTEX
10
9.825
20
8.30912
30
3.8
0
VERTEX
10
9.83109
20
8.30912
30
3.8
0
VERTEX
10
9.83718
20
8.31369
30
3.8
0
VERTEX
10
9.84328
20
8.33655
30
3.8
0
VERTEX
10
9.8448
20
8.3853
30
3.8
0
VERTEX
10
9.84328
20
8.40967
30
3.8
0
VERTEX
10
9.84176
20
8.42186
30
3.8
0
VERTEX
10
9.83718
20
8.43253
30
3.8
0
VERTEX
10
9.83261
20
8.4371
30
3.8
0
VERTEX
10
9.83261
20
8.44014
30
3.8
0
VERTEX
10
9.82804
20
8.44624
30
3.8
0
VERTEX
10
9.80367
20
8.44776
30
3.8
0
VERTEX
10
9.79757
20
8.44776
30
3.8
0
VERTEX
10
9.78843
20
8.43557
30
3.8
0
VERTEX
10
9.78843
20
8.43405
30
3.8
0
SEQEND
0
POLYLINE
62
227
66
1
70
1
3
endoplasmic_reticulum
0
VERTEX
10
10.0413
20
8.12021
30
3.8
0
VERTEX
10
10.0444
20
8.11412
30
3.8
0
VERTEX
10
10.0505
20
8.11107
30
3.8
0
VERTEX
10
10.0748
20
8.11412
30
3.8
0
VERTEX
10
10.0809
20
8.11869
30
3.8
0
VERTEX
10
10.084
20
8.13087
30
3.8
0
VERTEX
10
10.0825
20
8.14306
30
3.8
0
VERTEX
10
10.0764
20
8.14763
30
3.8
0
VERTEX
10
10.0779
20
8.14916
30
3.8
0
VERTEX
10
10.0748
20
8.15068
30
3.8
0
VERTEX
10
10.0627
20
8.14611
30
3.8
0
VERTEX
10
10.0566
20
8.14459
30
3.8
0
VERTEX
10
10.0444
20
8.13544
30
3.8
0
VERTEX
10
10.0413
20
8.12935
30
3.8
0
VERTEX
10
10.0413
20
8.12326
30
3.8
0
VERTEX
10
10.0413
20
8.12173
30
3.8
0
SEQEND
0
POLYLINE
62
227
66
1
70
1
3
endoplasmic_reticulum
0
VERTEX
10
10.1053
20
8.14916
30
3.8
0
VERTEX
10
10.1068
20
8.14306
30
3.8
0
VERTEX
10
10.1068
20
8.14002
30
3.8
0
VERTEX
10
10.1129
20
8.13849
30
3.8
0
VERTEX
10
10.1373
20
8.14306
30
3.8
0
VERTEX
10
10.1495
20
8.14306
30
3.8
0
VERTEX
10
10.1617
20
8.14763
30
3.8
0
VERTEX
10
10.1632
20
8.15373
30
3.8
0
VERTEX
10
10.1602
20
8.16591
30
3.8
0
VERTEX
10
10.1571
20
8.16896
30
3.8
0
VERTEX
10
10.1556
20
8.17506
30
3.8
0
VERTEX
10
10.1495
20
8.17506
30
3.8
0
VERTEX
10
10.1251
20
8.16591
30
3.8
0
VERTEX
10
10.119
20
8.16591
30
3.8
0
VERTEX
10
10.1129
20
8.16134
30
3.8
0
VERTEX
10
10.1068
20
8.15982
30
3.8
0
VERTEX
10
10.1053
20
8.15373
30
3.8
0
VERTEX
10
10.1053
20
8.15068
30
3.8
0
SEQEND
0
POLYLINE
62
227
66
1
70
1
3
endoplasmic_reticulum
0
VERTEX
10
10.18
20
8.21924
30
3.8
0
VERTEX
10
10.183
20
8.21314
30
3.8
0
VERTEX
10
10.1891
20
8.20705
30
3.8
0
VERTEX
10
10.1952
20
8.19638
30
3.8
0
VERTEX
10
10.2074
20
8.19943
30
3.8
0
VERTEX
10
10.2104
20
8.19943
30
3.8
0
VERTEX
10
10.212
20
8.20248
30
3.8
0
VERTEX
10
10.2242
20
8.20553
30
3.8
0
VERTEX
10
10.2272
20
8.21162
30
3.8
0
VERTEX
10
10.2272
20
8.236
30
3.8
0
VERTEX
10
10.2257
20
8.24818
30
3.8
0
VERTEX
10
10.2257
20
8.25428
30
3.8
0
VERTEX
10
10.2226
20
8.2558
30
3.8
0
VERTEX
10
10.2226
20
8.25885
30
3.8
0
VERTEX
10
10.2196
20
8.26189
30
3.8
0
VERTEX
10
10.2165
20
8.26189
30
3.8
0
VERTEX
10
10.2043
20
8.27408
30
3.8
0
VERTEX
10
10.1983
20
8.27561
30
3.8
0
VERTEX
10
10.1922
20
8.27408
30
3.8
0
VERTEX
10
10.1861
20
8.27561
30
3.8
0
VERTEX
10
10.18
20
8.27408
30
3.8
0
VERTEX
10
10.1815
20
8.24971
30
3.8
0
VERTEX
10
10.18
20
8.22533
30
3.8
0
VERTEX
10
10.18
20
8.22076
30
3.8
0
SEQEND
0
ENDSEC
0
EOF
