0
SECTION
2
ENTITIES
0
POLYLINE
62
31
66
1
70
1
3
contour
0
VERTEX
10
10.3174
20
9.51475
30
6.4
0
VERTEX
10
10.3197
20
9.50588
30
6.4
0
VERTEX
10
10.3197
20
9.50145
30
6.4
0
VERTEX
10
10.3241
20
9.49701
30
6.4
0
VERTEX
10
10.3374
20
9.46375
30
6.4
0
VERTEX
10
10.3441
20
9.45488
30
6.4
0
VERTEX
10
10.3529
20
9.45267
30
6.4
0
VERTEX
10
10.3551
20
9.44823
30
6.4
0
VERTEX
10
10.3906
20
9.44823
30
6.4
0
VERTEX
10
10.4084
20
9.45045
30
6.4
0
VERTEX
10
10.4438
20
9.46597
30
6.4
0
VERTEX
10
10.4616
20
9.47484
30
6.4
0
VERTEX
10
10.4682
20
9.48149
30
6.4
0
VERTEX
10
10.466
20
9.51697
30
6.4
0
VERTEX
10
10.466
20
9.52584
30
6.4
0
VERTEX
10
10.4571
20
9.54358
30
6.4
0
VERTEX
10
10.4217
20
9.56353
30
6.4
0
VERTEX
10
10.4128
20
9.56575
30
6.4
0
VERTEX
10
10.3795
20
9.58793
30
6.4
0
VERTEX
10
10.3707
20
9.58793
30
6.4
0
VERTEX
10
10.3618
20
9.59236
30
6.4
0
VERTEX
10
10.3441
20
9.59458
30
6.4
0
VERTEX
10
10.3263
20
9.59014
30
6.4
0
VERTEX
10
10.3285
20
9.58571
30
6.4
0
VERTEX
10
10.3219
20
9.57906
30
6.4
0
VERTEX
10
10.3219
20
9.57019
30
6.4
0
VERTEX
10
10.3219
20
9.56575
30
6.4
0
VERTEX
10
10.3174
20
9.56132
30
6.4
0
VERTEX
10
10.3174
20
9.52584
30
6.4
0
VERTEX
10
10.3174
20
9.51697
30
6.4
0
SEQEND
0
POLYLINE
62
31
66
1
70
1
3
contour
0
VERTEX
10
7.73675
20
9.16209
30
6.4
0
VERTEX
10
7.74741
20
9.14077
30
6.4
0
VERTEX
10
7.7554
20
9.13278
30
6.4
0
VERTEX
10
7.75807
20
9.12745
30
6.4
0
VERTEX
10
7.76872
20
9.12479
30
6.4
0
VERTEX
10
7.81135
20
9.09282
30
6.4
0
VERTEX
10
7.82201
20
9.08749
30
6.4
0
VERTEX
10
7.84332
20
9.08749
30
6.4
0
VERTEX
10
7.86463
20
9.09548
30
6.4
0
VERTEX
10
7.87529
20
9.10081
30
6.4
0
VERTEX
10
7.88062
20
9.10614
30
6.4
0
VERTEX
10
7.88595
20
9.10614
30
6.4
0
VERTEX
10
7.92058
20
9.14344
30
6.4
0
VERTEX
10
7.92325
20
9.15409
30
6.4
0
VERTEX
10
7.9339
20
9.16209
30
6.4
0
VERTEX
10
7.9339
20
9.17274
30
6.4
0
VERTEX
10
7.9419
20
9.19139
30
6.4
0
VERTEX
10
7.94456
20
9.20205
30
6.4
0
VERTEX
10
7.94989
20
9.20738
30
6.4
0
VERTEX
10
7.94722
20
9.22869
30
6.4
0
VERTEX
10
7.94722
20
9.23935
30
6.4
0
VERTEX
10
7.93657
20
9.24734
30
6.4
0
VERTEX
10
7.9339
20
9.258
30
6.4
0
VERTEX
10
7.91259
20
9.26599
30
6.4
0
VERTEX
10
7.89128
20
9.26599
30
6.4
0
VERTEX
10
7.88062
20
9.26599
30
6.4
0
VERTEX
10
7.87796
20
9.26066
30
6.4
0
VERTEX
10
7.88062
20
9.25533
30
6.4
0
VERTEX
10
7.86197
20
9.24734
30
6.4
0
VERTEX
10
7.85398
20
9.24201
30
6.4
0
VERTEX
10
7.81135
20
9.23668
30
6.4
0
VERTEX
10
7.80336
20
9.22869
30
6.4
0
VERTEX
10
7.78205
20
9.22603
30
6.4
0
VERTEX
10
7.76073
20
9.20738
30
6.4
0
VERTEX
10
7.75007
20
9.20738
30
6.4
0
VERTEX
10
7.73675
20
9.18873
30
6.4
0
VERTEX
10
7.73675
20
9.16741
30
6.4
0
VERTEX
10
7.73675
20
9.16475
30
6.4
0
SEQEND
0
POLYLINE
62
224
66
1
70
1
3
mitochondrion
0
VERTEX
10
9.08646
20
9.49664
30
6.4
0
VERTEX
10
9.09063
20
9.49107
30
6.4
0
VERTEX
10
9.09202
20
9.47995
30
6.4
0
VERTEX
10
9.09202
20
9.47717
30
6.4
0
VERTEX
10
9.09619
20
9.473
30
6.4
0
VERTEX
10
9.09619
20
9.46744
30
6.4
0
VERTEX
10
9.09897
20
9.46188
30
6.4
0
VERTEX
10
9.09897
20
9.45631
30
6.4
0
VERTEX
10
9.10593
20
9.44658
30
6.4
0
VERTEX
10
9.10871
20
9.44102
30
6.4
0
VERTEX
10
9.11427
20
9.43546
30
6.4
0
VERTEX
10
9.11705
20
9.4299
30
6.4
0
VERTEX
10
9.13651
20
9.4146
30
6.4
0
VERTEX
10
9.14764
20
9.41043
30
6.4
0
VERTEX
10
9.1532
20
9.40904
30
6.4
0
VERTEX
10
9.16432
20
9.41043
30
6.4
0
VERTEX
10
9.16989
20
9.41182
30
6.4
0
VERTEX
10
9.17267
20
9.41182
30
6.4
0
VERTEX
10
9.17545
20
9.4146
30
6.4
0
VERTEX
10
9.18657
20
9.41738
30
6.4
0
VERTEX
10
9.18935
20
9.41738
30
6.4
0
VERTEX
10
9.19213
20
9.42016
30
6.4
0
VERTEX
10
9.19769
20
9.42155
30
6.4
0
VERTEX
10
9.20882
20
9.42851
30
6.4
0
VERTEX
10
9.21855
20
9.43268
30
6.4
0
VERTEX
10
9.22411
20
9.43685
30
6.4
0
VERTEX
10
9.22689
20
9.43963
30
6.4
0
VERTEX
10
9.23802
20
9.4438
30
6.4
0
VERTEX
10
9.2408
20
9.4438
30
6.4
0
VERTEX
10
9.24636
20
9.44797
30
6.4
0
VERTEX
10
9.25609
20
9.45075
30
6.4
0
VERTEX
10
9.26582
20
9.4577
30
6.4
0
VERTEX
10
9.26861
20
9.4577
30
6.4
0
VERTEX
10
9.27417
20
9.46327
30
6.4
0
VERTEX
10
9.27695
20
9.46605
30
6.4
0
VERTEX
10
9.27973
20
9.46605
30
6.4
0
VERTEX
10
9.2839
20
9.47161
30
6.4
0
VERTEX
10
9.28668
20
9.47439
30
6.4
0
VERTEX
10
9.28529
20
9.51888
30
6.4
0
VERTEX
10
9.2839
20
9.54113
30
6.4
0
VERTEX
10
9.28112
20
9.55225
30
6.4
0
VERTEX
10
9.28112
20
9.56338
30
6.4
0
VERTEX
10
9.27417
20
9.5745
30
6.4
0
VERTEX
10
9.26722
20
9.58284
30
6.4
0
VERTEX
10
9.26165
20
9.58562
30
6.4
0
VERTEX
10
9.25887
20
9.5884
30
6.4
0
VERTEX
10
9.25609
20
9.5884
30
6.4
0
VERTEX
10
9.25192
20
9.59397
30
6.4
0
VERTEX
10
9.24636
20
9.59397
30
6.4
0
VERTEX
10
9.23663
20
9.59814
30
6.4
0
VERTEX
10
9.23106
20
9.60231
30
6.4
0
VERTEX
10
9.22689
20
9.6037
30
6.4
0
VERTEX
10
9.21716
20
9.61204
30
6.4
0
VERTEX
10
9.19491
20
9.61065
30
6.4
0
VERTEX
10
9.17267
20
9.6037
30
6.4
0
VERTEX
10
9.1671
20
9.60092
30
6.4
0
VERTEX
10
9.16432
20
9.59814
30
6.4
0
VERTEX
10
9.15876
20
9.59814
30
6.4
0
VERTEX
10
9.15598
20
9.59536
30
6.4
0
VERTEX
10
9.14486
20
9.59397
30
6.4
0
VERTEX
10
9.14069
20
9.5898
30
6.4
0
VERTEX
10
9.13791
20
9.5898
30
6.4
0
VERTEX
10
9.13651
20
9.58701
30
6.4
0
VERTEX
10
9.13373
20
9.58701
30
6.4
0
VERTEX
10
9.12956
20
9.58145
30
6.4
0
VERTEX
10
9.11844
20
9.57589
30
6.4
0
VERTEX
10
9.11427
20
9.57033
30
6.4
0
VERTEX
10
9.11149
20
9.56755
30
6.4
0
VERTEX
10
9.10871
20
9.56755
30
6.4
0
VERTEX
10
9.10314
20
9.56338
30
6.4
0
VERTEX
10
9.09619
20
9.55364
30
6.4
0
VERTEX
10
9.09202
20
9.54252
30
6.4
0
VERTEX
10
9.09063
20
9.52027
30
6.4
0
VERTEX
10
9.08646
20
9.49803
30
6.4
0
SEQEND
0
POLYLINE
62
236
66
1
70
1
3
postsynaptic_density
0
VERTEX
10
8.38311
20
9.09041
30
6.4
0
VERTEX
10
8.38497
20
9.07548
30
6.4
0
VERTEX
10
8.38497
20
9.07175
30
6.4
0
VERTEX
10
8.39057
20
9.06428
30
6.4
0
VERTEX
10
8.39244
20
9.05868
30
6.4
0
VERTEX
10
8.39617
20
9.05682
30
6.4
0
VERTEX
10
8.39617
20
9.05308
30
6.4
0
VERTEX
10
8.40364
20
9.04562
30
6.4
0
VERTEX
10
8.41857
20
9.04189
30
6.4
0
VERTEX
10
8.42603
20
9.04562
30
6.4
0
VERTEX
10
8.43163
20
9.05308
30
6.4
0
VERTEX
10
8.43909
20
9.05682
30
6.4
0
VERTEX
10
8.44469
20
9.07175
30
6.4
0
VERTEX
10
8.44656
20
9.08668
30
6.4
0
VERTEX
10
8.44656
20
9.09414
30
6.4
0
VERTEX
10
8.43723
20
9.10907
30
6.4
0
VERTEX
10
8.42976
20
9.1128
30
6.4
0
VERTEX
10
8.3999
20
9.1128
30
6.4
0
VERTEX
10
8.39244
20
9.11094
30
6.4
0
VERTEX
10
8.38497
20
9.09601
30
6.4
0
VERTEX
10
8.38311
20
9.09227
30
6.4
0
SEQEND
0
POLYLINE
62
227
66
1
70
1
3
endoplasmic_reticulum
0
VERTEX
10
9.1878
20
9.66566
30
6.4
0
VERTEX
10
9.19229
20
9.65849
30
6.4
0
VERTEX
10
9.20574
20
9.64684
30
6.4
0
VERTEX
10
9.21201
20
9.64056
30
6.4
0
VERTEX
10
9.21829
20
9.63787
30
6.4
0
VERTEX
10
9.22546
20
9.63249
30
6.4
0
VERTEX
10
9.23263
20
9.6298
30
6.4
0
VERTEX
10
9.24698
20
9.62173
30
6.4
0
VERTEX
10
9.25415
20
9.61635
30
6.4
0
VERTEX
10
9.25594
20
9.61456
30
6.4
0
VERTEX
10
9.25953
20
9.61366
30
6.4
0
VERTEX
10
9.2667
20
9.60828
30
6.4
0
VERTEX
10
9.27387
20
9.6047
30
6.4
0
VERTEX
10
9.28105
20
9.6038
30
6.4
0
VERTEX
10
9.29539
20
9.6047
30
6.4
0
VERTEX
10
9.30256
20
9.60739
30
6.4
0
VERTEX
10
9.30436
20
9.60918
30
6.4
0
VERTEX
10
9.30705
20
9.61635
30
6.4
0
VERTEX
10
9.30705
20
9.62353
30
6.4
0
VERTEX
10
9.30705
20
9.62532
30
6.4
0
VERTEX
10
9.30436
20
9.62891
30
6.4
0
VERTEX
10
9.30167
20
9.63608
30
6.4
0
VERTEX
10
9.29629
20
9.64235
30
6.4
0
VERTEX
10
9.29001
20
9.64684
30
6.4
0
VERTEX
10
9.27567
20
9.65042
30
6.4
0
VERTEX
10
9.26849
20
9.65311
30
6.4
0
VERTEX
10
9.25415
20
9.65401
30
6.4
0
VERTEX
10
9.25056
20
9.6558
30
6.4
0
VERTEX
10
9.24339
20
9.6558
30
6.4
0
VERTEX
10
9.2398
20
9.6558
30
6.4
0
VERTEX
10
9.23711
20
9.65759
30
6.4
0
VERTEX
10
9.23622
20
9.66118
30
6.4
0
VERTEX
10
9.22187
20
9.66656
30
6.4
0
VERTEX
10
9.21022
20
9.67642
30
6.4
0
VERTEX
10
9.20843
20
9.67822
30
6.4
0
VERTEX
10
9.20843
20
9.68001
30
6.4
0
VERTEX
10
9.20663
20
9.6809
30
6.4
0
VERTEX
10
9.19946
20
9.67822
30
6.4
0
VERTEX
10
9.19229
20
9.67732
30
6.4
0
VERTEX
10
9.19049
20
9.67732
30
6.4
0
VERTEX
10
9.1878
20
9.67463
30
6.4
0
VERTEX
10
9.1878
20
9.66746
30
6.4
0
VERTEX
10
9.1878
20
9.66656
30
6.4
0
SEQEND
0
POLYLINE
62
227
66
1
70
1
3
endoplasmic_reticulum
0
VERTEX
10
8.93139
20
9.51773
30
6.4
0
VERTEX
10
8.93946
20
9.50429
30
6.4
0
VERTEX
10
8.94484
20
9.49801
30
6.4
0
VERTEX
10
8.94753
20
9.49532
30
6.4
0
VERTEX
10
8.94753
20
9.49173
30
6.4
0
VERTEX
10
8.94574
20
9.48815
30
6.4
0
VERTEX
10
8.94574
20
9.48098
30
6.4
0
VERTEX
10
8.93946
20
9.4756
30
6.4
0
VERTEX
10
8.93588
20
9.46842
30
6.4
0
VERTEX
10
8.93319
20
9.46484
30
6.4
0
VERTEX
10
8.93319
20
9.45766
30
6.4
0
VERTEX
10
8.93588
20
9.45049
30
6.4
0
VERTEX
10
8.93856
20
9.4478
30
6.4
0
VERTEX
10
8.96725
20
9.44691
30
6.4
0
VERTEX
10
8.97084
20
9.44691
30
6.4
0
VERTEX
10
8.97443
20
9.4496
30
6.4
0
VERTEX
10
8.98877
20
9.4496
30
6.4
0
VERTEX
10
8.99594
20
9.4496
30
6.4
0
VERTEX
10
8.99953
20
9.4487
30
6.4
0
VERTEX
10
9.00581
20
9.44242
30
6.4
0
VERTEX
10
9.01387
20
9.42987
30
6.4
0
VERTEX
10
9.02553
20
9.41732
30
6.4
0
VERTEX
10
9.03181
20
9.41194
30
6.4
0
VERTEX
10
9.03539
20
9.41015
30
6.4
0
VERTEX
10
9.03718
20
9.41015
30
6.4
0
VERTEX
10
9.03898
20
9.40835
30
6.4
0
VERTEX
10
9.04256
20
9.40746
30
6.4
0
VERTEX
10
9.04436
20
9.40567
30
6.4
0
VERTEX
10
9.04794
20
9.40567
30
6.4
0
VERTEX
10
9.05153
20
9.40387
30
6.4
0
VERTEX
10
9.06587
20
9.40208
30
6.4
0
VERTEX
10
9.07125
20
9.40656
30
6.4
0
VERTEX
10
9.07574
20
9.41284
30
6.4
0
VERTEX
10
9.07305
20
9.42718
30
6.4
0
VERTEX
10
9.07036
20
9.43435
30
6.4
0
VERTEX
10
9.06587
20
9.44153
30
6.4
0
VERTEX
10
9.06318
20
9.4478
30
6.4
0
VERTEX
10
9.06139
20
9.45139
30
6.4
0
VERTEX
10
9.05512
20
9.45856
30
6.4
0
VERTEX
10
9.04705
20
9.47201
30
6.4
0
VERTEX
10
9.04705
20
9.4756
30
6.4
0
VERTEX
10
9.03987
20
9.48187
30
6.4
0
VERTEX
10
9.0345
20
9.48725
30
6.4
0
VERTEX
10
9.0327
20
9.48994
30
6.4
0
VERTEX
10
9.02912
20
9.49353
30
6.4
0
VERTEX
10
9.02912
20
9.49532
30
6.4
0
VERTEX
10
9.02643
20
9.49891
30
6.4
0
VERTEX
10
9.02463
20
9.5007
30
6.4
0
VERTEX
10
9.02463
20
9.50249
30
6.4
0
VERTEX
10
9.01477
20
9.51684
30
6.4
0
VERTEX
10
9.0085
20
9.52311
30
6.4
0
VERTEX
10
9.00581
20
9.5258
30
6.4
0
VERTEX
10
9.00222
20
9.5267
30
6.4
0
VERTEX
10
8.99684
20
9.53208
30
6.4
0
VERTEX
10
8.99146
20
9.53925
30
6.4
0
VERTEX
10
8.97712
20
9.54553
30
6.4
0
VERTEX
10
8.97353
20
9.54642
30
6.4
0
VERTEX
10
8.97174
20
9.54822
30
6.4
0
VERTEX
10
8.94305
20
9.5527
30
6.4
0
VERTEX
10
8.93588
20
9.5518
30
6.4
0
VERTEX
10
8.93229
20
9.55001
30
6.4
0
VERTEX
10
8.93139
20
9.52132
30
6.4
0
VERTEX
10
8.93139
20
9.51863
30
6.4
0
SEQEND
0
POLYLINE
62
227
66
1
70
1
3
endoplasmic_reticulum
0
VERTEX
10
9.46753
20
9.5276
30
6.4
0
VERTEX
10
9.47291
20
9.52132
30
6.4
0
VERTEX
10
9.47649
20
9.51863
30
6.4
0
VERTEX
10
9.48366
20
9.51684
30
6.4
0
VERTEX
10
9.51235
20
9.51684
30
6.4
0
VERTEX
10
9.51594
20
9.51594
30
6.4
0
VERTEX
10
9.51953
20
9.51953
30
6.4
0
VERTEX
10
9.52132
20
9.52042
30
6.4
0
VERTEX
10
9.52042
20
9.53477
30
6.4
0
VERTEX
10
9.51684
20
9.54911
30
6.4
0
VERTEX
10
9.51235
20
9.55539
30
6.4
0
VERTEX
10
9.50877
20
9.55718
30
6.4
0
VERTEX
10
9.49442
20
9.55808
30
6.4
0
VERTEX
10
9.48008
20
9.55628
30
6.4
0
VERTEX
10
9.47739
20
9.55449
30
6.4
0
VERTEX
10
9.47022
20
9.54822
30
6.4
0
VERTEX
10
9.46753
20
9.54553
30
6.4
0
VERTEX
10
9.46753
20
9.53118
30
6.4
0
VERTEX
10
9.46753
20
9.52849
30
6.4
0
SEQEND
0
POLYLINE
62
227
66
1
70
1
3
endoplasmic_reticulum
0
VERTEX
10
10.3306
20
9.53317
30
6.4
0
VERTEX
10
10.3344
20
9.52573
30
6.4
0
VERTEX
10
10.3418
20
9.52573
30
6.4
0
VERTEX
10
10.3567
20
9.53131
30
6.4
0
VERTEX
10
10.3641
20
9.5341
30
6.4
0
VERTEX
10
10.3651
20
9.54155
30
6.4
0
VERTEX
10
10.3651
20
9.54341
30
6.4
0
VERTEX
10
10.3613
20
9.54527
30
6.4
0
VERTEX
10
10.3595
20
9.54713
30
6.4
0
VERTEX
10
10.352
20
9.54899
30
6.4
0
VERTEX
10
10.3502
20
9.54992
30
6.4
0
VERTEX
10
10.3427
20
9.54713
30
6.4
0
VERTEX
10
10.3409
20
9.54713
30
6.4
0
VERTEX
10
10.3371
20
9.54434
30
6.4
0
VERTEX
10
10.3353
20
9.54248
30
6.4
0
VERTEX
10
10.3334
20
9.54248
30
6.4
0
VERTEX
10
10.3306
20
9.53876
30
6.4
0
VERTEX
10
10.3306
20
9.53503
30
6.4
0
VERTEX
10
10.3306
20
9.5341
30
6.4
0
SEQEND
0
POLYLINE
62
31
66
1
70
1
3
contour
0
VERTEX
10
8.40222
20
9.12346
30
6.4
0
VERTEX
10
8.40389
20
9.11007
30
6.4
0
VERTEX
10
8.40724
20
9.10338
30
6.4
0
VERTEX
10
8.40724
20
9.08999
30
6.4
0
VERTEX
10
8.40891
20
9.0833
30
6.4
0
VERTEX
10
8.42062
20
9.06991
30
6.4
0
VERTEX
10
8.42564
20
9.06489
30
6.4
0
VERTEX
10
8.43066
20
9.0515
30
6.4
0
VERTEX
10
8.43568
20
9.04648
30
6.4
0
VERTEX
10
8.43736
20
9.03979
30
6.4
0
VERTEX
10
8.43736
20
9.03644
30
6.4
0
VERTEX
10
8.4474
20
9.02473
30
6.4
0
VERTEX
10
8.45242
20
9.01803
30
6.4
0
VERTEX
10
8.45911
20
9.01469
30
6.4
0
VERTEX
10
8.4725
20
9.01636
30
6.4
0
VERTEX
10
8.47585
20
9.02138
30
6.4
0
VERTEX
10
8.48923
20
9.02473
30
6.4
0
VERTEX
10
8.49593
20
9.02975
30
6.4
0
VERTEX
10
8.50262
20
9.02975
30
6.4
0
VERTEX
10
8.51601
20
9.03811
30
6.4
0
VERTEX
10
8.5227
20
9.04313
30
6.4
0
VERTEX
10
8.53609
20
9.04815
30
6.4
0
VERTEX
10
8.54613
20
9.05819
30
6.4
0
VERTEX
10
8.55282
20
9.06321
30
6.4
0
VERTEX
10
8.57123
20
9.08999
30
6.4
0
VERTEX
10
8.57792
20
9.09334
30
6.4
0
VERTEX
10
8.58127
20
9.09334
30
6.4
0
VERTEX
10
8.58629
20
9.09836
30
6.4
0
VERTEX
10
8.59968
20
9.10338
30
6.4
0
VERTEX
10
8.6047
20
9.1084
30
6.4
0
VERTEX
10
8.61809
20
9.11342
30
6.4
0
VERTEX
10
8.62478
20
9.11844
30
6.4
0
VERTEX
10
8.63147
20
9.12011
30
6.4
0
VERTEX
10
8.65825
20
9.13684
30
6.4
0
VERTEX
10
8.67833
20
9.15358
30
6.4
0
VERTEX
10
8.69172
20
9.16529
30
6.4
0
VERTEX
10
8.70008
20
9.17701
30
6.4
0
VERTEX
10
8.7051
20
9.1837
30
6.4
0
VERTEX
10
8.7051
20
9.18705
30
6.4
0
VERTEX
10
8.71514
20
9.19876
30
6.4
0
VERTEX
10
8.71514
20
9.20211
30
6.4
0
VERTEX
10
8.72853
20
9.21215
30
6.4
0
VERTEX
10
8.75029
20
9.2339
30
6.4
0
VERTEX
10
8.76869
20
9.25566
30
6.4
0
VERTEX
10
8.79379
20
9.27741
30
6.4
0
VERTEX
10
8.8189
20
9.29247
30
6.4
0
VERTEX
10
8.83061
20
9.30084
30
6.4
0
VERTEX
10
8.8373
20
9.30586
30
6.4
0
VERTEX
10
8.84065
20
9.30753
30
6.4
0
VERTEX
10
8.84734
20
9.30586
30
6.4
0
VERTEX
10
8.84902
20
9.30753
30
6.4
0
VERTEX
10
8.84734
20
9.30921
30
6.4
0
VERTEX
10
8.87412
20
9.31757
30
6.4
0
VERTEX
10
8.88081
20
9.32259
30
6.4
0
VERTEX
10
8.8942
20
9.32761
30
6.4
0
VERTEX
10
8.90759
20
9.32761
30
6.4
0
VERTEX
10
8.92097
20
9.33096
30
6.4
0
VERTEX
10
8.92767
20
9.33431
30
6.4
0
VERTEX
10
8.98122
20
9.33598
30
6.4
0
VERTEX
10
8.9946
20
9.33263
30
6.4
0
VERTEX
10
9.1017
20
9.33096
30
6.4
0
VERTEX
10
9.11509
20
9.32929
30
6.4
0
VERTEX
10
9.12178
20
9.32594
30
6.4
0
VERTEX
10
9.17533
20
9.32761
30
6.4
0
VERTEX
10
9.20211
20
9.32929
30
6.4
0
VERTEX
10
9.2155
20
9.32929
30
6.4
0
VERTEX
10
9.26904
20
9.341
30
6.4
0
VERTEX
10
9.27239
20
9.341
30
6.4
0
VERTEX
10
9.27574
20
9.34435
30
6.4
0
VERTEX
10
9.30251
20
9.34602
30
6.4
0
VERTEX
10
9.3159
20
9.34769
30
6.4
0
VERTEX
10
9.31925
20
9.34769
30
6.4
0
VERTEX
10
9.32594
20
9.35439
30
6.4
0
VERTEX
10
9.35272
20
9.36276
30
6.4
0
VERTEX
10
9.35606
20
9.36443
30
6.4
0
VERTEX
10
9.36276
20
9.36108
30
6.4
0
VERTEX
10
9.46985
20
9.35606
30
6.4
0
VERTEX
10
9.49663
20
9.35606
30
6.4
0
VERTEX
10
9.51002
20
9.35606
30
6.4
0
VERTEX
10
9.51671
20
9.35774
30
6.4
0
VERTEX
10
9.53846
20
9.37949
30
6.4
0
VERTEX
10
9.54181
20
9.38116
30
6.4
0
VERTEX
10
9.54181
20
9.40794
30
6.4
0
VERTEX
10
9.54516
20
9.43471
30
6.4
0
VERTEX
10
9.5485
20
9.43973
30
6.4
0
VERTEX
10
9.5485
20
9.45312
30
6.4
0
VERTEX
10
9.5485
20
9.45981
30
6.4
0
VERTEX
10
9.55185
20
9.46316
30
6.4
0
VERTEX
10
9.55018
20
9.47655
30
6.4
0
VERTEX
10
9.55185
20
9.48994
30
6.4
0
VERTEX
10
9.55185
20
9.49328
30
6.4
0
VERTEX
10
9.5552
20
9.49663
30
6.4
0
VERTEX
10
9.55687
20
9.51002
30
6.4
0
VERTEX
10
9.5552
20
9.52173
30
6.4
0
VERTEX
10
9.56524
20
9.5485
30
6.4
0
VERTEX
10
9.56524
20
9.5552
30
6.4
0
VERTEX
10
9.5803
20
9.58197
30
6.4
0
VERTEX
10
9.58197
20
9.58365
30
6.4
0
VERTEX
10
9.5803
20
9.58699
30
6.4
0
VERTEX
10
9.59034
20
9.59871
30
6.4
0
VERTEX
10
9.59536
20
9.60205
30
6.4
0
VERTEX
10
9.59871
20
9.59703
30
6.4
0
VERTEX
10
9.60707
20
9.60875
30
6.4
0
VERTEX
10
9.61209
20
9.61544
30
6.4
0
VERTEX
10
9.61544
20
9.61879
30
6.4
0
VERTEX
10
9.61544
20
9.62548
30
6.4
0
VERTEX
10
9.62716
20
9.63552
30
6.4
0
VERTEX
10
9.64054
20
9.63887
30
6.4
0
VERTEX
10
9.65226
20
9.64891
30
6.4
0
VERTEX
10
9.65728
20
9.6556
30
6.4
0
VERTEX
10
9.67066
20
9.66062
30
6.4
0
VERTEX
10
9.67568
20
9.66397
30
6.4
0
VERTEX
10
9.6807
20
9.67066
30
6.4
0
VERTEX
10
9.68907
20
9.67568
30
6.4
0
VERTEX
10
9.69074
20
9.68238
30
6.4
0
VERTEX
10
9.71752
20
9.69074
30
6.4
0
VERTEX
10
9.74429
20
9.69409
30
6.4
0
VERTEX
10
9.77107
20
9.70246
30
6.4
0
VERTEX
10
9.82462
20
9.70079
30
6.4
0
VERTEX
10
9.83801
20
9.70079
30
6.4
0
VERTEX
10
9.8447
20
9.70079
30
6.4
0
VERTEX
10
9.84805
20
9.70413
30
6.4
0
VERTEX
10
9.86143
20
9.70581
30
6.4
0
VERTEX
10
9.87315
20
9.7125
30
6.4
0
VERTEX
10
9.88653
20
9.72254
30
6.4
0
VERTEX
10
9.89155
20
9.72756
30
6.4
0
VERTEX
10
9.88821
20
9.75433
30
6.4
0
VERTEX
10
9.88653
20
9.76103
30
6.4
0
VERTEX
10
9.88653
20
9.76438
30
6.4
0
VERTEX
10
9.87817
20
9.77609
30
6.4
0
VERTEX
10
9.87147
20
9.78111
30
6.4
0
VERTEX
10
9.86813
20
9.80788
30
6.4
0
VERTEX
10
9.86478
20
9.81458
30
6.4
0
VERTEX
10
9.85139
20
9.8196
30
6.4
0
VERTEX
10
9.82462
20
9.82127
30
6.4
0
VERTEX
10
9.81792
20
9.82294
30
6.4
0
VERTEX
10
9.79115
20
9.82127
30
6.4
0
VERTEX
10
9.76438
20
9.81625
30
6.4
0
VERTEX
10
9.75099
20
9.81458
30
6.4
0
VERTEX
10
9.69744
20
9.8196
30
6.4
0
VERTEX
10
9.67066
20
9.82462
30
6.4
0
VERTEX
10
9.64389
20
9.82462
30
6.4
0
VERTEX
10
9.6305
20
9.82629
30
6.4
0
VERTEX
10
9.57695
20
9.8447
30
6.4
0
VERTEX
10
9.55018
20
9.84972
30
6.4
0
VERTEX
10
9.53679
20
9.85307
30
6.4
0
VERTEX
10
9.5234
20
9.85307
30
6.4
0
VERTEX
10
9.51002
20
9.84972
30
6.4
0
VERTEX
10
9.50834
20
9.84637
30
6.4
0
VERTEX
10
9.49496
20
9.8447
30
6.4
0
VERTEX
10
9.48157
20
9.83968
30
6.4
0
VERTEX
10
9.46818
20
9.83801
30
6.4
0
VERTEX
10
9.45479
20
9.83131
30
6.4
0
VERTEX
10
9.4481
20
9.82964
30
6.4
0
VERTEX
10
9.43973
20
9.8196
30
6.4
0
VERTEX
10
9.43304
20
9.81792
30
6.4
0
VERTEX
10
9.42635
20
9.8129
30
6.4
0
VERTEX
10
9.41296
20
9.81123
30
6.4
0
VERTEX
10
9.40626
20
9.80956
30
6.4
0
VERTEX
10
9.40459
20
9.80621
30
6.4
0
VERTEX
10
9.35104
20
9.79617
30
6.4
0
VERTEX
10
9.32427
20
9.7945
30
6.4
0
VERTEX
10
9.29749
20
9.78948
30
6.4
0
VERTEX
10
9.2908
20
9.78613
30
6.4
0
VERTEX
10
9.28745
20
9.78613
30
6.4
0
VERTEX
10
9.28076
20
9.78111
30
6.4
0
VERTEX
10
9.27406
20
9.78111
30
6.4
0
VERTEX
10
9.27072
20
9.78111
30
6.4
0
VERTEX
10
9.26737
20
9.77776
30
6.4
0
VERTEX
10
9.26068
20
9.77609
30
6.4
0
VERTEX
10
9.25064
20
9.76438
30
6.4
0
VERTEX
10
9.22386
20
9.74931
30
6.4
0
VERTEX
10
9.21717
20
9.74931
30
6.4
0
VERTEX
10
9.21382
20
9.74597
30
6.4
0
VERTEX
10
9.18705
20
9.7376
30
6.4
0
VERTEX
10
9.17366
20
9.73258
30
6.4
0
VERTEX
10
9.16697
20
9.73425
30
6.4
0
VERTEX
10
9.16362
20
9.73425
30
6.4
0
VERTEX
10
9.16027
20
9.73091
30
6.4
0
VERTEX
10
9.15693
20
9.73091
30
6.4
0
VERTEX
10
9.15358
20
9.72756
30
6.4
0
VERTEX
10
9.1017
20
9.70748
30
6.4
0
VERTEX
10
9.08832
20
9.70581
30
6.4
0
VERTEX
10
9.08162
20
9.70413
30
6.4
0
VERTEX
10
9.08162
20
9.70079
30
6.4
0
VERTEX
10
9.07493
20
9.69911
30
6.4
0
VERTEX
10
9.04815
20
9.6807
30
6.4
0
VERTEX
10
9.02138
20
9.67234
30
6.4
0
VERTEX
10
9.00799
20
9.66899
30
6.4
0
VERTEX
10
8.9946
20
9.66899
30
6.4
0
VERTEX
10
8.98122
20
9.66397
30
6.4
0
VERTEX
10
8.97452
20
9.6623
30
6.4
0
VERTEX
10
8.97118
20
9.65895
30
6.4
0
VERTEX
10
8.9444
20
9.65058
30
6.4
0
VERTEX
10
8.93101
20
9.64891
30
6.4
0
VERTEX
10
8.91763
20
9.64054
30
6.4
0
VERTEX
10
8.91093
20
9.64054
30
6.4
0
VERTEX
10
8.90759
20
9.64054
30
6.4
0
VERTEX
10
8.90424
20
9.6372
30
6.4
0
VERTEX
10
8.90089
20
9.6372
30
6.4
0
VERTEX
10
8.89085
20
9.62548
30
6.4
0
VERTEX
10
8.88918
20
9.61879
30
6.4
0
VERTEX
10
8.88583
20
9.61544
30
6.4
0
VERTEX
10
8.87914
20
9.58867
30
6.4
0
VERTEX
10
8.87412
20
9.58197
30
6.4
0
VERTEX
10
8.8624
20
9.55855
30
6.4
0
VERTEX
10
8.85738
20
9.53177
30
6.4
0
VERTEX
10
8.85404
20
9.51838
30
6.4
0
VERTEX
10
8.85404
20
9.51504
30
6.4
0
VERTEX
10
8.84734
20
9.51002
30
6.4
0
VERTEX
10
8.84567
20
9.50667
30
6.4
0
VERTEX
10
8.83898
20
9.505
30
6.4
0
VERTEX
10
8.82726
20
9.49496
30
6.4
0
VERTEX
10
8.82224
20
9.48826
30
6.4
0
VERTEX
10
8.8189
20
9.48491
30
6.4
0
VERTEX
10
8.80718
20
9.47989
30
6.4
0
VERTEX
10
8.79379
20
9.47153
30
6.4
0
VERTEX
10
8.7871
20
9.47153
30
6.4
0
VERTEX
10
8.77539
20
9.46316
30
6.4
0
VERTEX
10
8.76869
20
9.45814
30
6.4
0
VERTEX
10
8.76033
20
9.44475
30
6.4
0
VERTEX
10
8.76033
20
9.43806
30
6.4
0
VERTEX
10
8.75029
20
9.42635
30
6.4
0
VERTEX
10
8.74527
20
9.41965
30
6.4
0
VERTEX
10
8.74025
20
9.40794
30
6.4
0
VERTEX
10
8.7369
20
9.38116
30
6.4
0
VERTEX
10
8.73188
20
9.37782
30
6.4
0
VERTEX
10
8.72853
20
9.37112
30
6.4
0
VERTEX
10
8.72686
20
9.34435
30
6.4
0
VERTEX
10
8.72686
20
9.33096
30
6.4
0
VERTEX
10
8.71514
20
9.30586
30
6.4
0
VERTEX
10
8.71012
20
9.29247
30
6.4
0
VERTEX
10
8.70678
20
9.28578
30
6.4
0
VERTEX
10
8.70176
20
9.28411
30
6.4
0
VERTEX
10
8.68837
20
9.27239
30
6.4
0
VERTEX
10
8.68502
20
9.26737
30
6.4
0
VERTEX
10
8.67833
20
9.26402
30
6.4
0
VERTEX
10
8.67666
20
9.26068
30
6.4
0
VERTEX
10
8.67331
20
9.26068
30
6.4
0
VERTEX
10
8.66829
20
9.25398
30
6.4
0
VERTEX
10
8.6549
20
9.25398
30
6.4
0
VERTEX
10
8.60135
20
9.24562
30
6.4
0
VERTEX
10
8.57458
20
9.24562
30
6.4
0
VERTEX
10
8.5478
20
9.24227
30
6.4
0
VERTEX
10
8.52103
20
9.2339
30
6.4
0
VERTEX
10
8.51433
20
9.23223
30
6.4
0
VERTEX
10
8.51099
20
9.23223
30
6.4
0
VERTEX
10
8.50931
20
9.22888
30
6.4
0
VERTEX
10
8.48254
20
9.23056
30
6.4
0
VERTEX
10
8.46915
20
9.23056
30
6.4
0
VERTEX
10
8.46246
20
9.23056
30
6.4
0
VERTEX
10
8.45074
20
9.22219
30
6.4
0
VERTEX
10
8.44907
20
9.2155
30
6.4
0
VERTEX
10
8.43066
20
9.19374
30
6.4
0
VERTEX
10
8.41226
20
9.16697
30
6.4
0
VERTEX
10
8.40891
20
9.16027
30
6.4
0
VERTEX
10
8.40891
20
9.15693
30
6.4
0
VERTEX
10
8.40389
20
9.15023
30
6.4
0
VERTEX
10
8.40222
20
9.12513
30
6.4
0
SEQEND
0
ENDSEC
0
EOF
