0
SECTION
2
ENTITIES
0
POLYLINE
62
31
66
1
70
1
3
contour
0
VERTEX
10
10.1201
20
9.5724
30
6.64
0
VERTEX
10
10.1267
20
9.55467
30
6.64
0
VERTEX
10
10.129
20
9.5458
30
6.64
0
VERTEX
10
10.1423
20
9.53027
30
6.64
0
VERTEX
10
10.1489
20
9.52584
30
6.64
0
VERTEX
10
10.1755
20
9.4948
30
6.64
0
VERTEX
10
10.1822
20
9.48593
30
6.64
0
VERTEX
10
10.1866
20
9.48149
30
6.64
0
VERTEX
10
10.1933
20
9.46375
30
6.64
0
VERTEX
10
10.1955
20
9.45488
30
6.64
0
VERTEX
10
10.2021
20
9.44601
30
6.64
0
VERTEX
10
10.2088
20
9.42828
30
6.64
0
VERTEX
10
10.2243
20
9.41275
30
6.64
0
VERTEX
10
10.2243
20
9.40832
30
6.64
0
VERTEX
10
10.2554
20
9.38393
30
6.64
0
VERTEX
10
10.262
20
9.37506
30
6.64
0
VERTEX
10
10.2709
20
9.37284
30
6.64
0
VERTEX
10
10.2753
20
9.37284
30
6.64
0
VERTEX
10
10.2797
20
9.36841
30
6.64
0
VERTEX
10
10.2975
20
9.36397
30
6.64
0
VERTEX
10
10.3064
20
9.3551
30
6.64
0
VERTEX
10
10.3152
20
9.35288
30
6.64
0
VERTEX
10
10.3263
20
9.3418
30
6.64
0
VERTEX
10
10.3441
20
9.33515
30
6.64
0
VERTEX
10
10.3618
20
9.32406
30
6.64
0
VERTEX
10
10.3707
20
9.31962
30
6.64
0
VERTEX
10
10.3684
20
9.31741
30
6.64
0
VERTEX
10
10.3862
20
9.30632
30
6.64
0
VERTEX
10
10.4039
20
9.29967
30
6.64
0
VERTEX
10
10.4084
20
9.29523
30
6.64
0
VERTEX
10
10.4438
20
9.28415
30
6.64
0
VERTEX
10
10.4527
20
9.28193
30
6.64
0
VERTEX
10
10.4616
20
9.27528
30
6.64
0
VERTEX
10
10.4793
20
9.27084
30
6.64
0
VERTEX
10
10.5148
20
9.27084
30
6.64
0
VERTEX
10
10.5325
20
9.27306
30
6.64
0
VERTEX
10
10.5414
20
9.27528
30
6.64
0
VERTEX
10
10.5547
20
9.2908
30
6.64
0
VERTEX
10
10.5591
20
9.29523
30
6.64
0
VERTEX
10
10.5702
20
9.33071
30
6.64
0
VERTEX
10
10.5724
20
9.33958
30
6.64
0
VERTEX
10
10.5769
20
9.34401
30
6.64
0
VERTEX
10
10.5769
20
9.34845
30
6.64
0
VERTEX
10
10.5835
20
9.35732
30
6.64
0
VERTEX
10
10.5835
20
9.3928
30
6.64
0
VERTEX
10
10.5813
20
9.41054
30
6.64
0
VERTEX
10
10.5769
20
9.41275
30
6.64
0
VERTEX
10
10.568
20
9.48371
30
6.64
0
VERTEX
10
10.5636
20
9.51919
30
6.64
0
VERTEX
10
10.5636
20
9.52806
30
6.64
0
VERTEX
10
10.5525
20
9.56132
30
6.64
0
VERTEX
10
10.5436
20
9.57906
30
6.64
0
VERTEX
10
10.5126
20
9.60788
30
6.64
0
VERTEX
10
10.5037
20
9.6101
30
6.64
0
VERTEX
10
10.4882
20
9.62119
30
6.64
0
VERTEX
10
10.4704
20
9.62784
30
6.64
0
VERTEX
10
10.435
20
9.63227
30
6.64
0
VERTEX
10
10.364
20
9.62562
30
6.64
0
VERTEX
10
10.3285
20
9.6234
30
6.64
0
VERTEX
10
10.3108
20
9.62119
30
6.64
0
VERTEX
10
10.2931
20
9.6234
30
6.64
0
VERTEX
10
10.2842
20
9.62784
30
6.64
0
VERTEX
10
10.2487
20
9.63006
30
6.64
0
VERTEX
10
10.2443
20
9.63006
30
6.64
0
VERTEX
10
10.2354
20
9.63671
30
6.64
0
VERTEX
10
10.2177
20
9.64114
30
6.64
0
VERTEX
10
10.2088
20
9.64114
30
6.64
0
VERTEX
10
10.2044
20
9.64558
30
6.64
0
VERTEX
10
10.1999
20
9.64558
30
6.64
0
VERTEX
10
10.1955
20
9.65001
30
6.64
0
VERTEX
10
10.1866
20
9.65001
30
6.64
0
VERTEX
10
10.1777
20
9.65445
30
6.64
0
VERTEX
10
10.16
20
9.65445
30
6.64
0
VERTEX
10
10.1511
20
9.65445
30
6.64
0
VERTEX
10
10.1423
20
9.63671
30
6.64
0
VERTEX
10
10.129
20
9.62119
30
6.64
0
VERTEX
10
10.1267
20
9.61232
30
6.64
0
VERTEX
10
10.1201
20
9.60345
30
6.64
0
VERTEX
10
10.1201
20
9.58571
30
6.64
0
VERTEX
10
10.1201
20
9.57684
30
6.64
0
VERTEX
10
10.1201
20
9.57462
30
6.64
0
SEQEND
0
POLYLINE
62
31
66
1
70
1
3
contour
0
VERTEX
10
8.25257
20
9.14599
30
6.64
0
VERTEX
10
8.26072
20
9.10254
30
6.64
0
VERTEX
10
8.26343
20
9.09168
30
6.64
0
VERTEX
10
8.26886
20
9.08625
30
6.64
0
VERTEX
10
8.27158
20
9.06452
30
6.64
0
VERTEX
10
8.27701
20
9.05366
30
6.64
0
VERTEX
10
8.27701
20
9.04823
30
6.64
0
VERTEX
10
8.28244
20
9.0428
30
6.64
0
VERTEX
10
8.28244
20
9.03737
30
6.64
0
VERTEX
10
8.29874
20
9.01564
30
6.64
0
VERTEX
10
8.31774
20
8.99935
30
6.64
0
VERTEX
10
8.33947
20
8.99663
30
6.64
0
VERTEX
10
8.38292
20
9.01021
30
6.64
0
VERTEX
10
8.39378
20
9.01564
30
6.64
0
VERTEX
10
8.4155
20
9.01836
30
6.64
0
VERTEX
10
8.42094
20
9.01836
30
6.64
0
VERTEX
10
8.42637
20
9.02379
30
6.64
0
VERTEX
10
8.44809
20
9.0265
30
6.64
0
VERTEX
10
8.46982
20
9.03465
30
6.64
0
VERTEX
10
8.48068
20
9.0428
30
6.64
0
VERTEX
10
8.48339
20
9.04823
30
6.64
0
VERTEX
10
8.48882
20
9.04823
30
6.64
0
VERTEX
10
8.49697
20
9.05638
30
6.64
0
VERTEX
10
8.5024
20
9.05638
30
6.64
0
VERTEX
10
8.5377
20
9.08896
30
6.64
0
VERTEX
10
8.58115
20
9.10526
30
6.64
0
VERTEX
10
8.60288
20
9.11883
30
6.64
0
VERTEX
10
8.61646
20
9.13784
30
6.64
0
VERTEX
10
8.62189
20
9.14327
30
6.64
0
VERTEX
10
8.62189
20
9.1487
30
6.64
0
VERTEX
10
8.62732
20
9.15414
30
6.64
0
VERTEX
10
8.6246
20
9.19758
30
6.64
0
VERTEX
10
8.61646
20
9.21931
30
6.64
0
VERTEX
10
8.60288
20
9.24103
30
6.64
0
VERTEX
10
8.59745
20
9.24646
30
6.64
0
VERTEX
10
8.57572
20
9.24646
30
6.64
0
VERTEX
10
8.48882
20
9.26547
30
6.64
0
VERTEX
10
8.31503
20
9.26276
30
6.64
0
VERTEX
10
8.3096
20
9.26547
30
6.64
0
VERTEX
10
8.29874
20
9.26004
30
6.64
0
VERTEX
10
8.2933
20
9.26004
30
6.64
0
VERTEX
10
8.27701
20
9.24103
30
6.64
0
VERTEX
10
8.258
20
9.19758
30
6.64
0
VERTEX
10
8.25257
20
9.17586
30
6.64
0
VERTEX
10
8.25257
20
9.15414
30
6.64
0
VERTEX
10
8.25257
20
9.1487
30
6.64
0
SEQEND
0
POLYLINE
62
31
66
1
70
1
3
contour
0
VERTEX
10
7.88062
20
9.1834
30
6.64
0
VERTEX
10
7.88328
20
9.17274
30
6.64
0
VERTEX
10
7.89128
20
9.16475
30
6.64
0
VERTEX
10
7.89394
20
9.15409
30
6.64
0
VERTEX
10
7.91259
20
9.13544
30
6.64
0
VERTEX
10
7.92325
20
9.13012
30
6.64
0
VERTEX
10
7.9339
20
9.13012
30
6.64
0
VERTEX
10
7.95255
20
9.14077
30
6.64
0
VERTEX
10
7.96321
20
9.15143
30
6.64
0
VERTEX
10
7.97387
20
9.15676
30
6.64
0
VERTEX
10
7.97387
20
9.16209
30
6.64
0
VERTEX
10
7.97919
20
9.16209
30
6.64
0
VERTEX
10
7.98186
20
9.1834
30
6.64
0
VERTEX
10
7.98186
20
9.19406
30
6.64
0
VERTEX
10
7.98186
20
9.19938
30
6.64
0
VERTEX
10
7.96587
20
9.2207
30
6.64
0
VERTEX
10
7.96587
20
9.22603
30
6.64
0
VERTEX
10
7.95522
20
9.23135
30
6.64
0
VERTEX
10
7.93923
20
9.25
30
6.64
0
VERTEX
10
7.91792
20
9.24201
30
6.64
0
VERTEX
10
7.90726
20
9.23935
30
6.64
0
VERTEX
10
7.90193
20
9.22869
30
6.64
0
VERTEX
10
7.88328
20
9.21271
30
6.64
0
VERTEX
10
7.88062
20
9.19139
30
6.64
0
VERTEX
10
7.88062
20
9.18606
30
6.64
0
SEQEND
0
POLYLINE
62
224
66
1
70
1
3
mitochondrion
0
VERTEX
10
8.90848
20
9.62456
30
6.64
0
VERTEX
10
8.90987
20
9.61899
30
6.64
0
VERTEX
10
8.91266
20
9.61621
30
6.64
0
VERTEX
10
8.91266
20
9.59397
30
6.64
0
VERTEX
10
8.91266
20
9.5884
30
6.64
0
VERTEX
10
8.90987
20
9.58562
30
6.64
0
VERTEX
10
8.91127
20
9.5745
30
6.64
0
VERTEX
10
8.91405
20
9.56894
30
6.64
0
VERTEX
10
8.91405
20
9.56338
30
6.64
0
VERTEX
10
8.92656
20
9.54252
30
6.64
0
VERTEX
10
8.93629
20
9.5314
30
6.64
0
VERTEX
10
8.94742
20
9.52444
30
6.64
0
VERTEX
10
8.95715
20
9.51471
30
6.64
0
VERTEX
10
8.9794
20
9.5022
30
6.64
0
VERTEX
10
8.99052
20
9.49803
30
6.64
0
VERTEX
10
9.00164
20
9.49664
30
6.64
0
VERTEX
10
9.0072
20
9.49525
30
6.64
0
VERTEX
10
9.00999
20
9.49525
30
6.64
0
VERTEX
10
9.01277
20
9.49246
30
6.64
0
VERTEX
10
9.02389
20
9.49107
30
6.64
0
VERTEX
10
9.02945
20
9.48829
30
6.64
0
VERTEX
10
9.0517
20
9.48829
30
6.64
0
VERTEX
10
9.07395
20
9.48551
30
6.64
0
VERTEX
10
9.11844
20
9.4869
30
6.64
0
VERTEX
10
9.124
20
9.4869
30
6.64
0
VERTEX
10
9.12956
20
9.48968
30
6.64
0
VERTEX
10
9.13234
20
9.48968
30
6.64
0
VERTEX
10
9.17545
20
9.51888
30
6.64
0
VERTEX
10
9.18101
20
9.52027
30
6.64
0
VERTEX
10
9.18796
20
9.52723
30
6.64
0
VERTEX
10
9.18796
20
9.53279
30
6.64
0
VERTEX
10
9.19213
20
9.54391
30
6.64
0
VERTEX
10
9.18935
20
9.5884
30
6.64
0
VERTEX
10
9.18657
20
9.59953
30
6.64
0
VERTEX
10
9.18657
20
9.61065
30
6.64
0
VERTEX
10
9.18379
20
9.61621
30
6.64
0
VERTEX
10
9.18379
20
9.61899
30
6.64
0
VERTEX
10
9.16849
20
9.64124
30
6.64
0
VERTEX
10
9.15042
20
9.65932
30
6.64
0
VERTEX
10
9.14069
20
9.66905
30
6.64
0
VERTEX
10
9.11844
20
9.68156
30
6.64
0
VERTEX
10
9.11288
20
9.68295
30
6.64
0
VERTEX
10
9.10175
20
9.68991
30
6.64
0
VERTEX
10
9.09619
20
9.6913
30
6.64
0
VERTEX
10
9.09341
20
9.69408
30
6.64
0
VERTEX
10
9.07116
20
9.70103
30
6.64
0
VERTEX
10
9.02667
20
9.70103
30
6.64
0
VERTEX
10
9.00442
20
9.70103
30
6.64
0
VERTEX
10
8.98218
20
9.69408
30
6.64
0
VERTEX
10
8.97662
20
9.69408
30
6.64
0
VERTEX
10
8.96688
20
9.68991
30
6.64
0
VERTEX
10
8.96132
20
9.68852
30
6.64
0
VERTEX
10
8.95715
20
9.68434
30
6.64
0
VERTEX
10
8.94603
20
9.68017
30
6.64
0
VERTEX
10
8.93907
20
9.67044
30
6.64
0
VERTEX
10
8.92795
20
9.66488
30
6.64
0
VERTEX
10
8.90987
20
9.64541
30
6.64
0
VERTEX
10
8.90848
20
9.63429
30
6.64
0
VERTEX
10
8.90848
20
9.62873
30
6.64
0
VERTEX
10
8.90848
20
9.62595
30
6.64
0
SEQEND
0
POLYLINE
62
236
66
1
70
1
3
postsynaptic_density
0
VERTEX
10
10.4789
20
9.5663
30
6.64
0
VERTEX
10
10.5069
20
9.44686
30
6.64
0
VERTEX
10
10.5143
20
9.417
30
6.64
0
VERTEX
10
10.5162
20
9.41327
30
6.64
0
VERTEX
10
10.5143
20
9.39834
30
6.64
0
VERTEX
10
10.5162
20
9.39087
30
6.64
0
VERTEX
10
10.5162
20
9.38714
30
6.64
0
VERTEX
10
10.5237
20
9.38154
30
6.64
0
VERTEX
10
10.5274
20
9.37781
30
6.64
0
VERTEX
10
10.5871
20
9.37967
30
6.64
0
VERTEX
10
10.5946
20
9.38527
30
6.64
0
VERTEX
10
10.5983
20
9.38901
30
6.64
0
VERTEX
10
10.6021
20
9.38901
30
6.64
0
VERTEX
10
10.6058
20
9.40394
30
6.64
0
VERTEX
10
10.6133
20
9.41886
30
6.64
0
VERTEX
10
10.6226
20
9.47858
30
6.64
0
VERTEX
10
10.6189
20
9.5383
30
6.64
0
VERTEX
10
10.6189
20
9.55323
30
6.64
0
VERTEX
10
10.6151
20
9.56816
30
6.64
0
VERTEX
10
10.6021
20
9.58309
30
6.64
0
VERTEX
10
10.5946
20
9.59056
30
6.64
0
VERTEX
10
10.5871
20
9.59242
30
6.64
0
VERTEX
10
10.5834
20
9.59616
30
6.64
0
VERTEX
10
10.5237
20
9.59429
30
6.64
0
VERTEX
10
10.5162
20
9.59429
30
6.64
0
VERTEX
10
10.5031
20
9.58309
30
6.64
0
VERTEX
10
10.4994
20
9.57936
30
6.64
0
VERTEX
10
10.4919
20
9.57936
30
6.64
0
VERTEX
10
10.4789
20
9.57003
30
6.64
0
VERTEX
10
10.4789
20
9.56816
30
6.64
0
SEQEND
0
POLYLINE
62
236
66
1
70
1
3
postsynaptic_density
0
VERTEX
10
8.21701
20
9.16879
30
6.64
0
VERTEX
10
8.22261
20
9.16133
30
6.64
0
VERTEX
10
8.22448
20
9.15386
30
6.64
0
VERTEX
10
8.22261
20
9.13893
30
6.64
0
VERTEX
10
8.22821
20
9.07921
30
6.64
0
VERTEX
10
8.23008
20
9.06428
30
6.64
0
VERTEX
10
8.23567
20
9.05682
30
6.64
0
VERTEX
10
8.23567
20
9.04189
30
6.64
0
VERTEX
10
8.23941
20
9.02696
30
6.64
0
VERTEX
10
8.24314
20
9.02509
30
6.64
0
VERTEX
10
8.24314
20
9.01763
30
6.64
0
VERTEX
10
8.25247
20
9.0027
30
6.64
0
VERTEX
10
8.2562
20
8.99523
30
6.64
0
VERTEX
10
8.26927
20
8.98217
30
6.64
0
VERTEX
10
8.2842
20
8.97284
30
6.64
0
VERTEX
10
8.29913
20
8.9747
30
6.64
0
VERTEX
10
8.32899
20
8.98777
30
6.64
0
VERTEX
10
8.34018
20
9.0027
30
6.64
0
VERTEX
10
8.34392
20
9.01763
30
6.64
0
VERTEX
10
8.34392
20
9.03256
30
6.64
0
VERTEX
10
8.33645
20
9.04749
30
6.64
0
VERTEX
10
8.33459
20
9.05495
30
6.64
0
VERTEX
10
8.33459
20
9.05868
30
6.64
0
VERTEX
10
8.33085
20
9.06055
30
6.64
0
VERTEX
10
8.33272
20
9.09041
30
6.64
0
VERTEX
10
8.33459
20
9.10534
30
6.64
0
VERTEX
10
8.32899
20
9.1352
30
6.64
0
VERTEX
10
8.32899
20
9.13893
30
6.64
0
VERTEX
10
8.32525
20
9.14266
30
6.64
0
VERTEX
10
8.32339
20
9.15013
30
6.64
0
VERTEX
10
8.31219
20
9.16319
30
6.64
0
VERTEX
10
8.29726
20
9.17252
30
6.64
0
VERTEX
10
8.2674
20
9.17439
30
6.64
0
VERTEX
10
8.25247
20
9.17066
30
6.64
0
VERTEX
10
8.22261
20
9.17066
30
6.64
0
VERTEX
10
8.21888
20
9.17252
30
6.64
0
VERTEX
10
8.21701
20
9.17066
30
6.64
0
SEQEND
0
POLYLINE
62
227
66
1
70
1
3
endoplasmic_reticulum
0
VERTEX
10
8.9027
20
9.86201
30
6.64
0
VERTEX
10
8.9036
20
9.85842
30
6.64
0
VERTEX
10
8.90629
20
9.85483
30
6.64
0
VERTEX
10
8.90629
20
9.85125
30
6.64
0
VERTEX
10
8.91705
20
9.8378
30
6.64
0
VERTEX
10
8.92153
20
9.83152
30
6.64
0
VERTEX
10
8.92781
20
9.82615
30
6.64
0
VERTEX
10
8.93139
20
9.82256
30
6.64
0
VERTEX
10
8.94574
20
9.81718
30
6.64
0
VERTEX
10
8.96008
20
9.81449
30
6.64
0
VERTEX
10
8.96367
20
9.81449
30
6.64
0
VERTEX
10
8.97084
20
9.8118
30
6.64
0
VERTEX
10
8.97801
20
9.8109
30
6.64
0
VERTEX
10
8.9816
20
9.8109
30
6.64
0
VERTEX
10
8.98519
20
9.80911
30
6.64
0
VERTEX
10
9.01387
20
9.80732
30
6.64
0
VERTEX
10
9.01746
20
9.80732
30
6.64
0
VERTEX
10
9.01925
20
9.80732
30
6.64
0
VERTEX
10
9.02284
20
9.80463
30
6.64
0
VERTEX
10
9.02374
20
9.80104
30
6.64
0
VERTEX
10
9.02643
20
9.79835
30
6.64
0
VERTEX
10
9.02732
20
9.79477
30
6.64
0
VERTEX
10
9.02643
20
9.78759
30
6.64
0
VERTEX
10
9.02643
20
9.78401
30
6.64
0
VERTEX
10
9.03001
20
9.78221
30
6.64
0
VERTEX
10
9.03181
20
9.77952
30
6.64
0
VERTEX
10
9.03539
20
9.77684
30
6.64
0
VERTEX
10
9.03629
20
9.77504
30
6.64
0
VERTEX
10
9.05063
20
9.77594
30
6.64
0
VERTEX
10
9.05781
20
9.77773
30
6.64
0
VERTEX
10
9.0596
20
9.77952
30
6.64
0
VERTEX
10
9.06139
20
9.77952
30
6.64
0
VERTEX
10
9.06318
20
9.78132
30
6.64
0
VERTEX
10
9.06677
20
9.78221
30
6.64
0
VERTEX
10
9.06946
20
9.7849
30
6.64
0
VERTEX
10
9.07036
20
9.78849
30
6.64
0
VERTEX
10
9.07484
20
9.79566
30
6.64
0
VERTEX
10
9.07663
20
9.79925
30
6.64
0
VERTEX
10
9.07932
20
9.81359
30
6.64
0
VERTEX
10
9.07932
20
9.82794
30
6.64
0
VERTEX
10
9.07574
20
9.83511
30
6.64
0
VERTEX
10
9.07394
20
9.8387
30
6.64
0
VERTEX
10
9.0596
20
9.84497
30
6.64
0
VERTEX
10
9.05781
20
9.84497
30
6.64
0
VERTEX
10
9.05691
20
9.84677
30
6.64
0
VERTEX
10
9.05332
20
9.84677
30
6.64
0
VERTEX
10
9.05153
20
9.84677
30
6.64
0
VERTEX
10
9.04794
20
9.84946
30
6.64
0
VERTEX
10
9.04077
20
9.85125
30
6.64
0
VERTEX
10
9.02643
20
9.85215
30
6.64
0
VERTEX
10
9.02284
20
9.85215
30
6.64
0
VERTEX
10
9.02105
20
9.85215
30
6.64
0
VERTEX
10
9.01836
20
9.85483
30
6.64
0
VERTEX
10
9.00401
20
9.85573
30
6.64
0
VERTEX
10
8.99684
20
9.85483
30
6.64
0
VERTEX
10
8.98967
20
9.85663
30
6.64
0
VERTEX
10
8.98608
20
9.85663
30
6.64
0
VERTEX
10
8.97353
20
9.8647
30
6.64
0
VERTEX
10
8.96725
20
9.86918
30
6.64
0
VERTEX
10
8.96456
20
9.87635
30
6.64
0
VERTEX
10
8.96008
20
9.88352
30
6.64
0
VERTEX
10
8.94753
20
9.89339
30
6.64
0
VERTEX
10
8.93319
20
9.89697
30
6.64
0
VERTEX
10
8.92601
20
9.89787
30
6.64
0
VERTEX
10
8.91884
20
9.89697
30
6.64
0
VERTEX
10
8.91525
20
9.89608
30
6.64
0
VERTEX
10
8.90808
20
9.8907
30
6.64
0
VERTEX
10
8.9036
20
9.88442
30
6.64
0
VERTEX
10
8.9045
20
9.87725
30
6.64
0
VERTEX
10
8.9027
20
9.8629
30
6.64
0
SEQEND
0
POLYLINE
62
227
66
1
70
1
3
endoplasmic_reticulum
0
VERTEX
10
9.02912
20
9.73559
30
6.64
0
VERTEX
10
9.0327
20
9.7329
30
6.64
0
VERTEX
10
9.04705
20
9.73021
30
6.64
0
VERTEX
10
9.05422
20
9.72753
30
6.64
0
VERTEX
10
9.06139
20
9.72663
30
6.64
0
VERTEX
10
9.06498
20
9.72663
30
6.64
0
VERTEX
10
9.06677
20
9.72663
30
6.64
0
VERTEX
10
9.07036
20
9.72394
30
6.64
0
VERTEX
10
9.0847
20
9.72304
30
6.64
0
VERTEX
10
9.08649
20
9.72125
30
6.64
0
VERTEX
10
9.09008
20
9.72125
30
6.64
0
VERTEX
10
9.09187
20
9.72125
30
6.64
0
VERTEX
10
9.09456
20
9.71766
30
6.64
0
VERTEX
10
9.10891
20
9.71677
30
6.64
0
VERTEX
10
9.11608
20
9.71677
30
6.64
0
VERTEX
10
9.12325
20
9.72035
30
6.64
0
VERTEX
10
9.12594
20
9.72304
30
6.64
0
VERTEX
10
9.12684
20
9.73021
30
6.64
0
VERTEX
10
9.12594
20
9.73739
30
6.64
0
VERTEX
10
9.11967
20
9.74187
30
6.64
0
VERTEX
10
9.11608
20
9.74456
30
6.64
0
VERTEX
10
9.10891
20
9.74546
30
6.64
0
VERTEX
10
9.09456
20
9.75263
30
6.64
0
VERTEX
10
9.09098
20
9.75532
30
6.64
0
VERTEX
10
9.0847
20
9.75801
30
6.64
0
VERTEX
10
9.08112
20
9.7598
30
6.64
0
VERTEX
10
9.06677
20
9.76159
30
6.64
0
VERTEX
10
9.06318
20
9.76159
30
6.64
0
VERTEX
10
9.0596
20
9.7598
30
6.64
0
VERTEX
10
9.04525
20
9.7589
30
6.64
0
VERTEX
10
9.03808
20
9.7589
30
6.64
0
VERTEX
10
9.0345
20
9.7589
30
6.64
0
VERTEX
10
9.03091
20
9.75621
30
6.64
0
VERTEX
10
9.02912
20
9.75263
30
6.64
0
VERTEX
10
9.02912
20
9.73828
30
6.64
0
VERTEX
10
9.02912
20
9.73649
30
6.64
0
SEQEND
0
POLYLINE
62
227
66
1
70
1
3
endoplasmic_reticulum
0
VERTEX
10
9.14567
20
9.69256
30
6.64
0
VERTEX
10
9.15822
20
9.67822
30
6.64
0
VERTEX
10
9.17167
20
9.66835
30
6.64
0
VERTEX
10
9.17794
20
9.66297
30
6.64
0
VERTEX
10
9.17884
20
9.66118
30
6.64
0
VERTEX
10
9.18063
20
9.66118
30
6.64
0
VERTEX
10
9.18601
20
9.6558
30
6.64
0
VERTEX
10
9.1878
20
9.65401
30
6.64
0
VERTEX
10
9.19139
20
9.65311
30
6.64
0
VERTEX
10
9.19318
20
9.65311
30
6.64
0
VERTEX
10
9.19587
20
9.65042
30
6.64
0
VERTEX
10
9.20305
20
9.64953
30
6.64
0
VERTEX
10
9.21739
20
9.65132
30
6.64
0
VERTEX
10
9.21918
20
9.65132
30
6.64
0
VERTEX
10
9.22546
20
9.6558
30
6.64
0
VERTEX
10
9.22905
20
9.65759
30
6.64
0
VERTEX
10
9.23353
20
9.66477
30
6.64
0
VERTEX
10
9.23442
20
9.66835
30
6.64
0
VERTEX
10
9.23263
20
9.67553
30
6.64
0
VERTEX
10
9.23084
20
9.67911
30
6.64
0
VERTEX
10
9.22725
20
9.6818
30
6.64
0
VERTEX
10
9.22008
20
9.68359
30
6.64
0
VERTEX
10
9.21829
20
9.68539
30
6.64
0
VERTEX
10
9.21111
20
9.68718
30
6.64
0
VERTEX
10
9.20753
20
9.68987
30
6.64
0
VERTEX
10
9.20394
20
9.68987
30
6.64
0
VERTEX
10
9.20036
20
9.69166
30
6.64
0
VERTEX
10
9.19677
20
9.69166
30
6.64
0
VERTEX
10
9.19498
20
9.69166
30
6.64
0
VERTEX
10
9.19318
20
9.69346
30
6.64
0
VERTEX
10
9.1896
20
9.69435
30
6.64
0
VERTEX
10
9.18691
20
9.69704
30
6.64
0
VERTEX
10
9.18332
20
9.69794
30
6.64
0
VERTEX
10
9.17615
20
9.70332
30
6.64
0
VERTEX
10
9.17256
20
9.70511
30
6.64
0
VERTEX
10
9.16987
20
9.7087
30
6.64
0
VERTEX
10
9.1636
20
9.71049
30
6.64
0
VERTEX
10
9.14925
20
9.70153
30
6.64
0
VERTEX
10
9.14567
20
9.69884
30
6.64
0
VERTEX
10
9.14567
20
9.69525
30
6.64
0
VERTEX
10
9.14567
20
9.69346
30
6.64
0
SEQEND
0
POLYLINE
62
227
66
1
70
1
3
endoplasmic_reticulum
0
VERTEX
10
8.7727
20
9.50429
30
6.64
0
VERTEX
10
8.7745
20
9.5007
30
6.64
0
VERTEX
10
8.7745
20
9.49891
30
6.64
0
VERTEX
10
8.77719
20
9.49532
30
6.64
0
VERTEX
10
8.77719
20
9.49353
30
6.64
0
VERTEX
10
8.78077
20
9.48994
30
6.64
0
VERTEX
10
8.78167
20
9.48815
30
6.64
0
VERTEX
10
8.81036
20
9.48904
30
6.64
0
VERTEX
10
8.81753
20
9.49173
30
6.64
0
VERTEX
10
8.83188
20
9.49442
30
6.64
0
VERTEX
10
8.83546
20
9.49622
30
6.64
0
VERTEX
10
8.84263
20
9.49711
30
6.64
0
VERTEX
10
8.84981
20
9.4998
30
6.64
0
VERTEX
10
8.85339
20
9.5007
30
6.64
0
VERTEX
10
8.85519
20
9.5007
30
6.64
0
VERTEX
10
8.85698
20
9.50249
30
6.64
0
VERTEX
10
8.87132
20
9.50518
30
6.64
0
VERTEX
10
8.87491
20
9.50697
30
6.64
0
VERTEX
10
8.8785
20
9.51056
30
6.64
0
VERTEX
10
8.88298
20
9.51684
30
6.64
0
VERTEX
10
8.88298
20
9.52401
30
6.64
0
VERTEX
10
8.8767
20
9.53746
30
6.64
0
VERTEX
10
8.87222
20
9.54463
30
6.64
0
VERTEX
10
8.86863
20
9.54822
30
6.64
0
VERTEX
10
8.86684
20
9.55001
30
6.64
0
VERTEX
10
8.85967
20
9.5527
30
6.64
0
VERTEX
10
8.8525
20
9.5536
30
6.64
0
VERTEX
10
8.84532
20
9.5527
30
6.64
0
VERTEX
10
8.83815
20
9.54553
30
6.64
0
VERTEX
10
8.83457
20
9.54373
30
6.64
0
VERTEX
10
8.83277
20
9.54373
30
6.64
0
VERTEX
10
8.82739
20
9.53835
30
6.64
0
VERTEX
10
8.82022
20
9.53656
30
6.64
0
VERTEX
10
8.81663
20
9.53477
30
6.64
0
VERTEX
10
8.81484
20
9.53477
30
6.64
0
VERTEX
10
8.80767
20
9.52939
30
6.64
0
VERTEX
10
8.80408
20
9.5267
30
6.64
0
VERTEX
10
8.8005
20
9.5258
30
6.64
0
VERTEX
10
8.78705
20
9.51773
30
6.64
0
VERTEX
10
8.78346
20
9.51594
30
6.64
0
VERTEX
10
8.77629
20
9.51504
30
6.64
0
VERTEX
10
8.7736
20
9.51235
30
6.64
0
VERTEX
10
8.7727
20
9.50518
30
6.64
0
SEQEND
0
POLYLINE
62
227
66
1
70
1
3
endoplasmic_reticulum
0
VERTEX
10
9.24608
20
9.5518
30
6.64
0
VERTEX
10
9.24787
20
9.54822
30
6.64
0
VERTEX
10
9.24787
20
9.54642
30
6.64
0
VERTEX
10
9.24967
20
9.54463
30
6.64
0
VERTEX
10
9.25056
20
9.54104
30
6.64
0
VERTEX
10
9.25325
20
9.53835
30
6.64
0
VERTEX
10
9.25415
20
9.53118
30
6.64
0
VERTEX
10
9.25505
20
9.5276
30
6.64
0
VERTEX
10
9.25863
20
9.52401
30
6.64
0
VERTEX
10
9.26222
20
9.52222
30
6.64
0
VERTEX
10
9.26401
20
9.52042
30
6.64
0
VERTEX
10
9.2676
20
9.52042
30
6.64
0
VERTEX
10
9.27118
20
9.52222
30
6.64
0
VERTEX
10
9.28553
20
9.52222
30
6.64
0
VERTEX
10
9.2927
20
9.52222
30
6.64
0
VERTEX
10
9.29629
20
9.52222
30
6.64
0
VERTEX
10
9.29987
20
9.52401
30
6.64
0
VERTEX
10
9.30436
20
9.53118
30
6.64
0
VERTEX
10
9.30705
20
9.53477
30
6.64
0
VERTEX
10
9.30884
20
9.54194
30
6.64
0
VERTEX
10
9.31063
20
9.54373
30
6.64
0
VERTEX
10
9.31153
20
9.57242
30
6.64
0
VERTEX
10
9.31063
20
9.57601
30
6.64
0
VERTEX
10
9.30525
20
9.58139
30
6.64
0
VERTEX
10
9.30167
20
9.58408
30
6.64
0
VERTEX
10
9.29808
20
9.58497
30
6.64
0
VERTEX
10
9.2918
20
9.59215
30
6.64
0
VERTEX
10
9.29001
20
9.59215
30
6.64
0
VERTEX
10
9.28732
20
9.59573
30
6.64
0
VERTEX
10
9.27298
20
9.59304
30
6.64
0
VERTEX
10
9.2658
20
9.59035
30
6.64
0
VERTEX
10
9.26222
20
9.58766
30
6.64
0
VERTEX
10
9.26222
20
9.58408
30
6.64
0
VERTEX
10
9.25774
20
9.5778
30
6.64
0
VERTEX
10
9.25594
20
9.57601
30
6.64
0
VERTEX
10
9.25415
20
9.56884
30
6.64
0
VERTEX
10
9.25236
20
9.56525
30
6.64
0
VERTEX
10
9.25056
20
9.56435
30
6.64
0
VERTEX
10
9.25056
20
9.56256
30
6.64
0
VERTEX
10
9.24877
20
9.56077
30
6.64
0
VERTEX
10
9.24877
20
9.55897
30
6.64
0
VERTEX
10
9.24608
20
9.55628
30
6.64
0
VERTEX
10
9.24608
20
9.5527
30
6.64
0
SEQEND
0
POLYLINE
62
31
66
1
70
1
3
contour
0
VERTEX
10
8.69004
20
9.4983
30
6.64
0
VERTEX
10
8.69506
20
9.49328
30
6.64
0
VERTEX
10
8.69841
20
9.47989
30
6.64
0
VERTEX
10
8.7051
20
9.46651
30
6.64
0
VERTEX
10
8.71514
20
9.45312
30
6.64
0
VERTEX
10
8.74192
20
9.45479
30
6.64
0
VERTEX
10
8.76869
20
9.46316
30
6.64
0
VERTEX
10
8.78208
20
9.46818
30
6.64
0
VERTEX
10
8.79379
20
9.47655
30
6.64
0
VERTEX
10
8.80049
20
9.47655
30
6.64
0
VERTEX
10
8.80718
20
9.47989
30
6.64
0
VERTEX
10
8.83396
20
9.47989
30
6.64
0
VERTEX
10
8.86073
20
9.47487
30
6.64
0
VERTEX
10
8.87412
20
9.46818
30
6.64
0
VERTEX
10
8.88751
20
9.46651
30
6.64
0
VERTEX
10
8.8942
20
9.46316
30
6.64
0
VERTEX
10
8.92097
20
9.46149
30
6.64
0
VERTEX
10
8.93436
20
9.46149
30
6.64
0
VERTEX
10
8.96114
20
9.45145
30
6.64
0
VERTEX
10
8.98791
20
9.44643
30
6.64
0
VERTEX
10
9.0013
20
9.44141
30
6.64
0
VERTEX
10
9.05485
20
9.44308
30
6.64
0
VERTEX
10
9.08162
20
9.44643
30
6.64
0
VERTEX
10
9.13517
20
9.44475
30
6.64
0
VERTEX
10
9.14856
20
9.44475
30
6.64
0
VERTEX
10
9.15525
20
9.44475
30
6.64
0
VERTEX
10
9.16195
20
9.44141
30
6.64
0
VERTEX
10
9.26904
20
9.44308
30
6.64
0
VERTEX
10
9.32259
20
9.4481
30
6.64
0
VERTEX
10
9.32929
20
9.44977
30
6.64
0
VERTEX
10
9.33263
20
9.44977
30
6.64
0
VERTEX
10
9.33933
20
9.45479
30
6.64
0
VERTEX
10
9.35272
20
9.45814
30
6.64
0
VERTEX
10
9.35941
20
9.45981
30
6.64
0
VERTEX
10
9.3661
20
9.4732
30
6.64
0
VERTEX
10
9.36945
20
9.48659
30
6.64
0
VERTEX
10
9.37614
20
9.4983
30
6.64
0
VERTEX
10
9.37614
20
9.50165
30
6.64
0
VERTEX
10
9.38116
20
9.50834
30
6.64
0
VERTEX
10
9.38953
20
9.53512
30
6.64
0
VERTEX
10
9.3912
20
9.54181
30
6.64
0
VERTEX
10
9.3912
20
9.54516
30
6.64
0
VERTEX
10
9.39622
20
9.55018
30
6.64
0
VERTEX
10
9.3979
20
9.55687
30
6.64
0
VERTEX
10
9.40124
20
9.56022
30
6.64
0
VERTEX
10
9.40459
20
9.57361
30
6.64
0
VERTEX
10
9.41798
20
9.60038
30
6.64
0
VERTEX
10
9.42467
20
9.61377
30
6.64
0
VERTEX
10
9.43471
20
9.62381
30
6.64
0
VERTEX
10
9.43806
20
9.62548
30
6.64
0
VERTEX
10
9.43973
20
9.63218
30
6.64
0
VERTEX
10
9.45981
20
9.6556
30
6.64
0
VERTEX
10
9.45981
20
9.65895
30
6.64
0
VERTEX
10
9.4732
20
9.65895
30
6.64
0
VERTEX
10
9.47655
20
9.65895
30
6.64
0
VERTEX
10
9.47822
20
9.6623
30
6.64
0
VERTEX
10
9.47153
20
9.66397
30
6.64
0
VERTEX
10
9.46818
20
9.66397
30
6.64
0
VERTEX
10
9.46818
20
9.67736
30
6.64
0
VERTEX
10
9.46316
20
9.69074
30
6.64
0
VERTEX
10
9.45479
20
9.69911
30
6.64
0
VERTEX
10
9.45145
20
9.69911
30
6.64
0
VERTEX
10
9.40292
20
9.73425
30
6.64
0
VERTEX
10
9.39622
20
9.7376
30
6.64
0
VERTEX
10
9.38786
20
9.74764
30
6.64
0
VERTEX
10
9.38618
20
9.75099
30
6.64
0
VERTEX
10
9.38284
20
9.75099
30
6.64
0
VERTEX
10
9.37949
20
9.77776
30
6.64
0
VERTEX
10
9.37949
20
9.78446
30
6.64
0
VERTEX
10
9.37614
20
9.79115
30
6.64
0
VERTEX
10
9.37614
20
9.89825
30
6.64
0
VERTEX
10
9.3728
20
9.92502
30
6.64
0
VERTEX
10
9.36778
20
9.93172
30
6.64
0
VERTEX
10
9.3661
20
9.93841
30
6.64
0
VERTEX
10
9.35941
20
9.9451
30
6.64
0
VERTEX
10
9.35941
20
9.9518
30
6.64
0
VERTEX
10
9.33933
20
9.97857
30
6.64
0
VERTEX
10
9.3159
20
10.0037
30
6.64
0
VERTEX
10
9.30753
20
10.0171
30
6.64
0
VERTEX
10
9.30084
20
10.0187
30
6.64
0
VERTEX
10
9.29749
20
10.0254
30
6.64
0
VERTEX
10
9.2908
20
10.0271
30
6.64
0
VERTEX
10
9.27741
20
10.0371
30
6.64
0
VERTEX
10
9.25231
20
10.0505
30
6.64
0
VERTEX
10
9.22721
20
10.0589
30
6.64
0
VERTEX
10
9.2155
20
10.0689
30
6.64
0
VERTEX
10
9.20211
20
10.074
30
6.64
0
VERTEX
10
9.19541
20
10.0756
30
6.64
0
VERTEX
10
9.19207
20
10.0823
30
6.64
0
VERTEX
10
9.18537
20
10.0873
30
6.64
0
VERTEX
10
9.18203
20
10.0873
30
6.64
0
VERTEX
10
9.17701
20
10.094
30
6.64
0
VERTEX
10
9.17031
20
10.094
30
6.64
0
VERTEX
10
9.1586
20
10.1074
30
6.64
0
VERTEX
10
9.15191
20
10.1108
30
6.64
0
VERTEX
10
9.14856
20
10.1175
30
6.64
0
VERTEX
10
9.12178
20
10.1359
30
6.64
0
VERTEX
10
9.10003
20
10.1576
30
6.64
0
VERTEX
10
9.08832
20
10.1693
30
6.64
0
VERTEX
10
9.08497
20
10.1744
30
6.64
0
VERTEX
10
9.07158
20
10.1844
30
6.64
0
VERTEX
10
9.06991
20
10.1911
30
6.64
0
VERTEX
10
9.05819
20
10.2028
30
6.64
0
VERTEX
10
9.05317
20
10.2095
30
6.64
0
VERTEX
10
9.04648
20
10.2112
30
6.64
0
VERTEX
10
9.04481
20
10.2095
30
6.64
0
VERTEX
10
9.02305
20
10.2296
30
6.64
0
VERTEX
10
9.01301
20
10.2413
30
6.64
0
VERTEX
10
9.00632
20
10.2463
30
6.64
0
VERTEX
10
8.99293
20
10.2463
30
6.64
0
VERTEX
10
8.98624
20
10.2446
30
6.64
0
VERTEX
10
8.98289
20
10.243
30
6.64
0
VERTEX
10
8.98289
20
10.2396
30
6.64
0
VERTEX
10
8.97787
20
10.2329
30
6.64
0
VERTEX
10
8.97452
20
10.2195
30
6.64
0
VERTEX
10
8.9695
20
10.2129
30
6.64
0
VERTEX
10
8.9695
20
10.2095
30
6.64
0
VERTEX
10
8.96114
20
10.1978
30
6.64
0
VERTEX
10
8.95779
20
10.1911
30
6.64
0
VERTEX
10
8.95277
20
10.1894
30
6.64
0
VERTEX
10
8.94608
20
10.1844
30
6.64
0
VERTEX
10
8.94273
20
10.1777
30
6.64
0
VERTEX
10
8.94106
20
10.1643
30
6.64
0
VERTEX
10
8.94106
20
10.1576
30
6.64
0
VERTEX
10
8.93436
20
10.1442
30
6.64
0
VERTEX
10
8.93436
20
10.1375
30
6.64
0
VERTEX
10
8.93436
20
10.1342
30
6.64
0
VERTEX
10
8.93101
20
10.1309
30
6.64
0
VERTEX
10
8.92599
20
10.1041
30
6.64
0
VERTEX
10
8.92599
20
10.0907
30
6.64
0
VERTEX
10
8.92599
20
10.0873
30
6.64
0
VERTEX
10
8.92265
20
10.084
30
6.64
0
VERTEX
10
8.9193
20
10.0706
30
6.64
0
VERTEX
10
8.91595
20
10.0706
30
6.64
0
VERTEX
10
8.91261
20
10.0438
30
6.64
0
VERTEX
10
8.91763
20
9.99029
30
6.64
0
VERTEX
10
8.91763
20
9.9769
30
6.64
0
VERTEX
10
8.91428
20
9.96351
30
6.64
0
VERTEX
10
8.91093
20
9.95682
30
6.64
0
VERTEX
10
8.90759
20
9.93004
30
6.64
0
VERTEX
10
8.90591
20
9.91666
30
6.64
0
VERTEX
10
8.8942
20
9.88988
30
6.64
0
VERTEX
10
8.89253
20
9.87649
30
6.64
0
VERTEX
10
8.88751
20
9.87315
30
6.64
0
VERTEX
10
8.88583
20
9.86645
30
6.64
0
VERTEX
10
8.87412
20
9.85474
30
6.64
0
VERTEX
10
8.8691
20
9.84972
30
6.64
0
VERTEX
10
8.86742
20
9.84637
30
6.64
0
VERTEX
10
8.86408
20
9.84637
30
6.64
0
VERTEX
10
8.85906
20
9.83968
30
6.64
0
VERTEX
10
8.85236
20
9.83801
30
6.64
0
VERTEX
10
8.84734
20
9.83299
30
6.64
0
VERTEX
10
8.84734
20
9.80621
30
6.64
0
VERTEX
10
8.84567
20
9.79952
30
6.64
0
VERTEX
10
8.84567
20
9.79617
30
6.64
0
VERTEX
10
8.84232
20
9.79282
30
6.64
0
VERTEX
10
8.84232
20
9.78948
30
6.64
0
VERTEX
10
8.83898
20
9.78613
30
6.64
0
VERTEX
10
8.8373
20
9.77944
30
6.64
0
VERTEX
10
8.8373
20
9.77609
30
6.64
0
VERTEX
10
8.81555
20
9.75099
30
6.64
0
VERTEX
10
8.80718
20
9.7376
30
6.64
0
VERTEX
10
8.80551
20
9.72421
30
6.64
0
VERTEX
10
8.80718
20
9.67066
30
6.64
0
VERTEX
10
8.80216
20
9.64389
30
6.64
0
VERTEX
10
8.79714
20
9.6305
30
6.64
0
VERTEX
10
8.79547
20
9.61711
30
6.64
0
VERTEX
10
8.77706
20
9.59034
30
6.64
0
VERTEX
10
8.76535
20
9.58197
30
6.64
0
VERTEX
10
8.74694
20
9.55687
30
6.64
0
VERTEX
10
8.74359
20
9.5552
30
6.64
0
VERTEX
10
8.74359
20
9.5485
30
6.64
0
VERTEX
10
8.73188
20
9.53679
30
6.64
0
VERTEX
10
8.72853
20
9.5301
30
6.64
0
VERTEX
10
8.71682
20
9.52173
30
6.64
0
VERTEX
10
8.71012
20
9.52173
30
6.64
0
VERTEX
10
8.69674
20
9.51504
30
6.64
0
VERTEX
10
8.69172
20
9.51002
30
6.64
0
VERTEX
10
8.69004
20
9.50332
30
6.64
0
VERTEX
10
8.69004
20
9.49998
30
6.64
0
SEQEND
0
ENDSEC
0
EOF
