0
SECTION
2
ENTITIES
0
POLYLINE
62
31
66
1
70
1
3
contour
0
VERTEX
10
7.16981
20
10.7416
30
9.4
0
VERTEX
10
7.17969
20
10.7317
30
9.4
0
VERTEX
10
7.17969
20
10.6263
30
9.4
0
VERTEX
10
7.18957
20
10.6
30
9.4
0
VERTEX
10
7.18957
20
10.5473
30
9.4
0
VERTEX
10
7.19615
20
10.521
30
9.4
0
VERTEX
10
7.23236
20
10.4716
30
9.4
0
VERTEX
10
7.27516
20
10.4255
30
9.4
0
VERTEX
10
7.32453
20
10.386
30
9.4
0
VERTEX
10
7.37391
20
10.3531
30
9.4
0
VERTEX
10
7.39696
20
10.3334
30
9.4
0
VERTEX
10
7.41342
20
10.3169
30
9.4
0
VERTEX
10
7.42
20
10.3169
30
9.4
0
VERTEX
10
7.44634
20
10.2971
30
9.4
0
VERTEX
10
7.4595
20
10.2971
30
9.4
0
VERTEX
10
7.47267
20
10.3037
30
9.4
0
VERTEX
10
7.49901
20
10.307
30
9.4
0
VERTEX
10
7.51217
20
10.3103
30
9.4
0
VERTEX
10
7.52534
20
10.3202
30
9.4
0
VERTEX
10
7.53851
20
10.3202
30
9.4
0
VERTEX
10
7.54509
20
10.3202
30
9.4
0
VERTEX
10
7.55497
20
10.3301
30
9.4
0
VERTEX
10
7.5813
20
10.3334
30
9.4
0
VERTEX
10
7.59447
20
10.3301
30
9.4
0
VERTEX
10
7.60764
20
10.3202
30
9.4
0
VERTEX
10
7.63398
20
10.3136
30
9.4
0
VERTEX
10
7.66031
20
10.2971
30
9.4
0
VERTEX
10
7.69323
20
10.2478
30
9.4
0
VERTEX
10
7.70969
20
10.2247
30
9.4
0
VERTEX
10
7.71627
20
10.2181
30
9.4
0
VERTEX
10
7.76894
20
10.228
30
9.4
0
VERTEX
10
7.79528
20
10.2379
30
9.4
0
VERTEX
10
7.80845
20
10.2412
30
9.4
0
VERTEX
10
7.81503
20
10.2478
30
9.4
0
VERTEX
10
7.82162
20
10.2478
30
9.4
0
VERTEX
10
7.8282
20
10.2543
30
9.4
0
VERTEX
10
7.85453
20
10.2543
30
9.4
0
VERTEX
10
7.90391
20
10.2906
30
9.4
0
VERTEX
10
7.91708
20
10.2971
30
9.4
0
VERTEX
10
7.92366
20
10.3235
30
9.4
0
VERTEX
10
7.92696
20
10.3366
30
9.4
0
VERTEX
10
7.93683
20
10.3498
30
9.4
0
VERTEX
10
7.94671
20
10.3761
30
9.4
0
VERTEX
10
7.95
20
10.4288
30
9.4
0
VERTEX
10
7.94671
20
10.5342
30
9.4
0
VERTEX
10
7.94671
20
10.5868
30
9.4
0
VERTEX
10
7.95329
20
10.6395
30
9.4
0
VERTEX
10
7.94012
20
10.6922
30
9.4
0
VERTEX
10
7.92696
20
10.7185
30
9.4
0
VERTEX
10
7.92696
20
10.7317
30
9.4
0
VERTEX
10
7.92696
20
10.7383
30
9.4
0
VERTEX
10
7.91379
20
10.7514
30
9.4
0
VERTEX
10
7.90391
20
10.758
30
9.4
0
VERTEX
10
7.88087
20
10.7843
30
9.4
0
VERTEX
10
7.87429
20
10.7876
30
9.4
0
VERTEX
10
7.87429
20
10.7942
30
9.4
0
VERTEX
10
7.84795
20
10.8107
30
9.4
0
VERTEX
10
7.84466
20
10.8173
30
9.4
0
VERTEX
10
7.83807
20
10.8173
30
9.4
0
VERTEX
10
7.8282
20
10.8271
30
9.4
0
VERTEX
10
7.81503
20
10.8304
30
9.4
0
VERTEX
10
7.76565
20
10.8666
30
9.4
0
VERTEX
10
7.74261
20
10.8831
30
9.4
0
VERTEX
10
7.71627
20
10.893
30
9.4
0
VERTEX
10
7.6636
20
10.8996
30
9.4
0
VERTEX
10
7.61093
20
10.8963
30
9.4
0
VERTEX
10
7.55826
20
10.8831
30
9.4
0
VERTEX
10
7.55168
20
10.8798
30
9.4
0
VERTEX
10
7.55168
20
10.8732
30
9.4
0
VERTEX
10
7.52534
20
10.8666
30
9.4
0
VERTEX
10
7.51217
20
10.8634
30
9.4
0
VERTEX
10
7.50559
20
10.8568
30
9.4
0
VERTEX
10
7.45292
20
10.8403
30
9.4
0
VERTEX
10
7.40025
20
10.8173
30
9.4
0
VERTEX
10
7.38708
20
10.814
30
9.4
0
VERTEX
10
7.37721
20
10.8008
30
9.4
0
VERTEX
10
7.36404
20
10.7975
30
9.4
0
VERTEX
10
7.31137
20
10.7679
30
9.4
0
VERTEX
10
7.2982
20
10.758
30
9.4
0
VERTEX
10
7.27186
20
10.7547
30
9.4
0
VERTEX
10
7.24553
20
10.7448
30
9.4
0
VERTEX
10
7.19286
20
10.7416
30
9.4
0
VERTEX
10
7.19944
20
10.7646
30
9.4
0
VERTEX
10
7.19615
20
10.7679
30
9.4
0
VERTEX
10
7.17311
20
10.7448
30
9.4
0
SEQEND
0
POLYLINE
62
224
66
1
70
1
3
mitochondrion
0
VERTEX
10
7.44297
20
10.6034
30
9.4
0
VERTEX
10
7.45131
20
10.5812
30
9.4
0
VERTEX
10
7.45549
20
10.57
30
9.4
0
VERTEX
10
7.45549
20
10.5645
30
9.4
0
VERTEX
10
7.45827
20
10.5617
30
9.4
0
VERTEX
10
7.45827
20
10.5589
30
9.4
0
VERTEX
10
7.46383
20
10.5534
30
9.4
0
VERTEX
10
7.46383
20
10.5478
30
9.4
0
VERTEX
10
7.46383
20
10.545
30
9.4
0
VERTEX
10
7.47217
20
10.5339
30
9.4
0
VERTEX
10
7.47217
20
10.5311
30
9.4
0
VERTEX
10
7.4819
20
10.52
30
9.4
0
VERTEX
10
7.48468
20
10.5158
30
9.4
0
VERTEX
10
7.49025
20
10.5117
30
9.4
0
VERTEX
10
7.49303
20
10.5117
30
9.4
0
VERTEX
10
7.49998
20
10.5019
30
9.4
0
VERTEX
10
7.50415
20
10.4977
30
9.4
0
VERTEX
10
7.50415
20
10.495
30
9.4
0
VERTEX
10
7.51527
20
10.4852
30
9.4
0
VERTEX
10
7.55977
20
10.4672
30
9.4
0
VERTEX
10
7.58201
20
10.4658
30
9.4
0
VERTEX
10
7.59314
20
10.4658
30
9.4
0
VERTEX
10
7.60426
20
10.4685
30
9.4
0
VERTEX
10
7.62651
20
10.4699
30
9.4
0
VERTEX
10
7.63763
20
10.4741
30
9.4
0
VERTEX
10
7.64319
20
10.4741
30
9.4
0
VERTEX
10
7.66544
20
10.4852
30
9.4
0
VERTEX
10
7.67656
20
10.4894
30
9.4
0
VERTEX
10
7.6863
20
10.4964
30
9.4
0
VERTEX
10
7.70159
20
10.5144
30
9.4
0
VERTEX
10
7.71132
20
10.5242
30
9.4
0
VERTEX
10
7.72106
20
10.5464
30
9.4
0
VERTEX
10
7.72662
20
10.5575
30
9.4
0
VERTEX
10
7.72801
20
10.5631
30
9.4
0
VERTEX
10
7.73218
20
10.5687
30
9.4
0
VERTEX
10
7.73635
20
10.5798
30
9.4
0
VERTEX
10
7.73496
20
10.6243
30
9.4
0
VERTEX
10
7.73218
20
10.6465
30
9.4
0
VERTEX
10
7.72523
20
10.6688
30
9.4
0
VERTEX
10
7.72384
20
10.6743
30
9.4
0
VERTEX
10
7.72106
20
10.6771
30
9.4
0
VERTEX
10
7.72106
20
10.6799
30
9.4
0
VERTEX
10
7.7155
20
10.6855
30
9.4
0
VERTEX
10
7.7155
20
10.6882
30
9.4
0
VERTEX
10
7.69603
20
10.7077
30
9.4
0
VERTEX
10
7.6863
20
10.7147
30
9.4
0
VERTEX
10
7.67517
20
10.7188
30
9.4
0
VERTEX
10
7.66544
20
10.7272
30
9.4
0
VERTEX
10
7.66266
20
10.7299
30
9.4
0
VERTEX
10
7.65154
20
10.7313
30
9.4
0
VERTEX
10
7.64597
20
10.7327
30
9.4
0
VERTEX
10
7.64319
20
10.7341
30
9.4
0
VERTEX
10
7.64319
20
10.7369
30
9.4
0
VERTEX
10
7.64041
20
10.7383
30
9.4
0
VERTEX
10
7.63763
20
10.7369
30
9.4
0
VERTEX
10
7.63485
20
10.7397
30
9.4
0
VERTEX
10
7.54586
20
10.7411
30
9.4
0
VERTEX
10
7.53474
20
10.7397
30
9.4
0
VERTEX
10
7.52918
20
10.7355
30
9.4
0
VERTEX
10
7.51805
20
10.7341
30
9.4
0
VERTEX
10
7.51527
20
10.7341
30
9.4
0
VERTEX
10
7.51249
20
10.7313
30
9.4
0
VERTEX
10
7.50693
20
10.7299
30
9.4
0
VERTEX
10
7.4972
20
10.7216
30
9.4
0
VERTEX
10
7.49581
20
10.7105
30
9.4
0
VERTEX
10
7.47912
20
10.6896
30
9.4
0
VERTEX
10
7.47912
20
10.6841
30
9.4
0
VERTEX
10
7.46939
20
10.6743
30
9.4
0
VERTEX
10
7.45688
20
10.6521
30
9.4
0
VERTEX
10
7.44992
20
10.6298
30
9.4
0
VERTEX
10
7.44575
20
10.6187
30
9.4
0
VERTEX
10
7.44297
20
10.6132
30
9.4
0
VERTEX
10
7.44297
20
10.6076
30
9.4
0
VERTEX
10
7.44297
20
10.6048
30
9.4
0
SEQEND
0
POLYLINE
62
227
66
1
70
1
3
endoplasmic_reticulum
0
VERTEX
10
7.69685
20
10.2807
30
9.4
0
VERTEX
10
7.70223
20
10.2663
30
9.4
0
VERTEX
10
7.70402
20
10.2655
30
9.4
0
VERTEX
10
7.70402
20
10.2619
30
9.4
0
VERTEX
10
7.70402
20
10.2601
30
9.4
0
VERTEX
10
7.71747
20
10.2511
30
9.4
0
VERTEX
10
7.72464
20
10.2484
30
9.4
0
VERTEX
10
7.72823
20
10.2457
30
9.4
0
VERTEX
10
7.74257
20
10.2412
30
9.4
0
VERTEX
10
7.75692
20
10.2403
30
9.4
0
VERTEX
10
7.77126
20
10.2421
30
9.4
0
VERTEX
10
7.78112
20
10.2547
30
9.4
0
VERTEX
10
7.78561
20
10.261
30
9.4
0
VERTEX
10
7.78381
20
10.2681
30
9.4
0
VERTEX
10
7.78381
20
10.2717
30
9.4
0
VERTEX
10
7.78112
20
10.2789
30
9.4
0
VERTEX
10
7.77664
20
10.2861
30
9.4
0
VERTEX
10
7.76319
20
10.2968
30
9.4
0
VERTEX
10
7.74885
20
10.3031
30
9.4
0
VERTEX
10
7.74168
20
10.3076
30
9.4
0
VERTEX
10
7.7345
20
10.3076
30
9.4
0
VERTEX
10
7.72106
20
10.3121
30
9.4
0
VERTEX
10
7.71388
20
10.3139
30
9.4
0
VERTEX
10
7.7103
20
10.3157
30
9.4
0
VERTEX
10
7.69685
20
10.3058
30
9.4
0
VERTEX
10
7.69685
20
10.2915
30
9.4
0
VERTEX
10
7.69685
20
10.2843
30
9.4
0
VERTEX
10
7.69685
20
10.2816
30
9.4
0
SEQEND
0
POLYLINE
62
227
66
1
70
1
3
endoplasmic_reticulum
0
VERTEX
10
7.62781
20
10.3443
30
9.4
0
VERTEX
10
7.62961
20
10.3408
30
9.4
0
VERTEX
10
7.62961
20
10.339
30
9.4
0
VERTEX
10
7.63499
20
10.3318
30
9.4
0
VERTEX
10
7.63857
20
10.3291
30
9.4
0
VERTEX
10
7.64306
20
10.3219
30
9.4
0
VERTEX
10
7.64933
20
10.3166
30
9.4
0
VERTEX
10
7.67802
20
10.3103
30
9.4
0
VERTEX
10
7.69237
20
10.3103
30
9.4
0
VERTEX
10
7.69954
20
10.3103
30
9.4
0
VERTEX
10
7.70402
20
10.3175
30
9.4
0
VERTEX
10
7.70581
20
10.3318
30
9.4
0
VERTEX
10
7.70581
20
10.3461
30
9.4
0
VERTEX
10
7.70312
20
10.3533
30
9.4
0
VERTEX
10
7.69864
20
10.3605
30
9.4
0
VERTEX
10
7.69326
20
10.3659
30
9.4
0
VERTEX
10
7.69057
20
10.3695
30
9.4
0
VERTEX
10
7.6834
20
10.373
30
9.4
0
VERTEX
10
7.66906
20
10.3757
30
9.4
0
VERTEX
10
7.66547
20
10.373
30
9.4
0
VERTEX
10
7.63678
20
10.3623
30
9.4
0
VERTEX
10
7.62961
20
10.3623
30
9.4
0
VERTEX
10
7.62781
20
10.3614
30
9.4
0
VERTEX
10
7.62781
20
10.347
30
9.4
0
VERTEX
10
7.62781
20
10.3452
30
9.4
0
SEQEND
0
POLYLINE
62
227
66
1
70
1
3
endoplasmic_reticulum
0
VERTEX
10
7.38126
20
10.4412
30
9.4
0
VERTEX
10
7.38306
20
10.434
30
9.4
0
VERTEX
10
7.38306
20
10.4197
30
9.4
0
VERTEX
10
7.38485
20
10.4125
30
9.4
0
VERTEX
10
7.38664
20
10.4107
30
9.4
0
VERTEX
10
7.38664
20
10.4071
30
9.4
0
VERTEX
10
7.38664
20
10.4053
30
9.4
0
VERTEX
10
7.39292
20
10.399
30
9.4
0
VERTEX
10
7.40726
20
10.3901
30
9.4
0
VERTEX
10
7.41444
20
10.3856
30
9.4
0
VERTEX
10
7.42161
20
10.3829
30
9.4
0
VERTEX
10
7.42519
20
10.382
30
9.4
0
VERTEX
10
7.42699
20
10.3802
30
9.4
0
VERTEX
10
7.42878
20
10.3802
30
9.4
0
VERTEX
10
7.43237
20
10.3775
30
9.4
0
VERTEX
10
7.44671
20
10.3757
30
9.4
0
VERTEX
10
7.45388
20
10.3766
30
9.4
0
VERTEX
10
7.45478
20
10.3802
30
9.4
0
VERTEX
10
7.45657
20
10.382
30
9.4
0
VERTEX
10
7.45747
20
10.3856
30
9.4
0
VERTEX
10
7.45926
20
10.3874
30
9.4
0
VERTEX
10
7.46016
20
10.3946
30
9.4
0
VERTEX
10
7.46106
20
10.3981
30
9.4
0
VERTEX
10
7.46106
20
10.3999
30
9.4
0
VERTEX
10
7.46464
20
10.4035
30
9.4
0
VERTEX
10
7.47092
20
10.408
30
9.4
0
VERTEX
10
7.47809
20
10.4098
30
9.4
0
VERTEX
10
7.49244
20
10.4098
30
9.4
0
VERTEX
10
7.50678
20
10.4062
30
9.4
0
VERTEX
10
7.51395
20
10.4035
30
9.4
0
VERTEX
10
7.51754
20
10.4035
30
9.4
0
VERTEX
10
7.52113
20
10.4017
30
9.4
0
VERTEX
10
7.53547
20
10.4044
30
9.4
0
VERTEX
10
7.54175
20
10.4071
30
9.4
0
VERTEX
10
7.54713
20
10.4125
30
9.4
0
VERTEX
10
7.55161
20
10.4197
30
9.4
0
VERTEX
10
7.55161
20
10.4268
30
9.4
0
VERTEX
10
7.54802
20
10.4295
30
9.4
0
VERTEX
10
7.53368
20
10.4331
30
9.4
0
VERTEX
10
7.5265
20
10.4367
30
9.4
0
VERTEX
10
7.5265
20
10.4385
30
9.4
0
VERTEX
10
7.51933
20
10.443
30
9.4
0
VERTEX
10
7.51306
20
10.4492
30
9.4
0
VERTEX
10
7.51037
20
10.451
30
9.4
0
VERTEX
10
7.50409
20
10.4573
30
9.4
0
VERTEX
10
7.5005
20
10.4591
30
9.4
0
VERTEX
10
7.49692
20
10.4627
30
9.4
0
VERTEX
10
7.49692
20
10.4645
30
9.4
0
VERTEX
10
7.48347
20
10.4735
30
9.4
0
VERTEX
10
7.47988
20
10.4752
30
9.4
0
VERTEX
10
7.46733
20
10.4869
30
9.4
0
VERTEX
10
7.46375
20
10.4878
30
9.4
0
VERTEX
10
7.4494
20
10.4977
30
9.4
0
VERTEX
10
7.44223
20
10.4995
30
9.4
0
VERTEX
10
7.44044
20
10.4995
30
9.4
0
VERTEX
10
7.43326
20
10.4932
30
9.4
0
VERTEX
10
7.41892
20
10.4869
30
9.4
0
VERTEX
10
7.40547
20
10.4752
30
9.4
0
VERTEX
10
7.3983
20
10.4708
30
9.4
0
VERTEX
10
7.39651
20
10.4708
30
9.4
0
VERTEX
10
7.39382
20
10.4672
30
9.4
0
VERTEX
10
7.38754
20
10.4627
30
9.4
0
VERTEX
10
7.38216
20
10.4555
30
9.4
0
VERTEX
10
7.38126
20
10.4421
30
9.4
0
SEQEND
0
POLYLINE
62
227
66
1
70
1
3
endoplasmic_reticulum
0
VERTEX
10
7.30954
20
10.5909
30
9.4
0
VERTEX
10
7.31223
20
10.5766
30
9.4
0
VERTEX
10
7.31402
20
10.573
30
9.4
0
VERTEX
10
7.31402
20
10.5694
30
9.4
0
VERTEX
10
7.31582
20
10.5658
30
9.4
0
VERTEX
10
7.31582
20
10.5622
30
9.4
0
VERTEX
10
7.31851
20
10.5586
30
9.4
0
VERTEX
10
7.3194
20
10.555
30
9.4
0
VERTEX
10
7.32209
20
10.5515
30
9.4
0
VERTEX
10
7.32299
20
10.5443
30
9.4
0
VERTEX
10
7.32389
20
10.5407
30
9.4
0
VERTEX
10
7.33106
20
10.5335
30
9.4
0
VERTEX
10
7.33733
20
10.5281
30
9.4
0
VERTEX
10
7.34092
20
10.5263
30
9.4
0
VERTEX
10
7.34271
20
10.5263
30
9.4
0
VERTEX
10
7.34899
20
10.5219
30
9.4
0
VERTEX
10
7.35257
20
10.5192
30
9.4
0
VERTEX
10
7.36692
20
10.5201
30
9.4
0
VERTEX
10
7.37051
20
10.521
30
9.4
0
VERTEX
10
7.37678
20
10.5263
30
9.4
0
VERTEX
10
7.37947
20
10.5299
30
9.4
0
VERTEX
10
7.38216
20
10.5371
30
9.4
0
VERTEX
10
7.38395
20
10.5407
30
9.4
0
VERTEX
10
7.38306
20
10.5694
30
9.4
0
VERTEX
10
7.38216
20
10.5766
30
9.4
0
VERTEX
10
7.38037
20
10.5775
30
9.4
0
VERTEX
10
7.37947
20
10.5846
30
9.4
0
VERTEX
10
7.37588
20
10.5909
30
9.4
0
VERTEX
10
7.37499
20
10.5945
30
9.4
0
VERTEX
10
7.37499
20
10.5963
30
9.4
0
VERTEX
10
7.3723
20
10.5999
30
9.4
0
VERTEX
10
7.3723
20
10.6035
30
9.4
0
VERTEX
10
7.36692
20
10.6106
30
9.4
0
VERTEX
10
7.36423
20
10.6178
30
9.4
0
VERTEX
10
7.35078
20
10.6268
30
9.4
0
VERTEX
10
7.3472
20
10.6295
30
9.4
0
VERTEX
10
7.34002
20
10.6295
30
9.4
0
VERTEX
10
7.33285
20
10.6259
30
9.4
0
VERTEX
10
7.32568
20
10.625
30
9.4
0
VERTEX
10
7.32389
20
10.6232
30
9.4
0
VERTEX
10
7.32389
20
10.6214
30
9.4
0
VERTEX
10
7.31671
20
10.6169
30
9.4
0
VERTEX
10
7.31313
20
10.6133
30
9.4
0
VERTEX
10
7.31133
20
10.6124
30
9.4
0
VERTEX
10
7.31223
20
10.6088
30
9.4
0
VERTEX
10
7.30954
20
10.6017
30
9.4
0
VERTEX
10
7.30954
20
10.5945
30
9.4
0
VERTEX
10
7.30954
20
10.5918
30
9.4
0
SEQEND
0
POLYLINE
62
227
66
1
70
1
3
endoplasmic_reticulum
0
VERTEX
10
7.20464
20
10.6411
30
9.4
0
VERTEX
10
7.20644
20
10.6268
30
9.4
0
VERTEX
10
7.21271
20
10.6205
30
9.4
0
VERTEX
10
7.21451
20
10.6169
30
9.4
0
VERTEX
10
7.22168
20
10.6106
30
9.4
0
VERTEX
10
7.22347
20
10.6079
30
9.4
0
VERTEX
10
7.22706
20
10.6061
30
9.4
0
VERTEX
10
7.23244
20
10.5999
30
9.4
0
VERTEX
10
7.23961
20
10.5954
30
9.4
0
VERTEX
10
7.24678
20
10.5954
30
9.4
0
VERTEX
10
7.26113
20
10.6008
30
9.4
0
VERTEX
10
7.26471
20
10.6035
30
9.4
0
VERTEX
10
7.2683
20
10.6043
30
9.4
0
VERTEX
10
7.27009
20
10.6079
30
9.4
0
VERTEX
10
7.27637
20
10.6142
30
9.4
0
VERTEX
10
7.27816
20
10.6178
30
9.4
0
VERTEX
10
7.27726
20
10.6321
30
9.4
0
VERTEX
10
7.27637
20
10.6393
30
9.4
0
VERTEX
10
7.27368
20
10.6465
30
9.4
0
VERTEX
10
7.2683
20
10.6537
30
9.4
0
VERTEX
10
7.26471
20
10.6537
30
9.4
0
VERTEX
10
7.25844
20
10.6581
30
9.4
0
VERTEX
10
7.25485
20
10.6608
30
9.4
0
VERTEX
10
7.24768
20
10.6626
30
9.4
0
VERTEX
10
7.24589
20
10.6626
30
9.4
0
VERTEX
10
7.24409
20
10.6644
30
9.4
0
VERTEX
10
7.22975
20
10.6671
30
9.4
0
VERTEX
10
7.22616
20
10.668
30
9.4
0
VERTEX
10
7.22437
20
10.668
30
9.4
0
VERTEX
10
7.21092
20
10.659
30
9.4
0
VERTEX
10
7.20823
20
10.6555
30
9.4
0
VERTEX
10
7.20644
20
10.6483
30
9.4
0
VERTEX
10
7.20464
20
10.6447
30
9.4
0
VERTEX
10
7.20464
20
10.642
30
9.4
0
SEQEND
0
POLYLINE
62
227
66
1
70
1
3
endoplasmic_reticulum
0
VERTEX
10
7.67623
20
10.4232
30
9.4
0
VERTEX
10
7.68071
20
10.4089
30
9.4
0
VERTEX
10
7.68699
20
10.4035
30
9.4
0
VERTEX
10
7.69416
20
10.4008
30
9.4
0
VERTEX
10
7.7085
20
10.399
30
9.4
0
VERTEX
10
7.71568
20
10.3981
30
9.4
0
VERTEX
10
7.71657
20
10.3963
30
9.4
0
VERTEX
10
7.73092
20
10.3946
30
9.4
0
VERTEX
10
7.73809
20
10.3937
30
9.4
0
VERTEX
10
7.74168
20
10.3919
30
9.4
0
VERTEX
10
7.75602
20
10.3928
30
9.4
0
VERTEX
10
7.75961
20
10.3928
30
9.4
0
VERTEX
10
7.7614
20
10.3928
30
9.4
0
VERTEX
10
7.76319
20
10.3946
30
9.4
0
VERTEX
10
7.76319
20
10.3963
30
9.4
0
VERTEX
10
7.76857
20
10.4026
30
9.4
0
VERTEX
10
7.76947
20
10.4098
30
9.4
0
VERTEX
10
7.76588
20
10.4241
30
9.4
0
VERTEX
10
7.75781
20
10.4385
30
9.4
0
VERTEX
10
7.75154
20
10.4528
30
9.4
0
VERTEX
10
7.74616
20
10.4591
30
9.4
0
VERTEX
10
7.74257
20
10.4627
30
9.4
0
VERTEX
10
7.73899
20
10.4636
30
9.4
0
VERTEX
10
7.73361
20
10.469
30
9.4
0
VERTEX
10
7.73002
20
10.4717
30
9.4
0
VERTEX
10
7.71568
20
10.4708
30
9.4
0
VERTEX
10
7.70133
20
10.4672
30
9.4
0
VERTEX
10
7.69416
20
10.4627
30
9.4
0
VERTEX
10
7.69147
20
10.46
30
9.4
0
VERTEX
10
7.69057
20
10.4564
30
9.4
0
VERTEX
10
7.6825
20
10.4421
30
9.4
0
VERTEX
10
7.67981
20
10.4394
30
9.4
0
VERTEX
10
7.67892
20
10.4358
30
9.4
0
VERTEX
10
7.67623
20
10.4322
30
9.4
0
VERTEX
10
7.67623
20
10.425
30
9.4
0
VERTEX
10
7.67623
20
10.4241
30
9.4
0
SEQEND
0
POLYLINE
62
227
66
1
70
1
3
endoplasmic_reticulum
0
VERTEX
10
7.4234
20
10.7594
30
9.4
0
VERTEX
10
7.42878
20
10.7451
30
9.4
0
VERTEX
10
7.42878
20
10.7433
30
9.4
0
VERTEX
10
7.43147
20
10.7397
30
9.4
0
VERTEX
10
7.43326
20
10.7379
30
9.4
0
VERTEX
10
7.43506
20
10.7379
30
9.4
0
VERTEX
10
7.44223
20
10.7335
30
9.4
0
VERTEX
10
7.45657
20
10.7326
30
9.4
0
VERTEX
10
7.46375
20
10.7335
30
9.4
0
VERTEX
10
7.46733
20
10.7343
30
9.4
0
VERTEX
10
7.46913
20
10.7343
30
9.4
0
VERTEX
10
7.4745
20
10.7406
30
9.4
0
VERTEX
10
7.48168
20
10.7469
30
9.4
0
VERTEX
10
7.49513
20
10.7514
30
9.4
0
VERTEX
10
7.49871
20
10.7514
30
9.4
0
VERTEX
10
7.50499
20
10.755
30
9.4
0
VERTEX
10
7.50947
20
10.7594
30
9.4
0
VERTEX
10
7.50947
20
10.763
30
9.4
0
VERTEX
10
7.50588
20
10.7702
30
9.4
0
VERTEX
10
7.50319
20
10.7729
30
9.4
0
VERTEX
10
7.49602
20
10.7756
30
9.4
0
VERTEX
10
7.48975
20
10.781
30
9.4
0
VERTEX
10
7.48257
20
10.7846
30
9.4
0
VERTEX
10
7.47719
20
10.7899
30
9.4
0
VERTEX
10
7.47361
20
10.7917
30
9.4
0
VERTEX
10
7.45926
20
10.789
30
9.4
0
VERTEX
10
7.45209
20
10.7863
30
9.4
0
VERTEX
10
7.44492
20
10.7819
30
9.4
0
VERTEX
10
7.44133
20
10.7792
30
9.4
0
VERTEX
10
7.43775
20
10.7783
30
9.4
0
VERTEX
10
7.43057
20
10.7738
30
9.4
0
VERTEX
10
7.42699
20
10.772
30
9.4
0
VERTEX
10
7.4234
20
10.7648
30
9.4
0
VERTEX
10
7.4234
20
10.7612
30
9.4
0
VERTEX
10
7.4234
20
10.7603
30
9.4
0
SEQEND
0
POLYLINE
62
31
66
1
70
1
3
contour
0
VERTEX
10
6.40899
20
11.1113
30
9.4
0
VERTEX
10
6.41221
20
11.1048
30
9.4
0
VERTEX
10
6.41221
20
11.092
30
9.4
0
VERTEX
10
6.42024
20
11.0807
30
9.4
0
VERTEX
10
6.42185
20
11.0775
30
9.4
0
VERTEX
10
6.42024
20
11.0743
30
9.4
0
VERTEX
10
6.43792
20
11.0486
30
9.4
0
VERTEX
10
6.44917
20
11.0406
30
9.4
0
VERTEX
10
6.46042
20
11.0293
30
9.4
0
VERTEX
10
6.46685
20
11.0277
30
9.4
0
VERTEX
10
6.47006
20
11.0245
30
9.4
0
VERTEX
10
6.47327
20
11.0245
30
9.4
0
VERTEX
10
6.48613
20
11.0165
30
9.4
0
VERTEX
10
6.48935
20
11.0132
30
9.4
0
VERTEX
10
6.48935
20
11.0068
30
9.4
0
VERTEX
10
6.48774
20
11.0036
30
9.4
0
VERTEX
10
6.5022
20
10.9779
30
9.4
0
VERTEX
10
6.51184
20
10.965
30
9.4
0
VERTEX
10
6.51667
20
10.9522
30
9.4
0
VERTEX
10
6.52631
20
10.9393
30
9.4
0
VERTEX
10
6.53756
20
10.9136
30
9.4
0
VERTEX
10
6.54399
20
10.9008
30
9.4
0
VERTEX
10
6.54559
20
10.8943
30
9.4
0
VERTEX
10
6.54559
20
10.8911
30
9.4
0
VERTEX
10
6.54881
20
10.8879
30
9.4
0
VERTEX
10
6.55041
20
10.875
30
9.4
0
VERTEX
10
6.55202
20
10.8686
30
9.4
0
VERTEX
10
6.55845
20
10.8622
30
9.4
0
VERTEX
10
6.56648
20
10.8493
30
9.4
0
VERTEX
10
6.57131
20
10.8445
30
9.4
0
VERTEX
10
6.57291
20
10.8381
30
9.4
0
VERTEX
10
6.58256
20
10.8268
30
9.4
0
VERTEX
10
6.58577
20
10.8236
30
9.4
0
VERTEX
10
6.5922
20
10.822
30
9.4
0
VERTEX
10
6.59702
20
10.8156
30
9.4
0
VERTEX
10
6.60827
20
10.8075
30
9.4
0
VERTEX
10
6.6147
20
10.8027
30
9.4
0
VERTEX
10
6.64041
20
10.7979
30
9.4
0
VERTEX
10
6.64684
20
10.7931
30
9.4
0
VERTEX
10
6.69826
20
10.7931
30
9.4
0
VERTEX
10
6.71112
20
10.7947
30
9.4
0
VERTEX
10
6.71755
20
10.7963
30
9.4
0
VERTEX
10
6.72076
20
10.7963
30
9.4
0
VERTEX
10
6.72719
20
10.8011
30
9.4
0
VERTEX
10
6.74005
20
10.8027
30
9.4
0
VERTEX
10
6.74648
20
10.8043
30
9.4
0
VERTEX
10
6.75612
20
10.8172
30
9.4
0
VERTEX
10
6.75933
20
10.8236
30
9.4
0
VERTEX
10
6.75933
20
10.875
30
9.4
0
VERTEX
10
6.75451
20
10.9008
30
9.4
0
VERTEX
10
6.75451
20
10.904
30
9.4
0
VERTEX
10
6.7513
20
10.9072
30
9.4
0
VERTEX
10
6.74808
20
10.9072
30
9.4
0
VERTEX
10
6.74166
20
10.9313
30
9.4
0
VERTEX
10
6.74005
20
10.9441
30
9.4
0
VERTEX
10
6.73523
20
10.957
30
9.4
0
VERTEX
10
6.73523
20
10.9699
30
9.4
0
VERTEX
10
6.73201
20
10.9763
30
9.4
0
VERTEX
10
6.73201
20
10.9827
30
9.4
0
VERTEX
10
6.72398
20
11.0068
30
9.4
0
VERTEX
10
6.72398
20
11.0132
30
9.4
0
VERTEX
10
6.71594
20
11.0213
30
9.4
0
VERTEX
10
6.71594
20
11.0245
30
9.4
0
VERTEX
10
6.71112
20
11.0309
30
9.4
0
VERTEX
10
6.69987
20
11.0374
30
9.4
0
VERTEX
10
6.68702
20
11.039
30
9.4
0
VERTEX
10
6.67416
20
11.0438
30
9.4
0
VERTEX
10
6.64845
20
11.0486
30
9.4
0
VERTEX
10
6.64202
20
11.0502
30
9.4
0
VERTEX
10
6.6163
20
11.0663
30
9.4
0
VERTEX
10
6.60345
20
11.0727
30
9.4
0
VERTEX
10
6.59702
20
11.0775
30
9.4
0
VERTEX
10
6.59059
20
11.0791
30
9.4
0
VERTEX
10
6.57773
20
11.0888
30
9.4
0
VERTEX
10
6.57131
20
11.0904
30
9.4
0
VERTEX
10
6.55041
20
11.1113
30
9.4
0
VERTEX
10
6.5472
20
11.1177
30
9.4
0
VERTEX
10
6.52309
20
11.1338
30
9.4
0
VERTEX
10
6.51667
20
11.1386
30
9.4
0
VERTEX
10
6.50381
20
11.1402
30
9.4
0
VERTEX
10
6.49738
20
11.1418
30
9.4
0
VERTEX
10
6.49577
20
11.145
30
9.4
0
VERTEX
10
6.48292
20
11.1498
30
9.4
0
VERTEX
10
6.4572
20
11.1498
30
9.4
0
VERTEX
10
6.43149
20
11.1466
30
9.4
0
VERTEX
10
6.42828
20
11.145
30
9.4
0
VERTEX
10
6.42506
20
11.1466
30
9.4
0
VERTEX
10
6.41863
20
11.145
30
9.4
0
VERTEX
10
6.41221
20
11.1402
30
9.4
0
VERTEX
10
6.40899
20
11.1273
30
9.4
0
VERTEX
10
6.40899
20
11.1145
30
9.4
0
VERTEX
10
6.40899
20
11.1129
30
9.4
0
SEQEND
0
POLYLINE
62
236
66
1
70
1
3
postsynaptic_density
0
VERTEX
10
7.82393
20
10.6688
30
9.4
0
VERTEX
10
7.8264
20
10.649
30
9.4
0
VERTEX
10
7.83133
20
10.6392
30
9.4
0
VERTEX
10
7.83133
20
10.6194
30
9.4
0
VERTEX
10
7.8412
20
10.5799
30
9.4
0
VERTEX
10
7.84614
20
10.5405
30
9.4
0
VERTEX
10
7.8412
20
10.501
30
9.4
0
VERTEX
10
7.87821
20
10.4739
30
9.4
0
VERTEX
10
7.91769
20
10.4788
30
9.4
0
VERTEX
10
7.99664
20
10.4763
30
9.4
0
VERTEX
10
8.03612
20
10.4763
30
9.4
0
VERTEX
10
8.04599
20
10.4739
30
9.4
0
VERTEX
10
8.06326
20
10.4615
30
9.4
0
VERTEX
10
8.0682
20
10.4615
30
9.4
0
VERTEX
10
8.07807
20
10.4689
30
9.4
0
VERTEX
10
8.083
20
10.5084
30
9.4
0
VERTEX
10
8.083
20
10.5183
30
9.4
0
VERTEX
10
8.08793
20
10.5281
30
9.4
0
VERTEX
10
8.08793
20
10.5676
30
9.4
0
VERTEX
10
8.09287
20
10.6071
30
9.4
0
VERTEX
10
8.0978
20
10.612
30
9.4
0
VERTEX
10
8.10274
20
10.6515
30
9.4
0
VERTEX
10
8.11014
20
10.6638
30
9.4
0
VERTEX
10
8.11014
20
10.6836
30
9.4
0
VERTEX
10
8.0904
20
10.6959
30
9.4
0
VERTEX
10
8.08053
20
10.7033
30
9.4
0
VERTEX
10
8.0756
20
10.7082
30
9.4
0
VERTEX
10
8.07066
20
10.7082
30
9.4
0
VERTEX
10
8.05339
20
10.728
30
9.4
0
VERTEX
10
8.04599
20
10.7354
30
9.4
0
VERTEX
10
8.02625
20
10.7354
30
9.4
0
VERTEX
10
8.00651
20
10.7305
30
9.4
0
VERTEX
10
7.92756
20
10.7305
30
9.4
0
VERTEX
10
7.88808
20
10.7305
30
9.4
0
VERTEX
10
7.85107
20
10.7231
30
9.4
0
VERTEX
10
7.83133
20
10.7206
30
9.4
0
VERTEX
10
7.82886
20
10.7181
30
9.4
0
VERTEX
10
7.8412
20
10.6984
30
9.4
0
VERTEX
10
7.84367
20
10.6934
30
9.4
0
VERTEX
10
7.8264
20
10.6811
30
9.4
0
VERTEX
10
7.82393
20
10.6712
30
9.4
0
SEQEND
0
ENDSEC
0
EOF
