0
SECTION
2
ENTITIES
0
POLYLINE
62
31
66
1
70
1
3
contour
0
VERTEX
10
7.51547
20
10.1786
30
8.96
0
VERTEX
10
7.55826
20
10.1358
30
8.96
0
VERTEX
10
7.56485
20
10.1325
30
8.96
0
VERTEX
10
7.56485
20
10.126
30
8.96
0
VERTEX
10
7.59118
20
10.1062
30
8.96
0
VERTEX
10
7.61752
20
10.093
30
8.96
0
VERTEX
10
7.63068
20
10.0832
30
8.96
0
VERTEX
10
7.64385
20
10.0799
30
8.96
0
VERTEX
10
7.67019
20
10.0634
30
8.96
0
VERTEX
10
7.72286
20
10.0535
30
8.96
0
VERTEX
10
7.73603
20
10.047
30
8.96
0
VERTEX
10
7.84137
20
10.047
30
8.96
0
VERTEX
10
7.94671
20
10.0404
30
8.96
0
VERTEX
10
7.95329
20
10.0338
30
8.96
0
VERTEX
10
7.97634
20
10.0239
30
8.96
0
VERTEX
10
8.00267
20
10.0042
30
8.96
0
VERTEX
10
8.01255
20
9.99758
30
8.96
0
VERTEX
10
8.03888
20
9.99758
30
8.96
0
VERTEX
10
8.05205
20
10.0009
30
8.96
0
VERTEX
10
8.06851
20
10.0272
30
8.96
0
VERTEX
10
8.07509
20
10.0371
30
8.96
0
VERTEX
10
8.08168
20
10.0898
30
8.96
0
VERTEX
10
8.10472
20
10.1424
30
8.96
0
VERTEX
10
8.1146
20
10.1556
30
8.96
0
VERTEX
10
8.11789
20
10.1688
30
8.96
0
VERTEX
10
8.12776
20
10.1786
30
8.96
0
VERTEX
10
8.13106
20
10.1918
30
8.96
0
VERTEX
10
8.15081
20
10.2181
30
8.96
0
VERTEX
10
8.16068
20
10.2412
30
8.96
0
VERTEX
10
8.18044
20
10.2642
30
8.96
0
VERTEX
10
8.19031
20
10.3169
30
8.96
0
VERTEX
10
8.1936
20
10.3696
30
8.96
0
VERTEX
10
8.19689
20
10.3959
30
8.96
0
VERTEX
10
8.19689
20
10.4091
30
8.96
0
VERTEX
10
8.20348
20
10.4222
30
8.96
0
VERTEX
10
8.21006
20
10.4288
30
8.96
0
VERTEX
10
8.21994
20
10.4519
30
8.96
0
VERTEX
10
8.22652
20
10.465
30
8.96
0
VERTEX
10
8.27261
20
10.5078
30
8.96
0
VERTEX
10
8.27919
20
10.5177
30
8.96
0
VERTEX
10
8.2759
20
10.623
30
8.96
0
VERTEX
10
8.27261
20
10.6757
30
8.96
0
VERTEX
10
8.26932
20
10.7021
30
8.96
0
VERTEX
10
8.25944
20
10.7284
30
8.96
0
VERTEX
10
8.24298
20
10.7448
30
8.96
0
VERTEX
10
8.13764
20
10.7448
30
8.96
0
VERTEX
10
8.0323
20
10.7547
30
8.96
0
VERTEX
10
8.00925
20
10.7745
30
8.96
0
VERTEX
10
7.99609
20
10.7778
30
8.96
0
VERTEX
10
7.9895
20
10.7778
30
8.96
0
VERTEX
10
7.98292
20
10.7843
30
8.96
0
VERTEX
10
7.95658
20
10.7909
30
8.96
0
VERTEX
10
7.94342
20
10.8008
30
8.96
0
VERTEX
10
7.93683
20
10.8074
30
8.96
0
VERTEX
10
7.92366
20
10.8041
30
8.96
0
VERTEX
10
7.90062
20
10.7778
30
8.96
0
VERTEX
10
7.88745
20
10.7778
30
8.96
0
VERTEX
10
7.86441
20
10.7547
30
8.96
0
VERTEX
10
7.83807
20
10.7448
30
8.96
0
VERTEX
10
7.73273
20
10.7383
30
8.96
0
VERTEX
10
7.71957
20
10.7383
30
8.96
0
VERTEX
10
7.7064
20
10.7317
30
8.96
0
VERTEX
10
7.68006
20
10.7284
30
8.96
0
VERTEX
10
7.65702
20
10.7185
30
8.96
0
VERTEX
10
7.62081
20
10.6691
30
8.96
0
VERTEX
10
7.61752
20
10.656
30
8.96
0
VERTEX
10
7.60764
20
10.6428
30
8.96
0
VERTEX
10
7.60764
20
10.6362
30
8.96
0
VERTEX
10
7.5813
20
10.6132
30
8.96
0
VERTEX
10
7.56814
20
10.6033
30
8.96
0
VERTEX
10
7.55168
20
10.5539
30
8.96
0
VERTEX
10
7.5418
20
10.5276
30
8.96
0
VERTEX
10
7.52863
20
10.3169
30
8.96
0
VERTEX
10
7.52863
20
10.2642
30
8.96
0
VERTEX
10
7.52863
20
10.2379
30
8.96
0
VERTEX
10
7.52205
20
10.2116
30
8.96
0
VERTEX
10
7.51547
20
10.2083
30
8.96
0
VERTEX
10
7.51547
20
10.1819
30
8.96
0
SEQEND
0
POLYLINE
62
224
66
1
70
1
3
mitochondrion
0
VERTEX
10
7.62095
20
10.3504
30
8.96
0
VERTEX
10
7.62651
20
10.3281
30
8.96
0
VERTEX
10
7.62651
20
10.3226
30
8.96
0
VERTEX
10
7.62929
20
10.3198
30
8.96
0
VERTEX
10
7.63207
20
10.3086
30
8.96
0
VERTEX
10
7.63207
20
10.3031
30
8.96
0
VERTEX
10
7.63902
20
10.2808
30
8.96
0
VERTEX
10
7.6418
20
10.2781
30
8.96
0
VERTEX
10
7.6418
20
10.2753
30
8.96
0
VERTEX
10
7.64597
20
10.2711
30
8.96
0
VERTEX
10
7.64875
20
10.2697
30
8.96
0
VERTEX
10
7.64875
20
10.2669
30
8.96
0
VERTEX
10
7.6571
20
10.2572
30
8.96
0
VERTEX
10
7.66683
20
10.2502
30
8.96
0
VERTEX
10
7.66961
20
10.2516
30
8.96
0
VERTEX
10
7.67517
20
10.2475
30
8.96
0
VERTEX
10
7.68073
20
10.2461
30
8.96
0
VERTEX
10
7.68352
20
10.2433
30
8.96
0
VERTEX
10
7.69464
20
10.2405
30
8.96
0
VERTEX
10
7.7002
20
10.2363
30
8.96
0
VERTEX
10
7.71132
20
10.2336
30
8.96
0
VERTEX
10
7.72245
20
10.228
30
8.96
0
VERTEX
10
7.72801
20
10.228
30
8.96
0
VERTEX
10
7.75026
20
10.2211
30
8.96
0
VERTEX
10
7.7725
20
10.2197
30
8.96
0
VERTEX
10
7.79475
20
10.2211
30
8.96
0
VERTEX
10
7.80587
20
10.2238
30
8.96
0
VERTEX
10
7.81144
20
10.2238
30
8.96
0
VERTEX
10
7.83368
20
10.2322
30
8.96
0
VERTEX
10
7.83646
20
10.2322
30
8.96
0
VERTEX
10
7.84202
20
10.2377
30
8.96
0
VERTEX
10
7.84759
20
10.2391
30
8.96
0
VERTEX
10
7.85315
20
10.2433
30
8.96
0
VERTEX
10
7.86427
20
10.2475
30
8.96
0
VERTEX
10
7.86983
20
10.2516
30
8.96
0
VERTEX
10
7.87122
20
10.2544
30
8.96
0
VERTEX
10
7.87679
20
10.2558
30
8.96
0
VERTEX
10
7.88096
20
10.2614
30
8.96
0
VERTEX
10
7.88791
20
10.2836
30
8.96
0
VERTEX
10
7.89486
20
10.2947
30
8.96
0
VERTEX
10
7.89903
20
10.3059
30
8.96
0
VERTEX
10
7.90598
20
10.3156
30
8.96
0
VERTEX
10
7.91294
20
10.3378
30
8.96
0
VERTEX
10
7.91572
20
10.3434
30
8.96
0
VERTEX
10
7.91572
20
10.3462
30
8.96
0
VERTEX
10
7.91989
20
10.3518
30
8.96
0
VERTEX
10
7.91989
20
10.3545
30
8.96
0
VERTEX
10
7.92684
20
10.3657
30
8.96
0
VERTEX
10
7.92823
20
10.3768
30
8.96
0
VERTEX
10
7.9324
20
10.3809
30
8.96
0
VERTEX
10
7.93518
20
10.4032
30
8.96
0
VERTEX
10
7.93518
20
10.4254
30
8.96
0
VERTEX
10
7.9324
20
10.4282
30
8.96
0
VERTEX
10
7.93101
20
10.4727
30
8.96
0
VERTEX
10
7.92962
20
10.4838
30
8.96
0
VERTEX
10
7.92962
20
10.4894
30
8.96
0
VERTEX
10
7.92128
20
10.5117
30
8.96
0
VERTEX
10
7.92128
20
10.5172
30
8.96
0
VERTEX
10
7.91433
20
10.5269
30
8.96
0
VERTEX
10
7.90459
20
10.5353
30
8.96
0
VERTEX
10
7.89903
20
10.5464
30
8.96
0
VERTEX
10
7.8893
20
10.5561
30
8.96
0
VERTEX
10
7.88652
20
10.5561
30
8.96
0
VERTEX
10
7.8754
20
10.5631
30
8.96
0
VERTEX
10
7.86427
20
10.5659
30
8.96
0
VERTEX
10
7.85871
20
10.57
30
8.96
0
VERTEX
10
7.83646
20
10.5742
30
8.96
0
VERTEX
10
7.81422
20
10.5756
30
8.96
0
VERTEX
10
7.76972
20
10.5687
30
8.96
0
VERTEX
10
7.7586
20
10.5673
30
8.96
0
VERTEX
10
7.74748
20
10.5631
30
8.96
0
VERTEX
10
7.72662
20
10.5478
30
8.96
0
VERTEX
10
7.72523
20
10.545
30
8.96
0
VERTEX
10
7.72245
20
10.545
30
8.96
0
VERTEX
10
7.71271
20
10.5353
30
8.96
0
VERTEX
10
7.70854
20
10.5311
30
8.96
0
VERTEX
10
7.70298
20
10.5297
30
8.96
0
VERTEX
10
7.7002
20
10.5269
30
8.96
0
VERTEX
10
7.69464
20
10.5256
30
8.96
0
VERTEX
10
7.68352
20
10.5186
30
8.96
0
VERTEX
10
7.66405
20
10.5005
30
8.96
0
VERTEX
10
7.65988
20
10.4894
30
8.96
0
VERTEX
10
7.65849
20
10.4838
30
8.96
0
VERTEX
10
7.65432
20
10.4797
30
8.96
0
VERTEX
10
7.65015
20
10.4685
30
8.96
0
VERTEX
10
7.64597
20
10.463
30
8.96
0
VERTEX
10
7.64319
20
10.4602
30
8.96
0
VERTEX
10
7.64319
20
10.4574
30
8.96
0
VERTEX
10
7.63902
20
10.4519
30
8.96
0
VERTEX
10
7.63346
20
10.4296
30
8.96
0
VERTEX
10
7.62929
20
10.4185
30
8.96
0
VERTEX
10
7.6279
20
10.4074
30
8.96
0
VERTEX
10
7.62373
20
10.3962
30
8.96
0
VERTEX
10
7.62095
20
10.3907
30
8.96
0
VERTEX
10
7.62095
20
10.3684
30
8.96
0
VERTEX
10
7.62095
20
10.3573
30
8.96
0
VERTEX
10
7.62095
20
10.3518
30
8.96
0
SEQEND
0
POLYLINE
62
227
66
1
70
1
3
endoplasmic_reticulum
0
VERTEX
10
7.98464
20
10.1148
30
8.96
0
VERTEX
10
7.98554
20
10.1112
30
8.96
0
VERTEX
10
7.98554
20
10.1095
30
8.96
0
VERTEX
10
7.98823
20
10.1068
30
8.96
0
VERTEX
10
7.98912
20
10.0996
30
8.96
0
VERTEX
10
7.99002
20
10.096
30
8.96
0
VERTEX
10
7.99181
20
10.0942
30
8.96
0
VERTEX
10
7.99181
20
10.0924
30
8.96
0
VERTEX
10
8.00078
20
10.0781
30
8.96
0
VERTEX
10
8.00616
20
10.0718
30
8.96
0
VERTEX
10
8.01243
20
10.0673
30
8.96
0
VERTEX
10
8.01512
20
10.0646
30
8.96
0
VERTEX
10
8.02947
20
10.0637
30
8.96
0
VERTEX
10
8.03664
20
10.0646
30
8.96
0
VERTEX
10
8.04023
20
10.0673
30
8.96
0
VERTEX
10
8.04202
20
10.0691
30
8.96
0
VERTEX
10
8.04112
20
10.0835
30
8.96
0
VERTEX
10
8.04112
20
10.0906
30
8.96
0
VERTEX
10
8.03664
20
10.105
30
8.96
0
VERTEX
10
8.03395
20
10.1121
30
8.96
0
VERTEX
10
8.03126
20
10.1157
30
8.96
0
VERTEX
10
8.02767
20
10.1444
30
8.96
0
VERTEX
10
8.02947
20
10.1588
30
8.96
0
VERTEX
10
8.03843
20
10.1866
30
8.96
0
VERTEX
10
8.04381
20
10.2009
30
8.96
0
VERTEX
10
8.04381
20
10.2045
30
8.96
0
VERTEX
10
8.05009
20
10.2188
30
8.96
0
VERTEX
10
8.05098
20
10.2224
30
8.96
0
VERTEX
10
8.05278
20
10.2242
30
8.96
0
VERTEX
10
8.05457
20
10.2314
30
8.96
0
VERTEX
10
8.05547
20
10.235
30
8.96
0
VERTEX
10
8.05547
20
10.2368
30
8.96
0
VERTEX
10
8.05726
20
10.2386
30
8.96
0
VERTEX
10
8.05905
20
10.2529
30
8.96
0
VERTEX
10
8.06085
20
10.2547
30
8.96
0
VERTEX
10
8.06443
20
10.269
30
8.96
0
VERTEX
10
8.06533
20
10.2834
30
8.96
0
VERTEX
10
8.06443
20
10.2977
30
8.96
0
VERTEX
10
8.06174
20
10.3121
30
8.96
0
VERTEX
10
8.05278
20
10.3264
30
8.96
0
VERTEX
10
8.05009
20
10.3291
30
8.96
0
VERTEX
10
8.0465
20
10.33
30
8.96
0
VERTEX
10
8.04381
20
10.3327
30
8.96
0
VERTEX
10
8.04023
20
10.3327
30
8.96
0
VERTEX
10
8.02588
20
10.3273
30
8.96
0
VERTEX
10
8.0214
20
10.321
30
8.96
0
VERTEX
10
8.0205
20
10.3139
30
8.96
0
VERTEX
10
8.01871
20
10.3103
30
8.96
0
VERTEX
10
8.01871
20
10.3031
30
8.96
0
VERTEX
10
8.01692
20
10.2959
30
8.96
0
VERTEX
10
8.01692
20
10.2888
30
8.96
0
VERTEX
10
8.01243
20
10.2744
30
8.96
0
VERTEX
10
8.00885
20
10.2708
30
8.96
0
VERTEX
10
8.00705
20
10.2672
30
8.96
0
VERTEX
10
8.00526
20
10.2655
30
8.96
0
VERTEX
10
8.00257
20
10.2368
30
8.96
0
VERTEX
10
7.99719
20
10.2081
30
8.96
0
VERTEX
10
7.99629
20
10.1937
30
8.96
0
VERTEX
10
7.99719
20
10.1794
30
8.96
0
VERTEX
10
7.99809
20
10.1758
30
8.96
0
VERTEX
10
7.99988
20
10.1749
30
8.96
0
VERTEX
10
8.00167
20
10.1606
30
8.96
0
VERTEX
10
8.00167
20
10.1534
30
8.96
0
VERTEX
10
8.00167
20
10.1516
30
8.96
0
VERTEX
10
7.9954
20
10.1471
30
8.96
0
VERTEX
10
7.99271
20
10.1444
30
8.96
0
VERTEX
10
7.99181
20
10.1372
30
8.96
0
VERTEX
10
7.99002
20
10.1337
30
8.96
0
VERTEX
10
7.98823
20
10.1319
30
8.96
0
VERTEX
10
7.98733
20
10.1247
30
8.96
0
VERTEX
10
7.98554
20
10.1229
30
8.96
0
VERTEX
10
7.98464
20
10.1157
30
8.96
0
SEQEND
0
POLYLINE
62
227
66
1
70
1
3
endoplasmic_reticulum
0
VERTEX
10
7.93354
20
10.2502
30
8.96
0
VERTEX
10
7.93802
20
10.2368
30
8.96
0
VERTEX
10
7.93802
20
10.2332
30
8.96
0
VERTEX
10
7.93981
20
10.2296
30
8.96
0
VERTEX
10
7.94071
20
10.2278
30
8.96
0
VERTEX
10
7.94788
20
10.2287
30
8.96
0
VERTEX
10
7.95147
20
10.2287
30
8.96
0
VERTEX
10
7.95864
20
10.2332
30
8.96
0
VERTEX
10
7.95864
20
10.2368
30
8.96
0
VERTEX
10
7.96223
20
10.2386
30
8.96
0
VERTEX
10
7.97478
20
10.2511
30
8.96
0
VERTEX
10
7.97478
20
10.2529
30
8.96
0
VERTEX
10
7.97747
20
10.2556
30
8.96
0
VERTEX
10
7.97836
20
10.2592
30
8.96
0
VERTEX
10
7.98195
20
10.2628
30
8.96
0
VERTEX
10
7.98464
20
10.269
30
8.96
0
VERTEX
10
7.99002
20
10.2744
30
8.96
0
VERTEX
10
7.99181
20
10.2762
30
8.96
0
VERTEX
10
7.99092
20
10.2906
30
8.96
0
VERTEX
10
7.99002
20
10.2977
30
8.96
0
VERTEX
10
7.98823
20
10.3013
30
8.96
0
VERTEX
10
7.98733
20
10.3085
30
8.96
0
VERTEX
10
7.98285
20
10.3157
30
8.96
0
VERTEX
10
7.98285
20
10.3228
30
8.96
0
VERTEX
10
7.98285
20
10.3264
30
8.96
0
VERTEX
10
7.98105
20
10.33
30
8.96
0
VERTEX
10
7.98016
20
10.3372
30
8.96
0
VERTEX
10
7.97836
20
10.339
30
8.96
0
VERTEX
10
7.97209
20
10.3318
30
8.96
0
VERTEX
10
7.96492
20
10.3264
30
8.96
0
VERTEX
10
7.95774
20
10.3237
30
8.96
0
VERTEX
10
7.95147
20
10.3175
30
8.96
0
VERTEX
10
7.95057
20
10.3148
30
8.96
0
VERTEX
10
7.9443
20
10.3085
30
8.96
0
VERTEX
10
7.93981
20
10.3013
30
8.96
0
VERTEX
10
7.93443
20
10.287
30
8.96
0
VERTEX
10
7.93354
20
10.2583
30
8.96
0
VERTEX
10
7.93354
20
10.2511
30
8.96
0
SEQEND
0
ENDSEC
0
EOF
