0
SECTION
2
ENTITIES
0
POLYLINE
62
224
66
1
70
1
3
mitochondrion
0
VERTEX
10
9.03223
20
9.06421
30
5.36
0
VERTEX
10
9.03501
20
9.05309
30
5.36
0
VERTEX
10
9.03501
20
9.03084
30
5.36
0
VERTEX
10
9.0364
20
9.01972
30
5.36
0
VERTEX
10
9.0364
20
9.01416
30
5.36
0
VERTEX
10
9.04058
20
9.00303
30
5.36
0
VERTEX
10
9.04197
20
8.99747
30
5.36
0
VERTEX
10
9.04197
20
8.99469
30
5.36
0
VERTEX
10
9.05309
20
8.98496
30
5.36
0
VERTEX
10
9.05865
20
8.98357
30
5.36
0
VERTEX
10
9.06421
20
8.9794
30
5.36
0
VERTEX
10
9.06699
20
8.97662
30
5.36
0
VERTEX
10
9.08924
20
8.97244
30
5.36
0
VERTEX
10
9.11149
20
8.97383
30
5.36
0
VERTEX
10
9.11427
20
8.97383
30
5.36
0
VERTEX
10
9.12261
20
8.98218
30
5.36
0
VERTEX
10
9.13234
20
8.9933
30
5.36
0
VERTEX
10
9.15042
20
9.01138
30
5.36
0
VERTEX
10
9.15459
20
9.01555
30
5.36
0
VERTEX
10
9.15737
20
9.02667
30
5.36
0
VERTEX
10
9.16432
20
9.03779
30
5.36
0
VERTEX
10
9.16849
20
9.04892
30
5.36
0
VERTEX
10
9.17545
20
9.05865
30
5.36
0
VERTEX
10
9.17684
20
9.06421
30
5.36
0
VERTEX
10
9.18101
20
9.06977
30
5.36
0
VERTEX
10
9.18379
20
9.09202
30
5.36
0
VERTEX
10
9.1824
20
9.13651
30
5.36
0
VERTEX
10
9.1824
20
9.14208
30
5.36
0
VERTEX
10
9.18518
20
9.14625
30
5.36
0
VERTEX
10
9.18101
20
9.15737
30
5.36
0
VERTEX
10
9.17823
20
9.16015
30
5.36
0
VERTEX
10
9.17823
20
9.16571
30
5.36
0
VERTEX
10
9.15876
20
9.18379
30
5.36
0
VERTEX
10
9.15598
20
9.18657
30
5.36
0
VERTEX
10
9.13373
20
9.18657
30
5.36
0
VERTEX
10
9.11149
20
9.18935
30
5.36
0
VERTEX
10
9.10036
20
9.18796
30
5.36
0
VERTEX
10
9.0948
20
9.18657
30
5.36
0
VERTEX
10
9.05031
20
9.15737
30
5.36
0
VERTEX
10
9.04336
20
9.14764
30
5.36
0
VERTEX
10
9.04058
20
9.14208
30
5.36
0
VERTEX
10
9.03779
20
9.1393
30
5.36
0
VERTEX
10
9.03501
20
9.12817
30
5.36
0
VERTEX
10
9.03223
20
9.12261
30
5.36
0
VERTEX
10
9.03223
20
9.07812
30
5.36
0
VERTEX
10
9.03223
20
9.06699
30
5.36
0
VERTEX
10
9.03223
20
9.0656
30
5.36
0
SEQEND
0
POLYLINE
62
227
66
1
70
1
3
endoplasmic_reticulum
0
VERTEX
10
9.05978
20
9.2359
30
5.36
0
VERTEX
10
9.06202
20
9.22693
30
5.36
0
VERTEX
10
9.06426
20
9.2258
30
5.36
0
VERTEX
10
9.06426
20
9.21683
30
5.36
0
VERTEX
10
9.06538
20
9.21234
30
5.36
0
VERTEX
10
9.07099
20
9.20785
30
5.36
0
VERTEX
10
9.07997
20
9.21122
30
5.36
0
VERTEX
10
9.08445
20
9.21234
30
5.36
0
VERTEX
10
9.08782
20
9.21571
30
5.36
0
VERTEX
10
9.08782
20
9.22468
30
5.36
0
VERTEX
10
9.09119
20
9.23253
30
5.36
0
VERTEX
10
9.09231
20
9.23366
30
5.36
0
VERTEX
10
9.09231
20
9.21571
30
5.36
0
VERTEX
10
9.09567
20
9.21234
30
5.36
0
VERTEX
10
9.09792
20
9.21122
30
5.36
0
VERTEX
10
9.09792
20
9.20898
30
5.36
0
VERTEX
10
9.10128
20
9.20449
30
5.36
0
VERTEX
10
9.11026
20
9.20337
30
5.36
0
VERTEX
10
9.11923
20
9.20561
30
5.36
0
VERTEX
10
9.13606
20
9.21346
30
5.36
0
VERTEX
10
9.14503
20
9.22019
30
5.36
0
VERTEX
10
9.1484
20
9.22132
30
5.36
0
VERTEX
10
9.16074
20
9.23814
30
5.36
0
VERTEX
10
9.16186
20
9.24712
30
5.36
0
VERTEX
10
9.16074
20
9.25609
30
5.36
0
VERTEX
10
9.16074
20
9.26058
30
5.36
0
VERTEX
10
9.15849
20
9.2617
30
5.36
0
VERTEX
10
9.15513
20
9.27068
30
5.36
0
VERTEX
10
9.13942
20
9.28526
30
5.36
0
VERTEX
10
9.13494
20
9.28638
30
5.36
0
VERTEX
10
9.13045
20
9.28526
30
5.36
0
VERTEX
10
9.12147
20
9.2875
30
5.36
0
VERTEX
10
9.1125
20
9.2875
30
5.36
0
VERTEX
10
9.10801
20
9.28414
30
5.36
0
VERTEX
10
9.09904
20
9.28302
30
5.36
0
VERTEX
10
9.09567
20
9.27965
30
5.36
0
VERTEX
10
9.0867
20
9.27629
30
5.36
0
VERTEX
10
9.0867
20
9.2718
30
5.36
0
VERTEX
10
9.08333
20
9.26843
30
5.36
0
VERTEX
10
9.08221
20
9.26731
30
5.36
0
VERTEX
10
9.07997
20
9.26843
30
5.36
0
VERTEX
10
9.07772
20
9.26395
30
5.36
0
VERTEX
10
9.06987
20
9.25721
30
5.36
0
VERTEX
10
9.06314
20
9.24824
30
5.36
0
VERTEX
10
9.05978
20
9.24487
30
5.36
0
VERTEX
10
9.05978
20
9.23702
30
5.36
0
SEQEND
0
POLYLINE
62
227
66
1
70
1
3
endoplasmic_reticulum
0
VERTEX
10
8.93638
20
9.02051
30
5.36
0
VERTEX
10
8.9375
20
9.01602
30
5.36
0
VERTEX
10
8.94535
20
9.00929
30
5.36
0
VERTEX
10
8.94872
20
9.00481
30
5.36
0
VERTEX
10
8.95769
20
9.00368
30
5.36
0
VERTEX
10
8.96666
20
9.00593
30
5.36
0
VERTEX
10
8.97564
20
9.01266
30
5.36
0
VERTEX
10
8.98237
20
9.02163
30
5.36
0
VERTEX
10
8.98461
20
9.02612
30
5.36
0
VERTEX
10
8.98461
20
9.0351
30
5.36
0
VERTEX
10
8.97788
20
9.05304
30
5.36
0
VERTEX
10
8.97788
20
9.05753
30
5.36
0
VERTEX
10
8.97227
20
9.06538
30
5.36
0
VERTEX
10
8.97003
20
9.06651
30
5.36
0
VERTEX
10
8.95208
20
9.05304
30
5.36
0
VERTEX
10
8.94984
20
9.0508
30
5.36
0
VERTEX
10
8.94872
20
9.05192
30
5.36
0
VERTEX
10
8.94647
20
9.04744
30
5.36
0
VERTEX
10
8.94423
20
9.04744
30
5.36
0
VERTEX
10
8.94198
20
9.04519
30
5.36
0
VERTEX
10
8.94086
20
9.0407
30
5.36
0
VERTEX
10
8.93638
20
9.03622
30
5.36
0
VERTEX
10
8.93638
20
9.02724
30
5.36
0
VERTEX
10
8.93638
20
9.02276
30
5.36
0
VERTEX
10
8.93638
20
9.02163
30
5.36
0
SEQEND
0
POLYLINE
62
31
66
1
70
1
3
contour
0
VERTEX
10
8.80886
20
8.94942
30
5.36
0
VERTEX
10
8.81388
20
8.9444
30
5.36
0
VERTEX
10
8.81388
20
8.91763
30
5.36
0
VERTEX
10
8.81555
20
8.91093
30
5.36
0
VERTEX
10
8.83228
20
8.88918
30
5.36
0
VERTEX
10
8.83898
20
8.88249
30
5.36
0
VERTEX
10
8.84065
20
8.87914
30
5.36
0
VERTEX
10
8.85404
20
8.87747
30
5.36
0
VERTEX
10
8.85738
20
8.87747
30
5.36
0
VERTEX
10
8.86408
20
8.87245
30
5.36
0
VERTEX
10
8.87077
20
8.87077
30
5.36
0
VERTEX
10
8.87747
20
8.86575
30
5.36
0
VERTEX
10
8.89085
20
8.86575
30
5.36
0
VERTEX
10
8.91763
20
8.85738
30
5.36
0
VERTEX
10
8.93101
20
8.85571
30
5.36
0
VERTEX
10
8.9444
20
8.85069
30
5.36
0
VERTEX
10
8.9511
20
8.84734
30
5.36
0
VERTEX
10
8.95779
20
8.84734
30
5.36
0
VERTEX
10
8.95946
20
8.84902
30
5.36
0
VERTEX
10
9.01301
20
8.83228
30
5.36
0
VERTEX
10
9.01971
20
8.82894
30
5.36
0
VERTEX
10
9.04648
20
8.82559
30
5.36
0
VERTEX
10
9.05987
20
8.82559
30
5.36
0
VERTEX
10
9.07325
20
8.82894
30
5.36
0
VERTEX
10
9.10003
20
8.83061
30
5.36
0
VERTEX
10
9.11342
20
8.83228
30
5.36
0
VERTEX
10
9.12011
20
8.8373
30
5.36
0
VERTEX
10
9.14689
20
8.84065
30
5.36
0
VERTEX
10
9.16027
20
8.84734
30
5.36
0
VERTEX
10
9.16697
20
8.85236
30
5.36
0
VERTEX
10
9.17533
20
8.86408
30
5.36
0
VERTEX
10
9.17868
20
8.86742
30
5.36
0
VERTEX
10
9.17868
20
8.87077
30
5.36
0
VERTEX
10
9.19039
20
8.88249
30
5.36
0
VERTEX
10
9.19039
20
8.88918
30
5.36
0
VERTEX
10
9.19039
20
8.89253
30
5.36
0
VERTEX
10
9.19541
20
8.89922
30
5.36
0
VERTEX
10
9.19876
20
8.90257
30
5.36
0
VERTEX
10
9.20378
20
8.92934
30
5.36
0
VERTEX
10
9.20378
20
8.93603
30
5.36
0
VERTEX
10
9.20713
20
8.93938
30
5.36
0
VERTEX
10
9.2155
20
8.96616
30
5.36
0
VERTEX
10
9.21884
20
8.97285
30
5.36
0
VERTEX
10
9.21884
20
8.9762
30
5.36
0
VERTEX
10
9.22219
20
8.97954
30
5.36
0
VERTEX
10
9.22219
20
8.98289
30
5.36
0
VERTEX
10
9.22554
20
8.98456
30
5.36
0
VERTEX
10
9.22386
20
8.99126
30
5.36
0
VERTEX
10
9.22219
20
8.9946
30
5.36
0
VERTEX
10
9.22554
20
9.00799
30
5.36
0
VERTEX
10
9.2339
20
9.01971
30
5.36
0
VERTEX
10
9.23558
20
9.0264
30
5.36
0
VERTEX
10
9.24227
20
9.03142
30
5.36
0
VERTEX
10
9.24562
20
9.03477
30
5.36
0
VERTEX
10
9.24562
20
9.03811
30
5.36
0
VERTEX
10
9.25231
20
9.03979
30
5.36
0
VERTEX
10
9.25398
20
9.09334
30
5.36
0
VERTEX
10
9.25398
20
9.12011
30
5.36
0
VERTEX
10
9.24896
20
9.17366
30
5.36
0
VERTEX
10
9.24896
20
9.18705
30
5.36
0
VERTEX
10
9.24896
20
9.19374
30
5.36
0
VERTEX
10
9.24896
20
9.19709
30
5.36
0
VERTEX
10
9.25231
20
9.20043
30
5.36
0
VERTEX
10
9.25231
20
9.22721
30
5.36
0
VERTEX
10
9.25064
20
9.2339
30
5.36
0
VERTEX
10
9.24562
20
9.2406
30
5.36
0
VERTEX
10
9.24394
20
9.24729
30
5.36
0
VERTEX
10
9.2339
20
9.259
30
5.36
0
VERTEX
10
9.22721
20
9.27239
30
5.36
0
VERTEX
10
9.22386
20
9.27908
30
5.36
0
VERTEX
10
9.22386
20
9.28243
30
5.36
0
VERTEX
10
9.22052
20
9.28578
30
5.36
0
VERTEX
10
9.21047
20
9.31255
30
5.36
0
VERTEX
10
9.20211
20
9.32427
30
5.36
0
VERTEX
10
9.19876
20
9.33096
30
5.36
0
VERTEX
10
9.19541
20
9.33431
30
5.36
0
VERTEX
10
9.19541
20
9.33765
30
5.36
0
VERTEX
10
9.19207
20
9.341
30
5.36
0
VERTEX
10
9.19039
20
9.34769
30
5.36
0
VERTEX
10
9.1837
20
9.35439
30
5.36
0
VERTEX
10
9.1837
20
9.35774
30
5.36
0
VERTEX
10
9.17199
20
9.36945
30
5.36
0
VERTEX
10
9.16529
20
9.3728
30
5.36
0
VERTEX
10
9.16195
20
9.37949
30
5.36
0
VERTEX
10
9.15525
20
9.38116
30
5.36
0
VERTEX
10
9.15023
20
9.38618
30
5.36
0
VERTEX
10
9.14354
20
9.38786
30
5.36
0
VERTEX
10
9.13684
20
9.39288
30
5.36
0
VERTEX
10
9.11007
20
9.39455
30
5.36
0
VERTEX
10
9.08497
20
9.40124
30
5.36
0
VERTEX
10
9.03142
20
9.40292
30
5.36
0
VERTEX
10
8.97787
20
9.41128
30
5.36
0
VERTEX
10
8.96448
20
9.41463
30
5.36
0
VERTEX
10
8.9511
20
9.41463
30
5.36
0
VERTEX
10
8.93771
20
9.41128
30
5.36
0
VERTEX
10
8.93436
20
9.41128
30
5.36
0
VERTEX
10
8.93101
20
9.40794
30
5.36
0
VERTEX
10
8.91763
20
9.40292
30
5.36
0
VERTEX
10
8.90424
20
9.39288
30
5.36
0
VERTEX
10
8.89755
20
9.38786
30
5.36
0
VERTEX
10
8.89085
20
9.36108
30
5.36
0
VERTEX
10
8.88918
20
9.34769
30
5.36
0
VERTEX
10
8.88918
20
9.34435
30
5.36
0
VERTEX
10
8.88583
20
9.341
30
5.36
0
VERTEX
10
8.88416
20
9.31423
30
5.36
0
VERTEX
10
8.88416
20
9.30084
30
5.36
0
VERTEX
10
8.88751
20
9.28745
30
5.36
0
VERTEX
10
8.88751
20
9.28411
30
5.36
0
VERTEX
10
8.89922
20
9.27239
30
5.36
0
VERTEX
10
8.90591
20
9.27072
30
5.36
0
VERTEX
10
8.91093
20
9.2657
30
5.36
0
VERTEX
10
8.91763
20
9.26402
30
5.36
0
VERTEX
10
8.93101
20
9.25566
30
5.36
0
VERTEX
10
8.93436
20
9.24896
30
5.36
0
VERTEX
10
8.94106
20
9.24562
30
5.36
0
VERTEX
10
8.9444
20
9.23223
30
5.36
0
VERTEX
10
8.94273
20
9.20545
30
5.36
0
VERTEX
10
8.93269
20
9.19541
30
5.36
0
VERTEX
10
8.93101
20
9.18872
30
5.36
0
VERTEX
10
8.93101
20
9.18537
30
5.36
0
VERTEX
10
8.92599
20
9.18035
30
5.36
0
VERTEX
10
8.92432
20
9.17366
30
5.36
0
VERTEX
10
8.91595
20
9.16027
30
5.36
0
VERTEX
10
8.91093
20
9.15525
30
5.36
0
VERTEX
10
8.90926
20
9.14856
30
5.36
0
VERTEX
10
8.90257
20
9.14521
30
5.36
0
VERTEX
10
8.89922
20
9.14521
30
5.36
0
VERTEX
10
8.89587
20
9.14186
30
5.36
0
VERTEX
10
8.89587
20
9.13852
30
5.36
0
VERTEX
10
8.88416
20
9.1268
30
5.36
0
VERTEX
10
8.86742
20
9.1017
30
5.36
0
VERTEX
10
8.8624
20
9.09501
30
5.36
0
VERTEX
10
8.86073
20
9.08832
30
5.36
0
VERTEX
10
8.84232
20
9.06321
30
5.36
0
VERTEX
10
8.83898
20
9.05987
30
5.36
0
VERTEX
10
8.83898
20
9.05652
30
5.36
0
VERTEX
10
8.83563
20
9.05317
30
5.36
0
VERTEX
10
8.83396
20
9.04648
30
5.36
0
VERTEX
10
8.82224
20
9.03811
30
5.36
0
VERTEX
10
8.8189
20
9.03644
30
5.36
0
VERTEX
10
8.8189
20
9.02975
30
5.36
0
VERTEX
10
8.81053
20
9.01636
30
5.36
0
VERTEX
10
8.81053
20
9.00297
30
5.36
0
VERTEX
10
8.81388
20
8.99962
30
5.36
0
VERTEX
10
8.81053
20
8.97285
30
5.36
0
VERTEX
10
8.80886
20
8.95946
30
5.36
0
VERTEX
10
8.80886
20
8.95277
30
5.36
0
VERTEX
10
8.80886
20
8.9511
30
5.36
0
SEQEND
0
ENDSEC
0
EOF
