0
SECTION
2
ENTITIES
0
POLYLINE
62
224
66
1
70
1
3
mitochondrion
0
VERTEX
10
9.27
20
8.82228
30
4.64
0
VERTEX
10
9.27417
20
8.81115
30
4.64
0
VERTEX
10
9.28112
20
8.80003
30
4.64
0
VERTEX
10
9.28668
20
8.79447
30
4.64
0
VERTEX
10
9.28807
20
8.78891
30
4.64
0
VERTEX
10
9.29224
20
8.78474
30
4.64
0
VERTEX
10
9.29224
20
8.78196
30
4.64
0
VERTEX
10
9.29502
20
8.77917
30
4.64
0
VERTEX
10
9.29641
20
8.77361
30
4.64
0
VERTEX
10
9.30476
20
8.76388
30
4.64
0
VERTEX
10
9.31032
20
8.75832
30
4.64
0
VERTEX
10
9.32978
20
8.74302
30
4.64
0
VERTEX
10
9.34091
20
8.73746
30
4.64
0
VERTEX
10
9.3423
20
8.73468
30
4.64
0
VERTEX
10
9.34786
20
8.73329
30
4.64
0
VERTEX
10
9.35342
20
8.72912
30
4.64
0
VERTEX
10
9.35898
20
8.72773
30
4.64
0
VERTEX
10
9.36594
20
8.71661
30
4.64
0
VERTEX
10
9.37706
20
8.70687
30
4.64
0
VERTEX
10
9.38123
20
8.70131
30
4.64
0
VERTEX
10
9.39235
20
8.69853
30
4.64
0
VERTEX
10
9.40348
20
8.69158
30
4.64
0
VERTEX
10
9.40626
20
8.69158
30
4.64
0
VERTEX
10
9.40765
20
8.6888
30
4.64
0
VERTEX
10
9.41321
20
8.6888
30
4.64
0
VERTEX
10
9.42433
20
8.68184
30
4.64
0
VERTEX
10
9.51332
20
8.67906
30
4.64
0
VERTEX
10
9.51888
20
8.67906
30
4.64
0
VERTEX
10
9.52166
20
8.67906
30
4.64
0
VERTEX
10
9.52444
20
8.68184
30
4.64
0
VERTEX
10
9.54669
20
8.6888
30
4.64
0
VERTEX
10
9.56755
20
8.70409
30
4.64
0
VERTEX
10
9.57311
20
8.70965
30
4.64
0
VERTEX
10
9.5745
20
8.71243
30
4.64
0
VERTEX
10
9.57728
20
8.71243
30
4.64
0
VERTEX
10
9.5884
20
8.72217
30
4.64
0
VERTEX
10
9.60231
20
8.74302
30
4.64
0
VERTEX
10
9.6037
20
8.76527
30
4.64
0
VERTEX
10
9.60092
20
8.78752
30
4.64
0
VERTEX
10
9.60092
20
8.79864
30
4.64
0
VERTEX
10
9.59675
20
8.8042
30
4.64
0
VERTEX
10
9.59397
20
8.80698
30
4.64
0
VERTEX
10
9.59397
20
8.81811
30
4.64
0
VERTEX
10
9.58701
20
8.83896
30
4.64
0
VERTEX
10
9.58423
20
8.84452
30
4.64
0
VERTEX
10
9.58145
20
8.84731
30
4.64
0
VERTEX
10
9.58006
20
8.85287
30
4.64
0
VERTEX
10
9.58006
20
8.85565
30
4.64
0
VERTEX
10
9.57589
20
8.85982
30
4.64
0
VERTEX
10
9.57589
20
8.87094
30
4.64
0
VERTEX
10
9.5745
20
8.8765
30
4.64
0
VERTEX
10
9.56616
20
8.88624
30
4.64
0
VERTEX
10
9.56199
20
8.8918
30
4.64
0
VERTEX
10
9.55642
20
8.89458
30
4.64
0
VERTEX
10
9.55364
20
8.89458
30
4.64
0
VERTEX
10
9.54808
20
8.89875
30
4.64
0
VERTEX
10
9.53696
20
8.90292
30
4.64
0
VERTEX
10
9.5314
20
8.90431
30
4.64
0
VERTEX
10
9.52027
20
8.91127
30
4.64
0
VERTEX
10
9.47578
20
8.921
30
4.64
0
VERTEX
10
9.45353
20
8.92517
30
4.64
0
VERTEX
10
9.40904
20
8.92517
30
4.64
0
VERTEX
10
9.39792
20
8.92517
30
4.64
0
VERTEX
10
9.37567
20
8.921
30
4.64
0
VERTEX
10
9.36455
20
8.91961
30
4.64
0
VERTEX
10
9.3423
20
8.91127
30
4.64
0
VERTEX
10
9.33118
20
8.90431
30
4.64
0
VERTEX
10
9.32561
20
8.90292
30
4.64
0
VERTEX
10
9.30337
20
8.88902
30
4.64
0
VERTEX
10
9.29502
20
8.88068
30
4.64
0
VERTEX
10
9.28807
20
8.86955
30
4.64
0
VERTEX
10
9.28529
20
8.86677
30
4.64
0
VERTEX
10
9.28529
20
8.86121
30
4.64
0
VERTEX
10
9.27973
20
8.85009
30
4.64
0
VERTEX
10
9.27973
20
8.84731
30
4.64
0
VERTEX
10
9.27695
20
8.84731
30
4.64
0
VERTEX
10
9.27417
20
8.84452
30
4.64
0
VERTEX
10
9.27278
20
8.83896
30
4.64
0
VERTEX
10
9.27278
20
8.83618
30
4.64
0
VERTEX
10
9.27
20
8.83479
30
4.64
0
VERTEX
10
9.27
20
8.82367
30
4.64
0
SEQEND
0
POLYLINE
62
236
66
1
70
1
3
postsynaptic_density
0
VERTEX
10
8.81421
20
9.39087
30
4.64
0
VERTEX
10
8.81794
20
9.38341
30
4.64
0
VERTEX
10
8.81794
20
9.36848
30
4.64
0
VERTEX
10
8.82167
20
9.36101
30
4.64
0
VERTEX
10
8.82167
20
9.35728
30
4.64
0
VERTEX
10
8.83287
20
9.34235
30
4.64
0
VERTEX
10
8.84593
20
9.33488
30
4.64
0
VERTEX
10
8.87579
20
9.32929
30
4.64
0
VERTEX
10
8.93551
20
9.32929
30
4.64
0
VERTEX
10
8.96537
20
9.33302
30
4.64
0
VERTEX
10
8.9803
20
9.33488
30
4.64
0
VERTEX
10
8.98777
20
9.33488
30
4.64
0
VERTEX
10
8.99336
20
9.34048
30
4.64
0
VERTEX
10
9.00083
20
9.34235
30
4.64
0
VERTEX
10
9.02882
20
9.36101
30
4.64
0
VERTEX
10
9.04002
20
9.37221
30
4.64
0
VERTEX
10
9.04562
20
9.37967
30
4.64
0
VERTEX
10
9.04562
20
9.40953
30
4.64
0
VERTEX
10
9.03629
20
9.42446
30
4.64
0
VERTEX
10
9.03442
20
9.4282
30
4.64
0
VERTEX
10
8.91498
20
9.45992
30
4.64
0
VERTEX
10
8.88512
20
9.46739
30
4.64
0
VERTEX
10
8.87019
20
9.46925
30
4.64
0
VERTEX
10
8.84033
20
9.45992
30
4.64
0
VERTEX
10
8.83287
20
9.45806
30
4.64
0
VERTEX
10
8.8198
20
9.44499
30
4.64
0
VERTEX
10
8.81421
20
9.43939
30
4.64
0
VERTEX
10
8.81421
20
9.40953
30
4.64
0
VERTEX
10
8.81421
20
9.3946
30
4.64
0
VERTEX
10
8.81421
20
9.39274
30
4.64
0
SEQEND
0
POLYLINE
62
227
66
1
70
1
3
endoplasmic_reticulum
0
VERTEX
10
9.04192
20
8.72199
30
4.64
0
VERTEX
10
9.05259
20
8.71132
30
4.64
0
VERTEX
10
9.06477
20
8.70675
30
4.64
0
VERTEX
10
9.07696
20
8.7098
30
4.64
0
VERTEX
10
9.08306
20
8.71132
30
4.64
0
VERTEX
10
9.08763
20
8.71742
30
4.64
0
VERTEX
10
9.0861
20
8.74179
30
4.64
0
VERTEX
10
9.08306
20
8.74484
30
4.64
0
VERTEX
10
9.05868
20
8.74941
30
4.64
0
VERTEX
10
9.04649
20
8.75094
30
4.64
0
VERTEX
10
9.04345
20
8.74941
30
4.64
0
VERTEX
10
9.04192
20
8.72504
30
4.64
0
VERTEX
10
9.04192
20
8.72351
30
4.64
0
SEQEND
0
POLYLINE
62
227
66
1
70
1
3
endoplasmic_reticulum
0
VERTEX
10
9.32529
20
8.6321
30
4.64
0
VERTEX
10
9.33596
20
8.62449
30
4.64
0
VERTEX
10
9.34814
20
8.61991
30
4.64
0
VERTEX
10
9.35424
20
8.61839
30
4.64
0
VERTEX
10
9.36643
20
8.61991
30
4.64
0
VERTEX
10
9.37709
20
8.62753
30
4.64
0
VERTEX
10
9.38166
20
8.6321
30
4.64
0
VERTEX
10
9.38318
20
8.64429
30
4.64
0
VERTEX
10
9.38318
20
8.65038
30
4.64
0
VERTEX
10
9.38014
20
8.65496
30
4.64
0
VERTEX
10
9.37404
20
8.65953
30
4.64
0
VERTEX
10
9.34967
20
8.66105
30
4.64
0
VERTEX
10
9.33748
20
8.65953
30
4.64
0
VERTEX
10
9.33139
20
8.658
30
4.64
0
VERTEX
10
9.32681
20
8.65343
30
4.64
0
VERTEX
10
9.32529
20
8.64124
30
4.64
0
VERTEX
10
9.32529
20
8.63515
30
4.64
0
VERTEX
10
9.32529
20
8.63363
30
4.64
0
SEQEND
0
POLYLINE
62
227
66
1
70
1
3
endoplasmic_reticulum
0
VERTEX
10
9.68788
20
8.88196
30
4.64
0
VERTEX
10
9.68941
20
8.86977
30
4.64
0
VERTEX
10
9.69398
20
8.85758
30
4.64
0
VERTEX
10
9.71835
20
8.85606
30
4.64
0
VERTEX
10
9.73968
20
8.86977
30
4.64
0
VERTEX
10
9.74273
20
8.87281
30
4.64
0
VERTEX
10
9.74578
20
8.885
30
4.64
0
VERTEX
10
9.74578
20
8.8911
30
4.64
0
VERTEX
10
9.74273
20
8.89414
30
4.64
0
VERTEX
10
9.71835
20
8.89262
30
4.64
0
VERTEX
10
9.70616
20
8.88805
30
4.64
0
VERTEX
10
9.69702
20
8.89719
30
4.64
0
VERTEX
10
9.69093
20
8.89262
30
4.64
0
VERTEX
10
9.68788
20
8.8911
30
4.64
0
VERTEX
10
9.68788
20
8.885
30
4.64
0
VERTEX
10
9.68788
20
8.88348
30
4.64
0
SEQEND
0
POLYLINE
62
227
66
1
70
1
3
endoplasmic_reticulum
0
VERTEX
10
9.97887
20
8.89414
30
4.64
0
VERTEX
10
9.98192
20
8.8911
30
4.64
0
VERTEX
10
9.98192
20
8.88805
30
4.64
0
VERTEX
10
9.98801
20
8.885
30
4.64
0
VERTEX
10
10.0002
20
8.88653
30
4.64
0
VERTEX
10
10.0109
20
8.8911
30
4.64
0
VERTEX
10
10.017
20
8.89414
30
4.64
0
VERTEX
10
10.02
20
8.89414
30
4.64
0
VERTEX
10
10.0215
20
8.90024
30
4.64
0
VERTEX
10
10.02
20
8.90633
30
4.64
0
VERTEX
10
10.0109
20
8.917
30
4.64
0
VERTEX
10
10.0048
20
8.92157
30
4.64
0
VERTEX
10
9.99258
20
8.92461
30
4.64
0
VERTEX
10
9.98649
20
8.92461
30
4.64
0
VERTEX
10
9.97887
20
8.90024
30
4.64
0
VERTEX
10
9.97887
20
8.89567
30
4.64
0
SEQEND
0
POLYLINE
62
227
66
1
70
1
3
endoplasmic_reticulum
0
VERTEX
10
8.9109
20
8.97032
30
4.64
0
VERTEX
10
8.91395
20
8.96422
30
4.64
0
VERTEX
10
8.91547
20
8.95204
30
4.64
0
VERTEX
10
8.92309
20
8.93985
30
4.64
0
VERTEX
10
8.94747
20
8.93223
30
4.64
0
VERTEX
10
8.95965
20
8.92766
30
4.64
0
VERTEX
10
8.97184
20
8.92614
30
4.64
0
VERTEX
10
8.97794
20
8.92614
30
4.64
0
VERTEX
10
8.98098
20
8.92309
30
4.64
0
VERTEX
10
8.98708
20
8.92309
30
4.64
0
VERTEX
10
8.99012
20
8.92461
30
4.64
0
VERTEX
10
9.00231
20
8.91395
30
4.64
0
VERTEX
10
9.00688
20
8.90785
30
4.64
0
VERTEX
10
9.01145
20
8.89567
30
4.64
0
VERTEX
10
9.00688
20
8.88348
30
4.64
0
VERTEX
10
9.00383
20
8.87738
30
4.64
0
VERTEX
10
9.00383
20
8.87434
30
4.64
0
VERTEX
10
8.99469
20
8.86672
30
4.64
0
VERTEX
10
8.98708
20
8.85606
30
4.64
0
VERTEX
10
8.98251
20
8.84387
30
4.64
0
VERTEX
10
8.98098
20
8.81949
30
4.64
0
VERTEX
10
8.97946
20
8.8134
30
4.64
0
VERTEX
10
8.97946
20
8.81035
30
4.64
0
VERTEX
10
8.96879
20
8.80121
30
4.64
0
VERTEX
10
8.9627
20
8.79664
30
4.64
0
VERTEX
10
8.95965
20
8.79664
30
4.64
0
VERTEX
10
8.95051
20
8.7875
30
4.64
0
VERTEX
10
8.93985
20
8.78445
30
4.64
0
VERTEX
10
8.92766
20
8.77836
30
4.64
0
VERTEX
10
8.92004
20
8.76769
30
4.64
0
VERTEX
10
8.917
20
8.74332
30
4.64
0
VERTEX
10
8.917
20
8.73113
30
4.64
0
VERTEX
10
8.92004
20
8.71894
30
4.64
0
VERTEX
10
8.92157
20
8.71285
30
4.64
0
VERTEX
10
8.92309
20
8.7098
30
4.64
0
VERTEX
10
8.94747
20
8.71132
30
4.64
0
VERTEX
10
8.95965
20
8.71285
30
4.64
0
VERTEX
10
8.98403
20
8.72199
30
4.64
0
VERTEX
10
8.98708
20
8.72199
30
4.64
0
VERTEX
10
8.99317
20
8.72808
30
4.64
0
VERTEX
10
9.00536
20
8.7357
30
4.64
0
VERTEX
10
9.00688
20
8.73875
30
4.64
0
VERTEX
10
9.00536
20
8.74179
30
4.64
0
VERTEX
10
9.00841
20
8.75398
30
4.64
0
VERTEX
10
9.00993
20
8.80273
30
4.64
0
VERTEX
10
9.01145
20
8.81492
30
4.64
0
VERTEX
10
9.01145
20
8.82102
30
4.64
0
VERTEX
10
9.01907
20
8.84539
30
4.64
0
VERTEX
10
9.02212
20
8.85758
30
4.64
0
VERTEX
10
9.02212
20
8.86977
30
4.64
0
VERTEX
10
9.01907
20
8.87586
30
4.64
0
VERTEX
10
9.02059
20
8.88196
30
4.64
0
VERTEX
10
9.04497
20
8.88196
30
4.64
0
VERTEX
10
9.05716
20
8.88348
30
4.64
0
VERTEX
10
9.07392
20
8.90481
30
4.64
0
VERTEX
10
9.08153
20
8.917
30
4.64
0
VERTEX
10
9.08458
20
8.92918
30
4.64
0
VERTEX
10
9.0861
20
8.93528
30
4.64
0
VERTEX
10
9.0861
20
8.93832
30
4.64
0
VERTEX
10
9.10743
20
8.95813
30
4.64
0
VERTEX
10
9.11962
20
8.96575
30
4.64
0
VERTEX
10
9.12876
20
8.97641
30
4.64
0
VERTEX
10
9.13028
20
8.98251
30
4.64
0
VERTEX
10
9.1379
20
8.9886
30
4.64
0
VERTEX
10
9.13638
20
9.00079
30
4.64
0
VERTEX
10
9.13485
20
9.00688
30
4.64
0
VERTEX
10
9.13485
20
9.00993
30
4.64
0
VERTEX
10
9.12876
20
9.01298
30
4.64
0
VERTEX
10
9.10439
20
9.00993
30
4.64
0
VERTEX
10
9.09829
20
9.00841
30
4.64
0
VERTEX
10
9.09524
20
9.00536
30
4.64
0
VERTEX
10
9.0922
20
9.00536
30
4.64
0
VERTEX
10
9.08915
20
9.00231
30
4.64
0
VERTEX
10
9.08306
20
9.00079
30
4.64
0
VERTEX
10
9.08001
20
8.99774
30
4.64
0
VERTEX
10
9.07696
20
8.99774
30
4.64
0
VERTEX
10
9.07392
20
8.99165
30
4.64
0
VERTEX
10
9.04954
20
8.99165
30
4.64
0
VERTEX
10
9.04345
20
8.99012
30
4.64
0
VERTEX
10
9.03888
20
8.98403
30
4.64
0
VERTEX
10
9.03583
20
8.98098
30
4.64
0
VERTEX
10
9.02973
20
8.97946
30
4.64
0
VERTEX
10
9.02059
20
8.97032
30
4.64
0
VERTEX
10
8.99622
20
8.96879
30
4.64
0
VERTEX
10
8.97184
20
8.96422
30
4.64
0
VERTEX
10
8.94747
20
8.97184
30
4.64
0
VERTEX
10
8.92309
20
8.97489
30
4.64
0
VERTEX
10
8.917
20
8.97489
30
4.64
0
VERTEX
10
8.91395
20
8.97489
30
4.64
0
VERTEX
10
8.9109
20
8.97184
30
4.64
0
SEQEND
0
POLYLINE
62
227
66
1
70
1
3
endoplasmic_reticulum
0
VERTEX
10
9.48983
20
9.02212
30
4.64
0
VERTEX
10
9.49745
20
9.01145
30
4.64
0
VERTEX
10
9.50354
20
9.01145
30
4.64
0
VERTEX
10
9.50963
20
9.00841
30
4.64
0
VERTEX
10
9.52182
20
9.00841
30
4.64
0
VERTEX
10
9.53401
20
9.01145
30
4.64
0
VERTEX
10
9.5462
20
9.01145
30
4.64
0
VERTEX
10
9.56296
20
9.0343
30
4.64
0
VERTEX
10
9.566
20
9.0343
30
4.64
0
VERTEX
10
9.57667
20
9.04649
30
4.64
0
VERTEX
10
9.57971
20
9.04802
30
4.64
0
VERTEX
10
9.57971
20
9.05411
30
4.64
0
VERTEX
10
9.58276
20
9.0602
30
4.64
0
VERTEX
10
9.58276
20
9.0663
30
4.64
0
VERTEX
10
9.58276
20
9.06934
30
4.64
0
VERTEX
10
9.57971
20
9.07239
30
4.64
0
VERTEX
10
9.57819
20
9.07849
30
4.64
0
VERTEX
10
9.57362
20
9.08458
30
4.64
0
VERTEX
10
9.57057
20
9.08763
30
4.64
0
VERTEX
10
9.56753
20
9.08763
30
4.64
0
VERTEX
10
9.56143
20
9.09372
30
4.64
0
VERTEX
10
9.54924
20
9.0922
30
4.64
0
VERTEX
10
9.54315
20
9.08915
30
4.64
0
VERTEX
10
9.5401
20
9.0861
30
4.64
0
VERTEX
10
9.5401
20
9.07392
30
4.64
0
VERTEX
10
9.52944
20
9.06934
30
4.64
0
VERTEX
10
9.51725
20
9.06782
30
4.64
0
VERTEX
10
9.51116
20
9.06782
30
4.64
0
VERTEX
10
9.50506
20
9.06477
30
4.64
0
VERTEX
10
9.50202
20
9.06477
30
4.64
0
VERTEX
10
9.50049
20
9.05868
30
4.64
0
VERTEX
10
9.4944
20
9.05259
30
4.64
0
VERTEX
10
9.4944
20
9.04954
30
4.64
0
VERTEX
10
9.49135
20
9.04649
30
4.64
0
VERTEX
10
9.48983
20
9.02364
30
4.64
0
SEQEND
0
POLYLINE
62
31
66
1
70
1
3
contour
0
VERTEX
10
8.51914
20
9.18276
30
4.64
0
VERTEX
10
8.52976
20
9.17038
30
4.64
0
VERTEX
10
8.54215
20
9.16153
30
4.64
0
VERTEX
10
8.55454
20
9.14914
30
4.64
0
VERTEX
10
8.55984
20
9.13498
30
4.64
0
VERTEX
10
8.56338
20
9.10667
30
4.64
0
VERTEX
10
8.56338
20
9.05004
30
4.64
0
VERTEX
10
8.56515
20
9.02173
30
4.64
0
VERTEX
10
8.56515
20
9.00757
30
4.64
0
VERTEX
10
8.574
20
8.97925
30
4.64
0
VERTEX
10
8.58462
20
8.96864
30
4.64
0
VERTEX
10
8.58816
20
8.9651
30
4.64
0
VERTEX
10
8.61647
20
8.95625
30
4.64
0
VERTEX
10
8.62355
20
8.95271
30
4.64
0
VERTEX
10
8.63771
20
8.95271
30
4.64
0
VERTEX
10
8.65187
20
8.95802
30
4.64
0
VERTEX
10
8.66425
20
8.96687
30
4.64
0
VERTEX
10
8.66779
20
8.96864
30
4.64
0
VERTEX
10
8.66956
20
8.97571
30
4.64
0
VERTEX
10
8.67841
20
8.9881
30
4.64
0
VERTEX
10
8.68195
20
8.99518
30
4.64
0
VERTEX
10
8.68903
20
8.99695
30
4.64
0
VERTEX
10
8.69257
20
8.99695
30
4.64
0
VERTEX
10
8.69788
20
9.00226
30
4.64
0
VERTEX
10
8.71204
20
9.0058
30
4.64
0
VERTEX
10
8.71911
20
9.00934
30
4.64
0
VERTEX
10
8.74743
20
9.01288
30
4.64
0
VERTEX
10
8.77574
20
9.01996
30
4.64
0
VERTEX
10
8.78105
20
9.02526
30
4.64
0
VERTEX
10
8.78282
20
9.03057
30
4.64
0
VERTEX
10
8.79167
20
9.03942
30
4.64
0
VERTEX
10
8.80583
20
9.04119
30
4.64
0
VERTEX
10
8.81291
20
9.0465
30
4.64
0
VERTEX
10
8.82706
20
9.04827
30
4.64
0
VERTEX
10
8.83414
20
9.04827
30
4.64
0
VERTEX
10
8.83768
20
9.04827
30
4.64
0
VERTEX
10
8.84122
20
9.05181
30
4.64
0
VERTEX
10
8.86953
20
9.05358
30
4.64
0
VERTEX
10
8.89785
20
9.05889
30
4.64
0
VERTEX
10
8.90316
20
9.06597
30
4.64
0
VERTEX
10
8.9297
20
9.08366
30
4.64
0
VERTEX
10
8.94209
20
9.09074
30
4.64
0
VERTEX
10
8.9474
20
9.09605
30
4.64
0
VERTEX
10
8.95094
20
9.09605
30
4.64
0
VERTEX
10
8.95625
20
9.10313
30
4.64
0
VERTEX
10
8.97041
20
9.1049
30
4.64
0
VERTEX
10
8.98456
20
9.11198
30
4.64
0
VERTEX
10
8.99518
20
9.12437
30
4.64
0
VERTEX
10
9.00049
20
9.13675
30
4.64
0
VERTEX
10
9.00934
20
9.15091
30
4.64
0
VERTEX
10
9.01111
20
9.15799
30
4.64
0
VERTEX
10
9.02703
20
9.18453
30
4.64
0
VERTEX
10
9.03588
20
9.19692
30
4.64
0
VERTEX
10
9.03942
20
9.204
30
4.64
0
VERTEX
10
9.0465
20
9.21108
30
4.64
0
VERTEX
10
9.0465
20
9.21462
30
4.64
0
VERTEX
10
9.05004
20
9.21816
30
4.64
0
VERTEX
10
9.05181
20
9.22524
30
4.64
0
VERTEX
10
9.05889
20
9.22524
30
4.64
0
VERTEX
10
9.08366
20
9.24824
30
4.64
0
VERTEX
10
9.09782
20
9.2624
30
4.64
0
VERTEX
10
9.10313
20
9.26594
30
4.64
0
VERTEX
10
9.11198
20
9.27833
30
4.64
0
VERTEX
10
9.11375
20
9.30664
30
4.64
0
VERTEX
10
9.10844
20
9.33496
30
4.64
0
VERTEX
10
9.10313
20
9.34911
30
4.64
0
VERTEX
10
9.09251
20
9.3615
30
4.64
0
VERTEX
10
9.08543
20
9.36858
30
4.64
0
VERTEX
10
9.07835
20
9.37035
30
4.64
0
VERTEX
10
9.07128
20
9.37566
30
4.64
0
VERTEX
10
9.04296
20
9.37743
30
4.64
0
VERTEX
10
8.98633
20
9.38628
30
4.64
0
VERTEX
10
8.97218
20
9.38981
30
4.64
0
VERTEX
10
8.96864
20
9.38981
30
4.64
0
VERTEX
10
8.96156
20
9.39689
30
4.64
0
VERTEX
10
8.93324
20
9.39866
30
4.64
0
VERTEX
10
8.91909
20
9.39866
30
4.64
0
VERTEX
10
8.89077
20
9.40397
30
4.64
0
VERTEX
10
8.86246
20
9.40574
30
4.64
0
VERTEX
10
8.85892
20
9.40574
30
4.64
0
VERTEX
10
8.85184
20
9.40043
30
4.64
0
VERTEX
10
8.82352
20
9.39335
30
4.64
0
VERTEX
10
8.81644
20
9.39158
30
4.64
0
VERTEX
10
8.75982
20
9.39512
30
4.64
0
VERTEX
10
8.74566
20
9.39512
30
4.64
0
VERTEX
10
8.7315
20
9.39158
30
4.64
0
VERTEX
10
8.72442
20
9.38981
30
4.64
0
VERTEX
10
8.71734
20
9.38451
30
4.64
0
VERTEX
10
8.7138
20
9.38451
30
4.64
0
VERTEX
10
8.71027
20
9.38097
30
4.64
0
VERTEX
10
8.7138
20
9.37743
30
4.64
0
VERTEX
10
8.69965
20
9.36858
30
4.64
0
VERTEX
10
8.68903
20
9.35442
30
4.64
0
VERTEX
10
8.68372
20
9.34734
30
4.64
0
VERTEX
10
8.68018
20
9.34557
30
4.64
0
VERTEX
10
8.67841
20
9.33142
30
4.64
0
VERTEX
10
8.66956
20
9.31903
30
4.64
0
VERTEX
10
8.65718
20
9.30487
30
4.64
0
VERTEX
10
8.6324
20
9.28717
30
4.64
0
VERTEX
10
8.62001
20
9.2801
30
4.64
0
VERTEX
10
8.61824
20
9.27656
30
4.64
0
VERTEX
10
8.6147
20
9.27656
30
4.64
0
VERTEX
10
8.61116
20
9.27302
30
4.64
0
VERTEX
10
8.60763
20
9.27302
30
4.64
0
VERTEX
10
8.60055
20
9.26771
30
4.64
0
VERTEX
10
8.59701
20
9.26063
30
4.64
0
VERTEX
10
8.57046
20
9.24116
30
4.64
0
VERTEX
10
8.55807
20
9.23232
30
4.64
0
VERTEX
10
8.54392
20
9.22701
30
4.64
0
VERTEX
10
8.53684
20
9.2217
30
4.64
0
VERTEX
10
8.5333
20
9.22347
30
4.64
0
VERTEX
10
8.52622
20
9.21816
30
4.64
0
VERTEX
10
8.52445
20
9.21108
30
4.64
0
VERTEX
10
8.51914
20
9.204
30
4.64
0
VERTEX
10
8.51914
20
9.18984
30
4.64
0
VERTEX
10
8.51914
20
9.18453
30
4.64
0
SEQEND
0
POLYLINE
62
31
66
1
70
1
3
contour
0
VERTEX
10
8.71214
20
8.60735
30
4.64
0
VERTEX
10
8.71656
20
8.58373
30
4.64
0
VERTEX
10
8.72099
20
8.57193
30
4.64
0
VERTEX
10
8.72542
20
8.5675
30
4.64
0
VERTEX
10
8.72542
20
8.56455
30
4.64
0
VERTEX
10
8.73132
20
8.56012
30
4.64
0
VERTEX
10
8.73427
20
8.55569
30
4.64
0
VERTEX
10
8.74018
20
8.55422
30
4.64
0
VERTEX
10
8.74608
20
8.54979
30
4.64
0
VERTEX
10
8.75198
20
8.54831
30
4.64
0
VERTEX
10
8.75936
20
8.54093
30
4.64
0
VERTEX
10
8.77117
20
8.53798
30
4.64
0
VERTEX
10
8.77707
20
8.53798
30
4.64
0
VERTEX
10
8.80069
20
8.52765
30
4.64
0
VERTEX
10
8.8125
20
8.52322
30
4.64
0
VERTEX
10
8.8184
20
8.51879
30
4.64
0
VERTEX
10
8.84201
20
8.51142
30
4.64
0
VERTEX
10
8.84792
20
8.51142
30
4.64
0
VERTEX
10
8.85087
20
8.50846
30
4.64
0
VERTEX
10
8.87448
20
8.50551
30
4.64
0
VERTEX
10
8.88039
20
8.50256
30
4.64
0
VERTEX
10
8.92761
20
8.50108
30
4.64
0
VERTEX
10
8.93942
20
8.49961
30
4.64
0
VERTEX
10
8.94532
20
8.49961
30
4.64
0
VERTEX
10
8.9468
20
8.49813
30
4.64
0
VERTEX
10
8.94532
20
8.49518
30
4.64
0
VERTEX
10
8.94828
20
8.49223
30
4.64
0
VERTEX
10
8.96008
20
8.49075
30
4.64
0
VERTEX
10
8.96304
20
8.48928
30
4.64
0
VERTEX
10
8.96599
20
8.4937
30
4.64
0
VERTEX
10
9.01322
20
8.49075
30
4.64
0
VERTEX
10
9.06044
20
8.49518
30
4.64
0
VERTEX
10
9.06635
20
8.49813
30
4.64
0
VERTEX
10
9.07815
20
8.49961
30
4.64
0
VERTEX
10
9.08406
20
8.50108
30
4.64
0
VERTEX
10
9.08996
20
8.50551
30
4.64
0
VERTEX
10
9.09587
20
8.50699
30
4.64
0
VERTEX
10
9.09882
20
8.50994
30
4.64
0
VERTEX
10
9.10472
20
8.50994
30
4.64
0
VERTEX
10
9.11653
20
8.51437
30
4.64
0
VERTEX
10
9.12686
20
8.52175
30
4.64
0
VERTEX
10
9.13276
20
8.52765
30
4.64
0
VERTEX
10
9.13571
20
8.52765
30
4.64
0
VERTEX
10
9.15785
20
8.54388
30
4.64
0
VERTEX
10
9.15933
20
8.54684
30
4.64
0
VERTEX
10
9.18147
20
8.55422
30
4.64
0
VERTEX
10
9.18737
20
8.55717
30
4.64
0
VERTEX
10
9.19032
20
8.56012
30
4.64
0
VERTEX
10
9.20213
20
8.56012
30
4.64
0
VERTEX
10
9.20803
20
8.56012
30
4.64
0
VERTEX
10
9.21394
20
8.56455
30
4.64
0
VERTEX
10
9.21689
20
8.56307
30
4.64
0
VERTEX
10
9.22279
20
8.56602
30
4.64
0
VERTEX
10
9.27002
20
8.56602
30
4.64
0
VERTEX
10
9.27592
20
8.56602
30
4.64
0
VERTEX
10
9.28035
20
8.57783
30
4.64
0
VERTEX
10
9.29216
20
8.58078
30
4.64
0
VERTEX
10
9.33939
20
8.58226
30
4.64
0
VERTEX
10
9.38661
20
8.57635
30
4.64
0
VERTEX
10
9.39252
20
8.57635
30
4.64
0
VERTEX
10
9.40432
20
8.57045
30
4.64
0
VERTEX
10
9.41023
20
8.56455
30
4.64
0
VERTEX
10
9.50468
20
8.56602
30
4.64
0
VERTEX
10
9.5283
20
8.56602
30
4.64
0
VERTEX
10
9.57553
20
8.5734
30
4.64
0
VERTEX
10
9.58733
20
8.57783
30
4.64
0
VERTEX
10
9.59324
20
8.58226
30
4.64
0
VERTEX
10
9.59324
20
8.58521
30
4.64
0
VERTEX
10
9.61685
20
8.58964
30
4.64
0
VERTEX
10
9.62276
20
8.59259
30
4.64
0
VERTEX
10
9.62423
20
8.59554
30
4.64
0
VERTEX
10
9.62718
20
8.59554
30
4.64
0
VERTEX
10
9.63013
20
8.59849
30
4.64
0
VERTEX
10
9.63604
20
8.59997
30
4.64
0
VERTEX
10
9.64194
20
8.6044
30
4.64
0
VERTEX
10
9.64194
20
8.60735
30
4.64
0
VERTEX
10
9.66556
20
8.6103
30
4.64
0
VERTEX
10
9.67736
20
8.61473
30
4.64
0
VERTEX
10
9.68327
20
8.6162
30
4.64
0
VERTEX
10
9.69065
20
8.62653
30
4.64
0
VERTEX
10
9.69655
20
8.62949
30
4.64
0
VERTEX
10
9.70393
20
8.64129
30
4.64
0
VERTEX
10
9.7054
20
8.64424
30
4.64
0
VERTEX
10
9.70836
20
8.64424
30
4.64
0
VERTEX
10
9.70983
20
8.65015
30
4.64
0
VERTEX
10
9.70393
20
8.66196
30
4.64
0
VERTEX
10
9.70098
20
8.67376
30
4.64
0
VERTEX
10
9.70098
20
8.67967
30
4.64
0
VERTEX
10
9.69803
20
8.68262
30
4.64
0
VERTEX
10
9.6936
20
8.70623
30
4.64
0
VERTEX
10
9.6936
20
8.72985
30
4.64
0
VERTEX
10
9.69655
20
8.75346
30
4.64
0
VERTEX
10
9.69803
20
8.75936
30
4.64
0
VERTEX
10
9.71574
20
8.78003
30
4.64
0
VERTEX
10
9.72459
20
8.79036
30
4.64
0
VERTEX
10
9.72902
20
8.79774
30
4.64
0
VERTEX
10
9.74083
20
8.80069
30
4.64
0
VERTEX
10
9.74673
20
8.80512
30
4.64
0
VERTEX
10
9.75854
20
8.80512
30
4.64
0
VERTEX
10
9.76149
20
8.80512
30
4.64
0
VERTEX
10
9.76739
20
8.80954
30
4.64
0
VERTEX
10
9.7733
20
8.81102
30
4.64
0
VERTEX
10
9.7792
20
8.81545
30
4.64
0
VERTEX
10
9.80281
20
8.81397
30
4.64
0
VERTEX
10
9.81462
20
8.81397
30
4.64
0
VERTEX
10
9.82052
20
8.81397
30
4.64
0
VERTEX
10
9.83233
20
8.80954
30
4.64
0
VERTEX
10
9.87956
20
8.80364
30
4.64
0
VERTEX
10
9.89137
20
8.80216
30
4.64
0
VERTEX
10
9.90317
20
8.80512
30
4.64
0
VERTEX
10
9.90908
20
8.80954
30
4.64
0
VERTEX
10
9.93269
20
8.81397
30
4.64
0
VERTEX
10
9.97992
20
8.81692
30
4.64
0
VERTEX
10
10.0035
20
8.82135
30
4.64
0
VERTEX
10
10.0271
20
8.82283
30
4.64
0
VERTEX
10
10.0331
20
8.8243
30
4.64
0
VERTEX
10
10.039
20
8.82873
30
4.64
0
VERTEX
10
10.0508
20
8.82873
30
4.64
0
VERTEX
10
10.0537
20
8.83168
30
4.64
0
VERTEX
10
10.0655
20
8.83463
30
4.64
0
VERTEX
10
10.0773
20
8.84054
30
4.64
0
VERTEX
10
10.0832
20
8.84054
30
4.64
0
VERTEX
10
10.0936
20
8.84939
30
4.64
0
VERTEX
10
10.1054
20
8.8553
30
4.64
0
VERTEX
10
10.1113
20
8.85825
30
4.64
0
VERTEX
10
10.1172
20
8.86415
30
4.64
0
VERTEX
10
10.1231
20
8.8671
30
4.64
0
VERTEX
10
10.126
20
8.8671
30
4.64
0
VERTEX
10
10.1364
20
8.87743
30
4.64
0
VERTEX
10
10.1423
20
8.88186
30
4.64
0
VERTEX
10
10.1467
20
8.90548
30
4.64
0
VERTEX
10
10.1467
20
8.91728
30
4.64
0
VERTEX
10
10.1467
20
8.92023
30
4.64
0
VERTEX
10
10.1437
20
8.92171
30
4.64
0
VERTEX
10
10.1423
20
8.92761
30
4.64
0
VERTEX
10
10.1305
20
8.93204
30
4.64
0
VERTEX
10
10.1246
20
8.93499
30
4.64
0
VERTEX
10
10.1157
20
8.94532
30
4.64
0
VERTEX
10
10.0936
20
8.96008
30
4.64
0
VERTEX
10
10.0877
20
8.96451
30
4.64
0
VERTEX
10
10.0847
20
8.96746
30
4.64
0
VERTEX
10
10.0818
20
8.96746
30
4.64
0
VERTEX
10
10.0714
20
8.97632
30
4.64
0
VERTEX
10
10.0655
20
8.97927
30
4.64
0
VERTEX
10
10.0567
20
8.99108
30
4.64
0
VERTEX
10
10.0508
20
8.99551
30
4.64
0
VERTEX
10
10.0478
20
8.99551
30
4.64
0
VERTEX
10
10.0419
20
8.99993
30
4.64
0
VERTEX
10
10.0301
20
9.00141
30
4.64
0
VERTEX
10
10.0242
20
9.00141
30
4.64
0
VERTEX
10
10.0212
20
8.99846
30
4.64
0
VERTEX
10
10.0094
20
8.99846
30
4.64
0
VERTEX
10
10.0035
20
8.99846
30
4.64
0
VERTEX
10
9.99763
20
8.99551
30
4.64
0
VERTEX
10
9.98582
20
8.99551
30
4.64
0
VERTEX
10
9.97992
20
8.99551
30
4.64
0
VERTEX
10
9.97697
20
8.99551
30
4.64
0
VERTEX
10
9.97402
20
8.99255
30
4.64
0
VERTEX
10
9.96221
20
8.99255
30
4.64
0
VERTEX
10
9.9563
20
8.99255
30
4.64
0
VERTEX
10
9.95335
20
8.99255
30
4.64
0
VERTEX
10
9.94302
20
8.98517
30
4.64
0
VERTEX
10
9.93121
20
8.98517
30
4.64
0
VERTEX
10
9.92531
20
8.98517
30
4.64
0
VERTEX
10
9.9135
20
8.97927
30
4.64
0
VERTEX
10
9.9076
20
8.97779
30
4.64
0
VERTEX
10
9.90465
20
8.97779
30
4.64
0
VERTEX
10
9.90317
20
8.97484
30
4.64
0
VERTEX
10
9.89137
20
8.97189
30
4.64
0
VERTEX
10
9.88546
20
8.96746
30
4.64
0
VERTEX
10
9.88251
20
8.96451
30
4.64
0
VERTEX
10
9.8707
20
8.96008
30
4.64
0
VERTEX
10
9.84709
20
8.96008
30
4.64
0
VERTEX
10
9.79986
20
8.95418
30
4.64
0
VERTEX
10
9.79396
20
8.95418
30
4.64
0
VERTEX
10
9.78805
20
8.95713
30
4.64
0
VERTEX
10
9.76444
20
8.95861
30
4.64
0
VERTEX
10
9.76149
20
8.95861
30
4.64
0
VERTEX
10
9.75854
20
8.96156
30
4.64
0
VERTEX
10
9.73492
20
8.96156
30
4.64
0
VERTEX
10
9.72902
20
8.96304
30
4.64
0
VERTEX
10
9.71721
20
8.97042
30
4.64
0
VERTEX
10
9.70983
20
8.98222
30
4.64
0
VERTEX
10
9.70688
20
8.98517
30
4.64
0
VERTEX
10
9.7054
20
8.99108
30
4.64
0
VERTEX
10
9.69507
20
9.00288
30
4.64
0
VERTEX
10
9.68179
20
9.02502
30
4.64
0
VERTEX
10
9.67884
20
9.03683
30
4.64
0
VERTEX
10
9.67736
20
9.04273
30
4.64
0
VERTEX
10
9.6626
20
9.06635
30
4.64
0
VERTEX
10
9.6567
20
9.07815
30
4.64
0
VERTEX
10
9.65227
20
9.08406
30
4.64
0
VERTEX
10
9.64932
20
9.09587
30
4.64
0
VERTEX
10
9.64785
20
9.10029
30
4.64
0
VERTEX
10
9.64932
20
9.10324
30
4.64
0
VERTEX
10
9.64637
20
9.1062
30
4.64
0
VERTEX
10
9.64637
20
9.1121
30
4.64
0
VERTEX
10
9.64342
20
9.118
30
4.64
0
VERTEX
10
9.64047
20
9.12096
30
4.64
0
VERTEX
10
9.63751
20
9.13276
30
4.64
0
VERTEX
10
9.63456
20
9.13867
30
4.64
0
VERTEX
10
9.63309
20
9.18589
30
4.64
0
VERTEX
10
9.61242
20
9.20213
30
4.64
0
VERTEX
10
9.60652
20
9.20508
30
4.64
0
VERTEX
10
9.59471
20
9.2036
30
4.64
0
VERTEX
10
9.58291
20
9.19918
30
4.64
0
VERTEX
10
9.5711
20
9.1918
30
4.64
0
VERTEX
10
9.5652
20
9.19032
30
4.64
0
VERTEX
10
9.56372
20
9.18737
30
4.64
0
VERTEX
10
9.55782
20
9.18737
30
4.64
0
VERTEX
10
9.54601
20
9.17851
30
4.64
0
VERTEX
10
9.5342
20
9.17409
30
4.64
0
VERTEX
10
9.5224
20
9.17261
30
4.64
0
VERTEX
10
9.49878
20
9.16228
30
4.64
0
VERTEX
10
9.49583
20
9.15638
30
4.64
0
VERTEX
10
9.48993
20
9.15342
30
4.64
0
VERTEX
10
9.48402
20
9.15342
30
4.64
0
VERTEX
10
9.47222
20
9.14605
30
4.64
0
VERTEX
10
9.47222
20
9.14309
30
4.64
0
VERTEX
10
9.45008
20
9.13424
30
4.64
0
VERTEX
10
9.43975
20
9.12686
30
4.64
0
VERTEX
10
9.43679
20
9.12391
30
4.64
0
VERTEX
10
9.42499
20
9.12096
30
4.64
0
VERTEX
10
9.41466
20
9.11358
30
4.64
0
VERTEX
10
9.40285
20
9.10915
30
4.64
0
VERTEX
10
9.39104
20
9.10767
30
4.64
0
VERTEX
10
9.34381
20
9.08996
30
4.64
0
VERTEX
10
9.33201
20
9.08996
30
4.64
0
VERTEX
10
9.3202
20
9.08701
30
4.64
0
VERTEX
10
9.3143
20
9.08406
30
4.64
0
VERTEX
10
9.26707
20
9.07668
30
4.64
0
VERTEX
10
9.24345
20
9.0752
30
4.64
0
VERTEX
10
9.21984
20
9.07668
30
4.64
0
VERTEX
10
9.19623
20
9.07225
30
4.64
0
VERTEX
10
9.17261
20
9.07373
30
4.64
0
VERTEX
10
9.1608
20
9.07373
30
4.64
0
VERTEX
10
9.149
20
9.07078
30
4.64
0
VERTEX
10
9.13719
20
9.07078
30
4.64
0
VERTEX
10
9.13424
20
9.07078
30
4.64
0
VERTEX
10
9.12833
20
9.06635
30
4.64
0
VERTEX
10
9.11653
20
9.0634
30
4.64
0
VERTEX
10
9.09291
20
9.0634
30
4.64
0
VERTEX
10
9.08701
20
9.0634
30
4.64
0
VERTEX
10
9.08111
20
9.06044
30
4.64
0
VERTEX
10
9.05749
20
9.05602
30
4.64
0
VERTEX
10
9.05454
20
9.05602
30
4.64
0
VERTEX
10
9.05159
20
9.05306
30
4.64
0
VERTEX
10
9.02797
20
9.04421
30
4.64
0
VERTEX
10
9.00436
20
9.0324
30
4.64
0
VERTEX
10
8.99993
20
9.0265
30
4.64
0
VERTEX
10
8.97632
20
9.01617
30
4.64
0
VERTEX
10
8.97042
20
9.01322
30
4.64
0
VERTEX
10
8.96451
20
9.01322
30
4.64
0
VERTEX
10
8.95861
20
9.01026
30
4.64
0
VERTEX
10
8.93499
20
9.00584
30
4.64
0
VERTEX
10
8.92319
20
9.00141
30
4.64
0
VERTEX
10
8.92023
20
8.99551
30
4.64
0
VERTEX
10
8.91728
20
8.99255
30
4.64
0
VERTEX
10
8.91138
20
8.99108
30
4.64
0
VERTEX
10
8.90843
20
8.9896
30
4.64
0
VERTEX
10
8.90843
20
8.98665
30
4.64
0
VERTEX
10
8.90548
20
8.9837
30
4.64
0
VERTEX
10
8.90252
20
8.9837
30
4.64
0
VERTEX
10
8.8981
20
8.97779
30
4.64
0
VERTEX
10
8.89514
20
8.97779
30
4.64
0
VERTEX
10
8.89219
20
8.97484
30
4.64
0
VERTEX
10
8.89219
20
8.96894
30
4.64
0
VERTEX
10
8.88777
20
8.95713
30
4.64
0
VERTEX
10
8.88924
20
8.94532
30
4.64
0
VERTEX
10
8.89367
20
8.93352
30
4.64
0
VERTEX
10
8.89662
20
8.92761
30
4.64
0
VERTEX
10
8.89957
20
8.88039
30
4.64
0
VERTEX
10
8.89957
20
8.86858
30
4.64
0
VERTEX
10
8.89514
20
8.84644
30
4.64
0
VERTEX
10
8.89367
20
8.84054
30
4.64
0
VERTEX
10
8.89072
20
8.83759
30
4.64
0
VERTEX
10
8.88924
20
8.83168
30
4.64
0
VERTEX
10
8.88481
20
8.82725
30
4.64
0
VERTEX
10
8.88334
20
8.82135
30
4.64
0
VERTEX
10
8.87596
20
8.81102
30
4.64
0
VERTEX
10
8.8671
20
8.80364
30
4.64
0
VERTEX
10
8.8553
20
8.79331
30
4.64
0
VERTEX
10
8.84349
20
8.78888
30
4.64
0
VERTEX
10
8.83759
20
8.78741
30
4.64
0
VERTEX
10
8.82873
20
8.7756
30
4.64
0
VERTEX
10
8.82725
20
8.77265
30
4.64
0
VERTEX
10
8.8243
20
8.77265
30
4.64
0
VERTEX
10
8.82135
20
8.76674
30
4.64
0
VERTEX
10
8.81545
20
8.76527
30
4.64
0
VERTEX
10
8.80512
20
8.75494
30
4.64
0
VERTEX
10
8.7815
20
8.74165
30
4.64
0
VERTEX
10
8.77265
20
8.73132
30
4.64
0
VERTEX
10
8.76969
20
8.72837
30
4.64
0
VERTEX
10
8.76674
20
8.72837
30
4.64
0
VERTEX
10
8.75494
20
8.71656
30
4.64
0
VERTEX
10
8.75198
20
8.71656
30
4.64
0
VERTEX
10
8.74903
20
8.71066
30
4.64
0
VERTEX
10
8.7387
20
8.70328
30
4.64
0
VERTEX
10
8.73723
20
8.69738
30
4.64
0
VERTEX
10
8.73132
20
8.69295
30
4.64
0
VERTEX
10
8.73132
20
8.69
30
4.64
0
VERTEX
10
8.72542
20
8.68557
30
4.64
0
VERTEX
10
8.72394
20
8.66196
30
4.64
0
VERTEX
10
8.72542
20
8.65605
30
4.64
0
VERTEX
10
8.72394
20
8.63244
30
4.64
0
VERTEX
10
8.72247
20
8.62949
30
4.64
0
VERTEX
10
8.71656
20
8.62801
30
4.64
0
VERTEX
10
8.71361
20
8.6162
30
4.64
0
VERTEX
10
8.71214
20
8.6103
30
4.64
0
VERTEX
10
8.71214
20
8.60882
30
4.64
0
SEQEND
0
ENDSEC
0
EOF
