0
SECTION
2
ENTITIES
0
POLYLINE
62
31
66
1
70
1
3
contour
0
VERTEX
10
8.81406
20
8.82293
30
5
0
VERTEX
10
8.82737
20
8.78745
30
5
0
VERTEX
10
8.82737
20
8.77858
30
5
0
VERTEX
10
8.83845
20
8.76306
30
5
0
VERTEX
10
8.84067
20
8.75419
30
5
0
VERTEX
10
8.84732
20
8.74532
30
5
0
VERTEX
10
8.85176
20
8.72758
30
5
0
VERTEX
10
8.88058
20
8.69654
30
5
0
VERTEX
10
8.88945
20
8.69211
30
5
0
VERTEX
10
8.90719
20
8.69211
30
5
0
VERTEX
10
8.97815
20
8.70985
30
5
0
VERTEX
10
9.01363
20
8.72315
30
5
0
VERTEX
10
9.08458
20
8.72537
30
5
0
VERTEX
10
9.09345
20
8.72537
30
5
0
VERTEX
10
9.09789
20
8.7298
30
5
0
VERTEX
10
9.11563
20
8.7298
30
5
0
VERTEX
10
9.12449
20
8.73424
30
5
0
VERTEX
10
9.14223
20
8.73645
30
5
0
VERTEX
10
9.14667
20
8.74089
30
5
0
VERTEX
10
9.16441
20
8.74532
30
5
0
VERTEX
10
9.18215
20
8.74532
30
5
0
VERTEX
10
9.2531
20
8.77193
30
5
0
VERTEX
10
9.26197
20
8.77415
30
5
0
VERTEX
10
9.27084
20
8.7808
30
5
0
VERTEX
10
9.30632
20
8.78745
30
5
0
VERTEX
10
9.32406
20
8.78967
30
5
0
VERTEX
10
9.3418
20
8.80076
30
5
0
VERTEX
10
9.34845
20
8.80963
30
5
0
VERTEX
10
9.35732
20
8.81185
30
5
0
VERTEX
10
9.36175
20
8.82071
30
5
0
VERTEX
10
9.36175
20
8.85619
30
5
0
VERTEX
10
9.36397
20
8.87393
30
5
0
VERTEX
10
9.37284
20
8.89167
30
5
0
VERTEX
10
9.37506
20
8.90941
30
5
0
VERTEX
10
9.39501
20
8.94267
30
5
0
VERTEX
10
9.40167
20
8.96041
30
5
0
VERTEX
10
9.4061
20
8.96928
30
5
0
VERTEX
10
9.41054
20
8.97371
30
5
0
VERTEX
10
9.41497
20
8.99145
30
5
0
VERTEX
10
9.41719
20
9.00032
30
5
0
VERTEX
10
9.42162
20
9.00476
30
5
0
VERTEX
10
9.42384
20
9.0225
30
5
0
VERTEX
10
9.42384
20
9.03137
30
5
0
VERTEX
10
9.41941
20
9.04023
30
5
0
VERTEX
10
9.41941
20
9.04467
30
5
0
VERTEX
10
9.40388
20
9.05576
30
5
0
VERTEX
10
9.39945
20
9.06019
30
5
0
VERTEX
10
9.39058
20
9.06241
30
5
0
VERTEX
10
9.38171
20
9.06906
30
5
0
VERTEX
10
9.36397
20
9.0735
30
5
0
VERTEX
10
9.35954
20
9.07793
30
5
0
VERTEX
10
9.3551
20
9.07793
30
5
0
VERTEX
10
9.31741
20
9.10454
30
5
0
VERTEX
10
9.29967
20
9.11119
30
5
0
VERTEX
10
9.26419
20
9.11341
30
5
0
VERTEX
10
9.24645
20
9.11119
30
5
0
VERTEX
10
9.22871
20
9.11341
30
5
0
VERTEX
10
9.19323
20
9.09789
30
5
0
VERTEX
10
9.17771
20
9.09123
30
5
0
VERTEX
10
9.16884
20
9.08458
30
5
0
VERTEX
10
9.15997
20
9.08458
30
5
0
VERTEX
10
9.14223
20
9.07571
30
5
0
VERTEX
10
9.10676
20
9.06463
30
5
0
VERTEX
10
9.08902
20
9.06463
30
5
0
VERTEX
10
9.08458
20
9.06019
30
5
0
VERTEX
10
9.0491
20
9.05797
30
5
0
VERTEX
10
9.01363
20
9.05132
30
5
0
VERTEX
10
8.97815
20
9.05132
30
5
0
VERTEX
10
8.94267
20
9.0358
30
5
0
VERTEX
10
8.93824
20
9.0358
30
5
0
VERTEX
10
8.93158
20
9.02915
30
5
0
VERTEX
10
8.92715
20
9.02915
30
5
0
VERTEX
10
8.90941
20
9.01363
30
5
0
VERTEX
10
8.89611
20
9.00032
30
5
0
VERTEX
10
8.88724
20
8.99145
30
5
0
VERTEX
10
8.8828
20
8.99145
30
5
0
VERTEX
10
8.86063
20
8.95819
30
5
0
VERTEX
10
8.85398
20
8.95154
30
5
0
VERTEX
10
8.85398
20
8.9471
30
5
0
VERTEX
10
8.84289
20
8.93158
30
5
0
VERTEX
10
8.84067
20
8.92271
30
5
0
VERTEX
10
8.83402
20
8.91828
30
5
0
VERTEX
10
8.82737
20
8.90054
30
5
0
VERTEX
10
8.82515
20
8.89167
30
5
0
VERTEX
10
8.82071
20
8.88945
30
5
0
VERTEX
10
8.81628
20
8.85398
30
5
0
VERTEX
10
8.81406
20
8.83624
30
5
0
VERTEX
10
8.81406
20
8.82737
30
5
0
VERTEX
10
8.81406
20
8.82515
30
5
0
SEQEND
0
POLYLINE
62
31
66
1
70
1
3
contour
0
VERTEX
10
8.748
20
9.3832
30
5
0
VERTEX
10
8.75788
20
9.37004
30
5
0
VERTEX
10
8.75788
20
9.34371
30
5
0
VERTEX
10
8.77104
20
9.32067
30
5
0
VERTEX
10
8.81383
20
9.29105
30
5
0
VERTEX
10
8.83357
20
9.26801
30
5
0
VERTEX
10
8.84345
20
9.26143
30
5
0
VERTEX
10
8.84674
20
9.25485
30
5
0
VERTEX
10
8.8994
20
9.25156
30
5
0
VERTEX
10
8.92573
20
9.25156
30
5
0
VERTEX
10
8.97839
20
9.26472
30
5
0
VERTEX
10
8.98826
20
9.2713
30
5
0
VERTEX
10
8.99813
20
9.28447
30
5
0
VERTEX
10
9.0113
20
9.28447
30
5
0
VERTEX
10
9.03763
20
9.30421
30
5
0
VERTEX
10
9.0475
20
9.33054
30
5
0
VERTEX
10
9.05408
20
9.3832
30
5
0
VERTEX
10
9.03763
20
9.40624
30
5
0
VERTEX
10
9.03105
20
9.41282
30
5
0
VERTEX
10
9.01788
20
9.41612
30
5
0
VERTEX
10
9.0113
20
9.41612
30
5
0
VERTEX
10
8.98826
20
9.43586
30
5
0
VERTEX
10
8.96193
20
9.44244
30
5
0
VERTEX
10
8.94877
20
9.44903
30
5
0
VERTEX
10
8.89611
20
9.44903
30
5
0
VERTEX
10
8.88294
20
9.44903
30
5
0
VERTEX
10
8.85661
20
9.46877
30
5
0
VERTEX
10
8.85332
20
9.47207
30
5
0
VERTEX
10
8.84674
20
9.46548
30
5
0
VERTEX
10
8.79408
20
9.46219
30
5
0
VERTEX
10
8.76775
20
9.44574
30
5
0
VERTEX
10
8.75458
20
9.43586
30
5
0
VERTEX
10
8.748
20
9.4227
30
5
0
VERTEX
10
8.748
20
9.39637
30
5
0
VERTEX
10
8.748
20
9.38649
30
5
0
SEQEND
0
POLYLINE
62
31
66
1
70
1
3
contour
0
VERTEX
10
9.8466
20
8.80111
30
5
0
VERTEX
10
9.84932
20
8.79025
30
5
0
VERTEX
10
9.85475
20
8.78482
30
5
0
VERTEX
10
9.87104
20
8.74137
30
5
0
VERTEX
10
9.87919
20
8.73051
30
5
0
VERTEX
10
9.8819
20
8.71965
30
5
0
VERTEX
10
9.89548
20
8.70335
30
5
0
VERTEX
10
9.90091
20
8.69521
30
5
0
VERTEX
10
9.90091
20
8.68978
30
5
0
VERTEX
10
9.93622
20
8.64904
30
5
0
VERTEX
10
9.97966
20
8.62189
30
5
0
VERTEX
10
9.9851
20
8.61646
30
5
0
VERTEX
10
9.99053
20
8.61646
30
5
0
VERTEX
10
9.99596
20
8.61102
30
5
0
VERTEX
10
10.0394
20
8.59473
30
5
0
VERTEX
10
10.0503
20
8.59202
30
5
0
VERTEX
10
10.0611
20
8.58387
30
5
0
VERTEX
10
10.072
20
8.58115
30
5
0
VERTEX
10
10.0801
20
8.57301
30
5
0
VERTEX
10
10.091
20
8.57301
30
5
0
VERTEX
10
10.1127
20
8.55943
30
5
0
VERTEX
10
10.1182
20
8.55943
30
5
0
VERTEX
10
10.129
20
8.55128
30
5
0
VERTEX
10
10.1725
20
8.53227
30
5
0
VERTEX
10
10.2159
20
8.52141
30
5
0
VERTEX
10
10.2268
20
8.52141
30
5
0
VERTEX
10
10.2485
20
8.51326
30
5
0
VERTEX
10
10.292
20
8.51055
30
5
0
VERTEX
10
10.4657
20
8.52684
30
5
0
VERTEX
10
10.5092
20
8.52956
30
5
0
VERTEX
10
10.5309
20
8.53227
30
5
0
VERTEX
10
10.5499
20
8.54585
30
5
0
VERTEX
10
10.5608
20
8.55128
30
5
0
VERTEX
10
10.5662
20
8.56214
30
5
0
VERTEX
10
10.5717
20
8.56758
30
5
0
VERTEX
10
10.5717
20
8.57301
30
5
0
VERTEX
10
10.6015
20
8.61646
30
5
0
VERTEX
10
10.6097
20
8.63818
30
5
0
VERTEX
10
10.6097
20
8.68163
30
5
0
VERTEX
10
10.6097
20
8.70335
30
5
0
VERTEX
10
10.607
20
8.71422
30
5
0
VERTEX
10
10.607
20
8.71965
30
5
0
VERTEX
10
10.5771
20
8.76038
30
5
0
VERTEX
10
10.5689
20
8.77124
30
5
0
VERTEX
10
10.5662
20
8.7821
30
5
0
VERTEX
10
10.5499
20
8.80383
30
5
0
VERTEX
10
10.5499
20
8.80926
30
5
0
VERTEX
10
10.5445
20
8.81469
30
5
0
VERTEX
10
10.5418
20
8.83642
30
5
0
VERTEX
10
10.5336
20
8.84728
30
5
0
VERTEX
10
10.5336
20
8.85814
30
5
0
VERTEX
10
10.4956
20
8.89073
30
5
0
VERTEX
10
10.4603
20
8.92874
30
5
0
VERTEX
10
10.4549
20
8.92874
30
5
0
VERTEX
10
10.4495
20
8.93418
30
5
0
VERTEX
10
10.406
20
8.94775
30
5
0
VERTEX
10
10.3951
20
8.95047
30
5
0
VERTEX
10
10.3897
20
8.95047
30
5
0
VERTEX
10
10.3843
20
8.9559
30
5
0
VERTEX
10
10.3408
20
8.96948
30
5
0
VERTEX
10
10.3191
20
8.97762
30
5
0
VERTEX
10
10.2757
20
8.98306
30
5
0
VERTEX
10
10.2539
20
8.98577
30
5
0
VERTEX
10
10.2105
20
8.98306
30
5
0
VERTEX
10
10.1888
20
8.98306
30
5
0
VERTEX
10
10.1779
20
8.98849
30
5
0
VERTEX
10
10.091
20
8.9912
30
5
0
VERTEX
10
10.0476
20
8.98849
30
5
0
VERTEX
10
10.0258
20
8.98577
30
5
0
VERTEX
10
10.0041
20
8.97491
30
5
0
VERTEX
10
9.99596
20
8.96676
30
5
0
VERTEX
10
9.99053
20
8.96676
30
5
0
VERTEX
10
9.97695
20
8.94504
30
5
0
VERTEX
10
9.95794
20
8.93146
30
5
0
VERTEX
10
9.95251
20
8.92874
30
5
0
VERTEX
10
9.94708
20
8.93146
30
5
0
VERTEX
10
9.93078
20
8.91517
30
5
0
VERTEX
10
9.90906
20
8.89616
30
5
0
VERTEX
10
9.89005
20
8.88258
30
5
0
VERTEX
10
9.88462
20
8.87172
30
5
0
VERTEX
10
9.86561
20
8.85271
30
5
0
VERTEX
10
9.85203
20
8.83098
30
5
0
VERTEX
10
9.85203
20
8.82555
30
5
0
VERTEX
10
9.8466
20
8.82284
30
5
0
VERTEX
10
9.8466
20
8.80383
30
5
0
SEQEND
0
POLYLINE
62
224
66
1
70
1
3
mitochondrion
0
VERTEX
10
9.11983
20
8.93351
30
5
0
VERTEX
10
9.12261
20
8.91127
30
5
0
VERTEX
10
9.12817
20
8.90014
30
5
0
VERTEX
10
9.14486
20
8.87929
30
5
0
VERTEX
10
9.1671
20
8.86677
30
5
0
VERTEX
10
9.18935
20
8.86538
30
5
0
VERTEX
10
9.2116
20
8.87094
30
5
0
VERTEX
10
9.22272
20
8.87372
30
5
0
VERTEX
10
9.22828
20
8.87372
30
5
0
VERTEX
10
9.23524
20
8.88346
30
5
0
VERTEX
10
9.24636
20
8.8918
30
5
0
VERTEX
10
9.2547
20
8.90014
30
5
0
VERTEX
10
9.26582
20
8.90431
30
5
0
VERTEX
10
9.27556
20
8.91266
30
5
0
VERTEX
10
9.28807
20
8.93351
30
5
0
VERTEX
10
9.29085
20
8.93907
30
5
0
VERTEX
10
9.28807
20
8.98357
30
5
0
VERTEX
10
9.28251
20
8.9933
30
5
0
VERTEX
10
9.27417
20
9.00303
30
5
0
VERTEX
10
9.27
20
9.0072
30
5
0
VERTEX
10
9.2255
20
9.01972
30
5
0
VERTEX
10
9.21438
20
9.02389
30
5
0
VERTEX
10
9.20882
20
9.02528
30
5
0
VERTEX
10
9.19769
20
9.02111
30
5
0
VERTEX
10
9.19213
20
9.02111
30
5
0
VERTEX
10
9.18935
20
9.01833
30
5
0
VERTEX
10
9.18657
20
9.01833
30
5
0
VERTEX
10
9.18379
20
9.01555
30
5
0
VERTEX
10
9.17823
20
9.01555
30
5
0
VERTEX
10
9.17267
20
9.01277
30
5
0
VERTEX
10
9.16154
20
9.01138
30
5
0
VERTEX
10
9.15042
20
9.00581
30
5
0
VERTEX
10
9.14625
20
9.00025
30
5
0
VERTEX
10
9.14486
20
8.99469
30
5
0
VERTEX
10
9.12956
20
8.97662
30
5
0
VERTEX
10
9.12678
20
8.97105
30
5
0
VERTEX
10
9.124
20
8.96827
30
5
0
VERTEX
10
9.11983
20
8.94603
30
5
0
VERTEX
10
9.11983
20
8.9349
30
5
0
SEQEND
0
POLYLINE
62
236
66
1
70
1
3
postsynaptic_density
0
VERTEX
10
10.3109
20
8.91312
30
5
0
VERTEX
10
10.3147
20
8.89819
30
5
0
VERTEX
10
10.3165
20
8.89072
30
5
0
VERTEX
10
10.3221
20
8.88512
30
5
0
VERTEX
10
10.352
20
8.88512
30
5
0
VERTEX
10
10.3594
20
8.88512
30
5
0
VERTEX
10
10.3725
20
8.87766
30
5
0
VERTEX
10
10.3837
20
8.86646
30
5
0
VERTEX
10
10.3986
20
8.8534
30
5
0
VERTEX
10
10.4024
20
8.84966
30
5
0
VERTEX
10
10.4098
20
8.8478
30
5
0
VERTEX
10
10.4248
20
8.8366
30
5
0
VERTEX
10
10.436
20
8.8254
30
5
0
VERTEX
10
10.4658
20
8.82167
30
5
0
VERTEX
10
10.4733
20
8.82167
30
5
0
VERTEX
10
10.477
20
8.82167
30
5
0
VERTEX
10
10.4808
20
8.8254
30
5
0
VERTEX
10
10.4957
20
8.82914
30
5
0
VERTEX
10
10.5106
20
8.82914
30
5
0
VERTEX
10
10.5143
20
8.83287
30
5
0
VERTEX
10
10.5442
20
8.8422
30
5
0
VERTEX
10
10.5535
20
8.8366
30
5
0
VERTEX
10
10.561
20
8.83847
30
5
0
VERTEX
10
10.5666
20
8.84593
30
5
0
VERTEX
10
10.5647
20
8.86086
30
5
0
VERTEX
10
10.5647
20
8.86833
30
5
0
VERTEX
10
10.5554
20
8.89632
30
5
0
VERTEX
10
10.5479
20
8.90192
30
5
0
VERTEX
10
10.5293
20
8.93178
30
5
0
VERTEX
10
10.5013
20
8.95604
30
5
0
VERTEX
10
10.4714
20
8.9691
30
5
0
VERTEX
10
10.4565
20
8.97097
30
5
0
VERTEX
10
10.449
20
8.97284
30
5
0
VERTEX
10
10.4453
20
8.97657
30
5
0
VERTEX
10
10.4154
20
8.9859
30
5
0
VERTEX
10
10.408
20
8.9859
30
5
0
VERTEX
10
10.3986
20
8.99336
30
5
0
VERTEX
10
10.3837
20
8.99336
30
5
0
VERTEX
10
10.3762
20
8.99336
30
5
0
VERTEX
10
10.3725
20
8.98963
30
5
0
VERTEX
10
10.365
20
8.9915
30
5
0
VERTEX
10
10.3613
20
8.9915
30
5
0
VERTEX
10
10.3464
20
8.97843
30
5
0
VERTEX
10
10.3389
20
8.97097
30
5
0
VERTEX
10
10.324
20
8.96164
30
5
0
VERTEX
10
10.3184
20
8.94671
30
5
0
VERTEX
10
10.3128
20
8.94111
30
5
0
VERTEX
10
10.3109
20
8.92618
30
5
0
VERTEX
10
10.3109
20
8.91872
30
5
0
VERTEX
10
10.3109
20
8.91498
30
5
0
SEQEND
0
POLYLINE
62
236
66
1
70
1
3
postsynaptic_density
0
VERTEX
10
9.95634
20
8.96164
30
5
0
VERTEX
10
9.96007
20
8.95417
30
5
0
VERTEX
10
9.9638
20
8.95044
30
5
0
VERTEX
10
9.96567
20
8.94298
30
5
0
VERTEX
10
9.975
20
8.92991
30
5
0
VERTEX
10
9.975
20
8.92618
30
5
0
VERTEX
10
9.98247
20
8.92058
30
5
0
VERTEX
10
9.9974
20
8.91685
30
5
0
VERTEX
10
10.0123
20
8.91685
30
5
0
VERTEX
10
10.0198
20
8.91685
30
5
0
VERTEX
10
10.0235
20
8.91685
30
5
0
VERTEX
10
10.0273
20
8.92058
30
5
0
VERTEX
10
10.0422
20
8.92245
30
5
0
VERTEX
10
10.0459
20
8.92245
30
5
0
VERTEX
10
10.0478
20
8.92618
30
5
0
VERTEX
10
10.0776
20
8.92991
30
5
0
VERTEX
10
10.1374
20
8.93178
30
5
0
VERTEX
10
10.1523
20
8.93551
30
5
0
VERTEX
10
10.1672
20
8.93551
30
5
0
VERTEX
10
10.171
20
8.93924
30
5
0
VERTEX
10
10.1859
20
8.94111
30
5
0
VERTEX
10
10.2008
20
8.94671
30
5
0
VERTEX
10
10.2083
20
8.95231
30
5
0
VERTEX
10
10.212
20
8.95231
30
5
0
VERTEX
10
10.2176
20
8.95977
30
5
0
VERTEX
10
10.2213
20
8.95977
30
5
0
VERTEX
10
10.2269
20
8.96724
30
5
0
VERTEX
10
10.2307
20
8.9691
30
5
0
VERTEX
10
10.2325
20
8.99896
30
5
0
VERTEX
10
10.2325
20
9.01389
30
5
0
VERTEX
10
10.2232
20
9.02696
30
5
0
VERTEX
10
10.2101
20
9.04002
30
5
0
VERTEX
10
10.1952
20
9.04562
30
5
0
VERTEX
10
10.0758
20
9.04935
30
5
0
VERTEX
10
10.0459
20
9.04935
30
5
0
VERTEX
10
10.0161
20
9.04189
30
5
0
VERTEX
10
10.0011
20
9.04002
30
5
0
VERTEX
10
9.97127
20
9.02882
30
5
0
VERTEX
10
9.95821
20
9.01576
30
5
0
VERTEX
10
9.95634
20
8.9859
30
5
0
VERTEX
10
9.95634
20
8.97097
30
5
0
VERTEX
10
9.95634
20
8.9635
30
5
0
SEQEND
0
POLYLINE
62
227
66
1
70
1
3
endoplasmic_reticulum
0
VERTEX
10
9.025
20
8.7883
30
5
0
VERTEX
10
9.02724
20
8.78605
30
5
0
VERTEX
10
9.03622
20
8.78605
30
5
0
VERTEX
10
9.04519
20
8.7883
30
5
0
VERTEX
10
9.05417
20
8.7939
30
5
0
VERTEX
10
9.06314
20
8.79727
30
5
0
VERTEX
10
9.06875
20
8.80512
30
5
0
VERTEX
10
9.0766
20
8.81073
30
5
0
VERTEX
10
9.07772
20
8.81522
30
5
0
VERTEX
10
9.08558
20
8.82083
30
5
0
VERTEX
10
9.09006
20
8.82195
30
5
0
VERTEX
10
9.09679
20
8.82868
30
5
0
VERTEX
10
9.10577
20
8.83429
30
5
0
VERTEX
10
9.11026
20
8.83653
30
5
0
VERTEX
10
9.11138
20
8.84102
30
5
0
VERTEX
10
9.11699
20
8.84887
30
5
0
VERTEX
10
9.11811
20
8.85785
30
5
0
VERTEX
10
9.11811
20
8.86234
30
5
0
VERTEX
10
9.11811
20
8.86458
30
5
0
VERTEX
10
9.11474
20
8.86907
30
5
0
VERTEX
10
9.11362
20
8.87131
30
5
0
VERTEX
10
9.10913
20
8.87131
30
5
0
VERTEX
10
9.10016
20
8.86234
30
5
0
VERTEX
10
9.09567
20
8.86009
30
5
0
VERTEX
10
9.09006
20
8.86234
30
5
0
VERTEX
10
9.08782
20
8.86009
30
5
0
VERTEX
10
9.06987
20
8.8556
30
5
0
VERTEX
10
9.0609
20
8.85336
30
5
0
VERTEX
10
9.05192
20
8.84775
30
5
0
VERTEX
10
9.04968
20
8.84775
30
5
0
VERTEX
10
9.04519
20
8.84439
30
5
0
VERTEX
10
9.04295
20
8.84214
30
5
0
VERTEX
10
9.0407
20
8.84214
30
5
0
VERTEX
10
9.03285
20
8.83429
30
5
0
VERTEX
10
9.02836
20
8.83092
30
5
0
VERTEX
10
9.02612
20
8.82868
30
5
0
VERTEX
10
9.025
20
8.79278
30
5
0
VERTEX
10
9.025
20
8.78942
30
5
0
SEQEND
0
POLYLINE
62
227
66
1
70
1
3
endoplasmic_reticulum
0
VERTEX
10
9.27516
20
8.8399
30
5
0
VERTEX
10
9.27965
20
8.83878
30
5
0
VERTEX
10
9.28863
20
8.84102
30
5
0
VERTEX
10
9.29311
20
8.84439
30
5
0
VERTEX
10
9.29536
20
8.84439
30
5
0
VERTEX
10
9.30882
20
8.86121
30
5
0
VERTEX
10
9.31779
20
8.86458
30
5
0
VERTEX
10
9.32116
20
8.86794
30
5
0
VERTEX
10
9.32565
20
8.86907
30
5
0
VERTEX
10
9.3335
20
8.87692
30
5
0
VERTEX
10
9.33574
20
8.88141
30
5
0
VERTEX
10
9.3335
20
8.89936
30
5
0
VERTEX
10
9.32901
20
8.90048
30
5
0
VERTEX
10
9.32452
20
8.89936
30
5
0
VERTEX
10
9.31443
20
8.88253
30
5
0
VERTEX
10
9.31106
20
8.87804
30
5
0
VERTEX
10
9.30657
20
8.87692
30
5
0
VERTEX
10
9.30209
20
8.87355
30
5
0
VERTEX
10
9.2976
20
8.87243
30
5
0
VERTEX
10
9.29311
20
8.86907
30
5
0
VERTEX
10
9.28414
20
8.8657
30
5
0
VERTEX
10
9.28077
20
8.86234
30
5
0
VERTEX
10
9.28077
20
8.86009
30
5
0
VERTEX
10
9.27629
20
8.85673
30
5
0
VERTEX
10
9.27516
20
8.84775
30
5
0
VERTEX
10
9.27516
20
8.84326
30
5
0
VERTEX
10
9.27516
20
8.84102
30
5
0
SEQEND
0
POLYLINE
62
227
66
1
70
1
3
endoplasmic_reticulum
0
VERTEX
10
9.07305
20
9.00132
30
5
0
VERTEX
10
9.07753
20
8.99505
30
5
0
VERTEX
10
9.0847
20
8.99415
30
5
0
VERTEX
10
9.08829
20
8.99505
30
5
0
VERTEX
10
9.09456
20
8.99953
30
5
0
VERTEX
10
9.09725
20
9.00312
30
5
0
VERTEX
10
9.09725
20
9.00491
30
5
0
VERTEX
10
9.10353
20
9.00939
30
5
0
VERTEX
10
9.10443
20
9.01656
30
5
0
VERTEX
10
9.10801
20
9.01925
30
5
0
VERTEX
10
9.11249
20
9.02463
30
5
0
VERTEX
10
9.11967
20
9.02822
30
5
0
VERTEX
10
9.13401
20
9.03181
30
5
0
VERTEX
10
9.1376
20
9.0336
30
5
0
VERTEX
10
9.14118
20
9.03718
30
5
0
VERTEX
10
9.14208
20
9.04436
30
5
0
VERTEX
10
9.1367
20
9.05063
30
5
0
VERTEX
10
9.13312
20
9.05243
30
5
0
VERTEX
10
9.11877
20
9.05422
30
5
0
VERTEX
10
9.10443
20
9.05153
30
5
0
VERTEX
10
9.09815
20
9.04615
30
5
0
VERTEX
10
9.09815
20
9.04436
30
5
0
VERTEX
10
9.09098
20
9.03898
30
5
0
VERTEX
10
9.0856
20
9.03181
30
5
0
VERTEX
10
9.07843
20
9.02553
30
5
0
VERTEX
10
9.07394
20
9.01925
30
5
0
VERTEX
10
9.07305
20
9.00491
30
5
0
VERTEX
10
9.07305
20
9.00222
30
5
0
SEQEND
0
POLYLINE
62
227
66
1
70
1
3
endoplasmic_reticulum
0
VERTEX
10
9.00043
20
8.96905
30
5
0
VERTEX
10
9.00222
20
8.96546
30
5
0
VERTEX
10
9.00581
20
8.96367
30
5
0
VERTEX
10
9.01298
20
8.96367
30
5
0
VERTEX
10
9.02732
20
8.97353
30
5
0
VERTEX
10
9.03001
20
8.97622
30
5
0
VERTEX
10
9.03718
20
8.97891
30
5
0
VERTEX
10
9.03718
20
8.9807
30
5
0
VERTEX
10
9.04077
20
8.9816
30
5
0
VERTEX
10
9.04615
20
8.98877
30
5
0
VERTEX
10
9.04974
20
8.99325
30
5
0
VERTEX
10
9.04974
20
9.00043
30
5
0
VERTEX
10
9.04525
20
9.0076
30
5
0
VERTEX
10
9.04346
20
9.01118
30
5
0
VERTEX
10
9.03987
20
9.01298
30
5
0
VERTEX
10
9.0327
20
9.01298
30
5
0
VERTEX
10
9.03091
20
9.01298
30
5
0
VERTEX
10
9.02553
20
9.00581
30
5
0
VERTEX
10
9.02284
20
9.00222
30
5
0
VERTEX
10
9.01567
20
9.00132
30
5
0
VERTEX
10
9.0085
20
8.99594
30
5
0
VERTEX
10
9.00312
20
8.98967
30
5
0
VERTEX
10
9.00043
20
8.9825
30
5
0
VERTEX
10
9.00043
20
8.97532
30
5
0
VERTEX
10
9.00043
20
8.97174
30
5
0
VERTEX
10
9.00043
20
8.96994
30
5
0
SEQEND
0
POLYLINE
62
227
66
1
70
1
3
endoplasmic_reticulum
0
VERTEX
10
8.95919
20
8.84622
30
5
0
VERTEX
10
8.96187
20
8.83188
30
5
0
VERTEX
10
8.96187
20
8.83008
30
5
0
VERTEX
10
8.96456
20
8.8265
30
5
0
VERTEX
10
8.97891
20
8.82381
30
5
0
VERTEX
10
8.99325
20
8.82291
30
5
0
VERTEX
10
9.00043
20
8.82291
30
5
0
VERTEX
10
9.00401
20
8.82381
30
5
0
VERTEX
10
9.01029
20
8.83008
30
5
0
VERTEX
10
9.01387
20
8.83367
30
5
0
VERTEX
10
9.02194
20
8.84712
30
5
0
VERTEX
10
9.02643
20
8.85429
30
5
0
VERTEX
10
9.03001
20
8.86863
30
5
0
VERTEX
10
9.02912
20
8.88298
30
5
0
VERTEX
10
9.02284
20
8.89015
30
5
0
VERTEX
10
9.01925
20
8.89194
30
5
0
VERTEX
10
9.01746
20
8.89194
30
5
0
VERTEX
10
9.01656
20
8.89374
30
5
0
VERTEX
10
9.00939
20
8.89553
30
5
0
VERTEX
10
9.0076
20
8.89732
30
5
0
VERTEX
10
9.00043
20
8.89732
30
5
0
VERTEX
10
8.98608
20
8.90181
30
5
0
VERTEX
10
8.9825
20
8.9027
30
5
0
VERTEX
10
8.97891
20
8.90181
30
5
0
VERTEX
10
8.97622
20
8.89822
30
5
0
VERTEX
10
8.97443
20
8.89643
30
5
0
VERTEX
10
8.97443
20
8.89463
30
5
0
VERTEX
10
8.97174
20
8.89105
30
5
0
VERTEX
10
8.97084
20
8.88746
30
5
0
VERTEX
10
8.97084
20
8.88567
30
5
0
VERTEX
10
8.96815
20
8.88298
30
5
0
VERTEX
10
8.96725
20
8.87939
30
5
0
VERTEX
10
8.96546
20
8.8776
30
5
0
VERTEX
10
8.96546
20
8.87581
30
5
0
VERTEX
10
8.96277
20
8.87222
30
5
0
VERTEX
10
8.96098
20
8.87043
30
5
0
VERTEX
10
8.95919
20
8.85608
30
5
0
VERTEX
10
8.95919
20
8.84891
30
5
0
VERTEX
10
8.95919
20
8.84712
30
5
0
SEQEND
0
ENDSEC
0
EOF
