0
SECTION
2
ENTITIES
0
POLYLINE
62
31
66
1
70
1
3
contour
0
VERTEX
10
9.34623
20
8.48589
30
3.96
0
VERTEX
10
9.35067
20
8.47702
30
3.96
0
VERTEX
10
9.35288
20
8.40607
30
3.96
0
VERTEX
10
9.3551
20
8.38833
30
3.96
0
VERTEX
10
9.35954
20
8.37946
30
3.96
0
VERTEX
10
9.36175
20
8.36172
30
3.96
0
VERTEX
10
9.36397
20
8.35285
30
3.96
0
VERTEX
10
9.36397
20
8.34841
30
3.96
0
VERTEX
10
9.37062
20
8.33954
30
3.96
0
VERTEX
10
9.37062
20
8.33511
30
3.96
0
VERTEX
10
9.38615
20
8.31959
30
3.96
0
VERTEX
10
9.3928
20
8.31072
30
3.96
0
VERTEX
10
9.42828
20
8.28854
30
3.96
0
VERTEX
10
9.4438
20
8.27302
30
3.96
0
VERTEX
10
9.46154
20
8.26194
30
3.96
0
VERTEX
10
9.47041
20
8.2575
30
3.96
0
VERTEX
10
9.47484
20
8.2575
30
3.96
0
VERTEX
10
9.47927
20
8.25307
30
3.96
0
VERTEX
10
9.48149
20
8.2442
30
3.96
0
VERTEX
10
9.48149
20
8.23976
30
3.96
0
VERTEX
10
9.49923
20
8.22868
30
3.96
0
VERTEX
10
9.50588
20
8.22202
30
3.96
0
VERTEX
10
9.54136
20
8.20872
30
3.96
0
VERTEX
10
9.57684
20
8.20207
30
3.96
0
VERTEX
10
9.61232
20
8.18876
30
3.96
0
VERTEX
10
9.62119
20
8.18876
30
3.96
0
VERTEX
10
9.65666
20
8.17546
30
3.96
0
VERTEX
10
9.6744
20
8.17102
30
3.96
0
VERTEX
10
9.69214
20
8.15994
30
3.96
0
VERTEX
10
9.70988
20
8.15994
30
3.96
0
VERTEX
10
9.71875
20
8.15772
30
3.96
0
VERTEX
10
9.72319
20
8.15328
30
3.96
0
VERTEX
10
9.73206
20
8.15328
30
3.96
0
VERTEX
10
9.74092
20
8.14885
30
3.96
0
VERTEX
10
9.74314
20
8.14442
30
3.96
0
VERTEX
10
9.74758
20
8.14442
30
3.96
0
VERTEX
10
9.75201
20
8.13998
30
3.96
0
VERTEX
10
9.75645
20
8.13998
30
3.96
0
VERTEX
10
9.77419
20
8.12889
30
3.96
0
VERTEX
10
9.78305
20
8.12889
30
3.96
0
VERTEX
10
9.81853
20
8.11337
30
3.96
0
VERTEX
10
9.83627
20
8.1045
30
3.96
0
VERTEX
10
9.86953
20
8.09342
30
3.96
0
VERTEX
10
9.88727
20
8.08676
30
3.96
0
VERTEX
10
9.89614
20
8.08455
30
3.96
0
VERTEX
10
9.90058
20
8.08011
30
3.96
0
VERTEX
10
9.90945
20
8.08011
30
3.96
0
VERTEX
10
9.91831
20
8.07568
30
3.96
0
VERTEX
10
9.92275
20
8.07568
30
3.96
0
VERTEX
10
9.92718
20
8.07124
30
3.96
0
VERTEX
10
9.93162
20
8.07124
30
3.96
0
VERTEX
10
9.93605
20
8.06681
30
3.96
0
VERTEX
10
9.94049
20
8.06681
30
3.96
0
VERTEX
10
9.95379
20
8.05129
30
3.96
0
VERTEX
10
9.95823
20
8.05129
30
3.96
0
VERTEX
10
9.9671
20
8.04242
30
3.96
0
VERTEX
10
9.98484
20
8.03133
30
3.96
0
VERTEX
10
10.0026
20
8.02689
30
3.96
0
VERTEX
10
10.0381
20
8.02911
30
3.96
0
VERTEX
10
10.0558
20
8.02911
30
3.96
0
VERTEX
10
10.0647
20
8.02911
30
3.96
0
VERTEX
10
10.0691
20
8.02911
30
3.96
0
VERTEX
10
10.078
20
8.03576
30
3.96
0
VERTEX
10
10.0891
20
8.05129
30
3.96
0
VERTEX
10
10.0935
20
8.05572
30
3.96
0
VERTEX
10
10.0935
20
8.06016
30
3.96
0
VERTEX
10
10.0979
20
8.06459
30
3.96
0
VERTEX
10
10.1001
20
8.10007
30
3.96
0
VERTEX
10
10.1068
20
8.13555
30
3.96
0
VERTEX
10
10.109
20
8.15328
30
3.96
0
VERTEX
10
10.1223
20
8.18876
30
3.96
0
VERTEX
10
10.1267
20
8.2065
30
3.96
0
VERTEX
10
10.129
20
8.21537
30
3.96
0
VERTEX
10
10.1312
20
8.21981
30
3.96
0
VERTEX
10
10.1356
20
8.21759
30
3.96
0
VERTEX
10
10.1489
20
8.25307
30
3.96
0
VERTEX
10
10.1556
20
8.27081
30
3.96
0
VERTEX
10
10.1556
20
8.27968
30
3.96
0
VERTEX
10
10.1578
20
8.28411
30
3.96
0
VERTEX
10
10.1556
20
8.31959
30
3.96
0
VERTEX
10
10.1511
20
8.33733
30
3.96
0
VERTEX
10
10.1445
20
8.40828
30
3.96
0
VERTEX
10
10.1423
20
8.42602
30
3.96
0
VERTEX
10
10.1312
20
8.4615
30
3.96
0
VERTEX
10
10.1267
20
8.47924
30
3.96
0
VERTEX
10
10.1157
20
8.49698
30
3.96
0
VERTEX
10
10.1068
20
8.50585
30
3.96
0
VERTEX
10
10.1001
20
8.51028
30
3.96
0
VERTEX
10
10.0713
20
8.54354
30
3.96
0
VERTEX
10
10.0691
20
8.54798
30
3.96
0
VERTEX
10
10.0647
20
8.54798
30
3.96
0
VERTEX
10
10.0336
20
8.57902
30
3.96
0
VERTEX
10
10.0181
20
8.59233
30
3.96
0
VERTEX
10
10.0092
20
8.60119
30
3.96
0
VERTEX
10
10.0004
20
8.60563
30
3.96
0
VERTEX
10
9.99592
20
8.61228
30
3.96
0
VERTEX
10
9.92718
20
8.65885
30
3.96
0
VERTEX
10
9.90945
20
8.66993
30
3.96
0
VERTEX
10
9.87397
20
8.69876
30
3.96
0
VERTEX
10
9.86732
20
8.70541
30
3.96
0
VERTEX
10
9.84958
20
8.71206
30
3.96
0
VERTEX
10
9.83184
20
8.71428
30
3.96
0
VERTEX
10
9.79636
20
8.7298
30
3.96
0
VERTEX
10
9.77862
20
8.74089
30
3.96
0
VERTEX
10
9.77419
20
8.74089
30
3.96
0
VERTEX
10
9.76975
20
8.74532
30
3.96
0
VERTEX
10
9.75201
20
8.74532
30
3.96
0
VERTEX
10
9.71653
20
8.75863
30
3.96
0
VERTEX
10
9.69879
20
8.75863
30
3.96
0
VERTEX
10
9.66332
20
8.76971
30
3.96
0
VERTEX
10
9.64558
20
8.78524
30
3.96
0
VERTEX
10
9.64114
20
8.79411
30
3.96
0
VERTEX
10
9.63671
20
8.79854
30
3.96
0
VERTEX
10
9.60123
20
8.79411
30
3.96
0
VERTEX
10
9.58349
20
8.78745
30
3.96
0
VERTEX
10
9.56575
20
8.77637
30
3.96
0
VERTEX
10
9.55688
20
8.77415
30
3.96
0
VERTEX
10
9.55023
20
8.7675
30
3.96
0
VERTEX
10
9.54136
20
8.76528
30
3.96
0
VERTEX
10
9.52362
20
8.75198
30
3.96
0
VERTEX
10
9.51697
20
8.74532
30
3.96
0
VERTEX
10
9.51697
20
8.74089
30
3.96
0
VERTEX
10
9.48149
20
8.71872
30
3.96
0
VERTEX
10
9.47706
20
8.71428
30
3.96
0
VERTEX
10
9.46819
20
8.71206
30
3.96
0
VERTEX
10
9.46375
20
8.70763
30
3.96
0
VERTEX
10
9.46375
20
8.69876
30
3.96
0
VERTEX
10
9.43493
20
8.67215
30
3.96
0
VERTEX
10
9.43049
20
8.66328
30
3.96
0
VERTEX
10
9.39945
20
8.63446
30
3.96
0
VERTEX
10
9.39501
20
8.62559
30
3.96
0
VERTEX
10
9.37728
20
8.60785
30
3.96
0
VERTEX
10
9.35732
20
8.57459
30
3.96
0
VERTEX
10
9.35288
20
8.57015
30
3.96
0
VERTEX
10
9.34623
20
8.53467
30
3.96
0
VERTEX
10
9.34623
20
8.4992
30
3.96
0
VERTEX
10
9.34623
20
8.49033
30
3.96
0
VERTEX
10
9.34623
20
8.48811
30
3.96
0
SEQEND
0
POLYLINE
62
31
66
1
70
1
3
contour
0
VERTEX
10
7.72847
20
8.67348
30
3.96
0
VERTEX
10
7.74205
20
8.65176
30
3.96
0
VERTEX
10
7.75291
20
8.64633
30
3.96
0
VERTEX
10
7.75834
20
8.6409
30
3.96
0
VERTEX
10
7.76377
20
8.6409
30
3.96
0
VERTEX
10
7.7855
20
8.6246
30
3.96
0
VERTEX
10
7.80722
20
8.62189
30
3.96
0
VERTEX
10
7.89412
20
8.62732
30
3.96
0
VERTEX
10
7.93757
20
8.62732
30
3.96
0
VERTEX
10
7.94843
20
8.63275
30
3.96
0
VERTEX
10
7.97015
20
8.63275
30
3.96
0
VERTEX
10
7.98916
20
8.65176
30
3.96
0
VERTEX
10
7.98916
20
8.65719
30
3.96
0
VERTEX
10
7.99459
20
8.6599
30
3.96
0
VERTEX
10
7.99459
20
8.66534
30
3.96
0
VERTEX
10
8.00002
20
8.67077
30
3.96
0
VERTEX
10
8.00274
20
8.69249
30
3.96
0
VERTEX
10
7.99459
20
8.73594
30
3.96
0
VERTEX
10
7.99188
20
8.7468
30
3.96
0
VERTEX
10
7.98645
20
8.75223
30
3.96
0
VERTEX
10
7.98645
20
8.7631
30
3.96
0
VERTEX
10
7.97558
20
8.78482
30
3.96
0
VERTEX
10
7.97558
20
8.79025
30
3.96
0
VERTEX
10
7.95929
20
8.80926
30
3.96
0
VERTEX
10
7.95929
20
8.81469
30
3.96
0
VERTEX
10
7.95386
20
8.82012
30
3.96
0
VERTEX
10
7.91041
20
8.82012
30
3.96
0
VERTEX
10
7.88869
20
8.82012
30
3.96
0
VERTEX
10
7.87782
20
8.82012
30
3.96
0
VERTEX
10
7.87511
20
8.82555
30
3.96
0
VERTEX
10
7.85338
20
8.81741
30
3.96
0
VERTEX
10
7.84252
20
8.81469
30
3.96
0
VERTEX
10
7.82351
20
8.7984
30
3.96
0
VERTEX
10
7.81265
20
8.79297
30
3.96
0
VERTEX
10
7.80994
20
8.78754
30
3.96
0
VERTEX
10
7.79907
20
8.78482
30
3.96
0
VERTEX
10
7.7855
20
8.77124
30
3.96
0
VERTEX
10
7.78006
20
8.77124
30
3.96
0
VERTEX
10
7.74205
20
8.73322
30
3.96
0
VERTEX
10
7.72847
20
8.68978
30
3.96
0
VERTEX
10
7.72847
20
8.67891
30
3.96
0
VERTEX
10
7.72847
20
8.6762
30
3.96
0
SEQEND
0
POLYLINE
62
224
66
1
70
1
3
mitochondrion
0
VERTEX
10
9.73579
20
8.46494
30
3.96
0
VERTEX
10
9.73718
20
8.44269
30
3.96
0
VERTEX
10
9.73718
20
8.43157
30
3.96
0
VERTEX
10
9.74413
20
8.40932
30
3.96
0
VERTEX
10
9.74691
20
8.3982
30
3.96
0
VERTEX
10
9.74691
20
8.39263
30
3.96
0
VERTEX
10
9.75108
20
8.38151
30
3.96
0
VERTEX
10
9.75387
20
8.37595
30
3.96
0
VERTEX
10
9.75665
20
8.37317
30
3.96
0
VERTEX
10
9.75804
20
8.36761
30
3.96
0
VERTEX
10
9.77055
20
8.34536
30
3.96
0
VERTEX
10
9.78585
20
8.3245
30
3.96
0
VERTEX
10
9.79558
20
8.31477
30
3.96
0
VERTEX
10
9.79836
20
8.30921
30
3.96
0
VERTEX
10
9.80948
20
8.30087
30
3.96
0
VERTEX
10
9.81226
20
8.2967
30
3.96
0
VERTEX
10
9.81783
20
8.29252
30
3.96
0
VERTEX
10
9.82478
20
8.2814
30
3.96
0
VERTEX
10
9.82756
20
8.27584
30
3.96
0
VERTEX
10
9.83034
20
8.27306
30
3.96
0
VERTEX
10
9.83173
20
8.2675
30
3.96
0
VERTEX
10
9.84146
20
8.25915
30
3.96
0
VERTEX
10
9.84842
20
8.25081
30
3.96
0
VERTEX
10
9.87066
20
8.23274
30
3.96
0
VERTEX
10
9.88179
20
8.22439
30
3.96
0
VERTEX
10
9.89291
20
8.21883
30
3.96
0
VERTEX
10
9.89569
20
8.21605
30
3.96
0
VERTEX
10
9.89847
20
8.21605
30
3.96
0
VERTEX
10
9.90959
20
8.20771
30
3.96
0
VERTEX
10
9.91516
20
8.20632
30
3.96
0
VERTEX
10
9.91933
20
8.20076
30
3.96
0
VERTEX
10
9.92211
20
8.20076
30
3.96
0
VERTEX
10
9.92767
20
8.19658
30
3.96
0
VERTEX
10
9.97216
20
8.18963
30
3.96
0
VERTEX
10
9.98329
20
8.1938
30
3.96
0
VERTEX
10
9.98885
20
8.19519
30
3.96
0
VERTEX
10
9.99024
20
8.19797
30
3.96
0
VERTEX
10
9.99302
20
8.19797
30
3.96
0
VERTEX
10
10.0222
20
8.2383
30
3.96
0
VERTEX
10
10.0347
20
8.25776
30
3.96
0
VERTEX
10
10.0347
20
8.26332
30
3.96
0
VERTEX
10
10.0389
20
8.26889
30
3.96
0
VERTEX
10
10.0403
20
8.27445
30
3.96
0
VERTEX
10
10.0486
20
8.28557
30
3.96
0
VERTEX
10
10.0528
20
8.29113
30
3.96
0
VERTEX
10
10.0528
20
8.29391
30
3.96
0
VERTEX
10
10.0556
20
8.2967
30
3.96
0
VERTEX
10
10.057
20
8.30226
30
3.96
0
VERTEX
10
10.0612
20
8.30782
30
3.96
0
VERTEX
10
10.0681
20
8.35231
30
3.96
0
VERTEX
10
10.0667
20
8.36344
30
3.96
0
VERTEX
10
10.0639
20
8.369
30
3.96
0
VERTEX
10
10.0625
20
8.41349
30
3.96
0
VERTEX
10
10.0625
20
8.42461
30
3.96
0
VERTEX
10
10.0584
20
8.44686
30
3.96
0
VERTEX
10
10.057
20
8.45799
30
3.96
0
VERTEX
10
10.0542
20
8.46355
30
3.96
0
VERTEX
10
10.0514
20
8.46494
30
3.96
0
VERTEX
10
10.0514
20
8.46772
30
3.96
0
VERTEX
10
10.0445
20
8.47745
30
3.96
0
VERTEX
10
10.0347
20
8.48718
30
3.96
0
VERTEX
10
10.0333
20
8.49275
30
3.96
0
VERTEX
10
10.0292
20
8.49692
30
3.96
0
VERTEX
10
10.0264
20
8.49831
30
3.96
0
VERTEX
10
10.0264
20
8.50109
30
3.96
0
VERTEX
10
10.0236
20
8.50387
30
3.96
0
VERTEX
10
10.0236
20
8.50665
30
3.96
0
VERTEX
10
10.0041
20
8.52473
30
3.96
0
VERTEX
10
9.99302
20
8.5289
30
3.96
0
VERTEX
10
9.98746
20
8.53307
30
3.96
0
VERTEX
10
9.9819
20
8.53307
30
3.96
0
VERTEX
10
9.97633
20
8.53585
30
3.96
0
VERTEX
10
9.97355
20
8.53863
30
3.96
0
VERTEX
10
9.97077
20
8.53863
30
3.96
0
VERTEX
10
9.96521
20
8.5428
30
3.96
0
VERTEX
10
9.95409
20
8.54558
30
3.96
0
VERTEX
10
9.94853
20
8.54697
30
3.96
0
VERTEX
10
9.93879
20
8.55532
30
3.96
0
VERTEX
10
9.92767
20
8.56088
30
3.96
0
VERTEX
10
9.92211
20
8.56505
30
3.96
0
VERTEX
10
9.91098
20
8.56783
30
3.96
0
VERTEX
10
9.9082
20
8.56783
30
3.96
0
VERTEX
10
9.90542
20
8.57061
30
3.96
0
VERTEX
10
9.88318
20
8.57756
30
3.96
0
VERTEX
10
9.79419
20
8.57756
30
3.96
0
VERTEX
10
9.77194
20
8.57756
30
3.96
0
VERTEX
10
9.7636
20
8.56783
30
3.96
0
VERTEX
10
9.76082
20
8.56505
30
3.96
0
VERTEX
10
9.75526
20
8.56505
30
3.96
0
VERTEX
10
9.74969
20
8.56227
30
3.96
0
VERTEX
10
9.74274
20
8.55253
30
3.96
0
VERTEX
10
9.74274
20
8.54697
30
3.96
0
VERTEX
10
9.73857
20
8.53585
30
3.96
0
VERTEX
10
9.73579
20
8.49136
30
3.96
0
VERTEX
10
9.73579
20
8.46911
30
3.96
0
VERTEX
10
9.73579
20
8.46633
30
3.96
0
SEQEND
0
POLYLINE
62
227
66
1
70
1
3
endoplasmic_reticulum
0
VERTEX
10
9.54163
20
8.43557
30
3.96
0
VERTEX
10
9.5462
20
8.4112
30
3.96
0
VERTEX
10
9.54772
20
8.39901
30
3.96
0
VERTEX
10
9.55534
20
8.38682
30
3.96
0
VERTEX
10
9.55839
20
8.38377
30
3.96
0
VERTEX
10
9.55991
20
8.37768
30
3.96
0
VERTEX
10
9.56448
20
8.37311
30
3.96
0
VERTEX
10
9.56753
20
8.36092
30
3.96
0
VERTEX
10
9.57362
20
8.34873
30
3.96
0
VERTEX
10
9.57819
20
8.34264
30
3.96
0
VERTEX
10
9.59038
20
8.33502
30
3.96
0
VERTEX
10
9.59647
20
8.33197
30
3.96
0
VERTEX
10
9.62085
20
8.3335
30
3.96
0
VERTEX
10
9.63304
20
8.33502
30
3.96
0
VERTEX
10
9.64522
20
8.33959
30
3.96
0
VERTEX
10
9.6498
20
8.34416
30
3.96
0
VERTEX
10
9.6498
20
8.35635
30
3.96
0
VERTEX
10
9.64675
20
8.36854
30
3.96
0
VERTEX
10
9.64218
20
8.37463
30
3.96
0
VERTEX
10
9.63913
20
8.37768
30
3.96
0
VERTEX
10
9.63608
20
8.37768
30
3.96
0
VERTEX
10
9.63608
20
8.38073
30
3.96
0
VERTEX
10
9.63151
20
8.38682
30
3.96
0
VERTEX
10
9.61933
20
8.39444
30
3.96
0
VERTEX
10
9.61323
20
8.39901
30
3.96
0
VERTEX
10
9.61018
20
8.39901
30
3.96
0
VERTEX
10
9.60714
20
8.40206
30
3.96
0
VERTEX
10
9.60104
20
8.40206
30
3.96
0
VERTEX
10
9.598
20
8.4051
30
3.96
0
VERTEX
10
9.5919
20
8.4051
30
3.96
0
VERTEX
10
9.57971
20
8.40967
30
3.96
0
VERTEX
10
9.57362
20
8.4112
30
3.96
0
VERTEX
10
9.56905
20
8.41577
30
3.96
0
VERTEX
10
9.57057
20
8.44014
30
3.96
0
VERTEX
10
9.57057
20
8.45233
30
3.96
0
VERTEX
10
9.56143
20
8.463
30
3.96
0
VERTEX
10
9.54924
20
8.47061
30
3.96
0
VERTEX
10
9.5462
20
8.47061
30
3.96
0
VERTEX
10
9.54163
20
8.46452
30
3.96
0
VERTEX
10
9.54163
20
8.44014
30
3.96
0
VERTEX
10
9.54163
20
8.4371
30
3.96
0
SEQEND
0
POLYLINE
62
227
66
1
70
1
3
endoplasmic_reticulum
0
VERTEX
10
9.59038
20
8.24057
30
3.96
0
VERTEX
10
9.59495
20
8.23447
30
3.96
0
VERTEX
10
9.60561
20
8.22838
30
3.96
0
VERTEX
10
9.61628
20
8.21771
30
3.96
0
VERTEX
10
9.62085
20
8.21314
30
3.96
0
VERTEX
10
9.62694
20
8.21162
30
3.96
0
VERTEX
10
9.63304
20
8.21467
30
3.96
0
VERTEX
10
9.63608
20
8.21467
30
3.96
0
VERTEX
10
9.63913
20
8.21771
30
3.96
0
VERTEX
10
9.64218
20
8.21771
30
3.96
0
VERTEX
10
9.6437
20
8.22381
30
3.96
0
VERTEX
10
9.65132
20
8.23447
30
3.96
0
VERTEX
10
9.6498
20
8.24666
30
3.96
0
VERTEX
10
9.64065
20
8.25885
30
3.96
0
VERTEX
10
9.63456
20
8.26037
30
3.96
0
VERTEX
10
9.6239
20
8.26799
30
3.96
0
VERTEX
10
9.61933
20
8.27256
30
3.96
0
VERTEX
10
9.6178
20
8.27865
30
3.96
0
VERTEX
10
9.60561
20
8.27865
30
3.96
0
VERTEX
10
9.59952
20
8.27713
30
3.96
0
VERTEX
10
9.59038
20
8.26646
30
3.96
0
VERTEX
10
9.59038
20
8.24209
30
3.96
0
SEQEND
0
POLYLINE
62
227
66
1
70
1
3
endoplasmic_reticulum
0
VERTEX
10
9.9225
20
8.1583
30
3.96
0
VERTEX
10
9.92555
20
8.15525
30
3.96
0
VERTEX
10
9.92707
20
8.14306
30
3.96
0
VERTEX
10
9.93012
20
8.13849
30
3.96
0
VERTEX
10
9.93164
20
8.1263
30
3.96
0
VERTEX
10
9.93316
20
8.12021
30
3.96
0
VERTEX
10
9.94383
20
8.11259
30
3.96
0
VERTEX
10
9.95602
20
8.10802
30
3.96
0
VERTEX
10
9.96211
20
8.1065
30
3.96
0
VERTEX
10
9.96516
20
8.10345
30
3.96
0
VERTEX
10
9.97735
20
8.10345
30
3.96
0
VERTEX
10
9.98344
20
8.10497
30
3.96
0
VERTEX
10
9.98649
20
8.10802
30
3.96
0
VERTEX
10
9.98649
20
8.1324
30
3.96
0
VERTEX
10
9.98649
20
8.13849
30
3.96
0
VERTEX
10
9.98344
20
8.14459
30
3.96
0
VERTEX
10
9.97735
20
8.14916
30
3.96
0
VERTEX
10
9.97125
20
8.15068
30
3.96
0
VERTEX
10
9.96973
20
8.15373
30
3.96
0
VERTEX
10
9.95754
20
8.15677
30
3.96
0
VERTEX
10
9.93316
20
8.1583
30
3.96
0
VERTEX
10
9.92707
20
8.15982
30
3.96
0
VERTEX
10
9.92859
20
8.16287
30
3.96
0
VERTEX
10
9.92707
20
8.16591
30
3.96
0
VERTEX
10
9.92402
20
8.16287
30
3.96
0
VERTEX
10
9.92402
20
8.15982
30
3.96
0
SEQEND
0
POLYLINE
62
227
66
1
70
1
3
endoplasmic_reticulum
0
VERTEX
10
9.60561
20
8.55593
30
3.96
0
VERTEX
10
9.60714
20
8.54374
30
3.96
0
VERTEX
10
9.61323
20
8.54069
30
3.96
0
VERTEX
10
9.63761
20
8.54374
30
3.96
0
VERTEX
10
9.6498
20
8.54222
30
3.96
0
VERTEX
10
9.66046
20
8.53765
30
3.96
0
VERTEX
10
9.66655
20
8.53765
30
3.96
0
VERTEX
10
9.67265
20
8.54069
30
3.96
0
VERTEX
10
9.67417
20
8.54679
30
3.96
0
VERTEX
10
9.67265
20
8.55288
30
3.96
0
VERTEX
10
9.66351
20
8.56507
30
3.96
0
VERTEX
10
9.65741
20
8.56812
30
3.96
0
VERTEX
10
9.65132
20
8.56812
30
3.96
0
VERTEX
10
9.63913
20
8.57421
30
3.96
0
VERTEX
10
9.63304
20
8.57878
30
3.96
0
VERTEX
10
9.62694
20
8.5803
30
3.96
0
VERTEX
10
9.62085
20
8.57878
30
3.96
0
VERTEX
10
9.60866
20
8.56812
30
3.96
0
VERTEX
10
9.60561
20
8.56507
30
3.96
0
VERTEX
10
9.60561
20
8.55898
30
3.96
0
VERTEX
10
9.60561
20
8.55745
30
3.96
0
SEQEND
0
POLYLINE
62
227
66
1
70
1
3
endoplasmic_reticulum
0
VERTEX
10
9.55382
20
8.50413
30
3.96
0
VERTEX
10
9.55991
20
8.49956
30
3.96
0
VERTEX
10
9.56296
20
8.49804
30
3.96
0
VERTEX
10
9.56296
20
8.49499
30
3.96
0
VERTEX
10
9.566
20
8.49347
30
3.96
0
VERTEX
10
9.57819
20
8.49956
30
3.96
0
VERTEX
10
9.58276
20
8.50565
30
3.96
0
VERTEX
10
9.58124
20
8.53003
30
3.96
0
VERTEX
10
9.57514
20
8.53003
30
3.96
0
VERTEX
10
9.56296
20
8.52241
30
3.96
0
VERTEX
10
9.55534
20
8.51632
30
3.96
0
VERTEX
10
9.55382
20
8.50565
30
3.96
0
SEQEND
0
POLYLINE
62
236
66
1
70
1
3
postsynaptic_density
0
VERTEX
10
9.18701
20
8.43343
30
3.96
0
VERTEX
10
9.20918
20
8.41958
30
3.96
0
VERTEX
10
9.22026
20
8.41681
30
3.96
0
VERTEX
10
9.23134
20
8.40573
30
3.96
0
VERTEX
10
9.24242
20
8.40296
30
3.96
0
VERTEX
10
9.25351
20
8.39465
30
3.96
0
VERTEX
10
9.26459
20
8.39465
30
3.96
0
VERTEX
10
9.27013
20
8.39465
30
3.96
0
VERTEX
10
9.27013
20
8.38911
30
3.96
0
VERTEX
10
9.27567
20
8.38357
30
3.96
0
VERTEX
10
9.36433
20
8.37525
30
3.96
0
VERTEX
10
9.40865
20
8.36694
30
3.96
0
VERTEX
10
9.43082
20
8.36694
30
3.96
0
VERTEX
10
9.43636
20
8.37248
30
3.96
0
VERTEX
10
9.45298
20
8.41681
30
3.96
0
VERTEX
10
9.45852
20
8.42789
30
3.96
0
VERTEX
10
9.46129
20
8.45006
30
3.96
0
VERTEX
10
9.45575
20
8.53871
30
3.96
0
VERTEX
10
9.46406
20
8.58304
30
3.96
0
VERTEX
10
9.46684
20
8.59412
30
3.96
0
VERTEX
10
9.45852
20
8.60244
30
3.96
0
VERTEX
10
9.43636
20
8.61075
30
3.96
0
VERTEX
10
9.42805
20
8.62183
30
3.96
0
VERTEX
10
9.40588
20
8.63291
30
3.96
0
VERTEX
10
9.3948
20
8.63568
30
3.96
0
VERTEX
10
9.35324
20
8.6717
30
3.96
0
VERTEX
10
9.33385
20
8.69109
30
3.96
0
VERTEX
10
9.31446
20
8.70494
30
3.96
0
VERTEX
10
9.30615
20
8.71326
30
3.96
0
VERTEX
10
9.23134
20
8.53594
30
3.96
0
VERTEX
10
9.19255
20
8.44729
30
3.96
0
VERTEX
10
9.18701
20
8.43621
30
3.96
0
SEQEND
0
ENDSEC
0
EOF
