0
SECTION
2
ENTITIES
0
POLYLINE
62
31
66
1
70
1
3
contour
0
VERTEX
10
8.65436
20
9.34595
30
4.88
0
VERTEX
10
8.65673
20
9.32701
30
4.88
0
VERTEX
10
8.6591
20
9.31753
30
4.88
0
VERTEX
10
8.6591
20
9.3128
30
4.88
0
VERTEX
10
8.66857
20
9.31043
30
4.88
0
VERTEX
10
8.67094
20
9.30095
30
4.88
0
VERTEX
10
8.67568
20
9.29622
30
4.88
0
VERTEX
10
8.68042
20
9.29622
30
4.88
0
VERTEX
10
8.71121
20
9.26779
30
4.88
0
VERTEX
10
8.71594
20
9.26069
30
4.88
0
VERTEX
10
8.75147
20
9.23464
30
4.88
0
VERTEX
10
8.76094
20
9.22753
30
4.88
0
VERTEX
10
8.76568
20
9.22753
30
4.88
0
VERTEX
10
8.78226
20
9.21095
30
4.88
0
VERTEX
10
8.78463
20
9.20385
30
4.88
0
VERTEX
10
8.80358
20
9.19674
30
4.88
0
VERTEX
10
8.80831
20
9.19437
30
4.88
0
VERTEX
10
8.84621
20
9.19911
30
4.88
0
VERTEX
10
8.86516
20
9.20385
30
4.88
0
VERTEX
10
8.87463
20
9.20385
30
4.88
0
VERTEX
10
8.88174
20
9.21095
30
4.88
0
VERTEX
10
8.88174
20
9.22043
30
4.88
0
VERTEX
10
8.89121
20
9.22043
30
4.88
0
VERTEX
10
8.92674
20
9.237
30
4.88
0
VERTEX
10
8.93621
20
9.23464
30
4.88
0
VERTEX
10
8.93858
20
9.2299
30
4.88
0
VERTEX
10
8.95753
20
9.23464
30
4.88
0
VERTEX
10
8.99542
20
9.25358
30
4.88
0
VERTEX
10
9.0049
20
9.25358
30
4.88
0
VERTEX
10
9.01437
20
9.25832
30
4.88
0
VERTEX
10
9.03332
20
9.26069
30
4.88
0
VERTEX
10
9.05226
20
9.26779
30
4.88
0
VERTEX
10
9.06174
20
9.26779
30
4.88
0
VERTEX
10
9.08069
20
9.27727
30
4.88
0
VERTEX
10
9.09016
20
9.28437
30
4.88
0
VERTEX
10
9.0949
20
9.29385
30
4.88
0
VERTEX
10
9.08779
20
9.36964
30
4.88
0
VERTEX
10
9.04042
20
9.44306
30
4.88
0
VERTEX
10
9.00726
20
9.47859
30
4.88
0
VERTEX
10
8.98832
20
9.49517
30
4.88
0
VERTEX
10
8.97884
20
9.50227
30
4.88
0
VERTEX
10
8.97411
20
9.50227
30
4.88
0
VERTEX
10
8.95753
20
9.51412
30
4.88
0
VERTEX
10
8.95279
20
9.52359
30
4.88
0
VERTEX
10
8.93384
20
9.53069
30
4.88
0
VERTEX
10
8.89831
20
9.55201
30
4.88
0
VERTEX
10
8.87937
20
9.56148
30
4.88
0
VERTEX
10
8.84147
20
9.56385
30
4.88
0
VERTEX
10
8.83673
20
9.56385
30
4.88
0
VERTEX
10
8.82489
20
9.54727
30
4.88
0
VERTEX
10
8.81779
20
9.5378
30
4.88
0
VERTEX
10
8.79884
20
9.53543
30
4.88
0
VERTEX
10
8.78937
20
9.52833
30
4.88
0
VERTEX
10
8.77989
20
9.52596
30
4.88
0
VERTEX
10
8.7491
20
9.4999
30
4.88
0
VERTEX
10
8.74436
20
9.49517
30
4.88
0
VERTEX
10
8.73489
20
9.49517
30
4.88
0
VERTEX
10
8.72542
20
9.48806
30
4.88
0
VERTEX
10
8.71594
20
9.48569
30
4.88
0
VERTEX
10
8.697
20
9.47385
30
4.88
0
VERTEX
10
8.67331
20
9.43832
30
4.88
0
VERTEX
10
8.66621
20
9.41938
30
4.88
0
VERTEX
10
8.6591
20
9.38148
30
4.88
0
VERTEX
10
8.65673
20
9.36253
30
4.88
0
VERTEX
10
8.65436
20
9.35306
30
4.88
0
VERTEX
10
8.65436
20
9.34832
30
4.88
0
SEQEND
0
POLYLINE
62
31
66
1
70
1
3
contour
0
VERTEX
10
9.86018
20
8.81469
30
4.88
0
VERTEX
10
9.86833
20
8.77124
30
4.88
0
VERTEX
10
9.86833
20
8.74952
30
4.88
0
VERTEX
10
9.87376
20
8.73866
30
4.88
0
VERTEX
10
9.87376
20
8.72779
30
4.88
0
VERTEX
10
9.8819
20
8.71693
30
4.88
0
VERTEX
10
9.8819
20
8.7115
30
4.88
0
VERTEX
10
9.90091
20
8.68978
30
4.88
0
VERTEX
10
9.91178
20
8.68706
30
4.88
0
VERTEX
10
9.91992
20
8.6762
30
4.88
0
VERTEX
10
9.94165
20
8.66262
30
4.88
0
VERTEX
10
9.94708
20
8.66262
30
4.88
0
VERTEX
10
9.95251
20
8.65719
30
4.88
0
VERTEX
10
10.0394
20
8.65447
30
4.88
0
VERTEX
10
10.0829
20
8.65447
30
4.88
0
VERTEX
10
10.0937
20
8.65176
30
4.88
0
VERTEX
10
10.0964
20
8.64633
30
4.88
0
VERTEX
10
10.1399
20
8.6409
30
4.88
0
VERTEX
10
10.1616
20
8.6409
30
4.88
0
VERTEX
10
10.1725
20
8.63546
30
4.88
0
VERTEX
10
10.1833
20
8.63546
30
4.88
0
VERTEX
10
10.1942
20
8.63003
30
4.88
0
VERTEX
10
10.2159
20
8.62732
30
4.88
0
VERTEX
10
10.2594
20
8.60559
30
4.88
0
VERTEX
10
10.3028
20
8.59473
30
4.88
0
VERTEX
10
10.3463
20
8.59202
30
4.88
0
VERTEX
10
10.3897
20
8.59473
30
4.88
0
VERTEX
10
10.4114
20
8.59745
30
4.88
0
VERTEX
10
10.4332
20
8.60559
30
4.88
0
VERTEX
10
10.444
20
8.61374
30
4.88
0
VERTEX
10
10.4549
20
8.61646
30
4.88
0
VERTEX
10
10.4983
20
8.64361
30
4.88
0
VERTEX
10
10.5092
20
8.64904
30
4.88
0
VERTEX
10
10.5146
20
8.65447
30
4.88
0
VERTEX
10
10.5201
20
8.65447
30
4.88
0
VERTEX
10
10.5391
20
8.67348
30
4.88
0
VERTEX
10
10.5526
20
8.69249
30
4.88
0
VERTEX
10
10.5635
20
8.70335
30
4.88
0
VERTEX
10
10.5907
20
8.7468
30
4.88
0
VERTEX
10
10.5988
20
8.76853
30
4.88
0
VERTEX
10
10.5988
20
8.77396
30
4.88
0
VERTEX
10
10.607
20
8.78482
30
4.88
0
VERTEX
10
10.607
20
8.79025
30
4.88
0
VERTEX
10
10.626
20
8.81198
30
4.88
0
VERTEX
10
10.645
20
8.85271
30
4.88
0
VERTEX
10
10.6558
20
8.87443
30
4.88
0
VERTEX
10
10.6613
20
8.88258
30
4.88
0
VERTEX
10
10.6613
20
8.88801
30
4.88
0
VERTEX
10
10.6694
20
8.89887
30
4.88
0
VERTEX
10
10.6721
20
8.9206
30
4.88
0
VERTEX
10
10.6667
20
8.96405
30
4.88
0
VERTEX
10
10.6613
20
8.97491
30
4.88
0
VERTEX
10
10.6423
20
8.98849
30
4.88
0
VERTEX
10
10.6205
20
8.99663
30
4.88
0
VERTEX
10
10.5988
20
8.99935
30
4.88
0
VERTEX
10
10.5879
20
9.00206
30
4.88
0
VERTEX
10
10.5825
20
9.0075
30
4.88
0
VERTEX
10
10.5608
20
9.01021
30
4.88
0
VERTEX
10
10.5499
20
9.01564
30
4.88
0
VERTEX
10
10.5391
20
9.01564
30
4.88
0
VERTEX
10
10.5173
20
9.02379
30
4.88
0
VERTEX
10
10.5065
20
9.03194
30
4.88
0
VERTEX
10
10.4196
20
9.03737
30
4.88
0
VERTEX
10
10.3761
20
9.03737
30
4.88
0
VERTEX
10
10.3327
20
9.0428
30
4.88
0
VERTEX
10
10.3218
20
9.0428
30
4.88
0
VERTEX
10
10.2784
20
9.05909
30
4.88
0
VERTEX
10
10.2675
20
9.06181
30
4.88
0
VERTEX
10
10.2621
20
9.06724
30
4.88
0
VERTEX
10
10.2567
20
9.06724
30
4.88
0
VERTEX
10
10.2349
20
9.08082
30
4.88
0
VERTEX
10
10.1915
20
9.09711
30
4.88
0
VERTEX
10
10.1698
20
9.10526
30
4.88
0
VERTEX
10
10.0829
20
9.10526
30
4.88
0
VERTEX
10
10.0394
20
9.09168
30
4.88
0
VERTEX
10
10.0177
20
9.08353
30
4.88
0
VERTEX
10
10.0068
20
9.0781
30
4.88
0
VERTEX
10
10.0014
20
9.0781
30
4.88
0
VERTEX
10
9.99596
20
9.07267
30
4.88
0
VERTEX
10
9.97423
20
9.06724
30
4.88
0
VERTEX
10
9.96609
20
9.05909
30
4.88
0
VERTEX
10
9.94708
20
9.05094
30
4.88
0
VERTEX
10
9.91721
20
9.0075
30
4.88
0
VERTEX
10
9.90906
20
8.98577
30
4.88
0
VERTEX
10
9.90634
20
8.96405
30
4.88
0
VERTEX
10
9.90634
20
8.95318
30
4.88
0
VERTEX
10
9.8982
20
8.93146
30
4.88
0
VERTEX
10
9.89277
20
8.9206
30
4.88
0
VERTEX
10
9.87376
20
8.90159
30
4.88
0
VERTEX
10
9.86018
20
8.85814
30
4.88
0
VERTEX
10
9.86018
20
8.81741
30
4.88
0
SEQEND
0
POLYLINE
62
224
66
1
70
1
3
mitochondrion
0
VERTEX
10
9.18101
20
8.89458
30
4.88
0
VERTEX
10
9.1963
20
8.87372
30
4.88
0
VERTEX
10
9.21438
20
8.85426
30
4.88
0
VERTEX
10
9.22272
20
8.84592
30
4.88
0
VERTEX
10
9.23385
20
8.83757
30
4.88
0
VERTEX
10
9.2408
20
8.82784
30
4.88
0
VERTEX
10
9.25192
20
8.82506
30
4.88
0
VERTEX
10
9.27417
20
8.82645
30
4.88
0
VERTEX
10
9.31866
20
8.83618
30
4.88
0
VERTEX
10
9.32422
20
8.83896
30
4.88
0
VERTEX
10
9.327
20
8.84313
30
4.88
0
VERTEX
10
9.33813
20
8.85009
30
4.88
0
VERTEX
10
9.3423
20
8.85565
30
4.88
0
VERTEX
10
9.34508
20
8.85565
30
4.88
0
VERTEX
10
9.34786
20
8.86121
30
4.88
0
VERTEX
10
9.35342
20
8.8626
30
4.88
0
VERTEX
10
9.35759
20
8.86816
30
4.88
0
VERTEX
10
9.35759
20
8.87094
30
4.88
0
VERTEX
10
9.36455
20
8.88207
30
4.88
0
VERTEX
10
9.36733
20
8.88485
30
4.88
0
VERTEX
10
9.36733
20
8.88763
30
4.88
0
VERTEX
10
9.37289
20
8.8918
30
4.88
0
VERTEX
10
9.37428
20
8.89736
30
4.88
0
VERTEX
10
9.37845
20
8.90153
30
4.88
0
VERTEX
10
9.38262
20
8.92378
30
4.88
0
VERTEX
10
9.38401
20
8.92934
30
4.88
0
VERTEX
10
9.37984
20
8.95159
30
4.88
0
VERTEX
10
9.3715
20
8.97383
30
4.88
0
VERTEX
10
9.36872
20
8.97662
30
4.88
0
VERTEX
10
9.36733
20
8.98218
30
4.88
0
VERTEX
10
9.36037
20
8.9933
30
4.88
0
VERTEX
10
9.35203
20
9.00164
30
4.88
0
VERTEX
10
9.34647
20
9.00303
30
4.88
0
VERTEX
10
9.34369
20
9.00581
30
4.88
0
VERTEX
10
9.33257
20
9.00999
30
4.88
0
VERTEX
10
9.31032
20
9.01138
30
4.88
0
VERTEX
10
9.28807
20
9.0086
30
4.88
0
VERTEX
10
9.27695
20
9.00442
30
4.88
0
VERTEX
10
9.27417
20
9.00442
30
4.88
0
VERTEX
10
9.26861
20
9.00025
30
4.88
0
VERTEX
10
9.25748
20
9.00025
30
4.88
0
VERTEX
10
9.24636
20
8.99608
30
4.88
0
VERTEX
10
9.2408
20
8.99608
30
4.88
0
VERTEX
10
9.22272
20
8.97662
30
4.88
0
VERTEX
10
9.21577
20
8.96549
30
4.88
0
VERTEX
10
9.2116
20
8.95993
30
4.88
0
VERTEX
10
9.20882
20
8.95715
30
4.88
0
VERTEX
10
9.20882
20
8.95437
30
4.88
0
VERTEX
10
9.19908
20
8.94742
30
4.88
0
VERTEX
10
9.19213
20
8.93629
30
4.88
0
VERTEX
10
9.19074
20
8.93073
30
4.88
0
VERTEX
10
9.18796
20
8.92795
30
4.88
0
VERTEX
10
9.18518
20
8.93073
30
4.88
0
VERTEX
10
9.1824
20
8.92795
30
4.88
0
VERTEX
10
9.18101
20
8.9057
30
4.88
0
VERTEX
10
9.18101
20
8.89597
30
4.88
0
SEQEND
0
POLYLINE
62
236
66
1
70
1
3
postsynaptic_density
0
VERTEX
10
9.96007
20
9.07361
30
4.88
0
VERTEX
10
9.9638
20
9.06988
30
4.88
0
VERTEX
10
9.9694
20
9.05495
30
4.88
0
VERTEX
10
9.97314
20
9.04935
30
4.88
0
VERTEX
10
9.98807
20
9.03629
30
4.88
0
VERTEX
10
9.99553
20
9.03069
30
4.88
0
VERTEX
10
9.99926
20
9.02696
30
4.88
0
VERTEX
10
10.0067
20
9.02509
30
4.88
0
VERTEX
10
10.0123
20
9.01949
30
4.88
0
VERTEX
10
10.0422
20
9.01763
30
4.88
0
VERTEX
10
10.072
20
9.01949
30
4.88
0
VERTEX
10
10.0795
20
9.02322
30
4.88
0
VERTEX
10
10.0832
20
9.02322
30
4.88
0
VERTEX
10
10.087
20
9.02696
30
4.88
0
VERTEX
10
10.0944
20
9.02696
30
4.88
0
VERTEX
10
10.0982
20
9.02696
30
4.88
0
VERTEX
10
10.1038
20
9.03442
30
4.88
0
VERTEX
10
10.1056
20
9.06428
30
4.88
0
VERTEX
10
10.1056
20
9.07921
30
4.88
0
VERTEX
10
10.1
20
9.09414
30
4.88
0
VERTEX
10
10.1
20
9.10161
30
4.88
0
VERTEX
10
10.0944
20
9.11654
30
4.88
0
VERTEX
10
10.0851
20
9.1296
30
4.88
0
VERTEX
10
10.0814
20
9.13333
30
4.88
0
VERTEX
10
10.0776
20
9.13333
30
4.88
0
VERTEX
10
10.0497
20
9.15386
30
4.88
0
VERTEX
10
10.0347
20
9.16319
30
4.88
0
VERTEX
10
10.0198
20
9.16319
30
4.88
0
VERTEX
10
10.0161
20
9.15946
30
4.88
0
VERTEX
10
10.0086
20
9.15946
30
4.88
0
VERTEX
10
9.99366
20
9.15199
30
4.88
0
VERTEX
10
9.97314
20
9.124
30
4.88
0
VERTEX
10
9.96754
20
9.12213
30
4.88
0
VERTEX
10
9.96194
20
9.11467
30
4.88
0
VERTEX
10
9.96007
20
9.08481
30
4.88
0
VERTEX
10
9.96007
20
9.07734
30
4.88
0
VERTEX
10
9.96007
20
9.07548
30
4.88
0
SEQEND
0
POLYLINE
62
227
66
1
70
1
3
endoplasmic_reticulum
0
VERTEX
10
8.98251
20
8.77074
30
4.88
0
VERTEX
10
8.99012
20
8.75855
30
4.88
0
VERTEX
10
8.99622
20
8.75398
30
4.88
0
VERTEX
10
9.02059
20
8.75246
30
4.88
0
VERTEX
10
9.03278
20
8.75246
30
4.88
0
VERTEX
10
9.03888
20
8.75246
30
4.88
0
VERTEX
10
9.05106
20
8.75703
30
4.88
0
VERTEX
10
9.04954
20
8.76312
30
4.88
0
VERTEX
10
9.04649
20
8.76617
30
4.88
0
VERTEX
10
9.04497
20
8.77226
30
4.88
0
VERTEX
10
9.0343
20
8.77988
30
4.88
0
VERTEX
10
9.02821
20
8.78445
30
4.88
0
VERTEX
10
9.02212
20
8.78598
30
4.88
0
VERTEX
10
9.01602
20
8.79207
30
4.88
0
VERTEX
10
9.01755
20
8.80273
30
4.88
0
VERTEX
10
9.01907
20
8.80578
30
4.88
0
VERTEX
10
9.01298
20
8.81035
30
4.88
0
VERTEX
10
9.00993
20
8.81187
30
4.88
0
VERTEX
10
8.99926
20
8.79969
30
4.88
0
VERTEX
10
8.9886
20
8.79055
30
4.88
0
VERTEX
10
8.98555
20
8.7875
30
4.88
0
VERTEX
10
8.98555
20
8.7814
30
4.88
0
VERTEX
10
8.98251
20
8.77836
30
4.88
0
VERTEX
10
8.98251
20
8.77226
30
4.88
0
SEQEND
0
POLYLINE
62
227
66
1
70
1
3
endoplasmic_reticulum
0
VERTEX
10
9.14167
20
8.76362
30
4.88
0
VERTEX
10
9.14503
20
8.76025
30
4.88
0
VERTEX
10
9.1484
20
8.75128
30
4.88
0
VERTEX
10
9.15737
20
8.74903
30
4.88
0
VERTEX
10
9.16635
20
8.74455
30
4.88
0
VERTEX
10
9.1742
20
8.73669
30
4.88
0
VERTEX
10
9.19215
20
8.73669
30
4.88
0
VERTEX
10
9.20112
20
8.73669
30
4.88
0
VERTEX
10
9.20561
20
8.73669
30
4.88
0
VERTEX
10
9.21459
20
8.74118
30
4.88
0
VERTEX
10
9.22244
20
8.74791
30
4.88
0
VERTEX
10
9.23141
20
8.7524
30
4.88
0
VERTEX
10
9.23366
20
8.75689
30
4.88
0
VERTEX
10
9.2359
20
8.75689
30
4.88
0
VERTEX
10
9.24375
20
8.76474
30
4.88
0
VERTEX
10
9.24487
20
8.76698
30
4.88
0
VERTEX
10
9.23702
20
8.77483
30
4.88
0
VERTEX
10
9.22805
20
8.77932
30
4.88
0
VERTEX
10
9.21907
20
8.78156
30
4.88
0
VERTEX
10
9.21459
20
8.78269
30
4.88
0
VERTEX
10
9.20673
20
8.7883
30
4.88
0
VERTEX
10
9.20561
20
8.79054
30
4.88
0
VERTEX
10
9.20112
20
8.79166
30
4.88
0
VERTEX
10
9.19664
20
8.79503
30
4.88
0
VERTEX
10
9.19215
20
8.79615
30
4.88
0
VERTEX
10
9.18317
20
8.80176
30
4.88
0
VERTEX
10
9.16523
20
8.80288
30
4.88
0
VERTEX
10
9.16074
20
8.80288
30
4.88
0
VERTEX
10
9.15737
20
8.79951
30
4.88
0
VERTEX
10
9.15401
20
8.79054
30
4.88
0
VERTEX
10
9.14728
20
8.78269
30
4.88
0
VERTEX
10
9.14279
20
8.77932
30
4.88
0
VERTEX
10
9.14167
20
8.77035
30
4.88
0
VERTEX
10
9.14167
20
8.76586
30
4.88
0
VERTEX
10
9.14167
20
8.76474
30
4.88
0
SEQEND
0
POLYLINE
62
227
66
1
70
1
3
endoplasmic_reticulum
0
VERTEX
10
9.02194
20
8.9825
30
4.88
0
VERTEX
10
9.02463
20
8.96815
30
4.88
0
VERTEX
10
9.02553
20
8.96456
30
4.88
0
VERTEX
10
9.02732
20
8.96277
30
4.88
0
VERTEX
10
9.02732
20
8.95919
30
4.88
0
VERTEX
10
9.03001
20
8.9556
30
4.88
0
VERTEX
10
9.03091
20
8.94843
30
4.88
0
VERTEX
10
9.03181
20
8.94484
30
4.88
0
VERTEX
10
9.0336
20
8.94305
30
4.88
0
VERTEX
10
9.0345
20
8.9287
30
4.88
0
VERTEX
10
9.0345
20
8.92153
30
4.88
0
VERTEX
10
9.02553
20
8.90808
30
4.88
0
VERTEX
10
9.02553
20
8.9045
30
4.88
0
VERTEX
10
9.02284
20
8.89732
30
4.88
0
VERTEX
10
9.02374
20
8.89374
30
4.88
0
VERTEX
10
9.02822
20
8.88746
30
4.88
0
VERTEX
10
9.03091
20
8.88477
30
4.88
0
VERTEX
10
9.03808
20
8.88567
30
4.88
0
VERTEX
10
9.04167
20
8.88567
30
4.88
0
VERTEX
10
9.05601
20
8.89284
30
4.88
0
VERTEX
10
9.06229
20
8.89822
30
4.88
0
VERTEX
10
9.07663
20
8.9027
30
4.88
0
VERTEX
10
9.09098
20
8.9036
30
4.88
0
VERTEX
10
9.09367
20
8.90808
30
4.88
0
VERTEX
10
9.09636
20
8.90988
30
4.88
0
VERTEX
10
9.09994
20
8.90988
30
4.88
0
VERTEX
10
9.10084
20
8.91346
30
4.88
0
VERTEX
10
9.10263
20
8.91525
30
4.88
0
VERTEX
10
9.10174
20
8.9296
30
4.88
0
VERTEX
10
9.10174
20
8.93319
30
4.88
0
VERTEX
10
9.09008
20
8.94663
30
4.88
0
VERTEX
10
9.08739
20
8.95022
30
4.88
0
VERTEX
10
9.08918
20
8.95739
30
4.88
0
VERTEX
10
9.09277
20
8.96008
30
4.88
0
VERTEX
10
9.10712
20
8.96098
30
4.88
0
VERTEX
10
9.1107
20
8.95919
30
4.88
0
VERTEX
10
9.11787
20
8.95829
30
4.88
0
VERTEX
10
9.13132
20
8.95381
30
4.88
0
VERTEX
10
9.14567
20
8.95291
30
4.88
0
VERTEX
10
9.15284
20
8.9556
30
4.88
0
VERTEX
10
9.16001
20
8.96008
30
4.88
0
VERTEX
10
9.16539
20
8.96636
30
4.88
0
VERTEX
10
9.16718
20
8.96905
30
4.88
0
VERTEX
10
9.17436
20
8.97353
30
4.88
0
VERTEX
10
9.18153
20
8.97443
30
4.88
0
VERTEX
10
9.18422
20
8.97801
30
4.88
0
VERTEX
10
9.1878
20
8.97981
30
4.88
0
VERTEX
10
9.1878
20
8.98339
30
4.88
0
VERTEX
10
9.1878
20
8.98519
30
4.88
0
VERTEX
10
9.19498
20
8.98787
30
4.88
0
VERTEX
10
9.19587
20
8.99146
30
4.88
0
VERTEX
10
9.20215
20
8.99594
30
4.88
0
VERTEX
10
9.20574
20
8.99684
30
4.88
0
VERTEX
10
9.20663
20
8.99863
30
4.88
0
VERTEX
10
9.2138
20
9.00043
30
4.88
0
VERTEX
10
9.2156
20
9.00043
30
4.88
0
VERTEX
10
9.21649
20
9.00222
30
4.88
0
VERTEX
10
9.21829
20
9.00222
30
4.88
0
VERTEX
10
9.22098
20
9.00491
30
4.88
0
VERTEX
10
9.22277
20
9.01208
30
4.88
0
VERTEX
10
9.22277
20
9.01387
30
4.88
0
VERTEX
10
9.22456
20
9.01567
30
4.88
0
VERTEX
10
9.22367
20
9.03001
30
4.88
0
VERTEX
10
9.22367
20
9.0336
30
4.88
0
VERTEX
10
9.22008
20
9.03718
30
4.88
0
VERTEX
10
9.21918
20
9.04077
30
4.88
0
VERTEX
10
9.2156
20
9.04436
30
4.88
0
VERTEX
10
9.2138
20
9.04615
30
4.88
0
VERTEX
10
9.21022
20
9.04705
30
4.88
0
VERTEX
10
9.20932
20
9.04884
30
4.88
0
VERTEX
10
9.20753
20
9.04884
30
4.88
0
VERTEX
10
9.20394
20
9.05153
30
4.88
0
VERTEX
10
9.1896
20
9.05063
30
4.88
0
VERTEX
10
9.17525
20
9.04794
30
4.88
0
VERTEX
10
9.16091
20
9.04256
30
4.88
0
VERTEX
10
9.15732
20
9.04256
30
4.88
0
VERTEX
10
9.14387
20
9.0345
30
4.88
0
VERTEX
10
9.13132
20
9.02284
30
4.88
0
VERTEX
10
9.12594
20
9.01656
30
4.88
0
VERTEX
10
9.12415
20
9.01656
30
4.88
0
VERTEX
10
9.12236
20
9.01477
30
4.88
0
VERTEX
10
9.12146
20
9.01118
30
4.88
0
VERTEX
10
9.11518
20
9.00401
30
4.88
0
VERTEX
10
9.11429
20
8.99684
30
4.88
0
VERTEX
10
9.11249
20
8.99325
30
4.88
0
VERTEX
10
9.11249
20
8.98967
30
4.88
0
VERTEX
10
9.10981
20
8.9825
30
4.88
0
VERTEX
10
9.10712
20
8.97891
30
4.88
0
VERTEX
10
9.10353
20
8.97801
30
4.88
0
VERTEX
10
9.10084
20
8.97532
30
4.88
0
VERTEX
10
9.09905
20
8.97532
30
4.88
0
VERTEX
10
9.09546
20
8.97263
30
4.88
0
VERTEX
10
9.09367
20
8.97443
30
4.88
0
VERTEX
10
9.09187
20
8.97443
30
4.88
0
VERTEX
10
9.07932
20
8.98339
30
4.88
0
VERTEX
10
9.07663
20
8.98608
30
4.88
0
VERTEX
10
9.07574
20
8.98967
30
4.88
0
VERTEX
10
9.07394
20
8.99056
30
4.88
0
VERTEX
10
9.07394
20
8.99236
30
4.88
0
VERTEX
10
9.06856
20
8.99863
30
4.88
0
VERTEX
10
9.06767
20
9.00222
30
4.88
0
VERTEX
10
9.06677
20
9.00401
30
4.88
0
VERTEX
10
9.06498
20
9.00401
30
4.88
0
VERTEX
10
9.0596
20
9.00939
30
4.88
0
VERTEX
10
9.05332
20
9.01298
30
4.88
0
VERTEX
10
9.03898
20
9.01208
30
4.88
0
VERTEX
10
9.03181
20
9.00939
30
4.88
0
VERTEX
10
9.02822
20
9.0067
30
4.88
0
VERTEX
10
9.02194
20
8.99236
30
4.88
0
VERTEX
10
9.02194
20
8.98519
30
4.88
0
VERTEX
10
9.02194
20
8.98339
30
4.88
0
SEQEND
0
POLYLINE
62
31
66
1
70
1
3
contour
0
VERTEX
10
8.80384
20
8.75029
30
4.88
0
VERTEX
10
8.80718
20
8.7369
30
4.88
0
VERTEX
10
8.80718
20
8.71012
30
4.88
0
VERTEX
10
8.80886
20
8.70343
30
4.88
0
VERTEX
10
8.81388
20
8.69674
30
4.88
0
VERTEX
10
8.8189
20
8.68335
30
4.88
0
VERTEX
10
8.82726
20
8.67833
30
4.88
0
VERTEX
10
8.82726
20
8.67498
30
4.88
0
VERTEX
10
8.83061
20
8.67164
30
4.88
0
VERTEX
10
8.88416
20
8.66327
30
4.88
0
VERTEX
10
8.91093
20
8.65323
30
4.88
0
VERTEX
10
8.92432
20
8.64486
30
4.88
0
VERTEX
10
8.93101
20
8.64319
30
4.88
0
VERTEX
10
8.93771
20
8.63649
30
4.88
0
VERTEX
10
8.94106
20
8.63315
30
4.88
0
VERTEX
10
8.94775
20
8.63147
30
4.88
0
VERTEX
10
8.9511
20
8.62813
30
4.88
0
VERTEX
10
8.96448
20
8.62311
30
4.88
0
VERTEX
10
8.97787
20
8.61474
30
4.88
0
VERTEX
10
8.98456
20
8.61139
30
4.88
0
VERTEX
10
8.98791
20
8.61139
30
4.88
0
VERTEX
10
8.99293
20
8.60637
30
4.88
0
VERTEX
10
9.00632
20
8.6047
30
4.88
0
VERTEX
10
9.00967
20
8.6047
30
4.88
0
VERTEX
10
9.01301
20
8.60805
30
4.88
0
VERTEX
10
9.01971
20
8.60972
30
4.88
0
VERTEX
10
9.04481
20
8.63315
30
4.88
0
VERTEX
10
9.05652
20
8.64486
30
4.88
0
VERTEX
10
9.06823
20
8.65155
30
4.88
0
VERTEX
10
9.09334
20
8.67331
30
4.88
0
VERTEX
10
9.10338
20
8.68502
30
4.88
0
VERTEX
10
9.21047
20
8.69172
30
4.88
0
VERTEX
10
9.23725
20
8.69674
30
4.88
0
VERTEX
10
9.26402
20
8.69841
30
4.88
0
VERTEX
10
9.27072
20
8.70008
30
4.88
0
VERTEX
10
9.27072
20
8.70343
30
4.88
0
VERTEX
10
9.28411
20
8.70678
30
4.88
0
VERTEX
10
9.31088
20
8.72518
30
4.88
0
VERTEX
10
9.31423
20
8.72518
30
4.88
0
VERTEX
10
9.32092
20
8.7302
30
4.88
0
VERTEX
10
9.33431
20
8.73523
30
4.88
0
VERTEX
10
9.33765
20
8.73857
30
4.88
0
VERTEX
10
9.341
20
8.73857
30
4.88
0
VERTEX
10
9.35272
20
8.75029
30
4.88
0
VERTEX
10
9.37614
20
8.76535
30
4.88
0
VERTEX
10
9.37949
20
8.76869
30
4.88
0
VERTEX
10
9.38284
20
8.76869
30
4.88
0
VERTEX
10
9.39288
20
8.77873
30
4.88
0
VERTEX
10
9.39622
20
8.77873
30
4.88
0
VERTEX
10
9.41798
20
8.80049
30
4.88
0
VERTEX
10
9.42467
20
8.81388
30
4.88
0
VERTEX
10
9.42635
20
8.82726
30
4.88
0
VERTEX
10
9.43137
20
8.83396
30
4.88
0
VERTEX
10
9.43639
20
8.86073
30
4.88
0
VERTEX
10
9.43806
20
8.87412
30
4.88
0
VERTEX
10
9.43806
20
8.88081
30
4.88
0
VERTEX
10
9.44141
20
8.88751
30
4.88
0
VERTEX
10
9.44141
20
8.8942
30
4.88
0
VERTEX
10
9.44308
20
8.89755
30
4.88
0
VERTEX
10
9.45647
20
8.90089
30
4.88
0
VERTEX
10
9.46818
20
8.91261
30
4.88
0
VERTEX
10
9.47153
20
8.91261
30
4.88
0
VERTEX
10
9.48157
20
8.92097
30
4.88
0
VERTEX
10
9.48826
20
8.92599
30
4.88
0
VERTEX
10
9.50165
20
8.93101
30
4.88
0
VERTEX
10
9.505
20
8.93436
30
4.88
0
VERTEX
10
9.51169
20
8.93603
30
4.88
0
VERTEX
10
9.51838
20
8.94106
30
4.88
0
VERTEX
10
9.52508
20
8.94106
30
4.88
0
VERTEX
10
9.52842
20
8.94273
30
4.88
0
VERTEX
10
9.52842
20
8.9695
30
4.88
0
VERTEX
10
9.52842
20
8.98289
30
4.88
0
VERTEX
10
9.5234
20
8.98958
30
4.88
0
VERTEX
10
9.5234
20
9.00297
30
4.88
0
VERTEX
10
9.51671
20
9.01469
30
4.88
0
VERTEX
10
9.51336
20
9.02138
30
4.88
0
VERTEX
10
9.51336
20
9.02473
30
4.88
0
VERTEX
10
9.51002
20
9.0264
30
4.88
0
VERTEX
10
9.50834
20
9.03309
30
4.88
0
VERTEX
10
9.4983
20
9.04481
30
4.88
0
VERTEX
10
9.49161
20
9.0515
30
4.88
0
VERTEX
10
9.48826
20
9.0515
30
4.88
0
VERTEX
10
9.46149
20
9.06656
30
4.88
0
VERTEX
10
9.4481
20
9.07158
30
4.88
0
VERTEX
10
9.44141
20
9.07493
30
4.88
0
VERTEX
10
9.42802
20
9.07493
30
4.88
0
VERTEX
10
9.42133
20
9.0766
30
4.88
0
VERTEX
10
9.4163
20
9.08162
30
4.88
0
VERTEX
10
9.40961
20
9.0833
30
4.88
0
VERTEX
10
9.39622
20
9.09166
30
4.88
0
VERTEX
10
9.28913
20
9.09334
30
4.88
0
VERTEX
10
9.23558
20
9.09166
30
4.88
0
VERTEX
10
9.18203
20
9.09501
30
4.88
0
VERTEX
10
9.15525
20
9.09668
30
4.88
0
VERTEX
10
9.12848
20
9.08497
30
4.88
0
VERTEX
10
9.1268
20
9.08162
30
4.88
0
VERTEX
10
9.10003
20
9.07828
30
4.88
0
VERTEX
10
9.08664
20
9.07493
30
4.88
0
VERTEX
10
9.07325
20
9.07493
30
4.88
0
VERTEX
10
9.05987
20
9.06991
30
4.88
0
VERTEX
10
9.05652
20
9.06991
30
4.88
0
VERTEX
10
9.05485
20
9.06656
30
4.88
0
VERTEX
10
9.02807
20
9.05652
30
4.88
0
VERTEX
10
9.01803
20
9.04481
30
4.88
0
VERTEX
10
9.01134
20
9.04313
30
4.88
0
VERTEX
10
9.0013
20
9.03309
30
4.88
0
VERTEX
10
8.98958
20
9.00632
30
4.88
0
VERTEX
10
8.98791
20
8.99293
30
4.88
0
VERTEX
10
8.98958
20
8.98624
30
4.88
0
VERTEX
10
8.99293
20
8.98456
30
4.88
0
VERTEX
10
8.99126
20
8.95779
30
4.88
0
VERTEX
10
8.98624
20
8.9511
30
4.88
0
VERTEX
10
8.98289
20
8.89755
30
4.88
0
VERTEX
10
8.97118
20
8.88918
30
4.88
0
VERTEX
10
8.95946
20
8.88416
30
4.88
0
VERTEX
10
8.94942
20
8.87412
30
4.88
0
VERTEX
10
8.94273
20
8.87245
30
4.88
0
VERTEX
10
8.93101
20
8.86408
30
4.88
0
VERTEX
10
8.92599
20
8.85906
30
4.88
0
VERTEX
10
8.91261
20
8.85404
30
4.88
0
VERTEX
10
8.90089
20
8.84567
30
4.88
0
VERTEX
10
8.8942
20
8.844
30
4.88
0
VERTEX
10
8.88249
20
8.83563
30
4.88
0
VERTEX
10
8.87579
20
8.83228
30
4.88
0
VERTEX
10
8.85236
20
8.81053
30
4.88
0
VERTEX
10
8.83898
20
8.80384
30
4.88
0
VERTEX
10
8.83228
20
8.80216
30
4.88
0
VERTEX
10
8.82726
20
8.79714
30
4.88
0
VERTEX
10
8.82559
20
8.79379
30
4.88
0
VERTEX
10
8.82224
20
8.79379
30
4.88
0
VERTEX
10
8.81388
20
8.78041
30
4.88
0
VERTEX
10
8.80886
20
8.77371
30
4.88
0
VERTEX
10
8.80886
20
8.77037
30
4.88
0
VERTEX
10
8.80384
20
8.76367
30
4.88
0
VERTEX
10
8.80384
20
8.75196
30
4.88
0
SEQEND
0
ENDSEC
0
EOF
