0
SECTION
2
ENTITIES
0
POLYLINE
62
31
66
1
70
1
3
contour
0
VERTEX
10
7.51547
20
10.2313
30
9
0
VERTEX
10
7.52205
20
10.205
30
9
0
VERTEX
10
7.52205
20
10.1918
30
9
0
VERTEX
10
7.52863
20
10.1786
30
9
0
VERTEX
10
7.55497
20
10.1556
30
9
0
VERTEX
10
7.56485
20
10.1424
30
9
0
VERTEX
10
7.57143
20
10.1424
30
9
0
VERTEX
10
7.57801
20
10.1358
30
9
0
VERTEX
10
7.60435
20
10.1358
30
9
0
VERTEX
10
7.61422
20
10.1424
30
9
0
VERTEX
10
7.64056
20
10.1325
30
9
0
VERTEX
10
7.65373
20
10.1325
30
9
0
VERTEX
10
7.66689
20
10.126
30
9
0
VERTEX
10
7.67348
20
10.126
30
9
0
VERTEX
10
7.68665
20
10.1161
30
9
0
VERTEX
10
7.73932
20
10.1128
30
9
0
VERTEX
10
7.78211
20
10.07
30
9
0
VERTEX
10
7.80516
20
10.0535
30
9
0
VERTEX
10
7.81174
20
10.047
30
9
0
VERTEX
10
7.81832
20
10.047
30
9
0
VERTEX
10
7.84466
20
10.0305
30
9
0
VERTEX
10
7.89733
20
10.0075
30
9
0
VERTEX
10
7.9105
20
10.0042
30
9
0
VERTEX
10
7.91708
20
9.99758
30
9
0
VERTEX
10
8.02242
20
10.0042
30
9
0
VERTEX
10
8.03559
20
10.014
30
9
0
VERTEX
10
8.04876
20
10.0173
30
9
0
VERTEX
10
8.05534
20
10.0239
30
9
0
VERTEX
10
8.06193
20
10.0502
30
9
0
VERTEX
10
8.06193
20
10.0766
30
9
0
VERTEX
10
8.05863
20
10.0898
30
9
0
VERTEX
10
8.05534
20
10.0963
30
9
0
VERTEX
10
8.06522
20
10.1227
30
9
0
VERTEX
10
8.08168
20
10.149
30
9
0
VERTEX
10
8.12447
20
10.1918
30
9
0
VERTEX
10
8.16068
20
10.2445
30
9
0
VERTEX
10
8.17714
20
10.2708
30
9
0
VERTEX
10
8.18373
20
10.284
30
9
0
VERTEX
10
8.19031
20
10.2906
30
9
0
VERTEX
10
8.20677
20
10.3432
30
9
0
VERTEX
10
8.20677
20
10.3959
30
9
0
VERTEX
10
8.20677
20
10.4222
30
9
0
VERTEX
10
8.20677
20
10.4354
30
9
0
VERTEX
10
8.20019
20
10.4486
30
9
0
VERTEX
10
8.20019
20
10.4617
30
9
0
VERTEX
10
8.19689
20
10.4683
30
9
0
VERTEX
10
8.21335
20
10.4914
30
9
0
VERTEX
10
8.21994
20
10.5045
30
9
0
VERTEX
10
8.21994
20
10.5111
30
9
0
VERTEX
10
8.22652
20
10.5177
30
9
0
VERTEX
10
8.22981
20
10.5309
30
9
0
VERTEX
10
8.26603
20
10.5802
30
9
0
VERTEX
10
8.28248
20
10.6066
30
9
0
VERTEX
10
8.28907
20
10.6198
30
9
0
VERTEX
10
8.29565
20
10.6263
30
9
0
VERTEX
10
8.30553
20
10.679
30
9
0
VERTEX
10
8.30553
20
10.6922
30
9
0
VERTEX
10
8.29894
20
10.7053
30
9
0
VERTEX
10
8.2759
20
10.7284
30
9
0
VERTEX
10
8.24627
20
10.758
30
9
0
VERTEX
10
8.2364
20
10.7679
30
9
0
VERTEX
10
8.18373
20
10.7778
30
9
0
VERTEX
10
8.07839
20
10.7778
30
9
0
VERTEX
10
8.02571
20
10.7778
30
9
0
VERTEX
10
7.99938
20
10.7811
30
9
0
VERTEX
10
7.98621
20
10.7909
30
9
0
VERTEX
10
7.93354
20
10.8074
30
9
0
VERTEX
10
7.92037
20
10.8107
30
9
0
VERTEX
10
7.91708
20
10.814
30
9
0
VERTEX
10
7.92366
20
10.8271
30
9
0
VERTEX
10
7.9105
20
10.8304
30
9
0
VERTEX
10
7.85783
20
10.8107
30
9
0
VERTEX
10
7.83149
20
10.8008
30
9
0
VERTEX
10
7.72615
20
10.7811
30
9
0
VERTEX
10
7.69981
20
10.7778
30
9
0
VERTEX
10
7.68665
20
10.7745
30
9
0
VERTEX
10
7.64056
20
10.7383
30
9
0
VERTEX
10
7.62081
20
10.7152
30
9
0
VERTEX
10
7.60764
20
10.7053
30
9
0
VERTEX
10
7.57801
20
10.656
30
9
0
VERTEX
10
7.57143
20
10.6296
30
9
0
VERTEX
10
7.56485
20
10.6165
30
9
0
VERTEX
10
7.55826
20
10.5111
30
9
0
VERTEX
10
7.55497
20
10.4848
30
9
0
VERTEX
10
7.54509
20
10.4716
30
9
0
VERTEX
10
7.51547
20
10.3663
30
9
0
VERTEX
10
7.51547
20
10.2609
30
9
0
VERTEX
10
7.51547
20
10.2346
30
9
0
SEQEND
0
POLYLINE
62
31
66
1
70
1
3
contour
0
VERTEX
10
6.20776
20
10.8161
30
9
0
VERTEX
10
6.21591
20
10.7943
30
9
0
VERTEX
10
6.21862
20
10.7835
30
9
0
VERTEX
10
6.22677
20
10.7726
30
9
0
VERTEX
10
6.2322
20
10.7509
30
9
0
VERTEX
10
6.23763
20
10.7455
30
9
0
VERTEX
10
6.23763
20
10.74
30
9
0
VERTEX
10
6.24306
20
10.7346
30
9
0
VERTEX
10
6.24306
20
10.7292
30
9
0
VERTEX
10
6.25664
20
10.7074
30
9
0
VERTEX
10
6.26207
20
10.7047
30
9
0
VERTEX
10
6.26479
20
10.6939
30
9
0
VERTEX
10
6.28108
20
10.6748
30
9
0
VERTEX
10
6.3028
20
10.6586
30
9
0
VERTEX
10
6.31367
20
10.6504
30
9
0
VERTEX
10
6.35711
20
10.6423
30
9
0
VERTEX
10
6.37884
20
10.6504
30
9
0
VERTEX
10
6.40056
20
10.6531
30
9
0
VERTEX
10
6.41143
20
10.6613
30
9
0
VERTEX
10
6.42229
20
10.6613
30
9
0
VERTEX
10
6.43858
20
10.6776
30
9
0
VERTEX
10
6.44401
20
10.6884
30
9
0
VERTEX
10
6.44673
20
10.7101
30
9
0
VERTEX
10
6.44944
20
10.721
30
9
0
VERTEX
10
6.45487
20
10.7264
30
9
0
VERTEX
10
6.45216
20
10.8133
30
9
0
VERTEX
10
6.44673
20
10.8188
30
9
0
VERTEX
10
6.44401
20
10.8296
30
9
0
VERTEX
10
6.41414
20
10.8704
30
9
0
VERTEX
10
6.3897
20
10.9111
30
9
0
VERTEX
10
6.38427
20
10.9165
30
9
0
VERTEX
10
6.38427
20
10.922
30
9
0
VERTEX
10
6.36798
20
10.9383
30
9
0
VERTEX
10
6.34625
20
10.9573
30
9
0
VERTEX
10
6.33539
20
10.9627
30
9
0
VERTEX
10
6.33267
20
10.9681
30
9
0
VERTEX
10
6.34354
20
10.9654
30
9
0
VERTEX
10
6.34897
20
10.9681
30
9
0
VERTEX
10
6.34354
20
10.9736
30
9
0
VERTEX
10
6.33267
20
10.9736
30
9
0
VERTEX
10
6.31095
20
10.9817
30
9
0
VERTEX
10
6.30552
20
10.979
30
9
0
VERTEX
10
6.31367
20
10.9736
30
9
0
VERTEX
10
6.27022
20
10.9654
30
9
0
VERTEX
10
6.26479
20
10.9654
30
9
0
VERTEX
10
6.22405
20
10.9355
30
9
0
VERTEX
10
6.22405
20
10.9247
30
9
0
VERTEX
10
6.20776
20
10.9057
30
9
0
VERTEX
10
6.20776
20
10.8188
30
9
0
SEQEND
0
POLYLINE
62
224
66
1
70
1
3
mitochondrion
0
VERTEX
10
7.5987
20
10.3726
30
9
0
VERTEX
10
7.60287
20
10.3504
30
9
0
VERTEX
10
7.60565
20
10.3448
30
9
0
VERTEX
10
7.60982
20
10.3226
30
9
0
VERTEX
10
7.61956
20
10.3017
30
9
0
VERTEX
10
7.63763
20
10.2808
30
9
0
VERTEX
10
7.64597
20
10.2711
30
9
0
VERTEX
10
7.6571
20
10.2642
30
9
0
VERTEX
10
7.67656
20
10.2447
30
9
0
VERTEX
10
7.67934
20
10.2447
30
9
0
VERTEX
10
7.68073
20
10.2419
30
9
0
VERTEX
10
7.70298
20
10.2377
30
9
0
VERTEX
10
7.71411
20
10.235
30
9
0
VERTEX
10
7.7586
20
10.2363
30
9
0
VERTEX
10
7.78085
20
10.2363
30
9
0
VERTEX
10
7.79197
20
10.2377
30
9
0
VERTEX
10
7.79475
20
10.2377
30
9
0
VERTEX
10
7.79753
20
10.2405
30
9
0
VERTEX
10
7.80309
20
10.2419
30
9
0
VERTEX
10
7.80865
20
10.2461
30
9
0
VERTEX
10
7.81978
20
10.2489
30
9
0
VERTEX
10
7.82534
20
10.253
30
9
0
VERTEX
10
7.82812
20
10.253
30
9
0
VERTEX
10
7.83368
20
10.2572
30
9
0
VERTEX
10
7.83646
20
10.26
30
9
0
VERTEX
10
7.84202
20
10.2614
30
9
0
VERTEX
10
7.84342
20
10.2642
30
9
0
VERTEX
10
7.8462
20
10.2642
30
9
0
VERTEX
10
7.85315
20
10.2753
30
9
0
VERTEX
10
7.85593
20
10.2781
30
9
0
VERTEX
10
7.85593
20
10.2808
30
9
0
VERTEX
10
7.85871
20
10.2808
30
9
0
VERTEX
10
7.86566
20
10.292
30
9
0
VERTEX
10
7.87122
20
10.2934
30
9
0
VERTEX
10
7.87261
20
10.2989
30
9
0
VERTEX
10
7.88235
20
10.31
30
9
0
VERTEX
10
7.88791
20
10.3128
30
9
0
VERTEX
10
7.8893
20
10.3184
30
9
0
VERTEX
10
7.8893
20
10.3212
30
9
0
VERTEX
10
7.89764
20
10.3309
30
9
0
VERTEX
10
7.89764
20
10.3365
30
9
0
VERTEX
10
7.90598
20
10.3573
30
9
0
VERTEX
10
7.90877
20
10.4018
30
9
0
VERTEX
10
7.91016
20
10.4241
30
9
0
VERTEX
10
7.91433
20
10.4352
30
9
0
VERTEX
10
7.91572
20
10.4574
30
9
0
VERTEX
10
7.91572
20
10.4685
30
9
0
VERTEX
10
7.91294
20
10.4797
30
9
0
VERTEX
10
7.91155
20
10.5242
30
9
0
VERTEX
10
7.90598
20
10.5464
30
9
0
VERTEX
10
7.89903
20
10.5575
30
9
0
VERTEX
10
7.89486
20
10.5631
30
9
0
VERTEX
10
7.89208
20
10.5659
30
9
0
VERTEX
10
7.88235
20
10.57
30
9
0
VERTEX
10
7.87122
20
10.5784
30
9
0
VERTEX
10
7.8601
20
10.5812
30
9
0
VERTEX
10
7.83785
20
10.5812
30
9
0
VERTEX
10
7.79336
20
10.5742
30
9
0
VERTEX
10
7.74887
20
10.5728
30
9
0
VERTEX
10
7.73774
20
10.5728
30
9
0
VERTEX
10
7.7155
20
10.5659
30
9
0
VERTEX
10
7.70993
20
10.5617
30
9
0
VERTEX
10
7.68769
20
10.552
30
9
0
VERTEX
10
7.68213
20
10.5464
30
9
0
VERTEX
10
7.66127
20
10.5325
30
9
0
VERTEX
10
7.65154
20
10.5283
30
9
0
VERTEX
10
7.6418
20
10.5214
30
9
0
VERTEX
10
7.63624
20
10.5172
30
9
0
VERTEX
10
7.63346
20
10.5061
30
9
0
VERTEX
10
7.62929
20
10.5005
30
9
0
VERTEX
10
7.62095
20
10.4936
30
9
0
VERTEX
10
7.61817
20
10.4908
30
9
0
VERTEX
10
7.61817
20
10.488
30
9
0
VERTEX
10
7.61399
20
10.4838
30
9
0
VERTEX
10
7.6126
20
10.4616
30
9
0
VERTEX
10
7.6126
20
10.4588
30
9
0
VERTEX
10
7.60843
20
10.4533
30
9
0
VERTEX
10
7.60704
20
10.4477
30
9
0
VERTEX
10
7.60287
20
10.4421
30
9
0
VERTEX
10
7.5987
20
10.4199
30
9
0
VERTEX
10
7.5987
20
10.3754
30
9
0
VERTEX
10
7.5987
20
10.374
30
9
0
SEQEND
0
POLYLINE
62
227
66
1
70
1
3
endoplasmic_reticulum
0
VERTEX
10
7.99809
20
10.2672
30
9
0
VERTEX
10
8.00167
20
10.2601
30
9
0
VERTEX
10
8.00526
20
10.2583
30
9
0
VERTEX
10
8.01243
20
10.2583
30
9
0
VERTEX
10
8.01602
20
10.2592
30
9
0
VERTEX
10
8.01871
20
10.2619
30
9
0
VERTEX
10
8.02857
20
10.2897
30
9
0
VERTEX
10
8.02857
20
10.2932
30
9
0
VERTEX
10
8.03036
20
10.295
30
9
0
VERTEX
10
8.03036
20
10.3094
30
9
0
VERTEX
10
8.03036
20
10.3166
30
9
0
VERTEX
10
8.03036
20
10.3201
30
9
0
VERTEX
10
8.02409
20
10.3264
30
9
0
VERTEX
10
8.01781
20
10.3291
30
9
0
VERTEX
10
8.01064
20
10.3273
30
9
0
VERTEX
10
8.00616
20
10.321
30
9
0
VERTEX
10
8.00526
20
10.3175
30
9
0
VERTEX
10
8.00257
20
10.3148
30
9
0
VERTEX
10
8.00257
20
10.3112
30
9
0
VERTEX
10
8.00078
20
10.3076
30
9
0
VERTEX
10
8.00257
20
10.3049
30
9
0
VERTEX
10
8.00167
20
10.2977
30
9
0
VERTEX
10
7.99988
20
10.2941
30
9
0
VERTEX
10
7.99809
20
10.2798
30
9
0
VERTEX
10
7.99809
20
10.2726
30
9
0
VERTEX
10
7.99809
20
10.269
30
9
0
VERTEX
10
7.99809
20
10.2681
30
9
0
SEQEND
0
POLYLINE
62
227
66
1
70
1
3
endoplasmic_reticulum
0
VERTEX
10
7.93354
20
10.2977
30
9
0
VERTEX
10
7.93533
20
10.2834
30
9
0
VERTEX
10
7.93623
20
10.2762
30
9
0
VERTEX
10
7.93892
20
10.269
30
9
0
VERTEX
10
7.93981
20
10.2655
30
9
0
VERTEX
10
7.9425
20
10.2628
30
9
0
VERTEX
10
7.9425
20
10.261
30
9
0
VERTEX
10
7.94609
20
10.2583
30
9
0
VERTEX
10
7.94698
20
10.2565
30
9
0
VERTEX
10
7.96133
20
10.2565
30
9
0
VERTEX
10
7.96761
20
10.2601
30
9
0
VERTEX
10
7.97029
20
10.2628
30
9
0
VERTEX
10
7.97298
20
10.2771
30
9
0
VERTEX
10
7.97388
20
10.2843
30
9
0
VERTEX
10
7.97657
20
10.2915
30
9
0
VERTEX
10
7.97747
20
10.2986
30
9
0
VERTEX
10
7.97657
20
10.3058
30
9
0
VERTEX
10
7.97657
20
10.3094
30
9
0
VERTEX
10
7.97209
20
10.3166
30
9
0
VERTEX
10
7.97029
20
10.3237
30
9
0
VERTEX
10
7.9685
20
10.3273
30
9
0
VERTEX
10
7.96671
20
10.3291
30
9
0
VERTEX
10
7.96581
20
10.3363
30
9
0
VERTEX
10
7.96312
20
10.3399
30
9
0
VERTEX
10
7.94878
20
10.3452
30
9
0
VERTEX
10
7.94519
20
10.3452
30
9
0
VERTEX
10
7.9434
20
10.3452
30
9
0
VERTEX
10
7.94161
20
10.3417
30
9
0
VERTEX
10
7.94071
20
10.3273
30
9
0
VERTEX
10
7.93802
20
10.3237
30
9
0
VERTEX
10
7.93712
20
10.3201
30
9
0
VERTEX
10
7.93712
20
10.3183
30
9
0
VERTEX
10
7.93533
20
10.3166
30
9
0
VERTEX
10
7.93533
20
10.3094
30
9
0
VERTEX
10
7.93354
20
10.3058
30
9
0
VERTEX
10
7.93354
20
10.2986
30
9
0
SEQEND
0
POLYLINE
62
227
66
1
70
1
3
endoplasmic_reticulum
0
VERTEX
10
7.88423
20
10.5918
30
9
0
VERTEX
10
7.88871
20
10.5846
30
9
0
VERTEX
10
7.8914
20
10.5819
30
9
0
VERTEX
10
7.89319
20
10.5819
30
9
0
VERTEX
10
7.89499
20
10.5801
30
9
0
VERTEX
10
7.92367
20
10.5801
30
9
0
VERTEX
10
7.92995
20
10.5855
30
9
0
VERTEX
10
7.93174
20
10.5873
30
9
0
VERTEX
10
7.93354
20
10.6017
30
9
0
VERTEX
10
7.93264
20
10.6088
30
9
0
VERTEX
10
7.93174
20
10.6124
30
9
0
VERTEX
10
7.92457
20
10.616
30
9
0
VERTEX
10
7.9174
20
10.6169
30
9
0
VERTEX
10
7.91023
20
10.616
30
9
0
VERTEX
10
7.90305
20
10.6133
30
9
0
VERTEX
10
7.89947
20
10.6124
30
9
0
VERTEX
10
7.89767
20
10.6124
30
9
0
VERTEX
10
7.8905
20
10.6079
30
9
0
VERTEX
10
7.88692
20
10.607
30
9
0
VERTEX
10
7.88512
20
10.6052
30
9
0
VERTEX
10
7.88512
20
10.5981
30
9
0
VERTEX
10
7.88423
20
10.5945
30
9
0
VERTEX
10
7.88423
20
10.5927
30
9
0
SEQEND
0
POLYLINE
62
236
66
1
70
1
3
postsynaptic_density
0
VERTEX
10
6.12551
20
10.6949
30
9
0
VERTEX
10
6.21967
20
10.5363
30
9
0
VERTEX
10
6.24445
20
10.4966
30
9
0
VERTEX
10
6.25436
20
10.4966
30
9
0
VERTEX
10
6.26427
20
10.5164
30
9
0
VERTEX
10
6.29897
20
10.5462
30
9
0
VERTEX
10
6.34357
20
10.6205
30
9
0
VERTEX
10
6.36339
20
10.6552
30
9
0
VERTEX
10
6.36339
20
10.675
30
9
0
VERTEX
10
6.3733
20
10.6849
30
9
0
VERTEX
10
6.37826
20
10.7246
30
9
0
VERTEX
10
6.38322
20
10.7345
30
9
0
VERTEX
10
6.35844
20
10.7692
30
9
0
VERTEX
10
6.33861
20
10.7791
30
9
0
VERTEX
10
6.29897
20
10.8188
30
9
0
VERTEX
10
6.27914
20
10.8386
30
9
0
VERTEX
10
6.25932
20
10.8485
30
9
0
VERTEX
10
6.22958
20
10.8237
30
9
0
VERTEX
10
6.19985
20
10.789
30
9
0
VERTEX
10
6.16516
20
10.7642
30
9
0
VERTEX
10
6.14038
20
10.7246
30
9
0
VERTEX
10
6.13047
20
10.7048
30
9
0
VERTEX
10
6.12551
20
10.6998
30
9
0
SEQEND
0
ENDSEC
0
EOF
