0
SECTION
2
ENTITIES
0
POLYLINE
62
31
66
1
70
1
3
contour
0
VERTEX
10
9.40832
20
8.44598
30
3.92
0
VERTEX
10
9.41054
20
8.42824
30
3.92
0
VERTEX
10
9.41054
20
8.41937
30
3.92
0
VERTEX
10
9.41719
20
8.40163
30
3.92
0
VERTEX
10
9.41941
20
8.39276
30
3.92
0
VERTEX
10
9.41941
20
8.38833
30
3.92
0
VERTEX
10
9.42384
20
8.38389
30
3.92
0
VERTEX
10
9.42384
20
8.37946
30
3.92
0
VERTEX
10
9.43493
20
8.36172
30
3.92
0
VERTEX
10
9.4438
20
8.35507
30
3.92
0
VERTEX
10
9.4438
20
8.35063
30
3.92
0
VERTEX
10
9.44823
20
8.3462
30
3.92
0
VERTEX
10
9.44823
20
8.34176
30
3.92
0
VERTEX
10
9.45267
20
8.33733
30
3.92
0
VERTEX
10
9.45488
20
8.32846
30
3.92
0
VERTEX
10
9.47706
20
8.2952
30
3.92
0
VERTEX
10
9.48149
20
8.29076
30
3.92
0
VERTEX
10
9.48149
20
8.28633
30
3.92
0
VERTEX
10
9.4948
20
8.26859
30
3.92
0
VERTEX
10
9.50367
20
8.25307
30
3.92
0
VERTEX
10
9.53249
20
8.22424
30
3.92
0
VERTEX
10
9.55023
20
8.21094
30
3.92
0
VERTEX
10
9.5591
20
8.20872
30
3.92
0
VERTEX
10
9.57684
20
8.19763
30
3.92
0
VERTEX
10
9.6478
20
8.17324
30
3.92
0
VERTEX
10
9.65666
20
8.16659
30
3.92
0
VERTEX
10
9.69214
20
8.1555
30
3.92
0
VERTEX
10
9.70988
20
8.14885
30
3.92
0
VERTEX
10
9.71875
20
8.14442
30
3.92
0
VERTEX
10
9.72319
20
8.14442
30
3.92
0
VERTEX
10
9.73206
20
8.13776
30
3.92
0
VERTEX
10
9.76753
20
8.12224
30
3.92
0
VERTEX
10
9.80301
20
8.11115
30
3.92
0
VERTEX
10
9.81188
20
8.11115
30
3.92
0
VERTEX
10
9.84736
20
8.09563
30
3.92
0
VERTEX
10
9.88284
20
8.08676
30
3.92
0
VERTEX
10
9.90058
20
8.08233
30
3.92
0
VERTEX
10
9.90501
20
8.08233
30
3.92
0
VERTEX
10
9.91388
20
8.07568
30
3.92
0
VERTEX
10
9.94936
20
8.06459
30
3.92
0
VERTEX
10
9.98484
20
8.06459
30
3.92
0
VERTEX
10
10.0203
20
8.06902
30
3.92
0
VERTEX
10
10.0292
20
8.07568
30
3.92
0
VERTEX
10
10.0381
20
8.07789
30
3.92
0
VERTEX
10
10.0425
20
8.07789
30
3.92
0
VERTEX
10
10.078
20
8.09785
30
3.92
0
VERTEX
10
10.0868
20
8.09785
30
3.92
0
VERTEX
10
10.1046
20
8.10894
30
3.92
0
VERTEX
10
10.1112
20
8.11559
30
3.92
0
VERTEX
10
10.1157
20
8.11559
30
3.92
0
VERTEX
10
10.1245
20
8.13111
30
3.92
0
VERTEX
10
10.1312
20
8.13998
30
3.92
0
VERTEX
10
10.1356
20
8.1422
30
3.92
0
VERTEX
10
10.1378
20
8.15107
30
3.92
0
VERTEX
10
10.1378
20
8.1555
30
3.92
0
VERTEX
10
10.1467
20
8.16437
30
3.92
0
VERTEX
10
10.1467
20
8.16881
30
3.92
0
VERTEX
10
10.16
20
8.18433
30
3.92
0
VERTEX
10
10.1667
20
8.20207
30
3.92
0
VERTEX
10
10.1667
20
8.2065
30
3.92
0
VERTEX
10
10.1733
20
8.21537
30
3.92
0
VERTEX
10
10.1777
20
8.23311
30
3.92
0
VERTEX
10
10.1777
20
8.26859
30
3.92
0
VERTEX
10
10.1777
20
8.28633
30
3.92
0
VERTEX
10
10.1644
20
8.32181
30
3.92
0
VERTEX
10
10.1622
20
8.33954
30
3.92
0
VERTEX
10
10.1622
20
8.34841
30
3.92
0
VERTEX
10
10.1556
20
8.35728
30
3.92
0
VERTEX
10
10.1445
20
8.39276
30
3.92
0
VERTEX
10
10.1423
20
8.4105
30
3.92
0
VERTEX
10
10.1423
20
8.41937
30
3.92
0
VERTEX
10
10.1378
20
8.4238
30
3.92
0
VERTEX
10
10.1356
20
8.45928
30
3.92
0
VERTEX
10
10.129
20
8.4748
30
3.92
0
VERTEX
10
10.1134
20
8.49033
30
3.92
0
VERTEX
10
10.0957
20
8.50141
30
3.92
0
VERTEX
10
10.0868
20
8.50585
30
3.92
0
VERTEX
10
10.0713
20
8.52137
30
3.92
0
VERTEX
10
10.0536
20
8.53246
30
3.92
0
VERTEX
10
10.0491
20
8.54133
30
3.92
0
VERTEX
10
10.0403
20
8.54798
30
3.92
0
VERTEX
10
10.0358
20
8.54798
30
3.92
0
VERTEX
10
9.96931
20
8.59676
30
3.92
0
VERTEX
10
9.95158
20
8.61006
30
3.92
0
VERTEX
10
9.93384
20
8.61893
30
3.92
0
VERTEX
10
9.9161
20
8.63224
30
3.92
0
VERTEX
10
9.90723
20
8.63446
30
3.92
0
VERTEX
10
9.87175
20
8.65663
30
3.92
0
VERTEX
10
9.80301
20
8.68989
30
3.92
0
VERTEX
10
9.79414
20
8.69211
30
3.92
0
VERTEX
10
9.78527
20
8.69876
30
3.92
0
VERTEX
10
9.74979
20
8.70985
30
3.92
0
VERTEX
10
9.74314
20
8.71206
30
3.92
0
VERTEX
10
9.73427
20
8.71872
30
3.92
0
VERTEX
10
9.71653
20
8.72537
30
3.92
0
VERTEX
10
9.69879
20
8.73645
30
3.92
0
VERTEX
10
9.69436
20
8.73645
30
3.92
0
VERTEX
10
9.68327
20
8.74754
30
3.92
0
VERTEX
10
9.67884
20
8.74754
30
3.92
0
VERTEX
10
9.66553
20
8.76306
30
3.92
0
VERTEX
10
9.6478
20
8.77637
30
3.92
0
VERTEX
10
9.64558
20
8.7808
30
3.92
0
VERTEX
10
9.62784
20
8.7808
30
3.92
0
VERTEX
10
9.61897
20
8.77193
30
3.92
0
VERTEX
10
9.60788
20
8.75863
30
3.92
0
VERTEX
10
9.59901
20
8.74976
30
3.92
0
VERTEX
10
9.58793
20
8.73202
30
3.92
0
VERTEX
10
9.58349
20
8.72758
30
3.92
0
VERTEX
10
9.57462
20
8.72537
30
3.92
0
VERTEX
10
9.54358
20
8.69876
30
3.92
0
VERTEX
10
9.52584
20
8.68767
30
3.92
0
VERTEX
10
9.5081
20
8.67215
30
3.92
0
VERTEX
10
9.50367
20
8.66328
30
3.92
0
VERTEX
10
9.4948
20
8.65885
30
3.92
0
VERTEX
10
9.46154
20
8.62559
30
3.92
0
VERTEX
10
9.45932
20
8.61672
30
3.92
0
VERTEX
10
9.44823
20
8.60119
30
3.92
0
VERTEX
10
9.44158
20
8.58346
30
3.92
0
VERTEX
10
9.44158
20
8.57902
30
3.92
0
VERTEX
10
9.43714
20
8.57459
30
3.92
0
VERTEX
10
9.42606
20
8.50363
30
3.92
0
VERTEX
10
9.41054
20
8.46815
30
3.92
0
VERTEX
10
9.40832
20
8.45041
30
3.92
0
VERTEX
10
9.40832
20
8.4482
30
3.92
0
SEQEND
0
POLYLINE
62
31
66
1
70
1
3
contour
0
VERTEX
10
7.72032
20
8.70064
30
3.92
0
VERTEX
10
7.72575
20
8.68978
30
3.92
0
VERTEX
10
7.72575
20
8.68434
30
3.92
0
VERTEX
10
7.74748
20
8.66805
30
3.92
0
VERTEX
10
7.7692
20
8.6599
30
3.92
0
VERTEX
10
7.78006
20
8.65447
30
3.92
0
VERTEX
10
7.82351
20
8.65176
30
3.92
0
VERTEX
10
7.84524
20
8.65176
30
3.92
0
VERTEX
10
7.8561
20
8.64904
30
3.92
0
VERTEX
10
7.86153
20
8.64361
30
3.92
0
VERTEX
10
7.88326
20
8.64361
30
3.92
0
VERTEX
10
7.89412
20
8.6409
30
3.92
0
VERTEX
10
7.91584
20
8.64361
30
3.92
0
VERTEX
10
7.9267
20
8.65176
30
3.92
0
VERTEX
10
7.94843
20
8.65176
30
3.92
0
VERTEX
10
7.95929
20
8.65447
30
3.92
0
VERTEX
10
7.97015
20
8.66262
30
3.92
0
VERTEX
10
7.97558
20
8.66262
30
3.92
0
VERTEX
10
7.98102
20
8.66805
30
3.92
0
VERTEX
10
7.98645
20
8.66805
30
3.92
0
VERTEX
10
7.99188
20
8.67891
30
3.92
0
VERTEX
10
7.99459
20
8.76581
30
3.92
0
VERTEX
10
7.99731
20
8.78754
30
3.92
0
VERTEX
10
7.99731
20
8.7984
30
3.92
0
VERTEX
10
7.98373
20
8.81469
30
3.92
0
VERTEX
10
7.96201
20
8.82555
30
3.92
0
VERTEX
10
7.95114
20
8.83098
30
3.92
0
VERTEX
10
7.9077
20
8.83098
30
3.92
0
VERTEX
10
7.88597
20
8.84185
30
3.92
0
VERTEX
10
7.86425
20
8.84728
30
3.92
0
VERTEX
10
7.77735
20
8.83913
30
3.92
0
VERTEX
10
7.76649
20
8.83642
30
3.92
0
VERTEX
10
7.75834
20
8.82555
30
3.92
0
VERTEX
10
7.74748
20
8.82284
30
3.92
0
VERTEX
10
7.74476
20
8.81198
30
3.92
0
VERTEX
10
7.73662
20
8.80383
30
3.92
0
VERTEX
10
7.7339
20
8.79297
30
3.92
0
VERTEX
10
7.72847
20
8.79025
30
3.92
0
VERTEX
10
7.72032
20
8.7468
30
3.92
0
VERTEX
10
7.72032
20
8.70335
30
3.92
0
SEQEND
0
POLYLINE
62
224
66
1
70
1
3
mitochondrion
0
VERTEX
10
9.74691
20
8.41349
30
3.92
0
VERTEX
10
9.75108
20
8.40237
30
3.92
0
VERTEX
10
9.75248
20
8.39124
30
3.92
0
VERTEX
10
9.75387
20
8.38568
30
3.92
0
VERTEX
10
9.75804
20
8.38012
30
3.92
0
VERTEX
10
9.75943
20
8.37456
30
3.92
0
VERTEX
10
9.76916
20
8.36483
30
3.92
0
VERTEX
10
9.78306
20
8.34536
30
3.92
0
VERTEX
10
9.78585
20
8.34258
30
3.92
0
VERTEX
10
9.78724
20
8.33702
30
3.92
0
VERTEX
10
9.79141
20
8.33146
30
3.92
0
VERTEX
10
9.79419
20
8.32033
30
3.92
0
VERTEX
10
9.80948
20
8.29948
30
3.92
0
VERTEX
10
9.81087
20
8.29391
30
3.92
0
VERTEX
10
9.81783
20
8.28279
30
3.92
0
VERTEX
10
9.82756
20
8.27306
30
3.92
0
VERTEX
10
9.83034
20
8.26193
30
3.92
0
VERTEX
10
9.83312
20
8.25637
30
3.92
0
VERTEX
10
9.83868
20
8.25081
30
3.92
0
VERTEX
10
9.84007
20
8.24803
30
3.92
0
VERTEX
10
9.84285
20
8.24803
30
3.92
0
VERTEX
10
9.8512
20
8.23691
30
3.92
0
VERTEX
10
9.8943
20
8.21327
30
3.92
0
VERTEX
10
9.90403
20
8.20632
30
3.92
0
VERTEX
10
9.90681
20
8.20632
30
3.92
0
VERTEX
10
9.91237
20
8.20215
30
3.92
0
VERTEX
10
9.9235
20
8.19797
30
3.92
0
VERTEX
10
9.92628
20
8.19797
30
3.92
0
VERTEX
10
9.92906
20
8.19519
30
3.92
0
VERTEX
10
9.95131
20
8.18963
30
3.92
0
VERTEX
10
9.9958
20
8.1938
30
3.92
0
VERTEX
10
10.0014
20
8.19519
30
3.92
0
VERTEX
10
10.0069
20
8.19937
30
3.92
0
VERTEX
10
10.018
20
8.19937
30
3.92
0
VERTEX
10
10.0236
20
8.20076
30
3.92
0
VERTEX
10
10.0292
20
8.20493
30
3.92
0
VERTEX
10
10.032
20
8.20771
30
3.92
0
VERTEX
10
10.0375
20
8.20771
30
3.92
0
VERTEX
10
10.0472
20
8.21605
30
3.92
0
VERTEX
10
10.0584
20
8.22022
30
3.92
0
VERTEX
10
10.0639
20
8.22578
30
3.92
0
VERTEX
10
10.0667
20
8.22995
30
3.92
0
VERTEX
10
10.0862
20
8.24386
30
3.92
0
VERTEX
10
10.0931
20
8.25498
30
3.92
0
VERTEX
10
10.0987
20
8.27723
30
3.92
0
VERTEX
10
10.0945
20
8.36622
30
3.92
0
VERTEX
10
10.0931
20
8.37734
30
3.92
0
VERTEX
10
10.089
20
8.38846
30
3.92
0
VERTEX
10
10.0876
20
8.39959
30
3.92
0
VERTEX
10
10.0834
20
8.41071
30
3.92
0
VERTEX
10
10.0834
20
8.41349
30
3.92
0
VERTEX
10
10.0806
20
8.41627
30
3.92
0
VERTEX
10
10.0737
20
8.43852
30
3.92
0
VERTEX
10
10.0709
20
8.44408
30
3.92
0
VERTEX
10
10.0709
20
8.44686
30
3.92
0
VERTEX
10
10.0542
20
8.46633
30
3.92
0
VERTEX
10
10.0445
20
8.47606
30
3.92
0
VERTEX
10
10.0403
20
8.48023
30
3.92
0
VERTEX
10
10.0347
20
8.48023
30
3.92
0
VERTEX
10
10.0153
20
8.49553
30
3.92
0
VERTEX
10
10.0041
20
8.49831
30
3.92
0
VERTEX
10
9.99858
20
8.50248
30
3.92
0
VERTEX
10
9.99302
20
8.50387
30
3.92
0
VERTEX
10
9.99024
20
8.50665
30
3.92
0
VERTEX
10
9.97912
20
8.50943
30
3.92
0
VERTEX
10
9.97494
20
8.5136
30
3.92
0
VERTEX
10
9.9527
20
8.51916
30
3.92
0
VERTEX
10
9.94714
20
8.51916
30
3.92
0
VERTEX
10
9.93601
20
8.52334
30
3.92
0
VERTEX
10
9.89152
20
8.53029
30
3.92
0
VERTEX
10
9.88039
20
8.53168
30
3.92
0
VERTEX
10
9.87761
20
8.53724
30
3.92
0
VERTEX
10
9.86649
20
8.54002
30
3.92
0
VERTEX
10
9.86093
20
8.54002
30
3.92
0
VERTEX
10
9.85815
20
8.54141
30
3.92
0
VERTEX
10
9.8359
20
8.53446
30
3.92
0
VERTEX
10
9.82478
20
8.53029
30
3.92
0
VERTEX
10
9.81922
20
8.5289
30
3.92
0
VERTEX
10
9.77611
20
8.49553
30
3.92
0
VERTEX
10
9.77194
20
8.48857
30
3.92
0
VERTEX
10
9.76499
20
8.47884
30
3.92
0
VERTEX
10
9.75526
20
8.4705
30
3.92
0
VERTEX
10
9.75526
20
8.46494
30
3.92
0
VERTEX
10
9.7483
20
8.44269
30
3.92
0
VERTEX
10
9.74691
20
8.42044
30
3.92
0
VERTEX
10
9.74691
20
8.41488
30
3.92
0
SEQEND
0
POLYLINE
62
227
66
1
70
1
3
endoplasmic_reticulum
0
VERTEX
10
9.5462
20
8.42643
30
3.92
0
VERTEX
10
9.55382
20
8.41424
30
3.92
0
VERTEX
10
9.57667
20
8.40358
30
3.92
0
VERTEX
10
9.58276
20
8.40053
30
3.92
0
VERTEX
10
9.59038
20
8.38834
30
3.92
0
VERTEX
10
9.59495
20
8.37616
30
3.92
0
VERTEX
10
9.59343
20
8.35178
30
3.92
0
VERTEX
10
9.59343
20
8.34873
30
3.92
0
VERTEX
10
9.598
20
8.34416
30
3.92
0
VERTEX
10
9.598
20
8.34112
30
3.92
0
VERTEX
10
9.60561
20
8.32893
30
3.92
0
VERTEX
10
9.6178
20
8.32131
30
3.92
0
VERTEX
10
9.64218
20
8.32131
30
3.92
0
VERTEX
10
9.65437
20
8.32131
30
3.92
0
VERTEX
10
9.66655
20
8.31674
30
3.92
0
VERTEX
10
9.69093
20
8.31522
30
3.92
0
VERTEX
10
9.70312
20
8.31369
30
3.92
0
VERTEX
10
9.72749
20
8.30303
30
3.92
0
VERTEX
10
9.73968
20
8.30455
30
3.92
0
VERTEX
10
9.75187
20
8.31065
30
3.92
0
VERTEX
10
9.75492
20
8.31217
30
3.92
0
VERTEX
10
9.75492
20
8.32436
30
3.92
0
VERTEX
10
9.75492
20
8.3274
30
3.92
0
VERTEX
10
9.74425
20
8.33655
30
3.92
0
VERTEX
10
9.71988
20
8.34416
30
3.92
0
VERTEX
10
9.70769
20
8.3533
30
3.92
0
VERTEX
10
9.70464
20
8.35635
30
3.92
0
VERTEX
10
9.69245
20
8.35787
30
3.92
0
VERTEX
10
9.68026
20
8.36244
30
3.92
0
VERTEX
10
9.66808
20
8.36397
30
3.92
0
VERTEX
10
9.65589
20
8.37006
30
3.92
0
VERTEX
10
9.65284
20
8.37311
30
3.92
0
VERTEX
10
9.64218
20
8.37616
30
3.92
0
VERTEX
10
9.62237
20
8.39596
30
3.92
0
VERTEX
10
9.61323
20
8.40663
30
3.92
0
VERTEX
10
9.61323
20
8.40967
30
3.92
0
VERTEX
10
9.61018
20
8.41272
30
3.92
0
VERTEX
10
9.61018
20
8.41577
30
3.92
0
VERTEX
10
9.59952
20
8.42643
30
3.92
0
VERTEX
10
9.59495
20
8.431
30
3.92
0
VERTEX
10
9.5919
20
8.431
30
3.92
0
VERTEX
10
9.58428
20
8.44167
30
3.92
0
VERTEX
10
9.58124
20
8.44167
30
3.92
0
VERTEX
10
9.57514
20
8.44776
30
3.92
0
VERTEX
10
9.56448
20
8.45538
30
3.92
0
VERTEX
10
9.56143
20
8.4569
30
3.92
0
VERTEX
10
9.55839
20
8.45538
30
3.92
0
VERTEX
10
9.56143
20
8.44928
30
3.92
0
VERTEX
10
9.55534
20
8.44776
30
3.92
0
VERTEX
10
9.55229
20
8.44624
30
3.92
0
VERTEX
10
9.55077
20
8.44014
30
3.92
0
VERTEX
10
9.5462
20
8.43405
30
3.92
0
VERTEX
10
9.5462
20
8.42795
30
3.92
0
SEQEND
0
POLYLINE
62
227
66
1
70
1
3
endoplasmic_reticulum
0
VERTEX
10
9.62085
20
8.23904
30
3.92
0
VERTEX
10
9.62847
20
8.21467
30
3.92
0
VERTEX
10
9.63608
20
8.20248
30
3.92
0
VERTEX
10
9.63761
20
8.19791
30
3.92
0
VERTEX
10
9.64065
20
8.19638
30
3.92
0
VERTEX
10
9.65284
20
8.204
30
3.92
0
VERTEX
10
9.66046
20
8.21467
30
3.92
0
VERTEX
10
9.66198
20
8.23904
30
3.92
0
VERTEX
10
9.66046
20
8.24514
30
3.92
0
VERTEX
10
9.65894
20
8.24818
30
3.92
0
VERTEX
10
9.65589
20
8.24818
30
3.92
0
VERTEX
10
9.65132
20
8.25428
30
3.92
0
VERTEX
10
9.63913
20
8.2558
30
3.92
0
VERTEX
10
9.63304
20
8.2558
30
3.92
0
VERTEX
10
9.62237
20
8.24971
30
3.92
0
VERTEX
10
9.62085
20
8.24361
30
3.92
0
VERTEX
10
9.62085
20
8.24057
30
3.92
0
SEQEND
0
POLYLINE
62
227
66
1
70
1
3
endoplasmic_reticulum
0
VERTEX
10
9.94535
20
8.12173
30
3.92
0
VERTEX
10
9.95449
20
8.10955
30
3.92
0
VERTEX
10
9.96516
20
8.1004
30
3.92
0
VERTEX
10
9.9682
20
8.09736
30
3.92
0
VERTEX
10
9.98039
20
8.09583
30
3.92
0
VERTEX
10
9.98649
20
8.09583
30
3.92
0
VERTEX
10
9.99258
20
8.09888
30
3.92
0
VERTEX
10
10.0002
20
8.11107
30
3.92
0
VERTEX
10
10.0048
20
8.11716
30
3.92
0
VERTEX
10
10.0078
20
8.12021
30
3.92
0
VERTEX
10
10.0032
20
8.1324
30
3.92
0
VERTEX
10
9.99867
20
8.13697
30
3.92
0
VERTEX
10
9.99715
20
8.14002
30
3.92
0
VERTEX
10
9.99106
20
8.14154
30
3.92
0
VERTEX
10
9.98801
20
8.14154
30
3.92
0
VERTEX
10
9.98801
20
8.14459
30
3.92
0
VERTEX
10
9.96363
20
8.14763
30
3.92
0
VERTEX
10
9.95449
20
8.14002
30
3.92
0
VERTEX
10
9.9484
20
8.13544
30
3.92
0
VERTEX
10
9.94535
20
8.12935
30
3.92
0
VERTEX
10
9.94535
20
8.12326
30
3.92
0
SEQEND
0
POLYLINE
62
227
66
1
70
1
3
endoplasmic_reticulum
0
VERTEX
10
9.68941
20
8.52393
30
3.92
0
VERTEX
10
9.69398
20
8.51784
30
3.92
0
VERTEX
10
9.69702
20
8.51479
30
3.92
0
VERTEX
10
9.69702
20
8.51175
30
3.92
0
VERTEX
10
9.70769
20
8.50261
30
3.92
0
VERTEX
10
9.71378
20
8.49956
30
3.92
0
VERTEX
10
9.73816
20
8.50718
30
3.92
0
VERTEX
10
9.73816
20
8.51936
30
3.92
0
VERTEX
10
9.7412
20
8.53155
30
3.92
0
VERTEX
10
9.73968
20
8.53765
30
3.92
0
VERTEX
10
9.73359
20
8.54069
30
3.92
0
VERTEX
10
9.73054
20
8.54374
30
3.92
0
VERTEX
10
9.70616
20
8.54374
30
3.92
0
VERTEX
10
9.6955
20
8.53308
30
3.92
0
VERTEX
10
9.68941
20
8.53003
30
3.92
0
VERTEX
10
9.68941
20
8.52546
30
3.92
0
SEQEND
0
POLYLINE
62
236
66
1
70
1
3
postsynaptic_density
0
VERTEX
10
9.32554
20
8.50824
30
3.92
0
VERTEX
10
9.34216
20
8.48884
30
3.92
0
VERTEX
10
9.3477
20
8.48884
30
3.92
0
VERTEX
10
9.3671
20
8.46668
30
3.92
0
VERTEX
10
9.40865
20
8.43898
30
3.92
0
VERTEX
10
9.4142
20
8.43343
30
3.92
0
VERTEX
10
9.43359
20
8.42512
30
3.92
0
VERTEX
10
9.45298
20
8.41127
30
3.92
0
VERTEX
10
9.45852
20
8.4085
30
3.92
0
VERTEX
10
9.47792
20
8.42512
30
3.92
0
VERTEX
10
9.49177
20
8.44452
30
3.92
0
VERTEX
10
9.50008
20
8.4556
30
3.92
0
VERTEX
10
9.49177
20
8.46668
30
3.92
0
VERTEX
10
9.49177
20
8.47222
30
3.92
0
VERTEX
10
9.47515
20
8.49162
30
3.92
0
VERTEX
10
9.45298
20
8.49993
30
3.92
0
VERTEX
10
9.4419
20
8.51101
30
3.92
0
VERTEX
10
9.43636
20
8.51101
30
3.92
0
VERTEX
10
9.40034
20
8.54703
30
3.92
0
VERTEX
10
9.35601
20
8.52486
30
3.92
0
VERTEX
10
9.33385
20
8.51378
30
3.92
0
VERTEX
10
9.32554
20
8.51101
30
3.92
0
SEQEND
0
ENDSEC
0
EOF
