0
SECTION
2
ENTITIES
0
POLYLINE
62
31
66
1
70
1
3
contour
0
VERTEX
10
8.39054
20
8.40607
30
4.32
0
VERTEX
10
8.40163
20
8.37059
30
4.32
0
VERTEX
10
8.40385
20
8.35285
30
4.32
0
VERTEX
10
8.40828
20
8.34841
30
4.32
0
VERTEX
10
8.4105
20
8.33954
30
4.32
0
VERTEX
10
8.4105
20
8.33511
30
4.32
0
VERTEX
10
8.42159
20
8.31737
30
4.32
0
VERTEX
10
8.42159
20
8.31294
30
4.32
0
VERTEX
10
8.43711
20
8.29963
30
4.32
0
VERTEX
10
8.44598
20
8.29298
30
4.32
0
VERTEX
10
8.45485
20
8.29076
30
4.32
0
VERTEX
10
8.4615
20
8.28411
30
4.32
0
VERTEX
10
8.47037
20
8.28411
30
4.32
0
VERTEX
10
8.50585
20
8.26637
30
4.32
0
VERTEX
10
8.51472
20
8.25972
30
4.32
0
VERTEX
10
8.53246
20
8.25528
30
4.32
0
VERTEX
10
8.53689
20
8.25528
30
4.32
0
VERTEX
10
8.54133
20
8.25085
30
4.32
0
VERTEX
10
8.5768
20
8.23755
30
4.32
0
VERTEX
10
8.57902
20
8.23311
30
4.32
0
VERTEX
10
8.6145
20
8.22646
30
4.32
0
VERTEX
10
8.75641
20
8.22424
30
4.32
0
VERTEX
10
8.77415
20
8.23089
30
4.32
0
VERTEX
10
8.84511
20
8.23755
30
4.32
0
VERTEX
10
8.88058
20
8.23755
30
4.32
0
VERTEX
10
8.91606
20
8.24198
30
4.32
0
VERTEX
10
8.98702
20
8.2442
30
4.32
0
VERTEX
10
9.0225
20
8.25085
30
4.32
0
VERTEX
10
9.05797
20
8.25307
30
4.32
0
VERTEX
10
9.09345
20
8.26194
30
4.32
0
VERTEX
10
9.12893
20
8.26637
30
4.32
0
VERTEX
10
9.14667
20
8.26859
30
4.32
0
VERTEX
10
9.16219
20
8.27524
30
4.32
0
VERTEX
10
9.19767
20
8.27746
30
4.32
0
VERTEX
10
9.26862
20
8.29741
30
4.32
0
VERTEX
10
9.28636
20
8.30185
30
4.32
0
VERTEX
10
9.32184
20
8.30185
30
4.32
0
VERTEX
10
9.35732
20
8.31072
30
4.32
0
VERTEX
10
9.42828
20
8.31294
30
4.32
0
VERTEX
10
9.46375
20
8.31959
30
4.32
0
VERTEX
10
9.60567
20
8.32402
30
4.32
0
VERTEX
10
9.67662
20
8.32402
30
4.32
0
VERTEX
10
9.7121
20
8.32402
30
4.32
0
VERTEX
10
9.78305
20
8.33511
30
4.32
0
VERTEX
10
9.81853
20
8.33511
30
4.32
0
VERTEX
10
9.83627
20
8.3462
30
4.32
0
VERTEX
10
9.85401
20
8.35063
30
4.32
0
VERTEX
10
9.87175
20
8.36172
30
4.32
0
VERTEX
10
9.87618
20
8.36394
30
4.32
0
VERTEX
10
9.87618
20
8.36837
30
4.32
0
VERTEX
10
9.88062
20
8.37059
30
4.32
0
VERTEX
10
9.88284
20
8.37946
30
4.32
0
VERTEX
10
9.9161
20
8.40828
30
4.32
0
VERTEX
10
9.92718
20
8.44376
30
4.32
0
VERTEX
10
9.93162
20
8.4615
30
4.32
0
VERTEX
10
9.93384
20
8.53246
30
4.32
0
VERTEX
10
9.9294
20
8.56793
30
4.32
0
VERTEX
10
9.92053
20
8.60341
30
4.32
0
VERTEX
10
9.9161
20
8.63889
30
4.32
0
VERTEX
10
9.9161
20
8.65663
30
4.32
0
VERTEX
10
9.90723
20
8.67437
30
4.32
0
VERTEX
10
9.90501
20
8.69211
30
4.32
0
VERTEX
10
9.89171
20
8.72758
30
4.32
0
VERTEX
10
9.89392
20
8.74311
30
4.32
0
VERTEX
10
9.89836
20
8.74532
30
4.32
0
VERTEX
10
9.89836
20
8.75419
30
4.32
0
VERTEX
10
9.88284
20
8.76971
30
4.32
0
VERTEX
10
9.88062
20
8.78745
30
4.32
0
VERTEX
10
9.86953
20
8.80519
30
4.32
0
VERTEX
10
9.86732
20
8.82293
30
4.32
0
VERTEX
10
9.85401
20
8.83845
30
4.32
0
VERTEX
10
9.83627
20
8.84954
30
4.32
0
VERTEX
10
9.80079
20
8.85841
30
4.32
0
VERTEX
10
9.79858
20
8.86284
30
4.32
0
VERTEX
10
9.78971
20
8.86284
30
4.32
0
VERTEX
10
9.75423
20
8.88058
30
4.32
0
VERTEX
10
9.73649
20
8.88724
30
4.32
0
VERTEX
10
9.72762
20
8.89389
30
4.32
0
VERTEX
10
9.70988
20
8.89832
30
4.32
0
VERTEX
10
9.70101
20
8.90276
30
4.32
0
VERTEX
10
9.68327
20
8.90497
30
4.32
0
VERTEX
10
9.6744
20
8.90941
30
4.32
0
VERTEX
10
9.63893
20
8.91606
30
4.32
0
VERTEX
10
9.62119
20
8.92271
30
4.32
0
VERTEX
10
9.61232
20
8.92715
30
4.32
0
VERTEX
10
9.59458
20
8.92937
30
4.32
0
VERTEX
10
9.57684
20
8.93824
30
4.32
0
VERTEX
10
9.56797
20
8.94489
30
4.32
0
VERTEX
10
9.5591
20
8.9471
30
4.32
0
VERTEX
10
9.55467
20
8.9471
30
4.32
0
VERTEX
10
9.5458
20
8.95376
30
4.32
0
VERTEX
10
9.53693
20
8.95597
30
4.32
0
VERTEX
10
9.53249
20
8.95597
30
4.32
0
VERTEX
10
9.52806
20
8.96041
30
4.32
0
VERTEX
10
9.51032
20
8.96484
30
4.32
0
VERTEX
10
9.47484
20
8.96484
30
4.32
0
VERTEX
10
9.46819
20
8.96706
30
4.32
0
VERTEX
10
9.47706
20
8.9715
30
4.32
0
VERTEX
10
9.48149
20
8.97593
30
4.32
0
VERTEX
10
9.47706
20
8.97815
30
4.32
0
VERTEX
10
9.45932
20
8.96928
30
4.32
0
VERTEX
10
9.45045
20
8.96263
30
4.32
0
VERTEX
10
9.43271
20
8.96263
30
4.32
0
VERTEX
10
9.42384
20
8.95597
30
4.32
0
VERTEX
10
9.41497
20
8.95597
30
4.32
0
VERTEX
10
9.39723
20
8.9471
30
4.32
0
VERTEX
10
9.36175
20
8.94267
30
4.32
0
VERTEX
10
9.34401
20
8.94267
30
4.32
0
VERTEX
10
9.33515
20
8.94267
30
4.32
0
VERTEX
10
9.33071
20
8.94267
30
4.32
0
VERTEX
10
9.32628
20
8.93824
30
4.32
0
VERTEX
10
9.2908
20
8.9338
30
4.32
0
VERTEX
10
9.27306
20
8.92715
30
4.32
0
VERTEX
10
9.23758
20
8.9205
30
4.32
0
VERTEX
10
9.21984
20
8.91163
30
4.32
0
VERTEX
10
9.18436
20
8.90054
30
4.32
0
VERTEX
10
9.17549
20
8.89832
30
4.32
0
VERTEX
10
9.16662
20
8.89167
30
4.32
0
VERTEX
10
9.13115
20
8.8828
30
4.32
0
VERTEX
10
9.11341
20
8.87615
30
4.32
0
VERTEX
10
9.09567
20
8.87393
30
4.32
0
VERTEX
10
9.0868
20
8.87393
30
4.32
0
VERTEX
10
9.06906
20
8.86728
30
4.32
0
VERTEX
10
9.05132
20
8.86506
30
4.32
0
VERTEX
10
9.04245
20
8.86284
30
4.32
0
VERTEX
10
9.03802
20
8.85841
30
4.32
0
VERTEX
10
9.02028
20
8.85619
30
4.32
0
VERTEX
10
9.01141
20
8.84954
30
4.32
0
VERTEX
10
8.99367
20
8.84954
30
4.32
0
VERTEX
10
8.96041
20
8.82737
30
4.32
0
VERTEX
10
8.94267
20
8.81406
30
4.32
0
VERTEX
10
8.9338
20
8.81185
30
4.32
0
VERTEX
10
8.92493
20
8.80519
30
4.32
0
VERTEX
10
8.91606
20
8.80298
30
4.32
0
VERTEX
10
8.91163
20
8.79854
30
4.32
0
VERTEX
10
8.89389
20
8.79632
30
4.32
0
VERTEX
10
8.87615
20
8.78745
30
4.32
0
VERTEX
10
8.87171
20
8.78302
30
4.32
0
VERTEX
10
8.86284
20
8.7808
30
4.32
0
VERTEX
10
8.85841
20
8.7808
30
4.32
0
VERTEX
10
8.84954
20
8.77415
30
4.32
0
VERTEX
10
8.84067
20
8.77193
30
4.32
0
VERTEX
10
8.8318
20
8.76528
30
4.32
0
VERTEX
10
8.81406
20
8.75863
30
4.32
0
VERTEX
10
8.79632
20
8.74754
30
4.32
0
VERTEX
10
8.78745
20
8.74532
30
4.32
0
VERTEX
10
8.78302
20
8.74532
30
4.32
0
VERTEX
10
8.7808
20
8.74089
30
4.32
0
VERTEX
10
8.74532
20
8.73202
30
4.32
0
VERTEX
10
8.72758
20
8.72758
30
4.32
0
VERTEX
10
8.71872
20
8.72537
30
4.32
0
VERTEX
10
8.71428
20
8.72093
30
4.32
0
VERTEX
10
8.70541
20
8.72093
30
4.32
0
VERTEX
10
8.66993
20
8.70985
30
4.32
0
VERTEX
10
8.65219
20
8.70541
30
4.32
0
VERTEX
10
8.64776
20
8.70098
30
4.32
0
VERTEX
10
8.63002
20
8.69432
30
4.32
0
VERTEX
10
8.62115
20
8.68989
30
4.32
0
VERTEX
10
8.61672
20
8.68989
30
4.32
0
VERTEX
10
8.61006
20
8.68324
30
4.32
0
VERTEX
10
8.59233
20
8.68102
30
4.32
0
VERTEX
10
8.58789
20
8.67659
30
4.32
0
VERTEX
10
8.55241
20
8.66772
30
4.32
0
VERTEX
10
8.53467
20
8.66772
30
4.32
0
VERTEX
10
8.51693
20
8.66106
30
4.32
0
VERTEX
10
8.50806
20
8.65441
30
4.32
0
VERTEX
10
8.4992
20
8.65219
30
4.32
0
VERTEX
10
8.49033
20
8.64554
30
4.32
0
VERTEX
10
8.48589
20
8.64554
30
4.32
0
VERTEX
10
8.45263
20
8.61672
30
4.32
0
VERTEX
10
8.4238
20
8.58346
30
4.32
0
VERTEX
10
8.40828
20
8.54798
30
4.32
0
VERTEX
10
8.40607
20
8.53911
30
4.32
0
VERTEX
10
8.40163
20
8.53689
30
4.32
0
VERTEX
10
8.39498
20
8.50141
30
4.32
0
VERTEX
10
8.39054
20
8.48367
30
4.32
0
VERTEX
10
8.39054
20
8.41272
30
4.32
0
VERTEX
10
8.39054
20
8.40828
30
4.32
0
SEQEND
0
POLYLINE
62
31
66
1
70
1
3
contour
0
VERTEX
10
7.84795
20
7.82623
30
4.32
0
VERTEX
10
7.85338
20
7.8045
30
4.32
0
VERTEX
10
7.8561
20
7.76106
30
4.32
0
VERTEX
10
7.8561
20
7.73933
30
4.32
0
VERTEX
10
7.86153
20
7.71761
30
4.32
0
VERTEX
10
7.86425
20
7.67416
30
4.32
0
VERTEX
10
7.86425
20
7.65243
30
4.32
0
VERTEX
10
7.86968
20
7.64157
30
4.32
0
VERTEX
10
7.87782
20
7.59812
30
4.32
0
VERTEX
10
7.89412
20
7.5764
30
4.32
0
VERTEX
10
7.91584
20
7.56554
30
4.32
0
VERTEX
10
7.93757
20
7.5601
30
4.32
0
VERTEX
10
7.98102
20
7.55739
30
4.32
0
VERTEX
10
8.00274
20
7.56825
30
4.32
0
VERTEX
10
8.00817
20
7.56825
30
4.32
0
VERTEX
10
8.01089
20
7.57911
30
4.32
0
VERTEX
10
8.05434
20
7.59541
30
4.32
0
VERTEX
10
8.07606
20
7.60084
30
4.32
0
VERTEX
10
8.09507
20
7.6117
30
4.32
0
VERTEX
10
8.13852
20
7.647
30
4.32
0
VERTEX
10
8.15481
20
7.66601
30
4.32
0
VERTEX
10
8.16567
20
7.67687
30
4.32
0
VERTEX
10
8.17654
20
7.67959
30
4.32
0
VERTEX
10
8.20098
20
7.72032
30
4.32
0
VERTEX
10
8.20369
20
7.73118
30
4.32
0
VERTEX
10
8.20912
20
7.73662
30
4.32
0
VERTEX
10
8.21727
20
7.75834
30
4.32
0
VERTEX
10
8.21998
20
7.78006
30
4.32
0
VERTEX
10
8.23085
20
7.80179
30
4.32
0
VERTEX
10
8.23356
20
7.82351
30
4.32
0
VERTEX
10
8.23628
20
7.83438
30
4.32
0
VERTEX
10
8.24171
20
7.83981
30
4.32
0
VERTEX
10
8.24171
20
7.88326
30
4.32
0
VERTEX
10
8.23356
20
7.9267
30
4.32
0
VERTEX
10
8.22542
20
7.94843
30
4.32
0
VERTEX
10
8.22542
20
7.95386
30
4.32
0
VERTEX
10
8.21998
20
7.95658
30
4.32
0
VERTEX
10
8.21998
20
7.96201
30
4.32
0
VERTEX
10
8.21455
20
7.96744
30
4.32
0
VERTEX
10
8.20641
20
7.98916
30
4.32
0
VERTEX
10
8.17925
20
8.03261
30
4.32
0
VERTEX
10
8.15753
20
8.0489
30
4.32
0
VERTEX
10
8.14123
20
8.06248
30
4.32
0
VERTEX
10
8.09778
20
8.07878
30
4.32
0
VERTEX
10
8.01089
20
8.08421
30
4.32
0
VERTEX
10
7.96744
20
8.08421
30
4.32
0
VERTEX
10
7.95658
20
8.08421
30
4.32
0
VERTEX
10
7.93485
20
8.07063
30
4.32
0
VERTEX
10
7.92399
20
8.06248
30
4.32
0
VERTEX
10
7.91313
20
8.05977
30
4.32
0
VERTEX
10
7.87511
20
8.02446
30
4.32
0
VERTEX
10
7.87511
20
8.01903
30
4.32
0
VERTEX
10
7.86153
20
7.99731
30
4.32
0
VERTEX
10
7.85067
20
7.95386
30
4.32
0
VERTEX
10
7.84795
20
7.86696
30
4.32
0
VERTEX
10
7.84795
20
7.84524
30
4.32
0
VERTEX
10
7.84795
20
7.83438
30
4.32
0
VERTEX
10
7.84795
20
7.82894
30
4.32
0
SEQEND
0
POLYLINE
62
31
66
1
70
1
3
contour
0
VERTEX
10
9.80474
20
9.90306
30
4.32
0
VERTEX
10
9.80884
20
9.89896
30
4.32
0
VERTEX
10
9.81294
20
9.86619
30
4.32
0
VERTEX
10
9.81499
20
9.858
30
4.32
0
VERTEX
10
9.82932
20
9.84366
30
4.32
0
VERTEX
10
9.83752
20
9.83752
30
4.32
0
VERTEX
10
9.8539
20
9.83342
30
4.32
0
VERTEX
10
9.86209
20
9.83137
30
4.32
0
VERTEX
10
9.87029
20
9.83342
30
4.32
0
VERTEX
10
9.87643
20
9.83956
30
4.32
0
VERTEX
10
9.87848
20
9.84366
30
4.32
0
VERTEX
10
9.88667
20
9.84571
30
4.32
0
VERTEX
10
9.89077
20
9.8539
30
4.32
0
VERTEX
10
9.89487
20
9.858
30
4.32
0
VERTEX
10
9.89896
20
9.858
30
4.32
0
VERTEX
10
9.92559
20
9.88053
30
4.32
0
VERTEX
10
9.93788
20
9.89487
30
4.32
0
VERTEX
10
9.93788
20
9.91125
30
4.32
0
VERTEX
10
9.93788
20
9.91944
30
4.32
0
VERTEX
10
9.94197
20
9.92764
30
4.32
0
VERTEX
10
9.94197
20
9.93583
30
4.32
0
VERTEX
10
9.94812
20
9.95222
30
4.32
0
VERTEX
10
9.95631
20
10.0178
30
4.32
0
VERTEX
10
9.95222
20
10.026
30
4.32
0
VERTEX
10
9.95426
20
10.0341
30
4.32
0
VERTEX
10
9.94812
20
10.0505
30
4.32
0
VERTEX
10
9.94197
20
10.0546
30
4.32
0
VERTEX
10
9.93993
20
10.0628
30
4.32
0
VERTEX
10
9.93378
20
10.069
30
4.32
0
VERTEX
10
9.90101
20
10.071
30
4.32
0
VERTEX
10
9.89282
20
10.069
30
4.32
0
VERTEX
10
9.88462
20
10.0628
30
4.32
0
VERTEX
10
9.87643
20
10.0608
30
4.32
0
VERTEX
10
9.86005
20
10.0485
30
4.32
0
VERTEX
10
9.85595
20
10.0403
30
4.32
0
VERTEX
10
9.85185
20
10.0362
30
4.32
0
VERTEX
10
9.83956
20
10.0034
30
4.32
0
VERTEX
10
9.83137
20
9.97065
30
4.32
0
VERTEX
10
9.82113
20
9.95426
30
4.32
0
VERTEX
10
9.81703
20
9.93788
30
4.32
0
VERTEX
10
9.80884
20
9.92968
30
4.32
0
VERTEX
10
9.80474
20
9.92149
30
4.32
0
VERTEX
10
9.80474
20
9.90511
30
4.32
0
SEQEND
0
POLYLINE
62
224
66
1
70
1
3
mitochondrion
0
VERTEX
10
9.44102
20
8.7027
30
4.32
0
VERTEX
10
9.4438
20
8.65821
30
4.32
0
VERTEX
10
9.44658
20
8.63596
30
4.32
0
VERTEX
10
9.44936
20
8.62484
30
4.32
0
VERTEX
10
9.45214
20
8.61928
30
4.32
0
VERTEX
10
9.45214
20
8.61371
30
4.32
0
VERTEX
10
9.45631
20
8.60259
30
4.32
0
VERTEX
10
9.45631
20
8.59703
30
4.32
0
VERTEX
10
9.46049
20
8.5859
30
4.32
0
VERTEX
10
9.46466
20
8.58034
30
4.32
0
VERTEX
10
9.473
20
8.5581
30
4.32
0
VERTEX
10
9.47439
20
8.55253
30
4.32
0
VERTEX
10
9.47717
20
8.54975
30
4.32
0
VERTEX
10
9.47717
20
8.54419
30
4.32
0
VERTEX
10
9.48134
20
8.53307
30
4.32
0
VERTEX
10
9.48273
20
8.51082
30
4.32
0
VERTEX
10
9.48968
20
8.4997
30
4.32
0
VERTEX
10
9.49386
20
8.48857
30
4.32
0
VERTEX
10
9.50915
20
8.46633
30
4.32
0
VERTEX
10
9.51888
20
8.45659
30
4.32
0
VERTEX
10
9.52444
20
8.45242
30
4.32
0
VERTEX
10
9.52723
20
8.45242
30
4.32
0
VERTEX
10
9.53696
20
8.4413
30
4.32
0
VERTEX
10
9.54113
20
8.43852
30
4.32
0
VERTEX
10
9.54113
20
8.43574
30
4.32
0
VERTEX
10
9.55225
20
8.4274
30
4.32
0
VERTEX
10
9.55503
20
8.42461
30
4.32
0
VERTEX
10
9.5606
20
8.42322
30
4.32
0
VERTEX
10
9.56477
20
8.41905
30
4.32
0
VERTEX
10
9.58701
20
8.40932
30
4.32
0
VERTEX
10
9.59814
20
8.40515
30
4.32
0
VERTEX
10
9.6037
20
8.40376
30
4.32
0
VERTEX
10
9.60509
20
8.40098
30
4.32
0
VERTEX
10
9.60787
20
8.40098
30
4.32
0
VERTEX
10
9.61065
20
8.3982
30
4.32
0
VERTEX
10
9.61343
20
8.3982
30
4.32
0
VERTEX
10
9.61343
20
8.39542
30
4.32
0
VERTEX
10
9.62456
20
8.38985
30
4.32
0
VERTEX
10
9.66905
20
8.38846
30
4.32
0
VERTEX
10
9.6913
20
8.39263
30
4.32
0
VERTEX
10
9.70242
20
8.39542
30
4.32
0
VERTEX
10
9.70798
20
8.39542
30
4.32
0
VERTEX
10
9.71354
20
8.39959
30
4.32
0
VERTEX
10
9.72467
20
8.40098
30
4.32
0
VERTEX
10
9.73023
20
8.40237
30
4.32
0
VERTEX
10
9.73579
20
8.40654
30
4.32
0
VERTEX
10
9.74691
20
8.40932
30
4.32
0
VERTEX
10
9.74969
20
8.4121
30
4.32
0
VERTEX
10
9.75248
20
8.4121
30
4.32
0
VERTEX
10
9.75665
20
8.41627
30
4.32
0
VERTEX
10
9.77889
20
8.42322
30
4.32
0
VERTEX
10
9.79002
20
8.42601
30
4.32
0
VERTEX
10
9.7928
20
8.42601
30
4.32
0
VERTEX
10
9.79558
20
8.42879
30
4.32
0
VERTEX
10
9.79836
20
8.42879
30
4.32
0
VERTEX
10
9.80253
20
8.43435
30
4.32
0
VERTEX
10
9.80531
20
8.44547
30
4.32
0
VERTEX
10
9.80809
20
8.44825
30
4.32
0
VERTEX
10
9.81087
20
8.44825
30
4.32
0
VERTEX
10
9.82061
20
8.45799
30
4.32
0
VERTEX
10
9.82617
20
8.46216
30
4.32
0
VERTEX
10
9.82617
20
8.46494
30
4.32
0
VERTEX
10
9.82895
20
8.46772
30
4.32
0
VERTEX
10
9.82895
20
8.4705
30
4.32
0
VERTEX
10
9.83729
20
8.48023
30
4.32
0
VERTEX
10
9.84007
20
8.48301
30
4.32
0
VERTEX
10
9.84146
20
8.48857
30
4.32
0
VERTEX
10
9.84842
20
8.4997
30
4.32
0
VERTEX
10
9.85398
20
8.52194
30
4.32
0
VERTEX
10
9.85537
20
8.56644
30
4.32
0
VERTEX
10
9.85537
20
8.57756
30
4.32
0
VERTEX
10
9.8512
20
8.59981
30
4.32
0
VERTEX
10
9.8512
20
8.61093
30
4.32
0
VERTEX
10
9.8512
20
8.61649
30
4.32
0
VERTEX
10
9.8512
20
8.61928
30
4.32
0
VERTEX
10
9.84842
20
8.62206
30
4.32
0
VERTEX
10
9.84563
20
8.63318
30
4.32
0
VERTEX
10
9.84424
20
8.63874
30
4.32
0
VERTEX
10
9.84146
20
8.64152
30
4.32
0
VERTEX
10
9.84146
20
8.64708
30
4.32
0
VERTEX
10
9.84146
20
8.64986
30
4.32
0
VERTEX
10
9.83868
20
8.65265
30
4.32
0
VERTEX
10
9.8359
20
8.66377
30
4.32
0
VERTEX
10
9.82895
20
8.67489
30
4.32
0
VERTEX
10
9.82339
20
8.68045
30
4.32
0
VERTEX
10
9.81783
20
8.68045
30
4.32
0
VERTEX
10
9.81644
20
8.68602
30
4.32
0
VERTEX
10
9.8067
20
8.69575
30
4.32
0
VERTEX
10
9.79975
20
8.70687
30
4.32
0
VERTEX
10
9.79697
20
8.71104
30
4.32
0
VERTEX
10
9.78585
20
8.718
30
4.32
0
VERTEX
10
9.76638
20
8.73607
30
4.32
0
VERTEX
10
9.7636
20
8.74163
30
4.32
0
VERTEX
10
9.7636
20
8.74719
30
4.32
0
VERTEX
10
9.75943
20
8.75276
30
4.32
0
VERTEX
10
9.75665
20
8.75554
30
4.32
0
VERTEX
10
9.75387
20
8.75554
30
4.32
0
VERTEX
10
9.75248
20
8.75832
30
4.32
0
VERTEX
10
9.74135
20
8.75971
30
4.32
0
VERTEX
10
9.72189
20
8.77917
30
4.32
0
VERTEX
10
9.71911
20
8.78056
30
4.32
0
VERTEX
10
9.71911
20
8.78335
30
4.32
0
VERTEX
10
9.70659
20
8.79308
30
4.32
0
VERTEX
10
9.70937
20
8.79308
30
4.32
0
VERTEX
10
9.71076
20
8.79586
30
4.32
0
VERTEX
10
9.70798
20
8.80142
30
4.32
0
VERTEX
10
9.70242
20
8.80559
30
4.32
0
VERTEX
10
9.69964
20
8.80837
30
4.32
0
VERTEX
10
9.65654
20
8.82645
30
4.32
0
VERTEX
10
9.64541
20
8.83062
30
4.32
0
VERTEX
10
9.63985
20
8.8334
30
4.32
0
VERTEX
10
9.6176
20
8.83618
30
4.32
0
VERTEX
10
9.59536
20
8.83479
30
4.32
0
VERTEX
10
9.5898
20
8.83479
30
4.32
0
VERTEX
10
9.58423
20
8.83201
30
4.32
0
VERTEX
10
9.57311
20
8.83201
30
4.32
0
VERTEX
10
9.56755
20
8.83062
30
4.32
0
VERTEX
10
9.55642
20
8.83479
30
4.32
0
VERTEX
10
9.55086
20
8.83757
30
4.32
0
VERTEX
10
9.54808
20
8.83896
30
4.32
0
VERTEX
10
9.54391
20
8.83618
30
4.32
0
VERTEX
10
9.53835
20
8.83618
30
4.32
0
VERTEX
10
9.52723
20
8.82923
30
4.32
0
VERTEX
10
9.52444
20
8.82784
30
4.32
0
VERTEX
10
9.52305
20
8.82228
30
4.32
0
VERTEX
10
9.50081
20
8.80837
30
4.32
0
VERTEX
10
9.48273
20
8.7903
30
4.32
0
VERTEX
10
9.46744
20
8.77083
30
4.32
0
VERTEX
10
9.46188
20
8.76527
30
4.32
0
VERTEX
10
9.45909
20
8.76249
30
4.32
0
VERTEX
10
9.45909
20
8.75971
30
4.32
0
VERTEX
10
9.45075
20
8.74858
30
4.32
0
VERTEX
10
9.45075
20
8.74302
30
4.32
0
VERTEX
10
9.44797
20
8.73746
30
4.32
0
VERTEX
10
9.44797
20
8.73468
30
4.32
0
VERTEX
10
9.4438
20
8.72912
30
4.32
0
VERTEX
10
9.44102
20
8.70687
30
4.32
0
VERTEX
10
9.44102
20
8.70409
30
4.32
0
SEQEND
0
POLYLINE
62
227
66
1
70
1
3
endoplasmic_reticulum
0
VERTEX
10
9.45326
20
8.84844
30
4.32
0
VERTEX
10
9.45784
20
8.84387
30
4.32
0
VERTEX
10
9.46393
20
8.84387
30
4.32
0
VERTEX
10
9.46545
20
8.84692
30
4.32
0
VERTEX
10
9.47155
20
8.84844
30
4.32
0
VERTEX
10
9.47764
20
8.85301
30
4.32
0
VERTEX
10
9.48373
20
8.85453
30
4.32
0
VERTEX
10
9.49135
20
8.86215
30
4.32
0
VERTEX
10
9.49745
20
8.86367
30
4.32
0
VERTEX
10
9.50659
20
8.87434
30
4.32
0
VERTEX
10
9.51877
20
8.88196
30
4.32
0
VERTEX
10
9.52335
20
8.88348
30
4.32
0
VERTEX
10
9.52944
20
8.88957
30
4.32
0
VERTEX
10
9.53096
20
8.89567
30
4.32
0
VERTEX
10
9.52944
20
8.90785
30
4.32
0
VERTEX
10
9.52944
20
8.91395
30
4.32
0
VERTEX
10
9.52944
20
8.917
30
4.32
0
VERTEX
10
9.52335
20
8.92309
30
4.32
0
VERTEX
10
9.51116
20
8.92614
30
4.32
0
VERTEX
10
9.49897
20
8.92004
30
4.32
0
VERTEX
10
9.49288
20
8.91852
30
4.32
0
VERTEX
10
9.48983
20
8.91395
30
4.32
0
VERTEX
10
9.47916
20
8.90633
30
4.32
0
VERTEX
10
9.47002
20
8.89567
30
4.32
0
VERTEX
10
9.46545
20
8.88957
30
4.32
0
VERTEX
10
9.46393
20
8.88348
30
4.32
0
VERTEX
10
9.45631
20
8.87129
30
4.32
0
VERTEX
10
9.45326
20
8.86824
30
4.32
0
VERTEX
10
9.45326
20
8.85606
30
4.32
0
VERTEX
10
9.45326
20
8.84996
30
4.32
0
SEQEND
0
POLYLINE
62
227
66
1
70
1
3
endoplasmic_reticulum
0
VERTEX
10
9.0404
20
8.54374
30
4.32
0
VERTEX
10
9.04497
20
8.53155
30
4.32
0
VERTEX
10
9.04497
20
8.52546
30
4.32
0
VERTEX
10
9.04802
20
8.51936
30
4.32
0
VERTEX
10
9.04802
20
8.51327
30
4.32
0
VERTEX
10
9.05716
20
8.49042
30
4.32
0
VERTEX
10
9.06173
20
8.48585
30
4.32
0
VERTEX
10
9.06173
20
8.4828
30
4.32
0
VERTEX
10
9.06477
20
8.47975
30
4.32
0
VERTEX
10
9.06477
20
8.47671
30
4.32
0
VERTEX
10
9.07392
20
8.46757
30
4.32
0
VERTEX
10
9.08306
20
8.45538
30
4.32
0
VERTEX
10
9.09372
20
8.44624
30
4.32
0
VERTEX
10
9.112
20
8.42338
30
4.32
0
VERTEX
10
9.11505
20
8.42034
30
4.32
0
VERTEX
10
9.1181
20
8.42034
30
4.32
0
VERTEX
10
9.12267
20
8.41424
30
4.32
0
VERTEX
10
9.12876
20
8.41272
30
4.32
0
VERTEX
10
9.13181
20
8.41272
30
4.32
0
VERTEX
10
9.13485
20
8.40967
30
4.32
0
VERTEX
10
9.1379
20
8.40967
30
4.32
0
VERTEX
10
9.15009
20
8.40206
30
4.32
0
VERTEX
10
9.16228
20
8.39901
30
4.32
0
VERTEX
10
9.18665
20
8.39901
30
4.32
0
VERTEX
10
9.19884
20
8.39901
30
4.32
0
VERTEX
10
9.21103
20
8.40206
30
4.32
0
VERTEX
10
9.21712
20
8.40358
30
4.32
0
VERTEX
10
9.22322
20
8.40815
30
4.32
0
VERTEX
10
9.27197
20
8.41577
30
4.32
0
VERTEX
10
9.27502
20
8.41881
30
4.32
0
VERTEX
10
9.28111
20
8.41881
30
4.32
0
VERTEX
10
9.30549
20
8.43253
30
4.32
0
VERTEX
10
9.31615
20
8.44014
30
4.32
0
VERTEX
10
9.32834
20
8.44471
30
4.32
0
VERTEX
10
9.33291
20
8.45081
30
4.32
0
VERTEX
10
9.33596
20
8.45385
30
4.32
0
VERTEX
10
9.33596
20
8.4569
30
4.32
0
VERTEX
10
9.34814
20
8.46757
30
4.32
0
VERTEX
10
9.35119
20
8.47366
30
4.32
0
VERTEX
10
9.36186
20
8.48128
30
4.32
0
VERTEX
10
9.36947
20
8.49042
30
4.32
0
VERTEX
10
9.37709
20
8.51479
30
4.32
0
VERTEX
10
9.37709
20
8.52698
30
4.32
0
VERTEX
10
9.36947
20
8.53917
30
4.32
0
VERTEX
10
9.35728
20
8.54069
30
4.32
0
VERTEX
10
9.35119
20
8.53917
30
4.32
0
VERTEX
10
9.34814
20
8.53917
30
4.32
0
VERTEX
10
9.32529
20
8.52241
30
4.32
0
VERTEX
10
9.3192
20
8.51936
30
4.32
0
VERTEX
10
9.30853
20
8.50718
30
4.32
0
VERTEX
10
9.30549
20
8.50108
30
4.32
0
VERTEX
10
9.30701
20
8.49499
30
4.32
0
VERTEX
10
9.30244
20
8.49042
30
4.32
0
VERTEX
10
9.30244
20
8.48737
30
4.32
0
VERTEX
10
9.29025
20
8.47823
30
4.32
0
VERTEX
10
9.2872
20
8.47366
30
4.32
0
VERTEX
10
9.28416
20
8.47366
30
4.32
0
VERTEX
10
9.27502
20
8.463
30
4.32
0
VERTEX
10
9.27197
20
8.463
30
4.32
0
VERTEX
10
9.26588
20
8.45842
30
4.32
0
VERTEX
10
9.2415
20
8.44928
30
4.32
0
VERTEX
10
9.21712
20
8.44928
30
4.32
0
VERTEX
10
9.16837
20
8.45385
30
4.32
0
VERTEX
10
9.16228
20
8.45538
30
4.32
0
VERTEX
10
9.15161
20
8.46452
30
4.32
0
VERTEX
10
9.14857
20
8.46452
30
4.32
0
VERTEX
10
9.1379
20
8.47518
30
4.32
0
VERTEX
10
9.13638
20
8.48128
30
4.32
0
VERTEX
10
9.13181
20
8.48737
30
4.32
0
VERTEX
10
9.13181
20
8.49042
30
4.32
0
VERTEX
10
9.12876
20
8.49194
30
4.32
0
VERTEX
10
9.12724
20
8.49804
30
4.32
0
VERTEX
10
9.12267
20
8.50413
30
4.32
0
VERTEX
10
9.12419
20
8.52851
30
4.32
0
VERTEX
10
9.12419
20
8.5346
30
4.32
0
VERTEX
10
9.13028
20
8.54679
30
4.32
0
VERTEX
10
9.13028
20
8.54983
30
4.32
0
VERTEX
10
9.13638
20
8.55593
30
4.32
0
VERTEX
10
9.13638
20
8.55898
30
4.32
0
VERTEX
10
9.144
20
8.56964
30
4.32
0
VERTEX
10
9.14857
20
8.57573
30
4.32
0
VERTEX
10
9.17294
20
8.5803
30
4.32
0
VERTEX
10
9.22169
20
8.58183
30
4.32
0
VERTEX
10
9.24607
20
8.5803
30
4.32
0
VERTEX
10
9.25826
20
8.57878
30
4.32
0
VERTEX
10
9.27045
20
8.57269
30
4.32
0
VERTEX
10
9.27654
20
8.56964
30
4.32
0
VERTEX
10
9.28111
20
8.56355
30
4.32
0
VERTEX
10
9.2872
20
8.56202
30
4.32
0
VERTEX
10
9.29177
20
8.55745
30
4.32
0
VERTEX
10
9.29787
20
8.55593
30
4.32
0
VERTEX
10
9.30244
20
8.55136
30
4.32
0
VERTEX
10
9.32681
20
8.54679
30
4.32
0
VERTEX
10
9.32986
20
8.54679
30
4.32
0
VERTEX
10
9.33596
20
8.55136
30
4.32
0
VERTEX
10
9.34814
20
8.55593
30
4.32
0
VERTEX
10
9.35119
20
8.55593
30
4.32
0
VERTEX
10
9.35576
20
8.56202
30
4.32
0
VERTEX
10
9.35728
20
8.5864
30
4.32
0
VERTEX
10
9.35728
20
8.59249
30
4.32
0
VERTEX
10
9.35728
20
8.59554
30
4.32
0
VERTEX
10
9.35271
20
8.60163
30
4.32
0
VERTEX
10
9.34053
20
8.60468
30
4.32
0
VERTEX
10
9.33443
20
8.6062
30
4.32
0
VERTEX
10
9.32224
20
8.61382
30
4.32
0
VERTEX
10
9.29939
20
8.62296
30
4.32
0
VERTEX
10
9.2872
20
8.62753
30
4.32
0
VERTEX
10
9.27502
20
8.62601
30
4.32
0
VERTEX
10
9.26283
20
8.63058
30
4.32
0
VERTEX
10
9.23845
20
8.63058
30
4.32
0
VERTEX
10
9.22626
20
8.63515
30
4.32
0
VERTEX
10
9.17751
20
8.63515
30
4.32
0
VERTEX
10
9.15314
20
8.63363
30
4.32
0
VERTEX
10
9.12876
20
8.63515
30
4.32
0
VERTEX
10
9.10439
20
8.6321
30
4.32
0
VERTEX
10
9.09829
20
8.6321
30
4.32
0
VERTEX
10
9.0861
20
8.62753
30
4.32
0
VERTEX
10
9.08153
20
8.62296
30
4.32
0
VERTEX
10
9.06934
20
8.62144
30
4.32
0
VERTEX
10
9.05868
20
8.61534
30
4.32
0
VERTEX
10
9.04802
20
8.59249
30
4.32
0
VERTEX
10
9.0404
20
8.58183
30
4.32
0
VERTEX
10
9.0404
20
8.55745
30
4.32
0
VERTEX
10
9.0404
20
8.54526
30
4.32
0
SEQEND
0
POLYLINE
62
227
66
1
70
1
3
endoplasmic_reticulum
0
VERTEX
10
9.2872
20
8.64429
30
4.32
0
VERTEX
10
9.29025
20
8.64124
30
4.32
0
VERTEX
10
9.30244
20
8.63667
30
4.32
0
VERTEX
10
9.32681
20
8.6382
30
4.32
0
VERTEX
10
9.33139
20
8.64124
30
4.32
0
VERTEX
10
9.33748
20
8.66562
30
4.32
0
VERTEX
10
9.339
20
8.67781
30
4.32
0
VERTEX
10
9.34357
20
8.68085
30
4.32
0
VERTEX
10
9.34357
20
8.6839
30
4.32
0
VERTEX
10
9.35576
20
8.69
30
4.32
0
VERTEX
10
9.36033
20
8.69457
30
4.32
0
VERTEX
10
9.36338
20
8.69457
30
4.32
0
VERTEX
10
9.37404
20
8.70371
30
4.32
0
VERTEX
10
9.38014
20
8.70371
30
4.32
0
VERTEX
10
9.38471
20
8.7098
30
4.32
0
VERTEX
10
9.3908
20
8.71132
30
4.32
0
VERTEX
10
9.3969
20
8.71589
30
4.32
0
VERTEX
10
9.39994
20
8.71589
30
4.32
0
VERTEX
10
9.40908
20
8.72351
30
4.32
0
VERTEX
10
9.41365
20
8.72961
30
4.32
0
VERTEX
10
9.41213
20
8.7357
30
4.32
0
VERTEX
10
9.41061
20
8.73875
30
4.32
0
VERTEX
10
9.40756
20
8.73722
30
4.32
0
VERTEX
10
9.40756
20
8.73418
30
4.32
0
VERTEX
10
9.40147
20
8.73722
30
4.32
0
VERTEX
10
9.39994
20
8.74027
30
4.32
0
VERTEX
10
9.38775
20
8.74027
30
4.32
0
VERTEX
10
9.37557
20
8.73722
30
4.32
0
VERTEX
10
9.35424
20
8.71742
30
4.32
0
VERTEX
10
9.35271
20
8.71437
30
4.32
0
VERTEX
10
9.34967
20
8.71437
30
4.32
0
VERTEX
10
9.34662
20
8.70828
30
4.32
0
VERTEX
10
9.34357
20
8.70523
30
4.32
0
VERTEX
10
9.34053
20
8.70523
30
4.32
0
VERTEX
10
9.32986
20
8.69457
30
4.32
0
VERTEX
10
9.32681
20
8.69457
30
4.32
0
VERTEX
10
9.3192
20
8.6839
30
4.32
0
VERTEX
10
9.31767
20
8.67781
30
4.32
0
VERTEX
10
9.30701
20
8.66867
30
4.32
0
VERTEX
10
9.30092
20
8.66714
30
4.32
0
VERTEX
10
9.29025
20
8.65953
30
4.32
0
VERTEX
10
9.2872
20
8.658
30
4.32
0
VERTEX
10
9.2872
20
8.64581
30
4.32
0
SEQEND
0
POLYLINE
62
227
66
1
70
1
3
endoplasmic_reticulum
0
VERTEX
10
9.19884
20
8.67781
30
4.32
0
VERTEX
10
9.20494
20
8.67171
30
4.32
0
VERTEX
10
9.21712
20
8.6641
30
4.32
0
VERTEX
10
9.2415
20
8.66257
30
4.32
0
VERTEX
10
9.25216
20
8.67019
30
4.32
0
VERTEX
10
9.25826
20
8.67628
30
4.32
0
VERTEX
10
9.26588
20
8.68695
30
4.32
0
VERTEX
10
9.2872
20
8.70218
30
4.32
0
VERTEX
10
9.2933
20
8.70218
30
4.32
0
VERTEX
10
9.29635
20
8.70523
30
4.32
0
VERTEX
10
9.29939
20
8.70523
30
4.32
0
VERTEX
10
9.31006
20
8.71742
30
4.32
0
VERTEX
10
9.32072
20
8.72504
30
4.32
0
VERTEX
10
9.32681
20
8.72961
30
4.32
0
VERTEX
10
9.32986
20
8.72961
30
4.32
0
VERTEX
10
9.33139
20
8.7357
30
4.32
0
VERTEX
10
9.33443
20
8.7357
30
4.32
0
VERTEX
10
9.34053
20
8.74789
30
4.32
0
VERTEX
10
9.34053
20
8.75398
30
4.32
0
VERTEX
10
9.35119
20
8.75855
30
4.32
0
VERTEX
10
9.35271
20
8.76008
30
4.32
0
VERTEX
10
9.32834
20
8.76312
30
4.32
0
VERTEX
10
9.31615
20
8.7616
30
4.32
0
VERTEX
10
9.31006
20
8.7616
30
4.32
0
VERTEX
10
9.29939
20
8.74941
30
4.32
0
VERTEX
10
9.29635
20
8.74332
30
4.32
0
VERTEX
10
9.29635
20
8.74027
30
4.32
0
VERTEX
10
9.28568
20
8.72961
30
4.32
0
VERTEX
10
9.26283
20
8.71437
30
4.32
0
VERTEX
10
9.25064
20
8.71132
30
4.32
0
VERTEX
10
9.24455
20
8.70828
30
4.32
0
VERTEX
10
9.23236
20
8.70828
30
4.32
0
VERTEX
10
9.22626
20
8.70523
30
4.32
0
VERTEX
10
9.22322
20
8.70523
30
4.32
0
VERTEX
10
9.22017
20
8.70218
30
4.32
0
VERTEX
10
9.20798
20
8.70066
30
4.32
0
VERTEX
10
9.19884
20
8.69
30
4.32
0
VERTEX
10
9.19884
20
8.67933
30
4.32
0
SEQEND
0
POLYLINE
62
227
66
1
70
1
3
endoplasmic_reticulum
0
VERTEX
10
8.59554
20
8.58335
30
4.32
0
VERTEX
10
8.6062
20
8.55898
30
4.32
0
VERTEX
10
8.61534
20
8.54831
30
4.32
0
VERTEX
10
8.61687
20
8.54222
30
4.32
0
VERTEX
10
8.62144
20
8.53765
30
4.32
0
VERTEX
10
8.64581
20
8.53612
30
4.32
0
VERTEX
10
8.658
20
8.53765
30
4.32
0
VERTEX
10
8.6641
20
8.54069
30
4.32
0
VERTEX
10
8.67019
20
8.55288
30
4.32
0
VERTEX
10
8.67171
20
8.57726
30
4.32
0
VERTEX
10
8.67171
20
8.58335
30
4.32
0
VERTEX
10
8.67628
20
8.58945
30
4.32
0
VERTEX
10
8.67781
20
8.60163
30
4.32
0
VERTEX
10
8.70066
20
8.61534
30
4.32
0
VERTEX
10
8.70828
20
8.62601
30
4.32
0
VERTEX
10
8.7098
20
8.6382
30
4.32
0
VERTEX
10
8.70675
20
8.65038
30
4.32
0
VERTEX
10
8.69914
20
8.66105
30
4.32
0
VERTEX
10
8.69457
20
8.6641
30
4.32
0
VERTEX
10
8.68238
20
8.65496
30
4.32
0
VERTEX
10
8.67628
20
8.64886
30
4.32
0
VERTEX
10
8.6641
20
8.64429
30
4.32
0
VERTEX
10
8.65343
20
8.63363
30
4.32
0
VERTEX
10
8.64429
20
8.62601
30
4.32
0
VERTEX
10
8.61991
20
8.60925
30
4.32
0
VERTEX
10
8.61687
20
8.60925
30
4.32
0
VERTEX
10
8.61382
20
8.6062
30
4.32
0
VERTEX
10
8.61077
20
8.6062
30
4.32
0
VERTEX
10
8.60925
20
8.60316
30
4.32
0
VERTEX
10
8.60316
20
8.60163
30
4.32
0
VERTEX
10
8.59706
20
8.59706
30
4.32
0
VERTEX
10
8.59554
20
8.58487
30
4.32
0
SEQEND
0
POLYLINE
62
227
66
1
70
1
3
endoplasmic_reticulum
0
VERTEX
10
7.9519
20
7.91475
30
4.32
0
VERTEX
10
7.95422
20
7.90546
30
4.32
0
VERTEX
10
7.95654
20
7.90082
30
4.32
0
VERTEX
10
7.96118
20
7.90082
30
4.32
0
VERTEX
10
7.96583
20
7.89617
30
4.32
0
VERTEX
10
7.9844
20
7.89385
30
4.32
0
VERTEX
10
7.99369
20
7.89385
30
4.32
0
VERTEX
10
8.01226
20
7.90082
30
4.32
0
VERTEX
10
8.03083
20
7.91243
30
4.32
0
VERTEX
10
8.03316
20
7.931
30
4.32
0
VERTEX
10
8.02851
20
7.94957
30
4.32
0
VERTEX
10
8.01923
20
7.96815
30
4.32
0
VERTEX
10
8.00994
20
7.97511
30
4.32
0
VERTEX
10
7.99137
20
7.97976
30
4.32
0
VERTEX
10
7.98672
20
7.98672
30
4.32
0
VERTEX
10
7.96815
20
7.97047
30
4.32
0
VERTEX
10
7.95886
20
7.9635
30
4.32
0
VERTEX
10
7.9519
20
7.92636
30
4.32
0
VERTEX
10
7.9519
20
7.91707
30
4.32
0
SEQEND
0
ENDSEC
0
EOF
