0
SECTION
2
ENTITIES
0
POLYLINE
62
31
66
1
70
1
3
contour
0
VERTEX
10
7.79814
20
9.98398
30
7.56
0
VERTEX
10
7.80799
20
9.96429
30
7.56
0
VERTEX
10
7.82276
20
9.88552
30
7.56
0
VERTEX
10
7.83753
20
9.86583
30
7.56
0
VERTEX
10
7.83753
20
9.84614
30
7.56
0
VERTEX
10
7.84737
20
9.82645
30
7.56
0
VERTEX
10
7.85722
20
9.74768
30
7.56
0
VERTEX
10
7.86214
20
9.70829
30
7.56
0
VERTEX
10
7.88183
20
9.66891
30
7.56
0
VERTEX
10
7.89168
20
9.64922
30
7.56
0
VERTEX
10
7.89168
20
9.63937
30
7.56
0
VERTEX
10
7.90153
20
9.62952
30
7.56
0
VERTEX
10
7.90153
20
9.61968
30
7.56
0
VERTEX
10
7.93599
20
9.58522
30
7.56
0
VERTEX
10
7.97537
20
9.57045
30
7.56
0
VERTEX
10
8.05414
20
9.57045
30
7.56
0
VERTEX
10
8.09353
20
9.57045
30
7.56
0
VERTEX
10
8.11322
20
9.57045
30
7.56
0
VERTEX
10
8.1526
20
9.58522
30
7.56
0
VERTEX
10
8.23137
20
9.59998
30
7.56
0
VERTEX
10
8.31014
20
9.59014
30
7.56
0
VERTEX
10
8.38891
20
9.59506
30
7.56
0
VERTEX
10
8.42829
20
9.60983
30
7.56
0
VERTEX
10
8.44799
20
9.61475
30
7.56
0
VERTEX
10
8.46768
20
9.62952
30
7.56
0
VERTEX
10
8.48737
20
9.63445
30
7.56
0
VERTEX
10
8.51691
20
9.66891
30
7.56
0
VERTEX
10
8.53168
20
9.6886
30
7.56
0
VERTEX
10
8.5366
20
9.69845
30
7.56
0
VERTEX
10
8.55629
20
9.70337
30
7.56
0
VERTEX
10
8.62522
20
9.7526
30
7.56
0
VERTEX
10
8.63999
20
9.79198
30
7.56
0
VERTEX
10
8.63506
20
9.83137
30
7.56
0
VERTEX
10
8.62029
20
9.87075
30
7.56
0
VERTEX
10
8.55137
20
9.93475
30
7.56
0
VERTEX
10
8.51199
20
9.95937
30
7.56
0
VERTEX
10
8.49722
20
9.96921
30
7.56
0
VERTEX
10
8.48245
20
9.98891
30
7.56
0
VERTEX
10
8.44306
20
10.0037
30
7.56
0
VERTEX
10
8.42337
20
10.0135
30
7.56
0
VERTEX
10
8.38399
20
10.0184
30
7.56
0
VERTEX
10
8.31014
20
10.0628
30
7.56
0
VERTEX
10
8.29045
20
10.0824
30
7.56
0
VERTEX
10
8.28553
20
10.1021
30
7.56
0
VERTEX
10
8.30522
20
10.1071
30
7.56
0
VERTEX
10
8.31506
20
10.1169
30
7.56
0
VERTEX
10
8.31999
20
10.1957
30
7.56
0
VERTEX
10
8.31506
20
10.2351
30
7.56
0
VERTEX
10
8.25106
20
10.2991
30
7.56
0
VERTEX
10
8.23137
20
10.3089
30
7.56
0
VERTEX
10
8.22153
20
10.3089
30
7.56
0
VERTEX
10
8.1526
20
10.3631
30
7.56
0
VERTEX
10
8.11814
20
10.3926
30
7.56
0
VERTEX
10
8.10829
20
10.4123
30
7.56
0
VERTEX
10
8.10337
20
10.4221
30
7.56
0
VERTEX
10
8.0246
20
10.4024
30
7.56
0
VERTEX
10
8.01968
20
10.3828
30
7.56
0
VERTEX
10
7.98029
20
10.3631
30
7.56
0
VERTEX
10
7.94091
20
10.3335
30
7.56
0
VERTEX
10
7.93599
20
10.3237
30
7.56
0
VERTEX
10
7.92614
20
10.3237
30
7.56
0
VERTEX
10
7.88676
20
10.2892
30
7.56
0
VERTEX
10
7.86214
20
10.2646
30
7.56
0
VERTEX
10
7.85722
20
10.2498
30
7.56
0
VERTEX
10
7.84737
20
10.2498
30
7.56
0
VERTEX
10
7.83753
20
10.24
30
7.56
0
VERTEX
10
7.83753
20
10.2006
30
7.56
0
VERTEX
10
7.81291
20
10.1218
30
7.56
0
VERTEX
10
7.80306
20
10.1169
30
7.56
0
VERTEX
10
7.79814
20
10.0381
30
7.56
0
VERTEX
10
7.79814
20
9.99875
30
7.56
0
VERTEX
10
7.79814
20
9.98891
30
7.56
0
SEQEND
0
POLYLINE
62
224
66
1
70
1
3
mitochondrion
0
VERTEX
10
8.03112
20
9.8943
30
7.56
0
VERTEX
10
8.0339
20
9.84981
30
7.56
0
VERTEX
10
8.0339
20
9.82756
30
7.56
0
VERTEX
10
8.0339
20
9.81644
30
7.56
0
VERTEX
10
8.03668
20
9.81365
30
7.56
0
VERTEX
10
8.03668
20
9.80253
30
7.56
0
VERTEX
10
8.03947
20
9.79141
30
7.56
0
VERTEX
10
8.04364
20
9.78585
30
7.56
0
VERTEX
10
8.04503
20
9.77472
30
7.56
0
VERTEX
10
8.04503
20
9.77194
30
7.56
0
VERTEX
10
8.05059
20
9.76916
30
7.56
0
VERTEX
10
8.05337
20
9.76638
30
7.56
0
VERTEX
10
8.05337
20
9.76082
30
7.56
0
VERTEX
10
8.05337
20
9.75804
30
7.56
0
VERTEX
10
8.06866
20
9.73579
30
7.56
0
VERTEX
10
8.08952
20
9.71771
30
7.56
0
VERTEX
10
8.10064
20
9.71215
30
7.56
0
VERTEX
10
8.10621
20
9.70937
30
7.56
0
VERTEX
10
8.11177
20
9.70937
30
7.56
0
VERTEX
10
8.11316
20
9.70659
30
7.56
0
VERTEX
10
8.13541
20
9.69825
30
7.56
0
VERTEX
10
8.13819
20
9.69825
30
7.56
0
VERTEX
10
8.14375
20
9.69408
30
7.56
0
VERTEX
10
8.15487
20
9.68991
30
7.56
0
VERTEX
10
8.15765
20
9.68991
30
7.56
0
VERTEX
10
8.16043
20
9.68713
30
7.56
0
VERTEX
10
8.18268
20
9.68156
30
7.56
0
VERTEX
10
8.18824
20
9.67878
30
7.56
0
VERTEX
10
8.21049
20
9.67878
30
7.56
0
VERTEX
10
8.23274
20
9.676
30
7.56
0
VERTEX
10
8.2383
20
9.676
30
7.56
0
VERTEX
10
8.24386
20
9.67322
30
7.56
0
VERTEX
10
8.26611
20
9.67461
30
7.56
0
VERTEX
10
8.27167
20
9.67739
30
7.56
0
VERTEX
10
8.29391
20
9.67739
30
7.56
0
VERTEX
10
8.31616
20
9.68295
30
7.56
0
VERTEX
10
8.32172
20
9.68434
30
7.56
0
VERTEX
10
8.3245
20
9.68713
30
7.56
0
VERTEX
10
8.3245
20
9.68991
30
7.56
0
VERTEX
10
8.33563
20
9.69408
30
7.56
0
VERTEX
10
8.33841
20
9.69408
30
7.56
0
VERTEX
10
8.34119
20
9.69686
30
7.56
0
VERTEX
10
8.34397
20
9.69686
30
7.56
0
VERTEX
10
8.36205
20
9.71354
30
7.56
0
VERTEX
10
8.369
20
9.72328
30
7.56
0
VERTEX
10
8.37317
20
9.72884
30
7.56
0
VERTEX
10
8.37734
20
9.75108
30
7.56
0
VERTEX
10
8.37178
20
9.79558
30
7.56
0
VERTEX
10
8.369
20
9.81783
30
7.56
0
VERTEX
10
8.36761
20
9.82895
30
7.56
0
VERTEX
10
8.36344
20
9.84007
30
7.56
0
VERTEX
10
8.36066
20
9.84563
30
7.56
0
VERTEX
10
8.35926
20
9.85676
30
7.56
0
VERTEX
10
8.35926
20
9.85954
30
7.56
0
VERTEX
10
8.35648
20
9.86093
30
7.56
0
VERTEX
10
8.35509
20
9.86649
30
7.56
0
VERTEX
10
8.35092
20
9.87205
30
7.56
0
VERTEX
10
8.35092
20
9.87483
30
7.56
0
VERTEX
10
8.34814
20
9.87761
30
7.56
0
VERTEX
10
8.34814
20
9.88318
30
7.56
0
VERTEX
10
8.3398
20
9.89291
30
7.56
0
VERTEX
10
8.33424
20
9.90264
30
7.56
0
VERTEX
10
8.33146
20
9.90542
30
7.56
0
VERTEX
10
8.32868
20
9.91655
30
7.56
0
VERTEX
10
8.32172
20
9.9235
30
7.56
0
VERTEX
10
8.32033
20
9.92906
30
7.56
0
VERTEX
10
8.31199
20
9.9374
30
7.56
0
VERTEX
10
8.30087
20
9.93879
30
7.56
0
VERTEX
10
8.2953
20
9.94296
30
7.56
0
VERTEX
10
8.29252
20
9.94296
30
7.56
0
VERTEX
10
8.28696
20
9.94714
30
7.56
0
VERTEX
10
8.28557
20
9.94992
30
7.56
0
VERTEX
10
8.27445
20
9.9527
30
7.56
0
VERTEX
10
8.27167
20
9.95548
30
7.56
0
VERTEX
10
8.24942
20
9.96243
30
7.56
0
VERTEX
10
8.22717
20
9.96382
30
7.56
0
VERTEX
10
8.21605
20
9.96382
30
7.56
0
VERTEX
10
8.21466
20
9.9666
30
7.56
0
VERTEX
10
8.12567
20
9.96243
30
7.56
0
VERTEX
10
8.10343
20
9.96104
30
7.56
0
VERTEX
10
8.09786
20
9.95965
30
7.56
0
VERTEX
10
8.08952
20
9.95131
30
7.56
0
VERTEX
10
8.0784
20
9.94714
30
7.56
0
VERTEX
10
8.07284
20
9.94435
30
7.56
0
VERTEX
10
8.07006
20
9.93879
30
7.56
0
VERTEX
10
8.06449
20
9.9374
30
7.56
0
VERTEX
10
8.05476
20
9.92628
30
7.56
0
VERTEX
10
8.05198
20
9.9235
30
7.56
0
VERTEX
10
8.05198
20
9.92072
30
7.56
0
VERTEX
10
8.03529
20
9.89986
30
7.56
0
VERTEX
10
8.03112
20
9.89569
30
7.56
0
SEQEND
0
POLYLINE
62
236
66
1
70
1
3
postsynaptic_density
0
VERTEX
10
7.22791
20
8.83473
30
7.56
0
VERTEX
10
7.23164
20
8.82727
30
7.56
0
VERTEX
10
7.23538
20
8.82354
30
7.56
0
VERTEX
10
7.23724
20
8.81607
30
7.56
0
VERTEX
10
7.24844
20
8.80488
30
7.56
0
VERTEX
10
7.26337
20
8.78995
30
7.56
0
VERTEX
10
7.27083
20
8.78808
30
7.56
0
VERTEX
10
7.2727
20
8.78621
30
7.56
0
VERTEX
10
7.28576
20
8.79741
30
7.56
0
VERTEX
10
7.29136
20
8.80488
30
7.56
0
VERTEX
10
7.29696
20
8.8198
30
7.56
0
VERTEX
10
7.30069
20
8.82727
30
7.56
0
VERTEX
10
7.30069
20
8.831
30
7.56
0
VERTEX
10
7.30629
20
8.83847
30
7.56
0
VERTEX
10
7.31189
20
8.8422
30
7.56
0
VERTEX
10
7.31376
20
8.85713
30
7.56
0
VERTEX
10
7.31376
20
8.86086
30
7.56
0
VERTEX
10
7.2895
20
8.88512
30
7.56
0
VERTEX
10
7.28576
20
8.89259
30
7.56
0
VERTEX
10
7.2559
20
8.90005
30
7.56
0
VERTEX
10
7.24097
20
8.90379
30
7.56
0
VERTEX
10
7.23724
20
8.90379
30
7.56
0
VERTEX
10
7.23164
20
8.88886
30
7.56
0
VERTEX
10
7.22791
20
8.859
30
7.56
0
VERTEX
10
7.22791
20
8.84407
30
7.56
0
VERTEX
10
7.22791
20
8.8366
30
7.56
0
SEQEND
0
POLYLINE
62
227
66
1
70
1
3
endoplasmic_reticulum
0
VERTEX
10
8.19085
20
10.0431
30
7.56
0
VERTEX
10
8.19533
20
10.0368
30
7.56
0
VERTEX
10
8.20788
20
10.027
30
7.56
0
VERTEX
10
8.21416
20
10.0198
30
7.56
0
VERTEX
10
8.21774
20
10.0189
30
7.56
0
VERTEX
10
8.22402
20
10.0126
30
7.56
0
VERTEX
10
8.22671
20
10.009
30
7.56
0
VERTEX
10
8.24105
20
10.001
30
7.56
0
VERTEX
10
8.2545
20
9.99111
30
7.56
0
VERTEX
10
8.26078
20
9.98394
30
7.56
0
VERTEX
10
8.27422
20
9.97408
30
7.56
0
VERTEX
10
8.27781
20
9.97318
30
7.56
0
VERTEX
10
8.2814
20
9.97049
30
7.56
0
VERTEX
10
8.28319
20
9.97049
30
7.56
0
VERTEX
10
8.28947
20
9.96511
30
7.56
0
VERTEX
10
8.29305
20
9.96511
30
7.56
0
VERTEX
10
8.29484
20
9.96332
30
7.56
0
VERTEX
10
8.29664
20
9.96332
30
7.56
0
VERTEX
10
8.29933
20
9.96063
30
7.56
0
VERTEX
10
8.30112
20
9.96063
30
7.56
0
VERTEX
10
8.30471
20
9.95794
30
7.56
0
VERTEX
10
8.3056
20
9.95614
30
7.56
0
VERTEX
10
8.31278
20
9.95435
30
7.56
0
VERTEX
10
8.31636
20
9.95525
30
7.56
0
VERTEX
10
8.31726
20
9.95345
30
7.56
0
VERTEX
10
8.31905
20
9.95345
30
7.56
0
VERTEX
10
8.32533
20
9.94897
30
7.56
0
VERTEX
10
8.32981
20
9.9427
30
7.56
0
VERTEX
10
8.3316
20
9.9409
30
7.56
0
VERTEX
10
8.3316
20
9.93732
30
7.56
0
VERTEX
10
8.3334
20
9.93373
30
7.56
0
VERTEX
10
8.33429
20
9.92656
30
7.56
0
VERTEX
10
8.33519
20
9.92297
30
7.56
0
VERTEX
10
8.33519
20
9.92118
30
7.56
0
VERTEX
10
8.33698
20
9.91939
30
7.56
0
VERTEX
10
8.33788
20
9.91221
30
7.56
0
VERTEX
10
8.34147
20
9.90504
30
7.56
0
VERTEX
10
8.34236
20
9.90146
30
7.56
0
VERTEX
10
8.34415
20
9.89966
30
7.56
0
VERTEX
10
8.34595
20
9.89249
30
7.56
0
VERTEX
10
8.35581
20
9.87904
30
7.56
0
VERTEX
10
8.36119
20
9.87187
30
7.56
0
VERTEX
10
8.36746
20
9.85752
30
7.56
0
VERTEX
10
8.36836
20
9.85394
30
7.56
0
VERTEX
10
8.37015
20
9.85215
30
7.56
0
VERTEX
10
8.37015
20
9.85035
30
7.56
0
VERTEX
10
8.37284
20
9.84677
30
7.56
0
VERTEX
10
8.37464
20
9.83959
30
7.56
0
VERTEX
10
8.37464
20
9.83601
30
7.56
0
VERTEX
10
8.37733
20
9.82883
30
7.56
0
VERTEX
10
8.3845
20
9.82615
30
7.56
0
VERTEX
10
8.38809
20
9.82615
30
7.56
0
VERTEX
10
8.38988
20
9.82615
30
7.56
0
VERTEX
10
8.39167
20
9.82435
30
7.56
0
VERTEX
10
8.39526
20
9.82435
30
7.56
0
VERTEX
10
8.39705
20
9.82435
30
7.56
0
VERTEX
10
8.40422
20
9.82883
30
7.56
0
VERTEX
10
8.40602
20
9.83601
30
7.56
0
VERTEX
10
8.40422
20
9.8647
30
7.56
0
VERTEX
10
8.40422
20
9.86828
30
7.56
0
VERTEX
10
8.40153
20
9.87187
30
7.56
0
VERTEX
10
8.39974
20
9.87366
30
7.56
0
VERTEX
10
8.39795
20
9.88083
30
7.56
0
VERTEX
10
8.39705
20
9.89518
30
7.56
0
VERTEX
10
8.38629
20
9.92387
30
7.56
0
VERTEX
10
8.3836
20
9.93104
30
7.56
0
VERTEX
10
8.38271
20
9.94539
30
7.56
0
VERTEX
10
8.3854
20
9.95256
30
7.56
0
VERTEX
10
8.38719
20
9.95614
30
7.56
0
VERTEX
10
8.38719
20
9.96332
30
7.56
0
VERTEX
10
8.38629
20
9.9669
30
7.56
0
VERTEX
10
8.38629
20
9.9687
30
7.56
0
VERTEX
10
8.37374
20
9.98035
30
7.56
0
VERTEX
10
8.36836
20
9.98752
30
7.56
0
VERTEX
10
8.36657
20
9.99111
30
7.56
0
VERTEX
10
8.35222
20
10.0001
30
7.56
0
VERTEX
10
8.34505
20
10.0001
30
7.56
0
VERTEX
10
8.34147
20
9.99918
30
7.56
0
VERTEX
10
8.33788
20
9.99649
30
7.56
0
VERTEX
10
8.33071
20
9.99649
30
7.56
0
VERTEX
10
8.32891
20
9.99649
30
7.56
0
VERTEX
10
8.32622
20
9.99918
30
7.56
0
VERTEX
10
8.32264
20
9.99918
30
7.56
0
VERTEX
10
8.30919
20
10.0046
30
7.56
0
VERTEX
10
8.3056
20
10.0046
30
7.56
0
VERTEX
10
8.30381
20
10.0064
30
7.56
0
VERTEX
10
8.28947
20
10.0108
30
7.56
0
VERTEX
10
8.28588
20
10.0117
30
7.56
0
VERTEX
10
8.28319
20
10.0144
30
7.56
0
VERTEX
10
8.27602
20
10.0171
30
7.56
0
VERTEX
10
8.27243
20
10.0198
30
7.56
0
VERTEX
10
8.26884
20
10.0198
30
7.56
0
VERTEX
10
8.26167
20
10.0234
30
7.56
0
VERTEX
10
8.25181
20
10.0359
30
7.56
0
VERTEX
10
8.24643
20
10.0422
30
7.56
0
VERTEX
10
8.24464
20
10.0566
30
7.56
0
VERTEX
10
8.24464
20
10.0637
30
7.56
0
VERTEX
10
8.24464
20
10.0673
30
7.56
0
VERTEX
10
8.24464
20
10.0691
30
7.56
0
VERTEX
10
8.24643
20
10.07
30
7.56
0
VERTEX
10
8.24733
20
10.0844
30
7.56
0
VERTEX
10
8.24733
20
10.0879
30
7.56
0
VERTEX
10
8.24464
20
10.0915
30
7.56
0
VERTEX
10
8.23029
20
10.0942
30
7.56
0
VERTEX
10
8.21595
20
10.0942
30
7.56
0
VERTEX
10
8.20878
20
10.0915
30
7.56
0
VERTEX
10
8.2016
20
10.0852
30
7.56
0
VERTEX
10
8.19981
20
10.0826
30
7.56
0
VERTEX
10
8.19622
20
10.0799
30
7.56
0
VERTEX
10
8.19622
20
10.0781
30
7.56
0
VERTEX
10
8.19353
20
10.0745
30
7.56
0
VERTEX
10
8.19085
20
10.0601
30
7.56
0
VERTEX
10
8.19085
20
10.0458
30
7.56
0
VERTEX
10
8.19085
20
10.044
30
7.56
0
SEQEND
0
POLYLINE
62
227
66
1
70
1
3
endoplasmic_reticulum
0
VERTEX
10
8.19622
20
10.1489
30
7.56
0
VERTEX
10
8.20429
20
10.1364
30
7.56
0
VERTEX
10
8.20609
20
10.1328
30
7.56
0
VERTEX
10
8.20967
20
10.1292
30
7.56
0
VERTEX
10
8.21147
20
10.1256
30
7.56
0
VERTEX
10
8.21864
20
10.1202
30
7.56
0
VERTEX
10
8.22581
20
10.1184
30
7.56
0
VERTEX
10
8.2276
20
10.1184
30
7.56
0
VERTEX
10
8.2285
20
10.1166
30
7.56
0
VERTEX
10
8.24284
20
10.1175
30
7.56
0
VERTEX
10
8.25719
20
10.1202
30
7.56
0
VERTEX
10
8.27153
20
10.1283
30
7.56
0
VERTEX
10
8.27512
20
10.1292
30
7.56
0
VERTEX
10
8.2796
20
10.1355
30
7.56
0
VERTEX
10
8.2796
20
10.1498
30
7.56
0
VERTEX
10
8.27602
20
10.1561
30
7.56
0
VERTEX
10
8.27333
20
10.1597
30
7.56
0
VERTEX
10
8.27333
20
10.1632
30
7.56
0
VERTEX
10
8.27333
20
10.165
30
7.56
0
VERTEX
10
8.26974
20
10.1686
30
7.56
0
VERTEX
10
8.2554
20
10.1731
30
7.56
0
VERTEX
10
8.24105
20
10.174
30
7.56
0
VERTEX
10
8.22671
20
10.1776
30
7.56
0
VERTEX
10
8.21236
20
10.174
30
7.56
0
VERTEX
10
8.20878
20
10.1722
30
7.56
0
VERTEX
10
8.20698
20
10.1722
30
7.56
0
VERTEX
10
8.20071
20
10.165
30
7.56
0
VERTEX
10
8.19622
20
10.1579
30
7.56
0
VERTEX
10
8.19622
20
10.1507
30
7.56
0
VERTEX
10
8.19622
20
10.1498
30
7.56
0
SEQEND
0
POLYLINE
62
227
66
1
70
1
3
endoplasmic_reticulum
0
VERTEX
10
7.86809
20
10.1462
30
7.56
0
VERTEX
10
7.87078
20
10.1426
30
7.56
0
VERTEX
10
7.87167
20
10.139
30
7.56
0
VERTEX
10
7.87526
20
10.1364
30
7.56
0
VERTEX
10
7.87974
20
10.1301
30
7.56
0
VERTEX
10
7.88423
20
10.1157
30
7.56
0
VERTEX
10
7.88423
20
10.1121
30
7.56
0
VERTEX
10
7.88692
20
10.1086
30
7.56
0
VERTEX
10
7.8914
20
10.0942
30
7.56
0
VERTEX
10
7.89409
20
10.0799
30
7.56
0
VERTEX
10
7.89409
20
10.0655
30
7.56
0
VERTEX
10
7.89588
20
10.0584
30
7.56
0
VERTEX
10
7.89588
20
10.0548
30
7.56
0
VERTEX
10
7.89588
20
10.053
30
7.56
0
VERTEX
10
7.90036
20
10.0458
30
7.56
0
VERTEX
10
7.90754
20
10.0413
30
7.56
0
VERTEX
10
7.91381
20
10.0386
30
7.56
0
VERTEX
10
7.92816
20
10.0368
30
7.56
0
VERTEX
10
7.9425
20
10.0395
30
7.56
0
VERTEX
10
7.94788
20
10.0449
30
7.56
0
VERTEX
10
7.94967
20
10.0467
30
7.56
0
VERTEX
10
7.94967
20
10.0485
30
7.56
0
VERTEX
10
7.95147
20
10.0494
30
7.56
0
VERTEX
10
7.95147
20
10.053
30
7.56
0
VERTEX
10
7.95595
20
10.0601
30
7.56
0
VERTEX
10
7.95505
20
10.0888
30
7.56
0
VERTEX
10
7.95505
20
10.0906
30
7.56
0
VERTEX
10
7.94519
20
10.105
30
7.56
0
VERTEX
10
7.9443
20
10.1086
30
7.56
0
VERTEX
10
7.94519
20
10.1104
30
7.56
0
VERTEX
10
7.9425
20
10.1139
30
7.56
0
VERTEX
10
7.93892
20
10.1157
30
7.56
0
VERTEX
10
7.93712
20
10.1184
30
7.56
0
VERTEX
10
7.92995
20
10.1247
30
7.56
0
VERTEX
10
7.92636
20
10.1274
30
7.56
0
VERTEX
10
7.91919
20
10.1292
30
7.56
0
VERTEX
10
7.91292
20
10.1346
30
7.56
0
VERTEX
10
7.91471
20
10.1381
30
7.56
0
VERTEX
10
7.91561
20
10.1453
30
7.56
0
VERTEX
10
7.92009
20
10.1525
30
7.56
0
VERTEX
10
7.92098
20
10.1597
30
7.56
0
VERTEX
10
7.92009
20
10.1632
30
7.56
0
VERTEX
10
7.91471
20
10.1704
30
7.56
0
VERTEX
10
7.90843
20
10.1749
30
7.56
0
VERTEX
10
7.89499
20
10.1803
30
7.56
0
VERTEX
10
7.88781
20
10.1821
30
7.56
0
VERTEX
10
7.88423
20
10.183
30
7.56
0
VERTEX
10
7.87885
20
10.1776
30
7.56
0
VERTEX
10
7.87616
20
10.174
30
7.56
0
VERTEX
10
7.87347
20
10.1722
30
7.56
0
VERTEX
10
7.86809
20
10.165
30
7.56
0
VERTEX
10
7.86809
20
10.1507
30
7.56
0
VERTEX
10
7.86809
20
10.1471
30
7.56
0
SEQEND
0
POLYLINE
62
31
66
1
70
1
3
contour
0
VERTEX
10
7.24908
20
8.90183
30
7.56
0
VERTEX
10
7.25359
20
8.86575
30
7.56
0
VERTEX
10
7.25359
20
8.86124
30
7.56
0
VERTEX
10
7.2581
20
8.85899
30
7.56
0
VERTEX
10
7.27163
20
8.78683
30
7.56
0
VERTEX
10
7.27388
20
8.77782
30
7.56
0
VERTEX
10
7.28967
20
8.75978
30
7.56
0
VERTEX
10
7.32574
20
8.75527
30
7.56
0
VERTEX
10
7.36182
20
8.75978
30
7.56
0
VERTEX
10
7.37986
20
8.76654
30
7.56
0
VERTEX
10
7.38888
20
8.77105
30
7.56
0
VERTEX
10
7.39113
20
8.76429
30
7.56
0
VERTEX
10
7.40241
20
8.78232
30
7.56
0
VERTEX
10
7.41593
20
8.79585
30
7.56
0
VERTEX
10
7.4227
20
8.80487
30
7.56
0
VERTEX
10
7.42495
20
8.80938
30
7.56
0
VERTEX
10
7.42946
20
8.80938
30
7.56
0
VERTEX
10
7.44525
20
8.82517
30
7.56
0
VERTEX
10
7.45201
20
8.83193
30
7.56
0
VERTEX
10
7.45652
20
8.83193
30
7.56
0
VERTEX
10
7.46103
20
8.83644
30
7.56
0
VERTEX
10
7.46103
20
8.84095
30
7.56
0
VERTEX
10
7.47005
20
8.84546
30
7.56
0
VERTEX
10
7.47456
20
8.85448
30
7.56
0
VERTEX
10
7.48358
20
8.86124
30
7.56
0
VERTEX
10
7.48809
20
8.87026
30
7.56
0
VERTEX
10
7.49711
20
8.87252
30
7.56
0
VERTEX
10
7.51064
20
8.88604
30
7.56
0
VERTEX
10
7.51965
20
8.90183
30
7.56
0
VERTEX
10
7.52416
20
8.91987
30
7.56
0
VERTEX
10
7.53769
20
8.93339
30
7.56
0
VERTEX
10
7.57377
20
8.95143
30
7.56
0
VERTEX
10
7.57828
20
8.95594
30
7.56
0
VERTEX
10
7.5873
20
8.9582
30
7.56
0
VERTEX
10
7.59181
20
8.9582
30
7.56
0
VERTEX
10
7.60083
20
8.96496
30
7.56
0
VERTEX
10
7.60534
20
8.96722
30
7.56
0
VERTEX
10
7.60759
20
8.97398
30
7.56
0
VERTEX
10
7.62563
20
8.983
30
7.56
0
VERTEX
10
7.63239
20
8.98976
30
7.56
0
VERTEX
10
7.64141
20
8.99202
30
7.56
0
VERTEX
10
7.6572
20
9.00555
30
7.56
0
VERTEX
10
7.67298
20
9.02358
30
7.56
0
VERTEX
10
7.69102
20
9.03711
30
7.56
0
VERTEX
10
7.69778
20
9.04613
30
7.56
0
VERTEX
10
7.70004
20
9.05515
30
7.56
0
VERTEX
10
7.7068
20
9.06192
30
7.56
0
VERTEX
10
7.7068
20
9.06643
30
7.56
0
VERTEX
10
7.72484
20
9.0777
30
7.56
0
VERTEX
10
7.74288
20
9.08221
30
7.56
0
VERTEX
10
7.74739
20
9.08446
30
7.56
0
VERTEX
10
7.74964
20
9.09348
30
7.56
0
VERTEX
10
7.76317
20
9.11152
30
7.56
0
VERTEX
10
7.77895
20
9.12505
30
7.56
0
VERTEX
10
7.78346
20
9.1273
30
7.56
0
VERTEX
10
7.78346
20
9.13181
30
7.56
0
VERTEX
10
7.80601
20
9.16338
30
7.56
0
VERTEX
10
7.81277
20
9.1724
30
7.56
0
VERTEX
10
7.81052
20
9.19044
30
7.56
0
VERTEX
10
7.80375
20
9.20622
30
7.56
0
VERTEX
10
7.79699
20
9.21299
30
7.56
0
VERTEX
10
7.79474
20
9.21975
30
7.56
0
VERTEX
10
7.78797
20
9.21073
30
7.56
0
VERTEX
10
7.77895
20
9.21073
30
7.56
0
VERTEX
10
7.76993
20
9.20622
30
7.56
0
VERTEX
10
7.76542
20
9.20622
30
7.56
0
VERTEX
10
7.76317
20
9.20171
30
7.56
0
VERTEX
10
7.74513
20
9.1972
30
7.56
0
VERTEX
10
7.74062
20
9.1972
30
7.56
0
VERTEX
10
7.73837
20
9.19269
30
7.56
0
VERTEX
10
7.73386
20
9.19269
30
7.56
0
VERTEX
10
7.71807
20
9.17916
30
7.56
0
VERTEX
10
7.70905
20
9.17691
30
7.56
0
VERTEX
10
7.69553
20
9.16338
30
7.56
0
VERTEX
10
7.67749
20
9.15211
30
7.56
0
VERTEX
10
7.6617
20
9.13632
30
7.56
0
VERTEX
10
7.6617
20
9.13181
30
7.56
0
VERTEX
10
7.64592
20
9.11603
30
7.56
0
VERTEX
10
7.6369
20
9.10025
30
7.56
0
VERTEX
10
7.62112
20
9.08897
30
7.56
0
VERTEX
10
7.61435
20
9.07995
30
7.56
0
VERTEX
10
7.60984
20
9.07995
30
7.56
0
VERTEX
10
7.57377
20
9.05064
30
7.56
0
VERTEX
10
7.567
20
9.04839
30
7.56
0
VERTEX
10
7.55122
20
9.0326
30
7.56
0
VERTEX
10
7.5422
20
9.02809
30
7.56
0
VERTEX
10
7.53995
20
9.02358
30
7.56
0
VERTEX
10
7.53544
20
9.02358
30
7.56
0
VERTEX
10
7.52642
20
9.01682
30
7.56
0
VERTEX
10
7.52191
20
9.01682
30
7.56
0
VERTEX
10
7.5174
20
9.01006
30
7.56
0
VERTEX
10
7.49936
20
9.01006
30
7.56
0
VERTEX
10
7.46328
20
9.00329
30
7.56
0
VERTEX
10
7.44525
20
9.00104
30
7.56
0
VERTEX
10
7.44074
20
8.99653
30
7.56
0
VERTEX
10
7.4227
20
8.99653
30
7.56
0
VERTEX
10
7.40466
20
8.99202
30
7.56
0
VERTEX
10
7.33251
20
8.98976
30
7.56
0
VERTEX
10
7.29643
20
8.98525
30
7.56
0
VERTEX
10
7.28967
20
8.97849
30
7.56
0
VERTEX
10
7.28065
20
8.97623
30
7.56
0
VERTEX
10
7.27163
20
8.96947
30
7.56
0
VERTEX
10
7.26712
20
8.96722
30
7.56
0
VERTEX
10
7.26261
20
8.94918
30
7.56
0
VERTEX
10
7.25134
20
8.93114
30
7.56
0
VERTEX
10
7.24908
20
8.9131
30
7.56
0
VERTEX
10
7.24908
20
8.90408
30
7.56
0
SEQEND
0
ENDSEC
0
EOF
