0
SECTION
2
ENTITIES
0
POLYLINE
62
31
66
1
70
1
3
contour
0
VERTEX
10
7.53851
20
10.2116
30
8.8
0
VERTEX
10
7.5418
20
10.1984
30
8.8
0
VERTEX
10
7.54839
20
10.1918
30
8.8
0
VERTEX
10
7.54509
20
10.1852
30
8.8
0
VERTEX
10
7.55826
20
10.1655
30
8.8
0
VERTEX
10
7.57801
20
10.1457
30
8.8
0
VERTEX
10
7.60435
20
10.1293
30
8.8
0
VERTEX
10
7.61752
20
10.126
30
8.8
0
VERTEX
10
7.61752
20
10.1194
30
8.8
0
VERTEX
10
7.64385
20
10.1062
30
8.8
0
VERTEX
10
7.67019
20
10.1029
30
8.8
0
VERTEX
10
7.69652
20
10.093
30
8.8
0
VERTEX
10
7.70311
20
10.093
30
8.8
0
VERTEX
10
7.72286
20
10.0733
30
8.8
0
VERTEX
10
7.72944
20
10.0733
30
8.8
0
VERTEX
10
7.7459
20
10.0634
30
8.8
0
VERTEX
10
7.79857
20
10.0437
30
8.8
0
VERTEX
10
7.84795
20
10.014
30
8.8
0
VERTEX
10
7.87099
20
10.0009
30
8.8
0
VERTEX
10
7.88416
20
9.99758
30
8.8
0
VERTEX
10
7.89075
20
9.99758
30
8.8
0
VERTEX
10
7.89404
20
9.99099
30
8.8
0
VERTEX
10
7.99938
20
9.9877
30
8.8
0
VERTEX
10
8.10472
20
9.99099
30
8.8
0
VERTEX
10
8.15739
20
9.99099
30
8.8
0
VERTEX
10
8.18373
20
9.99429
30
8.8
0
VERTEX
10
8.19689
20
9.99758
30
8.8
0
VERTEX
10
8.19689
20
10.0042
30
8.8
0
VERTEX
10
8.21006
20
10.0107
30
8.8
0
VERTEX
10
8.21006
20
10.0173
30
8.8
0
VERTEX
10
8.23311
20
10.0371
30
8.8
0
VERTEX
10
8.23969
20
10.0371
30
8.8
0
VERTEX
10
8.24957
20
10.0502
30
8.8
0
VERTEX
10
8.28248
20
10.1523
30
8.8
0
VERTEX
10
8.27919
20
10.363
30
8.8
0
VERTEX
10
8.28248
20
10.3893
30
8.8
0
VERTEX
10
8.29894
20
10.4157
30
8.8
0
VERTEX
10
8.3154
20
10.4288
30
8.8
0
VERTEX
10
8.32857
20
10.4288
30
8.8
0
VERTEX
10
8.33186
20
10.4354
30
8.8
0
VERTEX
10
8.33845
20
10.4354
30
8.8
0
VERTEX
10
8.34832
20
10.4486
30
8.8
0
VERTEX
10
8.35162
20
10.4617
30
8.8
0
VERTEX
10
8.36807
20
10.4815
30
8.8
0
VERTEX
10
8.37466
20
10.4848
30
8.8
0
VERTEX
10
8.37137
20
10.5375
30
8.8
0
VERTEX
10
8.36478
20
10.5506
30
8.8
0
VERTEX
10
8.3582
20
10.5572
30
8.8
0
VERTEX
10
8.3582
20
10.5638
30
8.8
0
VERTEX
10
8.34503
20
10.577
30
8.8
0
VERTEX
10
8.34503
20
10.5835
30
8.8
0
VERTEX
10
8.29236
20
10.6296
30
8.8
0
VERTEX
10
8.28578
20
10.6362
30
8.8
0
VERTEX
10
8.25944
20
10.6461
30
8.8
0
VERTEX
10
8.20677
20
10.6527
30
8.8
0
VERTEX
10
8.1541
20
10.6494
30
8.8
0
VERTEX
10
8.14093
20
10.6428
30
8.8
0
VERTEX
10
8.13435
20
10.6428
30
8.8
0
VERTEX
10
8.12776
20
10.6362
30
8.8
0
VERTEX
10
8.07509
20
10.6296
30
8.8
0
VERTEX
10
7.96975
20
10.6329
30
8.8
0
VERTEX
10
7.91708
20
10.6428
30
8.8
0
VERTEX
10
7.89075
20
10.6527
30
8.8
0
VERTEX
10
7.88087
20
10.6625
30
8.8
0
VERTEX
10
7.87099
20
10.6658
30
8.8
0
VERTEX
10
7.85783
20
10.6922
30
8.8
0
VERTEX
10
7.85453
20
10.6955
30
8.8
0
VERTEX
10
7.84137
20
10.6922
30
8.8
0
VERTEX
10
7.83478
20
10.6889
30
8.8
0
VERTEX
10
7.8282
20
10.6922
30
8.8
0
VERTEX
10
7.80186
20
10.6757
30
8.8
0
VERTEX
10
7.78211
20
10.6527
30
8.8
0
VERTEX
10
7.72944
20
10.6329
30
8.8
0
VERTEX
10
7.71627
20
10.6296
30
8.8
0
VERTEX
10
7.70969
20
10.6296
30
8.8
0
VERTEX
10
7.69981
20
10.6198
30
8.8
0
VERTEX
10
7.69323
20
10.6198
30
8.8
0
VERTEX
10
7.67348
20
10.5967
30
8.8
0
VERTEX
10
7.66031
20
10.5901
30
8.8
0
VERTEX
10
7.64385
20
10.5671
30
8.8
0
VERTEX
10
7.63727
20
10.5407
30
8.8
0
VERTEX
10
7.62081
20
10.5177
30
8.8
0
VERTEX
10
7.61752
20
10.5045
30
8.8
0
VERTEX
10
7.60435
20
10.4947
30
8.8
0
VERTEX
10
7.56814
20
10.4453
30
8.8
0
VERTEX
10
7.56155
20
10.4321
30
8.8
0
VERTEX
10
7.56155
20
10.4255
30
8.8
0
VERTEX
10
7.55168
20
10.4124
30
8.8
0
VERTEX
10
7.5418
20
10.307
30
8.8
0
VERTEX
10
7.5418
20
10.2543
30
8.8
0
VERTEX
10
7.53851
20
10.228
30
8.8
0
VERTEX
10
7.53851
20
10.2148
30
8.8
0
SEQEND
0
POLYLINE
62
31
66
1
70
1
3
contour
0
VERTEX
10
7.28655
20
9.66193
30
8.8
0
VERTEX
10
7.29509
20
9.64999
30
8.8
0
VERTEX
10
7.31727
20
9.62951
30
8.8
0
VERTEX
10
7.34287
20
9.61245
30
8.8
0
VERTEX
10
7.37017
20
9.59026
30
8.8
0
VERTEX
10
7.39747
20
9.57832
30
8.8
0
VERTEX
10
7.41112
20
9.5732
30
8.8
0
VERTEX
10
7.43843
20
9.5732
30
8.8
0
VERTEX
10
7.45208
20
9.5732
30
8.8
0
VERTEX
10
7.4589
20
9.57491
30
8.8
0
VERTEX
10
7.46232
20
9.57491
30
8.8
0
VERTEX
10
7.48791
20
9.59709
30
8.8
0
VERTEX
10
7.49986
20
9.60733
30
8.8
0
VERTEX
10
7.50669
20
9.61074
30
8.8
0
VERTEX
10
7.51351
20
9.61757
30
8.8
0
VERTEX
10
7.51692
20
9.62439
30
8.8
0
VERTEX
10
7.52034
20
9.6261
30
8.8
0
VERTEX
10
7.52204
20
9.63293
30
8.8
0
VERTEX
10
7.52716
20
9.63804
30
8.8
0
VERTEX
10
7.52546
20
9.66535
30
8.8
0
VERTEX
10
7.52546
20
9.679
30
8.8
0
VERTEX
10
7.52204
20
9.68583
30
8.8
0
VERTEX
10
7.52034
20
9.69948
30
8.8
0
VERTEX
10
7.50157
20
9.72678
30
8.8
0
VERTEX
10
7.48962
20
9.73873
30
8.8
0
VERTEX
10
7.4845
20
9.74555
30
8.8
0
VERTEX
10
7.48109
20
9.74555
30
8.8
0
VERTEX
10
7.47426
20
9.75067
30
8.8
0
VERTEX
10
7.44696
20
9.75238
30
8.8
0
VERTEX
10
7.43331
20
9.75238
30
8.8
0
VERTEX
10
7.42648
20
9.75238
30
8.8
0
VERTEX
10
7.41283
20
9.74726
30
8.8
0
VERTEX
10
7.35822
20
9.74043
30
8.8
0
VERTEX
10
7.34457
20
9.73873
30
8.8
0
VERTEX
10
7.31727
20
9.72337
30
8.8
0
VERTEX
10
7.31044
20
9.71995
30
8.8
0
VERTEX
10
7.30703
20
9.71995
30
8.8
0
VERTEX
10
7.30362
20
9.71313
30
8.8
0
VERTEX
10
7.29679
20
9.7063
30
8.8
0
VERTEX
10
7.28997
20
9.679
30
8.8
0
VERTEX
10
7.28655
20
9.67217
30
8.8
0
VERTEX
10
7.28655
20
9.66535
30
8.8
0
VERTEX
10
7.28655
20
9.66364
30
8.8
0
SEQEND
0
POLYLINE
62
224
66
1
70
1
3
mitochondrion
0
VERTEX
10
7.7155
20
10.2864
30
8.8
0
VERTEX
10
7.71828
20
10.2836
30
8.8
0
VERTEX
10
7.71967
20
10.2725
30
8.8
0
VERTEX
10
7.72801
20
10.2502
30
8.8
0
VERTEX
10
7.7294
20
10.2447
30
8.8
0
VERTEX
10
7.73218
20
10.2419
30
8.8
0
VERTEX
10
7.73218
20
10.2391
30
8.8
0
VERTEX
10
7.73496
20
10.2363
30
8.8
0
VERTEX
10
7.73496
20
10.2308
30
8.8
0
VERTEX
10
7.73774
20
10.2252
30
8.8
0
VERTEX
10
7.75582
20
10.2071
30
8.8
0
VERTEX
10
7.75999
20
10.2016
30
8.8
0
VERTEX
10
7.76277
20
10.1988
30
8.8
0
VERTEX
10
7.77389
20
10.196
30
8.8
0
VERTEX
10
7.77946
20
10.1932
30
8.8
0
VERTEX
10
7.78224
20
10.1905
30
8.8
0
VERTEX
10
7.7878
20
10.1905
30
8.8
0
VERTEX
10
7.79336
20
10.1877
30
8.8
0
VERTEX
10
7.80448
20
10.1863
30
8.8
0
VERTEX
10
7.81004
20
10.1863
30
8.8
0
VERTEX
10
7.81283
20
10.1835
30
8.8
0
VERTEX
10
7.81839
20
10.1835
30
8.8
0
VERTEX
10
7.82395
20
10.1807
30
8.8
0
VERTEX
10
7.82951
20
10.1807
30
8.8
0
VERTEX
10
7.83229
20
10.1779
30
8.8
0
VERTEX
10
7.84342
20
10.1752
30
8.8
0
VERTEX
10
7.88791
20
10.1766
30
8.8
0
VERTEX
10
7.89347
20
10.1766
30
8.8
0
VERTEX
10
7.90459
20
10.1821
30
8.8
0
VERTEX
10
7.91016
20
10.1835
30
8.8
0
VERTEX
10
7.91572
20
10.1877
30
8.8
0
VERTEX
10
7.92128
20
10.1891
30
8.8
0
VERTEX
10
7.92684
20
10.1932
30
8.8
0
VERTEX
10
7.9324
20
10.1946
30
8.8
0
VERTEX
10
7.95048
20
10.2127
30
8.8
0
VERTEX
10
7.95743
20
10.2197
30
8.8
0
VERTEX
10
7.95882
20
10.2252
30
8.8
0
VERTEX
10
7.96299
20
10.2294
30
8.8
0
VERTEX
10
7.96716
20
10.2405
30
8.8
0
VERTEX
10
7.96994
20
10.2447
30
8.8
0
VERTEX
10
7.97273
20
10.2461
30
8.8
0
VERTEX
10
7.97412
20
10.2572
30
8.8
0
VERTEX
10
7.97829
20
10.2683
30
8.8
0
VERTEX
10
7.97829
20
10.2739
30
8.8
0
VERTEX
10
7.98524
20
10.285
30
8.8
0
VERTEX
10
7.98663
20
10.2961
30
8.8
0
VERTEX
10
7.98802
20
10.3017
30
8.8
0
VERTEX
10
7.9908
20
10.3045
30
8.8
0
VERTEX
10
7.9908
20
10.3267
30
8.8
0
VERTEX
10
7.99358
20
10.3378
30
8.8
0
VERTEX
10
7.99219
20
10.3601
30
8.8
0
VERTEX
10
7.99219
20
10.3712
30
8.8
0
VERTEX
10
7.98385
20
10.3935
30
8.8
0
VERTEX
10
7.98246
20
10.4046
30
8.8
0
VERTEX
10
7.96716
20
10.4463
30
8.8
0
VERTEX
10
7.9616
20
10.4574
30
8.8
0
VERTEX
10
7.9616
20
10.4602
30
8.8
0
VERTEX
10
7.94075
20
10.4797
30
8.8
0
VERTEX
10
7.92962
20
10.488
30
8.8
0
VERTEX
10
7.92406
20
10.4894
30
8.8
0
VERTEX
10
7.90181
20
10.5061
30
8.8
0
VERTEX
10
7.87957
20
10.5103
30
8.8
0
VERTEX
10
7.85732
20
10.5117
30
8.8
0
VERTEX
10
7.83507
20
10.5103
30
8.8
0
VERTEX
10
7.82951
20
10.5103
30
8.8
0
VERTEX
10
7.82395
20
10.5075
30
8.8
0
VERTEX
10
7.81839
20
10.5075
30
8.8
0
VERTEX
10
7.81283
20
10.5047
30
8.8
0
VERTEX
10
7.81004
20
10.5047
30
8.8
0
VERTEX
10
7.79892
20
10.495
30
8.8
0
VERTEX
10
7.79614
20
10.495
30
8.8
0
VERTEX
10
7.78641
20
10.4852
30
8.8
0
VERTEX
10
7.78085
20
10.4811
30
8.8
0
VERTEX
10
7.77806
20
10.4811
30
8.8
0
VERTEX
10
7.77389
20
10.4755
30
8.8
0
VERTEX
10
7.76416
20
10.4685
30
8.8
0
VERTEX
10
7.75999
20
10.4644
30
8.8
0
VERTEX
10
7.7586
20
10.4588
30
8.8
0
VERTEX
10
7.75443
20
10.4533
30
8.8
0
VERTEX
10
7.75304
20
10.4505
30
8.8
0
VERTEX
10
7.75026
20
10.4505
30
8.8
0
VERTEX
10
7.74609
20
10.4393
30
8.8
0
VERTEX
10
7.73774
20
10.4296
30
8.8
0
VERTEX
10
7.73218
20
10.4241
30
8.8
0
VERTEX
10
7.71689
20
10.3796
30
8.8
0
VERTEX
10
7.7155
20
10.2906
30
8.8
0
VERTEX
10
7.7155
20
10.2878
30
8.8
0
SEQEND
0
POLYLINE
62
236
66
1
70
1
3
postsynaptic_density
0
VERTEX
10
7.28763
20
9.62042
30
8.8
0
VERTEX
10
7.29136
20
9.61669
30
8.8
0
VERTEX
10
7.29136
20
9.61295
30
8.8
0
VERTEX
10
7.29509
20
9.60922
30
8.8
0
VERTEX
10
7.32495
20
9.60549
30
8.8
0
VERTEX
10
7.32869
20
9.60922
30
8.8
0
VERTEX
10
7.33055
20
9.61669
30
8.8
0
VERTEX
10
7.33988
20
9.62042
30
8.8
0
VERTEX
10
7.33988
20
9.63535
30
8.8
0
VERTEX
10
7.33615
20
9.63908
30
8.8
0
VERTEX
10
7.33429
20
9.64655
30
8.8
0
VERTEX
10
7.32682
20
9.65214
30
8.8
0
VERTEX
10
7.31189
20
9.65588
30
8.8
0
VERTEX
10
7.30443
20
9.65588
30
8.8
0
VERTEX
10
7.30069
20
9.65401
30
8.8
0
VERTEX
10
7.29883
20
9.64655
30
8.8
0
VERTEX
10
7.29136
20
9.64095
30
8.8
0
VERTEX
10
7.28763
20
9.63348
30
8.8
0
VERTEX
10
7.28763
20
9.62602
30
8.8
0
VERTEX
10
7.28763
20
9.62228
30
8.8
0
SEQEND
0
POLYLINE
62
236
66
1
70
1
3
postsynaptic_density
0
VERTEX
10
7.34922
20
9.58869
30
8.8
0
VERTEX
10
7.36228
20
9.57563
30
8.8
0
VERTEX
10
7.37721
20
9.56816
30
8.8
0
VERTEX
10
7.38467
20
9.57003
30
8.8
0
VERTEX
10
7.38654
20
9.57376
30
8.8
0
VERTEX
10
7.39027
20
9.57376
30
8.8
0
VERTEX
10
7.39587
20
9.58123
30
8.8
0
VERTEX
10
7.394
20
9.59616
30
8.8
0
VERTEX
10
7.38841
20
9.61109
30
8.8
0
VERTEX
10
7.37908
20
9.62415
30
8.8
0
VERTEX
10
7.37161
20
9.62975
30
8.8
0
VERTEX
10
7.36415
20
9.63162
30
8.8
0
VERTEX
10
7.35668
20
9.62788
30
8.8
0
VERTEX
10
7.35108
20
9.62042
30
8.8
0
VERTEX
10
7.34922
20
9.59056
30
8.8
0
SEQEND
0
POLYLINE
62
227
66
1
70
1
3
endoplasmic_reticulum
0
VERTEX
10
7.55788
20
10.2601
30
8.8
0
VERTEX
10
7.55878
20
10.2529
30
8.8
0
VERTEX
10
7.56147
20
10.2457
30
8.8
0
VERTEX
10
7.56237
20
10.2439
30
8.8
0
VERTEX
10
7.56595
20
10.243
30
8.8
0
VERTEX
10
7.57761
20
10.2323
30
8.8
0
VERTEX
10
7.58209
20
10.226
30
8.8
0
VERTEX
10
7.58388
20
10.2251
30
8.8
0
VERTEX
10
7.58388
20
10.2233
30
8.8
0
VERTEX
10
7.58568
20
10.2215
30
8.8
0
VERTEX
10
7.58747
20
10.2215
30
8.8
0
VERTEX
10
7.59464
20
10.2072
30
8.8
0
VERTEX
10
7.60002
20
10.2027
30
8.8
0
VERTEX
10
7.6054
20
10.1964
30
8.8
0
VERTEX
10
7.60719
20
10.1937
30
8.8
0
VERTEX
10
7.61078
20
10.1919
30
8.8
0
VERTEX
10
7.61706
20
10.1857
30
8.8
0
VERTEX
10
7.62333
20
10.1821
30
8.8
0
VERTEX
10
7.6305
20
10.1758
30
8.8
0
VERTEX
10
7.63768
20
10.1731
30
8.8
0
VERTEX
10
7.64485
20
10.1686
30
8.8
0
VERTEX
10
7.64664
20
10.1686
30
8.8
0
VERTEX
10
7.64933
20
10.1659
30
8.8
0
VERTEX
10
7.65292
20
10.1659
30
8.8
0
VERTEX
10
7.65919
20
10.1615
30
8.8
0
VERTEX
10
7.66099
20
10.1597
30
8.8
0
VERTEX
10
7.66278
20
10.1597
30
8.8
0
VERTEX
10
7.66457
20
10.1579
30
8.8
0
VERTEX
10
7.66816
20
10.1579
30
8.8
0
VERTEX
10
7.66995
20
10.1579
30
8.8
0
VERTEX
10
7.67085
20
10.1561
30
8.8
0
VERTEX
10
7.67264
20
10.1561
30
8.8
0
VERTEX
10
7.67443
20
10.1543
30
8.8
0
VERTEX
10
7.67623
20
10.1543
30
8.8
0
VERTEX
10
7.6834
20
10.1489
30
8.8
0
VERTEX
10
7.69057
20
10.1462
30
8.8
0
VERTEX
10
7.70492
20
10.1471
30
8.8
0
VERTEX
10
7.71209
20
10.148
30
8.8
0
VERTEX
10
7.71478
20
10.1516
30
8.8
0
VERTEX
10
7.71747
20
10.1534
30
8.8
0
VERTEX
10
7.71837
20
10.1606
30
8.8
0
VERTEX
10
7.71837
20
10.1641
30
8.8
0
VERTEX
10
7.71657
20
10.1677
30
8.8
0
VERTEX
10
7.71657
20
10.1713
30
8.8
0
VERTEX
10
7.71388
20
10.1785
30
8.8
0
VERTEX
10
7.71209
20
10.1821
30
8.8
0
VERTEX
10
7.7103
20
10.1839
30
8.8
0
VERTEX
10
7.70671
20
10.1839
30
8.8
0
VERTEX
10
7.70312
20
10.1866
30
8.8
0
VERTEX
10
7.69595
20
10.1892
30
8.8
0
VERTEX
10
7.69237
20
10.1901
30
8.8
0
VERTEX
10
7.68878
20
10.1928
30
8.8
0
VERTEX
10
7.68699
20
10.1928
30
8.8
0
VERTEX
10
7.67264
20
10.2036
30
8.8
0
VERTEX
10
7.66637
20
10.2081
30
8.8
0
VERTEX
10
7.66009
20
10.2143
30
8.8
0
VERTEX
10
7.65919
20
10.2179
30
8.8
0
VERTEX
10
7.6565
20
10.2215
30
8.8
0
VERTEX
10
7.65471
20
10.2287
30
8.8
0
VERTEX
10
7.65202
20
10.2314
30
8.8
0
VERTEX
10
7.65023
20
10.2386
30
8.8
0
VERTEX
10
7.64664
20
10.2421
30
8.8
0
VERTEX
10
7.64306
20
10.243
30
8.8
0
VERTEX
10
7.64126
20
10.243
30
8.8
0
VERTEX
10
7.63768
20
10.2457
30
8.8
0
VERTEX
10
7.62333
20
10.2466
30
8.8
0
VERTEX
10
7.61616
20
10.2457
30
8.8
0
VERTEX
10
7.60899
20
10.2466
30
8.8
0
VERTEX
10
7.60719
20
10.2466
30
8.8
0
VERTEX
10
7.6063
20
10.261
30
8.8
0
VERTEX
10
7.60809
20
10.2681
30
8.8
0
VERTEX
10
7.6063
20
10.2968
30
8.8
0
VERTEX
10
7.60809
20
10.3112
30
8.8
0
VERTEX
10
7.60988
20
10.3148
30
8.8
0
VERTEX
10
7.61347
20
10.3183
30
8.8
0
VERTEX
10
7.62781
20
10.3183
30
8.8
0
VERTEX
10
7.63499
20
10.3148
30
8.8
0
VERTEX
10
7.64933
20
10.3157
30
8.8
0
VERTEX
10
7.65112
20
10.3157
30
8.8
0
VERTEX
10
7.65471
20
10.3183
30
8.8
0
VERTEX
10
7.6565
20
10.3183
30
8.8
0
VERTEX
10
7.66009
20
10.3219
30
8.8
0
VERTEX
10
7.66368
20
10.3291
30
8.8
0
VERTEX
10
7.66457
20
10.3363
30
8.8
0
VERTEX
10
7.66278
20
10.3399
30
8.8
0
VERTEX
10
7.64843
20
10.3515
30
8.8
0
VERTEX
10
7.64485
20
10.3533
30
8.8
0
VERTEX
10
7.6305
20
10.3542
30
8.8
0
VERTEX
10
7.60988
20
10.3811
30
8.8
0
VERTEX
10
7.61078
20
10.3829
30
8.8
0
VERTEX
10
7.60899
20
10.3865
30
8.8
0
VERTEX
10
7.6054
20
10.3901
30
8.8
0
VERTEX
10
7.59823
20
10.3892
30
8.8
0
VERTEX
10
7.59106
20
10.3856
30
8.8
0
VERTEX
10
7.58926
20
10.3856
30
8.8
0
VERTEX
10
7.58478
20
10.3784
30
8.8
0
VERTEX
10
7.58388
20
10.3748
30
8.8
0
VERTEX
10
7.58209
20
10.3739
30
8.8
0
VERTEX
10
7.58209
20
10.3703
30
8.8
0
VERTEX
10
7.58209
20
10.3686
30
8.8
0
VERTEX
10
7.5803
20
10.3668
30
8.8
0
VERTEX
10
7.58119
20
10.3596
30
8.8
0
VERTEX
10
7.5785
20
10.3309
30
8.8
0
VERTEX
10
7.57581
20
10.3166
30
8.8
0
VERTEX
10
7.57312
20
10.3094
30
8.8
0
VERTEX
10
7.56864
20
10.3022
30
8.8
0
VERTEX
10
7.56595
20
10.2986
30
8.8
0
VERTEX
10
7.56326
20
10.2915
30
8.8
0
VERTEX
10
7.55878
20
10.2852
30
8.8
0
VERTEX
10
7.55788
20
10.2708
30
8.8
0
VERTEX
10
7.55788
20
10.2637
30
8.8
0
VERTEX
10
7.55788
20
10.261
30
8.8
0
SEQEND
0
POLYLINE
62
227
66
1
70
1
3
endoplasmic_reticulum
0
VERTEX
10
7.61885
20
10.4654
30
8.8
0
VERTEX
10
7.62333
20
10.46
30
8.8
0
VERTEX
10
7.6305
20
10.4537
30
8.8
0
VERTEX
10
7.63678
20
10.4501
30
8.8
0
VERTEX
10
7.64037
20
10.4483
30
8.8
0
VERTEX
10
7.65471
20
10.4475
30
8.8
0
VERTEX
10
7.66188
20
10.4475
30
8.8
0
VERTEX
10
7.66547
20
10.4483
30
8.8
0
VERTEX
10
7.67981
20
10.4582
30
8.8
0
VERTEX
10
7.68609
20
10.4654
30
8.8
0
VERTEX
10
7.68788
20
10.4672
30
8.8
0
VERTEX
10
7.68788
20
10.469
30
8.8
0
VERTEX
10
7.69147
20
10.4717
30
8.8
0
VERTEX
10
7.69416
20
10.4788
30
8.8
0
VERTEX
10
7.69326
20
10.4932
30
8.8
0
VERTEX
10
7.69057
20
10.4968
30
8.8
0
VERTEX
10
7.6834
20
10.5012
30
8.8
0
VERTEX
10
7.6825
20
10.503
30
8.8
0
VERTEX
10
7.66816
20
10.503
30
8.8
0
VERTEX
10
7.66099
20
10.5021
30
8.8
0
VERTEX
10
7.65381
20
10.4995
30
8.8
0
VERTEX
10
7.65202
20
10.4977
30
8.8
0
VERTEX
10
7.64843
20
10.4977
30
8.8
0
VERTEX
10
7.64126
20
10.4914
30
8.8
0
VERTEX
10
7.63768
20
10.4887
30
8.8
0
VERTEX
10
7.63588
20
10.4851
30
8.8
0
VERTEX
10
7.63588
20
10.4833
30
8.8
0
VERTEX
10
7.6314
20
10.4761
30
8.8
0
VERTEX
10
7.62423
20
10.477
30
8.8
0
VERTEX
10
7.62064
20
10.477
30
8.8
0
VERTEX
10
7.61885
20
10.4761
30
8.8
0
VERTEX
10
7.61885
20
10.469
30
8.8
0
VERTEX
10
7.61885
20
10.4663
30
8.8
0
SEQEND
0
POLYLINE
62
227
66
1
70
1
3
endoplasmic_reticulum
0
VERTEX
10
8.06533
20
10.1857
30
8.8
0
VERTEX
10
8.0716
20
10.1794
30
8.8
0
VERTEX
10
8.0734
20
10.1776
30
8.8
0
VERTEX
10
8.08774
20
10.1767
30
8.8
0
VERTEX
10
8.09133
20
10.1776
30
8.8
0
VERTEX
10
8.09491
20
10.1848
30
8.8
0
VERTEX
10
8.09671
20
10.1883
30
8.8
0
VERTEX
10
8.0985
20
10.1901
30
8.8
0
VERTEX
10
8.10029
20
10.2188
30
8.8
0
VERTEX
10
8.10029
20
10.2224
30
8.8
0
VERTEX
10
8.10209
20
10.226
30
8.8
0
VERTEX
10
8.10298
20
10.2332
30
8.8
0
VERTEX
10
8.10567
20
10.2359
30
8.8
0
VERTEX
10
8.10657
20
10.243
30
8.8
0
VERTEX
10
8.11016
20
10.2502
30
8.8
0
VERTEX
10
8.11016
20
10.2574
30
8.8
0
VERTEX
10
8.11285
20
10.2717
30
8.8
0
VERTEX
10
8.11823
20
10.2771
30
8.8
0
VERTEX
10
8.12719
20
10.2906
30
8.8
0
VERTEX
10
8.12988
20
10.2941
30
8.8
0
VERTEX
10
8.13436
20
10.3085
30
8.8
0
VERTEX
10
8.13705
20
10.3157
30
8.8
0
VERTEX
10
8.13974
20
10.3192
30
8.8
0
VERTEX
10
8.14064
20
10.3479
30
8.8
0
VERTEX
10
8.14154
20
10.3515
30
8.8
0
VERTEX
10
8.14422
20
10.3551
30
8.8
0
VERTEX
10
8.14691
20
10.3623
30
8.8
0
VERTEX
10
8.1514
20
10.3695
30
8.8
0
VERTEX
10
8.15319
20
10.3721
30
8.8
0
VERTEX
10
8.15678
20
10.3748
30
8.8
0
VERTEX
10
8.15767
20
10.3892
30
8.8
0
VERTEX
10
8.15229
20
10.3963
30
8.8
0
VERTEX
10
8.14602
20
10.4017
30
8.8
0
VERTEX
10
8.14243
20
10.4053
30
8.8
0
VERTEX
10
8.13885
20
10.4071
30
8.8
0
VERTEX
10
8.1245
20
10.4062
30
8.8
0
VERTEX
10
8.11733
20
10.4062
30
8.8
0
VERTEX
10
8.11374
20
10.4053
30
8.8
0
VERTEX
10
8.10747
20
10.3999
30
8.8
0
VERTEX
10
8.10209
20
10.3856
30
8.8
0
VERTEX
10
8.0994
20
10.3712
30
8.8
0
VERTEX
10
8.0976
20
10.3426
30
8.8
0
VERTEX
10
8.09671
20
10.3282
30
8.8
0
VERTEX
10
8.09402
20
10.3139
30
8.8
0
VERTEX
10
8.09312
20
10.2995
30
8.8
0
VERTEX
10
8.09312
20
10.2977
30
8.8
0
VERTEX
10
8.09043
20
10.295
30
8.8
0
VERTEX
10
8.08864
20
10.2879
30
8.8
0
VERTEX
10
8.08236
20
10.2744
30
8.8
0
VERTEX
10
8.08147
20
10.2601
30
8.8
0
VERTEX
10
8.07788
20
10.2457
30
8.8
0
VERTEX
10
8.07788
20
10.2421
30
8.8
0
VERTEX
10
8.07429
20
10.2386
30
8.8
0
VERTEX
10
8.06981
20
10.2242
30
8.8
0
VERTEX
10
8.06981
20
10.2206
30
8.8
0
VERTEX
10
8.06623
20
10.2135
30
8.8
0
VERTEX
10
8.06533
20
10.1991
30
8.8
0
VERTEX
10
8.06533
20
10.1919
30
8.8
0
VERTEX
10
8.06533
20
10.1883
30
8.8
0
VERTEX
10
8.06533
20
10.1866
30
8.8
0
SEQEND
0
POLYLINE
62
227
66
1
70
1
3
endoplasmic_reticulum
0
VERTEX
10
8.01064
20
10.2143
30
8.8
0
VERTEX
10
8.01333
20
10.2
30
8.8
0
VERTEX
10
8.01423
20
10.1964
30
8.8
0
VERTEX
10
8.01602
20
10.1946
30
8.8
0
VERTEX
10
8.01602
20
10.1928
30
8.8
0
VERTEX
10
8.03036
20
10.1919
30
8.8
0
VERTEX
10
8.03395
20
10.1919
30
8.8
0
VERTEX
10
8.04023
20
10.1964
30
8.8
0
VERTEX
10
8.04292
20
10.2251
30
8.8
0
VERTEX
10
8.0474
20
10.2395
30
8.8
0
VERTEX
10
8.04829
20
10.243
30
8.8
0
VERTEX
10
8.04919
20
10.2448
30
8.8
0
VERTEX
10
8.05278
20
10.2457
30
8.8
0
VERTEX
10
8.05278
20
10.2529
30
8.8
0
VERTEX
10
8.05905
20
10.2816
30
8.8
0
VERTEX
10
8.05995
20
10.2888
30
8.8
0
VERTEX
10
8.05995
20
10.2923
30
8.8
0
VERTEX
10
8.06174
20
10.2959
30
8.8
0
VERTEX
10
8.06174
20
10.3031
30
8.8
0
VERTEX
10
8.06623
20
10.3318
30
8.8
0
VERTEX
10
8.06802
20
10.3354
30
8.8
0
VERTEX
10
8.06802
20
10.3426
30
8.8
0
VERTEX
10
8.07071
20
10.3497
30
8.8
0
VERTEX
10
8.0716
20
10.3641
30
8.8
0
VERTEX
10
8.06891
20
10.3784
30
8.8
0
VERTEX
10
8.06712
20
10.3856
30
8.8
0
VERTEX
10
8.06533
20
10.3865
30
8.8
0
VERTEX
10
8.06443
20
10.3937
30
8.8
0
VERTEX
10
8.06354
20
10.3946
30
8.8
0
VERTEX
10
8.03754
20
10.3668
30
8.8
0
VERTEX
10
8.03305
20
10.3596
30
8.8
0
VERTEX
10
8.03036
20
10.3569
30
8.8
0
VERTEX
10
8.02857
20
10.3426
30
8.8
0
VERTEX
10
8.02857
20
10.3139
30
8.8
0
VERTEX
10
8.02767
20
10.2995
30
8.8
0
VERTEX
10
8.02767
20
10.2977
30
8.8
0
VERTEX
10
8.02588
20
10.2968
30
8.8
0
VERTEX
10
8.02588
20
10.2825
30
8.8
0
VERTEX
10
8.02409
20
10.2681
30
8.8
0
VERTEX
10
8.0205
20
10.2538
30
8.8
0
VERTEX
10
8.0205
20
10.2502
30
8.8
0
VERTEX
10
8.0205
20
10.2484
30
8.8
0
VERTEX
10
8.01871
20
10.2466
30
8.8
0
VERTEX
10
8.01781
20
10.2395
30
8.8
0
VERTEX
10
8.01781
20
10.2377
30
8.8
0
VERTEX
10
8.01333
20
10.2314
30
8.8
0
VERTEX
10
8.01333
20
10.2296
30
8.8
0
VERTEX
10
8.01154
20
10.2278
30
8.8
0
VERTEX
10
8.01064
20
10.2206
30
8.8
0
VERTEX
10
8.01064
20
10.217
30
8.8
0
VERTEX
10
8.01064
20
10.2152
30
8.8
0
SEQEND
0
POLYLINE
62
227
66
1
70
1
3
endoplasmic_reticulum
0
VERTEX
10
7.74795
20
10.1193
30
8.8
0
VERTEX
10
7.74885
20
10.1184
30
8.8
0
VERTEX
10
7.75154
20
10.122
30
8.8
0
VERTEX
10
7.75243
20
10.1229
30
8.8
0
VERTEX
10
7.75692
20
10.1157
30
8.8
0
VERTEX
10
7.75871
20
10.113
30
8.8
0
VERTEX
10
7.76588
20
10.1086
30
8.8
0
VERTEX
10
7.76947
20
10.1059
30
8.8
0
VERTEX
10
7.78381
20
10.1014
30
8.8
0
VERTEX
10
7.79816
20
10.0996
30
8.8
0
VERTEX
10
7.80533
20
10.1005
30
8.8
0
VERTEX
10
7.81968
20
10.0978
30
8.8
0
VERTEX
10
7.82685
20
10.0978
30
8.8
0
VERTEX
10
7.83402
20
10.096
30
8.8
0
VERTEX
10
7.84119
20
10.096
30
8.8
0
VERTEX
10
7.84299
20
10.0942
30
8.8
0
VERTEX
10
7.87167
20
10.0915
30
8.8
0
VERTEX
10
7.87526
20
10.0906
30
8.8
0
VERTEX
10
7.87705
20
10.0906
30
8.8
0
VERTEX
10
7.87885
20
10.0888
30
8.8
0
VERTEX
10
7.90664
20
10.0844
30
8.8
0
VERTEX
10
7.96402
20
10.0835
30
8.8
0
VERTEX
10
7.96761
20
10.0844
30
8.8
0
VERTEX
10
7.97388
20
10.0906
30
8.8
0
VERTEX
10
7.97657
20
10.0933
30
8.8
0
VERTEX
10
7.97657
20
10.0951
30
8.8
0
VERTEX
10
7.98374
20
10.0996
30
8.8
0
VERTEX
10
7.98554
20
10.0996
30
8.8
0
VERTEX
10
7.98733
20
10.1014
30
8.8
0
VERTEX
10
8.00078
20
10.1005
30
8.8
0
VERTEX
10
8.00795
20
10.0996
30
8.8
0
VERTEX
10
8.01154
20
10.0978
30
8.8
0
VERTEX
10
8.01333
20
10.0978
30
8.8
0
VERTEX
10
8.01692
20
10.0951
30
8.8
0
VERTEX
10
8.0205
20
10.0942
30
8.8
0
VERTEX
10
8.02767
20
10.0897
30
8.8
0
VERTEX
10
8.03485
20
10.087
30
8.8
0
VERTEX
10
8.03843
20
10.0852
30
8.8
0
VERTEX
10
8.0456
20
10.0844
30
8.8
0
VERTEX
10
8.05278
20
10.0817
30
8.8
0
VERTEX
10
8.06712
20
10.0817
30
8.8
0
VERTEX
10
8.07071
20
10.0817
30
8.8
0
VERTEX
10
8.07429
20
10.0835
30
8.8
0
VERTEX
10
8.07609
20
10.0852
30
8.8
0
VERTEX
10
8.07967
20
10.0861
30
8.8
0
VERTEX
10
8.08147
20
10.0861
30
8.8
0
VERTEX
10
8.08505
20
10.0888
30
8.8
0
VERTEX
10
8.08685
20
10.0906
30
8.8
0
VERTEX
10
8.08954
20
10.0978
30
8.8
0
VERTEX
10
8.09581
20
10.1032
30
8.8
0
VERTEX
10
8.10298
20
10.1059
30
8.8
0
VERTEX
10
8.10747
20
10.1121
30
8.8
0
VERTEX
10
8.11016
20
10.1148
30
8.8
0
VERTEX
10
8.10836
20
10.1292
30
8.8
0
VERTEX
10
8.10747
20
10.1364
30
8.8
0
VERTEX
10
8.10298
20
10.1507
30
8.8
0
VERTEX
10
8.0994
20
10.157
30
8.8
0
VERTEX
10
8.09581
20
10.1579
30
8.8
0
VERTEX
10
8.09223
20
10.1606
30
8.8
0
VERTEX
10
8.07788
20
10.1606
30
8.8
0
VERTEX
10
8.07071
20
10.1597
30
8.8
0
VERTEX
10
8.06443
20
10.1552
30
8.8
0
VERTEX
10
8.05726
20
10.1552
30
8.8
0
VERTEX
10
8.05367
20
10.1552
30
8.8
0
VERTEX
10
8.0465
20
10.1525
30
8.8
0
VERTEX
10
8.04471
20
10.1525
30
8.8
0
VERTEX
10
8.03754
20
10.1471
30
8.8
0
VERTEX
10
8.03485
20
10.1444
30
8.8
0
VERTEX
10
8.03305
20
10.1444
30
8.8
0
VERTEX
10
8.03036
20
10.1417
30
8.8
0
VERTEX
10
8.01602
20
10.1417
30
8.8
0
VERTEX
10
8.00885
20
10.1426
30
8.8
0
VERTEX
10
8.00526
20
10.1435
30
8.8
0
VERTEX
10
8.00347
20
10.1453
30
8.8
0
VERTEX
10
7.98912
20
10.1507
30
8.8
0
VERTEX
10
7.97478
20
10.1543
30
8.8
0
VERTEX
10
7.94609
20
10.1543
30
8.8
0
VERTEX
10
7.93174
20
10.1516
30
8.8
0
VERTEX
10
7.92816
20
10.1498
30
8.8
0
VERTEX
10
7.92098
20
10.1489
30
8.8
0
VERTEX
10
7.9174
20
10.1489
30
8.8
0
VERTEX
10
7.91561
20
10.1471
30
8.8
0
VERTEX
10
7.88692
20
10.139
30
8.8
0
VERTEX
10
7.87974
20
10.1372
30
8.8
0
VERTEX
10
7.87616
20
10.1372
30
8.8
0
VERTEX
10
7.87526
20
10.1355
30
8.8
0
VERTEX
10
7.86092
20
10.1346
30
8.8
0
VERTEX
10
7.83223
20
10.1381
30
8.8
0
VERTEX
10
7.81788
20
10.1408
30
8.8
0
VERTEX
10
7.8143
20
10.1417
30
8.8
0
VERTEX
10
7.8125
20
10.1417
30
8.8
0
VERTEX
10
7.80623
20
10.1471
30
8.8
0
VERTEX
10
7.79188
20
10.1498
30
8.8
0
VERTEX
10
7.7883
20
10.1525
30
8.8
0
VERTEX
10
7.77395
20
10.1534
30
8.8
0
VERTEX
10
7.75961
20
10.1525
30
8.8
0
VERTEX
10
7.75423
20
10.1462
30
8.8
0
VERTEX
10
7.75243
20
10.1444
30
8.8
0
VERTEX
10
7.75154
20
10.1408
30
8.8
0
VERTEX
10
7.74974
20
10.139
30
8.8
0
VERTEX
10
7.74885
20
10.1247
30
8.8
0
VERTEX
10
7.74795
20
10.1211
30
8.8
0
VERTEX
10
7.74795
20
10.1202
30
8.8
0
SEQEND
0
POLYLINE
62
236
66
1
70
1
3
postsynaptic_density
0
VERTEX
10
7.32581
20
9.55251
30
8.8
0
VERTEX
10
7.32649
20
9.54979
30
8.8
0
VERTEX
10
7.32649
20
9.54843
30
8.8
0
VERTEX
10
7.32785
20
9.54708
30
8.8
0
VERTEX
10
7.32853
20
9.54436
30
8.8
0
VERTEX
10
7.32989
20
9.543
30
8.8
0
VERTEX
10
7.34077
20
9.54368
30
8.8
0
VERTEX
10
7.36184
20
9.55047
30
8.8
0
VERTEX
10
7.36456
20
9.55251
30
8.8
0
VERTEX
10
7.36728
20
9.55319
30
8.8
0
VERTEX
10
7.37135
20
9.55795
30
8.8
0
VERTEX
10
7.37679
20
9.56271
30
8.8
0
VERTEX
10
7.37951
20
9.56815
30
8.8
0
VERTEX
10
7.38767
20
9.57902
30
8.8
0
VERTEX
10
7.38835
20
9.58174
30
8.8
0
VERTEX
10
7.39106
20
9.58446
30
8.8
0
VERTEX
10
7.39378
20
9.5899
30
8.8
0
VERTEX
10
7.39446
20
9.59262
30
8.8
0
VERTEX
10
7.39786
20
9.59737
30
8.8
0
VERTEX
10
7.39854
20
9.60009
30
8.8
0
VERTEX
10
7.4033
20
9.60349
30
8.8
0
VERTEX
10
7.41146
20
9.61369
30
8.8
0
VERTEX
10
7.41621
20
9.61912
30
8.8
0
VERTEX
10
7.41689
20
9.62184
30
8.8
0
VERTEX
10
7.41893
20
9.62456
30
8.8
0
VERTEX
10
7.41961
20
9.63
30
8.8
0
VERTEX
10
7.42165
20
9.63272
30
8.8
0
VERTEX
10
7.42233
20
9.63544
30
8.8
0
VERTEX
10
7.42573
20
9.6368
30
8.8
0
VERTEX
10
7.42369
20
9.63951
30
8.8
0
VERTEX
10
7.42233
20
9.64087
30
8.8
0
VERTEX
10
7.42233
20
9.64223
30
8.8
0
VERTEX
10
7.42097
20
9.64291
30
8.8
0
VERTEX
10
7.42029
20
9.64563
30
8.8
0
VERTEX
10
7.41825
20
9.64767
30
8.8
0
VERTEX
10
7.41689
20
9.64767
30
8.8
0
VERTEX
10
7.41417
20
9.64971
30
8.8
0
VERTEX
10
7.41282
20
9.65107
30
8.8
0
VERTEX
10
7.40738
20
9.65107
30
8.8
0
VERTEX
10
7.3965
20
9.64903
30
8.8
0
VERTEX
10
7.39514
20
9.64903
30
8.8
0
VERTEX
10
7.3931
20
9.64631
30
8.8
0
VERTEX
10
7.39039
20
9.64495
30
8.8
0
VERTEX
10
7.38087
20
9.63544
30
8.8
0
VERTEX
10
7.37951
20
9.63272
30
8.8
0
VERTEX
10
7.37475
20
9.62864
30
8.8
0
VERTEX
10
7.37407
20
9.62592
30
8.8
0
VERTEX
10
7.36999
20
9.62184
30
8.8
0
VERTEX
10
7.36592
20
9.6164
30
8.8
0
VERTEX
10
7.36592
20
9.61505
30
8.8
0
VERTEX
10
7.3632
20
9.61233
30
8.8
0
VERTEX
10
7.3598
20
9.60689
30
8.8
0
VERTEX
10
7.35776
20
9.60417
30
8.8
0
VERTEX
10
7.35708
20
9.60145
30
8.8
0
VERTEX
10
7.35232
20
9.59669
30
8.8
0
VERTEX
10
7.35028
20
9.59397
30
8.8
0
VERTEX
10
7.3496
20
9.59126
30
8.8
0
VERTEX
10
7.34213
20
9.58174
30
8.8
0
VERTEX
10
7.33805
20
9.57766
30
8.8
0
VERTEX
10
7.33533
20
9.57562
30
8.8
0
VERTEX
10
7.33261
20
9.57086
30
8.8
0
VERTEX
10
7.32785
20
9.56543
30
8.8
0
VERTEX
10
7.32581
20
9.55999
30
8.8
0
VERTEX
10
7.32581
20
9.55455
30
8.8
0
VERTEX
10
7.32581
20
9.55319
30
8.8
0
SEQEND
0
POLYLINE
62
236
66
1
70
1
3
postsynaptic_density
0
VERTEX
10
7.27688
20
9.59262
30
8.8
0
VERTEX
10
7.28231
20
9.59058
30
8.8
0
VERTEX
10
7.28503
20
9.59058
30
8.8
0
VERTEX
10
7.28639
20
9.59058
30
8.8
0
VERTEX
10
7.28775
20
9.58922
30
8.8
0
VERTEX
10
7.29319
20
9.58786
30
8.8
0
VERTEX
10
7.30406
20
9.58786
30
8.8
0
VERTEX
10
7.31494
20
9.58922
30
8.8
0
VERTEX
10
7.32038
20
9.59058
30
8.8
0
VERTEX
10
7.32038
20
9.59194
30
8.8
0
VERTEX
10
7.33873
20
9.61301
30
8.8
0
VERTEX
10
7.34145
20
9.61776
30
8.8
0
VERTEX
10
7.34417
20
9.6198
30
8.8
0
VERTEX
10
7.34485
20
9.62252
30
8.8
0
VERTEX
10
7.34213
20
9.62388
30
8.8
0
VERTEX
10
7.34077
20
9.62456
30
8.8
0
VERTEX
10
7.35572
20
9.64223
30
8.8
0
VERTEX
10
7.3632
20
9.65243
30
8.8
0
VERTEX
10
7.36456
20
9.65515
30
8.8
0
VERTEX
10
7.36728
20
9.65719
30
8.8
0
VERTEX
10
7.37067
20
9.66126
30
8.8
0
VERTEX
10
7.37407
20
9.6667
30
8.8
0
VERTEX
10
7.37475
20
9.66942
30
8.8
0
VERTEX
10
7.353
20
9.6769
30
8.8
0
VERTEX
10
7.34213
20
9.6803
30
8.8
0
VERTEX
10
7.33669
20
9.6803
30
8.8
0
VERTEX
10
7.32853
20
9.67146
30
8.8
0
VERTEX
10
7.32853
20
9.6701
30
8.8
0
VERTEX
10
7.32581
20
9.66806
30
8.8
0
VERTEX
10
7.32445
20
9.66534
30
8.8
0
VERTEX
10
7.31902
20
9.66059
30
8.8
0
VERTEX
10
7.31562
20
9.65515
30
8.8
0
VERTEX
10
7.31426
20
9.64971
30
8.8
0
VERTEX
10
7.31222
20
9.64699
30
8.8
0
VERTEX
10
7.31154
20
9.64427
30
8.8
0
VERTEX
10
7.31018
20
9.64291
30
8.8
0
VERTEX
10
7.31018
20
9.64155
30
8.8
0
VERTEX
10
7.29998
20
9.63408
30
8.8
0
VERTEX
10
7.29795
20
9.63136
30
8.8
0
VERTEX
10
7.29659
20
9.63136
30
8.8
0
VERTEX
10
7.28095
20
9.61029
30
8.8
0
VERTEX
10
7.27891
20
9.60825
30
8.8
0
VERTEX
10
7.27688
20
9.59737
30
8.8
0
VERTEX
10
7.27688
20
9.59465
30
8.8
0
VERTEX
10
7.27688
20
9.59329
30
8.8
0
SEQEND
0
ENDSEC
0
EOF
