0
SECTION
2
ENTITIES
0
POLYLINE
62
31
66
1
70
1
3
contour
0
VERTEX
10
8.30628
20
8.53911
30
4.28
0
VERTEX
10
8.31294
20
8.50363
30
4.28
0
VERTEX
10
8.32402
20
8.46815
30
4.28
0
VERTEX
10
8.32846
20
8.45041
30
4.28
0
VERTEX
10
8.32846
20
8.43267
30
4.28
0
VERTEX
10
8.32846
20
8.4238
30
4.28
0
VERTEX
10
8.33511
20
8.41494
30
4.28
0
VERTEX
10
8.35063
20
8.37946
30
4.28
0
VERTEX
10
8.35285
20
8.37059
30
4.28
0
VERTEX
10
8.37502
20
8.33954
30
4.28
0
VERTEX
10
8.37946
20
8.33067
30
4.28
0
VERTEX
10
8.38833
20
8.32181
30
4.28
0
VERTEX
10
8.39276
20
8.31737
30
4.28
0
VERTEX
10
8.40163
20
8.31515
30
4.28
0
VERTEX
10
8.41494
20
8.29963
30
4.28
0
VERTEX
10
8.43267
20
8.28854
30
4.28
0
VERTEX
10
8.44154
20
8.28189
30
4.28
0
VERTEX
10
8.44598
20
8.28189
30
4.28
0
VERTEX
10
8.45485
20
8.27302
30
4.28
0
VERTEX
10
8.5258
20
8.25307
30
4.28
0
VERTEX
10
8.59676
20
8.2442
30
4.28
0
VERTEX
10
8.63224
20
8.23976
30
4.28
0
VERTEX
10
8.66772
20
8.24198
30
4.28
0
VERTEX
10
8.73867
20
8.23755
30
4.28
0
VERTEX
10
8.88058
20
8.23976
30
4.28
0
VERTEX
10
8.89832
20
8.23976
30
4.28
0
VERTEX
10
8.90719
20
8.2442
30
4.28
0
VERTEX
10
8.97815
20
8.24863
30
4.28
0
VERTEX
10
8.99589
20
8.25307
30
4.28
0
VERTEX
10
9.00476
20
8.2575
30
4.28
0
VERTEX
10
9.0225
20
8.2575
30
4.28
0
VERTEX
10
9.04023
20
8.26194
30
4.28
0
VERTEX
10
9.0491
20
8.26415
30
4.28
0
VERTEX
10
9.05354
20
8.26415
30
4.28
0
VERTEX
10
9.05797
20
8.26859
30
4.28
0
VERTEX
10
9.09345
20
8.27081
30
4.28
0
VERTEX
10
9.12893
20
8.27746
30
4.28
0
VERTEX
10
9.14667
20
8.28411
30
4.28
0
VERTEX
10
9.15332
20
8.28854
30
4.28
0
VERTEX
10
9.17106
20
8.28854
30
4.28
0
VERTEX
10
9.20654
20
8.2952
30
4.28
0
VERTEX
10
9.24202
20
8.29741
30
4.28
0
VERTEX
10
9.27749
20
8.30628
30
4.28
0
VERTEX
10
9.41941
20
8.31072
30
4.28
0
VERTEX
10
9.42828
20
8.31072
30
4.28
0
VERTEX
10
9.43271
20
8.30628
30
4.28
0
VERTEX
10
9.46819
20
8.30185
30
4.28
0
VERTEX
10
9.53914
20
8.30185
30
4.28
0
VERTEX
10
9.57462
20
8.29963
30
4.28
0
VERTEX
10
9.59236
20
8.30185
30
4.28
0
VERTEX
10
9.66332
20
8.29963
30
4.28
0
VERTEX
10
9.73427
20
8.30185
30
4.28
0
VERTEX
10
9.80523
20
8.29963
30
4.28
0
VERTEX
10
9.82297
20
8.29963
30
4.28
0
VERTEX
10
9.85845
20
8.3085
30
4.28
0
VERTEX
10
9.86288
20
8.3085
30
4.28
0
VERTEX
10
9.87618
20
8.32181
30
4.28
0
VERTEX
10
9.88505
20
8.32846
30
4.28
0
VERTEX
10
9.88949
20
8.32846
30
4.28
0
VERTEX
10
9.89392
20
8.33733
30
4.28
0
VERTEX
10
9.89392
20
8.34176
30
4.28
0
VERTEX
10
9.90501
20
8.3595
30
4.28
0
VERTEX
10
9.90945
20
8.37724
30
4.28
0
VERTEX
10
9.93162
20
8.41272
30
4.28
0
VERTEX
10
9.93827
20
8.43046
30
4.28
0
VERTEX
10
9.94049
20
8.4482
30
4.28
0
VERTEX
10
9.94049
20
8.45707
30
4.28
0
VERTEX
10
9.94714
20
8.47259
30
4.28
0
VERTEX
10
9.94714
20
8.54354
30
4.28
0
VERTEX
10
9.94492
20
8.57902
30
4.28
0
VERTEX
10
9.94492
20
8.59676
30
4.28
0
VERTEX
10
9.93162
20
8.66772
30
4.28
0
VERTEX
10
9.92275
20
8.70319
30
4.28
0
VERTEX
10
9.9161
20
8.72093
30
4.28
0
VERTEX
10
9.90945
20
8.72758
30
4.28
0
VERTEX
10
9.90723
20
8.73645
30
4.28
0
VERTEX
10
9.85623
20
8.80076
30
4.28
0
VERTEX
10
9.84292
20
8.81628
30
4.28
0
VERTEX
10
9.83849
20
8.82515
30
4.28
0
VERTEX
10
9.82075
20
8.83845
30
4.28
0
VERTEX
10
9.81188
20
8.84511
30
4.28
0
VERTEX
10
9.80745
20
8.84511
30
4.28
0
VERTEX
10
9.79858
20
8.85176
30
4.28
0
VERTEX
10
9.78971
20
8.85398
30
4.28
0
VERTEX
10
9.78749
20
8.85841
30
4.28
0
VERTEX
10
9.76975
20
8.86284
30
4.28
0
VERTEX
10
9.76532
20
8.86728
30
4.28
0
VERTEX
10
9.73206
20
8.87837
30
4.28
0
VERTEX
10
9.71432
20
8.88945
30
4.28
0
VERTEX
10
9.70988
20
8.88945
30
4.28
0
VERTEX
10
9.70545
20
8.89389
30
4.28
0
VERTEX
10
9.68771
20
8.89611
30
4.28
0
VERTEX
10
9.66997
20
8.90276
30
4.28
0
VERTEX
10
9.6611
20
8.90497
30
4.28
0
VERTEX
10
9.64336
20
8.91606
30
4.28
0
VERTEX
10
9.63449
20
8.91828
30
4.28
0
VERTEX
10
9.63006
20
8.91828
30
4.28
0
VERTEX
10
9.62119
20
8.92493
30
4.28
0
VERTEX
10
9.58571
20
8.93158
30
4.28
0
VERTEX
10
9.57684
20
8.93602
30
4.28
0
VERTEX
10
9.54136
20
8.94045
30
4.28
0
VERTEX
10
9.52362
20
8.94489
30
4.28
0
VERTEX
10
9.48814
20
8.94489
30
4.28
0
VERTEX
10
9.41719
20
8.95376
30
4.28
0
VERTEX
10
9.39945
20
8.95819
30
4.28
0
VERTEX
10
9.39058
20
8.95819
30
4.28
0
VERTEX
10
9.38171
20
8.96263
30
4.28
0
VERTEX
10
9.34623
20
8.96263
30
4.28
0
VERTEX
10
9.31075
20
8.96706
30
4.28
0
VERTEX
10
9.29302
20
8.96706
30
4.28
0
VERTEX
10
9.28415
20
8.96484
30
4.28
0
VERTEX
10
9.27528
20
8.9471
30
4.28
0
VERTEX
10
9.25975
20
8.93602
30
4.28
0
VERTEX
10
9.25089
20
8.93158
30
4.28
0
VERTEX
10
9.24867
20
8.92715
30
4.28
0
VERTEX
10
9.21541
20
8.91163
30
4.28
0
VERTEX
10
9.20876
20
8.90497
30
4.28
0
VERTEX
10
9.19989
20
8.90276
30
4.28
0
VERTEX
10
9.19545
20
8.89832
30
4.28
0
VERTEX
10
9.19545
20
8.89389
30
4.28
0
VERTEX
10
9.17771
20
8.8828
30
4.28
0
VERTEX
10
9.15997
20
8.87615
30
4.28
0
VERTEX
10
9.09123
20
8.8318
30
4.28
0
VERTEX
10
9.05576
20
8.82293
30
4.28
0
VERTEX
10
9.03802
20
8.82071
30
4.28
0
VERTEX
10
9.03358
20
8.81628
30
4.28
0
VERTEX
10
9.01584
20
8.81185
30
4.28
0
VERTEX
10
9.01141
20
8.80741
30
4.28
0
VERTEX
10
8.99367
20
8.80298
30
4.28
0
VERTEX
10
8.98924
20
8.80298
30
4.28
0
VERTEX
10
8.9848
20
8.79854
30
4.28
0
VERTEX
10
8.97593
20
8.79854
30
4.28
0
VERTEX
10
8.95819
20
8.78967
30
4.28
0
VERTEX
10
8.94045
20
8.78524
30
4.28
0
VERTEX
10
8.93602
20
8.7808
30
4.28
0
VERTEX
10
8.91828
20
8.77637
30
4.28
0
VERTEX
10
8.91384
20
8.77637
30
4.28
0
VERTEX
10
8.8828
20
8.75198
30
4.28
0
VERTEX
10
8.84732
20
8.73645
30
4.28
0
VERTEX
10
8.81406
20
8.72537
30
4.28
0
VERTEX
10
8.79632
20
8.7165
30
4.28
0
VERTEX
10
8.76085
20
8.71206
30
4.28
0
VERTEX
10
8.75198
20
8.71206
30
4.28
0
VERTEX
10
8.73424
20
8.70541
30
4.28
0
VERTEX
10
8.7165
20
8.70319
30
4.28
0
VERTEX
10
8.64554
20
8.68324
30
4.28
0
VERTEX
10
8.6278
20
8.68102
30
4.28
0
VERTEX
10
8.61893
20
8.67659
30
4.28
0
VERTEX
10
8.58346
20
8.67215
30
4.28
0
VERTEX
10
8.54798
20
8.66328
30
4.28
0
VERTEX
10
8.47702
20
8.65885
30
4.28
0
VERTEX
10
8.40607
20
8.64998
30
4.28
0
VERTEX
10
8.40163
20
8.64554
30
4.28
0
VERTEX
10
8.38389
20
8.64332
30
4.28
0
VERTEX
10
8.37946
20
8.63889
30
4.28
0
VERTEX
10
8.37502
20
8.63889
30
4.28
0
VERTEX
10
8.34398
20
8.6145
30
4.28
0
VERTEX
10
8.33511
20
8.59898
30
4.28
0
VERTEX
10
8.32181
20
8.58124
30
4.28
0
VERTEX
10
8.31294
20
8.5635
30
4.28
0
VERTEX
10
8.3085
20
8.55906
30
4.28
0
VERTEX
10
8.30628
20
8.54133
30
4.28
0
SEQEND
0
POLYLINE
62
31
66
1
70
1
3
contour
0
VERTEX
10
7.83981
20
7.91313
30
4.28
0
VERTEX
10
7.84524
20
7.73933
30
4.28
0
VERTEX
10
7.86153
20
7.65243
30
4.28
0
VERTEX
10
7.86153
20
7.64157
30
4.28
0
VERTEX
10
7.86153
20
7.63614
30
4.28
0
VERTEX
10
7.88869
20
7.59269
30
4.28
0
VERTEX
10
7.90226
20
7.57097
30
4.28
0
VERTEX
10
7.92399
20
7.56554
30
4.28
0
VERTEX
10
7.96744
20
7.56825
30
4.28
0
VERTEX
10
7.9783
20
7.57097
30
4.28
0
VERTEX
10
7.98373
20
7.57097
30
4.28
0
VERTEX
10
7.98916
20
7.5764
30
4.28
0
VERTEX
10
8.01089
20
7.58183
30
4.28
0
VERTEX
10
8.01632
20
7.58726
30
4.28
0
VERTEX
10
8.03804
20
7.58998
30
4.28
0
VERTEX
10
8.05977
20
7.60355
30
4.28
0
VERTEX
10
8.0652
20
7.60355
30
4.28
0
VERTEX
10
8.08692
20
7.61713
30
4.28
0
VERTEX
10
8.09507
20
7.62256
30
4.28
0
VERTEX
10
8.10322
20
7.63342
30
4.28
0
VERTEX
10
8.11408
20
7.63886
30
4.28
0
VERTEX
10
8.11951
20
7.64429
30
4.28
0
VERTEX
10
8.13037
20
7.647
30
4.28
0
VERTEX
10
8.1711
20
7.67416
30
4.28
0
VERTEX
10
8.19283
20
7.68774
30
4.28
0
VERTEX
10
8.23628
20
7.70674
30
4.28
0
VERTEX
10
8.24714
20
7.70946
30
4.28
0
VERTEX
10
8.25529
20
7.73118
30
4.28
0
VERTEX
10
8.25529
20
7.81808
30
4.28
0
VERTEX
10
8.25529
20
7.83981
30
4.28
0
VERTEX
10
8.25529
20
7.85067
30
4.28
0
VERTEX
10
8.24714
20
7.87239
30
4.28
0
VERTEX
10
8.24442
20
7.89412
30
4.28
0
VERTEX
10
8.22542
20
7.93757
30
4.28
0
VERTEX
10
8.21184
20
7.98102
30
4.28
0
VERTEX
10
8.21184
20
7.98645
30
4.28
0
VERTEX
10
8.20641
20
7.99188
30
4.28
0
VERTEX
10
8.20098
20
8.0136
30
4.28
0
VERTEX
10
8.18468
20
8.03533
30
4.28
0
VERTEX
10
8.17654
20
8.05705
30
4.28
0
VERTEX
10
8.16024
20
8.07878
30
4.28
0
VERTEX
10
8.13852
20
8.09507
30
4.28
0
VERTEX
10
8.12766
20
8.10322
30
4.28
0
VERTEX
10
8.04076
20
8.1005
30
4.28
0
VERTEX
10
8.01903
20
8.1005
30
4.28
0
VERTEX
10
7.97558
20
8.09235
30
4.28
0
VERTEX
10
7.93214
20
8.07878
30
4.28
0
VERTEX
10
7.92127
20
8.07606
30
4.28
0
VERTEX
10
7.91041
20
8.06791
30
4.28
0
VERTEX
10
7.89955
20
8.0652
30
4.28
0
VERTEX
10
7.86425
20
8.0299
30
4.28
0
VERTEX
10
7.85338
20
8.00817
30
4.28
0
VERTEX
10
7.84795
20
7.99731
30
4.28
0
VERTEX
10
7.83981
20
7.95386
30
4.28
0
VERTEX
10
7.83981
20
7.93214
30
4.28
0
VERTEX
10
7.83981
20
7.92127
30
4.28
0
VERTEX
10
7.83981
20
7.91584
30
4.28
0
SEQEND
0
POLYLINE
62
31
66
1
70
1
3
contour
0
VERTEX
10
9.84161
20
9.90511
30
4.28
0
VERTEX
10
9.84571
20
9.88872
30
4.28
0
VERTEX
10
9.86005
20
9.87438
30
4.28
0
VERTEX
10
9.86414
20
9.87029
30
4.28
0
VERTEX
10
9.88053
20
9.87643
30
4.28
0
VERTEX
10
9.89487
20
9.88872
30
4.28
0
VERTEX
10
9.89896
20
9.89691
30
4.28
0
VERTEX
10
9.89691
20
9.89896
30
4.28
0
VERTEX
10
9.90306
20
9.91535
30
4.28
0
VERTEX
10
9.90715
20
9.94812
30
4.28
0
VERTEX
10
9.90306
20
9.9645
30
4.28
0
VERTEX
10
9.89896
20
9.9727
30
4.28
0
VERTEX
10
9.89896
20
9.98089
30
4.28
0
VERTEX
10
9.89487
20
9.98908
30
4.28
0
VERTEX
10
9.89487
20
9.99728
30
4.28
0
VERTEX
10
9.87848
20
10.0075
30
4.28
0
VERTEX
10
9.87029
20
10.0116
30
4.28
0
VERTEX
10
9.86619
20
10.0116
30
4.28
0
VERTEX
10
9.86005
20
10.0055
30
4.28
0
VERTEX
10
9.85595
20
10.0034
30
4.28
0
VERTEX
10
9.84981
20
9.98703
30
4.28
0
VERTEX
10
9.84571
20
9.95426
30
4.28
0
VERTEX
10
9.84571
20
9.93788
30
4.28
0
VERTEX
10
9.84161
20
9.92149
30
4.28
0
VERTEX
10
9.84161
20
9.90715
30
4.28
0
SEQEND
0
POLYLINE
62
224
66
1
70
1
3
mitochondrion
0
VERTEX
10
9.47717
20
8.59425
30
4.28
0
VERTEX
10
9.47995
20
8.59286
30
4.28
0
VERTEX
10
9.48273
20
8.57061
30
4.28
0
VERTEX
10
9.48412
20
8.55949
30
4.28
0
VERTEX
10
9.4869
20
8.55392
30
4.28
0
VERTEX
10
9.48829
20
8.5428
30
4.28
0
VERTEX
10
9.49664
20
8.52055
30
4.28
0
VERTEX
10
9.49942
20
8.50943
30
4.28
0
VERTEX
10
9.5022
20
8.50804
30
4.28
0
VERTEX
10
9.50498
20
8.49692
30
4.28
0
VERTEX
10
9.53557
20
8.45242
30
4.28
0
VERTEX
10
9.55642
20
8.43157
30
4.28
0
VERTEX
10
9.57728
20
8.41488
30
4.28
0
VERTEX
10
9.58284
20
8.4121
30
4.28
0
VERTEX
10
9.58562
20
8.41349
30
4.28
0
VERTEX
10
9.59536
20
8.40515
30
4.28
0
VERTEX
10
9.61621
20
8.39542
30
4.28
0
VERTEX
10
9.61899
20
8.39542
30
4.28
0
VERTEX
10
9.62038
20
8.39263
30
4.28
0
VERTEX
10
9.64263
20
8.38568
30
4.28
0
VERTEX
10
9.66488
20
8.38151
30
4.28
0
VERTEX
10
9.67044
20
8.37873
30
4.28
0
VERTEX
10
9.75943
20
8.38012
30
4.28
0
VERTEX
10
9.77055
20
8.38151
30
4.28
0
VERTEX
10
9.7928
20
8.38846
30
4.28
0
VERTEX
10
9.80392
20
8.39263
30
4.28
0
VERTEX
10
9.81365
20
8.40237
30
4.28
0
VERTEX
10
9.82478
20
8.40515
30
4.28
0
VERTEX
10
9.83034
20
8.40793
30
4.28
0
VERTEX
10
9.83312
20
8.40932
30
4.28
0
VERTEX
10
9.8359
20
8.40793
30
4.28
0
VERTEX
10
9.84146
20
8.41071
30
4.28
0
VERTEX
10
9.85676
20
8.43018
30
4.28
0
VERTEX
10
9.85954
20
8.43574
30
4.28
0
VERTEX
10
9.85954
20
8.43852
30
4.28
0
VERTEX
10
9.86232
20
8.4413
30
4.28
0
VERTEX
10
9.86232
20
8.44408
30
4.28
0
VERTEX
10
9.87205
20
8.4552
30
4.28
0
VERTEX
10
9.87761
20
8.45799
30
4.28
0
VERTEX
10
9.87761
20
8.46077
30
4.28
0
VERTEX
10
9.88457
20
8.47189
30
4.28
0
VERTEX
10
9.88457
20
8.47467
30
4.28
0
VERTEX
10
9.88874
20
8.48023
30
4.28
0
VERTEX
10
9.89569
20
8.50248
30
4.28
0
VERTEX
10
9.89847
20
8.50804
30
4.28
0
VERTEX
10
9.89847
20
8.53029
30
4.28
0
VERTEX
10
9.89847
20
8.54141
30
4.28
0
VERTEX
10
9.89847
20
8.54697
30
4.28
0
VERTEX
10
9.89847
20
8.54975
30
4.28
0
VERTEX
10
9.89569
20
8.55253
30
4.28
0
VERTEX
10
9.88596
20
8.59703
30
4.28
0
VERTEX
10
9.88179
20
8.61928
30
4.28
0
VERTEX
10
9.87761
20
8.6304
30
4.28
0
VERTEX
10
9.87622
20
8.63596
30
4.28
0
VERTEX
10
9.87344
20
8.63874
30
4.28
0
VERTEX
10
9.87344
20
8.6443
30
4.28
0
VERTEX
10
9.87066
20
8.64708
30
4.28
0
VERTEX
10
9.87066
20
8.65265
30
4.28
0
VERTEX
10
9.85815
20
8.6735
30
4.28
0
VERTEX
10
9.8512
20
8.68323
30
4.28
0
VERTEX
10
9.84146
20
8.69297
30
4.28
0
VERTEX
10
9.83868
20
8.69297
30
4.28
0
VERTEX
10
9.83729
20
8.69853
30
4.28
0
VERTEX
10
9.83034
20
8.70687
30
4.28
0
VERTEX
10
9.79836
20
8.74998
30
4.28
0
VERTEX
10
9.79558
20
8.75554
30
4.28
0
VERTEX
10
9.77333
20
8.77361
30
4.28
0
VERTEX
10
9.76777
20
8.775
30
4.28
0
VERTEX
10
9.7636
20
8.77917
30
4.28
0
VERTEX
10
9.75804
20
8.77917
30
4.28
0
VERTEX
10
9.7483
20
8.78613
30
4.28
0
VERTEX
10
9.73718
20
8.78752
30
4.28
0
VERTEX
10
9.72606
20
8.79169
30
4.28
0
VERTEX
10
9.70381
20
8.79447
30
4.28
0
VERTEX
10
9.69825
20
8.79725
30
4.28
0
VERTEX
10
9.65375
20
8.79864
30
4.28
0
VERTEX
10
9.60926
20
8.79725
30
4.28
0
VERTEX
10
9.59814
20
8.79586
30
4.28
0
VERTEX
10
9.59258
20
8.79586
30
4.28
0
VERTEX
10
9.57033
20
8.78752
30
4.28
0
VERTEX
10
9.56477
20
8.78613
30
4.28
0
VERTEX
10
9.55921
20
8.78196
30
4.28
0
VERTEX
10
9.53835
20
8.775
30
4.28
0
VERTEX
10
9.53696
20
8.77222
30
4.28
0
VERTEX
10
9.5314
20
8.77083
30
4.28
0
VERTEX
10
9.52305
20
8.75971
30
4.28
0
VERTEX
10
9.51888
20
8.75415
30
4.28
0
VERTEX
10
9.51749
20
8.74858
30
4.28
0
VERTEX
10
9.51332
20
8.74302
30
4.28
0
VERTEX
10
9.51054
20
8.74024
30
4.28
0
VERTEX
10
9.50915
20
8.73468
30
4.28
0
VERTEX
10
9.50915
20
8.7319
30
4.28
0
VERTEX
10
9.49803
20
8.72495
30
4.28
0
VERTEX
10
9.49386
20
8.71521
30
4.28
0
VERTEX
10
9.49246
20
8.70409
30
4.28
0
VERTEX
10
9.48829
20
8.69297
30
4.28
0
VERTEX
10
9.48829
20
8.68184
30
4.28
0
VERTEX
10
9.47995
20
8.66099
30
4.28
0
VERTEX
10
9.47717
20
8.63874
30
4.28
0
VERTEX
10
9.47717
20
8.59564
30
4.28
0
SEQEND
0
POLYLINE
62
227
66
1
70
1
3
endoplasmic_reticulum
0
VERTEX
10
9.42432
20
8.72047
30
4.28
0
VERTEX
10
9.42584
20
8.71894
30
4.28
0
VERTEX
10
9.42737
20
8.72047
30
4.28
0
VERTEX
10
9.43346
20
8.71742
30
4.28
0
VERTEX
10
9.44565
20
8.71894
30
4.28
0
VERTEX
10
9.45174
20
8.72351
30
4.28
0
VERTEX
10
9.46393
20
8.72808
30
4.28
0
VERTEX
10
9.47459
20
8.7357
30
4.28
0
VERTEX
10
9.48831
20
8.78445
30
4.28
0
VERTEX
10
9.50049
20
8.79207
30
4.28
0
VERTEX
10
9.50659
20
8.79969
30
4.28
0
VERTEX
10
9.50963
20
8.79969
30
4.28
0
VERTEX
10
9.51268
20
8.80273
30
4.28
0
VERTEX
10
9.51573
20
8.80273
30
4.28
0
VERTEX
10
9.51725
20
8.80578
30
4.28
0
VERTEX
10
9.52944
20
8.80883
30
4.28
0
VERTEX
10
9.53249
20
8.81035
30
4.28
0
VERTEX
10
9.53249
20
8.8134
30
4.28
0
VERTEX
10
9.54467
20
8.82102
30
4.28
0
VERTEX
10
9.54467
20
8.8332
30
4.28
0
VERTEX
10
9.53858
20
8.83777
30
4.28
0
VERTEX
10
9.5142
20
8.8393
30
4.28
0
VERTEX
10
9.48983
20
8.83777
30
4.28
0
VERTEX
10
9.47764
20
8.82863
30
4.28
0
VERTEX
10
9.47307
20
8.82254
30
4.28
0
VERTEX
10
9.46241
20
8.81492
30
4.28
0
VERTEX
10
9.46088
20
8.80273
30
4.28
0
VERTEX
10
9.46088
20
8.79664
30
4.28
0
VERTEX
10
9.45784
20
8.79055
30
4.28
0
VERTEX
10
9.45479
20
8.7875
30
4.28
0
VERTEX
10
9.45479
20
8.78445
30
4.28
0
VERTEX
10
9.44869
20
8.7814
30
4.28
0
VERTEX
10
9.44565
20
8.75703
30
4.28
0
VERTEX
10
9.43498
20
8.73418
30
4.28
0
VERTEX
10
9.42432
20
8.72199
30
4.28
0
SEQEND
0
POLYLINE
62
227
66
1
70
1
3
endoplasmic_reticulum
0
VERTEX
10
9.22169
20
8.64886
30
4.28
0
VERTEX
10
9.22626
20
8.64429
30
4.28
0
VERTEX
10
9.23236
20
8.64581
30
4.28
0
VERTEX
10
9.23541
20
8.64581
30
4.28
0
VERTEX
10
9.23845
20
8.64886
30
4.28
0
VERTEX
10
9.25064
20
8.65343
30
4.28
0
VERTEX
10
9.25673
20
8.65648
30
4.28
0
VERTEX
10
9.26892
20
8.658
30
4.28
0
VERTEX
10
9.27806
20
8.66714
30
4.28
0
VERTEX
10
9.27806
20
8.67324
30
4.28
0
VERTEX
10
9.2872
20
8.68238
30
4.28
0
VERTEX
10
9.29787
20
8.69457
30
4.28
0
VERTEX
10
9.30092
20
8.69457
30
4.28
0
VERTEX
10
9.30853
20
8.70523
30
4.28
0
VERTEX
10
9.31463
20
8.70828
30
4.28
0
VERTEX
10
9.3192
20
8.71437
30
4.28
0
VERTEX
10
9.31767
20
8.73875
30
4.28
0
VERTEX
10
9.30549
20
8.74332
30
4.28
0
VERTEX
10
9.2933
20
8.74027
30
4.28
0
VERTEX
10
9.2872
20
8.73722
30
4.28
0
VERTEX
10
9.28416
20
8.7357
30
4.28
0
VERTEX
10
9.28416
20
8.73265
30
4.28
0
VERTEX
10
9.2674
20
8.7098
30
4.28
0
VERTEX
10
9.26283
20
8.70218
30
4.28
0
VERTEX
10
9.25978
20
8.69914
30
4.28
0
VERTEX
10
9.25826
20
8.69304
30
4.28
0
VERTEX
10
9.24759
20
8.6839
30
4.28
0
VERTEX
10
9.24302
20
8.68085
30
4.28
0
VERTEX
10
9.23236
20
8.67019
30
4.28
0
VERTEX
10
9.22474
20
8.66105
30
4.28
0
VERTEX
10
9.22169
20
8.65496
30
4.28
0
VERTEX
10
9.22169
20
8.65038
30
4.28
0
SEQEND
0
POLYLINE
62
227
66
1
70
1
3
endoplasmic_reticulum
0
VERTEX
10
9.47764
20
8.885
30
4.28
0
VERTEX
10
9.48678
20
8.87281
30
4.28
0
VERTEX
10
9.48831
20
8.86672
30
4.28
0
VERTEX
10
9.51268
20
8.86824
30
4.28
0
VERTEX
10
9.51573
20
8.87129
30
4.28
0
VERTEX
10
9.52792
20
8.87434
30
4.28
0
VERTEX
10
9.5401
20
8.88043
30
4.28
0
VERTEX
10
9.54163
20
8.89262
30
4.28
0
VERTEX
10
9.53858
20
8.89871
30
4.28
0
VERTEX
10
9.53858
20
8.90176
30
4.28
0
VERTEX
10
9.52792
20
8.9109
30
4.28
0
VERTEX
10
9.50354
20
8.91243
30
4.28
0
VERTEX
10
9.49135
20
8.9109
30
4.28
0
VERTEX
10
9.48526
20
8.90938
30
4.28
0
VERTEX
10
9.48221
20
8.90785
30
4.28
0
VERTEX
10
9.47916
20
8.89567
30
4.28
0
VERTEX
10
9.47764
20
8.88957
30
4.28
0
VERTEX
10
9.47764
20
8.88653
30
4.28
0
SEQEND
0
POLYLINE
62
227
66
1
70
1
3
endoplasmic_reticulum
0
VERTEX
10
9.05411
20
8.51327
30
4.28
0
VERTEX
10
9.05716
20
8.50718
30
4.28
0
VERTEX
10
9.08153
20
8.49042
30
4.28
0
VERTEX
10
9.0922
20
8.48737
30
4.28
0
VERTEX
10
9.09372
20
8.48432
30
4.28
0
VERTEX
10
9.09981
20
8.48737
30
4.28
0
VERTEX
10
9.10134
20
8.49042
30
4.28
0
VERTEX
10
9.09524
20
8.49194
30
4.28
0
VERTEX
10
9.09524
20
8.50413
30
4.28
0
VERTEX
10
9.09524
20
8.51022
30
4.28
0
VERTEX
10
9.09981
20
8.52241
30
4.28
0
VERTEX
10
9.10743
20
8.5346
30
4.28
0
VERTEX
10
9.11353
20
8.53917
30
4.28
0
VERTEX
10
9.11962
20
8.54069
30
4.28
0
VERTEX
10
9.12876
20
8.54983
30
4.28
0
VERTEX
10
9.13028
20
8.55593
30
4.28
0
VERTEX
10
9.14095
20
8.56507
30
4.28
0
VERTEX
10
9.14704
20
8.56964
30
4.28
0
VERTEX
10
9.15314
20
8.57116
30
4.28
0
VERTEX
10
9.15618
20
8.57421
30
4.28
0
VERTEX
10
9.16228
20
8.57573
30
4.28
0
VERTEX
10
9.17294
20
8.58335
30
4.28
0
VERTEX
10
9.18513
20
8.58792
30
4.28
0
VERTEX
10
9.23236
20
8.59249
30
4.28
0
VERTEX
10
9.25673
20
8.59249
30
4.28
0
VERTEX
10
9.26892
20
8.58945
30
4.28
0
VERTEX
10
9.27502
20
8.58792
30
4.28
0
VERTEX
10
9.28568
20
8.57726
30
4.28
0
VERTEX
10
9.29635
20
8.57116
30
4.28
0
VERTEX
10
9.30244
20
8.56812
30
4.28
0
VERTEX
10
9.30701
20
8.56202
30
4.28
0
VERTEX
10
9.31006
20
8.56202
30
4.28
0
VERTEX
10
9.32986
20
8.54222
30
4.28
0
VERTEX
10
9.33443
20
8.53612
30
4.28
0
VERTEX
10
9.33748
20
8.52393
30
4.28
0
VERTEX
10
9.33748
20
8.51175
30
4.28
0
VERTEX
10
9.33748
20
8.50565
30
4.28
0
VERTEX
10
9.33748
20
8.50261
30
4.28
0
VERTEX
10
9.33291
20
8.49651
30
4.28
0
VERTEX
10
9.33291
20
8.49347
30
4.28
0
VERTEX
10
9.32529
20
8.48128
30
4.28
0
VERTEX
10
9.32224
20
8.47671
30
4.28
0
VERTEX
10
9.3192
20
8.47518
30
4.28
0
VERTEX
10
9.3192
20
8.47214
30
4.28
0
VERTEX
10
9.31006
20
8.46452
30
4.28
0
VERTEX
10
9.30701
20
8.45842
30
4.28
0
VERTEX
10
9.30092
20
8.4569
30
4.28
0
VERTEX
10
9.29482
20
8.45233
30
4.28
0
VERTEX
10
9.28263
20
8.44928
30
4.28
0
VERTEX
10
9.25826
20
8.44928
30
4.28
0
VERTEX
10
9.24607
20
8.44624
30
4.28
0
VERTEX
10
9.23388
20
8.44624
30
4.28
0
VERTEX
10
9.22779
20
8.44624
30
4.28
0
VERTEX
10
9.2156
20
8.44167
30
4.28
0
VERTEX
10
9.21255
20
8.44167
30
4.28
0
VERTEX
10
9.20951
20
8.43862
30
4.28
0
VERTEX
10
9.18513
20
8.4371
30
4.28
0
VERTEX
10
9.16075
20
8.44014
30
4.28
0
VERTEX
10
9.15466
20
8.44319
30
4.28
0
VERTEX
10
9.14857
20
8.44928
30
4.28
0
VERTEX
10
9.12419
20
8.463
30
4.28
0
VERTEX
10
9.112
20
8.46452
30
4.28
0
VERTEX
10
9.09981
20
8.45995
30
4.28
0
VERTEX
10
9.09677
20
8.45995
30
4.28
0
VERTEX
10
9.09067
20
8.45538
30
4.28
0
VERTEX
10
9.08458
20
8.44471
30
4.28
0
VERTEX
10
9.08458
20
8.42034
30
4.28
0
VERTEX
10
9.0861
20
8.41424
30
4.28
0
VERTEX
10
9.09067
20
8.40967
30
4.28
0
VERTEX
10
9.09067
20
8.40663
30
4.28
0
VERTEX
10
9.10134
20
8.39901
30
4.28
0
VERTEX
10
9.10591
20
8.39291
30
4.28
0
VERTEX
10
9.11657
20
8.38682
30
4.28
0
VERTEX
10
9.12267
20
8.38073
30
4.28
0
VERTEX
10
9.12876
20
8.37768
30
4.28
0
VERTEX
10
9.15314
20
8.37768
30
4.28
0
VERTEX
10
9.16532
20
8.37768
30
4.28
0
VERTEX
10
9.16837
20
8.38073
30
4.28
0
VERTEX
10
9.26588
20
8.38377
30
4.28
0
VERTEX
10
9.27806
20
8.38987
30
4.28
0
VERTEX
10
9.28263
20
8.39596
30
4.28
0
VERTEX
10
9.30701
20
8.40663
30
4.28
0
VERTEX
10
9.35271
20
8.43862
30
4.28
0
VERTEX
10
9.36033
20
8.44928
30
4.28
0
VERTEX
10
9.3649
20
8.45538
30
4.28
0
VERTEX
10
9.371
20
8.45842
30
4.28
0
VERTEX
10
9.38014
20
8.47061
30
4.28
0
VERTEX
10
9.38166
20
8.51936
30
4.28
0
VERTEX
10
9.37861
20
8.53155
30
4.28
0
VERTEX
10
9.37557
20
8.5346
30
4.28
0
VERTEX
10
9.36795
20
8.55745
30
4.28
0
VERTEX
10
9.36643
20
8.56355
30
4.28
0
VERTEX
10
9.36033
20
8.56659
30
4.28
0
VERTEX
10
9.35881
20
8.57878
30
4.28
0
VERTEX
10
9.35119
20
8.59097
30
4.28
0
VERTEX
10
9.34662
20
8.59706
30
4.28
0
VERTEX
10
9.34357
20
8.60011
30
4.28
0
VERTEX
10
9.34205
20
8.6062
30
4.28
0
VERTEX
10
9.34205
20
8.60925
30
4.28
0
VERTEX
10
9.33139
20
8.61991
30
4.28
0
VERTEX
10
9.32529
20
8.62449
30
4.28
0
VERTEX
10
9.32529
20
8.62753
30
4.28
0
VERTEX
10
9.32224
20
8.63058
30
4.28
0
VERTEX
10
9.3192
20
8.63058
30
4.28
0
VERTEX
10
9.31463
20
8.63515
30
4.28
0
VERTEX
10
9.30244
20
8.6382
30
4.28
0
VERTEX
10
9.20494
20
8.63515
30
4.28
0
VERTEX
10
9.15618
20
8.6321
30
4.28
0
VERTEX
10
9.144
20
8.63058
30
4.28
0
VERTEX
10
9.1379
20
8.62753
30
4.28
0
VERTEX
10
9.13181
20
8.62753
30
4.28
0
VERTEX
10
9.12571
20
8.62296
30
4.28
0
VERTEX
10
9.11353
20
8.61839
30
4.28
0
VERTEX
10
9.10286
20
8.60925
30
4.28
0
VERTEX
10
9.09677
20
8.60468
30
4.28
0
VERTEX
10
9.09372
20
8.59859
30
4.28
0
VERTEX
10
9.08763
20
8.59402
30
4.28
0
VERTEX
10
9.08458
20
8.59402
30
4.28
0
VERTEX
10
9.06934
20
8.57269
30
4.28
0
VERTEX
10
9.06173
20
8.5605
30
4.28
0
VERTEX
10
9.05716
20
8.5544
30
4.28
0
VERTEX
10
9.05411
20
8.54222
30
4.28
0
VERTEX
10
9.05411
20
8.51784
30
4.28
0
VERTEX
10
9.05411
20
8.51479
30
4.28
0
SEQEND
0
POLYLINE
62
227
66
1
70
1
3
endoplasmic_reticulum
0
VERTEX
10
8.56812
20
8.56202
30
4.28
0
VERTEX
10
8.57116
20
8.54983
30
4.28
0
VERTEX
10
8.58183
20
8.53765
30
4.28
0
VERTEX
10
8.59402
20
8.53155
30
4.28
0
VERTEX
10
8.60011
20
8.53155
30
4.28
0
VERTEX
10
8.6123
20
8.52546
30
4.28
0
VERTEX
10
8.62449
20
8.52393
30
4.28
0
VERTEX
10
8.64886
20
8.52698
30
4.28
0
VERTEX
10
8.65496
20
8.52851
30
4.28
0
VERTEX
10
8.6641
20
8.53765
30
4.28
0
VERTEX
10
8.67171
20
8.54983
30
4.28
0
VERTEX
10
8.67019
20
8.56202
30
4.28
0
VERTEX
10
8.66562
20
8.57421
30
4.28
0
VERTEX
10
8.658
20
8.58487
30
4.28
0
VERTEX
10
8.63363
20
8.58487
30
4.28
0
VERTEX
10
8.62753
20
8.5864
30
4.28
0
VERTEX
10
8.60316
20
8.60316
30
4.28
0
VERTEX
10
8.59706
20
8.60316
30
4.28
0
VERTEX
10
8.57573
20
8.58945
30
4.28
0
VERTEX
10
8.56812
20
8.57726
30
4.28
0
VERTEX
10
8.56812
20
8.56507
30
4.28
0
VERTEX
10
8.56812
20
8.56355
30
4.28
0
SEQEND
0
POLYLINE
62
227
66
1
70
1
3
endoplasmic_reticulum
0
VERTEX
10
7.94957
20
7.93564
30
4.28
0
VERTEX
10
7.95886
20
7.92868
30
4.28
0
VERTEX
10
7.97743
20
7.92636
30
4.28
0
VERTEX
10
7.99601
20
7.92868
30
4.28
0
VERTEX
10
8.0053
20
7.931
30
4.28
0
VERTEX
10
8.02387
20
7.94725
30
4.28
0
VERTEX
10
8.03083
20
7.95422
30
4.28
0
VERTEX
10
8.03548
20
7.97279
30
4.28
0
VERTEX
10
8.03548
20
7.98208
30
4.28
0
VERTEX
10
8.02619
20
8.00065
30
4.28
0
VERTEX
10
8.01923
20
8.00762
30
4.28
0
VERTEX
10
7.98208
20
7.99833
30
4.28
0
VERTEX
10
7.97279
20
7.99601
30
4.28
0
VERTEX
10
7.96118
20
7.98208
30
4.28
0
VERTEX
10
7.95654
20
7.97743
30
4.28
0
VERTEX
10
7.95654
20
7.97279
30
4.28
0
VERTEX
10
7.9519
20
7.96815
30
4.28
0
VERTEX
10
7.94957
20
7.94957
30
4.28
0
VERTEX
10
7.94957
20
7.94029
30
4.28
0
VERTEX
10
7.94957
20
7.93797
30
4.28
0
SEQEND
0
ENDSEC
0
EOF
