0
SECTION
2
ENTITIES
0
POLYLINE
62
31
66
1
70
1
3
contour
0
VERTEX
10
7.79322
20
10.1858
30
7.6
0
VERTEX
10
7.80306
20
10.176
30
7.6
0
VERTEX
10
7.80799
20
10.1366
30
7.6
0
VERTEX
10
7.80306
20
10.0578
30
7.6
0
VERTEX
10
7.81783
20
9.90029
30
7.6
0
VERTEX
10
7.81783
20
9.86091
30
7.6
0
VERTEX
10
7.8523
20
9.78214
30
7.6
0
VERTEX
10
7.85722
20
9.76245
30
7.6
0
VERTEX
10
7.87199
20
9.74275
30
7.6
0
VERTEX
10
7.87199
20
9.72306
30
7.6
0
VERTEX
10
7.89168
20
9.6886
30
7.6
0
VERTEX
10
7.90645
20
9.66891
30
7.6
0
VERTEX
10
7.90645
20
9.65906
30
7.6
0
VERTEX
10
7.91629
20
9.65414
30
7.6
0
VERTEX
10
7.91629
20
9.64429
30
7.6
0
VERTEX
10
7.95076
20
9.60491
30
7.6
0
VERTEX
10
7.97045
20
9.59014
30
7.6
0
VERTEX
10
8.04922
20
9.59506
30
7.6
0
VERTEX
10
8.0886
20
9.60491
30
7.6
0
VERTEX
10
8.16737
20
9.60983
30
7.6
0
VERTEX
10
8.18706
20
9.60983
30
7.6
0
VERTEX
10
8.19691
20
9.60983
30
7.6
0
VERTEX
10
8.20676
20
9.61968
30
7.6
0
VERTEX
10
8.36429
20
9.6246
30
7.6
0
VERTEX
10
8.44306
20
9.6246
30
7.6
0
VERTEX
10
8.46276
20
9.6246
30
7.6
0
VERTEX
10
8.49722
20
9.64922
30
7.6
0
VERTEX
10
8.50706
20
9.64922
30
7.6
0
VERTEX
10
8.52183
20
9.66398
30
7.6
0
VERTEX
10
8.53168
20
9.66891
30
7.6
0
VERTEX
10
8.52183
20
9.74768
30
7.6
0
VERTEX
10
8.50706
20
9.78706
30
7.6
0
VERTEX
10
8.48245
20
9.82645
30
7.6
0
VERTEX
10
8.46276
20
9.83629
30
7.6
0
VERTEX
10
8.43814
20
9.87568
30
7.6
0
VERTEX
10
8.43814
20
9.89537
30
7.6
0
VERTEX
10
8.42337
20
9.90521
30
7.6
0
VERTEX
10
8.39876
20
9.9446
30
7.6
0
VERTEX
10
8.35937
20
9.97414
30
7.6
0
VERTEX
10
8.31999
20
9.97906
30
7.6
0
VERTEX
10
8.30029
20
9.97906
30
7.6
0
VERTEX
10
8.2806
20
9.99383
30
7.6
0
VERTEX
10
8.26091
20
9.99875
30
7.6
0
VERTEX
10
8.22645
20
10.0283
30
7.6
0
VERTEX
10
8.23137
20
10.048
30
7.6
0
VERTEX
10
8.25106
20
10.0578
30
7.6
0
VERTEX
10
8.26091
20
10.0628
30
7.6
0
VERTEX
10
8.26583
20
10.0824
30
7.6
0
VERTEX
10
8.2806
20
10.1021
30
7.6
0
VERTEX
10
8.2806
20
10.112
30
7.6
0
VERTEX
10
8.29045
20
10.1218
30
7.6
0
VERTEX
10
8.29537
20
10.2006
30
7.6
0
VERTEX
10
8.29045
20
10.24
30
7.6
0
VERTEX
10
8.27568
20
10.2794
30
7.6
0
VERTEX
10
8.25599
20
10.2794
30
7.6
0
VERTEX
10
8.25106
20
10.2744
30
7.6
0
VERTEX
10
8.23137
20
10.2892
30
7.6
0
VERTEX
10
8.22153
20
10.2892
30
7.6
0
VERTEX
10
8.18706
20
10.3188
30
7.6
0
VERTEX
10
8.16737
20
10.3286
30
7.6
0
VERTEX
10
8.12799
20
10.3286
30
7.6
0
VERTEX
10
8.10829
20
10.3286
30
7.6
0
VERTEX
10
8.0886
20
10.3384
30
7.6
0
VERTEX
10
8.07876
20
10.3384
30
7.6
0
VERTEX
10
8.01476
20
10.4074
30
7.6
0
VERTEX
10
8.00983
20
10.4172
30
7.6
0
VERTEX
10
7.99014
20
10.4024
30
7.6
0
VERTEX
10
7.95076
20
10.3975
30
7.6
0
VERTEX
10
7.94091
20
10.3877
30
7.6
0
VERTEX
10
7.86214
20
10.3581
30
7.6
0
VERTEX
10
7.82768
20
10.3434
30
7.6
0
VERTEX
10
7.81291
20
10.3237
30
7.6
0
VERTEX
10
7.79322
20
10.2449
30
7.6
0
VERTEX
10
7.79322
20
10.2055
30
7.6
0
VERTEX
10
7.79322
20
10.1908
30
7.6
0
SEQEND
0
POLYLINE
62
224
66
1
70
1
3
mitochondrion
0
VERTEX
10
8.0061
20
9.84424
30
7.6
0
VERTEX
10
8.00888
20
9.83868
30
7.6
0
VERTEX
10
8.00888
20
9.82756
30
7.6
0
VERTEX
10
8.01166
20
9.81644
30
7.6
0
VERTEX
10
8.01305
20
9.81087
30
7.6
0
VERTEX
10
8.01305
20
9.80809
30
7.6
0
VERTEX
10
8.01722
20
9.80253
30
7.6
0
VERTEX
10
8.01861
20
9.79697
30
7.6
0
VERTEX
10
8.03668
20
9.77611
30
7.6
0
VERTEX
10
8.04225
20
9.77055
30
7.6
0
VERTEX
10
8.04503
20
9.76499
30
7.6
0
VERTEX
10
8.05059
20
9.76082
30
7.6
0
VERTEX
10
8.05754
20
9.75248
30
7.6
0
VERTEX
10
8.05893
20
9.74691
30
7.6
0
VERTEX
10
8.06866
20
9.73718
30
7.6
0
VERTEX
10
8.0784
20
9.73023
30
7.6
0
VERTEX
10
8.07979
20
9.72745
30
7.6
0
VERTEX
10
8.08535
20
9.72606
30
7.6
0
VERTEX
10
8.09091
20
9.72189
30
7.6
0
VERTEX
10
8.10064
20
9.71771
30
7.6
0
VERTEX
10
8.10343
20
9.71493
30
7.6
0
VERTEX
10
8.14792
20
9.71632
30
7.6
0
VERTEX
10
8.17017
20
9.71911
30
7.6
0
VERTEX
10
8.18129
20
9.7205
30
7.6
0
VERTEX
10
8.20354
20
9.72745
30
7.6
0
VERTEX
10
8.21466
20
9.72884
30
7.6
0
VERTEX
10
8.22022
20
9.73162
30
7.6
0
VERTEX
10
8.22578
20
9.73162
30
7.6
0
VERTEX
10
8.24664
20
9.73857
30
7.6
0
VERTEX
10
8.2522
20
9.73996
30
7.6
0
VERTEX
10
8.25776
20
9.74413
30
7.6
0
VERTEX
10
8.25915
20
9.74691
30
7.6
0
VERTEX
10
8.26472
20
9.7483
30
7.6
0
VERTEX
10
8.2675
20
9.7483
30
7.6
0
VERTEX
10
8.26889
20
9.74552
30
7.6
0
VERTEX
10
8.28001
20
9.74691
30
7.6
0
VERTEX
10
8.30226
20
9.75804
30
7.6
0
VERTEX
10
8.31199
20
9.76221
30
7.6
0
VERTEX
10
8.31755
20
9.76499
30
7.6
0
VERTEX
10
8.32172
20
9.78724
30
7.6
0
VERTEX
10
8.32033
20
9.83173
30
7.6
0
VERTEX
10
8.31616
20
9.83729
30
7.6
0
VERTEX
10
8.31477
20
9.84842
30
7.6
0
VERTEX
10
8.30643
20
9.85676
30
7.6
0
VERTEX
10
8.29391
20
9.87761
30
7.6
0
VERTEX
10
8.29113
20
9.88318
30
7.6
0
VERTEX
10
8.28835
20
9.88596
30
7.6
0
VERTEX
10
8.28696
20
9.89152
30
7.6
0
VERTEX
10
8.28696
20
9.8943
30
7.6
0
VERTEX
10
8.28279
20
9.89986
30
7.6
0
VERTEX
10
8.27862
20
9.91098
30
7.6
0
VERTEX
10
8.25915
20
9.93184
30
7.6
0
VERTEX
10
8.24803
20
9.94157
30
7.6
0
VERTEX
10
8.22717
20
9.95687
30
7.6
0
VERTEX
10
8.22161
20
9.96243
30
7.6
0
VERTEX
10
8.21188
20
9.96799
30
7.6
0
VERTEX
10
8.19102
20
9.98329
30
7.6
0
VERTEX
10
8.1799
20
9.98468
30
7.6
0
VERTEX
10
8.17434
20
9.98746
30
7.6
0
VERTEX
10
8.15209
20
9.98746
30
7.6
0
VERTEX
10
8.14653
20
9.98746
30
7.6
0
VERTEX
10
8.14375
20
9.98746
30
7.6
0
VERTEX
10
8.14097
20
9.98468
30
7.6
0
VERTEX
10
8.14097
20
9.97912
30
7.6
0
VERTEX
10
8.09647
20
9.97494
30
7.6
0
VERTEX
10
8.09091
20
9.97494
30
7.6
0
VERTEX
10
8.06866
20
9.96799
30
7.6
0
VERTEX
10
8.0631
20
9.9666
30
7.6
0
VERTEX
10
8.04225
20
9.94714
30
7.6
0
VERTEX
10
8.03947
20
9.94157
30
7.6
0
VERTEX
10
8.03668
20
9.93879
30
7.6
0
VERTEX
10
8.03668
20
9.93601
30
7.6
0
VERTEX
10
8.02973
20
9.92489
30
7.6
0
VERTEX
10
8.02695
20
9.92211
30
7.6
0
VERTEX
10
8.00888
20
9.87761
30
7.6
0
VERTEX
10
8.0061
20
9.85537
30
7.6
0
VERTEX
10
8.0061
20
9.84563
30
7.6
0
SEQEND
0
POLYLINE
62
236
66
1
70
1
3
postsynaptic_density
0
VERTEX
10
7.17752
20
8.8478
30
7.6
0
VERTEX
10
7.18125
20
8.84033
30
7.6
0
VERTEX
10
7.18125
20
8.8254
30
7.6
0
VERTEX
10
7.18685
20
8.79554
30
7.6
0
VERTEX
10
7.18872
20
8.78061
30
7.6
0
VERTEX
10
7.19805
20
8.76568
30
7.6
0
VERTEX
10
7.20178
20
8.76195
30
7.6
0
VERTEX
10
7.20552
20
8.74702
30
7.6
0
VERTEX
10
7.20738
20
8.73956
30
7.6
0
VERTEX
10
7.21298
20
8.73396
30
7.6
0
VERTEX
10
7.21485
20
8.72649
30
7.6
0
VERTEX
10
7.22231
20
8.71903
30
7.6
0
VERTEX
10
7.25217
20
8.71903
30
7.6
0
VERTEX
10
7.2671
20
8.71903
30
7.6
0
VERTEX
10
7.29696
20
8.72836
30
7.6
0
VERTEX
10
7.30816
20
8.73956
30
7.6
0
VERTEX
10
7.31002
20
8.75449
30
7.6
0
VERTEX
10
7.30629
20
8.78435
30
7.6
0
VERTEX
10
7.30629
20
8.79928
30
7.6
0
VERTEX
10
7.30256
20
8.80674
30
7.6
0
VERTEX
10
7.30069
20
8.82167
30
7.6
0
VERTEX
10
7.29509
20
8.8366
30
7.6
0
VERTEX
10
7.28576
20
8.85153
30
7.6
0
VERTEX
10
7.2839
20
8.86646
30
7.6
0
VERTEX
10
7.2727
20
8.89445
30
7.6
0
VERTEX
10
7.2727
20
8.90938
30
7.6
0
VERTEX
10
7.26897
20
8.91685
30
7.6
0
VERTEX
10
7.26897
20
8.92058
30
7.6
0
VERTEX
10
7.2559
20
8.93551
30
7.6
0
VERTEX
10
7.25217
20
8.93924
30
7.6
0
VERTEX
10
7.24471
20
8.93924
30
7.6
0
VERTEX
10
7.24097
20
8.93924
30
7.6
0
VERTEX
10
7.23724
20
8.94298
30
7.6
0
VERTEX
10
7.20738
20
8.94298
30
7.6
0
VERTEX
10
7.20178
20
8.93551
30
7.6
0
VERTEX
10
7.19059
20
8.90565
30
7.6
0
VERTEX
10
7.18685
20
8.89819
30
7.6
0
VERTEX
10
7.17939
20
8.89445
30
7.6
0
VERTEX
10
7.17752
20
8.86459
30
7.6
0
VERTEX
10
7.17752
20
8.84966
30
7.6
0
SEQEND
0
POLYLINE
62
227
66
1
70
1
3
endoplasmic_reticulum
0
VERTEX
10
8.18995
20
10.1238
30
7.6
0
VERTEX
10
8.19174
20
10.1202
30
7.6
0
VERTEX
10
8.19533
20
10.1175
30
7.6
0
VERTEX
10
8.20967
20
10.1166
30
7.6
0
VERTEX
10
8.21685
20
10.1175
30
7.6
0
VERTEX
10
8.22402
20
10.1202
30
7.6
0
VERTEX
10
8.2276
20
10.1211
30
7.6
0
VERTEX
10
8.23478
20
10.1274
30
7.6
0
VERTEX
10
8.23657
20
10.1292
30
7.6
0
VERTEX
10
8.23657
20
10.1328
30
7.6
0
VERTEX
10
8.24912
20
10.1444
30
7.6
0
VERTEX
10
8.25091
20
10.1471
30
7.6
0
VERTEX
10
8.25091
20
10.1489
30
7.6
0
VERTEX
10
8.2545
20
10.1498
30
7.6
0
VERTEX
10
8.25629
20
10.1534
30
7.6
0
VERTEX
10
8.25629
20
10.1606
30
7.6
0
VERTEX
10
8.25002
20
10.174
30
7.6
0
VERTEX
10
8.25002
20
10.1758
30
7.6
0
VERTEX
10
8.24553
20
10.183
30
7.6
0
VERTEX
10
8.24464
20
10.1866
30
7.6
0
VERTEX
10
8.24195
20
10.1901
30
7.6
0
VERTEX
10
8.23478
20
10.1937
30
7.6
0
VERTEX
10
8.23119
20
10.1946
30
7.6
0
VERTEX
10
8.22402
20
10.1928
30
7.6
0
VERTEX
10
8.22043
20
10.1928
30
7.6
0
VERTEX
10
8.21864
20
10.1928
30
7.6
0
VERTEX
10
8.21505
20
10.1901
30
7.6
0
VERTEX
10
8.20519
20
10.1767
30
7.6
0
VERTEX
10
8.20071
20
10.1695
30
7.6
0
VERTEX
10
8.19802
20
10.1659
30
7.6
0
VERTEX
10
8.19622
20
10.1588
30
7.6
0
VERTEX
10
8.19443
20
10.1552
30
7.6
0
VERTEX
10
8.19264
20
10.1408
30
7.6
0
VERTEX
10
8.19264
20
10.139
30
7.6
0
VERTEX
10
8.18995
20
10.1355
30
7.6
0
VERTEX
10
8.18995
20
10.1283
30
7.6
0
VERTEX
10
8.18995
20
10.1247
30
7.6
0
SEQEND
0
POLYLINE
62
227
66
1
70
1
3
endoplasmic_reticulum
0
VERTEX
10
7.8663
20
10.1641
30
7.6
0
VERTEX
10
7.86899
20
10.157
30
7.6
0
VERTEX
10
7.87167
20
10.1283
30
7.6
0
VERTEX
10
7.88243
20
10.1157
30
7.6
0
VERTEX
10
7.88871
20
10.1112
30
7.6
0
VERTEX
10
7.89319
20
10.1059
30
7.6
0
VERTEX
10
7.8923
20
10.1023
30
7.6
0
VERTEX
10
7.89499
20
10.0987
30
7.6
0
VERTEX
10
7.89588
20
10.0951
30
7.6
0
VERTEX
10
7.90036
20
10.0879
30
7.6
0
VERTEX
10
7.90216
20
10.0808
30
7.6
0
VERTEX
10
7.90305
20
10.0772
30
7.6
0
VERTEX
10
7.90933
20
10.0718
30
7.6
0
VERTEX
10
7.91202
20
10.0691
30
7.6
0
VERTEX
10
7.91919
20
10.0682
30
7.6
0
VERTEX
10
7.92636
20
10.0691
30
7.6
0
VERTEX
10
7.92995
20
10.07
30
7.6
0
VERTEX
10
7.93533
20
10.0754
30
7.6
0
VERTEX
10
7.93533
20
10.0826
30
7.6
0
VERTEX
10
7.93712
20
10.0844
30
7.6
0
VERTEX
10
7.93623
20
10.0987
30
7.6
0
VERTEX
10
7.93443
20
10.1023
30
7.6
0
VERTEX
10
7.93085
20
10.105
30
7.6
0
VERTEX
10
7.92995
20
10.1086
30
7.6
0
VERTEX
10
7.92367
20
10.1148
30
7.6
0
VERTEX
10
7.9165
20
10.1166
30
7.6
0
VERTEX
10
7.91561
20
10.1301
30
7.6
0
VERTEX
10
7.91561
20
10.1337
30
7.6
0
VERTEX
10
7.91561
20
10.1355
30
7.6
0
VERTEX
10
7.9183
20
10.139
30
7.6
0
VERTEX
10
7.91919
20
10.1426
30
7.6
0
VERTEX
10
7.92278
20
10.1444
30
7.6
0
VERTEX
10
7.92367
20
10.148
30
7.6
0
VERTEX
10
7.92278
20
10.1624
30
7.6
0
VERTEX
10
7.92098
20
10.1695
30
7.6
0
VERTEX
10
7.9174
20
10.1758
30
7.6
0
VERTEX
10
7.91202
20
10.183
30
7.6
0
VERTEX
10
7.90843
20
10.1892
30
7.6
0
VERTEX
10
7.90126
20
10.1964
30
7.6
0
VERTEX
10
7.89409
20
10.1928
30
7.6
0
VERTEX
10
7.8905
20
10.191
30
7.6
0
VERTEX
10
7.88333
20
10.1901
30
7.6
0
VERTEX
10
7.86899
20
10.1839
30
7.6
0
VERTEX
10
7.86809
20
10.1767
30
7.6
0
VERTEX
10
7.8663
20
10.1731
30
7.6
0
VERTEX
10
7.8663
20
10.1659
30
7.6
0
VERTEX
10
7.8663
20
10.165
30
7.6
0
SEQEND
0
POLYLINE
62
227
66
1
70
1
3
endoplasmic_reticulum
0
VERTEX
10
8.20071
20
10.0664
30
7.6
0
VERTEX
10
8.2034
20
10.0592
30
7.6
0
VERTEX
10
8.20519
20
10.0449
30
7.6
0
VERTEX
10
8.2025
20
10.0306
30
7.6
0
VERTEX
10
8.2025
20
10.0162
30
7.6
0
VERTEX
10
8.20429
20
10.009
30
7.6
0
VERTEX
10
8.20429
20
10.0055
30
7.6
0
VERTEX
10
8.20609
20
10.0019
30
7.6
0
VERTEX
10
8.21326
20
9.99649
30
7.6
0
VERTEX
10
8.21685
20
9.9947
30
7.6
0
VERTEX
10
8.21774
20
9.9929
30
7.6
0
VERTEX
10
8.21953
20
9.9929
30
7.6
0
VERTEX
10
8.23209
20
9.98125
30
7.6
0
VERTEX
10
8.23567
20
9.98035
30
7.6
0
VERTEX
10
8.24195
20
9.97497
30
7.6
0
VERTEX
10
8.24822
20
9.9678
30
7.6
0
VERTEX
10
8.25809
20
9.95614
30
7.6
0
VERTEX
10
8.26167
20
9.95256
30
7.6
0
VERTEX
10
8.26616
20
9.94539
30
7.6
0
VERTEX
10
8.26795
20
9.94359
30
7.6
0
VERTEX
10
8.26884
20
9.94001
30
7.6
0
VERTEX
10
8.26884
20
9.93821
30
7.6
0
VERTEX
10
8.27422
20
9.93283
30
7.6
0
VERTEX
10
8.27781
20
9.92566
30
7.6
0
VERTEX
10
8.28409
20
9.92028
30
7.6
0
VERTEX
10
8.29036
20
9.90594
30
7.6
0
VERTEX
10
8.30022
20
9.89159
30
7.6
0
VERTEX
10
8.3065
20
9.88532
30
7.6
0
VERTEX
10
8.31278
20
9.88083
30
7.6
0
VERTEX
10
8.31636
20
9.87994
30
7.6
0
VERTEX
10
8.32891
20
9.86828
30
7.6
0
VERTEX
10
8.33788
20
9.85483
30
7.6
0
VERTEX
10
8.34326
20
9.84856
30
7.6
0
VERTEX
10
8.34505
20
9.84677
30
7.6
0
VERTEX
10
8.34415
20
9.84497
30
7.6
0
VERTEX
10
8.34505
20
9.84139
30
7.6
0
VERTEX
10
8.35133
20
9.83421
30
7.6
0
VERTEX
10
8.35312
20
9.83332
30
7.6
0
VERTEX
10
8.35402
20
9.82973
30
7.6
0
VERTEX
10
8.3576
20
9.82615
30
7.6
0
VERTEX
10
8.3594
20
9.82525
30
7.6
0
VERTEX
10
8.3594
20
9.82346
30
7.6
0
VERTEX
10
8.36298
20
9.81987
30
7.6
0
VERTEX
10
8.37733
20
9.81359
30
7.6
0
VERTEX
10
8.38091
20
9.8118
30
7.6
0
VERTEX
10
8.38809
20
9.8118
30
7.6
0
VERTEX
10
8.39167
20
9.8118
30
7.6
0
VERTEX
10
8.39884
20
9.81718
30
7.6
0
VERTEX
10
8.40064
20
9.82077
30
7.6
0
VERTEX
10
8.40243
20
9.82256
30
7.6
0
VERTEX
10
8.40333
20
9.8369
30
7.6
0
VERTEX
10
8.40243
20
9.84408
30
7.6
0
VERTEX
10
8.39974
20
9.84677
30
7.6
0
VERTEX
10
8.39974
20
9.86111
30
7.6
0
VERTEX
10
8.39884
20
9.86828
30
7.6
0
VERTEX
10
8.39526
20
9.87546
30
7.6
0
VERTEX
10
8.38988
20
9.88263
30
7.6
0
VERTEX
10
8.37643
20
9.89159
30
7.6
0
VERTEX
10
8.37284
20
9.89787
30
7.6
0
VERTEX
10
8.36567
20
9.90414
30
7.6
0
VERTEX
10
8.36388
20
9.90773
30
7.6
0
VERTEX
10
8.35043
20
9.91939
30
7.6
0
VERTEX
10
8.34415
20
9.92387
30
7.6
0
VERTEX
10
8.33878
20
9.93014
30
7.6
0
VERTEX
10
8.33698
20
9.93194
30
7.6
0
VERTEX
10
8.33609
20
9.93552
30
7.6
0
VERTEX
10
8.32443
20
9.94897
30
7.6
0
VERTEX
10
8.31815
20
9.95345
30
7.6
0
VERTEX
10
8.31367
20
9.95973
30
7.6
0
VERTEX
10
8.3065
20
9.96421
30
7.6
0
VERTEX
10
8.30202
20
9.97139
30
7.6
0
VERTEX
10
8.29753
20
9.97587
30
7.6
0
VERTEX
10
8.29753
20
9.97766
30
7.6
0
VERTEX
10
8.29395
20
9.98035
30
7.6
0
VERTEX
10
8.29036
20
9.98752
30
7.6
0
VERTEX
10
8.28588
20
9.99201
30
7.6
0
VERTEX
10
8.28588
20
9.9938
30
7.6
0
VERTEX
10
8.2796
20
10.0001
30
7.6
0
VERTEX
10
8.27602
20
10.0028
30
7.6
0
VERTEX
10
8.27512
20
10.0046
30
7.6
0
VERTEX
10
8.27153
20
10.0055
30
7.6
0
VERTEX
10
8.26974
20
10.0055
30
7.6
0
VERTEX
10
8.26347
20
10.0108
30
7.6
0
VERTEX
10
8.25898
20
10.0153
30
7.6
0
VERTEX
10
8.25181
20
10.018
30
7.6
0
VERTEX
10
8.25002
20
10.0171
30
7.6
0
VERTEX
10
8.24553
20
10.0243
30
7.6
0
VERTEX
10
8.24284
20
10.0279
30
7.6
0
VERTEX
10
8.24284
20
10.0297
30
7.6
0
VERTEX
10
8.24016
20
10.0332
30
7.6
0
VERTEX
10
8.23836
20
10.035
30
7.6
0
VERTEX
10
8.23836
20
10.0368
30
7.6
0
VERTEX
10
8.23567
20
10.0404
30
7.6
0
VERTEX
10
8.23478
20
10.044
30
7.6
0
VERTEX
10
8.23298
20
10.0458
30
7.6
0
VERTEX
10
8.23298
20
10.0601
30
7.6
0
VERTEX
10
8.23298
20
10.0673
30
7.6
0
VERTEX
10
8.23209
20
10.0709
30
7.6
0
VERTEX
10
8.2276
20
10.0754
30
7.6
0
VERTEX
10
8.2276
20
10.079
30
7.6
0
VERTEX
10
8.22581
20
10.0817
30
7.6
0
VERTEX
10
8.21953
20
10.0861
30
7.6
0
VERTEX
10
8.21595
20
10.0888
30
7.6
0
VERTEX
10
8.2016
20
10.0897
30
7.6
0
VERTEX
10
8.20071
20
10.0879
30
7.6
0
VERTEX
10
8.2034
20
10.0844
30
7.6
0
VERTEX
10
8.20071
20
10.0772
30
7.6
0
VERTEX
10
8.20071
20
10.07
30
7.6
0
VERTEX
10
8.20071
20
10.0673
30
7.6
0
SEQEND
0
POLYLINE
62
31
66
1
70
1
3
contour
0
VERTEX
10
7.23335
20
8.86311
30
7.6
0
VERTEX
10
7.23631
20
8.85719
30
7.6
0
VERTEX
10
7.23631
20
8.83353
30
7.6
0
VERTEX
10
7.23631
20
8.82761
30
7.6
0
VERTEX
10
7.24074
20
8.8217
30
7.6
0
VERTEX
10
7.2437
20
8.80987
30
7.6
0
VERTEX
10
7.2437
20
8.79804
30
7.6
0
VERTEX
10
7.24518
20
8.79212
30
7.6
0
VERTEX
10
7.2437
20
8.7862
30
7.6
0
VERTEX
10
7.24222
20
8.78325
30
7.6
0
VERTEX
10
7.24518
20
8.78029
30
7.6
0
VERTEX
10
7.24962
20
8.76846
30
7.6
0
VERTEX
10
7.2511
20
8.76254
30
7.6
0
VERTEX
10
7.26736
20
8.74036
30
7.6
0
VERTEX
10
7.27624
20
8.73001
30
7.6
0
VERTEX
10
7.28067
20
8.72409
30
7.6
0
VERTEX
10
7.2925
20
8.7167
30
7.6
0
VERTEX
10
7.29546
20
8.7167
30
7.6
0
VERTEX
10
7.2999
20
8.71078
30
7.6
0
VERTEX
10
7.31173
20
8.7093
30
7.6
0
VERTEX
10
7.33539
20
8.71226
30
7.6
0
VERTEX
10
7.35906
20
8.71817
30
7.6
0
VERTEX
10
7.36201
20
8.72113
30
7.6
0
VERTEX
10
7.37384
20
8.72409
30
7.6
0
VERTEX
10
7.3768
20
8.72409
30
7.6
0
VERTEX
10
7.37976
20
8.72705
30
7.6
0
VERTEX
10
7.38272
20
8.72705
30
7.6
0
VERTEX
10
7.38716
20
8.73296
30
7.6
0
VERTEX
10
7.39307
20
8.73444
30
7.6
0
VERTEX
10
7.4123
20
8.75367
30
7.6
0
VERTEX
10
7.41673
20
8.75958
30
7.6
0
VERTEX
10
7.42117
20
8.77141
30
7.6
0
VERTEX
10
7.42413
20
8.77733
30
7.6
0
VERTEX
10
7.42561
20
8.78916
30
7.6
0
VERTEX
10
7.42561
20
8.79508
30
7.6
0
VERTEX
10
7.43004
20
8.80691
30
7.6
0
VERTEX
10
7.44631
20
8.82909
30
7.6
0
VERTEX
10
7.48181
20
8.86754
30
7.6
0
VERTEX
10
7.49216
20
8.87642
30
7.6
0
VERTEX
10
7.49659
20
8.88233
30
7.6
0
VERTEX
10
7.50103
20
8.89416
30
7.6
0
VERTEX
10
7.50843
20
8.90304
30
7.6
0
VERTEX
10
7.51878
20
8.91487
30
7.6
0
VERTEX
10
7.52026
20
8.91783
30
7.6
0
VERTEX
10
7.52321
20
8.91783
30
7.6
0
VERTEX
10
7.53209
20
8.92818
30
7.6
0
VERTEX
10
7.55575
20
8.93853
30
7.6
0
VERTEX
10
7.55723
20
8.94149
30
7.6
0
VERTEX
10
7.56906
20
8.94593
30
7.6
0
VERTEX
10
7.58977
20
8.95924
30
7.6
0
VERTEX
10
7.61195
20
8.97846
30
7.6
0
VERTEX
10
7.61787
20
8.98142
30
7.6
0
VERTEX
10
7.6223
20
8.98734
30
7.6
0
VERTEX
10
7.62526
20
8.98734
30
7.6
0
VERTEX
10
7.63118
20
8.99177
30
7.6
0
VERTEX
10
7.64301
20
8.99621
30
7.6
0
VERTEX
10
7.64892
20
9.00065
30
7.6
0
VERTEX
10
7.6504
20
9.01248
30
7.6
0
VERTEX
10
7.65484
20
9.02431
30
7.6
0
VERTEX
10
7.66963
20
9.04649
30
7.6
0
VERTEX
10
7.67258
20
9.05093
30
7.6
0
VERTEX
10
7.68294
20
9.06276
30
7.6
0
VERTEX
10
7.69033
20
9.07311
30
7.6
0
VERTEX
10
7.69181
20
9.08494
30
7.6
0
VERTEX
10
7.69181
20
9.09086
30
7.6
0
VERTEX
10
7.68737
20
9.09678
30
7.6
0
VERTEX
10
7.66519
20
9.08938
30
7.6
0
VERTEX
10
7.65632
20
9.08051
30
7.6
0
VERTEX
10
7.63265
20
9.06572
30
7.6
0
VERTEX
10
7.62082
20
9.05832
30
7.6
0
VERTEX
10
7.61491
20
9.05389
30
7.6
0
VERTEX
10
7.60308
20
9.04945
30
7.6
0
VERTEX
10
7.59716
20
9.04649
30
7.6
0
VERTEX
10
7.59568
20
9.04353
30
7.6
0
VERTEX
10
7.59272
20
9.04353
30
7.6
0
VERTEX
10
7.58977
20
9.04058
30
7.6
0
VERTEX
10
7.57793
20
9.03762
30
7.6
0
VERTEX
10
7.5661
20
9.0317
30
7.6
0
VERTEX
10
7.54244
20
9.02579
30
7.6
0
VERTEX
10
7.53209
20
9.01839
30
7.6
0
VERTEX
10
7.50843
20
9.01691
30
7.6
0
VERTEX
10
7.48476
20
9.01248
30
7.6
0
VERTEX
10
7.47293
20
9.011
30
7.6
0
VERTEX
10
7.4611
20
9.00656
30
7.6
0
VERTEX
10
7.43744
20
9.0036
30
7.6
0
VERTEX
10
7.42561
20
9.0036
30
7.6
0
VERTEX
10
7.41969
20
9.0036
30
7.6
0
VERTEX
10
7.41673
20
9.00065
30
7.6
0
VERTEX
10
7.36941
20
8.99769
30
7.6
0
VERTEX
10
7.34575
20
8.99769
30
7.6
0
VERTEX
10
7.33983
20
8.99769
30
7.6
0
VERTEX
10
7.33391
20
8.99473
30
7.6
0
VERTEX
10
7.31025
20
8.99325
30
7.6
0
VERTEX
10
7.28659
20
8.98734
30
7.6
0
VERTEX
10
7.27476
20
8.9829
30
7.6
0
VERTEX
10
7.25701
20
8.96367
30
7.6
0
VERTEX
10
7.25257
20
8.95776
30
7.6
0
VERTEX
10
7.24962
20
8.9548
30
7.6
0
VERTEX
10
7.24962
20
8.95184
30
7.6
0
VERTEX
10
7.24222
20
8.94001
30
7.6
0
VERTEX
10
7.24222
20
8.93409
30
7.6
0
VERTEX
10
7.23779
20
8.92966
30
7.6
0
VERTEX
10
7.23335
20
8.906
30
7.6
0
VERTEX
10
7.23335
20
8.88233
30
7.6
0
VERTEX
10
7.23335
20
8.8705
30
7.6
0
VERTEX
10
7.23335
20
8.86459
30
7.6
0
SEQEND
0
ENDSEC
0
EOF
