0
SECTION
2
ENTITIES
0
POLYLINE
62
31
66
1
70
1
3
contour
0
VERTEX
10
9.73649
20
8.19985
30
3.68
0
VERTEX
10
9.74314
20
8.18211
30
3.68
0
VERTEX
10
9.74314
20
8.17324
30
3.68
0
VERTEX
10
9.75423
20
8.1555
30
3.68
0
VERTEX
10
9.75645
20
8.14663
30
3.68
0
VERTEX
10
9.77197
20
8.12889
30
3.68
0
VERTEX
10
9.77419
20
8.12002
30
3.68
0
VERTEX
10
9.80966
20
8.0912
30
3.68
0
VERTEX
10
9.8141
20
8.08676
30
3.68
0
VERTEX
10
9.81853
20
8.08676
30
3.68
0
VERTEX
10
9.8274
20
8.08011
30
3.68
0
VERTEX
10
9.83627
20
8.07789
30
3.68
0
VERTEX
10
9.84514
20
8.07124
30
3.68
0
VERTEX
10
9.85401
20
8.06902
30
3.68
0
VERTEX
10
9.86288
20
8.06237
30
3.68
0
VERTEX
10
9.87175
20
8.06016
30
3.68
0
VERTEX
10
9.8784
20
8.0535
30
3.68
0
VERTEX
10
9.91388
20
8.04242
30
3.68
0
VERTEX
10
9.94936
20
8.02689
30
3.68
0
VERTEX
10
9.95601
20
8.02246
30
3.68
0
VERTEX
10
9.97153
20
8.00694
30
3.68
0
VERTEX
10
9.98927
20
8.0025
30
3.68
0
VERTEX
10
10.0247
20
7.98698
30
3.68
0
VERTEX
10
10.0336
20
7.98476
30
3.68
0
VERTEX
10
10.0381
20
7.98476
30
3.68
0
VERTEX
10
10.0403
20
7.98033
30
3.68
0
VERTEX
10
10.0491
20
7.97811
30
3.68
0
VERTEX
10
10.058
20
7.97146
30
3.68
0
VERTEX
10
10.0602
20
7.96703
30
3.68
0
VERTEX
10
10.0691
20
7.96703
30
3.68
0
VERTEX
10
10.078
20
7.96037
30
3.68
0
VERTEX
10
10.1134
20
7.95372
30
3.68
0
VERTEX
10
10.1223
20
7.94929
30
3.68
0
VERTEX
10
10.1578
20
7.94929
30
3.68
0
VERTEX
10
10.1755
20
7.95372
30
3.68
0
VERTEX
10
10.1844
20
7.95594
30
3.68
0
VERTEX
10
10.1888
20
7.96037
30
3.68
0
VERTEX
10
10.1977
20
7.96259
30
3.68
0
VERTEX
10
10.2021
20
7.96481
30
3.68
0
VERTEX
10
10.2021
20
7.96924
30
3.68
0
VERTEX
10
10.2199
20
7.98033
30
3.68
0
VERTEX
10
10.2287
20
7.98255
30
3.68
0
VERTEX
10
10.2354
20
7.99142
30
3.68
0
VERTEX
10
10.2509
20
8.0025
30
3.68
0
VERTEX
10
10.2598
20
8.00472
30
3.68
0
VERTEX
10
10.2664
20
8.01359
30
3.68
0
VERTEX
10
10.2664
20
8.01803
30
3.68
0
VERTEX
10
10.2753
20
8.02689
30
3.68
0
VERTEX
10
10.2953
20
8.06237
30
3.68
0
VERTEX
10
10.2931
20
8.13333
30
3.68
0
VERTEX
10
10.2931
20
8.15107
30
3.68
0
VERTEX
10
10.2864
20
8.18655
30
3.68
0
VERTEX
10
10.2842
20
8.20428
30
3.68
0
VERTEX
10
10.2842
20
8.20872
30
3.68
0
VERTEX
10
10.2797
20
8.21315
30
3.68
0
VERTEX
10
10.2687
20
8.24863
30
3.68
0
VERTEX
10
10.262
20
8.26415
30
3.68
0
VERTEX
10
10.2598
20
8.27302
30
3.68
0
VERTEX
10
10.2465
20
8.28854
30
3.68
0
VERTEX
10
10.2398
20
8.29741
30
3.68
0
VERTEX
10
10.2376
20
8.30628
30
3.68
0
VERTEX
10
10.2376
20
8.31072
30
3.68
0
VERTEX
10
10.2154
20
8.34398
30
3.68
0
VERTEX
10
10.2132
20
8.35285
30
3.68
0
VERTEX
10
10.2132
20
8.35728
30
3.68
0
VERTEX
10
10.1999
20
8.37281
30
3.68
0
VERTEX
10
10.1667
20
8.3972
30
3.68
0
VERTEX
10
10.1489
20
8.40385
30
3.68
0
VERTEX
10
10.1334
20
8.41494
30
3.68
0
VERTEX
10
10.1157
20
8.42159
30
3.68
0
VERTEX
10
10.1068
20
8.42602
30
3.68
0
VERTEX
10
10.0979
20
8.42602
30
3.68
0
VERTEX
10
10.0891
20
8.43046
30
3.68
0
VERTEX
10
10.0713
20
8.43267
30
3.68
0
VERTEX
10
10.0358
20
8.4482
30
3.68
0
VERTEX
10
10.0004
20
8.45485
30
3.68
0
VERTEX
10
9.99592
20
8.45928
30
3.68
0
VERTEX
10
9.96044
20
8.46372
30
3.68
0
VERTEX
10
9.94271
20
8.46815
30
3.68
0
VERTEX
10
9.90723
20
8.46815
30
3.68
0
VERTEX
10
9.87175
20
8.46372
30
3.68
0
VERTEX
10
9.85401
20
8.4615
30
3.68
0
VERTEX
10
9.83627
20
8.45041
30
3.68
0
VERTEX
10
9.82075
20
8.43267
30
3.68
0
VERTEX
10
9.81632
20
8.4238
30
3.68
0
VERTEX
10
9.80745
20
8.41937
30
3.68
0
VERTEX
10
9.80523
20
8.4105
30
3.68
0
VERTEX
10
9.79858
20
8.40163
30
3.68
0
VERTEX
10
9.79636
20
8.38389
30
3.68
0
VERTEX
10
9.78527
20
8.36615
30
3.68
0
VERTEX
10
9.77862
20
8.35728
30
3.68
0
VERTEX
10
9.7764
20
8.34841
30
3.68
0
VERTEX
10
9.76975
20
8.33954
30
3.68
0
VERTEX
10
9.77197
20
8.33733
30
3.68
0
VERTEX
10
9.78084
20
8.3462
30
3.68
0
VERTEX
10
9.78305
20
8.35063
30
3.68
0
VERTEX
10
9.78084
20
8.33289
30
3.68
0
VERTEX
10
9.77419
20
8.32402
30
3.68
0
VERTEX
10
9.77419
20
8.31959
30
3.68
0
VERTEX
10
9.7631
20
8.30185
30
3.68
0
VERTEX
10
9.75645
20
8.28411
30
3.68
0
VERTEX
10
9.74979
20
8.27524
30
3.68
0
VERTEX
10
9.74536
20
8.2575
30
3.68
0
VERTEX
10
9.73649
20
8.23976
30
3.68
0
VERTEX
10
9.73649
20
8.20428
30
3.68
0
VERTEX
10
9.73649
20
8.20207
30
3.68
0
SEQEND
0
POLYLINE
62
31
66
1
70
1
3
contour
0
VERTEX
10
10.7829
20
7.798
30
3.68
0
VERTEX
10
10.796
20
7.77193
30
3.68
0
VERTEX
10
10.7992
20
7.75889
30
3.68
0
VERTEX
10
10.8155
20
7.73608
30
3.68
0
VERTEX
10
10.8383
20
7.71327
30
3.68
0
VERTEX
10
10.8905
20
7.7035
30
3.68
0
VERTEX
10
10.9165
20
7.7035
30
3.68
0
VERTEX
10
10.9296
20
7.7035
30
3.68
0
VERTEX
10
10.9361
20
7.7035
30
3.68
0
VERTEX
10
10.9426
20
7.71001
30
3.68
0
VERTEX
10
10.9491
20
7.71001
30
3.68
0
VERTEX
10
10.9524
20
7.71653
30
3.68
0
VERTEX
10
10.9785
20
7.72631
30
3.68
0
VERTEX
10
10.9882
20
7.73934
30
3.68
0
VERTEX
10
10.9915
20
7.75238
30
3.68
0
VERTEX
10
10.998
20
7.75238
30
3.68
0
VERTEX
10
11.0045
20
7.76541
30
3.68
0
VERTEX
10
11.0013
20
7.81755
30
3.68
0
VERTEX
10
10.9915
20
7.84362
30
3.68
0
VERTEX
10
10.9817
20
7.8534
30
3.68
0
VERTEX
10
10.9785
20
7.86317
30
3.68
0
VERTEX
10
10.9654
20
7.87295
30
3.68
0
VERTEX
10
10.9524
20
7.87621
30
3.68
0
VERTEX
10
10.9263
20
7.8925
30
3.68
0
VERTEX
10
10.9003
20
7.89576
30
3.68
0
VERTEX
10
10.8905
20
7.88598
30
3.68
0
VERTEX
10
10.8872
20
7.87946
30
3.68
0
VERTEX
10
10.8351
20
7.86969
30
3.68
0
VERTEX
10
10.8286
20
7.86969
30
3.68
0
VERTEX
10
10.8058
20
7.85014
30
3.68
0
VERTEX
10
10.7895
20
7.82407
30
3.68
0
VERTEX
10
10.7829
20
7.81103
30
3.68
0
VERTEX
10
10.7829
20
7.80126
30
3.68
0
SEQEND
0
POLYLINE
62
224
66
1
70
1
3
mitochondrion
0
VERTEX
10
9.91723
20
8.2445
30
3.68
0
VERTEX
10
9.9235
20
8.22777
30
3.68
0
VERTEX
10
9.9256
20
8.21941
30
3.68
0
VERTEX
10
9.93187
20
8.21104
30
3.68
0
VERTEX
10
9.93187
20
8.20686
30
3.68
0
VERTEX
10
9.93814
20
8.20059
30
3.68
0
VERTEX
10
9.93814
20
8.1964
30
3.68
0
VERTEX
10
9.95278
20
8.17968
30
3.68
0
VERTEX
10
9.95696
20
8.17131
30
3.68
0
VERTEX
10
9.9716
20
8.15877
30
3.68
0
VERTEX
10
9.97578
20
8.1504
30
3.68
0
VERTEX
10
10.0071
20
8.12322
30
3.68
0
VERTEX
10
10.0406
20
8.09186
30
3.68
0
VERTEX
10
10.0427
20
8.08768
30
3.68
0
VERTEX
10
10.0469
20
8.08768
30
3.68
0
VERTEX
10
10.0552
20
8.0814
30
3.68
0
VERTEX
10
10.072
20
8.07513
30
3.68
0
VERTEX
10
10.1054
20
8.07304
30
3.68
0
VERTEX
10
10.1389
20
8.07513
30
3.68
0
VERTEX
10
10.1472
20
8.07513
30
3.68
0
VERTEX
10
10.1619
20
8.08559
30
3.68
0
VERTEX
10
10.1681
20
8.09186
30
3.68
0
VERTEX
10
10.1681
20
8.10022
30
3.68
0
VERTEX
10
10.1744
20
8.10859
30
3.68
0
VERTEX
10
10.1765
20
8.12531
30
3.68
0
VERTEX
10
10.1807
20
8.1295
30
3.68
0
VERTEX
10
10.1807
20
8.1964
30
3.68
0
VERTEX
10
10.1702
20
8.26331
30
3.68
0
VERTEX
10
10.164
20
8.28004
30
3.68
0
VERTEX
10
10.141
20
8.31141
30
3.68
0
VERTEX
10
10.1368
20
8.31559
30
3.68
0
VERTEX
10
10.1368
20
8.31977
30
3.68
0
VERTEX
10
10.1242
20
8.33231
30
3.68
0
VERTEX
10
10.1242
20
8.3365
30
3.68
0
VERTEX
10
10.1096
20
8.35113
30
3.68
0
VERTEX
10
10.095
20
8.36159
30
3.68
0
VERTEX
10
10.0803
20
8.37622
30
3.68
0
VERTEX
10
10.072
20
8.37831
30
3.68
0
VERTEX
10
10.0636
20
8.38459
30
3.68
0
VERTEX
10
10.0301
20
8.38668
30
3.68
0
VERTEX
10
10.0134
20
8.38459
30
3.68
0
VERTEX
10
9.97996
20
8.36995
30
3.68
0
VERTEX
10
9.96532
20
8.36368
30
3.68
0
VERTEX
10
9.95696
20
8.3595
30
3.68
0
VERTEX
10
9.95278
20
8.3595
30
3.68
0
VERTEX
10
9.93814
20
8.34695
30
3.68
0
VERTEX
10
9.92978
20
8.33022
30
3.68
0
VERTEX
10
9.9256
20
8.3135
30
3.68
0
VERTEX
10
9.92141
20
8.31141
30
3.68
0
VERTEX
10
9.92141
20
8.30722
30
3.68
0
VERTEX
10
9.91723
20
8.30304
30
3.68
0
VERTEX
10
9.91723
20
8.26959
30
3.68
0
VERTEX
10
9.91723
20
8.25286
30
3.68
0
VERTEX
10
9.91723
20
8.24659
30
3.68
0
SEQEND
0
POLYLINE
62
227
66
1
70
1
3
endoplasmic_reticulum
0
VERTEX
10
9.83871
20
8.33502
30
3.68
0
VERTEX
10
9.8448
20
8.31065
30
3.68
0
VERTEX
10
9.8448
20
8.3076
30
3.68
0
VERTEX
10
9.85547
20
8.29693
30
3.68
0
VERTEX
10
9.85699
20
8.29389
30
3.68
0
VERTEX
10
9.88137
20
8.29541
30
3.68
0
VERTEX
10
9.89203
20
8.30151
30
3.68
0
VERTEX
10
9.89508
20
8.30455
30
3.68
0
VERTEX
10
9.90117
20
8.30303
30
3.68
0
VERTEX
10
9.90574
20
8.31522
30
3.68
0
VERTEX
10
9.90727
20
8.33959
30
3.68
0
VERTEX
10
9.90574
20
8.36397
30
3.68
0
VERTEX
10
9.88137
20
8.36549
30
3.68
0
VERTEX
10
9.86918
20
8.36397
30
3.68
0
VERTEX
10
9.86308
20
8.3594
30
3.68
0
VERTEX
10
9.8509
20
8.35635
30
3.68
0
VERTEX
10
9.8448
20
8.35483
30
3.68
0
VERTEX
10
9.84328
20
8.3533
30
3.68
0
VERTEX
10
9.8448
20
8.35026
30
3.68
0
VERTEX
10
9.83871
20
8.34416
30
3.68
0
VERTEX
10
9.83871
20
8.33807
30
3.68
0
VERTEX
10
9.83871
20
8.33655
30
3.68
0
SEQEND
0
POLYLINE
62
227
66
1
70
1
3
endoplasmic_reticulum
0
VERTEX
10
10.1922
20
8.23904
30
3.68
0
VERTEX
10
10.1952
20
8.236
30
3.68
0
VERTEX
10
10.1967
20
8.2299
30
3.68
0
VERTEX
10
10.2043
20
8.22228
30
3.68
0
VERTEX
10
10.2287
20
8.22381
30
3.68
0
VERTEX
10
10.2318
20
8.22381
30
3.68
0
VERTEX
10
10.2348
20
8.22838
30
3.68
0
VERTEX
10
10.2379
20
8.2299
30
3.68
0
VERTEX
10
10.2379
20
8.24209
30
3.68
0
VERTEX
10
10.2363
20
8.24514
30
3.68
0
VERTEX
10
10.2333
20
8.24514
30
3.68
0
VERTEX
10
10.2333
20
8.25123
30
3.68
0
VERTEX
10
10.2257
20
8.26342
30
3.68
0
VERTEX
10
10.2211
20
8.26951
30
3.68
0
VERTEX
10
10.2181
20
8.27256
30
3.68
0
VERTEX
10
10.2059
20
8.27561
30
3.68
0
VERTEX
10
10.1998
20
8.27561
30
3.68
0
VERTEX
10
10.1952
20
8.26342
30
3.68
0
VERTEX
10
10.1937
20
8.25732
30
3.68
0
VERTEX
10
10.1952
20
8.24514
30
3.68
0
VERTEX
10
10.1967
20
8.24361
30
3.68
0
VERTEX
10
10.1937
20
8.24361
30
3.68
0
VERTEX
10
10.1922
20
8.24057
30
3.68
0
SEQEND
0
POLYLINE
62
236
66
1
70
1
3
postsynaptic_density
0
VERTEX
10
10.7858
20
7.92309
30
3.68
0
VERTEX
10
10.7891
20
7.90995
30
3.68
0
VERTEX
10
10.7891
20
7.89681
30
3.68
0
VERTEX
10
10.7891
20
7.89024
30
3.68
0
VERTEX
10
10.7973
20
7.8771
30
3.68
0
VERTEX
10
10.799
20
7.86396
30
3.68
0
VERTEX
10
10.8039
20
7.85082
30
3.68
0
VERTEX
10
10.8088
20
7.84425
30
3.68
0
VERTEX
10
10.8121
20
7.84261
30
3.68
0
VERTEX
10
10.8154
20
7.82947
30
3.68
0
VERTEX
10
10.8187
20
7.8229
30
3.68
0
VERTEX
10
10.822
20
7.81962
30
3.68
0
VERTEX
10
10.822
20
7.81633
30
3.68
0
VERTEX
10
10.8335
20
7.80319
30
3.68
0
VERTEX
10
10.84
20
7.79826
30
3.68
0
VERTEX
10
10.8663
20
7.79334
30
3.68
0
VERTEX
10
10.8926
20
7.79334
30
3.68
0
VERTEX
10
10.9057
20
7.79991
30
3.68
0
VERTEX
10
10.909
20
7.80319
30
3.68
0
VERTEX
10
10.9156
20
7.80319
30
3.68
0
VERTEX
10
10.9189
20
7.81633
30
3.68
0
VERTEX
10
10.9172
20
7.82947
30
3.68
0
VERTEX
10
10.9123
20
7.84261
30
3.68
0
VERTEX
10
10.909
20
7.84918
30
3.68
0
VERTEX
10
10.909
20
7.85247
30
3.68
0
VERTEX
10
10.9057
20
7.85575
30
3.68
0
VERTEX
10
10.9041
20
7.86232
30
3.68
0
VERTEX
10
10.8959
20
7.87382
30
3.68
0
VERTEX
10
10.8959
20
7.8771
30
3.68
0
VERTEX
10
10.8926
20
7.88039
30
3.68
0
VERTEX
10
10.8926
20
7.88696
30
3.68
0
VERTEX
10
10.8877
20
7.9001
30
3.68
0
VERTEX
10
10.886
20
7.92637
30
3.68
0
VERTEX
10
10.886
20
7.93951
30
3.68
0
VERTEX
10
10.8844
20
7.94608
30
3.68
0
VERTEX
10
10.8729
20
7.95922
30
3.68
0
VERTEX
10
10.8696
20
7.95922
30
3.68
0
VERTEX
10
10.8581
20
7.95101
30
3.68
0
VERTEX
10
10.8056
20
7.93294
30
3.68
0
VERTEX
10
10.7924
20
7.92802
30
3.68
0
VERTEX
10
10.7858
20
7.92473
30
3.68
0
SEQEND
0
ENDSEC
0
EOF
