0
SECTION
2
ENTITIES
0
POLYLINE
62
31
66
1
70
1
3
contour
0
VERTEX
10
8.74436
20
9.08305
30
4.48
0
VERTEX
10
8.7491
20
9.07358
30
4.48
0
VERTEX
10
8.75147
20
9.06884
30
4.48
0
VERTEX
10
8.77042
20
9.06174
30
4.48
0
VERTEX
10
8.80831
20
9.05937
30
4.48
0
VERTEX
10
8.81779
20
9.05937
30
4.48
0
VERTEX
10
8.82963
20
9.07595
30
4.48
0
VERTEX
10
8.84858
20
9.09016
30
4.48
0
VERTEX
10
8.86042
20
9.10674
30
4.48
0
VERTEX
10
8.86042
20
9.11621
30
4.48
0
VERTEX
10
8.86516
20
9.12095
30
4.48
0
VERTEX
10
8.86279
20
9.15885
30
4.48
0
VERTEX
10
8.86042
20
9.17779
30
4.48
0
VERTEX
10
8.85568
20
9.18727
30
4.48
0
VERTEX
10
8.83673
20
9.19911
30
4.48
0
VERTEX
10
8.81779
20
9.20385
30
4.48
0
VERTEX
10
8.81542
20
9.20621
30
4.48
0
VERTEX
10
8.80594
20
9.20385
30
4.48
0
VERTEX
10
8.77042
20
9.17542
30
4.48
0
VERTEX
10
8.76331
20
9.17069
30
4.48
0
VERTEX
10
8.74673
20
9.13279
30
4.48
0
VERTEX
10
8.74436
20
9.0949
30
4.48
0
VERTEX
10
8.74436
20
9.08542
30
4.48
0
SEQEND
0
POLYLINE
62
31
66
1
70
1
3
contour
0
VERTEX
10
7.85882
20
7.78821
30
4.48
0
VERTEX
10
7.86153
20
7.74476
30
4.48
0
VERTEX
10
7.86968
20
7.70131
30
4.48
0
VERTEX
10
7.87782
20
7.67959
30
4.48
0
VERTEX
10
7.88054
20
7.66873
30
4.48
0
VERTEX
10
7.88869
20
7.65786
30
4.48
0
VERTEX
10
7.88869
20
7.65243
30
4.48
0
VERTEX
10
7.9077
20
7.63071
30
4.48
0
VERTEX
10
7.91313
20
7.61985
30
4.48
0
VERTEX
10
7.91313
20
7.61442
30
4.48
0
VERTEX
10
7.91856
20
7.60898
30
4.48
0
VERTEX
10
7.92127
20
7.58726
30
4.48
0
VERTEX
10
7.92399
20
7.5764
30
4.48
0
VERTEX
10
7.92942
20
7.57097
30
4.48
0
VERTEX
10
7.92942
20
7.5601
30
4.48
0
VERTEX
10
7.93485
20
7.54924
30
4.48
0
VERTEX
10
7.94571
20
7.5411
30
4.48
0
VERTEX
10
7.96744
20
7.53838
30
4.48
0
VERTEX
10
7.9783
20
7.54381
30
4.48
0
VERTEX
10
7.98645
20
7.55467
30
4.48
0
VERTEX
10
7.99188
20
7.5601
30
4.48
0
VERTEX
10
7.98916
20
7.647
30
4.48
0
VERTEX
10
7.98916
20
7.66873
30
4.48
0
VERTEX
10
7.98373
20
7.69045
30
4.48
0
VERTEX
10
7.98645
20
7.71218
30
4.48
0
VERTEX
10
7.99459
20
7.7339
30
4.48
0
VERTEX
10
7.99731
20
7.74476
30
4.48
0
VERTEX
10
7.99731
20
7.75019
30
4.48
0
VERTEX
10
8.00274
20
7.75562
30
4.48
0
VERTEX
10
8.00546
20
7.77735
30
4.48
0
VERTEX
10
8.01903
20
7.79907
30
4.48
0
VERTEX
10
8.01903
20
7.80994
30
4.48
0
VERTEX
10
8.02718
20
7.81808
30
4.48
0
VERTEX
10
8.0489
20
7.90498
30
4.48
0
VERTEX
10
8.0489
20
7.9267
30
4.48
0
VERTEX
10
8.0489
20
7.93757
30
4.48
0
VERTEX
10
8.04619
20
7.943
30
4.48
0
VERTEX
10
8.03533
20
7.94571
30
4.48
0
VERTEX
10
7.94843
20
7.93757
30
4.48
0
VERTEX
10
7.9267
20
7.93757
30
4.48
0
VERTEX
10
7.90498
20
7.92399
30
4.48
0
VERTEX
10
7.86696
20
7.88326
30
4.48
0
VERTEX
10
7.85882
20
7.86153
30
4.48
0
VERTEX
10
7.85882
20
7.81808
30
4.48
0
VERTEX
10
7.85882
20
7.79636
30
4.48
0
VERTEX
10
7.85882
20
7.79093
30
4.48
0
SEQEND
0
POLYLINE
62
31
66
1
70
1
3
contour
0
VERTEX
10
9.60402
20
9.45655
30
4.48
0
VERTEX
10
9.61426
20
9.42583
30
4.48
0
VERTEX
10
9.61836
20
9.42173
30
4.48
0
VERTEX
10
9.62245
20
9.42173
30
4.48
0
VERTEX
10
9.6245
20
9.41763
30
4.48
0
VERTEX
10
9.64089
20
9.41149
30
4.48
0
VERTEX
10
9.67366
20
9.40739
30
4.48
0
VERTEX
10
9.67776
20
9.40739
30
4.48
0
VERTEX
10
9.6839
20
9.41354
30
4.48
0
VERTEX
10
9.69209
20
9.41559
30
4.48
0
VERTEX
10
9.69619
20
9.48113
30
4.48
0
VERTEX
10
9.69619
20
9.48523
30
4.48
0
VERTEX
10
9.70029
20
9.48932
30
4.48
0
VERTEX
10
9.70233
20
9.50571
30
4.48
0
VERTEX
10
9.70233
20
9.5139
30
4.48
0
VERTEX
10
9.69824
20
9.518
30
4.48
0
VERTEX
10
9.69619
20
9.52619
30
4.48
0
VERTEX
10
9.69209
20
9.52824
30
4.48
0
VERTEX
10
9.69005
20
9.54462
30
4.48
0
VERTEX
10
9.68595
20
9.54872
30
4.48
0
VERTEX
10
9.65318
20
9.54462
30
4.48
0
VERTEX
10
9.64703
20
9.53643
30
4.48
0
VERTEX
10
9.64498
20
9.52004
30
4.48
0
VERTEX
10
9.63679
20
9.5139
30
4.48
0
VERTEX
10
9.6286
20
9.49751
30
4.48
0
VERTEX
10
9.62655
20
9.48932
30
4.48
0
VERTEX
10
9.61221
20
9.47498
30
4.48
0
VERTEX
10
9.61221
20
9.47089
30
4.48
0
VERTEX
10
9.60607
20
9.46474
30
4.48
0
VERTEX
10
9.60402
20
9.4586
30
4.48
0
SEQEND
0
POLYLINE
62
31
66
1
70
1
3
contour
0
VERTEX
10
9.70233
20
9.76583
30
4.48
0
VERTEX
10
9.70643
20
9.76173
30
4.48
0
VERTEX
10
9.70643
20
9.75354
30
4.48
0
VERTEX
10
9.70643
20
9.74944
30
4.48
0
VERTEX
10
9.71258
20
9.7433
30
4.48
0
VERTEX
10
9.71462
20
9.73715
30
4.48
0
VERTEX
10
9.72282
20
9.73101
30
4.48
0
VERTEX
10
9.72282
20
9.72691
30
4.48
0
VERTEX
10
9.72896
20
9.71872
30
4.48
0
VERTEX
10
9.7433
20
9.70848
30
4.48
0
VERTEX
10
9.74739
20
9.70029
30
4.48
0
VERTEX
10
9.75559
20
9.69824
30
4.48
0
VERTEX
10
9.77197
20
9.70233
30
4.48
0
VERTEX
10
9.78221
20
9.71667
30
4.48
0
VERTEX
10
9.78631
20
9.72486
30
4.48
0
VERTEX
10
9.78836
20
9.74125
30
4.48
0
VERTEX
10
9.7945
20
9.74739
30
4.48
0
VERTEX
10
9.80679
20
9.77812
30
4.48
0
VERTEX
10
9.82113
20
9.78836
30
4.48
0
VERTEX
10
9.8539
20
9.80065
30
4.48
0
VERTEX
10
9.86824
20
9.81089
30
4.48
0
VERTEX
10
9.87643
20
9.81294
30
4.48
0
VERTEX
10
9.9092
20
9.83137
30
4.48
0
VERTEX
10
9.92559
20
9.84161
30
4.48
0
VERTEX
10
9.93378
20
9.84776
30
4.48
0
VERTEX
10
9.94812
20
9.85185
30
4.48
0
VERTEX
10
9.95222
20
9.8539
30
4.48
0
VERTEX
10
9.95426
20
9.87029
30
4.48
0
VERTEX
10
9.96041
20
9.88667
30
4.48
0
VERTEX
10
9.96655
20
9.89487
30
4.48
0
VERTEX
10
9.97475
20
9.89896
30
4.48
0
VERTEX
10
9.98908
20
9.91535
30
4.48
0
VERTEX
10
9.99113
20
9.91944
30
4.48
0
VERTEX
10
9.99932
20
9.92149
30
4.48
0
VERTEX
10
10.0055
20
9.92968
30
4.48
0
VERTEX
10
10.0096
20
9.93378
30
4.48
0
VERTEX
10
10.0198
20
9.9645
30
4.48
0
VERTEX
10
10.026
20
9.97065
30
4.48
0
VERTEX
10
10.028
20
9.98703
30
4.48
0
VERTEX
10
10.0321
20
9.99318
30
4.48
0
VERTEX
10
10.03
20
10.0096
30
4.48
0
VERTEX
10
10.0341
20
10.0423
30
4.48
0
VERTEX
10
10.0341
20
10.0587
30
4.48
0
VERTEX
10
10.028
20
10.0751
30
4.48
0
VERTEX
10
10.0239
20
10.0833
30
4.48
0
VERTEX
10
10.0219
20
10.0997
30
4.48
0
VERTEX
10
10.0116
20
10.114
30
4.48
0
VERTEX
10
9.99523
20
10.1243
30
4.48
0
VERTEX
10
9.98703
20
10.1304
30
4.48
0
VERTEX
10
9.98703
20
10.1345
30
4.48
0
VERTEX
10
9.97884
20
10.1366
30
4.48
0
VERTEX
10
9.97475
20
10.1304
30
4.48
0
VERTEX
10
9.97065
20
10.1304
30
4.48
0
VERTEX
10
9.96655
20
10.1345
30
4.48
0
VERTEX
10
9.95017
20
10.1345
30
4.48
0
VERTEX
10
9.9174
20
10.1243
30
4.48
0
VERTEX
10
9.9133
20
10.1243
30
4.48
0
VERTEX
10
9.90511
20
10.1181
30
4.48
0
VERTEX
10
9.87234
20
10.1058
30
4.48
0
VERTEX
10
9.858
20
10.0956
30
4.48
0
VERTEX
10
9.84161
20
10.0894
30
4.48
0
VERTEX
10
9.80884
20
10.071
30
4.48
0
VERTEX
10
9.80474
20
10.071
30
4.48
0
VERTEX
10
9.79246
20
10.0567
30
4.48
0
VERTEX
10
9.79041
20
10.0485
30
4.48
0
VERTEX
10
9.78426
20
10.0403
30
4.48
0
VERTEX
10
9.78017
20
10.0239
30
4.48
0
VERTEX
10
9.77607
20
10.0198
30
4.48
0
VERTEX
10
9.76993
20
10.0034
30
4.48
0
VERTEX
10
9.76993
20
9.99932
30
4.48
0
VERTEX
10
9.76583
20
9.99523
30
4.48
0
VERTEX
10
9.76378
20
9.98703
30
4.48
0
VERTEX
10
9.75764
20
9.98089
30
4.48
0
VERTEX
10
9.75764
20
9.9727
30
4.48
0
VERTEX
10
9.75764
20
9.9686
30
4.48
0
VERTEX
10
9.75149
20
9.96041
30
4.48
0
VERTEX
10
9.75149
20
9.95631
30
4.48
0
VERTEX
10
9.74535
20
9.95017
30
4.48
0
VERTEX
10
9.74739
20
9.94197
30
4.48
0
VERTEX
10
9.7433
20
9.93378
30
4.48
0
VERTEX
10
9.7433
20
9.90101
30
4.48
0
VERTEX
10
9.73511
20
9.86824
30
4.48
0
VERTEX
10
9.72691
20
9.86005
30
4.48
0
VERTEX
10
9.71258
20
9.82932
30
4.48
0
VERTEX
10
9.71053
20
9.81294
30
4.48
0
VERTEX
10
9.71053
20
9.80474
30
4.48
0
VERTEX
10
9.70438
20
9.79655
30
4.48
0
VERTEX
10
9.70233
20
9.78017
30
4.48
0
VERTEX
10
9.70233
20
9.77197
30
4.48
0
VERTEX
10
9.70233
20
9.76788
30
4.48
0
SEQEND
0
POLYLINE
62
224
66
1
70
1
3
mitochondrion
0
VERTEX
10
9.3854
20
8.77639
30
4.48
0
VERTEX
10
9.38818
20
8.77083
30
4.48
0
VERTEX
10
9.38957
20
8.72634
30
4.48
0
VERTEX
10
9.39096
20
8.70409
30
4.48
0
VERTEX
10
9.39931
20
8.68323
30
4.48
0
VERTEX
10
9.40487
20
8.67211
30
4.48
0
VERTEX
10
9.40626
20
8.66655
30
4.48
0
VERTEX
10
9.41043
20
8.66099
30
4.48
0
VERTEX
10
9.42572
20
8.61649
30
4.48
0
VERTEX
10
9.4299
20
8.60537
30
4.48
0
VERTEX
10
9.43129
20
8.59981
30
4.48
0
VERTEX
10
9.43963
20
8.59147
30
4.48
0
VERTEX
10
9.44241
20
8.5859
30
4.48
0
VERTEX
10
9.44241
20
8.58312
30
4.48
0
VERTEX
10
9.44658
20
8.57756
30
4.48
0
VERTEX
10
9.44797
20
8.56644
30
4.48
0
VERTEX
10
9.46605
20
8.54558
30
4.48
0
VERTEX
10
9.47022
20
8.54141
30
4.48
0
VERTEX
10
9.47578
20
8.54002
30
4.48
0
VERTEX
10
9.47856
20
8.53724
30
4.48
0
VERTEX
10
9.48412
20
8.53585
30
4.48
0
VERTEX
10
9.4869
20
8.53307
30
4.48
0
VERTEX
10
9.49246
20
8.53168
30
4.48
0
VERTEX
10
9.49525
20
8.5289
30
4.48
0
VERTEX
10
9.50081
20
8.5289
30
4.48
0
VERTEX
10
9.52305
20
8.51916
30
4.48
0
VERTEX
10
9.52862
20
8.51638
30
4.48
0
VERTEX
10
9.57311
20
8.51221
30
4.48
0
VERTEX
10
9.59536
20
8.51221
30
4.48
0
VERTEX
10
9.6176
20
8.51499
30
4.48
0
VERTEX
10
9.62317
20
8.51499
30
4.48
0
VERTEX
10
9.62456
20
8.51777
30
4.48
0
VERTEX
10
9.63012
20
8.51777
30
4.48
0
VERTEX
10
9.63429
20
8.52334
30
4.48
0
VERTEX
10
9.63429
20
8.52612
30
4.48
0
VERTEX
10
9.64124
20
8.53446
30
4.48
0
VERTEX
10
9.65236
20
8.54558
30
4.48
0
VERTEX
10
9.66349
20
8.55392
30
4.48
0
VERTEX
10
9.68017
20
8.57478
30
4.48
0
VERTEX
10
9.68991
20
8.5859
30
4.48
0
VERTEX
10
9.69269
20
8.59147
30
4.48
0
VERTEX
10
9.69269
20
8.59703
30
4.48
0
VERTEX
10
9.69686
20
8.60259
30
4.48
0
VERTEX
10
9.69825
20
8.60815
30
4.48
0
VERTEX
10
9.70242
20
8.61232
30
4.48
0
VERTEX
10
9.70381
20
8.65682
30
4.48
0
VERTEX
10
9.69964
20
8.67906
30
4.48
0
VERTEX
10
9.69964
20
8.68184
30
4.48
0
VERTEX
10
9.69686
20
8.68463
30
4.48
0
VERTEX
10
9.69547
20
8.70687
30
4.48
0
VERTEX
10
9.69408
20
8.71243
30
4.48
0
VERTEX
10
9.69408
20
8.71521
30
4.48
0
VERTEX
10
9.6913
20
8.71661
30
4.48
0
VERTEX
10
9.6913
20
8.72217
30
4.48
0
VERTEX
10
9.67878
20
8.76666
30
4.48
0
VERTEX
10
9.676
20
8.77778
30
4.48
0
VERTEX
10
9.67461
20
8.78335
30
4.48
0
VERTEX
10
9.67461
20
8.78613
30
4.48
0
VERTEX
10
9.66905
20
8.7903
30
4.48
0
VERTEX
10
9.66627
20
8.79586
30
4.48
0
VERTEX
10
9.66488
20
8.79864
30
4.48
0
VERTEX
10
9.6621
20
8.79864
30
4.48
0
VERTEX
10
9.65932
20
8.80976
30
4.48
0
VERTEX
10
9.65375
20
8.82089
30
4.48
0
VERTEX
10
9.64958
20
8.82506
30
4.48
0
VERTEX
10
9.64958
20
8.82784
30
4.48
0
VERTEX
10
9.64402
20
8.8334
30
4.48
0
VERTEX
10
9.64124
20
8.83896
30
4.48
0
VERTEX
10
9.63012
20
8.84731
30
4.48
0
VERTEX
10
9.62177
20
8.85565
30
4.48
0
VERTEX
10
9.61621
20
8.85982
30
4.48
0
VERTEX
10
9.61343
20
8.86538
30
4.48
0
VERTEX
10
9.61065
20
8.86538
30
4.48
0
VERTEX
10
9.60092
20
8.87233
30
4.48
0
VERTEX
10
9.5898
20
8.8765
30
4.48
0
VERTEX
10
9.58562
20
8.88068
30
4.48
0
VERTEX
10
9.58006
20
8.88207
30
4.48
0
VERTEX
10
9.57728
20
8.88485
30
4.48
0
VERTEX
10
9.56616
20
8.88624
30
4.48
0
VERTEX
10
9.5606
20
8.88763
30
4.48
0
VERTEX
10
9.54947
20
8.88485
30
4.48
0
VERTEX
10
9.50498
20
8.88346
30
4.48
0
VERTEX
10
9.48273
20
8.87929
30
4.48
0
VERTEX
10
9.47717
20
8.87511
30
4.48
0
VERTEX
10
9.47161
20
8.87372
30
4.48
0
VERTEX
10
9.46883
20
8.87372
30
4.48
0
VERTEX
10
9.4577
20
8.86677
30
4.48
0
VERTEX
10
9.43546
20
8.85843
30
4.48
0
VERTEX
10
9.43268
20
8.85565
30
4.48
0
VERTEX
10
9.4299
20
8.85565
30
4.48
0
VERTEX
10
9.41043
20
8.83896
30
4.48
0
VERTEX
10
9.40209
20
8.83062
30
4.48
0
VERTEX
10
9.39653
20
8.82506
30
4.48
0
VERTEX
10
9.39096
20
8.81533
30
4.48
0
VERTEX
10
9.38818
20
8.81254
30
4.48
0
VERTEX
10
9.3854
20
8.80142
30
4.48
0
VERTEX
10
9.3854
20
8.77917
30
4.48
0
VERTEX
10
9.3854
20
8.77778
30
4.48
0
SEQEND
0
POLYLINE
62
236
66
1
70
1
3
postsynaptic_density
0
VERTEX
10
9.90782
20
10.1206
30
4.48
0
VERTEX
10
9.90968
20
10.1131
30
4.48
0
VERTEX
10
9.90968
20
10.1094
30
4.48
0
VERTEX
10
9.91528
20
10.1038
30
4.48
0
VERTEX
10
9.91715
20
10.0963
30
4.48
0
VERTEX
10
9.92835
20
10.0832
30
4.48
0
VERTEX
10
9.93581
20
10.0832
30
4.48
0
VERTEX
10
9.93954
20
10.0832
30
4.48
0
VERTEX
10
9.93954
20
10.0795
30
4.48
0
VERTEX
10
9.95447
20
10.0758
30
4.48
0
VERTEX
10
9.9694
20
10.0758
30
4.48
0
VERTEX
10
9.975
20
10.0702
30
4.48
0
VERTEX
10
9.98993
20
10.0702
30
4.48
0
VERTEX
10
9.9974
20
10.072
30
4.48
0
VERTEX
10
10.0011
20
10.072
30
4.48
0
VERTEX
10
10.0161
20
10.0832
30
4.48
0
VERTEX
10
10.0235
20
10.087
30
4.48
0
VERTEX
10
10.0291
20
10.0944
30
4.48
0
VERTEX
10
10.0329
20
10.0982
30
4.48
0
VERTEX
10
10.0385
20
10.1131
30
4.48
0
VERTEX
10
10.0366
20
10.128
30
4.48
0
VERTEX
10
10.0347
20
10.1355
30
4.48
0
VERTEX
10
9.975
20
10.1747
30
4.48
0
VERTEX
10
9.94514
20
10.1766
30
4.48
0
VERTEX
10
9.93768
20
10.1766
30
4.48
0
VERTEX
10
9.93021
20
10.171
30
4.48
0
VERTEX
10
9.91528
20
10.1691
30
4.48
0
VERTEX
10
9.90968
20
10.1635
30
4.48
0
VERTEX
10
9.90782
20
10.1336
30
4.48
0
VERTEX
10
9.90782
20
10.1262
30
4.48
0
VERTEX
10
9.90782
20
10.1224
30
4.48
0
SEQEND
0
POLYLINE
62
227
66
1
70
1
3
endoplasmic_reticulum
0
VERTEX
10
9.18361
20
8.49956
30
4.48
0
VERTEX
10
9.1897
20
8.49499
30
4.48
0
VERTEX
10
9.19275
20
8.49194
30
4.48
0
VERTEX
10
9.19884
20
8.49194
30
4.48
0
VERTEX
10
9.20494
20
8.49499
30
4.48
0
VERTEX
10
9.20798
20
8.49499
30
4.48
0
VERTEX
10
9.21712
20
8.50565
30
4.48
0
VERTEX
10
9.21865
20
8.51175
30
4.48
0
VERTEX
10
9.21712
20
8.52393
30
4.48
0
VERTEX
10
9.21255
20
8.53612
30
4.48
0
VERTEX
10
9.21255
20
8.54222
30
4.48
0
VERTEX
10
9.20037
20
8.54526
30
4.48
0
VERTEX
10
9.18818
20
8.54374
30
4.48
0
VERTEX
10
9.1897
20
8.53765
30
4.48
0
VERTEX
10
9.1897
20
8.5346
30
4.48
0
VERTEX
10
9.18665
20
8.53155
30
4.48
0
VERTEX
10
9.18665
20
8.52546
30
4.48
0
VERTEX
10
9.18361
20
8.51936
30
4.48
0
VERTEX
10
9.18361
20
8.50718
30
4.48
0
VERTEX
10
9.18361
20
8.50108
30
4.48
0
SEQEND
0
POLYLINE
62
227
66
1
70
1
3
endoplasmic_reticulum
0
VERTEX
10
9.05259
20
8.61534
30
4.48
0
VERTEX
10
9.05563
20
8.60925
30
4.48
0
VERTEX
10
9.05716
20
8.59706
30
4.48
0
VERTEX
10
9.06173
20
8.59249
30
4.48
0
VERTEX
10
9.06477
20
8.59097
30
4.48
0
VERTEX
10
9.06477
20
8.58792
30
4.48
0
VERTEX
10
9.07544
20
8.5803
30
4.48
0
VERTEX
10
9.09981
20
8.57878
30
4.48
0
VERTEX
10
9.12419
20
8.58335
30
4.48
0
VERTEX
10
9.14857
20
8.58335
30
4.48
0
VERTEX
10
9.16075
20
8.58335
30
4.48
0
VERTEX
10
9.17294
20
8.58792
30
4.48
0
VERTEX
10
9.17904
20
8.58792
30
4.48
0
VERTEX
10
9.20341
20
8.59554
30
4.48
0
VERTEX
10
9.20951
20
8.59859
30
4.48
0
VERTEX
10
9.23388
20
8.60316
30
4.48
0
VERTEX
10
9.23388
20
8.60925
30
4.48
0
VERTEX
10
9.2415
20
8.61687
30
4.48
0
VERTEX
10
9.25369
20
8.61839
30
4.48
0
VERTEX
10
9.26283
20
8.62753
30
4.48
0
VERTEX
10
9.26588
20
8.63363
30
4.48
0
VERTEX
10
9.26588
20
8.658
30
4.48
0
VERTEX
10
9.26435
20
8.6641
30
4.48
0
VERTEX
10
9.25673
20
8.67171
30
4.48
0
VERTEX
10
9.24455
20
8.66257
30
4.48
0
VERTEX
10
9.2415
20
8.66257
30
4.48
0
VERTEX
10
9.23998
20
8.65953
30
4.48
0
VERTEX
10
9.23388
20
8.658
30
4.48
0
VERTEX
10
9.23083
20
8.65648
30
4.48
0
VERTEX
10
9.23083
20
8.65343
30
4.48
0
VERTEX
10
9.22322
20
8.64277
30
4.48
0
VERTEX
10
9.21865
20
8.63667
30
4.48
0
VERTEX
10
9.21712
20
8.63363
30
4.48
0
VERTEX
10
9.21103
20
8.6321
30
4.48
0
VERTEX
10
9.20646
20
8.62753
30
4.48
0
VERTEX
10
9.20341
20
8.62753
30
4.48
0
VERTEX
10
9.19884
20
8.62144
30
4.48
0
VERTEX
10
9.19579
20
8.62144
30
4.48
0
VERTEX
10
9.18513
20
8.6123
30
4.48
0
VERTEX
10
9.17904
20
8.60925
30
4.48
0
VERTEX
10
9.15466
20
8.60773
30
4.48
0
VERTEX
10
9.14247
20
8.60773
30
4.48
0
VERTEX
10
9.13028
20
8.60468
30
4.48
0
VERTEX
10
9.1181
20
8.60468
30
4.48
0
VERTEX
10
9.09372
20
8.61382
30
4.48
0
VERTEX
10
9.08763
20
8.61534
30
4.48
0
VERTEX
10
9.08001
20
8.62601
30
4.48
0
VERTEX
10
9.07696
20
8.62906
30
4.48
0
VERTEX
10
9.07087
20
8.63058
30
4.48
0
VERTEX
10
9.0663
20
8.63515
30
4.48
0
VERTEX
10
9.06325
20
8.63667
30
4.48
0
VERTEX
10
9.0602
20
8.63515
30
4.48
0
VERTEX
10
9.0602
20
8.6321
30
4.48
0
VERTEX
10
9.05411
20
8.63058
30
4.48
0
VERTEX
10
9.05259
20
8.61839
30
4.48
0
VERTEX
10
9.05259
20
8.61687
30
4.48
0
SEQEND
0
POLYLINE
62
227
66
1
70
1
3
endoplasmic_reticulum
0
VERTEX
10
9.10743
20
8.658
30
4.48
0
VERTEX
10
9.11048
20
8.65191
30
4.48
0
VERTEX
10
9.11657
20
8.64734
30
4.48
0
VERTEX
10
9.14095
20
8.64581
30
4.48
0
VERTEX
10
9.16532
20
8.64886
30
4.48
0
VERTEX
10
9.17751
20
8.64886
30
4.48
0
VERTEX
10
9.20189
20
8.65648
30
4.48
0
VERTEX
10
9.20798
20
8.65648
30
4.48
0
VERTEX
10
9.21865
20
8.66714
30
4.48
0
VERTEX
10
9.22322
20
8.67933
30
4.48
0
VERTEX
10
9.22322
20
8.69152
30
4.48
0
VERTEX
10
9.22779
20
8.69609
30
4.48
0
VERTEX
10
9.22779
20
8.69914
30
4.48
0
VERTEX
10
9.23083
20
8.70218
30
4.48
0
VERTEX
10
9.23693
20
8.70218
30
4.48
0
VERTEX
10
9.24302
20
8.70675
30
4.48
0
VERTEX
10
9.23845
20
8.71894
30
4.48
0
VERTEX
10
9.23236
20
8.72351
30
4.48
0
VERTEX
10
9.22017
20
8.72047
30
4.48
0
VERTEX
10
9.20798
20
8.7098
30
4.48
0
VERTEX
10
9.20494
20
8.70675
30
4.48
0
VERTEX
10
9.20341
20
8.70066
30
4.48
0
VERTEX
10
9.19884
20
8.69609
30
4.48
0
VERTEX
10
9.19732
20
8.69304
30
4.48
0
VERTEX
10
9.17294
20
8.69
30
4.48
0
VERTEX
10
9.16685
20
8.69
30
4.48
0
VERTEX
10
9.16075
20
8.68695
30
4.48
0
VERTEX
10
9.15466
20
8.68695
30
4.48
0
VERTEX
10
9.14857
20
8.68238
30
4.48
0
VERTEX
10
9.12419
20
8.67933
30
4.48
0
VERTEX
10
9.1181
20
8.67781
30
4.48
0
VERTEX
10
9.10743
20
8.67019
30
4.48
0
VERTEX
10
9.10743
20
8.65953
30
4.48
0
SEQEND
0
POLYLINE
62
227
66
1
70
1
3
endoplasmic_reticulum
0
VERTEX
10
9.72749
20
8.70828
30
4.48
0
VERTEX
10
9.73206
20
8.70218
30
4.48
0
VERTEX
10
9.74425
20
8.69761
30
4.48
0
VERTEX
10
9.75035
20
8.69304
30
4.48
0
VERTEX
10
9.76253
20
8.69152
30
4.48
0
VERTEX
10
9.76863
20
8.69152
30
4.48
0
VERTEX
10
9.77167
20
8.69457
30
4.48
0
VERTEX
10
9.78386
20
8.69609
30
4.48
0
VERTEX
10
9.78843
20
8.70066
30
4.48
0
VERTEX
10
9.78843
20
8.71285
30
4.48
0
VERTEX
10
9.78386
20
8.72504
30
4.48
0
VERTEX
10
9.78386
20
8.72808
30
4.48
0
VERTEX
10
9.77167
20
8.73265
30
4.48
0
VERTEX
10
9.76558
20
8.73418
30
4.48
0
VERTEX
10
9.75492
20
8.73113
30
4.48
0
VERTEX
10
9.74273
20
8.73265
30
4.48
0
VERTEX
10
9.73816
20
8.72961
30
4.48
0
VERTEX
10
9.73359
20
8.72351
30
4.48
0
VERTEX
10
9.73206
20
8.72199
30
4.48
0
VERTEX
10
9.73054
20
8.72351
30
4.48
0
VERTEX
10
9.72749
20
8.72047
30
4.48
0
VERTEX
10
9.72749
20
8.7098
30
4.48
0
SEQEND
0
POLYLINE
62
227
66
1
70
1
3
endoplasmic_reticulum
0
VERTEX
10
8.93985
20
8.76617
30
4.48
0
VERTEX
10
8.94594
20
8.76312
30
4.48
0
VERTEX
10
8.95813
20
8.76312
30
4.48
0
VERTEX
10
8.96422
20
8.76312
30
4.48
0
VERTEX
10
8.97032
20
8.76769
30
4.48
0
VERTEX
10
8.97641
20
8.76769
30
4.48
0
VERTEX
10
8.98708
20
8.77683
30
4.48
0
VERTEX
10
8.99165
20
8.7814
30
4.48
0
VERTEX
10
8.99165
20
8.7875
30
4.48
0
VERTEX
10
9.00231
20
8.79664
30
4.48
0
VERTEX
10
9.00536
20
8.79664
30
4.48
0
VERTEX
10
9.02364
20
8.81797
30
4.48
0
VERTEX
10
9.02364
20
8.82102
30
4.48
0
VERTEX
10
9.02669
20
8.82406
30
4.48
0
VERTEX
10
9.02669
20
8.82711
30
4.48
0
VERTEX
10
9.03278
20
8.82863
30
4.48
0
VERTEX
10
9.03888
20
8.8332
30
4.48
0
VERTEX
10
9.06173
20
8.84234
30
4.48
0
VERTEX
10
9.06477
20
8.84539
30
4.48
0
VERTEX
10
9.06477
20
8.84844
30
4.48
0
VERTEX
10
9.07392
20
8.85758
30
4.48
0
VERTEX
10
9.07696
20
8.86063
30
4.48
0
VERTEX
10
9.07696
20
8.86367
30
4.48
0
VERTEX
10
9.08458
20
8.87586
30
4.48
0
VERTEX
10
9.08458
20
8.88805
30
4.48
0
VERTEX
10
9.08458
20
8.89414
30
4.48
0
VERTEX
10
9.08153
20
8.90024
30
4.48
0
VERTEX
10
9.05716
20
8.90176
30
4.48
0
VERTEX
10
9.05106
20
8.90176
30
4.48
0
VERTEX
10
9.03888
20
8.89262
30
4.48
0
VERTEX
10
9.03735
20
8.88653
30
4.48
0
VERTEX
10
9.03735
20
8.88348
30
4.48
0
VERTEX
10
9.02669
20
8.87738
30
4.48
0
VERTEX
10
9.02516
20
8.87434
30
4.48
0
VERTEX
10
9.01298
20
8.87586
30
4.48
0
VERTEX
10
9.00688
20
8.87738
30
4.48
0
VERTEX
10
9.00079
20
8.88196
30
4.48
0
VERTEX
10
8.99622
20
8.89262
30
4.48
0
VERTEX
10
8.98708
20
8.90176
30
4.48
0
VERTEX
10
8.97794
20
8.91395
30
4.48
0
VERTEX
10
8.97184
20
8.92004
30
4.48
0
VERTEX
10
8.96575
20
8.92309
30
4.48
0
VERTEX
10
8.95356
20
8.91852
30
4.48
0
VERTEX
10
8.94899
20
8.91395
30
4.48
0
VERTEX
10
8.94747
20
8.90785
30
4.48
0
VERTEX
10
8.95204
20
8.89719
30
4.48
0
VERTEX
10
8.9627
20
8.88957
30
4.48
0
VERTEX
10
8.96727
20
8.87891
30
4.48
0
VERTEX
10
8.96575
20
8.83016
30
4.48
0
VERTEX
10
8.9627
20
8.80578
30
4.48
0
VERTEX
10
8.95661
20
8.80121
30
4.48
0
VERTEX
10
8.95508
20
8.79512
30
4.48
0
VERTEX
10
8.94594
20
8.78445
30
4.48
0
VERTEX
10
8.93985
20
8.77836
30
4.48
0
VERTEX
10
8.93985
20
8.76769
30
4.48
0
SEQEND
0
POLYLINE
62
227
66
1
70
1
3
endoplasmic_reticulum
0
VERTEX
10
8.81645
20
8.67476
30
4.48
0
VERTEX
10
8.81949
20
8.67171
30
4.48
0
VERTEX
10
8.81949
20
8.66562
30
4.48
0
VERTEX
10
8.82254
20
8.65953
30
4.48
0
VERTEX
10
8.82254
20
8.65648
30
4.48
0
VERTEX
10
8.83016
20
8.64886
30
4.48
0
VERTEX
10
8.85453
20
8.65038
30
4.48
0
VERTEX
10
8.86063
20
8.65038
30
4.48
0
VERTEX
10
8.87281
20
8.65496
30
4.48
0
VERTEX
10
8.89719
20
8.658
30
4.48
0
VERTEX
10
8.90328
20
8.66105
30
4.48
0
VERTEX
10
8.90938
20
8.66714
30
4.48
0
VERTEX
10
8.9109
20
8.67324
30
4.48
0
VERTEX
10
8.91395
20
8.67628
30
4.48
0
VERTEX
10
8.91243
20
8.68847
30
4.48
0
VERTEX
10
8.9109
20
8.69457
30
4.48
0
VERTEX
10
8.90785
20
8.69761
30
4.48
0
VERTEX
10
8.90785
20
8.70066
30
4.48
0
VERTEX
10
8.90328
20
8.70675
30
4.48
0
VERTEX
10
8.8911
20
8.7098
30
4.48
0
VERTEX
10
8.86672
20
8.7098
30
4.48
0
VERTEX
10
8.85453
20
8.70828
30
4.48
0
VERTEX
10
8.84844
20
8.70675
30
4.48
0
VERTEX
10
8.84234
20
8.70218
30
4.48
0
VERTEX
10
8.83625
20
8.70066
30
4.48
0
VERTEX
10
8.83016
20
8.69457
30
4.48
0
VERTEX
10
8.81797
20
8.68695
30
4.48
0
VERTEX
10
8.81645
20
8.67628
30
4.48
0
SEQEND
0
POLYLINE
62
227
66
1
70
1
3
endoplasmic_reticulum
0
VERTEX
10
8.6321
20
8.45538
30
4.48
0
VERTEX
10
8.63972
20
8.44471
30
4.48
0
VERTEX
10
8.64429
20
8.44014
30
4.48
0
VERTEX
10
8.66867
20
8.44167
30
4.48
0
VERTEX
10
8.67476
20
8.44471
30
4.48
0
VERTEX
10
8.68085
20
8.45081
30
4.48
0
VERTEX
10
8.69152
20
8.47518
30
4.48
0
VERTEX
10
8.69457
20
8.48128
30
4.48
0
VERTEX
10
8.69304
20
8.50565
30
4.48
0
VERTEX
10
8.68238
20
8.52851
30
4.48
0
VERTEX
10
8.67171
20
8.54069
30
4.48
0
VERTEX
10
8.66714
20
8.54526
30
4.48
0
VERTEX
10
8.65496
20
8.54679
30
4.48
0
VERTEX
10
8.64886
20
8.54374
30
4.48
0
VERTEX
10
8.64277
20
8.54374
30
4.48
0
VERTEX
10
8.63515
20
8.53308
30
4.48
0
VERTEX
10
8.6321
20
8.48432
30
4.48
0
VERTEX
10
8.6321
20
8.45995
30
4.48
0
VERTEX
10
8.6321
20
8.4569
30
4.48
0
SEQEND
0
POLYLINE
62
31
66
1
70
1
3
contour
0
VERTEX
10
8.59702
20
8.4509
30
4.48
0
VERTEX
10
8.59997
20
8.42729
30
4.48
0
VERTEX
10
8.6044
20
8.41548
30
4.48
0
VERTEX
10
8.6044
20
8.41253
30
4.48
0
VERTEX
10
8.61178
20
8.40072
30
4.48
0
VERTEX
10
8.61178
20
8.39777
30
4.48
0
VERTEX
10
8.63096
20
8.37859
30
4.48
0
VERTEX
10
8.64129
20
8.36973
30
4.48
0
VERTEX
10
8.64424
20
8.36678
30
4.48
0
VERTEX
10
8.65015
20
8.36678
30
4.48
0
VERTEX
10
8.65605
20
8.36235
30
4.48
0
VERTEX
10
8.66196
20
8.36088
30
4.48
0
VERTEX
10
8.66491
20
8.35497
30
4.48
0
VERTEX
10
8.66933
20
8.35202
30
4.48
0
VERTEX
10
8.68114
20
8.34169
30
4.48
0
VERTEX
10
8.68409
20
8.33874
30
4.48
0
VERTEX
10
8.6959
20
8.33431
30
4.48
0
VERTEX
10
8.7018
20
8.33136
30
4.48
0
VERTEX
10
8.70771
20
8.33136
30
4.48
0
VERTEX
10
8.71951
20
8.32545
30
4.48
0
VERTEX
10
8.73132
20
8.3225
30
4.48
0
VERTEX
10
8.73723
20
8.32103
30
4.48
0
VERTEX
10
8.74756
20
8.31217
30
4.48
0
VERTEX
10
8.75346
20
8.31217
30
4.48
0
VERTEX
10
8.75936
20
8.30922
30
4.48
0
VERTEX
10
8.7815
20
8.31217
30
4.48
0
VERTEX
10
8.79331
20
8.31217
30
4.48
0
VERTEX
10
8.79921
20
8.31217
30
4.48
0
VERTEX
10
8.80512
20
8.31512
30
4.48
0
VERTEX
10
8.81692
20
8.3166
30
4.48
0
VERTEX
10
8.82873
20
8.32103
30
4.48
0
VERTEX
10
8.84054
20
8.32103
30
4.48
0
VERTEX
10
8.84644
20
8.32545
30
4.48
0
VERTEX
10
8.87005
20
8.32841
30
4.48
0
VERTEX
10
8.89367
20
8.33874
30
4.48
0
VERTEX
10
8.90548
20
8.34316
30
4.48
0
VERTEX
10
8.91728
20
8.35202
30
4.48
0
VERTEX
10
8.92023
20
8.35497
30
4.48
0
VERTEX
10
8.92614
20
8.35497
30
4.48
0
VERTEX
10
8.93647
20
8.36235
30
4.48
0
VERTEX
10
8.94237
20
8.36383
30
4.48
0
VERTEX
10
8.94532
20
8.36383
30
4.48
0
VERTEX
10
8.94828
20
8.36678
30
4.48
0
VERTEX
10
8.96008
20
8.36973
30
4.48
0
VERTEX
10
8.96599
20
8.37121
30
4.48
0
VERTEX
10
8.97042
20
8.37563
30
4.48
0
VERTEX
10
8.99403
20
8.37563
30
4.48
0
VERTEX
10
9.01764
20
8.38006
30
4.48
0
VERTEX
10
9.06487
20
8.38449
30
4.48
0
VERTEX
10
9.1121
20
8.38597
30
4.48
0
VERTEX
10
9.12391
20
8.38744
30
4.48
0
VERTEX
10
9.12981
20
8.39039
30
4.48
0
VERTEX
10
9.22427
20
8.39039
30
4.48
0
VERTEX
10
9.24788
20
8.38892
30
4.48
0
VERTEX
10
9.25083
20
8.38597
30
4.48
0
VERTEX
10
9.29806
20
8.38744
30
4.48
0
VERTEX
10
9.39252
20
8.38597
30
4.48
0
VERTEX
10
9.41613
20
8.38301
30
4.48
0
VERTEX
10
9.42794
20
8.38006
30
4.48
0
VERTEX
10
9.47517
20
8.38006
30
4.48
0
VERTEX
10
9.49878
20
8.38449
30
4.48
0
VERTEX
10
9.50468
20
8.38597
30
4.48
0
VERTEX
10
9.50764
20
8.38892
30
4.48
0
VERTEX
10
9.51944
20
8.38892
30
4.48
0
VERTEX
10
9.52535
20
8.38892
30
4.48
0
VERTEX
10
9.52682
20
8.39039
30
4.48
0
VERTEX
10
9.51502
20
8.39187
30
4.48
0
VERTEX
10
9.51944
20
8.39482
30
4.48
0
VERTEX
10
9.5224
20
8.39482
30
4.48
0
VERTEX
10
9.5283
20
8.39925
30
4.48
0
VERTEX
10
9.55191
20
8.4022
30
4.48
0
VERTEX
10
9.55782
20
8.4022
30
4.48
0
VERTEX
10
9.56372
20
8.40515
30
4.48
0
VERTEX
10
9.56372
20
8.4081
30
4.48
0
VERTEX
10
9.58733
20
8.40958
30
4.48
0
VERTEX
10
9.59914
20
8.41106
30
4.48
0
VERTEX
10
9.60504
20
8.41401
30
4.48
0
VERTEX
10
9.62866
20
8.41548
30
4.48
0
VERTEX
10
9.65227
20
8.42139
30
4.48
0
VERTEX
10
9.66408
20
8.42877
30
4.48
0
VERTEX
10
9.66998
20
8.43024
30
4.48
0
VERTEX
10
9.67884
20
8.44057
30
4.48
0
VERTEX
10
9.68179
20
8.44057
30
4.48
0
VERTEX
10
9.68622
20
8.44648
30
4.48
0
VERTEX
10
9.68769
20
8.4509
30
4.48
0
VERTEX
10
9.70983
20
8.46271
30
4.48
0
VERTEX
10
9.72164
20
8.46566
30
4.48
0
VERTEX
10
9.73197
20
8.47157
30
4.48
0
VERTEX
10
9.73345
20
8.47452
30
4.48
0
VERTEX
10
9.74525
20
8.47747
30
4.48
0
VERTEX
10
9.75116
20
8.4819
30
4.48
0
VERTEX
10
9.75706
20
8.4819
30
4.48
0
VERTEX
10
9.7733
20
8.50404
30
4.48
0
VERTEX
10
9.7733
20
8.50994
30
4.48
0
VERTEX
10
9.78363
20
8.52175
30
4.48
0
VERTEX
10
9.79691
20
8.54241
30
4.48
0
VERTEX
10
9.80724
20
8.56602
30
4.48
0
VERTEX
10
9.81019
20
8.5675
30
4.48
0
VERTEX
10
9.81462
20
8.57931
30
4.48
0
VERTEX
10
9.822
20
8.59111
30
4.48
0
VERTEX
10
9.82643
20
8.60292
30
4.48
0
VERTEX
10
9.83381
20
8.61473
30
4.48
0
VERTEX
10
9.83676
20
8.61768
30
4.48
0
VERTEX
10
9.83823
20
8.62358
30
4.48
0
VERTEX
10
9.84709
20
8.63539
30
4.48
0
VERTEX
10
9.84857
20
8.64129
30
4.48
0
VERTEX
10
9.85299
20
8.6472
30
4.48
0
VERTEX
10
9.86037
20
8.67081
30
4.48
0
VERTEX
10
9.86628
20
8.68262
30
4.48
0
VERTEX
10
9.87956
20
8.72837
30
4.48
0
VERTEX
10
9.88694
20
8.74018
30
4.48
0
VERTEX
10
9.88989
20
8.74608
30
4.48
0
VERTEX
10
9.88841
20
8.79331
30
4.48
0
VERTEX
10
9.88694
20
8.81692
30
4.48
0
VERTEX
10
9.86775
20
8.86415
30
4.48
0
VERTEX
10
9.8648
20
8.87005
30
4.48
0
VERTEX
10
9.85299
20
8.88039
30
4.48
0
VERTEX
10
9.84561
20
8.89219
30
4.48
0
VERTEX
10
9.84266
20
8.89514
30
4.48
0
VERTEX
10
9.84119
20
8.90695
30
4.48
0
VERTEX
10
9.83381
20
8.91581
30
4.48
0
VERTEX
10
9.81167
20
8.93499
30
4.48
0
VERTEX
10
9.80724
20
8.9409
30
4.48
0
VERTEX
10
9.80429
20
8.94385
30
4.48
0
VERTEX
10
9.80429
20
8.9468
30
4.48
0
VERTEX
10
9.79396
20
8.95861
30
4.48
0
VERTEX
10
9.79101
20
8.96156
30
4.48
0
VERTEX
10
9.7851
20
8.96304
30
4.48
0
VERTEX
10
9.7733
20
8.97337
30
4.48
0
VERTEX
10
9.77034
20
8.97632
30
4.48
0
VERTEX
10
9.76444
20
8.97632
30
4.48
0
VERTEX
10
9.76149
20
8.97632
30
4.48
0
VERTEX
10
9.75706
20
8.98075
30
4.48
0
VERTEX
10
9.75116
20
8.98222
30
4.48
0
VERTEX
10
9.74673
20
8.98665
30
4.48
0
VERTEX
10
9.74083
20
8.98813
30
4.48
0
VERTEX
10
9.73492
20
8.99255
30
4.48
0
VERTEX
10
9.72312
20
8.99403
30
4.48
0
VERTEX
10
9.71721
20
8.99846
30
4.48
0
VERTEX
10
9.6936
20
9.00584
30
4.48
0
VERTEX
10
9.69065
20
9.01026
30
4.48
0
VERTEX
10
9.68474
20
9.01174
30
4.48
0
VERTEX
10
9.67441
20
9.0206
30
4.48
0
VERTEX
10
9.6508
20
9.02502
30
4.48
0
VERTEX
10
9.64489
20
9.02502
30
4.48
0
VERTEX
10
9.63899
20
9.02945
30
4.48
0
VERTEX
10
9.62718
20
9.03093
30
4.48
0
VERTEX
10
9.62128
20
9.03388
30
4.48
0
VERTEX
10
9.57405
20
9.03535
30
4.48
0
VERTEX
10
9.55044
20
9.03535
30
4.48
0
VERTEX
10
9.53863
20
9.03535
30
4.48
0
VERTEX
10
9.52682
20
9.0324
30
4.48
0
VERTEX
10
9.47959
20
9.0324
30
4.48
0
VERTEX
10
9.46779
20
9.02797
30
4.48
0
VERTEX
10
9.42056
20
9.0265
30
4.48
0
VERTEX
10
9.39695
20
9.0265
30
4.48
0
VERTEX
10
9.38514
20
9.0265
30
4.48
0
VERTEX
10
9.36152
20
9.02207
30
4.48
0
VERTEX
10
9.3143
20
9.01912
30
4.48
0
VERTEX
10
9.30839
20
9.01912
30
4.48
0
VERTEX
10
9.30396
20
9.01617
30
4.48
0
VERTEX
10
9.29216
20
9.01617
30
4.48
0
VERTEX
10
9.26854
20
9.0206
30
4.48
0
VERTEX
10
9.17409
20
9.02207
30
4.48
0
VERTEX
10
9.16818
20
9.02207
30
4.48
0
VERTEX
10
9.15785
20
9.01617
30
4.48
0
VERTEX
10
9.16818
20
9.00584
30
4.48
0
VERTEX
10
9.12243
20
8.9896
30
4.48
0
VERTEX
10
9.11062
20
8.9896
30
4.48
0
VERTEX
10
9.09882
20
8.98517
30
4.48
0
VERTEX
10
9.0752
20
8.98075
30
4.48
0
VERTEX
10
9.0693
20
8.98075
30
4.48
0
VERTEX
10
9.0634
20
8.97632
30
4.48
0
VERTEX
10
9.05159
20
8.97189
30
4.48
0
VERTEX
10
9.04864
20
8.97189
30
4.48
0
VERTEX
10
9.04421
20
8.96746
30
4.48
0
VERTEX
10
9.0324
20
8.96599
30
4.48
0
VERTEX
10
9.0265
20
8.96008
30
4.48
0
VERTEX
10
8.97927
20
8.94385
30
4.48
0
VERTEX
10
8.95566
20
8.93499
30
4.48
0
VERTEX
10
8.9527
20
8.93499
30
4.48
0
VERTEX
10
8.94975
20
8.93204
30
4.48
0
VERTEX
10
8.94385
20
8.93057
30
4.48
0
VERTEX
10
8.93204
20
8.92319
30
4.48
0
VERTEX
10
8.91138
20
8.90252
30
4.48
0
VERTEX
10
8.90105
20
8.89219
30
4.48
0
VERTEX
10
8.90105
20
8.88629
30
4.48
0
VERTEX
10
8.89072
20
8.87596
30
4.48
0
VERTEX
10
8.87891
20
8.86858
30
4.48
0
VERTEX
10
8.8671
20
8.86415
30
4.48
0
VERTEX
10
8.8553
20
8.86268
30
4.48
0
VERTEX
10
8.84349
20
8.85825
30
4.48
0
VERTEX
10
8.83759
20
8.85677
30
4.48
0
VERTEX
10
8.83463
20
8.85677
30
4.48
0
VERTEX
10
8.83316
20
8.85382
30
4.48
0
VERTEX
10
8.82725
20
8.85234
30
4.48
0
VERTEX
10
8.8243
20
8.85234
30
4.48
0
VERTEX
10
8.80069
20
8.83759
30
4.48
0
VERTEX
10
8.79331
20
8.82578
30
4.48
0
VERTEX
10
8.79036
20
8.8243
30
4.48
0
VERTEX
10
8.79036
20
8.82135
30
4.48
0
VERTEX
10
8.7815
20
8.80954
30
4.48
0
VERTEX
10
8.78445
20
8.78593
30
4.48
0
VERTEX
10
8.77707
20
8.76232
30
4.48
0
VERTEX
10
8.77412
20
8.75936
30
4.48
0
VERTEX
10
8.77412
20
8.75346
30
4.48
0
VERTEX
10
8.76822
20
8.74313
30
4.48
0
VERTEX
10
8.74903
20
8.72394
30
4.48
0
VERTEX
10
8.73723
20
8.71509
30
4.48
0
VERTEX
10
8.72837
20
8.70623
30
4.48
0
VERTEX
10
8.72542
20
8.70328
30
4.48
0
VERTEX
10
8.72247
20
8.67967
30
4.48
0
VERTEX
10
8.72247
20
8.67671
30
4.48
0
VERTEX
10
8.71951
20
8.67524
30
4.48
0
VERTEX
10
8.71804
20
8.66343
30
4.48
0
VERTEX
10
8.71214
20
8.6531
30
4.48
0
VERTEX
10
8.7018
20
8.64277
30
4.48
0
VERTEX
10
8.69738
20
8.63687
30
4.48
0
VERTEX
10
8.69147
20
8.63391
30
4.48
0
VERTEX
10
8.68557
20
8.63391
30
4.48
0
VERTEX
10
8.68262
20
8.63391
30
4.48
0
VERTEX
10
8.67819
20
8.62801
30
4.48
0
VERTEX
10
8.66638
20
8.62506
30
4.48
0
VERTEX
10
8.65753
20
8.6162
30
4.48
0
VERTEX
10
8.65162
20
8.61473
30
4.48
0
VERTEX
10
8.63244
20
8.59554
30
4.48
0
VERTEX
10
8.62949
20
8.59111
30
4.48
0
VERTEX
10
8.62358
20
8.58521
30
4.48
0
VERTEX
10
8.62211
20
8.57931
30
4.48
0
VERTEX
10
8.6162
20
8.57488
30
4.48
0
VERTEX
10
8.61178
20
8.56455
30
4.48
0
VERTEX
10
8.61178
20
8.55864
30
4.48
0
VERTEX
10
8.60882
20
8.55717
30
4.48
0
VERTEX
10
8.60587
20
8.54536
30
4.48
0
VERTEX
10
8.60587
20
8.53355
30
4.48
0
VERTEX
10
8.60292
20
8.52765
30
4.48
0
VERTEX
10
8.60292
20
8.50404
30
4.48
0
VERTEX
10
8.59997
20
8.48042
30
4.48
0
VERTEX
10
8.59702
20
8.47452
30
4.48
0
VERTEX
10
8.59702
20
8.45238
30
4.48
0
SEQEND
0
ENDSEC
0
EOF
