0
SECTION
2
ENTITIES
0
POLYLINE
62
31
66
1
70
1
3
contour
0
VERTEX
10
8.83624
20
8.86063
30
5.04
0
VERTEX
10
8.84067
20
8.85176
30
5.04
0
VERTEX
10
8.84289
20
8.83402
30
5.04
0
VERTEX
10
8.85176
20
8.81628
30
5.04
0
VERTEX
10
8.86506
20
8.80076
30
5.04
0
VERTEX
10
8.8695
20
8.78302
30
5.04
0
VERTEX
10
8.87615
20
8.77415
30
5.04
0
VERTEX
10
8.88058
20
8.77415
30
5.04
0
VERTEX
10
8.88502
20
8.76971
30
5.04
0
VERTEX
10
8.90276
20
8.76528
30
5.04
0
VERTEX
10
8.90941
20
8.75863
30
5.04
0
VERTEX
10
8.94489
20
8.74754
30
5.04
0
VERTEX
10
9.01584
20
8.73645
30
5.04
0
VERTEX
10
9.05132
20
8.73424
30
5.04
0
VERTEX
10
9.06019
20
8.73424
30
5.04
0
VERTEX
10
9.06463
20
8.73867
30
5.04
0
VERTEX
10
9.1001
20
8.74311
30
5.04
0
VERTEX
10
9.13558
20
8.75198
30
5.04
0
VERTEX
10
9.14002
20
8.75198
30
5.04
0
VERTEX
10
9.14445
20
8.75641
30
5.04
0
VERTEX
10
9.14889
20
8.75641
30
5.04
0
VERTEX
10
9.15332
20
8.76085
30
5.04
0
VERTEX
10
9.22428
20
8.77637
30
5.04
0
VERTEX
10
9.29523
20
8.77858
30
5.04
0
VERTEX
10
9.33071
20
8.7808
30
5.04
0
VERTEX
10
9.33958
20
8.78302
30
5.04
0
VERTEX
10
9.3551
20
8.79854
30
5.04
0
VERTEX
10
9.3551
20
8.8695
30
5.04
0
VERTEX
10
9.36619
20
8.94045
30
5.04
0
VERTEX
10
9.37062
20
8.94045
30
5.04
0
VERTEX
10
9.37949
20
8.95819
30
5.04
0
VERTEX
10
9.37949
20
8.99367
30
5.04
0
VERTEX
10
9.38171
20
9.01141
30
5.04
0
VERTEX
10
9.37728
20
9.02915
30
5.04
0
VERTEX
10
9.36619
20
9.04689
30
5.04
0
VERTEX
10
9.35954
20
9.05576
30
5.04
0
VERTEX
10
9.32406
20
9.06241
30
5.04
0
VERTEX
10
9.28858
20
9.06241
30
5.04
0
VERTEX
10
9.27084
20
9.06463
30
5.04
0
VERTEX
10
9.26197
20
9.06684
30
5.04
0
VERTEX
10
9.25754
20
9.06684
30
5.04
0
VERTEX
10
9.2531
20
9.07128
30
5.04
0
VERTEX
10
9.21762
20
9.0735
30
5.04
0
VERTEX
10
9.20876
20
9.07571
30
5.04
0
VERTEX
10
9.20654
20
9.08015
30
5.04
0
VERTEX
10
9.19767
20
9.08015
30
5.04
0
VERTEX
10
9.17993
20
9.0868
30
5.04
0
VERTEX
10
9.17549
20
9.09123
30
5.04
0
VERTEX
10
9.16662
20
9.09123
30
5.04
0
VERTEX
10
9.15332
20
9.10454
30
5.04
0
VERTEX
10
9.14445
20
9.09789
30
5.04
0
VERTEX
10
9.12671
20
9.09567
30
5.04
0
VERTEX
10
9.11784
20
9.09123
30
5.04
0
VERTEX
10
9.1001
20
9.08902
30
5.04
0
VERTEX
10
9.09567
20
9.08458
30
5.04
0
VERTEX
10
9.07793
20
9.08015
30
5.04
0
VERTEX
10
9.06019
20
9.06906
30
5.04
0
VERTEX
10
9.05132
20
9.06463
30
5.04
0
VERTEX
10
9.04689
20
9.06463
30
5.04
0
VERTEX
10
9.03802
20
9.05797
30
5.04
0
VERTEX
10
9.02028
20
9.05132
30
5.04
0
VERTEX
10
8.98702
20
9.02693
30
5.04
0
VERTEX
10
8.93158
20
8.9715
30
5.04
0
VERTEX
10
8.90276
20
8.94267
30
5.04
0
VERTEX
10
8.89832
20
8.94267
30
5.04
0
VERTEX
10
8.84732
20
8.8828
30
5.04
0
VERTEX
10
8.84289
20
8.87837
30
5.04
0
VERTEX
10
8.84289
20
8.87393
30
5.04
0
VERTEX
10
8.83624
20
8.86506
30
5.04
0
VERTEX
10
8.83624
20
8.86284
30
5.04
0
SEQEND
0
POLYLINE
62
31
66
1
70
1
3
contour
0
VERTEX
10
8.82041
20
9.30751
30
5.04
0
VERTEX
10
8.84674
20
9.29105
30
5.04
0
VERTEX
10
8.86319
20
9.27459
30
5.04
0
VERTEX
10
8.87636
20
9.2713
30
5.04
0
VERTEX
10
8.98168
20
9.29105
30
5.04
0
VERTEX
10
9.00801
20
9.29434
30
5.04
0
VERTEX
10
9.02117
20
9.29763
30
5.04
0
VERTEX
10
9.03763
20
9.32067
30
5.04
0
VERTEX
10
9.04421
20
9.33384
30
5.04
0
VERTEX
10
9.04421
20
9.36017
30
5.04
0
VERTEX
10
9.03763
20
9.37333
30
5.04
0
VERTEX
10
9.03763
20
9.38649
30
5.04
0
VERTEX
10
9.02446
20
9.39966
30
5.04
0
VERTEX
10
9.01788
20
9.39966
30
5.04
0
VERTEX
10
8.99484
20
9.4227
30
5.04
0
VERTEX
10
8.96851
20
9.43257
30
5.04
0
VERTEX
10
8.94547
20
9.45232
30
5.04
0
VERTEX
10
8.93231
20
9.46219
30
5.04
0
VERTEX
10
8.87965
20
9.47207
30
5.04
0
VERTEX
10
8.86649
20
9.46877
30
5.04
0
VERTEX
10
8.85332
20
9.4589
30
5.04
0
VERTEX
10
8.84674
20
9.4589
30
5.04
0
VERTEX
10
8.83357
20
9.44903
30
5.04
0
VERTEX
10
8.83028
20
9.43586
30
5.04
0
VERTEX
10
8.82041
20
9.4227
30
5.04
0
VERTEX
10
8.82041
20
9.37004
30
5.04
0
VERTEX
10
8.8237
20
9.34371
30
5.04
0
VERTEX
10
8.82041
20
9.31738
30
5.04
0
VERTEX
10
8.82041
20
9.3108
30
5.04
0
SEQEND
0
POLYLINE
62
31
66
1
70
1
3
contour
0
VERTEX
10
9.87104
20
8.74409
30
5.04
0
VERTEX
10
9.87376
20
8.73322
30
5.04
0
VERTEX
10
9.87376
20
8.72779
30
5.04
0
VERTEX
10
9.8819
20
8.72236
30
5.04
0
VERTEX
10
9.90091
20
8.70064
30
5.04
0
VERTEX
10
9.91721
20
8.68434
30
5.04
0
VERTEX
10
9.95794
20
8.65447
30
5.04
0
VERTEX
10
9.9688
20
8.65447
30
5.04
0
VERTEX
10
9.98781
20
8.64633
30
5.04
0
VERTEX
10
10.0095
20
8.64361
30
5.04
0
VERTEX
10
10.0204
20
8.6409
30
5.04
0
VERTEX
10
10.0638
20
8.61374
30
5.04
0
VERTEX
10
10.0693
20
8.61374
30
5.04
0
VERTEX
10
10.091
20
8.59745
30
5.04
0
VERTEX
10
10.1127
20
8.58658
30
5.04
0
VERTEX
10
10.1236
20
8.58387
30
5.04
0
VERTEX
10
10.1345
20
8.57572
30
5.04
0
VERTEX
10
10.1562
20
8.57029
30
5.04
0
VERTEX
10
10.1779
20
8.55943
30
5.04
0
VERTEX
10
10.1888
20
8.55671
30
5.04
0
VERTEX
10
10.1942
20
8.554
30
5.04
0
VERTEX
10
10.1942
20
8.54857
30
5.04
0
VERTEX
10
10.2051
20
8.54314
30
5.04
0
VERTEX
10
10.2132
20
8.53227
30
5.04
0
VERTEX
10
10.2567
20
8.52956
30
5.04
0
VERTEX
10
10.3001
20
8.52141
30
5.04
0
VERTEX
10
10.311
20
8.52141
30
5.04
0
VERTEX
10
10.3218
20
8.51598
30
5.04
0
VERTEX
10
10.3327
20
8.51598
30
5.04
0
VERTEX
10
10.3435
20
8.51055
30
5.04
0
VERTEX
10
10.4304
20
8.51326
30
5.04
0
VERTEX
10
10.4739
20
8.51598
30
5.04
0
VERTEX
10
10.4956
20
8.52141
30
5.04
0
VERTEX
10
10.5146
20
8.53499
30
5.04
0
VERTEX
10
10.5201
20
8.54585
30
5.04
0
VERTEX
10
10.5255
20
8.55128
30
5.04
0
VERTEX
10
10.5391
20
8.59202
30
5.04
0
VERTEX
10
10.5418
20
8.60288
30
5.04
0
VERTEX
10
10.5418
20
8.60831
30
5.04
0
VERTEX
10
10.5472
20
8.61374
30
5.04
0
VERTEX
10
10.5472
20
8.65719
30
5.04
0
VERTEX
10
10.5418
20
8.67891
30
5.04
0
VERTEX
10
10.5038
20
8.71693
30
5.04
0
VERTEX
10
10.4929
20
8.72508
30
5.04
0
VERTEX
10
10.4875
20
8.73594
30
5.04
0
VERTEX
10
10.4766
20
8.74409
30
5.04
0
VERTEX
10
10.4657
20
8.7631
30
5.04
0
VERTEX
10
10.4576
20
8.77124
30
5.04
0
VERTEX
10
10.4495
20
8.79025
30
5.04
0
VERTEX
10
10.4359
20
8.80654
30
5.04
0
VERTEX
10
10.4386
20
8.81741
30
5.04
0
VERTEX
10
10.4413
20
8.82012
30
5.04
0
VERTEX
10
10.4332
20
8.83098
30
5.04
0
VERTEX
10
10.425
20
8.83642
30
5.04
0
VERTEX
10
10.4169
20
8.84728
30
5.04
0
VERTEX
10
10.4114
20
8.85271
30
5.04
0
VERTEX
10
10.4087
20
8.86357
30
5.04
0
VERTEX
10
10.3761
20
8.89616
30
5.04
0
VERTEX
10
10.3707
20
8.89616
30
5.04
0
VERTEX
10
10.3653
20
8.90159
30
5.04
0
VERTEX
10
10.3598
20
8.90159
30
5.04
0
VERTEX
10
10.3571
20
8.90702
30
5.04
0
VERTEX
10
10.2702
20
8.92603
30
5.04
0
VERTEX
10
10.2485
20
8.93418
30
5.04
0
VERTEX
10
10.1616
20
8.95318
30
5.04
0
VERTEX
10
10.1182
20
8.96133
30
5.04
0
VERTEX
10
10.0747
20
8.96133
30
5.04
0
VERTEX
10
10.0313
20
8.9559
30
5.04
0
VERTEX
10
10.0095
20
8.95047
30
5.04
0
VERTEX
10
9.98781
20
8.95047
30
5.04
0
VERTEX
10
9.97695
20
8.95047
30
5.04
0
VERTEX
10
9.97152
20
8.94775
30
5.04
0
VERTEX
10
9.97423
20
8.94232
30
5.04
0
VERTEX
10
9.95522
20
8.92331
30
5.04
0
VERTEX
10
9.9335
20
8.91245
30
5.04
0
VERTEX
10
9.92535
20
8.90702
30
5.04
0
VERTEX
10
9.91992
20
8.90702
30
5.04
0
VERTEX
10
9.91178
20
8.89616
30
5.04
0
VERTEX
10
9.90091
20
8.89073
30
5.04
0
VERTEX
10
9.89548
20
8.87986
30
5.04
0
VERTEX
10
9.89277
20
8.85814
30
5.04
0
VERTEX
10
9.87647
20
8.83642
30
5.04
0
VERTEX
10
9.87104
20
8.81469
30
5.04
0
VERTEX
10
9.87104
20
8.77124
30
5.04
0
VERTEX
10
9.87104
20
8.74952
30
5.04
0
VERTEX
10
9.87104
20
8.7468
30
5.04
0
SEQEND
0
POLYLINE
62
224
66
1
70
1
3
mitochondrion
0
VERTEX
10
9.10871
20
8.94881
30
5.04
0
VERTEX
10
9.11288
20
8.92656
30
5.04
0
VERTEX
10
9.11288
20
8.921
30
5.04
0
VERTEX
10
9.11844
20
8.90987
30
5.04
0
VERTEX
10
9.12122
20
8.90431
30
5.04
0
VERTEX
10
9.12122
20
8.90153
30
5.04
0
VERTEX
10
9.13095
20
8.89041
30
5.04
0
VERTEX
10
9.13651
20
8.88624
30
5.04
0
VERTEX
10
9.1393
20
8.88346
30
5.04
0
VERTEX
10
9.14486
20
8.88207
30
5.04
0
VERTEX
10
9.15042
20
8.87789
30
5.04
0
VERTEX
10
9.16154
20
8.87511
30
5.04
0
VERTEX
10
9.16432
20
8.87233
30
5.04
0
VERTEX
10
9.17545
20
8.87233
30
5.04
0
VERTEX
10
9.18657
20
8.87511
30
5.04
0
VERTEX
10
9.18935
20
8.87511
30
5.04
0
VERTEX
10
9.19352
20
8.88068
30
5.04
0
VERTEX
10
9.19769
20
8.88346
30
5.04
0
VERTEX
10
9.19908
20
8.88624
30
5.04
0
VERTEX
10
9.20187
20
8.88624
30
5.04
0
VERTEX
10
9.21299
20
8.89319
30
5.04
0
VERTEX
10
9.21577
20
8.89319
30
5.04
0
VERTEX
10
9.21855
20
8.89041
30
5.04
0
VERTEX
10
9.22411
20
8.8918
30
5.04
0
VERTEX
10
9.23245
20
8.90014
30
5.04
0
VERTEX
10
9.23524
20
8.90153
30
5.04
0
VERTEX
10
9.23663
20
8.90709
30
5.04
0
VERTEX
10
9.2547
20
8.92795
30
5.04
0
VERTEX
10
9.26026
20
8.93351
30
5.04
0
VERTEX
10
9.26722
20
8.94464
30
5.04
0
VERTEX
10
9.27139
20
8.94881
30
5.04
0
VERTEX
10
9.27556
20
8.95993
30
5.04
0
VERTEX
10
9.27834
20
8.96549
30
5.04
0
VERTEX
10
9.27695
20
8.98774
30
5.04
0
VERTEX
10
9.27556
20
8.99886
30
5.04
0
VERTEX
10
9.27417
20
9.00442
30
5.04
0
VERTEX
10
9.26443
20
9.01555
30
5.04
0
VERTEX
10
9.25887
20
9.01972
30
5.04
0
VERTEX
10
9.25609
20
9.01972
30
5.04
0
VERTEX
10
9.2547
20
9.0225
30
5.04
0
VERTEX
10
9.23245
20
9.03223
30
5.04
0
VERTEX
10
9.22133
20
9.03918
30
5.04
0
VERTEX
10
9.21577
20
9.04197
30
5.04
0
VERTEX
10
9.19352
20
9.04475
30
5.04
0
VERTEX
10
9.1824
20
9.04475
30
5.04
0
VERTEX
10
9.17128
20
9.04197
30
5.04
0
VERTEX
10
9.16154
20
9.03501
30
5.04
0
VERTEX
10
9.15876
20
9.03501
30
5.04
0
VERTEX
10
9.1532
20
9.02945
30
5.04
0
VERTEX
10
9.14764
20
9.02806
30
5.04
0
VERTEX
10
9.14486
20
9.02806
30
5.04
0
VERTEX
10
9.13512
20
9.01833
30
5.04
0
VERTEX
10
9.13095
20
9.01277
30
5.04
0
VERTEX
10
9.12817
20
9.01138
30
5.04
0
VERTEX
10
9.12956
20
9.00581
30
5.04
0
VERTEX
10
9.12122
20
8.99469
30
5.04
0
VERTEX
10
9.11566
20
8.99052
30
5.04
0
VERTEX
10
9.1101
20
8.9794
30
5.04
0
VERTEX
10
9.10871
20
8.95715
30
5.04
0
VERTEX
10
9.10871
20
8.95159
30
5.04
0
VERTEX
10
9.10871
20
8.9502
30
5.04
0
SEQEND
0
POLYLINE
62
236
66
1
70
1
3
postsynaptic_density
0
VERTEX
10
10.268
20
8.87766
30
5.04
0
VERTEX
10
10.2848
20
8.81794
30
5.04
0
VERTEX
10
10.2923
20
8.78808
30
5.04
0
VERTEX
10
10.2979
20
8.78061
30
5.04
0
VERTEX
10
10.3053
20
8.77875
30
5.04
0
VERTEX
10
10.3128
20
8.77315
30
5.04
0
VERTEX
10
10.3203
20
8.77128
30
5.04
0
VERTEX
10
10.3352
20
8.76195
30
5.04
0
VERTEX
10
10.3501
20
8.75635
30
5.04
0
VERTEX
10
10.38
20
8.75075
30
5.04
0
VERTEX
10
10.4098
20
8.74889
30
5.04
0
VERTEX
10
10.4248
20
8.75075
30
5.04
0
VERTEX
10
10.4546
20
8.76009
30
5.04
0
VERTEX
10
10.4565
20
8.76382
30
5.04
0
VERTEX
10
10.4714
20
8.76755
30
5.04
0
VERTEX
10
10.4826
20
8.78061
30
5.04
0
VERTEX
10
10.4863
20
8.78248
30
5.04
0
VERTEX
10
10.4863
20
8.78621
30
5.04
0
VERTEX
10
10.4938
20
8.79181
30
5.04
0
VERTEX
10
10.4994
20
8.80674
30
5.04
0
VERTEX
10
10.4994
20
8.8366
30
5.04
0
VERTEX
10
10.4938
20
8.85153
30
5.04
0
VERTEX
10
10.4919
20
8.859
30
5.04
0
VERTEX
10
10.4789
20
8.87206
30
5.04
0
VERTEX
10
10.4752
20
8.87952
30
5.04
0
VERTEX
10
10.4602
20
8.89445
30
5.04
0
VERTEX
10
10.4322
20
8.91498
30
5.04
0
VERTEX
10
10.4042
20
8.93178
30
5.04
0
VERTEX
10
10.3968
20
8.93365
30
5.04
0
VERTEX
10
10.393
20
8.93365
30
5.04
0
VERTEX
10
10.3893
20
8.93738
30
5.04
0
VERTEX
10
10.3296
20
8.93551
30
5.04
0
VERTEX
10
10.3147
20
8.93365
30
5.04
0
VERTEX
10
10.3072
20
8.92805
30
5.04
0
VERTEX
10
10.3035
20
8.92805
30
5.04
0
VERTEX
10
10.2923
20
8.91498
30
5.04
0
VERTEX
10
10.2848
20
8.90005
30
5.04
0
VERTEX
10
10.2736
20
8.88886
30
5.04
0
VERTEX
10
10.2736
20
8.88512
30
5.04
0
VERTEX
10
10.268
20
8.87952
30
5.04
0
SEQEND
0
POLYLINE
62
236
66
1
70
1
3
postsynaptic_density
0
VERTEX
10
9.99366
20
8.95417
30
5.04
0
VERTEX
10
10.0011
20
8.93924
30
5.04
0
VERTEX
10
10.0273
20
8.91872
30
5.04
0
VERTEX
10
10.0422
20
8.91312
30
5.04
0
VERTEX
10
10.072
20
8.91498
30
5.04
0
VERTEX
10
10.1019
20
8.92805
30
5.04
0
VERTEX
10
10.1094
20
8.92805
30
5.04
0
VERTEX
10
10.1243
20
8.93738
30
5.04
0
VERTEX
10
10.1374
20
8.95231
30
5.04
0
VERTEX
10
10.1374
20
8.95977
30
5.04
0
VERTEX
10
10.1523
20
8.97097
30
5.04
0
VERTEX
10
10.1598
20
8.97843
30
5.04
0
VERTEX
10
10.1728
20
8.98777
30
5.04
0
VERTEX
10
10.184
20
9.00083
30
5.04
0
VERTEX
10
10.1878
20
9.00456
30
5.04
0
VERTEX
10
10.1859
20
9.00829
30
5.04
0
VERTEX
10
10.171
20
9.00643
30
5.04
0
VERTEX
10
10.0515
20
9.01389
30
5.04
0
VERTEX
10
10.0366
20
9.00829
30
5.04
0
VERTEX
10
10.0291
20
9.00456
30
5.04
0
VERTEX
10
10.0198
20
8.9915
30
5.04
0
VERTEX
10
10.0142
20
8.98777
30
5.04
0
VERTEX
10
10.0011
20
8.97284
30
5.04
0
VERTEX
10
9.99553
20
8.96537
30
5.04
0
VERTEX
10
9.99366
20
8.95791
30
5.04
0
VERTEX
10
9.99366
20
8.95604
30
5.04
0
SEQEND
0
POLYLINE
62
227
66
1
70
1
3
endoplasmic_reticulum
0
VERTEX
10
9.02949
20
8.81522
30
5.04
0
VERTEX
10
9.03173
20
8.80624
30
5.04
0
VERTEX
10
9.0407
20
8.80849
30
5.04
0
VERTEX
10
9.04968
20
8.81298
30
5.04
0
VERTEX
10
9.05417
20
8.8141
30
5.04
0
VERTEX
10
9.05865
20
8.81858
30
5.04
0
VERTEX
10
9.06763
20
8.82195
30
5.04
0
VERTEX
10
9.06987
20
8.82195
30
5.04
0
VERTEX
10
9.09792
20
8.84887
30
5.04
0
VERTEX
10
9.10465
20
8.85673
30
5.04
0
VERTEX
10
9.10689
20
8.85897
30
5.04
0
VERTEX
10
9.10577
20
8.86794
30
5.04
0
VERTEX
10
9.06987
20
8.8657
30
5.04
0
VERTEX
10
9.06538
20
8.86458
30
5.04
0
VERTEX
10
9.06202
20
8.86682
30
5.04
0
VERTEX
10
9.05304
20
8.8657
30
5.04
0
VERTEX
10
9.04856
20
8.8657
30
5.04
0
VERTEX
10
9.04183
20
8.85785
30
5.04
0
VERTEX
10
9.03846
20
8.85336
30
5.04
0
VERTEX
10
9.0351
20
8.85112
30
5.04
0
VERTEX
10
9.03061
20
8.84214
30
5.04
0
VERTEX
10
9.02949
20
8.82419
30
5.04
0
VERTEX
10
9.02949
20
8.81634
30
5.04
0
SEQEND
0
POLYLINE
62
227
66
1
70
1
3
endoplasmic_reticulum
0
VERTEX
10
9.30433
20
8.9117
30
5.04
0
VERTEX
10
9.30882
20
8.90833
30
5.04
0
VERTEX
10
9.30994
20
8.90384
30
5.04
0
VERTEX
10
9.31443
20
8.89936
30
5.04
0
VERTEX
10
9.3234
20
8.89823
30
5.04
0
VERTEX
10
9.32565
20
8.89936
30
5.04
0
VERTEX
10
9.32565
20
8.9016
30
5.04
0
VERTEX
10
9.33013
20
8.90384
30
5.04
0
VERTEX
10
9.33125
20
8.92179
30
5.04
0
VERTEX
10
9.32789
20
8.93974
30
5.04
0
VERTEX
10
9.32789
20
8.95769
30
5.04
0
VERTEX
10
9.32677
20
8.96666
30
5.04
0
VERTEX
10
9.32452
20
8.96891
30
5.04
0
VERTEX
10
9.31555
20
8.97003
30
5.04
0
VERTEX
10
9.31106
20
8.96891
30
5.04
0
VERTEX
10
9.30882
20
8.96666
30
5.04
0
VERTEX
10
9.3077
20
8.96218
30
5.04
0
VERTEX
10
9.30545
20
8.96106
30
5.04
0
VERTEX
10
9.30433
20
8.92516
30
5.04
0
VERTEX
10
9.30433
20
8.91618
30
5.04
0
VERTEX
10
9.30433
20
8.91282
30
5.04
0
SEQEND
0
POLYLINE
62
227
66
1
70
1
3
endoplasmic_reticulum
0
VERTEX
10
8.94574
20
8.93767
30
5.04
0
VERTEX
10
8.95022
20
8.93139
30
5.04
0
VERTEX
10
8.95291
20
8.92781
30
5.04
0
VERTEX
10
8.95291
20
8.92601
30
5.04
0
VERTEX
10
8.95739
20
8.91884
30
5.04
0
VERTEX
10
8.96008
20
8.91525
30
5.04
0
VERTEX
10
8.96098
20
8.90808
30
5.04
0
VERTEX
10
8.95829
20
8.89374
30
5.04
0
VERTEX
10
8.95829
20
8.86505
30
5.04
0
VERTEX
10
8.95919
20
8.8507
30
5.04
0
VERTEX
10
8.95919
20
8.84353
30
5.04
0
VERTEX
10
8.96098
20
8.83994
30
5.04
0
VERTEX
10
8.96277
20
8.83815
30
5.04
0
VERTEX
10
8.96456
20
8.83815
30
5.04
0
VERTEX
10
8.96636
20
8.83636
30
5.04
0
VERTEX
10
8.9807
20
8.83367
30
5.04
0
VERTEX
10
8.98787
20
8.83457
30
5.04
0
VERTEX
10
8.98967
20
8.83457
30
5.04
0
VERTEX
10
8.99146
20
8.83636
30
5.04
0
VERTEX
10
8.99505
20
8.83726
30
5.04
0
VERTEX
10
8.99863
20
8.83994
30
5.04
0
VERTEX
10
8.99953
20
8.84353
30
5.04
0
VERTEX
10
9.00401
20
8.8507
30
5.04
0
VERTEX
10
9.0067
20
8.85788
30
5.04
0
VERTEX
10
9.0067
20
8.85967
30
5.04
0
VERTEX
10
9.0085
20
8.86146
30
5.04
0
VERTEX
10
9.0085
20
8.86325
30
5.04
0
VERTEX
10
9.01029
20
8.86505
30
5.04
0
VERTEX
10
9.01029
20
8.86863
30
5.04
0
VERTEX
10
9.01298
20
8.87581
30
5.04
0
VERTEX
10
9.01298
20
8.89015
30
5.04
0
VERTEX
10
9.01118
20
8.89732
30
5.04
0
VERTEX
10
9.01029
20
8.90091
30
5.04
0
VERTEX
10
9.01298
20
8.90719
30
5.04
0
VERTEX
10
9.01567
20
8.91077
30
5.04
0
VERTEX
10
9.01656
20
8.91794
30
5.04
0
VERTEX
10
9.01567
20
8.92153
30
5.04
0
VERTEX
10
9.01029
20
8.9287
30
5.04
0
VERTEX
10
9.0076
20
8.93588
30
5.04
0
VERTEX
10
9.0067
20
8.93946
30
5.04
0
VERTEX
10
9.0067
20
8.94125
30
5.04
0
VERTEX
10
9.0085
20
8.94305
30
5.04
0
VERTEX
10
9.00939
20
8.94663
30
5.04
0
VERTEX
10
9.01029
20
8.94843
30
5.04
0
VERTEX
10
9.01387
20
8.94843
30
5.04
0
VERTEX
10
9.01567
20
8.94843
30
5.04
0
VERTEX
10
9.01746
20
8.95022
30
5.04
0
VERTEX
10
9.02463
20
8.95291
30
5.04
0
VERTEX
10
9.0345
20
8.96456
30
5.04
0
VERTEX
10
9.04077
20
8.97084
30
5.04
0
VERTEX
10
9.04436
20
8.97443
30
5.04
0
VERTEX
10
9.04615
20
8.97622
30
5.04
0
VERTEX
10
9.04615
20
8.97981
30
5.04
0
VERTEX
10
9.04615
20
8.9816
30
5.04
0
VERTEX
10
9.04884
20
8.98519
30
5.04
0
VERTEX
10
9.04794
20
8.99236
30
5.04
0
VERTEX
10
9.04884
20
8.99953
30
5.04
0
VERTEX
10
9.05063
20
9.00222
30
5.04
0
VERTEX
10
9.06498
20
9.00491
30
5.04
0
VERTEX
10
9.06856
20
9.00491
30
5.04
0
VERTEX
10
9.07215
20
9.0067
30
5.04
0
VERTEX
10
9.07932
20
9.0067
30
5.04
0
VERTEX
10
9.08649
20
9.0085
30
5.04
0
VERTEX
10
9.09098
20
9.01477
30
5.04
0
VERTEX
10
9.09815
20
9.01925
30
5.04
0
VERTEX
10
9.10532
20
9.02105
30
5.04
0
VERTEX
10
9.10712
20
9.02284
30
5.04
0
VERTEX
10
9.11429
20
9.02463
30
5.04
0
VERTEX
10
9.11787
20
9.02643
30
5.04
0
VERTEX
10
9.11967
20
9.02643
30
5.04
0
VERTEX
10
9.12415
20
9.03091
30
5.04
0
VERTEX
10
9.12415
20
9.0327
30
5.04
0
VERTEX
10
9.13043
20
9.03718
30
5.04
0
VERTEX
10
9.13222
20
9.03898
30
5.04
0
VERTEX
10
9.13132
20
9.04615
30
5.04
0
VERTEX
10
9.13132
20
9.04794
30
5.04
0
VERTEX
10
9.12594
20
9.05422
30
5.04
0
VERTEX
10
9.12415
20
9.05781
30
5.04
0
VERTEX
10
9.12056
20
9.06049
30
5.04
0
VERTEX
10
9.11698
20
9.06139
30
5.04
0
VERTEX
10
9.11518
20
9.06318
30
5.04
0
VERTEX
10
9.1116
20
9.06318
30
5.04
0
VERTEX
10
9.1107
20
9.06408
30
5.04
0
VERTEX
10
9.11429
20
9.07125
30
5.04
0
VERTEX
10
9.11339
20
9.07305
30
5.04
0
VERTEX
10
9.0847
20
9.07215
30
5.04
0
VERTEX
10
9.07305
20
9.06229
30
5.04
0
VERTEX
10
9.06408
20
9.04884
30
5.04
0
VERTEX
10
9.06318
20
9.04525
30
5.04
0
VERTEX
10
9.0596
20
9.04167
30
5.04
0
VERTEX
10
9.05691
20
9.03987
30
5.04
0
VERTEX
10
9.04974
20
9.03987
30
5.04
0
VERTEX
10
9.04705
20
9.04167
30
5.04
0
VERTEX
10
9.0327
20
9.03718
30
5.04
0
VERTEX
10
9.02912
20
9.03539
30
5.04
0
VERTEX
10
9.02374
20
9.02912
30
5.04
0
VERTEX
10
9.02105
20
9.02553
30
5.04
0
VERTEX
10
9.01836
20
9.01836
30
5.04
0
VERTEX
10
9.01477
20
9.01567
30
5.04
0
VERTEX
10
9.0076
20
9.01298
30
5.04
0
VERTEX
10
9.00581
20
9.01118
30
5.04
0
VERTEX
10
9.00581
20
9.00939
30
5.04
0
VERTEX
10
9.00401
20
9.0076
30
5.04
0
VERTEX
10
9.00401
20
9.00581
30
5.04
0
VERTEX
10
9.00132
20
9.00222
30
5.04
0
VERTEX
10
9.00043
20
8.99863
30
5.04
0
VERTEX
10
8.99774
20
8.99505
30
5.04
0
VERTEX
10
8.99684
20
8.99146
30
5.04
0
VERTEX
10
8.99505
20
8.98967
30
5.04
0
VERTEX
10
8.99325
20
8.9825
30
5.04
0
VERTEX
10
8.96456
20
8.9816
30
5.04
0
VERTEX
10
8.96187
20
8.97532
30
5.04
0
VERTEX
10
8.95739
20
8.96815
30
5.04
0
VERTEX
10
8.95112
20
8.96367
30
5.04
0
VERTEX
10
8.94843
20
8.95739
30
5.04
0
VERTEX
10
8.94843
20
8.95381
30
5.04
0
VERTEX
10
8.94663
20
8.95201
30
5.04
0
VERTEX
10
8.94574
20
8.93856
30
5.04
0
SEQEND
0
ENDSEC
0
EOF
