0
SECTION
2
ENTITIES
0
POLYLINE
62
31
66
1
70
1
3
contour
0
VERTEX
10
8.13291
20
9.78214
30
7.16
0
VERTEX
10
8.14276
20
9.76245
30
7.16
0
VERTEX
10
8.14768
20
9.68368
30
7.16
0
VERTEX
10
8.17229
20
9.64429
30
7.16
0
VERTEX
10
8.17229
20
9.63445
30
7.16
0
VERTEX
10
8.20183
20
9.60491
30
7.16
0
VERTEX
10
8.21168
20
9.59506
30
7.16
0
VERTEX
10
8.21168
20
9.58522
30
7.16
0
VERTEX
10
8.23629
20
9.55075
30
7.16
0
VERTEX
10
8.31014
20
9.48183
30
7.16
0
VERTEX
10
8.38891
20
9.46706
30
7.16
0
VERTEX
10
8.40368
20
9.45722
30
7.16
0
VERTEX
10
8.48245
20
9.45229
30
7.16
0
VERTEX
10
8.56122
20
9.46214
30
7.16
0
VERTEX
10
8.58091
20
9.46214
30
7.16
0
VERTEX
10
8.61537
20
9.48675
30
7.16
0
VERTEX
10
8.65476
20
9.49168
30
7.16
0
VERTEX
10
8.67445
20
9.4966
30
7.16
0
VERTEX
10
8.68429
20
9.4966
30
7.16
0
VERTEX
10
8.69414
20
9.50645
30
7.16
0
VERTEX
10
8.77291
20
9.50152
30
7.16
0
VERTEX
10
8.7926
20
9.50152
30
7.16
0
VERTEX
10
8.80245
20
9.50152
30
7.16
0
VERTEX
10
8.82214
20
9.52122
30
7.16
0
VERTEX
10
8.81722
20
9.59998
30
7.16
0
VERTEX
10
8.81229
20
9.63937
30
7.16
0
VERTEX
10
8.82214
20
9.67875
30
7.16
0
VERTEX
10
8.82214
20
9.69845
30
7.16
0
VERTEX
10
8.83199
20
9.71814
30
7.16
0
VERTEX
10
8.83199
20
9.73783
30
7.16
0
VERTEX
10
8.84676
20
9.77722
30
7.16
0
VERTEX
10
8.84676
20
9.79691
30
7.16
0
VERTEX
10
8.87137
20
9.83629
30
7.16
0
VERTEX
10
8.89106
20
9.85106
30
7.16
0
VERTEX
10
8.93045
20
9.86583
30
7.16
0
VERTEX
10
8.95014
20
9.87075
30
7.16
0
VERTEX
10
8.97475
20
9.90029
30
7.16
0
VERTEX
10
8.9846
20
9.91014
30
7.16
0
VERTEX
10
8.9846
20
9.94952
30
7.16
0
VERTEX
10
8.9846
20
9.96921
30
7.16
0
VERTEX
10
8.96983
20
9.98891
30
7.16
0
VERTEX
10
8.95506
20
9.99875
30
7.16
0
VERTEX
10
8.94522
20
9.99875
30
7.16
0
VERTEX
10
8.94029
20
10.0086
30
7.16
0
VERTEX
10
8.90091
20
10.0184
30
7.16
0
VERTEX
10
8.89106
20
10.0234
30
7.16
0
VERTEX
10
8.89106
20
10.0628
30
7.16
0
VERTEX
10
8.89106
20
10.0824
30
7.16
0
VERTEX
10
8.88614
20
10.0923
30
7.16
0
VERTEX
10
8.80737
20
10.0972
30
7.16
0
VERTEX
10
8.78768
20
10.1021
30
7.16
0
VERTEX
10
8.74829
20
10.0923
30
7.16
0
VERTEX
10
8.43322
20
10.0923
30
7.16
0
VERTEX
10
8.35445
20
10.0874
30
7.16
0
VERTEX
10
8.31506
20
10.0775
30
7.16
0
VERTEX
10
8.29537
20
10.0824
30
7.16
0
VERTEX
10
8.26091
20
10.0578
30
7.16
0
VERTEX
10
8.25106
20
10.0578
30
7.16
0
VERTEX
10
8.22153
20
10.0184
30
7.16
0
VERTEX
10
8.20183
20
9.99875
30
7.16
0
VERTEX
10
8.18706
20
9.95937
30
7.16
0
VERTEX
10
8.1526
20
9.91998
30
7.16
0
VERTEX
10
8.13783
20
9.84121
30
7.16
0
VERTEX
10
8.13291
20
9.80183
30
7.16
0
VERTEX
10
8.13291
20
9.78706
30
7.16
0
SEQEND
0
POLYLINE
62
224
66
1
70
1
3
mitochondrion
0
VERTEX
10
8.24525
20
9.69825
30
7.16
0
VERTEX
10
8.24664
20
9.68713
30
7.16
0
VERTEX
10
8.25359
20
9.66488
30
7.16
0
VERTEX
10
8.25498
20
9.65375
30
7.16
0
VERTEX
10
8.25637
20
9.64819
30
7.16
0
VERTEX
10
8.26054
20
9.64263
30
7.16
0
VERTEX
10
8.26472
20
9.63985
30
7.16
0
VERTEX
10
8.26611
20
9.63429
30
7.16
0
VERTEX
10
8.26611
20
9.63151
30
7.16
0
VERTEX
10
8.26889
20
9.63012
30
7.16
0
VERTEX
10
8.27028
20
9.62456
30
7.16
0
VERTEX
10
8.28001
20
9.61343
30
7.16
0
VERTEX
10
8.28696
20
9.60509
30
7.16
0
VERTEX
10
8.29809
20
9.59675
30
7.16
0
VERTEX
10
8.30087
20
9.59397
30
7.16
0
VERTEX
10
8.30365
20
9.59397
30
7.16
0
VERTEX
10
8.30921
20
9.5884
30
7.16
0
VERTEX
10
8.31477
20
9.58562
30
7.16
0
VERTEX
10
8.32589
20
9.57589
30
7.16
0
VERTEX
10
8.33146
20
9.57172
30
7.16
0
VERTEX
10
8.33702
20
9.57033
30
7.16
0
VERTEX
10
8.34119
20
9.56616
30
7.16
0
VERTEX
10
8.34397
20
9.56616
30
7.16
0
VERTEX
10
8.34675
20
9.56338
30
7.16
0
VERTEX
10
8.35231
20
9.56338
30
7.16
0
VERTEX
10
8.37039
20
9.54808
30
7.16
0
VERTEX
10
8.37595
20
9.54391
30
7.16
0
VERTEX
10
8.38012
20
9.53279
30
7.16
0
VERTEX
10
8.39124
20
9.5314
30
7.16
0
VERTEX
10
8.39681
20
9.53001
30
7.16
0
VERTEX
10
8.39959
20
9.53001
30
7.16
0
VERTEX
10
8.40237
20
9.52723
30
7.16
0
VERTEX
10
8.41349
20
9.52723
30
7.16
0
VERTEX
10
8.45799
20
9.52027
30
7.16
0
VERTEX
10
8.48023
20
9.51888
30
7.16
0
VERTEX
10
8.50248
20
9.52166
30
7.16
0
VERTEX
10
8.50804
20
9.52305
30
7.16
0
VERTEX
10
8.51082
20
9.52584
30
7.16
0
VERTEX
10
8.52194
20
9.52584
30
7.16
0
VERTEX
10
8.52751
20
9.52862
30
7.16
0
VERTEX
10
8.53029
20
9.52862
30
7.16
0
VERTEX
10
8.53307
20
9.5314
30
7.16
0
VERTEX
10
8.53585
20
9.5314
30
7.16
0
VERTEX
10
8.53863
20
9.53418
30
7.16
0
VERTEX
10
8.54975
20
9.53835
30
7.16
0
VERTEX
10
8.56088
20
9.53974
30
7.16
0
VERTEX
10
8.58173
20
9.54947
30
7.16
0
VERTEX
10
8.59286
20
9.55086
30
7.16
0
VERTEX
10
8.59842
20
9.55086
30
7.16
0
VERTEX
10
8.60398
20
9.55503
30
7.16
0
VERTEX
10
8.6151
20
9.55921
30
7.16
0
VERTEX
10
8.62484
20
9.56755
30
7.16
0
VERTEX
10
8.62762
20
9.56755
30
7.16
0
VERTEX
10
8.64708
20
9.58701
30
7.16
0
VERTEX
10
8.65265
20
9.59258
30
7.16
0
VERTEX
10
8.6596
20
9.60231
30
7.16
0
VERTEX
10
8.6596
20
9.60509
30
7.16
0
VERTEX
10
8.66933
20
9.61343
30
7.16
0
VERTEX
10
8.67628
20
9.62456
30
7.16
0
VERTEX
10
8.67906
20
9.63012
30
7.16
0
VERTEX
10
8.68184
20
9.6329
30
7.16
0
VERTEX
10
8.68184
20
9.63846
30
7.16
0
VERTEX
10
8.68463
20
9.64402
30
7.16
0
VERTEX
10
8.7027
20
9.66488
30
7.16
0
VERTEX
10
8.71521
20
9.68434
30
7.16
0
VERTEX
10
8.72356
20
9.70659
30
7.16
0
VERTEX
10
8.72634
20
9.71215
30
7.16
0
VERTEX
10
8.72634
20
9.71771
30
7.16
0
VERTEX
10
8.72912
20
9.72328
30
7.16
0
VERTEX
10
8.72912
20
9.72606
30
7.16
0
VERTEX
10
8.7319
20
9.72884
30
7.16
0
VERTEX
10
8.73607
20
9.77333
30
7.16
0
VERTEX
10
8.73746
20
9.78446
30
7.16
0
VERTEX
10
8.73329
20
9.8067
30
7.16
0
VERTEX
10
8.73329
20
9.82895
30
7.16
0
VERTEX
10
8.73051
20
9.84007
30
7.16
0
VERTEX
10
8.72634
20
9.84424
30
7.16
0
VERTEX
10
8.72495
20
9.84981
30
7.16
0
VERTEX
10
8.718
20
9.86093
30
7.16
0
VERTEX
10
8.718
20
9.86649
30
7.16
0
VERTEX
10
8.71243
20
9.86927
30
7.16
0
VERTEX
10
8.70965
20
9.87205
30
7.16
0
VERTEX
10
8.70409
20
9.87205
30
7.16
0
VERTEX
10
8.69297
20
9.879
30
7.16
0
VERTEX
10
8.69019
20
9.88179
30
7.16
0
VERTEX
10
8.67906
20
9.88318
30
7.16
0
VERTEX
10
8.6735
20
9.88318
30
7.16
0
VERTEX
10
8.66794
20
9.88735
30
7.16
0
VERTEX
10
8.66516
20
9.88735
30
7.16
0
VERTEX
10
8.66099
20
9.89152
30
7.16
0
VERTEX
10
8.65821
20
9.89152
30
7.16
0
VERTEX
10
8.64708
20
9.89986
30
7.16
0
VERTEX
10
8.62484
20
9.90264
30
7.16
0
VERTEX
10
8.60259
20
9.90264
30
7.16
0
VERTEX
10
8.58034
20
9.90681
30
7.16
0
VERTEX
10
8.5581
20
9.90681
30
7.16
0
VERTEX
10
8.5136
20
9.91377
30
7.16
0
VERTEX
10
8.49136
20
9.91237
30
7.16
0
VERTEX
10
8.48023
20
9.91237
30
7.16
0
VERTEX
10
8.46911
20
9.90959
30
7.16
0
VERTEX
10
8.44686
20
9.90959
30
7.16
0
VERTEX
10
8.43574
20
9.91098
30
7.16
0
VERTEX
10
8.43018
20
9.91098
30
7.16
0
VERTEX
10
8.4274
20
9.91237
30
7.16
0
VERTEX
10
8.40515
20
9.90681
30
7.16
0
VERTEX
10
8.36066
20
9.89986
30
7.16
0
VERTEX
10
8.34953
20
9.89986
30
7.16
0
VERTEX
10
8.34397
20
9.89847
30
7.16
0
VERTEX
10
8.34119
20
9.89569
30
7.16
0
VERTEX
10
8.33563
20
9.89569
30
7.16
0
VERTEX
10
8.33007
20
9.89152
30
7.16
0
VERTEX
10
8.32728
20
9.89152
30
7.16
0
VERTEX
10
8.31616
20
9.88179
30
7.16
0
VERTEX
10
8.3106
20
9.87761
30
7.16
0
VERTEX
10
8.30504
20
9.87622
30
7.16
0
VERTEX
10
8.29948
20
9.87066
30
7.16
0
VERTEX
10
8.29391
20
9.86788
30
7.16
0
VERTEX
10
8.29113
20
9.86232
30
7.16
0
VERTEX
10
8.27306
20
9.84424
30
7.16
0
VERTEX
10
8.26332
20
9.822
30
7.16
0
VERTEX
10
8.26193
20
9.81644
30
7.16
0
VERTEX
10
8.25776
20
9.81226
30
7.16
0
VERTEX
10
8.25776
20
9.79002
30
7.16
0
VERTEX
10
8.25498
20
9.76777
30
7.16
0
VERTEX
10
8.2522
20
9.75665
30
7.16
0
VERTEX
10
8.2522
20
9.74552
30
7.16
0
VERTEX
10
8.24525
20
9.72467
30
7.16
0
VERTEX
10
8.24525
20
9.70242
30
7.16
0
VERTEX
10
8.24525
20
9.69964
30
7.16
0
SEQEND
0
POLYLINE
62
227
66
1
70
1
3
endoplasmic_reticulum
0
VERTEX
10
8.86057
20
9.88801
30
7.16
0
VERTEX
10
8.86236
20
9.88621
30
7.16
0
VERTEX
10
8.86594
20
9.88711
30
7.16
0
VERTEX
10
8.87132
20
9.88173
30
7.16
0
VERTEX
10
8.8785
20
9.87725
30
7.16
0
VERTEX
10
8.88208
20
9.87725
30
7.16
0
VERTEX
10
8.88388
20
9.87546
30
7.16
0
VERTEX
10
8.89105
20
9.87456
30
7.16
0
VERTEX
10
8.90539
20
9.87546
30
7.16
0
VERTEX
10
8.91974
20
9.87904
30
7.16
0
VERTEX
10
8.92332
20
9.87994
30
7.16
0
VERTEX
10
8.92691
20
9.88352
30
7.16
0
VERTEX
10
8.9305
20
9.88442
30
7.16
0
VERTEX
10
8.93229
20
9.88442
30
7.16
0
VERTEX
10
8.93946
20
9.8889
30
7.16
0
VERTEX
10
8.94305
20
9.89249
30
7.16
0
VERTEX
10
8.94305
20
9.89428
30
7.16
0
VERTEX
10
8.95112
20
9.90863
30
7.16
0
VERTEX
10
8.95201
20
9.9158
30
7.16
0
VERTEX
10
8.95201
20
9.91939
30
7.16
0
VERTEX
10
8.94932
20
9.92656
30
7.16
0
VERTEX
10
8.94932
20
9.92835
30
7.16
0
VERTEX
10
8.94394
20
9.93463
30
7.16
0
VERTEX
10
8.94036
20
9.93642
30
7.16
0
VERTEX
10
8.91167
20
9.93821
30
7.16
0
VERTEX
10
8.90808
20
9.93821
30
7.16
0
VERTEX
10
8.90091
20
9.9409
30
7.16
0
VERTEX
10
8.89374
20
9.9418
30
7.16
0
VERTEX
10
8.88657
20
9.9409
30
7.16
0
VERTEX
10
8.88298
20
9.94001
30
7.16
0
VERTEX
10
8.8767
20
9.93463
30
7.16
0
VERTEX
10
8.87491
20
9.93373
30
7.16
0
VERTEX
10
8.87401
20
9.92656
30
7.16
0
VERTEX
10
8.86953
20
9.91939
30
7.16
0
VERTEX
10
8.86684
20
9.9167
30
7.16
0
VERTEX
10
8.86684
20
9.9149
30
7.16
0
VERTEX
10
8.86325
20
9.91311
30
7.16
0
VERTEX
10
8.86236
20
9.90594
30
7.16
0
VERTEX
10
8.86236
20
9.90235
30
7.16
0
VERTEX
10
8.86057
20
9.89877
30
7.16
0
VERTEX
10
8.86057
20
9.89159
30
7.16
0
VERTEX
10
8.86057
20
9.8889
30
7.16
0
SEQEND
0
POLYLINE
62
227
66
1
70
1
3
endoplasmic_reticulum
0
VERTEX
10
8.47953
20
10.0198
30
7.16
0
VERTEX
10
8.48133
20
10.0055
30
7.16
0
VERTEX
10
8.48312
20
10.0037
30
7.16
0
VERTEX
10
8.48312
20
10.0019
30
7.16
0
VERTEX
10
8.48671
20
9.99918
30
7.16
0
VERTEX
10
8.50105
20
9.99828
30
7.16
0
VERTEX
10
8.50822
20
9.99739
30
7.16
0
VERTEX
10
8.51181
20
9.99559
30
7.16
0
VERTEX
10
8.5136
20
9.99559
30
7.16
0
VERTEX
10
8.51808
20
9.98842
30
7.16
0
VERTEX
10
8.52436
20
9.98394
30
7.16
0
VERTEX
10
8.53871
20
9.98394
30
7.16
0
VERTEX
10
8.54588
20
9.98394
30
7.16
0
VERTEX
10
8.54946
20
9.98394
30
7.16
0
VERTEX
10
8.55664
20
9.98663
30
7.16
0
VERTEX
10
8.55843
20
9.98663
30
7.16
0
VERTEX
10
8.56202
20
9.99021
30
7.16
0
VERTEX
10
8.56919
20
9.9938
30
7.16
0
VERTEX
10
8.57277
20
9.99559
30
7.16
0
VERTEX
10
8.57457
20
9.99918
30
7.16
0
VERTEX
10
8.57457
20
10.0135
30
7.16
0
VERTEX
10
8.57367
20
10.0171
30
7.16
0
VERTEX
10
8.56381
20
10.0306
30
7.16
0
VERTEX
10
8.56291
20
10.0324
30
7.16
0
VERTEX
10
8.56112
20
10.0324
30
7.16
0
VERTEX
10
8.55305
20
10.0368
30
7.16
0
VERTEX
10
8.54588
20
10.0368
30
7.16
0
VERTEX
10
8.54229
20
10.0386
30
7.16
0
VERTEX
10
8.52795
20
10.0386
30
7.16
0
VERTEX
10
8.52436
20
10.0404
30
7.16
0
VERTEX
10
8.49567
20
10.0422
30
7.16
0
VERTEX
10
8.49208
20
10.0413
30
7.16
0
VERTEX
10
8.4885
20
10.0386
30
7.16
0
VERTEX
10
8.48402
20
10.0324
30
7.16
0
VERTEX
10
8.48133
20
10.0252
30
7.16
0
VERTEX
10
8.47953
20
10.0216
30
7.16
0
VERTEX
10
8.47953
20
10.0207
30
7.16
0
SEQEND
0
POLYLINE
62
227
66
1
70
1
3
endoplasmic_reticulum
0
VERTEX
10
8.31367
20
9.95614
30
7.16
0
VERTEX
10
8.31457
20
9.9418
30
7.16
0
VERTEX
10
8.31547
20
9.93821
30
7.16
0
VERTEX
10
8.31995
20
9.93104
30
7.16
0
VERTEX
10
8.32533
20
9.92656
30
7.16
0
VERTEX
10
8.3325
20
9.92387
30
7.16
0
VERTEX
10
8.33967
20
9.92297
30
7.16
0
VERTEX
10
8.34326
20
9.92477
30
7.16
0
VERTEX
10
8.35043
20
9.92477
30
7.16
0
VERTEX
10
8.3576
20
9.92656
30
7.16
0
VERTEX
10
8.36029
20
9.92925
30
7.16
0
VERTEX
10
8.36209
20
9.93642
30
7.16
0
VERTEX
10
8.36657
20
9.94359
30
7.16
0
VERTEX
10
8.37284
20
9.94987
30
7.16
0
VERTEX
10
8.37374
20
9.95345
30
7.16
0
VERTEX
10
8.37195
20
9.96063
30
7.16
0
VERTEX
10
8.36746
20
9.9678
30
7.16
0
VERTEX
10
8.36478
20
9.97139
30
7.16
0
VERTEX
10
8.35043
20
9.97408
30
7.16
0
VERTEX
10
8.34326
20
9.97587
30
7.16
0
VERTEX
10
8.33609
20
9.97497
30
7.16
0
VERTEX
10
8.3325
20
9.97408
30
7.16
0
VERTEX
10
8.33071
20
9.97049
30
7.16
0
VERTEX
10
8.32353
20
9.9678
30
7.16
0
VERTEX
10
8.31995
20
9.9669
30
7.16
0
VERTEX
10
8.31547
20
9.96063
30
7.16
0
VERTEX
10
8.31367
20
9.95883
30
7.16
0
VERTEX
10
8.31367
20
9.95704
30
7.16
0
SEQEND
0
POLYLINE
62
31
66
1
70
1
3
contour
0
VERTEX
10
7.14166
20
9.79038
30
7.16
0
VERTEX
10
7.14905
20
9.76672
30
7.16
0
VERTEX
10
7.15201
20
9.75489
30
7.16
0
VERTEX
10
7.1668
20
9.73271
30
7.16
0
VERTEX
10
7.17271
20
9.72679
30
7.16
0
VERTEX
10
7.18898
20
9.70461
30
7.16
0
VERTEX
10
7.19046
20
9.69869
30
7.16
0
VERTEX
10
7.19933
20
9.68834
30
7.16
0
VERTEX
10
7.20229
20
9.68242
30
7.16
0
VERTEX
10
7.20821
20
9.67651
30
7.16
0
VERTEX
10
7.20821
20
9.67355
30
7.16
0
VERTEX
10
7.21116
20
9.67059
30
7.16
0
VERTEX
10
7.21264
20
9.65876
30
7.16
0
VERTEX
10
7.21264
20
9.65285
30
7.16
0
VERTEX
10
7.21856
20
9.64101
30
7.16
0
VERTEX
10
7.22595
20
9.61735
30
7.16
0
VERTEX
10
7.22743
20
9.60552
30
7.16
0
VERTEX
10
7.23039
20
9.60256
30
7.16
0
VERTEX
10
7.23187
20
9.59073
30
7.16
0
VERTEX
10
7.23187
20
9.58482
30
7.16
0
VERTEX
10
7.23631
20
9.57298
30
7.16
0
VERTEX
10
7.23779
20
9.52566
30
7.16
0
VERTEX
10
7.23631
20
9.502
30
7.16
0
VERTEX
10
7.23779
20
9.47833
30
7.16
0
VERTEX
10
7.23926
20
9.4665
30
7.16
0
VERTEX
10
7.24222
20
9.46354
30
7.16
0
VERTEX
10
7.2437
20
9.45763
30
7.16
0
VERTEX
10
7.2437
20
9.45467
30
7.16
0
VERTEX
10
7.24666
20
9.45171
30
7.16
0
VERTEX
10
7.24666
20
9.44876
30
7.16
0
VERTEX
10
7.25257
20
9.44284
30
7.16
0
VERTEX
10
7.25553
20
9.43692
30
7.16
0
VERTEX
10
7.26736
20
9.42805
30
7.16
0
VERTEX
10
7.27476
20
9.4177
30
7.16
0
VERTEX
10
7.27919
20
9.41326
30
7.16
0
VERTEX
10
7.28215
20
9.40143
30
7.16
0
VERTEX
10
7.28215
20
9.39847
30
7.16
0
VERTEX
10
7.28511
20
9.39551
30
7.16
0
VERTEX
10
7.28511
20
9.3896
30
7.16
0
VERTEX
10
7.29546
20
9.36742
30
7.16
0
VERTEX
10
7.29546
20
9.36446
30
7.16
0
VERTEX
10
7.30434
20
9.35411
30
7.16
0
VERTEX
10
7.31617
20
9.33044
30
7.16
0
VERTEX
10
7.31913
20
9.32453
30
7.16
0
VERTEX
10
7.33096
20
9.31417
30
7.16
0
VERTEX
10
7.33687
20
9.31122
30
7.16
0
VERTEX
10
7.3487
20
9.31122
30
7.16
0
VERTEX
10
7.35462
20
9.30826
30
7.16
0
VERTEX
10
7.35758
20
9.30826
30
7.16
0
VERTEX
10
7.35906
20
9.3053
30
7.16
0
VERTEX
10
7.38272
20
9.3053
30
7.16
0
VERTEX
10
7.39455
20
9.30826
30
7.16
0
VERTEX
10
7.40047
20
9.30826
30
7.16
0
VERTEX
10
7.40194
20
9.31122
30
7.16
0
VERTEX
10
7.40786
20
9.3127
30
7.16
0
VERTEX
10
7.41673
20
9.32453
30
7.16
0
VERTEX
10
7.42856
20
9.33488
30
7.16
0
VERTEX
10
7.43448
20
9.34671
30
7.16
0
VERTEX
10
7.44335
20
9.35706
30
7.16
0
VERTEX
10
7.45666
20
9.37925
30
7.16
0
VERTEX
10
7.47293
20
9.40291
30
7.16
0
VERTEX
10
7.47441
20
9.40883
30
7.16
0
VERTEX
10
7.47441
20
9.41178
30
7.16
0
VERTEX
10
7.48033
20
9.41622
30
7.16
0
VERTEX
10
7.48624
20
9.42657
30
7.16
0
VERTEX
10
7.48772
20
9.4384
30
7.16
0
VERTEX
10
7.49068
20
9.44136
30
7.16
0
VERTEX
10
7.50103
20
9.48869
30
7.16
0
VERTEX
10
7.50547
20
9.51235
30
7.16
0
VERTEX
10
7.50547
20
9.52418
30
7.16
0
VERTEX
10
7.5099
20
9.53601
30
7.16
0
VERTEX
10
7.51434
20
9.58334
30
7.16
0
VERTEX
10
7.51434
20
9.58925
30
7.16
0
VERTEX
10
7.52174
20
9.61144
30
7.16
0
VERTEX
10
7.52617
20
9.62327
30
7.16
0
VERTEX
10
7.52765
20
9.62918
30
7.16
0
VERTEX
10
7.53061
20
9.63066
30
7.16
0
VERTEX
10
7.53505
20
9.67799
30
7.16
0
VERTEX
10
7.53653
20
9.68982
30
7.16
0
VERTEX
10
7.54096
20
9.70165
30
7.16
0
VERTEX
10
7.54244
20
9.70756
30
7.16
0
VERTEX
10
7.54688
20
9.712
30
7.16
0
VERTEX
10
7.54836
20
9.71792
30
7.16
0
VERTEX
10
7.55279
20
9.72383
30
7.16
0
VERTEX
10
7.55279
20
9.72679
30
7.16
0
VERTEX
10
7.55871
20
9.73271
30
7.16
0
VERTEX
10
7.56462
20
9.74454
30
7.16
0
VERTEX
10
7.57202
20
9.75193
30
7.16
0
VERTEX
10
7.57202
20
9.75489
30
7.16
0
VERTEX
10
7.59124
20
9.77855
30
7.16
0
VERTEX
10
7.59568
20
9.78447
30
7.16
0
VERTEX
10
7.59864
20
9.7963
30
7.16
0
VERTEX
10
7.60899
20
9.80369
30
7.16
0
VERTEX
10
7.61934
20
9.81553
30
7.16
0
VERTEX
10
7.62674
20
9.82588
30
7.16
0
VERTEX
10
7.62822
20
9.82884
30
7.16
0
VERTEX
10
7.63413
20
9.83031
30
7.16
0
VERTEX
10
7.64596
20
9.83771
30
7.16
0
VERTEX
10
7.65188
20
9.84362
30
7.16
0
VERTEX
10
7.6578
20
9.84362
30
7.16
0
VERTEX
10
7.68146
20
9.85841
30
7.16
0
VERTEX
10
7.69181
20
9.86285
30
7.16
0
VERTEX
10
7.69329
20
9.86581
30
7.16
0
VERTEX
10
7.69625
20
9.86581
30
7.16
0
VERTEX
10
7.70808
20
9.8732
30
7.16
0
VERTEX
10
7.71399
20
9.87468
30
7.16
0
VERTEX
10
7.71695
20
9.87764
30
7.16
0
VERTEX
10
7.72287
20
9.87912
30
7.16
0
VERTEX
10
7.72583
20
9.8806
30
7.16
0
VERTEX
10
7.72583
20
9.88651
30
7.16
0
VERTEX
10
7.73026
20
9.89243
30
7.16
0
VERTEX
10
7.73322
20
9.90426
30
7.16
0
VERTEX
10
7.72878
20
9.92792
30
7.16
0
VERTEX
10
7.72878
20
9.93975
30
7.16
0
VERTEX
10
7.7273
20
9.94567
30
7.16
0
VERTEX
10
7.72287
20
9.95158
30
7.16
0
VERTEX
10
7.71547
20
9.97525
30
7.16
0
VERTEX
10
7.71104
20
9.98708
30
7.16
0
VERTEX
10
7.70956
20
9.99891
30
7.16
0
VERTEX
10
7.70512
20
10.0107
30
7.16
0
VERTEX
10
7.70216
20
10.0122
30
7.16
0
VERTEX
10
7.70216
20
10.0152
30
7.16
0
VERTEX
10
7.69921
20
10.0181
30
7.16
0
VERTEX
10
7.69921
20
10.0211
30
7.16
0
VERTEX
10
7.69181
20
10.0329
30
7.16
0
VERTEX
10
7.69033
20
10.0388
30
7.16
0
VERTEX
10
7.66815
20
10.0581
30
7.16
0
VERTEX
10
7.6578
20
10.0655
30
7.16
0
VERTEX
10
7.65188
20
10.0669
30
7.16
0
VERTEX
10
7.64153
20
10.0758
30
7.16
0
VERTEX
10
7.61934
20
10.0847
30
7.16
0
VERTEX
10
7.61639
20
10.0876
30
7.16
0
VERTEX
10
7.61343
20
10.0876
30
7.16
0
VERTEX
10
7.59124
20
10.1039
30
7.16
0
VERTEX
10
7.57202
20
10.1231
30
7.16
0
VERTEX
10
7.56758
20
10.1291
30
7.16
0
VERTEX
10
7.56462
20
10.132
30
7.16
0
VERTEX
10
7.55871
20
10.1335
30
7.16
0
VERTEX
10
7.55131
20
10.1424
30
7.16
0
VERTEX
10
7.5454
20
10.1453
30
7.16
0
VERTEX
10
7.53357
20
10.1468
30
7.16
0
VERTEX
10
7.52765
20
10.1468
30
7.16
0
VERTEX
10
7.52174
20
10.1498
30
7.16
0
VERTEX
10
7.51878
20
10.1498
30
7.16
0
VERTEX
10
7.51582
20
10.1527
30
7.16
0
VERTEX
10
7.50399
20
10.1527
30
7.16
0
VERTEX
10
7.50251
20
10.1557
30
7.16
0
VERTEX
10
7.49068
20
10.1572
30
7.16
0
VERTEX
10
7.48476
20
10.1616
30
7.16
0
VERTEX
10
7.4611
20
10.1542
30
7.16
0
VERTEX
10
7.45519
20
10.1498
30
7.16
0
VERTEX
10
7.44927
20
10.1498
30
7.16
0
VERTEX
10
7.44631
20
10.1498
30
7.16
0
VERTEX
10
7.4404
20
10.1438
30
7.16
0
VERTEX
10
7.43004
20
10.1379
30
7.16
0
VERTEX
10
7.41821
20
10.1291
30
7.16
0
VERTEX
10
7.4123
20
10.1231
30
7.16
0
VERTEX
10
7.4049
20
10.1128
30
7.16
0
VERTEX
10
7.4049
20
10.1098
30
7.16
0
VERTEX
10
7.39455
20
10.0995
30
7.16
0
VERTEX
10
7.39455
20
10.0965
30
7.16
0
VERTEX
10
7.38568
20
10.0876
30
7.16
0
VERTEX
10
7.37828
20
10.064
30
7.16
0
VERTEX
10
7.37384
20
10.0522
30
7.16
0
VERTEX
10
7.37089
20
10.0492
30
7.16
0
VERTEX
10
7.37089
20
10.0462
30
7.16
0
VERTEX
10
7.36645
20
10.0403
30
7.16
0
VERTEX
10
7.36201
20
10.0285
30
7.16
0
VERTEX
10
7.35462
20
10.0167
30
7.16
0
VERTEX
10
7.35018
20
10.0107
30
7.16
0
VERTEX
10
7.3487
20
10.0048
30
7.16
0
VERTEX
10
7.3487
20
10.0019
30
7.16
0
VERTEX
10
7.32948
20
9.98412
30
7.16
0
VERTEX
10
7.32356
20
9.98264
30
7.16
0
VERTEX
10
7.30286
20
9.95898
30
7.16
0
VERTEX
10
7.29546
20
9.94863
30
7.16
0
VERTEX
10
7.28511
20
9.93827
30
7.16
0
VERTEX
10
7.28215
20
9.93827
30
7.16
0
VERTEX
10
7.25997
20
9.91757
30
7.16
0
VERTEX
10
7.23779
20
9.90278
30
7.16
0
VERTEX
10
7.23187
20
9.89687
30
7.16
0
VERTEX
10
7.22891
20
9.89391
30
7.16
0
VERTEX
10
7.223
20
9.89243
30
7.16
0
VERTEX
10
7.21708
20
9.88799
30
7.16
0
VERTEX
10
7.20673
20
9.88356
30
7.16
0
VERTEX
10
7.16532
20
9.84658
30
7.16
0
VERTEX
10
7.16384
20
9.84067
30
7.16
0
VERTEX
10
7.15645
20
9.82884
30
7.16
0
VERTEX
10
7.15201
20
9.817
30
7.16
0
VERTEX
10
7.15053
20
9.81109
30
7.16
0
VERTEX
10
7.14166
20
9.80222
30
7.16
0
VERTEX
10
7.14166
20
9.79186
30
7.16
0
SEQEND
0
POLYLINE
62
236
66
1
70
1
3
postsynaptic_density
0
VERTEX
10
7.1293
20
9.677
30
7.16
0
VERTEX
10
7.13538
20
9.66484
30
7.16
0
VERTEX
10
7.13538
20
9.65268
30
7.16
0
VERTEX
10
7.13538
20
9.6466
30
7.16
0
VERTEX
10
7.1445
20
9.63443
30
7.16
0
VERTEX
10
7.16274
20
9.58579
30
7.16
0
VERTEX
10
7.16882
20
9.56147
30
7.16
0
VERTEX
10
7.16882
20
9.55539
30
7.16
0
VERTEX
10
7.1749
20
9.54931
30
7.16
0
VERTEX
10
7.18706
20
9.54627
30
7.16
0
VERTEX
10
7.18706
20
9.54019
30
7.16
0
VERTEX
10
7.19314
20
9.53411
30
7.16
0
VERTEX
10
7.20226
20
9.50979
30
7.16
0
VERTEX
10
7.2053
20
9.49763
30
7.16
0
VERTEX
10
7.2053
20
9.49154
30
7.16
0
VERTEX
10
7.21139
20
9.48546
30
7.16
0
VERTEX
10
7.21139
20
9.43682
30
7.16
0
VERTEX
10
7.21139
20
9.42466
30
7.16
0
VERTEX
10
7.23267
20
9.40642
30
7.16
0
VERTEX
10
7.24483
20
9.40642
30
7.16
0
VERTEX
10
7.25091
20
9.40642
30
7.16
0
VERTEX
10
7.25699
20
9.40034
30
7.16
0
VERTEX
10
7.28131
20
9.40034
30
7.16
0
VERTEX
10
7.30563
20
9.4125
30
7.16
0
VERTEX
10
7.35428
20
9.42162
30
7.16
0
VERTEX
10
7.36644
20
9.43074
30
7.16
0
VERTEX
10
7.37252
20
9.43378
30
7.16
0
VERTEX
10
7.37252
20
9.44594
30
7.16
0
VERTEX
10
7.36644
20
9.45202
30
7.16
0
VERTEX
10
7.29955
20
9.6466
30
7.16
0
VERTEX
10
7.26307
20
9.74388
30
7.16
0
VERTEX
10
7.25395
20
9.7682
30
7.16
0
VERTEX
10
7.25091
20
9.78036
30
7.16
0
VERTEX
10
7.23875
20
9.78341
30
7.16
0
VERTEX
10
7.21443
20
9.77124
30
7.16
0
VERTEX
10
7.20226
20
9.76516
30
7.16
0
VERTEX
10
7.1901
20
9.76516
30
7.16
0
VERTEX
10
7.18402
20
9.753
30
7.16
0
VERTEX
10
7.17794
20
9.753
30
7.16
0
VERTEX
10
7.16882
20
9.74388
30
7.16
0
VERTEX
10
7.1445
20
9.7378
30
7.16
0
VERTEX
10
7.1293
20
9.68916
30
7.16
0
VERTEX
10
7.1293
20
9.68004
30
7.16
0
SEQEND
0
POLYLINE
62
227
66
1
70
1
3
endoplasmic_reticulum
0
VERTEX
10
7.40106
20
9.92443
30
7.16
0
VERTEX
10
7.40519
20
9.92031
30
7.16
0
VERTEX
10
7.40725
20
9.91206
30
7.16
0
VERTEX
10
7.42992
20
9.8832
30
7.16
0
VERTEX
10
7.44229
20
9.86877
30
7.16
0
VERTEX
10
7.45054
20
9.86259
30
7.16
0
VERTEX
10
7.48353
20
9.85434
30
7.16
0
VERTEX
10
7.50002
20
9.85434
30
7.16
0
VERTEX
10
7.53094
20
9.86671
30
7.16
0
VERTEX
10
7.54125
20
9.88114
30
7.16
0
VERTEX
10
7.54331
20
9.88939
30
7.16
0
VERTEX
10
7.54331
20
9.89351
30
7.16
0
VERTEX
10
7.54743
20
9.89557
30
7.16
0
VERTEX
10
7.54331
20
9.91206
30
7.16
0
VERTEX
10
7.53919
20
9.92031
30
7.16
0
VERTEX
10
7.53919
20
9.92856
30
7.16
0
VERTEX
10
7.53919
20
9.93268
30
7.16
0
VERTEX
10
7.53506
20
9.93474
30
7.16
0
VERTEX
10
7.53506
20
9.93886
30
7.16
0
VERTEX
10
7.53094
20
9.94299
30
7.16
0
VERTEX
10
7.52476
20
9.95948
30
7.16
0
VERTEX
10
7.52063
20
9.96773
30
7.16
0
VERTEX
10
7.5062
20
9.97803
30
7.16
0
VERTEX
10
7.49177
20
9.99453
30
7.16
0
VERTEX
10
7.47528
20
10.0007
30
7.16
0
VERTEX
10
7.46703
20
10.0028
30
7.16
0
VERTEX
10
7.45879
20
10.0007
30
7.16
0
VERTEX
10
7.44229
20
9.98422
30
7.16
0
VERTEX
10
7.43405
20
9.97597
30
7.16
0
VERTEX
10
7.4258
20
9.97597
30
7.16
0
VERTEX
10
7.41756
20
9.96979
30
7.16
0
VERTEX
10
7.40725
20
9.9533
30
7.16
0
VERTEX
10
7.40106
20
9.9368
30
7.16
0
VERTEX
10
7.40106
20
9.92856
30
7.16
0
VERTEX
10
7.40106
20
9.92649
30
7.16
0
SEQEND
0
ENDSEC
0
EOF
