0
SECTION
2
ENTITIES
0
POLYLINE
62
31
66
1
70
1
3
contour
0
VERTEX
10
8.91606
20
9.35288
30
5.96
0
VERTEX
10
8.91828
20
9.33515
30
5.96
0
VERTEX
10
8.92715
20
9.31962
30
5.96
0
VERTEX
10
8.94267
20
9.3041
30
5.96
0
VERTEX
10
8.9471
20
9.29523
30
5.96
0
VERTEX
10
8.95597
20
9.28858
30
5.96
0
VERTEX
10
8.96484
20
9.28636
30
5.96
0
VERTEX
10
8.97371
20
9.27971
30
5.96
0
VERTEX
10
8.98258
20
9.27749
30
5.96
0
VERTEX
10
8.98702
20
9.27749
30
5.96
0
VERTEX
10
9.00476
20
9.26641
30
5.96
0
VERTEX
10
9.00919
20
9.26197
30
5.96
0
VERTEX
10
9.01806
20
9.25975
30
5.96
0
VERTEX
10
9.0225
20
9.25975
30
5.96
0
VERTEX
10
9.03137
20
9.2531
30
5.96
0
VERTEX
10
9.0491
20
9.24867
30
5.96
0
VERTEX
10
9.05797
20
9.24867
30
5.96
0
VERTEX
10
9.06684
20
9.24202
30
5.96
0
VERTEX
10
9.08458
20
9.23758
30
5.96
0
VERTEX
10
9.09345
20
9.23536
30
5.96
0
VERTEX
10
9.10897
20
9.22206
30
5.96
0
VERTEX
10
9.11341
20
9.22206
30
5.96
0
VERTEX
10
9.11784
20
9.21762
30
5.96
0
VERTEX
10
9.15332
20
9.21762
30
5.96
0
VERTEX
10
9.17106
20
9.21541
30
5.96
0
VERTEX
10
9.1888
20
9.20876
30
5.96
0
VERTEX
10
9.25975
20
9.20432
30
5.96
0
VERTEX
10
9.29523
20
9.20654
30
5.96
0
VERTEX
10
9.31297
20
9.20876
30
5.96
0
VERTEX
10
9.31741
20
9.20876
30
5.96
0
VERTEX
10
9.35067
20
9.23758
30
5.96
0
VERTEX
10
9.35732
20
9.25532
30
5.96
0
VERTEX
10
9.36397
20
9.2908
30
5.96
0
VERTEX
10
9.36619
20
9.30854
30
5.96
0
VERTEX
10
9.36841
20
9.31741
30
5.96
0
VERTEX
10
9.37728
20
9.32184
30
5.96
0
VERTEX
10
9.39058
20
9.3551
30
5.96
0
VERTEX
10
9.39058
20
9.39058
30
5.96
0
VERTEX
10
9.38393
20
9.40832
30
5.96
0
VERTEX
10
9.37728
20
9.41719
30
5.96
0
VERTEX
10
9.37062
20
9.43493
30
5.96
0
VERTEX
10
9.37062
20
9.43936
30
5.96
0
VERTEX
10
9.35288
20
9.45045
30
5.96
0
VERTEX
10
9.34623
20
9.4571
30
5.96
0
VERTEX
10
9.32849
20
9.46375
30
5.96
0
VERTEX
10
9.31962
20
9.46597
30
5.96
0
VERTEX
10
9.31741
20
9.47484
30
5.96
0
VERTEX
10
9.30854
20
9.47706
30
5.96
0
VERTEX
10
9.2908
20
9.47484
30
5.96
0
VERTEX
10
9.25532
20
9.47706
30
5.96
0
VERTEX
10
9.21984
20
9.48371
30
5.96
0
VERTEX
10
9.2021
20
9.48593
30
5.96
0
VERTEX
10
9.19323
20
9.49036
30
5.96
0
VERTEX
10
9.15776
20
9.48814
30
5.96
0
VERTEX
10
9.12228
20
9.49258
30
5.96
0
VERTEX
10
9.10454
20
9.49701
30
5.96
0
VERTEX
10
9.06906
20
9.4948
30
5.96
0
VERTEX
10
9.05132
20
9.49258
30
5.96
0
VERTEX
10
9.03358
20
9.48593
30
5.96
0
VERTEX
10
9.02471
20
9.48371
30
5.96
0
VERTEX
10
9.01584
20
9.47484
30
5.96
0
VERTEX
10
9.01141
20
9.47262
30
5.96
0
VERTEX
10
9.00919
20
9.46597
30
5.96
0
VERTEX
10
8.97593
20
9.44158
30
5.96
0
VERTEX
10
8.94489
20
9.41054
30
5.96
0
VERTEX
10
8.93824
20
9.40167
30
5.96
0
VERTEX
10
8.92937
20
9.39723
30
5.96
0
VERTEX
10
8.92271
20
9.38836
30
5.96
0
VERTEX
10
8.91606
20
9.3551
30
5.96
0
SEQEND
0
POLYLINE
62
31
66
1
70
1
3
contour
0
VERTEX
10
7.49698
20
9.23668
30
5.96
0
VERTEX
10
7.50497
20
9.23135
30
5.96
0
VERTEX
10
7.50497
20
9.22603
30
5.96
0
VERTEX
10
7.51296
20
9.21803
30
5.96
0
VERTEX
10
7.51563
20
9.20738
30
5.96
0
VERTEX
10
7.55293
20
9.17274
30
5.96
0
VERTEX
10
7.59289
20
9.14344
30
5.96
0
VERTEX
10
7.63552
20
9.11946
30
5.96
0
VERTEX
10
7.64617
20
9.11413
30
5.96
0
VERTEX
10
7.6515
20
9.11413
30
5.96
0
VERTEX
10
7.67281
20
9.10081
30
5.96
0
VERTEX
10
7.69413
20
9.09815
30
5.96
0
VERTEX
10
7.69946
20
9.09282
30
5.96
0
VERTEX
10
7.74208
20
9.09015
30
5.96
0
VERTEX
10
7.75274
20
9.09015
30
5.96
0
VERTEX
10
7.7634
20
9.08216
30
5.96
0
VERTEX
10
7.80602
20
9.08482
30
5.96
0
VERTEX
10
7.81135
20
9.08482
30
5.96
0
VERTEX
10
7.82734
20
9.10614
30
5.96
0
VERTEX
10
7.86463
20
9.13544
30
5.96
0
VERTEX
10
7.89128
20
9.17807
30
5.96
0
VERTEX
10
7.89394
20
9.18873
30
5.96
0
VERTEX
10
7.90193
20
9.19672
30
5.96
0
VERTEX
10
7.9046
20
9.20738
30
5.96
0
VERTEX
10
7.90993
20
9.21271
30
5.96
0
VERTEX
10
7.91259
20
9.22336
30
5.96
0
VERTEX
10
7.92058
20
9.23402
30
5.96
0
VERTEX
10
7.93124
20
9.27665
30
5.96
0
VERTEX
10
7.93923
20
9.29796
30
5.96
0
VERTEX
10
7.94456
20
9.30595
30
5.96
0
VERTEX
10
7.93657
20
9.34858
30
5.96
0
VERTEX
10
7.92591
20
9.36989
30
5.96
0
VERTEX
10
7.92325
20
9.37522
30
5.96
0
VERTEX
10
7.92591
20
9.37788
30
5.96
0
VERTEX
10
7.93657
20
9.37256
30
5.96
0
VERTEX
10
7.93923
20
9.37522
30
5.96
0
VERTEX
10
7.92591
20
9.39387
30
5.96
0
VERTEX
10
7.92591
20
9.40453
30
5.96
0
VERTEX
10
7.91259
20
9.42584
30
5.96
0
VERTEX
10
7.90993
20
9.4365
30
5.96
0
VERTEX
10
7.89927
20
9.44182
30
5.96
0
VERTEX
10
7.89394
20
9.44182
30
5.96
0
VERTEX
10
7.88861
20
9.44715
30
5.96
0
VERTEX
10
7.80336
20
9.44449
30
5.96
0
VERTEX
10
7.76073
20
9.44449
30
5.96
0
VERTEX
10
7.7181
20
9.43117
30
5.96
0
VERTEX
10
7.67548
20
9.42317
30
5.96
0
VERTEX
10
7.66482
20
9.41518
30
5.96
0
VERTEX
10
7.62219
20
9.40453
30
5.96
0
VERTEX
10
7.60088
20
9.39653
30
5.96
0
VERTEX
10
7.59022
20
9.39387
30
5.96
0
VERTEX
10
7.5849
20
9.39387
30
5.96
0
VERTEX
10
7.57424
20
9.38588
30
5.96
0
VERTEX
10
7.56891
20
9.38588
30
5.96
0
VERTEX
10
7.56092
20
9.37522
30
5.96
0
VERTEX
10
7.55026
20
9.36989
30
5.96
0
VERTEX
10
7.54227
20
9.35923
30
5.96
0
VERTEX
10
7.52362
20
9.34591
30
5.96
0
VERTEX
10
7.52096
20
9.33526
30
5.96
0
VERTEX
10
7.51563
20
9.32993
30
5.96
0
VERTEX
10
7.51563
20
9.3246
30
5.96
0
VERTEX
10
7.50497
20
9.31661
30
5.96
0
VERTEX
10
7.49698
20
9.27398
30
5.96
0
VERTEX
10
7.49698
20
9.25267
30
5.96
0
VERTEX
10
7.49698
20
9.24201
30
5.96
0
VERTEX
10
7.49698
20
9.23935
30
5.96
0
SEQEND
0
POLYLINE
62
224
66
1
70
1
3
mitochondrion
0
VERTEX
10
9.14069
20
9.31171
30
5.96
0
VERTEX
10
9.15042
20
9.30337
30
5.96
0
VERTEX
10
9.1532
20
9.2992
30
5.96
0
VERTEX
10
9.16293
20
9.28946
30
5.96
0
VERTEX
10
9.17406
20
9.28529
30
5.96
0
VERTEX
10
9.1963
20
9.2839
30
5.96
0
VERTEX
10
9.2408
20
9.28807
30
5.96
0
VERTEX
10
9.26304
20
9.29363
30
5.96
0
VERTEX
10
9.27417
20
9.29502
30
5.96
0
VERTEX
10
9.27834
20
9.2978
30
5.96
0
VERTEX
10
9.28112
20
9.2978
30
5.96
0
VERTEX
10
9.28251
20
9.30059
30
5.96
0
VERTEX
10
9.28529
20
9.30059
30
5.96
0
VERTEX
10
9.29641
20
9.30893
30
5.96
0
VERTEX
10
9.30198
20
9.31449
30
5.96
0
VERTEX
10
9.30476
20
9.31727
30
5.96
0
VERTEX
10
9.31032
20
9.31866
30
5.96
0
VERTEX
10
9.31449
20
9.32422
30
5.96
0
VERTEX
10
9.31588
20
9.32978
30
5.96
0
VERTEX
10
9.32005
20
9.33396
30
5.96
0
VERTEX
10
9.32005
20
9.33952
30
5.96
0
VERTEX
10
9.31866
20
9.3423
30
5.96
0
VERTEX
10
9.31588
20
9.3423
30
5.96
0
VERTEX
10
9.3131
20
9.36455
30
5.96
0
VERTEX
10
9.31032
20
9.37567
30
5.96
0
VERTEX
10
9.31032
20
9.38123
30
5.96
0
VERTEX
10
9.30337
20
9.39235
30
5.96
0
VERTEX
10
9.29363
20
9.40209
30
5.96
0
VERTEX
10
9.29085
20
9.40626
30
5.96
0
VERTEX
10
9.27973
20
9.41321
30
5.96
0
VERTEX
10
9.27695
20
9.41599
30
5.96
0
VERTEX
10
9.2547
20
9.42294
30
5.96
0
VERTEX
10
9.24358
20
9.42572
30
5.96
0
VERTEX
10
9.22133
20
9.42572
30
5.96
0
VERTEX
10
9.19908
20
9.42294
30
5.96
0
VERTEX
10
9.18796
20
9.42016
30
5.96
0
VERTEX
10
9.1671
20
9.40487
30
5.96
0
VERTEX
10
9.15737
20
9.39792
30
5.96
0
VERTEX
10
9.15459
20
9.39653
30
5.96
0
VERTEX
10
9.15459
20
9.39374
30
5.96
0
VERTEX
10
9.14903
20
9.39235
30
5.96
0
VERTEX
10
9.14486
20
9.38679
30
5.96
0
VERTEX
10
9.14069
20
9.36455
30
5.96
0
VERTEX
10
9.14069
20
9.3423
30
5.96
0
VERTEX
10
9.14069
20
9.33118
30
5.96
0
VERTEX
10
9.14347
20
9.32561
30
5.96
0
VERTEX
10
9.14069
20
9.31449
30
5.96
0
VERTEX
10
9.14069
20
9.3131
30
5.96
0
SEQEND
0
POLYLINE
62
227
66
1
70
1
3
endoplasmic_reticulum
0
VERTEX
10
9.06229
20
9.42091
30
5.96
0
VERTEX
10
9.06587
20
9.41373
30
5.96
0
VERTEX
10
9.06408
20
9.41104
30
5.96
0
VERTEX
10
9.06767
20
9.41015
30
5.96
0
VERTEX
10
9.08201
20
9.41373
30
5.96
0
VERTEX
10
9.08918
20
9.41642
30
5.96
0
VERTEX
10
9.09636
20
9.41732
30
5.96
0
VERTEX
10
9.10981
20
9.42449
30
5.96
0
VERTEX
10
9.12415
20
9.42898
30
5.96
0
VERTEX
10
9.13132
20
9.43435
30
5.96
0
VERTEX
10
9.13939
20
9.4478
30
5.96
0
VERTEX
10
9.13849
20
9.45498
30
5.96
0
VERTEX
10
9.1376
20
9.45856
30
5.96
0
VERTEX
10
9.13401
20
9.45946
30
5.96
0
VERTEX
10
9.11967
20
9.45408
30
5.96
0
VERTEX
10
9.11249
20
9.45229
30
5.96
0
VERTEX
10
9.10891
20
9.45229
30
5.96
0
VERTEX
10
9.10263
20
9.4487
30
5.96
0
VERTEX
10
9.09905
20
9.44601
30
5.96
0
VERTEX
10
9.09187
20
9.44511
30
5.96
0
VERTEX
10
9.07753
20
9.43884
30
5.96
0
VERTEX
10
9.07036
20
9.43525
30
5.96
0
VERTEX
10
9.06677
20
9.43346
30
5.96
0
VERTEX
10
9.06408
20
9.42987
30
5.96
0
VERTEX
10
9.06229
20
9.4227
30
5.96
0
VERTEX
10
9.06229
20
9.4218
30
5.96
0
SEQEND
0
POLYLINE
62
236
66
1
70
1
3
postsynaptic_density
0
VERTEX
10
7.41788
20
9.2555
30
5.96
0
VERTEX
10
7.42125
20
9.25212
30
5.96
0
VERTEX
10
7.42125
20
9.24875
30
5.96
0
VERTEX
10
7.42463
20
9.24538
30
5.96
0
VERTEX
10
7.428
20
9.23189
30
5.96
0
VERTEX
10
7.4398
20
9.20492
30
5.96
0
VERTEX
10
7.44317
20
9.19818
30
5.96
0
VERTEX
10
7.44317
20
9.18469
30
5.96
0
VERTEX
10
7.44486
20
9.17794
30
5.96
0
VERTEX
10
7.44486
20
9.17457
30
5.96
0
VERTEX
10
7.44823
20
9.1712
30
5.96
0
VERTEX
10
7.44823
20
9.15771
30
5.96
0
VERTEX
10
7.4516
20
9.15097
30
5.96
0
VERTEX
10
7.4516
20
9.1476
30
5.96
0
VERTEX
10
7.45497
20
9.14423
30
5.96
0
VERTEX
10
7.45834
20
9.13074
30
5.96
0
VERTEX
10
7.46003
20
9.124
30
5.96
0
VERTEX
10
7.46003
20
9.12062
30
5.96
0
VERTEX
10
7.45329
20
9.11725
30
5.96
0
VERTEX
10
7.45666
20
9.11051
30
5.96
0
VERTEX
10
7.45666
20
9.10377
30
5.96
0
VERTEX
10
7.47857
20
9.07848
30
5.96
0
VERTEX
10
7.50555
20
9.05993
30
5.96
0
VERTEX
10
7.51735
20
9.05319
30
5.96
0
VERTEX
10
7.52072
20
9.04982
30
5.96
0
VERTEX
10
7.52409
20
9.04982
30
5.96
0
VERTEX
10
7.54938
20
9.0279
30
5.96
0
VERTEX
10
7.56118
20
9.01779
30
5.96
0
VERTEX
10
7.56455
20
9.01779
30
5.96
0
VERTEX
10
7.59153
20
9.00093
30
5.96
0
VERTEX
10
7.6185
20
8.9925
30
5.96
0
VERTEX
10
7.62187
20
8.98913
30
5.96
0
VERTEX
10
7.63536
20
8.98575
30
5.96
0
VERTEX
10
7.64211
20
8.98238
30
5.96
0
VERTEX
10
7.66908
20
8.98407
30
5.96
0
VERTEX
10
7.68257
20
8.9807
30
5.96
0
VERTEX
10
7.69605
20
8.9807
30
5.96
0
VERTEX
10
7.7028
20
8.98407
30
5.96
0
VERTEX
10
7.71628
20
8.98575
30
5.96
0
VERTEX
10
7.72303
20
8.98744
30
5.96
0
VERTEX
10
7.74494
20
9.00936
30
5.96
0
VERTEX
10
7.75
20
9.02284
30
5.96
0
VERTEX
10
7.75169
20
9.07679
30
5.96
0
VERTEX
10
7.75675
20
9.10377
30
5.96
0
VERTEX
10
7.75506
20
9.15771
30
5.96
0
VERTEX
10
7.75169
20
9.16446
30
5.96
0
VERTEX
10
7.75169
20
9.19143
30
5.96
0
VERTEX
10
7.74663
20
9.20492
30
5.96
0
VERTEX
10
7.74326
20
9.21166
30
5.96
0
VERTEX
10
7.74157
20
9.22515
30
5.96
0
VERTEX
10
7.7382
20
9.22684
30
5.96
0
VERTEX
10
7.7382
20
9.23021
30
5.96
0
VERTEX
10
7.71291
20
9.25212
30
5.96
0
VERTEX
10
7.68594
20
9.26055
30
5.96
0
VERTEX
10
7.67245
20
9.26898
30
5.96
0
VERTEX
10
7.66234
20
9.28078
30
5.96
0
VERTEX
10
7.64885
20
9.28584
30
5.96
0
VERTEX
10
7.64211
20
9.2909
30
5.96
0
VERTEX
10
7.63873
20
9.2909
30
5.96
0
VERTEX
10
7.63536
20
9.29427
30
5.96
0
VERTEX
10
7.62187
20
9.29933
30
5.96
0
VERTEX
10
7.56793
20
9.29764
30
5.96
0
VERTEX
10
7.51398
20
9.29933
30
5.96
0
VERTEX
10
7.50723
20
9.29933
30
5.96
0
VERTEX
10
7.48026
20
9.2909
30
5.96
0
VERTEX
10
7.47352
20
9.28753
30
5.96
0
VERTEX
10
7.44654
20
9.28584
30
5.96
0
VERTEX
10
7.43474
20
9.27573
30
5.96
0
VERTEX
10
7.42125
20
9.27741
30
5.96
0
VERTEX
10
7.41788
20
9.27573
30
5.96
0
VERTEX
10
7.41788
20
9.26224
30
5.96
0
VERTEX
10
7.41788
20
9.25718
30
5.96
0
SEQEND
0
ENDSEC
0
EOF
