0
SECTION
2
ENTITIES
0
POLYLINE
62
31
66
1
70
1
3
contour
0
VERTEX
10
8.70763
20
8.57902
30
4.68
0
VERTEX
10
8.71206
20
8.57459
30
4.68
0
VERTEX
10
8.71428
20
8.56572
30
4.68
0
VERTEX
10
8.72758
20
8.55019
30
4.68
0
VERTEX
10
8.74532
20
8.54133
30
4.68
0
VERTEX
10
8.7808
20
8.53467
30
4.68
0
VERTEX
10
8.79854
20
8.53024
30
4.68
0
VERTEX
10
8.80741
20
8.53024
30
4.68
0
VERTEX
10
8.81185
20
8.53024
30
4.68
0
VERTEX
10
8.81628
20
8.5258
30
4.68
0
VERTEX
10
8.83402
20
8.52137
30
4.68
0
VERTEX
10
8.90497
20
8.52137
30
4.68
0
VERTEX
10
8.94045
20
8.52137
30
4.68
0
VERTEX
10
8.95819
20
8.51915
30
4.68
0
VERTEX
10
8.96263
20
8.51915
30
4.68
0
VERTEX
10
8.96484
20
8.51472
30
4.68
0
VERTEX
10
9.00032
20
8.51472
30
4.68
0
VERTEX
10
9.0358
20
8.50806
30
4.68
0
VERTEX
10
9.05354
20
8.50585
30
4.68
0
VERTEX
10
9.07128
20
8.50806
30
4.68
0
VERTEX
10
9.08902
20
8.51693
30
4.68
0
VERTEX
10
9.09789
20
8.51693
30
4.68
0
VERTEX
10
9.13115
20
8.53689
30
4.68
0
VERTEX
10
9.14002
20
8.54354
30
4.68
0
VERTEX
10
9.14889
20
8.54576
30
4.68
0
VERTEX
10
9.16441
20
8.56128
30
4.68
0
VERTEX
10
9.17328
20
8.5635
30
4.68
0
VERTEX
10
9.1888
20
8.5768
30
4.68
0
VERTEX
10
9.19545
20
8.58567
30
4.68
0
VERTEX
10
9.22871
20
8.60563
30
4.68
0
VERTEX
10
9.24645
20
8.61893
30
4.68
0
VERTEX
10
9.27971
20
8.63667
30
4.68
0
VERTEX
10
9.28636
20
8.64332
30
4.68
0
VERTEX
10
9.32184
20
8.64111
30
4.68
0
VERTEX
10
9.35732
20
8.63002
30
4.68
0
VERTEX
10
9.3928
20
8.62337
30
4.68
0
VERTEX
10
9.41054
20
8.61893
30
4.68
0
VERTEX
10
9.41941
20
8.6145
30
4.68
0
VERTEX
10
9.49036
20
8.60785
30
4.68
0
VERTEX
10
9.5081
20
8.60341
30
4.68
0
VERTEX
10
9.57906
20
8.59676
30
4.68
0
VERTEX
10
9.61453
20
8.59898
30
4.68
0
VERTEX
10
9.6234
20
8.60119
30
4.68
0
VERTEX
10
9.63893
20
8.61672
30
4.68
0
VERTEX
10
9.6611
20
8.64998
30
4.68
0
VERTEX
10
9.66332
20
8.66772
30
4.68
0
VERTEX
10
9.66553
20
8.67659
30
4.68
0
VERTEX
10
9.66332
20
8.71206
30
4.68
0
VERTEX
10
9.66775
20
8.74754
30
4.68
0
VERTEX
10
9.67884
20
8.78302
30
4.68
0
VERTEX
10
9.68549
20
8.80076
30
4.68
0
VERTEX
10
9.68993
20
8.80963
30
4.68
0
VERTEX
10
9.69436
20
8.81406
30
4.68
0
VERTEX
10
9.69658
20
8.82293
30
4.68
0
VERTEX
10
9.70766
20
8.83402
30
4.68
0
VERTEX
10
9.7254
20
8.83402
30
4.68
0
VERTEX
10
9.73427
20
8.8318
30
4.68
0
VERTEX
10
9.73871
20
8.8318
30
4.68
0
VERTEX
10
9.74314
20
8.82737
30
4.68
0
VERTEX
10
9.76088
20
8.82293
30
4.68
0
VERTEX
10
9.83184
20
8.8185
30
4.68
0
VERTEX
10
9.97375
20
8.79854
30
4.68
0
VERTEX
10
9.99149
20
8.79411
30
4.68
0
VERTEX
10
10.0004
20
8.78967
30
4.68
0
VERTEX
10
10.0358
20
8.78302
30
4.68
0
VERTEX
10
10.0447
20
8.78302
30
4.68
0
VERTEX
10
10.0624
20
8.78967
30
4.68
0
VERTEX
10
10.0802
20
8.79189
30
4.68
0
VERTEX
10
10.0891
20
8.79411
30
4.68
0
VERTEX
10
10.0935
20
8.79854
30
4.68
0
VERTEX
10
10.1112
20
8.80519
30
4.68
0
VERTEX
10
10.1201
20
8.80963
30
4.68
0
VERTEX
10
10.1245
20
8.80963
30
4.68
0
VERTEX
10
10.1423
20
8.82293
30
4.68
0
VERTEX
10
10.1445
20
8.82737
30
4.68
0
VERTEX
10
10.1622
20
8.82958
30
4.68
0
VERTEX
10
10.1911
20
8.85398
30
4.68
0
VERTEX
10
10.2088
20
8.8695
30
4.68
0
VERTEX
10
10.2243
20
8.88058
30
4.68
0
VERTEX
10
10.2332
20
8.8828
30
4.68
0
VERTEX
10
10.2421
20
8.89167
30
4.68
0
VERTEX
10
10.2443
20
8.90941
30
4.68
0
VERTEX
10
10.2398
20
8.92715
30
4.68
0
VERTEX
10
10.2398
20
8.94489
30
4.68
0
VERTEX
10
10.2354
20
8.96263
30
4.68
0
VERTEX
10
10.2287
20
8.9715
30
4.68
0
VERTEX
10
10.2287
20
8.97593
30
4.68
0
VERTEX
10
10.2177
20
8.99145
30
4.68
0
VERTEX
10
10.1844
20
9.01806
30
4.68
0
VERTEX
10
10.1489
20
9.0225
30
4.68
0
VERTEX
10
10.078
20
9.02028
30
4.68
0
VERTEX
10
10.0425
20
9.02028
30
4.68
0
VERTEX
10
10.007
20
9.01363
30
4.68
0
VERTEX
10
9.98927
20
9.01141
30
4.68
0
VERTEX
10
9.97153
20
9.00476
30
4.68
0
VERTEX
10
9.96266
20
9.00476
30
4.68
0
VERTEX
10
9.95379
20
9.00032
30
4.68
0
VERTEX
10
9.94492
20
9.00032
30
4.68
0
VERTEX
10
9.92718
20
8.99145
30
4.68
0
VERTEX
10
9.91166
20
8.97815
30
4.68
0
VERTEX
10
9.90279
20
8.97815
30
4.68
0
VERTEX
10
9.86953
20
8.96706
30
4.68
0
VERTEX
10
9.85179
20
8.96484
30
4.68
0
VERTEX
10
9.84292
20
8.96484
30
4.68
0
VERTEX
10
9.83849
20
8.96041
30
4.68
0
VERTEX
10
9.80301
20
8.95376
30
4.68
0
VERTEX
10
9.76753
20
8.95376
30
4.68
0
VERTEX
10
9.74979
20
8.95597
30
4.68
0
VERTEX
10
9.74092
20
8.96041
30
4.68
0
VERTEX
10
9.72319
20
8.96263
30
4.68
0
VERTEX
10
9.70545
20
8.96928
30
4.68
0
VERTEX
10
9.6744
20
9.00254
30
4.68
0
VERTEX
10
9.65888
20
9.01806
30
4.68
0
VERTEX
10
9.63893
20
9.05132
30
4.68
0
VERTEX
10
9.63227
20
9.06906
30
4.68
0
VERTEX
10
9.63006
20
9.10454
30
4.68
0
VERTEX
10
9.6234
20
9.12228
30
4.68
0
VERTEX
10
9.62119
20
9.13115
30
4.68
0
VERTEX
10
9.6101
20
9.14889
30
4.68
0
VERTEX
10
9.60123
20
9.1511
30
4.68
0
VERTEX
10
9.5968
20
9.1511
30
4.68
0
VERTEX
10
9.58793
20
9.15776
30
4.68
0
VERTEX
10
9.55245
20
9.15997
30
4.68
0
VERTEX
10
9.54358
20
9.15997
30
4.68
0
VERTEX
10
9.52806
20
9.1511
30
4.68
0
VERTEX
10
9.51919
20
9.14667
30
4.68
0
VERTEX
10
9.51475
20
9.14667
30
4.68
0
VERTEX
10
9.51032
20
9.14223
30
4.68
0
VERTEX
10
9.49258
20
9.13558
30
4.68
0
VERTEX
10
9.48371
20
9.13336
30
4.68
0
VERTEX
10
9.45045
20
9.10676
30
4.68
0
VERTEX
10
9.43493
20
9.09345
30
4.68
0
VERTEX
10
9.42606
20
9.0868
30
4.68
0
VERTEX
10
9.3928
20
9.07571
30
4.68
0
VERTEX
10
9.35732
20
9.07571
30
4.68
0
VERTEX
10
9.32184
20
9.07128
30
4.68
0
VERTEX
10
9.28636
20
9.07128
30
4.68
0
VERTEX
10
9.25089
20
9.07571
30
4.68
0
VERTEX
10
9.17993
20
9.07571
30
4.68
0
VERTEX
10
9.10897
20
9.06684
30
4.68
0
VERTEX
10
9.1001
20
9.06684
30
4.68
0
VERTEX
10
9.06463
20
9.04689
30
4.68
0
VERTEX
10
9.05797
20
9.04023
30
4.68
0
VERTEX
10
9.02471
20
9.02915
30
4.68
0
VERTEX
10
9.00697
20
9.02471
30
4.68
0
VERTEX
10
8.9981
20
9.02471
30
4.68
0
VERTEX
10
8.98037
20
9.01806
30
4.68
0
VERTEX
10
8.96263
20
9.01584
30
4.68
0
VERTEX
10
8.95376
20
9.01584
30
4.68
0
VERTEX
10
8.94489
20
9.01141
30
4.68
0
VERTEX
10
8.93602
20
9.01141
30
4.68
0
VERTEX
10
8.90941
20
8.98258
30
4.68
0
VERTEX
10
8.89167
20
8.9715
30
4.68
0
VERTEX
10
8.88502
20
8.95376
30
4.68
0
VERTEX
10
8.88502
20
8.8828
30
4.68
0
VERTEX
10
8.8828
20
8.87393
30
4.68
0
VERTEX
10
8.8695
20
8.85841
30
4.68
0
VERTEX
10
8.86728
20
8.84954
30
4.68
0
VERTEX
10
8.85176
20
8.83845
30
4.68
0
VERTEX
10
8.84289
20
8.8318
30
4.68
0
VERTEX
10
8.84067
20
8.82293
30
4.68
0
VERTEX
10
8.82293
20
8.81185
30
4.68
0
VERTEX
10
8.81406
20
8.80741
30
4.68
0
VERTEX
10
8.80963
20
8.79854
30
4.68
0
VERTEX
10
8.80076
20
8.79189
30
4.68
0
VERTEX
10
8.79632
20
8.79189
30
4.68
0
VERTEX
10
8.76528
20
8.7675
30
4.68
0
VERTEX
10
8.74976
20
8.75419
30
4.68
0
VERTEX
10
8.72758
20
8.72093
30
4.68
0
VERTEX
10
8.72758
20
8.71206
30
4.68
0
VERTEX
10
8.72315
20
8.70763
30
4.68
0
VERTEX
10
8.71428
20
8.67215
30
4.68
0
VERTEX
10
8.71428
20
8.65441
30
4.68
0
VERTEX
10
8.70763
20
8.61893
30
4.68
0
VERTEX
10
8.70763
20
8.58346
30
4.68
0
VERTEX
10
8.70763
20
8.58124
30
4.68
0
SEQEND
0
POLYLINE
62
224
66
1
70
1
3
mitochondrion
0
VERTEX
10
9.26304
20
8.8487
30
4.68
0
VERTEX
10
9.27139
20
8.82645
30
4.68
0
VERTEX
10
9.27695
20
8.81533
30
4.68
0
VERTEX
10
9.2839
20
8.80698
30
4.68
0
VERTEX
10
9.29085
20
8.79586
30
4.68
0
VERTEX
10
9.29085
20
8.79308
30
4.68
0
VERTEX
10
9.29502
20
8.78891
30
4.68
0
VERTEX
10
9.29641
20
8.78335
30
4.68
0
VERTEX
10
9.30198
20
8.77778
30
4.68
0
VERTEX
10
9.30754
20
8.76666
30
4.68
0
VERTEX
10
9.30893
20
8.7611
30
4.68
0
VERTEX
10
9.31449
20
8.75554
30
4.68
0
VERTEX
10
9.31866
20
8.74441
30
4.68
0
VERTEX
10
9.32005
20
8.73885
30
4.68
0
VERTEX
10
9.3423
20
8.72356
30
4.68
0
VERTEX
10
9.34786
20
8.72078
30
4.68
0
VERTEX
10
9.35064
20
8.718
30
4.68
0
VERTEX
10
9.36176
20
8.71521
30
4.68
0
VERTEX
10
9.36733
20
8.71521
30
4.68
0
VERTEX
10
9.37011
20
8.71243
30
4.68
0
VERTEX
10
9.39235
20
8.70826
30
4.68
0
VERTEX
10
9.43685
20
8.70826
30
4.68
0
VERTEX
10
9.45909
20
8.70826
30
4.68
0
VERTEX
10
9.47022
20
8.70826
30
4.68
0
VERTEX
10
9.49246
20
8.71243
30
4.68
0
VERTEX
10
9.49803
20
8.71521
30
4.68
0
VERTEX
10
9.49942
20
8.718
30
4.68
0
VERTEX
10
9.50498
20
8.71939
30
4.68
0
VERTEX
10
9.52584
20
8.7319
30
4.68
0
VERTEX
10
9.5314
20
8.73329
30
4.68
0
VERTEX
10
9.54252
20
8.74024
30
4.68
0
VERTEX
10
9.54947
20
8.74998
30
4.68
0
VERTEX
10
9.55086
20
8.75276
30
4.68
0
VERTEX
10
9.55364
20
8.75276
30
4.68
0
VERTEX
10
9.55782
20
8.75832
30
4.68
0
VERTEX
10
9.56199
20
8.76944
30
4.68
0
VERTEX
10
9.56338
20
8.775
30
4.68
0
VERTEX
10
9.56755
20
8.78056
30
4.68
0
VERTEX
10
9.56755
20
8.80281
30
4.68
0
VERTEX
10
9.56755
20
8.81394
30
4.68
0
VERTEX
10
9.56755
20
8.8195
30
4.68
0
VERTEX
10
9.56755
20
8.82228
30
4.68
0
VERTEX
10
9.56477
20
8.82506
30
4.68
0
VERTEX
10
9.56338
20
8.83618
30
4.68
0
VERTEX
10
9.55921
20
8.84731
30
4.68
0
VERTEX
10
9.55642
20
8.8487
30
4.68
0
VERTEX
10
9.55364
20
8.85982
30
4.68
0
VERTEX
10
9.54669
20
8.86955
30
4.68
0
VERTEX
10
9.53696
20
8.8765
30
4.68
0
VERTEX
10
9.53418
20
8.88207
30
4.68
0
VERTEX
10
9.52305
20
8.8918
30
4.68
0
VERTEX
10
9.51749
20
8.89458
30
4.68
0
VERTEX
10
9.51193
20
8.90014
30
4.68
0
VERTEX
10
9.50915
20
8.90014
30
4.68
0
VERTEX
10
9.49803
20
8.90709
30
4.68
0
VERTEX
10
9.49525
20
8.90987
30
4.68
0
VERTEX
10
9.48968
20
8.91127
30
4.68
0
VERTEX
10
9.47856
20
8.91822
30
4.68
0
VERTEX
10
9.47439
20
8.921
30
4.68
0
VERTEX
10
9.46883
20
8.921
30
4.68
0
VERTEX
10
9.46327
20
8.92378
30
4.68
0
VERTEX
10
9.46049
20
8.92656
30
4.68
0
VERTEX
10
9.43824
20
8.93073
30
4.68
0
VERTEX
10
9.41599
20
8.93212
30
4.68
0
VERTEX
10
9.39374
20
8.93073
30
4.68
0
VERTEX
10
9.3715
20
8.92656
30
4.68
0
VERTEX
10
9.36037
20
8.92795
30
4.68
0
VERTEX
10
9.33813
20
8.92517
30
4.68
0
VERTEX
10
9.33257
20
8.92517
30
4.68
0
VERTEX
10
9.31032
20
8.91683
30
4.68
0
VERTEX
10
9.2992
20
8.91544
30
4.68
0
VERTEX
10
9.27973
20
8.89458
30
4.68
0
VERTEX
10
9.27417
20
8.88902
30
4.68
0
VERTEX
10
9.27278
20
8.87789
30
4.68
0
VERTEX
10
9.27
20
8.87233
30
4.68
0
VERTEX
10
9.27
20
8.86677
30
4.68
0
VERTEX
10
9.26443
20
8.85565
30
4.68
0
VERTEX
10
9.26304
20
8.85009
30
4.68
0
SEQEND
0
POLYLINE
62
236
66
1
70
1
3
postsynaptic_density
0
VERTEX
10
8.78995
20
9.3946
30
4.68
0
VERTEX
10
8.79554
20
9.36474
30
4.68
0
VERTEX
10
8.79741
20
9.34981
30
4.68
0
VERTEX
10
8.80488
20
9.34608
30
4.68
0
VERTEX
10
8.92431
20
9.32182
30
4.68
0
VERTEX
10
8.93924
20
9.31809
30
4.68
0
VERTEX
10
8.95417
20
9.31809
30
4.68
0
VERTEX
10
8.98403
20
9.32742
30
4.68
0
VERTEX
10
8.99896
20
9.33302
30
4.68
0
VERTEX
10
9.01203
20
9.34422
30
4.68
0
VERTEX
10
9.01016
20
9.37408
30
4.68
0
VERTEX
10
9.01016
20
9.38901
30
4.68
0
VERTEX
10
9.00456
20
9.40394
30
4.68
0
VERTEX
10
9.0027
20
9.4114
30
4.68
0
VERTEX
10
8.9971
20
9.41886
30
4.68
0
VERTEX
10
8.99523
20
9.4226
30
4.68
0
VERTEX
10
8.9915
20
9.4226
30
4.68
0
VERTEX
10
8.9803
20
9.43193
30
4.68
0
VERTEX
10
8.96537
20
9.44126
30
4.68
0
VERTEX
10
8.95791
20
9.44499
30
4.68
0
VERTEX
10
8.95417
20
9.44499
30
4.68
0
VERTEX
10
8.95044
20
9.44872
30
4.68
0
VERTEX
10
8.92058
20
9.45806
30
4.68
0
VERTEX
10
8.91312
20
9.45992
30
4.68
0
VERTEX
10
8.90938
20
9.45992
30
4.68
0
VERTEX
10
8.90192
20
9.46552
30
4.68
0
VERTEX
10
8.89445
20
9.46739
30
4.68
0
VERTEX
10
8.89072
20
9.46739
30
4.68
0
VERTEX
10
8.88699
20
9.47112
30
4.68
0
VERTEX
10
8.85713
20
9.47672
30
4.68
0
VERTEX
10
8.82727
20
9.47299
30
4.68
0
VERTEX
10
8.8198
20
9.47112
30
4.68
0
VERTEX
10
8.80674
20
9.45992
30
4.68
0
VERTEX
10
8.79741
20
9.44686
30
4.68
0
VERTEX
10
8.78995
20
9.43939
30
4.68
0
VERTEX
10
8.78995
20
9.40953
30
4.68
0
VERTEX
10
8.78995
20
9.39647
30
4.68
0
SEQEND
0
POLYLINE
62
227
66
1
70
1
3
endoplasmic_reticulum
0
VERTEX
10
9.0145
20
8.73418
30
4.68
0
VERTEX
10
9.01602
20
8.72808
30
4.68
0
VERTEX
10
9.02669
20
8.71742
30
4.68
0
VERTEX
10
9.03888
20
8.71285
30
4.68
0
VERTEX
10
9.04497
20
8.71132
30
4.68
0
VERTEX
10
9.05106
20
8.71285
30
4.68
0
VERTEX
10
9.05106
20
8.71589
30
4.68
0
VERTEX
10
9.05716
20
8.71742
30
4.68
0
VERTEX
10
9.06173
20
8.72199
30
4.68
0
VERTEX
10
9.06477
20
8.72351
30
4.68
0
VERTEX
10
9.0663
20
8.7357
30
4.68
0
VERTEX
10
9.06477
20
8.74789
30
4.68
0
VERTEX
10
9.06477
20
8.75094
30
4.68
0
VERTEX
10
9.05868
20
8.75551
30
4.68
0
VERTEX
10
9.0343
20
8.75551
30
4.68
0
VERTEX
10
9.02212
20
8.75094
30
4.68
0
VERTEX
10
9.01602
20
8.74636
30
4.68
0
VERTEX
10
9.0145
20
8.7357
30
4.68
0
SEQEND
0
POLYLINE
62
227
66
1
70
1
3
endoplasmic_reticulum
0
VERTEX
10
9.90727
20
8.89414
30
4.68
0
VERTEX
10
9.91184
20
8.88196
30
4.68
0
VERTEX
10
9.92402
20
8.87586
30
4.68
0
VERTEX
10
9.97278
20
8.87891
30
4.68
0
VERTEX
10
9.99715
20
8.87891
30
4.68
0
VERTEX
10
10.0093
20
8.87586
30
4.68
0
VERTEX
10
10.0337
20
8.87586
30
4.68
0
VERTEX
10
10.0459
20
8.87434
30
4.68
0
VERTEX
10
10.0489
20
8.87434
30
4.68
0
VERTEX
10
10.052
20
8.87129
30
4.68
0
VERTEX
10
10.0764
20
8.87281
30
4.68
0
VERTEX
10
10.0825
20
8.87586
30
4.68
0
VERTEX
10
10.0886
20
8.88348
30
4.68
0
VERTEX
10
10.0886
20
8.89567
30
4.68
0
VERTEX
10
10.0886
20
8.90176
30
4.68
0
VERTEX
10
10.0779
20
8.9109
30
4.68
0
VERTEX
10
10.0291
20
8.9109
30
4.68
0
VERTEX
10
9.98039
20
8.90633
30
4.68
0
VERTEX
10
9.95602
20
8.91547
30
4.68
0
VERTEX
10
9.93164
20
8.91547
30
4.68
0
VERTEX
10
9.91945
20
8.91547
30
4.68
0
VERTEX
10
9.90879
20
8.90481
30
4.68
0
VERTEX
10
9.90727
20
8.89871
30
4.68
0
VERTEX
10
9.90727
20
8.89567
30
4.68
0
SEQEND
0
POLYLINE
62
227
66
1
70
1
3
endoplasmic_reticulum
0
VERTEX
10
8.90938
20
8.75855
30
4.68
0
VERTEX
10
8.91243
20
8.75246
30
4.68
0
VERTEX
10
8.91243
20
8.74941
30
4.68
0
VERTEX
10
8.92309
20
8.74027
30
4.68
0
VERTEX
10
8.92614
20
8.73418
30
4.68
0
VERTEX
10
8.94899
20
8.71742
30
4.68
0
VERTEX
10
8.95204
20
8.71285
30
4.68
0
VERTEX
10
8.95813
20
8.7098
30
4.68
0
VERTEX
10
8.97032
20
8.71132
30
4.68
0
VERTEX
10
8.97336
20
8.71132
30
4.68
0
VERTEX
10
8.97489
20
8.71437
30
4.68
0
VERTEX
10
8.98708
20
8.71894
30
4.68
0
VERTEX
10
8.99317
20
8.72351
30
4.68
0
VERTEX
10
8.99469
20
8.72961
30
4.68
0
VERTEX
10
8.99012
20
8.7357
30
4.68
0
VERTEX
10
8.9886
20
8.73875
30
4.68
0
VERTEX
10
8.96727
20
8.74636
30
4.68
0
VERTEX
10
8.96575
20
8.77074
30
4.68
0
VERTEX
10
8.96727
20
8.77683
30
4.68
0
VERTEX
10
8.97794
20
8.78445
30
4.68
0
VERTEX
10
8.98251
20
8.78902
30
4.68
0
VERTEX
10
8.9886
20
8.78902
30
4.68
0
VERTEX
10
8.99165
20
8.78902
30
4.68
0
VERTEX
10
8.99622
20
8.79359
30
4.68
0
VERTEX
10
9.00079
20
8.81797
30
4.68
0
VERTEX
10
9.00231
20
8.84082
30
4.68
0
VERTEX
10
9.00688
20
8.85301
30
4.68
0
VERTEX
10
9.00688
20
8.8591
30
4.68
0
VERTEX
10
9.01145
20
8.87129
30
4.68
0
VERTEX
10
9.01602
20
8.87434
30
4.68
0
VERTEX
10
9.01755
20
8.88043
30
4.68
0
VERTEX
10
9.02212
20
8.885
30
4.68
0
VERTEX
10
9.0343
20
8.885
30
4.68
0
VERTEX
10
9.0404
20
8.88653
30
4.68
0
VERTEX
10
9.04802
20
8.89719
30
4.68
0
VERTEX
10
9.0602
20
8.90785
30
4.68
0
VERTEX
10
9.06325
20
8.91395
30
4.68
0
VERTEX
10
9.0663
20
8.91547
30
4.68
0
VERTEX
10
9.06782
20
8.92157
30
4.68
0
VERTEX
10
9.07696
20
8.93071
30
4.68
0
VERTEX
10
9.08001
20
8.93375
30
4.68
0
VERTEX
10
9.08306
20
8.93375
30
4.68
0
VERTEX
10
9.08915
20
8.93985
30
4.68
0
VERTEX
10
9.0922
20
8.93985
30
4.68
0
VERTEX
10
9.112
20
8.96422
30
4.68
0
VERTEX
10
9.11657
20
8.97032
30
4.68
0
VERTEX
10
9.12267
20
8.97336
30
4.68
0
VERTEX
10
9.12419
20
8.97641
30
4.68
0
VERTEX
10
9.13028
20
8.97794
30
4.68
0
VERTEX
10
9.13943
20
8.9886
30
4.68
0
VERTEX
10
9.13943
20
8.99469
30
4.68
0
VERTEX
10
9.13638
20
9.00079
30
4.68
0
VERTEX
10
9.13638
20
9.00383
30
4.68
0
VERTEX
10
9.13028
20
9.00841
30
4.68
0
VERTEX
10
9.10591
20
9.00688
30
4.68
0
VERTEX
10
9.08306
20
8.99165
30
4.68
0
VERTEX
10
9.08001
20
8.99165
30
4.68
0
VERTEX
10
9.07696
20
8.9886
30
4.68
0
VERTEX
10
9.07392
20
8.9886
30
4.68
0
VERTEX
10
9.07087
20
8.98555
30
4.68
0
VERTEX
10
9.04649
20
8.98098
30
4.68
0
VERTEX
10
9.0343
20
8.97336
30
4.68
0
VERTEX
10
9.02821
20
8.97184
30
4.68
0
VERTEX
10
9.02516
20
8.96879
30
4.68
0
VERTEX
10
9.01907
20
8.97032
30
4.68
0
VERTEX
10
9.00841
20
8.97946
30
4.68
0
VERTEX
10
9.00383
20
8.98403
30
4.68
0
VERTEX
10
8.99165
20
8.98708
30
4.68
0
VERTEX
10
8.98555
20
8.99012
30
4.68
0
VERTEX
10
8.97336
20
8.9886
30
4.68
0
VERTEX
10
8.96118
20
8.98251
30
4.68
0
VERTEX
10
8.95508
20
8.98251
30
4.68
0
VERTEX
10
8.94899
20
8.97946
30
4.68
0
VERTEX
10
8.9429
20
8.97946
30
4.68
0
VERTEX
10
8.93528
20
8.97336
30
4.68
0
VERTEX
10
8.92918
20
8.97184
30
4.68
0
VERTEX
10
8.92309
20
8.96575
30
4.68
0
VERTEX
10
8.92004
20
8.96422
30
4.68
0
VERTEX
10
8.92309
20
8.95204
30
4.68
0
VERTEX
10
8.92461
20
8.94594
30
4.68
0
VERTEX
10
8.93375
20
8.93528
30
4.68
0
VERTEX
10
8.94594
20
8.92918
30
4.68
0
VERTEX
10
8.94899
20
8.92614
30
4.68
0
VERTEX
10
8.95965
20
8.92309
30
4.68
0
VERTEX
10
8.9627
20
8.92157
30
4.68
0
VERTEX
10
8.9627
20
8.91547
30
4.68
0
VERTEX
10
8.96575
20
8.90938
30
4.68
0
VERTEX
10
8.96575
20
8.89719
30
4.68
0
VERTEX
10
8.96575
20
8.8911
30
4.68
0
VERTEX
10
8.96879
20
8.88805
30
4.68
0
VERTEX
10
8.97032
20
8.86367
30
4.68
0
VERTEX
10
8.97032
20
8.85149
30
4.68
0
VERTEX
10
8.96879
20
8.84539
30
4.68
0
VERTEX
10
8.96422
20
8.8393
30
4.68
0
VERTEX
10
8.96422
20
8.8332
30
4.68
0
VERTEX
10
8.94594
20
8.81187
30
4.68
0
VERTEX
10
8.94137
20
8.80883
30
4.68
0
VERTEX
10
8.93528
20
8.80273
30
4.68
0
VERTEX
10
8.93223
20
8.79969
30
4.68
0
VERTEX
10
8.93071
20
8.79359
30
4.68
0
VERTEX
10
8.91243
20
8.77379
30
4.68
0
VERTEX
10
8.90938
20
8.77074
30
4.68
0
VERTEX
10
8.90938
20
8.76008
30
4.68
0
SEQEND
0
POLYLINE
62
227
66
1
70
1
3
endoplasmic_reticulum
0
VERTEX
10
8.75246
20
8.63667
30
4.68
0
VERTEX
10
8.76008
20
8.62449
30
4.68
0
VERTEX
10
8.76617
20
8.61991
30
4.68
0
VERTEX
10
8.79055
20
8.62144
30
4.68
0
VERTEX
10
8.79664
20
8.62144
30
4.68
0
VERTEX
10
8.79969
20
8.62144
30
4.68
0
VERTEX
10
8.80121
20
8.62449
30
4.68
0
VERTEX
10
8.8134
20
8.62449
30
4.68
0
VERTEX
10
8.82559
20
8.62753
30
4.68
0
VERTEX
10
8.82863
20
8.63058
30
4.68
0
VERTEX
10
8.82863
20
8.65496
30
4.68
0
VERTEX
10
8.82711
20
8.66714
30
4.68
0
VERTEX
10
8.82254
20
8.67933
30
4.68
0
VERTEX
10
8.81949
20
8.68085
30
4.68
0
VERTEX
10
8.81797
20
8.68695
30
4.68
0
VERTEX
10
8.8073
20
8.69457
30
4.68
0
VERTEX
10
8.79512
20
8.69457
30
4.68
0
VERTEX
10
8.77074
20
8.69
30
4.68
0
VERTEX
10
8.76465
20
8.68543
30
4.68
0
VERTEX
10
8.7616
20
8.68543
30
4.68
0
VERTEX
10
8.75855
20
8.67324
30
4.68
0
VERTEX
10
8.75398
20
8.66714
30
4.68
0
VERTEX
10
8.75246
20
8.64277
30
4.68
0
VERTEX
10
8.75246
20
8.6382
30
4.68
0
SEQEND
0
POLYLINE
62
227
66
1
70
1
3
endoplasmic_reticulum
0
VERTEX
10
9.51573
20
9.0663
30
4.68
0
VERTEX
10
9.51877
20
9.06477
30
4.68
0
VERTEX
10
9.51877
20
9.05868
30
4.68
0
VERTEX
10
9.52639
20
9.04649
30
4.68
0
VERTEX
10
9.53858
20
9.04497
30
4.68
0
VERTEX
10
9.56296
20
9.04954
30
4.68
0
VERTEX
10
9.566
20
9.04954
30
4.68
0
VERTEX
10
9.5721
20
9.05411
30
4.68
0
VERTEX
10
9.57362
20
9.0663
30
4.68
0
VERTEX
10
9.57362
20
9.07239
30
4.68
0
VERTEX
10
9.56448
20
9.08306
30
4.68
0
VERTEX
10
9.55991
20
9.08915
30
4.68
0
VERTEX
10
9.55382
20
9.0922
30
4.68
0
VERTEX
10
9.52944
20
9.09067
30
4.68
0
VERTEX
10
9.51725
20
9.08915
30
4.68
0
VERTEX
10
9.51573
20
9.07696
30
4.68
0
VERTEX
10
9.51573
20
9.07087
30
4.68
0
VERTEX
10
9.51573
20
9.06782
30
4.68
0
SEQEND
0
POLYLINE
62
31
66
1
70
1
3
contour
0
VERTEX
10
8.54038
20
9.20754
30
4.68
0
VERTEX
10
8.54392
20
9.204
30
4.68
0
VERTEX
10
8.54569
20
9.19692
30
4.68
0
VERTEX
10
8.54923
20
9.19338
30
4.68
0
VERTEX
10
8.551
20
9.1863
30
4.68
0
VERTEX
10
8.58993
20
9.13144
30
4.68
0
VERTEX
10
8.59878
20
9.11729
30
4.68
0
VERTEX
10
8.60055
20
9.06066
30
4.68
0
VERTEX
10
8.60055
20
9.0465
30
4.68
0
VERTEX
10
8.59524
20
9.01819
30
4.68
0
VERTEX
10
8.59701
20
9.01111
30
4.68
0
VERTEX
10
8.60409
20
9.0058
30
4.68
0
VERTEX
10
8.60763
20
9.00226
30
4.68
0
VERTEX
10
8.6147
20
9.00049
30
4.68
0
VERTEX
10
8.61824
20
9.00049
30
4.68
0
VERTEX
10
8.62532
20
8.99518
30
4.68
0
VERTEX
10
8.6324
20
8.99341
30
4.68
0
VERTEX
10
8.64656
20
8.99518
30
4.68
0
VERTEX
10
8.65364
20
8.99695
30
4.68
0
VERTEX
10
8.65718
20
9.00049
30
4.68
0
VERTEX
10
8.68549
20
9.00757
30
4.68
0
VERTEX
10
8.69257
20
9.01288
30
4.68
0
VERTEX
10
8.70673
20
9.01819
30
4.68
0
VERTEX
10
8.71027
20
9.02173
30
4.68
0
VERTEX
10
8.72442
20
9.0235
30
4.68
0
VERTEX
10
8.72796
20
9.0235
30
4.68
0
VERTEX
10
8.73504
20
9.0288
30
4.68
0
VERTEX
10
8.74212
20
9.0288
30
4.68
0
VERTEX
10
8.7492
20
9.03234
30
4.68
0
VERTEX
10
8.76336
20
9.03411
30
4.68
0
VERTEX
10
8.77043
20
9.03942
30
4.68
0
VERTEX
10
8.79875
20
9.04827
30
4.68
0
VERTEX
10
8.80583
20
9.05358
30
4.68
0
VERTEX
10
8.83414
20
9.05889
30
4.68
0
VERTEX
10
8.84122
20
9.06243
30
4.68
0
VERTEX
10
8.8483
20
9.06243
30
4.68
0
VERTEX
10
8.85184
20
9.06243
30
4.68
0
VERTEX
10
8.85892
20
9.06774
30
4.68
0
VERTEX
10
8.88723
20
9.07128
30
4.68
0
VERTEX
10
8.90139
20
9.07482
30
4.68
0
VERTEX
10
8.91378
20
9.08543
30
4.68
0
VERTEX
10
8.91732
20
9.09251
30
4.68
0
VERTEX
10
8.92439
20
9.09605
30
4.68
0
VERTEX
10
8.92793
20
9.09959
30
4.68
0
VERTEX
10
8.94032
20
9.1049
30
4.68
0
VERTEX
10
8.95448
20
9.11552
30
4.68
0
VERTEX
10
8.95625
20
9.11906
30
4.68
0
VERTEX
10
8.95979
20
9.11906
30
4.68
0
VERTEX
10
8.96333
20
9.1226
30
4.68
0
VERTEX
10
8.96333
20
9.12614
30
4.68
0
VERTEX
10
8.97041
20
9.12967
30
4.68
0
VERTEX
10
8.97218
20
9.13675
30
4.68
0
VERTEX
10
8.97571
20
9.14029
30
4.68
0
VERTEX
10
8.97748
20
9.13675
30
4.68
0
VERTEX
10
8.99164
20
9.1456
30
4.68
0
VERTEX
10
8.99341
20
9.14914
30
4.68
0
VERTEX
10
9.00049
20
9.15091
30
4.68
0
VERTEX
10
9.01288
20
9.15976
30
4.68
0
VERTEX
10
9.01819
20
9.16507
30
4.68
0
VERTEX
10
9.02173
20
9.16507
30
4.68
0
VERTEX
10
9.02703
20
9.17215
30
4.68
0
VERTEX
10
9.05358
20
9.19161
30
4.68
0
VERTEX
10
9.06597
20
9.20577
30
4.68
0
VERTEX
10
9.06597
20
9.21285
30
4.68
0
VERTEX
10
9.07128
20
9.22701
30
4.68
0
VERTEX
10
9.08012
20
9.23939
30
4.68
0
VERTEX
10
9.08543
20
9.25178
30
4.68
0
VERTEX
10
9.08543
20
9.2801
30
4.68
0
VERTEX
10
9.08543
20
9.29425
30
4.68
0
VERTEX
10
9.08543
20
9.30133
30
4.68
0
VERTEX
10
9.08012
20
9.31549
30
4.68
0
VERTEX
10
9.08012
20
9.31903
30
4.68
0
VERTEX
10
9.05358
20
9.34203
30
4.68
0
VERTEX
10
9.02526
20
9.35619
30
4.68
0
VERTEX
10
9.01111
20
9.36504
30
4.68
0
VERTEX
10
9.00049
20
9.37566
30
4.68
0
VERTEX
10
8.99518
20
9.38097
30
4.68
0
VERTEX
10
8.9881
20
9.38097
30
4.68
0
VERTEX
10
8.98456
20
9.38097
30
4.68
0
VERTEX
10
8.97748
20
9.38628
30
4.68
0
VERTEX
10
8.96333
20
9.38805
30
4.68
0
VERTEX
10
8.95979
20
9.38805
30
4.68
0
VERTEX
10
8.95448
20
9.39512
30
4.68
0
VERTEX
10
8.92793
20
9.40751
30
4.68
0
VERTEX
10
8.91378
20
9.41282
30
4.68
0
VERTEX
10
8.9067
20
9.41282
30
4.68
0
VERTEX
10
8.89962
20
9.41636
30
4.68
0
VERTEX
10
8.88546
20
9.41636
30
4.68
0
VERTEX
10
8.8713
20
9.4199
30
4.68
0
VERTEX
10
8.81468
20
9.42521
30
4.68
0
VERTEX
10
8.78636
20
9.42521
30
4.68
0
VERTEX
10
8.7722
20
9.42698
30
4.68
0
VERTEX
10
8.76512
20
9.42875
30
4.68
0
VERTEX
10
8.76159
20
9.42875
30
4.68
0
VERTEX
10
8.75805
20
9.42521
30
4.68
0
VERTEX
10
8.72973
20
9.42521
30
4.68
0
VERTEX
10
8.71557
20
9.42698
30
4.68
0
VERTEX
10
8.7085
20
9.42698
30
4.68
0
VERTEX
10
8.70142
20
9.43052
30
4.68
0
VERTEX
10
8.6731
20
9.42875
30
4.68
0
VERTEX
10
8.65895
20
9.42698
30
4.68
0
VERTEX
10
8.65187
20
9.41282
30
4.68
0
VERTEX
10
8.64656
20
9.40574
30
4.68
0
VERTEX
10
8.64479
20
9.34911
30
4.68
0
VERTEX
10
8.64302
20
9.34203
30
4.68
0
VERTEX
10
8.63594
20
9.33672
30
4.68
0
VERTEX
10
8.62178
20
9.30841
30
4.68
0
VERTEX
10
8.59878
20
9.28364
30
4.68
0
VERTEX
10
8.59524
20
9.27833
30
4.68
0
VERTEX
10
8.58816
20
9.27479
30
4.68
0
VERTEX
10
8.58462
20
9.27302
30
4.68
0
VERTEX
10
8.58462
20
9.26948
30
4.68
0
VERTEX
10
8.57046
20
9.25886
30
4.68
0
VERTEX
10
8.57046
20
9.25532
30
4.68
0
VERTEX
10
8.55984
20
9.24293
30
4.68
0
VERTEX
10
8.5563
20
9.23585
30
4.68
0
VERTEX
10
8.5563
20
9.23232
30
4.68
0
VERTEX
10
8.55277
20
9.23232
30
4.68
0
VERTEX
10
8.54392
20
9.21993
30
4.68
0
VERTEX
10
8.54038
20
9.21639
30
4.68
0
VERTEX
10
8.54038
20
9.20931
30
4.68
0
SEQEND
0
ENDSEC
0
EOF
