0
SECTION
2
ENTITIES
0
POLYLINE
62
31
66
1
70
1
3
contour
0
VERTEX
10
8.78524
20
8.78302
30
4.96
0
VERTEX
10
8.78745
20
8.76528
30
4.96
0
VERTEX
10
8.78745
20
8.75641
30
4.96
0
VERTEX
10
8.79189
20
8.74754
30
4.96
0
VERTEX
10
8.80963
20
8.73645
30
4.96
0
VERTEX
10
8.88058
20
8.71428
30
4.96
0
VERTEX
10
8.91606
20
8.70541
30
4.96
0
VERTEX
10
8.98702
20
8.70541
30
4.96
0
VERTEX
10
9.0225
20
8.70763
30
4.96
0
VERTEX
10
9.03137
20
8.70763
30
4.96
0
VERTEX
10
9.04245
20
8.70098
30
4.96
0
VERTEX
10
9.11341
20
8.70985
30
4.96
0
VERTEX
10
9.14889
20
8.71872
30
4.96
0
VERTEX
10
9.16662
20
8.71872
30
4.96
0
VERTEX
10
9.18436
20
8.72537
30
4.96
0
VERTEX
10
9.25532
20
8.73645
30
4.96
0
VERTEX
10
9.27306
20
8.73867
30
4.96
0
VERTEX
10
9.28193
20
8.74089
30
4.96
0
VERTEX
10
9.28858
20
8.74754
30
4.96
0
VERTEX
10
9.29745
20
8.74754
30
4.96
0
VERTEX
10
9.30188
20
8.74754
30
4.96
0
VERTEX
10
9.31075
20
8.75641
30
4.96
0
VERTEX
10
9.31962
20
8.75863
30
4.96
0
VERTEX
10
9.33293
20
8.77415
30
4.96
0
VERTEX
10
9.33958
20
8.78302
30
4.96
0
VERTEX
10
9.35067
20
8.79189
30
4.96
0
VERTEX
10
9.35732
20
8.80741
30
4.96
0
VERTEX
10
9.35954
20
8.81185
30
4.96
0
VERTEX
10
9.36397
20
8.81185
30
4.96
0
VERTEX
10
9.36841
20
8.82958
30
4.96
0
VERTEX
10
9.36841
20
8.84732
30
4.96
0
VERTEX
10
9.37506
20
8.86506
30
4.96
0
VERTEX
10
9.37728
20
8.8828
30
4.96
0
VERTEX
10
9.38393
20
8.89167
30
4.96
0
VERTEX
10
9.38393
20
8.90054
30
4.96
0
VERTEX
10
9.39501
20
8.91606
30
4.96
0
VERTEX
10
9.42606
20
8.94489
30
4.96
0
VERTEX
10
9.43493
20
8.95376
30
4.96
0
VERTEX
10
9.45045
20
8.96263
30
4.96
0
VERTEX
10
9.4571
20
8.9715
30
4.96
0
VERTEX
10
9.45932
20
8.98924
30
4.96
0
VERTEX
10
9.4571
20
9.00697
30
4.96
0
VERTEX
10
9.4571
20
9.01584
30
4.96
0
VERTEX
10
9.44823
20
9.03358
30
4.96
0
VERTEX
10
9.43493
20
9.05132
30
4.96
0
VERTEX
10
9.43049
20
9.05797
30
4.96
0
VERTEX
10
9.42162
20
9.06463
30
4.96
0
VERTEX
10
9.38615
20
9.08015
30
4.96
0
VERTEX
10
9.36841
20
9.08015
30
4.96
0
VERTEX
10
9.29745
20
9.09567
30
4.96
0
VERTEX
10
9.26197
20
9.09789
30
4.96
0
VERTEX
10
9.24423
20
9.09567
30
4.96
0
VERTEX
10
9.24423
20
9.09123
30
4.96
0
VERTEX
10
9.20876
20
9.08902
30
4.96
0
VERTEX
10
9.19102
20
9.08458
30
4.96
0
VERTEX
10
9.18215
20
9.07793
30
4.96
0
VERTEX
10
9.14667
20
9.07793
30
4.96
0
VERTEX
10
9.12893
20
9.07571
30
4.96
0
VERTEX
10
9.09345
20
9.07793
30
4.96
0
VERTEX
10
9.07571
20
9.07793
30
4.96
0
VERTEX
10
9.07128
20
9.07793
30
4.96
0
VERTEX
10
9.06684
20
9.0735
30
4.96
0
VERTEX
10
9.0491
20
9.07128
30
4.96
0
VERTEX
10
9.04023
20
9.06906
30
4.96
0
VERTEX
10
9.03137
20
9.06241
30
4.96
0
VERTEX
10
9.01363
20
9.05797
30
4.96
0
VERTEX
10
8.99589
20
9.04689
30
4.96
0
VERTEX
10
8.99367
20
9.04245
30
4.96
0
VERTEX
10
8.98924
20
9.04245
30
4.96
0
VERTEX
10
8.95376
20
9.02028
30
4.96
0
VERTEX
10
8.92271
20
9.00032
30
4.96
0
VERTEX
10
8.91828
20
9.00032
30
4.96
0
VERTEX
10
8.91163
20
8.99145
30
4.96
0
VERTEX
10
8.87837
20
8.96706
30
4.96
0
VERTEX
10
8.8695
20
8.95819
30
4.96
0
VERTEX
10
8.86506
20
8.95376
30
4.96
0
VERTEX
10
8.84732
20
8.9471
30
4.96
0
VERTEX
10
8.83624
20
8.93158
30
4.96
0
VERTEX
10
8.82958
20
8.92271
30
4.96
0
VERTEX
10
8.82515
20
8.9205
30
4.96
0
VERTEX
10
8.82293
20
8.90276
30
4.96
0
VERTEX
10
8.81406
20
8.88502
30
4.96
0
VERTEX
10
8.80963
20
8.86728
30
4.96
0
VERTEX
10
8.78967
20
8.8318
30
4.96
0
VERTEX
10
8.78524
20
8.81406
30
4.96
0
VERTEX
10
8.78524
20
8.79632
30
4.96
0
VERTEX
10
8.78524
20
8.78745
30
4.96
0
VERTEX
10
8.78524
20
8.78524
30
4.96
0
SEQEND
0
POLYLINE
62
31
66
1
70
1
3
contour
0
VERTEX
10
8.67805
20
9.39096
30
4.96
0
VERTEX
10
8.68278
20
9.37201
30
4.96
0
VERTEX
10
8.68515
20
9.36253
30
4.96
0
VERTEX
10
8.68989
20
9.3578
30
4.96
0
VERTEX
10
8.69226
20
9.34832
30
4.96
0
VERTEX
10
8.70173
20
9.34595
30
4.96
0
VERTEX
10
8.73963
20
9.32227
30
4.96
0
VERTEX
10
8.7491
20
9.31753
30
4.96
0
VERTEX
10
8.75384
20
9.31753
30
4.96
0
VERTEX
10
8.79173
20
9.29622
30
4.96
0
VERTEX
10
8.79647
20
9.29622
30
4.96
0
VERTEX
10
8.80121
20
9.29148
30
4.96
0
VERTEX
10
8.80594
20
9.29148
30
4.96
0
VERTEX
10
8.81305
20
9.28201
30
4.96
0
VERTEX
10
8.82252
20
9.28201
30
4.96
0
VERTEX
10
8.83437
20
9.2749
30
4.96
0
VERTEX
10
8.83673
20
9.27016
30
4.96
0
VERTEX
10
8.85568
20
9.26306
30
4.96
0
VERTEX
10
8.89358
20
9.26306
30
4.96
0
VERTEX
10
8.90305
20
9.26543
30
4.96
0
VERTEX
10
8.90779
20
9.27016
30
4.96
0
VERTEX
10
8.92674
20
9.27253
30
4.96
0
VERTEX
10
8.94568
20
9.27964
30
4.96
0
VERTEX
10
8.95042
20
9.27964
30
4.96
0
VERTEX
10
8.95516
20
9.28437
30
4.96
0
VERTEX
10
8.96463
20
9.28437
30
4.96
0
VERTEX
10
8.96937
20
9.28911
30
4.96
0
VERTEX
10
9.04516
20
9.28911
30
4.96
0
VERTEX
10
9.06411
20
9.29148
30
4.96
0
VERTEX
10
9.07832
20
9.30806
30
4.96
0
VERTEX
10
9.08542
20
9.31753
30
4.96
0
VERTEX
10
9.09016
20
9.35543
30
4.96
0
VERTEX
10
9.09016
20
9.39332
30
4.96
0
VERTEX
10
9.08305
20
9.41227
30
4.96
0
VERTEX
10
9.07595
20
9.42175
30
4.96
0
VERTEX
10
9.07121
20
9.42648
30
4.96
0
VERTEX
10
9.07121
20
9.43122
30
4.96
0
VERTEX
10
9.05937
20
9.44306
30
4.96
0
VERTEX
10
9.05937
20
9.4478
30
4.96
0
VERTEX
10
9.03569
20
9.48333
30
4.96
0
VERTEX
10
9.02858
20
9.4928
30
4.96
0
VERTEX
10
9.012
20
9.50464
30
4.96
0
VERTEX
10
9.012
20
9.50938
30
4.96
0
VERTEX
10
8.95042
20
9.57333
30
4.96
0
VERTEX
10
8.94095
20
9.5828
30
4.96
0
VERTEX
10
8.92437
20
9.59227
30
4.96
0
VERTEX
10
8.91489
20
9.59701
30
4.96
0
VERTEX
10
8.90542
20
9.59701
30
4.96
0
VERTEX
10
8.90068
20
9.59938
30
4.96
0
VERTEX
10
8.86279
20
9.5757
30
4.96
0
VERTEX
10
8.85331
20
9.5757
30
4.96
0
VERTEX
10
8.81542
20
9.54964
30
4.96
0
VERTEX
10
8.79884
20
9.53069
30
4.96
0
VERTEX
10
8.72542
20
9.48096
30
4.96
0
VERTEX
10
8.72068
20
9.48096
30
4.96
0
VERTEX
10
8.7041
20
9.46438
30
4.96
0
VERTEX
10
8.69463
20
9.4478
30
4.96
0
VERTEX
10
8.68042
20
9.43596
30
4.96
0
VERTEX
10
8.67805
20
9.39806
30
4.96
0
VERTEX
10
8.67805
20
9.39332
30
4.96
0
SEQEND
0
POLYLINE
62
31
66
1
70
1
3
contour
0
VERTEX
10
9.84117
20
8.7631
30
4.96
0
VERTEX
10
9.85203
20
8.71965
30
4.96
0
VERTEX
10
9.8629
20
8.71422
30
4.96
0
VERTEX
10
9.86833
20
8.70878
30
4.96
0
VERTEX
10
9.87919
20
8.70607
30
4.96
0
VERTEX
10
9.8982
20
8.68978
30
4.96
0
VERTEX
10
9.90906
20
8.68434
30
4.96
0
VERTEX
10
9.92807
20
8.66534
30
4.96
0
VERTEX
10
9.94979
20
8.65447
30
4.96
0
VERTEX
10
9.96066
20
8.64904
30
4.96
0
VERTEX
10
9.9688
20
8.63818
30
4.96
0
VERTEX
10
9.97966
20
8.63275
30
4.96
0
VERTEX
10
9.9851
20
8.62732
30
4.96
0
VERTEX
10
9.99596
20
8.6246
30
4.96
0
VERTEX
10
10.0177
20
8.61102
30
4.96
0
VERTEX
10
10.0394
20
8.60288
30
4.96
0
VERTEX
10
10.0503
20
8.60016
30
4.96
0
VERTEX
10
10.0557
20
8.59473
30
4.96
0
VERTEX
10
10.0774
20
8.59473
30
4.96
0
VERTEX
10
10.0991
20
8.5893
30
4.96
0
VERTEX
10
10.1046
20
8.58387
30
4.96
0
VERTEX
10
10.1263
20
8.58387
30
4.96
0
VERTEX
10
10.148
20
8.57844
30
4.96
0
VERTEX
10
10.1698
20
8.57844
30
4.96
0
VERTEX
10
10.1915
20
8.57301
30
4.96
0
VERTEX
10
10.2023
20
8.56758
30
4.96
0
VERTEX
10
10.2078
20
8.56214
30
4.96
0
VERTEX
10
10.2186
20
8.55943
30
4.96
0
VERTEX
10
10.2322
20
8.54585
30
4.96
0
VERTEX
10
10.2757
20
8.53227
30
4.96
0
VERTEX
10
10.2865
20
8.53227
30
4.96
0
VERTEX
10
10.2974
20
8.52684
30
4.96
0
VERTEX
10
10.3843
20
8.5187
30
4.96
0
VERTEX
10
10.4712
20
8.52684
30
4.96
0
VERTEX
10
10.4929
20
8.52956
30
4.96
0
VERTEX
10
10.5038
20
8.52956
30
4.96
0
VERTEX
10
10.5092
20
8.52956
30
4.96
0
VERTEX
10
10.5309
20
8.54314
30
4.96
0
VERTEX
10
10.5608
20
8.58115
30
4.96
0
VERTEX
10
10.5744
20
8.60288
30
4.96
0
VERTEX
10
10.5825
20
8.6246
30
4.96
0
VERTEX
10
10.5825
20
8.63003
30
4.96
0
VERTEX
10
10.5879
20
8.63546
30
4.96
0
VERTEX
10
10.5879
20
8.64633
30
4.96
0
VERTEX
10
10.6015
20
8.66805
30
4.96
0
VERTEX
10
10.6178
20
8.7115
30
4.96
0
VERTEX
10
10.626
20
8.75495
30
4.96
0
VERTEX
10
10.6341
20
8.84185
30
4.96
0
VERTEX
10
10.6368
20
8.86357
30
4.96
0
VERTEX
10
10.6314
20
8.90702
30
4.96
0
VERTEX
10
10.626
20
8.92874
30
4.96
0
VERTEX
10
10.6097
20
8.94775
30
4.96
0
VERTEX
10
10.5879
20
8.94775
30
4.96
0
VERTEX
10
10.5825
20
8.95318
30
4.96
0
VERTEX
10
10.5391
20
8.9559
30
4.96
0
VERTEX
10
10.5173
20
8.95862
30
4.96
0
VERTEX
10
10.5065
20
8.96133
30
4.96
0
VERTEX
10
10.5011
20
8.96676
30
4.96
0
VERTEX
10
10.4576
20
8.98034
30
4.96
0
VERTEX
10
10.4467
20
8.98306
30
4.96
0
VERTEX
10
10.4359
20
8.9912
30
4.96
0
VERTEX
10
10.4304
20
8.9912
30
4.96
0
VERTEX
10
10.4087
20
9.00478
30
4.96
0
VERTEX
10
10.3653
20
9.01293
30
4.96
0
VERTEX
10
10.2784
20
9.01021
30
4.96
0
VERTEX
10
10.2675
20
9.01021
30
4.96
0
VERTEX
10
10.2567
20
9.00206
30
4.96
0
VERTEX
10
10.2132
20
9.00478
30
4.96
0
VERTEX
10
10.1915
20
9.00478
30
4.96
0
VERTEX
10
10.1698
20
9.01021
30
4.96
0
VERTEX
10
10.0829
20
9.0075
30
4.96
0
VERTEX
10
10.0394
20
9.01021
30
4.96
0
VERTEX
10
9.99596
20
9.0075
30
4.96
0
VERTEX
10
9.95251
20
9.01021
30
4.96
0
VERTEX
10
9.94165
20
9.01836
30
4.96
0
VERTEX
10
9.93078
20
9.02107
30
4.96
0
VERTEX
10
9.91992
20
9.01293
30
4.96
0
VERTEX
10
9.91449
20
8.96948
30
4.96
0
VERTEX
10
9.91178
20
8.94775
30
4.96
0
VERTEX
10
9.88734
20
8.9043
30
4.96
0
VERTEX
10
9.87647
20
8.9043
30
4.96
0
VERTEX
10
9.86561
20
8.88258
30
4.96
0
VERTEX
10
9.85475
20
8.87443
30
4.96
0
VERTEX
10
9.84932
20
8.86357
30
4.96
0
VERTEX
10
9.84932
20
8.85271
30
4.96
0
VERTEX
10
9.84389
20
8.84728
30
4.96
0
VERTEX
10
9.84117
20
8.80383
30
4.96
0
VERTEX
10
9.84117
20
8.7821
30
4.96
0
VERTEX
10
9.84117
20
8.77124
30
4.96
0
VERTEX
10
9.84117
20
8.76581
30
4.96
0
SEQEND
0
POLYLINE
62
224
66
1
70
1
3
mitochondrion
0
VERTEX
10
9.14486
20
8.90987
30
4.96
0
VERTEX
10
9.14903
20
8.9057
30
4.96
0
VERTEX
10
9.15042
20
8.90014
30
4.96
0
VERTEX
10
9.1532
20
8.89736
30
4.96
0
VERTEX
10
9.1532
20
8.89458
30
4.96
0
VERTEX
10
9.15876
20
8.89041
30
4.96
0
VERTEX
10
9.16154
20
8.88485
30
4.96
0
VERTEX
10
9.18101
20
8.86677
30
4.96
0
VERTEX
10
9.18657
20
8.85982
30
4.96
0
VERTEX
10
9.19769
20
8.85843
30
4.96
0
VERTEX
10
9.20882
20
8.85982
30
4.96
0
VERTEX
10
9.21438
20
8.85982
30
4.96
0
VERTEX
10
9.23663
20
8.86677
30
4.96
0
VERTEX
10
9.23941
20
8.86955
30
4.96
0
VERTEX
10
9.24497
20
8.86955
30
4.96
0
VERTEX
10
9.25053
20
8.87233
30
4.96
0
VERTEX
10
9.25609
20
8.87233
30
4.96
0
VERTEX
10
9.26165
20
8.8765
30
4.96
0
VERTEX
10
9.26722
20
8.8765
30
4.96
0
VERTEX
10
9.27695
20
8.88346
30
4.96
0
VERTEX
10
9.28251
20
8.88485
30
4.96
0
VERTEX
10
9.29363
20
8.8918
30
4.96
0
VERTEX
10
9.29641
20
8.89458
30
4.96
0
VERTEX
10
9.30615
20
8.89875
30
4.96
0
VERTEX
10
9.31449
20
8.90848
30
4.96
0
VERTEX
10
9.32005
20
8.91405
30
4.96
0
VERTEX
10
9.32422
20
8.92517
30
4.96
0
VERTEX
10
9.32561
20
8.94742
30
4.96
0
VERTEX
10
9.32561
20
8.95854
30
4.96
0
VERTEX
10
9.31866
20
8.98079
30
4.96
0
VERTEX
10
9.31171
20
8.99191
30
4.96
0
VERTEX
10
9.31032
20
8.99747
30
4.96
0
VERTEX
10
9.30059
20
9.0072
30
4.96
0
VERTEX
10
9.29363
20
9.01416
30
4.96
0
VERTEX
10
9.20465
20
9.0086
30
4.96
0
VERTEX
10
9.19908
20
9.0086
30
4.96
0
VERTEX
10
9.1963
20
9.0086
30
4.96
0
VERTEX
10
9.19352
20
9.00581
30
4.96
0
VERTEX
10
9.18796
20
9.00581
30
4.96
0
VERTEX
10
9.18518
20
9.00581
30
4.96
0
VERTEX
10
9.17545
20
8.99747
30
4.96
0
VERTEX
10
9.16432
20
8.9933
30
4.96
0
VERTEX
10
9.15598
20
8.98357
30
4.96
0
VERTEX
10
9.15459
20
8.97801
30
4.96
0
VERTEX
10
9.15042
20
8.97244
30
4.96
0
VERTEX
10
9.14625
20
8.9502
30
4.96
0
VERTEX
10
9.14486
20
8.92795
30
4.96
0
VERTEX
10
9.14486
20
8.91683
30
4.96
0
VERTEX
10
9.14486
20
8.91127
30
4.96
0
SEQEND
0
POLYLINE
62
236
66
1
70
1
3
postsynaptic_density
0
VERTEX
10
9.96194
20
9.04189
30
4.96
0
VERTEX
10
9.96567
20
9.01203
30
4.96
0
VERTEX
10
9.9694
20
8.9971
30
4.96
0
VERTEX
10
9.9694
20
8.99336
30
4.96
0
VERTEX
10
9.97314
20
8.98963
30
4.96
0
VERTEX
10
9.9806
20
8.98777
30
4.96
0
VERTEX
10
9.98993
20
8.97284
30
4.96
0
VERTEX
10
10.0161
20
8.95417
30
4.96
0
VERTEX
10
10.0459
20
8.94857
30
4.96
0
VERTEX
10
10.0534
20
8.95044
30
4.96
0
VERTEX
10
10.1131
20
8.94857
30
4.96
0
VERTEX
10
10.143
20
8.94671
30
4.96
0
VERTEX
10
10.1728
20
8.94857
30
4.96
0
VERTEX
10
10.1878
20
8.95044
30
4.96
0
VERTEX
10
10.1952
20
8.95231
30
4.96
0
VERTEX
10
10.1989
20
8.95604
30
4.96
0
VERTEX
10
10.2139
20
8.95791
30
4.96
0
VERTEX
10
10.2213
20
8.95977
30
4.96
0
VERTEX
10
10.2251
20
8.95977
30
4.96
0
VERTEX
10
10.2325
20
8.97284
30
4.96
0
VERTEX
10
10.2475
20
8.98217
30
4.96
0
VERTEX
10
10.2531
20
8.9971
30
4.96
0
VERTEX
10
10.2587
20
9.00456
30
4.96
0
VERTEX
10
10.2605
20
9.01203
30
4.96
0
VERTEX
10
10.2605
20
9.01576
30
4.96
0
VERTEX
10
10.2643
20
9.01949
30
4.96
0
VERTEX
10
10.2661
20
9.04935
30
4.96
0
VERTEX
10
10.2661
20
9.05682
30
4.96
0
VERTEX
10
10.2624
20
9.06055
30
4.96
0
VERTEX
10
10.2624
20
9.06801
30
4.96
0
VERTEX
10
10.2587
20
9.07361
30
4.96
0
VERTEX
10
10.2456
20
9.08481
30
4.96
0
VERTEX
10
10.2307
20
9.09227
30
4.96
0
VERTEX
10
9.9918
20
9.08481
30
4.96
0
VERTEX
10
9.98807
20
9.08481
30
4.96
0
VERTEX
10
9.97314
20
9.07548
30
4.96
0
VERTEX
10
9.96194
20
9.06615
30
4.96
0
VERTEX
10
9.96194
20
9.05122
30
4.96
0
VERTEX
10
9.96194
20
9.04375
30
4.96
0
SEQEND
0
POLYLINE
62
227
66
1
70
1
3
endoplasmic_reticulum
0
VERTEX
10
10.2744
20
8.63972
30
4.96
0
VERTEX
10
10.2775
20
8.63363
30
4.96
0
VERTEX
10
10.2836
20
8.62906
30
4.96
0
VERTEX
10
10.2958
20
8.62906
30
4.96
0
VERTEX
10
10.2973
20
8.6321
30
4.96
0
VERTEX
10
10.3003
20
8.6321
30
4.96
0
VERTEX
10
10.311
20
8.64277
30
4.96
0
VERTEX
10
10.3217
20
8.65038
30
4.96
0
VERTEX
10
10.3338
20
8.65496
30
4.96
0
VERTEX
10
10.3399
20
8.658
30
4.96
0
VERTEX
10
10.343
20
8.67019
30
4.96
0
VERTEX
10
10.3415
20
8.68238
30
4.96
0
VERTEX
10
10.3338
20
8.69304
30
4.96
0
VERTEX
10
10.3232
20
8.70371
30
4.96
0
VERTEX
10
10.3171
20
8.70828
30
4.96
0
VERTEX
10
10.3049
20
8.70828
30
4.96
0
VERTEX
10
10.2988
20
8.70828
30
4.96
0
VERTEX
10
10.2958
20
8.70523
30
4.96
0
VERTEX
10
10.2897
20
8.70371
30
4.96
0
VERTEX
10
10.2775
20
8.69457
30
4.96
0
VERTEX
10
10.2744
20
8.69152
30
4.96
0
VERTEX
10
10.2744
20
8.64277
30
4.96
0
VERTEX
10
10.2744
20
8.64124
30
4.96
0
SEQEND
0
POLYLINE
62
227
66
1
70
1
3
endoplasmic_reticulum
0
VERTEX
10
9.19439
20
8.78269
30
4.96
0
VERTEX
10
9.19776
20
8.7782
30
4.96
0
VERTEX
10
9.20673
20
8.7782
30
4.96
0
VERTEX
10
9.20898
20
8.7782
30
4.96
0
VERTEX
10
9.21122
20
8.78156
30
4.96
0
VERTEX
10
9.21346
20
8.78156
30
4.96
0
VERTEX
10
9.21907
20
8.79054
30
4.96
0
VERTEX
10
9.2258
20
8.79727
30
4.96
0
VERTEX
10
9.22805
20
8.79951
30
4.96
0
VERTEX
10
9.26395
20
8.79951
30
4.96
0
VERTEX
10
9.26843
20
8.79951
30
4.96
0
VERTEX
10
9.27292
20
8.80176
30
4.96
0
VERTEX
10
9.27741
20
8.80176
30
4.96
0
VERTEX
10
9.28189
20
8.80512
30
4.96
0
VERTEX
10
9.29087
20
8.80849
30
4.96
0
VERTEX
10
9.29536
20
8.80961
30
4.96
0
VERTEX
10
9.2976
20
8.80961
30
4.96
0
VERTEX
10
9.30657
20
8.81634
30
4.96
0
VERTEX
10
9.31555
20
8.82083
30
4.96
0
VERTEX
10
9.31667
20
8.82195
30
4.96
0
VERTEX
10
9.31555
20
8.82307
30
4.96
0
VERTEX
10
9.32452
20
8.83092
30
4.96
0
VERTEX
10
9.32789
20
8.83541
30
4.96
0
VERTEX
10
9.33013
20
8.84439
30
4.96
0
VERTEX
10
9.32677
20
8.86234
30
4.96
0
VERTEX
10
9.3234
20
8.8657
30
4.96
0
VERTEX
10
9.30545
20
8.86907
30
4.96
0
VERTEX
10
9.30097
20
8.86907
30
4.96
0
VERTEX
10
9.26507
20
8.85673
30
4.96
0
VERTEX
10
9.25609
20
8.8556
30
4.96
0
VERTEX
10
9.25161
20
8.8556
30
4.96
0
VERTEX
10
9.24375
20
8.84887
30
4.96
0
VERTEX
10
9.23478
20
8.84551
30
4.96
0
VERTEX
10
9.21795
20
8.83317
30
4.96
0
VERTEX
10
9.21795
20
8.82868
30
4.96
0
VERTEX
10
9.21571
20
8.82644
30
4.96
0
VERTEX
10
9.21346
20
8.82644
30
4.96
0
VERTEX
10
9.21122
20
8.82419
30
4.96
0
VERTEX
10
9.21122
20
8.82195
30
4.96
0
VERTEX
10
9.20225
20
8.81522
30
4.96
0
VERTEX
10
9.19664
20
8.80737
30
4.96
0
VERTEX
10
9.19439
20
8.80512
30
4.96
0
VERTEX
10
9.19439
20
8.78717
30
4.96
0
VERTEX
10
9.19439
20
8.78381
30
4.96
0
SEQEND
0
POLYLINE
62
227
66
1
70
1
3
endoplasmic_reticulum
0
VERTEX
10
9.01715
20
8.77259
30
4.96
0
VERTEX
10
9.02163
20
8.7681
30
4.96
0
VERTEX
10
9.03061
20
8.76698
30
4.96
0
VERTEX
10
9.04856
20
8.76923
30
4.96
0
VERTEX
10
9.05304
20
8.77371
30
4.96
0
VERTEX
10
9.05529
20
8.77371
30
4.96
0
VERTEX
10
9.06202
20
8.77932
30
4.96
0
VERTEX
10
9.07997
20
8.78044
30
4.96
0
VERTEX
10
9.08445
20
8.78044
30
4.96
0
VERTEX
10
9.08558
20
8.78269
30
4.96
0
VERTEX
10
9.09006
20
8.78269
30
4.96
0
VERTEX
10
9.10801
20
8.7883
30
4.96
0
VERTEX
10
9.12596
20
8.79054
30
4.96
0
VERTEX
10
9.14391
20
8.79615
30
4.96
0
VERTEX
10
9.14615
20
8.79615
30
4.96
0
VERTEX
10
9.1484
20
8.79839
30
4.96
0
VERTEX
10
9.15737
20
8.80064
30
4.96
0
VERTEX
10
9.17532
20
8.80064
30
4.96
0
VERTEX
10
9.1843
20
8.80176
30
4.96
0
VERTEX
10
9.18654
20
8.80176
30
4.96
0
VERTEX
10
9.19103
20
8.80512
30
4.96
0
VERTEX
10
9.19215
20
8.80961
30
4.96
0
VERTEX
10
9.19439
20
8.81185
30
4.96
0
VERTEX
10
9.19439
20
8.82083
30
4.96
0
VERTEX
10
9.18878
20
8.8298
30
4.96
0
VERTEX
10
9.17981
20
8.83429
30
4.96
0
VERTEX
10
9.17532
20
8.83766
30
4.96
0
VERTEX
10
9.15737
20
8.84102
30
4.96
0
VERTEX
10
9.14055
20
8.85112
30
4.96
0
VERTEX
10
9.1383
20
8.85112
30
4.96
0
VERTEX
10
9.13045
20
8.85785
30
4.96
0
VERTEX
10
9.12147
20
8.86234
30
4.96
0
VERTEX
10
9.11699
20
8.86234
30
4.96
0
VERTEX
10
9.11474
20
8.86234
30
4.96
0
VERTEX
10
9.10465
20
8.84439
30
4.96
0
VERTEX
10
9.09792
20
8.83541
30
4.96
0
VERTEX
10
9.09455
20
8.83205
30
4.96
0
VERTEX
10
9.0766
20
8.83092
30
4.96
0
VERTEX
10
9.06763
20
8.83205
30
4.96
0
VERTEX
10
9.05865
20
8.83878
30
4.96
0
VERTEX
10
9.04968
20
8.83766
30
4.96
0
VERTEX
10
9.04519
20
8.83541
30
4.96
0
VERTEX
10
9.0407
20
8.83541
30
4.96
0
VERTEX
10
9.03622
20
8.83092
30
4.96
0
VERTEX
10
9.03397
20
8.82868
30
4.96
0
VERTEX
10
9.03397
20
8.82644
30
4.96
0
VERTEX
10
9.03173
20
8.82419
30
4.96
0
VERTEX
10
9.02949
20
8.81522
30
4.96
0
VERTEX
10
9.02949
20
8.81298
30
4.96
0
VERTEX
10
9.025
20
8.80961
30
4.96
0
VERTEX
10
9.02163
20
8.80064
30
4.96
0
VERTEX
10
9.02051
20
8.79166
30
4.96
0
VERTEX
10
9.01715
20
8.78269
30
4.96
0
VERTEX
10
9.01715
20
8.77371
30
4.96
0
SEQEND
0
POLYLINE
62
227
66
1
70
1
3
endoplasmic_reticulum
0
VERTEX
10
9.03001
20
8.94036
30
4.96
0
VERTEX
10
9.0327
20
8.93319
30
4.96
0
VERTEX
10
9.03718
20
8.92691
30
4.96
0
VERTEX
10
9.04346
20
8.92243
30
4.96
0
VERTEX
10
9.05781
20
8.91974
30
4.96
0
VERTEX
10
9.07215
20
8.91974
30
4.96
0
VERTEX
10
9.07574
20
8.91974
30
4.96
0
VERTEX
10
9.09008
20
8.92422
30
4.96
0
VERTEX
10
9.09187
20
8.92601
30
4.96
0
VERTEX
10
9.09367
20
8.92601
30
4.96
0
VERTEX
10
9.09636
20
8.9296
30
4.96
0
VERTEX
10
9.09905
20
8.9305
30
4.96
0
VERTEX
10
9.10174
20
8.93767
30
4.96
0
VERTEX
10
9.10263
20
8.95201
30
4.96
0
VERTEX
10
9.10174
20
8.9556
30
4.96
0
VERTEX
10
9.09905
20
8.95829
30
4.96
0
VERTEX
10
9.09187
20
8.95829
30
4.96
0
VERTEX
10
9.08829
20
8.95919
30
4.96
0
VERTEX
10
9.08201
20
8.96456
30
4.96
0
VERTEX
10
9.07843
20
8.96636
30
4.96
0
VERTEX
10
9.07663
20
8.96994
30
4.96
0
VERTEX
10
9.07753
20
8.97712
30
4.96
0
VERTEX
10
9.07753
20
8.9807
30
4.96
0
VERTEX
10
9.07932
20
8.98429
30
4.96
0
VERTEX
10
9.09367
20
8.98519
30
4.96
0
VERTEX
10
9.09725
20
8.98519
30
4.96
0
VERTEX
10
9.09905
20
8.98519
30
4.96
0
VERTEX
10
9.10263
20
8.98787
30
4.96
0
VERTEX
10
9.10981
20
8.98967
30
4.96
0
VERTEX
10
9.11249
20
8.99236
30
4.96
0
VERTEX
10
9.11967
20
8.99325
30
4.96
0
VERTEX
10
9.12684
20
8.99774
30
4.96
0
VERTEX
10
9.13401
20
8.99863
30
4.96
0
VERTEX
10
9.14118
20
9.00312
30
4.96
0
VERTEX
10
9.15553
20
9.0085
30
4.96
0
VERTEX
10
9.15912
20
9.01118
30
4.96
0
VERTEX
10
9.16091
20
9.01208
30
4.96
0
VERTEX
10
9.16091
20
9.01387
30
4.96
0
VERTEX
10
9.16808
20
9.01656
30
4.96
0
VERTEX
10
9.17525
20
9.01746
30
4.96
0
VERTEX
10
9.17794
20
9.01925
30
4.96
0
VERTEX
10
9.17884
20
9.02643
30
4.96
0
VERTEX
10
9.17794
20
9.0336
30
4.96
0
VERTEX
10
9.17615
20
9.03718
30
4.96
0
VERTEX
10
9.16898
20
9.03987
30
4.96
0
VERTEX
10
9.16539
20
9.04077
30
4.96
0
VERTEX
10
9.1636
20
9.04077
30
4.96
0
VERTEX
10
9.15643
20
9.04615
30
4.96
0
VERTEX
10
9.14925
20
9.04884
30
4.96
0
VERTEX
10
9.13491
20
9.04974
30
4.96
0
VERTEX
10
9.12774
20
9.05332
30
4.96
0
VERTEX
10
9.12056
20
9.05332
30
4.96
0
VERTEX
10
9.11339
20
9.05063
30
4.96
0
VERTEX
10
9.10622
20
9.04436
30
4.96
0
VERTEX
10
9.10263
20
9.04256
30
4.96
0
VERTEX
10
9.09277
20
9.03001
30
4.96
0
VERTEX
10
9.08649
20
9.02374
30
4.96
0
VERTEX
10
9.08291
20
9.02194
30
4.96
0
VERTEX
10
9.07753
20
9.0085
30
4.96
0
VERTEX
10
9.07574
20
9.00132
30
4.96
0
VERTEX
10
9.07394
20
8.99863
30
4.96
0
VERTEX
10
9.06677
20
8.99325
30
4.96
0
VERTEX
10
9.06139
20
8.98608
30
4.96
0
VERTEX
10
9.0596
20
8.98608
30
4.96
0
VERTEX
10
9.05601
20
8.98339
30
4.96
0
VERTEX
10
9.05243
20
8.9825
30
4.96
0
VERTEX
10
9.05063
20
8.9825
30
4.96
0
VERTEX
10
9.04346
20
8.97801
30
4.96
0
VERTEX
10
9.03539
20
8.96367
30
4.96
0
VERTEX
10
9.03091
20
8.94932
30
4.96
0
VERTEX
10
9.03001
20
8.94215
30
4.96
0
VERTEX
10
9.03001
20
8.94125
30
4.96
0
SEQEND
0
POLYLINE
62
227
66
1
70
1
3
endoplasmic_reticulum
0
VERTEX
10
8.94305
20
8.81843
30
4.96
0
VERTEX
10
8.94394
20
8.80408
30
4.96
0
VERTEX
10
8.94574
20
8.79691
30
4.96
0
VERTEX
10
8.95022
20
8.79063
30
4.96
0
VERTEX
10
8.95112
20
8.78884
30
4.96
0
VERTEX
10
8.95829
20
8.78615
30
4.96
0
VERTEX
10
8.97263
20
8.78794
30
4.96
0
VERTEX
10
8.97622
20
8.79063
30
4.96
0
VERTEX
10
8.98339
20
8.79153
30
4.96
0
VERTEX
10
8.99056
20
8.79601
30
4.96
0
VERTEX
10
8.99236
20
8.7996
30
4.96
0
VERTEX
10
8.99325
20
8.81305
30
4.96
0
VERTEX
10
8.99594
20
8.82022
30
4.96
0
VERTEX
10
8.99594
20
8.82201
30
4.96
0
VERTEX
10
8.99953
20
8.82381
30
4.96
0
VERTEX
10
9.00222
20
8.82739
30
4.96
0
VERTEX
10
9.00312
20
8.83098
30
4.96
0
VERTEX
10
9.0067
20
8.83457
30
4.96
0
VERTEX
10
9.01477
20
8.84801
30
4.96
0
VERTEX
10
9.01746
20
8.8507
30
4.96
0
VERTEX
10
9.01746
20
8.8525
30
4.96
0
VERTEX
10
9.02015
20
8.85608
30
4.96
0
VERTEX
10
9.02105
20
8.85967
30
4.96
0
VERTEX
10
9.02553
20
8.86684
30
4.96
0
VERTEX
10
9.02553
20
8.87401
30
4.96
0
VERTEX
10
9.02463
20
8.8776
30
4.96
0
VERTEX
10
9.01836
20
8.88388
30
4.96
0
VERTEX
10
9.01118
20
8.88746
30
4.96
0
VERTEX
10
9.00401
20
8.88925
30
4.96
0
VERTEX
10
8.98967
20
8.88746
30
4.96
0
VERTEX
10
8.9825
20
8.88567
30
4.96
0
VERTEX
10
8.97981
20
8.88388
30
4.96
0
VERTEX
10
8.97353
20
8.8776
30
4.96
0
VERTEX
10
8.96994
20
8.8767
30
4.96
0
VERTEX
10
8.96367
20
8.87222
30
4.96
0
VERTEX
10
8.96008
20
8.86953
30
4.96
0
VERTEX
10
8.95919
20
8.86594
30
4.96
0
VERTEX
10
8.95291
20
8.85967
30
4.96
0
VERTEX
10
8.94932
20
8.85608
30
4.96
0
VERTEX
10
8.94753
20
8.84891
30
4.96
0
VERTEX
10
8.94574
20
8.84532
30
4.96
0
VERTEX
10
8.94574
20
8.83815
30
4.96
0
VERTEX
10
8.94305
20
8.83098
30
4.96
0
VERTEX
10
8.94394
20
8.82381
30
4.96
0
VERTEX
10
8.94305
20
8.82022
30
4.96
0
VERTEX
10
8.94305
20
8.81932
30
4.96
0
SEQEND
0
ENDSEC
0
EOF
