0
SECTION
2
ENTITIES
0
POLYLINE
62
31
66
1
70
1
3
contour
0
VERTEX
10
8.74311
20
8.63224
30
4.76
0
VERTEX
10
8.74976
20
8.62337
30
4.76
0
VERTEX
10
8.74976
20
8.60563
30
4.76
0
VERTEX
10
8.75641
20
8.58789
30
4.76
0
VERTEX
10
8.7675
20
8.57015
30
4.76
0
VERTEX
10
8.78524
20
8.55906
30
4.76
0
VERTEX
10
8.79411
20
8.55906
30
4.76
0
VERTEX
10
8.79854
20
8.55906
30
4.76
0
VERTEX
10
8.80298
20
8.55463
30
4.76
0
VERTEX
10
8.94489
20
8.54798
30
4.76
0
VERTEX
10
8.98037
20
8.53689
30
4.76
0
VERTEX
10
9.01584
20
8.53689
30
4.76
0
VERTEX
10
9.03137
20
8.54354
30
4.76
0
VERTEX
10
9.04023
20
8.54576
30
4.76
0
VERTEX
10
9.04467
20
8.54576
30
4.76
0
VERTEX
10
9.0491
20
8.55019
30
4.76
0
VERTEX
10
9.08458
20
8.5635
30
4.76
0
VERTEX
10
9.10232
20
8.57237
30
4.76
0
VERTEX
10
9.11119
20
8.57902
30
4.76
0
VERTEX
10
9.11563
20
8.57902
30
4.76
0
VERTEX
10
9.14889
20
8.60341
30
4.76
0
VERTEX
10
9.15776
20
8.61006
30
4.76
0
VERTEX
10
9.16219
20
8.61006
30
4.76
0
VERTEX
10
9.17993
20
8.62115
30
4.76
0
VERTEX
10
9.1888
20
8.62337
30
4.76
0
VERTEX
10
9.20432
20
8.63667
30
4.76
0
VERTEX
10
9.2398
20
8.63889
30
4.76
0
VERTEX
10
9.25754
20
8.63889
30
4.76
0
VERTEX
10
9.27528
20
8.64554
30
4.76
0
VERTEX
10
9.31075
20
8.65219
30
4.76
0
VERTEX
10
9.32849
20
8.65663
30
4.76
0
VERTEX
10
9.33293
20
8.66106
30
4.76
0
VERTEX
10
9.40388
20
8.68324
30
4.76
0
VERTEX
10
9.41275
20
8.68324
30
4.76
0
VERTEX
10
9.43049
20
8.68989
30
4.76
0
VERTEX
10
9.46597
20
8.68989
30
4.76
0
VERTEX
10
9.48371
20
8.69211
30
4.76
0
VERTEX
10
9.49258
20
8.69211
30
4.76
0
VERTEX
10
9.50145
20
8.69654
30
4.76
0
VERTEX
10
9.50588
20
8.70098
30
4.76
0
VERTEX
10
9.51475
20
8.70098
30
4.76
0
VERTEX
10
9.52362
20
8.70763
30
4.76
0
VERTEX
10
9.54136
20
8.71428
30
4.76
0
VERTEX
10
9.55467
20
8.72758
30
4.76
0
VERTEX
10
9.56353
20
8.72758
30
4.76
0
VERTEX
10
9.58127
20
8.73867
30
4.76
0
VERTEX
10
9.58571
20
8.74311
30
4.76
0
VERTEX
10
9.58571
20
8.74754
30
4.76
0
VERTEX
10
9.59458
20
8.75641
30
4.76
0
VERTEX
10
9.60123
20
8.77193
30
4.76
0
VERTEX
10
9.59901
20
8.78967
30
4.76
0
VERTEX
10
9.59901
20
8.79411
30
4.76
0
VERTEX
10
9.59458
20
8.79632
30
4.76
0
VERTEX
10
9.59458
20
8.80076
30
4.76
0
VERTEX
10
9.56353
20
8.83402
30
4.76
0
VERTEX
10
9.55023
20
8.84954
30
4.76
0
VERTEX
10
9.54801
20
8.85841
30
4.76
0
VERTEX
10
9.55023
20
8.87615
30
4.76
0
VERTEX
10
9.56132
20
8.89167
30
4.76
0
VERTEX
10
9.5968
20
8.89611
30
4.76
0
VERTEX
10
9.61453
20
8.89832
30
4.76
0
VERTEX
10
9.63227
20
8.90719
30
4.76
0
VERTEX
10
9.64114
20
8.91384
30
4.76
0
VERTEX
10
9.64558
20
8.91384
30
4.76
0
VERTEX
10
9.65888
20
8.92937
30
4.76
0
VERTEX
10
9.66332
20
8.93824
30
4.76
0
VERTEX
10
9.66332
20
8.9471
30
4.76
0
VERTEX
10
9.66332
20
8.95154
30
4.76
0
VERTEX
10
9.65888
20
8.95376
30
4.76
0
VERTEX
10
9.65666
20
8.9715
30
4.76
0
VERTEX
10
9.65223
20
8.98037
30
4.76
0
VERTEX
10
9.62119
20
9.00919
30
4.76
0
VERTEX
10
9.58571
20
9.03358
30
4.76
0
VERTEX
10
9.55023
20
9.05132
30
4.76
0
VERTEX
10
9.54136
20
9.05576
30
4.76
0
VERTEX
10
9.53693
20
9.05576
30
4.76
0
VERTEX
10
9.50367
20
9.07793
30
4.76
0
VERTEX
10
9.4948
20
9.07793
30
4.76
0
VERTEX
10
9.47706
20
9.0868
30
4.76
0
VERTEX
10
9.46819
20
9.08902
30
4.76
0
VERTEX
10
9.45932
20
9.09567
30
4.76
0
VERTEX
10
9.42384
20
9.10676
30
4.76
0
VERTEX
10
9.38836
20
9.10676
30
4.76
0
VERTEX
10
9.35288
20
9.10232
30
4.76
0
VERTEX
10
9.34401
20
9.09789
30
4.76
0
VERTEX
10
9.30854
20
9.09567
30
4.76
0
VERTEX
10
9.3041
20
9.09567
30
4.76
0
VERTEX
10
9.29523
20
9.08902
30
4.76
0
VERTEX
10
9.27749
20
9.08458
30
4.76
0
VERTEX
10
9.25975
20
9.08458
30
4.76
0
VERTEX
10
9.24202
20
9.08015
30
4.76
0
VERTEX
10
9.20654
20
9.08015
30
4.76
0
VERTEX
10
9.1888
20
9.08015
30
4.76
0
VERTEX
10
9.17993
20
9.08015
30
4.76
0
VERTEX
10
9.17106
20
9.07571
30
4.76
0
VERTEX
10
9.13558
20
9.07128
30
4.76
0
VERTEX
10
9.11784
20
9.06906
30
4.76
0
VERTEX
10
9.1001
20
9.06019
30
4.76
0
VERTEX
10
9.06463
20
9.05354
30
4.76
0
VERTEX
10
9.02915
20
9.05132
30
4.76
0
VERTEX
10
9.01141
20
9.04467
30
4.76
0
VERTEX
10
9.00254
20
9.04245
30
4.76
0
VERTEX
10
8.9981
20
9.04245
30
4.76
0
VERTEX
10
8.98924
20
9.0358
30
4.76
0
VERTEX
10
8.98037
20
9.03358
30
4.76
0
VERTEX
10
8.97593
20
9.02471
30
4.76
0
VERTEX
10
8.96706
20
9.01806
30
4.76
0
VERTEX
10
8.96041
20
8.9848
30
4.76
0
VERTEX
10
8.96041
20
8.97593
30
4.76
0
VERTEX
10
8.96706
20
8.95819
30
4.76
0
VERTEX
10
8.97371
20
8.92271
30
4.76
0
VERTEX
10
8.9715
20
8.90497
30
4.76
0
VERTEX
10
8.9715
20
8.89611
30
4.76
0
VERTEX
10
8.96484
20
8.87837
30
4.76
0
VERTEX
10
8.96263
20
8.87615
30
4.76
0
VERTEX
10
8.96484
20
8.87393
30
4.76
0
VERTEX
10
8.95597
20
8.86728
30
4.76
0
VERTEX
10
8.94932
20
8.85619
30
4.76
0
VERTEX
10
8.94489
20
8.85619
30
4.76
0
VERTEX
10
8.91606
20
8.82293
30
4.76
0
VERTEX
10
8.91163
20
8.81406
30
4.76
0
VERTEX
10
8.90276
20
8.80963
30
4.76
0
VERTEX
10
8.90054
20
8.80519
30
4.76
0
VERTEX
10
8.89611
20
8.80519
30
4.76
0
VERTEX
10
8.88945
20
8.79632
30
4.76
0
VERTEX
10
8.88724
20
8.78745
30
4.76
0
VERTEX
10
8.87837
20
8.78302
30
4.76
0
VERTEX
10
8.87171
20
8.77415
30
4.76
0
VERTEX
10
8.85619
20
8.76528
30
4.76
0
VERTEX
10
8.84732
20
8.76306
30
4.76
0
VERTEX
10
8.84067
20
8.75641
30
4.76
0
VERTEX
10
8.82293
20
8.75419
30
4.76
0
VERTEX
10
8.80741
20
8.74532
30
4.76
0
VERTEX
10
8.78967
20
8.7298
30
4.76
0
VERTEX
10
8.77415
20
8.72315
30
4.76
0
VERTEX
10
8.75641
20
8.71206
30
4.76
0
VERTEX
10
8.75198
20
8.71206
30
4.76
0
VERTEX
10
8.74754
20
8.70763
30
4.76
0
VERTEX
10
8.74754
20
8.70319
30
4.76
0
VERTEX
10
8.74311
20
8.69876
30
4.76
0
VERTEX
10
8.74311
20
8.66328
30
4.76
0
VERTEX
10
8.74311
20
8.64554
30
4.76
0
VERTEX
10
8.74311
20
8.63667
30
4.76
0
VERTEX
10
8.74311
20
8.63446
30
4.76
0
SEQEND
0
POLYLINE
62
31
66
1
70
1
3
contour
0
VERTEX
10
8.61647
20
9.23937
30
4.76
0
VERTEX
10
8.62357
20
9.20148
30
4.76
0
VERTEX
10
8.63778
20
9.16358
30
4.76
0
VERTEX
10
8.63778
20
9.15411
30
4.76
0
VERTEX
10
8.64963
20
9.13753
30
4.76
0
VERTEX
10
8.64963
20
9.13279
30
4.76
0
VERTEX
10
8.68515
20
9.09963
30
4.76
0
VERTEX
10
8.69463
20
9.09253
30
4.76
0
VERTEX
10
8.7041
20
9.09016
30
4.76
0
VERTEX
10
8.71357
20
9.08305
30
4.76
0
VERTEX
10
8.75147
20
9.08069
30
4.76
0
VERTEX
10
8.82726
20
9.0949
30
4.76
0
VERTEX
10
8.83673
20
9.0949
30
4.76
0
VERTEX
10
8.84621
20
9.09963
30
4.76
0
VERTEX
10
8.86516
20
9.09963
30
4.76
0
VERTEX
10
8.87463
20
9.09963
30
4.76
0
VERTEX
10
8.8841
20
9.10437
30
4.76
0
VERTEX
10
8.89358
20
9.10437
30
4.76
0
VERTEX
10
8.91253
20
9.11148
30
4.76
0
VERTEX
10
8.95042
20
9.11858
30
4.76
0
VERTEX
10
8.96937
20
9.12569
30
4.76
0
VERTEX
10
8.97174
20
9.13042
30
4.76
0
VERTEX
10
8.99068
20
9.13753
30
4.76
0
VERTEX
10
9.02384
20
9.16595
30
4.76
0
VERTEX
10
9.04279
20
9.17779
30
4.76
0
VERTEX
10
9.04279
20
9.18253
30
4.76
0
VERTEX
10
9.057
20
9.19437
30
4.76
0
VERTEX
10
9.06648
20
9.20148
30
4.76
0
VERTEX
10
9.07832
20
9.21806
30
4.76
0
VERTEX
10
9.08069
20
9.22753
30
4.76
0
VERTEX
10
9.09253
20
9.24411
30
4.76
0
VERTEX
10
9.0949
20
9.28201
30
4.76
0
VERTEX
10
9.0949
20
9.30095
30
4.76
0
VERTEX
10
9.09016
20
9.3199
30
4.76
0
VERTEX
10
9.08779
20
9.32937
30
4.76
0
VERTEX
10
9.07358
20
9.34595
30
4.76
0
VERTEX
10
9.06884
20
9.35543
30
4.76
0
VERTEX
10
9.06884
20
9.36017
30
4.76
0
VERTEX
10
9.05463
20
9.37911
30
4.76
0
VERTEX
10
9.0499
20
9.38385
30
4.76
0
VERTEX
10
9.04516
20
9.38385
30
4.76
0
VERTEX
10
9.03095
20
9.40043
30
4.76
0
VERTEX
10
9.012
20
9.41701
30
4.76
0
VERTEX
10
9.00253
20
9.41938
30
4.76
0
VERTEX
10
8.98595
20
9.43596
30
4.76
0
VERTEX
10
8.94805
20
9.4549
30
4.76
0
VERTEX
10
8.93858
20
9.45964
30
4.76
0
VERTEX
10
8.9291
20
9.45964
30
4.76
0
VERTEX
10
8.91016
20
9.47148
30
4.76
0
VERTEX
10
8.87226
20
9.48569
30
4.76
0
VERTEX
10
8.86516
20
9.47859
30
4.76
0
VERTEX
10
8.84858
20
9.47385
30
4.76
0
VERTEX
10
8.81068
20
9.47148
30
4.76
0
VERTEX
10
8.79173
20
9.46675
30
4.76
0
VERTEX
10
8.78226
20
9.46675
30
4.76
0
VERTEX
10
8.77279
20
9.46201
30
4.76
0
VERTEX
10
8.76331
20
9.46201
30
4.76
0
VERTEX
10
8.76094
20
9.45727
30
4.76
0
VERTEX
10
8.68515
20
9.43122
30
4.76
0
VERTEX
10
8.66621
20
9.41938
30
4.76
0
VERTEX
10
8.66147
20
9.41938
30
4.76
0
VERTEX
10
8.64963
20
9.4028
30
4.76
0
VERTEX
10
8.63542
20
9.3649
30
4.76
0
VERTEX
10
8.62831
20
9.34595
30
4.76
0
VERTEX
10
8.62831
20
9.33648
30
4.76
0
VERTEX
10
8.6212
20
9.31753
30
4.76
0
VERTEX
10
8.61647
20
9.24174
30
4.76
0
SEQEND
0
POLYLINE
62
31
66
1
70
1
3
contour
0
VERTEX
10
9.80858
20
8.89616
30
4.76
0
VERTEX
10
9.81673
20
8.89073
30
4.76
0
VERTEX
10
9.81673
20
8.869
30
4.76
0
VERTEX
10
9.81945
20
8.85814
30
4.76
0
VERTEX
10
9.83302
20
8.83913
30
4.76
0
VERTEX
10
9.83846
20
8.83642
30
4.76
0
VERTEX
10
9.84117
20
8.82555
30
4.76
0
VERTEX
10
9.85746
20
8.80383
30
4.76
0
VERTEX
10
9.87376
20
8.78754
30
4.76
0
VERTEX
10
9.89548
20
8.76853
30
4.76
0
VERTEX
10
9.91178
20
8.75223
30
4.76
0
VERTEX
10
9.9335
20
8.74409
30
4.76
0
VERTEX
10
9.94436
20
8.74137
30
4.76
0
VERTEX
10
9.95522
20
8.73322
30
4.76
0
VERTEX
10
9.96609
20
8.73051
30
4.76
0
VERTEX
10
9.97152
20
8.72508
30
4.76
0
VERTEX
10
10.015
20
8.71965
30
4.76
0
VERTEX
10
10.0367
20
8.71422
30
4.76
0
VERTEX
10
10.1236
20
8.71422
30
4.76
0
VERTEX
10
10.1453
20
8.7115
30
4.76
0
VERTEX
10
10.167
20
8.71693
30
4.76
0
VERTEX
10
10.1779
20
8.71693
30
4.76
0
VERTEX
10
10.1996
20
8.72508
30
4.76
0
VERTEX
10
10.2051
20
8.72508
30
4.76
0
VERTEX
10
10.2159
20
8.73322
30
4.76
0
VERTEX
10
10.2376
20
8.74137
30
4.76
0
VERTEX
10
10.2784
20
8.76581
30
4.76
0
VERTEX
10
10.3001
20
8.78482
30
4.76
0
VERTEX
10
10.3001
20
8.79025
30
4.76
0
VERTEX
10
10.311
20
8.79297
30
4.76
0
VERTEX
10
10.3517
20
8.82284
30
4.76
0
VERTEX
10
10.3734
20
8.83642
30
4.76
0
VERTEX
10
10.3816
20
8.84456
30
4.76
0
VERTEX
10
10.3924
20
8.84728
30
4.76
0
VERTEX
10
10.3979
20
8.85271
30
4.76
0
VERTEX
10
10.4033
20
8.85271
30
4.76
0
VERTEX
10
10.4114
20
8.86086
30
4.76
0
VERTEX
10
10.4223
20
8.86357
30
4.76
0
VERTEX
10
10.4277
20
8.86357
30
4.76
0
VERTEX
10
10.4304
20
8.869
30
4.76
0
VERTEX
10
10.4413
20
8.869
30
4.76
0
VERTEX
10
10.4522
20
8.87443
30
4.76
0
VERTEX
10
10.4576
20
8.87986
30
4.76
0
VERTEX
10
10.4685
20
8.87986
30
4.76
0
VERTEX
10
10.4902
20
8.89887
30
4.76
0
VERTEX
10
10.5065
20
8.9206
30
4.76
0
VERTEX
10
10.5146
20
8.94232
30
4.76
0
VERTEX
10
10.5146
20
8.96405
30
4.76
0
VERTEX
10
10.5119
20
8.97491
30
4.76
0
VERTEX
10
10.4956
20
8.99663
30
4.76
0
VERTEX
10
10.4929
20
9.0075
30
4.76
0
VERTEX
10
10.482
20
9.01836
30
4.76
0
VERTEX
10
10.4386
20
9.03194
30
4.76
0
VERTEX
10
10.3951
20
9.03737
30
4.76
0
VERTEX
10
10.3517
20
9.03737
30
4.76
0
VERTEX
10
10.3082
20
9.0428
30
4.76
0
VERTEX
10
10.2648
20
9.0428
30
4.76
0
VERTEX
10
10.2213
20
9.04823
30
4.76
0
VERTEX
10
10.1779
20
9.07538
30
4.76
0
VERTEX
10
10.167
20
9.08082
30
4.76
0
VERTEX
10
10.1562
20
9.09168
30
4.76
0
VERTEX
10
10.1507
20
9.09168
30
4.76
0
VERTEX
10
10.129
20
9.10797
30
4.76
0
VERTEX
10
10.1209
20
9.11612
30
4.76
0
VERTEX
10
10.1209
20
9.12155
30
4.76
0
VERTEX
10
10.11
20
9.1297
30
4.76
0
VERTEX
10
10.1046
20
9.1297
30
4.76
0
VERTEX
10
10.1046
20
9.13513
30
4.76
0
VERTEX
10
10.0991
20
9.13784
30
4.76
0
VERTEX
10
10.0774
20
9.1297
30
4.76
0
VERTEX
10
10.0666
20
9.11883
30
4.76
0
VERTEX
10
10.0557
20
9.09982
30
4.76
0
VERTEX
10
10.0448
20
9.09168
30
4.76
0
VERTEX
10
10.0448
20
9.08625
30
4.76
0
VERTEX
10
10.0231
20
9.06995
30
4.76
0
VERTEX
10
9.98238
20
9.04823
30
4.76
0
VERTEX
10
9.97695
20
9.04823
30
4.76
0
VERTEX
10
9.96066
20
9.03194
30
4.76
0
VERTEX
10
9.94979
20
9.02107
30
4.76
0
VERTEX
10
9.92807
20
9.01293
30
4.76
0
VERTEX
10
9.91721
20
9.00478
30
4.76
0
VERTEX
10
9.91178
20
9.00478
30
4.76
0
VERTEX
10
9.90634
20
8.99935
30
4.76
0
VERTEX
10
9.90091
20
8.99935
30
4.76
0
VERTEX
10
9.89548
20
8.98849
30
4.76
0
VERTEX
10
9.87647
20
8.97762
30
4.76
0
VERTEX
10
9.86561
20
8.97219
30
4.76
0
VERTEX
10
9.86018
20
8.96676
30
4.76
0
VERTEX
10
9.86018
20
8.96133
30
4.76
0
VERTEX
10
9.83846
20
8.94232
30
4.76
0
VERTEX
10
9.83302
20
8.93146
30
4.76
0
VERTEX
10
9.82216
20
8.92331
30
4.76
0
VERTEX
10
9.80858
20
8.90159
30
4.76
0
VERTEX
10
9.80858
20
8.89887
30
4.76
0
SEQEND
0
POLYLINE
62
224
66
1
70
1
3
mitochondrion
0
VERTEX
10
9.21855
20
8.85426
30
4.76
0
VERTEX
10
9.22272
20
8.8487
30
4.76
0
VERTEX
10
9.22411
20
8.84313
30
4.76
0
VERTEX
10
9.23106
20
8.83201
30
4.76
0
VERTEX
10
9.23524
20
8.82228
30
4.76
0
VERTEX
10
9.24219
20
8.81115
30
4.76
0
VERTEX
10
9.24219
20
8.80837
30
4.76
0
VERTEX
10
9.25053
20
8.80003
30
4.76
0
VERTEX
10
9.26026
20
8.78891
30
4.76
0
VERTEX
10
9.27973
20
8.77361
30
4.76
0
VERTEX
10
9.29085
20
8.76944
30
4.76
0
VERTEX
10
9.29641
20
8.76666
30
4.76
0
VERTEX
10
9.2992
20
8.76388
30
4.76
0
VERTEX
10
9.30198
20
8.76388
30
4.76
0
VERTEX
10
9.30476
20
8.7611
30
4.76
0
VERTEX
10
9.31032
20
8.7611
30
4.76
0
VERTEX
10
9.31588
20
8.75693
30
4.76
0
VERTEX
10
9.327
20
8.75554
30
4.76
0
VERTEX
10
9.33118
20
8.75137
30
4.76
0
VERTEX
10
9.37567
20
8.74998
30
4.76
0
VERTEX
10
9.39792
20
8.75137
30
4.76
0
VERTEX
10
9.40348
20
8.75276
30
4.76
0
VERTEX
10
9.40626
20
8.75554
30
4.76
0
VERTEX
10
9.41182
20
8.75693
30
4.76
0
VERTEX
10
9.4146
20
8.75693
30
4.76
0
VERTEX
10
9.43546
20
8.77222
30
4.76
0
VERTEX
10
9.44658
20
8.78056
30
4.76
0
VERTEX
10
9.45909
20
8.80142
30
4.76
0
VERTEX
10
9.46188
20
8.8042
30
4.76
0
VERTEX
10
9.46744
20
8.82645
30
4.76
0
VERTEX
10
9.47022
20
8.83757
30
4.76
0
VERTEX
10
9.47022
20
8.85982
30
4.76
0
VERTEX
10
9.46744
20
8.88207
30
4.76
0
VERTEX
10
9.45214
20
8.90292
30
4.76
0
VERTEX
10
9.44519
20
8.91127
30
4.76
0
VERTEX
10
9.43546
20
8.91961
30
4.76
0
VERTEX
10
9.4299
20
8.92517
30
4.76
0
VERTEX
10
9.42711
20
8.92517
30
4.76
0
VERTEX
10
9.41182
20
8.94603
30
4.76
0
VERTEX
10
9.40487
20
8.95437
30
4.76
0
VERTEX
10
9.4007
20
8.95993
30
4.76
0
VERTEX
10
9.37984
20
8.97383
30
4.76
0
VERTEX
10
9.37428
20
8.97523
30
4.76
0
VERTEX
10
9.36316
20
8.97383
30
4.76
0
VERTEX
10
9.36037
20
8.97244
30
4.76
0
VERTEX
10
9.36594
20
8.96966
30
4.76
0
VERTEX
10
9.35898
20
8.96132
30
4.76
0
VERTEX
10
9.3562
20
8.95576
30
4.76
0
VERTEX
10
9.35203
20
8.95298
30
4.76
0
VERTEX
10
9.34925
20
8.95298
30
4.76
0
VERTEX
10
9.34647
20
8.9502
30
4.76
0
VERTEX
10
9.33535
20
8.94881
30
4.76
0
VERTEX
10
9.32978
20
8.94881
30
4.76
0
VERTEX
10
9.32422
20
8.94603
30
4.76
0
VERTEX
10
9.30198
20
8.94603
30
4.76
0
VERTEX
10
9.29085
20
8.94603
30
4.76
0
VERTEX
10
9.27973
20
8.94325
30
4.76
0
VERTEX
10
9.27417
20
8.94325
30
4.76
0
VERTEX
10
9.26861
20
8.93907
30
4.76
0
VERTEX
10
9.25748
20
8.93629
30
4.76
0
VERTEX
10
9.24497
20
8.91544
30
4.76
0
VERTEX
10
9.2408
20
8.90987
30
4.76
0
VERTEX
10
9.23941
20
8.90709
30
4.76
0
VERTEX
10
9.23663
20
8.90709
30
4.76
0
VERTEX
10
9.23245
20
8.89597
30
4.76
0
VERTEX
10
9.21855
20
8.87372
30
4.76
0
VERTEX
10
9.21855
20
8.8626
30
4.76
0
VERTEX
10
9.21855
20
8.85704
30
4.76
0
VERTEX
10
9.21855
20
8.85565
30
4.76
0
SEQEND
0
POLYLINE
62
236
66
1
70
1
3
postsynaptic_density
0
VERTEX
10
8.80674
20
9.42073
30
4.76
0
VERTEX
10
8.86646
20
9.39834
30
4.76
0
VERTEX
10
8.89632
20
9.38901
30
4.76
0
VERTEX
10
8.91125
20
9.38341
30
4.76
0
VERTEX
10
8.92618
20
9.37408
30
4.76
0
VERTEX
10
8.93551
20
9.36661
30
4.76
0
VERTEX
10
8.95044
20
9.36288
30
4.76
0
VERTEX
10
8.95791
20
9.36288
30
4.76
0
VERTEX
10
8.96537
20
9.35915
30
4.76
0
VERTEX
10
8.99523
20
9.36101
30
4.76
0
VERTEX
10
9.01016
20
9.36101
30
4.76
0
VERTEX
10
9.02509
20
9.36661
30
4.76
0
VERTEX
10
9.03256
20
9.36661
30
4.76
0
VERTEX
10
9.06055
20
9.38714
30
4.76
0
VERTEX
10
9.07175
20
9.40207
30
4.76
0
VERTEX
10
9.07548
20
9.40953
30
4.76
0
VERTEX
10
9.07548
20
9.42446
30
4.76
0
VERTEX
10
9.07175
20
9.43939
30
4.76
0
VERTEX
10
9.07175
20
9.44313
30
4.76
0
VERTEX
10
9.06055
20
9.45619
30
4.76
0
VERTEX
10
9.06055
20
9.45992
30
4.76
0
VERTEX
10
9.05308
20
9.46739
30
4.76
0
VERTEX
10
9.04935
20
9.47485
30
4.76
0
VERTEX
10
9.02136
20
9.49725
30
4.76
0
VERTEX
10
9.01389
20
9.50471
30
4.76
0
VERTEX
10
8.99896
20
9.51218
30
4.76
0
VERTEX
10
8.98403
20
9.51591
30
4.76
0
VERTEX
10
8.97657
20
9.52151
30
4.76
0
VERTEX
10
8.96164
20
9.52337
30
4.76
0
VERTEX
10
8.94671
20
9.52897
30
4.76
0
VERTEX
10
8.88699
20
9.53084
30
4.76
0
VERTEX
10
8.87206
20
9.53084
30
4.76
0
VERTEX
10
8.86459
20
9.52897
30
4.76
0
VERTEX
10
8.83847
20
9.51218
30
4.76
0
VERTEX
10
8.8254
20
9.50471
30
4.76
0
VERTEX
10
8.81421
20
9.48978
30
4.76
0
VERTEX
10
8.81047
20
9.47485
30
4.76
0
VERTEX
10
8.80674
20
9.46739
30
4.76
0
VERTEX
10
8.80674
20
9.43753
30
4.76
0
VERTEX
10
8.80674
20
9.4226
30
4.76
0
SEQEND
0
POLYLINE
62
227
66
1
70
1
3
endoplasmic_reticulum
0
VERTEX
10
8.95204
20
8.72199
30
4.76
0
VERTEX
10
8.95661
20
8.7098
30
4.76
0
VERTEX
10
8.95661
20
8.70371
30
4.76
0
VERTEX
10
8.96575
20
8.69304
30
4.76
0
VERTEX
10
8.97794
20
8.69609
30
4.76
0
VERTEX
10
8.97946
20
8.70218
30
4.76
0
VERTEX
10
8.98403
20
8.70828
30
4.76
0
VERTEX
10
8.98555
20
8.71437
30
4.76
0
VERTEX
10
8.99622
20
8.72351
30
4.76
0
VERTEX
10
9.00383
20
8.73418
30
4.76
0
VERTEX
10
9.00383
20
8.74636
30
4.76
0
VERTEX
10
9.00231
20
8.75246
30
4.76
0
VERTEX
10
8.99012
20
8.7616
30
4.76
0
VERTEX
10
8.98708
20
8.76465
30
4.76
0
VERTEX
10
8.98403
20
8.76465
30
4.76
0
VERTEX
10
8.97336
20
8.77531
30
4.76
0
VERTEX
10
8.96879
20
8.77988
30
4.76
0
VERTEX
10
8.96422
20
8.76769
30
4.76
0
VERTEX
10
8.95661
20
8.75855
30
4.76
0
VERTEX
10
8.95204
20
8.73418
30
4.76
0
VERTEX
10
8.95204
20
8.72351
30
4.76
0
SEQEND
0
POLYLINE
62
227
66
1
70
1
3
endoplasmic_reticulum
0
VERTEX
10
9.87375
20
8.86215
30
4.76
0
VERTEX
10
9.88594
20
8.85301
30
4.76
0
VERTEX
10
9.89203
20
8.84996
30
4.76
0
VERTEX
10
9.91641
20
8.85149
30
4.76
0
VERTEX
10
9.94078
20
8.84539
30
4.76
0
VERTEX
10
9.98953
20
8.84387
30
4.76
0
VERTEX
10
10.0017
20
8.84234
30
4.76
0
VERTEX
10
10.0032
20
8.8393
30
4.76
0
VERTEX
10
10.0276
20
8.83473
30
4.76
0
VERTEX
10
10.0352
20
8.82863
30
4.76
0
VERTEX
10
10.0596
20
8.83016
30
4.76
0
VERTEX
10
10.084
20
8.83625
30
4.76
0
VERTEX
10
10.0901
20
8.8393
30
4.76
0
VERTEX
10
10.0962
20
8.84539
30
4.76
0
VERTEX
10
10.1038
20
8.86977
30
4.76
0
VERTEX
10
10.1038
20
8.87586
30
4.76
0
VERTEX
10
10.1038
20
8.87891
30
4.76
0
VERTEX
10
10.0916
20
8.88957
30
4.76
0
VERTEX
10
10.0855
20
8.88957
30
4.76
0
VERTEX
10
10.0825
20
8.88957
30
4.76
0
VERTEX
10
10.0718
20
8.88043
30
4.76
0
VERTEX
10
10.0596
20
8.87586
30
4.76
0
VERTEX
10
10.0474
20
8.87586
30
4.76
0
VERTEX
10
10.0413
20
8.87281
30
4.76
0
VERTEX
10
10.017
20
8.87129
30
4.76
0
VERTEX
10
10.0048
20
8.87434
30
4.76
0
VERTEX
10
9.98039
20
8.87434
30
4.76
0
VERTEX
10
9.9743
20
8.87434
30
4.76
0
VERTEX
10
9.96363
20
8.87891
30
4.76
0
VERTEX
10
9.95754
20
8.88043
30
4.76
0
VERTEX
10
9.93621
20
8.90024
30
4.76
0
VERTEX
10
9.93316
20
8.90328
30
4.76
0
VERTEX
10
9.92707
20
8.90328
30
4.76
0
VERTEX
10
9.91488
20
8.9109
30
4.76
0
VERTEX
10
9.90269
20
8.9109
30
4.76
0
VERTEX
10
9.8966
20
8.9109
30
4.76
0
VERTEX
10
9.89355
20
8.9109
30
4.76
0
VERTEX
10
9.88898
20
8.90481
30
4.76
0
VERTEX
10
9.88746
20
8.89871
30
4.76
0
VERTEX
10
9.87984
20
8.88957
30
4.76
0
VERTEX
10
9.8768
20
8.88348
30
4.76
0
VERTEX
10
9.87527
20
8.87129
30
4.76
0
VERTEX
10
9.87375
20
8.8652
30
4.76
0
VERTEX
10
9.87375
20
8.86367
30
4.76
0
SEQEND
0
POLYLINE
62
227
66
1
70
1
3
endoplasmic_reticulum
0
VERTEX
10
9.93621
20
8.93223
30
4.76
0
VERTEX
10
9.94535
20
8.92309
30
4.76
0
VERTEX
10
9.94992
20
8.917
30
4.76
0
VERTEX
10
9.96211
20
8.91547
30
4.76
0
VERTEX
10
9.9743
20
8.92004
30
4.76
0
VERTEX
10
9.97735
20
8.92614
30
4.76
0
VERTEX
10
9.98192
20
8.92918
30
4.76
0
VERTEX
10
9.98496
20
8.93528
30
4.76
0
VERTEX
10
9.98496
20
8.94747
30
4.76
0
VERTEX
10
9.98496
20
8.95051
30
4.76
0
VERTEX
10
9.97278
20
8.96118
30
4.76
0
VERTEX
10
9.96668
20
8.96575
30
4.76
0
VERTEX
10
9.96363
20
8.96727
30
4.76
0
VERTEX
10
9.95754
20
8.96118
30
4.76
0
VERTEX
10
9.95449
20
8.95813
30
4.76
0
VERTEX
10
9.94231
20
8.95508
30
4.76
0
VERTEX
10
9.93926
20
8.95204
30
4.76
0
VERTEX
10
9.93621
20
8.93985
30
4.76
0
VERTEX
10
9.93621
20
8.93375
30
4.76
0
SEQEND
0
POLYLINE
62
227
66
1
70
1
3
endoplasmic_reticulum
0
VERTEX
10
8.84996
20
8.70523
30
4.76
0
VERTEX
10
8.87281
20
8.68847
30
4.76
0
VERTEX
10
8.87738
20
8.67628
30
4.76
0
VERTEX
10
8.88196
20
8.67171
30
4.76
0
VERTEX
10
8.89414
20
8.67171
30
4.76
0
VERTEX
10
8.90024
20
8.67324
30
4.76
0
VERTEX
10
8.9109
20
8.6839
30
4.76
0
VERTEX
10
8.91395
20
8.68695
30
4.76
0
VERTEX
10
8.91547
20
8.69914
30
4.76
0
VERTEX
10
8.91395
20
8.70523
30
4.76
0
VERTEX
10
8.89414
20
8.72351
30
4.76
0
VERTEX
10
8.88196
20
8.72351
30
4.76
0
VERTEX
10
8.87891
20
8.72199
30
4.76
0
VERTEX
10
8.87281
20
8.72504
30
4.76
0
VERTEX
10
8.86063
20
8.72504
30
4.76
0
VERTEX
10
8.85758
20
8.71894
30
4.76
0
VERTEX
10
8.85149
20
8.71742
30
4.76
0
VERTEX
10
8.84996
20
8.70675
30
4.76
0
SEQEND
0
POLYLINE
62
227
66
1
70
1
3
endoplasmic_reticulum
0
VERTEX
10
8.95204
20
8.82102
30
4.76
0
VERTEX
10
8.9627
20
8.81035
30
4.76
0
VERTEX
10
8.96879
20
8.8073
30
4.76
0
VERTEX
10
8.98098
20
8.81187
30
4.76
0
VERTEX
10
8.98708
20
8.81492
30
4.76
0
VERTEX
10
8.99317
20
8.81492
30
4.76
0
VERTEX
10
8.99622
20
8.81797
30
4.76
0
VERTEX
10
9.00231
20
8.81645
30
4.76
0
VERTEX
10
9.00841
20
8.81797
30
4.76
0
VERTEX
10
9.01145
20
8.82102
30
4.76
0
VERTEX
10
9.01145
20
8.82406
30
4.76
0
VERTEX
10
9.00841
20
8.82559
30
4.76
0
VERTEX
10
9.00993
20
8.82863
30
4.76
0
VERTEX
10
9.00536
20
8.8393
30
4.76
0
VERTEX
10
9.00688
20
8.84539
30
4.76
0
VERTEX
10
9.01907
20
8.85149
30
4.76
0
VERTEX
10
9.02973
20
8.86063
30
4.76
0
VERTEX
10
9.03888
20
8.87281
30
4.76
0
VERTEX
10
9.04954
20
8.88196
30
4.76
0
VERTEX
10
9.05106
20
8.90633
30
4.76
0
VERTEX
10
9.05259
20
8.91243
30
4.76
0
VERTEX
10
9.05259
20
8.91547
30
4.76
0
VERTEX
10
9.05563
20
8.91852
30
4.76
0
VERTEX
10
9.0602
20
8.93071
30
4.76
0
VERTEX
10
9.06173
20
8.93528
30
4.76
0
VERTEX
10
9.06782
20
8.9368
30
4.76
0
VERTEX
10
9.11353
20
8.96575
30
4.76
0
VERTEX
10
9.12571
20
8.97489
30
4.76
0
VERTEX
10
9.13028
20
8.98708
30
4.76
0
VERTEX
10
9.12571
20
9.01145
30
4.76
0
VERTEX
10
9.12267
20
9.0145
30
4.76
0
VERTEX
10
9.11048
20
9.0145
30
4.76
0
VERTEX
10
9.10439
20
9.01298
30
4.76
0
VERTEX
10
9.10134
20
9.01298
30
4.76
0
VERTEX
10
9.09829
20
9.00993
30
4.76
0
VERTEX
10
9.0861
20
9.00536
30
4.76
0
VERTEX
10
9.08001
20
9.00383
30
4.76
0
VERTEX
10
9.06782
20
9.00688
30
4.76
0
VERTEX
10
9.04345
20
9.00688
30
4.76
0
VERTEX
10
9.03278
20
9.0145
30
4.76
0
VERTEX
10
9.00841
20
9.01602
30
4.76
0
VERTEX
10
8.99622
20
9.0145
30
4.76
0
VERTEX
10
8.99165
20
9.01298
30
4.76
0
VERTEX
10
8.99317
20
9.01145
30
4.76
0
VERTEX
10
8.98098
20
9.00841
30
4.76
0
VERTEX
10
8.97794
20
9.00536
30
4.76
0
VERTEX
10
8.97794
20
8.98098
30
4.76
0
VERTEX
10
8.98098
20
8.96879
30
4.76
0
VERTEX
10
8.98098
20
8.95661
30
4.76
0
VERTEX
10
8.98098
20
8.95051
30
4.76
0
VERTEX
10
8.98555
20
8.94442
30
4.76
0
VERTEX
10
8.99012
20
8.94137
30
4.76
0
VERTEX
10
8.99622
20
8.93528
30
4.76
0
VERTEX
10
8.99622
20
8.93223
30
4.76
0
VERTEX
10
8.99926
20
8.92918
30
4.76
0
VERTEX
10
9.00383
20
8.90481
30
4.76
0
VERTEX
10
8.99469
20
8.89414
30
4.76
0
VERTEX
10
8.99012
20
8.88348
30
4.76
0
VERTEX
10
8.98555
20
8.87738
30
4.76
0
VERTEX
10
8.98555
20
8.87129
30
4.76
0
VERTEX
10
8.98098
20
8.8591
30
4.76
0
VERTEX
10
8.98098
20
8.85606
30
4.76
0
VERTEX
10
8.97032
20
8.84387
30
4.76
0
VERTEX
10
8.96575
20
8.84082
30
4.76
0
VERTEX
10
8.9627
20
8.84082
30
4.76
0
VERTEX
10
8.95813
20
8.83473
30
4.76
0
VERTEX
10
8.95204
20
8.83168
30
4.76
0
VERTEX
10
8.95204
20
8.82559
30
4.76
0
VERTEX
10
8.95204
20
8.82254
30
4.76
0
SEQEND
0
ENDSEC
0
EOF
